<?xml version="1.0" encoding="UTF-8" standalone="no"?>
<!DOCTYPE svg PUBLIC "-//W3C//DTD SVG 1.1//EN"
 "http://www.w3.org/Graphics/SVG/1.1/DTD/svg11.dtd">
<!-- Generated by graphviz version 7.0.4 (20221203.1631)
 -->
<!-- Title: G Pages: 1 -->
<svg width="319pt" height="332pt"
 viewBox="0.00 0.00 318.73 332.00" xmlns="http://www.w3.org/2000/svg" xmlns:xlink="http://www.w3.org/1999/xlink">
<g id="graph0" class="graph" transform="scale(1 1) rotate(0) translate(4 328)">
<title>G</title>
<polygon fill="white" stroke="none" points="-4,4 -4,-328 314.73,-328 314.73,4 -4,4"/>
<!-- any -->
<g id="node1" class="node">
<title>any</title>
<ellipse fill="none" stroke="black" cx="207.5" cy="-306" rx="27" ry="18"/>
<text text-anchor="middle" x="207.5" y="-302.3" font-family="Times,serif" font-size="14.00">any</text>
</g>
<!-- error -->
<g id="node2" class="node">
<title>error</title>
<ellipse fill="none" stroke="black" cx="226.5" cy="-90" rx="27.9" ry="18"/>
<text text-anchor="middle" x="226.5" y="-86.3" font-family="Times,serif" font-size="14.00">error</text>
</g>
<!-- any&#45;&gt;error -->
<g id="edge1" class="edge">
<title>any&#45;&gt;error</title>
<path fill="none" stroke="black" d="M228.03,-293.95C243.72,-284.6 264.9,-269.88 278.5,-252 299.28,-224.67 300.17,-213.75 306.5,-180 309.45,-164.27 314.07,-158.1 306.5,-144 296.77,-125.89 277.84,-112.92 260.83,-104.35"/>
<polygon fill="black" stroke="black" points="262.5,-101.27 251.96,-100.22 259.54,-107.61 262.5,-101.27"/>
</g>
<!-- string -->
<g id="node3" class="node">
<title>string</title>
<ellipse fill="none" stroke="black" cx="62.5" cy="-162" rx="30.59" ry="18"/>
<text text-anchor="middle" x="62.5" y="-158.3" font-family="Times,serif" font-size="14.00">string</text>
</g>
<!-- any&#45;&gt;string -->
<g id="edge2" class="edge">
<title>any&#45;&gt;string</title>
<path fill="none" stroke="black" d="M180.33,-304.92C143.46,-303.18 78.7,-293.9 48.5,-252 35.58,-234.07 41.18,-208.83 48.8,-189.8"/>
<polygon fill="black" stroke="black" points="51.93,-191.37 52.78,-180.8 45.53,-188.53 51.93,-191.37"/>
</g>
<!-- bcs -->
<g id="node4" class="node">
<title>bcs</title>
<ellipse fill="none" stroke="black" cx="270.5" cy="-162" rx="27" ry="18"/>
<text text-anchor="middle" x="270.5" y="-158.3" font-family="Times,serif" font-size="14.00">bcs</text>
</g>
<!-- any&#45;&gt;bcs -->
<g id="edge3" class="edge">
<title>any&#45;&gt;bcs</title>
<path fill="none" stroke="black" d="M225.67,-292.12C237.7,-282.52 252.65,-268.3 260.5,-252 269.53,-233.24 271.85,-209.76 272.01,-191.63"/>
<polygon fill="black" stroke="black" points="275.51,-191.78 271.86,-181.83 268.51,-191.88 275.51,-191.78"/>
</g>
<!-- type_info -->
<g id="node5" class="node">
<title>type_info</title>
<ellipse fill="none" stroke="black" cx="207.5" cy="-234" rx="44.39" ry="18"/>
<text text-anchor="middle" x="207.5" y="-230.3" font-family="Times,serif" font-size="14.00">type_info</text>
</g>
<!-- any&#45;&gt;type_info -->
<g id="edge4" class="edge">
<title>any&#45;&gt;type_info</title>
<path fill="none" stroke="black" d="M207.5,-287.7C207.5,-280.41 207.5,-271.73 207.5,-263.54"/>
<polygon fill="black" stroke="black" points="211,-263.62 207.5,-253.62 204,-263.62 211,-263.62"/>
</g>
<!-- from_bcs -->
<g id="node6" class="node">
<title>from_bcs</title>
<ellipse fill="none" stroke="black" cx="101.5" cy="-234" rx="44.39" ry="18"/>
<text text-anchor="middle" x="101.5" y="-230.3" font-family="Times,serif" font-size="14.00">from_bcs</text>
</g>
<!-- any&#45;&gt;from_bcs -->
<g id="edge5" class="edge">
<title>any&#45;&gt;from_bcs</title>
<path fill="none" stroke="black" d="M189.03,-292.81C173.65,-282.65 151.38,-267.94 133.16,-255.91"/>
<polygon fill="black" stroke="black" points="135.33,-253.15 125.05,-250.56 131.47,-258.99 135.33,-253.15"/>
</g>
<!-- vector -->
<g id="node7" class="node">
<title>vector</title>
<ellipse fill="none" stroke="black" cx="32.5" cy="-18" rx="32.49" ry="18"/>
<text text-anchor="middle" x="32.5" y="-14.3" font-family="Times,serif" font-size="14.00">vector</text>
</g>
<!-- string&#45;&gt;vector -->
<g id="edge6" class="edge">
<title>string&#45;&gt;vector</title>
<path fill="none" stroke="black" d="M46.87,-146.41C37.53,-136.58 26.54,-122.75 21.5,-108 14.73,-88.18 18.11,-64.61 22.84,-46.71"/>
<polygon fill="black" stroke="black" points="26.14,-47.89 25.63,-37.31 19.43,-45.91 26.14,-47.89"/>
</g>
<!-- option -->
<g id="node8" class="node">
<title>option</title>
<ellipse fill="none" stroke="black" cx="63.5" cy="-90" rx="33.29" ry="18"/>
<text text-anchor="middle" x="63.5" y="-86.3" font-family="Times,serif" font-size="14.00">option</text>
</g>
<!-- string&#45;&gt;option -->
<g id="edge7" class="edge">
<title>string&#45;&gt;option</title>
<path fill="none" stroke="black" d="M62.74,-143.7C62.85,-136.41 62.97,-127.73 63.09,-119.54"/>
<polygon fill="black" stroke="black" points="66.59,-119.67 63.23,-109.62 59.59,-119.57 66.59,-119.67"/>
</g>
<!-- type_info&#45;&gt;error -->
<g id="edge8" class="edge">
<title>type_info&#45;&gt;error</title>
<path fill="none" stroke="black" d="M209.83,-215.59C213.04,-191.61 218.85,-148.14 222.69,-119.42"/>
<polygon fill="black" stroke="black" points="226.15,-119.99 224.01,-109.61 219.21,-119.06 226.15,-119.99"/>
</g>
<!-- type_info&#45;&gt;string -->
<g id="edge9" class="edge">
<title>type_info&#45;&gt;string</title>
<path fill="none" stroke="black" d="M179.88,-219.67C156.01,-208.15 121.44,-191.46 95.99,-179.17"/>
<polygon fill="black" stroke="black" points="97.6,-176.06 87.07,-174.86 94.55,-182.36 97.6,-176.06"/>
</g>
<!-- type_info&#45;&gt;bcs -->
<g id="edge11" class="edge">
<title>type_info&#45;&gt;bcs</title>
<path fill="none" stroke="black" d="M222.11,-216.76C230.32,-207.64 240.7,-196.11 249.74,-186.06"/>
<polygon fill="black" stroke="black" points="252.15,-188.62 256.24,-178.84 246.95,-183.93 252.15,-188.62"/>
</g>
<!-- features -->
<g id="node9" class="node">
<title>features</title>
<ellipse fill="none" stroke="black" cx="149.5" cy="-162" rx="38.19" ry="18"/>
<text text-anchor="middle" x="149.5" y="-158.3" font-family="Times,serif" font-size="14.00">features</text>
</g>
<!-- type_info&#45;&gt;features -->
<g id="edge10" class="edge">
<title>type_info&#45;&gt;features</title>
<path fill="none" stroke="black" d="M193.75,-216.41C186.64,-207.83 177.83,-197.19 169.94,-187.67"/>
<polygon fill="black" stroke="black" points="172.79,-185.62 163.71,-180.15 167.4,-190.09 172.79,-185.62"/>
</g>
<!-- from_bcs&#45;&gt;string -->
<g id="edge12" class="edge">
<title>from_bcs&#45;&gt;string</title>
<path fill="none" stroke="black" d="M92.06,-216.05C87.58,-208.03 82.14,-198.26 77.15,-189.3"/>
<polygon fill="black" stroke="black" points="80.24,-187.66 72.32,-180.63 74.13,-191.07 80.24,-187.66"/>
</g>
<!-- option&#45;&gt;vector -->
<g id="edge13" class="edge">
<title>option&#45;&gt;vector</title>
<path fill="none" stroke="black" d="M55.99,-72.05C52.57,-64.32 48.42,-54.96 44.57,-46.27"/>
<polygon fill="black" stroke="black" points="47.79,-44.9 40.55,-37.17 41.39,-47.73 47.79,-44.9"/>
</g>
<!-- features&#45;&gt;error -->
<g id="edge14" class="edge">
<title>features&#45;&gt;error</title>
<path fill="none" stroke="black" d="M166.59,-145.46C177.11,-135.9 190.76,-123.49 202.37,-112.93"/>
<polygon fill="black" stroke="black" points="204.6,-115.63 209.65,-106.32 199.89,-110.46 204.6,-115.63"/>
</g>
<!-- signer -->
<g id="node10" class="node">
<title>signer</title>
<ellipse fill="none" stroke="black" cx="148.5" cy="-90" rx="32.49" ry="18"/>
<text text-anchor="middle" x="148.5" y="-86.3" font-family="Times,serif" font-size="14.00">signer</text>
</g>
<!-- features&#45;&gt;signer -->
<g id="edge15" class="edge">
<title>features&#45;&gt;signer</title>
<path fill="none" stroke="black" d="M149.25,-143.7C149.15,-136.41 149.02,-127.73 148.9,-119.54"/>
<polygon fill="black" stroke="black" points="152.41,-119.57 148.76,-109.62 145.41,-119.67 152.41,-119.57"/>
</g>
</g>
</svg>
