<?xml version="1.0" encoding="UTF-8" standalone="no"?>
<!DOCTYPE svg PUBLIC "-//W3C//DTD SVG 1.1//EN"
 "http://www.w3.org/Graphics/SVG/1.1/DTD/svg11.dtd">
<!-- Generated by graphviz version 7.0.4 (20221203.1631)
 -->
<!-- Title: G Pages: 1 -->
<svg width="528pt" height="279pt"
 viewBox="0.00 0.00 528.09 279.00" xmlns="http://www.w3.org/2000/svg" xmlns:xlink="http://www.w3.org/1999/xlink">
<g id="graph0" class="graph" transform="scale(1 1) rotate(0) translate(4 275)">
<title>G</title>
<polygon fill="white" stroke="none" points="-4,4 -4,-275 524.09,-275 524.09,4 -4,4"/>
<g id="clust1" class="cluster">
<title>cluster_error</title>
<polygon fill="none" stroke="black" points="8,-80 8,-227 136,-227 136,-80 8,-80"/>
<text text-anchor="middle" x="72" y="-211.8" font-family="Times,serif" font-size="14.00">error</text>
</g>
<g id="clust2" class="cluster">
<title>cluster_features</title>
<polygon fill="none" stroke="black" points="144,-8 144,-227 336,-227 336,-8 144,-8"/>
<text text-anchor="middle" x="240" y="-211.8" font-family="Times,serif" font-size="14.00">features</text>
</g>
<!-- blake2b_256 -->
<g id="node1" class="node">
<title>blake2b_256</title>
<ellipse fill="none" stroke="black" cx="240" cy="-253" rx="55.79" ry="18"/>
<text text-anchor="middle" x="240" y="-249.3" font-family="Times,serif" font-size="14.00">blake2b_256</text>
</g>
<!-- error::invalid_state -->
<g id="node2" class="node">
<title>error::invalid_state</title>
<ellipse fill="none" stroke="black" cx="72" cy="-178" rx="55.79" ry="18"/>
<text text-anchor="middle" x="72" y="-174.3" font-family="Times,serif" font-size="14.00">invalid_state</text>
</g>
<!-- blake2b_256&#45;&gt;error::invalid_state -->
<g id="edge1" class="edge">
<title>blake2b_256&#45;&gt;error::invalid_state</title>
<path fill="none" stroke="black" d="M191.47,-243.65C174.71,-239.79 156.1,-234.38 140,-227 125.9,-220.54 111.68,-211.06 99.9,-202.23"/>
<polygon fill="black" stroke="black" points="102.28,-199.64 92.24,-196.28 97.99,-205.18 102.28,-199.64"/>
</g>
<!-- features::blake2b_256_enabled -->
<g id="node3" class="node">
<title>features::blake2b_256_enabled</title>
<ellipse fill="none" stroke="black" cx="240" cy="-178" rx="87.99" ry="18"/>
<text text-anchor="middle" x="240" y="-174.3" font-family="Times,serif" font-size="14.00">blake2b_256_enabled</text>
</g>
<!-- blake2b_256&#45;&gt;features::blake2b_256_enabled -->
<g id="edge2" class="edge">
<title>blake2b_256&#45;&gt;features::blake2b_256_enabled</title>
<path fill="none" stroke="black" d="M240,-234.7C240,-226.67 240,-216.9 240,-207.8"/>
<polygon fill="black" stroke="black" points="243.5,-207.94 240,-197.94 236.5,-207.94 243.5,-207.94"/>
</g>
<!-- blake2b_256_internal -->
<g id="node4" class="node">
<title>blake2b_256_internal</title>
<ellipse fill="none" stroke="black" cx="433" cy="-178" rx="87.18" ry="18"/>
<text text-anchor="middle" x="433" y="-174.3" font-family="Times,serif" font-size="14.00">blake2b_256_internal</text>
</g>
<!-- blake2b_256&#45;&gt;blake2b_256_internal -->
<g id="edge3" class="edge">
<title>blake2b_256&#45;&gt;blake2b_256_internal</title>
<path fill="none" stroke="black" d="M286.48,-242.74C303.58,-238.72 322.92,-233.44 340,-227 358.86,-219.88 378.85,-209.92 395.44,-200.91"/>
<polygon fill="black" stroke="black" points="396.91,-204.1 403.96,-196.19 393.52,-197.97 396.91,-204.1"/>
</g>
<!-- error::canonical -->
<g id="node5" class="node">
<title>error::canonical</title>
<ellipse fill="none" stroke="black" cx="72" cy="-106" rx="44.39" ry="18"/>
<text text-anchor="middle" x="72" y="-102.3" font-family="Times,serif" font-size="14.00">canonical</text>
</g>
<!-- error::invalid_state&#45;&gt;error::canonical -->
<g id="edge4" class="edge">
<title>error::invalid_state&#45;&gt;error::canonical</title>
<path fill="none" stroke="black" d="M72,-159.7C72,-152.41 72,-143.73 72,-135.54"/>
<polygon fill="black" stroke="black" points="75.5,-135.62 72,-125.62 68.5,-135.62 75.5,-135.62"/>
</g>
<!-- features::is_enabled -->
<g id="node6" class="node">
<title>features::is_enabled</title>
<ellipse fill="none" stroke="black" cx="240" cy="-106" rx="48.19" ry="18"/>
<text text-anchor="middle" x="240" y="-102.3" font-family="Times,serif" font-size="14.00">is_enabled</text>
</g>
<!-- features::blake2b_256_enabled&#45;&gt;features::is_enabled -->
<g id="edge5" class="edge">
<title>features::blake2b_256_enabled&#45;&gt;features::is_enabled</title>
<path fill="none" stroke="black" d="M240,-159.7C240,-152.41 240,-143.73 240,-135.54"/>
<polygon fill="black" stroke="black" points="243.5,-135.62 240,-125.62 236.5,-135.62 243.5,-135.62"/>
</g>
<!-- features::contains -->
<g id="node7" class="node">
<title>features::contains</title>
<ellipse fill="none" stroke="black" cx="240" cy="-34" rx="40.09" ry="18"/>
<text text-anchor="middle" x="240" y="-30.3" font-family="Times,serif" font-size="14.00">contains</text>
</g>
<!-- features::is_enabled&#45;&gt;features::contains -->
<g id="edge6" class="edge">
<title>features::is_enabled&#45;&gt;features::contains</title>
<path fill="none" stroke="black" d="M240,-87.7C240,-80.41 240,-71.73 240,-63.54"/>
<polygon fill="black" stroke="black" points="243.5,-63.62 240,-53.62 236.5,-63.62 243.5,-63.62"/>
</g>
</g>
</svg>
