<?xml version="1.0" encoding="UTF-8" standalone="no"?>
<!DOCTYPE svg PUBLIC "-//W3C//DTD SVG 1.1//EN"
 "http://www.w3.org/Graphics/SVG/1.1/DTD/svg11.dtd">
<!-- Generated by graphviz version 7.0.4 (20221203.1631)
 -->
<!-- Title: G Pages: 1 -->
<svg width="611pt" height="279pt"
 viewBox="0.00 0.00 610.59 279.00" xmlns="http://www.w3.org/2000/svg" xmlns:xlink="http://www.w3.org/1999/xlink">
<g id="graph0" class="graph" transform="scale(1 1) rotate(0) translate(4 275)">
<title>G</title>
<polygon fill="white" stroke="none" points="-4,4 -4,-275 606.59,-275 606.59,4 -4,4"/>
<g id="clust1" class="cluster">
<title>cluster_error</title>
<polygon fill="none" stroke="black" points="8,-80 8,-227 136,-227 136,-80 8,-80"/>
<text text-anchor="middle" x="72" y="-211.8" font-family="Times,serif" font-size="14.00">error</text>
</g>
<g id="clust2" class="cluster">
<title>cluster_features</title>
<polygon fill="none" stroke="black" points="144,-8 144,-227 432,-227 432,-8 144,-8"/>
<text text-anchor="middle" x="288" y="-211.8" font-family="Times,serif" font-size="14.00">features</text>
</g>
<!-- ripemd160 -->
<g id="node1" class="node">
<title>ripemd160</title>
<ellipse fill="none" stroke="black" cx="288" cy="-253" rx="49.29" ry="18"/>
<text text-anchor="middle" x="288" y="-249.3" font-family="Times,serif" font-size="14.00">ripemd160</text>
</g>
<!-- error::invalid_state -->
<g id="node2" class="node">
<title>error::invalid_state</title>
<ellipse fill="none" stroke="black" cx="72" cy="-178" rx="55.79" ry="18"/>
<text text-anchor="middle" x="72" y="-174.3" font-family="Times,serif" font-size="14.00">invalid_state</text>
</g>
<!-- ripemd160&#45;&gt;error::invalid_state -->
<g id="edge1" class="edge">
<title>ripemd160&#45;&gt;error::invalid_state</title>
<path fill="none" stroke="black" d="M239.51,-249.28C209.87,-246.3 171.68,-240.06 140,-227 125.45,-221 110.98,-211.42 99.15,-202.39"/>
<polygon fill="black" stroke="black" points="101.47,-199.77 91.46,-196.29 97.11,-205.25 101.47,-199.77"/>
</g>
<!-- features::sha_512_and_ripemd_160_enabled -->
<g id="node3" class="node">
<title>features::sha_512_and_ripemd_160_enabled</title>
<ellipse fill="none" stroke="black" cx="288" cy="-178" rx="135.68" ry="18"/>
<text text-anchor="middle" x="288" y="-174.3" font-family="Times,serif" font-size="14.00">sha_512_and_ripemd_160_enabled</text>
</g>
<!-- ripemd160&#45;&gt;features::sha_512_and_ripemd_160_enabled -->
<g id="edge2" class="edge">
<title>ripemd160&#45;&gt;features::sha_512_and_ripemd_160_enabled</title>
<path fill="none" stroke="black" d="M288,-234.7C288,-226.67 288,-216.9 288,-207.8"/>
<polygon fill="black" stroke="black" points="291.5,-207.94 288,-197.94 284.5,-207.94 291.5,-207.94"/>
</g>
<!-- ripemd160_internal -->
<g id="node4" class="node">
<title>ripemd160_internal</title>
<ellipse fill="none" stroke="black" cx="522" cy="-178" rx="80.69" ry="18"/>
<text text-anchor="middle" x="522" y="-174.3" font-family="Times,serif" font-size="14.00">ripemd160_internal</text>
</g>
<!-- ripemd160&#45;&gt;ripemd160_internal -->
<g id="edge3" class="edge">
<title>ripemd160&#45;&gt;ripemd160_internal</title>
<path fill="none" stroke="black" d="M335.69,-248.12C365.22,-244.7 403.55,-238.41 436,-227 454.13,-220.62 472.91,-210.6 488.29,-201.35"/>
<polygon fill="black" stroke="black" points="489.9,-204.47 496.57,-196.23 486.22,-198.51 489.9,-204.47"/>
</g>
<!-- error::canonical -->
<g id="node5" class="node">
<title>error::canonical</title>
<ellipse fill="none" stroke="black" cx="72" cy="-106" rx="44.39" ry="18"/>
<text text-anchor="middle" x="72" y="-102.3" font-family="Times,serif" font-size="14.00">canonical</text>
</g>
<!-- error::invalid_state&#45;&gt;error::canonical -->
<g id="edge4" class="edge">
<title>error::invalid_state&#45;&gt;error::canonical</title>
<path fill="none" stroke="black" d="M72,-159.7C72,-152.41 72,-143.73 72,-135.54"/>
<polygon fill="black" stroke="black" points="75.5,-135.62 72,-125.62 68.5,-135.62 75.5,-135.62"/>
</g>
<!-- features::is_enabled -->
<g id="node6" class="node">
<title>features::is_enabled</title>
<ellipse fill="none" stroke="black" cx="288" cy="-106" rx="48.19" ry="18"/>
<text text-anchor="middle" x="288" y="-102.3" font-family="Times,serif" font-size="14.00">is_enabled</text>
</g>
<!-- features::sha_512_and_ripemd_160_enabled&#45;&gt;features::is_enabled -->
<g id="edge5" class="edge">
<title>features::sha_512_and_ripemd_160_enabled&#45;&gt;features::is_enabled</title>
<path fill="none" stroke="black" d="M288,-159.7C288,-152.41 288,-143.73 288,-135.54"/>
<polygon fill="black" stroke="black" points="291.5,-135.62 288,-125.62 284.5,-135.62 291.5,-135.62"/>
</g>
<!-- features::contains -->
<g id="node7" class="node">
<title>features::contains</title>
<ellipse fill="none" stroke="black" cx="288" cy="-34" rx="40.09" ry="18"/>
<text text-anchor="middle" x="288" y="-30.3" font-family="Times,serif" font-size="14.00">contains</text>
</g>
<!-- features::is_enabled&#45;&gt;features::contains -->
<g id="edge6" class="edge">
<title>features::is_enabled&#45;&gt;features::contains</title>
<path fill="none" stroke="black" d="M288,-87.7C288,-80.41 288,-71.73 288,-63.54"/>
<polygon fill="black" stroke="black" points="291.5,-63.62 288,-53.62 284.5,-63.62 291.5,-63.62"/>
</g>
</g>
</svg>
