<?xml version="1.0" encoding="UTF-8" standalone="no"?>
<!DOCTYPE svg PUBLIC "-//W3C//DTD SVG 1.1//EN"
 "http://www.w3.org/Graphics/SVG/1.1/DTD/svg11.dtd">
<!-- Generated by graphviz version 7.0.4 (20221203.1631)
 -->
<!-- Title: G Pages: 1 -->
<svg width="389pt" height="218pt"
 viewBox="0.00 0.00 389.09 218.00" xmlns="http://www.w3.org/2000/svg" xmlns:xlink="http://www.w3.org/1999/xlink">
<g id="graph0" class="graph" transform="scale(1 1) rotate(0) translate(4 214)">
<title>G</title>
<polygon fill="white" stroke="none" points="-4,4 -4,-214 385.09,-214 385.09,4 -4,4"/>
<g id="clust1" class="cluster">
<title>cluster_option</title>
<polygon fill="none" stroke="black" points="21,-91 21,-166 171,-166 171,-91 21,-91"/>
<text text-anchor="middle" x="96" y="-150.8" font-family="Times,serif" font-size="14.00">option</text>
</g>
<g id="clust2" class="cluster">
<title>cluster_vector</title>
<polygon fill="none" stroke="black" points="8,-8 8,-83 110,-83 110,-8 8,-8"/>
<text text-anchor="middle" x="59" y="-67.8" font-family="Times,serif" font-size="14.00">vector</text>
</g>
<!-- public_key_from_bytes -->
<g id="node1" class="node">
<title>public_key_from_bytes</title>
<ellipse fill="none" stroke="black" cx="135" cy="-192" rx="94.78" ry="18"/>
<text text-anchor="middle" x="135" y="-188.3" font-family="Times,serif" font-size="14.00">public_key_from_bytes</text>
</g>
<!-- option::none -->
<g id="node2" class="node">
<title>option::none</title>
<ellipse fill="none" stroke="black" cx="135" cy="-117" rx="27.9" ry="18"/>
<text text-anchor="middle" x="135" y="-113.3" font-family="Times,serif" font-size="14.00">none</text>
</g>
<!-- public_key_from_bytes&#45;&gt;option::none -->
<g id="edge1" class="edge">
<title>public_key_from_bytes&#45;&gt;option::none</title>
<path fill="none" stroke="black" d="M135,-173.7C135,-165.67 135,-155.9 135,-146.8"/>
<polygon fill="black" stroke="black" points="138.5,-146.94 135,-136.94 131.5,-146.94 138.5,-146.94"/>
</g>
<!-- option::some -->
<g id="node3" class="node">
<title>option::some</title>
<ellipse fill="none" stroke="black" cx="59" cy="-117" rx="29.8" ry="18"/>
<text text-anchor="middle" x="59" y="-113.3" font-family="Times,serif" font-size="14.00">some</text>
</g>
<!-- public_key_from_bytes&#45;&gt;option::some -->
<g id="edge2" class="edge">
<title>public_key_from_bytes&#45;&gt;option::some</title>
<path fill="none" stroke="black" d="M108.4,-174.43C104.77,-171.78 101.2,-168.93 98,-166 90.57,-159.2 83.34,-150.93 77.17,-143.19"/>
<polygon fill="black" stroke="black" points="80.02,-141.14 71.15,-135.34 74.46,-145.4 80.02,-141.14"/>
</g>
<!-- validate_pubkey_internal -->
<g id="node4" class="node">
<title>validate_pubkey_internal</title>
<ellipse fill="none" stroke="black" cx="281" cy="-117" rx="100.18" ry="18"/>
<text text-anchor="middle" x="281" y="-113.3" font-family="Times,serif" font-size="14.00">validate_pubkey_internal</text>
</g>
<!-- public_key_from_bytes&#45;&gt;validate_pubkey_internal -->
<g id="edge3" class="edge">
<title>public_key_from_bytes&#45;&gt;validate_pubkey_internal</title>
<path fill="none" stroke="black" d="M167.4,-174.8C188.24,-164.38 215.54,-150.73 238.16,-139.42"/>
<polygon fill="black" stroke="black" points="239.45,-142.69 246.83,-135.09 236.32,-136.43 239.45,-142.69"/>
</g>
<!-- vector::singleton -->
<g id="node5" class="node">
<title>vector::singleton</title>
<ellipse fill="none" stroke="black" cx="59" cy="-34" rx="42.79" ry="18"/>
<text text-anchor="middle" x="59" y="-30.3" font-family="Times,serif" font-size="14.00">singleton</text>
</g>
<!-- option::some&#45;&gt;vector::singleton -->
<g id="edge4" class="edge">
<title>option::some&#45;&gt;vector::singleton</title>
<path fill="none" stroke="black" d="M59,-98.82C59,-88.69 59,-75.6 59,-63.92"/>
<polygon fill="black" stroke="black" points="62.5,-63.95 59,-53.95 55.5,-63.95 62.5,-63.95"/>
</g>
</g>
</svg>
