<?xml version="1.0" encoding="UTF-8" standalone="no"?>
<!DOCTYPE svg PUBLIC "-//W3C//DTD SVG 1.1//EN"
 "http://www.w3.org/Graphics/SVG/1.1/DTD/svg11.dtd">
<!-- Generated by graphviz version 7.0.4 (20221203.1631)
 -->
<!-- Title: G Pages: 1 -->
<svg width="408pt" height="207pt"
 viewBox="0.00 0.00 407.84 207.00" xmlns="http://www.w3.org/2000/svg" xmlns:xlink="http://www.w3.org/1999/xlink">
<g id="graph0" class="graph" transform="scale(1 1) rotate(0) translate(4 203)">
<title>G</title>
<polygon fill="white" stroke="none" points="-4,4 -4,-203 403.84,-203 403.84,4 -4,4"/>
<g id="clust1" class="cluster">
<title>cluster_error</title>
<polygon fill="none" stroke="black" points="8,-8 8,-155 170,-155 170,-8 8,-8"/>
<text text-anchor="middle" x="89" y="-139.8" font-family="Times,serif" font-size="14.00">error</text>
</g>
<!-- aggregate_pubkeys -->
<g id="node1" class="node">
<title>aggregate_pubkeys</title>
<ellipse fill="none" stroke="black" cx="189" cy="-181" rx="78.79" ry="18"/>
<text text-anchor="middle" x="189" y="-177.3" font-family="Times,serif" font-size="14.00">aggregate_pubkeys</text>
</g>
<!-- error::invalid_argument -->
<g id="node2" class="node">
<title>error::invalid_argument</title>
<ellipse fill="none" stroke="black" cx="89" cy="-106" rx="73.39" ry="18"/>
<text text-anchor="middle" x="89" y="-102.3" font-family="Times,serif" font-size="14.00">invalid_argument</text>
</g>
<!-- aggregate_pubkeys&#45;&gt;error::invalid_argument -->
<g id="edge1" class="edge">
<title>aggregate_pubkeys&#45;&gt;error::invalid_argument</title>
<path fill="none" stroke="black" d="M166.31,-163.44C152.88,-153.63 135.67,-141.07 120.89,-130.28"/>
<polygon fill="black" stroke="black" points="122.96,-127.46 112.82,-124.39 118.84,-133.11 122.96,-127.46"/>
</g>
<!-- aggregate_pubkeys_internal -->
<g id="node3" class="node">
<title>aggregate_pubkeys_internal</title>
<ellipse fill="none" stroke="black" cx="290" cy="-106" rx="109.68" ry="18"/>
<text text-anchor="middle" x="290" y="-102.3" font-family="Times,serif" font-size="14.00">aggregate_pubkeys_internal</text>
</g>
<!-- aggregate_pubkeys&#45;&gt;aggregate_pubkeys_internal -->
<g id="edge2" class="edge">
<title>aggregate_pubkeys&#45;&gt;aggregate_pubkeys_internal</title>
<path fill="none" stroke="black" d="M211.92,-163.44C225.29,-153.77 242.37,-141.42 257.15,-130.74"/>
<polygon fill="black" stroke="black" points="259.19,-133.59 265.24,-124.89 255.09,-127.91 259.19,-133.59"/>
</g>
<!-- error::canonical -->
<g id="node4" class="node">
<title>error::canonical</title>
<ellipse fill="none" stroke="black" cx="89" cy="-34" rx="44.39" ry="18"/>
<text text-anchor="middle" x="89" y="-30.3" font-family="Times,serif" font-size="14.00">canonical</text>
</g>
<!-- error::invalid_argument&#45;&gt;error::canonical -->
<g id="edge3" class="edge">
<title>error::invalid_argument&#45;&gt;error::canonical</title>
<path fill="none" stroke="black" d="M89,-87.7C89,-80.41 89,-71.73 89,-63.54"/>
<polygon fill="black" stroke="black" points="92.5,-63.62 89,-53.62 85.5,-63.62 92.5,-63.62"/>
</g>
</g>
</svg>
