<?xml version="1.0" encoding="UTF-8" standalone="no"?>
<!DOCTYPE svg PUBLIC "-//W3C//DTD SVG 1.1//EN"
 "http://www.w3.org/Graphics/SVG/1.1/DTD/svg11.dtd">
<!-- Generated by graphviz version 7.0.4 (20221203.1631)
 -->
<!-- Title: G Pages: 1 -->
<svg width="286pt" height="210pt"
 viewBox="0.00 0.00 286.00 210.00" xmlns="http://www.w3.org/2000/svg" xmlns:xlink="http://www.w3.org/1999/xlink">
<g id="graph0" class="graph" transform="scale(1 1) rotate(0) translate(4 206)">
<title>G</title>
<polygon fill="white" stroke="none" points="-4,4 -4,-206 282,-206 282,4 -4,4"/>
<g id="clust1" class="cluster">
<title>cluster_signer</title>
<polygon fill="none" stroke="black" points="8,-8 8,-158 158,-158 158,-8 8,-8"/>
<text text-anchor="middle" x="83" y="-142.8" font-family="Times,serif" font-size="14.00">signer</text>
</g>
<g id="clust2" class="cluster">
<title>cluster_vector</title>
<polygon fill="none" stroke="black" points="174,-8 174,-83 270,-83 270,-8 174,-8"/>
<text text-anchor="middle" x="222" y="-67.8" font-family="Times,serif" font-size="14.00">vector</text>
</g>
<!-- delegate -->
<g id="node1" class="node">
<title>delegate</title>
<ellipse fill="none" stroke="black" cx="160" cy="-184" rx="40.09" ry="18"/>
<text text-anchor="middle" x="160" y="-180.3" font-family="Times,serif" font-size="14.00">delegate</text>
</g>
<!-- signer::address_of -->
<g id="node2" class="node">
<title>signer::address_of</title>
<ellipse fill="none" stroke="black" cx="91" cy="-109" rx="48.99" ry="18"/>
<text text-anchor="middle" x="91" y="-105.3" font-family="Times,serif" font-size="14.00">address_of</text>
</g>
<!-- delegate&#45;&gt;signer::address_of -->
<g id="edge1" class="edge">
<title>delegate&#45;&gt;signer::address_of</title>
<path fill="none" stroke="black" d="M145.03,-167.16C136.02,-157.63 124.37,-145.3 114.19,-134.53"/>
<polygon fill="black" stroke="black" points="116.87,-132.28 107.46,-127.41 111.79,-137.09 116.87,-132.28"/>
</g>
<!-- add_element -->
<g id="node3" class="node">
<title>add_element</title>
<ellipse fill="none" stroke="black" cx="222" cy="-109" rx="55.79" ry="18"/>
<text text-anchor="middle" x="222" y="-105.3" font-family="Times,serif" font-size="14.00">add_element</text>
</g>
<!-- delegate&#45;&gt;add_element -->
<g id="edge2" class="edge">
<title>delegate&#45;&gt;add_element</title>
<path fill="none" stroke="black" d="M173.76,-166.8C181.6,-157.57 191.59,-145.81 200.44,-135.38"/>
<polygon fill="black" stroke="black" points="203.06,-137.7 206.87,-127.82 197.73,-133.17 203.06,-137.7"/>
</g>
<!-- signer::borrow_address -->
<g id="node4" class="node">
<title>signer::borrow_address</title>
<ellipse fill="none" stroke="black" cx="83" cy="-34" rx="66.89" ry="18"/>
<text text-anchor="middle" x="83" y="-30.3" font-family="Times,serif" font-size="14.00">borrow_address</text>
</g>
<!-- signer::address_of&#45;&gt;signer::borrow_address -->
<g id="edge3" class="edge">
<title>signer::address_of&#45;&gt;signer::borrow_address</title>
<path fill="none" stroke="black" d="M89.1,-90.7C88.22,-82.67 87.15,-72.9 86.16,-63.8"/>
<polygon fill="black" stroke="black" points="89.64,-63.49 85.07,-53.93 82.69,-64.26 89.64,-63.49"/>
</g>
<!-- vector::contains -->
<g id="node5" class="node">
<title>vector::contains</title>
<ellipse fill="none" stroke="black" cx="222" cy="-34" rx="40.09" ry="18"/>
<text text-anchor="middle" x="222" y="-30.3" font-family="Times,serif" font-size="14.00">contains</text>
</g>
<!-- add_element&#45;&gt;vector::contains -->
<g id="edge4" class="edge">
<title>add_element&#45;&gt;vector::contains</title>
<path fill="none" stroke="black" d="M222,-90.7C222,-82.67 222,-72.9 222,-63.8"/>
<polygon fill="black" stroke="black" points="225.5,-63.94 222,-53.94 218.5,-63.94 225.5,-63.94"/>
</g>
</g>
</svg>
