<?xml version="1.0" encoding="UTF-8" standalone="no"?>
<!DOCTYPE svg PUBLIC "-//W3C//DTD SVG 1.1//EN"
 "http://www.w3.org/Graphics/SVG/1.1/DTD/svg11.dtd">
<!-- Generated by graphviz version 7.0.4 (20221203.1631)
 -->
<!-- Title: G Pages: 1 -->
<svg width="244pt" height="135pt"
 viewBox="0.00 0.00 244.00 135.00" xmlns="http://www.w3.org/2000/svg" xmlns:xlink="http://www.w3.org/1999/xlink">
<g id="graph0" class="graph" transform="scale(1 1) rotate(0) translate(4 131)">
<title>G</title>
<polygon fill="white" stroke="none" points="-4,4 -4,-131 240,-131 240,4 -4,4"/>
<g id="clust1" class="cluster">
<title>cluster_bcs</title>
<polygon fill="none" stroke="black" points="8,-8 8,-83 104,-83 104,-8 8,-8"/>
<text text-anchor="middle" x="56" y="-67.8" font-family="Times,serif" font-size="14.00">bcs</text>
</g>
<g id="clust2" class="cluster">
<title>cluster_type_info</title>
<polygon fill="none" stroke="black" points="112,-8 112,-83 228,-83 228,-8 112,-8"/>
<text text-anchor="middle" x="170" y="-67.8" font-family="Times,serif" font-size="14.00">type_info</text>
</g>
<!-- pack -->
<g id="node1" class="node">
<title>pack</title>
<ellipse fill="none" stroke="black" cx="113" cy="-109" rx="27.1" ry="18"/>
<text text-anchor="middle" x="113" y="-105.3" font-family="Times,serif" font-size="14.00">pack</text>
</g>
<!-- bcs::to_bytes -->
<g id="node2" class="node">
<title>bcs::to_bytes</title>
<ellipse fill="none" stroke="black" cx="56" cy="-34" rx="40.09" ry="18"/>
<text text-anchor="middle" x="56" y="-30.3" font-family="Times,serif" font-size="14.00">to_bytes</text>
</g>
<!-- pack&#45;&gt;bcs::to_bytes -->
<g id="edge1" class="edge">
<title>pack&#45;&gt;bcs::to_bytes</title>
<path fill="none" stroke="black" d="M100.91,-92.52C93.63,-83.2 84.19,-71.1 75.84,-60.4"/>
<polygon fill="black" stroke="black" points="78.71,-58.39 69.79,-52.67 73.19,-62.7 78.71,-58.39"/>
</g>
<!-- type_info::type_name -->
<g id="node3" class="node">
<title>type_info::type_name</title>
<ellipse fill="none" stroke="black" cx="170" cy="-34" rx="50.09" ry="18"/>
<text text-anchor="middle" x="170" y="-30.3" font-family="Times,serif" font-size="14.00">type_name</text>
</g>
<!-- pack&#45;&gt;type_info::type_name -->
<g id="edge2" class="edge">
<title>pack&#45;&gt;type_info::type_name</title>
<path fill="none" stroke="black" d="M125.09,-92.52C132.32,-83.26 141.68,-71.27 149.99,-60.63"/>
<polygon fill="black" stroke="black" points="152.61,-62.96 156,-52.92 147.09,-58.65 152.61,-62.96"/>
</g>
</g>
</svg>
