<?xml version="1.0" encoding="UTF-8" standalone="no"?>
<!DOCTYPE svg PUBLIC "-//W3C//DTD SVG 1.1//EN"
 "http://www.w3.org/Graphics/SVG/1.1/DTD/svg11.dtd">
<!-- Generated by graphviz version 7.0.4 (20221203.1631)
 -->
<!-- Title: G Pages: 1 -->
<svg width="718pt" height="116pt"
 viewBox="0.00 0.00 718.42 116.00" xmlns="http://www.w3.org/2000/svg" xmlns:xlink="http://www.w3.org/1999/xlink">
<g id="graph0" class="graph" transform="scale(1 1) rotate(0) translate(4 112)">
<title>G</title>
<polygon fill="white" stroke="none" points="-4,4 -4,-112 714.42,-112 714.42,4 -4,4"/>
<!-- public_key_bytes_to_authentication_key -->
<g id="node1" class="node">
<title>public_key_bytes_to_authentication_key</title>
<ellipse fill="none" stroke="black" cx="359.43" cy="-18" rx="155.17" ry="18"/>
<text text-anchor="middle" x="359.43" y="-14.3" font-family="Times,serif" font-size="14.00">public_key_bytes_to_authentication_key</text>
</g>
<!-- unvalidated_public_key_to_authentication_key -->
<g id="node2" class="node">
<title>unvalidated_public_key_to_authentication_key</title>
<ellipse fill="none" stroke="black" cx="177.43" cy="-90" rx="177.37" ry="18"/>
<text text-anchor="middle" x="177.43" y="-86.3" font-family="Times,serif" font-size="14.00">unvalidated_public_key_to_authentication_key</text>
</g>
<!-- unvalidated_public_key_to_authentication_key&#45;&gt;public_key_bytes_to_authentication_key -->
<g id="edge1" class="edge">
<title>unvalidated_public_key_to_authentication_key&#45;&gt;public_key_bytes_to_authentication_key</title>
<path fill="none" stroke="black" d="M221.03,-72.23C246.37,-62.49 278.52,-50.12 305.46,-39.76"/>
<polygon fill="black" stroke="black" points="306.39,-43.15 314.47,-36.29 303.88,-36.62 306.39,-43.15"/>
</g>
<!-- validated_public_key_to_authentication_key -->
<g id="node3" class="node">
<title>validated_public_key_to_authentication_key</title>
<ellipse fill="none" stroke="black" cx="541.43" cy="-90" rx="168.97" ry="18"/>
<text text-anchor="middle" x="541.43" y="-86.3" font-family="Times,serif" font-size="14.00">validated_public_key_to_authentication_key</text>
</g>
<!-- validated_public_key_to_authentication_key&#45;&gt;public_key_bytes_to_authentication_key -->
<g id="edge2" class="edge">
<title>validated_public_key_to_authentication_key&#45;&gt;public_key_bytes_to_authentication_key</title>
<path fill="none" stroke="black" d="M497.84,-72.23C472.5,-62.49 440.34,-50.12 413.41,-39.76"/>
<polygon fill="black" stroke="black" points="414.99,-36.62 404.4,-36.29 412.48,-43.15 414.99,-36.62"/>
</g>
</g>
</svg>
