<?xml version="1.0" encoding="UTF-8" standalone="no"?>
<!DOCTYPE svg PUBLIC "-//W3C//DTD SVG 1.1//EN"
 "http://www.w3.org/Graphics/SVG/1.1/DTD/svg11.dtd">
<!-- Generated by graphviz version 7.0.4 (20221203.1631)
 -->
<!-- Title: G Pages: 1 -->
<svg width="221pt" height="207pt"
 viewBox="0.00 0.00 221.18 207.00" xmlns="http://www.w3.org/2000/svg" xmlns:xlink="http://www.w3.org/1999/xlink">
<g id="graph0" class="graph" transform="scale(1 1) rotate(0) translate(4 203)">
<title>G</title>
<polygon fill="white" stroke="none" points="-4,4 -4,-203 217.18,-203 217.18,4 -4,4"/>
<g id="clust1" class="cluster">
<title>cluster_error</title>
<polygon fill="none" stroke="black" points="25.59,-8 25.59,-155 187.59,-155 187.59,-8 25.59,-8"/>
<text text-anchor="middle" x="106.59" y="-139.8" font-family="Times,serif" font-size="14.00">error</text>
</g>
<!-- new_signature_from_bytes -->
<g id="node1" class="node">
<title>new_signature_from_bytes</title>
<ellipse fill="none" stroke="black" cx="106.59" cy="-181" rx="106.68" ry="18"/>
<text text-anchor="middle" x="106.59" y="-177.3" font-family="Times,serif" font-size="14.00">new_signature_from_bytes</text>
</g>
<!-- error::invalid_argument -->
<g id="node2" class="node">
<title>error::invalid_argument</title>
<ellipse fill="none" stroke="black" cx="106.59" cy="-106" rx="73.39" ry="18"/>
<text text-anchor="middle" x="106.59" y="-102.3" font-family="Times,serif" font-size="14.00">invalid_argument</text>
</g>
<!-- new_signature_from_bytes&#45;&gt;error::invalid_argument -->
<g id="edge1" class="edge">
<title>new_signature_from_bytes&#45;&gt;error::invalid_argument</title>
<path fill="none" stroke="black" d="M106.59,-162.7C106.59,-154.67 106.59,-144.9 106.59,-135.8"/>
<polygon fill="black" stroke="black" points="110.09,-135.94 106.59,-125.94 103.09,-135.94 110.09,-135.94"/>
</g>
<!-- error::canonical -->
<g id="node3" class="node">
<title>error::canonical</title>
<ellipse fill="none" stroke="black" cx="106.59" cy="-34" rx="44.39" ry="18"/>
<text text-anchor="middle" x="106.59" y="-30.3" font-family="Times,serif" font-size="14.00">canonical</text>
</g>
<!-- error::invalid_argument&#45;&gt;error::canonical -->
<g id="edge2" class="edge">
<title>error::invalid_argument&#45;&gt;error::canonical</title>
<path fill="none" stroke="black" d="M106.59,-87.7C106.59,-80.41 106.59,-71.73 106.59,-63.54"/>
<polygon fill="black" stroke="black" points="110.09,-63.62 106.59,-53.62 103.09,-63.62 110.09,-63.62"/>
</g>
</g>
</svg>
