<?xml version="1.0" encoding="UTF-8" standalone="no"?>
<!DOCTYPE svg PUBLIC "-//W3C//DTD SVG 1.1//EN"
 "http://www.w3.org/Graphics/SVG/1.1/DTD/svg11.dtd">
<!-- Generated by graphviz version 7.0.4 (20221203.1631)
 -->
<!-- Title: G Pages: 1 -->
<svg width="200pt" height="116pt"
 viewBox="0.00 0.00 199.79 116.00" xmlns="http://www.w3.org/2000/svg" xmlns:xlink="http://www.w3.org/1999/xlink">
<g id="graph0" class="graph" transform="scale(1 1) rotate(0) translate(4 112)">
<title>G</title>
<polygon fill="white" stroke="none" points="-4,4 -4,-112 195.79,-112 195.79,4 -4,4"/>
<!-- from_bcs -->
<g id="node1" class="node">
<title>from_bcs</title>
<ellipse fill="none" stroke="black" cx="79" cy="-18" rx="44.39" ry="18"/>
<text text-anchor="middle" x="79" y="-14.3" font-family="Times,serif" font-size="14.00">from_bcs</text>
</g>
<!-- any -->
<g id="node2" class="node">
<title>any</title>
<ellipse fill="none" stroke="black" cx="27" cy="-90" rx="27" ry="18"/>
<text text-anchor="middle" x="27" y="-86.3" font-family="Times,serif" font-size="14.00">any</text>
</g>
<!-- any&#45;&gt;from_bcs -->
<g id="edge1" class="edge">
<title>any&#45;&gt;from_bcs</title>
<path fill="none" stroke="black" d="M38.54,-73.46C44.82,-65.01 52.76,-54.32 59.93,-44.66"/>
<polygon fill="black" stroke="black" points="62.71,-46.8 65.86,-36.68 57.09,-42.62 62.71,-46.8"/>
</g>
<!-- copyable_any -->
<g id="node3" class="node">
<title>copyable_any</title>
<ellipse fill="none" stroke="black" cx="132" cy="-90" rx="59.59" ry="18"/>
<text text-anchor="middle" x="132" y="-86.3" font-family="Times,serif" font-size="14.00">copyable_any</text>
</g>
<!-- copyable_any&#45;&gt;from_bcs -->
<g id="edge2" class="edge">
<title>copyable_any&#45;&gt;from_bcs</title>
<path fill="none" stroke="black" d="M119.17,-72.05C112.89,-63.77 105.21,-53.62 98.25,-44.42"/>
<polygon fill="black" stroke="black" points="101.09,-42.37 92.26,-36.51 95.51,-46.6 101.09,-42.37"/>
</g>
</g>
</svg>
