<?xml version="1.0" encoding="UTF-8" standalone="no"?>
<!DOCTYPE svg PUBLIC "-//W3C//DTD SVG 1.1//EN"
 "http://www.w3.org/Graphics/SVG/1.1/DTD/svg11.dtd">
<!-- Generated by graphviz version 7.0.4 (20221203.1631)
 -->
<!-- Title: G Pages: 1 -->
<svg width="383pt" height="135pt"
 viewBox="0.00 0.00 383.35 135.00" xmlns="http://www.w3.org/2000/svg" xmlns:xlink="http://www.w3.org/1999/xlink">
<g id="graph0" class="graph" transform="scale(1 1) rotate(0) translate(4 131)">
<title>G</title>
<polygon fill="white" stroke="none" points="-4,4 -4,-131 379.35,-131 379.35,4 -4,4"/>
<g id="clust1" class="cluster">
<title>cluster_string</title>
<polygon fill="none" stroke="black" points="8,-8 8,-83 262,-83 262,-8 8,-8"/>
<text text-anchor="middle" x="135" y="-67.8" font-family="Times,serif" font-size="14.00">string</text>
</g>
<!-- to_string -->
<g id="node1" class="node">
<title>to_string</title>
<ellipse fill="none" stroke="black" cx="225" cy="-109" rx="42.49" ry="18"/>
<text text-anchor="middle" x="225" y="-105.3" font-family="Times,serif" font-size="14.00">to_string</text>
</g>
<!-- string::bytes -->
<g id="node2" class="node">
<title>string::bytes</title>
<ellipse fill="none" stroke="black" cx="225" cy="-34" rx="29.5" ry="18"/>
<text text-anchor="middle" x="225" y="-30.3" font-family="Times,serif" font-size="14.00">bytes</text>
</g>
<!-- to_string&#45;&gt;string::bytes -->
<g id="edge1" class="edge">
<title>to_string&#45;&gt;string::bytes</title>
<path fill="none" stroke="black" d="M225,-90.7C225,-82.67 225,-72.9 225,-63.8"/>
<polygon fill="black" stroke="black" points="228.5,-63.94 225,-53.94 221.5,-63.94 228.5,-63.94"/>
</g>
<!-- string::internal_check_utf8 -->
<g id="node3" class="node">
<title>string::internal_check_utf8</title>
<ellipse fill="none" stroke="black" cx="97" cy="-34" rx="81.49" ry="18"/>
<text text-anchor="middle" x="97" y="-30.3" font-family="Times,serif" font-size="14.00">internal_check_utf8</text>
</g>
<!-- to_string&#45;&gt;string::internal_check_utf8 -->
<g id="edge2" class="edge">
<title>to_string&#45;&gt;string::internal_check_utf8</title>
<path fill="none" stroke="black" d="M200.32,-93.92C181.97,-83.46 156.57,-68.97 135.54,-56.98"/>
<polygon fill="black" stroke="black" points="137.36,-53.99 126.94,-52.08 133.89,-60.07 137.36,-53.99"/>
</g>
<!-- from_bytes -->
<g id="node4" class="node">
<title>from_bytes</title>
<ellipse fill="none" stroke="black" cx="324" cy="-34" rx="51.19" ry="18"/>
<text text-anchor="middle" x="324" y="-30.3" font-family="Times,serif" font-size="14.00">from_bytes</text>
</g>
<!-- to_string&#45;&gt;from_bytes -->
<g id="edge3" class="edge">
<title>to_string&#45;&gt;from_bytes</title>
<path fill="none" stroke="black" d="M249.22,-94.02C254.83,-90.57 260.71,-86.78 266,-83 276.48,-75.52 287.49,-66.69 297.06,-58.66"/>
<polygon fill="black" stroke="black" points="299.24,-61.4 304.58,-52.25 294.7,-56.07 299.24,-61.4"/>
</g>
</g>
</svg>
