<?xml version="1.0" encoding="UTF-8" standalone="no"?>
<!DOCTYPE svg PUBLIC "-//W3C//DTD SVG 1.1//EN"
 "http://www.w3.org/Graphics/SVG/1.1/DTD/svg11.dtd">
<!-- Generated by graphviz version 7.0.4 (20221203.1631)
 -->
<!-- Title: G Pages: 1 -->
<svg width="772pt" height="155pt"
 viewBox="0.00 0.00 772.10 155.00" xmlns="http://www.w3.org/2000/svg" xmlns:xlink="http://www.w3.org/1999/xlink">
<g id="graph0" class="graph" transform="scale(1 1) rotate(0) translate(4 151)">
<title>G</title>
<polygon fill="white" stroke="none" points="-4,4 -4,-151 768.1,-151 768.1,4 -4,4"/>
<g id="clust1" class="cluster">
<title>cluster_any</title>
<polygon fill="none" stroke="black" points="568.1,-64 568.1,-139 656.1,-139 656.1,-64 568.1,-64"/>
<text text-anchor="middle" x="612.1" y="-123.8" font-family="Times,serif" font-size="14.00">any</text>
</g>
<g id="clust2" class="cluster">
<title>cluster_copyable_any</title>
<polygon fill="none" stroke="black" points="664.1,-64 664.1,-139 756.1,-139 756.1,-64 664.1,-64"/>
<text text-anchor="middle" x="710.1" y="-123.8" font-family="Times,serif" font-size="14.00">copyable_any</text>
</g>
<!-- from_bytes -->
<g id="node1" class="node">
<title>from_bytes</title>
<ellipse fill="none" stroke="black" cx="396.1" cy="-18" rx="51.19" ry="18"/>
<text text-anchor="middle" x="396.1" y="-14.3" font-family="Times,serif" font-size="14.00">from_bytes</text>
</g>
<!-- to_address -->
<g id="node2" class="node">
<title>to_address</title>
<ellipse fill="none" stroke="black" cx="48.1" cy="-90" rx="48.19" ry="18"/>
<text text-anchor="middle" x="48.1" y="-86.3" font-family="Times,serif" font-size="14.00">to_address</text>
</g>
<!-- to_address&#45;&gt;from_bytes -->
<g id="edge1" class="edge">
<title>to_address&#45;&gt;from_bytes</title>
<path fill="none" stroke="black" d="M76.26,-74.92C85.29,-70.88 95.45,-66.81 105.1,-64 182.63,-41.42 275.28,-29.57 334.87,-23.81"/>
<polygon fill="black" stroke="black" points="335.2,-27.29 344.83,-22.88 334.54,-20.32 335.2,-27.29"/>
</g>
<!-- to_bool -->
<g id="node3" class="node">
<title>to_bool</title>
<ellipse fill="none" stroke="black" cx="152.1" cy="-90" rx="37.89" ry="18"/>
<text text-anchor="middle" x="152.1" y="-86.3" font-family="Times,serif" font-size="14.00">to_bool</text>
</g>
<!-- to_bool&#45;&gt;from_bytes -->
<g id="edge2" class="edge">
<title>to_bool&#45;&gt;from_bytes</title>
<path fill="none" stroke="black" d="M174.96,-75.28C182.46,-71.21 190.95,-67.03 199.1,-64 244.67,-47.02 298.66,-35.23 338.59,-27.99"/>
<polygon fill="black" stroke="black" points="338.99,-31.48 348.22,-26.29 337.77,-24.58 338.99,-31.48"/>
</g>
<!-- to_string -->
<g id="node4" class="node">
<title>to_string</title>
<ellipse fill="none" stroke="black" cx="250.1" cy="-90" rx="42.49" ry="18"/>
<text text-anchor="middle" x="250.1" y="-86.3" font-family="Times,serif" font-size="14.00">to_string</text>
</g>
<!-- to_string&#45;&gt;from_bytes -->
<g id="edge3" class="edge">
<title>to_string&#45;&gt;from_bytes</title>
<path fill="none" stroke="black" d="M277.06,-75.7C284.81,-71.9 293.28,-67.77 301.1,-64 319.2,-55.27 339.31,-45.73 356.35,-37.68"/>
<polygon fill="black" stroke="black" points="357.6,-40.96 365.15,-33.53 354.61,-34.63 357.6,-40.96"/>
</g>
<!-- to_u128 -->
<g id="node5" class="node">
<title>to_u128</title>
<ellipse fill="none" stroke="black" cx="350.1" cy="-90" rx="39.79" ry="18"/>
<text text-anchor="middle" x="350.1" y="-86.3" font-family="Times,serif" font-size="14.00">to_u128</text>
</g>
<!-- to_u128&#45;&gt;from_bytes -->
<g id="edge4" class="edge">
<title>to_u128&#45;&gt;from_bytes</title>
<path fill="none" stroke="black" d="M361,-72.41C366.3,-64.34 372.81,-54.43 378.78,-45.35"/>
<polygon fill="black" stroke="black" points="381.56,-47.5 384.12,-37.22 375.71,-43.66 381.56,-47.5"/>
</g>
<!-- to_u64 -->
<g id="node6" class="node">
<title>to_u64</title>
<ellipse fill="none" stroke="black" cx="443.1" cy="-90" rx="35.19" ry="18"/>
<text text-anchor="middle" x="443.1" y="-86.3" font-family="Times,serif" font-size="14.00">to_u64</text>
</g>
<!-- to_u64&#45;&gt;from_bytes -->
<g id="edge5" class="edge">
<title>to_u64&#45;&gt;from_bytes</title>
<path fill="none" stroke="black" d="M432.19,-72.76C426.64,-64.49 419.75,-54.23 413.49,-44.9"/>
<polygon fill="black" stroke="black" points="416.59,-43.24 408.11,-36.89 410.78,-47.14 416.59,-43.24"/>
</g>
<!-- to_u8 -->
<g id="node7" class="node">
<title>to_u8</title>
<ellipse fill="none" stroke="black" cx="527.1" cy="-90" rx="30.59" ry="18"/>
<text text-anchor="middle" x="527.1" y="-86.3" font-family="Times,serif" font-size="14.00">to_u8</text>
</g>
<!-- to_u8&#45;&gt;from_bytes -->
<g id="edge6" class="edge">
<title>to_u8&#45;&gt;from_bytes</title>
<path fill="none" stroke="black" d="M507.39,-76.14C501,-72.12 493.82,-67.75 487.1,-64 470.68,-54.84 452.15,-45.51 436.12,-37.73"/>
<polygon fill="black" stroke="black" points="437.88,-34.69 427.35,-33.52 434.85,-41 437.88,-34.69"/>
</g>
<!-- any::unpack -->
<g id="node8" class="node">
<title>any::unpack</title>
<ellipse fill="none" stroke="black" cx="612.1" cy="-90" rx="36.29" ry="18"/>
<text text-anchor="middle" x="612.1" y="-86.3" font-family="Times,serif" font-size="14.00">unpack</text>
</g>
<!-- any::unpack&#45;&gt;from_bytes -->
<g id="edge7" class="edge">
<title>any::unpack&#45;&gt;from_bytes</title>
<path fill="none" stroke="black" d="M590.21,-75.4C583.03,-71.34 574.89,-67.13 567.1,-64 529.61,-48.93 485.46,-37.46 451.42,-29.87"/>
<polygon fill="black" stroke="black" points="452.28,-26.48 441.76,-27.77 450.79,-33.32 452.28,-26.48"/>
</g>
<!-- copyable_any::unpack -->
<g id="node9" class="node">
<title>copyable_any::unpack</title>
<ellipse fill="none" stroke="black" cx="708.1" cy="-90" rx="36.29" ry="18"/>
<text text-anchor="middle" x="708.1" y="-86.3" font-family="Times,serif" font-size="14.00">unpack</text>
</g>
<!-- copyable_any::unpack&#45;&gt;from_bytes -->
<g id="edge8" class="edge">
<title>copyable_any::unpack&#45;&gt;from_bytes</title>
<path fill="none" stroke="black" d="M685.79,-75.54C677.9,-71.29 668.82,-66.94 660.1,-64 592.62,-41.3 511.43,-29.66 457.06,-23.96"/>
<polygon fill="black" stroke="black" points="457.68,-20.51 447.38,-22.99 456.98,-27.48 457.68,-20.51"/>
</g>
</g>
</svg>
