<?xml version="1.0" encoding="UTF-8" standalone="no"?>
<!DOCTYPE svg PUBLIC "-//W3C//DTD SVG 1.1//EN"
 "http://www.w3.org/Graphics/SVG/1.1/DTD/svg11.dtd">
<!-- Generated by graphviz version 7.0.4 (20221203.1631)
 -->
<!-- Title: G Pages: 1 -->
<svg width="436pt" height="404pt"
 viewBox="0.00 0.00 436.40 404.00" xmlns="http://www.w3.org/2000/svg" xmlns:xlink="http://www.w3.org/1999/xlink">
<g id="graph0" class="graph" transform="scale(1 1) rotate(0) translate(4 400)">
<title>G</title>
<polygon fill="white" stroke="none" points="-4,4 -4,-400 432.4,-400 432.4,4 -4,4"/>
<!-- multi_ed25519 -->
<g id="node1" class="node">
<title>multi_ed25519</title>
<ellipse fill="none" stroke="black" cx="100.38" cy="-378" rx="64.19" ry="18"/>
<text text-anchor="middle" x="100.38" y="-374.3" font-family="Times,serif" font-size="14.00">multi_ed25519</text>
</g>
<!-- error -->
<g id="node2" class="node">
<title>error</title>
<ellipse fill="none" stroke="black" cx="309.38" cy="-90" rx="27.9" ry="18"/>
<text text-anchor="middle" x="309.38" y="-86.3" font-family="Times,serif" font-size="14.00">error</text>
</g>
<!-- multi_ed25519&#45;&gt;error -->
<g id="edge1" class="edge">
<title>multi_ed25519&#45;&gt;error</title>
<path fill="none" stroke="black" d="M147.63,-365.53C223.61,-344.12 369.73,-289.94 422.38,-180 429.3,-165.57 430.97,-157.5 422.38,-144 421.79,-143.06 375.2,-121.4 342.04,-106.06"/>
<polygon fill="black" stroke="black" points="343.74,-102.99 333.19,-101.97 340.8,-109.35 343.74,-102.99"/>
</g>
<!-- option -->
<g id="node3" class="node">
<title>option</title>
<ellipse fill="none" stroke="black" cx="99.38" cy="-90" rx="33.29" ry="18"/>
<text text-anchor="middle" x="99.38" y="-86.3" font-family="Times,serif" font-size="14.00">option</text>
</g>
<!-- multi_ed25519&#45;&gt;option -->
<g id="edge2" class="edge">
<title>multi_ed25519&#45;&gt;option</title>
<path fill="none" stroke="black" d="M66.58,-362.4C50.33,-353.63 32.1,-340.87 21.38,-324 -4.48,-283.27 -4.31,-261.96 10.38,-216 23.19,-175.95 54.03,-137.77 75.81,-114.38"/>
<polygon fill="black" stroke="black" points="78.23,-116.91 82.61,-107.26 73.17,-112.07 78.23,-116.91"/>
</g>
<!-- features -->
<g id="node4" class="node">
<title>features</title>
<ellipse fill="none" stroke="black" cx="375.38" cy="-162" rx="38.19" ry="18"/>
<text text-anchor="middle" x="375.38" y="-158.3" font-family="Times,serif" font-size="14.00">features</text>
</g>
<!-- multi_ed25519&#45;&gt;features -->
<g id="edge3" class="edge">
<title>multi_ed25519&#45;&gt;features</title>
<path fill="none" stroke="black" d="M132.09,-361.96C173.89,-341.14 248.34,-300.56 301.38,-252 322.46,-232.7 342.96,-207.38 357.01,-188.68"/>
<polygon fill="black" stroke="black" points="359.72,-190.91 362.85,-180.79 354.09,-186.75 359.72,-190.91"/>
</g>
<!-- bcs -->
<g id="node5" class="node">
<title>bcs</title>
<ellipse fill="none" stroke="black" cx="136.38" cy="-162" rx="27" ry="18"/>
<text text-anchor="middle" x="136.38" y="-158.3" font-family="Times,serif" font-size="14.00">bcs</text>
</g>
<!-- multi_ed25519&#45;&gt;bcs -->
<g id="edge4" class="edge">
<title>multi_ed25519&#45;&gt;bcs</title>
<path fill="none" stroke="black" d="M81.57,-360.31C50.05,-330.27 -7.03,-265.62 24.38,-216 40.72,-190.19 73.39,-176.71 99.25,-169.82"/>
<polygon fill="black" stroke="black" points="99.84,-173.28 108.73,-167.53 98.19,-166.47 99.84,-173.28"/>
</g>
<!-- hash -->
<g id="node6" class="node">
<title>hash</title>
<ellipse fill="none" stroke="black" cx="60.38" cy="-234" rx="27" ry="18"/>
<text text-anchor="middle" x="60.38" y="-230.3" font-family="Times,serif" font-size="14.00">hash</text>
</g>
<!-- multi_ed25519&#45;&gt;hash -->
<g id="edge5" class="edge">
<title>multi_ed25519&#45;&gt;hash</title>
<path fill="none" stroke="black" d="M95.48,-359.59C88.69,-335.5 76.37,-291.75 68.28,-263.03"/>
<polygon fill="black" stroke="black" points="71.69,-262.24 65.61,-253.57 64.96,-264.14 71.69,-262.24"/>
</g>
<!-- ed25519 -->
<g id="node7" class="node">
<title>ed25519</title>
<ellipse fill="none" stroke="black" cx="147.38" cy="-306" rx="40.89" ry="18"/>
<text text-anchor="middle" x="147.38" y="-302.3" font-family="Times,serif" font-size="14.00">ed25519</text>
</g>
<!-- multi_ed25519&#45;&gt;ed25519 -->
<g id="edge6" class="edge">
<title>multi_ed25519&#45;&gt;ed25519</title>
<path fill="none" stroke="black" d="M111.76,-360.05C117.19,-351.97 123.8,-342.12 129.85,-333.11"/>
<polygon fill="black" stroke="black" points="132.6,-335.3 135.27,-325.05 126.79,-331.4 132.6,-335.3"/>
</g>
<!-- vector -->
<g id="node8" class="node">
<title>vector</title>
<ellipse fill="none" stroke="black" cx="129.38" cy="-18" rx="32.49" ry="18"/>
<text text-anchor="middle" x="129.38" y="-14.3" font-family="Times,serif" font-size="14.00">vector</text>
</g>
<!-- option&#45;&gt;vector -->
<g id="edge7" class="edge">
<title>option&#45;&gt;vector</title>
<path fill="none" stroke="black" d="M106.65,-72.05C109.96,-64.32 113.97,-54.96 117.7,-46.27"/>
<polygon fill="black" stroke="black" points="120.87,-47.75 121.59,-37.18 114.44,-44.99 120.87,-47.75"/>
</g>
<!-- features&#45;&gt;error -->
<g id="edge8" class="edge">
<title>features&#45;&gt;error</title>
<path fill="none" stroke="black" d="M360.41,-145.12C351.73,-135.91 340.66,-124.17 331.04,-113.97"/>
<polygon fill="black" stroke="black" points="333.84,-111.84 324.44,-106.97 328.75,-116.64 333.84,-111.84"/>
</g>
<!-- signer -->
<g id="node9" class="node">
<title>signer</title>
<ellipse fill="none" stroke="black" cx="387.38" cy="-90" rx="32.49" ry="18"/>
<text text-anchor="middle" x="387.38" y="-86.3" font-family="Times,serif" font-size="14.00">signer</text>
</g>
<!-- features&#45;&gt;signer -->
<g id="edge9" class="edge">
<title>features&#45;&gt;signer</title>
<path fill="none" stroke="black" d="M378.35,-143.7C379.61,-136.32 381.12,-127.52 382.54,-119.25"/>
<polygon fill="black" stroke="black" points="385.96,-120.04 384.2,-109.6 379.06,-118.86 385.96,-120.04"/>
</g>
<!-- ed25519&#45;&gt;error -->
<g id="edge10" class="edge">
<title>ed25519&#45;&gt;error</title>
<path fill="none" stroke="black" d="M185.95,-299.51C215.68,-293.2 255.48,-279.85 278.38,-252 309.44,-214.24 312.78,-154.68 311.61,-119.57"/>
<polygon fill="black" stroke="black" points="315.12,-119.57 311.12,-109.75 308.12,-119.91 315.12,-119.57"/>
</g>
<!-- ed25519&#45;&gt;option -->
<g id="edge11" class="edge">
<title>ed25519&#45;&gt;option</title>
<path fill="none" stroke="black" d="M138.88,-288.16C127.52,-264.65 107.95,-220.33 100.38,-180 96.65,-160.11 96.48,-137.27 97.2,-119.71"/>
<polygon fill="black" stroke="black" points="100.69,-119.92 97.74,-109.75 93.7,-119.54 100.69,-119.92"/>
</g>
<!-- ed25519&#45;&gt;bcs -->
<g id="edge12" class="edge">
<title>ed25519&#45;&gt;bcs</title>
<path fill="none" stroke="black" d="M146.04,-287.59C144.18,-263.61 140.81,-220.14 138.59,-191.42"/>
<polygon fill="black" stroke="black" points="142.09,-191.32 137.83,-181.62 135.11,-191.86 142.09,-191.32"/>
</g>
<!-- ed25519&#45;&gt;hash -->
<g id="edge14" class="edge">
<title>ed25519&#45;&gt;hash</title>
<path fill="none" stroke="black" d="M128.51,-289.81C116.08,-279.81 99.66,-266.6 86.05,-255.65"/>
<polygon fill="black" stroke="black" points="88.33,-252.99 78.35,-249.45 83.94,-258.45 88.33,-252.99"/>
</g>
<!-- type_info -->
<g id="node10" class="node">
<title>type_info</title>
<ellipse fill="none" stroke="black" cx="225.38" cy="-234" rx="44.39" ry="18"/>
<text text-anchor="middle" x="225.38" y="-230.3" font-family="Times,serif" font-size="14.00">type_info</text>
</g>
<!-- ed25519&#45;&gt;type_info -->
<g id="edge13" class="edge">
<title>ed25519&#45;&gt;type_info</title>
<path fill="none" stroke="black" d="M164.69,-289.46C174.85,-280.35 187.89,-268.65 199.27,-258.43"/>
<polygon fill="black" stroke="black" points="201.35,-261.27 206.45,-251.99 196.67,-256.06 201.35,-261.27"/>
</g>
<!-- type_info&#45;&gt;error -->
<g id="edge15" class="edge">
<title>type_info&#45;&gt;error</title>
<path fill="none" stroke="black" d="M235.35,-216.15C249.83,-191.68 276.8,-146.08 293.89,-117.2"/>
<polygon fill="black" stroke="black" points="296.84,-119.08 298.92,-108.69 290.82,-115.51 296.84,-119.08"/>
</g>
<!-- type_info&#45;&gt;features -->
<g id="edge17" class="edge">
<title>type_info&#45;&gt;features</title>
<path fill="none" stroke="black" d="M253.6,-219.83C277.62,-208.63 312.29,-192.44 338.5,-180.21"/>
<polygon fill="black" stroke="black" points="339.85,-183.44 347.44,-176.04 336.89,-177.1 339.85,-183.44"/>
</g>
<!-- type_info&#45;&gt;bcs -->
<g id="edge18" class="edge">
<title>type_info&#45;&gt;bcs</title>
<path fill="none" stroke="black" d="M205.63,-217.46C192.9,-207.45 176.2,-194.32 162.4,-183.46"/>
<polygon fill="black" stroke="black" points="164.6,-180.74 154.57,-177.31 160.27,-186.24 164.6,-180.74"/>
</g>
<!-- string -->
<g id="node11" class="node">
<title>string</title>
<ellipse fill="none" stroke="black" cx="212.38" cy="-162" rx="30.59" ry="18"/>
<text text-anchor="middle" x="212.38" y="-158.3" font-family="Times,serif" font-size="14.00">string</text>
</g>
<!-- type_info&#45;&gt;string -->
<g id="edge16" class="edge">
<title>type_info&#45;&gt;string</title>
<path fill="none" stroke="black" d="M222.17,-215.7C220.8,-208.32 219.17,-199.52 217.63,-191.25"/>
<polygon fill="black" stroke="black" points="221.1,-190.79 215.84,-181.59 214.22,-192.06 221.1,-190.79"/>
</g>
<!-- string&#45;&gt;option -->
<g id="edge20" class="edge">
<title>string&#45;&gt;option</title>
<path fill="none" stroke="black" d="M191.92,-148.32C174.7,-137.65 149.81,-122.24 130.18,-110.08"/>
<polygon fill="black" stroke="black" points="132.09,-107.14 121.75,-104.85 128.41,-113.1 132.09,-107.14"/>
</g>
<!-- string&#45;&gt;vector -->
<g id="edge19" class="edge">
<title>string&#45;&gt;vector</title>
<path fill="none" stroke="black" d="M202.7,-144.43C188.46,-120.06 161.71,-74.31 144.77,-45.32"/>
<polygon fill="black" stroke="black" points="147.84,-43.64 139.77,-36.77 141.79,-47.17 147.84,-43.64"/>
</g>
</g>
</svg>
