<?xml version="1.0" encoding="UTF-8" standalone="no"?>
<!DOCTYPE svg PUBLIC "-//W3C//DTD SVG 1.1//EN"
 "http://www.w3.org/Graphics/SVG/1.1/DTD/svg11.dtd">
<!-- Generated by graphviz version 7.0.4 (20221203.1631)
 -->
<!-- Title: G Pages: 1 -->
<svg width="564pt" height="218pt"
 viewBox="0.00 0.00 563.54 218.00" xmlns="http://www.w3.org/2000/svg" xmlns:xlink="http://www.w3.org/1999/xlink">
<g id="graph0" class="graph" transform="scale(1 1) rotate(0) translate(4 214)">
<title>G</title>
<polygon fill="white" stroke="none" points="-4,4 -4,-214 559.54,-214 559.54,4 -4,4"/>
<g id="clust1" class="cluster">
<title>cluster_bcs</title>
<polygon fill="none" stroke="black" points="8,-91 8,-166 104,-166 104,-91 8,-91"/>
<text text-anchor="middle" x="56" y="-150.8" font-family="Times,serif" font-size="14.00">bcs</text>
</g>
<g id="clust2" class="cluster">
<title>cluster_ed25519</title>
<polygon fill="none" stroke="black" points="112,-91 112,-166 302,-166 302,-91 112,-91"/>
<text text-anchor="middle" x="207" y="-150.8" font-family="Times,serif" font-size="14.00">ed25519</text>
</g>
<g id="clust3" class="cluster">
<title>cluster_type_info</title>
<polygon fill="none" stroke="black" points="161,-8 161,-83 253,-83 253,-8 161,-8"/>
<text text-anchor="middle" x="207" y="-67.8" font-family="Times,serif" font-size="14.00">type_info</text>
</g>
<!-- signature_verify_strict_t -->
<g id="node1" class="node">
<title>signature_verify_strict_t</title>
<ellipse fill="none" stroke="black" cx="207" cy="-192" rx="96.68" ry="18"/>
<text text-anchor="middle" x="207" y="-188.3" font-family="Times,serif" font-size="14.00">signature_verify_strict_t</text>
</g>
<!-- bcs::to_bytes -->
<g id="node2" class="node">
<title>bcs::to_bytes</title>
<ellipse fill="none" stroke="black" cx="56" cy="-117" rx="40.09" ry="18"/>
<text text-anchor="middle" x="56" y="-113.3" font-family="Times,serif" font-size="14.00">to_bytes</text>
</g>
<!-- signature_verify_strict_t&#45;&gt;bcs::to_bytes -->
<g id="edge1" class="edge">
<title>signature_verify_strict_t&#45;&gt;bcs::to_bytes</title>
<path fill="none" stroke="black" d="M139.52,-178.79C128.63,-175.47 117.74,-171.28 108,-166 96.7,-159.88 85.96,-150.75 77.2,-142.09"/>
<polygon fill="black" stroke="black" points="79.96,-139.92 70.51,-135.14 74.92,-144.77 79.96,-139.92"/>
</g>
<!-- ed25519::new_signed_message -->
<g id="node3" class="node">
<title>ed25519::new_signed_message</title>
<ellipse fill="none" stroke="black" cx="207" cy="-117" rx="87.18" ry="18"/>
<text text-anchor="middle" x="207" y="-113.3" font-family="Times,serif" font-size="14.00">new_signed_message</text>
</g>
<!-- signature_verify_strict_t&#45;&gt;ed25519::new_signed_message -->
<g id="edge2" class="edge">
<title>signature_verify_strict_t&#45;&gt;ed25519::new_signed_message</title>
<path fill="none" stroke="black" d="M207,-173.7C207,-165.67 207,-155.9 207,-146.8"/>
<polygon fill="black" stroke="black" points="210.5,-146.94 207,-136.94 203.5,-146.94 210.5,-146.94"/>
</g>
<!-- signature_verify_strict_internal -->
<g id="node4" class="node">
<title>signature_verify_strict_internal</title>
<ellipse fill="none" stroke="black" cx="434" cy="-117" rx="121.58" ry="18"/>
<text text-anchor="middle" x="434" y="-113.3" font-family="Times,serif" font-size="14.00">signature_verify_strict_internal</text>
</g>
<!-- signature_verify_strict_t&#45;&gt;signature_verify_strict_internal -->
<g id="edge3" class="edge">
<title>signature_verify_strict_t&#45;&gt;signature_verify_strict_internal</title>
<path fill="none" stroke="black" d="M265.67,-177.33C279.01,-173.91 293.06,-170.05 306,-166 331.71,-157.96 359.79,-147.61 383.08,-138.58"/>
<polygon fill="black" stroke="black" points="384.31,-141.86 392.35,-134.96 381.76,-135.34 384.31,-141.86"/>
</g>
<!-- type_info::type_of -->
<g id="node5" class="node">
<title>type_info::type_of</title>
<ellipse fill="none" stroke="black" cx="207" cy="-34" rx="37.89" ry="18"/>
<text text-anchor="middle" x="207" y="-30.3" font-family="Times,serif" font-size="14.00">type_of</text>
</g>
<!-- ed25519::new_signed_message&#45;&gt;type_info::type_of -->
<g id="edge4" class="edge">
<title>ed25519::new_signed_message&#45;&gt;type_info::type_of</title>
<path fill="none" stroke="black" d="M207,-98.82C207,-88.69 207,-75.6 207,-63.92"/>
<polygon fill="black" stroke="black" points="210.5,-63.95 207,-53.95 203.5,-63.95 210.5,-63.95"/>
</g>
</g>
</svg>
