<?xml version="1.0" encoding="UTF-8" standalone="no"?>
<!DOCTYPE svg PUBLIC "-//W3C//DTD SVG 1.1//EN"
 "http://www.w3.org/Graphics/SVG/1.1/DTD/svg11.dtd">
<!-- Generated by graphviz version 7.0.4 (20221203.1631)
 -->
<!-- Title: G Pages: 1 -->
<svg width="363pt" height="207pt"
 viewBox="0.00 0.00 362.87 207.00" xmlns="http://www.w3.org/2000/svg" xmlns:xlink="http://www.w3.org/1999/xlink">
<g id="graph0" class="graph" transform="scale(1 1) rotate(0) translate(4 203)">
<title>G</title>
<polygon fill="white" stroke="none" points="-4,4 -4,-203 358.87,-203 358.87,4 -4,4"/>
<g id="clust1" class="cluster">
<title>cluster_hash</title>
<polygon fill="none" stroke="black" points="125.43,-8 125.43,-83 229.43,-83 229.43,-8 125.43,-8"/>
<text text-anchor="middle" x="177.43" y="-67.8" font-family="Times,serif" font-size="14.00">hash</text>
</g>
<!-- unvalidated_public_key_to_authentication_key -->
<g id="node1" class="node">
<title>unvalidated_public_key_to_authentication_key</title>
<ellipse fill="none" stroke="black" cx="177.43" cy="-181" rx="177.37" ry="18"/>
<text text-anchor="middle" x="177.43" y="-177.3" font-family="Times,serif" font-size="14.00">unvalidated_public_key_to_authentication_key</text>
</g>
<!-- public_key_bytes_to_authentication_key -->
<g id="node2" class="node">
<title>public_key_bytes_to_authentication_key</title>
<ellipse fill="none" stroke="black" cx="177.43" cy="-109" rx="155.17" ry="18"/>
<text text-anchor="middle" x="177.43" y="-105.3" font-family="Times,serif" font-size="14.00">public_key_bytes_to_authentication_key</text>
</g>
<!-- unvalidated_public_key_to_authentication_key&#45;&gt;public_key_bytes_to_authentication_key -->
<g id="edge1" class="edge">
<title>unvalidated_public_key_to_authentication_key&#45;&gt;public_key_bytes_to_authentication_key</title>
<path fill="none" stroke="black" d="M177.43,-162.7C177.43,-155.41 177.43,-146.73 177.43,-138.54"/>
<polygon fill="black" stroke="black" points="180.93,-138.62 177.43,-128.62 173.93,-138.62 180.93,-138.62"/>
</g>
<!-- hash::sha3_256 -->
<g id="node3" class="node">
<title>hash::sha3_256</title>
<ellipse fill="none" stroke="black" cx="177.43" cy="-34" rx="44.39" ry="18"/>
<text text-anchor="middle" x="177.43" y="-30.3" font-family="Times,serif" font-size="14.00">sha3_256</text>
</g>
<!-- public_key_bytes_to_authentication_key&#45;&gt;hash::sha3_256 -->
<g id="edge2" class="edge">
<title>public_key_bytes_to_authentication_key&#45;&gt;hash::sha3_256</title>
<path fill="none" stroke="black" d="M177.43,-90.7C177.43,-82.67 177.43,-72.9 177.43,-63.8"/>
<polygon fill="black" stroke="black" points="180.93,-63.94 177.43,-53.94 173.93,-63.94 180.93,-63.94"/>
</g>
</g>
</svg>
