<?xml version="1.0" encoding="UTF-8" standalone="no"?>
<!DOCTYPE svg PUBLIC "-//W3C//DTD SVG 1.1//EN"
 "http://www.w3.org/Graphics/SVG/1.1/DTD/svg11.dtd">
<!-- Generated by graphviz version 7.0.4 (20221203.1631)
 -->
<!-- Title: G Pages: 1 -->
<svg width="228pt" height="116pt"
 viewBox="0.00 0.00 228.39 116.00" xmlns="http://www.w3.org/2000/svg" xmlns:xlink="http://www.w3.org/1999/xlink">
<g id="graph0" class="graph" transform="scale(1 1) rotate(0) translate(4 112)">
<title>G</title>
<polygon fill="white" stroke="none" points="-4,4 -4,-112 224.39,-112 224.39,4 -4,4"/>
<!-- shares_to_amount -->
<g id="node1" class="node">
<title>shares_to_amount</title>
<ellipse fill="none" stroke="black" cx="96.7" cy="-18" rx="75.29" ry="18"/>
<text text-anchor="middle" x="96.7" y="-14.3" font-family="Times,serif" font-size="14.00">shares_to_amount</text>
</g>
<!-- balance -->
<g id="node2" class="node">
<title>balance</title>
<ellipse fill="none" stroke="black" cx="37.7" cy="-90" rx="37.89" ry="18"/>
<text text-anchor="middle" x="37.7" y="-86.3" font-family="Times,serif" font-size="14.00">balance</text>
</g>
<!-- balance&#45;&gt;shares_to_amount -->
<g id="edge1" class="edge">
<title>balance&#45;&gt;shares_to_amount</title>
<path fill="none" stroke="black" d="M51.38,-72.76C58.4,-64.44 67.11,-54.1 75.01,-44.73"/>
<polygon fill="black" stroke="black" points="77.52,-47.18 81.29,-37.28 72.17,-42.67 77.52,-47.18"/>
</g>
<!-- redeem_shares -->
<g id="node3" class="node">
<title>redeem_shares</title>
<ellipse fill="none" stroke="black" cx="156.7" cy="-90" rx="63.89" ry="18"/>
<text text-anchor="middle" x="156.7" y="-86.3" font-family="Times,serif" font-size="14.00">redeem_shares</text>
</g>
<!-- redeem_shares&#45;&gt;shares_to_amount -->
<g id="edge2" class="edge">
<title>redeem_shares&#45;&gt;shares_to_amount</title>
<path fill="none" stroke="black" d="M142.17,-72.05C135.02,-63.71 126.26,-53.49 118.34,-44.25"/>
<polygon fill="black" stroke="black" points="121.24,-42.25 112.07,-36.94 115.92,-46.81 121.24,-42.25"/>
</g>
</g>
</svg>
