<?xml version="1.0" encoding="UTF-8" standalone="no"?>
<!DOCTYPE svg PUBLIC "-//W3C//DTD SVG 1.1//EN"
 "http://www.w3.org/Graphics/SVG/1.1/DTD/svg11.dtd">
<!-- Generated by graphviz version 7.0.4 (20221203.1631)
 -->
<!-- Title: G Pages: 1 -->
<svg width="890pt" height="592pt"
 viewBox="0.00 0.00 889.79 592.00" xmlns="http://www.w3.org/2000/svg" xmlns:xlink="http://www.w3.org/1999/xlink">
<g id="graph0" class="graph" transform="scale(1 1) rotate(0) translate(4 588)">
<title>G</title>
<polygon fill="white" stroke="none" points="-4,4 -4,-588 885.79,-588 885.79,4 -4,4"/>
<g id="clust1" class="cluster">
<title>cluster_error</title>
<polygon fill="none" stroke="black" points="8,-163 8,-321 300,-321 300,-163 8,-163"/>
<text text-anchor="middle" x="154" y="-305.8" font-family="Times,serif" font-size="14.00">error</text>
</g>
<g id="clust2" class="cluster">
<title>cluster_simple_map</title>
<polygon fill="none" stroke="black" points="315,-246 315,-396 645,-396 645,-246 315,-246"/>
<text text-anchor="middle" x="480" y="-380.8" font-family="Times,serif" font-size="14.00">simple_map</text>
</g>
<g id="clust3" class="cluster">
<title>cluster_option</title>
<polygon fill="none" stroke="black" points="308,-91 308,-238 639,-238 639,-91 308,-91"/>
<text text-anchor="middle" x="473.5" y="-222.8" font-family="Times,serif" font-size="14.00">option</text>
</g>
<g id="clust4" class="cluster">
<title>cluster_vector</title>
<polygon fill="none" stroke="black" points="351,-8 351,-83 558,-83 558,-8 351,-8"/>
<text text-anchor="middle" x="454.5" y="-67.8" font-family="Times,serif" font-size="14.00">vector</text>
</g>
<!-- buy_in -->
<g id="node1" class="node">
<title>buy_in</title>
<ellipse fill="none" stroke="black" cx="350" cy="-566" rx="35.19" ry="18"/>
<text text-anchor="middle" x="350" y="-562.3" font-family="Times,serif" font-size="14.00">buy_in</text>
</g>
<!-- error::invalid_argument -->
<g id="node2" class="node">
<title>error::invalid_argument</title>
<ellipse fill="none" stroke="black" cx="219" cy="-272" rx="73.39" ry="18"/>
<text text-anchor="middle" x="219" y="-268.3" font-family="Times,serif" font-size="14.00">invalid_argument</text>
</g>
<!-- buy_in&#45;&gt;error::invalid_argument -->
<g id="edge1" class="edge">
<title>buy_in&#45;&gt;error::invalid_argument</title>
<path fill="none" stroke="black" d="M329.31,-550.97C316.59,-541.37 300.89,-527.58 291,-512 247.73,-443.85 229.31,-348.33 222.48,-301.36"/>
<polygon fill="black" stroke="black" points="225.99,-301.18 221.16,-291.75 219.06,-302.13 225.99,-301.18"/>
</g>
<!-- add_shares -->
<g id="node3" class="node">
<title>add_shares</title>
<ellipse fill="none" stroke="black" cx="350" cy="-494" rx="50.09" ry="18"/>
<text text-anchor="middle" x="350" y="-490.3" font-family="Times,serif" font-size="14.00">add_shares</text>
</g>
<!-- buy_in&#45;&gt;add_shares -->
<g id="edge2" class="edge">
<title>buy_in&#45;&gt;add_shares</title>
<path fill="none" stroke="black" d="M350,-547.7C350,-540.41 350,-531.73 350,-523.54"/>
<polygon fill="black" stroke="black" points="353.5,-523.62 350,-513.62 346.5,-523.62 353.5,-523.62"/>
</g>
<!-- amount_to_shares -->
<g id="node4" class="node">
<title>amount_to_shares</title>
<ellipse fill="none" stroke="black" cx="572" cy="-494" rx="75.29" ry="18"/>
<text text-anchor="middle" x="572" y="-490.3" font-family="Times,serif" font-size="14.00">amount_to_shares</text>
</g>
<!-- buy_in&#45;&gt;amount_to_shares -->
<g id="edge3" class="edge">
<title>buy_in&#45;&gt;amount_to_shares</title>
<path fill="none" stroke="black" d="M379.48,-555.7C414.42,-544.69 473.37,-526.1 516.85,-512.39"/>
<polygon fill="black" stroke="black" points="517.9,-515.73 526.39,-509.38 515.8,-509.05 517.9,-515.73"/>
</g>
<!-- error::canonical -->
<g id="node5" class="node">
<title>error::canonical</title>
<ellipse fill="none" stroke="black" cx="145" cy="-189" rx="44.39" ry="18"/>
<text text-anchor="middle" x="145" y="-185.3" font-family="Times,serif" font-size="14.00">canonical</text>
</g>
<!-- error::invalid_argument&#45;&gt;error::canonical -->
<g id="edge4" class="edge">
<title>error::invalid_argument&#45;&gt;error::canonical</title>
<path fill="none" stroke="black" d="M203.67,-254.22C193.21,-242.77 179.19,-227.42 167.48,-214.6"/>
<polygon fill="black" stroke="black" points="170.16,-212.35 160.83,-207.33 164.99,-217.07 170.16,-212.35"/>
</g>
<!-- add_shares&#45;&gt;error::invalid_argument -->
<g id="edge5" class="edge">
<title>add_shares&#45;&gt;error::invalid_argument</title>
<path fill="none" stroke="black" d="M343.7,-475.81C331.96,-444.92 304.84,-378.6 271,-329 263.44,-317.92 253.75,-306.86 244.78,-297.54"/>
<polygon fill="black" stroke="black" points="247.42,-295.23 237.9,-290.58 242.45,-300.15 247.42,-295.23"/>
</g>
<!-- error::invalid_state -->
<g id="node6" class="node">
<title>error::invalid_state</title>
<ellipse fill="none" stroke="black" cx="72" cy="-272" rx="55.79" ry="18"/>
<text text-anchor="middle" x="72" y="-268.3" font-family="Times,serif" font-size="14.00">invalid_state</text>
</g>
<!-- add_shares&#45;&gt;error::invalid_state -->
<g id="edge6" class="edge">
<title>add_shares&#45;&gt;error::invalid_state</title>
<path fill="none" stroke="black" d="M330.01,-477.18C281.54,-438.82 157.6,-340.74 100.99,-295.94"/>
<polygon fill="black" stroke="black" points="103.39,-293.37 93.37,-289.91 99.04,-298.86 103.39,-293.37"/>
</g>
<!-- simple_map::borrow_mut -->
<g id="node7" class="node">
<title>simple_map::borrow_mut</title>
<ellipse fill="none" stroke="black" cx="450" cy="-347" rx="54.69" ry="18"/>
<text text-anchor="middle" x="450" y="-343.3" font-family="Times,serif" font-size="14.00">borrow_mut</text>
</g>
<!-- add_shares&#45;&gt;simple_map::borrow_mut -->
<g id="edge7" class="edge">
<title>add_shares&#45;&gt;simple_map::borrow_mut</title>
<path fill="none" stroke="black" d="M361.67,-476.08C378.98,-450.98 411.61,-403.66 432,-374.1"/>
<polygon fill="black" stroke="black" points="434.75,-376.27 437.55,-366.06 428.99,-372.3 434.75,-376.27"/>
</g>
<!-- simple_map::add -->
<g id="node8" class="node">
<title>simple_map::add</title>
<ellipse fill="none" stroke="black" cx="350" cy="-347" rx="27" ry="18"/>
<text text-anchor="middle" x="350" y="-343.3" font-family="Times,serif" font-size="14.00">add</text>
</g>
<!-- add_shares&#45;&gt;simple_map::add -->
<g id="edge8" class="edge">
<title>add_shares&#45;&gt;simple_map::add</title>
<path fill="none" stroke="black" d="M350,-475.51C350,-450.88 350,-405.71 350,-376.28"/>
<polygon fill="black" stroke="black" points="353.5,-376.62 350,-366.62 346.5,-376.62 353.5,-376.62"/>
</g>
<!-- contains -->
<g id="node9" class="node">
<title>contains</title>
<ellipse fill="none" stroke="black" cx="528" cy="-422" rx="40.09" ry="18"/>
<text text-anchor="middle" x="528" y="-418.3" font-family="Times,serif" font-size="14.00">contains</text>
</g>
<!-- add_shares&#45;&gt;contains -->
<g id="edge9" class="edge">
<title>add_shares&#45;&gt;contains</title>
<path fill="none" stroke="black" d="M383.06,-480C412.74,-468.33 456.38,-451.17 488.01,-438.73"/>
<polygon fill="black" stroke="black" points="489.22,-442.01 497.25,-435.09 486.66,-435.5 489.22,-442.01"/>
</g>
<!-- amount_to_shares_with_total_coins -->
<g id="node10" class="node">
<title>amount_to_shares_with_total_coins</title>
<ellipse fill="none" stroke="black" cx="744" cy="-422" rx="137.58" ry="18"/>
<text text-anchor="middle" x="744" y="-418.3" font-family="Times,serif" font-size="14.00">amount_to_shares_with_total_coins</text>
</g>
<!-- amount_to_shares&#45;&gt;amount_to_shares_with_total_coins -->
<g id="edge10" class="edge">
<title>amount_to_shares&#45;&gt;amount_to_shares_with_total_coins</title>
<path fill="none" stroke="black" d="M608.9,-477.98C633.39,-468.02 665.86,-454.8 692.83,-443.82"/>
<polygon fill="black" stroke="black" points="693.91,-447.17 701.85,-440.15 691.27,-440.68 693.91,-447.17"/>
</g>
<!-- error::invalid_state&#45;&gt;error::canonical -->
<g id="edge11" class="edge">
<title>error::invalid_state&#45;&gt;error::canonical</title>
<path fill="none" stroke="black" d="M87.13,-254.22C97.44,-242.77 111.27,-227.42 122.83,-214.6"/>
<polygon fill="black" stroke="black" points="125.28,-217.1 129.38,-207.33 120.08,-212.42 125.28,-217.1"/>
</g>
<!-- simple_map::borrow_mut&#45;&gt;error::invalid_argument -->
<g id="edge12" class="edge">
<title>simple_map::borrow_mut&#45;&gt;error::invalid_argument</title>
<path fill="none" stroke="black" d="M409.93,-334.35C402.04,-332.34 393.8,-330.44 386,-329 353.04,-322.9 343.09,-330.7 311,-321 291.15,-315 270.55,-304.69 253.89,-295.16"/>
<polygon fill="black" stroke="black" points="255.76,-292.2 245.37,-290.14 252.21,-298.23 255.76,-292.2"/>
</g>
<!-- option::extract -->
<g id="node11" class="node">
<title>option::extract</title>
<ellipse fill="none" stroke="black" cx="597" cy="-189" rx="34.39" ry="18"/>
<text text-anchor="middle" x="597" y="-185.3" font-family="Times,serif" font-size="14.00">extract</text>
</g>
<!-- simple_map::borrow_mut&#45;&gt;option::extract -->
<g id="edge13" class="edge">
<title>simple_map::borrow_mut&#45;&gt;option::extract</title>
<path fill="none" stroke="black" d="M486.35,-333.26C493.28,-329.89 500.18,-325.82 506,-321 541.17,-291.87 568.8,-245.9 584,-216.88"/>
<polygon fill="black" stroke="black" points="587.1,-218.51 588.52,-208.01 580.86,-215.33 587.1,-218.51"/>
</g>
<!-- option::is_some -->
<g id="node12" class="node">
<title>option::is_some</title>
<ellipse fill="none" stroke="black" cx="591" cy="-117" rx="40.09" ry="18"/>
<text text-anchor="middle" x="591" y="-113.3" font-family="Times,serif" font-size="14.00">is_some</text>
</g>
<!-- simple_map::borrow_mut&#45;&gt;option::is_some -->
<g id="edge14" class="edge">
<title>simple_map::borrow_mut&#45;&gt;option::is_some</title>
<path fill="none" stroke="black" d="M491.25,-334.78C498.8,-332.8 506.63,-330.8 514,-329 529.92,-325.12 535.48,-328.6 550,-321 598.22,-295.79 618.16,-287.84 640,-238 653.38,-207.47 653.41,-193.52 640,-163 636.06,-154.03 629.35,-146.07 622.14,-139.42"/>
<polygon fill="black" stroke="black" points="624.66,-136.97 614.75,-133.23 620.16,-142.33 624.66,-136.97"/>
</g>
<!-- simple_map::find -->
<g id="node13" class="node">
<title>simple_map::find</title>
<ellipse fill="none" stroke="black" cx="422" cy="-272" rx="27" ry="18"/>
<text text-anchor="middle" x="422" y="-268.3" font-family="Times,serif" font-size="14.00">find</text>
</g>
<!-- simple_map::borrow_mut&#45;&gt;simple_map::find -->
<g id="edge15" class="edge">
<title>simple_map::borrow_mut&#45;&gt;simple_map::find</title>
<path fill="none" stroke="black" d="M443.36,-328.7C440.13,-320.28 436.17,-309.94 432.54,-300.48"/>
<polygon fill="black" stroke="black" points="435.88,-299.42 429.03,-291.34 429.35,-301.93 435.88,-299.42"/>
</g>
<!-- simple_map::add&#45;&gt;error::invalid_argument -->
<g id="edge16" class="edge">
<title>simple_map::add&#45;&gt;error::invalid_argument</title>
<path fill="none" stroke="black" d="M329.82,-334.75C310.6,-324.05 281.18,-307.65 257.48,-294.44"/>
<polygon fill="black" stroke="black" points="259.48,-291.55 249.04,-289.74 256.07,-297.66 259.48,-291.55"/>
</g>
<!-- simple_map::add&#45;&gt;simple_map::find -->
<g id="edge18" class="edge">
<title>simple_map::add&#45;&gt;simple_map::find</title>
<path fill="none" stroke="black" d="M364.22,-331.58C374.38,-321.28 388.24,-307.23 399.84,-295.46"/>
<polygon fill="black" stroke="black" points="402.21,-298.05 406.74,-288.47 397.23,-293.13 402.21,-298.05"/>
</g>
<!-- option::is_none -->
<g id="node14" class="node">
<title>option::is_none</title>
<ellipse fill="none" stroke="black" cx="506" cy="-189" rx="38.19" ry="18"/>
<text text-anchor="middle" x="506" y="-185.3" font-family="Times,serif" font-size="14.00">is_none</text>
</g>
<!-- simple_map::add&#45;&gt;option::is_none -->
<g id="edge17" class="edge">
<title>simple_map::add&#45;&gt;option::is_none</title>
<path fill="none" stroke="black" d="M370.49,-334.9C375.44,-332.62 380.81,-330.47 386,-329 401.49,-324.61 445.33,-330.94 458,-321 489.46,-296.32 500.31,-249 504.04,-218.49"/>
<polygon fill="black" stroke="black" points="507.5,-219.14 505.03,-208.83 500.53,-218.43 507.5,-219.14"/>
</g>
<!-- simple_map::contains_key -->
<g id="node15" class="node">
<title>simple_map::contains_key</title>
<ellipse fill="none" stroke="black" cx="580" cy="-347" rx="57.39" ry="18"/>
<text text-anchor="middle" x="580" y="-343.3" font-family="Times,serif" font-size="14.00">contains_key</text>
</g>
<!-- contains&#45;&gt;simple_map::contains_key -->
<g id="edge19" class="edge">
<title>contains&#45;&gt;simple_map::contains_key</title>
<path fill="none" stroke="black" d="M539.8,-404.44C546.16,-395.51 554.15,-384.29 561.33,-374.21"/>
<polygon fill="black" stroke="black" points="564.06,-376.41 567.01,-366.24 558.36,-372.35 564.06,-376.41"/>
</g>
<!-- multiply_then_divide -->
<g id="node16" class="node">
<title>multiply_then_divide</title>
<ellipse fill="none" stroke="black" cx="755" cy="-347" rx="87.18" ry="18"/>
<text text-anchor="middle" x="755" y="-343.3" font-family="Times,serif" font-size="14.00">multiply_then_divide</text>
</g>
<!-- amount_to_shares_with_total_coins&#45;&gt;multiply_then_divide -->
<g id="edge20" class="edge">
<title>amount_to_shares_with_total_coins&#45;&gt;multiply_then_divide</title>
<path fill="none" stroke="black" d="M746.61,-403.7C747.82,-395.67 749.29,-385.9 750.66,-376.8"/>
<polygon fill="black" stroke="black" points="754.12,-377.34 752.15,-366.93 747.2,-376.29 754.12,-377.34"/>
</g>
<!-- option::extract&#45;&gt;option::is_some -->
<g id="edge21" class="edge">
<title>option::extract&#45;&gt;option::is_some</title>
<path fill="none" stroke="black" d="M595.52,-170.7C594.89,-163.41 594.15,-154.73 593.45,-146.54"/>
<polygon fill="black" stroke="black" points="596.94,-146.28 592.6,-136.61 589.96,-146.87 596.94,-146.28"/>
</g>
<!-- vector::is_empty -->
<g id="node17" class="node">
<title>vector::is_empty</title>
<ellipse fill="none" stroke="black" cx="506" cy="-34" rx="43.59" ry="18"/>
<text text-anchor="middle" x="506" y="-30.3" font-family="Times,serif" font-size="14.00">is_empty</text>
</g>
<!-- option::is_some&#45;&gt;vector::is_empty -->
<g id="edge22" class="edge">
<title>option::is_some&#45;&gt;vector::is_empty</title>
<path fill="none" stroke="black" d="M574.61,-100.38C562.23,-88.58 545.01,-72.18 530.92,-58.75"/>
<polygon fill="black" stroke="black" points="533.38,-56.26 523.72,-51.89 528.55,-61.32 533.38,-56.26"/>
</g>
<!-- option::none -->
<g id="node18" class="node">
<title>option::none</title>
<ellipse fill="none" stroke="black" cx="422" cy="-189" rx="27.9" ry="18"/>
<text text-anchor="middle" x="422" y="-185.3" font-family="Times,serif" font-size="14.00">none</text>
</g>
<!-- simple_map::find&#45;&gt;option::none -->
<g id="edge23" class="edge">
<title>simple_map::find&#45;&gt;option::none</title>
<path fill="none" stroke="black" d="M422,-253.82C422,-243.69 422,-230.6 422,-218.92"/>
<polygon fill="black" stroke="black" points="425.5,-218.95 422,-208.95 418.5,-218.95 425.5,-218.95"/>
</g>
<!-- option::some -->
<g id="node19" class="node">
<title>option::some</title>
<ellipse fill="none" stroke="black" cx="346" cy="-189" rx="29.8" ry="18"/>
<text text-anchor="middle" x="346" y="-185.3" font-family="Times,serif" font-size="14.00">some</text>
</g>
<!-- simple_map::find&#45;&gt;option::some -->
<g id="edge24" class="edge">
<title>simple_map::find&#45;&gt;option::some</title>
<path fill="none" stroke="black" d="M405.64,-257.4C399.01,-251.65 391.42,-244.72 385,-238 378.04,-230.71 370.94,-222.32 364.74,-214.61"/>
<polygon fill="black" stroke="black" points="367.57,-212.54 358.63,-206.85 362.07,-216.87 367.57,-212.54"/>
</g>
<!-- option::is_none&#45;&gt;vector::is_empty -->
<g id="edge25" class="edge">
<title>option::is_none&#45;&gt;vector::is_empty</title>
<path fill="none" stroke="black" d="M506,-170.75C506,-144.81 506,-95.44 506,-63.93"/>
<polygon fill="black" stroke="black" points="509.5,-63.94 506,-53.94 502.5,-63.94 509.5,-63.94"/>
</g>
<!-- simple_map::contains_key&#45;&gt;option::is_some -->
<g id="edge26" class="edge">
<title>simple_map::contains_key&#45;&gt;option::is_some</title>
<path fill="none" stroke="black" d="M626.69,-336.07C648.28,-331.01 669.87,-325.08 673,-321 715.73,-265.27 708.77,-223.43 673,-163 664.46,-148.58 649.49,-138.47 634.65,-131.55"/>
<polygon fill="black" stroke="black" points="636.45,-128.51 625.87,-127.83 633.72,-134.95 636.45,-128.51"/>
</g>
<!-- simple_map::contains_key&#45;&gt;simple_map::find -->
<g id="edge27" class="edge">
<title>simple_map::contains_key&#45;&gt;simple_map::find</title>
<path fill="none" stroke="black" d="M548.78,-331.58C521.31,-318.89 481.5,-300.49 453.84,-287.71"/>
<polygon fill="black" stroke="black" points="455.45,-284.6 444.9,-283.58 452.51,-290.95 455.45,-284.6"/>
</g>
<!-- to_u128 -->
<g id="node20" class="node">
<title>to_u128</title>
<ellipse fill="none" stroke="black" cx="765" cy="-272" rx="39.79" ry="18"/>
<text text-anchor="middle" x="765" y="-268.3" font-family="Times,serif" font-size="14.00">to_u128</text>
</g>
<!-- multiply_then_divide&#45;&gt;to_u128 -->
<g id="edge28" class="edge">
<title>multiply_then_divide&#45;&gt;to_u128</title>
<path fill="none" stroke="black" d="M757.37,-328.7C758.47,-320.67 759.81,-310.9 761.05,-301.8"/>
<polygon fill="black" stroke="black" points="764.52,-302.31 762.41,-291.93 757.58,-301.36 764.52,-302.31"/>
</g>
<!-- vector::singleton -->
<g id="node21" class="node">
<title>vector::singleton</title>
<ellipse fill="none" stroke="black" cx="402" cy="-34" rx="42.79" ry="18"/>
<text text-anchor="middle" x="402" y="-30.3" font-family="Times,serif" font-size="14.00">singleton</text>
</g>
<!-- option::some&#45;&gt;vector::singleton -->
<g id="edge29" class="edge">
<title>option::some&#45;&gt;vector::singleton</title>
<path fill="none" stroke="black" d="M352.21,-171.04C361.79,-144.85 380.3,-94.28 391.85,-62.72"/>
<polygon fill="black" stroke="black" points="395.09,-64.05 395.25,-53.46 388.52,-61.64 395.09,-64.05"/>
</g>
</g>
</svg>
