<?xml version="1.0" encoding="UTF-8" standalone="no"?>
<!DOCTYPE svg PUBLIC "-//W3C//DTD SVG 1.1//EN"
 "http://www.w3.org/Graphics/SVG/1.1/DTD/svg11.dtd">
<!-- Generated by graphviz version 7.0.4 (20221203.1631)
 -->
<!-- Title: G Pages: 1 -->
<svg width="220pt" height="260pt"
 viewBox="0.00 0.00 220.34 260.00" xmlns="http://www.w3.org/2000/svg" xmlns:xlink="http://www.w3.org/1999/xlink">
<g id="graph0" class="graph" transform="scale(1 1) rotate(0) translate(4 256)">
<title>G</title>
<polygon fill="white" stroke="none" points="-4,4 -4,-256 216.34,-256 216.34,4 -4,4"/>
<!-- pool_u64 -->
<g id="node1" class="node">
<title>pool_u64</title>
<ellipse fill="none" stroke="black" cx="44.2" cy="-234" rx="44.39" ry="18"/>
<text text-anchor="middle" x="44.2" y="-230.3" font-family="Times,serif" font-size="14.00">pool_u64</text>
</g>
<!-- vector -->
<g id="node2" class="node">
<title>vector</title>
<ellipse fill="none" stroke="black" cx="118.2" cy="-18" rx="32.49" ry="18"/>
<text text-anchor="middle" x="118.2" y="-14.3" font-family="Times,serif" font-size="14.00">vector</text>
</g>
<!-- pool_u64&#45;&gt;vector -->
<g id="edge1" class="edge">
<title>pool_u64&#45;&gt;vector</title>
<path fill="none" stroke="black" d="M35.92,-216.12C22.06,-185.22 -1.81,-118.48 25.2,-72 36.78,-52.07 58.97,-39.01 78.77,-30.84"/>
<polygon fill="black" stroke="black" points="79.91,-34.15 88.02,-27.33 77.43,-27.61 79.91,-34.15"/>
</g>
<!-- error -->
<g id="node3" class="node">
<title>error</title>
<ellipse fill="none" stroke="black" cx="62.2" cy="-90" rx="27.9" ry="18"/>
<text text-anchor="middle" x="62.2" y="-86.3" font-family="Times,serif" font-size="14.00">error</text>
</g>
<!-- pool_u64&#45;&gt;error -->
<g id="edge2" class="edge">
<title>pool_u64&#45;&gt;error</title>
<path fill="none" stroke="black" d="M46.4,-215.59C49.44,-191.61 54.95,-148.14 58.59,-119.42"/>
<polygon fill="black" stroke="black" points="62.05,-119.97 59.84,-109.61 55.11,-119.09 62.05,-119.97"/>
</g>
<!-- simple_map -->
<g id="node4" class="node">
<title>simple_map</title>
<ellipse fill="none" stroke="black" cx="127.2" cy="-162" rx="54.69" ry="18"/>
<text text-anchor="middle" x="127.2" y="-158.3" font-family="Times,serif" font-size="14.00">simple_map</text>
</g>
<!-- pool_u64&#45;&gt;simple_map -->
<g id="edge3" class="edge">
<title>pool_u64&#45;&gt;simple_map</title>
<path fill="none" stroke="black" d="M62.62,-217.46C73.45,-208.32 87.37,-196.59 99.51,-186.35"/>
<polygon fill="black" stroke="black" points="101.42,-189.32 106.8,-180.2 96.9,-183.97 101.42,-189.32"/>
</g>
<!-- simple_map&#45;&gt;vector -->
<g id="edge4" class="edge">
<title>simple_map&#45;&gt;vector</title>
<path fill="none" stroke="black" d="M126.09,-143.59C124.57,-119.61 121.82,-76.14 120,-47.42"/>
<polygon fill="black" stroke="black" points="123.5,-47.38 119.38,-37.62 116.52,-47.82 123.5,-47.38"/>
</g>
<!-- simple_map&#45;&gt;error -->
<g id="edge5" class="edge">
<title>simple_map&#45;&gt;error</title>
<path fill="none" stroke="black" d="M111.79,-144.41C103.43,-135.41 92.96,-124.13 83.79,-114.26"/>
<polygon fill="black" stroke="black" points="86.56,-112.09 77.19,-107.15 81.43,-116.86 86.56,-112.09"/>
</g>
<!-- option -->
<g id="node5" class="node">
<title>option</title>
<ellipse fill="none" stroke="black" cx="179.2" cy="-90" rx="33.29" ry="18"/>
<text text-anchor="middle" x="179.2" y="-86.3" font-family="Times,serif" font-size="14.00">option</text>
</g>
<!-- simple_map&#45;&gt;option -->
<g id="edge6" class="edge">
<title>simple_map&#45;&gt;option</title>
<path fill="none" stroke="black" d="M139.78,-144.05C146.03,-135.65 153.7,-125.32 160.61,-116.02"/>
<polygon fill="black" stroke="black" points="163.38,-118.16 166.53,-108.04 157.76,-113.98 163.38,-118.16"/>
</g>
<!-- option&#45;&gt;vector -->
<g id="edge7" class="edge">
<title>option&#45;&gt;vector</title>
<path fill="none" stroke="black" d="M165.66,-73.46C157.84,-64.49 147.84,-53.02 139.04,-42.92"/>
<polygon fill="black" stroke="black" points="141.9,-40.87 132.69,-35.63 136.62,-45.47 141.9,-40.87"/>
</g>
</g>
</svg>
