<?xml version="1.0" encoding="UTF-8" standalone="no"?>
<!DOCTYPE svg PUBLIC "-//W3C//DTD SVG 1.1//EN"
 "http://www.w3.org/Graphics/SVG/1.1/DTD/svg11.dtd">
<!-- Generated by graphviz version 7.0.4 (20221203.1631)
 -->
<!-- Title: G Pages: 1 -->
<svg width="871pt" height="592pt"
 viewBox="0.00 0.00 871.00 592.00" xmlns="http://www.w3.org/2000/svg" xmlns:xlink="http://www.w3.org/1999/xlink">
<g id="graph0" class="graph" transform="scale(1 1) rotate(0) translate(4 588)">
<title>G</title>
<polygon fill="white" stroke="none" points="-4,4 -4,-588 867,-588 867,4 -4,4"/>
<g id="clust1" class="cluster">
<title>cluster_vector</title>
<polygon fill="none" stroke="black" points="419,-8 419,-155 855,-155 855,-8 419,-8"/>
<text text-anchor="middle" x="637" y="-139.8" font-family="Times,serif" font-size="14.00">vector</text>
</g>
<g id="clust2" class="cluster">
<title>cluster_error</title>
<polygon fill="none" stroke="black" points="490,-163 490,-321 652,-321 652,-163 490,-163"/>
<text text-anchor="middle" x="571" y="-305.8" font-family="Times,serif" font-size="14.00">error</text>
</g>
<g id="clust3" class="cluster">
<title>cluster_simple_map</title>
<polygon fill="none" stroke="black" points="8,-246 8,-396 450,-396 450,-246 8,-246"/>
<text text-anchor="middle" x="229" y="-380.8" font-family="Times,serif" font-size="14.00">simple_map</text>
</g>
<g id="clust4" class="cluster">
<title>cluster_option</title>
<polygon fill="none" stroke="black" points="175,-80 175,-238 411,-238 411,-80 175,-80"/>
<text text-anchor="middle" x="293" y="-222.8" font-family="Times,serif" font-size="14.00">option</text>
</g>
<!-- deduct_shares -->
<g id="node1" class="node">
<title>deduct_shares</title>
<ellipse fill="none" stroke="black" cx="407" cy="-566" rx="60.39" ry="18"/>
<text text-anchor="middle" x="407" y="-562.3" font-family="Times,serif" font-size="14.00">deduct_shares</text>
</g>
<!-- vector::index_of -->
<g id="node2" class="node">
<title>vector::index_of</title>
<ellipse fill="none" stroke="black" cx="711" cy="-106" rx="42.49" ry="18"/>
<text text-anchor="middle" x="711" y="-102.3" font-family="Times,serif" font-size="14.00">index_of</text>
</g>
<!-- deduct_shares&#45;&gt;vector::index_of -->
<g id="edge1" class="edge">
<title>deduct_shares&#45;&gt;vector::index_of</title>
<path fill="none" stroke="black" d="M420.05,-548.15C438.51,-522.59 470,-471.82 470,-423 470,-423 470,-423 470,-271 470,-222.48 450,-195.53 486,-163 500.36,-150.02 642.18,-162.55 660,-155 671.88,-149.97 682.67,-140.87 691.24,-131.93"/>
<polygon fill="black" stroke="black" points="693.67,-134.46 697.72,-124.67 688.45,-129.8 693.67,-134.46"/>
</g>
<!-- vector::remove -->
<g id="node3" class="node">
<title>vector::remove</title>
<ellipse fill="none" stroke="black" cx="809" cy="-106" rx="37.89" ry="18"/>
<text text-anchor="middle" x="809" y="-102.3" font-family="Times,serif" font-size="14.00">remove</text>
</g>
<!-- deduct_shares&#45;&gt;vector::remove -->
<g id="edge2" class="edge">
<title>deduct_shares&#45;&gt;vector::remove</title>
<path fill="none" stroke="black" d="M467.69,-565.19C563.74,-561.95 740,-540.06 740,-423 740,-423 740,-423 740,-271 740,-218.6 770.3,-163.63 790.74,-132.51"/>
<polygon fill="black" stroke="black" points="793.43,-134.77 796.13,-124.53 787.63,-130.85 793.43,-134.77"/>
</g>
<!-- error::invalid_argument -->
<g id="node4" class="node">
<title>error::invalid_argument</title>
<ellipse fill="none" stroke="black" cx="571" cy="-272" rx="73.39" ry="18"/>
<text text-anchor="middle" x="571" y="-268.3" font-family="Times,serif" font-size="14.00">invalid_argument</text>
</g>
<!-- deduct_shares&#45;&gt;error::invalid_argument -->
<g id="edge3" class="edge">
<title>deduct_shares&#45;&gt;error::invalid_argument</title>
<path fill="none" stroke="black" d="M437.1,-550.17C452.94,-541.06 471.59,-528.04 484,-512 534.46,-446.78 557.6,-349.54 566.42,-301.69"/>
<polygon fill="black" stroke="black" points="569.87,-302.32 568.15,-291.87 562.97,-301.11 569.87,-302.32"/>
</g>
<!-- simple_map::borrow_mut -->
<g id="node5" class="node">
<title>simple_map::borrow_mut</title>
<ellipse fill="none" stroke="black" cx="203" cy="-347" rx="54.69" ry="18"/>
<text text-anchor="middle" x="203" y="-343.3" font-family="Times,serif" font-size="14.00">borrow_mut</text>
</g>
<!-- deduct_shares&#45;&gt;simple_map::borrow_mut -->
<g id="edge4" class="edge">
<title>deduct_shares&#45;&gt;simple_map::borrow_mut</title>
<path fill="none" stroke="black" d="M399.83,-547.84C385.03,-514.63 347.84,-441.51 293,-404 283.02,-397.18 277.77,-401.49 267,-396 253.95,-389.35 240.79,-380.04 229.82,-371.38"/>
<polygon fill="black" stroke="black" points="232.31,-368.89 222.35,-365.29 227.89,-374.32 232.31,-368.89"/>
</g>
<!-- simple_map::remove -->
<g id="node6" class="node">
<title>simple_map::remove</title>
<ellipse fill="none" stroke="black" cx="404" cy="-347" rx="37.89" ry="18"/>
<text text-anchor="middle" x="404" y="-343.3" font-family="Times,serif" font-size="14.00">remove</text>
</g>
<!-- deduct_shares&#45;&gt;simple_map::remove -->
<g id="edge5" class="edge">
<title>deduct_shares&#45;&gt;simple_map::remove</title>
<path fill="none" stroke="black" d="M406.76,-547.61C406.25,-510.39 405.03,-422.69 404.4,-376.93"/>
<polygon fill="black" stroke="black" points="407.9,-376.94 404.26,-366.99 400.9,-377.03 407.9,-376.94"/>
</g>
<!-- contains -->
<g id="node7" class="node">
<title>contains</title>
<ellipse fill="none" stroke="black" cx="244" cy="-422" rx="40.09" ry="18"/>
<text text-anchor="middle" x="244" y="-418.3" font-family="Times,serif" font-size="14.00">contains</text>
</g>
<!-- deduct_shares&#45;&gt;contains -->
<g id="edge6" class="edge">
<title>deduct_shares&#45;&gt;contains</title>
<path fill="none" stroke="black" d="M354.13,-556.89C324.92,-549.77 290.17,-536.52 268,-512 253.14,-495.56 247.33,-470.87 245.14,-451.66"/>
<polygon fill="black" stroke="black" points="248.63,-451.43 244.3,-441.76 241.65,-452.02 248.63,-451.43"/>
</g>
<!-- shares -->
<g id="node8" class="node">
<title>shares</title>
<ellipse fill="none" stroke="black" cx="309" cy="-494" rx="32.49" ry="18"/>
<text text-anchor="middle" x="309" y="-490.3" font-family="Times,serif" font-size="14.00">shares</text>
</g>
<!-- deduct_shares&#45;&gt;shares -->
<g id="edge7" class="edge">
<title>deduct_shares&#45;&gt;shares</title>
<path fill="none" stroke="black" d="M384.76,-549.12C370.77,-539.12 352.58,-526.13 337.53,-515.38"/>
<polygon fill="black" stroke="black" points="339.58,-512.54 329.41,-509.58 335.51,-518.24 339.58,-512.54"/>
</g>
<!-- error::canonical -->
<g id="node9" class="node">
<title>error::canonical</title>
<ellipse fill="none" stroke="black" cx="571" cy="-189" rx="44.39" ry="18"/>
<text text-anchor="middle" x="571" y="-185.3" font-family="Times,serif" font-size="14.00">canonical</text>
</g>
<!-- error::invalid_argument&#45;&gt;error::canonical -->
<g id="edge8" class="edge">
<title>error::invalid_argument&#45;&gt;error::canonical</title>
<path fill="none" stroke="black" d="M571,-253.82C571,-243.69 571,-230.6 571,-218.92"/>
<polygon fill="black" stroke="black" points="574.5,-218.95 571,-208.95 567.5,-218.95 574.5,-218.95"/>
</g>
<!-- simple_map::borrow_mut&#45;&gt;error::invalid_argument -->
<g id="edge9" class="edge">
<title>simple_map::borrow_mut&#45;&gt;error::invalid_argument</title>
<path fill="none" stroke="black" d="M242.32,-334.12C250.41,-332.08 258.93,-330.23 267,-329 349.24,-316.47 372.75,-338.83 454,-321 480.35,-315.22 508.37,-303.92 530.37,-293.75"/>
<polygon fill="black" stroke="black" points="531.76,-296.96 539.29,-289.52 528.76,-290.64 531.76,-296.96"/>
</g>
<!-- option::extract -->
<g id="node10" class="node">
<title>option::extract</title>
<ellipse fill="none" stroke="black" cx="217" cy="-189" rx="34.39" ry="18"/>
<text text-anchor="middle" x="217" y="-185.3" font-family="Times,serif" font-size="14.00">extract</text>
</g>
<!-- simple_map::borrow_mut&#45;&gt;option::extract -->
<g id="edge10" class="edge">
<title>simple_map::borrow_mut&#45;&gt;option::extract</title>
<path fill="none" stroke="black" d="M204.55,-328.71C206.94,-302.12 211.53,-250.9 214.43,-218.69"/>
<polygon fill="black" stroke="black" points="217.9,-219.15 215.31,-208.88 210.93,-218.52 217.9,-219.15"/>
</g>
<!-- option::is_some -->
<g id="node11" class="node">
<title>option::is_some</title>
<ellipse fill="none" stroke="black" cx="223" cy="-106" rx="40.09" ry="18"/>
<text text-anchor="middle" x="223" y="-102.3" font-family="Times,serif" font-size="14.00">is_some</text>
</g>
<!-- simple_map::borrow_mut&#45;&gt;option::is_some -->
<g id="edge11" class="edge">
<title>simple_map::borrow_mut&#45;&gt;option::is_some</title>
<path fill="none" stroke="black" d="M161.75,-334.78C154.2,-332.8 146.37,-330.8 139,-329 123.08,-325.12 113.26,-333.79 103,-321 59.06,-266.22 65.28,-222.23 103,-163 118.83,-138.14 148.9,-124.14 174.97,-116.35"/>
<polygon fill="black" stroke="black" points="175.66,-119.79 184.39,-113.78 173.82,-113.04 175.66,-119.79"/>
</g>
<!-- simple_map::find -->
<g id="node12" class="node">
<title>simple_map::find</title>
<ellipse fill="none" stroke="black" cx="297" cy="-272" rx="27" ry="18"/>
<text text-anchor="middle" x="297" y="-268.3" font-family="Times,serif" font-size="14.00">find</text>
</g>
<!-- simple_map::borrow_mut&#45;&gt;simple_map::find -->
<g id="edge12" class="edge">
<title>simple_map::borrow_mut&#45;&gt;simple_map::find</title>
<path fill="none" stroke="black" d="M223.4,-330.16C237.35,-319.33 255.96,-304.87 270.98,-293.21"/>
<polygon fill="black" stroke="black" points="272.85,-296.19 278.6,-287.29 268.55,-290.66 272.85,-296.19"/>
</g>
<!-- simple_map::remove&#45;&gt;error::invalid_argument -->
<g id="edge14" class="edge">
<title>simple_map::remove&#45;&gt;error::invalid_argument</title>
<path fill="none" stroke="black" d="M431.2,-334.11C456.83,-322.91 495.71,-305.91 525.96,-292.69"/>
<polygon fill="black" stroke="black" points="527.12,-296 534.88,-288.79 524.32,-289.59 527.12,-296"/>
</g>
<!-- simple_map::remove&#45;&gt;option::extract -->
<g id="edge15" class="edge">
<title>simple_map::remove&#45;&gt;option::extract</title>
<path fill="none" stroke="black" d="M376.02,-334.52C369.85,-332.37 363.27,-330.37 357,-329 336.09,-324.43 277.85,-334.21 261,-321 244.7,-308.22 230.38,-253.1 222.77,-218.56"/>
<polygon fill="black" stroke="black" points="226.2,-217.83 220.69,-208.78 219.35,-219.29 226.2,-217.83"/>
</g>
<!-- simple_map::remove&#45;&gt;option::is_some -->
<g id="edge16" class="edge">
<title>simple_map::remove&#45;&gt;option::is_some</title>
<path fill="none" stroke="black" d="M376.05,-334.41C369.87,-332.27 363.29,-330.3 357,-329 328.22,-323.05 250.2,-336.11 225,-321 161.72,-283.05 148.05,-232.07 174,-163 178.63,-150.69 187.33,-139.31 196.12,-130.07"/>
<polygon fill="black" stroke="black" points="198.36,-132.78 203.04,-123.28 193.45,-127.79 198.36,-132.78"/>
</g>
<!-- simple_map::remove&#45;&gt;simple_map::find -->
<g id="edge17" class="edge">
<title>simple_map::remove&#45;&gt;simple_map::find</title>
<path fill="none" stroke="black" d="M382.86,-331.58C366.21,-320.22 342.86,-304.29 324.72,-291.91"/>
<polygon fill="black" stroke="black" points="326.73,-289.05 316.5,-286.3 322.78,-294.83 326.73,-289.05"/>
</g>
<!-- vector::swap_remove -->
<g id="node13" class="node">
<title>vector::swap_remove</title>
<ellipse fill="none" stroke="black" cx="591" cy="-106" rx="59.59" ry="18"/>
<text text-anchor="middle" x="591" y="-102.3" font-family="Times,serif" font-size="14.00">swap_remove</text>
</g>
<!-- simple_map::remove&#45;&gt;vector::swap_remove -->
<g id="edge13" class="edge">
<title>simple_map::remove&#45;&gt;vector::swap_remove</title>
<path fill="none" stroke="black" d="M406.44,-328.82C412.66,-287.59 430.45,-184.84 456,-163 467.23,-153.4 508.2,-160.26 522,-155 536.96,-149.3 551.76,-139.67 563.8,-130.53"/>
<polygon fill="black" stroke="black" points="565.96,-133.28 571.63,-124.33 561.62,-127.8 565.96,-133.28"/>
</g>
<!-- simple_map::contains_key -->
<g id="node14" class="node">
<title>simple_map::contains_key</title>
<ellipse fill="none" stroke="black" cx="73" cy="-347" rx="57.39" ry="18"/>
<text text-anchor="middle" x="73" y="-343.3" font-family="Times,serif" font-size="14.00">contains_key</text>
</g>
<!-- contains&#45;&gt;simple_map::contains_key -->
<g id="edge18" class="edge">
<title>contains&#45;&gt;simple_map::contains_key</title>
<path fill="none" stroke="black" d="M205.88,-415.66C185.4,-411.88 160.11,-405.71 139,-396 125.32,-389.71 111.63,-380.37 100.29,-371.6"/>
<polygon fill="black" stroke="black" points="102.54,-368.92 92.55,-365.39 98.16,-374.38 102.54,-368.92"/>
</g>
<!-- shares&#45;&gt;contains -->
<g id="edge20" class="edge">
<title>shares&#45;&gt;contains</title>
<path fill="none" stroke="black" d="M294.57,-477.46C286.36,-468.62 275.88,-457.34 266.6,-447.34"/>
<polygon fill="black" stroke="black" points="269.24,-445.03 259.87,-440.09 264.11,-449.8 269.24,-445.03"/>
</g>
<!-- simple_map::borrow -->
<g id="node15" class="node">
<title>simple_map::borrow</title>
<ellipse fill="none" stroke="black" cx="312" cy="-347" rx="36.29" ry="18"/>
<text text-anchor="middle" x="312" y="-343.3" font-family="Times,serif" font-size="14.00">borrow</text>
</g>
<!-- shares&#45;&gt;simple_map::borrow -->
<g id="edge19" class="edge">
<title>shares&#45;&gt;simple_map::borrow</title>
<path fill="none" stroke="black" d="M309.36,-475.51C309.87,-450.88 310.81,-405.71 311.41,-376.28"/>
<polygon fill="black" stroke="black" points="314.91,-376.69 311.61,-366.62 307.91,-376.54 314.91,-376.69"/>
</g>
<!-- option::extract&#45;&gt;option::is_some -->
<g id="edge21" class="edge">
<title>option::extract&#45;&gt;option::is_some</title>
<path fill="none" stroke="black" d="M218.27,-170.82C219.03,-160.58 220.01,-147.33 220.89,-135.55"/>
<polygon fill="black" stroke="black" points="224.35,-136.17 221.6,-125.94 217.37,-135.66 224.35,-136.17"/>
</g>
<!-- vector::is_empty -->
<g id="node16" class="node">
<title>vector::is_empty</title>
<ellipse fill="none" stroke="black" cx="531" cy="-34" rx="43.59" ry="18"/>
<text text-anchor="middle" x="531" y="-30.3" font-family="Times,serif" font-size="14.00">is_empty</text>
</g>
<!-- option::is_some&#45;&gt;vector::is_empty -->
<g id="edge22" class="edge">
<title>option::is_some&#45;&gt;vector::is_empty</title>
<path fill="none" stroke="black" d="M258.33,-96.97C313.52,-84.43 420.29,-60.16 482.6,-46"/>
<polygon fill="black" stroke="black" points="483.24,-49.44 492.21,-43.82 481.69,-42.62 483.24,-49.44"/>
</g>
<!-- option::none -->
<g id="node17" class="node">
<title>option::none</title>
<ellipse fill="none" stroke="black" cx="375" cy="-189" rx="27.9" ry="18"/>
<text text-anchor="middle" x="375" y="-185.3" font-family="Times,serif" font-size="14.00">none</text>
</g>
<!-- simple_map::find&#45;&gt;option::none -->
<g id="edge23" class="edge">
<title>simple_map::find&#45;&gt;option::none</title>
<path fill="none" stroke="black" d="M314.93,-258.05C322.41,-252.28 330.97,-245.18 338,-238 344.83,-231.02 351.57,-222.8 357.39,-215.14"/>
<polygon fill="black" stroke="black" points="360.2,-217.24 363.31,-207.11 354.56,-213.09 360.2,-217.24"/>
</g>
<!-- option::some -->
<g id="node18" class="node">
<title>option::some</title>
<ellipse fill="none" stroke="black" cx="299" cy="-189" rx="29.8" ry="18"/>
<text text-anchor="middle" x="299" y="-185.3" font-family="Times,serif" font-size="14.00">some</text>
</g>
<!-- simple_map::find&#45;&gt;option::some -->
<g id="edge24" class="edge">
<title>simple_map::find&#45;&gt;option::some</title>
<path fill="none" stroke="black" d="M297.42,-253.82C297.67,-243.69 298,-230.6 298.29,-218.92"/>
<polygon fill="black" stroke="black" points="301.78,-219.03 298.53,-208.95 294.79,-218.86 301.78,-219.03"/>
</g>
<!-- vector::swap_remove&#45;&gt;vector::is_empty -->
<g id="edge25" class="edge">
<title>vector::swap_remove&#45;&gt;vector::is_empty</title>
<path fill="none" stroke="black" d="M576.48,-88.05C569.22,-79.59 560.31,-69.19 552.3,-59.84"/>
<polygon fill="black" stroke="black" points="555.13,-57.77 545.96,-52.46 549.81,-62.33 555.13,-57.77"/>
</g>
<!-- simple_map::contains_key&#45;&gt;option::is_some -->
<g id="edge26" class="edge">
<title>simple_map::contains_key&#45;&gt;option::is_some</title>
<path fill="none" stroke="black" d="M66.31,-328.69C54.04,-293.76 32.3,-213.86 68,-163 91.36,-129.72 136.56,-116.13 172.14,-110.63"/>
<polygon fill="black" stroke="black" points="172.38,-114.13 181.82,-109.31 171.44,-107.19 172.38,-114.13"/>
</g>
<!-- simple_map::contains_key&#45;&gt;simple_map::find -->
<g id="edge27" class="edge">
<title>simple_map::contains_key&#45;&gt;simple_map::find</title>
<path fill="none" stroke="black" d="M111.76,-333.37C154.23,-319.53 221.7,-297.54 262.43,-284.27"/>
<polygon fill="black" stroke="black" points="263.3,-287.66 271.72,-281.24 261.13,-281.01 263.3,-287.66"/>
</g>
<!-- simple_map::borrow&#45;&gt;error::invalid_argument -->
<g id="edge28" class="edge">
<title>simple_map::borrow&#45;&gt;error::invalid_argument</title>
<path fill="none" stroke="black" d="M338.75,-334.5C344.67,-332.35 350.97,-330.36 357,-329 399.2,-319.49 411.94,-331.11 454,-321 480.05,-314.74 507.85,-303.54 529.81,-293.53"/>
<polygon fill="black" stroke="black" points="531.14,-296.78 538.72,-289.38 528.18,-290.44 531.14,-296.78"/>
</g>
<!-- simple_map::borrow&#45;&gt;option::extract -->
<g id="edge29" class="edge">
<title>simple_map::borrow&#45;&gt;option::extract</title>
<path fill="none" stroke="black" d="M327.83,-330.38C329.95,-327.47 331.8,-324.3 333,-321 344.41,-289.68 355.25,-270.82 333,-246 322.11,-233.85 274.51,-245.46 260,-238 249.77,-232.74 240.82,-223.97 233.77,-215.34"/>
<polygon fill="black" stroke="black" points="236.63,-213.32 227.81,-207.43 231.04,-217.53 236.63,-213.32"/>
</g>
<!-- simple_map::borrow&#45;&gt;option::is_some -->
<g id="edge30" class="edge">
<title>simple_map::borrow&#45;&gt;option::is_some</title>
<path fill="none" stroke="black" d="M285.27,-334.41C279.35,-332.27 273.04,-330.3 267,-329 253.29,-326.04 150.6,-331.23 141,-321 92.94,-269.8 108.21,-225.1 141,-163 150.13,-145.7 167.28,-132.74 183.54,-123.67"/>
<polygon fill="black" stroke="black" points="184.86,-126.92 192.12,-119.21 181.63,-120.71 184.86,-126.92"/>
</g>
<!-- simple_map::borrow&#45;&gt;simple_map::find -->
<g id="edge31" class="edge">
<title>simple_map::borrow&#45;&gt;simple_map::find</title>
<path fill="none" stroke="black" d="M308.45,-328.7C306.76,-320.52 304.71,-310.54 302.81,-301.29"/>
<polygon fill="black" stroke="black" points="306.28,-300.75 300.83,-291.66 299.42,-302.16 306.28,-300.75"/>
</g>
<!-- vector::singleton -->
<g id="node19" class="node">
<title>vector::singleton</title>
<ellipse fill="none" stroke="black" cx="470" cy="-106" rx="42.79" ry="18"/>
<text text-anchor="middle" x="470" y="-102.3" font-family="Times,serif" font-size="14.00">singleton</text>
</g>
<!-- option::some&#45;&gt;vector::singleton -->
<g id="edge32" class="edge">
<title>option::some&#45;&gt;vector::singleton</title>
<path fill="none" stroke="black" d="M316.73,-174.16C323.1,-169.88 330.56,-165.6 338,-163 370.47,-151.63 383.45,-168.73 415,-155 427.46,-149.58 439.12,-140.28 448.48,-131.31"/>
<polygon fill="black" stroke="black" points="450.8,-133.94 455.32,-124.35 445.81,-129.03 450.8,-133.94"/>
</g>
</g>
</svg>
