<?xml version="1.0" encoding="UTF-8" standalone="no"?>
<!DOCTYPE svg PUBLIC "-//W3C//DTD SVG 1.1//EN"
 "http://www.w3.org/Graphics/SVG/1.1/DTD/svg11.dtd">
<!-- Generated by graphviz version 7.0.4 (20221203.1631)
 -->
<!-- Title: G Pages: 1 -->
<svg width="1244pt" height="592pt"
 viewBox="0.00 0.00 1244.00 592.00" xmlns="http://www.w3.org/2000/svg" xmlns:xlink="http://www.w3.org/1999/xlink">
<g id="graph0" class="graph" transform="scale(1 1) rotate(0) translate(4 588)">
<title>G</title>
<polygon fill="white" stroke="none" points="-4,4 -4,-588 1240,-588 1240,4 -4,4"/>
<g id="clust1" class="cluster">
<title>cluster_error</title>
<polygon fill="none" stroke="black" points="8,-163 8,-321 300,-321 300,-163 8,-163"/>
<text text-anchor="middle" x="154" y="-305.8" font-family="Times,serif" font-size="14.00">error</text>
</g>
<g id="clust2" class="cluster">
<title>cluster_simple_map</title>
<polygon fill="none" stroke="black" points="308,-246 308,-396 822,-396 822,-246 308,-246"/>
<text text-anchor="middle" x="565" y="-380.8" font-family="Times,serif" font-size="14.00">simple_map</text>
</g>
<g id="clust3" class="cluster">
<title>cluster_vector</title>
<polygon fill="none" stroke="black" points="792,-8 792,-155 1228,-155 1228,-8 792,-8"/>
<text text-anchor="middle" x="1010" y="-139.8" font-family="Times,serif" font-size="14.00">vector</text>
</g>
<g id="clust4" class="cluster">
<title>cluster_option</title>
<polygon fill="none" stroke="black" points="454,-80 454,-238 784,-238 784,-80 454,-80"/>
<text text-anchor="middle" x="619" y="-222.8" font-family="Times,serif" font-size="14.00">option</text>
</g>
<!-- transfer_shares -->
<g id="node1" class="node">
<title>transfer_shares</title>
<ellipse fill="none" stroke="black" cx="736" cy="-566" rx="63.89" ry="18"/>
<text text-anchor="middle" x="736" y="-562.3" font-family="Times,serif" font-size="14.00">transfer_shares</text>
</g>
<!-- error::invalid_argument -->
<g id="node2" class="node">
<title>error::invalid_argument</title>
<ellipse fill="none" stroke="black" cx="219" cy="-272" rx="73.39" ry="18"/>
<text text-anchor="middle" x="219" y="-268.3" font-family="Times,serif" font-size="14.00">invalid_argument</text>
</g>
<!-- transfer_shares&#45;&gt;error::invalid_argument -->
<g id="edge1" class="edge">
<title>transfer_shares&#45;&gt;error::invalid_argument</title>
<path fill="none" stroke="black" d="M677.59,-558.24C586.55,-545.77 407.4,-513.41 274,-440 248.65,-426.05 238.4,-422.15 226,-396 211.84,-366.14 212.22,-327.51 214.75,-301.58"/>
<polygon fill="black" stroke="black" points="218.21,-302.14 215.89,-291.8 211.26,-301.33 218.21,-302.14"/>
</g>
<!-- contains -->
<g id="node3" class="node">
<title>contains</title>
<ellipse fill="none" stroke="black" cx="872" cy="-347" rx="40.09" ry="18"/>
<text text-anchor="middle" x="872" y="-343.3" font-family="Times,serif" font-size="14.00">contains</text>
</g>
<!-- transfer_shares&#45;&gt;contains -->
<g id="edge2" class="edge">
<title>transfer_shares&#45;&gt;contains</title>
<path fill="none" stroke="black" d="M798.28,-561.82C833.68,-556.43 875.33,-543.27 898,-512 927.6,-471.18 904.61,-409.58 887.08,-374.65"/>
<polygon fill="black" stroke="black" points="890.32,-373.3 882.58,-366.06 884.12,-376.55 890.32,-373.3"/>
</g>
<!-- add_shares -->
<g id="node4" class="node">
<title>add_shares</title>
<ellipse fill="none" stroke="black" cx="635" cy="-422" rx="50.09" ry="18"/>
<text text-anchor="middle" x="635" y="-418.3" font-family="Times,serif" font-size="14.00">add_shares</text>
</g>
<!-- transfer_shares&#45;&gt;add_shares -->
<g id="edge3" class="edge">
<title>transfer_shares&#45;&gt;add_shares</title>
<path fill="none" stroke="black" d="M723.82,-547.87C706.28,-523.22 673.79,-477.54 653.35,-448.79"/>
<polygon fill="black" stroke="black" points="656.44,-447.1 647.79,-440.98 650.73,-451.16 656.44,-447.1"/>
</g>
<!-- deduct_shares -->
<g id="node5" class="node">
<title>deduct_shares</title>
<ellipse fill="none" stroke="black" cx="829" cy="-494" rx="60.39" ry="18"/>
<text text-anchor="middle" x="829" y="-490.3" font-family="Times,serif" font-size="14.00">deduct_shares</text>
</g>
<!-- transfer_shares&#45;&gt;deduct_shares -->
<g id="edge4" class="edge">
<title>transfer_shares&#45;&gt;deduct_shares</title>
<path fill="none" stroke="black" d="M757.57,-548.76C769.78,-539.58 785.24,-527.94 798.65,-517.84"/>
<polygon fill="black" stroke="black" points="800.45,-520.87 806.34,-512.06 796.24,-515.27 800.45,-520.87"/>
</g>
<!-- shares -->
<g id="node6" class="node">
<title>shares</title>
<ellipse fill="none" stroke="black" cx="736" cy="-422" rx="32.49" ry="18"/>
<text text-anchor="middle" x="736" y="-418.3" font-family="Times,serif" font-size="14.00">shares</text>
</g>
<!-- transfer_shares&#45;&gt;shares -->
<g id="edge5" class="edge">
<title>transfer_shares&#45;&gt;shares</title>
<path fill="none" stroke="black" d="M736,-547.59C736,-523.61 736,-480.14 736,-451.42"/>
<polygon fill="black" stroke="black" points="739.5,-451.62 736,-441.62 732.5,-451.62 739.5,-451.62"/>
</g>
<!-- error::canonical -->
<g id="node7" class="node">
<title>error::canonical</title>
<ellipse fill="none" stroke="black" cx="145" cy="-189" rx="44.39" ry="18"/>
<text text-anchor="middle" x="145" y="-185.3" font-family="Times,serif" font-size="14.00">canonical</text>
</g>
<!-- error::invalid_argument&#45;&gt;error::canonical -->
<g id="edge6" class="edge">
<title>error::invalid_argument&#45;&gt;error::canonical</title>
<path fill="none" stroke="black" d="M203.67,-254.22C193.21,-242.77 179.19,-227.42 167.48,-214.6"/>
<polygon fill="black" stroke="black" points="170.16,-212.35 160.83,-207.33 164.99,-217.07 170.16,-212.35"/>
</g>
<!-- simple_map::contains_key -->
<g id="node8" class="node">
<title>simple_map::contains_key</title>
<ellipse fill="none" stroke="black" cx="557" cy="-347" rx="57.39" ry="18"/>
<text text-anchor="middle" x="557" y="-343.3" font-family="Times,serif" font-size="14.00">contains_key</text>
</g>
<!-- contains&#45;&gt;simple_map::contains_key -->
<g id="edge7" class="edge">
<title>contains&#45;&gt;simple_map::contains_key</title>
<path fill="none" stroke="black" d="M861.53,-364.61C852,-378.38 836.46,-395.87 817,-400 796.89,-404.27 652.11,-404.27 632,-400 613.06,-395.98 595.22,-383.85 581.69,-372.21"/>
<polygon fill="black" stroke="black" points="584.33,-369.88 574.58,-365.74 579.62,-375.06 584.33,-369.88"/>
</g>
<!-- add_shares&#45;&gt;error::invalid_argument -->
<g id="edge8" class="edge">
<title>add_shares&#45;&gt;error::invalid_argument</title>
<path fill="none" stroke="black" d="M584.98,-419.74C498.33,-417.2 327.28,-410.4 304,-396 274.51,-377.76 283.8,-357.47 264,-329 256.84,-318.71 248.37,-307.87 240.72,-298.49"/>
<polygon fill="black" stroke="black" points="243.46,-296.32 234.38,-290.85 238.07,-300.78 243.46,-296.32"/>
</g>
<!-- add_shares&#45;&gt;contains -->
<g id="edge12" class="edge">
<title>add_shares&#45;&gt;contains</title>
<path fill="none" stroke="black" d="M671.52,-409.3C679.21,-407.22 687.32,-405.31 695,-404 723.75,-399.11 799.54,-408.26 826,-396 836.88,-390.96 846.51,-382.1 854.11,-373.36"/>
<polygon fill="black" stroke="black" points="856.78,-375.62 860.31,-365.63 851.32,-371.24 856.78,-375.62"/>
</g>
<!-- error::invalid_state -->
<g id="node9" class="node">
<title>error::invalid_state</title>
<ellipse fill="none" stroke="black" cx="72" cy="-272" rx="55.79" ry="18"/>
<text text-anchor="middle" x="72" y="-268.3" font-family="Times,serif" font-size="14.00">invalid_state</text>
</g>
<!-- add_shares&#45;&gt;error::invalid_state -->
<g id="edge9" class="edge">
<title>add_shares&#45;&gt;error::invalid_state</title>
<path fill="none" stroke="black" d="M584.86,-420.61C497.03,-419.43 319.09,-414.74 260,-396 195.5,-375.55 132.07,-326.32 97.89,-296.72"/>
<polygon fill="black" stroke="black" points="100.41,-294.27 90.59,-290.29 95.78,-299.52 100.41,-294.27"/>
</g>
<!-- simple_map::borrow_mut -->
<g id="node10" class="node">
<title>simple_map::borrow_mut</title>
<ellipse fill="none" stroke="black" cx="687" cy="-347" rx="54.69" ry="18"/>
<text text-anchor="middle" x="687" y="-343.3" font-family="Times,serif" font-size="14.00">borrow_mut</text>
</g>
<!-- add_shares&#45;&gt;simple_map::borrow_mut -->
<g id="edge10" class="edge">
<title>add_shares&#45;&gt;simple_map::borrow_mut</title>
<path fill="none" stroke="black" d="M647.06,-404.07C653.43,-395.13 661.38,-383.97 668.5,-373.97"/>
<polygon fill="black" stroke="black" points="671.18,-376.25 674.13,-366.07 665.47,-372.19 671.18,-376.25"/>
</g>
<!-- simple_map::add -->
<g id="node11" class="node">
<title>simple_map::add</title>
<ellipse fill="none" stroke="black" cx="787" cy="-347" rx="27" ry="18"/>
<text text-anchor="middle" x="787" y="-343.3" font-family="Times,serif" font-size="14.00">add</text>
</g>
<!-- add_shares&#45;&gt;simple_map::add -->
<g id="edge11" class="edge">
<title>add_shares&#45;&gt;simple_map::add</title>
<path fill="none" stroke="black" d="M672.25,-409.61C679.74,-407.56 687.59,-405.57 695,-404 719.59,-398.78 729.37,-408.81 751,-396 759.89,-390.74 767.3,-382.35 773.03,-374.04"/>
<polygon fill="black" stroke="black" points="775.85,-376.14 778.19,-365.81 769.91,-372.43 775.85,-376.14"/>
</g>
<!-- deduct_shares&#45;&gt;error::invalid_argument -->
<g id="edge15" class="edge">
<title>deduct_shares&#45;&gt;error::invalid_argument</title>
<path fill="none" stroke="black" d="M769.73,-490.2C640.78,-482.97 340.25,-459.58 264,-396 235.88,-372.55 225.33,-329.95 221.38,-301.56"/>
<polygon fill="black" stroke="black" points="224.88,-301.38 220.23,-291.86 217.93,-302.2 224.88,-301.38"/>
</g>
<!-- deduct_shares&#45;&gt;contains -->
<g id="edge18" class="edge">
<title>deduct_shares&#45;&gt;contains</title>
<path fill="none" stroke="black" d="M835.55,-475.94C839.41,-465.62 844.25,-452.14 848,-440 854.56,-418.78 860.85,-394.46 865.35,-376.15"/>
<polygon fill="black" stroke="black" points="868.72,-377.1 867.67,-366.56 861.91,-375.45 868.72,-377.1"/>
</g>
<!-- deduct_shares&#45;&gt;shares -->
<g id="edge19" class="edge">
<title>deduct_shares&#45;&gt;shares</title>
<path fill="none" stroke="black" d="M807.43,-476.76C794.44,-466.99 777.76,-454.43 763.79,-443.91"/>
<polygon fill="black" stroke="black" points="765.93,-441.15 755.83,-437.93 761.72,-446.74 765.93,-441.15"/>
</g>
<!-- deduct_shares&#45;&gt;simple_map::borrow_mut -->
<g id="edge16" class="edge">
<title>deduct_shares&#45;&gt;simple_map::borrow_mut</title>
<path fill="none" stroke="black" d="M830.68,-475.8C831.61,-455.52 829.7,-422.26 810,-404 790.6,-386.01 775.48,-406.04 751,-396 737.15,-390.32 723.61,-380.91 712.58,-371.92"/>
<polygon fill="black" stroke="black" points="714.98,-369.37 705.11,-365.54 710.44,-374.69 714.98,-369.37"/>
</g>
<!-- vector::index_of -->
<g id="node12" class="node">
<title>vector::index_of</title>
<ellipse fill="none" stroke="black" cx="1084" cy="-106" rx="42.49" ry="18"/>
<text text-anchor="middle" x="1084" y="-102.3" font-family="Times,serif" font-size="14.00">index_of</text>
</g>
<!-- deduct_shares&#45;&gt;vector::index_of -->
<g id="edge13" class="edge">
<title>deduct_shares&#45;&gt;vector::index_of</title>
<path fill="none" stroke="black" d="M852.81,-477.14C885.43,-453.3 940,-404.91 940,-348 940,-348 940,-348 940,-271 940,-221.83 927.48,-195.93 964,-163 975.46,-152.66 1019,-161.51 1033,-155 1044.7,-149.56 1055.46,-140.39 1064.05,-131.51"/>
<polygon fill="black" stroke="black" points="1066.43,-134.09 1070.57,-124.33 1061.25,-129.38 1066.43,-134.09"/>
</g>
<!-- vector::remove -->
<g id="node13" class="node">
<title>vector::remove</title>
<ellipse fill="none" stroke="black" cx="1182" cy="-106" rx="37.89" ry="18"/>
<text text-anchor="middle" x="1182" y="-102.3" font-family="Times,serif" font-size="14.00">remove</text>
</g>
<!-- deduct_shares&#45;&gt;vector::remove -->
<g id="edge14" class="edge">
<title>deduct_shares&#45;&gt;vector::remove</title>
<path fill="none" stroke="black" d="M862.07,-478.71C905.96,-457.25 978,-412.25 978,-348 978,-348 978,-348 978,-271 978,-184.24 1069.55,-211.95 1135,-155 1143.53,-147.58 1152.34,-138.89 1159.99,-130.97"/>
<polygon fill="black" stroke="black" points="1162.39,-133.52 1166.73,-123.86 1157.31,-128.71 1162.39,-133.52"/>
</g>
<!-- simple_map::remove -->
<g id="node14" class="node">
<title>simple_map::remove</title>
<ellipse fill="none" stroke="black" cx="444" cy="-347" rx="37.89" ry="18"/>
<text text-anchor="middle" x="444" y="-343.3" font-family="Times,serif" font-size="14.00">remove</text>
</g>
<!-- deduct_shares&#45;&gt;simple_map::remove -->
<g id="edge17" class="edge">
<title>deduct_shares&#45;&gt;simple_map::remove</title>
<path fill="none" stroke="black" d="M824.43,-475.61C817.85,-454.47 803.48,-419.69 777,-404 749.65,-387.79 520.13,-408.73 491,-396 479.78,-391.1 469.86,-382.14 462.05,-373.28"/>
<polygon fill="black" stroke="black" points="464.97,-371.32 455.94,-365.78 459.55,-375.75 464.97,-371.32"/>
</g>
<!-- shares&#45;&gt;contains -->
<g id="edge21" class="edge">
<title>shares&#45;&gt;contains</title>
<path fill="none" stroke="black" d="M767.22,-416.57C785.33,-413 808.04,-406.73 826,-396 835.89,-390.08 845.07,-381.48 852.58,-373.18"/>
<polygon fill="black" stroke="black" points="855.23,-375.48 859.05,-365.6 849.9,-370.93 855.23,-375.48"/>
</g>
<!-- simple_map::borrow -->
<g id="node15" class="node">
<title>simple_map::borrow</title>
<ellipse fill="none" stroke="black" cx="352" cy="-347" rx="36.29" ry="18"/>
<text text-anchor="middle" x="352" y="-343.3" font-family="Times,serif" font-size="14.00">borrow</text>
</g>
<!-- shares&#45;&gt;simple_map::borrow -->
<g id="edge20" class="edge">
<title>shares&#45;&gt;simple_map::borrow</title>
<path fill="none" stroke="black" d="M712.03,-409.59C706.25,-407.32 700.01,-405.25 694,-404 661.68,-397.26 427.11,-409.53 397,-396 386.17,-391.14 376.72,-382.31 369.31,-373.55"/>
<polygon fill="black" stroke="black" points="372.19,-371.54 363.29,-365.79 366.66,-375.84 372.19,-371.54"/>
</g>
<!-- option::is_some -->
<g id="node16" class="node">
<title>option::is_some</title>
<ellipse fill="none" stroke="black" cx="502" cy="-106" rx="40.09" ry="18"/>
<text text-anchor="middle" x="502" y="-102.3" font-family="Times,serif" font-size="14.00">is_some</text>
</g>
<!-- simple_map::contains_key&#45;&gt;option::is_some -->
<g id="edge22" class="edge">
<title>simple_map::contains_key&#45;&gt;option::is_some</title>
<path fill="none" stroke="black" d="M513.71,-334.76C506.14,-332.82 498.35,-330.84 491,-329 476.36,-325.34 469.64,-330.6 458,-321 426.7,-295.19 428.64,-277.64 420,-238 412.9,-205.43 404.44,-192.48 420,-163 429.13,-145.7 446.28,-132.74 462.54,-123.67"/>
<polygon fill="black" stroke="black" points="463.86,-126.92 471.12,-119.21 460.63,-120.71 463.86,-126.92"/>
</g>
<!-- simple_map::find -->
<g id="node17" class="node">
<title>simple_map::find</title>
<ellipse fill="none" stroke="black" cx="578" cy="-272" rx="27" ry="18"/>
<text text-anchor="middle" x="578" y="-268.3" font-family="Times,serif" font-size="14.00">find</text>
</g>
<!-- simple_map::contains_key&#45;&gt;simple_map::find -->
<g id="edge23" class="edge">
<title>simple_map::contains_key&#45;&gt;simple_map::find</title>
<path fill="none" stroke="black" d="M561.98,-328.7C564.36,-320.43 567.27,-310.31 569.95,-300.99"/>
<polygon fill="black" stroke="black" points="573.24,-302.21 572.64,-291.63 566.51,-300.27 573.24,-302.21"/>
</g>
<!-- error::invalid_state&#45;&gt;error::canonical -->
<g id="edge24" class="edge">
<title>error::invalid_state&#45;&gt;error::canonical</title>
<path fill="none" stroke="black" d="M87.13,-254.22C97.44,-242.77 111.27,-227.42 122.83,-214.6"/>
<polygon fill="black" stroke="black" points="125.28,-217.1 129.38,-207.33 120.08,-212.42 125.28,-217.1"/>
</g>
<!-- simple_map::borrow_mut&#45;&gt;error::invalid_argument -->
<g id="edge25" class="edge">
<title>simple_map::borrow_mut&#45;&gt;error::invalid_argument</title>
<path fill="none" stroke="black" d="M648.04,-334.1C639.84,-332.03 631.19,-330.17 623,-329 587.9,-323.97 338.18,-330.44 304,-321 285.11,-315.78 265.93,-305.48 250.59,-295.75"/>
<polygon fill="black" stroke="black" points="252.64,-292.91 242.37,-290.34 248.79,-298.76 252.64,-292.91"/>
</g>
<!-- simple_map::borrow_mut&#45;&gt;option::is_some -->
<g id="edge27" class="edge">
<title>simple_map::borrow_mut&#45;&gt;option::is_some</title>
<path fill="none" stroke="black" d="M646.94,-334.3C639.05,-332.3 630.81,-330.41 623,-329 587.4,-322.56 574.96,-335.9 542,-321 492.71,-298.72 474.57,-287.6 453,-238 439.71,-207.43 441.28,-194.2 453,-163 457.63,-150.69 466.33,-139.31 475.12,-130.07"/>
<polygon fill="black" stroke="black" points="477.36,-132.78 482.04,-123.28 472.45,-127.79 477.36,-132.78"/>
</g>
<!-- simple_map::borrow_mut&#45;&gt;simple_map::find -->
<g id="edge28" class="edge">
<title>simple_map::borrow_mut&#45;&gt;simple_map::find</title>
<path fill="none" stroke="black" d="M663.62,-330.34C646.73,-319.03 623.84,-303.7 605.98,-291.74"/>
<polygon fill="black" stroke="black" points="608.16,-288.99 597.9,-286.33 604.26,-294.8 608.16,-288.99"/>
</g>
<!-- option::extract -->
<g id="node18" class="node">
<title>option::extract</title>
<ellipse fill="none" stroke="black" cx="496" cy="-189" rx="34.39" ry="18"/>
<text text-anchor="middle" x="496" y="-185.3" font-family="Times,serif" font-size="14.00">extract</text>
</g>
<!-- simple_map::borrow_mut&#45;&gt;option::extract -->
<g id="edge26" class="edge">
<title>simple_map::borrow_mut&#45;&gt;option::extract</title>
<path fill="none" stroke="black" d="M679.85,-328.74C669.24,-305.54 646.96,-265.01 614,-246 584.96,-229.25 568.84,-253.28 539,-238 528.76,-232.76 519.81,-223.98 512.77,-215.36"/>
<polygon fill="black" stroke="black" points="515.62,-213.33 506.81,-207.45 510.03,-217.54 515.62,-213.33"/>
</g>
<!-- simple_map::add&#45;&gt;error::invalid_argument -->
<g id="edge29" class="edge">
<title>simple_map::add&#45;&gt;error::invalid_argument</title>
<path fill="none" stroke="black" d="M766.98,-334.73C761.92,-332.39 756.38,-330.26 751,-329 702.63,-317.7 351.93,-334.06 304,-321 285.09,-315.85 265.91,-305.55 250.57,-295.81"/>
<polygon fill="black" stroke="black" points="252.63,-292.97 242.35,-290.39 248.77,-298.82 252.63,-292.97"/>
</g>
<!-- simple_map::add&#45;&gt;simple_map::find -->
<g id="edge31" class="edge">
<title>simple_map::add&#45;&gt;simple_map::find</title>
<path fill="none" stroke="black" d="M765.88,-335.47C761.04,-333.22 755.88,-330.93 751,-329 704.25,-310.49 648.71,-293.33 613.41,-283.01"/>
<polygon fill="black" stroke="black" points="614.73,-279.75 604.16,-280.33 612.79,-286.48 614.73,-279.75"/>
</g>
<!-- option::is_none -->
<g id="node19" class="node">
<title>option::is_none</title>
<ellipse fill="none" stroke="black" cx="738" cy="-189" rx="38.19" ry="18"/>
<text text-anchor="middle" x="738" y="-185.3" font-family="Times,serif" font-size="14.00">is_none</text>
</g>
<!-- simple_map::add&#45;&gt;option::is_none -->
<g id="edge30" class="edge">
<title>simple_map::add&#45;&gt;option::is_none</title>
<path fill="none" stroke="black" d="M783.86,-328.74C779.97,-308.59 772.65,-274.4 763,-246 759.74,-236.4 755.44,-226.19 751.33,-217.15"/>
<polygon fill="black" stroke="black" points="754.55,-215.77 747.14,-208.2 748.21,-218.74 754.55,-215.77"/>
</g>
<!-- simple_map::remove&#45;&gt;error::invalid_argument -->
<g id="edge33" class="edge">
<title>simple_map::remove&#45;&gt;error::invalid_argument</title>
<path fill="none" stroke="black" d="M416.02,-334.53C409.84,-332.38 403.27,-330.38 397,-329 356.48,-320.09 343.63,-333.26 304,-321 285.54,-315.29 266.66,-305.14 251.4,-295.65"/>
<polygon fill="black" stroke="black" points="253.51,-292.84 243.21,-290.37 249.72,-298.73 253.51,-292.84"/>
</g>
<!-- simple_map::remove&#45;&gt;option::is_some -->
<g id="edge35" class="edge">
<title>simple_map::remove&#45;&gt;option::is_some</title>
<path fill="none" stroke="black" d="M424.63,-331.33C421.64,-328.24 418.92,-324.76 417,-321 385.02,-258.33 372.09,-224.09 407,-163 418.22,-143.36 439.31,-129.93 458.78,-121.15"/>
<polygon fill="black" stroke="black" points="460.07,-124.4 467.95,-117.32 457.38,-117.94 460.07,-124.4"/>
</g>
<!-- simple_map::remove&#45;&gt;simple_map::find -->
<g id="edge36" class="edge">
<title>simple_map::remove&#45;&gt;simple_map::find</title>
<path fill="none" stroke="black" d="M472.92,-334.98C478.86,-332.87 485.1,-330.78 491,-329 505.45,-324.65 510.63,-328 524,-321 536.08,-314.68 547.64,-305.07 556.94,-296.1"/>
<polygon fill="black" stroke="black" points="559.19,-298.81 563.74,-289.24 554.21,-293.88 559.19,-298.81"/>
</g>
<!-- simple_map::remove&#45;&gt;option::extract -->
<g id="edge34" class="edge">
<title>simple_map::remove&#45;&gt;option::extract</title>
<path fill="none" stroke="black" d="M449.66,-329.01C458.57,-302.28 475.95,-250.15 486.71,-217.88"/>
<polygon fill="black" stroke="black" points="490.02,-219 489.86,-208.41 483.38,-216.79 490.02,-219"/>
</g>
<!-- vector::swap_remove -->
<g id="node20" class="node">
<title>vector::swap_remove</title>
<ellipse fill="none" stroke="black" cx="964" cy="-106" rx="59.59" ry="18"/>
<text text-anchor="middle" x="964" y="-102.3" font-family="Times,serif" font-size="14.00">swap_remove</text>
</g>
<!-- simple_map::remove&#45;&gt;vector::swap_remove -->
<g id="edge32" class="edge">
<title>simple_map::remove&#45;&gt;vector::swap_remove</title>
<path fill="none" stroke="black" d="M471.96,-334.43C478.14,-332.29 484.71,-330.31 491,-329 544.62,-317.79 560.99,-334.82 614,-321 749.14,-285.77 882.6,-178.96 937.67,-130.89"/>
<polygon fill="black" stroke="black" points="939.8,-133.67 944.99,-124.43 935.17,-128.42 939.8,-133.67"/>
</g>
<!-- simple_map::borrow&#45;&gt;error::invalid_argument -->
<g id="edge37" class="edge">
<title>simple_map::borrow&#45;&gt;error::invalid_argument</title>
<path fill="none" stroke="black" d="M327.5,-333.44C319.93,-329.51 311.6,-325.12 304,-321 288.39,-312.53 271.31,-302.95 256.59,-294.59"/>
<polygon fill="black" stroke="black" points="258.55,-291.68 248.13,-289.77 255.09,-297.76 258.55,-291.68"/>
</g>
<!-- simple_map::borrow&#45;&gt;option::is_some -->
<g id="edge39" class="edge">
<title>simple_map::borrow&#45;&gt;option::is_some</title>
<path fill="none" stroke="black" d="M349.87,-328.57C346.54,-293.44 343.99,-213.17 382,-163 399.66,-139.69 429.39,-125.72 454.84,-117.56"/>
<polygon fill="black" stroke="black" points="455.76,-120.94 464.35,-114.74 453.77,-114.23 455.76,-120.94"/>
</g>
<!-- simple_map::borrow&#45;&gt;simple_map::find -->
<g id="edge40" class="edge">
<title>simple_map::borrow&#45;&gt;simple_map::find</title>
<path fill="none" stroke="black" d="M379.31,-334.66C385.08,-332.55 391.19,-330.54 397,-329 419.18,-323.14 425.8,-326.78 448,-321 482.02,-312.14 519.56,-297.76 545.52,-287.04"/>
<polygon fill="black" stroke="black" points="546.62,-290.38 554.49,-283.29 543.91,-283.92 546.62,-290.38"/>
</g>
<!-- simple_map::borrow&#45;&gt;option::extract -->
<g id="edge38" class="edge">
<title>simple_map::borrow&#45;&gt;option::extract</title>
<path fill="none" stroke="black" d="M366.6,-330.18C391.96,-302.71 444.27,-246.04 474.03,-213.8"/>
<polygon fill="black" stroke="black" points="476.55,-216.23 480.76,-206.51 471.41,-211.48 476.55,-216.23"/>
</g>
<!-- vector::is_empty -->
<g id="node21" class="node">
<title>vector::is_empty</title>
<ellipse fill="none" stroke="black" cx="844" cy="-34" rx="43.59" ry="18"/>
<text text-anchor="middle" x="844" y="-30.3" font-family="Times,serif" font-size="14.00">is_empty</text>
</g>
<!-- option::is_some&#45;&gt;vector::is_empty -->
<g id="edge41" class="edge">
<title>option::is_some&#45;&gt;vector::is_empty</title>
<path fill="none" stroke="black" d="M537.95,-97.64C599.36,-85.07 724.56,-59.45 794.29,-45.17"/>
<polygon fill="black" stroke="black" points="794.83,-48.64 803.92,-43.2 793.42,-41.78 794.83,-48.64"/>
</g>
<!-- option::none -->
<g id="node22" class="node">
<title>option::none</title>
<ellipse fill="none" stroke="black" cx="654" cy="-189" rx="27.9" ry="18"/>
<text text-anchor="middle" x="654" y="-185.3" font-family="Times,serif" font-size="14.00">none</text>
</g>
<!-- simple_map::find&#45;&gt;option::none -->
<g id="edge42" class="edge">
<title>simple_map::find&#45;&gt;option::none</title>
<path fill="none" stroke="black" d="M595.01,-257.93C602.11,-252.14 610.26,-245.05 617,-238 623.75,-230.94 630.46,-222.69 636.29,-215.04"/>
<polygon fill="black" stroke="black" points="639.08,-217.14 642.22,-207.02 633.46,-212.98 639.08,-217.14"/>
</g>
<!-- option::some -->
<g id="node23" class="node">
<title>option::some</title>
<ellipse fill="none" stroke="black" cx="578" cy="-189" rx="29.8" ry="18"/>
<text text-anchor="middle" x="578" y="-185.3" font-family="Times,serif" font-size="14.00">some</text>
</g>
<!-- simple_map::find&#45;&gt;option::some -->
<g id="edge43" class="edge">
<title>simple_map::find&#45;&gt;option::some</title>
<path fill="none" stroke="black" d="M578,-253.82C578,-243.69 578,-230.6 578,-218.92"/>
<polygon fill="black" stroke="black" points="581.5,-218.95 578,-208.95 574.5,-218.95 581.5,-218.95"/>
</g>
<!-- option::extract&#45;&gt;option::is_some -->
<g id="edge44" class="edge">
<title>option::extract&#45;&gt;option::is_some</title>
<path fill="none" stroke="black" d="M497.27,-170.82C498.03,-160.58 499.01,-147.33 499.89,-135.55"/>
<polygon fill="black" stroke="black" points="503.35,-136.17 500.6,-125.94 496.37,-135.66 503.35,-136.17"/>
</g>
<!-- option::is_none&#45;&gt;vector::is_empty -->
<g id="edge45" class="edge">
<title>option::is_none&#45;&gt;vector::is_empty</title>
<path fill="none" stroke="black" d="M743.82,-171.07C752.02,-148.72 768.55,-108.84 791,-80 797.47,-71.7 805.67,-63.83 813.69,-57.06"/>
<polygon fill="black" stroke="black" points="815.78,-59.88 821.37,-50.88 811.39,-54.42 815.78,-59.88"/>
</g>
<!-- vector::swap_remove&#45;&gt;vector::is_empty -->
<g id="edge46" class="edge">
<title>vector::swap_remove&#45;&gt;vector::is_empty</title>
<path fill="none" stroke="black" d="M937.37,-89.46C920.01,-79.34 897.18,-66.02 878.44,-55.09"/>
<polygon fill="black" stroke="black" points="880.22,-52.08 869.82,-50.06 876.7,-58.12 880.22,-52.08"/>
</g>
<!-- vector::singleton -->
<g id="node24" class="node">
<title>vector::singleton</title>
<ellipse fill="none" stroke="black" cx="843" cy="-106" rx="42.79" ry="18"/>
<text text-anchor="middle" x="843" y="-102.3" font-family="Times,serif" font-size="14.00">singleton</text>
</g>
<!-- option::some&#45;&gt;vector::singleton -->
<g id="edge47" class="edge">
<title>option::some&#45;&gt;vector::singleton</title>
<path fill="none" stroke="black" d="M595.26,-174.18C601.71,-169.79 609.34,-165.44 617,-163 653.25,-151.45 752.7,-169.19 788,-155 800.6,-149.93 812.3,-140.7 821.63,-131.67"/>
<polygon fill="black" stroke="black" points="823.99,-134.26 828.44,-124.65 818.97,-129.38 823.99,-134.26"/>
</g>
</g>
</svg>
