<?xml version="1.0" encoding="UTF-8" standalone="no"?>
<!DOCTYPE svg PUBLIC "-//W3C//DTD SVG 1.1//EN"
 "http://www.w3.org/Graphics/SVG/1.1/DTD/svg11.dtd">
<!-- Generated by graphviz version 7.0.4 (20221203.1631)
 -->
<!-- Title: G Pages: 1 -->
<svg width="739pt" height="592pt"
 viewBox="0.00 0.00 738.79 592.00" xmlns="http://www.w3.org/2000/svg" xmlns:xlink="http://www.w3.org/1999/xlink">
<g id="graph0" class="graph" transform="scale(1 1) rotate(0) translate(4 588)">
<title>G</title>
<polygon fill="white" stroke="none" points="-4,4 -4,-588 734.79,-588 734.79,4 -4,4"/>
<g id="clust1" class="cluster">
<title>cluster_simple_map</title>
<polygon fill="none" stroke="black" points="258,-246 258,-396 479,-396 479,-246 258,-246"/>
<text text-anchor="middle" x="368.5" y="-380.8" font-family="Times,serif" font-size="14.00">simple_map</text>
</g>
<g id="clust2" class="cluster">
<title>cluster_error</title>
<polygon fill="none" stroke="black" points="8,-163 8,-321 170,-321 170,-163 8,-163"/>
<text text-anchor="middle" x="89" y="-305.8" font-family="Times,serif" font-size="14.00">error</text>
</g>
<g id="clust3" class="cluster">
<title>cluster_option</title>
<polygon fill="none" stroke="black" points="178,-91 178,-238 414,-238 414,-91 178,-91"/>
<text text-anchor="middle" x="296" y="-222.8" font-family="Times,serif" font-size="14.00">option</text>
</g>
<g id="clust4" class="cluster">
<title>cluster_vector</title>
<polygon fill="none" stroke="black" points="199,-8 199,-83 406,-83 406,-8 199,-8"/>
<text text-anchor="middle" x="302.5" y="-67.8" font-family="Times,serif" font-size="14.00">vector</text>
</g>
<!-- balance -->
<g id="node1" class="node">
<title>balance</title>
<ellipse fill="none" stroke="black" cx="460" cy="-566" rx="37.89" ry="18"/>
<text text-anchor="middle" x="460" y="-562.3" font-family="Times,serif" font-size="14.00">balance</text>
</g>
<!-- shares -->
<g id="node2" class="node">
<title>shares</title>
<ellipse fill="none" stroke="black" cx="397" cy="-494" rx="32.49" ry="18"/>
<text text-anchor="middle" x="397" y="-490.3" font-family="Times,serif" font-size="14.00">shares</text>
</g>
<!-- balance&#45;&gt;shares -->
<g id="edge1" class="edge">
<title>balance&#45;&gt;shares</title>
<path fill="none" stroke="black" d="M445.7,-549.12C437.62,-540.13 427.35,-528.72 418.33,-518.7"/>
<polygon fill="black" stroke="black" points="421.11,-516.56 411.82,-511.47 415.91,-521.24 421.11,-516.56"/>
</g>
<!-- shares_to_amount -->
<g id="node3" class="node">
<title>shares_to_amount</title>
<ellipse fill="none" stroke="black" cx="558" cy="-494" rx="75.29" ry="18"/>
<text text-anchor="middle" x="558" y="-490.3" font-family="Times,serif" font-size="14.00">shares_to_amount</text>
</g>
<!-- balance&#45;&gt;shares_to_amount -->
<g id="edge2" class="edge">
<title>balance&#45;&gt;shares_to_amount</title>
<path fill="none" stroke="black" d="M480.31,-550.5C493.49,-541.08 510.96,-528.6 525.99,-517.87"/>
<polygon fill="black" stroke="black" points="527.64,-520.99 533.74,-512.33 523.57,-515.29 527.64,-520.99"/>
</g>
<!-- simple_map::borrow -->
<g id="node4" class="node">
<title>simple_map::borrow</title>
<ellipse fill="none" stroke="black" cx="302" cy="-347" rx="36.29" ry="18"/>
<text text-anchor="middle" x="302" y="-343.3" font-family="Times,serif" font-size="14.00">borrow</text>
</g>
<!-- shares&#45;&gt;simple_map::borrow -->
<g id="edge3" class="edge">
<title>shares&#45;&gt;simple_map::borrow</title>
<path fill="none" stroke="black" d="M381.18,-478.22C370.92,-468.1 357.69,-454.02 348,-440 333.97,-419.71 321.69,-394.54 313.36,-375.65"/>
<polygon fill="black" stroke="black" points="316.57,-374.27 309.41,-366.47 310.14,-377.04 316.57,-374.27"/>
</g>
<!-- contains -->
<g id="node5" class="node">
<title>contains</title>
<ellipse fill="none" stroke="black" cx="397" cy="-422" rx="40.09" ry="18"/>
<text text-anchor="middle" x="397" y="-418.3" font-family="Times,serif" font-size="14.00">contains</text>
</g>
<!-- shares&#45;&gt;contains -->
<g id="edge4" class="edge">
<title>shares&#45;&gt;contains</title>
<path fill="none" stroke="black" d="M397,-475.7C397,-468.41 397,-459.73 397,-451.54"/>
<polygon fill="black" stroke="black" points="400.5,-451.62 397,-441.62 393.5,-451.62 400.5,-451.62"/>
</g>
<!-- shares_to_amount_with_total_coins -->
<g id="node6" class="node">
<title>shares_to_amount_with_total_coins</title>
<ellipse fill="none" stroke="black" cx="593" cy="-422" rx="137.58" ry="18"/>
<text text-anchor="middle" x="593" y="-418.3" font-family="Times,serif" font-size="14.00">shares_to_amount_with_total_coins</text>
</g>
<!-- shares_to_amount&#45;&gt;shares_to_amount_with_total_coins -->
<g id="edge5" class="edge">
<title>shares_to_amount&#45;&gt;shares_to_amount_with_total_coins</title>
<path fill="none" stroke="black" d="M566.65,-475.7C570.47,-468.07 575.04,-458.92 579.3,-450.4"/>
<polygon fill="black" stroke="black" points="582.43,-451.97 583.77,-441.46 576.17,-448.84 582.43,-451.97"/>
</g>
<!-- error::invalid_argument -->
<g id="node7" class="node">
<title>error::invalid_argument</title>
<ellipse fill="none" stroke="black" cx="89" cy="-272" rx="73.39" ry="18"/>
<text text-anchor="middle" x="89" y="-268.3" font-family="Times,serif" font-size="14.00">invalid_argument</text>
</g>
<!-- simple_map::borrow&#45;&gt;error::invalid_argument -->
<g id="edge6" class="edge">
<title>simple_map::borrow&#45;&gt;error::invalid_argument</title>
<path fill="none" stroke="black" d="M272.83,-336C239.05,-324.42 182.74,-305.13 141.33,-290.93"/>
<polygon fill="black" stroke="black" points="142.64,-287.68 132.04,-287.75 140.37,-294.3 142.64,-287.68"/>
</g>
<!-- option::extract -->
<g id="node8" class="node">
<title>option::extract</title>
<ellipse fill="none" stroke="black" cx="372" cy="-189" rx="34.39" ry="18"/>
<text text-anchor="middle" x="372" y="-185.3" font-family="Times,serif" font-size="14.00">extract</text>
</g>
<!-- simple_map::borrow&#45;&gt;option::extract -->
<g id="edge7" class="edge">
<title>simple_map::borrow&#45;&gt;option::extract</title>
<path fill="none" stroke="black" d="M323.42,-332.34C327.38,-329.02 331.16,-325.2 334,-321 355.16,-289.74 364.7,-246.61 368.89,-218.52"/>
<polygon fill="black" stroke="black" points="372.36,-219 370.22,-208.63 365.42,-218.07 372.36,-219"/>
</g>
<!-- option::is_some -->
<g id="node9" class="node">
<title>option::is_some</title>
<ellipse fill="none" stroke="black" cx="366" cy="-117" rx="40.09" ry="18"/>
<text text-anchor="middle" x="366" y="-113.3" font-family="Times,serif" font-size="14.00">is_some</text>
</g>
<!-- simple_map::borrow&#45;&gt;option::is_some -->
<g id="edge8" class="edge">
<title>simple_map::borrow&#45;&gt;option::is_some</title>
<path fill="none" stroke="black" d="M330.4,-335.27C344.95,-329.61 360.2,-323.36 363,-321 396.29,-292.96 402.98,-279.84 415,-238 424.21,-205.96 428.41,-193.52 415,-163 411.06,-154.03 404.35,-146.07 397.14,-139.42"/>
<polygon fill="black" stroke="black" points="399.66,-136.97 389.75,-133.23 395.16,-142.33 399.66,-136.97"/>
</g>
<!-- simple_map::find -->
<g id="node10" class="node">
<title>simple_map::find</title>
<ellipse fill="none" stroke="black" cx="298" cy="-272" rx="27" ry="18"/>
<text text-anchor="middle" x="298" y="-268.3" font-family="Times,serif" font-size="14.00">find</text>
</g>
<!-- simple_map::borrow&#45;&gt;simple_map::find -->
<g id="edge9" class="edge">
<title>simple_map::borrow&#45;&gt;simple_map::find</title>
<path fill="none" stroke="black" d="M301.05,-328.7C300.61,-320.67 300.08,-310.9 299.58,-301.8"/>
<polygon fill="black" stroke="black" points="303.08,-301.73 299.04,-291.94 296.09,-302.12 303.08,-301.73"/>
</g>
<!-- simple_map::contains_key -->
<g id="node11" class="node">
<title>simple_map::contains_key</title>
<ellipse fill="none" stroke="black" cx="414" cy="-347" rx="57.39" ry="18"/>
<text text-anchor="middle" x="414" y="-343.3" font-family="Times,serif" font-size="14.00">contains_key</text>
</g>
<!-- contains&#45;&gt;simple_map::contains_key -->
<g id="edge10" class="edge">
<title>contains&#45;&gt;simple_map::contains_key</title>
<path fill="none" stroke="black" d="M401.03,-403.7C402.92,-395.58 405.23,-385.68 407.36,-376.5"/>
<polygon fill="black" stroke="black" points="410.74,-377.44 409.6,-366.9 403.92,-375.85 410.74,-377.44"/>
</g>
<!-- multiply_then_divide -->
<g id="node12" class="node">
<title>multiply_then_divide</title>
<ellipse fill="none" stroke="black" cx="593" cy="-347" rx="87.18" ry="18"/>
<text text-anchor="middle" x="593" y="-343.3" font-family="Times,serif" font-size="14.00">multiply_then_divide</text>
</g>
<!-- shares_to_amount_with_total_coins&#45;&gt;multiply_then_divide -->
<g id="edge11" class="edge">
<title>shares_to_amount_with_total_coins&#45;&gt;multiply_then_divide</title>
<path fill="none" stroke="black" d="M593,-403.7C593,-395.67 593,-385.9 593,-376.8"/>
<polygon fill="black" stroke="black" points="596.5,-376.94 593,-366.94 589.5,-376.94 596.5,-376.94"/>
</g>
<!-- error::canonical -->
<g id="node13" class="node">
<title>error::canonical</title>
<ellipse fill="none" stroke="black" cx="89" cy="-189" rx="44.39" ry="18"/>
<text text-anchor="middle" x="89" y="-185.3" font-family="Times,serif" font-size="14.00">canonical</text>
</g>
<!-- error::invalid_argument&#45;&gt;error::canonical -->
<g id="edge12" class="edge">
<title>error::invalid_argument&#45;&gt;error::canonical</title>
<path fill="none" stroke="black" d="M89,-253.82C89,-243.69 89,-230.6 89,-218.92"/>
<polygon fill="black" stroke="black" points="92.5,-218.95 89,-208.95 85.5,-218.95 92.5,-218.95"/>
</g>
<!-- option::extract&#45;&gt;option::is_some -->
<g id="edge13" class="edge">
<title>option::extract&#45;&gt;option::is_some</title>
<path fill="none" stroke="black" d="M370.52,-170.7C369.89,-163.41 369.15,-154.73 368.45,-146.54"/>
<polygon fill="black" stroke="black" points="371.94,-146.28 367.6,-136.61 364.96,-146.87 371.94,-146.28"/>
</g>
<!-- vector::is_empty -->
<g id="node14" class="node">
<title>vector::is_empty</title>
<ellipse fill="none" stroke="black" cx="354" cy="-34" rx="43.59" ry="18"/>
<text text-anchor="middle" x="354" y="-30.3" font-family="Times,serif" font-size="14.00">is_empty</text>
</g>
<!-- option::is_some&#45;&gt;vector::is_empty -->
<g id="edge14" class="edge">
<title>option::is_some&#45;&gt;vector::is_empty</title>
<path fill="none" stroke="black" d="M363.46,-98.82C361.94,-88.58 359.97,-75.33 358.23,-63.55"/>
<polygon fill="black" stroke="black" points="361.73,-63.31 356.8,-53.93 354.81,-64.33 361.73,-63.31"/>
</g>
<!-- option::none -->
<g id="node15" class="node">
<title>option::none</title>
<ellipse fill="none" stroke="black" cx="292" cy="-189" rx="27.9" ry="18"/>
<text text-anchor="middle" x="292" y="-185.3" font-family="Times,serif" font-size="14.00">none</text>
</g>
<!-- simple_map::find&#45;&gt;option::none -->
<g id="edge15" class="edge">
<title>simple_map::find&#45;&gt;option::none</title>
<path fill="none" stroke="black" d="M296.73,-253.82C295.97,-243.58 294.99,-230.33 294.11,-218.55"/>
<polygon fill="black" stroke="black" points="297.63,-218.66 293.4,-208.94 290.65,-219.17 297.63,-218.66"/>
</g>
<!-- option::some -->
<g id="node16" class="node">
<title>option::some</title>
<ellipse fill="none" stroke="black" cx="216" cy="-189" rx="29.8" ry="18"/>
<text text-anchor="middle" x="216" y="-185.3" font-family="Times,serif" font-size="14.00">some</text>
</g>
<!-- simple_map::find&#45;&gt;option::some -->
<g id="edge16" class="edge">
<title>simple_map::find&#45;&gt;option::some</title>
<path fill="none" stroke="black" d="M279.66,-258.4C271.73,-252.58 262.56,-245.35 255,-238 247.78,-230.97 240.61,-222.65 234.43,-214.92"/>
<polygon fill="black" stroke="black" points="237.26,-212.87 228.36,-207.12 231.73,-217.16 237.26,-212.87"/>
</g>
<!-- simple_map::contains_key&#45;&gt;option::is_some -->
<g id="edge17" class="edge">
<title>simple_map::contains_key&#45;&gt;option::is_some</title>
<path fill="none" stroke="black" d="M440.44,-330.77C443.48,-327.92 446.15,-324.66 448,-321 479.7,-258.34 483.77,-223.43 448,-163 439.46,-148.58 424.49,-138.47 409.65,-131.55"/>
<polygon fill="black" stroke="black" points="411.45,-128.51 400.87,-127.83 408.72,-134.95 411.45,-128.51"/>
</g>
<!-- simple_map::contains_key&#45;&gt;simple_map::find -->
<g id="edge18" class="edge">
<title>simple_map::contains_key&#45;&gt;simple_map::find</title>
<path fill="none" stroke="black" d="M389.12,-330.34C370.83,-318.83 345.95,-303.17 326.8,-291.13"/>
<polygon fill="black" stroke="black" points="328.72,-288.2 318.39,-285.83 324.99,-294.12 328.72,-288.2"/>
</g>
<!-- to_u128 -->
<g id="node17" class="node">
<title>to_u128</title>
<ellipse fill="none" stroke="black" cx="593" cy="-272" rx="39.79" ry="18"/>
<text text-anchor="middle" x="593" y="-268.3" font-family="Times,serif" font-size="14.00">to_u128</text>
</g>
<!-- multiply_then_divide&#45;&gt;to_u128 -->
<g id="edge19" class="edge">
<title>multiply_then_divide&#45;&gt;to_u128</title>
<path fill="none" stroke="black" d="M593,-328.7C593,-320.67 593,-310.9 593,-301.8"/>
<polygon fill="black" stroke="black" points="596.5,-301.94 593,-291.94 589.5,-301.94 596.5,-301.94"/>
</g>
<!-- vector::singleton -->
<g id="node18" class="node">
<title>vector::singleton</title>
<ellipse fill="none" stroke="black" cx="250" cy="-34" rx="42.79" ry="18"/>
<text text-anchor="middle" x="250" y="-30.3" font-family="Times,serif" font-size="14.00">singleton</text>
</g>
<!-- option::some&#45;&gt;vector::singleton -->
<g id="edge20" class="edge">
<title>option::some&#45;&gt;vector::singleton</title>
<path fill="none" stroke="black" d="M219.83,-170.75C225.62,-144.69 236.67,-95.01 243.66,-63.52"/>
<polygon fill="black" stroke="black" points="247.05,-64.42 245.8,-53.9 240.21,-62.91 247.05,-64.42"/>
</g>
</g>
</svg>
