<?xml version="1.0" encoding="UTF-8" standalone="no"?>
<!DOCTYPE svg PUBLIC "-//W3C//DTD SVG 1.1//EN"
 "http://www.w3.org/Graphics/SVG/1.1/DTD/svg11.dtd">
<!-- Generated by graphviz version 7.0.4 (20221203.1631)
 -->
<!-- Title: G Pages: 1 -->
<svg width="224pt" height="116pt"
 viewBox="0.00 0.00 223.79 116.00" xmlns="http://www.w3.org/2000/svg" xmlns:xlink="http://www.w3.org/1999/xlink">
<g id="graph0" class="graph" transform="scale(1 1) rotate(0) translate(4 112)">
<title>G</title>
<polygon fill="white" stroke="none" points="-4,4 -4,-112 219.79,-112 219.79,4 -4,4"/>
<!-- add_shares -->
<g id="node1" class="node">
<title>add_shares</title>
<ellipse fill="none" stroke="black" cx="93.1" cy="-18" rx="50.09" ry="18"/>
<text text-anchor="middle" x="93.1" y="-14.3" font-family="Times,serif" font-size="14.00">add_shares</text>
</g>
<!-- buy_in -->
<g id="node2" class="node">
<title>buy_in</title>
<ellipse fill="none" stroke="black" cx="35.1" cy="-90" rx="35.19" ry="18"/>
<text text-anchor="middle" x="35.1" y="-86.3" font-family="Times,serif" font-size="14.00">buy_in</text>
</g>
<!-- buy_in&#45;&gt;add_shares -->
<g id="edge1" class="edge">
<title>buy_in&#45;&gt;add_shares</title>
<path fill="none" stroke="black" d="M48.26,-73.12C55.35,-64.56 64.26,-53.8 72.27,-44.13"/>
<polygon fill="black" stroke="black" points="74.93,-46.41 78.62,-36.47 69.54,-41.94 74.93,-46.41"/>
</g>
<!-- transfer_shares -->
<g id="node3" class="node">
<title>transfer_shares</title>
<ellipse fill="none" stroke="black" cx="152.1" cy="-90" rx="63.89" ry="18"/>
<text text-anchor="middle" x="152.1" y="-86.3" font-family="Times,serif" font-size="14.00">transfer_shares</text>
</g>
<!-- transfer_shares&#45;&gt;add_shares -->
<g id="edge2" class="edge">
<title>transfer_shares&#45;&gt;add_shares</title>
<path fill="none" stroke="black" d="M137.81,-72.05C130.68,-63.59 121.91,-53.19 114.04,-43.84"/>
<polygon fill="black" stroke="black" points="116.94,-41.85 107.82,-36.46 111.59,-46.37 116.94,-41.85"/>
</g>
</g>
</svg>
