<?xml version="1.0" encoding="UTF-8" standalone="no"?>
<!DOCTYPE svg PUBLIC "-//W3C//DTD SVG 1.1//EN"
 "http://www.w3.org/Graphics/SVG/1.1/DTD/svg11.dtd">
<!-- Generated by graphviz version 7.0.4 (20221203.1631)
 -->
<!-- Title: G Pages: 1 -->
<svg width="343pt" height="188pt"
 viewBox="0.00 0.00 343.39 188.00" xmlns="http://www.w3.org/2000/svg" xmlns:xlink="http://www.w3.org/1999/xlink">
<g id="graph0" class="graph" transform="scale(1 1) rotate(0) translate(4 184)">
<title>G</title>
<polygon fill="white" stroke="none" points="-4,4 -4,-184 339.39,-184 339.39,4 -4,4"/>
<!-- shares -->
<g id="node1" class="node">
<title>shares</title>
<ellipse fill="none" stroke="black" cx="147.7" cy="-18" rx="32.49" ry="18"/>
<text text-anchor="middle" x="147.7" y="-14.3" font-family="Times,serif" font-size="14.00">shares</text>
</g>
<!-- balance -->
<g id="node2" class="node">
<title>balance</title>
<ellipse fill="none" stroke="black" cx="37.7" cy="-90" rx="37.89" ry="18"/>
<text text-anchor="middle" x="37.7" y="-86.3" font-family="Times,serif" font-size="14.00">balance</text>
</g>
<!-- balance&#45;&gt;shares -->
<g id="edge1" class="edge">
<title>balance&#45;&gt;shares</title>
<path fill="none" stroke="black" d="M59.69,-75C76.2,-64.5 98.99,-49.99 117.25,-38.37"/>
<polygon fill="black" stroke="black" points="119.02,-41.4 125.58,-33.07 115.26,-35.49 119.02,-41.4"/>
</g>
<!-- deduct_shares -->
<g id="node3" class="node">
<title>deduct_shares</title>
<ellipse fill="none" stroke="black" cx="191.7" cy="-90" rx="60.39" ry="18"/>
<text text-anchor="middle" x="191.7" y="-86.3" font-family="Times,serif" font-size="14.00">deduct_shares</text>
</g>
<!-- deduct_shares&#45;&gt;shares -->
<g id="edge2" class="edge">
<title>deduct_shares&#45;&gt;shares</title>
<path fill="none" stroke="black" d="M181.05,-72.05C175.95,-63.94 169.72,-54.04 164.04,-45.01"/>
<polygon fill="black" stroke="black" points="167.04,-43.19 158.75,-36.59 161.11,-46.92 167.04,-43.19"/>
</g>
<!-- redeem_shares -->
<g id="node4" class="node">
<title>redeem_shares</title>
<ellipse fill="none" stroke="black" cx="118.7" cy="-162" rx="63.89" ry="18"/>
<text text-anchor="middle" x="118.7" y="-158.3" font-family="Times,serif" font-size="14.00">redeem_shares</text>
</g>
<!-- redeem_shares&#45;&gt;shares -->
<g id="edge3" class="edge">
<title>redeem_shares&#45;&gt;shares</title>
<path fill="none" stroke="black" d="M117.48,-143.65C116.67,-125.5 116.67,-96.32 122.7,-72 124.91,-63.07 128.67,-53.84 132.62,-45.64"/>
<polygon fill="black" stroke="black" points="135.66,-47.39 137.11,-36.9 129.43,-44.19 135.66,-47.39"/>
</g>
<!-- redeem_shares&#45;&gt;deduct_shares -->
<g id="edge5" class="edge">
<title>redeem_shares&#45;&gt;deduct_shares</title>
<path fill="none" stroke="black" d="M136,-144.41C145.02,-135.76 156.24,-125 166.23,-115.42"/>
<polygon fill="black" stroke="black" points="168.38,-118.21 173.18,-108.76 163.54,-113.16 168.38,-118.21"/>
</g>
<!-- transfer_shares -->
<g id="node5" class="node">
<title>transfer_shares</title>
<ellipse fill="none" stroke="black" cx="271.7" cy="-162" rx="63.89" ry="18"/>
<text text-anchor="middle" x="271.7" y="-158.3" font-family="Times,serif" font-size="14.00">transfer_shares</text>
</g>
<!-- transfer_shares&#45;&gt;shares -->
<g id="edge4" class="edge">
<title>transfer_shares&#45;&gt;shares</title>
<path fill="none" stroke="black" d="M274.17,-143.84C275.99,-124.51 275.96,-93.05 260.7,-72 243.76,-48.65 213.88,-35.26 189.1,-27.77"/>
<polygon fill="black" stroke="black" points="190.17,-24.44 179.6,-25.14 188.3,-31.18 190.17,-24.44"/>
</g>
<!-- transfer_shares&#45;&gt;deduct_shares -->
<g id="edge6" class="edge">
<title>transfer_shares&#45;&gt;deduct_shares</title>
<path fill="none" stroke="black" d="M252.74,-144.41C242.68,-135.61 230.13,-124.63 219.03,-114.92"/>
<polygon fill="black" stroke="black" points="221.49,-112.42 211.66,-108.47 216.88,-117.69 221.49,-112.42"/>
</g>
</g>
</svg>
