<?xml version="1.0" encoding="UTF-8" standalone="no"?>
<!DOCTYPE svg PUBLIC "-//W3C//DTD SVG 1.1//EN"
 "http://www.w3.org/Graphics/SVG/1.1/DTD/svg11.dtd">
<!-- Generated by graphviz version 7.0.4 (20221203.1631)
 -->
<!-- Title: G Pages: 1 -->
<svg width="280pt" height="116pt"
 viewBox="0.00 0.00 280.39 116.00" xmlns="http://www.w3.org/2000/svg" xmlns:xlink="http://www.w3.org/1999/xlink">
<g id="graph0" class="graph" transform="scale(1 1) rotate(0) translate(4 112)">
<title>G</title>
<polygon fill="white" stroke="none" points="-4,4 -4,-112 276.39,-112 276.39,4 -4,4"/>
<!-- deduct_shares -->
<g id="node1" class="node">
<title>deduct_shares</title>
<ellipse fill="none" stroke="black" cx="135.69" cy="-18" rx="60.39" ry="18"/>
<text text-anchor="middle" x="135.69" y="-14.3" font-family="Times,serif" font-size="14.00">deduct_shares</text>
</g>
<!-- redeem_shares -->
<g id="node2" class="node">
<title>redeem_shares</title>
<ellipse fill="none" stroke="black" cx="63.69" cy="-90" rx="63.89" ry="18"/>
<text text-anchor="middle" x="63.69" y="-86.3" font-family="Times,serif" font-size="14.00">redeem_shares</text>
</g>
<!-- redeem_shares&#45;&gt;deduct_shares -->
<g id="edge1" class="edge">
<title>redeem_shares&#45;&gt;deduct_shares</title>
<path fill="none" stroke="black" d="M80.76,-72.41C89.72,-63.69 100.88,-52.85 110.8,-43.21"/>
<polygon fill="black" stroke="black" points="112.94,-46.01 117.67,-36.53 108.06,-40.99 112.94,-46.01"/>
</g>
<!-- transfer_shares -->
<g id="node3" class="node">
<title>transfer_shares</title>
<ellipse fill="none" stroke="black" cx="208.69" cy="-90" rx="63.89" ry="18"/>
<text text-anchor="middle" x="208.69" y="-86.3" font-family="Times,serif" font-size="14.00">transfer_shares</text>
</g>
<!-- transfer_shares&#45;&gt;deduct_shares -->
<g id="edge2" class="edge">
<title>transfer_shares&#45;&gt;deduct_shares</title>
<path fill="none" stroke="black" d="M191.39,-72.41C182.37,-63.76 171.15,-53 161.16,-43.42"/>
<polygon fill="black" stroke="black" points="163.86,-41.16 154.22,-36.76 159.01,-46.21 163.86,-41.16"/>
</g>
</g>
</svg>
