<?xml version="1.0" encoding="UTF-8" standalone="no"?>
<!DOCTYPE svg PUBLIC "-//W3C//DTD SVG 1.1//EN"
 "http://www.w3.org/Graphics/SVG/1.1/DTD/svg11.dtd">
<!-- Generated by graphviz version 7.0.4 (20221203.1631)
 -->
<!-- Title: G Pages: 1 -->
<svg width="1257pt" height="664pt"
 viewBox="0.00 0.00 1256.79 664.00" xmlns="http://www.w3.org/2000/svg" xmlns:xlink="http://www.w3.org/1999/xlink">
<g id="graph0" class="graph" transform="scale(1 1) rotate(0) translate(4 660)">
<title>G</title>
<polygon fill="white" stroke="none" points="-4,4 -4,-660 1252.79,-660 1252.79,4 -4,4"/>
<g id="clust1" class="cluster">
<title>cluster_error</title>
<polygon fill="none" stroke="black" points="895,-163 895,-321 1057,-321 1057,-163 895,-163"/>
<text text-anchor="middle" x="976" y="-305.8" font-family="Times,serif" font-size="14.00">error</text>
</g>
<g id="clust2" class="cluster">
<title>cluster_simple_map</title>
<polygon fill="none" stroke="black" points="445,-246 445,-396 887,-396 887,-246 445,-246"/>
<text text-anchor="middle" x="666" y="-380.8" font-family="Times,serif" font-size="14.00">simple_map</text>
</g>
<g id="clust3" class="cluster">
<title>cluster_vector</title>
<polygon fill="none" stroke="black" points="8,-8 8,-155 443,-155 443,-8 8,-8"/>
<text text-anchor="middle" x="225.5" y="-139.8" font-family="Times,serif" font-size="14.00">vector</text>
</g>
<g id="clust4" class="cluster">
<title>cluster_option</title>
<polygon fill="none" stroke="black" points="451,-80 451,-238 687,-238 687,-80 451,-80"/>
<text text-anchor="middle" x="569" y="-222.8" font-family="Times,serif" font-size="14.00">option</text>
</g>
<!-- redeem_shares -->
<g id="node1" class="node">
<title>redeem_shares</title>
<ellipse fill="none" stroke="black" cx="886" cy="-638" rx="63.89" ry="18"/>
<text text-anchor="middle" x="886" y="-634.3" font-family="Times,serif" font-size="14.00">redeem_shares</text>
</g>
<!-- error::invalid_argument -->
<g id="node2" class="node">
<title>error::invalid_argument</title>
<ellipse fill="none" stroke="black" cx="976" cy="-272" rx="73.39" ry="18"/>
<text text-anchor="middle" x="976" y="-268.3" font-family="Times,serif" font-size="14.00">invalid_argument</text>
</g>
<!-- redeem_shares&#45;&gt;error::invalid_argument -->
<g id="edge1" class="edge">
<title>redeem_shares&#45;&gt;error::invalid_argument</title>
<path fill="none" stroke="black" d="M898.22,-620.02C915.51,-594.3 945,-543.32 945,-495 945,-495 945,-495 945,-421 945,-378.36 957.48,-330.24 966.6,-300.77"/>
<polygon fill="black" stroke="black" points="969.85,-302.11 969.56,-291.51 963.18,-299.97 969.85,-302.11"/>
</g>
<!-- contains -->
<g id="node3" class="node">
<title>contains</title>
<ellipse fill="none" stroke="black" cx="796" cy="-422" rx="40.09" ry="18"/>
<text text-anchor="middle" x="796" y="-418.3" font-family="Times,serif" font-size="14.00">contains</text>
</g>
<!-- redeem_shares&#45;&gt;contains -->
<g id="edge2" class="edge">
<title>redeem_shares&#45;&gt;contains</title>
<path fill="none" stroke="black" d="M888.19,-619.65C891.25,-588.57 893.73,-522.31 867,-476 858.91,-461.99 845.48,-450.54 832.47,-441.92"/>
<polygon fill="black" stroke="black" points="834.33,-438.95 823.98,-436.68 830.65,-444.91 834.33,-438.95"/>
</g>
<!-- deduct_shares -->
<g id="node4" class="node">
<title>deduct_shares</title>
<ellipse fill="none" stroke="black" cx="675" cy="-566" rx="60.39" ry="18"/>
<text text-anchor="middle" x="675" y="-562.3" font-family="Times,serif" font-size="14.00">deduct_shares</text>
</g>
<!-- redeem_shares&#45;&gt;deduct_shares -->
<g id="edge3" class="edge">
<title>redeem_shares&#45;&gt;deduct_shares</title>
<path fill="none" stroke="black" d="M845.82,-623.67C811.43,-612.26 761.77,-595.79 724.85,-583.54"/>
<polygon fill="black" stroke="black" points="726.35,-580.35 715.76,-580.52 724.15,-586.99 726.35,-580.35"/>
</g>
<!-- shares -->
<g id="node5" class="node">
<title>shares</title>
<ellipse fill="none" stroke="black" cx="826" cy="-494" rx="32.49" ry="18"/>
<text text-anchor="middle" x="826" y="-490.3" font-family="Times,serif" font-size="14.00">shares</text>
</g>
<!-- redeem_shares&#45;&gt;shares -->
<g id="edge4" class="edge">
<title>redeem_shares&#45;&gt;shares</title>
<path fill="none" stroke="black" d="M878.76,-619.87C868.53,-595.65 849.71,-551.12 837.54,-522.31"/>
<polygon fill="black" stroke="black" points="840.78,-520.99 833.67,-513.14 834.33,-523.72 840.78,-520.99"/>
</g>
<!-- shares_to_amount -->
<g id="node6" class="node">
<title>shares_to_amount</title>
<ellipse fill="none" stroke="black" cx="1079" cy="-566" rx="75.29" ry="18"/>
<text text-anchor="middle" x="1079" y="-562.3" font-family="Times,serif" font-size="14.00">shares_to_amount</text>
</g>
<!-- redeem_shares&#45;&gt;shares_to_amount -->
<g id="edge5" class="edge">
<title>redeem_shares&#45;&gt;shares_to_amount</title>
<path fill="none" stroke="black" d="M924.13,-623.17C953.84,-612.4 995.37,-597.33 1027.95,-585.52"/>
<polygon fill="black" stroke="black" points="1028.99,-588.86 1037.2,-582.16 1026.6,-582.28 1028.99,-588.86"/>
</g>
<!-- error::canonical -->
<g id="node7" class="node">
<title>error::canonical</title>
<ellipse fill="none" stroke="black" cx="976" cy="-189" rx="44.39" ry="18"/>
<text text-anchor="middle" x="976" y="-185.3" font-family="Times,serif" font-size="14.00">canonical</text>
</g>
<!-- error::invalid_argument&#45;&gt;error::canonical -->
<g id="edge6" class="edge">
<title>error::invalid_argument&#45;&gt;error::canonical</title>
<path fill="none" stroke="black" d="M976,-253.82C976,-243.69 976,-230.6 976,-218.92"/>
<polygon fill="black" stroke="black" points="979.5,-218.95 976,-208.95 972.5,-218.95 979.5,-218.95"/>
</g>
<!-- simple_map::contains_key -->
<g id="node8" class="node">
<title>simple_map::contains_key</title>
<ellipse fill="none" stroke="black" cx="731" cy="-347" rx="57.39" ry="18"/>
<text text-anchor="middle" x="731" y="-343.3" font-family="Times,serif" font-size="14.00">contains_key</text>
</g>
<!-- contains&#45;&gt;simple_map::contains_key -->
<g id="edge7" class="edge">
<title>contains&#45;&gt;simple_map::contains_key</title>
<path fill="none" stroke="black" d="M781.57,-404.8C773.28,-395.48 762.67,-383.57 753.32,-373.07"/>
<polygon fill="black" stroke="black" points="756.11,-370.93 746.84,-365.79 750.88,-375.59 756.11,-370.93"/>
</g>
<!-- deduct_shares&#45;&gt;error::invalid_argument -->
<g id="edge10" class="edge">
<title>deduct_shares&#45;&gt;error::invalid_argument</title>
<path fill="none" stroke="black" d="M676.94,-547.7C681.79,-513.55 697.82,-437.86 747,-404 773.4,-385.83 863.58,-412.59 891,-396 920.67,-378.05 911.2,-357.47 931,-329 938.16,-318.71 946.63,-307.87 954.28,-298.49"/>
<polygon fill="black" stroke="black" points="956.93,-300.78 960.62,-290.85 951.54,-296.32 956.93,-300.78"/>
</g>
<!-- deduct_shares&#45;&gt;contains -->
<g id="edge13" class="edge">
<title>deduct_shares&#45;&gt;contains</title>
<path fill="none" stroke="black" d="M699.07,-549.17C712.68,-539.48 729.43,-526.23 742,-512 758.6,-493.2 773.07,-468.63 782.84,-450.07"/>
<polygon fill="black" stroke="black" points="785.91,-451.77 787.34,-441.28 779.67,-448.58 785.91,-451.77"/>
</g>
<!-- deduct_shares&#45;&gt;shares -->
<g id="edge14" class="edge">
<title>deduct_shares&#45;&gt;shares</title>
<path fill="none" stroke="black" d="M706.65,-550.33C731.47,-538.82 765.97,-522.83 791.49,-511"/>
<polygon fill="black" stroke="black" points="792.85,-514.22 800.46,-506.84 789.91,-507.87 792.85,-514.22"/>
</g>
<!-- vector::index_of -->
<g id="node9" class="node">
<title>vector::index_of</title>
<ellipse fill="none" stroke="black" cx="58" cy="-106" rx="42.49" ry="18"/>
<text text-anchor="middle" x="58" y="-102.3" font-family="Times,serif" font-size="14.00">index_of</text>
</g>
<!-- deduct_shares&#45;&gt;vector::index_of -->
<g id="edge8" class="edge">
<title>deduct_shares&#45;&gt;vector::index_of</title>
<path fill="none" stroke="black" d="M615.39,-562.54C470.75,-554.94 113,-525.77 113,-423 113,-423 113,-423 113,-271 113,-220.28 89.06,-165.09 72.77,-133.42"/>
<polygon fill="black" stroke="black" points="76.06,-132.16 68.29,-124.95 69.87,-135.43 76.06,-132.16"/>
</g>
<!-- vector::remove -->
<g id="node10" class="node">
<title>vector::remove</title>
<ellipse fill="none" stroke="black" cx="156" cy="-106" rx="37.89" ry="18"/>
<text text-anchor="middle" x="156" y="-102.3" font-family="Times,serif" font-size="14.00">remove</text>
</g>
<!-- deduct_shares&#45;&gt;vector::remove -->
<g id="edge9" class="edge">
<title>deduct_shares&#45;&gt;vector::remove</title>
<path fill="none" stroke="black" d="M620.19,-558.01C507.23,-542.07 259,-498.46 259,-423 259,-423 259,-423 259,-271 259,-240.31 206.64,-170.01 176.58,-132.19"/>
<polygon fill="black" stroke="black" points="179.4,-130.11 170.41,-124.5 173.94,-134.49 179.4,-130.11"/>
</g>
<!-- simple_map::borrow_mut -->
<g id="node11" class="node">
<title>simple_map::borrow_mut</title>
<ellipse fill="none" stroke="black" cx="601" cy="-347" rx="54.69" ry="18"/>
<text text-anchor="middle" x="601" y="-343.3" font-family="Times,serif" font-size="14.00">borrow_mut</text>
</g>
<!-- deduct_shares&#45;&gt;simple_map::borrow_mut -->
<g id="edge11" class="edge">
<title>deduct_shares&#45;&gt;simple_map::borrow_mut</title>
<path fill="none" stroke="black" d="M669.07,-547.61C656.29,-510.14 626.07,-421.51 610.55,-376.01"/>
<polygon fill="black" stroke="black" points="613.89,-374.94 607.34,-366.61 607.26,-377.2 613.89,-374.94"/>
</g>
<!-- simple_map::remove -->
<g id="node12" class="node">
<title>simple_map::remove</title>
<ellipse fill="none" stroke="black" cx="491" cy="-347" rx="37.89" ry="18"/>
<text text-anchor="middle" x="491" y="-343.3" font-family="Times,serif" font-size="14.00">remove</text>
</g>
<!-- deduct_shares&#45;&gt;simple_map::remove -->
<g id="edge12" class="edge">
<title>deduct_shares&#45;&gt;simple_map::remove</title>
<path fill="none" stroke="black" d="M660.87,-548.33C628.73,-510.44 550.05,-417.64 512.12,-372.91"/>
<polygon fill="black" stroke="black" points="514.79,-370.65 505.66,-365.29 509.46,-375.18 514.79,-370.65"/>
</g>
<!-- shares&#45;&gt;contains -->
<g id="edge16" class="edge">
<title>shares&#45;&gt;contains</title>
<path fill="none" stroke="black" d="M818.74,-476.05C815.42,-468.32 811.41,-458.96 807.69,-450.27"/>
<polygon fill="black" stroke="black" points="810.95,-448.99 803.79,-441.18 804.51,-451.75 810.95,-448.99"/>
</g>
<!-- simple_map::borrow -->
<g id="node13" class="node">
<title>simple_map::borrow</title>
<ellipse fill="none" stroke="black" cx="843" cy="-347" rx="36.29" ry="18"/>
<text text-anchor="middle" x="843" y="-343.3" font-family="Times,serif" font-size="14.00">borrow</text>
</g>
<!-- shares&#45;&gt;simple_map::borrow -->
<g id="edge15" class="edge">
<title>shares&#45;&gt;simple_map::borrow</title>
<path fill="none" stroke="black" d="M833.7,-476.22C837.96,-465.99 842.82,-452.52 845,-440 848.64,-419.05 847.96,-395.02 846.46,-376.78"/>
<polygon fill="black" stroke="black" points="849.96,-376.57 845.51,-366.95 842.99,-377.24 849.96,-376.57"/>
</g>
<!-- shares_to_amount_with_total_coins -->
<g id="node14" class="node">
<title>shares_to_amount_with_total_coins</title>
<ellipse fill="none" stroke="black" cx="1111" cy="-494" rx="137.58" ry="18"/>
<text text-anchor="middle" x="1111" y="-490.3" font-family="Times,serif" font-size="14.00">shares_to_amount_with_total_coins</text>
</g>
<!-- shares_to_amount&#45;&gt;shares_to_amount_with_total_coins -->
<g id="edge17" class="edge">
<title>shares_to_amount&#45;&gt;shares_to_amount_with_total_coins</title>
<path fill="none" stroke="black" d="M1086.91,-547.7C1090.4,-540.07 1094.58,-530.92 1098.48,-522.4"/>
<polygon fill="black" stroke="black" points="1101.58,-524.03 1102.55,-513.48 1095.21,-521.12 1101.58,-524.03"/>
</g>
<!-- option::is_some -->
<g id="node15" class="node">
<title>option::is_some</title>
<ellipse fill="none" stroke="black" cx="639" cy="-106" rx="40.09" ry="18"/>
<text text-anchor="middle" x="639" y="-102.3" font-family="Times,serif" font-size="14.00">is_some</text>
</g>
<!-- simple_map::contains_key&#45;&gt;option::is_some -->
<g id="edge18" class="edge">
<title>simple_map::contains_key&#45;&gt;option::is_some</title>
<path fill="none" stroke="black" d="M745.11,-329.28C746.7,-326.65 748.08,-323.85 749,-321 770.56,-254.17 785.7,-222.87 749,-163 735.13,-140.37 708.92,-126.53 685.57,-118.27"/>
<polygon fill="black" stroke="black" points="686.78,-114.98 676.19,-115.22 684.62,-121.64 686.78,-114.98"/>
</g>
<!-- simple_map::find -->
<g id="node16" class="node">
<title>simple_map::find</title>
<ellipse fill="none" stroke="black" cx="558" cy="-272" rx="27" ry="18"/>
<text text-anchor="middle" x="558" y="-268.3" font-family="Times,serif" font-size="14.00">find</text>
</g>
<!-- simple_map::contains_key&#45;&gt;simple_map::find -->
<g id="edge19" class="edge">
<title>simple_map::contains_key&#45;&gt;simple_map::find</title>
<path fill="none" stroke="black" d="M697.64,-331.92C666.95,-318.97 621.68,-299.87 591.07,-286.96"/>
<polygon fill="black" stroke="black" points="592.49,-283.75 581.91,-283.09 589.76,-290.2 592.49,-283.75"/>
</g>
<!-- simple_map::borrow_mut&#45;&gt;error::invalid_argument -->
<g id="edge20" class="edge">
<title>simple_map::borrow_mut&#45;&gt;error::invalid_argument</title>
<path fill="none" stroke="black" d="M640.31,-334.08C648.41,-332.04 656.93,-330.2 665,-329 714.71,-321.61 842.63,-334.63 891,-321 909.87,-315.68 929.04,-305.37 944.38,-295.66"/>
<polygon fill="black" stroke="black" points="946.17,-298.68 952.61,-290.26 942.33,-292.83 946.17,-298.68"/>
</g>
<!-- simple_map::borrow_mut&#45;&gt;option::is_some -->
<g id="edge22" class="edge">
<title>simple_map::borrow_mut&#45;&gt;option::is_some</title>
<path fill="none" stroke="black" d="M641.46,-334.48C649.23,-332.49 657.34,-330.56 665,-329 677.32,-326.49 712.76,-330.5 721,-321 767.01,-267.95 753.79,-225.1 721,-163 711.87,-145.7 694.72,-132.74 678.46,-123.67"/>
<polygon fill="black" stroke="black" points="680.37,-120.71 669.88,-119.21 677.14,-126.92 680.37,-120.71"/>
</g>
<!-- simple_map::borrow_mut&#45;&gt;simple_map::find -->
<g id="edge23" class="edge">
<title>simple_map::borrow_mut&#45;&gt;simple_map::find</title>
<path fill="none" stroke="black" d="M591.03,-329.07C585.76,-320.13 579.18,-308.96 573.29,-298.96"/>
<polygon fill="black" stroke="black" points="576.34,-297.23 568.24,-290.39 570.3,-300.78 576.34,-297.23"/>
</g>
<!-- option::extract -->
<g id="node17" class="node">
<title>option::extract</title>
<ellipse fill="none" stroke="black" cx="645" cy="-189" rx="34.39" ry="18"/>
<text text-anchor="middle" x="645" y="-185.3" font-family="Times,serif" font-size="14.00">extract</text>
</g>
<!-- simple_map::borrow_mut&#45;&gt;option::extract -->
<g id="edge21" class="edge">
<title>simple_map::borrow_mut&#45;&gt;option::extract</title>
<path fill="none" stroke="black" d="M620.9,-329.79C623.27,-327.08 625.41,-324.13 627,-321 643.51,-288.56 646.47,-246.06 646.34,-218.4"/>
<polygon fill="black" stroke="black" points="649.84,-218.62 646.14,-208.69 642.84,-218.76 649.84,-218.62"/>
</g>
<!-- simple_map::remove&#45;&gt;error::invalid_argument -->
<g id="edge25" class="edge">
<title>simple_map::remove&#45;&gt;error::invalid_argument</title>
<path fill="none" stroke="black" d="M518.31,-334.23C524.36,-332.1 530.81,-330.18 537,-329 575.65,-321.64 853.06,-331.43 891,-321 909.9,-315.8 929.07,-305.5 944.41,-295.77"/>
<polygon fill="black" stroke="black" points="946.21,-298.78 952.64,-290.35 942.36,-292.93 946.21,-298.78"/>
</g>
<!-- simple_map::remove&#45;&gt;option::is_some -->
<g id="edge27" class="edge">
<title>simple_map::remove&#45;&gt;option::is_some</title>
<path fill="none" stroke="black" d="M518.87,-334.38C524.77,-332.3 531.02,-330.36 537,-329 555.72,-324.75 606.15,-330.2 623,-321 664.13,-298.55 672.72,-282.29 688,-238 698.87,-206.49 699.72,-194.2 688,-163 683.37,-150.69 674.67,-139.31 665.88,-130.07"/>
<polygon fill="black" stroke="black" points="668.55,-127.79 658.96,-123.28 663.64,-132.78 668.55,-127.79"/>
</g>
<!-- simple_map::remove&#45;&gt;simple_map::find -->
<g id="edge28" class="edge">
<title>simple_map::remove&#45;&gt;simple_map::find</title>
<path fill="none" stroke="black" d="M505.54,-330.16C514.65,-320.23 526.55,-307.27 536.71,-296.19"/>
<polygon fill="black" stroke="black" points="539.2,-298.66 543.38,-288.93 534.04,-293.93 539.2,-298.66"/>
</g>
<!-- simple_map::remove&#45;&gt;option::extract -->
<g id="edge26" class="edge">
<title>simple_map::remove&#45;&gt;option::extract</title>
<path fill="none" stroke="black" d="M518.92,-334.6C524.82,-332.5 531.06,-330.5 537,-329 561.81,-322.75 573.94,-336.88 594,-321 602.48,-314.29 623.65,-254.12 635.88,-217.71"/>
<polygon fill="black" stroke="black" points="639.05,-219.28 638.89,-208.69 632.41,-217.07 639.05,-219.28"/>
</g>
<!-- vector::swap_remove -->
<g id="node18" class="node">
<title>vector::swap_remove</title>
<ellipse fill="none" stroke="black" cx="271" cy="-106" rx="59.59" ry="18"/>
<text text-anchor="middle" x="271" y="-102.3" font-family="Times,serif" font-size="14.00">swap_remove</text>
</g>
<!-- simple_map::remove&#45;&gt;vector::swap_remove -->
<g id="edge24" class="edge">
<title>simple_map::remove&#45;&gt;vector::swap_remove</title>
<path fill="none" stroke="black" d="M476.22,-329.95C438.6,-289.07 338.96,-180.83 293.81,-131.78"/>
<polygon fill="black" stroke="black" points="296.67,-129.72 287.32,-124.73 291.52,-134.46 296.67,-129.72"/>
</g>
<!-- simple_map::borrow&#45;&gt;error::invalid_argument -->
<g id="edge29" class="edge">
<title>simple_map::borrow&#45;&gt;error::invalid_argument</title>
<path fill="none" stroke="black" d="M867.5,-333.44C875.07,-329.51 883.4,-325.12 891,-321 906.61,-312.53 923.69,-302.95 938.41,-294.59"/>
<polygon fill="black" stroke="black" points="939.91,-297.76 946.87,-289.77 936.45,-291.68 939.91,-297.76"/>
</g>
<!-- simple_map::borrow&#45;&gt;option::is_some -->
<g id="edge31" class="edge">
<title>simple_map::borrow&#45;&gt;option::is_some</title>
<path fill="none" stroke="black" d="M841.07,-328.71C836.22,-293.1 820.4,-210.94 774,-163 750.63,-138.86 715.32,-124.71 686.67,-116.67"/>
<polygon fill="black" stroke="black" points="687.68,-113.32 677.12,-114.17 685.9,-120.09 687.68,-113.32"/>
</g>
<!-- simple_map::borrow&#45;&gt;simple_map::find -->
<g id="edge32" class="edge">
<title>simple_map::borrow&#45;&gt;simple_map::find</title>
<path fill="none" stroke="black" d="M815.46,-335.19C809.42,-333 803.03,-330.81 797,-329 759.3,-317.66 651.51,-293.52 594.46,-280.96"/>
<polygon fill="black" stroke="black" points="595.42,-277.59 584.9,-278.86 593.92,-284.43 595.42,-277.59"/>
</g>
<!-- simple_map::borrow&#45;&gt;option::extract -->
<g id="edge30" class="edge">
<title>simple_map::borrow&#45;&gt;option::extract</title>
<path fill="none" stroke="black" d="M824.37,-331.32C789.27,-303.67 713.2,-243.74 672.31,-211.52"/>
<polygon fill="black" stroke="black" points="674.64,-208.9 664.62,-205.46 670.31,-214.4 674.64,-208.9"/>
</g>
<!-- multiply_then_divide -->
<g id="node19" class="node">
<title>multiply_then_divide</title>
<ellipse fill="none" stroke="black" cx="1111" cy="-422" rx="87.18" ry="18"/>
<text text-anchor="middle" x="1111" y="-418.3" font-family="Times,serif" font-size="14.00">multiply_then_divide</text>
</g>
<!-- shares_to_amount_with_total_coins&#45;&gt;multiply_then_divide -->
<g id="edge33" class="edge">
<title>shares_to_amount_with_total_coins&#45;&gt;multiply_then_divide</title>
<path fill="none" stroke="black" d="M1111,-475.7C1111,-468.41 1111,-459.73 1111,-451.54"/>
<polygon fill="black" stroke="black" points="1114.5,-451.62 1111,-441.62 1107.5,-451.62 1114.5,-451.62"/>
</g>
<!-- vector::is_empty -->
<g id="node20" class="node">
<title>vector::is_empty</title>
<ellipse fill="none" stroke="black" cx="331" cy="-34" rx="43.59" ry="18"/>
<text text-anchor="middle" x="331" y="-30.3" font-family="Times,serif" font-size="14.00">is_empty</text>
</g>
<!-- option::is_some&#45;&gt;vector::is_empty -->
<g id="edge34" class="edge">
<title>option::is_some&#45;&gt;vector::is_empty</title>
<path fill="none" stroke="black" d="M603.67,-96.97C548.48,-84.43 441.71,-60.16 379.4,-46"/>
<polygon fill="black" stroke="black" points="380.31,-42.62 369.79,-43.82 378.76,-49.44 380.31,-42.62"/>
</g>
<!-- option::none -->
<g id="node21" class="node">
<title>option::none</title>
<ellipse fill="none" stroke="black" cx="487" cy="-189" rx="27.9" ry="18"/>
<text text-anchor="middle" x="487" y="-185.3" font-family="Times,serif" font-size="14.00">none</text>
</g>
<!-- simple_map::find&#45;&gt;option::none -->
<g id="edge35" class="edge">
<title>simple_map::find&#45;&gt;option::none</title>
<path fill="none" stroke="black" d="M542.64,-256.99C536.63,-251.28 529.81,-244.51 524,-238 517.5,-230.71 510.85,-222.4 505.01,-214.76"/>
<polygon fill="black" stroke="black" points="507.83,-212.69 499.03,-206.79 502.23,-216.89 507.83,-212.69"/>
</g>
<!-- option::some -->
<g id="node22" class="node">
<title>option::some</title>
<ellipse fill="none" stroke="black" cx="563" cy="-189" rx="29.8" ry="18"/>
<text text-anchor="middle" x="563" y="-185.3" font-family="Times,serif" font-size="14.00">some</text>
</g>
<!-- simple_map::find&#45;&gt;option::some -->
<g id="edge36" class="edge">
<title>simple_map::find&#45;&gt;option::some</title>
<path fill="none" stroke="black" d="M559.06,-253.82C559.69,-243.69 560.49,-230.6 561.21,-218.92"/>
<polygon fill="black" stroke="black" points="564.71,-219.14 561.83,-208.94 557.72,-218.71 564.71,-219.14"/>
</g>
<!-- option::extract&#45;&gt;option::is_some -->
<g id="edge37" class="edge">
<title>option::extract&#45;&gt;option::is_some</title>
<path fill="none" stroke="black" d="M643.73,-170.82C642.97,-160.58 641.99,-147.33 641.11,-135.55"/>
<polygon fill="black" stroke="black" points="644.63,-135.66 640.4,-125.94 637.65,-136.17 644.63,-135.66"/>
</g>
<!-- vector::swap_remove&#45;&gt;vector::is_empty -->
<g id="edge38" class="edge">
<title>vector::swap_remove&#45;&gt;vector::is_empty</title>
<path fill="none" stroke="black" d="M285.52,-88.05C292.78,-79.59 301.69,-69.19 309.7,-59.84"/>
<polygon fill="black" stroke="black" points="312.19,-62.33 316.04,-52.46 306.87,-57.77 312.19,-62.33"/>
</g>
<!-- to_u128 -->
<g id="node23" class="node">
<title>to_u128</title>
<ellipse fill="none" stroke="black" cx="1111" cy="-347" rx="39.79" ry="18"/>
<text text-anchor="middle" x="1111" y="-343.3" font-family="Times,serif" font-size="14.00">to_u128</text>
</g>
<!-- multiply_then_divide&#45;&gt;to_u128 -->
<g id="edge39" class="edge">
<title>multiply_then_divide&#45;&gt;to_u128</title>
<path fill="none" stroke="black" d="M1111,-403.7C1111,-395.67 1111,-385.9 1111,-376.8"/>
<polygon fill="black" stroke="black" points="1114.5,-376.94 1111,-366.94 1107.5,-376.94 1114.5,-376.94"/>
</g>
<!-- vector::singleton -->
<g id="node24" class="node">
<title>vector::singleton</title>
<ellipse fill="none" stroke="black" cx="392" cy="-106" rx="42.79" ry="18"/>
<text text-anchor="middle" x="392" y="-102.3" font-family="Times,serif" font-size="14.00">singleton</text>
</g>
<!-- option::some&#45;&gt;vector::singleton -->
<g id="edge40" class="edge">
<title>option::some&#45;&gt;vector::singleton</title>
<path fill="none" stroke="black" d="M545.27,-174.16C538.9,-169.88 531.44,-165.6 524,-163 491.53,-151.63 478.55,-168.73 447,-155 434.54,-149.58 422.88,-140.28 413.52,-131.31"/>
<polygon fill="black" stroke="black" points="416.19,-129.03 406.68,-124.35 411.2,-133.94 416.19,-129.03"/>
</g>
</g>
</svg>
