<?xml version="1.0" encoding="UTF-8" standalone="no"?>
<!DOCTYPE svg PUBLIC "-//W3C//DTD SVG 1.1//EN"
 "http://www.w3.org/Graphics/SVG/1.1/DTD/svg11.dtd">
<!-- Generated by graphviz version 7.0.4 (20221203.1631)
 -->
<!-- Title: G Pages: 1 -->
<svg width="711pt" height="520pt"
 viewBox="0.00 0.00 710.85 520.00" xmlns="http://www.w3.org/2000/svg" xmlns:xlink="http://www.w3.org/1999/xlink">
<g id="graph0" class="graph" transform="scale(1 1) rotate(0) translate(4 516)">
<title>G</title>
<polygon fill="white" stroke="none" points="-4,4 -4,-516 706.85,-516 706.85,4 -4,4"/>
<g id="clust1" class="cluster">
<title>cluster_error</title>
<polygon fill="none" stroke="black" points="8,-163 8,-321 300,-321 300,-163 8,-163"/>
<text text-anchor="middle" x="154" y="-305.8" font-family="Times,serif" font-size="14.00">error</text>
</g>
<g id="clust2" class="cluster">
<title>cluster_simple_map</title>
<polygon fill="none" stroke="black" points="308,-246 308,-396 638,-396 638,-246 308,-246"/>
<text text-anchor="middle" x="473" y="-380.8" font-family="Times,serif" font-size="14.00">simple_map</text>
</g>
<g id="clust3" class="cluster">
<title>cluster_option</title>
<polygon fill="none" stroke="black" points="308,-91 308,-238 639,-238 639,-91 308,-91"/>
<text text-anchor="middle" x="473.5" y="-222.8" font-family="Times,serif" font-size="14.00">option</text>
</g>
<g id="clust4" class="cluster">
<title>cluster_vector</title>
<polygon fill="none" stroke="black" points="351,-8 351,-83 558,-83 558,-8 351,-8"/>
<text text-anchor="middle" x="454.5" y="-67.8" font-family="Times,serif" font-size="14.00">vector</text>
</g>
<!-- add_shares -->
<g id="node1" class="node">
<title>add_shares</title>
<ellipse fill="none" stroke="black" cx="343" cy="-494" rx="50.09" ry="18"/>
<text text-anchor="middle" x="343" y="-490.3" font-family="Times,serif" font-size="14.00">add_shares</text>
</g>
<!-- error::invalid_argument -->
<g id="node2" class="node">
<title>error::invalid_argument</title>
<ellipse fill="none" stroke="black" cx="219" cy="-272" rx="73.39" ry="18"/>
<text text-anchor="middle" x="219" y="-268.3" font-family="Times,serif" font-size="14.00">invalid_argument</text>
</g>
<!-- add_shares&#45;&gt;error::invalid_argument -->
<g id="edge1" class="edge">
<title>add_shares&#45;&gt;error::invalid_argument</title>
<path fill="none" stroke="black" d="M333.48,-476.1C312.11,-438.2 260.23,-346.15 234.29,-300.13"/>
<polygon fill="black" stroke="black" points="237.43,-298.57 229.47,-291.58 231.33,-302.01 237.43,-298.57"/>
</g>
<!-- error::invalid_state -->
<g id="node3" class="node">
<title>error::invalid_state</title>
<ellipse fill="none" stroke="black" cx="72" cy="-272" rx="55.79" ry="18"/>
<text text-anchor="middle" x="72" y="-268.3" font-family="Times,serif" font-size="14.00">invalid_state</text>
</g>
<!-- add_shares&#45;&gt;error::invalid_state -->
<g id="edge2" class="edge">
<title>add_shares&#45;&gt;error::invalid_state</title>
<path fill="none" stroke="black" d="M323.51,-477.18C276.38,-438.91 156.03,-341.22 100.66,-296.27"/>
<polygon fill="black" stroke="black" points="103.19,-293.81 93.22,-290.23 98.78,-299.25 103.19,-293.81"/>
</g>
<!-- simple_map::borrow_mut -->
<g id="node4" class="node">
<title>simple_map::borrow_mut</title>
<ellipse fill="none" stroke="black" cx="443" cy="-347" rx="54.69" ry="18"/>
<text text-anchor="middle" x="443" y="-343.3" font-family="Times,serif" font-size="14.00">borrow_mut</text>
</g>
<!-- add_shares&#45;&gt;simple_map::borrow_mut -->
<g id="edge3" class="edge">
<title>add_shares&#45;&gt;simple_map::borrow_mut</title>
<path fill="none" stroke="black" d="M354.67,-476.08C371.98,-450.98 404.61,-403.66 425,-374.1"/>
<polygon fill="black" stroke="black" points="427.75,-376.27 430.55,-366.06 421.99,-372.3 427.75,-376.27"/>
</g>
<!-- simple_map::add -->
<g id="node5" class="node">
<title>simple_map::add</title>
<ellipse fill="none" stroke="black" cx="343" cy="-347" rx="27" ry="18"/>
<text text-anchor="middle" x="343" y="-343.3" font-family="Times,serif" font-size="14.00">add</text>
</g>
<!-- add_shares&#45;&gt;simple_map::add -->
<g id="edge4" class="edge">
<title>add_shares&#45;&gt;simple_map::add</title>
<path fill="none" stroke="black" d="M343,-475.51C343,-450.88 343,-405.71 343,-376.28"/>
<polygon fill="black" stroke="black" points="346.5,-376.62 343,-366.62 339.5,-376.62 346.5,-376.62"/>
</g>
<!-- contains -->
<g id="node6" class="node">
<title>contains</title>
<ellipse fill="none" stroke="black" cx="526" cy="-422" rx="40.09" ry="18"/>
<text text-anchor="middle" x="526" y="-418.3" font-family="Times,serif" font-size="14.00">contains</text>
</g>
<!-- add_shares&#45;&gt;contains -->
<g id="edge5" class="edge">
<title>add_shares&#45;&gt;contains</title>
<path fill="none" stroke="black" d="M376.57,-480.16C407.34,-468.39 452.98,-450.93 485.71,-438.41"/>
<polygon fill="black" stroke="black" points="486.78,-441.75 494.87,-434.91 484.28,-435.21 486.78,-441.75"/>
</g>
<!-- error::canonical -->
<g id="node7" class="node">
<title>error::canonical</title>
<ellipse fill="none" stroke="black" cx="145" cy="-189" rx="44.39" ry="18"/>
<text text-anchor="middle" x="145" y="-185.3" font-family="Times,serif" font-size="14.00">canonical</text>
</g>
<!-- error::invalid_argument&#45;&gt;error::canonical -->
<g id="edge6" class="edge">
<title>error::invalid_argument&#45;&gt;error::canonical</title>
<path fill="none" stroke="black" d="M203.67,-254.22C193.21,-242.77 179.19,-227.42 167.48,-214.6"/>
<polygon fill="black" stroke="black" points="170.16,-212.35 160.83,-207.33 164.99,-217.07 170.16,-212.35"/>
</g>
<!-- error::invalid_state&#45;&gt;error::canonical -->
<g id="edge7" class="edge">
<title>error::invalid_state&#45;&gt;error::canonical</title>
<path fill="none" stroke="black" d="M87.13,-254.22C97.44,-242.77 111.27,-227.42 122.83,-214.6"/>
<polygon fill="black" stroke="black" points="125.28,-217.1 129.38,-207.33 120.08,-212.42 125.28,-217.1"/>
</g>
<!-- simple_map::borrow_mut&#45;&gt;error::invalid_argument -->
<g id="edge8" class="edge">
<title>simple_map::borrow_mut&#45;&gt;error::invalid_argument</title>
<path fill="none" stroke="black" d="M402.93,-334.35C395.04,-332.34 386.8,-330.44 379,-329 346.04,-322.9 335.92,-331.23 304,-321 285.6,-315.1 266.73,-304.94 251.45,-295.47"/>
<polygon fill="black" stroke="black" points="253.56,-292.67 243.25,-290.22 249.79,-298.56 253.56,-292.67"/>
</g>
<!-- option::extract -->
<g id="node8" class="node">
<title>option::extract</title>
<ellipse fill="none" stroke="black" cx="597" cy="-189" rx="34.39" ry="18"/>
<text text-anchor="middle" x="597" y="-185.3" font-family="Times,serif" font-size="14.00">extract</text>
</g>
<!-- simple_map::borrow_mut&#45;&gt;option::extract -->
<g id="edge9" class="edge">
<title>simple_map::borrow_mut&#45;&gt;option::extract</title>
<path fill="none" stroke="black" d="M482.91,-334.27C491.04,-330.78 499.18,-326.41 506,-321 541.94,-292.49 569.47,-246.02 584.43,-216.78"/>
<polygon fill="black" stroke="black" points="587.37,-218.71 588.69,-208.2 581.1,-215.6 587.37,-218.71"/>
</g>
<!-- option::is_some -->
<g id="node9" class="node">
<title>option::is_some</title>
<ellipse fill="none" stroke="black" cx="591" cy="-117" rx="40.09" ry="18"/>
<text text-anchor="middle" x="591" y="-113.3" font-family="Times,serif" font-size="14.00">is_some</text>
</g>
<!-- simple_map::borrow_mut&#45;&gt;option::is_some -->
<g id="edge10" class="edge">
<title>simple_map::borrow_mut&#45;&gt;option::is_some</title>
<path fill="none" stroke="black" d="M483.86,-334.65C491.52,-332.67 499.49,-330.69 507,-329 525.96,-324.72 532.62,-329.71 550,-321 598.65,-296.63 618.16,-287.84 640,-238 653.38,-207.47 653.41,-193.52 640,-163 636.06,-154.03 629.35,-146.07 622.14,-139.42"/>
<polygon fill="black" stroke="black" points="624.66,-136.97 614.75,-133.23 620.16,-142.33 624.66,-136.97"/>
</g>
<!-- simple_map::find -->
<g id="node10" class="node">
<title>simple_map::find</title>
<ellipse fill="none" stroke="black" cx="422" cy="-272" rx="27" ry="18"/>
<text text-anchor="middle" x="422" y="-268.3" font-family="Times,serif" font-size="14.00">find</text>
</g>
<!-- simple_map::borrow_mut&#45;&gt;simple_map::find -->
<g id="edge11" class="edge">
<title>simple_map::borrow_mut&#45;&gt;simple_map::find</title>
<path fill="none" stroke="black" d="M438.02,-328.7C435.64,-320.43 432.73,-310.31 430.05,-300.99"/>
<polygon fill="black" stroke="black" points="433.49,-300.27 427.36,-291.63 426.76,-302.21 433.49,-300.27"/>
</g>
<!-- simple_map::add&#45;&gt;error::invalid_argument -->
<g id="edge12" class="edge">
<title>simple_map::add&#45;&gt;error::invalid_argument</title>
<path fill="none" stroke="black" d="M323.08,-334.27C305.03,-323.65 277.97,-307.72 255.97,-294.77"/>
<polygon fill="black" stroke="black" points="257.97,-291.88 247.57,-289.82 254.42,-297.91 257.97,-291.88"/>
</g>
<!-- simple_map::add&#45;&gt;simple_map::find -->
<g id="edge14" class="edge">
<title>simple_map::add&#45;&gt;simple_map::find</title>
<path fill="none" stroke="black" d="M358.23,-331.92C369.53,-321.49 385.14,-307.06 398.09,-295.09"/>
<polygon fill="black" stroke="black" points="400.46,-297.67 405.43,-288.31 395.71,-292.52 400.46,-297.67"/>
</g>
<!-- option::is_none -->
<g id="node11" class="node">
<title>option::is_none</title>
<ellipse fill="none" stroke="black" cx="506" cy="-189" rx="38.19" ry="18"/>
<text text-anchor="middle" x="506" y="-185.3" font-family="Times,serif" font-size="14.00">is_none</text>
</g>
<!-- simple_map::add&#45;&gt;option::is_none -->
<g id="edge13" class="edge">
<title>simple_map::add&#45;&gt;option::is_none</title>
<path fill="none" stroke="black" d="M363.48,-334.87C368.43,-332.59 373.81,-330.44 379,-329 396,-324.28 444.06,-331.82 458,-321 489.58,-296.48 500.39,-249.1 504.09,-218.55"/>
<polygon fill="black" stroke="black" points="507.54,-219.17 505.06,-208.87 500.58,-218.47 507.54,-219.17"/>
</g>
<!-- simple_map::contains_key -->
<g id="node12" class="node">
<title>simple_map::contains_key</title>
<ellipse fill="none" stroke="black" cx="573" cy="-347" rx="57.39" ry="18"/>
<text text-anchor="middle" x="573" y="-343.3" font-family="Times,serif" font-size="14.00">contains_key</text>
</g>
<!-- contains&#45;&gt;simple_map::contains_key -->
<g id="edge15" class="edge">
<title>contains&#45;&gt;simple_map::contains_key</title>
<path fill="none" stroke="black" d="M536.67,-404.44C542.35,-395.6 549.49,-384.52 555.92,-374.52"/>
<polygon fill="black" stroke="black" points="558.76,-376.58 561.23,-366.28 552.88,-372.79 558.76,-376.58"/>
</g>
<!-- option::extract&#45;&gt;option::is_some -->
<g id="edge16" class="edge">
<title>option::extract&#45;&gt;option::is_some</title>
<path fill="none" stroke="black" d="M595.52,-170.7C594.89,-163.41 594.15,-154.73 593.45,-146.54"/>
<polygon fill="black" stroke="black" points="596.94,-146.28 592.6,-136.61 589.96,-146.87 596.94,-146.28"/>
</g>
<!-- vector::is_empty -->
<g id="node13" class="node">
<title>vector::is_empty</title>
<ellipse fill="none" stroke="black" cx="506" cy="-34" rx="43.59" ry="18"/>
<text text-anchor="middle" x="506" y="-30.3" font-family="Times,serif" font-size="14.00">is_empty</text>
</g>
<!-- option::is_some&#45;&gt;vector::is_empty -->
<g id="edge17" class="edge">
<title>option::is_some&#45;&gt;vector::is_empty</title>
<path fill="none" stroke="black" d="M574.61,-100.38C562.23,-88.58 545.01,-72.18 530.92,-58.75"/>
<polygon fill="black" stroke="black" points="533.38,-56.26 523.72,-51.89 528.55,-61.32 533.38,-56.26"/>
</g>
<!-- option::none -->
<g id="node14" class="node">
<title>option::none</title>
<ellipse fill="none" stroke="black" cx="422" cy="-189" rx="27.9" ry="18"/>
<text text-anchor="middle" x="422" y="-185.3" font-family="Times,serif" font-size="14.00">none</text>
</g>
<!-- simple_map::find&#45;&gt;option::none -->
<g id="edge18" class="edge">
<title>simple_map::find&#45;&gt;option::none</title>
<path fill="none" stroke="black" d="M422,-253.82C422,-243.69 422,-230.6 422,-218.92"/>
<polygon fill="black" stroke="black" points="425.5,-218.95 422,-208.95 418.5,-218.95 425.5,-218.95"/>
</g>
<!-- option::some -->
<g id="node15" class="node">
<title>option::some</title>
<ellipse fill="none" stroke="black" cx="346" cy="-189" rx="29.8" ry="18"/>
<text text-anchor="middle" x="346" y="-185.3" font-family="Times,serif" font-size="14.00">some</text>
</g>
<!-- simple_map::find&#45;&gt;option::some -->
<g id="edge19" class="edge">
<title>simple_map::find&#45;&gt;option::some</title>
<path fill="none" stroke="black" d="M405.64,-257.4C399.01,-251.65 391.42,-244.72 385,-238 378.04,-230.71 370.94,-222.32 364.74,-214.61"/>
<polygon fill="black" stroke="black" points="367.57,-212.54 358.63,-206.85 362.07,-216.87 367.57,-212.54"/>
</g>
<!-- option::is_none&#45;&gt;vector::is_empty -->
<g id="edge20" class="edge">
<title>option::is_none&#45;&gt;vector::is_empty</title>
<path fill="none" stroke="black" d="M506,-170.75C506,-144.81 506,-95.44 506,-63.93"/>
<polygon fill="black" stroke="black" points="509.5,-63.94 506,-53.94 502.5,-63.94 509.5,-63.94"/>
</g>
<!-- simple_map::contains_key&#45;&gt;option::is_some -->
<g id="edge21" class="edge">
<title>simple_map::contains_key&#45;&gt;option::is_some</title>
<path fill="none" stroke="black" d="M624.83,-338.98C645.84,-334.98 666.67,-329.11 673,-321 716.22,-265.65 708.77,-223.43 673,-163 664.46,-148.58 649.49,-138.47 634.65,-131.55"/>
<polygon fill="black" stroke="black" points="636.45,-128.51 625.87,-127.83 633.72,-134.95 636.45,-128.51"/>
</g>
<!-- simple_map::contains_key&#45;&gt;simple_map::find -->
<g id="edge22" class="edge">
<title>simple_map::contains_key&#45;&gt;simple_map::find</title>
<path fill="none" stroke="black" d="M542.81,-331.4C516.94,-318.9 479.8,-300.94 453.55,-288.25"/>
<polygon fill="black" stroke="black" points="455.26,-285.19 444.74,-283.99 452.22,-291.5 455.26,-285.19"/>
</g>
<!-- vector::singleton -->
<g id="node16" class="node">
<title>vector::singleton</title>
<ellipse fill="none" stroke="black" cx="402" cy="-34" rx="42.79" ry="18"/>
<text text-anchor="middle" x="402" y="-30.3" font-family="Times,serif" font-size="14.00">singleton</text>
</g>
<!-- option::some&#45;&gt;vector::singleton -->
<g id="edge23" class="edge">
<title>option::some&#45;&gt;vector::singleton</title>
<path fill="none" stroke="black" d="M352.21,-171.04C361.79,-144.85 380.3,-94.28 391.85,-62.72"/>
<polygon fill="black" stroke="black" points="395.09,-64.05 395.25,-53.46 388.52,-61.64 395.09,-64.05"/>
</g>
</g>
</svg>
