<?xml version="1.0" encoding="UTF-8" standalone="no"?>
<!DOCTYPE svg PUBLIC "-//W3C//DTD SVG 1.1//EN"
 "http://www.w3.org/Graphics/SVG/1.1/DTD/svg11.dtd">
<!-- Generated by graphviz version 7.0.4 (20221203.1631)
 -->
<!-- Title: G Pages: 1 -->
<svg width="508pt" height="260pt"
 viewBox="0.00 0.00 507.74 260.00" xmlns="http://www.w3.org/2000/svg" xmlns:xlink="http://www.w3.org/1999/xlink">
<g id="graph0" class="graph" transform="scale(1 1) rotate(0) translate(4 256)">
<title>G</title>
<polygon fill="white" stroke="none" points="-4,4 -4,-256 503.74,-256 503.74,4 -4,4"/>
<!-- contains -->
<g id="node1" class="node">
<title>contains</title>
<ellipse fill="none" stroke="black" cx="267.05" cy="-18" rx="40.09" ry="18"/>
<text text-anchor="middle" x="267.05" y="-14.3" font-family="Times,serif" font-size="14.00">contains</text>
</g>
<!-- add_shares -->
<g id="node2" class="node">
<title>add_shares</title>
<ellipse fill="none" stroke="black" cx="50.05" cy="-162" rx="50.09" ry="18"/>
<text text-anchor="middle" x="50.05" y="-158.3" font-family="Times,serif" font-size="14.00">add_shares</text>
</g>
<!-- add_shares&#45;&gt;contains -->
<g id="edge1" class="edge">
<title>add_shares&#45;&gt;contains</title>
<path fill="none" stroke="black" d="M58.26,-143.81C68.62,-123.85 88.26,-91.22 114.05,-72 145,-48.94 186.76,-35.37 218.84,-27.74"/>
<polygon fill="black" stroke="black" points="219.28,-31.23 228.27,-25.62 217.74,-24.4 219.28,-31.23"/>
</g>
<!-- deduct_shares -->
<g id="node3" class="node">
<title>deduct_shares</title>
<ellipse fill="none" stroke="black" cx="348.05" cy="-162" rx="60.39" ry="18"/>
<text text-anchor="middle" x="348.05" y="-158.3" font-family="Times,serif" font-size="14.00">deduct_shares</text>
</g>
<!-- deduct_shares&#45;&gt;contains -->
<g id="edge2" class="edge">
<title>deduct_shares&#45;&gt;contains</title>
<path fill="none" stroke="black" d="M341.67,-143.67C334.58,-125.28 322.25,-95.68 308.05,-72 302.24,-62.33 294.96,-52.38 288.14,-43.76"/>
<polygon fill="black" stroke="black" points="291,-41.72 281.98,-36.17 285.56,-46.13 291,-41.72"/>
</g>
<!-- shares -->
<g id="node5" class="node">
<title>shares</title>
<ellipse fill="none" stroke="black" cx="267.05" cy="-90" rx="32.49" ry="18"/>
<text text-anchor="middle" x="267.05" y="-86.3" font-family="Times,serif" font-size="14.00">shares</text>
</g>
<!-- deduct_shares&#45;&gt;shares -->
<g id="edge11" class="edge">
<title>deduct_shares&#45;&gt;shares</title>
<path fill="none" stroke="black" d="M329.26,-144.76C318.38,-135.37 304.54,-123.41 292.68,-113.15"/>
<polygon fill="black" stroke="black" points="295.08,-110.6 285.22,-106.71 290.5,-115.89 295.08,-110.6"/>
</g>
<!-- redeem_shares -->
<g id="node4" class="node">
<title>redeem_shares</title>
<ellipse fill="none" stroke="black" cx="436.05" cy="-234" rx="63.89" ry="18"/>
<text text-anchor="middle" x="436.05" y="-230.3" font-family="Times,serif" font-size="14.00">redeem_shares</text>
</g>
<!-- redeem_shares&#45;&gt;contains -->
<g id="edge3" class="edge">
<title>redeem_shares&#45;&gt;contains</title>
<path fill="none" stroke="black" d="M441.3,-215.87C446.03,-197.13 450.63,-166.73 439.05,-144 411.61,-90.14 348.9,-54.04 307.27,-35.02"/>
<polygon fill="black" stroke="black" points="308.86,-31.89 298.3,-31.05 306.02,-38.29 308.86,-31.89"/>
</g>
<!-- redeem_shares&#45;&gt;deduct_shares -->
<g id="edge8" class="edge">
<title>redeem_shares&#45;&gt;deduct_shares</title>
<path fill="none" stroke="black" d="M415.64,-216.76C404.28,-207.73 389.94,-196.33 377.4,-186.35"/>
<polygon fill="black" stroke="black" points="379.84,-183.82 369.83,-180.33 375.48,-189.3 379.84,-183.82"/>
</g>
<!-- redeem_shares&#45;&gt;shares -->
<g id="edge12" class="edge">
<title>redeem_shares&#45;&gt;shares</title>
<path fill="none" stroke="black" d="M437.06,-215.75C437.27,-196.04 434.56,-163.94 417.05,-144 390.11,-113.33 344.28,-100.41 310.35,-94.96"/>
<polygon fill="black" stroke="black" points="311.24,-91.56 300.84,-93.6 310.25,-98.49 311.24,-91.56"/>
</g>
<!-- shares&#45;&gt;contains -->
<g id="edge4" class="edge">
<title>shares&#45;&gt;contains</title>
<path fill="none" stroke="black" d="M267.05,-71.7C267.05,-64.41 267.05,-55.73 267.05,-47.54"/>
<polygon fill="black" stroke="black" points="270.55,-47.62 267.05,-37.62 263.55,-47.62 270.55,-47.62"/>
</g>
<!-- transfer_shares -->
<g id="node6" class="node">
<title>transfer_shares</title>
<ellipse fill="none" stroke="black" cx="214.05" cy="-234" rx="63.89" ry="18"/>
<text text-anchor="middle" x="214.05" y="-230.3" font-family="Times,serif" font-size="14.00">transfer_shares</text>
</g>
<!-- transfer_shares&#45;&gt;contains -->
<g id="edge5" class="edge">
<title>transfer_shares&#45;&gt;contains</title>
<path fill="none" stroke="black" d="M184.32,-217.8C170.26,-208.88 154.86,-196.15 147.05,-180 140.08,-165.6 141.07,-158.84 147.05,-144 164.98,-99.43 207.24,-61.82 236.5,-39.83"/>
<polygon fill="black" stroke="black" points="238.27,-42.87 244.27,-34.15 234.13,-37.22 238.27,-42.87"/>
</g>
<!-- transfer_shares&#45;&gt;add_shares -->
<g id="edge7" class="edge">
<title>transfer_shares&#45;&gt;add_shares</title>
<path fill="none" stroke="black" d="M180.06,-218.5C154.47,-207.57 119.24,-192.53 91.91,-180.87"/>
<polygon fill="black" stroke="black" points="93.45,-177.72 82.88,-177.01 90.7,-184.16 93.45,-177.72"/>
</g>
<!-- transfer_shares&#45;&gt;deduct_shares -->
<g id="edge9" class="edge">
<title>transfer_shares&#45;&gt;deduct_shares</title>
<path fill="none" stroke="black" d="M243.45,-217.64C262.7,-207.59 288.06,-194.34 308.99,-183.4"/>
<polygon fill="black" stroke="black" points="310.58,-186.52 317.83,-178.79 307.34,-180.31 310.58,-186.52"/>
</g>
<!-- transfer_shares&#45;&gt;shares -->
<g id="edge13" class="edge">
<title>transfer_shares&#45;&gt;shares</title>
<path fill="none" stroke="black" d="M223.63,-216.19C229.21,-205.95 236.09,-192.48 241.05,-180 248.95,-160.09 255.66,-136.83 260.28,-119.08"/>
<polygon fill="black" stroke="black" points="263.64,-120.07 262.7,-109.51 256.86,-118.35 263.64,-120.07"/>
</g>
<!-- buy_in -->
<g id="node7" class="node">
<title>buy_in</title>
<ellipse fill="none" stroke="black" cx="50.05" cy="-234" rx="35.19" ry="18"/>
<text text-anchor="middle" x="50.05" y="-230.3" font-family="Times,serif" font-size="14.00">buy_in</text>
</g>
<!-- buy_in&#45;&gt;add_shares -->
<g id="edge6" class="edge">
<title>buy_in&#45;&gt;add_shares</title>
<path fill="none" stroke="black" d="M50.05,-215.7C50.05,-208.41 50.05,-199.73 50.05,-191.54"/>
<polygon fill="black" stroke="black" points="53.55,-191.62 50.05,-181.62 46.55,-191.62 53.55,-191.62"/>
</g>
<!-- balance -->
<g id="node8" class="node">
<title>balance</title>
<ellipse fill="none" stroke="black" cx="194.05" cy="-162" rx="37.89" ry="18"/>
<text text-anchor="middle" x="194.05" y="-158.3" font-family="Times,serif" font-size="14.00">balance</text>
</g>
<!-- balance&#45;&gt;shares -->
<g id="edge10" class="edge">
<title>balance&#45;&gt;shares</title>
<path fill="none" stroke="black" d="M210.25,-145.46C219.92,-136.18 232.39,-124.23 243.18,-113.88"/>
<polygon fill="black" stroke="black" points="245.5,-116.51 250.3,-107.06 240.66,-111.45 245.5,-116.51"/>
</g>
</g>
</svg>
