<?xml version="1.0" encoding="UTF-8" standalone="no"?>
<!DOCTYPE svg PUBLIC "-//W3C//DTD SVG 1.1//EN"
 "http://www.w3.org/Graphics/SVG/1.1/DTD/svg11.dtd">
<!-- Generated by graphviz version 7.0.4 (20221203.1631)
 -->
<!-- Title: G Pages: 1 -->
<svg width="578pt" height="260pt"
 viewBox="0.00 0.00 577.58 260.00" xmlns="http://www.w3.org/2000/svg" xmlns:xlink="http://www.w3.org/1999/xlink">
<g id="graph0" class="graph" transform="scale(1 1) rotate(0) translate(4 256)">
<title>G</title>
<polygon fill="white" stroke="none" points="-4,4 -4,-256 573.58,-256 573.58,4 -4,4"/>
<!-- multiply_then_divide -->
<g id="node1" class="node">
<title>multiply_then_divide</title>
<ellipse fill="none" stroke="black" cx="284.79" cy="-18" rx="87.18" ry="18"/>
<text text-anchor="middle" x="284.79" y="-14.3" font-family="Times,serif" font-size="14.00">multiply_then_divide</text>
</g>
<!-- amount_to_shares_with_total_coins -->
<g id="node2" class="node">
<title>amount_to_shares_with_total_coins</title>
<ellipse fill="none" stroke="black" cx="137.79" cy="-90" rx="137.58" ry="18"/>
<text text-anchor="middle" x="137.79" y="-86.3" font-family="Times,serif" font-size="14.00">amount_to_shares_with_total_coins</text>
</g>
<!-- amount_to_shares_with_total_coins&#45;&gt;multiply_then_divide -->
<g id="edge1" class="edge">
<title>amount_to_shares_with_total_coins&#45;&gt;multiply_then_divide</title>
<path fill="none" stroke="black" d="M173,-72.23C193.36,-62.54 219.17,-50.25 240.86,-39.92"/>
<polygon fill="black" stroke="black" points="242.24,-43.14 249.76,-35.68 239.23,-36.82 242.24,-43.14"/>
</g>
<!-- shares_to_amount_with_total_coins -->
<g id="node3" class="node">
<title>shares_to_amount_with_total_coins</title>
<ellipse fill="none" stroke="black" cx="431.79" cy="-90" rx="137.58" ry="18"/>
<text text-anchor="middle" x="431.79" y="-86.3" font-family="Times,serif" font-size="14.00">shares_to_amount_with_total_coins</text>
</g>
<!-- shares_to_amount_with_total_coins&#45;&gt;multiply_then_divide -->
<g id="edge2" class="edge">
<title>shares_to_amount_with_total_coins&#45;&gt;multiply_then_divide</title>
<path fill="none" stroke="black" d="M396.58,-72.23C376.21,-62.54 350.41,-50.25 328.72,-39.92"/>
<polygon fill="black" stroke="black" points="330.35,-36.82 319.81,-35.68 327.34,-43.14 330.35,-36.82"/>
</g>
<!-- amount_to_shares -->
<g id="node4" class="node">
<title>amount_to_shares</title>
<ellipse fill="none" stroke="black" cx="137.79" cy="-162" rx="75.29" ry="18"/>
<text text-anchor="middle" x="137.79" y="-158.3" font-family="Times,serif" font-size="14.00">amount_to_shares</text>
</g>
<!-- amount_to_shares&#45;&gt;amount_to_shares_with_total_coins -->
<g id="edge3" class="edge">
<title>amount_to_shares&#45;&gt;amount_to_shares_with_total_coins</title>
<path fill="none" stroke="black" d="M137.79,-143.7C137.79,-136.41 137.79,-127.73 137.79,-119.54"/>
<polygon fill="black" stroke="black" points="141.29,-119.62 137.79,-109.62 134.29,-119.62 141.29,-119.62"/>
</g>
<!-- shares_to_amount -->
<g id="node5" class="node">
<title>shares_to_amount</title>
<ellipse fill="none" stroke="black" cx="431.79" cy="-162" rx="75.29" ry="18"/>
<text text-anchor="middle" x="431.79" y="-158.3" font-family="Times,serif" font-size="14.00">shares_to_amount</text>
</g>
<!-- shares_to_amount&#45;&gt;shares_to_amount_with_total_coins -->
<g id="edge4" class="edge">
<title>shares_to_amount&#45;&gt;shares_to_amount_with_total_coins</title>
<path fill="none" stroke="black" d="M431.79,-143.7C431.79,-136.41 431.79,-127.73 431.79,-119.54"/>
<polygon fill="black" stroke="black" points="435.29,-119.62 431.79,-109.62 428.29,-119.62 435.29,-119.62"/>
</g>
<!-- buy_in -->
<g id="node6" class="node">
<title>buy_in</title>
<ellipse fill="none" stroke="black" cx="137.79" cy="-234" rx="35.19" ry="18"/>
<text text-anchor="middle" x="137.79" y="-230.3" font-family="Times,serif" font-size="14.00">buy_in</text>
</g>
<!-- buy_in&#45;&gt;amount_to_shares -->
<g id="edge5" class="edge">
<title>buy_in&#45;&gt;amount_to_shares</title>
<path fill="none" stroke="black" d="M137.79,-215.7C137.79,-208.41 137.79,-199.73 137.79,-191.54"/>
<polygon fill="black" stroke="black" points="141.29,-191.62 137.79,-181.62 134.29,-191.62 141.29,-191.62"/>
</g>
<!-- balance -->
<g id="node7" class="node">
<title>balance</title>
<ellipse fill="none" stroke="black" cx="371.79" cy="-234" rx="37.89" ry="18"/>
<text text-anchor="middle" x="371.79" y="-230.3" font-family="Times,serif" font-size="14.00">balance</text>
</g>
<!-- balance&#45;&gt;shares_to_amount -->
<g id="edge6" class="edge">
<title>balance&#45;&gt;shares_to_amount</title>
<path fill="none" stroke="black" d="M385.7,-216.76C392.84,-208.44 401.7,-198.1 409.74,-188.73"/>
<polygon fill="black" stroke="black" points="412.27,-191.14 416.13,-181.27 406.96,-186.59 412.27,-191.14"/>
</g>
<!-- redeem_shares -->
<g id="node8" class="node">
<title>redeem_shares</title>
<ellipse fill="none" stroke="black" cx="490.79" cy="-234" rx="63.89" ry="18"/>
<text text-anchor="middle" x="490.79" y="-230.3" font-family="Times,serif" font-size="14.00">redeem_shares</text>
</g>
<!-- redeem_shares&#45;&gt;shares_to_amount -->
<g id="edge7" class="edge">
<title>redeem_shares&#45;&gt;shares_to_amount</title>
<path fill="none" stroke="black" d="M476.51,-216.05C469.55,-207.8 461.04,-197.7 453.31,-188.54"/>
<polygon fill="black" stroke="black" points="456.03,-186.34 446.91,-180.95 450.68,-190.85 456.03,-186.34"/>
</g>
</g>
</svg>
