<?xml version="1.0" encoding="UTF-8" standalone="no"?>
<!DOCTYPE svg PUBLIC "-//W3C//DTD SVG 1.1//EN"
 "http://www.w3.org/Graphics/SVG/1.1/DTD/svg11.dtd">
<!-- Generated by graphviz version 7.0.4 (20221203.1631)
 -->
<!-- Title: G Pages: 1 -->
<svg width="167pt" height="188pt"
 viewBox="0.00 0.00 166.59 188.00" xmlns="http://www.w3.org/2000/svg" xmlns:xlink="http://www.w3.org/1999/xlink">
<g id="graph0" class="graph" transform="scale(1 1) rotate(0) translate(4 184)">
<title>G</title>
<polygon fill="white" stroke="none" points="-4,4 -4,-184 162.59,-184 162.59,4 -4,4"/>
<!-- scalar_sub_assign -->
<g id="node1" class="node">
<title>scalar_sub_assign</title>
<ellipse fill="none" stroke="black" cx="79.29" cy="-162" rx="74.19" ry="18"/>
<text text-anchor="middle" x="79.29" y="-158.3" font-family="Times,serif" font-size="14.00">scalar_sub_assign</text>
</g>
<!-- scalar_sub -->
<g id="node2" class="node">
<title>scalar_sub</title>
<ellipse fill="none" stroke="black" cx="79.29" cy="-90" rx="48.19" ry="18"/>
<text text-anchor="middle" x="79.29" y="-86.3" font-family="Times,serif" font-size="14.00">scalar_sub</text>
</g>
<!-- scalar_sub_assign&#45;&gt;scalar_sub -->
<g id="edge1" class="edge">
<title>scalar_sub_assign&#45;&gt;scalar_sub</title>
<path fill="none" stroke="black" d="M79.29,-143.7C79.29,-136.41 79.29,-127.73 79.29,-119.54"/>
<polygon fill="black" stroke="black" points="82.79,-119.62 79.29,-109.62 75.79,-119.62 82.79,-119.62"/>
</g>
<!-- scalar_sub_internal -->
<g id="node3" class="node">
<title>scalar_sub_internal</title>
<ellipse fill="none" stroke="black" cx="79.29" cy="-18" rx="79.09" ry="18"/>
<text text-anchor="middle" x="79.29" y="-14.3" font-family="Times,serif" font-size="14.00">scalar_sub_internal</text>
</g>
<!-- scalar_sub&#45;&gt;scalar_sub_internal -->
<g id="edge2" class="edge">
<title>scalar_sub&#45;&gt;scalar_sub_internal</title>
<path fill="none" stroke="black" d="M79.29,-71.7C79.29,-64.41 79.29,-55.73 79.29,-47.54"/>
<polygon fill="black" stroke="black" points="82.79,-47.62 79.29,-37.62 75.79,-47.62 82.79,-47.62"/>
</g>
</g>
</svg>
