<?xml version="1.0" encoding="UTF-8" standalone="no"?>
<!DOCTYPE svg PUBLIC "-//W3C//DTD SVG 1.1//EN"
 "http://www.w3.org/Graphics/SVG/1.1/DTD/svg11.dtd">
<!-- Generated by graphviz version 7.0.4 (20221203.1631)
 -->
<!-- Title: G Pages: 1 -->
<svg width="533pt" height="218pt"
 viewBox="0.00 0.00 533.37 218.00" xmlns="http://www.w3.org/2000/svg" xmlns:xlink="http://www.w3.org/1999/xlink">
<g id="graph0" class="graph" transform="scale(1 1) rotate(0) translate(4 214)">
<title>G</title>
<polygon fill="white" stroke="none" points="-4,4 -4,-214 529.37,-214 529.37,4 -4,4"/>
<g id="clust1" class="cluster">
<title>cluster_option</title>
<polygon fill="none" stroke="black" points="25.09,-91 25.09,-166 175.09,-166 175.09,-91 25.09,-91"/>
<text text-anchor="middle" x="100.09" y="-150.8" font-family="Times,serif" font-size="14.00">option</text>
</g>
<g id="clust2" class="cluster">
<title>cluster_vector</title>
<polygon fill="none" stroke="black" points="12.09,-8 12.09,-83 114.09,-83 114.09,-8 12.09,-8"/>
<text text-anchor="middle" x="63.09" y="-67.8" font-family="Times,serif" font-size="14.00">vector</text>
</g>
<!-- new_point_from_64_uniform_bytes -->
<g id="node1" class="node">
<title>new_point_from_64_uniform_bytes</title>
<ellipse fill="none" stroke="black" cx="139.09" cy="-192" rx="139.18" ry="18"/>
<text text-anchor="middle" x="139.09" y="-188.3" font-family="Times,serif" font-size="14.00">new_point_from_64_uniform_bytes</text>
</g>
<!-- option::none -->
<g id="node2" class="node">
<title>option::none</title>
<ellipse fill="none" stroke="black" cx="139.09" cy="-117" rx="27.9" ry="18"/>
<text text-anchor="middle" x="139.09" y="-113.3" font-family="Times,serif" font-size="14.00">none</text>
</g>
<!-- new_point_from_64_uniform_bytes&#45;&gt;option::none -->
<g id="edge1" class="edge">
<title>new_point_from_64_uniform_bytes&#45;&gt;option::none</title>
<path fill="none" stroke="black" d="M139.09,-173.7C139.09,-165.67 139.09,-155.9 139.09,-146.8"/>
<polygon fill="black" stroke="black" points="142.59,-146.94 139.09,-136.94 135.59,-146.94 142.59,-146.94"/>
</g>
<!-- option::some -->
<g id="node3" class="node">
<title>option::some</title>
<ellipse fill="none" stroke="black" cx="63.09" cy="-117" rx="29.8" ry="18"/>
<text text-anchor="middle" x="63.09" y="-113.3" font-family="Times,serif" font-size="14.00">some</text>
</g>
<!-- new_point_from_64_uniform_bytes&#45;&gt;option::some -->
<g id="edge2" class="edge">
<title>new_point_from_64_uniform_bytes&#45;&gt;option::some</title>
<path fill="none" stroke="black" d="M111.71,-173.86C108.35,-171.37 105.06,-168.72 102.09,-166 94.66,-159.2 87.43,-150.93 81.26,-143.19"/>
<polygon fill="black" stroke="black" points="84.1,-141.14 75.24,-135.34 78.55,-145.4 84.1,-141.14"/>
</g>
<!-- new_point_from_64_uniform_bytes_internal -->
<g id="node4" class="node">
<title>new_point_from_64_uniform_bytes_internal</title>
<ellipse fill="none" stroke="black" cx="355.09" cy="-117" rx="170.07" ry="18"/>
<text text-anchor="middle" x="355.09" y="-113.3" font-family="Times,serif" font-size="14.00">new_point_from_64_uniform_bytes_internal</text>
</g>
<!-- new_point_from_64_uniform_bytes&#45;&gt;new_point_from_64_uniform_bytes_internal -->
<g id="edge3" class="edge">
<title>new_point_from_64_uniform_bytes&#45;&gt;new_point_from_64_uniform_bytes_internal</title>
<path fill="none" stroke="black" d="M187.29,-174.71C219.16,-163.94 261.16,-149.74 295.17,-138.25"/>
<polygon fill="black" stroke="black" points="296.12,-141.62 304.47,-135.11 293.88,-134.99 296.12,-141.62"/>
</g>
<!-- vector::singleton -->
<g id="node5" class="node">
<title>vector::singleton</title>
<ellipse fill="none" stroke="black" cx="63.09" cy="-34" rx="42.79" ry="18"/>
<text text-anchor="middle" x="63.09" y="-30.3" font-family="Times,serif" font-size="14.00">singleton</text>
</g>
<!-- option::some&#45;&gt;vector::singleton -->
<g id="edge4" class="edge">
<title>option::some&#45;&gt;vector::singleton</title>
<path fill="none" stroke="black" d="M63.09,-98.82C63.09,-88.69 63.09,-75.6 63.09,-63.92"/>
<polygon fill="black" stroke="black" points="66.59,-63.95 63.09,-53.95 59.59,-63.95 66.59,-63.95"/>
</g>
</g>
</svg>
