<?xml version="1.0" encoding="UTF-8" standalone="no"?>
<!DOCTYPE svg PUBLIC "-//W3C//DTD SVG 1.1//EN"
 "http://www.w3.org/Graphics/SVG/1.1/DTD/svg11.dtd">
<!-- Generated by graphviz version 7.0.4 (20221203.1631)
 -->
<!-- Title: G Pages: 1 -->
<svg width="232pt" height="207pt"
 viewBox="0.00 0.00 231.58 207.00" xmlns="http://www.w3.org/2000/svg" xmlns:xlink="http://www.w3.org/1999/xlink">
<g id="graph0" class="graph" transform="scale(1 1) rotate(0) translate(4 203)">
<title>G</title>
<polygon fill="white" stroke="none" points="-4,4 -4,-203 227.58,-203 227.58,4 -4,4"/>
<g id="clust1" class="cluster">
<title>cluster_error</title>
<polygon fill="none" stroke="black" points="30.79,-8 30.79,-155 192.79,-155 192.79,-8 30.79,-8"/>
<text text-anchor="middle" x="111.79" y="-139.8" font-family="Times,serif" font-size="14.00">error</text>
</g>
<!-- ecdsa_signature_from_bytes -->
<g id="node1" class="node">
<title>ecdsa_signature_from_bytes</title>
<ellipse fill="none" stroke="black" cx="111.79" cy="-181" rx="111.58" ry="18"/>
<text text-anchor="middle" x="111.79" y="-177.3" font-family="Times,serif" font-size="14.00">ecdsa_signature_from_bytes</text>
</g>
<!-- error::invalid_argument -->
<g id="node2" class="node">
<title>error::invalid_argument</title>
<ellipse fill="none" stroke="black" cx="111.79" cy="-106" rx="73.39" ry="18"/>
<text text-anchor="middle" x="111.79" y="-102.3" font-family="Times,serif" font-size="14.00">invalid_argument</text>
</g>
<!-- ecdsa_signature_from_bytes&#45;&gt;error::invalid_argument -->
<g id="edge1" class="edge">
<title>ecdsa_signature_from_bytes&#45;&gt;error::invalid_argument</title>
<path fill="none" stroke="black" d="M111.79,-162.7C111.79,-154.67 111.79,-144.9 111.79,-135.8"/>
<polygon fill="black" stroke="black" points="115.29,-135.94 111.79,-125.94 108.29,-135.94 115.29,-135.94"/>
</g>
<!-- error::canonical -->
<g id="node3" class="node">
<title>error::canonical</title>
<ellipse fill="none" stroke="black" cx="111.79" cy="-34" rx="44.39" ry="18"/>
<text text-anchor="middle" x="111.79" y="-30.3" font-family="Times,serif" font-size="14.00">canonical</text>
</g>
<!-- error::invalid_argument&#45;&gt;error::canonical -->
<g id="edge2" class="edge">
<title>error::invalid_argument&#45;&gt;error::canonical</title>
<path fill="none" stroke="black" d="M111.79,-87.7C111.79,-80.41 111.79,-71.73 111.79,-63.54"/>
<polygon fill="black" stroke="black" points="115.29,-63.62 111.79,-53.62 108.29,-63.62 115.29,-63.62"/>
</g>
</g>
</svg>
