<?xml version="1.0" encoding="UTF-8" standalone="no"?>
<!DOCTYPE svg PUBLIC "-//W3C//DTD SVG 1.1//EN"
 "http://www.w3.org/Graphics/SVG/1.1/DTD/svg11.dtd">
<!-- Generated by graphviz version 7.0.4 (20221203.1631)
 -->
<!-- Title: G Pages: 1 -->
<svg width="727pt" height="443pt"
 viewBox="0.00 0.00 727.00 443.00" xmlns="http://www.w3.org/2000/svg" xmlns:xlink="http://www.w3.org/1999/xlink">
<g id="graph0" class="graph" transform="scale(1 1) rotate(0) translate(4 439)">
<title>G</title>
<polygon fill="white" stroke="none" points="-4,4 -4,-439 723,-439 723,4 -4,4"/>
<g id="clust1" class="cluster">
<title>cluster_pool_u64</title>
<polygon fill="none" stroke="black" points="8,-136 8,-427 436,-427 436,-136 8,-136"/>
<text text-anchor="middle" x="222" y="-411.8" font-family="Times,serif" font-size="14.00">pool_u64</text>
</g>
<!-- find -->
<g id="node1" class="node">
<title>find</title>
<ellipse fill="none" stroke="black" cx="544" cy="-18" rx="27" ry="18"/>
<text text-anchor="middle" x="544" y="-14.3" font-family="Times,serif" font-size="14.00">find</text>
</g>
<!-- borrow -->
<g id="node2" class="node">
<title>borrow</title>
<ellipse fill="none" stroke="black" cx="480" cy="-162" rx="36.29" ry="18"/>
<text text-anchor="middle" x="480" y="-158.3" font-family="Times,serif" font-size="14.00">borrow</text>
</g>
<!-- borrow&#45;&gt;find -->
<g id="edge1" class="edge">
<title>borrow&#45;&gt;find</title>
<path fill="none" stroke="black" d="M487.59,-144.15C498.57,-119.79 518.99,-74.48 532.02,-45.58"/>
<polygon fill="black" stroke="black" points="535.07,-47.32 535.99,-36.77 528.69,-44.45 535.07,-47.32"/>
</g>
<!-- borrow_mut -->
<g id="node3" class="node">
<title>borrow_mut</title>
<ellipse fill="none" stroke="black" cx="592" cy="-234" rx="54.69" ry="18"/>
<text text-anchor="middle" x="592" y="-230.3" font-family="Times,serif" font-size="14.00">borrow_mut</text>
</g>
<!-- borrow_mut&#45;&gt;find -->
<g id="edge2" class="edge">
<title>borrow_mut&#45;&gt;find</title>
<path fill="none" stroke="black" d="M588.61,-215.54C582.8,-185.93 570.34,-123.98 558,-72 556.08,-63.91 553.84,-55.17 551.72,-47.17"/>
<polygon fill="black" stroke="black" points="555.12,-46.34 549.15,-37.59 548.36,-48.16 555.12,-46.34"/>
</g>
<!-- remove -->
<g id="node4" class="node">
<title>remove</title>
<ellipse fill="none" stroke="black" cx="482" cy="-234" rx="37.89" ry="18"/>
<text text-anchor="middle" x="482" y="-230.3" font-family="Times,serif" font-size="14.00">remove</text>
</g>
<!-- remove&#45;&gt;find -->
<g id="edge3" class="edge">
<title>remove&#45;&gt;find</title>
<path fill="none" stroke="black" d="M498.64,-217.43C508.01,-207.64 519.01,-194.19 525,-180 543.43,-136.35 545.84,-80.5 545.33,-47.36"/>
<polygon fill="black" stroke="black" points="548.83,-47.66 545.07,-37.75 541.84,-47.84 548.83,-47.66"/>
</g>
<!-- add -->
<g id="node5" class="node">
<title>add</title>
<ellipse fill="none" stroke="black" cx="692" cy="-234" rx="27" ry="18"/>
<text text-anchor="middle" x="692" y="-230.3" font-family="Times,serif" font-size="14.00">add</text>
</g>
<!-- add&#45;&gt;find -->
<g id="edge4" class="edge">
<title>add&#45;&gt;find</title>
<path fill="none" stroke="black" d="M681.12,-217.26C655.67,-180.47 592.12,-88.57 561.3,-44.01"/>
<polygon fill="black" stroke="black" points="564.33,-42.24 555.76,-36 558.57,-46.22 564.33,-42.24"/>
</g>
<!-- contains_key -->
<g id="node6" class="node">
<title>contains_key</title>
<ellipse fill="none" stroke="black" cx="265" cy="-90" rx="57.39" ry="18"/>
<text text-anchor="middle" x="265" y="-86.3" font-family="Times,serif" font-size="14.00">contains_key</text>
</g>
<!-- contains_key&#45;&gt;find -->
<g id="edge5" class="edge">
<title>contains_key&#45;&gt;find</title>
<path fill="none" stroke="black" d="M308.9,-77.99C363.85,-64.2 456.95,-40.84 507.94,-28.05"/>
<polygon fill="black" stroke="black" points="508.74,-31.46 517.59,-25.63 507.04,-24.67 508.74,-31.46"/>
</g>
<!-- pool_u64::shares -->
<g id="node7" class="node">
<title>pool_u64::shares</title>
<ellipse fill="none" stroke="black" cx="150" cy="-234" rx="32.49" ry="18"/>
<text text-anchor="middle" x="150" y="-230.3" font-family="Times,serif" font-size="14.00">shares</text>
</g>
<!-- pool_u64::shares&#45;&gt;borrow -->
<g id="edge6" class="edge">
<title>pool_u64::shares&#45;&gt;borrow</title>
<path fill="none" stroke="black" d="M181.87,-229.52C235.84,-223.1 348.32,-207.49 440,-180 441.16,-179.65 442.32,-179.28 443.5,-178.89"/>
<polygon fill="black" stroke="black" points="444.46,-182.27 452.64,-175.53 442.04,-175.7 444.46,-182.27"/>
</g>
<!-- pool_u64::contains -->
<g id="node10" class="node">
<title>pool_u64::contains</title>
<ellipse fill="none" stroke="black" cx="191" cy="-162" rx="40.09" ry="18"/>
<text text-anchor="middle" x="191" y="-158.3" font-family="Times,serif" font-size="14.00">contains</text>
</g>
<!-- pool_u64::shares&#45;&gt;pool_u64::contains -->
<g id="edge23" class="edge">
<title>pool_u64::shares&#45;&gt;pool_u64::contains</title>
<path fill="none" stroke="black" d="M159.72,-216.41C164.47,-208.3 170.29,-198.35 175.63,-189.25"/>
<polygon fill="black" stroke="black" points="178.55,-191.17 180.59,-180.78 172.51,-187.64 178.55,-191.17"/>
</g>
<!-- pool_u64::add_shares -->
<g id="node8" class="node">
<title>pool_u64::add_shares</title>
<ellipse fill="none" stroke="black" cx="378" cy="-306" rx="50.09" ry="18"/>
<text text-anchor="middle" x="378" y="-302.3" font-family="Times,serif" font-size="14.00">add_shares</text>
</g>
<!-- pool_u64::add_shares&#45;&gt;borrow_mut -->
<g id="edge7" class="edge">
<title>pool_u64::add_shares&#45;&gt;borrow_mut</title>
<path fill="none" stroke="black" d="M414.3,-293.13C449.76,-281.53 503.97,-263.8 543.19,-250.97"/>
<polygon fill="black" stroke="black" points="544.22,-254.31 552.64,-247.88 542.05,-247.66 544.22,-254.31"/>
</g>
<!-- pool_u64::add_shares&#45;&gt;add -->
<g id="edge10" class="edge">
<title>pool_u64::add_shares&#45;&gt;add</title>
<path fill="none" stroke="black" d="M425.14,-299.7C481.18,-292.57 577.04,-277.71 656,-252 657.6,-251.48 659.23,-250.9 660.85,-250.29"/>
<polygon fill="black" stroke="black" points="662.19,-253.52 670.03,-246.4 659.46,-247.08 662.19,-253.52"/>
</g>
<!-- pool_u64::add_shares&#45;&gt;pool_u64::contains -->
<g id="edge20" class="edge">
<title>pool_u64::add_shares&#45;&gt;pool_u64::contains</title>
<path fill="none" stroke="black" d="M357.27,-289.26C323.79,-263.83 257.7,-213.65 219.71,-184.8"/>
<polygon fill="black" stroke="black" points="221.98,-182.13 211.89,-178.87 217.74,-187.7 221.98,-182.13"/>
</g>
<!-- pool_u64::deduct_shares -->
<g id="node9" class="node">
<title>pool_u64::deduct_shares</title>
<ellipse fill="none" stroke="black" cx="250" cy="-306" rx="60.39" ry="18"/>
<text text-anchor="middle" x="250" y="-302.3" font-family="Times,serif" font-size="14.00">deduct_shares</text>
</g>
<!-- pool_u64::deduct_shares&#45;&gt;borrow_mut -->
<g id="edge8" class="edge">
<title>pool_u64::deduct_shares&#45;&gt;borrow_mut</title>
<path fill="none" stroke="black" d="M294.43,-293.56C302.58,-291.6 311.03,-289.66 319,-288 411.7,-268.66 436.52,-272.36 529,-252 532.77,-251.17 536.64,-250.26 540.54,-249.31"/>
<polygon fill="black" stroke="black" points="541.17,-252.76 550,-246.91 539.45,-245.97 541.17,-252.76"/>
</g>
<!-- pool_u64::deduct_shares&#45;&gt;remove -->
<g id="edge9" class="edge">
<title>pool_u64::deduct_shares&#45;&gt;remove</title>
<path fill="none" stroke="black" d="M295.35,-293.88C334.12,-284.02 391.21,-268.62 440,-252 441.34,-251.54 442.7,-251.07 444.07,-250.58"/>
<polygon fill="black" stroke="black" points="445.07,-253.94 453.19,-247.14 442.6,-247.39 445.07,-253.94"/>
</g>
<!-- pool_u64::deduct_shares&#45;&gt;pool_u64::shares -->
<g id="edge13" class="edge">
<title>pool_u64::deduct_shares&#45;&gt;pool_u64::shares</title>
<path fill="none" stroke="black" d="M227.31,-289.12C212.9,-279.03 194.12,-265.88 178.68,-255.07"/>
<polygon fill="black" stroke="black" points="181,-252.43 170.8,-249.56 176.99,-258.17 181,-252.43"/>
</g>
<!-- pool_u64::deduct_shares&#45;&gt;pool_u64::contains -->
<g id="edge21" class="edge">
<title>pool_u64::deduct_shares&#45;&gt;pool_u64::contains</title>
<path fill="none" stroke="black" d="M242.88,-287.87C232.87,-263.78 214.52,-219.6 202.54,-190.77"/>
<polygon fill="black" stroke="black" points="205.79,-189.48 198.72,-181.59 199.33,-192.16 205.79,-189.48"/>
</g>
<!-- pool_u64::contains&#45;&gt;contains_key -->
<g id="edge11" class="edge">
<title>pool_u64::contains&#45;&gt;contains_key</title>
<path fill="none" stroke="black" d="M207.42,-145.46C216.83,-136.57 228.84,-125.21 239.45,-115.16"/>
<polygon fill="black" stroke="black" points="241.63,-117.92 246.49,-108.51 236.82,-112.84 241.63,-117.92"/>
</g>
<!-- pool_u64::balance -->
<g id="node11" class="node">
<title>pool_u64::balance</title>
<ellipse fill="none" stroke="black" cx="134" cy="-306" rx="37.89" ry="18"/>
<text text-anchor="middle" x="134" y="-302.3" font-family="Times,serif" font-size="14.00">balance</text>
</g>
<!-- pool_u64::balance&#45;&gt;pool_u64::shares -->
<g id="edge12" class="edge">
<title>pool_u64::balance&#45;&gt;pool_u64::shares</title>
<path fill="none" stroke="black" d="M137.96,-287.7C139.64,-280.32 141.65,-271.52 143.54,-263.25"/>
<polygon fill="black" stroke="black" points="146.94,-264.11 145.75,-253.58 140.11,-262.55 146.94,-264.11"/>
</g>
<!-- pool_u64::redeem_shares -->
<g id="node12" class="node">
<title>pool_u64::redeem_shares</title>
<ellipse fill="none" stroke="black" cx="80" cy="-378" rx="63.89" ry="18"/>
<text text-anchor="middle" x="80" y="-374.3" font-family="Times,serif" font-size="14.00">redeem_shares</text>
</g>
<!-- pool_u64::redeem_shares&#45;&gt;pool_u64::shares -->
<g id="edge14" class="edge">
<title>pool_u64::redeem_shares&#45;&gt;pool_u64::shares</title>
<path fill="none" stroke="black" d="M73.15,-359.83C66.81,-341.06 60.02,-310.62 72,-288 80.92,-271.15 97.88,-258.66 113.7,-250.05"/>
<polygon fill="black" stroke="black" points="115.13,-253.25 122.49,-245.63 111.99,-246.99 115.13,-253.25"/>
</g>
<!-- pool_u64::redeem_shares&#45;&gt;pool_u64::deduct_shares -->
<g id="edge18" class="edge">
<title>pool_u64::redeem_shares&#45;&gt;pool_u64::deduct_shares</title>
<path fill="none" stroke="black" d="M114.81,-362.67C140.91,-351.92 176.85,-337.12 205.11,-325.49"/>
<polygon fill="black" stroke="black" points="206.21,-328.82 214.13,-321.77 203.55,-322.34 206.21,-328.82"/>
</g>
<!-- pool_u64::redeem_shares&#45;&gt;pool_u64::contains -->
<g id="edge22" class="edge">
<title>pool_u64::redeem_shares&#45;&gt;pool_u64::contains</title>
<path fill="none" stroke="black" d="M72.11,-359.75C67.89,-349.58 63.14,-336.33 61,-324 52.61,-275.74 51.23,-253.29 83,-216 99.34,-196.82 124.26,-183.95 146.04,-175.7"/>
<polygon fill="black" stroke="black" points="147.07,-179.05 155.33,-172.41 144.74,-172.45 147.07,-179.05"/>
</g>
<!-- pool_u64::transfer_shares -->
<g id="node13" class="node">
<title>pool_u64::transfer_shares</title>
<ellipse fill="none" stroke="black" cx="238" cy="-378" rx="63.89" ry="18"/>
<text text-anchor="middle" x="238" y="-374.3" font-family="Times,serif" font-size="14.00">transfer_shares</text>
</g>
<!-- pool_u64::transfer_shares&#45;&gt;pool_u64::shares -->
<g id="edge15" class="edge">
<title>pool_u64::transfer_shares&#45;&gt;pool_u64::shares</title>
<path fill="none" stroke="black" d="M188.75,-366.2C149.49,-356.48 99.13,-341.11 87,-324 77.75,-310.95 80.25,-302.51 87,-288 93.52,-273.99 105.77,-262.36 117.74,-253.6"/>
<polygon fill="black" stroke="black" points="119.61,-256.56 125.92,-248.05 115.68,-250.77 119.61,-256.56"/>
</g>
<!-- pool_u64::transfer_shares&#45;&gt;pool_u64::add_shares -->
<g id="edge17" class="edge">
<title>pool_u64::transfer_shares&#45;&gt;pool_u64::add_shares</title>
<path fill="none" stroke="black" d="M268.38,-361.81C289.21,-351.4 317.01,-337.49 339.41,-326.3"/>
<polygon fill="black" stroke="black" points="340.86,-329.48 348.24,-321.88 337.73,-323.22 340.86,-329.48"/>
</g>
<!-- pool_u64::transfer_shares&#45;&gt;pool_u64::deduct_shares -->
<g id="edge19" class="edge">
<title>pool_u64::transfer_shares&#45;&gt;pool_u64::deduct_shares</title>
<path fill="none" stroke="black" d="M240.97,-359.7C242.23,-352.32 243.74,-343.52 245.16,-335.25"/>
<polygon fill="black" stroke="black" points="248.57,-336.04 246.81,-325.6 241.67,-334.86 248.57,-336.04"/>
</g>
<!-- pool_u64::transfer_shares&#45;&gt;pool_u64::contains -->
<g id="edge24" class="edge">
<title>pool_u64::transfer_shares&#45;&gt;pool_u64::contains</title>
<path fill="none" stroke="black" d="M186.47,-366.97C144.2,-357.58 89.24,-342.27 76,-324 52.5,-291.59 107.97,-217.19 109,-216 121.38,-201.7 138.54,-189.8 153.96,-180.92"/>
<polygon fill="black" stroke="black" points="155.38,-184.14 162.46,-176.26 152.01,-178 155.38,-184.14"/>
</g>
<!-- pool_u64::buy_in -->
<g id="node14" class="node">
<title>pool_u64::buy_in</title>
<ellipse fill="none" stroke="black" cx="378" cy="-378" rx="35.19" ry="18"/>
<text text-anchor="middle" x="378" y="-374.3" font-family="Times,serif" font-size="14.00">buy_in</text>
</g>
<!-- pool_u64::buy_in&#45;&gt;pool_u64::add_shares -->
<g id="edge16" class="edge">
<title>pool_u64::buy_in&#45;&gt;pool_u64::add_shares</title>
<path fill="none" stroke="black" d="M378,-359.7C378,-352.41 378,-343.73 378,-335.54"/>
<polygon fill="black" stroke="black" points="381.5,-335.62 378,-325.62 374.5,-335.62 381.5,-335.62"/>
</g>
</g>
</svg>
