<?xml version="1.0" encoding="UTF-8" standalone="no"?>
<!DOCTYPE svg PUBLIC "-//W3C//DTD SVG 1.1//EN"
 "http://www.w3.org/Graphics/SVG/1.1/DTD/svg11.dtd">
<!-- Generated by graphviz version 7.0.4 (20221203.1631)
 -->
<!-- Title: G Pages: 1 -->
<svg width="313pt" height="299pt"
 viewBox="0.00 0.00 313.00 299.00" xmlns="http://www.w3.org/2000/svg" xmlns:xlink="http://www.w3.org/1999/xlink">
<g id="graph0" class="graph" transform="scale(1 1) rotate(0) translate(4 295)">
<title>G</title>
<polygon fill="white" stroke="none" points="-4,4 -4,-295 309,-295 309,4 -4,4"/>
<g id="clust1" class="cluster">
<title>cluster_pool_u64</title>
<polygon fill="none" stroke="black" points="8,-64 8,-283 297,-283 297,-64 8,-64"/>
<text text-anchor="middle" x="152.5" y="-267.8" font-family="Times,serif" font-size="14.00">pool_u64</text>
</g>
<!-- borrow -->
<g id="node1" class="node">
<title>borrow</title>
<ellipse fill="none" stroke="black" cx="154" cy="-18" rx="36.29" ry="18"/>
<text text-anchor="middle" x="154" y="-14.3" font-family="Times,serif" font-size="14.00">borrow</text>
</g>
<!-- pool_u64::shares -->
<g id="node2" class="node">
<title>pool_u64::shares</title>
<ellipse fill="none" stroke="black" cx="154" cy="-90" rx="32.49" ry="18"/>
<text text-anchor="middle" x="154" y="-86.3" font-family="Times,serif" font-size="14.00">shares</text>
</g>
<!-- pool_u64::shares&#45;&gt;borrow -->
<g id="edge1" class="edge">
<title>pool_u64::shares&#45;&gt;borrow</title>
<path fill="none" stroke="black" d="M154,-71.7C154,-64.41 154,-55.73 154,-47.54"/>
<polygon fill="black" stroke="black" points="157.5,-47.62 154,-37.62 150.5,-47.62 157.5,-47.62"/>
</g>
<!-- pool_u64::balance -->
<g id="node3" class="node">
<title>pool_u64::balance</title>
<ellipse fill="none" stroke="black" cx="251" cy="-162" rx="37.89" ry="18"/>
<text text-anchor="middle" x="251" y="-158.3" font-family="Times,serif" font-size="14.00">balance</text>
</g>
<!-- pool_u64::balance&#45;&gt;pool_u64::shares -->
<g id="edge2" class="edge">
<title>pool_u64::balance&#45;&gt;pool_u64::shares</title>
<path fill="none" stroke="black" d="M230.9,-146.5C216.84,-136.35 197.86,-122.65 182.27,-111.4"/>
<polygon fill="black" stroke="black" points="184.47,-108.67 174.31,-105.66 180.37,-114.35 184.47,-108.67"/>
</g>
<!-- pool_u64::deduct_shares -->
<g id="node4" class="node">
<title>pool_u64::deduct_shares</title>
<ellipse fill="none" stroke="black" cx="115" cy="-162" rx="60.39" ry="18"/>
<text text-anchor="middle" x="115" y="-158.3" font-family="Times,serif" font-size="14.00">deduct_shares</text>
</g>
<!-- pool_u64::deduct_shares&#45;&gt;pool_u64::shares -->
<g id="edge3" class="edge">
<title>pool_u64::deduct_shares&#45;&gt;pool_u64::shares</title>
<path fill="none" stroke="black" d="M124.44,-144.05C128.91,-136.03 134.36,-126.26 139.35,-117.3"/>
<polygon fill="black" stroke="black" points="142.37,-119.07 144.18,-108.63 136.25,-115.66 142.37,-119.07"/>
</g>
<!-- pool_u64::redeem_shares -->
<g id="node5" class="node">
<title>pool_u64::redeem_shares</title>
<ellipse fill="none" stroke="black" cx="225" cy="-234" rx="63.89" ry="18"/>
<text text-anchor="middle" x="225" y="-230.3" font-family="Times,serif" font-size="14.00">redeem_shares</text>
</g>
<!-- pool_u64::redeem_shares&#45;&gt;pool_u64::shares -->
<g id="edge4" class="edge">
<title>pool_u64::redeem_shares&#45;&gt;pool_u64::shares</title>
<path fill="none" stroke="black" d="M217.56,-215.73C209.65,-197.65 196.56,-168.53 184,-144 179.48,-135.17 174.24,-125.69 169.42,-117.23"/>
<polygon fill="black" stroke="black" points="172.6,-115.74 164.57,-108.83 166.54,-119.24 172.6,-115.74"/>
</g>
<!-- pool_u64::redeem_shares&#45;&gt;pool_u64::deduct_shares -->
<g id="edge6" class="edge">
<title>pool_u64::redeem_shares&#45;&gt;pool_u64::deduct_shares</title>
<path fill="none" stroke="black" d="M200.04,-217.12C184.99,-207.54 165.61,-195.21 149.16,-184.74"/>
<polygon fill="black" stroke="black" points="151.45,-182.05 141.14,-179.63 147.7,-187.96 151.45,-182.05"/>
</g>
<!-- pool_u64::transfer_shares -->
<g id="node6" class="node">
<title>pool_u64::transfer_shares</title>
<ellipse fill="none" stroke="black" cx="80" cy="-234" rx="63.89" ry="18"/>
<text text-anchor="middle" x="80" y="-230.3" font-family="Times,serif" font-size="14.00">transfer_shares</text>
</g>
<!-- pool_u64::transfer_shares&#45;&gt;pool_u64::shares -->
<g id="edge5" class="edge">
<title>pool_u64::transfer_shares&#45;&gt;pool_u64::shares</title>
<path fill="none" stroke="black" d="M64.69,-216.04C49.86,-197.44 31.57,-167.16 46,-144 60.49,-120.74 88.51,-107.4 112.37,-99.92"/>
<polygon fill="black" stroke="black" points="113.21,-103.32 121.87,-97.21 111.29,-96.59 113.21,-103.32"/>
</g>
<!-- pool_u64::transfer_shares&#45;&gt;pool_u64::deduct_shares -->
<g id="edge7" class="edge">
<title>pool_u64::transfer_shares&#45;&gt;pool_u64::deduct_shares</title>
<path fill="none" stroke="black" d="M88.65,-215.7C92.47,-208.07 97.04,-198.92 101.3,-190.4"/>
<polygon fill="black" stroke="black" points="104.43,-191.97 105.77,-181.46 98.17,-188.84 104.43,-191.97"/>
</g>
</g>
</svg>
