<?xml version="1.0" encoding="UTF-8" standalone="no"?>
<!DOCTYPE svg PUBLIC "-//W3C//DTD SVG 1.1//EN"
 "http://www.w3.org/Graphics/SVG/1.1/DTD/svg11.dtd">
<!-- Generated by graphviz version 7.0.4 (20221203.1631)
 -->
<!-- Title: G Pages: 1 -->
<svg width="313pt" height="227pt"
 viewBox="0.00 0.00 313.00 227.00" xmlns="http://www.w3.org/2000/svg" xmlns:xlink="http://www.w3.org/1999/xlink">
<g id="graph0" class="graph" transform="scale(1 1) rotate(0) translate(4 223)">
<title>G</title>
<polygon fill="white" stroke="none" points="-4,4 -4,-223 309,-223 309,4 -4,4"/>
<g id="clust1" class="cluster">
<title>cluster_pool_u64</title>
<polygon fill="none" stroke="black" points="8,-64 8,-211 297,-211 297,-64 8,-64"/>
<text text-anchor="middle" x="152.5" y="-195.8" font-family="Times,serif" font-size="14.00">pool_u64</text>
</g>
<!-- remove -->
<g id="node1" class="node">
<title>remove</title>
<ellipse fill="none" stroke="black" cx="152" cy="-18" rx="37.89" ry="18"/>
<text text-anchor="middle" x="152" y="-14.3" font-family="Times,serif" font-size="14.00">remove</text>
</g>
<!-- pool_u64::deduct_shares -->
<g id="node2" class="node">
<title>pool_u64::deduct_shares</title>
<ellipse fill="none" stroke="black" cx="152" cy="-90" rx="60.39" ry="18"/>
<text text-anchor="middle" x="152" y="-86.3" font-family="Times,serif" font-size="14.00">deduct_shares</text>
</g>
<!-- pool_u64::deduct_shares&#45;&gt;remove -->
<g id="edge1" class="edge">
<title>pool_u64::deduct_shares&#45;&gt;remove</title>
<path fill="none" stroke="black" d="M152,-71.7C152,-64.41 152,-55.73 152,-47.54"/>
<polygon fill="black" stroke="black" points="155.5,-47.62 152,-37.62 148.5,-47.62 155.5,-47.62"/>
</g>
<!-- pool_u64::redeem_shares -->
<g id="node3" class="node">
<title>pool_u64::redeem_shares</title>
<ellipse fill="none" stroke="black" cx="225" cy="-162" rx="63.89" ry="18"/>
<text text-anchor="middle" x="225" y="-158.3" font-family="Times,serif" font-size="14.00">redeem_shares</text>
</g>
<!-- pool_u64::redeem_shares&#45;&gt;pool_u64::deduct_shares -->
<g id="edge2" class="edge">
<title>pool_u64::redeem_shares&#45;&gt;pool_u64::deduct_shares</title>
<path fill="none" stroke="black" d="M207.7,-144.41C198.67,-135.76 187.46,-125 177.46,-115.42"/>
<polygon fill="black" stroke="black" points="180.16,-113.16 170.52,-108.76 175.32,-118.21 180.16,-113.16"/>
</g>
<!-- pool_u64::transfer_shares -->
<g id="node4" class="node">
<title>pool_u64::transfer_shares</title>
<ellipse fill="none" stroke="black" cx="80" cy="-162" rx="63.89" ry="18"/>
<text text-anchor="middle" x="80" y="-158.3" font-family="Times,serif" font-size="14.00">transfer_shares</text>
</g>
<!-- pool_u64::transfer_shares&#45;&gt;pool_u64::deduct_shares -->
<g id="edge3" class="edge">
<title>pool_u64::transfer_shares&#45;&gt;pool_u64::deduct_shares</title>
<path fill="none" stroke="black" d="M97.06,-144.41C106.03,-135.69 117.19,-124.85 127.1,-115.21"/>
<polygon fill="black" stroke="black" points="129.24,-118.01 133.97,-108.53 124.36,-112.99 129.24,-118.01"/>
</g>
</g>
</svg>
