<?xml version="1.0" encoding="UTF-8" standalone="no"?>
<!DOCTYPE svg PUBLIC "-//W3C//DTD SVG 1.1//EN"
 "http://www.w3.org/Graphics/SVG/1.1/DTD/svg11.dtd">
<!-- Generated by graphviz version 7.0.4 (20221203.1631)
 -->
<!-- Title: G Pages: 1 -->
<svg width="256pt" height="227pt"
 viewBox="0.00 0.00 256.00 227.00" xmlns="http://www.w3.org/2000/svg" xmlns:xlink="http://www.w3.org/1999/xlink">
<g id="graph0" class="graph" transform="scale(1 1) rotate(0) translate(4 223)">
<title>G</title>
<polygon fill="white" stroke="none" points="-4,4 -4,-223 252,-223 252,4 -4,4"/>
<g id="clust1" class="cluster">
<title>cluster_pool_u64</title>
<polygon fill="none" stroke="black" points="8,-64 8,-211 240,-211 240,-64 8,-64"/>
<text text-anchor="middle" x="124" y="-195.8" font-family="Times,serif" font-size="14.00">pool_u64</text>
</g>
<!-- add -->
<g id="node1" class="node">
<title>add</title>
<ellipse fill="none" stroke="black" cx="131" cy="-18" rx="27" ry="18"/>
<text text-anchor="middle" x="131" y="-14.3" font-family="Times,serif" font-size="14.00">add</text>
</g>
<!-- pool_u64::add_shares -->
<g id="node2" class="node">
<title>pool_u64::add_shares</title>
<ellipse fill="none" stroke="black" cx="131" cy="-90" rx="50.09" ry="18"/>
<text text-anchor="middle" x="131" y="-86.3" font-family="Times,serif" font-size="14.00">add_shares</text>
</g>
<!-- pool_u64::add_shares&#45;&gt;add -->
<g id="edge1" class="edge">
<title>pool_u64::add_shares&#45;&gt;add</title>
<path fill="none" stroke="black" d="M131,-71.7C131,-64.41 131,-55.73 131,-47.54"/>
<polygon fill="black" stroke="black" points="134.5,-47.62 131,-37.62 127.5,-47.62 134.5,-47.62"/>
</g>
<!-- pool_u64::buy_in -->
<g id="node3" class="node">
<title>pool_u64::buy_in</title>
<ellipse fill="none" stroke="black" cx="197" cy="-162" rx="35.19" ry="18"/>
<text text-anchor="middle" x="197" y="-158.3" font-family="Times,serif" font-size="14.00">buy_in</text>
</g>
<!-- pool_u64::buy_in&#45;&gt;pool_u64::add_shares -->
<g id="edge2" class="edge">
<title>pool_u64::buy_in&#45;&gt;pool_u64::add_shares</title>
<path fill="none" stroke="black" d="M182.35,-145.46C174.13,-136.74 163.67,-125.65 154.35,-115.76"/>
<polygon fill="black" stroke="black" points="156.97,-113.44 147.56,-108.57 151.88,-118.25 156.97,-113.44"/>
</g>
<!-- pool_u64::transfer_shares -->
<g id="node4" class="node">
<title>pool_u64::transfer_shares</title>
<ellipse fill="none" stroke="black" cx="80" cy="-162" rx="63.89" ry="18"/>
<text text-anchor="middle" x="80" y="-158.3" font-family="Times,serif" font-size="14.00">transfer_shares</text>
</g>
<!-- pool_u64::transfer_shares&#45;&gt;pool_u64::add_shares -->
<g id="edge3" class="edge">
<title>pool_u64::transfer_shares&#45;&gt;pool_u64::add_shares</title>
<path fill="none" stroke="black" d="M92.35,-144.05C98.3,-135.89 105.56,-125.91 112.19,-116.82"/>
<polygon fill="black" stroke="black" points="114.82,-119.16 117.88,-109.01 109.16,-115.03 114.82,-119.16"/>
</g>
</g>
</svg>
