<?xml version="1.0" encoding="UTF-8" standalone="no"?>
<!DOCTYPE svg PUBLIC "-//W3C//DTD SVG 1.1//EN"
 "http://www.w3.org/Graphics/SVG/1.1/DTD/svg11.dtd">
<!-- Generated by graphviz version 7.0.4 (20221203.1631)
 -->
<!-- Title: G Pages: 1 -->
<svg width="517pt" height="365pt"
 viewBox="0.00 0.00 517.09 365.00" xmlns="http://www.w3.org/2000/svg" xmlns:xlink="http://www.w3.org/1999/xlink">
<g id="graph0" class="graph" transform="scale(1 1) rotate(0) translate(4 361)">
<title>G</title>
<polygon fill="white" stroke="none" points="-4,4 -4,-361 513.09,-361 513.09,4 -4,4"/>
<g id="clust1" class="cluster">
<title>cluster_vector</title>
<polygon fill="none" stroke="black" points="8,-8 8,-155 248,-155 248,-8 8,-8"/>
<text text-anchor="middle" x="128" y="-139.8" font-family="Times,serif" font-size="14.00">vector</text>
</g>
<g id="clust2" class="cluster">
<title>cluster_error</title>
<polygon fill="none" stroke="black" points="54,-163 54,-313 216,-313 216,-163 54,-163"/>
<text text-anchor="middle" x="135" y="-297.8" font-family="Times,serif" font-size="14.00">error</text>
</g>
<g id="clust3" class="cluster">
<title>cluster_option</title>
<polygon fill="none" stroke="black" points="256,-80 256,-238 492,-238 492,-80 256,-80"/>
<text text-anchor="middle" x="374" y="-222.8" font-family="Times,serif" font-size="14.00">option</text>
</g>
<!-- remove -->
<g id="node1" class="node">
<title>remove</title>
<ellipse fill="none" stroke="black" cx="298" cy="-339" rx="37.89" ry="18"/>
<text text-anchor="middle" x="298" y="-335.3" font-family="Times,serif" font-size="14.00">remove</text>
</g>
<!-- vector::swap_remove -->
<g id="node2" class="node">
<title>vector::swap_remove</title>
<ellipse fill="none" stroke="black" cx="76" cy="-106" rx="59.59" ry="18"/>
<text text-anchor="middle" x="76" y="-102.3" font-family="Times,serif" font-size="14.00">swap_remove</text>
</g>
<!-- remove&#45;&gt;vector::swap_remove -->
<g id="edge1" class="edge">
<title>remove&#45;&gt;vector::swap_remove</title>
<path fill="none" stroke="black" d="M290.04,-321.08C280.75,-301.25 265.01,-267.35 252,-238 237.31,-204.87 249.14,-184.55 220,-163 206.52,-153.03 160.7,-160.86 145,-155 130,-149.41 115.19,-139.79 103.16,-130.64"/>
<polygon fill="black" stroke="black" points="105.34,-127.9 95.34,-124.41 100.99,-133.38 105.34,-127.9"/>
</g>
<!-- error::invalid_argument -->
<g id="node3" class="node">
<title>error::invalid_argument</title>
<ellipse fill="none" stroke="black" cx="135" cy="-264" rx="73.39" ry="18"/>
<text text-anchor="middle" x="135" y="-260.3" font-family="Times,serif" font-size="14.00">invalid_argument</text>
</g>
<!-- remove&#45;&gt;error::invalid_argument -->
<g id="edge2" class="edge">
<title>remove&#45;&gt;error::invalid_argument</title>
<path fill="none" stroke="black" d="M266.08,-328.95C252.3,-324.68 236.13,-319.16 222,-313 204.75,-305.48 186.4,-295.65 171.02,-286.85"/>
<polygon fill="black" stroke="black" points="173.1,-284.01 162.69,-282.01 169.58,-290.06 173.1,-284.01"/>
</g>
<!-- option::extract -->
<g id="node4" class="node">
<title>option::extract</title>
<ellipse fill="none" stroke="black" cx="298" cy="-189" rx="34.39" ry="18"/>
<text text-anchor="middle" x="298" y="-185.3" font-family="Times,serif" font-size="14.00">extract</text>
</g>
<!-- remove&#45;&gt;option::extract -->
<g id="edge3" class="edge">
<title>remove&#45;&gt;option::extract</title>
<path fill="none" stroke="black" d="M298,-320.73C298,-295.67 298,-248.9 298,-218.63"/>
<polygon fill="black" stroke="black" points="301.5,-218.67 298,-208.67 294.5,-218.67 301.5,-218.67"/>
</g>
<!-- option::is_some -->
<g id="node5" class="node">
<title>option::is_some</title>
<ellipse fill="none" stroke="black" cx="304" cy="-106" rx="40.09" ry="18"/>
<text text-anchor="middle" x="304" y="-102.3" font-family="Times,serif" font-size="14.00">is_some</text>
</g>
<!-- remove&#45;&gt;option::is_some -->
<g id="edge4" class="edge">
<title>remove&#45;&gt;option::is_some</title>
<path fill="none" stroke="black" d="M335.29,-335.16C358.95,-332.14 389.59,-325.89 414,-313 480.63,-277.82 538.08,-223.37 493,-163 476.19,-140.49 403.18,-123.81 352.99,-114.75"/>
<polygon fill="black" stroke="black" points="353.66,-111.32 343.2,-113.04 352.45,-118.21 353.66,-111.32"/>
</g>
<!-- find -->
<g id="node6" class="node">
<title>find</title>
<ellipse fill="none" stroke="black" cx="378" cy="-264" rx="27" ry="18"/>
<text text-anchor="middle" x="378" y="-260.3" font-family="Times,serif" font-size="14.00">find</text>
</g>
<!-- remove&#45;&gt;find -->
<g id="edge5" class="edge">
<title>remove&#45;&gt;find</title>
<path fill="none" stroke="black" d="M314.97,-322.52C326.37,-312.11 341.56,-298.25 354.17,-286.74"/>
<polygon fill="black" stroke="black" points="356.27,-289.57 361.3,-280.24 351.55,-284.4 356.27,-289.57"/>
</g>
<!-- vector::is_empty -->
<g id="node7" class="node">
<title>vector::is_empty</title>
<ellipse fill="none" stroke="black" cx="136" cy="-34" rx="43.59" ry="18"/>
<text text-anchor="middle" x="136" y="-30.3" font-family="Times,serif" font-size="14.00">is_empty</text>
</g>
<!-- vector::swap_remove&#45;&gt;vector::is_empty -->
<g id="edge6" class="edge">
<title>vector::swap_remove&#45;&gt;vector::is_empty</title>
<path fill="none" stroke="black" d="M90.52,-88.05C97.78,-79.59 106.69,-69.19 114.7,-59.84"/>
<polygon fill="black" stroke="black" points="117.19,-62.33 121.04,-52.46 111.87,-57.77 117.19,-62.33"/>
</g>
<!-- error::canonical -->
<g id="node8" class="node">
<title>error::canonical</title>
<ellipse fill="none" stroke="black" cx="135" cy="-189" rx="44.39" ry="18"/>
<text text-anchor="middle" x="135" y="-185.3" font-family="Times,serif" font-size="14.00">canonical</text>
</g>
<!-- error::invalid_argument&#45;&gt;error::canonical -->
<g id="edge7" class="edge">
<title>error::invalid_argument&#45;&gt;error::canonical</title>
<path fill="none" stroke="black" d="M135,-245.7C135,-237.67 135,-227.9 135,-218.8"/>
<polygon fill="black" stroke="black" points="138.5,-218.94 135,-208.94 131.5,-218.94 138.5,-218.94"/>
</g>
<!-- option::extract&#45;&gt;option::is_some -->
<g id="edge8" class="edge">
<title>option::extract&#45;&gt;option::is_some</title>
<path fill="none" stroke="black" d="M299.27,-170.82C300.03,-160.58 301.01,-147.33 301.89,-135.55"/>
<polygon fill="black" stroke="black" points="305.35,-136.17 302.6,-125.94 298.37,-135.66 305.35,-136.17"/>
</g>
<!-- option::is_some&#45;&gt;vector::is_empty -->
<g id="edge9" class="edge">
<title>option::is_some&#45;&gt;vector::is_empty</title>
<path fill="none" stroke="black" d="M278,-92.01C269.75,-88.02 260.55,-83.71 252,-80 227.93,-69.56 200.58,-58.9 178.49,-50.57"/>
<polygon fill="black" stroke="black" points="179.79,-47.32 169.2,-47.1 177.34,-53.88 179.79,-47.32"/>
</g>
<!-- option::none -->
<g id="node9" class="node">
<title>option::none</title>
<ellipse fill="none" stroke="black" cx="378" cy="-189" rx="27.9" ry="18"/>
<text text-anchor="middle" x="378" y="-185.3" font-family="Times,serif" font-size="14.00">none</text>
</g>
<!-- find&#45;&gt;option::none -->
<g id="edge10" class="edge">
<title>find&#45;&gt;option::none</title>
<path fill="none" stroke="black" d="M378,-245.7C378,-237.67 378,-227.9 378,-218.8"/>
<polygon fill="black" stroke="black" points="381.5,-218.94 378,-208.94 374.5,-218.94 381.5,-218.94"/>
</g>
<!-- option::some -->
<g id="node10" class="node">
<title>option::some</title>
<ellipse fill="none" stroke="black" cx="454" cy="-189" rx="29.8" ry="18"/>
<text text-anchor="middle" x="454" y="-185.3" font-family="Times,serif" font-size="14.00">some</text>
</g>
<!-- find&#45;&gt;option::some -->
<g id="edge11" class="edge">
<title>find&#45;&gt;option::some</title>
<path fill="none" stroke="black" d="M397.62,-251.3C403.48,-247.4 409.74,-242.82 415,-238 422.43,-231.2 429.66,-222.93 435.83,-215.19"/>
<polygon fill="black" stroke="black" points="438.54,-217.4 441.85,-207.34 432.98,-213.14 438.54,-217.4"/>
</g>
<!-- vector::singleton -->
<g id="node11" class="node">
<title>vector::singleton</title>
<ellipse fill="none" stroke="black" cx="197" cy="-106" rx="42.79" ry="18"/>
<text text-anchor="middle" x="197" y="-102.3" font-family="Times,serif" font-size="14.00">singleton</text>
</g>
<!-- option::some&#45;&gt;vector::singleton -->
<g id="edge12" class="edge">
<title>option::some&#45;&gt;vector::singleton</title>
<path fill="none" stroke="black" d="M436.74,-174.19C430.29,-169.8 422.66,-165.45 415,-163 380.46,-151.95 285.63,-168.56 252,-155 239.4,-149.92 227.71,-140.68 218.38,-131.65"/>
<polygon fill="black" stroke="black" points="221.04,-129.37 211.56,-124.63 216.02,-134.25 221.04,-129.37"/>
</g>
</g>
</svg>
