<?xml version="1.0" encoding="UTF-8" standalone="no"?>
<!DOCTYPE svg PUBLIC "-//W3C//DTD SVG 1.1//EN"
 "http://www.w3.org/Graphics/SVG/1.1/DTD/svg11.dtd">
<!-- Generated by graphviz version 7.0.4 (20221203.1631)
 -->
<!-- Title: G Pages: 1 -->
<svg width="184pt" height="207pt"
 viewBox="0.00 0.00 184.00 207.00" xmlns="http://www.w3.org/2000/svg" xmlns:xlink="http://www.w3.org/1999/xlink">
<g id="graph0" class="graph" transform="scale(1 1) rotate(0) translate(4 203)">
<title>G</title>
<polygon fill="white" stroke="none" points="-4,4 -4,-203 180,-203 180,4 -4,4"/>
<g id="clust1" class="cluster">
<title>cluster_table</title>
<polygon fill="none" stroke="black" points="8,-8 8,-155 168,-155 168,-8 8,-8"/>
<text text-anchor="middle" x="88" y="-139.8" font-family="Times,serif" font-size="14.00">table</text>
</g>
<!-- borrow_mut -->
<g id="node1" class="node">
<title>borrow_mut</title>
<ellipse fill="none" stroke="black" cx="88" cy="-181" rx="54.69" ry="18"/>
<text text-anchor="middle" x="88" y="-177.3" font-family="Times,serif" font-size="14.00">borrow_mut</text>
</g>
<!-- table::borrow_mut -->
<g id="node2" class="node">
<title>table::borrow_mut</title>
<ellipse fill="none" stroke="black" cx="88" cy="-106" rx="54.69" ry="18"/>
<text text-anchor="middle" x="88" y="-102.3" font-family="Times,serif" font-size="14.00">borrow_mut</text>
</g>
<!-- borrow_mut&#45;&gt;table::borrow_mut -->
<g id="edge1" class="edge">
<title>borrow_mut&#45;&gt;table::borrow_mut</title>
<path fill="none" stroke="black" d="M88,-162.7C88,-154.67 88,-144.9 88,-135.8"/>
<polygon fill="black" stroke="black" points="91.5,-135.94 88,-125.94 84.5,-135.94 91.5,-135.94"/>
</g>
<!-- table::borrow_box_mut -->
<g id="node3" class="node">
<title>table::borrow_box_mut</title>
<ellipse fill="none" stroke="black" cx="88" cy="-34" rx="72.29" ry="18"/>
<text text-anchor="middle" x="88" y="-30.3" font-family="Times,serif" font-size="14.00">borrow_box_mut</text>
</g>
<!-- table::borrow_mut&#45;&gt;table::borrow_box_mut -->
<g id="edge2" class="edge">
<title>table::borrow_mut&#45;&gt;table::borrow_box_mut</title>
<path fill="none" stroke="black" d="M88,-87.7C88,-80.41 88,-71.73 88,-63.54"/>
<polygon fill="black" stroke="black" points="91.5,-63.62 88,-53.62 84.5,-63.62 91.5,-63.62"/>
</g>
</g>
</svg>
