<?xml version="1.0" encoding="UTF-8" standalone="no"?>
<!DOCTYPE svg PUBLIC "-//W3C//DTD SVG 1.1//EN"
 "http://www.w3.org/Graphics/SVG/1.1/DTD/svg11.dtd">
<!-- Generated by graphviz version 7.0.4 (20221203.1631)
 -->
<!-- Title: G Pages: 1 -->
<svg width="156pt" height="116pt"
 viewBox="0.00 0.00 156.19 116.00" xmlns="http://www.w3.org/2000/svg" xmlns:xlink="http://www.w3.org/1999/xlink">
<g id="graph0" class="graph" transform="scale(1 1) rotate(0) translate(4 112)">
<title>G</title>
<polygon fill="white" stroke="none" points="-4,4 -4,-112 152.19,-112 152.19,4 -4,4"/>
<!-- table_with_length -->
<g id="node1" class="node">
<title>table_with_length</title>
<ellipse fill="none" stroke="black" cx="74.09" cy="-90" rx="74.19" ry="18"/>
<text text-anchor="middle" x="74.09" y="-86.3" font-family="Times,serif" font-size="14.00">table_with_length</text>
</g>
<!-- error -->
<g id="node2" class="node">
<title>error</title>
<ellipse fill="none" stroke="black" cx="37.09" cy="-18" rx="27.9" ry="18"/>
<text text-anchor="middle" x="37.09" y="-14.3" font-family="Times,serif" font-size="14.00">error</text>
</g>
<!-- table_with_length&#45;&gt;error -->
<g id="edge1" class="edge">
<title>table_with_length&#45;&gt;error</title>
<path fill="none" stroke="black" d="M64.95,-71.7C60.7,-63.67 55.57,-53.95 50.86,-45.05"/>
<polygon fill="black" stroke="black" points="54.1,-43.69 46.33,-36.48 47.91,-46.96 54.1,-43.69"/>
</g>
<!-- table -->
<g id="node3" class="node">
<title>table</title>
<ellipse fill="none" stroke="black" cx="111.09" cy="-18" rx="27.9" ry="18"/>
<text text-anchor="middle" x="111.09" y="-14.3" font-family="Times,serif" font-size="14.00">table</text>
</g>
<!-- table_with_length&#45;&gt;table -->
<g id="edge2" class="edge">
<title>table_with_length&#45;&gt;table</title>
<path fill="none" stroke="black" d="M83.24,-71.7C87.48,-63.67 92.62,-53.95 97.32,-45.05"/>
<polygon fill="black" stroke="black" points="100.27,-46.96 101.85,-36.48 94.09,-43.69 100.27,-46.96"/>
</g>
</g>
</svg>
