<?xml version="1.0" encoding="UTF-8" standalone="no"?>
<!DOCTYPE svg PUBLIC "-//W3C//DTD SVG 1.1//EN"
 "http://www.w3.org/Graphics/SVG/1.1/DTD/svg11.dtd">
<!-- Generated by graphviz version 7.0.4 (20221203.1631)
 -->
<!-- Title: G Pages: 1 -->
<svg width="150pt" height="207pt"
 viewBox="0.00 0.00 150.00 207.00" xmlns="http://www.w3.org/2000/svg" xmlns:xlink="http://www.w3.org/1999/xlink">
<g id="graph0" class="graph" transform="scale(1 1) rotate(0) translate(4 203)">
<title>G</title>
<polygon fill="white" stroke="none" points="-4,4 -4,-203 146,-203 146,4 -4,4"/>
<g id="clust1" class="cluster">
<title>cluster_table</title>
<polygon fill="none" stroke="black" points="8,-8 8,-155 134,-155 134,-8 8,-8"/>
<text text-anchor="middle" x="71" y="-139.8" font-family="Times,serif" font-size="14.00">table</text>
</g>
<!-- remove -->
<g id="node1" class="node">
<title>remove</title>
<ellipse fill="none" stroke="black" cx="71" cy="-181" rx="37.89" ry="18"/>
<text text-anchor="middle" x="71" y="-177.3" font-family="Times,serif" font-size="14.00">remove</text>
</g>
<!-- table::remove -->
<g id="node2" class="node">
<title>table::remove</title>
<ellipse fill="none" stroke="black" cx="71" cy="-106" rx="37.89" ry="18"/>
<text text-anchor="middle" x="71" y="-102.3" font-family="Times,serif" font-size="14.00">remove</text>
</g>
<!-- remove&#45;&gt;table::remove -->
<g id="edge1" class="edge">
<title>remove&#45;&gt;table::remove</title>
<path fill="none" stroke="black" d="M71,-162.7C71,-154.67 71,-144.9 71,-135.8"/>
<polygon fill="black" stroke="black" points="74.5,-135.94 71,-125.94 67.5,-135.94 74.5,-135.94"/>
</g>
<!-- table::remove_box -->
<g id="node3" class="node">
<title>table::remove_box</title>
<ellipse fill="none" stroke="black" cx="71" cy="-34" rx="55.49" ry="18"/>
<text text-anchor="middle" x="71" y="-30.3" font-family="Times,serif" font-size="14.00">remove_box</text>
</g>
<!-- table::remove&#45;&gt;table::remove_box -->
<g id="edge2" class="edge">
<title>table::remove&#45;&gt;table::remove_box</title>
<path fill="none" stroke="black" d="M71,-87.7C71,-80.41 71,-71.73 71,-63.54"/>
<polygon fill="black" stroke="black" points="74.5,-63.62 71,-53.62 67.5,-63.62 74.5,-63.62"/>
</g>
</g>
</svg>
