<?xml version="1.0" encoding="UTF-8" standalone="no"?>
<!DOCTYPE svg PUBLIC "-//W3C//DTD SVG 1.1//EN"
 "http://www.w3.org/Graphics/SVG/1.1/DTD/svg11.dtd">
<!-- Generated by graphviz version 7.0.4 (20221203.1631)
 -->
<!-- Title: G Pages: 1 -->
<svg width="138pt" height="227pt"
 viewBox="0.00 0.00 138.00 227.00" xmlns="http://www.w3.org/2000/svg" xmlns:xlink="http://www.w3.org/1999/xlink">
<g id="graph0" class="graph" transform="scale(1 1) rotate(0) translate(4 223)">
<title>G</title>
<polygon fill="white" stroke="none" points="-4,4 -4,-223 134,-223 134,4 -4,4"/>
<g id="clust1" class="cluster">
<title>cluster_table_with_length</title>
<polygon fill="none" stroke="black" points="8,-136 8,-211 122,-211 122,-136 8,-136"/>
<text text-anchor="middle" x="65" y="-195.8" font-family="Times,serif" font-size="14.00">table_with_length</text>
</g>
<!-- borrow_box -->
<g id="node1" class="node">
<title>borrow_box</title>
<ellipse fill="none" stroke="black" cx="65" cy="-18" rx="53.89" ry="18"/>
<text text-anchor="middle" x="65" y="-14.3" font-family="Times,serif" font-size="14.00">borrow_box</text>
</g>
<!-- borrow -->
<g id="node2" class="node">
<title>borrow</title>
<ellipse fill="none" stroke="black" cx="65" cy="-90" rx="36.29" ry="18"/>
<text text-anchor="middle" x="65" y="-86.3" font-family="Times,serif" font-size="14.00">borrow</text>
</g>
<!-- borrow&#45;&gt;borrow_box -->
<g id="edge1" class="edge">
<title>borrow&#45;&gt;borrow_box</title>
<path fill="none" stroke="black" d="M65,-71.7C65,-64.41 65,-55.73 65,-47.54"/>
<polygon fill="black" stroke="black" points="68.5,-47.62 65,-37.62 61.5,-47.62 68.5,-47.62"/>
</g>
<!-- table_with_length::borrow -->
<g id="node3" class="node">
<title>table_with_length::borrow</title>
<ellipse fill="none" stroke="black" cx="65" cy="-162" rx="36.29" ry="18"/>
<text text-anchor="middle" x="65" y="-158.3" font-family="Times,serif" font-size="14.00">borrow</text>
</g>
<!-- table_with_length::borrow&#45;&gt;borrow -->
<g id="edge2" class="edge">
<title>table_with_length::borrow&#45;&gt;borrow</title>
<path fill="none" stroke="black" d="M65,-143.7C65,-136.41 65,-127.73 65,-119.54"/>
<polygon fill="black" stroke="black" points="68.5,-119.62 65,-109.62 61.5,-119.62 68.5,-119.62"/>
</g>
</g>
</svg>
