<?xml version="1.0" encoding="UTF-8" standalone="no"?>
<!DOCTYPE svg PUBLIC "-//W3C//DTD SVG 1.1//EN"
 "http://www.w3.org/Graphics/SVG/1.1/DTD/svg11.dtd">
<!-- Generated by graphviz version 7.0.4 (20221203.1631)
 -->
<!-- Title: G Pages: 1 -->
<svg width="386pt" height="188pt"
 viewBox="0.00 0.00 385.79 188.00" xmlns="http://www.w3.org/2000/svg" xmlns:xlink="http://www.w3.org/1999/xlink">
<g id="graph0" class="graph" transform="scale(1 1) rotate(0) translate(4 184)">
<title>G</title>
<polygon fill="white" stroke="none" points="-4,4 -4,-184 381.79,-184 381.79,4 -4,4"/>
<!-- borrow_mut_with_default -->
<g id="node1" class="node">
<title>borrow_mut_with_default</title>
<ellipse fill="none" stroke="black" cx="205.84" cy="-162" rx="103.18" ry="18"/>
<text text-anchor="middle" x="205.84" y="-158.3" font-family="Times,serif" font-size="14.00">borrow_mut_with_default</text>
</g>
<!-- contains -->
<g id="node2" class="node">
<title>contains</title>
<ellipse fill="none" stroke="black" cx="75.84" cy="-90" rx="40.09" ry="18"/>
<text text-anchor="middle" x="75.84" y="-86.3" font-family="Times,serif" font-size="14.00">contains</text>
</g>
<!-- borrow_mut_with_default&#45;&gt;contains -->
<g id="edge1" class="edge">
<title>borrow_mut_with_default&#45;&gt;contains</title>
<path fill="none" stroke="black" d="M175.04,-144.41C155.73,-134.01 130.79,-120.59 110.75,-109.8"/>
<polygon fill="black" stroke="black" points="112.57,-106.8 102.11,-105.14 109.25,-112.96 112.57,-106.8"/>
</g>
<!-- borrow_mut -->
<g id="node3" class="node">
<title>borrow_mut</title>
<ellipse fill="none" stroke="black" cx="205.84" cy="-90" rx="54.69" ry="18"/>
<text text-anchor="middle" x="205.84" y="-86.3" font-family="Times,serif" font-size="14.00">borrow_mut</text>
</g>
<!-- borrow_mut_with_default&#45;&gt;borrow_mut -->
<g id="edge2" class="edge">
<title>borrow_mut_with_default&#45;&gt;borrow_mut</title>
<path fill="none" stroke="black" d="M205.84,-143.7C205.84,-136.41 205.84,-127.73 205.84,-119.54"/>
<polygon fill="black" stroke="black" points="209.34,-119.62 205.84,-109.62 202.34,-119.62 209.34,-119.62"/>
</g>
<!-- add -->
<g id="node4" class="node">
<title>add</title>
<ellipse fill="none" stroke="black" cx="320.84" cy="-90" rx="27" ry="18"/>
<text text-anchor="middle" x="320.84" y="-86.3" font-family="Times,serif" font-size="14.00">add</text>
</g>
<!-- borrow_mut_with_default&#45;&gt;add -->
<g id="edge3" class="edge">
<title>borrow_mut_with_default&#45;&gt;add</title>
<path fill="none" stroke="black" d="M233.39,-144.23C251.03,-133.5 273.88,-119.59 291.8,-108.68"/>
<polygon fill="black" stroke="black" points="293.43,-111.79 300.15,-103.6 289.79,-105.81 293.43,-111.79"/>
</g>
<!-- contains_box -->
<g id="node5" class="node">
<title>contains_box</title>
<ellipse fill="none" stroke="black" cx="57.84" cy="-18" rx="57.69" ry="18"/>
<text text-anchor="middle" x="57.84" y="-14.3" font-family="Times,serif" font-size="14.00">contains_box</text>
</g>
<!-- contains&#45;&gt;contains_box -->
<g id="edge4" class="edge">
<title>contains&#45;&gt;contains_box</title>
<path fill="none" stroke="black" d="M71.4,-71.7C69.5,-64.32 67.24,-55.52 65.11,-47.25"/>
<polygon fill="black" stroke="black" points="68.5,-46.38 62.62,-37.57 61.72,-48.13 68.5,-46.38"/>
</g>
<!-- borrow_box_mut -->
<g id="node6" class="node">
<title>borrow_box_mut</title>
<ellipse fill="none" stroke="black" cx="205.84" cy="-18" rx="72.29" ry="18"/>
<text text-anchor="middle" x="205.84" y="-14.3" font-family="Times,serif" font-size="14.00">borrow_box_mut</text>
</g>
<!-- borrow_mut&#45;&gt;borrow_box_mut -->
<g id="edge5" class="edge">
<title>borrow_mut&#45;&gt;borrow_box_mut</title>
<path fill="none" stroke="black" d="M205.84,-71.7C205.84,-64.41 205.84,-55.73 205.84,-47.54"/>
<polygon fill="black" stroke="black" points="209.34,-47.62 205.84,-37.62 202.34,-47.62 209.34,-47.62"/>
</g>
<!-- add_box -->
<g id="node7" class="node">
<title>add_box</title>
<ellipse fill="none" stroke="black" cx="336.84" cy="-18" rx="40.89" ry="18"/>
<text text-anchor="middle" x="336.84" y="-14.3" font-family="Times,serif" font-size="14.00">add_box</text>
</g>
<!-- add&#45;&gt;add_box -->
<g id="edge6" class="edge">
<title>add&#45;&gt;add_box</title>
<path fill="none" stroke="black" d="M324.8,-71.7C326.49,-64.32 328.5,-55.52 330.39,-47.25"/>
<polygon fill="black" stroke="black" points="333.78,-48.11 332.6,-37.58 326.96,-46.55 333.78,-48.11"/>
</g>
</g>
</svg>
