<?xml version="1.0" encoding="UTF-8" standalone="no"?>
<!DOCTYPE svg PUBLIC "-//W3C//DTD SVG 1.1//EN"
 "http://www.w3.org/Graphics/SVG/1.1/DTD/svg11.dtd">
<!-- Generated by graphviz version 7.0.4 (20221203.1631)
 -->
<!-- Title: G Pages: 1 -->
<svg width="618pt" height="227pt"
 viewBox="0.00 0.00 618.34 227.00" xmlns="http://www.w3.org/2000/svg" xmlns:xlink="http://www.w3.org/1999/xlink">
<g id="graph0" class="graph" transform="scale(1 1) rotate(0) translate(4 223)">
<title>G</title>
<polygon fill="white" stroke="none" points="-4,4 -4,-223 614.34,-223 614.34,4 -4,4"/>
<g id="clust1" class="cluster">
<title>cluster_table_with_length</title>
<polygon fill="none" stroke="black" points="297.34,-64 297.34,-211 602.34,-211 602.34,-64 297.34,-64"/>
<text text-anchor="middle" x="449.84" y="-195.8" font-family="Times,serif" font-size="14.00">table_with_length</text>
</g>
<!-- add -->
<g id="node1" class="node">
<title>add</title>
<ellipse fill="none" stroke="black" cx="295.34" cy="-18" rx="27" ry="18"/>
<text text-anchor="middle" x="295.34" y="-14.3" font-family="Times,serif" font-size="14.00">add</text>
</g>
<!-- borrow_mut_with_default -->
<g id="node2" class="node">
<title>borrow_mut_with_default</title>
<ellipse fill="none" stroke="black" cx="103.34" cy="-90" rx="103.18" ry="18"/>
<text text-anchor="middle" x="103.34" y="-86.3" font-family="Times,serif" font-size="14.00">borrow_mut_with_default</text>
</g>
<!-- borrow_mut_with_default&#45;&gt;add -->
<g id="edge1" class="edge">
<title>borrow_mut_with_default&#45;&gt;add</title>
<path fill="none" stroke="black" d="M146.43,-73.29C181.14,-60.63 229.28,-43.08 261.33,-31.4"/>
<polygon fill="black" stroke="black" points="262.32,-34.76 270.52,-28.05 259.92,-28.19 262.32,-34.76"/>
</g>
<!-- upsert -->
<g id="node3" class="node">
<title>upsert</title>
<ellipse fill="none" stroke="black" cx="257.34" cy="-90" rx="32.49" ry="18"/>
<text text-anchor="middle" x="257.34" y="-86.3" font-family="Times,serif" font-size="14.00">upsert</text>
</g>
<!-- upsert&#45;&gt;add -->
<g id="edge2" class="edge">
<title>upsert&#45;&gt;add</title>
<path fill="none" stroke="black" d="M266.35,-72.41C270.7,-64.39 276.03,-54.57 280.93,-45.54"/>
<polygon fill="black" stroke="black" points="283.98,-47.26 285.68,-36.8 277.83,-43.92 283.98,-47.26"/>
</g>
<!-- table_with_length::add -->
<g id="node4" class="node">
<title>table_with_length::add</title>
<ellipse fill="none" stroke="black" cx="335.34" cy="-90" rx="27" ry="18"/>
<text text-anchor="middle" x="335.34" y="-86.3" font-family="Times,serif" font-size="14.00">add</text>
</g>
<!-- table_with_length::add&#45;&gt;add -->
<g id="edge3" class="edge">
<title>table_with_length::add&#45;&gt;add</title>
<path fill="none" stroke="black" d="M326.06,-72.76C321.37,-64.55 315.55,-54.37 310.25,-45.09"/>
<polygon fill="black" stroke="black" points="313.32,-43.41 305.32,-36.46 307.24,-46.88 313.32,-43.41"/>
</g>
<!-- table_with_length::borrow_mut_with_default -->
<g id="node5" class="node">
<title>table_with_length::borrow_mut_with_default</title>
<ellipse fill="none" stroke="black" cx="491.34" cy="-162" rx="103.18" ry="18"/>
<text text-anchor="middle" x="491.34" y="-158.3" font-family="Times,serif" font-size="14.00">borrow_mut_with_default</text>
</g>
<!-- table_with_length::borrow_mut_with_default&#45;&gt;add -->
<g id="edge4" class="edge">
<title>table_with_length::borrow_mut_with_default&#45;&gt;add</title>
<path fill="none" stroke="black" d="M472.07,-143.96C448.91,-123.83 408.52,-89.83 371.34,-64 356.75,-53.86 339.8,-43.68 325.61,-35.58"/>
<polygon fill="black" stroke="black" points="327.59,-32.67 317.16,-30.81 324.15,-38.77 327.59,-32.67"/>
</g>
<!-- table_with_length::upsert -->
<g id="node6" class="node">
<title>table_with_length::upsert</title>
<ellipse fill="none" stroke="black" cx="337.34" cy="-162" rx="32.49" ry="18"/>
<text text-anchor="middle" x="337.34" y="-158.3" font-family="Times,serif" font-size="14.00">upsert</text>
</g>
<!-- table_with_length::upsert&#45;&gt;table_with_length::add -->
<g id="edge5" class="edge">
<title>table_with_length::upsert&#45;&gt;table_with_length::add</title>
<path fill="none" stroke="black" d="M336.85,-143.7C336.64,-136.41 336.39,-127.73 336.16,-119.54"/>
<polygon fill="black" stroke="black" points="339.66,-119.51 335.87,-109.62 332.66,-119.71 339.66,-119.51"/>
</g>
</g>
</svg>
