<?xml version="1.0" encoding="UTF-8" standalone="no"?>
<!DOCTYPE svg PUBLIC "-//W3C//DTD SVG 1.1//EN"
 "http://www.w3.org/Graphics/SVG/1.1/DTD/svg11.dtd">
<!-- Generated by graphviz version 7.0.4 (20221203.1631)
 -->
<!-- Title: G Pages: 1 -->
<svg width="157pt" height="227pt"
 viewBox="0.00 0.00 157.49 227.00" xmlns="http://www.w3.org/2000/svg" xmlns:xlink="http://www.w3.org/1999/xlink">
<g id="graph0" class="graph" transform="scale(1 1) rotate(0) translate(4 223)">
<title>G</title>
<polygon fill="white" stroke="none" points="-4,4 -4,-223 153.49,-223 153.49,4 -4,4"/>
<g id="clust1" class="cluster">
<title>cluster_table_with_length</title>
<polygon fill="none" stroke="black" points="17.74,-136 17.74,-211 131.74,-211 131.74,-136 17.74,-136"/>
<text text-anchor="middle" x="74.74" y="-195.8" font-family="Times,serif" font-size="14.00">table_with_length</text>
</g>
<!-- new_table_handle -->
<g id="node1" class="node">
<title>new_table_handle</title>
<ellipse fill="none" stroke="black" cx="74.74" cy="-18" rx="74.99" ry="18"/>
<text text-anchor="middle" x="74.74" y="-14.3" font-family="Times,serif" font-size="14.00">new_table_handle</text>
</g>
<!-- new -->
<g id="node2" class="node">
<title>new</title>
<ellipse fill="none" stroke="black" cx="74.74" cy="-90" rx="27" ry="18"/>
<text text-anchor="middle" x="74.74" y="-86.3" font-family="Times,serif" font-size="14.00">new</text>
</g>
<!-- new&#45;&gt;new_table_handle -->
<g id="edge1" class="edge">
<title>new&#45;&gt;new_table_handle</title>
<path fill="none" stroke="black" d="M74.74,-71.7C74.74,-64.41 74.74,-55.73 74.74,-47.54"/>
<polygon fill="black" stroke="black" points="78.24,-47.62 74.74,-37.62 71.24,-47.62 78.24,-47.62"/>
</g>
<!-- table_with_length::new -->
<g id="node3" class="node">
<title>table_with_length::new</title>
<ellipse fill="none" stroke="black" cx="74.74" cy="-162" rx="27" ry="18"/>
<text text-anchor="middle" x="74.74" y="-158.3" font-family="Times,serif" font-size="14.00">new</text>
</g>
<!-- table_with_length::new&#45;&gt;new -->
<g id="edge2" class="edge">
<title>table_with_length::new&#45;&gt;new</title>
<path fill="none" stroke="black" d="M74.74,-143.7C74.74,-136.41 74.74,-127.73 74.74,-119.54"/>
<polygon fill="black" stroke="black" points="78.24,-119.62 74.74,-109.62 71.24,-119.62 78.24,-119.62"/>
</g>
</g>
</svg>
