<?xml version="1.0" encoding="UTF-8" standalone="no"?>
<!DOCTYPE svg PUBLIC "-//W3C//DTD SVG 1.1//EN"
 "http://www.w3.org/Graphics/SVG/1.1/DTD/svg11.dtd">
<!-- Generated by graphviz version 7.0.4 (20221203.1631)
 -->
<!-- Title: G Pages: 1 -->
<svg width="338pt" height="116pt"
 viewBox="0.00 0.00 337.99 116.00" xmlns="http://www.w3.org/2000/svg" xmlns:xlink="http://www.w3.org/1999/xlink">
<g id="graph0" class="graph" transform="scale(1 1) rotate(0) translate(4 112)">
<title>G</title>
<polygon fill="white" stroke="none" points="-4,4 -4,-112 333.99,-112 333.99,4 -4,4"/>
<!-- struct_name -->
<g id="node1" class="node">
<title>struct_name</title>
<ellipse fill="none" stroke="black" cx="150.04" cy="-18" rx="53.89" ry="18"/>
<text text-anchor="middle" x="150.04" y="-14.3" font-family="Times,serif" font-size="14.00">struct_name</text>
</g>
<!-- verify_type_of -->
<g id="node2" class="node">
<title>verify_type_of</title>
<ellipse fill="none" stroke="black" cx="63.04" cy="-90" rx="63.09" ry="18"/>
<text text-anchor="middle" x="63.04" y="-86.3" font-family="Times,serif" font-size="14.00">verify_type_of</text>
</g>
<!-- verify_type_of&#45;&gt;struct_name -->
<g id="edge1" class="edge">
<title>verify_type_of&#45;&gt;struct_name</title>
<path fill="none" stroke="black" d="M83.22,-72.76C94.53,-63.66 108.83,-52.16 121.29,-42.13"/>
<polygon fill="black" stroke="black" points="123.2,-45.09 128.8,-36.1 118.81,-39.64 123.2,-45.09"/>
</g>
<!-- verify_type_of_generic -->
<g id="node3" class="node">
<title>verify_type_of_generic</title>
<ellipse fill="none" stroke="black" cx="237.04" cy="-90" rx="92.88" ry="18"/>
<text text-anchor="middle" x="237.04" y="-86.3" font-family="Times,serif" font-size="14.00">verify_type_of_generic</text>
</g>
<!-- verify_type_of_generic&#45;&gt;struct_name -->
<g id="edge2" class="edge">
<title>verify_type_of_generic&#45;&gt;struct_name</title>
<path fill="none" stroke="black" d="M215.98,-72.05C204.84,-63.09 191,-51.95 178.88,-42.2"/>
<polygon fill="black" stroke="black" points="181.18,-39.56 171.19,-36.02 176.79,-45.01 181.18,-39.56"/>
</g>
</g>
</svg>
