<?xml version="1.0" encoding="UTF-8" standalone="no"?>
<!DOCTYPE svg PUBLIC "-//W3C//DTD SVG 1.1//EN"
 "http://www.w3.org/Graphics/SVG/1.1/DTD/svg11.dtd">
<!-- Generated by graphviz version 7.0.4 (20221203.1631)
 -->
<!-- Title: G Pages: 1 -->
<svg width="562pt" height="279pt"
 viewBox="0.00 0.00 562.14 279.00" xmlns="http://www.w3.org/2000/svg" xmlns:xlink="http://www.w3.org/1999/xlink">
<g id="graph0" class="graph" transform="scale(1 1) rotate(0) translate(4 275)">
<title>G</title>
<polygon fill="white" stroke="none" points="-4,4 -4,-275 558.14,-275 558.14,4 -4,4"/>
<g id="clust1" class="cluster">
<title>cluster_error</title>
<polygon fill="none" stroke="black" points="8,-80 8,-227 136,-227 136,-80 8,-80"/>
<text text-anchor="middle" x="72" y="-211.8" font-family="Times,serif" font-size="14.00">error</text>
</g>
<g id="clust2" class="cluster">
<title>cluster_features</title>
<polygon fill="none" stroke="black" points="144,-8 144,-227 400,-227 400,-8 144,-8"/>
<text text-anchor="middle" x="272" y="-211.8" font-family="Times,serif" font-size="14.00">features</text>
</g>
<!-- chain_id -->
<g id="node1" class="node">
<title>chain_id</title>
<ellipse fill="none" stroke="black" cx="272" cy="-253" rx="40.89" ry="18"/>
<text text-anchor="middle" x="272" y="-249.3" font-family="Times,serif" font-size="14.00">chain_id</text>
</g>
<!-- error::invalid_state -->
<g id="node2" class="node">
<title>error::invalid_state</title>
<ellipse fill="none" stroke="black" cx="72" cy="-178" rx="55.79" ry="18"/>
<text text-anchor="middle" x="72" y="-174.3" font-family="Times,serif" font-size="14.00">invalid_state</text>
</g>
<!-- chain_id&#45;&gt;error::invalid_state -->
<g id="edge1" class="edge">
<title>chain_id&#45;&gt;error::invalid_state</title>
<path fill="none" stroke="black" d="M231.73,-248.87C204.89,-245.71 169.31,-239.43 140,-227 125.51,-220.86 111.05,-211.26 99.21,-202.25"/>
<polygon fill="black" stroke="black" points="101.53,-199.62 91.51,-196.17 97.19,-205.12 101.53,-199.62"/>
</g>
<!-- features::aptos_stdlib_chain_id_enabled -->
<g id="node3" class="node">
<title>features::aptos_stdlib_chain_id_enabled</title>
<ellipse fill="none" stroke="black" cx="272" cy="-178" rx="119.68" ry="18"/>
<text text-anchor="middle" x="272" y="-174.3" font-family="Times,serif" font-size="14.00">aptos_stdlib_chain_id_enabled</text>
</g>
<!-- chain_id&#45;&gt;features::aptos_stdlib_chain_id_enabled -->
<g id="edge2" class="edge">
<title>chain_id&#45;&gt;features::aptos_stdlib_chain_id_enabled</title>
<path fill="none" stroke="black" d="M272,-234.7C272,-226.67 272,-216.9 272,-207.8"/>
<polygon fill="black" stroke="black" points="275.5,-207.94 272,-197.94 268.5,-207.94 275.5,-207.94"/>
</g>
<!-- chain_id_internal -->
<g id="node4" class="node">
<title>chain_id_internal</title>
<ellipse fill="none" stroke="black" cx="482" cy="-178" rx="72.29" ry="18"/>
<text text-anchor="middle" x="482" y="-174.3" font-family="Times,serif" font-size="14.00">chain_id_internal</text>
</g>
<!-- chain_id&#45;&gt;chain_id_internal -->
<g id="edge3" class="edge">
<title>chain_id&#45;&gt;chain_id_internal</title>
<path fill="none" stroke="black" d="M311.73,-248.3C338.49,-244.89 374.2,-238.54 404,-227 420.23,-220.72 436.83,-211.03 450.53,-202.01"/>
<polygon fill="black" stroke="black" points="452.39,-204.97 458.69,-196.46 448.46,-199.19 452.39,-204.97"/>
</g>
<!-- error::canonical -->
<g id="node5" class="node">
<title>error::canonical</title>
<ellipse fill="none" stroke="black" cx="72" cy="-106" rx="44.39" ry="18"/>
<text text-anchor="middle" x="72" y="-102.3" font-family="Times,serif" font-size="14.00">canonical</text>
</g>
<!-- error::invalid_state&#45;&gt;error::canonical -->
<g id="edge4" class="edge">
<title>error::invalid_state&#45;&gt;error::canonical</title>
<path fill="none" stroke="black" d="M72,-159.7C72,-152.41 72,-143.73 72,-135.54"/>
<polygon fill="black" stroke="black" points="75.5,-135.62 72,-125.62 68.5,-135.62 75.5,-135.62"/>
</g>
<!-- features::is_enabled -->
<g id="node6" class="node">
<title>features::is_enabled</title>
<ellipse fill="none" stroke="black" cx="272" cy="-106" rx="48.19" ry="18"/>
<text text-anchor="middle" x="272" y="-102.3" font-family="Times,serif" font-size="14.00">is_enabled</text>
</g>
<!-- features::aptos_stdlib_chain_id_enabled&#45;&gt;features::is_enabled -->
<g id="edge5" class="edge">
<title>features::aptos_stdlib_chain_id_enabled&#45;&gt;features::is_enabled</title>
<path fill="none" stroke="black" d="M272,-159.7C272,-152.41 272,-143.73 272,-135.54"/>
<polygon fill="black" stroke="black" points="275.5,-135.62 272,-125.62 268.5,-135.62 275.5,-135.62"/>
</g>
<!-- features::contains -->
<g id="node7" class="node">
<title>features::contains</title>
<ellipse fill="none" stroke="black" cx="272" cy="-34" rx="40.09" ry="18"/>
<text text-anchor="middle" x="272" y="-30.3" font-family="Times,serif" font-size="14.00">contains</text>
</g>
<!-- features::is_enabled&#45;&gt;features::contains -->
<g id="edge6" class="edge">
<title>features::is_enabled&#45;&gt;features::contains</title>
<path fill="none" stroke="black" d="M272,-87.7C272,-80.41 272,-71.73 272,-63.54"/>
<polygon fill="black" stroke="black" points="275.5,-63.62 272,-53.62 268.5,-63.62 275.5,-63.62"/>
</g>
</g>
</svg>
