<?xml version="1.0" encoding="UTF-8" standalone="no"?>
<!DOCTYPE svg PUBLIC "-//W3C//DTD SVG 1.1//EN"
 "http://www.w3.org/Graphics/SVG/1.1/DTD/svg11.dtd">
<!-- Generated by graphviz version 7.0.4 (20221203.1631)
 -->
<!-- Title: G Pages: 1 -->
<svg width="338pt" height="116pt"
 viewBox="0.00 0.00 337.99 116.00" xmlns="http://www.w3.org/2000/svg" xmlns:xlink="http://www.w3.org/1999/xlink">
<g id="graph0" class="graph" transform="scale(1 1) rotate(0) translate(4 112)">
<title>G</title>
<polygon fill="white" stroke="none" points="-4,4 -4,-112 333.99,-112 333.99,4 -4,4"/>
<!-- account_address -->
<g id="node1" class="node">
<title>account_address</title>
<ellipse fill="none" stroke="black" cx="150.04" cy="-18" rx="68.79" ry="18"/>
<text text-anchor="middle" x="150.04" y="-14.3" font-family="Times,serif" font-size="14.00">account_address</text>
</g>
<!-- verify_type_of -->
<g id="node2" class="node">
<title>verify_type_of</title>
<ellipse fill="none" stroke="black" cx="63.04" cy="-90" rx="63.09" ry="18"/>
<text text-anchor="middle" x="63.04" y="-86.3" font-family="Times,serif" font-size="14.00">verify_type_of</text>
</g>
<!-- verify_type_of&#45;&gt;account_address -->
<g id="edge1" class="edge">
<title>verify_type_of&#45;&gt;account_address</title>
<path fill="none" stroke="black" d="M83.22,-72.76C94.37,-63.79 108.42,-52.49 120.76,-42.56"/>
<polygon fill="black" stroke="black" points="122.6,-45.58 128.19,-36.58 118.21,-40.12 122.6,-45.58"/>
</g>
<!-- verify_type_of_generic -->
<g id="node3" class="node">
<title>verify_type_of_generic</title>
<ellipse fill="none" stroke="black" cx="237.04" cy="-90" rx="92.88" ry="18"/>
<text text-anchor="middle" x="237.04" y="-86.3" font-family="Times,serif" font-size="14.00">verify_type_of_generic</text>
</g>
<!-- verify_type_of_generic&#45;&gt;account_address -->
<g id="edge2" class="edge">
<title>verify_type_of_generic&#45;&gt;account_address</title>
<path fill="none" stroke="black" d="M215.98,-72.05C205,-63.22 191.4,-52.27 179.4,-42.62"/>
<polygon fill="black" stroke="black" points="181.78,-40.04 171.79,-36.5 177.39,-45.49 181.78,-40.04"/>
</g>
</g>
</svg>
