<?xml version="1.0" encoding="UTF-8" standalone="no"?>
<!DOCTYPE svg PUBLIC "-//W3C//DTD SVG 1.1//EN"
 "http://www.w3.org/Graphics/SVG/1.1/DTD/svg11.dtd">
<!-- Generated by graphviz version 7.0.4 (20221203.1631)
 -->
<!-- Title: G Pages: 1 -->
<svg width="508pt" height="116pt"
 viewBox="0.00 0.00 507.59 116.00" xmlns="http://www.w3.org/2000/svg" xmlns:xlink="http://www.w3.org/1999/xlink">
<g id="graph0" class="graph" transform="scale(1 1) rotate(0) translate(4 112)">
<title>G</title>
<polygon fill="white" stroke="none" points="-4,4 -4,-112 503.59,-112 503.59,4 -4,4"/>
<!-- verify_type_of_generic -->
<g id="node1" class="node">
<title>verify_type_of_generic</title>
<ellipse fill="none" stroke="black" cx="284.89" cy="-90" rx="92.88" ry="18"/>
<text text-anchor="middle" x="284.89" y="-86.3" font-family="Times,serif" font-size="14.00">verify_type_of_generic</text>
</g>
<!-- account_address -->
<g id="node2" class="node">
<title>account_address</title>
<ellipse fill="none" stroke="black" cx="68.89" cy="-18" rx="68.79" ry="18"/>
<text text-anchor="middle" x="68.89" y="-14.3" font-family="Times,serif" font-size="14.00">account_address</text>
</g>
<!-- verify_type_of_generic&#45;&gt;account_address -->
<g id="edge1" class="edge">
<title>verify_type_of_generic&#45;&gt;account_address</title>
<path fill="none" stroke="black" d="M238.56,-73.98C204.18,-62.84 157.27,-47.64 121.49,-36.04"/>
<polygon fill="black" stroke="black" points="122.8,-32.79 112.21,-33.04 120.64,-39.45 122.8,-32.79"/>
</g>
<!-- module_name -->
<g id="node3" class="node">
<title>module_name</title>
<ellipse fill="none" stroke="black" cx="217.89" cy="-18" rx="61.99" ry="18"/>
<text text-anchor="middle" x="217.89" y="-14.3" font-family="Times,serif" font-size="14.00">module_name</text>
</g>
<!-- verify_type_of_generic&#45;&gt;module_name -->
<g id="edge2" class="edge">
<title>verify_type_of_generic&#45;&gt;module_name</title>
<path fill="none" stroke="black" d="M268.68,-72.05C260.61,-63.63 250.7,-53.28 241.79,-43.97"/>
<polygon fill="black" stroke="black" points="244.45,-41.69 235.01,-36.88 239.4,-46.53 244.45,-41.69"/>
</g>
<!-- struct_name -->
<g id="node4" class="node">
<title>struct_name</title>
<ellipse fill="none" stroke="black" cx="351.89" cy="-18" rx="53.89" ry="18"/>
<text text-anchor="middle" x="351.89" y="-14.3" font-family="Times,serif" font-size="14.00">struct_name</text>
</g>
<!-- verify_type_of_generic&#45;&gt;struct_name -->
<g id="edge3" class="edge">
<title>verify_type_of_generic&#45;&gt;struct_name</title>
<path fill="none" stroke="black" d="M301.11,-72.05C309.3,-63.5 319.37,-52.97 328.39,-43.56"/>
<polygon fill="black" stroke="black" points="330.85,-46.04 335.24,-36.4 325.8,-41.2 330.85,-46.04"/>
</g>
<!-- type_of -->
<g id="node5" class="node">
<title>type_of</title>
<ellipse fill="none" stroke="black" cx="461.89" cy="-18" rx="37.89" ry="18"/>
<text text-anchor="middle" x="461.89" y="-14.3" font-family="Times,serif" font-size="14.00">type_of</text>
</g>
<!-- verify_type_of_generic&#45;&gt;type_of -->
<g id="edge4" class="edge">
<title>verify_type_of_generic&#45;&gt;type_of</title>
<path fill="none" stroke="black" d="M324.62,-73.29C353.9,-61.71 393.54,-46.03 422.7,-34.5"/>
<polygon fill="black" stroke="black" points="423.9,-37.79 431.91,-30.86 421.32,-31.28 423.9,-37.79"/>
</g>
</g>
</svg>
