<?xml version="1.0" encoding="UTF-8" standalone="no"?>
<!DOCTYPE svg PUBLIC "-//W3C//DTD SVG 1.1//EN"
 "http://www.w3.org/Graphics/SVG/1.1/DTD/svg11.dtd">
<!-- Generated by graphviz version 7.0.4 (20221203.1631)
 -->
<!-- Title: G Pages: 1 -->
<svg width="508pt" height="116pt"
 viewBox="0.00 0.00 507.59 116.00" xmlns="http://www.w3.org/2000/svg" xmlns:xlink="http://www.w3.org/1999/xlink">
<g id="graph0" class="graph" transform="scale(1 1) rotate(0) translate(4 112)">
<title>G</title>
<polygon fill="white" stroke="none" points="-4,4 -4,-112 503.59,-112 503.59,4 -4,4"/>
<!-- verify_type_of -->
<g id="node1" class="node">
<title>verify_type_of</title>
<ellipse fill="none" stroke="black" cx="284.89" cy="-90" rx="63.09" ry="18"/>
<text text-anchor="middle" x="284.89" y="-86.3" font-family="Times,serif" font-size="14.00">verify_type_of</text>
</g>
<!-- account_address -->
<g id="node2" class="node">
<title>account_address</title>
<ellipse fill="none" stroke="black" cx="68.89" cy="-18" rx="68.79" ry="18"/>
<text text-anchor="middle" x="68.89" y="-14.3" font-family="Times,serif" font-size="14.00">account_address</text>
</g>
<!-- verify_type_of&#45;&gt;account_address -->
<g id="edge1" class="edge">
<title>verify_type_of&#45;&gt;account_address</title>
<path fill="none" stroke="black" d="M244.27,-75.83C209.56,-64.59 159.41,-48.33 121.62,-36.09"/>
<polygon fill="black" stroke="black" points="122.84,-32.8 112.25,-33.05 120.69,-39.46 122.84,-32.8"/>
</g>
<!-- module_name -->
<g id="node3" class="node">
<title>module_name</title>
<ellipse fill="none" stroke="black" cx="217.89" cy="-18" rx="61.99" ry="18"/>
<text text-anchor="middle" x="217.89" y="-14.3" font-family="Times,serif" font-size="14.00">module_name</text>
</g>
<!-- verify_type_of&#45;&gt;module_name -->
<g id="edge2" class="edge">
<title>verify_type_of&#45;&gt;module_name</title>
<path fill="none" stroke="black" d="M269.02,-72.41C260.84,-63.87 250.7,-53.28 241.62,-43.79"/>
<polygon fill="black" stroke="black" points="244.15,-41.37 234.7,-36.56 239.09,-46.21 244.15,-41.37"/>
</g>
<!-- struct_name -->
<g id="node4" class="node">
<title>struct_name</title>
<ellipse fill="none" stroke="black" cx="351.89" cy="-18" rx="53.89" ry="18"/>
<text text-anchor="middle" x="351.89" y="-14.3" font-family="Times,serif" font-size="14.00">struct_name</text>
</g>
<!-- verify_type_of&#45;&gt;struct_name -->
<g id="edge3" class="edge">
<title>verify_type_of&#45;&gt;struct_name</title>
<path fill="none" stroke="black" d="M300.77,-72.41C308.95,-63.87 319.08,-53.28 328.17,-43.79"/>
<polygon fill="black" stroke="black" points="330.7,-46.21 335.08,-36.56 325.64,-41.37 330.7,-46.21"/>
</g>
<!-- type_of -->
<g id="node5" class="node">
<title>type_of</title>
<ellipse fill="none" stroke="black" cx="461.89" cy="-18" rx="37.89" ry="18"/>
<text text-anchor="middle" x="461.89" y="-14.3" font-family="Times,serif" font-size="14.00">type_of</text>
</g>
<!-- verify_type_of&#45;&gt;type_of -->
<g id="edge4" class="edge">
<title>verify_type_of&#45;&gt;type_of</title>
<path fill="none" stroke="black" d="M320.71,-74.83C350.31,-63.13 392.27,-46.53 422.75,-34.48"/>
<polygon fill="black" stroke="black" points="424,-37.75 432.01,-30.82 421.42,-31.24 424,-37.75"/>
</g>
</g>
</svg>
