<svg width="100%" height="100%" viewBox="0 0 20 20" fill="none" xmlns="http://www.w3.org/2000/svg">
<path d="M10.0833 0C15.55 0 20 4.57691 20 10.0042C20 15.4314 15.5583 20 10.0833 20H0V9.8291C0 4.40183 4.60833 0 10.0833 0ZM10.1833 3.80158C8.025 3.80158 6.01667 4.92705 4.9 6.77782C3.79167 8.62026 3.74167 10.9129 4.775 12.797L3.66667 16.3485L7.65833 15.4564C9.94167 16.4819 12.6333 16.0233 14.4417 14.2976C16.25 12.5886 16.825 9.93747 15.8917 7.62818C14.9417 5.31055 12.6917 3.80158 10.1917 3.80158H10.1833Z" fill="currentColor"/>
</svg>

