<svg width="100%" height="100%" viewBox="0 0 20 20" fill="none" xmlns="http://www.w3.org/2000/svg"><path fill-rule="evenodd" clip-rule="evenodd" d="M15.938 15.939a8.375 8.375 0 0 1-3.443 2.083v-1.498c0-.788-.27-1.368-.81-1.739a8.9 8.9 0 0 0 .932-.136 7.07 7.07 0 0 0 .898-.254c.316-.111.6-.243.85-.396.25-.153.492-.351.723-.596.23-.243.424-.52.58-.83.157-.308.28-.68.372-1.113.09-.433.137-.91.137-1.43 0-1.01-.33-1.87-.987-2.579.3-.78.267-1.63-.098-2.548l-.244-.03c-.17-.02-.473.052-.913.215-.44.163-.932.43-1.48.8a8.984 8.984 0 0 0-2.412-.322 8.8 8.8 0 0 0-2.401.323 8.475 8.475 0 0 0-.982-.581 5.141 5.141 0 0 0-.742-.313 2.579 2.579 0 0 0-.826-.112.62.62 0 0 0-.097.02c-.365.924-.398 1.773-.098 2.548-.658.71-.986 1.57-.986 2.579 0 .52.045.997.137 1.43.09.433.214.805.37 1.113.157.31.35.587.582.83.23.245.472.443.722.596.25.153.534.285.85.396.316.11.615.195.898.254.283.058.594.104.933.136-.534.365-.8.945-.8 1.739v1.527a8.364 8.364 0 0 1-3.541-2.113A8.356 8.356 0 0 1 1.6 10a8.351 8.351 0 0 1 2.46-5.938A8.363 8.363 0 0 1 10 1.602a8.358 8.358 0 0 1 5.938 2.46A8.381 8.381 0 0 1 18.398 10a8.358 8.358 0 0 1-2.46 5.939ZM10 0C4.478 0 0 4.478 0 10c0 5.523 4.478 10 10 10 5.523 0 10-4.477 10-10 0-5.522-4.477-10-10-10Z" fill="currentColor"/></svg>
