<svg fill="currentColor" width="100%" height="100%" viewBox="0 0 64 51.9"><path d="M22.75 5.37a.2.2 0 0 1-.14-.06l-3.05-3.45a5.5 5.5 0 0 0-8.15-.11L8.08 5.31a.18.18 0 0 1-.14.06H0v4h7.94A4.2 4.2 0 0 0 11 8l3.33-3.56A1.35 1.35 0 0 1 15.46 4a1.49 1.49 0 0 1 1.1.51L19.61 8a4.19 4.19 0 0 0 3.14 1.41H64v-4ZM55.62 47.87 53 44.43a1 1 0 0 0-.12-.15 5.51 5.51 0 0 0-4-1.75h-.07a5.5 5.5 0 0 0-4.05 1.86l-3 3.44a.17.17 0 0 1-.14.07H0v4h41.53a4.2 4.2 0 0 0 3.14-1.42l3-3.45a1.48 1.48 0 0 1 1.11-.5 1.46 1.46 0 0 1 1 .42l2.64 3.47.13.15a4.24 4.24 0 0 0 3.07 1.33H64v-4h-8.27a.2.2 0 0 1-.11-.03ZM0 26.64h64v4H0z"/></svg>
