<svg width="100%" height="100%" viewBox="0 0 22 17" fill="none" xmlns="http://www.w3.org/2000/svg"><path fill-rule="evenodd" clip-rule="evenodd" d="M22 2.013a9.395 9.395 0 0 1-2.593.676A4.348 4.348 0 0 0 21.392.314a9.341 9.341 0 0 1-2.866 1.042A4.62 4.62 0 0 0 15.232 0c-2.493 0-4.514 1.922-4.514 4.292 0 .336.04.664.117.978C7.083 5.09 3.758 3.382 1.532.786A4.115 4.115 0 0 0 .92 2.944c0 1.489.796 2.802 2.007 3.571A4.669 4.669 0 0 1 .884 5.98v.053c0 2.08 1.555 3.815 3.62 4.209a4.744 4.744 0 0 1-2.038.074c.574 1.705 2.241 2.945 4.216 2.98a9.358 9.358 0 0 1-5.605 1.837c-.365 0-.724-.02-1.077-.06A13.257 13.257 0 0 0 6.918 17c8.303 0 12.843-6.54 12.843-12.21 0-.187-.004-.372-.013-.556A8.929 8.929 0 0 0 22 2.013Z" fill="currentColor"/></svg>
