<svg width="100%" height="100%" viewBox="0 0 52 51" fill="none" xmlns="http://www.w3.org/2000/svg">
<path d="M5.6875 38.25C5.6875 36.9038 4.59619 35.8125 3.25 35.8125C1.90381 35.8125 0.8125 36.9038 0.8125 38.25V44.75C0.8125 47.8911 3.35888 50.4375 6.5 50.4375H45.5C48.6411 50.4375 51.1875 47.8911 51.1875 44.75V38.25C51.1875 36.9038 50.0962 35.8125 48.75 35.8125C47.4038 35.8125 46.3125 36.9038 46.3125 38.25V44.75C46.3125 45.1987 45.9487 45.5625 45.5 45.5625H6.5C6.05127 45.5625 5.6875 45.1987 5.6875 44.75V38.25Z" fill="currentColor" />
<path d="M14.7236 17.2236C13.7717 18.1755 12.2283 18.1755 11.2764 17.2236C10.3245 16.2717 10.3245 14.7283 11.2764 13.7764L24.2764 0.776427C25.2283 -0.175476 26.7717 -0.175476 27.7236 0.776427L40.7236 13.7764C41.6755 14.7283 41.6755 16.2717 40.7236 17.2236C39.7717 18.1755 38.2283 18.1755 37.2764 17.2236L28.4375 8.38464V30.125C28.4375 31.4712 27.3462 32.5625 26 32.5625C24.6538 32.5625 23.5625 31.4712 23.5625 30.125L23.5625 8.38464L14.7236 17.2236Z" fill="currentColor" />
</svg>

