<svg version="1.2" baseProfile="tiny" xmlns="http://www.w3.org/2000/svg" width="399.8" height="105.1" overflow="visible" xml:space="preserve"><path d="M98.1 26.3c-6.4-11-16.5-19.4-28.6-23.5S44.2-.9 32.4 4 11 17.9 5.4 29.3s-6.9 24.5-3.6 36.8 11 23 21.6 30.1 23.4 10.1 36.1 8.4c12.6-1.7 24.2-7.9 32.7-17.5 8.4-9.6 13-21.9 13-34.7-.1-9.1-2.5-18.1-7.1-26.1zm-2.4 51.2C89.7 88 80 95.9 68.6 99.8c-11.5 3.9-23.9 3.5-35.1-1.1C22.3 94 13.2 85.5 7.8 74.6c-5.4-10.8-6.6-23.3-3.4-35C7.5 28 14.8 17.8 24.8 11.1 34.9 4.4 47 1.5 59 3.1s23 7.5 31 16.6 12.4 20.8 12.4 32.9c0 8.7-2.3 17.3-6.7 24.9z"/><path d="M75.1 39.3c-4.5-7.8-9-15.4-12.7-18.4-2.8-2.3-6.3-3.5-9.9-3.5s-7.1 1.2-9.9 3.5c-3.7 3-8.2 10.6-12.7 18.4S21.1 55 20.3 59.7c-.5 3.5.2 7 1.9 10 1.8 3.1 4 5.1 8 6.7s13.6 1.8 22.2 1.8 18.2-.2 22.2-1.8 6.2-3.6 8-6.7c1.7-3 2.4-6.6 1.9-10-.6-4.7-4.9-12.6-9.4-20.4zm5.4 29.2c-1.5 2.6-4.4 4.8-6.8 5.6-3.1 1.1-8.3 1.5-21.1 1.5s-18.1-.5-21.1-1.5c-2.5-.8-5.3-3-6.8-5.6-1.6-2.7-2-6.1-1.5-8.5.5-2.5 2.6-7.6 9.3-19.3 6.8-11.8 9.7-15.7 11.9-17.5 2.7-2.2 5.3-3 8.3-3s5.7.8 8.3 3c2.2 1.8 5 5.7 11.9 17.5 6.7 11.7 8.8 16.8 9.3 19.3.3 2.4-.1 5.8-1.7 8.5z"/><path d="M57.1 25.9c-.5-.8-1.1-1.5-1.9-1.9-.8-.5-1.7-.7-2.6-.7s-1.8.2-2.6.7-1.5 1.1-1.9 1.9L27.4 61.4c-.5.8-.7 1.7-.7 2.7 0 .9.2 1.8.7 2.7.5.8 1.1 1.5 1.9 1.9.8.5 1.7.7 2.6.7H73c.9 0 1.8-.2 2.6-.7.8-.5 1.5-1.1 1.9-1.9.5-.8.7-1.7.7-2.7 0-.9-.2-1.8-.7-2.7L57.1 25.9zm18.2 39.5c-.2.4-.6.7-1 1-.4.2-.8.3-1.3.4H32c-.5 0-.9-.1-1.3-.3s-.7-.6-1-1c-.2-.4-.3-.8-.3-1.3s.1-.9.4-1.3l20.5-35.6c.2-.4.6-.7 1-1 .4-.2.8-.3 1.3-.3s.9.1 1.3.3c.4.2.7.6 1 1l20.5 35.6c.2.4.3.8.3 1.3 0 .3-.1.8-.4 1.2z"/><path d="M82.7 35c-5.6-9.8-10.2-15.7-14.9-18.7-5-3.3-9.9-4.5-15.3-4.6-5.4 0-10.2 1.3-15.3 4.6-4.7 3-9.3 8.9-14.9 18.7-5.7 9.8-8.4 16.9-8.7 22.4-.3 5.6.9 10.7 3.6 15.5 2.7 4.7 6.7 8.5 11.6 10.9 4 2.3 12.5 3.6 23.7 3.6s19.7-1.3 23.7-3.6c4.9-2.4 8.9-6.2 11.6-10.9 2.7-4.7 3.9-9.9 3.6-15.5-.2-5.5-3-12.6-8.7-22.4zm2.8 36.4c-2.4 4.3-6.1 7.7-10.5 9.8-3.6 2.1-11.8 3.3-22.5 3.3S33.6 83.3 30 81.2c-4.4-2.1-8.1-5.6-10.5-9.8-2.5-4.3-3.6-8.8-3.2-14 .3-5.2 3-11.8 8.4-21.1 5.3-9.2 9.9-15 14-17.8s8.9-4.2 13.8-4.2 9.8 1.5 13.8 4.2c4.1 2.8 8.7 8.5 14 17.8 5.4 9.3 8.1 15.9 8.4 21.1.4 5.3-.7 9.8-3.2 14z"/><path d="M98.3 54.9c0-6.9-2.8-15.5-7.9-24.3S79.2 15 73.3 11.6C67 7.9 59.9 5.9 52.5 5.9c-7.3 0-14.5 2-20.8 5.7-5.9 3.4-12 10.2-17.1 19S6.8 48.1 6.8 54.9c-.2 7.3 1.7 14.5 5.3 20.9 3.7 6.3 9 11.5 15.4 15 5.9 3.4 14.8 5.3 25 5.3s19-1.9 25-5.3c6.4-3.5 11.8-8.7 15.4-15 3.7-6.3 5.5-13.5 5.4-20.9zm-7.7 19.6c-3.4 5.9-8.4 10.8-14.4 14.1-5.6 3.2-14 5-23.7 5s-18.1-1.8-23.7-5c-6-3.3-11-8.1-14.4-14-3.4-6-5.1-12.8-4.9-19.6 0-6.4 2.7-14.6 7.5-23s10.6-14.8 16.1-18c5.8-3.6 12.5-5.5 19.4-5.5 6.8 0 13.6 1.9 19.4 5.5 5.5 3.2 11.3 9.6 16.1 18 4.9 8.4 7.5 16.6 7.5 23 .3 6.8-1.4 13.5-4.9 19.5zM267.7 22.7c-6.7 0-12.1 5.1-12.1 11.7s5.3 11.7 12.1 11.7c6.7 0 12.1-5.1 12.1-11.7s-5.3-11.7-12.1-11.7zm0 19.5c-1.5 0-3.1-.4-4.3-1.3-1.3-.8-2.3-2.1-2.9-3.5s-.8-3-.5-4.5 1-2.9 2.1-4 2.5-1.8 4-2.2c1.5-.3 3.1-.2 4.5.4s2.6 1.6 3.5 2.9 1.3 2.8 1.3 4.3c0 2-.8 4-2.3 5.5-1.4 1.6-3.3 2.4-5.4 2.4zM310 30.9c0-4.4-3.1-7.7-8.1-7.7h-12.5v22.5h4.2v-7.1h6.8l4.7 7.1h5.2l-5.6-8c3.1-1 5.3-3.5 5.3-6.8zm-16.4 3.8v-7.5h8c2.9 0 4.3 1.8 4.3 3.8s-1.3 3.8-4.3 3.8h-8v-.1zM145 23.2l11.7 22.5h-4.5l-2.2-4.2h-7l-1.9-3.7h7l-4.3-8.4-8.4 16.3h-4.5l11.8-22.5h2.3zm185.5 0 11.7 22.5h-4.5l-2.2-4.2h-7l-1.9-3.7h7l-4.3-8.4-8.3 16.3h-4.5l11.8-22.5h2.2zm58.2 12.9-2-3.9h10.9v3.9h-8.9zm11.1-9h-14.9v14.6h14.9v3.9h-19.1V23.2h19.1v3.9zm-174.1-3.9h4.2v22.5h-4.2V23.2zm16.2 0h4.2v22.5h-4.2v-9.6h-8.3l-2-3.9h10.3v-9zm117.7 23c-6.7 0-12.1-5.1-12.1-11.7s5.3-11.7 12.1-11.7c2.8 0 5.5 1 7.6 2.6l-3.2 2.8c-1.1-1-2.8-1.5-4.4-1.5-4.1 0-7.8 3.4-7.8 7.8s3.7 7.9 7.8 7.9 7.1-2.8 7.6-6.2h-6.7l-1.2-2.5-.8-1.4h13.1c.8 6.4-3.3 13.9-12 13.9zm-142.8-4.5c-1.1 1.4-2.6 2.6-4.2 3.4-1.7.8-3.5 1.2-5.3 1.2-6.7 0-12.1-5.1-12.1-11.7s5.2-11.7 12-11.7c3.5 0 6.7 1.4 9.2 4.4l-3.2 2.8c-1.8-2.2-3.5-3.2-6-3.2-4.1 0-7.6 3.4-7.6 7.8 0 2 .8 4 2.3 5.5s3.4 2.3 5.4 2.3c1.3 0 2.5-.3 3.6-.9 1.1-.6 2.1-1.4 2.8-2.4l3.1 2.5zm-33.8 4-14-14.8v14.8h-4.2V23.2h2.4l13.9 14.7V23.2h4.2v22.5H183zm49.4 17.6h-7.7v-3.9h19.1v3.9h-7.3v18.6h-4.2V63.3h.1zm48.1-3.9h4.2V78H297v3.9h-16.5V59.4zm-22.1 0-11.8 22.5h4.4l8.4-16.3 4.3 8.4h-7l1.9 3.7h7l2.2 4.2h4.5l-11.7-22.5h-2.2zm-56.1 9h-13.1l.8 1.4 1.2 2.5h6.7c-.6 3.4-3.6 6.2-7.6 6.2s-7.8-3.5-7.8-7.9 3.7-7.8 7.8-7.8c1.6 0 3.3.5 4.4 1.5l3.2-2.8c-2.2-1.7-4.9-2.6-7.6-2.6-6.7 0-12.1 5.1-12.1 11.7s5.3 11.7 12.1 11.7c8.7.1 12.8-7.4 12-13.9zm9.2 13.5h4.2V59.4h-4.2v22.5zm-47.2 0h4.2V59.4h-4.2v22.5zm-29.9-22.5h8.1c7.6 0 12.1 5.3 12.1 11.3S149.9 82 142.5 82h-8.1V59.4zm4.2 18.6h3.9c4.8 0 7.9-3.3 7.9-7.3s-3.1-7.3-7.9-7.3h-3.9V78z"/></svg>
