<svg version="1.2" baseProfile="tiny" xmlns="http://www.w3.org/2000/svg" width="129" height="24" overflow="visible" xml:space="preserve"><path d="M28.939 19.49V4.182h7.916c1.575 0 2.828.372 3.761 1.115.933.729 1.4 1.822 1.4 3.28 0 .496-.153.999-.459 1.509-.306.51-.722.904-1.247 1.181a3.066 3.066 0 0 1 1.881 1.356c.466.685.7 1.4.7 2.143 0 1.079-.27 1.976-.809 2.69-.539.7-1.247 1.217-2.121 1.553-.875.321-1.83.481-2.865.481h-8.157zm8.091-9.207c1.385-.029 2.077-.612 2.077-1.749 0-.641-.219-1.108-.656-1.4-.423-.292-.948-.437-1.575-.437H31.89v3.586h5.14zm.066 6.692c.831-.015 1.509-.182 2.034-.503.525-.335.787-.882.787-1.64 0-.744-.27-1.276-.809-1.597-.539-.335-1.21-.503-2.012-.503h-5.205v4.243h5.205zM47.035 19.49h-2.821V4.182h2.821V19.49zM54.171 19.664c-1.093 0-2.078-.226-2.952-.678a5.282 5.282 0 0 1-2.034-1.924c-.496-.816-.743-1.75-.743-2.799 0-1.035.248-1.961.743-2.777a5.123 5.123 0 0 1 2.034-1.903c.875-.467 1.859-.7 2.952-.7 1.079 0 2.048.233 2.909.7a5.116 5.116 0 0 1 2.034 1.903c.495.816.743 1.742.743 2.777 0 1.05-.248 1.983-.743 2.799a5.275 5.275 0 0 1-2.034 1.924c-.86.452-1.83.678-2.909.678zm0-2.427c.816 0 1.487-.277 2.012-.831.539-.569.809-1.283.809-2.143 0-.86-.27-1.567-.809-2.121-.525-.554-1.196-.831-2.012-.831-.831 0-1.516.277-2.056.831-.525.554-.787 1.261-.787 2.121 0 .86.263 1.575.787 2.143.54.554 1.225.831 2.056.831zM66.39 19.708c-1.05 0-1.997-.226-2.843-.678a4.994 4.994 0 0 1-1.99-1.903c-.466-.816-.7-1.75-.7-2.799 0-1.079.226-2.034.678-2.865a4.85 4.85 0 0 1 1.946-1.924c.846-.452 1.815-.678 2.909-.678 1.21 0 2.252.284 3.127.853.889.569 1.516 1.48 1.881 2.734l-2.427.415c-.233-.598-.576-.999-1.028-1.203-.452-.219-.969-.328-1.553-.328-.831 0-1.487.284-1.968.853-.481.554-.721 1.268-.721 2.143 0 .831.248 1.531.743 2.099.496.554 1.145.831 1.946.831.554 0 1.05-.117 1.487-.35.452-.233.824-.693 1.115-1.378l2.471.547c-.35 1.239-.991 2.158-1.924 2.755-.918.585-1.968.876-3.149.876zM75.386 19.49h-2.821V4.182h2.799v9.316l1.422-1.706 2.93-2.712h3.565v.109l-4.92 4.592 5.205 5.642v.066h-3.28l-3.827-4.155-1.072 1.006v3.15z"/><path d="M88.844 19.664c-1.094 0-2.077-.226-2.952-.678a5.282 5.282 0 0 1-2.034-1.924c-.496-.816-.743-1.75-.743-2.799 0-1.035.248-1.961.743-2.777a5.123 5.123 0 0 1 2.034-1.903c.875-.467 1.859-.7 2.952-.7 1.079 0 2.048.233 2.909.7a5.116 5.116 0 0 1 2.034 1.903c.496.816.743 1.742.743 2.777 0 1.05-.248 1.983-.743 2.799a5.275 5.275 0 0 1-2.034 1.924c-.861.452-1.83.678-2.909.678zm0-2.427c.816 0 1.487-.277 2.012-.831.54-.569.809-1.283.809-2.143 0-.86-.27-1.567-.809-2.121-.525-.554-1.195-.831-2.012-.831-.831 0-1.516.277-2.056.831-.525.554-.787 1.261-.787 2.121 0 .86.262 1.575.787 2.143.54.554 1.225.831 2.056.831zM111.049 19.665c-1.457 0-2.689-.416-3.695-1.247-1.006-.846-1.509-2.187-1.509-4.024V9.08h2.865v5.38c-.015.962.204 1.669.656 2.121.466.452 1.042.685 1.727.7.729 0 1.356-.233 1.881-.7.525-.481.787-1.188.787-2.121V9.08h2.843v10.41h-2.427l-.263-1.268a2.66 2.66 0 0 1-1.203 1.093 4.046 4.046 0 0 1-1.662.35zM123.2 19.708c-1.502 0-2.741-.284-3.718-.853-.962-.569-1.487-1.494-1.574-2.777l2.711.044c.059.875.941 1.312 2.647 1.312.743 0 1.334-.102 1.771-.306.452-.204.678-.467.678-.787 0-.569-.809-.882-2.428-.94-1.006-.058-1.873-.168-2.602-.328-.714-.16-1.327-.459-1.837-.897-.496-.452-.743-1.093-.743-1.924 0-.816.255-1.472.765-1.968a4.49 4.49 0 0 1 1.924-1.093 8.622 8.622 0 0 1 2.362-.328c1.4 0 2.588.27 3.565.809.991.525 1.538 1.429 1.64 2.712l-2.624.088c-.102-.525-.423-.882-.963-1.072a4.673 4.673 0 0 0-1.596-.284c-.656 0-1.203.095-1.64.284-.423.189-.634.467-.634.831 0 .321.226.539.678.656.452.117 1.115.204 1.99.262 1.049.073 1.931.197 2.646.372.714.175 1.304.503 1.771.984.481.481.693 1.181.634 2.099-.146.991-.751 1.757-1.815 2.296-1.05.538-2.252.808-3.608.808zM98.917 9.163h-2.885V19.49h2.885V9.163zM99.525 10.682l4.252-1.822v3.037l-4.252 1.822v-3.037zM5.215 18.832h5.169v5.169H5.215z"/><path d="M16.116 11.177a6.886 6.886 0 0 0 1.469-4.253C17.585 3.1 14.485 0 10.661 0H.6a.554.554 0 0 0-.554.554v7.939h5.169V13.662H.046v5.169h5.169v-5.169h5.169v5.169h5.169v4.456a6.908 6.908 0 0 0 .563-12.11z"/></svg>
