<svg version="1.2" baseProfile="tiny" xmlns="http://www.w3.org/2000/svg" width="265.3" height="71.8" overflow="visible" xml:space="preserve"><path d="M.2.4h9.9L16.8 58c.3 3.1.6 6.2.9 9.2h.5c.2-3.1.5-6.2.9-9.2L25.8.4h9.9v71h-4.8V4.6h-1c-.2 2.6-.5 5.1-.8 7.7l-7.3 59.1h-7.9L6.6 12.3c-.3-2.6-.6-5.1-.8-7.7h-1v66.8H0V.4h.2zM43.5 63.8V8c0-5.6 3.1-8 11.2-8s11.2 2.4 11.2 8v55.8c0 5.6-3.1 8-11.2 8s-11.2-2.4-11.2-8zm16.9 3.4V4.6H49v62.6h11.4zM73.8 63.8V8c0-5.6 3.1-8 11.2-8s11.2 2.4 11.2 8v55.8c0 5.6-3.1 8-11.2 8s-11.2-2.4-11.2-8zm16.9 3.4V4.6H79.3v62.6h11.4zM104 .4h9.3l9 54.9c.6 4 1.3 7.9 1.8 11.9h.9c-.1-4-.1-7.9-.1-11.9V.4h4.9v71h-9.5l-8.9-54.9c-.6-4-1.2-7.9-1.8-11.9h-.9c.1 4 .1 7.9.1 11.9v54.9h-4.9l.1-71zM137.5 63.8V8c0-5.6 3.1-8 11.2-8s11.2 2.4 11.2 8v13.9h-5.5V4.6H143v62.6h11.4V49.5h5.5v14.2c0 5.6-3.1 8-11.2 8-8.1.1-11.2-2.3-11.2-7.9zM167.8.4h5.5v66.8h11.2v4.2h-16.7V.4zM206.7 55.5h-11.5l-1.7 16h-5.6l8.4-71h9.2l8.4 71h-5.6l-1.6-16zm-.5-4.5-3.8-36.3-1-10.2h-.9l-1 10.2-3.8 36.3h10.5zM215.9.4h5.6l5.9 56.6 1 10.2h.9l1-10.2L236.2.4h5.6l-8.4 71h-9.1l-8.4-71zM248 .4h17.3v4.2h-11.8v28.3h11.8v4.2h-11.8v30h11.8v4.2H248V.4z"/></svg>
