<svg version="1.2" baseProfile="tiny" xmlns="http://www.w3.org/2000/svg" width="154.6" height="24" overflow="visible" xml:space="preserve"><path fill="none" d="M0 0h21.8v24H0z"/><path d="M8.4 10.6c0-.5 0-1.1.1-1.6-2.3-1-4.7-1.9-7.2-2.4-.4-.1-.8-.2-1.3-.3v11.3c2.9-.1 5.8-.8 8.6-1.8-.2-1.7-.3-3.5-.2-5.2zM9.4 15.5c.5-.2 1-.4 1.5-.7V12l-1.7-.9c0 1.5.1 2.9.2 4.4zM.7 18.5l9.6 5.4c-.8-2.3-1.4-4.7-1.7-7.1-2.5.9-5.2 1.5-7.9 1.7zM10.9 22.8v-7c-.5.2-.9.4-1.4.6.3 2.2.8 4.4 1.4 6.4zM12.5 11.1l-1.6.9v2.8c1.3-.7 2.6-1.4 3.8-2.3-.7-.5-1.4-.9-2.2-1.4zM15.5 13.1c-1.4 1-2.9 2-4.5 2.7v7c.1.4.2.8.4 1.2l10.1-5.7-2.7-2.5c-1.1-1-2.2-1.9-3.3-2.7zM21.6 7c-1.5 2.1-3.3 4-5.4 5.6 1.1.8 2.1 1.7 3.1 2.6l2.5 2.3V6.6l-.2.4zM10.3.1.6 5.6c2.7.5 5.4 1.4 8 2.5.3-2.7.9-5.4 1.7-8z"/><path d="M12.5 11.1c-1-.6-2.1-1.2-3.2-1.7 0 .6-.1 1.1-.1 1.7l1.7.9 1.6-.9zM13.4 10.6c.7.4 1.4.9 2.1 1.4 2.1-1.6 3.9-3.4 5.4-5.5v-.1l-5.4 3 5.4-3 .5-.7L11.3 0c-1 2.7-1.6 5.6-1.9 8.5 1.4.6 2.7 1.3 4 2.1zM0 17.7v.4-.4zM93.9 9.7l3.3-.9v2.4h5.9c.7 0 1.1-.3 1.4-1 .1-.3.2-.5.2-.8 0-.7-.2-1.2-.7-1.6-.2-.2-.5-.2-.8-.2H94l.9-3h8.4c1.7 0 3 .6 4 1.9.7.9 1 1.9 1 3 0 1.4-.5 2.5-1.4 3.3-.5.5-1 .8-1.7 1l3.4 4.7h-3.9l-3-4.4h-4.4v4.4H94V9.7zM113.3 13.2v2.5h9.2v3H110v-14h12.5v3h-9.2v2.5h8.6l-1.3 3h-7.3zM129.7 16.8l1.2-2.8h3.9l-2.7-5.8-4.8 10.4h-3.5l6.6-13.3 3.3-.9 6.8 14.2H137l-.9-1.9h-6.4zM141.5 4.7h3.3v10.9h9.8l-.9 3h-12.2V4.7zM39 4.7h3.3v13.9H39l-7.3-9.2v9.2h-3.3V4.4h3.3l7.3 9.2V4.7zM47.4 11.7c0 2 .7 3.3 2.2 3.8.7.3 1.6.4 2.6.4 2.5 0 4-.9 4.5-2.6.1-.5.2-1.1.2-1.7 0-2.3-1-3.6-2.9-4.1-.5-.1-1.1-.2-1.8-.2-2.2 0-3.7.6-4.4 1.9-.2.8-.4 1.5-.4 2.5zm13 0c0 2.7-1.1 4.7-3.2 6-1.4.8-3.1 1.3-5.2 1.3-2.5 0-4.5-.7-6-2-1.4-1.3-2.1-3-2.1-5.2 0-2.6 1-4.5 2.9-5.8 1.4-1 3.2-1.4 5.3-1.4 2.7 0 4.9.7 6.4 2.1 1.3 1.1 1.9 2.8 1.9 5zM62.1 9.7l3.3-.9v6.8h5.2c1 0 1.8-.6 2.3-1.7.3-.7.5-1.5.5-2.4 0-1.4-.3-2.4-1-3.2-.5-.5-1.1-.8-1.7-.8h-8.5l.9-3h8c1.9 0 3.4.8 4.5 2.4.9 1.3 1.4 2.9 1.4 4.7 0 1.9-.5 3.5-1.5 4.8-1.1 1.3-2.5 2-4.3 2h-8.9V9.7zM81.8 13.2v2.5h10.1l-.9 3H78.5v-14h13.4l-.9 3h-9.2v2.5h8.6v3h-8.6z"/></svg>
