<svg data-name="Calque 1" xmlns="http://www.w3.org/2000/svg" viewBox="0 0 1133.12 341.28"><path d="m541.31 119.63 9.11-22.52 15.41-37.59 15.39 37.59 9.11 22.52 10.6 25.99h26.66L577.91 28.88l-4.58-11.23-3.93-9.73L566.15 0l-3.24 7.92-3.93 9.73-4.58 11.23-49.68 116.74h25.99l10.6-25.99zM541.31 271.73l9.11-22.53 15.41-37.58 15.39 37.58 9.11 22.53 10.6 25.99h26.66l-49.68-116.74-4.58-11.23-3.93-9.73-3.25-7.92-3.24 7.92-3.93 9.73-4.58 11.23-49.68 116.74h25.99l10.6-25.99zM0 170.3l14.71-17.62q16.63 13.74 33.78 13.74 7.59 0 12-2.91a9.19 9.19 0 0 0 4.36-8.08c0-3.24-1.51-5.87-4.53-7.92S51.18 143.41 42 141a131.4 131.4 0 0 1-15.68-4.85 48.1 48.1 0 0 1-11.32-6.1 22 22 0 0 1-7.92-9.86 33.83 33.83 0 0 1-2.58-14.06q0-15.34 11.15-24.73Q26.5 72 44.12 72q23.93 0 42 14.38l-12.91 18.78Q57.22 94 43.8 94q-6.94 0-10.67 2.75a9.34 9.34 0 0 0 .81 15.68q4.85 2.75 19.72 6.62 18.25 4.84 27.15 12.45 8.73 7.43 8.73 21.82 0 16.48-11.32 25.69Q66.91 188.4 48 188.4q-28 0-48-18.1ZM154.05 96.6h-34.42V73.65h93.74V96.6h-34.43v90.18h-24.89ZM251 73.65h51.72q21.49 0 33 11.47 9.71 9.7 9.7 26.18 0 26-24.24 35.08l27.63 40.4h-29.16l-24.57-36.2h-19.23v36.2H251Zm50.1 54.95q9.06 0 14.07-4.53c3.33-2.91 5-6.84 5-11.8q0-7.9-5.18-12.12-5-4-14.38-4h-24.76v32.45ZM388 73.65h85.33v22.14h-60.6v22.95H466v22.14h-53.32v23.76h61.41v22.14H388ZM658.93 73.65h26.83l29.74 47.84 29.74-47.84h26.83v113.13h-24.73v-73.86l-31.84 48.33h-.65l-31.51-47.84v73.37h-24.41ZM818.47 73.65h24.89v113.13h-24.89ZM890.17 73.65h23l53 69.66V73.65h24.53v113.13h-21.17l-54.79-71.92v71.92h-24.57ZM1042 172.24q-16.65-16.49-16.65-42a57.19 57.19 0 0 1 17-41.53q17-17 42.35-17 14.55 0 24.89 3.71a68 68 0 0 1 19.55 11.8l-15.67 18.91a50.58 50.58 0 0 0-13.74-8.72 41.9 41.9 0 0 0-15.84-2.75 29.81 29.81 0 0 0-23.01 10.34 36.22 36.22 0 0 0-9.54 25.21q0 15.53 9.7 25.7 9.38 10.18 24.57 10.18 13.89 0 23.43-6.78v-16.17h-25v-21.49h49.13v49.13a72.23 72.23 0 0 1-48.32 17.94q-26.39 0-42.85-16.48ZM387.55 226.53h86.14v22.62h-61.25v24.08h54v22.63h-54v43.8h-24.89ZM653.34 323.18l14.71-17.62q16.65 13.74 33.78 13.74 7.59 0 12-2.91a9.19 9.19 0 0 0 4.36-8.08c0-3.24-1.51-5.87-4.52-7.92s-9.11-4.1-18.26-6.47a130.82 130.82 0 0 1-15.68-4.85 48.53 48.53 0 0 1-11.32-6.14 21.93 21.93 0 0 1-7.91-9.86 33.66 33.66 0 0 1-2.63-14.07q0-15.34 11.15-24.73 10.83-9.36 28.45-9.37 23.91 0 42 14.38L726.56 258q-16-11.15-29.42-11.15-6.95 0-10.66 2.75a9.35 9.35 0 0 0 .8 15.68q4.86 2.74 19.72 6.62 18.27 4.85 27.15 12.45 8.73 7.42 8.73 21.82 0 16.49-11.31 25.69-11.31 9.38-30.22 9.38-27.97.04-48.01-18.06ZM808.5 249.48h-34.42v-22.95h93.74v22.95h-34.43v90.18H808.5Z"/></svg>
