<?xml version="1.0" encoding="UTF-8"?>
<svg xmlns="http://www.w3.org/2000/svg" width="93.03" height="36.397" viewBox="0 0 93.03 36.397">
    <defs>
        <clipPath id="clip-path">
            <path id="Path_25"
                  d="M317.167 217.7l-7.174.016s-.674 2.738-.716 2.927c-.581 2.572-1.041 5.143-1.621 7.715-.436 1.934-.8 3.837-1.25 5.826h-8.027c.022-.182 1.327-5.957 1.9-8.711.285-1.359.552-2.738.84-4.019l2.11-10.315c.343-1.33.944-4.225 1.321-5.438a9.487 9.487 0 0 1 8.806-7.091 16.684 16.684 0 0 1 7.148.751c.222.076 2.035.6 2.307.706-.7 1.466-2.438 4.681-3.078 5.985a14.853 14.853 0 0 0-4.772-.76 3.108 3.108 0 0 0-2.914 2.415c-.157.528-.646 2.84-.805 3.5l7.279.015c-.197.917-.932 4.478-1.354 6.478zm-.7 16.473h8.041l4.852-22.962h-8.032zm66.985-16.456h6.572c.465-2.165.905-4.266 1.382-6.487h-6.585l1.5-7.07h-7.123c-.764 2.364-1.263 4.7-2.039 7.1 0 0-1.769 6.814-1.8 6.976q-.45 2.164-.912 4.325a21.441 21.441 0 0 0-.643 6.466 5.851 5.851 0 0 0 4.824 5.589c2.992.646 5.89-.028 8.849-.693.1-2.081.19-4.116.284-6.148-1.049.118-1.98.261-2.917.322-2.349.154-3.25-.717-2.885-3.023.393-2.445.982-4.859 1.496-7.353zm-43.11-3.973a4.058 4.058 0 0 0-2.741-2.477 12.212 12.212 0 0 0-5.5-.084l-1.37 6.533a2.623 2.623 0 0 1 .344.014c1.488.19 1.914.738 1.734 2.236-.023.192-.038.386-.078.575q-.822 3.858-1.649 7.715c-.412 1.934-.82 3.869-1.241 5.858h7.99c.058-.182.113-.317.143-.457.591-2.763 1.15-5.532 1.78-8.286a24.045 24.045 0 0 1 1.165-4.018 5.186 5.186 0 0 1 4.125-3.283 5.4 5.4 0 0 1 3.967.935l3.7-6.927c-4.539-2.301-8.62-1.733-12.367 1.67zm20.618 3.231a2.852 2.852 0 0 1 4.058.758h7.35a6.065 6.065 0 0 0-4.31-6.324 14.862 14.862 0 0 0-10.694.36 7.345 7.345 0 0 0-4.7 6.218c-.415 3.253.9 5.516 3.976 6.639a25.434 25.434 0 0 0 2.583.7c1.076.268 2.181.442 3.228.793a1.186 1.186 0 0 1 .46 2.081 3.379 3.379 0 0 1-3.257.707 1.667 1.667 0 0 1-1.355-1.47h-7.729a6.779 6.779 0 0 0 4.67 6.6 15.01 15.01 0 0 0 11.68-.888 7.311 7.311 0 0 0 4.168-5.6c.454-2.835-.169-5.049-3.235-6.472a17.521 17.521 0 0 0-2.949-.972c-1.19-.312-2.407-.517-3.606-.8a1.117 1.117 0 0 1-.965-.956 1.4 1.4 0 0 1 .629-1.369z"
                  class="cls-1" transform="translate(-298.379 -198.519)"></path>
        </clipPath>
        <style>.cls-1{fill:#18378c}</style>
    </defs>
    <g id="Group_110" transform="translate(-298.379 -198.37)">
        <path id="Path_22"
              d="M316.814 217.555l-6.821.016s-.674 2.739-.716 2.927c-.581 2.572-1.041 5.143-1.621 7.715-.436 1.934-.8 3.837-1.25 5.826h-8.027c.022-.182 1.327-5.957 1.9-8.711.285-1.359.552-2.738.84-4.018l2.11-10.316c.343-1.33.944-4.225 1.321-5.438a9.487 9.487 0 0 1 8.806-7.091 16.683 16.683 0 0 1 7.148.751c.222.077 1.431.417 1.7.52-.7 1.466-2.438 4.681-3.079 5.985a11.245 11.245 0 0 0-4.168-.574 3.108 3.108 0 0 0-2.914 2.415c-.157.528-.646 2.841-.805 3.5l6.925.015c-.193.912-.928 4.469-1.349 6.478zm8-8.806a6.411 6.411 0 0 0 2.315-.007 4.411 4.411 0 0 0 3.593-3.118c.635-2.037-.226-3.659-2.136-4.051a10.431 10.431 0 0 0-1.1-.1c-.393.054-.881.086-1.353.192a4.274 4.274 0 0 0-3.461 4.46 2.6 2.6 0 0 0 2.137 2.624zm-8.339 25.279h8.041l4.852-22.962h-8.032zm66.985-16.456h6.572c.465-2.165.905-4.266 1.382-6.488h-6.585l1.5-7.069h-7.123c-.764 2.364-1.263 4.7-2.039 7.1 0 0-1.769 6.814-1.8 6.976q-.45 2.164-.912 4.325a21.438 21.438 0 0 0-.643 6.465 5.851 5.851 0 0 0 4.824 5.589c2.992.646 5.89-.028 8.849-.694.1-2.081.19-4.116.284-6.148-1.049.119-1.98.261-2.917.322-2.349.154-3.25-.717-2.885-3.024.385-2.447.974-4.86 1.488-7.354zm-43.11-3.973a4.057 4.057 0 0 0-2.741-2.477 12.208 12.208 0 0 0-5.5-.084l-1.37 6.532a2.676 2.676 0 0 1 .344.014c1.488.19 1.914.738 1.734 2.237-.023.192-.038.386-.078.575q-.822 3.858-1.649 7.715c-.412 1.934-.82 3.87-1.241 5.859h7.99c.058-.182.113-.317.143-.457.591-2.762 1.15-5.532 1.78-8.285a24.049 24.049 0 0 1 1.165-4.019 5.187 5.187 0 0 1 4.125-3.283 5.4 5.4 0 0 1 3.967.935l3.7-6.927c-4.547-2.306-8.628-1.734-12.375 1.666zm20.618 3.231a2.852 2.852 0 0 1 4.058.758h7.35a6.066 6.066 0 0 0-4.31-6.324 14.863 14.863 0 0 0-10.694.361 7.344 7.344 0 0 0-4.7 6.218c-.415 3.253.9 5.516 3.976 6.639a25.308 25.308 0 0 0 2.583.7c1.076.268 2.181.442 3.228.793a1.186 1.186 0 0 1 .46 2.081 3.379 3.379 0 0 1-3.257.707 1.666 1.666 0 0 1-1.355-1.469h-7.729a6.779 6.779 0 0 0 4.67 6.6 15.008 15.008 0 0 0 11.68-.888 7.31 7.31 0 0 0 4.168-5.6c.454-2.835-.169-5.049-3.235-6.472a17.545 17.545 0 0 0-2.949-.971c-1.19-.312-2.407-.517-3.606-.8a1.117 1.117 0 0 1-.965-.956 1.4 1.4 0 0 1 .621-1.377z"
              class="cls-1"></path>
    </g>
</svg>
