<?xml version="1.0" encoding="UTF-8" standalone="no"?>
<!DOCTYPE svg PUBLIC "-//W3C//DTD SVG 1.1//EN"
 "http://www.w3.org/Graphics/SVG/1.1/DTD/svg11.dtd">
<!-- Generated by graphviz version 7.0.4 (20221203.1631)
 -->
<!-- Title: G Pages: 1 -->
<svg width="3923pt" height="673pt"
 viewBox="0.00 0.00 3923.00 673.00" xmlns="http://www.w3.org/2000/svg" xmlns:xlink="http://www.w3.org/1999/xlink">
<g id="graph0" class="graph" transform="scale(1 1) rotate(0) translate(4 669)">
<title>G</title>
<polygon fill="white" stroke="none" points="-4,4 -4,-669 3919,-669 3919,4 -4,4"/>
<g id="clust5" class="cluster">
<title>cluster_aptos_governance</title>
<polygon fill="none" stroke="black" points="1599,-136 1599,-283 2137,-283 2137,-136 1599,-136"/>
<text text-anchor="middle" x="1868" y="-267.8" font-family="Times,serif" font-size="14.00">aptos_governance</text>
</g>
<g id="clust1" class="cluster">
<title>cluster_aptos_account</title>
<polygon fill="none" stroke="black" points="8,-363 8,-657 285,-657 285,-363 8,-363"/>
<text text-anchor="middle" x="146.5" y="-641.8" font-family="Times,serif" font-size="14.00">aptos_account</text>
</g>
<g id="clust6" class="cluster">
<title>cluster_genesis</title>
<polygon fill="none" stroke="black" points="293,-363 293,-657 1075,-657 1075,-363 293,-363"/>
<text text-anchor="middle" x="684" y="-641.8" font-family="Times,serif" font-size="14.00">genesis</text>
</g>
<g id="clust2" class="cluster">
<title>cluster_staking_contract</title>
<polygon fill="none" stroke="black" points="1271,-208 1271,-438 1561,-438 1561,-208 1271,-208"/>
<text text-anchor="middle" x="1416" y="-422.8" font-family="Times,serif" font-size="14.00">staking_contract</text>
</g>
<g id="clust3" class="cluster">
<title>cluster_vesting</title>
<polygon fill="none" stroke="black" points="2145,-136 2145,-438 3422,-438 3422,-136 2145,-136"/>
<text text-anchor="middle" x="2783.5" y="-422.8" font-family="Times,serif" font-size="14.00">vesting</text>
</g>
<g id="clust4" class="cluster">
<title>cluster_resource_account</title>
<polygon fill="none" stroke="black" points="390,-208 390,-283 1263,-283 1263,-208 390,-208"/>
<text text-anchor="middle" x="826.5" y="-267.8" font-family="Times,serif" font-size="14.00">resource_account</text>
</g>
<g id="clust7" class="cluster">
<title>cluster_staking_proxy</title>
<polygon fill="none" stroke="black" points="3430,-291 3430,-438 3907,-438 3907,-291 3430,-291"/>
<text text-anchor="middle" x="3668.5" y="-422.8" font-family="Times,serif" font-size="14.00">staking_proxy</text>
</g>
<!-- create_signer -->
<g id="node1" class="node">
<title>create_signer</title>
<ellipse fill="none" stroke="black" cx="539" cy="-18" rx="57.69" ry="18"/>
<text text-anchor="middle" x="539" y="-14.3" font-family="Times,serif" font-size="14.00">create_signer</text>
</g>
<!-- create_account_unchecked -->
<g id="node2" class="node">
<title>create_account_unchecked</title>
<ellipse fill="none" stroke="black" cx="539" cy="-90" rx="105.08" ry="18"/>
<text text-anchor="middle" x="539" y="-86.3" font-family="Times,serif" font-size="14.00">create_account_unchecked</text>
</g>
<!-- create_account_unchecked&#45;&gt;create_signer -->
<g id="edge1" class="edge">
<title>create_account_unchecked&#45;&gt;create_signer</title>
<path fill="none" stroke="black" d="M539,-71.7C539,-64.41 539,-55.73 539,-47.54"/>
<polygon fill="black" stroke="black" points="542.5,-47.62 539,-37.62 535.5,-47.62 542.5,-47.62"/>
</g>
<!-- create_authorized_signer -->
<g id="node3" class="node">
<title>create_authorized_signer</title>
<ellipse fill="none" stroke="black" cx="317" cy="-90" rx="98.58" ry="18"/>
<text text-anchor="middle" x="317" y="-86.3" font-family="Times,serif" font-size="14.00">create_authorized_signer</text>
</g>
<!-- create_authorized_signer&#45;&gt;create_signer -->
<g id="edge2" class="edge">
<title>create_authorized_signer&#45;&gt;create_signer</title>
<path fill="none" stroke="black" d="M364.9,-73.9C401.44,-62.37 451.65,-46.54 488.76,-34.84"/>
<polygon fill="black" stroke="black" points="489.41,-38.31 497.9,-31.96 487.31,-31.63 489.41,-38.31"/>
</g>
<!-- create_resource_account -->
<g id="node4" class="node">
<title>create_resource_account</title>
<ellipse fill="none" stroke="black" cx="907" cy="-162" rx="97.48" ry="18"/>
<text text-anchor="middle" x="907" y="-158.3" font-family="Times,serif" font-size="14.00">create_resource_account</text>
</g>
<!-- create_resource_account&#45;&gt;create_signer -->
<g id="edge3" class="edge">
<title>create_resource_account&#45;&gt;create_signer</title>
<path fill="none" stroke="black" d="M866.21,-145.26C797.06,-118.58 657.28,-64.64 584.84,-36.69"/>
<polygon fill="black" stroke="black" points="586.24,-33.48 575.65,-33.14 583.72,-40.01 586.24,-33.48"/>
</g>
<!-- create_resource_account&#45;&gt;create_account_unchecked -->
<g id="edge8" class="edge">
<title>create_resource_account&#45;&gt;create_account_unchecked</title>
<path fill="none" stroke="black" d="M840.78,-148.4C778.48,-136.55 685.09,-118.79 618.73,-106.17"/>
<polygon fill="black" stroke="black" points="619.46,-102.74 608.98,-104.31 618.15,-109.62 619.46,-102.74"/>
</g>
<!-- create_signer_with_capability -->
<g id="node5" class="node">
<title>create_signer_with_capability</title>
<ellipse fill="none" stroke="black" cx="1944" cy="-90" rx="116.18" ry="18"/>
<text text-anchor="middle" x="1944" y="-86.3" font-family="Times,serif" font-size="14.00">create_signer_with_capability</text>
</g>
<!-- create_signer_with_capability&#45;&gt;create_signer -->
<g id="edge4" class="edge">
<title>create_signer_with_capability&#45;&gt;create_signer</title>
<path fill="none" stroke="black" d="M1834.92,-83.57C1557.82,-69.76 832.81,-33.64 607.09,-22.39"/>
<polygon fill="black" stroke="black" points="607.45,-18.91 597.29,-21.9 607.1,-25.9 607.45,-18.91"/>
</g>
<!-- aptos_account::deposit_coins -->
<g id="node6" class="node">
<title>aptos_account::deposit_coins</title>
<ellipse fill="none" stroke="black" cx="101" cy="-464" rx="59.29" ry="18"/>
<text text-anchor="middle" x="101" y="-460.3" font-family="Times,serif" font-size="14.00">deposit_coins</text>
</g>
<!-- aptos_account::deposit_coins&#45;&gt;create_signer -->
<g id="edge5" class="edge">
<title>aptos_account::deposit_coins&#45;&gt;create_signer</title>
<path fill="none" stroke="black" d="M102.98,-445.62C105.89,-418.43 111,-364.18 111,-318 111,-318 111,-318 111,-161 111,-102.16 155.98,-97.5 209,-72 292.59,-31.8 400.46,-21.14 469.69,-18.8"/>
<polygon fill="black" stroke="black" points="469.47,-22.31 479.37,-18.53 469.27,-15.31 469.47,-22.31"/>
</g>
<!-- aptos_account::create_account -->
<g id="node17" class="node">
<title>aptos_account::create_account</title>
<ellipse fill="none" stroke="black" cx="213" cy="-389" rx="63.89" ry="18"/>
<text text-anchor="middle" x="213" y="-385.3" font-family="Times,serif" font-size="14.00">create_account</text>
</g>
<!-- aptos_account::deposit_coins&#45;&gt;aptos_account::create_account -->
<g id="edge36" class="edge">
<title>aptos_account::deposit_coins&#45;&gt;aptos_account::create_account</title>
<path fill="none" stroke="black" d="M125.3,-447.16C141.04,-436.9 161.77,-423.39 179.12,-412.08"/>
<polygon fill="black" stroke="black" points="180.62,-415.28 187.09,-406.89 176.8,-409.42 180.62,-415.28"/>
</g>
<!-- create_account -->
<g id="node7" class="node">
<title>create_account</title>
<ellipse fill="none" stroke="black" cx="332" cy="-317" rx="63.89" ry="18"/>
<text text-anchor="middle" x="332" y="-313.3" font-family="Times,serif" font-size="14.00">create_account</text>
</g>
<!-- create_account&#45;&gt;create_account_unchecked -->
<g id="edge6" class="edge">
<title>create_account&#45;&gt;create_account_unchecked</title>
<path fill="none" stroke="black" d="M328.54,-298.55C322.59,-263.08 314.74,-182 356,-136 368.78,-121.75 408.1,-111.13 447.04,-103.79"/>
<polygon fill="black" stroke="black" points="447.28,-107.3 456.5,-102.08 446.03,-100.42 447.28,-107.3"/>
</g>
<!-- create_framework_reserved_account -->
<g id="node8" class="node">
<title>create_framework_reserved_account</title>
<ellipse fill="none" stroke="black" cx="1224" cy="-464" rx="141.07" ry="18"/>
<text text-anchor="middle" x="1224" y="-460.3" font-family="Times,serif" font-size="14.00">create_framework_reserved_account</text>
</g>
<!-- create_framework_reserved_account&#45;&gt;create_account_unchecked -->
<g id="edge7" class="edge">
<title>create_framework_reserved_account&#45;&gt;create_account_unchecked</title>
<path fill="none" stroke="black" d="M1205.57,-445.75C1179.59,-422.55 1129.67,-382.03 1079,-363 1042.72,-349.37 411.79,-311.93 386,-283 333.48,-224.07 437.01,-149.93 498.3,-113.42"/>
<polygon fill="black" stroke="black" points="499.94,-116.51 506.81,-108.44 496.41,-110.47 499.94,-116.51"/>
</g>
<!-- staking_contract::create_stake_pool -->
<g id="node9" class="node">
<title>staking_contract::create_stake_pool</title>
<ellipse fill="none" stroke="black" cx="1384" cy="-234" rx="74.19" ry="18"/>
<text text-anchor="middle" x="1384" y="-230.3" font-family="Times,serif" font-size="14.00">create_stake_pool</text>
</g>
<!-- staking_contract::create_stake_pool&#45;&gt;create_resource_account -->
<g id="edge9" class="edge">
<title>staking_contract::create_stake_pool&#45;&gt;create_resource_account</title>
<path fill="none" stroke="black" d="M1331.77,-220.83C1311.6,-216.4 1288.3,-211.6 1267,-208 1177.69,-192.9 1075.12,-180.57 1002.37,-172.66"/>
<polygon fill="black" stroke="black" points="1002.77,-169.18 992.46,-171.59 1002.02,-176.14 1002.77,-169.18"/>
</g>
<!-- vesting::create_vesting_contract_account -->
<g id="node10" class="node">
<title>vesting::create_vesting_contract_account</title>
<ellipse fill="none" stroke="black" cx="2279" cy="-317" rx="126.18" ry="18"/>
<text text-anchor="middle" x="2279" y="-313.3" font-family="Times,serif" font-size="14.00">create_vesting_contract_account</text>
</g>
<!-- vesting::create_vesting_contract_account&#45;&gt;create_resource_account -->
<g id="edge10" class="edge">
<title>vesting::create_vesting_contract_account&#45;&gt;create_resource_account</title>
<path fill="none" stroke="black" d="M2154.74,-313.46C1963.69,-309.06 1617.36,-298.94 1595,-283 1565.77,-262.16 1594.02,-229.13 1565,-208 1521.75,-176.51 1190.94,-167.02 1015.5,-164.18"/>
<polygon fill="black" stroke="black" points="1015.74,-160.69 1005.68,-164.03 1015.63,-167.69 1015.74,-160.69"/>
</g>
<!-- resource_account::create_resource_account -->
<g id="node11" class="node">
<title>resource_account::create_resource_account</title>
<ellipse fill="none" stroke="black" cx="1158" cy="-234" rx="97.48" ry="18"/>
<text text-anchor="middle" x="1158" y="-230.3" font-family="Times,serif" font-size="14.00">create_resource_account</text>
</g>
<!-- resource_account::create_resource_account&#45;&gt;create_resource_account -->
<g id="edge11" class="edge">
<title>resource_account::create_resource_account&#45;&gt;create_resource_account</title>
<path fill="none" stroke="black" d="M1105.69,-218.41C1066.25,-207.41 1012,-192.28 970.15,-180.61"/>
<polygon fill="black" stroke="black" points="971.28,-177.29 960.7,-177.98 969.4,-184.03 971.28,-177.29"/>
</g>
<!-- resource_account::create_resource_account_and_fund -->
<g id="node12" class="node">
<title>resource_account::create_resource_account_and_fund</title>
<ellipse fill="none" stroke="black" cx="907" cy="-234" rx="135.38" ry="18"/>
<text text-anchor="middle" x="907" y="-230.3" font-family="Times,serif" font-size="14.00">create_resource_account_and_fund</text>
</g>
<!-- resource_account::create_resource_account_and_fund&#45;&gt;create_resource_account -->
<g id="edge12" class="edge">
<title>resource_account::create_resource_account_and_fund&#45;&gt;create_resource_account</title>
<path fill="none" stroke="black" d="M907,-215.7C907,-208.41 907,-199.73 907,-191.54"/>
<polygon fill="black" stroke="black" points="910.5,-191.62 907,-181.62 903.5,-191.62 910.5,-191.62"/>
</g>
<!-- resource_account::create_resource_account_and_publish_package -->
<g id="node13" class="node">
<title>resource_account::create_resource_account_and_publish_package</title>
<ellipse fill="none" stroke="black" cx="576" cy="-234" rx="178.17" ry="18"/>
<text text-anchor="middle" x="576" y="-230.3" font-family="Times,serif" font-size="14.00">create_resource_account_and_publish_package</text>
</g>
<!-- resource_account::create_resource_account_and_publish_package&#45;&gt;create_resource_account -->
<g id="edge13" class="edge">
<title>resource_account::create_resource_account_and_publish_package&#45;&gt;create_resource_account</title>
<path fill="none" stroke="black" d="M650.7,-217.2C705.37,-205.64 779.2,-190.03 833.57,-178.53"/>
<polygon fill="black" stroke="black" points="833.98,-182.02 843.04,-176.53 832.53,-175.17 833.98,-182.02"/>
</g>
<!-- aptos_governance::get_signer -->
<g id="node14" class="node">
<title>aptos_governance::get_signer</title>
<ellipse fill="none" stroke="black" cx="1944" cy="-162" rx="47.39" ry="18"/>
<text text-anchor="middle" x="1944" y="-158.3" font-family="Times,serif" font-size="14.00">get_signer</text>
</g>
<!-- aptos_governance::get_signer&#45;&gt;create_signer_with_capability -->
<g id="edge14" class="edge">
<title>aptos_governance::get_signer&#45;&gt;create_signer_with_capability</title>
<path fill="none" stroke="black" d="M1944,-143.7C1944,-136.41 1944,-127.73 1944,-119.54"/>
<polygon fill="black" stroke="black" points="1947.5,-119.62 1944,-109.62 1940.5,-119.62 1947.5,-119.62"/>
</g>
<!-- vesting::get_vesting_account_signer_internal -->
<g id="node15" class="node">
<title>vesting::get_vesting_account_signer_internal</title>
<ellipse fill="none" stroke="black" cx="2676" cy="-162" rx="139.98" ry="18"/>
<text text-anchor="middle" x="2676" y="-158.3" font-family="Times,serif" font-size="14.00">get_vesting_account_signer_internal</text>
</g>
<!-- vesting::get_vesting_account_signer_internal&#45;&gt;create_signer_with_capability -->
<g id="edge15" class="edge">
<title>vesting::get_vesting_account_signer_internal&#45;&gt;create_signer_with_capability</title>
<path fill="none" stroke="black" d="M2566.41,-150.52C2427.73,-137.26 2190.33,-114.56 2052.28,-101.35"/>
<polygon fill="black" stroke="black" points="2052.67,-97.88 2042.38,-100.41 2052,-104.84 2052.67,-97.88"/>
</g>
<!-- aptos_account::transfer_coins -->
<g id="node16" class="node">
<title>aptos_account::transfer_coins</title>
<ellipse fill="none" stroke="black" cx="76" cy="-536" rx="60.39" ry="18"/>
<text text-anchor="middle" x="76" y="-532.3" font-family="Times,serif" font-size="14.00">transfer_coins</text>
</g>
<!-- aptos_account::transfer_coins&#45;&gt;aptos_account::deposit_coins -->
<g id="edge16" class="edge">
<title>aptos_account::transfer_coins&#45;&gt;aptos_account::deposit_coins</title>
<path fill="none" stroke="black" d="M82.18,-517.7C84.87,-510.15 88.1,-501.12 91.11,-492.68"/>
<polygon fill="black" stroke="black" points="94.31,-494.12 94.38,-483.53 87.72,-491.77 94.31,-494.12"/>
</g>
<!-- aptos_account::create_account&#45;&gt;create_account -->
<g id="edge17" class="edge">
<title>aptos_account::create_account&#45;&gt;create_account</title>
<path fill="none" stroke="black" d="M239.71,-372.29C256.17,-362.61 277.49,-350.06 295.5,-339.47"/>
<polygon fill="black" stroke="black" points="297.23,-342.51 304.08,-334.42 293.68,-336.48 297.23,-342.51"/>
</g>
<!-- genesis::create_account -->
<g id="node18" class="node">
<title>genesis::create_account</title>
<ellipse fill="none" stroke="black" cx="535" cy="-389" rx="63.89" ry="18"/>
<text text-anchor="middle" x="535" y="-385.3" font-family="Times,serif" font-size="14.00">create_account</text>
</g>
<!-- genesis::create_account&#45;&gt;create_account -->
<g id="edge18" class="edge">
<title>genesis::create_account&#45;&gt;create_account</title>
<path fill="none" stroke="black" d="M495.86,-374.5C463.39,-363.31 417.01,-347.31 381.88,-335.2"/>
<polygon fill="black" stroke="black" points="383.39,-332.02 372.8,-332.07 381.11,-338.64 383.39,-332.02"/>
</g>
<!-- genesis::initialize_core_resources_and_aptos_coin -->
<g id="node19" class="node">
<title>genesis::initialize_core_resources_and_aptos_coin</title>
<ellipse fill="none" stroke="black" cx="459" cy="-608" rx="157.87" ry="18"/>
<text text-anchor="middle" x="459" y="-604.3" font-family="Times,serif" font-size="14.00">initialize_core_resources_and_aptos_coin</text>
</g>
<!-- genesis::initialize_core_resources_and_aptos_coin&#45;&gt;create_account -->
<g id="edge19" class="edge">
<title>genesis::initialize_core_resources_and_aptos_coin&#45;&gt;create_account</title>
<path fill="none" stroke="black" d="M400.09,-590.94C381.42,-582.89 362.63,-571.1 351,-554 307.82,-490.54 317.53,-394.08 325.94,-346.54"/>
<polygon fill="black" stroke="black" points="329.37,-347.25 327.79,-336.77 322.49,-345.95 329.37,-347.25"/>
</g>
<!-- genesis::initialize -->
<g id="node20" class="node">
<title>genesis::initialize</title>
<ellipse fill="none" stroke="black" cx="788" cy="-536" rx="41.69" ry="18"/>
<text text-anchor="middle" x="788" y="-532.3" font-family="Times,serif" font-size="14.00">initialize</text>
</g>
<!-- genesis::initialize&#45;&gt;create_framework_reserved_account -->
<g id="edge20" class="edge">
<title>genesis::initialize&#45;&gt;create_framework_reserved_account</title>
<path fill="none" stroke="black" d="M818.94,-523.46C825.19,-521.42 831.75,-519.48 838,-518 864.56,-511.72 1011.01,-492.3 1115.65,-478.8"/>
<polygon fill="black" stroke="black" points="1115.94,-482.29 1125.41,-477.54 1115.05,-475.35 1115.94,-482.29"/>
</g>
<!-- staking_contract::create_staking_contract_with_coins -->
<g id="node21" class="node">
<title>staking_contract::create_staking_contract_with_coins</title>
<ellipse fill="none" stroke="black" cx="1416" cy="-317" rx="137.28" ry="18"/>
<text text-anchor="middle" x="1416" y="-313.3" font-family="Times,serif" font-size="14.00">create_staking_contract_with_coins</text>
</g>
<!-- staking_contract::create_staking_contract_with_coins&#45;&gt;staking_contract::create_stake_pool -->
<g id="edge21" class="edge">
<title>staking_contract::create_staking_contract_with_coins&#45;&gt;staking_contract::create_stake_pool</title>
<path fill="none" stroke="black" d="M1409.21,-298.82C1405.06,-288.3 1399.64,-274.59 1394.89,-262.57"/>
<polygon fill="black" stroke="black" points="1398.26,-261.58 1391.33,-253.56 1391.75,-264.15 1398.26,-261.58"/>
</g>
<!-- vesting::create_vesting_contract -->
<g id="node22" class="node">
<title>vesting::create_vesting_contract</title>
<ellipse fill="none" stroke="black" cx="2247" cy="-389" rx="94.48" ry="18"/>
<text text-anchor="middle" x="2247" y="-385.3" font-family="Times,serif" font-size="14.00">create_vesting_contract</text>
</g>
<!-- vesting::create_vesting_contract&#45;&gt;vesting::create_vesting_contract_account -->
<g id="edge22" class="edge">
<title>vesting::create_vesting_contract&#45;&gt;vesting::create_vesting_contract_account</title>
<path fill="none" stroke="black" d="M2254.91,-370.7C2258.4,-363.07 2262.58,-353.92 2266.48,-345.4"/>
<polygon fill="black" stroke="black" points="2269.58,-347.03 2270.55,-336.48 2263.21,-344.12 2269.58,-347.03"/>
</g>
<!-- vesting::create_vesting_contract&#45;&gt;staking_contract::create_staking_contract_with_coins -->
<g id="edge41" class="edge">
<title>vesting::create_vesting_contract&#45;&gt;staking_contract::create_staking_contract_with_coins</title>
<path fill="none" stroke="black" d="M2161.97,-380.84C2014.71,-368.43 1711.58,-342.9 1540.54,-328.49"/>
<polygon fill="black" stroke="black" points="1540.98,-325.02 1530.72,-327.66 1540.39,-331.99 1540.98,-325.02"/>
</g>
<!-- aptos_governance::resolve -->
<g id="node23" class="node">
<title>aptos_governance::resolve</title>
<ellipse fill="none" stroke="black" cx="2093" cy="-234" rx="36.29" ry="18"/>
<text text-anchor="middle" x="2093" y="-230.3" font-family="Times,serif" font-size="14.00">resolve</text>
</g>
<!-- aptos_governance::resolve&#45;&gt;aptos_governance::get_signer -->
<g id="edge23" class="edge">
<title>aptos_governance::resolve&#45;&gt;aptos_governance::get_signer</title>
<path fill="none" stroke="black" d="M2070.34,-219.84C2063.26,-215.88 2055.38,-211.63 2048,-208 2027.99,-198.14 2005.31,-188.19 1986.24,-180.16"/>
<polygon fill="black" stroke="black" points="1987.74,-177 1977.17,-176.37 1985.05,-183.46 1987.74,-177"/>
</g>
<!-- aptos_governance::get_signer_testnet_only -->
<g id="node24" class="node">
<title>aptos_governance::get_signer_testnet_only</title>
<ellipse fill="none" stroke="black" cx="1944" cy="-234" rx="94.78" ry="18"/>
<text text-anchor="middle" x="1944" y="-230.3" font-family="Times,serif" font-size="14.00">get_signer_testnet_only</text>
</g>
<!-- aptos_governance::get_signer_testnet_only&#45;&gt;aptos_governance::get_signer -->
<g id="edge24" class="edge">
<title>aptos_governance::get_signer_testnet_only&#45;&gt;aptos_governance::get_signer</title>
<path fill="none" stroke="black" d="M1944,-215.7C1944,-208.41 1944,-199.73 1944,-191.54"/>
<polygon fill="black" stroke="black" points="1947.5,-191.62 1944,-181.62 1940.5,-191.62 1947.5,-191.62"/>
</g>
<!-- aptos_governance::resolve_multi_step_proposal -->
<g id="node25" class="node">
<title>aptos_governance::resolve_multi_step_proposal</title>
<ellipse fill="none" stroke="black" cx="1719" cy="-234" rx="112.38" ry="18"/>
<text text-anchor="middle" x="1719" y="-230.3" font-family="Times,serif" font-size="14.00">resolve_multi_step_proposal</text>
</g>
<!-- aptos_governance::resolve_multi_step_proposal&#45;&gt;aptos_governance::get_signer -->
<g id="edge25" class="edge">
<title>aptos_governance::resolve_multi_step_proposal&#45;&gt;aptos_governance::get_signer</title>
<path fill="none" stroke="black" d="M1768.93,-217.46C1807.35,-205.51 1860.03,-189.12 1897.55,-177.45"/>
<polygon fill="black" stroke="black" points="1898.23,-180.9 1906.74,-174.59 1896.15,-174.22 1898.23,-180.9"/>
</g>
<!-- vesting::reset_lockup -->
<g id="node26" class="node">
<title>vesting::reset_lockup</title>
<ellipse fill="none" stroke="black" cx="3358" cy="-234" rx="55.79" ry="18"/>
<text text-anchor="middle" x="3358" y="-230.3" font-family="Times,serif" font-size="14.00">reset_lockup</text>
</g>
<!-- vesting::reset_lockup&#45;&gt;vesting::get_vesting_account_signer_internal -->
<g id="edge26" class="edge">
<title>vesting::reset_lockup&#45;&gt;vesting::get_vesting_account_signer_internal</title>
<path fill="none" stroke="black" d="M3327.01,-218.74C3316.72,-214.59 3305.05,-210.5 3294,-208 3207.06,-188.33 2973.68,-175.27 2819.91,-168.5"/>
<polygon fill="black" stroke="black" points="2820.17,-165.01 2810.03,-168.07 2819.87,-172 2820.17,-165.01"/>
</g>
<!-- vesting::unlock_rewards -->
<g id="node27" class="node">
<title>vesting::unlock_rewards</title>
<ellipse fill="none" stroke="black" cx="2502" cy="-234" rx="66.89" ry="18"/>
<text text-anchor="middle" x="2502" y="-230.3" font-family="Times,serif" font-size="14.00">unlock_rewards</text>
</g>
<!-- vesting::unlock_rewards&#45;&gt;vesting::get_vesting_account_signer_internal -->
<g id="edge27" class="edge">
<title>vesting::unlock_rewards&#45;&gt;vesting::get_vesting_account_signer_internal</title>
<path fill="none" stroke="black" d="M2538.05,-218.5C2563.03,-208.45 2596.66,-194.92 2624.46,-183.73"/>
<polygon fill="black" stroke="black" points="2625.43,-187.12 2633.4,-180.14 2622.82,-180.62 2625.43,-187.12"/>
</g>
<!-- vesting::unlock_stake -->
<g id="node28" class="node">
<title>vesting::unlock_stake</title>
<ellipse fill="none" stroke="black" cx="2360" cy="-234" rx="57.39" ry="18"/>
<text text-anchor="middle" x="2360" y="-230.3" font-family="Times,serif" font-size="14.00">unlock_stake</text>
</g>
<!-- vesting::unlock_stake&#45;&gt;vesting::get_vesting_account_signer_internal -->
<g id="edge28" class="edge">
<title>vesting::unlock_stake&#45;&gt;vesting::get_vesting_account_signer_internal</title>
<path fill="none" stroke="black" d="M2393.52,-218.94C2403.81,-214.99 2415.25,-210.98 2426,-208 2472.92,-195.01 2525.86,-184.86 2570.91,-177.51"/>
<polygon fill="black" stroke="black" points="2571.37,-180.98 2580.69,-175.94 2570.26,-174.07 2571.37,-180.98"/>
</g>
<!-- vesting::update_voter -->
<g id="node29" class="node">
<title>vesting::update_voter</title>
<ellipse fill="none" stroke="black" cx="3228" cy="-234" rx="56.59" ry="18"/>
<text text-anchor="middle" x="3228" y="-230.3" font-family="Times,serif" font-size="14.00">update_voter</text>
</g>
<!-- vesting::update_voter&#45;&gt;vesting::get_vesting_account_signer_internal -->
<g id="edge29" class="edge">
<title>vesting::update_voter&#45;&gt;vesting::get_vesting_account_signer_internal</title>
<path fill="none" stroke="black" d="M3196.15,-218.74C3185.77,-214.65 3174.07,-210.59 3163,-208 3051.46,-181.92 2922.23,-170.83 2824.94,-166.18"/>
<polygon fill="black" stroke="black" points="2825.19,-162.69 2815.04,-165.72 2824.87,-169.68 2825.19,-162.69"/>
</g>
<!-- vesting::get_vesting_account_signer -->
<g id="node30" class="node">
<title>vesting::get_vesting_account_signer</title>
<ellipse fill="none" stroke="black" cx="3045" cy="-234" rx="108.58" ry="18"/>
<text text-anchor="middle" x="3045" y="-230.3" font-family="Times,serif" font-size="14.00">get_vesting_account_signer</text>
</g>
<!-- vesting::get_vesting_account_signer&#45;&gt;vesting::get_vesting_account_signer_internal -->
<g id="edge30" class="edge">
<title>vesting::get_vesting_account_signer&#45;&gt;vesting::get_vesting_account_signer_internal</title>
<path fill="none" stroke="black" d="M2981.32,-218.99C2964.04,-215.29 2945.33,-211.4 2928,-208 2875.61,-197.73 2816.91,-187.19 2769.34,-178.89"/>
<polygon fill="black" stroke="black" points="2770.07,-175.47 2759.62,-177.2 2768.87,-182.36 2770.07,-175.47"/>
</g>
<!-- vesting::set_management_role -->
<g id="node31" class="node">
<title>vesting::set_management_role</title>
<ellipse fill="none" stroke="black" cx="2676" cy="-234" rx="89.08" ry="18"/>
<text text-anchor="middle" x="2676" y="-230.3" font-family="Times,serif" font-size="14.00">set_management_role</text>
</g>
<!-- vesting::set_management_role&#45;&gt;vesting::get_vesting_account_signer_internal -->
<g id="edge31" class="edge">
<title>vesting::set_management_role&#45;&gt;vesting::get_vesting_account_signer_internal</title>
<path fill="none" stroke="black" d="M2676,-215.7C2676,-208.41 2676,-199.73 2676,-191.54"/>
<polygon fill="black" stroke="black" points="2679.5,-191.62 2676,-181.62 2672.5,-191.62 2679.5,-191.62"/>
</g>
<!-- vesting::update_operator -->
<g id="node32" class="node">
<title>vesting::update_operator</title>
<ellipse fill="none" stroke="black" cx="2851" cy="-234" rx="67.69" ry="18"/>
<text text-anchor="middle" x="2851" y="-230.3" font-family="Times,serif" font-size="14.00">update_operator</text>
</g>
<!-- vesting::update_operator&#45;&gt;vesting::get_vesting_account_signer_internal -->
<g id="edge32" class="edge">
<title>vesting::update_operator&#45;&gt;vesting::get_vesting_account_signer_internal</title>
<path fill="none" stroke="black" d="M2814.74,-218.5C2789.62,-208.45 2755.79,-194.92 2727.83,-183.73"/>
<polygon fill="black" stroke="black" points="2729.42,-180.6 2718.84,-180.14 2726.82,-187.1 2729.42,-180.6"/>
</g>
<!-- vesting::withdraw_stake -->
<g id="node33" class="node">
<title>vesting::withdraw_stake</title>
<ellipse fill="none" stroke="black" cx="2219" cy="-234" rx="66.09" ry="18"/>
<text text-anchor="middle" x="2219" y="-230.3" font-family="Times,serif" font-size="14.00">withdraw_stake</text>
</g>
<!-- vesting::withdraw_stake&#45;&gt;vesting::get_vesting_account_signer_internal -->
<g id="edge33" class="edge">
<title>vesting::withdraw_stake&#45;&gt;vesting::get_vesting_account_signer_internal</title>
<path fill="none" stroke="black" d="M2256.35,-218.88C2268.24,-214.84 2281.54,-210.78 2294,-208 2375.52,-189.81 2468.57,-178.66 2542.43,-172"/>
<polygon fill="black" stroke="black" points="2542.48,-175.51 2552.14,-171.14 2541.87,-168.54 2542.48,-175.51"/>
</g>
<!-- aptos_account::batch_transfer_coins -->
<g id="node34" class="node">
<title>aptos_account::batch_transfer_coins</title>
<ellipse fill="none" stroke="black" cx="100" cy="-608" rx="83.69" ry="18"/>
<text text-anchor="middle" x="100" y="-604.3" font-family="Times,serif" font-size="14.00">batch_transfer_coins</text>
</g>
<!-- aptos_account::batch_transfer_coins&#45;&gt;aptos_account::transfer_coins -->
<g id="edge34" class="edge">
<title>aptos_account::batch_transfer_coins&#45;&gt;aptos_account::transfer_coins</title>
<path fill="none" stroke="black" d="M94.07,-589.7C91.51,-582.24 88.45,-573.32 85.59,-564.97"/>
<polygon fill="black" stroke="black" points="88.91,-563.86 82.36,-555.54 82.29,-566.13 88.91,-563.86"/>
</g>
<!-- aptos_account::transfer -->
<g id="node35" class="node">
<title>aptos_account::transfer</title>
<ellipse fill="none" stroke="black" cx="216" cy="-464" rx="37.89" ry="18"/>
<text text-anchor="middle" x="216" y="-460.3" font-family="Times,serif" font-size="14.00">transfer</text>
</g>
<!-- aptos_account::transfer&#45;&gt;aptos_account::create_account -->
<g id="edge35" class="edge">
<title>aptos_account::transfer&#45;&gt;aptos_account::create_account</title>
<path fill="none" stroke="black" d="M215.29,-445.7C214.96,-437.67 214.56,-427.9 214.18,-418.8"/>
<polygon fill="black" stroke="black" points="217.69,-418.79 213.78,-408.94 210.69,-419.08 217.69,-418.79"/>
</g>
<!-- genesis::create_accounts -->
<g id="node36" class="node">
<title>genesis::create_accounts</title>
<ellipse fill="none" stroke="black" cx="725" cy="-464" rx="66.89" ry="18"/>
<text text-anchor="middle" x="725" y="-460.3" font-family="Times,serif" font-size="14.00">create_accounts</text>
</g>
<!-- genesis::create_accounts&#45;&gt;genesis::create_account -->
<g id="edge37" class="edge">
<title>genesis::create_accounts&#45;&gt;genesis::create_account</title>
<path fill="none" stroke="black" d="M687.92,-448.75C657.74,-437.16 614.96,-420.72 582.32,-408.18"/>
<polygon fill="black" stroke="black" points="583.67,-404.95 573.08,-404.63 581.16,-411.48 583.67,-404.95"/>
</g>
<!-- genesis::create_initialize_validator -->
<g id="node37" class="node">
<title>genesis::create_initialize_validator</title>
<ellipse fill="none" stroke="black" cx="535" cy="-464" rx="102.88" ry="18"/>
<text text-anchor="middle" x="535" y="-460.3" font-family="Times,serif" font-size="14.00">create_initialize_validator</text>
</g>
<!-- genesis::create_initialize_validator&#45;&gt;genesis::create_account -->
<g id="edge38" class="edge">
<title>genesis::create_initialize_validator&#45;&gt;genesis::create_account</title>
<path fill="none" stroke="black" d="M535,-445.7C535,-437.67 535,-427.9 535,-418.8"/>
<polygon fill="black" stroke="black" points="538.5,-418.94 535,-408.94 531.5,-418.94 538.5,-418.94"/>
</g>
<!-- staking_contract::create_staking_contract -->
<g id="node39" class="node">
<title>staking_contract::create_staking_contract</title>
<ellipse fill="none" stroke="black" cx="1394" cy="-389" rx="94.48" ry="18"/>
<text text-anchor="middle" x="1394" y="-385.3" font-family="Times,serif" font-size="14.00">create_staking_contract</text>
</g>
<!-- genesis::create_initialize_validator&#45;&gt;staking_contract::create_staking_contract -->
<g id="edge55" class="edge">
<title>genesis::create_initialize_validator&#45;&gt;staking_contract::create_staking_contract</title>
<path fill="none" stroke="black" d="M607.2,-450.79C621.04,-448.86 635.44,-447.13 649,-446 839.48,-430.09 888.54,-454.21 1079,-438 1161.16,-431.01 1254.43,-415.89 1318.02,-404.47"/>
<polygon fill="black" stroke="black" points="1318.44,-407.95 1327.66,-402.73 1317.19,-401.06 1318.44,-407.95"/>
</g>
<!-- genesis::initialize_for_verification -->
<g id="node38" class="node">
<title>genesis::initialize_for_verification</title>
<ellipse fill="none" stroke="black" cx="966" cy="-608" rx="100.98" ry="18"/>
<text text-anchor="middle" x="966" y="-604.3" font-family="Times,serif" font-size="14.00">initialize_for_verification</text>
</g>
<!-- genesis::initialize_for_verification&#45;&gt;genesis::initialize -->
<g id="edge39" class="edge">
<title>genesis::initialize_for_verification&#45;&gt;genesis::initialize</title>
<path fill="none" stroke="black" d="M925.61,-591.12C896.69,-579.74 857.88,-564.48 828.85,-553.07"/>
<polygon fill="black" stroke="black" points="830.24,-549.85 819.66,-549.45 827.68,-556.37 830.24,-549.85"/>
</g>
<!-- genesis::initialize_for_verification&#45;&gt;genesis::create_accounts -->
<g id="edge53" class="edge">
<title>genesis::initialize_for_verification&#45;&gt;genesis::create_accounts</title>
<path fill="none" stroke="black" d="M895.19,-594.78C832.01,-583.2 747.82,-565.88 737,-554 722.39,-537.96 720.12,-513.07 721.09,-493.68"/>
<polygon fill="black" stroke="black" points="724.55,-494.22 721.9,-483.96 717.58,-493.64 724.55,-494.22"/>
</g>
<!-- genesis::create_employee_validators -->
<g id="node40" class="node">
<title>genesis::create_employee_validators</title>
<ellipse fill="none" stroke="black" cx="957" cy="-536" rx="109.68" ry="18"/>
<text text-anchor="middle" x="957" y="-532.3" font-family="Times,serif" font-size="14.00">create_employee_validators</text>
</g>
<!-- genesis::initialize_for_verification&#45;&gt;genesis::create_employee_validators -->
<g id="edge56" class="edge">
<title>genesis::initialize_for_verification&#45;&gt;genesis::create_employee_validators</title>
<path fill="none" stroke="black" d="M963.78,-589.7C962.83,-582.32 961.7,-573.52 960.63,-565.25"/>
<polygon fill="black" stroke="black" points="964.14,-565.08 959.39,-555.61 957.2,-565.97 964.14,-565.08"/>
</g>
<!-- genesis::create_initialize_validators_with_commission -->
<g id="node50" class="node">
<title>genesis::create_initialize_validators_with_commission</title>
<ellipse fill="none" stroke="black" cx="534" cy="-536" rx="173.57" ry="18"/>
<text text-anchor="middle" x="534" y="-532.3" font-family="Times,serif" font-size="14.00">create_initialize_validators_with_commission</text>
</g>
<!-- genesis::initialize_for_verification&#45;&gt;genesis::create_initialize_validators_with_commission -->
<g id="edge61" class="edge">
<title>genesis::initialize_for_verification&#45;&gt;genesis::create_initialize_validators_with_commission</title>
<path fill="none" stroke="black" d="M893.21,-595.2C822.59,-583.76 714.79,-566.3 635.71,-553.48"/>
<polygon fill="black" stroke="black" points="636.67,-550.09 626.24,-551.95 635.55,-557 636.67,-550.09"/>
</g>
<!-- staking_contract::create_staking_contract&#45;&gt;staking_contract::create_staking_contract_with_coins -->
<g id="edge40" class="edge">
<title>staking_contract::create_staking_contract&#45;&gt;staking_contract::create_staking_contract_with_coins</title>
<path fill="none" stroke="black" d="M1399.44,-370.7C1401.78,-363.24 1404.58,-354.32 1407.21,-345.97"/>
<polygon fill="black" stroke="black" points="1410.51,-347.14 1410.17,-336.55 1403.83,-345.04 1410.51,-347.14"/>
</g>
<!-- genesis::create_employee_validators&#45;&gt;vesting::create_vesting_contract -->
<g id="edge42" class="edge">
<title>genesis::create_employee_validators&#45;&gt;vesting::create_vesting_contract</title>
<path fill="none" stroke="black" d="M1045.67,-525.03C1280.75,-498.61 1918.21,-426.96 2155.97,-400.23"/>
<polygon fill="black" stroke="black" points="2156.28,-403.72 2165.82,-399.12 2155.49,-396.76 2156.28,-403.72"/>
</g>
<!-- vesting::set_beneficiary_resetter -->
<g id="node44" class="node">
<title>vesting::set_beneficiary_resetter</title>
<ellipse fill="none" stroke="black" cx="2876" cy="-317" rx="94.78" ry="18"/>
<text text-anchor="middle" x="2876" y="-313.3" font-family="Times,serif" font-size="14.00">set_beneficiary_resetter</text>
</g>
<!-- genesis::create_employee_validators&#45;&gt;vesting::set_beneficiary_resetter -->
<g id="edge58" class="edge">
<title>genesis::create_employee_validators&#45;&gt;vesting::set_beneficiary_resetter</title>
<path fill="none" stroke="black" d="M1066.73,-534.85C1392.74,-533.44 2351.42,-522.07 2651,-438 2724.59,-417.35 2801.27,-369.97 2843.39,-341.31"/>
<polygon fill="black" stroke="black" points="2845.34,-344.21 2851.59,-335.66 2841.36,-338.45 2845.34,-344.21"/>
</g>
<!-- vesting::vest -->
<g id="node41" class="node">
<title>vesting::vest</title>
<ellipse fill="none" stroke="black" cx="2736" cy="-317" rx="27" ry="18"/>
<text text-anchor="middle" x="2736" y="-313.3" font-family="Times,serif" font-size="14.00">vest</text>
</g>
<!-- vesting::vest&#45;&gt;vesting::unlock_rewards -->
<g id="edge43" class="edge">
<title>vesting::vest&#45;&gt;vesting::unlock_rewards</title>
<path fill="none" stroke="black" d="M2718.54,-302.8C2711.58,-298.25 2703.26,-293.63 2695,-291 2645.33,-275.2 2627.54,-299.19 2578,-283 2561.29,-277.54 2544.57,-267.59 2531.08,-258.16"/>
<polygon fill="black" stroke="black" points="2533.25,-255.41 2523.1,-252.35 2529.12,-261.06 2533.25,-255.41"/>
</g>
<!-- vesting::vest&#45;&gt;vesting::unlock_stake -->
<g id="edge45" class="edge">
<title>vesting::vest&#45;&gt;vesting::unlock_stake</title>
<path fill="none" stroke="black" d="M2718.99,-302.9C2711.96,-298.23 2703.47,-293.52 2695,-291 2637.67,-273.98 2482.59,-302.34 2426,-283 2411.19,-277.94 2396.87,-268.31 2385.38,-258.99"/>
<polygon fill="black" stroke="black" points="2387.84,-256.49 2377.96,-252.67 2383.3,-261.82 2387.84,-256.49"/>
</g>
<!-- vesting::terminate_vesting_contract -->
<g id="node42" class="node">
<title>vesting::terminate_vesting_contract</title>
<ellipse fill="none" stroke="black" cx="2535" cy="-389" rx="106.68" ry="18"/>
<text text-anchor="middle" x="2535" y="-385.3" font-family="Times,serif" font-size="14.00">terminate_vesting_contract</text>
</g>
<!-- vesting::terminate_vesting_contract&#45;&gt;vesting::unlock_stake -->
<g id="edge44" class="edge">
<title>vesting::terminate_vesting_contract&#45;&gt;vesting::unlock_stake</title>
<path fill="none" stroke="black" d="M2615.7,-376.84C2640.42,-369.21 2665.03,-356.42 2680,-335 2691.21,-318.97 2693.61,-305.04 2680,-291 2670.18,-280.86 2439.36,-287.58 2426,-283 2411.19,-277.93 2396.88,-268.29 2385.38,-258.98"/>
<polygon fill="black" stroke="black" points="2387.85,-256.48 2377.97,-252.66 2383.3,-261.81 2387.85,-256.48"/>
</g>
<!-- vesting::distribute -->
<g id="node47" class="node">
<title>vesting::distribute</title>
<ellipse fill="none" stroke="black" cx="2467" cy="-317" rx="44.39" ry="18"/>
<text text-anchor="middle" x="2467" y="-313.3" font-family="Times,serif" font-size="14.00">distribute</text>
</g>
<!-- vesting::terminate_vesting_contract&#45;&gt;vesting::distribute -->
<g id="edge60" class="edge">
<title>vesting::terminate_vesting_contract&#45;&gt;vesting::distribute</title>
<path fill="none" stroke="black" d="M2518.54,-371.05C2510.23,-362.5 2500,-351.97 2490.85,-342.56"/>
<polygon fill="black" stroke="black" points="2493.37,-340.13 2483.9,-335.39 2488.35,-345 2493.37,-340.13"/>
</g>
<!-- staking_proxy::set_vesting_contract_voter -->
<g id="node43" class="node">
<title>staking_proxy::set_vesting_contract_voter</title>
<ellipse fill="none" stroke="black" cx="3794" cy="-317" rx="105.08" ry="18"/>
<text text-anchor="middle" x="3794" y="-313.3" font-family="Times,serif" font-size="14.00">set_vesting_contract_voter</text>
</g>
<!-- staking_proxy::set_vesting_contract_voter&#45;&gt;vesting::update_voter -->
<g id="edge46" class="edge">
<title>staking_proxy::set_vesting_contract_voter&#45;&gt;vesting::update_voter</title>
<path fill="none" stroke="black" d="M3737.34,-301.4C3718.86,-297.26 3698.17,-293.26 3679,-291 3636.4,-285.98 3333.61,-296.84 3293,-283 3278.23,-277.97 3264.02,-268.24 3252.67,-258.85"/>
<polygon fill="black" stroke="black" points="3255.21,-256.42 3245.37,-252.49 3250.61,-261.7 3255.21,-256.42"/>
</g>
<!-- vesting::set_beneficiary_resetter&#45;&gt;vesting::set_management_role -->
<g id="edge47" class="edge">
<title>vesting::set_beneficiary_resetter&#45;&gt;vesting::set_management_role</title>
<path fill="none" stroke="black" d="M2825.95,-301.37C2809.24,-296.08 2790.65,-289.73 2774,-283 2754.62,-275.17 2733.74,-265.17 2716.25,-256.33"/>
<polygon fill="black" stroke="black" points="2718.23,-253.41 2707.73,-251.97 2715.04,-259.64 2718.23,-253.41"/>
</g>
<!-- vesting::update_operator_with_same_commission -->
<g id="node45" class="node">
<title>vesting::update_operator_with_same_commission</title>
<ellipse fill="none" stroke="black" cx="3147" cy="-317" rx="158.67" ry="18"/>
<text text-anchor="middle" x="3147" y="-313.3" font-family="Times,serif" font-size="14.00">update_operator_with_same_commission</text>
</g>
<!-- vesting::update_operator_with_same_commission&#45;&gt;vesting::update_operator -->
<g id="edge48" class="edge">
<title>vesting::update_operator_with_same_commission&#45;&gt;vesting::update_operator</title>
<path fill="none" stroke="black" d="M3053.82,-302.05C2993.92,-293.08 2927.2,-283.07 2927,-283 2910.76,-276.96 2894.31,-267.13 2880.88,-257.93"/>
<polygon fill="black" stroke="black" points="2883.11,-255.22 2872.92,-252.28 2879.06,-260.92 2883.11,-255.22"/>
</g>
<!-- staking_proxy::set_vesting_contract_operator -->
<g id="node46" class="node">
<title>staking_proxy::set_vesting_contract_operator</title>
<ellipse fill="none" stroke="black" cx="3554" cy="-317" rx="116.18" ry="18"/>
<text text-anchor="middle" x="3554" y="-313.3" font-family="Times,serif" font-size="14.00">set_vesting_contract_operator</text>
</g>
<!-- staking_proxy::set_vesting_contract_operator&#45;&gt;vesting::update_operator -->
<g id="edge49" class="edge">
<title>staking_proxy::set_vesting_contract_operator&#45;&gt;vesting::update_operator</title>
<path fill="none" stroke="black" d="M3491.18,-301.43C3470.54,-297.26 3447.39,-293.24 3426,-291 3370.85,-285.22 2980.14,-298.84 2927,-283 2910.03,-277.94 2893.18,-267.94 2879.66,-258.37"/>
<polygon fill="black" stroke="black" points="2881.8,-255.59 2871.68,-252.45 2877.63,-261.22 2881.8,-255.59"/>
</g>
<!-- vesting::distribute&#45;&gt;vesting::withdraw_stake -->
<g id="edge50" class="edge">
<title>vesting::distribute&#45;&gt;vesting::withdraw_stake</title>
<path fill="none" stroke="black" d="M2441.85,-301.78C2433.27,-297.58 2423.45,-293.45 2414,-291 2362.26,-277.59 2344.77,-299.71 2294,-283 2277.46,-277.56 2260.95,-267.61 2247.65,-258.17"/>
<polygon fill="black" stroke="black" points="2249.92,-255.5 2239.8,-252.37 2245.76,-261.13 2249.92,-255.5"/>
</g>
<!-- vesting::admin_withdraw -->
<g id="node48" class="node">
<title>vesting::admin_withdraw</title>
<ellipse fill="none" stroke="black" cx="2600" cy="-317" rx="70.69" ry="18"/>
<text text-anchor="middle" x="2600" y="-313.3" font-family="Times,serif" font-size="14.00">admin_withdraw</text>
</g>
<!-- vesting::admin_withdraw&#45;&gt;vesting::withdraw_stake -->
<g id="edge51" class="edge">
<title>vesting::admin_withdraw&#45;&gt;vesting::withdraw_stake</title>
<path fill="none" stroke="black" d="M2561.04,-301.53C2548.16,-297.37 2533.63,-293.33 2520,-291 2470.46,-282.54 2341.97,-297.96 2294,-283 2277.37,-277.81 2260.86,-267.9 2247.57,-258.42"/>
<polygon fill="black" stroke="black" points="2249.84,-255.74 2239.73,-252.57 2245.65,-261.35 2249.84,-255.74"/>
</g>
<!-- aptos_account::batch_transfer -->
<g id="node49" class="node">
<title>aptos_account::batch_transfer</title>
<ellipse fill="none" stroke="black" cx="216" cy="-536" rx="61.19" ry="18"/>
<text text-anchor="middle" x="216" y="-532.3" font-family="Times,serif" font-size="14.00">batch_transfer</text>
</g>
<!-- aptos_account::batch_transfer&#45;&gt;aptos_account::transfer -->
<g id="edge52" class="edge">
<title>aptos_account::batch_transfer&#45;&gt;aptos_account::transfer</title>
<path fill="none" stroke="black" d="M216,-517.7C216,-510.41 216,-501.73 216,-493.54"/>
<polygon fill="black" stroke="black" points="219.5,-493.62 216,-483.62 212.5,-493.62 219.5,-493.62"/>
</g>
<!-- genesis::create_initialize_validators_with_commission&#45;&gt;genesis::create_initialize_validator -->
<g id="edge54" class="edge">
<title>genesis::create_initialize_validators_with_commission&#45;&gt;genesis::create_initialize_validator</title>
<path fill="none" stroke="black" d="M534.25,-517.7C534.35,-510.41 534.48,-501.73 534.59,-493.54"/>
<polygon fill="black" stroke="black" points="538.09,-493.67 534.73,-483.62 531.09,-493.57 538.09,-493.67"/>
</g>
<!-- staking_proxy::set_voter -->
<g id="node51" class="node">
<title>staking_proxy::set_voter</title>
<ellipse fill="none" stroke="black" cx="3794" cy="-389" rx="42.79" ry="18"/>
<text text-anchor="middle" x="3794" y="-385.3" font-family="Times,serif" font-size="14.00">set_voter</text>
</g>
<!-- staking_proxy::set_voter&#45;&gt;staking_proxy::set_vesting_contract_voter -->
<g id="edge57" class="edge">
<title>staking_proxy::set_voter&#45;&gt;staking_proxy::set_vesting_contract_voter</title>
<path fill="none" stroke="black" d="M3794,-370.7C3794,-363.41 3794,-354.73 3794,-346.54"/>
<polygon fill="black" stroke="black" points="3797.5,-346.62 3794,-336.62 3790.5,-346.62 3797.5,-346.62"/>
</g>
<!-- staking_proxy::set_operator -->
<g id="node52" class="node">
<title>staking_proxy::set_operator</title>
<ellipse fill="none" stroke="black" cx="3554" cy="-389" rx="53.89" ry="18"/>
<text text-anchor="middle" x="3554" y="-385.3" font-family="Times,serif" font-size="14.00">set_operator</text>
</g>
<!-- staking_proxy::set_operator&#45;&gt;staking_proxy::set_vesting_contract_operator -->
<g id="edge59" class="edge">
<title>staking_proxy::set_operator&#45;&gt;staking_proxy::set_vesting_contract_operator</title>
<path fill="none" stroke="black" d="M3554,-370.7C3554,-363.41 3554,-354.73 3554,-346.54"/>
<polygon fill="black" stroke="black" points="3557.5,-346.62 3554,-336.62 3550.5,-346.62 3557.5,-346.62"/>
</g>
<!-- genesis::create_initialize_validators -->
<g id="node53" class="node">
<title>genesis::create_initialize_validators</title>
<ellipse fill="none" stroke="black" cx="741" cy="-608" rx="105.88" ry="18"/>
<text text-anchor="middle" x="741" y="-604.3" font-family="Times,serif" font-size="14.00">create_initialize_validators</text>
</g>
<!-- genesis::create_initialize_validators&#45;&gt;genesis::create_initialize_validators_with_commission -->
<g id="edge62" class="edge">
<title>genesis::create_initialize_validators&#45;&gt;genesis::create_initialize_validators_with_commission</title>
<path fill="none" stroke="black" d="M694.8,-591.38C665.04,-581.31 626.05,-568.13 593.92,-557.26"/>
<polygon fill="black" stroke="black" points="595.33,-554.05 584.74,-554.16 593.09,-560.68 595.33,-554.05"/>
</g>
</g>
</svg>
