<?xml version="1.0" encoding="UTF-8" standalone="no"?>
<!DOCTYPE svg PUBLIC "-//W3C//DTD SVG 1.1//EN"
 "http://www.w3.org/Graphics/SVG/1.1/DTD/svg11.dtd">
<!-- Generated by graphviz version 7.0.4 (20221203.1631)
 -->
<!-- Title: G Pages: 1 -->
<svg width="579pt" height="290pt"
 viewBox="0.00 0.00 578.60 290.00" xmlns="http://www.w3.org/2000/svg" xmlns:xlink="http://www.w3.org/1999/xlink">
<g id="graph0" class="graph" transform="scale(1 1) rotate(0) translate(4 286)">
<title>G</title>
<polygon fill="white" stroke="none" points="-4,4 -4,-286 574.6,-286 574.6,4 -4,4"/>
<g id="clust1" class="cluster">
<title>cluster_option</title>
<polygon fill="none" stroke="black" points="19,-91 19,-238 202,-238 202,-91 19,-91"/>
<text text-anchor="middle" x="110.5" y="-222.8" font-family="Times,serif" font-size="14.00">option</text>
</g>
<g id="clust2" class="cluster">
<title>cluster_signer</title>
<polygon fill="none" stroke="black" points="210,-91 210,-238 360,-238 360,-91 210,-91"/>
<text text-anchor="middle" x="285" y="-222.8" font-family="Times,serif" font-size="14.00">signer</text>
</g>
<g id="clust3" class="cluster">
<title>cluster_error</title>
<polygon fill="none" stroke="black" points="368,-91 368,-238 478,-238 478,-91 368,-91"/>
<text text-anchor="middle" x="423" y="-222.8" font-family="Times,serif" font-size="14.00">error</text>
</g>
<g id="clust4" class="cluster">
<title>cluster_vector</title>
<polygon fill="none" stroke="black" points="8,-8 8,-83 210,-83 210,-8 8,-8"/>
<text text-anchor="middle" x="109" y="-67.8" font-family="Times,serif" font-size="14.00">vector</text>
</g>
<!-- revoke_signer_capability -->
<g id="node1" class="node">
<title>revoke_signer_capability</title>
<ellipse fill="none" stroke="black" cx="285" cy="-264" rx="99.38" ry="18"/>
<text text-anchor="middle" x="285" y="-260.3" font-family="Times,serif" font-size="14.00">revoke_signer_capability</text>
</g>
<!-- option::contains -->
<g id="node2" class="node">
<title>option::contains</title>
<ellipse fill="none" stroke="black" cx="154" cy="-189" rx="40.09" ry="18"/>
<text text-anchor="middle" x="154" y="-185.3" font-family="Times,serif" font-size="14.00">contains</text>
</g>
<!-- revoke_signer_capability&#45;&gt;option::contains -->
<g id="edge1" class="edge">
<title>revoke_signer_capability&#45;&gt;option::contains</title>
<path fill="none" stroke="black" d="M229.28,-248.79C221.22,-245.76 213.22,-242.19 206,-238 195.16,-231.71 184.71,-222.81 176.05,-214.38"/>
<polygon fill="black" stroke="black" points="178.6,-211.99 169.1,-207.3 173.61,-216.89 178.6,-211.99"/>
</g>
<!-- option::extract -->
<g id="node3" class="node">
<title>option::extract</title>
<ellipse fill="none" stroke="black" cx="61" cy="-189" rx="34.39" ry="18"/>
<text text-anchor="middle" x="61" y="-185.3" font-family="Times,serif" font-size="14.00">extract</text>
</g>
<!-- revoke_signer_capability&#45;&gt;option::extract -->
<g id="edge2" class="edge">
<title>revoke_signer_capability&#45;&gt;option::extract</title>
<path fill="none" stroke="black" d="M194.99,-256.17C158.36,-252.23 120.92,-246.36 105,-238 94.86,-232.67 85.85,-224.04 78.67,-215.56"/>
<polygon fill="black" stroke="black" points="81.48,-213.47 72.56,-207.76 75.97,-217.79 81.48,-213.47"/>
</g>
<!-- signer::address_of -->
<g id="node4" class="node">
<title>signer::address_of</title>
<ellipse fill="none" stroke="black" cx="285" cy="-189" rx="48.99" ry="18"/>
<text text-anchor="middle" x="285" y="-185.3" font-family="Times,serif" font-size="14.00">address_of</text>
</g>
<!-- revoke_signer_capability&#45;&gt;signer::address_of -->
<g id="edge3" class="edge">
<title>revoke_signer_capability&#45;&gt;signer::address_of</title>
<path fill="none" stroke="black" d="M285,-245.7C285,-237.67 285,-227.9 285,-218.8"/>
<polygon fill="black" stroke="black" points="288.5,-218.94 285,-208.94 281.5,-218.94 288.5,-218.94"/>
</g>
<!-- error::not_found -->
<g id="node5" class="node">
<title>error::not_found</title>
<ellipse fill="none" stroke="black" cx="423" cy="-189" rx="46.59" ry="18"/>
<text text-anchor="middle" x="423" y="-185.3" font-family="Times,serif" font-size="14.00">not_found</text>
</g>
<!-- revoke_signer_capability&#45;&gt;error::not_found -->
<g id="edge4" class="edge">
<title>revoke_signer_capability&#45;&gt;error::not_found</title>
<path fill="none" stroke="black" d="M339.66,-248.68C348.03,-245.65 356.4,-242.1 364,-238 376.1,-231.47 388.12,-222.31 398.12,-213.74"/>
<polygon fill="black" stroke="black" points="400.4,-216.4 405.55,-207.14 395.75,-211.17 400.4,-216.4"/>
</g>
<!-- exists_at -->
<g id="node6" class="node">
<title>exists_at</title>
<ellipse fill="none" stroke="black" cx="529" cy="-189" rx="41.69" ry="18"/>
<text text-anchor="middle" x="529" y="-185.3" font-family="Times,serif" font-size="14.00">exists_at</text>
</g>
<!-- revoke_signer_capability&#45;&gt;exists_at -->
<g id="edge5" class="edge">
<title>revoke_signer_capability&#45;&gt;exists_at</title>
<path fill="none" stroke="black" d="M377.56,-257.07C419.4,-253.22 463.55,-247.16 482,-238 492.7,-232.69 502.36,-223.94 510.1,-215.36"/>
<polygon fill="black" stroke="black" points="512.71,-217.7 516.46,-207.79 507.35,-213.19 512.71,-217.7"/>
</g>
<!-- vector::contains -->
<g id="node7" class="node">
<title>vector::contains</title>
<ellipse fill="none" stroke="black" cx="162" cy="-34" rx="40.09" ry="18"/>
<text text-anchor="middle" x="162" y="-30.3" font-family="Times,serif" font-size="14.00">contains</text>
</g>
<!-- option::contains&#45;&gt;vector::contains -->
<g id="edge6" class="edge">
<title>option::contains&#45;&gt;vector::contains</title>
<path fill="none" stroke="black" d="M154.9,-170.75C156.26,-144.69 158.86,-95.01 160.51,-63.52"/>
<polygon fill="black" stroke="black" points="163.98,-64.11 161.01,-53.94 156.99,-63.74 163.98,-64.11"/>
</g>
<!-- option::is_some -->
<g id="node8" class="node">
<title>option::is_some</title>
<ellipse fill="none" stroke="black" cx="67" cy="-117" rx="40.09" ry="18"/>
<text text-anchor="middle" x="67" y="-113.3" font-family="Times,serif" font-size="14.00">is_some</text>
</g>
<!-- option::extract&#45;&gt;option::is_some -->
<g id="edge7" class="edge">
<title>option::extract&#45;&gt;option::is_some</title>
<path fill="none" stroke="black" d="M62.48,-170.7C63.11,-163.41 63.85,-154.73 64.55,-146.54"/>
<polygon fill="black" stroke="black" points="68.04,-146.87 65.4,-136.61 61.06,-146.28 68.04,-146.87"/>
</g>
<!-- signer::borrow_address -->
<g id="node9" class="node">
<title>signer::borrow_address</title>
<ellipse fill="none" stroke="black" cx="285" cy="-117" rx="66.89" ry="18"/>
<text text-anchor="middle" x="285" y="-113.3" font-family="Times,serif" font-size="14.00">borrow_address</text>
</g>
<!-- signer::address_of&#45;&gt;signer::borrow_address -->
<g id="edge8" class="edge">
<title>signer::address_of&#45;&gt;signer::borrow_address</title>
<path fill="none" stroke="black" d="M285,-170.7C285,-163.41 285,-154.73 285,-146.54"/>
<polygon fill="black" stroke="black" points="288.5,-146.62 285,-136.62 281.5,-146.62 288.5,-146.62"/>
</g>
<!-- error::canonical -->
<g id="node10" class="node">
<title>error::canonical</title>
<ellipse fill="none" stroke="black" cx="423" cy="-117" rx="44.39" ry="18"/>
<text text-anchor="middle" x="423" y="-113.3" font-family="Times,serif" font-size="14.00">canonical</text>
</g>
<!-- error::not_found&#45;&gt;error::canonical -->
<g id="edge9" class="edge">
<title>error::not_found&#45;&gt;error::canonical</title>
<path fill="none" stroke="black" d="M423,-170.7C423,-163.41 423,-154.73 423,-146.54"/>
<polygon fill="black" stroke="black" points="426.5,-146.62 423,-136.62 419.5,-146.62 426.5,-146.62"/>
</g>
<!-- vector::is_empty -->
<g id="node11" class="node">
<title>vector::is_empty</title>
<ellipse fill="none" stroke="black" cx="60" cy="-34" rx="43.59" ry="18"/>
<text text-anchor="middle" x="60" y="-30.3" font-family="Times,serif" font-size="14.00">is_empty</text>
</g>
<!-- option::is_some&#45;&gt;vector::is_empty -->
<g id="edge10" class="edge">
<title>option::is_some&#45;&gt;vector::is_empty</title>
<path fill="none" stroke="black" d="M65.52,-98.82C64.63,-88.58 63.48,-75.33 62.47,-63.55"/>
<polygon fill="black" stroke="black" points="65.98,-63.6 61.64,-53.94 59.01,-64.2 65.98,-63.6"/>
</g>
</g>
</svg>
