<?xml version="1.0" encoding="UTF-8" standalone="no"?>
<!DOCTYPE svg PUBLIC "-//W3C//DTD SVG 1.1//EN"
 "http://www.w3.org/Graphics/SVG/1.1/DTD/svg11.dtd">
<!-- Generated by graphviz version 7.0.4 (20221203.1631)
 -->
<!-- Title: G Pages: 1 -->
<svg width="754pt" height="207pt"
 viewBox="0.00 0.00 753.84 207.00" xmlns="http://www.w3.org/2000/svg" xmlns:xlink="http://www.w3.org/1999/xlink">
<g id="graph0" class="graph" transform="scale(1 1) rotate(0) translate(4 203)">
<title>G</title>
<polygon fill="white" stroke="none" points="-4,4 -4,-203 749.84,-203 749.84,4 -4,4"/>
<g id="clust1" class="cluster">
<title>cluster_option</title>
<polygon fill="none" stroke="black" points="8,-80 8,-155 80,-155 80,-80 8,-80"/>
<text text-anchor="middle" x="44" y="-139.8" font-family="Times,serif" font-size="14.00">option</text>
</g>
<g id="clust2" class="cluster">
<title>cluster_error</title>
<polygon fill="none" stroke="black" points="88,-8 88,-155 250,-155 250,-8 88,-8"/>
<text text-anchor="middle" x="169" y="-139.8" font-family="Times,serif" font-size="14.00">error</text>
</g>
<g id="clust3" class="cluster">
<title>cluster_bcs</title>
<polygon fill="none" stroke="black" points="258,-80 258,-155 354,-155 354,-80 258,-80"/>
<text text-anchor="middle" x="306" y="-139.8" font-family="Times,serif" font-size="14.00">bcs</text>
</g>
<g id="clust4" class="cluster">
<title>cluster_guid</title>
<polygon fill="none" stroke="black" points="362,-80 362,-155 442,-155 442,-80 362,-80"/>
<text text-anchor="middle" x="402" y="-139.8" font-family="Times,serif" font-size="14.00">guid</text>
</g>
<g id="clust5" class="cluster">
<title>cluster_event</title>
<polygon fill="none" stroke="black" points="450,-80 450,-155 620,-155 620,-80 450,-80"/>
<text text-anchor="middle" x="535" y="-139.8" font-family="Times,serif" font-size="14.00">event</text>
</g>
<!-- create_account_unchecked -->
<g id="node1" class="node">
<title>create_account_unchecked</title>
<ellipse fill="none" stroke="black" cx="354" cy="-181" rx="105.08" ry="18"/>
<text text-anchor="middle" x="354" y="-177.3" font-family="Times,serif" font-size="14.00">create_account_unchecked</text>
</g>
<!-- option::none -->
<g id="node2" class="node">
<title>option::none</title>
<ellipse fill="none" stroke="black" cx="44" cy="-106" rx="27.9" ry="18"/>
<text text-anchor="middle" x="44" y="-102.3" font-family="Times,serif" font-size="14.00">none</text>
</g>
<!-- create_account_unchecked&#45;&gt;option::none -->
<g id="edge1" class="edge">
<title>create_account_unchecked&#45;&gt;option::none</title>
<path fill="none" stroke="black" d="M249.61,-178.47C186.22,-175.98 112.23,-169.85 84,-155 74.23,-149.86 65.91,-141.23 59.43,-132.69"/>
<polygon fill="black" stroke="black" points="62.35,-130.75 53.78,-124.52 56.59,-134.74 62.35,-130.75"/>
</g>
<!-- error::invalid_argument -->
<g id="node3" class="node">
<title>error::invalid_argument</title>
<ellipse fill="none" stroke="black" cx="169" cy="-106" rx="73.39" ry="18"/>
<text text-anchor="middle" x="169" y="-102.3" font-family="Times,serif" font-size="14.00">invalid_argument</text>
</g>
<!-- create_account_unchecked&#45;&gt;error::invalid_argument -->
<g id="edge2" class="edge">
<title>create_account_unchecked&#45;&gt;error::invalid_argument</title>
<path fill="none" stroke="black" d="M289.17,-166.5C277.29,-163.27 265.14,-159.44 254,-155 236.57,-148.05 218.31,-138.13 203.21,-129.11"/>
<polygon fill="black" stroke="black" points="205.43,-126.36 195.07,-124.14 201.78,-132.34 205.43,-126.36"/>
</g>
<!-- bcs::to_bytes -->
<g id="node4" class="node">
<title>bcs::to_bytes</title>
<ellipse fill="none" stroke="black" cx="306" cy="-106" rx="40.09" ry="18"/>
<text text-anchor="middle" x="306" y="-102.3" font-family="Times,serif" font-size="14.00">to_bytes</text>
</g>
<!-- create_account_unchecked&#45;&gt;bcs::to_bytes -->
<g id="edge3" class="edge">
<title>create_account_unchecked&#45;&gt;bcs::to_bytes</title>
<path fill="none" stroke="black" d="M342.62,-162.7C336.8,-153.85 329.6,-142.88 323.12,-133.03"/>
<polygon fill="black" stroke="black" points="326.21,-131.37 317.79,-124.94 320.36,-135.22 326.21,-131.37"/>
</g>
<!-- guid::create -->
<g id="node5" class="node">
<title>guid::create</title>
<ellipse fill="none" stroke="black" cx="402" cy="-106" rx="31.7" ry="18"/>
<text text-anchor="middle" x="402" y="-102.3" font-family="Times,serif" font-size="14.00">create</text>
</g>
<!-- create_account_unchecked&#45;&gt;guid::create -->
<g id="edge4" class="edge">
<title>create_account_unchecked&#45;&gt;guid::create</title>
<path fill="none" stroke="black" d="M365.38,-162.7C371.28,-153.72 378.61,-142.57 385.16,-132.61"/>
<polygon fill="black" stroke="black" points="387.96,-134.72 390.53,-124.44 382.11,-130.87 387.96,-134.72"/>
</g>
<!-- event::new_event_handle -->
<g id="node6" class="node">
<title>event::new_event_handle</title>
<ellipse fill="none" stroke="black" cx="535" cy="-106" rx="76.89" ry="18"/>
<text text-anchor="middle" x="535" y="-102.3" font-family="Times,serif" font-size="14.00">new_event_handle</text>
</g>
<!-- create_account_unchecked&#45;&gt;event::new_event_handle -->
<g id="edge5" class="edge">
<title>create_account_unchecked&#45;&gt;event::new_event_handle</title>
<path fill="none" stroke="black" d="M414.04,-165.82C424.83,-162.68 435.86,-159.05 446,-155 463.92,-147.84 482.86,-137.98 498.64,-129.06"/>
<polygon fill="black" stroke="black" points="500.28,-132.15 507.2,-124.13 496.79,-126.09 500.28,-132.15"/>
</g>
<!-- create_signer -->
<g id="node7" class="node">
<title>create_signer</title>
<ellipse fill="none" stroke="black" cx="688" cy="-106" rx="57.69" ry="18"/>
<text text-anchor="middle" x="688" y="-102.3" font-family="Times,serif" font-size="14.00">create_signer</text>
</g>
<!-- create_account_unchecked&#45;&gt;create_signer -->
<g id="edge6" class="edge">
<title>create_account_unchecked&#45;&gt;create_signer</title>
<path fill="none" stroke="black" d="M455.98,-176.3C519.25,-172.9 594.02,-166.56 624,-155 638.07,-149.58 651.72,-140.12 662.78,-131.02"/>
<polygon fill="black" stroke="black" points="664.98,-133.74 670.26,-124.55 660.4,-128.44 664.98,-133.74"/>
</g>
<!-- error::canonical -->
<g id="node8" class="node">
<title>error::canonical</title>
<ellipse fill="none" stroke="black" cx="169" cy="-34" rx="44.39" ry="18"/>
<text text-anchor="middle" x="169" y="-30.3" font-family="Times,serif" font-size="14.00">canonical</text>
</g>
<!-- error::invalid_argument&#45;&gt;error::canonical -->
<g id="edge7" class="edge">
<title>error::invalid_argument&#45;&gt;error::canonical</title>
<path fill="none" stroke="black" d="M169,-87.7C169,-80.41 169,-71.73 169,-63.54"/>
<polygon fill="black" stroke="black" points="172.5,-63.62 169,-53.62 165.5,-63.62 172.5,-63.62"/>
</g>
</g>
</svg>
