<?xml version="1.0" encoding="UTF-8" standalone="no"?>
<!DOCTYPE svg PUBLIC "-//W3C//DTD SVG 1.1//EN"
 "http://www.w3.org/Graphics/SVG/1.1/DTD/svg11.dtd">
<!-- Generated by graphviz version 7.0.4 (20221203.1631)
 -->
<!-- Title: G Pages: 1 -->
<svg width="1909pt" height="609pt"
 viewBox="0.00 0.00 1909.00 609.00" xmlns="http://www.w3.org/2000/svg" xmlns:xlink="http://www.w3.org/1999/xlink">
<g id="graph0" class="graph" transform="scale(1 1) rotate(0) translate(4 605)">
<title>G</title>
<polygon fill="white" stroke="none" points="-4,4 -4,-605 1905,-605 1905,4 -4,4"/>
<g id="clust1" class="cluster">
<title>cluster_genesis</title>
<polygon fill="none" stroke="black" points="8,-374 8,-593 790,-593 790,-374 8,-374"/>
<text text-anchor="middle" x="399" y="-577.8" font-family="Times,serif" font-size="14.00">genesis</text>
</g>
<g id="clust2" class="cluster">
<title>cluster_resource_account</title>
<polygon fill="none" stroke="black" points="761,-64 761,-211 1893,-211 1893,-64 761,-64"/>
<text text-anchor="middle" x="1327" y="-195.8" font-family="Times,serif" font-size="14.00">resource_account</text>
</g>
<g id="clust3" class="cluster">
<title>cluster_staking_contract</title>
<polygon fill="none" stroke="black" points="463,-136 463,-366 753,-366 753,-136 463,-136"/>
<text text-anchor="middle" x="608" y="-350.8" font-family="Times,serif" font-size="14.00">staking_contract</text>
</g>
<g id="clust4" class="cluster">
<title>cluster_vesting</title>
<polygon fill="none" stroke="black" points="187,-219 187,-366 455,-366 455,-219 187,-219"/>
<text text-anchor="middle" x="321" y="-350.8" font-family="Times,serif" font-size="14.00">vesting</text>
</g>
<!-- rotate_authentication_key_internal -->
<g id="node1" class="node">
<title>rotate_authentication_key_internal</title>
<ellipse fill="none" stroke="black" cx="819" cy="-18" rx="133.48" ry="18"/>
<text text-anchor="middle" x="819" y="-14.3" font-family="Times,serif" font-size="14.00">rotate_authentication_key_internal</text>
</g>
<!-- create_resource_account -->
<g id="node2" class="node">
<title>create_resource_account</title>
<ellipse fill="none" stroke="black" cx="656" cy="-90" rx="97.48" ry="18"/>
<text text-anchor="middle" x="656" y="-86.3" font-family="Times,serif" font-size="14.00">create_resource_account</text>
</g>
<!-- create_resource_account&#45;&gt;rotate_authentication_key_internal -->
<g id="edge1" class="edge">
<title>create_resource_account&#45;&gt;rotate_authentication_key_internal</title>
<path fill="none" stroke="black" d="M693.4,-72.94C716.07,-63.2 745.27,-50.66 769.81,-40.12"/>
<polygon fill="black" stroke="black" points="771.16,-43.35 778.97,-36.19 768.4,-36.92 771.16,-43.35"/>
</g>
<!-- genesis::initialize_core_resources_and_aptos_coin -->
<g id="node3" class="node">
<title>genesis::initialize_core_resources_and_aptos_coin</title>
<ellipse fill="none" stroke="black" cx="174" cy="-544" rx="157.87" ry="18"/>
<text text-anchor="middle" x="174" y="-540.3" font-family="Times,serif" font-size="14.00">initialize_core_resources_and_aptos_coin</text>
</g>
<!-- genesis::initialize_core_resources_and_aptos_coin&#45;&gt;rotate_authentication_key_internal -->
<g id="edge2" class="edge">
<title>genesis::initialize_core_resources_and_aptos_coin&#45;&gt;rotate_authentication_key_internal</title>
<path fill="none" stroke="black" d="M172.58,-525.52C170.54,-498.74 167,-445.92 167,-401 167,-401 167,-401 167,-161 167,-57.57 484.23,-29.34 676.13,-21.73"/>
<polygon fill="black" stroke="black" points="676.08,-25.23 685.94,-21.35 675.81,-18.24 676.08,-25.23"/>
</g>
<!-- resource_account::retrieve_resource_account_cap -->
<g id="node4" class="node">
<title>resource_account::retrieve_resource_account_cap</title>
<ellipse fill="none" stroke="black" cx="1765" cy="-162" rx="120.48" ry="18"/>
<text text-anchor="middle" x="1765" y="-158.3" font-family="Times,serif" font-size="14.00">retrieve_resource_account_cap</text>
</g>
<!-- resource_account::retrieve_resource_account_cap&#45;&gt;rotate_authentication_key_internal -->
<g id="edge3" class="edge">
<title>resource_account::retrieve_resource_account_cap&#45;&gt;rotate_authentication_key_internal</title>
<path fill="none" stroke="black" d="M1708.97,-145.65C1627.97,-124.04 1473.14,-84.97 1339,-64 1209.21,-43.71 1059.67,-31.97 954.36,-25.6"/>
<polygon fill="black" stroke="black" points="954.73,-22.12 944.54,-25.02 954.31,-29.1 954.73,-22.12"/>
</g>
<!-- resource_account::rotate_account_authentication_key_and_store_capability -->
<g id="node5" class="node">
<title>resource_account::rotate_account_authentication_key_and_store_capability</title>
<ellipse fill="none" stroke="black" cx="1119" cy="-90" rx="211.46" ry="18"/>
<text text-anchor="middle" x="1119" y="-86.3" font-family="Times,serif" font-size="14.00">rotate_account_authentication_key_and_store_capability</text>
</g>
<!-- resource_account::rotate_account_authentication_key_and_store_capability&#45;&gt;rotate_authentication_key_internal -->
<g id="edge4" class="edge">
<title>resource_account::rotate_account_authentication_key_and_store_capability&#45;&gt;rotate_authentication_key_internal</title>
<path fill="none" stroke="black" d="M1048.66,-72.59C1002.57,-61.83 942.33,-47.78 895.12,-36.76"/>
<polygon fill="black" stroke="black" points="896.03,-33.38 885.5,-34.52 894.44,-40.2 896.03,-33.38"/>
</g>
<!-- staking_contract::create_stake_pool -->
<g id="node6" class="node">
<title>staking_contract::create_stake_pool</title>
<ellipse fill="none" stroke="black" cx="632" cy="-162" rx="74.19" ry="18"/>
<text text-anchor="middle" x="632" y="-158.3" font-family="Times,serif" font-size="14.00">create_stake_pool</text>
</g>
<!-- staking_contract::create_stake_pool&#45;&gt;create_resource_account -->
<g id="edge5" class="edge">
<title>staking_contract::create_stake_pool&#45;&gt;create_resource_account</title>
<path fill="none" stroke="black" d="M637.93,-143.7C640.49,-136.24 643.55,-127.32 646.41,-118.97"/>
<polygon fill="black" stroke="black" points="649.71,-120.13 649.64,-109.54 643.09,-117.86 649.71,-120.13"/>
</g>
<!-- vesting::create_vesting_contract_account -->
<g id="node7" class="node">
<title>vesting::create_vesting_contract_account</title>
<ellipse fill="none" stroke="black" cx="321" cy="-245" rx="126.18" ry="18"/>
<text text-anchor="middle" x="321" y="-241.3" font-family="Times,serif" font-size="14.00">create_vesting_contract_account</text>
</g>
<!-- vesting::create_vesting_contract_account&#45;&gt;create_resource_account -->
<g id="edge6" class="edge">
<title>vesting::create_vesting_contract_account&#45;&gt;create_resource_account</title>
<path fill="none" stroke="black" d="M337.6,-226.92C361.95,-202.88 409.83,-159.41 459,-136 492.3,-120.15 531.47,-109.73 566.07,-102.95"/>
<polygon fill="black" stroke="black" points="566.46,-106.44 575.65,-101.15 565.17,-99.56 566.46,-106.44"/>
</g>
<!-- resource_account::create_resource_account -->
<g id="node8" class="node">
<title>resource_account::create_resource_account</title>
<ellipse fill="none" stroke="black" cx="1529" cy="-162" rx="97.48" ry="18"/>
<text text-anchor="middle" x="1529" y="-158.3" font-family="Times,serif" font-size="14.00">create_resource_account</text>
</g>
<!-- resource_account::create_resource_account&#45;&gt;create_resource_account -->
<g id="edge7" class="edge">
<title>resource_account::create_resource_account&#45;&gt;create_resource_account</title>
<path fill="none" stroke="black" d="M1475.76,-146.49C1458.71,-142.4 1439.67,-138.41 1422,-136 1128.91,-95.95 1051.21,-138.83 757,-108 749.57,-107.22 741.87,-106.24 734.17,-105.15"/>
<polygon fill="black" stroke="black" points="734.84,-101.71 724.43,-103.69 733.81,-108.63 734.84,-101.71"/>
</g>
<!-- resource_account::create_resource_account&#45;&gt;resource_account::rotate_account_authentication_key_and_store_capability -->
<g id="edge10" class="edge">
<title>resource_account::create_resource_account&#45;&gt;resource_account::rotate_account_authentication_key_and_store_capability</title>
<path fill="none" stroke="black" d="M1472.54,-146.9C1456.29,-143.08 1438.49,-139.15 1422,-136 1363.6,-124.86 1298.42,-114.87 1243.52,-107.15"/>
<polygon fill="black" stroke="black" points="1244.21,-103.71 1233.82,-105.79 1243.24,-110.64 1244.21,-103.71"/>
</g>
<!-- resource_account::create_resource_account_and_fund -->
<g id="node9" class="node">
<title>resource_account::create_resource_account_and_fund</title>
<ellipse fill="none" stroke="black" cx="1278" cy="-162" rx="135.38" ry="18"/>
<text text-anchor="middle" x="1278" y="-158.3" font-family="Times,serif" font-size="14.00">create_resource_account_and_fund</text>
</g>
<!-- resource_account::create_resource_account_and_fund&#45;&gt;create_resource_account -->
<g id="edge8" class="edge">
<title>resource_account::create_resource_account_and_fund&#45;&gt;create_resource_account</title>
<path fill="none" stroke="black" d="M1203.1,-146.57C1180.92,-142.68 1156.54,-138.79 1134,-136 967.25,-115.38 923.8,-128.19 757,-108 749.85,-107.13 742.43,-106.12 735.01,-105.02"/>
<polygon fill="black" stroke="black" points="735.7,-101.58 725.28,-103.53 734.64,-108.5 735.7,-101.58"/>
</g>
<!-- resource_account::create_resource_account_and_fund&#45;&gt;resource_account::rotate_account_authentication_key_and_store_capability -->
<g id="edge11" class="edge">
<title>resource_account::create_resource_account_and_fund&#45;&gt;resource_account::rotate_account_authentication_key_and_store_capability</title>
<path fill="none" stroke="black" d="M1240.32,-144.41C1218.74,-134.91 1191.41,-122.88 1168.15,-112.64"/>
<polygon fill="black" stroke="black" points="1169.74,-109.51 1159.18,-108.69 1166.92,-115.92 1169.74,-109.51"/>
</g>
<!-- resource_account::create_resource_account_and_publish_package -->
<g id="node10" class="node">
<title>resource_account::create_resource_account_and_publish_package</title>
<ellipse fill="none" stroke="black" cx="947" cy="-162" rx="178.17" ry="18"/>
<text text-anchor="middle" x="947" y="-158.3" font-family="Times,serif" font-size="14.00">create_resource_account_and_publish_package</text>
</g>
<!-- resource_account::create_resource_account_and_publish_package&#45;&gt;create_resource_account -->
<g id="edge9" class="edge">
<title>resource_account::create_resource_account_and_publish_package&#45;&gt;create_resource_account</title>
<path fill="none" stroke="black" d="M880.24,-144.94C833.64,-133.73 771.61,-118.81 724.61,-107.5"/>
<polygon fill="black" stroke="black" points="725.62,-104.15 715.08,-105.21 723.98,-110.95 725.62,-104.15"/>
</g>
<!-- resource_account::create_resource_account_and_publish_package&#45;&gt;resource_account::rotate_account_authentication_key_and_store_capability -->
<g id="edge12" class="edge">
<title>resource_account::create_resource_account_and_publish_package&#45;&gt;resource_account::rotate_account_authentication_key_and_store_capability</title>
<path fill="none" stroke="black" d="M988.64,-144.05C1012.12,-134.5 1041.69,-122.46 1066.73,-112.27"/>
<polygon fill="black" stroke="black" points="1067.81,-115.61 1075.75,-108.6 1065.17,-109.13 1067.81,-115.61"/>
</g>
<!-- staking_contract::create_staking_contract_with_coins -->
<g id="node11" class="node">
<title>staking_contract::create_staking_contract_with_coins</title>
<ellipse fill="none" stroke="black" cx="608" cy="-245" rx="137.28" ry="18"/>
<text text-anchor="middle" x="608" y="-241.3" font-family="Times,serif" font-size="14.00">create_staking_contract_with_coins</text>
</g>
<!-- staking_contract::create_staking_contract_with_coins&#45;&gt;staking_contract::create_stake_pool -->
<g id="edge13" class="edge">
<title>staking_contract::create_staking_contract_with_coins&#45;&gt;staking_contract::create_stake_pool</title>
<path fill="none" stroke="black" d="M613.09,-226.82C616.16,-216.48 620.13,-203.05 623.65,-191.18"/>
<polygon fill="black" stroke="black" points="626.92,-192.47 626.4,-181.88 620.21,-190.48 626.92,-192.47"/>
</g>
<!-- vesting::create_vesting_contract -->
<g id="node12" class="node">
<title>vesting::create_vesting_contract</title>
<ellipse fill="none" stroke="black" cx="321" cy="-317" rx="94.48" ry="18"/>
<text text-anchor="middle" x="321" y="-313.3" font-family="Times,serif" font-size="14.00">create_vesting_contract</text>
</g>
<!-- vesting::create_vesting_contract&#45;&gt;vesting::create_vesting_contract_account -->
<g id="edge14" class="edge">
<title>vesting::create_vesting_contract&#45;&gt;vesting::create_vesting_contract_account</title>
<path fill="none" stroke="black" d="M321,-298.7C321,-291.41 321,-282.73 321,-274.54"/>
<polygon fill="black" stroke="black" points="324.5,-274.62 321,-264.62 317.5,-274.62 324.5,-274.62"/>
</g>
<!-- vesting::create_vesting_contract&#45;&gt;staking_contract::create_staking_contract_with_coins -->
<g id="edge16" class="edge">
<title>vesting::create_vesting_contract&#45;&gt;staking_contract::create_staking_contract_with_coins</title>
<path fill="none" stroke="black" d="M377.7,-302.17C422.41,-291.27 485.13,-275.97 533.82,-264.09"/>
<polygon fill="black" stroke="black" points="534.57,-267.51 543.46,-261.74 532.92,-260.71 534.57,-267.51"/>
</g>
<!-- staking_contract::create_staking_contract -->
<g id="node13" class="node">
<title>staking_contract::create_staking_contract</title>
<ellipse fill="none" stroke="black" cx="608" cy="-317" rx="94.48" ry="18"/>
<text text-anchor="middle" x="608" y="-313.3" font-family="Times,serif" font-size="14.00">create_staking_contract</text>
</g>
<!-- staking_contract::create_staking_contract&#45;&gt;staking_contract::create_staking_contract_with_coins -->
<g id="edge15" class="edge">
<title>staking_contract::create_staking_contract&#45;&gt;staking_contract::create_staking_contract_with_coins</title>
<path fill="none" stroke="black" d="M608,-298.7C608,-291.41 608,-282.73 608,-274.54"/>
<polygon fill="black" stroke="black" points="611.5,-274.62 608,-264.62 604.5,-274.62 611.5,-274.62"/>
</g>
<!-- genesis::create_employee_validators -->
<g id="node14" class="node">
<title>genesis::create_employee_validators</title>
<ellipse fill="none" stroke="black" cx="307" cy="-472" rx="109.68" ry="18"/>
<text text-anchor="middle" x="307" y="-468.3" font-family="Times,serif" font-size="14.00">create_employee_validators</text>
</g>
<!-- genesis::create_employee_validators&#45;&gt;vesting::create_vesting_contract -->
<g id="edge17" class="edge">
<title>genesis::create_employee_validators&#45;&gt;vesting::create_vesting_contract</title>
<path fill="none" stroke="black" d="M308.58,-453.75C310.96,-427.69 315.51,-378.01 318.39,-346.52"/>
<polygon fill="black" stroke="black" points="321.84,-347.21 319.27,-336.93 314.87,-346.57 321.84,-347.21"/>
</g>
<!-- genesis::create_initialize_validator -->
<g id="node15" class="node">
<title>genesis::create_initialize_validator</title>
<ellipse fill="none" stroke="black" cx="608" cy="-400" rx="102.88" ry="18"/>
<text text-anchor="middle" x="608" y="-396.3" font-family="Times,serif" font-size="14.00">create_initialize_validator</text>
</g>
<!-- genesis::create_initialize_validator&#45;&gt;staking_contract::create_staking_contract -->
<g id="edge18" class="edge">
<title>genesis::create_initialize_validator&#45;&gt;staking_contract::create_staking_contract</title>
<path fill="none" stroke="black" d="M608,-381.82C608,-371.69 608,-358.6 608,-346.92"/>
<polygon fill="black" stroke="black" points="611.5,-346.95 608,-336.95 604.5,-346.95 611.5,-346.95"/>
</g>
<!-- genesis::initialize_for_verification -->
<g id="node16" class="node">
<title>genesis::initialize_for_verification</title>
<ellipse fill="none" stroke="black" cx="451" cy="-544" rx="100.98" ry="18"/>
<text text-anchor="middle" x="451" y="-540.3" font-family="Times,serif" font-size="14.00">initialize_for_verification</text>
</g>
<!-- genesis::initialize_for_verification&#45;&gt;genesis::create_employee_validators -->
<g id="edge19" class="edge">
<title>genesis::initialize_for_verification&#45;&gt;genesis::create_employee_validators</title>
<path fill="none" stroke="black" d="M417.24,-526.59C397.52,-517 372.41,-504.8 351.14,-494.46"/>
<polygon fill="black" stroke="black" points="352.93,-491.44 342.41,-490.21 349.87,-497.73 352.93,-491.44"/>
</g>
<!-- genesis::create_initialize_validators_with_commission -->
<g id="node17" class="node">
<title>genesis::create_initialize_validators_with_commission</title>
<ellipse fill="none" stroke="black" cx="608" cy="-472" rx="173.57" ry="18"/>
<text text-anchor="middle" x="608" y="-468.3" font-family="Times,serif" font-size="14.00">create_initialize_validators_with_commission</text>
</g>
<!-- genesis::initialize_for_verification&#45;&gt;genesis::create_initialize_validators_with_commission -->
<g id="edge21" class="edge">
<title>genesis::initialize_for_verification&#45;&gt;genesis::create_initialize_validators_with_commission</title>
<path fill="none" stroke="black" d="M487.41,-526.76C508.86,-517.2 536.25,-504.99 559.51,-494.62"/>
<polygon fill="black" stroke="black" points="560.78,-497.89 568.49,-490.62 557.93,-491.49 560.78,-497.89"/>
</g>
<!-- genesis::create_initialize_validators_with_commission&#45;&gt;genesis::create_initialize_validator -->
<g id="edge20" class="edge">
<title>genesis::create_initialize_validators_with_commission&#45;&gt;genesis::create_initialize_validator</title>
<path fill="none" stroke="black" d="M608,-453.7C608,-446.41 608,-437.73 608,-429.54"/>
<polygon fill="black" stroke="black" points="611.5,-429.62 608,-419.62 604.5,-429.62 611.5,-429.62"/>
</g>
<!-- genesis::create_initialize_validators -->
<g id="node18" class="node">
<title>genesis::create_initialize_validators</title>
<ellipse fill="none" stroke="black" cx="676" cy="-544" rx="105.88" ry="18"/>
<text text-anchor="middle" x="676" y="-540.3" font-family="Times,serif" font-size="14.00">create_initialize_validators</text>
</g>
<!-- genesis::create_initialize_validators&#45;&gt;genesis::create_initialize_validators_with_commission -->
<g id="edge22" class="edge">
<title>genesis::create_initialize_validators&#45;&gt;genesis::create_initialize_validators_with_commission</title>
<path fill="none" stroke="black" d="M659.54,-526.05C651.47,-517.75 641.6,-507.58 632.65,-498.38"/>
<polygon fill="black" stroke="black" points="635.31,-496.09 625.84,-491.36 630.29,-500.97 635.31,-496.09"/>
</g>
</g>
</svg>
