<?xml version="1.0" encoding="UTF-8" standalone="no"?>
<!DOCTYPE svg PUBLIC "-//W3C//DTD SVG 1.1//EN"
 "http://www.w3.org/Graphics/SVG/1.1/DTD/svg11.dtd">
<!-- Generated by graphviz version 7.0.4 (20221203.1631)
 -->
<!-- Title: G Pages: 1 -->
<svg width="895pt" height="279pt"
 viewBox="0.00 0.00 894.84 279.00" xmlns="http://www.w3.org/2000/svg" xmlns:xlink="http://www.w3.org/1999/xlink">
<g id="graph0" class="graph" transform="scale(1 1) rotate(0) translate(4 275)">
<title>G</title>
<polygon fill="white" stroke="none" points="-4,4 -4,-275 890.84,-275 890.84,4 -4,4"/>
<g id="clust1" class="cluster">
<title>cluster_error</title>
<polygon fill="none" stroke="black" points="8,-8 8,-155 311,-155 311,-8 8,-8"/>
<text text-anchor="middle" x="159.5" y="-139.8" font-family="Times,serif" font-size="14.00">error</text>
</g>
<g id="clust2" class="cluster">
<title>cluster_option</title>
<polygon fill="none" stroke="black" points="319,-80 319,-155 391,-155 391,-80 319,-80"/>
<text text-anchor="middle" x="355" y="-139.8" font-family="Times,serif" font-size="14.00">option</text>
</g>
<g id="clust3" class="cluster">
<title>cluster_bcs</title>
<polygon fill="none" stroke="black" points="399,-80 399,-155 495,-155 495,-80 399,-80"/>
<text text-anchor="middle" x="447" y="-139.8" font-family="Times,serif" font-size="14.00">bcs</text>
</g>
<g id="clust4" class="cluster">
<title>cluster_guid</title>
<polygon fill="none" stroke="black" points="503,-80 503,-155 583,-155 583,-80 503,-80"/>
<text text-anchor="middle" x="543" y="-139.8" font-family="Times,serif" font-size="14.00">guid</text>
</g>
<g id="clust5" class="cluster">
<title>cluster_event</title>
<polygon fill="none" stroke="black" points="591,-80 591,-155 761,-155 761,-80 591,-80"/>
<text text-anchor="middle" x="676" y="-139.8" font-family="Times,serif" font-size="14.00">event</text>
</g>
<!-- create_account -->
<g id="node1" class="node">
<title>create_account</title>
<ellipse fill="none" stroke="black" cx="230" cy="-253" rx="63.89" ry="18"/>
<text text-anchor="middle" x="230" y="-249.3" font-family="Times,serif" font-size="14.00">create_account</text>
</g>
<!-- error::already_exists -->
<g id="node2" class="node">
<title>error::already_exists</title>
<ellipse fill="none" stroke="black" cx="77" cy="-106" rx="61.19" ry="18"/>
<text text-anchor="middle" x="77" y="-102.3" font-family="Times,serif" font-size="14.00">already_exists</text>
</g>
<!-- create_account&#45;&gt;error::already_exists -->
<g id="edge1" class="edge">
<title>create_account&#45;&gt;error::already_exists</title>
<path fill="none" stroke="black" d="M212.45,-235.37C185.47,-209.8 133.68,-160.72 102.54,-131.21"/>
<polygon fill="black" stroke="black" points="105.11,-128.82 95.44,-124.48 100.3,-133.9 105.11,-128.82"/>
</g>
<!-- error::invalid_argument -->
<g id="node3" class="node">
<title>error::invalid_argument</title>
<ellipse fill="none" stroke="black" cx="230" cy="-106" rx="73.39" ry="18"/>
<text text-anchor="middle" x="230" y="-102.3" font-family="Times,serif" font-size="14.00">invalid_argument</text>
</g>
<!-- create_account&#45;&gt;error::invalid_argument -->
<g id="edge2" class="edge">
<title>create_account&#45;&gt;error::invalid_argument</title>
<path fill="none" stroke="black" d="M230,-234.51C230,-209.88 230,-164.71 230,-135.28"/>
<polygon fill="black" stroke="black" points="233.5,-135.62 230,-125.62 226.5,-135.62 233.5,-135.62"/>
</g>
<!-- create_account_unchecked -->
<g id="node4" class="node">
<title>create_account_unchecked</title>
<ellipse fill="none" stroke="black" cx="447" cy="-181" rx="105.08" ry="18"/>
<text text-anchor="middle" x="447" y="-177.3" font-family="Times,serif" font-size="14.00">create_account_unchecked</text>
</g>
<!-- create_account&#45;&gt;create_account_unchecked -->
<g id="edge3" class="edge">
<title>create_account&#45;&gt;create_account_unchecked</title>
<path fill="none" stroke="black" d="M270.82,-238.83C304,-228.13 351.26,-212.88 388.47,-200.88"/>
<polygon fill="black" stroke="black" points="389.3,-204.29 397.74,-197.89 387.15,-197.63 389.3,-204.29"/>
</g>
<!-- error::canonical -->
<g id="node5" class="node">
<title>error::canonical</title>
<ellipse fill="none" stroke="black" cx="153" cy="-34" rx="44.39" ry="18"/>
<text text-anchor="middle" x="153" y="-30.3" font-family="Times,serif" font-size="14.00">canonical</text>
</g>
<!-- error::already_exists&#45;&gt;error::canonical -->
<g id="edge4" class="edge">
<title>error::already_exists&#45;&gt;error::canonical</title>
<path fill="none" stroke="black" d="M95.01,-88.41C104.71,-79.48 116.84,-68.31 127.49,-58.5"/>
<polygon fill="black" stroke="black" points="129.54,-61.36 134.53,-52.01 124.8,-56.21 129.54,-61.36"/>
</g>
<!-- error::invalid_argument&#45;&gt;error::canonical -->
<g id="edge5" class="edge">
<title>error::invalid_argument&#45;&gt;error::canonical</title>
<path fill="none" stroke="black" d="M211.75,-88.41C201.93,-79.48 189.64,-68.31 178.85,-58.5"/>
<polygon fill="black" stroke="black" points="181.46,-56.14 171.71,-52.01 176.75,-61.32 181.46,-56.14"/>
</g>
<!-- create_account_unchecked&#45;&gt;error::invalid_argument -->
<g id="edge7" class="edge">
<title>create_account_unchecked&#45;&gt;error::invalid_argument</title>
<path fill="none" stroke="black" d="M366.64,-169.12C349.32,-165.58 331.32,-160.97 315,-155 297.11,-148.46 278.55,-138.41 263.35,-129.19"/>
<polygon fill="black" stroke="black" points="265.51,-126.42 255.17,-124.1 261.81,-132.36 265.51,-126.42"/>
</g>
<!-- option::none -->
<g id="node6" class="node">
<title>option::none</title>
<ellipse fill="none" stroke="black" cx="355" cy="-106" rx="27.9" ry="18"/>
<text text-anchor="middle" x="355" y="-102.3" font-family="Times,serif" font-size="14.00">none</text>
</g>
<!-- create_account_unchecked&#45;&gt;option::none -->
<g id="edge6" class="edge">
<title>create_account_unchecked&#45;&gt;option::none</title>
<path fill="none" stroke="black" d="M408.66,-163.93C403.87,-161.25 399.19,-158.26 395,-155 386.64,-148.48 378.83,-139.94 372.37,-131.88"/>
<polygon fill="black" stroke="black" points="375.21,-129.83 366.37,-123.98 369.63,-134.06 375.21,-129.83"/>
</g>
<!-- bcs::to_bytes -->
<g id="node7" class="node">
<title>bcs::to_bytes</title>
<ellipse fill="none" stroke="black" cx="447" cy="-106" rx="40.09" ry="18"/>
<text text-anchor="middle" x="447" y="-102.3" font-family="Times,serif" font-size="14.00">to_bytes</text>
</g>
<!-- create_account_unchecked&#45;&gt;bcs::to_bytes -->
<g id="edge8" class="edge">
<title>create_account_unchecked&#45;&gt;bcs::to_bytes</title>
<path fill="none" stroke="black" d="M447,-162.7C447,-154.67 447,-144.9 447,-135.8"/>
<polygon fill="black" stroke="black" points="450.5,-135.94 447,-125.94 443.5,-135.94 450.5,-135.94"/>
</g>
<!-- guid::create -->
<g id="node8" class="node">
<title>guid::create</title>
<ellipse fill="none" stroke="black" cx="543" cy="-106" rx="31.7" ry="18"/>
<text text-anchor="middle" x="543" y="-102.3" font-family="Times,serif" font-size="14.00">create</text>
</g>
<!-- create_account_unchecked&#45;&gt;guid::create -->
<g id="edge9" class="edge">
<title>create_account_unchecked&#45;&gt;guid::create</title>
<path fill="none" stroke="black" d="M484.92,-163.89C489.83,-161.2 494.66,-158.22 499,-155 508.07,-148.27 516.76,-139.49 523.98,-131.27"/>
<polygon fill="black" stroke="black" points="526.45,-133.77 530.22,-123.87 521.1,-129.26 526.45,-133.77"/>
</g>
<!-- event::new_event_handle -->
<g id="node9" class="node">
<title>event::new_event_handle</title>
<ellipse fill="none" stroke="black" cx="676" cy="-106" rx="76.89" ry="18"/>
<text text-anchor="middle" x="676" y="-102.3" font-family="Times,serif" font-size="14.00">new_event_handle</text>
</g>
<!-- create_account_unchecked&#45;&gt;event::new_event_handle -->
<g id="edge10" class="edge">
<title>create_account_unchecked&#45;&gt;event::new_event_handle</title>
<path fill="none" stroke="black" d="M529.93,-169.68C548.97,-166.08 568.93,-161.3 587,-155 605.81,-148.44 625.42,-138.27 641.44,-128.97"/>
<polygon fill="black" stroke="black" points="642.8,-132.23 649.61,-124.11 639.22,-126.22 642.8,-132.23"/>
</g>
<!-- create_signer -->
<g id="node10" class="node">
<title>create_signer</title>
<ellipse fill="none" stroke="black" cx="829" cy="-106" rx="57.69" ry="18"/>
<text text-anchor="middle" x="829" y="-102.3" font-family="Times,serif" font-size="14.00">create_signer</text>
</g>
<!-- create_account_unchecked&#45;&gt;create_signer -->
<g id="edge11" class="edge">
<title>create_account_unchecked&#45;&gt;create_signer</title>
<path fill="none" stroke="black" d="M550.94,-178.05C628.39,-175.44 727.05,-169.33 765,-155 779.11,-149.67 792.77,-140.23 803.81,-131.12"/>
<polygon fill="black" stroke="black" points="806.03,-133.83 811.29,-124.63 801.44,-128.54 806.03,-133.83"/>
</g>
</g>
</svg>
