<?xml version="1.0" encoding="UTF-8" standalone="no"?>
<!DOCTYPE svg PUBLIC "-//W3C//DTD SVG 1.1//EN"
 "http://www.w3.org/Graphics/SVG/1.1/DTD/svg11.dtd">
<!-- Generated by graphviz version 7.0.4 (20221203.1631)
 -->
<!-- Title: G Pages: 1 -->
<svg width="3648pt" height="684pt"
 viewBox="0.00 0.00 3648.42 684.00" xmlns="http://www.w3.org/2000/svg" xmlns:xlink="http://www.w3.org/1999/xlink">
<g id="graph0" class="graph" transform="scale(1 1) rotate(0) translate(4 680)">
<title>G</title>
<polygon fill="white" stroke="none" points="-4,4 -4,-680 3644.42,-680 3644.42,4 -4,4"/>
<g id="clust1" class="cluster">
<title>cluster_aptos_account</title>
<polygon fill="none" stroke="black" points="917.61,-64 917.61,-294 1543.61,-294 1543.61,-64 917.61,-64"/>
<text text-anchor="middle" x="1230.61" y="-278.8" font-family="Times,serif" font-size="14.00">aptos_account</text>
</g>
<g id="clust3" class="cluster">
<title>cluster_genesis</title>
<polygon fill="none" stroke="black" points="432.61,-374 432.61,-668 1214.61,-668 1214.61,-374 432.61,-374"/>
<text text-anchor="middle" x="823.61" y="-652.8" font-family="Times,serif" font-size="14.00">genesis</text>
</g>
<g id="clust4" class="cluster">
<title>cluster_staking_contract</title>
<polygon fill="none" stroke="black" points="1581.61,-219 1581.61,-449 1871.61,-449 1871.61,-219 1581.61,-219"/>
<text text-anchor="middle" x="1726.61" y="-433.8" font-family="Times,serif" font-size="14.00">staking_contract</text>
</g>
<g id="clust5" class="cluster">
<title>cluster_vesting</title>
<polygon fill="none" stroke="black" points="1222.61,-302 1222.61,-449 1573.61,-449 1573.61,-302 1222.61,-302"/>
<text text-anchor="middle" x="1398.11" y="-433.8" font-family="Times,serif" font-size="14.00">vesting</text>
</g>
<g id="clust6" class="cluster">
<title>cluster_resource_account</title>
<polygon fill="none" stroke="black" points="1879.61,-136 1879.61,-294 3010.61,-294 3010.61,-136 1879.61,-136"/>
<text text-anchor="middle" x="2445.11" y="-278.8" font-family="Times,serif" font-size="14.00">resource_account</text>
</g>
<g id="clust2" class="cluster">
<title>cluster_transaction_validation</title>
<polygon fill="none" stroke="black" points="3048.61,-64 3048.61,-211 3603.61,-211 3603.61,-64 3048.61,-64"/>
<text text-anchor="middle" x="3326.11" y="-195.8" font-family="Times,serif" font-size="14.00">transaction_validation</text>
</g>
<!-- exists_at -->
<g id="node1" class="node">
<title>exists_at</title>
<ellipse fill="none" stroke="black" cx="1311.61" cy="-18" rx="41.69" ry="18"/>
<text text-anchor="middle" x="1311.61" y="-14.3" font-family="Times,serif" font-size="14.00">exists_at</text>
</g>
<!-- create_authorized_signer -->
<g id="node2" class="node">
<title>create_authorized_signer</title>
<ellipse fill="none" stroke="black" cx="810.61" cy="-90" rx="98.58" ry="18"/>
<text text-anchor="middle" x="810.61" y="-86.3" font-family="Times,serif" font-size="14.00">create_authorized_signer</text>
</g>
<!-- create_authorized_signer&#45;&gt;exists_at -->
<g id="edge1" class="edge">
<title>create_authorized_signer&#45;&gt;exists_at</title>
<path fill="none" stroke="black" d="M864.59,-74.55C880.31,-70.71 897.57,-66.84 913.61,-64 1036.54,-42.22 1182.79,-28.86 1259.19,-22.82"/>
<polygon fill="black" stroke="black" points="1259.19,-26.33 1268.89,-22.06 1258.65,-19.35 1259.19,-26.33"/>
</g>
<!-- create_resource_account -->
<g id="node3" class="node">
<title>create_resource_account</title>
<ellipse fill="none" stroke="black" cx="1774.61" cy="-162" rx="97.48" ry="18"/>
<text text-anchor="middle" x="1774.61" y="-158.3" font-family="Times,serif" font-size="14.00">create_resource_account</text>
</g>
<!-- create_resource_account&#45;&gt;exists_at -->
<g id="edge2" class="edge">
<title>create_resource_account&#45;&gt;exists_at</title>
<path fill="none" stroke="black" d="M1742.36,-144.59C1699.08,-123.18 1619.34,-85.89 1547.61,-64 1485.19,-44.96 1410.91,-32.38 1362.59,-25.48"/>
<polygon fill="black" stroke="black" points="1363.38,-22.06 1352.99,-24.14 1362.41,-28.99 1363.38,-22.06"/>
</g>
<!-- rotate_authentication_key_internal -->
<g id="node7" class="node">
<title>rotate_authentication_key_internal</title>
<ellipse fill="none" stroke="black" cx="2278.61" cy="-90" rx="133.48" ry="18"/>
<text text-anchor="middle" x="2278.61" y="-86.3" font-family="Times,serif" font-size="14.00">rotate_authentication_key_internal</text>
</g>
<!-- create_resource_account&#45;&gt;rotate_authentication_key_internal -->
<g id="edge19" class="edge">
<title>create_resource_account&#45;&gt;rotate_authentication_key_internal</title>
<path fill="none" stroke="black" d="M1827.53,-146.51C1842.94,-142.67 1859.87,-138.81 1875.61,-136 1968.1,-119.46 2073.7,-107.94 2153.59,-100.69"/>
<polygon fill="black" stroke="black" points="2153.53,-104.21 2163.18,-99.83 2152.91,-97.24 2153.53,-104.21"/>
</g>
<!-- offer_signer_capability -->
<g id="node4" class="node">
<title>offer_signer_capability</title>
<ellipse fill="none" stroke="black" cx="124.61" cy="-90" rx="92.88" ry="18"/>
<text text-anchor="middle" x="124.61" y="-86.3" font-family="Times,serif" font-size="14.00">offer_signer_capability</text>
</g>
<!-- offer_signer_capability&#45;&gt;exists_at -->
<g id="edge3" class="edge">
<title>offer_signer_capability&#45;&gt;exists_at</title>
<path fill="none" stroke="black" d="M175.06,-74.53C191.38,-70.42 209.64,-66.41 226.61,-64 429.32,-35.25 1069.1,-22.89 1258.37,-19.81"/>
<polygon fill="black" stroke="black" points="1258.2,-23.31 1268.14,-19.65 1258.09,-16.31 1258.2,-23.31"/>
</g>
<!-- revoke_signer_capability -->
<g id="node5" class="node">
<title>revoke_signer_capability</title>
<ellipse fill="none" stroke="black" cx="334.61" cy="-90" rx="99.38" ry="18"/>
<text text-anchor="middle" x="334.61" y="-86.3" font-family="Times,serif" font-size="14.00">revoke_signer_capability</text>
</g>
<!-- revoke_signer_capability&#45;&gt;exists_at -->
<g id="edge4" class="edge">
<title>revoke_signer_capability&#45;&gt;exists_at</title>
<path fill="none" stroke="black" d="M388.65,-74.53C405.78,-70.47 424.88,-66.49 442.61,-64 749.32,-20.9 1122.14,-17.97 1258.44,-18.52"/>
<polygon fill="black" stroke="black" points="1258.22,-22.01 1268.24,-18.56 1258.26,-15.01 1258.22,-22.01"/>
</g>
<!-- rotate_authentication_key -->
<g id="node6" class="node">
<title>rotate_authentication_key</title>
<ellipse fill="none" stroke="black" cx="553.61" cy="-90" rx="102.08" ry="18"/>
<text text-anchor="middle" x="553.61" y="-86.3" font-family="Times,serif" font-size="14.00">rotate_authentication_key</text>
</g>
<!-- rotate_authentication_key&#45;&gt;exists_at -->
<g id="edge5" class="edge">
<title>rotate_authentication_key&#45;&gt;exists_at</title>
<path fill="none" stroke="black" d="M611.73,-74.78C630.14,-70.73 650.64,-66.69 669.61,-64 886.54,-33.18 1147.85,-23.17 1258.25,-20.18"/>
<polygon fill="black" stroke="black" points="1258.29,-23.68 1268.19,-19.92 1258.1,-16.68 1258.29,-23.68"/>
</g>
<!-- rotate_authentication_key_internal&#45;&gt;exists_at -->
<g id="edge6" class="edge">
<title>rotate_authentication_key_internal&#45;&gt;exists_at</title>
<path fill="none" stroke="black" d="M2163.4,-80.66C1953.04,-65.43 1514.51,-33.69 1363.8,-22.78"/>
<polygon fill="black" stroke="black" points="1364.35,-19.31 1354.12,-22.08 1363.84,-26.29 1364.35,-19.31"/>
</g>
<!-- aptos_account::transfer -->
<g id="node8" class="node">
<title>aptos_account::transfer</title>
<ellipse fill="none" stroke="black" cx="1450.61" cy="-162" rx="37.89" ry="18"/>
<text text-anchor="middle" x="1450.61" y="-158.3" font-family="Times,serif" font-size="14.00">transfer</text>
</g>
<!-- aptos_account::transfer&#45;&gt;exists_at -->
<g id="edge7" class="edge">
<title>aptos_account::transfer&#45;&gt;exists_at</title>
<path fill="none" stroke="black" d="M1440.86,-144.17C1428.43,-123.64 1405.43,-88.63 1379.61,-64 1369.7,-54.55 1357.58,-45.82 1346.33,-38.62"/>
<polygon fill="black" stroke="black" points="1348.38,-35.77 1338.03,-33.49 1344.7,-41.72 1348.38,-35.77"/>
</g>
<!-- aptos_account::assert_account_exists -->
<g id="node9" class="node">
<title>aptos_account::assert_account_exists</title>
<ellipse fill="none" stroke="black" cx="1040.61" cy="-162" rx="87.18" ry="18"/>
<text text-anchor="middle" x="1040.61" y="-158.3" font-family="Times,serif" font-size="14.00">assert_account_exists</text>
</g>
<!-- aptos_account::assert_account_exists&#45;&gt;exists_at -->
<g id="edge8" class="edge">
<title>aptos_account::assert_account_exists&#45;&gt;exists_at</title>
<path fill="none" stroke="black" d="M953,-161.77C829.45,-160.07 627.04,-145.35 702.61,-64 740.02,-23.72 1116.6,-19.17 1258.18,-18.89"/>
<polygon fill="black" stroke="black" points="1258.04,-22.4 1268.03,-18.88 1258.03,-15.4 1258.04,-22.4"/>
</g>
<!-- aptos_account::deposit_coins -->
<g id="node10" class="node">
<title>aptos_account::deposit_coins</title>
<ellipse fill="none" stroke="black" cx="1311.61" cy="-90" rx="59.29" ry="18"/>
<text text-anchor="middle" x="1311.61" y="-86.3" font-family="Times,serif" font-size="14.00">deposit_coins</text>
</g>
<!-- aptos_account::deposit_coins&#45;&gt;exists_at -->
<g id="edge9" class="edge">
<title>aptos_account::deposit_coins&#45;&gt;exists_at</title>
<path fill="none" stroke="black" d="M1311.61,-71.7C1311.61,-64.41 1311.61,-55.73 1311.61,-47.54"/>
<polygon fill="black" stroke="black" points="1315.11,-47.62 1311.61,-37.62 1308.11,-47.62 1315.11,-47.62"/>
</g>
<!-- transaction_validation::multi_agent_script_prologue -->
<g id="node11" class="node">
<title>transaction_validation::multi_agent_script_prologue</title>
<ellipse fill="none" stroke="black" cx="3483.61" cy="-162" rx="112.38" ry="18"/>
<text text-anchor="middle" x="3483.61" y="-158.3" font-family="Times,serif" font-size="14.00">multi_agent_script_prologue</text>
</g>
<!-- transaction_validation::multi_agent_script_prologue&#45;&gt;exists_at -->
<g id="edge10" class="edge">
<title>transaction_validation::multi_agent_script_prologue&#45;&gt;exists_at</title>
<path fill="none" stroke="black" d="M3459.24,-143.97C3424.41,-120.73 3357.52,-80.14 3293.61,-64 3102.2,-15.66 1661.88,-17.82 1365.02,-18.79"/>
<polygon fill="black" stroke="black" points="1365.24,-15.29 1355.26,-18.82 1365.27,-22.29 1365.24,-15.29"/>
</g>
<!-- transaction_validation::prologue_common -->
<g id="node12" class="node">
<title>transaction_validation::prologue_common</title>
<ellipse fill="none" stroke="black" cx="3206.61" cy="-90" rx="77.99" ry="18"/>
<text text-anchor="middle" x="3206.61" y="-86.3" font-family="Times,serif" font-size="14.00">prologue_common</text>
</g>
<!-- transaction_validation::multi_agent_script_prologue&#45;&gt;transaction_validation::prologue_common -->
<g id="edge27" class="edge">
<title>transaction_validation::multi_agent_script_prologue&#45;&gt;transaction_validation::prologue_common</title>
<path fill="none" stroke="black" d="M3425.2,-146.24C3379.35,-134.65 3315.66,-118.56 3268.86,-106.73"/>
<polygon fill="black" stroke="black" points="3269.96,-103.4 3259.41,-104.34 3268.25,-110.19 3269.96,-103.4"/>
</g>
<!-- transaction_validation::prologue_common&#45;&gt;exists_at -->
<g id="edge11" class="edge">
<title>transaction_validation::prologue_common&#45;&gt;exists_at</title>
<path fill="none" stroke="black" d="M3129.97,-86.17C2815.61,-74.56 1629.02,-30.72 1364.22,-20.94"/>
<polygon fill="black" stroke="black" points="1364.66,-17.46 1354.54,-20.59 1364.4,-24.45 1364.66,-17.46"/>
</g>
<!-- genesis::create_account -->
<g id="node13" class="node">
<title>genesis::create_account</title>
<ellipse fill="none" stroke="black" cx="541.61" cy="-400" rx="63.89" ry="18"/>
<text text-anchor="middle" x="541.61" y="-396.3" font-family="Times,serif" font-size="14.00">create_account</text>
</g>
<!-- genesis::create_account&#45;&gt;exists_at -->
<g id="edge12" class="edge">
<title>genesis::create_account&#45;&gt;exists_at</title>
<path fill="none" stroke="black" d="M480.15,-394.56C338.99,-382.68 3.61,-344.14 3.61,-246 3.61,-246 3.61,-246 3.61,-161 3.61,-117.07 -10.82,-92.51 22.61,-64 70.31,-23.32 1021.16,-19.38 1258.36,-19.03"/>
<polygon fill="black" stroke="black" points="1258.24,-22.53 1268.24,-19.01 1258.23,-15.53 1258.24,-22.53"/>
</g>
<!-- genesis::create_employee_validators -->
<g id="node14" class="node">
<title>genesis::create_employee_validators</title>
<ellipse fill="none" stroke="black" cx="1096.61" cy="-547" rx="109.68" ry="18"/>
<text text-anchor="middle" x="1096.61" y="-543.3" font-family="Times,serif" font-size="14.00">create_employee_validators</text>
</g>
<!-- genesis::create_employee_validators&#45;&gt;exists_at -->
<g id="edge13" class="edge">
<title>genesis::create_employee_validators&#45;&gt;exists_at</title>
<path fill="none" stroke="black" d="M1204.73,-543.6C1612.02,-533.85 3030.61,-493.28 3030.61,-401 3030.61,-401 3030.61,-401 3030.61,-327 3030.61,-65.42 3441.87,-413.37 3607.61,-211 3649,-160.45 3653.35,-110.65 3607.61,-64 3567.05,-22.64 1706.45,-19.29 1365.1,-19.02"/>
<polygon fill="black" stroke="black" points="1365.12,-15.52 1355.12,-19.02 1365.12,-22.52 1365.12,-15.52"/>
</g>
<!-- vesting::create_vesting_contract -->
<g id="node32" class="node">
<title>vesting::create_vesting_contract</title>
<ellipse fill="none" stroke="black" cx="1471.61" cy="-400" rx="94.48" ry="18"/>
<text text-anchor="middle" x="1471.61" y="-396.3" font-family="Times,serif" font-size="14.00">create_vesting_contract</text>
</g>
<!-- genesis::create_employee_validators&#45;&gt;vesting::create_vesting_contract -->
<g id="edge44" class="edge">
<title>genesis::create_employee_validators&#45;&gt;vesting::create_vesting_contract</title>
<path fill="none" stroke="black" d="M1144.09,-530.43C1198.57,-512.24 1290.36,-480.58 1367.61,-449 1387.86,-440.72 1409.91,-430.69 1428.48,-421.95"/>
<polygon fill="black" stroke="black" points="1429.78,-425.2 1437.31,-417.75 1426.78,-418.88 1429.78,-425.2"/>
</g>
<!-- staking_contract::create_stake_pool -->
<g id="node15" class="node">
<title>staking_contract::create_stake_pool</title>
<ellipse fill="none" stroke="black" cx="1750.61" cy="-245" rx="74.19" ry="18"/>
<text text-anchor="middle" x="1750.61" y="-241.3" font-family="Times,serif" font-size="14.00">create_stake_pool</text>
</g>
<!-- staking_contract::create_stake_pool&#45;&gt;create_resource_account -->
<g id="edge14" class="edge">
<title>staking_contract::create_stake_pool&#45;&gt;create_resource_account</title>
<path fill="none" stroke="black" d="M1755.7,-226.82C1758.76,-216.48 1762.74,-203.05 1766.26,-191.18"/>
<polygon fill="black" stroke="black" points="1769.53,-192.47 1769.01,-181.88 1762.81,-190.48 1769.53,-192.47"/>
</g>
<!-- vesting::create_vesting_contract_account -->
<g id="node16" class="node">
<title>vesting::create_vesting_contract_account</title>
<ellipse fill="none" stroke="black" cx="1439.61" cy="-328" rx="126.18" ry="18"/>
<text text-anchor="middle" x="1439.61" y="-324.3" font-family="Times,serif" font-size="14.00">create_vesting_contract_account</text>
</g>
<!-- vesting::create_vesting_contract_account&#45;&gt;create_resource_account -->
<g id="edge15" class="edge">
<title>vesting::create_vesting_contract_account&#45;&gt;create_resource_account</title>
<path fill="none" stroke="black" d="M1515.7,-313.27C1527.36,-308.6 1538.51,-302.36 1547.61,-294 1574.04,-269.7 1550.94,-243.04 1577.61,-219 1604.77,-194.51 1641.92,-180.66 1676.63,-172.85"/>
<polygon fill="black" stroke="black" points="1677.24,-176.3 1686.32,-170.83 1675.81,-169.45 1677.24,-176.3"/>
</g>
<!-- resource_account::create_resource_account -->
<g id="node17" class="node">
<title>resource_account::create_resource_account</title>
<ellipse fill="none" stroke="black" cx="1984.61" cy="-245" rx="97.48" ry="18"/>
<text text-anchor="middle" x="1984.61" y="-241.3" font-family="Times,serif" font-size="14.00">create_resource_account</text>
</g>
<!-- resource_account::create_resource_account&#45;&gt;create_resource_account -->
<g id="edge16" class="edge">
<title>resource_account::create_resource_account&#45;&gt;create_resource_account</title>
<path fill="none" stroke="black" d="M1931.12,-229.54C1913.27,-224.26 1893.4,-217.88 1875.61,-211 1855.62,-203.28 1834.1,-193.29 1816.08,-184.43"/>
<polygon fill="black" stroke="black" points="1817.78,-181.37 1807.27,-180.05 1814.66,-187.64 1817.78,-181.37"/>
</g>
<!-- resource_account::rotate_account_authentication_key_and_store_capability -->
<g id="node22" class="node">
<title>resource_account::rotate_account_authentication_key_and_store_capability</title>
<ellipse fill="none" stroke="black" cx="2278.61" cy="-162" rx="211.46" ry="18"/>
<text text-anchor="middle" x="2278.61" y="-158.3" font-family="Times,serif" font-size="14.00">rotate_account_authentication_key_and_store_capability</text>
</g>
<!-- resource_account::create_resource_account&#45;&gt;resource_account::rotate_account_authentication_key_and_store_capability -->
<g id="edge34" class="edge">
<title>resource_account::create_resource_account&#45;&gt;resource_account::rotate_account_authentication_key_and_store_capability</title>
<path fill="none" stroke="black" d="M2037.17,-229.52C2084.58,-216.46 2154.73,-197.13 2207.21,-182.67"/>
<polygon fill="black" stroke="black" points="2207.96,-186.09 2216.67,-180.06 2206.1,-179.35 2207.96,-186.09"/>
</g>
<!-- resource_account::create_resource_account_and_fund -->
<g id="node18" class="node">
<title>resource_account::create_resource_account_and_fund</title>
<ellipse fill="none" stroke="black" cx="2609.61" cy="-245" rx="135.38" ry="18"/>
<text text-anchor="middle" x="2609.61" y="-241.3" font-family="Times,serif" font-size="14.00">create_resource_account_and_fund</text>
</g>
<!-- resource_account::create_resource_account_and_fund&#45;&gt;create_resource_account -->
<g id="edge17" class="edge">
<title>resource_account::create_resource_account_and_fund&#45;&gt;create_resource_account</title>
<path fill="none" stroke="black" d="M2538.12,-229.29C2515.08,-225.17 2489.36,-221.21 2465.61,-219 2400.33,-212.93 1939.46,-225.86 1875.61,-211 1853.21,-205.79 1829.93,-195.13 1811.36,-185.18"/>
<polygon fill="black" stroke="black" points="1813.07,-182.12 1802.62,-180.33 1809.67,-188.24 1813.07,-182.12"/>
</g>
<!-- resource_account::create_resource_account_and_fund&#45;&gt;resource_account::rotate_account_authentication_key_and_store_capability -->
<g id="edge35" class="edge">
<title>resource_account::create_resource_account_and_fund&#45;&gt;resource_account::rotate_account_authentication_key_and_store_capability</title>
<path fill="none" stroke="black" d="M2546.96,-228.67C2493.08,-215.48 2415.11,-196.4 2357.08,-182.2"/>
<polygon fill="black" stroke="black" points="2358.14,-178.86 2347.59,-179.88 2356.47,-185.66 2358.14,-178.86"/>
</g>
<!-- resource_account::create_resource_account_and_publish_package -->
<g id="node19" class="node">
<title>resource_account::create_resource_account_and_publish_package</title>
<ellipse fill="none" stroke="black" cx="2278.61" cy="-245" rx="178.17" ry="18"/>
<text text-anchor="middle" x="2278.61" y="-241.3" font-family="Times,serif" font-size="14.00">create_resource_account_and_publish_package</text>
</g>
<!-- resource_account::create_resource_account_and_publish_package&#45;&gt;create_resource_account -->
<g id="edge18" class="edge">
<title>resource_account::create_resource_account_and_publish_package&#45;&gt;create_resource_account</title>
<path fill="none" stroke="black" d="M2182.67,-229.46C2153.2,-225.47 2120.63,-221.55 2090.61,-219 2042.97,-214.96 1922.04,-222.38 1875.61,-211 1853.44,-205.56 1830.33,-195 1811.81,-185.16"/>
<polygon fill="black" stroke="black" points="1813.54,-182.11 1803.09,-180.38 1810.18,-188.25 1813.54,-182.11"/>
</g>
<!-- resource_account::create_resource_account_and_publish_package&#45;&gt;resource_account::rotate_account_authentication_key_and_store_capability -->
<g id="edge36" class="edge">
<title>resource_account::create_resource_account_and_publish_package&#45;&gt;resource_account::rotate_account_authentication_key_and_store_capability</title>
<path fill="none" stroke="black" d="M2278.61,-226.82C2278.61,-216.69 2278.61,-203.6 2278.61,-191.92"/>
<polygon fill="black" stroke="black" points="2282.11,-191.95 2278.61,-181.95 2275.11,-191.95 2282.11,-191.95"/>
</g>
<!-- genesis::initialize_core_resources_and_aptos_coin -->
<g id="node20" class="node">
<title>genesis::initialize_core_resources_and_aptos_coin</title>
<ellipse fill="none" stroke="black" cx="1048.61" cy="-619" rx="157.87" ry="18"/>
<text text-anchor="middle" x="1048.61" y="-615.3" font-family="Times,serif" font-size="14.00">initialize_core_resources_and_aptos_coin</text>
</g>
<!-- genesis::initialize_core_resources_and_aptos_coin&#45;&gt;rotate_authentication_key_internal -->
<g id="edge20" class="edge">
<title>genesis::initialize_core_resources_and_aptos_coin&#45;&gt;rotate_authentication_key_internal</title>
<path fill="none" stroke="black" d="M1203.34,-615.19C1675.95,-605.6 3068.61,-569.41 3068.61,-476 3068.61,-476 3068.61,-476 3068.61,-327 3068.61,-304.95 3031.78,-149.84 3014.61,-136 2969.78,-99.89 2624.68,-92.31 2423.34,-90.99"/>
<polygon fill="black" stroke="black" points="2423.61,-87.49 2413.59,-90.93 2423.57,-94.49 2423.61,-87.49"/>
</g>
<!-- resource_account::retrieve_resource_account_cap -->
<g id="node21" class="node">
<title>resource_account::retrieve_resource_account_cap</title>
<ellipse fill="none" stroke="black" cx="2882.61" cy="-245" rx="120.48" ry="18"/>
<text text-anchor="middle" x="2882.61" y="-241.3" font-family="Times,serif" font-size="14.00">retrieve_resource_account_cap</text>
</g>
<!-- resource_account::retrieve_resource_account_cap&#45;&gt;rotate_authentication_key_internal -->
<g id="edge21" class="edge">
<title>resource_account::retrieve_resource_account_cap&#45;&gt;rotate_authentication_key_internal</title>
<path fill="none" stroke="black" d="M2831.37,-228.31C2758.04,-206.15 2618.74,-165.14 2498.61,-136 2455.14,-125.46 2406.46,-115.33 2365.96,-107.36"/>
<polygon fill="black" stroke="black" points="2366.73,-103.94 2356.25,-105.46 2365.39,-110.81 2366.73,-103.94"/>
</g>
<!-- resource_account::rotate_account_authentication_key_and_store_capability&#45;&gt;rotate_authentication_key_internal -->
<g id="edge22" class="edge">
<title>resource_account::rotate_account_authentication_key_and_store_capability&#45;&gt;rotate_authentication_key_internal</title>
<path fill="none" stroke="black" d="M2278.61,-143.7C2278.61,-136.41 2278.61,-127.73 2278.61,-119.54"/>
<polygon fill="black" stroke="black" points="2282.11,-119.62 2278.61,-109.62 2275.11,-119.62 2282.11,-119.62"/>
</g>
<!-- aptos_account::batch_transfer -->
<g id="node23" class="node">
<title>aptos_account::batch_transfer</title>
<ellipse fill="none" stroke="black" cx="1474.61" cy="-245" rx="61.19" ry="18"/>
<text text-anchor="middle" x="1474.61" y="-241.3" font-family="Times,serif" font-size="14.00">batch_transfer</text>
</g>
<!-- aptos_account::batch_transfer&#45;&gt;aptos_account::transfer -->
<g id="edge23" class="edge">
<title>aptos_account::batch_transfer&#45;&gt;aptos_account::transfer</title>
<path fill="none" stroke="black" d="M1469.52,-226.82C1466.43,-216.41 1462.42,-202.87 1458.88,-190.94"/>
<polygon fill="black" stroke="black" points="1462.32,-190.2 1456.12,-181.6 1455.6,-192.19 1462.32,-190.2"/>
</g>
<!-- aptos_account::assert_account_is_registered_for_apt -->
<g id="node24" class="node">
<title>aptos_account::assert_account_is_registered_for_apt</title>
<ellipse fill="none" stroke="black" cx="1067.61" cy="-245" rx="141.88" ry="18"/>
<text text-anchor="middle" x="1067.61" y="-241.3" font-family="Times,serif" font-size="14.00">assert_account_is_registered_for_apt</text>
</g>
<!-- aptos_account::assert_account_is_registered_for_apt&#45;&gt;aptos_account::assert_account_exists -->
<g id="edge24" class="edge">
<title>aptos_account::assert_account_is_registered_for_apt&#45;&gt;aptos_account::assert_account_exists</title>
<path fill="none" stroke="black" d="M1061.88,-226.82C1058.43,-216.48 1053.96,-203.05 1050,-191.18"/>
<polygon fill="black" stroke="black" points="1053.38,-190.25 1046.9,-181.87 1046.74,-192.46 1053.38,-190.25"/>
</g>
<!-- aptos_account::transfer_coins -->
<g id="node25" class="node">
<title>aptos_account::transfer_coins</title>
<ellipse fill="none" stroke="black" cx="1311.61" cy="-162" rx="60.39" ry="18"/>
<text text-anchor="middle" x="1311.61" y="-158.3" font-family="Times,serif" font-size="14.00">transfer_coins</text>
</g>
<!-- aptos_account::transfer_coins&#45;&gt;aptos_account::deposit_coins -->
<g id="edge25" class="edge">
<title>aptos_account::transfer_coins&#45;&gt;aptos_account::deposit_coins</title>
<path fill="none" stroke="black" d="M1311.61,-143.7C1311.61,-136.41 1311.61,-127.73 1311.61,-119.54"/>
<polygon fill="black" stroke="black" points="1315.11,-119.62 1311.61,-109.62 1308.11,-119.62 1315.11,-119.62"/>
</g>
<!-- transaction_validation::module_prologue -->
<g id="node26" class="node">
<title>transaction_validation::module_prologue</title>
<ellipse fill="none" stroke="black" cx="3279.61" cy="-162" rx="73.39" ry="18"/>
<text text-anchor="middle" x="3279.61" y="-158.3" font-family="Times,serif" font-size="14.00">module_prologue</text>
</g>
<!-- transaction_validation::module_prologue&#45;&gt;transaction_validation::prologue_common -->
<g id="edge26" class="edge">
<title>transaction_validation::module_prologue&#45;&gt;transaction_validation::prologue_common</title>
<path fill="none" stroke="black" d="M3261.94,-144.05C3253.06,-135.54 3242.13,-125.07 3232.35,-115.68"/>
<polygon fill="black" stroke="black" points="3234.85,-113.23 3225.21,-108.84 3230,-118.28 3234.85,-113.23"/>
</g>
<!-- transaction_validation::script_prologue -->
<g id="node27" class="node">
<title>transaction_validation::script_prologue</title>
<ellipse fill="none" stroke="black" cx="3122.61" cy="-162" rx="65.79" ry="18"/>
<text text-anchor="middle" x="3122.61" y="-158.3" font-family="Times,serif" font-size="14.00">script_prologue</text>
</g>
<!-- transaction_validation::script_prologue&#45;&gt;transaction_validation::prologue_common -->
<g id="edge28" class="edge">
<title>transaction_validation::script_prologue&#45;&gt;transaction_validation::prologue_common</title>
<path fill="none" stroke="black" d="M3142.51,-144.41C3153.11,-135.58 3166.32,-124.57 3177.99,-114.84"/>
<polygon fill="black" stroke="black" points="3179.95,-117.77 3185.39,-108.68 3175.47,-112.39 3179.95,-117.77"/>
</g>
<!-- genesis::create_accounts -->
<g id="node28" class="node">
<title>genesis::create_accounts</title>
<ellipse fill="none" stroke="black" cx="541.61" cy="-475" rx="66.89" ry="18"/>
<text text-anchor="middle" x="541.61" y="-471.3" font-family="Times,serif" font-size="14.00">create_accounts</text>
</g>
<!-- genesis::create_accounts&#45;&gt;genesis::create_account -->
<g id="edge29" class="edge">
<title>genesis::create_accounts&#45;&gt;genesis::create_account</title>
<path fill="none" stroke="black" d="M541.61,-456.7C541.61,-448.67 541.61,-438.9 541.61,-429.8"/>
<polygon fill="black" stroke="black" points="545.11,-429.94 541.61,-419.94 538.11,-429.94 545.11,-429.94"/>
</g>
<!-- genesis::create_initialize_validator -->
<g id="node29" class="node">
<title>genesis::create_initialize_validator</title>
<ellipse fill="none" stroke="black" cx="750.61" cy="-475" rx="102.88" ry="18"/>
<text text-anchor="middle" x="750.61" y="-471.3" font-family="Times,serif" font-size="14.00">create_initialize_validator</text>
</g>
<!-- genesis::create_initialize_validator&#45;&gt;genesis::create_account -->
<g id="edge30" class="edge">
<title>genesis::create_initialize_validator&#45;&gt;genesis::create_account</title>
<path fill="none" stroke="black" d="M705.77,-458.34C672.22,-446.62 626.33,-430.59 591.59,-418.46"/>
<polygon fill="black" stroke="black" points="592.76,-415.16 582.17,-415.17 590.45,-421.77 592.76,-415.16"/>
</g>
<!-- staking_contract::create_staking_contract -->
<g id="node36" class="node">
<title>staking_contract::create_staking_contract</title>
<ellipse fill="none" stroke="black" cx="1704.61" cy="-400" rx="94.48" ry="18"/>
<text text-anchor="middle" x="1704.61" y="-396.3" font-family="Times,serif" font-size="14.00">create_staking_contract</text>
</g>
<!-- genesis::create_initialize_validator&#45;&gt;staking_contract::create_staking_contract -->
<g id="edge47" class="edge">
<title>genesis::create_initialize_validator&#45;&gt;staking_contract::create_staking_contract</title>
<path fill="none" stroke="black" d="M853.04,-472.8C1058.76,-470.1 1508.43,-462.72 1577.61,-449 1606.08,-443.35 1636.54,-432.03 1660.5,-421.8"/>
<polygon fill="black" stroke="black" points="1661.87,-425.02 1669.63,-417.81 1659.06,-418.61 1661.87,-425.02"/>
</g>
<!-- genesis::initialize_for_verification -->
<g id="node30" class="node">
<title>genesis::initialize_for_verification</title>
<ellipse fill="none" stroke="black" cx="541.61" cy="-619" rx="100.98" ry="18"/>
<text text-anchor="middle" x="541.61" y="-615.3" font-family="Times,serif" font-size="14.00">initialize_for_verification</text>
</g>
<!-- genesis::initialize_for_verification&#45;&gt;genesis::create_employee_validators -->
<g id="edge31" class="edge">
<title>genesis::initialize_for_verification&#45;&gt;genesis::create_employee_validators</title>
<path fill="none" stroke="black" d="M614.92,-606.31C627.16,-604.46 639.74,-602.62 651.61,-601 769.51,-584.87 905.39,-569.1 995.67,-559.01"/>
<polygon fill="black" stroke="black" points="995.94,-562.5 1005.49,-557.91 995.16,-555.54 995.94,-562.5"/>
</g>
<!-- genesis::initialize_for_verification&#45;&gt;genesis::create_accounts -->
<g id="edge40" class="edge">
<title>genesis::initialize_for_verification&#45;&gt;genesis::create_accounts</title>
<path fill="none" stroke="black" d="M541.61,-600.59C541.61,-576.61 541.61,-533.14 541.61,-504.42"/>
<polygon fill="black" stroke="black" points="545.11,-504.62 541.61,-494.62 538.11,-504.62 545.11,-504.62"/>
</g>
<!-- genesis::create_initialize_validators_with_commission -->
<g id="node35" class="node">
<title>genesis::create_initialize_validators_with_commission</title>
<ellipse fill="none" stroke="black" cx="750.61" cy="-547" rx="173.57" ry="18"/>
<text text-anchor="middle" x="750.61" y="-543.3" font-family="Times,serif" font-size="14.00">create_initialize_validators_with_commission</text>
</g>
<!-- genesis::initialize_for_verification&#45;&gt;genesis::create_initialize_validators_with_commission -->
<g id="edge45" class="edge">
<title>genesis::initialize_for_verification&#45;&gt;genesis::create_initialize_validators_with_commission</title>
<path fill="none" stroke="black" d="M587.73,-602.55C617.86,-592.46 657.53,-579.17 690.17,-568.24"/>
<polygon fill="black" stroke="black" points="691.15,-571.61 699.52,-565.11 688.92,-564.97 691.15,-571.61"/>
</g>
<!-- staking_contract::create_staking_contract_with_coins -->
<g id="node31" class="node">
<title>staking_contract::create_staking_contract_with_coins</title>
<ellipse fill="none" stroke="black" cx="1726.61" cy="-328" rx="137.28" ry="18"/>
<text text-anchor="middle" x="1726.61" y="-324.3" font-family="Times,serif" font-size="14.00">create_staking_contract_with_coins</text>
</g>
<!-- staking_contract::create_staking_contract_with_coins&#45;&gt;staking_contract::create_stake_pool -->
<g id="edge32" class="edge">
<title>staking_contract::create_staking_contract_with_coins&#45;&gt;staking_contract::create_stake_pool</title>
<path fill="none" stroke="black" d="M1731.7,-309.82C1734.76,-299.48 1738.74,-286.05 1742.26,-274.18"/>
<polygon fill="black" stroke="black" points="1745.53,-275.47 1745.01,-264.88 1738.81,-273.48 1745.53,-275.47"/>
</g>
<!-- vesting::create_vesting_contract&#45;&gt;vesting::create_vesting_contract_account -->
<g id="edge33" class="edge">
<title>vesting::create_vesting_contract&#45;&gt;vesting::create_vesting_contract_account</title>
<path fill="none" stroke="black" d="M1463.7,-381.7C1460.21,-374.07 1456.03,-364.92 1452.13,-356.4"/>
<polygon fill="black" stroke="black" points="1455.4,-355.12 1448.05,-347.48 1449.03,-358.03 1455.4,-355.12"/>
</g>
<!-- vesting::create_vesting_contract&#45;&gt;aptos_account::assert_account_is_registered_for_apt -->
<g id="edge37" class="edge">
<title>vesting::create_vesting_contract&#45;&gt;aptos_account::assert_account_is_registered_for_apt</title>
<path fill="none" stroke="black" d="M1421.51,-384.42C1388.13,-374.38 1343.42,-360.31 1304.61,-346 1286.15,-339.19 1180.84,-294.39 1116.97,-267.11"/>
<polygon fill="black" stroke="black" points="1118.67,-264.03 1108.1,-263.32 1115.92,-270.47 1118.67,-264.03"/>
</g>
<!-- vesting::create_vesting_contract&#45;&gt;staking_contract::create_staking_contract_with_coins -->
<g id="edge43" class="edge">
<title>vesting::create_vesting_contract&#45;&gt;staking_contract::create_staking_contract_with_coins</title>
<path fill="none" stroke="black" d="M1523.82,-384.67C1562.61,-374.02 1615.89,-359.39 1658.1,-347.81"/>
<polygon fill="black" stroke="black" points="1658.95,-351.2 1667.67,-345.18 1657.1,-344.45 1658.95,-351.2"/>
</g>
<!-- vesting::set_beneficiary -->
<g id="node33" class="node">
<title>vesting::set_beneficiary</title>
<ellipse fill="none" stroke="black" cx="1294.61" cy="-400" rx="64.19" ry="18"/>
<text text-anchor="middle" x="1294.61" y="-396.3" font-family="Times,serif" font-size="14.00">set_beneficiary</text>
</g>
<!-- vesting::set_beneficiary&#45;&gt;aptos_account::assert_account_is_registered_for_apt -->
<g id="edge38" class="edge">
<title>vesting::set_beneficiary&#45;&gt;aptos_account::assert_account_is_registered_for_apt</title>
<path fill="none" stroke="black" d="M1270.74,-382.92C1230.47,-355.77 1148.84,-300.75 1102.26,-269.35"/>
<polygon fill="black" stroke="black" points="1104.38,-266.56 1094.13,-263.88 1100.46,-272.37 1104.38,-266.56"/>
</g>
<!-- aptos_account::batch_transfer_coins -->
<g id="node34" class="node">
<title>aptos_account::batch_transfer_coins</title>
<ellipse fill="none" stroke="black" cx="1311.61" cy="-245" rx="83.69" ry="18"/>
<text text-anchor="middle" x="1311.61" y="-241.3" font-family="Times,serif" font-size="14.00">batch_transfer_coins</text>
</g>
<!-- aptos_account::batch_transfer_coins&#45;&gt;aptos_account::transfer_coins -->
<g id="edge39" class="edge">
<title>aptos_account::batch_transfer_coins&#45;&gt;aptos_account::transfer_coins</title>
<path fill="none" stroke="black" d="M1311.61,-226.82C1311.61,-216.69 1311.61,-203.6 1311.61,-191.92"/>
<polygon fill="black" stroke="black" points="1315.11,-191.95 1311.61,-181.95 1308.11,-191.95 1315.11,-191.95"/>
</g>
<!-- genesis::create_initialize_validators_with_commission&#45;&gt;genesis::create_initialize_validator -->
<g id="edge41" class="edge">
<title>genesis::create_initialize_validators_with_commission&#45;&gt;genesis::create_initialize_validator</title>
<path fill="none" stroke="black" d="M750.61,-528.7C750.61,-521.41 750.61,-512.73 750.61,-504.54"/>
<polygon fill="black" stroke="black" points="754.11,-504.62 750.61,-494.62 747.11,-504.62 754.11,-504.62"/>
</g>
<!-- staking_contract::create_staking_contract&#45;&gt;staking_contract::create_staking_contract_with_coins -->
<g id="edge42" class="edge">
<title>staking_contract::create_staking_contract&#45;&gt;staking_contract::create_staking_contract_with_coins</title>
<path fill="none" stroke="black" d="M1710.04,-381.7C1712.39,-374.24 1715.19,-365.32 1717.82,-356.97"/>
<polygon fill="black" stroke="black" points="1721.12,-358.14 1720.78,-347.55 1714.44,-356.04 1721.12,-358.14"/>
</g>
<!-- genesis::create_initialize_validators -->
<g id="node37" class="node">
<title>genesis::create_initialize_validators</title>
<ellipse fill="none" stroke="black" cx="766.61" cy="-619" rx="105.88" ry="18"/>
<text text-anchor="middle" x="766.61" y="-615.3" font-family="Times,serif" font-size="14.00">create_initialize_validators</text>
</g>
<!-- genesis::create_initialize_validators&#45;&gt;genesis::create_initialize_validators_with_commission -->
<g id="edge46" class="edge">
<title>genesis::create_initialize_validators&#45;&gt;genesis::create_initialize_validators_with_commission</title>
<path fill="none" stroke="black" d="M762.65,-600.7C760.97,-593.32 758.95,-584.52 757.06,-576.25"/>
<polygon fill="black" stroke="black" points="760.49,-575.55 754.85,-566.58 753.67,-577.11 760.49,-575.55"/>
</g>
</g>
</svg>
