<?xml version="1.0" encoding="UTF-8" standalone="no"?>
<!DOCTYPE svg PUBLIC "-//W3C//DTD SVG 1.1//EN"
 "http://www.w3.org/Graphics/SVG/1.1/DTD/svg11.dtd">
<!-- Generated by graphviz version 7.0.4 (20221203.1631)
 -->
<!-- Title: G Pages: 1 -->
<svg width="242pt" height="310pt"
 viewBox="0.00 0.00 242.00 310.00" xmlns="http://www.w3.org/2000/svg" xmlns:xlink="http://www.w3.org/1999/xlink">
<g id="graph0" class="graph" transform="scale(1 1) rotate(0) translate(4 306)">
<title>G</title>
<polygon fill="white" stroke="none" points="-4,4 -4,-306 238,-306 238,4 -4,4"/>
<g id="clust1" class="cluster">
<title>cluster_reconfiguration</title>
<polygon fill="none" stroke="black" points="67,-64 67,-139 167,-139 167,-64 67,-64"/>
<text text-anchor="middle" x="117" y="-123.8" font-family="Times,serif" font-size="14.00">reconfiguration</text>
</g>
<g id="clust2" class="cluster">
<title>cluster_genesis</title>
<polygon fill="none" stroke="black" points="8,-147 8,-294 226,-294 226,-147 8,-147"/>
<text text-anchor="middle" x="117" y="-278.8" font-family="Times,serif" font-size="14.00">genesis</text>
</g>
<!-- get_guid_next_creation_num -->
<g id="node1" class="node">
<title>get_guid_next_creation_num</title>
<ellipse fill="none" stroke="black" cx="117" cy="-18" rx="114.28" ry="18"/>
<text text-anchor="middle" x="117" y="-14.3" font-family="Times,serif" font-size="14.00">get_guid_next_creation_num</text>
</g>
<!-- reconfiguration::initialize -->
<g id="node2" class="node">
<title>reconfiguration::initialize</title>
<ellipse fill="none" stroke="black" cx="117" cy="-90" rx="41.69" ry="18"/>
<text text-anchor="middle" x="117" y="-86.3" font-family="Times,serif" font-size="14.00">initialize</text>
</g>
<!-- reconfiguration::initialize&#45;&gt;get_guid_next_creation_num -->
<g id="edge1" class="edge">
<title>reconfiguration::initialize&#45;&gt;get_guid_next_creation_num</title>
<path fill="none" stroke="black" d="M117,-71.7C117,-64.41 117,-55.73 117,-47.54"/>
<polygon fill="black" stroke="black" points="120.5,-47.62 117,-37.62 113.5,-47.62 120.5,-47.62"/>
</g>
<!-- genesis::initialize -->
<g id="node3" class="node">
<title>genesis::initialize</title>
<ellipse fill="none" stroke="black" cx="117" cy="-173" rx="41.69" ry="18"/>
<text text-anchor="middle" x="117" y="-169.3" font-family="Times,serif" font-size="14.00">initialize</text>
</g>
<!-- genesis::initialize&#45;&gt;reconfiguration::initialize -->
<g id="edge2" class="edge">
<title>genesis::initialize&#45;&gt;reconfiguration::initialize</title>
<path fill="none" stroke="black" d="M117,-154.82C117,-144.69 117,-131.6 117,-119.92"/>
<polygon fill="black" stroke="black" points="120.5,-119.95 117,-109.95 113.5,-119.95 120.5,-119.95"/>
</g>
<!-- genesis::initialize_for_verification -->
<g id="node4" class="node">
<title>genesis::initialize_for_verification</title>
<ellipse fill="none" stroke="black" cx="117" cy="-245" rx="100.98" ry="18"/>
<text text-anchor="middle" x="117" y="-241.3" font-family="Times,serif" font-size="14.00">initialize_for_verification</text>
</g>
<!-- genesis::initialize_for_verification&#45;&gt;genesis::initialize -->
<g id="edge3" class="edge">
<title>genesis::initialize_for_verification&#45;&gt;genesis::initialize</title>
<path fill="none" stroke="black" d="M117,-226.7C117,-219.41 117,-210.73 117,-202.54"/>
<polygon fill="black" stroke="black" points="120.5,-202.62 117,-192.62 113.5,-202.62 120.5,-202.62"/>
</g>
</g>
</svg>
