<?xml version="1.0" encoding="UTF-8" standalone="no"?>
<!DOCTYPE svg PUBLIC "-//W3C//DTD SVG 1.1//EN"
 "http://www.w3.org/Graphics/SVG/1.1/DTD/svg11.dtd">
<!-- Generated by graphviz version 7.0.4 (20221203.1631)
 -->
<!-- Title: G Pages: 1 -->
<svg width="2312pt" height="601pt"
 viewBox="0.00 0.00 2312.00 601.00" xmlns="http://www.w3.org/2000/svg" xmlns:xlink="http://www.w3.org/1999/xlink">
<g id="graph0" class="graph" transform="scale(1 1) rotate(0) translate(4 597)">
<title>G</title>
<polygon fill="white" stroke="none" points="-4,4 -4,-597 2308,-597 2308,4 -4,4"/>
<g id="clust1" class="cluster">
<title>cluster_aptos_account</title>
<polygon fill="none" stroke="black" points="2019,-291 2019,-585 2296,-585 2296,-291 2019,-291"/>
<text text-anchor="middle" x="2157.5" y="-569.8" font-family="Times,serif" font-size="14.00">aptos_account</text>
</g>
<g id="clust2" class="cluster">
<title>cluster_genesis</title>
<polygon fill="none" stroke="black" points="1229,-291 1229,-585 2011,-585 2011,-291 1229,-291"/>
<text text-anchor="middle" x="1620" y="-569.8" font-family="Times,serif" font-size="14.00">genesis</text>
</g>
<g id="clust3" class="cluster">
<title>cluster_staking_contract</title>
<polygon fill="none" stroke="black" points="931,-136 931,-366 1221,-366 1221,-136 931,-136"/>
<text text-anchor="middle" x="1076" y="-350.8" font-family="Times,serif" font-size="14.00">staking_contract</text>
</g>
<g id="clust4" class="cluster">
<title>cluster_vesting</title>
<polygon fill="none" stroke="black" points="655,-219 655,-366 923,-366 923,-219 655,-219"/>
<text text-anchor="middle" x="789" y="-350.8" font-family="Times,serif" font-size="14.00">vesting</text>
</g>
<g id="clust5" class="cluster">
<title>cluster_resource_account</title>
<polygon fill="none" stroke="black" points="20,-136 20,-211 893,-211 893,-136 20,-136"/>
<text text-anchor="middle" x="456.5" y="-195.8" font-family="Times,serif" font-size="14.00">resource_account</text>
</g>
<!-- create_account_unchecked -->
<g id="node1" class="node">
<title>create_account_unchecked</title>
<ellipse fill="none" stroke="black" cx="750" cy="-18" rx="105.08" ry="18"/>
<text text-anchor="middle" x="750" y="-14.3" font-family="Times,serif" font-size="14.00">create_account_unchecked</text>
</g>
<!-- create_account -->
<g id="node2" class="node">
<title>create_account</title>
<ellipse fill="none" stroke="black" cx="1870" cy="-245" rx="63.89" ry="18"/>
<text text-anchor="middle" x="1870" y="-241.3" font-family="Times,serif" font-size="14.00">create_account</text>
</g>
<!-- create_account&#45;&gt;create_account_unchecked -->
<g id="edge1" class="edge">
<title>create_account&#45;&gt;create_account_unchecked</title>
<path fill="none" stroke="black" d="M1818.97,-233.75C1640.29,-197.85 1042.15,-77.69 827.5,-34.57"/>
<polygon fill="black" stroke="black" points="828.33,-31.17 817.83,-32.63 826.95,-38.03 828.33,-31.17"/>
</g>
<!-- create_framework_reserved_account -->
<g id="node3" class="node">
<title>create_framework_reserved_account</title>
<ellipse fill="none" stroke="black" cx="639" cy="-392" rx="141.07" ry="18"/>
<text text-anchor="middle" x="639" y="-388.3" font-family="Times,serif" font-size="14.00">create_framework_reserved_account</text>
</g>
<!-- create_framework_reserved_account&#45;&gt;create_account_unchecked -->
<g id="edge2" class="edge">
<title>create_framework_reserved_account&#45;&gt;create_account_unchecked</title>
<path fill="none" stroke="black" d="M502.31,-387.26C314.6,-378.35 0,-348.17 0,-246 0,-246 0,-246 0,-161 0,-147.81 4.96,-143.23 16,-136 116.93,-69.91 462.02,-37.94 640.74,-25.51"/>
<polygon fill="black" stroke="black" points="640.76,-29.02 650.5,-24.84 640.28,-22.04 640.76,-29.02"/>
</g>
<!-- create_resource_account -->
<g id="node4" class="node">
<title>create_resource_account</title>
<ellipse fill="none" stroke="black" cx="750" cy="-90" rx="97.48" ry="18"/>
<text text-anchor="middle" x="750" y="-86.3" font-family="Times,serif" font-size="14.00">create_resource_account</text>
</g>
<!-- create_resource_account&#45;&gt;create_account_unchecked -->
<g id="edge3" class="edge">
<title>create_resource_account&#45;&gt;create_account_unchecked</title>
<path fill="none" stroke="black" d="M750,-71.7C750,-64.41 750,-55.73 750,-47.54"/>
<polygon fill="black" stroke="black" points="753.5,-47.62 750,-37.62 746.5,-47.62 753.5,-47.62"/>
</g>
<!-- aptos_account::create_account -->
<g id="node5" class="node">
<title>aptos_account::create_account</title>
<ellipse fill="none" stroke="black" cx="2091" cy="-317" rx="63.89" ry="18"/>
<text text-anchor="middle" x="2091" y="-313.3" font-family="Times,serif" font-size="14.00">create_account</text>
</g>
<!-- aptos_account::create_account&#45;&gt;create_account -->
<g id="edge4" class="edge">
<title>aptos_account::create_account&#45;&gt;create_account</title>
<path fill="none" stroke="black" d="M2050.81,-302.64C2039.26,-298.84 2026.64,-294.72 2015,-291 1984.66,-281.3 1950.65,-270.73 1923.2,-262.27"/>
<polygon fill="black" stroke="black" points="1924.29,-258.95 1913.7,-259.35 1922.23,-265.64 1924.29,-258.95"/>
</g>
<!-- genesis::create_account -->
<g id="node6" class="node">
<title>genesis::create_account</title>
<ellipse fill="none" stroke="black" cx="1768" cy="-317" rx="63.89" ry="18"/>
<text text-anchor="middle" x="1768" y="-313.3" font-family="Times,serif" font-size="14.00">create_account</text>
</g>
<!-- genesis::create_account&#45;&gt;create_account -->
<g id="edge5" class="edge">
<title>genesis::create_account&#45;&gt;create_account</title>
<path fill="none" stroke="black" d="M1791.4,-299.94C1805.01,-290.6 1822.36,-278.69 1837.3,-268.44"/>
<polygon fill="black" stroke="black" points="1839.2,-271.39 1845.46,-262.84 1835.23,-265.61 1839.2,-271.39"/>
</g>
<!-- genesis::initialize_core_resources_and_aptos_coin -->
<g id="node7" class="node">
<title>genesis::initialize_core_resources_and_aptos_coin</title>
<ellipse fill="none" stroke="black" cx="1845" cy="-536" rx="157.87" ry="18"/>
<text text-anchor="middle" x="1845" y="-532.3" font-family="Times,serif" font-size="14.00">initialize_core_resources_and_aptos_coin</text>
</g>
<!-- genesis::initialize_core_resources_and_aptos_coin&#45;&gt;create_account -->
<g id="edge6" class="edge">
<title>genesis::initialize_core_resources_and_aptos_coin&#45;&gt;create_account</title>
<path fill="none" stroke="black" d="M1905.83,-518.96C1924.18,-510.97 1942.28,-499.19 1953,-482 1996.52,-412.17 1930.17,-316.45 1892.73,-271.4"/>
<polygon fill="black" stroke="black" points="1895.58,-269.34 1886.43,-263.99 1890.25,-273.87 1895.58,-269.34"/>
</g>
<!-- genesis::initialize -->
<g id="node8" class="node">
<title>genesis::initialize</title>
<ellipse fill="none" stroke="black" cx="1279" cy="-464" rx="41.69" ry="18"/>
<text text-anchor="middle" x="1279" y="-460.3" font-family="Times,serif" font-size="14.00">initialize</text>
</g>
<!-- genesis::initialize&#45;&gt;create_framework_reserved_account -->
<g id="edge7" class="edge">
<title>genesis::initialize&#45;&gt;create_framework_reserved_account</title>
<path fill="none" stroke="black" d="M1238.97,-458.62C1143.68,-448.2 900.54,-421.61 754.7,-405.65"/>
<polygon fill="black" stroke="black" points="755.33,-402.2 745.01,-404.59 754.57,-409.16 755.33,-402.2"/>
</g>
<!-- staking_contract::create_stake_pool -->
<g id="node9" class="node">
<title>staking_contract::create_stake_pool</title>
<ellipse fill="none" stroke="black" cx="1045" cy="-162" rx="74.19" ry="18"/>
<text text-anchor="middle" x="1045" y="-158.3" font-family="Times,serif" font-size="14.00">create_stake_pool</text>
</g>
<!-- staking_contract::create_stake_pool&#45;&gt;create_resource_account -->
<g id="edge8" class="edge">
<title>staking_contract::create_stake_pool&#45;&gt;create_resource_account</title>
<path fill="none" stroke="black" d="M993.28,-148.73C944.99,-137.27 872.58,-120.09 819.31,-107.45"/>
<polygon fill="black" stroke="black" points="820.26,-104.07 809.72,-105.17 818.64,-110.88 820.26,-104.07"/>
</g>
<!-- vesting::create_vesting_contract_account -->
<g id="node10" class="node">
<title>vesting::create_vesting_contract_account</title>
<ellipse fill="none" stroke="black" cx="789" cy="-245" rx="126.18" ry="18"/>
<text text-anchor="middle" x="789" y="-241.3" font-family="Times,serif" font-size="14.00">create_vesting_contract_account</text>
</g>
<!-- vesting::create_vesting_contract_account&#45;&gt;create_resource_account -->
<g id="edge9" class="edge">
<title>vesting::create_vesting_contract_account&#45;&gt;create_resource_account</title>
<path fill="none" stroke="black" d="M872.06,-231.08C881.78,-226.25 890.53,-219.75 897,-211 916.83,-184.21 916.82,-162.8 897,-136 884.81,-119.52 866.71,-108.88 847.34,-102.06"/>
<polygon fill="black" stroke="black" points="848.51,-98.76 837.93,-99.1 846.42,-105.44 848.51,-98.76"/>
</g>
<!-- resource_account::create_resource_account -->
<g id="node11" class="node">
<title>resource_account::create_resource_account</title>
<ellipse fill="none" stroke="black" cx="125" cy="-162" rx="97.48" ry="18"/>
<text text-anchor="middle" x="125" y="-158.3" font-family="Times,serif" font-size="14.00">create_resource_account</text>
</g>
<!-- resource_account::create_resource_account&#45;&gt;create_resource_account -->
<g id="edge10" class="edge">
<title>resource_account::create_resource_account&#45;&gt;create_resource_account</title>
<path fill="none" stroke="black" d="M179.41,-146.7C196.18,-142.73 214.76,-138.75 232,-136 373.92,-113.38 539.65,-101.49 644.69,-95.73"/>
<polygon fill="black" stroke="black" points="644.62,-99.24 654.42,-95.21 644.24,-92.25 644.62,-99.24"/>
</g>
<!-- resource_account::create_resource_account_and_fund -->
<g id="node12" class="node">
<title>resource_account::create_resource_account_and_fund</title>
<ellipse fill="none" stroke="black" cx="750" cy="-162" rx="135.38" ry="18"/>
<text text-anchor="middle" x="750" y="-158.3" font-family="Times,serif" font-size="14.00">create_resource_account_and_fund</text>
</g>
<!-- resource_account::create_resource_account_and_fund&#45;&gt;create_resource_account -->
<g id="edge11" class="edge">
<title>resource_account::create_resource_account_and_fund&#45;&gt;create_resource_account</title>
<path fill="none" stroke="black" d="M750,-143.7C750,-136.41 750,-127.73 750,-119.54"/>
<polygon fill="black" stroke="black" points="753.5,-119.62 750,-109.62 746.5,-119.62 753.5,-119.62"/>
</g>
<!-- resource_account::create_resource_account_and_publish_package -->
<g id="node13" class="node">
<title>resource_account::create_resource_account_and_publish_package</title>
<ellipse fill="none" stroke="black" cx="419" cy="-162" rx="178.17" ry="18"/>
<text text-anchor="middle" x="419" y="-158.3" font-family="Times,serif" font-size="14.00">create_resource_account_and_publish_package</text>
</g>
<!-- resource_account::create_resource_account_and_publish_package&#45;&gt;create_resource_account -->
<g id="edge12" class="edge">
<title>resource_account::create_resource_account_and_publish_package&#45;&gt;create_resource_account</title>
<path fill="none" stroke="black" d="M493.7,-145.2C548.37,-133.64 622.2,-118.03 676.57,-106.53"/>
<polygon fill="black" stroke="black" points="676.98,-110.02 686.04,-104.53 675.53,-103.17 676.98,-110.02"/>
</g>
<!-- aptos_account::transfer -->
<g id="node14" class="node">
<title>aptos_account::transfer</title>
<ellipse fill="none" stroke="black" cx="2216" cy="-392" rx="37.89" ry="18"/>
<text text-anchor="middle" x="2216" y="-388.3" font-family="Times,serif" font-size="14.00">transfer</text>
</g>
<!-- aptos_account::transfer&#45;&gt;aptos_account::create_account -->
<g id="edge13" class="edge">
<title>aptos_account::transfer&#45;&gt;aptos_account::create_account</title>
<path fill="none" stroke="black" d="M2192.78,-377.44C2174.58,-366.81 2148.9,-351.81 2127.89,-339.54"/>
<polygon fill="black" stroke="black" points="2129.71,-336.56 2119.31,-334.53 2126.18,-342.6 2129.71,-336.56"/>
</g>
<!-- aptos_account::deposit_coins -->
<g id="node15" class="node">
<title>aptos_account::deposit_coins</title>
<ellipse fill="none" stroke="black" cx="2089" cy="-392" rx="59.29" ry="18"/>
<text text-anchor="middle" x="2089" y="-388.3" font-family="Times,serif" font-size="14.00">deposit_coins</text>
</g>
<!-- aptos_account::deposit_coins&#45;&gt;aptos_account::create_account -->
<g id="edge14" class="edge">
<title>aptos_account::deposit_coins&#45;&gt;aptos_account::create_account</title>
<path fill="none" stroke="black" d="M2089.47,-373.7C2089.69,-365.67 2089.96,-355.9 2090.21,-346.8"/>
<polygon fill="black" stroke="black" points="2093.71,-347.03 2090.48,-336.94 2086.71,-346.84 2093.71,-347.03"/>
</g>
<!-- genesis::create_accounts -->
<g id="node16" class="node">
<title>genesis::create_accounts</title>
<ellipse fill="none" stroke="black" cx="1578" cy="-392" rx="66.89" ry="18"/>
<text text-anchor="middle" x="1578" y="-388.3" font-family="Times,serif" font-size="14.00">create_accounts</text>
</g>
<!-- genesis::create_accounts&#45;&gt;genesis::create_account -->
<g id="edge15" class="edge">
<title>genesis::create_accounts&#45;&gt;genesis::create_account</title>
<path fill="none" stroke="black" d="M1615.08,-376.75C1645.26,-365.16 1688.04,-348.72 1720.68,-336.18"/>
<polygon fill="black" stroke="black" points="1721.84,-339.48 1729.92,-332.63 1719.33,-332.95 1721.84,-339.48"/>
</g>
<!-- genesis::create_initialize_validator -->
<g id="node17" class="node">
<title>genesis::create_initialize_validator</title>
<ellipse fill="none" stroke="black" cx="1768" cy="-392" rx="102.88" ry="18"/>
<text text-anchor="middle" x="1768" y="-388.3" font-family="Times,serif" font-size="14.00">create_initialize_validator</text>
</g>
<!-- genesis::create_initialize_validator&#45;&gt;genesis::create_account -->
<g id="edge16" class="edge">
<title>genesis::create_initialize_validator&#45;&gt;genesis::create_account</title>
<path fill="none" stroke="black" d="M1768,-373.7C1768,-365.67 1768,-355.9 1768,-346.8"/>
<polygon fill="black" stroke="black" points="1771.5,-346.94 1768,-336.94 1764.5,-346.94 1771.5,-346.94"/>
</g>
<!-- staking_contract::create_staking_contract -->
<g id="node24" class="node">
<title>staking_contract::create_staking_contract</title>
<ellipse fill="none" stroke="black" cx="1097" cy="-317" rx="94.48" ry="18"/>
<text text-anchor="middle" x="1097" y="-313.3" font-family="Times,serif" font-size="14.00">create_staking_contract</text>
</g>
<!-- genesis::create_initialize_validator&#45;&gt;staking_contract::create_staking_contract -->
<g id="edge30" class="edge">
<title>genesis::create_initialize_validator&#45;&gt;staking_contract::create_staking_contract</title>
<path fill="none" stroke="black" d="M1695.8,-378.79C1681.96,-376.86 1667.56,-375.13 1654,-374 1606.49,-370.03 1271.83,-374.94 1225,-366 1196.06,-360.47 1165.09,-349.02 1140.87,-338.69"/>
<polygon fill="black" stroke="black" points="1142.53,-335.6 1131.97,-334.8 1139.73,-342.01 1142.53,-335.6"/>
</g>
<!-- genesis::initialize_for_verification -->
<g id="node18" class="node">
<title>genesis::initialize_for_verification</title>
<ellipse fill="none" stroke="black" cx="1338" cy="-536" rx="100.98" ry="18"/>
<text text-anchor="middle" x="1338" y="-532.3" font-family="Times,serif" font-size="14.00">initialize_for_verification</text>
</g>
<!-- genesis::initialize_for_verification&#45;&gt;genesis::initialize -->
<g id="edge17" class="edge">
<title>genesis::initialize_for_verification&#45;&gt;genesis::initialize</title>
<path fill="none" stroke="black" d="M1323.42,-517.7C1316.35,-509.32 1307.74,-499.1 1299.99,-489.9"/>
<polygon fill="black" stroke="black" points="1302.7,-487.69 1293.58,-482.3 1297.35,-492.2 1302.7,-487.69"/>
</g>
<!-- genesis::initialize_for_verification&#45;&gt;genesis::create_accounts -->
<g id="edge22" class="edge">
<title>genesis::initialize_for_verification&#45;&gt;genesis::create_accounts</title>
<path fill="none" stroke="black" d="M1408.84,-522.8C1472.05,-511.25 1556.25,-493.94 1567,-482 1581.5,-465.91 1583.48,-441.02 1582.28,-421.65"/>
<polygon fill="black" stroke="black" points="1585.79,-421.56 1581.34,-411.94 1578.82,-422.23 1585.79,-421.56"/>
</g>
<!-- genesis::create_initialize_validators_with_commission -->
<g id="node23" class="node">
<title>genesis::create_initialize_validators_with_commission</title>
<ellipse fill="none" stroke="black" cx="1770" cy="-464" rx="173.57" ry="18"/>
<text text-anchor="middle" x="1770" y="-460.3" font-family="Times,serif" font-size="14.00">create_initialize_validators_with_commission</text>
</g>
<!-- genesis::initialize_for_verification&#45;&gt;genesis::create_initialize_validators_with_commission -->
<g id="edge28" class="edge">
<title>genesis::initialize_for_verification&#45;&gt;genesis::create_initialize_validators_with_commission</title>
<path fill="none" stroke="black" d="M1410.79,-523.2C1481.41,-511.76 1589.21,-494.3 1668.29,-481.48"/>
<polygon fill="black" stroke="black" points="1668.45,-485 1677.76,-479.95 1667.33,-478.09 1668.45,-485"/>
</g>
<!-- genesis::create_employee_validators -->
<g id="node25" class="node">
<title>genesis::create_employee_validators</title>
<ellipse fill="none" stroke="black" cx="1448" cy="-464" rx="109.68" ry="18"/>
<text text-anchor="middle" x="1448" y="-460.3" font-family="Times,serif" font-size="14.00">create_employee_validators</text>
</g>
<!-- genesis::initialize_for_verification&#45;&gt;genesis::create_employee_validators -->
<g id="edge31" class="edge">
<title>genesis::initialize_for_verification&#45;&gt;genesis::create_employee_validators</title>
<path fill="none" stroke="black" d="M1364.35,-518.23C1378.66,-509.12 1396.58,-497.72 1412.15,-487.82"/>
<polygon fill="black" stroke="black" points="1413.65,-491.01 1420.21,-482.69 1409.89,-485.1 1413.65,-491.01"/>
</g>
<!-- staking_contract::create_staking_contract_with_coins -->
<g id="node19" class="node">
<title>staking_contract::create_staking_contract_with_coins</title>
<ellipse fill="none" stroke="black" cx="1076" cy="-245" rx="137.28" ry="18"/>
<text text-anchor="middle" x="1076" y="-241.3" font-family="Times,serif" font-size="14.00">create_staking_contract_with_coins</text>
</g>
<!-- staking_contract::create_staking_contract_with_coins&#45;&gt;staking_contract::create_stake_pool -->
<g id="edge18" class="edge">
<title>staking_contract::create_staking_contract_with_coins&#45;&gt;staking_contract::create_stake_pool</title>
<path fill="none" stroke="black" d="M1069.43,-226.82C1065.4,-216.3 1060.15,-202.59 1055.55,-190.57"/>
<polygon fill="black" stroke="black" points="1058.95,-189.66 1052.11,-181.57 1052.41,-192.16 1058.95,-189.66"/>
</g>
<!-- vesting::create_vesting_contract -->
<g id="node20" class="node">
<title>vesting::create_vesting_contract</title>
<ellipse fill="none" stroke="black" cx="821" cy="-317" rx="94.48" ry="18"/>
<text text-anchor="middle" x="821" y="-313.3" font-family="Times,serif" font-size="14.00">create_vesting_contract</text>
</g>
<!-- vesting::create_vesting_contract&#45;&gt;vesting::create_vesting_contract_account -->
<g id="edge19" class="edge">
<title>vesting::create_vesting_contract&#45;&gt;vesting::create_vesting_contract_account</title>
<path fill="none" stroke="black" d="M813.09,-298.7C809.6,-291.07 805.42,-281.92 801.52,-273.4"/>
<polygon fill="black" stroke="black" points="804.79,-272.12 797.45,-264.48 798.42,-275.03 804.79,-272.12"/>
</g>
<!-- vesting::create_vesting_contract&#45;&gt;staking_contract::create_staking_contract_with_coins -->
<g id="edge25" class="edge">
<title>vesting::create_vesting_contract&#45;&gt;staking_contract::create_staking_contract_with_coins</title>
<path fill="none" stroke="black" d="M873.22,-301.67C912.01,-291.02 965.28,-276.39 1007.49,-264.81"/>
<polygon fill="black" stroke="black" points="1008.35,-268.2 1017.06,-262.18 1006.49,-261.45 1008.35,-268.2"/>
</g>
<!-- aptos_account::batch_transfer -->
<g id="node21" class="node">
<title>aptos_account::batch_transfer</title>
<ellipse fill="none" stroke="black" cx="2227" cy="-464" rx="61.19" ry="18"/>
<text text-anchor="middle" x="2227" y="-460.3" font-family="Times,serif" font-size="14.00">batch_transfer</text>
</g>
<!-- aptos_account::batch_transfer&#45;&gt;aptos_account::transfer -->
<g id="edge20" class="edge">
<title>aptos_account::batch_transfer&#45;&gt;aptos_account::transfer</title>
<path fill="none" stroke="black" d="M2224.28,-445.7C2223.12,-438.32 2221.74,-429.52 2220.44,-421.25"/>
<polygon fill="black" stroke="black" points="2223.93,-420.93 2218.92,-411.6 2217.02,-422.02 2223.93,-420.93"/>
</g>
<!-- aptos_account::transfer_coins -->
<g id="node22" class="node">
<title>aptos_account::transfer_coins</title>
<ellipse fill="none" stroke="black" cx="2087" cy="-464" rx="60.39" ry="18"/>
<text text-anchor="middle" x="2087" y="-460.3" font-family="Times,serif" font-size="14.00">transfer_coins</text>
</g>
<!-- aptos_account::transfer_coins&#45;&gt;aptos_account::deposit_coins -->
<g id="edge21" class="edge">
<title>aptos_account::transfer_coins&#45;&gt;aptos_account::deposit_coins</title>
<path fill="none" stroke="black" d="M2087.49,-445.7C2087.7,-438.41 2087.95,-429.73 2088.18,-421.54"/>
<polygon fill="black" stroke="black" points="2091.68,-421.71 2088.47,-411.62 2084.68,-421.51 2091.68,-421.71"/>
</g>
<!-- genesis::create_initialize_validators_with_commission&#45;&gt;genesis::create_initialize_validator -->
<g id="edge23" class="edge">
<title>genesis::create_initialize_validators_with_commission&#45;&gt;genesis::create_initialize_validator</title>
<path fill="none" stroke="black" d="M1769.51,-445.7C1769.3,-438.41 1769.05,-429.73 1768.82,-421.54"/>
<polygon fill="black" stroke="black" points="1772.32,-421.51 1768.53,-411.62 1765.32,-421.71 1772.32,-421.51"/>
</g>
<!-- staking_contract::create_staking_contract&#45;&gt;staking_contract::create_staking_contract_with_coins -->
<g id="edge24" class="edge">
<title>staking_contract::create_staking_contract&#45;&gt;staking_contract::create_staking_contract_with_coins</title>
<path fill="none" stroke="black" d="M1091.81,-298.7C1089.57,-291.24 1086.9,-282.32 1084.39,-273.97"/>
<polygon fill="black" stroke="black" points="1087.79,-273.13 1081.57,-264.55 1081.09,-275.14 1087.79,-273.13"/>
</g>
<!-- genesis::create_employee_validators&#45;&gt;vesting::create_vesting_contract -->
<g id="edge26" class="edge">
<title>genesis::create_employee_validators&#45;&gt;vesting::create_vesting_contract</title>
<path fill="none" stroke="black" d="M1370.5,-450.93C1246.35,-431.19 1008.57,-391.65 927,-366 904.89,-359.05 881.3,-348.68 862,-339.36"/>
<polygon fill="black" stroke="black" points="863.64,-336.27 853.12,-334.99 860.54,-342.55 863.64,-336.27"/>
</g>
<!-- aptos_account::batch_transfer_coins -->
<g id="node26" class="node">
<title>aptos_account::batch_transfer_coins</title>
<ellipse fill="none" stroke="black" cx="2111" cy="-536" rx="83.69" ry="18"/>
<text text-anchor="middle" x="2111" y="-532.3" font-family="Times,serif" font-size="14.00">batch_transfer_coins</text>
</g>
<!-- aptos_account::batch_transfer_coins&#45;&gt;aptos_account::transfer_coins -->
<g id="edge27" class="edge">
<title>aptos_account::batch_transfer_coins&#45;&gt;aptos_account::transfer_coins</title>
<path fill="none" stroke="black" d="M2105.07,-517.7C2102.51,-510.24 2099.45,-501.32 2096.59,-492.97"/>
<polygon fill="black" stroke="black" points="2099.91,-491.86 2093.36,-483.54 2093.29,-494.13 2099.91,-491.86"/>
</g>
<!-- genesis::create_initialize_validators -->
<g id="node27" class="node">
<title>genesis::create_initialize_validators</title>
<ellipse fill="none" stroke="black" cx="1563" cy="-536" rx="105.88" ry="18"/>
<text text-anchor="middle" x="1563" y="-532.3" font-family="Times,serif" font-size="14.00">create_initialize_validators</text>
</g>
<!-- genesis::create_initialize_validators&#45;&gt;genesis::create_initialize_validators_with_commission -->
<g id="edge29" class="edge">
<title>genesis::create_initialize_validators&#45;&gt;genesis::create_initialize_validators_with_commission</title>
<path fill="none" stroke="black" d="M1609.2,-519.38C1638.96,-509.31 1677.95,-496.13 1710.08,-485.26"/>
<polygon fill="black" stroke="black" points="1710.91,-488.68 1719.26,-482.16 1708.67,-482.05 1710.91,-488.68"/>
</g>
</g>
</svg>
