<?xml version="1.0" encoding="UTF-8" standalone="no"?>
<!DOCTYPE svg PUBLIC "-//W3C//DTD SVG 1.1//EN"
 "http://www.w3.org/Graphics/SVG/1.1/DTD/svg11.dtd">
<!-- Generated by graphviz version 7.0.4 (20221203.1631)
 -->
<!-- Title: G Pages: 1 -->
<svg width="1328pt" height="537pt"
 viewBox="0.00 0.00 1328.00 537.00" xmlns="http://www.w3.org/2000/svg" xmlns:xlink="http://www.w3.org/1999/xlink">
<g id="graph0" class="graph" transform="scale(1 1) rotate(0) translate(4 533)">
<title>G</title>
<polygon fill="white" stroke="none" points="-4,4 -4,-533 1324,-533 1324,4 -4,4"/>
<g id="clust1" class="cluster">
<title>cluster_staking_contract</title>
<polygon fill="none" stroke="black" points="49,-64 49,-294 339,-294 339,-64 49,-64"/>
<text text-anchor="middle" x="194" y="-278.8" font-family="Times,serif" font-size="14.00">staking_contract</text>
</g>
<g id="clust2" class="cluster">
<title>cluster_vesting</title>
<polygon fill="none" stroke="black" points="347,-147 347,-294 615,-294 615,-147 347,-147"/>
<text text-anchor="middle" x="481" y="-278.8" font-family="Times,serif" font-size="14.00">vesting</text>
</g>
<g id="clust3" class="cluster">
<title>cluster_resource_account</title>
<polygon fill="none" stroke="black" points="439,-64 439,-139 1312,-139 1312,-64 439,-64"/>
<text text-anchor="middle" x="875.5" y="-123.8" font-family="Times,serif" font-size="14.00">resource_account</text>
</g>
<g id="clust4" class="cluster">
<title>cluster_genesis</title>
<polygon fill="none" stroke="black" points="8,-302 8,-521 609,-521 609,-302 8,-302"/>
<text text-anchor="middle" x="308.5" y="-505.8" font-family="Times,serif" font-size="14.00">genesis</text>
</g>
<!-- create_resource_account -->
<g id="node1" class="node">
<title>create_resource_account</title>
<ellipse fill="none" stroke="black" cx="625" cy="-18" rx="97.48" ry="18"/>
<text text-anchor="middle" x="625" y="-14.3" font-family="Times,serif" font-size="14.00">create_resource_account</text>
</g>
<!-- staking_contract::create_stake_pool -->
<g id="node2" class="node">
<title>staking_contract::create_stake_pool</title>
<ellipse fill="none" stroke="black" cx="225" cy="-90" rx="74.19" ry="18"/>
<text text-anchor="middle" x="225" y="-86.3" font-family="Times,serif" font-size="14.00">create_stake_pool</text>
</g>
<!-- staking_contract::create_stake_pool&#45;&gt;create_resource_account -->
<g id="edge1" class="edge">
<title>staking_contract::create_stake_pool&#45;&gt;create_resource_account</title>
<path fill="none" stroke="black" d="M284.02,-78.67C353.1,-66.58 467.83,-46.5 544.9,-33.02"/>
<polygon fill="black" stroke="black" points="545.25,-36.51 554.5,-31.34 544.05,-29.61 545.25,-36.51"/>
</g>
<!-- vesting::create_vesting_contract_account -->
<g id="node3" class="node">
<title>vesting::create_vesting_contract_account</title>
<ellipse fill="none" stroke="black" cx="481" cy="-173" rx="126.18" ry="18"/>
<text text-anchor="middle" x="481" y="-169.3" font-family="Times,serif" font-size="14.00">create_vesting_contract_account</text>
</g>
<!-- vesting::create_vesting_contract_account&#45;&gt;create_resource_account -->
<g id="edge2" class="edge">
<title>vesting::create_vesting_contract_account&#45;&gt;create_resource_account</title>
<path fill="none" stroke="black" d="M448.88,-155.12C443.28,-150.66 438.23,-145.3 435,-139 419.78,-109.35 414.32,-90.15 435,-64 447.67,-47.98 490.5,-37.07 532.29,-30.01"/>
<polygon fill="black" stroke="black" points="532.64,-33.5 541.95,-28.45 531.52,-26.59 532.64,-33.5"/>
</g>
<!-- resource_account::create_resource_account -->
<g id="node4" class="node">
<title>resource_account::create_resource_account</title>
<ellipse fill="none" stroke="black" cx="1207" cy="-90" rx="97.48" ry="18"/>
<text text-anchor="middle" x="1207" y="-86.3" font-family="Times,serif" font-size="14.00">create_resource_account</text>
</g>
<!-- resource_account::create_resource_account&#45;&gt;create_resource_account -->
<g id="edge3" class="edge">
<title>resource_account::create_resource_account&#45;&gt;create_resource_account</title>
<path fill="none" stroke="black" d="M1152.3,-74.72C1135.61,-70.77 1117.13,-66.8 1100,-64 973,-43.25 825.22,-31.11 728.65,-24.77"/>
<polygon fill="black" stroke="black" points="729.14,-21.3 718.93,-24.15 728.68,-28.28 729.14,-21.3"/>
</g>
<!-- resource_account::create_resource_account_and_fund -->
<g id="node5" class="node">
<title>resource_account::create_resource_account_and_fund</title>
<ellipse fill="none" stroke="black" cx="956" cy="-90" rx="135.38" ry="18"/>
<text text-anchor="middle" x="956" y="-86.3" font-family="Times,serif" font-size="14.00">create_resource_account_and_fund</text>
</g>
<!-- resource_account::create_resource_account_and_fund&#45;&gt;create_resource_account -->
<g id="edge4" class="edge">
<title>resource_account::create_resource_account_and_fund&#45;&gt;create_resource_account</title>
<path fill="none" stroke="black" d="M886.21,-74.24C831.08,-62.58 754.38,-46.36 698.35,-34.51"/>
<polygon fill="black" stroke="black" points="699.42,-31.16 688.92,-32.52 697.98,-38.01 699.42,-31.16"/>
</g>
<!-- resource_account::create_resource_account_and_publish_package -->
<g id="node6" class="node">
<title>resource_account::create_resource_account_and_publish_package</title>
<ellipse fill="none" stroke="black" cx="625" cy="-90" rx="178.17" ry="18"/>
<text text-anchor="middle" x="625" y="-86.3" font-family="Times,serif" font-size="14.00">create_resource_account_and_publish_package</text>
</g>
<!-- resource_account::create_resource_account_and_publish_package&#45;&gt;create_resource_account -->
<g id="edge5" class="edge">
<title>resource_account::create_resource_account_and_publish_package&#45;&gt;create_resource_account</title>
<path fill="none" stroke="black" d="M625,-71.7C625,-64.41 625,-55.73 625,-47.54"/>
<polygon fill="black" stroke="black" points="628.5,-47.62 625,-37.62 621.5,-47.62 628.5,-47.62"/>
</g>
<!-- staking_contract::create_staking_contract_with_coins -->
<g id="node7" class="node">
<title>staking_contract::create_staking_contract_with_coins</title>
<ellipse fill="none" stroke="black" cx="194" cy="-173" rx="137.28" ry="18"/>
<text text-anchor="middle" x="194" y="-169.3" font-family="Times,serif" font-size="14.00">create_staking_contract_with_coins</text>
</g>
<!-- staking_contract::create_staking_contract_with_coins&#45;&gt;staking_contract::create_stake_pool -->
<g id="edge6" class="edge">
<title>staking_contract::create_staking_contract_with_coins&#45;&gt;staking_contract::create_stake_pool</title>
<path fill="none" stroke="black" d="M200.57,-154.82C204.6,-144.3 209.85,-130.59 214.45,-118.57"/>
<polygon fill="black" stroke="black" points="217.59,-120.16 217.89,-109.57 211.05,-117.66 217.59,-120.16"/>
</g>
<!-- vesting::create_vesting_contract -->
<g id="node8" class="node">
<title>vesting::create_vesting_contract</title>
<ellipse fill="none" stroke="black" cx="481" cy="-245" rx="94.48" ry="18"/>
<text text-anchor="middle" x="481" y="-241.3" font-family="Times,serif" font-size="14.00">create_vesting_contract</text>
</g>
<!-- vesting::create_vesting_contract&#45;&gt;vesting::create_vesting_contract_account -->
<g id="edge7" class="edge">
<title>vesting::create_vesting_contract&#45;&gt;vesting::create_vesting_contract_account</title>
<path fill="none" stroke="black" d="M481,-226.7C481,-219.41 481,-210.73 481,-202.54"/>
<polygon fill="black" stroke="black" points="484.5,-202.62 481,-192.62 477.5,-202.62 484.5,-202.62"/>
</g>
<!-- vesting::create_vesting_contract&#45;&gt;staking_contract::create_staking_contract_with_coins -->
<g id="edge9" class="edge">
<title>vesting::create_vesting_contract&#45;&gt;staking_contract::create_staking_contract_with_coins</title>
<path fill="none" stroke="black" d="M424.3,-230.17C379.59,-219.27 316.87,-203.97 268.18,-192.09"/>
<polygon fill="black" stroke="black" points="269.08,-188.71 258.54,-189.74 267.43,-195.51 269.08,-188.71"/>
</g>
<!-- staking_contract::create_staking_contract -->
<g id="node9" class="node">
<title>staking_contract::create_staking_contract</title>
<ellipse fill="none" stroke="black" cx="193" cy="-245" rx="94.48" ry="18"/>
<text text-anchor="middle" x="193" y="-241.3" font-family="Times,serif" font-size="14.00">create_staking_contract</text>
</g>
<!-- staking_contract::create_staking_contract&#45;&gt;staking_contract::create_staking_contract_with_coins -->
<g id="edge8" class="edge">
<title>staking_contract::create_staking_contract&#45;&gt;staking_contract::create_staking_contract_with_coins</title>
<path fill="none" stroke="black" d="M193.25,-226.7C193.35,-219.41 193.48,-210.73 193.59,-202.54"/>
<polygon fill="black" stroke="black" points="197.09,-202.67 193.73,-192.62 190.09,-202.57 197.09,-202.67"/>
</g>
<!-- genesis::create_employee_validators -->
<g id="node10" class="node">
<title>genesis::create_employee_validators</title>
<ellipse fill="none" stroke="black" cx="491" cy="-400" rx="109.68" ry="18"/>
<text text-anchor="middle" x="491" y="-396.3" font-family="Times,serif" font-size="14.00">create_employee_validators</text>
</g>
<!-- genesis::create_employee_validators&#45;&gt;vesting::create_vesting_contract -->
<g id="edge10" class="edge">
<title>genesis::create_employee_validators&#45;&gt;vesting::create_vesting_contract</title>
<path fill="none" stroke="black" d="M489.87,-381.75C488.17,-355.69 484.92,-306.01 482.86,-274.52"/>
<polygon fill="black" stroke="black" points="486.38,-274.69 482.24,-264.94 479.4,-275.14 486.38,-274.69"/>
</g>
<!-- genesis::create_initialize_validator -->
<g id="node11" class="node">
<title>genesis::create_initialize_validator</title>
<ellipse fill="none" stroke="black" cx="191" cy="-328" rx="102.88" ry="18"/>
<text text-anchor="middle" x="191" y="-324.3" font-family="Times,serif" font-size="14.00">create_initialize_validator</text>
</g>
<!-- genesis::create_initialize_validator&#45;&gt;staking_contract::create_staking_contract -->
<g id="edge11" class="edge">
<title>genesis::create_initialize_validator&#45;&gt;staking_contract::create_staking_contract</title>
<path fill="none" stroke="black" d="M191.42,-309.82C191.67,-299.69 192,-286.6 192.29,-274.92"/>
<polygon fill="black" stroke="black" points="195.78,-275.03 192.53,-264.95 188.79,-274.86 195.78,-275.03"/>
</g>
<!-- genesis::initialize_for_verification -->
<g id="node12" class="node">
<title>genesis::initialize_for_verification</title>
<ellipse fill="none" stroke="black" cx="453" cy="-472" rx="100.98" ry="18"/>
<text text-anchor="middle" x="453" y="-468.3" font-family="Times,serif" font-size="14.00">initialize_for_verification</text>
</g>
<!-- genesis::initialize_for_verification&#45;&gt;genesis::create_employee_validators -->
<g id="edge12" class="edge">
<title>genesis::initialize_for_verification&#45;&gt;genesis::create_employee_validators</title>
<path fill="none" stroke="black" d="M462.39,-453.7C466.58,-445.98 471.61,-436.71 476.28,-428.11"/>
<polygon fill="black" stroke="black" points="479.3,-429.89 480.99,-419.43 473.15,-426.55 479.3,-429.89"/>
</g>
<!-- genesis::create_initialize_validators_with_commission -->
<g id="node13" class="node">
<title>genesis::create_initialize_validators_with_commission</title>
<ellipse fill="none" stroke="black" cx="190" cy="-400" rx="173.57" ry="18"/>
<text text-anchor="middle" x="190" y="-396.3" font-family="Times,serif" font-size="14.00">create_initialize_validators_with_commission</text>
</g>
<!-- genesis::initialize_for_verification&#45;&gt;genesis::create_initialize_validators_with_commission -->
<g id="edge14" class="edge">
<title>genesis::initialize_for_verification&#45;&gt;genesis::create_initialize_validators_with_commission</title>
<path fill="none" stroke="black" d="M398.51,-456.5C358.92,-445.96 304.96,-431.6 261.85,-420.12"/>
<polygon fill="black" stroke="black" points="262.89,-416.78 252.32,-417.59 261.08,-423.54 262.89,-416.78"/>
</g>
<!-- genesis::create_initialize_validators_with_commission&#45;&gt;genesis::create_initialize_validator -->
<g id="edge13" class="edge">
<title>genesis::create_initialize_validators_with_commission&#45;&gt;genesis::create_initialize_validator</title>
<path fill="none" stroke="black" d="M190.25,-381.7C190.35,-374.41 190.48,-365.73 190.59,-357.54"/>
<polygon fill="black" stroke="black" points="194.09,-357.67 190.73,-347.62 187.09,-357.57 194.09,-357.67"/>
</g>
<!-- genesis::create_initialize_validators -->
<g id="node14" class="node">
<title>genesis::create_initialize_validators</title>
<ellipse fill="none" stroke="black" cx="190" cy="-472" rx="105.88" ry="18"/>
<text text-anchor="middle" x="190" y="-468.3" font-family="Times,serif" font-size="14.00">create_initialize_validators</text>
</g>
<!-- genesis::create_initialize_validators&#45;&gt;genesis::create_initialize_validators_with_commission -->
<g id="edge15" class="edge">
<title>genesis::create_initialize_validators&#45;&gt;genesis::create_initialize_validators_with_commission</title>
<path fill="none" stroke="black" d="M190,-453.7C190,-446.41 190,-437.73 190,-429.54"/>
<polygon fill="black" stroke="black" points="193.5,-429.62 190,-419.62 186.5,-429.62 193.5,-429.62"/>
</g>
</g>
</svg>
