<?xml version="1.0" encoding="UTF-8" standalone="no"?>
<!DOCTYPE svg PUBLIC "-//W3C//DTD SVG 1.1//EN"
 "http://www.w3.org/Graphics/SVG/1.1/DTD/svg11.dtd">
<!-- Generated by graphviz version 7.0.4 (20221203.1631)
 -->
<!-- Title: G Pages: 1 -->
<svg width="3933pt" height="376pt"
 viewBox="0.00 0.00 3932.60 376.00" xmlns="http://www.w3.org/2000/svg" xmlns:xlink="http://www.w3.org/1999/xlink">
<g id="graph0" class="graph" transform="scale(1 1) rotate(0) translate(4 372)">
<title>G</title>
<polygon fill="white" stroke="none" points="-4,4 -4,-372 3928.6,-372 3928.6,4 -4,4"/>
<g id="clust1" class="cluster">
<title>cluster_signer</title>
<polygon fill="none" stroke="black" points="136,-174 136,-324 286,-324 286,-174 136,-174"/>
<text text-anchor="middle" x="211" y="-308.8" font-family="Times,serif" font-size="14.00">signer</text>
</g>
<g id="clust2" class="cluster">
<title>cluster_error</title>
<polygon fill="none" stroke="black" points="8,-8 8,-166 432,-166 432,-8 8,-8"/>
<text text-anchor="middle" x="220" y="-150.8" font-family="Times,serif" font-size="14.00">error</text>
</g>
<g id="clust3" class="cluster">
<title>cluster_table</title>
<polygon fill="none" stroke="black" points="3347,-174 3347,-324 3707,-324 3707,-174 3347,-174"/>
<text text-anchor="middle" x="3527" y="-308.8" font-family="Times,serif" font-size="14.00">table</text>
</g>
<g id="clust4" class="cluster">
<title>cluster_ed25519</title>
<polygon fill="none" stroke="black" points="440,-91 440,-249 1783,-249 1783,-91 440,-91"/>
<text text-anchor="middle" x="1111.5" y="-233.8" font-family="Times,serif" font-size="14.00">ed25519</text>
</g>
<g id="clust5" class="cluster">
<title>cluster_multi_ed25519</title>
<polygon fill="none" stroke="black" points="1995,-91 1995,-249 3145,-249 3145,-91 1995,-91"/>
<text text-anchor="middle" x="2570" y="-233.8" font-family="Times,serif" font-size="14.00">multi_ed25519</text>
</g>
<g id="clust6" class="cluster">
<title>cluster_from_bcs</title>
<polygon fill="none" stroke="black" points="3715,-174 3715,-324 3833,-324 3833,-174 3715,-174"/>
<text text-anchor="middle" x="3774" y="-308.8" font-family="Times,serif" font-size="14.00">from_bcs</text>
</g>
<g id="clust7" class="cluster">
<title>cluster_event</title>
<polygon fill="none" stroke="black" points="3153,-91 3153,-249 3339,-249 3339,-91 3153,-91"/>
<text text-anchor="middle" x="3246" y="-233.8" font-family="Times,serif" font-size="14.00">event</text>
</g>
<g id="clust8" class="cluster">
<title>cluster_bcs</title>
<polygon fill="none" stroke="black" points="1891,-91 1891,-166 1987,-166 1987,-91 1891,-91"/>
<text text-anchor="middle" x="1939" y="-150.8" font-family="Times,serif" font-size="14.00">bcs</text>
</g>
<g id="clust9" class="cluster">
<title>cluster_hash</title>
<polygon fill="none" stroke="black" points="2107,-8 2107,-83 2211,-83 2211,-8 2107,-8"/>
<text text-anchor="middle" x="2159" y="-67.8" font-family="Times,serif" font-size="14.00">hash</text>
</g>
<g id="clust10" class="cluster">
<title>cluster_type_info</title>
<polygon fill="none" stroke="black" points="1791,-91 1791,-166 1883,-166 1883,-91 1791,-91"/>
<text text-anchor="middle" x="1837" y="-150.8" font-family="Times,serif" font-size="14.00">type_info</text>
</g>
<!-- rotate_authentication_key -->
<g id="node1" class="node">
<title>rotate_authentication_key</title>
<ellipse fill="none" stroke="black" cx="2394" cy="-350" rx="102.08" ry="18"/>
<text text-anchor="middle" x="2394" y="-346.3" font-family="Times,serif" font-size="14.00">rotate_authentication_key</text>
</g>
<!-- signer::address_of -->
<g id="node2" class="node">
<title>signer::address_of</title>
<ellipse fill="none" stroke="black" cx="220" cy="-275" rx="48.99" ry="18"/>
<text text-anchor="middle" x="220" y="-271.3" font-family="Times,serif" font-size="14.00">address_of</text>
</g>
<!-- rotate_authentication_key&#45;&gt;signer::address_of -->
<g id="edge1" class="edge">
<title>rotate_authentication_key&#45;&gt;signer::address_of</title>
<path fill="none" stroke="black" d="M2292.04,-348.57C1877.76,-346.73 340.25,-338.92 292,-324 275.48,-318.89 259.27,-308.68 246.42,-298.98"/>
<polygon fill="black" stroke="black" points="248.91,-296.48 238.89,-293.03 244.57,-301.98 248.91,-296.48"/>
</g>
<!-- error::invalid_argument -->
<g id="node3" class="node">
<title>error::invalid_argument</title>
<ellipse fill="none" stroke="black" cx="351" cy="-117" rx="73.39" ry="18"/>
<text text-anchor="middle" x="351" y="-113.3" font-family="Times,serif" font-size="14.00">invalid_argument</text>
</g>
<!-- rotate_authentication_key&#45;&gt;error::invalid_argument -->
<g id="edge2" class="edge">
<title>rotate_authentication_key&#45;&gt;error::invalid_argument</title>
<path fill="none" stroke="black" d="M2292.04,-348.35C1965.48,-346.14 958.27,-338.25 812,-324 625.02,-305.79 538.58,-371.34 396,-249 380.25,-235.48 365.27,-180.62 357.2,-146.32"/>
<polygon fill="black" stroke="black" points="360.62,-145.59 354.97,-136.63 353.8,-147.16 360.62,-145.59"/>
</g>
<!-- error::not_found -->
<g id="node4" class="node">
<title>error::not_found</title>
<ellipse fill="none" stroke="black" cx="213" cy="-117" rx="46.59" ry="18"/>
<text text-anchor="middle" x="213" y="-113.3" font-family="Times,serif" font-size="14.00">not_found</text>
</g>
<!-- rotate_authentication_key&#45;&gt;error::not_found -->
<g id="edge3" class="edge">
<title>rotate_authentication_key&#45;&gt;error::not_found</title>
<path fill="none" stroke="black" d="M2291.85,-349.07C1890.95,-349.18 445.16,-347.92 404,-324 370.59,-304.58 378.87,-282.72 360,-249 341.55,-216.03 350.79,-195.9 320,-174 301.3,-160.7 289.83,-175.61 269,-166 256.71,-160.33 245.03,-151.17 235.55,-142.36"/>
<polygon fill="black" stroke="black" points="238.17,-140.03 228.58,-135.54 233.27,-145.03 238.17,-140.03"/>
</g>
<!-- error::unauthenticated -->
<g id="node5" class="node">
<title>error::unauthenticated</title>
<ellipse fill="none" stroke="black" cx="82" cy="-117" rx="66.09" ry="18"/>
<text text-anchor="middle" x="82" y="-113.3" font-family="Times,serif" font-size="14.00">unauthenticated</text>
</g>
<!-- rotate_authentication_key&#45;&gt;error::unauthenticated -->
<g id="edge4" class="edge">
<title>rotate_authentication_key&#45;&gt;error::unauthenticated</title>
<path fill="none" stroke="black" d="M2291.64,-349.15C1884.72,-349.56 401.64,-349.33 360,-324 327.73,-304.36 335.93,-283.26 320,-249 304.86,-216.45 319.11,-195.01 290,-174 265.99,-156.67 185.15,-175.16 157,-166 140.44,-160.61 123.93,-150.67 110.63,-141.22"/>
<polygon fill="black" stroke="black" points="112.9,-138.55 102.78,-135.41 108.73,-144.17 112.9,-138.55"/>
</g>
<!-- table::contains -->
<g id="node6" class="node">
<title>table::contains</title>
<ellipse fill="none" stroke="black" cx="3614" cy="-275" rx="40.09" ry="18"/>
<text text-anchor="middle" x="3614" y="-271.3" font-family="Times,serif" font-size="14.00">contains</text>
</g>
<!-- rotate_authentication_key&#45;&gt;table::contains -->
<g id="edge5" class="edge">
<title>rotate_authentication_key&#45;&gt;table::contains</title>
<path fill="none" stroke="black" d="M2495.82,-348.25C2766.84,-346.06 3488.63,-338.87 3538,-324 3555.73,-318.66 3573.34,-307.96 3587.15,-298.02"/>
<polygon fill="black" stroke="black" points="3588.94,-301.05 3594.84,-292.24 3584.74,-295.45 3588.94,-301.05"/>
</g>
<!-- table::remove -->
<g id="node7" class="node">
<title>table::remove</title>
<ellipse fill="none" stroke="black" cx="3491" cy="-275" rx="37.89" ry="18"/>
<text text-anchor="middle" x="3491" y="-271.3" font-family="Times,serif" font-size="14.00">remove</text>
</g>
<!-- rotate_authentication_key&#45;&gt;table::remove -->
<g id="edge6" class="edge">
<title>rotate_authentication_key&#45;&gt;table::remove</title>
<path fill="none" stroke="black" d="M2495.74,-348.17C2747.33,-345.89 3381.57,-338.71 3425,-324 3440.25,-318.84 3454.96,-308.8 3466.61,-299.23"/>
<polygon fill="black" stroke="black" points="3468.83,-301.94 3474.11,-292.76 3464.25,-296.65 3468.83,-301.94"/>
</g>
<!-- table::add -->
<g id="node8" class="node">
<title>table::add</title>
<ellipse fill="none" stroke="black" cx="3389" cy="-275" rx="27" ry="18"/>
<text text-anchor="middle" x="3389" y="-271.3" font-family="Times,serif" font-size="14.00">add</text>
</g>
<!-- rotate_authentication_key&#45;&gt;table::add -->
<g id="edge7" class="edge">
<title>rotate_authentication_key&#45;&gt;table::add</title>
<path fill="none" stroke="black" d="M2495.23,-347.08C2613.21,-344.29 2813.99,-337.86 2986,-324 3121.05,-313.12 3280.6,-291.5 3351.64,-281.42"/>
<polygon fill="black" stroke="black" points="3351.76,-284.94 3361.17,-280.06 3350.77,-278.01 3351.76,-284.94"/>
</g>
<!-- ed25519::new_unvalidated_public_key_from_bytes -->
<g id="node9" class="node">
<title>ed25519::new_unvalidated_public_key_from_bytes</title>
<ellipse fill="none" stroke="black" cx="607" cy="-200" rx="159.47" ry="18"/>
<text text-anchor="middle" x="607" y="-196.3" font-family="Times,serif" font-size="14.00">new_unvalidated_public_key_from_bytes</text>
</g>
<!-- rotate_authentication_key&#45;&gt;ed25519::new_unvalidated_public_key_from_bytes -->
<g id="edge8" class="edge">
<title>rotate_authentication_key&#45;&gt;ed25519::new_unvalidated_public_key_from_bytes</title>
<path fill="none" stroke="black" d="M2291.62,-348.98C2040.65,-348.6 1399.83,-345.48 1187,-324 1002.26,-305.35 956.85,-291.08 776,-249 740.92,-240.84 702.25,-229.99 670.76,-220.68"/>
<polygon fill="black" stroke="black" points="671.97,-217.39 661.39,-217.89 669.97,-224.1 671.97,-217.39"/>
</g>
<!-- ed25519::unvalidated_public_key_to_authentication_key -->
<g id="node10" class="node">
<title>ed25519::unvalidated_public_key_to_authentication_key</title>
<ellipse fill="none" stroke="black" cx="962" cy="-200" rx="177.37" ry="18"/>
<text text-anchor="middle" x="962" y="-196.3" font-family="Times,serif" font-size="14.00">unvalidated_public_key_to_authentication_key</text>
</g>
<!-- rotate_authentication_key&#45;&gt;ed25519::unvalidated_public_key_to_authentication_key -->
<g id="edge9" class="edge">
<title>rotate_authentication_key&#45;&gt;ed25519::unvalidated_public_key_to_authentication_key</title>
<path fill="none" stroke="black" d="M2292.12,-348.07C2161.15,-346.21 1926.78,-340.65 1727,-324 1468.41,-302.45 1402.78,-298.18 1148,-249 1108.26,-241.33 1064.39,-230.14 1029.25,-220.5"/>
<polygon fill="black" stroke="black" points="1030.19,-217.13 1019.62,-217.83 1028.32,-223.87 1030.19,-217.13"/>
</g>
<!-- multi_ed25519::new_unvalidated_public_key_from_bytes -->
<g id="node11" class="node">
<title>multi_ed25519::new_unvalidated_public_key_from_bytes</title>
<ellipse fill="none" stroke="black" cx="2394" cy="-200" rx="159.47" ry="18"/>
<text text-anchor="middle" x="2394" y="-196.3" font-family="Times,serif" font-size="14.00">new_unvalidated_public_key_from_bytes</text>
</g>
<!-- rotate_authentication_key&#45;&gt;multi_ed25519::new_unvalidated_public_key_from_bytes -->
<g id="edge10" class="edge">
<title>rotate_authentication_key&#45;&gt;multi_ed25519::new_unvalidated_public_key_from_bytes</title>
<path fill="none" stroke="black" d="M2394,-331.73C2394,-306.67 2394,-259.9 2394,-229.63"/>
<polygon fill="black" stroke="black" points="2397.5,-229.67 2394,-219.67 2390.5,-229.67 2397.5,-229.67"/>
</g>
<!-- multi_ed25519::unvalidated_public_key_to_authentication_key -->
<g id="node12" class="node">
<title>multi_ed25519::unvalidated_public_key_to_authentication_key</title>
<ellipse fill="none" stroke="black" cx="2960" cy="-200" rx="177.37" ry="18"/>
<text text-anchor="middle" x="2960" y="-196.3" font-family="Times,serif" font-size="14.00">unvalidated_public_key_to_authentication_key</text>
</g>
<!-- rotate_authentication_key&#45;&gt;multi_ed25519::unvalidated_public_key_to_authentication_key -->
<g id="edge11" class="edge">
<title>rotate_authentication_key&#45;&gt;multi_ed25519::unvalidated_public_key_to_authentication_key</title>
<path fill="none" stroke="black" d="M2449.56,-334.47C2552.26,-307.62 2771.77,-250.22 2886.58,-220.2"/>
<polygon fill="black" stroke="black" points="2887.44,-223.59 2896.23,-217.67 2885.67,-216.82 2887.44,-223.59"/>
</g>
<!-- from_bcs::to_address -->
<g id="node13" class="node">
<title>from_bcs::to_address</title>
<ellipse fill="none" stroke="black" cx="3772" cy="-275" rx="48.19" ry="18"/>
<text text-anchor="middle" x="3772" y="-271.3" font-family="Times,serif" font-size="14.00">to_address</text>
</g>
<!-- rotate_authentication_key&#45;&gt;from_bcs::to_address -->
<g id="edge12" class="edge">
<title>rotate_authentication_key&#45;&gt;from_bcs::to_address</title>
<path fill="none" stroke="black" d="M2496.24,-348.83C2795.83,-348.11 3654.18,-344.28 3711,-324 3725.08,-318.97 3738.41,-309.29 3749,-299.93"/>
<polygon fill="black" stroke="black" points="3751.19,-302.67 3756.1,-293.29 3746.41,-297.56 3751.19,-302.67"/>
</g>
<!-- event::emit_event -->
<g id="node14" class="node">
<title>event::emit_event</title>
<ellipse fill="none" stroke="black" cx="3211" cy="-200" rx="50.09" ry="18"/>
<text text-anchor="middle" x="3211" y="-196.3" font-family="Times,serif" font-size="14.00">emit_event</text>
</g>
<!-- rotate_authentication_key&#45;&gt;event::emit_event -->
<g id="edge13" class="edge">
<title>rotate_authentication_key&#45;&gt;event::emit_event</title>
<path fill="none" stroke="black" d="M2482.69,-340.8C2528.77,-336.3 2585.97,-330.36 2637,-324 2865.22,-295.56 2937.36,-339.01 3149,-249 3162.6,-243.21 3175.82,-233.7 3186.53,-224.66"/>
<polygon fill="black" stroke="black" points="3188.59,-227.52 3193.76,-218.28 3183.95,-222.27 3188.59,-227.52"/>
</g>
<!-- assert_valid_signature_and_get_auth_key -->
<g id="node15" class="node">
<title>assert_valid_signature_and_get_auth_key</title>
<ellipse fill="none" stroke="black" cx="1894" cy="-275" rx="157.87" ry="18"/>
<text text-anchor="middle" x="1894" y="-271.3" font-family="Times,serif" font-size="14.00">assert_valid_signature_and_get_auth_key</text>
</g>
<!-- rotate_authentication_key&#45;&gt;assert_valid_signature_and_get_auth_key -->
<g id="edge14" class="edge">
<title>rotate_authentication_key&#45;&gt;assert_valid_signature_and_get_auth_key</title>
<path fill="none" stroke="black" d="M2317.24,-337.79C2232.28,-325.39 2094.79,-305.31 1999.68,-291.43"/>
<polygon fill="black" stroke="black" points="2000.19,-287.97 1989.79,-289.99 1999.18,-294.89 2000.19,-287.97"/>
</g>
<!-- exists_at -->
<g id="node16" class="node">
<title>exists_at</title>
<ellipse fill="none" stroke="black" cx="3883" cy="-275" rx="41.69" ry="18"/>
<text text-anchor="middle" x="3883" y="-271.3" font-family="Times,serif" font-size="14.00">exists_at</text>
</g>
<!-- rotate_authentication_key&#45;&gt;exists_at -->
<g id="edge15" class="edge">
<title>rotate_authentication_key&#45;&gt;exists_at</title>
<path fill="none" stroke="black" d="M2496.44,-349.38C2815.82,-350.28 3775.82,-350.74 3837,-324 3847.99,-319.2 3857.64,-310.39 3865.22,-301.61"/>
<polygon fill="black" stroke="black" points="3867.92,-303.84 3871.4,-293.83 3862.44,-299.48 3867.92,-303.84"/>
</g>
<!-- signer::borrow_address -->
<g id="node17" class="node">
<title>signer::borrow_address</title>
<ellipse fill="none" stroke="black" cx="211" cy="-200" rx="66.89" ry="18"/>
<text text-anchor="middle" x="211" y="-196.3" font-family="Times,serif" font-size="14.00">borrow_address</text>
</g>
<!-- signer::address_of&#45;&gt;signer::borrow_address -->
<g id="edge16" class="edge">
<title>signer::address_of&#45;&gt;signer::borrow_address</title>
<path fill="none" stroke="black" d="M217.87,-256.7C216.88,-248.67 215.67,-238.9 214.55,-229.8"/>
<polygon fill="black" stroke="black" points="218.03,-229.43 213.33,-219.93 211.08,-230.28 218.03,-229.43"/>
</g>
<!-- error::canonical -->
<g id="node18" class="node">
<title>error::canonical</title>
<ellipse fill="none" stroke="black" cx="213" cy="-34" rx="44.39" ry="18"/>
<text text-anchor="middle" x="213" y="-30.3" font-family="Times,serif" font-size="14.00">canonical</text>
</g>
<!-- error::invalid_argument&#45;&gt;error::canonical -->
<g id="edge17" class="edge">
<title>error::invalid_argument&#45;&gt;error::canonical</title>
<path fill="none" stroke="black" d="M323.74,-100C301.74,-87.09 270.69,-68.86 247.06,-54.99"/>
<polygon fill="black" stroke="black" points="249.13,-52.15 238.74,-50.11 245.59,-58.19 249.13,-52.15"/>
</g>
<!-- error::not_found&#45;&gt;error::canonical -->
<g id="edge18" class="edge">
<title>error::not_found&#45;&gt;error::canonical</title>
<path fill="none" stroke="black" d="M213,-98.82C213,-88.69 213,-75.6 213,-63.92"/>
<polygon fill="black" stroke="black" points="216.5,-63.95 213,-53.95 209.5,-63.95 216.5,-63.95"/>
</g>
<!-- error::unauthenticated&#45;&gt;error::canonical -->
<g id="edge19" class="edge">
<title>error::unauthenticated&#45;&gt;error::canonical</title>
<path fill="none" stroke="black" d="M107.88,-100C128.44,-87.28 157.35,-69.41 179.65,-55.62"/>
<polygon fill="black" stroke="black" points="181.42,-58.64 188.09,-50.4 177.74,-52.69 181.42,-58.64"/>
</g>
<!-- table::contains_box -->
<g id="node19" class="node">
<title>table::contains_box</title>
<ellipse fill="none" stroke="black" cx="3641" cy="-200" rx="57.69" ry="18"/>
<text text-anchor="middle" x="3641" y="-196.3" font-family="Times,serif" font-size="14.00">contains_box</text>
</g>
<!-- table::contains&#45;&gt;table::contains_box -->
<g id="edge20" class="edge">
<title>table::contains&#45;&gt;table::contains_box</title>
<path fill="none" stroke="black" d="M3620.26,-257.07C3623.35,-248.71 3627.16,-238.42 3630.67,-228.94"/>
<polygon fill="black" stroke="black" points="3633.87,-230.36 3634.06,-219.77 3627.31,-227.93 3633.87,-230.36"/>
</g>
<!-- table::remove_box -->
<g id="node20" class="node">
<title>table::remove_box</title>
<ellipse fill="none" stroke="black" cx="3510" cy="-200" rx="55.49" ry="18"/>
<text text-anchor="middle" x="3510" y="-196.3" font-family="Times,serif" font-size="14.00">remove_box</text>
</g>
<!-- table::remove&#45;&gt;table::remove_box -->
<g id="edge21" class="edge">
<title>table::remove&#45;&gt;table::remove_box</title>
<path fill="none" stroke="black" d="M3495.5,-256.7C3497.62,-248.58 3500.19,-238.68 3502.58,-229.5"/>
<polygon fill="black" stroke="black" points="3505.95,-230.45 3505.08,-219.89 3499.18,-228.69 3505.95,-230.45"/>
</g>
<!-- table::add_box -->
<g id="node21" class="node">
<title>table::add_box</title>
<ellipse fill="none" stroke="black" cx="3396" cy="-200" rx="40.89" ry="18"/>
<text text-anchor="middle" x="3396" y="-196.3" font-family="Times,serif" font-size="14.00">add_box</text>
</g>
<!-- table::add&#45;&gt;table::add_box -->
<g id="edge22" class="edge">
<title>table::add&#45;&gt;table::add_box</title>
<path fill="none" stroke="black" d="M3390.66,-256.7C3391.43,-248.67 3392.37,-238.9 3393.24,-229.8"/>
<polygon fill="black" stroke="black" points="3396.71,-230.22 3394.18,-219.94 3389.75,-229.56 3396.71,-230.22"/>
</g>
<!-- ed25519::new_unvalidated_public_key_from_bytes&#45;&gt;error::invalid_argument -->
<g id="edge23" class="edge">
<title>ed25519::new_unvalidated_public_key_from_bytes&#45;&gt;error::invalid_argument</title>
<path fill="none" stroke="black" d="M507.85,-185.49C483.91,-180.7 458.7,-174.35 436,-166 418.12,-159.43 399.56,-149.37 384.36,-140.16"/>
<polygon fill="black" stroke="black" points="386.52,-137.39 376.18,-135.08 382.83,-143.33 386.52,-137.39"/>
</g>
<!-- ed25519::public_key_bytes_to_authentication_key -->
<g id="node22" class="node">
<title>ed25519::public_key_bytes_to_authentication_key</title>
<ellipse fill="none" stroke="black" cx="1160" cy="-117" rx="155.17" ry="18"/>
<text text-anchor="middle" x="1160" y="-113.3" font-family="Times,serif" font-size="14.00">public_key_bytes_to_authentication_key</text>
</g>
<!-- ed25519::unvalidated_public_key_to_authentication_key&#45;&gt;ed25519::public_key_bytes_to_authentication_key -->
<g id="edge24" class="edge">
<title>ed25519::unvalidated_public_key_to_authentication_key&#45;&gt;ed25519::public_key_bytes_to_authentication_key</title>
<path fill="none" stroke="black" d="M1003.51,-182.02C1034.1,-169.5 1075.91,-152.4 1108.61,-139.02"/>
<polygon fill="black" stroke="black" points="1109.56,-142.42 1117.49,-135.39 1106.91,-135.94 1109.56,-142.42"/>
</g>
<!-- multi_ed25519::new_unvalidated_public_key_from_bytes&#45;&gt;error::invalid_argument -->
<g id="edge25" class="edge">
<title>multi_ed25519::new_unvalidated_public_key_from_bytes&#45;&gt;error::invalid_argument</title>
<path fill="none" stroke="black" d="M2310.95,-184.23C2283.95,-180.08 2253.79,-176.12 2226,-174 2176.42,-170.22 484.06,-178.75 436,-166 417.05,-160.97 397.88,-150.69 382.54,-140.93"/>
<polygon fill="black" stroke="black" points="384.6,-138.09 374.33,-135.48 380.73,-143.92 384.6,-138.09"/>
</g>
<!-- multi_ed25519::public_key_bytes_to_authentication_key -->
<g id="node23" class="node">
<title>multi_ed25519::public_key_bytes_to_authentication_key</title>
<ellipse fill="none" stroke="black" cx="2960" cy="-117" rx="155.17" ry="18"/>
<text text-anchor="middle" x="2960" y="-113.3" font-family="Times,serif" font-size="14.00">public_key_bytes_to_authentication_key</text>
</g>
<!-- multi_ed25519::unvalidated_public_key_to_authentication_key&#45;&gt;multi_ed25519::public_key_bytes_to_authentication_key -->
<g id="edge26" class="edge">
<title>multi_ed25519::unvalidated_public_key_to_authentication_key&#45;&gt;multi_ed25519::public_key_bytes_to_authentication_key</title>
<path fill="none" stroke="black" d="M2960,-181.82C2960,-171.69 2960,-158.6 2960,-146.92"/>
<polygon fill="black" stroke="black" points="2963.5,-146.95 2960,-136.95 2956.5,-146.95 2963.5,-146.95"/>
</g>
<!-- from_bcs::from_bytes -->
<g id="node24" class="node">
<title>from_bcs::from_bytes</title>
<ellipse fill="none" stroke="black" cx="3774" cy="-200" rx="51.19" ry="18"/>
<text text-anchor="middle" x="3774" y="-196.3" font-family="Times,serif" font-size="14.00">from_bytes</text>
</g>
<!-- from_bcs::to_address&#45;&gt;from_bcs::from_bytes -->
<g id="edge27" class="edge">
<title>from_bcs::to_address&#45;&gt;from_bcs::from_bytes</title>
<path fill="none" stroke="black" d="M3772.47,-256.7C3772.69,-248.67 3772.96,-238.9 3773.21,-229.8"/>
<polygon fill="black" stroke="black" points="3776.71,-230.03 3773.48,-219.94 3769.71,-229.84 3776.71,-230.03"/>
</g>
<!-- bcs::to_bytes -->
<g id="node25" class="node">
<title>bcs::to_bytes</title>
<ellipse fill="none" stroke="black" cx="1939" cy="-117" rx="40.09" ry="18"/>
<text text-anchor="middle" x="1939" y="-113.3" font-family="Times,serif" font-size="14.00">to_bytes</text>
</g>
<!-- event::emit_event&#45;&gt;bcs::to_bytes -->
<g id="edge28" class="edge">
<title>event::emit_event&#45;&gt;bcs::to_bytes</title>
<path fill="none" stroke="black" d="M3182.36,-184.84C3172.1,-180.47 3160.27,-176.23 3149,-174 3117.44,-167.76 2020.92,-177.82 1991,-166 1978.7,-161.14 1967.56,-151.89 1958.77,-142.79"/>
<polygon fill="black" stroke="black" points="1961.4,-140.49 1952.11,-135.39 1956.2,-145.17 1961.4,-140.49"/>
</g>
<!-- event::write_to_event_store -->
<g id="node26" class="node">
<title>event::write_to_event_store</title>
<ellipse fill="none" stroke="black" cx="3246" cy="-117" rx="85.29" ry="18"/>
<text text-anchor="middle" x="3246" y="-113.3" font-family="Times,serif" font-size="14.00">write_to_event_store</text>
</g>
<!-- event::emit_event&#45;&gt;event::write_to_event_store -->
<g id="edge29" class="edge">
<title>event::emit_event&#45;&gt;event::write_to_event_store</title>
<path fill="none" stroke="black" d="M3218.42,-181.82C3222.97,-171.3 3228.89,-157.59 3234.09,-145.57"/>
<polygon fill="black" stroke="black" points="3237.23,-147.11 3237.99,-136.54 3230.81,-144.33 3237.23,-147.11"/>
</g>
<!-- assert_valid_signature_and_get_auth_key&#45;&gt;error::invalid_argument -->
<g id="edge30" class="edge">
<title>assert_valid_signature_and_get_auth_key&#45;&gt;error::invalid_argument</title>
<path fill="none" stroke="black" d="M1736.26,-273.39C1364.69,-271.66 463.41,-265.77 436,-249 403.77,-229.29 416.81,-205.53 396,-174 389.2,-163.7 380.93,-152.99 373.34,-143.73"/>
<polygon fill="black" stroke="black" points="376.13,-141.61 367.03,-136.18 370.76,-146.1 376.13,-141.61"/>
</g>
<!-- assert_valid_signature_and_get_auth_key&#45;&gt;ed25519::new_unvalidated_public_key_from_bytes -->
<g id="edge32" class="edge">
<title>assert_valid_signature_and_get_auth_key&#45;&gt;ed25519::new_unvalidated_public_key_from_bytes</title>
<path fill="none" stroke="black" d="M1739.54,-271.05C1438.28,-265.23 799.44,-252.53 776,-249 737.93,-243.26 696.31,-231.51 663.9,-221.08"/>
<polygon fill="black" stroke="black" points="665.32,-217.86 654.72,-218.07 663.14,-224.51 665.32,-217.86"/>
</g>
<!-- assert_valid_signature_and_get_auth_key&#45;&gt;ed25519::unvalidated_public_key_to_authentication_key -->
<g id="edge34" class="edge">
<title>assert_valid_signature_and_get_auth_key&#45;&gt;ed25519::unvalidated_public_key_to_authentication_key</title>
<path fill="none" stroke="black" d="M1751.79,-266.95C1679.41,-263.56 1590.03,-259.66 1510,-257 1429.58,-254.33 1227.71,-260.02 1148,-249 1106.09,-243.21 1060.03,-231.37 1024.24,-220.9"/>
<polygon fill="black" stroke="black" points="1025.51,-217.62 1014.92,-218.13 1023.51,-224.33 1025.51,-217.62"/>
</g>
<!-- assert_valid_signature_and_get_auth_key&#45;&gt;multi_ed25519::new_unvalidated_public_key_from_bytes -->
<g id="edge36" class="edge">
<title>assert_valid_signature_and_get_auth_key&#45;&gt;multi_ed25519::new_unvalidated_public_key_from_bytes</title>
<path fill="none" stroke="black" d="M2043.97,-269.18C2101.25,-265.65 2166.96,-259.54 2226,-249 2262.73,-242.44 2302.95,-231.1 2334.82,-221.09"/>
<polygon fill="black" stroke="black" points="2335.82,-224.45 2344.29,-218.08 2333.69,-217.78 2335.82,-224.45"/>
</g>
<!-- assert_valid_signature_and_get_auth_key&#45;&gt;multi_ed25519::unvalidated_public_key_to_authentication_key -->
<g id="edge38" class="edge">
<title>assert_valid_signature_and_get_auth_key&#45;&gt;multi_ed25519::unvalidated_public_key_to_authentication_key</title>
<path fill="none" stroke="black" d="M2049.06,-271.48C2282.54,-267.41 2704.58,-258.82 2774,-249 2815.9,-243.08 2861.95,-231.23 2897.75,-220.79"/>
<polygon fill="black" stroke="black" points="2898.47,-224.23 2907.06,-218.04 2896.48,-217.52 2898.47,-224.23"/>
</g>
<!-- ed25519::new_signature_from_bytes -->
<g id="node27" class="node">
<title>ed25519::new_signature_from_bytes</title>
<ellipse fill="none" stroke="black" cx="1264" cy="-200" rx="106.68" ry="18"/>
<text text-anchor="middle" x="1264" y="-196.3" font-family="Times,serif" font-size="14.00">new_signature_from_bytes</text>
</g>
<!-- assert_valid_signature_and_get_auth_key&#45;&gt;ed25519::new_signature_from_bytes -->
<g id="edge31" class="edge">
<title>assert_valid_signature_and_get_auth_key&#45;&gt;ed25519::new_signature_from_bytes</title>
<path fill="none" stroke="black" d="M1749.08,-267.55C1600.24,-260.83 1389,-251.02 1380,-249 1354.41,-243.27 1327.25,-232.32 1305.65,-222.33"/>
<polygon fill="black" stroke="black" points="1307.43,-219.3 1296.9,-218.17 1304.43,-225.62 1307.43,-219.3"/>
</g>
<!-- ed25519::signature_verify_strict_t -->
<g id="node28" class="node">
<title>ed25519::signature_verify_strict_t</title>
<ellipse fill="none" stroke="black" cx="1678" cy="-200" rx="96.68" ry="18"/>
<text text-anchor="middle" x="1678" y="-196.3" font-family="Times,serif" font-size="14.00">signature_verify_strict_t</text>
</g>
<!-- assert_valid_signature_and_get_auth_key&#45;&gt;ed25519::signature_verify_strict_t -->
<g id="edge33" class="edge">
<title>assert_valid_signature_and_get_auth_key&#45;&gt;ed25519::signature_verify_strict_t</title>
<path fill="none" stroke="black" d="M1844.99,-257.44C1811.97,-246.28 1768.33,-231.53 1733.95,-219.91"/>
<polygon fill="black" stroke="black" points="1735.16,-216.63 1724.57,-216.74 1732.92,-223.26 1735.16,-216.63"/>
</g>
<!-- multi_ed25519::new_signature_from_bytes -->
<g id="node29" class="node">
<title>multi_ed25519::new_signature_from_bytes</title>
<ellipse fill="none" stroke="black" cx="2110" cy="-200" rx="106.68" ry="18"/>
<text text-anchor="middle" x="2110" y="-196.3" font-family="Times,serif" font-size="14.00">new_signature_from_bytes</text>
</g>
<!-- assert_valid_signature_and_get_auth_key&#45;&gt;multi_ed25519::new_signature_from_bytes -->
<g id="edge35" class="edge">
<title>assert_valid_signature_and_get_auth_key&#45;&gt;multi_ed25519::new_signature_from_bytes</title>
<path fill="none" stroke="black" d="M1943.01,-257.44C1975.7,-246.39 2018.78,-231.83 2052.99,-220.27"/>
<polygon fill="black" stroke="black" points="2053.98,-223.63 2062.33,-217.11 2051.74,-217 2053.98,-223.63"/>
</g>
<!-- multi_ed25519::signature_verify_strict_t -->
<g id="node30" class="node">
<title>multi_ed25519::signature_verify_strict_t</title>
<ellipse fill="none" stroke="black" cx="2668" cy="-200" rx="96.68" ry="18"/>
<text text-anchor="middle" x="2668" y="-196.3" font-family="Times,serif" font-size="14.00">signature_verify_strict_t</text>
</g>
<!-- assert_valid_signature_and_get_auth_key&#45;&gt;multi_ed25519::signature_verify_strict_t -->
<g id="edge37" class="edge">
<title>assert_valid_signature_and_get_auth_key&#45;&gt;multi_ed25519::signature_verify_strict_t</title>
<path fill="none" stroke="black" d="M2048.86,-271.35C2230.64,-267.74 2513.6,-260.4 2562,-249 2585.34,-243.5 2609.81,-232.79 2629.36,-222.87"/>
<polygon fill="black" stroke="black" points="2630.8,-226.07 2638.05,-218.34 2627.56,-219.87 2630.8,-226.07"/>
</g>
<!-- hash::sha3_256 -->
<g id="node31" class="node">
<title>hash::sha3_256</title>
<ellipse fill="none" stroke="black" cx="2159" cy="-34" rx="44.39" ry="18"/>
<text text-anchor="middle" x="2159" y="-30.3" font-family="Times,serif" font-size="14.00">sha3_256</text>
</g>
<!-- ed25519::public_key_bytes_to_authentication_key&#45;&gt;hash::sha3_256 -->
<g id="edge39" class="edge">
<title>ed25519::public_key_bytes_to_authentication_key&#45;&gt;hash::sha3_256</title>
<path fill="none" stroke="black" d="M1284.5,-105.91C1503.67,-88.14 1949.81,-51.96 2104.63,-39.41"/>
<polygon fill="black" stroke="black" points="2104.51,-42.93 2114.19,-38.63 2103.94,-35.95 2104.51,-42.93"/>
</g>
<!-- multi_ed25519::public_key_bytes_to_authentication_key&#45;&gt;hash::sha3_256 -->
<g id="edge40" class="edge">
<title>multi_ed25519::public_key_bytes_to_authentication_key&#45;&gt;hash::sha3_256</title>
<path fill="none" stroke="black" d="M2872.9,-101.67C2848.1,-97.87 2821.02,-94 2796,-91 2581.22,-65.22 2324.35,-46.24 2213.9,-38.65"/>
<polygon fill="black" stroke="black" points="2214.46,-35.18 2204.24,-37.99 2213.98,-42.16 2214.46,-35.18"/>
</g>
<!-- ed25519::new_signature_from_bytes&#45;&gt;error::invalid_argument -->
<g id="edge41" class="edge">
<title>ed25519::new_signature_from_bytes&#45;&gt;error::invalid_argument</title>
<path fill="none" stroke="black" d="M1207.15,-184.36C1188.44,-180.19 1167.45,-176.18 1148,-174 1108.69,-169.59 474.2,-176.27 436,-166 417.07,-160.91 397.89,-150.62 382.56,-140.87"/>
<polygon fill="black" stroke="black" points="384.61,-138.03 374.34,-135.44 380.75,-143.87 384.61,-138.03"/>
</g>
<!-- ed25519::signature_verify_strict_t&#45;&gt;bcs::to_bytes -->
<g id="edge42" class="edge">
<title>ed25519::signature_verify_strict_t&#45;&gt;bcs::to_bytes</title>
<path fill="none" stroke="black" d="M1772.56,-195.83C1809.7,-191.63 1851.79,-183.05 1887,-166 1898.56,-160.4 1909.36,-151.36 1918.08,-142.64"/>
<polygon fill="black" stroke="black" points="1920.42,-145.26 1924.73,-135.58 1915.32,-140.46 1920.42,-145.26"/>
</g>
<!-- type_info::type_of -->
<g id="node32" class="node">
<title>type_info::type_of</title>
<ellipse fill="none" stroke="black" cx="1837" cy="-117" rx="37.89" ry="18"/>
<text text-anchor="middle" x="1837" y="-113.3" font-family="Times,serif" font-size="14.00">type_of</text>
</g>
<!-- ed25519::signature_verify_strict_t&#45;&gt;type_info::type_of -->
<g id="edge43" class="edge">
<title>ed25519::signature_verify_strict_t&#45;&gt;type_info::type_of</title>
<path fill="none" stroke="black" d="M1739.8,-185.77C1755.8,-180.9 1772.58,-174.44 1787,-166 1797.59,-159.8 1807.68,-150.92 1815.99,-142.48"/>
<polygon fill="black" stroke="black" points="1818.33,-145.1 1822.62,-135.41 1813.22,-140.31 1818.33,-145.1"/>
</g>
<!-- ed25519::signature_verify_strict_internal -->
<g id="node33" class="node">
<title>ed25519::signature_verify_strict_internal</title>
<ellipse fill="none" stroke="black" cx="1653" cy="-117" rx="121.58" ry="18"/>
<text text-anchor="middle" x="1653" y="-113.3" font-family="Times,serif" font-size="14.00">signature_verify_strict_internal</text>
</g>
<!-- ed25519::signature_verify_strict_t&#45;&gt;ed25519::signature_verify_strict_internal -->
<g id="edge44" class="edge">
<title>ed25519::signature_verify_strict_t&#45;&gt;ed25519::signature_verify_strict_internal</title>
<path fill="none" stroke="black" d="M1672.7,-181.82C1669.5,-171.48 1665.36,-158.05 1661.7,-146.18"/>
<polygon fill="black" stroke="black" points="1665.12,-145.4 1658.83,-136.88 1658.43,-147.47 1665.12,-145.4"/>
</g>
<!-- multi_ed25519::new_signature_from_bytes&#45;&gt;error::invalid_argument -->
<g id="edge45" class="edge">
<title>multi_ed25519::new_signature_from_bytes&#45;&gt;error::invalid_argument</title>
<path fill="none" stroke="black" d="M2019.26,-190.24C1954.58,-184.42 1865.53,-177.27 1787,-174 1749.5,-172.44 472.27,-175.65 436,-166 417.06,-160.96 397.88,-150.68 382.55,-140.92"/>
<polygon fill="black" stroke="black" points="384.6,-138.08 374.33,-135.47 380.73,-143.91 384.6,-138.08"/>
</g>
<!-- multi_ed25519::signature_verify_strict_t&#45;&gt;bcs::to_bytes -->
<g id="edge46" class="edge">
<title>multi_ed25519::signature_verify_strict_t&#45;&gt;bcs::to_bytes</title>
<path fill="none" stroke="black" d="M2616.11,-184.38C2599.02,-180.21 2579.83,-176.2 2562,-174 2530.51,-170.11 2020.47,-177.76 1991,-166 1978.72,-161.1 1967.58,-151.84 1958.78,-142.75"/>
<polygon fill="black" stroke="black" points="1961.42,-140.44 1952.12,-135.36 1956.22,-145.13 1961.42,-140.44"/>
</g>
<!-- ed25519::new_signed_message -->
<g id="node34" class="node">
<title>ed25519::new_signed_message</title>
<ellipse fill="none" stroke="black" cx="1476" cy="-200" rx="87.18" ry="18"/>
<text text-anchor="middle" x="1476" y="-196.3" font-family="Times,serif" font-size="14.00">new_signed_message</text>
</g>
<!-- multi_ed25519::signature_verify_strict_t&#45;&gt;ed25519::new_signed_message -->
<g id="edge47" class="edge">
<title>multi_ed25519::signature_verify_strict_t&#45;&gt;ed25519::new_signed_message</title>
<path fill="none" stroke="black" d="M2639.47,-217.52C2616.93,-230.26 2584.18,-246.38 2553,-253 2539.79,-255.8 1594.21,-255.8 1581,-253 1556.17,-247.73 1530.69,-235.08 1511.05,-223.46"/>
<polygon fill="black" stroke="black" points="1512.99,-220.54 1502.64,-218.31 1509.34,-226.51 1512.99,-220.54"/>
</g>
<!-- multi_ed25519::signature_verify_strict_internal -->
<g id="node35" class="node">
<title>multi_ed25519::signature_verify_strict_internal</title>
<ellipse fill="none" stroke="black" cx="2665" cy="-117" rx="121.58" ry="18"/>
<text text-anchor="middle" x="2665" y="-113.3" font-family="Times,serif" font-size="14.00">signature_verify_strict_internal</text>
</g>
<!-- multi_ed25519::signature_verify_strict_t&#45;&gt;multi_ed25519::signature_verify_strict_internal -->
<g id="edge48" class="edge">
<title>multi_ed25519::signature_verify_strict_t&#45;&gt;multi_ed25519::signature_verify_strict_internal</title>
<path fill="none" stroke="black" d="M2667.36,-181.82C2666.99,-171.69 2666.5,-158.6 2666.07,-146.92"/>
<polygon fill="black" stroke="black" points="2669.57,-146.81 2665.7,-136.95 2662.57,-147.07 2669.57,-146.81"/>
</g>
<!-- ed25519::new_signed_message&#45;&gt;type_info::type_of -->
<g id="edge49" class="edge">
<title>ed25519::new_signed_message&#45;&gt;type_info::type_of</title>
<path fill="none" stroke="black" d="M1523.43,-184.47C1538.79,-180.35 1555.98,-176.35 1572,-174 1595.65,-170.52 1764.99,-175.33 1787,-166 1798.92,-160.94 1809.65,-151.66 1818.09,-142.59"/>
<polygon fill="black" stroke="black" points="1820.55,-145.1 1824.45,-135.25 1815.26,-140.52 1820.55,-145.1"/>
</g>
</g>
</svg>
