<?xml version="1.0" encoding="UTF-8" standalone="no"?>
<!DOCTYPE svg PUBLIC "-//W3C//DTD SVG 1.1//EN"
 "http://www.w3.org/Graphics/SVG/1.1/DTD/svg11.dtd">
<!-- Generated by graphviz version 7.0.4 (20221203.1631)
 -->
<!-- Title: G Pages: 1 -->
<svg width="2396pt" height="781pt"
 viewBox="0.00 0.00 2396.00 781.00" xmlns="http://www.w3.org/2000/svg" xmlns:xlink="http://www.w3.org/1999/xlink">
<g id="graph0" class="graph" transform="scale(1 1) rotate(0) translate(4 777)">
<title>G</title>
<polygon fill="white" stroke="none" points="-4,4 -4,-777 2392,-777 2392,4 -4,4"/>
<g id="clust1" class="cluster">
<title>cluster_coin</title>
<polygon fill="none" stroke="black" points="942,-302 942,-377 1032,-377 1032,-302 942,-302"/>
<text text-anchor="middle" x="987" y="-361.8" font-family="Times,serif" font-size="14.00">coin</text>
</g>
<g id="clust2" class="cluster">
<title>cluster_aptos_account</title>
<polygon fill="none" stroke="black" points="116,-385 116,-690 564,-690 564,-385 116,-385"/>
<text text-anchor="middle" x="340" y="-674.8" font-family="Times,serif" font-size="14.00">aptos_account</text>
</g>
<g id="clust3" class="cluster">
<title>cluster_voting</title>
<polygon fill="none" stroke="black" points="157,-136 157,-211 247,-211 247,-136 157,-136"/>
<text text-anchor="middle" x="202" y="-195.8" font-family="Times,serif" font-size="14.00">voting</text>
</g>
<g id="clust4" class="cluster">
<title>cluster_stake</title>
<polygon fill="none" stroke="black" points="1409,-136 1409,-294 1778,-294 1778,-136 1409,-136"/>
<text text-anchor="middle" x="1593.5" y="-278.8" font-family="Times,serif" font-size="14.00">stake</text>
</g>
<g id="clust5" class="cluster">
<title>cluster_reconfiguration</title>
<polygon fill="none" stroke="black" points="2034,-136 2034,-211 2134,-211 2134,-136 2034,-136"/>
<text text-anchor="middle" x="2084" y="-195.8" font-family="Times,serif" font-size="14.00">reconfiguration</text>
</g>
<g id="clust6" class="cluster">
<title>cluster_aptos_governance</title>
<polygon fill="none" stroke="black" points="8,-219 8,-377 226,-377 226,-219 8,-219"/>
<text text-anchor="middle" x="117" y="-361.8" font-family="Times,serif" font-size="14.00">aptos_governance</text>
</g>
<g id="clust7" class="cluster">
<title>cluster_block</title>
<polygon fill="none" stroke="black" points="2170,-136 2170,-211 2270,-211 2270,-136 2170,-136"/>
<text text-anchor="middle" x="2220" y="-195.8" font-family="Times,serif" font-size="14.00">block</text>
</g>
<g id="clust8" class="cluster">
<title>cluster_staking_contract</title>
<polygon fill="none" stroke="black" points="1912,-302 1912,-543 2330,-543 2330,-302 1912,-302"/>
<text text-anchor="middle" x="2121" y="-527.8" font-family="Times,serif" font-size="14.00">staking_contract</text>
</g>
<g id="clust9" class="cluster">
<title>cluster_vesting</title>
<polygon fill="none" stroke="black" points="1606,-385 1606,-543 1874,-543 1874,-385 1606,-385"/>
<text text-anchor="middle" x="1740" y="-527.8" font-family="Times,serif" font-size="14.00">vesting</text>
</g>
<g id="clust10" class="cluster">
<title>cluster_aptos_coin</title>
<polygon fill="none" stroke="black" points="572,-615 572,-690 808,-690 808,-615 572,-615"/>
<text text-anchor="middle" x="690" y="-674.8" font-family="Times,serif" font-size="14.00">aptos_coin</text>
</g>
<g id="clust11" class="cluster">
<title>cluster_genesis</title>
<polygon fill="none" stroke="black" points="816,-468 816,-765 1598,-765 1598,-468 816,-468"/>
<text text-anchor="middle" x="1207" y="-749.8" font-family="Times,serif" font-size="14.00">genesis</text>
</g>
<g id="clust12" class="cluster">
<title>cluster_managed_coin</title>
<polygon fill="none" stroke="black" points="973,-385 973,-460 1069,-460 1069,-385 973,-385"/>
<text text-anchor="middle" x="1021" y="-444.8" font-family="Times,serif" font-size="14.00">managed_coin</text>
</g>
<g id="clust13" class="cluster">
<title>cluster_resource_account</title>
<polygon fill="none" stroke="black" points="1077,-385 1077,-460 1363,-460 1363,-385 1077,-385"/>
<text text-anchor="middle" x="1220" y="-444.8" font-family="Times,serif" font-size="14.00">resource_account</text>
</g>
<!-- create_guid -->
<g id="node1" class="node">
<title>create_guid</title>
<ellipse fill="none" stroke="black" cx="1587" cy="-18" rx="51.99" ry="18"/>
<text text-anchor="middle" x="1587" y="-14.3" font-family="Times,serif" font-size="14.00">create_guid</text>
</g>
<!-- new_event_handle -->
<g id="node2" class="node">
<title>new_event_handle</title>
<ellipse fill="none" stroke="black" cx="1587" cy="-90" rx="76.89" ry="18"/>
<text text-anchor="middle" x="1587" y="-86.3" font-family="Times,serif" font-size="14.00">new_event_handle</text>
</g>
<!-- new_event_handle&#45;&gt;create_guid -->
<g id="edge1" class="edge">
<title>new_event_handle&#45;&gt;create_guid</title>
<path fill="none" stroke="black" d="M1587,-71.7C1587,-64.41 1587,-55.73 1587,-47.54"/>
<polygon fill="black" stroke="black" points="1590.5,-47.62 1587,-37.62 1583.5,-47.62 1590.5,-47.62"/>
</g>
<!-- coin::register -->
<g id="node3" class="node">
<title>coin::register</title>
<ellipse fill="none" stroke="black" cx="987" cy="-328" rx="37.09" ry="18"/>
<text text-anchor="middle" x="987" y="-324.3" font-family="Times,serif" font-size="14.00">register</text>
</g>
<!-- coin::register&#45;&gt;new_event_handle -->
<g id="edge2" class="edge">
<title>coin::register&#45;&gt;new_event_handle</title>
<path fill="none" stroke="black" d="M1011.31,-313.94C1074.57,-280.37 1250.18,-189.98 1405,-136 1441.88,-123.14 1484.18,-112.45 1518.72,-104.72"/>
<polygon fill="black" stroke="black" points="1519.15,-108.21 1528.16,-102.64 1517.64,-101.37 1519.15,-108.21"/>
</g>
<!-- aptos_account::set_allow_direct_coin_transfers -->
<g id="node4" class="node">
<title>aptos_account::set_allow_direct_coin_transfers</title>
<ellipse fill="none" stroke="black" cx="247" cy="-641" rx="122.68" ry="18"/>
<text text-anchor="middle" x="247" y="-637.3" font-family="Times,serif" font-size="14.00">set_allow_direct_coin_transfers</text>
</g>
<!-- aptos_account::set_allow_direct_coin_transfers&#45;&gt;new_event_handle -->
<g id="edge3" class="edge">
<title>aptos_account::set_allow_direct_coin_transfers&#45;&gt;new_event_handle</title>
<path fill="none" stroke="black" d="M250.95,-622.7C256.78,-595.62 267,-541.5 267,-495 267,-495 267,-495 267,-244 267,-119.64 1203.42,-96.23 1498.83,-91.94"/>
<polygon fill="black" stroke="black" points="1498.86,-95.44 1508.81,-91.8 1498.76,-88.44 1498.86,-95.44"/>
</g>
<!-- voting::register -->
<g id="node5" class="node">
<title>voting::register</title>
<ellipse fill="none" stroke="black" cx="202" cy="-162" rx="37.09" ry="18"/>
<text text-anchor="middle" x="202" y="-158.3" font-family="Times,serif" font-size="14.00">register</text>
</g>
<!-- voting::register&#45;&gt;new_event_handle -->
<g id="edge4" class="edge">
<title>voting::register&#45;&gt;new_event_handle</title>
<path fill="none" stroke="black" d="M224.57,-147.39C233.16,-142.9 243.24,-138.44 253,-136 373.02,-106.02 1221,-94.75 1498.99,-91.83"/>
<polygon fill="black" stroke="black" points="1498.74,-95.33 1508.7,-91.73 1498.66,-88.33 1498.74,-95.33"/>
</g>
<!-- stake::initialize_owner -->
<g id="node6" class="node">
<title>stake::initialize_owner</title>
<ellipse fill="none" stroke="black" cx="1587" cy="-162" rx="67.69" ry="18"/>
<text text-anchor="middle" x="1587" y="-158.3" font-family="Times,serif" font-size="14.00">initialize_owner</text>
</g>
<!-- stake::initialize_owner&#45;&gt;new_event_handle -->
<g id="edge5" class="edge">
<title>stake::initialize_owner&#45;&gt;new_event_handle</title>
<path fill="none" stroke="black" d="M1587,-143.7C1587,-136.41 1587,-127.73 1587,-119.54"/>
<polygon fill="black" stroke="black" points="1590.5,-119.62 1587,-109.62 1583.5,-119.62 1590.5,-119.62"/>
</g>
<!-- reconfiguration::initialize -->
<g id="node7" class="node">
<title>reconfiguration::initialize</title>
<ellipse fill="none" stroke="black" cx="2084" cy="-162" rx="41.69" ry="18"/>
<text text-anchor="middle" x="2084" y="-158.3" font-family="Times,serif" font-size="14.00">initialize</text>
</g>
<!-- reconfiguration::initialize&#45;&gt;new_event_handle -->
<g id="edge6" class="edge">
<title>reconfiguration::initialize&#45;&gt;new_event_handle</title>
<path fill="none" stroke="black" d="M2048.62,-152.12C2026.68,-146.86 1997.83,-140.38 1972,-136 1868.29,-118.41 1747.69,-105.53 1669.49,-98.16"/>
<polygon fill="black" stroke="black" points="1670.06,-94.69 1659.78,-97.25 1669.41,-101.66 1670.06,-94.69"/>
</g>
<!-- aptos_governance::initialize -->
<g id="node8" class="node">
<title>aptos_governance::initialize</title>
<ellipse fill="none" stroke="black" cx="137" cy="-245" rx="41.69" ry="18"/>
<text text-anchor="middle" x="137" y="-241.3" font-family="Times,serif" font-size="14.00">initialize</text>
</g>
<!-- aptos_governance::initialize&#45;&gt;new_event_handle -->
<g id="edge7" class="edge">
<title>aptos_governance::initialize&#45;&gt;new_event_handle</title>
<path fill="none" stroke="black" d="M133.59,-226.69C129.93,-202.38 127.66,-158.56 153,-136 203.33,-91.18 1193.85,-89.98 1498.57,-90.68"/>
<polygon fill="black" stroke="black" points="1498.46,-94.18 1508.47,-90.71 1498.48,-87.18 1498.46,-94.18"/>
</g>
<!-- aptos_governance::initialize&#45;&gt;voting::register -->
<g id="edge18" class="edge">
<title>aptos_governance::initialize&#45;&gt;voting::register</title>
<path fill="none" stroke="black" d="M150.15,-227.61C159.29,-216.23 171.63,-200.85 181.98,-187.95"/>
<polygon fill="black" stroke="black" points="184.61,-190.26 188.14,-180.27 179.15,-185.88 184.61,-190.26"/>
</g>
<!-- block::initialize -->
<g id="node9" class="node">
<title>block::initialize</title>
<ellipse fill="none" stroke="black" cx="2220" cy="-162" rx="41.69" ry="18"/>
<text text-anchor="middle" x="2220" y="-158.3" font-family="Times,serif" font-size="14.00">initialize</text>
</g>
<!-- block::initialize&#45;&gt;new_event_handle -->
<g id="edge8" class="edge">
<title>block::initialize&#45;&gt;new_event_handle</title>
<path fill="none" stroke="black" d="M2188.86,-149.78C2173.7,-144.77 2155.1,-139.27 2138,-136 1976.38,-105.13 1784.13,-95.43 1674.75,-92.38"/>
<polygon fill="black" stroke="black" points="1675.05,-88.89 1664.96,-92.12 1674.87,-95.89 1675.05,-88.89"/>
</g>
<!-- staking_contract::new_staking_contracts_holder -->
<g id="node10" class="node">
<title>staking_contract::new_staking_contracts_holder</title>
<ellipse fill="none" stroke="black" cx="2204" cy="-328" rx="118.08" ry="18"/>
<text text-anchor="middle" x="2204" y="-324.3" font-family="Times,serif" font-size="14.00">new_staking_contracts_holder</text>
</g>
<!-- staking_contract::new_staking_contracts_holder&#45;&gt;new_event_handle -->
<g id="edge9" class="edge">
<title>staking_contract::new_staking_contracts_holder&#45;&gt;new_event_handle</title>
<path fill="none" stroke="black" d="M2179.18,-310.22C2113.11,-265.68 1935.89,-147.08 1906,-136 1830.9,-108.15 1739.99,-97.38 1674.46,-93.29"/>
<polygon fill="black" stroke="black" points="1675.05,-89.82 1664.86,-92.74 1674.64,-96.81 1675.05,-89.82"/>
</g>
<!-- vesting::create_vesting_contract -->
<g id="node11" class="node">
<title>vesting::create_vesting_contract</title>
<ellipse fill="none" stroke="black" cx="1756" cy="-494" rx="94.48" ry="18"/>
<text text-anchor="middle" x="1756" y="-490.3" font-family="Times,serif" font-size="14.00">create_vesting_contract</text>
</g>
<!-- vesting::create_vesting_contract&#45;&gt;new_event_handle -->
<g id="edge10" class="edge">
<title>vesting::create_vesting_contract&#45;&gt;new_event_handle</title>
<path fill="none" stroke="black" d="M1824.9,-481.3C1847.35,-475.98 1868.25,-468.87 1875,-460 1943.07,-370.49 1887.57,-228.61 1782,-136 1764.33,-120.5 1710.84,-108.81 1664.34,-101.23"/>
<polygon fill="black" stroke="black" points="1664.93,-97.78 1654.5,-99.68 1663.84,-104.7 1664.93,-97.78"/>
</g>
<!-- vesting::create_vesting_contract_account -->
<g id="node15" class="node">
<title>vesting::create_vesting_contract_account</title>
<ellipse fill="none" stroke="black" cx="1740" cy="-411" rx="126.18" ry="18"/>
<text text-anchor="middle" x="1740" y="-407.3" font-family="Times,serif" font-size="14.00">create_vesting_contract_account</text>
</g>
<!-- vesting::create_vesting_contract&#45;&gt;vesting::create_vesting_contract_account -->
<g id="edge30" class="edge">
<title>vesting::create_vesting_contract&#45;&gt;vesting::create_vesting_contract_account</title>
<path fill="none" stroke="black" d="M1752.61,-475.82C1750.58,-465.58 1747.97,-452.33 1745.64,-440.55"/>
<polygon fill="black" stroke="black" points="1749.11,-440.05 1743.74,-430.92 1742.24,-441.41 1749.11,-440.05"/>
</g>
<!-- staking_contract::create_staking_contract_with_coins -->
<g id="node23" class="node">
<title>staking_contract::create_staking_contract_with_coins</title>
<ellipse fill="none" stroke="black" cx="2059" cy="-411" rx="137.28" ry="18"/>
<text text-anchor="middle" x="2059" y="-407.3" font-family="Times,serif" font-size="14.00">create_staking_contract_with_coins</text>
</g>
<!-- vesting::create_vesting_contract&#45;&gt;staking_contract::create_staking_contract_with_coins -->
<g id="edge38" class="edge">
<title>vesting::create_vesting_contract&#45;&gt;staking_contract::create_staking_contract_with_coins</title>
<path fill="none" stroke="black" d="M1820.29,-480.44C1847.49,-474.76 1879.43,-467.62 1908,-460 1938.97,-451.73 1973.03,-441.05 2000.96,-431.86"/>
<polygon fill="black" stroke="black" points="2001.9,-435.23 2010.29,-428.76 1999.7,-428.59 2001.9,-435.23"/>
</g>
<!-- aptos_coin::configure_accounts_for_test -->
<g id="node12" class="node">
<title>aptos_coin::configure_accounts_for_test</title>
<ellipse fill="none" stroke="black" cx="690" cy="-641" rx="110.48" ry="18"/>
<text text-anchor="middle" x="690" y="-637.3" font-family="Times,serif" font-size="14.00">configure_accounts_for_test</text>
</g>
<!-- aptos_coin::configure_accounts_for_test&#45;&gt;coin::register -->
<g id="edge11" class="edge">
<title>aptos_coin::configure_accounts_for_test&#45;&gt;coin::register</title>
<path fill="none" stroke="black" d="M700,-622.69C719.21,-590.27 763.66,-519.03 812,-468 857.31,-420.16 919.52,-374.62 956.26,-349.39"/>
<polygon fill="black" stroke="black" points="957.92,-352.49 964.22,-343.97 953.99,-346.7 957.92,-352.49"/>
</g>
<!-- aptos_account::create_account -->
<g id="node13" class="node">
<title>aptos_account::create_account</title>
<ellipse fill="none" stroke="black" cx="492" cy="-411" rx="63.89" ry="18"/>
<text text-anchor="middle" x="492" y="-407.3" font-family="Times,serif" font-size="14.00">create_account</text>
</g>
<!-- aptos_account::create_account&#45;&gt;coin::register -->
<g id="edge12" class="edge">
<title>aptos_account::create_account&#45;&gt;coin::register</title>
<path fill="none" stroke="black" d="M539.53,-398.57C559.39,-394.01 582.74,-388.92 604,-385 724.6,-362.76 867.88,-343.77 940.22,-334.7"/>
<polygon fill="black" stroke="black" points="940.22,-338.23 949.71,-333.52 939.35,-331.28 940.22,-338.23"/>
</g>
<!-- aptos_account::deposit_coins -->
<g id="node14" class="node">
<title>aptos_account::deposit_coins</title>
<ellipse fill="none" stroke="black" cx="496" cy="-494" rx="59.29" ry="18"/>
<text text-anchor="middle" x="496" y="-490.3" font-family="Times,serif" font-size="14.00">deposit_coins</text>
</g>
<!-- aptos_account::deposit_coins&#45;&gt;coin::register -->
<g id="edge13" class="edge">
<title>aptos_account::deposit_coins&#45;&gt;coin::register</title>
<path fill="none" stroke="black" d="M526.91,-478.28C585.65,-450.36 709.43,-391.9 730,-385 801.85,-360.91 888.54,-344.52 940.64,-335.97"/>
<polygon fill="black" stroke="black" points="941.04,-339.45 950.35,-334.41 939.93,-332.54 941.04,-339.45"/>
</g>
<!-- aptos_account::deposit_coins&#45;&gt;aptos_account::create_account -->
<g id="edge28" class="edge">
<title>aptos_account::deposit_coins&#45;&gt;aptos_account::create_account</title>
<path fill="none" stroke="black" d="M495.15,-475.82C494.65,-465.69 494,-452.6 493.43,-440.92"/>
<polygon fill="black" stroke="black" points="496.92,-440.76 492.94,-430.94 489.93,-441.1 496.92,-440.76"/>
</g>
<!-- vesting::create_vesting_contract_account&#45;&gt;coin::register -->
<g id="edge14" class="edge">
<title>vesting::create_vesting_contract_account&#45;&gt;coin::register</title>
<path fill="none" stroke="black" d="M1641.56,-399.41C1477.78,-381.79 1155.41,-347.12 1034.4,-334.1"/>
<polygon fill="black" stroke="black" points="1034.81,-330.62 1024.49,-333.03 1034.06,-337.58 1034.81,-330.62"/>
</g>
<!-- genesis::create_account -->
<g id="node16" class="node">
<title>genesis::create_account</title>
<ellipse fill="none" stroke="black" cx="1250" cy="-494" rx="63.89" ry="18"/>
<text text-anchor="middle" x="1250" y="-490.3" font-family="Times,serif" font-size="14.00">create_account</text>
</g>
<!-- genesis::create_account&#45;&gt;coin::register -->
<g id="edge15" class="edge">
<title>genesis::create_account&#45;&gt;coin::register</title>
<path fill="none" stroke="black" d="M1187.36,-489.98C1108.99,-485.56 983.26,-476.03 969,-460 943.73,-431.58 958.7,-385.09 972.41,-355.81"/>
<polygon fill="black" stroke="black" points="975.36,-357.74 976.66,-347.23 969.09,-354.64 975.36,-357.74"/>
</g>
<!-- managed_coin::register -->
<g id="node17" class="node">
<title>managed_coin::register</title>
<ellipse fill="none" stroke="black" cx="1020" cy="-411" rx="37.09" ry="18"/>
<text text-anchor="middle" x="1020" y="-407.3" font-family="Times,serif" font-size="14.00">register</text>
</g>
<!-- managed_coin::register&#45;&gt;coin::register -->
<g id="edge16" class="edge">
<title>managed_coin::register&#45;&gt;coin::register</title>
<path fill="none" stroke="black" d="M1013.16,-393.22C1008.86,-382.64 1003.19,-368.74 998.24,-356.58"/>
<polygon fill="black" stroke="black" points="1001.53,-355.38 994.51,-347.44 995.05,-358.02 1001.53,-355.38"/>
</g>
<!-- resource_account::create_resource_account_and_fund -->
<g id="node18" class="node">
<title>resource_account::create_resource_account_and_fund</title>
<ellipse fill="none" stroke="black" cx="1220" cy="-411" rx="135.38" ry="18"/>
<text text-anchor="middle" x="1220" y="-407.3" font-family="Times,serif" font-size="14.00">create_resource_account_and_fund</text>
</g>
<!-- resource_account::create_resource_account_and_fund&#45;&gt;coin::register -->
<g id="edge17" class="edge">
<title>resource_account::create_resource_account_and_fund&#45;&gt;coin::register</title>
<path fill="none" stroke="black" d="M1173.13,-393.71C1130.37,-378.84 1067.85,-357.11 1027.29,-343.01"/>
<polygon fill="black" stroke="black" points="1028.49,-339.72 1017.89,-339.74 1026.19,-346.33 1028.49,-339.72"/>
</g>
<!-- stake::initialize_stake_owner -->
<g id="node19" class="node">
<title>stake::initialize_stake_owner</title>
<ellipse fill="none" stroke="black" cx="1680" cy="-245" rx="90.18" ry="18"/>
<text text-anchor="middle" x="1680" y="-241.3" font-family="Times,serif" font-size="14.00">initialize_stake_owner</text>
</g>
<!-- stake::initialize_stake_owner&#45;&gt;stake::initialize_owner -->
<g id="edge19" class="edge">
<title>stake::initialize_stake_owner&#45;&gt;stake::initialize_owner</title>
<path fill="none" stroke="black" d="M1660.73,-227.22C1647.3,-215.52 1629.19,-199.74 1614.28,-186.76"/>
<polygon fill="black" stroke="black" points="1616.91,-184.41 1607.07,-180.48 1612.31,-189.69 1616.91,-184.41"/>
</g>
<!-- stake::initialize_validator -->
<g id="node20" class="node">
<title>stake::initialize_validator</title>
<ellipse fill="none" stroke="black" cx="1494" cy="-245" rx="77.19" ry="18"/>
<text text-anchor="middle" x="1494" y="-241.3" font-family="Times,serif" font-size="14.00">initialize_validator</text>
</g>
<!-- stake::initialize_validator&#45;&gt;stake::initialize_owner -->
<g id="edge20" class="edge">
<title>stake::initialize_validator&#45;&gt;stake::initialize_owner</title>
<path fill="none" stroke="black" d="M1513.27,-227.22C1526.7,-215.52 1544.81,-199.74 1559.72,-186.76"/>
<polygon fill="black" stroke="black" points="1561.69,-189.69 1566.93,-180.48 1557.09,-184.41 1561.69,-189.69"/>
</g>
<!-- genesis::initialize -->
<g id="node21" class="node">
<title>genesis::initialize</title>
<ellipse fill="none" stroke="black" cx="1548" cy="-641" rx="41.69" ry="18"/>
<text text-anchor="middle" x="1548" y="-637.3" font-family="Times,serif" font-size="14.00">initialize</text>
</g>
<!-- genesis::initialize&#45;&gt;reconfiguration::initialize -->
<g id="edge21" class="edge">
<title>genesis::initialize&#45;&gt;reconfiguration::initialize</title>
<path fill="none" stroke="black" d="M1590.14,-640.52C1736.3,-641.47 2218.82,-637.27 2334,-543 2351.4,-528.76 2350,-517.49 2350,-495 2350,-495 2350,-495 2350,-327 2350,-259.15 2362.38,-321.62 2166,-211 2149.89,-201.92 2132.16,-191.59 2117.32,-182.84"/>
<polygon fill="black" stroke="black" points="2119.26,-179.92 2108.87,-177.84 2115.69,-185.94 2119.26,-179.92"/>
</g>
<!-- genesis::initialize&#45;&gt;block::initialize -->
<g id="edge23" class="edge">
<title>genesis::initialize&#45;&gt;block::initialize</title>
<path fill="none" stroke="black" d="M1589.78,-640.07C1727.34,-639.82 2164.77,-635.16 2296,-587 2350.29,-567.08 2388,-552.83 2388,-495 2388,-495 2388,-495 2388,-327 2388,-255.27 2308.61,-204.66 2258.98,-180.03"/>
<polygon fill="black" stroke="black" points="2260.77,-177.01 2250.24,-175.82 2257.74,-183.31 2260.77,-177.01"/>
</g>
<!-- aptos_governance::initialize_for_verification -->
<g id="node22" class="node">
<title>aptos_governance::initialize_for_verification</title>
<ellipse fill="none" stroke="black" cx="117" cy="-328" rx="100.98" ry="18"/>
<text text-anchor="middle" x="117" y="-324.3" font-family="Times,serif" font-size="14.00">initialize_for_verification</text>
</g>
<!-- aptos_governance::initialize_for_verification&#45;&gt;aptos_governance::initialize -->
<g id="edge22" class="edge">
<title>aptos_governance::initialize_for_verification&#45;&gt;aptos_governance::initialize</title>
<path fill="none" stroke="black" d="M121.24,-309.82C123.79,-299.51 127.09,-286.14 130.01,-274.31"/>
<polygon fill="black" stroke="black" points="133.4,-275.17 132.4,-264.62 126.61,-273.49 133.4,-275.17"/>
</g>
<!-- staking_contract::create_staking_contract_with_coins&#45;&gt;staking_contract::new_staking_contracts_holder -->
<g id="edge24" class="edge">
<title>staking_contract::create_staking_contract_with_coins&#45;&gt;staking_contract::new_staking_contracts_holder</title>
<path fill="none" stroke="black" d="M2089.4,-393.02C2111.1,-380.9 2140.5,-364.47 2164.09,-351.29"/>
<polygon fill="black" stroke="black" points="2165.8,-354.35 2172.82,-346.42 2162.38,-348.24 2165.8,-354.35"/>
</g>
<!-- staking_contract::create_stake_pool -->
<g id="node30" class="node">
<title>staking_contract::create_stake_pool</title>
<ellipse fill="none" stroke="black" cx="1994" cy="-328" rx="74.19" ry="18"/>
<text text-anchor="middle" x="1994" y="-324.3" font-family="Times,serif" font-size="14.00">create_stake_pool</text>
</g>
<!-- staking_contract::create_staking_contract_with_coins&#45;&gt;staking_contract::create_stake_pool -->
<g id="edge44" class="edge">
<title>staking_contract::create_staking_contract_with_coins&#45;&gt;staking_contract::create_stake_pool</title>
<path fill="none" stroke="black" d="M2045.22,-392.82C2036.43,-381.87 2024.86,-367.46 2014.95,-355.11"/>
<polygon fill="black" stroke="black" points="2017.7,-352.94 2008.71,-347.33 2012.24,-357.32 2017.7,-352.94"/>
</g>
<!-- genesis::create_employee_validators -->
<g id="node24" class="node">
<title>genesis::create_employee_validators</title>
<ellipse fill="none" stroke="black" cx="1379" cy="-641" rx="109.68" ry="18"/>
<text text-anchor="middle" x="1379" y="-637.3" font-family="Times,serif" font-size="14.00">create_employee_validators</text>
</g>
<!-- genesis::create_employee_validators&#45;&gt;vesting::create_vesting_contract -->
<g id="edge25" class="edge">
<title>genesis::create_employee_validators&#45;&gt;vesting::create_vesting_contract</title>
<path fill="none" stroke="black" d="M1443.27,-626C1481.81,-616.76 1531.43,-603.35 1574,-587 1625.66,-567.16 1682.08,-537.25 1718.2,-516.96"/>
<polygon fill="black" stroke="black" points="1719.53,-520.23 1726.51,-512.26 1716.08,-514.14 1719.53,-520.23"/>
</g>
<!-- genesis::initialize_core_resources_and_aptos_coin -->
<g id="node25" class="node">
<title>genesis::initialize_core_resources_and_aptos_coin</title>
<ellipse fill="none" stroke="black" cx="982" cy="-716" rx="157.87" ry="18"/>
<text text-anchor="middle" x="982" y="-712.3" font-family="Times,serif" font-size="14.00">initialize_core_resources_and_aptos_coin</text>
</g>
<!-- genesis::initialize_core_resources_and_aptos_coin&#45;&gt;aptos_coin::configure_accounts_for_test -->
<g id="edge26" class="edge">
<title>genesis::initialize_core_resources_and_aptos_coin&#45;&gt;aptos_coin::configure_accounts_for_test</title>
<path fill="none" stroke="black" d="M872.42,-702.66C852.16,-699.31 831.31,-695.15 812,-690 786.18,-683.12 758.38,-672.45 735.85,-662.92"/>
<polygon fill="black" stroke="black" points="737.53,-659.84 726.96,-659.1 734.76,-666.27 737.53,-659.84"/>
</g>
<!-- aptos_account::transfer -->
<g id="node26" class="node">
<title>aptos_account::transfer</title>
<ellipse fill="none" stroke="black" cx="369" cy="-494" rx="37.89" ry="18"/>
<text text-anchor="middle" x="369" y="-490.3" font-family="Times,serif" font-size="14.00">transfer</text>
</g>
<!-- aptos_account::transfer&#45;&gt;aptos_account::create_account -->
<g id="edge27" class="edge">
<title>aptos_account::transfer&#45;&gt;aptos_account::create_account</title>
<path fill="none" stroke="black" d="M390.42,-478.89C409.17,-466.55 436.7,-448.41 458.38,-434.14"/>
<polygon fill="black" stroke="black" points="460.18,-437.14 466.61,-428.72 456.33,-431.3 460.18,-437.14"/>
</g>
<!-- aptos_account::transfer_coins -->
<g id="node27" class="node">
<title>aptos_account::transfer_coins</title>
<ellipse fill="none" stroke="black" cx="496" cy="-569" rx="60.39" ry="18"/>
<text text-anchor="middle" x="496" y="-565.3" font-family="Times,serif" font-size="14.00">transfer_coins</text>
</g>
<!-- aptos_account::transfer_coins&#45;&gt;aptos_account::deposit_coins -->
<g id="edge29" class="edge">
<title>aptos_account::transfer_coins&#45;&gt;aptos_account::deposit_coins</title>
<path fill="none" stroke="black" d="M496,-550.7C496,-542.67 496,-532.9 496,-523.8"/>
<polygon fill="black" stroke="black" points="499.5,-523.94 496,-513.94 492.5,-523.94 499.5,-523.94"/>
</g>
<!-- genesis::create_accounts -->
<g id="node28" class="node">
<title>genesis::create_accounts</title>
<ellipse fill="none" stroke="black" cx="1250" cy="-569" rx="66.89" ry="18"/>
<text text-anchor="middle" x="1250" y="-565.3" font-family="Times,serif" font-size="14.00">create_accounts</text>
</g>
<!-- genesis::create_accounts&#45;&gt;genesis::create_account -->
<g id="edge31" class="edge">
<title>genesis::create_accounts&#45;&gt;genesis::create_account</title>
<path fill="none" stroke="black" d="M1250,-550.7C1250,-542.67 1250,-532.9 1250,-523.8"/>
<polygon fill="black" stroke="black" points="1253.5,-523.94 1250,-513.94 1246.5,-523.94 1253.5,-523.94"/>
</g>
<!-- genesis::create_initialize_validator -->
<g id="node29" class="node">
<title>genesis::create_initialize_validator</title>
<ellipse fill="none" stroke="black" cx="1462" cy="-569" rx="102.88" ry="18"/>
<text text-anchor="middle" x="1462" y="-565.3" font-family="Times,serif" font-size="14.00">create_initialize_validator</text>
</g>
<!-- genesis::create_initialize_validator&#45;&gt;genesis::create_account -->
<g id="edge32" class="edge">
<title>genesis::create_initialize_validator&#45;&gt;genesis::create_account</title>
<path fill="none" stroke="black" d="M1416.78,-552.43C1382.51,-540.63 1335.43,-524.42 1300.03,-512.23"/>
<polygon fill="black" stroke="black" points="1301.47,-509.02 1290.88,-509.07 1299.19,-515.64 1301.47,-509.02"/>
</g>
<!-- genesis::create_initialize_validator&#45;&gt;stake::initialize_stake_owner -->
<g id="edge34" class="edge">
<title>genesis::create_initialize_validator&#45;&gt;stake::initialize_stake_owner</title>
<path fill="none" stroke="black" d="M1473.72,-550.69C1509.73,-497.49 1618.95,-336.18 1662.14,-272.38"/>
<polygon fill="black" stroke="black" points="1664.93,-274.5 1667.64,-264.26 1659.13,-270.58 1664.93,-274.5"/>
</g>
<!-- staking_contract::create_staking_contract -->
<g id="node32" class="node">
<title>staking_contract::create_staking_contract</title>
<ellipse fill="none" stroke="black" cx="2036" cy="-494" rx="94.48" ry="18"/>
<text text-anchor="middle" x="2036" y="-490.3" font-family="Times,serif" font-size="14.00">create_staking_contract</text>
</g>
<!-- genesis::create_initialize_validator&#45;&gt;staking_contract::create_staking_contract -->
<g id="edge45" class="edge">
<title>genesis::create_initialize_validator&#45;&gt;staking_contract::create_staking_contract</title>
<path fill="none" stroke="black" d="M1564.94,-568.51C1649.62,-567.33 1772.42,-561.94 1878,-543 1913.94,-536.55 1953.22,-524.64 1983.63,-514.3"/>
<polygon fill="black" stroke="black" points="1984.67,-517.64 1992.98,-511.06 1982.38,-511.02 1984.67,-517.64"/>
</g>
<!-- staking_contract::create_stake_pool&#45;&gt;stake::initialize_stake_owner -->
<g id="edge33" class="edge">
<title>staking_contract::create_stake_pool&#45;&gt;stake::initialize_stake_owner</title>
<path fill="none" stroke="black" d="M1944.59,-314.25C1890.64,-300.34 1804.04,-278 1744.7,-262.69"/>
<polygon fill="black" stroke="black" points="1745.61,-259.31 1735.05,-260.2 1743.86,-266.09 1745.61,-259.31"/>
</g>
<!-- genesis::initialize_for_verification -->
<g id="node31" class="node">
<title>genesis::initialize_for_verification</title>
<ellipse fill="none" stroke="black" cx="1489" cy="-716" rx="100.98" ry="18"/>
<text text-anchor="middle" x="1489" y="-712.3" font-family="Times,serif" font-size="14.00">initialize_for_verification</text>
</g>
<!-- genesis::initialize_for_verification&#45;&gt;genesis::initialize -->
<g id="edge35" class="edge">
<title>genesis::initialize_for_verification&#45;&gt;genesis::initialize</title>
<path fill="none" stroke="black" d="M1502.98,-697.7C1510.39,-688.53 1519.63,-677.11 1527.8,-666.99"/>
<polygon fill="black" stroke="black" points="1530.41,-669.33 1533.98,-659.35 1524.97,-664.93 1530.41,-669.33"/>
</g>
<!-- genesis::initialize_for_verification&#45;&gt;aptos_governance::initialize_for_verification -->
<g id="edge36" class="edge">
<title>genesis::initialize_for_verification&#45;&gt;aptos_governance::initialize_for_verification</title>
<path fill="none" stroke="black" d="M1419.06,-702.61C1405.8,-700.71 1392,-699.04 1379,-698 1361.46,-696.6 125.2,-701.63 112,-690 71.63,-654.43 96,-623.81 96,-570 96,-570 96,-570 96,-493 96,-444.94 104.98,-389.59 111.2,-357.05"/>
<polygon fill="black" stroke="black" points="114.56,-358.12 113.05,-347.63 107.69,-356.77 114.56,-358.12"/>
</g>
<!-- genesis::initialize_for_verification&#45;&gt;genesis::create_employee_validators -->
<g id="edge39" class="edge">
<title>genesis::initialize_for_verification&#45;&gt;genesis::create_employee_validators</title>
<path fill="none" stroke="black" d="M1463.76,-698.25C1448.92,-688.4 1429.93,-675.8 1413.69,-665.02"/>
<polygon fill="black" stroke="black" points="1416.03,-662.37 1405.76,-659.76 1412.16,-668.21 1416.03,-662.37"/>
</g>
<!-- genesis::initialize_for_verification&#45;&gt;genesis::create_accounts -->
<g id="edge42" class="edge">
<title>genesis::initialize_for_verification&#45;&gt;genesis::create_accounts</title>
<path fill="none" stroke="black" d="M1417.23,-703C1404.52,-701.13 1391.39,-699.37 1379,-698 1365.83,-696.54 1269.45,-699.3 1260,-690 1236.25,-666.62 1238.2,-625.83 1243.05,-598.38"/>
<polygon fill="black" stroke="black" points="1246.47,-599.14 1245.02,-588.65 1239.61,-597.75 1246.47,-599.14"/>
</g>
<!-- genesis::create_initialize_validators_with_commission -->
<g id="node35" class="node">
<title>genesis::create_initialize_validators_with_commission</title>
<ellipse fill="none" stroke="black" cx="1057" cy="-641" rx="173.57" ry="18"/>
<text text-anchor="middle" x="1057" y="-637.3" font-family="Times,serif" font-size="14.00">create_initialize_validators_with_commission</text>
</g>
<!-- genesis::initialize_for_verification&#45;&gt;genesis::create_initialize_validators_with_commission -->
<g id="edge46" class="edge">
<title>genesis::initialize_for_verification&#45;&gt;genesis::create_initialize_validators_with_commission</title>
<path fill="none" stroke="black" d="M1417.53,-702.96C1404.73,-701.09 1391.49,-699.33 1379,-698 1319.68,-691.66 1303.95,-699.2 1245,-690 1203.22,-683.48 1157.22,-671.82 1121.18,-661.62"/>
<polygon fill="black" stroke="black" points="1122.36,-658.32 1111.78,-658.92 1120.43,-665.04 1122.36,-658.32"/>
</g>
<!-- staking_contract::create_staking_contract&#45;&gt;staking_contract::create_staking_contract_with_coins -->
<g id="edge37" class="edge">
<title>staking_contract::create_staking_contract&#45;&gt;staking_contract::create_staking_contract_with_coins</title>
<path fill="none" stroke="black" d="M2040.88,-475.82C2043.82,-465.48 2047.63,-452.05 2051,-440.18"/>
<polygon fill="black" stroke="black" points="2054.27,-441.46 2053.64,-430.89 2047.54,-439.55 2054.27,-441.46"/>
</g>
<!-- aptos_account::batch_transfer -->
<g id="node33" class="node">
<title>aptos_account::batch_transfer</title>
<ellipse fill="none" stroke="black" cx="356" cy="-569" rx="61.19" ry="18"/>
<text text-anchor="middle" x="356" y="-565.3" font-family="Times,serif" font-size="14.00">batch_transfer</text>
</g>
<!-- aptos_account::batch_transfer&#45;&gt;aptos_account::transfer -->
<g id="edge40" class="edge">
<title>aptos_account::batch_transfer&#45;&gt;aptos_account::transfer</title>
<path fill="none" stroke="black" d="M359.08,-550.7C360.53,-542.58 362.29,-532.68 363.93,-523.5"/>
<polygon fill="black" stroke="black" points="367.32,-524.38 365.63,-513.92 360.43,-523.15 367.32,-524.38"/>
</g>
<!-- aptos_account::batch_transfer_coins -->
<g id="node34" class="node">
<title>aptos_account::batch_transfer_coins</title>
<ellipse fill="none" stroke="black" cx="472" cy="-641" rx="83.69" ry="18"/>
<text text-anchor="middle" x="472" y="-637.3" font-family="Times,serif" font-size="14.00">batch_transfer_coins</text>
</g>
<!-- aptos_account::batch_transfer_coins&#45;&gt;aptos_account::transfer_coins -->
<g id="edge41" class="edge">
<title>aptos_account::batch_transfer_coins&#45;&gt;aptos_account::transfer_coins</title>
<path fill="none" stroke="black" d="M477.93,-622.7C480.49,-615.24 483.55,-606.32 486.41,-597.97"/>
<polygon fill="black" stroke="black" points="489.71,-599.13 489.64,-588.54 483.09,-596.86 489.71,-599.13"/>
</g>
<!-- genesis::create_initialize_validators_with_commission&#45;&gt;genesis::create_initialize_validator -->
<g id="edge43" class="edge">
<title>genesis::create_initialize_validators_with_commission&#45;&gt;genesis::create_initialize_validator</title>
<path fill="none" stroke="black" d="M1143.88,-624.98C1213.68,-612.92 1311.03,-596.09 1379.6,-584.24"/>
<polygon fill="black" stroke="black" points="1380.03,-587.72 1389.29,-582.57 1378.84,-580.82 1380.03,-587.72"/>
</g>
<!-- genesis::create_initialize_validators -->
<g id="node36" class="node">
<title>genesis::create_initialize_validators</title>
<ellipse fill="none" stroke="black" cx="1264" cy="-716" rx="105.88" ry="18"/>
<text text-anchor="middle" x="1264" y="-712.3" font-family="Times,serif" font-size="14.00">create_initialize_validators</text>
</g>
<!-- genesis::create_initialize_validators&#45;&gt;genesis::create_initialize_validators_with_commission -->
<g id="edge47" class="edge">
<title>genesis::create_initialize_validators&#45;&gt;genesis::create_initialize_validators_with_commission</title>
<path fill="none" stroke="black" d="M1219.34,-699.25C1188.77,-688.47 1147.96,-674.08 1114.9,-662.42"/>
<polygon fill="black" stroke="black" points="1116.48,-659.27 1105.89,-659.24 1114.16,-665.87 1116.48,-659.27"/>
</g>
</g>
</svg>
