<?xml version="1.0" encoding="UTF-8" standalone="no"?>
<!DOCTYPE svg PUBLIC "-//W3C//DTD SVG 1.1//EN"
 "http://www.w3.org/Graphics/SVG/1.1/DTD/svg11.dtd">
<!-- Generated by graphviz version 7.0.4 (20221203.1631)
 -->
<!-- Title: G Pages: 1 -->
<svg width="1403pt" height="620pt"
 viewBox="0.00 0.00 1403.09 620.00" xmlns="http://www.w3.org/2000/svg" xmlns:xlink="http://www.w3.org/1999/xlink">
<g id="graph0" class="graph" transform="scale(1 1) rotate(0) translate(4 616)">
<title>G</title>
<polygon fill="white" stroke="none" points="-4,4 -4,-616 1399.09,-616 1399.09,4 -4,4"/>
<!-- aggregator_factory -->
<g id="node1" class="node">
<title>aggregator_factory</title>
<ellipse fill="none" stroke="black" cx="1167.09" cy="-18" rx="77.19" ry="18"/>
<text text-anchor="middle" x="1167.09" y="-14.3" font-family="Times,serif" font-size="14.00">aggregator_factory</text>
</g>
<!-- optional_aggregator -->
<g id="node2" class="node">
<title>optional_aggregator</title>
<ellipse fill="none" stroke="black" cx="1058.09" cy="-90" rx="81.49" ry="18"/>
<text text-anchor="middle" x="1058.09" y="-86.3" font-family="Times,serif" font-size="14.00">optional_aggregator</text>
</g>
<!-- optional_aggregator&#45;&gt;aggregator_factory -->
<g id="edge1" class="edge">
<title>optional_aggregator&#45;&gt;aggregator_factory</title>
<path fill="none" stroke="black" d="M1083.65,-72.59C1098.14,-63.28 1116.47,-51.51 1132.25,-41.37"/>
<polygon fill="black" stroke="black" points="1133.9,-44.48 1140.42,-36.13 1130.12,-38.59 1133.9,-44.48"/>
</g>
<!-- coin -->
<g id="node3" class="node">
<title>coin</title>
<ellipse fill="none" stroke="black" cx="1058.09" cy="-162" rx="27" ry="18"/>
<text text-anchor="middle" x="1058.09" y="-158.3" font-family="Times,serif" font-size="14.00">coin</text>
</g>
<!-- coin&#45;&gt;aggregator_factory -->
<g id="edge2" class="edge">
<title>coin&#45;&gt;aggregator_factory</title>
<path fill="none" stroke="black" d="M1081.8,-153.25C1102.51,-145.23 1131.77,-130.65 1148.09,-108 1160.67,-90.55 1165.24,-66.48 1166.77,-47.77"/>
<polygon fill="black" stroke="black" points="1170.26,-48.06 1167.3,-37.89 1163.27,-47.68 1170.26,-48.06"/>
</g>
<!-- coin&#45;&gt;optional_aggregator -->
<g id="edge4" class="edge">
<title>coin&#45;&gt;optional_aggregator</title>
<path fill="none" stroke="black" d="M1058.09,-143.7C1058.09,-136.41 1058.09,-127.73 1058.09,-119.54"/>
<polygon fill="black" stroke="black" points="1061.59,-119.62 1058.09,-109.62 1054.59,-119.62 1061.59,-119.62"/>
</g>
<!-- genesis -->
<g id="node4" class="node">
<title>genesis</title>
<ellipse fill="none" stroke="black" cx="690.09" cy="-594" rx="36.29" ry="18"/>
<text text-anchor="middle" x="690.09" y="-590.3" font-family="Times,serif" font-size="14.00">genesis</text>
</g>
<!-- genesis&#45;&gt;aggregator_factory -->
<g id="edge3" class="edge">
<title>genesis&#45;&gt;aggregator_factory</title>
<path fill="none" stroke="black" d="M726.58,-592.84C841.38,-591.87 1193.75,-585.19 1297.09,-540 1351,-516.43 1395.09,-509.84 1395.09,-451 1395.09,-451 1395.09,-451 1395.09,-161 1395.09,-86.02 1305.14,-49.21 1238.24,-32.2"/>
<polygon fill="black" stroke="black" points="1239.31,-28.86 1228.77,-29.9 1237.66,-35.66 1239.31,-28.86"/>
</g>
<!-- genesis&#45;&gt;coin -->
<g id="edge13" class="edge">
<title>genesis&#45;&gt;coin</title>
<path fill="none" stroke="black" d="M726.43,-593.09C865.62,-592.47 1357.09,-581.09 1357.09,-451 1357.09,-451 1357.09,-451 1357.09,-305 1357.09,-191.05 1177.71,-168.43 1096.83,-164.02"/>
<polygon fill="black" stroke="black" points="1097.09,-160.53 1086.93,-163.56 1096.76,-167.52 1097.09,-160.53"/>
</g>
<!-- aptos_coin -->
<g id="node5" class="node">
<title>aptos_coin</title>
<ellipse fill="none" stroke="black" cx="884.09" cy="-234" rx="48.99" ry="18"/>
<text text-anchor="middle" x="884.09" y="-230.3" font-family="Times,serif" font-size="14.00">aptos_coin</text>
</g>
<!-- genesis&#45;&gt;aptos_coin -->
<g id="edge23" class="edge">
<title>genesis&#45;&gt;aptos_coin</title>
<path fill="none" stroke="black" d="M695.88,-576.03C701.2,-557.95 707.37,-528.59 701.09,-504 683.98,-436.99 606.6,-419.36 642.09,-360 664.06,-323.26 775.97,-275.98 839.63,-251.43"/>
<polygon fill="black" stroke="black" points="840.67,-254.78 848.76,-247.95 838.17,-248.24 840.67,-254.78"/>
</g>
<!-- stake -->
<g id="node7" class="node">
<title>stake</title>
<ellipse fill="none" stroke="black" cx="636.09" cy="-306" rx="28.7" ry="18"/>
<text text-anchor="middle" x="636.09" y="-302.3" font-family="Times,serif" font-size="14.00">stake</text>
</g>
<!-- genesis&#45;&gt;stake -->
<g id="edge32" class="edge">
<title>genesis&#45;&gt;stake</title>
<path fill="none" stroke="black" d="M653.58,-591.85C544.33,-588.03 225.68,-574.03 195.09,-540 70.49,-401.35 467.32,-331.12 596.71,-312.29"/>
<polygon fill="black" stroke="black" points="597.12,-315.76 606.53,-310.89 596.13,-308.83 597.12,-315.76"/>
</g>
<!-- transaction_fee -->
<g id="node8" class="node">
<title>transaction_fee</title>
<ellipse fill="none" stroke="black" cx="715.09" cy="-378" rx="64.19" ry="18"/>
<text text-anchor="middle" x="715.09" y="-374.3" font-family="Times,serif" font-size="14.00">transaction_fee</text>
</g>
<!-- genesis&#45;&gt;transaction_fee -->
<g id="edge37" class="edge">
<title>genesis&#45;&gt;transaction_fee</title>
<path fill="none" stroke="black" d="M707.29,-578.19C717.2,-568.48 728.73,-554.85 734.09,-540 739.53,-524.95 737.41,-519.65 734.09,-504 730.46,-486.87 722.02,-485.06 718.09,-468 713.53,-448.17 712.87,-425.2 713.3,-407.57"/>
<polygon fill="black" stroke="black" points="716.79,-407.95 713.68,-397.83 709.79,-407.68 716.79,-407.95"/>
</g>
<!-- aptos_governance -->
<g id="node9" class="node">
<title>aptos_governance</title>
<ellipse fill="none" stroke="black" cx="74.09" cy="-522" rx="74.19" ry="18"/>
<text text-anchor="middle" x="74.09" y="-518.3" font-family="Times,serif" font-size="14.00">aptos_governance</text>
</g>
<!-- genesis&#45;&gt;aptos_governance -->
<g id="edge38" class="edge">
<title>genesis&#45;&gt;aptos_governance</title>
<path fill="none" stroke="black" d="M654.1,-590.52C568.52,-584.38 346.23,-566.97 162.09,-540 154.94,-538.95 147.48,-537.72 140.06,-536.42"/>
<polygon fill="black" stroke="black" points="140.84,-533 130.37,-534.65 139.59,-539.89 140.84,-533"/>
</g>
<!-- staking_contract -->
<g id="node10" class="node">
<title>staking_contract</title>
<ellipse fill="none" stroke="black" cx="980.09" cy="-378" rx="68.79" ry="18"/>
<text text-anchor="middle" x="980.09" y="-374.3" font-family="Times,serif" font-size="14.00">staking_contract</text>
</g>
<!-- genesis&#45;&gt;staking_contract -->
<g id="edge40" class="edge">
<title>genesis&#45;&gt;staking_contract</title>
<path fill="none" stroke="black" d="M718.24,-582.37C763.49,-564.23 853.48,-523.8 914.09,-468 934.01,-449.67 951.97,-424.6 964.11,-405.74"/>
<polygon fill="black" stroke="black" points="966.91,-407.86 969.26,-397.53 960.98,-404.14 966.91,-407.86"/>
</g>
<!-- vesting -->
<g id="node11" class="node">
<title>vesting</title>
<ellipse fill="none" stroke="black" cx="1115.09" cy="-450" rx="36.29" ry="18"/>
<text text-anchor="middle" x="1115.09" y="-446.3" font-family="Times,serif" font-size="14.00">vesting</text>
</g>
<!-- genesis&#45;&gt;vesting -->
<g id="edge42" class="edge">
<title>genesis&#45;&gt;vesting</title>
<path fill="none" stroke="black" d="M726.24,-591.23C824.91,-586.03 1093.18,-569.31 1119.09,-540 1133.5,-523.71 1130.87,-498.46 1125.58,-479.01"/>
<polygon fill="black" stroke="black" points="1128.93,-478.01 1122.61,-469.51 1122.25,-480.1 1128.93,-478.01"/>
</g>
<!-- transaction_validation -->
<g id="node12" class="node">
<title>transaction_validation</title>
<ellipse fill="none" stroke="black" cx="816.09" cy="-450" rx="89.08" ry="18"/>
<text text-anchor="middle" x="816.09" y="-446.3" font-family="Times,serif" font-size="14.00">transaction_validation</text>
</g>
<!-- genesis&#45;&gt;transaction_validation -->
<g id="edge44" class="edge">
<title>genesis&#45;&gt;transaction_validation</title>
<path fill="none" stroke="black" d="M716,-580.93C733.59,-571.7 756.41,-557.59 772.09,-540 787.94,-522.23 799.49,-497.73 806.77,-478.93"/>
<polygon fill="black" stroke="black" points="809.98,-480.36 810.14,-469.77 803.41,-477.95 809.98,-480.36"/>
</g>
<!-- reconfiguration -->
<g id="node15" class="node">
<title>reconfiguration</title>
<ellipse fill="none" stroke="black" cx="492.09" cy="-450" rx="64.99" ry="18"/>
<text text-anchor="middle" x="492.09" y="-446.3" font-family="Times,serif" font-size="14.00">reconfiguration</text>
</g>
<!-- genesis&#45;&gt;reconfiguration -->
<g id="edge50" class="edge">
<title>genesis&#45;&gt;reconfiguration</title>
<path fill="none" stroke="black" d="M670.34,-578.67C656.3,-568.29 637.18,-553.73 621.09,-540 603.4,-524.89 601.71,-517.95 583.09,-504 567.22,-492.11 548.46,-480.78 532.11,-471.67"/>
<polygon fill="black" stroke="black" points="534.06,-468.75 523.61,-467.02 530.71,-474.89 534.06,-468.75"/>
</g>
<!-- block -->
<g id="node16" class="node">
<title>block</title>
<ellipse fill="none" stroke="black" cx="661.09" cy="-522" rx="30.59" ry="18"/>
<text text-anchor="middle" x="661.09" y="-518.3" font-family="Times,serif" font-size="14.00">block</text>
</g>
<!-- genesis&#45;&gt;block -->
<g id="edge51" class="edge">
<title>genesis&#45;&gt;block</title>
<path fill="none" stroke="black" d="M683.07,-576.05C679.87,-568.32 675.99,-558.96 672.39,-550.27"/>
<polygon fill="black" stroke="black" points="675.69,-549.09 668.63,-541.19 669.22,-551.77 675.69,-549.09"/>
</g>
<!-- consensus_config -->
<g id="node18" class="node">
<title>consensus_config</title>
<ellipse fill="none" stroke="black" cx="277.09" cy="-522" rx="73.39" ry="18"/>
<text text-anchor="middle" x="277.09" y="-518.3" font-family="Times,serif" font-size="14.00">consensus_config</text>
</g>
<!-- genesis&#45;&gt;consensus_config -->
<g id="edge52" class="edge">
<title>genesis&#45;&gt;consensus_config</title>
<path fill="none" stroke="black" d="M655.7,-588.02C595.45,-579.18 466.99,-559.81 359.09,-540 353.52,-538.98 347.74,-537.87 341.94,-536.73"/>
<polygon fill="black" stroke="black" points="342.81,-533.33 332.32,-534.8 341.44,-540.2 342.81,-533.33"/>
</g>
<!-- gas_schedule -->
<g id="node19" class="node">
<title>gas_schedule</title>
<ellipse fill="none" stroke="black" cx="426.09" cy="-522" rx="57.69" ry="18"/>
<text text-anchor="middle" x="426.09" y="-518.3" font-family="Times,serif" font-size="14.00">gas_schedule</text>
</g>
<!-- genesis&#45;&gt;gas_schedule -->
<g id="edge53" class="edge">
<title>genesis&#45;&gt;gas_schedule</title>
<path fill="none" stroke="black" d="M658.51,-584.63C614.43,-572.94 533.83,-551.57 480.11,-537.32"/>
<polygon fill="black" stroke="black" points="481.1,-533.96 470.54,-534.78 479.3,-540.73 481.1,-533.96"/>
</g>
<!-- version -->
<g id="node20" class="node">
<title>version</title>
<ellipse fill="none" stroke="black" cx="538.09" cy="-522" rx="36.29" ry="18"/>
<text text-anchor="middle" x="538.09" y="-518.3" font-family="Times,serif" font-size="14.00">version</text>
</g>
<!-- genesis&#45;&gt;version -->
<g id="edge54" class="edge">
<title>genesis&#45;&gt;version</title>
<path fill="none" stroke="black" d="M664.31,-581.13C639.52,-569.71 601.84,-552.36 574.1,-539.58"/>
<polygon fill="black" stroke="black" points="575.93,-536.57 565.38,-535.57 573,-542.93 575.93,-536.57"/>
</g>
<!-- aptos_coin&#45;&gt;coin -->
<g id="edge5" class="edge">
<title>aptos_coin&#45;&gt;coin</title>
<path fill="none" stroke="black" d="M916.41,-220C947.36,-207.55 993.83,-188.85 1025.02,-176.3"/>
<polygon fill="black" stroke="black" points="1025.99,-179.69 1033.96,-172.71 1023.38,-173.19 1025.99,-179.69"/>
</g>
<!-- aptos_account -->
<g id="node6" class="node">
<title>aptos_account</title>
<ellipse fill="none" stroke="black" cx="1230.09" cy="-306" rx="61.19" ry="18"/>
<text text-anchor="middle" x="1230.09" y="-302.3" font-family="Times,serif" font-size="14.00">aptos_account</text>
</g>
<!-- aptos_account&#45;&gt;coin -->
<g id="edge6" class="edge">
<title>aptos_account&#45;&gt;coin</title>
<path fill="none" stroke="black" d="M1218.67,-287.95C1205.18,-268.72 1181.22,-237.36 1155.09,-216 1135.66,-200.12 1110.77,-186.63 1091.07,-177.24"/>
<polygon fill="black" stroke="black" points="1092.64,-174.11 1082.1,-173.08 1089.7,-180.46 1092.64,-174.11"/>
</g>
<!-- aptos_account&#45;&gt;aptos_coin -->
<g id="edge16" class="edge">
<title>aptos_account&#45;&gt;aptos_coin</title>
<path fill="none" stroke="black" d="M1176.67,-296.86C1118.59,-287.62 1023.21,-271.3 942.09,-252 938.73,-251.2 935.27,-250.32 931.8,-249.41"/>
<polygon fill="black" stroke="black" points="932.79,-246.05 922.22,-246.77 930.93,-252.8 932.79,-246.05"/>
</g>
<!-- stake&#45;&gt;coin -->
<g id="edge7" class="edge">
<title>stake&#45;&gt;coin</title>
<path fill="none" stroke="black" d="M639.32,-287.8C644.16,-267.19 655.38,-233.28 679.09,-216 732.82,-176.84 934.15,-166.52 1019.49,-163.88"/>
<polygon fill="black" stroke="black" points="1019.56,-167.38 1029.45,-163.59 1019.36,-160.38 1019.56,-167.38"/>
</g>
<!-- stake&#45;&gt;aptos_coin -->
<g id="edge17" class="edge">
<title>stake&#45;&gt;aptos_coin</title>
<path fill="none" stroke="black" d="M661.7,-297.77C702.51,-286.25 783.02,-263.53 835.15,-248.81"/>
<polygon fill="black" stroke="black" points="836.02,-252.21 844.69,-246.12 834.11,-245.47 836.02,-252.21"/>
</g>
<!-- transaction_fee&#45;&gt;coin -->
<g id="edge8" class="edge">
<title>transaction_fee&#45;&gt;coin</title>
<path fill="none" stroke="black" d="M718.22,-359.73C725.22,-326.32 745.44,-252.87 793.09,-216 828.11,-188.9 955.55,-172.95 1020.09,-166.44"/>
<polygon fill="black" stroke="black" points="1020.26,-169.94 1029.87,-165.48 1019.57,-162.98 1020.26,-169.94"/>
</g>
<!-- transaction_fee&#45;&gt;aptos_coin -->
<g id="edge18" class="edge">
<title>transaction_fee&#45;&gt;aptos_coin</title>
<path fill="none" stroke="black" d="M734.81,-360.43C764.86,-335.18 822.24,-286.97 856.44,-258.23"/>
<polygon fill="black" stroke="black" points="858.46,-261.11 863.86,-252 853.95,-255.75 858.46,-261.11"/>
</g>
<!-- transaction_fee&#45;&gt;stake -->
<g id="edge26" class="edge">
<title>transaction_fee&#45;&gt;stake</title>
<path fill="none" stroke="black" d="M696.37,-360.41C685.68,-350.94 672.15,-338.95 660.62,-328.74"/>
<polygon fill="black" stroke="black" points="663.21,-326.35 653.41,-322.34 658.57,-331.59 663.21,-326.35"/>
</g>
<!-- aptos_governance&#45;&gt;coin -->
<g id="edge9" class="edge">
<title>aptos_governance&#45;&gt;coin</title>
<path fill="none" stroke="black" d="M71.67,-503.55C68.16,-476.8 62.09,-424.03 62.09,-379 62.09,-379 62.09,-379 62.09,-305 62.09,-206.45 836.14,-171.3 1019.49,-164.36"/>
<polygon fill="black" stroke="black" points="1019.56,-167.86 1029.42,-163.99 1019.3,-160.86 1019.56,-167.86"/>
</g>
<!-- aptos_governance&#45;&gt;aptos_coin -->
<g id="edge19" class="edge">
<title>aptos_governance&#45;&gt;aptos_coin</title>
<path fill="none" stroke="black" d="M74.86,-503.74C77.34,-470.33 87.82,-396.9 132.09,-360 237.41,-272.21 664.83,-244.65 823.99,-237.33"/>
<polygon fill="black" stroke="black" points="824.08,-240.83 833.92,-236.88 823.77,-233.83 824.08,-240.83"/>
</g>
<!-- aptos_governance&#45;&gt;stake -->
<g id="edge28" class="edge">
<title>aptos_governance&#45;&gt;stake</title>
<path fill="none" stroke="black" d="M88.48,-504.04C96.6,-493.96 106.6,-480.71 114.09,-468 140.75,-422.74 119.71,-391.03 162.09,-360 230.7,-309.77 494.28,-306.02 595.85,-306.51"/>
<polygon fill="black" stroke="black" points="595.6,-310 605.62,-306.57 595.65,-303 595.6,-310"/>
</g>
<!-- aptos_governance&#45;&gt;reconfiguration -->
<g id="edge45" class="edge">
<title>aptos_governance&#45;&gt;reconfiguration</title>
<path fill="none" stroke="black" d="M133.98,-510.97C211.6,-497.97 346.47,-475.39 426.69,-461.95"/>
<polygon fill="black" stroke="black" points="426.86,-465.47 436.14,-460.37 425.7,-458.57 426.86,-465.47"/>
</g>
<!-- staking_contract&#45;&gt;coin -->
<g id="edge10" class="edge">
<title>staking_contract&#45;&gt;coin</title>
<path fill="none" stroke="black" d="M1042.5,-369.98C1071.76,-363.21 1104.09,-349.94 1122.09,-324 1152.82,-279.73 1109.2,-218.57 1080.24,-185.84"/>
<polygon fill="black" stroke="black" points="1082.88,-183.55 1073.55,-178.52 1077.71,-188.27 1082.88,-183.55"/>
</g>
<!-- staking_contract&#45;&gt;aptos_coin -->
<g id="edge20" class="edge">
<title>staking_contract&#45;&gt;aptos_coin</title>
<path fill="none" stroke="black" d="M960.57,-360.45C949.78,-350.62 936.67,-337.47 927.09,-324 913.59,-305 902.32,-281.11 894.7,-262.87"/>
<polygon fill="black" stroke="black" points="898,-261.7 891.01,-253.74 891.51,-264.32 898,-261.7"/>
</g>
<!-- staking_contract&#45;&gt;stake -->
<g id="edge30" class="edge">
<title>staking_contract&#45;&gt;stake</title>
<path fill="none" stroke="black" d="M927.1,-366.22C857.16,-351.98 735.74,-327.28 674.2,-314.75"/>
<polygon fill="black" stroke="black" points="675.05,-311.36 664.56,-312.79 673.66,-318.22 675.05,-311.36"/>
</g>
<!-- vesting&#45;&gt;coin -->
<g id="edge11" class="edge">
<title>vesting&#45;&gt;coin</title>
<path fill="none" stroke="black" d="M1145.07,-439.48C1207.19,-418.05 1340.89,-362.02 1300.09,-288 1258.24,-212.06 1152.18,-180.78 1095.37,-169.14"/>
<polygon fill="black" stroke="black" points="1096.34,-165.76 1085.86,-167.29 1095.01,-172.63 1096.34,-165.76"/>
</g>
<!-- vesting&#45;&gt;aptos_coin -->
<g id="edge21" class="edge">
<title>vesting&#45;&gt;aptos_coin</title>
<path fill="none" stroke="black" d="M1114.83,-431.77C1113.58,-411.78 1108.45,-379.12 1089.09,-360 1046.75,-318.17 1010.27,-356.03 960.09,-324 953.18,-319.59 924.78,-285.37 904.73,-260.68"/>
<polygon fill="black" stroke="black" points="907.48,-258.51 898.47,-252.94 902.04,-262.92 907.48,-258.51"/>
</g>
<!-- vesting&#45;&gt;aptos_account -->
<g id="edge25" class="edge">
<title>vesting&#45;&gt;aptos_account</title>
<path fill="none" stroke="black" d="M1128.06,-432.99C1147.89,-408.51 1185.9,-361.56 1209.52,-332.4"/>
<polygon fill="black" stroke="black" points="1212.11,-334.76 1215.69,-324.79 1206.67,-330.36 1212.11,-334.76"/>
</g>
<!-- vesting&#45;&gt;stake -->
<g id="edge31" class="edge">
<title>vesting&#45;&gt;stake</title>
<path fill="none" stroke="black" d="M1109.33,-431.98C1101.34,-411.23 1084.78,-376.85 1058.09,-360 995.13,-320.26 769.5,-310.24 676.55,-307.78"/>
<polygon fill="black" stroke="black" points="676.72,-304.28 666.63,-307.53 676.54,-311.28 676.72,-304.28"/>
</g>
<!-- vesting&#45;&gt;staking_contract -->
<g id="edge39" class="edge">
<title>vesting&#45;&gt;staking_contract</title>
<path fill="none" stroke="black" d="M1090.65,-436.32C1071.01,-426.14 1043.03,-411.64 1020.14,-399.76"/>
<polygon fill="black" stroke="black" points="1021.85,-396.71 1011.37,-395.22 1018.63,-402.93 1021.85,-396.71"/>
</g>
<!-- transaction_validation&#45;&gt;coin -->
<g id="edge12" class="edge">
<title>transaction_validation&#45;&gt;coin</title>
<path fill="none" stroke="black" d="M810.53,-431.61C798.14,-389.2 773.36,-279.31 826.09,-216 850.57,-186.61 961.01,-172.01 1020.25,-166.18"/>
<polygon fill="black" stroke="black" points="1020.24,-169.69 1029.87,-165.27 1019.58,-162.73 1020.24,-169.69"/>
</g>
<!-- transaction_validation&#45;&gt;aptos_coin -->
<g id="edge22" class="edge">
<title>transaction_validation&#45;&gt;aptos_coin</title>
<path fill="none" stroke="black" d="M821.54,-431.85C833.26,-394.99 860.92,-307.92 875.21,-262.96"/>
<polygon fill="black" stroke="black" points="878.47,-264.27 878.16,-253.67 871.8,-262.15 878.47,-264.27"/>
</g>
<!-- transaction_validation&#45;&gt;transaction_fee -->
<g id="edge36" class="edge">
<title>transaction_validation&#45;&gt;transaction_fee</title>
<path fill="none" stroke="black" d="M791.9,-432.23C778.59,-423.01 761.9,-411.44 747.48,-401.45"/>
<polygon fill="black" stroke="black" points="749.85,-398.83 739.64,-396.01 745.86,-404.58 749.85,-398.83"/>
</g>
<!-- managed_coin -->
<g id="node13" class="node">
<title>managed_coin</title>
<ellipse fill="none" stroke="black" cx="1013.09" cy="-234" rx="62.29" ry="18"/>
<text text-anchor="middle" x="1013.09" y="-230.3" font-family="Times,serif" font-size="14.00">managed_coin</text>
</g>
<!-- managed_coin&#45;&gt;coin -->
<g id="edge14" class="edge">
<title>managed_coin&#45;&gt;coin</title>
<path fill="none" stroke="black" d="M1023.99,-216.05C1029.34,-207.73 1035.89,-197.54 1041.82,-188.32"/>
<polygon fill="black" stroke="black" points="1044.64,-190.41 1047.1,-180.1 1038.75,-186.62 1044.64,-190.41"/>
</g>
<!-- resource_account -->
<g id="node14" class="node">
<title>resource_account</title>
<ellipse fill="none" stroke="black" cx="1041.09" cy="-306" rx="72.29" ry="18"/>
<text text-anchor="middle" x="1041.09" y="-302.3" font-family="Times,serif" font-size="14.00">resource_account</text>
</g>
<!-- resource_account&#45;&gt;coin -->
<g id="edge15" class="edge">
<title>resource_account&#45;&gt;coin</title>
<path fill="none" stroke="black" d="M1059.68,-288.3C1068.94,-278.72 1079.18,-265.85 1084.09,-252 1091.52,-231.05 1083.37,-206.8 1074.28,-188.91"/>
<polygon fill="black" stroke="black" points="1077.41,-187.32 1069.52,-180.25 1071.28,-190.7 1077.41,-187.32"/>
</g>
<!-- resource_account&#45;&gt;aptos_coin -->
<g id="edge24" class="edge">
<title>resource_account&#45;&gt;aptos_coin</title>
<path fill="none" stroke="black" d="M1007.03,-289.81C982.88,-279.04 950.37,-264.55 924.85,-253.17"/>
<polygon fill="black" stroke="black" points="926.32,-250 915.76,-249.12 923.47,-256.39 926.32,-250"/>
</g>
<!-- reconfiguration&#45;&gt;stake -->
<g id="edge27" class="edge">
<title>reconfiguration&#45;&gt;stake</title>
<path fill="none" stroke="black" d="M505.62,-432.2C520.78,-413.75 546.49,-383.59 571.09,-360 583.07,-348.52 597.26,-336.75 609.33,-327.24"/>
<polygon fill="black" stroke="black" points="611.13,-330.27 616.87,-321.37 606.83,-324.75 611.13,-330.27"/>
</g>
<!-- reconfiguration&#45;&gt;transaction_fee -->
<g id="edge34" class="edge">
<title>reconfiguration&#45;&gt;transaction_fee</title>
<path fill="none" stroke="black" d="M534.04,-435.83C570.4,-424.42 623.2,-407.84 662.41,-395.54"/>
<polygon fill="black" stroke="black" points="663.4,-398.9 671.89,-392.56 661.3,-392.22 663.4,-398.9"/>
</g>
<!-- block&#45;&gt;stake -->
<g id="edge29" class="edge">
<title>block&#45;&gt;stake</title>
<path fill="none" stroke="black" d="M641.9,-507.68C629.99,-498.17 615.73,-484.23 609.09,-468 590.94,-423.57 597.89,-406.67 609.09,-360 611.33,-350.68 615.49,-341.15 619.89,-332.79"/>
<polygon fill="black" stroke="black" points="622.85,-334.67 624.72,-324.25 616.75,-331.23 622.85,-334.67"/>
</g>
<!-- block&#45;&gt;transaction_fee -->
<g id="edge35" class="edge">
<title>block&#45;&gt;transaction_fee</title>
<path fill="none" stroke="black" d="M664.38,-503.85C668.17,-485.62 675.19,-456.13 685.09,-432 688.7,-423.2 693.48,-414.03 698.17,-405.85"/>
<polygon fill="black" stroke="black" points="701.08,-407.8 703.17,-397.41 695.06,-404.22 701.08,-407.8"/>
</g>
<!-- block&#45;&gt;reconfiguration -->
<g id="edge46" class="edge">
<title>block&#45;&gt;reconfiguration</title>
<path fill="none" stroke="black" d="M636.52,-510.82C610.69,-500.12 569.48,-483.05 537.68,-469.88"/>
<polygon fill="black" stroke="black" points="539.26,-466.75 528.69,-466.16 536.59,-473.22 539.26,-466.75"/>
</g>
<!-- staking_proxy -->
<g id="node17" class="node">
<title>staking_proxy</title>
<ellipse fill="none" stroke="black" cx="1049.09" cy="-522" rx="61.19" ry="18"/>
<text text-anchor="middle" x="1049.09" y="-518.3" font-family="Times,serif" font-size="14.00">staking_proxy</text>
</g>
<!-- staking_proxy&#45;&gt;stake -->
<g id="edge33" class="edge">
<title>staking_proxy&#45;&gt;stake</title>
<path fill="none" stroke="black" d="M1027.12,-504.78C983.51,-473.19 882.09,-402.81 788.09,-360 749.81,-342.57 704,-327.31 672.75,-317.7"/>
<polygon fill="black" stroke="black" points="673.97,-314.41 663.38,-314.86 671.94,-321.11 673.97,-314.41"/>
</g>
<!-- staking_proxy&#45;&gt;staking_contract -->
<g id="edge41" class="edge">
<title>staking_proxy&#45;&gt;staking_contract</title>
<path fill="none" stroke="black" d="M1040.77,-503.87C1029.01,-479.67 1007.41,-435.21 993.4,-406.39"/>
<polygon fill="black" stroke="black" points="996.63,-405.02 989.11,-397.55 990.33,-408.07 996.63,-405.02"/>
</g>
<!-- staking_proxy&#45;&gt;vesting -->
<g id="edge43" class="edge">
<title>staking_proxy&#45;&gt;vesting</title>
<path fill="none" stroke="black" d="M1064.73,-504.41C1073.11,-495.53 1083.57,-484.44 1092.78,-474.67"/>
<polygon fill="black" stroke="black" points="1095.12,-477.29 1099.43,-467.61 1090.02,-472.49 1095.12,-477.29"/>
</g>
<!-- consensus_config&#45;&gt;reconfiguration -->
<g id="edge47" class="edge">
<title>consensus_config&#45;&gt;reconfiguration</title>
<path fill="none" stroke="black" d="M320.09,-507C354.77,-495.71 403.68,-479.79 440.48,-467.8"/>
<polygon fill="black" stroke="black" points="441.14,-471.27 449.56,-464.85 438.97,-464.62 441.14,-471.27"/>
</g>
<!-- gas_schedule&#45;&gt;reconfiguration -->
<g id="edge48" class="edge">
<title>gas_schedule&#45;&gt;reconfiguration</title>
<path fill="none" stroke="black" d="M441.73,-504.41C449.79,-495.87 459.77,-485.28 468.72,-475.79"/>
<polygon fill="black" stroke="black" points="471.21,-478.25 475.53,-468.57 466.12,-473.45 471.21,-478.25"/>
</g>
<!-- version&#45;&gt;reconfiguration -->
<g id="edge49" class="edge">
<title>version&#45;&gt;reconfiguration</title>
<path fill="none" stroke="black" d="M527.19,-504.41C521.89,-496.34 515.38,-486.43 509.41,-477.35"/>
<polygon fill="black" stroke="black" points="512.48,-475.66 504.07,-469.22 506.63,-479.5 512.48,-475.66"/>
</g>
</g>
</svg>
