<?xml version="1.0" encoding="UTF-8" standalone="no"?>
<!DOCTYPE svg PUBLIC "-//W3C//DTD SVG 1.1//EN"
 "http://www.w3.org/Graphics/SVG/1.1/DTD/svg11.dtd">
<!-- Generated by graphviz version 7.0.4 (20221203.1631)
 -->
<!-- Title: G Pages: 1 -->
<svg width="358pt" height="188pt"
 viewBox="0.00 0.00 357.56 188.00" xmlns="http://www.w3.org/2000/svg" xmlns:xlink="http://www.w3.org/1999/xlink">
<g id="graph0" class="graph" transform="scale(1 1) rotate(0) translate(4 184)">
<title>G</title>
<polygon fill="white" stroke="none" points="-4,4 -4,-184 353.56,-184 353.56,4 -4,4"/>
<!-- aggregator_factory -->
<g id="node1" class="node">
<title>aggregator_factory</title>
<ellipse fill="none" stroke="black" cx="101.46" cy="-162" rx="77.19" ry="18"/>
<text text-anchor="middle" x="101.46" y="-158.3" font-family="Times,serif" font-size="14.00">aggregator_factory</text>
</g>
<!-- error -->
<g id="node2" class="node">
<title>error</title>
<ellipse fill="none" stroke="black" cx="35.46" cy="-18" rx="27.9" ry="18"/>
<text text-anchor="middle" x="35.46" y="-14.3" font-family="Times,serif" font-size="14.00">error</text>
</g>
<!-- aggregator_factory&#45;&gt;error -->
<g id="edge1" class="edge">
<title>aggregator_factory&#45;&gt;error</title>
<path fill="none" stroke="black" d="M55.3,-147.21C36.38,-139.02 16.39,-126.53 5.46,-108 -6.48,-87.76 4.53,-62.11 16.43,-43.55"/>
<polygon fill="black" stroke="black" points="19.15,-45.77 21.95,-35.55 13.39,-41.79 19.15,-45.77"/>
</g>
<!-- table -->
<g id="node3" class="node">
<title>table</title>
<ellipse fill="none" stroke="black" cx="42.46" cy="-90" rx="27.9" ry="18"/>
<text text-anchor="middle" x="42.46" y="-86.3" font-family="Times,serif" font-size="14.00">table</text>
</g>
<!-- aggregator_factory&#45;&gt;table -->
<g id="edge2" class="edge">
<title>aggregator_factory&#45;&gt;table</title>
<path fill="none" stroke="black" d="M87.18,-144.05C79.84,-135.35 70.77,-124.59 62.72,-115.03"/>
<polygon fill="black" stroke="black" points="65.5,-112.9 56.38,-107.51 60.15,-117.42 65.5,-112.9"/>
</g>
<!-- system_addresses -->
<g id="node4" class="node">
<title>system_addresses</title>
<ellipse fill="none" stroke="black" cx="161.46" cy="-90" rx="73.39" ry="18"/>
<text text-anchor="middle" x="161.46" y="-86.3" font-family="Times,serif" font-size="14.00">system_addresses</text>
</g>
<!-- aggregator_factory&#45;&gt;system_addresses -->
<g id="edge3" class="edge">
<title>aggregator_factory&#45;&gt;system_addresses</title>
<path fill="none" stroke="black" d="M115.98,-144.05C123.13,-135.71 131.9,-125.49 139.82,-116.25"/>
<polygon fill="black" stroke="black" points="142.23,-118.81 146.08,-108.94 136.92,-114.25 142.23,-118.81"/>
</g>
<!-- aggregator -->
<g id="node5" class="node">
<title>aggregator</title>
<ellipse fill="none" stroke="black" cx="301.46" cy="-90" rx="48.19" ry="18"/>
<text text-anchor="middle" x="301.46" y="-86.3" font-family="Times,serif" font-size="14.00">aggregator</text>
</g>
<!-- aggregator_factory&#45;&gt;aggregator -->
<g id="edge4" class="edge">
<title>aggregator_factory&#45;&gt;aggregator</title>
<path fill="none" stroke="black" d="M142.9,-146.5C176.04,-134.9 222.43,-118.66 256.47,-106.75"/>
<polygon fill="black" stroke="black" points="257.35,-110.15 265.63,-103.54 255.04,-103.54 257.35,-110.15"/>
</g>
<!-- system_addresses&#45;&gt;error -->
<g id="edge6" class="edge">
<title>system_addresses&#45;&gt;error</title>
<path fill="none" stroke="black" d="M132.87,-73.12C112.96,-62.06 86.44,-47.32 66.09,-36.02"/>
<polygon fill="black" stroke="black" points="67.85,-32.99 57.41,-31.19 64.45,-39.11 67.85,-32.99"/>
</g>
<!-- signer -->
<g id="node6" class="node">
<title>signer</title>
<ellipse fill="none" stroke="black" cx="161.46" cy="-18" rx="32.49" ry="18"/>
<text text-anchor="middle" x="161.46" y="-14.3" font-family="Times,serif" font-size="14.00">signer</text>
</g>
<!-- system_addresses&#45;&gt;signer -->
<g id="edge5" class="edge">
<title>system_addresses&#45;&gt;signer</title>
<path fill="none" stroke="black" d="M161.46,-71.7C161.46,-64.41 161.46,-55.73 161.46,-47.54"/>
<polygon fill="black" stroke="black" points="164.96,-47.62 161.46,-37.62 157.96,-47.62 164.96,-47.62"/>
</g>
</g>
</svg>
