<?xml version="1.0" encoding="UTF-8" standalone="no"?>
<!DOCTYPE svg PUBLIC "-//W3C//DTD SVG 1.1//EN"
 "http://www.w3.org/Graphics/SVG/1.1/DTD/svg11.dtd">
<!-- Generated by graphviz version 7.0.4 (20221203.1631)
 -->
<!-- Title: G Pages: 1 -->
<svg width="1105pt" height="692pt"
 viewBox="0.00 0.00 1105.00 692.00" xmlns="http://www.w3.org/2000/svg" xmlns:xlink="http://www.w3.org/1999/xlink">
<g id="graph0" class="graph" transform="scale(1 1) rotate(0) translate(4 688)">
<title>G</title>
<polygon fill="white" stroke="none" points="-4,4 -4,-688 1101,-688 1101,4 -4,4"/>
<g id="clust1" class="cluster">
<title>cluster_optional_aggregator</title>
<polygon fill="none" stroke="black" points="556,-64 556,-283 850,-283 850,-64 556,-64"/>
<text text-anchor="middle" x="703" y="-267.8" font-family="Times,serif" font-size="14.00">optional_aggregator</text>
</g>
<g id="clust2" class="cluster">
<title>cluster_coin</title>
<polygon fill="none" stroke="black" points="299,-291 299,-438 1089,-438 1089,-291 299,-291"/>
<text text-anchor="middle" x="694" y="-422.8" font-family="Times,serif" font-size="14.00">coin</text>
</g>
<g id="clust3" class="cluster">
<title>cluster_transaction_fee</title>
<polygon fill="none" stroke="black" points="8,-446 8,-521 338,-521 338,-446 8,-446"/>
<text text-anchor="middle" x="173" y="-505.8" font-family="Times,serif" font-size="14.00">transaction_fee</text>
</g>
<g id="clust4" class="cluster">
<title>cluster_managed_coin</title>
<polygon fill="none" stroke="black" points="346,-446 346,-521 446,-521 446,-446 346,-446"/>
<text text-anchor="middle" x="396" y="-505.8" font-family="Times,serif" font-size="14.00">managed_coin</text>
</g>
<g id="clust5" class="cluster">
<title>cluster_aptos_coin</title>
<polygon fill="none" stroke="black" points="500,-446 500,-521 600,-521 600,-446 500,-446"/>
<text text-anchor="middle" x="550" y="-505.8" font-family="Times,serif" font-size="14.00">aptos_coin</text>
</g>
<g id="clust6" class="cluster">
<title>cluster_genesis</title>
<polygon fill="none" stroke="black" points="303,-529 303,-676 855,-676 855,-529 303,-529"/>
<text text-anchor="middle" x="579" y="-660.8" font-family="Times,serif" font-size="14.00">genesis</text>
</g>
<!-- create_aggregator_internal -->
<g id="node1" class="node">
<title>create_aggregator_internal</title>
<ellipse fill="none" stroke="black" cx="870" cy="-18" rx="104.78" ry="18"/>
<text text-anchor="middle" x="870" y="-14.3" font-family="Times,serif" font-size="14.00">create_aggregator_internal</text>
</g>
<!-- create_aggregator -->
<g id="node2" class="node">
<title>create_aggregator</title>
<ellipse fill="none" stroke="black" cx="971" cy="-90" rx="73.39" ry="18"/>
<text text-anchor="middle" x="971" y="-86.3" font-family="Times,serif" font-size="14.00">create_aggregator</text>
</g>
<!-- create_aggregator&#45;&gt;create_aggregator_internal -->
<g id="edge1" class="edge">
<title>create_aggregator&#45;&gt;create_aggregator_internal</title>
<path fill="none" stroke="black" d="M947.32,-72.59C934.21,-63.51 917.72,-52.07 903.33,-42.1"/>
<polygon fill="black" stroke="black" points="905.69,-39.48 895.48,-36.66 901.7,-45.23 905.69,-39.48"/>
</g>
<!-- optional_aggregator::new -->
<g id="node3" class="node">
<title>optional_aggregator::new</title>
<ellipse fill="none" stroke="black" cx="634" cy="-234" rx="27" ry="18"/>
<text text-anchor="middle" x="634" y="-230.3" font-family="Times,serif" font-size="14.00">new</text>
</g>
<!-- optional_aggregator::new&#45;&gt;create_aggregator_internal -->
<g id="edge2" class="edge">
<title>optional_aggregator::new&#45;&gt;create_aggregator_internal</title>
<path fill="none" stroke="black" d="M658.73,-226.29C710.04,-212.36 823.44,-181.45 825,-180 862,-145.7 869.5,-83.74 870.5,-47.5"/>
<polygon fill="black" stroke="black" points="874,-47.83 870.61,-37.79 867,-47.75 874,-47.83"/>
</g>
<!-- optional_aggregator::switch_to_aggregator_and_zero_out -->
<g id="node4" class="node">
<title>optional_aggregator::switch_to_aggregator_and_zero_out</title>
<ellipse fill="none" stroke="black" cx="703" cy="-90" rx="139.18" ry="18"/>
<text text-anchor="middle" x="703" y="-86.3" font-family="Times,serif" font-size="14.00">switch_to_aggregator_and_zero_out</text>
</g>
<!-- optional_aggregator::switch_to_aggregator_and_zero_out&#45;&gt;create_aggregator_internal -->
<g id="edge3" class="edge">
<title>optional_aggregator::switch_to_aggregator_and_zero_out&#45;&gt;create_aggregator_internal</title>
<path fill="none" stroke="black" d="M742.58,-72.41C766.12,-62.54 796.18,-49.94 821.19,-39.46"/>
<polygon fill="black" stroke="black" points="822.31,-42.79 830.17,-35.69 819.6,-36.33 822.31,-42.79"/>
</g>
<!-- coin::initialize_aggregatable_coin -->
<g id="node5" class="node">
<title>coin::initialize_aggregatable_coin</title>
<ellipse fill="none" stroke="black" cx="971" cy="-389" rx="110.48" ry="18"/>
<text text-anchor="middle" x="971" y="-385.3" font-family="Times,serif" font-size="14.00">initialize_aggregatable_coin</text>
</g>
<!-- coin::initialize_aggregatable_coin&#45;&gt;create_aggregator -->
<g id="edge4" class="edge">
<title>coin::initialize_aggregatable_coin&#45;&gt;create_aggregator</title>
<path fill="none" stroke="black" d="M971,-370.75C971,-321.64 971,-180.71 971,-119.71"/>
<polygon fill="black" stroke="black" points="974.5,-119.81 971,-109.81 967.5,-119.81 974.5,-119.81"/>
</g>
<!-- coin::initialize_internal -->
<g id="node6" class="node">
<title>coin::initialize_internal</title>
<ellipse fill="none" stroke="black" cx="550" cy="-317" rx="72.59" ry="18"/>
<text text-anchor="middle" x="550" y="-313.3" font-family="Times,serif" font-size="14.00">initialize_internal</text>
</g>
<!-- coin::initialize_internal&#45;&gt;optional_aggregator::new -->
<g id="edge5" class="edge">
<title>coin::initialize_internal&#45;&gt;optional_aggregator::new</title>
<path fill="none" stroke="black" d="M567.4,-299.22C580.06,-287.01 597.31,-270.38 611.09,-257.09"/>
<polygon fill="black" stroke="black" points="613.29,-259.84 618.05,-250.38 608.43,-254.8 613.29,-259.84"/>
</g>
<!-- optional_aggregator::switch_and_zero_out -->
<g id="node7" class="node">
<title>optional_aggregator::switch_and_zero_out</title>
<ellipse fill="none" stroke="black" cx="730" cy="-162" rx="85.59" ry="18"/>
<text text-anchor="middle" x="730" y="-158.3" font-family="Times,serif" font-size="14.00">switch_and_zero_out</text>
</g>
<!-- optional_aggregator::switch_and_zero_out&#45;&gt;optional_aggregator::switch_to_aggregator_and_zero_out -->
<g id="edge6" class="edge">
<title>optional_aggregator::switch_and_zero_out&#45;&gt;optional_aggregator::switch_to_aggregator_and_zero_out</title>
<path fill="none" stroke="black" d="M723.33,-143.7C720.42,-136.15 716.93,-127.12 713.68,-118.68"/>
<polygon fill="black" stroke="black" points="717.01,-117.59 710.14,-109.52 710.48,-120.11 717.01,-117.59"/>
</g>
<!-- transaction_fee::initialize_fee_collection_and_distribution -->
<g id="node8" class="node">
<title>transaction_fee::initialize_fee_collection_and_distribution</title>
<ellipse fill="none" stroke="black" cx="173" cy="-472" rx="157.07" ry="18"/>
<text text-anchor="middle" x="173" y="-468.3" font-family="Times,serif" font-size="14.00">initialize_fee_collection_and_distribution</text>
</g>
<!-- transaction_fee::initialize_fee_collection_and_distribution&#45;&gt;coin::initialize_aggregatable_coin -->
<g id="edge7" class="edge">
<title>transaction_fee::initialize_fee_collection_and_distribution&#45;&gt;coin::initialize_aggregatable_coin</title>
<path fill="none" stroke="black" d="M256.99,-456.36C284.05,-452.24 314.21,-448.26 342,-446 398.49,-441.4 796.45,-449.23 852,-438 878.46,-432.65 906.53,-421.61 928.76,-411.47"/>
<polygon fill="black" stroke="black" points="930.23,-414.64 937.8,-407.23 927.26,-408.3 930.23,-414.64"/>
</g>
<!-- coin::initialize -->
<g id="node9" class="node">
<title>coin::initialize</title>
<ellipse fill="none" stroke="black" cx="349" cy="-389" rx="41.69" ry="18"/>
<text text-anchor="middle" x="349" y="-385.3" font-family="Times,serif" font-size="14.00">initialize</text>
</g>
<!-- coin::initialize&#45;&gt;coin::initialize_internal -->
<g id="edge8" class="edge">
<title>coin::initialize&#45;&gt;coin::initialize_internal</title>
<path fill="none" stroke="black" d="M380.85,-376.91C412.48,-365.89 461.51,-348.82 498.65,-335.88"/>
<polygon fill="black" stroke="black" points="499.55,-339.28 507.84,-332.68 497.25,-332.67 499.55,-339.28"/>
</g>
<!-- coin::initialize_with_parallelizable_supply -->
<g id="node10" class="node">
<title>coin::initialize_with_parallelizable_supply</title>
<ellipse fill="none" stroke="black" cx="550" cy="-389" rx="141.07" ry="18"/>
<text text-anchor="middle" x="550" y="-385.3" font-family="Times,serif" font-size="14.00">initialize_with_parallelizable_supply</text>
</g>
<!-- coin::initialize_with_parallelizable_supply&#45;&gt;coin::initialize_internal -->
<g id="edge9" class="edge">
<title>coin::initialize_with_parallelizable_supply&#45;&gt;coin::initialize_internal</title>
<path fill="none" stroke="black" d="M550,-370.7C550,-363.41 550,-354.73 550,-346.54"/>
<polygon fill="black" stroke="black" points="553.5,-346.62 550,-336.62 546.5,-346.62 553.5,-346.62"/>
</g>
<!-- optional_aggregator::switch -->
<g id="node11" class="node">
<title>optional_aggregator::switch</title>
<ellipse fill="none" stroke="black" cx="740" cy="-234" rx="33.6" ry="18"/>
<text text-anchor="middle" x="740" y="-230.3" font-family="Times,serif" font-size="14.00">switch</text>
</g>
<!-- optional_aggregator::switch&#45;&gt;optional_aggregator::switch_and_zero_out -->
<g id="edge10" class="edge">
<title>optional_aggregator::switch&#45;&gt;optional_aggregator::switch_and_zero_out</title>
<path fill="none" stroke="black" d="M737.53,-215.7C736.47,-208.32 735.22,-199.52 734.04,-191.25"/>
<polygon fill="black" stroke="black" points="737.54,-191.01 732.66,-181.6 730.61,-192 737.54,-191.01"/>
</g>
<!-- managed_coin::initialize -->
<g id="node12" class="node">
<title>managed_coin::initialize</title>
<ellipse fill="none" stroke="black" cx="396" cy="-472" rx="41.69" ry="18"/>
<text text-anchor="middle" x="396" y="-468.3" font-family="Times,serif" font-size="14.00">initialize</text>
</g>
<!-- managed_coin::initialize&#45;&gt;coin::initialize -->
<g id="edge11" class="edge">
<title>managed_coin::initialize&#45;&gt;coin::initialize</title>
<path fill="none" stroke="black" d="M386.26,-454.22C379.96,-443.36 371.62,-428.98 364.43,-416.59"/>
<polygon fill="black" stroke="black" points="367.53,-414.96 359.49,-408.07 361.48,-418.48 367.53,-414.96"/>
</g>
<!-- aptos_coin::initialize -->
<g id="node13" class="node">
<title>aptos_coin::initialize</title>
<ellipse fill="none" stroke="black" cx="550" cy="-472" rx="41.69" ry="18"/>
<text text-anchor="middle" x="550" y="-468.3" font-family="Times,serif" font-size="14.00">initialize</text>
</g>
<!-- aptos_coin::initialize&#45;&gt;coin::initialize_with_parallelizable_supply -->
<g id="edge12" class="edge">
<title>aptos_coin::initialize&#45;&gt;coin::initialize_with_parallelizable_supply</title>
<path fill="none" stroke="black" d="M550,-453.82C550,-443.69 550,-430.6 550,-418.92"/>
<polygon fill="black" stroke="black" points="553.5,-418.95 550,-408.95 546.5,-418.95 553.5,-418.95"/>
</g>
<!-- coin::upgrade_supply -->
<g id="node14" class="node">
<title>coin::upgrade_supply</title>
<ellipse fill="none" stroke="black" cx="776" cy="-389" rx="66.89" ry="18"/>
<text text-anchor="middle" x="776" y="-385.3" font-family="Times,serif" font-size="14.00">upgrade_supply</text>
</g>
<!-- coin::upgrade_supply&#45;&gt;optional_aggregator::switch -->
<g id="edge13" class="edge">
<title>coin::upgrade_supply&#45;&gt;optional_aggregator::switch</title>
<path fill="none" stroke="black" d="M771.94,-370.75C765.78,-344.55 753.99,-294.48 746.59,-263.02"/>
<polygon fill="black" stroke="black" points="750.03,-262.36 744.34,-253.43 743.22,-263.97 750.03,-262.36"/>
</g>
<!-- genesis::initialize_aptos_coin -->
<g id="node15" class="node">
<title>genesis::initialize_aptos_coin</title>
<ellipse fill="none" stroke="black" cx="453" cy="-555" rx="83.69" ry="18"/>
<text text-anchor="middle" x="453" y="-551.3" font-family="Times,serif" font-size="14.00">initialize_aptos_coin</text>
</g>
<!-- genesis::initialize_aptos_coin&#45;&gt;aptos_coin::initialize -->
<g id="edge14" class="edge">
<title>genesis::initialize_aptos_coin&#45;&gt;aptos_coin::initialize</title>
<path fill="none" stroke="black" d="M473.1,-537.22C487.48,-525.21 507,-508.91 522.78,-495.73"/>
<polygon fill="black" stroke="black" points="524.97,-498.46 530.41,-489.36 520.49,-493.09 524.97,-498.46"/>
</g>
<!-- genesis::initialize_core_resources_and_aptos_coin -->
<g id="node16" class="node">
<title>genesis::initialize_core_resources_and_aptos_coin</title>
<ellipse fill="none" stroke="black" cx="689" cy="-627" rx="157.87" ry="18"/>
<text text-anchor="middle" x="689" y="-623.3" font-family="Times,serif" font-size="14.00">initialize_core_resources_and_aptos_coin</text>
</g>
<!-- genesis::initialize_core_resources_and_aptos_coin&#45;&gt;aptos_coin::initialize -->
<g id="edge15" class="edge">
<title>genesis::initialize_core_resources_and_aptos_coin&#45;&gt;aptos_coin::initialize</title>
<path fill="none" stroke="black" d="M673.33,-608.75C648.53,-581.46 600.2,-528.26 571.96,-497.18"/>
<polygon fill="black" stroke="black" points="574.9,-495.2 565.59,-490.16 569.72,-499.91 574.9,-495.2"/>
</g>
<!-- genesis::initialize_for_verification -->
<g id="node17" class="node">
<title>genesis::initialize_for_verification</title>
<ellipse fill="none" stroke="black" cx="412" cy="-627" rx="100.98" ry="18"/>
<text text-anchor="middle" x="412" y="-623.3" font-family="Times,serif" font-size="14.00">initialize_for_verification</text>
</g>
<!-- genesis::initialize_for_verification&#45;&gt;genesis::initialize_aptos_coin -->
<g id="edge16" class="edge">
<title>genesis::initialize_for_verification&#45;&gt;genesis::initialize_aptos_coin</title>
<path fill="none" stroke="black" d="M422.13,-608.7C426.7,-600.9 432.2,-591.51 437.29,-582.83"/>
<polygon fill="black" stroke="black" points="440.18,-584.81 442.22,-574.41 434.14,-581.27 440.18,-584.81"/>
</g>
</g>
</svg>
