<?xml version="1.0" encoding="UTF-8" standalone="no"?>
<!DOCTYPE svg PUBLIC "-//W3C//DTD SVG 1.1//EN"
 "http://www.w3.org/Graphics/SVG/1.1/DTD/svg11.dtd">
<!-- Generated by graphviz version 7.0.4 (20221203.1631)
 -->
<!-- Title: G Pages: 1 -->
<svg width="354pt" height="238pt"
 viewBox="0.00 0.00 354.00 238.00" xmlns="http://www.w3.org/2000/svg" xmlns:xlink="http://www.w3.org/1999/xlink">
<g id="graph0" class="graph" transform="scale(1 1) rotate(0) translate(4 234)">
<title>G</title>
<polygon fill="white" stroke="none" points="-4,4 -4,-234 350,-234 350,4 -4,4"/>
<g id="clust1" class="cluster">
<title>cluster_coin</title>
<polygon fill="none" stroke="black" points="55,-64 55,-139 291,-139 291,-64 55,-64"/>
<text text-anchor="middle" x="173" y="-123.8" font-family="Times,serif" font-size="14.00">coin</text>
</g>
<g id="clust2" class="cluster">
<title>cluster_transaction_fee</title>
<polygon fill="none" stroke="black" points="8,-147 8,-222 338,-222 338,-147 8,-147"/>
<text text-anchor="middle" x="173" y="-206.8" font-family="Times,serif" font-size="14.00">transaction_fee</text>
</g>
<!-- create_aggregator -->
<g id="node1" class="node">
<title>create_aggregator</title>
<ellipse fill="none" stroke="black" cx="173" cy="-18" rx="73.39" ry="18"/>
<text text-anchor="middle" x="173" y="-14.3" font-family="Times,serif" font-size="14.00">create_aggregator</text>
</g>
<!-- coin::initialize_aggregatable_coin -->
<g id="node2" class="node">
<title>coin::initialize_aggregatable_coin</title>
<ellipse fill="none" stroke="black" cx="173" cy="-90" rx="110.48" ry="18"/>
<text text-anchor="middle" x="173" y="-86.3" font-family="Times,serif" font-size="14.00">initialize_aggregatable_coin</text>
</g>
<!-- coin::initialize_aggregatable_coin&#45;&gt;create_aggregator -->
<g id="edge1" class="edge">
<title>coin::initialize_aggregatable_coin&#45;&gt;create_aggregator</title>
<path fill="none" stroke="black" d="M173,-71.7C173,-64.41 173,-55.73 173,-47.54"/>
<polygon fill="black" stroke="black" points="176.5,-47.62 173,-37.62 169.5,-47.62 176.5,-47.62"/>
</g>
<!-- transaction_fee::initialize_fee_collection_and_distribution -->
<g id="node3" class="node">
<title>transaction_fee::initialize_fee_collection_and_distribution</title>
<ellipse fill="none" stroke="black" cx="173" cy="-173" rx="157.07" ry="18"/>
<text text-anchor="middle" x="173" y="-169.3" font-family="Times,serif" font-size="14.00">initialize_fee_collection_and_distribution</text>
</g>
<!-- transaction_fee::initialize_fee_collection_and_distribution&#45;&gt;coin::initialize_aggregatable_coin -->
<g id="edge2" class="edge">
<title>transaction_fee::initialize_fee_collection_and_distribution&#45;&gt;coin::initialize_aggregatable_coin</title>
<path fill="none" stroke="black" d="M173,-154.82C173,-144.69 173,-131.6 173,-119.92"/>
<polygon fill="black" stroke="black" points="176.5,-119.95 173,-109.95 169.5,-119.95 176.5,-119.95"/>
</g>
</g>
</svg>
