<?xml version="1.0" encoding="UTF-8" standalone="no"?>
<!DOCTYPE svg PUBLIC "-//W3C//DTD SVG 1.1//EN"
 "http://www.w3.org/Graphics/SVG/1.1/DTD/svg11.dtd">
<!-- Generated by graphviz version 7.0.4 (20221203.1631)
 -->
<!-- Title: G Pages: 1 -->
<svg width="454pt" height="382pt"
 viewBox="0.00 0.00 454.00 382.00" xmlns="http://www.w3.org/2000/svg" xmlns:xlink="http://www.w3.org/1999/xlink">
<g id="graph0" class="graph" transform="scale(1 1) rotate(0) translate(4 378)">
<title>G</title>
<polygon fill="white" stroke="none" points="-4,4 -4,-378 450,-378 450,4 -4,4"/>
<g id="clust2" class="cluster">
<title>cluster_coin</title>
<polygon fill="none" stroke="black" points="27,-291 27,-366 177,-366 177,-291 27,-291"/>
<text text-anchor="middle" x="102" y="-350.8" font-family="Times,serif" font-size="14.00">coin</text>
</g>
<g id="clust1" class="cluster">
<title>cluster_optional_aggregator</title>
<polygon fill="none" stroke="black" points="8,-64 8,-283 438,-283 438,-64 8,-64"/>
<text text-anchor="middle" x="223" y="-267.8" font-family="Times,serif" font-size="14.00">optional_aggregator</text>
</g>
<!-- destroy -->
<g id="node1" class="node">
<title>destroy</title>
<ellipse fill="none" stroke="black" cx="232" cy="-18" rx="36.29" ry="18"/>
<text text-anchor="middle" x="232" y="-14.3" font-family="Times,serif" font-size="14.00">destroy</text>
</g>
<!-- optional_aggregator::destroy_optional_aggregator -->
<g id="node2" class="node">
<title>optional_aggregator::destroy_optional_aggregator</title>
<ellipse fill="none" stroke="black" cx="318" cy="-162" rx="111.58" ry="18"/>
<text text-anchor="middle" x="318" y="-158.3" font-family="Times,serif" font-size="14.00">destroy_optional_aggregator</text>
</g>
<!-- optional_aggregator::destroy_optional_aggregator&#45;&gt;destroy -->
<g id="edge1" class="edge">
<title>optional_aggregator::destroy_optional_aggregator&#45;&gt;destroy</title>
<path fill="none" stroke="black" d="M315.76,-143.54C312.46,-123.02 304.74,-88.64 288,-64 281.6,-54.58 272.64,-46.16 263.77,-39.22"/>
<polygon fill="black" stroke="black" points="266.01,-36.53 255.88,-33.44 261.88,-42.17 266.01,-36.53"/>
</g>
<!-- optional_aggregator::switch_to_integer_and_zero_out -->
<g id="node3" class="node">
<title>optional_aggregator::switch_to_integer_and_zero_out</title>
<ellipse fill="none" stroke="black" cx="153" cy="-90" rx="126.18" ry="18"/>
<text text-anchor="middle" x="153" y="-86.3" font-family="Times,serif" font-size="14.00">switch_to_integer_and_zero_out</text>
</g>
<!-- optional_aggregator::switch_to_integer_and_zero_out&#45;&gt;destroy -->
<g id="edge2" class="edge">
<title>optional_aggregator::switch_to_integer_and_zero_out&#45;&gt;destroy</title>
<path fill="none" stroke="black" d="M172.12,-72.05C182.43,-62.92 195.28,-51.53 206.44,-41.65"/>
<polygon fill="black" stroke="black" points="208.64,-44.38 213.8,-35.13 204,-39.14 208.64,-44.38"/>
</g>
<!-- optional_aggregator::destroy -->
<g id="node4" class="node">
<title>optional_aggregator::destroy</title>
<ellipse fill="none" stroke="black" cx="318" cy="-234" rx="36.29" ry="18"/>
<text text-anchor="middle" x="318" y="-230.3" font-family="Times,serif" font-size="14.00">destroy</text>
</g>
<!-- optional_aggregator::destroy&#45;&gt;optional_aggregator::destroy_optional_aggregator -->
<g id="edge3" class="edge">
<title>optional_aggregator::destroy&#45;&gt;optional_aggregator::destroy_optional_aggregator</title>
<path fill="none" stroke="black" d="M318,-215.7C318,-208.41 318,-199.73 318,-191.54"/>
<polygon fill="black" stroke="black" points="321.5,-191.62 318,-181.62 314.5,-191.62 321.5,-191.62"/>
</g>
<!-- optional_aggregator::switch_and_zero_out -->
<g id="node5" class="node">
<title>optional_aggregator::switch_and_zero_out</title>
<ellipse fill="none" stroke="black" cx="102" cy="-162" rx="85.59" ry="18"/>
<text text-anchor="middle" x="102" y="-158.3" font-family="Times,serif" font-size="14.00">switch_and_zero_out</text>
</g>
<!-- optional_aggregator::switch_and_zero_out&#45;&gt;optional_aggregator::switch_to_integer_and_zero_out -->
<g id="edge4" class="edge">
<title>optional_aggregator::switch_and_zero_out&#45;&gt;optional_aggregator::switch_to_integer_and_zero_out</title>
<path fill="none" stroke="black" d="M114.35,-144.05C120.15,-136.09 127.2,-126.41 133.69,-117.51"/>
<polygon fill="black" stroke="black" points="136.46,-119.64 139.52,-109.5 130.8,-115.52 136.46,-119.64"/>
</g>
<!-- optional_aggregator::switch -->
<g id="node6" class="node">
<title>optional_aggregator::switch</title>
<ellipse fill="none" stroke="black" cx="102" cy="-234" rx="33.6" ry="18"/>
<text text-anchor="middle" x="102" y="-230.3" font-family="Times,serif" font-size="14.00">switch</text>
</g>
<!-- optional_aggregator::switch&#45;&gt;optional_aggregator::switch_and_zero_out -->
<g id="edge5" class="edge">
<title>optional_aggregator::switch&#45;&gt;optional_aggregator::switch_and_zero_out</title>
<path fill="none" stroke="black" d="M102,-215.7C102,-208.41 102,-199.73 102,-191.54"/>
<polygon fill="black" stroke="black" points="105.5,-191.62 102,-181.62 98.5,-191.62 105.5,-191.62"/>
</g>
<!-- coin::upgrade_supply -->
<g id="node7" class="node">
<title>coin::upgrade_supply</title>
<ellipse fill="none" stroke="black" cx="102" cy="-317" rx="66.89" ry="18"/>
<text text-anchor="middle" x="102" y="-313.3" font-family="Times,serif" font-size="14.00">upgrade_supply</text>
</g>
<!-- coin::upgrade_supply&#45;&gt;optional_aggregator::switch -->
<g id="edge6" class="edge">
<title>coin::upgrade_supply&#45;&gt;optional_aggregator::switch</title>
<path fill="none" stroke="black" d="M102,-298.82C102,-288.69 102,-275.6 102,-263.92"/>
<polygon fill="black" stroke="black" points="105.5,-263.95 102,-253.95 98.5,-263.95 105.5,-263.95"/>
</g>
</g>
</svg>
