<?xml version="1.0" encoding="UTF-8" standalone="no"?>
<!DOCTYPE svg PUBLIC "-//W3C//DTD SVG 1.1//EN"
 "http://www.w3.org/Graphics/SVG/1.1/DTD/svg11.dtd">
<!-- Generated by graphviz version 7.0.4 (20221203.1631)
 -->
<!-- Title: G Pages: 1 -->
<svg width="1066pt" height="559pt"
 viewBox="0.00 0.00 1066.00 559.00" xmlns="http://www.w3.org/2000/svg" xmlns:xlink="http://www.w3.org/1999/xlink">
<g id="graph0" class="graph" transform="scale(1 1) rotate(0) translate(4 555)">
<title>G</title>
<polygon fill="white" stroke="none" points="-4,4 -4,-555 1062,-555 1062,4 -4,4"/>
<g id="clust1" class="cluster">
<title>cluster_optional_aggregator</title>
<polygon fill="none" stroke="black" points="597,-64 597,-211 722,-211 722,-64 597,-64"/>
<text text-anchor="middle" x="659.5" y="-195.8" font-family="Times,serif" font-size="14.00">optional_aggregator</text>
</g>
<g id="clust2" class="cluster">
<title>cluster_coin</title>
<polygon fill="none" stroke="black" points="327,-219 327,-294 1004,-294 1004,-219 327,-219"/>
<text text-anchor="middle" x="665.5" y="-278.8" font-family="Times,serif" font-size="14.00">coin</text>
</g>
<g id="clust3" class="cluster">
<title>cluster_transaction_fee</title>
<polygon fill="none" stroke="black" points="332,-302 332,-377 532,-377 532,-302 332,-302"/>
<text text-anchor="middle" x="432" y="-361.8" font-family="Times,serif" font-size="14.00">transaction_fee</text>
</g>
<g id="clust4" class="cluster">
<title>cluster_aptos_governance</title>
<polygon fill="none" stroke="black" points="781,-385 781,-543 1050,-543 1050,-385 781,-385"/>
<text text-anchor="middle" x="915.5" y="-527.8" font-family="Times,serif" font-size="14.00">aptos_governance</text>
</g>
<g id="clust5" class="cluster">
<title>cluster_reconfiguration</title>
<polygon fill="none" stroke="black" points="373,-385 373,-460 491,-460 491,-385 373,-385"/>
<text text-anchor="middle" x="432" y="-444.8" font-family="Times,serif" font-size="14.00">reconfiguration</text>
</g>
<g id="clust6" class="cluster">
<title>cluster_block</title>
<polygon fill="none" stroke="black" points="8,-468 8,-543 156,-543 156,-468 8,-468"/>
<text text-anchor="middle" x="82" y="-527.8" font-family="Times,serif" font-size="14.00">block</text>
</g>
<g id="clust7" class="cluster">
<title>cluster_consensus_config</title>
<polygon fill="none" stroke="black" points="164,-468 164,-543 277,-543 277,-468 164,-468"/>
<text text-anchor="middle" x="220.5" y="-527.8" font-family="Times,serif" font-size="14.00">consensus_config</text>
</g>
<g id="clust8" class="cluster">
<title>cluster_gas_schedule</title>
<polygon fill="none" stroke="black" points="285,-468 285,-543 647,-543 647,-468 285,-468"/>
<text text-anchor="middle" x="466" y="-527.8" font-family="Times,serif" font-size="14.00">gas_schedule</text>
</g>
<g id="clust9" class="cluster">
<title>cluster_version</title>
<polygon fill="none" stroke="black" points="655,-468 655,-543 773,-543 773,-468 655,-468"/>
<text text-anchor="middle" x="714" y="-527.8" font-family="Times,serif" font-size="14.00">version</text>
</g>
<!-- read -->
<g id="node1" class="node">
<title>read</title>
<ellipse fill="none" stroke="black" cx="635" cy="-18" rx="27" ry="18"/>
<text text-anchor="middle" x="635" y="-14.3" font-family="Times,serif" font-size="14.00">read</text>
</g>
<!-- optional_aggregator::read -->
<g id="node2" class="node">
<title>optional_aggregator::read</title>
<ellipse fill="none" stroke="black" cx="635" cy="-90" rx="27" ry="18"/>
<text text-anchor="middle" x="635" y="-86.3" font-family="Times,serif" font-size="14.00">read</text>
</g>
<!-- optional_aggregator::read&#45;&gt;read -->
<g id="edge1" class="edge">
<title>optional_aggregator::read&#45;&gt;read</title>
<path fill="none" stroke="black" d="M635,-71.7C635,-64.41 635,-55.73 635,-47.54"/>
<polygon fill="black" stroke="black" points="638.5,-47.62 635,-37.62 631.5,-47.62 638.5,-47.62"/>
</g>
<!-- coin::drain_aggregatable_coin -->
<g id="node3" class="node">
<title>coin::drain_aggregatable_coin</title>
<ellipse fill="none" stroke="black" cx="432" cy="-245" rx="97.48" ry="18"/>
<text text-anchor="middle" x="432" y="-241.3" font-family="Times,serif" font-size="14.00">drain_aggregatable_coin</text>
</g>
<!-- coin::drain_aggregatable_coin&#45;&gt;read -->
<g id="edge2" class="edge">
<title>coin::drain_aggregatable_coin&#45;&gt;read</title>
<path fill="none" stroke="black" d="M447.2,-226.77C475.62,-194.59 538.84,-123.27 593,-64 599.74,-56.63 607.15,-48.64 613.85,-41.47"/>
<polygon fill="black" stroke="black" points="615.98,-44.31 620.27,-34.62 610.88,-39.53 615.98,-44.31"/>
</g>
<!-- coin::is_aggregatable_coin_zero -->
<g id="node4" class="node">
<title>coin::is_aggregatable_coin_zero</title>
<ellipse fill="none" stroke="black" cx="891" cy="-245" rx="104.78" ry="18"/>
<text text-anchor="middle" x="891" y="-241.3" font-family="Times,serif" font-size="14.00">is_aggregatable_coin_zero</text>
</g>
<!-- coin::is_aggregatable_coin_zero&#45;&gt;read -->
<g id="edge3" class="edge">
<title>coin::is_aggregatable_coin_zero&#45;&gt;read</title>
<path fill="none" stroke="black" d="M878.62,-226.67C853.24,-192.09 792.11,-113.64 726,-64 708.49,-50.85 686.55,-39.87 668.6,-32.05"/>
<polygon fill="black" stroke="black" points="669.98,-28.83 659.41,-28.18 667.27,-35.28 669.98,-28.83"/>
</g>
<!-- optional_aggregator::switch -->
<g id="node5" class="node">
<title>optional_aggregator::switch</title>
<ellipse fill="none" stroke="black" cx="675" cy="-162" rx="33.6" ry="18"/>
<text text-anchor="middle" x="675" y="-158.3" font-family="Times,serif" font-size="14.00">switch</text>
</g>
<!-- optional_aggregator::switch&#45;&gt;optional_aggregator::read -->
<g id="edge4" class="edge">
<title>optional_aggregator::switch&#45;&gt;optional_aggregator::read</title>
<path fill="none" stroke="black" d="M665.52,-144.41C660.82,-136.19 655.04,-126.06 649.77,-116.85"/>
<polygon fill="black" stroke="black" points="652.89,-115.25 644.89,-108.3 646.81,-118.72 652.89,-115.25"/>
</g>
<!-- coin::supply -->
<g id="node6" class="node">
<title>coin::supply</title>
<ellipse fill="none" stroke="black" cx="582" cy="-245" rx="34.39" ry="18"/>
<text text-anchor="middle" x="582" y="-241.3" font-family="Times,serif" font-size="14.00">supply</text>
</g>
<!-- coin::supply&#45;&gt;optional_aggregator::read -->
<g id="edge5" class="edge">
<title>coin::supply&#45;&gt;optional_aggregator::read</title>
<path fill="none" stroke="black" d="M587.87,-227.04C596.95,-200.85 614.46,-150.28 625.4,-118.72"/>
<polygon fill="black" stroke="black" points="628.64,-120.06 628.6,-109.46 622.02,-117.77 628.64,-120.06"/>
</g>
<!-- transaction_fee::process_collected_fees -->
<g id="node7" class="node">
<title>transaction_fee::process_collected_fees</title>
<ellipse fill="none" stroke="black" cx="432" cy="-328" rx="91.78" ry="18"/>
<text text-anchor="middle" x="432" y="-324.3" font-family="Times,serif" font-size="14.00">process_collected_fees</text>
</g>
<!-- transaction_fee::process_collected_fees&#45;&gt;coin::drain_aggregatable_coin -->
<g id="edge6" class="edge">
<title>transaction_fee::process_collected_fees&#45;&gt;coin::drain_aggregatable_coin</title>
<path fill="none" stroke="black" d="M432,-309.82C432,-299.69 432,-286.6 432,-274.92"/>
<polygon fill="black" stroke="black" points="435.5,-274.95 432,-264.95 428.5,-274.95 435.5,-274.95"/>
</g>
<!-- transaction_fee::process_collected_fees&#45;&gt;coin::is_aggregatable_coin_zero -->
<g id="edge7" class="edge">
<title>transaction_fee::process_collected_fees&#45;&gt;coin::is_aggregatable_coin_zero</title>
<path fill="none" stroke="black" d="M523.35,-325.77C593.64,-323.03 692.69,-315.25 777,-294 801.58,-287.8 827.74,-277.11 848.78,-267.39"/>
<polygon fill="black" stroke="black" points="850.07,-270.66 857.61,-263.22 847.08,-264.33 850.07,-270.66"/>
</g>
<!-- coin::upgrade_supply -->
<g id="node8" class="node">
<title>coin::upgrade_supply</title>
<ellipse fill="none" stroke="black" cx="701" cy="-245" rx="66.89" ry="18"/>
<text text-anchor="middle" x="701" y="-241.3" font-family="Times,serif" font-size="14.00">upgrade_supply</text>
</g>
<!-- coin::upgrade_supply&#45;&gt;optional_aggregator::switch -->
<g id="edge8" class="edge">
<title>coin::upgrade_supply&#45;&gt;optional_aggregator::switch</title>
<path fill="none" stroke="black" d="M695.49,-226.82C692.14,-216.41 687.8,-202.87 683.97,-190.94"/>
<polygon fill="black" stroke="black" points="687.36,-190.05 680.97,-181.59 680.69,-192.19 687.36,-190.05"/>
</g>
<!-- aptos_governance::create_proposal_v2 -->
<g id="node9" class="node">
<title>aptos_governance::create_proposal_v2</title>
<ellipse fill="none" stroke="black" cx="915" cy="-411" rx="79.09" ry="18"/>
<text text-anchor="middle" x="915" y="-407.3" font-family="Times,serif" font-size="14.00">create_proposal_v2</text>
</g>
<!-- aptos_governance::create_proposal_v2&#45;&gt;coin::supply -->
<g id="edge9" class="edge">
<title>aptos_governance::create_proposal_v2&#45;&gt;coin::supply</title>
<path fill="none" stroke="black" d="M863.03,-397.04C802.12,-380.16 699.98,-346.45 625,-294 615.94,-287.66 607.47,-279.07 600.48,-270.9"/>
<polygon fill="black" stroke="black" points="603.24,-268.74 594.22,-263.18 597.8,-273.15 603.24,-268.74"/>
</g>
<!-- reconfiguration::reconfigure -->
<g id="node10" class="node">
<title>reconfiguration::reconfigure</title>
<ellipse fill="none" stroke="black" cx="432" cy="-411" rx="51.19" ry="18"/>
<text text-anchor="middle" x="432" y="-407.3" font-family="Times,serif" font-size="14.00">reconfigure</text>
</g>
<!-- reconfiguration::reconfigure&#45;&gt;transaction_fee::process_collected_fees -->
<g id="edge10" class="edge">
<title>reconfiguration::reconfigure&#45;&gt;transaction_fee::process_collected_fees</title>
<path fill="none" stroke="black" d="M432,-392.82C432,-382.69 432,-369.6 432,-357.92"/>
<polygon fill="black" stroke="black" points="435.5,-357.95 432,-347.95 428.5,-357.95 435.5,-357.95"/>
</g>
<!-- block::block_prologue -->
<g id="node11" class="node">
<title>block::block_prologue</title>
<ellipse fill="none" stroke="black" cx="82" cy="-494" rx="65.79" ry="18"/>
<text text-anchor="middle" x="82" y="-490.3" font-family="Times,serif" font-size="14.00">block_prologue</text>
</g>
<!-- block::block_prologue&#45;&gt;transaction_fee::process_collected_fees -->
<g id="edge11" class="edge">
<title>block::block_prologue&#45;&gt;transaction_fee::process_collected_fees</title>
<path fill="none" stroke="black" d="M114.3,-477.87C177.21,-448.39 316.23,-383.25 387.69,-349.76"/>
<polygon fill="black" stroke="black" points="388.78,-353.12 396.35,-345.7 385.81,-346.78 388.78,-353.12"/>
</g>
<!-- block::block_prologue&#45;&gt;reconfiguration::reconfigure -->
<g id="edge14" class="edge">
<title>block::block_prologue&#45;&gt;reconfiguration::reconfigure</title>
<path fill="none" stroke="black" d="M121.36,-479.16C133.64,-475.18 147.29,-471.08 160,-468 181.02,-462.91 186.75,-464.04 208,-460 266.71,-448.82 333.67,-434.23 378.97,-424.08"/>
<polygon fill="black" stroke="black" points="379.54,-427.54 388.53,-421.93 378.01,-420.71 379.54,-427.54"/>
</g>
<!-- aptos_governance::create_proposal -->
<g id="node12" class="node">
<title>aptos_governance::create_proposal</title>
<ellipse fill="none" stroke="black" cx="976" cy="-494" rx="66.09" ry="18"/>
<text text-anchor="middle" x="976" y="-490.3" font-family="Times,serif" font-size="14.00">create_proposal</text>
</g>
<!-- aptos_governance::create_proposal&#45;&gt;aptos_governance::create_proposal_v2 -->
<g id="edge12" class="edge">
<title>aptos_governance::create_proposal&#45;&gt;aptos_governance::create_proposal_v2</title>
<path fill="none" stroke="black" d="M963.36,-476.22C955.07,-465.21 944.07,-450.6 934.65,-438.1"/>
<polygon fill="black" stroke="black" points="937.56,-436.13 928.74,-430.25 931.96,-440.34 937.56,-436.13"/>
</g>
<!-- aptos_governance::reconfigure -->
<g id="node13" class="node">
<title>aptos_governance::reconfigure</title>
<ellipse fill="none" stroke="black" cx="840" cy="-494" rx="51.19" ry="18"/>
<text text-anchor="middle" x="840" y="-490.3" font-family="Times,serif" font-size="14.00">reconfigure</text>
</g>
<!-- aptos_governance::reconfigure&#45;&gt;reconfiguration::reconfigure -->
<g id="edge13" class="edge">
<title>aptos_governance::reconfigure&#45;&gt;reconfiguration::reconfigure</title>
<path fill="none" stroke="black" d="M809.37,-479.3C799.23,-475.18 787.78,-470.97 777,-468 679.07,-440.97 561.66,-425.34 492.15,-417.76"/>
<polygon fill="black" stroke="black" points="492.81,-414.31 482.5,-416.73 492.07,-421.28 492.81,-414.31"/>
</g>
<!-- consensus_config::set -->
<g id="node14" class="node">
<title>consensus_config::set</title>
<ellipse fill="none" stroke="black" cx="242" cy="-494" rx="27" ry="18"/>
<text text-anchor="middle" x="242" y="-490.3" font-family="Times,serif" font-size="14.00">set</text>
</g>
<!-- consensus_config::set&#45;&gt;reconfiguration::reconfigure -->
<g id="edge15" class="edge">
<title>consensus_config::set&#45;&gt;reconfiguration::reconfigure</title>
<path fill="none" stroke="black" d="M260.17,-480.21C266.58,-476.01 273.95,-471.52 281,-468 314.09,-451.5 353.3,-437.1 383.46,-427.04"/>
<polygon fill="black" stroke="black" points="384.29,-430.45 392.7,-424 382.11,-423.8 384.29,-430.45"/>
</g>
<!-- gas_schedule::set_gas_schedule -->
<g id="node15" class="node">
<title>gas_schedule::set_gas_schedule</title>
<ellipse fill="none" stroke="black" cx="568" cy="-494" rx="71.49" ry="18"/>
<text text-anchor="middle" x="568" y="-490.3" font-family="Times,serif" font-size="14.00">set_gas_schedule</text>
</g>
<!-- gas_schedule::set_gas_schedule&#45;&gt;reconfiguration::reconfigure -->
<g id="edge16" class="edge">
<title>gas_schedule::set_gas_schedule&#45;&gt;reconfiguration::reconfigure</title>
<path fill="none" stroke="black" d="M541.13,-477C519.82,-464.31 489.88,-446.47 466.75,-432.7"/>
<polygon fill="black" stroke="black" points="468.66,-429.76 458.28,-427.65 465.08,-435.78 468.66,-429.76"/>
</g>
<!-- gas_schedule::set_storage_gas_config -->
<g id="node16" class="node">
<title>gas_schedule::set_storage_gas_config</title>
<ellipse fill="none" stroke="black" cx="386" cy="-494" rx="92.88" ry="18"/>
<text text-anchor="middle" x="386" y="-490.3" font-family="Times,serif" font-size="14.00">set_storage_gas_config</text>
</g>
<!-- gas_schedule::set_storage_gas_config&#45;&gt;reconfiguration::reconfigure -->
<g id="edge17" class="edge">
<title>gas_schedule::set_storage_gas_config&#45;&gt;reconfiguration::reconfigure</title>
<path fill="none" stroke="black" d="M395.76,-475.82C401.85,-465.08 409.84,-451.03 416.76,-438.84"/>
<polygon fill="black" stroke="black" points="419.62,-440.89 421.51,-430.47 413.53,-437.44 419.62,-440.89"/>
</g>
<!-- version::set_version -->
<g id="node17" class="node">
<title>version::set_version</title>
<ellipse fill="none" stroke="black" cx="714" cy="-494" rx="50.89" ry="18"/>
<text text-anchor="middle" x="714" y="-490.3" font-family="Times,serif" font-size="14.00">set_version</text>
</g>
<!-- version::set_version&#45;&gt;reconfiguration::reconfigure -->
<g id="edge18" class="edge">
<title>version::set_version&#45;&gt;reconfiguration::reconfigure</title>
<path fill="none" stroke="black" d="M682.24,-479.48C672.33,-475.51 661.3,-471.34 651,-468 595.55,-449.99 530.7,-434.02 486.04,-423.79"/>
<polygon fill="black" stroke="black" points="486.85,-420.39 476.33,-421.59 485.31,-427.22 486.85,-420.39"/>
</g>
</g>
</svg>
