<?xml version="1.0" encoding="UTF-8" standalone="no"?>
<!DOCTYPE svg PUBLIC "-//W3C//DTD SVG 1.1//EN"
 "http://www.w3.org/Graphics/SVG/1.1/DTD/svg11.dtd">
<!-- Generated by graphviz version 7.0.4 (20221203.1631)
 -->
<!-- Title: G Pages: 1 -->
<svg width="271pt" height="207pt"
 viewBox="0.00 0.00 270.59 207.00" xmlns="http://www.w3.org/2000/svg" xmlns:xlink="http://www.w3.org/1999/xlink">
<g id="graph0" class="graph" transform="scale(1 1) rotate(0) translate(4 203)">
<title>G</title>
<polygon fill="white" stroke="none" points="-4,4 -4,-203 266.59,-203 266.59,4 -4,4"/>
<g id="clust1" class="cluster">
<title>cluster_error</title>
<polygon fill="none" stroke="black" points="8,-8 8,-155 118,-155 118,-8 8,-8"/>
<text text-anchor="middle" x="63" y="-139.8" font-family="Times,serif" font-size="14.00">error</text>
</g>
<!-- create_aggregator_internal -->
<g id="node1" class="node">
<title>create_aggregator_internal</title>
<ellipse fill="none" stroke="black" cx="129" cy="-181" rx="104.78" ry="18"/>
<text text-anchor="middle" x="129" y="-177.3" font-family="Times,serif" font-size="14.00">create_aggregator_internal</text>
</g>
<!-- error::not_found -->
<g id="node2" class="node">
<title>error::not_found</title>
<ellipse fill="none" stroke="black" cx="63" cy="-106" rx="46.59" ry="18"/>
<text text-anchor="middle" x="63" y="-102.3" font-family="Times,serif" font-size="14.00">not_found</text>
</g>
<!-- create_aggregator_internal&#45;&gt;error::not_found -->
<g id="edge1" class="edge">
<title>create_aggregator_internal&#45;&gt;error::not_found</title>
<path fill="none" stroke="black" d="M113.69,-163.07C105.24,-153.72 94.6,-141.95 85.25,-131.6"/>
<polygon fill="black" stroke="black" points="88.09,-129.53 78.79,-124.46 82.9,-134.22 88.09,-129.53"/>
</g>
<!-- new_aggregator -->
<g id="node3" class="node">
<title>new_aggregator</title>
<ellipse fill="none" stroke="black" cx="195" cy="-106" rx="67.69" ry="18"/>
<text text-anchor="middle" x="195" y="-102.3" font-family="Times,serif" font-size="14.00">new_aggregator</text>
</g>
<!-- create_aggregator_internal&#45;&gt;new_aggregator -->
<g id="edge2" class="edge">
<title>create_aggregator_internal&#45;&gt;new_aggregator</title>
<path fill="none" stroke="black" d="M144.31,-163.07C152.55,-153.95 162.89,-142.51 172.08,-132.35"/>
<polygon fill="black" stroke="black" points="174.65,-134.73 178.76,-124.96 169.46,-130.03 174.65,-134.73"/>
</g>
<!-- error::canonical -->
<g id="node4" class="node">
<title>error::canonical</title>
<ellipse fill="none" stroke="black" cx="63" cy="-34" rx="44.39" ry="18"/>
<text text-anchor="middle" x="63" y="-30.3" font-family="Times,serif" font-size="14.00">canonical</text>
</g>
<!-- error::not_found&#45;&gt;error::canonical -->
<g id="edge3" class="edge">
<title>error::not_found&#45;&gt;error::canonical</title>
<path fill="none" stroke="black" d="M63,-87.7C63,-80.41 63,-71.73 63,-63.54"/>
<polygon fill="black" stroke="black" points="66.5,-63.62 63,-53.62 59.5,-63.62 66.5,-63.62"/>
</g>
</g>
</svg>
