<?xml version="1.0" encoding="UTF-8" standalone="no"?>
<!DOCTYPE svg PUBLIC "-//W3C//DTD SVG 1.1//EN"
 "http://www.w3.org/Graphics/SVG/1.1/DTD/svg11.dtd">
<!-- Generated by graphviz version 7.0.4 (20221203.1631)
 -->
<!-- Title: G Pages: 1 -->
<svg width="612pt" height="448pt"
 viewBox="0.00 0.00 612.47 448.00" xmlns="http://www.w3.org/2000/svg" xmlns:xlink="http://www.w3.org/1999/xlink">
<g id="graph0" class="graph" transform="scale(1 1) rotate(0) translate(4 444)">
<title>G</title>
<polygon fill="white" stroke="none" points="-4,4 -4,-444 608.47,-444 608.47,4 -4,4"/>
<g id="clust1" class="cluster">
<title>cluster_account</title>
<polygon fill="none" stroke="black" points="8,-246 8,-396 256,-396 256,-246 8,-246"/>
<text text-anchor="middle" x="132" y="-380.8" font-family="Times,serif" font-size="14.00">account</text>
</g>
<g id="clust2" class="cluster">
<title>cluster_simple_map</title>
<polygon fill="none" stroke="black" points="264,-246 264,-396 352,-396 352,-246 264,-246"/>
<text text-anchor="middle" x="308" y="-380.8" font-family="Times,serif" font-size="14.00">simple_map</text>
</g>
<g id="clust3" class="cluster">
<title>cluster_option</title>
<polygon fill="none" stroke="black" points="160,-91 160,-238 396,-238 396,-91 160,-91"/>
<text text-anchor="middle" x="278" y="-222.8" font-family="Times,serif" font-size="14.00">option</text>
</g>
<g id="clust4" class="cluster">
<title>cluster_error</title>
<polygon fill="none" stroke="black" points="404,-163 404,-321 566,-321 566,-163 404,-163"/>
<text text-anchor="middle" x="485" y="-305.8" font-family="Times,serif" font-size="14.00">error</text>
</g>
<g id="clust5" class="cluster">
<title>cluster_vector</title>
<polygon fill="none" stroke="black" points="182,-8 182,-83 389,-83 389,-8 182,-8"/>
<text text-anchor="middle" x="285.5" y="-67.8" font-family="Times,serif" font-size="14.00">vector</text>
</g>
<!-- get_signer -->
<g id="node1" class="node">
<title>get_signer</title>
<ellipse fill="none" stroke="black" cx="220" cy="-422" rx="47.39" ry="18"/>
<text text-anchor="middle" x="220" y="-418.3" font-family="Times,serif" font-size="14.00">get_signer</text>
</g>
<!-- account::create_signer_with_capability -->
<g id="node2" class="node">
<title>account::create_signer_with_capability</title>
<ellipse fill="none" stroke="black" cx="132" cy="-347" rx="116.18" ry="18"/>
<text text-anchor="middle" x="132" y="-343.3" font-family="Times,serif" font-size="14.00">create_signer_with_capability</text>
</g>
<!-- get_signer&#45;&gt;account::create_signer_with_capability -->
<g id="edge1" class="edge">
<title>get_signer&#45;&gt;account::create_signer_with_capability</title>
<path fill="none" stroke="black" d="M200.91,-405.16C189.32,-395.55 174.31,-383.1 161.25,-372.27"/>
<polygon fill="black" stroke="black" points="163.69,-369.74 153.76,-366.05 159.22,-375.13 163.69,-369.74"/>
</g>
<!-- simple_map::borrow -->
<g id="node3" class="node">
<title>simple_map::borrow</title>
<ellipse fill="none" stroke="black" cx="308" cy="-347" rx="36.29" ry="18"/>
<text text-anchor="middle" x="308" y="-343.3" font-family="Times,serif" font-size="14.00">borrow</text>
</g>
<!-- get_signer&#45;&gt;simple_map::borrow -->
<g id="edge2" class="edge">
<title>get_signer&#45;&gt;simple_map::borrow</title>
<path fill="none" stroke="black" d="M245.14,-406.51C250.2,-403.25 255.39,-399.67 260,-396 269.17,-388.7 278.46,-379.83 286.39,-371.71"/>
<polygon fill="black" stroke="black" points="288.7,-374.37 293.06,-364.71 283.63,-369.54 288.7,-374.37"/>
</g>
<!-- account::create_signer -->
<g id="node4" class="node">
<title>account::create_signer</title>
<ellipse fill="none" stroke="black" cx="132" cy="-272" rx="57.69" ry="18"/>
<text text-anchor="middle" x="132" y="-268.3" font-family="Times,serif" font-size="14.00">create_signer</text>
</g>
<!-- account::create_signer_with_capability&#45;&gt;account::create_signer -->
<g id="edge3" class="edge">
<title>account::create_signer_with_capability&#45;&gt;account::create_signer</title>
<path fill="none" stroke="black" d="M132,-328.7C132,-320.67 132,-310.9 132,-301.8"/>
<polygon fill="black" stroke="black" points="135.5,-301.94 132,-291.94 128.5,-301.94 135.5,-301.94"/>
</g>
<!-- option::extract -->
<g id="node5" class="node">
<title>option::extract</title>
<ellipse fill="none" stroke="black" cx="354" cy="-189" rx="34.39" ry="18"/>
<text text-anchor="middle" x="354" y="-185.3" font-family="Times,serif" font-size="14.00">extract</text>
</g>
<!-- simple_map::borrow&#45;&gt;option::extract -->
<g id="edge4" class="edge">
<title>simple_map::borrow&#45;&gt;option::extract</title>
<path fill="none" stroke="black" d="M327.3,-331.3C330.29,-328.2 333.04,-324.73 335,-321 351.95,-288.75 355.19,-246.2 355.21,-218.48"/>
<polygon fill="black" stroke="black" points="358.71,-218.69 355.06,-208.74 351.71,-218.8 358.71,-218.69"/>
</g>
<!-- option::is_some -->
<g id="node6" class="node">
<title>option::is_some</title>
<ellipse fill="none" stroke="black" cx="348" cy="-117" rx="40.09" ry="18"/>
<text text-anchor="middle" x="348" y="-113.3" font-family="Times,serif" font-size="14.00">is_some</text>
</g>
<!-- simple_map::borrow&#45;&gt;option::is_some -->
<g id="edge5" class="edge">
<title>simple_map::borrow&#45;&gt;option::is_some</title>
<path fill="none" stroke="black" d="M344.57,-345.18C413.05,-343.27 555.13,-337.36 570,-321 617.24,-269.04 614.45,-217.36 570,-163 548.82,-137.1 457.72,-125.75 399,-121.05"/>
<polygon fill="black" stroke="black" points="399.47,-117.57 389.23,-120.31 398.94,-124.55 399.47,-117.57"/>
</g>
<!-- error::invalid_argument -->
<g id="node7" class="node">
<title>error::invalid_argument</title>
<ellipse fill="none" stroke="black" cx="485" cy="-272" rx="73.39" ry="18"/>
<text text-anchor="middle" x="485" y="-268.3" font-family="Times,serif" font-size="14.00">invalid_argument</text>
</g>
<!-- simple_map::borrow&#45;&gt;error::invalid_argument -->
<g id="edge6" class="edge">
<title>simple_map::borrow&#45;&gt;error::invalid_argument</title>
<path fill="none" stroke="black" d="M335.27,-334.75C362.66,-323.46 405.39,-305.83 438.21,-292.3"/>
<polygon fill="black" stroke="black" points="439.17,-295.69 447.08,-288.64 436.5,-289.22 439.17,-295.69"/>
</g>
<!-- simple_map::find -->
<g id="node8" class="node">
<title>simple_map::find</title>
<ellipse fill="none" stroke="black" cx="299" cy="-272" rx="27" ry="18"/>
<text text-anchor="middle" x="299" y="-268.3" font-family="Times,serif" font-size="14.00">find</text>
</g>
<!-- simple_map::borrow&#45;&gt;simple_map::find -->
<g id="edge7" class="edge">
<title>simple_map::borrow&#45;&gt;simple_map::find</title>
<path fill="none" stroke="black" d="M305.87,-328.7C304.88,-320.67 303.67,-310.9 302.55,-301.8"/>
<polygon fill="black" stroke="black" points="306.03,-301.43 301.33,-291.93 299.08,-302.28 306.03,-301.43"/>
</g>
<!-- option::extract&#45;&gt;option::is_some -->
<g id="edge8" class="edge">
<title>option::extract&#45;&gt;option::is_some</title>
<path fill="none" stroke="black" d="M352.52,-170.7C351.89,-163.41 351.15,-154.73 350.45,-146.54"/>
<polygon fill="black" stroke="black" points="353.94,-146.28 349.6,-136.61 346.96,-146.87 353.94,-146.28"/>
</g>
<!-- vector::is_empty -->
<g id="node9" class="node">
<title>vector::is_empty</title>
<ellipse fill="none" stroke="black" cx="337" cy="-34" rx="43.59" ry="18"/>
<text text-anchor="middle" x="337" y="-30.3" font-family="Times,serif" font-size="14.00">is_empty</text>
</g>
<!-- option::is_some&#45;&gt;vector::is_empty -->
<g id="edge9" class="edge">
<title>option::is_some&#45;&gt;vector::is_empty</title>
<path fill="none" stroke="black" d="M345.67,-98.82C344.28,-88.58 342.48,-75.33 340.88,-63.55"/>
<polygon fill="black" stroke="black" points="344.38,-63.37 339.57,-53.93 337.45,-64.31 344.38,-63.37"/>
</g>
<!-- error::canonical -->
<g id="node10" class="node">
<title>error::canonical</title>
<ellipse fill="none" stroke="black" cx="485" cy="-189" rx="44.39" ry="18"/>
<text text-anchor="middle" x="485" y="-185.3" font-family="Times,serif" font-size="14.00">canonical</text>
</g>
<!-- error::invalid_argument&#45;&gt;error::canonical -->
<g id="edge10" class="edge">
<title>error::invalid_argument&#45;&gt;error::canonical</title>
<path fill="none" stroke="black" d="M485,-253.82C485,-243.69 485,-230.6 485,-218.92"/>
<polygon fill="black" stroke="black" points="488.5,-218.95 485,-208.95 481.5,-218.95 488.5,-218.95"/>
</g>
<!-- option::none -->
<g id="node11" class="node">
<title>option::none</title>
<ellipse fill="none" stroke="black" cx="274" cy="-189" rx="27.9" ry="18"/>
<text text-anchor="middle" x="274" y="-185.3" font-family="Times,serif" font-size="14.00">none</text>
</g>
<!-- simple_map::find&#45;&gt;option::none -->
<g id="edge11" class="edge">
<title>simple_map::find&#45;&gt;option::none</title>
<path fill="none" stroke="black" d="M293.82,-254.22C290.59,-243.75 286.35,-230.03 282.63,-217.95"/>
<polygon fill="black" stroke="black" points="286,-217.01 279.71,-208.49 279.31,-219.07 286,-217.01"/>
</g>
<!-- option::some -->
<g id="node12" class="node">
<title>option::some</title>
<ellipse fill="none" stroke="black" cx="198" cy="-189" rx="29.8" ry="18"/>
<text text-anchor="middle" x="198" y="-185.3" font-family="Times,serif" font-size="14.00">some</text>
</g>
<!-- simple_map::find&#45;&gt;option::some -->
<g id="edge12" class="edge">
<title>simple_map::find&#45;&gt;option::some</title>
<path fill="none" stroke="black" d="M280.87,-258.12C274.47,-253.92 267.09,-249.45 260,-246 250.27,-241.27 245.86,-244.21 237,-238 228.41,-231.97 220.69,-223.55 214.43,-215.44"/>
<polygon fill="black" stroke="black" points="217.36,-213.52 208.68,-207.45 211.68,-217.61 217.36,-213.52"/>
</g>
<!-- vector::singleton -->
<g id="node13" class="node">
<title>vector::singleton</title>
<ellipse fill="none" stroke="black" cx="233" cy="-34" rx="42.79" ry="18"/>
<text text-anchor="middle" x="233" y="-30.3" font-family="Times,serif" font-size="14.00">singleton</text>
</g>
<!-- option::some&#45;&gt;vector::singleton -->
<g id="edge13" class="edge">
<title>option::some&#45;&gt;vector::singleton</title>
<path fill="none" stroke="black" d="M201.95,-170.75C207.94,-144.55 219.39,-94.48 226.59,-63.02"/>
<polygon fill="black" stroke="black" points="229.97,-63.96 228.78,-53.43 223.14,-62.4 229.97,-63.96"/>
</g>
</g>
</svg>
