<?xml version="1.0" encoding="UTF-8" standalone="no"?>
<!DOCTYPE svg PUBLIC "-//W3C//DTD SVG 1.1//EN"
 "http://www.w3.org/Graphics/SVG/1.1/DTD/svg11.dtd">
<!-- Generated by graphviz version 7.0.4 (20221203.1631)
 -->
<!-- Title: G Pages: 1 -->
<svg width="391pt" height="382pt"
 viewBox="0.00 0.00 391.00 382.00" xmlns="http://www.w3.org/2000/svg" xmlns:xlink="http://www.w3.org/1999/xlink">
<g id="graph0" class="graph" transform="scale(1 1) rotate(0) translate(4 378)">
<title>G</title>
<polygon fill="white" stroke="none" points="-4,4 -4,-378 387,-378 387,4 -4,4"/>
<g id="clust1" class="cluster">
<title>cluster_vesting</title>
<polygon fill="none" stroke="black" points="8,-136 8,-211 359,-211 359,-136 8,-136"/>
<text text-anchor="middle" x="183.5" y="-195.8" font-family="Times,serif" font-size="14.00">vesting</text>
</g>
<g id="clust2" class="cluster">
<title>cluster_genesis</title>
<polygon fill="none" stroke="black" points="139,-219 139,-366 375,-366 375,-219 139,-219"/>
<text text-anchor="middle" x="257" y="-350.8" font-family="Times,serif" font-size="14.00">genesis</text>
</g>
<!-- assert_account_exists -->
<g id="node1" class="node">
<title>assert_account_exists</title>
<ellipse fill="none" stroke="black" cx="168" cy="-18" rx="87.18" ry="18"/>
<text text-anchor="middle" x="168" y="-14.3" font-family="Times,serif" font-size="14.00">assert_account_exists</text>
</g>
<!-- assert_account_is_registered_for_apt -->
<g id="node2" class="node">
<title>assert_account_is_registered_for_apt</title>
<ellipse fill="none" stroke="black" cx="168" cy="-90" rx="141.88" ry="18"/>
<text text-anchor="middle" x="168" y="-86.3" font-family="Times,serif" font-size="14.00">assert_account_is_registered_for_apt</text>
</g>
<!-- assert_account_is_registered_for_apt&#45;&gt;assert_account_exists -->
<g id="edge1" class="edge">
<title>assert_account_is_registered_for_apt&#45;&gt;assert_account_exists</title>
<path fill="none" stroke="black" d="M168,-71.7C168,-64.41 168,-55.73 168,-47.54"/>
<polygon fill="black" stroke="black" points="171.5,-47.62 168,-37.62 164.5,-47.62 171.5,-47.62"/>
</g>
<!-- vesting::create_vesting_contract -->
<g id="node3" class="node">
<title>vesting::create_vesting_contract</title>
<ellipse fill="none" stroke="black" cx="257" cy="-162" rx="94.48" ry="18"/>
<text text-anchor="middle" x="257" y="-158.3" font-family="Times,serif" font-size="14.00">create_vesting_contract</text>
</g>
<!-- vesting::create_vesting_contract&#45;&gt;assert_account_is_registered_for_apt -->
<g id="edge2" class="edge">
<title>vesting::create_vesting_contract&#45;&gt;assert_account_is_registered_for_apt</title>
<path fill="none" stroke="black" d="M235.46,-144.05C224.47,-135.41 210.91,-124.75 198.84,-115.26"/>
<polygon fill="black" stroke="black" points="201.18,-112.64 191.15,-109.21 196.85,-118.14 201.18,-112.64"/>
</g>
<!-- vesting::set_beneficiary -->
<g id="node4" class="node">
<title>vesting::set_beneficiary</title>
<ellipse fill="none" stroke="black" cx="80" cy="-162" rx="64.19" ry="18"/>
<text text-anchor="middle" x="80" y="-158.3" font-family="Times,serif" font-size="14.00">set_beneficiary</text>
</g>
<!-- vesting::set_beneficiary&#45;&gt;assert_account_is_registered_for_apt -->
<g id="edge3" class="edge">
<title>vesting::set_beneficiary&#45;&gt;assert_account_is_registered_for_apt</title>
<path fill="none" stroke="black" d="M100.41,-144.76C111.42,-136.01 125.22,-125.03 137.47,-115.28"/>
<polygon fill="black" stroke="black" points="139.64,-118.03 145.29,-109.07 135.28,-112.55 139.64,-118.03"/>
</g>
<!-- genesis::create_employee_validators -->
<g id="node5" class="node">
<title>genesis::create_employee_validators</title>
<ellipse fill="none" stroke="black" cx="257" cy="-245" rx="109.68" ry="18"/>
<text text-anchor="middle" x="257" y="-241.3" font-family="Times,serif" font-size="14.00">create_employee_validators</text>
</g>
<!-- genesis::create_employee_validators&#45;&gt;vesting::create_vesting_contract -->
<g id="edge4" class="edge">
<title>genesis::create_employee_validators&#45;&gt;vesting::create_vesting_contract</title>
<path fill="none" stroke="black" d="M257,-226.82C257,-216.69 257,-203.6 257,-191.92"/>
<polygon fill="black" stroke="black" points="260.5,-191.95 257,-181.95 253.5,-191.95 260.5,-191.95"/>
</g>
<!-- genesis::initialize_for_verification -->
<g id="node6" class="node">
<title>genesis::initialize_for_verification</title>
<ellipse fill="none" stroke="black" cx="257" cy="-317" rx="100.98" ry="18"/>
<text text-anchor="middle" x="257" y="-313.3" font-family="Times,serif" font-size="14.00">initialize_for_verification</text>
</g>
<!-- genesis::initialize_for_verification&#45;&gt;genesis::create_employee_validators -->
<g id="edge5" class="edge">
<title>genesis::initialize_for_verification&#45;&gt;genesis::create_employee_validators</title>
<path fill="none" stroke="black" d="M257,-298.7C257,-291.41 257,-282.73 257,-274.54"/>
<polygon fill="black" stroke="black" points="260.5,-274.62 257,-264.62 253.5,-274.62 260.5,-274.62"/>
</g>
</g>
</svg>
