<?xml version="1.0" encoding="UTF-8" standalone="no"?>
<!DOCTYPE svg PUBLIC "-//W3C//DTD SVG 1.1//EN"
 "http://www.w3.org/Graphics/SVG/1.1/DTD/svg11.dtd">
<!-- Generated by graphviz version 7.0.4 (20221203.1631)
 -->
<!-- Title: G Pages: 1 -->
<svg width="1614pt" height="692pt"
 viewBox="0.00 0.00 1614.00 692.00" xmlns="http://www.w3.org/2000/svg" xmlns:xlink="http://www.w3.org/1999/xlink">
<g id="graph0" class="graph" transform="scale(1 1) rotate(0) translate(4 688)">
<title>G</title>
<polygon fill="white" stroke="none" points="-4,4 -4,-688 1610,-688 1610,4 -4,4"/>
<!-- aptos_account -->
<g id="node1" class="node">
<title>aptos_account</title>
<ellipse fill="none" stroke="black" cx="913" cy="-666" rx="61.19" ry="18"/>
<text text-anchor="middle" x="913" y="-662.3" font-family="Times,serif" font-size="14.00">aptos_account</text>
</g>
<!-- signer -->
<g id="node2" class="node">
<title>signer</title>
<ellipse fill="none" stroke="black" cx="1473" cy="-90" rx="32.49" ry="18"/>
<text text-anchor="middle" x="1473" y="-86.3" font-family="Times,serif" font-size="14.00">signer</text>
</g>
<!-- aptos_account&#45;&gt;signer -->
<g id="edge1" class="edge">
<title>aptos_account&#45;&gt;signer</title>
<path fill="none" stroke="black" d="M974.42,-664.49C1106.75,-662.61 1414.44,-653.73 1509,-612 1562.53,-588.38 1606,-581.51 1606,-523 1606,-523 1606,-523 1606,-233 1606,-175.02 1546.2,-130.95 1506.8,-108.2"/>
<polygon fill="black" stroke="black" points="1508.54,-105.17 1498.1,-103.36 1505.13,-111.28 1508.54,-105.17"/>
</g>
<!-- error -->
<g id="node3" class="node">
<title>error</title>
<ellipse fill="none" stroke="black" cx="1054" cy="-90" rx="27.9" ry="18"/>
<text text-anchor="middle" x="1054" y="-86.3" font-family="Times,serif" font-size="14.00">error</text>
</g>
<!-- aptos_account&#45;&gt;error -->
<g id="edge2" class="edge">
<title>aptos_account&#45;&gt;error</title>
<path fill="none" stroke="black" d="M974.33,-664.64C1137.16,-662.06 1568,-643.79 1568,-523 1568,-523 1568,-523 1568,-449 1568,-216.68 1210.04,-122.79 1091.57,-98.08"/>
<polygon fill="black" stroke="black" points="1092.53,-94.7 1082.04,-96.14 1091.14,-101.56 1092.53,-94.7"/>
</g>
<!-- event -->
<g id="node4" class="node">
<title>event</title>
<ellipse fill="none" stroke="black" cx="96" cy="-378" rx="29.8" ry="18"/>
<text text-anchor="middle" x="96" y="-374.3" font-family="Times,serif" font-size="14.00">event</text>
</g>
<!-- aptos_account&#45;&gt;event -->
<g id="edge3" class="edge">
<title>aptos_account&#45;&gt;event</title>
<path fill="none" stroke="black" d="M857.87,-657.73C698.51,-635.71 241.58,-565.27 131,-468 113.47,-452.58 104.64,-427.25 100.24,-407.55"/>
<polygon fill="black" stroke="black" points="103.71,-407.06 98.37,-397.91 96.84,-408.4 103.71,-407.06"/>
</g>
<!-- account -->
<g id="node5" class="node">
<title>account</title>
<ellipse fill="none" stroke="black" cx="504" cy="-450" rx="38.19" ry="18"/>
<text text-anchor="middle" x="504" y="-446.3" font-family="Times,serif" font-size="14.00">account</text>
</g>
<!-- aptos_account&#45;&gt;account -->
<g id="edge4" class="edge">
<title>aptos_account&#45;&gt;account</title>
<path fill="none" stroke="black" d="M883.91,-649.78C810.56,-611.4 618.23,-510.77 538.94,-469.28"/>
<polygon fill="black" stroke="black" points="540.79,-466.3 530.31,-464.76 537.55,-472.5 540.79,-466.3"/>
</g>
<!-- coin -->
<g id="node6" class="node">
<title>coin</title>
<ellipse fill="none" stroke="black" cx="978" cy="-522" rx="27" ry="18"/>
<text text-anchor="middle" x="978" y="-518.3" font-family="Times,serif" font-size="14.00">coin</text>
</g>
<!-- aptos_account&#45;&gt;coin -->
<g id="edge5" class="edge">
<title>aptos_account&#45;&gt;coin</title>
<path fill="none" stroke="black" d="M920.84,-647.87C931.98,-623.54 952.49,-578.73 965.67,-549.93"/>
<polygon fill="black" stroke="black" points="968.72,-551.67 969.7,-541.12 962.36,-548.76 968.72,-551.67"/>
</g>
<!-- aptos_coin -->
<g id="node7" class="node">
<title>aptos_coin</title>
<ellipse fill="none" stroke="black" cx="875" cy="-594" rx="48.99" ry="18"/>
<text text-anchor="middle" x="875" y="-590.3" font-family="Times,serif" font-size="14.00">aptos_coin</text>
</g>
<!-- aptos_account&#45;&gt;aptos_coin -->
<g id="edge6" class="edge">
<title>aptos_account&#45;&gt;aptos_coin</title>
<path fill="none" stroke="black" d="M903.8,-648.05C899.51,-640.14 894.29,-630.54 889.49,-621.69"/>
<polygon fill="black" stroke="black" points="892.68,-620.24 884.84,-613.12 886.53,-623.58 892.68,-620.24"/>
</g>
<!-- bcs -->
<g id="node8" class="node">
<title>bcs</title>
<ellipse fill="none" stroke="black" cx="325" cy="-162" rx="27" ry="18"/>
<text text-anchor="middle" x="325" y="-158.3" font-family="Times,serif" font-size="14.00">bcs</text>
</g>
<!-- event&#45;&gt;bcs -->
<g id="edge7" class="edge">
<title>event&#45;&gt;bcs</title>
<path fill="none" stroke="black" d="M92.37,-359.81C89.32,-340.74 87.38,-309.78 101,-288 143.49,-220.08 236.87,-185.89 288.64,-171.57"/>
<polygon fill="black" stroke="black" points="289.4,-174.98 298.17,-169.04 287.61,-168.22 289.4,-174.98"/>
</g>
<!-- guid -->
<g id="node9" class="node">
<title>guid</title>
<ellipse fill="none" stroke="black" cx="137" cy="-306" rx="27" ry="18"/>
<text text-anchor="middle" x="137" y="-302.3" font-family="Times,serif" font-size="14.00">guid</text>
</g>
<!-- event&#45;&gt;guid -->
<g id="edge8" class="edge">
<title>event&#45;&gt;guid</title>
<path fill="none" stroke="black" d="M105.51,-360.76C110.37,-352.46 116.41,-342.15 121.89,-332.79"/>
<polygon fill="black" stroke="black" points="124.74,-334.85 126.78,-324.45 118.7,-331.31 124.74,-334.85"/>
</g>
<!-- account&#45;&gt;signer -->
<g id="edge11" class="edge">
<title>account&#45;&gt;signer</title>
<path fill="none" stroke="black" d="M534.98,-439.1C566.61,-428.85 617.01,-412.11 660,-396 778.32,-351.65 803.08,-327.83 923,-288 983.97,-267.75 1001.87,-271.78 1063,-252 1204.58,-206.19 1367.81,-137 1437.98,-106.44"/>
<polygon fill="black" stroke="black" points="1439.28,-109.69 1447.04,-102.48 1436.47,-103.28 1439.28,-109.69"/>
</g>
<!-- account&#45;&gt;error -->
<g id="edge12" class="edge">
<title>account&#45;&gt;error</title>
<path fill="none" stroke="black" d="M531.43,-437.14C554.22,-427 587.27,-411.6 615,-396 716.85,-338.69 744.66,-326.13 835,-252 886.99,-209.34 886.13,-182.9 941,-144 965.26,-126.8 996,-112.81 1019.28,-103.53"/>
<polygon fill="black" stroke="black" points="1020.26,-106.9 1028.32,-100.03 1017.73,-100.38 1020.26,-106.9"/>
</g>
<!-- account&#45;&gt;event -->
<g id="edge22" class="edge">
<title>account&#45;&gt;event</title>
<path fill="none" stroke="black" d="M466.24,-446.3C399.51,-440.92 256.74,-426.64 140,-396 136.88,-395.18 133.68,-394.21 130.5,-393.16"/>
<polygon fill="black" stroke="black" points="131.91,-389.95 121.31,-389.86 129.54,-396.53 131.91,-389.95"/>
</g>
<!-- account&#45;&gt;bcs -->
<g id="edge13" class="edge">
<title>account&#45;&gt;bcs</title>
<path fill="none" stroke="black" d="M467.35,-444.29C436.7,-438.37 394.22,-425.16 370,-396 320.72,-336.67 319.45,-239.51 322.33,-191.58"/>
<polygon fill="black" stroke="black" points="325.81,-191.98 323.03,-181.75 318.83,-191.47 325.81,-191.98"/>
</g>
<!-- account&#45;&gt;guid -->
<g id="edge20" class="edge">
<title>account&#45;&gt;guid</title>
<path fill="none" stroke="black" d="M465.45,-449.66C407.55,-449.02 296.38,-441.32 216,-396 189.09,-380.83 166.66,-353.01 152.66,-332.5"/>
<polygon fill="black" stroke="black" points="155.74,-330.81 147.32,-324.37 149.89,-334.65 155.74,-330.81"/>
</g>
<!-- vector -->
<g id="node10" class="node">
<title>vector</title>
<ellipse fill="none" stroke="black" cx="171" cy="-18" rx="32.49" ry="18"/>
<text text-anchor="middle" x="171" y="-14.3" font-family="Times,serif" font-size="14.00">vector</text>
</g>
<!-- account&#45;&gt;vector -->
<g id="edge9" class="edge">
<title>account&#45;&gt;vector</title>
<path fill="none" stroke="black" d="M465.72,-447.32C425.5,-443.6 362.67,-431.95 323,-396 216.44,-299.44 183.22,-117.75 174.09,-47.62"/>
<polygon fill="black" stroke="black" points="177.57,-47.24 172.88,-37.74 170.62,-48.09 177.57,-47.24"/>
</g>
<!-- option -->
<g id="node11" class="node">
<title>option</title>
<ellipse fill="none" stroke="black" cx="323" cy="-90" rx="33.29" ry="18"/>
<text text-anchor="middle" x="323" y="-86.3" font-family="Times,serif" font-size="14.00">option</text>
</g>
<!-- account&#45;&gt;option -->
<g id="edge10" class="edge">
<title>account&#45;&gt;option</title>
<path fill="none" stroke="black" d="M466.18,-446.43C429.75,-441.94 375.51,-429.65 343,-396 325.82,-378.22 295.08,-233.75 289,-180 287.2,-164.1 284.5,-159.35 289,-144 291.92,-134.05 297.34,-124.19 303.02,-115.73"/>
<polygon fill="black" stroke="black" points="305.77,-117.9 308.77,-107.74 300.09,-113.81 305.77,-117.9"/>
</g>
<!-- type_info -->
<g id="node12" class="node">
<title>type_info</title>
<ellipse fill="none" stroke="black" cx="782" cy="-234" rx="44.39" ry="18"/>
<text text-anchor="middle" x="782" y="-230.3" font-family="Times,serif" font-size="14.00">type_info</text>
</g>
<!-- account&#45;&gt;type_info -->
<g id="edge14" class="edge">
<title>account&#45;&gt;type_info</title>
<path fill="none" stroke="black" d="M526.46,-434.97C542.38,-424.73 564.02,-410.22 582,-396 637.77,-351.91 643.73,-331.45 700,-288 715.19,-276.27 732.98,-264.55 748.1,-255.13"/>
<polygon fill="black" stroke="black" points="749.62,-258.3 756.31,-250.08 745.96,-252.34 749.62,-258.3"/>
</g>
<!-- table -->
<g id="node13" class="node">
<title>table</title>
<ellipse fill="none" stroke="black" cx="960" cy="-306" rx="27.9" ry="18"/>
<text text-anchor="middle" x="960" y="-302.3" font-family="Times,serif" font-size="14.00">table</text>
</g>
<!-- account&#45;&gt;table -->
<g id="edge15" class="edge">
<title>account&#45;&gt;table</title>
<path fill="none" stroke="black" d="M538.92,-442.25C583.32,-433.32 662.13,-416.33 728,-396 800.2,-373.72 882.21,-340.26 926.8,-321.36"/>
<polygon fill="black" stroke="black" points="928.09,-324.61 935.92,-317.47 925.34,-318.17 928.09,-324.61"/>
</g>
<!-- system_addresses -->
<g id="node14" class="node">
<title>system_addresses</title>
<ellipse fill="none" stroke="black" cx="1276" cy="-306" rx="73.39" ry="18"/>
<text text-anchor="middle" x="1276" y="-302.3" font-family="Times,serif" font-size="14.00">system_addresses</text>
</g>
<!-- account&#45;&gt;system_addresses -->
<g id="edge16" class="edge">
<title>account&#45;&gt;system_addresses</title>
<path fill="none" stroke="black" d="M541.34,-445.69C614.18,-438.91 780.19,-421.86 918,-396 1025.4,-375.85 1148.67,-343.02 1218.94,-323.37"/>
<polygon fill="black" stroke="black" points="1219.61,-326.82 1228.3,-320.74 1217.72,-320.08 1219.61,-326.82"/>
</g>
<!-- hash -->
<g id="node15" class="node">
<title>hash</title>
<ellipse fill="none" stroke="black" cx="435" cy="-234" rx="27" ry="18"/>
<text text-anchor="middle" x="435" y="-230.3" font-family="Times,serif" font-size="14.00">hash</text>
</g>
<!-- account&#45;&gt;hash -->
<g id="edge17" class="edge">
<title>account&#45;&gt;hash</title>
<path fill="none" stroke="black" d="M467.78,-443.59C439.9,-437.31 403.17,-423.98 385,-396 356.71,-352.43 391.68,-291.89 415.79,-258.85"/>
<polygon fill="black" stroke="black" points="418.39,-261.21 421.63,-251.12 412.81,-256.99 418.39,-261.21"/>
</g>
<!-- ed25519 -->
<g id="node16" class="node">
<title>ed25519</title>
<ellipse fill="none" stroke="black" cx="528" cy="-306" rx="40.89" ry="18"/>
<text text-anchor="middle" x="528" y="-302.3" font-family="Times,serif" font-size="14.00">ed25519</text>
</g>
<!-- account&#45;&gt;ed25519 -->
<g id="edge18" class="edge">
<title>account&#45;&gt;ed25519</title>
<path fill="none" stroke="black" d="M514.91,-432.61C520.95,-422.52 527.87,-409.05 531,-396 535.75,-376.21 534.82,-353.24 532.8,-335.6"/>
<polygon fill="black" stroke="black" points="536.29,-335.28 531.48,-325.84 529.35,-336.21 536.29,-335.28"/>
</g>
<!-- multi_ed25519 -->
<g id="node17" class="node">
<title>multi_ed25519</title>
<ellipse fill="none" stroke="black" cx="458" cy="-378" rx="64.19" ry="18"/>
<text text-anchor="middle" x="458" y="-374.3" font-family="Times,serif" font-size="14.00">multi_ed25519</text>
</g>
<!-- account&#45;&gt;multi_ed25519 -->
<g id="edge19" class="edge">
<title>account&#45;&gt;multi_ed25519</title>
<path fill="none" stroke="black" d="M493.1,-432.41C487.79,-424.34 481.28,-414.43 475.32,-405.35"/>
<polygon fill="black" stroke="black" points="478.39,-403.66 469.97,-397.22 472.54,-407.5 478.39,-403.66"/>
</g>
<!-- from_bcs -->
<g id="node18" class="node">
<title>from_bcs</title>
<ellipse fill="none" stroke="black" cx="676" cy="-234" rx="44.39" ry="18"/>
<text text-anchor="middle" x="676" y="-230.3" font-family="Times,serif" font-size="14.00">from_bcs</text>
</g>
<!-- account&#45;&gt;from_bcs -->
<g id="edge21" class="edge">
<title>account&#45;&gt;from_bcs</title>
<path fill="none" stroke="black" d="M518.84,-433.32C540.55,-410.11 581.89,-364.94 614,-324 630.01,-303.59 646.74,-279.38 658.78,-261.37"/>
<polygon fill="black" stroke="black" points="661.67,-263.34 664.28,-253.07 655.84,-259.47 661.67,-263.34"/>
</g>
<!-- coin&#45;&gt;signer -->
<g id="edge25" class="edge">
<title>coin&#45;&gt;signer</title>
<path fill="none" stroke="black" d="M1004.91,-519.45C1110.67,-512.66 1492,-481.07 1492,-379 1492,-379 1492,-379 1492,-233 1492,-193.17 1484.57,-147.61 1479,-119.07"/>
<polygon fill="black" stroke="black" points="1482.46,-118.54 1477.05,-109.43 1475.6,-119.93 1482.46,-118.54"/>
</g>
<!-- coin&#45;&gt;error -->
<g id="edge26" class="edge">
<title>coin&#45;&gt;error</title>
<path fill="none" stroke="black" d="M985.81,-504.51C990.55,-494.16 996.53,-480.46 1001,-468 1045.38,-344.3 1063.45,-311.34 1068,-180 1068.55,-164.01 1070.06,-159.87 1068,-144 1066.93,-135.76 1064.96,-126.97 1062.83,-118.97"/>
<polygon fill="black" stroke="black" points="1066.21,-118.07 1060.09,-109.42 1059.48,-119.99 1066.21,-118.07"/>
</g>
<!-- coin&#45;&gt;event -->
<g id="edge29" class="edge">
<title>coin&#45;&gt;event</title>
<path fill="none" stroke="black" d="M950.98,-520.4C819.37,-517.29 249.02,-501.98 178,-468 149.37,-454.3 125.97,-425.78 111.6,-404.69"/>
<polygon fill="black" stroke="black" points="114.71,-403.04 106.3,-396.59 108.85,-406.88 114.71,-403.04"/>
</g>
<!-- coin&#45;&gt;account -->
<g id="edge30" class="edge">
<title>coin&#45;&gt;account</title>
<path fill="none" stroke="black" d="M951.5,-517.09C874.5,-505.72 650.02,-472.56 551.4,-458"/>
<polygon fill="black" stroke="black" points="551.92,-454.54 541.51,-456.54 550.9,-461.46 551.92,-454.54"/>
</g>
<!-- coin&#45;&gt;option -->
<g id="edge23" class="edge">
<title>coin&#45;&gt;option</title>
<path fill="none" stroke="black" d="M950.72,-520.91C832.07,-519.87 363.46,-508.57 287,-396 224.06,-303.33 245.78,-250.01 282,-144 285.65,-133.33 292.41,-123.14 299.41,-114.6"/>
<polygon fill="black" stroke="black" points="301.97,-116.98 305.95,-107.17 296.72,-112.36 301.97,-116.98"/>
</g>
<!-- coin&#45;&gt;type_info -->
<g id="edge27" class="edge">
<title>coin&#45;&gt;type_info</title>
<path fill="none" stroke="black" d="M967.18,-505.22C935.02,-458.28 839.73,-319.23 799.86,-261.05"/>
<polygon fill="black" stroke="black" points="802.91,-259.32 794.37,-253.05 797.14,-263.28 802.91,-259.32"/>
</g>
<!-- coin&#45;&gt;system_addresses -->
<g id="edge28" class="edge">
<title>coin&#45;&gt;system_addresses</title>
<path fill="none" stroke="black" d="M1005.28,-519.96C1054.3,-517.14 1159.49,-506.69 1238,-468 1281.81,-446.42 1300.73,-440.43 1321,-396 1327.64,-381.44 1326.52,-375.02 1321,-360 1317.21,-349.68 1310.42,-340 1303.25,-331.8"/>
<polygon fill="black" stroke="black" points="1305.89,-329.5 1296.48,-324.64 1300.8,-334.31 1305.89,-329.5"/>
</g>
<!-- string -->
<g id="node19" class="node">
<title>string</title>
<ellipse fill="none" stroke="black" cx="715" cy="-162" rx="30.59" ry="18"/>
<text text-anchor="middle" x="715" y="-158.3" font-family="Times,serif" font-size="14.00">string</text>
</g>
<!-- coin&#45;&gt;string -->
<g id="edge24" class="edge">
<title>coin&#45;&gt;string</title>
<path fill="none" stroke="black" d="M980.56,-503.64C987.9,-452.78 1007.84,-306.46 997,-288 970.81,-243.4 823.59,-194.94 752.89,-173.83"/>
<polygon fill="black" stroke="black" points="754.27,-170.59 743.69,-171.11 752.29,-177.3 754.27,-170.59"/>
</g>
<!-- aggregator -->
<g id="node20" class="node">
<title>aggregator</title>
<ellipse fill="none" stroke="black" cx="1416" cy="-306" rx="48.19" ry="18"/>
<text text-anchor="middle" x="1416" y="-302.3" font-family="Times,serif" font-size="14.00">aggregator</text>
</g>
<!-- coin&#45;&gt;aggregator -->
<g id="edge31" class="edge">
<title>coin&#45;&gt;aggregator</title>
<path fill="none" stroke="black" d="M1005.14,-521.38C1060.2,-521.07 1187.72,-514.89 1281,-468 1339.39,-438.65 1382.17,-371.53 1402.59,-333.88"/>
<polygon fill="black" stroke="black" points="1405.48,-335.91 1407.05,-325.43 1399.29,-332.64 1405.48,-335.91"/>
</g>
<!-- aggregator_factory -->
<g id="node21" class="node">
<title>aggregator_factory</title>
<ellipse fill="none" stroke="black" cx="1235" cy="-378" rx="77.19" ry="18"/>
<text text-anchor="middle" x="1235" y="-374.3" font-family="Times,serif" font-size="14.00">aggregator_factory</text>
</g>
<!-- coin&#45;&gt;aggregator_factory -->
<g id="edge32" class="edge">
<title>coin&#45;&gt;aggregator_factory</title>
<path fill="none" stroke="black" d="M1004.99,-518.61C1060.9,-513.11 1186.57,-497.69 1216,-468 1231.57,-452.3 1235.79,-427.16 1236.42,-407.6"/>
<polygon fill="black" stroke="black" points="1239.92,-407.79 1236.42,-397.79 1232.92,-407.79 1239.92,-407.79"/>
</g>
<!-- optional_aggregator -->
<g id="node22" class="node">
<title>optional_aggregator</title>
<ellipse fill="none" stroke="black" cx="1126" cy="-450" rx="81.49" ry="18"/>
<text text-anchor="middle" x="1126" y="-446.3" font-family="Times,serif" font-size="14.00">optional_aggregator</text>
</g>
<!-- coin&#45;&gt;optional_aggregator -->
<g id="edge33" class="edge">
<title>coin&#45;&gt;optional_aggregator</title>
<path fill="none" stroke="black" d="M999.52,-510.82C1021.2,-500.57 1055.27,-484.45 1082.59,-471.53"/>
<polygon fill="black" stroke="black" points="1083.77,-474.84 1091.32,-467.4 1080.78,-468.52 1083.77,-474.84"/>
</g>
<!-- aptos_coin&#45;&gt;signer -->
<g id="edge37" class="edge">
<title>aptos_coin&#45;&gt;signer</title>
<path fill="none" stroke="black" d="M923.47,-590.89C1022.87,-584.71 1254.45,-560.67 1421,-468 1463.67,-444.26 1483.11,-440.14 1504,-396 1551.91,-294.75 1530.65,-251.74 1500,-144 1497.45,-135.02 1493.33,-125.78 1489.07,-117.57"/>
<polygon fill="black" stroke="black" points="1492.14,-115.89 1484.25,-108.82 1486.01,-119.27 1492.14,-115.89"/>
</g>
<!-- aptos_coin&#45;&gt;error -->
<g id="edge38" class="edge">
<title>aptos_coin&#45;&gt;error</title>
<path fill="none" stroke="black" d="M873.18,-575.53C870.55,-548.76 866,-495.96 866,-451 866,-451 866,-451 866,-377 866,-261.64 978.99,-280.85 1035,-180 1045.27,-161.51 1050,-138.01 1052.17,-119.81"/>
<polygon fill="black" stroke="black" points="1055.64,-120.24 1053.13,-109.95 1048.67,-119.56 1055.64,-120.24"/>
</g>
<!-- aptos_coin&#45;&gt;coin -->
<g id="edge40" class="edge">
<title>aptos_coin&#45;&gt;coin</title>
<path fill="none" stroke="black" d="M897.6,-577.64C913.15,-567.07 933.88,-552.98 950.4,-541.75"/>
<polygon fill="black" stroke="black" points="952.02,-544.89 958.32,-536.37 948.08,-539.1 952.02,-544.89"/>
</g>
<!-- aptos_coin&#45;&gt;vector -->
<g id="edge34" class="edge">
<title>aptos_coin&#45;&gt;vector</title>
<path fill="none" stroke="black" d="M825.64,-593.44C717.81,-593.41 453.64,-587.96 239,-540 128.38,-515.29 0,-564.35 0,-451 0,-451 0,-451 0,-161 0,-92.51 82.19,-50.74 132.61,-31.55"/>
<polygon fill="black" stroke="black" points="133.54,-34.94 141.72,-28.21 131.13,-28.37 133.54,-34.94"/>
</g>
<!-- aptos_coin&#45;&gt;option -->
<g id="edge35" class="edge">
<title>aptos_coin&#45;&gt;option</title>
<path fill="none" stroke="black" d="M827.59,-588.75C683.8,-575.3 254.84,-530.76 131,-468 90.07,-447.26 74.85,-438.27 57,-396 1.17,-263.79 203.78,-148.38 287.96,-107.14"/>
<polygon fill="black" stroke="black" points="289.23,-110.41 296.72,-102.91 286.19,-104.1 289.23,-110.41"/>
</g>
<!-- aptos_coin&#45;&gt;system_addresses -->
<g id="edge39" class="edge">
<title>aptos_coin&#45;&gt;system_addresses</title>
<path fill="none" stroke="black" d="M921.57,-587.9C1001.42,-577.26 1166.9,-546.77 1281,-468 1325.5,-437.28 1359.43,-409.2 1337,-360 1331.65,-348.27 1322.29,-338.14 1312.48,-329.96"/>
<polygon fill="black" stroke="black" points="1314.7,-327.26 1304.64,-323.93 1310.44,-332.8 1314.7,-327.26"/>
</g>
<!-- aptos_coin&#45;&gt;string -->
<g id="edge36" class="edge">
<title>aptos_coin&#45;&gt;string</title>
<path fill="none" stroke="black" d="M865.7,-575.87C860.69,-565.75 854.94,-552.5 852,-540 843.75,-504.91 855.46,-245.68 835,-216 829.82,-208.49 784.15,-189.63 750.68,-176.56"/>
<polygon fill="black" stroke="black" points="752.31,-173.44 741.72,-173.09 749.78,-179.97 752.31,-173.44"/>
</g>
<!-- option&#45;&gt;vector -->
<g id="edge41" class="edge">
<title>option&#45;&gt;vector</title>
<path fill="none" stroke="black" d="M298.24,-77.6C273.03,-65.99 233.73,-47.89 205.48,-34.88"/>
<polygon fill="black" stroke="black" points="207.17,-31.8 196.62,-30.8 204.24,-38.16 207.17,-31.8"/>
</g>
<!-- type_info&#45;&gt;error -->
<g id="edge43" class="edge">
<title>type_info&#45;&gt;error</title>
<path fill="none" stroke="black" d="M794.1,-216.35C809.52,-196.31 838.05,-162.97 870,-144 915.85,-116.78 976.48,-102.86 1015.37,-96.26"/>
<polygon fill="black" stroke="black" points="1015.89,-99.73 1025.21,-94.69 1014.78,-92.81 1015.89,-99.73"/>
</g>
<!-- type_info&#45;&gt;bcs -->
<g id="edge45" class="edge">
<title>type_info&#45;&gt;bcs</title>
<path fill="none" stroke="black" d="M749.17,-221.46C742.55,-219.42 735.6,-217.48 729,-216 596.26,-186.26 434.99,-171.29 362.94,-165.69"/>
<polygon fill="black" stroke="black" points="363.51,-162.22 353.27,-164.95 362.98,-169.2 363.51,-162.22"/>
</g>
<!-- type_info&#45;&gt;string -->
<g id="edge42" class="edge">
<title>type_info&#45;&gt;string</title>
<path fill="none" stroke="black" d="M766.46,-216.76C757.85,-207.77 746.99,-196.42 737.47,-186.48"/>
<polygon fill="black" stroke="black" points="740.03,-184.09 730.58,-179.28 734.97,-188.93 740.03,-184.09"/>
</g>
<!-- features -->
<g id="node23" class="node">
<title>features</title>
<ellipse fill="none" stroke="black" cx="988" cy="-162" rx="38.19" ry="18"/>
<text text-anchor="middle" x="988" y="-158.3" font-family="Times,serif" font-size="14.00">features</text>
</g>
<!-- type_info&#45;&gt;features -->
<g id="edge44" class="edge">
<title>type_info&#45;&gt;features</title>
<path fill="none" stroke="black" d="M815.1,-221.75C850.91,-209.58 908.08,-190.16 946.79,-177"/>
<polygon fill="black" stroke="black" points="947.89,-180.32 956.24,-173.79 945.64,-173.7 947.89,-180.32"/>
</g>
<!-- system_addresses&#45;&gt;signer -->
<g id="edge46" class="edge">
<title>system_addresses&#45;&gt;signer</title>
<path fill="none" stroke="black" d="M1291.46,-288.21C1326.25,-250.41 1410.8,-158.56 1451.03,-114.86"/>
<polygon fill="black" stroke="black" points="1453.46,-117.39 1457.66,-107.67 1448.31,-112.65 1453.46,-117.39"/>
</g>
<!-- system_addresses&#45;&gt;error -->
<g id="edge47" class="edge">
<title>system_addresses&#45;&gt;error</title>
<path fill="none" stroke="black" d="M1271.17,-287.67C1261.26,-255.12 1235.62,-184.49 1190,-144 1162.23,-119.35 1121.68,-105.55 1092.09,-98.26"/>
<polygon fill="black" stroke="black" points="1092.95,-94.87 1082.42,-96.03 1091.38,-101.69 1092.95,-94.87"/>
</g>
<!-- ed25519&#45;&gt;error -->
<g id="edge49" class="edge">
<title>ed25519&#45;&gt;error</title>
<path fill="none" stroke="black" d="M529.04,-287.76C532.07,-254.06 543.92,-179.65 590,-144 655.86,-93.05 914.74,-89.74 1014.5,-90.42"/>
<polygon fill="black" stroke="black" points="1014.31,-93.92 1024.34,-90.51 1014.37,-86.92 1014.31,-93.92"/>
</g>
<!-- ed25519&#45;&gt;bcs -->
<g id="edge50" class="edge">
<title>ed25519&#45;&gt;bcs</title>
<path fill="none" stroke="black" d="M521.12,-287.86C512.3,-267.95 495.22,-235.37 471,-216 439.12,-190.5 393.88,-176.62 362.23,-169.54"/>
<polygon fill="black" stroke="black" points="363.23,-166.17 352.72,-167.54 361.79,-173.02 363.23,-166.17"/>
</g>
<!-- ed25519&#45;&gt;option -->
<g id="edge48" class="edge">
<title>ed25519&#45;&gt;option</title>
<path fill="none" stroke="black" d="M525.93,-287.79C522.92,-268.69 515.85,-237.72 500,-216 462.75,-164.95 398.17,-127.07 358.17,-107.06"/>
<polygon fill="black" stroke="black" points="359.95,-104.04 349.43,-102.79 356.88,-110.33 359.95,-104.04"/>
</g>
<!-- ed25519&#45;&gt;type_info -->
<g id="edge51" class="edge">
<title>ed25519&#45;&gt;type_info</title>
<path fill="none" stroke="black" d="M563.01,-296.36C603.24,-286.3 671.15,-268.89 729,-252 731.72,-251.21 734.51,-250.37 737.32,-249.51"/>
<polygon fill="black" stroke="black" points="738.2,-252.91 746.71,-246.6 736.12,-246.22 738.2,-252.91"/>
</g>
<!-- ed25519&#45;&gt;hash -->
<g id="edge52" class="edge">
<title>ed25519&#45;&gt;hash</title>
<path fill="none" stroke="black" d="M508.28,-290.15C494.59,-279.85 476.21,-266.01 461.28,-254.78"/>
<polygon fill="black" stroke="black" points="463.8,-252.3 453.71,-249.08 459.59,-257.89 463.8,-252.3"/>
</g>
<!-- multi_ed25519&#45;&gt;error -->
<g id="edge54" class="edge">
<title>multi_ed25519&#45;&gt;error</title>
<path fill="none" stroke="black" d="M505.05,-365.35C529.47,-357.24 558.24,-344.18 578,-324 614.38,-286.84 597.61,-261.38 623,-216 642.27,-181.55 641.19,-164.37 675,-144 731.61,-109.9 929.09,-96.79 1014.33,-92.64"/>
<polygon fill="black" stroke="black" points="1014.49,-96.14 1024.31,-92.18 1014.16,-89.15 1014.49,-96.14"/>
</g>
<!-- multi_ed25519&#45;&gt;bcs -->
<g id="edge56" class="edge">
<title>multi_ed25519&#45;&gt;bcs</title>
<path fill="none" stroke="black" d="M439.4,-360.41C428.87,-350.47 415.87,-337.22 406,-324 373.87,-280.98 348.42,-223.29 335.13,-189.93"/>
<polygon fill="black" stroke="black" points="338.55,-189.06 331.65,-181.02 332.03,-191.6 338.55,-189.06"/>
</g>
<!-- multi_ed25519&#45;&gt;option -->
<g id="edge53" class="edge">
<title>multi_ed25519&#45;&gt;option</title>
<path fill="none" stroke="black" d="M449.22,-359.86C437.16,-336.01 415.14,-291.29 399,-252 379.67,-204.93 384.51,-189.13 361,-144 355.98,-134.37 349.39,-124.52 343.11,-115.96"/>
<polygon fill="black" stroke="black" points="346,-113.98 337.17,-108.13 340.43,-118.21 346,-113.98"/>
</g>
<!-- multi_ed25519&#45;&gt;hash -->
<g id="edge57" class="edge">
<title>multi_ed25519&#45;&gt;hash</title>
<path fill="none" stroke="black" d="M455.18,-359.59C451.3,-335.61 444.26,-292.14 439.6,-263.42"/>
<polygon fill="black" stroke="black" points="443.07,-262.92 438.01,-253.6 436.16,-264.04 443.07,-262.92"/>
</g>
<!-- multi_ed25519&#45;&gt;ed25519 -->
<g id="edge58" class="edge">
<title>multi_ed25519&#45;&gt;ed25519</title>
<path fill="none" stroke="black" d="M474.59,-360.41C483.34,-351.66 494.25,-340.75 503.92,-331.08"/>
<polygon fill="black" stroke="black" points="506.35,-333.6 510.94,-324.06 501.4,-328.65 506.35,-333.6"/>
</g>
<!-- multi_ed25519&#45;&gt;features -->
<g id="edge55" class="edge">
<title>multi_ed25519&#45;&gt;features</title>
<path fill="none" stroke="black" d="M504.12,-365.03C576.35,-345.56 719.8,-303.93 835,-252 879.3,-232.03 927.25,-202.78 957.43,-183.32"/>
<polygon fill="black" stroke="black" points="959.21,-186.34 965.69,-177.96 955.4,-180.47 959.21,-186.34"/>
</g>
<!-- from_bcs&#45;&gt;string -->
<g id="edge59" class="edge">
<title>from_bcs&#45;&gt;string</title>
<path fill="none" stroke="black" d="M685.44,-216.05C689.91,-208.03 695.36,-198.26 700.35,-189.3"/>
<polygon fill="black" stroke="black" points="703.37,-191.07 705.18,-180.63 697.25,-187.66 703.37,-191.07"/>
</g>
<!-- string&#45;&gt;vector -->
<g id="edge60" class="edge">
<title>string&#45;&gt;vector</title>
<path fill="none" stroke="black" d="M687.28,-153.76C597.75,-130.39 316.09,-56.87 211.03,-29.45"/>
<polygon fill="black" stroke="black" points="212,-26.09 201.44,-26.95 210.24,-32.86 212,-26.09"/>
</g>
<!-- string&#45;&gt;option -->
<g id="edge61" class="edge">
<title>string&#45;&gt;option</title>
<path fill="none" stroke="black" d="M685.86,-155.8C617.36,-143.56 445.89,-112.95 365.66,-98.62"/>
<polygon fill="black" stroke="black" points="366.45,-95.2 355.99,-96.89 365.22,-102.1 366.45,-95.2"/>
</g>
<!-- aggregator_factory&#45;&gt;error -->
<g id="edge62" class="edge">
<title>aggregator_factory&#45;&gt;error</title>
<path fill="none" stroke="black" d="M1219.1,-360.02C1210.6,-350.15 1200.57,-337.1 1194,-324 1156.79,-249.78 1194.56,-209.86 1144,-144 1129.9,-125.64 1107.49,-112.41 1088.55,-103.76"/>
<polygon fill="black" stroke="black" points="1090.14,-100.64 1079.57,-99.91 1087.38,-107.07 1090.14,-100.64"/>
</g>
<!-- aggregator_factory&#45;&gt;table -->
<g id="edge63" class="edge">
<title>aggregator_factory&#45;&gt;table</title>
<path fill="none" stroke="black" d="M1184.24,-364.08C1129.9,-350.25 1045.02,-328.64 996.77,-316.36"/>
<polygon fill="black" stroke="black" points="997.65,-312.97 987.09,-313.9 995.92,-319.76 997.65,-312.97"/>
</g>
<!-- aggregator_factory&#45;&gt;system_addresses -->
<g id="edge64" class="edge">
<title>aggregator_factory&#45;&gt;system_addresses</title>
<path fill="none" stroke="black" d="M1245.13,-359.7C1249.7,-351.9 1255.2,-342.51 1260.29,-333.83"/>
<polygon fill="black" stroke="black" points="1263.18,-335.81 1265.22,-325.41 1257.14,-332.27 1263.18,-335.81"/>
</g>
<!-- aggregator_factory&#45;&gt;aggregator -->
<g id="edge65" class="edge">
<title>aggregator_factory&#45;&gt;aggregator</title>
<path fill="none" stroke="black" d="M1273.83,-361.98C1302.88,-350.75 1342.61,-335.38 1372.69,-323.75"/>
<polygon fill="black" stroke="black" points="1373.82,-327.07 1381.88,-320.2 1371.29,-320.54 1373.82,-327.07"/>
</g>
<!-- optional_aggregator&#45;&gt;error -->
<g id="edge67" class="edge">
<title>optional_aggregator&#45;&gt;error</title>
<path fill="none" stroke="black" d="M1126.81,-431.52C1127.98,-404.72 1130,-351.89 1130,-307 1130,-307 1130,-307 1130,-233 1130,-192.03 1126.34,-179.56 1106,-144 1099.24,-132.18 1089.2,-121.09 1079.74,-112.14"/>
<polygon fill="black" stroke="black" points="1082.23,-109.66 1072.45,-105.57 1077.54,-114.87 1082.23,-109.66"/>
</g>
<!-- optional_aggregator&#45;&gt;option -->
<g id="edge66" class="edge">
<title>optional_aggregator&#45;&gt;option</title>
<path fill="none" stroke="black" d="M1116.66,-431.74C1092.13,-388.15 1021.38,-273.08 929,-216 744.46,-101.98 474,-90.06 367.98,-90.11"/>
<polygon fill="black" stroke="black" points="368.27,-86.61 358.28,-90.16 368.3,-93.61 368.27,-86.61"/>
</g>
<!-- optional_aggregator&#45;&gt;aggregator -->
<g id="edge68" class="edge">
<title>optional_aggregator&#45;&gt;aggregator</title>
<path fill="none" stroke="black" d="M1192.27,-439.28C1231.51,-431.55 1281.18,-418.23 1321,-396 1350.26,-379.67 1377.5,-352.39 1395.24,-332.33"/>
<polygon fill="black" stroke="black" points="1397.83,-334.69 1401.71,-324.84 1392.53,-330.12 1397.83,-334.69"/>
</g>
<!-- optional_aggregator&#45;&gt;aggregator_factory -->
<g id="edge69" class="edge">
<title>optional_aggregator&#45;&gt;aggregator_factory</title>
<path fill="none" stroke="black" d="M1151.56,-432.59C1166.04,-423.28 1184.37,-411.51 1200.16,-401.37"/>
<polygon fill="black" stroke="black" points="1201.81,-404.48 1208.33,-396.13 1198.03,-398.59 1201.81,-404.48"/>
</g>
<!-- features&#45;&gt;signer -->
<g id="edge70" class="edge">
<title>features&#45;&gt;signer</title>
<path fill="none" stroke="black" d="M1024.06,-155.8C1111.85,-143.13 1336.37,-110.72 1430.48,-97.14"/>
<polygon fill="black" stroke="black" points="1430.93,-100.61 1440.32,-95.72 1429.93,-93.68 1430.93,-100.61"/>
</g>
<!-- features&#45;&gt;error -->
<g id="edge71" class="edge">
<title>features&#45;&gt;error</title>
<path fill="none" stroke="black" d="M1002.98,-145.12C1011.65,-135.91 1022.73,-124.17 1032.34,-113.97"/>
<polygon fill="black" stroke="black" points="1034.63,-116.64 1038.95,-106.97 1029.54,-111.84 1034.63,-116.64"/>
</g>
</g>
</svg>
