<?xml version="1.0" encoding="UTF-8" standalone="no"?>
<!DOCTYPE svg PUBLIC "-//W3C//DTD SVG 1.1//EN"
 "http://www.w3.org/Graphics/SVG/1.1/DTD/svg11.dtd">
<!-- Generated by graphviz version 7.0.4 (20221203.1631)
 -->
<!-- Title: G Pages: 1 -->
<svg width="429pt" height="290pt"
 viewBox="0.00 0.00 428.78 290.00" xmlns="http://www.w3.org/2000/svg" xmlns:xlink="http://www.w3.org/1999/xlink">
<g id="graph0" class="graph" transform="scale(1 1) rotate(0) translate(4 286)">
<title>G</title>
<polygon fill="white" stroke="none" points="-4,4 -4,-286 424.78,-286 424.78,4 -4,4"/>
<g id="clust1" class="cluster">
<title>cluster_error</title>
<polygon fill="none" stroke="black" points="38.69,-8 38.69,-155 148.69,-155 148.69,-8 38.69,-8"/>
<text text-anchor="middle" x="93.69" y="-139.8" font-family="Times,serif" font-size="14.00">error</text>
</g>
<g id="clust2" class="cluster">
<title>cluster_coin</title>
<polygon fill="none" stroke="black" points="46.69,-163 46.69,-238 236.69,-238 236.69,-163 46.69,-163"/>
<text text-anchor="middle" x="141.69" y="-222.8" font-family="Times,serif" font-size="14.00">coin</text>
</g>
<g id="clust3" class="cluster">
<title>cluster_account</title>
<polygon fill="none" stroke="black" points="283.69,-80 283.69,-155 383.69,-155 383.69,-80 283.69,-80"/>
<text text-anchor="middle" x="333.69" y="-139.8" font-family="Times,serif" font-size="14.00">account</text>
</g>
<!-- assert_account_is_registered_for_apt -->
<g id="node1" class="node">
<title>assert_account_is_registered_for_apt</title>
<ellipse fill="none" stroke="black" cx="141.69" cy="-264" rx="141.88" ry="18"/>
<text text-anchor="middle" x="141.69" y="-260.3" font-family="Times,serif" font-size="14.00">assert_account_is_registered_for_apt</text>
</g>
<!-- error::not_found -->
<g id="node2" class="node">
<title>error::not_found</title>
<ellipse fill="none" stroke="black" cx="93.69" cy="-106" rx="46.59" ry="18"/>
<text text-anchor="middle" x="93.69" y="-102.3" font-family="Times,serif" font-size="14.00">not_found</text>
</g>
<!-- assert_account_is_registered_for_apt&#45;&gt;error::not_found -->
<g id="edge1" class="edge">
<title>assert_account_is_registered_for_apt&#45;&gt;error::not_found</title>
<path fill="none" stroke="black" d="M61.75,-248.7C52.89,-245.68 45.9,-242.13 42.69,-238 22.2,-211.7 30.65,-194.09 42.69,-163 47.45,-150.7 56.31,-139.44 65.32,-130.3"/>
<polygon fill="black" stroke="black" points="67.58,-132.98 72.43,-123.57 62.76,-127.9 67.58,-132.98"/>
</g>
<!-- coin::is_account_registered -->
<g id="node3" class="node">
<title>coin::is_account_registered</title>
<ellipse fill="none" stroke="black" cx="141.69" cy="-189" rx="87.18" ry="18"/>
<text text-anchor="middle" x="141.69" y="-185.3" font-family="Times,serif" font-size="14.00">is_account_registered</text>
</g>
<!-- assert_account_is_registered_for_apt&#45;&gt;coin::is_account_registered -->
<g id="edge2" class="edge">
<title>assert_account_is_registered_for_apt&#45;&gt;coin::is_account_registered</title>
<path fill="none" stroke="black" d="M141.69,-245.7C141.69,-237.67 141.69,-227.9 141.69,-218.8"/>
<polygon fill="black" stroke="black" points="145.19,-218.94 141.69,-208.94 138.19,-218.94 145.19,-218.94"/>
</g>
<!-- assert_account_exists -->
<g id="node4" class="node">
<title>assert_account_exists</title>
<ellipse fill="none" stroke="black" cx="333.69" cy="-189" rx="87.18" ry="18"/>
<text text-anchor="middle" x="333.69" y="-185.3" font-family="Times,serif" font-size="14.00">assert_account_exists</text>
</g>
<!-- assert_account_is_registered_for_apt&#45;&gt;assert_account_exists -->
<g id="edge3" class="edge">
<title>assert_account_is_registered_for_apt&#45;&gt;assert_account_exists</title>
<path fill="none" stroke="black" d="M210.22,-247.88C220.55,-244.97 230.99,-241.67 240.69,-238 259.54,-230.86 279.53,-220.89 296.12,-211.89"/>
<polygon fill="black" stroke="black" points="297.59,-215.08 304.64,-207.17 294.2,-208.95 297.59,-215.08"/>
</g>
<!-- error::canonical -->
<g id="node5" class="node">
<title>error::canonical</title>
<ellipse fill="none" stroke="black" cx="93.69" cy="-34" rx="44.39" ry="18"/>
<text text-anchor="middle" x="93.69" y="-30.3" font-family="Times,serif" font-size="14.00">canonical</text>
</g>
<!-- error::not_found&#45;&gt;error::canonical -->
<g id="edge4" class="edge">
<title>error::not_found&#45;&gt;error::canonical</title>
<path fill="none" stroke="black" d="M93.69,-87.7C93.69,-80.41 93.69,-71.73 93.69,-63.54"/>
<polygon fill="black" stroke="black" points="97.19,-63.62 93.69,-53.62 90.19,-63.62 97.19,-63.62"/>
</g>
<!-- assert_account_exists&#45;&gt;error::not_found -->
<g id="edge5" class="edge">
<title>assert_account_exists&#45;&gt;error::not_found</title>
<path fill="none" stroke="black" d="M289.39,-173.05C246.53,-158.58 181.89,-136.77 138.77,-122.21"/>
<polygon fill="black" stroke="black" points="140.05,-118.95 129.46,-119.07 137.81,-125.59 140.05,-118.95"/>
</g>
<!-- account::exists_at -->
<g id="node6" class="node">
<title>account::exists_at</title>
<ellipse fill="none" stroke="black" cx="333.69" cy="-106" rx="41.69" ry="18"/>
<text text-anchor="middle" x="333.69" y="-102.3" font-family="Times,serif" font-size="14.00">exists_at</text>
</g>
<!-- assert_account_exists&#45;&gt;account::exists_at -->
<g id="edge6" class="edge">
<title>assert_account_exists&#45;&gt;account::exists_at</title>
<path fill="none" stroke="black" d="M333.69,-170.82C333.69,-160.69 333.69,-147.6 333.69,-135.92"/>
<polygon fill="black" stroke="black" points="337.19,-135.95 333.69,-125.95 330.19,-135.95 337.19,-135.95"/>
</g>
</g>
</svg>
