<?xml version="1.0" encoding="UTF-8" standalone="no"?>
<!DOCTYPE svg PUBLIC "-//W3C//DTD SVG 1.1//EN"
 "http://www.w3.org/Graphics/SVG/1.1/DTD/svg11.dtd">
<!-- Generated by graphviz version 7.0.4 (20221203.1631)
 -->
<!-- Title: G Pages: 1 -->
<svg width="604pt" height="290pt"
 viewBox="0.00 0.00 604.00 290.00" xmlns="http://www.w3.org/2000/svg" xmlns:xlink="http://www.w3.org/1999/xlink">
<g id="graph0" class="graph" transform="scale(1 1) rotate(0) translate(4 286)">
<title>G</title>
<polygon fill="white" stroke="none" points="-4,4 -4,-286 600,-286 600,4 -4,4"/>
<g id="clust1" class="cluster">
<title>cluster_system_addresses</title>
<polygon fill="none" stroke="black" points="8,-80 8,-238 252,-238 252,-80 8,-80"/>
<text text-anchor="middle" x="130" y="-222.8" font-family="Times,serif" font-size="14.00">system_addresses</text>
</g>
<g id="clust2" class="cluster">
<title>cluster_coin</title>
<polygon fill="none" stroke="black" points="260,-163 260,-238 424,-238 424,-163 260,-163"/>
<text text-anchor="middle" x="342" y="-222.8" font-family="Times,serif" font-size="14.00">coin</text>
</g>
<g id="clust3" class="cluster">
<title>cluster_signer</title>
<polygon fill="none" stroke="black" points="260,-8 260,-155 410,-155 410,-8 260,-8"/>
<text text-anchor="middle" x="335" y="-139.8" font-family="Times,serif" font-size="14.00">signer</text>
</g>
<g id="clust4" class="cluster">
<title>cluster_error</title>
<polygon fill="none" stroke="black" points="418,-8 418,-155 588,-155 588,-8 418,-8"/>
<text text-anchor="middle" x="503" y="-139.8" font-family="Times,serif" font-size="14.00">error</text>
</g>
<!-- destroy_mint_cap -->
<g id="node1" class="node">
<title>destroy_mint_cap</title>
<ellipse fill="none" stroke="black" cx="244" cy="-264" rx="74.19" ry="18"/>
<text text-anchor="middle" x="244" y="-260.3" font-family="Times,serif" font-size="14.00">destroy_mint_cap</text>
</g>
<!-- system_addresses::assert_aptos_framework -->
<g id="node2" class="node">
<title>system_addresses::assert_aptos_framework</title>
<ellipse fill="none" stroke="black" cx="147" cy="-189" rx="96.68" ry="18"/>
<text text-anchor="middle" x="147" y="-185.3" font-family="Times,serif" font-size="14.00">assert_aptos_framework</text>
</g>
<!-- destroy_mint_cap&#45;&gt;system_addresses::assert_aptos_framework -->
<g id="edge1" class="edge">
<title>destroy_mint_cap&#45;&gt;system_addresses::assert_aptos_framework</title>
<path fill="none" stroke="black" d="M221.99,-246.44C209.06,-236.7 192.5,-224.25 178.24,-213.51"/>
<polygon fill="black" stroke="black" points="180.56,-210.88 170.47,-207.66 176.35,-216.47 180.56,-210.88"/>
</g>
<!-- coin::destroy_mint_cap -->
<g id="node3" class="node">
<title>coin::destroy_mint_cap</title>
<ellipse fill="none" stroke="black" cx="342" cy="-189" rx="74.19" ry="18"/>
<text text-anchor="middle" x="342" y="-185.3" font-family="Times,serif" font-size="14.00">destroy_mint_cap</text>
</g>
<!-- destroy_mint_cap&#45;&gt;coin::destroy_mint_cap -->
<g id="edge2" class="edge">
<title>destroy_mint_cap&#45;&gt;coin::destroy_mint_cap</title>
<path fill="none" stroke="black" d="M266.24,-246.44C279.39,-236.63 296.26,-224.07 310.74,-213.28"/>
<polygon fill="black" stroke="black" points="312.71,-216.18 318.64,-207.4 308.53,-210.57 312.71,-216.18"/>
</g>
<!-- signer::address_of -->
<g id="node4" class="node">
<title>signer::address_of</title>
<ellipse fill="none" stroke="black" cx="326" cy="-106" rx="48.99" ry="18"/>
<text text-anchor="middle" x="326" y="-102.3" font-family="Times,serif" font-size="14.00">address_of</text>
</g>
<!-- system_addresses::assert_aptos_framework&#45;&gt;signer::address_of -->
<g id="edge3" class="edge">
<title>system_addresses::assert_aptos_framework&#45;&gt;signer::address_of</title>
<path fill="none" stroke="black" d="M204.54,-174.17C221.52,-169.14 239.87,-162.74 256,-155 270.36,-148.11 285.07,-138.48 297.28,-129.65"/>
<polygon fill="black" stroke="black" points="299.33,-132.49 305.27,-123.71 295.15,-126.87 299.33,-132.49"/>
</g>
<!-- error::permission_denied -->
<g id="node5" class="node">
<title>error::permission_denied</title>
<ellipse fill="none" stroke="black" cx="503" cy="-106" rx="77.19" ry="18"/>
<text text-anchor="middle" x="503" y="-102.3" font-family="Times,serif" font-size="14.00">permission_denied</text>
</g>
<!-- system_addresses::assert_aptos_framework&#45;&gt;error::permission_denied -->
<g id="edge4" class="edge">
<title>system_addresses::assert_aptos_framework&#45;&gt;error::permission_denied</title>
<path fill="none" stroke="black" d="M200.99,-173.65C218.43,-169.55 237.92,-165.51 256,-163 290.82,-158.16 380.14,-164.47 414,-155 433.6,-149.52 453.7,-139.16 469.83,-129.46"/>
<polygon fill="black" stroke="black" points="471.39,-132.61 478.03,-124.36 467.69,-126.67 471.39,-132.61"/>
</g>
<!-- system_addresses::is_aptos_framework_address -->
<g id="node6" class="node">
<title>system_addresses::is_aptos_framework_address</title>
<ellipse fill="none" stroke="black" cx="130" cy="-106" rx="113.98" ry="18"/>
<text text-anchor="middle" x="130" y="-102.3" font-family="Times,serif" font-size="14.00">is_aptos_framework_address</text>
</g>
<!-- system_addresses::assert_aptos_framework&#45;&gt;system_addresses::is_aptos_framework_address -->
<g id="edge5" class="edge">
<title>system_addresses::assert_aptos_framework&#45;&gt;system_addresses::is_aptos_framework_address</title>
<path fill="none" stroke="black" d="M143.39,-170.82C141.25,-160.58 138.46,-147.33 135.99,-135.55"/>
<polygon fill="black" stroke="black" points="139.45,-134.98 133.97,-125.91 132.6,-136.42 139.45,-134.98"/>
</g>
<!-- signer::borrow_address -->
<g id="node7" class="node">
<title>signer::borrow_address</title>
<ellipse fill="none" stroke="black" cx="335" cy="-34" rx="66.89" ry="18"/>
<text text-anchor="middle" x="335" y="-30.3" font-family="Times,serif" font-size="14.00">borrow_address</text>
</g>
<!-- signer::address_of&#45;&gt;signer::borrow_address -->
<g id="edge6" class="edge">
<title>signer::address_of&#45;&gt;signer::borrow_address</title>
<path fill="none" stroke="black" d="M328.22,-87.7C329.17,-80.32 330.3,-71.52 331.37,-63.25"/>
<polygon fill="black" stroke="black" points="334.8,-63.97 332.61,-53.61 327.86,-63.08 334.8,-63.97"/>
</g>
<!-- error::canonical -->
<g id="node8" class="node">
<title>error::canonical</title>
<ellipse fill="none" stroke="black" cx="503" cy="-34" rx="44.39" ry="18"/>
<text text-anchor="middle" x="503" y="-30.3" font-family="Times,serif" font-size="14.00">canonical</text>
</g>
<!-- error::permission_denied&#45;&gt;error::canonical -->
<g id="edge7" class="edge">
<title>error::permission_denied&#45;&gt;error::canonical</title>
<path fill="none" stroke="black" d="M503,-87.7C503,-80.41 503,-71.73 503,-63.54"/>
<polygon fill="black" stroke="black" points="506.5,-63.62 503,-53.62 499.5,-63.62 506.5,-63.62"/>
</g>
</g>
</svg>
