<?xml version="1.0" encoding="UTF-8" standalone="no"?>
<!DOCTYPE svg PUBLIC "-//W3C//DTD SVG 1.1//EN"
 "http://www.w3.org/Graphics/SVG/1.1/DTD/svg11.dtd">
<!-- Generated by graphviz version 7.0.4 (20221203.1631)
 -->
<!-- Title: G Pages: 1 -->
<svg width="293pt" height="260pt"
 viewBox="0.00 0.00 292.94 260.00" xmlns="http://www.w3.org/2000/svg" xmlns:xlink="http://www.w3.org/1999/xlink">
<g id="graph0" class="graph" transform="scale(1 1) rotate(0) translate(4 256)">
<title>G</title>
<polygon fill="white" stroke="none" points="-4,4 -4,-256 288.94,-256 288.94,4 -4,4"/>
<!-- create_account -->
<g id="node1" class="node">
<title>create_account</title>
<ellipse fill="none" stroke="black" cx="130.09" cy="-18" rx="63.89" ry="18"/>
<text text-anchor="middle" x="130.09" y="-14.3" font-family="Times,serif" font-size="14.00">create_account</text>
</g>
<!-- transfer -->
<g id="node2" class="node">
<title>transfer</title>
<ellipse fill="none" stroke="black" cx="73.09" cy="-90" rx="37.89" ry="18"/>
<text text-anchor="middle" x="73.09" y="-86.3" font-family="Times,serif" font-size="14.00">transfer</text>
</g>
<!-- transfer&#45;&gt;create_account -->
<g id="edge1" class="edge">
<title>transfer&#45;&gt;create_account</title>
<path fill="none" stroke="black" d="M86.31,-72.76C93.19,-64.32 101.76,-53.8 109.48,-44.31"/>
<polygon fill="black" stroke="black" points="111.99,-46.77 115.59,-36.81 106.57,-42.35 111.99,-46.77"/>
</g>
<!-- deposit_coins -->
<g id="node3" class="node">
<title>deposit_coins</title>
<ellipse fill="none" stroke="black" cx="194.09" cy="-90" rx="59.29" ry="18"/>
<text text-anchor="middle" x="194.09" y="-86.3" font-family="Times,serif" font-size="14.00">deposit_coins</text>
</g>
<!-- deposit_coins&#45;&gt;create_account -->
<g id="edge2" class="edge">
<title>deposit_coins&#45;&gt;create_account</title>
<path fill="none" stroke="black" d="M178.93,-72.41C171.12,-63.87 161.43,-53.28 152.76,-43.79"/>
<polygon fill="black" stroke="black" points="155.5,-41.61 146.17,-36.59 150.34,-46.33 155.5,-41.61"/>
</g>
<!-- batch_transfer -->
<g id="node4" class="node">
<title>batch_transfer</title>
<ellipse fill="none" stroke="black" cx="61.09" cy="-162" rx="61.19" ry="18"/>
<text text-anchor="middle" x="61.09" y="-158.3" font-family="Times,serif" font-size="14.00">batch_transfer</text>
</g>
<!-- batch_transfer&#45;&gt;transfer -->
<g id="edge3" class="edge">
<title>batch_transfer&#45;&gt;transfer</title>
<path fill="none" stroke="black" d="M64.06,-143.7C65.33,-136.32 66.83,-127.52 68.25,-119.25"/>
<polygon fill="black" stroke="black" points="71.67,-120.04 69.91,-109.6 64.77,-118.86 71.67,-120.04"/>
</g>
<!-- transfer_coins -->
<g id="node5" class="node">
<title>transfer_coins</title>
<ellipse fill="none" stroke="black" cx="201.09" cy="-162" rx="60.39" ry="18"/>
<text text-anchor="middle" x="201.09" y="-158.3" font-family="Times,serif" font-size="14.00">transfer_coins</text>
</g>
<!-- transfer_coins&#45;&gt;deposit_coins -->
<g id="edge4" class="edge">
<title>transfer_coins&#45;&gt;deposit_coins</title>
<path fill="none" stroke="black" d="M199.36,-143.7C198.64,-136.41 197.77,-127.73 196.95,-119.54"/>
<polygon fill="black" stroke="black" points="200.43,-119.21 195.96,-109.61 193.47,-119.91 200.43,-119.21"/>
</g>
<!-- batch_transfer_coins -->
<g id="node6" class="node">
<title>batch_transfer_coins</title>
<ellipse fill="none" stroke="black" cx="201.09" cy="-234" rx="83.69" ry="18"/>
<text text-anchor="middle" x="201.09" y="-230.3" font-family="Times,serif" font-size="14.00">batch_transfer_coins</text>
</g>
<!-- batch_transfer_coins&#45;&gt;transfer_coins -->
<g id="edge5" class="edge">
<title>batch_transfer_coins&#45;&gt;transfer_coins</title>
<path fill="none" stroke="black" d="M201.09,-215.7C201.09,-208.41 201.09,-199.73 201.09,-191.54"/>
<polygon fill="black" stroke="black" points="204.59,-191.62 201.09,-181.62 197.59,-191.62 204.59,-191.62"/>
</g>
</g>
</svg>
