<?xml version="1.0" encoding="UTF-8" standalone="no"?>
<!DOCTYPE svg PUBLIC "-//W3C//DTD SVG 1.1//EN"
 "http://www.w3.org/Graphics/SVG/1.1/DTD/svg11.dtd">
<!-- Generated by graphviz version 7.0.4 (20221203.1631)
 -->
<!-- Title: G Pages: 1 -->
<svg width="2128pt" height="769pt"
 viewBox="0.00 0.00 2128.00 769.00" xmlns="http://www.w3.org/2000/svg" xmlns:xlink="http://www.w3.org/1999/xlink">
<g id="graph0" class="graph" transform="scale(1 1) rotate(0) translate(4 765)">
<title>G</title>
<polygon fill="white" stroke="none" points="-4,4 -4,-765 2124,-765 2124,4 -4,4"/>
<g id="clust12" class="cluster">
<title>cluster_transaction_context</title>
<polygon fill="none" stroke="black" points="1118,-412 1118,-487 1266,-487 1266,-412 1118,-412"/>
<text text-anchor="middle" x="1192" y="-471.8" font-family="Times,serif" font-size="14.00">transaction_context</text>
</g>
<g id="clust1" class="cluster">
<title>cluster_voting</title>
<polygon fill="none" stroke="black" points="712,-246 712,-645 1110,-645 1110,-246 712,-246"/>
<text text-anchor="middle" x="911" y="-629.8" font-family="Times,serif" font-size="14.00">voting</text>
</g>
<g id="clust2" class="cluster">
<title>cluster_option</title>
<polygon fill="none" stroke="black" points="1575,-80 1575,-238 1902,-238 1902,-80 1575,-80"/>
<text text-anchor="middle" x="1738.5" y="-222.8" font-family="Times,serif" font-size="14.00">option</text>
</g>
<g id="clust3" class="cluster">
<title>cluster_string</title>
<polygon fill="none" stroke="black" points="526,-329 526,-487 704,-487 704,-329 526,-329"/>
<text text-anchor="middle" x="615" y="-471.8" font-family="Times,serif" font-size="14.00">string</text>
</g>
<g id="clust4" class="cluster">
<title>cluster_error</title>
<polygon fill="none" stroke="black" points="1186,-246 1186,-404 1651,-404 1651,-246 1186,-246"/>
<text text-anchor="middle" x="1418.5" y="-388.8" font-family="Times,serif" font-size="14.00">error</text>
</g>
<g id="clust5" class="cluster">
<title>cluster_table</title>
<polygon fill="none" stroke="black" points="418,-163 418,-321 704,-321 704,-163 418,-163"/>
<text text-anchor="middle" x="561" y="-305.8" font-family="Times,serif" font-size="14.00">table</text>
</g>
<g id="clust6" class="cluster">
<title>cluster_from_bcs</title>
<polygon fill="none" stroke="black" points="338,-329 338,-487 518,-487 518,-329 338,-329"/>
<text text-anchor="middle" x="428" y="-471.8" font-family="Times,serif" font-size="14.00">from_bcs</text>
</g>
<g id="clust7" class="cluster">
<title>cluster_event</title>
<polygon fill="none" stroke="black" points="112,-412 112,-570 298,-570 298,-412 112,-412"/>
<text text-anchor="middle" x="205" y="-554.8" font-family="Times,serif" font-size="14.00">event</text>
</g>
<g id="clust8" class="cluster">
<title>cluster_timestamp</title>
<polygon fill="none" stroke="black" points="1043,-80 1043,-238 1217,-238 1217,-80 1043,-80"/>
<text text-anchor="middle" x="1130" y="-222.8" font-family="Times,serif" font-size="14.00">timestamp</text>
</g>
<g id="clust9" class="cluster">
<title>cluster_simple_map</title>
<polygon fill="none" stroke="black" points="1689,-329 1689,-487 2003,-487 2003,-329 1689,-329"/>
<text text-anchor="middle" x="1846" y="-471.8" font-family="Times,serif" font-size="14.00">simple_map</text>
</g>
<g id="clust10" class="cluster">
<title>cluster_account</title>
<polygon fill="none" stroke="black" points="1864,-495 1864,-645 2112,-645 2112,-495 1864,-495"/>
<text text-anchor="middle" x="1988" y="-629.8" font-family="Times,serif" font-size="14.00">account</text>
</g>
<g id="clust11" class="cluster">
<title>cluster_bcs</title>
<polygon fill="none" stroke="black" points="8,-412 8,-487 104,-487 104,-412 8,-412"/>
<text text-anchor="middle" x="56" y="-471.8" font-family="Times,serif" font-size="14.00">bcs</text>
</g>
<g id="clust13" class="cluster">
<title>cluster_vector</title>
<polygon fill="none" stroke="black" points="1327,-8 1327,-155 1567,-155 1567,-8 1327,-8"/>
<text text-anchor="middle" x="1447" y="-139.8" font-family="Times,serif" font-size="14.00">vector</text>
</g>
<!-- resolve -->
<g id="node1" class="node">
<title>resolve</title>
<ellipse fill="none" stroke="black" cx="1675" cy="-743" rx="36.29" ry="18"/>
<text text-anchor="middle" x="1675" y="-739.3" font-family="Times,serif" font-size="14.00">resolve</text>
</g>
<!-- voting::resolve -->
<g id="node2" class="node">
<title>voting::resolve</title>
<ellipse fill="none" stroke="black" cx="1038" cy="-596" rx="36.29" ry="18"/>
<text text-anchor="middle" x="1038" y="-592.3" font-family="Times,serif" font-size="14.00">resolve</text>
</g>
<!-- resolve&#45;&gt;voting::resolve -->
<g id="edge1" class="edge">
<title>resolve&#45;&gt;voting::resolve</title>
<path fill="none" stroke="black" d="M1642.54,-734.61C1536.68,-710.51 1201.44,-634.2 1081.34,-606.86"/>
<polygon fill="black" stroke="black" points="1082.4,-603.52 1071.88,-604.71 1080.85,-610.34 1082.4,-603.52"/>
</g>
<!-- get_signer -->
<g id="node3" class="node">
<title>get_signer</title>
<ellipse fill="none" stroke="black" cx="1844" cy="-671" rx="47.39" ry="18"/>
<text text-anchor="middle" x="1844" y="-667.3" font-family="Times,serif" font-size="14.00">get_signer</text>
</g>
<!-- resolve&#45;&gt;get_signer -->
<g id="edge2" class="edge">
<title>resolve&#45;&gt;get_signer</title>
<path fill="none" stroke="black" d="M1702.15,-730.75C1729.2,-719.55 1771.07,-702.21 1802.33,-689.26"/>
<polygon fill="black" stroke="black" points="1803.6,-692.52 1811.5,-685.46 1800.92,-686.05 1803.6,-692.52"/>
</g>
<!-- remove_approved_hash -->
<g id="node4" class="node">
<title>remove_approved_hash</title>
<ellipse fill="none" stroke="black" cx="1675" cy="-671" rx="94.78" ry="18"/>
<text text-anchor="middle" x="1675" y="-667.3" font-family="Times,serif" font-size="14.00">remove_approved_hash</text>
</g>
<!-- resolve&#45;&gt;remove_approved_hash -->
<g id="edge3" class="edge">
<title>resolve&#45;&gt;remove_approved_hash</title>
<path fill="none" stroke="black" d="M1675,-724.7C1675,-717.41 1675,-708.73 1675,-700.54"/>
<polygon fill="black" stroke="black" points="1678.5,-700.62 1675,-690.62 1671.5,-700.62 1678.5,-700.62"/>
</g>
<!-- option::extract -->
<g id="node5" class="node">
<title>option::extract</title>
<ellipse fill="none" stroke="black" cx="1708" cy="-189" rx="34.39" ry="18"/>
<text text-anchor="middle" x="1708" y="-185.3" font-family="Times,serif" font-size="14.00">extract</text>
</g>
<!-- voting::resolve&#45;&gt;option::extract -->
<g id="edge4" class="edge">
<title>voting::resolve&#45;&gt;option::extract</title>
<path fill="none" stroke="black" d="M1074.38,-594.4C1149.59,-592.81 1319.8,-587.35 1375,-570 1513.01,-526.61 1568.69,-520.11 1655,-404 1676.83,-374.64 1695.61,-269.79 1703.72,-218.57"/>
<polygon fill="black" stroke="black" points="1707.16,-219.27 1705.23,-208.85 1700.24,-218.19 1707.16,-219.27"/>
</g>
<!-- string::utf8 -->
<g id="node6" class="node">
<title>string::utf8</title>
<ellipse fill="none" stroke="black" cx="669" cy="-438" rx="27" ry="18"/>
<text text-anchor="middle" x="669" y="-434.3" font-family="Times,serif" font-size="14.00">utf8</text>
</g>
<!-- voting::resolve&#45;&gt;string::utf8 -->
<g id="edge5" class="edge">
<title>voting::resolve&#45;&gt;string::utf8</title>
<path fill="none" stroke="black" d="M1002.51,-591.32C973.01,-587.68 930.17,-581.02 894,-570 807.41,-543.61 779.84,-542.08 708,-487 699.67,-480.61 692.02,-472.11 685.74,-464.03"/>
<polygon fill="black" stroke="black" points="688.67,-462.11 679.93,-456.12 683.02,-466.25 688.67,-462.11"/>
</g>
<!-- error::permission_denied -->
<g id="node7" class="node">
<title>error::permission_denied</title>
<ellipse fill="none" stroke="black" cx="1401" cy="-355" rx="77.19" ry="18"/>
<text text-anchor="middle" x="1401" y="-351.3" font-family="Times,serif" font-size="14.00">permission_denied</text>
</g>
<!-- voting::resolve&#45;&gt;error::permission_denied -->
<g id="edge6" class="edge">
<title>voting::resolve&#45;&gt;error::permission_denied</title>
<path fill="none" stroke="black" d="M1074.42,-594.24C1149.88,-592.35 1317.97,-586.32 1338,-570 1393.94,-524.41 1401.82,-431.8 1401.97,-384.78"/>
<polygon fill="black" stroke="black" points="1405.47,-384.81 1401.87,-374.85 1398.47,-384.88 1405.47,-384.81"/>
</g>
<!-- table::borrow_mut -->
<g id="node8" class="node">
<title>table::borrow_mut</title>
<ellipse fill="none" stroke="black" cx="551" cy="-272" rx="54.69" ry="18"/>
<text text-anchor="middle" x="551" y="-268.3" font-family="Times,serif" font-size="14.00">borrow_mut</text>
</g>
<!-- voting::resolve&#45;&gt;table::borrow_mut -->
<g id="edge7" class="edge">
<title>voting::resolve&#45;&gt;table::borrow_mut</title>
<path fill="none" stroke="black" d="M1003.89,-589.3C978.6,-585.34 943.25,-580.37 912,-578 886.35,-576.05 473.41,-578.12 449,-570 389.19,-550.1 362.7,-543.12 334,-487 302.02,-424.48 290.99,-384.51 334,-329 352.9,-304.6 431.74,-288.93 488.95,-280.55"/>
<polygon fill="black" stroke="black" points="489.17,-284.05 498.58,-279.18 488.19,-277.12 489.17,-284.05"/>
</g>
<!-- from_bcs::to_bool -->
<g id="node9" class="node">
<title>from_bcs::to_bool</title>
<ellipse fill="none" stroke="black" cx="384" cy="-438" rx="37.89" ry="18"/>
<text text-anchor="middle" x="384" y="-434.3" font-family="Times,serif" font-size="14.00">to_bool</text>
</g>
<!-- voting::resolve&#45;&gt;from_bcs::to_bool -->
<g id="edge8" class="edge">
<title>voting::resolve&#45;&gt;from_bcs::to_bool</title>
<path fill="none" stroke="black" d="M1003.6,-589.48C978.33,-585.63 943.11,-580.73 912,-578 695.26,-559 617.65,-598.8 431,-487 420.9,-480.95 411.46,-472.21 403.73,-463.84"/>
<polygon fill="black" stroke="black" points="406.54,-461.74 397.33,-456.52 401.27,-466.35 406.54,-461.74"/>
</g>
<!-- event::emit_event -->
<g id="node10" class="node">
<title>event::emit_event</title>
<ellipse fill="none" stroke="black" cx="205" cy="-521" rx="50.09" ry="18"/>
<text text-anchor="middle" x="205" y="-517.3" font-family="Times,serif" font-size="14.00">emit_event</text>
</g>
<!-- voting::resolve&#45;&gt;event::emit_event -->
<g id="edge9" class="edge">
<title>voting::resolve&#45;&gt;event::emit_event</title>
<path fill="none" stroke="black" d="M1003.89,-589.26C978.61,-585.28 943.26,-580.31 912,-578 878.31,-575.51 336.87,-577.78 304,-570 281.05,-564.57 257.21,-553.21 238.68,-542.91"/>
<polygon fill="black" stroke="black" points="240.43,-539.88 230.01,-537.93 236.94,-545.95 240.43,-539.88"/>
</g>
<!-- timestamp::now_seconds -->
<g id="node11" class="node">
<title>timestamp::now_seconds</title>
<ellipse fill="none" stroke="black" cx="1130" cy="-189" rx="57.69" ry="18"/>
<text text-anchor="middle" x="1130" y="-185.3" font-family="Times,serif" font-size="14.00">now_seconds</text>
</g>
<!-- voting::resolve&#45;&gt;timestamp::now_seconds -->
<g id="edge10" class="edge">
<title>voting::resolve&#45;&gt;timestamp::now_seconds</title>
<path fill="none" stroke="black" d="M1073.12,-590.7C1126.87,-581.98 1227.75,-556.72 1270,-487 1287.28,-458.49 1292.48,-436.61 1270,-412 1256.76,-397.5 1196.87,-416.82 1182,-404 1154.13,-379.97 1138.77,-271.07 1132.87,-218.53"/>
<polygon fill="black" stroke="black" points="1136.37,-218.41 1131.82,-208.85 1129.41,-219.17 1136.37,-218.41"/>
</g>
<!-- simple_map::borrow -->
<g id="node12" class="node">
<title>simple_map::borrow</title>
<ellipse fill="none" stroke="black" cx="1733" cy="-438" rx="36.29" ry="18"/>
<text text-anchor="middle" x="1733" y="-434.3" font-family="Times,serif" font-size="14.00">borrow</text>
</g>
<!-- voting::resolve&#45;&gt;simple_map::borrow -->
<g id="edge11" class="edge">
<title>voting::resolve&#45;&gt;simple_map::borrow</title>
<path fill="none" stroke="black" d="M1074.47,-595.01C1193,-594.8 1562.52,-592.37 1611,-570 1659.38,-547.68 1697.68,-496.5 1717.7,-465.13"/>
<polygon fill="black" stroke="black" points="1720.45,-467.33 1722.75,-456.99 1714.5,-463.64 1720.45,-467.33"/>
</g>
<!-- simple_map::contains_key -->
<g id="node13" class="node">
<title>simple_map::contains_key</title>
<ellipse fill="none" stroke="black" cx="1938" cy="-438" rx="57.39" ry="18"/>
<text text-anchor="middle" x="1938" y="-434.3" font-family="Times,serif" font-size="14.00">contains_key</text>
</g>
<!-- voting::resolve&#45;&gt;simple_map::contains_key -->
<g id="edge12" class="edge">
<title>voting::resolve&#45;&gt;simple_map::contains_key</title>
<path fill="none" stroke="black" d="M1074.46,-595.41C1191,-596.42 1553.42,-597.25 1667,-570 1744.54,-551.39 1754.05,-519.31 1830,-495 1848.1,-489.21 1854.56,-494.55 1872,-487 1885.92,-480.98 1899.73,-471.6 1911.1,-462.73"/>
<polygon fill="black" stroke="black" points="1913.29,-465.45 1918.85,-456.43 1908.88,-460.02 1913.29,-465.45"/>
</g>
<!-- voting::can_be_resolved_early -->
<g id="node14" class="node">
<title>voting::can_be_resolved_early</title>
<ellipse fill="none" stroke="black" cx="1010" cy="-272" rx="91.78" ry="18"/>
<text text-anchor="middle" x="1010" y="-268.3" font-family="Times,serif" font-size="14.00">can_be_resolved_early</text>
</g>
<!-- voting::resolve&#45;&gt;voting::can_be_resolved_early -->
<g id="edge13" class="edge">
<title>voting::resolve&#45;&gt;voting::can_be_resolved_early</title>
<path fill="none" stroke="black" d="M1001.76,-593C967.8,-590.29 920.58,-584.03 909,-570 887.79,-544.29 886.85,-519.91 909,-495 929.22,-472.26 955.1,-508.13 977,-487 1027.29,-438.48 1021.95,-347.59 1015.25,-301.44"/>
<polygon fill="black" stroke="black" points="1018.72,-301.03 1013.69,-291.7 1011.81,-302.13 1018.72,-301.03"/>
</g>
<!-- voting::is_proposal_resolvable -->
<g id="node15" class="node">
<title>voting::is_proposal_resolvable</title>
<ellipse fill="none" stroke="black" cx="1010" cy="-521" rx="91.78" ry="18"/>
<text text-anchor="middle" x="1010" y="-517.3" font-family="Times,serif" font-size="14.00">is_proposal_resolvable</text>
</g>
<!-- voting::resolve&#45;&gt;voting::is_proposal_resolvable -->
<g id="edge14" class="edge">
<title>voting::resolve&#45;&gt;voting::is_proposal_resolvable</title>
<path fill="none" stroke="black" d="M1031.51,-578.07C1028.3,-569.71 1024.35,-559.42 1020.71,-549.94"/>
<polygon fill="black" stroke="black" points="1024.04,-548.84 1017.2,-540.76 1017.51,-551.35 1024.04,-548.84"/>
</g>
<!-- get_signer&#45;&gt;simple_map::borrow -->
<g id="edge16" class="edge">
<title>get_signer&#45;&gt;simple_map::borrow</title>
<path fill="none" stroke="black" d="M1835.84,-653.01C1816.79,-613.38 1769.29,-514.52 1746.12,-466.3"/>
<polygon fill="black" stroke="black" points="1749.32,-464.87 1741.83,-457.38 1743.01,-467.9 1749.32,-464.87"/>
</g>
<!-- account::create_signer_with_capability -->
<g id="node16" class="node">
<title>account::create_signer_with_capability</title>
<ellipse fill="none" stroke="black" cx="1988" cy="-596" rx="116.18" ry="18"/>
<text text-anchor="middle" x="1988" y="-592.3" font-family="Times,serif" font-size="14.00">create_signer_with_capability</text>
</g>
<!-- get_signer&#45;&gt;account::create_signer_with_capability -->
<g id="edge15" class="edge">
<title>get_signer&#45;&gt;account::create_signer_with_capability</title>
<path fill="none" stroke="black" d="M1871.42,-656.1C1892.18,-645.58 1921.09,-630.92 1944.92,-618.84"/>
<polygon fill="black" stroke="black" points="1946.44,-621.99 1953.77,-614.35 1943.27,-615.75 1946.44,-621.99"/>
</g>
<!-- remove_approved_hash&#45;&gt;simple_map::contains_key -->
<g id="edge19" class="edge">
<title>remove_approved_hash&#45;&gt;simple_map::contains_key</title>
<path fill="none" stroke="black" d="M1712.7,-654.11C1717.7,-651.37 1722.6,-648.32 1727,-645 1798.1,-591.31 1792.82,-553.53 1860,-495 1864.83,-490.79 1866.74,-490.66 1872,-487 1883.6,-478.92 1896.18,-469.85 1907.22,-461.78"/>
<polygon fill="black" stroke="black" points="1909.25,-464.64 1915.24,-455.9 1905.11,-458.99 1909.25,-464.64"/>
</g>
<!-- error::invalid_argument -->
<g id="node17" class="node">
<title>error::invalid_argument</title>
<ellipse fill="none" stroke="black" cx="1570" cy="-355" rx="73.39" ry="18"/>
<text text-anchor="middle" x="1570" y="-351.3" font-family="Times,serif" font-size="14.00">invalid_argument</text>
</g>
<!-- remove_approved_hash&#45;&gt;error::invalid_argument -->
<g id="edge17" class="edge">
<title>remove_approved_hash&#45;&gt;error::invalid_argument</title>
<path fill="none" stroke="black" d="M1669.21,-652.67C1651.92,-600.99 1600.63,-447.59 1579.38,-384.05"/>
<polygon fill="black" stroke="black" points="1582.75,-383.08 1576.26,-374.71 1576.11,-385.3 1582.75,-383.08"/>
</g>
<!-- simple_map::remove -->
<g id="node18" class="node">
<title>simple_map::remove</title>
<ellipse fill="none" stroke="black" cx="1825" cy="-438" rx="37.89" ry="18"/>
<text text-anchor="middle" x="1825" y="-434.3" font-family="Times,serif" font-size="14.00">remove</text>
</g>
<!-- remove_approved_hash&#45;&gt;simple_map::remove -->
<g id="edge18" class="edge">
<title>remove_approved_hash&#45;&gt;simple_map::remove</title>
<path fill="none" stroke="black" d="M1686.27,-652.64C1712.36,-612.46 1777.02,-512.89 1807.96,-465.23"/>
<polygon fill="black" stroke="black" points="1810.87,-467.19 1813.38,-456.9 1805,-463.38 1810.87,-467.19"/>
</g>
<!-- voting::is_resolved -->
<g id="node19" class="node">
<title>voting::is_resolved</title>
<ellipse fill="none" stroke="black" cx="852" cy="-596" rx="50.89" ry="18"/>
<text text-anchor="middle" x="852" y="-592.3" font-family="Times,serif" font-size="14.00">is_resolved</text>
</g>
<!-- remove_approved_hash&#45;&gt;voting::is_resolved -->
<g id="edge20" class="edge">
<title>remove_approved_hash&#45;&gt;voting::is_resolved</title>
<path fill="none" stroke="black" d="M1580.03,-669.92C1419.83,-669.22 1102.67,-665.23 993,-645 958.65,-638.67 921.3,-625.65 893.67,-614.77"/>
<polygon fill="black" stroke="black" points="895.2,-611.62 884.62,-611.14 892.59,-618.11 895.2,-611.62"/>
</g>
<!-- option::is_some -->
<g id="node20" class="node">
<title>option::is_some</title>
<ellipse fill="none" stroke="black" cx="1708" cy="-106" rx="40.09" ry="18"/>
<text text-anchor="middle" x="1708" y="-102.3" font-family="Times,serif" font-size="14.00">is_some</text>
</g>
<!-- option::extract&#45;&gt;option::is_some -->
<g id="edge21" class="edge">
<title>option::extract&#45;&gt;option::is_some</title>
<path fill="none" stroke="black" d="M1708,-170.82C1708,-160.69 1708,-147.6 1708,-135.92"/>
<polygon fill="black" stroke="black" points="1711.5,-135.95 1708,-125.95 1704.5,-135.95 1711.5,-135.95"/>
</g>
<!-- string::internal_check_utf8 -->
<g id="node21" class="node">
<title>string::internal_check_utf8</title>
<ellipse fill="none" stroke="black" cx="615" cy="-355" rx="81.49" ry="18"/>
<text text-anchor="middle" x="615" y="-351.3" font-family="Times,serif" font-size="14.00">internal_check_utf8</text>
</g>
<!-- string::utf8&#45;&gt;string::internal_check_utf8 -->
<g id="edge22" class="edge">
<title>string::utf8&#45;&gt;string::internal_check_utf8</title>
<path fill="none" stroke="black" d="M658.33,-421C650.98,-409.97 641.05,-395.08 632.55,-382.32"/>
<polygon fill="black" stroke="black" points="635.69,-380.73 627.23,-374.35 629.87,-384.61 635.69,-380.73"/>
</g>
<!-- error::canonical -->
<g id="node22" class="node">
<title>error::canonical</title>
<ellipse fill="none" stroke="black" cx="1401" cy="-272" rx="44.39" ry="18"/>
<text text-anchor="middle" x="1401" y="-268.3" font-family="Times,serif" font-size="14.00">canonical</text>
</g>
<!-- error::permission_denied&#45;&gt;error::canonical -->
<g id="edge23" class="edge">
<title>error::permission_denied&#45;&gt;error::canonical</title>
<path fill="none" stroke="black" d="M1401,-336.82C1401,-326.69 1401,-313.6 1401,-301.92"/>
<polygon fill="black" stroke="black" points="1404.5,-301.95 1401,-291.95 1397.5,-301.95 1404.5,-301.95"/>
</g>
<!-- table::borrow_box_mut -->
<g id="node23" class="node">
<title>table::borrow_box_mut</title>
<ellipse fill="none" stroke="black" cx="498" cy="-189" rx="72.29" ry="18"/>
<text text-anchor="middle" x="498" y="-185.3" font-family="Times,serif" font-size="14.00">borrow_box_mut</text>
</g>
<!-- table::borrow_mut&#45;&gt;table::borrow_box_mut -->
<g id="edge24" class="edge">
<title>table::borrow_mut&#45;&gt;table::borrow_box_mut</title>
<path fill="none" stroke="black" d="M540.02,-254.22C532.89,-243.32 523.45,-228.89 515.32,-216.47"/>
<polygon fill="black" stroke="black" points="518.38,-214.76 509.98,-208.31 512.53,-218.59 518.38,-214.76"/>
</g>
<!-- from_bcs::from_bytes -->
<g id="node24" class="node">
<title>from_bcs::from_bytes</title>
<ellipse fill="none" stroke="black" cx="428" cy="-355" rx="51.19" ry="18"/>
<text text-anchor="middle" x="428" y="-351.3" font-family="Times,serif" font-size="14.00">from_bytes</text>
</g>
<!-- from_bcs::to_bool&#45;&gt;from_bcs::from_bytes -->
<g id="edge25" class="edge">
<title>from_bcs::to_bool&#45;&gt;from_bcs::from_bytes</title>
<path fill="none" stroke="black" d="M393.12,-420.22C398.98,-409.43 406.72,-395.17 413.42,-382.84"/>
<polygon fill="black" stroke="black" points="416.32,-384.83 418.02,-374.37 410.17,-381.49 416.32,-384.83"/>
</g>
<!-- bcs::to_bytes -->
<g id="node25" class="node">
<title>bcs::to_bytes</title>
<ellipse fill="none" stroke="black" cx="56" cy="-438" rx="40.09" ry="18"/>
<text text-anchor="middle" x="56" y="-434.3" font-family="Times,serif" font-size="14.00">to_bytes</text>
</g>
<!-- event::emit_event&#45;&gt;bcs::to_bytes -->
<g id="edge26" class="edge">
<title>event::emit_event&#45;&gt;bcs::to_bytes</title>
<path fill="none" stroke="black" d="M164.18,-510.23C146.2,-504.91 125.27,-497.28 108,-487 97.23,-480.59 86.79,-471.67 78.12,-463.26"/>
<polygon fill="black" stroke="black" points="80.68,-460.86 71.16,-456.2 75.69,-465.78 80.68,-460.86"/>
</g>
<!-- event::write_to_event_store -->
<g id="node26" class="node">
<title>event::write_to_event_store</title>
<ellipse fill="none" stroke="black" cx="205" cy="-438" rx="85.29" ry="18"/>
<text text-anchor="middle" x="205" y="-434.3" font-family="Times,serif" font-size="14.00">write_to_event_store</text>
</g>
<!-- event::emit_event&#45;&gt;event::write_to_event_store -->
<g id="edge27" class="edge">
<title>event::emit_event&#45;&gt;event::write_to_event_store</title>
<path fill="none" stroke="black" d="M205,-502.82C205,-492.69 205,-479.6 205,-467.92"/>
<polygon fill="black" stroke="black" points="208.5,-467.95 205,-457.95 201.5,-467.95 208.5,-467.95"/>
</g>
<!-- timestamp::now_microseconds -->
<g id="node27" class="node">
<title>timestamp::now_microseconds</title>
<ellipse fill="none" stroke="black" cx="1130" cy="-106" rx="79.09" ry="18"/>
<text text-anchor="middle" x="1130" y="-102.3" font-family="Times,serif" font-size="14.00">now_microseconds</text>
</g>
<!-- timestamp::now_seconds&#45;&gt;timestamp::now_microseconds -->
<g id="edge28" class="edge">
<title>timestamp::now_seconds&#45;&gt;timestamp::now_microseconds</title>
<path fill="none" stroke="black" d="M1130,-170.82C1130,-160.69 1130,-147.6 1130,-135.92"/>
<polygon fill="black" stroke="black" points="1133.5,-135.95 1130,-125.95 1126.5,-135.95 1133.5,-135.95"/>
</g>
<!-- simple_map::borrow&#45;&gt;option::extract -->
<g id="edge29" class="edge">
<title>simple_map::borrow&#45;&gt;option::extract</title>
<path fill="none" stroke="black" d="M1731.24,-419.63C1726.99,-377.65 1716.13,-270.31 1710.9,-218.64"/>
<polygon fill="black" stroke="black" points="1714.4,-218.45 1709.91,-208.86 1707.43,-219.16 1714.4,-218.45"/>
</g>
<!-- simple_map::borrow&#45;&gt;error::invalid_argument -->
<g id="edge31" class="edge">
<title>simple_map::borrow&#45;&gt;error::invalid_argument</title>
<path fill="none" stroke="black" d="M1708.08,-424.52C1700.08,-420.52 1691.17,-416.07 1683,-412 1659.42,-400.26 1633.04,-387.19 1611.71,-376.63"/>
<polygon fill="black" stroke="black" points="1613.55,-373.63 1603.03,-372.33 1610.44,-379.9 1613.55,-373.63"/>
</g>
<!-- simple_map::borrow&#45;&gt;option::is_some -->
<g id="edge30" class="edge">
<title>simple_map::borrow&#45;&gt;option::is_some</title>
<path fill="none" stroke="black" d="M1753.69,-423.09C1761.06,-418.8 1769.62,-414.54 1778,-412 1798.91,-405.66 1859.95,-418.82 1876,-404 1955.19,-330.89 1967.85,-249.09 1903,-163 1885.47,-139.72 1809.12,-123.14 1757.32,-114.32"/>
<polygon fill="black" stroke="black" points="1757.95,-110.88 1747.52,-112.7 1756.81,-117.79 1757.95,-110.88"/>
</g>
<!-- simple_map::find -->
<g id="node28" class="node">
<title>simple_map::find</title>
<ellipse fill="none" stroke="black" cx="1840" cy="-355" rx="27" ry="18"/>
<text text-anchor="middle" x="1840" y="-351.3" font-family="Times,serif" font-size="14.00">find</text>
</g>
<!-- simple_map::borrow&#45;&gt;simple_map::find -->
<g id="edge32" class="edge">
<title>simple_map::borrow&#45;&gt;simple_map::find</title>
<path fill="none" stroke="black" d="M1752.13,-422.52C1769.3,-409.52 1794.68,-390.31 1813.75,-375.87"/>
<polygon fill="black" stroke="black" points="1815.74,-378.76 1821.6,-369.93 1811.51,-373.18 1815.74,-378.76"/>
</g>
<!-- simple_map::contains_key&#45;&gt;option::is_some -->
<g id="edge33" class="edge">
<title>simple_map::contains_key&#45;&gt;option::is_some</title>
<path fill="none" stroke="black" d="M1949.4,-419.96C1952.45,-414.95 1955.57,-409.37 1958,-404 1973.91,-368.77 1978.16,-359.21 1984,-321 1994.66,-251.31 2018.75,-213.92 1970,-163 1941.45,-133.19 1826.56,-117.79 1758.76,-111.16"/>
<polygon fill="black" stroke="black" points="1759.29,-107.69 1749,-110.24 1758.63,-114.66 1759.29,-107.69"/>
</g>
<!-- simple_map::contains_key&#45;&gt;simple_map::find -->
<g id="edge34" class="edge">
<title>simple_map::contains_key&#45;&gt;simple_map::find</title>
<path fill="none" stroke="black" d="M1918.64,-421C1903.29,-408.32 1881.74,-390.5 1865.08,-376.73"/>
<polygon fill="black" stroke="black" points="1867.5,-374.19 1857.56,-370.51 1863.04,-379.58 1867.5,-374.19"/>
</g>
<!-- voting::can_be_resolved_early&#45;&gt;option::is_some -->
<g id="edge36" class="edge">
<title>voting::can_be_resolved_early&#45;&gt;option::is_some</title>
<path fill="none" stroke="black" d="M1083.48,-260.94C1124.15,-255.01 1175.52,-246.93 1221,-238 1377.87,-207.18 1417.58,-199.94 1571,-155 1603.84,-145.38 1640.39,-132.46 1667.47,-122.45"/>
<polygon fill="black" stroke="black" points="1668.52,-125.79 1676.67,-119.02 1666.08,-119.23 1668.52,-125.79"/>
</g>
<!-- option::borrow -->
<g id="node29" class="node">
<title>option::borrow</title>
<ellipse fill="none" stroke="black" cx="1619" cy="-189" rx="36.29" ry="18"/>
<text text-anchor="middle" x="1619" y="-185.3" font-family="Times,serif" font-size="14.00">borrow</text>
</g>
<!-- voting::can_be_resolved_early&#45;&gt;option::borrow -->
<g id="edge35" class="edge">
<title>voting::can_be_resolved_early&#45;&gt;option::borrow</title>
<path fill="none" stroke="black" d="M1077.61,-259.48C1109.22,-254.52 1147.44,-249.16 1182,-246 1275.46,-237.46 1299.87,-249.57 1393,-238 1457.63,-229.97 1531.19,-212.82 1576.35,-201.34"/>
<polygon fill="black" stroke="black" points="1577.2,-204.74 1586.01,-198.86 1575.46,-197.96 1577.2,-204.74"/>
</g>
<!-- voting::is_proposal_resolvable&#45;&gt;string::utf8 -->
<g id="edge37" class="edge">
<title>voting::is_proposal_resolvable&#45;&gt;string::utf8</title>
<path fill="none" stroke="black" d="M919.51,-517.63C844.06,-514.29 743.38,-506.26 708,-487 698.41,-481.78 690.28,-473.13 683.97,-464.6"/>
<polygon fill="black" stroke="black" points="686.98,-462.79 678.48,-456.46 681.17,-466.71 686.98,-462.79"/>
</g>
<!-- voting::is_proposal_resolvable&#45;&gt;table::borrow_mut -->
<g id="edge40" class="edge">
<title>voting::is_proposal_resolvable&#45;&gt;table::borrow_mut</title>
<path fill="none" stroke="black" d="M923.85,-514.44C876.42,-509.8 823.51,-501.51 805,-487 744.96,-439.95 800.2,-373.15 738,-329 715.66,-313.14 640.69,-330.5 615,-321 600.75,-315.73 587,-306.2 575.91,-297.02"/>
<polygon fill="black" stroke="black" points="578.26,-294.41 568.42,-290.48 573.65,-299.69 578.26,-294.41"/>
</g>
<!-- voting::is_proposal_resolvable&#45;&gt;timestamp::now_seconds -->
<g id="edge43" class="edge">
<title>voting::is_proposal_resolvable&#45;&gt;timestamp::now_seconds</title>
<path fill="none" stroke="black" d="M1021.24,-502.73C1042.48,-469.19 1088.41,-392.28 1111,-321 1121.84,-286.8 1126.52,-245.61 1128.53,-218.66"/>
<polygon fill="black" stroke="black" points="1132.01,-219.07 1129.17,-208.87 1125.02,-218.61 1132.01,-219.07"/>
</g>
<!-- voting::is_proposal_resolvable&#45;&gt;simple_map::borrow -->
<g id="edge44" class="edge">
<title>voting::is_proposal_resolvable&#45;&gt;simple_map::borrow</title>
<path fill="none" stroke="black" d="M1100.49,-517.55C1198.93,-514.03 1360.72,-505.76 1499,-487 1566.39,-477.86 1643.45,-460.73 1690.15,-449.6"/>
<polygon fill="black" stroke="black" points="1690.69,-453.08 1699.59,-447.33 1689.05,-446.27 1690.69,-453.08"/>
</g>
<!-- voting::is_proposal_resolvable&#45;&gt;error::invalid_argument -->
<g id="edge38" class="edge">
<title>voting::is_proposal_resolvable&#45;&gt;error::invalid_argument</title>
<path fill="none" stroke="black" d="M1098.52,-515.95C1154.21,-511.84 1227.17,-503.58 1290,-487 1381.86,-462.76 1401.93,-446.31 1487,-404 1502.86,-396.11 1519.88,-386.48 1534.36,-377.93"/>
<polygon fill="black" stroke="black" points="1535.84,-381.12 1542.62,-372.99 1532.25,-375.11 1535.84,-381.12"/>
</g>
<!-- error::invalid_state -->
<g id="node30" class="node">
<title>error::invalid_state</title>
<ellipse fill="none" stroke="black" cx="1250" cy="-355" rx="55.79" ry="18"/>
<text text-anchor="middle" x="1250" y="-351.3" font-family="Times,serif" font-size="14.00">invalid_state</text>
</g>
<!-- voting::is_proposal_resolvable&#45;&gt;error::invalid_state -->
<g id="edge39" class="edge">
<title>voting::is_proposal_resolvable&#45;&gt;error::invalid_state</title>
<path fill="none" stroke="black" d="M1096.46,-514.64C1167.57,-509.33 1258.48,-500.08 1270,-487 1295.2,-458.4 1279.41,-411.96 1265.13,-382.75"/>
<polygon fill="black" stroke="black" points="1268.4,-381.46 1260.71,-374.17 1262.18,-384.66 1268.4,-381.46"/>
</g>
<!-- from_bcs::to_u64 -->
<g id="node31" class="node">
<title>from_bcs::to_u64</title>
<ellipse fill="none" stroke="black" cx="475" cy="-438" rx="35.19" ry="18"/>
<text text-anchor="middle" x="475" y="-434.3" font-family="Times,serif" font-size="14.00">to_u64</text>
</g>
<!-- voting::is_proposal_resolvable&#45;&gt;from_bcs::to_u64 -->
<g id="edge41" class="edge">
<title>voting::is_proposal_resolvable&#45;&gt;from_bcs::to_u64</title>
<path fill="none" stroke="black" d="M919.77,-517.37C788.62,-513.01 557.07,-503.16 522,-487 510.88,-481.88 500.97,-472.88 493.16,-464.05"/>
<polygon fill="black" stroke="black" points="496.08,-462.1 487.03,-456.6 490.68,-466.54 496.08,-462.1"/>
</g>
<!-- transaction_context::get_script_hash -->
<g id="node32" class="node">
<title>transaction_context::get_script_hash</title>
<ellipse fill="none" stroke="black" cx="1192" cy="-438" rx="65.79" ry="18"/>
<text text-anchor="middle" x="1192" y="-434.3" font-family="Times,serif" font-size="14.00">get_script_hash</text>
</g>
<!-- voting::is_proposal_resolvable&#45;&gt;transaction_context::get_script_hash -->
<g id="edge42" class="edge">
<title>voting::is_proposal_resolvable&#45;&gt;transaction_context::get_script_hash</title>
<path fill="none" stroke="black" d="M1063.05,-505.9C1079.68,-500.76 1097.9,-494.37 1114,-487 1129.59,-479.86 1145.88,-470.22 1159.52,-461.45"/>
<polygon fill="black" stroke="black" points="1161.24,-464.51 1167.67,-456.1 1157.39,-458.66 1161.24,-464.51"/>
</g>
<!-- voting::get_proposal_state -->
<g id="node33" class="node">
<title>voting::get_proposal_state</title>
<ellipse fill="none" stroke="black" cx="891" cy="-438" rx="76.89" ry="18"/>
<text text-anchor="middle" x="891" y="-434.3" font-family="Times,serif" font-size="14.00">get_proposal_state</text>
</g>
<!-- voting::is_proposal_resolvable&#45;&gt;voting::get_proposal_state -->
<g id="edge45" class="edge">
<title>voting::is_proposal_resolvable&#45;&gt;voting::get_proposal_state</title>
<path fill="none" stroke="black" d="M985.34,-503.22C967.76,-491.25 943.9,-475 924.57,-461.85"/>
<polygon fill="black" stroke="black" points="926.71,-459.07 916.47,-456.34 922.77,-464.86 926.71,-459.07"/>
</g>
<!-- account::create_signer -->
<g id="node34" class="node">
<title>account::create_signer</title>
<ellipse fill="none" stroke="black" cx="1988" cy="-521" rx="57.69" ry="18"/>
<text text-anchor="middle" x="1988" y="-517.3" font-family="Times,serif" font-size="14.00">create_signer</text>
</g>
<!-- account::create_signer_with_capability&#45;&gt;account::create_signer -->
<g id="edge46" class="edge">
<title>account::create_signer_with_capability&#45;&gt;account::create_signer</title>
<path fill="none" stroke="black" d="M1988,-577.7C1988,-569.67 1988,-559.9 1988,-550.8"/>
<polygon fill="black" stroke="black" points="1991.5,-550.94 1988,-540.94 1984.5,-550.94 1991.5,-550.94"/>
</g>
<!-- error::invalid_argument&#45;&gt;error::canonical -->
<g id="edge47" class="edge">
<title>error::invalid_argument&#45;&gt;error::canonical</title>
<path fill="none" stroke="black" d="M1537.81,-338.57C1509.63,-325.07 1468.64,-305.42 1438.88,-291.16"/>
<polygon fill="black" stroke="black" points="1440.76,-288.18 1430.23,-287.01 1437.73,-294.49 1440.76,-288.18"/>
</g>
<!-- simple_map::remove&#45;&gt;option::extract -->
<g id="edge49" class="edge">
<title>simple_map::remove&#45;&gt;option::extract</title>
<path fill="none" stroke="black" d="M1813.08,-420.42C1809.8,-415.33 1806.47,-409.59 1804,-404 1774.58,-337.44 1800.94,-306.84 1761,-246 1757.88,-241.24 1755.14,-241.91 1751,-238 1743.2,-230.63 1735.21,-222.04 1728.27,-214.19"/>
<polygon fill="black" stroke="black" points="1731.13,-212.14 1721.93,-206.88 1725.84,-216.72 1731.13,-212.14"/>
</g>
<!-- simple_map::remove&#45;&gt;error::invalid_argument -->
<g id="edge51" class="edge">
<title>simple_map::remove&#45;&gt;error::invalid_argument</title>
<path fill="none" stroke="black" d="M1803.32,-423.12C1795.61,-418.83 1786.69,-414.57 1778,-412 1738.21,-400.24 1725.29,-413.89 1685,-404 1659.48,-397.74 1632.28,-386.61 1610.75,-376.65"/>
<polygon fill="black" stroke="black" points="1612.26,-373.49 1601.72,-372.37 1609.26,-379.81 1612.26,-373.49"/>
</g>
<!-- simple_map::remove&#45;&gt;option::is_some -->
<g id="edge50" class="edge">
<title>simple_map::remove&#45;&gt;option::is_some</title>
<path fill="none" stroke="black" d="M1847.3,-423.3C1854.91,-419.13 1863.61,-414.9 1872,-412 1891.2,-405.37 1901.53,-417.17 1917,-404 1998.78,-334.37 2006.66,-243.01 1935,-163 1911.77,-137.06 1817.73,-120.74 1758.21,-112.79"/>
<polygon fill="black" stroke="black" points="1758.67,-109.32 1748.3,-111.51 1757.77,-116.26 1758.67,-109.32"/>
</g>
<!-- simple_map::remove&#45;&gt;simple_map::find -->
<g id="edge52" class="edge">
<title>simple_map::remove&#45;&gt;simple_map::find</title>
<path fill="none" stroke="black" d="M1828.18,-419.82C1830.09,-409.51 1832.57,-396.14 1834.76,-384.31"/>
<polygon fill="black" stroke="black" points="1838.17,-385.11 1836.55,-374.64 1831.29,-383.84 1838.17,-385.11"/>
</g>
<!-- vector::swap_remove -->
<g id="node35" class="node">
<title>vector::swap_remove</title>
<ellipse fill="none" stroke="black" cx="1395" cy="-106" rx="59.59" ry="18"/>
<text text-anchor="middle" x="1395" y="-102.3" font-family="Times,serif" font-size="14.00">swap_remove</text>
</g>
<!-- simple_map::remove&#45;&gt;vector::swap_remove -->
<g id="edge48" class="edge">
<title>simple_map::remove&#45;&gt;vector::swap_remove</title>
<path fill="none" stroke="black" d="M1804.58,-422.42C1797.46,-416.97 1789.61,-410.51 1783,-404 1718.62,-340.57 1734.64,-288.73 1655,-246 1621.95,-228.27 1606,-251.47 1571,-238 1509.26,-214.24 1450.29,-162.43 1418.74,-131.56"/>
<polygon fill="black" stroke="black" points="1421.22,-129.09 1411.67,-124.52 1416.29,-134.05 1421.22,-129.09"/>
</g>
<!-- voting::is_resolved&#45;&gt;table::borrow_mut -->
<g id="edge53" class="edge">
<title>voting::is_resolved&#45;&gt;table::borrow_mut</title>
<path fill="none" stroke="black" d="M836.63,-578.54C818.33,-558.28 787.78,-522.2 768,-487 763.4,-478.81 715.49,-334.66 708,-329 691.45,-316.5 634.38,-328.4 615,-321 600.91,-315.62 587.26,-306.17 576.21,-297.07"/>
<polygon fill="black" stroke="black" points="578.58,-294.49 568.73,-290.59 574,-299.78 578.58,-294.49"/>
</g>
<!-- vector::is_empty -->
<g id="node36" class="node">
<title>vector::is_empty</title>
<ellipse fill="none" stroke="black" cx="1455" cy="-34" rx="43.59" ry="18"/>
<text text-anchor="middle" x="1455" y="-30.3" font-family="Times,serif" font-size="14.00">is_empty</text>
</g>
<!-- option::is_some&#45;&gt;vector::is_empty -->
<g id="edge54" class="edge">
<title>option::is_some&#45;&gt;vector::is_empty</title>
<path fill="none" stroke="black" d="M1674.4,-95.7C1629.92,-83.4 1551.26,-61.63 1501.21,-47.78"/>
<polygon fill="black" stroke="black" points="1502.4,-44.48 1491.82,-45.19 1500.53,-51.23 1502.4,-44.48"/>
</g>
<!-- option::none -->
<g id="node37" class="node">
<title>option::none</title>
<ellipse fill="none" stroke="black" cx="1866" cy="-189" rx="27.9" ry="18"/>
<text text-anchor="middle" x="1866" y="-185.3" font-family="Times,serif" font-size="14.00">none</text>
</g>
<!-- simple_map::find&#45;&gt;option::none -->
<g id="edge55" class="edge">
<title>simple_map::find&#45;&gt;option::none</title>
<path fill="none" stroke="black" d="M1842.73,-336.76C1847.21,-308.51 1856.15,-252.11 1861.55,-218.04"/>
<polygon fill="black" stroke="black" points="1864.96,-218.93 1863.07,-208.5 1858.04,-217.83 1864.96,-218.93"/>
</g>
<!-- option::some -->
<g id="node38" class="node">
<title>option::some</title>
<ellipse fill="none" stroke="black" cx="1790" cy="-189" rx="29.8" ry="18"/>
<text text-anchor="middle" x="1790" y="-185.3" font-family="Times,serif" font-size="14.00">some</text>
</g>
<!-- simple_map::find&#45;&gt;option::some -->
<g id="edge56" class="edge">
<title>simple_map::find&#45;&gt;option::some</title>
<path fill="none" stroke="black" d="M1834.84,-337.07C1826.23,-308.83 1808.86,-251.87 1798.45,-217.72"/>
<polygon fill="black" stroke="black" points="1801.91,-217.08 1795.65,-208.53 1795.22,-219.12 1801.91,-217.08"/>
</g>
<!-- option::borrow&#45;&gt;option::is_some -->
<g id="edge57" class="edge">
<title>option::borrow&#45;&gt;option::is_some</title>
<path fill="none" stroke="black" d="M1635.74,-172.76C1648.87,-160.81 1667.38,-143.97 1682.37,-130.32"/>
<polygon fill="black" stroke="black" points="1684.57,-133.06 1689.61,-123.74 1679.86,-127.88 1684.57,-133.06"/>
</g>
<!-- error::invalid_state&#45;&gt;error::canonical -->
<g id="edge58" class="edge">
<title>error::invalid_state&#45;&gt;error::canonical</title>
<path fill="none" stroke="black" d="M1277.7,-339.14C1302.2,-326 1338.11,-306.73 1364.87,-292.38"/>
<polygon fill="black" stroke="black" points="1366.5,-295.48 1373.66,-287.67 1363.19,-289.31 1366.5,-295.48"/>
</g>
<!-- from_bcs::to_u64&#45;&gt;from_bcs::from_bytes -->
<g id="edge59" class="edge">
<title>from_bcs::to_u64&#45;&gt;from_bcs::from_bytes</title>
<path fill="none" stroke="black" d="M465.26,-420.22C459,-409.43 450.73,-395.17 443.57,-382.84"/>
<polygon fill="black" stroke="black" points="446.69,-381.24 438.65,-374.35 440.64,-384.76 446.69,-381.24"/>
</g>
<!-- table::borrow -->
<g id="node39" class="node">
<title>table::borrow</title>
<ellipse fill="none" stroke="black" cx="660" cy="-272" rx="36.29" ry="18"/>
<text text-anchor="middle" x="660" y="-268.3" font-family="Times,serif" font-size="14.00">borrow</text>
</g>
<!-- voting::get_proposal_state&#45;&gt;table::borrow -->
<g id="edge60" class="edge">
<title>voting::get_proposal_state&#45;&gt;table::borrow</title>
<path fill="none" stroke="black" d="M848.34,-422.7C837.96,-417.87 827.43,-411.7 819,-404 790.63,-378.09 808.06,-350.17 776,-329 750.61,-312.23 735.38,-334.27 708,-321 696.86,-315.6 686.79,-306.56 678.78,-297.77"/>
<polygon fill="black" stroke="black" points="681.62,-295.7 672.47,-290.36 676.29,-300.24 681.62,-295.7"/>
</g>
<!-- voting::is_voting_closed -->
<g id="node40" class="node">
<title>voting::is_voting_closed</title>
<ellipse fill="none" stroke="black" cx="898" cy="-355" rx="70.39" ry="18"/>
<text text-anchor="middle" x="898" y="-351.3" font-family="Times,serif" font-size="14.00">is_voting_closed</text>
</g>
<!-- voting::get_proposal_state&#45;&gt;voting::is_voting_closed -->
<g id="edge61" class="edge">
<title>voting::get_proposal_state&#45;&gt;voting::is_voting_closed</title>
<path fill="none" stroke="black" d="M892.48,-419.82C893.37,-409.58 894.52,-396.33 895.53,-384.55"/>
<polygon fill="black" stroke="black" points="898.99,-385.2 896.36,-374.94 892.02,-384.6 898.99,-385.2"/>
</g>
<!-- vector::swap_remove&#45;&gt;vector::is_empty -->
<g id="edge62" class="edge">
<title>vector::swap_remove&#45;&gt;vector::is_empty</title>
<path fill="none" stroke="black" d="M1409.52,-88.05C1416.78,-79.59 1425.69,-69.19 1433.7,-59.84"/>
<polygon fill="black" stroke="black" points="1436.19,-62.33 1440.04,-52.46 1430.87,-57.77 1436.19,-62.33"/>
</g>
<!-- vector::singleton -->
<g id="node41" class="node">
<title>vector::singleton</title>
<ellipse fill="none" stroke="black" cx="1516" cy="-106" rx="42.79" ry="18"/>
<text text-anchor="middle" x="1516" y="-102.3" font-family="Times,serif" font-size="14.00">singleton</text>
</g>
<!-- option::some&#45;&gt;vector::singleton -->
<g id="edge63" class="edge">
<title>option::some&#45;&gt;vector::singleton</title>
<path fill="none" stroke="black" d="M1772.74,-174.17C1766.29,-169.78 1758.67,-165.43 1751,-163 1712.84,-150.89 1608.17,-169.89 1571,-155 1558.39,-149.95 1546.7,-140.71 1537.36,-131.68"/>
<polygon fill="black" stroke="black" points="1540.03,-129.4 1530.55,-124.66 1535,-134.27 1540.03,-129.4"/>
</g>
<!-- table::borrow_box -->
<g id="node42" class="node">
<title>table::borrow_box</title>
<ellipse fill="none" stroke="black" cx="642" cy="-189" rx="53.89" ry="18"/>
<text text-anchor="middle" x="642" y="-185.3" font-family="Times,serif" font-size="14.00">borrow_box</text>
</g>
<!-- table::borrow&#45;&gt;table::borrow_box -->
<g id="edge64" class="edge">
<title>table::borrow&#45;&gt;table::borrow_box</title>
<path fill="none" stroke="black" d="M656.18,-253.82C653.91,-243.58 650.96,-230.33 648.34,-218.55"/>
<polygon fill="black" stroke="black" points="651.79,-217.91 646.2,-208.91 644.95,-219.43 651.79,-217.91"/>
</g>
<!-- voting::is_voting_closed&#45;&gt;table::borrow_mut -->
<g id="edge65" class="edge">
<title>voting::is_voting_closed&#45;&gt;table::borrow_mut</title>
<path fill="none" stroke="black" d="M848.13,-341.99C826.14,-337.16 799.92,-332.03 776,-329 740.46,-324.5 648.69,-333.17 615,-321 600.71,-315.84 586.95,-306.33 575.87,-297.12"/>
<polygon fill="black" stroke="black" points="578.21,-294.52 568.39,-290.56 573.6,-299.79 578.21,-294.52"/>
</g>
<!-- voting::is_voting_closed&#45;&gt;voting::can_be_resolved_early -->
<g id="edge66" class="edge">
<title>voting::is_voting_closed&#45;&gt;voting::can_be_resolved_early</title>
<path fill="none" stroke="black" d="M920.66,-337.61C937.1,-325.72 959.57,-309.47 977.86,-296.25"/>
<polygon fill="black" stroke="black" points="979.71,-299.23 985.76,-290.53 975.6,-293.56 979.71,-299.23"/>
</g>
<!-- voting::is_voting_period_over -->
<g id="node43" class="node">
<title>voting::is_voting_period_over</title>
<ellipse fill="none" stroke="black" cx="810" cy="-272" rx="90.18" ry="18"/>
<text text-anchor="middle" x="810" y="-268.3" font-family="Times,serif" font-size="14.00">is_voting_period_over</text>
</g>
<!-- voting::is_voting_closed&#45;&gt;voting::is_voting_period_over -->
<g id="edge67" class="edge">
<title>voting::is_voting_closed&#45;&gt;voting::is_voting_period_over</title>
<path fill="none" stroke="black" d="M879.77,-337.22C867.34,-325.78 850.69,-310.45 836.77,-297.64"/>
<polygon fill="black" stroke="black" points="839.35,-295.26 829.63,-291.07 834.61,-300.41 839.35,-295.26"/>
</g>
<!-- voting::is_voting_period_over&#45;&gt;timestamp::now_seconds -->
<g id="edge68" class="edge">
<title>voting::is_voting_period_over&#45;&gt;timestamp::now_seconds</title>
<path fill="none" stroke="black" d="M864.28,-257.26C923.08,-242.38 1016.36,-218.77 1075.31,-203.84"/>
<polygon fill="black" stroke="black" points="1075.97,-207.29 1084.8,-201.44 1074.25,-200.5 1075.97,-207.29"/>
</g>
</g>
</svg>
