<?xml version="1.0" encoding="UTF-8" standalone="no"?>
<!DOCTYPE svg PUBLIC "-//W3C//DTD SVG 1.1//EN"
 "http://www.w3.org/Graphics/SVG/1.1/DTD/svg11.dtd">
<!-- Generated by graphviz version 7.0.4 (20221203.1631)
 -->
<!-- Title: G Pages: 1 -->
<svg width="698pt" height="365pt"
 viewBox="0.00 0.00 698.00 365.00" xmlns="http://www.w3.org/2000/svg" xmlns:xlink="http://www.w3.org/1999/xlink">
<g id="graph0" class="graph" transform="scale(1 1) rotate(0) translate(4 361)">
<title>G</title>
<polygon fill="white" stroke="none" points="-4,4 -4,-361 694,-361 694,4 -4,4"/>
<g id="clust1" class="cluster">
<title>cluster_signer</title>
<polygon fill="none" stroke="black" points="8,-8 8,-155 158,-155 158,-8 8,-8"/>
<text text-anchor="middle" x="83" y="-139.8" font-family="Times,serif" font-size="14.00">signer</text>
</g>
<g id="clust2" class="cluster">
<title>cluster_event</title>
<polygon fill="none" stroke="black" points="290,-80 290,-238 578,-238 578,-80 290,-80"/>
<text text-anchor="middle" x="434" y="-222.8" font-family="Times,serif" font-size="14.00">event</text>
</g>
<g id="clust3" class="cluster">
<title>cluster_account</title>
<polygon fill="none" stroke="black" points="112,-163 112,-313 282,-313 282,-163 112,-163"/>
<text text-anchor="middle" x="197" y="-297.8" font-family="Times,serif" font-size="14.00">account</text>
</g>
<g id="clust4" class="cluster">
<title>cluster_bcs</title>
<polygon fill="none" stroke="black" points="586,-80 586,-155 682,-155 682,-80 586,-80"/>
<text text-anchor="middle" x="634" y="-139.8" font-family="Times,serif" font-size="14.00">bcs</text>
</g>
<g id="clust5" class="cluster">
<title>cluster_guid</title>
<polygon fill="none" stroke="black" points="166,-80 166,-155 246,-155 246,-80 166,-80"/>
<text text-anchor="middle" x="206" y="-139.8" font-family="Times,serif" font-size="14.00">guid</text>
</g>
<!-- set_allow_direct_coin_transfers -->
<g id="node1" class="node">
<title>set_allow_direct_coin_transfers</title>
<ellipse fill="none" stroke="black" cx="197" cy="-339" rx="122.68" ry="18"/>
<text text-anchor="middle" x="197" y="-335.3" font-family="Times,serif" font-size="14.00">set_allow_direct_coin_transfers</text>
</g>
<!-- signer::address_of -->
<g id="node2" class="node">
<title>signer::address_of</title>
<ellipse fill="none" stroke="black" cx="92" cy="-106" rx="48.99" ry="18"/>
<text text-anchor="middle" x="92" y="-102.3" font-family="Times,serif" font-size="14.00">address_of</text>
</g>
<!-- set_allow_direct_coin_transfers&#45;&gt;signer::address_of -->
<g id="edge1" class="edge">
<title>set_allow_direct_coin_transfers&#45;&gt;signer::address_of</title>
<path fill="none" stroke="black" d="M121.31,-324.49C116.3,-321.38 111.77,-317.59 108,-313 66.4,-262.31 76.05,-178.96 84.97,-135.45"/>
<polygon fill="black" stroke="black" points="88.37,-136.3 87.1,-125.78 81.54,-134.79 88.37,-136.3"/>
</g>
<!-- event::emit_event -->
<g id="node3" class="node">
<title>event::emit_event</title>
<ellipse fill="none" stroke="black" cx="520" cy="-189" rx="50.09" ry="18"/>
<text text-anchor="middle" x="520" y="-185.3" font-family="Times,serif" font-size="14.00">emit_event</text>
</g>
<!-- set_allow_direct_coin_transfers&#45;&gt;event::emit_event -->
<g id="edge2" class="edge">
<title>set_allow_direct_coin_transfers&#45;&gt;event::emit_event</title>
<path fill="none" stroke="black" d="M254.84,-322.72C310.24,-306.59 394.95,-277.95 461,-238 472.51,-231.04 484.19,-222.02 494.1,-213.69"/>
<polygon fill="black" stroke="black" points="496.22,-216.48 501.49,-207.29 491.64,-211.19 496.22,-216.48"/>
</g>
<!-- account::new_event_handle -->
<g id="node4" class="node">
<title>account::new_event_handle</title>
<ellipse fill="none" stroke="black" cx="197" cy="-264" rx="76.89" ry="18"/>
<text text-anchor="middle" x="197" y="-260.3" font-family="Times,serif" font-size="14.00">new_event_handle</text>
</g>
<!-- set_allow_direct_coin_transfers&#45;&gt;account::new_event_handle -->
<g id="edge3" class="edge">
<title>set_allow_direct_coin_transfers&#45;&gt;account::new_event_handle</title>
<path fill="none" stroke="black" d="M197,-320.7C197,-312.67 197,-302.9 197,-293.8"/>
<polygon fill="black" stroke="black" points="200.5,-293.94 197,-283.94 193.5,-293.94 200.5,-293.94"/>
</g>
<!-- signer::borrow_address -->
<g id="node5" class="node">
<title>signer::borrow_address</title>
<ellipse fill="none" stroke="black" cx="83" cy="-34" rx="66.89" ry="18"/>
<text text-anchor="middle" x="83" y="-30.3" font-family="Times,serif" font-size="14.00">borrow_address</text>
</g>
<!-- signer::address_of&#45;&gt;signer::borrow_address -->
<g id="edge4" class="edge">
<title>signer::address_of&#45;&gt;signer::borrow_address</title>
<path fill="none" stroke="black" d="M89.78,-87.7C88.83,-80.32 87.7,-71.52 86.63,-63.25"/>
<polygon fill="black" stroke="black" points="90.14,-63.08 85.39,-53.61 83.2,-63.97 90.14,-63.08"/>
</g>
<!-- bcs::to_bytes -->
<g id="node6" class="node">
<title>bcs::to_bytes</title>
<ellipse fill="none" stroke="black" cx="634" cy="-106" rx="40.09" ry="18"/>
<text text-anchor="middle" x="634" y="-102.3" font-family="Times,serif" font-size="14.00">to_bytes</text>
</g>
<!-- event::emit_event&#45;&gt;bcs::to_bytes -->
<g id="edge5" class="edge">
<title>event::emit_event&#45;&gt;bcs::to_bytes</title>
<path fill="none" stroke="black" d="M549.62,-174.2C560.19,-168.77 571.96,-162.13 582,-155 592.07,-147.85 602.25,-138.92 610.9,-130.7"/>
<polygon fill="black" stroke="black" points="613.18,-133.37 617.89,-123.88 608.29,-128.36 613.18,-133.37"/>
</g>
<!-- event::write_to_event_store -->
<g id="node7" class="node">
<title>event::write_to_event_store</title>
<ellipse fill="none" stroke="black" cx="485" cy="-106" rx="85.29" ry="18"/>
<text text-anchor="middle" x="485" y="-102.3" font-family="Times,serif" font-size="14.00">write_to_event_store</text>
</g>
<!-- event::emit_event&#45;&gt;event::write_to_event_store -->
<g id="edge6" class="edge">
<title>event::emit_event&#45;&gt;event::write_to_event_store</title>
<path fill="none" stroke="black" d="M512.58,-170.82C508.03,-160.3 502.11,-146.59 496.91,-134.57"/>
<polygon fill="black" stroke="black" points="500.19,-133.33 493.01,-125.54 493.77,-136.11 500.19,-133.33"/>
</g>
<!-- event::new_event_handle -->
<g id="node8" class="node">
<title>event::new_event_handle</title>
<ellipse fill="none" stroke="black" cx="375" cy="-189" rx="76.89" ry="18"/>
<text text-anchor="middle" x="375" y="-185.3" font-family="Times,serif" font-size="14.00">new_event_handle</text>
</g>
<!-- account::new_event_handle&#45;&gt;event::new_event_handle -->
<g id="edge7" class="edge">
<title>account::new_event_handle&#45;&gt;event::new_event_handle</title>
<path fill="none" stroke="black" d="M248.95,-250.49C261.27,-246.95 274.25,-242.75 286,-238 303.89,-230.77 322.83,-220.9 338.61,-211.98"/>
<polygon fill="black" stroke="black" points="340.25,-215.08 347.17,-207.06 336.76,-209.01 340.25,-215.08"/>
</g>
<!-- account::create_guid -->
<g id="node9" class="node">
<title>account::create_guid</title>
<ellipse fill="none" stroke="black" cx="197" cy="-189" rx="51.99" ry="18"/>
<text text-anchor="middle" x="197" y="-185.3" font-family="Times,serif" font-size="14.00">create_guid</text>
</g>
<!-- account::new_event_handle&#45;&gt;account::create_guid -->
<g id="edge8" class="edge">
<title>account::new_event_handle&#45;&gt;account::create_guid</title>
<path fill="none" stroke="black" d="M197,-245.7C197,-237.67 197,-227.9 197,-218.8"/>
<polygon fill="black" stroke="black" points="200.5,-218.94 197,-208.94 193.5,-218.94 200.5,-218.94"/>
</g>
<!-- account::create_guid&#45;&gt;signer::address_of -->
<g id="edge9" class="edge">
<title>account::create_guid&#45;&gt;signer::address_of</title>
<path fill="none" stroke="black" d="M176.51,-172.19C160.75,-160.04 138.78,-143.09 121.19,-129.51"/>
<polygon fill="black" stroke="black" points="123.7,-127.03 113.64,-123.69 119.42,-132.57 123.7,-127.03"/>
</g>
<!-- guid::create -->
<g id="node10" class="node">
<title>guid::create</title>
<ellipse fill="none" stroke="black" cx="206" cy="-106" rx="31.7" ry="18"/>
<text text-anchor="middle" x="206" y="-102.3" font-family="Times,serif" font-size="14.00">create</text>
</g>
<!-- account::create_guid&#45;&gt;guid::create -->
<g id="edge10" class="edge">
<title>account::create_guid&#45;&gt;guid::create</title>
<path fill="none" stroke="black" d="M198.91,-170.82C200.05,-160.58 201.52,-147.33 202.83,-135.55"/>
<polygon fill="black" stroke="black" points="206.27,-136.26 203.9,-125.94 199.31,-135.49 206.27,-136.26"/>
</g>
</g>
</svg>
