<?xml version="1.0" encoding="UTF-8" standalone="no"?>
<!DOCTYPE svg PUBLIC "-//W3C//DTD SVG 1.1//EN"
 "http://www.w3.org/Graphics/SVG/1.1/DTD/svg11.dtd">
<!-- Generated by graphviz version 7.0.4 (20221203.1631)
 -->
<!-- Title: G Pages: 1 -->
<svg width="1788pt" height="675pt"
 viewBox="0.00 0.00 1788.00 675.00" xmlns="http://www.w3.org/2000/svg" xmlns:xlink="http://www.w3.org/1999/xlink">
<g id="graph0" class="graph" transform="scale(1 1) rotate(0) translate(4 671)">
<title>G</title>
<polygon fill="white" stroke="none" points="-4,4 -4,-671 1784,-671 1784,4 -4,4"/>
<g id="clust1" class="cluster">
<title>cluster_error</title>
<polygon fill="none" stroke="black" points="1185,-8 1185,-166 1772,-166 1772,-8 1185,-8"/>
<text text-anchor="middle" x="1478.5" y="-150.8" font-family="Times,serif" font-size="14.00">error</text>
</g>
<g id="clust2" class="cluster">
<title>cluster_coin</title>
<polygon fill="none" stroke="black" points="1189,-257 1189,-407 1550,-407 1550,-257 1189,-257"/>
<text text-anchor="middle" x="1369.5" y="-391.8" font-family="Times,serif" font-size="14.00">coin</text>
</g>
<g id="clust3" class="cluster">
<title>cluster_signer</title>
<polygon fill="none" stroke="black" points="8,-8 8,-166 158,-166 158,-8 8,-8"/>
<text text-anchor="middle" x="83" y="-150.8" font-family="Times,serif" font-size="14.00">signer</text>
</g>
<g id="clust4" class="cluster">
<title>cluster_event</title>
<polygon fill="none" stroke="black" points="889,-8 889,-166 1177,-166 1177,-8 889,-8"/>
<text text-anchor="middle" x="1033" y="-150.8" font-family="Times,serif" font-size="14.00">event</text>
</g>
<g id="clust5" class="cluster">
<title>cluster_account</title>
<polygon fill="none" stroke="black" points="166,-91 166,-332 713,-332 713,-91 166,-91"/>
<text text-anchor="middle" x="439.5" y="-316.8" font-family="Times,serif" font-size="14.00">account</text>
</g>
<g id="clust6" class="cluster">
<title>cluster_bcs</title>
<polygon fill="none" stroke="black" points="693,-8 693,-83 789,-83 789,-8 693,-8"/>
<text text-anchor="middle" x="741" y="-67.8" font-family="Times,serif" font-size="14.00">bcs</text>
</g>
<g id="clust7" class="cluster">
<title>cluster_type_info</title>
<polygon fill="none" stroke="black" points="791,-174 791,-249 883,-249 883,-174 791,-174"/>
<text text-anchor="middle" x="837" y="-233.8" font-family="Times,serif" font-size="14.00">type_info</text>
</g>
<g id="clust8" class="cluster">
<title>cluster_guid</title>
<polygon fill="none" stroke="black" points="801,-91 801,-166 881,-166 881,-91 801,-91"/>
<text text-anchor="middle" x="841" y="-150.8" font-family="Times,serif" font-size="14.00">guid</text>
</g>
<g id="clust9" class="cluster">
<title>cluster_option</title>
<polygon fill="none" stroke="black" points="721,-91 721,-166 793,-166 793,-91 721,-91"/>
<text text-anchor="middle" x="757" y="-150.8" font-family="Times,serif" font-size="14.00">option</text>
</g>
<!-- batch_transfer_coins -->
<g id="node1" class="node">
<title>batch_transfer_coins</title>
<ellipse fill="none" stroke="black" cx="1421" cy="-649" rx="83.69" ry="18"/>
<text text-anchor="middle" x="1421" y="-645.3" font-family="Times,serif" font-size="14.00">batch_transfer_coins</text>
</g>
<!-- error::invalid_argument -->
<g id="node2" class="node">
<title>error::invalid_argument</title>
<ellipse fill="none" stroke="black" cx="1518" cy="-117" rx="73.39" ry="18"/>
<text text-anchor="middle" x="1518" y="-113.3" font-family="Times,serif" font-size="14.00">invalid_argument</text>
</g>
<!-- batch_transfer_coins&#45;&gt;error::invalid_argument -->
<g id="edge1" class="edge">
<title>batch_transfer_coins&#45;&gt;error::invalid_argument</title>
<path fill="none" stroke="black" d="M1470.13,-634.15C1525.54,-615.18 1608,-575.3 1608,-506 1608,-506 1608,-506 1608,-282 1608,-227.31 1569.07,-173.62 1542.41,-143.27"/>
<polygon fill="black" stroke="black" points="1545.24,-141.18 1535.94,-136.11 1540.05,-145.87 1545.24,-141.18"/>
</g>
<!-- transfer_coins -->
<g id="node3" class="node">
<title>transfer_coins</title>
<ellipse fill="none" stroke="black" cx="1188" cy="-577" rx="60.39" ry="18"/>
<text text-anchor="middle" x="1188" y="-573.3" font-family="Times,serif" font-size="14.00">transfer_coins</text>
</g>
<!-- batch_transfer_coins&#45;&gt;transfer_coins -->
<g id="edge2" class="edge">
<title>batch_transfer_coins&#45;&gt;transfer_coins</title>
<path fill="none" stroke="black" d="M1373.57,-633.75C1334.89,-622.13 1280.32,-605.74 1240.37,-593.73"/>
<polygon fill="black" stroke="black" points="1241.55,-590.43 1230.96,-590.91 1239.53,-597.14 1241.55,-590.43"/>
</g>
<!-- error::canonical -->
<g id="node4" class="node">
<title>error::canonical</title>
<ellipse fill="none" stroke="black" cx="1449" cy="-34" rx="44.39" ry="18"/>
<text text-anchor="middle" x="1449" y="-30.3" font-family="Times,serif" font-size="14.00">canonical</text>
</g>
<!-- error::invalid_argument&#45;&gt;error::canonical -->
<g id="edge3" class="edge">
<title>error::invalid_argument&#45;&gt;error::canonical</title>
<path fill="none" stroke="black" d="M1503.7,-99.22C1494.11,-87.96 1481.3,-72.92 1470.49,-60.22"/>
<polygon fill="black" stroke="black" points="1473.17,-57.98 1464.02,-52.64 1467.84,-62.52 1473.17,-57.98"/>
</g>
<!-- coin::withdraw -->
<g id="node5" class="node">
<title>coin::withdraw</title>
<ellipse fill="none" stroke="black" cx="1333" cy="-358" rx="44.39" ry="18"/>
<text text-anchor="middle" x="1333" y="-354.3" font-family="Times,serif" font-size="14.00">withdraw</text>
</g>
<!-- transfer_coins&#45;&gt;coin::withdraw -->
<g id="edge4" class="edge">
<title>transfer_coins&#45;&gt;coin::withdraw</title>
<path fill="none" stroke="black" d="M1128.05,-574.18C899.77,-566.65 93.87,-534.3 19,-451 8.3,-439.1 7.72,-426.35 19,-415 31.35,-402.58 1263.68,-413.35 1280,-407 1292.58,-402.11 1304.03,-392.71 1313.05,-383.52"/>
<polygon fill="black" stroke="black" points="1315.41,-386.13 1319.58,-376.39 1310.24,-381.4 1315.41,-386.13"/>
</g>
<!-- deposit_coins -->
<g id="node6" class="node">
<title>deposit_coins</title>
<ellipse fill="none" stroke="black" cx="1188" cy="-505" rx="59.29" ry="18"/>
<text text-anchor="middle" x="1188" y="-501.3" font-family="Times,serif" font-size="14.00">deposit_coins</text>
</g>
<!-- transfer_coins&#45;&gt;deposit_coins -->
<g id="edge5" class="edge">
<title>transfer_coins&#45;&gt;deposit_coins</title>
<path fill="none" stroke="black" d="M1188,-558.7C1188,-551.41 1188,-542.73 1188,-534.54"/>
<polygon fill="black" stroke="black" points="1191.5,-534.62 1188,-524.62 1184.5,-534.62 1191.5,-534.62"/>
</g>
<!-- signer::address_of -->
<g id="node7" class="node">
<title>signer::address_of</title>
<ellipse fill="none" stroke="black" cx="101" cy="-117" rx="48.99" ry="18"/>
<text text-anchor="middle" x="101" y="-113.3" font-family="Times,serif" font-size="14.00">address_of</text>
</g>
<!-- coin::withdraw&#45;&gt;signer::address_of -->
<g id="edge6" class="edge">
<title>coin::withdraw&#45;&gt;signer::address_of</title>
<path fill="none" stroke="black" d="M1301.15,-345.07C1294.27,-342.98 1286.97,-341.12 1280,-340 1264.67,-337.54 174.36,-341.4 162,-332 104.43,-288.22 98.44,-194.04 99.38,-146.57"/>
<polygon fill="black" stroke="black" points="102.87,-146.93 99.7,-136.82 95.87,-146.7 102.87,-146.93"/>
</g>
<!-- error::not_found -->
<g id="node8" class="node">
<title>error::not_found</title>
<ellipse fill="none" stroke="black" cx="1380" cy="-117" rx="46.59" ry="18"/>
<text text-anchor="middle" x="1380" y="-113.3" font-family="Times,serif" font-size="14.00">not_found</text>
</g>
<!-- coin::withdraw&#45;&gt;error::not_found -->
<g id="edge7" class="edge">
<title>coin::withdraw&#45;&gt;error::not_found</title>
<path fill="none" stroke="black" d="M1300.83,-345.21C1294.03,-343.13 1286.85,-341.24 1280,-340 1262.16,-336.76 1129.5,-345.13 1117,-332 1068.58,-281.14 1068.31,-224.6 1117,-174 1132.96,-157.41 1302.57,-174.4 1324,-166 1336.78,-160.99 1348.67,-151.76 1358.18,-142.72"/>
<polygon fill="black" stroke="black" points="1360.6,-145.25 1365.14,-135.68 1355.62,-140.33 1360.6,-145.25"/>
</g>
<!-- error::permission_denied -->
<g id="node9" class="node">
<title>error::permission_denied</title>
<ellipse fill="none" stroke="black" cx="1687" cy="-117" rx="77.19" ry="18"/>
<text text-anchor="middle" x="1687" y="-113.3" font-family="Times,serif" font-size="14.00">permission_denied</text>
</g>
<!-- coin::withdraw&#45;&gt;error::permission_denied -->
<g id="edge8" class="edge">
<title>coin::withdraw&#45;&gt;error::permission_denied</title>
<path fill="none" stroke="black" d="M1300.52,-345.23C1293.81,-343.19 1286.74,-341.3 1280,-340 1267.64,-337.62 1175.58,-341.21 1167,-332 1118.54,-279.98 1135.36,-216.97 1192,-174 1210.06,-160.3 1578.1,-171.87 1600,-166 1619.46,-160.79 1639.26,-150.34 1655.05,-140.52"/>
<polygon fill="black" stroke="black" points="1656.55,-143.72 1663.06,-135.36 1652.75,-137.84 1656.55,-143.72"/>
</g>
<!-- event::emit_event -->
<g id="node10" class="node">
<title>event::emit_event</title>
<ellipse fill="none" stroke="black" cx="1119" cy="-117" rx="50.09" ry="18"/>
<text text-anchor="middle" x="1119" y="-113.3" font-family="Times,serif" font-size="14.00">emit_event</text>
</g>
<!-- coin::withdraw&#45;&gt;event::emit_event -->
<g id="edge9" class="edge">
<title>coin::withdraw&#45;&gt;event::emit_event</title>
<path fill="none" stroke="black" d="M1300.85,-345.1C1294.05,-343.03 1286.86,-341.17 1280,-340 1264.83,-337.4 1013.73,-343.04 1003,-332 954.07,-281.63 956.93,-226.99 1003,-174 1011.39,-164.35 1048.28,-171.11 1060,-166 1072.92,-160.37 1085.32,-151.09 1095.39,-142.18"/>
<polygon fill="black" stroke="black" points="1097.55,-144.95 1102.49,-135.58 1092.78,-139.83 1097.55,-144.95"/>
</g>
<!-- coin::extract -->
<g id="node11" class="node">
<title>coin::extract</title>
<ellipse fill="none" stroke="black" cx="1231" cy="-283" rx="34.39" ry="18"/>
<text text-anchor="middle" x="1231" y="-279.3" font-family="Times,serif" font-size="14.00">extract</text>
</g>
<!-- coin::withdraw&#45;&gt;coin::extract -->
<g id="edge10" class="edge">
<title>coin::withdraw&#45;&gt;coin::extract</title>
<path fill="none" stroke="black" d="M1300.11,-345.67C1291.54,-341.97 1282.6,-337.4 1275,-332 1266.03,-325.62 1257.52,-317.15 1250.41,-309.11"/>
<polygon fill="black" stroke="black" points="1253.13,-306.9 1244.02,-301.49 1247.77,-311.4 1253.13,-306.9"/>
</g>
<!-- coin::is_account_registered -->
<g id="node12" class="node">
<title>coin::is_account_registered</title>
<ellipse fill="none" stroke="black" cx="1371" cy="-283" rx="87.18" ry="18"/>
<text text-anchor="middle" x="1371" y="-279.3" font-family="Times,serif" font-size="14.00">is_account_registered</text>
</g>
<!-- coin::withdraw&#45;&gt;coin::is_account_registered -->
<g id="edge11" class="edge">
<title>coin::withdraw&#45;&gt;coin::is_account_registered</title>
<path fill="none" stroke="black" d="M1341.81,-340.07C1346.26,-331.53 1351.76,-320.97 1356.78,-311.32"/>
<polygon fill="black" stroke="black" points="1359.76,-313.18 1361.27,-302.69 1353.55,-309.94 1359.76,-313.18"/>
</g>
<!-- deposit_coins&#45;&gt;error::permission_denied -->
<g id="edge12" class="edge">
<title>deposit_coins&#45;&gt;error::permission_denied</title>
<path fill="none" stroke="black" d="M1243.03,-497.8C1299.53,-490.43 1389.49,-475.88 1464,-451 1523.17,-431.25 1570,-421.38 1570,-359 1570,-359 1570,-359 1570,-282 1570,-223.09 1620.66,-170.7 1655.31,-141.75"/>
<polygon fill="black" stroke="black" points="1657.43,-144.54 1662.99,-135.52 1653.02,-139.1 1657.43,-144.54"/>
</g>
<!-- deposit_coins&#45;&gt;coin::is_account_registered -->
<g id="edge16" class="edge">
<title>deposit_coins&#45;&gt;coin::is_account_registered</title>
<path fill="none" stroke="black" d="M1247.36,-503.41C1315.85,-499.12 1425.61,-480.37 1477,-407 1494.08,-382.61 1492.37,-365.5 1477,-340 1473.3,-333.86 1442.83,-318.08 1415.51,-304.84"/>
<polygon fill="black" stroke="black" points="1417.15,-301.74 1406.62,-300.57 1414.11,-308.05 1417.15,-301.74"/>
</g>
<!-- account::create_signer -->
<g id="node13" class="node">
<title>account::create_signer</title>
<ellipse fill="none" stroke="black" cx="423" cy="-117" rx="57.69" ry="18"/>
<text text-anchor="middle" x="423" y="-113.3" font-family="Times,serif" font-size="14.00">create_signer</text>
</g>
<!-- deposit_coins&#45;&gt;account::create_signer -->
<g id="edge13" class="edge">
<title>deposit_coins&#45;&gt;account::create_signer</title>
<path fill="none" stroke="black" d="M1129.11,-502.14C952.96,-495.88 432.84,-472.23 278,-407 222.45,-383.6 193.5,-385.12 165,-332 149.24,-302.63 149.19,-286.35 165,-257 204.89,-182.95 300.86,-146.57 363.84,-130.09"/>
<polygon fill="black" stroke="black" points="364.49,-133.54 373.34,-127.7 362.79,-126.75 364.49,-133.54"/>
</g>
<!-- account::exists_at -->
<g id="node14" class="node">
<title>account::exists_at</title>
<ellipse fill="none" stroke="black" cx="216" cy="-283" rx="41.69" ry="18"/>
<text text-anchor="middle" x="216" y="-279.3" font-family="Times,serif" font-size="14.00">exists_at</text>
</g>
<!-- deposit_coins&#45;&gt;account::exists_at -->
<g id="edge14" class="edge">
<title>deposit_coins&#45;&gt;account::exists_at</title>
<path fill="none" stroke="black" d="M1128.43,-504.41C976.03,-503.11 563.07,-484.67 266,-332 254.92,-326.31 244.63,-317.37 236.3,-308.75"/>
<polygon fill="black" stroke="black" points="239,-306.52 229.68,-301.47 233.82,-311.23 239,-306.52"/>
</g>
<!-- coin::deposit -->
<g id="node15" class="node">
<title>coin::deposit</title>
<ellipse fill="none" stroke="black" cx="1432" cy="-358" rx="36.29" ry="18"/>
<text text-anchor="middle" x="1432" y="-354.3" font-family="Times,serif" font-size="14.00">deposit</text>
</g>
<!-- deposit_coins&#45;&gt;coin::deposit -->
<g id="edge15" class="edge">
<title>deposit_coins&#45;&gt;coin::deposit</title>
<path fill="none" stroke="black" d="M1224.81,-490.51C1266.26,-474.33 1334.54,-444.61 1386,-407 1395.17,-400.3 1404.09,-391.66 1411.59,-383.56"/>
<polygon fill="black" stroke="black" points="1414.08,-386.02 1418.12,-376.23 1408.85,-381.37 1414.08,-386.02"/>
</g>
<!-- coin::register -->
<g id="node16" class="node">
<title>coin::register</title>
<ellipse fill="none" stroke="black" cx="1234" cy="-358" rx="37.09" ry="18"/>
<text text-anchor="middle" x="1234" y="-354.3" font-family="Times,serif" font-size="14.00">register</text>
</g>
<!-- deposit_coins&#45;&gt;coin::register -->
<g id="edge17" class="edge">
<title>deposit_coins&#45;&gt;coin::register</title>
<path fill="none" stroke="black" d="M1198.22,-486.85C1203.87,-476.72 1210.62,-463.47 1215,-451 1222.26,-430.3 1227.14,-405.95 1230.13,-387.5"/>
<polygon fill="black" stroke="black" points="1233.56,-388.24 1231.61,-377.82 1226.64,-387.18 1233.56,-388.24"/>
</g>
<!-- create_account -->
<g id="node17" class="node">
<title>create_account</title>
<ellipse fill="none" stroke="black" cx="1142" cy="-433" rx="63.89" ry="18"/>
<text text-anchor="middle" x="1142" y="-429.3" font-family="Times,serif" font-size="14.00">create_account</text>
</g>
<!-- deposit_coins&#45;&gt;create_account -->
<g id="edge18" class="edge">
<title>deposit_coins&#45;&gt;create_account</title>
<path fill="none" stroke="black" d="M1176.86,-487.05C1171.61,-479.06 1165.22,-469.33 1159.35,-460.4"/>
<polygon fill="black" stroke="black" points="1162.28,-458.49 1153.86,-452.05 1156.43,-462.33 1162.28,-458.49"/>
</g>
<!-- can_receive_direct_coin_transfers -->
<g id="node18" class="node">
<title>can_receive_direct_coin_transfers</title>
<ellipse fill="none" stroke="black" cx="159" cy="-433" rx="131.08" ry="18"/>
<text text-anchor="middle" x="159" y="-429.3" font-family="Times,serif" font-size="14.00">can_receive_direct_coin_transfers</text>
</g>
<!-- deposit_coins&#45;&gt;can_receive_direct_coin_transfers -->
<g id="edge19" class="edge">
<title>deposit_coins&#45;&gt;can_receive_direct_coin_transfers</title>
<path fill="none" stroke="black" d="M1129.21,-501.63C987.21,-495.66 614.32,-478.47 304,-451 291.18,-449.87 277.74,-448.51 264.43,-447.07"/>
<polygon fill="black" stroke="black" points="265.13,-443.63 254.8,-446.01 264.36,-450.58 265.13,-443.63"/>
</g>
<!-- signer::borrow_address -->
<g id="node19" class="node">
<title>signer::borrow_address</title>
<ellipse fill="none" stroke="black" cx="83" cy="-34" rx="66.89" ry="18"/>
<text text-anchor="middle" x="83" y="-30.3" font-family="Times,serif" font-size="14.00">borrow_address</text>
</g>
<!-- signer::address_of&#45;&gt;signer::borrow_address -->
<g id="edge20" class="edge">
<title>signer::address_of&#45;&gt;signer::borrow_address</title>
<path fill="none" stroke="black" d="M97.18,-98.82C94.91,-88.58 91.96,-75.33 89.34,-63.55"/>
<polygon fill="black" stroke="black" points="92.79,-62.91 87.2,-53.91 85.95,-64.43 92.79,-62.91"/>
</g>
<!-- error::not_found&#45;&gt;error::canonical -->
<g id="edge21" class="edge">
<title>error::not_found&#45;&gt;error::canonical</title>
<path fill="none" stroke="black" d="M1393.96,-99.61C1403.69,-88.19 1416.84,-72.75 1427.85,-59.83"/>
<polygon fill="black" stroke="black" points="1430.26,-62.4 1434.08,-52.52 1424.93,-57.86 1430.26,-62.4"/>
</g>
<!-- error::permission_denied&#45;&gt;error::canonical -->
<g id="edge22" class="edge">
<title>error::permission_denied&#45;&gt;error::canonical</title>
<path fill="none" stroke="black" d="M1644.72,-101.61C1601.96,-87.06 1536.16,-64.66 1492.84,-49.92"/>
<polygon fill="black" stroke="black" points="1494.1,-46.65 1483.5,-46.74 1491.84,-53.28 1494.1,-46.65"/>
</g>
<!-- bcs::to_bytes -->
<g id="node20" class="node">
<title>bcs::to_bytes</title>
<ellipse fill="none" stroke="black" cx="741" cy="-34" rx="40.09" ry="18"/>
<text text-anchor="middle" x="741" y="-30.3" font-family="Times,serif" font-size="14.00">to_bytes</text>
</g>
<!-- event::emit_event&#45;&gt;bcs::to_bytes -->
<g id="edge23" class="edge">
<title>event::emit_event&#45;&gt;bcs::to_bytes</title>
<path fill="none" stroke="black" d="M1090.87,-101.68C1081.32,-97.47 1070.41,-93.36 1060,-91 984.07,-73.76 961.55,-97.22 885,-83 848.36,-76.19 808.25,-62.26 779.69,-51.15"/>
<polygon fill="black" stroke="black" points="781.34,-48.03 770.75,-47.6 778.76,-54.54 781.34,-48.03"/>
</g>
<!-- event::write_to_event_store -->
<g id="node21" class="node">
<title>event::write_to_event_store</title>
<ellipse fill="none" stroke="black" cx="1084" cy="-34" rx="85.29" ry="18"/>
<text text-anchor="middle" x="1084" y="-30.3" font-family="Times,serif" font-size="14.00">write_to_event_store</text>
</g>
<!-- event::emit_event&#45;&gt;event::write_to_event_store -->
<g id="edge24" class="edge">
<title>event::emit_event&#45;&gt;event::write_to_event_store</title>
<path fill="none" stroke="black" d="M1111.58,-98.82C1107.03,-88.3 1101.11,-74.59 1095.91,-62.57"/>
<polygon fill="black" stroke="black" points="1099.19,-61.33 1092.01,-53.54 1092.77,-64.11 1099.19,-61.33"/>
</g>
<!-- coin::extract&#45;&gt;error::invalid_argument -->
<g id="edge25" class="edge">
<title>coin::extract&#45;&gt;error::invalid_argument</title>
<path fill="none" stroke="black" d="M1253.83,-269.01C1260.64,-265.15 1268.12,-260.9 1275,-257 1346.51,-216.48 1364.75,-206.98 1436,-166 1450.73,-157.53 1466.88,-148.1 1480.92,-139.86"/>
<polygon fill="black" stroke="black" points="1482.57,-142.95 1489.42,-134.87 1479.03,-136.92 1482.57,-142.95"/>
</g>
<!-- coin::deposit&#45;&gt;error::not_found -->
<g id="edge26" class="edge">
<title>coin::deposit&#45;&gt;error::not_found</title>
<path fill="none" stroke="black" d="M1405.17,-345.49C1398.98,-343.28 1392.35,-341.27 1386,-340 1375.2,-337.84 1195.63,-339.94 1188,-332 1164.91,-307.96 1173.91,-287.21 1188,-257 1212.28,-204.97 1235.43,-199.25 1287,-174 1302.11,-166.6 1308.93,-173.48 1324,-166 1336.12,-159.98 1347.77,-150.76 1357.28,-142"/>
<polygon fill="black" stroke="black" points="1359.52,-144.7 1364.27,-135.24 1354.65,-139.67 1359.52,-144.7"/>
</g>
<!-- coin::deposit&#45;&gt;error::permission_denied -->
<g id="edge27" class="edge">
<title>coin::deposit&#45;&gt;error::permission_denied</title>
<path fill="none" stroke="black" d="M1405.17,-345.49C1398.98,-343.28 1392.35,-341.27 1386,-340 1375.2,-337.84 1195.63,-339.94 1188,-332 1164.91,-307.96 1167.18,-283.03 1188,-257 1292.7,-126.05 1391.71,-207.45 1556,-174 1575.48,-170.03 1581.28,-172.67 1600,-166 1618.26,-159.5 1637.26,-149.45 1652.82,-140.23"/>
<polygon fill="black" stroke="black" points="1654.5,-143.31 1661.22,-135.12 1650.86,-137.33 1654.5,-143.31"/>
</g>
<!-- coin::deposit&#45;&gt;event::emit_event -->
<g id="edge28" class="edge">
<title>coin::deposit&#45;&gt;event::emit_event</title>
<path fill="none" stroke="black" d="M1405.17,-345.47C1398.98,-343.26 1392.35,-341.26 1386,-340 1374.06,-337.64 1176.36,-339.78 1167,-332 1112.31,-286.56 1111.87,-193.54 1115.63,-146.53"/>
<polygon fill="black" stroke="black" points="1119.09,-147.16 1116.53,-136.87 1112.12,-146.5 1119.09,-147.16"/>
</g>
<!-- coin::deposit&#45;&gt;coin::is_account_registered -->
<g id="edge29" class="edge">
<title>coin::deposit&#45;&gt;coin::is_account_registered</title>
<path fill="none" stroke="black" d="M1418.46,-340.8C1410.86,-331.7 1401.2,-320.14 1392.58,-309.82"/>
<polygon fill="black" stroke="black" points="1395.42,-307.76 1386.32,-302.33 1390.05,-312.25 1395.42,-307.76"/>
</g>
<!-- coin::merge -->
<g id="node22" class="node">
<title>coin::merge</title>
<ellipse fill="none" stroke="black" cx="1509" cy="-283" rx="33.29" ry="18"/>
<text text-anchor="middle" x="1509" y="-279.3" font-family="Times,serif" font-size="14.00">merge</text>
</g>
<!-- coin::deposit&#45;&gt;coin::merge -->
<g id="edge30" class="edge">
<title>coin::deposit&#45;&gt;coin::merge</title>
<path fill="none" stroke="black" d="M1453.34,-342.95C1458,-339.56 1462.79,-335.81 1467,-332 1474.79,-324.95 1482.57,-316.53 1489.28,-308.73"/>
<polygon fill="black" stroke="black" points="1491.91,-311.04 1495.64,-301.13 1486.54,-306.55 1491.91,-311.04"/>
</g>
<!-- coin::register&#45;&gt;signer::address_of -->
<g id="edge31" class="edge">
<title>coin::register&#45;&gt;signer::address_of</title>
<path fill="none" stroke="black" d="M1196.65,-356.73C1009.62,-355.32 182.89,-348.16 162,-332 104.79,-287.76 98.63,-193.79 99.45,-146.47"/>
<polygon fill="black" stroke="black" points="102.94,-146.86 99.75,-136.75 95.95,-146.64 102.94,-146.86"/>
</g>
<!-- coin::register&#45;&gt;coin::is_account_registered -->
<g id="edge34" class="edge">
<title>coin::register&#45;&gt;coin::is_account_registered</title>
<path fill="none" stroke="black" d="M1258.18,-344.12C1278.25,-333.42 1307.23,-317.98 1330.79,-305.43"/>
<polygon fill="black" stroke="black" points="1332.33,-308.57 1339.51,-300.78 1329.04,-302.4 1332.33,-308.57"/>
</g>
<!-- account::new_event_handle -->
<g id="node23" class="node">
<title>account::new_event_handle</title>
<ellipse fill="none" stroke="black" cx="352" cy="-283" rx="76.89" ry="18"/>
<text text-anchor="middle" x="352" y="-279.3" font-family="Times,serif" font-size="14.00">new_event_handle</text>
</g>
<!-- coin::register&#45;&gt;account::new_event_handle -->
<g id="edge32" class="edge">
<title>coin::register&#45;&gt;account::new_event_handle</title>
<path fill="none" stroke="black" d="M1196.89,-355.1C1127.19,-351.61 971.89,-344.13 841,-340 796.12,-338.59 480.31,-343.84 437,-332 418.09,-326.83 398.92,-316.53 383.58,-306.8"/>
<polygon fill="black" stroke="black" points="385.63,-303.96 375.36,-301.37 381.78,-309.8 385.63,-303.96"/>
</g>
<!-- account::register_coin -->
<g id="node24" class="node">
<title>account::register_coin</title>
<ellipse fill="none" stroke="black" cx="503" cy="-283" rx="56.59" ry="18"/>
<text text-anchor="middle" x="503" y="-279.3" font-family="Times,serif" font-size="14.00">register_coin</text>
</g>
<!-- coin::register&#45;&gt;account::register_coin -->
<g id="edge33" class="edge">
<title>coin::register&#45;&gt;account::register_coin</title>
<path fill="none" stroke="black" d="M1196.89,-355.22C1127.18,-351.92 971.87,-344.75 841,-340 810.67,-338.9 596.68,-341.91 568,-332 553.35,-326.94 539.24,-317.31 527.93,-307.99"/>
<polygon fill="black" stroke="black" points="530.5,-305.58 520.65,-301.68 525.91,-310.87 530.5,-305.58"/>
</g>
<!-- create_account&#45;&gt;coin::register -->
<g id="edge36" class="edge">
<title>create_account&#45;&gt;coin::register</title>
<path fill="none" stroke="black" d="M1162.42,-415.8C1175.36,-405.53 1192.26,-392.12 1206.39,-380.91"/>
<polygon fill="black" stroke="black" points="1208.36,-383.81 1214.02,-374.85 1204.01,-378.33 1208.36,-383.81"/>
</g>
<!-- account::create_account -->
<g id="node25" class="node">
<title>account::create_account</title>
<ellipse fill="none" stroke="black" cx="641" cy="-283" rx="63.89" ry="18"/>
<text text-anchor="middle" x="641" y="-279.3" font-family="Times,serif" font-size="14.00">create_account</text>
</g>
<!-- create_account&#45;&gt;account::create_account -->
<g id="edge35" class="edge">
<title>create_account&#45;&gt;account::create_account</title>
<path fill="none" stroke="black" d="M1100.71,-419.04C1042.79,-400.94 934.08,-367.25 841,-340 792.29,-325.74 736.68,-310.23 696.48,-299.16"/>
<polygon fill="black" stroke="black" points="697.6,-295.83 687.03,-296.56 695.74,-302.58 697.6,-295.83"/>
</g>
<!-- event::new_event_handle -->
<g id="node26" class="node">
<title>event::new_event_handle</title>
<ellipse fill="none" stroke="black" cx="974" cy="-117" rx="76.89" ry="18"/>
<text text-anchor="middle" x="974" y="-113.3" font-family="Times,serif" font-size="14.00">new_event_handle</text>
</g>
<!-- account::new_event_handle&#45;&gt;event::new_event_handle -->
<g id="edge37" class="edge">
<title>account::new_event_handle&#45;&gt;event::new_event_handle</title>
<path fill="none" stroke="black" d="M393.45,-267.49C407.14,-263.33 422.57,-259.29 437,-257 452.2,-254.59 701.23,-257.6 714,-249 744.21,-228.66 717.09,-194.78 747,-174 759.61,-165.24 870.22,-170.19 885,-166 904.58,-160.45 924.68,-150.08 940.81,-140.4"/>
<polygon fill="black" stroke="black" points="942.37,-143.55 949.02,-135.3 938.68,-137.6 942.37,-143.55"/>
</g>
<!-- account::create_guid -->
<g id="node27" class="node">
<title>account::create_guid</title>
<ellipse fill="none" stroke="black" cx="352" cy="-200" rx="51.99" ry="18"/>
<text text-anchor="middle" x="352" y="-196.3" font-family="Times,serif" font-size="14.00">create_guid</text>
</g>
<!-- account::new_event_handle&#45;&gt;account::create_guid -->
<g id="edge38" class="edge">
<title>account::new_event_handle&#45;&gt;account::create_guid</title>
<path fill="none" stroke="black" d="M352,-264.82C352,-254.69 352,-241.6 352,-229.92"/>
<polygon fill="black" stroke="black" points="355.5,-229.95 352,-219.95 348.5,-229.95 355.5,-229.95"/>
</g>
<!-- account::register_coin&#45;&gt;event::emit_event -->
<g id="edge40" class="edge">
<title>account::register_coin&#45;&gt;event::emit_event</title>
<path fill="none" stroke="black" d="M534.12,-267.69C544.66,-263.48 556.64,-259.37 568,-257 587.49,-252.93 730.16,-259.62 747,-249 778.95,-228.84 754.89,-193.91 787,-174 812.79,-158.01 1031.56,-176.58 1060,-166 1073.4,-161.01 1086.02,-151.66 1096.12,-142.52"/>
<polygon fill="black" stroke="black" points="1098.43,-145.16 1103.22,-135.71 1093.58,-140.11 1098.43,-145.16"/>
</g>
<!-- type_info::type_of -->
<g id="node28" class="node">
<title>type_info::type_of</title>
<ellipse fill="none" stroke="black" cx="837" cy="-200" rx="37.89" ry="18"/>
<text text-anchor="middle" x="837" y="-196.3" font-family="Times,serif" font-size="14.00">type_of</text>
</g>
<!-- account::register_coin&#45;&gt;type_info::type_of -->
<g id="edge39" class="edge">
<title>account::register_coin&#45;&gt;type_info::type_of</title>
<path fill="none" stroke="black" d="M534.11,-267.64C544.65,-263.43 556.63,-259.33 568,-257 591.64,-252.16 762.69,-258.2 785,-249 797.22,-243.96 808.36,-234.68 817.16,-225.61"/>
<polygon fill="black" stroke="black" points="819.71,-228 823.83,-218.24 814.52,-223.31 819.71,-228"/>
</g>
<!-- account::create_account&#45;&gt;error::invalid_argument -->
<g id="edge42" class="edge">
<title>account::create_account&#45;&gt;error::invalid_argument</title>
<path fill="none" stroke="black" d="M703.63,-279.08C774.06,-275.02 883.5,-266.16 921,-249 965.91,-228.45 957.13,-192.3 1003,-174 1047.69,-156.17 1389.68,-179.02 1436,-166 1454.37,-160.84 1472.88,-150.54 1487.65,-140.8"/>
<polygon fill="black" stroke="black" points="1489.26,-143.94 1495.53,-135.4 1485.3,-138.17 1489.26,-143.94"/>
</g>
<!-- error::already_exists -->
<g id="node29" class="node">
<title>error::already_exists</title>
<ellipse fill="none" stroke="black" cx="1254" cy="-117" rx="61.19" ry="18"/>
<text text-anchor="middle" x="1254" y="-113.3" font-family="Times,serif" font-size="14.00">already_exists</text>
</g>
<!-- account::create_account&#45;&gt;error::already_exists -->
<g id="edge41" class="edge">
<title>account::create_account&#45;&gt;error::already_exists</title>
<path fill="none" stroke="black" d="M704.26,-279.99C767.16,-276.86 858.29,-268.94 887,-249 918.03,-227.45 894.92,-193.94 927,-174 950.98,-159.09 1154.08,-174.52 1181,-166 1197.41,-160.81 1213.61,-150.79 1226.57,-141.24"/>
<polygon fill="black" stroke="black" points="1228.4,-144.25 1234.19,-135.37 1224.13,-138.7 1228.4,-144.25"/>
</g>
<!-- account::create_account_unchecked -->
<g id="node30" class="node">
<title>account::create_account_unchecked</title>
<ellipse fill="none" stroke="black" cx="600" cy="-200" rx="105.08" ry="18"/>
<text text-anchor="middle" x="600" y="-196.3" font-family="Times,serif" font-size="14.00">create_account_unchecked</text>
</g>
<!-- account::create_account&#45;&gt;account::create_account_unchecked -->
<g id="edge43" class="edge">
<title>account::create_account&#45;&gt;account::create_account_unchecked</title>
<path fill="none" stroke="black" d="M632.3,-264.82C626.96,-254.26 619.99,-240.49 613.89,-228.45"/>
<polygon fill="black" stroke="black" points="617.15,-227.12 609.51,-219.78 610.9,-230.29 617.15,-227.12"/>
</g>
<!-- account::create_guid&#45;&gt;signer::address_of -->
<g id="edge44" class="edge">
<title>account::create_guid&#45;&gt;signer::address_of</title>
<path fill="none" stroke="black" d="M300.41,-196.88C261.03,-193.67 206.19,-185.7 162,-166 148.86,-160.14 136.08,-150.83 125.63,-141.95"/>
<polygon fill="black" stroke="black" points="128.03,-139.41 118.24,-135.37 123.38,-144.64 128.03,-139.41"/>
</g>
<!-- guid::create -->
<g id="node31" class="node">
<title>guid::create</title>
<ellipse fill="none" stroke="black" cx="841" cy="-117" rx="31.7" ry="18"/>
<text text-anchor="middle" x="841" y="-113.3" font-family="Times,serif" font-size="14.00">create</text>
</g>
<!-- account::create_guid&#45;&gt;guid::create -->
<g id="edge45" class="edge">
<title>account::create_guid&#45;&gt;guid::create</title>
<path fill="none" stroke="black" d="M394.59,-189.27C420.8,-183.72 455.17,-177.25 486,-174 503.19,-172.19 781.27,-173.16 797,-166 807.84,-161.06 817.22,-152.06 824.49,-143.17"/>
<polygon fill="black" stroke="black" points="827.17,-145.43 830.38,-135.33 821.57,-141.22 827.17,-145.43"/>
</g>
<!-- error::already_exists&#45;&gt;error::canonical -->
<g id="edge46" class="edge">
<title>error::already_exists&#45;&gt;error::canonical</title>
<path fill="none" stroke="black" d="M1288.41,-101.71C1321.9,-87.79 1372.8,-66.65 1408.29,-51.91"/>
<polygon fill="black" stroke="black" points="1409.48,-55.21 1417.37,-48.14 1406.79,-48.74 1409.48,-55.21"/>
</g>
<!-- account::create_account_unchecked&#45;&gt;error::invalid_argument -->
<g id="edge48" class="edge">
<title>account::create_account_unchecked&#45;&gt;error::invalid_argument</title>
<path fill="none" stroke="black" d="M674.4,-186.96C708.6,-181.96 749.76,-176.71 787,-174 822.96,-171.38 1401.26,-175.65 1436,-166 1454.38,-160.89 1472.89,-150.6 1487.66,-140.85"/>
<polygon fill="black" stroke="black" points="1489.28,-143.99 1495.54,-135.44 1485.32,-138.22 1489.28,-143.99"/>
</g>
<!-- account::create_account_unchecked&#45;&gt;account::create_signer -->
<g id="edge52" class="edge">
<title>account::create_account_unchecked&#45;&gt;account::create_signer</title>
<path fill="none" stroke="black" d="M564.18,-182.61C535.45,-169.46 495.06,-150.98 464.84,-137.15"/>
<polygon fill="black" stroke="black" points="466.54,-134.08 455.99,-133.1 463.63,-140.44 466.54,-134.08"/>
</g>
<!-- account::create_account_unchecked&#45;&gt;bcs::to_bytes -->
<g id="edge49" class="edge">
<title>account::create_account_unchecked&#45;&gt;bcs::to_bytes</title>
<path fill="none" stroke="black" d="M614.82,-181.76C640.01,-152.47 691.21,-92.91 720.05,-59.37"/>
<polygon fill="black" stroke="black" points="722.36,-62.05 726.22,-52.19 717.05,-57.49 722.36,-62.05"/>
</g>
<!-- account::create_account_unchecked&#45;&gt;event::new_event_handle -->
<g id="edge51" class="edge">
<title>account::create_account_unchecked&#45;&gt;event::new_event_handle</title>
<path fill="none" stroke="black" d="M659,-184.67C678.04,-180.57 699.32,-176.53 719,-174 755.63,-169.3 849.42,-175.9 885,-166 904.61,-160.54 924.71,-150.19 940.84,-140.48"/>
<polygon fill="black" stroke="black" points="942.4,-143.63 949.04,-135.38 938.7,-137.69 942.4,-143.63"/>
</g>
<!-- account::create_account_unchecked&#45;&gt;guid::create -->
<g id="edge50" class="edge">
<title>account::create_account_unchecked&#45;&gt;guid::create</title>
<path fill="none" stroke="black" d="M660.92,-184.92C679.5,-180.97 700.02,-176.96 719,-174 736.22,-171.32 781.43,-173.82 797,-166 807.5,-160.73 816.72,-151.83 823.98,-143.11"/>
<polygon fill="black" stroke="black" points="826.54,-145.52 829.87,-135.46 821,-141.24 826.54,-145.52"/>
</g>
<!-- option::none -->
<g id="node32" class="node">
<title>option::none</title>
<ellipse fill="none" stroke="black" cx="757" cy="-117" rx="27.9" ry="18"/>
<text text-anchor="middle" x="757" y="-113.3" font-family="Times,serif" font-size="14.00">none</text>
</g>
<!-- account::create_account_unchecked&#45;&gt;option::none -->
<g id="edge47" class="edge">
<title>account::create_account_unchecked&#45;&gt;option::none</title>
<path fill="none" stroke="black" d="M671,-186.32C686.93,-181.52 703.19,-174.96 717,-166 726.12,-160.08 734.24,-151.43 740.73,-143.11"/>
<polygon fill="black" stroke="black" points="743.41,-145.37 746.45,-135.23 737.75,-141.26 743.41,-145.37"/>
</g>
</g>
</svg>
