<?xml version="1.0" encoding="UTF-8" standalone="no"?>
<!DOCTYPE svg PUBLIC "-//W3C//DTD SVG 1.1//EN"
 "http://www.w3.org/Graphics/SVG/1.1/DTD/svg11.dtd">
<!-- Generated by graphviz version 7.0.4 (20221203.1631)
 -->
<!-- Title: G Pages: 1 -->
<svg width="3324pt" height="908pt"
 viewBox="0.00 0.00 3323.79 908.00" xmlns="http://www.w3.org/2000/svg" xmlns:xlink="http://www.w3.org/1999/xlink">
<g id="graph0" class="graph" transform="scale(1 1) rotate(0) translate(4 904)">
<title>G</title>
<polygon fill="white" stroke="none" points="-4,4 -4,-904 3319.79,-904 3319.79,4 -4,4"/>
<!-- aptos_governance -->
<g id="node1" class="node">
<title>aptos_governance</title>
<ellipse fill="none" stroke="black" cx="1327" cy="-882" rx="74.19" ry="18"/>
<text text-anchor="middle" x="1327" y="-878.3" font-family="Times,serif" font-size="14.00">aptos_governance</text>
</g>
<!-- option -->
<g id="node2" class="node">
<title>option</title>
<ellipse fill="none" stroke="black" cx="633" cy="-90" rx="33.29" ry="18"/>
<text text-anchor="middle" x="633" y="-86.3" font-family="Times,serif" font-size="14.00">option</text>
</g>
<!-- aptos_governance&#45;&gt;option -->
<g id="edge1" class="edge">
<title>aptos_governance&#45;&gt;option</title>
<path fill="none" stroke="black" d="M1253.2,-879.75C990.28,-875.04 112.25,-857.21 60,-828 18.36,-804.72 0,-786.7 0,-739 0,-739 0,-739 0,-233 0,-185.3 18.96,-168.32 60,-144 149,-91.26 469.01,-89.17 588.01,-90.29"/>
<polygon fill="black" stroke="black" points="587.67,-93.79 597.7,-90.39 587.74,-86.79 587.67,-93.79"/>
</g>
<!-- string -->
<g id="node3" class="node">
<title>string</title>
<ellipse fill="none" stroke="black" cx="328" cy="-162" rx="30.59" ry="18"/>
<text text-anchor="middle" x="328" y="-158.3" font-family="Times,serif" font-size="14.00">string</text>
</g>
<!-- aptos_governance&#45;&gt;string -->
<g id="edge2" class="edge">
<title>aptos_governance&#45;&gt;string</title>
<path fill="none" stroke="black" d="M1253.08,-879.88C1014.61,-875.96 275.16,-861.22 173,-828 104.66,-805.78 38,-810.87 38,-739 38,-739 38,-739 38,-593 38,-496.4 76,-475.6 76,-379 76,-379 76,-379 76,-305 76,-209.39 215.4,-177.45 286.84,-167.36"/>
<polygon fill="black" stroke="black" points="287.15,-170.85 296.6,-166.07 286.23,-163.91 287.15,-170.85"/>
</g>
<!-- signer -->
<g id="node4" class="node">
<title>signer</title>
<ellipse fill="none" stroke="black" cx="2926" cy="-90" rx="32.49" ry="18"/>
<text text-anchor="middle" x="2926" y="-86.3" font-family="Times,serif" font-size="14.00">signer</text>
</g>
<!-- aptos_governance&#45;&gt;signer -->
<g id="edge3" class="edge">
<title>aptos_governance&#45;&gt;signer</title>
<path fill="none" stroke="black" d="M1400.98,-879.77C1647.49,-875.43 2439.65,-859.34 2693,-828 2883.66,-804.41 3116,-931.12 3116,-739 3116,-739 3116,-739 3116,-233 3116,-158.84 3021.97,-118.74 2966.21,-101.49"/>
<polygon fill="black" stroke="black" points="2967.3,-98.16 2956.72,-98.67 2965.31,-104.87 2967.3,-98.16"/>
</g>
<!-- error -->
<g id="node5" class="node">
<title>error</title>
<ellipse fill="none" stroke="black" cx="1836" cy="-90" rx="27.9" ry="18"/>
<text text-anchor="middle" x="1836" y="-86.3" font-family="Times,serif" font-size="14.00">error</text>
</g>
<!-- aptos_governance&#45;&gt;error -->
<g id="edge4" class="edge">
<title>aptos_governance&#45;&gt;error</title>
<path fill="none" stroke="black" d="M1328.78,-863.54C1334.08,-815.93 1352.02,-680.37 1394,-576 1463.97,-402.03 1505.43,-368.88 1614,-216 1637.95,-182.27 1638.84,-167.34 1673,-144 1711.08,-117.99 1762.79,-104.04 1797.68,-97.09"/>
<polygon fill="black" stroke="black" points="1798.15,-100.57 1807.33,-95.28 1796.85,-93.69 1798.15,-100.57"/>
</g>
<!-- table -->
<g id="node6" class="node">
<title>table</title>
<ellipse fill="none" stroke="black" cx="482" cy="-306" rx="27.9" ry="18"/>
<text text-anchor="middle" x="482" y="-302.3" font-family="Times,serif" font-size="14.00">table</text>
</g>
<!-- aptos_governance&#45;&gt;table -->
<g id="edge5" class="edge">
<title>aptos_governance&#45;&gt;table</title>
<path fill="none" stroke="black" d="M1253.27,-879.57C1001.32,-873.72 190,-846.55 190,-739 190,-739 190,-739 190,-521 190,-437.92 218.87,-410.3 285,-360 331.51,-324.62 399.9,-312.83 442.64,-308.92"/>
<polygon fill="black" stroke="black" points="442.78,-312.42 452.47,-308.13 442.22,-305.44 442.78,-312.42"/>
</g>
<!-- system_addresses -->
<g id="node7" class="node">
<title>system_addresses</title>
<ellipse fill="none" stroke="black" cx="2389" cy="-306" rx="73.39" ry="18"/>
<text text-anchor="middle" x="2389" y="-302.3" font-family="Times,serif" font-size="14.00">system_addresses</text>
</g>
<!-- aptos_governance&#45;&gt;system_addresses -->
<g id="edge6" class="edge">
<title>aptos_governance&#45;&gt;system_addresses</title>
<path fill="none" stroke="black" d="M1401.09,-879.85C1626.91,-876.02 2304.37,-861.93 2522,-828 2671.25,-804.73 2850,-890.05 2850,-739 2850,-739 2850,-739 2850,-449 2850,-377.88 2783.18,-386.05 2717,-360 2637.59,-328.75 2540.42,-315.91 2472.54,-310.65"/>
<polygon fill="black" stroke="black" points="2472.8,-307.16 2462.57,-309.92 2472.29,-314.14 2472.8,-307.16"/>
</g>
<!-- event -->
<g id="node8" class="node">
<title>event</title>
<ellipse fill="none" stroke="black" cx="1298" cy="-378" rx="29.8" ry="18"/>
<text text-anchor="middle" x="1298" y="-374.3" font-family="Times,serif" font-size="14.00">event</text>
</g>
<!-- aptos_governance&#45;&gt;event -->
<g id="edge7" class="edge">
<title>aptos_governance&#45;&gt;event</title>
<path fill="none" stroke="black" d="M1290.21,-865.97C1245.22,-844.85 1175,-801.84 1175,-739 1175,-739 1175,-739 1175,-665 1175,-561.05 1244.42,-451.87 1278.95,-403.99"/>
<polygon fill="black" stroke="black" points="1281.76,-406.08 1284.86,-395.95 1276.12,-401.93 1281.76,-406.08"/>
</g>
<!-- account -->
<g id="node9" class="node">
<title>account</title>
<ellipse fill="none" stroke="black" cx="1071" cy="-450" rx="38.19" ry="18"/>
<text text-anchor="middle" x="1071" y="-446.3" font-family="Times,serif" font-size="14.00">account</text>
</g>
<!-- aptos_governance&#45;&gt;account -->
<g id="edge8" class="edge">
<title>aptos_governance&#45;&gt;account</title>
<path fill="none" stroke="black" d="M1254,-878.41C1097.96,-870.89 746,-842.45 746,-739 746,-739 746,-739 746,-593 746,-532.76 935.87,-481.65 1025.36,-460.9"/>
<polygon fill="black" stroke="black" points="1026.08,-464.33 1035.05,-458.69 1024.52,-457.51 1026.08,-464.33"/>
</g>
<!-- coin -->
<g id="node10" class="node">
<title>coin</title>
<ellipse fill="none" stroke="black" cx="1572" cy="-522" rx="27" ry="18"/>
<text text-anchor="middle" x="1572" y="-518.3" font-family="Times,serif" font-size="14.00">coin</text>
</g>
<!-- aptos_governance&#45;&gt;coin -->
<g id="edge9" class="edge">
<title>aptos_governance&#45;&gt;coin</title>
<path fill="none" stroke="black" d="M1342.14,-864.25C1351.14,-854.04 1362.6,-840.57 1372,-828 1446.49,-728.41 1524.4,-602.11 1556.64,-548.7"/>
<polygon fill="black" stroke="black" points="1559.53,-550.69 1561.69,-540.32 1553.53,-547.08 1559.53,-550.69"/>
</g>
<!-- aptos_coin -->
<g id="node11" class="node">
<title>aptos_coin</title>
<ellipse fill="none" stroke="black" cx="1452" cy="-594" rx="48.99" ry="18"/>
<text text-anchor="middle" x="1452" y="-590.3" font-family="Times,serif" font-size="14.00">aptos_coin</text>
</g>
<!-- aptos_governance&#45;&gt;aptos_coin -->
<g id="edge10" class="edge">
<title>aptos_governance&#45;&gt;aptos_coin</title>
<path fill="none" stroke="black" d="M1334.44,-863.97C1355.33,-816.18 1414.61,-680.54 1440.11,-622.22"/>
<polygon fill="black" stroke="black" points="1443.19,-623.9 1443.99,-613.33 1436.78,-621.09 1443.19,-623.9"/>
</g>
<!-- timestamp -->
<g id="node12" class="node">
<title>timestamp</title>
<ellipse fill="none" stroke="black" cx="2174" cy="-450" rx="48.19" ry="18"/>
<text text-anchor="middle" x="2174" y="-446.3" font-family="Times,serif" font-size="14.00">timestamp</text>
</g>
<!-- aptos_governance&#45;&gt;timestamp -->
<g id="edge11" class="edge">
<title>aptos_governance&#45;&gt;timestamp</title>
<path fill="none" stroke="black" d="M1400.77,-879.21C1483.27,-875.42 1620.03,-863.75 1732,-828 1927.08,-765.72 2006.71,-768.32 2139,-612 2170.74,-574.5 2175.64,-514.85 2175.43,-479.65"/>
<polygon fill="black" stroke="black" points="2178.94,-479.73 2175.22,-469.81 2171.94,-479.88 2178.94,-479.73"/>
</g>
<!-- simple_map -->
<g id="node13" class="node">
<title>simple_map</title>
<ellipse fill="none" stroke="black" cx="455" cy="-162" rx="54.69" ry="18"/>
<text text-anchor="middle" x="455" y="-158.3" font-family="Times,serif" font-size="14.00">simple_map</text>
</g>
<!-- aptos_governance&#45;&gt;simple_map -->
<g id="edge12" class="edge">
<title>aptos_governance&#45;&gt;simple_map</title>
<path fill="none" stroke="black" d="M1253.24,-879.54C1030.61,-874.8 375.16,-858.41 284,-828 216.88,-805.61 152,-809.76 152,-739 152,-739 152,-739 152,-521 152,-358.19 336.84,-231.31 417.78,-183.56"/>
<polygon fill="black" stroke="black" points="419.38,-186.68 426.27,-178.63 415.86,-180.62 419.38,-186.68"/>
</g>
<!-- voting -->
<g id="node14" class="node">
<title>voting</title>
<ellipse fill="none" stroke="black" cx="670" cy="-522" rx="33.29" ry="18"/>
<text text-anchor="middle" x="670" y="-518.3" font-family="Times,serif" font-size="14.00">voting</text>
</g>
<!-- aptos_governance&#45;&gt;voting -->
<g id="edge13" class="edge">
<title>aptos_governance&#45;&gt;voting</title>
<path fill="none" stroke="black" d="M1254.36,-877.96C1105.55,-871.24 776.24,-853.66 732,-828 690.3,-803.81 670,-787.21 670,-739 670,-739 670,-739 670,-665 670,-625.74 670,-580.38 670,-551.69"/>
<polygon fill="black" stroke="black" points="673.5,-552 670,-542 666.5,-552 673.5,-552"/>
</g>
<!-- staking_config -->
<g id="node15" class="node">
<title>staking_config</title>
<ellipse fill="none" stroke="black" cx="2344" cy="-522" rx="63.09" ry="18"/>
<text text-anchor="middle" x="2344" y="-518.3" font-family="Times,serif" font-size="14.00">staking_config</text>
</g>
<!-- aptos_governance&#45;&gt;staking_config -->
<g id="edge14" class="edge">
<title>aptos_governance&#45;&gt;staking_config</title>
<path fill="none" stroke="black" d="M1401.25,-881.18C1617.99,-881.13 2247.04,-876.66 2446,-828 2520.18,-809.86 2560.84,-820.32 2602,-756 2664.91,-657.68 2485.54,-574.94 2394.04,-540.35"/>
<polygon fill="black" stroke="black" points="2395.35,-537.11 2384.76,-536.9 2392.91,-543.67 2395.35,-537.11"/>
</g>
<!-- stake -->
<g id="node16" class="node">
<title>stake</title>
<ellipse fill="none" stroke="black" cx="1855" cy="-666" rx="28.7" ry="18"/>
<text text-anchor="middle" x="1855" y="-662.3" font-family="Times,serif" font-size="14.00">stake</text>
</g>
<!-- aptos_governance&#45;&gt;stake -->
<g id="edge15" class="edge">
<title>aptos_governance&#45;&gt;stake</title>
<path fill="none" stroke="black" d="M1393.2,-873.47C1516.61,-858.07 1774.86,-819.03 1836,-756 1851.4,-740.13 1855.64,-715.01 1856.32,-695.5"/>
<polygon fill="black" stroke="black" points="1859.82,-695.73 1856.35,-685.72 1852.82,-695.71 1859.82,-695.73"/>
</g>
<!-- reconfiguration -->
<g id="node17" class="node">
<title>reconfiguration</title>
<ellipse fill="none" stroke="black" cx="2372" cy="-810" rx="64.99" ry="18"/>
<text text-anchor="middle" x="2372" y="-806.3" font-family="Times,serif" font-size="14.00">reconfiguration</text>
</g>
<!-- aptos_governance&#45;&gt;reconfiguration -->
<g id="edge16" class="edge">
<title>aptos_governance&#45;&gt;reconfiguration</title>
<path fill="none" stroke="black" d="M1399.56,-877.77C1550.67,-870.78 1910.11,-852.89 2211,-828 2240.67,-825.55 2273.34,-822.21 2301.46,-819.15"/>
<polygon fill="black" stroke="black" points="2301.74,-822.64 2311.3,-818.06 2300.97,-815.68 2301.74,-822.64"/>
</g>
<!-- governance_proposal -->
<g id="node18" class="node">
<title>governance_proposal</title>
<ellipse fill="none" stroke="black" cx="3230" cy="-810" rx="85.59" ry="18"/>
<text text-anchor="middle" x="3230" y="-806.3" font-family="Times,serif" font-size="14.00">governance_proposal</text>
</g>
<!-- aptos_governance&#45;&gt;governance_proposal -->
<g id="edge17" class="edge">
<title>aptos_governance&#45;&gt;governance_proposal</title>
<path fill="none" stroke="black" d="M1401.33,-880.19C1696.48,-876.78 2786.33,-862.1 3130,-828 3138.75,-827.13 3147.89,-825.96 3156.93,-824.63"/>
<polygon fill="black" stroke="black" points="3157.46,-828.09 3166.81,-823.1 3156.39,-821.17 3157.46,-828.09"/>
</g>
<!-- vector -->
<g id="node19" class="node">
<title>vector</title>
<ellipse fill="none" stroke="black" cx="728" cy="-18" rx="32.49" ry="18"/>
<text text-anchor="middle" x="728" y="-14.3" font-family="Times,serif" font-size="14.00">vector</text>
</g>
<!-- option&#45;&gt;vector -->
<g id="edge18" class="edge">
<title>option&#45;&gt;vector</title>
<path fill="none" stroke="black" d="M652.22,-74.83C665.96,-64.71 684.66,-50.93 700.05,-39.59"/>
<polygon fill="black" stroke="black" points="701.94,-42.55 707.91,-33.8 697.78,-36.92 701.94,-42.55"/>
</g>
<!-- string&#45;&gt;option -->
<g id="edge20" class="edge">
<title>string&#45;&gt;option</title>
<path fill="none" stroke="black" d="M355.22,-153.35C366.29,-150.32 379.22,-146.88 391,-144 460.86,-126.93 542.71,-109.55 591.07,-99.55"/>
<polygon fill="black" stroke="black" points="591.76,-102.98 600.85,-97.53 590.35,-96.12 591.76,-102.98"/>
</g>
<!-- string&#45;&gt;vector -->
<g id="edge19" class="edge">
<title>string&#45;&gt;vector</title>
<path fill="none" stroke="black" d="M350.86,-149.54C387.82,-131.33 463.3,-95.46 530,-72 583.28,-53.26 646.59,-37.38 687.03,-28.03"/>
<polygon fill="black" stroke="black" points="687.6,-31.48 696.57,-25.84 686.04,-24.66 687.6,-31.48"/>
</g>
<!-- system_addresses&#45;&gt;signer -->
<g id="edge21" class="edge">
<title>system_addresses&#45;&gt;signer</title>
<path fill="none" stroke="black" d="M2419.22,-289.15C2479.04,-258.23 2617.27,-188.94 2739,-144 2788.56,-125.7 2847.43,-109.97 2885.7,-100.5"/>
<polygon fill="black" stroke="black" points="2886.05,-104.02 2894.93,-98.24 2884.38,-97.22 2886.05,-104.02"/>
</g>
<!-- system_addresses&#45;&gt;error -->
<g id="edge22" class="edge">
<title>system_addresses&#45;&gt;error</title>
<path fill="none" stroke="black" d="M2385.21,-287.58C2376.82,-253.56 2353.2,-178.6 2302,-144 2232.8,-97.23 1975.22,-91.38 1875.65,-90.91"/>
<polygon fill="black" stroke="black" points="1875.84,-87.41 1865.83,-90.88 1875.81,-94.41 1875.84,-87.41"/>
</g>
<!-- bcs -->
<g id="node20" class="node">
<title>bcs</title>
<ellipse fill="none" stroke="black" cx="861" cy="-162" rx="27" ry="18"/>
<text text-anchor="middle" x="861" y="-158.3" font-family="Times,serif" font-size="14.00">bcs</text>
</g>
<!-- event&#45;&gt;bcs -->
<g id="edge23" class="edge">
<title>event&#45;&gt;bcs</title>
<path fill="none" stroke="black" d="M1302.85,-359.78C1307.14,-340.95 1311.03,-310.48 1299,-288 1271.78,-237.14 1244.71,-237.06 1191,-216 1090.77,-176.7 962.48,-166.53 899.45,-163.9"/>
<polygon fill="black" stroke="black" points="899.74,-160.41 889.62,-163.54 899.48,-167.41 899.74,-160.41"/>
</g>
<!-- guid -->
<g id="node21" class="node">
<title>guid</title>
<ellipse fill="none" stroke="black" cx="1263" cy="-306" rx="27" ry="18"/>
<text text-anchor="middle" x="1263" y="-302.3" font-family="Times,serif" font-size="14.00">guid</text>
</g>
<!-- event&#45;&gt;guid -->
<g id="edge24" class="edge">
<title>event&#45;&gt;guid</title>
<path fill="none" stroke="black" d="M1289.71,-360.41C1285.7,-352.39 1280.78,-342.57 1276.27,-333.54"/>
<polygon fill="black" stroke="black" points="1279.51,-332.2 1271.91,-324.82 1273.25,-335.33 1279.51,-332.2"/>
</g>
<!-- account&#45;&gt;option -->
<g id="edge26" class="edge">
<title>account&#45;&gt;option</title>
<path fill="none" stroke="black" d="M1033.25,-446.26C957.11,-440.21 788.16,-423.99 738,-396 639.68,-341.15 631.03,-184.35 631.85,-119.55"/>
<polygon fill="black" stroke="black" points="635.34,-119.81 632.07,-109.73 628.34,-119.65 635.34,-119.81"/>
</g>
<!-- account&#45;&gt;signer -->
<g id="edge27" class="edge">
<title>account&#45;&gt;signer</title>
<path fill="none" stroke="black" d="M1109.17,-447.68C1193.19,-444.78 1400.43,-437.67 1574,-432 1637.5,-429.93 2666.26,-434.23 2717,-396 2810.96,-325.21 2718.27,-230.51 2798,-144 2820.56,-119.52 2856.15,-106.01 2884.08,-98.78"/>
<polygon fill="black" stroke="black" points="2884.75,-102.21 2893.66,-96.48 2883.12,-95.41 2884.75,-102.21"/>
</g>
<!-- account&#45;&gt;error -->
<g id="edge28" class="edge">
<title>account&#45;&gt;error</title>
<path fill="none" stroke="black" d="M1082.35,-432.39C1120.08,-378.78 1247.64,-209.98 1401,-144 1471.88,-113.5 1703.57,-98.06 1796.71,-92.96"/>
<polygon fill="black" stroke="black" points="1796.82,-96.46 1806.62,-92.43 1796.45,-89.47 1796.82,-96.46"/>
</g>
<!-- account&#45;&gt;table -->
<g id="edge31" class="edge">
<title>account&#45;&gt;table</title>
<path fill="none" stroke="black" d="M1032.99,-446.66C965.11,-441.8 819,-428.26 700,-396 631.55,-377.44 555.75,-343.16 514,-322.99"/>
<polygon fill="black" stroke="black" points="515.54,-319.85 505.02,-318.61 512.47,-326.14 515.54,-319.85"/>
</g>
<!-- account&#45;&gt;system_addresses -->
<g id="edge32" class="edge">
<title>account&#45;&gt;system_addresses</title>
<path fill="none" stroke="black" d="M1109.53,-449.44C1223.72,-450.1 1569.95,-447.38 1851,-396 1905.36,-386.06 1915.96,-371.51 1970,-360 2086.22,-335.25 2223.19,-320.6 2308.08,-313.18"/>
<polygon fill="black" stroke="black" points="2308.28,-316.67 2317.94,-312.33 2307.68,-309.7 2308.28,-316.67"/>
</g>
<!-- account&#45;&gt;event -->
<g id="edge38" class="edge">
<title>account&#45;&gt;event</title>
<path fill="none" stroke="black" d="M1102.09,-439.41C1143.53,-426.63 1216.77,-404.05 1261.01,-390.41"/>
<polygon fill="black" stroke="black" points="1261.89,-393.8 1270.41,-387.51 1259.83,-387.11 1261.89,-393.8"/>
</g>
<!-- account&#45;&gt;vector -->
<g id="edge25" class="edge">
<title>account&#45;&gt;vector</title>
<path fill="none" stroke="black" d="M1034.12,-445.01C976.45,-438.06 868.66,-421.92 841,-396 739.42,-300.79 727.95,-118.3 727.51,-47.79"/>
<polygon fill="black" stroke="black" points="731.01,-47.86 727.52,-37.86 724.01,-47.85 731.01,-47.86"/>
</g>
<!-- account&#45;&gt;bcs -->
<g id="edge29" class="edge">
<title>account&#45;&gt;bcs</title>
<path fill="none" stroke="black" d="M1032.84,-448.34C989.6,-445.61 919.39,-434.93 875,-396 813.79,-342.31 826.39,-296.09 841,-216 842.6,-207.22 845.58,-198 848.76,-189.77"/>
<polygon fill="black" stroke="black" points="851.94,-191.25 852.53,-180.67 845.47,-188.57 851.94,-191.25"/>
</g>
<!-- account&#45;&gt;guid -->
<g id="edge36" class="edge">
<title>account&#45;&gt;guid</title>
<path fill="none" stroke="black" d="M1099.78,-437.99C1122.24,-428.65 1153.62,-413.93 1178,-396 1203.44,-377.29 1227.84,-350.51 1243.92,-331.22"/>
<polygon fill="black" stroke="black" points="1246.54,-333.55 1250.16,-323.6 1241.12,-329.12 1246.54,-333.55"/>
</g>
<!-- type_info -->
<g id="node22" class="node">
<title>type_info</title>
<ellipse fill="none" stroke="black" cx="1138" cy="-234" rx="44.39" ry="18"/>
<text text-anchor="middle" x="1138" y="-230.3" font-family="Times,serif" font-size="14.00">type_info</text>
</g>
<!-- account&#45;&gt;type_info -->
<g id="edge30" class="edge">
<title>account&#45;&gt;type_info</title>
<path fill="none" stroke="black" d="M1076.37,-431.85C1087.91,-394.99 1115.17,-307.92 1129.25,-262.96"/>
<polygon fill="black" stroke="black" points="1132.5,-264.27 1132.15,-253.68 1125.82,-262.17 1132.5,-264.27"/>
</g>
<!-- hash -->
<g id="node23" class="node">
<title>hash</title>
<ellipse fill="none" stroke="black" cx="1011" cy="-234" rx="27" ry="18"/>
<text text-anchor="middle" x="1011" y="-230.3" font-family="Times,serif" font-size="14.00">hash</text>
</g>
<!-- account&#45;&gt;hash -->
<g id="edge33" class="edge">
<title>account&#45;&gt;hash</title>
<path fill="none" stroke="black" d="M1066.19,-431.85C1055.85,-394.98 1031.43,-307.86 1018.83,-262.91"/>
<polygon fill="black" stroke="black" points="1022.23,-262.08 1016.16,-253.39 1015.49,-263.97 1022.23,-262.08"/>
</g>
<!-- ed25519 -->
<g id="node24" class="node">
<title>ed25519</title>
<ellipse fill="none" stroke="black" cx="911" cy="-306" rx="40.89" ry="18"/>
<text text-anchor="middle" x="911" y="-302.3" font-family="Times,serif" font-size="14.00">ed25519</text>
</g>
<!-- account&#45;&gt;ed25519 -->
<g id="edge34" class="edge">
<title>account&#45;&gt;ed25519</title>
<path fill="none" stroke="black" d="M1034.73,-443.88C985.89,-436.16 903,-419.85 885,-396 871.11,-377.6 880.9,-351.92 892.23,-332.87"/>
<polygon fill="black" stroke="black" points="895.08,-334.91 897.54,-324.6 889.19,-331.13 895.08,-334.91"/>
</g>
<!-- multi_ed25519 -->
<g id="node25" class="node">
<title>multi_ed25519</title>
<ellipse fill="none" stroke="black" cx="958" cy="-378" rx="64.19" ry="18"/>
<text text-anchor="middle" x="958" y="-374.3" font-family="Times,serif" font-size="14.00">multi_ed25519</text>
</g>
<!-- account&#45;&gt;multi_ed25519 -->
<g id="edge35" class="edge">
<title>account&#45;&gt;multi_ed25519</title>
<path fill="none" stroke="black" d="M1048.4,-435C1032.64,-425.24 1011.3,-412.02 993.31,-400.87"/>
<polygon fill="black" stroke="black" points="995.35,-398.02 985,-395.73 991.66,-403.97 995.35,-398.02"/>
</g>
<!-- from_bcs -->
<g id="node26" class="node">
<title>from_bcs</title>
<ellipse fill="none" stroke="black" cx="338" cy="-378" rx="44.39" ry="18"/>
<text text-anchor="middle" x="338" y="-374.3" font-family="Times,serif" font-size="14.00">from_bcs</text>
</g>
<!-- account&#45;&gt;from_bcs -->
<g id="edge37" class="edge">
<title>account&#45;&gt;from_bcs</title>
<path fill="none" stroke="black" d="M1033.64,-445.43C913.04,-433.92 533.72,-397.69 392.06,-384.16"/>
<polygon fill="black" stroke="black" points="392.48,-380.69 382.2,-383.22 391.82,-387.66 392.48,-380.69"/>
</g>
<!-- coin&#45;&gt;option -->
<g id="edge39" class="edge">
<title>coin&#45;&gt;option</title>
<path fill="none" stroke="black" d="M1544.84,-520.51C1412.23,-517.63 833.52,-499.25 693,-396 606.16,-332.19 618.29,-182.35 627.83,-119.52"/>
<polygon fill="black" stroke="black" points="631.28,-120.09 629.43,-109.66 624.37,-118.97 631.28,-120.09"/>
</g>
<!-- coin&#45;&gt;string -->
<g id="edge40" class="edge">
<title>coin&#45;&gt;string</title>
<path fill="none" stroke="black" d="M1544.62,-520.29C1408.58,-516.64 808.85,-498.9 732,-468 617.01,-421.76 618.37,-362.07 519,-288 464.31,-247.23 396.82,-204.78 358.47,-181.34"/>
<polygon fill="black" stroke="black" points="360.57,-178.52 350.2,-176.31 356.93,-184.5 360.57,-178.52"/>
</g>
<!-- coin&#45;&gt;signer -->
<g id="edge41" class="edge">
<title>coin&#45;&gt;signer</title>
<path fill="none" stroke="black" d="M1599.31,-519.97C1781.26,-513.1 2811.27,-473.96 2826,-468 2881.15,-445.67 2926,-438.5 2926,-379 2926,-379 2926,-379 2926,-233 2926,-193.74 2926,-148.38 2926,-119.69"/>
<polygon fill="black" stroke="black" points="2929.5,-120 2926,-110 2922.5,-120 2929.5,-120"/>
</g>
<!-- coin&#45;&gt;error -->
<g id="edge42" class="edge">
<title>coin&#45;&gt;error</title>
<path fill="none" stroke="black" d="M1599.24,-520.48C1672.8,-517.49 1870,-498.35 1870,-379 1870,-379 1870,-379 1870,-233 1870,-192.23 1856.58,-146.64 1846.6,-118.37"/>
<polygon fill="black" stroke="black" points="1849.95,-117.35 1843.24,-109.16 1843.38,-119.75 1849.95,-117.35"/>
</g>
<!-- coin&#45;&gt;system_addresses -->
<g id="edge44" class="edge">
<title>coin&#45;&gt;system_addresses</title>
<path fill="none" stroke="black" d="M1599.02,-519.38C1654.04,-515.44 1782.44,-502.98 1884,-468 1979.51,-435.1 1988.55,-393.08 2084,-360 2157.86,-334.4 2246.25,-320.78 2308.81,-313.79"/>
<polygon fill="black" stroke="black" points="2309.11,-317.28 2318.68,-312.73 2308.36,-310.32 2309.11,-317.28"/>
</g>
<!-- coin&#45;&gt;event -->
<g id="edge45" class="edge">
<title>coin&#45;&gt;event</title>
<path fill="none" stroke="black" d="M1545.55,-517.5C1508.46,-511.7 1439.86,-497.67 1389,-468 1360.49,-451.37 1334.28,-423.85 1317.38,-403.81"/>
<polygon fill="black" stroke="black" points="1320.09,-401.6 1311.04,-396.09 1314.68,-406.04 1320.09,-401.6"/>
</g>
<!-- coin&#45;&gt;account -->
<g id="edge46" class="edge">
<title>coin&#45;&gt;account</title>
<path fill="none" stroke="black" d="M1545.42,-517.29C1464.78,-506.02 1222.12,-472.11 1118.61,-457.65"/>
<polygon fill="black" stroke="black" points="1119.17,-454.2 1108.78,-456.28 1118.2,-461.13 1119.17,-454.2"/>
</g>
<!-- coin&#45;&gt;type_info -->
<g id="edge43" class="edge">
<title>coin&#45;&gt;type_info</title>
<path fill="none" stroke="black" d="M1558.45,-505.9C1521.06,-465.09 1411.7,-351.37 1299,-288 1263.97,-268.3 1220.5,-254.54 1187.56,-245.98"/>
<polygon fill="black" stroke="black" points="1188.84,-242.7 1178.29,-243.65 1187.13,-249.48 1188.84,-242.7"/>
</g>
<!-- aggregator -->
<g id="node27" class="node">
<title>aggregator</title>
<ellipse fill="none" stroke="black" cx="1698" cy="-306" rx="48.19" ry="18"/>
<text text-anchor="middle" x="1698" y="-302.3" font-family="Times,serif" font-size="14.00">aggregator</text>
</g>
<!-- coin&#45;&gt;aggregator -->
<g id="edge47" class="edge">
<title>coin&#45;&gt;aggregator</title>
<path fill="none" stroke="black" d="M1598.31,-517.23C1644.07,-510.09 1735.24,-493.01 1754,-468 1763.6,-455.2 1762.52,-445.54 1754,-432 1734.31,-400.71 1698.69,-427.29 1679,-396 1667.32,-377.44 1673.89,-352.85 1682.35,-334.22"/>
<polygon fill="black" stroke="black" points="1685.42,-335.9 1686.75,-325.39 1679.16,-332.78 1685.42,-335.9"/>
</g>
<!-- aggregator_factory -->
<g id="node28" class="node">
<title>aggregator_factory</title>
<ellipse fill="none" stroke="black" cx="1765" cy="-378" rx="77.19" ry="18"/>
<text text-anchor="middle" x="1765" y="-374.3" font-family="Times,serif" font-size="14.00">aggregator_factory</text>
</g>
<!-- coin&#45;&gt;aggregator_factory -->
<g id="edge48" class="edge">
<title>coin&#45;&gt;aggregator_factory</title>
<path fill="none" stroke="black" d="M1598.87,-518.43C1651.24,-512.81 1763.88,-497.51 1787,-468 1800.83,-450.35 1792.77,-425.16 1782.73,-406.09"/>
<polygon fill="black" stroke="black" points="1785.83,-404.46 1777.82,-397.52 1779.75,-407.94 1785.83,-404.46"/>
</g>
<!-- optional_aggregator -->
<g id="node29" class="node">
<title>optional_aggregator</title>
<ellipse fill="none" stroke="black" cx="1664" cy="-450" rx="81.49" ry="18"/>
<text text-anchor="middle" x="1664" y="-446.3" font-family="Times,serif" font-size="14.00">optional_aggregator</text>
</g>
<!-- coin&#45;&gt;optional_aggregator -->
<g id="edge49" class="edge">
<title>coin&#45;&gt;optional_aggregator</title>
<path fill="none" stroke="black" d="M1589.3,-507.83C1601.72,-498.39 1618.78,-485.41 1633.46,-474.24"/>
<polygon fill="black" stroke="black" points="1635.18,-477.32 1641.02,-468.48 1630.94,-471.75 1635.18,-477.32"/>
</g>
<!-- aptos_coin&#45;&gt;option -->
<g id="edge51" class="edge">
<title>aptos_coin&#45;&gt;option</title>
<path fill="none" stroke="black" d="M1402.79,-593.05C1161.4,-592.64 114,-583.27 114,-451 114,-451 114,-451 114,-233 114,-135.04 462.36,-102.28 588.27,-93.64"/>
<polygon fill="black" stroke="black" points="588.49,-97.13 598.23,-92.98 588.02,-90.15 588.49,-97.13"/>
</g>
<!-- aptos_coin&#45;&gt;string -->
<g id="edge52" class="edge">
<title>aptos_coin&#45;&gt;string</title>
<path fill="none" stroke="black" d="M1403.19,-591.2C1192.16,-582.96 365.18,-545.88 282,-468 200.19,-391.4 215.01,-311.9 273,-216 280.27,-203.98 290.95,-192.83 300.96,-183.89"/>
<polygon fill="black" stroke="black" points="302.99,-186.76 308.34,-177.61 298.45,-181.43 302.99,-186.76"/>
</g>
<!-- aptos_coin&#45;&gt;signer -->
<g id="edge53" class="edge">
<title>aptos_coin&#45;&gt;signer</title>
<path fill="none" stroke="black" d="M1497.71,-587.25C1621.93,-571.78 1976.26,-528.82 2272,-504 2406.43,-492.72 2755.43,-524.35 2878,-468 2927.98,-445.02 2964,-434.01 2964,-379 2964,-379 2964,-379 2964,-233 2964,-191.95 2949,-146.43 2937.85,-118.26"/>
<polygon fill="black" stroke="black" points="2941.11,-116.99 2934.08,-109.06 2934.63,-119.64 2941.11,-116.99"/>
</g>
<!-- aptos_coin&#45;&gt;error -->
<g id="edge54" class="edge">
<title>aptos_coin&#45;&gt;error</title>
<path fill="none" stroke="black" d="M1466.14,-576.41C1474.46,-566.24 1484.91,-552.78 1493,-540 1601.22,-369.19 1556.23,-266.64 1717,-144 1742.11,-124.85 1775.22,-110.82 1800.14,-102.03"/>
<polygon fill="black" stroke="black" points="1801.18,-105.37 1809.53,-98.84 1798.93,-98.74 1801.18,-105.37"/>
</g>
<!-- aptos_coin&#45;&gt;system_addresses -->
<g id="edge55" class="edge">
<title>aptos_coin&#45;&gt;system_addresses</title>
<path fill="none" stroke="black" d="M1493.82,-584.19C1578.14,-565.98 1774.11,-521.41 1934,-468 2053.46,-428.1 2076.83,-400.75 2196,-360 2239.09,-345.26 2288.65,-331.73 2326.75,-322.02"/>
<polygon fill="black" stroke="black" points="2327.38,-325.47 2336.22,-319.63 2325.67,-318.68 2327.38,-325.47"/>
</g>
<!-- aptos_coin&#45;&gt;coin -->
<g id="edge56" class="edge">
<title>aptos_coin&#45;&gt;coin</title>
<path fill="none" stroke="black" d="M1477.45,-578.15C1496.43,-567.08 1522.41,-551.93 1542.34,-540.3"/>
<polygon fill="black" stroke="black" points="1543.95,-543.41 1550.83,-535.35 1540.43,-537.37 1543.95,-543.41"/>
</g>
<!-- aptos_coin&#45;&gt;vector -->
<g id="edge50" class="edge">
<title>aptos_coin&#45;&gt;vector</title>
<path fill="none" stroke="black" d="M1452.28,-575.67C1452.41,-519.22 1446.51,-337.21 1370,-216 1342.1,-171.8 1324.26,-166.33 1277,-144 1101.16,-60.93 867.05,-31.48 771.44,-22.48"/>
<polygon fill="black" stroke="black" points="772,-19.02 761.72,-21.6 771.36,-25.99 772,-19.02"/>
</g>
<!-- timestamp&#45;&gt;error -->
<g id="edge57" class="edge">
<title>timestamp&#45;&gt;error</title>
<path fill="none" stroke="black" d="M2166.31,-431.91C2155.21,-405.62 2136,-353.45 2136,-307 2136,-307 2136,-307 2136,-233 2136,-192.55 2145.94,-172.26 2117,-144 2083.17,-110.97 1944.11,-97.75 1875.15,-93.15"/>
<polygon fill="black" stroke="black" points="1875.63,-89.67 1865.43,-92.53 1875.19,-96.66 1875.63,-89.67"/>
</g>
<!-- timestamp&#45;&gt;system_addresses -->
<g id="edge58" class="edge">
<title>timestamp&#45;&gt;system_addresses</title>
<path fill="none" stroke="black" d="M2180.8,-431.76C2189.54,-411.75 2206.55,-379.07 2231,-360 2256.29,-340.28 2289.3,-327.7 2318.6,-319.77"/>
<polygon fill="black" stroke="black" points="2319.34,-323.2 2328.16,-317.33 2317.6,-316.41 2319.34,-323.2"/>
</g>
<!-- simple_map&#45;&gt;option -->
<g id="edge60" class="edge">
<title>simple_map&#45;&gt;option</title>
<path fill="none" stroke="black" d="M488.9,-147.67C519.49,-135.64 564.39,-117.98 595.92,-105.58"/>
<polygon fill="black" stroke="black" points="597.04,-108.9 605.07,-101.99 594.48,-102.39 597.04,-108.9"/>
</g>
<!-- simple_map&#45;&gt;error -->
<g id="edge61" class="edge">
<title>simple_map&#45;&gt;error</title>
<path fill="none" stroke="black" d="M508.71,-158.28C734.07,-146.85 1600.63,-102.93 1796.5,-93"/>
<polygon fill="black" stroke="black" points="1796.58,-96.5 1806.39,-92.5 1796.23,-89.51 1796.58,-96.5"/>
</g>
<!-- simple_map&#45;&gt;vector -->
<g id="edge59" class="edge">
<title>simple_map&#45;&gt;vector</title>
<path fill="none" stroke="black" d="M476.28,-145.03C502.35,-125.97 548.33,-93.91 591,-72 623.15,-55.5 661.68,-41.03 689.68,-31.39"/>
<polygon fill="black" stroke="black" points="690.45,-34.83 698.8,-28.3 688.2,-28.2 690.45,-34.83"/>
</g>
<!-- voting&#45;&gt;option -->
<g id="edge62" class="edge">
<title>voting&#45;&gt;option</title>
<path fill="none" stroke="black" d="M652.25,-506.57C639.65,-496.14 622.46,-481.56 608,-468 591.72,-452.73 589.33,-447.21 573,-432 518.55,-381.25 476.37,-391.5 445,-324 438.26,-309.49 439.05,-302.85 445,-288 476.95,-208.24 558.3,-142.43 602.8,-110.97"/>
<polygon fill="black" stroke="black" points="604.76,-113.87 610.98,-105.29 600.77,-108.12 604.76,-113.87"/>
</g>
<!-- voting&#45;&gt;string -->
<g id="edge63" class="edge">
<title>voting&#45;&gt;string</title>
<path fill="none" stroke="black" d="M636.93,-518.68C563.54,-513.07 389.53,-497.02 339,-468 294.64,-442.52 266,-430.16 266,-379 266,-379 266,-379 266,-305 266,-260.92 291.41,-215.08 309.69,-187.81"/>
<polygon fill="black" stroke="black" points="312.37,-190.09 315.18,-179.88 306.61,-186.1 312.37,-190.09"/>
</g>
<!-- voting&#45;&gt;signer -->
<g id="edge64" class="edge">
<title>voting&#45;&gt;signer</title>
<path fill="none" stroke="black" d="M703.53,-520.27C965.56,-514.55 2675.53,-476.9 2700,-468 2759.75,-446.27 2812,-442.58 2812,-379 2812,-379 2812,-379 2812,-233 2812,-179.4 2862.01,-134.51 2895.78,-110.3"/>
<polygon fill="black" stroke="black" points="2897.36,-113.47 2903.58,-104.9 2893.37,-107.72 2897.36,-113.47"/>
</g>
<!-- voting&#45;&gt;error -->
<g id="edge65" class="edge">
<title>voting&#45;&gt;error</title>
<path fill="none" stroke="black" d="M703.37,-520.04C794.46,-516.94 1045.41,-505.17 1118,-468 1137.32,-458.11 1134.09,-445.61 1151,-432 1175.83,-412.03 1186.91,-414.29 1213,-396 1233.41,-381.69 1281.76,-342 1299,-324 1368.73,-251.21 1349.74,-194.47 1437,-144 1497.65,-108.92 1708.11,-96.28 1796.46,-92.45"/>
<polygon fill="black" stroke="black" points="1796.49,-95.95 1806.34,-92.03 1796.2,-88.95 1796.49,-95.95"/>
</g>
<!-- voting&#45;&gt;table -->
<g id="edge68" class="edge">
<title>voting&#45;&gt;table</title>
<path fill="none" stroke="black" d="M659.86,-504.61C648.21,-486.25 628.11,-455.93 608,-432 575.4,-393.22 532.71,-352.69 506.33,-328.66"/>
<polygon fill="black" stroke="black" points="508.93,-326.29 499.17,-322.18 504.23,-331.48 508.93,-326.29"/>
</g>
<!-- voting&#45;&gt;event -->
<g id="edge70" class="edge">
<title>voting&#45;&gt;event</title>
<path fill="none" stroke="black" d="M703.4,-519.61C798.49,-515.29 1069.07,-500.4 1151,-468 1175.8,-458.19 1176.51,-446.33 1199,-432 1220.22,-418.47 1245.22,-405.11 1264.78,-395.19"/>
<polygon fill="black" stroke="black" points="1266.31,-398.34 1273.68,-390.73 1263.17,-392.08 1266.31,-398.34"/>
</g>
<!-- voting&#45;&gt;account -->
<g id="edge71" class="edge">
<title>voting&#45;&gt;account</title>
<path fill="none" stroke="black" d="M698.5,-512.27C708.96,-509.31 720.94,-506.2 732,-504 858.09,-478.94 893.55,-496.1 1019,-468 1022.78,-467.15 1026.67,-466.15 1030.54,-465.05"/>
<polygon fill="black" stroke="black" points="1031.3,-468.48 1039.85,-462.23 1029.27,-461.78 1031.3,-468.48"/>
</g>
<!-- voting&#45;&gt;timestamp -->
<g id="edge73" class="edge">
<title>voting&#45;&gt;timestamp</title>
<path fill="none" stroke="black" d="M703.17,-519.46C895.16,-510.52 1864.22,-465.42 2114.79,-453.76"/>
<polygon fill="black" stroke="black" points="2114.83,-457.26 2124.66,-453.3 2114.51,-450.27 2114.83,-457.26"/>
</g>
<!-- voting&#45;&gt;simple_map -->
<g id="edge74" class="edge">
<title>voting&#45;&gt;simple_map</title>
<path fill="none" stroke="black" d="M646.79,-508.72C628.22,-498.56 601.78,-483.37 580,-468 559.64,-453.63 558.67,-444.31 537,-432 494.84,-408.05 467.6,-430.96 434,-396 380.49,-340.33 418.04,-238.84 440.91,-190.29"/>
<polygon fill="black" stroke="black" points="443.92,-192.11 445.14,-181.59 437.62,-189.05 443.92,-192.11"/>
</g>
<!-- voting&#45;&gt;bcs -->
<g id="edge66" class="edge">
<title>voting&#45;&gt;bcs</title>
<path fill="none" stroke="black" d="M664.6,-504.2C655.85,-473.99 641.53,-409.07 662,-360 696.7,-276.82 785.51,-210.8 831.86,-180.71"/>
<polygon fill="black" stroke="black" points="833.5,-183.81 840.06,-175.48 829.74,-177.9 833.5,-183.81"/>
</g>
<!-- voting&#45;&gt;type_info -->
<g id="edge67" class="edge">
<title>voting&#45;&gt;type_info</title>
<path fill="none" stroke="black" d="M698.69,-512.23C779.26,-487.44 1003.53,-417.26 1031,-396 1043.44,-386.37 1095.04,-304.5 1121.78,-261.36"/>
<polygon fill="black" stroke="black" points="1124.62,-263.43 1126.9,-253.08 1118.66,-259.75 1124.62,-263.43"/>
</g>
<!-- voting&#45;&gt;from_bcs -->
<g id="edge69" class="edge">
<title>voting&#45;&gt;from_bcs</title>
<path fill="none" stroke="black" d="M636.52,-519.73C565.05,-516.33 400.8,-504.63 361,-468 344.47,-452.79 339.16,-427.39 337.74,-407.61"/>
<polygon fill="black" stroke="black" points="341.24,-407.53 337.34,-397.68 334.24,-407.81 341.24,-407.53"/>
</g>
<!-- transaction_context -->
<g id="node30" class="node">
<title>transaction_context</title>
<ellipse fill="none" stroke="black" cx="449" cy="-450" rx="79.09" ry="18"/>
<text text-anchor="middle" x="449" y="-446.3" font-family="Times,serif" font-size="14.00">transaction_context</text>
</g>
<!-- voting&#45;&gt;transaction_context -->
<g id="edge72" class="edge">
<title>voting&#45;&gt;transaction_context</title>
<path fill="none" stroke="black" d="M642.01,-512.13C607.64,-501.25 548.52,-482.52 504.75,-468.66"/>
<polygon fill="black" stroke="black" points="506.01,-465.39 495.42,-465.7 503.89,-472.06 506.01,-465.39"/>
</g>
<!-- staking_config&#45;&gt;error -->
<g id="edge75" class="edge">
<title>staking_config&#45;&gt;error</title>
<path fill="none" stroke="black" d="M2318.18,-505.14C2270.62,-473.7 2174,-398.58 2174,-307 2174,-307 2174,-307 2174,-233 2174,-190.66 2172.68,-170.93 2140,-144 2100.15,-111.16 1947.94,-97.73 1875.18,-93.09"/>
<polygon fill="black" stroke="black" points="1875.51,-89.61 1865.32,-92.49 1875.08,-96.59 1875.51,-89.61"/>
</g>
<!-- staking_config&#45;&gt;system_addresses -->
<g id="edge76" class="edge">
<title>staking_config&#45;&gt;system_addresses</title>
<path fill="none" stroke="black" d="M2352.58,-503.75C2363.8,-480.12 2382.86,-436.07 2390,-396 2392.81,-380.25 2390.15,-376 2390,-360 2389.93,-352.06 2389.79,-343.44 2389.64,-335.51"/>
<polygon fill="black" stroke="black" points="2393.14,-335.62 2389.44,-325.7 2386.14,-335.77 2393.14,-335.62"/>
</g>
<!-- stake&#45;&gt;option -->
<g id="edge78" class="edge">
<title>stake&#45;&gt;option</title>
<path fill="none" stroke="black" d="M1826.13,-663.6C1730.19,-658.69 1426.26,-640.96 1394,-612 1283.92,-513.21 1391.71,-416.23 1318,-288 1295.45,-248.77 1285.68,-237.76 1246,-216 1053.9,-110.63 783.92,-93.7 678.07,-91.26"/>
<polygon fill="black" stroke="black" points="678.16,-87.77 668.09,-91.07 678.02,-94.76 678.16,-87.77"/>
</g>
<!-- stake&#45;&gt;signer -->
<g id="edge79" class="edge">
<title>stake&#45;&gt;signer</title>
<path fill="none" stroke="black" d="M1883.2,-661.83C1947.09,-654.49 2107.71,-635.17 2241,-612 2415.25,-581.71 3002,-555.86 3002,-379 3002,-379 3002,-379 3002,-233 3002,-186.98 2970.58,-141.43 2948.15,-114.78"/>
<polygon fill="black" stroke="black" points="2950.85,-112.56 2941.65,-107.31 2945.57,-117.15 2950.85,-112.56"/>
</g>
<!-- stake&#45;&gt;error -->
<g id="edge80" class="edge">
<title>stake&#45;&gt;error</title>
<path fill="none" stroke="black" d="M1858.56,-647.83C1870.44,-590.27 1908,-406.21 1908,-379 1908,-379 1908,-379 1908,-233 1908,-187.26 1877.91,-141.32 1856.64,-114.55"/>
<polygon fill="black" stroke="black" points="1859.56,-112.58 1850.5,-107.08 1854.15,-117.03 1859.56,-112.58"/>
</g>
<!-- stake&#45;&gt;table -->
<g id="edge82" class="edge">
<title>stake&#45;&gt;table</title>
<path fill="none" stroke="black" d="M1826.18,-663.59C1626.5,-653.55 454.12,-589.56 361,-468 351.27,-455.3 355,-446.83 361,-432 366.17,-419.22 425.48,-361.12 459.1,-328.82"/>
<polygon fill="black" stroke="black" points="461.15,-331.7 465.95,-322.25 456.31,-326.65 461.15,-331.7"/>
</g>
<!-- stake&#45;&gt;system_addresses -->
<g id="edge83" class="edge">
<title>stake&#45;&gt;system_addresses</title>
<path fill="none" stroke="black" d="M1883.8,-665.09C1937.21,-664.12 2053.92,-656.58 2139,-612 2199.41,-580.35 2320.34,-453.5 2357,-396 2368.88,-377.37 2377.11,-353.75 2382.24,-335.52"/>
<polygon fill="black" stroke="black" points="2385.62,-336.45 2384.79,-325.89 2378.85,-334.66 2385.62,-336.45"/>
</g>
<!-- stake&#45;&gt;event -->
<g id="edge84" class="edge">
<title>stake&#45;&gt;event</title>
<path fill="none" stroke="black" d="M1826.35,-663.86C1724.95,-659.59 1387.28,-643.1 1351,-612 1291.21,-560.74 1290.95,-457.37 1294.81,-407.37"/>
<polygon fill="black" stroke="black" points="1298.27,-407.93 1295.68,-397.65 1291.3,-407.3 1298.27,-407.93"/>
</g>
<!-- stake&#45;&gt;account -->
<g id="edge85" class="edge">
<title>stake&#45;&gt;account</title>
<path fill="none" stroke="black" d="M1826.14,-664.02C1728.18,-660.41 1409.08,-646.23 1313,-612 1225.09,-580.68 1137.91,-510.59 1096.27,-474.09"/>
<polygon fill="black" stroke="black" points="1098.8,-471.65 1088.99,-467.63 1094.15,-476.89 1098.8,-471.65"/>
</g>
<!-- stake&#45;&gt;coin -->
<g id="edge86" class="edge">
<title>stake&#45;&gt;coin</title>
<path fill="none" stroke="black" d="M1826.16,-664.96C1780.29,-663.52 1689.7,-654.95 1629,-612 1607.39,-596.71 1592.03,-570.38 1582.74,-550.32"/>
<polygon fill="black" stroke="black" points="1586.02,-549.08 1578.81,-541.31 1579.61,-551.88 1586.02,-549.08"/>
</g>
<!-- stake&#45;&gt;aptos_coin -->
<g id="edge87" class="edge">
<title>stake&#45;&gt;aptos_coin</title>
<path fill="none" stroke="black" d="M1827.3,-660.19C1761.35,-648.73 1594.04,-619.67 1506.81,-604.52"/>
<polygon fill="black" stroke="black" points="1507.5,-601.09 1497.05,-602.82 1506.3,-607.98 1507.5,-601.09"/>
</g>
<!-- stake&#45;&gt;timestamp -->
<g id="edge88" class="edge">
<title>stake&#45;&gt;timestamp</title>
<path fill="none" stroke="black" d="M1883.67,-662.65C1943.8,-657.18 2080.42,-641.74 2115,-612 2135.53,-594.34 2156.69,-520.44 2167.2,-479.18"/>
<polygon fill="black" stroke="black" points="2170.54,-480.25 2169.57,-469.7 2163.75,-478.56 2170.54,-480.25"/>
</g>
<!-- stake&#45;&gt;staking_config -->
<g id="edge89" class="edge">
<title>stake&#45;&gt;staking_config</title>
<path fill="none" stroke="black" d="M1883.75,-664.02C1942.92,-661.25 2081.94,-650.78 2191,-612 2236.26,-595.9 2283.3,-566.28 2313.06,-545.65"/>
<polygon fill="black" stroke="black" points="2315.07,-548.52 2321.23,-539.9 2311.04,-542.79 2315.07,-548.52"/>
</g>
<!-- stake&#45;&gt;vector -->
<g id="edge77" class="edge">
<title>stake&#45;&gt;vector</title>
<path fill="none" stroke="black" d="M1884.03,-664.06C2043.46,-658.29 2811.48,-622.72 2977,-468 3105.61,-347.77 3110.51,-173.99 2967,-72 2920.55,-38.99 1080.72,-21.99 771.8,-19.36"/>
<polygon fill="black" stroke="black" points="772.19,-15.86 762.16,-19.28 772.13,-22.86 772.19,-15.86"/>
</g>
<!-- features -->
<g id="node31" class="node">
<title>features</title>
<ellipse fill="none" stroke="black" cx="2070" cy="-162" rx="38.19" ry="18"/>
<text text-anchor="middle" x="2070" y="-158.3" font-family="Times,serif" font-size="14.00">features</text>
</g>
<!-- stake&#45;&gt;features -->
<g id="edge81" class="edge">
<title>stake&#45;&gt;features</title>
<path fill="none" stroke="black" d="M1881.34,-658.28C1906.4,-650.7 1943.76,-636.18 1968,-612 2046.83,-533.38 2060,-490.34 2060,-379 2060,-379 2060,-379 2060,-305 2060,-265.64 2063.87,-220.3 2066.79,-191.65"/>
<polygon fill="black" stroke="black" points="2070.25,-192.28 2067.82,-181.97 2063.29,-191.54 2070.25,-192.28"/>
</g>
<!-- math64 -->
<g id="node32" class="node">
<title>math64</title>
<ellipse fill="none" stroke="black" cx="1921" cy="-594" rx="37.89" ry="18"/>
<text text-anchor="middle" x="1921" y="-590.3" font-family="Times,serif" font-size="14.00">math64</text>
</g>
<!-- stake&#45;&gt;math64 -->
<g id="edge90" class="edge">
<title>stake&#45;&gt;math64</title>
<path fill="none" stroke="black" d="M1869,-650.15C1877.51,-641.12 1888.58,-629.38 1898.32,-619.05"/>
<polygon fill="black" stroke="black" points="1900.75,-621.57 1905.07,-611.9 1895.66,-616.77 1900.75,-621.57"/>
</g>
<!-- bls12381 -->
<g id="node33" class="node">
<title>bls12381</title>
<ellipse fill="none" stroke="black" cx="1489" cy="-162" rx="42.79" ry="18"/>
<text text-anchor="middle" x="1489" y="-158.3" font-family="Times,serif" font-size="14.00">bls12381</text>
</g>
<!-- stake&#45;&gt;bls12381 -->
<g id="edge91" class="edge">
<title>stake&#45;&gt;bls12381</title>
<path fill="none" stroke="black" d="M1834.54,-653.15C1776.07,-618.92 1610.12,-519.08 1574,-468 1512.05,-380.41 1495.15,-249.09 1490.62,-191.63"/>
<polygon fill="black" stroke="black" points="1494.12,-191.46 1489.92,-181.74 1487.14,-191.96 1494.12,-191.46"/>
</g>
<!-- reconfiguration&#45;&gt;signer -->
<g id="edge92" class="edge">
<title>reconfiguration&#45;&gt;signer</title>
<path fill="none" stroke="black" d="M2435.91,-806.24C2495.58,-801.6 2585.84,-789.17 2657,-756 2839.59,-670.89 2911.05,-645.13 3007,-468 3075.65,-341.28 3075.69,-262.73 2994,-144 2984.6,-130.34 2970.61,-118.58 2957.75,-109.63"/>
<polygon fill="black" stroke="black" points="2959.78,-106.77 2949.5,-104.19 2955.92,-112.62 2959.78,-106.77"/>
</g>
<!-- reconfiguration&#45;&gt;error -->
<g id="edge93" class="edge">
<title>reconfiguration&#45;&gt;error</title>
<path fill="none" stroke="black" d="M2403.89,-794.04C2444.93,-772.32 2511,-727.89 2511,-667 2511,-667 2511,-667 2511,-521 2511,-425.43 2490,-402.57 2490,-307 2490,-307 2490,-307 2490,-233 2490,-106.43 2016.29,-92.45 1875.19,-91.09"/>
<polygon fill="black" stroke="black" points="1875.64,-87.59 1865.62,-91.01 1875.59,-94.59 1875.64,-87.59"/>
</g>
<!-- reconfiguration&#45;&gt;system_addresses -->
<g id="edge95" class="edge">
<title>reconfiguration&#45;&gt;system_addresses</title>
<path fill="none" stroke="black" d="M2433.05,-803.41C2493.92,-796.43 2581.24,-782.09 2602,-756 2715.26,-613.67 2497.53,-401.26 2417.15,-330.72"/>
<polygon fill="black" stroke="black" points="2419.92,-328.49 2410.07,-324.58 2415.33,-333.78 2419.92,-328.49"/>
</g>
<!-- reconfiguration&#45;&gt;event -->
<g id="edge96" class="edge">
<title>reconfiguration&#45;&gt;event</title>
<path fill="none" stroke="black" d="M2308.03,-806.37C2161.79,-799.97 1806.67,-782.18 1690,-756 1517.42,-717.27 1440.58,-740.46 1319,-612 1266.25,-556.27 1279.92,-455.9 1290.71,-407.13"/>
<polygon fill="black" stroke="black" points="1294.05,-408.18 1292.93,-397.64 1287.24,-406.58 1294.05,-408.18"/>
</g>
<!-- reconfiguration&#45;&gt;account -->
<g id="edge97" class="edge">
<title>reconfiguration&#45;&gt;account</title>
<path fill="none" stroke="black" d="M2307.27,-807.28C2131.55,-802.28 1648.3,-786.1 1492,-756 1392.22,-736.78 1361.38,-737.51 1275,-684 1187.5,-629.79 1116.78,-526.35 1086.68,-477.63"/>
<polygon fill="black" stroke="black" points="1089.69,-475.85 1081.5,-469.12 1083.71,-479.49 1089.69,-475.85"/>
</g>
<!-- reconfiguration&#45;&gt;timestamp -->
<g id="edge99" class="edge">
<title>reconfiguration&#45;&gt;timestamp</title>
<path fill="none" stroke="black" d="M2362.45,-791.73C2330.56,-734.08 2227.59,-547.89 2188.89,-477.92"/>
<polygon fill="black" stroke="black" points="2192.09,-476.48 2184.19,-469.42 2185.96,-479.86 2192.09,-476.48"/>
</g>
<!-- reconfiguration&#45;&gt;stake -->
<g id="edge100" class="edge">
<title>reconfiguration&#45;&gt;stake</title>
<path fill="none" stroke="black" d="M2327.02,-796.65C2226.43,-769.02 1984.81,-702.65 1892.09,-677.19"/>
<polygon fill="black" stroke="black" points="1893.06,-673.83 1882.49,-674.55 1891.21,-680.58 1893.06,-673.83"/>
</g>
<!-- reconfiguration&#45;&gt;features -->
<g id="edge94" class="edge">
<title>reconfiguration&#45;&gt;features</title>
<path fill="none" stroke="black" d="M2433.04,-803.46C2499.01,-796.27 2598.43,-781.5 2626,-756 2758.58,-633.39 2824.5,-505.1 2717,-360 2643.48,-260.76 2253.89,-191.59 2117.33,-170.09"/>
<polygon fill="black" stroke="black" points="2117.97,-166.64 2107.55,-168.56 2116.89,-173.56 2117.97,-166.64"/>
</g>
<!-- chain_status -->
<g id="node34" class="node">
<title>chain_status</title>
<ellipse fill="none" stroke="black" cx="2294" cy="-378" rx="53.89" ry="18"/>
<text text-anchor="middle" x="2294" y="-374.3" font-family="Times,serif" font-size="14.00">chain_status</text>
</g>
<!-- reconfiguration&#45;&gt;chain_status -->
<g id="edge98" class="edge">
<title>reconfiguration&#45;&gt;chain_status</title>
<path fill="none" stroke="black" d="M2385.05,-792.15C2403.51,-766.59 2435,-715.82 2435,-667 2435,-667 2435,-667 2435,-521 2435,-463.71 2376.49,-421.31 2334.86,-398.38"/>
<polygon fill="black" stroke="black" points="2336.75,-395.43 2326.28,-393.82 2333.47,-401.61 2336.75,-395.43"/>
</g>
<!-- transaction_fee -->
<g id="node35" class="node">
<title>transaction_fee</title>
<ellipse fill="none" stroke="black" cx="1763" cy="-738" rx="64.19" ry="18"/>
<text text-anchor="middle" x="1763" y="-734.3" font-family="Times,serif" font-size="14.00">transaction_fee</text>
</g>
<!-- reconfiguration&#45;&gt;transaction_fee -->
<g id="edge101" class="edge">
<title>reconfiguration&#45;&gt;transaction_fee</title>
<path fill="none" stroke="black" d="M2312.78,-802.19C2199.7,-789.2 1953.59,-760.91 1832.76,-747.02"/>
<polygon fill="black" stroke="black" points="1833.3,-743.56 1822.97,-745.89 1832.51,-750.51 1833.3,-743.56"/>
</g>
<!-- storage_gas -->
<g id="node36" class="node">
<title>storage_gas</title>
<ellipse fill="none" stroke="black" cx="2639" cy="-450" rx="51.99" ry="18"/>
<text text-anchor="middle" x="2639" y="-446.3" font-family="Times,serif" font-size="14.00">storage_gas</text>
</g>
<!-- reconfiguration&#45;&gt;storage_gas -->
<g id="edge102" class="edge">
<title>reconfiguration&#45;&gt;storage_gas</title>
<path fill="none" stroke="black" d="M2431,-801.98C2505.76,-789.43 2625,-755.52 2625,-667 2625,-667 2625,-667 2625,-593 2625,-553.55 2630.42,-508.23 2634.51,-479.61"/>
<polygon fill="black" stroke="black" points="2637.94,-480.34 2635.95,-469.93 2631.02,-479.31 2637.94,-480.34"/>
</g>
<!-- type_info&#45;&gt;string -->
<g id="edge103" class="edge">
<title>type_info&#45;&gt;string</title>
<path fill="none" stroke="black" d="M1099.65,-224.69C1083.47,-221.49 1064.39,-218.09 1047,-216 757.1,-181.12 679.3,-226.29 391,-180 382.62,-178.65 373.74,-176.64 365.39,-174.46"/>
<polygon fill="black" stroke="black" points="366.43,-171.12 355.86,-171.84 364.58,-177.87 366.43,-171.12"/>
</g>
<!-- type_info&#45;&gt;error -->
<g id="edge104" class="edge">
<title>type_info&#45;&gt;error</title>
<path fill="none" stroke="black" d="M1165.28,-219.46C1206.84,-199.46 1289.02,-162.43 1363,-144 1520.43,-104.78 1714.61,-94.55 1796.56,-91.9"/>
<polygon fill="black" stroke="black" points="1796.42,-95.41 1806.31,-91.61 1796.21,-88.41 1796.42,-95.41"/>
</g>
<!-- type_info&#45;&gt;bcs -->
<g id="edge106" class="edge">
<title>type_info&#45;&gt;bcs</title>
<path fill="none" stroke="black" d="M1100.93,-223.63C1047.5,-210.13 949.5,-185.36 896.79,-172.05"/>
<polygon fill="black" stroke="black" points="897.98,-168.73 887.43,-169.68 896.26,-175.52 897.98,-168.73"/>
</g>
<!-- type_info&#45;&gt;features -->
<g id="edge105" class="edge">
<title>type_info&#45;&gt;features</title>
<path fill="none" stroke="black" d="M1181.39,-229.74C1335.89,-218.14 1858.62,-178.88 2021.28,-166.66"/>
<polygon fill="black" stroke="black" points="2021.14,-170.18 2030.85,-165.94 2020.61,-163.2 2021.14,-170.18"/>
</g>
<!-- ed25519&#45;&gt;option -->
<g id="edge107" class="edge">
<title>ed25519&#45;&gt;option</title>
<path fill="none" stroke="black" d="M915.49,-287.63C922.78,-255.01 933.01,-184.26 897,-144 868.35,-111.97 744.67,-98.61 677.25,-93.62"/>
<polygon fill="black" stroke="black" points="677.87,-90.16 667.65,-92.95 677.38,-97.14 677.87,-90.16"/>
</g>
<!-- ed25519&#45;&gt;error -->
<g id="edge108" class="edge">
<title>ed25519&#45;&gt;error</title>
<path fill="none" stroke="black" d="M919.32,-287.93C937.56,-252.78 984.86,-173.15 1052,-144 1120.61,-114.21 1647.05,-96.56 1796.53,-92.12"/>
<polygon fill="black" stroke="black" points="1796.43,-95.62 1806.32,-91.83 1796.22,-88.63 1796.43,-95.62"/>
</g>
<!-- ed25519&#45;&gt;bcs -->
<g id="edge109" class="edge">
<title>ed25519&#45;&gt;bcs</title>
<path fill="none" stroke="black" d="M904.97,-287.87C896.44,-263.65 880.76,-219.12 870.62,-190.31"/>
<polygon fill="black" stroke="black" points="874.02,-189.45 867.4,-181.18 867.42,-191.77 874.02,-189.45"/>
</g>
<!-- ed25519&#45;&gt;type_info -->
<g id="edge110" class="edge">
<title>ed25519&#45;&gt;type_info</title>
<path fill="none" stroke="black" d="M943.52,-294.97C982.54,-282.94 1048.21,-262.69 1092.31,-249.09"/>
<polygon fill="black" stroke="black" points="1093.33,-252.44 1101.86,-246.15 1091.27,-245.75 1093.33,-252.44"/>
</g>
<!-- ed25519&#45;&gt;hash -->
<g id="edge111" class="edge">
<title>ed25519&#45;&gt;hash</title>
<path fill="none" stroke="black" d="M932.21,-290.15C947.26,-279.62 967.58,-265.39 983.82,-254.02"/>
<polygon fill="black" stroke="black" points="985.41,-257.18 991.6,-248.58 981.4,-251.45 985.41,-257.18"/>
</g>
<!-- multi_ed25519&#45;&gt;option -->
<g id="edge112" class="edge">
<title>multi_ed25519&#45;&gt;option</title>
<path fill="none" stroke="black" d="M915.43,-364.09C892.54,-355.53 864.99,-342.43 845,-324 777.23,-261.52 809.33,-206.95 742,-144 722.19,-125.47 694.69,-112.17 672.27,-103.52"/>
<polygon fill="black" stroke="black" points="673.74,-100.33 663.15,-100.17 671.33,-106.9 673.74,-100.33"/>
</g>
<!-- multi_ed25519&#45;&gt;error -->
<g id="edge113" class="edge">
<title>multi_ed25519&#45;&gt;error</title>
<path fill="none" stroke="black" d="M971.15,-360.11C1002.89,-319.36 1081.4,-218.76 1085,-216 1149.48,-166.59 1174.25,-163.92 1253,-144 1452.61,-93.51 1701.39,-89.74 1796.52,-90.36"/>
<polygon fill="black" stroke="black" points="1796.32,-93.86 1806.35,-90.45 1796.38,-86.86 1796.32,-93.86"/>
</g>
<!-- multi_ed25519&#45;&gt;bcs -->
<g id="edge115" class="edge">
<title>multi_ed25519&#45;&gt;bcs</title>
<path fill="none" stroke="black" d="M914.15,-364.48C894.25,-356.37 872.6,-343.56 861,-324 836.64,-282.93 844.79,-224.96 852.91,-190.95"/>
<polygon fill="black" stroke="black" points="856.26,-192.01 855.36,-181.45 849.48,-190.27 856.26,-192.01"/>
</g>
<!-- multi_ed25519&#45;&gt;hash -->
<g id="edge116" class="edge">
<title>multi_ed25519&#45;&gt;hash</title>
<path fill="none" stroke="black" d="M964.39,-359.87C973.43,-335.65 990.05,-291.12 1000.81,-262.31"/>
<polygon fill="black" stroke="black" points="1004,-263.76 1004.22,-253.17 997.44,-261.31 1004,-263.76"/>
</g>
<!-- multi_ed25519&#45;&gt;ed25519 -->
<g id="edge117" class="edge">
<title>multi_ed25519&#45;&gt;ed25519</title>
<path fill="none" stroke="black" d="M946.62,-360.05C941.2,-351.97 934.58,-342.12 928.53,-333.11"/>
<polygon fill="black" stroke="black" points="931.6,-331.4 923.12,-325.05 925.78,-335.3 931.6,-331.4"/>
</g>
<!-- multi_ed25519&#45;&gt;features -->
<g id="edge114" class="edge">
<title>multi_ed25519&#45;&gt;features</title>
<path fill="none" stroke="black" d="M994.41,-362.72C1045.58,-343.17 1142.05,-308.19 1227,-288 1524.62,-217.26 1891.39,-179.25 2021.47,-167.24"/>
<polygon fill="black" stroke="black" points="2021.44,-170.76 2031.08,-166.36 2020.8,-163.79 2021.44,-170.76"/>
</g>
<!-- from_bcs&#45;&gt;string -->
<g id="edge118" class="edge">
<title>from_bcs&#45;&gt;string</title>
<path fill="none" stroke="black" d="M337.2,-359.85C335.48,-323.14 331.44,-236.66 329.33,-191.53"/>
<polygon fill="black" stroke="black" points="332.84,-191.57 328.88,-181.74 325.85,-191.9 332.84,-191.57"/>
</g>
<!-- aggregator_factory&#45;&gt;error -->
<g id="edge119" class="edge">
<title>aggregator_factory&#45;&gt;error</title>
<path fill="none" stroke="black" d="M1769.33,-359.54C1781.22,-311.66 1814.41,-177.95 1828.99,-119.24"/>
<polygon fill="black" stroke="black" points="1832.35,-120.25 1831.36,-109.7 1825.55,-118.56 1832.35,-120.25"/>
</g>
<!-- aggregator_factory&#45;&gt;table -->
<g id="edge120" class="edge">
<title>aggregator_factory&#45;&gt;table</title>
<path fill="none" stroke="black" d="M1690.47,-372.93C1450.26,-359.83 701.48,-318.97 521.29,-309.14"/>
<polygon fill="black" stroke="black" points="521.71,-305.66 511.53,-308.61 521.32,-312.65 521.71,-305.66"/>
</g>
<!-- aggregator_factory&#45;&gt;system_addresses -->
<g id="edge121" class="edge">
<title>aggregator_factory&#45;&gt;system_addresses</title>
<path fill="none" stroke="black" d="M1833.56,-369.31C1950.84,-356.15 2189.17,-329.42 2311.99,-315.64"/>
<polygon fill="black" stroke="black" points="2312.1,-319.15 2321.65,-314.56 2311.32,-312.19 2312.1,-319.15"/>
</g>
<!-- aggregator_factory&#45;&gt;aggregator -->
<g id="edge122" class="edge">
<title>aggregator_factory&#45;&gt;aggregator</title>
<path fill="none" stroke="black" d="M1748.78,-360.05C1740.6,-351.5 1730.52,-340.97 1721.5,-331.56"/>
<polygon fill="black" stroke="black" points="1724.1,-329.2 1714.65,-324.4 1719.04,-334.04 1724.1,-329.2"/>
</g>
<!-- optional_aggregator&#45;&gt;option -->
<g id="edge123" class="edge">
<title>optional_aggregator&#45;&gt;option</title>
<path fill="none" stroke="black" d="M1583.66,-446.69C1397.46,-440.9 947.49,-424.15 885,-396 758.57,-339.05 674.83,-182.25 645.07,-118.5"/>
<polygon fill="black" stroke="black" points="648.27,-117.07 640.93,-109.44 641.91,-119.99 648.27,-117.07"/>
</g>
<!-- optional_aggregator&#45;&gt;error -->
<g id="edge124" class="edge">
<title>optional_aggregator&#45;&gt;error</title>
<path fill="none" stroke="black" d="M1652.81,-432.14C1646.84,-422.1 1640.09,-408.85 1637,-396 1632.15,-375.79 1637.5,-295.88 1641,-288 1676.95,-207.04 1762.02,-140.65 1806.99,-109.74"/>
<polygon fill="black" stroke="black" points="1808.88,-112.69 1815.21,-104.19 1804.96,-106.88 1808.88,-112.69"/>
</g>
<!-- optional_aggregator&#45;&gt;aggregator -->
<g id="edge125" class="edge">
<title>optional_aggregator&#45;&gt;aggregator</title>
<path fill="none" stroke="black" d="M1654.75,-431.71C1646.24,-413.36 1636.28,-383.79 1646,-360 1650.66,-348.61 1659.07,-338.34 1667.8,-329.94"/>
<polygon fill="black" stroke="black" points="1669.89,-332.77 1675.01,-323.5 1665.22,-327.55 1669.89,-332.77"/>
</g>
<!-- optional_aggregator&#45;&gt;aggregator_factory -->
<g id="edge126" class="edge">
<title>optional_aggregator&#45;&gt;aggregator_factory</title>
<path fill="none" stroke="black" d="M1687.94,-432.41C1701.14,-423.26 1717.74,-411.76 1732.14,-401.77"/>
<polygon fill="black" stroke="black" points="1733.77,-404.91 1739.99,-396.33 1729.78,-399.15 1733.77,-404.91"/>
</g>
<!-- features&#45;&gt;signer -->
<g id="edge127" class="edge">
<title>features&#45;&gt;signer</title>
<path fill="none" stroke="black" d="M2107.61,-157.92C2246.94,-146.53 2733.36,-106.75 2882.31,-94.57"/>
<polygon fill="black" stroke="black" points="2882.47,-98.07 2892.15,-93.77 2881.9,-91.09 2882.47,-98.07"/>
</g>
<!-- features&#45;&gt;error -->
<g id="edge128" class="edge">
<title>features&#45;&gt;error</title>
<path fill="none" stroke="black" d="M2039.53,-150.86C2032.48,-148.56 2024.99,-146.16 2018,-144 1967.56,-128.42 1908.88,-111.55 1872.08,-101.13"/>
<polygon fill="black" stroke="black" points="1873.43,-97.88 1862.86,-98.53 1871.53,-104.61 1873.43,-97.88"/>
</g>
<!-- bls12381&#45;&gt;option -->
<g id="edge129" class="edge">
<title>bls12381&#45;&gt;option</title>
<path fill="none" stroke="black" d="M1447.13,-157.58C1302.52,-145.75 824.82,-106.69 676.99,-94.6"/>
<polygon fill="black" stroke="black" points="677.48,-91.13 667.23,-93.8 676.91,-98.1 677.48,-91.13"/>
</g>
<!-- bls12381&#45;&gt;error -->
<g id="edge130" class="edge">
<title>bls12381&#45;&gt;error</title>
<path fill="none" stroke="black" d="M1523.63,-150.95C1532.51,-148.53 1542.08,-146.05 1551,-144 1638.74,-123.85 1743.01,-105.98 1797.87,-97.05"/>
<polygon fill="black" stroke="black" points="1798.32,-100.52 1807.63,-95.47 1797.2,-93.61 1798.32,-100.52"/>
</g>
<!-- chain_status&#45;&gt;error -->
<g id="edge131" class="edge">
<title>chain_status&#45;&gt;error</title>
<path fill="none" stroke="black" d="M2291.76,-359.8C2285.06,-315.85 2260.89,-199.02 2188,-144 2139.39,-107.31 1956.98,-95.7 1875.61,-92.3"/>
<polygon fill="black" stroke="black" points="1875.78,-88.8 1865.65,-91.91 1875.51,-95.8 1875.78,-88.8"/>
</g>
<!-- chain_status&#45;&gt;system_addresses -->
<g id="edge132" class="edge">
<title>chain_status&#45;&gt;system_addresses</title>
<path fill="none" stroke="black" d="M2315.56,-361.12C2327.92,-352 2343.67,-340.4 2357.41,-330.28"/>
<polygon fill="black" stroke="black" points="2359.34,-333.2 2365.32,-324.45 2355.19,-327.56 2359.34,-333.2"/>
</g>
<!-- transaction_fee&#45;&gt;option -->
<g id="edge133" class="edge">
<title>transaction_fee&#45;&gt;option</title>
<path fill="none" stroke="black" d="M1698.53,-737.64C1385.37,-739.05 38,-725 38,-379 38,-379 38,-379 38,-233 38,-167.67 94.33,-168.26 155,-144 233.29,-112.7 485.56,-97.8 588.57,-92.9"/>
<polygon fill="black" stroke="black" points="588.46,-96.41 598.28,-92.45 588.13,-89.42 588.46,-96.41"/>
</g>
<!-- transaction_fee&#45;&gt;error -->
<g id="edge134" class="edge">
<title>transaction_fee&#45;&gt;error</title>
<path fill="none" stroke="black" d="M1810.21,-725.4C1861.78,-709.72 1940.71,-676.04 1968,-612 1981.32,-580.76 2024.55,-708.14 1922,-216 1915.2,-183.37 1919.41,-171.79 1901,-144 1891.83,-130.17 1877.95,-118.15 1865.36,-109.07"/>
<polygon fill="black" stroke="black" points="1867.57,-106.34 1857.34,-103.57 1863.61,-112.11 1867.57,-106.34"/>
</g>
<!-- transaction_fee&#45;&gt;system_addresses -->
<g id="edge135" class="edge">
<title>transaction_fee&#45;&gt;system_addresses</title>
<path fill="none" stroke="black" d="M1819.43,-729.11C1965.26,-707.38 2347.99,-641.52 2416,-540 2458.49,-476.57 2424.27,-381.09 2402.9,-334.52"/>
<polygon fill="black" stroke="black" points="2406.15,-333.2 2398.71,-325.67 2399.83,-336.2 2406.15,-333.2"/>
</g>
<!-- transaction_fee&#45;&gt;coin -->
<g id="edge136" class="edge">
<title>transaction_fee&#45;&gt;coin</title>
<path fill="none" stroke="black" d="M1730.37,-722.2C1691.19,-702.69 1626.48,-664.59 1592,-612 1580.25,-594.07 1575.33,-570.22 1573.31,-551.73"/>
<polygon fill="black" stroke="black" points="1576.81,-551.64 1572.48,-541.97 1569.84,-552.23 1576.81,-551.64"/>
</g>
<!-- transaction_fee&#45;&gt;aptos_coin -->
<g id="edge137" class="edge">
<title>transaction_fee&#45;&gt;aptos_coin</title>
<path fill="none" stroke="black" d="M1705.09,-729.93C1661.36,-722.85 1600.91,-709.23 1553,-684 1522.02,-667.68 1492.71,-639.98 1473.72,-619.81"/>
<polygon fill="black" stroke="black" points="1476.37,-617.52 1467.02,-612.52 1471.21,-622.25 1476.37,-617.52"/>
</g>
<!-- transaction_fee&#45;&gt;stake -->
<g id="edge138" class="edge">
<title>transaction_fee&#45;&gt;stake</title>
<path fill="none" stroke="black" d="M1784.34,-720.76C1797.36,-710.85 1814.13,-698.09 1828.07,-687.49"/>
<polygon fill="black" stroke="black" points="1830.14,-690.32 1835.98,-681.48 1825.9,-684.75 1830.14,-690.32"/>
</g>
<!-- storage_gas&#45;&gt;error -->
<g id="edge139" class="edge">
<title>storage_gas&#45;&gt;error</title>
<path fill="none" stroke="black" d="M2671.85,-435.78C2688.6,-427.15 2707.42,-414.09 2717,-396 2724.49,-381.86 2722.26,-375.11 2717,-360 2676.03,-242.24 2649.95,-198.89 2538,-144 2478.42,-114.78 2014.73,-97 1875.44,-92.27"/>
<polygon fill="black" stroke="black" points="1875.73,-88.78 1865.62,-91.94 1875.49,-95.78 1875.73,-88.78"/>
</g>
<!-- storage_gas&#45;&gt;system_addresses -->
<g id="edge140" class="edge">
<title>storage_gas&#45;&gt;system_addresses</title>
<path fill="none" stroke="black" d="M2622.03,-432.72C2596.69,-408.53 2550.98,-365.36 2542,-360 2514.07,-343.33 2480.12,-330.9 2451.31,-322.29"/>
<polygon fill="black" stroke="black" points="2452.58,-319.01 2442,-319.59 2450.63,-325.73 2452.58,-319.01"/>
</g>
<!-- state_storage -->
<g id="node37" class="node">
<title>state_storage</title>
<ellipse fill="none" stroke="black" cx="2651" cy="-378" rx="56.59" ry="18"/>
<text text-anchor="middle" x="2651" y="-374.3" font-family="Times,serif" font-size="14.00">state_storage</text>
</g>
<!-- storage_gas&#45;&gt;state_storage -->
<g id="edge141" class="edge">
<title>storage_gas&#45;&gt;state_storage</title>
<path fill="none" stroke="black" d="M2641.97,-431.7C2643.23,-424.32 2644.74,-415.52 2646.16,-407.25"/>
<polygon fill="black" stroke="black" points="2649.57,-408.04 2647.81,-397.6 2642.67,-406.86 2649.57,-408.04"/>
</g>
<!-- state_storage&#45;&gt;error -->
<g id="edge142" class="edge">
<title>state_storage&#45;&gt;error</title>
<path fill="none" stroke="black" d="M2646.02,-359.64C2632.13,-314.78 2588.33,-194.96 2504,-144 2450.18,-111.48 2010.73,-96.08 1875.47,-92.09"/>
<polygon fill="black" stroke="black" points="1875.68,-88.59 1865.59,-91.8 1875.48,-95.59 1875.68,-88.59"/>
</g>
<!-- state_storage&#45;&gt;system_addresses -->
<g id="edge143" class="edge">
<title>state_storage&#45;&gt;system_addresses</title>
<path fill="none" stroke="black" d="M2608.61,-365.68C2565.08,-354.04 2496.97,-335.85 2448.14,-322.8"/>
<polygon fill="black" stroke="black" points="2449.13,-319.44 2438.57,-320.24 2447.32,-326.21 2449.13,-319.44"/>
</g>
</g>
</svg>
