<?xml version="1.0" encoding="UTF-8" standalone="no"?>
<!DOCTYPE svg PUBLIC "-//W3C//DTD SVG 1.1//EN"
 "http://www.w3.org/Graphics/SVG/1.1/DTD/svg11.dtd">
<!-- Generated by graphviz version 7.0.4 (20221203.1631)
 -->
<!-- Title: G Pages: 1 -->
<svg width="271pt" height="260pt"
 viewBox="0.00 0.00 270.58 260.00" xmlns="http://www.w3.org/2000/svg" xmlns:xlink="http://www.w3.org/1999/xlink">
<g id="graph0" class="graph" transform="scale(1 1) rotate(0) translate(4 256)">
<title>G</title>
<polygon fill="white" stroke="none" points="-4,4 -4,-256 266.58,-256 266.58,4 -4,4"/>
<!-- can_receive_direct_coin_transfers -->
<g id="node1" class="node">
<title>can_receive_direct_coin_transfers</title>
<ellipse fill="none" stroke="black" cx="131.29" cy="-18" rx="131.08" ry="18"/>
<text text-anchor="middle" x="131.29" y="-14.3" font-family="Times,serif" font-size="14.00">can_receive_direct_coin_transfers</text>
</g>
<!-- deposit_coins -->
<g id="node2" class="node">
<title>deposit_coins</title>
<ellipse fill="none" stroke="black" cx="131.29" cy="-90" rx="59.29" ry="18"/>
<text text-anchor="middle" x="131.29" y="-86.3" font-family="Times,serif" font-size="14.00">deposit_coins</text>
</g>
<!-- deposit_coins&#45;&gt;can_receive_direct_coin_transfers -->
<g id="edge1" class="edge">
<title>deposit_coins&#45;&gt;can_receive_direct_coin_transfers</title>
<path fill="none" stroke="black" d="M131.29,-71.7C131.29,-64.41 131.29,-55.73 131.29,-47.54"/>
<polygon fill="black" stroke="black" points="134.79,-47.62 131.29,-37.62 127.79,-47.62 134.79,-47.62"/>
</g>
<!-- transfer_coins -->
<g id="node3" class="node">
<title>transfer_coins</title>
<ellipse fill="none" stroke="black" cx="131.29" cy="-162" rx="60.39" ry="18"/>
<text text-anchor="middle" x="131.29" y="-158.3" font-family="Times,serif" font-size="14.00">transfer_coins</text>
</g>
<!-- transfer_coins&#45;&gt;deposit_coins -->
<g id="edge2" class="edge">
<title>transfer_coins&#45;&gt;deposit_coins</title>
<path fill="none" stroke="black" d="M131.29,-143.7C131.29,-136.41 131.29,-127.73 131.29,-119.54"/>
<polygon fill="black" stroke="black" points="134.79,-119.62 131.29,-109.62 127.79,-119.62 134.79,-119.62"/>
</g>
<!-- batch_transfer_coins -->
<g id="node4" class="node">
<title>batch_transfer_coins</title>
<ellipse fill="none" stroke="black" cx="131.29" cy="-234" rx="83.69" ry="18"/>
<text text-anchor="middle" x="131.29" y="-230.3" font-family="Times,serif" font-size="14.00">batch_transfer_coins</text>
</g>
<!-- batch_transfer_coins&#45;&gt;transfer_coins -->
<g id="edge3" class="edge">
<title>batch_transfer_coins&#45;&gt;transfer_coins</title>
<path fill="none" stroke="black" d="M131.29,-215.7C131.29,-208.41 131.29,-199.73 131.29,-191.54"/>
<polygon fill="black" stroke="black" points="134.79,-191.62 131.29,-181.62 127.79,-191.62 134.79,-191.62"/>
</g>
</g>
</svg>
