<?xml version="1.0" encoding="UTF-8" standalone="no"?>
<!DOCTYPE svg PUBLIC "-//W3C//DTD SVG 1.1//EN"
 "http://www.w3.org/Graphics/SVG/1.1/DTD/svg11.dtd">
<!-- Generated by graphviz version 7.0.4 (20221203.1631)
 -->
<!-- Title: G Pages: 1 -->
<svg width="1820pt" height="531pt"
 viewBox="0.00 0.00 1820.00 531.00" xmlns="http://www.w3.org/2000/svg" xmlns:xlink="http://www.w3.org/1999/xlink">
<g id="graph0" class="graph" transform="scale(1 1) rotate(0) translate(4 527)">
<title>G</title>
<polygon fill="white" stroke="none" points="-4,4 -4,-527 1816,-527 1816,4 -4,4"/>
<g id="clust1" class="cluster">
<title>cluster_error</title>
<polygon fill="none" stroke="black" points="1059,-8 1059,-166 1646,-166 1646,-8 1059,-8"/>
<text text-anchor="middle" x="1352.5" y="-150.8" font-family="Times,serif" font-size="14.00">error</text>
</g>
<g id="clust2" class="cluster">
<title>cluster_account</title>
<polygon fill="none" stroke="black" points="304,-91 304,-332 851,-332 851,-91 304,-91"/>
<text text-anchor="middle" x="577.5" y="-316.8" font-family="Times,serif" font-size="14.00">account</text>
</g>
<g id="clust3" class="cluster">
<title>cluster_coin</title>
<polygon fill="none" stroke="black" points="1081,-257 1081,-407 1355,-407 1355,-257 1081,-257"/>
<text text-anchor="middle" x="1218" y="-391.8" font-family="Times,serif" font-size="14.00">coin</text>
</g>
<g id="clust4" class="cluster">
<title>cluster_event</title>
<polygon fill="none" stroke="black" points="8,-8 8,-166 296,-166 296,-8 8,-8"/>
<text text-anchor="middle" x="152" y="-150.8" font-family="Times,serif" font-size="14.00">event</text>
</g>
<g id="clust5" class="cluster">
<title>cluster_signer</title>
<polygon fill="none" stroke="black" points="1654,-8 1654,-166 1804,-166 1804,-8 1654,-8"/>
<text text-anchor="middle" x="1729" y="-150.8" font-family="Times,serif" font-size="14.00">signer</text>
</g>
<g id="clust6" class="cluster">
<title>cluster_bcs</title>
<polygon fill="none" stroke="black" points="603,-8 603,-83 699,-83 699,-8 603,-8"/>
<text text-anchor="middle" x="651" y="-67.8" font-family="Times,serif" font-size="14.00">bcs</text>
</g>
<g id="clust7" class="cluster">
<title>cluster_type_info</title>
<polygon fill="none" stroke="black" points="204,-174 204,-249 296,-249 296,-174 204,-174"/>
<text text-anchor="middle" x="250" y="-233.8" font-family="Times,serif" font-size="14.00">type_info</text>
</g>
<g id="clust8" class="cluster">
<title>cluster_guid</title>
<polygon fill="none" stroke="black" points="971,-91 971,-166 1051,-166 1051,-91 971,-91"/>
<text text-anchor="middle" x="1011" y="-150.8" font-family="Times,serif" font-size="14.00">guid</text>
</g>
<g id="clust9" class="cluster">
<title>cluster_option</title>
<polygon fill="none" stroke="black" points="859,-91 859,-166 931,-166 931,-91 859,-91"/>
<text text-anchor="middle" x="895" y="-150.8" font-family="Times,serif" font-size="14.00">option</text>
</g>
<!-- deposit_coins -->
<g id="node1" class="node">
<title>deposit_coins</title>
<ellipse fill="none" stroke="black" cx="1085" cy="-505" rx="59.29" ry="18"/>
<text text-anchor="middle" x="1085" y="-501.3" font-family="Times,serif" font-size="14.00">deposit_coins</text>
</g>
<!-- error::permission_denied -->
<g id="node2" class="node">
<title>error::permission_denied</title>
<ellipse fill="none" stroke="black" cx="1449" cy="-117" rx="77.19" ry="18"/>
<text text-anchor="middle" x="1449" y="-113.3" font-family="Times,serif" font-size="14.00">permission_denied</text>
</g>
<!-- deposit_coins&#45;&gt;error::permission_denied -->
<g id="edge1" class="edge">
<title>deposit_coins&#45;&gt;error::permission_denied</title>
<path fill="none" stroke="black" d="M1037.33,-493.87C1012.51,-486.17 983.73,-473.02 966,-451 939.82,-418.48 947,-400.75 947,-359 947,-359 947,-359 947,-282 947,-204.81 1010.49,-200.46 1083,-174 1112.24,-163.33 1332.99,-174.27 1363,-166 1382.07,-160.75 1401.46,-150.44 1416.99,-140.72"/>
<polygon fill="black" stroke="black" points="1418.85,-143.69 1425.33,-135.3 1415.04,-137.82 1418.85,-143.69"/>
</g>
<!-- account::create_signer -->
<g id="node3" class="node">
<title>account::create_signer</title>
<ellipse fill="none" stroke="black" cx="493" cy="-117" rx="57.69" ry="18"/>
<text text-anchor="middle" x="493" y="-113.3" font-family="Times,serif" font-size="14.00">create_signer</text>
</g>
<!-- deposit_coins&#45;&gt;account::create_signer -->
<g id="edge2" class="edge">
<title>deposit_coins&#45;&gt;account::create_signer</title>
<path fill="none" stroke="black" d="M1026.41,-501.85C810.26,-493.16 70,-456.29 70,-359 70,-359 70,-359 70,-282 70,-206.88 130.43,-202.32 200,-174 220.65,-165.6 278,-169.59 300,-166 348.54,-158.08 402.81,-144.11 441.41,-133.28"/>
<polygon fill="black" stroke="black" points="442.24,-136.68 450.91,-130.59 440.33,-129.95 442.24,-136.68"/>
</g>
<!-- account::exists_at -->
<g id="node4" class="node">
<title>account::exists_at</title>
<ellipse fill="none" stroke="black" cx="354" cy="-283" rx="41.69" ry="18"/>
<text text-anchor="middle" x="354" y="-279.3" font-family="Times,serif" font-size="14.00">exists_at</text>
</g>
<!-- deposit_coins&#45;&gt;account::exists_at -->
<g id="edge3" class="edge">
<title>deposit_coins&#45;&gt;account::exists_at</title>
<path fill="none" stroke="black" d="M1028.03,-499.5C906.33,-487.84 614.9,-448.92 404,-332 393.27,-326.05 383.15,-317.22 374.86,-308.75"/>
<polygon fill="black" stroke="black" points="377.62,-306.58 368.25,-301.63 372.49,-311.34 377.62,-306.58"/>
</g>
<!-- coin::deposit -->
<g id="node5" class="node">
<title>coin::deposit</title>
<ellipse fill="none" stroke="black" cx="1217" cy="-358" rx="36.29" ry="18"/>
<text text-anchor="middle" x="1217" y="-354.3" font-family="Times,serif" font-size="14.00">deposit</text>
</g>
<!-- deposit_coins&#45;&gt;coin::deposit -->
<g id="edge4" class="edge">
<title>deposit_coins&#45;&gt;coin::deposit</title>
<path fill="none" stroke="black" d="M1100.14,-487.37C1123.46,-461.75 1168.28,-412.52 1195.12,-383.03"/>
<polygon fill="black" stroke="black" points="1197.67,-385.43 1201.82,-375.68 1192.5,-380.72 1197.67,-385.43"/>
</g>
<!-- coin::is_account_registered -->
<g id="node6" class="node">
<title>coin::is_account_registered</title>
<ellipse fill="none" stroke="black" cx="1176" cy="-283" rx="87.18" ry="18"/>
<text text-anchor="middle" x="1176" y="-279.3" font-family="Times,serif" font-size="14.00">is_account_registered</text>
</g>
<!-- deposit_coins&#45;&gt;coin::is_account_registered -->
<g id="edge5" class="edge">
<title>deposit_coins&#45;&gt;coin::is_account_registered</title>
<path fill="none" stroke="black" d="M1130.55,-493.18C1172.98,-480.42 1233.79,-454.64 1262,-407 1277.18,-381.38 1276.19,-366.18 1262,-340 1253.93,-325.11 1239.99,-313.56 1225.66,-304.92"/>
<polygon fill="black" stroke="black" points="1227.5,-301.94 1217.06,-300.13 1224.1,-308.05 1227.5,-301.94"/>
</g>
<!-- coin::register -->
<g id="node7" class="node">
<title>coin::register</title>
<ellipse fill="none" stroke="black" cx="1126" cy="-358" rx="37.09" ry="18"/>
<text text-anchor="middle" x="1126" y="-354.3" font-family="Times,serif" font-size="14.00">register</text>
</g>
<!-- deposit_coins&#45;&gt;coin::register -->
<g id="edge6" class="edge">
<title>deposit_coins&#45;&gt;coin::register</title>
<path fill="none" stroke="black" d="M1095.47,-486.94C1101.2,-476.83 1107.95,-463.58 1112,-451 1118.62,-430.41 1122.15,-406.19 1124,-387.77"/>
<polygon fill="black" stroke="black" points="1127.49,-388.11 1124.88,-377.84 1120.51,-387.49 1127.49,-388.11"/>
</g>
<!-- create_account -->
<g id="node8" class="node">
<title>create_account</title>
<ellipse fill="none" stroke="black" cx="1039" cy="-433" rx="63.89" ry="18"/>
<text text-anchor="middle" x="1039" y="-429.3" font-family="Times,serif" font-size="14.00">create_account</text>
</g>
<!-- deposit_coins&#45;&gt;create_account -->
<g id="edge7" class="edge">
<title>deposit_coins&#45;&gt;create_account</title>
<path fill="none" stroke="black" d="M1073.86,-487.05C1068.61,-479.06 1062.22,-469.33 1056.35,-460.4"/>
<polygon fill="black" stroke="black" points="1059.28,-458.49 1050.86,-452.05 1053.43,-462.33 1059.28,-458.49"/>
</g>
<!-- can_receive_direct_coin_transfers -->
<g id="node9" class="node">
<title>can_receive_direct_coin_transfers</title>
<ellipse fill="none" stroke="black" cx="1440" cy="-433" rx="131.08" ry="18"/>
<text text-anchor="middle" x="1440" y="-429.3" font-family="Times,serif" font-size="14.00">can_receive_direct_coin_transfers</text>
</g>
<!-- deposit_coins&#45;&gt;can_receive_direct_coin_transfers -->
<g id="edge8" class="edge">
<title>deposit_coins&#45;&gt;can_receive_direct_coin_transfers</title>
<path fill="none" stroke="black" d="M1133.62,-494.41C1190.85,-483.13 1286.86,-464.2 1356.17,-450.53"/>
<polygon fill="black" stroke="black" points="1356.43,-454.05 1365.57,-448.68 1355.08,-447.18 1356.43,-454.05"/>
</g>
<!-- error::canonical -->
<g id="node10" class="node">
<title>error::canonical</title>
<ellipse fill="none" stroke="black" cx="1371" cy="-34" rx="44.39" ry="18"/>
<text text-anchor="middle" x="1371" y="-30.3" font-family="Times,serif" font-size="14.00">canonical</text>
</g>
<!-- error::permission_denied&#45;&gt;error::canonical -->
<g id="edge9" class="edge">
<title>error::permission_denied&#45;&gt;error::canonical</title>
<path fill="none" stroke="black" d="M1432.84,-99.22C1421.71,-87.66 1406.75,-72.13 1394.34,-59.23"/>
<polygon fill="black" stroke="black" points="1397.12,-57.07 1387.66,-52.3 1392.07,-61.93 1397.12,-57.07"/>
</g>
<!-- coin::deposit&#45;&gt;error::permission_denied -->
<g id="edge11" class="edge">
<title>coin::deposit&#45;&gt;error::permission_denied</title>
<path fill="none" stroke="black" d="M1190.27,-345.42C1184.35,-343.27 1178.04,-341.3 1172,-340 1158.4,-337.06 1056.52,-342.15 1047,-332 998.96,-280.78 997.98,-224.28 1047,-174 1059.26,-161.43 1346.06,-170.64 1363,-166 1382.08,-160.78 1401.47,-150.48 1417,-140.75"/>
<polygon fill="black" stroke="black" points="1418.86,-143.71 1425.34,-135.33 1415.05,-137.85 1418.86,-143.71"/>
</g>
<!-- coin::deposit&#45;&gt;coin::is_account_registered -->
<g id="edge13" class="edge">
<title>coin::deposit&#45;&gt;coin::is_account_registered</title>
<path fill="none" stroke="black" d="M1207.7,-340.44C1202.82,-331.76 1196.73,-320.91 1191.19,-311.05"/>
<polygon fill="black" stroke="black" points="1194.38,-309.59 1186.44,-302.58 1188.28,-313.01 1194.38,-309.59"/>
</g>
<!-- error::not_found -->
<g id="node11" class="node">
<title>error::not_found</title>
<ellipse fill="none" stroke="black" cx="1591" cy="-117" rx="46.59" ry="18"/>
<text text-anchor="middle" x="1591" y="-113.3" font-family="Times,serif" font-size="14.00">not_found</text>
</g>
<!-- coin::deposit&#45;&gt;error::not_found -->
<g id="edge10" class="edge">
<title>coin::deposit&#45;&gt;error::not_found</title>
<path fill="none" stroke="black" d="M1190.24,-345.52C1184.33,-343.37 1178.03,-341.37 1172,-340 1162,-337.72 1086.93,-339.56 1080,-332 1057.47,-307.43 1058.87,-282.78 1080,-257 1210.75,-97.52 1349.57,-256.26 1535,-166 1547.16,-160.08 1558.83,-150.87 1568.33,-142.09"/>
<polygon fill="black" stroke="black" points="1570.57,-144.79 1575.32,-135.32 1565.7,-139.77 1570.57,-144.79"/>
</g>
<!-- event::emit_event -->
<g id="node12" class="node">
<title>event::emit_event</title>
<ellipse fill="none" stroke="black" cx="66" cy="-117" rx="50.09" ry="18"/>
<text text-anchor="middle" x="66" y="-113.3" font-family="Times,serif" font-size="14.00">emit_event</text>
</g>
<!-- coin::deposit&#45;&gt;event::emit_event -->
<g id="edge12" class="edge">
<title>coin::deposit&#45;&gt;event::emit_event</title>
<path fill="none" stroke="black" d="M1190.8,-345.34C1184.74,-343.14 1178.24,-341.17 1172,-340 1076.76,-322.16 394.5,-353.4 300,-332 214.87,-312.72 182.72,-311.71 122,-249 94.03,-220.11 79,-175.07 71.75,-146.05"/>
<polygon fill="black" stroke="black" points="75.21,-145.47 69.53,-136.53 68.39,-147.06 75.21,-145.47"/>
</g>
<!-- coin::merge -->
<g id="node13" class="node">
<title>coin::merge</title>
<ellipse fill="none" stroke="black" cx="1314" cy="-283" rx="33.29" ry="18"/>
<text text-anchor="middle" x="1314" y="-279.3" font-family="Times,serif" font-size="14.00">merge</text>
</g>
<!-- coin::deposit&#45;&gt;coin::merge -->
<g id="edge14" class="edge">
<title>coin::deposit&#45;&gt;coin::merge</title>
<path fill="none" stroke="black" d="M1245.69,-346.7C1254.57,-342.82 1264.09,-337.88 1272,-332 1280.65,-325.57 1288.8,-317.09 1295.57,-309.04"/>
<polygon fill="black" stroke="black" points="1298.12,-311.46 1301.64,-301.46 1292.66,-307.08 1298.12,-311.46"/>
</g>
<!-- coin::register&#45;&gt;coin::is_account_registered -->
<g id="edge18" class="edge">
<title>coin::register&#45;&gt;coin::is_account_registered</title>
<path fill="none" stroke="black" d="M1137.35,-340.44C1143.35,-331.66 1150.88,-320.68 1157.69,-310.74"/>
<polygon fill="black" stroke="black" points="1160.56,-312.74 1163.32,-302.51 1154.78,-308.78 1160.56,-312.74"/>
</g>
<!-- signer::address_of -->
<g id="node14" class="node">
<title>signer::address_of</title>
<ellipse fill="none" stroke="black" cx="1711" cy="-117" rx="48.99" ry="18"/>
<text text-anchor="middle" x="1711" y="-113.3" font-family="Times,serif" font-size="14.00">address_of</text>
</g>
<!-- coin::register&#45;&gt;signer::address_of -->
<g id="edge15" class="edge">
<title>coin::register&#45;&gt;signer::address_of</title>
<path fill="none" stroke="black" d="M1096.42,-346.93C1089.9,-343.27 1083.81,-338.41 1080,-332 1062.96,-303.35 1058.37,-282.36 1080,-257 1246.49,-61.82 1414.98,-268.85 1650,-166 1663.18,-160.23 1675.97,-150.93 1686.41,-142.04"/>
<polygon fill="black" stroke="black" points="1688.67,-144.72 1693.8,-135.45 1684.01,-139.5 1688.67,-144.72"/>
</g>
<!-- account::new_event_handle -->
<g id="node15" class="node">
<title>account::new_event_handle</title>
<ellipse fill="none" stroke="black" cx="621" cy="-283" rx="76.89" ry="18"/>
<text text-anchor="middle" x="621" y="-279.3" font-family="Times,serif" font-size="14.00">new_event_handle</text>
</g>
<!-- coin::register&#45;&gt;account::new_event_handle -->
<g id="edge16" class="edge">
<title>coin::register&#45;&gt;account::new_event_handle</title>
<path fill="none" stroke="black" d="M1088.59,-356.93C999.54,-356.4 777.11,-352.97 706,-332 687.33,-326.5 668.31,-316.27 653,-306.67"/>
<polygon fill="black" stroke="black" points="655.08,-303.84 644.79,-301.33 651.27,-309.71 655.08,-303.84"/>
</g>
<!-- account::register_coin -->
<g id="node16" class="node">
<title>account::register_coin</title>
<ellipse fill="none" stroke="black" cx="470" cy="-283" rx="56.59" ry="18"/>
<text text-anchor="middle" x="470" y="-279.3" font-family="Times,serif" font-size="14.00">register_coin</text>
</g>
<!-- coin::register&#45;&gt;account::register_coin -->
<g id="edge17" class="edge">
<title>coin::register&#45;&gt;account::register_coin</title>
<path fill="none" stroke="black" d="M1089.07,-355.73C961.74,-351.31 548.1,-336.62 535,-332 520.39,-326.84 506.28,-317.2 494.97,-307.9"/>
<polygon fill="black" stroke="black" points="497.53,-305.49 487.68,-301.6 492.95,-310.79 497.53,-305.49"/>
</g>
<!-- create_account&#45;&gt;coin::register -->
<g id="edge20" class="edge">
<title>create_account&#45;&gt;coin::register</title>
<path fill="none" stroke="black" d="M1058.74,-415.44C1070.8,-405.32 1086.37,-392.25 1099.49,-381.24"/>
<polygon fill="black" stroke="black" points="1101.54,-384.09 1106.95,-374.98 1097.04,-378.73 1101.54,-384.09"/>
</g>
<!-- account::create_account -->
<g id="node17" class="node">
<title>account::create_account</title>
<ellipse fill="none" stroke="black" cx="779" cy="-283" rx="63.89" ry="18"/>
<text text-anchor="middle" x="779" y="-279.3" font-family="Times,serif" font-size="14.00">create_account</text>
</g>
<!-- create_account&#45;&gt;account::create_account -->
<g id="edge19" class="edge">
<title>create_account&#45;&gt;account::create_account</title>
<path fill="none" stroke="black" d="M1011.67,-416.44C964.85,-389.79 869.27,-335.38 816.35,-305.26"/>
<polygon fill="black" stroke="black" points="818.09,-302.23 807.67,-300.32 814.63,-308.31 818.09,-302.23"/>
</g>
<!-- error::not_found&#45;&gt;error::canonical -->
<g id="edge21" class="edge">
<title>error::not_found&#45;&gt;error::canonical</title>
<path fill="none" stroke="black" d="M1562.15,-102.52C1553.49,-98.64 1543.92,-94.5 1535,-91 1495.38,-75.43 1449.45,-59.96 1416.29,-49.24"/>
<polygon fill="black" stroke="black" points="1417.6,-45.98 1407.01,-46.26 1415.46,-52.65 1417.6,-45.98"/>
</g>
<!-- bcs::to_bytes -->
<g id="node18" class="node">
<title>bcs::to_bytes</title>
<ellipse fill="none" stroke="black" cx="651" cy="-34" rx="40.09" ry="18"/>
<text text-anchor="middle" x="651" y="-30.3" font-family="Times,serif" font-size="14.00">to_bytes</text>
</g>
<!-- event::emit_event&#45;&gt;bcs::to_bytes -->
<g id="edge22" class="edge">
<title>event::emit_event&#45;&gt;bcs::to_bytes</title>
<path fill="none" stroke="black" d="M94.13,-101.68C103.68,-97.47 114.59,-93.36 125,-91 162.96,-82.38 261.23,-86.53 300,-83 408.57,-73.12 535.06,-53.91 602.61,-43.03"/>
<polygon fill="black" stroke="black" points="602.92,-46.52 612.23,-41.47 601.8,-39.61 602.92,-46.52"/>
</g>
<!-- event::write_to_event_store -->
<g id="node19" class="node">
<title>event::write_to_event_store</title>
<ellipse fill="none" stroke="black" cx="101" cy="-34" rx="85.29" ry="18"/>
<text text-anchor="middle" x="101" y="-30.3" font-family="Times,serif" font-size="14.00">write_to_event_store</text>
</g>
<!-- event::emit_event&#45;&gt;event::write_to_event_store -->
<g id="edge23" class="edge">
<title>event::emit_event&#45;&gt;event::write_to_event_store</title>
<path fill="none" stroke="black" d="M73.42,-98.82C77.97,-88.3 83.89,-74.59 89.09,-62.57"/>
<polygon fill="black" stroke="black" points="92.23,-64.11 92.99,-53.54 85.81,-61.33 92.23,-64.11"/>
</g>
<!-- signer::borrow_address -->
<g id="node20" class="node">
<title>signer::borrow_address</title>
<ellipse fill="none" stroke="black" cx="1729" cy="-34" rx="66.89" ry="18"/>
<text text-anchor="middle" x="1729" y="-30.3" font-family="Times,serif" font-size="14.00">borrow_address</text>
</g>
<!-- signer::address_of&#45;&gt;signer::borrow_address -->
<g id="edge24" class="edge">
<title>signer::address_of&#45;&gt;signer::borrow_address</title>
<path fill="none" stroke="black" d="M1714.82,-98.82C1717.09,-88.58 1720.04,-75.33 1722.66,-63.55"/>
<polygon fill="black" stroke="black" points="1726.05,-64.43 1724.8,-53.91 1719.21,-62.91 1726.05,-64.43"/>
</g>
<!-- event::new_event_handle -->
<g id="node21" class="node">
<title>event::new_event_handle</title>
<ellipse fill="none" stroke="black" cx="211" cy="-117" rx="76.89" ry="18"/>
<text text-anchor="middle" x="211" y="-113.3" font-family="Times,serif" font-size="14.00">new_event_handle</text>
</g>
<!-- account::new_event_handle&#45;&gt;event::new_event_handle -->
<g id="edge25" class="edge">
<title>account::new_event_handle&#45;&gt;event::new_event_handle</title>
<path fill="none" stroke="black" d="M579.56,-267.45C565.87,-263.28 550.44,-259.25 536,-257 517.55,-254.12 213.04,-262.36 200,-249 173.7,-222.07 185.85,-175.46 197.83,-145.72"/>
<polygon fill="black" stroke="black" points="201.01,-147.18 201.73,-136.61 194.58,-144.42 201.01,-147.18"/>
</g>
<!-- account::create_guid -->
<g id="node22" class="node">
<title>account::create_guid</title>
<ellipse fill="none" stroke="black" cx="791" cy="-200" rx="51.99" ry="18"/>
<text text-anchor="middle" x="791" y="-196.3" font-family="Times,serif" font-size="14.00">create_guid</text>
</g>
<!-- account::new_event_handle&#45;&gt;account::create_guid -->
<g id="edge26" class="edge">
<title>account::new_event_handle&#45;&gt;account::create_guid</title>
<path fill="none" stroke="black" d="M667.51,-268.34C695.76,-259.97 726.99,-250.57 730,-249 742.48,-242.5 754.93,-233.32 765.29,-224.72"/>
<polygon fill="black" stroke="black" points="767.36,-227.56 772.66,-218.39 762.8,-222.25 767.36,-227.56"/>
</g>
<!-- account::register_coin&#45;&gt;event::emit_event -->
<g id="edge28" class="edge">
<title>account::register_coin&#45;&gt;event::emit_event</title>
<path fill="none" stroke="black" d="M438.9,-267.62C428.36,-263.41 416.37,-259.31 405,-257 379.4,-251.79 192.7,-261.93 170,-249 135.61,-229.41 146.8,-204.84 122,-174 113.07,-162.9 102.19,-151.6 92.41,-142.1"/>
<polygon fill="black" stroke="black" points="94.92,-139.66 85.26,-135.29 90.09,-144.72 94.92,-139.66"/>
</g>
<!-- type_info::type_of -->
<g id="node23" class="node">
<title>type_info::type_of</title>
<ellipse fill="none" stroke="black" cx="250" cy="-200" rx="37.89" ry="18"/>
<text text-anchor="middle" x="250" y="-196.3" font-family="Times,serif" font-size="14.00">type_of</text>
</g>
<!-- account::register_coin&#45;&gt;type_info::type_of -->
<g id="edge27" class="edge">
<title>account::register_coin&#45;&gt;type_info::type_of</title>
<path fill="none" stroke="black" d="M438.51,-267.77C428.05,-263.62 416.21,-259.52 405,-257 382.17,-251.86 321.36,-258.55 300,-249 288.47,-243.84 277.98,-234.84 269.63,-226.02"/>
<polygon fill="black" stroke="black" points="272.26,-223.71 263.02,-218.53 267.02,-228.35 272.26,-223.71"/>
</g>
<!-- error::already_exists -->
<g id="node24" class="node">
<title>error::already_exists</title>
<ellipse fill="none" stroke="black" cx="1293" cy="-117" rx="61.19" ry="18"/>
<text text-anchor="middle" x="1293" y="-113.3" font-family="Times,serif" font-size="14.00">already_exists</text>
</g>
<!-- account::create_account&#45;&gt;error::already_exists -->
<g id="edge29" class="edge">
<title>account::create_account&#45;&gt;error::already_exists</title>
<path fill="none" stroke="black" d="M833.72,-273.39C852.02,-268.51 871.65,-260.88 887,-249 917.93,-225.07 899.15,-193.57 933,-174 960.81,-157.92 1191.42,-175.83 1222,-166 1237.92,-160.88 1253.54,-151.01 1266.06,-141.54"/>
<polygon fill="black" stroke="black" points="1268.13,-144.36 1273.79,-135.41 1263.78,-138.88 1268.13,-144.36"/>
</g>
<!-- error::invalid_argument -->
<g id="node25" class="node">
<title>error::invalid_argument</title>
<ellipse fill="none" stroke="black" cx="1140" cy="-117" rx="73.39" ry="18"/>
<text text-anchor="middle" x="1140" y="-113.3" font-family="Times,serif" font-size="14.00">invalid_argument</text>
</g>
<!-- account::create_account&#45;&gt;error::invalid_argument -->
<g id="edge30" class="edge">
<title>account::create_account&#45;&gt;error::invalid_argument</title>
<path fill="none" stroke="black" d="M819.97,-268.82C831.22,-263.85 842.84,-257.32 852,-249 880.44,-223.17 862.24,-194.09 895,-174 910.17,-164.69 1037.9,-170.95 1055,-166 1073.69,-160.58 1092.72,-150.37 1108.02,-140.75"/>
<polygon fill="black" stroke="black" points="1109.76,-143.79 1116.23,-135.39 1105.94,-137.93 1109.76,-143.79"/>
</g>
<!-- account::create_account_unchecked -->
<g id="node26" class="node">
<title>account::create_account_unchecked</title>
<ellipse fill="none" stroke="black" cx="616" cy="-200" rx="105.08" ry="18"/>
<text text-anchor="middle" x="616" y="-196.3" font-family="Times,serif" font-size="14.00">create_account_unchecked</text>
</g>
<!-- account::create_account&#45;&gt;account::create_account_unchecked -->
<g id="edge31" class="edge">
<title>account::create_account&#45;&gt;account::create_account_unchecked</title>
<path fill="none" stroke="black" d="M748.34,-266.76C723.13,-254.23 687.1,-236.33 659,-222.37"/>
<polygon fill="black" stroke="black" points="660.91,-219.41 650.4,-218.09 657.8,-225.68 660.91,-219.41"/>
</g>
<!-- account::create_guid&#45;&gt;signer::address_of -->
<g id="edge32" class="edge">
<title>account::create_guid&#45;&gt;signer::address_of</title>
<path fill="none" stroke="black" d="M836.7,-191.03C872.98,-185.09 925.07,-177.45 971,-174 1008.62,-171.18 1614.43,-178.55 1650,-166 1664.1,-161.03 1677.43,-151.35 1688.02,-141.98"/>
<polygon fill="black" stroke="black" points="1690.21,-144.72 1695.11,-135.33 1685.43,-139.61 1690.21,-144.72"/>
</g>
<!-- guid::create -->
<g id="node27" class="node">
<title>guid::create</title>
<ellipse fill="none" stroke="black" cx="1011" cy="-117" rx="31.7" ry="18"/>
<text text-anchor="middle" x="1011" y="-113.3" font-family="Times,serif" font-size="14.00">create</text>
</g>
<!-- account::create_guid&#45;&gt;guid::create -->
<g id="edge33" class="edge">
<title>account::create_guid&#45;&gt;guid::create</title>
<path fill="none" stroke="black" d="M821.99,-185.15C832.86,-180.87 845.28,-176.6 857,-174 880.5,-168.79 943.23,-176.26 965,-166 975.85,-160.89 985.47,-152.02 993.07,-143.28"/>
<polygon fill="black" stroke="black" points="995.74,-145.56 999.28,-135.57 990.28,-141.17 995.74,-145.56"/>
</g>
<!-- error::already_exists&#45;&gt;error::canonical -->
<g id="edge34" class="edge">
<title>error::already_exists&#45;&gt;error::canonical</title>
<path fill="none" stroke="black" d="M1309.16,-99.22C1320.29,-87.66 1335.25,-72.13 1347.66,-59.23"/>
<polygon fill="black" stroke="black" points="1349.93,-61.93 1354.34,-52.3 1344.88,-57.07 1349.93,-61.93"/>
</g>
<!-- error::invalid_argument&#45;&gt;error::canonical -->
<g id="edge35" class="edge">
<title>error::invalid_argument&#45;&gt;error::canonical</title>
<path fill="none" stroke="black" d="M1180.77,-101.71C1221.9,-87.28 1285.21,-65.08 1327.35,-50.31"/>
<polygon fill="black" stroke="black" points="1328.4,-53.65 1336.68,-47.03 1326.09,-47.04 1328.4,-53.65"/>
</g>
<!-- account::create_account_unchecked&#45;&gt;account::create_signer -->
<g id="edge41" class="edge">
<title>account::create_account_unchecked&#45;&gt;account::create_signer</title>
<path fill="none" stroke="black" d="M590.51,-182.22C571.89,-169.95 546.46,-153.21 526.24,-139.89"/>
<polygon fill="black" stroke="black" points="528.32,-137.07 518.05,-134.5 524.47,-142.92 528.32,-137.07"/>
</g>
<!-- account::create_account_unchecked&#45;&gt;bcs::to_bytes -->
<g id="edge38" class="edge">
<title>account::create_account_unchecked&#45;&gt;bcs::to_bytes</title>
<path fill="none" stroke="black" d="M672.77,-184.48C690.94,-180.39 711.21,-176.41 730,-174 741.31,-172.55 927.1,-174.21 935,-166 958.11,-141.97 956.17,-116.75 935,-91 906.11,-55.85 776.02,-42.41 702.33,-37.55"/>
<polygon fill="black" stroke="black" points="702.72,-34.07 692.52,-36.94 702.29,-41.06 702.72,-34.07"/>
</g>
<!-- account::create_account_unchecked&#45;&gt;event::new_event_handle -->
<g id="edge40" class="edge">
<title>account::create_account_unchecked&#45;&gt;event::new_event_handle</title>
<path fill="none" stroke="black" d="M511.14,-198.24C448.63,-195.29 368.39,-187.1 300,-166 280.69,-160.04 260.75,-149.74 244.65,-140.2"/>
<polygon fill="black" stroke="black" points="246.82,-137.42 236.46,-135.19 243.17,-143.39 246.82,-137.42"/>
</g>
<!-- account::create_account_unchecked&#45;&gt;error::invalid_argument -->
<g id="edge37" class="edge">
<title>account::create_account_unchecked&#45;&gt;error::invalid_argument</title>
<path fill="none" stroke="black" d="M672.46,-184.38C690.7,-180.26 711.09,-176.28 730,-174 765.86,-169.67 1020.18,-175.61 1055,-166 1073.9,-160.78 1093.07,-150.48 1108.41,-140.76"/>
<polygon fill="black" stroke="black" points="1110.21,-143.76 1116.63,-135.34 1106.36,-137.92 1110.21,-143.76"/>
</g>
<!-- account::create_account_unchecked&#45;&gt;guid::create -->
<g id="edge39" class="edge">
<title>account::create_account_unchecked&#45;&gt;guid::create</title>
<path fill="none" stroke="black" d="M672.77,-184.42C690.93,-180.33 711.2,-176.36 730,-174 755.92,-170.74 941.15,-176.66 965,-166 976.22,-160.98 986.07,-151.83 993.74,-142.86"/>
<polygon fill="black" stroke="black" points="996.27,-145.3 999.72,-135.29 990.78,-140.96 996.27,-145.3"/>
</g>
<!-- option::none -->
<g id="node28" class="node">
<title>option::none</title>
<ellipse fill="none" stroke="black" cx="895" cy="-117" rx="27.9" ry="18"/>
<text text-anchor="middle" x="895" y="-113.3" font-family="Times,serif" font-size="14.00">none</text>
</g>
<!-- account::create_account_unchecked&#45;&gt;option::none -->
<g id="edge36" class="edge">
<title>account::create_account_unchecked&#45;&gt;option::none</title>
<path fill="none" stroke="black" d="M673.69,-184.57C691.63,-180.56 711.54,-176.6 730,-174 757.56,-170.12 830.18,-178.61 855,-166 864.84,-161 873.17,-152.4 879.65,-143.84"/>
<polygon fill="black" stroke="black" points="882.5,-145.87 885.29,-135.65 876.73,-141.9 882.5,-145.87"/>
</g>
</g>
</svg>
