<?xml version="1.0" encoding="UTF-8" standalone="no"?>
<!DOCTYPE svg PUBLIC "-//W3C//DTD SVG 1.1//EN"
 "http://www.w3.org/Graphics/SVG/1.1/DTD/svg11.dtd">
<!-- Generated by graphviz version 7.0.4 (20221203.1631)
 -->
<!-- Title: G Pages: 1 -->
<svg width="1319pt" height="531pt"
 viewBox="0.00 0.00 1319.00 531.00" xmlns="http://www.w3.org/2000/svg" xmlns:xlink="http://www.w3.org/1999/xlink">
<g id="graph0" class="graph" transform="scale(1 1) rotate(0) translate(4 527)">
<title>G</title>
<polygon fill="white" stroke="none" points="-4,4 -4,-527 1315,-527 1315,4 -4,4"/>
<g id="clust1" class="cluster">
<title>cluster_error</title>
<polygon fill="none" stroke="black" points="420,-163 420,-321 906,-321 906,-163 420,-163"/>
<text text-anchor="middle" x="663" y="-305.8" font-family="Times,serif" font-size="14.00">error</text>
</g>
<g id="clust2" class="cluster">
<title>cluster_system_addresses</title>
<polygon fill="none" stroke="black" points="8,-246 8,-479 254,-479 254,-246 8,-246"/>
<text text-anchor="middle" x="131" y="-463.8" font-family="Times,serif" font-size="14.00">system_addresses</text>
</g>
<g id="clust3" class="cluster">
<title>cluster_aptos_coin</title>
<polygon fill="none" stroke="black" points="313,-404 313,-479 495,-479 495,-404 313,-404"/>
<text text-anchor="middle" x="404" y="-463.8" font-family="Times,serif" font-size="14.00">aptos_coin</text>
</g>
<g id="clust4" class="cluster">
<title>cluster_signer</title>
<polygon fill="none" stroke="black" points="262,-246 262,-396 412,-396 412,-246 262,-246"/>
<text text-anchor="middle" x="337" y="-380.8" font-family="Times,serif" font-size="14.00">signer</text>
</g>
<g id="clust5" class="cluster">
<title>cluster_account</title>
<polygon fill="none" stroke="black" points="1055,-246 1055,-396 1303,-396 1303,-246 1055,-246"/>
<text text-anchor="middle" x="1179" y="-380.8" font-family="Times,serif" font-size="14.00">account</text>
</g>
<g id="clust6" class="cluster">
<title>cluster_simple_map</title>
<polygon fill="none" stroke="black" points="933,-246 933,-396 1021,-396 1021,-246 933,-246"/>
<text text-anchor="middle" x="977" y="-380.8" font-family="Times,serif" font-size="14.00">simple_map</text>
</g>
<g id="clust7" class="cluster">
<title>cluster_option</title>
<polygon fill="none" stroke="black" points="946,-91 946,-238 1182,-238 1182,-91 946,-91"/>
<text text-anchor="middle" x="1064" y="-222.8" font-family="Times,serif" font-size="14.00">option</text>
</g>
<g id="clust8" class="cluster">
<title>cluster_vector</title>
<polygon fill="none" stroke="black" points="933,-8 933,-83 1140,-83 1140,-8 933,-8"/>
<text text-anchor="middle" x="1036.5" y="-67.8" font-family="Times,serif" font-size="14.00">vector</text>
</g>
<!-- get_signer_testnet_only -->
<g id="node1" class="node">
<title>get_signer_testnet_only</title>
<ellipse fill="none" stroke="black" cx="485" cy="-505" rx="94.78" ry="18"/>
<text text-anchor="middle" x="485" y="-501.3" font-family="Times,serif" font-size="14.00">get_signer_testnet_only</text>
</g>
<!-- error::unauthenticated -->
<g id="node2" class="node">
<title>error::unauthenticated</title>
<ellipse fill="none" stroke="black" cx="667" cy="-272" rx="66.09" ry="18"/>
<text text-anchor="middle" x="667" y="-268.3" font-family="Times,serif" font-size="14.00">unauthenticated</text>
</g>
<!-- get_signer_testnet_only&#45;&gt;error::unauthenticated -->
<g id="edge1" class="edge">
<title>get_signer_testnet_only&#45;&gt;error::unauthenticated</title>
<path fill="none" stroke="black" d="M498.38,-487.01C529.94,-446.96 609.15,-346.43 646.67,-298.8"/>
<polygon fill="black" stroke="black" points="649.22,-301.22 652.66,-291.2 643.72,-296.89 649.22,-301.22"/>
</g>
<!-- system_addresses::assert_core_resource -->
<g id="node3" class="node">
<title>system_addresses::assert_core_resource</title>
<ellipse fill="none" stroke="black" cx="162" cy="-430" rx="84.49" ry="18"/>
<text text-anchor="middle" x="162" y="-426.3" font-family="Times,serif" font-size="14.00">assert_core_resource</text>
</g>
<!-- get_signer_testnet_only&#45;&gt;system_addresses::assert_core_resource -->
<g id="edge2" class="edge">
<title>get_signer_testnet_only&#45;&gt;system_addresses::assert_core_resource</title>
<path fill="none" stroke="black" d="M403.84,-495.48C373.83,-491.54 339.66,-486.13 309,-479 276.56,-471.46 241.05,-459.96 213.06,-450.11"/>
<polygon fill="black" stroke="black" points="214.35,-446.85 203.76,-446.79 212,-453.44 214.35,-446.85"/>
</g>
<!-- aptos_coin::has_mint_capability -->
<g id="node4" class="node">
<title>aptos_coin::has_mint_capability</title>
<ellipse fill="none" stroke="black" cx="404" cy="-430" rx="82.59" ry="18"/>
<text text-anchor="middle" x="404" y="-426.3" font-family="Times,serif" font-size="14.00">has_mint_capability</text>
</g>
<!-- get_signer_testnet_only&#45;&gt;aptos_coin::has_mint_capability -->
<g id="edge3" class="edge">
<title>get_signer_testnet_only&#45;&gt;aptos_coin::has_mint_capability</title>
<path fill="none" stroke="black" d="M466.21,-487.07C455.79,-477.67 442.63,-465.82 431.11,-455.43"/>
<polygon fill="black" stroke="black" points="433.58,-452.95 423.81,-448.85 428.89,-458.15 433.58,-452.95"/>
</g>
<!-- get_signer -->
<g id="node5" class="node">
<title>get_signer</title>
<ellipse fill="none" stroke="black" cx="977" cy="-430" rx="47.39" ry="18"/>
<text text-anchor="middle" x="977" y="-426.3" font-family="Times,serif" font-size="14.00">get_signer</text>
</g>
<!-- get_signer_testnet_only&#45;&gt;get_signer -->
<g id="edge4" class="edge">
<title>get_signer_testnet_only&#45;&gt;get_signer</title>
<path fill="none" stroke="black" d="M558.13,-493.15C657.63,-478.39 833.43,-452.3 922.3,-439.12"/>
<polygon fill="black" stroke="black" points="922.59,-442.61 931.97,-437.68 921.57,-435.69 922.59,-442.61"/>
</g>
<!-- error::canonical -->
<g id="node6" class="node">
<title>error::canonical</title>
<ellipse fill="none" stroke="black" cx="667" cy="-189" rx="44.39" ry="18"/>
<text text-anchor="middle" x="667" y="-185.3" font-family="Times,serif" font-size="14.00">canonical</text>
</g>
<!-- error::unauthenticated&#45;&gt;error::canonical -->
<g id="edge5" class="edge">
<title>error::unauthenticated&#45;&gt;error::canonical</title>
<path fill="none" stroke="black" d="M667,-253.82C667,-243.69 667,-230.6 667,-218.92"/>
<polygon fill="black" stroke="black" points="670.5,-218.95 667,-208.95 663.5,-218.95 670.5,-218.95"/>
</g>
<!-- signer::address_of -->
<g id="node7" class="node">
<title>signer::address_of</title>
<ellipse fill="none" stroke="black" cx="337" cy="-347" rx="48.99" ry="18"/>
<text text-anchor="middle" x="337" y="-343.3" font-family="Times,serif" font-size="14.00">address_of</text>
</g>
<!-- system_addresses::assert_core_resource&#45;&gt;signer::address_of -->
<g id="edge6" class="edge">
<title>system_addresses::assert_core_resource&#45;&gt;signer::address_of</title>
<path fill="none" stroke="black" d="M209.67,-414.86C225.35,-409.62 242.68,-403.18 258,-396 274.02,-388.49 290.89,-378.54 304.91,-369.66"/>
<polygon fill="black" stroke="black" points="306.79,-372.61 313.29,-364.24 302.99,-366.73 306.79,-372.61"/>
</g>
<!-- system_addresses::assert_core_resource_address -->
<g id="node8" class="node">
<title>system_addresses::assert_core_resource_address</title>
<ellipse fill="none" stroke="black" cx="131" cy="-347" rx="115.08" ry="18"/>
<text text-anchor="middle" x="131" y="-343.3" font-family="Times,serif" font-size="14.00">assert_core_resource_address</text>
</g>
<!-- system_addresses::assert_core_resource&#45;&gt;system_addresses::assert_core_resource_address -->
<g id="edge7" class="edge">
<title>system_addresses::assert_core_resource&#45;&gt;system_addresses::assert_core_resource_address</title>
<path fill="none" stroke="black" d="M155.43,-411.82C151.47,-401.48 146.33,-388.05 141.79,-376.18"/>
<polygon fill="black" stroke="black" points="145.06,-374.93 138.21,-366.85 138.52,-377.44 145.06,-374.93"/>
</g>
<!-- aptos_coin::has_mint_capability&#45;&gt;signer::address_of -->
<g id="edge8" class="edge">
<title>aptos_coin::has_mint_capability&#45;&gt;signer::address_of</title>
<path fill="none" stroke="black" d="M389.79,-411.82C380.52,-400.61 368.25,-385.78 357.88,-373.24"/>
<polygon fill="black" stroke="black" points="360.77,-371.24 351.69,-365.77 355.37,-375.7 360.77,-371.24"/>
</g>
<!-- account::create_signer_with_capability -->
<g id="node9" class="node">
<title>account::create_signer_with_capability</title>
<ellipse fill="none" stroke="black" cx="1179" cy="-347" rx="116.18" ry="18"/>
<text text-anchor="middle" x="1179" y="-343.3" font-family="Times,serif" font-size="14.00">create_signer_with_capability</text>
</g>
<!-- get_signer&#45;&gt;account::create_signer_with_capability -->
<g id="edge9" class="edge">
<title>get_signer&#45;&gt;account::create_signer_with_capability</title>
<path fill="none" stroke="black" d="M1008.56,-416.34C1040.61,-403.49 1090.75,-383.39 1128.36,-368.31"/>
<polygon fill="black" stroke="black" points="1129.22,-371.73 1137.2,-364.76 1126.62,-365.23 1129.22,-371.73"/>
</g>
<!-- simple_map::borrow -->
<g id="node10" class="node">
<title>simple_map::borrow</title>
<ellipse fill="none" stroke="black" cx="977" cy="-347" rx="36.29" ry="18"/>
<text text-anchor="middle" x="977" y="-343.3" font-family="Times,serif" font-size="14.00">borrow</text>
</g>
<!-- get_signer&#45;&gt;simple_map::borrow -->
<g id="edge10" class="edge">
<title>get_signer&#45;&gt;simple_map::borrow</title>
<path fill="none" stroke="black" d="M977,-411.82C977,-401.69 977,-388.6 977,-376.92"/>
<polygon fill="black" stroke="black" points="980.5,-376.95 977,-366.95 973.5,-376.95 980.5,-376.95"/>
</g>
<!-- signer::borrow_address -->
<g id="node11" class="node">
<title>signer::borrow_address</title>
<ellipse fill="none" stroke="black" cx="337" cy="-272" rx="66.89" ry="18"/>
<text text-anchor="middle" x="337" y="-268.3" font-family="Times,serif" font-size="14.00">borrow_address</text>
</g>
<!-- signer::address_of&#45;&gt;signer::borrow_address -->
<g id="edge11" class="edge">
<title>signer::address_of&#45;&gt;signer::borrow_address</title>
<path fill="none" stroke="black" d="M337,-328.7C337,-320.67 337,-310.9 337,-301.8"/>
<polygon fill="black" stroke="black" points="340.5,-301.94 337,-291.94 333.5,-301.94 340.5,-301.94"/>
</g>
<!-- error::permission_denied -->
<g id="node12" class="node">
<title>error::permission_denied</title>
<ellipse fill="none" stroke="black" cx="505" cy="-272" rx="77.19" ry="18"/>
<text text-anchor="middle" x="505" y="-268.3" font-family="Times,serif" font-size="14.00">permission_denied</text>
</g>
<!-- system_addresses::assert_core_resource_address&#45;&gt;error::permission_denied -->
<g id="edge12" class="edge">
<title>system_addresses::assert_core_resource_address&#45;&gt;error::permission_denied</title>
<path fill="none" stroke="black" d="M212.87,-334.03C227.86,-332.13 243.38,-330.35 258,-329 293.01,-325.78 382.14,-330.47 416,-321 435.6,-315.52 455.7,-305.16 471.83,-295.46"/>
<polygon fill="black" stroke="black" points="473.39,-298.61 480.03,-290.36 469.69,-292.67 473.39,-298.61"/>
</g>
<!-- system_addresses::is_core_resource_address -->
<g id="node13" class="node">
<title>system_addresses::is_core_resource_address</title>
<ellipse fill="none" stroke="black" cx="131" cy="-272" rx="100.98" ry="18"/>
<text text-anchor="middle" x="131" y="-268.3" font-family="Times,serif" font-size="14.00">is_core_resource_address</text>
</g>
<!-- system_addresses::assert_core_resource_address&#45;&gt;system_addresses::is_core_resource_address -->
<g id="edge13" class="edge">
<title>system_addresses::assert_core_resource_address&#45;&gt;system_addresses::is_core_resource_address</title>
<path fill="none" stroke="black" d="M131,-328.7C131,-320.67 131,-310.9 131,-301.8"/>
<polygon fill="black" stroke="black" points="134.5,-301.94 131,-291.94 127.5,-301.94 134.5,-301.94"/>
</g>
<!-- account::create_signer -->
<g id="node14" class="node">
<title>account::create_signer</title>
<ellipse fill="none" stroke="black" cx="1179" cy="-272" rx="57.69" ry="18"/>
<text text-anchor="middle" x="1179" y="-268.3" font-family="Times,serif" font-size="14.00">create_signer</text>
</g>
<!-- account::create_signer_with_capability&#45;&gt;account::create_signer -->
<g id="edge14" class="edge">
<title>account::create_signer_with_capability&#45;&gt;account::create_signer</title>
<path fill="none" stroke="black" d="M1179,-328.7C1179,-320.67 1179,-310.9 1179,-301.8"/>
<polygon fill="black" stroke="black" points="1182.5,-301.94 1179,-291.94 1175.5,-301.94 1182.5,-301.94"/>
</g>
<!-- option::extract -->
<g id="node15" class="node">
<title>option::extract</title>
<ellipse fill="none" stroke="black" cx="1140" cy="-189" rx="34.39" ry="18"/>
<text text-anchor="middle" x="1140" y="-185.3" font-family="Times,serif" font-size="14.00">extract</text>
</g>
<!-- simple_map::borrow&#45;&gt;option::extract -->
<g id="edge15" class="edge">
<title>simple_map::borrow&#45;&gt;option::extract</title>
<path fill="none" stroke="black" d="M1002.26,-333.92C1007.96,-330.34 1013.61,-326.02 1018,-321 1041.98,-293.59 1022.33,-268.45 1051,-246 1067.34,-233.21 1078.85,-248.06 1097,-238 1106.92,-232.5 1115.72,-223.83 1122.74,-215.37"/>
<polygon fill="black" stroke="black" points="1125.38,-217.68 1128.7,-207.62 1119.83,-213.41 1125.38,-217.68"/>
</g>
<!-- option::is_some -->
<g id="node16" class="node">
<title>option::is_some</title>
<ellipse fill="none" stroke="black" cx="994" cy="-117" rx="40.09" ry="18"/>
<text text-anchor="middle" x="994" y="-113.3" font-family="Times,serif" font-size="14.00">is_some</text>
</g>
<!-- simple_map::borrow&#45;&gt;option::is_some -->
<g id="edge16" class="edge">
<title>simple_map::borrow&#45;&gt;option::is_some</title>
<path fill="none" stroke="black" d="M955.03,-332.48C951.39,-329.2 948.11,-325.35 946,-321 915.32,-257.83 916.75,-227.29 945,-163 948.94,-154.03 955.65,-146.07 962.86,-139.42"/>
<polygon fill="black" stroke="black" points="964.84,-142.33 970.25,-133.23 960.34,-136.97 964.84,-142.33"/>
</g>
<!-- error::invalid_argument -->
<g id="node17" class="node">
<title>error::invalid_argument</title>
<ellipse fill="none" stroke="black" cx="825" cy="-272" rx="73.39" ry="18"/>
<text text-anchor="middle" x="825" y="-268.3" font-family="Times,serif" font-size="14.00">invalid_argument</text>
</g>
<!-- simple_map::borrow&#45;&gt;error::invalid_argument -->
<g id="edge17" class="edge">
<title>simple_map::borrow&#45;&gt;error::invalid_argument</title>
<path fill="none" stroke="black" d="M947.85,-335.76C936.51,-331.53 923.51,-326.36 912,-321 895.07,-313.12 876.89,-303.32 861.56,-294.63"/>
<polygon fill="black" stroke="black" points="863.66,-291.8 853.24,-289.86 860.18,-297.87 863.66,-291.8"/>
</g>
<!-- simple_map::find -->
<g id="node18" class="node">
<title>simple_map::find</title>
<ellipse fill="none" stroke="black" cx="982" cy="-272" rx="27" ry="18"/>
<text text-anchor="middle" x="982" y="-268.3" font-family="Times,serif" font-size="14.00">find</text>
</g>
<!-- simple_map::borrow&#45;&gt;simple_map::find -->
<g id="edge18" class="edge">
<title>simple_map::borrow&#45;&gt;simple_map::find</title>
<path fill="none" stroke="black" d="M978.18,-328.7C978.74,-320.67 979.4,-310.9 980.03,-301.8"/>
<polygon fill="black" stroke="black" points="983.51,-302.15 980.7,-291.94 976.53,-301.68 983.51,-302.15"/>
</g>
<!-- error::permission_denied&#45;&gt;error::canonical -->
<g id="edge19" class="edge">
<title>error::permission_denied&#45;&gt;error::canonical</title>
<path fill="none" stroke="black" d="M536.62,-255.19C563.24,-241.88 601.36,-222.82 629.51,-208.74"/>
<polygon fill="black" stroke="black" points="631.03,-211.9 638.41,-204.29 627.9,-205.64 631.03,-211.9"/>
</g>
<!-- option::extract&#45;&gt;option::is_some -->
<g id="edge20" class="edge">
<title>option::extract&#45;&gt;option::is_some</title>
<path fill="none" stroke="black" d="M1118.39,-174.79C1111.63,-170.83 1104.09,-166.59 1097,-163 1076.54,-152.62 1053.14,-142.29 1033.83,-134.14"/>
<polygon fill="black" stroke="black" points="1035.24,-130.94 1024.67,-130.32 1032.55,-137.4 1035.24,-130.94"/>
</g>
<!-- vector::is_empty -->
<g id="node19" class="node">
<title>vector::is_empty</title>
<ellipse fill="none" stroke="black" cx="985" cy="-34" rx="43.59" ry="18"/>
<text text-anchor="middle" x="985" y="-30.3" font-family="Times,serif" font-size="14.00">is_empty</text>
</g>
<!-- option::is_some&#45;&gt;vector::is_empty -->
<g id="edge21" class="edge">
<title>option::is_some&#45;&gt;vector::is_empty</title>
<path fill="none" stroke="black" d="M992.09,-98.82C990.95,-88.58 989.48,-75.33 988.17,-63.55"/>
<polygon fill="black" stroke="black" points="991.69,-63.49 987.1,-53.94 984.73,-64.26 991.69,-63.49"/>
</g>
<!-- error::invalid_argument&#45;&gt;error::canonical -->
<g id="edge22" class="edge">
<title>error::invalid_argument&#45;&gt;error::canonical</title>
<path fill="none" stroke="black" d="M794.16,-255.19C768.28,-241.92 731.25,-222.94 703.82,-208.87"/>
<polygon fill="black" stroke="black" points="705.66,-205.89 695.16,-204.44 702.47,-212.12 705.66,-205.89"/>
</g>
<!-- option::none -->
<g id="node20" class="node">
<title>option::none</title>
<ellipse fill="none" stroke="black" cx="1060" cy="-189" rx="27.9" ry="18"/>
<text text-anchor="middle" x="1060" y="-185.3" font-family="Times,serif" font-size="14.00">none</text>
</g>
<!-- simple_map::find&#45;&gt;option::none -->
<g id="edge23" class="edge">
<title>simple_map::find&#45;&gt;option::none</title>
<path fill="none" stroke="black" d="M999.93,-258.05C1007.41,-252.28 1015.97,-245.18 1023,-238 1029.83,-231.02 1036.57,-222.8 1042.39,-215.14"/>
<polygon fill="black" stroke="black" points="1045.2,-217.24 1048.31,-207.11 1039.56,-213.09 1045.2,-217.24"/>
</g>
<!-- option::some -->
<g id="node21" class="node">
<title>option::some</title>
<ellipse fill="none" stroke="black" cx="984" cy="-189" rx="29.8" ry="18"/>
<text text-anchor="middle" x="984" y="-185.3" font-family="Times,serif" font-size="14.00">some</text>
</g>
<!-- simple_map::find&#45;&gt;option::some -->
<g id="edge24" class="edge">
<title>simple_map::find&#45;&gt;option::some</title>
<path fill="none" stroke="black" d="M982.42,-253.82C982.67,-243.69 983,-230.6 983.29,-218.92"/>
<polygon fill="black" stroke="black" points="986.78,-219.03 983.53,-208.95 979.79,-218.86 986.78,-219.03"/>
</g>
<!-- vector::singleton -->
<g id="node22" class="node">
<title>vector::singleton</title>
<ellipse fill="none" stroke="black" cx="1089" cy="-34" rx="42.79" ry="18"/>
<text text-anchor="middle" x="1089" y="-30.3" font-family="Times,serif" font-size="14.00">singleton</text>
</g>
<!-- option::some&#45;&gt;vector::singleton -->
<g id="edge25" class="edge">
<title>option::some&#45;&gt;vector::singleton</title>
<path fill="none" stroke="black" d="M1002.59,-174.56C1015.23,-164.71 1031.65,-150.41 1043,-135 1059.36,-112.8 1071.89,-83.86 1079.71,-62.83"/>
<polygon fill="black" stroke="black" points="1082.98,-64.07 1083.06,-53.48 1076.39,-61.71 1082.98,-64.07"/>
</g>
</g>
</svg>
