<?xml version="1.0" encoding="UTF-8" standalone="no"?>
<!DOCTYPE svg PUBLIC "-//W3C//DTD SVG 1.1//EN"
 "http://www.w3.org/Graphics/SVG/1.1/DTD/svg11.dtd">
<!-- Generated by graphviz version 7.0.4 (20221203.1631)
 -->
<!-- Title: G Pages: 1 -->
<svg width="187pt" height="218pt"
 viewBox="0.00 0.00 187.00 218.00" xmlns="http://www.w3.org/2000/svg" xmlns:xlink="http://www.w3.org/1999/xlink">
<g id="graph0" class="graph" transform="scale(1 1) rotate(0) translate(4 214)">
<title>G</title>
<polygon fill="white" stroke="none" points="-4,4 -4,-214 183,-214 183,4 -4,4"/>
<g id="clust1" class="cluster">
<title>cluster_option</title>
<polygon fill="none" stroke="black" points="21,-91 21,-166 171,-166 171,-91 21,-91"/>
<text text-anchor="middle" x="96" y="-150.8" font-family="Times,serif" font-size="14.00">option</text>
</g>
<g id="clust2" class="cluster">
<title>cluster_vector</title>
<polygon fill="none" stroke="black" points="8,-8 8,-83 110,-83 110,-8 8,-8"/>
<text text-anchor="middle" x="59" y="-67.8" font-family="Times,serif" font-size="14.00">vector</text>
</g>
<!-- find_delegation -->
<g id="node1" class="node">
<title>find_delegation</title>
<ellipse fill="none" stroke="black" cx="97" cy="-192" rx="65.79" ry="18"/>
<text text-anchor="middle" x="97" y="-188.3" font-family="Times,serif" font-size="14.00">find_delegation</text>
</g>
<!-- option::none -->
<g id="node2" class="node">
<title>option::none</title>
<ellipse fill="none" stroke="black" cx="135" cy="-117" rx="27.9" ry="18"/>
<text text-anchor="middle" x="135" y="-113.3" font-family="Times,serif" font-size="14.00">none</text>
</g>
<!-- find_delegation&#45;&gt;option::none -->
<g id="edge1" class="edge">
<title>find_delegation&#45;&gt;option::none</title>
<path fill="none" stroke="black" d="M106.01,-173.7C110.58,-164.91 116.24,-154.03 121.34,-144.24"/>
<polygon fill="black" stroke="black" points="124.37,-146 125.88,-135.52 118.16,-142.77 124.37,-146"/>
</g>
<!-- option::some -->
<g id="node3" class="node">
<title>option::some</title>
<ellipse fill="none" stroke="black" cx="59" cy="-117" rx="29.8" ry="18"/>
<text text-anchor="middle" x="59" y="-113.3" font-family="Times,serif" font-size="14.00">some</text>
</g>
<!-- find_delegation&#45;&gt;option::some -->
<g id="edge2" class="edge">
<title>find_delegation&#45;&gt;option::some</title>
<path fill="none" stroke="black" d="M87.99,-173.7C83.48,-165.03 77.92,-154.34 72.87,-144.65"/>
<polygon fill="black" stroke="black" points="76.1,-143.27 68.38,-136.02 69.89,-146.5 76.1,-143.27"/>
</g>
<!-- vector::singleton -->
<g id="node4" class="node">
<title>vector::singleton</title>
<ellipse fill="none" stroke="black" cx="59" cy="-34" rx="42.79" ry="18"/>
<text text-anchor="middle" x="59" y="-30.3" font-family="Times,serif" font-size="14.00">singleton</text>
</g>
<!-- option::some&#45;&gt;vector::singleton -->
<g id="edge3" class="edge">
<title>option::some&#45;&gt;vector::singleton</title>
<path fill="none" stroke="black" d="M59,-98.82C59,-88.69 59,-75.6 59,-63.92"/>
<polygon fill="black" stroke="black" points="62.5,-63.95 59,-53.95 55.5,-63.95 62.5,-63.95"/>
</g>
</g>
</svg>
