<?xml version="1.0" encoding="UTF-8" standalone="no"?>
<!DOCTYPE svg PUBLIC "-//W3C//DTD SVG 1.1//EN"
 "http://www.w3.org/Graphics/SVG/1.1/DTD/svg11.dtd">
<!-- Generated by graphviz version 7.0.4 (20221203.1631)
 -->
<!-- Title: G Pages: 1 -->
<svg width="516pt" height="365pt"
 viewBox="0.00 0.00 515.96 365.00" xmlns="http://www.w3.org/2000/svg" xmlns:xlink="http://www.w3.org/1999/xlink">
<g id="graph0" class="graph" transform="scale(1 1) rotate(0) translate(4 361)">
<title>G</title>
<polygon fill="white" stroke="none" points="-4,4 -4,-361 511.96,-361 511.96,4 -4,4"/>
<g id="clust1" class="cluster">
<title>cluster_vector</title>
<polygon fill="none" stroke="black" points="8,-8 8,-155 248,-155 248,-8 8,-8"/>
<text text-anchor="middle" x="128" y="-139.8" font-family="Times,serif" font-size="14.00">vector</text>
</g>
<g id="clust2" class="cluster">
<title>cluster_option</title>
<polygon fill="none" stroke="black" points="256,-80 256,-238 496,-238 496,-80 256,-80"/>
<text text-anchor="middle" x="376" y="-222.8" font-family="Times,serif" font-size="14.00">option</text>
</g>
<g id="clust3" class="cluster">
<title>cluster_signer</title>
<polygon fill="none" stroke="black" points="98,-163 98,-313 248,-313 248,-163 98,-163"/>
<text text-anchor="middle" x="173" y="-297.8" font-family="Times,serif" font-size="14.00">signer</text>
</g>
<!-- claim_mint_capability -->
<g id="node1" class="node">
<title>claim_mint_capability</title>
<ellipse fill="none" stroke="black" cx="294" cy="-339" rx="90.98" ry="18"/>
<text text-anchor="middle" x="294" y="-335.3" font-family="Times,serif" font-size="14.00">claim_mint_capability</text>
</g>
<!-- vector::swap_remove -->
<g id="node2" class="node">
<title>vector::swap_remove</title>
<ellipse fill="none" stroke="black" cx="76" cy="-106" rx="59.59" ry="18"/>
<text text-anchor="middle" x="76" y="-102.3" font-family="Times,serif" font-size="14.00">swap_remove</text>
</g>
<!-- claim_mint_capability&#45;&gt;vector::swap_remove -->
<g id="edge1" class="edge">
<title>claim_mint_capability&#45;&gt;vector::swap_remove</title>
<path fill="none" stroke="black" d="M202.95,-337.46C157.6,-335.13 109.24,-328.81 94,-313 48.14,-265.4 58.93,-179.71 68.61,-135.34"/>
<polygon fill="black" stroke="black" points="72,-136.25 70.86,-125.72 65.18,-134.66 72,-136.25"/>
</g>
<!-- option::borrow -->
<g id="node3" class="node">
<title>option::borrow</title>
<ellipse fill="none" stroke="black" cx="300" cy="-189" rx="36.29" ry="18"/>
<text text-anchor="middle" x="300" y="-185.3" font-family="Times,serif" font-size="14.00">borrow</text>
</g>
<!-- claim_mint_capability&#45;&gt;option::borrow -->
<g id="edge2" class="edge">
<title>claim_mint_capability&#45;&gt;option::borrow</title>
<path fill="none" stroke="black" d="M294.7,-320.73C295.72,-295.67 297.61,-248.9 298.84,-218.63"/>
<polygon fill="black" stroke="black" points="302.34,-218.8 299.24,-208.67 295.34,-218.52 302.34,-218.8"/>
</g>
<!-- option::is_some -->
<g id="node4" class="node">
<title>option::is_some</title>
<ellipse fill="none" stroke="black" cx="304" cy="-106" rx="40.09" ry="18"/>
<text text-anchor="middle" x="304" y="-102.3" font-family="Times,serif" font-size="14.00">is_some</text>
</g>
<!-- claim_mint_capability&#45;&gt;option::is_some -->
<g id="edge3" class="edge">
<title>claim_mint_capability&#45;&gt;option::is_some</title>
<path fill="none" stroke="black" d="M379.85,-332.85C414.51,-329.25 449.5,-323.18 463,-313 492.22,-290.97 489.27,-273.77 497,-238 504.04,-205.42 517.02,-189.65 497,-163 479.66,-139.92 404.09,-123.28 352.82,-114.4"/>
<polygon fill="black" stroke="black" points="353.57,-110.97 343.13,-112.76 352.41,-117.88 353.57,-110.97"/>
</g>
<!-- signer::address_of -->
<g id="node5" class="node">
<title>signer::address_of</title>
<ellipse fill="none" stroke="black" cx="182" cy="-264" rx="48.99" ry="18"/>
<text text-anchor="middle" x="182" y="-260.3" font-family="Times,serif" font-size="14.00">address_of</text>
</g>
<!-- claim_mint_capability&#45;&gt;signer::address_of -->
<g id="edge4" class="edge">
<title>claim_mint_capability&#45;&gt;signer::address_of</title>
<path fill="none" stroke="black" d="M268.3,-321.25C252.43,-310.91 231.91,-297.53 214.86,-286.42"/>
<polygon fill="black" stroke="black" points="216.85,-283.53 206.56,-281.01 213.02,-289.4 216.85,-283.53"/>
</g>
<!-- find_delegation -->
<g id="node6" class="node">
<title>find_delegation</title>
<ellipse fill="none" stroke="black" cx="388" cy="-264" rx="65.79" ry="18"/>
<text text-anchor="middle" x="388" y="-260.3" font-family="Times,serif" font-size="14.00">find_delegation</text>
</g>
<!-- claim_mint_capability&#45;&gt;find_delegation -->
<g id="edge5" class="edge">
<title>claim_mint_capability&#45;&gt;find_delegation</title>
<path fill="none" stroke="black" d="M315.8,-321.07C328.32,-311.35 344.22,-299 357.91,-288.37"/>
<polygon fill="black" stroke="black" points="360.02,-291.16 365.77,-282.27 355.72,-285.63 360.02,-291.16"/>
</g>
<!-- vector::is_empty -->
<g id="node7" class="node">
<title>vector::is_empty</title>
<ellipse fill="none" stroke="black" cx="136" cy="-34" rx="43.59" ry="18"/>
<text text-anchor="middle" x="136" y="-30.3" font-family="Times,serif" font-size="14.00">is_empty</text>
</g>
<!-- vector::swap_remove&#45;&gt;vector::is_empty -->
<g id="edge6" class="edge">
<title>vector::swap_remove&#45;&gt;vector::is_empty</title>
<path fill="none" stroke="black" d="M90.52,-88.05C97.78,-79.59 106.69,-69.19 114.7,-59.84"/>
<polygon fill="black" stroke="black" points="117.19,-62.33 121.04,-52.46 111.87,-57.77 117.19,-62.33"/>
</g>
<!-- option::borrow&#45;&gt;option::is_some -->
<g id="edge7" class="edge">
<title>option::borrow&#45;&gt;option::is_some</title>
<path fill="none" stroke="black" d="M300.85,-170.82C301.35,-160.69 302,-147.6 302.57,-135.92"/>
<polygon fill="black" stroke="black" points="306.07,-136.1 303.06,-125.94 299.08,-135.76 306.07,-136.1"/>
</g>
<!-- option::is_some&#45;&gt;vector::is_empty -->
<g id="edge8" class="edge">
<title>option::is_some&#45;&gt;vector::is_empty</title>
<path fill="none" stroke="black" d="M278,-92.01C269.75,-88.02 260.55,-83.71 252,-80 227.93,-69.56 200.58,-58.9 178.49,-50.57"/>
<polygon fill="black" stroke="black" points="179.79,-47.32 169.2,-47.1 177.34,-53.88 179.79,-47.32"/>
</g>
<!-- signer::borrow_address -->
<g id="node8" class="node">
<title>signer::borrow_address</title>
<ellipse fill="none" stroke="black" cx="173" cy="-189" rx="66.89" ry="18"/>
<text text-anchor="middle" x="173" y="-185.3" font-family="Times,serif" font-size="14.00">borrow_address</text>
</g>
<!-- signer::address_of&#45;&gt;signer::borrow_address -->
<g id="edge9" class="edge">
<title>signer::address_of&#45;&gt;signer::borrow_address</title>
<path fill="none" stroke="black" d="M179.87,-245.7C178.88,-237.67 177.67,-227.9 176.55,-218.8"/>
<polygon fill="black" stroke="black" points="180.03,-218.43 175.33,-208.93 173.08,-219.28 180.03,-218.43"/>
</g>
<!-- option::none -->
<g id="node9" class="node">
<title>option::none</title>
<ellipse fill="none" stroke="black" cx="382" cy="-189" rx="27.9" ry="18"/>
<text text-anchor="middle" x="382" y="-185.3" font-family="Times,serif" font-size="14.00">none</text>
</g>
<!-- find_delegation&#45;&gt;option::none -->
<g id="edge10" class="edge">
<title>find_delegation&#45;&gt;option::none</title>
<path fill="none" stroke="black" d="M386.58,-245.7C385.92,-237.67 385.12,-227.9 384.37,-218.8"/>
<polygon fill="black" stroke="black" points="387.86,-218.62 383.56,-208.94 380.89,-219.19 387.86,-218.62"/>
</g>
<!-- option::some -->
<g id="node10" class="node">
<title>option::some</title>
<ellipse fill="none" stroke="black" cx="458" cy="-189" rx="29.8" ry="18"/>
<text text-anchor="middle" x="458" y="-185.3" font-family="Times,serif" font-size="14.00">some</text>
</g>
<!-- find_delegation&#45;&gt;option::some -->
<g id="edge11" class="edge">
<title>find_delegation&#45;&gt;option::some</title>
<path fill="none" stroke="black" d="M409.52,-246.63C412.8,-243.86 416.06,-240.93 419,-238 426.14,-230.89 433.28,-222.54 439.47,-214.82"/>
<polygon fill="black" stroke="black" points="442.16,-217.06 445.55,-207.03 436.64,-212.76 442.16,-217.06"/>
</g>
<!-- vector::singleton -->
<g id="node11" class="node">
<title>vector::singleton</title>
<ellipse fill="none" stroke="black" cx="197" cy="-106" rx="42.79" ry="18"/>
<text text-anchor="middle" x="197" y="-102.3" font-family="Times,serif" font-size="14.00">singleton</text>
</g>
<!-- option::some&#45;&gt;vector::singleton -->
<g id="edge12" class="edge">
<title>option::some&#45;&gt;vector::singleton</title>
<path fill="none" stroke="black" d="M440.74,-174.19C434.29,-169.8 426.66,-165.45 419,-163 383.61,-151.7 286.47,-168.87 252,-155 239.4,-149.93 227.71,-140.69 218.37,-131.66"/>
<polygon fill="black" stroke="black" points="221.04,-129.38 211.56,-124.64 216.01,-134.25 221.04,-129.38"/>
</g>
</g>
</svg>
