<?xml version="1.0" encoding="UTF-8" standalone="no"?>
<!DOCTYPE svg PUBLIC "-//W3C//DTD SVG 1.1//EN"
 "http://www.w3.org/Graphics/SVG/1.1/DTD/svg11.dtd">
<!-- Generated by graphviz version 7.0.4 (20221203.1631)
 -->
<!-- Title: G Pages: 1 -->
<svg width="580pt" height="116pt"
 viewBox="0.00 0.00 580.44 116.00" xmlns="http://www.w3.org/2000/svg" xmlns:xlink="http://www.w3.org/1999/xlink">
<g id="graph0" class="graph" transform="scale(1 1) rotate(0) translate(4 112)">
<title>G</title>
<polygon fill="white" stroke="none" points="-4,4 -4,-112 576.44,-112 576.44,4 -4,4"/>
<!-- add_approved_script_hash -->
<g id="node1" class="node">
<title>add_approved_script_hash</title>
<ellipse fill="none" stroke="black" cx="201" cy="-18" rx="104.78" ry="18"/>
<text text-anchor="middle" x="201" y="-14.3" font-family="Times,serif" font-size="14.00">add_approved_script_hash</text>
</g>
<!-- vote -->
<g id="node2" class="node">
<title>vote</title>
<ellipse fill="none" stroke="black" cx="27" cy="-90" rx="27" ry="18"/>
<text text-anchor="middle" x="27" y="-86.3" font-family="Times,serif" font-size="14.00">vote</text>
</g>
<!-- vote&#45;&gt;add_approved_script_hash -->
<g id="edge1" class="edge">
<title>vote&#45;&gt;add_approved_script_hash</title>
<path fill="none" stroke="black" d="M48.2,-78.67C53.03,-76.4 58.17,-74.06 63,-72 90.36,-60.31 121.24,-48.33 146.85,-38.73"/>
<polygon fill="black" stroke="black" points="147.9,-42.07 156.05,-35.3 145.46,-35.51 147.9,-42.07"/>
</g>
<!-- add_approved_script_hash_script -->
<g id="node3" class="node">
<title>add_approved_script_hash_script</title>
<ellipse fill="none" stroke="black" cx="201" cy="-90" rx="128.88" ry="18"/>
<text text-anchor="middle" x="201" y="-86.3" font-family="Times,serif" font-size="14.00">add_approved_script_hash_script</text>
</g>
<!-- add_approved_script_hash_script&#45;&gt;add_approved_script_hash -->
<g id="edge2" class="edge">
<title>add_approved_script_hash_script&#45;&gt;add_approved_script_hash</title>
<path fill="none" stroke="black" d="M201,-71.7C201,-64.41 201,-55.73 201,-47.54"/>
<polygon fill="black" stroke="black" points="204.5,-47.62 201,-37.62 197.5,-47.62 204.5,-47.62"/>
</g>
<!-- resolve_multi_step_proposal -->
<g id="node4" class="node">
<title>resolve_multi_step_proposal</title>
<ellipse fill="none" stroke="black" cx="460" cy="-90" rx="112.38" ry="18"/>
<text text-anchor="middle" x="460" y="-86.3" font-family="Times,serif" font-size="14.00">resolve_multi_step_proposal</text>
</g>
<!-- resolve_multi_step_proposal&#45;&gt;add_approved_script_hash -->
<g id="edge3" class="edge">
<title>resolve_multi_step_proposal&#45;&gt;add_approved_script_hash</title>
<path fill="none" stroke="black" d="M404.44,-73.98C364.05,-63.07 309.23,-48.25 266.68,-36.75"/>
<polygon fill="black" stroke="black" points="267.61,-33.38 257.04,-34.15 265.78,-40.13 267.61,-33.38"/>
</g>
</g>
</svg>
