<?xml version="1.0" encoding="UTF-8" standalone="no"?>
<!DOCTYPE svg PUBLIC "-//W3C//DTD SVG 1.1//EN"
 "http://www.w3.org/Graphics/SVG/1.1/DTD/svg11.dtd">
<!-- Generated by graphviz version 7.0.4 (20221203.1631)
 -->
<!-- Title: G Pages: 1 -->
<svg width="2041pt" height="603pt"
 viewBox="0.00 0.00 2040.80 603.00" xmlns="http://www.w3.org/2000/svg" xmlns:xlink="http://www.w3.org/1999/xlink">
<g id="graph0" class="graph" transform="scale(1 1) rotate(0) translate(4 599)">
<title>G</title>
<polygon fill="white" stroke="none" points="-4,4 -4,-599 2036.8,-599 2036.8,4 -4,4"/>
<g id="clust1" class="cluster">
<title>cluster_coin</title>
<polygon fill="none" stroke="black" points="1357,-257 1357,-407 1718,-407 1718,-257 1357,-257"/>
<text text-anchor="middle" x="1537.5" y="-391.8" font-family="Times,serif" font-size="14.00">coin</text>
</g>
<g id="clust2" class="cluster">
<title>cluster_signer</title>
<polygon fill="none" stroke="black" points="1059,-8 1059,-166 1209,-166 1209,-8 1059,-8"/>
<text text-anchor="middle" x="1134" y="-150.8" font-family="Times,serif" font-size="14.00">signer</text>
</g>
<g id="clust3" class="cluster">
<title>cluster_error</title>
<polygon fill="none" stroke="black" points="1217,-8 1217,-166 1804,-166 1804,-8 1217,-8"/>
<text text-anchor="middle" x="1510.5" y="-150.8" font-family="Times,serif" font-size="14.00">error</text>
</g>
<g id="clust4" class="cluster">
<title>cluster_event</title>
<polygon fill="none" stroke="black" points="8,-8 8,-166 296,-166 296,-8 8,-8"/>
<text text-anchor="middle" x="152" y="-150.8" font-family="Times,serif" font-size="14.00">event</text>
</g>
<g id="clust5" class="cluster">
<title>cluster_account</title>
<polygon fill="none" stroke="black" points="504,-91 504,-332 1051,-332 1051,-91 504,-91"/>
<text text-anchor="middle" x="777.5" y="-316.8" font-family="Times,serif" font-size="14.00">account</text>
</g>
<g id="clust6" class="cluster">
<title>cluster_bcs</title>
<polygon fill="none" stroke="black" points="304,-8 304,-83 400,-83 400,-8 304,-8"/>
<text text-anchor="middle" x="352" y="-67.8" font-family="Times,serif" font-size="14.00">bcs</text>
</g>
<g id="clust7" class="cluster">
<title>cluster_type_info</title>
<polygon fill="none" stroke="black" points="404,-174 404,-249 496,-249 496,-174 404,-174"/>
<text text-anchor="middle" x="450" y="-233.8" font-family="Times,serif" font-size="14.00">type_info</text>
</g>
<g id="clust8" class="cluster">
<title>cluster_guid</title>
<polygon fill="none" stroke="black" points="336,-91 336,-166 416,-166 416,-91 336,-91"/>
<text text-anchor="middle" x="376" y="-150.8" font-family="Times,serif" font-size="14.00">guid</text>
</g>
<g id="clust9" class="cluster">
<title>cluster_option</title>
<polygon fill="none" stroke="black" points="424,-91 424,-166 496,-166 496,-91 424,-91"/>
<text text-anchor="middle" x="460" y="-150.8" font-family="Times,serif" font-size="14.00">option</text>
</g>
<!-- transfer_coins -->
<g id="node1" class="node">
<title>transfer_coins</title>
<ellipse fill="none" stroke="black" cx="1810" cy="-577" rx="60.39" ry="18"/>
<text text-anchor="middle" x="1810" y="-573.3" font-family="Times,serif" font-size="14.00">transfer_coins</text>
</g>
<!-- coin::withdraw -->
<g id="node2" class="node">
<title>coin::withdraw</title>
<ellipse fill="none" stroke="black" cx="1501" cy="-358" rx="44.39" ry="18"/>
<text text-anchor="middle" x="1501" y="-354.3" font-family="Times,serif" font-size="14.00">withdraw</text>
</g>
<!-- transfer_coins&#45;&gt;coin::withdraw -->
<g id="edge1" class="edge">
<title>transfer_coins&#45;&gt;coin::withdraw</title>
<path fill="none" stroke="black" d="M1851.32,-563.46C1928.24,-538.22 2080.18,-478.26 2018,-415 2008.98,-405.83 1566.98,-411.67 1555,-407 1542.3,-402.04 1530.64,-392.64 1521.44,-383.46"/>
<polygon fill="black" stroke="black" points="1524.15,-381.23 1514.75,-376.33 1519.04,-386.02 1524.15,-381.23"/>
</g>
<!-- deposit_coins -->
<g id="node3" class="node">
<title>deposit_coins</title>
<ellipse fill="none" stroke="black" cx="1600" cy="-505" rx="59.29" ry="18"/>
<text text-anchor="middle" x="1600" y="-501.3" font-family="Times,serif" font-size="14.00">deposit_coins</text>
</g>
<!-- transfer_coins&#45;&gt;deposit_coins -->
<g id="edge2" class="edge">
<title>transfer_coins&#45;&gt;deposit_coins</title>
<path fill="none" stroke="black" d="M1770.99,-563C1736.66,-551.55 1686.5,-534.83 1649.38,-522.46"/>
<polygon fill="black" stroke="black" points="1650.83,-519.25 1640.23,-519.41 1648.61,-525.89 1650.83,-519.25"/>
</g>
<!-- signer::address_of -->
<g id="node4" class="node">
<title>signer::address_of</title>
<ellipse fill="none" stroke="black" cx="1125" cy="-117" rx="48.99" ry="18"/>
<text text-anchor="middle" x="1125" y="-113.3" font-family="Times,serif" font-size="14.00">address_of</text>
</g>
<!-- coin::withdraw&#45;&gt;signer::address_of -->
<g id="edge3" class="edge">
<title>coin::withdraw&#45;&gt;signer::address_of</title>
<path fill="none" stroke="black" d="M1468.83,-345.21C1462.03,-343.13 1454.85,-341.24 1448,-340 1430.27,-336.78 1301.92,-340.44 1286,-332 1208.24,-290.76 1157.44,-193.48 1136.25,-145.6"/>
<polygon fill="black" stroke="black" points="1139.49,-144.28 1132.33,-136.48 1133.06,-147.05 1139.49,-144.28"/>
</g>
<!-- error::not_found -->
<g id="node5" class="node">
<title>error::not_found</title>
<ellipse fill="none" stroke="black" cx="1577" cy="-117" rx="46.59" ry="18"/>
<text text-anchor="middle" x="1577" y="-113.3" font-family="Times,serif" font-size="14.00">not_found</text>
</g>
<!-- coin::withdraw&#45;&gt;error::not_found -->
<g id="edge4" class="edge">
<title>coin::withdraw&#45;&gt;error::not_found</title>
<path fill="none" stroke="black" d="M1468.83,-345.22C1462.03,-343.14 1454.84,-341.25 1448,-340 1431.04,-336.9 1304.88,-344.5 1293,-332 1287.35,-326.05 1294.95,-175.05 1296,-174 1313.69,-156.32 1497.7,-175.09 1521,-166 1533.79,-161.01 1545.68,-151.78 1555.19,-142.74"/>
<polygon fill="black" stroke="black" points="1557.61,-145.27 1562.15,-135.7 1552.63,-140.35 1557.61,-145.27"/>
</g>
<!-- error::permission_denied -->
<g id="node6" class="node">
<title>error::permission_denied</title>
<ellipse fill="none" stroke="black" cx="1719" cy="-117" rx="77.19" ry="18"/>
<text text-anchor="middle" x="1719" y="-113.3" font-family="Times,serif" font-size="14.00">permission_denied</text>
</g>
<!-- coin::withdraw&#45;&gt;error::permission_denied -->
<g id="edge5" class="edge">
<title>coin::withdraw&#45;&gt;error::permission_denied</title>
<path fill="none" stroke="black" d="M1468.52,-345.23C1461.81,-343.19 1454.74,-341.3 1448,-340 1435.64,-337.62 1343.58,-341.21 1335,-332 1286.63,-280.08 1302.15,-217.78 1358,-174 1370.03,-164.57 1618.27,-170.06 1633,-166 1652.07,-160.74 1671.46,-150.44 1686.99,-140.72"/>
<polygon fill="black" stroke="black" points="1688.85,-143.68 1695.33,-135.3 1685.04,-137.81 1688.85,-143.68"/>
</g>
<!-- event::emit_event -->
<g id="node7" class="node">
<title>event::emit_event</title>
<ellipse fill="none" stroke="black" cx="66" cy="-117" rx="50.09" ry="18"/>
<text text-anchor="middle" x="66" y="-113.3" font-family="Times,serif" font-size="14.00">emit_event</text>
</g>
<!-- coin::withdraw&#45;&gt;event::emit_event -->
<g id="edge6" class="edge">
<title>coin::withdraw&#45;&gt;event::emit_event</title>
<path fill="none" stroke="black" d="M1469.15,-345.06C1462.27,-342.97 1454.97,-341.11 1448,-340 1429.54,-337.06 116.24,-344.12 102,-332 48.42,-286.41 53.85,-193.46 60.71,-146.5"/>
<polygon fill="black" stroke="black" points="64.14,-147.27 62.26,-136.84 57.22,-146.16 64.14,-147.27"/>
</g>
<!-- coin::extract -->
<g id="node8" class="node">
<title>coin::extract</title>
<ellipse fill="none" stroke="black" cx="1399" cy="-283" rx="34.39" ry="18"/>
<text text-anchor="middle" x="1399" y="-279.3" font-family="Times,serif" font-size="14.00">extract</text>
</g>
<!-- coin::withdraw&#45;&gt;coin::extract -->
<g id="edge7" class="edge">
<title>coin::withdraw&#45;&gt;coin::extract</title>
<path fill="none" stroke="black" d="M1468.11,-345.67C1459.54,-341.97 1450.6,-337.4 1443,-332 1434.03,-325.62 1425.52,-317.15 1418.41,-309.11"/>
<polygon fill="black" stroke="black" points="1421.13,-306.9 1412.02,-301.49 1415.77,-311.4 1421.13,-306.9"/>
</g>
<!-- coin::is_account_registered -->
<g id="node9" class="node">
<title>coin::is_account_registered</title>
<ellipse fill="none" stroke="black" cx="1539" cy="-283" rx="87.18" ry="18"/>
<text text-anchor="middle" x="1539" y="-279.3" font-family="Times,serif" font-size="14.00">is_account_registered</text>
</g>
<!-- coin::withdraw&#45;&gt;coin::is_account_registered -->
<g id="edge8" class="edge">
<title>coin::withdraw&#45;&gt;coin::is_account_registered</title>
<path fill="none" stroke="black" d="M1509.81,-340.07C1514.26,-331.53 1519.76,-320.97 1524.78,-311.32"/>
<polygon fill="black" stroke="black" points="1527.76,-313.18 1529.27,-302.69 1521.55,-309.94 1527.76,-313.18"/>
</g>
<!-- deposit_coins&#45;&gt;error::permission_denied -->
<g id="edge9" class="edge">
<title>deposit_coins&#45;&gt;error::permission_denied</title>
<path fill="none" stroke="black" d="M1631.5,-489.32C1661.04,-473.61 1703.36,-445.63 1722,-407 1763.96,-320.03 1741.14,-200.5 1727.22,-146.51"/>
<polygon fill="black" stroke="black" points="1730.61,-145.64 1724.64,-136.89 1723.85,-147.46 1730.61,-145.64"/>
</g>
<!-- deposit_coins&#45;&gt;coin::is_account_registered -->
<g id="edge13" class="edge">
<title>deposit_coins&#45;&gt;coin::is_account_registered</title>
<path fill="none" stroke="black" d="M1612.86,-486.99C1634.73,-455.82 1674.11,-388.3 1645,-340 1641.3,-333.86 1610.83,-318.08 1583.51,-304.84"/>
<polygon fill="black" stroke="black" points="1585.15,-301.74 1574.62,-300.57 1582.11,-308.05 1585.15,-301.74"/>
</g>
<!-- account::create_signer -->
<g id="node10" class="node">
<title>account::create_signer</title>
<ellipse fill="none" stroke="black" cx="801" cy="-117" rx="57.69" ry="18"/>
<text text-anchor="middle" x="801" y="-113.3" font-family="Times,serif" font-size="14.00">create_signer</text>
</g>
<!-- deposit_coins&#45;&gt;account::create_signer -->
<g id="edge10" class="edge">
<title>deposit_coins&#45;&gt;account::create_signer</title>
<path fill="none" stroke="black" d="M1544.01,-498.59C1488.14,-491.91 1400.55,-477.98 1329,-451 1230.79,-413.96 1207.7,-396.65 1125,-332 1088.35,-303.35 1088.97,-285.24 1052,-257 984.41,-205.37 895.33,-160.78 843.49,-136.81"/>
<polygon fill="black" stroke="black" points="845.25,-133.76 834.7,-132.78 842.33,-140.13 845.25,-133.76"/>
</g>
<!-- account::exists_at -->
<g id="node11" class="node">
<title>account::exists_at</title>
<ellipse fill="none" stroke="black" cx="554" cy="-283" rx="41.69" ry="18"/>
<text text-anchor="middle" x="554" y="-279.3" font-family="Times,serif" font-size="14.00">exists_at</text>
</g>
<!-- deposit_coins&#45;&gt;account::exists_at -->
<g id="edge11" class="edge">
<title>deposit_coins&#45;&gt;account::exists_at</title>
<path fill="none" stroke="black" d="M1541.72,-501.37C1441.84,-496.17 1231.82,-482.29 1057,-451 852.09,-414.33 785.58,-433.79 604,-332 593.29,-326 583.18,-317.16 574.89,-308.7"/>
<polygon fill="black" stroke="black" points="577.65,-306.53 568.28,-301.59 572.53,-311.29 577.65,-306.53"/>
</g>
<!-- coin::deposit -->
<g id="node12" class="node">
<title>coin::deposit</title>
<ellipse fill="none" stroke="black" cx="1600" cy="-358" rx="36.29" ry="18"/>
<text text-anchor="middle" x="1600" y="-354.3" font-family="Times,serif" font-size="14.00">deposit</text>
</g>
<!-- deposit_coins&#45;&gt;coin::deposit -->
<g id="edge12" class="edge">
<title>deposit_coins&#45;&gt;coin::deposit</title>
<path fill="none" stroke="black" d="M1600,-486.51C1600,-461.88 1600,-416.71 1600,-387.28"/>
<polygon fill="black" stroke="black" points="1603.5,-387.62 1600,-377.62 1596.5,-387.62 1603.5,-387.62"/>
</g>
<!-- coin::register -->
<g id="node13" class="node">
<title>coin::register</title>
<ellipse fill="none" stroke="black" cx="1402" cy="-358" rx="37.09" ry="18"/>
<text text-anchor="middle" x="1402" y="-354.3" font-family="Times,serif" font-size="14.00">register</text>
</g>
<!-- deposit_coins&#45;&gt;coin::register -->
<g id="edge14" class="edge">
<title>deposit_coins&#45;&gt;coin::register</title>
<path fill="none" stroke="black" d="M1581.35,-487.68C1557.97,-467.96 1515.95,-434.95 1475,-415 1463.75,-409.52 1458.69,-413.51 1448,-407 1438.16,-401 1428.99,-392.38 1421.48,-384.09"/>
<polygon fill="black" stroke="black" points="1424.16,-381.84 1415,-376.52 1418.84,-386.39 1424.16,-381.84"/>
</g>
<!-- create_account -->
<g id="node14" class="node">
<title>create_account</title>
<ellipse fill="none" stroke="black" cx="1402" cy="-433" rx="63.89" ry="18"/>
<text text-anchor="middle" x="1402" y="-429.3" font-family="Times,serif" font-size="14.00">create_account</text>
</g>
<!-- deposit_coins&#45;&gt;create_account -->
<g id="edge15" class="edge">
<title>deposit_coins&#45;&gt;create_account</title>
<path fill="none" stroke="black" d="M1562.29,-490.67C1530.8,-479.54 1485.68,-463.58 1451.33,-451.44"/>
<polygon fill="black" stroke="black" points="1452.6,-448.18 1442.01,-448.14 1450.27,-454.78 1452.6,-448.18"/>
</g>
<!-- can_receive_direct_coin_transfers -->
<g id="node15" class="node">
<title>can_receive_direct_coin_transfers</title>
<ellipse fill="none" stroke="black" cx="1878" cy="-433" rx="131.08" ry="18"/>
<text text-anchor="middle" x="1878" y="-429.3" font-family="Times,serif" font-size="14.00">can_receive_direct_coin_transfers</text>
</g>
<!-- deposit_coins&#45;&gt;can_receive_direct_coin_transfers -->
<g id="edge16" class="edge">
<title>deposit_coins&#45;&gt;can_receive_direct_coin_transfers</title>
<path fill="none" stroke="black" d="M1644.67,-492.75C1688.21,-481.79 1755.13,-464.94 1806.16,-452.09"/>
<polygon fill="black" stroke="black" points="1806.81,-455.54 1815.65,-449.7 1805.1,-448.75 1806.81,-455.54"/>
</g>
<!-- signer::borrow_address -->
<g id="node16" class="node">
<title>signer::borrow_address</title>
<ellipse fill="none" stroke="black" cx="1134" cy="-34" rx="66.89" ry="18"/>
<text text-anchor="middle" x="1134" y="-30.3" font-family="Times,serif" font-size="14.00">borrow_address</text>
</g>
<!-- signer::address_of&#45;&gt;signer::borrow_address -->
<g id="edge17" class="edge">
<title>signer::address_of&#45;&gt;signer::borrow_address</title>
<path fill="none" stroke="black" d="M1126.91,-98.82C1128.05,-88.58 1129.52,-75.33 1130.83,-63.55"/>
<polygon fill="black" stroke="black" points="1134.27,-64.26 1131.9,-53.94 1127.31,-63.49 1134.27,-64.26"/>
</g>
<!-- error::canonical -->
<g id="node17" class="node">
<title>error::canonical</title>
<ellipse fill="none" stroke="black" cx="1514" cy="-34" rx="44.39" ry="18"/>
<text text-anchor="middle" x="1514" y="-30.3" font-family="Times,serif" font-size="14.00">canonical</text>
</g>
<!-- error::not_found&#45;&gt;error::canonical -->
<g id="edge18" class="edge">
<title>error::not_found&#45;&gt;error::canonical</title>
<path fill="none" stroke="black" d="M1564.25,-99.61C1555.51,-88.37 1543.75,-73.25 1533.8,-60.46"/>
<polygon fill="black" stroke="black" points="1536.78,-58.58 1527.88,-52.84 1531.25,-62.88 1536.78,-58.58"/>
</g>
<!-- error::permission_denied&#45;&gt;error::canonical -->
<g id="edge19" class="edge">
<title>error::permission_denied&#45;&gt;error::canonical</title>
<path fill="none" stroke="black" d="M1680.92,-100.95C1645.2,-86.84 1591.91,-65.78 1555.2,-51.28"/>
<polygon fill="black" stroke="black" points="1556.84,-48.17 1546.26,-47.75 1554.27,-54.68 1556.84,-48.17"/>
</g>
<!-- bcs::to_bytes -->
<g id="node18" class="node">
<title>bcs::to_bytes</title>
<ellipse fill="none" stroke="black" cx="352" cy="-34" rx="40.09" ry="18"/>
<text text-anchor="middle" x="352" y="-30.3" font-family="Times,serif" font-size="14.00">to_bytes</text>
</g>
<!-- event::emit_event&#45;&gt;bcs::to_bytes -->
<g id="edge20" class="edge">
<title>event::emit_event&#45;&gt;bcs::to_bytes</title>
<path fill="none" stroke="black" d="M94.13,-101.68C103.68,-97.47 114.59,-93.36 125,-91 162.96,-82.38 264.08,-98 300,-83 312.03,-77.98 323.02,-68.87 331.76,-59.93"/>
<polygon fill="black" stroke="black" points="334.24,-62.41 338.4,-52.67 329.07,-57.69 334.24,-62.41"/>
</g>
<!-- event::write_to_event_store -->
<g id="node19" class="node">
<title>event::write_to_event_store</title>
<ellipse fill="none" stroke="black" cx="101" cy="-34" rx="85.29" ry="18"/>
<text text-anchor="middle" x="101" y="-30.3" font-family="Times,serif" font-size="14.00">write_to_event_store</text>
</g>
<!-- event::emit_event&#45;&gt;event::write_to_event_store -->
<g id="edge21" class="edge">
<title>event::emit_event&#45;&gt;event::write_to_event_store</title>
<path fill="none" stroke="black" d="M73.42,-98.82C77.97,-88.3 83.89,-74.59 89.09,-62.57"/>
<polygon fill="black" stroke="black" points="92.23,-64.11 92.99,-53.54 85.81,-61.33 92.23,-64.11"/>
</g>
<!-- error::invalid_argument -->
<g id="node20" class="node">
<title>error::invalid_argument</title>
<ellipse fill="none" stroke="black" cx="1298" cy="-117" rx="73.39" ry="18"/>
<text text-anchor="middle" x="1298" y="-113.3" font-family="Times,serif" font-size="14.00">invalid_argument</text>
</g>
<!-- coin::extract&#45;&gt;error::invalid_argument -->
<g id="edge22" class="edge">
<title>coin::extract&#45;&gt;error::invalid_argument</title>
<path fill="none" stroke="black" d="M1388.76,-265.37C1371.31,-237.03 1335.65,-179.14 1314.6,-144.95"/>
<polygon fill="black" stroke="black" points="1317.59,-143.13 1309.36,-136.45 1311.63,-146.8 1317.59,-143.13"/>
</g>
<!-- coin::deposit&#45;&gt;error::not_found -->
<g id="edge23" class="edge">
<title>coin::deposit&#45;&gt;error::not_found</title>
<path fill="none" stroke="black" d="M1573.17,-345.46C1566.98,-343.26 1560.35,-341.25 1554,-340 1541.4,-337.52 1331.92,-341.24 1323,-332 1272.82,-280.05 1301.22,-214.52 1361,-174 1375.73,-164.01 1504.47,-172.59 1521,-166 1533.75,-160.92 1545.64,-151.68 1555.16,-142.65"/>
<polygon fill="black" stroke="black" points="1557.57,-145.19 1562.12,-135.62 1552.59,-140.26 1557.57,-145.19"/>
</g>
<!-- coin::deposit&#45;&gt;error::permission_denied -->
<g id="edge24" class="edge">
<title>coin::deposit&#45;&gt;error::permission_denied</title>
<path fill="none" stroke="black" d="M1573.17,-345.49C1566.98,-343.28 1560.35,-341.27 1554,-340 1543.2,-337.84 1363.63,-339.94 1356,-332 1332.91,-307.96 1336.45,-284 1356,-257 1432,-152.04 1514.32,-218.04 1633,-166 1650.08,-158.51 1668.23,-148.68 1683.42,-139.88"/>
<polygon fill="black" stroke="black" points="1684.8,-143.13 1691.64,-135.04 1681.25,-137.1 1684.8,-143.13"/>
</g>
<!-- coin::deposit&#45;&gt;event::emit_event -->
<g id="edge25" class="edge">
<title>coin::deposit&#45;&gt;event::emit_event</title>
<path fill="none" stroke="black" d="M1573.2,-345.33C1567.01,-343.13 1560.37,-341.16 1554,-340 1496.4,-329.47 558.17,-338.74 500,-332 334.31,-312.81 266.02,-350.94 134,-249 100.52,-223.15 81.94,-176.16 72.97,-146.05"/>
<polygon fill="black" stroke="black" points="76.36,-145.18 70.3,-136.5 69.62,-147.07 76.36,-145.18"/>
</g>
<!-- coin::deposit&#45;&gt;coin::is_account_registered -->
<g id="edge26" class="edge">
<title>coin::deposit&#45;&gt;coin::is_account_registered</title>
<path fill="none" stroke="black" d="M1586.46,-340.8C1578.86,-331.7 1569.2,-320.14 1560.58,-309.82"/>
<polygon fill="black" stroke="black" points="1563.42,-307.76 1554.32,-302.33 1558.05,-312.25 1563.42,-307.76"/>
</g>
<!-- coin::merge -->
<g id="node21" class="node">
<title>coin::merge</title>
<ellipse fill="none" stroke="black" cx="1677" cy="-283" rx="33.29" ry="18"/>
<text text-anchor="middle" x="1677" y="-279.3" font-family="Times,serif" font-size="14.00">merge</text>
</g>
<!-- coin::deposit&#45;&gt;coin::merge -->
<g id="edge27" class="edge">
<title>coin::deposit&#45;&gt;coin::merge</title>
<path fill="none" stroke="black" d="M1621.34,-342.95C1626,-339.56 1630.79,-335.81 1635,-332 1642.79,-324.95 1650.57,-316.53 1657.28,-308.73"/>
<polygon fill="black" stroke="black" points="1659.91,-311.04 1663.64,-301.13 1654.54,-306.55 1659.91,-311.04"/>
</g>
<!-- coin::register&#45;&gt;signer::address_of -->
<g id="edge28" class="edge">
<title>coin::register&#45;&gt;signer::address_of</title>
<path fill="none" stroke="black" d="M1365.24,-355.36C1303.69,-352.27 1185.12,-344.73 1171,-332 1118.52,-284.71 1118,-193.26 1121.65,-146.72"/>
<polygon fill="black" stroke="black" points="1125.13,-147.17 1122.56,-136.89 1118.16,-146.53 1125.13,-147.17"/>
</g>
<!-- coin::register&#45;&gt;coin::is_account_registered -->
<g id="edge31" class="edge">
<title>coin::register&#45;&gt;coin::is_account_registered</title>
<path fill="none" stroke="black" d="M1426.18,-344.12C1446.25,-333.42 1475.23,-317.98 1498.79,-305.43"/>
<polygon fill="black" stroke="black" points="1500.33,-308.57 1507.51,-300.78 1497.04,-302.4 1500.33,-308.57"/>
</g>
<!-- account::new_event_handle -->
<g id="node22" class="node">
<title>account::new_event_handle</title>
<ellipse fill="none" stroke="black" cx="821" cy="-283" rx="76.89" ry="18"/>
<text text-anchor="middle" x="821" y="-279.3" font-family="Times,serif" font-size="14.00">new_event_handle</text>
</g>
<!-- coin::register&#45;&gt;account::new_event_handle -->
<g id="edge29" class="edge">
<title>coin::register&#45;&gt;account::new_event_handle</title>
<path fill="none" stroke="black" d="M1364.59,-357.33C1264.42,-357.86 991.92,-356.91 906,-332 887.31,-326.58 868.28,-316.36 852.98,-306.74"/>
<polygon fill="black" stroke="black" points="855.06,-303.92 844.77,-301.39 851.24,-309.79 855.06,-303.92"/>
</g>
<!-- account::register_coin -->
<g id="node23" class="node">
<title>account::register_coin</title>
<ellipse fill="none" stroke="black" cx="670" cy="-283" rx="56.59" ry="18"/>
<text text-anchor="middle" x="670" y="-279.3" font-family="Times,serif" font-size="14.00">register_coin</text>
</g>
<!-- coin::register&#45;&gt;account::register_coin -->
<g id="edge30" class="edge">
<title>coin::register&#45;&gt;account::register_coin</title>
<path fill="none" stroke="black" d="M1364.86,-356.88C1233.34,-356.3 794.4,-352.8 735,-332 720.37,-326.88 706.27,-317.24 694.95,-307.94"/>
<polygon fill="black" stroke="black" points="697.52,-305.53 687.67,-301.63 692.94,-310.82 697.52,-305.53"/>
</g>
<!-- create_account&#45;&gt;coin::register -->
<g id="edge33" class="edge">
<title>create_account&#45;&gt;coin::register</title>
<path fill="none" stroke="black" d="M1402,-414.7C1402,-406.67 1402,-396.9 1402,-387.8"/>
<polygon fill="black" stroke="black" points="1405.5,-387.94 1402,-377.94 1398.5,-387.94 1405.5,-387.94"/>
</g>
<!-- account::create_account -->
<g id="node24" class="node">
<title>account::create_account</title>
<ellipse fill="none" stroke="black" cx="979" cy="-283" rx="63.89" ry="18"/>
<text text-anchor="middle" x="979" y="-279.3" font-family="Times,serif" font-size="14.00">create_account</text>
</g>
<!-- create_account&#45;&gt;account::create_account -->
<g id="edge32" class="edge">
<title>create_account&#45;&gt;account::create_account</title>
<path fill="none" stroke="black" d="M1359.18,-419.2C1299.52,-401.11 1188.21,-366.41 1095,-332 1070.95,-323.12 1044.51,-312.27 1022.96,-303.13"/>
<polygon fill="black" stroke="black" points="1024.45,-299.96 1013.88,-299.26 1021.7,-306.4 1024.45,-299.96"/>
</g>
<!-- error::invalid_argument&#45;&gt;error::canonical -->
<g id="edge34" class="edge">
<title>error::invalid_argument&#45;&gt;error::canonical</title>
<path fill="none" stroke="black" d="M1337.12,-101.33C1375.04,-87.11 1432.41,-65.6 1471.46,-50.95"/>
<polygon fill="black" stroke="black" points="1472.65,-54.25 1480.78,-47.46 1470.19,-47.69 1472.65,-54.25"/>
</g>
<!-- event::new_event_handle -->
<g id="node25" class="node">
<title>event::new_event_handle</title>
<ellipse fill="none" stroke="black" cx="211" cy="-117" rx="76.89" ry="18"/>
<text text-anchor="middle" x="211" y="-113.3" font-family="Times,serif" font-size="14.00">new_event_handle</text>
</g>
<!-- account::new_event_handle&#45;&gt;event::new_event_handle -->
<g id="edge35" class="edge">
<title>account::new_event_handle&#45;&gt;event::new_event_handle</title>
<path fill="none" stroke="black" d="M779.56,-267.45C765.87,-263.28 750.44,-259.25 736,-257 699.1,-251.24 435.51,-260.57 400,-249 333.79,-227.43 270.07,-174.44 236.18,-142.86"/>
<polygon fill="black" stroke="black" points="238.59,-140.33 228.93,-135.99 233.78,-145.41 238.59,-140.33"/>
</g>
<!-- account::create_guid -->
<g id="node26" class="node">
<title>account::create_guid</title>
<ellipse fill="none" stroke="black" cx="821" cy="-200" rx="51.99" ry="18"/>
<text text-anchor="middle" x="821" y="-196.3" font-family="Times,serif" font-size="14.00">create_guid</text>
</g>
<!-- account::new_event_handle&#45;&gt;account::create_guid -->
<g id="edge36" class="edge">
<title>account::new_event_handle&#45;&gt;account::create_guid</title>
<path fill="none" stroke="black" d="M821,-264.82C821,-254.69 821,-241.6 821,-229.92"/>
<polygon fill="black" stroke="black" points="824.5,-229.95 821,-219.95 817.5,-229.95 824.5,-229.95"/>
</g>
<!-- account::register_coin&#45;&gt;event::emit_event -->
<g id="edge38" class="edge">
<title>account::register_coin&#45;&gt;event::emit_event</title>
<path fill="none" stroke="black" d="M638.91,-267.56C628.37,-263.34 616.38,-259.26 605,-257 534.79,-243.06 352.28,-267 283,-249 206.9,-229.22 131.32,-173.24 92.6,-141.22"/>
<polygon fill="black" stroke="black" points="95.09,-138.74 85.18,-134.99 90.59,-144.1 95.09,-138.74"/>
</g>
<!-- type_info::type_of -->
<g id="node27" class="node">
<title>type_info::type_of</title>
<ellipse fill="none" stroke="black" cx="450" cy="-200" rx="37.89" ry="18"/>
<text text-anchor="middle" x="450" y="-196.3" font-family="Times,serif" font-size="14.00">type_of</text>
</g>
<!-- account::register_coin&#45;&gt;type_info::type_of -->
<g id="edge37" class="edge">
<title>account::register_coin&#45;&gt;type_info::type_of</title>
<path fill="none" stroke="black" d="M638.51,-267.77C628.05,-263.62 616.21,-259.52 605,-257 582.17,-251.86 521.36,-258.55 500,-249 488.47,-243.84 477.98,-234.84 469.63,-226.02"/>
<polygon fill="black" stroke="black" points="472.26,-223.71 463.02,-218.53 467.02,-228.35 472.26,-223.71"/>
</g>
<!-- account::create_account&#45;&gt;error::invalid_argument -->
<g id="edge40" class="edge">
<title>account::create_account&#45;&gt;error::invalid_argument</title>
<path fill="none" stroke="black" d="M996.2,-265.33C1022.95,-240.55 1077.29,-194.69 1133,-174 1166.5,-161.56 1178.94,-176.79 1213,-166 1231.42,-160.16 1250.3,-150 1265.56,-140.53"/>
<polygon fill="black" stroke="black" points="1267.23,-143.62 1273.76,-135.27 1263.46,-137.72 1267.23,-143.62"/>
</g>
<!-- error::already_exists -->
<g id="node28" class="node">
<title>error::already_exists</title>
<ellipse fill="none" stroke="black" cx="1451" cy="-117" rx="61.19" ry="18"/>
<text text-anchor="middle" x="1451" y="-113.3" font-family="Times,serif" font-size="14.00">already_exists</text>
</g>
<!-- account::create_account&#45;&gt;error::already_exists -->
<g id="edge39" class="edge">
<title>account::create_account&#45;&gt;error::already_exists</title>
<path fill="none" stroke="black" d="M1026.39,-270.56C1045.89,-265.11 1068.45,-257.83 1088,-249 1145.66,-222.95 1148.57,-192.75 1209,-174 1245.33,-162.73 1343.9,-177.99 1380,-166 1395.75,-160.77 1411.26,-150.98 1423.74,-141.6"/>
<polygon fill="black" stroke="black" points="1425.77,-144.46 1431.47,-135.53 1421.44,-138.96 1425.77,-144.46"/>
</g>
<!-- account::create_account_unchecked -->
<g id="node29" class="node">
<title>account::create_account_unchecked</title>
<ellipse fill="none" stroke="black" cx="617" cy="-200" rx="105.08" ry="18"/>
<text text-anchor="middle" x="617" y="-196.3" font-family="Times,serif" font-size="14.00">create_account_unchecked</text>
</g>
<!-- account::create_account&#45;&gt;account::create_account_unchecked -->
<g id="edge41" class="edge">
<title>account::create_account&#45;&gt;account::create_account_unchecked</title>
<path fill="none" stroke="black" d="M944.02,-267.65C932.43,-263.5 919.33,-259.43 907,-257 842.8,-244.37 824.26,-261.3 760,-249 727.98,-242.87 693.29,-231.36 666.1,-221.14"/>
<polygon fill="black" stroke="black" points="667.69,-218 657.1,-217.7 665.19,-224.54 667.69,-218"/>
</g>
<!-- account::create_guid&#45;&gt;signer::address_of -->
<g id="edge42" class="edge">
<title>account::create_guid&#45;&gt;signer::address_of</title>
<path fill="none" stroke="black" d="M872.91,-198.44C921.5,-196.36 995.34,-189.18 1055,-166 1070.32,-160.05 1085.59,-150.17 1097.93,-140.91"/>
<polygon fill="black" stroke="black" points="1099.82,-143.87 1105.56,-134.96 1095.52,-138.35 1099.82,-143.87"/>
</g>
<!-- guid::create -->
<g id="node30" class="node">
<title>guid::create</title>
<ellipse fill="none" stroke="black" cx="376" cy="-117" rx="31.7" ry="18"/>
<text text-anchor="middle" x="376" y="-113.3" font-family="Times,serif" font-size="14.00">create</text>
</g>
<!-- account::create_guid&#45;&gt;guid::create -->
<g id="edge43" class="edge">
<title>account::create_guid&#45;&gt;guid::create</title>
<path fill="none" stroke="black" d="M784.66,-186.72C768.44,-181.8 748.96,-176.68 731,-174 696.81,-168.89 451.46,-180.32 420,-166 409.16,-161.06 399.78,-152.06 392.51,-143.17"/>
<polygon fill="black" stroke="black" points="395.43,-141.22 386.62,-135.33 389.83,-145.43 395.43,-141.22"/>
</g>
<!-- error::already_exists&#45;&gt;error::canonical -->
<g id="edge44" class="edge">
<title>error::already_exists&#45;&gt;error::canonical</title>
<path fill="none" stroke="black" d="M1464.05,-99.22C1472.81,-87.96 1484.51,-72.92 1494.38,-60.22"/>
<polygon fill="black" stroke="black" points="1496.87,-62.72 1500.25,-52.68 1491.35,-58.42 1496.87,-62.72"/>
</g>
<!-- account::create_account_unchecked&#45;&gt;account::create_signer -->
<g id="edge50" class="edge">
<title>account::create_account_unchecked&#45;&gt;account::create_signer</title>
<path fill="none" stroke="black" d="M653.79,-182.8C683.94,-169.53 726.65,-150.73 758.3,-136.8"/>
<polygon fill="black" stroke="black" points="759.45,-140.11 767.2,-132.88 756.63,-133.71 759.45,-140.11"/>
</g>
<!-- account::create_account_unchecked&#45;&gt;bcs::to_bytes -->
<g id="edge47" class="edge">
<title>account::create_account_unchecked&#45;&gt;bcs::to_bytes</title>
<path fill="none" stroke="black" d="M558.7,-184.59C540.06,-180.51 519.26,-176.5 500,-174 490.73,-172.8 338.45,-172.76 332,-166 305.56,-138.27 321.99,-91.17 336.7,-61.65"/>
<polygon fill="black" stroke="black" points="339.7,-63.46 341.25,-52.97 333.5,-60.2 339.7,-63.46"/>
</g>
<!-- account::create_account_unchecked&#45;&gt;error::invalid_argument -->
<g id="edge46" class="edge">
<title>account::create_account_unchecked&#45;&gt;error::invalid_argument</title>
<path fill="none" stroke="black" d="M681.85,-185.47C706.24,-180.96 734.28,-176.46 760,-174 810.11,-169.21 1164.43,-179.23 1213,-166 1231.91,-160.85 1251.09,-150.55 1266.43,-140.82"/>
<polygon fill="black" stroke="black" points="1268.23,-143.82 1274.65,-135.39 1264.37,-137.98 1268.23,-143.82"/>
</g>
<!-- account::create_account_unchecked&#45;&gt;event::new_event_handle -->
<g id="edge49" class="edge">
<title>account::create_account_unchecked&#45;&gt;event::new_event_handle</title>
<path fill="none" stroke="black" d="M559.01,-184.57C540.29,-180.46 519.37,-176.44 500,-174 456.31,-168.49 344.52,-177.44 302,-166 281.86,-160.58 261.16,-150.12 244.6,-140.34"/>
<polygon fill="black" stroke="black" points="246.52,-137.41 236.16,-135.18 242.87,-143.38 246.52,-137.41"/>
</g>
<!-- account::create_account_unchecked&#45;&gt;guid::create -->
<g id="edge48" class="edge">
<title>account::create_account_unchecked&#45;&gt;guid::create</title>
<path fill="none" stroke="black" d="M556.81,-184.8C538.64,-180.88 518.57,-176.9 500,-174 482.35,-171.24 435.98,-174 420,-166 409.5,-160.74 400.27,-151.84 393.02,-143.13"/>
<polygon fill="black" stroke="black" points="396,-141.26 387.12,-135.47 390.45,-145.53 396,-141.26"/>
</g>
<!-- option::none -->
<g id="node31" class="node">
<title>option::none</title>
<ellipse fill="none" stroke="black" cx="460" cy="-117" rx="27.9" ry="18"/>
<text text-anchor="middle" x="460" y="-113.3" font-family="Times,serif" font-size="14.00">none</text>
</g>
<!-- account::create_account_unchecked&#45;&gt;option::none -->
<g id="edge45" class="edge">
<title>account::create_account_unchecked&#45;&gt;option::none</title>
<path fill="none" stroke="black" d="M546,-186.32C530.07,-181.52 513.81,-174.96 500,-166 490.88,-160.08 482.76,-151.43 476.27,-143.11"/>
<polygon fill="black" stroke="black" points="479.25,-141.26 470.55,-135.23 473.59,-145.37 479.25,-141.26"/>
</g>
</g>
</svg>
