<?xml version="1.0" encoding="UTF-8" standalone="no"?>
<!DOCTYPE svg PUBLIC "-//W3C//DTD SVG 1.1//EN"
 "http://www.w3.org/Graphics/SVG/1.1/DTD/svg11.dtd">
<!-- Generated by graphviz version 7.0.4 (20221203.1631)
 -->
<!-- Title: G Pages: 1 -->
<svg width="746pt" height="456pt"
 viewBox="0.00 0.00 746.00 456.00" xmlns="http://www.w3.org/2000/svg" xmlns:xlink="http://www.w3.org/1999/xlink">
<g id="graph0" class="graph" transform="scale(1 1) rotate(0) translate(4 452)">
<title>G</title>
<polygon fill="white" stroke="none" points="-4,4 -4,-452 742,-452 742,4 -4,4"/>
<g id="clust1" class="cluster">
<title>cluster_error</title>
<polygon fill="none" stroke="black" points="54,-163 54,-321 216,-321 216,-163 54,-163"/>
<text text-anchor="middle" x="135" y="-305.8" font-family="Times,serif" font-size="14.00">error</text>
</g>
<g id="clust2" class="cluster">
<title>cluster_simple_map</title>
<polygon fill="none" stroke="black" points="252,-246 252,-404 476,-404 476,-246 252,-246"/>
<text text-anchor="middle" x="364" y="-388.8" font-family="Times,serif" font-size="14.00">simple_map</text>
</g>
<g id="clust3" class="cluster">
<title>cluster_voting</title>
<polygon fill="none" stroke="black" points="533,-329 533,-404 651,-404 651,-329 533,-329"/>
<text text-anchor="middle" x="592" y="-388.8" font-family="Times,serif" font-size="14.00">voting</text>
</g>
<g id="clust4" class="cluster">
<title>cluster_vector</title>
<polygon fill="none" stroke="black" points="8,-8 8,-155 248,-155 248,-8 8,-8"/>
<text text-anchor="middle" x="128" y="-139.8" font-family="Times,serif" font-size="14.00">vector</text>
</g>
<g id="clust5" class="cluster">
<title>cluster_option</title>
<polygon fill="none" stroke="black" points="256,-80 256,-238 492,-238 492,-80 256,-80"/>
<text text-anchor="middle" x="374" y="-222.8" font-family="Times,serif" font-size="14.00">option</text>
</g>
<g id="clust6" class="cluster">
<title>cluster_table</title>
<polygon fill="none" stroke="black" points="570,-163 570,-321 730,-321 730,-163 570,-163"/>
<text text-anchor="middle" x="650" y="-305.8" font-family="Times,serif" font-size="14.00">table</text>
</g>
<!-- remove_approved_hash -->
<g id="node1" class="node">
<title>remove_approved_hash</title>
<ellipse fill="none" stroke="black" cx="354" cy="-430" rx="94.78" ry="18"/>
<text text-anchor="middle" x="354" y="-426.3" font-family="Times,serif" font-size="14.00">remove_approved_hash</text>
</g>
<!-- error::invalid_argument -->
<g id="node2" class="node">
<title>error::invalid_argument</title>
<ellipse fill="none" stroke="black" cx="135" cy="-272" rx="73.39" ry="18"/>
<text text-anchor="middle" x="135" y="-268.3" font-family="Times,serif" font-size="14.00">invalid_argument</text>
</g>
<!-- remove_approved_hash&#45;&gt;error::invalid_argument -->
<g id="edge1" class="edge">
<title>remove_approved_hash&#45;&gt;error::invalid_argument</title>
<path fill="none" stroke="black" d="M280.91,-418.16C269.41,-414.68 258.02,-410.08 248,-404 204.86,-377.83 169.67,-329.58 150.58,-299.51"/>
<polygon fill="black" stroke="black" points="153.77,-298.02 145.53,-291.36 147.82,-301.7 153.77,-298.02"/>
</g>
<!-- simple_map::remove -->
<g id="node3" class="node">
<title>simple_map::remove</title>
<ellipse fill="none" stroke="black" cx="298" cy="-355" rx="37.89" ry="18"/>
<text text-anchor="middle" x="298" y="-351.3" font-family="Times,serif" font-size="14.00">remove</text>
</g>
<!-- remove_approved_hash&#45;&gt;simple_map::remove -->
<g id="edge2" class="edge">
<title>remove_approved_hash&#45;&gt;simple_map::remove</title>
<path fill="none" stroke="black" d="M340.73,-411.7C333.77,-402.63 325.11,-391.34 317.41,-381.3"/>
<polygon fill="black" stroke="black" points="320.19,-379.18 311.33,-373.38 314.64,-383.44 320.19,-379.18"/>
</g>
<!-- simple_map::contains_key -->
<g id="node4" class="node">
<title>simple_map::contains_key</title>
<ellipse fill="none" stroke="black" cx="411" cy="-355" rx="57.39" ry="18"/>
<text text-anchor="middle" x="411" y="-351.3" font-family="Times,serif" font-size="14.00">contains_key</text>
</g>
<!-- remove_approved_hash&#45;&gt;simple_map::contains_key -->
<g id="edge3" class="edge">
<title>remove_approved_hash&#45;&gt;simple_map::contains_key</title>
<path fill="none" stroke="black" d="M367.51,-411.7C374.44,-402.82 383.04,-391.81 390.75,-381.94"/>
<polygon fill="black" stroke="black" points="393.46,-384.15 396.85,-374.12 387.94,-379.84 393.46,-384.15"/>
</g>
<!-- voting::is_resolved -->
<g id="node5" class="node">
<title>voting::is_resolved</title>
<ellipse fill="none" stroke="black" cx="592" cy="-355" rx="50.89" ry="18"/>
<text text-anchor="middle" x="592" y="-351.3" font-family="Times,serif" font-size="14.00">is_resolved</text>
</g>
<!-- remove_approved_hash&#45;&gt;voting::is_resolved -->
<g id="edge4" class="edge">
<title>remove_approved_hash&#45;&gt;voting::is_resolved</title>
<path fill="none" stroke="black" d="M424.63,-417.68C442.86,-414.03 462.32,-409.48 480,-404 505.07,-396.24 532.14,-384.73 553.38,-374.92"/>
<polygon fill="black" stroke="black" points="554.68,-378.18 562.25,-370.77 551.71,-371.84 554.68,-378.18"/>
</g>
<!-- error::canonical -->
<g id="node6" class="node">
<title>error::canonical</title>
<ellipse fill="none" stroke="black" cx="135" cy="-189" rx="44.39" ry="18"/>
<text text-anchor="middle" x="135" y="-185.3" font-family="Times,serif" font-size="14.00">canonical</text>
</g>
<!-- error::invalid_argument&#45;&gt;error::canonical -->
<g id="edge5" class="edge">
<title>error::invalid_argument&#45;&gt;error::canonical</title>
<path fill="none" stroke="black" d="M135,-253.82C135,-243.69 135,-230.6 135,-218.92"/>
<polygon fill="black" stroke="black" points="138.5,-218.95 135,-208.95 131.5,-218.95 138.5,-218.95"/>
</g>
<!-- simple_map::remove&#45;&gt;error::invalid_argument -->
<g id="edge9" class="edge">
<title>simple_map::remove&#45;&gt;error::invalid_argument</title>
<path fill="none" stroke="black" d="M269.92,-342.55C255.45,-336.47 237.62,-328.68 222,-321 205.36,-312.82 187.36,-303.05 172.08,-294.47"/>
<polygon fill="black" stroke="black" points="174.21,-291.65 163.78,-289.77 170.76,-297.74 174.21,-291.65"/>
</g>
<!-- vector::swap_remove -->
<g id="node7" class="node">
<title>vector::swap_remove</title>
<ellipse fill="none" stroke="black" cx="76" cy="-106" rx="59.59" ry="18"/>
<text text-anchor="middle" x="76" y="-102.3" font-family="Times,serif" font-size="14.00">swap_remove</text>
</g>
<!-- simple_map::remove&#45;&gt;vector::swap_remove -->
<g id="edge6" class="edge">
<title>simple_map::remove&#45;&gt;vector::swap_remove</title>
<path fill="none" stroke="black" d="M291.33,-337C273.12,-290.74 223.73,-165.8 220,-163 206.6,-152.93 160.7,-160.86 145,-155 130,-149.41 115.19,-139.79 103.16,-130.64"/>
<polygon fill="black" stroke="black" points="105.34,-127.9 95.34,-124.41 100.99,-133.38 105.34,-127.9"/>
</g>
<!-- option::extract -->
<g id="node8" class="node">
<title>option::extract</title>
<ellipse fill="none" stroke="black" cx="298" cy="-189" rx="34.39" ry="18"/>
<text text-anchor="middle" x="298" y="-185.3" font-family="Times,serif" font-size="14.00">extract</text>
</g>
<!-- simple_map::remove&#45;&gt;option::extract -->
<g id="edge7" class="edge">
<title>simple_map::remove&#45;&gt;option::extract</title>
<path fill="none" stroke="black" d="M298,-336.76C298,-308.63 298,-252.6 298,-218.49"/>
<polygon fill="black" stroke="black" points="301.5,-218.52 298,-208.52 294.5,-218.52 301.5,-218.52"/>
</g>
<!-- option::is_some -->
<g id="node9" class="node">
<title>option::is_some</title>
<ellipse fill="none" stroke="black" cx="374" cy="-106" rx="40.09" ry="18"/>
<text text-anchor="middle" x="374" y="-102.3" font-family="Times,serif" font-size="14.00">is_some</text>
</g>
<!-- simple_map::remove&#45;&gt;option::is_some -->
<g id="edge8" class="edge">
<title>simple_map::remove&#45;&gt;option::is_some</title>
<path fill="none" stroke="black" d="M320.17,-339.9C327.77,-335.7 336.5,-331.55 345,-329 381.35,-318.1 396.84,-339.45 430,-321 470.47,-298.49 478.23,-281.89 493,-238 503.63,-206.41 510.86,-191.14 493,-163 477.32,-138.29 447.5,-124.28 421.64,-116.46"/>
<polygon fill="black" stroke="black" points="422.88,-113.17 412.31,-113.87 421.01,-119.92 422.88,-113.17"/>
</g>
<!-- simple_map::find -->
<g id="node10" class="node">
<title>simple_map::find</title>
<ellipse fill="none" stroke="black" cx="394" cy="-272" rx="27" ry="18"/>
<text text-anchor="middle" x="394" y="-268.3" font-family="Times,serif" font-size="14.00">find</text>
</g>
<!-- simple_map::remove&#45;&gt;simple_map::find -->
<g id="edge10" class="edge">
<title>simple_map::remove&#45;&gt;simple_map::find</title>
<path fill="none" stroke="black" d="M316.06,-338.76C331,-326.16 352.38,-308.12 368.97,-294.12"/>
<polygon fill="black" stroke="black" points="371.08,-296.92 376.47,-287.79 366.57,-291.57 371.08,-296.92"/>
</g>
<!-- simple_map::contains_key&#45;&gt;option::is_some -->
<g id="edge11" class="edge">
<title>simple_map::contains_key&#45;&gt;option::is_some</title>
<path fill="none" stroke="black" d="M467.73,-351.74C489.51,-347.75 512.38,-339.08 526,-321 568.26,-264.91 566.16,-220.6 526,-163 503.28,-130.42 459.38,-116.75 424.57,-111.03"/>
<polygon fill="black" stroke="black" points="425.53,-107.63 415.13,-109.66 424.52,-114.56 425.53,-107.63"/>
</g>
<!-- simple_map::contains_key&#45;&gt;simple_map::find -->
<g id="edge12" class="edge">
<title>simple_map::contains_key&#45;&gt;simple_map::find</title>
<path fill="none" stroke="black" d="M407.39,-336.82C405.23,-326.51 402.43,-313.14 399.94,-301.31"/>
<polygon fill="black" stroke="black" points="403.39,-300.7 397.91,-291.63 396.54,-302.14 403.39,-300.7"/>
</g>
<!-- table::borrow_mut -->
<g id="node11" class="node">
<title>table::borrow_mut</title>
<ellipse fill="none" stroke="black" cx="641" cy="-272" rx="54.69" ry="18"/>
<text text-anchor="middle" x="641" y="-268.3" font-family="Times,serif" font-size="14.00">borrow_mut</text>
</g>
<!-- voting::is_resolved&#45;&gt;table::borrow_mut -->
<g id="edge13" class="edge">
<title>voting::is_resolved&#45;&gt;table::borrow_mut</title>
<path fill="none" stroke="black" d="M602.15,-337.22C608.68,-326.43 617.3,-312.17 624.77,-299.84"/>
<polygon fill="black" stroke="black" points="627.73,-301.7 629.91,-291.34 621.74,-298.08 627.73,-301.7"/>
</g>
<!-- vector::is_empty -->
<g id="node12" class="node">
<title>vector::is_empty</title>
<ellipse fill="none" stroke="black" cx="136" cy="-34" rx="43.59" ry="18"/>
<text text-anchor="middle" x="136" y="-30.3" font-family="Times,serif" font-size="14.00">is_empty</text>
</g>
<!-- vector::swap_remove&#45;&gt;vector::is_empty -->
<g id="edge14" class="edge">
<title>vector::swap_remove&#45;&gt;vector::is_empty</title>
<path fill="none" stroke="black" d="M90.52,-88.05C97.78,-79.59 106.69,-69.19 114.7,-59.84"/>
<polygon fill="black" stroke="black" points="117.19,-62.33 121.04,-52.46 111.87,-57.77 117.19,-62.33"/>
</g>
<!-- option::extract&#45;&gt;option::is_some -->
<g id="edge15" class="edge">
<title>option::extract&#45;&gt;option::is_some</title>
<path fill="none" stroke="black" d="M312.65,-172.38C323.55,-160.77 338.63,-144.69 351.11,-131.39"/>
<polygon fill="black" stroke="black" points="353.55,-133.92 357.84,-124.23 348.44,-129.13 353.55,-133.92"/>
</g>
<!-- option::is_some&#45;&gt;vector::is_empty -->
<g id="edge16" class="edge">
<title>option::is_some&#45;&gt;vector::is_empty</title>
<path fill="none" stroke="black" d="M341.41,-95.41C300.12,-83.27 228.74,-62.28 181.95,-48.51"/>
<polygon fill="black" stroke="black" points="182.94,-45.16 172.36,-45.69 180.96,-51.87 182.94,-45.16"/>
</g>
<!-- option::none -->
<g id="node13" class="node">
<title>option::none</title>
<ellipse fill="none" stroke="black" cx="378" cy="-189" rx="27.9" ry="18"/>
<text text-anchor="middle" x="378" y="-185.3" font-family="Times,serif" font-size="14.00">none</text>
</g>
<!-- simple_map::find&#45;&gt;option::none -->
<g id="edge17" class="edge">
<title>simple_map::find&#45;&gt;option::none</title>
<path fill="none" stroke="black" d="M390.61,-253.82C388.57,-243.51 385.93,-230.14 383.59,-218.31"/>
<polygon fill="black" stroke="black" points="387.05,-217.77 381.68,-208.64 380.19,-219.13 387.05,-217.77"/>
</g>
<!-- option::some -->
<g id="node14" class="node">
<title>option::some</title>
<ellipse fill="none" stroke="black" cx="454" cy="-189" rx="29.8" ry="18"/>
<text text-anchor="middle" x="454" y="-185.3" font-family="Times,serif" font-size="14.00">some</text>
</g>
<!-- simple_map::find&#45;&gt;option::some -->
<g id="edge18" class="edge">
<title>simple_map::find&#45;&gt;option::some</title>
<path fill="none" stroke="black" d="M405.57,-255.38C414.06,-243.91 425.78,-228.1 435.56,-214.9"/>
<polygon fill="black" stroke="black" points="438.22,-217.18 441.36,-207.06 432.6,-213.01 438.22,-217.18"/>
</g>
<!-- table::borrow_box_mut -->
<g id="node15" class="node">
<title>table::borrow_box_mut</title>
<ellipse fill="none" stroke="black" cx="650" cy="-189" rx="72.29" ry="18"/>
<text text-anchor="middle" x="650" y="-185.3" font-family="Times,serif" font-size="14.00">borrow_box_mut</text>
</g>
<!-- table::borrow_mut&#45;&gt;table::borrow_box_mut -->
<g id="edge19" class="edge">
<title>table::borrow_mut&#45;&gt;table::borrow_box_mut</title>
<path fill="none" stroke="black" d="M642.91,-253.82C644.05,-243.58 645.52,-230.33 646.83,-218.55"/>
<polygon fill="black" stroke="black" points="650.27,-219.26 647.9,-208.94 643.31,-218.49 650.27,-219.26"/>
</g>
<!-- vector::singleton -->
<g id="node16" class="node">
<title>vector::singleton</title>
<ellipse fill="none" stroke="black" cx="197" cy="-106" rx="42.79" ry="18"/>
<text text-anchor="middle" x="197" y="-102.3" font-family="Times,serif" font-size="14.00">singleton</text>
</g>
<!-- option::some&#45;&gt;vector::singleton -->
<g id="edge20" class="edge">
<title>option::some&#45;&gt;vector::singleton</title>
<path fill="none" stroke="black" d="M436.74,-174.19C430.29,-169.8 422.66,-165.45 415,-163 380.46,-151.95 285.63,-168.56 252,-155 239.4,-149.92 227.71,-140.68 218.38,-131.65"/>
<polygon fill="black" stroke="black" points="221.04,-129.37 211.56,-124.63 216.02,-134.25 221.04,-129.37"/>
</g>
</g>
</svg>
