<?xml version="1.0" encoding="UTF-8" standalone="no"?>
<!DOCTYPE svg PUBLIC "-//W3C//DTD SVG 1.1//EN"
 "http://www.w3.org/Graphics/SVG/1.1/DTD/svg11.dtd">
<!-- Generated by graphviz version 7.0.4 (20221203.1631)
 -->
<!-- Title: G Pages: 1 -->
<svg width="242pt" height="207pt"
 viewBox="0.00 0.00 242.00 207.00" xmlns="http://www.w3.org/2000/svg" xmlns:xlink="http://www.w3.org/1999/xlink">
<g id="graph0" class="graph" transform="scale(1 1) rotate(0) translate(4 203)">
<title>G</title>
<polygon fill="white" stroke="none" points="-4,4 -4,-203 238,-203 238,4 -4,4"/>
<g id="clust1" class="cluster">
<title>cluster_error</title>
<polygon fill="none" stroke="black" points="8,-8 8,-155 118,-155 118,-8 8,-8"/>
<text text-anchor="middle" x="63" y="-139.8" font-family="Times,serif" font-size="14.00">error</text>
</g>
<g id="clust2" class="cluster">
<title>cluster_account</title>
<polygon fill="none" stroke="black" points="126,-80 126,-155 226,-155 226,-80 126,-80"/>
<text text-anchor="middle" x="176" y="-139.8" font-family="Times,serif" font-size="14.00">account</text>
</g>
<!-- assert_account_exists -->
<g id="node1" class="node">
<title>assert_account_exists</title>
<ellipse fill="none" stroke="black" cx="119" cy="-181" rx="87.18" ry="18"/>
<text text-anchor="middle" x="119" y="-177.3" font-family="Times,serif" font-size="14.00">assert_account_exists</text>
</g>
<!-- error::not_found -->
<g id="node2" class="node">
<title>error::not_found</title>
<ellipse fill="none" stroke="black" cx="63" cy="-106" rx="46.59" ry="18"/>
<text text-anchor="middle" x="63" y="-102.3" font-family="Times,serif" font-size="14.00">not_found</text>
</g>
<!-- assert_account_exists&#45;&gt;error::not_found -->
<g id="edge1" class="edge">
<title>assert_account_exists&#45;&gt;error::not_found</title>
<path fill="none" stroke="black" d="M106.01,-163.07C99.04,-153.98 90.29,-142.58 82.52,-132.44"/>
<polygon fill="black" stroke="black" points="85.51,-130.59 76.65,-124.79 79.96,-134.85 85.51,-130.59"/>
</g>
<!-- account::exists_at -->
<g id="node3" class="node">
<title>account::exists_at</title>
<ellipse fill="none" stroke="black" cx="176" cy="-106" rx="41.69" ry="18"/>
<text text-anchor="middle" x="176" y="-102.3" font-family="Times,serif" font-size="14.00">exists_at</text>
</g>
<!-- assert_account_exists&#45;&gt;account::exists_at -->
<g id="edge2" class="edge">
<title>assert_account_exists&#45;&gt;account::exists_at</title>
<path fill="none" stroke="black" d="M132.22,-163.07C139.32,-153.98 148.22,-142.58 156.13,-132.44"/>
<polygon fill="black" stroke="black" points="158.72,-134.82 162.12,-124.78 153.2,-130.51 158.72,-134.82"/>
</g>
<!-- error::canonical -->
<g id="node4" class="node">
<title>error::canonical</title>
<ellipse fill="none" stroke="black" cx="63" cy="-34" rx="44.39" ry="18"/>
<text text-anchor="middle" x="63" y="-30.3" font-family="Times,serif" font-size="14.00">canonical</text>
</g>
<!-- error::not_found&#45;&gt;error::canonical -->
<g id="edge3" class="edge">
<title>error::not_found&#45;&gt;error::canonical</title>
<path fill="none" stroke="black" d="M63,-87.7C63,-80.41 63,-71.73 63,-63.54"/>
<polygon fill="black" stroke="black" points="66.5,-63.62 63,-53.62 59.5,-63.62 66.5,-63.62"/>
</g>
</g>
</svg>
