<?xml version="1.0" encoding="UTF-8" standalone="no"?>
<!DOCTYPE svg PUBLIC "-//W3C//DTD SVG 1.1//EN"
 "http://www.w3.org/Graphics/SVG/1.1/DTD/svg11.dtd">
<!-- Generated by graphviz version 7.0.4 (20221203.1631)
 -->
<!-- Title: G Pages: 1 -->
<svg width="1435pt" height="459pt"
 viewBox="0.00 0.00 1435.00 459.00" xmlns="http://www.w3.org/2000/svg" xmlns:xlink="http://www.w3.org/1999/xlink">
<g id="graph0" class="graph" transform="scale(1 1) rotate(0) translate(4 455)">
<title>G</title>
<polygon fill="white" stroke="none" points="-4,4 -4,-455 1431,-455 1431,4 -4,4"/>
<g id="clust1" class="cluster">
<title>cluster_account</title>
<polygon fill="none" stroke="black" points="319,-91 319,-332 765,-332 765,-91 319,-91"/>
<text text-anchor="middle" x="542" y="-316.8" font-family="Times,serif" font-size="14.00">account</text>
</g>
<g id="clust2" class="cluster">
<title>cluster_coin</title>
<polygon fill="none" stroke="black" points="881,-257 881,-407 1071,-407 1071,-257 881,-257"/>
<text text-anchor="middle" x="976" y="-391.8" font-family="Times,serif" font-size="14.00">coin</text>
</g>
<g id="clust3" class="cluster">
<title>cluster_error</title>
<polygon fill="none" stroke="black" points="8,-8 8,-166 311,-166 311,-8 8,-8"/>
<text text-anchor="middle" x="159.5" y="-150.8" font-family="Times,serif" font-size="14.00">error</text>
</g>
<g id="clust4" class="cluster">
<title>cluster_signer</title>
<polygon fill="none" stroke="black" points="1269,-8 1269,-166 1419,-166 1419,-8 1269,-8"/>
<text text-anchor="middle" x="1344" y="-150.8" font-family="Times,serif" font-size="14.00">signer</text>
</g>
<g id="clust5" class="cluster">
<title>cluster_option</title>
<polygon fill="none" stroke="black" points="773,-91 773,-166 845,-166 845,-91 773,-91"/>
<text text-anchor="middle" x="809" y="-150.8" font-family="Times,serif" font-size="14.00">option</text>
</g>
<g id="clust6" class="cluster">
<title>cluster_bcs</title>
<polygon fill="none" stroke="black" points="843,-8 843,-83 939,-83 939,-8 843,-8"/>
<text text-anchor="middle" x="891" y="-67.8" font-family="Times,serif" font-size="14.00">bcs</text>
</g>
<g id="clust7" class="cluster">
<title>cluster_guid</title>
<polygon fill="none" stroke="black" points="885,-91 885,-166 965,-166 965,-91 885,-91"/>
<text text-anchor="middle" x="925" y="-150.8" font-family="Times,serif" font-size="14.00">guid</text>
</g>
<g id="clust8" class="cluster">
<title>cluster_event</title>
<polygon fill="none" stroke="black" points="973,-8 973,-166 1261,-166 1261,-8 973,-8"/>
<text text-anchor="middle" x="1117" y="-150.8" font-family="Times,serif" font-size="14.00">event</text>
</g>
<g id="clust9" class="cluster">
<title>cluster_type_info</title>
<polygon fill="none" stroke="black" points="219,-174 219,-249 311,-249 311,-174 219,-174"/>
<text text-anchor="middle" x="265" y="-233.8" font-family="Times,serif" font-size="14.00">type_info</text>
</g>
<!-- create_account -->
<g id="node1" class="node">
<title>create_account</title>
<ellipse fill="none" stroke="black" cx="776" cy="-433" rx="63.89" ry="18"/>
<text text-anchor="middle" x="776" y="-429.3" font-family="Times,serif" font-size="14.00">create_account</text>
</g>
<!-- account::create_account -->
<g id="node2" class="node">
<title>account::create_account</title>
<ellipse fill="none" stroke="black" cx="391" cy="-283" rx="63.89" ry="18"/>
<text text-anchor="middle" x="391" y="-279.3" font-family="Times,serif" font-size="14.00">create_account</text>
</g>
<!-- create_account&#45;&gt;account::create_account -->
<g id="edge1" class="edge">
<title>create_account&#45;&gt;account::create_account</title>
<path fill="none" stroke="black" d="M727.49,-420.98C664.57,-405.69 552.31,-374.99 463,-332 448.55,-325.04 433.62,-315.54 421.14,-306.82"/>
<polygon fill="black" stroke="black" points="423.51,-304.22 413.34,-301.25 419.44,-309.91 423.51,-304.22"/>
</g>
<!-- coin::register -->
<g id="node3" class="node">
<title>coin::register</title>
<ellipse fill="none" stroke="black" cx="926" cy="-358" rx="37.09" ry="18"/>
<text text-anchor="middle" x="926" y="-354.3" font-family="Times,serif" font-size="14.00">register</text>
</g>
<!-- create_account&#45;&gt;coin::register -->
<g id="edge2" class="edge">
<title>create_account&#45;&gt;coin::register</title>
<path fill="none" stroke="black" d="M807.08,-416.87C831.26,-405.11 864.84,-388.77 890.15,-376.45"/>
<polygon fill="black" stroke="black" points="891.62,-379.62 899.08,-372.1 888.56,-373.33 891.62,-379.62"/>
</g>
<!-- error::already_exists -->
<g id="node4" class="node">
<title>error::already_exists</title>
<ellipse fill="none" stroke="black" cx="77" cy="-117" rx="61.19" ry="18"/>
<text text-anchor="middle" x="77" y="-113.3" font-family="Times,serif" font-size="14.00">already_exists</text>
</g>
<!-- account::create_account&#45;&gt;error::already_exists -->
<g id="edge3" class="edge">
<title>account::create_account&#45;&gt;error::already_exists</title>
<path fill="none" stroke="black" d="M326.87,-281.49C287.32,-278.74 236.75,-270.66 197,-249 151.25,-224.08 113.63,-175.01 93.33,-144.52"/>
<polygon fill="black" stroke="black" points="96.33,-142.7 87.95,-136.22 90.45,-146.51 96.33,-142.7"/>
</g>
<!-- error::invalid_argument -->
<g id="node5" class="node">
<title>error::invalid_argument</title>
<ellipse fill="none" stroke="black" cx="230" cy="-117" rx="73.39" ry="18"/>
<text text-anchor="middle" x="230" y="-113.3" font-family="Times,serif" font-size="14.00">invalid_argument</text>
</g>
<!-- account::create_account&#45;&gt;error::invalid_argument -->
<g id="edge4" class="edge">
<title>account::create_account&#45;&gt;error::invalid_argument</title>
<path fill="none" stroke="black" d="M328.55,-278.55C283.95,-274.63 229.39,-266.34 215,-249 191.02,-220.1 203.93,-174.45 216.3,-145.38"/>
<polygon fill="black" stroke="black" points="219.39,-147.05 220.31,-136.5 213.01,-144.17 219.39,-147.05"/>
</g>
<!-- account::create_account_unchecked -->
<g id="node6" class="node">
<title>account::create_account_unchecked</title>
<ellipse fill="none" stroke="black" cx="530" cy="-200" rx="105.08" ry="18"/>
<text text-anchor="middle" x="530" y="-196.3" font-family="Times,serif" font-size="14.00">create_account_unchecked</text>
</g>
<!-- account::create_account&#45;&gt;account::create_account_unchecked -->
<g id="edge5" class="edge">
<title>account::create_account&#45;&gt;account::create_account_unchecked</title>
<path fill="none" stroke="black" d="M417.8,-266.38C438.79,-254.15 468.25,-236.98 491.72,-223.31"/>
<polygon fill="black" stroke="black" points="493.18,-226.51 500.06,-218.45 489.66,-220.46 493.18,-226.51"/>
</g>
<!-- signer::address_of -->
<g id="node7" class="node">
<title>signer::address_of</title>
<ellipse fill="none" stroke="black" cx="1326" cy="-117" rx="48.99" ry="18"/>
<text text-anchor="middle" x="1326" y="-113.3" font-family="Times,serif" font-size="14.00">address_of</text>
</g>
<!-- coin::register&#45;&gt;signer::address_of -->
<g id="edge6" class="edge">
<title>coin::register&#45;&gt;signer::address_of</title>
<path fill="none" stroke="black" d="M896.42,-346.93C889.9,-343.27 883.81,-338.41 880,-332 862.96,-303.35 859.32,-283.14 880,-257 989.1,-119.11 1106.63,-242.38 1265,-166 1277.86,-159.8 1290.53,-150.51 1300.95,-141.74"/>
<polygon fill="black" stroke="black" points="1303.13,-144.49 1308.35,-135.27 1298.52,-139.22 1303.13,-144.49"/>
</g>
<!-- account::new_event_handle -->
<g id="node8" class="node">
<title>account::new_event_handle</title>
<ellipse fill="none" stroke="black" cx="680" cy="-283" rx="76.89" ry="18"/>
<text text-anchor="middle" x="680" y="-279.3" font-family="Times,serif" font-size="14.00">new_event_handle</text>
</g>
<!-- coin::register&#45;&gt;account::new_event_handle -->
<g id="edge7" class="edge">
<title>coin::register&#45;&gt;account::new_event_handle</title>
<path fill="none" stroke="black" d="M894.84,-347.75C855.3,-336.02 786.33,-315.55 737.2,-300.97"/>
<polygon fill="black" stroke="black" points="738.45,-297.69 727.87,-298.2 736.46,-304.41 738.45,-297.69"/>
</g>
<!-- account::register_coin -->
<g id="node9" class="node">
<title>account::register_coin</title>
<ellipse fill="none" stroke="black" cx="529" cy="-283" rx="56.59" ry="18"/>
<text text-anchor="middle" x="529" y="-279.3" font-family="Times,serif" font-size="14.00">register_coin</text>
</g>
<!-- coin::register&#45;&gt;account::register_coin -->
<g id="edge8" class="edge">
<title>coin::register&#45;&gt;account::register_coin</title>
<path fill="none" stroke="black" d="M888.88,-355.37C808.02,-351.64 621.06,-342.05 594,-332 579.58,-326.64 565.58,-317.07 554.29,-307.87"/>
<polygon fill="black" stroke="black" points="556.89,-305.48 547.02,-301.64 552.34,-310.8 556.89,-305.48"/>
</g>
<!-- coin::is_account_registered -->
<g id="node10" class="node">
<title>coin::is_account_registered</title>
<ellipse fill="none" stroke="black" cx="976" cy="-283" rx="87.18" ry="18"/>
<text text-anchor="middle" x="976" y="-279.3" font-family="Times,serif" font-size="14.00">is_account_registered</text>
</g>
<!-- coin::register&#45;&gt;coin::is_account_registered -->
<g id="edge9" class="edge">
<title>coin::register&#45;&gt;coin::is_account_registered</title>
<path fill="none" stroke="black" d="M937.35,-340.44C943.35,-331.66 950.88,-320.68 957.69,-310.74"/>
<polygon fill="black" stroke="black" points="960.56,-312.74 963.32,-302.51 954.78,-308.78 960.56,-312.74"/>
</g>
<!-- error::canonical -->
<g id="node11" class="node">
<title>error::canonical</title>
<ellipse fill="none" stroke="black" cx="153" cy="-34" rx="44.39" ry="18"/>
<text text-anchor="middle" x="153" y="-30.3" font-family="Times,serif" font-size="14.00">canonical</text>
</g>
<!-- error::already_exists&#45;&gt;error::canonical -->
<g id="edge10" class="edge">
<title>error::already_exists&#45;&gt;error::canonical</title>
<path fill="none" stroke="black" d="M92.75,-99.22C103.49,-87.77 117.89,-72.42 129.92,-59.6"/>
<polygon fill="black" stroke="black" points="132.47,-62 136.76,-52.31 127.36,-57.21 132.47,-62"/>
</g>
<!-- error::invalid_argument&#45;&gt;error::canonical -->
<g id="edge11" class="edge">
<title>error::invalid_argument&#45;&gt;error::canonical</title>
<path fill="none" stroke="black" d="M214.05,-99.22C203.06,-87.66 188.29,-72.13 176.04,-59.23"/>
<polygon fill="black" stroke="black" points="178.88,-57.14 169.45,-52.31 173.8,-61.97 178.88,-57.14"/>
</g>
<!-- account::create_account_unchecked&#45;&gt;error::invalid_argument -->
<g id="edge13" class="edge">
<title>account::create_account_unchecked&#45;&gt;error::invalid_argument</title>
<path fill="none" stroke="black" d="M435.09,-191.91C397.01,-187.15 353.18,-179.22 315,-166 296.87,-159.73 278.15,-149.61 262.91,-140.29"/>
<polygon fill="black" stroke="black" points="265.05,-137.5 254.72,-135.12 261.32,-143.42 265.05,-137.5"/>
</g>
<!-- option::none -->
<g id="node12" class="node">
<title>option::none</title>
<ellipse fill="none" stroke="black" cx="809" cy="-117" rx="27.9" ry="18"/>
<text text-anchor="middle" x="809" y="-113.3" font-family="Times,serif" font-size="14.00">none</text>
</g>
<!-- account::create_account_unchecked&#45;&gt;option::none -->
<g id="edge12" class="edge">
<title>account::create_account_unchecked&#45;&gt;option::none</title>
<path fill="none" stroke="black" d="M587.69,-184.57C605.63,-180.56 625.54,-176.6 644,-174 671.56,-170.12 744.18,-178.61 769,-166 778.84,-161 787.17,-152.4 793.65,-143.84"/>
<polygon fill="black" stroke="black" points="796.5,-145.87 799.29,-135.65 790.73,-141.9 796.5,-145.87"/>
</g>
<!-- bcs::to_bytes -->
<g id="node13" class="node">
<title>bcs::to_bytes</title>
<ellipse fill="none" stroke="black" cx="891" cy="-34" rx="40.09" ry="18"/>
<text text-anchor="middle" x="891" y="-30.3" font-family="Times,serif" font-size="14.00">to_bytes</text>
</g>
<!-- account::create_account_unchecked&#45;&gt;bcs::to_bytes -->
<g id="edge14" class="edge">
<title>account::create_account_unchecked&#45;&gt;bcs::to_bytes</title>
<path fill="none" stroke="black" d="M586.77,-184.48C604.94,-180.39 625.21,-176.41 644,-174 655.31,-172.55 839.93,-172.9 849,-166 865.42,-153.53 878.79,-98.3 885.76,-63.65"/>
<polygon fill="black" stroke="black" points="889.2,-64.33 887.67,-53.85 882.32,-63 889.2,-64.33"/>
</g>
<!-- guid::create -->
<g id="node14" class="node">
<title>guid::create</title>
<ellipse fill="none" stroke="black" cx="925" cy="-117" rx="31.7" ry="18"/>
<text text-anchor="middle" x="925" y="-113.3" font-family="Times,serif" font-size="14.00">create</text>
</g>
<!-- account::create_account_unchecked&#45;&gt;guid::create -->
<g id="edge15" class="edge">
<title>account::create_account_unchecked&#45;&gt;guid::create</title>
<path fill="none" stroke="black" d="M586.77,-184.42C604.93,-180.33 625.2,-176.36 644,-174 669.92,-170.74 855.15,-176.66 879,-166 890.22,-160.98 900.07,-151.83 907.74,-142.86"/>
<polygon fill="black" stroke="black" points="910.27,-145.3 913.72,-135.29 904.78,-140.96 910.27,-145.3"/>
</g>
<!-- event::new_event_handle -->
<g id="node15" class="node">
<title>event::new_event_handle</title>
<ellipse fill="none" stroke="black" cx="1058" cy="-117" rx="76.89" ry="18"/>
<text text-anchor="middle" x="1058" y="-113.3" font-family="Times,serif" font-size="14.00">new_event_handle</text>
</g>
<!-- account::create_account_unchecked&#45;&gt;event::new_event_handle -->
<g id="edge16" class="edge">
<title>account::create_account_unchecked&#45;&gt;event::new_event_handle</title>
<path fill="none" stroke="black" d="M586.46,-184.38C604.7,-180.26 625.09,-176.28 644,-174 679.86,-169.67 934.09,-175.27 969,-166 988.81,-160.74 1009.07,-150.29 1025.24,-140.48"/>
<polygon fill="black" stroke="black" points="1026.85,-143.6 1033.46,-135.32 1023.13,-137.67 1026.85,-143.6"/>
</g>
<!-- account::create_signer -->
<g id="node16" class="node">
<title>account::create_signer</title>
<ellipse fill="none" stroke="black" cx="530" cy="-117" rx="57.69" ry="18"/>
<text text-anchor="middle" x="530" y="-113.3" font-family="Times,serif" font-size="14.00">create_signer</text>
</g>
<!-- account::create_account_unchecked&#45;&gt;account::create_signer -->
<g id="edge17" class="edge">
<title>account::create_account_unchecked&#45;&gt;account::create_signer</title>
<path fill="none" stroke="black" d="M530,-181.82C530,-171.69 530,-158.6 530,-146.92"/>
<polygon fill="black" stroke="black" points="533.5,-146.95 530,-136.95 526.5,-146.95 533.5,-146.95"/>
</g>
<!-- signer::borrow_address -->
<g id="node17" class="node">
<title>signer::borrow_address</title>
<ellipse fill="none" stroke="black" cx="1344" cy="-34" rx="66.89" ry="18"/>
<text text-anchor="middle" x="1344" y="-30.3" font-family="Times,serif" font-size="14.00">borrow_address</text>
</g>
<!-- signer::address_of&#45;&gt;signer::borrow_address -->
<g id="edge18" class="edge">
<title>signer::address_of&#45;&gt;signer::borrow_address</title>
<path fill="none" stroke="black" d="M1329.82,-98.82C1332.09,-88.58 1335.04,-75.33 1337.66,-63.55"/>
<polygon fill="black" stroke="black" points="1341.05,-64.43 1339.8,-53.91 1334.21,-62.91 1341.05,-64.43"/>
</g>
<!-- account::new_event_handle&#45;&gt;event::new_event_handle -->
<g id="edge19" class="edge">
<title>account::new_event_handle&#45;&gt;event::new_event_handle</title>
<path fill="none" stroke="black" d="M725.73,-268.13C739.21,-263.08 753.64,-256.69 766,-249 807.65,-223.08 801.93,-193.39 847,-174 871.96,-163.26 942.89,-173.51 969,-166 988.56,-160.37 1008.66,-150 1024.79,-140.33"/>
<polygon fill="black" stroke="black" points="1026.34,-143.49 1033,-135.25 1022.66,-137.54 1026.34,-143.49"/>
</g>
<!-- account::create_guid -->
<g id="node18" class="node">
<title>account::create_guid</title>
<ellipse fill="none" stroke="black" cx="705" cy="-200" rx="51.99" ry="18"/>
<text text-anchor="middle" x="705" y="-196.3" font-family="Times,serif" font-size="14.00">create_guid</text>
</g>
<!-- account::new_event_handle&#45;&gt;account::create_guid -->
<g id="edge20" class="edge">
<title>account::new_event_handle&#45;&gt;account::create_guid</title>
<path fill="none" stroke="black" d="M685.3,-264.82C688.52,-254.41 692.7,-240.87 696.38,-228.94"/>
<polygon fill="black" stroke="black" points="699.65,-230.19 699.26,-219.6 692.97,-228.12 699.65,-230.19"/>
</g>
<!-- type_info::type_of -->
<g id="node19" class="node">
<title>type_info::type_of</title>
<ellipse fill="none" stroke="black" cx="265" cy="-200" rx="37.89" ry="18"/>
<text text-anchor="middle" x="265" y="-196.3" font-family="Times,serif" font-size="14.00">type_of</text>
</g>
<!-- account::register_coin&#45;&gt;type_info::type_of -->
<g id="edge21" class="edge">
<title>account::register_coin&#45;&gt;type_info::type_of</title>
<path fill="none" stroke="black" d="M497.54,-267.62C487.08,-263.46 475.23,-259.4 464,-257 431.57,-250.07 345.42,-262.2 315,-249 303.41,-243.97 292.91,-234.99 284.57,-226.15"/>
<polygon fill="black" stroke="black" points="287.2,-223.85 277.97,-218.64 281.94,-228.47 287.2,-223.85"/>
</g>
<!-- event::emit_event -->
<g id="node20" class="node">
<title>event::emit_event</title>
<ellipse fill="none" stroke="black" cx="1203" cy="-117" rx="50.09" ry="18"/>
<text text-anchor="middle" x="1203" y="-113.3" font-family="Times,serif" font-size="14.00">emit_event</text>
</g>
<!-- account::register_coin&#45;&gt;event::emit_event -->
<g id="edge22" class="edge">
<title>account::register_coin&#45;&gt;event::emit_event</title>
<path fill="none" stroke="black" d="M560.45,-267.57C570.91,-263.41 582.76,-259.36 594,-257 631.45,-249.14 730.71,-263.78 766,-249 811.25,-230.04 801.56,-192.51 847,-174 877.57,-161.54 1113.05,-177.47 1144,-166 1157.41,-161.03 1170.03,-151.68 1180.13,-142.54"/>
<polygon fill="black" stroke="black" points="1182.43,-145.18 1187.22,-135.73 1177.59,-140.13 1182.43,-145.18"/>
</g>
<!-- account::create_guid&#45;&gt;signer::address_of -->
<g id="edge23" class="edge">
<title>account::create_guid&#45;&gt;signer::address_of</title>
<path fill="none" stroke="black" d="M748.26,-189.58C776.27,-183.94 813.61,-177.24 847,-174 870.12,-171.76 1243.13,-173.81 1265,-166 1279.08,-160.97 1292.41,-151.29 1303,-141.93"/>
<polygon fill="black" stroke="black" points="1305.19,-144.67 1310.1,-135.28 1300.41,-139.56 1305.19,-144.67"/>
</g>
<!-- account::create_guid&#45;&gt;guid::create -->
<g id="edge24" class="edge">
<title>account::create_guid&#45;&gt;guid::create</title>
<path fill="none" stroke="black" d="M735.99,-185.15C746.86,-180.87 759.28,-176.6 771,-174 794.5,-168.79 857.23,-176.26 879,-166 889.85,-160.89 899.47,-152.02 907.07,-143.28"/>
<polygon fill="black" stroke="black" points="909.74,-145.56 913.28,-135.57 904.28,-141.17 909.74,-145.56"/>
</g>
<!-- event::emit_event&#45;&gt;bcs::to_bytes -->
<g id="edge25" class="edge">
<title>event::emit_event&#45;&gt;bcs::to_bytes</title>
<path fill="none" stroke="black" d="M1174.87,-101.68C1165.32,-97.47 1154.41,-93.36 1144,-91 1106.04,-82.38 1006.21,-94.45 969,-83 950.97,-77.45 932.9,-66.74 918.7,-56.84"/>
<polygon fill="black" stroke="black" points="920.91,-54.12 910.76,-51.08 916.8,-59.78 920.91,-54.12"/>
</g>
<!-- event::write_to_event_store -->
<g id="node21" class="node">
<title>event::write_to_event_store</title>
<ellipse fill="none" stroke="black" cx="1168" cy="-34" rx="85.29" ry="18"/>
<text text-anchor="middle" x="1168" y="-30.3" font-family="Times,serif" font-size="14.00">write_to_event_store</text>
</g>
<!-- event::emit_event&#45;&gt;event::write_to_event_store -->
<g id="edge26" class="edge">
<title>event::emit_event&#45;&gt;event::write_to_event_store</title>
<path fill="none" stroke="black" d="M1195.58,-98.82C1191.03,-88.3 1185.11,-74.59 1179.91,-62.57"/>
<polygon fill="black" stroke="black" points="1183.19,-61.33 1176.01,-53.54 1176.77,-64.11 1183.19,-61.33"/>
</g>
</g>
</svg>
