<?xml version="1.0" encoding="UTF-8" standalone="no"?>
<!DOCTYPE svg PUBLIC "-//W3C//DTD SVG 1.1//EN"
 "http://www.w3.org/Graphics/SVG/1.1/DTD/svg11.dtd">
<!-- Generated by graphviz version 7.0.4 (20221203.1631)
 -->
<!-- Title: G Pages: 1 -->
<svg width="366pt" height="116pt"
 viewBox="0.00 0.00 366.28 116.00" xmlns="http://www.w3.org/2000/svg" xmlns:xlink="http://www.w3.org/1999/xlink">
<g id="graph0" class="graph" transform="scale(1 1) rotate(0) translate(4 112)">
<title>G</title>
<polygon fill="white" stroke="none" points="-4,4 -4,-112 362.28,-112 362.28,4 -4,4"/>
<!-- emit_new_block_event -->
<g id="node1" class="node">
<title>emit_new_block_event</title>
<ellipse fill="none" stroke="black" cx="159.64" cy="-18" rx="92.88" ry="18"/>
<text text-anchor="middle" x="159.64" y="-14.3" font-family="Times,serif" font-size="14.00">emit_new_block_event</text>
</g>
<!-- block_prologue -->
<g id="node2" class="node">
<title>block_prologue</title>
<ellipse fill="none" stroke="black" cx="65.64" cy="-90" rx="65.79" ry="18"/>
<text text-anchor="middle" x="65.64" y="-86.3" font-family="Times,serif" font-size="14.00">block_prologue</text>
</g>
<!-- block_prologue&#45;&gt;emit_new_block_event -->
<g id="edge1" class="edge">
<title>block_prologue&#45;&gt;emit_new_block_event</title>
<path fill="none" stroke="black" d="M87.45,-72.76C99.52,-63.77 114.74,-52.44 128.1,-42.49"/>
<polygon fill="black" stroke="black" points="129.84,-45.56 135.77,-36.78 125.65,-39.95 129.84,-45.56"/>
</g>
<!-- emit_genesis_block_event -->
<g id="node3" class="node">
<title>emit_genesis_block_event</title>
<ellipse fill="none" stroke="black" cx="253.64" cy="-90" rx="104.78" ry="18"/>
<text text-anchor="middle" x="253.64" y="-86.3" font-family="Times,serif" font-size="14.00">emit_genesis_block_event</text>
</g>
<!-- emit_genesis_block_event&#45;&gt;emit_new_block_event -->
<g id="edge2" class="edge">
<title>emit_genesis_block_event&#45;&gt;emit_new_block_event</title>
<path fill="none" stroke="black" d="M230.89,-72.05C219,-63.2 204.25,-52.22 191.27,-42.55"/>
<polygon fill="black" stroke="black" points="193.51,-39.86 183.4,-36.69 189.33,-45.47 193.51,-39.86"/>
</g>
</g>
</svg>
