<?xml version="1.0" encoding="UTF-8" standalone="no"?>
<!DOCTYPE svg PUBLIC "-//W3C//DTD SVG 1.1//EN"
 "http://www.w3.org/Graphics/SVG/1.1/DTD/svg11.dtd">
<!-- Generated by graphviz version 7.0.4 (20221203.1631)
 -->
<!-- Title: G Pages: 1 -->
<svg width="1067pt" height="282pt"
 viewBox="0.00 0.00 1067.00 282.00" xmlns="http://www.w3.org/2000/svg" xmlns:xlink="http://www.w3.org/1999/xlink">
<g id="graph0" class="graph" transform="scale(1 1) rotate(0) translate(4 278)">
<title>G</title>
<polygon fill="white" stroke="none" points="-4,4 -4,-278 1063,-278 1063,4 -4,4"/>
<g id="clust1" class="cluster">
<title>cluster_error</title>
<polygon fill="none" stroke="black" points="418,-8 418,-155 753,-155 753,-8 418,-8"/>
<text text-anchor="middle" x="585.5" y="-139.8" font-family="Times,serif" font-size="14.00">error</text>
</g>
<g id="clust2" class="cluster">
<title>cluster_system_addresses</title>
<polygon fill="none" stroke="black" points="166,-80 166,-230 410,-230 410,-80 166,-80"/>
<text text-anchor="middle" x="288" y="-214.8" font-family="Times,serif" font-size="14.00">system_addresses</text>
</g>
<g id="clust3" class="cluster">
<title>cluster_event</title>
<polygon fill="none" stroke="black" points="865,-80 865,-230 1051,-230 1051,-80 865,-80"/>
<text text-anchor="middle" x="958" y="-214.8" font-family="Times,serif" font-size="14.00">event</text>
</g>
<g id="clust4" class="cluster">
<title>cluster_signer</title>
<polygon fill="none" stroke="black" points="8,-8 8,-155 158,-155 158,-8 8,-8"/>
<text text-anchor="middle" x="83" y="-139.8" font-family="Times,serif" font-size="14.00">signer</text>
</g>
<g id="clust5" class="cluster">
<title>cluster_bcs</title>
<polygon fill="none" stroke="black" points="761,-80 761,-155 857,-155 857,-80 761,-80"/>
<text text-anchor="middle" x="809" y="-139.8" font-family="Times,serif" font-size="14.00">bcs</text>
</g>
<!-- update_epoch_interval_microsecs -->
<g id="node1" class="node">
<title>update_epoch_interval_microsecs</title>
<ellipse fill="none" stroke="black" cx="672" cy="-256" rx="130.78" ry="18"/>
<text text-anchor="middle" x="672" y="-252.3" font-family="Times,serif" font-size="14.00">update_epoch_interval_microsecs</text>
</g>
<!-- error::invalid_argument -->
<g id="node2" class="node">
<title>error::invalid_argument</title>
<ellipse fill="none" stroke="black" cx="672" cy="-106" rx="73.39" ry="18"/>
<text text-anchor="middle" x="672" y="-102.3" font-family="Times,serif" font-size="14.00">invalid_argument</text>
</g>
<!-- update_epoch_interval_microsecs&#45;&gt;error::invalid_argument -->
<g id="edge1" class="edge">
<title>update_epoch_interval_microsecs&#45;&gt;error::invalid_argument</title>
<path fill="none" stroke="black" d="M672,-237.73C672,-212.67 672,-165.9 672,-135.63"/>
<polygon fill="black" stroke="black" points="675.5,-135.67 672,-125.67 668.5,-135.67 675.5,-135.67"/>
</g>
<!-- system_addresses::assert_aptos_framework -->
<g id="node3" class="node">
<title>system_addresses::assert_aptos_framework</title>
<ellipse fill="none" stroke="black" cx="296" cy="-181" rx="96.68" ry="18"/>
<text text-anchor="middle" x="296" y="-177.3" font-family="Times,serif" font-size="14.00">assert_aptos_framework</text>
</g>
<!-- update_epoch_interval_microsecs&#45;&gt;system_addresses::assert_aptos_framework -->
<g id="edge2" class="edge">
<title>update_epoch_interval_microsecs&#45;&gt;system_addresses::assert_aptos_framework</title>
<path fill="none" stroke="black" d="M598.61,-240.75C533.46,-228.1 438.6,-209.69 372.52,-196.86"/>
<polygon fill="black" stroke="black" points="373.32,-193.45 362.84,-194.98 371.99,-200.32 373.32,-193.45"/>
</g>
<!-- event::emit_event -->
<g id="node4" class="node">
<title>event::emit_event</title>
<ellipse fill="none" stroke="black" cx="923" cy="-181" rx="50.09" ry="18"/>
<text text-anchor="middle" x="923" y="-177.3" font-family="Times,serif" font-size="14.00">emit_event</text>
</g>
<!-- update_epoch_interval_microsecs&#45;&gt;event::emit_event -->
<g id="edge3" class="edge">
<title>update_epoch_interval_microsecs&#45;&gt;event::emit_event</title>
<path fill="none" stroke="black" d="M726.15,-239.25C770.08,-226.48 831.45,-208.62 873.95,-196.27"/>
<polygon fill="black" stroke="black" points="874.78,-199.67 883.41,-193.52 872.83,-192.95 874.78,-199.67"/>
</g>
<!-- error::canonical -->
<g id="node5" class="node">
<title>error::canonical</title>
<ellipse fill="none" stroke="black" cx="587" cy="-34" rx="44.39" ry="18"/>
<text text-anchor="middle" x="587" y="-30.3" font-family="Times,serif" font-size="14.00">canonical</text>
</g>
<!-- error::invalid_argument&#45;&gt;error::canonical -->
<g id="edge4" class="edge">
<title>error::invalid_argument&#45;&gt;error::canonical</title>
<path fill="none" stroke="black" d="M651.86,-88.41C640.75,-79.26 626.79,-67.76 614.67,-57.78"/>
<polygon fill="black" stroke="black" points="616.95,-55.13 607,-51.47 612.5,-60.53 616.95,-55.13"/>
</g>
<!-- signer::address_of -->
<g id="node6" class="node">
<title>signer::address_of</title>
<ellipse fill="none" stroke="black" cx="92" cy="-106" rx="48.99" ry="18"/>
<text text-anchor="middle" x="92" y="-102.3" font-family="Times,serif" font-size="14.00">address_of</text>
</g>
<!-- system_addresses::assert_aptos_framework&#45;&gt;signer::address_of -->
<g id="edge5" class="edge">
<title>system_addresses::assert_aptos_framework&#45;&gt;signer::address_of</title>
<path fill="none" stroke="black" d="M215.77,-170.65C197.67,-167.01 178.83,-161.97 162,-155 146.92,-148.75 131.79,-138.93 119.47,-129.79"/>
<polygon fill="black" stroke="black" points="121.9,-127.24 111.84,-123.92 117.64,-132.79 121.9,-127.24"/>
</g>
<!-- error::permission_denied -->
<g id="node7" class="node">
<title>error::permission_denied</title>
<ellipse fill="none" stroke="black" cx="503" cy="-106" rx="77.19" ry="18"/>
<text text-anchor="middle" x="503" y="-102.3" font-family="Times,serif" font-size="14.00">permission_denied</text>
</g>
<!-- system_addresses::assert_aptos_framework&#45;&gt;error::permission_denied -->
<g id="edge6" class="edge">
<title>system_addresses::assert_aptos_framework&#45;&gt;error::permission_denied</title>
<path fill="none" stroke="black" d="M366.82,-168.43C382.59,-164.91 399.06,-160.48 414,-155 432.39,-148.25 451.65,-138.27 467.53,-129.15"/>
<polygon fill="black" stroke="black" points="469.29,-132.18 476.14,-124.1 465.74,-126.15 469.29,-132.18"/>
</g>
<!-- system_addresses::is_aptos_framework_address -->
<g id="node8" class="node">
<title>system_addresses::is_aptos_framework_address</title>
<ellipse fill="none" stroke="black" cx="288" cy="-106" rx="113.98" ry="18"/>
<text text-anchor="middle" x="288" y="-102.3" font-family="Times,serif" font-size="14.00">is_aptos_framework_address</text>
</g>
<!-- system_addresses::assert_aptos_framework&#45;&gt;system_addresses::is_aptos_framework_address -->
<g id="edge7" class="edge">
<title>system_addresses::assert_aptos_framework&#45;&gt;system_addresses::is_aptos_framework_address</title>
<path fill="none" stroke="black" d="M294.1,-162.7C293.22,-154.67 292.15,-144.9 291.16,-135.8"/>
<polygon fill="black" stroke="black" points="294.64,-135.49 290.07,-125.93 287.69,-136.26 294.64,-135.49"/>
</g>
<!-- bcs::to_bytes -->
<g id="node9" class="node">
<title>bcs::to_bytes</title>
<ellipse fill="none" stroke="black" cx="809" cy="-106" rx="40.09" ry="18"/>
<text text-anchor="middle" x="809" y="-102.3" font-family="Times,serif" font-size="14.00">to_bytes</text>
</g>
<!-- event::emit_event&#45;&gt;bcs::to_bytes -->
<g id="edge8" class="edge">
<title>event::emit_event&#45;&gt;bcs::to_bytes</title>
<path fill="none" stroke="black" d="M887.15,-168.11C878.29,-164.48 869.04,-160.09 861,-155 850.41,-148.3 840.01,-139.32 831.32,-130.94"/>
<polygon fill="black" stroke="black" points="833.87,-128.54 824.33,-123.93 828.92,-133.48 833.87,-128.54"/>
</g>
<!-- event::write_to_event_store -->
<g id="node10" class="node">
<title>event::write_to_event_store</title>
<ellipse fill="none" stroke="black" cx="958" cy="-106" rx="85.29" ry="18"/>
<text text-anchor="middle" x="958" y="-102.3" font-family="Times,serif" font-size="14.00">write_to_event_store</text>
</g>
<!-- event::emit_event&#45;&gt;event::write_to_event_store -->
<g id="edge9" class="edge">
<title>event::emit_event&#45;&gt;event::write_to_event_store</title>
<path fill="none" stroke="black" d="M931.12,-163.07C935.17,-154.62 940.17,-144.19 944.75,-134.63"/>
<polygon fill="black" stroke="black" points="947.86,-136.24 949.03,-125.71 941.55,-133.22 947.86,-136.24"/>
</g>
<!-- signer::borrow_address -->
<g id="node11" class="node">
<title>signer::borrow_address</title>
<ellipse fill="none" stroke="black" cx="83" cy="-34" rx="66.89" ry="18"/>
<text text-anchor="middle" x="83" y="-30.3" font-family="Times,serif" font-size="14.00">borrow_address</text>
</g>
<!-- signer::address_of&#45;&gt;signer::borrow_address -->
<g id="edge10" class="edge">
<title>signer::address_of&#45;&gt;signer::borrow_address</title>
<path fill="none" stroke="black" d="M89.78,-87.7C88.83,-80.32 87.7,-71.52 86.63,-63.25"/>
<polygon fill="black" stroke="black" points="90.14,-63.08 85.39,-53.61 83.2,-63.97 90.14,-63.08"/>
</g>
<!-- error::permission_denied&#45;&gt;error::canonical -->
<g id="edge11" class="edge">
<title>error::permission_denied&#45;&gt;error::canonical</title>
<path fill="none" stroke="black" d="M522.91,-88.41C533.81,-79.33 547.49,-67.93 559.41,-58"/>
<polygon fill="black" stroke="black" points="561.5,-60.81 566.94,-51.72 557.02,-55.43 561.5,-60.81"/>
</g>
</g>
</svg>
