<?xml version="1.0" encoding="UTF-8" standalone="no"?>
<!DOCTYPE svg PUBLIC "-//W3C//DTD SVG 1.1//EN"
 "http://www.w3.org/Graphics/SVG/1.1/DTD/svg11.dtd">
<!-- Generated by graphviz version 7.0.4 (20221203.1631)
 -->
<!-- Title: G Pages: 1 -->
<svg width="1048pt" height="373pt"
 viewBox="0.00 0.00 1048.00 373.00" xmlns="http://www.w3.org/2000/svg" xmlns:xlink="http://www.w3.org/1999/xlink">
<g id="graph0" class="graph" transform="scale(1 1) rotate(0) translate(4 369)">
<title>G</title>
<polygon fill="white" stroke="none" points="-4,4 -4,-369 1044,-369 1044,4 -4,4"/>
<g id="clust1" class="cluster">
<title>cluster_system_addresses</title>
<polygon fill="none" stroke="black" points="8,-80 8,-321 152,-321 152,-80 8,-80"/>
<text text-anchor="middle" x="80" y="-305.8" font-family="Times,serif" font-size="14.00">system_addresses</text>
</g>
<g id="clust2" class="cluster">
<title>cluster_event</title>
<polygon fill="none" stroke="black" points="496,-163 496,-321 704,-321 704,-163 496,-163"/>
<text text-anchor="middle" x="600" y="-305.8" font-family="Times,serif" font-size="14.00">event</text>
</g>
<g id="clust3" class="cluster">
<title>cluster_timestamp</title>
<polygon fill="none" stroke="black" points="712,-246 712,-321 886,-321 886,-246 712,-246"/>
<text text-anchor="middle" x="799" y="-305.8" font-family="Times,serif" font-size="14.00">timestamp</text>
</g>
<g id="clust4" class="cluster">
<title>cluster_reconfiguration</title>
<polygon fill="none" stroke="black" points="894,-246 894,-321 1032,-321 1032,-246 894,-246"/>
<text text-anchor="middle" x="963" y="-305.8" font-family="Times,serif" font-size="14.00">reconfiguration</text>
</g>
<g id="clust5" class="cluster">
<title>cluster_error</title>
<polygon fill="none" stroke="black" points="318,-80 318,-238 488,-238 488,-80 318,-80"/>
<text text-anchor="middle" x="403" y="-222.8" font-family="Times,serif" font-size="14.00">error</text>
</g>
<g id="clust6" class="cluster">
<title>cluster_bcs</title>
<polygon fill="none" stroke="black" points="712,-163 712,-238 808,-238 808,-163 712,-163"/>
<text text-anchor="middle" x="760" y="-222.8" font-family="Times,serif" font-size="14.00">bcs</text>
</g>
<g id="clust7" class="cluster">
<title>cluster_signer</title>
<polygon fill="none" stroke="black" points="160,-8 160,-155 310,-155 310,-8 160,-8"/>
<text text-anchor="middle" x="235" y="-139.8" font-family="Times,serif" font-size="14.00">signer</text>
</g>
<!-- emit_writeset_block_event -->
<g id="node1" class="node">
<title>emit_writeset_block_event</title>
<ellipse fill="none" stroke="black" cx="659" cy="-347" rx="106.68" ry="18"/>
<text text-anchor="middle" x="659" y="-343.3" font-family="Times,serif" font-size="14.00">emit_writeset_block_event</text>
</g>
<!-- system_addresses::assert_vm -->
<g id="node2" class="node">
<title>system_addresses::assert_vm</title>
<ellipse fill="none" stroke="black" cx="97" cy="-272" rx="46.59" ry="18"/>
<text text-anchor="middle" x="97" y="-268.3" font-family="Times,serif" font-size="14.00">assert_vm</text>
</g>
<!-- emit_writeset_block_event&#45;&gt;system_addresses::assert_vm -->
<g id="edge1" class="edge">
<title>emit_writeset_block_event&#45;&gt;system_addresses::assert_vm</title>
<path fill="none" stroke="black" d="M576.38,-335.27C460.01,-320.15 251,-293 151.95,-280.14"/>
<polygon fill="black" stroke="black" points="152.58,-276.69 142.21,-278.87 151.68,-283.63 152.58,-276.69"/>
</g>
<!-- event::counter -->
<g id="node3" class="node">
<title>event::counter</title>
<ellipse fill="none" stroke="black" cx="659" cy="-272" rx="37.09" ry="18"/>
<text text-anchor="middle" x="659" y="-268.3" font-family="Times,serif" font-size="14.00">counter</text>
</g>
<!-- emit_writeset_block_event&#45;&gt;event::counter -->
<g id="edge2" class="edge">
<title>emit_writeset_block_event&#45;&gt;event::counter</title>
<path fill="none" stroke="black" d="M659,-328.7C659,-320.67 659,-310.9 659,-301.8"/>
<polygon fill="black" stroke="black" points="662.5,-301.94 659,-291.94 655.5,-301.94 662.5,-301.94"/>
</g>
<!-- event::emit_event -->
<g id="node4" class="node">
<title>event::emit_event</title>
<ellipse fill="none" stroke="black" cx="554" cy="-272" rx="50.09" ry="18"/>
<text text-anchor="middle" x="554" y="-268.3" font-family="Times,serif" font-size="14.00">emit_event</text>
</g>
<!-- emit_writeset_block_event&#45;&gt;event::emit_event -->
<g id="edge3" class="edge">
<title>emit_writeset_block_event&#45;&gt;event::emit_event</title>
<path fill="none" stroke="black" d="M626.87,-329.54C622.14,-326.82 617.38,-323.93 613,-321 601.91,-313.57 590.39,-304.53 580.49,-296.3"/>
<polygon fill="black" stroke="black" points="582.97,-293.82 573.08,-290.02 578.45,-299.16 582.97,-293.82"/>
</g>
<!-- timestamp::now_microseconds -->
<g id="node5" class="node">
<title>timestamp::now_microseconds</title>
<ellipse fill="none" stroke="black" cx="799" cy="-272" rx="79.09" ry="18"/>
<text text-anchor="middle" x="799" y="-268.3" font-family="Times,serif" font-size="14.00">now_microseconds</text>
</g>
<!-- emit_writeset_block_event&#45;&gt;timestamp::now_microseconds -->
<g id="edge4" class="edge">
<title>emit_writeset_block_event&#45;&gt;timestamp::now_microseconds</title>
<path fill="none" stroke="black" d="M691.71,-329.39C697.16,-326.6 702.74,-323.73 708,-321 724.65,-312.36 742.95,-302.74 758.74,-294.38"/>
<polygon fill="black" stroke="black" points="760.18,-297.58 767.38,-289.81 756.91,-291.4 760.18,-297.58"/>
</g>
<!-- reconfiguration::current_epoch -->
<g id="node6" class="node">
<title>reconfiguration::current_epoch</title>
<ellipse fill="none" stroke="black" cx="963" cy="-272" rx="61.19" ry="18"/>
<text text-anchor="middle" x="963" y="-268.3" font-family="Times,serif" font-size="14.00">current_epoch</text>
</g>
<!-- emit_writeset_block_event&#45;&gt;reconfiguration::current_epoch -->
<g id="edge5" class="edge">
<title>emit_writeset_block_event&#45;&gt;reconfiguration::current_epoch</title>
<path fill="none" stroke="black" d="M757.79,-339.92C809.08,-335.85 865.94,-329.64 890,-321 905.81,-315.32 921.61,-305.57 934.44,-296.34"/>
<polygon fill="black" stroke="black" points="936.51,-299.16 942.42,-290.36 932.32,-293.55 936.51,-299.16"/>
</g>
<!-- error::permission_denied -->
<g id="node7" class="node">
<title>error::permission_denied</title>
<ellipse fill="none" stroke="black" cx="403" cy="-189" rx="77.19" ry="18"/>
<text text-anchor="middle" x="403" y="-185.3" font-family="Times,serif" font-size="14.00">permission_denied</text>
</g>
<!-- system_addresses::assert_vm&#45;&gt;error::permission_denied -->
<g id="edge6" class="edge">
<title>system_addresses::assert_vm&#45;&gt;error::permission_denied</title>
<path fill="none" stroke="black" d="M134.83,-260.99C186.8,-247.23 280.84,-222.34 342.6,-205.99"/>
<polygon fill="black" stroke="black" points="343.13,-209.47 351.9,-203.53 341.34,-202.7 343.13,-209.47"/>
</g>
<!-- system_addresses::is_vm -->
<g id="node8" class="node">
<title>system_addresses::is_vm</title>
<ellipse fill="none" stroke="black" cx="97" cy="-189" rx="32.49" ry="18"/>
<text text-anchor="middle" x="97" y="-185.3" font-family="Times,serif" font-size="14.00">is_vm</text>
</g>
<!-- system_addresses::assert_vm&#45;&gt;system_addresses::is_vm -->
<g id="edge7" class="edge">
<title>system_addresses::assert_vm&#45;&gt;system_addresses::is_vm</title>
<path fill="none" stroke="black" d="M97,-253.82C97,-243.69 97,-230.6 97,-218.92"/>
<polygon fill="black" stroke="black" points="100.5,-218.95 97,-208.95 93.5,-218.95 100.5,-218.95"/>
</g>
<!-- bcs::to_bytes -->
<g id="node9" class="node">
<title>bcs::to_bytes</title>
<ellipse fill="none" stroke="black" cx="760" cy="-189" rx="40.09" ry="18"/>
<text text-anchor="middle" x="760" y="-185.3" font-family="Times,serif" font-size="14.00">to_bytes</text>
</g>
<!-- event::emit_event&#45;&gt;bcs::to_bytes -->
<g id="edge8" class="edge">
<title>event::emit_event&#45;&gt;bcs::to_bytes</title>
<path fill="none" stroke="black" d="M582.48,-256.78C591.97,-252.63 602.74,-248.54 613,-246 654.13,-235.83 669.22,-255.07 708,-238 719.93,-232.75 730.9,-223.61 739.66,-214.7"/>
<polygon fill="black" stroke="black" points="742.11,-217.2 746.32,-207.48 736.97,-212.46 742.11,-217.2"/>
</g>
<!-- event::write_to_event_store -->
<g id="node10" class="node">
<title>event::write_to_event_store</title>
<ellipse fill="none" stroke="black" cx="589" cy="-189" rx="85.29" ry="18"/>
<text text-anchor="middle" x="589" y="-185.3" font-family="Times,serif" font-size="14.00">write_to_event_store</text>
</g>
<!-- event::emit_event&#45;&gt;event::write_to_event_store -->
<g id="edge9" class="edge">
<title>event::emit_event&#45;&gt;event::write_to_event_store</title>
<path fill="none" stroke="black" d="M561.42,-253.82C565.97,-243.3 571.89,-229.59 577.09,-217.57"/>
<polygon fill="black" stroke="black" points="580.23,-219.11 580.99,-208.54 573.81,-216.33 580.23,-219.11"/>
</g>
<!-- error::canonical -->
<g id="node11" class="node">
<title>error::canonical</title>
<ellipse fill="none" stroke="black" cx="403" cy="-106" rx="44.39" ry="18"/>
<text text-anchor="middle" x="403" y="-102.3" font-family="Times,serif" font-size="14.00">canonical</text>
</g>
<!-- error::permission_denied&#45;&gt;error::canonical -->
<g id="edge10" class="edge">
<title>error::permission_denied&#45;&gt;error::canonical</title>
<path fill="none" stroke="black" d="M403,-170.82C403,-160.69 403,-147.6 403,-135.92"/>
<polygon fill="black" stroke="black" points="406.5,-135.95 403,-125.95 399.5,-135.95 406.5,-135.95"/>
</g>
<!-- signer::address_of -->
<g id="node12" class="node">
<title>signer::address_of</title>
<ellipse fill="none" stroke="black" cx="226" cy="-106" rx="48.99" ry="18"/>
<text text-anchor="middle" x="226" y="-102.3" font-family="Times,serif" font-size="14.00">address_of</text>
</g>
<!-- system_addresses::is_vm&#45;&gt;signer::address_of -->
<g id="edge11" class="edge">
<title>system_addresses::is_vm&#45;&gt;signer::address_of</title>
<path fill="none" stroke="black" d="M119.97,-175.78C131.01,-169.76 144.33,-162.24 156,-155 169.14,-146.84 183.27,-137.31 195.37,-128.9"/>
<polygon fill="black" stroke="black" points="197.16,-131.91 203.34,-123.31 193.15,-126.18 197.16,-131.91"/>
</g>
<!-- system_addresses::is_vm_address -->
<g id="node13" class="node">
<title>system_addresses::is_vm_address</title>
<ellipse fill="none" stroke="black" cx="80" cy="-106" rx="63.89" ry="18"/>
<text text-anchor="middle" x="80" y="-102.3" font-family="Times,serif" font-size="14.00">is_vm_address</text>
</g>
<!-- system_addresses::is_vm&#45;&gt;system_addresses::is_vm_address -->
<g id="edge12" class="edge">
<title>system_addresses::is_vm&#45;&gt;system_addresses::is_vm_address</title>
<path fill="none" stroke="black" d="M93.39,-170.82C91.25,-160.58 88.46,-147.33 85.99,-135.55"/>
<polygon fill="black" stroke="black" points="89.45,-134.98 83.97,-125.91 82.6,-136.42 89.45,-134.98"/>
</g>
<!-- signer::borrow_address -->
<g id="node14" class="node">
<title>signer::borrow_address</title>
<ellipse fill="none" stroke="black" cx="235" cy="-34" rx="66.89" ry="18"/>
<text text-anchor="middle" x="235" y="-30.3" font-family="Times,serif" font-size="14.00">borrow_address</text>
</g>
<!-- signer::address_of&#45;&gt;signer::borrow_address -->
<g id="edge13" class="edge">
<title>signer::address_of&#45;&gt;signer::borrow_address</title>
<path fill="none" stroke="black" d="M228.22,-87.7C229.17,-80.32 230.3,-71.52 231.37,-63.25"/>
<polygon fill="black" stroke="black" points="234.8,-63.97 232.61,-53.61 227.86,-63.08 234.8,-63.97"/>
</g>
</g>
</svg>
