<?xml version="1.0" encoding="UTF-8" standalone="no"?>
<!DOCTYPE svg PUBLIC "-//W3C//DTD SVG 1.1//EN"
 "http://www.w3.org/Graphics/SVG/1.1/DTD/svg11.dtd">
<!-- Generated by graphviz version 7.0.4 (20221203.1631)
 -->
<!-- Title: G Pages: 1 -->
<svg width="248pt" height="207pt"
 viewBox="0.00 0.00 247.80 207.00" xmlns="http://www.w3.org/2000/svg" xmlns:xlink="http://www.w3.org/1999/xlink">
<g id="graph0" class="graph" transform="scale(1 1) rotate(0) translate(4 203)">
<title>G</title>
<polygon fill="white" stroke="none" points="-4,4 -4,-203 243.8,-203 243.8,4 -4,4"/>
<g id="clust1" class="cluster">
<title>cluster_error</title>
<polygon fill="none" stroke="black" points="8,-8 8,-155 136,-155 136,-8 8,-8"/>
<text text-anchor="middle" x="72" y="-139.8" font-family="Times,serif" font-size="14.00">error</text>
</g>
<!-- assert_genesis -->
<g id="node1" class="node">
<title>assert_genesis</title>
<ellipse fill="none" stroke="black" cx="132" cy="-181" rx="61.19" ry="18"/>
<text text-anchor="middle" x="132" y="-177.3" font-family="Times,serif" font-size="14.00">assert_genesis</text>
</g>
<!-- error::invalid_state -->
<g id="node2" class="node">
<title>error::invalid_state</title>
<ellipse fill="none" stroke="black" cx="72" cy="-106" rx="55.79" ry="18"/>
<text text-anchor="middle" x="72" y="-102.3" font-family="Times,serif" font-size="14.00">invalid_state</text>
</g>
<!-- assert_genesis&#45;&gt;error::invalid_state -->
<g id="edge1" class="edge">
<title>assert_genesis&#45;&gt;error::invalid_state</title>
<path fill="none" stroke="black" d="M118.08,-163.07C110.66,-154.04 101.38,-142.74 93.09,-132.66"/>
<polygon fill="black" stroke="black" points="95.86,-130.51 86.8,-125.01 90.45,-134.96 95.86,-130.51"/>
</g>
<!-- is_genesis -->
<g id="node3" class="node">
<title>is_genesis</title>
<ellipse fill="none" stroke="black" cx="193" cy="-106" rx="46.59" ry="18"/>
<text text-anchor="middle" x="193" y="-102.3" font-family="Times,serif" font-size="14.00">is_genesis</text>
</g>
<!-- assert_genesis&#45;&gt;is_genesis -->
<g id="edge2" class="edge">
<title>assert_genesis&#45;&gt;is_genesis</title>
<path fill="none" stroke="black" d="M146.15,-163.07C153.82,-153.88 163.46,-142.35 172,-132.13"/>
<polygon fill="black" stroke="black" points="174.44,-134.67 178.17,-124.75 169.07,-130.18 174.44,-134.67"/>
</g>
<!-- error::canonical -->
<g id="node4" class="node">
<title>error::canonical</title>
<ellipse fill="none" stroke="black" cx="72" cy="-34" rx="44.39" ry="18"/>
<text text-anchor="middle" x="72" y="-30.3" font-family="Times,serif" font-size="14.00">canonical</text>
</g>
<!-- error::invalid_state&#45;&gt;error::canonical -->
<g id="edge3" class="edge">
<title>error::invalid_state&#45;&gt;error::canonical</title>
<path fill="none" stroke="black" d="M72,-87.7C72,-80.41 72,-71.73 72,-63.54"/>
<polygon fill="black" stroke="black" points="75.5,-63.62 72,-53.62 68.5,-63.62 75.5,-63.62"/>
</g>
</g>
</svg>
