<?xml version="1.0" encoding="UTF-8" standalone="no"?>
<!DOCTYPE svg PUBLIC "-//W3C//DTD SVG 1.1//EN"
 "http://www.w3.org/Graphics/SVG/1.1/DTD/svg11.dtd">
<!-- Generated by graphviz version 7.0.4 (20221203.1631)
 -->
<!-- Title: G Pages: 1 -->
<svg width="915pt" height="238pt"
 viewBox="0.00 0.00 915.00 238.00" xmlns="http://www.w3.org/2000/svg" xmlns:xlink="http://www.w3.org/1999/xlink">
<g id="graph0" class="graph" transform="scale(1 1) rotate(0) translate(4 234)">
<title>G</title>
<polygon fill="white" stroke="none" points="-4,4 -4,-234 911,-234 911,4 -4,4"/>
<g id="clust1" class="cluster">
<title>cluster_reconfiguration</title>
<polygon fill="none" stroke="black" points="381,-64 381,-139 499,-139 499,-64 381,-64"/>
<text text-anchor="middle" x="440" y="-123.8" font-family="Times,serif" font-size="14.00">reconfiguration</text>
</g>
<g id="clust2" class="cluster">
<title>cluster_aptos_governance</title>
<polygon fill="none" stroke="black" points="8,-147 8,-222 126,-222 126,-147 8,-147"/>
<text text-anchor="middle" x="67" y="-206.8" font-family="Times,serif" font-size="14.00">aptos_governance</text>
</g>
<g id="clust3" class="cluster">
<title>cluster_block</title>
<polygon fill="none" stroke="black" points="134,-147 134,-222 282,-222 282,-147 134,-147"/>
<text text-anchor="middle" x="208" y="-206.8" font-family="Times,serif" font-size="14.00">block</text>
</g>
<g id="clust4" class="cluster">
<title>cluster_consensus_config</title>
<polygon fill="none" stroke="black" points="290,-147 290,-222 403,-222 403,-147 290,-147"/>
<text text-anchor="middle" x="346.5" y="-206.8" font-family="Times,serif" font-size="14.00">consensus_config</text>
</g>
<g id="clust5" class="cluster">
<title>cluster_gas_schedule</title>
<polygon fill="none" stroke="black" points="411,-147 411,-222 773,-222 773,-147 411,-147"/>
<text text-anchor="middle" x="592" y="-206.8" font-family="Times,serif" font-size="14.00">gas_schedule</text>
</g>
<g id="clust6" class="cluster">
<title>cluster_version</title>
<polygon fill="none" stroke="black" points="781,-147 781,-222 899,-222 899,-147 781,-147"/>
<text text-anchor="middle" x="840" y="-206.8" font-family="Times,serif" font-size="14.00">version</text>
</g>
<!-- is_genesis -->
<g id="node1" class="node">
<title>is_genesis</title>
<ellipse fill="none" stroke="black" cx="375" cy="-18" rx="46.59" ry="18"/>
<text text-anchor="middle" x="375" y="-14.3" font-family="Times,serif" font-size="14.00">is_genesis</text>
</g>
<!-- assert_genesis -->
<g id="node2" class="node">
<title>assert_genesis</title>
<ellipse fill="none" stroke="black" cx="310" cy="-90" rx="61.19" ry="18"/>
<text text-anchor="middle" x="310" y="-86.3" font-family="Times,serif" font-size="14.00">assert_genesis</text>
</g>
<!-- assert_genesis&#45;&gt;is_genesis -->
<g id="edge1" class="edge">
<title>assert_genesis&#45;&gt;is_genesis</title>
<path fill="none" stroke="black" d="M325.4,-72.41C333.34,-63.87 343.17,-53.28 351.98,-43.79"/>
<polygon fill="black" stroke="black" points="354.44,-46.29 358.68,-36.58 349.31,-41.53 354.44,-46.29"/>
</g>
<!-- reconfiguration::reconfigure -->
<g id="node3" class="node">
<title>reconfiguration::reconfigure</title>
<ellipse fill="none" stroke="black" cx="440" cy="-90" rx="51.19" ry="18"/>
<text text-anchor="middle" x="440" y="-86.3" font-family="Times,serif" font-size="14.00">reconfigure</text>
</g>
<!-- reconfiguration::reconfigure&#45;&gt;is_genesis -->
<g id="edge2" class="edge">
<title>reconfiguration::reconfigure&#45;&gt;is_genesis</title>
<path fill="none" stroke="black" d="M424.6,-72.41C416.66,-63.87 406.83,-53.28 398.02,-43.79"/>
<polygon fill="black" stroke="black" points="400.69,-41.53 391.32,-36.58 395.56,-46.29 400.69,-41.53"/>
</g>
<!-- aptos_governance::reconfigure -->
<g id="node4" class="node">
<title>aptos_governance::reconfigure</title>
<ellipse fill="none" stroke="black" cx="67" cy="-173" rx="51.19" ry="18"/>
<text text-anchor="middle" x="67" y="-169.3" font-family="Times,serif" font-size="14.00">reconfigure</text>
</g>
<!-- aptos_governance::reconfigure&#45;&gt;reconfiguration::reconfigure -->
<g id="edge3" class="edge">
<title>aptos_governance::reconfigure&#45;&gt;reconfiguration::reconfigure</title>
<path fill="none" stroke="black" d="M96.47,-157.87C106.83,-153.56 118.71,-149.35 130,-147 157.21,-141.35 353.93,-148.62 380,-139 393.55,-134 406.37,-124.64 416.66,-115.51"/>
<polygon fill="black" stroke="black" points="419.02,-118.1 423.9,-108.69 414.22,-113 419.02,-118.1"/>
</g>
<!-- block::block_prologue -->
<g id="node5" class="node">
<title>block::block_prologue</title>
<ellipse fill="none" stroke="black" cx="208" cy="-173" rx="65.79" ry="18"/>
<text text-anchor="middle" x="208" y="-169.3" font-family="Times,serif" font-size="14.00">block_prologue</text>
</g>
<!-- block::block_prologue&#45;&gt;reconfiguration::reconfigure -->
<g id="edge4" class="edge">
<title>block::block_prologue&#45;&gt;reconfiguration::reconfigure</title>
<path fill="none" stroke="black" d="M246.03,-157.92C258.6,-153.78 272.75,-149.65 286,-147 327.11,-138.77 341.06,-154.55 380,-139 393.42,-133.64 406.22,-124.23 416.52,-115.15"/>
<polygon fill="black" stroke="black" points="418.84,-117.77 423.78,-108.4 414.08,-112.65 418.84,-117.77"/>
</g>
<!-- consensus_config::set -->
<g id="node6" class="node">
<title>consensus_config::set</title>
<ellipse fill="none" stroke="black" cx="368" cy="-173" rx="27" ry="18"/>
<text text-anchor="middle" x="368" y="-169.3" font-family="Times,serif" font-size="14.00">set</text>
</g>
<!-- consensus_config::set&#45;&gt;reconfiguration::reconfigure -->
<g id="edge5" class="edge">
<title>consensus_config::set&#45;&gt;reconfiguration::reconfigure</title>
<path fill="none" stroke="black" d="M381.21,-157.14C391.4,-145.68 405.73,-129.56 417.69,-116.1"/>
<polygon fill="black" stroke="black" points="420.11,-118.65 424.13,-108.85 414.87,-114 420.11,-118.65"/>
</g>
<!-- gas_schedule::set_gas_schedule -->
<g id="node7" class="node">
<title>gas_schedule::set_gas_schedule</title>
<ellipse fill="none" stroke="black" cx="694" cy="-173" rx="71.49" ry="18"/>
<text text-anchor="middle" x="694" y="-169.3" font-family="Times,serif" font-size="14.00">set_gas_schedule</text>
</g>
<!-- gas_schedule::set_gas_schedule&#45;&gt;reconfiguration::reconfigure -->
<g id="edge6" class="edge">
<title>gas_schedule::set_gas_schedule&#45;&gt;reconfiguration::reconfigure</title>
<path fill="none" stroke="black" d="M650.91,-158.26C605.71,-143.84 534.82,-121.24 487.89,-106.27"/>
<polygon fill="black" stroke="black" points="489.13,-102.99 478.54,-103.29 487,-109.66 489.13,-102.99"/>
</g>
<!-- gas_schedule::set_storage_gas_config -->
<g id="node8" class="node">
<title>gas_schedule::set_storage_gas_config</title>
<ellipse fill="none" stroke="black" cx="512" cy="-173" rx="92.88" ry="18"/>
<text text-anchor="middle" x="512" y="-169.3" font-family="Times,serif" font-size="14.00">set_storage_gas_config</text>
</g>
<!-- gas_schedule::set_storage_gas_config&#45;&gt;reconfiguration::reconfigure -->
<g id="edge7" class="edge">
<title>gas_schedule::set_storage_gas_config&#45;&gt;reconfiguration::reconfigure</title>
<path fill="none" stroke="black" d="M496.73,-154.82C486.67,-143.5 473.33,-128.5 462.11,-115.88"/>
<polygon fill="black" stroke="black" points="465.02,-113.88 455.76,-108.73 459.79,-118.53 465.02,-113.88"/>
</g>
<!-- version::set_version -->
<g id="node9" class="node">
<title>version::set_version</title>
<ellipse fill="none" stroke="black" cx="840" cy="-173" rx="50.89" ry="18"/>
<text text-anchor="middle" x="840" y="-169.3" font-family="Times,serif" font-size="14.00">set_version</text>
</g>
<!-- version::set_version&#45;&gt;reconfiguration::reconfigure -->
<g id="edge8" class="edge">
<title>version::set_version&#45;&gt;reconfiguration::reconfigure</title>
<path fill="none" stroke="black" d="M809.37,-158.33C799.22,-154.21 787.77,-149.99 777,-147 682.07,-120.6 568.42,-104.88 500.33,-97.1"/>
<polygon fill="black" stroke="black" points="500.81,-93.63 490.48,-95.99 500.03,-100.59 500.81,-93.63"/>
</g>
</g>
</svg>
