<?xml version="1.0" encoding="UTF-8" standalone="no"?>
<!DOCTYPE svg PUBLIC "-//W3C//DTD SVG 1.1//EN"
 "http://www.w3.org/Graphics/SVG/1.1/DTD/svg11.dtd">
<!-- Generated by graphviz version 7.0.4 (20221203.1631)
 -->
<!-- Title: G Pages: 1 -->
<svg width="579pt" height="227pt"
 viewBox="0.00 0.00 579.00 227.00" xmlns="http://www.w3.org/2000/svg" xmlns:xlink="http://www.w3.org/1999/xlink">
<g id="graph0" class="graph" transform="scale(1 1) rotate(0) translate(4 223)">
<title>G</title>
<polygon fill="white" stroke="none" points="-4,4 -4,-223 575,-223 575,4 -4,4"/>
<g id="clust1" class="cluster">
<title>cluster_transaction_validation</title>
<polygon fill="none" stroke="black" points="8,-64 8,-211 563,-211 563,-64 8,-64"/>
<text text-anchor="middle" x="285.5" y="-195.8" font-family="Times,serif" font-size="14.00">transaction_validation</text>
</g>
<!-- get -->
<g id="node1" class="node">
<title>get</title>
<ellipse fill="none" stroke="black" cx="278" cy="-18" rx="27" ry="18"/>
<text text-anchor="middle" x="278" y="-14.3" font-family="Times,serif" font-size="14.00">get</text>
</g>
<!-- transaction_validation::prologue_common -->
<g id="node2" class="node">
<title>transaction_validation::prologue_common</title>
<ellipse fill="none" stroke="black" cx="278" cy="-90" rx="77.99" ry="18"/>
<text text-anchor="middle" x="278" y="-86.3" font-family="Times,serif" font-size="14.00">prologue_common</text>
</g>
<!-- transaction_validation::prologue_common&#45;&gt;get -->
<g id="edge1" class="edge">
<title>transaction_validation::prologue_common&#45;&gt;get</title>
<path fill="none" stroke="black" d="M278,-71.7C278,-64.41 278,-55.73 278,-47.54"/>
<polygon fill="black" stroke="black" points="281.5,-47.62 278,-37.62 274.5,-47.62 281.5,-47.62"/>
</g>
<!-- transaction_validation::module_prologue -->
<g id="node3" class="node">
<title>transaction_validation::module_prologue</title>
<ellipse fill="none" stroke="black" cx="482" cy="-162" rx="73.39" ry="18"/>
<text text-anchor="middle" x="482" y="-158.3" font-family="Times,serif" font-size="14.00">module_prologue</text>
</g>
<!-- transaction_validation::module_prologue&#45;&gt;transaction_validation::prologue_common -->
<g id="edge2" class="edge">
<title>transaction_validation::module_prologue&#45;&gt;transaction_validation::prologue_common</title>
<path fill="none" stroke="black" d="M440.72,-146.83C409.1,-135.98 365.23,-120.93 331.02,-109.19"/>
<polygon fill="black" stroke="black" points="332.3,-105.93 321.7,-106 330.03,-112.55 332.3,-105.93"/>
</g>
<!-- transaction_validation::multi_agent_script_prologue -->
<g id="node4" class="node">
<title>transaction_validation::multi_agent_script_prologue</title>
<ellipse fill="none" stroke="black" cx="278" cy="-162" rx="112.38" ry="18"/>
<text text-anchor="middle" x="278" y="-158.3" font-family="Times,serif" font-size="14.00">multi_agent_script_prologue</text>
</g>
<!-- transaction_validation::multi_agent_script_prologue&#45;&gt;transaction_validation::prologue_common -->
<g id="edge3" class="edge">
<title>transaction_validation::multi_agent_script_prologue&#45;&gt;transaction_validation::prologue_common</title>
<path fill="none" stroke="black" d="M278,-143.7C278,-136.41 278,-127.73 278,-119.54"/>
<polygon fill="black" stroke="black" points="281.5,-119.62 278,-109.62 274.5,-119.62 281.5,-119.62"/>
</g>
<!-- transaction_validation::script_prologue -->
<g id="node5" class="node">
<title>transaction_validation::script_prologue</title>
<ellipse fill="none" stroke="black" cx="82" cy="-162" rx="65.79" ry="18"/>
<text text-anchor="middle" x="82" y="-158.3" font-family="Times,serif" font-size="14.00">script_prologue</text>
</g>
<!-- transaction_validation::script_prologue&#45;&gt;transaction_validation::prologue_common -->
<g id="edge4" class="edge">
<title>transaction_validation::script_prologue&#45;&gt;transaction_validation::prologue_common</title>
<path fill="none" stroke="black" d="M120.72,-147.17C150.89,-136.4 193.07,-121.33 226.15,-109.52"/>
<polygon fill="black" stroke="black" points="227.33,-112.81 235.57,-106.15 224.97,-106.22 227.33,-112.81"/>
</g>
</g>
</svg>
