<?xml version="1.0" encoding="UTF-8" standalone="no"?>
<!DOCTYPE svg PUBLIC "-//W3C//DTD SVG 1.1//EN"
 "http://www.w3.org/Graphics/SVG/1.1/DTD/svg11.dtd">
<!-- Generated by graphviz version 7.0.4 (20221203.1631)
 -->
<!-- Title: G Pages: 1 -->
<svg width="831pt" height="404pt"
 viewBox="0.00 0.00 831.00 404.00" xmlns="http://www.w3.org/2000/svg" xmlns:xlink="http://www.w3.org/1999/xlink">
<g id="graph0" class="graph" transform="scale(1 1) rotate(0) translate(4 400)">
<title>G</title>
<polygon fill="white" stroke="none" points="-4,4 -4,-400 827,-400 827,4 -4,4"/>
<!-- code -->
<g id="node1" class="node">
<title>code</title>
<ellipse fill="none" stroke="black" cx="444" cy="-378" rx="27.1" ry="18"/>
<text text-anchor="middle" x="444" y="-374.3" font-family="Times,serif" font-size="14.00">code</text>
</g>
<!-- vector -->
<g id="node2" class="node">
<title>vector</title>
<ellipse fill="none" stroke="black" cx="61" cy="-18" rx="32.49" ry="18"/>
<text text-anchor="middle" x="61" y="-14.3" font-family="Times,serif" font-size="14.00">vector</text>
</g>
<!-- code&#45;&gt;vector -->
<g id="edge1" class="edge">
<title>code&#45;&gt;vector</title>
<path fill="none" stroke="black" d="M416.75,-377.57C357.43,-377.8 213.32,-372.83 106,-324 50.01,-298.52 0,-296.52 0,-235 0,-235 0,-235 0,-161 0,-120.55 1.76,-108.59 19,-72 23.98,-61.44 31.42,-51.08 38.67,-42.37"/>
<polygon fill="black" stroke="black" points="41.1,-44.91 45.05,-35.08 35.83,-40.3 41.1,-44.91"/>
</g>
<!-- option -->
<g id="node3" class="node">
<title>option</title>
<ellipse fill="none" stroke="black" cx="61" cy="-90" rx="33.29" ry="18"/>
<text text-anchor="middle" x="61" y="-86.3" font-family="Times,serif" font-size="14.00">option</text>
</g>
<!-- code&#45;&gt;option -->
<g id="edge2" class="edge">
<title>code&#45;&gt;option</title>
<path fill="none" stroke="black" d="M417.05,-375.37C351.39,-370.93 185.35,-356.69 142,-324 77.08,-275.05 63.9,-170.56 61.43,-119.83"/>
<polygon fill="black" stroke="black" points="64.93,-119.82 61.06,-109.95 57.93,-120.07 64.93,-119.82"/>
</g>
<!-- string -->
<g id="node4" class="node">
<title>string</title>
<ellipse fill="none" stroke="black" cx="120" cy="-162" rx="30.59" ry="18"/>
<text text-anchor="middle" x="120" y="-158.3" font-family="Times,serif" font-size="14.00">string</text>
</g>
<!-- code&#45;&gt;string -->
<g id="edge3" class="edge">
<title>code&#45;&gt;string</title>
<path fill="none" stroke="black" d="M416.91,-377.08C349.84,-375.59 177.18,-360.92 118,-252 107.95,-233.51 109.16,-209.51 112.49,-191.09"/>
<polygon fill="black" stroke="black" points="115.9,-191.9 114.57,-181.39 109.05,-190.43 115.9,-191.9"/>
</g>
<!-- signer -->
<g id="node5" class="node">
<title>signer</title>
<ellipse fill="none" stroke="black" cx="640" cy="-90" rx="32.49" ry="18"/>
<text text-anchor="middle" x="640" y="-86.3" font-family="Times,serif" font-size="14.00">signer</text>
</g>
<!-- code&#45;&gt;signer -->
<g id="edge4" class="edge">
<title>code&#45;&gt;signer</title>
<path fill="none" stroke="black" d="M467.79,-368.92C524.58,-348.15 667.38,-286.94 722,-180 729.28,-165.75 729.65,-158.05 722,-144 712.4,-126.37 694.14,-113.71 677.28,-105.19"/>
<polygon fill="black" stroke="black" points="678.97,-102.12 668.42,-101.06 676,-108.46 678.97,-102.12"/>
</g>
<!-- error -->
<g id="node6" class="node">
<title>error</title>
<ellipse fill="none" stroke="black" cx="444" cy="-90" rx="27.9" ry="18"/>
<text text-anchor="middle" x="444" y="-86.3" font-family="Times,serif" font-size="14.00">error</text>
</g>
<!-- code&#45;&gt;error -->
<g id="edge5" class="edge">
<title>code&#45;&gt;error</title>
<path fill="none" stroke="black" d="M444,-359.54C444,-311.76 444,-178.51 444,-119.61"/>
<polygon fill="black" stroke="black" points="447.5,-119.75 444,-109.75 440.5,-119.75 447.5,-119.75"/>
</g>
<!-- features -->
<g id="node7" class="node">
<title>features</title>
<ellipse fill="none" stroke="black" cx="510" cy="-162" rx="38.19" ry="18"/>
<text text-anchor="middle" x="510" y="-158.3" font-family="Times,serif" font-size="14.00">features</text>
</g>
<!-- code&#45;&gt;features -->
<g id="edge6" class="edge">
<title>code&#45;&gt;features</title>
<path fill="none" stroke="black" d="M449.29,-359.85C460.66,-322.99 487.51,-235.92 501.38,-190.96"/>
<polygon fill="black" stroke="black" points="504.64,-192.27 504.24,-181.68 497.95,-190.2 504.64,-192.27"/>
</g>
<!-- system_addresses -->
<g id="node8" class="node">
<title>system_addresses</title>
<ellipse fill="none" stroke="black" cx="640" cy="-162" rx="73.39" ry="18"/>
<text text-anchor="middle" x="640" y="-158.3" font-family="Times,serif" font-size="14.00">system_addresses</text>
</g>
<!-- code&#45;&gt;system_addresses -->
<g id="edge7" class="edge">
<title>code&#45;&gt;system_addresses</title>
<path fill="none" stroke="black" d="M457.47,-362.29C490.47,-326.26 575.66,-233.25 616.92,-188.2"/>
<polygon fill="black" stroke="black" points="619.36,-190.71 623.54,-180.97 614.2,-185.98 619.36,-190.71"/>
</g>
<!-- util -->
<g id="node9" class="node">
<title>util</title>
<ellipse fill="none" stroke="black" cx="796" cy="-306" rx="27" ry="18"/>
<text text-anchor="middle" x="796" y="-302.3" font-family="Times,serif" font-size="14.00">util</text>
</g>
<!-- code&#45;&gt;util -->
<g id="edge8" class="edge">
<title>code&#45;&gt;util</title>
<path fill="none" stroke="black" d="M471.08,-374.45C525.65,-368.86 652.38,-353.61 755,-324 757.79,-323.2 760.64,-322.26 763.48,-321.25"/>
<polygon fill="black" stroke="black" points="764.72,-324.52 772.78,-317.65 762.19,-318 764.72,-324.52"/>
</g>
<!-- copyable_any -->
<g id="node10" class="node">
<title>copyable_any</title>
<ellipse fill="none" stroke="black" cx="298" cy="-306" rx="59.59" ry="18"/>
<text text-anchor="middle" x="298" y="-302.3" font-family="Times,serif" font-size="14.00">copyable_any</text>
</g>
<!-- code&#45;&gt;copyable_any -->
<g id="edge9" class="edge">
<title>code&#45;&gt;copyable_any</title>
<path fill="none" stroke="black" d="M422.46,-366.67C400.61,-356.2 366.25,-339.72 339.16,-326.74"/>
<polygon fill="black" stroke="black" points="340.7,-323.59 330.17,-322.42 337.68,-329.9 340.7,-323.59"/>
</g>
<!-- option&#45;&gt;vector -->
<g id="edge10" class="edge">
<title>option&#45;&gt;vector</title>
<path fill="none" stroke="black" d="M61,-71.7C61,-64.41 61,-55.73 61,-47.54"/>
<polygon fill="black" stroke="black" points="64.5,-47.62 61,-37.62 57.5,-47.62 64.5,-47.62"/>
</g>
<!-- string&#45;&gt;vector -->
<g id="edge11" class="edge">
<title>string&#45;&gt;vector</title>
<path fill="none" stroke="black" d="M119.13,-143.53C117.65,-125.02 113.68,-95.31 103,-72 98.14,-61.38 90.72,-51.02 83.46,-42.31"/>
<polygon fill="black" stroke="black" points="86.29,-40.23 77.06,-35.03 81.03,-44.85 86.29,-40.23"/>
</g>
<!-- string&#45;&gt;option -->
<g id="edge12" class="edge">
<title>string&#45;&gt;option</title>
<path fill="none" stroke="black" d="M106.91,-145.46C99.42,-136.58 89.87,-125.25 81.42,-115.22"/>
<polygon fill="black" stroke="black" points="84.15,-113.04 75.03,-107.65 78.8,-117.55 84.15,-113.04"/>
</g>
<!-- features&#45;&gt;signer -->
<g id="edge13" class="edge">
<title>features&#45;&gt;signer</title>
<path fill="none" stroke="black" d="M534.45,-147.83C555.12,-136.71 584.89,-120.68 607.55,-108.48"/>
<polygon fill="black" stroke="black" points="608.92,-111.71 616.06,-103.89 605.6,-105.55 608.92,-111.71"/>
</g>
<!-- features&#45;&gt;error -->
<g id="edge14" class="edge">
<title>features&#45;&gt;error</title>
<path fill="none" stroke="black" d="M495.02,-145.12C486.35,-135.91 475.27,-124.17 465.66,-113.97"/>
<polygon fill="black" stroke="black" points="468.46,-111.84 459.05,-106.97 463.37,-116.64 468.46,-111.84"/>
</g>
<!-- system_addresses&#45;&gt;signer -->
<g id="edge15" class="edge">
<title>system_addresses&#45;&gt;signer</title>
<path fill="none" stroke="black" d="M640,-143.7C640,-136.41 640,-127.73 640,-119.54"/>
<polygon fill="black" stroke="black" points="643.5,-119.62 640,-109.62 636.5,-119.62 643.5,-119.62"/>
</g>
<!-- system_addresses&#45;&gt;error -->
<g id="edge16" class="edge">
<title>system_addresses&#45;&gt;error</title>
<path fill="none" stroke="black" d="M599.86,-146.67C564.24,-133.94 512.73,-115.55 478.82,-103.44"/>
<polygon fill="black" stroke="black" points="480.06,-100.16 469.47,-100.1 477.71,-106.75 480.06,-100.16"/>
</g>
<!-- copyable_any&#45;&gt;string -->
<g id="edge17" class="edge">
<title>copyable_any&#45;&gt;string</title>
<path fill="none" stroke="black" d="M240.89,-300.55C205.92,-294.76 163.02,-281.63 137,-252 122.62,-235.63 118.83,-210.94 118.37,-191.7"/>
<polygon fill="black" stroke="black" points="121.87,-191.82 118.45,-181.79 114.87,-191.77 121.87,-191.82"/>
</g>
<!-- copyable_any&#45;&gt;error -->
<g id="edge18" class="edge">
<title>copyable_any&#45;&gt;error</title>
<path fill="none" stroke="black" d="M332.86,-291.22C351.19,-282.42 372.74,-269.38 387,-252 404.03,-231.24 425.49,-159.26 436.59,-118.94"/>
<polygon fill="black" stroke="black" points="439.92,-120.03 439.17,-109.46 433.17,-118.19 439.92,-120.03"/>
</g>
<!-- bcs -->
<g id="node11" class="node">
<title>bcs</title>
<ellipse fill="none" stroke="black" cx="279" cy="-162" rx="27" ry="18"/>
<text text-anchor="middle" x="279" y="-158.3" font-family="Times,serif" font-size="14.00">bcs</text>
</g>
<!-- copyable_any&#45;&gt;bcs -->
<g id="edge19" class="edge">
<title>copyable_any&#45;&gt;bcs</title>
<path fill="none" stroke="black" d="M291.04,-287.65C287.3,-277.45 283.05,-264.2 281,-252 277.65,-232.03 277.2,-209.2 277.57,-191.66"/>
<polygon fill="black" stroke="black" points="281.06,-191.82 277.88,-181.71 274.07,-191.59 281.06,-191.82"/>
</g>
<!-- type_info -->
<g id="node12" class="node">
<title>type_info</title>
<ellipse fill="none" stroke="black" cx="334" cy="-234" rx="44.39" ry="18"/>
<text text-anchor="middle" x="334" y="-230.3" font-family="Times,serif" font-size="14.00">type_info</text>
</g>
<!-- copyable_any&#45;&gt;type_info -->
<g id="edge20" class="edge">
<title>copyable_any&#45;&gt;type_info</title>
<path fill="none" stroke="black" d="M306.71,-288.05C310.74,-280.23 315.62,-270.75 320.13,-261.98"/>
<polygon fill="black" stroke="black" points="323.21,-263.63 324.67,-253.13 316.99,-260.43 323.21,-263.63"/>
</g>
<!-- from_bcs -->
<g id="node13" class="node">
<title>from_bcs</title>
<ellipse fill="none" stroke="black" cx="190" cy="-234" rx="44.39" ry="18"/>
<text text-anchor="middle" x="190" y="-230.3" font-family="Times,serif" font-size="14.00">from_bcs</text>
</g>
<!-- copyable_any&#45;&gt;from_bcs -->
<g id="edge21" class="edge">
<title>copyable_any&#45;&gt;from_bcs</title>
<path fill="none" stroke="black" d="M273.49,-289.12C258.3,-279.27 238.62,-266.51 222.18,-255.86"/>
<polygon fill="black" stroke="black" points="224.5,-253.19 214.2,-250.69 220.69,-259.06 224.5,-253.19"/>
</g>
<!-- type_info&#45;&gt;string -->
<g id="edge22" class="edge">
<title>type_info&#45;&gt;string</title>
<path fill="none" stroke="black" d="M300.09,-221.91C261.09,-209.15 197.28,-188.28 157.02,-175.11"/>
<polygon fill="black" stroke="black" points="158.36,-171.87 147.77,-172.08 156.18,-178.52 158.36,-171.87"/>
</g>
<!-- type_info&#45;&gt;error -->
<g id="edge23" class="edge">
<title>type_info&#45;&gt;error</title>
<path fill="none" stroke="black" d="M343.55,-216.25C354.36,-197.84 372.94,-167.72 392,-144 400.65,-133.23 411.18,-122.18 420.49,-112.99"/>
<polygon fill="black" stroke="black" points="422.77,-115.64 427.52,-106.17 417.9,-110.62 422.77,-115.64"/>
</g>
<!-- type_info&#45;&gt;features -->
<g id="edge24" class="edge">
<title>type_info&#45;&gt;features</title>
<path fill="none" stroke="black" d="M365.06,-220.65C394.67,-208.87 439.36,-191.09 471.28,-178.4"/>
<polygon fill="black" stroke="black" points="472.17,-181.81 480.17,-174.86 469.59,-175.31 472.17,-181.81"/>
</g>
<!-- type_info&#45;&gt;bcs -->
<g id="edge25" class="edge">
<title>type_info&#45;&gt;bcs</title>
<path fill="none" stroke="black" d="M320.97,-216.41C314.2,-207.8 305.8,-197.11 298.3,-187.56"/>
<polygon fill="black" stroke="black" points="301.05,-185.4 292.12,-179.7 295.55,-189.73 301.05,-185.4"/>
</g>
<!-- from_bcs&#45;&gt;string -->
<g id="edge26" class="edge">
<title>from_bcs&#45;&gt;string</title>
<path fill="none" stroke="black" d="M173.76,-216.76C164.55,-207.55 152.87,-195.87 142.76,-185.76"/>
<polygon fill="black" stroke="black" points="145.33,-183.38 135.79,-178.79 140.38,-188.33 145.33,-183.38"/>
</g>
</g>
</svg>
