<?xml version="1.0" encoding="UTF-8" standalone="no"?>
<!DOCTYPE svg PUBLIC "-//W3C//DTD SVG 1.1//EN"
 "http://www.w3.org/Graphics/SVG/1.1/DTD/svg11.dtd">
<!-- Generated by graphviz version 7.0.4 (20221203.1631)
 -->
<!-- Title: G Pages: 1 -->
<svg width="2722pt" height="365pt"
 viewBox="0.00 0.00 2722.09 365.00" xmlns="http://www.w3.org/2000/svg" xmlns:xlink="http://www.w3.org/1999/xlink">
<g id="graph0" class="graph" transform="scale(1 1) rotate(0) translate(4 361)">
<title>G</title>
<polygon fill="white" stroke="none" points="-4,4 -4,-361 2718.09,-361 2718.09,4 -4,4"/>
<g id="clust1" class="cluster">
<title>cluster_util</title>
<polygon fill="none" stroke="black" points="963,-238 963,-313 1081,-313 1081,-238 963,-238"/>
<text text-anchor="middle" x="1022" y="-297.8" font-family="Times,serif" font-size="14.00">util</text>
</g>
<g id="clust2" class="cluster">
<title>cluster_signer</title>
<polygon fill="none" stroke="black" points="8,-80 8,-230 158,-230 158,-80 8,-80"/>
<text text-anchor="middle" x="83" y="-214.8" font-family="Times,serif" font-size="14.00">signer</text>
</g>
<g id="clust3" class="cluster">
<title>cluster_error</title>
<polygon fill="none" stroke="black" points="166,-8 166,-155 581,-155 581,-8 166,-8"/>
<text text-anchor="middle" x="373.5" y="-139.8" font-family="Times,serif" font-size="14.00">error</text>
</g>
<g id="clust4" class="cluster">
<title>cluster_features</title>
<polygon fill="none" stroke="black" points="2000,-8 2000,-230 2276,-230 2276,-8 2000,-8"/>
<text text-anchor="middle" x="2138" y="-214.8" font-family="Times,serif" font-size="14.00">features</text>
</g>
<g id="clust5" class="cluster">
<title>cluster_string</title>
<polygon fill="none" stroke="black" points="589,-8 589,-155 767,-155 767,-8 589,-8"/>
<text text-anchor="middle" x="678" y="-139.8" font-family="Times,serif" font-size="14.00">string</text>
</g>
<g id="clust6" class="cluster">
<title>cluster_vector</title>
<polygon fill="none" stroke="black" points="1406,-80 1406,-155 1502,-155 1502,-80 1406,-80"/>
<text text-anchor="middle" x="1454" y="-139.8" font-family="Times,serif" font-size="14.00">vector</text>
</g>
<!-- publish_package_txn -->
<g id="node1" class="node">
<title>publish_package_txn</title>
<ellipse fill="none" stroke="black" cx="1091" cy="-339" rx="85.29" ry="18"/>
<text text-anchor="middle" x="1091" y="-335.3" font-family="Times,serif" font-size="14.00">publish_package_txn</text>
</g>
<!-- util::from_bytes -->
<g id="node2" class="node">
<title>util::from_bytes</title>
<ellipse fill="none" stroke="black" cx="1022" cy="-264" rx="51.19" ry="18"/>
<text text-anchor="middle" x="1022" y="-260.3" font-family="Times,serif" font-size="14.00">from_bytes</text>
</g>
<!-- publish_package_txn&#45;&gt;util::from_bytes -->
<g id="edge1" class="edge">
<title>publish_package_txn&#45;&gt;util::from_bytes</title>
<path fill="none" stroke="black" d="M1075,-321.07C1066.23,-311.79 1055.19,-300.11 1045.46,-289.82"/>
<polygon fill="black" stroke="black" points="1048.13,-287.55 1038.72,-282.69 1043.04,-292.36 1048.13,-287.55"/>
</g>
<!-- publish_package -->
<g id="node3" class="node">
<title>publish_package</title>
<ellipse fill="none" stroke="black" cx="1161" cy="-264" rx="69.59" ry="18"/>
<text text-anchor="middle" x="1161" y="-260.3" font-family="Times,serif" font-size="14.00">publish_package</text>
</g>
<!-- publish_package_txn&#45;&gt;publish_package -->
<g id="edge2" class="edge">
<title>publish_package_txn&#45;&gt;publish_package</title>
<path fill="none" stroke="black" d="M1107.24,-321.07C1116.07,-311.86 1127.17,-300.28 1136.99,-290.04"/>
<polygon fill="black" stroke="black" points="1139.41,-292.57 1143.81,-282.93 1134.36,-287.73 1139.41,-292.57"/>
</g>
<!-- signer::address_of -->
<g id="node4" class="node">
<title>signer::address_of</title>
<ellipse fill="none" stroke="black" cx="92" cy="-181" rx="48.99" ry="18"/>
<text text-anchor="middle" x="92" y="-177.3" font-family="Times,serif" font-size="14.00">address_of</text>
</g>
<!-- publish_package&#45;&gt;signer::address_of -->
<g id="edge3" class="edge">
<title>publish_package&#45;&gt;signer::address_of</title>
<path fill="none" stroke="black" d="M1124.08,-248.32C1111.84,-244.14 1098.02,-240.15 1085,-238 989.18,-222.19 306.25,-248.94 211,-230 182.52,-224.34 152.19,-212 129.28,-201.25"/>
<polygon fill="black" stroke="black" points="130.88,-198.13 120.35,-196.95 127.84,-204.44 130.88,-198.13"/>
</g>
<!-- error::invalid_argument -->
<g id="node5" class="node">
<title>error::invalid_argument</title>
<ellipse fill="none" stroke="black" cx="388" cy="-106" rx="73.39" ry="18"/>
<text text-anchor="middle" x="388" y="-102.3" font-family="Times,serif" font-size="14.00">invalid_argument</text>
</g>
<!-- publish_package&#45;&gt;error::invalid_argument -->
<g id="edge4" class="edge">
<title>publish_package&#45;&gt;error::invalid_argument</title>
<path fill="none" stroke="black" d="M1124.06,-248.43C1111.82,-244.26 1098,-240.24 1085,-238 1009.86,-225.06 817.43,-241.11 742,-230 617.94,-211.73 585.53,-203.75 470,-155 453.45,-148.02 436.15,-138.29 421.72,-129.42"/>
<polygon fill="black" stroke="black" points="423.85,-126.62 413.52,-124.26 420.13,-132.55 423.85,-126.62"/>
</g>
<!-- features::code_dependency_check_enabled -->
<g id="node6" class="node">
<title>features::code_dependency_check_enabled</title>
<ellipse fill="none" stroke="black" cx="2138" cy="-181" rx="129.98" ry="18"/>
<text text-anchor="middle" x="2138" y="-177.3" font-family="Times,serif" font-size="14.00">code_dependency_check_enabled</text>
</g>
<!-- publish_package&#45;&gt;features::code_dependency_check_enabled -->
<g id="edge5" class="edge">
<title>publish_package&#45;&gt;features::code_dependency_check_enabled</title>
<path fill="none" stroke="black" d="M1226.62,-257.56C1388.57,-244.13 1809.22,-209.26 2017.51,-191.99"/>
<polygon fill="black" stroke="black" points="2017.61,-195.49 2027.29,-191.18 2017.03,-188.52 2017.61,-195.49"/>
</g>
<!-- check_coexistence -->
<g id="node7" class="node">
<title>check_coexistence</title>
<ellipse fill="none" stroke="black" cx="297" cy="-181" rx="76.89" ry="18"/>
<text text-anchor="middle" x="297" y="-177.3" font-family="Times,serif" font-size="14.00">check_coexistence</text>
</g>
<!-- publish_package&#45;&gt;check_coexistence -->
<g id="edge6" class="edge">
<title>publish_package&#45;&gt;check_coexistence</title>
<path fill="none" stroke="black" d="M1124.07,-248.38C1111.83,-244.2 1098.01,-240.2 1085,-238 979.15,-220.14 708.95,-239.26 602,-230 520.05,-222.91 426.76,-207.07 365.17,-195.52"/>
<polygon fill="black" stroke="black" points="366.01,-192.12 355.53,-193.7 364.71,-199 366.01,-192.12"/>
</g>
<!-- check_dependencies -->
<g id="node8" class="node">
<title>check_dependencies</title>
<ellipse fill="none" stroke="black" cx="834" cy="-181" rx="83.39" ry="18"/>
<text text-anchor="middle" x="834" y="-177.3" font-family="Times,serif" font-size="14.00">check_dependencies</text>
</g>
<!-- publish_package&#45;&gt;check_dependencies -->
<g id="edge7" class="edge">
<title>publish_package&#45;&gt;check_dependencies</title>
<path fill="none" stroke="black" d="M1120.6,-248.89C1109.16,-245.12 1096.65,-241.21 1085,-238 1025.07,-221.5 956.09,-206.39 905.63,-196.03"/>
<polygon fill="black" stroke="black" points="906.49,-192.63 895.99,-194.06 905.09,-199.49 906.49,-192.63"/>
</g>
<!-- check_upgradability -->
<g id="node9" class="node">
<title>check_upgradability</title>
<ellipse fill="none" stroke="black" cx="1383" cy="-181" rx="82.59" ry="18"/>
<text text-anchor="middle" x="1383" y="-177.3" font-family="Times,serif" font-size="14.00">check_upgradability</text>
</g>
<!-- publish_package&#45;&gt;check_upgradability -->
<g id="edge8" class="edge">
<title>publish_package&#45;&gt;check_upgradability</title>
<path fill="none" stroke="black" d="M1203.96,-249.61C1221.97,-243.83 1243.09,-236.83 1262,-230 1286.29,-221.22 1313.01,-210.71 1335.15,-201.77"/>
<polygon fill="black" stroke="black" points="1336.27,-205.09 1344.22,-198.09 1333.64,-198.61 1336.27,-205.09"/>
</g>
<!-- get_module_names -->
<g id="node10" class="node">
<title>get_module_names</title>
<ellipse fill="none" stroke="black" cx="1316" cy="-106" rx="79.89" ry="18"/>
<text text-anchor="middle" x="1316" y="-102.3" font-family="Times,serif" font-size="14.00">get_module_names</text>
</g>
<!-- publish_package&#45;&gt;get_module_names -->
<g id="edge9" class="edge">
<title>publish_package&#45;&gt;get_module_names</title>
<path fill="none" stroke="black" d="M1177.59,-246.31C1204.83,-218.89 1259.2,-164.17 1291.09,-132.07"/>
<polygon fill="black" stroke="black" points="1293.43,-134.68 1297.99,-125.12 1288.46,-129.75 1293.43,-134.68"/>
</g>
<!-- request_publish -->
<g id="node11" class="node">
<title>request_publish</title>
<ellipse fill="none" stroke="black" cx="2352" cy="-181" rx="66.09" ry="18"/>
<text text-anchor="middle" x="2352" y="-177.3" font-family="Times,serif" font-size="14.00">request_publish</text>
</g>
<!-- publish_package&#45;&gt;request_publish -->
<g id="edge10" class="edge">
<title>publish_package&#45;&gt;request_publish</title>
<path fill="none" stroke="black" d="M1230.65,-263.17C1459.69,-263.44 2180.53,-261.72 2280,-230 2295.97,-224.91 2311.69,-215.14 2324.35,-205.73"/>
<polygon fill="black" stroke="black" points="2326.46,-208.53 2332.2,-199.63 2322.16,-203.01 2326.46,-208.53"/>
</g>
<!-- request_publish_with_allowed_deps -->
<g id="node12" class="node">
<title>request_publish_with_allowed_deps</title>
<ellipse fill="none" stroke="black" cx="2575" cy="-181" rx="139.18" ry="18"/>
<text text-anchor="middle" x="2575" y="-177.3" font-family="Times,serif" font-size="14.00">request_publish_with_allowed_deps</text>
</g>
<!-- publish_package&#45;&gt;request_publish_with_allowed_deps -->
<g id="edge11" class="edge">
<title>publish_package&#45;&gt;request_publish_with_allowed_deps</title>
<path fill="none" stroke="black" d="M1230.72,-262.35C1478.67,-259.89 2309.24,-250.2 2427,-230 2459.9,-224.36 2495.53,-212.97 2523.59,-202.71"/>
<polygon fill="black" stroke="black" points="2524.77,-206 2532.92,-199.23 2522.32,-199.45 2524.77,-206"/>
</g>
<!-- upgrade_policy_arbitrary -->
<g id="node13" class="node">
<title>upgrade_policy_arbitrary</title>
<ellipse fill="none" stroke="black" cx="1118" cy="-106" rx="100.18" ry="18"/>
<text text-anchor="middle" x="1118" y="-102.3" font-family="Times,serif" font-size="14.00">upgrade_policy_arbitrary</text>
</g>
<!-- publish_package&#45;&gt;upgrade_policy_arbitrary -->
<g id="edge12" class="edge">
<title>publish_package&#45;&gt;upgrade_policy_arbitrary</title>
<path fill="none" stroke="black" d="M1156.23,-245.71C1148.87,-219 1134.66,-167.45 1125.79,-135.27"/>
<polygon fill="black" stroke="black" points="1129.22,-134.54 1123.19,-125.83 1122.47,-136.4 1129.22,-134.54"/>
</g>
<!-- signer::borrow_address -->
<g id="node14" class="node">
<title>signer::borrow_address</title>
<ellipse fill="none" stroke="black" cx="83" cy="-106" rx="66.89" ry="18"/>
<text text-anchor="middle" x="83" y="-102.3" font-family="Times,serif" font-size="14.00">borrow_address</text>
</g>
<!-- signer::address_of&#45;&gt;signer::borrow_address -->
<g id="edge13" class="edge">
<title>signer::address_of&#45;&gt;signer::borrow_address</title>
<path fill="none" stroke="black" d="M89.87,-162.7C88.88,-154.67 87.67,-144.9 86.55,-135.8"/>
<polygon fill="black" stroke="black" points="90.03,-135.43 85.33,-125.93 83.08,-136.28 90.03,-135.43"/>
</g>
<!-- error::canonical -->
<g id="node15" class="node">
<title>error::canonical</title>
<ellipse fill="none" stroke="black" cx="388" cy="-34" rx="44.39" ry="18"/>
<text text-anchor="middle" x="388" y="-30.3" font-family="Times,serif" font-size="14.00">canonical</text>
</g>
<!-- error::invalid_argument&#45;&gt;error::canonical -->
<g id="edge14" class="edge">
<title>error::invalid_argument&#45;&gt;error::canonical</title>
<path fill="none" stroke="black" d="M388,-87.7C388,-80.41 388,-71.73 388,-63.54"/>
<polygon fill="black" stroke="black" points="391.5,-63.62 388,-53.62 384.5,-63.62 391.5,-63.62"/>
</g>
<!-- features::is_enabled -->
<g id="node16" class="node">
<title>features::is_enabled</title>
<ellipse fill="none" stroke="black" cx="2138" cy="-106" rx="48.19" ry="18"/>
<text text-anchor="middle" x="2138" y="-102.3" font-family="Times,serif" font-size="14.00">is_enabled</text>
</g>
<!-- features::code_dependency_check_enabled&#45;&gt;features::is_enabled -->
<g id="edge15" class="edge">
<title>features::code_dependency_check_enabled&#45;&gt;features::is_enabled</title>
<path fill="none" stroke="black" d="M2138,-162.7C2138,-154.67 2138,-144.9 2138,-135.8"/>
<polygon fill="black" stroke="black" points="2141.5,-135.94 2138,-125.94 2134.5,-135.94 2141.5,-135.94"/>
</g>
<!-- error::already_exists -->
<g id="node17" class="node">
<title>error::already_exists</title>
<ellipse fill="none" stroke="black" cx="235" cy="-106" rx="61.19" ry="18"/>
<text text-anchor="middle" x="235" y="-102.3" font-family="Times,serif" font-size="14.00">already_exists</text>
</g>
<!-- check_coexistence&#45;&gt;error::already_exists -->
<g id="edge16" class="edge">
<title>check_coexistence&#45;&gt;error::already_exists</title>
<path fill="none" stroke="black" d="M282.62,-163.07C274.87,-153.95 265.16,-142.51 256.53,-132.35"/>
<polygon fill="black" stroke="black" points="259.42,-130.35 250.28,-124.99 254.09,-134.88 259.42,-130.35"/>
</g>
<!-- check_dependencies&#45;&gt;error::invalid_argument -->
<g id="edge18" class="edge">
<title>check_dependencies&#45;&gt;error::invalid_argument</title>
<path fill="none" stroke="black" d="M758.48,-173.11C720.04,-169.75 672.55,-165.84 630,-163 594.48,-160.63 504.12,-165.17 470,-155 451.85,-149.59 433.48,-139.37 418.74,-129.75"/>
<polygon fill="black" stroke="black" points="421.11,-127.13 410.87,-124.42 417.19,-132.93 421.11,-127.13"/>
</g>
<!-- check_dependencies&#45;&gt;upgrade_policy_arbitrary -->
<g id="edge21" class="edge">
<title>check_dependencies&#45;&gt;upgrade_policy_arbitrary</title>
<path fill="none" stroke="black" d="M910.3,-173.53C941.04,-169.77 976.59,-163.93 1008,-155 1031.27,-148.38 1056.07,-137.89 1076.21,-128.4"/>
<polygon fill="black" stroke="black" points="1077.73,-131.56 1085.23,-124.07 1074.7,-125.25 1077.73,-131.56"/>
</g>
<!-- string::utf8 -->
<g id="node18" class="node">
<title>string::utf8</title>
<ellipse fill="none" stroke="black" cx="704" cy="-106" rx="27" ry="18"/>
<text text-anchor="middle" x="704" y="-102.3" font-family="Times,serif" font-size="14.00">utf8</text>
</g>
<!-- check_dependencies&#45;&gt;string::utf8 -->
<g id="edge17" class="edge">
<title>check_dependencies&#45;&gt;string::utf8</title>
<path fill="none" stroke="black" d="M788.51,-165.49C780.81,-162.41 773.04,-158.9 766,-155 752.6,-147.58 739.01,-137.42 727.97,-128.35"/>
<polygon fill="black" stroke="black" points="730.42,-125.83 720.53,-122.05 725.9,-131.18 730.42,-125.83"/>
</g>
<!-- error::not_found -->
<g id="node19" class="node">
<title>error::not_found</title>
<ellipse fill="none" stroke="black" cx="526" cy="-106" rx="46.59" ry="18"/>
<text text-anchor="middle" x="526" y="-102.3" font-family="Times,serif" font-size="14.00">not_found</text>
</g>
<!-- check_dependencies&#45;&gt;error::not_found -->
<g id="edge19" class="edge">
<title>check_dependencies&#45;&gt;error::not_found</title>
<path fill="none" stroke="black" d="M755.9,-174.42C688.84,-169.26 600.59,-161.43 585,-155 571.78,-149.54 559.19,-140.12 549.06,-131.05"/>
<polygon fill="black" stroke="black" points="551.61,-128.65 541.94,-124.33 546.81,-133.74 551.61,-128.65"/>
</g>
<!-- is_policy_exempted_address -->
<g id="node20" class="node">
<title>is_policy_exempted_address</title>
<ellipse fill="none" stroke="black" cx="887" cy="-106" rx="112.38" ry="18"/>
<text text-anchor="middle" x="887" y="-102.3" font-family="Times,serif" font-size="14.00">is_policy_exempted_address</text>
</g>
<!-- check_dependencies&#45;&gt;is_policy_exempted_address -->
<g id="edge20" class="edge">
<title>check_dependencies&#45;&gt;is_policy_exempted_address</title>
<path fill="none" stroke="black" d="M846.29,-163.07C852.69,-154.26 860.65,-143.29 867.84,-133.4"/>
<polygon fill="black" stroke="black" points="870.47,-135.72 873.52,-125.57 864.81,-131.61 870.47,-135.72"/>
</g>
<!-- check_upgradability&#45;&gt;error::invalid_argument -->
<g id="edge23" class="edge">
<title>check_upgradability&#45;&gt;error::invalid_argument</title>
<path fill="none" stroke="black" d="M1302.53,-176.53C1211.25,-172.7 1057.95,-166.61 926,-163 900.67,-162.31 494.4,-161.85 470,-155 451.63,-149.85 433.12,-139.55 418.35,-129.81"/>
<polygon fill="black" stroke="black" points="420.69,-127.18 410.47,-124.41 416.73,-132.95 420.69,-127.18"/>
</g>
<!-- check_upgradability&#45;&gt;get_module_names -->
<g id="edge25" class="edge">
<title>check_upgradability&#45;&gt;get_module_names</title>
<path fill="none" stroke="black" d="M1367.46,-163.07C1359.15,-154.01 1348.74,-142.67 1339.47,-132.57"/>
<polygon fill="black" stroke="black" points="1342.05,-130.21 1332.71,-125.21 1336.89,-134.94 1342.05,-130.21"/>
</g>
<!-- vector::contains -->
<g id="node21" class="node">
<title>vector::contains</title>
<ellipse fill="none" stroke="black" cx="1454" cy="-106" rx="40.09" ry="18"/>
<text text-anchor="middle" x="1454" y="-102.3" font-family="Times,serif" font-size="14.00">contains</text>
</g>
<!-- check_upgradability&#45;&gt;vector::contains -->
<g id="edge22" class="edge">
<title>check_upgradability&#45;&gt;vector::contains</title>
<path fill="none" stroke="black" d="M1399.47,-163.07C1408.78,-153.5 1420.57,-141.38 1430.8,-130.86"/>
<polygon fill="black" stroke="black" points="1433.08,-133.53 1437.54,-123.92 1428.06,-128.65 1433.08,-133.53"/>
</g>
<!-- can_change_upgrade_policy_to -->
<g id="node22" class="node">
<title>can_change_upgrade_policy_to</title>
<ellipse fill="none" stroke="black" cx="1634" cy="-106" rx="122.38" ry="18"/>
<text text-anchor="middle" x="1634" y="-102.3" font-family="Times,serif" font-size="14.00">can_change_upgrade_policy_to</text>
</g>
<!-- check_upgradability&#45;&gt;can_change_upgrade_policy_to -->
<g id="edge24" class="edge">
<title>check_upgradability&#45;&gt;can_change_upgrade_policy_to</title>
<path fill="none" stroke="black" d="M1446.35,-169.12C1465.66,-165.27 1486.84,-160.5 1506,-155 1532.41,-147.42 1561.11,-136.88 1584.63,-127.6"/>
<polygon fill="black" stroke="black" points="1585.65,-130.96 1593.64,-124.01 1583.05,-124.46 1585.65,-130.96"/>
</g>
<!-- upgrade_policy_immutable -->
<g id="node23" class="node">
<title>upgrade_policy_immutable</title>
<ellipse fill="none" stroke="black" cx="1883" cy="-106" rx="108.58" ry="18"/>
<text text-anchor="middle" x="1883" y="-102.3" font-family="Times,serif" font-size="14.00">upgrade_policy_immutable</text>
</g>
<!-- check_upgradability&#45;&gt;upgrade_policy_immutable -->
<g id="edge26" class="edge">
<title>check_upgradability&#45;&gt;upgrade_policy_immutable</title>
<path fill="none" stroke="black" d="M1464.73,-177.71C1559.55,-174.52 1709.94,-167.65 1765,-155 1790.75,-149.08 1818.16,-138.24 1840.08,-128.35"/>
<polygon fill="black" stroke="black" points="1841.38,-131.61 1848.99,-124.23 1838.44,-125.25 1841.38,-131.61"/>
</g>
<!-- features::contains -->
<g id="node24" class="node">
<title>features::contains</title>
<ellipse fill="none" stroke="black" cx="2138" cy="-34" rx="40.09" ry="18"/>
<text text-anchor="middle" x="2138" y="-30.3" font-family="Times,serif" font-size="14.00">contains</text>
</g>
<!-- features::is_enabled&#45;&gt;features::contains -->
<g id="edge27" class="edge">
<title>features::is_enabled&#45;&gt;features::contains</title>
<path fill="none" stroke="black" d="M2138,-87.7C2138,-80.41 2138,-71.73 2138,-63.54"/>
<polygon fill="black" stroke="black" points="2141.5,-63.62 2138,-53.62 2134.5,-63.62 2141.5,-63.62"/>
</g>
<!-- error::already_exists&#45;&gt;error::canonical -->
<g id="edge28" class="edge">
<title>error::already_exists&#45;&gt;error::canonical</title>
<path fill="none" stroke="black" d="M267.07,-90.33C290.92,-79.42 323.58,-64.47 348.94,-52.87"/>
<polygon fill="black" stroke="black" points="350.31,-56.09 357.95,-48.75 347.4,-49.73 350.31,-56.09"/>
</g>
<!-- string::internal_check_utf8 -->
<g id="node25" class="node">
<title>string::internal_check_utf8</title>
<ellipse fill="none" stroke="black" cx="678" cy="-34" rx="81.49" ry="18"/>
<text text-anchor="middle" x="678" y="-30.3" font-family="Times,serif" font-size="14.00">internal_check_utf8</text>
</g>
<!-- string::utf8&#45;&gt;string::internal_check_utf8 -->
<g id="edge29" class="edge">
<title>string::utf8&#45;&gt;string::internal_check_utf8</title>
<path fill="none" stroke="black" d="M697.71,-88.05C694.91,-80.52 691.53,-71.44 688.38,-62.94"/>
<polygon fill="black" stroke="black" points="691.71,-61.85 684.94,-53.69 685.14,-64.29 691.71,-61.85"/>
</g>
<!-- error::not_found&#45;&gt;error::canonical -->
<g id="edge30" class="edge">
<title>error::not_found&#45;&gt;error::canonical</title>
<path fill="none" stroke="black" d="M498.74,-91.17C477.62,-80.46 448.15,-65.51 424.92,-53.73"/>
<polygon fill="black" stroke="black" points="426.59,-50.65 416.09,-49.25 423.42,-56.89 426.59,-50.65"/>
</g>
</g>
</svg>
