<?xml version="1.0" encoding="UTF-8" standalone="no"?>
<!DOCTYPE svg PUBLIC "-//W3C//DTD SVG 1.1//EN"
 "http://www.w3.org/Graphics/SVG/1.1/DTD/svg11.dtd">
<!-- Generated by graphviz version 7.0.4 (20221203.1631)
 -->
<!-- Title: G Pages: 1 -->
<svg width="950pt" height="207pt"
 viewBox="0.00 0.00 949.54 207.00" xmlns="http://www.w3.org/2000/svg" xmlns:xlink="http://www.w3.org/1999/xlink">
<g id="graph0" class="graph" transform="scale(1 1) rotate(0) translate(4 203)">
<title>G</title>
<polygon fill="white" stroke="none" points="-4,4 -4,-203 945.54,-203 945.54,4 -4,4"/>
<g id="clust1" class="cluster">
<title>cluster_vector</title>
<polygon fill="none" stroke="black" points="8,-80 8,-155 104,-155 104,-80 8,-80"/>
<text text-anchor="middle" x="56" y="-139.8" font-family="Times,serif" font-size="14.00">vector</text>
</g>
<g id="clust2" class="cluster">
<title>cluster_error</title>
<polygon fill="none" stroke="black" points="112,-8 112,-155 274,-155 274,-8 112,-8"/>
<text text-anchor="middle" x="193" y="-139.8" font-family="Times,serif" font-size="14.00">error</text>
</g>
<!-- check_upgradability -->
<g id="node1" class="node">
<title>check_upgradability</title>
<ellipse fill="none" stroke="black" cx="407" cy="-181" rx="82.59" ry="18"/>
<text text-anchor="middle" x="407" y="-177.3" font-family="Times,serif" font-size="14.00">check_upgradability</text>
</g>
<!-- vector::contains -->
<g id="node2" class="node">
<title>vector::contains</title>
<ellipse fill="none" stroke="black" cx="56" cy="-106" rx="40.09" ry="18"/>
<text text-anchor="middle" x="56" y="-102.3" font-family="Times,serif" font-size="14.00">contains</text>
</g>
<!-- check_upgradability&#45;&gt;vector::contains -->
<g id="edge1" class="edge">
<title>check_upgradability&#45;&gt;vector::contains</title>
<path fill="none" stroke="black" d="M324.59,-179.07C249.74,-177.16 145.49,-171.49 108,-155 96.07,-149.75 85.1,-140.61 76.34,-131.7"/>
<polygon fill="black" stroke="black" points="79.03,-129.46 69.68,-124.48 73.89,-134.21 79.03,-129.46"/>
</g>
<!-- error::invalid_argument -->
<g id="node3" class="node">
<title>error::invalid_argument</title>
<ellipse fill="none" stroke="black" cx="193" cy="-106" rx="73.39" ry="18"/>
<text text-anchor="middle" x="193" y="-102.3" font-family="Times,serif" font-size="14.00">invalid_argument</text>
</g>
<!-- check_upgradability&#45;&gt;error::invalid_argument -->
<g id="edge2" class="edge">
<title>check_upgradability&#45;&gt;error::invalid_argument</title>
<path fill="none" stroke="black" d="M337.14,-171.14C317.03,-167.4 295.31,-162.19 276,-155 258.64,-148.53 240.68,-138.62 225.93,-129.47"/>
<polygon fill="black" stroke="black" points="227.87,-126.55 217.55,-124.13 224.1,-132.46 227.87,-126.55"/>
</g>
<!-- can_change_upgrade_policy_to -->
<g id="node4" class="node">
<title>can_change_upgrade_policy_to</title>
<ellipse fill="none" stroke="black" cx="407" cy="-106" rx="122.38" ry="18"/>
<text text-anchor="middle" x="407" y="-102.3" font-family="Times,serif" font-size="14.00">can_change_upgrade_policy_to</text>
</g>
<!-- check_upgradability&#45;&gt;can_change_upgrade_policy_to -->
<g id="edge3" class="edge">
<title>check_upgradability&#45;&gt;can_change_upgrade_policy_to</title>
<path fill="none" stroke="black" d="M407,-162.7C407,-154.67 407,-144.9 407,-135.8"/>
<polygon fill="black" stroke="black" points="410.5,-135.94 407,-125.94 403.5,-135.94 410.5,-135.94"/>
</g>
<!-- get_module_names -->
<g id="node5" class="node">
<title>get_module_names</title>
<ellipse fill="none" stroke="black" cx="627" cy="-106" rx="79.89" ry="18"/>
<text text-anchor="middle" x="627" y="-102.3" font-family="Times,serif" font-size="14.00">get_module_names</text>
</g>
<!-- check_upgradability&#45;&gt;get_module_names -->
<g id="edge4" class="edge">
<title>check_upgradability&#45;&gt;get_module_names</title>
<path fill="none" stroke="black" d="M476.38,-170.84C496.59,-167.09 518.47,-161.94 538,-155 556.45,-148.44 575.73,-138.48 591.6,-129.33"/>
<polygon fill="black" stroke="black" points="593.37,-132.35 600.19,-124.25 589.8,-126.33 593.37,-132.35"/>
</g>
<!-- upgrade_policy_immutable -->
<g id="node6" class="node">
<title>upgrade_policy_immutable</title>
<ellipse fill="none" stroke="black" cx="833" cy="-106" rx="108.58" ry="18"/>
<text text-anchor="middle" x="833" y="-102.3" font-family="Times,serif" font-size="14.00">upgrade_policy_immutable</text>
</g>
<!-- check_upgradability&#45;&gt;upgrade_policy_immutable -->
<g id="edge5" class="edge">
<title>check_upgradability&#45;&gt;upgrade_policy_immutable</title>
<path fill="none" stroke="black" d="M489.73,-180.19C552.59,-178.68 640.76,-173.02 716,-155 741.51,-148.89 768.68,-138.03 790.42,-128.19"/>
<polygon fill="black" stroke="black" points="791.65,-131.48 799.25,-124.1 788.7,-125.13 791.65,-131.48"/>
</g>
<!-- error::canonical -->
<g id="node7" class="node">
<title>error::canonical</title>
<ellipse fill="none" stroke="black" cx="193" cy="-34" rx="44.39" ry="18"/>
<text text-anchor="middle" x="193" y="-30.3" font-family="Times,serif" font-size="14.00">canonical</text>
</g>
<!-- error::invalid_argument&#45;&gt;error::canonical -->
<g id="edge6" class="edge">
<title>error::invalid_argument&#45;&gt;error::canonical</title>
<path fill="none" stroke="black" d="M193,-87.7C193,-80.41 193,-71.73 193,-63.54"/>
<polygon fill="black" stroke="black" points="196.5,-63.62 193,-53.62 189.5,-63.62 196.5,-63.62"/>
</g>
</g>
</svg>
