<?xml version="1.0" encoding="UTF-8" standalone="no"?>
<!DOCTYPE svg PUBLIC "-//W3C//DTD SVG 1.1//EN"
 "http://www.w3.org/Graphics/SVG/1.1/DTD/svg11.dtd">
<!-- Generated by graphviz version 7.0.4 (20221203.1631)
 -->
<!-- Title: G Pages: 1 -->
<svg width="2722pt" height="282pt"
 viewBox="0.00 0.00 2722.09 282.00" xmlns="http://www.w3.org/2000/svg" xmlns:xlink="http://www.w3.org/1999/xlink">
<g id="graph0" class="graph" transform="scale(1 1) rotate(0) translate(4 278)">
<title>G</title>
<polygon fill="white" stroke="none" points="-4,4 -4,-278 2718.09,-278 2718.09,4 -4,4"/>
<g id="clust1" class="cluster">
<title>cluster_signer</title>
<polygon fill="none" stroke="black" points="8,-80 8,-230 158,-230 158,-80 8,-80"/>
<text text-anchor="middle" x="83" y="-214.8" font-family="Times,serif" font-size="14.00">signer</text>
</g>
<g id="clust2" class="cluster">
<title>cluster_error</title>
<polygon fill="none" stroke="black" points="166,-8 166,-155 581,-155 581,-8 166,-8"/>
<text text-anchor="middle" x="373.5" y="-139.8" font-family="Times,serif" font-size="14.00">error</text>
</g>
<g id="clust3" class="cluster">
<title>cluster_features</title>
<polygon fill="none" stroke="black" points="2000,-8 2000,-230 2276,-230 2276,-8 2000,-8"/>
<text text-anchor="middle" x="2138" y="-214.8" font-family="Times,serif" font-size="14.00">features</text>
</g>
<g id="clust4" class="cluster">
<title>cluster_string</title>
<polygon fill="none" stroke="black" points="589,-8 589,-155 767,-155 767,-8 589,-8"/>
<text text-anchor="middle" x="678" y="-139.8" font-family="Times,serif" font-size="14.00">string</text>
</g>
<g id="clust5" class="cluster">
<title>cluster_vector</title>
<polygon fill="none" stroke="black" points="1406,-80 1406,-155 1502,-155 1502,-80 1406,-80"/>
<text text-anchor="middle" x="1454" y="-139.8" font-family="Times,serif" font-size="14.00">vector</text>
</g>
<!-- publish_package -->
<g id="node1" class="node">
<title>publish_package</title>
<ellipse fill="none" stroke="black" cx="1161" cy="-256" rx="69.59" ry="18"/>
<text text-anchor="middle" x="1161" y="-252.3" font-family="Times,serif" font-size="14.00">publish_package</text>
</g>
<!-- signer::address_of -->
<g id="node2" class="node">
<title>signer::address_of</title>
<ellipse fill="none" stroke="black" cx="92" cy="-181" rx="48.99" ry="18"/>
<text text-anchor="middle" x="92" y="-177.3" font-family="Times,serif" font-size="14.00">address_of</text>
</g>
<!-- publish_package&#45;&gt;signer::address_of -->
<g id="edge1" class="edge">
<title>publish_package&#45;&gt;signer::address_of</title>
<path fill="none" stroke="black" d="M1091.16,-254.6C886.33,-253.21 296.21,-247.7 211,-230 182.76,-224.13 152.64,-211.92 129.77,-201.28"/>
<polygon fill="black" stroke="black" points="131.38,-198.17 120.85,-197.03 128.37,-204.49 131.38,-198.17"/>
</g>
<!-- error::invalid_argument -->
<g id="node3" class="node">
<title>error::invalid_argument</title>
<ellipse fill="none" stroke="black" cx="388" cy="-106" rx="73.39" ry="18"/>
<text text-anchor="middle" x="388" y="-102.3" font-family="Times,serif" font-size="14.00">invalid_argument</text>
</g>
<!-- publish_package&#45;&gt;error::invalid_argument -->
<g id="edge2" class="edge">
<title>publish_package&#45;&gt;error::invalid_argument</title>
<path fill="none" stroke="black" d="M1091.18,-255.28C1007.61,-254.6 863.68,-250.18 742,-230 618.29,-209.49 585.53,-203.75 470,-155 453.45,-148.02 436.15,-138.29 421.72,-129.42"/>
<polygon fill="black" stroke="black" points="423.85,-126.62 413.52,-124.26 420.13,-132.55 423.85,-126.62"/>
</g>
<!-- features::code_dependency_check_enabled -->
<g id="node4" class="node">
<title>features::code_dependency_check_enabled</title>
<ellipse fill="none" stroke="black" cx="2138" cy="-181" rx="129.98" ry="18"/>
<text text-anchor="middle" x="2138" y="-177.3" font-family="Times,serif" font-size="14.00">code_dependency_check_enabled</text>
</g>
<!-- publish_package&#45;&gt;features::code_dependency_check_enabled -->
<g id="edge3" class="edge">
<title>publish_package&#45;&gt;features::code_dependency_check_enabled</title>
<path fill="none" stroke="black" d="M1227,-250.07C1388.43,-238.01 1805.2,-206.87 2014.39,-191.24"/>
<polygon fill="black" stroke="black" points="2014.5,-194.74 2024.21,-190.5 2013.98,-187.76 2014.5,-194.74"/>
</g>
<!-- check_coexistence -->
<g id="node5" class="node">
<title>check_coexistence</title>
<ellipse fill="none" stroke="black" cx="297" cy="-181" rx="76.89" ry="18"/>
<text text-anchor="middle" x="297" y="-177.3" font-family="Times,serif" font-size="14.00">check_coexistence</text>
</g>
<!-- publish_package&#45;&gt;check_coexistence -->
<g id="edge4" class="edge">
<title>publish_package&#45;&gt;check_coexistence</title>
<path fill="none" stroke="black" d="M1091.54,-254.38C985.67,-252.87 777.67,-247.7 602,-230 520.66,-221.81 427.99,-206.34 366.36,-195.17"/>
<polygon fill="black" stroke="black" points="367.18,-191.77 356.71,-193.41 365.92,-198.65 367.18,-191.77"/>
</g>
<!-- check_dependencies -->
<g id="node6" class="node">
<title>check_dependencies</title>
<ellipse fill="none" stroke="black" cx="834" cy="-181" rx="83.39" ry="18"/>
<text text-anchor="middle" x="834" y="-177.3" font-family="Times,serif" font-size="14.00">check_dependencies</text>
</g>
<!-- publish_package&#45;&gt;check_dependencies -->
<g id="edge5" class="edge">
<title>publish_package&#45;&gt;check_dependencies</title>
<path fill="none" stroke="black" d="M1109.55,-243.51C1053.5,-231 963.61,-210.93 901.83,-197.14"/>
<polygon fill="black" stroke="black" points="902.64,-193.74 892.12,-194.97 901.11,-200.57 902.64,-193.74"/>
</g>
<!-- check_upgradability -->
<g id="node7" class="node">
<title>check_upgradability</title>
<ellipse fill="none" stroke="black" cx="1383" cy="-181" rx="82.59" ry="18"/>
<text text-anchor="middle" x="1383" y="-177.3" font-family="Times,serif" font-size="14.00">check_upgradability</text>
</g>
<!-- publish_package&#45;&gt;check_upgradability -->
<g id="edge6" class="edge">
<title>publish_package&#45;&gt;check_upgradability</title>
<path fill="none" stroke="black" d="M1212.76,-243.61C1228.68,-239.73 1246.17,-235.07 1262,-230 1287.06,-221.97 1314.36,-211.31 1336.67,-202.08"/>
<polygon fill="black" stroke="black" points="1337.92,-205.35 1345.8,-198.26 1335.22,-198.89 1337.92,-205.35"/>
</g>
<!-- get_module_names -->
<g id="node8" class="node">
<title>get_module_names</title>
<ellipse fill="none" stroke="black" cx="1316" cy="-106" rx="79.89" ry="18"/>
<text text-anchor="middle" x="1316" y="-102.3" font-family="Times,serif" font-size="14.00">get_module_names</text>
</g>
<!-- publish_package&#45;&gt;get_module_names -->
<g id="edge7" class="edge">
<title>publish_package&#45;&gt;get_module_names</title>
<path fill="none" stroke="black" d="M1178.48,-238.31C1205.81,-212.22 1258.79,-161.63 1290.41,-131.43"/>
<polygon fill="black" stroke="black" points="1292.44,-134.34 1297.25,-124.9 1287.6,-129.28 1292.44,-134.34"/>
</g>
<!-- request_publish -->
<g id="node9" class="node">
<title>request_publish</title>
<ellipse fill="none" stroke="black" cx="2352" cy="-181" rx="66.09" ry="18"/>
<text text-anchor="middle" x="2352" y="-177.3" font-family="Times,serif" font-size="14.00">request_publish</text>
</g>
<!-- publish_package&#45;&gt;request_publish -->
<g id="edge8" class="edge">
<title>publish_package&#45;&gt;request_publish</title>
<path fill="none" stroke="black" d="M1230.76,-254.51C1467.73,-252.72 2229.96,-245.76 2280,-230 2295.99,-224.96 2311.71,-215.2 2324.37,-205.79"/>
<polygon fill="black" stroke="black" points="2326.48,-208.58 2332.21,-199.67 2322.17,-203.06 2326.48,-208.58"/>
</g>
<!-- request_publish_with_allowed_deps -->
<g id="node10" class="node">
<title>request_publish_with_allowed_deps</title>
<ellipse fill="none" stroke="black" cx="2575" cy="-181" rx="139.18" ry="18"/>
<text text-anchor="middle" x="2575" y="-177.3" font-family="Times,serif" font-size="14.00">request_publish_with_allowed_deps</text>
</g>
<!-- publish_package&#45;&gt;request_publish_with_allowed_deps -->
<g id="edge9" class="edge">
<title>publish_package&#45;&gt;request_publish_with_allowed_deps</title>
<path fill="none" stroke="black" d="M1230.72,-254.82C1478.66,-254.01 2309.19,-249.82 2427,-230 2460.04,-224.44 2495.81,-213 2523.9,-202.68"/>
<polygon fill="black" stroke="black" points="2525.11,-205.97 2533.24,-199.18 2522.65,-199.41 2525.11,-205.97"/>
</g>
<!-- upgrade_policy_arbitrary -->
<g id="node11" class="node">
<title>upgrade_policy_arbitrary</title>
<ellipse fill="none" stroke="black" cx="1118" cy="-106" rx="100.18" ry="18"/>
<text text-anchor="middle" x="1118" y="-102.3" font-family="Times,serif" font-size="14.00">upgrade_policy_arbitrary</text>
</g>
<!-- publish_package&#45;&gt;upgrade_policy_arbitrary -->
<g id="edge10" class="edge">
<title>publish_package&#45;&gt;upgrade_policy_arbitrary</title>
<path fill="none" stroke="black" d="M1155.98,-237.73C1148.64,-212.45 1134.87,-165.07 1126.08,-134.83"/>
<polygon fill="black" stroke="black" points="1129.56,-134.24 1123.41,-125.61 1122.84,-136.19 1129.56,-134.24"/>
</g>
<!-- signer::borrow_address -->
<g id="node12" class="node">
<title>signer::borrow_address</title>
<ellipse fill="none" stroke="black" cx="83" cy="-106" rx="66.89" ry="18"/>
<text text-anchor="middle" x="83" y="-102.3" font-family="Times,serif" font-size="14.00">borrow_address</text>
</g>
<!-- signer::address_of&#45;&gt;signer::borrow_address -->
<g id="edge11" class="edge">
<title>signer::address_of&#45;&gt;signer::borrow_address</title>
<path fill="none" stroke="black" d="M89.87,-162.7C88.88,-154.67 87.67,-144.9 86.55,-135.8"/>
<polygon fill="black" stroke="black" points="90.03,-135.43 85.33,-125.93 83.08,-136.28 90.03,-135.43"/>
</g>
<!-- error::canonical -->
<g id="node13" class="node">
<title>error::canonical</title>
<ellipse fill="none" stroke="black" cx="388" cy="-34" rx="44.39" ry="18"/>
<text text-anchor="middle" x="388" y="-30.3" font-family="Times,serif" font-size="14.00">canonical</text>
</g>
<!-- error::invalid_argument&#45;&gt;error::canonical -->
<g id="edge12" class="edge">
<title>error::invalid_argument&#45;&gt;error::canonical</title>
<path fill="none" stroke="black" d="M388,-87.7C388,-80.41 388,-71.73 388,-63.54"/>
<polygon fill="black" stroke="black" points="391.5,-63.62 388,-53.62 384.5,-63.62 391.5,-63.62"/>
</g>
<!-- features::is_enabled -->
<g id="node14" class="node">
<title>features::is_enabled</title>
<ellipse fill="none" stroke="black" cx="2138" cy="-106" rx="48.19" ry="18"/>
<text text-anchor="middle" x="2138" y="-102.3" font-family="Times,serif" font-size="14.00">is_enabled</text>
</g>
<!-- features::code_dependency_check_enabled&#45;&gt;features::is_enabled -->
<g id="edge13" class="edge">
<title>features::code_dependency_check_enabled&#45;&gt;features::is_enabled</title>
<path fill="none" stroke="black" d="M2138,-162.7C2138,-154.67 2138,-144.9 2138,-135.8"/>
<polygon fill="black" stroke="black" points="2141.5,-135.94 2138,-125.94 2134.5,-135.94 2141.5,-135.94"/>
</g>
<!-- error::already_exists -->
<g id="node15" class="node">
<title>error::already_exists</title>
<ellipse fill="none" stroke="black" cx="235" cy="-106" rx="61.19" ry="18"/>
<text text-anchor="middle" x="235" y="-102.3" font-family="Times,serif" font-size="14.00">already_exists</text>
</g>
<!-- check_coexistence&#45;&gt;error::already_exists -->
<g id="edge14" class="edge">
<title>check_coexistence&#45;&gt;error::already_exists</title>
<path fill="none" stroke="black" d="M282.62,-163.07C274.87,-153.95 265.16,-142.51 256.53,-132.35"/>
<polygon fill="black" stroke="black" points="259.42,-130.35 250.28,-124.99 254.09,-134.88 259.42,-130.35"/>
</g>
<!-- check_dependencies&#45;&gt;error::invalid_argument -->
<g id="edge16" class="edge">
<title>check_dependencies&#45;&gt;error::invalid_argument</title>
<path fill="none" stroke="black" d="M758.48,-173.11C720.04,-169.75 672.55,-165.84 630,-163 594.48,-160.63 504.12,-165.17 470,-155 451.85,-149.59 433.48,-139.37 418.74,-129.75"/>
<polygon fill="black" stroke="black" points="421.11,-127.13 410.87,-124.42 417.19,-132.93 421.11,-127.13"/>
</g>
<!-- check_dependencies&#45;&gt;upgrade_policy_arbitrary -->
<g id="edge19" class="edge">
<title>check_dependencies&#45;&gt;upgrade_policy_arbitrary</title>
<path fill="none" stroke="black" d="M910.3,-173.53C941.04,-169.77 976.59,-163.93 1008,-155 1031.27,-148.38 1056.07,-137.89 1076.21,-128.4"/>
<polygon fill="black" stroke="black" points="1077.73,-131.56 1085.23,-124.07 1074.7,-125.25 1077.73,-131.56"/>
</g>
<!-- string::utf8 -->
<g id="node16" class="node">
<title>string::utf8</title>
<ellipse fill="none" stroke="black" cx="704" cy="-106" rx="27" ry="18"/>
<text text-anchor="middle" x="704" y="-102.3" font-family="Times,serif" font-size="14.00">utf8</text>
</g>
<!-- check_dependencies&#45;&gt;string::utf8 -->
<g id="edge15" class="edge">
<title>check_dependencies&#45;&gt;string::utf8</title>
<path fill="none" stroke="black" d="M788.51,-165.49C780.81,-162.41 773.04,-158.9 766,-155 752.6,-147.58 739.01,-137.42 727.97,-128.35"/>
<polygon fill="black" stroke="black" points="730.42,-125.83 720.53,-122.05 725.9,-131.18 730.42,-125.83"/>
</g>
<!-- error::not_found -->
<g id="node17" class="node">
<title>error::not_found</title>
<ellipse fill="none" stroke="black" cx="526" cy="-106" rx="46.59" ry="18"/>
<text text-anchor="middle" x="526" y="-102.3" font-family="Times,serif" font-size="14.00">not_found</text>
</g>
<!-- check_dependencies&#45;&gt;error::not_found -->
<g id="edge17" class="edge">
<title>check_dependencies&#45;&gt;error::not_found</title>
<path fill="none" stroke="black" d="M755.9,-174.42C688.84,-169.26 600.59,-161.43 585,-155 571.78,-149.54 559.19,-140.12 549.06,-131.05"/>
<polygon fill="black" stroke="black" points="551.61,-128.65 541.94,-124.33 546.81,-133.74 551.61,-128.65"/>
</g>
<!-- is_policy_exempted_address -->
<g id="node18" class="node">
<title>is_policy_exempted_address</title>
<ellipse fill="none" stroke="black" cx="887" cy="-106" rx="112.38" ry="18"/>
<text text-anchor="middle" x="887" y="-102.3" font-family="Times,serif" font-size="14.00">is_policy_exempted_address</text>
</g>
<!-- check_dependencies&#45;&gt;is_policy_exempted_address -->
<g id="edge18" class="edge">
<title>check_dependencies&#45;&gt;is_policy_exempted_address</title>
<path fill="none" stroke="black" d="M846.29,-163.07C852.69,-154.26 860.65,-143.29 867.84,-133.4"/>
<polygon fill="black" stroke="black" points="870.47,-135.72 873.52,-125.57 864.81,-131.61 870.47,-135.72"/>
</g>
<!-- check_upgradability&#45;&gt;error::invalid_argument -->
<g id="edge21" class="edge">
<title>check_upgradability&#45;&gt;error::invalid_argument</title>
<path fill="none" stroke="black" d="M1302.53,-176.53C1211.25,-172.7 1057.95,-166.61 926,-163 900.67,-162.31 494.4,-161.85 470,-155 451.63,-149.85 433.12,-139.55 418.35,-129.81"/>
<polygon fill="black" stroke="black" points="420.69,-127.18 410.47,-124.41 416.73,-132.95 420.69,-127.18"/>
</g>
<!-- check_upgradability&#45;&gt;get_module_names -->
<g id="edge23" class="edge">
<title>check_upgradability&#45;&gt;get_module_names</title>
<path fill="none" stroke="black" d="M1367.46,-163.07C1359.15,-154.01 1348.74,-142.67 1339.47,-132.57"/>
<polygon fill="black" stroke="black" points="1342.05,-130.21 1332.71,-125.21 1336.89,-134.94 1342.05,-130.21"/>
</g>
<!-- vector::contains -->
<g id="node19" class="node">
<title>vector::contains</title>
<ellipse fill="none" stroke="black" cx="1454" cy="-106" rx="40.09" ry="18"/>
<text text-anchor="middle" x="1454" y="-102.3" font-family="Times,serif" font-size="14.00">contains</text>
</g>
<!-- check_upgradability&#45;&gt;vector::contains -->
<g id="edge20" class="edge">
<title>check_upgradability&#45;&gt;vector::contains</title>
<path fill="none" stroke="black" d="M1399.47,-163.07C1408.78,-153.5 1420.57,-141.38 1430.8,-130.86"/>
<polygon fill="black" stroke="black" points="1433.08,-133.53 1437.54,-123.92 1428.06,-128.65 1433.08,-133.53"/>
</g>
<!-- can_change_upgrade_policy_to -->
<g id="node20" class="node">
<title>can_change_upgrade_policy_to</title>
<ellipse fill="none" stroke="black" cx="1634" cy="-106" rx="122.38" ry="18"/>
<text text-anchor="middle" x="1634" y="-102.3" font-family="Times,serif" font-size="14.00">can_change_upgrade_policy_to</text>
</g>
<!-- check_upgradability&#45;&gt;can_change_upgrade_policy_to -->
<g id="edge22" class="edge">
<title>check_upgradability&#45;&gt;can_change_upgrade_policy_to</title>
<path fill="none" stroke="black" d="M1446.35,-169.12C1465.66,-165.27 1486.84,-160.5 1506,-155 1532.41,-147.42 1561.11,-136.88 1584.63,-127.6"/>
<polygon fill="black" stroke="black" points="1585.65,-130.96 1593.64,-124.01 1583.05,-124.46 1585.65,-130.96"/>
</g>
<!-- upgrade_policy_immutable -->
<g id="node21" class="node">
<title>upgrade_policy_immutable</title>
<ellipse fill="none" stroke="black" cx="1883" cy="-106" rx="108.58" ry="18"/>
<text text-anchor="middle" x="1883" y="-102.3" font-family="Times,serif" font-size="14.00">upgrade_policy_immutable</text>
</g>
<!-- check_upgradability&#45;&gt;upgrade_policy_immutable -->
<g id="edge24" class="edge">
<title>check_upgradability&#45;&gt;upgrade_policy_immutable</title>
<path fill="none" stroke="black" d="M1464.73,-177.71C1559.55,-174.52 1709.94,-167.65 1765,-155 1790.75,-149.08 1818.16,-138.24 1840.08,-128.35"/>
<polygon fill="black" stroke="black" points="1841.38,-131.61 1848.99,-124.23 1838.44,-125.25 1841.38,-131.61"/>
</g>
<!-- features::contains -->
<g id="node22" class="node">
<title>features::contains</title>
<ellipse fill="none" stroke="black" cx="2138" cy="-34" rx="40.09" ry="18"/>
<text text-anchor="middle" x="2138" y="-30.3" font-family="Times,serif" font-size="14.00">contains</text>
</g>
<!-- features::is_enabled&#45;&gt;features::contains -->
<g id="edge25" class="edge">
<title>features::is_enabled&#45;&gt;features::contains</title>
<path fill="none" stroke="black" d="M2138,-87.7C2138,-80.41 2138,-71.73 2138,-63.54"/>
<polygon fill="black" stroke="black" points="2141.5,-63.62 2138,-53.62 2134.5,-63.62 2141.5,-63.62"/>
</g>
<!-- error::already_exists&#45;&gt;error::canonical -->
<g id="edge26" class="edge">
<title>error::already_exists&#45;&gt;error::canonical</title>
<path fill="none" stroke="black" d="M267.07,-90.33C290.92,-79.42 323.58,-64.47 348.94,-52.87"/>
<polygon fill="black" stroke="black" points="350.31,-56.09 357.95,-48.75 347.4,-49.73 350.31,-56.09"/>
</g>
<!-- string::internal_check_utf8 -->
<g id="node23" class="node">
<title>string::internal_check_utf8</title>
<ellipse fill="none" stroke="black" cx="678" cy="-34" rx="81.49" ry="18"/>
<text text-anchor="middle" x="678" y="-30.3" font-family="Times,serif" font-size="14.00">internal_check_utf8</text>
</g>
<!-- string::utf8&#45;&gt;string::internal_check_utf8 -->
<g id="edge27" class="edge">
<title>string::utf8&#45;&gt;string::internal_check_utf8</title>
<path fill="none" stroke="black" d="M697.71,-88.05C694.91,-80.52 691.53,-71.44 688.38,-62.94"/>
<polygon fill="black" stroke="black" points="691.71,-61.85 684.94,-53.69 685.14,-64.29 691.71,-61.85"/>
</g>
<!-- error::not_found&#45;&gt;error::canonical -->
<g id="edge28" class="edge">
<title>error::not_found&#45;&gt;error::canonical</title>
<path fill="none" stroke="black" d="M498.74,-91.17C477.62,-80.46 448.15,-65.51 424.92,-53.73"/>
<polygon fill="black" stroke="black" points="426.59,-50.65 416.09,-49.25 423.42,-56.89 426.59,-50.65"/>
</g>
</g>
</svg>
