<?xml version="1.0" encoding="UTF-8" standalone="no"?>
<!DOCTYPE svg PUBLIC "-//W3C//DTD SVG 1.1//EN"
 "http://www.w3.org/Graphics/SVG/1.1/DTD/svg11.dtd">
<!-- Generated by graphviz version 7.0.4 (20221203.1631)
 -->
<!-- Title: G Pages: 1 -->
<svg width="396pt" height="371pt"
 viewBox="0.00 0.00 396.00 371.00" xmlns="http://www.w3.org/2000/svg" xmlns:xlink="http://www.w3.org/1999/xlink">
<g id="graph0" class="graph" transform="scale(1 1) rotate(0) translate(4 367)">
<title>G</title>
<polygon fill="white" stroke="none" points="-4,4 -4,-367 392,-367 392,4 -4,4"/>
<g id="clust1" class="cluster">
<title>cluster_resource_account</title>
<polygon fill="none" stroke="black" points="8,-280 8,-355 380,-355 380,-280 8,-280"/>
<text text-anchor="middle" x="194" y="-339.8" font-family="Times,serif" font-size="14.00">resource_account</text>
</g>
<!-- get_module_names -->
<g id="node1" class="node">
<title>get_module_names</title>
<ellipse fill="none" stroke="black" cx="194" cy="-18" rx="79.89" ry="18"/>
<text text-anchor="middle" x="194" y="-14.3" font-family="Times,serif" font-size="14.00">get_module_names</text>
</g>
<!-- check_upgradability -->
<g id="node2" class="node">
<title>check_upgradability</title>
<ellipse fill="none" stroke="black" cx="250" cy="-90" rx="82.59" ry="18"/>
<text text-anchor="middle" x="250" y="-86.3" font-family="Times,serif" font-size="14.00">check_upgradability</text>
</g>
<!-- check_upgradability&#45;&gt;get_module_names -->
<g id="edge1" class="edge">
<title>check_upgradability&#45;&gt;get_module_names</title>
<path fill="none" stroke="black" d="M236.44,-72.05C229.84,-63.8 221.76,-53.7 214.43,-44.54"/>
<polygon fill="black" stroke="black" points="217.36,-42.59 208.38,-36.97 211.89,-46.97 217.36,-42.59"/>
</g>
<!-- publish_package -->
<g id="node3" class="node">
<title>publish_package</title>
<ellipse fill="none" stroke="black" cx="194" cy="-162" rx="69.59" ry="18"/>
<text text-anchor="middle" x="194" y="-158.3" font-family="Times,serif" font-size="14.00">publish_package</text>
</g>
<!-- publish_package&#45;&gt;get_module_names -->
<g id="edge2" class="edge">
<title>publish_package&#45;&gt;get_module_names</title>
<path fill="none" stroke="black" d="M178.77,-144.24C170.9,-134.44 162.12,-121.4 158,-108 153.3,-92.71 153.3,-87.29 158,-72 160.96,-62.37 166.33,-52.92 172.04,-44.73"/>
<polygon fill="black" stroke="black" points="174.66,-47.07 177.86,-36.97 169.06,-42.87 174.66,-47.07"/>
</g>
<!-- publish_package&#45;&gt;check_upgradability -->
<g id="edge3" class="edge">
<title>publish_package&#45;&gt;check_upgradability</title>
<path fill="none" stroke="black" d="M207.56,-144.05C214.16,-135.8 222.24,-125.7 229.57,-116.54"/>
<polygon fill="black" stroke="black" points="232.11,-118.97 235.62,-108.97 226.64,-114.59 232.11,-118.97"/>
</g>
<!-- publish_package_txn -->
<g id="node4" class="node">
<title>publish_package_txn</title>
<ellipse fill="none" stroke="black" cx="194" cy="-234" rx="85.29" ry="18"/>
<text text-anchor="middle" x="194" y="-230.3" font-family="Times,serif" font-size="14.00">publish_package_txn</text>
</g>
<!-- publish_package_txn&#45;&gt;publish_package -->
<g id="edge4" class="edge">
<title>publish_package_txn&#45;&gt;publish_package</title>
<path fill="none" stroke="black" d="M194,-215.7C194,-208.41 194,-199.73 194,-191.54"/>
<polygon fill="black" stroke="black" points="197.5,-191.62 194,-181.62 190.5,-191.62 197.5,-191.62"/>
</g>
<!-- resource_account::create_resource_account_and_publish_package -->
<g id="node5" class="node">
<title>resource_account::create_resource_account_and_publish_package</title>
<ellipse fill="none" stroke="black" cx="194" cy="-306" rx="178.17" ry="18"/>
<text text-anchor="middle" x="194" y="-302.3" font-family="Times,serif" font-size="14.00">create_resource_account_and_publish_package</text>
</g>
<!-- resource_account::create_resource_account_and_publish_package&#45;&gt;publish_package_txn -->
<g id="edge5" class="edge">
<title>resource_account::create_resource_account_and_publish_package&#45;&gt;publish_package_txn</title>
<path fill="none" stroke="black" d="M194,-287.7C194,-280.41 194,-271.73 194,-263.54"/>
<polygon fill="black" stroke="black" points="197.5,-263.62 194,-253.62 190.5,-263.62 197.5,-263.62"/>
</g>
</g>
</svg>
