<?xml version="1.0" encoding="UTF-8" standalone="no"?>
<!DOCTYPE svg PUBLIC "-//W3C//DTD SVG 1.1//EN"
 "http://www.w3.org/Graphics/SVG/1.1/DTD/svg11.dtd">
<!-- Generated by graphviz version 7.0.4 (20221203.1631)
 -->
<!-- Title: G Pages: 1 -->
<svg width="1795pt" height="388pt"
 viewBox="0.00 0.00 1795.00 388.00" xmlns="http://www.w3.org/2000/svg" xmlns:xlink="http://www.w3.org/1999/xlink">
<g id="graph0" class="graph" transform="scale(1 1) rotate(0) translate(4 384)">
<title>G</title>
<polygon fill="white" stroke="none" points="-4,4 -4,-384 1791,-384 1791,4 -4,4"/>
<g id="clust1" class="cluster">
<title>cluster_aptos_coin</title>
<polygon fill="none" stroke="black" points="829,-222 829,-297 1065,-297 1065,-222 829,-222"/>
<text text-anchor="middle" x="947" y="-281.8" font-family="Times,serif" font-size="14.00">aptos_coin</text>
</g>
<g id="clust2" class="cluster">
<title>cluster_aptos_account</title>
<polygon fill="none" stroke="black" points="1104,-64 1104,-372 1381,-372 1381,-64 1104,-64"/>
<text text-anchor="middle" x="1242.5" y="-356.8" font-family="Times,serif" font-size="14.00">aptos_account</text>
</g>
<g id="clust3" class="cluster">
<title>cluster_vesting</title>
<polygon fill="none" stroke="black" points="798,-64 798,-214 1066,-214 1066,-64 798,-64"/>
<text text-anchor="middle" x="932" y="-198.8" font-family="Times,serif" font-size="14.00">vesting</text>
</g>
<g id="clust4" class="cluster">
<title>cluster_genesis</title>
<polygon fill="none" stroke="black" points="8,-64 8,-372 790,-372 790,-64 8,-64"/>
<text text-anchor="middle" x="399" y="-356.8" font-family="Times,serif" font-size="14.00">genesis</text>
</g>
<g id="clust5" class="cluster">
<title>cluster_managed_coin</title>
<polygon fill="none" stroke="black" points="1389,-64 1389,-139 1485,-139 1485,-64 1389,-64"/>
<text text-anchor="middle" x="1437" y="-123.8" font-family="Times,serif" font-size="14.00">managed_coin</text>
</g>
<g id="clust6" class="cluster">
<title>cluster_resource_account</title>
<polygon fill="none" stroke="black" points="1493,-64 1493,-139 1779,-139 1779,-64 1493,-64"/>
<text text-anchor="middle" x="1636" y="-123.8" font-family="Times,serif" font-size="14.00">resource_account</text>
</g>
<!-- register -->
<g id="node1" class="node">
<title>register</title>
<ellipse fill="none" stroke="black" cx="1187" cy="-18" rx="37.09" ry="18"/>
<text text-anchor="middle" x="1187" y="-14.3" font-family="Times,serif" font-size="14.00">register</text>
</g>
<!-- aptos_coin::configure_accounts_for_test -->
<g id="node2" class="node">
<title>aptos_coin::configure_accounts_for_test</title>
<ellipse fill="none" stroke="black" cx="947" cy="-248" rx="110.48" ry="18"/>
<text text-anchor="middle" x="947" y="-244.3" font-family="Times,serif" font-size="14.00">configure_accounts_for_test</text>
</g>
<!-- aptos_coin::configure_accounts_for_test&#45;&gt;register -->
<g id="edge1" class="edge">
<title>aptos_coin::configure_accounts_for_test&#45;&gt;register</title>
<path fill="none" stroke="black" d="M1034.14,-236.7C1047.6,-231.66 1060.25,-224.4 1070,-214 1116.49,-164.4 1059.1,-118.31 1100,-64 1111.16,-49.18 1128.61,-38.82 1144.96,-31.81"/>
<polygon fill="black" stroke="black" points="1146.04,-35.14 1154.06,-28.22 1143.47,-28.63 1146.04,-35.14"/>
</g>
<!-- aptos_account::create_account -->
<g id="node3" class="node">
<title>aptos_account::create_account</title>
<ellipse fill="none" stroke="black" cx="1187" cy="-90" rx="63.89" ry="18"/>
<text text-anchor="middle" x="1187" y="-86.3" font-family="Times,serif" font-size="14.00">create_account</text>
</g>
<!-- aptos_account::create_account&#45;&gt;register -->
<g id="edge2" class="edge">
<title>aptos_account::create_account&#45;&gt;register</title>
<path fill="none" stroke="black" d="M1187,-71.7C1187,-64.41 1187,-55.73 1187,-47.54"/>
<polygon fill="black" stroke="black" points="1190.5,-47.62 1187,-37.62 1183.5,-47.62 1190.5,-47.62"/>
</g>
<!-- aptos_account::deposit_coins -->
<g id="node4" class="node">
<title>aptos_account::deposit_coins</title>
<ellipse fill="none" stroke="black" cx="1288" cy="-165" rx="59.29" ry="18"/>
<text text-anchor="middle" x="1288" y="-161.3" font-family="Times,serif" font-size="14.00">deposit_coins</text>
</g>
<!-- aptos_account::deposit_coins&#45;&gt;register -->
<g id="edge3" class="edge">
<title>aptos_account::deposit_coins&#45;&gt;register</title>
<path fill="none" stroke="black" d="M1286.96,-146.77C1284.89,-125.39 1278.66,-88.77 1260,-64 1250.95,-51.99 1237.68,-42.45 1224.93,-35.31"/>
<polygon fill="black" stroke="black" points="1226.73,-32.3 1216.24,-30.78 1223.5,-38.51 1226.73,-32.3"/>
</g>
<!-- aptos_account::deposit_coins&#45;&gt;aptos_account::create_account -->
<g id="edge10" class="edge">
<title>aptos_account::deposit_coins&#45;&gt;aptos_account::create_account</title>
<path fill="none" stroke="black" d="M1266.08,-148.16C1252.25,-138.16 1234.14,-125.07 1218.75,-113.94"/>
<polygon fill="black" stroke="black" points="1220.95,-111.22 1210.8,-108.2 1216.85,-116.9 1220.95,-111.22"/>
</g>
<!-- vesting::create_vesting_contract_account -->
<g id="node5" class="node">
<title>vesting::create_vesting_contract_account</title>
<ellipse fill="none" stroke="black" cx="932" cy="-90" rx="126.18" ry="18"/>
<text text-anchor="middle" x="932" y="-86.3" font-family="Times,serif" font-size="14.00">create_vesting_contract_account</text>
</g>
<!-- vesting::create_vesting_contract_account&#45;&gt;register -->
<g id="edge4" class="edge">
<title>vesting::create_vesting_contract_account&#45;&gt;register</title>
<path fill="none" stroke="black" d="M988.59,-73.46C1035.74,-60.52 1101.84,-42.38 1144.55,-30.65"/>
<polygon fill="black" stroke="black" points="1145.23,-34.1 1153.94,-28.07 1143.37,-27.35 1145.23,-34.1"/>
</g>
<!-- genesis::create_account -->
<g id="node6" class="node">
<title>genesis::create_account</title>
<ellipse fill="none" stroke="black" cx="462" cy="-90" rx="63.89" ry="18"/>
<text text-anchor="middle" x="462" y="-86.3" font-family="Times,serif" font-size="14.00">create_account</text>
</g>
<!-- genesis::create_account&#45;&gt;register -->
<g id="edge5" class="edge">
<title>genesis::create_account&#45;&gt;register</title>
<path fill="none" stroke="black" d="M521.64,-83.24C662.22,-69.67 1012.11,-35.89 1139.58,-23.58"/>
<polygon fill="black" stroke="black" points="1139.73,-27.08 1149.35,-22.64 1139.06,-20.11 1139.73,-27.08"/>
</g>
<!-- managed_coin::register -->
<g id="node7" class="node">
<title>managed_coin::register</title>
<ellipse fill="none" stroke="black" cx="1434" cy="-90" rx="37.09" ry="18"/>
<text text-anchor="middle" x="1434" y="-86.3" font-family="Times,serif" font-size="14.00">register</text>
</g>
<!-- managed_coin::register&#45;&gt;register -->
<g id="edge6" class="edge">
<title>managed_coin::register&#45;&gt;register</title>
<path fill="none" stroke="black" d="M1410.61,-75.57C1402.67,-71.42 1393.62,-67.12 1385,-64 1334.52,-45.71 1274.01,-33.25 1233.28,-26.16"/>
<polygon fill="black" stroke="black" points="1234.02,-22.74 1223.58,-24.52 1232.85,-29.64 1234.02,-22.74"/>
</g>
<!-- resource_account::create_resource_account_and_fund -->
<g id="node8" class="node">
<title>resource_account::create_resource_account_and_fund</title>
<ellipse fill="none" stroke="black" cx="1636" cy="-90" rx="135.38" ry="18"/>
<text text-anchor="middle" x="1636" y="-86.3" font-family="Times,serif" font-size="14.00">create_resource_account_and_fund</text>
</g>
<!-- resource_account::create_resource_account_and_fund&#45;&gt;register -->
<g id="edge7" class="edge">
<title>resource_account::create_resource_account_and_fund&#45;&gt;register</title>
<path fill="none" stroke="black" d="M1555.94,-75.08C1534.24,-71.39 1510.73,-67.47 1489,-64 1398.7,-49.6 1292.97,-34.17 1233.61,-25.64"/>
<polygon fill="black" stroke="black" points="1234.27,-22.2 1223.87,-24.25 1233.27,-29.13 1234.27,-22.2"/>
</g>
<!-- genesis::initialize_core_resources_and_aptos_coin -->
<g id="node9" class="node">
<title>genesis::initialize_core_resources_and_aptos_coin</title>
<ellipse fill="none" stroke="black" cx="624" cy="-323" rx="157.87" ry="18"/>
<text text-anchor="middle" x="624" y="-319.3" font-family="Times,serif" font-size="14.00">initialize_core_resources_and_aptos_coin</text>
</g>
<!-- genesis::initialize_core_resources_and_aptos_coin&#45;&gt;aptos_coin::configure_accounts_for_test -->
<g id="edge8" class="edge">
<title>genesis::initialize_core_resources_and_aptos_coin&#45;&gt;aptos_coin::configure_accounts_for_test</title>
<path fill="none" stroke="black" d="M729.23,-309.18C750.77,-305.81 773.21,-301.76 794,-297 826.97,-289.45 863.1,-278.26 891.97,-268.58"/>
<polygon fill="black" stroke="black" points="892.88,-271.97 901.22,-265.44 890.63,-265.34 892.88,-271.97"/>
</g>
<!-- aptos_account::transfer -->
<g id="node10" class="node">
<title>aptos_account::transfer</title>
<ellipse fill="none" stroke="black" cx="1173" cy="-165" rx="37.89" ry="18"/>
<text text-anchor="middle" x="1173" y="-161.3" font-family="Times,serif" font-size="14.00">transfer</text>
</g>
<!-- aptos_account::transfer&#45;&gt;aptos_account::create_account -->
<g id="edge9" class="edge">
<title>aptos_account::transfer&#45;&gt;aptos_account::create_account</title>
<path fill="none" stroke="black" d="M1176.32,-146.7C1177.88,-138.58 1179.77,-128.68 1181.54,-119.5"/>
<polygon fill="black" stroke="black" points="1184.93,-120.4 1183.37,-109.92 1178.05,-119.08 1184.93,-120.4"/>
</g>
<!-- aptos_account::transfer_coins -->
<g id="node11" class="node">
<title>aptos_account::transfer_coins</title>
<ellipse fill="none" stroke="black" cx="1313" cy="-248" rx="60.39" ry="18"/>
<text text-anchor="middle" x="1313" y="-244.3" font-family="Times,serif" font-size="14.00">transfer_coins</text>
</g>
<!-- aptos_account::transfer_coins&#45;&gt;aptos_account::deposit_coins -->
<g id="edge11" class="edge">
<title>aptos_account::transfer_coins&#45;&gt;aptos_account::deposit_coins</title>
<path fill="none" stroke="black" d="M1307.7,-229.82C1304.48,-219.41 1300.3,-205.87 1296.62,-193.94"/>
<polygon fill="black" stroke="black" points="1300.03,-193.12 1293.74,-184.6 1293.35,-195.19 1300.03,-193.12"/>
</g>
<!-- vesting::create_vesting_contract -->
<g id="node12" class="node">
<title>vesting::create_vesting_contract</title>
<ellipse fill="none" stroke="black" cx="916" cy="-165" rx="94.48" ry="18"/>
<text text-anchor="middle" x="916" y="-161.3" font-family="Times,serif" font-size="14.00">create_vesting_contract</text>
</g>
<!-- vesting::create_vesting_contract&#45;&gt;vesting::create_vesting_contract_account -->
<g id="edge12" class="edge">
<title>vesting::create_vesting_contract&#45;&gt;vesting::create_vesting_contract_account</title>
<path fill="none" stroke="black" d="M919.79,-146.7C921.57,-138.58 923.74,-128.68 925.75,-119.5"/>
<polygon fill="black" stroke="black" points="929.13,-120.42 927.86,-109.91 922.3,-118.93 929.13,-120.42"/>
</g>
<!-- genesis::create_accounts -->
<g id="node13" class="node">
<title>genesis::create_accounts</title>
<ellipse fill="none" stroke="black" cx="462" cy="-165" rx="66.89" ry="18"/>
<text text-anchor="middle" x="462" y="-161.3" font-family="Times,serif" font-size="14.00">create_accounts</text>
</g>
<!-- genesis::create_accounts&#45;&gt;genesis::create_account -->
<g id="edge13" class="edge">
<title>genesis::create_accounts&#45;&gt;genesis::create_account</title>
<path fill="none" stroke="black" d="M462,-146.7C462,-138.67 462,-128.9 462,-119.8"/>
<polygon fill="black" stroke="black" points="465.5,-119.94 462,-109.94 458.5,-119.94 465.5,-119.94"/>
</g>
<!-- genesis::create_initialize_validator -->
<g id="node14" class="node">
<title>genesis::create_initialize_validator</title>
<ellipse fill="none" stroke="black" cx="271" cy="-165" rx="102.88" ry="18"/>
<text text-anchor="middle" x="271" y="-161.3" font-family="Times,serif" font-size="14.00">create_initialize_validator</text>
</g>
<!-- genesis::create_initialize_validator&#45;&gt;genesis::create_account -->
<g id="edge14" class="edge">
<title>genesis::create_initialize_validator&#45;&gt;genesis::create_account</title>
<path fill="none" stroke="black" d="M312.44,-148.16C342.48,-136.68 383.14,-121.14 414.49,-109.16"/>
<polygon fill="black" stroke="black" points="415.65,-112.46 423.74,-105.62 413.15,-105.92 415.65,-112.46"/>
</g>
<!-- aptos_account::batch_transfer -->
<g id="node15" class="node">
<title>aptos_account::batch_transfer</title>
<ellipse fill="none" stroke="black" cx="1173" cy="-248" rx="61.19" ry="18"/>
<text text-anchor="middle" x="1173" y="-244.3" font-family="Times,serif" font-size="14.00">batch_transfer</text>
</g>
<!-- aptos_account::batch_transfer&#45;&gt;aptos_account::transfer -->
<g id="edge15" class="edge">
<title>aptos_account::batch_transfer&#45;&gt;aptos_account::transfer</title>
<path fill="none" stroke="black" d="M1173,-229.82C1173,-219.69 1173,-206.6 1173,-194.92"/>
<polygon fill="black" stroke="black" points="1176.5,-194.95 1173,-184.95 1169.5,-194.95 1176.5,-194.95"/>
</g>
<!-- aptos_account::batch_transfer_coins -->
<g id="node16" class="node">
<title>aptos_account::batch_transfer_coins</title>
<ellipse fill="none" stroke="black" cx="1289" cy="-323" rx="83.69" ry="18"/>
<text text-anchor="middle" x="1289" y="-319.3" font-family="Times,serif" font-size="14.00">batch_transfer_coins</text>
</g>
<!-- aptos_account::batch_transfer_coins&#45;&gt;aptos_account::transfer_coins -->
<g id="edge16" class="edge">
<title>aptos_account::batch_transfer_coins&#45;&gt;aptos_account::transfer_coins</title>
<path fill="none" stroke="black" d="M1294.69,-304.7C1297.41,-296.43 1300.73,-286.31 1303.8,-276.99"/>
<polygon fill="black" stroke="black" points="1307.08,-278.21 1306.88,-267.61 1300.43,-276.02 1307.08,-278.21"/>
</g>
<!-- genesis::create_employee_validators -->
<g id="node17" class="node">
<title>genesis::create_employee_validators</title>
<ellipse fill="none" stroke="black" cx="631" cy="-248" rx="109.68" ry="18"/>
<text text-anchor="middle" x="631" y="-244.3" font-family="Times,serif" font-size="14.00">create_employee_validators</text>
</g>
<!-- genesis::create_employee_validators&#45;&gt;vesting::create_vesting_contract -->
<g id="edge17" class="edge">
<title>genesis::create_employee_validators&#45;&gt;vesting::create_vesting_contract</title>
<path fill="none" stroke="black" d="M706.33,-234.6C734.14,-229.28 765.76,-222.35 794,-214 819.42,-206.49 846.95,-195.88 869.42,-186.55"/>
<polygon fill="black" stroke="black" points="870.76,-189.78 878.62,-182.67 868.05,-183.33 870.76,-189.78"/>
</g>
<!-- genesis::initialize_for_verification -->
<g id="node18" class="node">
<title>genesis::initialize_for_verification</title>
<ellipse fill="none" stroke="black" cx="347" cy="-323" rx="100.98" ry="18"/>
<text text-anchor="middle" x="347" y="-319.3" font-family="Times,serif" font-size="14.00">initialize_for_verification</text>
</g>
<!-- genesis::initialize_for_verification&#45;&gt;genesis::create_accounts -->
<g id="edge18" class="edge">
<title>genesis::initialize_for_verification&#45;&gt;genesis::create_accounts</title>
<path fill="none" stroke="black" d="M421.82,-310.61C435.65,-307.05 447.26,-302.56 452,-297 476.08,-268.79 473.61,-223.57 468.59,-194.33"/>
<polygon fill="black" stroke="black" points="472.07,-193.87 466.73,-184.72 465.2,-195.2 472.07,-193.87"/>
</g>
<!-- genesis::initialize_for_verification&#45;&gt;genesis::create_employee_validators -->
<g id="edge20" class="edge">
<title>genesis::initialize_for_verification&#45;&gt;genesis::create_employee_validators</title>
<path fill="none" stroke="black" d="M413.55,-309.12C431,-305.47 449.76,-301.31 467,-297 501.76,-288.31 540.22,-277.14 571.15,-267.76"/>
<polygon fill="black" stroke="black" points="571.77,-271.23 580.31,-264.96 569.73,-264.53 571.77,-271.23"/>
</g>
<!-- genesis::create_initialize_validators_with_commission -->
<g id="node19" class="node">
<title>genesis::create_initialize_validators_with_commission</title>
<ellipse fill="none" stroke="black" cx="269" cy="-248" rx="173.57" ry="18"/>
<text text-anchor="middle" x="269" y="-244.3" font-family="Times,serif" font-size="14.00">create_initialize_validators_with_commission</text>
</g>
<!-- genesis::initialize_for_verification&#45;&gt;genesis::create_initialize_validators_with_commission -->
<g id="edge21" class="edge">
<title>genesis::initialize_for_verification&#45;&gt;genesis::create_initialize_validators_with_commission</title>
<path fill="none" stroke="black" d="M328.91,-305.07C319.11,-295.9 306.81,-284.38 295.9,-274.18"/>
<polygon fill="black" stroke="black" points="298.33,-271.66 288.64,-267.38 293.55,-276.77 298.33,-271.66"/>
</g>
<!-- genesis::create_initialize_validators_with_commission&#45;&gt;genesis::create_initialize_validator -->
<g id="edge19" class="edge">
<title>genesis::create_initialize_validators_with_commission&#45;&gt;genesis::create_initialize_validator</title>
<path fill="none" stroke="black" d="M269.42,-229.82C269.67,-219.69 270,-206.6 270.29,-194.92"/>
<polygon fill="black" stroke="black" points="273.78,-195.03 270.53,-184.95 266.79,-194.86 273.78,-195.03"/>
</g>
<!-- genesis::create_initialize_validators -->
<g id="node20" class="node">
<title>genesis::create_initialize_validators</title>
<ellipse fill="none" stroke="black" cx="122" cy="-323" rx="105.88" ry="18"/>
<text text-anchor="middle" x="122" y="-319.3" font-family="Times,serif" font-size="14.00">create_initialize_validators</text>
</g>
<!-- genesis::create_initialize_validators&#45;&gt;genesis::create_initialize_validators_with_commission -->
<g id="edge22" class="edge">
<title>genesis::create_initialize_validators&#45;&gt;genesis::create_initialize_validators_with_commission</title>
<path fill="none" stroke="black" d="M155.36,-305.44C175.83,-295.27 202.3,-282.12 224.55,-271.08"/>
<polygon fill="black" stroke="black" points="226,-274.26 233.4,-266.68 222.89,-267.99 226,-274.26"/>
</g>
</g>
</svg>
