<?xml version="1.0" encoding="UTF-8" standalone="no"?>
<!DOCTYPE svg PUBLIC "-//W3C//DTD SVG 1.1//EN"
 "http://www.w3.org/Graphics/SVG/1.1/DTD/svg11.dtd">
<!-- Generated by graphviz version 7.0.4 (20221203.1631)
 -->
<!-- Title: G Pages: 1 -->
<svg width="310pt" height="207pt"
 viewBox="0.00 0.00 310.09 207.00" xmlns="http://www.w3.org/2000/svg" xmlns:xlink="http://www.w3.org/1999/xlink">
<g id="graph0" class="graph" transform="scale(1 1) rotate(0) translate(4 203)">
<title>G</title>
<polygon fill="white" stroke="none" points="-4,4 -4,-203 306.09,-203 306.09,4 -4,4"/>
<g id="clust1" class="cluster">
<title>cluster_error</title>
<polygon fill="none" stroke="black" points="8,-8 8,-155 118,-155 118,-8 8,-8"/>
<text text-anchor="middle" x="63" y="-139.8" font-family="Times,serif" font-size="14.00">error</text>
</g>
<!-- balance -->
<g id="node1" class="node">
<title>balance</title>
<ellipse fill="none" stroke="black" cx="139" cy="-181" rx="37.89" ry="18"/>
<text text-anchor="middle" x="139" y="-177.3" font-family="Times,serif" font-size="14.00">balance</text>
</g>
<!-- error::not_found -->
<g id="node2" class="node">
<title>error::not_found</title>
<ellipse fill="none" stroke="black" cx="63" cy="-106" rx="46.59" ry="18"/>
<text text-anchor="middle" x="63" y="-102.3" font-family="Times,serif" font-size="14.00">not_found</text>
</g>
<!-- balance&#45;&gt;error::not_found -->
<g id="edge1" class="edge">
<title>balance&#45;&gt;error::not_found</title>
<path fill="none" stroke="black" d="M122.88,-164.52C112.71,-154.75 99.38,-141.94 87.87,-130.89"/>
<polygon fill="black" stroke="black" points="90.61,-128.67 80.98,-124.27 85.76,-133.72 90.61,-128.67"/>
</g>
<!-- is_account_registered -->
<g id="node3" class="node">
<title>is_account_registered</title>
<ellipse fill="none" stroke="black" cx="215" cy="-106" rx="87.18" ry="18"/>
<text text-anchor="middle" x="215" y="-102.3" font-family="Times,serif" font-size="14.00">is_account_registered</text>
</g>
<!-- balance&#45;&gt;is_account_registered -->
<g id="edge2" class="edge">
<title>balance&#45;&gt;is_account_registered</title>
<path fill="none" stroke="black" d="M155.12,-164.52C164.98,-155.05 177.82,-142.71 189.08,-131.89"/>
<polygon fill="black" stroke="black" points="191.43,-134.49 196.22,-125.04 186.59,-129.44 191.43,-134.49"/>
</g>
<!-- error::canonical -->
<g id="node4" class="node">
<title>error::canonical</title>
<ellipse fill="none" stroke="black" cx="63" cy="-34" rx="44.39" ry="18"/>
<text text-anchor="middle" x="63" y="-30.3" font-family="Times,serif" font-size="14.00">canonical</text>
</g>
<!-- error::not_found&#45;&gt;error::canonical -->
<g id="edge3" class="edge">
<title>error::not_found&#45;&gt;error::canonical</title>
<path fill="none" stroke="black" d="M63,-87.7C63,-80.41 63,-71.73 63,-63.54"/>
<polygon fill="black" stroke="black" points="66.5,-63.62 63,-53.62 59.5,-63.62 66.5,-63.62"/>
</g>
</g>
</svg>
