<?xml version="1.0" encoding="UTF-8" standalone="no"?>
<!DOCTYPE svg PUBLIC "-//W3C//DTD SVG 1.1//EN"
 "http://www.w3.org/Graphics/SVG/1.1/DTD/svg11.dtd">
<!-- Generated by graphviz version 7.0.4 (20221203.1631)
 -->
<!-- Title: G Pages: 1 -->
<svg width="306pt" height="207pt"
 viewBox="0.00 0.00 306.00 207.00" xmlns="http://www.w3.org/2000/svg" xmlns:xlink="http://www.w3.org/1999/xlink">
<g id="graph0" class="graph" transform="scale(1 1) rotate(0) translate(4 203)">
<title>G</title>
<polygon fill="white" stroke="none" points="-4,4 -4,-203 302,-203 302,4 -4,4"/>
<g id="clust1" class="cluster">
<title>cluster_error</title>
<polygon fill="none" stroke="black" points="8,-8 8,-155 140,-155 140,-8 8,-8"/>
<text text-anchor="middle" x="74" y="-139.8" font-family="Times,serif" font-size="14.00">error</text>
</g>
<g id="clust2" class="cluster">
<title>cluster_aggregator</title>
<polygon fill="none" stroke="black" points="148,-80 148,-155 290,-155 290,-80 148,-80"/>
<text text-anchor="middle" x="219" y="-139.8" font-family="Times,serif" font-size="14.00">aggregator</text>
</g>
<!-- drain_aggregatable_coin -->
<g id="node1" class="node">
<title>drain_aggregatable_coin</title>
<ellipse fill="none" stroke="black" cx="183" cy="-181" rx="97.48" ry="18"/>
<text text-anchor="middle" x="183" y="-177.3" font-family="Times,serif" font-size="14.00">drain_aggregatable_coin</text>
</g>
<!-- error::out_of_range -->
<g id="node2" class="node">
<title>error::out_of_range</title>
<ellipse fill="none" stroke="black" cx="74" cy="-106" rx="57.69" ry="18"/>
<text text-anchor="middle" x="74" y="-102.3" font-family="Times,serif" font-size="14.00">out_of_range</text>
</g>
<!-- drain_aggregatable_coin&#45;&gt;error::out_of_range -->
<g id="edge1" class="edge">
<title>drain_aggregatable_coin&#45;&gt;error::out_of_range</title>
<path fill="none" stroke="black" d="M156.91,-163.44C152.59,-160.64 148.16,-157.76 144,-155 131.62,-146.79 118.14,-137.61 106.35,-129.49"/>
<polygon fill="black" stroke="black" points="108.36,-126.62 98.14,-123.82 104.38,-132.38 108.36,-126.62"/>
</g>
<!-- aggregator::read -->
<g id="node3" class="node">
<title>aggregator::read</title>
<ellipse fill="none" stroke="black" cx="255" cy="-106" rx="27" ry="18"/>
<text text-anchor="middle" x="255" y="-102.3" font-family="Times,serif" font-size="14.00">read</text>
</g>
<!-- drain_aggregatable_coin&#45;&gt;aggregator::read -->
<g id="edge2" class="edge">
<title>drain_aggregatable_coin&#45;&gt;aggregator::read</title>
<path fill="none" stroke="black" d="M209.35,-163.19C212.73,-160.61 216.04,-157.85 219,-155 225.96,-148.29 232.61,-140.14 238.25,-132.47"/>
<polygon fill="black" stroke="black" points="241.04,-134.59 243.94,-124.4 235.32,-130.55 241.04,-134.59"/>
</g>
<!-- aggregator::sub -->
<g id="node4" class="node">
<title>aggregator::sub</title>
<ellipse fill="none" stroke="black" cx="183" cy="-106" rx="27" ry="18"/>
<text text-anchor="middle" x="183" y="-102.3" font-family="Times,serif" font-size="14.00">sub</text>
</g>
<!-- drain_aggregatable_coin&#45;&gt;aggregator::sub -->
<g id="edge3" class="edge">
<title>drain_aggregatable_coin&#45;&gt;aggregator::sub</title>
<path fill="none" stroke="black" d="M183,-162.7C183,-154.67 183,-144.9 183,-135.8"/>
<polygon fill="black" stroke="black" points="186.5,-135.94 183,-125.94 179.5,-135.94 186.5,-135.94"/>
</g>
<!-- error::canonical -->
<g id="node5" class="node">
<title>error::canonical</title>
<ellipse fill="none" stroke="black" cx="74" cy="-34" rx="44.39" ry="18"/>
<text text-anchor="middle" x="74" y="-30.3" font-family="Times,serif" font-size="14.00">canonical</text>
</g>
<!-- error::out_of_range&#45;&gt;error::canonical -->
<g id="edge4" class="edge">
<title>error::out_of_range&#45;&gt;error::canonical</title>
<path fill="none" stroke="black" d="M74,-87.7C74,-80.41 74,-71.73 74,-63.54"/>
<polygon fill="black" stroke="black" points="77.5,-63.62 74,-53.62 70.5,-63.62 77.5,-63.62"/>
</g>
</g>
</svg>
