<?xml version="1.0" encoding="UTF-8" standalone="no"?>
<!DOCTYPE svg PUBLIC "-//W3C//DTD SVG 1.1//EN"
 "http://www.w3.org/Graphics/SVG/1.1/DTD/svg11.dtd">
<!-- Generated by graphviz version 7.0.4 (20221203.1631)
 -->
<!-- Title: G Pages: 1 -->
<svg width="250pt" height="310pt"
 viewBox="0.00 0.00 249.78 310.00" xmlns="http://www.w3.org/2000/svg" xmlns:xlink="http://www.w3.org/1999/xlink">
<g id="graph0" class="graph" transform="scale(1 1) rotate(0) translate(4 306)">
<title>G</title>
<polygon fill="white" stroke="none" points="-4,4 -4,-306 245.78,-306 245.78,4 -4,4"/>
<g id="clust2" class="cluster">
<title>cluster_transaction_validation</title>
<polygon fill="none" stroke="black" points="67.89,-219 67.89,-294 204.89,-294 204.89,-219 67.89,-219"/>
<text text-anchor="middle" x="136.39" y="-278.8" font-family="Times,serif" font-size="14.00">transaction_validation</text>
</g>
<g id="clust1" class="cluster">
<title>cluster_transaction_fee</title>
<polygon fill="none" stroke="black" points="63.89,-136 63.89,-211 177.89,-211 177.89,-136 63.89,-136"/>
<text text-anchor="middle" x="120.89" y="-195.8" font-family="Times,serif" font-size="14.00">transaction_fee</text>
</g>
<!-- merge_aggregatable_coin -->
<g id="node1" class="node">
<title>merge_aggregatable_coin</title>
<ellipse fill="none" stroke="black" cx="120.89" cy="-18" rx="102.08" ry="18"/>
<text text-anchor="middle" x="120.89" y="-14.3" font-family="Times,serif" font-size="14.00">merge_aggregatable_coin</text>
</g>
<!-- collect_into_aggregatable_coin -->
<g id="node2" class="node">
<title>collect_into_aggregatable_coin</title>
<ellipse fill="none" stroke="black" cx="120.89" cy="-90" rx="120.78" ry="18"/>
<text text-anchor="middle" x="120.89" y="-86.3" font-family="Times,serif" font-size="14.00">collect_into_aggregatable_coin</text>
</g>
<!-- collect_into_aggregatable_coin&#45;&gt;merge_aggregatable_coin -->
<g id="edge1" class="edge">
<title>collect_into_aggregatable_coin&#45;&gt;merge_aggregatable_coin</title>
<path fill="none" stroke="black" d="M120.89,-71.7C120.89,-64.41 120.89,-55.73 120.89,-47.54"/>
<polygon fill="black" stroke="black" points="124.39,-47.62 120.89,-37.62 117.39,-47.62 124.39,-47.62"/>
</g>
<!-- transaction_fee::collect_fee -->
<g id="node3" class="node">
<title>transaction_fee::collect_fee</title>
<ellipse fill="none" stroke="black" cx="120.89" cy="-162" rx="49.29" ry="18"/>
<text text-anchor="middle" x="120.89" y="-158.3" font-family="Times,serif" font-size="14.00">collect_fee</text>
</g>
<!-- transaction_fee::collect_fee&#45;&gt;collect_into_aggregatable_coin -->
<g id="edge2" class="edge">
<title>transaction_fee::collect_fee&#45;&gt;collect_into_aggregatable_coin</title>
<path fill="none" stroke="black" d="M120.89,-143.7C120.89,-136.41 120.89,-127.73 120.89,-119.54"/>
<polygon fill="black" stroke="black" points="124.39,-119.62 120.89,-109.62 117.39,-119.62 124.39,-119.62"/>
</g>
<!-- transaction_validation::epilogue -->
<g id="node4" class="node">
<title>transaction_validation::epilogue</title>
<ellipse fill="none" stroke="black" cx="120.89" cy="-245" rx="40.89" ry="18"/>
<text text-anchor="middle" x="120.89" y="-241.3" font-family="Times,serif" font-size="14.00">epilogue</text>
</g>
<!-- transaction_validation::epilogue&#45;&gt;transaction_fee::collect_fee -->
<g id="edge3" class="edge">
<title>transaction_validation::epilogue&#45;&gt;transaction_fee::collect_fee</title>
<path fill="none" stroke="black" d="M120.89,-226.82C120.89,-216.69 120.89,-203.6 120.89,-191.92"/>
<polygon fill="black" stroke="black" points="124.39,-191.95 120.89,-181.95 117.39,-191.95 124.39,-191.95"/>
</g>
</g>
</svg>
