<?xml version="1.0" encoding="UTF-8" standalone="no"?>
<!DOCTYPE svg PUBLIC "-//W3C//DTD SVG 1.1//EN"
 "http://www.w3.org/Graphics/SVG/1.1/DTD/svg11.dtd">
<!-- Generated by graphviz version 7.0.4 (20221203.1631)
 -->
<!-- Title: G Pages: 1 -->
<svg width="1366pt" height="548pt"
 viewBox="0.00 0.00 1366.00 548.00" xmlns="http://www.w3.org/2000/svg" xmlns:xlink="http://www.w3.org/1999/xlink">
<g id="graph0" class="graph" transform="scale(1 1) rotate(0) translate(4 544)">
<title>G</title>
<polygon fill="white" stroke="none" points="-4,4 -4,-544 1362,-544 1362,4 -4,4"/>
<!-- coin -->
<g id="node1" class="node">
<title>coin</title>
<ellipse fill="none" stroke="black" cx="802" cy="-522" rx="27" ry="18"/>
<text text-anchor="middle" x="802" y="-518.3" font-family="Times,serif" font-size="14.00">coin</text>
</g>
<!-- option -->
<g id="node2" class="node">
<title>option</title>
<ellipse fill="none" stroke="black" cx="202" cy="-90" rx="33.29" ry="18"/>
<text text-anchor="middle" x="202" y="-86.3" font-family="Times,serif" font-size="14.00">option</text>
</g>
<!-- coin&#45;&gt;option -->
<g id="edge1" class="edge">
<title>coin&#45;&gt;option</title>
<path fill="none" stroke="black" d="M774.63,-520.5C647.68,-517.96 119.71,-505.26 57,-468 16.62,-444.01 0,-425.97 0,-379 0,-379 0,-379 0,-233 0,-155.27 101.33,-116.42 160.45,-100.36"/>
<polygon fill="black" stroke="black" points="161.06,-103.82 169.86,-97.92 159.3,-97.04 161.06,-103.82"/>
</g>
<!-- string -->
<g id="node3" class="node">
<title>string</title>
<ellipse fill="none" stroke="black" cx="123" cy="-162" rx="30.59" ry="18"/>
<text text-anchor="middle" x="123" y="-158.3" font-family="Times,serif" font-size="14.00">string</text>
</g>
<!-- coin&#45;&gt;string -->
<g id="edge2" class="edge">
<title>coin&#45;&gt;string</title>
<path fill="none" stroke="black" d="M774.56,-521.19C664.02,-521.62 251.72,-519.64 134,-468 80.72,-444.63 38,-437.18 38,-379 38,-379 38,-379 38,-305 38,-264.55 35.78,-250.43 57,-216 65.6,-202.04 79.24,-190.18 91.89,-181.25"/>
<polygon fill="black" stroke="black" points="93.63,-184.29 100.02,-175.83 89.75,-178.47 93.63,-184.29"/>
</g>
<!-- signer -->
<g id="node4" class="node">
<title>signer</title>
<ellipse fill="none" stroke="black" cx="467" cy="-90" rx="32.49" ry="18"/>
<text text-anchor="middle" x="467" y="-86.3" font-family="Times,serif" font-size="14.00">signer</text>
</g>
<!-- coin&#45;&gt;signer -->
<g id="edge3" class="edge">
<title>coin&#45;&gt;signer</title>
<path fill="none" stroke="black" d="M774.82,-521.87C717.77,-522.58 582.73,-518.32 485,-468 404.81,-426.71 377.38,-406.97 342,-324 310.27,-249.59 315.12,-204.34 369,-144 385.16,-125.9 409.02,-112.81 429.15,-104.17"/>
<polygon fill="black" stroke="black" points="430.22,-107.51 438.17,-100.51 427.59,-101.03 430.22,-107.51"/>
</g>
<!-- error -->
<g id="node5" class="node">
<title>error</title>
<ellipse fill="none" stroke="black" cx="917" cy="-90" rx="27.9" ry="18"/>
<text text-anchor="middle" x="917" y="-86.3" font-family="Times,serif" font-size="14.00">error</text>
</g>
<!-- coin&#45;&gt;error -->
<g id="edge4" class="edge">
<title>coin&#45;&gt;error</title>
<path fill="none" stroke="black" d="M828.97,-519.53C912.01,-514.72 1162.75,-498.02 1238,-468 1299.68,-443.4 1358,-445.4 1358,-379 1358,-379 1358,-379 1358,-233 1358,-148.88 1063.62,-107.43 955.89,-95.07"/>
<polygon fill="black" stroke="black" points="956.42,-91.61 946.09,-93.98 955.64,-98.57 956.42,-91.61"/>
</g>
<!-- type_info -->
<g id="node6" class="node">
<title>type_info</title>
<ellipse fill="none" stroke="black" cx="406" cy="-234" rx="44.39" ry="18"/>
<text text-anchor="middle" x="406" y="-230.3" font-family="Times,serif" font-size="14.00">type_info</text>
</g>
<!-- coin&#45;&gt;type_info -->
<g id="edge5" class="edge">
<title>coin&#45;&gt;type_info</title>
<path fill="none" stroke="black" d="M774.94,-519.15C708.97,-513.23 538.06,-489.23 440,-396 404.01,-361.78 401.22,-299.79 403.14,-263.53"/>
<polygon fill="black" stroke="black" points="406.61,-264.02 403.82,-253.8 399.63,-263.53 406.61,-264.02"/>
</g>
<!-- system_addresses -->
<g id="node7" class="node">
<title>system_addresses</title>
<ellipse fill="none" stroke="black" cx="917" cy="-306" rx="73.39" ry="18"/>
<text text-anchor="middle" x="917" y="-302.3" font-family="Times,serif" font-size="14.00">system_addresses</text>
</g>
<!-- coin&#45;&gt;system_addresses -->
<g id="edge6" class="edge">
<title>coin&#45;&gt;system_addresses</title>
<path fill="none" stroke="black" d="M811.49,-504.98C825.4,-481.36 851.94,-435.68 873,-396 883.84,-375.57 895.4,-352.11 903.95,-334.41"/>
<polygon fill="black" stroke="black" points="907.02,-336.1 908.2,-325.57 900.71,-333.07 907.02,-336.1"/>
</g>
<!-- event -->
<g id="node8" class="node">
<title>event</title>
<ellipse fill="none" stroke="black" cx="802" cy="-378" rx="29.8" ry="18"/>
<text text-anchor="middle" x="802" y="-374.3" font-family="Times,serif" font-size="14.00">event</text>
</g>
<!-- coin&#45;&gt;event -->
<g id="edge7" class="edge">
<title>coin&#45;&gt;event</title>
<path fill="none" stroke="black" d="M802,-503.59C802,-479.61 802,-436.14 802,-407.42"/>
<polygon fill="black" stroke="black" points="805.5,-407.62 802,-397.62 798.5,-407.62 805.5,-407.62"/>
</g>
<!-- account -->
<g id="node9" class="node">
<title>account</title>
<ellipse fill="none" stroke="black" cx="706" cy="-450" rx="38.19" ry="18"/>
<text text-anchor="middle" x="706" y="-446.3" font-family="Times,serif" font-size="14.00">account</text>
</g>
<!-- coin&#45;&gt;account -->
<g id="edge8" class="edge">
<title>coin&#45;&gt;account</title>
<path fill="none" stroke="black" d="M784.39,-508.16C770.64,-498.13 751.22,-483.98 735.16,-472.26"/>
<polygon fill="black" stroke="black" points="737.52,-469.65 727.38,-466.59 733.39,-475.31 737.52,-469.65"/>
</g>
<!-- aggregator -->
<g id="node10" class="node">
<title>aggregator</title>
<ellipse fill="none" stroke="black" cx="1282" cy="-306" rx="48.19" ry="18"/>
<text text-anchor="middle" x="1282" y="-302.3" font-family="Times,serif" font-size="14.00">aggregator</text>
</g>
<!-- coin&#45;&gt;aggregator -->
<g id="edge9" class="edge">
<title>coin&#45;&gt;aggregator</title>
<path fill="none" stroke="black" d="M829.14,-520.13C909.1,-517.17 1142.24,-505.45 1207,-468 1254.31,-440.64 1272.06,-373.99 1278.51,-335.57"/>
<polygon fill="black" stroke="black" points="1281.93,-336.31 1279.97,-325.9 1275.01,-335.26 1281.93,-336.31"/>
</g>
<!-- aggregator_factory -->
<g id="node11" class="node">
<title>aggregator_factory</title>
<ellipse fill="none" stroke="black" cx="1117" cy="-378" rx="77.19" ry="18"/>
<text text-anchor="middle" x="1117" y="-374.3" font-family="Times,serif" font-size="14.00">aggregator_factory</text>
</g>
<!-- coin&#45;&gt;aggregator_factory -->
<g id="edge10" class="edge">
<title>coin&#45;&gt;aggregator_factory</title>
<path fill="none" stroke="black" d="M823.65,-511.24C874.71,-488.22 1003.51,-430.16 1072.21,-399.19"/>
<polygon fill="black" stroke="black" points="1073.64,-402.38 1081.32,-395.08 1070.77,-396 1073.64,-402.38"/>
</g>
<!-- optional_aggregator -->
<g id="node12" class="node">
<title>optional_aggregator</title>
<ellipse fill="none" stroke="black" cx="1117" cy="-450" rx="81.49" ry="18"/>
<text text-anchor="middle" x="1117" y="-446.3" font-family="Times,serif" font-size="14.00">optional_aggregator</text>
</g>
<!-- coin&#45;&gt;optional_aggregator -->
<g id="edge11" class="edge">
<title>coin&#45;&gt;optional_aggregator</title>
<path fill="none" stroke="black" d="M827.51,-515.33C875.55,-504.66 980.82,-481.26 1050.29,-465.82"/>
<polygon fill="black" stroke="black" points="1050.64,-469.33 1059.65,-463.75 1049.12,-462.5 1050.64,-469.33"/>
</g>
<!-- vector -->
<g id="node13" class="node">
<title>vector</title>
<ellipse fill="none" stroke="black" cx="202" cy="-18" rx="32.49" ry="18"/>
<text text-anchor="middle" x="202" y="-14.3" font-family="Times,serif" font-size="14.00">vector</text>
</g>
<!-- option&#45;&gt;vector -->
<g id="edge12" class="edge">
<title>option&#45;&gt;vector</title>
<path fill="none" stroke="black" d="M202,-71.7C202,-64.41 202,-55.73 202,-47.54"/>
<polygon fill="black" stroke="black" points="205.5,-47.62 202,-37.62 198.5,-47.62 205.5,-47.62"/>
</g>
<!-- string&#45;&gt;option -->
<g id="edge14" class="edge">
<title>string&#45;&gt;option</title>
<path fill="none" stroke="black" d="M139.37,-146.5C150.13,-136.96 164.44,-124.28 176.66,-113.46"/>
<polygon fill="black" stroke="black" points="178.81,-116.22 183.97,-106.97 174.17,-110.98 178.81,-116.22"/>
</g>
<!-- string&#45;&gt;vector -->
<g id="edge13" class="edge">
<title>string&#45;&gt;vector</title>
<path fill="none" stroke="black" d="M128.51,-143.94C134.81,-125.52 146.08,-95.65 160,-72 165.86,-62.04 173.42,-51.91 180.51,-43.21"/>
<polygon fill="black" stroke="black" points="183.18,-45.47 186.94,-35.56 177.83,-40.96 183.18,-45.47"/>
</g>
<!-- type_info&#45;&gt;string -->
<g id="edge15" class="edge">
<title>type_info&#45;&gt;string</title>
<path fill="none" stroke="black" d="M368.71,-223.78C315.04,-210.5 216.5,-186.13 161.93,-172.63"/>
<polygon fill="black" stroke="black" points="163,-169.29 152.46,-170.29 161.32,-176.08 163,-169.29"/>
</g>
<!-- type_info&#45;&gt;error -->
<g id="edge16" class="edge">
<title>type_info&#45;&gt;error</title>
<path fill="none" stroke="black" d="M421.49,-217.04C442.58,-196.4 482.47,-161.08 524,-144 587.63,-117.84 791.42,-100.22 877.76,-93.75"/>
<polygon fill="black" stroke="black" points="877.91,-97.25 887.62,-93.03 877.39,-90.27 877.91,-97.25"/>
</g>
<!-- features -->
<g id="node14" class="node">
<title>features</title>
<ellipse fill="none" stroke="black" cx="571" cy="-162" rx="38.19" ry="18"/>
<text text-anchor="middle" x="571" y="-158.3" font-family="Times,serif" font-size="14.00">features</text>
</g>
<!-- type_info&#45;&gt;features -->
<g id="edge17" class="edge">
<title>type_info&#45;&gt;features</title>
<path fill="none" stroke="black" d="M435.88,-220.32C463.09,-208.78 503.41,-191.67 532.92,-179.15"/>
<polygon fill="black" stroke="black" points="534.03,-182.49 541.87,-175.36 531.3,-176.04 534.03,-182.49"/>
</g>
<!-- bcs -->
<g id="node15" class="node">
<title>bcs</title>
<ellipse fill="none" stroke="black" cx="702" cy="-162" rx="27" ry="18"/>
<text text-anchor="middle" x="702" y="-158.3" font-family="Times,serif" font-size="14.00">bcs</text>
</g>
<!-- type_info&#45;&gt;bcs -->
<g id="edge18" class="edge">
<title>type_info&#45;&gt;bcs</title>
<path fill="none" stroke="black" d="M439.5,-221.72C445.94,-219.7 452.65,-217.71 459,-216 497.52,-205.65 607.03,-182.63 664.98,-170.62"/>
<polygon fill="black" stroke="black" points="665.62,-174.06 674.7,-168.61 664.2,-167.21 665.62,-174.06"/>
</g>
<!-- system_addresses&#45;&gt;signer -->
<g id="edge19" class="edge">
<title>system_addresses&#45;&gt;signer</title>
<path fill="none" stroke="black" d="M903.57,-287.87C876.28,-254.38 810.74,-180.3 738,-144 663.91,-107.03 566.44,-95.82 510.86,-92.44"/>
<polygon fill="black" stroke="black" points="511.35,-88.96 501.17,-91.91 510.97,-95.95 511.35,-88.96"/>
</g>
<!-- system_addresses&#45;&gt;error -->
<g id="edge20" class="edge">
<title>system_addresses&#45;&gt;error</title>
<path fill="none" stroke="black" d="M917,-287.85C917,-251.14 917,-164.66 917,-119.53"/>
<polygon fill="black" stroke="black" points="920.5,-119.75 917,-109.75 913.5,-119.75 920.5,-119.75"/>
</g>
<!-- event&#45;&gt;bcs -->
<g id="edge21" class="edge">
<title>event&#45;&gt;bcs</title>
<path fill="none" stroke="black" d="M803.43,-359.85C804.4,-341.61 804.39,-312.12 797,-288 784.13,-245.99 749.8,-207.32 726.14,-184.44"/>
<polygon fill="black" stroke="black" points="728.75,-182.09 719.07,-177.79 723.95,-187.19 728.75,-182.09"/>
</g>
<!-- guid -->
<g id="node16" class="node">
<title>guid</title>
<ellipse fill="none" stroke="black" cx="761" cy="-306" rx="27" ry="18"/>
<text text-anchor="middle" x="761" y="-302.3" font-family="Times,serif" font-size="14.00">guid</text>
</g>
<!-- event&#45;&gt;guid -->
<g id="edge22" class="edge">
<title>event&#45;&gt;guid</title>
<path fill="none" stroke="black" d="M792.49,-360.76C787.63,-352.46 781.59,-342.15 776.11,-332.79"/>
<polygon fill="black" stroke="black" points="779.3,-331.31 771.22,-324.45 773.26,-334.85 779.3,-331.31"/>
</g>
<!-- account&#45;&gt;option -->
<g id="edge24" class="edge">
<title>account&#45;&gt;option</title>
<path fill="none" stroke="black" d="M667.89,-447.76C557.1,-443.77 240.97,-429.51 210,-396 138.71,-318.87 173.05,-178.25 192.17,-118.76"/>
<polygon fill="black" stroke="black" points="195.44,-120.02 195.27,-109.42 188.79,-117.81 195.44,-120.02"/>
</g>
<!-- account&#45;&gt;signer -->
<g id="edge25" class="edge">
<title>account&#45;&gt;signer</title>
<path fill="none" stroke="black" d="M668.62,-445.29C604.39,-438.31 476.47,-421.6 440,-396 367.27,-344.95 320.89,-298.85 353,-216 370.07,-171.96 410.68,-133.92 438.52,-111.72"/>
<polygon fill="black" stroke="black" points="440.47,-114.64 446.22,-105.75 436.18,-109.11 440.47,-114.64"/>
</g>
<!-- account&#45;&gt;error -->
<g id="edge26" class="edge">
<title>account&#45;&gt;error</title>
<path fill="none" stroke="black" d="M738.74,-440.32C809.24,-420.85 971.35,-371.65 999,-324 1040.11,-253.16 974.24,-158.34 938.13,-114.74"/>
<polygon fill="black" stroke="black" points="940.84,-112.52 931.7,-107.16 935.5,-117.05 940.84,-112.52"/>
</g>
<!-- account&#45;&gt;type_info -->
<g id="edge28" class="edge">
<title>account&#45;&gt;type_info</title>
<path fill="none" stroke="black" d="M669.29,-444.66C611.84,-437.21 504.21,-420.39 475,-396 434.42,-362.12 417.13,-300 410.22,-263.63"/>
<polygon fill="black" stroke="black" points="413.68,-263.1 408.51,-253.85 406.78,-264.3 413.68,-263.1"/>
</g>
<!-- account&#45;&gt;system_addresses -->
<g id="edge30" class="edge">
<title>account&#45;&gt;system_addresses</title>
<path fill="none" stroke="black" d="M739.31,-440.86C768.08,-432.73 809.83,-418.21 841,-396 864.92,-378.95 886.07,-352.78 899.94,-333.22"/>
<polygon fill="black" stroke="black" points="902.67,-335.41 905.46,-325.19 896.91,-331.44 902.67,-335.41"/>
</g>
<!-- account&#45;&gt;event -->
<g id="edge36" class="edge">
<title>account&#45;&gt;event</title>
<path fill="none" stroke="black" d="M725.89,-434.5C739.9,-424.28 758.84,-410.47 774.32,-399.18"/>
<polygon fill="black" stroke="black" points="776.2,-402.15 782.21,-393.43 772.07,-396.49 776.2,-402.15"/>
</g>
<!-- account&#45;&gt;vector -->
<g id="edge23" class="edge">
<title>account&#45;&gt;vector</title>
<path fill="none" stroke="black" d="M743.2,-445.22C788.89,-439.47 867.85,-425.85 929,-396 952.02,-384.77 1007.9,-347.08 1019,-324 1069.11,-219.75 1048.9,-138.13 954,-72 895.85,-31.48 397.73,-21.59 245.81,-19.5"/>
<polygon fill="black" stroke="black" points="246.21,-16.01 236.17,-19.37 246.12,-23 246.21,-16.01"/>
</g>
<!-- account&#45;&gt;bcs -->
<g id="edge27" class="edge">
<title>account&#45;&gt;bcs</title>
<path fill="none" stroke="black" d="M705.76,-431.54C705.09,-383.76 703.22,-250.51 702.4,-191.61"/>
<polygon fill="black" stroke="black" points="705.9,-191.69 702.26,-181.74 698.9,-191.79 705.9,-191.69"/>
</g>
<!-- account&#45;&gt;guid -->
<g id="edge34" class="edge">
<title>account&#45;&gt;guid</title>
<path fill="none" stroke="black" d="M712.63,-431.87C722.02,-407.65 739.26,-363.12 750.42,-334.31"/>
<polygon fill="black" stroke="black" points="753.62,-335.75 753.97,-325.16 747.09,-333.22 753.62,-335.75"/>
</g>
<!-- table -->
<g id="node17" class="node">
<title>table</title>
<ellipse fill="none" stroke="black" cx="1112" cy="-306" rx="27.9" ry="18"/>
<text text-anchor="middle" x="1112" y="-302.3" font-family="Times,serif" font-size="14.00">table</text>
</g>
<!-- account&#45;&gt;table -->
<g id="edge29" class="edge">
<title>account&#45;&gt;table</title>
<path fill="none" stroke="black" d="M744.37,-447.89C800.45,-444.95 906.93,-434.31 988,-396 1010.54,-385.35 1010.98,-374.85 1031,-360 1047.61,-347.68 1066.96,-334.96 1082.59,-325.07"/>
<polygon fill="black" stroke="black" points="1084.36,-328.09 1090.97,-319.81 1080.64,-322.16 1084.36,-328.09"/>
</g>
<!-- hash -->
<g id="node18" class="node">
<title>hash</title>
<ellipse fill="none" stroke="black" cx="495" cy="-234" rx="27" ry="18"/>
<text text-anchor="middle" x="495" y="-230.3" font-family="Times,serif" font-size="14.00">hash</text>
</g>
<!-- account&#45;&gt;hash -->
<g id="edge31" class="edge">
<title>account&#45;&gt;hash</title>
<path fill="none" stroke="black" d="M668.99,-445.17C629.33,-439.61 565.91,-426.41 520,-396 485.74,-373.3 475.67,-362.75 462,-324 456.68,-308.91 457.6,-303.38 462,-288 464.87,-277.96 470.25,-267.98 475.85,-259.42"/>
<polygon fill="black" stroke="black" points="478.63,-261.56 481.51,-251.36 472.9,-257.53 478.63,-261.56"/>
</g>
<!-- ed25519 -->
<g id="node19" class="node">
<title>ed25519</title>
<ellipse fill="none" stroke="black" cx="523" cy="-306" rx="40.89" ry="18"/>
<text text-anchor="middle" x="523" y="-302.3" font-family="Times,serif" font-size="14.00">ed25519</text>
</g>
<!-- account&#45;&gt;ed25519 -->
<g id="edge32" class="edge">
<title>account&#45;&gt;ed25519</title>
<path fill="none" stroke="black" d="M668.04,-447.44C630.23,-443.76 573.3,-432.1 541,-396 526.45,-379.73 522.37,-355.02 521.7,-335.77"/>
<polygon fill="black" stroke="black" points="525.2,-335.82 521.66,-325.84 518.2,-335.85 525.2,-335.82"/>
</g>
<!-- multi_ed25519 -->
<g id="node20" class="node">
<title>multi_ed25519</title>
<ellipse fill="none" stroke="black" cx="614" cy="-378" rx="64.19" ry="18"/>
<text text-anchor="middle" x="614" y="-374.3" font-family="Times,serif" font-size="14.00">multi_ed25519</text>
</g>
<!-- account&#45;&gt;multi_ed25519 -->
<g id="edge33" class="edge">
<title>account&#45;&gt;multi_ed25519</title>
<path fill="none" stroke="black" d="M686.49,-434.15C674.32,-424.89 658.39,-412.78 644.57,-402.26"/>
<polygon fill="black" stroke="black" points="646.69,-399.48 636.61,-396.21 642.45,-405.05 646.69,-399.48"/>
</g>
<!-- from_bcs -->
<g id="node21" class="node">
<title>from_bcs</title>
<ellipse fill="none" stroke="black" cx="110" cy="-234" rx="44.39" ry="18"/>
<text text-anchor="middle" x="110" y="-230.3" font-family="Times,serif" font-size="14.00">from_bcs</text>
</g>
<!-- account&#45;&gt;from_bcs -->
<g id="edge35" class="edge">
<title>account&#45;&gt;from_bcs</title>
<path fill="none" stroke="black" d="M667.99,-447.51C552.52,-442.67 211.32,-425.96 172,-396 130.19,-364.14 116.56,-300.29 112.13,-263.29"/>
<polygon fill="black" stroke="black" points="115.66,-263.39 111.15,-253.8 108.7,-264.11 115.66,-263.39"/>
</g>
<!-- aggregator_factory&#45;&gt;error -->
<g id="edge37" class="edge">
<title>aggregator_factory&#45;&gt;error</title>
<path fill="none" stroke="black" d="M1130.56,-359.97C1137.56,-350.09 1145.37,-337.05 1149,-324 1153.29,-308.59 1154.35,-303.08 1149,-288 1121.41,-210.29 1097.14,-194.57 1032,-144 1008.02,-125.38 976.43,-111.42 952.44,-102.52"/>
<polygon fill="black" stroke="black" points="953.69,-99.25 943.09,-99.18 951.33,-105.84 953.69,-99.25"/>
</g>
<!-- aggregator_factory&#45;&gt;system_addresses -->
<g id="edge39" class="edge">
<title>aggregator_factory&#45;&gt;system_addresses</title>
<path fill="none" stroke="black" d="M1075.56,-362.5C1044.48,-351.62 1001.76,-336.67 968.49,-325.02"/>
<polygon fill="black" stroke="black" points="970.07,-321.87 959.47,-321.87 967.76,-328.47 970.07,-321.87"/>
</g>
<!-- aggregator_factory&#45;&gt;aggregator -->
<g id="edge40" class="edge">
<title>aggregator_factory&#45;&gt;aggregator</title>
<path fill="none" stroke="black" d="M1153.21,-361.64C1179,-350.7 1213.72,-335.97 1240.62,-324.56"/>
<polygon fill="black" stroke="black" points="1241.64,-327.93 1249.48,-320.8 1238.9,-321.48 1241.64,-327.93"/>
</g>
<!-- aggregator_factory&#45;&gt;table -->
<g id="edge38" class="edge">
<title>aggregator_factory&#45;&gt;table</title>
<path fill="none" stroke="black" d="M1115.76,-359.7C1115.24,-352.41 1114.62,-343.73 1114.04,-335.54"/>
<polygon fill="black" stroke="black" points="1117.53,-335.34 1113.33,-325.61 1110.55,-335.84 1117.53,-335.34"/>
</g>
<!-- optional_aggregator&#45;&gt;option -->
<g id="edge41" class="edge">
<title>optional_aggregator&#45;&gt;option</title>
<path fill="none" stroke="black" d="M1037.79,-445.29C902.4,-438.35 632.27,-421.75 541,-396 383.91,-351.69 339.5,-312.36 244,-180 230.34,-161.07 219.3,-136.99 211.97,-118.65"/>
<polygon fill="black" stroke="black" points="215.3,-117.56 208.44,-109.49 208.77,-120.08 215.3,-117.56"/>
</g>
<!-- optional_aggregator&#45;&gt;error -->
<g id="edge42" class="edge">
<title>optional_aggregator&#45;&gt;error</title>
<path fill="none" stroke="black" d="M1158.48,-434.06C1175.45,-425.66 1193.34,-413.3 1203,-396 1234.61,-339.39 1181.42,-281.35 1137,-216 1112.09,-179.34 1105.26,-168 1068,-144 1032.74,-121.29 986.55,-106.94 954.59,-98.98"/>
<polygon fill="black" stroke="black" points="955.52,-95.6 944.98,-96.68 953.89,-102.41 955.52,-95.6"/>
</g>
<!-- optional_aggregator&#45;&gt;aggregator -->
<g id="edge43" class="edge">
<title>optional_aggregator&#45;&gt;aggregator</title>
<path fill="none" stroke="black" d="M1166.54,-435.37C1189.79,-427.01 1216.59,-414.32 1236,-396 1253.77,-379.24 1265.88,-354.08 1273.2,-334.79"/>
<polygon fill="black" stroke="black" points="1276.4,-336.23 1276.46,-325.64 1269.81,-333.89 1276.4,-336.23"/>
</g>
<!-- optional_aggregator&#45;&gt;aggregator_factory -->
<g id="edge44" class="edge">
<title>optional_aggregator&#45;&gt;aggregator_factory</title>
<path fill="none" stroke="black" d="M1117,-431.7C1117,-424.41 1117,-415.73 1117,-407.54"/>
<polygon fill="black" stroke="black" points="1120.5,-407.62 1117,-397.62 1113.5,-407.62 1120.5,-407.62"/>
</g>
<!-- features&#45;&gt;signer -->
<g id="edge45" class="edge">
<title>features&#45;&gt;signer</title>
<path fill="none" stroke="black" d="M549.7,-146.67C534.4,-136.37 513.58,-122.35 496.65,-110.96"/>
<polygon fill="black" stroke="black" points="498.71,-108.13 488.46,-105.45 494.81,-113.93 498.71,-108.13"/>
</g>
<!-- features&#45;&gt;error -->
<g id="edge46" class="edge">
<title>features&#45;&gt;error</title>
<path fill="none" stroke="black" d="M601.04,-150.4C608.18,-148.1 615.82,-145.81 623,-144 713.38,-121.2 821.75,-104.29 878.32,-96.24"/>
<polygon fill="black" stroke="black" points="878.66,-99.73 888.08,-94.87 877.69,-92.79 878.66,-99.73"/>
</g>
<!-- ed25519&#45;&gt;option -->
<g id="edge47" class="edge">
<title>ed25519&#45;&gt;option</title>
<path fill="none" stroke="black" d="M530.56,-287.94C537.82,-268.7 545.71,-237.33 531,-216 466.12,-121.95 320.48,-98.6 246.68,-92.85"/>
<polygon fill="black" stroke="black" points="247.21,-89.38 236.99,-92.17 246.72,-96.36 247.21,-89.38"/>
</g>
<!-- ed25519&#45;&gt;error -->
<g id="edge48" class="edge">
<title>ed25519&#45;&gt;error</title>
<path fill="none" stroke="black" d="M532.75,-288.17C552.99,-254.87 602.97,-180.62 666,-144 733.34,-104.87 825.81,-94.47 877.65,-91.81"/>
<polygon fill="black" stroke="black" points="877.64,-95.31 887.48,-91.38 877.34,-88.32 877.64,-95.31"/>
</g>
<!-- ed25519&#45;&gt;type_info -->
<g id="edge50" class="edge">
<title>ed25519&#45;&gt;type_info</title>
<path fill="none" stroke="black" d="M499.32,-290.83C482.23,-280.61 458.9,-266.65 439.84,-255.25"/>
<polygon fill="black" stroke="black" points="441.72,-252.29 431.34,-250.16 438.13,-258.3 441.72,-252.29"/>
</g>
<!-- ed25519&#45;&gt;bcs -->
<g id="edge49" class="edge">
<title>ed25519&#45;&gt;bcs</title>
<path fill="none" stroke="black" d="M556.41,-295.23C581.38,-286.74 615.31,-272.53 640,-252 660.77,-234.73 677.73,-208.87 688.63,-189.47"/>
<polygon fill="black" stroke="black" points="691.64,-191.25 693.32,-180.78 685.49,-187.92 691.64,-191.25"/>
</g>
<!-- ed25519&#45;&gt;hash -->
<g id="edge51" class="edge">
<title>ed25519&#45;&gt;hash</title>
<path fill="none" stroke="black" d="M516.22,-288.05C513.13,-280.32 509.38,-270.96 505.91,-262.27"/>
<polygon fill="black" stroke="black" points="509.24,-261.18 502.28,-253.19 502.74,-263.78 509.24,-261.18"/>
</g>
<!-- multi_ed25519&#45;&gt;option -->
<g id="edge52" class="edge">
<title>multi_ed25519&#45;&gt;option</title>
<path fill="none" stroke="black" d="M569.59,-364.71C538.63,-355.38 496.81,-341.23 462,-324 409.97,-298.24 397.38,-289.43 353,-252 301.32,-208.42 249.16,-148.45 221.72,-115.37"/>
<polygon fill="black" stroke="black" points="224.68,-113.46 215.62,-107.96 219.28,-117.9 224.68,-113.46"/>
</g>
<!-- multi_ed25519&#45;&gt;error -->
<g id="edge53" class="edge">
<title>multi_ed25519&#45;&gt;error</title>
<path fill="none" stroke="black" d="M631.6,-360.39C683.38,-311.51 835.21,-168.2 893.68,-113.01"/>
<polygon fill="black" stroke="black" points="895.95,-115.68 900.82,-106.27 891.14,-110.59 895.95,-115.68"/>
</g>
<!-- multi_ed25519&#45;&gt;features -->
<g id="edge54" class="edge">
<title>multi_ed25519&#45;&gt;features</title>
<path fill="none" stroke="black" d="M610.55,-359.85C603.16,-323.07 585.73,-236.29 576.68,-191.24"/>
<polygon fill="black" stroke="black" points="580.16,-190.83 574.76,-181.72 573.3,-192.21 580.16,-190.83"/>
</g>
<!-- multi_ed25519&#45;&gt;bcs -->
<g id="edge55" class="edge">
<title>multi_ed25519&#45;&gt;bcs</title>
<path fill="none" stroke="black" d="M621.98,-359.75C632.99,-335.76 653.25,-290.9 669,-252 677.27,-231.58 685.9,-208.21 692.27,-190.54"/>
<polygon fill="black" stroke="black" points="695.51,-191.87 695.58,-181.27 688.92,-189.51 695.51,-191.87"/>
</g>
<!-- multi_ed25519&#45;&gt;hash -->
<g id="edge56" class="edge">
<title>multi_ed25519&#45;&gt;hash</title>
<path fill="none" stroke="black" d="M554.92,-370.52C525.12,-363.93 491.46,-350.66 473,-324 460,-305.23 468.48,-279.55 478.44,-260.6"/>
<polygon fill="black" stroke="black" points="481.34,-262.59 483.25,-252.17 475.26,-259.12 481.34,-262.59"/>
</g>
<!-- multi_ed25519&#45;&gt;ed25519 -->
<g id="edge57" class="edge">
<title>multi_ed25519&#45;&gt;ed25519</title>
<path fill="none" stroke="black" d="M592.89,-360.76C580.61,-351.31 564.95,-339.27 551.57,-328.98"/>
<polygon fill="black" stroke="black" points="554.01,-326.43 543.95,-323.11 549.74,-331.98 554.01,-326.43"/>
</g>
<!-- from_bcs&#45;&gt;string -->
<g id="edge58" class="edge">
<title>from_bcs&#45;&gt;string</title>
<path fill="none" stroke="black" d="M113.21,-215.7C114.58,-208.32 116.22,-199.52 117.75,-191.25"/>
<polygon fill="black" stroke="black" points="121.16,-192.06 119.55,-181.59 114.28,-190.79 121.16,-192.06"/>
</g>
</g>
</svg>
