<?xml version="1.0" encoding="UTF-8" standalone="no"?>
<!DOCTYPE svg PUBLIC "-//W3C//DTD SVG 1.1//EN"
 "http://www.w3.org/Graphics/SVG/1.1/DTD/svg11.dtd">
<!-- Generated by graphviz version 7.0.4 (20221203.1631)
 -->
<!-- Title: G Pages: 1 -->
<svg width="950pt" height="357pt"
 viewBox="0.00 0.00 950.00 357.00" xmlns="http://www.w3.org/2000/svg" xmlns:xlink="http://www.w3.org/1999/xlink">
<g id="graph0" class="graph" transform="scale(1 1) rotate(0) translate(4 353)">
<title>G</title>
<polygon fill="white" stroke="none" points="-4,4 -4,-353 946,-353 946,4 -4,4"/>
<g id="clust1" class="cluster">
<title>cluster_aggregator_factory</title>
<polygon fill="none" stroke="black" points="8,-80 8,-305 234,-305 234,-80 8,-80"/>
<text text-anchor="middle" x="121" y="-289.8" font-family="Times,serif" font-size="14.00">aggregator_factory</text>
</g>
<g id="clust2" class="cluster">
<title>cluster_system_addresses</title>
<polygon fill="none" stroke="black" points="532,-80 532,-230 776,-230 776,-80 532,-80"/>
<text text-anchor="middle" x="654" y="-214.8" font-family="Times,serif" font-size="14.00">system_addresses</text>
</g>
<g id="clust3" class="cluster">
<title>cluster_signer</title>
<polygon fill="none" stroke="black" points="784,-8 784,-155 934,-155 934,-8 784,-8"/>
<text text-anchor="middle" x="859" y="-139.8" font-family="Times,serif" font-size="14.00">signer</text>
</g>
<g id="clust4" class="cluster">
<title>cluster_error</title>
<polygon fill="none" stroke="black" points="242,-8 242,-155 524,-155 524,-8 242,-8"/>
<text text-anchor="middle" x="383" y="-139.8" font-family="Times,serif" font-size="14.00">error</text>
</g>
<!-- initialize_aggregatable_coin -->
<g id="node1" class="node">
<title>initialize_aggregatable_coin</title>
<ellipse fill="none" stroke="black" cx="137" cy="-331" rx="110.48" ry="18"/>
<text text-anchor="middle" x="137" y="-327.3" font-family="Times,serif" font-size="14.00">initialize_aggregatable_coin</text>
</g>
<!-- aggregator_factory::create_aggregator -->
<g id="node2" class="node">
<title>aggregator_factory::create_aggregator</title>
<ellipse fill="none" stroke="black" cx="137" cy="-256" rx="73.39" ry="18"/>
<text text-anchor="middle" x="137" y="-252.3" font-family="Times,serif" font-size="14.00">create_aggregator</text>
</g>
<!-- initialize_aggregatable_coin&#45;&gt;aggregator_factory::create_aggregator -->
<g id="edge1" class="edge">
<title>initialize_aggregatable_coin&#45;&gt;aggregator_factory::create_aggregator</title>
<path fill="none" stroke="black" d="M137,-312.7C137,-304.67 137,-294.9 137,-285.8"/>
<polygon fill="black" stroke="black" points="140.5,-285.94 137,-275.94 133.5,-285.94 140.5,-285.94"/>
</g>
<!-- system_addresses::assert_aptos_framework -->
<g id="node3" class="node">
<title>system_addresses::assert_aptos_framework</title>
<ellipse fill="none" stroke="black" cx="645" cy="-181" rx="96.68" ry="18"/>
<text text-anchor="middle" x="645" y="-177.3" font-family="Times,serif" font-size="14.00">assert_aptos_framework</text>
</g>
<!-- aggregator_factory::create_aggregator&#45;&gt;system_addresses::assert_aptos_framework -->
<g id="edge2" class="edge">
<title>aggregator_factory::create_aggregator&#45;&gt;system_addresses::assert_aptos_framework</title>
<path fill="none" stroke="black" d="M199.04,-246.09C289.22,-233.13 456.88,-209.03 558.95,-194.37"/>
<polygon fill="black" stroke="black" points="559.25,-197.86 568.65,-192.97 558.25,-190.93 559.25,-197.86"/>
</g>
<!-- aggregator_factory::create_aggregator_internal -->
<g id="node4" class="node">
<title>aggregator_factory::create_aggregator_internal</title>
<ellipse fill="none" stroke="black" cx="121" cy="-181" rx="104.78" ry="18"/>
<text text-anchor="middle" x="121" y="-177.3" font-family="Times,serif" font-size="14.00">create_aggregator_internal</text>
</g>
<!-- aggregator_factory::create_aggregator&#45;&gt;aggregator_factory::create_aggregator_internal -->
<g id="edge3" class="edge">
<title>aggregator_factory::create_aggregator&#45;&gt;aggregator_factory::create_aggregator_internal</title>
<path fill="none" stroke="black" d="M133.21,-237.7C131.43,-229.58 129.26,-219.68 127.25,-210.5"/>
<polygon fill="black" stroke="black" points="130.7,-209.93 125.14,-200.91 123.87,-211.42 130.7,-209.93"/>
</g>
<!-- signer::address_of -->
<g id="node5" class="node">
<title>signer::address_of</title>
<ellipse fill="none" stroke="black" cx="850" cy="-106" rx="48.99" ry="18"/>
<text text-anchor="middle" x="850" y="-102.3" font-family="Times,serif" font-size="14.00">address_of</text>
</g>
<!-- system_addresses::assert_aptos_framework&#45;&gt;signer::address_of -->
<g id="edge4" class="edge">
<title>system_addresses::assert_aptos_framework&#45;&gt;signer::address_of</title>
<path fill="none" stroke="black" d="M725.47,-170.78C743.82,-167.14 762.93,-162.06 780,-155 795.08,-148.76 810.22,-138.94 822.54,-129.8"/>
<polygon fill="black" stroke="black" points="824.37,-132.8 830.16,-123.93 820.1,-127.25 824.37,-132.8"/>
</g>
<!-- error::permission_denied -->
<g id="node6" class="node">
<title>error::permission_denied</title>
<ellipse fill="none" stroke="black" cx="439" cy="-106" rx="77.19" ry="18"/>
<text text-anchor="middle" x="439" y="-102.3" font-family="Times,serif" font-size="14.00">permission_denied</text>
</g>
<!-- system_addresses::assert_aptos_framework&#45;&gt;error::permission_denied -->
<g id="edge5" class="edge">
<title>system_addresses::assert_aptos_framework&#45;&gt;error::permission_denied</title>
<path fill="none" stroke="black" d="M574.48,-168.32C558.93,-164.81 542.72,-160.42 528,-155 509.62,-148.24 490.36,-138.25 474.47,-129.14"/>
<polygon fill="black" stroke="black" points="476.26,-126.13 465.87,-124.09 472.72,-132.17 476.26,-126.13"/>
</g>
<!-- system_addresses::is_aptos_framework_address -->
<g id="node7" class="node">
<title>system_addresses::is_aptos_framework_address</title>
<ellipse fill="none" stroke="black" cx="654" cy="-106" rx="113.98" ry="18"/>
<text text-anchor="middle" x="654" y="-102.3" font-family="Times,serif" font-size="14.00">is_aptos_framework_address</text>
</g>
<!-- system_addresses::assert_aptos_framework&#45;&gt;system_addresses::is_aptos_framework_address -->
<g id="edge6" class="edge">
<title>system_addresses::assert_aptos_framework&#45;&gt;system_addresses::is_aptos_framework_address</title>
<path fill="none" stroke="black" d="M647.13,-162.7C648.12,-154.67 649.33,-144.9 650.45,-135.8"/>
<polygon fill="black" stroke="black" points="653.92,-136.28 651.67,-125.93 646.97,-135.43 653.92,-136.28"/>
</g>
<!-- error::not_found -->
<g id="node8" class="node">
<title>error::not_found</title>
<ellipse fill="none" stroke="black" cx="297" cy="-106" rx="46.59" ry="18"/>
<text text-anchor="middle" x="297" y="-102.3" font-family="Times,serif" font-size="14.00">not_found</text>
</g>
<!-- aggregator_factory::create_aggregator_internal&#45;&gt;error::not_found -->
<g id="edge7" class="edge">
<title>aggregator_factory::create_aggregator_internal&#45;&gt;error::not_found</title>
<path fill="none" stroke="black" d="M199.18,-168.68C212.5,-165.25 225.92,-160.79 238,-155 250.71,-148.91 263.08,-139.56 273.18,-130.72"/>
<polygon fill="black" stroke="black" points="275.29,-133.53 280.31,-124.2 270.57,-128.36 275.29,-133.53"/>
</g>
<!-- aggregator_factory::new_aggregator -->
<g id="node9" class="node">
<title>aggregator_factory::new_aggregator</title>
<ellipse fill="none" stroke="black" cx="121" cy="-106" rx="67.69" ry="18"/>
<text text-anchor="middle" x="121" y="-102.3" font-family="Times,serif" font-size="14.00">new_aggregator</text>
</g>
<!-- aggregator_factory::create_aggregator_internal&#45;&gt;aggregator_factory::new_aggregator -->
<g id="edge8" class="edge">
<title>aggregator_factory::create_aggregator_internal&#45;&gt;aggregator_factory::new_aggregator</title>
<path fill="none" stroke="black" d="M121,-162.7C121,-154.67 121,-144.9 121,-135.8"/>
<polygon fill="black" stroke="black" points="124.5,-135.94 121,-125.94 117.5,-135.94 124.5,-135.94"/>
</g>
<!-- signer::borrow_address -->
<g id="node10" class="node">
<title>signer::borrow_address</title>
<ellipse fill="none" stroke="black" cx="859" cy="-34" rx="66.89" ry="18"/>
<text text-anchor="middle" x="859" y="-30.3" font-family="Times,serif" font-size="14.00">borrow_address</text>
</g>
<!-- signer::address_of&#45;&gt;signer::borrow_address -->
<g id="edge9" class="edge">
<title>signer::address_of&#45;&gt;signer::borrow_address</title>
<path fill="none" stroke="black" d="M852.22,-87.7C853.17,-80.32 854.3,-71.52 855.37,-63.25"/>
<polygon fill="black" stroke="black" points="858.8,-63.97 856.61,-53.61 851.86,-63.08 858.8,-63.97"/>
</g>
<!-- error::canonical -->
<g id="node11" class="node">
<title>error::canonical</title>
<ellipse fill="none" stroke="black" cx="368" cy="-34" rx="44.39" ry="18"/>
<text text-anchor="middle" x="368" y="-30.3" font-family="Times,serif" font-size="14.00">canonical</text>
</g>
<!-- error::permission_denied&#45;&gt;error::canonical -->
<g id="edge10" class="edge">
<title>error::permission_denied&#45;&gt;error::canonical</title>
<path fill="none" stroke="black" d="M421.81,-88.05C412.93,-79.29 401.93,-68.45 392.2,-58.86"/>
<polygon fill="black" stroke="black" points="394.71,-56.42 385.13,-51.89 389.8,-61.41 394.71,-56.42"/>
</g>
<!-- error::not_found&#45;&gt;error::canonical -->
<g id="edge11" class="edge">
<title>error::not_found&#45;&gt;error::canonical</title>
<path fill="none" stroke="black" d="M313.47,-88.76C322.43,-79.93 333.69,-68.83 343.64,-59.01"/>
<polygon fill="black" stroke="black" points="345.88,-61.72 350.54,-52.21 340.97,-56.74 345.88,-61.72"/>
</g>
</g>
</svg>
