<?xml version="1.0" encoding="UTF-8" standalone="no"?>
<!DOCTYPE svg PUBLIC "-//W3C//DTD SVG 1.1//EN"
 "http://www.w3.org/Graphics/SVG/1.1/DTD/svg11.dtd">
<!-- Generated by graphviz version 7.0.4 (20221203.1631)
 -->
<!-- Title: G Pages: 1 -->
<svg width="1856pt" height="620pt"
 viewBox="0.00 0.00 1856.00 620.00" xmlns="http://www.w3.org/2000/svg" xmlns:xlink="http://www.w3.org/1999/xlink">
<g id="graph0" class="graph" transform="scale(1 1) rotate(0) translate(4 616)">
<title>G</title>
<polygon fill="white" stroke="none" points="-4,4 -4,-616 1852,-616 1852,4 -4,4"/>
<g id="clust7" class="cluster">
<title>cluster_transaction_validation</title>
<polygon fill="none" stroke="black" points="192,-446 192,-521 329,-521 329,-446 192,-446"/>
<text text-anchor="middle" x="260.5" y="-505.8" font-family="Times,serif" font-size="14.00">transaction_validation</text>
</g>
<g id="clust1" class="cluster">
<title>cluster_transaction_fee</title>
<polygon fill="none" stroke="black" points="202,-291 202,-438 504,-438 504,-291 202,-291"/>
<text text-anchor="middle" x="353" y="-422.8" font-family="Times,serif" font-size="14.00">transaction_fee</text>
</g>
<g id="clust2" class="cluster">
<title>cluster_managed_coin</title>
<polygon fill="none" stroke="black" points="351,-208 351,-283 595,-283 595,-208 351,-208"/>
<text text-anchor="middle" x="473" y="-267.8" font-family="Times,serif" font-size="14.00">managed_coin</text>
</g>
<g id="clust3" class="cluster">
<title>cluster_aptos_coin</title>
<polygon fill="none" stroke="black" points="970,-208 970,-283 1381,-283 1381,-208 970,-208"/>
<text text-anchor="middle" x="1175.5" y="-267.8" font-family="Times,serif" font-size="14.00">aptos_coin</text>
</g>
<g id="clust4" class="cluster">
<title>cluster_stake</title>
<polygon fill="none" stroke="black" points="603,-208 603,-438 773,-438 773,-208 603,-208"/>
<text text-anchor="middle" x="688" y="-422.8" font-family="Times,serif" font-size="14.00">stake</text>
</g>
<g id="clust5" class="cluster">
<title>cluster_aptos_governance</title>
<polygon fill="none" stroke="black" points="1571,-446 1571,-604 1840,-604 1840,-446 1571,-446"/>
<text text-anchor="middle" x="1705.5" y="-588.8" font-family="Times,serif" font-size="14.00">aptos_governance</text>
</g>
<g id="clust6" class="cluster">
<title>cluster_genesis</title>
<polygon fill="none" stroke="black" points="781,-291 781,-604 1563,-604 1563,-291 781,-291"/>
<text text-anchor="middle" x="1172" y="-588.8" font-family="Times,serif" font-size="14.00">genesis</text>
</g>
<g id="clust8" class="cluster">
<title>cluster_reconfiguration</title>
<polygon fill="none" stroke="black" points="355,-446 355,-521 473,-521 473,-446 355,-446"/>
<text text-anchor="middle" x="414" y="-505.8" font-family="Times,serif" font-size="14.00">reconfiguration</text>
</g>
<g id="clust9" class="cluster">
<title>cluster_block</title>
<polygon fill="none" stroke="black" points="8,-529 8,-604 156,-604 156,-529 8,-529"/>
<text text-anchor="middle" x="82" y="-588.8" font-family="Times,serif" font-size="14.00">block</text>
</g>
<g id="clust10" class="cluster">
<title>cluster_consensus_config</title>
<polygon fill="none" stroke="black" points="290,-529 290,-604 403,-604 403,-529 290,-529"/>
<text text-anchor="middle" x="346.5" y="-588.8" font-family="Times,serif" font-size="14.00">consensus_config</text>
</g>
<g id="clust11" class="cluster">
<title>cluster_gas_schedule</title>
<polygon fill="none" stroke="black" points="411,-529 411,-604 773,-604 773,-529 411,-529"/>
<text text-anchor="middle" x="592" y="-588.8" font-family="Times,serif" font-size="14.00">gas_schedule</text>
</g>
<g id="clust12" class="cluster">
<title>cluster_version</title>
<polygon fill="none" stroke="black" points="164,-529 164,-604 282,-604 282,-529 164,-529"/>
<text text-anchor="middle" x="223" y="-588.8" font-family="Times,serif" font-size="14.00">version</text>
</g>
<!-- coin_address -->
<g id="node1" class="node">
<title>coin_address</title>
<ellipse fill="none" stroke="black" cx="846" cy="-18" rx="56.59" ry="18"/>
<text text-anchor="middle" x="846" y="-14.3" font-family="Times,serif" font-size="14.00">coin_address</text>
</g>
<!-- burn -->
<g id="node2" class="node">
<title>burn</title>
<ellipse fill="none" stroke="black" cx="342" cy="-162" rx="27" ry="18"/>
<text text-anchor="middle" x="342" y="-158.3" font-family="Times,serif" font-size="14.00">burn</text>
</g>
<!-- burn&#45;&gt;coin_address -->
<g id="edge1" class="edge">
<title>burn&#45;&gt;coin_address</title>
<path fill="none" stroke="black" d="M362.99,-150.3C400.29,-131.72 480.98,-93.42 553,-72 630.27,-49.02 722.13,-34.37 782.13,-26.43"/>
<polygon fill="black" stroke="black" points="782.35,-29.93 791.82,-25.17 781.45,-22.99 782.35,-29.93"/>
</g>
<!-- decimals -->
<g id="node3" class="node">
<title>decimals</title>
<ellipse fill="none" stroke="black" cx="604" cy="-90" rx="42.49" ry="18"/>
<text text-anchor="middle" x="604" y="-86.3" font-family="Times,serif" font-size="14.00">decimals</text>
</g>
<!-- decimals&#45;&gt;coin_address -->
<g id="edge2" class="edge">
<title>decimals&#45;&gt;coin_address</title>
<path fill="none" stroke="black" d="M636.3,-77.96C642.49,-75.92 648.93,-73.85 655,-72 701.13,-57.92 754.01,-43.37 792.41,-33.09"/>
<polygon fill="black" stroke="black" points="793.12,-36.52 801.88,-30.56 791.31,-29.76 793.12,-36.52"/>
</g>
<!-- name -->
<g id="node4" class="node">
<title>name</title>
<ellipse fill="none" stroke="black" cx="695" cy="-90" rx="30.59" ry="18"/>
<text text-anchor="middle" x="695" y="-86.3" font-family="Times,serif" font-size="14.00">name</text>
</g>
<!-- name&#45;&gt;coin_address -->
<g id="edge3" class="edge">
<title>name&#45;&gt;coin_address</title>
<path fill="none" stroke="black" d="M718.59,-78.06C741.62,-67.39 777.12,-50.93 804.8,-38.1"/>
<polygon fill="black" stroke="black" points="806.01,-41.39 813.61,-34.01 803.07,-35.04 806.01,-41.39"/>
</g>
<!-- symbol -->
<g id="node5" class="node">
<title>symbol</title>
<ellipse fill="none" stroke="black" cx="781" cy="-90" rx="37.09" ry="18"/>
<text text-anchor="middle" x="781" y="-86.3" font-family="Times,serif" font-size="14.00">symbol</text>
</g>
<!-- symbol&#45;&gt;coin_address -->
<g id="edge4" class="edge">
<title>symbol&#45;&gt;coin_address</title>
<path fill="none" stroke="black" d="M795.75,-73.12C803.86,-64.38 814.1,-53.35 823.22,-43.54"/>
<polygon fill="black" stroke="black" points="825.59,-46.13 829.83,-36.42 820.46,-41.36 825.59,-46.13"/>
</g>
<!-- initialize_internal -->
<g id="node6" class="node">
<title>initialize_internal</title>
<ellipse fill="none" stroke="black" cx="1115" cy="-90" rx="72.59" ry="18"/>
<text text-anchor="middle" x="1115" y="-86.3" font-family="Times,serif" font-size="14.00">initialize_internal</text>
</g>
<!-- initialize_internal&#45;&gt;coin_address -->
<g id="edge5" class="edge">
<title>initialize_internal&#45;&gt;coin_address</title>
<path fill="none" stroke="black" d="M1066.29,-76.32C1019.23,-64.08 948.13,-45.58 899.52,-32.93"/>
<polygon fill="black" stroke="black" points="900.62,-29.6 890.06,-30.46 898.85,-36.37 900.62,-29.6"/>
</g>
<!-- is_coin_initialized -->
<g id="node7" class="node">
<title>is_coin_initialized</title>
<ellipse fill="none" stroke="black" cx="949" cy="-90" rx="75.29" ry="18"/>
<text text-anchor="middle" x="949" y="-86.3" font-family="Times,serif" font-size="14.00">is_coin_initialized</text>
</g>
<!-- is_coin_initialized&#45;&gt;coin_address -->
<g id="edge6" class="edge">
<title>is_coin_initialized&#45;&gt;coin_address</title>
<path fill="none" stroke="black" d="M924.85,-72.59C911.1,-63.24 893.67,-51.4 878.71,-41.23"/>
<polygon fill="black" stroke="black" points="880.78,-38.4 870.54,-35.68 876.84,-44.19 880.78,-38.4"/>
</g>
<!-- mint -->
<g id="node8" class="node">
<title>mint</title>
<ellipse fill="none" stroke="black" cx="846" cy="-162" rx="27.1" ry="18"/>
<text text-anchor="middle" x="846" y="-158.3" font-family="Times,serif" font-size="14.00">mint</text>
</g>
<!-- mint&#45;&gt;coin_address -->
<g id="edge7" class="edge">
<title>mint&#45;&gt;coin_address</title>
<path fill="none" stroke="black" d="M846,-143.59C846,-119.61 846,-76.14 846,-47.42"/>
<polygon fill="black" stroke="black" points="849.5,-47.62 846,-37.62 842.5,-47.62 849.5,-47.62"/>
</g>
<!-- supply -->
<g id="node9" class="node">
<title>supply</title>
<ellipse fill="none" stroke="black" cx="1240" cy="-90" rx="34.39" ry="18"/>
<text text-anchor="middle" x="1240" y="-86.3" font-family="Times,serif" font-size="14.00">supply</text>
</g>
<!-- supply&#45;&gt;coin_address -->
<g id="edge8" class="edge">
<title>supply&#45;&gt;coin_address</title>
<path fill="none" stroke="black" d="M1214.4,-77.78C1208.75,-75.62 1202.74,-73.55 1197,-72 1099.42,-45.71 982.84,-31.35 911.63,-24.43"/>
<polygon fill="black" stroke="black" points="912.4,-20.99 902.11,-23.53 911.73,-27.96 912.4,-20.99"/>
</g>
<!-- upgrade_supply -->
<g id="node10" class="node">
<title>upgrade_supply</title>
<ellipse fill="none" stroke="black" cx="1359" cy="-90" rx="66.89" ry="18"/>
<text text-anchor="middle" x="1359" y="-86.3" font-family="Times,serif" font-size="14.00">upgrade_supply</text>
</g>
<!-- upgrade_supply&#45;&gt;coin_address -->
<g id="edge9" class="edge">
<title>upgrade_supply&#45;&gt;coin_address</title>
<path fill="none" stroke="black" d="M1310.08,-77.31C1301.11,-75.38 1291.79,-73.51 1283,-72 1151.95,-49.45 997.16,-33.07 911.44,-24.89"/>
<polygon fill="black" stroke="black" points="911.86,-21.41 901.58,-23.96 911.2,-28.38 911.86,-21.41"/>
</g>
<!-- burn_from -->
<g id="node11" class="node">
<title>burn_from</title>
<ellipse fill="none" stroke="black" cx="145" cy="-317" rx="48.99" ry="18"/>
<text text-anchor="middle" x="145" y="-313.3" font-family="Times,serif" font-size="14.00">burn_from</text>
</g>
<!-- burn_from&#45;&gt;burn -->
<g id="edge10" class="edge">
<title>burn_from&#45;&gt;burn</title>
<path fill="none" stroke="black" d="M165.34,-300.2C201.3,-272.27 276.07,-214.21 315.82,-183.33"/>
<polygon fill="black" stroke="black" points="317.95,-186.11 323.7,-177.21 313.66,-180.58 317.95,-186.11"/>
</g>
<!-- transaction_fee::burn_coin_fraction -->
<g id="node12" class="node">
<title>transaction_fee::burn_coin_fraction</title>
<ellipse fill="none" stroke="black" cx="349" cy="-317" rx="77.99" ry="18"/>
<text text-anchor="middle" x="349" y="-313.3" font-family="Times,serif" font-size="14.00">burn_coin_fraction</text>
</g>
<!-- transaction_fee::burn_coin_fraction&#45;&gt;burn -->
<g id="edge11" class="edge">
<title>transaction_fee::burn_coin_fraction&#45;&gt;burn</title>
<path fill="none" stroke="black" d="M347.88,-298.53C347.57,-293.52 347.26,-288.04 347,-283 345.41,-251.82 343.97,-216.07 343.05,-191.76"/>
<polygon fill="black" stroke="black" points="346.55,-191.87 342.68,-182.01 339.56,-192.13 346.55,-191.87"/>
</g>
<!-- managed_coin::burn -->
<g id="node13" class="node">
<title>managed_coin::burn</title>
<ellipse fill="none" stroke="black" cx="386" cy="-234" rx="27" ry="18"/>
<text text-anchor="middle" x="386" y="-230.3" font-family="Times,serif" font-size="14.00">burn</text>
</g>
<!-- managed_coin::burn&#45;&gt;burn -->
<g id="edge12" class="edge">
<title>managed_coin::burn&#45;&gt;burn</title>
<path fill="none" stroke="black" d="M376.02,-217.12C370.67,-208.61 363.96,-197.94 357.92,-188.32"/>
<polygon fill="black" stroke="black" points="361.04,-186.71 352.75,-180.1 355.11,-190.43 361.04,-186.71"/>
</g>
<!-- initialize -->
<g id="node14" class="node">
<title>initialize</title>
<ellipse fill="none" stroke="black" cx="616" cy="-162" rx="41.69" ry="18"/>
<text text-anchor="middle" x="616" y="-158.3" font-family="Times,serif" font-size="14.00">initialize</text>
</g>
<!-- initialize&#45;&gt;initialize_internal -->
<g id="edge13" class="edge">
<title>initialize&#45;&gt;initialize_internal</title>
<path fill="none" stroke="black" d="M656.41,-156.92C731.06,-149.16 895.51,-130.95 1033,-108 1038.92,-107.01 1045.05,-105.9 1051.19,-104.73"/>
<polygon fill="black" stroke="black" points="1051.55,-108.23 1060.7,-102.87 1050.21,-101.36 1051.55,-108.23"/>
</g>
<!-- initialize_with_parallelizable_supply -->
<g id="node15" class="node">
<title>initialize_with_parallelizable_supply</title>
<ellipse fill="none" stroke="black" cx="1223" cy="-162" rx="141.07" ry="18"/>
<text text-anchor="middle" x="1223" y="-158.3" font-family="Times,serif" font-size="14.00">initialize_with_parallelizable_supply</text>
</g>
<!-- initialize_with_parallelizable_supply&#45;&gt;initialize_internal -->
<g id="edge14" class="edge">
<title>initialize_with_parallelizable_supply&#45;&gt;initialize_internal</title>
<path fill="none" stroke="black" d="M1196.58,-143.88C1182.44,-134.71 1164.85,-123.31 1149.63,-113.45"/>
<polygon fill="black" stroke="black" points="1151.6,-110.55 1141.3,-108.05 1147.79,-116.42 1151.6,-110.55"/>
</g>
<!-- aptos_coin::mint -->
<g id="node16" class="node">
<title>aptos_coin::mint</title>
<ellipse fill="none" stroke="black" cx="1005" cy="-234" rx="27.1" ry="18"/>
<text text-anchor="middle" x="1005" y="-230.3" font-family="Times,serif" font-size="14.00">mint</text>
</g>
<!-- aptos_coin::mint&#45;&gt;mint -->
<g id="edge15" class="edge">
<title>aptos_coin::mint&#45;&gt;mint</title>
<path fill="none" stroke="black" d="M982.89,-223.27C955.79,-211.34 909.65,-191.02 878.51,-177.31"/>
<polygon fill="black" stroke="black" points="880.12,-174.2 869.56,-173.37 877.3,-180.61 880.12,-174.2"/>
</g>
<!-- aptos_coin::configure_accounts_for_test -->
<g id="node17" class="node">
<title>aptos_coin::configure_accounts_for_test</title>
<ellipse fill="none" stroke="black" cx="1161" cy="-234" rx="110.48" ry="18"/>
<text text-anchor="middle" x="1161" y="-230.3" font-family="Times,serif" font-size="14.00">configure_accounts_for_test</text>
</g>
<!-- aptos_coin::configure_accounts_for_test&#45;&gt;mint -->
<g id="edge16" class="edge">
<title>aptos_coin::configure_accounts_for_test&#45;&gt;mint</title>
<path fill="none" stroke="black" d="M1097.63,-218.92C1033.16,-204.59 935.45,-182.88 882.77,-171.17"/>
<polygon fill="black" stroke="black" points="883.62,-167.77 873.1,-169.02 882.1,-174.61 883.62,-167.77"/>
</g>
<!-- stake::distribute_rewards -->
<g id="node18" class="node">
<title>stake::distribute_rewards</title>
<ellipse fill="none" stroke="black" cx="688" cy="-234" rx="76.09" ry="18"/>
<text text-anchor="middle" x="688" y="-230.3" font-family="Times,serif" font-size="14.00">distribute_rewards</text>
</g>
<!-- stake::distribute_rewards&#45;&gt;mint -->
<g id="edge17" class="edge">
<title>stake::distribute_rewards&#45;&gt;mint</title>
<path fill="none" stroke="black" d="M722.67,-217.64C749.82,-205.61 787.29,-189.01 813.78,-177.27"/>
<polygon fill="black" stroke="black" points="814.95,-180.59 822.67,-173.34 812.11,-174.19 814.95,-180.59"/>
</g>
<!-- managed_coin::mint -->
<g id="node19" class="node">
<title>managed_coin::mint</title>
<ellipse fill="none" stroke="black" cx="560" cy="-234" rx="27.1" ry="18"/>
<text text-anchor="middle" x="560" y="-230.3" font-family="Times,serif" font-size="14.00">mint</text>
</g>
<!-- managed_coin::mint&#45;&gt;mint -->
<g id="edge18" class="edge">
<title>managed_coin::mint&#45;&gt;mint</title>
<path fill="none" stroke="black" d="M577.46,-219.75C583.93,-215.41 591.52,-210.95 599,-208 669.4,-180.28 757.89,-169.46 807.57,-165.37"/>
<polygon fill="black" stroke="black" points="807.53,-168.88 817.23,-164.63 807,-161.9 807.53,-168.88"/>
</g>
<!-- aptos_governance::create_proposal_v2 -->
<g id="node20" class="node">
<title>aptos_governance::create_proposal_v2</title>
<ellipse fill="none" stroke="black" cx="1705" cy="-472" rx="79.09" ry="18"/>
<text text-anchor="middle" x="1705" y="-468.3" font-family="Times,serif" font-size="14.00">create_proposal_v2</text>
</g>
<!-- aptos_governance::create_proposal_v2&#45;&gt;supply -->
<g id="edge19" class="edge">
<title>aptos_governance::create_proposal_v2&#45;&gt;supply</title>
<path fill="none" stroke="black" d="M1688.01,-454.37C1662.95,-427.99 1619,-373.76 1619,-318 1619,-318 1619,-318 1619,-233 1619,-73.67 1431.76,-165.07 1283,-108 1281.2,-107.31 1279.35,-106.6 1277.49,-105.87"/>
<polygon fill="black" stroke="black" points="1278.8,-102.63 1268.21,-102.25 1276.25,-109.15 1278.8,-102.63"/>
</g>
<!-- transaction_fee::burn_fee -->
<g id="node21" class="node">
<title>transaction_fee::burn_fee</title>
<ellipse fill="none" stroke="black" cx="252" cy="-389" rx="42.49" ry="18"/>
<text text-anchor="middle" x="252" y="-385.3" font-family="Times,serif" font-size="14.00">burn_fee</text>
</g>
<!-- transaction_fee::burn_fee&#45;&gt;burn_from -->
<g id="edge20" class="edge">
<title>transaction_fee::burn_fee&#45;&gt;burn_from</title>
<path fill="none" stroke="black" d="M229.57,-373.33C214.51,-363.47 194.42,-350.33 177.6,-339.33"/>
<polygon fill="black" stroke="black" points="179.69,-336.51 169.41,-333.97 175.86,-342.37 179.69,-336.51"/>
</g>
<!-- transaction_fee::process_collected_fees -->
<g id="node22" class="node">
<title>transaction_fee::process_collected_fees</title>
<ellipse fill="none" stroke="black" cx="404" cy="-389" rx="91.78" ry="18"/>
<text text-anchor="middle" x="404" y="-385.3" font-family="Times,serif" font-size="14.00">process_collected_fees</text>
</g>
<!-- transaction_fee::process_collected_fees&#45;&gt;transaction_fee::burn_coin_fraction -->
<g id="edge21" class="edge">
<title>transaction_fee::process_collected_fees&#45;&gt;transaction_fee::burn_coin_fraction</title>
<path fill="none" stroke="black" d="M390.69,-371.05C384.27,-362.89 376.43,-352.91 369.29,-343.82"/>
<polygon fill="black" stroke="black" points="372.06,-341.68 363.13,-335.98 366.55,-346 372.06,-341.68"/>
</g>
<!-- managed_coin::initialize -->
<g id="node23" class="node">
<title>managed_coin::initialize</title>
<ellipse fill="none" stroke="black" cx="473" cy="-234" rx="41.69" ry="18"/>
<text text-anchor="middle" x="473" y="-230.3" font-family="Times,serif" font-size="14.00">initialize</text>
</g>
<!-- managed_coin::initialize&#45;&gt;initialize -->
<g id="edge22" class="edge">
<title>managed_coin::initialize&#45;&gt;initialize</title>
<path fill="none" stroke="black" d="M499.73,-219.89C507.55,-216.06 516.12,-211.86 524,-208 542.12,-199.13 562.25,-189.28 579.04,-181.07"/>
<polygon fill="black" stroke="black" points="580.22,-184.39 587.67,-176.85 577.14,-178.1 580.22,-184.39"/>
</g>
<!-- aptos_coin::initialize -->
<g id="node24" class="node">
<title>aptos_coin::initialize</title>
<ellipse fill="none" stroke="black" cx="1331" cy="-234" rx="41.69" ry="18"/>
<text text-anchor="middle" x="1331" y="-230.3" font-family="Times,serif" font-size="14.00">initialize</text>
</g>
<!-- aptos_coin::initialize&#45;&gt;initialize_with_parallelizable_supply -->
<g id="edge23" class="edge">
<title>aptos_coin::initialize&#45;&gt;initialize_with_parallelizable_supply</title>
<path fill="none" stroke="black" d="M1308.62,-218.5C1294.16,-209.12 1275.03,-196.72 1258.52,-186.02"/>
<polygon fill="black" stroke="black" points="1260.72,-183.28 1250.42,-180.77 1256.91,-189.15 1260.72,-183.28"/>
</g>
<!-- genesis::create_account -->
<g id="node25" class="node">
<title>genesis::create_account</title>
<ellipse fill="none" stroke="black" cx="1005" cy="-317" rx="63.89" ry="18"/>
<text text-anchor="middle" x="1005" y="-313.3" font-family="Times,serif" font-size="14.00">create_account</text>
</g>
<!-- genesis::create_account&#45;&gt;aptos_coin::mint -->
<g id="edge24" class="edge">
<title>genesis::create_account&#45;&gt;aptos_coin::mint</title>
<path fill="none" stroke="black" d="M1005,-298.82C1005,-288.69 1005,-275.6 1005,-263.92"/>
<polygon fill="black" stroke="black" points="1008.5,-263.95 1005,-253.95 1001.5,-263.95 1008.5,-263.95"/>
</g>
<!-- genesis::initialize_core_resources_and_aptos_coin -->
<g id="node26" class="node">
<title>genesis::initialize_core_resources_and_aptos_coin</title>
<ellipse fill="none" stroke="black" cx="1397" cy="-555" rx="157.87" ry="18"/>
<text text-anchor="middle" x="1397" y="-551.3" font-family="Times,serif" font-size="14.00">initialize_core_resources_and_aptos_coin</text>
</g>
<!-- genesis::initialize_core_resources_and_aptos_coin&#45;&gt;aptos_coin::configure_accounts_for_test -->
<g id="edge25" class="edge">
<title>genesis::initialize_core_resources_and_aptos_coin&#45;&gt;aptos_coin::configure_accounts_for_test</title>
<path fill="none" stroke="black" d="M1390.7,-536.92C1380.88,-510.67 1362.01,-461.78 1352,-446 1304.29,-370.78 1229.06,-296.87 1188.73,-259.72"/>
<polygon fill="black" stroke="black" points="1191.3,-257.33 1181.56,-253.17 1186.58,-262.5 1191.3,-257.33"/>
</g>
<!-- genesis::initialize_core_resources_and_aptos_coin&#45;&gt;aptos_coin::initialize -->
<g id="edge32" class="edge">
<title>genesis::initialize_core_resources_and_aptos_coin&#45;&gt;aptos_coin::initialize</title>
<path fill="none" stroke="black" d="M1395.83,-536.68C1394.2,-515.26 1390.79,-477.74 1385,-446 1372.88,-379.64 1351.43,-303.31 1339.54,-263.12"/>
<polygon fill="black" stroke="black" points="1342.96,-262.35 1336.75,-253.77 1336.26,-264.36 1342.96,-262.35"/>
</g>
<!-- stake::update_stake_pool -->
<g id="node27" class="node">
<title>stake::update_stake_pool</title>
<ellipse fill="none" stroke="black" cx="688" cy="-317" rx="76.89" ry="18"/>
<text text-anchor="middle" x="688" y="-313.3" font-family="Times,serif" font-size="14.00">update_stake_pool</text>
</g>
<!-- stake::update_stake_pool&#45;&gt;stake::distribute_rewards -->
<g id="edge26" class="edge">
<title>stake::update_stake_pool&#45;&gt;stake::distribute_rewards</title>
<path fill="none" stroke="black" d="M688,-298.82C688,-288.69 688,-275.6 688,-263.92"/>
<polygon fill="black" stroke="black" points="691.5,-263.95 688,-253.95 684.5,-263.95 691.5,-263.95"/>
</g>
<!-- aptos_governance::create_proposal -->
<g id="node28" class="node">
<title>aptos_governance::create_proposal</title>
<ellipse fill="none" stroke="black" cx="1766" cy="-555" rx="66.09" ry="18"/>
<text text-anchor="middle" x="1766" y="-551.3" font-family="Times,serif" font-size="14.00">create_proposal</text>
</g>
<!-- aptos_governance::create_proposal&#45;&gt;aptos_governance::create_proposal_v2 -->
<g id="edge27" class="edge">
<title>aptos_governance::create_proposal&#45;&gt;aptos_governance::create_proposal_v2</title>
<path fill="none" stroke="black" d="M1753.36,-537.22C1745.07,-526.21 1734.07,-511.6 1724.65,-499.1"/>
<polygon fill="black" stroke="black" points="1727.56,-497.13 1718.74,-491.25 1721.96,-501.34 1727.56,-497.13"/>
</g>
<!-- transaction_validation::epilogue -->
<g id="node29" class="node">
<title>transaction_validation::epilogue</title>
<ellipse fill="none" stroke="black" cx="252" cy="-472" rx="40.89" ry="18"/>
<text text-anchor="middle" x="252" y="-468.3" font-family="Times,serif" font-size="14.00">epilogue</text>
</g>
<!-- transaction_validation::epilogue&#45;&gt;transaction_fee::burn_fee -->
<g id="edge28" class="edge">
<title>transaction_validation::epilogue&#45;&gt;transaction_fee::burn_fee</title>
<path fill="none" stroke="black" d="M252,-453.82C252,-443.69 252,-430.6 252,-418.92"/>
<polygon fill="black" stroke="black" points="255.5,-418.95 252,-408.95 248.5,-418.95 255.5,-418.95"/>
</g>
<!-- reconfiguration::reconfigure -->
<g id="node30" class="node">
<title>reconfiguration::reconfigure</title>
<ellipse fill="none" stroke="black" cx="414" cy="-472" rx="51.19" ry="18"/>
<text text-anchor="middle" x="414" y="-468.3" font-family="Times,serif" font-size="14.00">reconfigure</text>
</g>
<!-- reconfiguration::reconfigure&#45;&gt;transaction_fee::process_collected_fees -->
<g id="edge29" class="edge">
<title>reconfiguration::reconfigure&#45;&gt;transaction_fee::process_collected_fees</title>
<path fill="none" stroke="black" d="M411.88,-453.82C410.62,-443.58 408.98,-430.33 407.52,-418.55"/>
<polygon fill="black" stroke="black" points="411.04,-418.43 406.34,-408.93 404.09,-419.29 411.04,-418.43"/>
</g>
<!-- stake::on_new_epoch -->
<g id="node35" class="node">
<title>stake::on_new_epoch</title>
<ellipse fill="none" stroke="black" cx="688" cy="-389" rx="63.89" ry="18"/>
<text text-anchor="middle" x="688" y="-385.3" font-family="Times,serif" font-size="14.00">on_new_epoch</text>
</g>
<!-- reconfiguration::reconfigure&#45;&gt;stake::on_new_epoch -->
<g id="edge45" class="edge">
<title>reconfiguration::reconfigure&#45;&gt;stake::on_new_epoch</title>
<path fill="none" stroke="black" d="M452.39,-459.65C499.69,-445.67 580.35,-421.82 633.91,-405.99"/>
<polygon fill="black" stroke="black" points="634.86,-409.36 643.46,-403.17 632.88,-402.65 634.86,-409.36"/>
</g>
<!-- block::block_prologue -->
<g id="node31" class="node">
<title>block::block_prologue</title>
<ellipse fill="none" stroke="black" cx="82" cy="-555" rx="65.79" ry="18"/>
<text text-anchor="middle" x="82" y="-551.3" font-family="Times,serif" font-size="14.00">block_prologue</text>
</g>
<!-- block::block_prologue&#45;&gt;transaction_fee::process_collected_fees -->
<g id="edge30" class="edge">
<title>block::block_prologue&#45;&gt;transaction_fee::process_collected_fees</title>
<path fill="none" stroke="black" d="M92.84,-536.75C109.71,-511.66 144.82,-465.91 188,-446 211.26,-435.27 278.22,-444.5 303,-438 324.92,-432.25 347.85,-421.76 366.31,-412.05"/>
<polygon fill="black" stroke="black" points="367.89,-415.18 375.02,-407.34 364.56,-409.02 367.89,-415.18"/>
</g>
<!-- block::block_prologue&#45;&gt;reconfiguration::reconfigure -->
<g id="edge37" class="edge">
<title>block::block_prologue&#45;&gt;reconfiguration::reconfigure</title>
<path fill="none" stroke="black" d="M119.18,-539.88C131.94,-535.63 146.42,-531.44 160,-529 197.88,-522.18 296.13,-532.03 333,-521 351.37,-515.51 369.91,-504.97 384.61,-495.16"/>
<polygon fill="black" stroke="black" points="386.2,-498.32 392.43,-489.75 382.22,-492.56 386.2,-498.32"/>
</g>
<!-- genesis::initialize_aptos_coin -->
<g id="node32" class="node">
<title>genesis::initialize_aptos_coin</title>
<ellipse fill="none" stroke="black" cx="1259" cy="-472" rx="83.69" ry="18"/>
<text text-anchor="middle" x="1259" y="-468.3" font-family="Times,serif" font-size="14.00">initialize_aptos_coin</text>
</g>
<!-- genesis::initialize_aptos_coin&#45;&gt;aptos_coin::initialize -->
<g id="edge31" class="edge">
<title>genesis::initialize_aptos_coin&#45;&gt;aptos_coin::initialize</title>
<path fill="none" stroke="black" d="M1264.29,-453.65C1276.65,-413.14 1307.48,-312.09 1322.5,-262.85"/>
<polygon fill="black" stroke="black" points="1325.78,-264.09 1325.35,-253.51 1319.09,-262.05 1325.78,-264.09"/>
</g>
<!-- genesis::create_accounts -->
<g id="node33" class="node">
<title>genesis::create_accounts</title>
<ellipse fill="none" stroke="black" cx="1154" cy="-389" rx="66.89" ry="18"/>
<text text-anchor="middle" x="1154" y="-385.3" font-family="Times,serif" font-size="14.00">create_accounts</text>
</g>
<!-- genesis::create_accounts&#45;&gt;genesis::create_account -->
<g id="edge33" class="edge">
<title>genesis::create_accounts&#45;&gt;genesis::create_account</title>
<path fill="none" stroke="black" d="M1121.67,-372.81C1099.82,-362.55 1070.77,-348.9 1047.12,-337.79"/>
<polygon fill="black" stroke="black" points="1048.92,-334.77 1038.38,-333.68 1045.94,-341.1 1048.92,-334.77"/>
</g>
<!-- genesis::create_initialize_validator -->
<g id="node34" class="node">
<title>genesis::create_initialize_validator</title>
<ellipse fill="none" stroke="black" cx="964" cy="-389" rx="102.88" ry="18"/>
<text text-anchor="middle" x="964" y="-385.3" font-family="Times,serif" font-size="14.00">create_initialize_validator</text>
</g>
<!-- genesis::create_initialize_validator&#45;&gt;genesis::create_account -->
<g id="edge34" class="edge">
<title>genesis::create_initialize_validator&#45;&gt;genesis::create_account</title>
<path fill="none" stroke="black" d="M974.13,-370.7C978.7,-362.9 984.2,-353.51 989.29,-344.83"/>
<polygon fill="black" stroke="black" points="992.18,-346.81 994.22,-336.41 986.14,-343.27 992.18,-346.81"/>
</g>
<!-- stake::on_new_epoch&#45;&gt;stake::update_stake_pool -->
<g id="edge35" class="edge">
<title>stake::on_new_epoch&#45;&gt;stake::update_stake_pool</title>
<path fill="none" stroke="black" d="M688,-370.7C688,-363.41 688,-354.73 688,-346.54"/>
<polygon fill="black" stroke="black" points="691.5,-346.62 688,-336.62 684.5,-346.62 691.5,-346.62"/>
</g>
<!-- aptos_governance::reconfigure -->
<g id="node36" class="node">
<title>aptos_governance::reconfigure</title>
<ellipse fill="none" stroke="black" cx="1630" cy="-555" rx="51.19" ry="18"/>
<text text-anchor="middle" x="1630" y="-551.3" font-family="Times,serif" font-size="14.00">reconfigure</text>
</g>
<!-- aptos_governance::reconfigure&#45;&gt;reconfiguration::reconfigure -->
<g id="edge36" class="edge">
<title>aptos_governance::reconfigure&#45;&gt;reconfiguration::reconfigure</title>
<path fill="none" stroke="black" d="M1600.88,-539.86C1590.44,-535.49 1578.43,-531.25 1567,-529 1523.93,-520.54 820.78,-524.1 777,-521 667.91,-513.26 541.49,-494.25 470.32,-482.6"/>
<polygon fill="black" stroke="black" points="471.31,-479.22 460.87,-481.05 470.17,-486.13 471.31,-479.22"/>
</g>
<!-- consensus_config::set -->
<g id="node37" class="node">
<title>consensus_config::set</title>
<ellipse fill="none" stroke="black" cx="368" cy="-555" rx="27" ry="18"/>
<text text-anchor="middle" x="368" y="-551.3" font-family="Times,serif" font-size="14.00">set</text>
</g>
<!-- consensus_config::set&#45;&gt;reconfiguration::reconfigure -->
<g id="edge38" class="edge">
<title>consensus_config::set&#45;&gt;reconfiguration::reconfigure</title>
<path fill="none" stroke="black" d="M377.31,-537.61C383.46,-526.77 391.67,-512.32 398.76,-499.83"/>
<polygon fill="black" stroke="black" points="401.75,-501.66 403.64,-491.24 395.66,-498.21 401.75,-501.66"/>
</g>
<!-- gas_schedule::set_gas_schedule -->
<g id="node38" class="node">
<title>gas_schedule::set_gas_schedule</title>
<ellipse fill="none" stroke="black" cx="694" cy="-555" rx="71.49" ry="18"/>
<text text-anchor="middle" x="694" y="-551.3" font-family="Times,serif" font-size="14.00">set_gas_schedule</text>
</g>
<!-- gas_schedule::set_gas_schedule&#45;&gt;reconfiguration::reconfigure -->
<g id="edge39" class="edge">
<title>gas_schedule::set_gas_schedule&#45;&gt;reconfiguration::reconfigure</title>
<path fill="none" stroke="black" d="M650.89,-540.27C638.96,-536.54 626,-532.55 614,-529 563.28,-513.98 505.01,-497.78 464.5,-486.69"/>
<polygon fill="black" stroke="black" points="465.59,-483.36 455.03,-484.1 463.75,-490.11 465.59,-483.36"/>
</g>
<!-- gas_schedule::set_storage_gas_config -->
<g id="node39" class="node">
<title>gas_schedule::set_storage_gas_config</title>
<ellipse fill="none" stroke="black" cx="512" cy="-555" rx="92.88" ry="18"/>
<text text-anchor="middle" x="512" y="-551.3" font-family="Times,serif" font-size="14.00">set_storage_gas_config</text>
</g>
<!-- gas_schedule::set_storage_gas_config&#45;&gt;reconfiguration::reconfigure -->
<g id="edge40" class="edge">
<title>gas_schedule::set_storage_gas_config&#45;&gt;reconfiguration::reconfigure</title>
<path fill="none" stroke="black" d="M491.69,-537.22C477.35,-525.36 457.95,-509.33 442.12,-496.24"/>
<polygon fill="black" stroke="black" points="444.38,-493.57 434.45,-489.9 439.92,-498.97 444.38,-493.57"/>
</g>
<!-- version::set_version -->
<g id="node40" class="node">
<title>version::set_version</title>
<ellipse fill="none" stroke="black" cx="223" cy="-555" rx="50.89" ry="18"/>
<text text-anchor="middle" x="223" y="-551.3" font-family="Times,serif" font-size="14.00">set_version</text>
</g>
<!-- version::set_version&#45;&gt;reconfiguration::reconfigure -->
<g id="edge41" class="edge">
<title>version::set_version&#45;&gt;reconfiguration::reconfigure</title>
<path fill="none" stroke="black" d="M253.64,-540.35C263.78,-536.24 275.24,-532.02 286,-529 306.4,-523.28 313.11,-528.3 333,-521 350.46,-514.59 368.39,-504.4 382.93,-495.06"/>
<polygon fill="black" stroke="black" points="384.75,-498.05 391.15,-489.61 380.88,-492.22 384.75,-498.05"/>
</g>
<!-- genesis::initialize_for_verification -->
<g id="node41" class="node">
<title>genesis::initialize_for_verification</title>
<ellipse fill="none" stroke="black" cx="1120" cy="-555" rx="100.98" ry="18"/>
<text text-anchor="middle" x="1120" y="-551.3" font-family="Times,serif" font-size="14.00">initialize_for_verification</text>
</g>
<!-- genesis::initialize_for_verification&#45;&gt;genesis::initialize_aptos_coin -->
<g id="edge42" class="edge">
<title>genesis::initialize_for_verification&#45;&gt;genesis::initialize_aptos_coin</title>
<path fill="none" stroke="black" d="M1148.46,-537.41C1169.5,-525.16 1198.34,-508.35 1221.29,-494.97"/>
<polygon fill="black" stroke="black" points="1222.86,-498.11 1229.74,-490.05 1219.34,-492.06 1222.86,-498.11"/>
</g>
<!-- genesis::initialize_for_verification&#45;&gt;genesis::create_accounts -->
<g id="edge43" class="edge">
<title>genesis::initialize_for_verification&#45;&gt;genesis::create_accounts</title>
<path fill="none" stroke="black" d="M1136.48,-537.08C1140.27,-532.25 1143.82,-526.72 1146,-521 1158.74,-487.58 1158.86,-445.9 1157.05,-418.64"/>
<polygon fill="black" stroke="black" points="1160.55,-418.41 1156.25,-408.73 1153.57,-418.98 1160.55,-418.41"/>
</g>
<!-- genesis::create_initialize_validators_with_commission -->
<g id="node42" class="node">
<title>genesis::create_initialize_validators_with_commission</title>
<ellipse fill="none" stroke="black" cx="963" cy="-472" rx="173.57" ry="18"/>
<text text-anchor="middle" x="963" y="-468.3" font-family="Times,serif" font-size="14.00">create_initialize_validators_with_commission</text>
</g>
<!-- genesis::initialize_for_verification&#45;&gt;genesis::create_initialize_validators_with_commission -->
<g id="edge47" class="edge">
<title>genesis::initialize_for_verification&#45;&gt;genesis::create_initialize_validators_with_commission</title>
<path fill="none" stroke="black" d="M1088.23,-537.61C1064.58,-525.41 1032.03,-508.61 1006.04,-495.21"/>
<polygon fill="black" stroke="black" points="1007.91,-492.23 997.42,-490.76 1004.7,-498.45 1007.91,-492.23"/>
</g>
<!-- genesis::create_initialize_validators_with_commission&#45;&gt;genesis::create_initialize_validator -->
<g id="edge44" class="edge">
<title>genesis::create_initialize_validators_with_commission&#45;&gt;genesis::create_initialize_validator</title>
<path fill="none" stroke="black" d="M963.21,-453.82C963.34,-443.69 963.5,-430.6 963.64,-418.92"/>
<polygon fill="black" stroke="black" points="967.14,-418.99 963.77,-408.95 960.14,-418.9 967.14,-418.99"/>
</g>
<!-- genesis::create_initialize_validators_with_commission&#45;&gt;stake::on_new_epoch -->
<g id="edge46" class="edge">
<title>genesis::create_initialize_validators_with_commission&#45;&gt;stake::on_new_epoch</title>
<path fill="none" stroke="black" d="M853.81,-457.62C828.2,-452.84 801.31,-446.47 777,-438 757.92,-431.35 738,-420.98 721.86,-411.57"/>
<polygon fill="black" stroke="black" points="724.02,-408.79 713.64,-406.66 720.43,-414.8 724.02,-408.79"/>
</g>
<!-- genesis::create_initialize_validators -->
<g id="node43" class="node">
<title>genesis::create_initialize_validators</title>
<ellipse fill="none" stroke="black" cx="895" cy="-555" rx="105.88" ry="18"/>
<text text-anchor="middle" x="895" y="-551.3" font-family="Times,serif" font-size="14.00">create_initialize_validators</text>
</g>
<!-- genesis::create_initialize_validators&#45;&gt;genesis::create_initialize_validators_with_commission -->
<g id="edge48" class="edge">
<title>genesis::create_initialize_validators&#45;&gt;genesis::create_initialize_validators_with_commission</title>
<path fill="none" stroke="black" d="M909.42,-536.82C918.64,-525.84 930.78,-511.38 941.17,-499"/>
<polygon fill="black" stroke="black" points="943.64,-501.5 947.39,-491.59 938.28,-497 943.64,-501.5"/>
</g>
</g>
</svg>
