<?xml version="1.0" encoding="UTF-8" standalone="no"?>
<!DOCTYPE svg PUBLIC "-//W3C//DTD SVG 1.1//EN"
 "http://www.w3.org/Graphics/SVG/1.1/DTD/svg11.dtd">
<!-- Generated by graphviz version 7.0.4 (20221203.1631)
 -->
<!-- Title: G Pages: 1 -->
<svg width="198pt" height="227pt"
 viewBox="0.00 0.00 198.00 227.00" xmlns="http://www.w3.org/2000/svg" xmlns:xlink="http://www.w3.org/1999/xlink">
<g id="graph0" class="graph" transform="scale(1 1) rotate(0) translate(4 223)">
<title>G</title>
<polygon fill="white" stroke="none" points="-4,4 -4,-223 194,-223 194,4 -4,4"/>
<g id="clust1" class="cluster">
<title>cluster_aptos_governance</title>
<polygon fill="none" stroke="black" points="8,-64 8,-211 182,-211 182,-64 8,-64"/>
<text text-anchor="middle" x="95" y="-195.8" font-family="Times,serif" font-size="14.00">aptos_governance</text>
</g>
<!-- supply -->
<g id="node1" class="node">
<title>supply</title>
<ellipse fill="none" stroke="black" cx="95" cy="-18" rx="34.39" ry="18"/>
<text text-anchor="middle" x="95" y="-14.3" font-family="Times,serif" font-size="14.00">supply</text>
</g>
<!-- aptos_governance::create_proposal_v2 -->
<g id="node2" class="node">
<title>aptos_governance::create_proposal_v2</title>
<ellipse fill="none" stroke="black" cx="95" cy="-90" rx="79.09" ry="18"/>
<text text-anchor="middle" x="95" y="-86.3" font-family="Times,serif" font-size="14.00">create_proposal_v2</text>
</g>
<!-- aptos_governance::create_proposal_v2&#45;&gt;supply -->
<g id="edge1" class="edge">
<title>aptos_governance::create_proposal_v2&#45;&gt;supply</title>
<path fill="none" stroke="black" d="M95,-71.7C95,-64.41 95,-55.73 95,-47.54"/>
<polygon fill="black" stroke="black" points="98.5,-47.62 95,-37.62 91.5,-47.62 98.5,-47.62"/>
</g>
<!-- aptos_governance::create_proposal -->
<g id="node3" class="node">
<title>aptos_governance::create_proposal</title>
<ellipse fill="none" stroke="black" cx="95" cy="-162" rx="66.09" ry="18"/>
<text text-anchor="middle" x="95" y="-158.3" font-family="Times,serif" font-size="14.00">create_proposal</text>
</g>
<!-- aptos_governance::create_proposal&#45;&gt;aptos_governance::create_proposal_v2 -->
<g id="edge2" class="edge">
<title>aptos_governance::create_proposal&#45;&gt;aptos_governance::create_proposal_v2</title>
<path fill="none" stroke="black" d="M95,-143.7C95,-136.41 95,-127.73 95,-119.54"/>
<polygon fill="black" stroke="black" points="98.5,-119.62 95,-109.62 91.5,-119.62 98.5,-119.62"/>
</g>
</g>
</svg>
