<?xml version="1.0" encoding="UTF-8" standalone="no"?>
<!DOCTYPE svg PUBLIC "-//W3C//DTD SVG 1.1//EN"
 "http://www.w3.org/Graphics/SVG/1.1/DTD/svg11.dtd">
<!-- Generated by graphviz version 7.0.4 (20221203.1631)
 -->
<!-- Title: G Pages: 1 -->
<svg width="2664pt" height="908pt"
 viewBox="0.00 0.00 2664.00 908.00" xmlns="http://www.w3.org/2000/svg" xmlns:xlink="http://www.w3.org/1999/xlink">
<g id="graph0" class="graph" transform="scale(1 1) rotate(0) translate(4 904)">
<title>G</title>
<polygon fill="white" stroke="none" points="-4,4 -4,-904 2660,-904 2660,4 -4,4"/>
<!-- consensus_config -->
<g id="node1" class="node">
<title>consensus_config</title>
<ellipse fill="none" stroke="black" cx="2173" cy="-882" rx="73.39" ry="18"/>
<text text-anchor="middle" x="2173" y="-878.3" font-family="Times,serif" font-size="14.00">consensus_config</text>
</g>
<!-- error -->
<g id="node2" class="node">
<title>error</title>
<ellipse fill="none" stroke="black" cx="1431" cy="-90" rx="27.9" ry="18"/>
<text text-anchor="middle" x="1431" y="-86.3" font-family="Times,serif" font-size="14.00">error</text>
</g>
<!-- consensus_config&#45;&gt;error -->
<g id="edge1" class="edge">
<title>consensus_config&#45;&gt;error</title>
<path fill="none" stroke="black" d="M2099.77,-880.13C1720.82,-875.16 0,-846.66 0,-739 0,-739 0,-739 0,-233 0,-161.13 66.6,-166.05 135,-144 257.01,-104.67 1187.39,-93.37 1391.5,-91.36"/>
<polygon fill="black" stroke="black" points="1391.34,-94.86 1401.31,-91.26 1391.27,-87.86 1391.34,-94.86"/>
</g>
<!-- system_addresses -->
<g id="node3" class="node">
<title>system_addresses</title>
<ellipse fill="none" stroke="black" cx="2056" cy="-306" rx="73.39" ry="18"/>
<text text-anchor="middle" x="2056" y="-302.3" font-family="Times,serif" font-size="14.00">system_addresses</text>
</g>
<!-- consensus_config&#45;&gt;system_addresses -->
<g id="edge2" class="edge">
<title>consensus_config&#45;&gt;system_addresses</title>
<path fill="none" stroke="black" d="M2228.52,-869.85C2307.26,-850.86 2438.82,-805.69 2410,-720 2345.99,-529.67 2283.83,-496.98 2137,-360 2124.42,-348.26 2108.95,-337.44 2094.91,-328.67"/>
<polygon fill="black" stroke="black" points="2097.13,-325.93 2086.76,-323.73 2093.5,-331.91 2097.13,-325.93"/>
</g>
<!-- reconfiguration -->
<g id="node4" class="node">
<title>reconfiguration</title>
<ellipse fill="none" stroke="black" cx="2173" cy="-810" rx="64.99" ry="18"/>
<text text-anchor="middle" x="2173" y="-806.3" font-family="Times,serif" font-size="14.00">reconfiguration</text>
</g>
<!-- consensus_config&#45;&gt;reconfiguration -->
<g id="edge3" class="edge">
<title>consensus_config&#45;&gt;reconfiguration</title>
<path fill="none" stroke="black" d="M2173,-863.7C2173,-856.41 2173,-847.73 2173,-839.54"/>
<polygon fill="black" stroke="black" points="2176.5,-839.62 2173,-829.62 2169.5,-839.62 2176.5,-839.62"/>
</g>
<!-- system_addresses&#45;&gt;error -->
<g id="edge5" class="edge">
<title>system_addresses&#45;&gt;error</title>
<path fill="none" stroke="black" d="M2043.97,-287.91C2018.88,-253.8 1957.27,-177.65 1885,-144 1811.54,-109.8 1566.34,-96.43 1470.18,-92.43"/>
<polygon fill="black" stroke="black" points="1470.59,-88.94 1460.46,-92.04 1470.31,-95.94 1470.59,-88.94"/>
</g>
<!-- signer -->
<g id="node5" class="node">
<title>signer</title>
<ellipse fill="none" stroke="black" cx="2094" cy="-90" rx="32.49" ry="18"/>
<text text-anchor="middle" x="2094" y="-86.3" font-family="Times,serif" font-size="14.00">signer</text>
</g>
<!-- system_addresses&#45;&gt;signer -->
<g id="edge4" class="edge">
<title>system_addresses&#45;&gt;signer</title>
<path fill="none" stroke="black" d="M2065.69,-287.89C2078.36,-264.44 2099.9,-220.57 2108,-180 2112.05,-159.71 2108.18,-136.63 2103.49,-119.06"/>
<polygon fill="black" stroke="black" points="2106.88,-118.2 2100.71,-109.59 2100.17,-120.17 2106.88,-118.2"/>
</g>
<!-- reconfiguration&#45;&gt;error -->
<g id="edge7" class="edge">
<title>reconfiguration&#45;&gt;error</title>
<path fill="none" stroke="black" d="M2107.95,-808.68C1769.2,-806.84 218.96,-796.23 126,-756 74.95,-733.9 38,-722.63 38,-667 38,-667 38,-667 38,-305 38,-141.41 210.55,-184.68 369,-144 567.96,-92.92 1223.57,-90.6 1391.52,-90.86"/>
<polygon fill="black" stroke="black" points="1391.46,-94.36 1401.47,-90.88 1391.47,-87.36 1391.46,-94.36"/>
</g>
<!-- reconfiguration&#45;&gt;system_addresses -->
<g id="edge9" class="edge">
<title>reconfiguration&#45;&gt;system_addresses</title>
<path fill="none" stroke="black" d="M2180.69,-791.91C2191.79,-765.62 2211,-713.45 2211,-667 2211,-667 2211,-667 2211,-521 2211,-476.93 2123.71,-378.48 2080.14,-332.09"/>
<polygon fill="black" stroke="black" points="2082.75,-329.76 2073.33,-324.9 2077.66,-334.57 2082.75,-329.76"/>
</g>
<!-- reconfiguration&#45;&gt;signer -->
<g id="edge6" class="edge">
<title>reconfiguration&#45;&gt;signer</title>
<path fill="none" stroke="black" d="M2238.14,-808.93C2369.98,-805.01 2656,-775.68 2656,-595 2656,-595 2656,-595 2656,-233 2656,-126.28 2270.23,-98.92 2137.91,-92.68"/>
<polygon fill="black" stroke="black" points="2138.3,-89.19 2128.16,-92.24 2137.99,-96.19 2138.3,-89.19"/>
</g>
<!-- features -->
<g id="node6" class="node">
<title>features</title>
<ellipse fill="none" stroke="black" cx="1838" cy="-162" rx="38.19" ry="18"/>
<text text-anchor="middle" x="1838" y="-158.3" font-family="Times,serif" font-size="14.00">features</text>
</g>
<!-- reconfiguration&#45;&gt;features -->
<g id="edge8" class="edge">
<title>reconfiguration&#45;&gt;features</title>
<path fill="none" stroke="black" d="M2230.45,-801.21C2342.64,-784.39 2580,-740.15 2580,-667 2580,-667 2580,-667 2580,-449 2580,-408.55 2588.79,-389.39 2561,-360 2466.13,-259.69 2031.57,-190.29 1885.81,-169.5"/>
<polygon fill="black" stroke="black" points="1886.51,-166.07 1876.12,-168.14 1885.53,-173 1886.51,-166.07"/>
</g>
<!-- event -->
<g id="node7" class="node">
<title>event</title>
<ellipse fill="none" stroke="black" cx="960" cy="-378" rx="29.8" ry="18"/>
<text text-anchor="middle" x="960" y="-374.3" font-family="Times,serif" font-size="14.00">event</text>
</g>
<!-- reconfiguration&#45;&gt;event -->
<g id="edge10" class="edge">
<title>reconfiguration&#45;&gt;event</title>
<path fill="none" stroke="black" d="M2108.01,-807.92C1911.92,-804.28 1334.86,-790.71 1258,-756 1093.89,-681.87 1053.37,-629.15 973,-468 963.67,-449.29 960.54,-425.81 959.68,-407.66"/>
<polygon fill="black" stroke="black" points="963.19,-407.77 959.44,-397.86 956.19,-407.94 963.19,-407.77"/>
</g>
<!-- account -->
<g id="node8" class="node">
<title>account</title>
<ellipse fill="none" stroke="black" cx="617" cy="-450" rx="38.19" ry="18"/>
<text text-anchor="middle" x="617" y="-446.3" font-family="Times,serif" font-size="14.00">account</text>
</g>
<!-- reconfiguration&#45;&gt;account -->
<g id="edge11" class="edge">
<title>reconfiguration&#45;&gt;account</title>
<path fill="none" stroke="black" d="M2107.76,-808.92C1773.27,-808.28 262.84,-802.82 176,-756 133.57,-733.12 114,-715.21 114,-667 114,-667 114,-667 114,-593 114,-499.29 441.45,-464.36 567.95,-454.36"/>
<polygon fill="black" stroke="black" points="567.98,-457.87 577.68,-453.61 567.45,-450.89 567.98,-457.87"/>
</g>
<!-- chain_status -->
<g id="node9" class="node">
<title>chain_status</title>
<ellipse fill="none" stroke="black" cx="2498" cy="-378" rx="53.89" ry="18"/>
<text text-anchor="middle" x="2498" y="-374.3" font-family="Times,serif" font-size="14.00">chain_status</text>
</g>
<!-- reconfiguration&#45;&gt;chain_status -->
<g id="edge12" class="edge">
<title>reconfiguration&#45;&gt;chain_status</title>
<path fill="none" stroke="black" d="M2232.75,-802.56C2309.23,-790.62 2432,-757.38 2432,-667 2432,-667 2432,-667 2432,-521 2432,-477.18 2458.17,-432.24 2477.55,-404.97"/>
<polygon fill="black" stroke="black" points="2480.33,-407.1 2483.43,-396.97 2474.69,-402.96 2480.33,-407.1"/>
</g>
<!-- timestamp -->
<g id="node10" class="node">
<title>timestamp</title>
<ellipse fill="none" stroke="black" cx="2134" cy="-522" rx="48.19" ry="18"/>
<text text-anchor="middle" x="2134" y="-518.3" font-family="Times,serif" font-size="14.00">timestamp</text>
</g>
<!-- reconfiguration&#45;&gt;timestamp -->
<g id="edge13" class="edge">
<title>reconfiguration&#45;&gt;timestamp</title>
<path fill="none" stroke="black" d="M2170.62,-791.54C2164.1,-743.76 2145.93,-610.51 2137.9,-551.61"/>
<polygon fill="black" stroke="black" points="2141.37,-551.17 2136.55,-541.73 2134.44,-552.11 2141.37,-551.17"/>
</g>
<!-- stake -->
<g id="node11" class="node">
<title>stake</title>
<ellipse fill="none" stroke="black" cx="1722" cy="-666" rx="28.7" ry="18"/>
<text text-anchor="middle" x="1722" y="-662.3" font-family="Times,serif" font-size="14.00">stake</text>
</g>
<!-- reconfiguration&#45;&gt;stake -->
<g id="edge14" class="edge">
<title>reconfiguration&#45;&gt;stake</title>
<path fill="none" stroke="black" d="M2131.38,-795.9C2043.59,-768.26 1840.77,-704.4 1758.08,-678.36"/>
<polygon fill="black" stroke="black" points="1759.27,-675.06 1748.68,-675.4 1757.17,-681.74 1759.27,-675.06"/>
</g>
<!-- transaction_fee -->
<g id="node12" class="node">
<title>transaction_fee</title>
<ellipse fill="none" stroke="black" cx="1331" cy="-738" rx="64.19" ry="18"/>
<text text-anchor="middle" x="1331" y="-734.3" font-family="Times,serif" font-size="14.00">transaction_fee</text>
</g>
<!-- reconfiguration&#45;&gt;transaction_fee -->
<g id="edge15" class="edge">
<title>reconfiguration&#45;&gt;transaction_fee</title>
<path fill="none" stroke="black" d="M2111.43,-803.88C1959.26,-791.23 1566.07,-758.54 1403.25,-745.01"/>
<polygon fill="black" stroke="black" points="1403.7,-741.53 1393.44,-744.19 1403.12,-748.51 1403.7,-741.53"/>
</g>
<!-- storage_gas -->
<g id="node13" class="node">
<title>storage_gas</title>
<ellipse fill="none" stroke="black" cx="2330" cy="-450" rx="51.99" ry="18"/>
<text text-anchor="middle" x="2330" y="-446.3" font-family="Times,serif" font-size="14.00">storage_gas</text>
</g>
<!-- reconfiguration&#45;&gt;storage_gas -->
<g id="edge16" class="edge">
<title>reconfiguration&#45;&gt;storage_gas</title>
<path fill="none" stroke="black" d="M2199.03,-793.07C2233.23,-769.92 2289,-723.5 2289,-667 2289,-667 2289,-667 2289,-593 2289,-551.77 2305.15,-506.36 2317.18,-478.26"/>
<polygon fill="black" stroke="black" points="2320.25,-479.97 2321.09,-469.41 2313.84,-477.14 2320.25,-479.97"/>
</g>
<!-- features&#45;&gt;error -->
<g id="edge18" class="edge">
<title>features&#45;&gt;error</title>
<path fill="none" stroke="black" d="M1808.27,-150.33C1801.05,-148.01 1793.3,-145.73 1786,-144 1672.67,-117.22 1535.64,-101.29 1469.89,-94.65"/>
<polygon fill="black" stroke="black" points="1470.27,-91.17 1459.97,-93.66 1469.58,-98.13 1470.27,-91.17"/>
</g>
<!-- features&#45;&gt;signer -->
<g id="edge17" class="edge">
<title>features&#45;&gt;signer</title>
<path fill="none" stroke="black" d="M1870.42,-152.13C1917.33,-139.31 2004.02,-115.6 2054.57,-101.78"/>
<polygon fill="black" stroke="black" points="2055.2,-105.24 2063.92,-99.22 2053.35,-98.49 2055.2,-105.24"/>
</g>
<!-- bcs -->
<g id="node14" class="node">
<title>bcs</title>
<ellipse fill="none" stroke="black" cx="653" cy="-162" rx="27" ry="18"/>
<text text-anchor="middle" x="653" y="-158.3" font-family="Times,serif" font-size="14.00">bcs</text>
</g>
<!-- event&#45;&gt;bcs -->
<g id="edge19" class="edge">
<title>event&#45;&gt;bcs</title>
<path fill="none" stroke="black" d="M962.99,-359.84C965.37,-340.51 966.16,-309.04 951,-288 928.21,-256.37 903.38,-273.71 871,-252 851.68,-239.04 853.16,-227.61 833,-216 808.52,-201.91 734.62,-182.59 689.48,-171.59"/>
<polygon fill="black" stroke="black" points="690.41,-168.21 679.86,-169.27 688.76,-175.02 690.41,-168.21"/>
</g>
<!-- guid -->
<g id="node15" class="node">
<title>guid</title>
<ellipse fill="none" stroke="black" cx="915" cy="-306" rx="27" ry="18"/>
<text text-anchor="middle" x="915" y="-302.3" font-family="Times,serif" font-size="14.00">guid</text>
</g>
<!-- event&#45;&gt;guid -->
<g id="edge20" class="edge">
<title>event&#45;&gt;guid</title>
<path fill="none" stroke="black" d="M949.56,-360.76C944.09,-352.25 937.27,-341.64 931.13,-332.09"/>
<polygon fill="black" stroke="black" points="934.24,-330.46 925.89,-323.94 928.35,-334.24 934.24,-330.46"/>
</g>
<!-- account&#45;&gt;error -->
<g id="edge24" class="edge">
<title>account&#45;&gt;error</title>
<path fill="none" stroke="black" d="M645.5,-437.75C668.21,-428.19 700.34,-413.28 726,-396 755.76,-375.96 814.52,-305.22 846,-288 898.97,-259.03 919.4,-270.1 977,-252 1135.6,-202.16 1321.65,-132.64 1396.88,-104.06"/>
<polygon fill="black" stroke="black" points="1398.06,-107.36 1406.16,-100.53 1395.57,-100.81 1398.06,-107.36"/>
</g>
<!-- account&#45;&gt;system_addresses -->
<g id="edge28" class="edge">
<title>account&#45;&gt;system_addresses</title>
<path fill="none" stroke="black" d="M647.03,-438.36C654.17,-436.06 661.81,-433.78 669,-432 760.48,-409.3 792.47,-435.62 878,-396 900.62,-385.52 897.78,-369.06 921,-360 969.76,-340.99 1717.79,-317.07 1972.11,-309.45"/>
<polygon fill="black" stroke="black" points="1972.08,-312.95 1981.97,-309.16 1971.87,-305.96 1972.08,-312.95"/>
</g>
<!-- account&#45;&gt;signer -->
<g id="edge23" class="edge">
<title>account&#45;&gt;signer</title>
<path fill="none" stroke="black" d="M647.13,-438.61C686.31,-424.99 750.96,-402.11 761,-396 764.8,-393.69 874.95,-289.83 879,-288 891.81,-282.22 1871.4,-183.54 1885,-180 1949.99,-163.08 2020.99,-129.29 2061.25,-108.56"/>
<polygon fill="black" stroke="black" points="2062.69,-111.76 2069.94,-104.04 2059.46,-105.55 2062.69,-111.76"/>
</g>
<!-- account&#45;&gt;event -->
<g id="edge34" class="edge">
<title>account&#45;&gt;event</title>
<path fill="none" stroke="black" d="M646.72,-438.31C653.95,-435.99 661.69,-433.71 669,-432 777.01,-406.67 808.7,-424.17 916,-396 919.12,-395.18 922.32,-394.21 925.5,-393.16"/>
<polygon fill="black" stroke="black" points="926.46,-396.53 934.69,-389.86 924.09,-389.95 926.46,-396.53"/>
</g>
<!-- account&#45;&gt;bcs -->
<g id="edge25" class="edge">
<title>account&#45;&gt;bcs</title>
<path fill="none" stroke="black" d="M617.46,-431.56C618.06,-413.59 619.36,-384.78 622,-360 627.15,-311.68 631.45,-300 639,-252 642.18,-231.79 645.77,-208.99 648.51,-191.53"/>
<polygon fill="black" stroke="black" points="651.93,-192.31 650.03,-181.89 645.02,-191.22 651.93,-192.31"/>
</g>
<!-- account&#45;&gt;guid -->
<g id="edge32" class="edge">
<title>account&#45;&gt;guid</title>
<path fill="none" stroke="black" d="M647.44,-438.76C654.5,-436.46 661.99,-434.09 669,-432 727.68,-414.48 747.28,-423.5 802,-396 811.6,-391.17 859.41,-352.58 889.68,-327.82"/>
<polygon fill="black" stroke="black" points="891.77,-330.64 897.28,-321.59 887.33,-325.22 891.77,-330.64"/>
</g>
<!-- vector -->
<g id="node16" class="node">
<title>vector</title>
<ellipse fill="none" stroke="black" cx="708" cy="-18" rx="32.49" ry="18"/>
<text text-anchor="middle" x="708" y="-14.3" font-family="Times,serif" font-size="14.00">vector</text>
</g>
<!-- account&#45;&gt;vector -->
<g id="edge21" class="edge">
<title>account&#45;&gt;vector</title>
<path fill="none" stroke="black" d="M625.08,-432.14C647.35,-385.38 708,-256.09 708,-235 708,-235 708,-235 708,-161 708,-121.74 708,-76.38 708,-47.69"/>
<polygon fill="black" stroke="black" points="711.5,-48 708,-38 704.5,-48 711.5,-48"/>
</g>
<!-- option -->
<g id="node17" class="node">
<title>option</title>
<ellipse fill="none" stroke="black" cx="535" cy="-90" rx="33.29" ry="18"/>
<text text-anchor="middle" x="535" y="-86.3" font-family="Times,serif" font-size="14.00">option</text>
</g>
<!-- account&#45;&gt;option -->
<g id="edge22" class="edge">
<title>account&#45;&gt;option</title>
<path fill="none" stroke="black" d="M578.55,-448.57C528.37,-446.3 439.59,-436.33 377,-396 343.37,-374.34 335.65,-361.95 323,-324 304.73,-269.18 323.94,-176.33 354,-144 388.88,-106.49 448.71,-95.03 489.98,-91.79"/>
<polygon fill="black" stroke="black" points="490.09,-95.29 499.84,-91.17 489.64,-88.31 490.09,-95.29"/>
</g>
<!-- type_info -->
<g id="node18" class="node">
<title>type_info</title>
<ellipse fill="none" stroke="black" cx="924" cy="-234" rx="44.39" ry="18"/>
<text text-anchor="middle" x="924" y="-230.3" font-family="Times,serif" font-size="14.00">type_info</text>
</g>
<!-- account&#45;&gt;type_info -->
<g id="edge26" class="edge">
<title>account&#45;&gt;type_info</title>
<path fill="none" stroke="black" d="M638.9,-434.95C654.42,-424.71 675.51,-410.19 693,-396 747.46,-351.83 749.79,-327.09 808,-288 830.51,-272.89 858.03,-260.1 880.61,-250.88"/>
<polygon fill="black" stroke="black" points="881.86,-254.15 889.85,-247.2 879.27,-247.65 881.86,-254.15"/>
</g>
<!-- table -->
<g id="node19" class="node">
<title>table</title>
<ellipse fill="none" stroke="black" cx="1302" cy="-306" rx="27.9" ry="18"/>
<text text-anchor="middle" x="1302" y="-302.3" font-family="Times,serif" font-size="14.00">table</text>
</g>
<!-- account&#45;&gt;table -->
<g id="edge27" class="edge">
<title>account&#45;&gt;table</title>
<path fill="none" stroke="black" d="M647.08,-438.56C654.22,-436.25 661.85,-433.92 669,-432 743.59,-411.97 768.52,-427.57 839,-396 863.66,-384.95 862.8,-369.76 888,-360 1029.28,-305.25 1077.53,-348.79 1227,-324 1239.58,-321.91 1253.21,-319.02 1265.35,-316.21"/>
<polygon fill="black" stroke="black" points="1266.07,-319.64 1274.99,-313.92 1264.45,-312.83 1266.07,-319.64"/>
</g>
<!-- hash -->
<g id="node20" class="node">
<title>hash</title>
<ellipse fill="none" stroke="black" cx="480" cy="-234" rx="27" ry="18"/>
<text text-anchor="middle" x="480" y="-230.3" font-family="Times,serif" font-size="14.00">hash</text>
</g>
<!-- account&#45;&gt;hash -->
<g id="edge29" class="edge">
<title>account&#45;&gt;hash</title>
<path fill="none" stroke="black" d="M580.71,-443.76C532.34,-435.94 450.74,-419.57 433,-396 401.92,-354.71 436.53,-293.29 460.68,-259.49"/>
<polygon fill="black" stroke="black" points="463.42,-261.68 466.55,-251.56 457.79,-257.51 463.42,-261.68"/>
</g>
<!-- ed25519 -->
<g id="node21" class="node">
<title>ed25519</title>
<ellipse fill="none" stroke="black" cx="373" cy="-306" rx="40.89" ry="18"/>
<text text-anchor="middle" x="373" y="-302.3" font-family="Times,serif" font-size="14.00">ed25519</text>
</g>
<!-- account&#45;&gt;ed25519 -->
<g id="edge30" class="edge">
<title>account&#45;&gt;ed25519</title>
<path fill="none" stroke="black" d="M580.41,-444.48C525.59,-436.99 425.77,-420.39 400,-396 383.59,-380.47 377.05,-355.32 374.5,-335.71"/>
<polygon fill="black" stroke="black" points="377.99,-335.46 373.52,-325.86 371.02,-336.15 377.99,-335.46"/>
</g>
<!-- multi_ed25519 -->
<g id="node22" class="node">
<title>multi_ed25519</title>
<ellipse fill="none" stroke="black" cx="506" cy="-378" rx="64.19" ry="18"/>
<text text-anchor="middle" x="506" y="-374.3" font-family="Times,serif" font-size="14.00">multi_ed25519</text>
</g>
<!-- account&#45;&gt;multi_ed25519 -->
<g id="edge31" class="edge">
<title>account&#45;&gt;multi_ed25519</title>
<path fill="none" stroke="black" d="M594.8,-435C579.32,-425.24 558.36,-412.02 540.68,-400.87"/>
<polygon fill="black" stroke="black" points="542.87,-398.11 532.54,-395.74 539.13,-404.03 542.87,-398.11"/>
</g>
<!-- from_bcs -->
<g id="node23" class="node">
<title>from_bcs</title>
<ellipse fill="none" stroke="black" cx="780" cy="-234" rx="44.39" ry="18"/>
<text text-anchor="middle" x="780" y="-230.3" font-family="Times,serif" font-size="14.00">from_bcs</text>
</g>
<!-- account&#45;&gt;from_bcs -->
<g id="edge33" class="edge">
<title>account&#45;&gt;from_bcs</title>
<path fill="none" stroke="black" d="M631.58,-432.94C652.49,-409.63 691.78,-364.75 722,-324 737.13,-303.6 752.77,-279.39 763.99,-261.37"/>
<polygon fill="black" stroke="black" points="766.82,-263.44 769.1,-253.1 760.87,-259.77 766.82,-263.44"/>
</g>
<!-- chain_status&#45;&gt;error -->
<g id="edge35" class="edge">
<title>chain_status&#45;&gt;error</title>
<path fill="none" stroke="black" d="M2480.14,-360.53C2430.24,-315.72 2283.27,-191.74 2135,-144 2009.84,-103.7 1599.98,-93.72 1470.54,-91.55"/>
<polygon fill="black" stroke="black" points="1470.83,-88.05 1460.77,-91.39 1470.72,-95.05 1470.83,-88.05"/>
</g>
<!-- chain_status&#45;&gt;system_addresses -->
<g id="edge36" class="edge">
<title>chain_status&#45;&gt;system_addresses</title>
<path fill="none" stroke="black" d="M2450.75,-368.92C2433.8,-366.06 2414.55,-362.84 2397,-360 2304.42,-345.01 2197.56,-328.54 2128.5,-318"/>
<polygon fill="black" stroke="black" points="2129.24,-314.57 2118.83,-316.52 2128.18,-321.49 2129.24,-314.57"/>
</g>
<!-- timestamp&#45;&gt;error -->
<g id="edge37" class="edge">
<title>timestamp&#45;&gt;error</title>
<path fill="none" stroke="black" d="M2139.55,-503.92C2151.61,-463.56 2176.17,-360.26 2138,-288 2124.74,-262.9 1953.64,-153.8 1927,-144 1843.16,-113.14 1572.26,-97.6 1470.3,-92.73"/>
<polygon fill="black" stroke="black" points="1470.67,-89.24 1460.52,-92.27 1470.34,-96.23 1470.67,-89.24"/>
</g>
<!-- timestamp&#45;&gt;system_addresses -->
<g id="edge38" class="edge">
<title>timestamp&#45;&gt;system_addresses</title>
<path fill="none" stroke="black" d="M2127.75,-503.85C2114.31,-466.99 2082.58,-379.92 2066.19,-334.96"/>
<polygon fill="black" stroke="black" points="2069.51,-333.85 2062.8,-325.65 2062.94,-336.25 2069.51,-333.85"/>
</g>
<!-- stake&#45;&gt;error -->
<g id="edge42" class="edge">
<title>stake&#45;&gt;error</title>
<path fill="none" stroke="black" d="M1747.02,-656.8C1777.15,-646.35 1824.98,-627.77 1835,-612 1843.58,-598.5 1839.05,-591.48 1835,-576 1800.32,-443.36 1684,-444.1 1684,-307 1684,-307 1684,-307 1684,-233 1684,-135.9 1540.55,-104.52 1469.68,-94.94"/>
<polygon fill="black" stroke="black" points="1470.42,-91.5 1460.06,-93.72 1469.54,-98.45 1470.42,-91.5"/>
</g>
<!-- stake&#45;&gt;system_addresses -->
<g id="edge45" class="edge">
<title>stake&#45;&gt;system_addresses</title>
<path fill="none" stroke="black" d="M1750.41,-662.06C1805.92,-655.78 1925.96,-639.34 1956,-612 1977.23,-592.68 2029.06,-406.91 2048.48,-335.12"/>
<polygon fill="black" stroke="black" points="2051.8,-336.26 2051.02,-325.7 2045.04,-334.44 2051.8,-336.26"/>
</g>
<!-- stake&#45;&gt;signer -->
<g id="edge41" class="edge">
<title>stake&#45;&gt;signer</title>
<path fill="none" stroke="black" d="M1751.05,-664.44C1904.94,-660.72 2618,-633.62 2618,-451 2618,-451 2618,-451 2618,-377 2618,-158.88 2263.84,-106.1 2137.84,-94.22"/>
<polygon fill="black" stroke="black" points="2138.16,-90.74 2127.89,-93.33 2137.54,-97.71 2138.16,-90.74"/>
</g>
<!-- stake&#45;&gt;features -->
<g id="edge43" class="edge">
<title>stake&#45;&gt;features</title>
<path fill="none" stroke="black" d="M1747.27,-657.03C1756.33,-654.18 1766.62,-650.94 1776,-648 1827.1,-631.96 1849.25,-645.55 1891,-612 1926.54,-583.44 1942,-568.59 1942,-523 1942,-523 1942,-523 1942,-449 1942,-348.09 1884.12,-238.57 1854.72,-189.44"/>
<polygon fill="black" stroke="black" points="1857.72,-187.65 1849.53,-180.93 1851.74,-191.29 1857.72,-187.65"/>
</g>
<!-- stake&#45;&gt;event -->
<g id="edge46" class="edge">
<title>stake&#45;&gt;event</title>
<path fill="none" stroke="black" d="M1696.24,-657.33C1663.45,-647.45 1605.18,-629.45 1556,-612 1431.86,-567.95 1404.93,-545.76 1280,-504 1223.55,-485.13 1206.83,-488.64 1151,-468 1093.29,-446.67 1028.97,-414.95 991.63,-395.7"/>
<polygon fill="black" stroke="black" points="993.68,-392.82 983.19,-391.32 990.45,-399.03 993.68,-392.82"/>
</g>
<!-- stake&#45;&gt;account -->
<g id="edge47" class="edge">
<title>stake&#45;&gt;account</title>
<path fill="none" stroke="black" d="M1693.45,-662.86C1622.13,-657.24 1430.56,-640.52 1273,-612 1038.87,-569.62 763.8,-493.29 659.75,-463.44"/>
<polygon fill="black" stroke="black" points="660.81,-460.1 650.24,-460.7 658.88,-466.83 660.81,-460.1"/>
</g>
<!-- stake&#45;&gt;timestamp -->
<g id="edge50" class="edge">
<title>stake&#45;&gt;timestamp</title>
<path fill="none" stroke="black" d="M1750.78,-662.93C1801.53,-658.51 1909.54,-645.67 1994,-612 2035.64,-595.4 2078.4,-566.08 2105.52,-545.65"/>
<polygon fill="black" stroke="black" points="2107.42,-548.61 2113.24,-539.75 2103.17,-543.05 2107.42,-548.61"/>
</g>
<!-- stake&#45;&gt;vector -->
<g id="edge39" class="edge">
<title>stake&#45;&gt;vector</title>
<path fill="none" stroke="black" d="M1720.92,-647.52C1718.71,-598.1 1718.27,-454.8 1779,-360 1888.79,-188.64 2276.21,-218.55 2135,-72 2085.86,-21 987.39,-18.82 752.11,-18.94"/>
<polygon fill="black" stroke="black" points="752.45,-15.44 742.45,-18.94 752.46,-22.44 752.45,-15.44"/>
</g>
<!-- stake&#45;&gt;option -->
<g id="edge40" class="edge">
<title>stake&#45;&gt;option</title>
<path fill="none" stroke="black" d="M1713.61,-648.7C1682.58,-588.64 1574.85,-382.02 1550,-360 1362.4,-193.74 1271.88,-206 1029,-144 867.2,-102.69 667.59,-93.55 579.9,-91.55"/>
<polygon fill="black" stroke="black" points="580.12,-88.05 570.05,-91.35 579.97,-95.05 580.12,-88.05"/>
</g>
<!-- stake&#45;&gt;table -->
<g id="edge44" class="edge">
<title>stake&#45;&gt;table</title>
<path fill="none" stroke="black" d="M1697.92,-655.67C1655.06,-637.31 1570,-592.16 1570,-523 1570,-523 1570,-523 1570,-449 1570,-346.66 1415.53,-317.87 1341.14,-309.93"/>
<polygon fill="black" stroke="black" points="1341.72,-306.47 1331.43,-308.98 1341.04,-313.44 1341.72,-306.47"/>
</g>
<!-- coin -->
<g id="node24" class="node">
<title>coin</title>
<ellipse fill="none" stroke="black" cx="1244" cy="-522" rx="27" ry="18"/>
<text text-anchor="middle" x="1244" y="-518.3" font-family="Times,serif" font-size="14.00">coin</text>
</g>
<!-- stake&#45;&gt;coin -->
<g id="edge48" class="edge">
<title>stake&#45;&gt;coin</title>
<path fill="none" stroke="black" d="M1694.16,-661.19C1647.01,-654.28 1548.8,-637.97 1469,-612 1431.92,-599.93 1425.11,-590.7 1389,-576 1351.58,-560.76 1307.95,-545.1 1278.4,-534.79"/>
<polygon fill="black" stroke="black" points="1279.83,-531.58 1269.24,-531.6 1277.54,-538.19 1279.83,-531.58"/>
</g>
<!-- aptos_coin -->
<g id="node25" class="node">
<title>aptos_coin</title>
<ellipse fill="none" stroke="black" cx="1331" cy="-594" rx="48.99" ry="18"/>
<text text-anchor="middle" x="1331" y="-590.3" font-family="Times,serif" font-size="14.00">aptos_coin</text>
</g>
<!-- stake&#45;&gt;aptos_coin -->
<g id="edge49" class="edge">
<title>stake&#45;&gt;aptos_coin</title>
<path fill="none" stroke="black" d="M1694,-660.85C1638.76,-652.54 1511.88,-632.86 1406,-612 1398.34,-610.49 1390.27,-608.79 1382.38,-607.05"/>
<polygon fill="black" stroke="black" points="1383.39,-603.69 1372.87,-604.93 1381.86,-610.52 1383.39,-603.69"/>
</g>
<!-- staking_config -->
<g id="node26" class="node">
<title>staking_config</title>
<ellipse fill="none" stroke="black" cx="1851" cy="-378" rx="63.09" ry="18"/>
<text text-anchor="middle" x="1851" y="-374.3" font-family="Times,serif" font-size="14.00">staking_config</text>
</g>
<!-- stake&#45;&gt;staking_config -->
<g id="edge51" class="edge">
<title>stake&#45;&gt;staking_config</title>
<path fill="none" stroke="black" d="M1750.85,-663.84C1785.28,-660.72 1841.54,-649.76 1868,-612 1911.65,-549.71 1882.23,-453.64 1863.36,-406.71"/>
<polygon fill="black" stroke="black" points="1866.62,-405.43 1859.54,-397.55 1860.16,-408.13 1866.62,-405.43"/>
</g>
<!-- math64 -->
<g id="node27" class="node">
<title>math64</title>
<ellipse fill="none" stroke="black" cx="1788" cy="-594" rx="37.89" ry="18"/>
<text text-anchor="middle" x="1788" y="-590.3" font-family="Times,serif" font-size="14.00">math64</text>
</g>
<!-- stake&#45;&gt;math64 -->
<g id="edge52" class="edge">
<title>stake&#45;&gt;math64</title>
<path fill="none" stroke="black" d="M1736,-650.15C1744.51,-641.12 1755.58,-629.38 1765.32,-619.05"/>
<polygon fill="black" stroke="black" points="1767.75,-621.57 1772.07,-611.9 1762.66,-616.77 1767.75,-621.57"/>
</g>
<!-- bls12381 -->
<g id="node28" class="node">
<title>bls12381</title>
<ellipse fill="none" stroke="black" cx="1467" cy="-162" rx="42.79" ry="18"/>
<text text-anchor="middle" x="1467" y="-158.3" font-family="Times,serif" font-size="14.00">bls12381</text>
</g>
<!-- stake&#45;&gt;bls12381 -->
<g id="edge53" class="edge">
<title>stake&#45;&gt;bls12381</title>
<path fill="none" stroke="black" d="M1717.42,-648.14C1698.02,-576.96 1623.26,-303.93 1613,-288 1583.9,-242.8 1533.61,-204.99 1500.32,-183.17"/>
<polygon fill="black" stroke="black" points="1502.57,-180.45 1492.27,-178 1498.79,-186.34 1502.57,-180.45"/>
</g>
<!-- transaction_fee&#45;&gt;error -->
<g id="edge55" class="edge">
<title>transaction_fee&#45;&gt;error</title>
<path fill="none" stroke="black" d="M1283.42,-725.61C1119.4,-685.93 579.05,-551.67 422,-468 339.86,-424.24 295.16,-378.93 315,-288 333.26,-204.34 362.59,-173.45 443,-144 533.13,-110.99 1218.95,-95.22 1391.63,-91.75"/>
<polygon fill="black" stroke="black" points="1391.49,-95.25 1401.42,-91.56 1391.35,-88.25 1391.49,-95.25"/>
</g>
<!-- transaction_fee&#45;&gt;system_addresses -->
<g id="edge56" class="edge">
<title>transaction_fee&#45;&gt;system_addresses</title>
<path fill="none" stroke="black" d="M1391.57,-731.53C1565.81,-715 2056,-662.5 2056,-595 2056,-595 2056,-595 2056,-449 2056,-409.74 2056,-364.38 2056,-335.69"/>
<polygon fill="black" stroke="black" points="2059.5,-336 2056,-326 2052.5,-336 2059.5,-336"/>
</g>
<!-- transaction_fee&#45;&gt;stake -->
<g id="edge59" class="edge">
<title>transaction_fee&#45;&gt;stake</title>
<path fill="none" stroke="black" d="M1384.14,-727.49C1464.05,-713.18 1613.26,-686.47 1683.53,-673.89"/>
<polygon fill="black" stroke="black" points="1683.79,-677.4 1693.01,-672.19 1682.55,-670.51 1683.79,-677.4"/>
</g>
<!-- transaction_fee&#45;&gt;option -->
<g id="edge54" class="edge">
<title>transaction_fee&#45;&gt;option</title>
<path fill="none" stroke="black" d="M1268.76,-733.06C1015.53,-716.2 76,-645.39 76,-523 76,-523 76,-523 76,-377 76,-243.94 150.04,-212.7 264,-144 301.67,-121.29 424.55,-103.91 491.15,-95.88"/>
<polygon fill="black" stroke="black" points="491.48,-99.37 501,-94.72 490.66,-92.42 491.48,-99.37"/>
</g>
<!-- transaction_fee&#45;&gt;coin -->
<g id="edge57" class="edge">
<title>transaction_fee&#45;&gt;coin</title>
<path fill="none" stroke="black" d="M1322.27,-719.89C1310.29,-696.08 1288.5,-651.41 1273,-612 1265.08,-591.87 1257.56,-568.62 1252.16,-550.93"/>
<polygon fill="black" stroke="black" points="1255.53,-549.96 1249.3,-541.39 1248.82,-551.98 1255.53,-549.96"/>
</g>
<!-- transaction_fee&#45;&gt;aptos_coin -->
<g id="edge58" class="edge">
<title>transaction_fee&#45;&gt;aptos_coin</title>
<path fill="none" stroke="black" d="M1331,-719.59C1331,-695.61 1331,-652.14 1331,-623.42"/>
<polygon fill="black" stroke="black" points="1334.5,-623.62 1331,-613.62 1327.5,-623.62 1334.5,-623.62"/>
</g>
<!-- storage_gas&#45;&gt;error -->
<g id="edge60" class="edge">
<title>storage_gas&#45;&gt;error</title>
<path fill="none" stroke="black" d="M2358.33,-434.68C2372.76,-425.71 2388.92,-412.69 2397,-396 2403.97,-381.6 2403.83,-374.47 2397,-360 2375.5,-314.46 2267.12,-238.38 2222,-216 2159.81,-185.15 2135.51,-202.99 2070,-180 2034.73,-167.63 2030.04,-153.9 1994,-144 1894.9,-116.77 1581.31,-98.63 1470.37,-92.92"/>
<polygon fill="black" stroke="black" points="1470.74,-89.44 1460.58,-92.43 1470.39,-96.43 1470.74,-89.44"/>
</g>
<!-- storage_gas&#45;&gt;system_addresses -->
<g id="edge61" class="edge">
<title>storage_gas&#45;&gt;system_addresses</title>
<path fill="none" stroke="black" d="M2307.37,-433.68C2279.2,-414.98 2229.26,-382.99 2184,-360 2158.99,-347.29 2130.2,-335.17 2106.26,-325.72"/>
<polygon fill="black" stroke="black" points="2107.64,-322.5 2097.05,-322.13 2105.1,-329.03 2107.64,-322.5"/>
</g>
<!-- state_storage -->
<g id="node29" class="node">
<title>state_storage</title>
<ellipse fill="none" stroke="black" cx="2331" cy="-378" rx="56.59" ry="18"/>
<text text-anchor="middle" x="2331" y="-374.3" font-family="Times,serif" font-size="14.00">state_storage</text>
</g>
<!-- storage_gas&#45;&gt;state_storage -->
<g id="edge62" class="edge">
<title>storage_gas&#45;&gt;state_storage</title>
<path fill="none" stroke="black" d="M2330.25,-431.7C2330.35,-424.41 2330.48,-415.73 2330.59,-407.54"/>
<polygon fill="black" stroke="black" points="2334.09,-407.67 2330.73,-397.62 2327.09,-407.57 2334.09,-407.67"/>
</g>
<!-- option&#45;&gt;vector -->
<g id="edge63" class="edge">
<title>option&#45;&gt;vector</title>
<path fill="none" stroke="black" d="M561.27,-78.37C590.74,-66.44 638.73,-47.03 671.75,-33.67"/>
<polygon fill="black" stroke="black" points="672.97,-36.95 680.92,-29.96 670.34,-30.46 672.97,-36.95"/>
</g>
<!-- type_info&#45;&gt;error -->
<g id="edge65" class="edge">
<title>type_info&#45;&gt;error</title>
<path fill="none" stroke="black" d="M929.93,-215.94C938.13,-195.15 955.05,-160.73 982,-144 1050.11,-101.74 1295.31,-93.18 1391.7,-91.44"/>
<polygon fill="black" stroke="black" points="1391.5,-94.94 1401.45,-91.28 1391.39,-87.95 1391.5,-94.94"/>
</g>
<!-- type_info&#45;&gt;features -->
<g id="edge66" class="edge">
<title>type_info&#45;&gt;features</title>
<path fill="none" stroke="black" d="M967.47,-229.67C1119.67,-218.01 1628.01,-179.08 1788.8,-166.77"/>
<polygon fill="black" stroke="black" points="1788.99,-170.26 1798.7,-166.01 1788.46,-163.28 1788.99,-170.26"/>
</g>
<!-- type_info&#45;&gt;bcs -->
<g id="edge67" class="edge">
<title>type_info&#45;&gt;bcs</title>
<path fill="none" stroke="black" d="M889.1,-222.52C881.5,-220.31 873.49,-218.03 866,-216 804.31,-199.29 732.02,-181.73 689.5,-171.6"/>
<polygon fill="black" stroke="black" points="690.34,-168.2 679.81,-169.3 688.73,-175.01 690.34,-168.2"/>
</g>
<!-- string -->
<g id="node30" class="node">
<title>string</title>
<ellipse fill="none" stroke="black" cx="774" cy="-162" rx="30.59" ry="18"/>
<text text-anchor="middle" x="774" y="-158.3" font-family="Times,serif" font-size="14.00">string</text>
</g>
<!-- type_info&#45;&gt;string -->
<g id="edge64" class="edge">
<title>type_info&#45;&gt;string</title>
<path fill="none" stroke="black" d="M895.79,-219.83C870.72,-208.14 834.06,-191.03 807.51,-178.64"/>
<polygon fill="black" stroke="black" points="809.08,-175.51 798.54,-174.45 806.12,-181.85 809.08,-175.51"/>
</g>
<!-- ed25519&#45;&gt;error -->
<g id="edge69" class="edge">
<title>ed25519&#45;&gt;error</title>
<path fill="none" stroke="black" d="M374.99,-287.55C378.06,-267.96 385.67,-236.26 404,-216 454.97,-159.68 485.36,-162.63 559,-144 720.05,-103.26 1244.02,-93.43 1391.85,-91.45"/>
<polygon fill="black" stroke="black" points="1391.55,-94.95 1401.5,-91.32 1391.46,-87.95 1391.55,-94.95"/>
</g>
<!-- ed25519&#45;&gt;bcs -->
<g id="edge70" class="edge">
<title>ed25519&#45;&gt;bcs</title>
<path fill="none" stroke="black" d="M381.89,-288.14C393.46,-267.88 415.6,-234.32 444,-216 496.73,-181.99 570.02,-169.79 614.33,-165.43"/>
<polygon fill="black" stroke="black" points="614.59,-168.92 624.24,-164.55 613.97,-161.95 614.59,-168.92"/>
</g>
<!-- ed25519&#45;&gt;option -->
<g id="edge68" class="edge">
<title>ed25519&#45;&gt;option</title>
<path fill="none" stroke="black" d="M367.02,-287.74C357.17,-255.93 341.58,-187.34 373,-144 399.52,-107.42 452.05,-95.62 490.11,-92.05"/>
<polygon fill="black" stroke="black" points="490.2,-95.56 499.91,-91.31 489.67,-88.58 490.2,-95.56"/>
</g>
<!-- ed25519&#45;&gt;type_info -->
<g id="edge71" class="edge">
<title>ed25519&#45;&gt;type_info</title>
<path fill="none" stroke="black" d="M412.81,-301.36C492.71,-293.85 678.19,-275.35 833,-252 846.41,-249.98 860.86,-247.44 874.22,-244.95"/>
<polygon fill="black" stroke="black" points="874.47,-248.46 883.65,-243.16 873.17,-241.59 874.47,-248.46"/>
</g>
<!-- ed25519&#45;&gt;hash -->
<g id="edge72" class="edge">
<title>ed25519&#45;&gt;hash</title>
<path fill="none" stroke="black" d="M395.17,-290.5C411.59,-279.75 434.1,-265.03 451.8,-253.45"/>
<polygon fill="black" stroke="black" points="453.36,-256.61 459.81,-248.21 449.53,-250.75 453.36,-256.61"/>
</g>
<!-- multi_ed25519&#45;&gt;error -->
<g id="edge74" class="edge">
<title>multi_ed25519&#45;&gt;error</title>
<path fill="none" stroke="black" d="M513.67,-359.68C537.17,-306.81 607.15,-150.68 617,-144 681.55,-100.25 1237.61,-92.55 1391.61,-91.25"/>
<polygon fill="black" stroke="black" points="1391.33,-94.75 1401.3,-91.18 1391.27,-87.76 1391.33,-94.75"/>
</g>
<!-- multi_ed25519&#45;&gt;features -->
<g id="edge75" class="edge">
<title>multi_ed25519&#45;&gt;features</title>
<path fill="none" stroke="black" d="M548.26,-364.03C612.15,-344.85 737.41,-308.96 846,-288 1204.85,-218.73 1644.44,-178.85 1789.23,-166.87"/>
<polygon fill="black" stroke="black" points="1789.15,-170.39 1798.83,-166.08 1788.57,-163.41 1789.15,-170.39"/>
</g>
<!-- multi_ed25519&#45;&gt;bcs -->
<g id="edge76" class="edge">
<title>multi_ed25519&#45;&gt;bcs</title>
<path fill="none" stroke="black" d="M529.93,-360.83C542.92,-351.22 558.6,-338.16 570,-324 603.83,-281.96 629.6,-223.94 642.92,-190.25"/>
<polygon fill="black" stroke="black" points="646.06,-191.82 646.4,-181.23 639.53,-189.29 646.06,-191.82"/>
</g>
<!-- multi_ed25519&#45;&gt;option -->
<g id="edge73" class="edge">
<title>multi_ed25519&#45;&gt;option</title>
<path fill="none" stroke="black" d="M507.77,-359.54C512.62,-311.76 526.13,-178.51 532.1,-119.61"/>
<polygon fill="black" stroke="black" points="535.57,-120.04 533.1,-109.74 528.61,-119.33 535.57,-120.04"/>
</g>
<!-- multi_ed25519&#45;&gt;hash -->
<g id="edge77" class="edge">
<title>multi_ed25519&#45;&gt;hash</title>
<path fill="none" stroke="black" d="M502.81,-359.59C498.42,-335.61 490.46,-292.14 485.2,-263.42"/>
<polygon fill="black" stroke="black" points="488.65,-262.81 483.41,-253.6 481.76,-264.07 488.65,-262.81"/>
</g>
<!-- multi_ed25519&#45;&gt;ed25519 -->
<g id="edge78" class="edge">
<title>multi_ed25519&#45;&gt;ed25519</title>
<path fill="none" stroke="black" d="M476.81,-361.64C456.7,-351.05 429.87,-336.93 408.52,-325.69"/>
<polygon fill="black" stroke="black" points="410.35,-322.7 399.87,-321.14 407.09,-328.9 410.35,-322.7"/>
</g>
<!-- from_bcs&#45;&gt;string -->
<g id="edge79" class="edge">
<title>from_bcs&#45;&gt;string</title>
<path fill="none" stroke="black" d="M778.52,-215.7C777.89,-208.41 777.15,-199.73 776.45,-191.54"/>
<polygon fill="black" stroke="black" points="779.94,-191.28 775.6,-181.61 772.96,-191.87 779.94,-191.28"/>
</g>
<!-- coin&#45;&gt;error -->
<g id="edge83" class="edge">
<title>coin&#45;&gt;error</title>
<path fill="none" stroke="black" d="M1267.41,-512.85C1289.84,-504.22 1323.78,-488.94 1348,-468 1377.66,-442.35 1385.93,-432.97 1399,-396 1436.41,-290.19 1395.1,-254.45 1415,-144 1416.51,-135.64 1418.88,-126.74 1421.34,-118.66"/>
<polygon fill="black" stroke="black" points="1424.6,-119.97 1424.33,-109.38 1417.93,-117.83 1424.6,-119.97"/>
</g>
<!-- coin&#45;&gt;system_addresses -->
<g id="edge85" class="edge">
<title>coin&#45;&gt;system_addresses</title>
<path fill="none" stroke="black" d="M1269.65,-515.91C1311.8,-507.34 1398.22,-488.9 1470,-468 1609.68,-427.34 1638.51,-397.77 1779,-360 1847.34,-341.63 1926.82,-327.1 1983.06,-317.94"/>
<polygon fill="black" stroke="black" points="1983.54,-321.41 1992.85,-316.37 1982.42,-314.5 1983.54,-321.41"/>
</g>
<!-- coin&#45;&gt;signer -->
<g id="edge82" class="edge">
<title>coin&#45;&gt;signer</title>
<path fill="none" stroke="black" d="M1267.49,-512.9C1294.91,-503.21 1341.42,-486.01 1380,-468 1530.68,-397.66 1559.06,-361.95 1708,-288 1813.49,-235.62 1845.89,-235.08 1950,-180 1990.9,-158.36 2035.95,-129.68 2064.59,-110.8"/>
<polygon fill="black" stroke="black" points="2066.34,-113.84 2072.73,-105.39 2062.47,-108 2066.34,-113.84"/>
</g>
<!-- coin&#45;&gt;event -->
<g id="edge86" class="edge">
<title>coin&#45;&gt;event</title>
<path fill="none" stroke="black" d="M1217.33,-518.03C1162.01,-511.42 1037.17,-493.98 1004,-468 984.72,-452.89 973.28,-427.13 966.93,-407.2"/>
<polygon fill="black" stroke="black" points="970.32,-406.35 964.17,-397.72 963.6,-408.3 970.32,-406.35"/>
</g>
<!-- coin&#45;&gt;account -->
<g id="edge87" class="edge">
<title>coin&#45;&gt;account</title>
<path fill="none" stroke="black" d="M1217.46,-518.04C1121.28,-507.3 790.14,-470.33 665.22,-456.38"/>
<polygon fill="black" stroke="black" points="665.96,-452.94 655.64,-455.31 665.19,-459.9 665.96,-452.94"/>
</g>
<!-- coin&#45;&gt;option -->
<g id="edge80" class="edge">
<title>coin&#45;&gt;option</title>
<path fill="none" stroke="black" d="M1216.75,-520.98C1124.81,-520.48 817.92,-515.14 570,-468 462.69,-447.6 412.21,-473.27 335,-396 255.82,-316.76 251.63,-224.04 330,-144 352.28,-121.24 438.33,-105.01 491.6,-96.9"/>
<polygon fill="black" stroke="black" points="491.89,-100.39 501.27,-95.46 490.86,-93.47 491.89,-100.39"/>
</g>
<!-- coin&#45;&gt;type_info -->
<g id="edge84" class="edge">
<title>coin&#45;&gt;type_info</title>
<path fill="none" stroke="black" d="M1217.15,-518.18C1182.23,-513.31 1120.88,-500.48 1080,-468 1006.96,-409.96 1027.58,-362.93 972,-288 964.68,-278.13 955.84,-267.97 947.76,-259.21"/>
<polygon fill="black" stroke="black" points="950.45,-256.97 941.04,-252.1 945.36,-261.77 950.45,-256.97"/>
</g>
<!-- coin&#45;&gt;string -->
<g id="edge81" class="edge">
<title>coin&#45;&gt;string</title>
<path fill="none" stroke="black" d="M1220.33,-512.97C1197.18,-504.33 1161.76,-488.96 1136,-468 1104.55,-442.42 1102.57,-429.68 1080,-396 1028.69,-319.43 1050.2,-272.02 977,-216 929.74,-179.83 860.11,-168.24 815.92,-164.59"/>
<polygon fill="black" stroke="black" points="816.45,-161.12 806.22,-163.9 815.95,-168.1 816.45,-161.12"/>
</g>
<!-- aggregator -->
<g id="node31" class="node">
<title>aggregator</title>
<ellipse fill="none" stroke="black" cx="1170" cy="-306" rx="48.19" ry="18"/>
<text text-anchor="middle" x="1170" y="-302.3" font-family="Times,serif" font-size="14.00">aggregator</text>
</g>
<!-- coin&#45;&gt;aggregator -->
<g id="edge88" class="edge">
<title>coin&#45;&gt;aggregator</title>
<path fill="none" stroke="black" d="M1219.18,-514.53C1196.91,-507.26 1165.57,-493.07 1151,-468 1126.73,-426.24 1143.54,-368.12 1157.25,-334.34"/>
<polygon fill="black" stroke="black" points="1160.42,-335.84 1161.13,-325.27 1153.98,-333.09 1160.42,-335.84"/>
</g>
<!-- aggregator_factory -->
<g id="node32" class="node">
<title>aggregator_factory</title>
<ellipse fill="none" stroke="black" cx="1313" cy="-378" rx="77.19" ry="18"/>
<text text-anchor="middle" x="1313" y="-374.3" font-family="Times,serif" font-size="14.00">aggregator_factory</text>
</g>
<!-- coin&#45;&gt;aggregator_factory -->
<g id="edge89" class="edge">
<title>coin&#45;&gt;aggregator_factory</title>
<path fill="none" stroke="black" d="M1268.48,-513.62C1289.26,-505.92 1317.75,-491.59 1331,-468 1341.6,-449.13 1335.65,-424.9 1327.86,-406.49"/>
<polygon fill="black" stroke="black" points="1331.07,-405.1 1323.68,-397.52 1324.73,-408.06 1331.07,-405.1"/>
</g>
<!-- optional_aggregator -->
<g id="node33" class="node">
<title>optional_aggregator</title>
<ellipse fill="none" stroke="black" cx="1241" cy="-450" rx="81.49" ry="18"/>
<text text-anchor="middle" x="1241" y="-446.3" font-family="Times,serif" font-size="14.00">optional_aggregator</text>
</g>
<!-- coin&#45;&gt;optional_aggregator -->
<g id="edge90" class="edge">
<title>coin&#45;&gt;optional_aggregator</title>
<path fill="none" stroke="black" d="M1243.26,-503.7C1242.95,-496.41 1242.57,-487.73 1242.22,-479.54"/>
<polygon fill="black" stroke="black" points="1245.72,-479.46 1241.8,-469.62 1238.73,-479.76 1245.72,-479.46"/>
</g>
<!-- aptos_coin&#45;&gt;error -->
<g id="edge95" class="edge">
<title>aptos_coin&#45;&gt;error</title>
<path fill="none" stroke="black" d="M1341.88,-576.22C1376.4,-521.83 1483.35,-344.37 1519,-180 1522.39,-164.36 1526.87,-157.93 1519,-144 1507.8,-124.18 1485.89,-110.95 1466.73,-102.66"/>
<polygon fill="black" stroke="black" points="1468.16,-99.46 1457.57,-99.01 1465.57,-105.96 1468.16,-99.46"/>
</g>
<!-- aptos_coin&#45;&gt;system_addresses -->
<g id="edge96" class="edge">
<title>aptos_coin&#45;&gt;system_addresses</title>
<path fill="none" stroke="black" d="M1378.05,-588.33C1436.39,-581.66 1538.34,-567.09 1622,-540 1763.08,-494.31 1794.15,-469.43 1923,-396 1958.9,-375.54 1997.98,-348.81 2024.43,-330.01"/>
<polygon fill="black" stroke="black" points="2026.24,-333.01 2032.34,-324.34 2022.17,-327.32 2026.24,-333.01"/>
</g>
<!-- aptos_coin&#45;&gt;signer -->
<g id="edge94" class="edge">
<title>aptos_coin&#45;&gt;signer</title>
<path fill="none" stroke="black" d="M1348.74,-576.97C1403.89,-527.81 1578.72,-377.16 1746,-288 1787.69,-265.78 1802.45,-270.3 1846,-252 1913.8,-223.5 1933.93,-220.99 1995,-180 2023.75,-160.7 2052.76,-133.51 2071.88,-114.27"/>
<polygon fill="black" stroke="black" points="2074.12,-116.98 2078.62,-107.38 2069.12,-112.08 2074.12,-116.98"/>
</g>
<!-- aptos_coin&#45;&gt;vector -->
<g id="edge91" class="edge">
<title>aptos_coin&#45;&gt;vector</title>
<path fill="none" stroke="black" d="M1281.69,-592.4C1127.01,-590.11 652.83,-579.94 505,-540 392.54,-509.62 355.07,-489.8 286,-396 219.34,-305.47 185.34,-224.32 264,-144 320.8,-86.01 566.07,-41.48 665.69,-25.45"/>
<polygon fill="black" stroke="black" points="666,-28.95 675.33,-23.92 664.9,-22.04 666,-28.95"/>
</g>
<!-- aptos_coin&#45;&gt;option -->
<g id="edge92" class="edge">
<title>aptos_coin&#45;&gt;option</title>
<path fill="none" stroke="black" d="M1282.31,-591.18C1178.9,-586.78 929.97,-573.36 724,-540 587.79,-517.94 545.48,-529.59 422,-468 283.88,-399.11 181.13,-245.97 297,-144 325.44,-118.97 430.43,-103.04 491.04,-95.71"/>
<polygon fill="black" stroke="black" points="491.15,-99.22 500.67,-94.58 490.33,-92.27 491.15,-99.22"/>
</g>
<!-- aptos_coin&#45;&gt;coin -->
<g id="edge97" class="edge">
<title>aptos_coin&#45;&gt;coin</title>
<path fill="none" stroke="black" d="M1311.26,-577.12C1298.88,-567.15 1282.79,-554.21 1269.45,-543.48"/>
<polygon fill="black" stroke="black" points="1271.9,-540.96 1261.92,-537.41 1267.51,-546.41 1271.9,-540.96"/>
</g>
<!-- aptos_coin&#45;&gt;string -->
<g id="edge93" class="edge">
<title>aptos_coin&#45;&gt;string</title>
<path fill="none" stroke="black" d="M1284.01,-588.49C1163.68,-576.26 835.25,-538.54 570,-468 447.2,-435.34 363.18,-444.55 323,-324 300.21,-255.62 376.07,-240.13 444,-216 547.71,-179.16 580.56,-198.8 689,-180 703.86,-177.42 720.11,-174.26 734.39,-171.36"/>
<polygon fill="black" stroke="black" points="734.77,-174.86 743.86,-169.42 733.37,-168 734.77,-174.86"/>
</g>
<!-- staking_config&#45;&gt;error -->
<g id="edge98" class="edge">
<title>staking_config&#45;&gt;error</title>
<path fill="none" stroke="black" d="M1845.12,-359.86C1829.13,-316.06 1780.48,-199.56 1698,-144 1661.19,-119.2 1534.69,-102.26 1469.91,-95"/>
<polygon fill="black" stroke="black" points="1470.39,-91.53 1460.07,-93.92 1469.63,-98.49 1470.39,-91.53"/>
</g>
<!-- staking_config&#45;&gt;system_addresses -->
<g id="edge99" class="edge">
<title>staking_config&#45;&gt;system_addresses</title>
<path fill="none" stroke="black" d="M1890.04,-363.67C1922.26,-352.67 1968.26,-336.96 2003.67,-324.87"/>
<polygon fill="black" stroke="black" points="2004.52,-328.28 2012.85,-321.73 2002.26,-321.65 2004.52,-328.28"/>
</g>
<!-- bls12381&#45;&gt;error -->
<g id="edge101" class="edge">
<title>bls12381&#45;&gt;error</title>
<path fill="none" stroke="black" d="M1458.29,-144.05C1454.16,-136.03 1449.13,-126.26 1444.52,-117.3"/>
<polygon fill="black" stroke="black" points="1447.76,-115.95 1440.08,-108.65 1441.54,-119.15 1447.76,-115.95"/>
</g>
<!-- bls12381&#45;&gt;option -->
<g id="edge100" class="edge">
<title>bls12381&#45;&gt;option</title>
<path fill="none" stroke="black" d="M1425.35,-157.03C1387.07,-153.44 1328.74,-148.09 1278,-144 1013.13,-122.64 694.78,-101.43 579.44,-93.88"/>
<polygon fill="black" stroke="black" points="579.69,-90.39 569.48,-93.23 579.23,-97.38 579.69,-90.39"/>
</g>
<!-- state_storage&#45;&gt;error -->
<g id="edge102" class="edge">
<title>state_storage&#45;&gt;error</title>
<path fill="none" stroke="black" d="M2323.19,-359.76C2307.91,-327.66 2271.19,-258.2 2222,-216 2165.26,-167.33 2142.19,-163.4 2070,-144 1955.82,-113.31 1591.15,-97.06 1470.31,-92.42"/>
<polygon fill="black" stroke="black" points="1470.71,-88.93 1460.58,-92.05 1470.44,-95.92 1470.71,-88.93"/>
</g>
<!-- state_storage&#45;&gt;system_addresses -->
<g id="edge103" class="edge">
<title>state_storage&#45;&gt;system_addresses</title>
<path fill="none" stroke="black" d="M2287.73,-365.99C2241.65,-354.26 2168.36,-335.6 2116.56,-322.42"/>
<polygon fill="black" stroke="black" points="2117.55,-319.06 2106.99,-319.98 2115.82,-325.84 2117.55,-319.06"/>
</g>
<!-- string&#45;&gt;vector -->
<g id="edge104" class="edge">
<title>string&#45;&gt;vector</title>
<path fill="none" stroke="black" d="M766.17,-144.15C754.91,-119.92 734.01,-74.96 720.57,-46.05"/>
<polygon fill="black" stroke="black" points="723.85,-44.79 716.46,-37.2 717.5,-47.74 723.85,-44.79"/>
</g>
<!-- string&#45;&gt;option -->
<g id="edge105" class="edge">
<title>string&#45;&gt;option</title>
<path fill="none" stroke="black" d="M747.05,-153.11C704.92,-140.77 623.24,-116.84 574.47,-102.56"/>
<polygon fill="black" stroke="black" points="575.74,-99.29 565.16,-99.83 573.77,-106 575.74,-99.29"/>
</g>
<!-- aggregator_factory&#45;&gt;error -->
<g id="edge106" class="edge">
<title>aggregator_factory&#45;&gt;error</title>
<path fill="none" stroke="black" d="M1322.67,-359.76C1328.06,-349.59 1334.56,-336.34 1339,-324 1366.84,-246.6 1343.27,-216.56 1382,-144 1388.17,-132.44 1397.48,-121.48 1406.33,-112.56"/>
<polygon fill="black" stroke="black" points="1408.66,-115.17 1413.46,-105.72 1403.82,-110.11 1408.66,-115.17"/>
</g>
<!-- aggregator_factory&#45;&gt;system_addresses -->
<g id="edge108" class="edge">
<title>aggregator_factory&#45;&gt;system_addresses</title>
<path fill="none" stroke="black" d="M1383.57,-370.35C1522.76,-357.24 1831.75,-328.13 1977.29,-314.42"/>
<polygon fill="black" stroke="black" points="1977.19,-317.94 1986.82,-313.52 1976.53,-310.97 1977.19,-317.94"/>
</g>
<!-- aggregator_factory&#45;&gt;table -->
<g id="edge107" class="edge">
<title>aggregator_factory&#45;&gt;table</title>
<path fill="none" stroke="black" d="M1310.28,-359.7C1309.12,-352.32 1307.74,-343.52 1306.44,-335.25"/>
<polygon fill="black" stroke="black" points="1309.93,-334.93 1304.92,-325.6 1303.02,-336.02 1309.93,-334.93"/>
</g>
<!-- aggregator_factory&#45;&gt;aggregator -->
<g id="edge109" class="edge">
<title>aggregator_factory&#45;&gt;aggregator</title>
<path fill="none" stroke="black" d="M1280.91,-361.29C1259.44,-350.78 1231.08,-336.9 1208.41,-325.8"/>
<polygon fill="black" stroke="black" points="1210,-322.68 1199.48,-321.43 1206.92,-328.97 1210,-322.68"/>
</g>
<!-- optional_aggregator&#45;&gt;error -->
<g id="edge111" class="edge">
<title>optional_aggregator&#45;&gt;error</title>
<path fill="none" stroke="black" d="M1234.26,-431.76C1228.13,-413.7 1220.91,-384.6 1227,-360 1241.63,-300.95 1359.61,-147.62 1363,-144 1374.75,-131.47 1389.63,-119.52 1402.47,-110.16"/>
<polygon fill="black" stroke="black" points="1404.44,-113.05 1410.57,-104.4 1400.39,-107.34 1404.44,-113.05"/>
</g>
<!-- optional_aggregator&#45;&gt;option -->
<g id="edge110" class="edge">
<title>optional_aggregator&#45;&gt;option</title>
<path fill="none" stroke="black" d="M1205.04,-433.44C1161.52,-411.9 1094,-368.56 1094,-307 1094,-307 1094,-307 1094,-233 1094,-127.05 712.04,-99.23 579.59,-92.77"/>
<polygon fill="black" stroke="black" points="579.96,-89.29 569.81,-92.31 579.63,-96.28 579.96,-89.29"/>
</g>
<!-- optional_aggregator&#45;&gt;aggregator -->
<g id="edge112" class="edge">
<title>optional_aggregator&#45;&gt;aggregator</title>
<path fill="none" stroke="black" d="M1222.64,-432.43C1212.85,-422.69 1201.35,-409.64 1194,-396 1183.83,-377.14 1177.74,-353.66 1174.23,-335.56"/>
<polygon fill="black" stroke="black" points="1177.69,-335 1172.51,-325.76 1170.79,-336.22 1177.69,-335"/>
</g>
<!-- optional_aggregator&#45;&gt;aggregator_factory -->
<g id="edge113" class="edge">
<title>optional_aggregator&#45;&gt;aggregator_factory</title>
<path fill="none" stroke="black" d="M1258.43,-432.05C1267.18,-423.54 1277.96,-413.07 1287.61,-403.68"/>
<polygon fill="black" stroke="black" points="1289.92,-406.32 1294.65,-396.84 1285.04,-401.31 1289.92,-406.32"/>
</g>
</g>
</svg>
