<?xml version="1.0" encoding="UTF-8" standalone="no"?>
<!DOCTYPE svg PUBLIC "-//W3C//DTD SVG 1.1//EN"
 "http://www.w3.org/Graphics/SVG/1.1/DTD/svg11.dtd">
<!-- Generated by graphviz version 7.0.4 (20221203.1631)
 -->
<!-- Title: G Pages: 1 -->
<svg width="292pt" height="135pt"
 viewBox="0.00 0.00 292.14 135.00" xmlns="http://www.w3.org/2000/svg" xmlns:xlink="http://www.w3.org/1999/xlink">
<g id="graph0" class="graph" transform="scale(1 1) rotate(0) translate(4 131)">
<title>G</title>
<polygon fill="white" stroke="none" points="-4,4 -4,-131 288.14,-131 288.14,4 -4,4"/>
<g id="clust1" class="cluster">
<title>cluster_bcs</title>
<polygon fill="none" stroke="black" points="8,-8 8,-83 104,-83 104,-8 8,-8"/>
<text text-anchor="middle" x="56" y="-67.8" font-family="Times,serif" font-size="14.00">bcs</text>
</g>
<!-- emit_event -->
<g id="node1" class="node">
<title>emit_event</title>
<ellipse fill="none" stroke="black" cx="127" cy="-109" rx="50.09" ry="18"/>
<text text-anchor="middle" x="127" y="-105.3" font-family="Times,serif" font-size="14.00">emit_event</text>
</g>
<!-- bcs::to_bytes -->
<g id="node2" class="node">
<title>bcs::to_bytes</title>
<ellipse fill="none" stroke="black" cx="56" cy="-34" rx="40.09" ry="18"/>
<text text-anchor="middle" x="56" y="-30.3" font-family="Times,serif" font-size="14.00">to_bytes</text>
</g>
<!-- emit_event&#45;&gt;bcs::to_bytes -->
<g id="edge1" class="edge">
<title>emit_event&#45;&gt;bcs::to_bytes</title>
<path fill="none" stroke="black" d="M111.24,-91.8C101.83,-82.12 89.7,-69.65 79.21,-58.86"/>
<polygon fill="black" stroke="black" points="81.76,-56.47 72.28,-51.74 76.74,-61.35 81.76,-56.47"/>
</g>
<!-- write_to_event_store -->
<g id="node3" class="node">
<title>write_to_event_store</title>
<ellipse fill="none" stroke="black" cx="199" cy="-34" rx="85.29" ry="18"/>
<text text-anchor="middle" x="199" y="-30.3" font-family="Times,serif" font-size="14.00">write_to_event_store</text>
</g>
<!-- emit_event&#45;&gt;write_to_event_store -->
<g id="edge2" class="edge">
<title>emit_event&#45;&gt;write_to_event_store</title>
<path fill="none" stroke="black" d="M142.98,-91.8C152.2,-82.45 163.98,-70.5 174.37,-59.98"/>
<polygon fill="black" stroke="black" points="176.72,-62.57 181.25,-52.99 171.74,-57.66 176.72,-62.57"/>
</g>
</g>
</svg>
