<?xml version="1.0" encoding="UTF-8" standalone="no"?>
<!DOCTYPE svg PUBLIC "-//W3C//DTD SVG 1.1//EN"
 "http://www.w3.org/Graphics/SVG/1.1/DTD/svg11.dtd">
<!-- Generated by graphviz version 7.0.4 (20221203.1631)
 -->
<!-- Title: G Pages: 1 -->
<svg width="630pt" height="227pt"
 viewBox="0.00 0.00 630.00 227.00" xmlns="http://www.w3.org/2000/svg" xmlns:xlink="http://www.w3.org/1999/xlink">
<g id="graph0" class="graph" transform="scale(1 1) rotate(0) translate(4 223)">
<title>G</title>
<polygon fill="white" stroke="none" points="-4,4 -4,-223 626,-223 626,4 -4,4"/>
<g id="clust1" class="cluster">
<title>cluster_block</title>
<polygon fill="none" stroke="black" points="8,-64 8,-211 614,-211 614,-64 8,-64"/>
<text text-anchor="middle" x="311" y="-195.8" font-family="Times,serif" font-size="14.00">block</text>
</g>
<!-- counter -->
<g id="node1" class="node">
<title>counter</title>
<ellipse fill="none" stroke="black" cx="347" cy="-18" rx="37.09" ry="18"/>
<text text-anchor="middle" x="347" y="-14.3" font-family="Times,serif" font-size="14.00">counter</text>
</g>
<!-- block::block_prologue -->
<g id="node2" class="node">
<title>block::block_prologue</title>
<ellipse fill="none" stroke="black" cx="309" cy="-162" rx="65.79" ry="18"/>
<text text-anchor="middle" x="309" y="-158.3" font-family="Times,serif" font-size="14.00">block_prologue</text>
</g>
<!-- block::block_prologue&#45;&gt;counter -->
<g id="edge1" class="edge">
<title>block::block_prologue&#45;&gt;counter</title>
<path fill="none" stroke="black" d="M315.75,-144C319.68,-133.7 324.52,-120.22 328,-108 333.69,-88 338.55,-65.04 341.93,-47.45"/>
<polygon fill="black" stroke="black" points="345.36,-48.19 343.75,-37.72 338.48,-46.9 345.36,-48.19"/>
</g>
<!-- block::emit_new_block_event -->
<g id="node3" class="node">
<title>block::emit_new_block_event</title>
<ellipse fill="none" stroke="black" cx="226" cy="-90" rx="92.88" ry="18"/>
<text text-anchor="middle" x="226" y="-86.3" font-family="Times,serif" font-size="14.00">emit_new_block_event</text>
</g>
<!-- block::block_prologue&#45;&gt;block::emit_new_block_event -->
<g id="edge4" class="edge">
<title>block::block_prologue&#45;&gt;block::emit_new_block_event</title>
<path fill="none" stroke="black" d="M289.33,-144.41C279.04,-135.73 266.25,-124.95 254.86,-115.34"/>
<polygon fill="black" stroke="black" points="257.16,-112.7 247.26,-108.93 252.65,-118.05 257.16,-112.7"/>
</g>
<!-- block::emit_new_block_event&#45;&gt;counter -->
<g id="edge2" class="edge">
<title>block::emit_new_block_event&#45;&gt;counter</title>
<path fill="none" stroke="black" d="M254.68,-72.41C272.48,-62.11 295.43,-48.83 314,-38.09"/>
<polygon fill="black" stroke="black" points="315.58,-41.22 322.49,-33.18 312.08,-35.16 315.58,-41.22"/>
</g>
<!-- block::emit_writeset_block_event -->
<g id="node4" class="node">
<title>block::emit_writeset_block_event</title>
<ellipse fill="none" stroke="black" cx="499" cy="-162" rx="106.68" ry="18"/>
<text text-anchor="middle" x="499" y="-158.3" font-family="Times,serif" font-size="14.00">emit_writeset_block_event</text>
</g>
<!-- block::emit_writeset_block_event&#45;&gt;counter -->
<g id="edge3" class="edge">
<title>block::emit_writeset_block_event&#45;&gt;counter</title>
<path fill="none" stroke="black" d="M480.67,-143.87C453.5,-118.49 402.49,-70.84 371.95,-42.3"/>
<polygon fill="black" stroke="black" points="374.34,-39.76 364.65,-35.49 369.57,-44.87 374.34,-39.76"/>
</g>
<!-- block::emit_genesis_block_event -->
<g id="node5" class="node">
<title>block::emit_genesis_block_event</title>
<ellipse fill="none" stroke="black" cx="121" cy="-162" rx="104.78" ry="18"/>
<text text-anchor="middle" x="121" y="-158.3" font-family="Times,serif" font-size="14.00">emit_genesis_block_event</text>
</g>
<!-- block::emit_genesis_block_event&#45;&gt;block::emit_new_block_event -->
<g id="edge5" class="edge">
<title>block::emit_genesis_block_event&#45;&gt;block::emit_new_block_event</title>
<path fill="none" stroke="black" d="M146.42,-144.05C159.96,-135.03 176.81,-123.79 191.52,-113.99"/>
<polygon fill="black" stroke="black" points="193.18,-117.09 199.56,-108.63 189.3,-111.26 193.18,-117.09"/>
</g>
</g>
</svg>
