<?xml version="1.0" encoding="UTF-8" standalone="no"?>
<!DOCTYPE svg PUBLIC "-//W3C//DTD SVG 1.1//EN"
 "http://www.w3.org/Graphics/SVG/1.1/DTD/svg11.dtd">
<!-- Generated by graphviz version 7.0.4 (20221203.1631)
 -->
<!-- Title: G Pages: 1 -->
<svg width="3857pt" height="634pt"
 viewBox="0.00 0.00 3857.00 634.00" xmlns="http://www.w3.org/2000/svg" xmlns:xlink="http://www.w3.org/1999/xlink">
<g id="graph0" class="graph" transform="scale(1 1) rotate(0) translate(4 630)">
<title>G</title>
<polygon fill="white" stroke="none" points="-4,4 -4,-630 3853,-630 3853,4 -4,4"/>
<g id="clust1" class="cluster">
<title>cluster_account</title>
<polygon fill="none" stroke="black" points="1511,-64 1511,-211 2338,-211 2338,-64 1511,-64"/>
<text text-anchor="middle" x="1924.5" y="-195.8" font-family="Times,serif" font-size="14.00">account</text>
</g>
<g id="clust2" class="cluster">
<title>cluster_coin</title>
<polygon fill="none" stroke="black" points="2339,-219 2339,-294 2429,-294 2429,-219 2339,-219"/>
<text text-anchor="middle" x="2384" y="-278.8" font-family="Times,serif" font-size="14.00">coin</text>
</g>
<g id="clust3" class="cluster">
<title>cluster_aptos_account</title>
<polygon fill="none" stroke="black" points="2511,-302 2511,-618 2959,-618 2959,-302 2511,-302"/>
<text text-anchor="middle" x="2735" y="-602.8" font-family="Times,serif" font-size="14.00">aptos_account</text>
</g>
<g id="clust4" class="cluster">
<title>cluster_voting</title>
<polygon fill="none" stroke="black" points="133,-219 133,-294 223,-294 223,-219 133,-219"/>
<text text-anchor="middle" x="178" y="-278.8" font-family="Times,serif" font-size="14.00">voting</text>
</g>
<g id="clust5" class="cluster">
<title>cluster_stake</title>
<polygon fill="none" stroke="black" points="800,-219 800,-377 1169,-377 1169,-219 800,-219"/>
<text text-anchor="middle" x="984.5" y="-361.8" font-family="Times,serif" font-size="14.00">stake</text>
</g>
<g id="clust6" class="cluster">
<title>cluster_reconfiguration</title>
<polygon fill="none" stroke="black" points="266,-385 266,-460 366,-460 366,-385 266,-385"/>
<text text-anchor="middle" x="316" y="-444.8" font-family="Times,serif" font-size="14.00">reconfiguration</text>
</g>
<g id="clust7" class="cluster">
<title>cluster_aptos_governance</title>
<polygon fill="none" stroke="black" points="8,-302 8,-460 226,-460 226,-302 8,-302"/>
<text text-anchor="middle" x="117" y="-444.8" font-family="Times,serif" font-size="14.00">aptos_governance</text>
</g>
<g id="clust8" class="cluster">
<title>cluster_block</title>
<polygon fill="none" stroke="black" points="2273,-385 2273,-460 2373,-460 2373,-385 2273,-385"/>
<text text-anchor="middle" x="2323" y="-444.8" font-family="Times,serif" font-size="14.00">block</text>
</g>
<g id="clust9" class="cluster">
<title>cluster_staking_contract</title>
<polygon fill="none" stroke="black" points="374,-219 374,-460 792,-460 792,-219 374,-219"/>
<text text-anchor="middle" x="583" y="-444.8" font-family="Times,serif" font-size="14.00">staking_contract</text>
</g>
<g id="clust10" class="cluster">
<title>cluster_vesting</title>
<polygon fill="none" stroke="black" points="1997,-302 1997,-460 2265,-460 2265,-302 1997,-302"/>
<text text-anchor="middle" x="2131" y="-444.8" font-family="Times,serif" font-size="14.00">vesting</text>
</g>
<g id="clust11" class="cluster">
<title>cluster_aptos_coin</title>
<polygon fill="none" stroke="black" points="2102,-468 2102,-543 2338,-543 2338,-468 2102,-468"/>
<text text-anchor="middle" x="2220" y="-527.8" font-family="Times,serif" font-size="14.00">aptos_coin</text>
</g>
<g id="clust12" class="cluster">
<title>cluster_genesis</title>
<polygon fill="none" stroke="black" points="1177,-302 1177,-618 1959,-618 1959,-302 1177,-302"/>
<text text-anchor="middle" x="1568" y="-602.8" font-family="Times,serif" font-size="14.00">genesis</text>
</g>
<g id="clust13" class="cluster">
<title>cluster_managed_coin</title>
<polygon fill="none" stroke="black" points="2303,-302 2303,-377 2399,-377 2399,-302 2303,-302"/>
<text text-anchor="middle" x="2351" y="-361.8" font-family="Times,serif" font-size="14.00">managed_coin</text>
</g>
<g id="clust14" class="cluster">
<title>cluster_resource_account</title>
<polygon fill="none" stroke="black" points="2967,-302 2967,-377 3841,-377 3841,-302 2967,-302"/>
<text text-anchor="middle" x="3404" y="-361.8" font-family="Times,serif" font-size="14.00">resource_account</text>
</g>
<!-- new_event_handle -->
<g id="node1" class="node">
<title>new_event_handle</title>
<ellipse fill="none" stroke="black" cx="1974" cy="-18" rx="76.89" ry="18"/>
<text text-anchor="middle" x="1974" y="-14.3" font-family="Times,serif" font-size="14.00">new_event_handle</text>
</g>
<!-- account::new_event_handle -->
<g id="node2" class="node">
<title>account::new_event_handle</title>
<ellipse fill="none" stroke="black" cx="1896" cy="-162" rx="76.89" ry="18"/>
<text text-anchor="middle" x="1896" y="-158.3" font-family="Times,serif" font-size="14.00">new_event_handle</text>
</g>
<!-- account::new_event_handle&#45;&gt;new_event_handle -->
<g id="edge1" class="edge">
<title>account::new_event_handle&#45;&gt;new_event_handle</title>
<path fill="none" stroke="black" d="M1956.79,-150.57C1981.34,-143.05 2007.29,-130.14 2022,-108 2032.82,-91.71 2029.77,-81.94 2022,-64 2018.63,-56.22 2013.17,-49.16 2007.13,-43.07"/>
<polygon fill="black" stroke="black" points="2009.54,-40.53 1999.78,-36.4 2004.83,-45.71 2009.54,-40.53"/>
</g>
<!-- account::create_account_unchecked -->
<g id="node3" class="node">
<title>account::create_account_unchecked</title>
<ellipse fill="none" stroke="black" cx="1908" cy="-90" rx="105.08" ry="18"/>
<text text-anchor="middle" x="1908" y="-86.3" font-family="Times,serif" font-size="14.00">create_account_unchecked</text>
</g>
<!-- account::create_account_unchecked&#45;&gt;new_event_handle -->
<g id="edge2" class="edge">
<title>account::create_account_unchecked&#45;&gt;new_event_handle</title>
<path fill="none" stroke="black" d="M1923.98,-72.05C1931.92,-63.63 1941.68,-53.28 1950.46,-43.97"/>
<polygon fill="black" stroke="black" points="1952.82,-46.57 1957.13,-36.89 1947.73,-41.77 1952.82,-46.57"/>
</g>
<!-- coin::register -->
<g id="node4" class="node">
<title>coin::register</title>
<ellipse fill="none" stroke="black" cx="2384" cy="-245" rx="37.09" ry="18"/>
<text text-anchor="middle" x="2384" y="-241.3" font-family="Times,serif" font-size="14.00">register</text>
</g>
<!-- coin::register&#45;&gt;account::new_event_handle -->
<g id="edge3" class="edge">
<title>coin::register&#45;&gt;account::new_event_handle</title>
<path fill="none" stroke="black" d="M2354.93,-233.4C2338.71,-228.01 2318,-221.98 2299,-219 2264.08,-213.52 2015.07,-220.41 1981,-211 1962.11,-205.78 1942.93,-195.48 1927.59,-185.75"/>
<polygon fill="black" stroke="black" points="1929.64,-182.91 1919.37,-180.34 1925.79,-188.76 1929.64,-182.91"/>
</g>
<!-- aptos_account::set_allow_direct_coin_transfers -->
<g id="node5" class="node">
<title>aptos_account::set_allow_direct_coin_transfers</title>
<ellipse fill="none" stroke="black" cx="2828" cy="-569" rx="122.68" ry="18"/>
<text text-anchor="middle" x="2828" y="-565.3" font-family="Times,serif" font-size="14.00">set_allow_direct_coin_transfers</text>
</g>
<!-- aptos_account::set_allow_direct_coin_transfers&#45;&gt;account::new_event_handle -->
<g id="edge4" class="edge">
<title>aptos_account::set_allow_direct_coin_transfers&#45;&gt;account::new_event_handle</title>
<path fill="none" stroke="black" d="M2824.7,-550.76C2819.5,-522.08 2810,-462.71 2810,-412 2810,-412 2810,-412 2810,-327 2810,-169.48 2030.29,-224.42 1981,-211 1962.09,-205.85 1942.91,-195.55 1927.57,-185.82"/>
<polygon fill="black" stroke="black" points="1929.63,-182.98 1919.35,-180.39 1925.77,-188.82 1929.63,-182.98"/>
</g>
<!-- voting::register -->
<g id="node6" class="node">
<title>voting::register</title>
<ellipse fill="none" stroke="black" cx="178" cy="-245" rx="37.09" ry="18"/>
<text text-anchor="middle" x="178" y="-241.3" font-family="Times,serif" font-size="14.00">register</text>
</g>
<!-- voting::register&#45;&gt;account::new_event_handle -->
<g id="edge5" class="edge">
<title>voting::register&#45;&gt;account::new_event_handle</title>
<path fill="none" stroke="black" d="M209.34,-234.8C230.72,-229.01 259.81,-222.06 286,-219 328.05,-214.09 1769.06,-221.77 1810,-211 1829.13,-205.97 1848.53,-195.69 1864.05,-185.92"/>
<polygon fill="black" stroke="black" points="1865.93,-188.88 1872.38,-180.47 1862.09,-183.02 1865.93,-188.88"/>
</g>
<!-- stake::initialize_owner -->
<g id="node7" class="node">
<title>stake::initialize_owner</title>
<ellipse fill="none" stroke="black" cx="1084" cy="-245" rx="67.69" ry="18"/>
<text text-anchor="middle" x="1084" y="-241.3" font-family="Times,serif" font-size="14.00">initialize_owner</text>
</g>
<!-- stake::initialize_owner&#45;&gt;account::new_event_handle -->
<g id="edge6" class="edge">
<title>stake::initialize_owner&#45;&gt;account::new_event_handle</title>
<path fill="none" stroke="black" d="M1151.56,-242.7C1319.67,-239.21 1747.81,-228.7 1810,-211 1828.89,-205.63 1848.14,-195.41 1863.62,-185.78"/>
<polygon fill="black" stroke="black" points="1865.43,-188.78 1871.94,-180.42 1861.64,-182.9 1865.43,-188.78"/>
</g>
<!-- reconfiguration::initialize -->
<g id="node8" class="node">
<title>reconfiguration::initialize</title>
<ellipse fill="none" stroke="black" cx="316" cy="-411" rx="41.69" ry="18"/>
<text text-anchor="middle" x="316" y="-407.3" font-family="Times,serif" font-size="14.00">initialize</text>
</g>
<!-- reconfiguration::initialize&#45;&gt;account::new_event_handle -->
<g id="edge7" class="edge">
<title>reconfiguration::initialize&#45;&gt;account::new_event_handle</title>
<path fill="none" stroke="black" d="M314.75,-392.57C313.04,-353.83 315.15,-260.73 370,-219 385.92,-206.89 1790.66,-216.09 1810,-211 1829.13,-205.97 1848.52,-195.68 1864.05,-185.92"/>
<polygon fill="black" stroke="black" points="1865.92,-188.87 1872.38,-180.47 1862.09,-183.02 1865.92,-188.87"/>
</g>
<!-- aptos_governance::initialize -->
<g id="node9" class="node">
<title>aptos_governance::initialize</title>
<ellipse fill="none" stroke="black" cx="176" cy="-328" rx="41.69" ry="18"/>
<text text-anchor="middle" x="176" y="-324.3" font-family="Times,serif" font-size="14.00">initialize</text>
</g>
<!-- aptos_governance::initialize&#45;&gt;account::new_event_handle -->
<g id="edge8" class="edge">
<title>aptos_governance::initialize&#45;&gt;account::new_event_handle</title>
<path fill="none" stroke="black" d="M198.74,-312.6C207.62,-306.9 217.84,-300.23 227,-294 274.42,-261.75 277.43,-236.65 332,-219 371.06,-206.36 1770.29,-221.45 1810,-211 1829.13,-205.97 1848.53,-195.69 1864.05,-185.92"/>
<polygon fill="black" stroke="black" points="1865.93,-188.88 1872.38,-180.47 1862.09,-183.02 1865.93,-188.88"/>
</g>
<!-- aptos_governance::initialize&#45;&gt;voting::register -->
<g id="edge22" class="edge">
<title>aptos_governance::initialize&#45;&gt;voting::register</title>
<path fill="none" stroke="black" d="M176.42,-309.82C176.67,-299.69 177,-286.6 177.29,-274.92"/>
<polygon fill="black" stroke="black" points="180.78,-275.03 177.53,-264.95 173.79,-274.86 180.78,-275.03"/>
</g>
<!-- block::initialize -->
<g id="node10" class="node">
<title>block::initialize</title>
<ellipse fill="none" stroke="black" cx="2323" cy="-411" rx="41.69" ry="18"/>
<text text-anchor="middle" x="2323" y="-407.3" font-family="Times,serif" font-size="14.00">initialize</text>
</g>
<!-- block::initialize&#45;&gt;account::new_event_handle -->
<g id="edge9" class="edge">
<title>block::initialize&#45;&gt;account::new_event_handle</title>
<path fill="none" stroke="black" d="M2309.95,-393.75C2306.14,-388.57 2302.15,-382.7 2299,-377 2281.64,-345.57 2295.31,-326.42 2269,-302 2170.61,-210.68 2104.11,-264.52 1981,-211 1964.2,-203.7 1946.44,-194.01 1931.52,-185.25"/>
<polygon fill="black" stroke="black" points="1933.37,-182.28 1922.99,-180.15 1929.78,-188.28 1933.37,-182.28"/>
</g>
<!-- staking_contract::new_staking_contracts_holder -->
<g id="node11" class="node">
<title>staking_contract::new_staking_contracts_holder</title>
<ellipse fill="none" stroke="black" cx="500" cy="-245" rx="118.08" ry="18"/>
<text text-anchor="middle" x="500" y="-241.3" font-family="Times,serif" font-size="14.00">new_staking_contracts_holder</text>
</g>
<!-- staking_contract::new_staking_contracts_holder&#45;&gt;account::new_event_handle -->
<g id="edge10" class="edge">
<title>staking_contract::new_staking_contracts_holder&#45;&gt;account::new_event_handle</title>
<path fill="none" stroke="black" d="M562.31,-229.32C582.79,-225.14 605.76,-221.14 627,-219 659.7,-215.7 1778.23,-219.38 1810,-211 1829.12,-205.96 1848.52,-195.67 1864.04,-185.91"/>
<polygon fill="black" stroke="black" points="1865.92,-188.86 1872.37,-180.46 1862.09,-183.01 1865.92,-188.86"/>
</g>
<!-- vesting::create_vesting_contract -->
<g id="node12" class="node">
<title>vesting::create_vesting_contract</title>
<ellipse fill="none" stroke="black" cx="2099" cy="-411" rx="94.48" ry="18"/>
<text text-anchor="middle" x="2099" y="-407.3" font-family="Times,serif" font-size="14.00">create_vesting_contract</text>
</g>
<!-- vesting::create_vesting_contract&#45;&gt;account::new_event_handle -->
<g id="edge11" class="edge">
<title>vesting::create_vesting_contract&#45;&gt;account::new_event_handle</title>
<path fill="none" stroke="black" d="M2032.77,-397.88C2019.46,-393.07 2006.39,-386.36 1996,-377 1968.94,-352.63 1978.24,-335.07 1963,-302 1944.99,-262.91 1923.19,-218.13 1909.46,-190.21"/>
<polygon fill="black" stroke="black" points="1912.67,-188.81 1905.11,-181.39 1906.39,-191.9 1912.67,-188.81"/>
</g>
<!-- vesting::create_vesting_contract_account -->
<g id="node19" class="node">
<title>vesting::create_vesting_contract_account</title>
<ellipse fill="none" stroke="black" cx="2131" cy="-328" rx="126.18" ry="18"/>
<text text-anchor="middle" x="2131" y="-324.3" font-family="Times,serif" font-size="14.00">create_vesting_contract_account</text>
</g>
<!-- vesting::create_vesting_contract&#45;&gt;vesting::create_vesting_contract_account -->
<g id="edge43" class="edge">
<title>vesting::create_vesting_contract&#45;&gt;vesting::create_vesting_contract_account</title>
<path fill="none" stroke="black" d="M2105.79,-392.82C2109.92,-382.37 2115.29,-368.77 2120.01,-356.81"/>
<polygon fill="black" stroke="black" points="2123.14,-358.43 2123.56,-347.84 2116.63,-355.85 2123.14,-358.43"/>
</g>
<!-- staking_contract::create_staking_contract_with_coins -->
<g id="node27" class="node">
<title>staking_contract::create_staking_contract_with_coins</title>
<ellipse fill="none" stroke="black" cx="647" cy="-328" rx="137.28" ry="18"/>
<text text-anchor="middle" x="647" y="-324.3" font-family="Times,serif" font-size="14.00">create_staking_contract_with_coins</text>
</g>
<!-- vesting::create_vesting_contract&#45;&gt;staking_contract::create_staking_contract_with_coins -->
<g id="edge51" class="edge">
<title>vesting::create_vesting_contract&#45;&gt;staking_contract::create_staking_contract_with_coins</title>
<path fill="none" stroke="black" d="M2039.4,-396.71C2015.74,-392.05 1988.21,-387.39 1963,-385 1898.45,-378.89 860.01,-387.28 796,-377 762.45,-371.61 726.13,-360.04 697.75,-349.6"/>
<polygon fill="black" stroke="black" points="699.29,-346.45 688.7,-346.21 696.83,-353 699.29,-346.45"/>
</g>
<!-- account::create_account -->
<g id="node13" class="node">
<title>account::create_account</title>
<ellipse fill="none" stroke="black" cx="2054" cy="-162" rx="63.89" ry="18"/>
<text text-anchor="middle" x="2054" y="-158.3" font-family="Times,serif" font-size="14.00">create_account</text>
</g>
<!-- account::create_account&#45;&gt;account::create_account_unchecked -->
<g id="edge12" class="edge">
<title>account::create_account&#45;&gt;account::create_account_unchecked</title>
<path fill="none" stroke="black" d="M2022.68,-145.98C2002.19,-136.16 1975.11,-123.18 1952.41,-112.29"/>
<polygon fill="black" stroke="black" points="1954.23,-109.28 1943.69,-108.11 1951.2,-115.59 1954.23,-109.28"/>
</g>
<!-- account::create_framework_reserved_account -->
<g id="node14" class="node">
<title>account::create_framework_reserved_account</title>
<ellipse fill="none" stroke="black" cx="1660" cy="-162" rx="141.07" ry="18"/>
<text text-anchor="middle" x="1660" y="-158.3" font-family="Times,serif" font-size="14.00">create_framework_reserved_account</text>
</g>
<!-- account::create_framework_reserved_account&#45;&gt;account::create_account_unchecked -->
<g id="edge13" class="edge">
<title>account::create_framework_reserved_account&#45;&gt;account::create_account_unchecked</title>
<path fill="none" stroke="black" d="M1716.28,-145.12C1754.29,-134.39 1804.55,-120.2 1844.07,-109.04"/>
<polygon fill="black" stroke="black" points="1844.79,-112.48 1853.46,-106.39 1842.89,-105.74 1844.79,-112.48"/>
</g>
<!-- account::create_resource_account -->
<g id="node15" class="node">
<title>account::create_resource_account</title>
<ellipse fill="none" stroke="black" cx="2233" cy="-162" rx="97.48" ry="18"/>
<text text-anchor="middle" x="2233" y="-158.3" font-family="Times,serif" font-size="14.00">create_resource_account</text>
</g>
<!-- account::create_resource_account&#45;&gt;account::create_account_unchecked -->
<g id="edge14" class="edge">
<title>account::create_resource_account&#45;&gt;account::create_account_unchecked</title>
<path fill="none" stroke="black" d="M2171.11,-147.67C2117.49,-136.12 2039.8,-119.39 1982.73,-107.1"/>
<polygon fill="black" stroke="black" points="1983.6,-103.7 1973.09,-105.02 1982.12,-110.55 1983.6,-103.7"/>
</g>
<!-- aptos_coin::configure_accounts_for_test -->
<g id="node16" class="node">
<title>aptos_coin::configure_accounts_for_test</title>
<ellipse fill="none" stroke="black" cx="2220" cy="-494" rx="110.48" ry="18"/>
<text text-anchor="middle" x="2220" y="-490.3" font-family="Times,serif" font-size="14.00">configure_accounts_for_test</text>
</g>
<!-- aptos_coin::configure_accounts_for_test&#45;&gt;coin::register -->
<g id="edge15" class="edge">
<title>aptos_coin::configure_accounts_for_test&#45;&gt;coin::register</title>
<path fill="none" stroke="black" d="M2306.86,-482.58C2337,-477.36 2366.02,-469.97 2377,-460 2429.69,-412.16 2414.59,-372.22 2403,-302 2401.43,-292.46 2398.44,-282.35 2395.29,-273.39"/>
<polygon fill="black" stroke="black" points="2398.63,-272.33 2391.84,-264.2 2392.07,-274.79 2398.63,-272.33"/>
</g>
<!-- aptos_account::create_account -->
<g id="node17" class="node">
<title>aptos_account::create_account</title>
<ellipse fill="none" stroke="black" cx="2652" cy="-328" rx="63.89" ry="18"/>
<text text-anchor="middle" x="2652" y="-324.3" font-family="Times,serif" font-size="14.00">create_account</text>
</g>
<!-- aptos_account::create_account&#45;&gt;coin::register -->
<g id="edge16" class="edge">
<title>aptos_account::create_account&#45;&gt;coin::register</title>
<path fill="none" stroke="black" d="M2609.53,-314.17C2559.18,-298.94 2475.78,-273.74 2425.74,-258.62"/>
<polygon fill="black" stroke="black" points="2427.02,-255.35 2416.44,-255.8 2425,-262.05 2427.02,-255.35"/>
</g>
<!-- aptos_account::create_account&#45;&gt;account::create_account -->
<g id="edge30" class="edge">
<title>aptos_account::create_account&#45;&gt;account::create_account</title>
<path fill="none" stroke="black" d="M2636.61,-310.21C2612.08,-284.82 2561.33,-237.65 2507,-219 2467.06,-205.29 2167.33,-223.53 2127,-211 2110.57,-205.89 2094.36,-195.88 2081.41,-186.32"/>
<polygon fill="black" stroke="black" points="2083.85,-183.78 2073.79,-180.44 2079.57,-189.32 2083.85,-183.78"/>
</g>
<!-- aptos_account::deposit_coins -->
<g id="node18" class="node">
<title>aptos_account::deposit_coins</title>
<ellipse fill="none" stroke="black" cx="2581" cy="-411" rx="59.29" ry="18"/>
<text text-anchor="middle" x="2581" y="-407.3" font-family="Times,serif" font-size="14.00">deposit_coins</text>
</g>
<!-- aptos_account::deposit_coins&#45;&gt;coin::register -->
<g id="edge17" class="edge">
<title>aptos_account::deposit_coins&#45;&gt;coin::register</title>
<path fill="none" stroke="black" d="M2561.39,-393.68C2525.91,-364.14 2451.01,-301.78 2410.82,-268.33"/>
<polygon fill="black" stroke="black" points="2413.18,-265.74 2403.26,-262.03 2408.7,-271.12 2413.18,-265.74"/>
</g>
<!-- aptos_account::deposit_coins&#45;&gt;aptos_account::create_account -->
<g id="edge41" class="edge">
<title>aptos_account::deposit_coins&#45;&gt;aptos_account::create_account</title>
<path fill="none" stroke="black" d="M2595.71,-393.22C2605.61,-381.92 2618.84,-366.83 2629.99,-354.11"/>
<polygon fill="black" stroke="black" points="2632.35,-356.73 2636.31,-346.9 2627.09,-352.11 2632.35,-356.73"/>
</g>
<!-- vesting::create_vesting_contract_account&#45;&gt;coin::register -->
<g id="edge18" class="edge">
<title>vesting::create_vesting_contract_account&#45;&gt;coin::register</title>
<path fill="none" stroke="black" d="M2180.68,-311.09C2227.94,-295.96 2298.23,-273.46 2342.55,-259.27"/>
<polygon fill="black" stroke="black" points="2343.61,-262.61 2352.06,-256.22 2341.47,-255.94 2343.61,-262.61"/>
</g>
<!-- vesting::create_vesting_contract_account&#45;&gt;account::create_resource_account -->
<g id="edge35" class="edge">
<title>vesting::create_vesting_contract_account&#45;&gt;account::create_resource_account</title>
<path fill="none" stroke="black" d="M2141.72,-309.76C2159.52,-281.14 2195.29,-223.63 2216.38,-189.72"/>
<polygon fill="black" stroke="black" points="2219.31,-191.64 2221.62,-181.3 2213.37,-187.94 2219.31,-191.64"/>
</g>
<!-- genesis::create_account -->
<g id="node20" class="node">
<title>genesis::create_account</title>
<ellipse fill="none" stroke="black" cx="1830" cy="-328" rx="63.89" ry="18"/>
<text text-anchor="middle" x="1830" y="-324.3" font-family="Times,serif" font-size="14.00">create_account</text>
</g>
<!-- genesis::create_account&#45;&gt;coin::register -->
<g id="edge19" class="edge">
<title>genesis::create_account&#45;&gt;coin::register</title>
<path fill="none" stroke="black" d="M1884.66,-318.28C1916.28,-313.32 1956.86,-307.1 1993,-302 2020.51,-298.12 2027.47,-297.78 2055,-294 2155.94,-280.13 2274.1,-262.56 2337.74,-253"/>
<polygon fill="black" stroke="black" points="2338.11,-256.48 2347.47,-251.53 2337.06,-249.56 2338.11,-256.48"/>
</g>
<!-- genesis::create_account&#45;&gt;account::create_account -->
<g id="edge31" class="edge">
<title>genesis::create_account&#45;&gt;account::create_account</title>
<path fill="none" stroke="black" d="M1852.3,-310.68C1892.38,-281.33 1976.71,-219.59 2022.61,-185.98"/>
<polygon fill="black" stroke="black" points="2024.57,-188.88 2030.57,-180.15 2020.44,-183.24 2024.57,-188.88"/>
</g>
<!-- managed_coin::register -->
<g id="node21" class="node">
<title>managed_coin::register</title>
<ellipse fill="none" stroke="black" cx="2352" cy="-328" rx="37.09" ry="18"/>
<text text-anchor="middle" x="2352" y="-324.3" font-family="Times,serif" font-size="14.00">register</text>
</g>
<!-- managed_coin::register&#45;&gt;coin::register -->
<g id="edge20" class="edge">
<title>managed_coin::register&#45;&gt;coin::register</title>
<path fill="none" stroke="black" d="M2358.79,-309.82C2362.94,-299.3 2368.36,-285.59 2373.11,-273.57"/>
<polygon fill="black" stroke="black" points="2376.25,-275.15 2376.67,-264.56 2369.74,-272.58 2376.25,-275.15"/>
</g>
<!-- resource_account::create_resource_account_and_fund -->
<g id="node22" class="node">
<title>resource_account::create_resource_account_and_fund</title>
<ellipse fill="none" stroke="black" cx="3110" cy="-328" rx="135.38" ry="18"/>
<text text-anchor="middle" x="3110" y="-324.3" font-family="Times,serif" font-size="14.00">create_resource_account_and_fund</text>
</g>
<!-- resource_account::create_resource_account_and_fund&#45;&gt;coin::register -->
<g id="edge21" class="edge">
<title>resource_account::create_resource_account_and_fund&#45;&gt;coin::register</title>
<path fill="none" stroke="black" d="M3033.1,-312.85C3010.56,-308.99 2985.84,-305.04 2963,-302 2766.76,-275.86 2531.55,-256.92 2432.13,-249.48"/>
<polygon fill="black" stroke="black" points="2432.43,-245.99 2422.19,-248.74 2431.91,-252.97 2432.43,-245.99"/>
</g>
<!-- resource_account::create_resource_account_and_fund&#45;&gt;account::create_resource_account -->
<g id="edge37" class="edge">
<title>resource_account::create_resource_account_and_fund&#45;&gt;account::create_resource_account</title>
<path fill="none" stroke="black" d="M3041.17,-312.17C2939.77,-290.52 2744.18,-249.53 2577,-219 2488.9,-202.91 2387.68,-186.71 2317.96,-175.9"/>
<polygon fill="black" stroke="black" points="2318.53,-172.44 2308.12,-174.38 2317.46,-179.36 2318.53,-172.44"/>
</g>
<!-- stake::initialize_stake_owner -->
<g id="node23" class="node">
<title>stake::initialize_stake_owner</title>
<ellipse fill="none" stroke="black" cx="898" cy="-328" rx="90.18" ry="18"/>
<text text-anchor="middle" x="898" y="-324.3" font-family="Times,serif" font-size="14.00">initialize_stake_owner</text>
</g>
<!-- stake::initialize_stake_owner&#45;&gt;stake::initialize_owner -->
<g id="edge23" class="edge">
<title>stake::initialize_stake_owner&#45;&gt;stake::initialize_owner</title>
<path fill="none" stroke="black" d="M934.3,-311.19C964.32,-298.12 1007.08,-279.5 1039.21,-265.5"/>
<polygon fill="black" stroke="black" points="1040.51,-268.76 1048.28,-261.55 1037.72,-262.34 1040.51,-268.76"/>
</g>
<!-- stake::initialize_validator -->
<g id="node24" class="node">
<title>stake::initialize_validator</title>
<ellipse fill="none" stroke="black" cx="1084" cy="-328" rx="77.19" ry="18"/>
<text text-anchor="middle" x="1084" y="-324.3" font-family="Times,serif" font-size="14.00">initialize_validator</text>
</g>
<!-- stake::initialize_validator&#45;&gt;stake::initialize_owner -->
<g id="edge24" class="edge">
<title>stake::initialize_validator&#45;&gt;stake::initialize_owner</title>
<path fill="none" stroke="black" d="M1084,-309.82C1084,-299.69 1084,-286.6 1084,-274.92"/>
<polygon fill="black" stroke="black" points="1087.5,-274.95 1084,-264.95 1080.5,-274.95 1087.5,-274.95"/>
</g>
<!-- genesis::initialize -->
<g id="node25" class="node">
<title>genesis::initialize</title>
<ellipse fill="none" stroke="black" cx="1592" cy="-494" rx="41.69" ry="18"/>
<text text-anchor="middle" x="1592" y="-490.3" font-family="Times,serif" font-size="14.00">initialize</text>
</g>
<!-- genesis::initialize&#45;&gt;reconfiguration::initialize -->
<g id="edge25" class="edge">
<title>genesis::initialize&#45;&gt;reconfiguration::initialize</title>
<path fill="none" stroke="black" d="M1568.69,-478.59C1560.55,-474.31 1551.15,-470.19 1542,-468 1510.34,-460.41 400.39,-471.67 370,-460 357.27,-455.11 345.61,-445.72 336.41,-436.53"/>
<polygon fill="black" stroke="black" points="339.12,-434.29 329.73,-429.38 334.01,-439.08 339.12,-434.29"/>
</g>
<!-- genesis::initialize&#45;&gt;block::initialize -->
<g id="edge27" class="edge">
<title>genesis::initialize&#45;&gt;block::initialize</title>
<path fill="none" stroke="black" d="M1625.3,-482.72C1644.82,-477.21 1670.07,-470.96 1693,-468 1724.74,-463.91 2239.17,-471.58 2269,-460 2281.71,-455.07 2293.37,-445.66 2302.57,-436.48"/>
<polygon fill="black" stroke="black" points="2304.97,-439.04 2309.26,-429.35 2299.86,-434.25 2304.97,-439.04"/>
</g>
<!-- genesis::initialize&#45;&gt;account::create_framework_reserved_account -->
<g id="edge33" class="edge">
<title>genesis::initialize&#45;&gt;account::create_framework_reserved_account</title>
<path fill="none" stroke="black" d="M1568.69,-478.58C1560.55,-474.31 1551.16,-470.19 1542,-468 1524.71,-463.86 274.53,-472.61 262,-460 204.78,-402.42 278.67,-250.79 322,-219 369.14,-184.42 1168.29,-169.61 1508.56,-164.85"/>
<polygon fill="black" stroke="black" points="1508.51,-168.35 1518.46,-164.71 1508.41,-161.35 1508.51,-168.35"/>
</g>
<!-- aptos_governance::initialize_for_verification -->
<g id="node26" class="node">
<title>aptos_governance::initialize_for_verification</title>
<ellipse fill="none" stroke="black" cx="117" cy="-411" rx="100.98" ry="18"/>
<text text-anchor="middle" x="117" y="-407.3" font-family="Times,serif" font-size="14.00">initialize_for_verification</text>
</g>
<!-- aptos_governance::initialize_for_verification&#45;&gt;aptos_governance::initialize -->
<g id="edge26" class="edge">
<title>aptos_governance::initialize_for_verification&#45;&gt;aptos_governance::initialize</title>
<path fill="none" stroke="black" d="M129.51,-392.82C137.6,-381.72 148.27,-367.07 157.35,-354.61"/>
<polygon fill="black" stroke="black" points="159.96,-356.97 163.02,-346.82 154.3,-352.85 159.96,-356.97"/>
</g>
<!-- staking_contract::create_staking_contract_with_coins&#45;&gt;staking_contract::new_staking_contracts_holder -->
<g id="edge28" class="edge">
<title>staking_contract::create_staking_contract_with_coins&#45;&gt;staking_contract::new_staking_contracts_holder</title>
<path fill="none" stroke="black" d="M616.18,-310.02C594.16,-297.88 564.31,-281.43 540.38,-268.25"/>
<polygon fill="black" stroke="black" points="542.3,-265.31 531.85,-263.55 538.92,-271.44 542.3,-265.31"/>
</g>
<!-- staking_contract::create_stake_pool -->
<g id="node30" class="node">
<title>staking_contract::create_stake_pool</title>
<ellipse fill="none" stroke="black" cx="710" cy="-245" rx="74.19" ry="18"/>
<text text-anchor="middle" x="710" y="-241.3" font-family="Times,serif" font-size="14.00">create_stake_pool</text>
</g>
<!-- staking_contract::create_staking_contract_with_coins&#45;&gt;staking_contract::create_stake_pool -->
<g id="edge53" class="edge">
<title>staking_contract::create_staking_contract_with_coins&#45;&gt;staking_contract::create_stake_pool</title>
<path fill="none" stroke="black" d="M660.36,-309.82C668.88,-298.87 680.09,-284.46 689.69,-272.11"/>
<polygon fill="black" stroke="black" points="692.35,-274.39 695.73,-264.35 686.83,-270.09 692.35,-274.39"/>
</g>
<!-- genesis::create_employee_validators -->
<g id="node28" class="node">
<title>genesis::create_employee_validators</title>
<ellipse fill="none" stroke="black" cx="1812" cy="-494" rx="109.68" ry="18"/>
<text text-anchor="middle" x="1812" y="-490.3" font-family="Times,serif" font-size="14.00">create_employee_validators</text>
</g>
<!-- genesis::create_employee_validators&#45;&gt;vesting::create_vesting_contract -->
<g id="edge29" class="edge">
<title>genesis::create_employee_validators&#45;&gt;vesting::create_vesting_contract</title>
<path fill="none" stroke="black" d="M1881.61,-479.67C1907.36,-474.25 1936.67,-467.49 1963,-460 1991.55,-451.88 2022.83,-440.98 2048.18,-431.62"/>
<polygon fill="black" stroke="black" points="2049.09,-435.02 2057.24,-428.25 2046.65,-428.46 2049.09,-435.02"/>
</g>
<!-- genesis::initialize_core_resources_and_aptos_coin -->
<g id="node29" class="node">
<title>genesis::initialize_core_resources_and_aptos_coin</title>
<ellipse fill="none" stroke="black" cx="1793" cy="-569" rx="157.87" ry="18"/>
<text text-anchor="middle" x="1793" y="-565.3" font-family="Times,serif" font-size="14.00">initialize_core_resources_and_aptos_coin</text>
</g>
<!-- genesis::initialize_core_resources_and_aptos_coin&#45;&gt;account::create_account -->
<g id="edge32" class="edge">
<title>genesis::initialize_core_resources_and_aptos_coin&#45;&gt;account::create_account</title>
<path fill="none" stroke="black" d="M1949.31,-566.11C2098.71,-563.45 2306.36,-557.24 2342,-543 2424.51,-510.04 2493,-500.85 2493,-412 2493,-412 2493,-412 2493,-327 2493,-272.09 2479.96,-247.46 2433,-219 2403.91,-201.37 2159.45,-221.18 2127,-211 2110.58,-205.85 2094.37,-195.84 2081.42,-186.28"/>
<polygon fill="black" stroke="black" points="2083.86,-183.74 2073.8,-180.41 2079.58,-189.29 2083.86,-183.74"/>
</g>
<!-- genesis::initialize_core_resources_and_aptos_coin&#45;&gt;aptos_coin::configure_accounts_for_test -->
<g id="edge39" class="edge">
<title>genesis::initialize_core_resources_and_aptos_coin&#45;&gt;aptos_coin::configure_accounts_for_test</title>
<path fill="none" stroke="black" d="M1889.75,-554.43C1913.71,-550.89 1939.31,-546.95 1963,-543 2022.62,-533.05 2089.77,-520.46 2140.47,-510.67"/>
<polygon fill="black" stroke="black" points="2141.04,-514.13 2150.19,-508.79 2139.71,-507.26 2141.04,-514.13"/>
</g>
<!-- staking_contract::create_stake_pool&#45;&gt;account::create_resource_account -->
<g id="edge34" class="edge">
<title>staking_contract::create_stake_pool&#45;&gt;account::create_resource_account</title>
<path fill="none" stroke="black" d="M751.04,-229.56C765.11,-225.29 781.07,-221.17 796,-219 869.18,-208.36 2054.77,-226.82 2127,-211 2150.59,-205.83 2175.25,-195.03 2194.85,-184.98"/>
<polygon fill="black" stroke="black" points="2196.35,-188.14 2203.55,-180.37 2193.08,-181.96 2196.35,-188.14"/>
</g>
<!-- staking_contract::create_stake_pool&#45;&gt;stake::initialize_stake_owner -->
<g id="edge46" class="edge">
<title>staking_contract::create_stake_pool&#45;&gt;stake::initialize_stake_owner</title>
<path fill="none" stroke="black" d="M736.04,-262.3C752.75,-272.31 775.15,-284.91 796,-294 808.86,-299.6 822.98,-304.77 836.52,-309.26"/>
<polygon fill="black" stroke="black" points="835.18,-312.51 845.77,-312.26 837.33,-305.85 835.18,-312.51"/>
</g>
<!-- resource_account::create_resource_account -->
<g id="node31" class="node">
<title>resource_account::create_resource_account</title>
<ellipse fill="none" stroke="black" cx="3361" cy="-328" rx="97.48" ry="18"/>
<text text-anchor="middle" x="3361" y="-324.3" font-family="Times,serif" font-size="14.00">create_resource_account</text>
</g>
<!-- resource_account::create_resource_account&#45;&gt;account::create_resource_account -->
<g id="edge36" class="edge">
<title>resource_account::create_resource_account&#45;&gt;account::create_resource_account</title>
<path fill="none" stroke="black" d="M3303.94,-313.02C3287.83,-309.25 3270.26,-305.3 3254,-302 3041.83,-258.91 2988.47,-248.61 2774,-219 2619.97,-197.74 2440.25,-180.66 2331.62,-171.18"/>
<polygon fill="black" stroke="black" points="2332.13,-167.71 2321.87,-170.33 2331.53,-174.68 2332.13,-167.71"/>
</g>
<!-- resource_account::create_resource_account_and_publish_package -->
<g id="node32" class="node">
<title>resource_account::create_resource_account_and_publish_package</title>
<ellipse fill="none" stroke="black" cx="3655" cy="-328" rx="178.17" ry="18"/>
<text text-anchor="middle" x="3655" y="-324.3" font-family="Times,serif" font-size="14.00">create_resource_account_and_publish_package</text>
</g>
<!-- resource_account::create_resource_account_and_publish_package&#45;&gt;account::create_resource_account -->
<g id="edge38" class="edge">
<title>resource_account::create_resource_account_and_publish_package&#45;&gt;account::create_resource_account</title>
<path fill="none" stroke="black" d="M3575.79,-311.47C3453.42,-288.03 3210.79,-243.71 3003,-219 2766.43,-190.86 2487.17,-174.8 2338.55,-167.61"/>
<polygon fill="black" stroke="black" points="2338.87,-164.12 2328.71,-167.14 2338.53,-171.12 2338.87,-164.12"/>
</g>
<!-- aptos_account::transfer -->
<g id="node33" class="node">
<title>aptos_account::transfer</title>
<ellipse fill="none" stroke="black" cx="2709" cy="-411" rx="37.89" ry="18"/>
<text text-anchor="middle" x="2709" y="-407.3" font-family="Times,serif" font-size="14.00">transfer</text>
</g>
<!-- aptos_account::transfer&#45;&gt;aptos_account::create_account -->
<g id="edge40" class="edge">
<title>aptos_account::transfer&#45;&gt;aptos_account::create_account</title>
<path fill="none" stroke="black" d="M2697.47,-393.61C2689.69,-382.56 2679.26,-367.74 2670.36,-355.08"/>
<polygon fill="black" stroke="black" points="2673.4,-353.33 2664.78,-347.16 2667.67,-357.35 2673.4,-353.33"/>
</g>
<!-- aptos_account::transfer_coins -->
<g id="node34" class="node">
<title>aptos_account::transfer_coins</title>
<ellipse fill="none" stroke="black" cx="2581" cy="-494" rx="60.39" ry="18"/>
<text text-anchor="middle" x="2581" y="-490.3" font-family="Times,serif" font-size="14.00">transfer_coins</text>
</g>
<!-- aptos_account::transfer_coins&#45;&gt;aptos_account::deposit_coins -->
<g id="edge42" class="edge">
<title>aptos_account::transfer_coins&#45;&gt;aptos_account::deposit_coins</title>
<path fill="none" stroke="black" d="M2581,-475.82C2581,-465.69 2581,-452.6 2581,-440.92"/>
<polygon fill="black" stroke="black" points="2584.5,-440.95 2581,-430.95 2577.5,-440.95 2584.5,-440.95"/>
</g>
<!-- genesis::create_accounts -->
<g id="node35" class="node">
<title>genesis::create_accounts</title>
<ellipse fill="none" stroke="black" cx="1722" cy="-411" rx="66.89" ry="18"/>
<text text-anchor="middle" x="1722" y="-407.3" font-family="Times,serif" font-size="14.00">create_accounts</text>
</g>
<!-- genesis::create_accounts&#45;&gt;genesis::create_account -->
<g id="edge44" class="edge">
<title>genesis::create_accounts&#45;&gt;genesis::create_account</title>
<path fill="none" stroke="black" d="M1743.86,-393.61C1759.81,-381.64 1781.65,-365.26 1799.35,-351.99"/>
<polygon fill="black" stroke="black" points="1801.07,-355.08 1806.97,-346.28 1796.87,-349.48 1801.07,-355.08"/>
</g>
<!-- genesis::create_initialize_validator -->
<g id="node36" class="node">
<title>genesis::create_initialize_validator</title>
<ellipse fill="none" stroke="black" cx="1324" cy="-411" rx="102.88" ry="18"/>
<text text-anchor="middle" x="1324" y="-407.3" font-family="Times,serif" font-size="14.00">create_initialize_validator</text>
</g>
<!-- genesis::create_initialize_validator&#45;&gt;genesis::create_account -->
<g id="edge45" class="edge">
<title>genesis::create_initialize_validator&#45;&gt;genesis::create_account</title>
<path fill="none" stroke="black" d="M1398.12,-398.14C1496.9,-382.32 1670.19,-354.58 1764.44,-339.5"/>
<polygon fill="black" stroke="black" points="1764.71,-343 1774.03,-337.96 1763.61,-336.08 1764.71,-343"/>
</g>
<!-- genesis::create_initialize_validator&#45;&gt;stake::initialize_stake_owner -->
<g id="edge47" class="edge">
<title>genesis::create_initialize_validator&#45;&gt;stake::initialize_stake_owner</title>
<path fill="none" stroke="black" d="M1221.72,-408.69C1156.62,-405.65 1071.11,-397.56 998,-377 976.36,-370.91 953.66,-360.4 935.37,-350.75"/>
<polygon fill="black" stroke="black" points="937.22,-347.77 926.75,-346.09 933.88,-353.93 937.22,-347.77"/>
</g>
<!-- staking_contract::create_staking_contract -->
<g id="node38" class="node">
<title>staking_contract::create_staking_contract</title>
<ellipse fill="none" stroke="black" cx="668" cy="-411" rx="94.48" ry="18"/>
<text text-anchor="middle" x="668" y="-407.3" font-family="Times,serif" font-size="14.00">create_staking_contract</text>
</g>
<!-- genesis::create_initialize_validator&#45;&gt;staking_contract::create_staking_contract -->
<g id="edge58" class="edge">
<title>genesis::create_initialize_validator&#45;&gt;staking_contract::create_staking_contract</title>
<path fill="none" stroke="black" d="M1220.7,-411C1071.79,-411 922.89,-411 773.99,-411"/>
<polygon fill="black" stroke="black" points="774.33,-407.5 764.33,-411 774.33,-414.5 774.33,-407.5"/>
</g>
<!-- genesis::initialize_for_verification -->
<g id="node37" class="node">
<title>genesis::initialize_for_verification</title>
<ellipse fill="none" stroke="black" cx="1516" cy="-569" rx="100.98" ry="18"/>
<text text-anchor="middle" x="1516" y="-565.3" font-family="Times,serif" font-size="14.00">initialize_for_verification</text>
</g>
<!-- genesis::initialize_for_verification&#45;&gt;genesis::initialize -->
<g id="edge48" class="edge">
<title>genesis::initialize_for_verification&#45;&gt;genesis::initialize</title>
<path fill="none" stroke="black" d="M1533.63,-551.07C1543.69,-541.4 1556.46,-529.14 1567.49,-518.54"/>
<polygon fill="black" stroke="black" points="1569.63,-521.34 1574.42,-511.89 1564.78,-516.29 1569.63,-521.34"/>
</g>
<!-- genesis::initialize_for_verification&#45;&gt;aptos_governance::initialize_for_verification -->
<g id="edge49" class="edge">
<title>genesis::initialize_for_verification&#45;&gt;aptos_governance::initialize_for_verification</title>
<path fill="none" stroke="black" d="M1445.15,-555.79C1432.16,-553.91 1418.7,-552.2 1406,-551 1304.17,-541.39 1278.09,-549.26 1176,-543 755.62,-517.23 640.95,-560.75 232,-460 207.02,-453.85 180.44,-443.05 159.13,-433.26"/>
<polygon fill="black" stroke="black" points="160.72,-430.14 150.18,-429.05 157.74,-436.47 160.72,-430.14"/>
</g>
<!-- genesis::initialize_for_verification&#45;&gt;genesis::create_employee_validators -->
<g id="edge52" class="edge">
<title>genesis::initialize_for_verification&#45;&gt;genesis::create_employee_validators</title>
<path fill="none" stroke="black" d="M1590.39,-556.44C1628.85,-550.42 1668.68,-544.08 1673,-543 1702.58,-535.6 1734.82,-524.65 1760.79,-515.09"/>
<polygon fill="black" stroke="black" points="1761.95,-518.39 1770.09,-511.61 1759.5,-511.83 1761.95,-518.39"/>
</g>
<!-- genesis::initialize_for_verification&#45;&gt;genesis::create_accounts -->
<g id="edge56" class="edge">
<title>genesis::initialize_for_verification&#45;&gt;genesis::create_accounts</title>
<path fill="none" stroke="black" d="M1595.5,-557.61C1615.96,-553.78 1634.58,-548.9 1643,-543 1652.68,-536.22 1687.07,-475.58 1707.14,-439.22"/>
<polygon fill="black" stroke="black" points="1710.15,-441.02 1711.9,-430.57 1704.01,-437.65 1710.15,-441.02"/>
</g>
<!-- genesis::create_initialize_validators_with_commission -->
<g id="node41" class="node">
<title>genesis::create_initialize_validators_with_commission</title>
<ellipse fill="none" stroke="black" cx="1359" cy="-494" rx="173.57" ry="18"/>
<text text-anchor="middle" x="1359" y="-490.3" font-family="Times,serif" font-size="14.00">create_initialize_validators_with_commission</text>
</g>
<!-- genesis::initialize_for_verification&#45;&gt;genesis::create_initialize_validators_with_commission -->
<g id="edge59" class="edge">
<title>genesis::initialize_for_verification&#45;&gt;genesis::create_initialize_validators_with_commission</title>
<path fill="none" stroke="black" d="M1481.16,-551.8C1459.04,-541.52 1430.15,-528.08 1406.02,-516.86"/>
<polygon fill="black" stroke="black" points="1407.57,-513.73 1397.03,-512.68 1404.62,-520.07 1407.57,-513.73"/>
</g>
<!-- staking_contract::create_staking_contract&#45;&gt;staking_contract::create_staking_contract_with_coins -->
<g id="edge50" class="edge">
<title>staking_contract::create_staking_contract&#45;&gt;staking_contract::create_staking_contract_with_coins</title>
<path fill="none" stroke="black" d="M663.55,-392.82C660.89,-382.58 657.45,-369.33 654.4,-357.55"/>
<polygon fill="black" stroke="black" points="657.8,-356.7 651.9,-347.9 651.02,-358.46 657.8,-356.7"/>
</g>
<!-- aptos_account::batch_transfer -->
<g id="node39" class="node">
<title>aptos_account::batch_transfer</title>
<ellipse fill="none" stroke="black" cx="2721" cy="-494" rx="61.19" ry="18"/>
<text text-anchor="middle" x="2721" y="-490.3" font-family="Times,serif" font-size="14.00">batch_transfer</text>
</g>
<!-- aptos_account::batch_transfer&#45;&gt;aptos_account::transfer -->
<g id="edge54" class="edge">
<title>aptos_account::batch_transfer&#45;&gt;aptos_account::transfer</title>
<path fill="none" stroke="black" d="M2718.46,-475.82C2716.94,-465.58 2714.97,-452.33 2713.23,-440.55"/>
<polygon fill="black" stroke="black" points="2716.73,-440.31 2711.8,-430.93 2709.81,-441.33 2716.73,-440.31"/>
</g>
<!-- aptos_account::batch_transfer_coins -->
<g id="node40" class="node">
<title>aptos_account::batch_transfer_coins</title>
<ellipse fill="none" stroke="black" cx="2603" cy="-569" rx="83.69" ry="18"/>
<text text-anchor="middle" x="2603" y="-565.3" font-family="Times,serif" font-size="14.00">batch_transfer_coins</text>
</g>
<!-- aptos_account::batch_transfer_coins&#45;&gt;aptos_account::transfer_coins -->
<g id="edge55" class="edge">
<title>aptos_account::batch_transfer_coins&#45;&gt;aptos_account::transfer_coins</title>
<path fill="none" stroke="black" d="M2597.79,-550.7C2595.31,-542.49 2592.29,-532.46 2589.5,-523.19"/>
<polygon fill="black" stroke="black" points="2592.93,-522.44 2586.69,-513.88 2586.22,-524.46 2592.93,-522.44"/>
</g>
<!-- genesis::create_initialize_validators_with_commission&#45;&gt;genesis::create_initialize_validator -->
<g id="edge57" class="edge">
<title>genesis::create_initialize_validators_with_commission&#45;&gt;genesis::create_initialize_validator</title>
<path fill="none" stroke="black" d="M1351.58,-475.82C1347.06,-465.37 1341.19,-451.77 1336.02,-439.81"/>
<polygon fill="black" stroke="black" points="1339.31,-438.61 1332.13,-430.82 1332.89,-441.39 1339.31,-438.61"/>
</g>
<!-- genesis::create_initialize_validators -->
<g id="node42" class="node">
<title>genesis::create_initialize_validators</title>
<ellipse fill="none" stroke="black" cx="1291" cy="-569" rx="105.88" ry="18"/>
<text text-anchor="middle" x="1291" y="-565.3" font-family="Times,serif" font-size="14.00">create_initialize_validators</text>
</g>
<!-- genesis::create_initialize_validators&#45;&gt;genesis::create_initialize_validators_with_commission -->
<g id="edge60" class="edge">
<title>genesis::create_initialize_validators&#45;&gt;genesis::create_initialize_validators_with_commission</title>
<path fill="none" stroke="black" d="M1306.77,-551.07C1315.23,-541.99 1325.83,-530.61 1335.26,-520.48"/>
<polygon fill="black" stroke="black" points="1337.56,-523.16 1341.81,-513.45 1332.43,-518.39 1337.56,-523.16"/>
</g>
</g>
</svg>
