<?xml version="1.0" encoding="UTF-8" standalone="no"?>
<!DOCTYPE svg PUBLIC "-//W3C//DTD SVG 1.1//EN"
 "http://www.w3.org/Graphics/SVG/1.1/DTD/svg11.dtd">
<!-- Generated by graphviz version 7.0.4 (20221203.1631)
 -->
<!-- Title: G Pages: 1 -->
<svg width="2790pt" height="908pt"
 viewBox="0.00 0.00 2790.00 908.00" xmlns="http://www.w3.org/2000/svg" xmlns:xlink="http://www.w3.org/1999/xlink">
<g id="graph0" class="graph" transform="scale(1 1) rotate(0) translate(4 904)">
<title>G</title>
<polygon fill="white" stroke="none" points="-4,4 -4,-904 2786,-904 2786,4 -4,4"/>
<!-- gas_schedule -->
<g id="node1" class="node">
<title>gas_schedule</title>
<ellipse fill="none" stroke="black" cx="1689" cy="-882" rx="57.69" ry="18"/>
<text text-anchor="middle" x="1689" y="-878.3" font-family="Times,serif" font-size="14.00">gas_schedule</text>
</g>
<!-- vector -->
<g id="node2" class="node">
<title>vector</title>
<ellipse fill="none" stroke="black" cx="412" cy="-18" rx="32.49" ry="18"/>
<text text-anchor="middle" x="412" y="-14.3" font-family="Times,serif" font-size="14.00">vector</text>
</g>
<!-- gas_schedule&#45;&gt;vector -->
<g id="edge1" class="edge">
<title>gas_schedule&#45;&gt;vector</title>
<path fill="none" stroke="black" d="M1746.19,-879.05C1899.35,-873.5 2316.33,-856.19 2451,-828 2566.03,-803.92 2700,-856.52 2700,-739 2700,-739 2700,-739 2700,-161 2700,-84.63 2626.3,-93.44 2553,-72 2448.78,-41.51 751.63,-22.53 455.8,-19.45"/>
<polygon fill="black" stroke="black" points="456.25,-15.95 446.22,-19.35 456.18,-22.95 456.25,-15.95"/>
</g>
<!-- string -->
<g id="node3" class="node">
<title>string</title>
<ellipse fill="none" stroke="black" cx="142" cy="-162" rx="30.59" ry="18"/>
<text text-anchor="middle" x="142" y="-158.3" font-family="Times,serif" font-size="14.00">string</text>
</g>
<!-- gas_schedule&#45;&gt;string -->
<g id="edge2" class="edge">
<title>gas_schedule&#45;&gt;string</title>
<path fill="none" stroke="black" d="M1631.17,-880.33C1379.8,-877.2 388.73,-862.77 254,-828 169.13,-806.1 78,-826.65 78,-739 78,-739 78,-739 78,-449 78,-352 113.5,-240.85 131.62,-190.43"/>
<polygon fill="black" stroke="black" points="134.84,-191.81 134.99,-181.21 128.27,-189.4 134.84,-191.81"/>
</g>
<!-- error -->
<g id="node4" class="node">
<title>error</title>
<ellipse fill="none" stroke="black" cx="1253" cy="-90" rx="27.9" ry="18"/>
<text text-anchor="middle" x="1253" y="-86.3" font-family="Times,serif" font-size="14.00">error</text>
</g>
<!-- gas_schedule&#45;&gt;error -->
<g id="edge3" class="edge">
<title>gas_schedule&#45;&gt;error</title>
<path fill="none" stroke="black" d="M1631.09,-881.39C1364.47,-882.46 268,-878.38 268,-739 268,-739 268,-739 268,-449 268,-263.47 375.71,-198.66 553,-144 677.94,-105.48 1085.14,-94.3 1213.72,-91.69"/>
<polygon fill="black" stroke="black" points="1213.49,-95.19 1223.42,-91.5 1213.35,-88.2 1213.49,-95.19"/>
</g>
<!-- system_addresses -->
<g id="node5" class="node">
<title>system_addresses</title>
<ellipse fill="none" stroke="black" cx="2042" cy="-306" rx="73.39" ry="18"/>
<text text-anchor="middle" x="2042" y="-302.3" font-family="Times,serif" font-size="14.00">system_addresses</text>
</g>
<!-- gas_schedule&#45;&gt;system_addresses -->
<g id="edge4" class="edge">
<title>gas_schedule&#45;&gt;system_addresses</title>
<path fill="none" stroke="black" d="M1745.73,-878.41C1948.31,-868.4 2624,-828.33 2624,-739 2624,-739 2624,-739 2624,-593 2624,-373.52 2286.5,-322.46 2125.52,-310.59"/>
<polygon fill="black" stroke="black" points="2125.97,-307.12 2115.75,-309.91 2125.48,-314.1 2125.97,-307.12"/>
</g>
<!-- storage_gas -->
<g id="node6" class="node">
<title>storage_gas</title>
<ellipse fill="none" stroke="black" cx="1130" cy="-450" rx="51.99" ry="18"/>
<text text-anchor="middle" x="1130" y="-446.3" font-family="Times,serif" font-size="14.00">storage_gas</text>
</g>
<!-- gas_schedule&#45;&gt;storage_gas -->
<g id="edge5" class="edge">
<title>gas_schedule&#45;&gt;storage_gas</title>
<path fill="none" stroke="black" d="M1631.47,-879.47C1401.88,-872.76 559.91,-842.39 482,-756 303.8,-558.39 876.36,-478.03 1069.02,-456.98"/>
<polygon fill="black" stroke="black" points="1069.26,-460.47 1078.83,-455.92 1068.52,-453.51 1069.26,-460.47"/>
</g>
<!-- reconfiguration -->
<g id="node7" class="node">
<title>reconfiguration</title>
<ellipse fill="none" stroke="black" cx="1689" cy="-810" rx="64.99" ry="18"/>
<text text-anchor="middle" x="1689" y="-806.3" font-family="Times,serif" font-size="14.00">reconfiguration</text>
</g>
<!-- gas_schedule&#45;&gt;reconfiguration -->
<g id="edge6" class="edge">
<title>gas_schedule&#45;&gt;reconfiguration</title>
<path fill="none" stroke="black" d="M1689,-863.7C1689,-856.41 1689,-847.73 1689,-839.54"/>
<polygon fill="black" stroke="black" points="1692.5,-839.62 1689,-829.62 1685.5,-839.62 1692.5,-839.62"/>
</g>
<!-- util -->
<g id="node8" class="node">
<title>util</title>
<ellipse fill="none" stroke="black" cx="2755" cy="-810" rx="27" ry="18"/>
<text text-anchor="middle" x="2755" y="-806.3" font-family="Times,serif" font-size="14.00">util</text>
</g>
<!-- gas_schedule&#45;&gt;util -->
<g id="edge7" class="edge">
<title>gas_schedule&#45;&gt;util</title>
<path fill="none" stroke="black" d="M1746.71,-880.59C1934.64,-878.86 2527.71,-870.12 2714,-828 2717,-827.32 2720.06,-826.44 2723.08,-825.44"/>
<polygon fill="black" stroke="black" points="2724.21,-828.76 2732.33,-821.96 2721.74,-822.21 2724.21,-828.76"/>
</g>
<!-- string&#45;&gt;vector -->
<g id="edge8" class="edge">
<title>string&#45;&gt;vector</title>
<path fill="none" stroke="black" d="M164.1,-149.38C211.54,-124.43 323.38,-65.61 379.16,-36.27"/>
<polygon fill="black" stroke="black" points="380.66,-39.44 387.88,-31.69 377.4,-33.24 380.66,-39.44"/>
</g>
<!-- option -->
<g id="node9" class="node">
<title>option</title>
<ellipse fill="none" stroke="black" cx="443" cy="-90" rx="33.29" ry="18"/>
<text text-anchor="middle" x="443" y="-86.3" font-family="Times,serif" font-size="14.00">option</text>
</g>
<!-- string&#45;&gt;option -->
<g id="edge9" class="edge">
<title>string&#45;&gt;option</title>
<path fill="none" stroke="black" d="M166.52,-150.94C173.1,-148.46 180.26,-145.96 187,-144 260.59,-122.62 348.47,-106.39 399.78,-97.81"/>
<polygon fill="black" stroke="black" points="400.29,-101.28 409.59,-96.2 399.15,-94.37 400.29,-101.28"/>
</g>
<!-- system_addresses&#45;&gt;error -->
<g id="edge11" class="edge">
<title>system_addresses&#45;&gt;error</title>
<path fill="none" stroke="black" d="M2033.26,-287.75C2014.78,-253.35 1968.11,-176.7 1904,-144 1849.52,-116.21 1424.53,-97.62 1292.2,-92.46"/>
<polygon fill="black" stroke="black" points="1292.67,-88.97 1282.55,-92.09 1292.4,-95.97 1292.67,-88.97"/>
</g>
<!-- signer -->
<g id="node10" class="node">
<title>signer</title>
<ellipse fill="none" stroke="black" cx="2472" cy="-90" rx="32.49" ry="18"/>
<text text-anchor="middle" x="2472" y="-86.3" font-family="Times,serif" font-size="14.00">signer</text>
</g>
<!-- system_addresses&#45;&gt;signer -->
<g id="edge10" class="edge">
<title>system_addresses&#45;&gt;signer</title>
<path fill="none" stroke="black" d="M2076.32,-289.64C2127.28,-266.66 2225.81,-221.57 2308,-180 2354.43,-156.52 2407.16,-127.47 2440,-109.08"/>
<polygon fill="black" stroke="black" points="2441.61,-112.19 2448.61,-104.24 2438.18,-106.09 2441.61,-112.19"/>
</g>
<!-- storage_gas&#45;&gt;error -->
<g id="edge12" class="edge">
<title>storage_gas&#45;&gt;error</title>
<path fill="none" stroke="black" d="M1078.19,-447.5C992.65,-443.99 826.91,-432.55 783,-396 719.18,-342.89 696.44,-290.55 733,-216 756.02,-169.07 777.68,-163.93 826,-144 895.88,-115.18 1122.13,-98.8 1213.84,-93.21"/>
<polygon fill="black" stroke="black" points="1213.82,-96.72 1223.59,-92.63 1213.4,-89.73 1213.82,-96.72"/>
</g>
<!-- storage_gas&#45;&gt;system_addresses -->
<g id="edge13" class="edge">
<title>storage_gas&#45;&gt;system_addresses</title>
<path fill="none" stroke="black" d="M1180.2,-444.84C1224.38,-441.23 1290.44,-435.99 1348,-432 1479.93,-422.86 1819.88,-446.75 1942,-396 1959.28,-388.82 1994.38,-355.46 2018.05,-331.7"/>
<polygon fill="black" stroke="black" points="2020.3,-334.4 2024.84,-324.83 2015.32,-329.49 2020.3,-334.4"/>
</g>
<!-- state_storage -->
<g id="node11" class="node">
<title>state_storage</title>
<ellipse fill="none" stroke="black" cx="1223" cy="-378" rx="56.59" ry="18"/>
<text text-anchor="middle" x="1223" y="-374.3" font-family="Times,serif" font-size="14.00">state_storage</text>
</g>
<!-- storage_gas&#45;&gt;state_storage -->
<g id="edge14" class="edge">
<title>storage_gas&#45;&gt;state_storage</title>
<path fill="none" stroke="black" d="M1151.1,-433.12C1163.38,-423.87 1179.07,-412.07 1192.66,-401.84"/>
<polygon fill="black" stroke="black" points="1194.56,-404.78 1200.45,-395.97 1190.35,-399.19 1194.56,-404.78"/>
</g>
<!-- reconfiguration&#45;&gt;error -->
<g id="edge16" class="edge">
<title>reconfiguration&#45;&gt;error</title>
<path fill="none" stroke="black" d="M1624.01,-808.16C1375.06,-804.08 496,-781.59 496,-667 496,-667 496,-667 496,-593 496,-442.38 671.08,-523.75 811,-468 891.04,-436.11 920.02,-444.85 991,-396 1106.27,-316.66 1201.67,-174.56 1237.63,-116.63"/>
<polygon fill="black" stroke="black" points="1240.42,-118.78 1242.67,-108.43 1234.45,-115.12 1240.42,-118.78"/>
</g>
<!-- reconfiguration&#45;&gt;system_addresses -->
<g id="edge18" class="edge">
<title>reconfiguration&#45;&gt;system_addresses</title>
<path fill="none" stroke="black" d="M1752.62,-805.76C1896.01,-796.74 2232,-765.11 2232,-667 2232,-667 2232,-667 2232,-593 2232,-475.48 2181.77,-450.67 2107,-360 2097.95,-349.03 2086.35,-338.72 2075.46,-330.16"/>
<polygon fill="black" stroke="black" points="2077.84,-327.57 2067.75,-324.31 2073.61,-333.14 2077.84,-327.57"/>
</g>
<!-- reconfiguration&#45;&gt;storage_gas -->
<g id="edge25" class="edge">
<title>reconfiguration&#45;&gt;storage_gas</title>
<path fill="none" stroke="black" d="M1624.4,-807.33C1469.17,-801.57 1088,-776.29 1088,-667 1088,-667 1088,-667 1088,-593 1088,-551.69 1104.54,-506.3 1116.87,-478.22"/>
<polygon fill="black" stroke="black" points="1119.93,-479.94 1120.88,-469.39 1113.56,-477.05 1119.93,-479.94"/>
</g>
<!-- reconfiguration&#45;&gt;signer -->
<g id="edge15" class="edge">
<title>reconfiguration&#45;&gt;signer</title>
<path fill="none" stroke="black" d="M1753.83,-807.91C1910.14,-804.73 2304.14,-793.15 2430,-756 2506.56,-733.41 2586,-746.82 2586,-667 2586,-667 2586,-667 2586,-593 2586,-425.33 2632.88,-380.41 2600,-216 2593.2,-182.01 2593.24,-169.72 2570,-144 2553.73,-126 2529.87,-112.91 2509.77,-104.25"/>
<polygon fill="black" stroke="black" points="2511.34,-101.11 2500.76,-100.57 2508.7,-107.59 2511.34,-101.11"/>
</g>
<!-- features -->
<g id="node12" class="node">
<title>features</title>
<ellipse fill="none" stroke="black" cx="2261" cy="-162" rx="38.19" ry="18"/>
<text text-anchor="middle" x="2261" y="-158.3" font-family="Times,serif" font-size="14.00">features</text>
</g>
<!-- reconfiguration&#45;&gt;features -->
<g id="edge17" class="edge">
<title>reconfiguration&#45;&gt;features</title>
<path fill="none" stroke="black" d="M1754.37,-808.95C1867.52,-807.62 2106.58,-799.36 2303,-756 2416.13,-731.03 2548,-782.85 2548,-667 2548,-667 2548,-667 2548,-377 2548,-257.54 2386.21,-196.83 2305.58,-173.99"/>
<polygon fill="black" stroke="black" points="2306.8,-170.69 2296.23,-171.42 2304.94,-177.44 2306.8,-170.69"/>
</g>
<!-- event -->
<g id="node13" class="node">
<title>event</title>
<ellipse fill="none" stroke="black" cx="440" cy="-378" rx="29.8" ry="18"/>
<text text-anchor="middle" x="440" y="-374.3" font-family="Times,serif" font-size="14.00">event</text>
</g>
<!-- reconfiguration&#45;&gt;event -->
<g id="edge19" class="edge">
<title>reconfiguration&#45;&gt;event</title>
<path fill="none" stroke="black" d="M1624.21,-808.16C1385.27,-804.79 561.46,-790.75 449,-756 377.48,-733.9 306,-741.86 306,-667 306,-667 306,-667 306,-593 306,-511.9 375.99,-436.25 414.8,-400.53"/>
<polygon fill="black" stroke="black" points="416.81,-403.43 421.9,-394.14 412.13,-398.23 416.81,-403.43"/>
</g>
<!-- account -->
<g id="node14" class="node">
<title>account</title>
<ellipse fill="none" stroke="black" cx="764" cy="-450" rx="38.19" ry="18"/>
<text text-anchor="middle" x="764" y="-446.3" font-family="Times,serif" font-size="14.00">account</text>
</g>
<!-- reconfiguration&#45;&gt;account -->
<g id="edge20" class="edge">
<title>reconfiguration&#45;&gt;account</title>
<path fill="none" stroke="black" d="M1623.98,-808.6C1378.74,-806.8 521.75,-797.53 482,-756 404.56,-675.09 410.49,-590.2 482,-504 510.98,-469.06 641.62,-457.01 714.49,-452.96"/>
<polygon fill="black" stroke="black" points="714.35,-456.48 724.15,-452.46 713.98,-449.48 714.35,-456.48"/>
</g>
<!-- chain_status -->
<g id="node15" class="node">
<title>chain_status</title>
<ellipse fill="none" stroke="black" cx="2276" cy="-378" rx="53.89" ry="18"/>
<text text-anchor="middle" x="2276" y="-374.3" font-family="Times,serif" font-size="14.00">chain_status</text>
</g>
<!-- reconfiguration&#45;&gt;chain_status -->
<g id="edge21" class="edge">
<title>reconfiguration&#45;&gt;chain_status</title>
<path fill="none" stroke="black" d="M1753.84,-807.44C1880.96,-803.63 2158.16,-791.41 2246,-756 2304.97,-732.23 2358,-730.58 2358,-667 2358,-667 2358,-667 2358,-521 2358,-474.71 2324.91,-429.93 2300.77,-403.42"/>
<polygon fill="black" stroke="black" points="2303.43,-401.14 2294.03,-396.26 2298.34,-405.94 2303.43,-401.14"/>
</g>
<!-- timestamp -->
<g id="node16" class="node">
<title>timestamp</title>
<ellipse fill="none" stroke="black" cx="2013" cy="-522" rx="48.19" ry="18"/>
<text text-anchor="middle" x="2013" y="-518.3" font-family="Times,serif" font-size="14.00">timestamp</text>
</g>
<!-- reconfiguration&#45;&gt;timestamp -->
<g id="edge22" class="edge">
<title>reconfiguration&#45;&gt;timestamp</title>
<path fill="none" stroke="black" d="M1729.9,-795.61C1797.98,-771.03 1933.53,-711.85 1999,-612 2010.68,-594.19 2013.89,-570.14 2014.35,-551.54"/>
<polygon fill="black" stroke="black" points="2017.85,-551.72 2014.31,-541.73 2010.85,-551.74 2017.85,-551.72"/>
</g>
<!-- stake -->
<g id="node17" class="node">
<title>stake</title>
<ellipse fill="none" stroke="black" cx="1689" cy="-666" rx="28.7" ry="18"/>
<text text-anchor="middle" x="1689" y="-662.3" font-family="Times,serif" font-size="14.00">stake</text>
</g>
<!-- reconfiguration&#45;&gt;stake -->
<g id="edge23" class="edge">
<title>reconfiguration&#45;&gt;stake</title>
<path fill="none" stroke="black" d="M1689,-791.59C1689,-767.61 1689,-724.14 1689,-695.42"/>
<polygon fill="black" stroke="black" points="1692.5,-695.62 1689,-685.62 1685.5,-695.62 1692.5,-695.62"/>
</g>
<!-- transaction_fee -->
<g id="node18" class="node">
<title>transaction_fee</title>
<ellipse fill="none" stroke="black" cx="1346" cy="-738" rx="64.19" ry="18"/>
<text text-anchor="middle" x="1346" y="-734.3" font-family="Times,serif" font-size="14.00">transaction_fee</text>
</g>
<!-- reconfiguration&#45;&gt;transaction_fee -->
<g id="edge24" class="edge">
<title>reconfiguration&#45;&gt;transaction_fee</title>
<path fill="none" stroke="black" d="M1637.65,-798.52C1576.26,-785.99 1473.59,-765.04 1407.88,-751.63"/>
<polygon fill="black" stroke="black" points="1408.84,-748.25 1398.34,-749.68 1407.44,-755.11 1408.84,-748.25"/>
</g>
<!-- option&#45;&gt;vector -->
<g id="edge26" class="edge">
<title>option&#45;&gt;vector</title>
<path fill="none" stroke="black" d="M435.5,-72.05C432.07,-64.32 427.92,-54.96 424.08,-46.27"/>
<polygon fill="black" stroke="black" points="427.3,-44.9 420.05,-37.17 420.9,-47.73 427.3,-44.9"/>
</g>
<!-- state_storage&#45;&gt;error -->
<g id="edge27" class="edge">
<title>state_storage&#45;&gt;error</title>
<path fill="none" stroke="black" d="M1224.83,-359.54C1229.84,-311.76 1243.82,-178.51 1250,-119.61"/>
<polygon fill="black" stroke="black" points="1253.47,-120.05 1251.03,-109.74 1246.51,-119.32 1253.47,-120.05"/>
</g>
<!-- state_storage&#45;&gt;system_addresses -->
<g id="edge28" class="edge">
<title>state_storage&#45;&gt;system_addresses</title>
<path fill="none" stroke="black" d="M1277.05,-372.38C1417.87,-360.34 1796.57,-327.98 1962.39,-313.8"/>
<polygon fill="black" stroke="black" points="1962.31,-317.32 1971.97,-312.99 1961.71,-310.35 1962.31,-317.32"/>
</g>
<!-- features&#45;&gt;error -->
<g id="edge30" class="edge">
<title>features&#45;&gt;error</title>
<path fill="none" stroke="black" d="M2229.87,-151.23C2219.8,-148.44 2208.51,-145.69 2198,-144 2019.14,-115.17 1447.29,-96.68 1292.15,-92.11"/>
<polygon fill="black" stroke="black" points="1292.5,-88.62 1282.4,-91.83 1292.29,-95.62 1292.5,-88.62"/>
</g>
<!-- features&#45;&gt;signer -->
<g id="edge29" class="edge">
<title>features&#45;&gt;signer</title>
<path fill="none" stroke="black" d="M2291.68,-150.82C2329.29,-138.34 2393.04,-117.19 2433.79,-103.67"/>
<polygon fill="black" stroke="black" points="2434.81,-107.02 2443.2,-100.55 2432.61,-100.38 2434.81,-107.02"/>
</g>
<!-- bcs -->
<g id="node19" class="node">
<title>bcs</title>
<ellipse fill="none" stroke="black" cx="862" cy="-162" rx="27" ry="18"/>
<text text-anchor="middle" x="862" y="-158.3" font-family="Times,serif" font-size="14.00">bcs</text>
</g>
<!-- event&#45;&gt;bcs -->
<g id="edge31" class="edge">
<title>event&#45;&gt;bcs</title>
<path fill="none" stroke="black" d="M435.72,-359.75C432.02,-340.62 429.17,-309.62 443,-288 481.34,-228.06 518.64,-238.93 586,-216 668.23,-188.01 769.58,-173.32 823.68,-166.96"/>
<polygon fill="black" stroke="black" points="824.07,-170.44 833.61,-165.84 823.28,-163.49 824.07,-170.44"/>
</g>
<!-- guid -->
<g id="node20" class="node">
<title>guid</title>
<ellipse fill="none" stroke="black" cx="479" cy="-306" rx="27" ry="18"/>
<text text-anchor="middle" x="479" y="-302.3" font-family="Times,serif" font-size="14.00">guid</text>
</g>
<!-- event&#45;&gt;guid -->
<g id="edge32" class="edge">
<title>event&#45;&gt;guid</title>
<path fill="none" stroke="black" d="M449.24,-360.41C453.82,-352.19 459.46,-342.06 464.6,-332.85"/>
<polygon fill="black" stroke="black" points="467.55,-334.75 469.36,-324.31 461.43,-331.34 467.55,-334.75"/>
</g>
<!-- account&#45;&gt;vector -->
<g id="edge33" class="edge">
<title>account&#45;&gt;vector</title>
<path fill="none" stroke="black" d="M739.15,-435.95C668.81,-397.37 468.99,-275.9 401,-108 393.14,-88.59 396.58,-65 401.61,-46.98"/>
<polygon fill="black" stroke="black" points="404.93,-48.09 404.59,-37.5 398.26,-45.99 404.93,-48.09"/>
</g>
<!-- account&#45;&gt;error -->
<g id="edge36" class="edge">
<title>account&#45;&gt;error</title>
<path fill="none" stroke="black" d="M801.56,-446.3C838.5,-441.71 894.28,-429.34 929,-396 990.46,-336.99 948.17,-287.18 995,-216 1020.57,-177.13 1030.64,-167.15 1071,-144 1116.66,-117.8 1176.31,-103.65 1214.65,-96.72"/>
<polygon fill="black" stroke="black" points="1215.07,-100.2 1224.33,-95.05 1213.88,-93.3 1215.07,-100.2"/>
</g>
<!-- account&#45;&gt;system_addresses -->
<g id="edge40" class="edge">
<title>account&#45;&gt;system_addresses</title>
<path fill="none" stroke="black" d="M802.03,-446.75C859.74,-443.36 972.87,-436.84 1069,-432 1247.18,-423.04 1698.7,-442.27 1871,-396 1874.53,-395.05 1952.77,-354.01 2002.18,-327.99"/>
<polygon fill="black" stroke="black" points="2003.7,-331.15 2010.91,-323.4 2000.43,-324.96 2003.7,-331.15"/>
</g>
<!-- account&#45;&gt;option -->
<g id="edge34" class="edge">
<title>account&#45;&gt;option</title>
<path fill="none" stroke="black" d="M749.29,-433.05C711.13,-391.6 605.92,-276.99 520,-180 500.85,-158.38 479.37,-133.5 463.97,-115.55"/>
<polygon fill="black" stroke="black" points="466.67,-113.32 457.5,-108 461.35,-117.87 466.67,-113.32"/>
</g>
<!-- account&#45;&gt;signer -->
<g id="edge35" class="edge">
<title>account&#45;&gt;signer</title>
<path fill="none" stroke="black" d="M801.55,-446.58C859.09,-442.94 972.56,-436.05 1069,-432 1139.52,-429.04 2280.51,-435.5 2339,-396 2387.99,-362.92 2443.65,-187.8 2464.01,-118.89"/>
<polygon fill="black" stroke="black" points="2467.31,-120.08 2466.75,-109.5 2460.59,-118.11 2467.31,-120.08"/>
</g>
<!-- account&#45;&gt;event -->
<g id="edge46" class="edge">
<title>account&#45;&gt;event</title>
<path fill="none" stroke="black" d="M731.26,-440.27C720.11,-437.45 707.55,-434.42 696,-432 602.46,-412.4 576.15,-421.35 484,-396 480.89,-395.14 477.7,-394.15 474.52,-393.08"/>
<polygon fill="black" stroke="black" points="475.93,-389.87 465.34,-389.75 473.55,-396.45 475.93,-389.87"/>
</g>
<!-- account&#45;&gt;bcs -->
<g id="edge37" class="edge">
<title>account&#45;&gt;bcs</title>
<path fill="none" stroke="black" d="M754.79,-432.32C733.62,-391.53 686.76,-284.98 733,-216 753.14,-185.95 793.71,-172.92 824.01,-167.28"/>
<polygon fill="black" stroke="black" points="824.26,-170.79 833.56,-165.71 823.12,-163.88 824.26,-170.79"/>
</g>
<!-- account&#45;&gt;guid -->
<g id="edge44" class="edge">
<title>account&#45;&gt;guid</title>
<path fill="none" stroke="black" d="M731.21,-440.51C720.06,-437.7 707.51,-434.63 696,-432 619.01,-414.42 584.27,-444.57 522,-396 502.77,-381 491.64,-355.23 485.54,-335.27"/>
<polygon fill="black" stroke="black" points="488.95,-334.47 482.91,-325.77 482.21,-336.34 488.95,-334.47"/>
</g>
<!-- type_info -->
<g id="node21" class="node">
<title>type_info</title>
<ellipse fill="none" stroke="black" cx="1048" cy="-234" rx="44.39" ry="18"/>
<text text-anchor="middle" x="1048" y="-230.3" font-family="Times,serif" font-size="14.00">type_info</text>
</g>
<!-- account&#45;&gt;type_info -->
<g id="edge38" class="edge">
<title>account&#45;&gt;type_info</title>
<path fill="none" stroke="black" d="M802.28,-447.63C845.38,-444.24 915.45,-432.94 962,-396 1005.34,-361.6 1029.57,-299.23 1040.59,-263.05"/>
<polygon fill="black" stroke="black" points="1043.87,-264.32 1043.29,-253.74 1037.14,-262.37 1043.87,-264.32"/>
</g>
<!-- table -->
<g id="node22" class="node">
<title>table</title>
<ellipse fill="none" stroke="black" cx="1556" cy="-306" rx="27.9" ry="18"/>
<text text-anchor="middle" x="1556" y="-302.3" font-family="Times,serif" font-size="14.00">table</text>
</g>
<!-- account&#45;&gt;table -->
<g id="edge39" class="edge">
<title>account&#45;&gt;table</title>
<path fill="none" stroke="black" d="M798.01,-441.41C843.89,-431.17 928.13,-412.31 1000,-396 1069.81,-380.16 1086.35,-371.57 1157,-360 1316.56,-333.88 1362.96,-366.33 1519,-324 1520.75,-323.53 1522.51,-322.98 1524.28,-322.37"/>
<polygon fill="black" stroke="black" points="1525.53,-325.64 1533.52,-318.69 1522.94,-319.14 1525.53,-325.64"/>
</g>
<!-- hash -->
<g id="node23" class="node">
<title>hash</title>
<ellipse fill="none" stroke="black" cx="769" cy="-234" rx="27" ry="18"/>
<text text-anchor="middle" x="769" y="-230.3" font-family="Times,serif" font-size="14.00">hash</text>
</g>
<!-- account&#45;&gt;hash -->
<g id="edge41" class="edge">
<title>account&#45;&gt;hash</title>
<path fill="none" stroke="black" d="M763.79,-431.6C763.63,-413.66 763.5,-384.87 764,-360 764.66,-326.97 766.3,-289.06 767.52,-263.73"/>
<polygon fill="black" stroke="black" points="771.01,-264.06 768.01,-253.9 764.02,-263.71 771.01,-264.06"/>
</g>
<!-- ed25519 -->
<g id="node24" class="node">
<title>ed25519</title>
<ellipse fill="none" stroke="black" cx="869" cy="-306" rx="40.89" ry="18"/>
<text text-anchor="middle" x="869" y="-302.3" font-family="Times,serif" font-size="14.00">ed25519</text>
</g>
<!-- account&#45;&gt;ed25519 -->
<g id="edge42" class="edge">
<title>account&#45;&gt;ed25519</title>
<path fill="none" stroke="black" d="M763.79,-431.68C764.38,-412.49 767.88,-381.43 783,-360 794.3,-343.98 812.14,-331.84 828.64,-323.25"/>
<polygon fill="black" stroke="black" points="829.86,-326.55 837.31,-319.03 826.79,-320.26 829.86,-326.55"/>
</g>
<!-- multi_ed25519 -->
<g id="node25" class="node">
<title>multi_ed25519</title>
<ellipse fill="none" stroke="black" cx="856" cy="-378" rx="64.19" ry="18"/>
<text text-anchor="middle" x="856" y="-374.3" font-family="Times,serif" font-size="14.00">multi_ed25519</text>
</g>
<!-- account&#45;&gt;multi_ed25519 -->
<g id="edge43" class="edge">
<title>account&#45;&gt;multi_ed25519</title>
<path fill="none" stroke="black" d="M783.51,-434.15C795.68,-424.89 811.61,-412.78 825.43,-402.26"/>
<polygon fill="black" stroke="black" points="827.55,-405.05 833.39,-396.21 823.31,-399.48 827.55,-405.05"/>
</g>
<!-- from_bcs -->
<g id="node26" class="node">
<title>from_bcs</title>
<ellipse fill="none" stroke="black" cx="262" cy="-234" rx="44.39" ry="18"/>
<text text-anchor="middle" x="262" y="-230.3" font-family="Times,serif" font-size="14.00">from_bcs</text>
</g>
<!-- account&#45;&gt;from_bcs -->
<g id="edge45" class="edge">
<title>account&#45;&gt;from_bcs</title>
<path fill="none" stroke="black" d="M725.98,-446.8C644.61,-441.56 456.49,-426.44 401,-396 343.15,-364.26 298.33,-298.38 276.54,-261.49"/>
<polygon fill="black" stroke="black" points="279.8,-260.13 271.77,-253.22 273.74,-263.63 279.8,-260.13"/>
</g>
<!-- chain_status&#45;&gt;error -->
<g id="edge47" class="edge">
<title>chain_status&#45;&gt;error</title>
<path fill="none" stroke="black" d="M2259.39,-360.39C2213.56,-315.77 2079.47,-193.34 1941,-144 1820.2,-100.96 1420.26,-92.84 1292.56,-91.34"/>
<polygon fill="black" stroke="black" points="1292.62,-87.84 1282.58,-91.23 1292.55,-94.84 1292.62,-87.84"/>
</g>
<!-- chain_status&#45;&gt;system_addresses -->
<g id="edge48" class="edge">
<title>chain_status&#45;&gt;system_addresses</title>
<path fill="none" stroke="black" d="M2236.83,-365.28C2198.89,-353.93 2140.97,-336.61 2098.13,-323.79"/>
<polygon fill="black" stroke="black" points="2099.34,-320.5 2088.76,-320.99 2097.34,-327.21 2099.34,-320.5"/>
</g>
<!-- timestamp&#45;&gt;error -->
<g id="edge49" class="edge">
<title>timestamp&#45;&gt;error</title>
<path fill="none" stroke="black" d="M1995.64,-504.83C1961.73,-471.4 1890,-390.78 1890,-307 1890,-307 1890,-307 1890,-233 1890,-109.97 1431.58,-93.49 1292.52,-91.32"/>
<polygon fill="black" stroke="black" points="1292.75,-87.82 1282.71,-91.18 1292.66,-94.82 1292.75,-87.82"/>
</g>
<!-- timestamp&#45;&gt;system_addresses -->
<g id="edge50" class="edge">
<title>timestamp&#45;&gt;system_addresses</title>
<path fill="none" stroke="black" d="M2022.21,-503.91C2036.81,-474.83 2062.97,-413.65 2056,-360 2054.95,-351.88 2053.02,-343.24 2050.93,-335.34"/>
<polygon fill="black" stroke="black" points="2054.34,-334.55 2048.24,-325.9 2047.61,-336.47 2054.34,-334.55"/>
</g>
<!-- stake&#45;&gt;vector -->
<g id="edge51" class="edge">
<title>stake&#45;&gt;vector</title>
<path fill="none" stroke="black" d="M1718.1,-664.54C1793.57,-662.76 2001.29,-654.09 2168,-612 2314.12,-575.11 2349.93,-552.09 2475,-468 2545.09,-420.88 2579.95,-406.28 2599,-324 2625.7,-208.71 2618.87,-124.88 2513,-72 2417.77,-24.44 749.91,-19.55 456.04,-19.05"/>
<polygon fill="black" stroke="black" points="456.14,-15.55 446.14,-19.04 456.13,-22.55 456.14,-15.55"/>
</g>
<!-- stake&#45;&gt;error -->
<g id="edge54" class="edge">
<title>stake&#45;&gt;error</title>
<path fill="none" stroke="black" d="M1692.75,-648.05C1698.29,-621.52 1708,-568.52 1708,-523 1708,-523 1708,-523 1708,-449 1708,-277.87 1627.65,-217.27 1473,-144 1413.36,-115.74 1337.26,-101.75 1291.98,-95.47"/>
<polygon fill="black" stroke="black" points="1292.49,-92 1282.12,-94.16 1291.57,-98.94 1292.49,-92"/>
</g>
<!-- stake&#45;&gt;system_addresses -->
<g id="edge57" class="edge">
<title>stake&#45;&gt;system_addresses</title>
<path fill="none" stroke="black" d="M1717.77,-665.8C1774.82,-666.2 1904.85,-661.12 1999,-612 2038.85,-591.21 2052.95,-581.58 2070,-540 2100.36,-465.98 2089.25,-437.65 2070,-360 2067.77,-351.01 2063.71,-341.87 2059.36,-333.76"/>
<polygon fill="black" stroke="black" points="2062.39,-332.02 2054.35,-325.11 2056.33,-335.52 2062.39,-332.02"/>
</g>
<!-- stake&#45;&gt;option -->
<g id="edge52" class="edge">
<title>stake&#45;&gt;option</title>
<path fill="none" stroke="black" d="M1660.05,-664.16C1526.45,-660.16 968.74,-641.94 797,-612 685.19,-592.51 656.19,-585 552,-540 369.26,-461.07 284.21,-436.3 209,-252 173.07,-163.95 324.07,-117.19 400.75,-99.48"/>
<polygon fill="black" stroke="black" points="401.46,-102.91 410.46,-97.31 399.94,-96.08 401.46,-102.91"/>
</g>
<!-- stake&#45;&gt;signer -->
<g id="edge53" class="edge">
<title>stake&#45;&gt;signer</title>
<path fill="none" stroke="black" d="M1718.08,-664.86C1787.08,-663.77 1965.46,-656.5 2106,-612 2226.48,-573.85 2586,-433.38 2586,-307 2586,-307 2586,-307 2586,-233 2586,-179.4 2535.99,-134.51 2502.22,-110.3"/>
<polygon fill="black" stroke="black" points="2504.63,-107.72 2494.42,-104.9 2500.64,-113.47 2504.63,-107.72"/>
</g>
<!-- stake&#45;&gt;features -->
<g id="edge55" class="edge">
<title>stake&#45;&gt;features</title>
<path fill="none" stroke="black" d="M1717.78,-664.69C1827.12,-661.71 2216.74,-634.23 2339,-396 2375.75,-324.4 2315.97,-231.79 2281.98,-188.02"/>
<polygon fill="black" stroke="black" points="2284.87,-186.04 2275.91,-180.39 2279.39,-190.39 2284.87,-186.04"/>
</g>
<!-- stake&#45;&gt;event -->
<g id="edge58" class="edge">
<title>stake&#45;&gt;event</title>
<path fill="none" stroke="black" d="M1660.16,-663.97C1594.92,-661.02 1431.52,-650.11 1301,-612 1264.35,-601.3 1259.54,-587.06 1223,-576 1123.97,-546.03 1094.91,-557.88 993,-540 827.99,-511.04 781.9,-521.08 623,-468 566.88,-449.25 505.87,-416.95 470.39,-396.84"/>
<polygon fill="black" stroke="black" points="472.38,-393.95 461.97,-392.02 468.91,-400.03 472.38,-393.95"/>
</g>
<!-- stake&#45;&gt;account -->
<g id="edge59" class="edge">
<title>stake&#45;&gt;account</title>
<path fill="none" stroke="black" d="M1662.31,-658.83C1533.15,-628.94 972.46,-499.23 808.93,-461.39"/>
<polygon fill="black" stroke="black" points="809.86,-458.02 799.32,-459.17 808.28,-464.84 809.86,-458.02"/>
</g>
<!-- stake&#45;&gt;timestamp -->
<g id="edge62" class="edge">
<title>stake&#45;&gt;timestamp</title>
<path fill="none" stroke="black" d="M1716.4,-660.13C1751.66,-653.1 1814.1,-637.99 1862,-612 1883.91,-600.11 1884.11,-589.59 1905,-576 1925.87,-562.42 1950.73,-550 1971.33,-540.6"/>
<polygon fill="black" stroke="black" points="1972.59,-543.87 1980.29,-536.58 1969.73,-537.48 1972.59,-543.87"/>
</g>
<!-- stake&#45;&gt;table -->
<g id="edge56" class="edge">
<title>stake&#45;&gt;table</title>
<path fill="none" stroke="black" d="M1685.25,-648.05C1679.71,-621.52 1670,-568.52 1670,-523 1670,-523 1670,-523 1670,-449 1670,-408.55 1675.03,-392.54 1651,-360 1636.35,-340.17 1611.94,-326.78 1591.53,-318.42"/>
<polygon fill="black" stroke="black" points="1593,-315.24 1582.41,-314.93 1590.5,-321.77 1593,-315.24"/>
</g>
<!-- coin -->
<g id="node27" class="node">
<title>coin</title>
<ellipse fill="none" stroke="black" cx="1346" cy="-522" rx="27" ry="18"/>
<text text-anchor="middle" x="1346" y="-518.3" font-family="Times,serif" font-size="14.00">coin</text>
</g>
<!-- stake&#45;&gt;coin -->
<g id="edge60" class="edge">
<title>stake&#45;&gt;coin</title>
<path fill="none" stroke="black" d="M1665.42,-655.24C1605.51,-630.44 1447.32,-564.95 1378.62,-536.5"/>
<polygon fill="black" stroke="black" points="1380.37,-533.44 1369.79,-532.85 1377.69,-539.91 1380.37,-533.44"/>
</g>
<!-- aptos_coin -->
<g id="node28" class="node">
<title>aptos_coin</title>
<ellipse fill="none" stroke="black" cx="1165" cy="-594" rx="48.99" ry="18"/>
<text text-anchor="middle" x="1165" y="-590.3" font-family="Times,serif" font-size="14.00">aptos_coin</text>
</g>
<!-- stake&#45;&gt;aptos_coin -->
<g id="edge61" class="edge">
<title>stake&#45;&gt;aptos_coin</title>
<path fill="none" stroke="black" d="M1660.18,-663.19C1587.28,-658.28 1389.81,-642.95 1228,-612 1223.18,-611.08 1218.18,-609.98 1213.2,-608.79"/>
<polygon fill="black" stroke="black" points="1214.45,-605.5 1203.9,-606.45 1212.74,-612.29 1214.45,-605.5"/>
</g>
<!-- staking_config -->
<g id="node29" class="node">
<title>staking_config</title>
<ellipse fill="none" stroke="black" cx="1799" cy="-378" rx="63.09" ry="18"/>
<text text-anchor="middle" x="1799" y="-374.3" font-family="Times,serif" font-size="14.00">staking_config</text>
</g>
<!-- stake&#45;&gt;staking_config -->
<g id="edge63" class="edge">
<title>stake&#45;&gt;staking_config</title>
<path fill="none" stroke="black" d="M1700.14,-649.32C1707.09,-639.06 1715.84,-625.15 1722,-612 1755.19,-541.14 1780.39,-452.03 1791.98,-407.33"/>
<polygon fill="black" stroke="black" points="1795.36,-408.22 1794.45,-397.66 1788.58,-406.49 1795.36,-408.22"/>
</g>
<!-- math64 -->
<g id="node30" class="node">
<title>math64</title>
<ellipse fill="none" stroke="black" cx="1952" cy="-594" rx="37.89" ry="18"/>
<text text-anchor="middle" x="1952" y="-590.3" font-family="Times,serif" font-size="14.00">math64</text>
</g>
<!-- stake&#45;&gt;math64 -->
<g id="edge64" class="edge">
<title>stake&#45;&gt;math64</title>
<path fill="none" stroke="black" d="M1715.81,-658.9C1756.04,-649.6 1834.32,-630.96 1900,-612 1903.56,-610.97 1907.24,-609.86 1910.92,-608.72"/>
<polygon fill="black" stroke="black" points="1911.95,-612.07 1920.42,-605.71 1909.83,-605.4 1911.95,-612.07"/>
</g>
<!-- bls12381 -->
<g id="node31" class="node">
<title>bls12381</title>
<ellipse fill="none" stroke="black" cx="605" cy="-162" rx="42.79" ry="18"/>
<text text-anchor="middle" x="605" y="-158.3" font-family="Times,serif" font-size="14.00">bls12381</text>
</g>
<!-- stake&#45;&gt;bls12381 -->
<g id="edge65" class="edge">
<title>stake&#45;&gt;bls12381</title>
<path fill="none" stroke="black" d="M1660.15,-664.34C1482.14,-659.57 536.12,-623.62 401,-396 357.1,-322.05 406.27,-271.45 472,-216 496.3,-195.51 529.51,-182.26 556.66,-174.14"/>
<polygon fill="black" stroke="black" points="557.38,-177.57 566.05,-171.48 555.47,-170.84 557.38,-177.57"/>
</g>
<!-- transaction_fee&#45;&gt;error -->
<g id="edge67" class="edge">
<title>transaction_fee&#45;&gt;error</title>
<path fill="none" stroke="black" d="M1298.98,-725.51C1244.14,-709.57 1154.9,-675.29 1107,-612 1067.06,-559.22 1077.52,-533.64 1069,-468 1066.94,-452.13 1062.07,-446.42 1069,-432 1080.1,-408.92 1098.01,-416.01 1114,-396 1185.06,-307.09 1228.67,-176 1245.3,-119.09"/>
<polygon fill="black" stroke="black" points="1248.64,-120.14 1248.03,-109.56 1241.91,-118.21 1248.64,-120.14"/>
</g>
<!-- transaction_fee&#45;&gt;system_addresses -->
<g id="edge68" class="edge">
<title>transaction_fee&#45;&gt;system_addresses</title>
<path fill="none" stroke="black" d="M1407.22,-732.15C1556.44,-719.37 1934.28,-680.91 2038,-612 2108.6,-565.1 2108.56,-516.42 2101,-432 2098.1,-399.61 2102.05,-389.33 2088,-360 2083.21,-349.99 2076,-340.4 2068.71,-332.19"/>
<polygon fill="black" stroke="black" points="2071.32,-329.85 2061.91,-324.98 2066.22,-334.65 2071.32,-329.85"/>
</g>
<!-- transaction_fee&#45;&gt;option -->
<g id="edge66" class="edge">
<title>transaction_fee&#45;&gt;option</title>
<path fill="none" stroke="black" d="M1281.87,-736.13C1122.98,-731.43 702.35,-703.27 403,-540 228.84,-445.01 145.55,-431.92 62,-252 40.44,-205.57 60.01,-173.28 102,-144 149.13,-111.13 317.08,-97.76 398.33,-93.13"/>
<polygon fill="black" stroke="black" points="398.36,-96.63 408.15,-92.59 397.98,-89.64 398.36,-96.63"/>
</g>
<!-- transaction_fee&#45;&gt;stake -->
<g id="edge71" class="edge">
<title>transaction_fee&#45;&gt;stake</title>
<path fill="none" stroke="black" d="M1396.61,-726.67C1465.94,-712.52 1588.89,-687.43 1650.93,-674.77"/>
<polygon fill="black" stroke="black" points="1651.56,-678.21 1660.66,-672.78 1650.16,-671.35 1651.56,-678.21"/>
</g>
<!-- transaction_fee&#45;&gt;coin -->
<g id="edge69" class="edge">
<title>transaction_fee&#45;&gt;coin</title>
<path fill="none" stroke="black" d="M1346,-719.85C1346,-683.14 1346,-596.66 1346,-551.53"/>
<polygon fill="black" stroke="black" points="1349.5,-551.75 1346,-541.75 1342.5,-551.75 1349.5,-551.75"/>
</g>
<!-- transaction_fee&#45;&gt;aptos_coin -->
<g id="edge70" class="edge">
<title>transaction_fee&#45;&gt;aptos_coin</title>
<path fill="none" stroke="black" d="M1325.24,-720.71C1292.88,-695.33 1230.34,-646.26 1193.69,-617.51"/>
<polygon fill="black" stroke="black" points="1196.19,-615.02 1186.16,-611.6 1191.87,-620.53 1196.19,-615.02"/>
</g>
<!-- type_info&#45;&gt;string -->
<g id="edge72" class="edge">
<title>type_info&#45;&gt;string</title>
<path fill="none" stroke="black" d="M1004.61,-229.65C851.16,-217.79 335.31,-177.94 184.03,-166.25"/>
<polygon fill="black" stroke="black" points="184.31,-162.76 174.07,-165.48 183.77,-169.74 184.31,-162.76"/>
</g>
<!-- type_info&#45;&gt;error -->
<g id="edge73" class="edge">
<title>type_info&#45;&gt;error</title>
<path fill="none" stroke="black" d="M1055.08,-215.85C1064.11,-195.94 1081.56,-163.35 1106,-144 1138.02,-118.65 1183.2,-104.79 1215,-97.67"/>
<polygon fill="black" stroke="black" points="1215.52,-101.14 1224.58,-95.65 1214.07,-94.29 1215.52,-101.14"/>
</g>
<!-- type_info&#45;&gt;features -->
<g id="edge74" class="edge">
<title>type_info&#45;&gt;features</title>
<path fill="none" stroke="black" d="M1091.89,-230.47C1279.51,-219.64 2013.6,-177.28 2211.58,-165.85"/>
<polygon fill="black" stroke="black" points="2211.74,-169.35 2221.52,-165.28 2211.33,-162.36 2211.74,-169.35"/>
</g>
<!-- type_info&#45;&gt;bcs -->
<g id="edge75" class="edge">
<title>type_info&#45;&gt;bcs</title>
<path fill="none" stroke="black" d="M1016.45,-221.13C982.87,-208.49 929.96,-188.58 895.61,-175.65"/>
<polygon fill="black" stroke="black" points="897.17,-172.5 886.58,-172.25 894.71,-179.05 897.17,-172.5"/>
</g>
<!-- ed25519&#45;&gt;error -->
<g id="edge77" class="edge">
<title>ed25519&#45;&gt;error</title>
<path fill="none" stroke="black" d="M873.64,-287.85C883.65,-254.31 910.67,-180.15 962,-144 1002.09,-115.77 1144.28,-100.17 1213.95,-94.06"/>
<polygon fill="black" stroke="black" points="1214.1,-97.56 1223.77,-93.22 1213.51,-90.58 1214.1,-97.56"/>
</g>
<!-- ed25519&#45;&gt;option -->
<g id="edge76" class="edge">
<title>ed25519&#45;&gt;option</title>
<path fill="none" stroke="black" d="M859.58,-288.09C848.35,-268.99 828.18,-237.74 805,-216 761.02,-174.75 745.88,-166.67 690,-144 621.94,-116.39 537.24,-102.22 486.78,-95.73"/>
<polygon fill="black" stroke="black" points="487.49,-92.29 477.14,-94.53 486.63,-99.24 487.49,-92.29"/>
</g>
<!-- ed25519&#45;&gt;bcs -->
<g id="edge78" class="edge">
<title>ed25519&#45;&gt;bcs</title>
<path fill="none" stroke="black" d="M868.14,-287.59C866.96,-263.61 864.82,-220.14 863.4,-191.42"/>
<polygon fill="black" stroke="black" points="866.91,-191.44 862.92,-181.62 859.91,-191.78 866.91,-191.44"/>
</g>
<!-- ed25519&#45;&gt;type_info -->
<g id="edge79" class="edge">
<title>ed25519&#45;&gt;type_info</title>
<path fill="none" stroke="black" d="M898.96,-293.28C928.29,-281.81 973.23,-264.24 1006.09,-251.39"/>
<polygon fill="black" stroke="black" points="1007.29,-254.68 1015.33,-247.78 1004.74,-248.16 1007.29,-254.68"/>
</g>
<!-- ed25519&#45;&gt;hash -->
<g id="edge80" class="edge">
<title>ed25519&#45;&gt;hash</title>
<path fill="none" stroke="black" d="M847.79,-290.15C832.74,-279.62 812.42,-265.39 796.18,-254.02"/>
<polygon fill="black" stroke="black" points="798.6,-251.45 788.4,-248.58 794.59,-257.18 798.6,-251.45"/>
</g>
<!-- multi_ed25519&#45;&gt;error -->
<g id="edge82" class="edge">
<title>multi_ed25519&#45;&gt;error</title>
<path fill="none" stroke="black" d="M900.9,-364.77C955.16,-347.85 1046,-312.36 1101,-252 1135.8,-213.81 1108.84,-181.85 1144,-144 1163.45,-123.07 1192.93,-109.43 1216.33,-101.24"/>
<polygon fill="black" stroke="black" points="1217.41,-104.57 1225.82,-98.12 1215.23,-97.92 1217.41,-104.57"/>
</g>
<!-- multi_ed25519&#45;&gt;option -->
<g id="edge81" class="edge">
<title>multi_ed25519&#45;&gt;option</title>
<path fill="none" stroke="black" d="M835.17,-360.6C822.77,-350.51 806.99,-337.05 794,-324 764.41,-294.28 758.65,-285.18 733,-252 715.05,-228.78 681.22,-160.57 657,-144 605.86,-109 533.81,-97.07 487.75,-93.03"/>
<polygon fill="black" stroke="black" points="488.1,-89.55 477.86,-92.26 487.56,-96.53 488.1,-89.55"/>
</g>
<!-- multi_ed25519&#45;&gt;features -->
<g id="edge83" class="edge">
<title>multi_ed25519&#45;&gt;features</title>
<path fill="none" stroke="black" d="M910.11,-367.94C1008.53,-351.52 1223.44,-315.97 1405,-288 1712.99,-240.55 2084.04,-187.9 2213.61,-169.65"/>
<polygon fill="black" stroke="black" points="2213.76,-173.17 2223.18,-168.31 2212.79,-166.24 2213.76,-173.17"/>
</g>
<!-- multi_ed25519&#45;&gt;bcs -->
<g id="edge84" class="edge">
<title>multi_ed25519&#45;&gt;bcs</title>
<path fill="none" stroke="black" d="M883.99,-361.41C897.23,-352.38 911.7,-339.68 919,-324 940.89,-276.98 906.26,-219.06 882.12,-187.08"/>
<polygon fill="black" stroke="black" points="884.9,-184.94 875.98,-179.22 879.38,-189.25 884.9,-184.94"/>
</g>
<!-- multi_ed25519&#45;&gt;hash -->
<g id="edge85" class="edge">
<title>multi_ed25519&#45;&gt;hash</title>
<path fill="none" stroke="black" d="M843.57,-360.1C836.18,-349.83 826.76,-336.35 819,-324 806.06,-303.39 792.62,-279.29 782.94,-261.37"/>
<polygon fill="black" stroke="black" points="786.09,-259.85 778.28,-252.69 779.92,-263.16 786.09,-259.85"/>
</g>
<!-- multi_ed25519&#45;&gt;ed25519 -->
<g id="edge86" class="edge">
<title>multi_ed25519&#45;&gt;ed25519</title>
<path fill="none" stroke="black" d="M859.21,-359.7C860.58,-352.32 862.22,-343.52 863.75,-335.25"/>
<polygon fill="black" stroke="black" points="867.16,-336.06 865.55,-325.59 860.28,-334.79 867.16,-336.06"/>
</g>
<!-- from_bcs&#45;&gt;string -->
<g id="edge87" class="edge">
<title>from_bcs&#45;&gt;string</title>
<path fill="none" stroke="black" d="M237.43,-218.67C218.86,-207.83 193.24,-192.89 173.22,-181.21"/>
<polygon fill="black" stroke="black" points="175.04,-178.22 164.63,-176.2 171.51,-184.27 175.04,-178.22"/>
</g>
<!-- coin&#45;&gt;string -->
<g id="edge89" class="edge">
<title>coin&#45;&gt;string</title>
<path fill="none" stroke="black" d="M1318.61,-521.13C1220.37,-521.15 876.76,-517.44 599,-468 485.58,-447.81 448.89,-455.1 350,-396 260.45,-342.48 188.03,-237.81 157.56,-189.1"/>
<polygon fill="black" stroke="black" points="160.56,-187.29 152.34,-180.61 154.6,-190.96 160.56,-187.29"/>
</g>
<!-- coin&#45;&gt;error -->
<g id="edge91" class="edge">
<title>coin&#45;&gt;error</title>
<path fill="none" stroke="black" d="M1345.71,-503.84C1344.29,-449.35 1335.86,-276.07 1286,-144 1282.31,-134.23 1276.73,-124.31 1271.2,-115.74"/>
<polygon fill="black" stroke="black" points="1274.21,-113.94 1265.7,-107.63 1268.42,-117.87 1274.21,-113.94"/>
</g>
<!-- coin&#45;&gt;system_addresses -->
<g id="edge93" class="edge">
<title>coin&#45;&gt;system_addresses</title>
<path fill="none" stroke="black" d="M1372.74,-518.34C1479.47,-507.33 1874.15,-462.76 1978,-396 2001.21,-381.08 2018.65,-354.53 2029.42,-334.29"/>
<polygon fill="black" stroke="black" points="2032.5,-335.95 2033.89,-325.45 2026.25,-332.79 2032.5,-335.95"/>
</g>
<!-- coin&#45;&gt;option -->
<g id="edge88" class="edge">
<title>coin&#45;&gt;option</title>
<path fill="none" stroke="black" d="M1318.6,-521.28C1222.58,-521.78 892.75,-519.38 627,-468 601.12,-463 416.55,-417.28 401,-396 338.48,-310.46 397.96,-174.52 427.99,-117.52"/>
<polygon fill="black" stroke="black" points="431,-119.31 432.67,-108.85 424.84,-115.99 431,-119.31"/>
</g>
<!-- coin&#45;&gt;signer -->
<g id="edge90" class="edge">
<title>coin&#45;&gt;signer</title>
<path fill="none" stroke="black" d="M1372.9,-518.41C1445.99,-511.31 1654.35,-490.51 1827,-468 1933.52,-454.11 1959.55,-446.38 2066,-432 2199.52,-413.96 2243.49,-449.84 2367,-396 2423.08,-371.55 2472,-368.18 2472,-307 2472,-307 2472,-307 2472,-233 2472,-193.74 2472,-148.38 2472,-119.69"/>
<polygon fill="black" stroke="black" points="2475.5,-120 2472,-110 2468.5,-120 2475.5,-120"/>
</g>
<!-- coin&#45;&gt;event -->
<g id="edge94" class="edge">
<title>coin&#45;&gt;event</title>
<path fill="none" stroke="black" d="M1318.57,-521.56C1230.09,-522.75 944.69,-521.86 717,-468 675.08,-458.08 667.9,-445.54 627,-432 567.64,-412.35 550.91,-413.9 491,-396 486.19,-394.56 481.15,-392.98 476.19,-391.38"/>
<polygon fill="black" stroke="black" points="477.61,-388.16 467.02,-388.35 475.42,-394.81 477.61,-388.16"/>
</g>
<!-- coin&#45;&gt;account -->
<g id="edge95" class="edge">
<title>coin&#45;&gt;account</title>
<path fill="none" stroke="black" d="M1320.87,-514.87C1305.41,-511.28 1285.15,-506.9 1267,-504 1101.49,-477.55 903.14,-461.08 812.95,-454.41"/>
<polygon fill="black" stroke="black" points="813.46,-450.94 803.23,-453.7 812.95,-457.92 813.46,-450.94"/>
</g>
<!-- coin&#45;&gt;type_info -->
<g id="edge92" class="edge">
<title>coin&#45;&gt;type_info</title>
<path fill="none" stroke="black" d="M1324.8,-510.54C1287.68,-491.5 1209.86,-448.29 1157,-396 1115.64,-355.09 1080.57,-296.29 1062.06,-262.23"/>
<polygon fill="black" stroke="black" points="1065.16,-260.6 1057.36,-253.43 1058.99,-263.9 1065.16,-260.6"/>
</g>
<!-- aggregator -->
<g id="node32" class="node">
<title>aggregator</title>
<ellipse fill="none" stroke="black" cx="1462" cy="-306" rx="48.19" ry="18"/>
<text text-anchor="middle" x="1462" y="-302.3" font-family="Times,serif" font-size="14.00">aggregator</text>
</g>
<!-- coin&#45;&gt;aggregator -->
<g id="edge96" class="edge">
<title>coin&#45;&gt;aggregator</title>
<path fill="none" stroke="black" d="M1372.31,-517.23C1418.07,-510.09 1509.24,-493.01 1528,-468 1537.6,-455.2 1535.23,-446.28 1528,-432 1515.8,-407.89 1493.42,-418.85 1479,-396 1467.64,-377.99 1463.54,-354.15 1462.2,-335.67"/>
<polygon fill="black" stroke="black" points="1465.71,-335.76 1461.74,-325.93 1458.71,-336.09 1465.71,-335.76"/>
</g>
<!-- aggregator_factory -->
<g id="node33" class="node">
<title>aggregator_factory</title>
<ellipse fill="none" stroke="black" cx="1565" cy="-378" rx="77.19" ry="18"/>
<text text-anchor="middle" x="1565" y="-374.3" font-family="Times,serif" font-size="14.00">aggregator_factory</text>
</g>
<!-- coin&#45;&gt;aggregator_factory -->
<g id="edge97" class="edge">
<title>coin&#45;&gt;aggregator_factory</title>
<path fill="none" stroke="black" d="M1372.75,-518.34C1424.92,-512.56 1537.23,-496.98 1561,-468 1574.65,-451.36 1574.64,-426.52 1571.79,-407.31"/>
<polygon fill="black" stroke="black" points="1575.28,-406.89 1570.02,-397.69 1568.39,-408.15 1575.28,-406.89"/>
</g>
<!-- optional_aggregator -->
<g id="node34" class="node">
<title>optional_aggregator</title>
<ellipse fill="none" stroke="black" cx="1438" cy="-450" rx="81.49" ry="18"/>
<text text-anchor="middle" x="1438" y="-446.3" font-family="Times,serif" font-size="14.00">optional_aggregator</text>
</g>
<!-- coin&#45;&gt;optional_aggregator -->
<g id="edge98" class="edge">
<title>coin&#45;&gt;optional_aggregator</title>
<path fill="none" stroke="black" d="M1363.3,-507.83C1375.72,-498.39 1392.78,-485.41 1407.46,-474.24"/>
<polygon fill="black" stroke="black" points="1409.18,-477.32 1415.02,-468.48 1404.94,-471.75 1409.18,-477.32"/>
</g>
<!-- aptos_coin&#45;&gt;vector -->
<g id="edge99" class="edge">
<title>aptos_coin&#45;&gt;vector</title>
<path fill="none" stroke="black" d="M1116.55,-591.14C985.03,-585.76 623.49,-568.73 508,-540 429.56,-520.49 411.81,-506.98 341,-468 180.2,-379.48 0,-418.56 0,-235 0,-235 0,-235 0,-161 0,-83.52 263.74,-39.12 369.19,-24.47"/>
<polygon fill="black" stroke="black" points="369.42,-27.97 378.86,-23.15 368.47,-21.03 369.42,-27.97"/>
</g>
<!-- aptos_coin&#45;&gt;string -->
<g id="edge101" class="edge">
<title>aptos_coin&#45;&gt;string</title>
<path fill="none" stroke="black" d="M1115.57,-593.61C991.79,-593.3 660.98,-581.11 417,-468 285.3,-406.94 239.59,-380.47 172,-252 161.79,-232.59 154.02,-209 148.95,-190.98"/>
<polygon fill="black" stroke="black" points="152.38,-190.26 146.41,-181.51 145.62,-192.08 152.38,-190.26"/>
</g>
<!-- aptos_coin&#45;&gt;error -->
<g id="edge103" class="edge">
<title>aptos_coin&#45;&gt;error</title>
<path fill="none" stroke="black" d="M1179.9,-576.7C1207.88,-544.85 1267.38,-470.94 1289,-396 1317.64,-296.73 1282.3,-172.98 1263.42,-118.7"/>
<polygon fill="black" stroke="black" points="1266.74,-117.57 1260.07,-109.33 1260.14,-119.93 1266.74,-117.57"/>
</g>
<!-- aptos_coin&#45;&gt;system_addresses -->
<g id="edge104" class="edge">
<title>aptos_coin&#45;&gt;system_addresses</title>
<path fill="none" stroke="black" d="M1211.05,-587.38C1319.78,-573.43 1600.33,-533.59 1827,-468 1910.56,-443.82 1948.16,-458.17 2009,-396 2025.04,-379.61 2033.39,-354.75 2037.67,-335.47"/>
<polygon fill="black" stroke="black" points="2041.08,-336.28 2039.56,-325.79 2034.21,-334.94 2041.08,-336.28"/>
</g>
<!-- aptos_coin&#45;&gt;option -->
<g id="edge100" class="edge">
<title>aptos_coin&#45;&gt;option</title>
<path fill="none" stroke="black" d="M1117.1,-589.82C1039.61,-584.02 882.26,-569.49 752,-540 652.07,-517.38 628.29,-505.65 533,-468 462.35,-440.09 422.76,-457.37 378,-396 311.85,-305.3 340.21,-241.98 395,-144 401.09,-133.11 409.79,-122.6 418.12,-113.86"/>
<polygon fill="black" stroke="black" points="420.56,-116.37 425.15,-106.82 415.61,-111.42 420.56,-116.37"/>
</g>
<!-- aptos_coin&#45;&gt;signer -->
<g id="edge102" class="edge">
<title>aptos_coin&#45;&gt;signer</title>
<path fill="none" stroke="black" d="M1211.99,-588.32C1293.43,-580 1465.99,-561.49 1611,-540 1791.85,-513.2 2261.45,-485.26 2421,-396 2458.37,-375.1 2469.51,-363.91 2485,-324 2512.05,-254.31 2493.35,-164.04 2480.8,-119.06"/>
<polygon fill="black" stroke="black" points="2484.2,-118.21 2478.05,-109.58 2477.48,-120.16 2484.2,-118.21"/>
</g>
<!-- aptos_coin&#45;&gt;coin -->
<g id="edge105" class="edge">
<title>aptos_coin&#45;&gt;coin</title>
<path fill="none" stroke="black" d="M1198.78,-580.55C1227.2,-569.99 1268.88,-554.32 1305,-540 1307.63,-538.96 1310.35,-537.86 1313.08,-536.75"/>
<polygon fill="black" stroke="black" points="1314.17,-540.09 1322.09,-533.05 1311.51,-533.61 1314.17,-540.09"/>
</g>
<!-- staking_config&#45;&gt;error -->
<g id="edge106" class="edge">
<title>staking_config&#45;&gt;error</title>
<path fill="none" stroke="black" d="M1796.86,-359.67C1790.38,-315.42 1766.69,-197.94 1693,-144 1629.74,-97.7 1388.38,-91.53 1292.55,-90.94"/>
<polygon fill="black" stroke="black" points="1292.61,-87.44 1282.59,-90.89 1292.58,-94.44 1292.61,-87.44"/>
</g>
<!-- staking_config&#45;&gt;system_addresses -->
<g id="edge107" class="edge">
<title>staking_config&#45;&gt;system_addresses</title>
<path fill="none" stroke="black" d="M1842.16,-364.57C1881.94,-353.11 1941.23,-336.03 1984.9,-323.45"/>
<polygon fill="black" stroke="black" points="1985.84,-326.82 1994.48,-320.69 1983.9,-320.09 1985.84,-326.82"/>
</g>
<!-- bls12381&#45;&gt;error -->
<g id="edge109" class="edge">
<title>bls12381&#45;&gt;error</title>
<path fill="none" stroke="black" d="M643.25,-153.42C660.53,-150.19 681.24,-146.57 700,-144 891.81,-117.69 1122.83,-100.05 1213.63,-93.67"/>
<polygon fill="black" stroke="black" points="1213.76,-97.17 1223.49,-92.98 1213.27,-90.18 1213.76,-97.17"/>
</g>
<!-- bls12381&#45;&gt;option -->
<g id="edge108" class="edge">
<title>bls12381&#45;&gt;option</title>
<path fill="none" stroke="black" d="M576.04,-148.49C548.8,-136.72 507.96,-119.07 478.71,-106.43"/>
<polygon fill="black" stroke="black" points="480.47,-103.38 469.9,-102.62 477.69,-109.8 480.47,-103.38"/>
</g>
<!-- aggregator_factory&#45;&gt;error -->
<g id="edge110" class="edge">
<title>aggregator_factory&#45;&gt;error</title>
<path fill="none" stroke="black" d="M1577.86,-359.98C1590.07,-341.59 1604.91,-311.75 1593,-288 1533.07,-168.51 1365.7,-116.53 1290.46,-98.71"/>
<polygon fill="black" stroke="black" points="1291.64,-95.39 1281.11,-96.57 1290.08,-102.21 1291.64,-95.39"/>
</g>
<!-- aggregator_factory&#45;&gt;system_addresses -->
<g id="edge112" class="edge">
<title>aggregator_factory&#45;&gt;system_addresses</title>
<path fill="none" stroke="black" d="M1628.84,-367.63C1717.18,-354.67 1876.29,-331.32 1969.17,-317.69"/>
<polygon fill="black" stroke="black" points="1969.55,-321.17 1978.93,-316.26 1968.53,-314.24 1969.55,-321.17"/>
</g>
<!-- aggregator_factory&#45;&gt;table -->
<g id="edge111" class="edge">
<title>aggregator_factory&#45;&gt;table</title>
<path fill="none" stroke="black" d="M1562.78,-359.7C1561.83,-352.32 1560.7,-343.52 1559.63,-335.25"/>
<polygon fill="black" stroke="black" points="1563.14,-335.08 1558.39,-325.61 1556.2,-335.97 1563.14,-335.08"/>
</g>
<!-- aggregator_factory&#45;&gt;aggregator -->
<g id="edge113" class="edge">
<title>aggregator_factory&#45;&gt;aggregator</title>
<path fill="none" stroke="black" d="M1540.85,-360.59C1526.9,-351.11 1509.18,-339.06 1494.07,-328.8"/>
<polygon fill="black" stroke="black" points="1496.08,-325.93 1485.84,-323.2 1492.14,-331.72 1496.08,-325.93"/>
</g>
<!-- optional_aggregator&#45;&gt;error -->
<g id="edge115" class="edge">
<title>optional_aggregator&#45;&gt;error</title>
<path fill="none" stroke="black" d="M1433.28,-431.64C1426.75,-407.53 1414.69,-362.53 1405,-324 1384.95,-244.23 1413.49,-208.14 1362,-144 1343.92,-121.48 1313.89,-107.87 1289.93,-100.09"/>
<polygon fill="black" stroke="black" points="1291.1,-96.79 1280.52,-97.26 1289.08,-103.49 1291.1,-96.79"/>
</g>
<!-- optional_aggregator&#45;&gt;option -->
<g id="edge114" class="edge">
<title>optional_aggregator&#45;&gt;option</title>
<path fill="none" stroke="black" d="M1361.47,-443.47C1191.43,-431.1 796.09,-401.8 783,-396 654.81,-339.15 653.01,-278.3 553,-180 537.08,-164.36 534.96,-158.5 518,-144 504.02,-132.05 487.41,-120.1 473.37,-110.59"/>
<polygon fill="black" stroke="black" points="475.65,-107.9 465.39,-105.26 471.77,-113.72 475.65,-107.9"/>
</g>
<!-- optional_aggregator&#45;&gt;aggregator -->
<g id="edge116" class="edge">
<title>optional_aggregator&#45;&gt;aggregator</title>
<path fill="none" stroke="black" d="M1438.51,-431.79C1439.29,-413.76 1441.22,-384.67 1446,-360 1447.62,-351.66 1450.02,-342.77 1452.48,-334.69"/>
<polygon fill="black" stroke="black" points="1455.74,-336 1455.45,-325.41 1449.07,-333.86 1455.74,-336"/>
</g>
<!-- optional_aggregator&#45;&gt;aggregator_factory -->
<g id="edge117" class="edge">
<title>optional_aggregator&#45;&gt;aggregator_factory</title>
<path fill="none" stroke="black" d="M1467.46,-432.76C1484.89,-423.15 1507.19,-410.87 1526.06,-400.46"/>
<polygon fill="black" stroke="black" points="1527.75,-403.53 1534.82,-395.64 1524.37,-397.4 1527.75,-403.53"/>
</g>
</g>
</svg>
