<?xml version="1.0" encoding="UTF-8" standalone="no"?>
<!DOCTYPE svg PUBLIC "-//W3C//DTD SVG 1.1//EN"
 "http://www.w3.org/Graphics/SVG/1.1/DTD/svg11.dtd">
<!-- Generated by graphviz version 7.0.4 (20221203.1631)
 -->
<!-- Title: G Pages: 1 -->
<svg width="521pt" height="260pt"
 viewBox="0.00 0.00 521.37 260.00" xmlns="http://www.w3.org/2000/svg" xmlns:xlink="http://www.w3.org/1999/xlink">
<g id="graph0" class="graph" transform="scale(1 1) rotate(0) translate(4 256)">
<title>G</title>
<polygon fill="white" stroke="none" points="-4,4 -4,-256 517.37,-256 517.37,4 -4,4"/>
<!-- initialize_validator -->
<g id="node1" class="node">
<title>initialize_validator</title>
<ellipse fill="none" stroke="black" cx="224.84" cy="-18" rx="77.19" ry="18"/>
<text text-anchor="middle" x="224.84" y="-14.3" font-family="Times,serif" font-size="14.00">initialize_validator</text>
</g>
<!-- create_employee_validators -->
<g id="node2" class="node">
<title>create_employee_validators</title>
<ellipse fill="none" stroke="black" cx="109.84" cy="-90" rx="109.68" ry="18"/>
<text text-anchor="middle" x="109.84" y="-86.3" font-family="Times,serif" font-size="14.00">create_employee_validators</text>
</g>
<!-- create_employee_validators&#45;&gt;initialize_validator -->
<g id="edge1" class="edge">
<title>create_employee_validators&#45;&gt;initialize_validator</title>
<path fill="none" stroke="black" d="M137.39,-72.23C152.83,-62.83 172.27,-51 188.9,-40.88"/>
<polygon fill="black" stroke="black" points="190.3,-44.12 197.02,-35.93 186.66,-38.14 190.3,-44.12"/>
</g>
<!-- create_initialize_validator -->
<g id="node3" class="node">
<title>create_initialize_validator</title>
<ellipse fill="none" stroke="black" cx="340.84" cy="-90" rx="102.88" ry="18"/>
<text text-anchor="middle" x="340.84" y="-86.3" font-family="Times,serif" font-size="14.00">create_initialize_validator</text>
</g>
<!-- create_initialize_validator&#45;&gt;initialize_validator -->
<g id="edge2" class="edge">
<title>create_initialize_validator&#45;&gt;initialize_validator</title>
<path fill="none" stroke="black" d="M313.06,-72.23C297.48,-62.83 277.87,-51 261.1,-40.88"/>
<polygon fill="black" stroke="black" points="263.27,-38.1 252.9,-35.93 259.65,-44.09 263.27,-38.1"/>
</g>
<!-- initialize_for_verification -->
<g id="node4" class="node">
<title>initialize_for_verification</title>
<ellipse fill="none" stroke="black" cx="113.84" cy="-234" rx="100.98" ry="18"/>
<text text-anchor="middle" x="113.84" y="-230.3" font-family="Times,serif" font-size="14.00">initialize_for_verification</text>
</g>
<!-- initialize_for_verification&#45;&gt;create_employee_validators -->
<g id="edge3" class="edge">
<title>initialize_for_verification&#45;&gt;create_employee_validators</title>
<path fill="none" stroke="black" d="M113.35,-215.59C112.67,-191.61 111.45,-148.14 110.64,-119.42"/>
<polygon fill="black" stroke="black" points="114.15,-119.52 110.36,-109.62 107.15,-119.72 114.15,-119.52"/>
</g>
<!-- create_initialize_validators_with_commission -->
<g id="node5" class="node">
<title>create_initialize_validators_with_commission</title>
<ellipse fill="none" stroke="black" cx="339.84" cy="-162" rx="173.57" ry="18"/>
<text text-anchor="middle" x="339.84" y="-158.3" font-family="Times,serif" font-size="14.00">create_initialize_validators_with_commission</text>
</g>
<!-- initialize_for_verification&#45;&gt;create_initialize_validators_with_commission -->
<g id="edge5" class="edge">
<title>initialize_for_verification&#45;&gt;create_initialize_validators_with_commission</title>
<path fill="none" stroke="black" d="M162.88,-217.81C195.94,-207.57 239.89,-193.96 275.72,-182.86"/>
<polygon fill="black" stroke="black" points="276.59,-186.25 285.11,-179.95 274.52,-179.57 276.59,-186.25"/>
</g>
<!-- create_initialize_validators_with_commission&#45;&gt;create_initialize_validator -->
<g id="edge4" class="edge">
<title>create_initialize_validators_with_commission&#45;&gt;create_initialize_validator</title>
<path fill="none" stroke="black" d="M340.09,-143.7C340.19,-136.41 340.32,-127.73 340.43,-119.54"/>
<polygon fill="black" stroke="black" points="343.93,-119.67 340.57,-109.62 336.93,-119.57 343.93,-119.67"/>
</g>
<!-- create_initialize_validators -->
<g id="node6" class="node">
<title>create_initialize_validators</title>
<ellipse fill="none" stroke="black" cx="339.84" cy="-234" rx="105.88" ry="18"/>
<text text-anchor="middle" x="339.84" y="-230.3" font-family="Times,serif" font-size="14.00">create_initialize_validators</text>
</g>
<!-- create_initialize_validators&#45;&gt;create_initialize_validators_with_commission -->
<g id="edge6" class="edge">
<title>create_initialize_validators&#45;&gt;create_initialize_validators_with_commission</title>
<path fill="none" stroke="black" d="M339.84,-215.7C339.84,-208.41 339.84,-199.73 339.84,-191.54"/>
<polygon fill="black" stroke="black" points="343.34,-191.62 339.84,-181.62 336.34,-191.62 343.34,-191.62"/>
</g>
</g>
</svg>
