<?xml version="1.0" encoding="UTF-8" standalone="no"?>
<!DOCTYPE svg PUBLIC "-//W3C//DTD SVG 1.1//EN"
 "http://www.w3.org/Graphics/SVG/1.1/DTD/svg11.dtd">
<!-- Generated by graphviz version 7.0.4 (20221203.1631)
 -->
<!-- Title: G Pages: 1 -->
<svg width="604pt" height="365pt"
 viewBox="0.00 0.00 604.00 365.00" xmlns="http://www.w3.org/2000/svg" xmlns:xlink="http://www.w3.org/1999/xlink">
<g id="graph0" class="graph" transform="scale(1 1) rotate(0) translate(4 361)">
<title>G</title>
<polygon fill="white" stroke="none" points="-4,4 -4,-361 600,-361 600,4 -4,4"/>
<g id="clust1" class="cluster">
<title>cluster_chain_status</title>
<polygon fill="none" stroke="black" points="71,-238 71,-313 223,-313 223,-238 71,-238"/>
<text text-anchor="middle" x="147" y="-297.8" font-family="Times,serif" font-size="14.00">chain_status</text>
</g>
<g id="clust2" class="cluster">
<title>cluster_system_addresses</title>
<polygon fill="none" stroke="black" points="8,-80 8,-230 252,-230 252,-80 8,-80"/>
<text text-anchor="middle" x="130" y="-214.8" font-family="Times,serif" font-size="14.00">system_addresses</text>
</g>
<g id="clust3" class="cluster">
<title>cluster_signer</title>
<polygon fill="none" stroke="black" points="260,-8 260,-155 410,-155 410,-8 260,-8"/>
<text text-anchor="middle" x="335" y="-139.8" font-family="Times,serif" font-size="14.00">signer</text>
</g>
<g id="clust4" class="cluster">
<title>cluster_error</title>
<polygon fill="none" stroke="black" points="418,-8 418,-155 588,-155 588,-8 418,-8"/>
<text text-anchor="middle" x="503" y="-139.8" font-family="Times,serif" font-size="14.00">error</text>
</g>
<!-- set_genesis_end -->
<g id="node1" class="node">
<title>set_genesis_end</title>
<ellipse fill="none" stroke="black" cx="147" cy="-339" rx="67.69" ry="18"/>
<text text-anchor="middle" x="147" y="-335.3" font-family="Times,serif" font-size="14.00">set_genesis_end</text>
</g>
<!-- chain_status::set_genesis_end -->
<g id="node2" class="node">
<title>chain_status::set_genesis_end</title>
<ellipse fill="none" stroke="black" cx="147" cy="-264" rx="67.69" ry="18"/>
<text text-anchor="middle" x="147" y="-260.3" font-family="Times,serif" font-size="14.00">set_genesis_end</text>
</g>
<!-- set_genesis_end&#45;&gt;chain_status::set_genesis_end -->
<g id="edge1" class="edge">
<title>set_genesis_end&#45;&gt;chain_status::set_genesis_end</title>
<path fill="none" stroke="black" d="M147,-320.7C147,-312.67 147,-302.9 147,-293.8"/>
<polygon fill="black" stroke="black" points="150.5,-293.94 147,-283.94 143.5,-293.94 150.5,-293.94"/>
</g>
<!-- system_addresses::assert_aptos_framework -->
<g id="node3" class="node">
<title>system_addresses::assert_aptos_framework</title>
<ellipse fill="none" stroke="black" cx="147" cy="-181" rx="96.68" ry="18"/>
<text text-anchor="middle" x="147" y="-177.3" font-family="Times,serif" font-size="14.00">assert_aptos_framework</text>
</g>
<!-- chain_status::set_genesis_end&#45;&gt;system_addresses::assert_aptos_framework -->
<g id="edge2" class="edge">
<title>chain_status::set_genesis_end&#45;&gt;system_addresses::assert_aptos_framework</title>
<path fill="none" stroke="black" d="M147,-245.82C147,-235.69 147,-222.6 147,-210.92"/>
<polygon fill="black" stroke="black" points="150.5,-210.95 147,-200.95 143.5,-210.95 150.5,-210.95"/>
</g>
<!-- signer::address_of -->
<g id="node4" class="node">
<title>signer::address_of</title>
<ellipse fill="none" stroke="black" cx="326" cy="-106" rx="48.99" ry="18"/>
<text text-anchor="middle" x="326" y="-102.3" font-family="Times,serif" font-size="14.00">address_of</text>
</g>
<!-- system_addresses::assert_aptos_framework&#45;&gt;signer::address_of -->
<g id="edge3" class="edge">
<title>system_addresses::assert_aptos_framework&#45;&gt;signer::address_of</title>
<path fill="none" stroke="black" d="M216.59,-168.16C229.96,-164.74 243.64,-160.42 256,-155 270.84,-148.49 285.85,-138.72 298.14,-129.68"/>
<polygon fill="black" stroke="black" points="299.91,-132.74 305.76,-123.9 295.68,-127.16 299.91,-132.74"/>
</g>
<!-- error::permission_denied -->
<g id="node5" class="node">
<title>error::permission_denied</title>
<ellipse fill="none" stroke="black" cx="503" cy="-106" rx="77.19" ry="18"/>
<text text-anchor="middle" x="503" y="-102.3" font-family="Times,serif" font-size="14.00">permission_denied</text>
</g>
<!-- system_addresses::assert_aptos_framework&#45;&gt;error::permission_denied -->
<g id="edge4" class="edge">
<title>system_addresses::assert_aptos_framework&#45;&gt;error::permission_denied</title>
<path fill="none" stroke="black" d="M239.19,-175.28C303.12,-171.27 382.25,-164.61 414,-155 433.34,-149.14 453.28,-138.85 469.37,-129.29"/>
<polygon fill="black" stroke="black" points="470.87,-132.48 477.57,-124.27 467.21,-126.51 470.87,-132.48"/>
</g>
<!-- system_addresses::is_aptos_framework_address -->
<g id="node6" class="node">
<title>system_addresses::is_aptos_framework_address</title>
<ellipse fill="none" stroke="black" cx="130" cy="-106" rx="113.98" ry="18"/>
<text text-anchor="middle" x="130" y="-102.3" font-family="Times,serif" font-size="14.00">is_aptos_framework_address</text>
</g>
<!-- system_addresses::assert_aptos_framework&#45;&gt;system_addresses::is_aptos_framework_address -->
<g id="edge5" class="edge">
<title>system_addresses::assert_aptos_framework&#45;&gt;system_addresses::is_aptos_framework_address</title>
<path fill="none" stroke="black" d="M142.97,-162.7C141.08,-154.58 138.77,-144.68 136.64,-135.5"/>
<polygon fill="black" stroke="black" points="140.08,-134.85 134.4,-125.9 133.26,-136.44 140.08,-134.85"/>
</g>
<!-- signer::borrow_address -->
<g id="node7" class="node">
<title>signer::borrow_address</title>
<ellipse fill="none" stroke="black" cx="335" cy="-34" rx="66.89" ry="18"/>
<text text-anchor="middle" x="335" y="-30.3" font-family="Times,serif" font-size="14.00">borrow_address</text>
</g>
<!-- signer::address_of&#45;&gt;signer::borrow_address -->
<g id="edge6" class="edge">
<title>signer::address_of&#45;&gt;signer::borrow_address</title>
<path fill="none" stroke="black" d="M328.22,-87.7C329.17,-80.32 330.3,-71.52 331.37,-63.25"/>
<polygon fill="black" stroke="black" points="334.8,-63.97 332.61,-53.61 327.86,-63.08 334.8,-63.97"/>
</g>
<!-- error::canonical -->
<g id="node8" class="node">
<title>error::canonical</title>
<ellipse fill="none" stroke="black" cx="503" cy="-34" rx="44.39" ry="18"/>
<text text-anchor="middle" x="503" y="-30.3" font-family="Times,serif" font-size="14.00">canonical</text>
</g>
<!-- error::permission_denied&#45;&gt;error::canonical -->
<g id="edge7" class="edge">
<title>error::permission_denied&#45;&gt;error::canonical</title>
<path fill="none" stroke="black" d="M503,-87.7C503,-80.41 503,-71.73 503,-63.54"/>
<polygon fill="black" stroke="black" points="506.5,-63.62 503,-53.62 499.5,-63.62 506.5,-63.62"/>
</g>
</g>
</svg>
