<?xml version="1.0" encoding="UTF-8" standalone="no"?>
<!DOCTYPE svg PUBLIC "-//W3C//DTD SVG 1.1//EN"
 "http://www.w3.org/Graphics/SVG/1.1/DTD/svg11.dtd">
<!-- Generated by graphviz version 7.0.4 (20221203.1631)
 -->
<!-- Title: G Pages: 1 -->
<svg width="440pt" height="188pt"
 viewBox="0.00 0.00 439.68 188.00" xmlns="http://www.w3.org/2000/svg" xmlns:xlink="http://www.w3.org/1999/xlink">
<g id="graph0" class="graph" transform="scale(1 1) rotate(0) translate(4 184)">
<title>G</title>
<polygon fill="white" stroke="none" points="-4,4 -4,-184 435.68,-184 435.68,4 -4,4"/>
<!-- create_initialize_validator -->
<g id="node1" class="node">
<title>create_initialize_validator</title>
<ellipse fill="none" stroke="black" cx="212.74" cy="-18" rx="102.88" ry="18"/>
<text text-anchor="middle" x="212.74" y="-14.3" font-family="Times,serif" font-size="14.00">create_initialize_validator</text>
</g>
<!-- create_initialize_validators_with_commission -->
<g id="node2" class="node">
<title>create_initialize_validators_with_commission</title>
<ellipse fill="none" stroke="black" cx="212.74" cy="-90" rx="173.57" ry="18"/>
<text text-anchor="middle" x="212.74" y="-86.3" font-family="Times,serif" font-size="14.00">create_initialize_validators_with_commission</text>
</g>
<!-- create_initialize_validators_with_commission&#45;&gt;create_initialize_validator -->
<g id="edge1" class="edge">
<title>create_initialize_validators_with_commission&#45;&gt;create_initialize_validator</title>
<path fill="none" stroke="black" d="M212.74,-71.7C212.74,-64.41 212.74,-55.73 212.74,-47.54"/>
<polygon fill="black" stroke="black" points="216.24,-47.62 212.74,-37.62 209.24,-47.62 216.24,-47.62"/>
</g>
<!-- initialize_for_verification -->
<g id="node3" class="node">
<title>initialize_for_verification</title>
<ellipse fill="none" stroke="black" cx="100.74" cy="-162" rx="100.98" ry="18"/>
<text text-anchor="middle" x="100.74" y="-158.3" font-family="Times,serif" font-size="14.00">initialize_for_verification</text>
</g>
<!-- initialize_for_verification&#45;&gt;create_initialize_validators_with_commission -->
<g id="edge2" class="edge">
<title>initialize_for_verification&#45;&gt;create_initialize_validators_with_commission</title>
<path fill="none" stroke="black" d="M127.57,-144.23C142.04,-135.19 160.11,-123.89 175.89,-114.03"/>
<polygon fill="black" stroke="black" points="177.45,-117.19 184.07,-108.92 173.74,-111.25 177.45,-117.19"/>
</g>
<!-- create_initialize_validators -->
<g id="node4" class="node">
<title>create_initialize_validators</title>
<ellipse fill="none" stroke="black" cx="325.74" cy="-162" rx="105.88" ry="18"/>
<text text-anchor="middle" x="325.74" y="-158.3" font-family="Times,serif" font-size="14.00">create_initialize_validators</text>
</g>
<!-- create_initialize_validators&#45;&gt;create_initialize_validators_with_commission -->
<g id="edge3" class="edge">
<title>create_initialize_validators&#45;&gt;create_initialize_validators_with_commission</title>
<path fill="none" stroke="black" d="M298.67,-144.23C284.08,-135.19 265.84,-123.89 249.93,-114.03"/>
<polygon fill="black" stroke="black" points="252,-111.2 241.66,-108.91 248.32,-117.15 252,-111.2"/>
</g>
</g>
</svg>
