<?xml version="1.0" encoding="UTF-8" standalone="no"?>
<!DOCTYPE svg PUBLIC "-//W3C//DTD SVG 1.1//EN"
 "http://www.w3.org/Graphics/SVG/1.1/DTD/svg11.dtd">
<!-- Generated by graphviz version 7.0.4 (20221203.1631)
 -->
<!-- Title: G Pages: 1 -->
<svg width="1557pt" height="614pt"
 viewBox="0.00 0.00 1557.00 614.00" xmlns="http://www.w3.org/2000/svg" xmlns:xlink="http://www.w3.org/1999/xlink">
<g id="graph0" class="graph" transform="scale(1 1) rotate(0) translate(4 610)">
<title>G</title>
<polygon fill="white" stroke="none" points="-4,4 -4,-610 1553,-610 1553,4 -4,4"/>
<g id="clust1" class="cluster">
<title>cluster_aptos_coin</title>
<polygon fill="none" stroke="black" points="894,-487 894,-562 994,-562 994,-487 894,-487"/>
<text text-anchor="middle" x="944" y="-546.8" font-family="Times,serif" font-size="14.00">aptos_coin</text>
</g>
<g id="clust2" class="cluster">
<title>cluster_stake</title>
<polygon fill="none" stroke="black" points="1071,-404 1071,-479 1303,-479 1303,-404 1071,-404"/>
<text text-anchor="middle" x="1187" y="-463.8" font-family="Times,serif" font-size="14.00">stake</text>
</g>
<g id="clust3" class="cluster">
<title>cluster_transaction_fee</title>
<polygon fill="none" stroke="black" points="1311,-404 1311,-479 1541,-479 1541,-404 1311,-404"/>
<text text-anchor="middle" x="1426" y="-463.8" font-family="Times,serif" font-size="14.00">transaction_fee</text>
</g>
<g id="clust4" class="cluster">
<title>cluster_string</title>
<polygon fill="none" stroke="black" points="8,-163 8,-321 186,-321 186,-163 8,-163"/>
<text text-anchor="middle" x="97" y="-305.8" font-family="Times,serif" font-size="14.00">string</text>
</g>
<g id="clust5" class="cluster">
<title>cluster_system_addresses</title>
<polygon fill="none" stroke="black" points="1197,-246 1197,-396 1441,-396 1441,-246 1197,-246"/>
<text text-anchor="middle" x="1319" y="-380.8" font-family="Times,serif" font-size="14.00">system_addresses</text>
</g>
<g id="clust6" class="cluster">
<title>cluster_coin</title>
<polygon fill="none" stroke="black" points="557,-246 557,-479 1031,-479 1031,-246 557,-246"/>
<text text-anchor="middle" x="794" y="-463.8" font-family="Times,serif" font-size="14.00">coin</text>
</g>
<g id="clust7" class="cluster">
<title>cluster_signer</title>
<polygon fill="none" stroke="black" points="1039,-163 1039,-321 1189,-321 1189,-163 1039,-163"/>
<text text-anchor="middle" x="1114" y="-305.8" font-family="Times,serif" font-size="14.00">signer</text>
</g>
<g id="clust8" class="cluster">
<title>cluster_error</title>
<polygon fill="none" stroke="black" points="673,-8 673,-155 1260,-155 1260,-8 673,-8"/>
<text text-anchor="middle" x="966.5" y="-139.8" font-family="Times,serif" font-size="14.00">error</text>
</g>
<g id="clust9" class="cluster">
<title>cluster_option</title>
<polygon fill="none" stroke="black" points="561,-163 561,-238 711,-238 711,-163 561,-163"/>
<text text-anchor="middle" x="636" y="-222.8" font-family="Times,serif" font-size="14.00">option</text>
</g>
<g id="clust11" class="cluster">
<title>cluster_vector</title>
<polygon fill="none" stroke="black" points="563,-80 563,-155 665,-155 665,-80 563,-80"/>
<text text-anchor="middle" x="614" y="-139.8" font-family="Times,serif" font-size="14.00">vector</text>
</g>
<g id="clust13" class="cluster">
<title>cluster_type_info</title>
<polygon fill="none" stroke="black" points="751,-163 751,-238 999,-238 999,-163 751,-163"/>
<text text-anchor="middle" x="875" y="-222.8" font-family="Times,serif" font-size="14.00">type_info</text>
</g>
<g id="clust10" class="cluster">
<title>cluster_optional_aggregator</title>
<polygon fill="none" stroke="black" points="194,-163 194,-321 319,-321 319,-163 194,-163"/>
<text text-anchor="middle" x="256.5" y="-305.8" font-family="Times,serif" font-size="14.00">optional_aggregator</text>
</g>
<g id="clust12" class="cluster">
<title>cluster_aggregator_factory</title>
<polygon fill="none" stroke="black" points="327,-80 327,-238 553,-238 553,-80 327,-80"/>
<text text-anchor="middle" x="440" y="-222.8" font-family="Times,serif" font-size="14.00">aggregator_factory</text>
</g>
<!-- initialize_aptos_coin -->
<g id="node1" class="node">
<title>initialize_aptos_coin</title>
<ellipse fill="none" stroke="black" cx="1187" cy="-588" rx="83.69" ry="18"/>
<text text-anchor="middle" x="1187" y="-584.3" font-family="Times,serif" font-size="14.00">initialize_aptos_coin</text>
</g>
<!-- aptos_coin::initialize -->
<g id="node2" class="node">
<title>aptos_coin::initialize</title>
<ellipse fill="none" stroke="black" cx="944" cy="-513" rx="41.69" ry="18"/>
<text text-anchor="middle" x="944" y="-509.3" font-family="Times,serif" font-size="14.00">initialize</text>
</g>
<!-- initialize_aptos_coin&#45;&gt;aptos_coin::initialize -->
<g id="edge1" class="edge">
<title>initialize_aptos_coin&#45;&gt;aptos_coin::initialize</title>
<path fill="none" stroke="black" d="M1139.57,-572.75C1095.83,-559.61 1031.37,-540.25 988.56,-527.39"/>
<polygon fill="black" stroke="black" points="989.67,-524.07 979.09,-524.54 987.66,-530.77 989.67,-524.07"/>
</g>
<!-- stake::store_aptos_coin_mint_cap -->
<g id="node3" class="node">
<title>stake::store_aptos_coin_mint_cap</title>
<ellipse fill="none" stroke="black" cx="1187" cy="-430" rx="107.78" ry="18"/>
<text text-anchor="middle" x="1187" y="-426.3" font-family="Times,serif" font-size="14.00">store_aptos_coin_mint_cap</text>
</g>
<!-- initialize_aptos_coin&#45;&gt;stake::store_aptos_coin_mint_cap -->
<g id="edge2" class="edge">
<title>initialize_aptos_coin&#45;&gt;stake::store_aptos_coin_mint_cap</title>
<path fill="none" stroke="black" d="M1187,-569.71C1187,-543.12 1187,-491.9 1187,-459.69"/>
<polygon fill="black" stroke="black" points="1190.5,-459.88 1187,-449.88 1183.5,-459.88 1190.5,-459.88"/>
</g>
<!-- transaction_fee::store_aptos_coin_burn_cap -->
<g id="node4" class="node">
<title>transaction_fee::store_aptos_coin_burn_cap</title>
<ellipse fill="none" stroke="black" cx="1426" cy="-430" rx="107.48" ry="18"/>
<text text-anchor="middle" x="1426" y="-426.3" font-family="Times,serif" font-size="14.00">store_aptos_coin_burn_cap</text>
</g>
<!-- initialize_aptos_coin&#45;&gt;transaction_fee::store_aptos_coin_burn_cap -->
<g id="edge3" class="edge">
<title>initialize_aptos_coin&#45;&gt;transaction_fee::store_aptos_coin_burn_cap</title>
<path fill="none" stroke="black" d="M1212.13,-570.6C1254.84,-542.72 1341.74,-486 1390.6,-454.11"/>
<polygon fill="black" stroke="black" points="1392.4,-457.11 1398.86,-448.71 1388.57,-451.25 1392.4,-457.11"/>
</g>
<!-- string::utf8 -->
<g id="node5" class="node">
<title>string::utf8</title>
<ellipse fill="none" stroke="black" cx="69" cy="-272" rx="27" ry="18"/>
<text text-anchor="middle" x="69" y="-268.3" font-family="Times,serif" font-size="14.00">utf8</text>
</g>
<!-- aptos_coin::initialize&#45;&gt;string::utf8 -->
<g id="edge4" class="edge">
<title>aptos_coin::initialize&#45;&gt;string::utf8</title>
<path fill="none" stroke="black" d="M902.11,-511.94C829.98,-511.07 678.05,-505.87 553,-479 346.58,-434.65 275.2,-445.93 105,-321 96.88,-315.04 89.76,-306.74 84.04,-298.71"/>
<polygon fill="black" stroke="black" points="87.05,-296.91 78.62,-290.49 81.2,-300.77 87.05,-296.91"/>
</g>
<!-- system_addresses::assert_aptos_framework -->
<g id="node6" class="node">
<title>system_addresses::assert_aptos_framework</title>
<ellipse fill="none" stroke="black" cx="1302" cy="-347" rx="96.68" ry="18"/>
<text text-anchor="middle" x="1302" y="-343.3" font-family="Times,serif" font-size="14.00">assert_aptos_framework</text>
</g>
<!-- aptos_coin::initialize&#45;&gt;system_addresses::assert_aptos_framework -->
<g id="edge5" class="edge">
<title>aptos_coin::initialize&#45;&gt;system_addresses::assert_aptos_framework</title>
<path fill="none" stroke="black" d="M982.26,-505.45C1000.14,-500.7 1020.59,-492.63 1035,-479 1061.33,-454.09 1039.3,-427.37 1067,-404 1089.47,-385.05 1157.77,-370.06 1214.99,-360.38"/>
<polygon fill="black" stroke="black" points="1215.48,-363.85 1224.78,-358.76 1214.34,-356.94 1215.48,-363.85"/>
</g>
<!-- coin::destroy_freeze_cap -->
<g id="node7" class="node">
<title>coin::destroy_freeze_cap</title>
<ellipse fill="none" stroke="black" cx="944" cy="-430" rx="79.09" ry="18"/>
<text text-anchor="middle" x="944" y="-426.3" font-family="Times,serif" font-size="14.00">destroy_freeze_cap</text>
</g>
<!-- aptos_coin::initialize&#45;&gt;coin::destroy_freeze_cap -->
<g id="edge6" class="edge">
<title>aptos_coin::initialize&#45;&gt;coin::destroy_freeze_cap</title>
<path fill="none" stroke="black" d="M944,-494.82C944,-484.69 944,-471.6 944,-459.92"/>
<polygon fill="black" stroke="black" points="947.5,-459.95 944,-449.95 940.5,-459.95 947.5,-459.95"/>
</g>
<!-- coin::initialize_with_parallelizable_supply -->
<g id="node8" class="node">
<title>coin::initialize_with_parallelizable_supply</title>
<ellipse fill="none" stroke="black" cx="706" cy="-430" rx="141.07" ry="18"/>
<text text-anchor="middle" x="706" y="-426.3" font-family="Times,serif" font-size="14.00">initialize_with_parallelizable_supply</text>
</g>
<!-- aptos_coin::initialize&#45;&gt;coin::initialize_with_parallelizable_supply -->
<g id="edge7" class="edge">
<title>aptos_coin::initialize&#45;&gt;coin::initialize_with_parallelizable_supply</title>
<path fill="none" stroke="black" d="M911.9,-501.08C874.31,-488.28 811.29,-466.83 764.85,-451.03"/>
<polygon fill="black" stroke="black" points="766.05,-447.74 755.45,-447.83 763.79,-454.37 766.05,-447.74"/>
</g>
<!-- stake::store_aptos_coin_mint_cap&#45;&gt;system_addresses::assert_aptos_framework -->
<g id="edge8" class="edge">
<title>stake::store_aptos_coin_mint_cap&#45;&gt;system_addresses::assert_aptos_framework</title>
<path fill="none" stroke="black" d="M1211.11,-412.02C1227.93,-400.17 1250.6,-384.21 1269.08,-371.18"/>
<polygon fill="black" stroke="black" points="1270.92,-374.17 1277.08,-365.55 1266.89,-368.45 1270.92,-374.17"/>
</g>
<!-- transaction_fee::store_aptos_coin_burn_cap&#45;&gt;system_addresses::assert_aptos_framework -->
<g id="edge9" class="edge">
<title>transaction_fee::store_aptos_coin_burn_cap&#45;&gt;system_addresses::assert_aptos_framework</title>
<path fill="none" stroke="black" d="M1400.31,-412.22C1382.02,-400.27 1357.22,-384.07 1337.11,-370.93"/>
<polygon fill="black" stroke="black" points="1339.21,-368.13 1328.93,-365.59 1335.39,-373.99 1339.21,-368.13"/>
</g>
<!-- string::internal_check_utf8 -->
<g id="node9" class="node">
<title>string::internal_check_utf8</title>
<ellipse fill="none" stroke="black" cx="97" cy="-189" rx="81.49" ry="18"/>
<text text-anchor="middle" x="97" y="-185.3" font-family="Times,serif" font-size="14.00">internal_check_utf8</text>
</g>
<!-- string::utf8&#45;&gt;string::internal_check_utf8 -->
<g id="edge10" class="edge">
<title>string::utf8&#45;&gt;string::internal_check_utf8</title>
<path fill="none" stroke="black" d="M74.8,-254.22C78.39,-243.82 83.1,-230.21 87.25,-218.19"/>
<polygon fill="black" stroke="black" points="90.56,-219.35 90.52,-208.75 83.94,-217.06 90.56,-219.35"/>
</g>
<!-- signer::address_of -->
<g id="node10" class="node">
<title>signer::address_of</title>
<ellipse fill="none" stroke="black" cx="1114" cy="-272" rx="48.99" ry="18"/>
<text text-anchor="middle" x="1114" y="-268.3" font-family="Times,serif" font-size="14.00">address_of</text>
</g>
<!-- system_addresses::assert_aptos_framework&#45;&gt;signer::address_of -->
<g id="edge11" class="edge">
<title>system_addresses::assert_aptos_framework&#45;&gt;signer::address_of</title>
<path fill="none" stroke="black" d="M1233.8,-333.9C1220.04,-330.48 1205.86,-326.22 1193,-321 1176.21,-314.18 1158.86,-304.04 1144.71,-294.83"/>
<polygon fill="black" stroke="black" points="1146.99,-292.14 1136.73,-289.5 1143.1,-297.96 1146.99,-292.14"/>
</g>
<!-- error::permission_denied -->
<g id="node11" class="node">
<title>error::permission_denied</title>
<ellipse fill="none" stroke="black" cx="1175" cy="-106" rx="77.19" ry="18"/>
<text text-anchor="middle" x="1175" y="-102.3" font-family="Times,serif" font-size="14.00">permission_denied</text>
</g>
<!-- system_addresses::assert_aptos_framework&#45;&gt;error::permission_denied -->
<g id="edge12" class="edge">
<title>system_addresses::assert_aptos_framework&#45;&gt;error::permission_denied</title>
<path fill="none" stroke="black" d="M1390.29,-339.33C1413.7,-335.63 1434.55,-329.9 1442,-321 1463.4,-295.44 1459.29,-274.5 1442,-246 1399.01,-175.15 1306.83,-138.74 1242.9,-121.29"/>
<polygon fill="black" stroke="black" points="1244.12,-117.99 1233.56,-118.83 1242.34,-124.76 1244.12,-117.99"/>
</g>
<!-- system_addresses::is_aptos_framework_address -->
<g id="node12" class="node">
<title>system_addresses::is_aptos_framework_address</title>
<ellipse fill="none" stroke="black" cx="1319" cy="-272" rx="113.98" ry="18"/>
<text text-anchor="middle" x="1319" y="-268.3" font-family="Times,serif" font-size="14.00">is_aptos_framework_address</text>
</g>
<!-- system_addresses::assert_aptos_framework&#45;&gt;system_addresses::is_aptos_framework_address -->
<g id="edge13" class="edge">
<title>system_addresses::assert_aptos_framework&#45;&gt;system_addresses::is_aptos_framework_address</title>
<path fill="none" stroke="black" d="M1306.03,-328.7C1307.92,-320.58 1310.23,-310.68 1312.36,-301.5"/>
<polygon fill="black" stroke="black" points="1315.74,-302.44 1314.6,-291.9 1308.92,-300.85 1315.74,-302.44"/>
</g>
<!-- coin::initialize_with_parallelizable_supply&#45;&gt;system_addresses::assert_aptos_framework -->
<g id="edge14" class="edge">
<title>coin::initialize_with_parallelizable_supply&#45;&gt;system_addresses::assert_aptos_framework</title>
<path fill="none" stroke="black" d="M782.45,-414.43C805.96,-410.44 831.98,-406.53 856,-404 935.2,-395.66 955.86,-404.84 1035,-396 1101.53,-388.57 1176.49,-374.59 1230.01,-363.63"/>
<polygon fill="black" stroke="black" points="1230.53,-367.1 1239.62,-361.64 1229.11,-360.24 1230.53,-367.1"/>
</g>
<!-- coin::initialize_internal -->
<g id="node13" class="node">
<title>coin::initialize_internal</title>
<ellipse fill="none" stroke="black" cx="706" cy="-347" rx="72.59" ry="18"/>
<text text-anchor="middle" x="706" y="-343.3" font-family="Times,serif" font-size="14.00">initialize_internal</text>
</g>
<!-- coin::initialize_with_parallelizable_supply&#45;&gt;coin::initialize_internal -->
<g id="edge15" class="edge">
<title>coin::initialize_with_parallelizable_supply&#45;&gt;coin::initialize_internal</title>
<path fill="none" stroke="black" d="M706,-411.82C706,-401.69 706,-388.6 706,-376.92"/>
<polygon fill="black" stroke="black" points="709.5,-376.95 706,-366.95 702.5,-376.95 709.5,-376.95"/>
</g>
<!-- signer::borrow_address -->
<g id="node14" class="node">
<title>signer::borrow_address</title>
<ellipse fill="none" stroke="black" cx="1114" cy="-189" rx="66.89" ry="18"/>
<text text-anchor="middle" x="1114" y="-185.3" font-family="Times,serif" font-size="14.00">borrow_address</text>
</g>
<!-- signer::address_of&#45;&gt;signer::borrow_address -->
<g id="edge16" class="edge">
<title>signer::address_of&#45;&gt;signer::borrow_address</title>
<path fill="none" stroke="black" d="M1114,-253.82C1114,-243.69 1114,-230.6 1114,-218.92"/>
<polygon fill="black" stroke="black" points="1117.5,-218.95 1114,-208.95 1110.5,-218.95 1117.5,-218.95"/>
</g>
<!-- error::canonical -->
<g id="node15" class="node">
<title>error::canonical</title>
<ellipse fill="none" stroke="black" cx="942" cy="-34" rx="44.39" ry="18"/>
<text text-anchor="middle" x="942" y="-30.3" font-family="Times,serif" font-size="14.00">canonical</text>
</g>
<!-- error::permission_denied&#45;&gt;error::canonical -->
<g id="edge17" class="edge">
<title>error::permission_denied&#45;&gt;error::canonical</title>
<path fill="none" stroke="black" d="M1128.97,-91.17C1088.11,-78.9 1028.74,-61.06 987.92,-48.8"/>
<polygon fill="black" stroke="black" points="988.97,-45.46 978.38,-45.93 986.95,-52.16 988.97,-45.46"/>
</g>
<!-- coin::initialize_internal&#45;&gt;signer::address_of -->
<g id="edge21" class="edge">
<title>coin::initialize_internal&#45;&gt;signer::address_of</title>
<path fill="none" stroke="black" d="M778.2,-344.43C860.3,-341.96 988.92,-335.81 1035,-321 1052.75,-315.3 1070.66,-304.88 1084.93,-295.21"/>
<polygon fill="black" stroke="black" points="1086.78,-298.19 1092.95,-289.57 1082.75,-292.46 1086.78,-298.19"/>
</g>
<!-- option::none -->
<g id="node16" class="node">
<title>option::none</title>
<ellipse fill="none" stroke="black" cx="597" cy="-189" rx="27.9" ry="18"/>
<text text-anchor="middle" x="597" y="-185.3" font-family="Times,serif" font-size="14.00">none</text>
</g>
<!-- coin::initialize_internal&#45;&gt;option::none -->
<g id="edge18" class="edge">
<title>coin::initialize_internal&#45;&gt;option::none</title>
<path fill="none" stroke="black" d="M688.27,-329.25C685.74,-326.57 683.23,-323.77 681,-321 653.63,-287 627.35,-243.74 611.69,-216.45"/>
<polygon fill="black" stroke="black" points="614.76,-214.77 606.78,-207.8 608.67,-218.23 614.76,-214.77"/>
</g>
<!-- option::some -->
<g id="node17" class="node">
<title>option::some</title>
<ellipse fill="none" stroke="black" cx="673" cy="-189" rx="29.8" ry="18"/>
<text text-anchor="middle" x="673" y="-185.3" font-family="Times,serif" font-size="14.00">some</text>
</g>
<!-- coin::initialize_internal&#45;&gt;option::some -->
<g id="edge19" class="edge">
<title>coin::initialize_internal&#45;&gt;option::some</title>
<path fill="none" stroke="black" d="M702.34,-328.71C696.66,-301.86 685.67,-249.9 678.87,-217.76"/>
<polygon fill="black" stroke="black" points="682.38,-217.43 676.89,-208.37 675.53,-218.88 682.38,-217.43"/>
</g>
<!-- string::length -->
<g id="node18" class="node">
<title>string::length</title>
<ellipse fill="none" stroke="black" cx="146" cy="-272" rx="32.49" ry="18"/>
<text text-anchor="middle" x="146" y="-268.3" font-family="Times,serif" font-size="14.00">length</text>
</g>
<!-- coin::initialize_internal&#45;&gt;string::length -->
<g id="edge20" class="edge">
<title>coin::initialize_internal&#45;&gt;string::length</title>
<path fill="none" stroke="black" d="M634.8,-342.9C494.42,-336.73 194.97,-323.33 190,-321 179.37,-316.01 170.12,-307.16 162.88,-298.41"/>
<polygon fill="black" stroke="black" points="165.85,-296.54 157.01,-290.7 160.28,-300.78 165.85,-296.54"/>
</g>
<!-- error::already_exists -->
<g id="node19" class="node">
<title>error::already_exists</title>
<ellipse fill="none" stroke="black" cx="1019" cy="-106" rx="61.19" ry="18"/>
<text text-anchor="middle" x="1019" y="-102.3" font-family="Times,serif" font-size="14.00">already_exists</text>
</g>
<!-- coin::initialize_internal&#45;&gt;error::already_exists -->
<g id="edge22" class="edge">
<title>coin::initialize_internal&#45;&gt;error::already_exists</title>
<path fill="none" stroke="black" d="M777.74,-343.77C849.87,-337.12 956.81,-314.1 1003,-238 1021.95,-206.78 1023.51,-163.64 1021.98,-135.54"/>
<polygon fill="black" stroke="black" points="1025.48,-135.37 1021.26,-125.65 1018.49,-135.88 1025.48,-135.37"/>
</g>
<!-- error::invalid_argument -->
<g id="node20" class="node">
<title>error::invalid_argument</title>
<ellipse fill="none" stroke="black" cx="866" cy="-106" rx="73.39" ry="18"/>
<text text-anchor="middle" x="866" y="-102.3" font-family="Times,serif" font-size="14.00">invalid_argument</text>
</g>
<!-- coin::initialize_internal&#45;&gt;error::invalid_argument -->
<g id="edge23" class="edge">
<title>coin::initialize_internal&#45;&gt;error::invalid_argument</title>
<path fill="none" stroke="black" d="M707.53,-328.71C711.51,-287.71 723.55,-186.28 747,-163 758.94,-151.15 768.32,-161.1 784,-155 800.99,-148.39 818.59,-138.54 833.11,-129.48"/>
<polygon fill="black" stroke="black" points="834.81,-132.55 841.34,-124.2 831.04,-126.65 834.81,-132.55"/>
</g>
<!-- optional_aggregator::new -->
<g id="node21" class="node">
<title>optional_aggregator::new</title>
<ellipse fill="none" stroke="black" cx="284" cy="-272" rx="27" ry="18"/>
<text text-anchor="middle" x="284" y="-268.3" font-family="Times,serif" font-size="14.00">new</text>
</g>
<!-- coin::initialize_internal&#45;&gt;optional_aggregator::new -->
<g id="edge24" class="edge">
<title>coin::initialize_internal&#45;&gt;optional_aggregator::new</title>
<path fill="none" stroke="black" d="M646.39,-336.47C618.07,-331.89 583.77,-326.26 553,-321 470.14,-306.84 373.11,-289.28 321.22,-279.82"/>
<polygon fill="black" stroke="black" points="321.9,-276.39 311.43,-278.03 320.64,-283.27 321.9,-276.39"/>
</g>
<!-- coin::coin_address -->
<g id="node22" class="node">
<title>coin::coin_address</title>
<ellipse fill="none" stroke="black" cx="816" cy="-272" rx="56.59" ry="18"/>
<text text-anchor="middle" x="816" y="-268.3" font-family="Times,serif" font-size="14.00">coin_address</text>
</g>
<!-- coin::initialize_internal&#45;&gt;coin::coin_address -->
<g id="edge25" class="edge">
<title>coin::initialize_internal&#45;&gt;coin::coin_address</title>
<path fill="none" stroke="black" d="M731.65,-329.68C736.11,-326.81 740.7,-323.83 745,-321 757.75,-312.61 771.68,-303.23 783.8,-295.01"/>
<polygon fill="black" stroke="black" points="785.52,-298.08 791.82,-289.56 781.58,-292.29 785.52,-298.08"/>
</g>
<!-- vector::singleton -->
<g id="node23" class="node">
<title>vector::singleton</title>
<ellipse fill="none" stroke="black" cx="614" cy="-106" rx="42.79" ry="18"/>
<text text-anchor="middle" x="614" y="-102.3" font-family="Times,serif" font-size="14.00">singleton</text>
</g>
<!-- option::some&#45;&gt;vector::singleton -->
<g id="edge26" class="edge">
<title>option::some&#45;&gt;vector::singleton</title>
<path fill="none" stroke="black" d="M661.34,-172C653.21,-160.83 642.17,-145.68 632.8,-132.81"/>
<polygon fill="black" stroke="black" points="635.65,-130.77 626.93,-124.75 629.99,-134.89 635.65,-130.77"/>
</g>
<!-- error::already_exists&#45;&gt;error::canonical -->
<g id="edge27" class="edge">
<title>error::already_exists&#45;&gt;error::canonical</title>
<path fill="none" stroke="black" d="M1000.75,-88.41C990.93,-79.48 978.64,-68.31 967.85,-58.5"/>
<polygon fill="black" stroke="black" points="970.46,-56.14 960.71,-52.01 965.75,-61.32 970.46,-56.14"/>
</g>
<!-- error::invalid_argument&#45;&gt;error::canonical -->
<g id="edge28" class="edge">
<title>error::invalid_argument&#45;&gt;error::canonical</title>
<path fill="none" stroke="black" d="M884.01,-88.41C893.71,-79.48 905.84,-68.31 916.49,-58.5"/>
<polygon fill="black" stroke="black" points="918.54,-61.36 923.53,-52.01 913.8,-56.21 918.54,-61.36"/>
</g>
<!-- optional_aggregator::new&#45;&gt;option::none -->
<g id="edge29" class="edge">
<title>optional_aggregator::new&#45;&gt;option::none</title>
<path fill="none" stroke="black" d="M311,-270.24C371.31,-268.16 514.96,-260.87 557,-238 566.69,-232.73 575,-224.07 581.49,-215.54"/>
<polygon fill="black" stroke="black" points="584.31,-217.61 587.16,-207.41 578.57,-213.61 584.31,-217.61"/>
</g>
<!-- optional_aggregator::new&#45;&gt;option::some -->
<g id="edge30" class="edge">
<title>optional_aggregator::new&#45;&gt;option::some</title>
<path fill="none" stroke="black" d="M310.81,-268.51C392.54,-260.9 633.11,-238.48 634,-238 643.63,-232.85 651.76,-224.21 658.07,-215.67"/>
<polygon fill="black" stroke="black" points="660.88,-217.77 663.55,-207.52 655.07,-213.87 660.88,-217.77"/>
</g>
<!-- aggregator_factory::create_aggregator_internal -->
<g id="node24" class="node">
<title>aggregator_factory::create_aggregator_internal</title>
<ellipse fill="none" stroke="black" cx="440" cy="-189" rx="104.78" ry="18"/>
<text text-anchor="middle" x="440" y="-185.3" font-family="Times,serif" font-size="14.00">create_aggregator_internal</text>
</g>
<!-- optional_aggregator::new&#45;&gt;aggregator_factory::create_aggregator_internal -->
<g id="edge31" class="edge">
<title>optional_aggregator::new&#45;&gt;aggregator_factory::create_aggregator_internal</title>
<path fill="none" stroke="black" d="M304.72,-260.24C328.47,-247.91 368.02,-227.37 398.24,-211.68"/>
<polygon fill="black" stroke="black" points="399.49,-214.98 406.75,-207.26 396.26,-208.77 399.49,-214.98"/>
</g>
<!-- optional_aggregator::new_integer -->
<g id="node25" class="node">
<title>optional_aggregator::new_integer</title>
<ellipse fill="none" stroke="black" cx="257" cy="-189" rx="53.89" ry="18"/>
<text text-anchor="middle" x="257" y="-185.3" font-family="Times,serif" font-size="14.00">new_integer</text>
</g>
<!-- optional_aggregator::new&#45;&gt;optional_aggregator::new_integer -->
<g id="edge32" class="edge">
<title>optional_aggregator::new&#45;&gt;optional_aggregator::new_integer</title>
<path fill="none" stroke="black" d="M278.41,-254.22C274.94,-243.82 270.4,-230.21 266.4,-218.19"/>
<polygon fill="black" stroke="black" points="269.73,-217.14 263.25,-208.76 263.09,-219.35 269.73,-217.14"/>
</g>
<!-- type_info::account_address -->
<g id="node26" class="node">
<title>type_info::account_address</title>
<ellipse fill="none" stroke="black" cx="922" cy="-189" rx="68.79" ry="18"/>
<text text-anchor="middle" x="922" y="-185.3" font-family="Times,serif" font-size="14.00">account_address</text>
</g>
<!-- coin::coin_address&#45;&gt;type_info::account_address -->
<g id="edge33" class="edge">
<title>coin::coin_address&#45;&gt;type_info::account_address</title>
<path fill="none" stroke="black" d="M836.94,-255C852.56,-243.06 874.13,-226.58 891.64,-213.2"/>
<polygon fill="black" stroke="black" points="893.35,-216.3 899.17,-207.44 889.1,-210.74 893.35,-216.3"/>
</g>
<!-- type_info::type_of -->
<g id="node27" class="node">
<title>type_info::type_of</title>
<ellipse fill="none" stroke="black" cx="797" cy="-189" rx="37.89" ry="18"/>
<text text-anchor="middle" x="797" y="-185.3" font-family="Times,serif" font-size="14.00">type_of</text>
</g>
<!-- coin::coin_address&#45;&gt;type_info::type_of -->
<g id="edge34" class="edge">
<title>coin::coin_address&#45;&gt;type_info::type_of</title>
<path fill="none" stroke="black" d="M811.97,-253.82C809.55,-243.51 806.42,-230.14 803.64,-218.31"/>
<polygon fill="black" stroke="black" points="807.06,-217.56 801.37,-208.63 800.25,-219.16 807.06,-217.56"/>
</g>
<!-- error::not_found -->
<g id="node28" class="node">
<title>error::not_found</title>
<ellipse fill="none" stroke="black" cx="728" cy="-106" rx="46.59" ry="18"/>
<text text-anchor="middle" x="728" y="-102.3" font-family="Times,serif" font-size="14.00">not_found</text>
</g>
<!-- aggregator_factory::create_aggregator_internal&#45;&gt;error::not_found -->
<g id="edge35" class="edge">
<title>aggregator_factory::create_aggregator_internal&#45;&gt;error::not_found</title>
<path fill="none" stroke="black" d="M498.93,-173.74C517.43,-169.71 537.98,-165.7 557,-163 581.7,-159.5 645.8,-164.19 669,-155 682.29,-149.73 694.9,-140.34 705.02,-131.24"/>
<polygon fill="black" stroke="black" points="707.29,-133.91 712.13,-124.48 702.47,-128.84 707.29,-133.91"/>
</g>
<!-- aggregator_factory::new_aggregator -->
<g id="node29" class="node">
<title>aggregator_factory::new_aggregator</title>
<ellipse fill="none" stroke="black" cx="440" cy="-106" rx="67.69" ry="18"/>
<text text-anchor="middle" x="440" y="-102.3" font-family="Times,serif" font-size="14.00">new_aggregator</text>
</g>
<!-- aggregator_factory::create_aggregator_internal&#45;&gt;aggregator_factory::new_aggregator -->
<g id="edge36" class="edge">
<title>aggregator_factory::create_aggregator_internal&#45;&gt;aggregator_factory::new_aggregator</title>
<path fill="none" stroke="black" d="M440,-170.82C440,-160.69 440,-147.6 440,-135.92"/>
<polygon fill="black" stroke="black" points="443.5,-135.95 440,-125.95 436.5,-135.95 443.5,-135.95"/>
</g>
<!-- error::not_found&#45;&gt;error::canonical -->
<g id="edge37" class="edge">
<title>error::not_found&#45;&gt;error::canonical</title>
<path fill="none" stroke="black" d="M756.45,-91.36C765.19,-87.43 774.89,-83.31 784,-80 820.05,-66.9 861.83,-55.14 893.36,-46.93"/>
<polygon fill="black" stroke="black" points="894.21,-50.33 903.03,-44.45 892.47,-43.55 894.21,-50.33"/>
</g>
</g>
</svg>
