<?xml version="1.0" encoding="UTF-8" standalone="no"?>
<!DOCTYPE svg PUBLIC "-//W3C//DTD SVG 1.1//EN"
 "http://www.w3.org/Graphics/SVG/1.1/DTD/svg11.dtd">
<!-- Generated by graphviz version 7.0.4 (20221203.1631)
 -->
<!-- Title: G Pages: 1 -->
<svg width="3888pt" height="634pt"
 viewBox="0.00 0.00 3888.00 634.00" xmlns="http://www.w3.org/2000/svg" xmlns:xlink="http://www.w3.org/1999/xlink">
<g id="graph0" class="graph" transform="scale(1 1) rotate(0) translate(4 630)">
<title>G</title>
<polygon fill="white" stroke="none" points="-4,4 -4,-630 3884,-630 3884,4 -4,4"/>
<g id="clust1" class="cluster">
<title>cluster_account</title>
<polygon fill="none" stroke="black" points="587,-64 587,-211 1415,-211 1415,-64 587,-64"/>
<text text-anchor="middle" x="1001" y="-195.8" font-family="Times,serif" font-size="14.00">account</text>
</g>
<g id="clust2" class="cluster">
<title>cluster_aptos_account</title>
<polygon fill="none" stroke="black" points="3424,-302 3424,-618 3872,-618 3872,-302 3424,-302"/>
<text text-anchor="middle" x="3648" y="-602.8" font-family="Times,serif" font-size="14.00">aptos_account</text>
</g>
<g id="clust3" class="cluster">
<title>cluster_genesis</title>
<polygon fill="none" stroke="black" points="1591,-302 1591,-618 2373,-618 2373,-302 1591,-302"/>
<text text-anchor="middle" x="1982" y="-602.8" font-family="Times,serif" font-size="14.00">genesis</text>
</g>
<g id="clust4" class="cluster">
<title>cluster_staking_contract</title>
<polygon fill="none" stroke="black" points="482,-219 482,-460 900,-460 900,-219 482,-219"/>
<text text-anchor="middle" x="691" y="-444.8" font-family="Times,serif" font-size="14.00">staking_contract</text>
</g>
<g id="clust5" class="cluster">
<title>cluster_vesting</title>
<polygon fill="none" stroke="black" points="938,-302 938,-460 1206,-460 1206,-302 938,-302"/>
<text text-anchor="middle" x="1072" y="-444.8" font-family="Times,serif" font-size="14.00">vesting</text>
</g>
<g id="clust6" class="cluster">
<title>cluster_resource_account</title>
<polygon fill="none" stroke="black" points="2543,-302 2543,-377 3416,-377 3416,-302 2543,-302"/>
<text text-anchor="middle" x="2979.5" y="-361.8" font-family="Times,serif" font-size="14.00">resource_account</text>
</g>
<g id="clust7" class="cluster">
<title>cluster_coin</title>
<polygon fill="none" stroke="black" points="2383,-219 2383,-294 2473,-294 2473,-219 2383,-219"/>
<text text-anchor="middle" x="2428" y="-278.8" font-family="Times,serif" font-size="14.00">coin</text>
</g>
<g id="clust8" class="cluster">
<title>cluster_voting</title>
<polygon fill="none" stroke="black" points="136,-219 136,-294 226,-294 226,-219 136,-219"/>
<text text-anchor="middle" x="181" y="-278.8" font-family="Times,serif" font-size="14.00">voting</text>
</g>
<g id="clust9" class="cluster">
<title>cluster_stake</title>
<polygon fill="none" stroke="black" points="1214,-219 1214,-377 1583,-377 1583,-219 1214,-219"/>
<text text-anchor="middle" x="1398.5" y="-361.8" font-family="Times,serif" font-size="14.00">stake</text>
</g>
<g id="clust10" class="cluster">
<title>cluster_reconfiguration</title>
<polygon fill="none" stroke="black" points="266,-385 266,-460 366,-460 366,-385 266,-385"/>
<text text-anchor="middle" x="316" y="-444.8" font-family="Times,serif" font-size="14.00">reconfiguration</text>
</g>
<g id="clust11" class="cluster">
<title>cluster_aptos_governance</title>
<polygon fill="none" stroke="black" points="8,-302 8,-460 226,-460 226,-302 8,-302"/>
<text text-anchor="middle" x="117" y="-444.8" font-family="Times,serif" font-size="14.00">aptos_governance</text>
</g>
<g id="clust12" class="cluster">
<title>cluster_block</title>
<polygon fill="none" stroke="black" points="374,-385 374,-460 474,-460 474,-385 374,-385"/>
<text text-anchor="middle" x="424" y="-444.8" font-family="Times,serif" font-size="14.00">block</text>
</g>
<g id="clust13" class="cluster">
<title>cluster_aptos_coin</title>
<polygon fill="none" stroke="black" points="2381,-468 2381,-543 2617,-543 2617,-468 2381,-468"/>
<text text-anchor="middle" x="2499" y="-527.8" font-family="Times,serif" font-size="14.00">aptos_coin</text>
</g>
<g id="clust14" class="cluster">
<title>cluster_managed_coin</title>
<polygon fill="none" stroke="black" points="2409,-302 2409,-377 2505,-377 2505,-302 2409,-302"/>
<text text-anchor="middle" x="2457" y="-361.8" font-family="Times,serif" font-size="14.00">managed_coin</text>
</g>
<!-- create -->
<g id="node1" class="node">
<title>create</title>
<ellipse fill="none" stroke="black" cx="1067" cy="-18" rx="31.7" ry="18"/>
<text text-anchor="middle" x="1067" y="-14.3" font-family="Times,serif" font-size="14.00">create</text>
</g>
<!-- account::create_account_unchecked -->
<g id="node2" class="node">
<title>account::create_account_unchecked</title>
<ellipse fill="none" stroke="black" cx="1159" cy="-90" rx="105.08" ry="18"/>
<text text-anchor="middle" x="1159" y="-86.3" font-family="Times,serif" font-size="14.00">create_account_unchecked</text>
</g>
<!-- account::create_account_unchecked&#45;&gt;create -->
<g id="edge1" class="edge">
<title>account::create_account_unchecked&#45;&gt;create</title>
<path fill="none" stroke="black" d="M1136.73,-72.05C1123.94,-62.32 1107.78,-50.03 1094.24,-39.72"/>
<polygon fill="black" stroke="black" points="1096.64,-37.15 1086.56,-33.88 1092.4,-42.72 1096.64,-37.15"/>
</g>
<!-- account::create_guid -->
<g id="node3" class="node">
<title>account::create_guid</title>
<ellipse fill="none" stroke="black" cx="976" cy="-90" rx="51.99" ry="18"/>
<text text-anchor="middle" x="976" y="-86.3" font-family="Times,serif" font-size="14.00">create_guid</text>
</g>
<!-- account::create_guid&#45;&gt;create -->
<g id="edge2" class="edge">
<title>account::create_guid&#45;&gt;create</title>
<path fill="none" stroke="black" d="M996.65,-73.12C1009.35,-63.35 1025.77,-50.72 1039.55,-40.11"/>
<polygon fill="black" stroke="black" points="1041.6,-42.95 1047.39,-34.08 1037.33,-37.4 1041.6,-42.95"/>
</g>
<!-- account::create_account -->
<g id="node4" class="node">
<title>account::create_account</title>
<ellipse fill="none" stroke="black" cx="1343" cy="-162" rx="63.89" ry="18"/>
<text text-anchor="middle" x="1343" y="-158.3" font-family="Times,serif" font-size="14.00">create_account</text>
</g>
<!-- account::create_account&#45;&gt;account::create_account_unchecked -->
<g id="edge3" class="edge">
<title>account::create_account&#45;&gt;account::create_account_unchecked</title>
<path fill="none" stroke="black" d="M1306.21,-147C1279,-136.65 1241.57,-122.41 1211.27,-110.88"/>
<polygon fill="black" stroke="black" points="1212.88,-107.75 1202.29,-107.47 1210.39,-114.3 1212.88,-107.75"/>
</g>
<!-- account::create_framework_reserved_account -->
<g id="node5" class="node">
<title>account::create_framework_reserved_account</title>
<ellipse fill="none" stroke="black" cx="736" cy="-162" rx="141.07" ry="18"/>
<text text-anchor="middle" x="736" y="-158.3" font-family="Times,serif" font-size="14.00">create_framework_reserved_account</text>
</g>
<!-- account::create_framework_reserved_account&#45;&gt;account::create_account_unchecked -->
<g id="edge4" class="edge">
<title>account::create_framework_reserved_account&#45;&gt;account::create_account_unchecked</title>
<path fill="none" stroke="black" d="M819.82,-147.13C893.48,-134.94 1000.14,-117.29 1074.11,-105.05"/>
<polygon fill="black" stroke="black" points="1074.45,-108.54 1083.74,-103.45 1073.31,-101.63 1074.45,-108.54"/>
</g>
<!-- account::create_resource_account -->
<g id="node6" class="node">
<title>account::create_resource_account</title>
<ellipse fill="none" stroke="black" cx="1164" cy="-162" rx="97.48" ry="18"/>
<text text-anchor="middle" x="1164" y="-158.3" font-family="Times,serif" font-size="14.00">create_resource_account</text>
</g>
<!-- account::create_resource_account&#45;&gt;account::create_account_unchecked -->
<g id="edge5" class="edge">
<title>account::create_resource_account&#45;&gt;account::create_account_unchecked</title>
<path fill="none" stroke="black" d="M1162.76,-143.7C1162.24,-136.41 1161.62,-127.73 1161.04,-119.54"/>
<polygon fill="black" stroke="black" points="1164.53,-119.34 1160.33,-109.61 1157.55,-119.84 1164.53,-119.34"/>
</g>
<!-- account::new_event_handle -->
<g id="node7" class="node">
<title>account::new_event_handle</title>
<ellipse fill="none" stroke="black" cx="972" cy="-162" rx="76.89" ry="18"/>
<text text-anchor="middle" x="972" y="-158.3" font-family="Times,serif" font-size="14.00">new_event_handle</text>
</g>
<!-- account::new_event_handle&#45;&gt;account::create_guid -->
<g id="edge6" class="edge">
<title>account::new_event_handle&#45;&gt;account::create_guid</title>
<path fill="none" stroke="black" d="M972.99,-143.7C973.41,-136.41 973.9,-127.73 974.37,-119.54"/>
<polygon fill="black" stroke="black" points="977.86,-119.8 974.94,-109.62 970.87,-119.4 977.86,-119.8"/>
</g>
<!-- aptos_account::create_account -->
<g id="node8" class="node">
<title>aptos_account::create_account</title>
<ellipse fill="none" stroke="black" cx="3496" cy="-328" rx="63.89" ry="18"/>
<text text-anchor="middle" x="3496" y="-324.3" font-family="Times,serif" font-size="14.00">create_account</text>
</g>
<!-- aptos_account::create_account&#45;&gt;account::create_account -->
<g id="edge7" class="edge">
<title>aptos_account::create_account&#45;&gt;account::create_account</title>
<path fill="none" stroke="black" d="M3457.63,-313.28C3445.67,-309.31 3432.38,-305.18 3420,-302 3226.42,-252.22 3176.67,-240.93 2978,-219 2669.62,-184.96 1696.82,-168.24 1418.23,-164.06"/>
<polygon fill="black" stroke="black" points="1418.61,-160.57 1408.56,-163.92 1418.51,-167.57 1418.61,-160.57"/>
</g>
<!-- coin::register -->
<g id="node17" class="node">
<title>coin::register</title>
<ellipse fill="none" stroke="black" cx="2428" cy="-245" rx="37.09" ry="18"/>
<text text-anchor="middle" x="2428" y="-241.3" font-family="Times,serif" font-size="14.00">register</text>
</g>
<!-- aptos_account::create_account&#45;&gt;coin::register -->
<g id="edge33" class="edge">
<title>aptos_account::create_account&#45;&gt;coin::register</title>
<path fill="none" stroke="black" d="M3459.81,-312.82C3447.38,-308.57 3433.26,-304.4 3420,-302 3376.45,-294.12 3265.2,-296.23 3221,-294 2938.43,-279.77 2599.53,-257.52 2476.02,-249.25"/>
<polygon fill="black" stroke="black" points="2476.47,-245.77 2466.25,-248.59 2476,-252.75 2476.47,-245.77"/>
</g>
<!-- genesis::create_account -->
<g id="node9" class="node">
<title>genesis::create_account</title>
<ellipse fill="none" stroke="black" cx="1949" cy="-328" rx="63.89" ry="18"/>
<text text-anchor="middle" x="1949" y="-324.3" font-family="Times,serif" font-size="14.00">create_account</text>
</g>
<!-- genesis::create_account&#45;&gt;account::create_account -->
<g id="edge8" class="edge">
<title>genesis::create_account&#45;&gt;account::create_account</title>
<path fill="none" stroke="black" d="M1907.98,-313.82C1841.13,-292.56 1704.32,-249.93 1587,-219 1525.2,-202.71 1453.89,-186.66 1404.39,-175.94"/>
<polygon fill="black" stroke="black" points="1405.23,-172.54 1394.71,-173.86 1403.75,-179.39 1405.23,-172.54"/>
</g>
<!-- genesis::create_account&#45;&gt;coin::register -->
<g id="edge36" class="edge">
<title>genesis::create_account&#45;&gt;coin::register</title>
<path fill="none" stroke="black" d="M2002.55,-317.94C2097.29,-301.92 2292.84,-268.86 2381.94,-253.79"/>
<polygon fill="black" stroke="black" points="2382.52,-257.24 2391.79,-252.12 2381.35,-250.34 2382.52,-257.24"/>
</g>
<!-- genesis::initialize_core_resources_and_aptos_coin -->
<g id="node10" class="node">
<title>genesis::initialize_core_resources_and_aptos_coin</title>
<ellipse fill="none" stroke="black" cx="2207" cy="-569" rx="157.87" ry="18"/>
<text text-anchor="middle" x="2207" y="-565.3" font-family="Times,serif" font-size="14.00">initialize_core_resources_and_aptos_coin</text>
</g>
<!-- genesis::initialize_core_resources_and_aptos_coin&#45;&gt;account::create_account -->
<g id="edge9" class="edge">
<title>genesis::initialize_core_resources_and_aptos_coin&#45;&gt;account::create_account</title>
<path fill="none" stroke="black" d="M2294.1,-553.64C2303.61,-550.64 2311.22,-547.11 2315,-543 2354.83,-499.7 2334,-470.83 2334,-412 2334,-412 2334,-412 2334,-327 2334,-233.96 1645.39,-182.08 1416.2,-167.38"/>
<polygon fill="black" stroke="black" points="1416.7,-163.91 1406.5,-166.77 1416.26,-170.9 1416.7,-163.91"/>
</g>
<!-- aptos_coin::configure_accounts_for_test -->
<g id="node32" class="node">
<title>aptos_coin::configure_accounts_for_test</title>
<ellipse fill="none" stroke="black" cx="2499" cy="-494" rx="110.48" ry="18"/>
<text text-anchor="middle" x="2499" y="-490.3" font-family="Times,serif" font-size="14.00">configure_accounts_for_test</text>
</g>
<!-- genesis::initialize_core_resources_and_aptos_coin&#45;&gt;aptos_coin::configure_accounts_for_test -->
<g id="edge53" class="edge">
<title>genesis::initialize_core_resources_and_aptos_coin&#45;&gt;aptos_coin::configure_accounts_for_test</title>
<path fill="none" stroke="black" d="M2316.58,-555.66C2336.84,-552.31 2357.69,-548.15 2377,-543 2402.82,-536.12 2430.62,-525.45 2453.15,-515.92"/>
<polygon fill="black" stroke="black" points="2454.24,-519.27 2462.04,-512.1 2451.47,-512.84 2454.24,-519.27"/>
</g>
<!-- genesis::initialize -->
<g id="node11" class="node">
<title>genesis::initialize</title>
<ellipse fill="none" stroke="black" cx="1641" cy="-494" rx="41.69" ry="18"/>
<text text-anchor="middle" x="1641" y="-490.3" font-family="Times,serif" font-size="14.00">initialize</text>
</g>
<!-- genesis::initialize&#45;&gt;account::create_framework_reserved_account -->
<g id="edge10" class="edge">
<title>genesis::initialize&#45;&gt;account::create_framework_reserved_account</title>
<path fill="none" stroke="black" d="M1599.42,-491.79C1467.06,-487.95 1043.6,-475.88 693,-468 681.03,-467.73 270.39,-468.55 262,-460 188.91,-385.54 311.84,-249.27 356,-219 394.54,-192.58 504.78,-178.3 596.66,-170.79"/>
<polygon fill="black" stroke="black" points="596.85,-174.29 606.54,-170.01 596.3,-167.31 596.85,-174.29"/>
</g>
<!-- reconfiguration::initialize -->
<g id="node21" class="node">
<title>reconfiguration::initialize</title>
<ellipse fill="none" stroke="black" cx="316" cy="-411" rx="41.69" ry="18"/>
<text text-anchor="middle" x="316" y="-407.3" font-family="Times,serif" font-size="14.00">initialize</text>
</g>
<!-- genesis::initialize&#45;&gt;reconfiguration::initialize -->
<g id="edge42" class="edge">
<title>genesis::initialize&#45;&gt;reconfiguration::initialize</title>
<path fill="none" stroke="black" d="M1599.41,-491.44C1482.59,-487.12 1141.49,-474.85 858,-468 830.89,-467.35 395.26,-469.84 370,-460 357.29,-455.05 345.64,-445.65 336.44,-436.47"/>
<polygon fill="black" stroke="black" points="339.14,-434.24 329.75,-429.34 334.04,-439.02 339.14,-434.24"/>
</g>
<!-- block::initialize -->
<g id="node23" class="node">
<title>block::initialize</title>
<ellipse fill="none" stroke="black" cx="424" cy="-411" rx="41.69" ry="18"/>
<text text-anchor="middle" x="424" y="-407.3" font-family="Times,serif" font-size="14.00">initialize</text>
</g>
<!-- genesis::initialize&#45;&gt;block::initialize -->
<g id="edge44" class="edge">
<title>genesis::initialize&#45;&gt;block::initialize</title>
<path fill="none" stroke="black" d="M1599.41,-491.51C1482.59,-487.37 1141.47,-475.51 858,-468 836.89,-467.44 497.66,-467.71 478,-460 465.3,-455.02 453.65,-445.61 444.45,-436.44"/>
<polygon fill="black" stroke="black" points="447.16,-434.21 437.76,-429.31 442.05,-439 447.16,-434.21"/>
</g>
<!-- staking_contract::create_stake_pool -->
<g id="node12" class="node">
<title>staking_contract::create_stake_pool</title>
<ellipse fill="none" stroke="black" cx="818" cy="-245" rx="74.19" ry="18"/>
<text text-anchor="middle" x="818" y="-241.3" font-family="Times,serif" font-size="14.00">create_stake_pool</text>
</g>
<!-- staking_contract::create_stake_pool&#45;&gt;account::create_resource_account -->
<g id="edge11" class="edge">
<title>staking_contract::create_stake_pool&#45;&gt;account::create_resource_account</title>
<path fill="none" stroke="black" d="M889.21,-239.62C937.56,-235.33 1002.54,-227 1058,-211 1080.44,-204.53 1104.22,-194.11 1123.57,-184.64"/>
<polygon fill="black" stroke="black" points="1125.09,-187.79 1132.47,-180.18 1121.96,-181.53 1125.09,-187.79"/>
</g>
<!-- stake::initialize_stake_owner -->
<g id="node34" class="node">
<title>stake::initialize_stake_owner</title>
<ellipse fill="none" stroke="black" cx="1312" cy="-328" rx="90.18" ry="18"/>
<text text-anchor="middle" x="1312" y="-324.3" font-family="Times,serif" font-size="14.00">initialize_stake_owner</text>
</g>
<!-- staking_contract::create_stake_pool&#45;&gt;stake::initialize_stake_owner -->
<g id="edge54" class="edge">
<title>staking_contract::create_stake_pool&#45;&gt;stake::initialize_stake_owner</title>
<path fill="none" stroke="black" d="M884.22,-253.44C962.43,-262.7 1096.27,-279.99 1210,-302 1222.46,-304.41 1235.69,-307.36 1248.34,-310.37"/>
<polygon fill="black" stroke="black" points="1247.26,-313.71 1257.81,-312.67 1248.92,-306.91 1247.26,-313.71"/>
</g>
<!-- vesting::create_vesting_contract_account -->
<g id="node13" class="node">
<title>vesting::create_vesting_contract_account</title>
<ellipse fill="none" stroke="black" cx="1072" cy="-328" rx="126.18" ry="18"/>
<text text-anchor="middle" x="1072" y="-324.3" font-family="Times,serif" font-size="14.00">create_vesting_contract_account</text>
</g>
<!-- vesting::create_vesting_contract_account&#45;&gt;account::create_resource_account -->
<g id="edge12" class="edge">
<title>vesting::create_vesting_contract_account&#45;&gt;account::create_resource_account</title>
<path fill="none" stroke="black" d="M1081.67,-309.76C1097.73,-281.14 1129.99,-223.63 1149.01,-189.72"/>
<polygon fill="black" stroke="black" points="1151.88,-191.76 1153.72,-181.33 1145.77,-188.34 1151.88,-191.76"/>
</g>
<!-- vesting::create_vesting_contract_account&#45;&gt;coin::register -->
<g id="edge35" class="edge">
<title>vesting::create_vesting_contract_account&#45;&gt;coin::register</title>
<path fill="none" stroke="black" d="M1140.14,-312.45C1162.31,-308.31 1187.11,-304.3 1210,-302 1293.38,-293.62 1503.27,-297.28 1587,-294 1888.84,-282.19 2251.09,-258.19 2379.77,-249.36"/>
<polygon fill="black" stroke="black" points="2379.89,-252.86 2389.62,-248.68 2379.41,-245.88 2379.89,-252.86"/>
</g>
<!-- resource_account::create_resource_account -->
<g id="node14" class="node">
<title>resource_account::create_resource_account</title>
<ellipse fill="none" stroke="black" cx="3311" cy="-328" rx="97.48" ry="18"/>
<text text-anchor="middle" x="3311" y="-324.3" font-family="Times,serif" font-size="14.00">create_resource_account</text>
</g>
<!-- resource_account::create_resource_account&#45;&gt;account::create_resource_account -->
<g id="edge13" class="edge">
<title>resource_account::create_resource_account&#45;&gt;account::create_resource_account</title>
<path fill="none" stroke="black" d="M3256.57,-312.76C3157.47,-287.67 2940.58,-236.57 2754,-219 2712.96,-215.14 1310.27,-219.81 1270,-211 1246.41,-205.84 1221.74,-195.04 1202.15,-184.98"/>
<polygon fill="black" stroke="black" points="1203.92,-181.96 1193.45,-180.38 1200.65,-188.15 1203.92,-181.96"/>
</g>
<!-- resource_account::create_resource_account_and_fund -->
<g id="node15" class="node">
<title>resource_account::create_resource_account_and_fund</title>
<ellipse fill="none" stroke="black" cx="2686" cy="-328" rx="135.38" ry="18"/>
<text text-anchor="middle" x="2686" y="-324.3" font-family="Times,serif" font-size="14.00">create_resource_account_and_fund</text>
</g>
<!-- resource_account::create_resource_account_and_fund&#45;&gt;account::create_resource_account -->
<g id="edge14" class="edge">
<title>resource_account::create_resource_account_and_fund&#45;&gt;account::create_resource_account</title>
<path fill="none" stroke="black" d="M2662.1,-309.82C2624.77,-284.14 2549.37,-236.85 2477,-219 2411.89,-202.94 1335.5,-225.37 1270,-211 1246.42,-205.83 1221.75,-195.02 1202.15,-184.97"/>
<polygon fill="black" stroke="black" points="1203.92,-181.95 1193.45,-180.37 1200.65,-188.14 1203.92,-181.95"/>
</g>
<!-- resource_account::create_resource_account_and_fund&#45;&gt;coin::register -->
<g id="edge38" class="edge">
<title>resource_account::create_resource_account_and_fund&#45;&gt;coin::register</title>
<path fill="none" stroke="black" d="M2631.94,-311.04C2614.1,-305.71 2594.18,-299.67 2576,-294 2539.65,-282.65 2498.44,-269.25 2468.76,-259.49"/>
<polygon fill="black" stroke="black" points="2470.01,-256.22 2459.42,-256.41 2467.83,-262.87 2470.01,-256.22"/>
</g>
<!-- resource_account::create_resource_account_and_publish_package -->
<g id="node16" class="node">
<title>resource_account::create_resource_account_and_publish_package</title>
<ellipse fill="none" stroke="black" cx="3017" cy="-328" rx="178.17" ry="18"/>
<text text-anchor="middle" x="3017" y="-324.3" font-family="Times,serif" font-size="14.00">create_resource_account_and_publish_package</text>
</g>
<!-- resource_account::create_resource_account_and_publish_package&#45;&gt;account::create_resource_account -->
<g id="edge15" class="edge">
<title>resource_account::create_resource_account_and_publish_package&#45;&gt;account::create_resource_account</title>
<path fill="none" stroke="black" d="M2965.2,-310.3C2882.8,-284.69 2716.31,-236.8 2571,-219 2499.26,-210.21 1340.6,-226.47 1270,-211 1246.41,-205.83 1221.75,-195.03 1202.15,-184.98"/>
<polygon fill="black" stroke="black" points="1203.92,-181.95 1193.45,-180.37 1200.65,-188.14 1203.92,-181.95"/>
</g>
<!-- coin::register&#45;&gt;account::new_event_handle -->
<g id="edge16" class="edge">
<title>coin::register&#45;&gt;account::new_event_handle</title>
<path fill="none" stroke="black" d="M2390.7,-242.7C2272.82,-238.62 1897.69,-225.97 1587,-219 1557.62,-218.34 1086.39,-218.62 1058,-211 1038.9,-205.88 1019.5,-195.58 1003.98,-185.84"/>
<polygon fill="black" stroke="black" points="1005.93,-182.93 995.64,-180.4 1002.1,-188.8 1005.93,-182.93"/>
</g>
<!-- aptos_account::set_allow_direct_coin_transfers -->
<g id="node18" class="node">
<title>aptos_account::set_allow_direct_coin_transfers</title>
<ellipse fill="none" stroke="black" cx="3741" cy="-569" rx="122.68" ry="18"/>
<text text-anchor="middle" x="3741" y="-565.3" font-family="Times,serif" font-size="14.00">set_allow_direct_coin_transfers</text>
</g>
<!-- aptos_account::set_allow_direct_coin_transfers&#45;&gt;account::new_event_handle -->
<g id="edge17" class="edge">
<title>aptos_account::set_allow_direct_coin_transfers&#45;&gt;account::new_event_handle</title>
<path fill="none" stroke="black" d="M3734.43,-550.58C3726.83,-530.56 3713.85,-496.78 3702,-468 3666.01,-380.58 3656.37,-338.1 3569,-302 3344.08,-209.07 2720.16,-228.91 2477,-219 2437.62,-217.39 1096.12,-221.03 1058,-211 1038.87,-205.97 1019.48,-195.68 1003.95,-185.92"/>
<polygon fill="black" stroke="black" points="1005.91,-183.02 995.62,-180.47 1002.08,-188.87 1005.91,-183.02"/>
</g>
<!-- voting::register -->
<g id="node19" class="node">
<title>voting::register</title>
<ellipse fill="none" stroke="black" cx="181" cy="-245" rx="37.09" ry="18"/>
<text text-anchor="middle" x="181" y="-241.3" font-family="Times,serif" font-size="14.00">register</text>
</g>
<!-- voting::register&#45;&gt;account::new_event_handle -->
<g id="edge18" class="edge">
<title>voting::register&#45;&gt;account::new_event_handle</title>
<path fill="none" stroke="black" d="M215.29,-237.42C248.55,-231.36 300.52,-222.76 346,-219 375.9,-216.52 857.02,-218.77 886,-211 905.1,-205.88 924.5,-195.59 940.02,-185.84"/>
<polygon fill="black" stroke="black" points="941.9,-188.8 948.36,-180.4 938.07,-182.94 941.9,-188.8"/>
</g>
<!-- stake::initialize_owner -->
<g id="node20" class="node">
<title>stake::initialize_owner</title>
<ellipse fill="none" stroke="black" cx="1312" cy="-245" rx="67.69" ry="18"/>
<text text-anchor="middle" x="1312" y="-241.3" font-family="Times,serif" font-size="14.00">initialize_owner</text>
</g>
<!-- stake::initialize_owner&#45;&gt;account::new_event_handle -->
<g id="edge19" class="edge">
<title>stake::initialize_owner&#45;&gt;account::new_event_handle</title>
<path fill="none" stroke="black" d="M1244.68,-242.18C1192.58,-239.13 1119.22,-231.23 1058,-211 1039.62,-204.93 1020.68,-194.84 1005.27,-185.47"/>
<polygon fill="black" stroke="black" points="1007.31,-182.62 996.97,-180.28 1003.59,-188.55 1007.31,-182.62"/>
</g>
<!-- reconfiguration::initialize&#45;&gt;account::new_event_handle -->
<g id="edge20" class="edge">
<title>reconfiguration::initialize&#45;&gt;account::new_event_handle</title>
<path fill="none" stroke="black" d="M320.14,-392.73C330.58,-353.48 362.07,-257.95 429,-219 450.95,-206.23 861.48,-217.61 886,-211 905.1,-205.85 924.49,-195.56 940.02,-185.82"/>
<polygon fill="black" stroke="black" points="941.89,-188.78 948.35,-180.38 938.06,-182.91 941.89,-188.78"/>
</g>
<!-- aptos_governance::initialize -->
<g id="node22" class="node">
<title>aptos_governance::initialize</title>
<ellipse fill="none" stroke="black" cx="117" cy="-328" rx="41.69" ry="18"/>
<text text-anchor="middle" x="117" y="-324.3" font-family="Times,serif" font-size="14.00">initialize</text>
</g>
<!-- aptos_governance::initialize&#45;&gt;account::new_event_handle -->
<g id="edge21" class="edge">
<title>aptos_governance::initialize&#45;&gt;account::new_event_handle</title>
<path fill="none" stroke="black" d="M113.35,-309.64C109.36,-285.27 106.56,-241.39 132,-219 147.72,-205.16 865.76,-216.38 886,-211 905.11,-205.92 924.51,-195.63 940.03,-185.88"/>
<polygon fill="black" stroke="black" points="941.91,-188.83 948.37,-180.43 938.08,-182.97 941.91,-188.83"/>
</g>
<!-- aptos_governance::initialize&#45;&gt;voting::register -->
<g id="edge39" class="edge">
<title>aptos_governance::initialize&#45;&gt;voting::register</title>
<path fill="none" stroke="black" d="M129.95,-310.61C138.89,-299.3 150.94,-284.05 161.09,-271.2"/>
<polygon fill="black" stroke="black" points="163.68,-273.57 167.13,-263.55 158.18,-269.23 163.68,-273.57"/>
</g>
<!-- block::initialize&#45;&gt;account::new_event_handle -->
<g id="edge22" class="edge">
<title>block::initialize&#45;&gt;account::new_event_handle</title>
<path fill="none" stroke="black" d="M422.79,-392.63C421.17,-354 423.45,-261.12 478,-219 495.95,-205.15 864.12,-216.92 886,-211 905.09,-205.83 924.49,-195.54 940.01,-185.8"/>
<polygon fill="black" stroke="black" points="941.88,-188.76 948.35,-180.37 938.06,-182.9 941.88,-188.76"/>
</g>
<!-- staking_contract::new_staking_contracts_holder -->
<g id="node24" class="node">
<title>staking_contract::new_staking_contracts_holder</title>
<ellipse fill="none" stroke="black" cx="608" cy="-245" rx="118.08" ry="18"/>
<text text-anchor="middle" x="608" y="-241.3" font-family="Times,serif" font-size="14.00">new_staking_contracts_holder</text>
</g>
<!-- staking_contract::new_staking_contracts_holder&#45;&gt;account::new_event_handle -->
<g id="edge23" class="edge">
<title>staking_contract::new_staking_contracts_holder&#45;&gt;account::new_event_handle</title>
<path fill="none" stroke="black" d="M672.32,-229.5C692.31,-225.5 714.48,-221.55 735,-219 768.35,-214.86 853.72,-220.32 886,-211 904.87,-205.55 924.11,-195.33 939.6,-185.72"/>
<polygon fill="black" stroke="black" points="941.41,-188.72 947.92,-180.36 937.62,-182.83 941.41,-188.72"/>
</g>
<!-- vesting::create_vesting_contract -->
<g id="node25" class="node">
<title>vesting::create_vesting_contract</title>
<ellipse fill="none" stroke="black" cx="1056" cy="-411" rx="94.48" ry="18"/>
<text text-anchor="middle" x="1056" y="-407.3" font-family="Times,serif" font-size="14.00">create_vesting_contract</text>
</g>
<!-- vesting::create_vesting_contract&#45;&gt;account::new_event_handle -->
<g id="edge24" class="edge">
<title>vesting::create_vesting_contract&#45;&gt;account::new_event_handle</title>
<path fill="none" stroke="black" d="M987.1,-398.3C964.65,-392.98 943.75,-385.87 937,-377 894.69,-321.36 932.17,-233.84 955.95,-189.97"/>
<polygon fill="black" stroke="black" points="958.94,-191.8 960.77,-181.37 952.83,-188.39 958.94,-191.8"/>
</g>
<!-- vesting::create_vesting_contract&#45;&gt;vesting::create_vesting_contract_account -->
<g id="edge31" class="edge">
<title>vesting::create_vesting_contract&#45;&gt;vesting::create_vesting_contract_account</title>
<path fill="none" stroke="black" d="M1059.39,-392.82C1061.42,-382.58 1064.03,-369.33 1066.36,-357.55"/>
<polygon fill="black" stroke="black" points="1069.76,-358.41 1068.26,-347.92 1062.89,-357.05 1069.76,-358.41"/>
</g>
<!-- staking_contract::create_staking_contract_with_coins -->
<g id="node31" class="node">
<title>staking_contract::create_staking_contract_with_coins</title>
<ellipse fill="none" stroke="black" cx="753" cy="-328" rx="137.28" ry="18"/>
<text text-anchor="middle" x="753" y="-324.3" font-family="Times,serif" font-size="14.00">create_staking_contract_with_coins</text>
</g>
<!-- vesting::create_vesting_contract&#45;&gt;staking_contract::create_staking_contract_with_coins -->
<g id="edge52" class="edge">
<title>vesting::create_vesting_contract&#45;&gt;staking_contract::create_staking_contract_with_coins</title>
<path fill="none" stroke="black" d="M991.71,-397.44C964.51,-391.76 932.57,-384.62 904,-377 873.03,-368.73 838.97,-358.05 811.04,-348.86"/>
<polygon fill="black" stroke="black" points="812.3,-345.59 801.71,-345.76 810.1,-352.23 812.3,-345.59"/>
</g>
<!-- aptos_account::transfer -->
<g id="node26" class="node">
<title>aptos_account::transfer</title>
<ellipse fill="none" stroke="black" cx="3619" cy="-411" rx="37.89" ry="18"/>
<text text-anchor="middle" x="3619" y="-407.3" font-family="Times,serif" font-size="14.00">transfer</text>
</g>
<!-- aptos_account::transfer&#45;&gt;aptos_account::create_account -->
<g id="edge25" class="edge">
<title>aptos_account::transfer&#45;&gt;aptos_account::create_account</title>
<path fill="none" stroke="black" d="M3597.58,-395.89C3578.83,-383.55 3551.3,-365.41 3529.62,-351.14"/>
<polygon fill="black" stroke="black" points="3531.67,-348.3 3521.39,-345.72 3527.82,-354.14 3531.67,-348.3"/>
</g>
<!-- aptos_account::deposit_coins -->
<g id="node27" class="node">
<title>aptos_account::deposit_coins</title>
<ellipse fill="none" stroke="black" cx="3492" cy="-411" rx="59.29" ry="18"/>
<text text-anchor="middle" x="3492" y="-407.3" font-family="Times,serif" font-size="14.00">deposit_coins</text>
</g>
<!-- aptos_account::deposit_coins&#45;&gt;aptos_account::create_account -->
<g id="edge26" class="edge">
<title>aptos_account::deposit_coins&#45;&gt;aptos_account::create_account</title>
<path fill="none" stroke="black" d="M3492.85,-392.82C3493.35,-382.69 3494,-369.6 3494.57,-357.92"/>
<polygon fill="black" stroke="black" points="3498.07,-358.1 3495.06,-347.94 3491.08,-357.76 3498.07,-358.1"/>
</g>
<!-- aptos_account::deposit_coins&#45;&gt;coin::register -->
<g id="edge34" class="edge">
<title>aptos_account::deposit_coins&#45;&gt;coin::register</title>
<path fill="none" stroke="black" d="M3432.5,-409.72C3229.64,-408.53 2575.6,-402.71 2539,-377 2509.62,-356.36 2531.38,-330.07 2509,-302 2496.67,-286.54 2478.95,-273.62 2463.22,-264.1"/>
<polygon fill="black" stroke="black" points="2464.97,-261.07 2454.56,-259.1 2461.47,-267.13 2464.97,-261.07"/>
</g>
<!-- genesis::create_accounts -->
<g id="node28" class="node">
<title>genesis::create_accounts</title>
<ellipse fill="none" stroke="black" cx="1855" cy="-411" rx="66.89" ry="18"/>
<text text-anchor="middle" x="1855" y="-407.3" font-family="Times,serif" font-size="14.00">create_accounts</text>
</g>
<!-- genesis::create_accounts&#45;&gt;genesis::create_account -->
<g id="edge27" class="edge">
<title>genesis::create_accounts&#45;&gt;genesis::create_account</title>
<path fill="none" stroke="black" d="M1874.02,-393.61C1887.57,-381.94 1905.98,-366.07 1921.17,-352.98"/>
<polygon fill="black" stroke="black" points="1923.25,-355.81 1928.54,-346.63 1918.68,-350.51 1923.25,-355.81"/>
</g>
<!-- genesis::create_initialize_validator -->
<g id="node29" class="node">
<title>genesis::create_initialize_validator</title>
<ellipse fill="none" stroke="black" cx="2043" cy="-411" rx="102.88" ry="18"/>
<text text-anchor="middle" x="2043" y="-407.3" font-family="Times,serif" font-size="14.00">create_initialize_validator</text>
</g>
<!-- genesis::create_initialize_validator&#45;&gt;genesis::create_account -->
<g id="edge28" class="edge">
<title>genesis::create_initialize_validator&#45;&gt;genesis::create_account</title>
<path fill="none" stroke="black" d="M2023.52,-393.22C2009.95,-381.52 1991.64,-365.74 1976.57,-352.76"/>
<polygon fill="black" stroke="black" points="1979.14,-350.35 1969.28,-346.47 1974.57,-355.65 1979.14,-350.35"/>
</g>
<!-- genesis::create_initialize_validator&#45;&gt;stake::initialize_stake_owner -->
<g id="edge55" class="edge">
<title>genesis::create_initialize_validator&#45;&gt;stake::initialize_stake_owner</title>
<path fill="none" stroke="black" d="M1988.13,-395.41C1970.07,-391.23 1949.8,-387.22 1931,-385 1873.72,-378.24 1468.14,-390.23 1412,-377 1389.8,-371.77 1366.75,-361.11 1348.37,-351.16"/>
<polygon fill="black" stroke="black" points="1350.17,-348.15 1339.73,-346.32 1346.75,-354.26 1350.17,-348.15"/>
</g>
<!-- staking_contract::create_staking_contract -->
<g id="node41" class="node">
<title>staking_contract::create_staking_contract</title>
<ellipse fill="none" stroke="black" cx="775" cy="-411" rx="94.48" ry="18"/>
<text text-anchor="middle" x="775" y="-407.3" font-family="Times,serif" font-size="14.00">create_staking_contract</text>
</g>
<!-- genesis::create_initialize_validator&#45;&gt;staking_contract::create_staking_contract -->
<g id="edge61" class="edge">
<title>genesis::create_initialize_validator&#45;&gt;staking_contract::create_staking_contract</title>
<path fill="none" stroke="black" d="M2012.84,-428.41C1989.04,-441.09 1954.55,-457.18 1922,-464 1895.38,-469.57 969.88,-468.14 943,-464 902.81,-457.81 859.04,-443.75 826.26,-431.67"/>
<polygon fill="black" stroke="black" points="827.6,-428.43 817,-428.19 825.14,-434.98 827.6,-428.43"/>
</g>
<!-- genesis::initialize_for_verification -->
<g id="node30" class="node">
<title>genesis::initialize_for_verification</title>
<ellipse fill="none" stroke="black" cx="1700" cy="-569" rx="100.98" ry="18"/>
<text text-anchor="middle" x="1700" y="-565.3" font-family="Times,serif" font-size="14.00">initialize_for_verification</text>
</g>
<!-- genesis::initialize_for_verification&#45;&gt;genesis::initialize -->
<g id="edge29" class="edge">
<title>genesis::initialize_for_verification&#45;&gt;genesis::initialize</title>
<path fill="none" stroke="black" d="M1686.02,-550.7C1678.61,-541.53 1669.37,-530.11 1661.2,-519.99"/>
<polygon fill="black" stroke="black" points="1664.03,-517.93 1655.02,-512.35 1658.59,-522.33 1664.03,-517.93"/>
</g>
<!-- genesis::initialize_for_verification&#45;&gt;genesis::create_accounts -->
<g id="edge49" class="edge">
<title>genesis::initialize_for_verification&#45;&gt;genesis::create_accounts</title>
<path fill="none" stroke="black" d="M1771.77,-556C1784.48,-554.13 1797.61,-552.37 1810,-551 1823.17,-549.54 1919.95,-552.68 1929,-543 1951.77,-518.65 1943.84,-497.85 1929,-468 1921.9,-453.72 1909.23,-442.11 1896.35,-433.24"/>
<polygon fill="black" stroke="black" points="1898.61,-430.53 1888.3,-428.09 1894.83,-436.43 1898.61,-430.53"/>
</g>
<!-- aptos_governance::initialize_for_verification -->
<g id="node36" class="node">
<title>aptos_governance::initialize_for_verification</title>
<ellipse fill="none" stroke="black" cx="117" cy="-411" rx="100.98" ry="18"/>
<text text-anchor="middle" x="117" y="-407.3" font-family="Times,serif" font-size="14.00">initialize_for_verification</text>
</g>
<!-- genesis::initialize_for_verification&#45;&gt;aptos_governance::initialize_for_verification -->
<g id="edge56" class="edge">
<title>genesis::initialize_for_verification&#45;&gt;aptos_governance::initialize_for_verification</title>
<path fill="none" stroke="black" d="M1601.14,-564.86C1315.58,-555.15 493.3,-522.4 232,-460 206.98,-454.02 180.39,-443.24 159.09,-433.41"/>
<polygon fill="black" stroke="black" points="160.68,-430.29 150.15,-429.18 157.69,-436.62 160.68,-430.29"/>
</g>
<!-- genesis::create_employee_validators -->
<g id="node37" class="node">
<title>genesis::create_employee_validators</title>
<ellipse fill="none" stroke="black" cx="1810" cy="-494" rx="109.68" ry="18"/>
<text text-anchor="middle" x="1810" y="-490.3" font-family="Times,serif" font-size="14.00">create_employee_validators</text>
</g>
<!-- genesis::initialize_for_verification&#45;&gt;genesis::create_employee_validators -->
<g id="edge57" class="edge">
<title>genesis::initialize_for_verification&#45;&gt;genesis::create_employee_validators</title>
<path fill="none" stroke="black" d="M1725.24,-551.25C1740.08,-541.4 1759.07,-528.8 1775.31,-518.02"/>
<polygon fill="black" stroke="black" points="1776.84,-521.21 1783.24,-512.76 1772.97,-515.37 1776.84,-521.21"/>
</g>
<!-- genesis::create_initialize_validators_with_commission -->
<g id="node40" class="node">
<title>genesis::create_initialize_validators_with_commission</title>
<ellipse fill="none" stroke="black" cx="2132" cy="-494" rx="173.57" ry="18"/>
<text text-anchor="middle" x="2132" y="-490.3" font-family="Times,serif" font-size="14.00">create_initialize_validators_with_commission</text>
</g>
<!-- genesis::initialize_for_verification&#45;&gt;genesis::create_initialize_validators_with_commission -->
<g id="edge59" class="edge">
<title>genesis::initialize_for_verification&#45;&gt;genesis::create_initialize_validators_with_commission</title>
<path fill="none" stroke="black" d="M1771.47,-555.96C1784.27,-554.09 1797.51,-552.33 1810,-551 1869.32,-544.66 1885.05,-552.2 1944,-543 1985.78,-536.48 2031.78,-524.82 2067.82,-514.62"/>
<polygon fill="black" stroke="black" points="2068.57,-518.04 2077.22,-511.92 2066.64,-511.32 2068.57,-518.04"/>
</g>
<!-- staking_contract::create_staking_contract_with_coins&#45;&gt;staking_contract::create_stake_pool -->
<g id="edge30" class="edge">
<title>staking_contract::create_staking_contract_with_coins&#45;&gt;staking_contract::create_stake_pool</title>
<path fill="none" stroke="black" d="M766.78,-309.82C775.57,-298.87 787.14,-284.46 797.05,-272.11"/>
<polygon fill="black" stroke="black" points="799.76,-274.32 803.29,-264.33 794.3,-269.94 799.76,-274.32"/>
</g>
<!-- staking_contract::create_staking_contract_with_coins&#45;&gt;staking_contract::new_staking_contracts_holder -->
<g id="edge45" class="edge">
<title>staking_contract::create_staking_contract_with_coins&#45;&gt;staking_contract::new_staking_contracts_holder</title>
<path fill="none" stroke="black" d="M722.6,-310.02C700.9,-297.9 671.5,-281.47 647.91,-268.29"/>
<polygon fill="black" stroke="black" points="649.62,-265.24 639.18,-263.42 646.2,-271.35 649.62,-265.24"/>
</g>
<!-- aptos_coin::configure_accounts_for_test&#45;&gt;coin::register -->
<g id="edge32" class="edge">
<title>aptos_coin::configure_accounts_for_test&#45;&gt;coin::register</title>
<path fill="none" stroke="black" d="M2478.47,-475.85C2455.48,-455.18 2419.54,-418.05 2405,-377 2393.87,-345.58 2398.55,-334.7 2405,-302 2406.94,-292.18 2410.62,-281.91 2414.48,-272.89"/>
<polygon fill="black" stroke="black" points="2417.57,-274.55 2418.54,-264 2411.2,-271.64 2417.57,-274.55"/>
</g>
<!-- managed_coin::register -->
<g id="node33" class="node">
<title>managed_coin::register</title>
<ellipse fill="none" stroke="black" cx="2456" cy="-328" rx="37.09" ry="18"/>
<text text-anchor="middle" x="2456" y="-324.3" font-family="Times,serif" font-size="14.00">register</text>
</g>
<!-- managed_coin::register&#45;&gt;coin::register -->
<g id="edge37" class="edge">
<title>managed_coin::register&#45;&gt;coin::register</title>
<path fill="none" stroke="black" d="M2450.06,-309.82C2446.46,-299.41 2441.78,-285.87 2437.66,-273.94"/>
<polygon fill="black" stroke="black" points="2441,-272.89 2434.42,-264.58 2434.38,-275.18 2441,-272.89"/>
</g>
<!-- stake::initialize_stake_owner&#45;&gt;stake::initialize_owner -->
<g id="edge40" class="edge">
<title>stake::initialize_stake_owner&#45;&gt;stake::initialize_owner</title>
<path fill="none" stroke="black" d="M1312,-309.82C1312,-299.69 1312,-286.6 1312,-274.92"/>
<polygon fill="black" stroke="black" points="1315.5,-274.95 1312,-264.95 1308.5,-274.95 1315.5,-274.95"/>
</g>
<!-- stake::initialize_validator -->
<g id="node35" class="node">
<title>stake::initialize_validator</title>
<ellipse fill="none" stroke="black" cx="1498" cy="-328" rx="77.19" ry="18"/>
<text text-anchor="middle" x="1498" y="-324.3" font-family="Times,serif" font-size="14.00">initialize_validator</text>
</g>
<!-- stake::initialize_validator&#45;&gt;stake::initialize_owner -->
<g id="edge41" class="edge">
<title>stake::initialize_validator&#45;&gt;stake::initialize_owner</title>
<path fill="none" stroke="black" d="M1462.58,-311.57C1432.56,-298.5 1389.34,-279.68 1356.9,-265.55"/>
<polygon fill="black" stroke="black" points="1358.3,-262.35 1347.74,-261.56 1355.51,-268.76 1358.3,-262.35"/>
</g>
<!-- aptos_governance::initialize_for_verification&#45;&gt;aptos_governance::initialize -->
<g id="edge43" class="edge">
<title>aptos_governance::initialize_for_verification&#45;&gt;aptos_governance::initialize</title>
<path fill="none" stroke="black" d="M117,-392.82C117,-382.69 117,-369.6 117,-357.92"/>
<polygon fill="black" stroke="black" points="120.5,-357.95 117,-347.95 113.5,-357.95 120.5,-357.95"/>
</g>
<!-- genesis::create_employee_validators&#45;&gt;vesting::create_vesting_contract -->
<g id="edge46" class="edge">
<title>genesis::create_employee_validators&#45;&gt;vesting::create_vesting_contract</title>
<path fill="none" stroke="black" d="M1749.64,-478.6C1731.23,-474.65 1710.86,-470.7 1692,-468 1645.67,-461.36 1633.64,-463.88 1587,-460 1434.14,-447.27 1256.68,-430.91 1150.52,-420.95"/>
<polygon fill="black" stroke="black" points="1150.99,-417.48 1140.71,-420.03 1150.34,-424.45 1150.99,-417.48"/>
</g>
<!-- aptos_account::batch_transfer -->
<g id="node38" class="node">
<title>aptos_account::batch_transfer</title>
<ellipse fill="none" stroke="black" cx="3632" cy="-494" rx="61.19" ry="18"/>
<text text-anchor="middle" x="3632" y="-490.3" font-family="Times,serif" font-size="14.00">batch_transfer</text>
</g>
<!-- aptos_account::batch_transfer&#45;&gt;aptos_account::transfer -->
<g id="edge47" class="edge">
<title>aptos_account::batch_transfer&#45;&gt;aptos_account::transfer</title>
<path fill="none" stroke="black" d="M3629.24,-475.82C3627.6,-465.58 3625.47,-452.33 3623.58,-440.55"/>
<polygon fill="black" stroke="black" points="3627.08,-440.25 3622.04,-430.93 3620.17,-441.36 3627.08,-440.25"/>
</g>
<!-- aptos_account::transfer_coins -->
<g id="node39" class="node">
<title>aptos_account::transfer_coins</title>
<ellipse fill="none" stroke="black" cx="3492" cy="-494" rx="60.39" ry="18"/>
<text text-anchor="middle" x="3492" y="-490.3" font-family="Times,serif" font-size="14.00">transfer_coins</text>
</g>
<!-- aptos_account::transfer_coins&#45;&gt;aptos_account::deposit_coins -->
<g id="edge48" class="edge">
<title>aptos_account::transfer_coins&#45;&gt;aptos_account::deposit_coins</title>
<path fill="none" stroke="black" d="M3492,-475.82C3492,-465.69 3492,-452.6 3492,-440.92"/>
<polygon fill="black" stroke="black" points="3495.5,-440.95 3492,-430.95 3488.5,-440.95 3495.5,-440.95"/>
</g>
<!-- genesis::create_initialize_validators_with_commission&#45;&gt;genesis::create_initialize_validator -->
<g id="edge50" class="edge">
<title>genesis::create_initialize_validators_with_commission&#45;&gt;genesis::create_initialize_validator</title>
<path fill="none" stroke="black" d="M2113.13,-475.82C2100.62,-464.44 2084.01,-449.33 2070.1,-436.66"/>
<polygon fill="black" stroke="black" points="2072.72,-434.31 2062.97,-430.17 2068.01,-439.49 2072.72,-434.31"/>
</g>
<!-- staking_contract::create_staking_contract&#45;&gt;staking_contract::create_staking_contract_with_coins -->
<g id="edge51" class="edge">
<title>staking_contract::create_staking_contract&#45;&gt;staking_contract::create_staking_contract_with_coins</title>
<path fill="none" stroke="black" d="M770.33,-392.82C767.52,-382.48 763.88,-369.05 760.65,-357.18"/>
<polygon fill="black" stroke="black" points="764.13,-356.63 758.13,-347.89 757.37,-358.46 764.13,-356.63"/>
</g>
<!-- aptos_account::batch_transfer_coins -->
<g id="node42" class="node">
<title>aptos_account::batch_transfer_coins</title>
<ellipse fill="none" stroke="black" cx="3516" cy="-569" rx="83.69" ry="18"/>
<text text-anchor="middle" x="3516" y="-565.3" font-family="Times,serif" font-size="14.00">batch_transfer_coins</text>
</g>
<!-- aptos_account::batch_transfer_coins&#45;&gt;aptos_account::transfer_coins -->
<g id="edge58" class="edge">
<title>aptos_account::batch_transfer_coins&#45;&gt;aptos_account::transfer_coins</title>
<path fill="none" stroke="black" d="M3510.31,-550.7C3507.59,-542.43 3504.27,-532.31 3501.2,-522.99"/>
<polygon fill="black" stroke="black" points="3504.57,-522.02 3498.12,-513.61 3497.92,-524.21 3504.57,-522.02"/>
</g>
<!-- genesis::create_initialize_validators -->
<g id="node43" class="node">
<title>genesis::create_initialize_validators</title>
<ellipse fill="none" stroke="black" cx="1925" cy="-569" rx="105.88" ry="18"/>
<text text-anchor="middle" x="1925" y="-565.3" font-family="Times,serif" font-size="14.00">create_initialize_validators</text>
</g>
<!-- genesis::create_initialize_validators&#45;&gt;genesis::create_initialize_validators_with_commission -->
<g id="edge60" class="edge">
<title>genesis::create_initialize_validators&#45;&gt;genesis::create_initialize_validators_with_commission</title>
<path fill="none" stroke="black" d="M1969.66,-552.25C2000.23,-541.47 2041.04,-527.08 2074.1,-515.42"/>
<polygon fill="black" stroke="black" points="2074.84,-518.87 2083.11,-512.24 2072.52,-512.27 2074.84,-518.87"/>
</g>
</g>
</svg>
