<?xml version="1.0" encoding="UTF-8" standalone="no"?>
<!DOCTYPE svg PUBLIC "-//W3C//DTD SVG 1.1//EN"
 "http://www.w3.org/Graphics/SVG/1.1/DTD/svg11.dtd">
<!-- Generated by graphviz version 7.0.4 (20221203.1631)
 -->
<!-- Title: G Pages: 1 -->
<svg width="1370pt" height="692pt"
 viewBox="0.00 0.00 1370.00 692.00" xmlns="http://www.w3.org/2000/svg" xmlns:xlink="http://www.w3.org/1999/xlink">
<g id="graph0" class="graph" transform="scale(1 1) rotate(0) translate(4 688)">
<title>G</title>
<polygon fill="white" stroke="none" points="-4,4 -4,-688 1366,-688 1366,4 -4,4"/>
<!-- guid -->
<g id="node1" class="node">
<title>guid</title>
<ellipse fill="none" stroke="black" cx="541" cy="-18" rx="27" ry="18"/>
<text text-anchor="middle" x="541" y="-14.3" font-family="Times,serif" font-size="14.00">guid</text>
</g>
<!-- event -->
<g id="node2" class="node">
<title>event</title>
<ellipse fill="none" stroke="black" cx="512" cy="-90" rx="29.8" ry="18"/>
<text text-anchor="middle" x="512" y="-86.3" font-family="Times,serif" font-size="14.00">event</text>
</g>
<!-- event&#45;&gt;guid -->
<g id="edge1" class="edge">
<title>event&#45;&gt;guid</title>
<path fill="none" stroke="black" d="M519.02,-72.05C522.23,-64.32 526.1,-54.96 529.7,-46.27"/>
<polygon fill="black" stroke="black" points="532.87,-47.77 533.47,-37.19 526.4,-45.09 532.87,-47.77"/>
</g>
<!-- account -->
<g id="node3" class="node">
<title>account</title>
<ellipse fill="none" stroke="black" cx="578" cy="-162" rx="38.19" ry="18"/>
<text text-anchor="middle" x="578" y="-158.3" font-family="Times,serif" font-size="14.00">account</text>
</g>
<!-- account&#45;&gt;guid -->
<g id="edge2" class="edge">
<title>account&#45;&gt;guid</title>
<path fill="none" stroke="black" d="M573.54,-143.87C567.29,-119.88 555.85,-75.99 548.34,-47.16"/>
<polygon fill="black" stroke="black" points="551.77,-46.45 545.86,-37.65 545,-48.21 551.77,-46.45"/>
</g>
<!-- account&#45;&gt;event -->
<g id="edge3" class="edge">
<title>account&#45;&gt;event</title>
<path fill="none" stroke="black" d="M563.02,-145.12C554.35,-135.91 543.27,-124.17 533.66,-113.97"/>
<polygon fill="black" stroke="black" points="536.46,-111.84 527.05,-106.97 531.37,-116.64 536.46,-111.84"/>
</g>
<!-- coin -->
<g id="node4" class="node">
<title>coin</title>
<ellipse fill="none" stroke="black" cx="578" cy="-234" rx="27" ry="18"/>
<text text-anchor="middle" x="578" y="-230.3" font-family="Times,serif" font-size="14.00">coin</text>
</g>
<!-- coin&#45;&gt;event -->
<g id="edge4" class="edge">
<title>coin&#45;&gt;event</title>
<path fill="none" stroke="black" d="M562.13,-219.25C551.71,-209.37 538.65,-195.15 531,-180 521.46,-161.12 516.7,-137.64 514.33,-119.54"/>
<polygon fill="black" stroke="black" points="517.83,-119.31 513.24,-109.77 510.87,-120.09 517.83,-119.31"/>
</g>
<!-- coin&#45;&gt;account -->
<g id="edge13" class="edge">
<title>coin&#45;&gt;account</title>
<path fill="none" stroke="black" d="M578,-215.7C578,-208.41 578,-199.73 578,-191.54"/>
<polygon fill="black" stroke="black" points="581.5,-191.62 578,-181.62 574.5,-191.62 581.5,-191.62"/>
</g>
<!-- aptos_account -->
<g id="node5" class="node">
<title>aptos_account</title>
<ellipse fill="none" stroke="black" cx="1159" cy="-378" rx="61.19" ry="18"/>
<text text-anchor="middle" x="1159" y="-374.3" font-family="Times,serif" font-size="14.00">aptos_account</text>
</g>
<!-- aptos_account&#45;&gt;event -->
<g id="edge5" class="edge">
<title>aptos_account&#45;&gt;event</title>
<path fill="none" stroke="black" d="M1160.89,-359.55C1162.3,-341.31 1162.94,-312.06 1156,-288 1145.73,-252.41 1144.07,-237.64 1114,-216 1022.5,-150.16 672.19,-107.87 552.42,-95.09"/>
<polygon fill="black" stroke="black" points="553.06,-91.64 542.75,-94.07 552.33,-98.6 553.06,-91.64"/>
</g>
<!-- aptos_account&#45;&gt;account -->
<g id="edge14" class="edge">
<title>aptos_account&#45;&gt;account</title>
<path fill="none" stroke="black" d="M1156.55,-359.62C1150.75,-325.67 1132.83,-250.83 1084,-216 1011.68,-164.42 740.66,-161.17 627.8,-162.15"/>
<polygon fill="black" stroke="black" points="627.91,-158.65 617.94,-162.25 627.98,-165.65 627.91,-158.65"/>
</g>
<!-- aptos_account&#45;&gt;coin -->
<g id="edge26" class="edge">
<title>aptos_account&#45;&gt;coin</title>
<path fill="none" stroke="black" d="M1143.67,-360.18C1123.52,-339.29 1085.96,-304.42 1046,-288 968.32,-256.07 713.94,-241.26 616.48,-236.65"/>
<polygon fill="black" stroke="black" points="616.79,-233.16 606.63,-236.2 616.46,-240.15 616.79,-233.16"/>
</g>
<!-- aptos_coin -->
<g id="node16" class="node">
<title>aptos_coin</title>
<ellipse fill="none" stroke="black" cx="617" cy="-306" rx="48.99" ry="18"/>
<text text-anchor="middle" x="617" y="-302.3" font-family="Times,serif" font-size="14.00">aptos_coin</text>
</g>
<!-- aptos_account&#45;&gt;aptos_coin -->
<g id="edge60" class="edge">
<title>aptos_account&#45;&gt;aptos_coin</title>
<path fill="none" stroke="black" d="M1103.2,-370.37C1076,-367.18 1042.8,-363.32 1013,-360 862.86,-343.26 823.19,-353.36 675,-324 671.4,-323.29 667.7,-322.45 663.99,-321.54"/>
<polygon fill="black" stroke="black" points="664.98,-318.18 654.41,-319.01 663.19,-324.95 664.98,-318.18"/>
</g>
<!-- voting -->
<g id="node6" class="node">
<title>voting</title>
<ellipse fill="none" stroke="black" cx="61" cy="-234" rx="33.29" ry="18"/>
<text text-anchor="middle" x="61" y="-230.3" font-family="Times,serif" font-size="14.00">voting</text>
</g>
<!-- voting&#45;&gt;event -->
<g id="edge6" class="edge">
<title>voting&#45;&gt;event</title>
<path fill="none" stroke="black" d="M64.99,-215.72C70.74,-195.04 83.47,-161.06 108,-144 166.01,-103.65 379.52,-94 470.5,-91.71"/>
<polygon fill="black" stroke="black" points="470.56,-95.21 480.47,-91.48 470.4,-88.21 470.56,-95.21"/>
</g>
<!-- voting&#45;&gt;account -->
<g id="edge15" class="edge">
<title>voting&#45;&gt;account</title>
<path fill="none" stroke="black" d="M93.11,-228.53C117.93,-225.08 153.14,-220.21 184,-216 308.8,-198.98 455.88,-179.29 530.06,-169.39"/>
<polygon fill="black" stroke="black" points="530.38,-172.88 539.83,-168.09 529.45,-165.94 530.38,-172.88"/>
</g>
<!-- stake -->
<g id="node7" class="node">
<title>stake</title>
<ellipse fill="none" stroke="black" cx="661" cy="-378" rx="28.7" ry="18"/>
<text text-anchor="middle" x="661" y="-374.3" font-family="Times,serif" font-size="14.00">stake</text>
</g>
<!-- stake&#45;&gt;event -->
<g id="edge7" class="edge">
<title>stake&#45;&gt;event</title>
<path fill="none" stroke="black" d="M634.21,-371.39C608.51,-364.59 570.52,-350.59 549,-324 500.77,-264.4 503.29,-167.37 508.13,-119.52"/>
<polygon fill="black" stroke="black" points="511.59,-120.04 509.24,-109.71 504.64,-119.25 511.59,-120.04"/>
</g>
<!-- stake&#45;&gt;account -->
<g id="edge16" class="edge">
<title>stake&#45;&gt;account</title>
<path fill="none" stroke="black" d="M689.84,-376.62C726.36,-374.4 788.02,-364.46 817,-324 826.32,-310.99 825.29,-301.69 817,-288 775.14,-218.86 681.07,-186.13 624.23,-172.14"/>
<polygon fill="black" stroke="black" points="625.05,-168.74 614.52,-169.86 623.45,-175.55 625.05,-168.74"/>
</g>
<!-- stake&#45;&gt;coin -->
<g id="edge27" class="edge">
<title>stake&#45;&gt;coin</title>
<path fill="none" stroke="black" d="M633.87,-371.24C609.5,-364.47 575.16,-350.61 559,-324 547.41,-304.92 554.4,-279.8 562.99,-261.11"/>
<polygon fill="black" stroke="black" points="566.06,-262.8 567.43,-252.3 559.8,-259.65 566.06,-262.8"/>
</g>
<!-- stake&#45;&gt;aptos_coin -->
<g id="edge61" class="edge">
<title>stake&#45;&gt;aptos_coin</title>
<path fill="none" stroke="black" d="M650.79,-360.76C645.65,-352.58 639.28,-342.45 633.47,-333.2"/>
<polygon fill="black" stroke="black" points="636.55,-331.52 628.26,-324.91 630.62,-335.24 636.55,-331.52"/>
</g>
<!-- reconfiguration -->
<g id="node8" class="node">
<title>reconfiguration</title>
<ellipse fill="none" stroke="black" cx="736" cy="-522" rx="64.99" ry="18"/>
<text text-anchor="middle" x="736" y="-518.3" font-family="Times,serif" font-size="14.00">reconfiguration</text>
</g>
<!-- reconfiguration&#45;&gt;event -->
<g id="edge8" class="edge">
<title>reconfiguration&#45;&gt;event</title>
<path fill="none" stroke="black" d="M671.63,-518.8C593.61,-514.63 468.94,-502.58 440,-468 351.91,-362.74 452.19,-182.8 494.74,-116.5"/>
<polygon fill="black" stroke="black" points="497.67,-118.42 500.21,-108.13 491.81,-114.59 497.67,-118.42"/>
</g>
<!-- reconfiguration&#45;&gt;account -->
<g id="edge17" class="edge">
<title>reconfiguration&#45;&gt;account</title>
<path fill="none" stroke="black" d="M712.86,-504.96C671.64,-474.91 586.3,-405.72 549,-324 529.03,-280.24 527.86,-261.98 542,-216 545.05,-206.07 550.68,-196.32 556.58,-187.95"/>
<polygon fill="black" stroke="black" points="559.33,-190.12 562.6,-180.04 553.76,-185.89 559.33,-190.12"/>
</g>
<!-- reconfiguration&#45;&gt;stake -->
<g id="edge39" class="edge">
<title>reconfiguration&#45;&gt;stake</title>
<path fill="none" stroke="black" d="M728.97,-503.93C721.3,-485.75 708.32,-456.32 695,-432 689.94,-422.77 683.88,-412.98 678.28,-404.36"/>
<polygon fill="black" stroke="black" points="681.28,-402.56 672.85,-396.15 675.45,-406.42 681.28,-402.56"/>
</g>
<!-- transaction_fee -->
<g id="node17" class="node">
<title>transaction_fee</title>
<ellipse fill="none" stroke="black" cx="513" cy="-450" rx="64.19" ry="18"/>
<text text-anchor="middle" x="513" y="-446.3" font-family="Times,serif" font-size="14.00">transaction_fee</text>
</g>
<!-- reconfiguration&#45;&gt;transaction_fee -->
<g id="edge69" class="edge">
<title>reconfiguration&#45;&gt;transaction_fee</title>
<path fill="none" stroke="black" d="M694.06,-507.83C657.69,-496.42 604.89,-479.84 565.68,-467.54"/>
<polygon fill="black" stroke="black" points="566.79,-464.22 556.2,-464.56 564.69,-470.9 566.79,-464.22"/>
</g>
<!-- aptos_governance -->
<g id="node9" class="node">
<title>aptos_governance</title>
<ellipse fill="none" stroke="black" cx="161" cy="-594" rx="74.19" ry="18"/>
<text text-anchor="middle" x="161" y="-590.3" font-family="Times,serif" font-size="14.00">aptos_governance</text>
</g>
<!-- aptos_governance&#45;&gt;event -->
<g id="edge9" class="edge">
<title>aptos_governance&#45;&gt;event</title>
<path fill="none" stroke="black" d="M121.61,-578.41C73.95,-557.9 0,-515.66 0,-451 0,-451 0,-451 0,-233 0,-180.98 30.17,-168.59 76,-144 143.74,-107.65 375.23,-95.68 470.52,-92.24"/>
<polygon fill="black" stroke="black" points="470.58,-95.74 480.46,-91.89 470.34,-88.74 470.58,-95.74"/>
</g>
<!-- aptos_governance&#45;&gt;account -->
<g id="edge18" class="edge">
<title>aptos_governance&#45;&gt;account</title>
<path fill="none" stroke="black" d="M164.48,-575.78C168.7,-557.22 176.92,-527.22 190,-504 274.77,-353.49 306.52,-310.69 451,-216 477.2,-198.83 509.87,-185.35 535.51,-176.28"/>
<polygon fill="black" stroke="black" points="536.64,-179.59 544.96,-173.03 534.37,-172.97 536.64,-179.59"/>
</g>
<!-- aptos_governance&#45;&gt;coin -->
<g id="edge29" class="edge">
<title>aptos_governance&#45;&gt;coin</title>
<path fill="none" stroke="black" d="M170.49,-575.86C181.33,-557.11 200.27,-526.7 221,-504 323.46,-391.8 360.87,-374.2 486,-288 505.54,-274.54 528.69,-261.21 546.88,-251.29"/>
<polygon fill="black" stroke="black" points="548.48,-254.41 555.62,-246.58 545.16,-248.24 548.48,-254.41"/>
</g>
<!-- aptos_governance&#45;&gt;voting -->
<g id="edge37" class="edge">
<title>aptos_governance&#45;&gt;voting</title>
<path fill="none" stroke="black" d="M134.68,-576.82C122.07,-567.63 108.01,-554.97 100,-540 51.08,-448.57 53.94,-320.29 58.17,-263.72"/>
<polygon fill="black" stroke="black" points="61.64,-264.23 58.98,-253.98 54.67,-263.65 61.64,-264.23"/>
</g>
<!-- aptos_governance&#45;&gt;stake -->
<g id="edge40" class="edge">
<title>aptos_governance&#45;&gt;stake</title>
<path fill="none" stroke="black" d="M227.24,-585.47C307.06,-575.79 436.07,-558.08 481,-540 533.49,-518.87 544.06,-505.98 586,-468 607.56,-448.48 628.58,-422.78 642.85,-404.02"/>
<polygon fill="black" stroke="black" points="645.58,-406.22 648.77,-396.12 639.97,-402.03 645.58,-406.22"/>
</g>
<!-- aptos_governance&#45;&gt;reconfiguration -->
<g id="edge46" class="edge">
<title>aptos_governance&#45;&gt;reconfiguration</title>
<path fill="none" stroke="black" d="M227.82,-585.88C317.08,-576.24 480.1,-558.12 619,-540 635.21,-537.89 652.65,-535.44 668.99,-533.08"/>
<polygon fill="black" stroke="black" points="669.22,-536.58 678.61,-531.68 668.21,-529.66 669.22,-536.58"/>
</g>
<!-- aptos_governance&#45;&gt;aptos_coin -->
<g id="edge63" class="edge">
<title>aptos_governance&#45;&gt;aptos_coin</title>
<path fill="none" stroke="black" d="M179.7,-576.3C226.73,-534.97 354.88,-426.5 477,-360 506.32,-344.04 541.46,-330.75 569.2,-321.47"/>
<polygon fill="black" stroke="black" points="569.98,-324.9 578.39,-318.46 567.8,-318.25 569.98,-324.9"/>
</g>
<!-- block -->
<g id="node10" class="node">
<title>block</title>
<ellipse fill="none" stroke="black" cx="369" cy="-594" rx="30.59" ry="18"/>
<text text-anchor="middle" x="369" y="-590.3" font-family="Times,serif" font-size="14.00">block</text>
</g>
<!-- block&#45;&gt;event -->
<g id="edge10" class="edge">
<title>block&#45;&gt;event</title>
<path fill="none" stroke="black" d="M341.86,-585.58C320.04,-578.02 290.84,-563.94 277,-540 262.66,-515.18 293.31,-436.27 295,-432 348.77,-295.8 364.71,-259.28 455,-144 463.96,-132.56 475.44,-121.39 485.76,-112.27"/>
<polygon fill="black" stroke="black" points="487.97,-114.98 493.27,-105.81 483.41,-109.67 487.97,-114.98"/>
</g>
<!-- block&#45;&gt;account -->
<g id="edge19" class="edge">
<title>block&#45;&gt;account</title>
<path fill="none" stroke="black" d="M342.94,-584.43C323.12,-576.38 297.24,-562.2 285,-540 277.27,-525.99 280.12,-519.24 285,-504 333.04,-353.87 376.05,-322.79 492,-216 506.96,-202.23 526,-190.06 542.37,-180.87"/>
<polygon fill="black" stroke="black" points="543.72,-184.12 550.82,-176.26 540.37,-177.97 543.72,-184.12"/>
</g>
<!-- block&#45;&gt;stake -->
<g id="edge41" class="edge">
<title>block&#45;&gt;stake</title>
<path fill="none" stroke="black" d="M392.36,-582C397.74,-579.77 403.5,-577.62 409,-576 499.85,-549.3 542.34,-595.6 619,-540 660.15,-510.16 664.57,-445.28 663.32,-407.62"/>
<polygon fill="black" stroke="black" points="666.83,-407.76 662.83,-397.95 659.84,-408.11 666.83,-407.76"/>
</g>
<!-- block&#45;&gt;reconfiguration -->
<g id="edge47" class="edge">
<title>block&#45;&gt;reconfiguration</title>
<path fill="none" stroke="black" d="M392.33,-581.9C397.71,-579.67 403.48,-577.55 409,-576 516.25,-545.97 547.38,-559.73 657,-540 663.04,-538.91 669.32,-537.7 675.59,-536.44"/>
<polygon fill="black" stroke="black" points="676.23,-539.88 685.31,-534.43 674.81,-533.03 676.23,-539.88"/>
</g>
<!-- block&#45;&gt;transaction_fee -->
<g id="edge70" class="edge">
<title>block&#45;&gt;transaction_fee</title>
<path fill="none" stroke="black" d="M393,-582.47C398.24,-580.26 403.79,-578 409,-576 455.06,-558.34 485.33,-580.14 514,-540 526.42,-522.61 525.13,-498.04 521.32,-479.11"/>
<polygon fill="black" stroke="black" points="524.79,-478.57 519.07,-469.65 517.98,-480.19 524.79,-478.57"/>
</g>
<!-- staking_contract -->
<g id="node11" class="node">
<title>staking_contract</title>
<ellipse fill="none" stroke="black" cx="968" cy="-450" rx="68.79" ry="18"/>
<text text-anchor="middle" x="968" y="-446.3" font-family="Times,serif" font-size="14.00">staking_contract</text>
</g>
<!-- staking_contract&#45;&gt;event -->
<g id="edge11" class="edge">
<title>staking_contract&#45;&gt;event</title>
<path fill="none" stroke="black" d="M1034.34,-444.87C1103.41,-439.02 1204.86,-425.54 1229,-396 1277.37,-336.82 1245.5,-305.47 1143,-216 1081.49,-162.31 1052.93,-164.87 974,-144 822.42,-103.92 634.95,-94.15 553.27,-91.77"/>
<polygon fill="black" stroke="black" points="553.61,-88.28 543.52,-91.51 553.42,-95.27 553.61,-88.28"/>
</g>
<!-- staking_contract&#45;&gt;account -->
<g id="edge20" class="edge">
<title>staking_contract&#45;&gt;account</title>
<path fill="none" stroke="black" d="M987.44,-432.46C997.12,-422.92 1007.84,-410.05 1013,-396 1018.52,-380.98 1019.15,-374.77 1013,-360 978.1,-276.15 948.5,-258.05 868,-216 790.81,-175.68 688.11,-165.54 627.92,-163.28"/>
<polygon fill="black" stroke="black" points="628.08,-159.78 617.98,-162.97 627.87,-166.78 628.08,-159.78"/>
</g>
<!-- staking_contract&#45;&gt;coin -->
<g id="edge30" class="edge">
<title>staking_contract&#45;&gt;coin</title>
<path fill="none" stroke="black" d="M919.05,-436.97C895.57,-428.92 868.75,-416.03 851,-396 817.62,-358.34 854.09,-322.01 817,-288 788,-261.41 675.92,-245.56 616.12,-238.82"/>
<polygon fill="black" stroke="black" points="616.72,-235.37 606.4,-237.76 615.96,-242.32 616.72,-235.37"/>
</g>
<!-- staking_contract&#45;&gt;stake -->
<g id="edge42" class="edge">
<title>staking_contract&#45;&gt;stake</title>
<path fill="none" stroke="black" d="M917.31,-437.44C855.77,-423.41 753.45,-400.08 698.55,-387.56"/>
<polygon fill="black" stroke="black" points="699.59,-384.21 689.06,-385.4 698.03,-391.03 699.59,-384.21"/>
</g>
<!-- staking_contract&#45;&gt;aptos_coin -->
<g id="edge64" class="edge">
<title>staking_contract&#45;&gt;aptos_coin</title>
<path fill="none" stroke="black" d="M918.33,-437.19C871.26,-425.61 804.24,-407.99 780,-396 756.1,-384.18 754.9,-373.66 732,-360 709.12,-346.36 682.14,-333.76 660.06,-324.27"/>
<polygon fill="black" stroke="black" points="661.62,-321.13 651.05,-320.46 658.89,-327.57 661.62,-321.13"/>
</g>
<!-- vesting -->
<g id="node12" class="node">
<title>vesting</title>
<ellipse fill="none" stroke="black" cx="1103" cy="-522" rx="36.29" ry="18"/>
<text text-anchor="middle" x="1103" y="-518.3" font-family="Times,serif" font-size="14.00">vesting</text>
</g>
<!-- vesting&#45;&gt;event -->
<g id="edge12" class="edge">
<title>vesting&#45;&gt;event</title>
<path fill="none" stroke="black" d="M1133.73,-511.85C1202.33,-489.3 1362,-424.24 1362,-307 1362,-307 1362,-307 1362,-233 1362,-149.99 723.23,-104.19 553.17,-93.47"/>
<polygon fill="black" stroke="black" points="553.46,-89.98 543.26,-92.85 553.03,-96.96 553.46,-89.98"/>
</g>
<!-- vesting&#45;&gt;account -->
<g id="edge21" class="edge">
<title>vesting&#45;&gt;account</title>
<path fill="none" stroke="black" d="M1125.09,-507.36C1155.23,-487.29 1207.91,-446.63 1229,-396 1265.44,-308.51 1137.24,-228.63 1114,-216 1030.89,-170.84 744.41,-163.96 627.89,-163.06"/>
<polygon fill="black" stroke="black" points="628.03,-159.56 618.01,-162.99 627.99,-166.56 628.03,-159.56"/>
</g>
<!-- vesting&#45;&gt;coin -->
<g id="edge31" class="edge">
<title>vesting&#45;&gt;coin</title>
<path fill="none" stroke="black" d="M1100.02,-503.75C1096.32,-485.17 1088.85,-455.15 1076,-432 1029.41,-348.06 1003.62,-324.93 915,-288 813.1,-245.54 680.93,-236.81 616.59,-235.21"/>
<polygon fill="black" stroke="black" points="616.97,-231.71 606.9,-235.01 616.83,-238.71 616.97,-231.71"/>
</g>
<!-- vesting&#45;&gt;aptos_account -->
<g id="edge36" class="edge">
<title>vesting&#45;&gt;aptos_account</title>
<path fill="none" stroke="black" d="M1109.75,-503.87C1119.26,-479.78 1136.68,-435.6 1148.05,-406.77"/>
<polygon fill="black" stroke="black" points="1151.25,-408.18 1151.67,-397.6 1144.74,-405.62 1151.25,-408.18"/>
</g>
<!-- vesting&#45;&gt;stake -->
<g id="edge43" class="edge">
<title>vesting&#45;&gt;stake</title>
<path fill="none" stroke="black" d="M1069.64,-514.58C1027.26,-506 952.16,-489.37 890,-468 852.74,-455.2 845.57,-446.65 809,-432 771.15,-416.83 727.06,-401.32 696.92,-391.03"/>
<polygon fill="black" stroke="black" points="698.12,-387.74 687.52,-387.84 695.87,-394.36 698.12,-387.74"/>
</g>
<!-- vesting&#45;&gt;staking_contract -->
<g id="edge54" class="edge">
<title>vesting&#45;&gt;staking_contract</title>
<path fill="none" stroke="black" d="M1078.55,-508.32C1058.92,-498.14 1030.94,-483.64 1008.04,-471.76"/>
<polygon fill="black" stroke="black" points="1009.76,-468.71 999.27,-467.22 1006.54,-474.93 1009.76,-468.71"/>
</g>
<!-- vesting&#45;&gt;aptos_coin -->
<g id="edge65" class="edge">
<title>vesting&#45;&gt;aptos_coin</title>
<path fill="none" stroke="black" d="M1096.93,-503.87C1088.72,-483.33 1072.04,-449.51 1046,-432 972.86,-382.83 935.18,-422.08 851,-396 813.37,-384.34 806.65,-374.46 770,-360 734.83,-346.12 694.39,-332.2 663.92,-322.11"/>
<polygon fill="black" stroke="black" points="665.21,-318.85 654.61,-319.04 663.02,-325.5 665.21,-318.85"/>
</g>
<!-- transaction_validation -->
<g id="node13" class="node">
<title>transaction_validation</title>
<ellipse fill="none" stroke="black" cx="383" cy="-522" rx="89.08" ry="18"/>
<text text-anchor="middle" x="383" y="-518.3" font-family="Times,serif" font-size="14.00">transaction_validation</text>
</g>
<!-- transaction_validation&#45;&gt;account -->
<g id="edge22" class="edge">
<title>transaction_validation&#45;&gt;account</title>
<path fill="none" stroke="black" d="M382.61,-503.58C382.66,-485.37 384,-456.14 391,-432 421.14,-328.04 509.81,-229.98 553.34,-186.51"/>
<polygon fill="black" stroke="black" points="555.66,-189.13 560.33,-179.62 550.75,-184.14 555.66,-189.13"/>
</g>
<!-- transaction_validation&#45;&gt;coin -->
<g id="edge32" class="edge">
<title>transaction_validation&#45;&gt;coin</title>
<path fill="none" stroke="black" d="M385.79,-503.77C389.29,-485.21 396.42,-455.21 409,-432 448.26,-359.56 517.65,-290.1 554.1,-256.32"/>
<polygon fill="black" stroke="black" points="556.08,-259.26 561.09,-249.92 551.35,-254.1 556.08,-259.26"/>
</g>
<!-- transaction_validation&#45;&gt;aptos_coin -->
<g id="edge66" class="edge">
<title>transaction_validation&#45;&gt;aptos_coin</title>
<path fill="none" stroke="black" d="M391.38,-503.9C401.24,-484.9 418.96,-454.02 440,-432 482.35,-387.69 542.5,-349.14 580.63,-326.98"/>
<polygon fill="black" stroke="black" points="582.05,-330.2 588.98,-322.19 578.56,-324.13 582.05,-330.2"/>
</g>
<!-- transaction_validation&#45;&gt;transaction_fee -->
<g id="edge71" class="edge">
<title>transaction_validation&#45;&gt;transaction_fee</title>
<path fill="none" stroke="black" d="M413.15,-504.76C431.34,-494.97 454.68,-482.4 474.23,-471.88"/>
<polygon fill="black" stroke="black" points="475.87,-474.97 483.02,-467.14 472.55,-468.8 475.87,-474.97"/>
</g>
<!-- genesis -->
<g id="node14" class="node">
<title>genesis</title>
<ellipse fill="none" stroke="black" cx="696" cy="-666" rx="36.29" ry="18"/>
<text text-anchor="middle" x="696" y="-662.3" font-family="Times,serif" font-size="14.00">genesis</text>
</g>
<!-- genesis&#45;&gt;account -->
<g id="edge23" class="edge">
<title>genesis&#45;&gt;account</title>
<path fill="none" stroke="black" d="M732.39,-664.74C824.61,-663.44 1064.69,-655.82 1129,-612 1231.05,-542.47 1261.09,-482.56 1246,-360 1236.69,-284.38 1222.3,-247.65 1153,-216 1059.91,-173.48 749.58,-165.07 627.73,-163.41"/>
<polygon fill="black" stroke="black" points="628.09,-159.91 618.05,-163.29 628.01,-166.91 628.09,-159.91"/>
</g>
<!-- genesis&#45;&gt;coin -->
<g id="edge33" class="edge">
<title>genesis&#45;&gt;coin</title>
<path fill="none" stroke="black" d="M659.66,-664.68C533.12,-663.18 117.46,-654.99 78,-612 -83.96,-435.56 403.13,-283.6 542.11,-244.65"/>
<polygon fill="black" stroke="black" points="542.82,-248.09 551.52,-242.04 540.95,-241.34 542.82,-248.09"/>
</g>
<!-- genesis&#45;&gt;stake -->
<g id="edge44" class="edge">
<title>genesis&#45;&gt;stake</title>
<path fill="none" stroke="black" d="M730.52,-659.66C758.07,-653.39 794.93,-640.02 813,-612 821.04,-599.53 821.43,-527.24 810,-504 806.52,-496.92 728.73,-433.57 686.97,-399.88"/>
<polygon fill="black" stroke="black" points="689.32,-397.28 679.34,-393.73 684.93,-402.73 689.32,-397.28"/>
</g>
<!-- genesis&#45;&gt;reconfiguration -->
<g id="edge51" class="edge">
<title>genesis&#45;&gt;reconfiguration</title>
<path fill="none" stroke="black" d="M728.61,-657.46C752.13,-650.12 782.25,-636.4 797,-612 805.28,-598.31 803.64,-590.56 797,-576 791.61,-564.17 782.13,-553.97 772.23,-545.75"/>
<polygon fill="black" stroke="black" points="774.4,-543 764.33,-539.71 770.14,-548.56 774.4,-543"/>
</g>
<!-- genesis&#45;&gt;aptos_governance -->
<g id="edge52" class="edge">
<title>genesis&#45;&gt;aptos_governance</title>
<path fill="none" stroke="black" d="M660.43,-661.34C585.72,-653.52 407.08,-634.07 258,-612 248.98,-610.67 239.51,-609.15 230.17,-607.58"/>
<polygon fill="black" stroke="black" points="230.82,-604.14 220.37,-605.92 229.64,-611.04 230.82,-604.14"/>
</g>
<!-- genesis&#45;&gt;block -->
<g id="edge53" class="edge">
<title>genesis&#45;&gt;block</title>
<path fill="none" stroke="black" d="M660.96,-661.05C606.3,-654.32 497.79,-638.71 409,-612 407.03,-611.41 405.02,-610.75 403.01,-610.04"/>
<polygon fill="black" stroke="black" points="404.37,-606.82 393.78,-606.49 401.86,-613.35 404.37,-606.82"/>
</g>
<!-- genesis&#45;&gt;staking_contract -->
<g id="edge55" class="edge">
<title>genesis&#45;&gt;staking_contract</title>
<path fill="none" stroke="black" d="M732.56,-665.51C778.53,-664.18 857.32,-655.15 906,-612 944.87,-577.55 959.53,-515.9 964.94,-479.71"/>
<polygon fill="black" stroke="black" points="968.38,-480.36 966.24,-469.99 961.45,-479.43 968.38,-480.36"/>
</g>
<!-- genesis&#45;&gt;vesting -->
<g id="edge57" class="edge">
<title>genesis&#45;&gt;vesting</title>
<path fill="none" stroke="black" d="M732.27,-663.05C828.6,-657.51 1085.17,-640.22 1110,-612 1124.47,-595.56 1120.83,-570.16 1114.67,-550.7"/>
<polygon fill="black" stroke="black" points="1118.04,-549.71 1111.38,-541.46 1111.44,-552.06 1118.04,-549.71"/>
</g>
<!-- genesis&#45;&gt;transaction_validation -->
<g id="edge59" class="edge">
<title>genesis&#45;&gt;transaction_validation</title>
<path fill="none" stroke="black" d="M659.93,-662.89C566.08,-657.05 319.86,-639.23 296,-612 285.46,-599.97 288.16,-589.95 296,-576 303.81,-562.1 316.9,-551.42 330.59,-543.42"/>
<polygon fill="black" stroke="black" points="332.1,-546.58 339.26,-538.76 328.79,-540.41 332.1,-546.58"/>
</g>
<!-- genesis&#45;&gt;aptos_coin -->
<g id="edge67" class="edge">
<title>genesis&#45;&gt;aptos_coin</title>
<path fill="none" stroke="black" d="M730.52,-659.66C758.07,-653.39 794.93,-640.02 813,-612 820.09,-601 819.53,-530.19 810,-504 803.09,-485.02 713.86,-373.68 699,-360 685.52,-347.6 668.81,-336.22 654,-327.21"/>
<polygon fill="black" stroke="black" points="655.8,-324.22 645.41,-322.14 652.24,-330.24 655.8,-324.22"/>
</g>
<!-- genesis&#45;&gt;transaction_fee -->
<g id="edge72" class="edge">
<title>genesis&#45;&gt;transaction_fee</title>
<path fill="none" stroke="black" d="M659.27,-665.48C574.95,-665.72 371.51,-661.09 329,-612 318.53,-599.9 319.08,-588.55 329,-576 372.06,-521.55 429.22,-586.25 481,-540 498.22,-524.62 506.18,-499.28 509.85,-479.57"/>
<polygon fill="black" stroke="black" points="513.27,-480.36 511.36,-469.94 506.35,-479.28 513.27,-480.36"/>
</g>
<!-- consensus_config -->
<g id="node20" class="node">
<title>consensus_config</title>
<ellipse fill="none" stroke="black" cx="491" cy="-594" rx="73.39" ry="18"/>
<text text-anchor="middle" x="491" y="-590.3" font-family="Times,serif" font-size="14.00">consensus_config</text>
</g>
<!-- genesis&#45;&gt;consensus_config -->
<g id="edge73" class="edge">
<title>genesis&#45;&gt;consensus_config</title>
<path fill="none" stroke="black" d="M666.63,-654.97C634.55,-644.02 582.53,-626.25 543.41,-612.9"/>
<polygon fill="black" stroke="black" points="544.78,-609.66 534.18,-609.74 542.51,-616.29 544.78,-609.66"/>
</g>
<!-- gas_schedule -->
<g id="node21" class="node">
<title>gas_schedule</title>
<ellipse fill="none" stroke="black" cx="640" cy="-594" rx="57.69" ry="18"/>
<text text-anchor="middle" x="640" y="-590.3" font-family="Times,serif" font-size="14.00">gas_schedule</text>
</g>
<!-- genesis&#45;&gt;gas_schedule -->
<g id="edge74" class="edge">
<title>genesis&#45;&gt;gas_schedule</title>
<path fill="none" stroke="black" d="M683.01,-648.76C676.32,-640.4 668.01,-630.02 660.48,-620.61"/>
<polygon fill="black" stroke="black" points="663.23,-618.44 654.25,-612.82 657.77,-622.81 663.23,-618.44"/>
</g>
<!-- version -->
<g id="node22" class="node">
<title>version</title>
<ellipse fill="none" stroke="black" cx="752" cy="-594" rx="36.29" ry="18"/>
<text text-anchor="middle" x="752" y="-590.3" font-family="Times,serif" font-size="14.00">version</text>
</g>
<!-- genesis&#45;&gt;version -->
<g id="edge75" class="edge">
<title>genesis&#45;&gt;version</title>
<path fill="none" stroke="black" d="M708.99,-648.76C715.84,-640.19 724.4,-629.49 732.08,-619.9"/>
<polygon fill="black" stroke="black" points="734.62,-622.32 738.14,-612.33 729.16,-617.95 734.62,-622.32"/>
</g>
<!-- resource_account -->
<g id="node15" class="node">
<title>resource_account</title>
<ellipse fill="none" stroke="black" cx="932" cy="-378" rx="72.29" ry="18"/>
<text text-anchor="middle" x="932" y="-374.3" font-family="Times,serif" font-size="14.00">resource_account</text>
</g>
<!-- resource_account&#45;&gt;account -->
<g id="edge24" class="edge">
<title>resource_account&#45;&gt;account</title>
<path fill="none" stroke="black" d="M932.95,-359.5C933.1,-340.16 930.58,-308.96 915,-288 846.65,-196.07 703.03,-171.71 627.24,-165.28"/>
<polygon fill="black" stroke="black" points="627.88,-161.82 617.64,-164.54 627.34,-168.8 627.88,-161.82"/>
</g>
<!-- resource_account&#45;&gt;coin -->
<g id="edge35" class="edge">
<title>resource_account&#45;&gt;coin</title>
<path fill="none" stroke="black" d="M928.39,-359.54C923.19,-339.01 911.49,-305.51 888,-288 845.6,-256.4 689.86,-242.27 616.59,-237.27"/>
<polygon fill="black" stroke="black" points="616.87,-233.78 606.67,-236.62 616.41,-240.77 616.87,-233.78"/>
</g>
<!-- resource_account&#45;&gt;aptos_coin -->
<g id="edge68" class="edge">
<title>resource_account&#45;&gt;aptos_coin</title>
<path fill="none" stroke="black" d="M874.79,-366.59C822.51,-356.75 743.19,-340.99 675,-324 671.65,-323.16 668.2,-322.26 664.73,-321.32"/>
<polygon fill="black" stroke="black" points="665.73,-317.97 655.15,-318.65 663.85,-324.71 665.73,-317.97"/>
</g>
<!-- aptos_coin&#45;&gt;coin -->
<g id="edge25" class="edge">
<title>aptos_coin&#45;&gt;coin</title>
<path fill="none" stroke="black" d="M607.56,-288.05C603.09,-280.03 597.64,-270.26 592.65,-261.3"/>
<polygon fill="black" stroke="black" points="595.75,-259.66 587.82,-252.63 589.63,-263.07 595.75,-259.66"/>
</g>
<!-- transaction_fee&#45;&gt;coin -->
<g id="edge28" class="edge">
<title>transaction_fee&#45;&gt;coin</title>
<path fill="none" stroke="black" d="M515.25,-431.62C519.5,-401.6 530.01,-338.39 549,-288 552.52,-278.65 557.44,-268.92 562.23,-260.39"/>
<polygon fill="black" stroke="black" points="565.11,-262.38 567.13,-251.98 559.07,-258.85 565.11,-262.38"/>
</g>
<!-- transaction_fee&#45;&gt;stake -->
<g id="edge38" class="edge">
<title>transaction_fee&#45;&gt;stake</title>
<path fill="none" stroke="black" d="M544.75,-433.98C569.31,-422.37 603.22,-406.33 628.07,-394.57"/>
<polygon fill="black" stroke="black" points="629.54,-397.75 637.09,-390.31 626.55,-391.42 629.54,-397.75"/>
</g>
<!-- transaction_fee&#45;&gt;aptos_coin -->
<g id="edge62" class="edge">
<title>transaction_fee&#45;&gt;aptos_coin</title>
<path fill="none" stroke="black" d="M525.54,-431.87C543.6,-407.22 577.05,-361.54 598.11,-332.79"/>
<polygon fill="black" stroke="black" points="600.75,-335.11 603.84,-324.97 595.11,-330.97 600.75,-335.11"/>
</g>
<!-- managed_coin -->
<g id="node18" class="node">
<title>managed_coin</title>
<ellipse fill="none" stroke="black" cx="746" cy="-306" rx="62.29" ry="18"/>
<text text-anchor="middle" x="746" y="-302.3" font-family="Times,serif" font-size="14.00">managed_coin</text>
</g>
<!-- managed_coin&#45;&gt;coin -->
<g id="edge34" class="edge">
<title>managed_coin&#45;&gt;coin</title>
<path fill="none" stroke="black" d="M711.6,-290.67C682.14,-278.39 640.02,-260.84 610.98,-248.74"/>
<polygon fill="black" stroke="black" points="612.52,-245.59 601.95,-244.98 609.83,-252.05 612.52,-245.59"/>
</g>
<!-- staking_proxy -->
<g id="node19" class="node">
<title>staking_proxy</title>
<ellipse fill="none" stroke="black" cx="1040" cy="-594" rx="61.19" ry="18"/>
<text text-anchor="middle" x="1040" y="-590.3" font-family="Times,serif" font-size="14.00">staking_proxy</text>
</g>
<!-- staking_proxy&#45;&gt;stake -->
<g id="edge45" class="edge">
<title>staking_proxy&#45;&gt;stake</title>
<path fill="none" stroke="black" d="M1019.12,-576.91C993.52,-557.72 948.31,-525.54 906,-504 865.02,-483.14 848.04,-492.3 809,-468 789.25,-455.7 790.15,-445.21 771,-432 747.45,-415.76 718.17,-401.92 695.74,-392.46"/>
<polygon fill="black" stroke="black" points="697.31,-389.32 686.74,-388.75 694.65,-395.79 697.31,-389.32"/>
</g>
<!-- staking_proxy&#45;&gt;staking_contract -->
<g id="edge56" class="edge">
<title>staking_proxy&#45;&gt;staking_contract</title>
<path fill="none" stroke="black" d="M1031.32,-575.87C1019.04,-551.67 996.5,-507.21 981.89,-478.39"/>
<polygon fill="black" stroke="black" points="985.04,-476.88 977.4,-469.54 978.8,-480.04 985.04,-476.88"/>
</g>
<!-- staking_proxy&#45;&gt;vesting -->
<g id="edge58" class="edge">
<title>staking_proxy&#45;&gt;vesting</title>
<path fill="none" stroke="black" d="M1054.93,-576.41C1062.73,-567.74 1072.43,-556.97 1081.06,-547.38"/>
<polygon fill="black" stroke="black" points="1083.51,-549.89 1087.6,-540.11 1078.31,-545.2 1083.51,-549.89"/>
</g>
<!-- consensus_config&#45;&gt;reconfiguration -->
<g id="edge48" class="edge">
<title>consensus_config&#45;&gt;reconfiguration</title>
<path fill="none" stroke="black" d="M537.66,-579.67C578.53,-567.99 637.97,-551.01 681.11,-538.68"/>
<polygon fill="black" stroke="black" points="681.88,-542.1 690.53,-535.99 679.95,-535.37 681.88,-542.1"/>
</g>
<!-- gas_schedule&#45;&gt;reconfiguration -->
<g id="edge49" class="edge">
<title>gas_schedule&#45;&gt;reconfiguration</title>
<path fill="none" stroke="black" d="M661.78,-577.12C674.37,-567.94 690.42,-556.23 704.38,-546.06"/>
<polygon fill="black" stroke="black" points="706.4,-548.92 712.41,-540.2 702.27,-543.26 706.4,-548.92"/>
</g>
<!-- version&#45;&gt;reconfiguration -->
<g id="edge50" class="edge">
<title>version&#45;&gt;reconfiguration</title>
<path fill="none" stroke="black" d="M748.04,-575.7C746.36,-568.32 744.35,-559.52 742.46,-551.25"/>
<polygon fill="black" stroke="black" points="745.89,-550.55 740.25,-541.58 739.06,-552.11 745.89,-550.55"/>
</g>
</g>
</svg>
