<?xml version="1.0" encoding="UTF-8" standalone="no"?>
<!DOCTYPE svg PUBLIC "-//W3C//DTD SVG 1.1//EN"
 "http://www.w3.org/Graphics/SVG/1.1/DTD/svg11.dtd">
<!-- Generated by graphviz version 7.0.4 (20221203.1631)
 -->
<!-- Title: G Pages: 1 -->
<svg width="1470pt" height="620pt"
 viewBox="0.00 0.00 1470.00 620.00" xmlns="http://www.w3.org/2000/svg" xmlns:xlink="http://www.w3.org/1999/xlink">
<g id="graph0" class="graph" transform="scale(1 1) rotate(0) translate(4 616)">
<title>G</title>
<polygon fill="white" stroke="none" points="-4,4 -4,-616 1466,-616 1466,4 -4,4"/>
<!-- managed_coin -->
<g id="node1" class="node">
<title>managed_coin</title>
<ellipse fill="none" stroke="black" cx="328" cy="-594" rx="62.29" ry="18"/>
<text text-anchor="middle" x="328" y="-590.3" font-family="Times,serif" font-size="14.00">managed_coin</text>
</g>
<!-- string -->
<g id="node2" class="node">
<title>string</title>
<ellipse fill="none" stroke="black" cx="268" cy="-162" rx="30.59" ry="18"/>
<text text-anchor="middle" x="268" y="-158.3" font-family="Times,serif" font-size="14.00">string</text>
</g>
<!-- managed_coin&#45;&gt;string -->
<g id="edge1" class="edge">
<title>managed_coin&#45;&gt;string</title>
<path fill="none" stroke="black" d="M316.72,-576.01C290.13,-534.9 223.91,-425.88 199,-324 187.59,-277.34 173.19,-258.79 195,-216 203.26,-199.79 219.06,-187.37 233.86,-178.65"/>
<polygon fill="black" stroke="black" points="235.41,-181.79 242.5,-173.93 232.05,-175.65 235.41,-181.79"/>
</g>
<!-- signer -->
<g id="node3" class="node">
<title>signer</title>
<ellipse fill="none" stroke="black" cx="114" cy="-90" rx="32.49" ry="18"/>
<text text-anchor="middle" x="114" y="-86.3" font-family="Times,serif" font-size="14.00">signer</text>
</g>
<!-- managed_coin&#45;&gt;signer -->
<g id="edge2" class="edge">
<title>managed_coin&#45;&gt;signer</title>
<path fill="none" stroke="black" d="M265.53,-592.75C170.37,-588.71 0,-565.49 0,-451 0,-451 0,-451 0,-233 0,-179.4 50.01,-134.51 83.78,-110.3"/>
<polygon fill="black" stroke="black" points="85.36,-113.47 91.58,-104.9 81.37,-107.72 85.36,-113.47"/>
</g>
<!-- error -->
<g id="node4" class="node">
<title>error</title>
<ellipse fill="none" stroke="black" cx="1038" cy="-90" rx="27.9" ry="18"/>
<text text-anchor="middle" x="1038" y="-86.3" font-family="Times,serif" font-size="14.00">error</text>
</g>
<!-- managed_coin&#45;&gt;error -->
<g id="edge3" class="edge">
<title>managed_coin&#45;&gt;error</title>
<path fill="none" stroke="black" d="M390.18,-591.81C627.36,-586.47 1462,-559.94 1462,-451 1462,-451 1462,-451 1462,-233 1462,-176.11 1420.89,-169.44 1370,-144 1319.1,-118.55 1153.13,-101.12 1076.91,-94.26"/>
<polygon fill="black" stroke="black" points="1077.68,-90.82 1067.42,-93.42 1077.07,-97.79 1077.68,-90.82"/>
</g>
<!-- coin -->
<g id="node5" class="node">
<title>coin</title>
<ellipse fill="none" stroke="black" cx="424" cy="-522" rx="27" ry="18"/>
<text text-anchor="middle" x="424" y="-518.3" font-family="Times,serif" font-size="14.00">coin</text>
</g>
<!-- managed_coin&#45;&gt;coin -->
<g id="edge4" class="edge">
<title>managed_coin&#45;&gt;coin</title>
<path fill="none" stroke="black" d="M350.27,-576.76C364.26,-566.56 382.4,-553.33 397.18,-542.55"/>
<polygon fill="black" stroke="black" points="399.1,-545.49 405.11,-536.77 394.97,-539.84 399.1,-545.49"/>
</g>
<!-- vector -->
<g id="node6" class="node">
<title>vector</title>
<ellipse fill="none" stroke="black" cx="553" cy="-18" rx="32.49" ry="18"/>
<text text-anchor="middle" x="553" y="-14.3" font-family="Times,serif" font-size="14.00">vector</text>
</g>
<!-- string&#45;&gt;vector -->
<g id="edge5" class="edge">
<title>string&#45;&gt;vector</title>
<path fill="none" stroke="black" d="M290.84,-149.62C340.83,-124.71 460.15,-65.26 519,-35.94"/>
<polygon fill="black" stroke="black" points="520.51,-39.1 527.9,-31.51 517.38,-32.84 520.51,-39.1"/>
</g>
<!-- option -->
<g id="node7" class="node">
<title>option</title>
<ellipse fill="none" stroke="black" cx="553" cy="-90" rx="33.29" ry="18"/>
<text text-anchor="middle" x="553" y="-86.3" font-family="Times,serif" font-size="14.00">option</text>
</g>
<!-- string&#45;&gt;option -->
<g id="edge6" class="edge">
<title>string&#45;&gt;option</title>
<path fill="none" stroke="black" d="M294.04,-151.96C302.3,-149.24 311.49,-146.35 320,-144 385.98,-125.75 463.71,-109.01 510.63,-99.41"/>
<polygon fill="black" stroke="black" points="511.28,-102.85 520.38,-97.43 509.89,-95.99 511.28,-102.85"/>
</g>
<!-- coin&#45;&gt;string -->
<g id="edge8" class="edge">
<title>coin&#45;&gt;string</title>
<path fill="none" stroke="black" d="M397.93,-516.71C368.39,-510.63 320.41,-496.83 290,-468 264.46,-443.78 269.92,-428.75 257,-396 226.62,-318.98 175.28,-291.62 209,-216 215.05,-202.44 226.46,-190.9 237.66,-182.09"/>
<polygon fill="black" stroke="black" points="239.66,-184.96 245.66,-176.23 235.52,-179.31 239.66,-184.96"/>
</g>
<!-- coin&#45;&gt;signer -->
<g id="edge9" class="edge">
<title>coin&#45;&gt;signer</title>
<path fill="none" stroke="black" d="M396.84,-521.72C341.77,-522.04 214.46,-516.94 123,-468 74.77,-442.19 38,-433.7 38,-379 38,-379 38,-379 38,-233 38,-186.98 69.42,-141.43 91.85,-114.78"/>
<polygon fill="black" stroke="black" points="94.43,-117.15 98.35,-107.31 89.15,-112.56 94.43,-117.15"/>
</g>
<!-- coin&#45;&gt;error -->
<g id="edge10" class="edge">
<title>coin&#45;&gt;error</title>
<path fill="none" stroke="black" d="M451.4,-520.45C606.4,-517.23 1367.74,-499.84 1405,-468 1435.75,-441.72 1424,-419.45 1424,-379 1424,-379 1424,-379 1424,-233 1424,-170.11 1371.03,-170.5 1314,-144 1235.26,-107.41 1132.63,-96.08 1077.37,-92.57"/>
<polygon fill="black" stroke="black" points="1077.69,-89.09 1067.51,-92.01 1077.29,-96.07 1077.69,-89.09"/>
</g>
<!-- coin&#45;&gt;option -->
<g id="edge7" class="edge">
<title>coin&#45;&gt;option</title>
<path fill="none" stroke="black" d="M398.13,-516.26C317.48,-500.77 76,-448.58 76,-379 76,-379 76,-379 76,-305 76,-116.58 389.65,-93.02 508.27,-90.85"/>
<polygon fill="black" stroke="black" points="507.99,-94.35 517.94,-90.72 507.9,-87.36 507.99,-94.35"/>
</g>
<!-- type_info -->
<g id="node8" class="node">
<title>type_info</title>
<ellipse fill="none" stroke="black" cx="406" cy="-234" rx="44.39" ry="18"/>
<text text-anchor="middle" x="406" y="-230.3" font-family="Times,serif" font-size="14.00">type_info</text>
</g>
<!-- coin&#45;&gt;type_info -->
<g id="edge11" class="edge">
<title>coin&#45;&gt;type_info</title>
<path fill="none" stroke="black" d="M401.85,-511.35C365.82,-494.24 295.94,-454.75 270,-396 250.06,-350.84 262.92,-324.65 296,-288 312.71,-269.49 337.28,-256.8 358.97,-248.49"/>
<polygon fill="black" stroke="black" points="360.01,-251.83 368.24,-245.16 357.65,-245.25 360.01,-251.83"/>
</g>
<!-- system_addresses -->
<g id="node9" class="node">
<title>system_addresses</title>
<ellipse fill="none" stroke="black" cx="1095" cy="-306" rx="73.39" ry="18"/>
<text text-anchor="middle" x="1095" y="-302.3" font-family="Times,serif" font-size="14.00">system_addresses</text>
</g>
<!-- coin&#45;&gt;system_addresses -->
<g id="edge12" class="edge">
<title>coin&#45;&gt;system_addresses</title>
<path fill="none" stroke="black" d="M451.24,-520.4C537.56,-517.44 810.75,-499.89 1004,-396 1032.86,-380.48 1058.82,-353.08 1075.56,-332.77"/>
<polygon fill="black" stroke="black" points="1078.11,-335.18 1081.63,-325.18 1072.65,-330.8 1078.11,-335.18"/>
</g>
<!-- event -->
<g id="node10" class="node">
<title>event</title>
<ellipse fill="none" stroke="black" cx="309" cy="-378" rx="29.8" ry="18"/>
<text text-anchor="middle" x="309" y="-374.3" font-family="Times,serif" font-size="14.00">event</text>
</g>
<!-- coin&#45;&gt;event -->
<g id="edge13" class="edge">
<title>coin&#45;&gt;event</title>
<path fill="none" stroke="black" d="M411.47,-505.53C391.51,-480.89 352.33,-432.5 328.62,-403.23"/>
<polygon fill="black" stroke="black" points="331.48,-401.19 322.46,-395.62 326.04,-405.6 331.48,-401.19"/>
</g>
<!-- account -->
<g id="node11" class="node">
<title>account</title>
<ellipse fill="none" stroke="black" cx="519" cy="-450" rx="38.19" ry="18"/>
<text text-anchor="middle" x="519" y="-446.3" font-family="Times,serif" font-size="14.00">account</text>
</g>
<!-- coin&#45;&gt;account -->
<g id="edge14" class="edge">
<title>coin&#45;&gt;account</title>
<path fill="none" stroke="black" d="M441.42,-508.16C455.04,-498.13 474.25,-483.98 490.15,-472.26"/>
<polygon fill="black" stroke="black" points="491.86,-475.34 497.84,-466.59 487.71,-469.71 491.86,-475.34"/>
</g>
<!-- aggregator -->
<g id="node12" class="node">
<title>aggregator</title>
<ellipse fill="none" stroke="black" cx="1272" cy="-306" rx="48.19" ry="18"/>
<text text-anchor="middle" x="1272" y="-302.3" font-family="Times,serif" font-size="14.00">aggregator</text>
</g>
<!-- coin&#45;&gt;aggregator -->
<g id="edge15" class="edge">
<title>coin&#45;&gt;aggregator</title>
<path fill="none" stroke="black" d="M451.24,-520.25C560.07,-517.06 963.66,-503.04 1086,-468 1152.89,-448.85 1175.61,-445 1225,-396 1242.24,-378.9 1254.61,-354.14 1262.32,-335.08"/>
<polygon fill="black" stroke="black" points="1265.58,-336.34 1265.88,-325.75 1259.04,-333.85 1265.58,-336.34"/>
</g>
<!-- aggregator_factory -->
<g id="node13" class="node">
<title>aggregator_factory</title>
<ellipse fill="none" stroke="black" cx="1139" cy="-378" rx="77.19" ry="18"/>
<text text-anchor="middle" x="1139" y="-374.3" font-family="Times,serif" font-size="14.00">aggregator_factory</text>
</g>
<!-- coin&#45;&gt;aggregator_factory -->
<g id="edge16" class="edge">
<title>coin&#45;&gt;aggregator_factory</title>
<path fill="none" stroke="black" d="M451.46,-521.11C557.45,-521.14 939.39,-517.75 1048,-468 1078.14,-454.19 1104.21,-426 1120.62,-405.03"/>
<polygon fill="black" stroke="black" points="1123.31,-407.27 1126.55,-397.19 1117.73,-403.05 1123.31,-407.27"/>
</g>
<!-- optional_aggregator -->
<g id="node14" class="node">
<title>optional_aggregator</title>
<ellipse fill="none" stroke="black" cx="1315" cy="-450" rx="81.49" ry="18"/>
<text text-anchor="middle" x="1315" y="-446.3" font-family="Times,serif" font-size="14.00">optional_aggregator</text>
</g>
<!-- coin&#45;&gt;optional_aggregator -->
<g id="edge17" class="edge">
<title>coin&#45;&gt;optional_aggregator</title>
<path fill="none" stroke="black" d="M451.25,-520.28C552.96,-517.35 919.96,-504.72 1220,-468 1227.95,-467.03 1236.24,-465.83 1244.46,-464.51"/>
<polygon fill="black" stroke="black" points="1244.82,-468 1254.11,-462.92 1243.68,-461.1 1244.82,-468"/>
</g>
<!-- option&#45;&gt;vector -->
<g id="edge18" class="edge">
<title>option&#45;&gt;vector</title>
<path fill="none" stroke="black" d="M553,-71.7C553,-64.41 553,-55.73 553,-47.54"/>
<polygon fill="black" stroke="black" points="556.5,-47.62 553,-37.62 549.5,-47.62 556.5,-47.62"/>
</g>
<!-- type_info&#45;&gt;string -->
<g id="edge19" class="edge">
<title>type_info&#45;&gt;string</title>
<path fill="none" stroke="black" d="M379.06,-219.34C356.65,-207.97 324.67,-191.74 300.77,-179.62"/>
<polygon fill="black" stroke="black" points="302.61,-176.63 292.1,-175.23 299.44,-182.87 302.61,-176.63"/>
</g>
<!-- type_info&#45;&gt;error -->
<g id="edge20" class="edge">
<title>type_info&#45;&gt;error</title>
<path fill="none" stroke="black" d="M420.29,-216.86C442.12,-192.39 482.16,-148.3 491,-144 580.73,-100.38 888.89,-92.66 998.73,-91.29"/>
<polygon fill="black" stroke="black" points="998.45,-94.8 1008.41,-91.18 998.37,-87.8 998.45,-94.8"/>
</g>
<!-- features -->
<g id="node15" class="node">
<title>features</title>
<ellipse fill="none" stroke="black" cx="406" cy="-162" rx="38.19" ry="18"/>
<text text-anchor="middle" x="406" y="-158.3" font-family="Times,serif" font-size="14.00">features</text>
</g>
<!-- type_info&#45;&gt;features -->
<g id="edge21" class="edge">
<title>type_info&#45;&gt;features</title>
<path fill="none" stroke="black" d="M406,-215.7C406,-208.41 406,-199.73 406,-191.54"/>
<polygon fill="black" stroke="black" points="409.5,-191.62 406,-181.62 402.5,-191.62 409.5,-191.62"/>
</g>
<!-- bcs -->
<g id="node16" class="node">
<title>bcs</title>
<ellipse fill="none" stroke="black" cx="527" cy="-162" rx="27" ry="18"/>
<text text-anchor="middle" x="527" y="-158.3" font-family="Times,serif" font-size="14.00">bcs</text>
</g>
<!-- type_info&#45;&gt;bcs -->
<g id="edge22" class="edge">
<title>type_info&#45;&gt;bcs</title>
<path fill="none" stroke="black" d="M430.78,-218.67C450.06,-207.51 476.88,-191.99 497.31,-180.17"/>
<polygon fill="black" stroke="black" points="498.84,-183.33 505.74,-175.3 495.34,-177.27 498.84,-183.33"/>
</g>
<!-- system_addresses&#45;&gt;signer -->
<g id="edge23" class="edge">
<title>system_addresses&#45;&gt;signer</title>
<path fill="none" stroke="black" d="M1054.64,-290.54C1026.31,-280.22 987.64,-265.78 954,-252 917.55,-237.06 910.36,-228.51 873,-216 610.7,-128.14 275.96,-100.62 157.73,-93.32"/>
<polygon fill="black" stroke="black" points="158.03,-89.83 147.84,-92.73 157.61,-96.82 158.03,-89.83"/>
</g>
<!-- system_addresses&#45;&gt;error -->
<g id="edge24" class="edge">
<title>system_addresses&#45;&gt;error</title>
<path fill="none" stroke="black" d="M1090.43,-287.85C1080.63,-251.07 1057.52,-164.29 1045.52,-119.24"/>
<polygon fill="black" stroke="black" points="1048.94,-118.46 1042.98,-109.7 1042.17,-120.26 1048.94,-118.46"/>
</g>
<!-- event&#45;&gt;bcs -->
<g id="edge25" class="edge">
<title>event&#45;&gt;bcs</title>
<path fill="none" stroke="black" d="M303.78,-359.85C298.95,-340.24 294.73,-308.23 311,-288 353.43,-235.25 402.32,-289.01 459,-252 482.85,-236.43 501.67,-209.54 513.4,-189.38"/>
<polygon fill="black" stroke="black" points="516.34,-191.31 518.15,-180.87 510.22,-187.9 516.34,-191.31"/>
</g>
<!-- guid -->
<g id="node17" class="node">
<title>guid</title>
<ellipse fill="none" stroke="black" cx="347" cy="-306" rx="27" ry="18"/>
<text text-anchor="middle" x="347" y="-302.3" font-family="Times,serif" font-size="14.00">guid</text>
</g>
<!-- event&#45;&gt;guid -->
<g id="edge26" class="edge">
<title>event&#45;&gt;guid</title>
<path fill="none" stroke="black" d="M318.01,-360.41C322.36,-352.39 327.69,-342.57 332.59,-333.54"/>
<polygon fill="black" stroke="black" points="335.64,-335.26 337.34,-324.8 329.49,-331.92 335.64,-335.26"/>
</g>
<!-- account&#45;&gt;signer -->
<g id="edge29" class="edge">
<title>account&#45;&gt;signer</title>
<path fill="none" stroke="black" d="M500.59,-433.89C488.71,-423.73 473.25,-409.75 461,-396 441.3,-373.9 407.85,-304.09 383,-288 316.71,-245.07 273.23,-297.94 209,-252 162.67,-218.86 135.21,-155.49 122.53,-118.91"/>
<polygon fill="black" stroke="black" points="125.87,-117.88 119.4,-109.49 119.23,-120.08 125.87,-117.88"/>
</g>
<!-- account&#45;&gt;error -->
<g id="edge30" class="edge">
<title>account&#45;&gt;error</title>
<path fill="none" stroke="black" d="M557.45,-448.37C642.65,-446.23 843.96,-436.88 896,-396 936.63,-364.09 917.83,-335.13 939,-288 966.91,-225.87 1003.85,-154.94 1023.78,-117.45"/>
<polygon fill="black" stroke="black" points="1026.83,-119.18 1028.45,-108.71 1020.66,-115.88 1026.83,-119.18"/>
</g>
<!-- account&#45;&gt;vector -->
<g id="edge27" class="edge">
<title>account&#45;&gt;vector</title>
<path fill="none" stroke="black" d="M557.25,-447.64C607.81,-444.36 698.25,-433.29 765,-396 834.84,-356.99 853.35,-329.55 873,-252 907.12,-117.39 687.99,-50.11 594.16,-27.74"/>
<polygon fill="black" stroke="black" points="595.11,-24.37 584.57,-25.52 593.52,-31.19 595.11,-24.37"/>
</g>
<!-- account&#45;&gt;option -->
<g id="edge28" class="edge">
<title>account&#45;&gt;option</title>
<path fill="none" stroke="black" d="M481.16,-446.6C418.17,-441.74 296.14,-428.29 270,-396 259.93,-383.56 267.24,-375.76 270,-360 275.87,-326.49 282.25,-319.12 296,-288 303.31,-271.45 307.36,-268.4 315,-252 336.9,-205.02 320.22,-178.38 359,-144 400.52,-107.19 465.26,-95.66 508.38,-92.2"/>
<polygon fill="black" stroke="black" points="508.41,-95.71 518.16,-91.55 507.94,-88.73 508.41,-95.71"/>
</g>
<!-- account&#45;&gt;type_info -->
<g id="edge32" class="edge">
<title>account&#45;&gt;type_info</title>
<path fill="none" stroke="black" d="M514.33,-432.09C505.49,-401.71 484.41,-336.53 454,-288 447.57,-277.74 439.08,-267.61 431.02,-259"/>
<polygon fill="black" stroke="black" points="433.74,-256.77 424.26,-252.03 428.71,-261.64 433.74,-256.77"/>
</g>
<!-- account&#45;&gt;system_addresses -->
<g id="edge34" class="edge">
<title>account&#45;&gt;system_addresses</title>
<path fill="none" stroke="black" d="M556.89,-446.74C650.01,-440.84 887.81,-423.45 962,-396 972.94,-391.95 1026.79,-354.89 1062.53,-329.89"/>
<polygon fill="black" stroke="black" points="1064.21,-332.98 1070.39,-324.38 1060.19,-327.25 1064.21,-332.98"/>
</g>
<!-- account&#45;&gt;event -->
<g id="edge40" class="edge">
<title>account&#45;&gt;event</title>
<path fill="none" stroke="black" d="M487.3,-439.49C453.75,-429.29 399.36,-412.34 353,-396 350.13,-394.99 347.17,-393.91 344.2,-392.81"/>
<polygon fill="black" stroke="black" points="345.58,-389.59 334.99,-389.33 343.1,-396.14 345.58,-389.59"/>
</g>
<!-- account&#45;&gt;bcs -->
<g id="edge31" class="edge">
<title>account&#45;&gt;bcs</title>
<path fill="none" stroke="black" d="M519.49,-431.54C520.82,-383.76 524.55,-250.51 526.2,-191.61"/>
<polygon fill="black" stroke="black" points="529.69,-191.84 526.48,-181.74 522.7,-191.64 529.69,-191.84"/>
</g>
<!-- account&#45;&gt;guid -->
<g id="edge38" class="edge">
<title>account&#45;&gt;guid</title>
<path fill="none" stroke="black" d="M484.32,-441.79C456.24,-434.42 417.17,-420.48 391,-396 373.3,-379.44 361.77,-354.22 354.97,-334.85"/>
<polygon fill="black" stroke="black" points="358.32,-333.82 351.89,-325.39 351.66,-335.99 358.32,-333.82"/>
</g>
<!-- table -->
<g id="node18" class="node">
<title>table</title>
<ellipse fill="none" stroke="black" cx="976" cy="-306" rx="27.9" ry="18"/>
<text text-anchor="middle" x="976" y="-302.3" font-family="Times,serif" font-size="14.00">table</text>
</g>
<!-- account&#45;&gt;table -->
<g id="edge33" class="edge">
<title>account&#45;&gt;table</title>
<path fill="none" stroke="black" d="M557.33,-448.7C648.35,-447.27 874.36,-439.34 934,-396 953.76,-381.64 964.55,-355.57 970.22,-335.34"/>
<polygon fill="black" stroke="black" points="973.6,-336.26 972.63,-325.71 966.81,-334.56 973.6,-336.26"/>
</g>
<!-- hash -->
<g id="node19" class="node">
<title>hash</title>
<ellipse fill="none" stroke="black" cx="837" cy="-234" rx="27" ry="18"/>
<text text-anchor="middle" x="837" y="-230.3" font-family="Times,serif" font-size="14.00">hash</text>
</g>
<!-- account&#45;&gt;hash -->
<g id="edge35" class="edge">
<title>account&#45;&gt;hash</title>
<path fill="none" stroke="black" d="M556.22,-445.1C620.18,-436.24 749.93,-408.29 811,-324 823.86,-306.25 830.4,-282.2 833.7,-263.58"/>
<polygon fill="black" stroke="black" points="837.15,-264.15 835.2,-253.74 830.23,-263.09 837.15,-264.15"/>
</g>
<!-- ed25519 -->
<g id="node20" class="node">
<title>ed25519</title>
<ellipse fill="none" stroke="black" cx="699" cy="-306" rx="40.89" ry="18"/>
<text text-anchor="middle" x="699" y="-302.3" font-family="Times,serif" font-size="14.00">ed25519</text>
</g>
<!-- account&#45;&gt;ed25519 -->
<g id="edge36" class="edge">
<title>account&#45;&gt;ed25519</title>
<path fill="none" stroke="black" d="M557.21,-447.65C595.21,-444.15 652.3,-432.63 684,-396 698.2,-379.6 701.43,-354.9 701.4,-335.68"/>
<polygon fill="black" stroke="black" points="704.9,-335.65 701.06,-325.78 697.9,-335.89 704.9,-335.65"/>
</g>
<!-- multi_ed25519 -->
<g id="node21" class="node">
<title>multi_ed25519</title>
<ellipse fill="none" stroke="black" cx="611" cy="-378" rx="64.19" ry="18"/>
<text text-anchor="middle" x="611" y="-374.3" font-family="Times,serif" font-size="14.00">multi_ed25519</text>
</g>
<!-- account&#45;&gt;multi_ed25519 -->
<g id="edge37" class="edge">
<title>account&#45;&gt;multi_ed25519</title>
<path fill="none" stroke="black" d="M538.51,-434.15C550.68,-424.89 566.61,-412.78 580.43,-402.26"/>
<polygon fill="black" stroke="black" points="582.55,-405.05 588.39,-396.21 578.31,-399.48 582.55,-405.05"/>
</g>
<!-- from_bcs -->
<g id="node22" class="node">
<title>from_bcs</title>
<ellipse fill="none" stroke="black" cx="262" cy="-234" rx="44.39" ry="18"/>
<text text-anchor="middle" x="262" y="-230.3" font-family="Times,serif" font-size="14.00">from_bcs</text>
</g>
<!-- account&#45;&gt;from_bcs -->
<g id="edge39" class="edge">
<title>account&#45;&gt;from_bcs</title>
<path fill="none" stroke="black" d="M508.58,-432.39C483.07,-391.79 419.33,-290.62 416,-288 386.38,-264.7 345.86,-251.29 313.82,-243.8"/>
<polygon fill="black" stroke="black" points="314.86,-240.44 304.34,-241.71 313.36,-247.28 314.86,-240.44"/>
</g>
<!-- aggregator_factory&#45;&gt;error -->
<g id="edge41" class="edge">
<title>aggregator_factory&#45;&gt;error</title>
<path fill="none" stroke="black" d="M1155.07,-360.39C1163.36,-350.63 1172.63,-337.58 1177,-324 1181.9,-308.77 1181.84,-303.25 1177,-288 1154.13,-215.91 1094.3,-147.44 1061.07,-113.4"/>
<polygon fill="black" stroke="black" points="1063.83,-111.21 1054.3,-106.58 1058.86,-116.14 1063.83,-111.21"/>
</g>
<!-- aggregator_factory&#45;&gt;system_addresses -->
<g id="edge43" class="edge">
<title>aggregator_factory&#45;&gt;system_addresses</title>
<path fill="none" stroke="black" d="M1128.12,-359.7C1123.22,-351.9 1117.32,-342.51 1111.86,-333.83"/>
<polygon fill="black" stroke="black" points="1114.84,-331.99 1106.56,-325.39 1108.92,-335.71 1114.84,-331.99"/>
</g>
<!-- aggregator_factory&#45;&gt;aggregator -->
<g id="edge44" class="edge">
<title>aggregator_factory&#45;&gt;aggregator</title>
<path fill="none" stroke="black" d="M1169.18,-361.12C1188.72,-350.83 1214.29,-337.37 1235.04,-326.45"/>
<polygon fill="black" stroke="black" points="1236.54,-329.62 1243.76,-321.86 1233.28,-323.42 1236.54,-329.62"/>
</g>
<!-- aggregator_factory&#45;&gt;table -->
<g id="edge42" class="edge">
<title>aggregator_factory&#45;&gt;table</title>
<path fill="none" stroke="black" d="M1101.93,-361.78C1076.75,-351.35 1042.76,-337.09 1013,-324 1011.5,-323.34 1009.98,-322.66 1008.43,-321.97"/>
<polygon fill="black" stroke="black" points="1010.18,-318.93 999.63,-317.99 1007.3,-325.3 1010.18,-318.93"/>
</g>
<!-- optional_aggregator&#45;&gt;error -->
<g id="edge46" class="edge">
<title>optional_aggregator&#45;&gt;error</title>
<path fill="none" stroke="black" d="M1333.36,-432.43C1343.15,-422.69 1354.65,-409.64 1362,-396 1381.44,-359.94 1386,-347.97 1386,-307 1386,-307 1386,-307 1386,-233 1386,-166.58 1165.93,-116 1075.8,-98.07"/>
<polygon fill="black" stroke="black" points="1076.7,-94.68 1066.21,-96.19 1075.36,-101.55 1076.7,-94.68"/>
</g>
<!-- optional_aggregator&#45;&gt;option -->
<g id="edge45" class="edge">
<title>optional_aggregator&#45;&gt;option</title>
<path fill="none" stroke="black" d="M1323.39,-431.82C1337.66,-399.82 1362.07,-330.52 1329,-288 1236.78,-169.44 747.21,-110.66 596.92,-95.22"/>
<polygon fill="black" stroke="black" points="597.68,-91.78 587.38,-94.26 596.97,-98.75 597.68,-91.78"/>
</g>
<!-- optional_aggregator&#45;&gt;aggregator -->
<g id="edge47" class="edge">
<title>optional_aggregator&#45;&gt;aggregator</title>
<path fill="none" stroke="black" d="M1309.73,-431.59C1302.43,-407.5 1289.19,-363.75 1280.49,-335.03"/>
<polygon fill="black" stroke="black" points="1283.87,-334.12 1277.62,-325.56 1277.17,-336.14 1283.87,-334.12"/>
</g>
<!-- optional_aggregator&#45;&gt;aggregator_factory -->
<g id="edge48" class="edge">
<title>optional_aggregator&#45;&gt;aggregator_factory</title>
<path fill="none" stroke="black" d="M1276.81,-433.81C1250.54,-423.36 1215.45,-409.41 1187.25,-398.19"/>
<polygon fill="black" stroke="black" points="1188.8,-395.04 1178.22,-394.6 1186.22,-401.55 1188.8,-395.04"/>
</g>
<!-- features&#45;&gt;signer -->
<g id="edge49" class="edge">
<title>features&#45;&gt;signer</title>
<path fill="none" stroke="black" d="M372.5,-152.97C318.57,-140.04 212.68,-114.66 154.56,-100.72"/>
<polygon fill="black" stroke="black" points="155.62,-97.38 145.08,-98.45 153.99,-104.18 155.62,-97.38"/>
</g>
<!-- features&#45;&gt;error -->
<g id="edge50" class="edge">
<title>features&#45;&gt;error</title>
<path fill="none" stroke="black" d="M435.39,-150.12C442.69,-147.77 450.56,-145.54 458,-144 658.38,-102.64 904.35,-93.55 998.65,-91.56"/>
<polygon fill="black" stroke="black" points="998.46,-95.06 1008.39,-91.37 998.33,-88.06 998.46,-95.06"/>
</g>
<!-- ed25519&#45;&gt;error -->
<g id="edge52" class="edge">
<title>ed25519&#45;&gt;error</title>
<path fill="none" stroke="black" d="M714.99,-288.94C734.29,-270.06 768.25,-238.47 801,-216 869.5,-169 957.77,-126.74 1004.88,-105.48"/>
<polygon fill="black" stroke="black" points="1006.04,-108.8 1013.74,-101.52 1003.18,-102.41 1006.04,-108.8"/>
</g>
<!-- ed25519&#45;&gt;option -->
<g id="edge51" class="edge">
<title>ed25519&#45;&gt;option</title>
<path fill="none" stroke="black" d="M697.08,-287.57C692.77,-255.78 679.75,-187.64 644,-144 629.96,-126.86 608.81,-114.07 590.44,-105.35"/>
<polygon fill="black" stroke="black" points="591.95,-102.19 581.4,-101.3 589.09,-108.58 591.95,-102.19"/>
</g>
<!-- ed25519&#45;&gt;type_info -->
<g id="edge54" class="edge">
<title>ed25519&#45;&gt;type_info</title>
<path fill="none" stroke="black" d="M663.66,-296.56C611.32,-284.05 513.08,-260.58 454.19,-246.51"/>
<polygon fill="black" stroke="black" points="455.33,-243.19 444.79,-244.27 453.7,-249.99 455.33,-243.19"/>
</g>
<!-- ed25519&#45;&gt;bcs -->
<g id="edge53" class="edge">
<title>ed25519&#45;&gt;bcs</title>
<path fill="none" stroke="black" d="M683.96,-289.02C666.17,-270.5 635.26,-239.53 606,-216 590.16,-203.27 571.3,-190.53 555.98,-180.73"/>
<polygon fill="black" stroke="black" points="558.09,-177.93 547.77,-175.56 554.36,-183.85 558.09,-177.93"/>
</g>
<!-- ed25519&#45;&gt;hash -->
<g id="edge55" class="edge">
<title>ed25519&#45;&gt;hash</title>
<path fill="none" stroke="black" d="M724.96,-291.83C747.94,-280.17 781.55,-263.13 805.95,-250.75"/>
<polygon fill="black" stroke="black" points="807.43,-253.92 814.77,-246.28 804.27,-247.68 807.43,-253.92"/>
</g>
<!-- multi_ed25519&#45;&gt;error -->
<g id="edge57" class="edge">
<title>multi_ed25519&#45;&gt;error</title>
<path fill="none" stroke="black" d="M662.55,-367.01C690.88,-359.3 725.03,-346.08 749,-324 788.18,-287.91 764.03,-254.35 801,-216 858.78,-156.06 951.6,-118.84 1002.23,-101.86"/>
<polygon fill="black" stroke="black" points="1003.1,-105.26 1011.52,-98.83 1000.93,-98.61 1003.1,-105.26"/>
</g>
<!-- multi_ed25519&#45;&gt;option -->
<g id="edge56" class="edge">
<title>multi_ed25519&#45;&gt;option</title>
<path fill="none" stroke="black" d="M613.1,-359.83C614.91,-341.83 616.69,-312.76 613,-288 603.74,-225.83 578.9,-156.14 564.25,-118.58"/>
<polygon fill="black" stroke="black" points="567.55,-117.41 560.61,-109.4 561.04,-119.99 567.55,-117.41"/>
</g>
<!-- multi_ed25519&#45;&gt;features -->
<g id="edge58" class="edge">
<title>multi_ed25519&#45;&gt;features</title>
<path fill="none" stroke="black" d="M595.62,-360.4C568.35,-331.03 509.63,-268.11 459,-216 449.56,-206.28 439.03,-195.7 429.86,-186.57"/>
<polygon fill="black" stroke="black" points="432.52,-184.28 422.96,-179.72 427.59,-189.25 432.52,-184.28"/>
</g>
<!-- multi_ed25519&#45;&gt;bcs -->
<g id="edge59" class="edge">
<title>multi_ed25519&#45;&gt;bcs</title>
<path fill="none" stroke="black" d="M608.69,-359.76C604.14,-329.4 592.26,-265 568,-216 562.79,-205.48 555.31,-195.01 548.17,-186.2"/>
<polygon fill="black" stroke="black" points="551.06,-184.2 541.93,-178.83 545.72,-188.72 551.06,-184.2"/>
</g>
<!-- multi_ed25519&#45;&gt;hash -->
<g id="edge60" class="edge">
<title>multi_ed25519&#45;&gt;hash</title>
<path fill="none" stroke="black" d="M668.46,-369.66C704.1,-362.73 749.19,-349.4 782,-324 802.5,-308.12 817.24,-282.27 826.27,-262.51"/>
<polygon fill="black" stroke="black" points="829.47,-263.94 830.22,-253.37 823.04,-261.17 829.47,-263.94"/>
</g>
<!-- multi_ed25519&#45;&gt;ed25519 -->
<g id="edge61" class="edge">
<title>multi_ed25519&#45;&gt;ed25519</title>
<path fill="none" stroke="black" d="M631.41,-360.76C643.18,-351.4 658.14,-339.5 670.99,-329.28"/>
<polygon fill="black" stroke="black" points="673.07,-332.1 678.72,-323.13 668.72,-326.62 673.07,-332.1"/>
</g>
<!-- from_bcs&#45;&gt;string -->
<g id="edge62" class="edge">
<title>from_bcs&#45;&gt;string</title>
<path fill="none" stroke="black" d="M263.48,-215.7C264.11,-208.41 264.85,-199.73 265.55,-191.54"/>
<polygon fill="black" stroke="black" points="269.04,-191.87 266.4,-181.61 262.06,-191.28 269.04,-191.87"/>
</g>
</g>
</svg>
