<?xml version="1.0" encoding="UTF-8" standalone="no"?>
<!DOCTYPE svg PUBLIC "-//W3C//DTD SVG 1.1//EN"
 "http://www.w3.org/Graphics/SVG/1.1/DTD/svg11.dtd">
<!-- Generated by graphviz version 7.0.4 (20221203.1631)
 -->
<!-- Title: G Pages: 1 -->
<svg width="1440pt" height="459pt"
 viewBox="0.00 0.00 1440.00 459.00" xmlns="http://www.w3.org/2000/svg" xmlns:xlink="http://www.w3.org/1999/xlink">
<g id="graph0" class="graph" transform="scale(1 1) rotate(0) translate(4 455)">
<title>G</title>
<polygon fill="white" stroke="none" points="-4,4 -4,-455 1436,-455 1436,4 -4,4"/>
<g id="clust5" class="cluster">
<title>cluster_optional_aggregator</title>
<polygon fill="none" stroke="black" points="728,-174 728,-332 853,-332 853,-174 728,-174"/>
<text text-anchor="middle" x="790.5" y="-316.8" font-family="Times,serif" font-size="14.00">optional_aggregator</text>
</g>
<g id="clust1" class="cluster">
<title>cluster_signer</title>
<polygon fill="none" stroke="black" points="8,-174 8,-332 158,-332 158,-174 8,-174"/>
<text text-anchor="middle" x="83" y="-316.8" font-family="Times,serif" font-size="14.00">signer</text>
</g>
<g id="clust2" class="cluster">
<title>cluster_error</title>
<polygon fill="none" stroke="black" points="303,-8 303,-166 884,-166 884,-8 303,-8"/>
<text text-anchor="middle" x="593.5" y="-150.8" font-family="Times,serif" font-size="14.00">error</text>
</g>
<g id="clust3" class="cluster">
<title>cluster_coin</title>
<polygon fill="none" stroke="black" points="166,-257 166,-407 574,-407 574,-257 166,-257"/>
<text text-anchor="middle" x="370" y="-391.8" font-family="Times,serif" font-size="14.00">coin</text>
</g>
<g id="clust4" class="cluster">
<title>cluster_option</title>
<polygon fill="none" stroke="black" points="968,-91 968,-249 1094,-249 1094,-91 968,-91"/>
<text text-anchor="middle" x="1031" y="-233.8" font-family="Times,serif" font-size="14.00">option</text>
</g>
<g id="clust6" class="cluster">
<title>cluster_event</title>
<polygon fill="none" stroke="black" points="1134,-174 1134,-332 1320,-332 1320,-174 1134,-174"/>
<text text-anchor="middle" x="1227" y="-316.8" font-family="Times,serif" font-size="14.00">event</text>
</g>
<g id="clust7" class="cluster">
<title>cluster_vector</title>
<polygon fill="none" stroke="black" points="979,-8 979,-83 1083,-83 1083,-8 979,-8"/>
<text text-anchor="middle" x="1031" y="-67.8" font-family="Times,serif" font-size="14.00">vector</text>
</g>
<g id="clust8" class="cluster">
<title>cluster_aggregator</title>
<polygon fill="none" stroke="black" points="886,-174 886,-249 960,-249 960,-174 886,-174"/>
<text text-anchor="middle" x="923" y="-233.8" font-family="Times,serif" font-size="14.00">aggregator</text>
</g>
<g id="clust9" class="cluster">
<title>cluster_type_info</title>
<polygon fill="none" stroke="black" points="242,-174 242,-249 490,-249 490,-174 242,-174"/>
<text text-anchor="middle" x="366" y="-233.8" font-family="Times,serif" font-size="14.00">type_info</text>
</g>
<g id="clust10" class="cluster">
<title>cluster_bcs</title>
<polygon fill="none" stroke="black" points="1328,-174 1328,-249 1424,-249 1424,-174 1328,-174"/>
<text text-anchor="middle" x="1376" y="-233.8" font-family="Times,serif" font-size="14.00">bcs</text>
</g>
<!-- burn -->
<g id="node1" class="node">
<title>burn</title>
<ellipse fill="none" stroke="black" cx="494" cy="-433" rx="27" ry="18"/>
<text text-anchor="middle" x="494" y="-429.3" font-family="Times,serif" font-size="14.00">burn</text>
</g>
<!-- signer::address_of -->
<g id="node2" class="node">
<title>signer::address_of</title>
<ellipse fill="none" stroke="black" cx="101" cy="-283" rx="48.99" ry="18"/>
<text text-anchor="middle" x="101" y="-279.3" font-family="Times,serif" font-size="14.00">address_of</text>
</g>
<!-- burn&#45;&gt;signer::address_of -->
<g id="edge1" class="edge">
<title>burn&#45;&gt;signer::address_of</title>
<path fill="none" stroke="black" d="M466.8,-431.48C391.99,-429.84 187.02,-423.85 162,-407 129.86,-385.35 113.94,-341.58 106.6,-312.53"/>
<polygon fill="black" stroke="black" points="110.04,-311.88 104.38,-302.93 103.22,-313.46 110.04,-311.88"/>
</g>
<!-- error::not_found -->
<g id="node3" class="node">
<title>error::not_found</title>
<ellipse fill="none" stroke="black" cx="695" cy="-117" rx="46.59" ry="18"/>
<text text-anchor="middle" x="695" y="-113.3" font-family="Times,serif" font-size="14.00">not_found</text>
</g>
<!-- burn&#45;&gt;error::not_found -->
<g id="edge2" class="edge">
<title>burn&#45;&gt;error::not_found</title>
<path fill="none" stroke="black" d="M520.46,-428.5C538,-425.18 560.86,-418.86 578,-407 612.43,-383.18 616.35,-369.49 635,-332 665.97,-269.74 683.07,-189.09 690.48,-146.79"/>
<polygon fill="black" stroke="black" points="693.93,-147.38 692.14,-136.94 687.03,-146.21 693.93,-147.38"/>
</g>
<!-- coin::burn -->
<g id="node4" class="node">
<title>coin::burn</title>
<ellipse fill="none" stroke="black" cx="539" cy="-358" rx="27" ry="18"/>
<text text-anchor="middle" x="539" y="-354.3" font-family="Times,serif" font-size="14.00">burn</text>
</g>
<!-- burn&#45;&gt;coin::burn -->
<g id="edge3" class="edge">
<title>burn&#45;&gt;coin::burn</title>
<path fill="none" stroke="black" d="M503.99,-415.8C509.58,-406.73 516.69,-395.2 523.03,-384.9"/>
<polygon fill="black" stroke="black" points="525.98,-386.79 528.25,-376.44 520.02,-383.12 525.98,-386.79"/>
</g>
<!-- coin::withdraw -->
<g id="node5" class="node">
<title>coin::withdraw</title>
<ellipse fill="none" stroke="black" cx="450" cy="-358" rx="44.39" ry="18"/>
<text text-anchor="middle" x="450" y="-354.3" font-family="Times,serif" font-size="14.00">withdraw</text>
</g>
<!-- burn&#45;&gt;coin::withdraw -->
<g id="edge4" class="edge">
<title>burn&#45;&gt;coin::withdraw</title>
<path fill="none" stroke="black" d="M484.23,-415.8C478.88,-406.91 472.11,-395.68 466,-385.55"/>
<polygon fill="black" stroke="black" points="469.14,-383.97 460.98,-377.21 463.14,-387.58 469.14,-383.97"/>
</g>
<!-- signer::borrow_address -->
<g id="node6" class="node">
<title>signer::borrow_address</title>
<ellipse fill="none" stroke="black" cx="83" cy="-200" rx="66.89" ry="18"/>
<text text-anchor="middle" x="83" y="-196.3" font-family="Times,serif" font-size="14.00">borrow_address</text>
</g>
<!-- signer::address_of&#45;&gt;signer::borrow_address -->
<g id="edge5" class="edge">
<title>signer::address_of&#45;&gt;signer::borrow_address</title>
<path fill="none" stroke="black" d="M97.18,-264.82C94.91,-254.58 91.96,-241.33 89.34,-229.55"/>
<polygon fill="black" stroke="black" points="92.79,-228.91 87.2,-219.91 85.95,-230.43 92.79,-228.91"/>
</g>
<!-- error::canonical -->
<g id="node7" class="node">
<title>error::canonical</title>
<ellipse fill="none" stroke="black" cx="626" cy="-34" rx="44.39" ry="18"/>
<text text-anchor="middle" x="626" y="-30.3" font-family="Times,serif" font-size="14.00">canonical</text>
</g>
<!-- error::not_found&#45;&gt;error::canonical -->
<g id="edge6" class="edge">
<title>error::not_found&#45;&gt;error::canonical</title>
<path fill="none" stroke="black" d="M681.04,-99.61C671.31,-88.19 658.16,-72.75 647.15,-59.83"/>
<polygon fill="black" stroke="black" points="650.07,-57.86 640.92,-52.52 644.74,-62.4 650.07,-57.86"/>
</g>
<!-- option::borrow_mut -->
<g id="node8" class="node">
<title>option::borrow_mut</title>
<ellipse fill="none" stroke="black" cx="1031" cy="-200" rx="54.69" ry="18"/>
<text text-anchor="middle" x="1031" y="-196.3" font-family="Times,serif" font-size="14.00">borrow_mut</text>
</g>
<!-- coin::burn&#45;&gt;option::borrow_mut -->
<g id="edge7" class="edge">
<title>coin::burn&#45;&gt;option::borrow_mut</title>
<path fill="none" stroke="black" d="M566,-356.81C632.77,-356.02 804.04,-352.05 857,-332 918.42,-308.75 976.58,-256.75 1007.64,-225.72"/>
<polygon fill="black" stroke="black" points="1010.09,-228.22 1014.6,-218.64 1005.1,-223.31 1010.09,-228.22"/>
</g>
<!-- option::is_some -->
<g id="node9" class="node">
<title>option::is_some</title>
<ellipse fill="none" stroke="black" cx="1031" cy="-117" rx="40.09" ry="18"/>
<text text-anchor="middle" x="1031" y="-113.3" font-family="Times,serif" font-size="14.00">is_some</text>
</g>
<!-- coin::burn&#45;&gt;option::is_some -->
<g id="edge8" class="edge">
<title>coin::burn&#45;&gt;option::is_some</title>
<path fill="none" stroke="black" d="M566.41,-356.66C643.41,-355.46 860.47,-350.51 929,-332 1008.63,-310.49 1051.63,-319.17 1095,-249 1112.52,-220.64 1108.77,-204.35 1095,-174 1088.49,-159.64 1076.27,-147.52 1064.24,-138.27"/>
<polygon fill="black" stroke="black" points="1066.58,-135.63 1056.41,-132.64 1062.49,-141.32 1066.58,-135.63"/>
</g>
<!-- error::invalid_argument -->
<g id="node10" class="node">
<title>error::invalid_argument</title>
<ellipse fill="none" stroke="black" cx="557" cy="-117" rx="73.39" ry="18"/>
<text text-anchor="middle" x="557" y="-113.3" font-family="Times,serif" font-size="14.00">invalid_argument</text>
</g>
<!-- coin::burn&#45;&gt;error::invalid_argument -->
<g id="edge9" class="edge">
<title>coin::burn&#45;&gt;error::invalid_argument</title>
<path fill="none" stroke="black" d="M565.78,-354.65C580.84,-351.8 598.49,-345.56 608,-332 648.32,-274.51 633.35,-239.49 608,-174 603.43,-162.2 595.09,-151.35 586.46,-142.42"/>
<polygon fill="black" stroke="black" points="588.92,-139.93 579.3,-135.51 584.07,-144.97 588.92,-139.93"/>
</g>
<!-- optional_aggregator::sub -->
<g id="node11" class="node">
<title>optional_aggregator::sub</title>
<ellipse fill="none" stroke="black" cx="818" cy="-283" rx="27" ry="18"/>
<text text-anchor="middle" x="818" y="-279.3" font-family="Times,serif" font-size="14.00">sub</text>
</g>
<!-- coin::burn&#45;&gt;optional_aggregator::sub -->
<g id="edge10" class="edge">
<title>coin::burn&#45;&gt;optional_aggregator::sub</title>
<path fill="none" stroke="black" d="M565.76,-353.8C595.08,-349.97 643.36,-342.7 684,-332 719.29,-322.71 758.45,-308.17 785.27,-297.52"/>
<polygon fill="black" stroke="black" points="786.24,-300.91 794.21,-293.93 783.63,-294.41 786.24,-300.91"/>
</g>
<!-- coin::coin_address -->
<g id="node12" class="node">
<title>coin::coin_address</title>
<ellipse fill="none" stroke="black" cx="423" cy="-283" rx="56.59" ry="18"/>
<text text-anchor="middle" x="423" y="-279.3" font-family="Times,serif" font-size="14.00">coin_address</text>
</g>
<!-- coin::burn&#45;&gt;coin::coin_address -->
<g id="edge11" class="edge">
<title>coin::burn&#45;&gt;coin::coin_address</title>
<path fill="none" stroke="black" d="M517.17,-347.05C508.25,-342.74 497.96,-337.44 489,-332 476.61,-324.47 463.58,-315.29 452.4,-306.98"/>
<polygon fill="black" stroke="black" points="454.79,-304.4 444.7,-301.17 450.58,-309.99 454.79,-304.4"/>
</g>
<!-- coin::withdraw&#45;&gt;signer::address_of -->
<g id="edge12" class="edge">
<title>coin::withdraw&#45;&gt;signer::address_of</title>
<path fill="none" stroke="black" d="M405.51,-356.23C335.99,-354.51 205.11,-349.05 162,-332 148.29,-326.58 135.16,-317.03 124.62,-307.87"/>
<polygon fill="black" stroke="black" points="127.27,-305.55 117.53,-301.38 122.55,-310.71 127.27,-305.55"/>
</g>
<!-- coin::withdraw&#45;&gt;error::not_found -->
<g id="edge13" class="edge">
<title>coin::withdraw&#45;&gt;error::not_found</title>
<path fill="none" stroke="black" d="M482.49,-345.31C489.2,-343.26 496.27,-341.35 503,-340 523.34,-335.92 579.02,-343.91 596,-332 658.74,-288 682.66,-193.91 690.99,-146.52"/>
<polygon fill="black" stroke="black" points="694.42,-147.2 692.58,-136.77 687.51,-146.07 694.42,-147.2"/>
</g>
<!-- error::permission_denied -->
<g id="node13" class="node">
<title>error::permission_denied</title>
<ellipse fill="none" stroke="black" cx="388" cy="-117" rx="77.19" ry="18"/>
<text text-anchor="middle" x="388" y="-113.3" font-family="Times,serif" font-size="14.00">permission_denied</text>
</g>
<!-- coin::withdraw&#45;&gt;error::permission_denied -->
<g id="edge14" class="edge">
<title>coin::withdraw&#45;&gt;error::permission_denied</title>
<path fill="none" stroke="black" d="M482.52,-345.44C489.23,-343.38 496.29,-341.43 503,-340 518.74,-336.64 564.26,-344 575,-332 597.23,-307.16 587.57,-287.87 575,-257 555.57,-209.26 536.6,-203.02 494,-174 486.43,-168.84 483.24,-170 475,-166 458.32,-157.91 440.31,-148.16 425.03,-139.56"/>
<polygon fill="black" stroke="black" points="427.17,-136.75 416.74,-134.85 423.71,-142.83 427.17,-136.75"/>
</g>
<!-- event::emit_event -->
<g id="node14" class="node">
<title>event::emit_event</title>
<ellipse fill="none" stroke="black" cx="1227" cy="-283" rx="50.09" ry="18"/>
<text text-anchor="middle" x="1227" y="-279.3" font-family="Times,serif" font-size="14.00">emit_event</text>
</g>
<!-- coin::withdraw&#45;&gt;event::emit_event -->
<g id="edge15" class="edge">
<title>coin::withdraw&#45;&gt;event::emit_event</title>
<path fill="none" stroke="black" d="M481.86,-345.15C488.74,-343.05 496.04,-341.17 503,-340 580.6,-326.96 778.54,-337.96 857,-332 968.89,-323.5 1098.78,-304.53 1171.07,-293.14"/>
<polygon fill="black" stroke="black" points="1171.34,-296.64 1180.67,-291.62 1170.24,-289.73 1171.34,-296.64"/>
</g>
<!-- coin::extract -->
<g id="node15" class="node">
<title>coin::extract</title>
<ellipse fill="none" stroke="black" cx="532" cy="-283" rx="34.39" ry="18"/>
<text text-anchor="middle" x="532" y="-279.3" font-family="Times,serif" font-size="14.00">extract</text>
</g>
<!-- coin::withdraw&#45;&gt;coin::extract -->
<g id="edge16" class="edge">
<title>coin::withdraw&#45;&gt;coin::extract</title>
<path fill="none" stroke="black" d="M474.65,-342.64C479.58,-339.37 484.59,-335.75 489,-332 497.17,-325.05 505.25,-316.56 512.17,-308.68"/>
<polygon fill="black" stroke="black" points="514.64,-311.18 518.44,-301.29 509.3,-306.65 514.64,-311.18"/>
</g>
<!-- coin::is_account_registered -->
<g id="node16" class="node">
<title>coin::is_account_registered</title>
<ellipse fill="none" stroke="black" cx="261" cy="-283" rx="87.18" ry="18"/>
<text text-anchor="middle" x="261" y="-279.3" font-family="Times,serif" font-size="14.00">is_account_registered</text>
</g>
<!-- coin::withdraw&#45;&gt;coin::is_account_registered -->
<g id="edge17" class="edge">
<title>coin::withdraw&#45;&gt;coin::is_account_registered</title>
<path fill="none" stroke="black" d="M411.9,-348.59C394.85,-344.37 374.66,-338.71 357,-332 337.49,-324.59 316.67,-314.47 299.43,-305.44"/>
<polygon fill="black" stroke="black" points="301.53,-302.59 291.06,-300.98 298.24,-308.77 301.53,-302.59"/>
</g>
<!-- option::borrow_mut&#45;&gt;option::is_some -->
<g id="edge18" class="edge">
<title>option::borrow_mut&#45;&gt;option::is_some</title>
<path fill="none" stroke="black" d="M1031,-181.82C1031,-171.69 1031,-158.6 1031,-146.92"/>
<polygon fill="black" stroke="black" points="1034.5,-146.95 1031,-136.95 1027.5,-146.95 1034.5,-146.95"/>
</g>
<!-- vector::is_empty -->
<g id="node17" class="node">
<title>vector::is_empty</title>
<ellipse fill="none" stroke="black" cx="1031" cy="-34" rx="43.59" ry="18"/>
<text text-anchor="middle" x="1031" y="-30.3" font-family="Times,serif" font-size="14.00">is_empty</text>
</g>
<!-- option::is_some&#45;&gt;vector::is_empty -->
<g id="edge19" class="edge">
<title>option::is_some&#45;&gt;vector::is_empty</title>
<path fill="none" stroke="black" d="M1031,-98.82C1031,-88.69 1031,-75.6 1031,-63.92"/>
<polygon fill="black" stroke="black" points="1034.5,-63.95 1031,-53.95 1027.5,-63.95 1034.5,-63.95"/>
</g>
<!-- error::invalid_argument&#45;&gt;error::canonical -->
<g id="edge20" class="edge">
<title>error::invalid_argument&#45;&gt;error::canonical</title>
<path fill="none" stroke="black" d="M571.3,-99.22C580.89,-87.96 593.7,-72.92 604.51,-60.22"/>
<polygon fill="black" stroke="black" points="607.16,-62.52 610.98,-52.64 601.83,-57.98 607.16,-62.52"/>
</g>
<!-- optional_aggregator::sub&#45;&gt;option::borrow_mut -->
<g id="edge21" class="edge">
<title>optional_aggregator::sub&#45;&gt;option::borrow_mut</title>
<path fill="none" stroke="black" d="M843.56,-276.8C882.44,-268.8 953.09,-253.9 964,-249 978.11,-242.66 992.25,-233.12 1003.88,-224.21"/>
<polygon fill="black" stroke="black" points="1005.78,-227.17 1011.44,-218.21 1001.43,-221.69 1005.78,-227.17"/>
</g>
<!-- optional_aggregator::sub&#45;&gt;option::is_some -->
<g id="edge22" class="edge">
<title>optional_aggregator::sub&#45;&gt;option::is_some</title>
<path fill="none" stroke="black" d="M833.36,-267.8C838.76,-262.28 844.58,-255.69 849,-249 869.09,-218.63 855.55,-199.03 882,-174 909.56,-147.92 950.42,-133.7 982.39,-126.13"/>
<polygon fill="black" stroke="black" points="982.8,-129.62 991.81,-124.05 981.29,-122.79 982.8,-129.62"/>
</g>
<!-- aggregator::sub -->
<g id="node18" class="node">
<title>aggregator::sub</title>
<ellipse fill="none" stroke="black" cx="923" cy="-200" rx="27" ry="18"/>
<text text-anchor="middle" x="923" y="-196.3" font-family="Times,serif" font-size="14.00">sub</text>
</g>
<!-- optional_aggregator::sub&#45;&gt;aggregator::sub -->
<g id="edge23" class="edge">
<title>optional_aggregator::sub&#45;&gt;aggregator::sub</title>
<path fill="none" stroke="black" d="M840.9,-272.82C853.71,-267.06 869.56,-258.86 882,-249 890.49,-242.28 898.53,-233.59 905.21,-225.46"/>
<polygon fill="black" stroke="black" points="907.77,-227.87 911.19,-217.84 902.26,-223.55 907.77,-227.87"/>
</g>
<!-- optional_aggregator::sub_integer -->
<g id="node19" class="node">
<title>optional_aggregator::sub_integer</title>
<ellipse fill="none" stroke="black" cx="788" cy="-200" rx="51.99" ry="18"/>
<text text-anchor="middle" x="788" y="-196.3" font-family="Times,serif" font-size="14.00">sub_integer</text>
</g>
<!-- optional_aggregator::sub&#45;&gt;optional_aggregator::sub_integer -->
<g id="edge24" class="edge">
<title>optional_aggregator::sub&#45;&gt;optional_aggregator::sub_integer</title>
<path fill="none" stroke="black" d="M811.78,-265.22C807.89,-254.72 802.79,-240.93 798.3,-228.82"/>
<polygon fill="black" stroke="black" points="801.7,-227.9 794.94,-219.74 795.13,-230.33 801.7,-227.9"/>
</g>
<!-- type_info::account_address -->
<g id="node20" class="node">
<title>type_info::account_address</title>
<ellipse fill="none" stroke="black" cx="319" cy="-200" rx="68.79" ry="18"/>
<text text-anchor="middle" x="319" y="-196.3" font-family="Times,serif" font-size="14.00">account_address</text>
</g>
<!-- coin::coin_address&#45;&gt;type_info::account_address -->
<g id="edge25" class="edge">
<title>coin::coin_address&#45;&gt;type_info::account_address</title>
<path fill="none" stroke="black" d="M402.45,-266C387.27,-254.17 366.35,-237.88 349.26,-224.57"/>
<polygon fill="black" stroke="black" points="351.45,-221.84 341.41,-218.46 347.15,-227.36 351.45,-221.84"/>
</g>
<!-- type_info::type_of -->
<g id="node21" class="node">
<title>type_info::type_of</title>
<ellipse fill="none" stroke="black" cx="444" cy="-200" rx="37.89" ry="18"/>
<text text-anchor="middle" x="444" y="-196.3" font-family="Times,serif" font-size="14.00">type_of</text>
</g>
<!-- coin::coin_address&#45;&gt;type_info::type_of -->
<g id="edge26" class="edge">
<title>coin::coin_address&#45;&gt;type_info::type_of</title>
<path fill="none" stroke="black" d="M427.45,-264.82C430.15,-254.41 433.66,-240.87 436.76,-228.94"/>
<polygon fill="black" stroke="black" points="440.05,-230.18 439.17,-219.62 433.28,-228.42 440.05,-230.18"/>
</g>
<!-- error::permission_denied&#45;&gt;error::canonical -->
<g id="edge27" class="edge">
<title>error::permission_denied&#45;&gt;error::canonical</title>
<path fill="none" stroke="black" d="M430.28,-101.61C473.04,-87.06 538.84,-64.66 582.16,-49.92"/>
<polygon fill="black" stroke="black" points="583.16,-53.28 591.5,-46.74 580.9,-46.65 583.16,-53.28"/>
</g>
<!-- bcs::to_bytes -->
<g id="node22" class="node">
<title>bcs::to_bytes</title>
<ellipse fill="none" stroke="black" cx="1376" cy="-200" rx="40.09" ry="18"/>
<text text-anchor="middle" x="1376" y="-196.3" font-family="Times,serif" font-size="14.00">to_bytes</text>
</g>
<!-- event::emit_event&#45;&gt;bcs::to_bytes -->
<g id="edge28" class="edge">
<title>event::emit_event&#45;&gt;bcs::to_bytes</title>
<path fill="none" stroke="black" d="M1267.82,-272.23C1285.8,-266.91 1306.73,-259.28 1324,-249 1334.77,-242.59 1345.21,-233.67 1353.88,-225.26"/>
<polygon fill="black" stroke="black" points="1356.31,-227.78 1360.84,-218.2 1351.32,-222.86 1356.31,-227.78"/>
</g>
<!-- event::write_to_event_store -->
<g id="node23" class="node">
<title>event::write_to_event_store</title>
<ellipse fill="none" stroke="black" cx="1227" cy="-200" rx="85.29" ry="18"/>
<text text-anchor="middle" x="1227" y="-196.3" font-family="Times,serif" font-size="14.00">write_to_event_store</text>
</g>
<!-- event::emit_event&#45;&gt;event::write_to_event_store -->
<g id="edge29" class="edge">
<title>event::emit_event&#45;&gt;event::write_to_event_store</title>
<path fill="none" stroke="black" d="M1227,-264.82C1227,-254.69 1227,-241.6 1227,-229.92"/>
<polygon fill="black" stroke="black" points="1230.5,-229.95 1227,-219.95 1223.5,-229.95 1230.5,-229.95"/>
</g>
<!-- coin::extract&#45;&gt;error::invalid_argument -->
<g id="edge30" class="edge">
<title>coin::extract&#45;&gt;error::invalid_argument</title>
<path fill="none" stroke="black" d="M534.63,-264.76C538.93,-236.51 547.53,-180.11 552.72,-146.04"/>
<polygon fill="black" stroke="black" points="556.13,-146.92 554.18,-136.51 549.21,-145.86 556.13,-146.92"/>
</g>
<!-- error::out_of_range -->
<g id="node24" class="node">
<title>error::out_of_range</title>
<ellipse fill="none" stroke="black" cx="818" cy="-117" rx="57.69" ry="18"/>
<text text-anchor="middle" x="818" y="-113.3" font-family="Times,serif" font-size="14.00">out_of_range</text>
</g>
<!-- optional_aggregator::sub_integer&#45;&gt;error::out_of_range -->
<g id="edge31" class="edge">
<title>optional_aggregator::sub_integer&#45;&gt;error::out_of_range</title>
<path fill="none" stroke="black" d="M794.36,-181.82C798.22,-171.41 803.23,-157.87 807.65,-145.94"/>
<polygon fill="black" stroke="black" points="810.93,-147.17 811.12,-136.57 804.37,-144.73 810.93,-147.17"/>
</g>
<!-- error::out_of_range&#45;&gt;error::canonical -->
<g id="edge32" class="edge">
<title>error::out_of_range&#45;&gt;error::canonical</title>
<path fill="none" stroke="black" d="M784.56,-101.89C751.65,-88.01 701.36,-66.79 666.27,-51.99"/>
<polygon fill="black" stroke="black" points="667.88,-48.87 657.3,-48.21 665.16,-55.32 667.88,-48.87"/>
</g>
</g>
</svg>
