<?xml version="1.0" encoding="UTF-8" standalone="no"?>
<!DOCTYPE svg PUBLIC "-//W3C//DTD SVG 1.1//EN"
 "http://www.w3.org/Graphics/SVG/1.1/DTD/svg11.dtd">
<!-- Generated by graphviz version 7.0.4 (20221203.1631)
 -->
<!-- Title: G Pages: 1 -->
<svg width="1406pt" height="520pt"
 viewBox="0.00 0.00 1406.00 520.00" xmlns="http://www.w3.org/2000/svg" xmlns:xlink="http://www.w3.org/1999/xlink">
<g id="graph0" class="graph" transform="scale(1 1) rotate(0) translate(4 516)">
<title>G</title>
<polygon fill="white" stroke="none" points="-4,4 -4,-516 1402,-516 1402,4 -4,4"/>
<g id="clust1" class="cluster">
<title>cluster_string</title>
<polygon fill="none" stroke="black" points="8,-163 8,-321 186,-321 186,-163 8,-163"/>
<text text-anchor="middle" x="97" y="-305.8" font-family="Times,serif" font-size="14.00">string</text>
</g>
<g id="clust2" class="cluster">
<title>cluster_coin</title>
<polygon fill="none" stroke="black" points="345,-246 345,-468 507,-468 507,-246 345,-246"/>
<text text-anchor="middle" x="426" y="-452.8" font-family="Times,serif" font-size="14.00">coin</text>
</g>
<g id="clust3" class="cluster">
<title>cluster_option</title>
<polygon fill="none" stroke="black" points="450,-163 450,-238 600,-238 600,-163 450,-163"/>
<text text-anchor="middle" x="525" y="-222.8" font-family="Times,serif" font-size="14.00">option</text>
</g>
<g id="clust4" class="cluster">
<title>cluster_signer</title>
<polygon fill="none" stroke="black" points="1045,-163 1045,-321 1195,-321 1195,-163 1045,-163"/>
<text text-anchor="middle" x="1120" y="-305.8" font-family="Times,serif" font-size="14.00">signer</text>
</g>
<g id="clust5" class="cluster">
<title>cluster_error</title>
<polygon fill="none" stroke="black" points="975,-8 975,-155 1390,-155 1390,-8 975,-8"/>
<text text-anchor="middle" x="1182.5" y="-139.8" font-family="Times,serif" font-size="14.00">error</text>
</g>
<g id="clust7" class="cluster">
<title>cluster_vector</title>
<polygon fill="none" stroke="black" points="511,-80 511,-155 613,-155 613,-80 511,-80"/>
<text text-anchor="middle" x="562" y="-139.8" font-family="Times,serif" font-size="14.00">vector</text>
</g>
<g id="clust9" class="cluster">
<title>cluster_type_info</title>
<polygon fill="none" stroke="black" points="194,-163 194,-238 442,-238 442,-163 194,-163"/>
<text text-anchor="middle" x="318" y="-222.8" font-family="Times,serif" font-size="14.00">type_info</text>
</g>
<g id="clust6" class="cluster">
<title>cluster_optional_aggregator</title>
<polygon fill="none" stroke="black" points="608,-163 608,-321 733,-321 733,-163 608,-163"/>
<text text-anchor="middle" x="670.5" y="-305.8" font-family="Times,serif" font-size="14.00">optional_aggregator</text>
</g>
<g id="clust8" class="cluster">
<title>cluster_aggregator_factory</title>
<polygon fill="none" stroke="black" points="741,-80 741,-238 967,-238 967,-80 741,-80"/>
<text text-anchor="middle" x="854" y="-222.8" font-family="Times,serif" font-size="14.00">aggregator_factory</text>
</g>
<!-- initialize -->
<g id="node1" class="node">
<title>initialize</title>
<ellipse fill="none" stroke="black" cx="296" cy="-494" rx="41.69" ry="18"/>
<text text-anchor="middle" x="296" y="-490.3" font-family="Times,serif" font-size="14.00">initialize</text>
</g>
<!-- string::utf8 -->
<g id="node2" class="node">
<title>string::utf8</title>
<ellipse fill="none" stroke="black" cx="69" cy="-272" rx="27" ry="18"/>
<text text-anchor="middle" x="69" y="-268.3" font-family="Times,serif" font-size="14.00">utf8</text>
</g>
<!-- initialize&#45;&gt;string::utf8 -->
<g id="edge1" class="edge">
<title>initialize&#45;&gt;string::utf8</title>
<path fill="none" stroke="black" d="M276.72,-477.76C240.93,-449.03 162.66,-384.07 105,-321 98.48,-313.86 91.95,-305.59 86.28,-297.95"/>
<polygon fill="black" stroke="black" points="89.21,-296.02 80.51,-289.96 83.53,-300.12 89.21,-296.02"/>
</g>
<!-- coin::initialize -->
<g id="node3" class="node">
<title>coin::initialize</title>
<ellipse fill="none" stroke="black" cx="410" cy="-419" rx="41.69" ry="18"/>
<text text-anchor="middle" x="410" y="-415.3" font-family="Times,serif" font-size="14.00">initialize</text>
</g>
<!-- initialize&#45;&gt;coin::initialize -->
<g id="edge2" class="edge">
<title>initialize&#45;&gt;coin::initialize</title>
<path fill="none" stroke="black" d="M318.52,-478.58C335.46,-467.73 358.91,-452.71 377.83,-440.6"/>
<polygon fill="black" stroke="black" points="379.72,-443.55 386.25,-435.21 375.94,-437.65 379.72,-443.55"/>
</g>
<!-- string::internal_check_utf8 -->
<g id="node4" class="node">
<title>string::internal_check_utf8</title>
<ellipse fill="none" stroke="black" cx="97" cy="-189" rx="81.49" ry="18"/>
<text text-anchor="middle" x="97" y="-185.3" font-family="Times,serif" font-size="14.00">internal_check_utf8</text>
</g>
<!-- string::utf8&#45;&gt;string::internal_check_utf8 -->
<g id="edge3" class="edge">
<title>string::utf8&#45;&gt;string::internal_check_utf8</title>
<path fill="none" stroke="black" d="M74.8,-254.22C78.39,-243.82 83.1,-230.21 87.25,-218.19"/>
<polygon fill="black" stroke="black" points="90.56,-219.35 90.52,-208.75 83.94,-217.06 90.56,-219.35"/>
</g>
<!-- coin::initialize_internal -->
<g id="node5" class="node">
<title>coin::initialize_internal</title>
<ellipse fill="none" stroke="black" cx="426" cy="-347" rx="72.59" ry="18"/>
<text text-anchor="middle" x="426" y="-343.3" font-family="Times,serif" font-size="14.00">initialize_internal</text>
</g>
<!-- coin::initialize&#45;&gt;coin::initialize_internal -->
<g id="edge4" class="edge">
<title>coin::initialize&#45;&gt;coin::initialize_internal</title>
<path fill="none" stroke="black" d="M413.96,-400.7C415.64,-393.32 417.65,-384.52 419.54,-376.25"/>
<polygon fill="black" stroke="black" points="422.94,-377.11 421.75,-366.58 416.11,-375.55 422.94,-377.11"/>
</g>
<!-- option::none -->
<g id="node6" class="node">
<title>option::none</title>
<ellipse fill="none" stroke="black" cx="486" cy="-189" rx="27.9" ry="18"/>
<text text-anchor="middle" x="486" y="-185.3" font-family="Times,serif" font-size="14.00">none</text>
</g>
<!-- coin::initialize_internal&#45;&gt;option::none -->
<g id="edge5" class="edge">
<title>coin::initialize_internal&#45;&gt;option::none</title>
<path fill="none" stroke="black" d="M465.29,-331.66C469.45,-328.71 473.19,-325.19 476,-321 496.48,-290.52 495.16,-246.56 491.35,-218.14"/>
<polygon fill="black" stroke="black" points="494.85,-217.83 489.86,-208.49 487.93,-218.91 494.85,-217.83"/>
</g>
<!-- option::some -->
<g id="node7" class="node">
<title>option::some</title>
<ellipse fill="none" stroke="black" cx="562" cy="-189" rx="29.8" ry="18"/>
<text text-anchor="middle" x="562" y="-185.3" font-family="Times,serif" font-size="14.00">some</text>
</g>
<!-- coin::initialize_internal&#45;&gt;option::some -->
<g id="edge6" class="edge">
<title>coin::initialize_internal&#45;&gt;option::some</title>
<path fill="none" stroke="black" d="M477.91,-334.03C485.55,-330.69 492.89,-326.43 499,-321 529.98,-293.48 547.14,-247.37 555.46,-217.84"/>
<polygon fill="black" stroke="black" points="558.76,-219.06 557.93,-208.5 551.99,-217.27 558.76,-219.06"/>
</g>
<!-- string::length -->
<g id="node8" class="node">
<title>string::length</title>
<ellipse fill="none" stroke="black" cx="146" cy="-272" rx="32.49" ry="18"/>
<text text-anchor="middle" x="146" y="-268.3" font-family="Times,serif" font-size="14.00">length</text>
</g>
<!-- coin::initialize_internal&#45;&gt;string::length -->
<g id="edge7" class="edge">
<title>coin::initialize_internal&#45;&gt;string::length</title>
<path fill="none" stroke="black" d="M377.23,-333.28C323.01,-319.15 236.45,-296.58 186.04,-283.44"/>
<polygon fill="black" stroke="black" points="186.98,-280.07 176.42,-280.93 185.21,-286.84 186.98,-280.07"/>
</g>
<!-- signer::address_of -->
<g id="node9" class="node">
<title>signer::address_of</title>
<ellipse fill="none" stroke="black" cx="1111" cy="-272" rx="48.99" ry="18"/>
<text text-anchor="middle" x="1111" y="-268.3" font-family="Times,serif" font-size="14.00">address_of</text>
</g>
<!-- coin::initialize_internal&#45;&gt;signer::address_of -->
<g id="edge8" class="edge">
<title>coin::initialize_internal&#45;&gt;signer::address_of</title>
<path fill="none" stroke="black" d="M498.7,-345.24C650.01,-343.34 988.89,-337.29 1039,-321 1055.32,-315.69 1071.42,-305.56 1084.24,-295.97"/>
<polygon fill="black" stroke="black" points="1086.04,-299 1091.76,-290.09 1081.73,-293.49 1086.04,-299"/>
</g>
<!-- error::already_exists -->
<g id="node10" class="node">
<title>error::already_exists</title>
<ellipse fill="none" stroke="black" cx="1321" cy="-106" rx="61.19" ry="18"/>
<text text-anchor="middle" x="1321" y="-102.3" font-family="Times,serif" font-size="14.00">already_exists</text>
</g>
<!-- coin::initialize_internal&#45;&gt;error::already_exists -->
<g id="edge9" class="edge">
<title>coin::initialize_internal&#45;&gt;error::already_exists</title>
<path fill="none" stroke="black" d="M498.54,-345.91C604.48,-345.08 796.1,-340.78 862,-321 932.38,-299.87 955.11,-291.96 1005,-238 1030.1,-210.85 1010.09,-183.29 1041,-163 1060.43,-150.25 1227.91,-162.23 1250,-155 1265.78,-149.84 1281.29,-140.06 1293.76,-130.67"/>
<polygon fill="black" stroke="black" points="1295.8,-133.52 1301.48,-124.58 1291.46,-128.02 1295.8,-133.52"/>
</g>
<!-- error::invalid_argument -->
<g id="node11" class="node">
<title>error::invalid_argument</title>
<ellipse fill="none" stroke="black" cx="1168" cy="-106" rx="73.39" ry="18"/>
<text text-anchor="middle" x="1168" y="-102.3" font-family="Times,serif" font-size="14.00">invalid_argument</text>
</g>
<!-- coin::initialize_internal&#45;&gt;error::invalid_argument -->
<g id="edge10" class="edge">
<title>coin::initialize_internal&#45;&gt;error::invalid_argument</title>
<path fill="none" stroke="black" d="M498.73,-345.49C562.25,-343.78 656.62,-338.18 737,-321 844.91,-297.94 887.38,-310 971,-238 999.63,-213.35 979.68,-184.13 1011,-163 1024.89,-153.63 1070.08,-160.24 1086,-155 1103.7,-149.18 1121.74,-139.15 1136.38,-129.76"/>
<polygon fill="black" stroke="black" points="1138.27,-132.71 1144.66,-124.26 1134.39,-126.88 1138.27,-132.71"/>
</g>
<!-- optional_aggregator::new -->
<g id="node12" class="node">
<title>optional_aggregator::new</title>
<ellipse fill="none" stroke="black" cx="643" cy="-272" rx="27" ry="18"/>
<text text-anchor="middle" x="643" y="-268.3" font-family="Times,serif" font-size="14.00">new</text>
</g>
<!-- coin::initialize_internal&#45;&gt;optional_aggregator::new -->
<g id="edge11" class="edge">
<title>coin::initialize_internal&#45;&gt;optional_aggregator::new</title>
<path fill="none" stroke="black" d="M492.58,-339.39C516.29,-335.67 542.84,-329.91 566,-321 584.04,-314.06 602.47,-302.75 616.78,-292.85"/>
<polygon fill="black" stroke="black" points="618.63,-295.83 624.74,-287.17 614.57,-290.13 618.63,-295.83"/>
</g>
<!-- coin::coin_address -->
<g id="node13" class="node">
<title>coin::coin_address</title>
<ellipse fill="none" stroke="black" cx="410" cy="-272" rx="56.59" ry="18"/>
<text text-anchor="middle" x="410" y="-268.3" font-family="Times,serif" font-size="14.00">coin_address</text>
</g>
<!-- coin::initialize_internal&#45;&gt;coin::coin_address -->
<g id="edge12" class="edge">
<title>coin::initialize_internal&#45;&gt;coin::coin_address</title>
<path fill="none" stroke="black" d="M422.21,-328.7C420.43,-320.58 418.26,-310.68 416.25,-301.5"/>
<polygon fill="black" stroke="black" points="419.7,-300.93 414.14,-291.91 412.87,-302.42 419.7,-300.93"/>
</g>
<!-- vector::singleton -->
<g id="node14" class="node">
<title>vector::singleton</title>
<ellipse fill="none" stroke="black" cx="562" cy="-106" rx="42.79" ry="18"/>
<text text-anchor="middle" x="562" y="-102.3" font-family="Times,serif" font-size="14.00">singleton</text>
</g>
<!-- option::some&#45;&gt;vector::singleton -->
<g id="edge13" class="edge">
<title>option::some&#45;&gt;vector::singleton</title>
<path fill="none" stroke="black" d="M562,-170.82C562,-160.69 562,-147.6 562,-135.92"/>
<polygon fill="black" stroke="black" points="565.5,-135.95 562,-125.95 558.5,-135.95 565.5,-135.95"/>
</g>
<!-- signer::borrow_address -->
<g id="node15" class="node">
<title>signer::borrow_address</title>
<ellipse fill="none" stroke="black" cx="1120" cy="-189" rx="66.89" ry="18"/>
<text text-anchor="middle" x="1120" y="-185.3" font-family="Times,serif" font-size="14.00">borrow_address</text>
</g>
<!-- signer::address_of&#45;&gt;signer::borrow_address -->
<g id="edge14" class="edge">
<title>signer::address_of&#45;&gt;signer::borrow_address</title>
<path fill="none" stroke="black" d="M1112.91,-253.82C1114.05,-243.58 1115.52,-230.33 1116.83,-218.55"/>
<polygon fill="black" stroke="black" points="1120.27,-219.26 1117.9,-208.94 1113.31,-218.49 1120.27,-219.26"/>
</g>
<!-- error::canonical -->
<g id="node16" class="node">
<title>error::canonical</title>
<ellipse fill="none" stroke="black" cx="1168" cy="-34" rx="44.39" ry="18"/>
<text text-anchor="middle" x="1168" y="-30.3" font-family="Times,serif" font-size="14.00">canonical</text>
</g>
<!-- error::already_exists&#45;&gt;error::canonical -->
<g id="edge15" class="edge">
<title>error::already_exists&#45;&gt;error::canonical</title>
<path fill="none" stroke="black" d="M1288.93,-90.33C1265.08,-79.42 1232.42,-64.47 1207.06,-52.87"/>
<polygon fill="black" stroke="black" points="1208.6,-49.73 1198.05,-48.75 1205.69,-56.09 1208.6,-49.73"/>
</g>
<!-- error::invalid_argument&#45;&gt;error::canonical -->
<g id="edge16" class="edge">
<title>error::invalid_argument&#45;&gt;error::canonical</title>
<path fill="none" stroke="black" d="M1168,-87.7C1168,-80.41 1168,-71.73 1168,-63.54"/>
<polygon fill="black" stroke="black" points="1171.5,-63.62 1168,-53.62 1164.5,-63.62 1171.5,-63.62"/>
</g>
<!-- optional_aggregator::new&#45;&gt;option::none -->
<g id="edge17" class="edge">
<title>optional_aggregator::new&#45;&gt;option::none</title>
<path fill="none" stroke="black" d="M616.17,-268.56C590.41,-265.14 551.34,-257.03 523,-238 514.55,-232.33 507.21,-224.1 501.34,-216.04"/>
<polygon fill="black" stroke="black" points="504.26,-214.11 495.78,-207.75 498.44,-218.01 504.26,-214.11"/>
</g>
<!-- optional_aggregator::new&#45;&gt;option::some -->
<g id="edge18" class="edge">
<title>optional_aggregator::new&#45;&gt;option::some</title>
<path fill="none" stroke="black" d="M626.2,-257.72C619.13,-251.9 610.96,-244.84 604,-238 596.51,-230.63 588.8,-222.13 582.07,-214.35"/>
<polygon fill="black" stroke="black" points="584.8,-212.17 575.66,-206.81 579.47,-216.7 584.8,-212.17"/>
</g>
<!-- aggregator_factory::create_aggregator_internal -->
<g id="node17" class="node">
<title>aggregator_factory::create_aggregator_internal</title>
<ellipse fill="none" stroke="black" cx="854" cy="-189" rx="104.78" ry="18"/>
<text text-anchor="middle" x="854" y="-185.3" font-family="Times,serif" font-size="14.00">create_aggregator_internal</text>
</g>
<!-- optional_aggregator::new&#45;&gt;aggregator_factory::create_aggregator_internal -->
<g id="edge19" class="edge">
<title>optional_aggregator::new&#45;&gt;aggregator_factory::create_aggregator_internal</title>
<path fill="none" stroke="black" d="M666.69,-263.06C685.77,-256.58 713.24,-247.04 737,-238 759.63,-229.39 784.47,-219.29 805.43,-210.59"/>
<polygon fill="black" stroke="black" points="806.72,-213.84 814.6,-206.76 804.02,-207.38 806.72,-213.84"/>
</g>
<!-- optional_aggregator::new_integer -->
<g id="node18" class="node">
<title>optional_aggregator::new_integer</title>
<ellipse fill="none" stroke="black" cx="670" cy="-189" rx="53.89" ry="18"/>
<text text-anchor="middle" x="670" y="-185.3" font-family="Times,serif" font-size="14.00">new_integer</text>
</g>
<!-- optional_aggregator::new&#45;&gt;optional_aggregator::new_integer -->
<g id="edge20" class="edge">
<title>optional_aggregator::new&#45;&gt;optional_aggregator::new_integer</title>
<path fill="none" stroke="black" d="M648.59,-254.22C652.06,-243.82 656.6,-230.21 660.6,-218.19"/>
<polygon fill="black" stroke="black" points="663.91,-219.35 663.75,-208.76 657.27,-217.14 663.91,-219.35"/>
</g>
<!-- type_info::account_address -->
<g id="node19" class="node">
<title>type_info::account_address</title>
<ellipse fill="none" stroke="black" cx="365" cy="-189" rx="68.79" ry="18"/>
<text text-anchor="middle" x="365" y="-185.3" font-family="Times,serif" font-size="14.00">account_address</text>
</g>
<!-- coin::coin_address&#45;&gt;type_info::account_address -->
<g id="edge21" class="edge">
<title>coin::coin_address&#45;&gt;type_info::account_address</title>
<path fill="none" stroke="black" d="M400.46,-253.82C394.55,-243.19 386.84,-229.31 380.11,-217.2"/>
<polygon fill="black" stroke="black" points="383.18,-215.52 375.26,-208.48 377.06,-218.92 383.18,-215.52"/>
</g>
<!-- type_info::type_of -->
<g id="node20" class="node">
<title>type_info::type_of</title>
<ellipse fill="none" stroke="black" cx="240" cy="-189" rx="37.89" ry="18"/>
<text text-anchor="middle" x="240" y="-185.3" font-family="Times,serif" font-size="14.00">type_of</text>
</g>
<!-- coin::coin_address&#45;&gt;type_info::type_of -->
<g id="edge22" class="edge">
<title>coin::coin_address&#45;&gt;type_info::type_of</title>
<path fill="none" stroke="black" d="M359.14,-263.67C336,-258.79 308.95,-250.83 287,-238 276.84,-232.06 267.38,-223.34 259.66,-214.96"/>
<polygon fill="black" stroke="black" points="262.47,-212.86 253.27,-207.62 257.19,-217.46 262.47,-212.86"/>
</g>
<!-- error::not_found -->
<g id="node21" class="node">
<title>error::not_found</title>
<ellipse fill="none" stroke="black" cx="1030" cy="-106" rx="46.59" ry="18"/>
<text text-anchor="middle" x="1030" y="-102.3" font-family="Times,serif" font-size="14.00">not_found</text>
</g>
<!-- aggregator_factory::create_aggregator_internal&#45;&gt;error::not_found -->
<g id="edge23" class="edge">
<title>aggregator_factory::create_aggregator_internal&#45;&gt;error::not_found</title>
<path fill="none" stroke="black" d="M919.56,-174.56C936.83,-169.68 955.08,-163.27 971,-155 983.2,-148.66 995.24,-139.54 1005.23,-130.95"/>
<polygon fill="black" stroke="black" points="1007.53,-133.59 1012.64,-124.31 1002.86,-128.37 1007.53,-133.59"/>
</g>
<!-- aggregator_factory::new_aggregator -->
<g id="node22" class="node">
<title>aggregator_factory::new_aggregator</title>
<ellipse fill="none" stroke="black" cx="854" cy="-106" rx="67.69" ry="18"/>
<text text-anchor="middle" x="854" y="-102.3" font-family="Times,serif" font-size="14.00">new_aggregator</text>
</g>
<!-- aggregator_factory::create_aggregator_internal&#45;&gt;aggregator_factory::new_aggregator -->
<g id="edge24" class="edge">
<title>aggregator_factory::create_aggregator_internal&#45;&gt;aggregator_factory::new_aggregator</title>
<path fill="none" stroke="black" d="M854,-170.82C854,-160.69 854,-147.6 854,-135.92"/>
<polygon fill="black" stroke="black" points="857.5,-135.95 854,-125.95 850.5,-135.95 857.5,-135.95"/>
</g>
<!-- error::not_found&#45;&gt;error::canonical -->
<g id="edge25" class="edge">
<title>error::not_found&#45;&gt;error::canonical</title>
<path fill="none" stroke="black" d="M1057.26,-91.17C1078.38,-80.46 1107.85,-65.51 1131.08,-53.73"/>
<polygon fill="black" stroke="black" points="1132.58,-56.89 1139.91,-49.25 1129.41,-50.65 1132.58,-56.89"/>
</g>
</g>
</svg>
