<?xml version="1.0" encoding="UTF-8" standalone="no"?>
<!DOCTYPE svg PUBLIC "-//W3C//DTD SVG 1.1//EN"
 "http://www.w3.org/Graphics/SVG/1.1/DTD/svg11.dtd">
<!-- Generated by graphviz version 7.0.4 (20221203.1631)
 -->
<!-- Title: G Pages: 1 -->
<svg width="598pt" height="465pt"
 viewBox="0.00 0.00 598.00 465.00" xmlns="http://www.w3.org/2000/svg" xmlns:xlink="http://www.w3.org/1999/xlink">
<g id="graph0" class="graph" transform="scale(1 1) rotate(0) translate(4 461)">
<title>G</title>
<polygon fill="white" stroke="none" points="-4,4 -4,-461 594,-461 594,4 -4,4"/>
<g id="clust1" class="cluster">
<title>cluster_coin</title>
<polygon fill="none" stroke="black" points="8,-64 8,-211 408,-211 408,-64 8,-64"/>
<text text-anchor="middle" x="208" y="-195.8" font-family="Times,serif" font-size="14.00">coin</text>
</g>
<g id="clust2" class="cluster">
<title>cluster_managed_coin</title>
<polygon fill="none" stroke="black" points="8,-219 8,-294 108,-294 108,-219 8,-219"/>
<text text-anchor="middle" x="58" y="-278.8" font-family="Times,serif" font-size="14.00">managed_coin</text>
</g>
<g id="clust3" class="cluster">
<title>cluster_aptos_coin</title>
<polygon fill="none" stroke="black" points="209,-219 209,-294 309,-294 309,-219 209,-219"/>
<text text-anchor="middle" x="259" y="-278.8" font-family="Times,serif" font-size="14.00">aptos_coin</text>
</g>
<g id="clust4" class="cluster">
<title>cluster_genesis</title>
<polygon fill="none" stroke="black" points="30,-302 30,-449 582,-449 582,-302 30,-302"/>
<text text-anchor="middle" x="306" y="-433.8" font-family="Times,serif" font-size="14.00">genesis</text>
</g>
<!-- new -->
<g id="node1" class="node">
<title>new</title>
<ellipse fill="none" stroke="black" cx="174" cy="-18" rx="27" ry="18"/>
<text text-anchor="middle" x="174" y="-14.3" font-family="Times,serif" font-size="14.00">new</text>
</g>
<!-- coin::initialize_internal -->
<g id="node2" class="node">
<title>coin::initialize_internal</title>
<ellipse fill="none" stroke="black" cx="174" cy="-90" rx="72.59" ry="18"/>
<text text-anchor="middle" x="174" y="-86.3" font-family="Times,serif" font-size="14.00">initialize_internal</text>
</g>
<!-- coin::initialize_internal&#45;&gt;new -->
<g id="edge1" class="edge">
<title>coin::initialize_internal&#45;&gt;new</title>
<path fill="none" stroke="black" d="M174,-71.7C174,-64.41 174,-55.73 174,-47.54"/>
<polygon fill="black" stroke="black" points="177.5,-47.62 174,-37.62 170.5,-47.62 177.5,-47.62"/>
</g>
<!-- coin::initialize -->
<g id="node3" class="node">
<title>coin::initialize</title>
<ellipse fill="none" stroke="black" cx="58" cy="-162" rx="41.69" ry="18"/>
<text text-anchor="middle" x="58" y="-158.3" font-family="Times,serif" font-size="14.00">initialize</text>
</g>
<!-- coin::initialize&#45;&gt;coin::initialize_internal -->
<g id="edge2" class="edge">
<title>coin::initialize&#45;&gt;coin::initialize_internal</title>
<path fill="none" stroke="black" d="M81.47,-146.83C97.56,-137.13 119.22,-124.06 137.54,-113"/>
<polygon fill="black" stroke="black" points="139.27,-116.05 146.02,-107.89 135.65,-110.06 139.27,-116.05"/>
</g>
<!-- coin::initialize_with_parallelizable_supply -->
<g id="node4" class="node">
<title>coin::initialize_with_parallelizable_supply</title>
<ellipse fill="none" stroke="black" cx="259" cy="-162" rx="141.07" ry="18"/>
<text text-anchor="middle" x="259" y="-158.3" font-family="Times,serif" font-size="14.00">initialize_with_parallelizable_supply</text>
</g>
<!-- coin::initialize_with_parallelizable_supply&#45;&gt;coin::initialize_internal -->
<g id="edge3" class="edge">
<title>coin::initialize_with_parallelizable_supply&#45;&gt;coin::initialize_internal</title>
<path fill="none" stroke="black" d="M238.42,-144.05C227.7,-135.22 214.4,-124.27 202.68,-114.62"/>
<polygon fill="black" stroke="black" points="205.21,-112.16 195.26,-108.51 200.76,-117.57 205.21,-112.16"/>
</g>
<!-- managed_coin::initialize -->
<g id="node5" class="node">
<title>managed_coin::initialize</title>
<ellipse fill="none" stroke="black" cx="58" cy="-245" rx="41.69" ry="18"/>
<text text-anchor="middle" x="58" y="-241.3" font-family="Times,serif" font-size="14.00">initialize</text>
</g>
<!-- managed_coin::initialize&#45;&gt;coin::initialize -->
<g id="edge4" class="edge">
<title>managed_coin::initialize&#45;&gt;coin::initialize</title>
<path fill="none" stroke="black" d="M58,-226.82C58,-216.69 58,-203.6 58,-191.92"/>
<polygon fill="black" stroke="black" points="61.5,-191.95 58,-181.95 54.5,-191.95 61.5,-191.95"/>
</g>
<!-- aptos_coin::initialize -->
<g id="node6" class="node">
<title>aptos_coin::initialize</title>
<ellipse fill="none" stroke="black" cx="259" cy="-245" rx="41.69" ry="18"/>
<text text-anchor="middle" x="259" y="-241.3" font-family="Times,serif" font-size="14.00">initialize</text>
</g>
<!-- aptos_coin::initialize&#45;&gt;coin::initialize_with_parallelizable_supply -->
<g id="edge5" class="edge">
<title>aptos_coin::initialize&#45;&gt;coin::initialize_with_parallelizable_supply</title>
<path fill="none" stroke="black" d="M259,-226.82C259,-216.69 259,-203.6 259,-191.92"/>
<polygon fill="black" stroke="black" points="262.5,-191.95 259,-181.95 255.5,-191.95 262.5,-191.95"/>
</g>
<!-- genesis::initialize_aptos_coin -->
<g id="node7" class="node">
<title>genesis::initialize_aptos_coin</title>
<ellipse fill="none" stroke="black" cx="160" cy="-328" rx="83.69" ry="18"/>
<text text-anchor="middle" x="160" y="-324.3" font-family="Times,serif" font-size="14.00">initialize_aptos_coin</text>
</g>
<!-- genesis::initialize_aptos_coin&#45;&gt;aptos_coin::initialize -->
<g id="edge6" class="edge">
<title>genesis::initialize_aptos_coin&#45;&gt;aptos_coin::initialize</title>
<path fill="none" stroke="black" d="M180.51,-310.22C195.33,-298.1 215.49,-281.6 231.67,-268.36"/>
<polygon fill="black" stroke="black" points="233.49,-271.39 239.02,-262.35 229.06,-265.97 233.49,-271.39"/>
</g>
<!-- genesis::initialize_core_resources_and_aptos_coin -->
<g id="node8" class="node">
<title>genesis::initialize_core_resources_and_aptos_coin</title>
<ellipse fill="none" stroke="black" cx="416" cy="-400" rx="157.87" ry="18"/>
<text text-anchor="middle" x="416" y="-396.3" font-family="Times,serif" font-size="14.00">initialize_core_resources_and_aptos_coin</text>
</g>
<!-- genesis::initialize_core_resources_and_aptos_coin&#45;&gt;aptos_coin::initialize -->
<g id="edge7" class="edge">
<title>genesis::initialize_core_resources_and_aptos_coin&#45;&gt;aptos_coin::initialize</title>
<path fill="none" stroke="black" d="M398.3,-381.75C370.03,-354.2 314.66,-300.24 282.9,-269.29"/>
<polygon fill="black" stroke="black" points="285.68,-267.11 276.07,-262.64 280.79,-272.13 285.68,-267.11"/>
</g>
<!-- genesis::initialize_for_verification -->
<g id="node9" class="node">
<title>genesis::initialize_for_verification</title>
<ellipse fill="none" stroke="black" cx="139" cy="-400" rx="100.98" ry="18"/>
<text text-anchor="middle" x="139" y="-396.3" font-family="Times,serif" font-size="14.00">initialize_for_verification</text>
</g>
<!-- genesis::initialize_for_verification&#45;&gt;genesis::initialize_aptos_coin -->
<g id="edge8" class="edge">
<title>genesis::initialize_for_verification&#45;&gt;genesis::initialize_aptos_coin</title>
<path fill="none" stroke="black" d="M144.19,-381.7C146.43,-374.24 149.1,-365.32 151.61,-356.97"/>
<polygon fill="black" stroke="black" points="154.91,-358.14 154.43,-347.55 148.21,-356.13 154.91,-358.14"/>
</g>
</g>
</svg>
