<?xml version="1.0" encoding="UTF-8" standalone="no"?>
<!DOCTYPE svg PUBLIC "-//W3C//DTD SVG 1.1//EN"
 "http://www.w3.org/Graphics/SVG/1.1/DTD/svg11.dtd">
<!-- Generated by graphviz version 7.0.4 (20221203.1631)
 -->
<!-- Title: G Pages: 1 -->
<svg width="918pt" height="540pt"
 viewBox="0.00 0.00 918.00 540.00" xmlns="http://www.w3.org/2000/svg" xmlns:xlink="http://www.w3.org/1999/xlink">
<g id="graph0" class="graph" transform="scale(1 1) rotate(0) translate(4 536)">
<title>G</title>
<polygon fill="white" stroke="none" points="-4,4 -4,-536 914,-536 914,4 -4,4"/>
<g id="clust4" class="cluster">
<title>cluster_transaction_validation</title>
<polygon fill="none" stroke="black" points="9,-366 9,-441 146,-441 146,-366 9,-366"/>
<text text-anchor="middle" x="77.5" y="-425.8" font-family="Times,serif" font-size="14.00">transaction_validation</text>
</g>
<g id="clust1" class="cluster">
<title>cluster_coin</title>
<polygon fill="none" stroke="black" points="318,-136 318,-283 432,-283 432,-136 318,-136"/>
<text text-anchor="middle" x="375" y="-267.8" font-family="Times,serif" font-size="14.00">coin</text>
</g>
<g id="clust2" class="cluster">
<title>cluster_transaction_fee</title>
<polygon fill="none" stroke="black" points="8,-208 8,-358 310,-358 310,-208 8,-208"/>
<text text-anchor="middle" x="159" y="-342.8" font-family="Times,serif" font-size="14.00">transaction_fee</text>
</g>
<g id="clust3" class="cluster">
<title>cluster_managed_coin</title>
<polygon fill="none" stroke="black" points="440,-208 440,-283 536,-283 536,-208 440,-208"/>
<text text-anchor="middle" x="488" y="-267.8" font-family="Times,serif" font-size="14.00">managed_coin</text>
</g>
<g id="clust5" class="cluster">
<title>cluster_reconfiguration</title>
<polygon fill="none" stroke="black" points="290,-366 290,-441 408,-441 408,-366 290,-366"/>
<text text-anchor="middle" x="349" y="-425.8" font-family="Times,serif" font-size="14.00">reconfiguration</text>
</g>
<g id="clust6" class="cluster">
<title>cluster_block</title>
<polygon fill="none" stroke="black" points="11,-449 11,-524 159,-524 159,-449 11,-449"/>
<text text-anchor="middle" x="85" y="-508.8" font-family="Times,serif" font-size="14.00">block</text>
</g>
<g id="clust7" class="cluster">
<title>cluster_aptos_governance</title>
<polygon fill="none" stroke="black" points="167,-449 167,-524 285,-524 285,-449 167,-449"/>
<text text-anchor="middle" x="226" y="-508.8" font-family="Times,serif" font-size="14.00">aptos_governance</text>
</g>
<g id="clust8" class="cluster">
<title>cluster_consensus_config</title>
<polygon fill="none" stroke="black" points="293,-449 293,-524 406,-524 406,-449 293,-449"/>
<text text-anchor="middle" x="349.5" y="-508.8" font-family="Times,serif" font-size="14.00">consensus_config</text>
</g>
<g id="clust9" class="cluster">
<title>cluster_gas_schedule</title>
<polygon fill="none" stroke="black" points="414,-449 414,-524 776,-524 776,-449 414,-449"/>
<text text-anchor="middle" x="595" y="-508.8" font-family="Times,serif" font-size="14.00">gas_schedule</text>
</g>
<g id="clust10" class="cluster">
<title>cluster_version</title>
<polygon fill="none" stroke="black" points="784,-449 784,-524 902,-524 902,-449 784,-449"/>
<text text-anchor="middle" x="843" y="-508.8" font-family="Times,serif" font-size="14.00">version</text>
</g>
<!-- sub_integer -->
<g id="node1" class="node">
<title>sub_integer</title>
<ellipse fill="none" stroke="black" cx="375" cy="-18" rx="51.99" ry="18"/>
<text text-anchor="middle" x="375" y="-14.3" font-family="Times,serif" font-size="14.00">sub_integer</text>
</g>
<!-- sub -->
<g id="node2" class="node">
<title>sub</title>
<ellipse fill="none" stroke="black" cx="375" cy="-90" rx="27" ry="18"/>
<text text-anchor="middle" x="375" y="-86.3" font-family="Times,serif" font-size="14.00">sub</text>
</g>
<!-- sub&#45;&gt;sub_integer -->
<g id="edge1" class="edge">
<title>sub&#45;&gt;sub_integer</title>
<path fill="none" stroke="black" d="M375,-71.7C375,-64.41 375,-55.73 375,-47.54"/>
<polygon fill="black" stroke="black" points="378.5,-47.62 375,-37.62 371.5,-47.62 378.5,-47.62"/>
</g>
<!-- coin::burn -->
<g id="node3" class="node">
<title>coin::burn</title>
<ellipse fill="none" stroke="black" cx="375" cy="-162" rx="27" ry="18"/>
<text text-anchor="middle" x="375" y="-158.3" font-family="Times,serif" font-size="14.00">burn</text>
</g>
<!-- coin::burn&#45;&gt;sub -->
<g id="edge2" class="edge">
<title>coin::burn&#45;&gt;sub</title>
<path fill="none" stroke="black" d="M375,-143.7C375,-136.41 375,-127.73 375,-119.54"/>
<polygon fill="black" stroke="black" points="378.5,-119.62 375,-109.62 371.5,-119.62 378.5,-119.62"/>
</g>
<!-- coin::burn_from -->
<g id="node4" class="node">
<title>coin::burn_from</title>
<ellipse fill="none" stroke="black" cx="375" cy="-234" rx="48.99" ry="18"/>
<text text-anchor="middle" x="375" y="-230.3" font-family="Times,serif" font-size="14.00">burn_from</text>
</g>
<!-- coin::burn_from&#45;&gt;coin::burn -->
<g id="edge3" class="edge">
<title>coin::burn_from&#45;&gt;coin::burn</title>
<path fill="none" stroke="black" d="M375,-215.7C375,-208.41 375,-199.73 375,-191.54"/>
<polygon fill="black" stroke="black" points="378.5,-191.62 375,-181.62 371.5,-191.62 378.5,-191.62"/>
</g>
<!-- transaction_fee::burn_coin_fraction -->
<g id="node5" class="node">
<title>transaction_fee::burn_coin_fraction</title>
<ellipse fill="none" stroke="black" cx="217" cy="-234" rx="77.99" ry="18"/>
<text text-anchor="middle" x="217" y="-230.3" font-family="Times,serif" font-size="14.00">burn_coin_fraction</text>
</g>
<!-- transaction_fee::burn_coin_fraction&#45;&gt;coin::burn -->
<g id="edge4" class="edge">
<title>transaction_fee::burn_coin_fraction&#45;&gt;coin::burn</title>
<path fill="none" stroke="black" d="M252.07,-217.46C279.23,-205.43 316.57,-188.89 342.94,-177.2"/>
<polygon fill="black" stroke="black" points="344.06,-180.54 351.78,-173.29 341.22,-174.14 344.06,-180.54"/>
</g>
<!-- managed_coin::burn -->
<g id="node6" class="node">
<title>managed_coin::burn</title>
<ellipse fill="none" stroke="black" cx="475" cy="-234" rx="27" ry="18"/>
<text text-anchor="middle" x="475" y="-230.3" font-family="Times,serif" font-size="14.00">burn</text>
</g>
<!-- managed_coin::burn&#45;&gt;coin::burn -->
<g id="edge5" class="edge">
<title>managed_coin::burn&#45;&gt;coin::burn</title>
<path fill="none" stroke="black" d="M457.12,-220.49C441.86,-209.8 419.67,-194.27 402.2,-182.04"/>
<polygon fill="black" stroke="black" points="404.5,-179.38 394.3,-176.51 400.49,-185.11 404.5,-179.38"/>
</g>
<!-- transaction_fee::burn_fee -->
<g id="node7" class="node">
<title>transaction_fee::burn_fee</title>
<ellipse fill="none" stroke="black" cx="58" cy="-309" rx="42.49" ry="18"/>
<text text-anchor="middle" x="58" y="-305.3" font-family="Times,serif" font-size="14.00">burn_fee</text>
</g>
<!-- transaction_fee::burn_fee&#45;&gt;coin::burn_from -->
<g id="edge6" class="edge">
<title>transaction_fee::burn_fee&#45;&gt;coin::burn_from</title>
<path fill="none" stroke="black" d="M88.92,-296.15C95.46,-294.08 102.39,-292.21 109,-291 153.85,-282.82 271.22,-298.75 314,-283 328.03,-277.83 341.35,-268.13 351.95,-258.79"/>
<polygon fill="black" stroke="black" points="354.13,-261.55 359.06,-252.18 349.36,-256.43 354.13,-261.55"/>
</g>
<!-- transaction_fee::process_collected_fees -->
<g id="node8" class="node">
<title>transaction_fee::process_collected_fees</title>
<ellipse fill="none" stroke="black" cx="210" cy="-309" rx="91.78" ry="18"/>
<text text-anchor="middle" x="210" y="-305.3" font-family="Times,serif" font-size="14.00">process_collected_fees</text>
</g>
<!-- transaction_fee::process_collected_fees&#45;&gt;transaction_fee::burn_coin_fraction -->
<g id="edge7" class="edge">
<title>transaction_fee::process_collected_fees&#45;&gt;transaction_fee::burn_coin_fraction</title>
<path fill="none" stroke="black" d="M211.66,-290.7C212.43,-282.67 213.37,-272.9 214.24,-263.8"/>
<polygon fill="black" stroke="black" points="217.71,-264.22 215.18,-253.94 210.75,-263.56 217.71,-264.22"/>
</g>
<!-- transaction_validation::epilogue -->
<g id="node9" class="node">
<title>transaction_validation::epilogue</title>
<ellipse fill="none" stroke="black" cx="58" cy="-392" rx="40.89" ry="18"/>
<text text-anchor="middle" x="58" y="-388.3" font-family="Times,serif" font-size="14.00">epilogue</text>
</g>
<!-- transaction_validation::epilogue&#45;&gt;transaction_fee::burn_fee -->
<g id="edge8" class="edge">
<title>transaction_validation::epilogue&#45;&gt;transaction_fee::burn_fee</title>
<path fill="none" stroke="black" d="M58,-373.82C58,-363.69 58,-350.6 58,-338.92"/>
<polygon fill="black" stroke="black" points="61.5,-338.95 58,-328.95 54.5,-338.95 61.5,-338.95"/>
</g>
<!-- reconfiguration::reconfigure -->
<g id="node10" class="node">
<title>reconfiguration::reconfigure</title>
<ellipse fill="none" stroke="black" cx="349" cy="-392" rx="51.19" ry="18"/>
<text text-anchor="middle" x="349" y="-388.3" font-family="Times,serif" font-size="14.00">reconfigure</text>
</g>
<!-- reconfiguration::reconfigure&#45;&gt;transaction_fee::process_collected_fees -->
<g id="edge9" class="edge">
<title>reconfiguration::reconfigure&#45;&gt;transaction_fee::process_collected_fees</title>
<path fill="none" stroke="black" d="M323.51,-376.14C302.38,-363.83 272.05,-346.16 248.05,-332.17"/>
<polygon fill="black" stroke="black" points="249.91,-329.21 239.51,-327.2 246.39,-335.26 249.91,-329.21"/>
</g>
<!-- block::block_prologue -->
<g id="node11" class="node">
<title>block::block_prologue</title>
<ellipse fill="none" stroke="black" cx="85" cy="-475" rx="65.79" ry="18"/>
<text text-anchor="middle" x="85" y="-471.3" font-family="Times,serif" font-size="14.00">block_prologue</text>
</g>
<!-- block::block_prologue&#45;&gt;transaction_fee::process_collected_fees -->
<g id="edge10" class="edge">
<title>block::block_prologue&#45;&gt;transaction_fee::process_collected_fees</title>
<path fill="none" stroke="black" d="M122.95,-460.05C132.65,-455.15 142.46,-448.85 150,-441 178.02,-411.82 194.59,-367.23 202.98,-338.35"/>
<polygon fill="black" stroke="black" points="206.32,-339.41 205.6,-328.84 199.57,-337.55 206.32,-339.41"/>
</g>
<!-- block::block_prologue&#45;&gt;reconfiguration::reconfigure -->
<g id="edge12" class="edge">
<title>block::block_prologue&#45;&gt;reconfiguration::reconfigure</title>
<path fill="none" stroke="black" d="M124.85,-460.36C137.02,-456.43 150.49,-452.31 163,-449 179.68,-444.58 184.32,-445.45 201,-441 235.72,-431.74 274.31,-419.15 303.38,-409.18"/>
<polygon fill="black" stroke="black" points="304.29,-412.57 312.6,-406 302,-405.96 304.29,-412.57"/>
</g>
<!-- aptos_governance::reconfigure -->
<g id="node12" class="node">
<title>aptos_governance::reconfigure</title>
<ellipse fill="none" stroke="black" cx="226" cy="-475" rx="51.19" ry="18"/>
<text text-anchor="middle" x="226" y="-471.3" font-family="Times,serif" font-size="14.00">reconfigure</text>
</g>
<!-- aptos_governance::reconfigure&#45;&gt;reconfiguration::reconfigure -->
<g id="edge11" class="edge">
<title>aptos_governance::reconfigure&#45;&gt;reconfiguration::reconfigure</title>
<path fill="none" stroke="black" d="M249.42,-458.57C268.32,-446.13 295.12,-428.48 316.16,-414.63"/>
<polygon fill="black" stroke="black" points="317.97,-417.62 324.4,-409.2 314.12,-411.78 317.97,-417.62"/>
</g>
<!-- consensus_config::set -->
<g id="node13" class="node">
<title>consensus_config::set</title>
<ellipse fill="none" stroke="black" cx="349" cy="-475" rx="27" ry="18"/>
<text text-anchor="middle" x="349" y="-471.3" font-family="Times,serif" font-size="14.00">set</text>
</g>
<!-- consensus_config::set&#45;&gt;reconfiguration::reconfigure -->
<g id="edge13" class="edge">
<title>consensus_config::set&#45;&gt;reconfiguration::reconfigure</title>
<path fill="none" stroke="black" d="M349,-456.82C349,-446.69 349,-433.6 349,-421.92"/>
<polygon fill="black" stroke="black" points="352.5,-421.95 349,-411.95 345.5,-421.95 352.5,-421.95"/>
</g>
<!-- gas_schedule::set_gas_schedule -->
<g id="node14" class="node">
<title>gas_schedule::set_gas_schedule</title>
<ellipse fill="none" stroke="black" cx="697" cy="-475" rx="71.49" ry="18"/>
<text text-anchor="middle" x="697" y="-471.3" font-family="Times,serif" font-size="14.00">set_gas_schedule</text>
</g>
<!-- gas_schedule::set_gas_schedule&#45;&gt;reconfiguration::reconfigure -->
<g id="edge14" class="edge">
<title>gas_schedule::set_gas_schedule&#45;&gt;reconfiguration::reconfigure</title>
<path fill="none" stroke="black" d="M655.29,-460.13C643.02,-456.27 629.53,-452.26 617,-449 544.42,-430.12 459.5,-413.24 405.03,-403.07"/>
<polygon fill="black" stroke="black" points="405.84,-399.66 395.37,-401.28 404.56,-406.54 405.84,-399.66"/>
</g>
<!-- gas_schedule::set_storage_gas_config -->
<g id="node15" class="node">
<title>gas_schedule::set_storage_gas_config</title>
<ellipse fill="none" stroke="black" cx="515" cy="-475" rx="92.88" ry="18"/>
<text text-anchor="middle" x="515" y="-471.3" font-family="Times,serif" font-size="14.00">set_storage_gas_config</text>
</g>
<!-- gas_schedule::set_storage_gas_config&#45;&gt;reconfiguration::reconfigure -->
<g id="edge15" class="edge">
<title>gas_schedule::set_storage_gas_config&#45;&gt;reconfiguration::reconfigure</title>
<path fill="none" stroke="black" d="M481.81,-457.8C454.76,-444.6 416.51,-425.94 388,-412.03"/>
<polygon fill="black" stroke="black" points="389.86,-409.04 379.34,-407.8 386.79,-415.33 389.86,-409.04"/>
</g>
<!-- version::set_version -->
<g id="node16" class="node">
<title>version::set_version</title>
<ellipse fill="none" stroke="black" cx="843" cy="-475" rx="50.89" ry="18"/>
<text text-anchor="middle" x="843" y="-471.3" font-family="Times,serif" font-size="14.00">set_version</text>
</g>
<!-- version::set_version&#45;&gt;reconfiguration::reconfigure -->
<g id="edge16" class="edge">
<title>version::set_version&#45;&gt;reconfiguration::reconfigure</title>
<path fill="none" stroke="black" d="M812.75,-460.23C802.53,-456.06 790.94,-451.83 780,-449 651.29,-415.66 495.56,-401.68 410.99,-396.21"/>
<polygon fill="black" stroke="black" points="411.25,-392.72 401.05,-395.59 410.82,-399.71 411.25,-392.72"/>
</g>
</g>
</svg>
