<?xml version="1.0" encoding="UTF-8" standalone="no"?>
<!DOCTYPE svg PUBLIC "-//W3C//DTD SVG 1.1//EN"
 "http://www.w3.org/Graphics/SVG/1.1/DTD/svg11.dtd">
<!-- Generated by graphviz version 7.0.4 (20221203.1631)
 -->
<!-- Title: G Pages: 1 -->
<svg width="554pt" height="290pt"
 viewBox="0.00 0.00 554.00 290.00" xmlns="http://www.w3.org/2000/svg" xmlns:xlink="http://www.w3.org/1999/xlink">
<g id="graph0" class="graph" transform="scale(1 1) rotate(0) translate(4 286)">
<title>G</title>
<polygon fill="white" stroke="none" points="-4,4 -4,-286 550,-286 550,4 -4,4"/>
<g id="clust1" class="cluster">
<title>cluster_option</title>
<polygon fill="none" stroke="black" points="8,-91 8,-238 368,-238 368,-91 8,-91"/>
<text text-anchor="middle" x="188" y="-222.8" font-family="Times,serif" font-size="14.00">option</text>
</g>
<g id="clust2" class="cluster">
<title>cluster_aggregator</title>
<polygon fill="none" stroke="black" points="376,-163 376,-238 538,-238 538,-163 376,-163"/>
<text text-anchor="middle" x="457" y="-222.8" font-family="Times,serif" font-size="14.00">aggregator</text>
</g>
<g id="clust3" class="cluster">
<title>cluster_vector</title>
<polygon fill="none" stroke="black" points="186,-8 186,-83 290,-83 290,-8 186,-8"/>
<text text-anchor="middle" x="238" y="-67.8" font-family="Times,serif" font-size="14.00">vector</text>
</g>
<!-- destroy_optional_aggregator -->
<g id="node1" class="node">
<title>destroy_optional_aggregator</title>
<ellipse fill="none" stroke="black" cx="302" cy="-264" rx="111.58" ry="18"/>
<text text-anchor="middle" x="302" y="-260.3" font-family="Times,serif" font-size="14.00">destroy_optional_aggregator</text>
</g>
<!-- option::borrow -->
<g id="node2" class="node">
<title>option::borrow</title>
<ellipse fill="none" stroke="black" cx="190" cy="-189" rx="36.29" ry="18"/>
<text text-anchor="middle" x="190" y="-185.3" font-family="Times,serif" font-size="14.00">borrow</text>
</g>
<!-- destroy_optional_aggregator&#45;&gt;option::borrow -->
<g id="edge1" class="edge">
<title>destroy_optional_aggregator&#45;&gt;option::borrow</title>
<path fill="none" stroke="black" d="M252.41,-247.49C246.33,-244.73 240.37,-241.58 235,-238 225.5,-231.68 216.57,-222.98 209.2,-214.73"/>
<polygon fill="black" stroke="black" points="211.98,-212.6 202.85,-207.23 206.64,-217.12 211.98,-212.6"/>
</g>
<!-- option::destroy_none -->
<g id="node3" class="node">
<title>option::destroy_none</title>
<ellipse fill="none" stroke="black" cx="302" cy="-189" rx="57.69" ry="18"/>
<text text-anchor="middle" x="302" y="-185.3" font-family="Times,serif" font-size="14.00">destroy_none</text>
</g>
<!-- destroy_optional_aggregator&#45;&gt;option::destroy_none -->
<g id="edge2" class="edge">
<title>destroy_optional_aggregator&#45;&gt;option::destroy_none</title>
<path fill="none" stroke="black" d="M302,-245.7C302,-237.67 302,-227.9 302,-218.8"/>
<polygon fill="black" stroke="black" points="305.5,-218.94 302,-208.94 298.5,-218.94 305.5,-218.94"/>
</g>
<!-- option::destroy_some -->
<g id="node4" class="node">
<title>option::destroy_some</title>
<ellipse fill="none" stroke="black" cx="76" cy="-189" rx="59.59" ry="18"/>
<text text-anchor="middle" x="76" y="-185.3" font-family="Times,serif" font-size="14.00">destroy_some</text>
</g>
<!-- destroy_optional_aggregator&#45;&gt;option::destroy_some -->
<g id="edge3" class="edge">
<title>destroy_optional_aggregator&#45;&gt;option::destroy_some</title>
<path fill="none" stroke="black" d="M205.5,-254.63C185.06,-250.94 163.95,-245.63 145,-238 130.26,-232.06 115.58,-222.49 103.57,-213.45"/>
<polygon fill="black" stroke="black" points="105.78,-210.74 95.75,-207.33 101.46,-216.25 105.78,-210.74"/>
</g>
<!-- aggregator::destroy -->
<g id="node5" class="node">
<title>aggregator::destroy</title>
<ellipse fill="none" stroke="black" cx="494" cy="-189" rx="36.29" ry="18"/>
<text text-anchor="middle" x="494" y="-185.3" font-family="Times,serif" font-size="14.00">destroy</text>
</g>
<!-- destroy_optional_aggregator&#45;&gt;aggregator::destroy -->
<g id="edge4" class="edge">
<title>destroy_optional_aggregator&#45;&gt;aggregator::destroy</title>
<path fill="none" stroke="black" d="M400.63,-255.32C417.41,-251.5 434.18,-245.96 449,-238 459.31,-232.46 468.57,-223.67 475.97,-215.12"/>
<polygon fill="black" stroke="black" points="478.47,-217.59 482.03,-207.62 473.03,-213.2 478.47,-217.59"/>
</g>
<!-- aggregator::limit -->
<g id="node6" class="node">
<title>aggregator::limit</title>
<ellipse fill="none" stroke="black" cx="412" cy="-189" rx="27.9" ry="18"/>
<text text-anchor="middle" x="412" y="-185.3" font-family="Times,serif" font-size="14.00">limit</text>
</g>
<!-- destroy_optional_aggregator&#45;&gt;aggregator::limit -->
<g id="edge5" class="edge">
<title>destroy_optional_aggregator&#45;&gt;aggregator::limit</title>
<path fill="none" stroke="black" d="M354.39,-247.83C360.58,-245.03 366.6,-241.77 372,-238 380.69,-231.93 388.58,-223.5 395.01,-215.39"/>
<polygon fill="black" stroke="black" points="397.79,-217.52 400.94,-207.4 392.17,-213.34 397.79,-217.52"/>
</g>
<!-- option::is_some -->
<g id="node7" class="node">
<title>option::is_some</title>
<ellipse fill="none" stroke="black" cx="190" cy="-117" rx="40.09" ry="18"/>
<text text-anchor="middle" x="190" y="-113.3" font-family="Times,serif" font-size="14.00">is_some</text>
</g>
<!-- option::borrow&#45;&gt;option::is_some -->
<g id="edge6" class="edge">
<title>option::borrow&#45;&gt;option::is_some</title>
<path fill="none" stroke="black" d="M190,-170.7C190,-163.41 190,-154.73 190,-146.54"/>
<polygon fill="black" stroke="black" points="193.5,-146.62 190,-136.62 186.5,-146.62 193.5,-146.62"/>
</g>
<!-- option::is_none -->
<g id="node8" class="node">
<title>option::is_none</title>
<ellipse fill="none" stroke="black" cx="294" cy="-117" rx="38.19" ry="18"/>
<text text-anchor="middle" x="294" y="-113.3" font-family="Times,serif" font-size="14.00">is_none</text>
</g>
<!-- option::destroy_none&#45;&gt;option::is_none -->
<g id="edge7" class="edge">
<title>option::destroy_none&#45;&gt;option::is_none</title>
<path fill="none" stroke="black" d="M300.02,-170.7C299.19,-163.41 298.2,-154.73 297.26,-146.54"/>
<polygon fill="black" stroke="black" points="300.74,-146.15 296.13,-136.61 293.78,-146.94 300.74,-146.15"/>
</g>
<!-- option::destroy_some&#45;&gt;option::is_some -->
<g id="edge8" class="edge">
<title>option::destroy_some&#45;&gt;option::is_some</title>
<path fill="none" stroke="black" d="M101.58,-172.29C118.2,-162.09 140,-148.7 157.79,-137.78"/>
<polygon fill="black" stroke="black" points="159.23,-141 165.92,-132.79 155.56,-135.04 159.23,-141"/>
</g>
<!-- vector::is_empty -->
<g id="node9" class="node">
<title>vector::is_empty</title>
<ellipse fill="none" stroke="black" cx="238" cy="-34" rx="43.59" ry="18"/>
<text text-anchor="middle" x="238" y="-30.3" font-family="Times,serif" font-size="14.00">is_empty</text>
</g>
<!-- option::is_some&#45;&gt;vector::is_empty -->
<g id="edge9" class="edge">
<title>option::is_some&#45;&gt;vector::is_empty</title>
<path fill="none" stroke="black" d="M199.95,-99.22C206.38,-88.36 214.9,-73.98 222.24,-61.59"/>
<polygon fill="black" stroke="black" points="225.21,-63.45 227.3,-53.06 219.19,-59.88 225.21,-63.45"/>
</g>
<!-- option::is_none&#45;&gt;vector::is_empty -->
<g id="edge10" class="edge">
<title>option::is_none&#45;&gt;vector::is_empty</title>
<path fill="none" stroke="black" d="M282.67,-99.61C274.98,-88.48 264.65,-73.54 255.86,-60.83"/>
<polygon fill="black" stroke="black" points="258.93,-59.13 250.37,-52.89 253.18,-63.11 258.93,-59.13"/>
</g>
</g>
</svg>
