<?xml version="1.0" encoding="UTF-8" standalone="no"?>
<!DOCTYPE svg PUBLIC "-//W3C//DTD SVG 1.1//EN"
 "http://www.w3.org/Graphics/SVG/1.1/DTD/svg11.dtd">
<!-- Generated by graphviz version 7.0.4 (20221203.1631)
 -->
<!-- Title: G Pages: 1 -->
<svg width="1527pt" height="548pt"
 viewBox="0.00 0.00 1527.44 548.00" xmlns="http://www.w3.org/2000/svg" xmlns:xlink="http://www.w3.org/1999/xlink">
<g id="graph0" class="graph" transform="scale(1 1) rotate(0) translate(4 544)">
<title>G</title>
<polygon fill="white" stroke="none" points="-4,4 -4,-544 1523.44,-544 1523.44,4 -4,4"/>
<!-- optional_aggregator -->
<g id="node1" class="node">
<title>optional_aggregator</title>
<ellipse fill="none" stroke="black" cx="951.04" cy="-18" rx="81.49" ry="18"/>
<text text-anchor="middle" x="951.04" y="-14.3" font-family="Times,serif" font-size="14.00">optional_aggregator</text>
</g>
<!-- coin -->
<g id="node2" class="node">
<title>coin</title>
<ellipse fill="none" stroke="black" cx="951.04" cy="-90" rx="27" ry="18"/>
<text text-anchor="middle" x="951.04" y="-86.3" font-family="Times,serif" font-size="14.00">coin</text>
</g>
<!-- coin&#45;&gt;optional_aggregator -->
<g id="edge1" class="edge">
<title>coin&#45;&gt;optional_aggregator</title>
<path fill="none" stroke="black" d="M951.04,-71.7C951.04,-64.41 951.04,-55.73 951.04,-47.54"/>
<polygon fill="black" stroke="black" points="954.54,-47.62 951.04,-37.62 947.54,-47.62 954.54,-47.62"/>
</g>
<!-- aptos_coin -->
<g id="node3" class="node">
<title>aptos_coin</title>
<ellipse fill="none" stroke="black" cx="874.04" cy="-162" rx="48.99" ry="18"/>
<text text-anchor="middle" x="874.04" y="-158.3" font-family="Times,serif" font-size="14.00">aptos_coin</text>
</g>
<!-- aptos_coin&#45;&gt;coin -->
<g id="edge2" class="edge">
<title>aptos_coin&#45;&gt;coin</title>
<path fill="none" stroke="black" d="M891.9,-144.76C902.45,-135.17 915.94,-122.91 927.37,-112.52"/>
<polygon fill="black" stroke="black" points="929.46,-115.35 934.5,-106.04 924.75,-110.17 929.46,-115.35"/>
</g>
<!-- aptos_account -->
<g id="node4" class="node">
<title>aptos_account</title>
<ellipse fill="none" stroke="black" cx="1078.04" cy="-234" rx="61.19" ry="18"/>
<text text-anchor="middle" x="1078.04" y="-230.3" font-family="Times,serif" font-size="14.00">aptos_account</text>
</g>
<!-- aptos_account&#45;&gt;coin -->
<g id="edge3" class="edge">
<title>aptos_account&#45;&gt;coin</title>
<path fill="none" stroke="black" d="M1062.97,-216.15C1040.35,-190.85 997.52,-142.97 971.9,-114.32"/>
<polygon fill="black" stroke="black" points="974.83,-112.35 965.56,-107.23 969.61,-117.02 974.83,-112.35"/>
</g>
<!-- aptos_account&#45;&gt;aptos_coin -->
<g id="edge13" class="edge">
<title>aptos_account&#45;&gt;aptos_coin</title>
<path fill="none" stroke="black" d="M1039.19,-219.67C1005.14,-207.99 955.62,-190.99 919.69,-178.66"/>
<polygon fill="black" stroke="black" points="921.03,-175.42 910.44,-175.49 918.76,-182.04 921.03,-175.42"/>
</g>
<!-- stake -->
<g id="node5" class="node">
<title>stake</title>
<ellipse fill="none" stroke="black" cx="732.04" cy="-234" rx="28.7" ry="18"/>
<text text-anchor="middle" x="732.04" y="-230.3" font-family="Times,serif" font-size="14.00">stake</text>
</g>
<!-- stake&#45;&gt;coin -->
<g id="edge4" class="edge">
<title>stake&#45;&gt;coin</title>
<path fill="none" stroke="black" d="M743.46,-217.15C758.25,-197.6 785.76,-164.46 816.04,-144 846.57,-123.37 886.31,-109.01 914.76,-100.49"/>
<polygon fill="black" stroke="black" points="915.72,-103.85 924.36,-97.72 913.78,-97.13 915.72,-103.85"/>
</g>
<!-- stake&#45;&gt;aptos_coin -->
<g id="edge14" class="edge">
<title>stake&#45;&gt;aptos_coin</title>
<path fill="none" stroke="black" d="M754.23,-222.06C775.89,-211.38 809.31,-194.91 835.35,-182.07"/>
<polygon fill="black" stroke="black" points="836.87,-185.23 844.29,-177.67 833.77,-178.95 836.87,-185.23"/>
</g>
<!-- transaction_fee -->
<g id="node6" class="node">
<title>transaction_fee</title>
<ellipse fill="none" stroke="black" cx="478.04" cy="-306" rx="64.19" ry="18"/>
<text text-anchor="middle" x="478.04" y="-302.3" font-family="Times,serif" font-size="14.00">transaction_fee</text>
</g>
<!-- transaction_fee&#45;&gt;coin -->
<g id="edge5" class="edge">
<title>transaction_fee&#45;&gt;coin</title>
<path fill="none" stroke="black" d="M481.02,-287.72C487.83,-253.94 507.9,-179.39 557.04,-144 613.4,-103.41 824.64,-93.88 912.42,-91.67"/>
<polygon fill="black" stroke="black" points="912.28,-95.17 922.2,-91.44 912.12,-88.17 912.28,-95.17"/>
</g>
<!-- transaction_fee&#45;&gt;aptos_coin -->
<g id="edge15" class="edge">
<title>transaction_fee&#45;&gt;aptos_coin</title>
<path fill="none" stroke="black" d="M510.93,-290.19C552.92,-271.57 628.05,-239.24 694.04,-216 737.48,-200.7 787.84,-186.14 824.22,-176.16"/>
<polygon fill="black" stroke="black" points="824.85,-179.62 833.58,-173.61 823.02,-172.86 824.85,-179.62"/>
</g>
<!-- transaction_fee&#45;&gt;stake -->
<g id="edge23" class="edge">
<title>transaction_fee&#45;&gt;stake</title>
<path fill="none" stroke="black" d="M522.58,-292.73C571.63,-279.21 649.6,-257.72 695.3,-245.12"/>
<polygon fill="black" stroke="black" points="696.02,-248.56 704.73,-242.53 694.16,-241.81 696.02,-248.56"/>
</g>
<!-- aptos_governance -->
<g id="node7" class="node">
<title>aptos_governance</title>
<ellipse fill="none" stroke="black" cx="735.04" cy="-450" rx="74.19" ry="18"/>
<text text-anchor="middle" x="735.04" y="-446.3" font-family="Times,serif" font-size="14.00">aptos_governance</text>
</g>
<!-- aptos_governance&#45;&gt;coin -->
<g id="edge6" class="edge">
<title>aptos_governance&#45;&gt;coin</title>
<path fill="none" stroke="black" d="M694.92,-434.62C646.37,-414.34 571.04,-372.34 571.04,-307 571.04,-307 571.04,-307 571.04,-233 571.04,-160.41 817.46,-112.65 913.43,-96.8"/>
<polygon fill="black" stroke="black" points="913.82,-100.28 923.13,-95.22 912.7,-93.37 913.82,-100.28"/>
</g>
<!-- aptos_governance&#45;&gt;aptos_coin -->
<g id="edge16" class="edge">
<title>aptos_governance&#45;&gt;aptos_coin</title>
<path fill="none" stroke="black" d="M743.32,-431.97C766.55,-384.18 832.47,-248.54 860.82,-190.22"/>
<polygon fill="black" stroke="black" points="863.92,-191.83 865.15,-181.31 857.63,-188.77 863.92,-191.83"/>
</g>
<!-- aptos_governance&#45;&gt;stake -->
<g id="edge25" class="edge">
<title>aptos_governance&#45;&gt;stake</title>
<path fill="none" stroke="black" d="M728.22,-431.99C717.32,-402.52 698.22,-340.12 709.04,-288 710.91,-278.99 714.4,-269.62 718.1,-261.32"/>
<polygon fill="black" stroke="black" points="721.16,-263.03 722.32,-252.5 714.85,-260.01 721.16,-263.03"/>
</g>
<!-- reconfiguration -->
<g id="node14" class="node">
<title>reconfiguration</title>
<ellipse fill="none" stroke="black" cx="478.04" cy="-378" rx="64.99" ry="18"/>
<text text-anchor="middle" x="478.04" y="-374.3" font-family="Times,serif" font-size="14.00">reconfiguration</text>
</g>
<!-- aptos_governance&#45;&gt;reconfiguration -->
<g id="edge42" class="edge">
<title>aptos_governance&#45;&gt;reconfiguration</title>
<path fill="none" stroke="black" d="M687,-435.92C643.65,-424.11 579.85,-406.73 534.17,-394.29"/>
<polygon fill="black" stroke="black" points="535.29,-390.96 524.72,-391.71 533.45,-397.72 535.29,-390.96"/>
</g>
<!-- staking_contract -->
<g id="node8" class="node">
<title>staking_contract</title>
<ellipse fill="none" stroke="black" cx="972.04" cy="-306" rx="68.79" ry="18"/>
<text text-anchor="middle" x="972.04" y="-302.3" font-family="Times,serif" font-size="14.00">staking_contract</text>
</g>
<!-- staking_contract&#45;&gt;coin -->
<g id="edge7" class="edge">
<title>staking_contract&#45;&gt;coin</title>
<path fill="none" stroke="black" d="M970.36,-287.85C966.76,-251.14 958.27,-164.66 953.84,-119.53"/>
<polygon fill="black" stroke="black" points="957.34,-119.35 952.88,-109.74 950.37,-120.03 957.34,-119.35"/>
</g>
<!-- staking_contract&#45;&gt;aptos_coin -->
<g id="edge17" class="edge">
<title>staking_contract&#45;&gt;aptos_coin</title>
<path fill="none" stroke="black" d="M960.22,-287.87C943.28,-263.33 911.96,-217.94 892.1,-189.17"/>
<polygon fill="black" stroke="black" points="895.02,-187.24 886.46,-180.99 889.26,-191.21 895.02,-187.24"/>
</g>
<!-- staking_contract&#45;&gt;stake -->
<g id="edge27" class="edge">
<title>staking_contract&#45;&gt;stake</title>
<path fill="none" stroke="black" d="M927.18,-291.92C881.45,-278.58 811.35,-258.13 768.79,-245.72"/>
<polygon fill="black" stroke="black" points="769.85,-242.38 759.27,-242.94 767.89,-249.1 769.85,-242.38"/>
</g>
<!-- vesting -->
<g id="node9" class="node">
<title>vesting</title>
<ellipse fill="none" stroke="black" cx="1069.04" cy="-378" rx="36.29" ry="18"/>
<text text-anchor="middle" x="1069.04" y="-374.3" font-family="Times,serif" font-size="14.00">vesting</text>
</g>
<!-- vesting&#45;&gt;coin -->
<g id="edge8" class="edge">
<title>vesting&#45;&gt;coin</title>
<path fill="none" stroke="black" d="M1102.18,-370.14C1181.12,-352.26 1369.39,-299.75 1310.04,-216 1235.61,-110.97 1066.17,-93.42 989.73,-91.02"/>
<polygon fill="black" stroke="black" points="989.88,-87.52 979.8,-90.79 989.72,-94.52 989.88,-87.52"/>
</g>
<!-- vesting&#45;&gt;aptos_coin -->
<g id="edge18" class="edge">
<title>vesting&#45;&gt;aptos_coin</title>
<path fill="none" stroke="black" d="M1068.98,-359.51C1068.12,-340.46 1064.37,-309.78 1050.04,-288 1040.63,-273.68 954.83,-216.02 906.6,-184.25"/>
<polygon fill="black" stroke="black" points="908.74,-181.48 898.46,-178.91 904.9,-187.33 908.74,-181.48"/>
</g>
<!-- vesting&#45;&gt;aptos_account -->
<g id="edge22" class="edge">
<title>vesting&#45;&gt;aptos_account</title>
<path fill="none" stroke="black" d="M1074.72,-360.04C1077.86,-349.74 1081.45,-336.27 1083.04,-324 1085.64,-304.02 1084.3,-281.35 1082.36,-263.88"/>
<polygon fill="black" stroke="black" points="1085.83,-263.45 1081.11,-253.97 1078.89,-264.32 1085.83,-263.45"/>
</g>
<!-- vesting&#45;&gt;stake -->
<g id="edge28" class="edge">
<title>vesting&#45;&gt;stake</title>
<path fill="none" stroke="black" d="M1036.73,-369.37C1001.06,-360.46 942.32,-344.31 894.04,-324 845.47,-303.56 792.55,-272.72 760.84,-253.23"/>
<polygon fill="black" stroke="black" points="762.96,-250.43 752.62,-248.13 759.27,-256.38 762.96,-250.43"/>
</g>
<!-- vesting&#45;&gt;staking_contract -->
<g id="edge36" class="edge">
<title>vesting&#45;&gt;staking_contract</title>
<path fill="none" stroke="black" d="M1049.41,-362.83C1036.3,-353.37 1018.76,-340.72 1003.7,-329.85"/>
<polygon fill="black" stroke="black" points="1006.09,-327.25 995.93,-324.24 1001.99,-332.93 1006.09,-327.25"/>
</g>
<!-- transaction_validation -->
<g id="node10" class="node">
<title>transaction_validation</title>
<ellipse fill="none" stroke="black" cx="89.04" cy="-378" rx="89.08" ry="18"/>
<text text-anchor="middle" x="89.04" y="-374.3" font-family="Times,serif" font-size="14.00">transaction_validation</text>
</g>
<!-- transaction_validation&#45;&gt;coin -->
<g id="edge9" class="edge">
<title>transaction_validation&#45;&gt;coin</title>
<path fill="none" stroke="black" d="M117.54,-360.48C148.88,-342.41 200.81,-312.7 246.04,-288 366.79,-222.07 388.74,-185.06 520.04,-144 659.71,-100.32 835.38,-92.41 912.15,-91.14"/>
<polygon fill="black" stroke="black" points="912.13,-94.64 922.08,-91 912.04,-87.64 912.13,-94.64"/>
</g>
<!-- transaction_validation&#45;&gt;aptos_coin -->
<g id="edge19" class="edge">
<title>transaction_validation&#45;&gt;aptos_coin</title>
<path fill="none" stroke="black" d="M131.73,-361.77C218.98,-331.05 424.46,-260.75 601.04,-216 675.54,-197.12 762.94,-181.23 818.4,-171.91"/>
<polygon fill="black" stroke="black" points="818.95,-175.36 828.24,-170.27 817.8,-168.46 818.95,-175.36"/>
</g>
<!-- transaction_validation&#45;&gt;transaction_fee -->
<g id="edge33" class="edge">
<title>transaction_validation&#45;&gt;transaction_fee</title>
<path fill="none" stroke="black" d="M153.71,-365.36C225.9,-352.37 341.99,-331.48 413.94,-318.53"/>
<polygon fill="black" stroke="black" points="414.39,-322.01 423.61,-316.8 413.15,-315.12 414.39,-322.01"/>
</g>
<!-- genesis -->
<g id="node11" class="node">
<title>genesis</title>
<ellipse fill="none" stroke="black" cx="569.04" cy="-522" rx="36.29" ry="18"/>
<text text-anchor="middle" x="569.04" y="-518.3" font-family="Times,serif" font-size="14.00">genesis</text>
</g>
<!-- genesis&#45;&gt;coin -->
<g id="edge10" class="edge">
<title>genesis&#45;&gt;coin</title>
<path fill="none" stroke="black" d="M605.59,-519.96C691.39,-516.93 912.07,-505.79 1092.04,-468 1217.76,-441.6 1367.04,-507.46 1367.04,-379 1367.04,-379 1367.04,-379 1367.04,-233 1367.04,-172.5 1318.78,-169.78 1264.04,-144 1172.42,-100.85 1051.07,-92.34 989.87,-90.97"/>
<polygon fill="black" stroke="black" points="990.03,-87.47 979.97,-90.81 989.91,-94.47 990.03,-87.47"/>
</g>
<!-- genesis&#45;&gt;aptos_coin -->
<g id="edge20" class="edge">
<title>genesis&#45;&gt;aptos_coin</title>
<path fill="none" stroke="black" d="M604.72,-517.93C668.77,-511.77 799.82,-496.05 835.04,-468 868.97,-440.98 875.04,-422.37 875.04,-379 875.04,-379 875.04,-379 875.04,-305 875.04,-265.74 874.66,-220.37 874.36,-191.69"/>
<polygon fill="black" stroke="black" points="877.87,-191.96 874.26,-182 870.87,-192.04 877.87,-191.96"/>
</g>
<!-- genesis&#45;&gt;stake -->
<g id="edge29" class="edge">
<title>genesis&#45;&gt;stake</title>
<path fill="none" stroke="black" d="M604.89,-518.76C667.26,-514.02 791.62,-500.63 818.04,-468 828.11,-455.56 821.31,-447.66 818.04,-432 810.86,-397.58 767.64,-307.07 745.34,-261.71"/>
<polygon fill="black" stroke="black" points="748.52,-260.24 740.95,-252.83 742.24,-263.34 748.52,-260.24"/>
</g>
<!-- genesis&#45;&gt;transaction_fee -->
<g id="edge34" class="edge">
<title>genesis&#45;&gt;transaction_fee</title>
<path fill="none" stroke="black" d="M532.69,-519.15C434.84,-513.81 171.51,-496.86 146.04,-468 135.46,-456 137.56,-445.56 146.04,-432 175.69,-384.6 330.25,-341.57 417.65,-320.54"/>
<polygon fill="black" stroke="black" points="418.35,-323.98 427.27,-318.26 416.73,-317.17 418.35,-323.98"/>
</g>
<!-- genesis&#45;&gt;aptos_governance -->
<g id="edge35" class="edge">
<title>genesis&#45;&gt;aptos_governance</title>
<path fill="none" stroke="black" d="M596.08,-509.6C621.04,-499.07 658.63,-483.22 688.42,-470.66"/>
<polygon fill="black" stroke="black" points="689.76,-473.89 697.61,-466.78 687.04,-467.44 689.76,-473.89"/>
</g>
<!-- genesis&#45;&gt;staking_contract -->
<g id="edge37" class="edge">
<title>genesis&#45;&gt;staking_contract</title>
<path fill="none" stroke="black" d="M605.34,-519.04C679.3,-514.4 844.26,-500.61 889.04,-468 933.54,-435.59 955.99,-372.22 965.74,-335.39"/>
<polygon fill="black" stroke="black" points="969.08,-336.45 968.11,-325.9 962.29,-334.76 969.08,-336.45"/>
</g>
<!-- genesis&#45;&gt;vesting -->
<g id="edge39" class="edge">
<title>genesis&#45;&gt;vesting</title>
<path fill="none" stroke="black" d="M605.36,-519.92C715.62,-516.27 1040.87,-502.63 1072.04,-468 1086.59,-451.84 1084.25,-426.58 1079.19,-407.1"/>
<polygon fill="black" stroke="black" points="1082.56,-406.15 1076.34,-397.57 1075.85,-408.16 1082.56,-406.15"/>
</g>
<!-- genesis&#45;&gt;transaction_validation -->
<g id="edge41" class="edge">
<title>genesis&#45;&gt;transaction_validation</title>
<path fill="none" stroke="black" d="M532.87,-519.11C430.6,-513.44 144.69,-495.29 113.04,-468 95.9,-453.22 90.37,-427.6 88.86,-407.63"/>
<polygon fill="black" stroke="black" points="92.37,-407.72 88.44,-397.88 85.37,-408.02 92.37,-407.72"/>
</g>
<!-- genesis&#45;&gt;reconfiguration -->
<g id="edge47" class="edge">
<title>genesis&#45;&gt;reconfiguration</title>
<path fill="none" stroke="black" d="M540.62,-510.32C522.12,-501.8 499.25,-487.96 487.04,-468 476.07,-450.07 474.19,-426.22 474.85,-407.72"/>
<polygon fill="black" stroke="black" points="478.33,-408.17 475.48,-397.97 471.34,-407.72 478.33,-408.17"/>
</g>
<!-- block -->
<g id="node15" class="node">
<title>block</title>
<ellipse fill="none" stroke="black" cx="186.04" cy="-450" rx="30.59" ry="18"/>
<text text-anchor="middle" x="186.04" y="-446.3" font-family="Times,serif" font-size="14.00">block</text>
</g>
<!-- genesis&#45;&gt;block -->
<g id="edge48" class="edge">
<title>genesis&#45;&gt;block</title>
<path fill="none" stroke="black" d="M532.98,-518.52C469.6,-513.49 334.59,-499.74 225.04,-468 223.32,-467.5 221.57,-466.94 219.82,-466.34"/>
<polygon fill="black" stroke="black" points="221.19,-463.12 210.6,-462.8 218.68,-469.65 221.19,-463.12"/>
</g>
<!-- consensus_config -->
<g id="node17" class="node">
<title>consensus_config</title>
<ellipse fill="none" stroke="black" cx="569.04" cy="-450" rx="73.39" ry="18"/>
<text text-anchor="middle" x="569.04" y="-446.3" font-family="Times,serif" font-size="14.00">consensus_config</text>
</g>
<!-- genesis&#45;&gt;consensus_config -->
<g id="edge49" class="edge">
<title>genesis&#45;&gt;consensus_config</title>
<path fill="none" stroke="black" d="M569.04,-503.7C569.04,-496.41 569.04,-487.73 569.04,-479.54"/>
<polygon fill="black" stroke="black" points="572.54,-479.62 569.04,-469.62 565.54,-479.62 572.54,-479.62"/>
</g>
<!-- gas_schedule -->
<g id="node18" class="node">
<title>gas_schedule</title>
<ellipse fill="none" stroke="black" cx="292.04" cy="-450" rx="57.69" ry="18"/>
<text text-anchor="middle" x="292.04" y="-446.3" font-family="Times,serif" font-size="14.00">gas_schedule</text>
</g>
<!-- genesis&#45;&gt;gas_schedule -->
<g id="edge50" class="edge">
<title>genesis&#45;&gt;gas_schedule</title>
<path fill="none" stroke="black" d="M537.02,-512.93C495.84,-502.55 422.1,-483.96 359.04,-468 355.02,-466.98 350.87,-465.93 346.69,-464.87"/>
<polygon fill="black" stroke="black" points="347.67,-461.51 337.12,-462.44 345.95,-468.3 347.67,-461.51"/>
</g>
<!-- version -->
<g id="node19" class="node">
<title>version</title>
<ellipse fill="none" stroke="black" cx="404.04" cy="-450" rx="36.29" ry="18"/>
<text text-anchor="middle" x="404.04" y="-446.3" font-family="Times,serif" font-size="14.00">version</text>
</g>
<!-- genesis&#45;&gt;version -->
<g id="edge51" class="edge">
<title>genesis&#45;&gt;version</title>
<path fill="none" stroke="black" d="M542.16,-509.6C514.72,-497.95 471.9,-479.79 441.21,-466.77"/>
<polygon fill="black" stroke="black" points="442.87,-463.67 432.3,-462.99 440.14,-470.12 442.87,-463.67"/>
</g>
<!-- managed_coin -->
<g id="node12" class="node">
<title>managed_coin</title>
<ellipse fill="none" stroke="black" cx="1457.04" cy="-162" rx="62.29" ry="18"/>
<text text-anchor="middle" x="1457.04" y="-158.3" font-family="Times,serif" font-size="14.00">managed_coin</text>
</g>
<!-- managed_coin&#45;&gt;coin -->
<g id="edge11" class="edge">
<title>managed_coin&#45;&gt;coin</title>
<path fill="none" stroke="black" d="M1410.16,-149.76C1400.56,-147.67 1390.5,-145.64 1381.04,-144 1237.17,-119.1 1064.25,-101.49 989.05,-94.43"/>
<polygon fill="black" stroke="black" points="989.63,-90.97 979.35,-93.53 988.99,-97.94 989.63,-90.97"/>
</g>
<!-- resource_account -->
<g id="node13" class="node">
<title>resource_account</title>
<ellipse fill="none" stroke="black" cx="1229.04" cy="-234" rx="72.29" ry="18"/>
<text text-anchor="middle" x="1229.04" y="-230.3" font-family="Times,serif" font-size="14.00">resource_account</text>
</g>
<!-- resource_account&#45;&gt;coin -->
<g id="edge12" class="edge">
<title>resource_account&#45;&gt;coin</title>
<path fill="none" stroke="black" d="M1198.23,-217.26C1144.82,-189.98 1035.63,-134.21 982.07,-106.85"/>
<polygon fill="black" stroke="black" points="983.98,-103.89 973.48,-102.46 980.8,-110.13 983.98,-103.89"/>
</g>
<!-- resource_account&#45;&gt;aptos_coin -->
<g id="edge21" class="edge">
<title>resource_account&#45;&gt;aptos_coin</title>
<path fill="none" stroke="black" d="M1175.48,-221.63C1166.33,-219.73 1156.92,-217.79 1148.04,-216 1071.78,-200.62 983.38,-183.68 928.08,-173.19"/>
<polygon fill="black" stroke="black" points="928.76,-169.76 918.28,-171.34 927.46,-176.64 928.76,-169.76"/>
</g>
<!-- reconfiguration&#45;&gt;stake -->
<g id="edge24" class="edge">
<title>reconfiguration&#45;&gt;stake</title>
<path fill="none" stroke="black" d="M523.2,-364.77C552.71,-355.76 591.48,-341.97 623.04,-324 640.69,-313.95 681.37,-279.44 707.73,-256.46"/>
<polygon fill="black" stroke="black" points="709.71,-259.38 714.93,-250.16 705.1,-254.11 709.71,-259.38"/>
</g>
<!-- reconfiguration&#45;&gt;transaction_fee -->
<g id="edge31" class="edge">
<title>reconfiguration&#45;&gt;transaction_fee</title>
<path fill="none" stroke="black" d="M478.04,-359.7C478.04,-352.41 478.04,-343.73 478.04,-335.54"/>
<polygon fill="black" stroke="black" points="481.54,-335.62 478.04,-325.62 474.54,-335.62 481.54,-335.62"/>
</g>
<!-- block&#45;&gt;stake -->
<g id="edge26" class="edge">
<title>block&#45;&gt;stake</title>
<path fill="none" stroke="black" d="M209.78,-438.1C214.78,-435.97 220.05,-433.82 225.04,-432 277.75,-412.75 294.86,-419 346.04,-396 373.72,-383.56 376.07,-371.75 404.04,-360 466.05,-333.94 487.9,-347.19 551.04,-324 584.63,-311.67 590.95,-303.82 623.04,-288 648.71,-275.34 677.88,-261.17 699.57,-250.67"/>
<polygon fill="black" stroke="black" points="701.04,-253.85 708.52,-246.35 697.99,-247.55 701.04,-253.85"/>
</g>
<!-- block&#45;&gt;transaction_fee -->
<g id="edge32" class="edge">
<title>block&#45;&gt;transaction_fee</title>
<path fill="none" stroke="black" d="M208.95,-437.86C258.14,-413.94 374.42,-357.39 436.8,-327.06"/>
<polygon fill="black" stroke="black" points="438.24,-330.25 445.7,-322.73 435.18,-323.95 438.24,-330.25"/>
</g>
<!-- block&#45;&gt;reconfiguration -->
<g id="edge43" class="edge">
<title>block&#45;&gt;reconfiguration</title>
<path fill="none" stroke="black" d="M209.25,-437.95C214.38,-435.77 219.83,-433.65 225.04,-432 300.31,-408.09 321.77,-412.31 399.04,-396 404.88,-394.77 410.95,-393.48 417.02,-392.18"/>
<polygon fill="black" stroke="black" points="417.38,-395.68 426.42,-390.17 415.91,-388.84 417.38,-395.68"/>
</g>
<!-- staking_proxy -->
<g id="node16" class="node">
<title>staking_proxy</title>
<ellipse fill="none" stroke="black" cx="1002.04" cy="-450" rx="61.19" ry="18"/>
<text text-anchor="middle" x="1002.04" y="-446.3" font-family="Times,serif" font-size="14.00">staking_proxy</text>
</g>
<!-- staking_proxy&#45;&gt;stake -->
<g id="edge30" class="edge">
<title>staking_proxy&#45;&gt;stake</title>
<path fill="none" stroke="black" d="M975.54,-433.4C938.66,-411.16 870.49,-368.14 818.04,-324 794.03,-303.79 769.41,-277.66 752.71,-258.95"/>
<polygon fill="black" stroke="black" points="755.42,-256.74 746.18,-251.56 750.17,-261.37 755.42,-256.74"/>
</g>
<!-- staking_proxy&#45;&gt;staking_contract -->
<g id="edge38" class="edge">
<title>staking_proxy&#45;&gt;staking_contract</title>
<path fill="none" stroke="black" d="M998.36,-431.59C993.28,-407.5 984.03,-363.75 977.96,-335.03"/>
<polygon fill="black" stroke="black" points="981.46,-334.65 975.97,-325.59 974.61,-336.1 981.46,-334.65"/>
</g>
<!-- staking_proxy&#45;&gt;vesting -->
<g id="edge40" class="edge">
<title>staking_proxy&#45;&gt;vesting</title>
<path fill="none" stroke="black" d="M1017.92,-432.41C1026.42,-423.53 1037.04,-412.44 1046.39,-402.67"/>
<polygon fill="black" stroke="black" points="1048.76,-405.25 1053.15,-395.6 1043.71,-400.41 1048.76,-405.25"/>
</g>
<!-- consensus_config&#45;&gt;reconfiguration -->
<g id="edge44" class="edge">
<title>consensus_config&#45;&gt;reconfiguration</title>
<path fill="none" stroke="black" d="M547.48,-432.41C535.8,-423.43 521.19,-412.19 508.39,-402.34"/>
<polygon fill="black" stroke="black" points="510.71,-399.72 500.65,-396.39 506.44,-405.26 510.71,-399.72"/>
</g>
<!-- gas_schedule&#45;&gt;reconfiguration -->
<g id="edge45" class="edge">
<title>gas_schedule&#45;&gt;reconfiguration</title>
<path fill="none" stroke="black" d="M327.9,-435.5C357.02,-424.55 398.34,-409 430.26,-396.98"/>
<polygon fill="black" stroke="black" points="431.15,-400.39 439.28,-393.59 428.69,-393.83 431.15,-400.39"/>
</g>
<!-- version&#45;&gt;reconfiguration -->
<g id="edge46" class="edge">
<title>version&#45;&gt;reconfiguration</title>
<path fill="none" stroke="black" d="M420.47,-433.46C429.81,-424.63 441.71,-413.37 452.27,-403.38"/>
<polygon fill="black" stroke="black" points="454.41,-406.17 459.27,-396.75 449.6,-401.08 454.41,-406.17"/>
</g>
</g>
</svg>
