<?xml version="1.0" encoding="UTF-8" standalone="no"?>
<!DOCTYPE svg PUBLIC "-//W3C//DTD SVG 1.1//EN"
 "http://www.w3.org/Graphics/SVG/1.1/DTD/svg11.dtd">
<!-- Generated by graphviz version 7.0.4 (20221203.1631)
 -->
<!-- Title: G Pages: 1 -->
<svg width="340pt" height="290pt"
 viewBox="0.00 0.00 339.60 290.00" xmlns="http://www.w3.org/2000/svg" xmlns:xlink="http://www.w3.org/1999/xlink">
<g id="graph0" class="graph" transform="scale(1 1) rotate(0) translate(4 286)">
<title>G</title>
<polygon fill="white" stroke="none" points="-4,4 -4,-286 335.6,-286 335.6,4 -4,4"/>
<g id="clust1" class="cluster">
<title>cluster_option</title>
<polygon fill="none" stroke="black" points="12,-91 12,-238 108,-238 108,-91 12,-91"/>
<text text-anchor="middle" x="60" y="-222.8" font-family="Times,serif" font-size="14.00">option</text>
</g>
<g id="clust2" class="cluster">
<title>cluster_aggregator</title>
<polygon fill="none" stroke="black" points="140,-163 140,-238 214,-238 214,-163 140,-163"/>
<text text-anchor="middle" x="177" y="-222.8" font-family="Times,serif" font-size="14.00">aggregator</text>
</g>
<g id="clust3" class="cluster">
<title>cluster_vector</title>
<polygon fill="none" stroke="black" points="8,-8 8,-83 112,-83 112,-8 8,-8"/>
<text text-anchor="middle" x="60" y="-67.8" font-family="Times,serif" font-size="14.00">vector</text>
</g>
<!-- read -->
<g id="node1" class="node">
<title>read</title>
<ellipse fill="none" stroke="black" cx="149" cy="-264" rx="27" ry="18"/>
<text text-anchor="middle" x="149" y="-260.3" font-family="Times,serif" font-size="14.00">read</text>
</g>
<!-- option::borrow -->
<g id="node2" class="node">
<title>option::borrow</title>
<ellipse fill="none" stroke="black" cx="58" cy="-189" rx="36.29" ry="18"/>
<text text-anchor="middle" x="58" y="-185.3" font-family="Times,serif" font-size="14.00">borrow</text>
</g>
<!-- read&#45;&gt;option::borrow -->
<g id="edge1" class="edge">
<title>read&#45;&gt;option::borrow</title>
<path fill="none" stroke="black" d="M128.82,-251.88C122,-247.82 114.47,-242.99 108,-238 98.52,-230.7 88.86,-221.83 80.59,-213.7"/>
<polygon fill="black" stroke="black" points="83.14,-211.31 73.61,-206.68 78.18,-216.24 83.14,-211.31"/>
</g>
<!-- option::is_some -->
<g id="node3" class="node">
<title>option::is_some</title>
<ellipse fill="none" stroke="black" cx="60" cy="-117" rx="40.09" ry="18"/>
<text text-anchor="middle" x="60" y="-113.3" font-family="Times,serif" font-size="14.00">is_some</text>
</g>
<!-- read&#45;&gt;option::is_some -->
<g id="edge2" class="edge">
<title>read&#45;&gt;option::is_some</title>
<path fill="none" stroke="black" d="M140.32,-246.67C138.84,-243.8 137.35,-240.82 136,-238 120.26,-205.16 123.22,-193.29 103,-163 97.94,-155.42 91.54,-147.94 85.24,-141.33"/>
<polygon fill="black" stroke="black" points="88.02,-139.16 78.49,-134.55 83.06,-144.1 88.02,-139.16"/>
</g>
<!-- aggregator::read -->
<g id="node4" class="node">
<title>aggregator::read</title>
<ellipse fill="none" stroke="black" cx="177" cy="-189" rx="27" ry="18"/>
<text text-anchor="middle" x="177" y="-185.3" font-family="Times,serif" font-size="14.00">read</text>
</g>
<!-- read&#45;&gt;aggregator::read -->
<g id="edge3" class="edge">
<title>read&#45;&gt;aggregator::read</title>
<path fill="none" stroke="black" d="M155.49,-246.07C158.75,-237.59 162.76,-227.12 166.44,-217.52"/>
<polygon fill="black" stroke="black" points="169.69,-218.84 170,-208.25 163.15,-216.34 169.69,-218.84"/>
</g>
<!-- read_integer -->
<g id="node5" class="node">
<title>read_integer</title>
<ellipse fill="none" stroke="black" cx="277" cy="-189" rx="54.69" ry="18"/>
<text text-anchor="middle" x="277" y="-185.3" font-family="Times,serif" font-size="14.00">read_integer</text>
</g>
<!-- read&#45;&gt;read_integer -->
<g id="edge4" class="edge">
<title>read&#45;&gt;read_integer</title>
<path fill="none" stroke="black" d="M173.83,-256.23C187.37,-251.99 204.14,-245.85 218,-238 229.79,-231.32 241.6,-222.29 251.53,-213.86"/>
<polygon fill="black" stroke="black" points="253.72,-216.6 258.93,-207.37 249.1,-211.34 253.72,-216.6"/>
</g>
<!-- option::borrow&#45;&gt;option::is_some -->
<g id="edge5" class="edge">
<title>option::borrow&#45;&gt;option::is_some</title>
<path fill="none" stroke="black" d="M58.49,-170.7C58.7,-163.41 58.95,-154.73 59.18,-146.54"/>
<polygon fill="black" stroke="black" points="62.68,-146.71 59.47,-136.62 55.68,-146.51 62.68,-146.71"/>
</g>
<!-- vector::is_empty -->
<g id="node6" class="node">
<title>vector::is_empty</title>
<ellipse fill="none" stroke="black" cx="60" cy="-34" rx="43.59" ry="18"/>
<text text-anchor="middle" x="60" y="-30.3" font-family="Times,serif" font-size="14.00">is_empty</text>
</g>
<!-- option::is_some&#45;&gt;vector::is_empty -->
<g id="edge6" class="edge">
<title>option::is_some&#45;&gt;vector::is_empty</title>
<path fill="none" stroke="black" d="M60,-98.82C60,-88.69 60,-75.6 60,-63.92"/>
<polygon fill="black" stroke="black" points="63.5,-63.95 60,-53.95 56.5,-63.95 63.5,-63.95"/>
</g>
</g>
</svg>
