<?xml version="1.0" encoding="UTF-8" standalone="no"?>
<!DOCTYPE svg PUBLIC "-//W3C//DTD SVG 1.1//EN"
 "http://www.w3.org/Graphics/SVG/1.1/DTD/svg11.dtd">
<!-- Generated by graphviz version 7.0.4 (20221203.1631)
 -->
<!-- Title: G Pages: 1 -->
<svg width="622pt" height="293pt"
 viewBox="0.00 0.00 621.64 293.00" xmlns="http://www.w3.org/2000/svg" xmlns:xlink="http://www.w3.org/1999/xlink">
<g id="graph0" class="graph" transform="scale(1 1) rotate(0) translate(4 289)">
<title>G</title>
<polygon fill="white" stroke="none" points="-4,4 -4,-289 617.64,-289 617.64,4 -4,4"/>
<g id="clust2" class="cluster">
<title>cluster_aggregator_factory</title>
<polygon fill="none" stroke="black" points="172,-91 172,-241 398,-241 398,-91 172,-91"/>
<text text-anchor="middle" x="285" y="-225.8" font-family="Times,serif" font-size="14.00">aggregator_factory</text>
</g>
<g id="clust1" class="cluster">
<title>cluster_option</title>
<polygon fill="none" stroke="black" points="8,-91 8,-241 164,-241 164,-91 8,-91"/>
<text text-anchor="middle" x="86" y="-225.8" font-family="Times,serif" font-size="14.00">option</text>
</g>
<g id="clust3" class="cluster">
<title>cluster_vector</title>
<polygon fill="none" stroke="black" points="39,-8 39,-83 143,-83 143,-8 39,-8"/>
<text text-anchor="middle" x="91" y="-67.8" font-family="Times,serif" font-size="14.00">vector</text>
</g>
<g id="clust4" class="cluster">
<title>cluster_error</title>
<polygon fill="none" stroke="black" points="406,-8 406,-166 516,-166 516,-8 406,-8"/>
<text text-anchor="middle" x="461" y="-150.8" font-family="Times,serif" font-size="14.00">error</text>
</g>
<!-- switch_to_aggregator_and_zero_out -->
<g id="node1" class="node">
<title>switch_to_aggregator_and_zero_out</title>
<ellipse fill="none" stroke="black" cx="285" cy="-267" rx="139.18" ry="18"/>
<text text-anchor="middle" x="285" y="-263.3" font-family="Times,serif" font-size="14.00">switch_to_aggregator_and_zero_out</text>
</g>
<!-- option::extract -->
<g id="node2" class="node">
<title>option::extract</title>
<ellipse fill="none" stroke="black" cx="50" cy="-192" rx="34.39" ry="18"/>
<text text-anchor="middle" x="50" y="-188.3" font-family="Times,serif" font-size="14.00">extract</text>
</g>
<!-- switch_to_aggregator_and_zero_out&#45;&gt;option::extract -->
<g id="edge1" class="edge">
<title>switch_to_aggregator_and_zero_out&#45;&gt;option::extract</title>
<path fill="none" stroke="black" d="M166.41,-257.24C135.32,-253.46 106.68,-248.21 93,-241 82.97,-235.72 74.14,-227.09 67.14,-218.6"/>
<polygon fill="black" stroke="black" points="70.04,-216.64 61.2,-210.81 64.47,-220.88 70.04,-216.64"/>
</g>
<!-- option::fill -->
<g id="node3" class="node">
<title>option::fill</title>
<ellipse fill="none" stroke="black" cx="129" cy="-192" rx="27" ry="18"/>
<text text-anchor="middle" x="129" y="-188.3" font-family="Times,serif" font-size="14.00">fill</text>
</g>
<!-- switch_to_aggregator_and_zero_out&#45;&gt;option::fill -->
<g id="edge2" class="edge">
<title>switch_to_aggregator_and_zero_out&#45;&gt;option::fill</title>
<path fill="none" stroke="black" d="M193.82,-252.99C184.75,-249.82 175.97,-245.88 168,-241 158.92,-235.44 151.02,-226.98 144.75,-218.71"/>
<polygon fill="black" stroke="black" points="147.62,-216.7 139.03,-210.5 141.88,-220.71 147.62,-216.7"/>
</g>
<!-- aggregator_factory::create_aggregator_internal -->
<g id="node4" class="node">
<title>aggregator_factory::create_aggregator_internal</title>
<ellipse fill="none" stroke="black" cx="285" cy="-192" rx="104.78" ry="18"/>
<text text-anchor="middle" x="285" y="-188.3" font-family="Times,serif" font-size="14.00">create_aggregator_internal</text>
</g>
<!-- switch_to_aggregator_and_zero_out&#45;&gt;aggregator_factory::create_aggregator_internal -->
<g id="edge3" class="edge">
<title>switch_to_aggregator_and_zero_out&#45;&gt;aggregator_factory::create_aggregator_internal</title>
<path fill="none" stroke="black" d="M285,-248.7C285,-240.67 285,-230.9 285,-221.8"/>
<polygon fill="black" stroke="black" points="288.5,-221.94 285,-211.94 281.5,-221.94 288.5,-221.94"/>
</g>
<!-- limit -->
<g id="node5" class="node">
<title>limit</title>
<ellipse fill="none" stroke="black" cx="436" cy="-192" rx="27.9" ry="18"/>
<text text-anchor="middle" x="436" y="-188.3" font-family="Times,serif" font-size="14.00">limit</text>
</g>
<!-- switch_to_aggregator_and_zero_out&#45;&gt;limit -->
<g id="edge4" class="edge">
<title>switch_to_aggregator_and_zero_out&#45;&gt;limit</title>
<path fill="none" stroke="black" d="M377.42,-253.19C386.1,-249.97 394.45,-245.97 402,-241 410.25,-235.57 417.11,-227.39 422.47,-219.32"/>
<polygon fill="black" stroke="black" points="425.31,-221.39 427.46,-211.01 419.31,-217.78 425.31,-221.39"/>
</g>
<!-- destroy_integer -->
<g id="node6" class="node">
<title>destroy_integer</title>
<ellipse fill="none" stroke="black" cx="548" cy="-192" rx="65.79" ry="18"/>
<text text-anchor="middle" x="548" y="-188.3" font-family="Times,serif" font-size="14.00">destroy_integer</text>
</g>
<!-- switch_to_aggregator_and_zero_out&#45;&gt;destroy_integer -->
<g id="edge5" class="edge">
<title>switch_to_aggregator_and_zero_out&#45;&gt;destroy_integer</title>
<path fill="none" stroke="black" d="M405.73,-257.88C428.51,-254.14 451.82,-248.75 473,-241 489.12,-235.1 505.37,-225.29 518.6,-216.07"/>
<polygon fill="black" stroke="black" points="520.37,-219.1 526.43,-210.41 516.27,-213.43 520.37,-219.1"/>
</g>
<!-- option::is_some -->
<g id="node7" class="node">
<title>option::is_some</title>
<ellipse fill="none" stroke="black" cx="58" cy="-117" rx="40.09" ry="18"/>
<text text-anchor="middle" x="58" y="-113.3" font-family="Times,serif" font-size="14.00">is_some</text>
</g>
<!-- option::extract&#45;&gt;option::is_some -->
<g id="edge6" class="edge">
<title>option::extract&#45;&gt;option::is_some</title>
<path fill="none" stroke="black" d="M51.9,-173.7C52.78,-165.67 53.85,-155.9 54.84,-146.8"/>
<polygon fill="black" stroke="black" points="58.31,-147.26 55.93,-136.93 51.36,-146.49 58.31,-147.26"/>
</g>
<!-- vector::is_empty -->
<g id="node8" class="node">
<title>vector::is_empty</title>
<ellipse fill="none" stroke="black" cx="91" cy="-34" rx="43.59" ry="18"/>
<text text-anchor="middle" x="91" y="-30.3" font-family="Times,serif" font-size="14.00">is_empty</text>
</g>
<!-- option::fill&#45;&gt;vector::is_empty -->
<g id="edge7" class="edge">
<title>option::fill&#45;&gt;vector::is_empty</title>
<path fill="none" stroke="black" d="M125.58,-173.94C121.5,-153.97 114.31,-119.95 107,-91 104.69,-81.87 101.95,-71.96 99.38,-63.06"/>
<polygon fill="black" stroke="black" points="102.77,-62.15 96.6,-53.54 96.05,-64.12 102.77,-62.15"/>
</g>
<!-- error::not_found -->
<g id="node9" class="node">
<title>error::not_found</title>
<ellipse fill="none" stroke="black" cx="461" cy="-117" rx="46.59" ry="18"/>
<text text-anchor="middle" x="461" y="-113.3" font-family="Times,serif" font-size="14.00">not_found</text>
</g>
<!-- aggregator_factory::create_aggregator_internal&#45;&gt;error::not_found -->
<g id="edge8" class="edge">
<title>aggregator_factory::create_aggregator_internal&#45;&gt;error::not_found</title>
<path fill="none" stroke="black" d="M363.18,-179.68C376.5,-176.25 389.92,-171.79 402,-166 414.71,-159.91 427.08,-150.56 437.18,-141.72"/>
<polygon fill="black" stroke="black" points="439.29,-144.53 444.31,-135.2 434.57,-139.36 439.29,-144.53"/>
</g>
<!-- aggregator_factory::new_aggregator -->
<g id="node10" class="node">
<title>aggregator_factory::new_aggregator</title>
<ellipse fill="none" stroke="black" cx="285" cy="-117" rx="67.69" ry="18"/>
<text text-anchor="middle" x="285" y="-113.3" font-family="Times,serif" font-size="14.00">new_aggregator</text>
</g>
<!-- aggregator_factory::create_aggregator_internal&#45;&gt;aggregator_factory::new_aggregator -->
<g id="edge9" class="edge">
<title>aggregator_factory::create_aggregator_internal&#45;&gt;aggregator_factory::new_aggregator</title>
<path fill="none" stroke="black" d="M285,-173.7C285,-165.67 285,-155.9 285,-146.8"/>
<polygon fill="black" stroke="black" points="288.5,-146.94 285,-136.94 281.5,-146.94 288.5,-146.94"/>
</g>
<!-- option::is_some&#45;&gt;vector::is_empty -->
<g id="edge10" class="edge">
<title>option::is_some&#45;&gt;vector::is_empty</title>
<path fill="none" stroke="black" d="M65,-98.82C69.29,-88.3 74.87,-74.59 79.77,-62.57"/>
<polygon fill="black" stroke="black" points="82.91,-64.14 83.44,-53.55 76.43,-61.5 82.91,-64.14"/>
</g>
<!-- error::canonical -->
<g id="node11" class="node">
<title>error::canonical</title>
<ellipse fill="none" stroke="black" cx="461" cy="-34" rx="44.39" ry="18"/>
<text text-anchor="middle" x="461" y="-30.3" font-family="Times,serif" font-size="14.00">canonical</text>
</g>
<!-- error::not_found&#45;&gt;error::canonical -->
<g id="edge11" class="edge">
<title>error::not_found&#45;&gt;error::canonical</title>
<path fill="none" stroke="black" d="M461,-98.82C461,-88.69 461,-75.6 461,-63.92"/>
<polygon fill="black" stroke="black" points="464.5,-63.95 461,-53.95 457.5,-63.95 464.5,-63.95"/>
</g>
</g>
</svg>
