<?xml version="1.0" encoding="UTF-8" standalone="no"?>
<!DOCTYPE svg PUBLIC "-//W3C//DTD SVG 1.1//EN"
 "http://www.w3.org/Graphics/SVG/1.1/DTD/svg11.dtd">
<!-- Generated by graphviz version 7.0.4 (20221203.1631)
 -->
<!-- Title: G Pages: 1 -->
<svg width="308pt" height="299pt"
 viewBox="0.00 0.00 308.19 299.00" xmlns="http://www.w3.org/2000/svg" xmlns:xlink="http://www.w3.org/1999/xlink">
<g id="graph0" class="graph" transform="scale(1 1) rotate(0) translate(4 295)">
<title>G</title>
<polygon fill="white" stroke="none" points="-4,4 -4,-295 304.19,-295 304.19,4 -4,4"/>
<g id="clust1" class="cluster">
<title>cluster_coin</title>
<polygon fill="none" stroke="black" points="69.4,-208 69.4,-283 219.4,-283 219.4,-208 69.4,-208"/>
<text text-anchor="middle" x="144.4" y="-267.8" font-family="Times,serif" font-size="14.00">coin</text>
</g>
<!-- is_parallelizable -->
<g id="node1" class="node">
<title>is_parallelizable</title>
<ellipse fill="none" stroke="black" cx="100.4" cy="-18" rx="68.49" ry="18"/>
<text text-anchor="middle" x="100.4" y="-14.3" font-family="Times,serif" font-size="14.00">is_parallelizable</text>
</g>
<!-- destroy -->
<g id="node2" class="node">
<title>destroy</title>
<ellipse fill="none" stroke="black" cx="36.4" cy="-90" rx="36.29" ry="18"/>
<text text-anchor="middle" x="36.4" y="-86.3" font-family="Times,serif" font-size="14.00">destroy</text>
</g>
<!-- destroy&#45;&gt;is_parallelizable -->
<g id="edge1" class="edge">
<title>destroy&#45;&gt;is_parallelizable</title>
<path fill="none" stroke="black" d="M50.92,-73.12C58.71,-64.59 68.5,-53.89 77.31,-44.25"/>
<polygon fill="black" stroke="black" points="79.85,-46.66 84.02,-36.91 74.69,-41.93 79.85,-46.66"/>
</g>
<!-- switch_and_zero_out -->
<g id="node3" class="node">
<title>switch_and_zero_out</title>
<ellipse fill="none" stroke="black" cx="214.4" cy="-90" rx="85.59" ry="18"/>
<text text-anchor="middle" x="214.4" y="-86.3" font-family="Times,serif" font-size="14.00">switch_and_zero_out</text>
</g>
<!-- switch_and_zero_out&#45;&gt;is_parallelizable -->
<g id="edge2" class="edge">
<title>switch_and_zero_out&#45;&gt;is_parallelizable</title>
<path fill="none" stroke="black" d="M187.67,-72.59C172.27,-63.13 152.71,-51.12 136.01,-40.87"/>
<polygon fill="black" stroke="black" points="138.21,-38.11 127.85,-35.86 134.54,-44.07 138.21,-38.11"/>
</g>
<!-- coin::upgrade_supply -->
<g id="node4" class="node">
<title>coin::upgrade_supply</title>
<ellipse fill="none" stroke="black" cx="144.4" cy="-234" rx="66.89" ry="18"/>
<text text-anchor="middle" x="144.4" y="-230.3" font-family="Times,serif" font-size="14.00">upgrade_supply</text>
</g>
<!-- coin::upgrade_supply&#45;&gt;is_parallelizable -->
<g id="edge3" class="edge">
<title>coin::upgrade_supply&#45;&gt;is_parallelizable</title>
<path fill="none" stroke="black" d="M140.87,-215.85C133.31,-179.07 115.47,-92.29 106.2,-47.24"/>
<polygon fill="black" stroke="black" points="109.69,-46.81 104.24,-37.71 102.83,-48.21 109.69,-46.81"/>
</g>
<!-- switch -->
<g id="node5" class="node">
<title>switch</title>
<ellipse fill="none" stroke="black" cx="188.4" cy="-162" rx="33.6" ry="18"/>
<text text-anchor="middle" x="188.4" y="-158.3" font-family="Times,serif" font-size="14.00">switch</text>
</g>
<!-- coin::upgrade_supply&#45;&gt;switch -->
<g id="edge5" class="edge">
<title>coin::upgrade_supply&#45;&gt;switch</title>
<path fill="none" stroke="black" d="M155.05,-216.05C160.15,-207.94 166.37,-198.04 172.05,-189.01"/>
<polygon fill="black" stroke="black" points="174.98,-190.92 177.34,-180.59 169.06,-187.19 174.98,-190.92"/>
</g>
<!-- switch&#45;&gt;switch_and_zero_out -->
<g id="edge4" class="edge">
<title>switch&#45;&gt;switch_and_zero_out</title>
<path fill="none" stroke="black" d="M194.69,-144.05C197.49,-136.52 200.86,-127.44 204.02,-118.94"/>
<polygon fill="black" stroke="black" points="207.25,-120.29 207.45,-109.69 200.69,-117.85 207.25,-120.29"/>
</g>
</g>
</svg>
