<?xml version="1.0" encoding="UTF-8" standalone="no"?>
<!DOCTYPE svg PUBLIC "-//W3C//DTD SVG 1.1//EN"
 "http://www.w3.org/Graphics/SVG/1.1/DTD/svg11.dtd">
<!-- Generated by graphviz version 7.0.4 (20221203.1631)
 -->
<!-- Title: G Pages: 1 -->
<svg width="714pt" height="609pt"
 viewBox="0.00 0.00 714.09 609.00" xmlns="http://www.w3.org/2000/svg" xmlns:xlink="http://www.w3.org/1999/xlink">
<g id="graph0" class="graph" transform="scale(1 1) rotate(0) translate(4 605)">
<title>G</title>
<polygon fill="white" stroke="none" points="-4,4 -4,-605 710.09,-605 710.09,4 -4,4"/>
<g id="clust1" class="cluster">
<title>cluster_coin</title>
<polygon fill="none" stroke="black" points="8,-208 8,-355 560,-355 560,-208 8,-208"/>
<text text-anchor="middle" x="284" y="-339.8" font-family="Times,serif" font-size="14.00">coin</text>
</g>
<g id="clust2" class="cluster">
<title>cluster_managed_coin</title>
<polygon fill="none" stroke="black" points="8,-363 8,-438 108,-438 108,-363 8,-363"/>
<text text-anchor="middle" x="58" y="-422.8" font-family="Times,serif" font-size="14.00">managed_coin</text>
</g>
<g id="clust3" class="cluster">
<title>cluster_aptos_coin</title>
<polygon fill="none" stroke="black" points="209,-363 209,-438 309,-438 309,-363 209,-363"/>
<text text-anchor="middle" x="259" y="-422.8" font-family="Times,serif" font-size="14.00">aptos_coin</text>
</g>
<g id="clust4" class="cluster">
<title>cluster_genesis</title>
<polygon fill="none" stroke="black" points="30,-446 30,-593 582,-593 582,-446 30,-446"/>
<text text-anchor="middle" x="306" y="-577.8" font-family="Times,serif" font-size="14.00">genesis</text>
</g>
<!-- new_integer -->
<g id="node1" class="node">
<title>new_integer</title>
<ellipse fill="none" stroke="black" cx="473" cy="-18" rx="53.89" ry="18"/>
<text text-anchor="middle" x="473" y="-14.3" font-family="Times,serif" font-size="14.00">new_integer</text>
</g>
<!-- new -->
<g id="node2" class="node">
<title>new</title>
<ellipse fill="none" stroke="black" cx="388" cy="-90" rx="27" ry="18"/>
<text text-anchor="middle" x="388" y="-86.3" font-family="Times,serif" font-size="14.00">new</text>
</g>
<!-- new&#45;&gt;new_integer -->
<g id="edge1" class="edge">
<title>new&#45;&gt;new_integer</title>
<path fill="none" stroke="black" d="M404.39,-75.5C415.76,-66.14 431.19,-53.43 444.54,-42.43"/>
<polygon fill="black" stroke="black" points="446.72,-45.18 452.21,-36.12 442.27,-39.78 446.72,-45.18"/>
</g>
<!-- switch_to_integer_and_zero_out -->
<g id="node3" class="node">
<title>switch_to_integer_and_zero_out</title>
<ellipse fill="none" stroke="black" cx="580" cy="-90" rx="126.18" ry="18"/>
<text text-anchor="middle" x="580" y="-86.3" font-family="Times,serif" font-size="14.00">switch_to_integer_and_zero_out</text>
</g>
<!-- switch_to_integer_and_zero_out&#45;&gt;new_integer -->
<g id="edge2" class="edge">
<title>switch_to_integer_and_zero_out&#45;&gt;new_integer</title>
<path fill="none" stroke="black" d="M554.1,-72.05C539.65,-62.61 521.51,-50.74 506.06,-40.63"/>
<polygon fill="black" stroke="black" points="508.39,-37.97 498.1,-35.42 504.55,-43.82 508.39,-37.97"/>
</g>
<!-- coin::initialize_internal -->
<g id="node4" class="node">
<title>coin::initialize_internal</title>
<ellipse fill="none" stroke="black" cx="259" cy="-234" rx="72.59" ry="18"/>
<text text-anchor="middle" x="259" y="-230.3" font-family="Times,serif" font-size="14.00">initialize_internal</text>
</g>
<!-- coin::initialize_internal&#45;&gt;new -->
<g id="edge3" class="edge">
<title>coin::initialize_internal&#45;&gt;new</title>
<path fill="none" stroke="black" d="M274.3,-216.15C297.41,-190.72 341.25,-142.46 367.22,-113.87"/>
<polygon fill="black" stroke="black" points="369.51,-116.56 373.65,-106.8 364.33,-111.85 369.51,-116.56"/>
</g>
<!-- switch_and_zero_out -->
<g id="node5" class="node">
<title>switch_and_zero_out</title>
<ellipse fill="none" stroke="black" cx="591" cy="-162" rx="85.59" ry="18"/>
<text text-anchor="middle" x="591" y="-158.3" font-family="Times,serif" font-size="14.00">switch_and_zero_out</text>
</g>
<!-- switch_and_zero_out&#45;&gt;switch_to_integer_and_zero_out -->
<g id="edge4" class="edge">
<title>switch_and_zero_out&#45;&gt;switch_to_integer_and_zero_out</title>
<path fill="none" stroke="black" d="M588.28,-143.7C587.12,-136.32 585.74,-127.52 584.44,-119.25"/>
<polygon fill="black" stroke="black" points="587.93,-118.93 582.92,-109.6 581.02,-120.02 587.93,-118.93"/>
</g>
<!-- coin::initialize -->
<g id="node6" class="node">
<title>coin::initialize</title>
<ellipse fill="none" stroke="black" cx="58" cy="-306" rx="41.69" ry="18"/>
<text text-anchor="middle" x="58" y="-302.3" font-family="Times,serif" font-size="14.00">initialize</text>
</g>
<!-- coin::initialize&#45;&gt;coin::initialize_internal -->
<g id="edge5" class="edge">
<title>coin::initialize&#45;&gt;coin::initialize_internal</title>
<path fill="none" stroke="black" d="M89.85,-293.91C121.48,-282.89 170.51,-265.82 207.65,-252.88"/>
<polygon fill="black" stroke="black" points="208.55,-256.28 216.84,-249.68 206.25,-249.67 208.55,-256.28"/>
</g>
<!-- coin::initialize_with_parallelizable_supply -->
<g id="node7" class="node">
<title>coin::initialize_with_parallelizable_supply</title>
<ellipse fill="none" stroke="black" cx="259" cy="-306" rx="141.07" ry="18"/>
<text text-anchor="middle" x="259" y="-302.3" font-family="Times,serif" font-size="14.00">initialize_with_parallelizable_supply</text>
</g>
<!-- coin::initialize_with_parallelizable_supply&#45;&gt;coin::initialize_internal -->
<g id="edge6" class="edge">
<title>coin::initialize_with_parallelizable_supply&#45;&gt;coin::initialize_internal</title>
<path fill="none" stroke="black" d="M259,-287.7C259,-280.41 259,-271.73 259,-263.54"/>
<polygon fill="black" stroke="black" points="262.5,-263.62 259,-253.62 255.5,-263.62 262.5,-263.62"/>
</g>
<!-- switch -->
<g id="node8" class="node">
<title>switch</title>
<ellipse fill="none" stroke="black" cx="602" cy="-234" rx="33.6" ry="18"/>
<text text-anchor="middle" x="602" y="-230.3" font-family="Times,serif" font-size="14.00">switch</text>
</g>
<!-- switch&#45;&gt;switch_and_zero_out -->
<g id="edge7" class="edge">
<title>switch&#45;&gt;switch_and_zero_out</title>
<path fill="none" stroke="black" d="M599.28,-215.7C598.12,-208.32 596.74,-199.52 595.44,-191.25"/>
<polygon fill="black" stroke="black" points="598.93,-190.93 593.92,-181.6 592.02,-192.02 598.93,-190.93"/>
</g>
<!-- managed_coin::initialize -->
<g id="node9" class="node">
<title>managed_coin::initialize</title>
<ellipse fill="none" stroke="black" cx="58" cy="-389" rx="41.69" ry="18"/>
<text text-anchor="middle" x="58" y="-385.3" font-family="Times,serif" font-size="14.00">initialize</text>
</g>
<!-- managed_coin::initialize&#45;&gt;coin::initialize -->
<g id="edge8" class="edge">
<title>managed_coin::initialize&#45;&gt;coin::initialize</title>
<path fill="none" stroke="black" d="M58,-370.82C58,-360.69 58,-347.6 58,-335.92"/>
<polygon fill="black" stroke="black" points="61.5,-335.95 58,-325.95 54.5,-335.95 61.5,-335.95"/>
</g>
<!-- aptos_coin::initialize -->
<g id="node10" class="node">
<title>aptos_coin::initialize</title>
<ellipse fill="none" stroke="black" cx="259" cy="-389" rx="41.69" ry="18"/>
<text text-anchor="middle" x="259" y="-385.3" font-family="Times,serif" font-size="14.00">initialize</text>
</g>
<!-- aptos_coin::initialize&#45;&gt;coin::initialize_with_parallelizable_supply -->
<g id="edge9" class="edge">
<title>aptos_coin::initialize&#45;&gt;coin::initialize_with_parallelizable_supply</title>
<path fill="none" stroke="black" d="M259,-370.82C259,-360.69 259,-347.6 259,-335.92"/>
<polygon fill="black" stroke="black" points="262.5,-335.95 259,-325.95 255.5,-335.95 262.5,-335.95"/>
</g>
<!-- coin::upgrade_supply -->
<g id="node11" class="node">
<title>coin::upgrade_supply</title>
<ellipse fill="none" stroke="black" cx="485" cy="-306" rx="66.89" ry="18"/>
<text text-anchor="middle" x="485" y="-302.3" font-family="Times,serif" font-size="14.00">upgrade_supply</text>
</g>
<!-- coin::upgrade_supply&#45;&gt;switch -->
<g id="edge10" class="edge">
<title>coin::upgrade_supply&#45;&gt;switch</title>
<path fill="none" stroke="black" d="M511.55,-289.12C529.07,-278.63 552.11,-264.85 570.55,-253.82"/>
<polygon fill="black" stroke="black" points="572.17,-256.92 578.96,-248.79 568.58,-250.92 572.17,-256.92"/>
</g>
<!-- genesis::initialize_aptos_coin -->
<g id="node12" class="node">
<title>genesis::initialize_aptos_coin</title>
<ellipse fill="none" stroke="black" cx="160" cy="-472" rx="83.69" ry="18"/>
<text text-anchor="middle" x="160" y="-468.3" font-family="Times,serif" font-size="14.00">initialize_aptos_coin</text>
</g>
<!-- genesis::initialize_aptos_coin&#45;&gt;aptos_coin::initialize -->
<g id="edge11" class="edge">
<title>genesis::initialize_aptos_coin&#45;&gt;aptos_coin::initialize</title>
<path fill="none" stroke="black" d="M180.51,-454.22C195.33,-442.1 215.49,-425.6 231.67,-412.36"/>
<polygon fill="black" stroke="black" points="233.49,-415.39 239.02,-406.35 229.06,-409.97 233.49,-415.39"/>
</g>
<!-- genesis::initialize_core_resources_and_aptos_coin -->
<g id="node13" class="node">
<title>genesis::initialize_core_resources_and_aptos_coin</title>
<ellipse fill="none" stroke="black" cx="416" cy="-544" rx="157.87" ry="18"/>
<text text-anchor="middle" x="416" y="-540.3" font-family="Times,serif" font-size="14.00">initialize_core_resources_and_aptos_coin</text>
</g>
<!-- genesis::initialize_core_resources_and_aptos_coin&#45;&gt;aptos_coin::initialize -->
<g id="edge12" class="edge">
<title>genesis::initialize_core_resources_and_aptos_coin&#45;&gt;aptos_coin::initialize</title>
<path fill="none" stroke="black" d="M398.3,-525.75C370.03,-498.2 314.66,-444.24 282.9,-413.29"/>
<polygon fill="black" stroke="black" points="285.68,-411.11 276.07,-406.64 280.79,-416.13 285.68,-411.11"/>
</g>
<!-- genesis::initialize_for_verification -->
<g id="node14" class="node">
<title>genesis::initialize_for_verification</title>
<ellipse fill="none" stroke="black" cx="139" cy="-544" rx="100.98" ry="18"/>
<text text-anchor="middle" x="139" y="-540.3" font-family="Times,serif" font-size="14.00">initialize_for_verification</text>
</g>
<!-- genesis::initialize_for_verification&#45;&gt;genesis::initialize_aptos_coin -->
<g id="edge13" class="edge">
<title>genesis::initialize_for_verification&#45;&gt;genesis::initialize_aptos_coin</title>
<path fill="none" stroke="black" d="M144.19,-525.7C146.43,-518.24 149.1,-509.32 151.61,-500.97"/>
<polygon fill="black" stroke="black" points="154.91,-502.14 154.43,-491.55 148.21,-500.13 154.91,-502.14"/>
</g>
</g>
</svg>
