<?xml version="1.0" encoding="UTF-8" standalone="no"?>
<!DOCTYPE svg PUBLIC "-//W3C//DTD SVG 1.1//EN"
 "http://www.w3.org/Graphics/SVG/1.1/DTD/svg11.dtd">
<!-- Generated by graphviz version 7.0.4 (20221203.1631)
 -->
<!-- Title: G Pages: 1 -->
<svg width="916pt" height="362pt"
 viewBox="0.00 0.00 916.24 362.00" xmlns="http://www.w3.org/2000/svg" xmlns:xlink="http://www.w3.org/1999/xlink">
<g id="graph0" class="graph" transform="scale(1 1) rotate(0) translate(4 358)">
<title>G</title>
<polygon fill="white" stroke="none" points="-4,4 -4,-358 912.24,-358 912.24,4 -4,4"/>
<g id="clust1" class="cluster">
<title>cluster_option</title>
<polygon fill="none" stroke="black" points="178,-91 178,-238 538,-238 538,-91 178,-91"/>
<text text-anchor="middle" x="358" y="-222.8" font-family="Times,serif" font-size="14.00">option</text>
</g>
<g id="clust2" class="cluster">
<title>cluster_aggregator</title>
<polygon fill="none" stroke="black" points="8,-163 8,-238 170,-238 170,-163 8,-163"/>
<text text-anchor="middle" x="89" y="-222.8" font-family="Times,serif" font-size="14.00">aggregator</text>
</g>
<g id="clust3" class="cluster">
<title>cluster_vector</title>
<polygon fill="none" stroke="black" points="279,-8 279,-83 383,-83 383,-8 279,-8"/>
<text text-anchor="middle" x="331" y="-67.8" font-family="Times,serif" font-size="14.00">vector</text>
</g>
<!-- destroy -->
<g id="node1" class="node">
<title>destroy</title>
<ellipse fill="none" stroke="black" cx="494" cy="-336" rx="36.29" ry="18"/>
<text text-anchor="middle" x="494" y="-332.3" font-family="Times,serif" font-size="14.00">destroy</text>
</g>
<!-- destroy_optional_aggregator -->
<g id="node2" class="node">
<title>destroy_optional_aggregator</title>
<ellipse fill="none" stroke="black" cx="255" cy="-264" rx="111.58" ry="18"/>
<text text-anchor="middle" x="255" y="-260.3" font-family="Times,serif" font-size="14.00">destroy_optional_aggregator</text>
</g>
<!-- destroy&#45;&gt;destroy_optional_aggregator -->
<g id="edge1" class="edge">
<title>destroy&#45;&gt;destroy_optional_aggregator</title>
<path fill="none" stroke="black" d="M463.24,-325.99C426.71,-315.29 364.83,-297.17 317.99,-283.45"/>
<polygon fill="black" stroke="black" points="319.07,-280.12 308.49,-280.67 317.1,-286.84 319.07,-280.12"/>
</g>
<!-- destroy_optional_integer -->
<g id="node3" class="node">
<title>destroy_optional_integer</title>
<ellipse fill="none" stroke="black" cx="494" cy="-264" rx="98.58" ry="18"/>
<text text-anchor="middle" x="494" y="-260.3" font-family="Times,serif" font-size="14.00">destroy_optional_integer</text>
</g>
<!-- destroy&#45;&gt;destroy_optional_integer -->
<g id="edge2" class="edge">
<title>destroy&#45;&gt;destroy_optional_integer</title>
<path fill="none" stroke="black" d="M494,-317.7C494,-310.41 494,-301.73 494,-293.54"/>
<polygon fill="black" stroke="black" points="497.5,-293.62 494,-283.62 490.5,-293.62 497.5,-293.62"/>
</g>
<!-- is_parallelizable -->
<g id="node4" class="node">
<title>is_parallelizable</title>
<ellipse fill="none" stroke="black" cx="840" cy="-189" rx="68.49" ry="18"/>
<text text-anchor="middle" x="840" y="-185.3" font-family="Times,serif" font-size="14.00">is_parallelizable</text>
</g>
<!-- destroy&#45;&gt;is_parallelizable -->
<g id="edge3" class="edge">
<title>destroy&#45;&gt;is_parallelizable</title>
<path fill="none" stroke="black" d="M525.12,-326.13C576.13,-311.07 680.15,-278.2 763,-238 778.17,-230.64 794.11,-221.04 807.53,-212.37"/>
<polygon fill="black" stroke="black" points="809.12,-215.52 815.54,-207.09 805.27,-209.67 809.12,-215.52"/>
</g>
<!-- option::borrow -->
<g id="node5" class="node">
<title>option::borrow</title>
<ellipse fill="none" stroke="black" cx="494" cy="-189" rx="36.29" ry="18"/>
<text text-anchor="middle" x="494" y="-185.3" font-family="Times,serif" font-size="14.00">borrow</text>
</g>
<!-- destroy_optional_aggregator&#45;&gt;option::borrow -->
<g id="edge4" class="edge">
<title>destroy_optional_aggregator&#45;&gt;option::borrow</title>
<path fill="none" stroke="black" d="M339.91,-251.95C355.25,-249.96 371.1,-247.91 386,-246 414,-242.41 423.86,-250.83 449,-238 459.42,-232.68 468.71,-223.93 476.1,-215.36"/>
<polygon fill="black" stroke="black" points="478.62,-217.8 482.13,-207.81 473.15,-213.43 478.62,-217.8"/>
</g>
<!-- option::destroy_none -->
<g id="node6" class="node">
<title>option::destroy_none</title>
<ellipse fill="none" stroke="black" cx="244" cy="-189" rx="57.69" ry="18"/>
<text text-anchor="middle" x="244" y="-185.3" font-family="Times,serif" font-size="14.00">destroy_none</text>
</g>
<!-- destroy_optional_aggregator&#45;&gt;option::destroy_none -->
<g id="edge5" class="edge">
<title>destroy_optional_aggregator&#45;&gt;option::destroy_none</title>
<path fill="none" stroke="black" d="M252.39,-245.7C251.18,-237.67 249.71,-227.9 248.34,-218.8"/>
<polygon fill="black" stroke="black" points="251.8,-218.29 246.85,-208.93 244.88,-219.34 251.8,-218.29"/>
</g>
<!-- option::destroy_some -->
<g id="node7" class="node">
<title>option::destroy_some</title>
<ellipse fill="none" stroke="black" cx="380" cy="-189" rx="59.59" ry="18"/>
<text text-anchor="middle" x="380" y="-185.3" font-family="Times,serif" font-size="14.00">destroy_some</text>
</g>
<!-- destroy_optional_aggregator&#45;&gt;option::destroy_some -->
<g id="edge6" class="edge">
<title>destroy_optional_aggregator&#45;&gt;option::destroy_some</title>
<path fill="none" stroke="black" d="M294.03,-246.72C299.81,-243.98 305.62,-241.04 311,-238 324.24,-230.53 338.12,-221.19 349.94,-212.74"/>
<polygon fill="black" stroke="black" points="351.67,-215.81 357.7,-207.1 347.55,-210.15 351.67,-215.81"/>
</g>
<!-- aggregator::destroy -->
<g id="node8" class="node">
<title>aggregator::destroy</title>
<ellipse fill="none" stroke="black" cx="126" cy="-189" rx="36.29" ry="18"/>
<text text-anchor="middle" x="126" y="-185.3" font-family="Times,serif" font-size="14.00">destroy</text>
</g>
<!-- destroy_optional_aggregator&#45;&gt;aggregator::destroy -->
<g id="edge7" class="edge">
<title>destroy_optional_aggregator&#45;&gt;aggregator::destroy</title>
<path fill="none" stroke="black" d="M195.58,-248.37C188.07,-245.46 180.68,-242.03 174,-238 163.81,-231.86 154.2,-223.1 146.28,-214.74"/>
<polygon fill="black" stroke="black" points="149,-212.53 139.72,-207.43 143.79,-217.2 149,-212.53"/>
</g>
<!-- aggregator::limit -->
<g id="node9" class="node">
<title>aggregator::limit</title>
<ellipse fill="none" stroke="black" cx="44" cy="-189" rx="27.9" ry="18"/>
<text text-anchor="middle" x="44" y="-185.3" font-family="Times,serif" font-size="14.00">limit</text>
</g>
<!-- destroy_optional_aggregator&#45;&gt;aggregator::limit -->
<g id="edge8" class="edge">
<title>destroy_optional_aggregator&#45;&gt;aggregator::limit</title>
<path fill="none" stroke="black" d="M156.45,-255.26C124.79,-251.41 94.44,-245.85 81,-238 71.99,-232.74 64.4,-224.35 58.5,-216.04"/>
<polygon fill="black" stroke="black" points="61.53,-214.3 53.17,-207.8 55.65,-218.1 61.53,-214.3"/>
</g>
<!-- destroy_optional_integer&#45;&gt;option::borrow -->
<g id="edge9" class="edge">
<title>destroy_optional_integer&#45;&gt;option::borrow</title>
<path fill="none" stroke="black" d="M494,-245.7C494,-237.67 494,-227.9 494,-218.8"/>
<polygon fill="black" stroke="black" points="497.5,-218.94 494,-208.94 490.5,-218.94 497.5,-218.94"/>
</g>
<!-- destroy_optional_integer&#45;&gt;option::destroy_none -->
<g id="edge10" class="edge">
<title>destroy_optional_integer&#45;&gt;option::destroy_none</title>
<path fill="none" stroke="black" d="M419.12,-251.98C404.82,-249.94 389.95,-247.86 376,-246 347.15,-242.15 338.12,-248.58 311,-238 296.38,-232.29 281.99,-222.67 270.31,-213.53"/>
<polygon fill="black" stroke="black" points="272.71,-210.96 262.75,-207.34 268.28,-216.38 272.71,-210.96"/>
</g>
<!-- destroy_optional_integer&#45;&gt;option::destroy_some -->
<g id="edge11" class="edge">
<title>destroy_optional_integer&#45;&gt;option::destroy_some</title>
<path fill="none" stroke="black" d="M463.26,-246.46C458.44,-243.72 453.55,-240.84 449,-238 436.42,-230.16 422.97,-220.99 411.31,-212.77"/>
<polygon fill="black" stroke="black" points="413.4,-209.97 403.23,-207.02 409.34,-215.67 413.4,-209.97"/>
</g>
<!-- limit -->
<g id="node10" class="node">
<title>limit</title>
<ellipse fill="none" stroke="black" cx="576" cy="-189" rx="27.9" ry="18"/>
<text text-anchor="middle" x="576" y="-185.3" font-family="Times,serif" font-size="14.00">limit</text>
</g>
<!-- destroy_optional_integer&#45;&gt;limit -->
<g id="edge12" class="edge">
<title>destroy_optional_integer&#45;&gt;limit</title>
<path fill="none" stroke="black" d="M529.85,-246.79C534.15,-244.15 538.32,-241.21 542,-238 549.25,-231.67 555.77,-223.5 561.11,-215.7"/>
<polygon fill="black" stroke="black" points="563.95,-217.77 566.4,-207.46 558.06,-213.98 563.95,-217.77"/>
</g>
<!-- destroy_integer -->
<g id="node11" class="node">
<title>destroy_integer</title>
<ellipse fill="none" stroke="black" cx="688" cy="-189" rx="65.79" ry="18"/>
<text text-anchor="middle" x="688" y="-185.3" font-family="Times,serif" font-size="14.00">destroy_integer</text>
</g>
<!-- destroy_optional_integer&#45;&gt;destroy_integer -->
<g id="edge13" class="edge">
<title>destroy_optional_integer&#45;&gt;destroy_integer</title>
<path fill="none" stroke="black" d="M567.94,-251.81C583.15,-248.31 598.83,-243.79 613,-238 628.66,-231.6 644.64,-221.9 657.8,-212.89"/>
<polygon fill="black" stroke="black" points="659.45,-216.01 665.6,-207.38 655.41,-210.29 659.45,-216.01"/>
</g>
<!-- option::is_some -->
<g id="node12" class="node">
<title>option::is_some</title>
<ellipse fill="none" stroke="black" cx="435" cy="-117" rx="40.09" ry="18"/>
<text text-anchor="middle" x="435" y="-113.3" font-family="Times,serif" font-size="14.00">is_some</text>
</g>
<!-- is_parallelizable&#45;&gt;option::is_some -->
<g id="edge14" class="edge">
<title>is_parallelizable&#45;&gt;option::is_some</title>
<path fill="none" stroke="black" d="M800.81,-173.79C788.8,-169.84 775.47,-165.86 763,-163 666.15,-140.82 550.53,-128.07 485.66,-122.14"/>
<polygon fill="black" stroke="black" points="486.32,-118.68 476.04,-121.28 485.69,-125.65 486.32,-118.68"/>
</g>
<!-- option::borrow&#45;&gt;option::is_some -->
<g id="edge15" class="edge">
<title>option::borrow&#45;&gt;option::is_some</title>
<path fill="none" stroke="black" d="M480.61,-172.12C473.32,-163.47 464.14,-152.58 455.93,-142.83"/>
<polygon fill="black" stroke="black" points="458.84,-140.85 449.72,-135.46 453.49,-145.37 458.84,-140.85"/>
</g>
<!-- option::is_none -->
<g id="node13" class="node">
<title>option::is_none</title>
<ellipse fill="none" stroke="black" cx="263" cy="-117" rx="38.19" ry="18"/>
<text text-anchor="middle" x="263" y="-113.3" font-family="Times,serif" font-size="14.00">is_none</text>
</g>
<!-- option::destroy_none&#45;&gt;option::is_none -->
<g id="edge16" class="edge">
<title>option::destroy_none&#45;&gt;option::is_none</title>
<path fill="none" stroke="black" d="M248.7,-170.7C250.72,-163.24 253.14,-154.32 255.41,-145.97"/>
<polygon fill="black" stroke="black" points="258.72,-147.13 257.96,-136.57 251.96,-145.3 258.72,-147.13"/>
</g>
<!-- option::destroy_some&#45;&gt;option::is_some -->
<g id="edge17" class="edge">
<title>option::destroy_some&#45;&gt;option::is_some</title>
<path fill="none" stroke="black" d="M393.31,-171.05C399.89,-162.68 407.97,-152.4 415.25,-143.13"/>
<polygon fill="black" stroke="black" points="417.83,-145.52 421.25,-135.5 412.32,-141.2 417.83,-145.52"/>
</g>
<!-- vector::is_empty -->
<g id="node14" class="node">
<title>vector::is_empty</title>
<ellipse fill="none" stroke="black" cx="331" cy="-34" rx="43.59" ry="18"/>
<text text-anchor="middle" x="331" y="-30.3" font-family="Times,serif" font-size="14.00">is_empty</text>
</g>
<!-- option::is_some&#45;&gt;vector::is_empty -->
<g id="edge18" class="edge">
<title>option::is_some&#45;&gt;vector::is_empty</title>
<path fill="none" stroke="black" d="M415.92,-101.14C400.15,-88.85 377.49,-71.21 359.55,-57.24"/>
<polygon fill="black" stroke="black" points="361.9,-54.63 351.86,-51.24 357.59,-60.15 361.9,-54.63"/>
</g>
<!-- option::is_none&#45;&gt;vector::is_empty -->
<g id="edge19" class="edge">
<title>option::is_none&#45;&gt;vector::is_empty</title>
<path fill="none" stroke="black" d="M276.43,-100C285.99,-88.61 299.03,-73.08 309.96,-60.06"/>
<polygon fill="black" stroke="black" points="312.4,-62.59 316.15,-52.69 307.04,-58.09 312.4,-62.59"/>
</g>
</g>
</svg>
