<?xml version="1.0" encoding="UTF-8" standalone="no"?>
<!DOCTYPE svg PUBLIC "-//W3C//DTD SVG 1.1//EN"
 "http://www.w3.org/Graphics/SVG/1.1/DTD/svg11.dtd">
<!-- Generated by graphviz version 7.0.4 (20221203.1631)
 -->
<!-- Title: G Pages: 1 -->
<svg width="503pt" height="260pt"
 viewBox="0.00 0.00 502.59 260.00" xmlns="http://www.w3.org/2000/svg" xmlns:xlink="http://www.w3.org/1999/xlink">
<g id="graph0" class="graph" transform="scale(1 1) rotate(0) translate(4 256)">
<title>G</title>
<polygon fill="white" stroke="none" points="-4,4 -4,-256 498.59,-256 498.59,4 -4,4"/>
<!-- optional_aggregator -->
<g id="node1" class="node">
<title>optional_aggregator</title>
<ellipse fill="none" stroke="black" cx="117.15" cy="-234" rx="81.49" ry="18"/>
<text text-anchor="middle" x="117.15" y="-230.3" font-family="Times,serif" font-size="14.00">optional_aggregator</text>
</g>
<!-- option -->
<g id="node2" class="node">
<title>option</title>
<ellipse fill="none" stroke="black" cx="33.15" cy="-162" rx="33.29" ry="18"/>
<text text-anchor="middle" x="33.15" y="-158.3" font-family="Times,serif" font-size="14.00">option</text>
</g>
<!-- optional_aggregator&#45;&gt;option -->
<g id="edge1" class="edge">
<title>optional_aggregator&#45;&gt;option</title>
<path fill="none" stroke="black" d="M97.24,-216.41C85.84,-206.91 71.41,-194.88 59.12,-184.65"/>
<polygon fill="black" stroke="black" points="61.72,-182.25 51.79,-178.54 57.24,-187.63 61.72,-182.25"/>
</g>
<!-- error -->
<g id="node3" class="node">
<title>error</title>
<ellipse fill="none" stroke="black" cx="246.15" cy="-18" rx="27.9" ry="18"/>
<text text-anchor="middle" x="246.15" y="-14.3" font-family="Times,serif" font-size="14.00">error</text>
</g>
<!-- optional_aggregator&#45;&gt;error -->
<g id="edge2" class="edge">
<title>optional_aggregator&#45;&gt;error</title>
<path fill="none" stroke="black" d="M110.71,-215.68C100.16,-184.07 83.18,-116.2 113.15,-72 133.99,-41.26 175.81,-28.35 207.02,-22.93"/>
<polygon fill="black" stroke="black" points="207.54,-26.39 216.9,-21.42 206.48,-19.47 207.54,-26.39"/>
</g>
<!-- aggregator -->
<g id="node4" class="node">
<title>aggregator</title>
<ellipse fill="none" stroke="black" cx="170.15" cy="-90" rx="48.19" ry="18"/>
<text text-anchor="middle" x="170.15" y="-86.3" font-family="Times,serif" font-size="14.00">aggregator</text>
</g>
<!-- optional_aggregator&#45;&gt;aggregator -->
<g id="edge3" class="edge">
<title>optional_aggregator&#45;&gt;aggregator</title>
<path fill="none" stroke="black" d="M123.65,-215.59C132.67,-191.4 149.11,-147.36 159.83,-118.65"/>
<polygon fill="black" stroke="black" points="163.01,-120.12 163.23,-109.53 156.46,-117.67 163.01,-120.12"/>
</g>
<!-- aggregator_factory -->
<g id="node5" class="node">
<title>aggregator_factory</title>
<ellipse fill="none" stroke="black" cx="246.15" cy="-162" rx="77.19" ry="18"/>
<text text-anchor="middle" x="246.15" y="-158.3" font-family="Times,serif" font-size="14.00">aggregator_factory</text>
</g>
<!-- optional_aggregator&#45;&gt;aggregator_factory -->
<g id="edge4" class="edge">
<title>optional_aggregator&#45;&gt;aggregator_factory</title>
<path fill="none" stroke="black" d="M146.74,-216.94C164.52,-207.29 187.37,-194.9 206.67,-184.42"/>
<polygon fill="black" stroke="black" points="208.24,-187.55 215.36,-179.71 204.9,-181.4 208.24,-187.55"/>
</g>
<!-- vector -->
<g id="node6" class="node">
<title>vector</title>
<ellipse fill="none" stroke="black" cx="33.15" cy="-90" rx="32.49" ry="18"/>
<text text-anchor="middle" x="33.15" y="-86.3" font-family="Times,serif" font-size="14.00">vector</text>
</g>
<!-- option&#45;&gt;vector -->
<g id="edge5" class="edge">
<title>option&#45;&gt;vector</title>
<path fill="none" stroke="black" d="M33.15,-143.7C33.15,-136.41 33.15,-127.73 33.15,-119.54"/>
<polygon fill="black" stroke="black" points="36.65,-119.62 33.15,-109.62 29.65,-119.62 36.65,-119.62"/>
</g>
<!-- aggregator_factory&#45;&gt;error -->
<g id="edge6" class="edge">
<title>aggregator_factory&#45;&gt;error</title>
<path fill="none" stroke="black" d="M246.15,-143.59C246.15,-119.61 246.15,-76.14 246.15,-47.42"/>
<polygon fill="black" stroke="black" points="249.65,-47.62 246.15,-37.62 242.65,-47.62 249.65,-47.62"/>
</g>
<!-- aggregator_factory&#45;&gt;aggregator -->
<g id="edge9" class="edge">
<title>aggregator_factory&#45;&gt;aggregator</title>
<path fill="none" stroke="black" d="M227.75,-144.05C218.21,-135.27 206.4,-124.39 195.96,-114.77"/>
<polygon fill="black" stroke="black" points="198.43,-112.29 188.71,-108.09 193.69,-117.44 198.43,-112.29"/>
</g>
<!-- table -->
<g id="node7" class="node">
<title>table</title>
<ellipse fill="none" stroke="black" cx="302.15" cy="-90" rx="27.9" ry="18"/>
<text text-anchor="middle" x="302.15" y="-86.3" font-family="Times,serif" font-size="14.00">table</text>
</g>
<!-- aggregator_factory&#45;&gt;table -->
<g id="edge7" class="edge">
<title>aggregator_factory&#45;&gt;table</title>
<path fill="none" stroke="black" d="M259.7,-144.05C266.6,-135.44 275.1,-124.81 282.68,-115.33"/>
<polygon fill="black" stroke="black" points="285.4,-117.53 288.92,-107.54 279.94,-113.16 285.4,-117.53"/>
</g>
<!-- system_addresses -->
<g id="node8" class="node">
<title>system_addresses</title>
<ellipse fill="none" stroke="black" cx="421.15" cy="-90" rx="73.39" ry="18"/>
<text text-anchor="middle" x="421.15" y="-86.3" font-family="Times,serif" font-size="14.00">system_addresses</text>
</g>
<!-- aggregator_factory&#45;&gt;system_addresses -->
<g id="edge8" class="edge">
<title>aggregator_factory&#45;&gt;system_addresses</title>
<path fill="none" stroke="black" d="M283.69,-145.98C309.96,-135.47 345.27,-121.35 373.52,-110.05"/>
<polygon fill="black" stroke="black" points="374.58,-113.4 382.56,-106.43 371.98,-106.9 374.58,-113.4"/>
</g>
<!-- system_addresses&#45;&gt;error -->
<g id="edge11" class="edge">
<title>system_addresses&#45;&gt;error</title>
<path fill="none" stroke="black" d="M384.03,-74.15C353.21,-61.82 309.72,-44.43 279.87,-32.49"/>
<polygon fill="black" stroke="black" points="281.53,-29.38 270.94,-28.92 278.93,-35.88 281.53,-29.38"/>
</g>
<!-- signer -->
<g id="node9" class="node">
<title>signer</title>
<ellipse fill="none" stroke="black" cx="421.15" cy="-18" rx="32.49" ry="18"/>
<text text-anchor="middle" x="421.15" y="-14.3" font-family="Times,serif" font-size="14.00">signer</text>
</g>
<!-- system_addresses&#45;&gt;signer -->
<g id="edge10" class="edge">
<title>system_addresses&#45;&gt;signer</title>
<path fill="none" stroke="black" d="M421.15,-71.7C421.15,-64.41 421.15,-55.73 421.15,-47.54"/>
<polygon fill="black" stroke="black" points="424.65,-47.62 421.15,-37.62 417.65,-47.62 424.65,-47.62"/>
</g>
</g>
</svg>
