<?xml version="1.0" encoding="UTF-8" standalone="no"?>
<!DOCTYPE svg PUBLIC "-//W3C//DTD SVG 1.1//EN"
 "http://www.w3.org/Graphics/SVG/1.1/DTD/svg11.dtd">
<!-- Generated by graphviz version 7.0.4 (20221203.1631)
 -->
<!-- Title: G Pages: 1 -->
<svg width="180pt" height="227pt"
 viewBox="0.00 0.00 179.58 227.00" xmlns="http://www.w3.org/2000/svg" xmlns:xlink="http://www.w3.org/1999/xlink">
<g id="graph0" class="graph" transform="scale(1 1) rotate(0) translate(4 223)">
<title>G</title>
<polygon fill="white" stroke="none" points="-4,4 -4,-223 175.58,-223 175.58,4 -4,4"/>
<g id="clust1" class="cluster">
<title>cluster_coin</title>
<polygon fill="none" stroke="black" points="10.79,-136 10.79,-211 160.79,-211 160.79,-136 10.79,-136"/>
<text text-anchor="middle" x="85.79" y="-195.8" font-family="Times,serif" font-size="14.00">coin</text>
</g>
<!-- switch_and_zero_out -->
<g id="node1" class="node">
<title>switch_and_zero_out</title>
<ellipse fill="none" stroke="black" cx="85.79" cy="-18" rx="85.59" ry="18"/>
<text text-anchor="middle" x="85.79" y="-14.3" font-family="Times,serif" font-size="14.00">switch_and_zero_out</text>
</g>
<!-- switch -->
<g id="node2" class="node">
<title>switch</title>
<ellipse fill="none" stroke="black" cx="85.79" cy="-90" rx="33.6" ry="18"/>
<text text-anchor="middle" x="85.79" y="-86.3" font-family="Times,serif" font-size="14.00">switch</text>
</g>
<!-- switch&#45;&gt;switch_and_zero_out -->
<g id="edge1" class="edge">
<title>switch&#45;&gt;switch_and_zero_out</title>
<path fill="none" stroke="black" d="M85.79,-71.7C85.79,-64.41 85.79,-55.73 85.79,-47.54"/>
<polygon fill="black" stroke="black" points="89.29,-47.62 85.79,-37.62 82.29,-47.62 89.29,-47.62"/>
</g>
<!-- coin::upgrade_supply -->
<g id="node3" class="node">
<title>coin::upgrade_supply</title>
<ellipse fill="none" stroke="black" cx="85.79" cy="-162" rx="66.89" ry="18"/>
<text text-anchor="middle" x="85.79" y="-158.3" font-family="Times,serif" font-size="14.00">upgrade_supply</text>
</g>
<!-- coin::upgrade_supply&#45;&gt;switch -->
<g id="edge2" class="edge">
<title>coin::upgrade_supply&#45;&gt;switch</title>
<path fill="none" stroke="black" d="M85.79,-143.7C85.79,-136.41 85.79,-127.73 85.79,-119.54"/>
<polygon fill="black" stroke="black" points="89.29,-119.62 85.79,-109.62 82.29,-119.62 89.29,-119.62"/>
</g>
</g>
</svg>
