<?xml version="1.0" encoding="UTF-8" standalone="no"?>
<!DOCTYPE svg PUBLIC "-//W3C//DTD SVG 1.1//EN"
 "http://www.w3.org/Graphics/SVG/1.1/DTD/svg11.dtd">
<!-- Generated by graphviz version 7.0.4 (20221203.1631)
 -->
<!-- Title: G Pages: 1 -->
<svg width="388pt" height="301pt"
 viewBox="0.00 0.00 388.00 301.00" xmlns="http://www.w3.org/2000/svg" xmlns:xlink="http://www.w3.org/1999/xlink">
<g id="graph0" class="graph" transform="scale(1 1) rotate(0) translate(4 297)">
<title>G</title>
<polygon fill="white" stroke="none" points="-4,4 -4,-297 384,-297 384,4 -4,4"/>
<g id="clust1" class="cluster">
<title>cluster_option</title>
<polygon fill="none" stroke="black" points="8,-91 8,-249 134,-249 134,-91 8,-91"/>
<text text-anchor="middle" x="71" y="-233.8" font-family="Times,serif" font-size="14.00">option</text>
</g>
<g id="clust2" class="cluster">
<title>cluster_aggregator</title>
<polygon fill="none" stroke="black" points="172,-174 172,-249 246,-249 246,-174 172,-174"/>
<text text-anchor="middle" x="209" y="-233.8" font-family="Times,serif" font-size="14.00">aggregator</text>
</g>
<g id="clust3" class="cluster">
<title>cluster_vector</title>
<polygon fill="none" stroke="black" points="26,-8 26,-83 130,-83 130,-8 26,-8"/>
<text text-anchor="middle" x="78" y="-67.8" font-family="Times,serif" font-size="14.00">vector</text>
</g>
<g id="clust4" class="cluster">
<title>cluster_error</title>
<polygon fill="none" stroke="black" points="240,-8 240,-166 372,-166 372,-8 240,-8"/>
<text text-anchor="middle" x="306" y="-150.8" font-family="Times,serif" font-size="14.00">error</text>
</g>
<!-- add -->
<g id="node1" class="node">
<title>add</title>
<ellipse fill="none" stroke="black" cx="181" cy="-275" rx="27" ry="18"/>
<text text-anchor="middle" x="181" y="-271.3" font-family="Times,serif" font-size="14.00">add</text>
</g>
<!-- option::borrow_mut -->
<g id="node2" class="node">
<title>option::borrow_mut</title>
<ellipse fill="none" stroke="black" cx="71" cy="-200" rx="54.69" ry="18"/>
<text text-anchor="middle" x="71" y="-196.3" font-family="Times,serif" font-size="14.00">borrow_mut</text>
</g>
<!-- add&#45;&gt;option::borrow_mut -->
<g id="edge1" class="edge">
<title>add&#45;&gt;option::borrow_mut</title>
<path fill="none" stroke="black" d="M161.25,-262.28C154.46,-258.17 146.84,-253.46 140,-249 127.58,-240.91 114.16,-231.68 102.48,-223.49"/>
<polygon fill="black" stroke="black" points="104.57,-220.68 94.38,-217.78 100.53,-226.4 104.57,-220.68"/>
</g>
<!-- option::is_some -->
<g id="node3" class="node">
<title>option::is_some</title>
<ellipse fill="none" stroke="black" cx="78" cy="-117" rx="40.09" ry="18"/>
<text text-anchor="middle" x="78" y="-113.3" font-family="Times,serif" font-size="14.00">is_some</text>
</g>
<!-- add&#45;&gt;option::is_some -->
<g id="edge2" class="edge">
<title>add&#45;&gt;option::is_some</title>
<path fill="none" stroke="black" d="M172.32,-257.67C170.84,-254.8 169.35,-251.82 168,-249 152.26,-216.16 155.69,-203.97 135,-174 126.62,-161.87 115.38,-150.16 105.1,-140.62"/>
<polygon fill="black" stroke="black" points="107.67,-138.23 97.89,-134.16 103,-143.44 107.67,-138.23"/>
</g>
<!-- aggregator::add -->
<g id="node4" class="node">
<title>aggregator::add</title>
<ellipse fill="none" stroke="black" cx="209" cy="-200" rx="27" ry="18"/>
<text text-anchor="middle" x="209" y="-196.3" font-family="Times,serif" font-size="14.00">add</text>
</g>
<!-- add&#45;&gt;aggregator::add -->
<g id="edge3" class="edge">
<title>add&#45;&gt;aggregator::add</title>
<path fill="none" stroke="black" d="M187.49,-257.07C190.75,-248.59 194.76,-238.12 198.44,-228.52"/>
<polygon fill="black" stroke="black" points="201.69,-229.84 202,-219.25 195.15,-227.34 201.69,-229.84"/>
</g>
<!-- add_integer -->
<g id="node5" class="node">
<title>add_integer</title>
<ellipse fill="none" stroke="black" cx="306" cy="-200" rx="51.99" ry="18"/>
<text text-anchor="middle" x="306" y="-196.3" font-family="Times,serif" font-size="14.00">add_integer</text>
</g>
<!-- add&#45;&gt;add_integer -->
<g id="edge4" class="edge">
<title>add&#45;&gt;add_integer</title>
<path fill="none" stroke="black" d="M205.91,-267.37C219.47,-263.17 236.24,-257.03 250,-249 261.23,-242.45 272.36,-233.54 281.71,-225.18"/>
<polygon fill="black" stroke="black" points="284.01,-227.82 288.96,-218.45 279.25,-222.69 284.01,-227.82"/>
</g>
<!-- option::borrow_mut&#45;&gt;option::is_some -->
<g id="edge5" class="edge">
<title>option::borrow_mut&#45;&gt;option::is_some</title>
<path fill="none" stroke="black" d="M72.48,-181.82C73.37,-171.58 74.52,-158.33 75.53,-146.55"/>
<polygon fill="black" stroke="black" points="78.99,-147.2 76.36,-136.94 72.02,-146.6 78.99,-147.2"/>
</g>
<!-- vector::is_empty -->
<g id="node6" class="node">
<title>vector::is_empty</title>
<ellipse fill="none" stroke="black" cx="78" cy="-34" rx="43.59" ry="18"/>
<text text-anchor="middle" x="78" y="-30.3" font-family="Times,serif" font-size="14.00">is_empty</text>
</g>
<!-- option::is_some&#45;&gt;vector::is_empty -->
<g id="edge6" class="edge">
<title>option::is_some&#45;&gt;vector::is_empty</title>
<path fill="none" stroke="black" d="M78,-98.82C78,-88.69 78,-75.6 78,-63.92"/>
<polygon fill="black" stroke="black" points="81.5,-63.95 78,-53.95 74.5,-63.95 81.5,-63.95"/>
</g>
<!-- error::out_of_range -->
<g id="node7" class="node">
<title>error::out_of_range</title>
<ellipse fill="none" stroke="black" cx="306" cy="-117" rx="57.69" ry="18"/>
<text text-anchor="middle" x="306" y="-113.3" font-family="Times,serif" font-size="14.00">out_of_range</text>
</g>
<!-- add_integer&#45;&gt;error::out_of_range -->
<g id="edge7" class="edge">
<title>add_integer&#45;&gt;error::out_of_range</title>
<path fill="none" stroke="black" d="M306,-181.82C306,-171.69 306,-158.6 306,-146.92"/>
<polygon fill="black" stroke="black" points="309.5,-146.95 306,-136.95 302.5,-146.95 309.5,-146.95"/>
</g>
<!-- error::canonical -->
<g id="node8" class="node">
<title>error::canonical</title>
<ellipse fill="none" stroke="black" cx="306" cy="-34" rx="44.39" ry="18"/>
<text text-anchor="middle" x="306" y="-30.3" font-family="Times,serif" font-size="14.00">canonical</text>
</g>
<!-- error::out_of_range&#45;&gt;error::canonical -->
<g id="edge8" class="edge">
<title>error::out_of_range&#45;&gt;error::canonical</title>
<path fill="none" stroke="black" d="M306,-98.82C306,-88.69 306,-75.6 306,-63.92"/>
<polygon fill="black" stroke="black" points="309.5,-63.95 306,-53.95 302.5,-63.95 309.5,-63.95"/>
</g>
</g>
</svg>
