<?xml version="1.0" encoding="UTF-8" standalone="no"?>
<!DOCTYPE svg PUBLIC "-//W3C//DTD SVG 1.1//EN"
 "http://www.w3.org/Graphics/SVG/1.1/DTD/svg11.dtd">
<!-- Generated by graphviz version 7.0.4 (20221203.1631)
 -->
<!-- Title: G Pages: 1 -->
<svg width="460pt" height="290pt"
 viewBox="0.00 0.00 459.95 290.00" xmlns="http://www.w3.org/2000/svg" xmlns:xlink="http://www.w3.org/1999/xlink">
<g id="graph0" class="graph" transform="scale(1 1) rotate(0) translate(4 286)">
<title>G</title>
<polygon fill="white" stroke="none" points="-4,4 -4,-286 455.95,-286 455.95,4 -4,4"/>
<g id="clust1" class="cluster">
<title>cluster_option</title>
<polygon fill="none" stroke="black" points="8,-91 8,-238 164,-238 164,-91 8,-91"/>
<text text-anchor="middle" x="86" y="-222.8" font-family="Times,serif" font-size="14.00">option</text>
</g>
<g id="clust2" class="cluster">
<title>cluster_aggregator</title>
<polygon fill="none" stroke="black" points="172,-163 172,-238 334,-238 334,-163 172,-163"/>
<text text-anchor="middle" x="253" y="-222.8" font-family="Times,serif" font-size="14.00">aggregator</text>
</g>
<g id="clust3" class="cluster">
<title>cluster_vector</title>
<polygon fill="none" stroke="black" points="39,-8 39,-83 143,-83 143,-8 39,-8"/>
<text text-anchor="middle" x="91" y="-67.8" font-family="Times,serif" font-size="14.00">vector</text>
</g>
<!-- switch_to_integer_and_zero_out -->
<g id="node1" class="node">
<title>switch_to_integer_and_zero_out</title>
<ellipse fill="none" stroke="black" cx="208" cy="-264" rx="126.18" ry="18"/>
<text text-anchor="middle" x="208" y="-260.3" font-family="Times,serif" font-size="14.00">switch_to_integer_and_zero_out</text>
</g>
<!-- option::extract -->
<g id="node2" class="node">
<title>option::extract</title>
<ellipse fill="none" stroke="black" cx="50" cy="-189" rx="34.39" ry="18"/>
<text text-anchor="middle" x="50" y="-185.3" font-family="Times,serif" font-size="14.00">extract</text>
</g>
<!-- switch_to_integer_and_zero_out&#45;&gt;option::extract -->
<g id="edge1" class="edge">
<title>switch_to_integer_and_zero_out&#45;&gt;option::extract</title>
<path fill="none" stroke="black" d="M121.6,-250.47C111.6,-247.23 101.83,-243.14 93,-238 83.2,-232.3 74.42,-223.59 67.39,-215.14"/>
<polygon fill="black" stroke="black" points="70.31,-213.19 61.41,-207.44 64.78,-217.48 70.31,-213.19"/>
</g>
<!-- option::fill -->
<g id="node3" class="node">
<title>option::fill</title>
<ellipse fill="none" stroke="black" cx="129" cy="-189" rx="27" ry="18"/>
<text text-anchor="middle" x="129" y="-185.3" font-family="Times,serif" font-size="14.00">fill</text>
</g>
<!-- switch_to_integer_and_zero_out&#45;&gt;option::fill -->
<g id="edge2" class="edge">
<title>switch_to_integer_and_zero_out&#45;&gt;option::fill</title>
<path fill="none" stroke="black" d="M178.36,-246.05C174.74,-243.52 171.19,-240.82 168,-238 160.25,-231.15 152.81,-222.66 146.55,-214.74"/>
<polygon fill="black" stroke="black" points="149.53,-212.88 140.7,-207.03 143.95,-217.11 149.53,-212.88"/>
</g>
<!-- aggregator::destroy -->
<g id="node4" class="node">
<title>aggregator::destroy</title>
<ellipse fill="none" stroke="black" cx="290" cy="-189" rx="36.29" ry="18"/>
<text text-anchor="middle" x="290" y="-185.3" font-family="Times,serif" font-size="14.00">destroy</text>
</g>
<!-- switch_to_integer_and_zero_out&#45;&gt;aggregator::destroy -->
<g id="edge3" class="edge">
<title>switch_to_integer_and_zero_out&#45;&gt;aggregator::destroy</title>
<path fill="none" stroke="black" d="M234.8,-245.94C238.33,-243.4 241.81,-240.72 245,-238 253.34,-230.89 261.74,-222.37 269,-214.5"/>
<polygon fill="black" stroke="black" points="271.55,-216.9 275.62,-207.12 266.34,-212.22 271.55,-216.9"/>
</g>
<!-- aggregator::limit -->
<g id="node5" class="node">
<title>aggregator::limit</title>
<ellipse fill="none" stroke="black" cx="208" cy="-189" rx="27.9" ry="18"/>
<text text-anchor="middle" x="208" y="-185.3" font-family="Times,serif" font-size="14.00">limit</text>
</g>
<!-- switch_to_integer_and_zero_out&#45;&gt;aggregator::limit -->
<g id="edge4" class="edge">
<title>switch_to_integer_and_zero_out&#45;&gt;aggregator::limit</title>
<path fill="none" stroke="black" d="M208,-245.7C208,-237.67 208,-227.9 208,-218.8"/>
<polygon fill="black" stroke="black" points="211.5,-218.94 208,-208.94 204.5,-218.94 211.5,-218.94"/>
</g>
<!-- new_integer -->
<g id="node6" class="node">
<title>new_integer</title>
<ellipse fill="none" stroke="black" cx="398" cy="-189" rx="53.89" ry="18"/>
<text text-anchor="middle" x="398" y="-185.3" font-family="Times,serif" font-size="14.00">new_integer</text>
</g>
<!-- switch_to_integer_and_zero_out&#45;&gt;new_integer -->
<g id="edge5" class="edge">
<title>switch_to_integer_and_zero_out&#45;&gt;new_integer</title>
<path fill="none" stroke="black" d="M299.28,-251.29C312.6,-247.92 325.9,-243.59 338,-238 350.93,-232.03 363.51,-222.7 373.78,-213.84"/>
<polygon fill="black" stroke="black" points="375.96,-216.59 381.04,-207.29 371.27,-211.39 375.96,-216.59"/>
</g>
<!-- option::is_some -->
<g id="node7" class="node">
<title>option::is_some</title>
<ellipse fill="none" stroke="black" cx="58" cy="-117" rx="40.09" ry="18"/>
<text text-anchor="middle" x="58" y="-113.3" font-family="Times,serif" font-size="14.00">is_some</text>
</g>
<!-- option::extract&#45;&gt;option::is_some -->
<g id="edge6" class="edge">
<title>option::extract&#45;&gt;option::is_some</title>
<path fill="none" stroke="black" d="M51.98,-170.7C52.81,-163.41 53.8,-154.73 54.74,-146.54"/>
<polygon fill="black" stroke="black" points="58.22,-146.94 55.87,-136.61 51.26,-146.15 58.22,-146.94"/>
</g>
<!-- vector::is_empty -->
<g id="node8" class="node">
<title>vector::is_empty</title>
<ellipse fill="none" stroke="black" cx="91" cy="-34" rx="43.59" ry="18"/>
<text text-anchor="middle" x="91" y="-30.3" font-family="Times,serif" font-size="14.00">is_empty</text>
</g>
<!-- option::fill&#45;&gt;vector::is_empty -->
<g id="edge7" class="edge">
<title>option::fill&#45;&gt;vector::is_empty</title>
<path fill="none" stroke="black" d="M125.39,-170.76C121.25,-151.31 114.11,-118.77 107,-91 104.66,-81.87 101.91,-71.97 99.35,-63.07"/>
<polygon fill="black" stroke="black" points="102.73,-62.16 96.57,-53.54 96.01,-64.12 102.73,-62.16"/>
</g>
<!-- option::is_some&#45;&gt;vector::is_empty -->
<g id="edge8" class="edge">
<title>option::is_some&#45;&gt;vector::is_empty</title>
<path fill="none" stroke="black" d="M65,-98.82C69.29,-88.3 74.87,-74.59 79.77,-62.57"/>
<polygon fill="black" stroke="black" points="82.91,-64.14 83.44,-53.55 76.43,-61.5 82.91,-64.14"/>
</g>
</g>
</svg>
