<?xml version="1.0" encoding="UTF-8" standalone="no"?>
<!DOCTYPE svg PUBLIC "-//W3C//DTD SVG 1.1//EN"
 "http://www.w3.org/Graphics/SVG/1.1/DTD/svg11.dtd">
<!-- Generated by graphviz version 7.0.4 (20221203.1631)
 -->
<!-- Title: G Pages: 1 -->
<svg width="403pt" height="155pt"
 viewBox="0.00 0.00 403.00 155.00" xmlns="http://www.w3.org/2000/svg" xmlns:xlink="http://www.w3.org/1999/xlink">
<g id="graph0" class="graph" transform="scale(1 1) rotate(0) translate(4 151)">
<title>G</title>
<polygon fill="white" stroke="none" points="-4,4 -4,-151 399,-151 399,4 -4,4"/>
<g id="clust1" class="cluster">
<title>cluster_block</title>
<polygon fill="none" stroke="black" points="8,-64 8,-139 387,-139 387,-64 8,-64"/>
<text text-anchor="middle" x="197.5" y="-123.8" font-family="Times,serif" font-size="14.00">block</text>
</g>
<!-- current_epoch -->
<g id="node1" class="node">
<title>current_epoch</title>
<ellipse fill="none" stroke="black" cx="218" cy="-18" rx="61.19" ry="18"/>
<text text-anchor="middle" x="218" y="-14.3" font-family="Times,serif" font-size="14.00">current_epoch</text>
</g>
<!-- block::block_prologue -->
<g id="node2" class="node">
<title>block::block_prologue</title>
<ellipse fill="none" stroke="black" cx="313" cy="-90" rx="65.79" ry="18"/>
<text text-anchor="middle" x="313" y="-86.3" font-family="Times,serif" font-size="14.00">block_prologue</text>
</g>
<!-- block::block_prologue&#45;&gt;current_epoch -->
<g id="edge1" class="edge">
<title>block::block_prologue&#45;&gt;current_epoch</title>
<path fill="none" stroke="black" d="M290.97,-72.76C278.5,-63.58 262.7,-51.94 249,-41.84"/>
<polygon fill="black" stroke="black" points="251.26,-39.16 241.13,-36.05 247.11,-44.79 251.26,-39.16"/>
</g>
<!-- block::emit_writeset_block_event -->
<g id="node3" class="node">
<title>block::emit_writeset_block_event</title>
<ellipse fill="none" stroke="black" cx="123" cy="-90" rx="106.68" ry="18"/>
<text text-anchor="middle" x="123" y="-86.3" font-family="Times,serif" font-size="14.00">emit_writeset_block_event</text>
</g>
<!-- block::emit_writeset_block_event&#45;&gt;current_epoch -->
<g id="edge2" class="edge">
<title>block::emit_writeset_block_event&#45;&gt;current_epoch</title>
<path fill="none" stroke="black" d="M146,-72.05C158.4,-62.92 173.87,-51.51 187.29,-41.63"/>
<polygon fill="black" stroke="black" points="189,-44.72 194.98,-35.97 184.85,-39.08 189,-44.72"/>
</g>
</g>
</svg>
