<?xml version="1.0" encoding="UTF-8" standalone="no"?>
<!DOCTYPE svg PUBLIC "-//W3C//DTD SVG 1.1//EN"
 "http://www.w3.org/Graphics/SVG/1.1/DTD/svg11.dtd">
<!-- Generated by graphviz version 7.0.4 (20221203.1631)
 -->
<!-- Title: G Pages: 1 -->
<svg width="915pt" height="155pt"
 viewBox="0.00 0.00 915.00 155.00" xmlns="http://www.w3.org/2000/svg" xmlns:xlink="http://www.w3.org/1999/xlink">
<g id="graph0" class="graph" transform="scale(1 1) rotate(0) translate(4 151)">
<title>G</title>
<polygon fill="white" stroke="none" points="-4,4 -4,-151 911,-151 911,4 -4,4"/>
<g id="clust1" class="cluster">
<title>cluster_aptos_governance</title>
<polygon fill="none" stroke="black" points="8,-64 8,-139 126,-139 126,-64 8,-64"/>
<text text-anchor="middle" x="67" y="-123.8" font-family="Times,serif" font-size="14.00">aptos_governance</text>
</g>
<g id="clust2" class="cluster">
<title>cluster_block</title>
<polygon fill="none" stroke="black" points="134,-64 134,-139 282,-139 282,-64 134,-64"/>
<text text-anchor="middle" x="208" y="-123.8" font-family="Times,serif" font-size="14.00">block</text>
</g>
<g id="clust3" class="cluster">
<title>cluster_consensus_config</title>
<polygon fill="none" stroke="black" points="290,-64 290,-139 403,-139 403,-64 290,-64"/>
<text text-anchor="middle" x="346.5" y="-123.8" font-family="Times,serif" font-size="14.00">consensus_config</text>
</g>
<g id="clust4" class="cluster">
<title>cluster_gas_schedule</title>
<polygon fill="none" stroke="black" points="411,-64 411,-139 773,-139 773,-64 411,-64"/>
<text text-anchor="middle" x="592" y="-123.8" font-family="Times,serif" font-size="14.00">gas_schedule</text>
</g>
<g id="clust5" class="cluster">
<title>cluster_version</title>
<polygon fill="none" stroke="black" points="781,-64 781,-139 899,-139 899,-64 781,-64"/>
<text text-anchor="middle" x="840" y="-123.8" font-family="Times,serif" font-size="14.00">version</text>
</g>
<!-- reconfigure -->
<g id="node1" class="node">
<title>reconfigure</title>
<ellipse fill="none" stroke="black" cx="440" cy="-18" rx="51.19" ry="18"/>
<text text-anchor="middle" x="440" y="-14.3" font-family="Times,serif" font-size="14.00">reconfigure</text>
</g>
<!-- aptos_governance::reconfigure -->
<g id="node2" class="node">
<title>aptos_governance::reconfigure</title>
<ellipse fill="none" stroke="black" cx="67" cy="-90" rx="51.19" ry="18"/>
<text text-anchor="middle" x="67" y="-86.3" font-family="Times,serif" font-size="14.00">reconfigure</text>
</g>
<!-- aptos_governance::reconfigure&#45;&gt;reconfigure -->
<g id="edge1" class="edge">
<title>aptos_governance::reconfigure&#45;&gt;reconfigure</title>
<path fill="none" stroke="black" d="M97.6,-75.2C107.74,-71.07 119.2,-66.88 130,-64 214.71,-41.38 315.67,-29.4 378.82,-23.64"/>
<polygon fill="black" stroke="black" points="378.99,-27.13 388.65,-22.76 378.38,-20.16 378.99,-27.13"/>
</g>
<!-- block::block_prologue -->
<g id="node3" class="node">
<title>block::block_prologue</title>
<ellipse fill="none" stroke="black" cx="208" cy="-90" rx="65.79" ry="18"/>
<text text-anchor="middle" x="208" y="-86.3" font-family="Times,serif" font-size="14.00">block_prologue</text>
</g>
<!-- block::block_prologue&#45;&gt;reconfigure -->
<g id="edge2" class="edge">
<title>block::block_prologue&#45;&gt;reconfigure</title>
<path fill="none" stroke="black" d="M249.23,-75.57C261.08,-71.76 274.03,-67.66 286,-64 320.75,-53.36 360.08,-41.87 390.3,-33.17"/>
<polygon fill="black" stroke="black" points="390.89,-36.64 399.54,-30.51 388.96,-29.91 390.89,-36.64"/>
</g>
<!-- consensus_config::set -->
<g id="node4" class="node">
<title>consensus_config::set</title>
<ellipse fill="none" stroke="black" cx="368" cy="-90" rx="27" ry="18"/>
<text text-anchor="middle" x="368" y="-86.3" font-family="Times,serif" font-size="14.00">set</text>
</g>
<!-- consensus_config::set&#45;&gt;reconfigure -->
<g id="edge3" class="edge">
<title>consensus_config::set&#45;&gt;reconfigure</title>
<path fill="none" stroke="black" d="M382.92,-74.5C392.15,-65.52 404.23,-53.77 414.91,-43.4"/>
<polygon fill="black" stroke="black" points="417.27,-45.98 422,-36.5 412.39,-40.96 417.27,-45.98"/>
</g>
<!-- gas_schedule::set_gas_schedule -->
<g id="node5" class="node">
<title>gas_schedule::set_gas_schedule</title>
<ellipse fill="none" stroke="black" cx="694" cy="-90" rx="71.49" ry="18"/>
<text text-anchor="middle" x="694" y="-86.3" font-family="Times,serif" font-size="14.00">set_gas_schedule</text>
</g>
<!-- gas_schedule::set_gas_schedule&#45;&gt;reconfigure -->
<g id="edge4" class="edge">
<title>gas_schedule::set_gas_schedule&#45;&gt;reconfigure</title>
<path fill="none" stroke="black" d="M651.35,-75.24C639.31,-71.47 626.17,-67.47 614,-64 573.25,-52.37 526.77,-40.42 492.11,-31.76"/>
<polygon fill="black" stroke="black" points="493.31,-28.45 482.76,-29.43 491.62,-35.24 493.31,-28.45"/>
</g>
<!-- gas_schedule::set_storage_gas_config -->
<g id="node6" class="node">
<title>gas_schedule::set_storage_gas_config</title>
<ellipse fill="none" stroke="black" cx="512" cy="-90" rx="92.88" ry="18"/>
<text text-anchor="middle" x="512" y="-86.3" font-family="Times,serif" font-size="14.00">set_storage_gas_config</text>
</g>
<!-- gas_schedule::set_storage_gas_config&#45;&gt;reconfigure -->
<g id="edge5" class="edge">
<title>gas_schedule::set_storage_gas_config&#45;&gt;reconfigure</title>
<path fill="none" stroke="black" d="M494.57,-72.05C485.69,-63.42 474.72,-52.76 464.96,-43.27"/>
<polygon fill="black" stroke="black" points="467.47,-40.82 457.86,-36.36 462.59,-45.84 467.47,-40.82"/>
</g>
<!-- version::set_version -->
<g id="node7" class="node">
<title>version::set_version</title>
<ellipse fill="none" stroke="black" cx="840" cy="-90" rx="50.89" ry="18"/>
<text text-anchor="middle" x="840" y="-86.3" font-family="Times,serif" font-size="14.00">set_version</text>
</g>
<!-- version::set_version&#45;&gt;reconfigure -->
<g id="edge6" class="edge">
<title>version::set_version&#45;&gt;reconfigure</title>
<path fill="none" stroke="black" d="M809.74,-75.25C799.52,-71.08 787.93,-66.85 777,-64 682.79,-39.42 570.06,-27.83 501.8,-22.7"/>
<polygon fill="black" stroke="black" points="502.15,-19.21 491.93,-21.98 501.65,-26.2 502.15,-19.21"/>
</g>
</g>
</svg>
