<?xml version="1.0" encoding="UTF-8" standalone="no"?>
<!DOCTYPE svg PUBLIC "-//W3C//DTD SVG 1.1//EN"
 "http://www.w3.org/Graphics/SVG/1.1/DTD/svg11.dtd">
<!-- Generated by graphviz version 7.0.4 (20221203.1631)
 -->
<!-- Title: G Pages: 1 -->
<svg width="2654pt" height="836pt"
 viewBox="0.00 0.00 2654.00 836.00" xmlns="http://www.w3.org/2000/svg" xmlns:xlink="http://www.w3.org/1999/xlink">
<g id="graph0" class="graph" transform="scale(1 1) rotate(0) translate(4 832)">
<title>G</title>
<polygon fill="white" stroke="none" points="-4,4 -4,-832 2650,-832 2650,4 -4,4"/>
<!-- reconfiguration -->
<g id="node1" class="node">
<title>reconfiguration</title>
<ellipse fill="none" stroke="black" cx="1978" cy="-810" rx="64.99" ry="18"/>
<text text-anchor="middle" x="1978" y="-806.3" font-family="Times,serif" font-size="14.00">reconfiguration</text>
</g>
<!-- signer -->
<g id="node2" class="node">
<title>signer</title>
<ellipse fill="none" stroke="black" cx="1094" cy="-90" rx="32.49" ry="18"/>
<text text-anchor="middle" x="1094" y="-86.3" font-family="Times,serif" font-size="14.00">signer</text>
</g>
<!-- reconfiguration&#45;&gt;signer -->
<g id="edge1" class="edge">
<title>reconfiguration&#45;&gt;signer</title>
<path fill="none" stroke="black" d="M1913.1,-807.76C1798.92,-804.64 1555.05,-793.74 1353,-756 1241.02,-735.08 1206.83,-738.88 1107,-684 967.78,-607.47 918.7,-514.43 956,-360 979.36,-263.27 1043.81,-162.28 1075.67,-116.39"/>
<polygon fill="black" stroke="black" points="1078.38,-118.63 1081.26,-108.44 1072.65,-114.61 1078.38,-118.63"/>
</g>
<!-- error -->
<g id="node3" class="node">
<title>error</title>
<ellipse fill="none" stroke="black" cx="1712" cy="-90" rx="27.9" ry="18"/>
<text text-anchor="middle" x="1712" y="-86.3" font-family="Times,serif" font-size="14.00">error</text>
</g>
<!-- reconfiguration&#45;&gt;error -->
<g id="edge2" class="edge">
<title>reconfiguration&#45;&gt;error</title>
<path fill="none" stroke="black" d="M2043.05,-808.02C2204.01,-803.85 2608,-781.92 2608,-667 2608,-667 2608,-667 2608,-233 2608,-173.17 2562.24,-166.99 2507,-144 2471.76,-129.33 1906.16,-100.55 1751.07,-92.9"/>
<polygon fill="black" stroke="black" points="1751.47,-89.42 1741.31,-92.42 1751.12,-96.41 1751.47,-89.42"/>
</g>
<!-- features -->
<g id="node4" class="node">
<title>features</title>
<ellipse fill="none" stroke="black" cx="1378" cy="-162" rx="38.19" ry="18"/>
<text text-anchor="middle" x="1378" y="-158.3" font-family="Times,serif" font-size="14.00">features</text>
</g>
<!-- reconfiguration&#45;&gt;features -->
<g id="edge3" class="edge">
<title>reconfiguration&#45;&gt;features</title>
<path fill="none" stroke="black" d="M2011.4,-794.17C2053.94,-772.74 2122,-728.79 2122,-667 2122,-667 2122,-667 2122,-449 2122,-408.55 2127.48,-392.2 2103,-360 2061.13,-304.93 2030.09,-311.42 1965,-288 1771.71,-218.46 1527.99,-181.89 1426.15,-168.76"/>
<polygon fill="black" stroke="black" points="1426.88,-165.32 1416.52,-167.53 1426,-172.26 1426.88,-165.32"/>
</g>
<!-- system_addresses -->
<g id="node5" class="node">
<title>system_addresses</title>
<ellipse fill="none" stroke="black" cx="1883" cy="-306" rx="73.39" ry="18"/>
<text text-anchor="middle" x="1883" y="-302.3" font-family="Times,serif" font-size="14.00">system_addresses</text>
</g>
<!-- reconfiguration&#45;&gt;system_addresses -->
<g id="edge4" class="edge">
<title>reconfiguration&#45;&gt;system_addresses</title>
<path fill="none" stroke="black" d="M1985.69,-791.91C1996.79,-765.62 2016,-713.45 2016,-667 2016,-667 2016,-667 2016,-593 2016,-488.53 1942.13,-380.93 1904.5,-332.89"/>
<polygon fill="black" stroke="black" points="1907.4,-330.91 1898.43,-325.28 1901.93,-335.28 1907.4,-330.91"/>
</g>
<!-- event -->
<g id="node6" class="node">
<title>event</title>
<ellipse fill="none" stroke="black" cx="248" cy="-378" rx="29.8" ry="18"/>
<text text-anchor="middle" x="248" y="-374.3" font-family="Times,serif" font-size="14.00">event</text>
</g>
<!-- reconfiguration&#45;&gt;event -->
<g id="edge5" class="edge">
<title>reconfiguration&#45;&gt;event</title>
<path fill="none" stroke="black" d="M1913.18,-807.72C1575.99,-800.67 38,-763.22 38,-667 38,-667 38,-667 38,-593 38,-493.56 154.93,-423.37 214.29,-394.14"/>
<polygon fill="black" stroke="black" points="215.46,-397.46 222.95,-389.98 212.42,-391.15 215.46,-397.46"/>
</g>
<!-- account -->
<g id="node7" class="node">
<title>account</title>
<ellipse fill="none" stroke="black" cx="742" cy="-450" rx="38.19" ry="18"/>
<text text-anchor="middle" x="742" y="-446.3" font-family="Times,serif" font-size="14.00">account</text>
</g>
<!-- reconfiguration&#45;&gt;account -->
<g id="edge6" class="edge">
<title>reconfiguration&#45;&gt;account</title>
<path fill="none" stroke="black" d="M1913.17,-808C1678.49,-804.1 884.82,-788.57 842,-756 753.64,-688.79 742.25,-541.48 741.54,-479.44"/>
<polygon fill="black" stroke="black" points="745.04,-479.72 741.52,-469.73 738.04,-479.74 745.04,-479.72"/>
</g>
<!-- chain_status -->
<g id="node8" class="node">
<title>chain_status</title>
<ellipse fill="none" stroke="black" cx="2242" cy="-378" rx="53.89" ry="18"/>
<text text-anchor="middle" x="2242" y="-374.3" font-family="Times,serif" font-size="14.00">chain_status</text>
</g>
<!-- reconfiguration&#45;&gt;chain_status -->
<g id="edge7" class="edge">
<title>reconfiguration&#45;&gt;chain_status</title>
<path fill="none" stroke="black" d="M2037.16,-802.12C2155.48,-786.72 2410,-744.57 2410,-667 2410,-667 2410,-667 2410,-521 2410,-457.49 2339.11,-416.57 2289.43,-395.69"/>
<polygon fill="black" stroke="black" points="2290.85,-392.5 2280.27,-391.99 2288.23,-398.98 2290.85,-392.5"/>
</g>
<!-- timestamp -->
<g id="node9" class="node">
<title>timestamp</title>
<ellipse fill="none" stroke="black" cx="1940" cy="-522" rx="48.19" ry="18"/>
<text text-anchor="middle" x="1940" y="-518.3" font-family="Times,serif" font-size="14.00">timestamp</text>
</g>
<!-- reconfiguration&#45;&gt;timestamp -->
<g id="edge8" class="edge">
<title>reconfiguration&#45;&gt;timestamp</title>
<path fill="none" stroke="black" d="M1975.68,-791.54C1969.33,-743.76 1951.63,-610.51 1943.8,-551.61"/>
<polygon fill="black" stroke="black" points="1947.28,-551.18 1942.49,-541.73 1940.34,-552.11 1947.28,-551.18"/>
</g>
<!-- stake -->
<g id="node10" class="node">
<title>stake</title>
<ellipse fill="none" stroke="black" cx="1426" cy="-666" rx="28.7" ry="18"/>
<text text-anchor="middle" x="1426" y="-662.3" font-family="Times,serif" font-size="14.00">stake</text>
</g>
<!-- reconfiguration&#45;&gt;stake -->
<g id="edge9" class="edge">
<title>reconfiguration&#45;&gt;stake</title>
<path fill="none" stroke="black" d="M1931.41,-797.02C1824.14,-769.42 1561.4,-701.83 1463.54,-676.66"/>
<polygon fill="black" stroke="black" points="1464.47,-673.28 1453.91,-674.18 1462.72,-680.06 1464.47,-673.28"/>
</g>
<!-- transaction_fee -->
<g id="node11" class="node">
<title>transaction_fee</title>
<ellipse fill="none" stroke="black" cx="1426" cy="-738" rx="64.19" ry="18"/>
<text text-anchor="middle" x="1426" y="-734.3" font-family="Times,serif" font-size="14.00">transaction_fee</text>
</g>
<!-- reconfiguration&#45;&gt;transaction_fee -->
<g id="edge10" class="edge">
<title>reconfiguration&#45;&gt;transaction_fee</title>
<path fill="none" stroke="black" d="M1919.71,-801.61C1817.06,-788.59 1604.55,-761.64 1494.85,-747.73"/>
<polygon fill="black" stroke="black" points="1495.46,-744.28 1485.1,-746.49 1494.58,-751.23 1495.46,-744.28"/>
</g>
<!-- storage_gas -->
<g id="node12" class="node">
<title>storage_gas</title>
<ellipse fill="none" stroke="black" cx="2490" cy="-450" rx="51.99" ry="18"/>
<text text-anchor="middle" x="2490" y="-446.3" font-family="Times,serif" font-size="14.00">storage_gas</text>
</g>
<!-- reconfiguration&#45;&gt;storage_gas -->
<g id="edge11" class="edge">
<title>reconfiguration&#45;&gt;storage_gas</title>
<path fill="none" stroke="black" d="M2042.72,-807.59C2150.42,-804.21 2360.81,-792.95 2424,-756 2466.28,-731.27 2489,-715.98 2489,-667 2489,-667 2489,-667 2489,-593 2489,-553.74 2489.39,-508.37 2489.68,-479.69"/>
<polygon fill="black" stroke="black" points="2493.18,-480.04 2489.78,-470 2486.18,-479.96 2493.18,-480.04"/>
</g>
<!-- features&#45;&gt;signer -->
<g id="edge12" class="edge">
<title>features&#45;&gt;signer</title>
<path fill="none" stroke="black" d="M1347.62,-150.55C1340.56,-148.27 1333.05,-145.95 1326,-144 1259.93,-125.69 1182.04,-108.85 1135.41,-99.27"/>
<polygon fill="black" stroke="black" points="1136.23,-95.86 1125.73,-97.29 1134.83,-102.72 1136.23,-95.86"/>
</g>
<!-- features&#45;&gt;error -->
<g id="edge13" class="edge">
<title>features&#45;&gt;error</title>
<path fill="none" stroke="black" d="M1412.49,-153.77C1475.69,-140.53 1609.58,-112.46 1674.77,-98.8"/>
<polygon fill="black" stroke="black" points="1675.19,-102.29 1684.26,-96.81 1673.76,-95.44 1675.19,-102.29"/>
</g>
<!-- system_addresses&#45;&gt;signer -->
<g id="edge14" class="edge">
<title>system_addresses&#45;&gt;signer</title>
<path fill="none" stroke="black" d="M1847.17,-289.91C1770.87,-258.34 1586.15,-184.87 1425,-144 1323.3,-118.21 1200.69,-102.46 1137.05,-95.4"/>
<polygon fill="black" stroke="black" points="1137.7,-91.95 1127.38,-94.34 1136.94,-98.91 1137.7,-91.95"/>
</g>
<!-- system_addresses&#45;&gt;error -->
<g id="edge15" class="edge">
<title>system_addresses&#45;&gt;error</title>
<path fill="none" stroke="black" d="M1869.3,-287.85C1839.02,-249.96 1766.37,-159.05 1731.42,-115.31"/>
<polygon fill="black" stroke="black" points="1734.29,-113.29 1725.32,-107.67 1728.83,-117.66 1734.29,-113.29"/>
</g>
<!-- bcs -->
<g id="node13" class="node">
<title>bcs</title>
<ellipse fill="none" stroke="black" cx="585" cy="-162" rx="27" ry="18"/>
<text text-anchor="middle" x="585" y="-158.3" font-family="Times,serif" font-size="14.00">bcs</text>
</g>
<!-- event&#45;&gt;bcs -->
<g id="edge16" class="edge">
<title>event&#45;&gt;bcs</title>
<path fill="none" stroke="black" d="M242.65,-360.07C237.7,-340.95 233.01,-309.69 247,-288 312.82,-185.94 473.16,-166.78 546.83,-163.49"/>
<polygon fill="black" stroke="black" points="546.51,-167 556.37,-163.14 546.25,-160.01 546.51,-167"/>
</g>
<!-- guid -->
<g id="node14" class="node">
<title>guid</title>
<ellipse fill="none" stroke="black" cx="283" cy="-306" rx="27" ry="18"/>
<text text-anchor="middle" x="283" y="-302.3" font-family="Times,serif" font-size="14.00">guid</text>
</g>
<!-- event&#45;&gt;guid -->
<g id="edge17" class="edge">
<title>event&#45;&gt;guid</title>
<path fill="none" stroke="black" d="M256.29,-360.41C260.3,-352.39 265.22,-342.57 269.73,-333.54"/>
<polygon fill="black" stroke="black" points="272.75,-335.33 274.09,-324.82 266.49,-332.2 272.75,-335.33"/>
</g>
<!-- account&#45;&gt;signer -->
<g id="edge20" class="edge">
<title>account&#45;&gt;signer</title>
<path fill="none" stroke="black" d="M759.2,-433.62C770.07,-423.48 784.08,-409.59 795,-396 836.63,-344.2 904.52,-186.02 956,-144 984,-121.15 1022.95,-107.4 1052.33,-99.66"/>
<polygon fill="black" stroke="black" points="1053.15,-103.06 1062.01,-97.25 1051.46,-96.27 1053.15,-103.06"/>
</g>
<!-- account&#45;&gt;error -->
<g id="edge21" class="edge">
<title>account&#45;&gt;error</title>
<path fill="none" stroke="black" d="M771.94,-438.29C872.27,-402.36 1205.7,-282.6 1480,-180 1550.59,-153.6 1632.87,-121.78 1678.02,-104.24"/>
<polygon fill="black" stroke="black" points="1679.21,-107.53 1687.26,-100.65 1676.67,-101.01 1679.21,-107.53"/>
</g>
<!-- account&#45;&gt;system_addresses -->
<g id="edge25" class="edge">
<title>account&#45;&gt;system_addresses</title>
<path fill="none" stroke="black" d="M780.31,-449.57C899.6,-450.72 1274.62,-449.51 1579,-396 1670.53,-379.91 1773.68,-346.28 1833.23,-325.28"/>
<polygon fill="black" stroke="black" points="1834.15,-328.67 1842.4,-322.02 1831.81,-322.07 1834.15,-328.67"/>
</g>
<!-- account&#45;&gt;event -->
<g id="edge31" class="edge">
<title>account&#45;&gt;event</title>
<path fill="none" stroke="black" d="M704.51,-445.81C611.16,-437.66 370.17,-415.37 292,-396 288.69,-395.18 285.29,-394.18 281.92,-393.07"/>
<polygon fill="black" stroke="black" points="283.42,-389.89 272.82,-389.8 281.05,-396.48 283.42,-389.89"/>
</g>
<!-- account&#45;&gt;bcs -->
<g id="edge22" class="edge">
<title>account&#45;&gt;bcs</title>
<path fill="none" stroke="black" d="M703.77,-448.17C657.7,-445.37 579.89,-434.72 527,-396 466.48,-351.69 459.31,-324.2 439,-252 434.67,-236.6 429.82,-229.1 439,-216 463.19,-181.48 512.28,-169.36 546.84,-165.15"/>
<polygon fill="black" stroke="black" points="546.85,-168.66 556.44,-164.16 546.13,-161.7 546.85,-168.66"/>
</g>
<!-- account&#45;&gt;guid -->
<g id="edge29" class="edge">
<title>account&#45;&gt;guid</title>
<path fill="none" stroke="black" d="M704.48,-446.15C608.7,-438.59 360.52,-417.17 330,-396 309.38,-381.7 297.1,-355.43 290.3,-335.13"/>
<polygon fill="black" stroke="black" points="293.7,-334.27 287.43,-325.73 287,-336.32 293.7,-334.27"/>
</g>
<!-- vector -->
<g id="node15" class="node">
<title>vector</title>
<ellipse fill="none" stroke="black" cx="644" cy="-18" rx="32.49" ry="18"/>
<text text-anchor="middle" x="644" y="-14.3" font-family="Times,serif" font-size="14.00">vector</text>
</g>
<!-- account&#45;&gt;vector -->
<g id="edge18" class="edge">
<title>account&#45;&gt;vector</title>
<path fill="none" stroke="black" d="M739.88,-431.84C737.27,-413.6 732.04,-384.11 723,-360 703.72,-308.59 678.92,-304.55 663,-252 641.48,-180.99 641.01,-92.58 642.49,-47.83"/>
<polygon fill="black" stroke="black" points="645.99,-48.06 642.89,-37.93 638.99,-47.78 645.99,-48.06"/>
</g>
<!-- option -->
<g id="node16" class="node">
<title>option</title>
<ellipse fill="none" stroke="black" cx="344" cy="-90" rx="33.29" ry="18"/>
<text text-anchor="middle" x="344" y="-86.3" font-family="Times,serif" font-size="14.00">option</text>
</g>
<!-- account&#45;&gt;option -->
<g id="edge19" class="edge">
<title>account&#45;&gt;option</title>
<path fill="none" stroke="black" d="M703.83,-447.66C651.32,-444.42 555.11,-433.4 483,-396 400.11,-353 367.04,-337.72 330,-252 311.09,-208.23 323.46,-151.61 333.91,-118.5"/>
<polygon fill="black" stroke="black" points="337.15,-119.86 336.99,-109.26 330.51,-117.64 337.15,-119.86"/>
</g>
<!-- type_info -->
<g id="node17" class="node">
<title>type_info</title>
<ellipse fill="none" stroke="black" cx="822" cy="-234" rx="44.39" ry="18"/>
<text text-anchor="middle" x="822" y="-230.3" font-family="Times,serif" font-size="14.00">type_info</text>
</g>
<!-- account&#45;&gt;type_info -->
<g id="edge23" class="edge">
<title>account&#45;&gt;type_info</title>
<path fill="none" stroke="black" d="M753.52,-432.41C760.18,-422.25 768.35,-408.78 774,-396 793.76,-351.34 808.2,-296.22 815.83,-263.44"/>
<polygon fill="black" stroke="black" points="819.2,-264.43 818,-253.91 812.37,-262.88 819.2,-264.43"/>
</g>
<!-- table -->
<g id="node18" class="node">
<title>table</title>
<ellipse fill="none" stroke="black" cx="1294" cy="-306" rx="27.9" ry="18"/>
<text text-anchor="middle" x="1294" y="-302.3" font-family="Times,serif" font-size="14.00">table</text>
</g>
<!-- account&#45;&gt;table -->
<g id="edge24" class="edge">
<title>account&#45;&gt;table</title>
<path fill="none" stroke="black" d="M778.13,-443.69C831.79,-435.46 935.51,-418.24 1022,-396 1108.79,-373.69 1208.3,-338.64 1259.52,-319.87"/>
<polygon fill="black" stroke="black" points="1260.7,-323.17 1268.87,-316.43 1258.28,-316.6 1260.7,-323.17"/>
</g>
<!-- hash -->
<g id="node19" class="node">
<title>hash</title>
<ellipse fill="none" stroke="black" cx="475" cy="-234" rx="27" ry="18"/>
<text text-anchor="middle" x="475" y="-230.3" font-family="Times,serif" font-size="14.00">hash</text>
</g>
<!-- account&#45;&gt;hash -->
<g id="edge26" class="edge">
<title>account&#45;&gt;hash</title>
<path fill="none" stroke="black" d="M705.18,-444.51C667.52,-438.48 608.63,-424.96 566,-396 519.27,-364.25 493.79,-300.08 482.42,-263.06"/>
<polygon fill="black" stroke="black" points="485.8,-262.15 479.64,-253.53 479.08,-264.11 485.8,-262.15"/>
</g>
<!-- ed25519 -->
<g id="node20" class="node">
<title>ed25519</title>
<ellipse fill="none" stroke="black" cx="597" cy="-306" rx="40.89" ry="18"/>
<text text-anchor="middle" x="597" y="-302.3" font-family="Times,serif" font-size="14.00">ed25519</text>
</g>
<!-- account&#45;&gt;ed25519 -->
<g id="edge27" class="edge">
<title>account&#45;&gt;ed25519</title>
<path fill="none" stroke="black" d="M703.57,-448.76C664.52,-446.21 605.8,-435.51 577,-396 563.84,-377.94 571.26,-352.76 580.57,-333.78"/>
<polygon fill="black" stroke="black" points="583.62,-335.5 585.26,-325.03 577.45,-332.19 583.62,-335.5"/>
</g>
<!-- multi_ed25519 -->
<g id="node21" class="node">
<title>multi_ed25519</title>
<ellipse fill="none" stroke="black" cx="650" cy="-378" rx="64.19" ry="18"/>
<text text-anchor="middle" x="650" y="-374.3" font-family="Times,serif" font-size="14.00">multi_ed25519</text>
</g>
<!-- account&#45;&gt;multi_ed25519 -->
<g id="edge28" class="edge">
<title>account&#45;&gt;multi_ed25519</title>
<path fill="none" stroke="black" d="M722.49,-434.15C710.32,-424.89 694.39,-412.78 680.57,-402.26"/>
<polygon fill="black" stroke="black" points="682.69,-399.48 672.61,-396.21 678.45,-405.05 682.69,-399.48"/>
</g>
<!-- from_bcs -->
<g id="node22" class="node">
<title>from_bcs</title>
<ellipse fill="none" stroke="black" cx="716" cy="-234" rx="44.39" ry="18"/>
<text text-anchor="middle" x="716" y="-230.3" font-family="Times,serif" font-size="14.00">from_bcs</text>
</g>
<!-- account&#45;&gt;from_bcs -->
<g id="edge30" class="edge">
<title>account&#45;&gt;from_bcs</title>
<path fill="none" stroke="black" d="M747.84,-432.02C757.19,-402.07 772.84,-338.28 756,-288 752.59,-277.83 746.38,-268.06 739.86,-259.73"/>
<polygon fill="black" stroke="black" points="742.59,-257.54 733.46,-252.16 737.24,-262.06 742.59,-257.54"/>
</g>
<!-- chain_status&#45;&gt;error -->
<g id="edge32" class="edge">
<title>chain_status&#45;&gt;error</title>
<path fill="none" stroke="black" d="M2242.84,-359.57C2243.92,-315.6 2240.04,-199.69 2174,-144 2141.91,-116.94 1857.01,-98.87 1751.27,-93.04"/>
<polygon fill="black" stroke="black" points="1751.56,-89.55 1741.38,-92.5 1751.18,-96.54 1751.56,-89.55"/>
</g>
<!-- chain_status&#45;&gt;system_addresses -->
<g id="edge33" class="edge">
<title>chain_status&#45;&gt;system_addresses</title>
<path fill="none" stroke="black" d="M2196.17,-368.06C2133.91,-355.92 2022.15,-334.13 1950.34,-320.13"/>
<polygon fill="black" stroke="black" points="1951.14,-316.72 1940.66,-318.24 1949.8,-323.59 1951.14,-316.72"/>
</g>
<!-- timestamp&#45;&gt;error -->
<g id="edge34" class="edge">
<title>timestamp&#45;&gt;error</title>
<path fill="none" stroke="black" d="M1971.52,-508.04C2032.35,-480.68 2160,-410.9 2160,-307 2160,-307 2160,-307 2160,-233 2160,-147.57 1860.25,-106.89 1751.13,-94.91"/>
<polygon fill="black" stroke="black" points="1751.51,-91.43 1741.19,-93.84 1750.76,-98.39 1751.51,-91.43"/>
</g>
<!-- timestamp&#45;&gt;system_addresses -->
<g id="edge35" class="edge">
<title>timestamp&#45;&gt;system_addresses</title>
<path fill="none" stroke="black" d="M1935.43,-503.85C1925.63,-467.07 1902.52,-380.29 1890.52,-335.24"/>
<polygon fill="black" stroke="black" points="1893.94,-334.46 1887.98,-325.7 1887.17,-336.26 1893.94,-334.46"/>
</g>
<!-- stake&#45;&gt;signer -->
<g id="edge38" class="edge">
<title>stake&#45;&gt;signer</title>
<path fill="none" stroke="black" d="M1400.03,-658.09C1376.87,-650.57 1343.81,-636.25 1325,-612 1244.39,-508.08 1286.38,-452.2 1257,-324 1238.69,-244.12 1269.25,-207.14 1217,-144 1196.76,-119.55 1163.14,-106.1 1136.16,-98.88"/>
<polygon fill="black" stroke="black" points="1137.07,-95.5 1126.53,-96.51 1135.4,-102.3 1137.07,-95.5"/>
</g>
<!-- stake&#45;&gt;error -->
<g id="edge39" class="edge">
<title>stake&#45;&gt;error</title>
<path fill="none" stroke="black" d="M1455.13,-665.12C1528.27,-664.68 1724.84,-658.85 1880,-612 2109.19,-542.8 2324,-546.41 2324,-307 2324,-307 2324,-307 2324,-233 2324,-115.08 1887.4,-95.05 1751.73,-91.68"/>
<polygon fill="black" stroke="black" points="1751.88,-88.18 1741.8,-91.45 1751.72,-95.18 1751.88,-88.18"/>
</g>
<!-- stake&#45;&gt;features -->
<g id="edge40" class="edge">
<title>stake&#45;&gt;features</title>
<path fill="none" stroke="black" d="M1418.29,-648.33C1398.97,-604.95 1350,-484.58 1350,-379 1350,-379 1350,-379 1350,-305 1350,-264.81 1360.93,-219.4 1369.13,-190.99"/>
<polygon fill="black" stroke="black" points="1372.39,-192.31 1371.9,-181.72 1365.69,-190.3 1372.39,-192.31"/>
</g>
<!-- stake&#45;&gt;system_addresses -->
<g id="edge42" class="edge">
<title>stake&#45;&gt;system_addresses</title>
<path fill="none" stroke="black" d="M1455.09,-664.47C1500.98,-662.35 1591.35,-652.83 1654,-612 1710.99,-574.86 1824,-400.89 1866.41,-333.63"/>
<polygon fill="black" stroke="black" points="1869.2,-335.76 1871.56,-325.43 1863.27,-332.04 1869.2,-335.76"/>
</g>
<!-- stake&#45;&gt;event -->
<g id="edge43" class="edge">
<title>stake&#45;&gt;event</title>
<path fill="none" stroke="black" d="M1397.18,-663.7C1321.42,-659.87 1110.73,-646.7 939,-612 719.85,-567.72 667.29,-543.92 457,-468 393.97,-445.25 322.53,-413.49 281.62,-394.7"/>
<polygon fill="black" stroke="black" points="283.09,-391.52 272.54,-390.51 280.15,-397.88 283.09,-391.52"/>
</g>
<!-- stake&#45;&gt;account -->
<g id="edge44" class="edge">
<title>stake&#45;&gt;account</title>
<path fill="none" stroke="black" d="M1396.95,-664.94C1329.69,-664 1158.79,-656.98 1025,-612 924.79,-578.31 819.95,-507.91 770.73,-472.42"/>
<polygon fill="black" stroke="black" points="773.02,-469.76 762.87,-466.7 768.9,-475.42 773.02,-469.76"/>
</g>
<!-- stake&#45;&gt;timestamp -->
<g id="edge47" class="edge">
<title>stake&#45;&gt;timestamp</title>
<path fill="none" stroke="black" d="M1454.88,-663.52C1537.09,-658.96 1770.84,-643.49 1840,-612 1871.88,-597.49 1900.88,-569.22 1919.34,-548.42"/>
<polygon fill="black" stroke="black" points="1921.95,-550.75 1925.83,-540.89 1916.65,-546.18 1921.95,-550.75"/>
</g>
<!-- stake&#45;&gt;vector -->
<g id="edge36" class="edge">
<title>stake&#45;&gt;vector</title>
<path fill="none" stroke="black" d="M1454.66,-663.59C1535.13,-659.34 1769.82,-644.83 1962,-612 2290.1,-555.96 2646,-639.85 2646,-307 2646,-307 2646,-307 2646,-161 2646,-59.35 982.02,-25.02 688.09,-19.75"/>
<polygon fill="black" stroke="black" points="688.24,-16.25 678.18,-19.57 688.12,-23.25 688.24,-16.25"/>
</g>
<!-- stake&#45;&gt;option -->
<g id="edge37" class="edge">
<title>stake&#45;&gt;option</title>
<path fill="none" stroke="black" d="M1397.4,-663.26C1228.91,-652.81 369.76,-597.02 268,-540 150.94,-474.4 76,-441.18 76,-307 76,-307 76,-307 76,-233 76,-132.96 223.62,-103.2 299.74,-94.5"/>
<polygon fill="black" stroke="black" points="299.79,-98.01 309.36,-93.48 299.05,-91.05 299.79,-98.01"/>
</g>
<!-- stake&#45;&gt;table -->
<g id="edge41" class="edge">
<title>stake&#45;&gt;table</title>
<path fill="none" stroke="black" d="M1405.88,-652.67C1373.15,-630.9 1312,-582.28 1312,-523 1312,-523 1312,-523 1312,-449 1312,-409.21 1304.96,-363.64 1299.68,-335.09"/>
<polygon fill="black" stroke="black" points="1303.16,-334.61 1297.84,-325.45 1296.28,-335.93 1303.16,-334.61"/>
</g>
<!-- coin -->
<g id="node23" class="node">
<title>coin</title>
<ellipse fill="none" stroke="black" cx="1160" cy="-522" rx="27" ry="18"/>
<text text-anchor="middle" x="1160" y="-518.3" font-family="Times,serif" font-size="14.00">coin</text>
</g>
<!-- stake&#45;&gt;coin -->
<g id="edge45" class="edge">
<title>stake&#45;&gt;coin</title>
<path fill="none" stroke="black" d="M1397.03,-663.71C1354.95,-660.55 1276.05,-649.64 1222,-612 1199.6,-596.4 1182.69,-569.94 1172.23,-549.91"/>
<polygon fill="black" stroke="black" points="1175.49,-548.59 1167.9,-541.19 1169.22,-551.7 1175.49,-548.59"/>
</g>
<!-- aptos_coin -->
<g id="node24" class="node">
<title>aptos_coin</title>
<ellipse fill="none" stroke="black" cx="1083" cy="-594" rx="48.99" ry="18"/>
<text text-anchor="middle" x="1083" y="-590.3" font-family="Times,serif" font-size="14.00">aptos_coin</text>
</g>
<!-- stake&#45;&gt;aptos_coin -->
<g id="edge46" class="edge">
<title>stake&#45;&gt;aptos_coin</title>
<path fill="none" stroke="black" d="M1398.8,-659.45C1342.05,-647.87 1210.19,-620.96 1136.06,-605.83"/>
<polygon fill="black" stroke="black" points="1137.09,-602.47 1126.6,-603.9 1135.69,-609.33 1137.09,-602.47"/>
</g>
<!-- staking_config -->
<g id="node25" class="node">
<title>staking_config</title>
<ellipse fill="none" stroke="black" cx="2031" cy="-378" rx="63.09" ry="18"/>
<text text-anchor="middle" x="2031" y="-374.3" font-family="Times,serif" font-size="14.00">staking_config</text>
</g>
<!-- stake&#45;&gt;staking_config -->
<g id="edge48" class="edge">
<title>stake&#45;&gt;staking_config</title>
<path fill="none" stroke="black" d="M1454.75,-663.77C1532.15,-660.04 1743.04,-646.83 1802,-612 1853.66,-581.48 1841.82,-547.64 1883,-504 1919.92,-464.88 1968.49,-425.84 1999.73,-402.06"/>
<polygon fill="black" stroke="black" points="2001.75,-404.92 2007.63,-396.1 1997.54,-399.33 2001.75,-404.92"/>
</g>
<!-- math64 -->
<g id="node26" class="node">
<title>math64</title>
<ellipse fill="none" stroke="black" cx="1607" cy="-594" rx="37.89" ry="18"/>
<text text-anchor="middle" x="1607" y="-590.3" font-family="Times,serif" font-size="14.00">math64</text>
</g>
<!-- stake&#45;&gt;math64 -->
<g id="edge49" class="edge">
<title>stake&#45;&gt;math64</title>
<path fill="none" stroke="black" d="M1450.04,-655.7C1480.1,-644.08 1531.98,-624.01 1567.82,-610.15"/>
<polygon fill="black" stroke="black" points="1568.91,-613.48 1576.97,-606.61 1566.38,-606.96 1568.91,-613.48"/>
</g>
<!-- bls12381 -->
<g id="node27" class="node">
<title>bls12381</title>
<ellipse fill="none" stroke="black" cx="1165" cy="-162" rx="42.79" ry="18"/>
<text text-anchor="middle" x="1165" y="-158.3" font-family="Times,serif" font-size="14.00">bls12381</text>
</g>
<!-- stake&#45;&gt;bls12381 -->
<g id="edge50" class="edge">
<title>stake&#45;&gt;bls12381</title>
<path fill="none" stroke="black" d="M1397,-664.21C1359.67,-661.56 1295.41,-651.16 1260,-612 1203.16,-549.13 1175.18,-280.67 1167.35,-191.74"/>
<polygon fill="black" stroke="black" points="1170.85,-191.6 1166.51,-181.93 1163.88,-192.2 1170.85,-191.6"/>
</g>
<!-- transaction_fee&#45;&gt;error -->
<g id="edge52" class="edge">
<title>transaction_fee&#45;&gt;error</title>
<path fill="none" stroke="black" d="M1489.17,-734.2C1700.87,-723.98 2372,-684.53 2372,-595 2372,-595 2372,-595 2372,-521 2372,-425.08 2400,-402.92 2400,-307 2400,-307 2400,-307 2400,-233 2400,-99.69 1898.32,-90.51 1751.75,-90.67"/>
<polygon fill="black" stroke="black" points="1751.76,-87.17 1741.77,-90.7 1751.78,-94.17 1751.76,-87.17"/>
</g>
<!-- transaction_fee&#45;&gt;system_addresses -->
<g id="edge53" class="edge">
<title>transaction_fee&#45;&gt;system_addresses</title>
<path fill="none" stroke="black" d="M1490.33,-737.14C1581.69,-733.59 1747.61,-712.62 1835,-612 1870.65,-570.95 1879.94,-403.42 1882.26,-335.65"/>
<polygon fill="black" stroke="black" points="1885.76,-335.83 1882.57,-325.72 1878.76,-335.61 1885.76,-335.83"/>
</g>
<!-- transaction_fee&#45;&gt;stake -->
<g id="edge56" class="edge">
<title>transaction_fee&#45;&gt;stake</title>
<path fill="none" stroke="black" d="M1426,-719.7C1426,-712.41 1426,-703.73 1426,-695.54"/>
<polygon fill="black" stroke="black" points="1429.5,-695.62 1426,-685.62 1422.5,-695.62 1429.5,-695.62"/>
</g>
<!-- transaction_fee&#45;&gt;option -->
<g id="edge51" class="edge">
<title>transaction_fee&#45;&gt;option</title>
<path fill="none" stroke="black" d="M1362.75,-734.52C1091.22,-722.19 38,-656.48 38,-379 38,-379 38,-379 38,-233 38,-186.96 53.53,-170.75 91,-144 124.09,-120.37 237.11,-103.64 300.32,-95.88"/>
<polygon fill="black" stroke="black" points="300.5,-99.38 310.01,-94.71 299.66,-92.43 300.5,-99.38"/>
</g>
<!-- transaction_fee&#45;&gt;coin -->
<g id="edge54" class="edge">
<title>transaction_fee&#45;&gt;coin</title>
<path fill="none" stroke="black" d="M1380.1,-725.06C1325.88,-708.59 1236.68,-673.73 1186,-612 1171.94,-594.88 1165.48,-570.44 1162.52,-551.5"/>
<polygon fill="black" stroke="black" points="1166.01,-551.22 1161.25,-541.76 1159.07,-552.13 1166.01,-551.22"/>
</g>
<!-- transaction_fee&#45;&gt;aptos_coin -->
<g id="edge55" class="edge">
<title>transaction_fee&#45;&gt;aptos_coin</title>
<path fill="none" stroke="black" d="M1366.29,-730.98C1295.23,-722.92 1181.7,-706.93 1146,-684 1122.91,-669.17 1105.77,-642.6 1095.25,-622.34"/>
<polygon fill="black" stroke="black" points="1098.44,-620.91 1090.88,-613.49 1092.17,-624.01 1098.44,-620.91"/>
</g>
<!-- storage_gas&#45;&gt;error -->
<g id="edge57" class="edge">
<title>storage_gas&#45;&gt;error</title>
<path fill="none" stroke="black" d="M2514.27,-433.66C2527.1,-424.3 2542.02,-411.23 2551,-396 2571.55,-361.16 2570,-347.45 2570,-307 2570,-307 2570,-307 2570,-233 2570,-164.08 2507.94,-167.1 2443,-144 2313.83,-98.04 1884.14,-91.9 1751.41,-91.11"/>
<polygon fill="black" stroke="black" points="1751.75,-87.61 1741.73,-91.06 1751.71,-94.61 1751.75,-87.61"/>
</g>
<!-- storage_gas&#45;&gt;system_addresses -->
<g id="edge58" class="edge">
<title>storage_gas&#45;&gt;system_addresses</title>
<path fill="none" stroke="black" d="M2465.31,-433.9C2430.78,-413.56 2365.51,-377.84 2305,-360 2190.96,-326.38 2053.42,-314.09 1967.07,-309.59"/>
<polygon fill="black" stroke="black" points="1967.42,-306.1 1957.26,-309.11 1967.08,-313.09 1967.42,-306.1"/>
</g>
<!-- state_storage -->
<g id="node28" class="node">
<title>state_storage</title>
<ellipse fill="none" stroke="black" cx="2485" cy="-378" rx="56.59" ry="18"/>
<text text-anchor="middle" x="2485" y="-374.3" font-family="Times,serif" font-size="14.00">state_storage</text>
</g>
<!-- storage_gas&#45;&gt;state_storage -->
<g id="edge59" class="edge">
<title>storage_gas&#45;&gt;state_storage</title>
<path fill="none" stroke="black" d="M2488.76,-431.7C2488.24,-424.41 2487.62,-415.73 2487.04,-407.54"/>
<polygon fill="black" stroke="black" points="2490.53,-407.34 2486.33,-397.61 2483.55,-407.84 2490.53,-407.34"/>
</g>
<!-- option&#45;&gt;vector -->
<g id="edge60" class="edge">
<title>option&#45;&gt;vector</title>
<path fill="none" stroke="black" d="M374.14,-81.97C428.3,-69.33 542.12,-42.77 603.2,-28.52"/>
<polygon fill="black" stroke="black" points="603.91,-31.95 612.85,-26.27 602.32,-25.13 603.91,-31.95"/>
</g>
<!-- type_info&#45;&gt;error -->
<g id="edge62" class="edge">
<title>type_info&#45;&gt;error</title>
<path fill="none" stroke="black" d="M855.79,-221.99C863.67,-219.74 872.07,-217.57 880,-216 1027.75,-186.7 1078.36,-238.9 1217,-180 1239.94,-170.25 1237.11,-153.86 1260,-144 1333.93,-112.14 1576.58,-97.42 1672.48,-92.74"/>
<polygon fill="black" stroke="black" points="1672.63,-96.24 1682.45,-92.27 1672.29,-89.24 1672.63,-96.24"/>
</g>
<!-- type_info&#45;&gt;features -->
<g id="edge63" class="edge">
<title>type_info&#45;&gt;features</title>
<path fill="none" stroke="black" d="M864.24,-227.9C941.04,-218.58 1108.71,-198.13 1250,-180 1276.56,-176.59 1306.2,-172.66 1330.27,-169.44"/>
<polygon fill="black" stroke="black" points="1330.65,-172.92 1340.1,-168.12 1329.72,-165.98 1330.65,-172.92"/>
</g>
<!-- type_info&#45;&gt;bcs -->
<g id="edge64" class="edge">
<title>type_info&#45;&gt;bcs</title>
<path fill="none" stroke="black" d="M788.12,-221.97C781.78,-219.95 775.19,-217.88 769,-216 717.55,-200.34 657.65,-183.31 620.53,-172.89"/>
<polygon fill="black" stroke="black" points="621.8,-169.62 611.23,-170.29 619.91,-176.36 621.8,-169.62"/>
</g>
<!-- string -->
<g id="node29" class="node">
<title>string</title>
<ellipse fill="none" stroke="black" cx="769" cy="-162" rx="30.59" ry="18"/>
<text text-anchor="middle" x="769" y="-158.3" font-family="Times,serif" font-size="14.00">string</text>
</g>
<!-- type_info&#45;&gt;string -->
<g id="edge61" class="edge">
<title>type_info&#45;&gt;string</title>
<path fill="none" stroke="black" d="M809.44,-216.41C803.01,-207.92 795.05,-197.41 787.9,-187.96"/>
<polygon fill="black" stroke="black" points="790.85,-186.05 782.02,-180.19 785.26,-190.28 790.85,-186.05"/>
</g>
<!-- ed25519&#45;&gt;error -->
<g id="edge66" class="edge">
<title>ed25519&#45;&gt;error</title>
<path fill="none" stroke="black" d="M634.99,-298.85C688.74,-289.89 789.89,-272.13 875,-252 932.09,-238.49 944.61,-228.19 1002,-216 1112.24,-192.58 1144.93,-211.95 1253,-180 1289.61,-169.18 1294.36,-154.75 1331,-144 1452.46,-108.37 1602.91,-96.45 1672.85,-92.66"/>
<polygon fill="black" stroke="black" points="1672.84,-96.16 1682.65,-92.16 1672.48,-89.17 1672.84,-96.16"/>
</g>
<!-- ed25519&#45;&gt;bcs -->
<g id="edge67" class="edge">
<title>ed25519&#45;&gt;bcs</title>
<path fill="none" stroke="black" d="M595.31,-287.82C594.31,-277.45 593.04,-263.97 592,-252 590.26,-231.9 588.48,-209.23 587.15,-191.79"/>
<polygon fill="black" stroke="black" points="590.65,-191.62 586.4,-181.91 583.67,-192.15 590.65,-191.62"/>
</g>
<!-- ed25519&#45;&gt;option -->
<g id="edge65" class="edge">
<title>ed25519&#45;&gt;option</title>
<path fill="none" stroke="black" d="M582.8,-288.81C566.31,-270.37 537.92,-239.73 511,-216 465.51,-175.89 408.07,-134.77 373.78,-111.12"/>
<polygon fill="black" stroke="black" points="375.81,-108.27 365.59,-105.5 371.85,-114.04 375.81,-108.27"/>
</g>
<!-- ed25519&#45;&gt;type_info -->
<g id="edge68" class="edge">
<title>ed25519&#45;&gt;type_info</title>
<path fill="none" stroke="black" d="M630.01,-294.95C664.66,-284.37 720.71,-267.18 769,-252 771.7,-251.15 774.48,-250.27 777.28,-249.38"/>
<polygon fill="black" stroke="black" points="778.18,-252.77 786.65,-246.4 776.06,-246.1 778.18,-252.77"/>
</g>
<!-- ed25519&#45;&gt;hash -->
<g id="edge69" class="edge">
<title>ed25519&#45;&gt;hash</title>
<path fill="none" stroke="black" d="M572.9,-291.17C553.41,-279.99 525.88,-264.19 504.98,-252.2"/>
<polygon fill="black" stroke="black" points="506.75,-249.18 496.33,-247.24 503.26,-255.25 506.75,-249.18"/>
</g>
<!-- multi_ed25519&#45;&gt;error -->
<g id="edge71" class="edge">
<title>multi_ed25519&#45;&gt;error</title>
<path fill="none" stroke="black" d="M695.05,-364.84C816.58,-332.08 1149.39,-242.65 1260,-216 1332.97,-198.42 1353.67,-203.36 1425,-180 1462.44,-167.74 1468.79,-156.95 1506,-144 1563.7,-123.91 1632.86,-107.65 1674.57,-98.66"/>
<polygon fill="black" stroke="black" points="1675.04,-102.14 1684.09,-96.64 1673.58,-95.29 1675.04,-102.14"/>
</g>
<!-- multi_ed25519&#45;&gt;features -->
<g id="edge72" class="edge">
<title>multi_ed25519&#45;&gt;features</title>
<path fill="none" stroke="black" d="M683.82,-362.4C728.26,-343.56 809,-310.55 880,-288 1044.04,-235.89 1243.92,-191.28 1332.27,-172.5"/>
<polygon fill="black" stroke="black" points="1332.94,-175.93 1342,-170.44 1331.49,-169.09 1332.94,-175.93"/>
</g>
<!-- multi_ed25519&#45;&gt;bcs -->
<g id="edge73" class="edge">
<title>multi_ed25519&#45;&gt;bcs</title>
<path fill="none" stroke="black" d="M651.56,-359.64C652.7,-341.47 653.13,-312.28 647,-288 645.68,-282.78 616.35,-224.63 598.51,-189.51"/>
<polygon fill="black" stroke="black" points="601.72,-188.11 594.07,-180.78 595.48,-191.28 601.72,-188.11"/>
</g>
<!-- multi_ed25519&#45;&gt;option -->
<g id="edge70" class="edge">
<title>multi_ed25519&#45;&gt;option</title>
<path fill="none" stroke="black" d="M603.78,-365.24C575.02,-356.61 538.1,-343.05 509,-324 471.66,-299.56 466.09,-287.47 439,-252 405.38,-207.97 374.35,-151.07 357.41,-118.05"/>
<polygon fill="black" stroke="black" points="360.55,-116.5 352.91,-109.16 354.31,-119.67 360.55,-116.5"/>
</g>
<!-- multi_ed25519&#45;&gt;hash -->
<g id="edge74" class="edge">
<title>multi_ed25519&#45;&gt;hash</title>
<path fill="none" stroke="black" d="M613.96,-362.9C593.12,-353.7 567.12,-340.37 547,-324 524.68,-305.84 504.58,-279.76 491.33,-260.52"/>
<polygon fill="black" stroke="black" points="494.37,-258.77 485.89,-252.42 488.56,-262.68 494.37,-258.77"/>
</g>
<!-- multi_ed25519&#45;&gt;ed25519 -->
<g id="edge75" class="edge">
<title>multi_ed25519&#45;&gt;ed25519</title>
<path fill="none" stroke="black" d="M637.17,-360.05C630.89,-351.77 623.21,-341.62 616.25,-332.42"/>
<polygon fill="black" stroke="black" points="619.09,-330.37 610.26,-324.51 613.51,-334.6 619.09,-330.37"/>
</g>
<!-- from_bcs&#45;&gt;string -->
<g id="edge76" class="edge">
<title>from_bcs&#45;&gt;string</title>
<path fill="none" stroke="black" d="M728.56,-216.41C734.99,-207.92 742.95,-197.41 750.1,-187.96"/>
<polygon fill="black" stroke="black" points="752.74,-190.28 755.98,-180.19 747.15,-186.05 752.74,-190.28"/>
</g>
<!-- coin&#45;&gt;signer -->
<g id="edge79" class="edge">
<title>coin&#45;&gt;signer</title>
<path fill="none" stroke="black" d="M1160,-503.51C1160,-476.71 1160,-423.87 1160,-379 1160,-379 1160,-379 1160,-305 1160,-245.65 1129.69,-236.96 1113,-180 1107.15,-160.04 1102.3,-137.08 1098.96,-119.48"/>
<polygon fill="black" stroke="black" points="1102.42,-118.94 1097.17,-109.74 1095.53,-120.21 1102.42,-118.94"/>
</g>
<!-- coin&#45;&gt;error -->
<g id="edge80" class="edge">
<title>coin&#45;&gt;error</title>
<path fill="none" stroke="black" d="M1187.39,-520.34C1268.06,-517.96 1503.15,-507.69 1567,-468 1576.35,-462.19 1674,-316.29 1674,-307 1674,-307 1674,-307 1674,-233 1674,-191.95 1689,-146.43 1700.15,-118.26"/>
<polygon fill="black" stroke="black" points="1703.37,-119.64 1703.92,-109.06 1696.89,-116.99 1703.37,-119.64"/>
</g>
<!-- coin&#45;&gt;system_addresses -->
<g id="edge82" class="edge">
<title>coin&#45;&gt;system_addresses</title>
<path fill="none" stroke="black" d="M1187.19,-520.19C1277.39,-517.19 1565.72,-504.85 1650,-468 1716.96,-438.72 1713.05,-400.33 1774,-360 1793.26,-347.25 1816.05,-335.69 1835.79,-326.65"/>
<polygon fill="black" stroke="black" points="1837.03,-329.93 1844.72,-322.64 1834.17,-323.54 1837.03,-329.93"/>
</g>
<!-- coin&#45;&gt;event -->
<g id="edge83" class="edge">
<title>coin&#45;&gt;event</title>
<path fill="none" stroke="black" d="M1133.13,-519.26C1026.1,-511.86 620.41,-479.55 298,-396 293.36,-394.8 288.52,-393.38 283.77,-391.88"/>
<polygon fill="black" stroke="black" points="284.99,-388.59 274.4,-388.77 282.79,-395.24 284.99,-388.59"/>
</g>
<!-- coin&#45;&gt;account -->
<g id="edge84" class="edge">
<title>coin&#45;&gt;account</title>
<path fill="none" stroke="black" d="M1133.85,-516.62C1064.83,-505.06 877.02,-473.61 788.87,-458.85"/>
<polygon fill="black" stroke="black" points="789.55,-455.41 779.11,-457.21 788.39,-462.32 789.55,-455.41"/>
</g>
<!-- coin&#45;&gt;option -->
<g id="edge77" class="edge">
<title>coin&#45;&gt;option</title>
<path fill="none" stroke="black" d="M1132.6,-520.97C1038.03,-520.42 716.85,-514.99 457,-468 400.53,-457.79 248.09,-438.02 209,-396 181.45,-366.39 190,-347.45 190,-307 190,-307 190,-307 190,-233 190,-169.54 261.56,-126.61 307.12,-105.71"/>
<polygon fill="black" stroke="black" points="308.41,-108.97 316.14,-101.72 305.58,-102.57 308.41,-108.97"/>
</g>
<!-- coin&#45;&gt;type_info -->
<g id="edge81" class="edge">
<title>coin&#45;&gt;type_info</title>
<path fill="none" stroke="black" d="M1143.7,-507.21C1089.68,-461.5 916.2,-314.71 848.97,-257.82"/>
<polygon fill="black" stroke="black" points="851.63,-255.49 841.73,-251.7 847.11,-260.83 851.63,-255.49"/>
</g>
<!-- coin&#45;&gt;string -->
<g id="edge78" class="edge">
<title>coin&#45;&gt;string</title>
<path fill="none" stroke="black" d="M1152.49,-504.34C1141.42,-478.2 1122,-425.7 1122,-379 1122,-379 1122,-379 1122,-305 1122,-245.5 1075.13,-242.78 1022,-216 953.22,-181.33 862.95,-169.33 810.91,-165.18"/>
<polygon fill="black" stroke="black" points="811.22,-161.69 800.99,-164.46 810.71,-168.67 811.22,-161.69"/>
</g>
<!-- aggregator -->
<g id="node30" class="node">
<title>aggregator</title>
<ellipse fill="none" stroke="black" cx="1426" cy="-306" rx="48.19" ry="18"/>
<text text-anchor="middle" x="1426" y="-302.3" font-family="Times,serif" font-size="14.00">aggregator</text>
</g>
<!-- coin&#45;&gt;aggregator -->
<g id="edge85" class="edge">
<title>coin&#45;&gt;aggregator</title>
<path fill="none" stroke="black" d="M1176.64,-507.61C1220.94,-471.98 1342.13,-374.47 1397.6,-329.85"/>
<polygon fill="black" stroke="black" points="1399.76,-332.6 1405.36,-323.6 1395.38,-327.14 1399.76,-332.6"/>
</g>
<!-- aggregator_factory -->
<g id="node31" class="node">
<title>aggregator_factory</title>
<ellipse fill="none" stroke="black" cx="1493" cy="-378" rx="77.19" ry="18"/>
<text text-anchor="middle" x="1493" y="-374.3" font-family="Times,serif" font-size="14.00">aggregator_factory</text>
</g>
<!-- coin&#45;&gt;aggregator_factory -->
<g id="edge86" class="edge">
<title>coin&#45;&gt;aggregator_factory</title>
<path fill="none" stroke="black" d="M1186.92,-519.35C1271.09,-513.92 1525.1,-495.37 1549,-468 1566.62,-447.81 1545.63,-421.52 1524.51,-402.76"/>
<polygon fill="black" stroke="black" points="1526.92,-400.22 1517.03,-396.44 1522.41,-405.57 1526.92,-400.22"/>
</g>
<!-- optional_aggregator -->
<g id="node32" class="node">
<title>optional_aggregator</title>
<ellipse fill="none" stroke="black" cx="1459" cy="-450" rx="81.49" ry="18"/>
<text text-anchor="middle" x="1459" y="-446.3" font-family="Times,serif" font-size="14.00">optional_aggregator</text>
</g>
<!-- coin&#45;&gt;optional_aggregator -->
<g id="edge87" class="edge">
<title>coin&#45;&gt;optional_aggregator</title>
<path fill="none" stroke="black" d="M1185.23,-515.09C1230.75,-504.44 1327.94,-481.68 1393.4,-466.36"/>
<polygon fill="black" stroke="black" points="1394.01,-469.81 1402.95,-464.12 1392.42,-462.99 1394.01,-469.81"/>
</g>
<!-- aptos_coin&#45;&gt;signer -->
<g id="edge91" class="edge">
<title>aptos_coin&#45;&gt;signer</title>
<path fill="none" stroke="black" d="M1083.38,-575.72C1085,-501.88 1091.34,-212.42 1093.37,-119.72"/>
<polygon fill="black" stroke="black" points="1096.86,-120.05 1093.58,-109.98 1089.87,-119.9 1096.86,-120.05"/>
</g>
<!-- aptos_coin&#45;&gt;error -->
<g id="edge92" class="edge">
<title>aptos_coin&#45;&gt;error</title>
<path fill="none" stroke="black" d="M1127.39,-586.19C1237.02,-568.74 1517.31,-520.12 1595,-468 1668.46,-418.72 1712,-395.45 1712,-307 1712,-307 1712,-307 1712,-233 1712,-193.74 1712,-148.38 1712,-119.69"/>
<polygon fill="black" stroke="black" points="1715.5,-120 1712,-110 1708.5,-120 1715.5,-120"/>
</g>
<!-- aptos_coin&#45;&gt;system_addresses -->
<g id="edge93" class="edge">
<title>aptos_coin&#45;&gt;system_addresses</title>
<path fill="none" stroke="black" d="M1132.35,-593.18C1240.79,-591.46 1504.91,-575.63 1690,-468 1752.6,-431.6 1755.82,-405.7 1812,-360 1824.46,-349.87 1838.56,-339.18 1850.9,-330.09"/>
<polygon fill="black" stroke="black" points="1852.71,-333.1 1858.71,-324.37 1848.57,-327.45 1852.71,-333.1"/>
</g>
<!-- aptos_coin&#45;&gt;vector -->
<g id="edge88" class="edge">
<title>aptos_coin&#45;&gt;vector</title>
<path fill="none" stroke="black" d="M1033.7,-593.4C922.08,-593.37 642.01,-588.04 414,-540 319.1,-520.01 288.64,-521.89 208,-468 92.59,-390.87 0,-373.82 0,-235 0,-235 0,-235 0,-161 0,-37.82 454.97,-21.39 600.09,-19.28"/>
<polygon fill="black" stroke="black" points="599.71,-22.79 609.67,-19.16 599.62,-15.79 599.71,-22.79"/>
</g>
<!-- aptos_coin&#45;&gt;option -->
<g id="edge89" class="edge">
<title>aptos_coin&#45;&gt;option</title>
<path fill="none" stroke="black" d="M1035.74,-588.7C885.33,-574.52 419.54,-526.83 281,-468 196.6,-432.16 152,-398.69 152,-307 152,-307 152,-307 152,-233 152,-186.73 170.5,-173.67 206,-144 233.56,-120.97 272.22,-107.29 301.61,-99.61"/>
<polygon fill="black" stroke="black" points="302.44,-103.01 311.31,-97.22 300.76,-96.21 302.44,-103.01"/>
</g>
<!-- aptos_coin&#45;&gt;coin -->
<g id="edge94" class="edge">
<title>aptos_coin&#45;&gt;coin</title>
<path fill="none" stroke="black" d="M1100.86,-576.76C1111.41,-567.17 1124.89,-554.91 1136.32,-544.52"/>
<polygon fill="black" stroke="black" points="1138.41,-547.35 1143.46,-538.04 1133.71,-542.17 1138.41,-547.35"/>
</g>
<!-- aptos_coin&#45;&gt;string -->
<g id="edge90" class="edge">
<title>aptos_coin&#45;&gt;string</title>
<path fill="none" stroke="black" d="M1064.97,-577.04C1054.46,-567.1 1041.45,-553.65 1032,-540 940.87,-408.47 987.83,-329.46 875,-216 856.01,-196.9 828.73,-183.48 806.6,-174.92"/>
<polygon fill="black" stroke="black" points="807.9,-171.67 797.31,-171.52 805.5,-178.24 807.9,-171.67"/>
</g>
<!-- staking_config&#45;&gt;error -->
<g id="edge95" class="edge">
<title>staking_config&#45;&gt;error</title>
<path fill="none" stroke="black" d="M2020.27,-359.91C2008.1,-341.2 1987.06,-310.82 1965,-288 1892.25,-212.73 1789.86,-141.75 1740.64,-109.36"/>
<polygon fill="black" stroke="black" points="1742.8,-106.6 1732.51,-104.06 1738.97,-112.46 1742.8,-106.6"/>
</g>
<!-- staking_config&#45;&gt;system_addresses -->
<g id="edge96" class="edge">
<title>staking_config&#45;&gt;system_addresses</title>
<path fill="none" stroke="black" d="M1999.25,-361.98C1977.89,-351.88 1949.47,-338.44 1926.07,-327.37"/>
<polygon fill="black" stroke="black" points="1927.63,-324.24 1917.09,-323.12 1924.63,-330.56 1927.63,-324.24"/>
</g>
<!-- bls12381&#45;&gt;error -->
<g id="edge98" class="edge">
<title>bls12381&#45;&gt;error</title>
<path fill="none" stroke="black" d="M1197.9,-150.08C1205.73,-147.79 1214.1,-145.59 1222,-144 1387.46,-110.67 1588.87,-97.23 1672.58,-92.83"/>
<polygon fill="black" stroke="black" points="1672.51,-96.33 1682.32,-92.33 1672.15,-89.34 1672.51,-96.33"/>
</g>
<!-- bls12381&#45;&gt;option -->
<g id="edge97" class="edge">
<title>bls12381&#45;&gt;option</title>
<path fill="none" stroke="black" d="M1123.16,-157.43C983.15,-145.5 531.84,-107.02 388.28,-94.78"/>
<polygon fill="black" stroke="black" points="388.69,-91.3 378.43,-93.94 388.09,-98.27 388.69,-91.3"/>
</g>
<!-- state_storage&#45;&gt;error -->
<g id="edge99" class="edge">
<title>state_storage&#45;&gt;error</title>
<path fill="none" stroke="black" d="M2485.72,-359.72C2486.51,-315.57 2481.83,-198.32 2414,-144 2362.14,-102.48 1892.04,-93.26 1751.5,-91.42"/>
<polygon fill="black" stroke="black" points="1751.63,-87.92 1741.59,-91.3 1751.54,-94.92 1751.63,-87.92"/>
</g>
<!-- state_storage&#45;&gt;system_addresses -->
<g id="edge100" class="edge">
<title>state_storage&#45;&gt;system_addresses</title>
<path fill="none" stroke="black" d="M2435.69,-368.8C2417.02,-365.83 2395.56,-362.57 2376,-360 2230.28,-340.81 2059.64,-323.64 1962.14,-314.34"/>
<polygon fill="black" stroke="black" points="1962.7,-310.87 1952.41,-313.41 1962.04,-317.84 1962.7,-310.87"/>
</g>
<!-- string&#45;&gt;vector -->
<g id="edge101" class="edge">
<title>string&#45;&gt;vector</title>
<path fill="none" stroke="black" d="M755.38,-145.53C733.59,-120.78 690.73,-72.08 664.99,-42.85"/>
<polygon fill="black" stroke="black" points="667.83,-40.78 658.6,-35.58 662.58,-45.4 667.83,-40.78"/>
</g>
<!-- string&#45;&gt;option -->
<g id="edge102" class="edge">
<title>string&#45;&gt;option</title>
<path fill="none" stroke="black" d="M739.79,-156.19C666.28,-144.08 473.34,-112.3 386.93,-98.07"/>
<polygon fill="black" stroke="black" points="387.64,-94.64 377.2,-96.47 386.5,-101.55 387.64,-94.64"/>
</g>
<!-- aggregator_factory&#45;&gt;error -->
<g id="edge103" class="edge">
<title>aggregator_factory&#45;&gt;error</title>
<path fill="none" stroke="black" d="M1498.88,-359.82C1513.77,-318.35 1556.52,-211.25 1622,-144 1638.07,-127.49 1660.36,-114.32 1678.74,-105.23"/>
<polygon fill="black" stroke="black" points="1680.12,-108.45 1687.66,-101 1677.12,-102.12 1680.12,-108.45"/>
</g>
<!-- aggregator_factory&#45;&gt;system_addresses -->
<g id="edge105" class="edge">
<title>aggregator_factory&#45;&gt;system_addresses</title>
<path fill="none" stroke="black" d="M1551.73,-365.95C1562.46,-363.95 1573.56,-361.9 1584,-360 1662.61,-345.69 1752.95,-329.75 1813.57,-319.12"/>
<polygon fill="black" stroke="black" points="1813.8,-322.63 1823.04,-317.46 1812.59,-315.74 1813.8,-322.63"/>
</g>
<!-- aggregator_factory&#45;&gt;table -->
<g id="edge104" class="edge">
<title>aggregator_factory&#45;&gt;table</title>
<path fill="none" stroke="black" d="M1451.77,-362.5C1415.4,-349.7 1363,-331.27 1328.73,-319.22"/>
<polygon fill="black" stroke="black" points="1330.31,-316.06 1319.71,-316.05 1327.99,-322.67 1330.31,-316.06"/>
</g>
<!-- aggregator_factory&#45;&gt;aggregator -->
<g id="edge106" class="edge">
<title>aggregator_factory&#45;&gt;aggregator</title>
<path fill="none" stroke="black" d="M1476.78,-360.05C1468.6,-351.5 1458.52,-340.97 1449.5,-331.56"/>
<polygon fill="black" stroke="black" points="1452.1,-329.2 1442.65,-324.4 1447.04,-334.04 1452.1,-329.2"/>
</g>
<!-- optional_aggregator&#45;&gt;error -->
<g id="edge108" class="edge">
<title>optional_aggregator&#45;&gt;error</title>
<path fill="none" stroke="black" d="M1504.58,-434.71C1557.03,-415.09 1636,-374.37 1636,-307 1636,-307 1636,-307 1636,-233 1636,-192.03 1639.66,-179.56 1660,-144 1666.76,-132.18 1676.8,-121.09 1686.26,-112.14"/>
<polygon fill="black" stroke="black" points="1688.46,-114.87 1693.55,-105.57 1683.77,-109.66 1688.46,-114.87"/>
</g>
<!-- optional_aggregator&#45;&gt;option -->
<g id="edge107" class="edge">
<title>optional_aggregator&#45;&gt;option</title>
<path fill="none" stroke="black" d="M1377.12,-449.38C1187.67,-449.41 724.09,-444.37 577,-396 450.1,-354.27 420.13,-302.99 368,-180 359.69,-160.39 353.53,-137.12 349.54,-119.29"/>
<polygon fill="black" stroke="black" points="353,-118.72 347.49,-109.67 346.15,-120.18 353,-118.72"/>
</g>
<!-- optional_aggregator&#45;&gt;aggregator -->
<g id="edge109" class="edge">
<title>optional_aggregator&#45;&gt;aggregator</title>
<path fill="none" stroke="black" d="M1435.79,-432.37C1424.84,-423.07 1412.9,-410.44 1407,-396 1398.88,-376.14 1404.73,-352.3 1412,-334.3"/>
<polygon fill="black" stroke="black" points="1415.13,-335.87 1415.99,-325.31 1408.73,-333.03 1415.13,-335.87"/>
</g>
<!-- optional_aggregator&#45;&gt;aggregator_factory -->
<g id="edge110" class="edge">
<title>optional_aggregator&#45;&gt;aggregator_factory</title>
<path fill="none" stroke="black" d="M1467.4,-431.7C1471.11,-424.07 1475.56,-414.92 1479.69,-406.4"/>
<polygon fill="black" stroke="black" points="1482.81,-407.99 1484.03,-397.47 1476.51,-404.93 1482.81,-407.99"/>
</g>
</g>
</svg>
