<?xml version="1.0" encoding="UTF-8" standalone="no"?>
<!DOCTYPE svg PUBLIC "-//W3C//DTD SVG 1.1//EN"
 "http://www.w3.org/Graphics/SVG/1.1/DTD/svg11.dtd">
<!-- Generated by graphviz version 7.0.4 (20221203.1631)
 -->
<!-- Title: G Pages: 1 -->
<svg width="2110pt" height="692pt"
 viewBox="0.00 0.00 2110.00 692.00" xmlns="http://www.w3.org/2000/svg" xmlns:xlink="http://www.w3.org/1999/xlink">
<g id="graph0" class="graph" transform="scale(1 1) rotate(0) translate(4 688)">
<title>G</title>
<polygon fill="white" stroke="none" points="-4,4 -4,-688 2106,-688 2106,4 -4,4"/>
<!-- resource_account -->
<g id="node1" class="node">
<title>resource_account</title>
<ellipse fill="none" stroke="black" cx="1296" cy="-666" rx="72.29" ry="18"/>
<text text-anchor="middle" x="1296" y="-662.3" font-family="Times,serif" font-size="14.00">resource_account</text>
</g>
<!-- vector -->
<g id="node2" class="node">
<title>vector</title>
<ellipse fill="none" stroke="black" cx="114" cy="-18" rx="32.49" ry="18"/>
<text text-anchor="middle" x="114" y="-14.3" font-family="Times,serif" font-size="14.00">vector</text>
</g>
<!-- resource_account&#45;&gt;vector -->
<g id="edge1" class="edge">
<title>resource_account&#45;&gt;vector</title>
<path fill="none" stroke="black" d="M1223.88,-663.61C989.43,-658.81 258.04,-641.61 156,-612 79.34,-589.75 0,-602.82 0,-523 0,-523 0,-523 0,-161 0,-107.4 50.01,-62.51 83.78,-38.3"/>
<polygon fill="black" stroke="black" points="85.36,-41.47 91.58,-32.9 81.37,-35.72 85.36,-41.47"/>
</g>
<!-- signer -->
<g id="node3" class="node">
<title>signer</title>
<ellipse fill="none" stroke="black" cx="1724" cy="-90" rx="32.49" ry="18"/>
<text text-anchor="middle" x="1724" y="-86.3" font-family="Times,serif" font-size="14.00">signer</text>
</g>
<!-- resource_account&#45;&gt;signer -->
<g id="edge2" class="edge">
<title>resource_account&#45;&gt;signer</title>
<path fill="none" stroke="black" d="M1368.34,-664.06C1476.25,-661.34 1685.2,-650.98 1858,-612 1970.6,-586.6 2102,-638.43 2102,-523 2102,-523 2102,-523 2102,-233 2102,-185.79 2083.53,-169.82 2044,-144 1999.16,-114.71 1844.26,-99.68 1767.63,-93.9"/>
<polygon fill="black" stroke="black" points="1768.21,-90.43 1757.98,-93.19 1767.7,-97.41 1768.21,-90.43"/>
</g>
<!-- error -->
<g id="node4" class="node">
<title>error</title>
<ellipse fill="none" stroke="black" cx="1315" cy="-90" rx="27.9" ry="18"/>
<text text-anchor="middle" x="1315" y="-86.3" font-family="Times,serif" font-size="14.00">error</text>
</g>
<!-- resource_account&#45;&gt;error -->
<g id="edge3" class="edge">
<title>resource_account&#45;&gt;error</title>
<path fill="none" stroke="black" d="M1363.04,-659.01C1543.51,-641.98 2026,-590.18 2026,-523 2026,-523 2026,-523 2026,-377 2026,-190.1 1708.3,-165.25 1636,-144 1536.68,-114.8 1415.04,-100.25 1353.95,-94.33"/>
<polygon fill="black" stroke="black" points="1354.35,-90.86 1344.07,-93.4 1353.7,-97.82 1354.35,-90.86"/>
</g>
<!-- account -->
<g id="node5" class="node">
<title>account</title>
<ellipse fill="none" stroke="black" cx="1215" cy="-450" rx="38.19" ry="18"/>
<text text-anchor="middle" x="1215" y="-446.3" font-family="Times,serif" font-size="14.00">account</text>
</g>
<!-- resource_account&#45;&gt;account -->
<g id="edge4" class="edge">
<title>resource_account&#45;&gt;account</title>
<path fill="none" stroke="black" d="M1274.37,-648.35C1263.57,-638.87 1251.28,-626.09 1244,-612 1221.93,-569.31 1216.37,-512.71 1215.13,-479.24"/>
<polygon fill="black" stroke="black" points="1218.64,-479.45 1214.89,-469.54 1211.64,-479.63 1218.64,-479.45"/>
</g>
<!-- coin -->
<g id="node6" class="node">
<title>coin</title>
<ellipse fill="none" stroke="black" cx="1436" cy="-522" rx="27" ry="18"/>
<text text-anchor="middle" x="1436" y="-518.3" font-family="Times,serif" font-size="14.00">coin</text>
</g>
<!-- resource_account&#45;&gt;coin -->
<g id="edge5" class="edge">
<title>resource_account&#45;&gt;coin</title>
<path fill="none" stroke="black" d="M1317.84,-648.45C1330.59,-638.42 1346.74,-625.06 1360,-612 1380.83,-591.48 1402.26,-565.9 1417.03,-547.44"/>
<polygon fill="black" stroke="black" points="1419.71,-549.7 1423.17,-539.69 1414.22,-545.36 1419.71,-549.7"/>
</g>
<!-- aptos_coin -->
<g id="node7" class="node">
<title>aptos_coin</title>
<ellipse fill="none" stroke="black" cx="1302" cy="-594" rx="48.99" ry="18"/>
<text text-anchor="middle" x="1302" y="-590.3" font-family="Times,serif" font-size="14.00">aptos_coin</text>
</g>
<!-- resource_account&#45;&gt;aptos_coin -->
<g id="edge6" class="edge">
<title>resource_account&#45;&gt;aptos_coin</title>
<path fill="none" stroke="black" d="M1297.48,-647.7C1298.11,-640.41 1298.85,-631.73 1299.55,-623.54"/>
<polygon fill="black" stroke="black" points="1303.04,-623.87 1300.4,-613.61 1296.06,-623.28 1303.04,-623.87"/>
</g>
<!-- simple_map -->
<g id="node8" class="node">
<title>simple_map</title>
<ellipse fill="none" stroke="black" cx="197" cy="-162" rx="54.69" ry="18"/>
<text text-anchor="middle" x="197" y="-158.3" font-family="Times,serif" font-size="14.00">simple_map</text>
</g>
<!-- resource_account&#45;&gt;simple_map -->
<g id="edge7" class="edge">
<title>resource_account&#45;&gt;simple_map</title>
<path fill="none" stroke="black" d="M1223.79,-664.23C961.71,-660.5 76,-639.28 76,-523 76,-523 76,-523 76,-377 76,-299.95 136.17,-225.15 171.65,-187.74"/>
<polygon fill="black" stroke="black" points="174.16,-190.18 178.61,-180.57 169.13,-185.31 174.16,-190.18"/>
</g>
<!-- code -->
<g id="node9" class="node">
<title>code</title>
<ellipse fill="none" stroke="black" cx="566" cy="-378" rx="27.1" ry="18"/>
<text text-anchor="middle" x="566" y="-374.3" font-family="Times,serif" font-size="14.00">code</text>
</g>
<!-- resource_account&#45;&gt;code -->
<g id="edge8" class="edge">
<title>resource_account&#45;&gt;code</title>
<path fill="none" stroke="black" d="M1258.29,-650.23C1131.17,-600.42 719.6,-439.18 599.31,-392.05"/>
<polygon fill="black" stroke="black" points="600.91,-388.92 590.32,-388.53 598.35,-395.43 600.91,-388.92"/>
</g>
<!-- account&#45;&gt;vector -->
<g id="edge9" class="edge">
<title>account&#45;&gt;vector</title>
<path fill="none" stroke="black" d="M1176.66,-448.01C1018.76,-443.75 423.4,-425.85 345,-396 213.34,-345.87 161.85,-312.14 113,-180 96.68,-135.87 102.26,-80.16 107.99,-47.19"/>
<polygon fill="black" stroke="black" points="111.38,-48.09 109.79,-37.62 104.5,-46.8 111.38,-48.09"/>
</g>
<!-- account&#45;&gt;signer -->
<g id="edge11" class="edge">
<title>account&#45;&gt;signer</title>
<path fill="none" stroke="black" d="M1250.05,-442.5C1357.22,-422.3 1675.12,-359.81 1705,-324 1753.9,-265.39 1741.21,-167.15 1731.03,-119.14"/>
<polygon fill="black" stroke="black" points="1734.48,-118.53 1728.86,-109.54 1727.65,-120.07 1734.48,-118.53"/>
</g>
<!-- account&#45;&gt;error -->
<g id="edge12" class="edge">
<title>account&#45;&gt;error</title>
<path fill="none" stroke="black" d="M1251.79,-444.52C1281.43,-438.75 1321.3,-425.65 1341,-396 1399.03,-308.64 1352.14,-174.72 1327.61,-117.94"/>
<polygon fill="black" stroke="black" points="1330.91,-116.75 1323.65,-109.03 1324.51,-119.59 1330.91,-116.75"/>
</g>
<!-- option -->
<g id="node10" class="node">
<title>option</title>
<ellipse fill="none" stroke="black" cx="456" cy="-90" rx="33.29" ry="18"/>
<text text-anchor="middle" x="456" y="-86.3" font-family="Times,serif" font-size="14.00">option</text>
</g>
<!-- account&#45;&gt;option -->
<g id="edge10" class="edge">
<title>account&#45;&gt;option</title>
<path fill="none" stroke="black" d="M1176.94,-448.17C1051.59,-445.09 652.73,-432.61 530,-396 466.34,-377.01 432.82,-381.18 399,-324 390.85,-310.23 393.55,-303.04 399,-288 406.09,-268.42 417.5,-269.37 429,-252 448.86,-222 457.54,-214.97 466,-180 470.87,-159.89 467.97,-136.64 464.07,-118.94"/>
<polygon fill="black" stroke="black" points="467.51,-118.29 461.72,-109.42 460.72,-119.97 467.51,-118.29"/>
</g>
<!-- bcs -->
<g id="node11" class="node">
<title>bcs</title>
<ellipse fill="none" stroke="black" cx="1127" cy="-162" rx="27" ry="18"/>
<text text-anchor="middle" x="1127" y="-158.3" font-family="Times,serif" font-size="14.00">bcs</text>
</g>
<!-- account&#45;&gt;bcs -->
<g id="edge13" class="edge">
<title>account&#45;&gt;bcs</title>
<path fill="none" stroke="black" d="M1209.76,-431.97C1195.12,-384.38 1153.67,-249.67 1135.6,-190.95"/>
<polygon fill="black" stroke="black" points="1138.95,-189.92 1132.66,-181.39 1132.25,-191.98 1138.95,-189.92"/>
</g>
<!-- type_info -->
<g id="node12" class="node">
<title>type_info</title>
<ellipse fill="none" stroke="black" cx="1036" cy="-234" rx="44.39" ry="18"/>
<text text-anchor="middle" x="1036" y="-230.3" font-family="Times,serif" font-size="14.00">type_info</text>
</g>
<!-- account&#45;&gt;type_info -->
<g id="edge14" class="edge">
<title>account&#45;&gt;type_info</title>
<path fill="none" stroke="black" d="M1201.55,-432.92C1170.65,-395.98 1094.44,-304.86 1057.18,-260.33"/>
<polygon fill="black" stroke="black" points="1059.93,-258.15 1050.83,-252.73 1054.56,-262.64 1059.93,-258.15"/>
</g>
<!-- table -->
<g id="node13" class="node">
<title>table</title>
<ellipse fill="none" stroke="black" cx="1780" cy="-306" rx="27.9" ry="18"/>
<text text-anchor="middle" x="1780" y="-302.3" font-family="Times,serif" font-size="14.00">table</text>
</g>
<!-- account&#45;&gt;table -->
<g id="edge15" class="edge">
<title>account&#45;&gt;table</title>
<path fill="none" stroke="black" d="M1253.53,-449.77C1329.73,-450.09 1504.08,-444.87 1640,-396 1683.88,-380.22 1728.26,-348.8 1754.95,-327.84"/>
<polygon fill="black" stroke="black" points="1756.82,-330.82 1762.44,-321.84 1752.45,-325.36 1756.82,-330.82"/>
</g>
<!-- system_addresses -->
<g id="node14" class="node">
<title>system_addresses</title>
<ellipse fill="none" stroke="black" cx="1623" cy="-306" rx="73.39" ry="18"/>
<text text-anchor="middle" x="1623" y="-302.3" font-family="Times,serif" font-size="14.00">system_addresses</text>
</g>
<!-- account&#45;&gt;system_addresses -->
<g id="edge16" class="edge">
<title>account&#45;&gt;system_addresses</title>
<path fill="none" stroke="black" d="M1245.84,-438.94C1277.93,-428.42 1329.58,-411.34 1374,-396 1443.13,-372.13 1522.65,-343.5 1572.85,-325.28"/>
<polygon fill="black" stroke="black" points="1573.79,-328.67 1581.99,-321.96 1571.4,-322.09 1573.79,-328.67"/>
</g>
<!-- hash -->
<g id="node15" class="node">
<title>hash</title>
<ellipse fill="none" stroke="black" cx="833" cy="-234" rx="27" ry="18"/>
<text text-anchor="middle" x="833" y="-230.3" font-family="Times,serif" font-size="14.00">hash</text>
</g>
<!-- account&#45;&gt;hash -->
<g id="edge17" class="edge">
<title>account&#45;&gt;hash</title>
<path fill="none" stroke="black" d="M1176.59,-448.48C1095.57,-446.55 911.04,-437.6 867,-396 830.9,-361.9 828.15,-299.86 830.1,-263.56"/>
<polygon fill="black" stroke="black" points="833.58,-264.05 830.8,-253.83 826.59,-263.55 833.58,-264.05"/>
</g>
<!-- ed25519 -->
<g id="node16" class="node">
<title>ed25519</title>
<ellipse fill="none" stroke="black" cx="963" cy="-306" rx="40.89" ry="18"/>
<text text-anchor="middle" x="963" y="-302.3" font-family="Times,serif" font-size="14.00">ed25519</text>
</g>
<!-- account&#45;&gt;ed25519 -->
<g id="edge18" class="edge">
<title>account&#45;&gt;ed25519</title>
<path fill="none" stroke="black" d="M1180.25,-442.08C1146.71,-434.36 1095.37,-419.74 1056,-396 1040.73,-386.79 1008.35,-354.47 986.13,-331.43"/>
<polygon fill="black" stroke="black" points="988.66,-329.02 979.22,-324.22 983.61,-333.86 988.66,-329.02"/>
</g>
<!-- multi_ed25519 -->
<g id="node17" class="node">
<title>multi_ed25519</title>
<ellipse fill="none" stroke="black" cx="940" cy="-378" rx="64.19" ry="18"/>
<text text-anchor="middle" x="940" y="-374.3" font-family="Times,serif" font-size="14.00">multi_ed25519</text>
</g>
<!-- account&#45;&gt;multi_ed25519 -->
<g id="edge19" class="edge">
<title>account&#45;&gt;multi_ed25519</title>
<path fill="none" stroke="black" d="M1181.83,-440.56C1136.12,-428.92 1053.1,-407.79 997.25,-393.57"/>
<polygon fill="black" stroke="black" points="998.14,-390.19 987.59,-391.11 996.41,-396.97 998.14,-390.19"/>
</g>
<!-- guid -->
<g id="node18" class="node">
<title>guid</title>
<ellipse fill="none" stroke="black" cx="1277" cy="-306" rx="27" ry="18"/>
<text text-anchor="middle" x="1277" y="-302.3" font-family="Times,serif" font-size="14.00">guid</text>
</g>
<!-- account&#45;&gt;guid -->
<g id="edge20" class="edge">
<title>account&#45;&gt;guid</title>
<path fill="none" stroke="black" d="M1222.48,-431.87C1233.1,-407.54 1252.67,-362.73 1265.24,-333.93"/>
<polygon fill="black" stroke="black" points="1268.29,-335.7 1269.08,-325.14 1261.87,-332.9 1268.29,-335.7"/>
</g>
<!-- from_bcs -->
<g id="node19" class="node">
<title>from_bcs</title>
<ellipse fill="none" stroke="black" cx="376" cy="-234" rx="44.39" ry="18"/>
<text text-anchor="middle" x="376" y="-230.3" font-family="Times,serif" font-size="14.00">from_bcs</text>
</g>
<!-- account&#45;&gt;from_bcs -->
<g id="edge21" class="edge">
<title>account&#45;&gt;from_bcs</title>
<path fill="none" stroke="black" d="M1176.63,-448.05C1014.7,-443.87 394.12,-425.94 366,-396 332.52,-360.36 349.36,-298.44 363.46,-262.67"/>
<polygon fill="black" stroke="black" points="366.69,-264.02 367.29,-253.44 360.22,-261.33 366.69,-264.02"/>
</g>
<!-- event -->
<g id="node20" class="node">
<title>event</title>
<ellipse fill="none" stroke="black" cx="1302" cy="-378" rx="29.8" ry="18"/>
<text text-anchor="middle" x="1302" y="-374.3" font-family="Times,serif" font-size="14.00">event</text>
</g>
<!-- account&#45;&gt;event -->
<g id="edge22" class="edge">
<title>account&#45;&gt;event</title>
<path fill="none" stroke="black" d="M1233.45,-434.15C1245.77,-424.24 1262.16,-411.06 1275.82,-400.06"/>
<polygon fill="black" stroke="black" points="1277.98,-402.82 1283.58,-393.82 1273.6,-397.36 1277.98,-402.82"/>
</g>
<!-- coin&#45;&gt;signer -->
<g id="edge25" class="edge">
<title>coin&#45;&gt;signer</title>
<path fill="none" stroke="black" d="M1463.16,-519.96C1545.54,-516.44 1791.27,-503.19 1862,-468 1943.35,-427.53 1988,-397.86 1988,-307 1988,-307 1988,-307 1988,-233 1988,-134.2 1842.82,-103.84 1767.78,-94.75"/>
<polygon fill="black" stroke="black" points="1768.2,-91.28 1757.88,-93.64 1767.42,-98.24 1768.2,-91.28"/>
</g>
<!-- coin&#45;&gt;error -->
<g id="edge26" class="edge">
<title>coin&#45;&gt;error</title>
<path fill="none" stroke="black" d="M1440.92,-504.19C1456.37,-447.79 1498.46,-262.25 1422,-144 1406.55,-120.11 1376.91,-106.6 1352.73,-99.21"/>
<polygon fill="black" stroke="black" points="1353.77,-95.86 1343.19,-96.55 1351.89,-102.61 1353.77,-95.86"/>
</g>
<!-- coin&#45;&gt;account -->
<g id="edge30" class="edge">
<title>coin&#45;&gt;account</title>
<path fill="none" stroke="black" d="M1411.93,-513.38C1374.72,-501.59 1302.76,-478.8 1256.89,-464.27"/>
<polygon fill="black" stroke="black" points="1258.15,-461 1247.56,-461.31 1256.03,-467.67 1258.15,-461"/>
</g>
<!-- coin&#45;&gt;option -->
<g id="edge23" class="edge">
<title>coin&#45;&gt;option</title>
<path fill="none" stroke="black" d="M1408.83,-519.83C1247.91,-512.65 424.26,-472.34 345,-396 286.95,-340.09 294.65,-291.45 323,-216 341.18,-167.61 390.19,-130.14 423.36,-109.31"/>
<polygon fill="black" stroke="black" points="425.08,-112.37 431.81,-104.18 421.44,-106.39 425.08,-112.37"/>
</g>
<!-- coin&#45;&gt;type_info -->
<g id="edge27" class="edge">
<title>coin&#45;&gt;type_info</title>
<path fill="none" stroke="black" d="M1432.35,-503.9C1422.07,-460.2 1388.56,-343.91 1313,-288 1278.42,-262.41 1160.81,-246.98 1090.44,-239.82"/>
<polygon fill="black" stroke="black" points="1090.95,-236.35 1080.65,-238.85 1090.26,-243.32 1090.95,-236.35"/>
</g>
<!-- coin&#45;&gt;system_addresses -->
<g id="edge28" class="edge">
<title>coin&#45;&gt;system_addresses</title>
<path fill="none" stroke="black" d="M1458.41,-511.64C1477.99,-502.64 1506.28,-487.52 1526,-468 1565.97,-428.43 1596.08,-369.17 1611.5,-334.66"/>
<polygon fill="black" stroke="black" points="1614.59,-336.34 1615.38,-325.77 1608.17,-333.54 1614.59,-336.34"/>
</g>
<!-- coin&#45;&gt;event -->
<g id="edge29" class="edge">
<title>coin&#45;&gt;event</title>
<path fill="none" stroke="black" d="M1422.16,-506.34C1398.92,-481.7 1351.83,-431.81 1324,-402.32"/>
<polygon fill="black" stroke="black" points="1326.81,-400.2 1317.4,-395.32 1321.72,-405 1326.81,-400.2"/>
</g>
<!-- string -->
<g id="node21" class="node">
<title>string</title>
<ellipse fill="none" stroke="black" cx="426" cy="-162" rx="30.59" ry="18"/>
<text text-anchor="middle" x="426" y="-158.3" font-family="Times,serif" font-size="14.00">string</text>
</g>
<!-- coin&#45;&gt;string -->
<g id="edge24" class="edge">
<title>coin&#45;&gt;string</title>
<path fill="none" stroke="black" d="M1408.83,-519.83C1247.91,-512.65 424.26,-472.34 345,-396 286.95,-340.09 281.03,-284.8 323,-216 336.86,-193.28 363.92,-179.89 386.82,-172.25"/>
<polygon fill="black" stroke="black" points="387.66,-175.65 396.21,-169.39 385.62,-168.95 387.66,-175.65"/>
</g>
<!-- aggregator -->
<g id="node22" class="node">
<title>aggregator</title>
<ellipse fill="none" stroke="black" cx="1912" cy="-306" rx="48.19" ry="18"/>
<text text-anchor="middle" x="1912" y="-302.3" font-family="Times,serif" font-size="14.00">aggregator</text>
</g>
<!-- coin&#45;&gt;aggregator -->
<g id="edge31" class="edge">
<title>coin&#45;&gt;aggregator</title>
<path fill="none" stroke="black" d="M1463.36,-521.33C1526.65,-521.2 1687.15,-515.78 1810,-468 1862.74,-447.49 1888.63,-446.06 1915,-396 1924.75,-377.49 1923.35,-353.67 1919.87,-335.33"/>
<polygon fill="black" stroke="black" points="1923.3,-334.66 1917.71,-325.66 1916.47,-336.19 1923.3,-334.66"/>
</g>
<!-- aggregator_factory -->
<g id="node23" class="node">
<title>aggregator_factory</title>
<ellipse fill="none" stroke="black" cx="1807" cy="-378" rx="77.19" ry="18"/>
<text text-anchor="middle" x="1807" y="-374.3" font-family="Times,serif" font-size="14.00">aggregator_factory</text>
</g>
<!-- coin&#45;&gt;aggregator_factory -->
<g id="edge32" class="edge">
<title>coin&#45;&gt;aggregator_factory</title>
<path fill="none" stroke="black" d="M1463.18,-520.72C1537.21,-519.39 1740.04,-511.73 1787,-468 1803.32,-452.81 1807.74,-427.41 1808.41,-407.62"/>
<polygon fill="black" stroke="black" points="1811.91,-407.69 1808.41,-397.69 1804.91,-407.68 1811.91,-407.69"/>
</g>
<!-- optional_aggregator -->
<g id="node24" class="node">
<title>optional_aggregator</title>
<ellipse fill="none" stroke="black" cx="1697" cy="-450" rx="81.49" ry="18"/>
<text text-anchor="middle" x="1697" y="-446.3" font-family="Times,serif" font-size="14.00">optional_aggregator</text>
</g>
<!-- coin&#45;&gt;optional_aggregator -->
<g id="edge33" class="edge">
<title>coin&#45;&gt;optional_aggregator</title>
<path fill="none" stroke="black" d="M1460.55,-514.41C1500.29,-503.76 1579.86,-482.42 1635.68,-467.45"/>
<polygon fill="black" stroke="black" points="1636.29,-470.91 1645.04,-464.93 1634.48,-464.14 1636.29,-470.91"/>
</g>
<!-- aptos_coin&#45;&gt;vector -->
<g id="edge34" class="edge">
<title>aptos_coin&#45;&gt;vector</title>
<path fill="none" stroke="black" d="M1252.81,-592.13C1041.32,-588.18 218.13,-570.91 173,-540 50.69,-456.24 38,-383.24 38,-235 38,-235 38,-235 38,-161 38,-114.98 69.42,-69.43 91.85,-42.78"/>
<polygon fill="black" stroke="black" points="94.43,-45.15 98.35,-35.31 89.15,-40.56 94.43,-45.15"/>
</g>
<!-- aptos_coin&#45;&gt;signer -->
<g id="edge37" class="edge">
<title>aptos_coin&#45;&gt;signer</title>
<path fill="none" stroke="black" d="M1350.87,-591.49C1426.28,-588.03 1574.85,-576.74 1695,-540 1880.48,-483.28 2064,-500.96 2064,-307 2064,-307 2064,-307 2064,-233 2064,-106.3 1860.47,-90.65 1768.35,-90.06"/>
<polygon fill="black" stroke="black" points="1768.42,-86.56 1758.42,-90.06 1768.42,-93.56 1768.42,-86.56"/>
</g>
<!-- aptos_coin&#45;&gt;error -->
<g id="edge38" class="edge">
<title>aptos_coin&#45;&gt;error</title>
<path fill="none" stroke="black" d="M1309.23,-575.8C1326.43,-533.76 1369.28,-422.09 1382,-324 1384.06,-308.13 1382.55,-303.99 1382,-288 1379.75,-223.16 1387.37,-201.85 1358,-144 1352.59,-133.34 1344.76,-122.84 1337.26,-114.04"/>
<polygon fill="black" stroke="black" points="1339.96,-111.81 1330.69,-106.68 1334.73,-116.47 1339.96,-111.81"/>
</g>
<!-- aptos_coin&#45;&gt;coin -->
<g id="edge40" class="edge">
<title>aptos_coin&#45;&gt;coin</title>
<path fill="none" stroke="black" d="M1329.44,-578.67C1351.39,-567.2 1382.15,-551.13 1404.99,-539.2"/>
<polygon fill="black" stroke="black" points="1406.59,-542.31 1413.83,-534.58 1403.35,-536.11 1406.59,-542.31"/>
</g>
<!-- aptos_coin&#45;&gt;option -->
<g id="edge35" class="edge">
<title>aptos_coin&#45;&gt;option</title>
<path fill="none" stroke="black" d="M1252.99,-591.58C1069.05,-585.09 424.57,-551.41 312,-396 245.89,-304.74 260.73,-224.09 340,-144 360.53,-123.26 390.67,-109.82 415.08,-101.67"/>
<polygon fill="black" stroke="black" points="415.91,-105.08 424.4,-98.74 413.81,-98.4 415.91,-105.08"/>
</g>
<!-- aptos_coin&#45;&gt;system_addresses -->
<g id="edge39" class="edge">
<title>aptos_coin&#45;&gt;system_addresses</title>
<path fill="none" stroke="black" d="M1348.81,-588.12C1459.65,-575.49 1732.94,-537.76 1787,-468 1796.8,-455.35 1795.17,-445.76 1787,-432 1769.94,-403.27 1748.23,-415.37 1721,-396 1693.88,-376.71 1666.08,-350.76 1647.05,-331.86"/>
<polygon fill="black" stroke="black" points="1649.56,-329.42 1640.03,-324.8 1644.6,-334.36 1649.56,-329.42"/>
</g>
<!-- aptos_coin&#45;&gt;string -->
<g id="edge36" class="edge">
<title>aptos_coin&#45;&gt;string</title>
<path fill="none" stroke="black" d="M1252.85,-592.47C1045.38,-590 250.28,-578.09 214,-540 179.25,-503.52 72.34,-471.75 302,-216 323.76,-191.77 358.49,-178.22 385.67,-170.9"/>
<polygon fill="black" stroke="black" points="386.47,-174.31 395.33,-168.5 384.78,-167.52 386.47,-174.31"/>
</g>
<!-- simple_map&#45;&gt;vector -->
<g id="edge41" class="edge">
<title>simple_map&#45;&gt;vector</title>
<path fill="none" stroke="black" d="M186.99,-143.87C172.63,-119.3 146.06,-73.85 129.25,-45.08"/>
<polygon fill="black" stroke="black" points="132.37,-43.49 124.3,-36.62 126.32,-47.02 132.37,-43.49"/>
</g>
<!-- simple_map&#45;&gt;error -->
<g id="edge43" class="edge">
<title>simple_map&#45;&gt;error</title>
<path fill="none" stroke="black" d="M248.7,-155.89C286.67,-152.25 339.51,-147.42 386,-144 730.5,-118.69 1147.62,-98.68 1275.72,-92.78"/>
<polygon fill="black" stroke="black" points="1275.51,-96.29 1285.34,-92.34 1275.19,-89.3 1275.51,-96.29"/>
</g>
<!-- simple_map&#45;&gt;option -->
<g id="edge42" class="edge">
<title>simple_map&#45;&gt;option</title>
<path fill="none" stroke="black" d="M238.33,-149.83C286.98,-136.68 367.26,-114.98 415.54,-101.93"/>
<polygon fill="black" stroke="black" points="416.3,-105.36 425.04,-99.37 414.47,-98.6 416.3,-105.36"/>
</g>
<!-- code&#45;&gt;vector -->
<g id="edge44" class="edge">
<title>code&#45;&gt;vector</title>
<path fill="none" stroke="black" d="M539.08,-374.18C460.45,-364.34 230.59,-323.87 133,-180 106,-140.2 106.58,-81.81 109.95,-47.38"/>
<polygon fill="black" stroke="black" points="113.39,-48.1 111.04,-37.77 106.43,-47.31 113.39,-48.1"/>
</g>
<!-- code&#45;&gt;signer -->
<g id="edge47" class="edge">
<title>code&#45;&gt;signer</title>
<path fill="none" stroke="black" d="M593.36,-376.32C669.1,-373.97 887.62,-363.94 1064,-324 1310.49,-268.18 1592.1,-149.27 1689.07,-106.62"/>
<polygon fill="black" stroke="black" points="1690.33,-109.9 1698.06,-102.65 1687.5,-103.49 1690.33,-109.9"/>
</g>
<!-- code&#45;&gt;error -->
<g id="edge48" class="edge">
<title>code&#45;&gt;error</title>
<path fill="none" stroke="black" d="M574.69,-360.73C599.71,-315.86 676.87,-190.64 782,-144 870.49,-104.75 1167.57,-94.29 1275.44,-91.75"/>
<polygon fill="black" stroke="black" points="1275.32,-95.25 1285.24,-91.53 1275.16,-88.25 1275.32,-95.25"/>
</g>
<!-- code&#45;&gt;option -->
<g id="edge45" class="edge">
<title>code&#45;&gt;option</title>
<path fill="none" stroke="black" d="M561.38,-359.96C547.24,-307.9 505.2,-153.88 500,-144 494.46,-133.47 486.58,-123.13 479.02,-114.41"/>
<polygon fill="black" stroke="black" points="481.7,-112.15 472.39,-107.1 476.51,-116.85 481.7,-112.15"/>
</g>
<!-- code&#45;&gt;system_addresses -->
<g id="edge50" class="edge">
<title>code&#45;&gt;system_addresses</title>
<path fill="none" stroke="black" d="M593.19,-375.2C727.47,-366.31 1322.19,-326.92 1541.45,-312.4"/>
<polygon fill="black" stroke="black" points="1541.6,-315.9 1551.35,-311.75 1541.14,-308.91 1541.6,-315.9"/>
</g>
<!-- code&#45;&gt;string -->
<g id="edge46" class="edge">
<title>code&#45;&gt;string</title>
<path fill="none" stroke="black" d="M550.27,-363.14C539.29,-352.99 524.75,-338.5 514,-324 481.61,-280.32 453.29,-223.31 438.01,-190.16"/>
<polygon fill="black" stroke="black" points="441.29,-188.93 433.97,-181.27 434.92,-191.82 441.29,-188.93"/>
</g>
<!-- features -->
<g id="node25" class="node">
<title>features</title>
<ellipse fill="none" stroke="black" cx="1260" cy="-162" rx="38.19" ry="18"/>
<text text-anchor="middle" x="1260" y="-158.3" font-family="Times,serif" font-size="14.00">features</text>
</g>
<!-- code&#45;&gt;features -->
<g id="edge49" class="edge">
<title>code&#45;&gt;features</title>
<path fill="none" stroke="black" d="M593.27,-375.4C677.87,-370.18 934.85,-352.34 1013,-324 1101.99,-291.73 1191.31,-222.07 1234.04,-185.87"/>
<polygon fill="black" stroke="black" points="1236.21,-188.63 1241.52,-179.46 1231.65,-183.31 1236.21,-188.63"/>
</g>
<!-- util -->
<g id="node26" class="node">
<title>util</title>
<ellipse fill="none" stroke="black" cx="435" cy="-306" rx="27" ry="18"/>
<text text-anchor="middle" x="435" y="-302.3" font-family="Times,serif" font-size="14.00">util</text>
</g>
<!-- code&#45;&gt;util -->
<g id="edge51" class="edge">
<title>code&#45;&gt;util</title>
<path fill="none" stroke="black" d="M545.24,-365.91C523.78,-354.44 490.04,-336.41 465.53,-323.32"/>
<polygon fill="black" stroke="black" points="467.46,-320.38 457,-318.75 464.17,-326.55 467.46,-320.38"/>
</g>
<!-- copyable_any -->
<g id="node27" class="node">
<title>copyable_any</title>
<ellipse fill="none" stroke="black" cx="692" cy="-306" rx="59.59" ry="18"/>
<text text-anchor="middle" x="692" y="-302.3" font-family="Times,serif" font-size="14.00">copyable_any</text>
</g>
<!-- code&#45;&gt;copyable_any -->
<g id="edge52" class="edge">
<title>code&#45;&gt;copyable_any</title>
<path fill="none" stroke="black" d="M586.24,-365.75C604.58,-355.56 632.07,-340.29 654.43,-327.87"/>
<polygon fill="black" stroke="black" points="655.93,-331.05 662.97,-323.13 652.53,-324.93 655.93,-331.05"/>
</g>
<!-- option&#45;&gt;vector -->
<g id="edge53" class="edge">
<title>option&#45;&gt;vector</title>
<path fill="none" stroke="black" d="M425.05,-82.66C363.21,-70.01 224.41,-41.6 155.06,-27.4"/>
<polygon fill="black" stroke="black" points="156.13,-24.05 145.63,-25.47 154.73,-30.91 156.13,-24.05"/>
</g>
<!-- type_info&#45;&gt;error -->
<g id="edge55" class="edge">
<title>type_info&#45;&gt;error</title>
<path fill="none" stroke="black" d="M1041.97,-215.73C1049.92,-195.38 1065.96,-162.06 1091,-144 1146.28,-104.13 1227.32,-93.86 1275.26,-91.45"/>
<polygon fill="black" stroke="black" points="1275.34,-94.95 1285.19,-91.05 1275.06,-87.95 1275.34,-94.95"/>
</g>
<!-- type_info&#45;&gt;bcs -->
<g id="edge57" class="edge">
<title>type_info&#45;&gt;bcs</title>
<path fill="none" stroke="black" d="M1055.75,-217.81C1068.95,-207.65 1086.48,-194.17 1100.84,-183.12"/>
<polygon fill="black" stroke="black" points="1102.75,-186.07 1108.55,-177.19 1098.49,-180.52 1102.75,-186.07"/>
</g>
<!-- type_info&#45;&gt;string -->
<g id="edge54" class="edge">
<title>type_info&#45;&gt;string</title>
<path fill="none" stroke="black" d="M993.59,-228.13C881.5,-215.27 578.38,-180.49 467.42,-167.75"/>
<polygon fill="black" stroke="black" points="467.91,-164.29 457.58,-166.62 467.11,-171.24 467.91,-164.29"/>
</g>
<!-- type_info&#45;&gt;features -->
<g id="edge56" class="edge">
<title>type_info&#45;&gt;features</title>
<path fill="none" stroke="black" d="M1070.51,-222.22C1110.16,-209.82 1175.24,-189.49 1217.85,-176.17"/>
<polygon fill="black" stroke="black" points="1218.76,-179.55 1227.26,-173.23 1216.67,-172.87 1218.76,-179.55"/>
</g>
<!-- system_addresses&#45;&gt;signer -->
<g id="edge58" class="edge">
<title>system_addresses&#45;&gt;signer</title>
<path fill="none" stroke="black" d="M1631.09,-287.85C1648.57,-250.82 1689.96,-163.12 1711.1,-118.34"/>
<polygon fill="black" stroke="black" points="1714.26,-119.84 1715.36,-109.3 1707.93,-116.85 1714.26,-119.84"/>
</g>
<!-- system_addresses&#45;&gt;error -->
<g id="edge59" class="edge">
<title>system_addresses&#45;&gt;error</title>
<path fill="none" stroke="black" d="M1618.69,-287.6C1609.5,-254.28 1584.74,-181.47 1536,-144 1482.65,-102.99 1402.3,-93.1 1354.6,-91.07"/>
<polygon fill="black" stroke="black" points="1354.83,-87.57 1344.73,-90.75 1354.61,-94.57 1354.83,-87.57"/>
</g>
<!-- ed25519&#45;&gt;error -->
<g id="edge61" class="edge">
<title>ed25519&#45;&gt;error</title>
<path fill="none" stroke="black" d="M964.01,-287.58C965.73,-268.85 970.4,-238.71 983,-216 1005.11,-176.16 1015.8,-165.45 1056,-144 1127.15,-106.03 1222.65,-95.22 1275.55,-92.17"/>
<polygon fill="black" stroke="black" points="1275.47,-95.67 1285.28,-91.68 1275.12,-88.68 1275.47,-95.67"/>
</g>
<!-- ed25519&#45;&gt;option -->
<g id="edge60" class="edge">
<title>ed25519&#45;&gt;option</title>
<path fill="none" stroke="black" d="M948.47,-288.71C916.97,-254.69 838.41,-176.52 754,-144 668.03,-110.88 560.06,-98.27 500.53,-93.61"/>
<polygon fill="black" stroke="black" points="501.03,-90.13 490.8,-92.89 500.52,-97.12 501.03,-90.13"/>
</g>
<!-- ed25519&#45;&gt;bcs -->
<g id="edge62" class="edge">
<title>ed25519&#45;&gt;bcs</title>
<path fill="none" stroke="black" d="M995.37,-294.5C1027.95,-283.4 1075.29,-265.64 1089,-252 1105.57,-235.52 1115.36,-210.66 1120.83,-191.41"/>
<polygon fill="black" stroke="black" points="1124.22,-192.29 1123.33,-181.73 1117.44,-190.54 1124.22,-192.29"/>
</g>
<!-- ed25519&#45;&gt;type_info -->
<g id="edge63" class="edge">
<title>ed25519&#45;&gt;type_info</title>
<path fill="none" stroke="black" d="M979.56,-289.12C988.83,-280.23 1000.57,-268.97 1010.94,-259.03"/>
<polygon fill="black" stroke="black" points="1013.36,-261.56 1018.16,-252.11 1008.52,-256.51 1013.36,-261.56"/>
</g>
<!-- ed25519&#45;&gt;hash -->
<g id="edge64" class="edge">
<title>ed25519&#45;&gt;hash</title>
<path fill="none" stroke="black" d="M937.93,-291.5C916.79,-280.12 886.43,-263.77 863.81,-251.59"/>
<polygon fill="black" stroke="black" points="865.5,-248.53 855.04,-246.87 862.18,-254.69 865.5,-248.53"/>
</g>
<!-- multi_ed25519&#45;&gt;error -->
<g id="edge66" class="edge">
<title>multi_ed25519&#45;&gt;error</title>
<path fill="none" stroke="black" d="M928.81,-360.14C922.84,-350.1 916.09,-336.85 913,-324 909.27,-308.44 908.59,-303.38 913,-288 933.81,-215.45 940.3,-186 1003,-144 1047.14,-114.43 1202.66,-99.29 1276.08,-93.65"/>
<polygon fill="black" stroke="black" points="1275.9,-97.18 1285.62,-92.94 1275.38,-90.2 1275.9,-97.18"/>
</g>
<!-- multi_ed25519&#45;&gt;option -->
<g id="edge65" class="edge">
<title>multi_ed25519&#45;&gt;option</title>
<path fill="none" stroke="black" d="M913.26,-361.38C896.08,-351.13 873.42,-337.23 854,-324 743.8,-248.95 732.05,-205.99 614,-144 576.42,-124.27 530.03,-109.74 497.26,-100.94"/>
<polygon fill="black" stroke="black" points="498.3,-97.6 487.74,-98.45 496.53,-104.37 498.3,-97.6"/>
</g>
<!-- multi_ed25519&#45;&gt;bcs -->
<g id="edge68" class="edge">
<title>multi_ed25519&#45;&gt;bcs</title>
<path fill="none" stroke="black" d="M974.89,-362.56C1015.82,-343.65 1082.24,-306.37 1115,-252 1125.84,-234.01 1128.59,-210.31 1128.77,-191.89"/>
<polygon fill="black" stroke="black" points="1132.27,-191.84 1128.59,-181.9 1125.27,-191.96 1132.27,-191.84"/>
</g>
<!-- multi_ed25519&#45;&gt;hash -->
<g id="edge69" class="edge">
<title>multi_ed25519&#45;&gt;hash</title>
<path fill="none" stroke="black" d="M917.96,-360.76C905.77,-351.03 890.91,-337.87 880,-324 865.08,-305.03 852.58,-280.62 844.23,-262.17"/>
<polygon fill="black" stroke="black" points="847.52,-260.96 840.3,-253.2 841.1,-263.76 847.52,-260.96"/>
</g>
<!-- multi_ed25519&#45;&gt;ed25519 -->
<g id="edge70" class="edge">
<title>multi_ed25519&#45;&gt;ed25519</title>
<path fill="none" stroke="black" d="M945.69,-359.7C948.14,-352.24 951.07,-343.32 953.81,-334.97"/>
<polygon fill="black" stroke="black" points="957.11,-336.14 956.91,-325.54 950.46,-333.95 957.11,-336.14"/>
</g>
<!-- multi_ed25519&#45;&gt;features -->
<g id="edge67" class="edge">
<title>multi_ed25519&#45;&gt;features</title>
<path fill="none" stroke="black" d="M994.43,-368.17C1032.08,-360.43 1082.32,-346.76 1122,-324 1179.06,-291.26 1223.7,-225.78 1245.46,-189.22"/>
<polygon fill="black" stroke="black" points="1248.22,-191.44 1250.22,-181.03 1242.17,-187.92 1248.22,-191.44"/>
</g>
<!-- from_bcs&#45;&gt;string -->
<g id="edge71" class="edge">
<title>from_bcs&#45;&gt;string</title>
<path fill="none" stroke="black" d="M387.85,-216.41C393.85,-208.01 401.27,-197.63 407.96,-188.26"/>
<polygon fill="black" stroke="black" points="410.74,-190.39 413.7,-180.22 405.04,-186.32 410.74,-190.39"/>
</g>
<!-- event&#45;&gt;bcs -->
<g id="edge72" class="edge">
<title>event&#45;&gt;bcs</title>
<path fill="none" stroke="black" d="M1309.06,-360.19C1315.7,-341.73 1323.23,-311.57 1313,-288 1285.74,-225.19 1208.06,-189.66 1162.16,-173.59"/>
<polygon fill="black" stroke="black" points="1163.53,-170.36 1152.94,-170.49 1161.3,-177 1163.53,-170.36"/>
</g>
<!-- event&#45;&gt;guid -->
<g id="edge73" class="edge">
<title>event&#45;&gt;guid</title>
<path fill="none" stroke="black" d="M1295.95,-360.05C1293.22,-352.4 1289.92,-343.16 1286.84,-334.56"/>
<polygon fill="black" stroke="black" points="1290.16,-333.45 1283.51,-325.21 1283.57,-335.81 1290.16,-333.45"/>
</g>
<!-- string&#45;&gt;vector -->
<g id="edge74" class="edge">
<title>string&#45;&gt;vector</title>
<path fill="none" stroke="black" d="M402.29,-150.21C347.71,-125.37 212.97,-64.04 148.91,-34.89"/>
<polygon fill="black" stroke="black" points="150.46,-31.75 139.91,-30.79 147.56,-38.12 150.46,-31.75"/>
</g>
<!-- string&#45;&gt;option -->
<g id="edge75" class="edge">
<title>string&#45;&gt;option</title>
<path fill="none" stroke="black" d="M433.26,-144.05C436.58,-136.32 440.59,-126.96 444.31,-118.27"/>
<polygon fill="black" stroke="black" points="447.49,-119.75 448.21,-109.18 441.05,-116.99 447.49,-119.75"/>
</g>
<!-- aggregator_factory&#45;&gt;error -->
<g id="edge76" class="edge">
<title>aggregator_factory&#45;&gt;error</title>
<path fill="none" stroke="black" d="M1814.77,-359.67C1821.99,-340.76 1829.86,-310.2 1817,-288 1752.54,-176.71 1686.16,-189.84 1566,-144 1493.77,-116.44 1404.09,-101.89 1353.83,-95.37"/>
<polygon fill="black" stroke="black" points="1354.4,-91.92 1344.04,-94.15 1353.53,-98.86 1354.4,-91.92"/>
</g>
<!-- aggregator_factory&#45;&gt;table -->
<g id="edge77" class="edge">
<title>aggregator_factory&#45;&gt;table</title>
<path fill="none" stroke="black" d="M1800.33,-359.7C1797.37,-352.04 1793.83,-342.85 1790.53,-334.3"/>
<polygon fill="black" stroke="black" points="1793.82,-333.1 1786.96,-325.03 1787.29,-335.62 1793.82,-333.1"/>
</g>
<!-- aggregator_factory&#45;&gt;system_addresses -->
<g id="edge78" class="edge">
<title>aggregator_factory&#45;&gt;system_addresses</title>
<path fill="none" stroke="black" d="M1767.98,-362.15C1740.07,-351.54 1702.31,-337.17 1672.31,-325.76"/>
<polygon fill="black" stroke="black" points="1673.66,-322.53 1663.06,-322.24 1671.17,-329.07 1673.66,-322.53"/>
</g>
<!-- aggregator_factory&#45;&gt;aggregator -->
<g id="edge79" class="edge">
<title>aggregator_factory&#45;&gt;aggregator</title>
<path fill="none" stroke="black" d="M1831.62,-360.59C1846.07,-350.95 1864.5,-338.66 1880.07,-328.29"/>
<polygon fill="black" stroke="black" points="1881.69,-331.41 1888.07,-322.95 1877.81,-325.59 1881.69,-331.41"/>
</g>
<!-- optional_aggregator&#45;&gt;error -->
<g id="edge81" class="edge">
<title>optional_aggregator&#45;&gt;error</title>
<path fill="none" stroke="black" d="M1669.44,-432.7C1635.41,-411.4 1577.55,-371.19 1541,-324 1487.28,-254.65 1524.24,-203.75 1460,-144 1430.46,-116.53 1385.53,-103.04 1353.52,-96.59"/>
<polygon fill="black" stroke="black" points="1354.32,-93.18 1343.85,-94.79 1353.05,-100.06 1354.32,-93.18"/>
</g>
<!-- optional_aggregator&#45;&gt;option -->
<g id="edge80" class="edge">
<title>optional_aggregator&#45;&gt;option</title>
<path fill="none" stroke="black" d="M1616.98,-446.17C1437.93,-439.46 1009.53,-421.25 867,-396 755.67,-376.27 711.7,-394.12 623,-324 550.7,-266.84 579.34,-214.53 520,-144 509.89,-131.98 496.8,-120.6 485.09,-111.48"/>
<polygon fill="black" stroke="black" points="487.39,-108.83 477.3,-105.6 483.17,-114.42 487.39,-108.83"/>
</g>
<!-- optional_aggregator&#45;&gt;aggregator -->
<g id="edge82" class="edge">
<title>optional_aggregator&#45;&gt;aggregator</title>
<path fill="none" stroke="black" d="M1777.08,-446.36C1817.14,-440.83 1863.3,-427.34 1893,-396 1908.12,-380.04 1912.42,-355.15 1913.19,-335.74"/>
<polygon fill="black" stroke="black" points="1916.69,-336.03 1913.27,-326 1909.69,-335.97 1916.69,-336.03"/>
</g>
<!-- optional_aggregator&#45;&gt;aggregator_factory -->
<g id="edge83" class="edge">
<title>optional_aggregator&#45;&gt;aggregator_factory</title>
<path fill="none" stroke="black" d="M1722.79,-432.59C1737.41,-423.28 1755.91,-411.51 1771.84,-401.37"/>
<polygon fill="black" stroke="black" points="1773.54,-404.44 1780.09,-396.12 1769.78,-398.54 1773.54,-404.44"/>
</g>
<!-- features&#45;&gt;signer -->
<g id="edge84" class="edge">
<title>features&#45;&gt;signer</title>
<path fill="none" stroke="black" d="M1296.02,-155.57C1380.47,-142.83 1590.9,-111.08 1681.46,-97.42"/>
<polygon fill="black" stroke="black" points="1681.79,-100.91 1691.16,-95.95 1680.75,-93.99 1681.79,-100.91"/>
</g>
<!-- features&#45;&gt;error -->
<g id="edge85" class="edge">
<title>features&#45;&gt;error</title>
<path fill="none" stroke="black" d="M1272.76,-144.76C1279.59,-136.07 1288.14,-125.19 1295.76,-115.49"/>
<polygon fill="black" stroke="black" points="1298.33,-117.88 1301.76,-107.86 1292.83,-113.56 1298.33,-117.88"/>
</g>
<!-- copyable_any&#45;&gt;error -->
<g id="edge87" class="edge">
<title>copyable_any&#45;&gt;error</title>
<path fill="none" stroke="black" d="M698.07,-287.73C705.61,-268.31 720.1,-236.75 741,-216 788.7,-168.64 809.94,-164.37 874,-144 1016.94,-98.54 1197.27,-91.57 1275.64,-90.84"/>
<polygon fill="black" stroke="black" points="1275.39,-94.34 1285.37,-90.78 1275.35,-87.34 1275.39,-94.34"/>
</g>
<!-- copyable_any&#45;&gt;bcs -->
<g id="edge88" class="edge">
<title>copyable_any&#45;&gt;bcs</title>
<path fill="none" stroke="black" d="M706.44,-288.09C725.1,-267.45 759.66,-233.18 797,-216 895.06,-170.89 1024.84,-163.35 1088.48,-162.6"/>
<polygon fill="black" stroke="black" points="1088.44,-166.1 1098.42,-162.54 1088.4,-159.1 1088.44,-166.1"/>
</g>
<!-- copyable_any&#45;&gt;type_info -->
<g id="edge89" class="edge">
<title>copyable_any&#45;&gt;type_info</title>
<path fill="none" stroke="black" d="M740.56,-295.12C805.6,-281.88 920.41,-258.52 986.12,-245.15"/>
<polygon fill="black" stroke="black" points="986.43,-248.66 995.53,-243.24 985.03,-241.8 986.43,-248.66"/>
</g>
<!-- copyable_any&#45;&gt;from_bcs -->
<g id="edge90" class="edge">
<title>copyable_any&#45;&gt;from_bcs</title>
<path fill="none" stroke="black" d="M645.03,-294.6C586.08,-281.54 485.42,-259.24 425.36,-245.93"/>
<polygon fill="black" stroke="black" points="426.28,-242.55 415.76,-243.81 424.76,-249.39 426.28,-242.55"/>
</g>
<!-- copyable_any&#45;&gt;string -->
<g id="edge86" class="edge">
<title>copyable_any&#45;&gt;string</title>
<path fill="none" stroke="black" d="M663.53,-289.8C613.63,-263.16 510.68,-208.21 458.24,-180.21"/>
<polygon fill="black" stroke="black" points="459.96,-177.16 449.49,-175.54 456.66,-183.33 459.96,-177.16"/>
</g>
</g>
</svg>
