<?xml version="1.0" encoding="UTF-8" standalone="no"?>
<!DOCTYPE svg PUBLIC "-//W3C//DTD SVG 1.1//EN"
 "http://www.w3.org/Graphics/SVG/1.1/DTD/svg11.dtd">
<!-- Generated by graphviz version 7.0.4 (20221203.1631)
 -->
<!-- Title: G Pages: 1 -->
<svg width="866pt" height="116pt"
 viewBox="0.00 0.00 865.58 116.00" xmlns="http://www.w3.org/2000/svg" xmlns:xlink="http://www.w3.org/1999/xlink">
<g id="graph0" class="graph" transform="scale(1 1) rotate(0) translate(4 112)">
<title>G</title>
<polygon fill="white" stroke="none" points="-4,4 -4,-112 861.58,-112 861.58,4 -4,4"/>
<!-- rotate_account_authentication_key_and_store_capability -->
<g id="node1" class="node">
<title>rotate_account_authentication_key_and_store_capability</title>
<ellipse fill="none" stroke="black" cx="348.49" cy="-18" rx="211.46" ry="18"/>
<text text-anchor="middle" x="348.49" y="-14.3" font-family="Times,serif" font-size="14.00">rotate_account_authentication_key_and_store_capability</text>
</g>
<!-- create_resource_account -->
<g id="node2" class="node">
<title>create_resource_account</title>
<ellipse fill="none" stroke="black" cx="97.49" cy="-90" rx="97.48" ry="18"/>
<text text-anchor="middle" x="97.49" y="-86.3" font-family="Times,serif" font-size="14.00">create_resource_account</text>
</g>
<!-- create_resource_account&#45;&gt;rotate_account_authentication_key_and_store_capability -->
<g id="edge1" class="edge">
<title>create_resource_account&#45;&gt;rotate_account_authentication_key_and_store_capability</title>
<path fill="none" stroke="black" d="M149.8,-74.41C186.92,-64.06 237.16,-50.05 277.83,-38.71"/>
<polygon fill="black" stroke="black" points="278.61,-42.12 287.3,-36.07 276.73,-35.38 278.61,-42.12"/>
</g>
<!-- create_resource_account_and_fund -->
<g id="node3" class="node">
<title>create_resource_account_and_fund</title>
<ellipse fill="none" stroke="black" cx="348.49" cy="-90" rx="135.38" ry="18"/>
<text text-anchor="middle" x="348.49" y="-86.3" font-family="Times,serif" font-size="14.00">create_resource_account_and_fund</text>
</g>
<!-- create_resource_account_and_fund&#45;&gt;rotate_account_authentication_key_and_store_capability -->
<g id="edge2" class="edge">
<title>create_resource_account_and_fund&#45;&gt;rotate_account_authentication_key_and_store_capability</title>
<path fill="none" stroke="black" d="M348.49,-71.7C348.49,-64.41 348.49,-55.73 348.49,-47.54"/>
<polygon fill="black" stroke="black" points="351.99,-47.62 348.49,-37.62 344.99,-47.62 351.99,-47.62"/>
</g>
<!-- create_resource_account_and_publish_package -->
<g id="node4" class="node">
<title>create_resource_account_and_publish_package</title>
<ellipse fill="none" stroke="black" cx="679.49" cy="-90" rx="178.17" ry="18"/>
<text text-anchor="middle" x="679.49" y="-86.3" font-family="Times,serif" font-size="14.00">create_resource_account_and_publish_package</text>
</g>
<!-- create_resource_account_and_publish_package&#45;&gt;rotate_account_authentication_key_and_store_capability -->
<g id="edge3" class="edge">
<title>create_resource_account_and_publish_package&#45;&gt;rotate_account_authentication_key_and_store_capability</title>
<path fill="none" stroke="black" d="M604.8,-73.2C554.77,-62.62 488.72,-48.66 436.2,-37.55"/>
<polygon fill="black" stroke="black" points="437.2,-34.18 426.69,-35.54 435.75,-41.03 437.2,-34.18"/>
</g>
</g>
</svg>
