<?xml version="1.0" encoding="UTF-8" standalone="no"?>
<!DOCTYPE svg PUBLIC "-//W3C//DTD SVG 1.1//EN"
 "http://www.w3.org/Graphics/SVG/1.1/DTD/svg11.dtd">
<!-- Generated by graphviz version 7.0.4 (20221203.1631)
 -->
<!-- Title: G Pages: 1 -->
<svg width="951pt" height="437pt"
 viewBox="0.00 0.00 950.72 437.00" xmlns="http://www.w3.org/2000/svg" xmlns:xlink="http://www.w3.org/1999/xlink">
<g id="graph0" class="graph" transform="scale(1 1) rotate(0) translate(4 433)">
<title>G</title>
<polygon fill="white" stroke="none" points="-4,4 -4,-433 946.72,-433 946.72,4 -4,4"/>
<g id="clust1" class="cluster">
<title>cluster_signer</title>
<polygon fill="none" stroke="black" points="764,-163 764,-310 914,-310 914,-163 764,-163"/>
<text text-anchor="middle" x="839" y="-294.8" font-family="Times,serif" font-size="14.00">signer</text>
</g>
<g id="clust2" class="cluster">
<title>cluster_stake</title>
<polygon fill="none" stroke="black" points="290,-80 290,-385 756,-385 756,-80 290,-80"/>
<text text-anchor="middle" x="523" y="-369.8" font-family="Times,serif" font-size="14.00">stake</text>
</g>
<g id="clust3" class="cluster">
<title>cluster_error</title>
<polygon fill="none" stroke="black" points="8,-8 8,-155 282,-155 282,-8 8,-8"/>
<text text-anchor="middle" x="145" y="-139.8" font-family="Times,serif" font-size="14.00">error</text>
</g>
<!-- set_stake_pool_voter -->
<g id="node1" class="node">
<title>set_stake_pool_voter</title>
<ellipse fill="none" stroke="black" cx="830" cy="-411" rx="85.29" ry="18"/>
<text text-anchor="middle" x="830" y="-407.3" font-family="Times,serif" font-size="14.00">set_stake_pool_voter</text>
</g>
<!-- signer::address_of -->
<g id="node2" class="node">
<title>signer::address_of</title>
<ellipse fill="none" stroke="black" cx="830" cy="-261" rx="48.99" ry="18"/>
<text text-anchor="middle" x="830" y="-257.3" font-family="Times,serif" font-size="14.00">address_of</text>
</g>
<!-- set_stake_pool_voter&#45;&gt;signer::address_of -->
<g id="edge1" class="edge">
<title>set_stake_pool_voter&#45;&gt;signer::address_of</title>
<path fill="none" stroke="black" d="M830,-392.73C830,-367.67 830,-320.9 830,-290.63"/>
<polygon fill="black" stroke="black" points="833.5,-290.67 830,-280.67 826.5,-290.67 833.5,-290.67"/>
</g>
<!-- stake::set_delegated_voter -->
<g id="node3" class="node">
<title>stake::set_delegated_voter</title>
<ellipse fill="none" stroke="black" cx="648" cy="-336" rx="81.49" ry="18"/>
<text text-anchor="middle" x="648" y="-332.3" font-family="Times,serif" font-size="14.00">set_delegated_voter</text>
</g>
<!-- set_stake_pool_voter&#45;&gt;stake::set_delegated_voter -->
<g id="edge2" class="edge">
<title>set_stake_pool_voter&#45;&gt;stake::set_delegated_voter</title>
<path fill="none" stroke="black" d="M791.4,-394.52C763.8,-383.45 726.44,-368.46 696.78,-356.57"/>
<polygon fill="black" stroke="black" points="698.22,-353.37 687.63,-352.9 695.61,-359.87 698.22,-353.37"/>
</g>
<!-- stake::stake_pool_exists -->
<g id="node4" class="node">
<title>stake::stake_pool_exists</title>
<ellipse fill="none" stroke="black" cx="652" cy="-106" rx="73.39" ry="18"/>
<text text-anchor="middle" x="652" y="-102.3" font-family="Times,serif" font-size="14.00">stake_pool_exists</text>
</g>
<!-- set_stake_pool_voter&#45;&gt;stake::stake_pool_exists -->
<g id="edge3" class="edge">
<title>set_stake_pool_voter&#45;&gt;stake::stake_pool_exists</title>
<path fill="none" stroke="black" d="M851.93,-393.3C873.44,-375.41 904.85,-344.84 918,-310 941.07,-248.87 959.16,-213.73 918,-163 895.01,-134.66 802.73,-120.13 733.26,-113.06"/>
<polygon fill="black" stroke="black" points="733.69,-109.58 723.4,-112.09 733.01,-116.55 733.69,-109.58"/>
</g>
<!-- signer::borrow_address -->
<g id="node5" class="node">
<title>signer::borrow_address</title>
<ellipse fill="none" stroke="black" cx="839" cy="-189" rx="66.89" ry="18"/>
<text text-anchor="middle" x="839" y="-185.3" font-family="Times,serif" font-size="14.00">borrow_address</text>
</g>
<!-- signer::address_of&#45;&gt;signer::borrow_address -->
<g id="edge4" class="edge">
<title>signer::address_of&#45;&gt;signer::borrow_address</title>
<path fill="none" stroke="black" d="M832.22,-242.7C833.17,-235.32 834.3,-226.52 835.37,-218.25"/>
<polygon fill="black" stroke="black" points="838.8,-218.97 836.61,-208.61 831.86,-218.08 838.8,-218.97"/>
</g>
<!-- stake::set_delegated_voter&#45;&gt;signer::address_of -->
<g id="edge5" class="edge">
<title>stake::set_delegated_voter&#45;&gt;signer::address_of</title>
<path fill="none" stroke="black" d="M713.3,-324.81C728.97,-321.18 745.38,-316.36 760,-310 774.86,-303.54 789.87,-293.77 802.16,-284.73"/>
<polygon fill="black" stroke="black" points="803.93,-287.78 809.77,-278.94 799.69,-282.2 803.93,-287.78"/>
</g>
<!-- stake::assert_owner_cap_exists -->
<g id="node6" class="node">
<title>stake::assert_owner_cap_exists</title>
<ellipse fill="none" stroke="black" cx="396" cy="-261" rx="98.28" ry="18"/>
<text text-anchor="middle" x="396" y="-257.3" font-family="Times,serif" font-size="14.00">assert_owner_cap_exists</text>
</g>
<!-- stake::set_delegated_voter&#45;&gt;stake::assert_owner_cap_exists -->
<g id="edge6" class="edge">
<title>stake::set_delegated_voter&#45;&gt;stake::assert_owner_cap_exists</title>
<path fill="none" stroke="black" d="M577.84,-326.54C553.8,-322.68 526.94,-317.31 503,-310 480.65,-303.18 456.84,-292.83 437.37,-283.48"/>
<polygon fill="black" stroke="black" points="438.91,-280.34 428.39,-279.09 435.84,-286.63 438.91,-280.34"/>
</g>
<!-- stake::set_delegated_voter_with_cap -->
<g id="node7" class="node">
<title>stake::set_delegated_voter_with_cap</title>
<ellipse fill="none" stroke="black" cx="630" cy="-261" rx="117.78" ry="18"/>
<text text-anchor="middle" x="630" y="-257.3" font-family="Times,serif" font-size="14.00">set_delegated_voter_with_cap</text>
</g>
<!-- stake::set_delegated_voter&#45;&gt;stake::set_delegated_voter_with_cap -->
<g id="edge7" class="edge">
<title>stake::set_delegated_voter&#45;&gt;stake::set_delegated_voter_with_cap</title>
<path fill="none" stroke="black" d="M643.73,-317.7C641.73,-309.58 639.29,-299.68 637.03,-290.5"/>
<polygon fill="black" stroke="black" points="640.45,-289.77 634.66,-280.9 633.66,-291.45 640.45,-289.77"/>
</g>
<!-- error::not_found -->
<g id="node8" class="node">
<title>error::not_found</title>
<ellipse fill="none" stroke="black" cx="63" cy="-106" rx="46.59" ry="18"/>
<text text-anchor="middle" x="63" y="-102.3" font-family="Times,serif" font-size="14.00">not_found</text>
</g>
<!-- stake::assert_owner_cap_exists&#45;&gt;error::not_found -->
<g id="edge8" class="edge">
<title>stake::assert_owner_cap_exists&#45;&gt;error::not_found</title>
<path fill="none" stroke="black" d="M341.97,-245.59C284.25,-228.84 191.32,-197.91 119,-155 107.82,-148.37 96.69,-139.44 87.34,-131.09"/>
<polygon fill="black" stroke="black" points="89.81,-128.6 80.09,-124.38 85.05,-133.74 89.81,-128.6"/>
</g>
<!-- stake::assert_stake_pool_exists -->
<g id="node9" class="node">
<title>stake::assert_stake_pool_exists</title>
<ellipse fill="none" stroke="black" cx="630" cy="-189" rx="97.48" ry="18"/>
<text text-anchor="middle" x="630" y="-185.3" font-family="Times,serif" font-size="14.00">assert_stake_pool_exists</text>
</g>
<!-- stake::set_delegated_voter_with_cap&#45;&gt;stake::assert_stake_pool_exists -->
<g id="edge9" class="edge">
<title>stake::set_delegated_voter_with_cap&#45;&gt;stake::assert_stake_pool_exists</title>
<path fill="none" stroke="black" d="M630,-242.7C630,-235.41 630,-226.73 630,-218.54"/>
<polygon fill="black" stroke="black" points="633.5,-218.62 630,-208.62 626.5,-218.62 633.5,-218.62"/>
</g>
<!-- error::canonical -->
<g id="node10" class="node">
<title>error::canonical</title>
<ellipse fill="none" stroke="black" cx="132" cy="-34" rx="44.39" ry="18"/>
<text text-anchor="middle" x="132" y="-30.3" font-family="Times,serif" font-size="14.00">canonical</text>
</g>
<!-- error::not_found&#45;&gt;error::canonical -->
<g id="edge10" class="edge">
<title>error::not_found&#45;&gt;error::canonical</title>
<path fill="none" stroke="black" d="M79,-88.76C87.63,-80.02 98.43,-69.05 108.04,-59.31"/>
<polygon fill="black" stroke="black" points="110.49,-61.8 115.02,-52.23 105.51,-56.89 110.49,-61.8"/>
</g>
<!-- stake::assert_stake_pool_exists&#45;&gt;stake::stake_pool_exists -->
<g id="edge12" class="edge">
<title>stake::assert_stake_pool_exists&#45;&gt;stake::stake_pool_exists</title>
<path fill="none" stroke="black" d="M634.67,-170.82C637.48,-160.48 641.12,-147.05 644.35,-135.18"/>
<polygon fill="black" stroke="black" points="647.63,-136.46 646.87,-125.89 640.87,-134.63 647.63,-136.46"/>
</g>
<!-- error::invalid_argument -->
<g id="node11" class="node">
<title>error::invalid_argument</title>
<ellipse fill="none" stroke="black" cx="201" cy="-106" rx="73.39" ry="18"/>
<text text-anchor="middle" x="201" y="-102.3" font-family="Times,serif" font-size="14.00">invalid_argument</text>
</g>
<!-- stake::assert_stake_pool_exists&#45;&gt;error::invalid_argument -->
<g id="edge11" class="edge">
<title>stake::assert_stake_pool_exists&#45;&gt;error::invalid_argument</title>
<path fill="none" stroke="black" d="M536.83,-183.43C451.27,-178.43 331.14,-169.2 286,-155 267.57,-149.2 248.69,-139.04 233.42,-129.56"/>
<polygon fill="black" stroke="black" points="235.53,-126.76 225.23,-124.3 231.75,-132.65 235.53,-126.76"/>
</g>
<!-- error::invalid_argument&#45;&gt;error::canonical -->
<g id="edge13" class="edge">
<title>error::invalid_argument&#45;&gt;error::canonical</title>
<path fill="none" stroke="black" d="M184.3,-88.05C175.66,-79.29 164.97,-68.45 155.52,-58.86"/>
<polygon fill="black" stroke="black" points="158.18,-56.57 148.67,-51.91 153.19,-61.49 158.18,-56.57"/>
</g>
</g>
</svg>
