<?xml version="1.0" encoding="UTF-8" standalone="no"?>
<!DOCTYPE svg PUBLIC "-//W3C//DTD SVG 1.1//EN"
 "http://www.w3.org/Graphics/SVG/1.1/DTD/svg11.dtd">
<!-- Generated by graphviz version 7.0.4 (20221203.1631)
 -->
<!-- Title: G Pages: 1 -->
<svg width="288pt" height="299pt"
 viewBox="0.00 0.00 288.00 299.00" xmlns="http://www.w3.org/2000/svg" xmlns:xlink="http://www.w3.org/1999/xlink">
<g id="graph0" class="graph" transform="scale(1 1) rotate(0) translate(4 295)">
<title>G</title>
<polygon fill="white" stroke="none" points="-4,4 -4,-295 284,-295 284,4 -4,4"/>
<g id="clust1" class="cluster">
<title>cluster_vesting</title>
<polygon fill="none" stroke="black" points="8,-64 8,-283 272,-283 272,-64 8,-64"/>
<text text-anchor="middle" x="140" y="-267.8" font-family="Times,serif" font-size="14.00">vesting</text>
</g>
<!-- distribute -->
<g id="node1" class="node">
<title>distribute</title>
<ellipse fill="none" stroke="black" cx="137" cy="-18" rx="44.39" ry="18"/>
<text text-anchor="middle" x="137" y="-14.3" font-family="Times,serif" font-size="14.00">distribute</text>
</g>
<!-- vesting::withdraw_stake -->
<g id="node2" class="node">
<title>vesting::withdraw_stake</title>
<ellipse fill="none" stroke="black" cx="137" cy="-90" rx="66.09" ry="18"/>
<text text-anchor="middle" x="137" y="-86.3" font-family="Times,serif" font-size="14.00">withdraw_stake</text>
</g>
<!-- vesting::withdraw_stake&#45;&gt;distribute -->
<g id="edge1" class="edge">
<title>vesting::withdraw_stake&#45;&gt;distribute</title>
<path fill="none" stroke="black" d="M137,-71.7C137,-64.41 137,-55.73 137,-47.54"/>
<polygon fill="black" stroke="black" points="140.5,-47.62 137,-37.62 133.5,-47.62 140.5,-47.62"/>
</g>
<!-- vesting::distribute -->
<g id="node3" class="node">
<title>vesting::distribute</title>
<ellipse fill="none" stroke="black" cx="60" cy="-162" rx="44.39" ry="18"/>
<text text-anchor="middle" x="60" y="-158.3" font-family="Times,serif" font-size="14.00">distribute</text>
</g>
<!-- vesting::distribute&#45;&gt;vesting::withdraw_stake -->
<g id="edge2" class="edge">
<title>vesting::distribute&#45;&gt;vesting::withdraw_stake</title>
<path fill="none" stroke="black" d="M77.47,-145.12C87.21,-136.27 99.53,-125.07 110.43,-115.16"/>
<polygon fill="black" stroke="black" points="112.63,-117.89 117.67,-108.57 107.92,-112.71 112.63,-117.89"/>
</g>
<!-- vesting::admin_withdraw -->
<g id="node4" class="node">
<title>vesting::admin_withdraw</title>
<ellipse fill="none" stroke="black" cx="193" cy="-162" rx="70.69" ry="18"/>
<text text-anchor="middle" x="193" y="-158.3" font-family="Times,serif" font-size="14.00">admin_withdraw</text>
</g>
<!-- vesting::admin_withdraw&#45;&gt;vesting::withdraw_stake -->
<g id="edge3" class="edge">
<title>vesting::admin_withdraw&#45;&gt;vesting::withdraw_stake</title>
<path fill="none" stroke="black" d="M179.44,-144.05C172.84,-135.8 164.76,-125.7 157.43,-116.54"/>
<polygon fill="black" stroke="black" points="160.36,-114.59 151.38,-108.97 154.89,-118.97 160.36,-114.59"/>
</g>
<!-- vesting::terminate_vesting_contract -->
<g id="node5" class="node">
<title>vesting::terminate_vesting_contract</title>
<ellipse fill="none" stroke="black" cx="123" cy="-234" rx="106.68" ry="18"/>
<text text-anchor="middle" x="123" y="-230.3" font-family="Times,serif" font-size="14.00">terminate_vesting_contract</text>
</g>
<!-- vesting::terminate_vesting_contract&#45;&gt;vesting::distribute -->
<g id="edge4" class="edge">
<title>vesting::terminate_vesting_contract&#45;&gt;vesting::distribute</title>
<path fill="none" stroke="black" d="M107.43,-215.7C99.81,-207.23 90.5,-196.89 82.15,-187.61"/>
<polygon fill="black" stroke="black" points="84.83,-185.36 75.54,-180.27 79.63,-190.04 84.83,-185.36"/>
</g>
</g>
</svg>
