<?xml version="1.0" encoding="UTF-8" standalone="no"?>
<!DOCTYPE svg PUBLIC "-//W3C//DTD SVG 1.1//EN"
 "http://www.w3.org/Graphics/SVG/1.1/DTD/svg11.dtd">
<!-- Generated by graphviz version 7.0.4 (20221203.1631)
 -->
<!-- Title: G Pages: 1 -->
<svg width="1054pt" height="282pt"
 viewBox="0.00 0.00 1054.44 282.00" xmlns="http://www.w3.org/2000/svg" xmlns:xlink="http://www.w3.org/1999/xlink">
<g id="graph0" class="graph" transform="scale(1 1) rotate(0) translate(4 278)">
<title>G</title>
<polygon fill="white" stroke="none" points="-4,4 -4,-278 1050.44,-278 1050.44,4 -4,4"/>
<g id="clust1" class="cluster">
<title>cluster_signer</title>
<polygon fill="none" stroke="black" points="8,-80 8,-230 158,-230 158,-80 8,-80"/>
<text text-anchor="middle" x="83" y="-214.8" font-family="Times,serif" font-size="14.00">signer</text>
</g>
<g id="clust2" class="cluster">
<title>cluster_error</title>
<polygon fill="none" stroke="black" points="464,-8 464,-155 889,-155 889,-8 464,-8"/>
<text text-anchor="middle" x="676.5" y="-139.8" font-family="Times,serif" font-size="14.00">error</text>
</g>
<g id="clust3" class="cluster">
<title>cluster_event</title>
<polygon fill="none" stroke="black" points="166,-80 166,-230 352,-230 352,-80 166,-80"/>
<text text-anchor="middle" x="259" y="-214.8" font-family="Times,serif" font-size="14.00">event</text>
</g>
<g id="clust4" class="cluster">
<title>cluster_bcs</title>
<polygon fill="none" stroke="black" points="360,-80 360,-155 456,-155 456,-80 360,-80"/>
<text text-anchor="middle" x="408" y="-139.8" font-family="Times,serif" font-size="14.00">bcs</text>
</g>
<!-- update_network_and_fullnode_addresses -->
<g id="node1" class="node">
<title>update_network_and_fullnode_addresses</title>
<ellipse fill="none" stroke="black" cx="519" cy="-256" rx="155.97" ry="18"/>
<text text-anchor="middle" x="519" y="-252.3" font-family="Times,serif" font-size="14.00">update_network_and_fullnode_addresses</text>
</g>
<!-- signer::address_of -->
<g id="node2" class="node">
<title>signer::address_of</title>
<ellipse fill="none" stroke="black" cx="92" cy="-181" rx="48.99" ry="18"/>
<text text-anchor="middle" x="92" y="-177.3" font-family="Times,serif" font-size="14.00">address_of</text>
</g>
<!-- update_network_and_fullnode_addresses&#45;&gt;signer::address_of -->
<g id="edge1" class="edge">
<title>update_network_and_fullnode_addresses&#45;&gt;signer::address_of</title>
<path fill="none" stroke="black" d="M365.85,-252.21C286.71,-249.19 199.11,-242.94 162,-230 146.37,-224.55 130.97,-214.64 118.62,-205.23"/>
<polygon fill="black" stroke="black" points="121,-202.65 110.99,-199.16 116.64,-208.13 121,-202.65"/>
</g>
<!-- error::not_found -->
<g id="node3" class="node">
<title>error::not_found</title>
<ellipse fill="none" stroke="black" cx="519" cy="-106" rx="46.59" ry="18"/>
<text text-anchor="middle" x="519" y="-102.3" font-family="Times,serif" font-size="14.00">not_found</text>
</g>
<!-- update_network_and_fullnode_addresses&#45;&gt;error::not_found -->
<g id="edge2" class="edge">
<title>update_network_and_fullnode_addresses&#45;&gt;error::not_found</title>
<path fill="none" stroke="black" d="M519,-237.73C519,-212.67 519,-165.9 519,-135.63"/>
<polygon fill="black" stroke="black" points="522.5,-135.67 519,-125.67 515.5,-135.67 522.5,-135.67"/>
</g>
<!-- error::unauthenticated -->
<g id="node4" class="node">
<title>error::unauthenticated</title>
<ellipse fill="none" stroke="black" cx="650" cy="-106" rx="66.09" ry="18"/>
<text text-anchor="middle" x="650" y="-102.3" font-family="Times,serif" font-size="14.00">unauthenticated</text>
</g>
<!-- update_network_and_fullnode_addresses&#45;&gt;error::unauthenticated -->
<g id="edge3" class="edge">
<title>update_network_and_fullnode_addresses&#45;&gt;error::unauthenticated</title>
<path fill="none" stroke="black" d="M534.28,-237.73C557.38,-211.64 601.3,-162.02 627.89,-131.98"/>
<polygon fill="black" stroke="black" points="630.21,-134.64 634.21,-124.84 624.96,-130 630.21,-134.64"/>
</g>
<!-- event::emit_event -->
<g id="node5" class="node">
<title>event::emit_event</title>
<ellipse fill="none" stroke="black" cx="294" cy="-181" rx="50.09" ry="18"/>
<text text-anchor="middle" x="294" y="-177.3" font-family="Times,serif" font-size="14.00">emit_event</text>
</g>
<!-- update_network_and_fullnode_addresses&#45;&gt;event::emit_event -->
<g id="edge4" class="edge">
<title>update_network_and_fullnode_addresses&#45;&gt;event::emit_event</title>
<path fill="none" stroke="black" d="M468.23,-238.53C430,-226.13 378.01,-209.26 340.8,-197.18"/>
<polygon fill="black" stroke="black" points="342.27,-193.98 331.67,-194.22 340.11,-200.64 342.27,-193.98"/>
</g>
<!-- assert_stake_pool_exists -->
<g id="node6" class="node">
<title>assert_stake_pool_exists</title>
<ellipse fill="none" stroke="black" cx="808" cy="-181" rx="97.48" ry="18"/>
<text text-anchor="middle" x="808" y="-177.3" font-family="Times,serif" font-size="14.00">assert_stake_pool_exists</text>
</g>
<!-- update_network_and_fullnode_addresses&#45;&gt;assert_stake_pool_exists -->
<g id="edge5" class="edge">
<title>update_network_and_fullnode_addresses&#45;&gt;assert_stake_pool_exists</title>
<path fill="none" stroke="black" d="M582.07,-239.07C629.06,-227.2 693.12,-211.02 741.02,-198.92"/>
<polygon fill="black" stroke="black" points="741.6,-202.38 750.44,-196.54 739.89,-195.59 741.6,-202.38"/>
</g>
<!-- signer::borrow_address -->
<g id="node7" class="node">
<title>signer::borrow_address</title>
<ellipse fill="none" stroke="black" cx="83" cy="-106" rx="66.89" ry="18"/>
<text text-anchor="middle" x="83" y="-102.3" font-family="Times,serif" font-size="14.00">borrow_address</text>
</g>
<!-- signer::address_of&#45;&gt;signer::borrow_address -->
<g id="edge6" class="edge">
<title>signer::address_of&#45;&gt;signer::borrow_address</title>
<path fill="none" stroke="black" d="M89.87,-162.7C88.88,-154.67 87.67,-144.9 86.55,-135.8"/>
<polygon fill="black" stroke="black" points="90.03,-135.43 85.33,-125.93 83.08,-136.28 90.03,-135.43"/>
</g>
<!-- error::canonical -->
<g id="node8" class="node">
<title>error::canonical</title>
<ellipse fill="none" stroke="black" cx="650" cy="-34" rx="44.39" ry="18"/>
<text text-anchor="middle" x="650" y="-30.3" font-family="Times,serif" font-size="14.00">canonical</text>
</g>
<!-- error::not_found&#45;&gt;error::canonical -->
<g id="edge7" class="edge">
<title>error::not_found&#45;&gt;error::canonical</title>
<path fill="none" stroke="black" d="M545.51,-90.83C565.17,-80.33 592.2,-65.89 613.84,-54.32"/>
<polygon fill="black" stroke="black" points="615.47,-57.42 622.64,-49.62 612.17,-51.24 615.47,-57.42"/>
</g>
<!-- error::unauthenticated&#45;&gt;error::canonical -->
<g id="edge8" class="edge">
<title>error::unauthenticated&#45;&gt;error::canonical</title>
<path fill="none" stroke="black" d="M650,-87.7C650,-80.41 650,-71.73 650,-63.54"/>
<polygon fill="black" stroke="black" points="653.5,-63.62 650,-53.62 646.5,-63.62 653.5,-63.62"/>
</g>
<!-- bcs::to_bytes -->
<g id="node9" class="node">
<title>bcs::to_bytes</title>
<ellipse fill="none" stroke="black" cx="408" cy="-106" rx="40.09" ry="18"/>
<text text-anchor="middle" x="408" y="-102.3" font-family="Times,serif" font-size="14.00">to_bytes</text>
</g>
<!-- event::emit_event&#45;&gt;bcs::to_bytes -->
<g id="edge9" class="edge">
<title>event::emit_event&#45;&gt;bcs::to_bytes</title>
<path fill="none" stroke="black" d="M329.85,-168.11C338.71,-164.48 347.96,-160.09 356,-155 366.59,-148.3 376.99,-139.32 385.68,-130.94"/>
<polygon fill="black" stroke="black" points="388.08,-133.48 392.67,-123.93 383.13,-128.54 388.08,-133.48"/>
</g>
<!-- event::write_to_event_store -->
<g id="node10" class="node">
<title>event::write_to_event_store</title>
<ellipse fill="none" stroke="black" cx="259" cy="-106" rx="85.29" ry="18"/>
<text text-anchor="middle" x="259" y="-102.3" font-family="Times,serif" font-size="14.00">write_to_event_store</text>
</g>
<!-- event::emit_event&#45;&gt;event::write_to_event_store -->
<g id="edge10" class="edge">
<title>event::emit_event&#45;&gt;event::write_to_event_store</title>
<path fill="none" stroke="black" d="M285.88,-163.07C281.83,-154.62 276.83,-144.19 272.25,-134.63"/>
<polygon fill="black" stroke="black" points="275.45,-133.22 267.97,-125.71 269.14,-136.24 275.45,-133.22"/>
</g>
<!-- error::invalid_argument -->
<g id="node11" class="node">
<title>error::invalid_argument</title>
<ellipse fill="none" stroke="black" cx="808" cy="-106" rx="73.39" ry="18"/>
<text text-anchor="middle" x="808" y="-102.3" font-family="Times,serif" font-size="14.00">invalid_argument</text>
</g>
<!-- assert_stake_pool_exists&#45;&gt;error::invalid_argument -->
<g id="edge11" class="edge">
<title>assert_stake_pool_exists&#45;&gt;error::invalid_argument</title>
<path fill="none" stroke="black" d="M808,-162.7C808,-154.67 808,-144.9 808,-135.8"/>
<polygon fill="black" stroke="black" points="811.5,-135.94 808,-125.94 804.5,-135.94 811.5,-135.94"/>
</g>
<!-- stake_pool_exists -->
<g id="node12" class="node">
<title>stake_pool_exists</title>
<ellipse fill="none" stroke="black" cx="973" cy="-106" rx="73.39" ry="18"/>
<text text-anchor="middle" x="973" y="-102.3" font-family="Times,serif" font-size="14.00">stake_pool_exists</text>
</g>
<!-- assert_stake_pool_exists&#45;&gt;stake_pool_exists -->
<g id="edge12" class="edge">
<title>assert_stake_pool_exists&#45;&gt;stake_pool_exists</title>
<path fill="none" stroke="black" d="M863.6,-165.87C873.55,-162.71 883.7,-159.08 893,-155 908.99,-147.99 925.71,-138.37 939.7,-129.58"/>
<polygon fill="black" stroke="black" points="941.56,-132.54 948.08,-124.19 937.77,-126.65 941.56,-132.54"/>
</g>
<!-- error::invalid_argument&#45;&gt;error::canonical -->
<g id="edge13" class="edge">
<title>error::invalid_argument&#45;&gt;error::canonical</title>
<path fill="none" stroke="black" d="M773.72,-89.81C748.91,-78.82 715.33,-63.94 689.41,-52.46"/>
<polygon fill="black" stroke="black" points="691.12,-49.39 680.56,-48.54 688.29,-55.79 691.12,-49.39"/>
</g>
</g>
</svg>
