<?xml version="1.0" encoding="UTF-8" standalone="no"?>
<!DOCTYPE svg PUBLIC "-//W3C//DTD SVG 1.1//EN"
 "http://www.w3.org/Graphics/SVG/1.1/DTD/svg11.dtd">
<!-- Generated by graphviz version 7.0.4 (20221203.1631)
 -->
<!-- Title: G Pages: 1 -->
<svg width="1872pt" height="293pt"
 viewBox="0.00 0.00 1872.44 293.00" xmlns="http://www.w3.org/2000/svg" xmlns:xlink="http://www.w3.org/1999/xlink">
<g id="graph0" class="graph" transform="scale(1 1) rotate(0) translate(4 289)">
<title>G</title>
<polygon fill="white" stroke="none" points="-4,4 -4,-289 1868.44,-289 1868.44,4 -4,4"/>
<g id="clust1" class="cluster">
<title>cluster_option</title>
<polygon fill="none" stroke="black" points="464,-91 464,-166 712,-166 712,-91 464,-91"/>
<text text-anchor="middle" x="588" y="-150.8" font-family="Times,serif" font-size="14.00">option</text>
</g>
<g id="clust2" class="cluster">
<title>cluster_signer</title>
<polygon fill="none" stroke="black" points="8,-91 8,-241 158,-241 158,-91 8,-91"/>
<text text-anchor="middle" x="83" y="-225.8" font-family="Times,serif" font-size="14.00">signer</text>
</g>
<g id="clust3" class="cluster">
<title>cluster_error</title>
<polygon fill="none" stroke="black" points="1282,-8 1282,-166 1707,-166 1707,-8 1282,-8"/>
<text text-anchor="middle" x="1494.5" y="-150.8" font-family="Times,serif" font-size="14.00">error</text>
</g>
<g id="clust4" class="cluster">
<title>cluster_event</title>
<polygon fill="none" stroke="black" points="166,-91 166,-241 352,-241 352,-91 166,-91"/>
<text text-anchor="middle" x="259" y="-225.8" font-family="Times,serif" font-size="14.00">event</text>
</g>
<g id="clust5" class="cluster">
<title>cluster_bls12381</title>
<polygon fill="none" stroke="black" points="720,-91 720,-241 1274,-241 1274,-91 720,-91"/>
<text text-anchor="middle" x="997" y="-225.8" font-family="Times,serif" font-size="14.00">bls12381</text>
</g>
<g id="clust6" class="cluster">
<title>cluster_vector</title>
<polygon fill="none" stroke="black" points="452,-8 452,-83 659,-83 659,-8 452,-8"/>
<text text-anchor="middle" x="555.5" y="-67.8" font-family="Times,serif" font-size="14.00">vector</text>
</g>
<g id="clust7" class="cluster">
<title>cluster_bcs</title>
<polygon fill="none" stroke="black" points="360,-91 360,-166 456,-166 456,-91 360,-91"/>
<text text-anchor="middle" x="408" y="-150.8" font-family="Times,serif" font-size="14.00">bcs</text>
</g>
<!-- rotate_consensus_key -->
<g id="node1" class="node">
<title>rotate_consensus_key</title>
<ellipse fill="none" stroke="black" cx="1134" cy="-267" rx="87.99" ry="18"/>
<text text-anchor="middle" x="1134" y="-263.3" font-family="Times,serif" font-size="14.00">rotate_consensus_key</text>
</g>
<!-- option::is_some -->
<g id="node2" class="node">
<title>option::is_some</title>
<ellipse fill="none" stroke="black" cx="512" cy="-117" rx="40.09" ry="18"/>
<text text-anchor="middle" x="512" y="-113.3" font-family="Times,serif" font-size="14.00">is_some</text>
</g>
<!-- rotate_consensus_key&#45;&gt;option::is_some -->
<g id="edge1" class="edge">
<title>rotate_consensus_key&#45;&gt;option::is_some</title>
<path fill="none" stroke="black" d="M1046.25,-264.75C942.44,-262.57 776.14,-256.69 716,-241 641.95,-221.68 623.6,-210.02 561,-166 551.31,-159.19 541.76,-150.42 533.69,-142.25"/>
<polygon fill="black" stroke="black" points="536.36,-139.98 526.93,-135.16 531.29,-144.81 536.36,-139.98"/>
</g>
<!-- signer::address_of -->
<g id="node3" class="node">
<title>signer::address_of</title>
<ellipse fill="none" stroke="black" cx="92" cy="-192" rx="48.99" ry="18"/>
<text text-anchor="middle" x="92" y="-188.3" font-family="Times,serif" font-size="14.00">address_of</text>
</g>
<!-- rotate_consensus_key&#45;&gt;signer::address_of -->
<g id="edge2" class="edge">
<title>rotate_consensus_key&#45;&gt;signer::address_of</title>
<path fill="none" stroke="black" d="M1045.9,-266.58C822.29,-267.66 244.6,-267.77 162,-241 146.14,-235.86 130.62,-225.89 118.25,-216.35"/>
<polygon fill="black" stroke="black" points="120.59,-213.75 110.62,-210.19 116.2,-219.2 120.59,-213.75"/>
</g>
<!-- error::invalid_argument -->
<g id="node4" class="node">
<title>error::invalid_argument</title>
<ellipse fill="none" stroke="black" cx="1626" cy="-117" rx="73.39" ry="18"/>
<text text-anchor="middle" x="1626" y="-113.3" font-family="Times,serif" font-size="14.00">invalid_argument</text>
</g>
<!-- rotate_consensus_key&#45;&gt;error::invalid_argument -->
<g id="edge3" class="edge">
<title>rotate_consensus_key&#45;&gt;error::invalid_argument</title>
<path fill="none" stroke="black" d="M1221.34,-264.08C1268.2,-261.3 1326.53,-254.99 1377,-241 1444.64,-222.26 1454.99,-200.45 1520,-174 1530.02,-169.92 1533.16,-170.51 1543,-166 1559.35,-158.51 1576.69,-148.79 1591.27,-140.06"/>
<polygon fill="black" stroke="black" points="1592.86,-143.19 1599.58,-135 1589.22,-137.21 1592.86,-143.19"/>
</g>
<!-- error::not_found -->
<g id="node5" class="node">
<title>error::not_found</title>
<ellipse fill="none" stroke="black" cx="1337" cy="-117" rx="46.59" ry="18"/>
<text text-anchor="middle" x="1337" y="-113.3" font-family="Times,serif" font-size="14.00">not_found</text>
</g>
<!-- rotate_consensus_key&#45;&gt;error::not_found -->
<g id="edge4" class="edge">
<title>rotate_consensus_key&#45;&gt;error::not_found</title>
<path fill="none" stroke="black" d="M1212.95,-258.72C1240.49,-254.85 1267.22,-249.15 1278,-241 1308.71,-217.76 1324.21,-174.43 1331.43,-145.89"/>
<polygon fill="black" stroke="black" points="1334.76,-147.04 1333.62,-136.51 1327.94,-145.45 1334.76,-147.04"/>
</g>
<!-- error::unauthenticated -->
<g id="node6" class="node">
<title>error::unauthenticated</title>
<ellipse fill="none" stroke="black" cx="1468" cy="-117" rx="66.09" ry="18"/>
<text text-anchor="middle" x="1468" y="-113.3" font-family="Times,serif" font-size="14.00">unauthenticated</text>
</g>
<!-- rotate_consensus_key&#45;&gt;error::unauthenticated -->
<g id="edge5" class="edge">
<title>rotate_consensus_key&#45;&gt;error::unauthenticated</title>
<path fill="none" stroke="black" d="M1220.81,-263.51C1251.54,-260.19 1285.73,-253.63 1315,-241 1367.75,-218.25 1417.37,-172.13 1445.11,-143.28"/>
<polygon fill="black" stroke="black" points="1447.64,-145.7 1451.95,-136.03 1442.55,-140.9 1447.64,-145.7"/>
</g>
<!-- event::emit_event -->
<g id="node7" class="node">
<title>event::emit_event</title>
<ellipse fill="none" stroke="black" cx="294" cy="-192" rx="50.09" ry="18"/>
<text text-anchor="middle" x="294" y="-188.3" font-family="Times,serif" font-size="14.00">emit_event</text>
</g>
<!-- rotate_consensus_key&#45;&gt;event::emit_event -->
<g id="edge6" class="edge">
<title>rotate_consensus_key&#45;&gt;event::emit_event</title>
<path fill="none" stroke="black" d="M1046.47,-265.02C939.13,-263.11 751.76,-257.5 592,-241 506.3,-232.15 407.77,-214.87 348.24,-203.64"/>
<polygon fill="black" stroke="black" points="349.19,-200.26 338.71,-201.83 347.88,-207.13 349.19,-200.26"/>
</g>
<!-- bls12381::proof_of_possession_from_bytes -->
<g id="node8" class="node">
<title>bls12381::proof_of_possession_from_bytes</title>
<ellipse fill="none" stroke="black" cx="856" cy="-192" rx="128.08" ry="18"/>
<text text-anchor="middle" x="856" y="-188.3" font-family="Times,serif" font-size="14.00">proof_of_possession_from_bytes</text>
</g>
<!-- rotate_consensus_key&#45;&gt;bls12381::proof_of_possession_from_bytes -->
<g id="edge7" class="edge">
<title>rotate_consensus_key&#45;&gt;bls12381::proof_of_possession_from_bytes</title>
<path fill="none" stroke="black" d="M1063.59,-255.81C1040.89,-251.92 1015.73,-246.95 993,-241 964.42,-233.51 933.28,-222.81 907.92,-213.42"/>
<polygon fill="black" stroke="black" points="909.44,-210.25 898.85,-210.01 906.98,-216.8 909.44,-210.25"/>
</g>
<!-- bls12381::public_key_from_bytes_with_pop -->
<g id="node9" class="node">
<title>bls12381::public_key_from_bytes_with_pop</title>
<ellipse fill="none" stroke="black" cx="1134" cy="-192" rx="131.88" ry="18"/>
<text text-anchor="middle" x="1134" y="-188.3" font-family="Times,serif" font-size="14.00">public_key_from_bytes_with_pop</text>
</g>
<!-- rotate_consensus_key&#45;&gt;bls12381::public_key_from_bytes_with_pop -->
<g id="edge8" class="edge">
<title>rotate_consensus_key&#45;&gt;bls12381::public_key_from_bytes_with_pop</title>
<path fill="none" stroke="black" d="M1134,-248.7C1134,-240.67 1134,-230.9 1134,-221.8"/>
<polygon fill="black" stroke="black" points="1137.5,-221.94 1134,-211.94 1130.5,-221.94 1137.5,-221.94"/>
</g>
<!-- assert_stake_pool_exists -->
<g id="node10" class="node">
<title>assert_stake_pool_exists</title>
<ellipse fill="none" stroke="black" cx="1626" cy="-192" rx="97.48" ry="18"/>
<text text-anchor="middle" x="1626" y="-188.3" font-family="Times,serif" font-size="14.00">assert_stake_pool_exists</text>
</g>
<!-- rotate_consensus_key&#45;&gt;assert_stake_pool_exists -->
<g id="edge9" class="edge">
<title>rotate_consensus_key&#45;&gt;assert_stake_pool_exists</title>
<path fill="none" stroke="black" d="M1222.16,-266.2C1294.32,-264.84 1398.68,-259.35 1488,-241 1518.79,-234.67 1552.11,-223.22 1578.29,-213.09"/>
<polygon fill="black" stroke="black" points="1579.26,-216.48 1587.28,-209.55 1576.69,-209.96 1579.26,-216.48"/>
</g>
<!-- vector::is_empty -->
<g id="node11" class="node">
<title>vector::is_empty</title>
<ellipse fill="none" stroke="black" cx="504" cy="-34" rx="43.59" ry="18"/>
<text text-anchor="middle" x="504" y="-30.3" font-family="Times,serif" font-size="14.00">is_empty</text>
</g>
<!-- option::is_some&#45;&gt;vector::is_empty -->
<g id="edge10" class="edge">
<title>option::is_some&#45;&gt;vector::is_empty</title>
<path fill="none" stroke="black" d="M510.3,-98.82C509.29,-88.58 507.98,-75.33 506.82,-63.55"/>
<polygon fill="black" stroke="black" points="510.34,-63.55 505.87,-53.94 503.37,-64.23 510.34,-63.55"/>
</g>
<!-- signer::borrow_address -->
<g id="node12" class="node">
<title>signer::borrow_address</title>
<ellipse fill="none" stroke="black" cx="83" cy="-117" rx="66.89" ry="18"/>
<text text-anchor="middle" x="83" y="-113.3" font-family="Times,serif" font-size="14.00">borrow_address</text>
</g>
<!-- signer::address_of&#45;&gt;signer::borrow_address -->
<g id="edge11" class="edge">
<title>signer::address_of&#45;&gt;signer::borrow_address</title>
<path fill="none" stroke="black" d="M89.87,-173.7C88.88,-165.67 87.67,-155.9 86.55,-146.8"/>
<polygon fill="black" stroke="black" points="90.03,-146.43 85.33,-136.93 83.08,-147.28 90.03,-146.43"/>
</g>
<!-- error::canonical -->
<g id="node13" class="node">
<title>error::canonical</title>
<ellipse fill="none" stroke="black" cx="1468" cy="-34" rx="44.39" ry="18"/>
<text text-anchor="middle" x="1468" y="-30.3" font-family="Times,serif" font-size="14.00">canonical</text>
</g>
<!-- error::invalid_argument&#45;&gt;error::canonical -->
<g id="edge12" class="edge">
<title>error::invalid_argument&#45;&gt;error::canonical</title>
<path fill="none" stroke="black" d="M1595.16,-100.19C1569.28,-86.92 1532.25,-67.94 1504.82,-53.87"/>
<polygon fill="black" stroke="black" points="1506.66,-50.89 1496.16,-49.44 1503.47,-57.12 1506.66,-50.89"/>
</g>
<!-- error::not_found&#45;&gt;error::canonical -->
<g id="edge13" class="edge">
<title>error::not_found&#45;&gt;error::canonical</title>
<path fill="none" stroke="black" d="M1361.03,-101.14C1381.75,-88.33 1411.87,-69.71 1434.87,-55.48"/>
<polygon fill="black" stroke="black" points="1436.61,-58.52 1443.28,-50.29 1432.93,-52.57 1436.61,-58.52"/>
</g>
<!-- error::unauthenticated&#45;&gt;error::canonical -->
<g id="edge14" class="edge">
<title>error::unauthenticated&#45;&gt;error::canonical</title>
<path fill="none" stroke="black" d="M1468,-98.82C1468,-88.69 1468,-75.6 1468,-63.92"/>
<polygon fill="black" stroke="black" points="1471.5,-63.95 1468,-53.95 1464.5,-63.95 1471.5,-63.95"/>
</g>
<!-- bcs::to_bytes -->
<g id="node14" class="node">
<title>bcs::to_bytes</title>
<ellipse fill="none" stroke="black" cx="408" cy="-117" rx="40.09" ry="18"/>
<text text-anchor="middle" x="408" y="-113.3" font-family="Times,serif" font-size="14.00">to_bytes</text>
</g>
<!-- event::emit_event&#45;&gt;bcs::to_bytes -->
<g id="edge15" class="edge">
<title>event::emit_event&#45;&gt;bcs::to_bytes</title>
<path fill="none" stroke="black" d="M329.85,-179.11C338.71,-175.48 347.96,-171.09 356,-166 366.59,-159.3 376.99,-150.32 385.68,-141.94"/>
<polygon fill="black" stroke="black" points="388.08,-144.48 392.67,-134.93 383.13,-139.54 388.08,-144.48"/>
</g>
<!-- event::write_to_event_store -->
<g id="node15" class="node">
<title>event::write_to_event_store</title>
<ellipse fill="none" stroke="black" cx="259" cy="-117" rx="85.29" ry="18"/>
<text text-anchor="middle" x="259" y="-113.3" font-family="Times,serif" font-size="14.00">write_to_event_store</text>
</g>
<!-- event::emit_event&#45;&gt;event::write_to_event_store -->
<g id="edge16" class="edge">
<title>event::emit_event&#45;&gt;event::write_to_event_store</title>
<path fill="none" stroke="black" d="M285.88,-174.07C281.83,-165.62 276.83,-155.19 272.25,-145.63"/>
<polygon fill="black" stroke="black" points="275.45,-144.22 267.97,-136.71 269.14,-147.24 275.45,-144.22"/>
</g>
<!-- option::none -->
<g id="node16" class="node">
<title>option::none</title>
<ellipse fill="none" stroke="black" cx="676" cy="-117" rx="27.9" ry="18"/>
<text text-anchor="middle" x="676" y="-113.3" font-family="Times,serif" font-size="14.00">none</text>
</g>
<!-- bls12381::public_key_from_bytes_with_pop&#45;&gt;option::none -->
<g id="edge17" class="edge">
<title>bls12381::public_key_from_bytes_with_pop&#45;&gt;option::none</title>
<path fill="none" stroke="black" d="M1042.34,-178.72C1025.94,-176.87 1008.98,-175.19 993,-174 977.65,-172.86 729.85,-172.73 716,-166 706.08,-161.18 697.72,-152.61 691.26,-144.03"/>
<polygon fill="black" stroke="black" points="694.17,-142.08 685.64,-135.8 688.38,-146.03 694.17,-142.08"/>
</g>
<!-- option::some -->
<g id="node17" class="node">
<title>option::some</title>
<ellipse fill="none" stroke="black" cx="600" cy="-117" rx="29.8" ry="18"/>
<text text-anchor="middle" x="600" y="-113.3" font-family="Times,serif" font-size="14.00">some</text>
</g>
<!-- bls12381::public_key_from_bytes_with_pop&#45;&gt;option::some -->
<g id="edge18" class="edge">
<title>bls12381::public_key_from_bytes_with_pop&#45;&gt;option::some</title>
<path fill="none" stroke="black" d="M1042.73,-178.68C1026.21,-176.82 1009.11,-175.15 993,-174 973.38,-172.6 656.67,-174.65 639,-166 629.19,-161.2 621.02,-152.63 614.73,-144.05"/>
<polygon fill="black" stroke="black" points="617.73,-142.23 609.29,-135.82 611.89,-146.09 617.73,-142.23"/>
</g>
<!-- bls12381::verify_proof_of_possession_internal -->
<g id="node18" class="node">
<title>bls12381::verify_proof_of_possession_internal</title>
<ellipse fill="none" stroke="black" cx="1126" cy="-117" rx="139.98" ry="18"/>
<text text-anchor="middle" x="1126" y="-113.3" font-family="Times,serif" font-size="14.00">verify_proof_of_possession_internal</text>
</g>
<!-- bls12381::public_key_from_bytes_with_pop&#45;&gt;bls12381::verify_proof_of_possession_internal -->
<g id="edge19" class="edge">
<title>bls12381::public_key_from_bytes_with_pop&#45;&gt;bls12381::verify_proof_of_possession_internal</title>
<path fill="none" stroke="black" d="M1132.1,-173.7C1131.22,-165.67 1130.15,-155.9 1129.16,-146.8"/>
<polygon fill="black" stroke="black" points="1132.64,-146.49 1128.07,-136.93 1125.69,-147.26 1132.64,-146.49"/>
</g>
<!-- assert_stake_pool_exists&#45;&gt;error::invalid_argument -->
<g id="edge20" class="edge">
<title>assert_stake_pool_exists&#45;&gt;error::invalid_argument</title>
<path fill="none" stroke="black" d="M1626,-173.7C1626,-165.67 1626,-155.9 1626,-146.8"/>
<polygon fill="black" stroke="black" points="1629.5,-146.94 1626,-136.94 1622.5,-146.94 1629.5,-146.94"/>
</g>
<!-- stake_pool_exists -->
<g id="node19" class="node">
<title>stake_pool_exists</title>
<ellipse fill="none" stroke="black" cx="1791" cy="-117" rx="73.39" ry="18"/>
<text text-anchor="middle" x="1791" y="-113.3" font-family="Times,serif" font-size="14.00">stake_pool_exists</text>
</g>
<!-- assert_stake_pool_exists&#45;&gt;stake_pool_exists -->
<g id="edge21" class="edge">
<title>assert_stake_pool_exists&#45;&gt;stake_pool_exists</title>
<path fill="none" stroke="black" d="M1681.6,-176.87C1691.55,-173.71 1701.7,-170.08 1711,-166 1726.99,-158.99 1743.71,-149.37 1757.7,-140.58"/>
<polygon fill="black" stroke="black" points="1759.56,-143.54 1766.08,-135.19 1755.77,-137.65 1759.56,-143.54"/>
</g>
<!-- vector::singleton -->
<g id="node20" class="node">
<title>vector::singleton</title>
<ellipse fill="none" stroke="black" cx="608" cy="-34" rx="42.79" ry="18"/>
<text text-anchor="middle" x="608" y="-30.3" font-family="Times,serif" font-size="14.00">singleton</text>
</g>
<!-- option::some&#45;&gt;vector::singleton -->
<g id="edge22" class="edge">
<title>option::some&#45;&gt;vector::singleton</title>
<path fill="none" stroke="black" d="M601.7,-98.82C602.71,-88.58 604.02,-75.33 605.18,-63.55"/>
<polygon fill="black" stroke="black" points="608.63,-64.23 606.13,-53.94 601.66,-63.55 608.63,-64.23"/>
</g>
</g>
</svg>
