<?xml version="1.0" encoding="UTF-8" standalone="no"?>
<!DOCTYPE svg PUBLIC "-//W3C//DTD SVG 1.1//EN"
 "http://www.w3.org/Graphics/SVG/1.1/DTD/svg11.dtd">
<!-- Generated by graphviz version 7.0.4 (20221203.1631)
 -->
<!-- Title: G Pages: 1 -->
<svg width="1470pt" height="384pt"
 viewBox="0.00 0.00 1470.00 384.00" xmlns="http://www.w3.org/2000/svg" xmlns:xlink="http://www.w3.org/1999/xlink">
<g id="graph0" class="graph" transform="scale(1 1) rotate(0) translate(4 380)">
<title>G</title>
<polygon fill="white" stroke="none" points="-4,4 -4,-380 1466,-380 1466,4 -4,4"/>
<g id="clust1" class="cluster">
<title>cluster_event</title>
<polygon fill="none" stroke="black" points="8,-174 8,-332 194,-332 194,-174 8,-174"/>
<text text-anchor="middle" x="101" y="-316.8" font-family="Times,serif" font-size="14.00">event</text>
</g>
<g id="clust2" class="cluster">
<title>cluster_coin</title>
<polygon fill="none" stroke="black" points="488,-257 488,-332 920,-332 920,-257 488,-257"/>
<text text-anchor="middle" x="704" y="-316.8" font-family="Times,serif" font-size="14.00">coin</text>
</g>
<g id="clust3" class="cluster">
<title>cluster_timestamp</title>
<polygon fill="none" stroke="black" points="306,-174 306,-332 480,-332 480,-174 306,-174"/>
<text text-anchor="middle" x="393" y="-316.8" font-family="Times,serif" font-size="14.00">timestamp</text>
</g>
<g id="clust4" class="cluster">
<title>cluster_math64</title>
<polygon fill="none" stroke="black" points="928,-257 928,-332 998,-332 998,-257 928,-257"/>
<text text-anchor="middle" x="963" y="-316.8" font-family="Times,serif" font-size="14.00">math64</text>
</g>
<g id="clust5" class="cluster">
<title>cluster_bcs</title>
<polygon fill="none" stroke="black" points="202,-174 202,-249 298,-249 298,-174 202,-174"/>
<text text-anchor="middle" x="250" y="-233.8" font-family="Times,serif" font-size="14.00">bcs</text>
</g>
<g id="clust6" class="cluster">
<title>cluster_error</title>
<polygon fill="none" stroke="black" points="828,-91 828,-249 990,-249 990,-91 828,-91"/>
<text text-anchor="middle" x="909" y="-233.8" font-family="Times,serif" font-size="14.00">error</text>
</g>
<g id="clust7" class="cluster">
<title>cluster_option</title>
<polygon fill="none" stroke="black" points="1206,-91 1206,-166 1454,-166 1454,-91 1206,-91"/>
<text text-anchor="middle" x="1330" y="-150.8" font-family="Times,serif" font-size="14.00">option</text>
</g>
<g id="clust8" class="cluster">
<title>cluster_vector</title>
<polygon fill="none" stroke="black" points="1224,-8 1224,-83 1431,-83 1431,-8 1224,-8"/>
<text text-anchor="middle" x="1327.5" y="-67.8" font-family="Times,serif" font-size="14.00">vector</text>
</g>
<!-- withdraw_with_cap -->
<g id="node1" class="node">
<title>withdraw_with_cap</title>
<ellipse fill="none" stroke="black" cx="748" cy="-358" rx="80.69" ry="18"/>
<text text-anchor="middle" x="748" y="-354.3" font-family="Times,serif" font-size="14.00">withdraw_with_cap</text>
</g>
<!-- event::emit_event -->
<g id="node2" class="node">
<title>event::emit_event</title>
<ellipse fill="none" stroke="black" cx="136" cy="-283" rx="50.09" ry="18"/>
<text text-anchor="middle" x="136" y="-279.3" font-family="Times,serif" font-size="14.00">emit_event</text>
</g>
<!-- withdraw_with_cap&#45;&gt;event::emit_event -->
<g id="edge1" class="edge">
<title>withdraw_with_cap&#45;&gt;event::emit_event</title>
<path fill="none" stroke="black" d="M666.82,-357.92C576.96,-357.66 428.14,-353.49 302,-332 260.28,-324.89 214.14,-311.05 181.12,-300.04"/>
<polygon fill="black" stroke="black" points="182.47,-296.81 171.88,-296.92 180.23,-303.44 182.47,-296.81"/>
</g>
<!-- coin::extract -->
<g id="node3" class="node">
<title>coin::extract</title>
<ellipse fill="none" stroke="black" cx="878" cy="-283" rx="34.39" ry="18"/>
<text text-anchor="middle" x="878" y="-279.3" font-family="Times,serif" font-size="14.00">extract</text>
</g>
<!-- withdraw_with_cap&#45;&gt;coin::extract -->
<g id="edge2" class="edge">
<title>withdraw_with_cap&#45;&gt;coin::extract</title>
<path fill="none" stroke="black" d="M806.11,-345.23C816.17,-341.84 826.21,-337.51 835,-332 844.37,-326.13 852.91,-317.64 859.87,-309.42"/>
<polygon fill="black" stroke="black" points="862.59,-311.62 866.07,-301.61 857.11,-307.27 862.59,-311.62"/>
</g>
<!-- coin::value -->
<g id="node4" class="node">
<title>coin::value</title>
<ellipse fill="none" stroke="black" cx="796" cy="-283" rx="29.8" ry="18"/>
<text text-anchor="middle" x="796" y="-279.3" font-family="Times,serif" font-size="14.00">value</text>
</g>
<!-- withdraw_with_cap&#45;&gt;coin::value -->
<g id="edge3" class="edge">
<title>withdraw_with_cap&#45;&gt;coin::value</title>
<path fill="none" stroke="black" d="M759.38,-339.7C765.28,-330.72 772.61,-319.57 779.16,-309.61"/>
<polygon fill="black" stroke="black" points="781.96,-311.72 784.53,-301.44 776.11,-307.87 781.96,-311.72"/>
</g>
<!-- coin::extract_all -->
<g id="node5" class="node">
<title>coin::extract_all</title>
<ellipse fill="none" stroke="black" cx="700" cy="-283" rx="48.19" ry="18"/>
<text text-anchor="middle" x="700" y="-279.3" font-family="Times,serif" font-size="14.00">extract_all</text>
</g>
<!-- withdraw_with_cap&#45;&gt;coin::extract_all -->
<g id="edge4" class="edge">
<title>withdraw_with_cap&#45;&gt;coin::extract_all</title>
<path fill="none" stroke="black" d="M736.62,-339.7C730.84,-330.91 723.7,-320.04 717.26,-310.25"/>
<polygon fill="black" stroke="black" points="720.38,-308.62 711.96,-302.19 714.53,-312.47 720.38,-308.62"/>
</g>
<!-- coin::merge -->
<g id="node6" class="node">
<title>coin::merge</title>
<ellipse fill="none" stroke="black" cx="601" cy="-283" rx="33.29" ry="18"/>
<text text-anchor="middle" x="601" y="-279.3" font-family="Times,serif" font-size="14.00">merge</text>
</g>
<!-- withdraw_with_cap&#45;&gt;coin::merge -->
<g id="edge5" class="edge">
<title>withdraw_with_cap&#45;&gt;coin::merge</title>
<path fill="none" stroke="black" d="M681.15,-347.62C667.91,-344 654.55,-338.97 643,-332 633.49,-326.26 624.99,-317.66 618.16,-309.31"/>
<polygon fill="black" stroke="black" points="620.96,-307.21 612.12,-301.37 615.39,-311.44 620.96,-307.21"/>
</g>
<!-- coin::zero -->
<g id="node7" class="node">
<title>coin::zero</title>
<ellipse fill="none" stroke="black" cx="523" cy="-283" rx="27" ry="18"/>
<text text-anchor="middle" x="523" y="-279.3" font-family="Times,serif" font-size="14.00">zero</text>
</g>
<!-- withdraw_with_cap&#45;&gt;coin::zero -->
<g id="edge6" class="edge">
<title>withdraw_with_cap&#45;&gt;coin::zero</title>
<path fill="none" stroke="black" d="M670.21,-352.77C626.76,-349.24 577.71,-342.95 559,-332 550.08,-326.78 542.67,-318.4 536.94,-310.09"/>
<polygon fill="black" stroke="black" points="540.05,-308.48 531.79,-301.85 534.12,-312.19 540.05,-308.48"/>
</g>
<!-- timestamp::now_seconds -->
<g id="node8" class="node">
<title>timestamp::now_seconds</title>
<ellipse fill="none" stroke="black" cx="403" cy="-283" rx="57.69" ry="18"/>
<text text-anchor="middle" x="403" y="-279.3" font-family="Times,serif" font-size="14.00">now_seconds</text>
</g>
<!-- withdraw_with_cap&#45;&gt;timestamp::now_seconds -->
<g id="edge7" class="edge">
<title>withdraw_with_cap&#45;&gt;timestamp::now_seconds</title>
<path fill="none" stroke="black" d="M669.48,-353.35C604.39,-349.63 517.33,-342.85 484,-332 466.19,-326.2 448.1,-315.98 433.55,-306.46"/>
<polygon fill="black" stroke="black" points="435.58,-303.6 425.34,-300.89 431.65,-309.4 435.58,-303.6"/>
</g>
<!-- math64::min -->
<g id="node9" class="node">
<title>math64::min</title>
<ellipse fill="none" stroke="black" cx="963" cy="-283" rx="27" ry="18"/>
<text text-anchor="middle" x="963" y="-279.3" font-family="Times,serif" font-size="14.00">min</text>
</g>
<!-- withdraw_with_cap&#45;&gt;math64::min -->
<g id="edge8" class="edge">
<title>withdraw_with_cap&#45;&gt;math64::min</title>
<path fill="none" stroke="black" d="M824.04,-351.7C863.49,-347.88 906.94,-341.65 924,-332 933.51,-326.62 941.62,-317.94 947.94,-309.43"/>
<polygon fill="black" stroke="black" points="950.72,-311.57 953.44,-301.33 944.93,-307.63 950.72,-311.57"/>
</g>
<!-- assert_stake_pool_exists -->
<g id="node10" class="node">
<title>assert_stake_pool_exists</title>
<ellipse fill="none" stroke="black" cx="1105" cy="-283" rx="97.48" ry="18"/>
<text text-anchor="middle" x="1105" y="-279.3" font-family="Times,serif" font-size="14.00">assert_stake_pool_exists</text>
</g>
<!-- withdraw_with_cap&#45;&gt;assert_stake_pool_exists -->
<g id="edge9" class="edge">
<title>withdraw_with_cap&#45;&gt;assert_stake_pool_exists</title>
<path fill="none" stroke="black" d="M828.48,-355.99C879.07,-353.67 945.26,-347.53 1002,-332 1024.16,-325.94 1047.47,-315.46 1066.3,-305.84"/>
<polygon fill="black" stroke="black" points="1067.69,-309.06 1074.92,-301.32 1064.44,-302.86 1067.69,-309.06"/>
</g>
<!-- get_validator_state -->
<g id="node11" class="node">
<title>get_validator_state</title>
<ellipse fill="none" stroke="black" cx="1298" cy="-283" rx="77.19" ry="18"/>
<text text-anchor="middle" x="1298" y="-279.3" font-family="Times,serif" font-size="14.00">get_validator_state</text>
</g>
<!-- withdraw_with_cap&#45;&gt;get_validator_state -->
<g id="edge10" class="edge">
<title>withdraw_with_cap&#45;&gt;get_validator_state</title>
<path fill="none" stroke="black" d="M828.72,-356.97C941.86,-356.18 1141.55,-351.9 1211,-332 1230.04,-326.54 1249.51,-316.32 1265.19,-306.71"/>
<polygon fill="black" stroke="black" points="1267.06,-309.67 1273.62,-301.35 1263.31,-303.76 1267.06,-309.67"/>
</g>
<!-- bcs::to_bytes -->
<g id="node12" class="node">
<title>bcs::to_bytes</title>
<ellipse fill="none" stroke="black" cx="250" cy="-200" rx="40.09" ry="18"/>
<text text-anchor="middle" x="250" y="-196.3" font-family="Times,serif" font-size="14.00">to_bytes</text>
</g>
<!-- event::emit_event&#45;&gt;bcs::to_bytes -->
<g id="edge11" class="edge">
<title>event::emit_event&#45;&gt;bcs::to_bytes</title>
<path fill="none" stroke="black" d="M165.62,-268.2C176.19,-262.77 187.96,-256.13 198,-249 208.07,-241.85 218.25,-232.92 226.9,-224.7"/>
<polygon fill="black" stroke="black" points="229.18,-227.37 233.89,-217.88 224.29,-222.36 229.18,-227.37"/>
</g>
<!-- event::write_to_event_store -->
<g id="node13" class="node">
<title>event::write_to_event_store</title>
<ellipse fill="none" stroke="black" cx="101" cy="-200" rx="85.29" ry="18"/>
<text text-anchor="middle" x="101" y="-196.3" font-family="Times,serif" font-size="14.00">write_to_event_store</text>
</g>
<!-- event::emit_event&#45;&gt;event::write_to_event_store -->
<g id="edge12" class="edge">
<title>event::emit_event&#45;&gt;event::write_to_event_store</title>
<path fill="none" stroke="black" d="M128.58,-264.82C124.03,-254.3 118.11,-240.59 112.91,-228.57"/>
<polygon fill="black" stroke="black" points="116.19,-227.33 109.01,-219.54 109.77,-230.11 116.19,-227.33"/>
</g>
<!-- error::invalid_argument -->
<g id="node14" class="node">
<title>error::invalid_argument</title>
<ellipse fill="none" stroke="black" cx="909" cy="-200" rx="73.39" ry="18"/>
<text text-anchor="middle" x="909" y="-196.3" font-family="Times,serif" font-size="14.00">invalid_argument</text>
</g>
<!-- coin::extract&#45;&gt;error::invalid_argument -->
<g id="edge13" class="edge">
<title>coin::extract&#45;&gt;error::invalid_argument</title>
<path fill="none" stroke="black" d="M884.42,-265.22C888.44,-254.72 893.72,-240.93 898.35,-228.82"/>
<polygon fill="black" stroke="black" points="901.52,-230.32 901.83,-219.73 894.99,-227.82 901.52,-230.32"/>
</g>
<!-- timestamp::now_microseconds -->
<g id="node15" class="node">
<title>timestamp::now_microseconds</title>
<ellipse fill="none" stroke="black" cx="393" cy="-200" rx="79.09" ry="18"/>
<text text-anchor="middle" x="393" y="-196.3" font-family="Times,serif" font-size="14.00">now_microseconds</text>
</g>
<!-- timestamp::now_seconds&#45;&gt;timestamp::now_microseconds -->
<g id="edge14" class="edge">
<title>timestamp::now_seconds&#45;&gt;timestamp::now_microseconds</title>
<path fill="none" stroke="black" d="M400.88,-264.82C399.62,-254.58 397.98,-241.33 396.52,-229.55"/>
<polygon fill="black" stroke="black" points="400.04,-229.43 395.34,-219.93 393.09,-230.29 400.04,-229.43"/>
</g>
<!-- assert_stake_pool_exists&#45;&gt;error::invalid_argument -->
<g id="edge15" class="edge">
<title>assert_stake_pool_exists&#45;&gt;error::invalid_argument</title>
<path fill="none" stroke="black" d="M1065.33,-266.18C1051.87,-260.78 1036.76,-254.67 1023,-249 1000.59,-239.78 975.79,-229.36 955.06,-220.59"/>
<polygon fill="black" stroke="black" points="956.59,-217.44 946.02,-216.76 953.86,-223.88 956.59,-217.44"/>
</g>
<!-- stake_pool_exists -->
<g id="node16" class="node">
<title>stake_pool_exists</title>
<ellipse fill="none" stroke="black" cx="1105" cy="-200" rx="73.39" ry="18"/>
<text text-anchor="middle" x="1105" y="-196.3" font-family="Times,serif" font-size="14.00">stake_pool_exists</text>
</g>
<!-- assert_stake_pool_exists&#45;&gt;stake_pool_exists -->
<g id="edge16" class="edge">
<title>assert_stake_pool_exists&#45;&gt;stake_pool_exists</title>
<path fill="none" stroke="black" d="M1105,-264.82C1105,-254.69 1105,-241.6 1105,-229.92"/>
<polygon fill="black" stroke="black" points="1108.5,-229.95 1105,-219.95 1101.5,-229.95 1108.5,-229.95"/>
</g>
<!-- option::is_some -->
<g id="node17" class="node">
<title>option::is_some</title>
<ellipse fill="none" stroke="black" cx="1254" cy="-117" rx="40.09" ry="18"/>
<text text-anchor="middle" x="1254" y="-113.3" font-family="Times,serif" font-size="14.00">is_some</text>
</g>
<!-- get_validator_state&#45;&gt;option::is_some -->
<g id="edge17" class="edge">
<title>get_validator_state&#45;&gt;option::is_some</title>
<path fill="none" stroke="black" d="M1282.72,-265.21C1278.99,-260.3 1275.39,-254.7 1273,-249 1259.08,-215.72 1255.09,-174.01 1254.08,-146.71"/>
<polygon fill="black" stroke="black" points="1257.58,-146.69 1253.84,-136.78 1250.58,-146.86 1257.58,-146.69"/>
</g>
<!-- find_validator -->
<g id="node18" class="node">
<title>find_validator</title>
<ellipse fill="none" stroke="black" cx="1342" cy="-200" rx="60.39" ry="18"/>
<text text-anchor="middle" x="1342" y="-196.3" font-family="Times,serif" font-size="14.00">find_validator</text>
</g>
<!-- get_validator_state&#45;&gt;find_validator -->
<g id="edge18" class="edge">
<title>get_validator_state&#45;&gt;find_validator</title>
<path fill="none" stroke="black" d="M1307.33,-264.82C1313.11,-254.19 1320.65,-240.31 1327.22,-228.2"/>
<polygon fill="black" stroke="black" points="1330.26,-229.94 1331.96,-219.48 1324.11,-226.6 1330.26,-229.94"/>
</g>
<!-- error::canonical -->
<g id="node19" class="node">
<title>error::canonical</title>
<ellipse fill="none" stroke="black" cx="909" cy="-117" rx="44.39" ry="18"/>
<text text-anchor="middle" x="909" y="-113.3" font-family="Times,serif" font-size="14.00">canonical</text>
</g>
<!-- error::invalid_argument&#45;&gt;error::canonical -->
<g id="edge19" class="edge">
<title>error::invalid_argument&#45;&gt;error::canonical</title>
<path fill="none" stroke="black" d="M909,-181.82C909,-171.69 909,-158.6 909,-146.92"/>
<polygon fill="black" stroke="black" points="912.5,-146.95 909,-136.95 905.5,-146.95 912.5,-146.95"/>
</g>
<!-- vector::is_empty -->
<g id="node20" class="node">
<title>vector::is_empty</title>
<ellipse fill="none" stroke="black" cx="1276" cy="-34" rx="43.59" ry="18"/>
<text text-anchor="middle" x="1276" y="-30.3" font-family="Times,serif" font-size="14.00">is_empty</text>
</g>
<!-- option::is_some&#45;&gt;vector::is_empty -->
<g id="edge20" class="edge">
<title>option::is_some&#45;&gt;vector::is_empty</title>
<path fill="none" stroke="black" d="M1258.67,-98.82C1261.49,-88.41 1265.17,-74.87 1268.41,-62.94"/>
<polygon fill="black" stroke="black" points="1271.7,-64.18 1270.94,-53.61 1264.95,-62.35 1271.7,-64.18"/>
</g>
<!-- option::none -->
<g id="node21" class="node">
<title>option::none</title>
<ellipse fill="none" stroke="black" cx="1340" cy="-117" rx="27.9" ry="18"/>
<text text-anchor="middle" x="1340" y="-113.3" font-family="Times,serif" font-size="14.00">none</text>
</g>
<!-- find_validator&#45;&gt;option::none -->
<g id="edge21" class="edge">
<title>find_validator&#45;&gt;option::none</title>
<path fill="none" stroke="black" d="M1341.58,-181.82C1341.33,-171.69 1341,-158.6 1340.71,-146.92"/>
<polygon fill="black" stroke="black" points="1344.21,-146.86 1340.47,-136.95 1337.22,-147.03 1344.21,-146.86"/>
</g>
<!-- option::some -->
<g id="node22" class="node">
<title>option::some</title>
<ellipse fill="none" stroke="black" cx="1416" cy="-117" rx="29.8" ry="18"/>
<text text-anchor="middle" x="1416" y="-113.3" font-family="Times,serif" font-size="14.00">some</text>
</g>
<!-- find_validator&#45;&gt;option::some -->
<g id="edge22" class="edge">
<title>find_validator&#45;&gt;option::some</title>
<path fill="none" stroke="black" d="M1360.25,-182.65C1365.78,-177.47 1371.77,-171.63 1377,-166 1383.86,-158.62 1390.93,-150.2 1397.13,-142.49"/>
<polygon fill="black" stroke="black" points="1399.8,-144.77 1403.26,-134.75 1394.31,-140.42 1399.8,-144.77"/>
</g>
<!-- vector::singleton -->
<g id="node23" class="node">
<title>vector::singleton</title>
<ellipse fill="none" stroke="black" cx="1380" cy="-34" rx="42.79" ry="18"/>
<text text-anchor="middle" x="1380" y="-30.3" font-family="Times,serif" font-size="14.00">singleton</text>
</g>
<!-- option::some&#45;&gt;vector::singleton -->
<g id="edge23" class="edge">
<title>option::some&#45;&gt;vector::singleton</title>
<path fill="none" stroke="black" d="M1408.54,-99.22C1403.79,-88.54 1397.54,-74.46 1392.09,-62.21"/>
<polygon fill="black" stroke="black" points="1395.45,-61.14 1388.19,-53.42 1389.05,-63.98 1395.45,-61.14"/>
</g>
</g>
</svg>
