<?xml version="1.0" encoding="UTF-8" standalone="no"?>
<!DOCTYPE svg PUBLIC "-//W3C//DTD SVG 1.1//EN"
 "http://www.w3.org/Graphics/SVG/1.1/DTD/svg11.dtd">
<!-- Generated by graphviz version 7.0.4 (20221203.1631)
 -->
<!-- Title: G Pages: 1 -->
<svg width="2185pt" height="604pt"
 viewBox="0.00 0.00 2185.00 604.00" xmlns="http://www.w3.org/2000/svg" xmlns:xlink="http://www.w3.org/1999/xlink">
<g id="graph0" class="graph" transform="scale(1 1) rotate(0) translate(4 600)">
<title>G</title>
<polygon fill="white" stroke="none" points="-4,4 -4,-600 2181,-600 2181,4 -4,4"/>
<g id="clust1" class="cluster">
<title>cluster_aptos_governance</title>
<polygon fill="none" stroke="black" points="8,-64 8,-283 254,-283 254,-64 8,-64"/>
<text text-anchor="middle" x="131" y="-267.8" font-family="Times,serif" font-size="14.00">aptos_governance</text>
</g>
<g id="clust2" class="cluster">
<title>cluster_staking_contract</title>
<polygon fill="none" stroke="black" points="294,-64 294,-366 953,-366 953,-64 294,-64"/>
<text text-anchor="middle" x="623.5" y="-350.8" font-family="Times,serif" font-size="14.00">staking_contract</text>
</g>
<g id="clust3" class="cluster">
<title>cluster_vesting</title>
<polygon fill="none" stroke="black" points="961,-291 961,-513 1662,-513 1662,-291 961,-291"/>
<text text-anchor="middle" x="1311.5" y="-497.8" font-family="Times,serif" font-size="14.00">vesting</text>
</g>
<g id="clust4" class="cluster">
<title>cluster_staking_proxy</title>
<polygon fill="none" stroke="black" points="1670,-438 1670,-588 2169,-588 2169,-438 1670,-438"/>
<text text-anchor="middle" x="1919.5" y="-572.8" font-family="Times,serif" font-size="14.00">staking_proxy</text>
</g>
<!-- get_stake -->
<g id="node1" class="node">
<title>get_stake</title>
<ellipse fill="none" stroke="black" cx="518" cy="-18" rx="44.39" ry="18"/>
<text text-anchor="middle" x="518" y="-14.3" font-family="Times,serif" font-size="14.00">get_stake</text>
</g>
<!-- aptos_governance::get_voting_power -->
<g id="node2" class="node">
<title>aptos_governance::get_voting_power</title>
<ellipse fill="none" stroke="black" cx="171" cy="-90" rx="74.99" ry="18"/>
<text text-anchor="middle" x="171" y="-86.3" font-family="Times,serif" font-size="14.00">get_voting_power</text>
</g>
<!-- aptos_governance::get_voting_power&#45;&gt;get_stake -->
<g id="edge1" class="edge">
<title>aptos_governance::get_voting_power&#45;&gt;get_stake</title>
<path fill="none" stroke="black" d="M216.51,-75.26C230.39,-71.33 245.76,-67.23 260,-64 330.49,-48 412.93,-34.51 465.29,-26.6"/>
<polygon fill="black" stroke="black" points="465.77,-30.06 475.14,-25.12 464.73,-23.14 465.77,-30.06"/>
</g>
<!-- staking_contract::add_distribution -->
<g id="node3" class="node">
<title>staking_contract::add_distribution</title>
<ellipse fill="none" stroke="black" cx="843" cy="-90" rx="68.49" ry="18"/>
<text text-anchor="middle" x="843" y="-86.3" font-family="Times,serif" font-size="14.00">add_distribution</text>
</g>
<!-- staking_contract::add_distribution&#45;&gt;get_stake -->
<g id="edge2" class="edge">
<title>staking_contract::add_distribution&#45;&gt;get_stake</title>
<path fill="none" stroke="black" d="M802.8,-75.02C790.74,-71.12 777.42,-67.11 765,-64 698.7,-47.41 620.97,-34.26 570.67,-26.56"/>
<polygon fill="black" stroke="black" points="571.34,-23.12 560.93,-25.09 570.29,-30.05 571.34,-23.12"/>
</g>
<!-- staking_contract::distribute_internal -->
<g id="node4" class="node">
<title>staking_contract::distribute_internal</title>
<ellipse fill="none" stroke="black" cx="602" cy="-162" rx="75.29" ry="18"/>
<text text-anchor="middle" x="602" y="-158.3" font-family="Times,serif" font-size="14.00">distribute_internal</text>
</g>
<!-- staking_contract::distribute_internal&#45;&gt;get_stake -->
<g id="edge3" class="edge">
<title>staking_contract::distribute_internal&#45;&gt;get_stake</title>
<path fill="none" stroke="black" d="M547.72,-149.21C508.66,-139.5 460.86,-124.66 449,-108 437.66,-92.07 439.69,-81.19 449,-64 455.27,-52.43 465.95,-43.36 477.06,-36.49"/>
<polygon fill="black" stroke="black" points="478.5,-39.69 485.51,-31.75 475.08,-33.59 478.5,-39.69"/>
</g>
<!-- staking_contract::get_staking_contract_amounts_internal -->
<g id="node5" class="node">
<title>staking_contract::get_staking_contract_amounts_internal</title>
<ellipse fill="none" stroke="black" cx="607" cy="-90" rx="149.47" ry="18"/>
<text text-anchor="middle" x="607" y="-86.3" font-family="Times,serif" font-size="14.00">get_staking_contract_amounts_internal</text>
</g>
<!-- staking_contract::get_staking_contract_amounts_internal&#45;&gt;get_stake -->
<g id="edge4" class="edge">
<title>staking_contract::get_staking_contract_amounts_internal&#45;&gt;get_stake</title>
<path fill="none" stroke="black" d="M585.46,-72.05C573.78,-62.87 559.21,-51.41 546.59,-41.49"/>
<polygon fill="black" stroke="black" points="549.04,-38.96 539.01,-35.53 544.71,-44.46 549.04,-38.96"/>
</g>
<!-- staking_contract::unlock_stake -->
<g id="node6" class="node">
<title>staking_contract::unlock_stake</title>
<ellipse fill="none" stroke="black" cx="888" cy="-234" rx="57.39" ry="18"/>
<text text-anchor="middle" x="888" y="-230.3" font-family="Times,serif" font-size="14.00">unlock_stake</text>
</g>
<!-- staking_contract::unlock_stake&#45;&gt;get_stake -->
<g id="edge5" class="edge">
<title>staking_contract::unlock_stake&#45;&gt;get_stake</title>
<path fill="none" stroke="black" d="M910.82,-217.15C922.2,-207.81 934.83,-194.91 941,-180 961.05,-131.59 959.64,-98.26 920,-64 894.27,-41.76 677.25,-27.41 573.2,-21.74"/>
<polygon fill="black" stroke="black" points="573.68,-18.26 563.51,-21.22 573.31,-25.25 573.68,-18.26"/>
</g>
<!-- staking_contract::unlock_stake&#45;&gt;staking_contract::add_distribution -->
<g id="edge10" class="edge">
<title>staking_contract::unlock_stake&#45;&gt;staking_contract::add_distribution</title>
<path fill="none" stroke="black" d="M907.38,-217C917.4,-207.45 928.63,-194.38 934,-180 939.6,-165.01 941.97,-157.87 934,-144 925.26,-128.79 910.28,-117.53 894.97,-109.4"/>
<polygon fill="black" stroke="black" points="896.81,-106.41 886.28,-105.17 893.74,-112.7 896.81,-106.41"/>
</g>
<!-- staking_contract::unlock_stake&#45;&gt;staking_contract::distribute_internal -->
<g id="edge14" class="edge">
<title>staking_contract::unlock_stake&#45;&gt;staking_contract::distribute_internal</title>
<path fill="none" stroke="black" d="M844.71,-221.75C837.15,-219.81 829.35,-217.83 822,-216 769.22,-202.85 709.18,-188.42 665.18,-177.94"/>
<polygon fill="black" stroke="black" points="666.07,-174.56 655.54,-175.65 664.45,-181.37 666.07,-174.56"/>
</g>
<!-- staking_contract::request_commission_internal -->
<g id="node10" class="node">
<title>staking_contract::request_commission_internal</title>
<ellipse fill="none" stroke="black" cx="810" cy="-162" rx="115.08" ry="18"/>
<text text-anchor="middle" x="810" y="-158.3" font-family="Times,serif" font-size="14.00">request_commission_internal</text>
</g>
<!-- staking_contract::unlock_stake&#45;&gt;staking_contract::request_commission_internal -->
<g id="edge22" class="edge">
<title>staking_contract::unlock_stake&#45;&gt;staking_contract::request_commission_internal</title>
<path fill="none" stroke="black" d="M869.91,-216.76C860.25,-208.1 848.16,-197.25 837.38,-187.57"/>
<polygon fill="black" stroke="black" points="839.99,-185.21 830.21,-181.13 835.31,-190.42 839.99,-185.21"/>
</g>
<!-- vesting::terminate_vesting_contract -->
<g id="node7" class="node">
<title>vesting::terminate_vesting_contract</title>
<ellipse fill="none" stroke="black" cx="1076" cy="-464" rx="106.68" ry="18"/>
<text text-anchor="middle" x="1076" y="-460.3" font-family="Times,serif" font-size="14.00">terminate_vesting_contract</text>
</g>
<!-- vesting::terminate_vesting_contract&#45;&gt;get_stake -->
<g id="edge6" class="edge">
<title>vesting::terminate_vesting_contract&#45;&gt;get_stake</title>
<path fill="none" stroke="black" d="M968.99,-463.5C778.62,-462.21 391.54,-449.11 290,-366 272.6,-351.76 274,-340.49 274,-318 274,-318 274,-318 274,-161 274,-117.31 259.59,-95.38 290,-64 313.48,-39.77 403.57,-28 463.23,-22.74"/>
<polygon fill="black" stroke="black" points="463.18,-26.26 472.85,-21.93 462.59,-19.28 463.18,-26.26"/>
</g>
<!-- vesting::unlock_stake -->
<g id="node16" class="node">
<title>vesting::unlock_stake</title>
<ellipse fill="none" stroke="black" cx="1132" cy="-392" rx="57.39" ry="18"/>
<text text-anchor="middle" x="1132" y="-388.3" font-family="Times,serif" font-size="14.00">unlock_stake</text>
</g>
<!-- vesting::terminate_vesting_contract&#45;&gt;vesting::unlock_stake -->
<g id="edge29" class="edge">
<title>vesting::terminate_vesting_contract&#45;&gt;vesting::unlock_stake</title>
<path fill="none" stroke="black" d="M1089.84,-445.7C1096.38,-437.52 1104.32,-427.6 1111.53,-418.58"/>
<polygon fill="black" stroke="black" points="1114.24,-420.8 1117.76,-410.8 1108.78,-416.43 1114.24,-420.8"/>
</g>
<!-- vesting::distribute -->
<g id="node24" class="node">
<title>vesting::distribute</title>
<ellipse fill="none" stroke="black" cx="1013" cy="-392" rx="44.39" ry="18"/>
<text text-anchor="middle" x="1013" y="-388.3" font-family="Times,serif" font-size="14.00">distribute</text>
</g>
<!-- vesting::terminate_vesting_contract&#45;&gt;vesting::distribute -->
<g id="edge37" class="edge">
<title>vesting::terminate_vesting_contract&#45;&gt;vesting::distribute</title>
<path fill="none" stroke="black" d="M1060.43,-445.7C1052.81,-437.23 1043.5,-426.89 1035.15,-417.61"/>
<polygon fill="black" stroke="black" points="1037.83,-415.36 1028.54,-410.27 1032.63,-420.04 1037.83,-415.36"/>
</g>
<!-- aptos_governance::create_proposal_v2 -->
<g id="node8" class="node">
<title>aptos_governance::create_proposal_v2</title>
<ellipse fill="none" stroke="black" cx="95" cy="-162" rx="79.09" ry="18"/>
<text text-anchor="middle" x="95" y="-158.3" font-family="Times,serif" font-size="14.00">create_proposal_v2</text>
</g>
<!-- aptos_governance::create_proposal_v2&#45;&gt;aptos_governance::get_voting_power -->
<g id="edge7" class="edge">
<title>aptos_governance::create_proposal_v2&#45;&gt;aptos_governance::get_voting_power</title>
<path fill="none" stroke="black" d="M113.4,-144.05C122.73,-135.46 134.24,-124.86 144.51,-115.4"/>
<polygon fill="black" stroke="black" points="146.67,-118.16 151.66,-108.81 141.93,-113.01 146.67,-118.16"/>
</g>
<!-- aptos_governance::vote -->
<g id="node9" class="node">
<title>aptos_governance::vote</title>
<ellipse fill="none" stroke="black" cx="219" cy="-162" rx="27" ry="18"/>
<text text-anchor="middle" x="219" y="-158.3" font-family="Times,serif" font-size="14.00">vote</text>
</g>
<!-- aptos_governance::vote&#45;&gt;aptos_governance::get_voting_power -->
<g id="edge8" class="edge">
<title>aptos_governance::vote&#45;&gt;aptos_governance::get_voting_power</title>
<path fill="none" stroke="black" d="M208.11,-145.12C202.44,-136.85 195.37,-126.54 188.92,-117.14"/>
<polygon fill="black" stroke="black" points="191.92,-115.31 183.37,-109.05 186.14,-119.27 191.92,-115.31"/>
</g>
<!-- staking_contract::request_commission_internal&#45;&gt;staking_contract::add_distribution -->
<g id="edge9" class="edge">
<title>staking_contract::request_commission_internal&#45;&gt;staking_contract::add_distribution</title>
<path fill="none" stroke="black" d="M818.16,-143.7C821.75,-136.07 826.07,-126.92 830.08,-118.4"/>
<polygon fill="black" stroke="black" points="833.19,-120.01 834.29,-109.47 826.86,-117.03 833.19,-120.01"/>
</g>
<!-- staking_contract::request_commission_internal&#45;&gt;staking_contract::get_staking_contract_amounts_internal -->
<g id="edge15" class="edge">
<title>staking_contract::request_commission_internal&#45;&gt;staking_contract::get_staking_contract_amounts_internal</title>
<path fill="none" stroke="black" d="M763.94,-145.12C734.74,-135.05 696.72,-121.94 665.41,-111.14"/>
<polygon fill="black" stroke="black" points="666.67,-107.87 656.08,-107.92 664.39,-114.49 666.67,-107.87"/>
</g>
<!-- staking_contract::distribute -->
<g id="node11" class="node">
<title>staking_contract::distribute</title>
<ellipse fill="none" stroke="black" cx="583" cy="-234" rx="44.39" ry="18"/>
<text text-anchor="middle" x="583" y="-230.3" font-family="Times,serif" font-size="14.00">distribute</text>
</g>
<!-- staking_contract::distribute&#45;&gt;staking_contract::distribute_internal -->
<g id="edge11" class="edge">
<title>staking_contract::distribute&#45;&gt;staking_contract::distribute_internal</title>
<path fill="none" stroke="black" d="M587.7,-215.7C589.72,-208.24 592.14,-199.32 594.41,-190.97"/>
<polygon fill="black" stroke="black" points="597.72,-192.13 596.96,-181.57 590.96,-190.3 597.72,-192.13"/>
</g>
<!-- staking_contract::request_commission -->
<g id="node12" class="node">
<title>staking_contract::request_commission</title>
<ellipse fill="none" stroke="black" cx="729" cy="-234" rx="83.69" ry="18"/>
<text text-anchor="middle" x="729" y="-230.3" font-family="Times,serif" font-size="14.00">request_commission</text>
</g>
<!-- staking_contract::request_commission&#45;&gt;staking_contract::distribute_internal -->
<g id="edge12" class="edge">
<title>staking_contract::request_commission&#45;&gt;staking_contract::distribute_internal</title>
<path fill="none" stroke="black" d="M699.54,-216.76C682.11,-207.15 659.81,-194.87 640.94,-184.46"/>
<polygon fill="black" stroke="black" points="642.63,-181.4 632.18,-179.64 639.25,-187.53 642.63,-181.4"/>
</g>
<!-- staking_contract::request_commission&#45;&gt;staking_contract::request_commission_internal -->
<g id="edge20" class="edge">
<title>staking_contract::request_commission&#45;&gt;staking_contract::request_commission_internal</title>
<path fill="none" stroke="black" d="M748.61,-216.05C758.58,-207.43 770.89,-196.8 781.85,-187.32"/>
<polygon fill="black" stroke="black" points="783.87,-190.21 789.15,-181.02 779.29,-184.91 783.87,-190.21"/>
</g>
<!-- staking_contract::switch_operator -->
<g id="node13" class="node">
<title>staking_contract::switch_operator</title>
<ellipse fill="none" stroke="black" cx="453" cy="-234" rx="67.69" ry="18"/>
<text text-anchor="middle" x="453" y="-230.3" font-family="Times,serif" font-size="14.00">switch_operator</text>
</g>
<!-- staking_contract::switch_operator&#45;&gt;staking_contract::distribute_internal -->
<g id="edge13" class="edge">
<title>staking_contract::switch_operator&#45;&gt;staking_contract::distribute_internal</title>
<path fill="none" stroke="black" d="M485.33,-217.81C506.78,-207.73 535.19,-194.39 558.6,-183.39"/>
<polygon fill="black" stroke="black" points="560.03,-186.59 567.59,-179.17 557.05,-180.25 560.03,-186.59"/>
</g>
<!-- staking_contract::switch_operator&#45;&gt;staking_contract::request_commission_internal -->
<g id="edge21" class="edge">
<title>staking_contract::switch_operator&#45;&gt;staking_contract::request_commission_internal</title>
<path fill="none" stroke="black" d="M503.48,-221.63C512.31,-219.7 521.42,-217.76 530,-216 595.52,-202.57 669.92,-188.54 725.56,-178.3"/>
<polygon fill="black" stroke="black" points="726.09,-181.76 735.29,-176.51 724.82,-174.87 726.09,-181.76"/>
</g>
<!-- staking_contract::staking_contract_amounts -->
<g id="node14" class="node">
<title>staking_contract::staking_contract_amounts</title>
<ellipse fill="none" stroke="black" cx="405" cy="-162" rx="103.18" ry="18"/>
<text text-anchor="middle" x="405" y="-158.3" font-family="Times,serif" font-size="14.00">staking_contract_amounts</text>
</g>
<!-- staking_contract::staking_contract_amounts&#45;&gt;staking_contract::get_staking_contract_amounts_internal -->
<g id="edge16" class="edge">
<title>staking_contract::staking_contract_amounts&#45;&gt;staking_contract::get_staking_contract_amounts_internal</title>
<path fill="none" stroke="black" d="M450.08,-145.38C479.21,-135.29 517.39,-122.05 548.8,-111.17"/>
<polygon fill="black" stroke="black" points="549.86,-114.5 558.17,-107.92 547.57,-107.89 549.86,-114.5"/>
</g>
<!-- staking_contract::unlock_rewards -->
<g id="node15" class="node">
<title>staking_contract::unlock_rewards</title>
<ellipse fill="none" stroke="black" cx="878" cy="-317" rx="66.89" ry="18"/>
<text text-anchor="middle" x="878" y="-313.3" font-family="Times,serif" font-size="14.00">unlock_rewards</text>
</g>
<!-- staking_contract::unlock_rewards&#45;&gt;staking_contract::unlock_stake -->
<g id="edge17" class="edge">
<title>staking_contract::unlock_rewards&#45;&gt;staking_contract::unlock_stake</title>
<path fill="none" stroke="black" d="M880.12,-298.82C881.38,-288.58 883.02,-275.33 884.48,-263.55"/>
<polygon fill="black" stroke="black" points="887.91,-264.29 885.66,-253.93 880.96,-263.43 887.91,-264.29"/>
</g>
<!-- staking_contract::unlock_rewards&#45;&gt;staking_contract::staking_contract_amounts -->
<g id="edge27" class="edge">
<title>staking_contract::unlock_rewards&#45;&gt;staking_contract::staking_contract_amounts</title>
<path fill="none" stroke="black" d="M841.45,-301.53C829.12,-297.31 815.15,-293.23 802,-291 790.33,-289.02 384.29,-291.45 376,-283 351.77,-258.31 369.62,-217.06 386.12,-189.94"/>
<polygon fill="black" stroke="black" points="389.02,-191.89 391.47,-181.58 383.13,-188.12 389.02,-191.89"/>
</g>
<!-- vesting::unlock_stake&#45;&gt;staking_contract::unlock_stake -->
<g id="edge18" class="edge">
<title>vesting::unlock_stake&#45;&gt;staking_contract::unlock_stake</title>
<path fill="none" stroke="black" d="M1133.3,-373.63C1133.96,-351.42 1131.53,-313.2 1110,-291 1088.21,-268.53 1009.2,-252.51 951.63,-243.51"/>
<polygon fill="black" stroke="black" points="952.33,-240.08 941.92,-242.03 951.28,-247 952.33,-240.08"/>
</g>
<!-- aptos_governance::create_proposal -->
<g id="node17" class="node">
<title>aptos_governance::create_proposal</title>
<ellipse fill="none" stroke="black" cx="95" cy="-234" rx="66.09" ry="18"/>
<text text-anchor="middle" x="95" y="-230.3" font-family="Times,serif" font-size="14.00">create_proposal</text>
</g>
<!-- aptos_governance::create_proposal&#45;&gt;aptos_governance::create_proposal_v2 -->
<g id="edge19" class="edge">
<title>aptos_governance::create_proposal&#45;&gt;aptos_governance::create_proposal_v2</title>
<path fill="none" stroke="black" d="M95,-215.7C95,-208.41 95,-199.73 95,-191.54"/>
<polygon fill="black" stroke="black" points="98.5,-191.62 95,-181.62 91.5,-191.62 98.5,-191.62"/>
</g>
<!-- vesting::withdraw_stake -->
<g id="node18" class="node">
<title>vesting::withdraw_stake</title>
<ellipse fill="none" stroke="black" cx="1035" cy="-317" rx="66.09" ry="18"/>
<text text-anchor="middle" x="1035" y="-313.3" font-family="Times,serif" font-size="14.00">withdraw_stake</text>
</g>
<!-- vesting::withdraw_stake&#45;&gt;staking_contract::distribute -->
<g id="edge23" class="edge">
<title>vesting::withdraw_stake&#45;&gt;staking_contract::distribute</title>
<path fill="none" stroke="black" d="M997.85,-301.71C985.09,-297.45 970.6,-293.3 957,-291 921.82,-285.05 669.13,-296.25 636,-283 623.77,-278.11 612.58,-269.03 603.66,-260.07"/>
<polygon fill="black" stroke="black" points="606.24,-257.71 596.87,-252.77 601.12,-262.48 606.24,-257.71"/>
</g>
<!-- staking_contract::switch_operator_with_same_commission -->
<g id="node19" class="node">
<title>staking_contract::switch_operator_with_same_commission</title>
<ellipse fill="none" stroke="black" cx="635" cy="-317" rx="157.87" ry="18"/>
<text text-anchor="middle" x="635" y="-313.3" font-family="Times,serif" font-size="14.00">switch_operator_with_same_commission</text>
</g>
<!-- staking_contract::switch_operator_with_same_commission&#45;&gt;staking_contract::switch_operator -->
<g id="edge24" class="edge">
<title>staking_contract::switch_operator_with_same_commission&#45;&gt;staking_contract::switch_operator</title>
<path fill="none" stroke="black" d="M574.87,-299.97C559.93,-295.21 544.15,-289.51 530,-283 514.57,-275.9 498.47,-266.27 485.02,-257.49"/>
<polygon fill="black" stroke="black" points="487.25,-254.78 476.99,-252.14 483.37,-260.6 487.25,-254.78"/>
</g>
<!-- vesting::update_operator -->
<g id="node20" class="node">
<title>vesting::update_operator</title>
<ellipse fill="none" stroke="black" cx="1427" cy="-392" rx="67.69" ry="18"/>
<text text-anchor="middle" x="1427" y="-388.3" font-family="Times,serif" font-size="14.00">update_operator</text>
</g>
<!-- vesting::update_operator&#45;&gt;staking_contract::switch_operator -->
<g id="edge25" class="edge">
<title>vesting::update_operator&#45;&gt;staking_contract::switch_operator</title>
<path fill="none" stroke="black" d="M1379.2,-378.83C1369.59,-376.84 1359.52,-375.08 1350,-374 1337.83,-372.62 477.1,-374.2 468,-366 439.91,-340.72 441.81,-293.56 446.7,-263.26"/>
<polygon fill="black" stroke="black" points="450.1,-264.14 448.47,-253.67 443.22,-262.87 450.1,-264.14"/>
</g>
<!-- staking_proxy::set_staking_contract_operator -->
<g id="node21" class="node">
<title>staking_proxy::set_staking_contract_operator</title>
<ellipse fill="none" stroke="black" cx="2045" cy="-464" rx="116.18" ry="18"/>
<text text-anchor="middle" x="2045" y="-460.3" font-family="Times,serif" font-size="14.00">set_staking_contract_operator</text>
</g>
<!-- staking_proxy::set_staking_contract_operator&#45;&gt;staking_contract::switch_operator -->
<g id="edge26" class="edge">
<title>staking_proxy::set_staking_contract_operator&#45;&gt;staking_contract::switch_operator</title>
<path fill="none" stroke="black" d="M2018.34,-446.09C1958.31,-409.13 1806.79,-321.97 1666,-291 1604.36,-277.44 590.62,-300.58 530,-283 512.67,-277.97 495.43,-267.83 481.67,-258.16"/>
<polygon fill="black" stroke="black" points="484.09,-255.6 473.96,-252.51 479.95,-261.24 484.09,-255.6"/>
</g>
<!-- vesting::unlock_rewards -->
<g id="node22" class="node">
<title>vesting::unlock_rewards</title>
<ellipse fill="none" stroke="black" cx="1274" cy="-392" rx="66.89" ry="18"/>
<text text-anchor="middle" x="1274" y="-388.3" font-family="Times,serif" font-size="14.00">unlock_rewards</text>
</g>
<!-- vesting::unlock_rewards&#45;&gt;staking_contract::unlock_rewards -->
<g id="edge28" class="edge">
<title>vesting::unlock_rewards&#45;&gt;staking_contract::unlock_rewards</title>
<path fill="none" stroke="black" d="M1226.4,-378.93C1217.04,-376.96 1207.25,-375.18 1198,-374 1144.84,-367.23 1008.35,-381.3 957,-366 939.38,-360.75 921.71,-350.59 907.56,-340.96"/>
<polygon fill="black" stroke="black" points="909.79,-338.25 899.61,-335.32 905.74,-343.96 909.79,-338.25"/>
</g>
<!-- vesting::vest -->
<g id="node23" class="node">
<title>vesting::vest</title>
<ellipse fill="none" stroke="black" cx="1228" cy="-464" rx="27" ry="18"/>
<text text-anchor="middle" x="1228" y="-460.3" font-family="Times,serif" font-size="14.00">vest</text>
</g>
<!-- vesting::vest&#45;&gt;vesting::unlock_stake -->
<g id="edge30" class="edge">
<title>vesting::vest&#45;&gt;vesting::unlock_stake</title>
<path fill="none" stroke="black" d="M1210.39,-450.16C1197.09,-440.46 1178.49,-426.9 1162.75,-415.42"/>
<polygon fill="black" stroke="black" points="1165.24,-412.91 1155.1,-409.84 1161.12,-418.56 1165.24,-412.91"/>
</g>
<!-- vesting::vest&#45;&gt;vesting::unlock_rewards -->
<g id="edge36" class="edge">
<title>vesting::vest&#45;&gt;vesting::unlock_rewards</title>
<path fill="none" stroke="black" d="M1238.44,-447.12C1243.87,-438.85 1250.65,-428.54 1256.82,-419.14"/>
<polygon fill="black" stroke="black" points="1259.56,-421.34 1262.13,-411.06 1253.71,-417.5 1259.56,-421.34"/>
</g>
<!-- vesting::distribute&#45;&gt;vesting::withdraw_stake -->
<g id="edge31" class="edge">
<title>vesting::distribute&#45;&gt;vesting::withdraw_stake</title>
<path fill="none" stroke="black" d="M1018.21,-373.7C1020.69,-365.49 1023.71,-355.46 1026.5,-346.19"/>
<polygon fill="black" stroke="black" points="1029.78,-347.46 1029.31,-336.88 1023.07,-345.44 1029.78,-347.46"/>
</g>
<!-- vesting::admin_withdraw -->
<g id="node25" class="node">
<title>vesting::admin_withdraw</title>
<ellipse fill="none" stroke="black" cx="1583" cy="-392" rx="70.69" ry="18"/>
<text text-anchor="middle" x="1583" y="-388.3" font-family="Times,serif" font-size="14.00">admin_withdraw</text>
</g>
<!-- vesting::admin_withdraw&#45;&gt;vesting::withdraw_stake -->
<g id="edge32" class="edge">
<title>vesting::admin_withdraw&#45;&gt;vesting::withdraw_stake</title>
<path fill="none" stroke="black" d="M1531.71,-379.24C1522.51,-377.34 1512.99,-375.5 1504,-374 1364.82,-350.77 1200.85,-333.47 1108.3,-324.62"/>
<polygon fill="black" stroke="black" points="1108.89,-321.16 1098.6,-323.7 1108.23,-328.13 1108.89,-321.16"/>
</g>
<!-- vesting::update_operator_with_same_commission -->
<g id="node26" class="node">
<title>vesting::update_operator_with_same_commission</title>
<ellipse fill="none" stroke="black" cx="1432" cy="-464" rx="158.67" ry="18"/>
<text text-anchor="middle" x="1432" y="-460.3" font-family="Times,serif" font-size="14.00">update_operator_with_same_commission</text>
</g>
<!-- vesting::update_operator_with_same_commission&#45;&gt;vesting::update_operator -->
<g id="edge33" class="edge">
<title>vesting::update_operator_with_same_commission&#45;&gt;vesting::update_operator</title>
<path fill="none" stroke="black" d="M1430.76,-445.7C1430.24,-438.41 1429.62,-429.73 1429.04,-421.54"/>
<polygon fill="black" stroke="black" points="1432.53,-421.34 1428.33,-411.61 1425.55,-421.84 1432.53,-421.34"/>
</g>
<!-- staking_proxy::set_vesting_contract_operator -->
<g id="node27" class="node">
<title>staking_proxy::set_vesting_contract_operator</title>
<ellipse fill="none" stroke="black" cx="1794" cy="-464" rx="116.18" ry="18"/>
<text text-anchor="middle" x="1794" y="-460.3" font-family="Times,serif" font-size="14.00">set_vesting_contract_operator</text>
</g>
<!-- staking_proxy::set_vesting_contract_operator&#45;&gt;vesting::update_operator -->
<g id="edge34" class="edge">
<title>staking_proxy::set_vesting_contract_operator&#45;&gt;vesting::update_operator</title>
<path fill="none" stroke="black" d="M1724.63,-449.15C1705.64,-445.44 1685.04,-441.49 1666,-438 1593.7,-424.73 1575.11,-424.25 1503,-410 1498.09,-409.03 1493.02,-407.99 1487.92,-406.91"/>
<polygon fill="black" stroke="black" points="1488.79,-403.52 1478.28,-404.83 1487.32,-410.36 1488.79,-403.52"/>
</g>
<!-- staking_proxy::set_operator -->
<g id="node28" class="node">
<title>staking_proxy::set_operator</title>
<ellipse fill="none" stroke="black" cx="1919" cy="-539" rx="53.89" ry="18"/>
<text text-anchor="middle" x="1919" y="-535.3" font-family="Times,serif" font-size="14.00">set_operator</text>
</g>
<!-- staking_proxy::set_operator&#45;&gt;staking_proxy::set_staking_contract_operator -->
<g id="edge35" class="edge">
<title>staking_proxy::set_operator&#45;&gt;staking_proxy::set_staking_contract_operator</title>
<path fill="none" stroke="black" d="M1945.11,-522.87C1962.66,-512.7 1986.12,-499.11 2005.89,-487.66"/>
<polygon fill="black" stroke="black" points="2007.64,-490.69 2014.53,-482.65 2004.13,-484.64 2007.64,-490.69"/>
</g>
<!-- staking_proxy::set_operator&#45;&gt;staking_proxy::set_vesting_contract_operator -->
<g id="edge38" class="edge">
<title>staking_proxy::set_operator&#45;&gt;staking_proxy::set_vesting_contract_operator</title>
<path fill="none" stroke="black" d="M1893.1,-522.87C1875.68,-512.7 1852.41,-499.11 1832.8,-487.66"/>
<polygon fill="black" stroke="black" points="1834.63,-484.68 1824.23,-482.66 1831.1,-490.72 1834.63,-484.68"/>
</g>
</g>
</svg>
