<?xml version="1.0" encoding="UTF-8" standalone="no"?>
<!DOCTYPE svg PUBLIC "-//W3C//DTD SVG 1.1//EN"
 "http://www.w3.org/Graphics/SVG/1.1/DTD/svg11.dtd">
<!-- Generated by graphviz version 7.0.4 (20221203.1631)
 -->
<!-- Title: G Pages: 1 -->
<svg width="1290pt" height="681pt"
 viewBox="0.00 0.00 1290.00 681.00" xmlns="http://www.w3.org/2000/svg" xmlns:xlink="http://www.w3.org/1999/xlink">
<g id="graph0" class="graph" transform="scale(1 1) rotate(0) translate(4 677)">
<title>G</title>
<polygon fill="white" stroke="none" points="-4,4 -4,-677 1286,-677 1286,4 -4,4"/>
<g id="clust1" class="cluster">
<title>cluster_staking_contract</title>
<polygon fill="none" stroke="black" points="659,-208 659,-427 995,-427 995,-208 659,-208"/>
<text text-anchor="middle" x="827" y="-411.8" font-family="Times,serif" font-size="14.00">staking_contract</text>
</g>
<g id="clust2" class="cluster">
<title>cluster_staking_proxy</title>
<polygon fill="none" stroke="black" points="631,-518 631,-665 1274,-665 1274,-518 631,-518"/>
<text text-anchor="middle" x="952.5" y="-649.8" font-family="Times,serif" font-size="14.00">staking_proxy</text>
</g>
<g id="clust3" class="cluster">
<title>cluster_vesting</title>
<polygon fill="none" stroke="black" points="617,-435 617,-510 953,-510 953,-435 617,-435"/>
<text text-anchor="middle" x="785" y="-494.8" font-family="Times,serif" font-size="14.00">vesting</text>
</g>
<g id="clust4" class="cluster">
<title>cluster_genesis</title>
<polygon fill="none" stroke="black" points="8,-435 8,-665 609,-665 609,-435 8,-435"/>
<text text-anchor="middle" x="308.5" y="-649.8" font-family="Times,serif" font-size="14.00">genesis</text>
</g>
<!-- set_delegated_voter_with_cap -->
<g id="node1" class="node">
<title>set_delegated_voter_with_cap</title>
<ellipse fill="none" stroke="black" cx="1023" cy="-18" rx="117.78" ry="18"/>
<text text-anchor="middle" x="1023" y="-14.3" font-family="Times,serif" font-size="14.00">set_delegated_voter_with_cap</text>
</g>
<!-- set_delegated_voter -->
<g id="node2" class="node">
<title>set_delegated_voter</title>
<ellipse fill="none" stroke="black" cx="1078" cy="-90" rx="81.49" ry="18"/>
<text text-anchor="middle" x="1078" y="-86.3" font-family="Times,serif" font-size="14.00">set_delegated_voter</text>
</g>
<!-- set_delegated_voter&#45;&gt;set_delegated_voter_with_cap -->
<g id="edge1" class="edge">
<title>set_delegated_voter&#45;&gt;set_delegated_voter_with_cap</title>
<path fill="none" stroke="black" d="M1064.69,-72.05C1058.36,-64.01 1050.66,-54.2 1043.61,-45.23"/>
<polygon fill="black" stroke="black" points="1046.44,-43.17 1037.51,-37.47 1040.93,-47.49 1046.44,-43.17"/>
</g>
<!-- staking_contract::update_voter -->
<g id="node3" class="node">
<title>staking_contract::update_voter</title>
<ellipse fill="none" stroke="black" cx="930" cy="-378" rx="56.59" ry="18"/>
<text text-anchor="middle" x="930" y="-374.3" font-family="Times,serif" font-size="14.00">update_voter</text>
</g>
<!-- staking_contract::update_voter&#45;&gt;set_delegated_voter_with_cap -->
<g id="edge2" class="edge">
<title>staking_contract::update_voter&#45;&gt;set_delegated_voter_with_cap</title>
<path fill="none" stroke="black" d="M937.89,-359.93C949.29,-333.67 969,-281.53 969,-235 969,-235 969,-235 969,-161 969,-120.55 972.36,-109.3 988,-72 991.82,-62.89 997.25,-53.67 1002.7,-45.52"/>
<polygon fill="black" stroke="black" points="1005.49,-47.64 1008.38,-37.45 999.76,-43.62 1005.49,-47.64"/>
</g>
<!-- initialize_stake_owner -->
<g id="node4" class="node">
<title>initialize_stake_owner</title>
<ellipse fill="none" stroke="black" cx="804" cy="-162" rx="90.18" ry="18"/>
<text text-anchor="middle" x="804" y="-158.3" font-family="Times,serif" font-size="14.00">initialize_stake_owner</text>
</g>
<!-- initialize_stake_owner&#45;&gt;set_delegated_voter -->
<g id="edge3" class="edge">
<title>initialize_stake_owner&#45;&gt;set_delegated_voter</title>
<path fill="none" stroke="black" d="M858.13,-147.17C903.33,-135.62 967.79,-119.16 1015.24,-107.03"/>
<polygon fill="black" stroke="black" points="1016.01,-110.45 1024.83,-104.58 1014.28,-103.67 1016.01,-110.45"/>
</g>
<!-- staking_proxy::set_stake_pool_voter -->
<g id="node5" class="node">
<title>staking_proxy::set_stake_pool_voter</title>
<ellipse fill="none" stroke="black" cx="1181" cy="-544" rx="85.29" ry="18"/>
<text text-anchor="middle" x="1181" y="-540.3" font-family="Times,serif" font-size="14.00">set_stake_pool_voter</text>
</g>
<!-- staking_proxy::set_stake_pool_voter&#45;&gt;set_delegated_voter -->
<g id="edge4" class="edge">
<title>staking_proxy::set_stake_pool_voter&#45;&gt;set_delegated_voter</title>
<path fill="none" stroke="black" d="M1171.7,-525.85C1156.75,-496.62 1129,-434.86 1129,-379 1129,-379 1129,-379 1129,-233 1129,-190.96 1108.95,-145.82 1094,-117.99"/>
<polygon fill="black" stroke="black" points="1097.22,-116.58 1089.3,-109.54 1091.1,-119.98 1097.22,-116.58"/>
</g>
<!-- vesting::update_voter -->
<g id="node6" class="node">
<title>vesting::update_voter</title>
<ellipse fill="none" stroke="black" cx="888" cy="-461" rx="56.59" ry="18"/>
<text text-anchor="middle" x="888" y="-457.3" font-family="Times,serif" font-size="14.00">update_voter</text>
</g>
<!-- vesting::update_voter&#45;&gt;staking_contract::update_voter -->
<g id="edge5" class="edge">
<title>vesting::update_voter&#45;&gt;staking_contract::update_voter</title>
<path fill="none" stroke="black" d="M896.91,-442.82C902.42,-432.19 909.62,-418.31 915.89,-406.2"/>
<polygon fill="black" stroke="black" points="918.91,-407.99 920.41,-397.5 912.7,-404.76 918.91,-407.99"/>
</g>
<!-- staking_proxy::set_staking_contract_voter -->
<g id="node7" class="node">
<title>staking_proxy::set_staking_contract_voter</title>
<ellipse fill="none" stroke="black" cx="973" cy="-544" rx="105.08" ry="18"/>
<text text-anchor="middle" x="973" y="-540.3" font-family="Times,serif" font-size="14.00">set_staking_contract_voter</text>
</g>
<!-- staking_proxy::set_staking_contract_voter&#45;&gt;staking_contract::update_voter -->
<g id="edge6" class="edge">
<title>staking_proxy::set_staking_contract_voter&#45;&gt;staking_contract::update_voter</title>
<path fill="none" stroke="black" d="M972.06,-525.81C970.51,-504.2 966.58,-466.16 957,-435 954.02,-425.32 949.6,-415.21 945.19,-406.29"/>
<polygon fill="black" stroke="black" points="948.32,-404.72 940.62,-397.45 942.11,-407.94 948.32,-404.72"/>
</g>
<!-- staking_contract::create_stake_pool -->
<g id="node8" class="node">
<title>staking_contract::create_stake_pool</title>
<ellipse fill="none" stroke="black" cx="804" cy="-234" rx="74.19" ry="18"/>
<text text-anchor="middle" x="804" y="-230.3" font-family="Times,serif" font-size="14.00">create_stake_pool</text>
</g>
<!-- staking_contract::create_stake_pool&#45;&gt;initialize_stake_owner -->
<g id="edge7" class="edge">
<title>staking_contract::create_stake_pool&#45;&gt;initialize_stake_owner</title>
<path fill="none" stroke="black" d="M804,-215.7C804,-208.41 804,-199.73 804,-191.54"/>
<polygon fill="black" stroke="black" points="807.5,-191.62 804,-181.62 800.5,-191.62 807.5,-191.62"/>
</g>
<!-- genesis::create_initialize_validator -->
<g id="node9" class="node">
<title>genesis::create_initialize_validator</title>
<ellipse fill="none" stroke="black" cx="498" cy="-461" rx="102.88" ry="18"/>
<text text-anchor="middle" x="498" y="-457.3" font-family="Times,serif" font-size="14.00">create_initialize_validator</text>
</g>
<!-- genesis::create_initialize_validator&#45;&gt;initialize_stake_owner -->
<g id="edge8" class="edge">
<title>genesis::create_initialize_validator&#45;&gt;initialize_stake_owner</title>
<path fill="none" stroke="black" d="M503.86,-442.64C520.16,-396.99 570.49,-272.71 655,-208 674.45,-193.11 698.8,-183.12 722.15,-176.43"/>
<polygon fill="black" stroke="black" points="722.93,-179.85 731.69,-173.89 721.12,-173.08 722.93,-179.85"/>
</g>
<!-- staking_contract::create_staking_contract -->
<g id="node14" class="node">
<title>staking_contract::create_staking_contract</title>
<ellipse fill="none" stroke="black" cx="761" cy="-378" rx="94.48" ry="18"/>
<text text-anchor="middle" x="761" y="-374.3" font-family="Times,serif" font-size="14.00">create_staking_contract</text>
</g>
<!-- genesis::create_initialize_validator&#45;&gt;staking_contract::create_staking_contract -->
<g id="edge19" class="edge">
<title>genesis::create_initialize_validator&#45;&gt;staking_contract::create_staking_contract</title>
<path fill="none" stroke="black" d="M547.47,-444.76C591.27,-431.27 655.3,-411.55 701.81,-397.23"/>
<polygon fill="black" stroke="black" points="702.67,-400.63 711.2,-394.34 700.61,-393.94 702.67,-400.63"/>
</g>
<!-- staking_proxy::set_voter -->
<g id="node10" class="node">
<title>staking_proxy::set_voter</title>
<ellipse fill="none" stroke="black" cx="973" cy="-616" rx="42.79" ry="18"/>
<text text-anchor="middle" x="973" y="-612.3" font-family="Times,serif" font-size="14.00">set_voter</text>
</g>
<!-- staking_proxy::set_voter&#45;&gt;staking_proxy::set_stake_pool_voter -->
<g id="edge9" class="edge">
<title>staking_proxy::set_voter&#45;&gt;staking_proxy::set_stake_pool_voter</title>
<path fill="none" stroke="black" d="M1005.5,-604.06C1037.88,-593.17 1088.17,-576.24 1126.63,-563.3"/>
<polygon fill="black" stroke="black" points="1127.35,-566.75 1135.71,-560.24 1125.11,-560.11 1127.35,-566.75"/>
</g>
<!-- staking_proxy::set_voter&#45;&gt;staking_proxy::set_staking_contract_voter -->
<g id="edge11" class="edge">
<title>staking_proxy::set_voter&#45;&gt;staking_proxy::set_staking_contract_voter</title>
<path fill="none" stroke="black" d="M973,-597.7C973,-590.41 973,-581.73 973,-573.54"/>
<polygon fill="black" stroke="black" points="976.5,-573.62 973,-563.62 969.5,-573.62 976.5,-573.62"/>
</g>
<!-- staking_proxy::set_vesting_contract_voter -->
<g id="node11" class="node">
<title>staking_proxy::set_vesting_contract_voter</title>
<ellipse fill="none" stroke="black" cx="744" cy="-544" rx="105.08" ry="18"/>
<text text-anchor="middle" x="744" y="-540.3" font-family="Times,serif" font-size="14.00">set_vesting_contract_voter</text>
</g>
<!-- staking_proxy::set_voter&#45;&gt;staking_proxy::set_vesting_contract_voter -->
<g id="edge14" class="edge">
<title>staking_proxy::set_voter&#45;&gt;staking_proxy::set_vesting_contract_voter</title>
<path fill="none" stroke="black" d="M939.21,-604.67C903.96,-593.9 847.94,-576.77 804.94,-563.63"/>
<polygon fill="black" stroke="black" points="806.06,-560.31 795.47,-560.73 804.01,-567 806.06,-560.31"/>
</g>
<!-- staking_proxy::set_vesting_contract_voter&#45;&gt;vesting::update_voter -->
<g id="edge10" class="edge">
<title>staking_proxy::set_vesting_contract_voter&#45;&gt;vesting::update_voter</title>
<path fill="none" stroke="black" d="M786.54,-527.07C798.29,-522.12 810.86,-516.3 822,-510 834.82,-502.76 848.1,-493.48 859.36,-485.02"/>
<polygon fill="black" stroke="black" points="861.29,-487.96 867.09,-479.09 857.03,-482.4 861.29,-487.96"/>
</g>
<!-- staking_contract::create_staking_contract_with_coins -->
<g id="node12" class="node">
<title>staking_contract::create_staking_contract_with_coins</title>
<ellipse fill="none" stroke="black" cx="804" cy="-306" rx="137.28" ry="18"/>
<text text-anchor="middle" x="804" y="-302.3" font-family="Times,serif" font-size="14.00">create_staking_contract_with_coins</text>
</g>
<!-- staking_contract::create_staking_contract_with_coins&#45;&gt;staking_contract::create_stake_pool -->
<g id="edge12" class="edge">
<title>staking_contract::create_staking_contract_with_coins&#45;&gt;staking_contract::create_stake_pool</title>
<path fill="none" stroke="black" d="M804,-287.7C804,-280.41 804,-271.73 804,-263.54"/>
<polygon fill="black" stroke="black" points="807.5,-263.62 804,-253.62 800.5,-263.62 807.5,-263.62"/>
</g>
<!-- genesis::create_initialize_validators_with_commission -->
<g id="node13" class="node">
<title>genesis::create_initialize_validators_with_commission</title>
<ellipse fill="none" stroke="black" cx="190" cy="-544" rx="173.57" ry="18"/>
<text text-anchor="middle" x="190" y="-540.3" font-family="Times,serif" font-size="14.00">create_initialize_validators_with_commission</text>
</g>
<!-- genesis::create_initialize_validators_with_commission&#45;&gt;genesis::create_initialize_validator -->
<g id="edge13" class="edge">
<title>genesis::create_initialize_validators_with_commission&#45;&gt;genesis::create_initialize_validator</title>
<path fill="none" stroke="black" d="M251.59,-526.8C303.62,-513.12 378,-493.56 431.41,-479.51"/>
<polygon fill="black" stroke="black" points="432.22,-482.92 441,-476.99 430.44,-476.15 432.22,-482.92"/>
</g>
<!-- staking_contract::create_staking_contract&#45;&gt;staking_contract::create_staking_contract_with_coins -->
<g id="edge15" class="edge">
<title>staking_contract::create_staking_contract&#45;&gt;staking_contract::create_staking_contract_with_coins</title>
<path fill="none" stroke="black" d="M771.63,-359.7C776.42,-351.9 782.19,-342.51 787.52,-333.83"/>
<polygon fill="black" stroke="black" points="790.45,-335.75 792.7,-325.39 784.48,-332.08 790.45,-335.75"/>
</g>
<!-- vesting::create_vesting_contract -->
<g id="node15" class="node">
<title>vesting::create_vesting_contract</title>
<ellipse fill="none" stroke="black" cx="719" cy="-461" rx="94.48" ry="18"/>
<text text-anchor="middle" x="719" y="-457.3" font-family="Times,serif" font-size="14.00">create_vesting_contract</text>
</g>
<!-- vesting::create_vesting_contract&#45;&gt;staking_contract::create_staking_contract_with_coins -->
<g id="edge16" class="edge">
<title>vesting::create_vesting_contract&#45;&gt;staking_contract::create_staking_contract_with_coins</title>
<path fill="none" stroke="black" d="M676.02,-444.52C668.83,-439.99 662.31,-434.24 658,-427 642.76,-401.42 640.91,-384.39 658,-360 669.62,-343.42 686.99,-332 705.73,-324.15"/>
<polygon fill="black" stroke="black" points="706.74,-327.51 714.84,-320.68 704.25,-320.97 706.74,-327.51"/>
</g>
<!-- genesis::initialize_for_verification -->
<g id="node16" class="node">
<title>genesis::initialize_for_verification</title>
<ellipse fill="none" stroke="black" cx="453" cy="-616" rx="100.98" ry="18"/>
<text text-anchor="middle" x="453" y="-612.3" font-family="Times,serif" font-size="14.00">initialize_for_verification</text>
</g>
<!-- genesis::initialize_for_verification&#45;&gt;genesis::create_initialize_validators_with_commission -->
<g id="edge17" class="edge">
<title>genesis::initialize_for_verification&#45;&gt;genesis::create_initialize_validators_with_commission</title>
<path fill="none" stroke="black" d="M398.51,-600.5C358.92,-589.96 304.96,-575.6 261.85,-564.12"/>
<polygon fill="black" stroke="black" points="262.89,-560.78 252.32,-561.59 261.08,-567.54 262.89,-560.78"/>
</g>
<!-- genesis::create_employee_validators -->
<g id="node18" class="node">
<title>genesis::create_employee_validators</title>
<ellipse fill="none" stroke="black" cx="491" cy="-544" rx="109.68" ry="18"/>
<text text-anchor="middle" x="491" y="-540.3" font-family="Times,serif" font-size="14.00">create_employee_validators</text>
</g>
<!-- genesis::initialize_for_verification&#45;&gt;genesis::create_employee_validators -->
<g id="edge21" class="edge">
<title>genesis::initialize_for_verification&#45;&gt;genesis::create_employee_validators</title>
<path fill="none" stroke="black" d="M462.39,-597.7C466.58,-589.98 471.61,-580.71 476.28,-572.11"/>
<polygon fill="black" stroke="black" points="479.3,-573.89 480.99,-563.43 473.15,-570.55 479.3,-573.89"/>
</g>
<!-- genesis::create_initialize_validators -->
<g id="node17" class="node">
<title>genesis::create_initialize_validators</title>
<ellipse fill="none" stroke="black" cx="190" cy="-616" rx="105.88" ry="18"/>
<text text-anchor="middle" x="190" y="-612.3" font-family="Times,serif" font-size="14.00">create_initialize_validators</text>
</g>
<!-- genesis::create_initialize_validators&#45;&gt;genesis::create_initialize_validators_with_commission -->
<g id="edge18" class="edge">
<title>genesis::create_initialize_validators&#45;&gt;genesis::create_initialize_validators_with_commission</title>
<path fill="none" stroke="black" d="M190,-597.7C190,-590.41 190,-581.73 190,-573.54"/>
<polygon fill="black" stroke="black" points="193.5,-573.62 190,-563.62 186.5,-573.62 193.5,-573.62"/>
</g>
<!-- genesis::create_employee_validators&#45;&gt;vesting::create_vesting_contract -->
<g id="edge20" class="edge">
<title>genesis::create_employee_validators&#45;&gt;vesting::create_vesting_contract</title>
<path fill="none" stroke="black" d="M551.79,-528.62C571.52,-523.4 593.38,-517.04 613,-510 634.34,-502.34 657.34,-492.17 676.44,-483.17"/>
<polygon fill="black" stroke="black" points="677.74,-486.43 685.25,-478.96 674.72,-480.11 677.74,-486.43"/>
</g>
</g>
</svg>
