<?xml version="1.0" encoding="UTF-8" standalone="no"?>
<!DOCTYPE svg PUBLIC "-//W3C//DTD SVG 1.1//EN"
 "http://www.w3.org/Graphics/SVG/1.1/DTD/svg11.dtd">
<!-- Generated by graphviz version 7.0.4 (20221203.1631)
 -->
<!-- Title: G Pages: 1 -->
<svg width="837pt" height="748pt"
 viewBox="0.00 0.00 837.00 748.00" xmlns="http://www.w3.org/2000/svg" xmlns:xlink="http://www.w3.org/1999/xlink">
<g id="graph0" class="graph" transform="scale(1 1) rotate(0) translate(4 744)">
<title>G</title>
<polygon fill="white" stroke="none" points="-4,4 -4,-744 833,-744 833,4 -4,4"/>
<g id="clust1" class="cluster">
<title>cluster_block</title>
<polygon fill="none" stroke="black" points="534,-64 534,-139 682,-139 682,-64 534,-64"/>
<text text-anchor="middle" x="608" y="-123.8" font-family="Times,serif" font-size="14.00">block</text>
</g>
<g id="clust2" class="cluster">
<title>cluster_staking_contract</title>
<polygon fill="none" stroke="black" points="250,-283 250,-502 564,-502 564,-283 250,-283"/>
<text text-anchor="middle" x="407" y="-486.8" font-family="Times,serif" font-size="14.00">staking_contract</text>
</g>
<g id="clust3" class="cluster">
<title>cluster_vesting</title>
<polygon fill="none" stroke="black" points="8,-510 8,-585 212,-585 212,-510 8,-510"/>
<text text-anchor="middle" x="110" y="-569.8" font-family="Times,serif" font-size="14.00">vesting</text>
</g>
<g id="clust4" class="cluster">
<title>cluster_genesis</title>
<polygon fill="none" stroke="black" points="220,-510 220,-732 821,-732 821,-510 220,-510"/>
<text text-anchor="middle" x="520.5" y="-716.8" font-family="Times,serif" font-size="14.00">genesis</text>
</g>
<!-- is_current_epoch_validator -->
<g id="node1" class="node">
<title>is_current_epoch_validator</title>
<ellipse fill="none" stroke="black" cx="525" cy="-18" rx="106.68" ry="18"/>
<text text-anchor="middle" x="525" y="-14.3" font-family="Times,serif" font-size="14.00">is_current_epoch_validator</text>
</g>
<!-- add_stake_with_cap -->
<g id="node2" class="node">
<title>add_stake_with_cap</title>
<ellipse fill="none" stroke="black" cx="442" cy="-90" rx="82.59" ry="18"/>
<text text-anchor="middle" x="442" y="-86.3" font-family="Times,serif" font-size="14.00">add_stake_with_cap</text>
</g>
<!-- add_stake_with_cap&#45;&gt;is_current_epoch_validator -->
<g id="edge1" class="edge">
<title>add_stake_with_cap&#45;&gt;is_current_epoch_validator</title>
<path fill="none" stroke="black" d="M462.09,-72.05C472.31,-63.43 484.92,-52.8 496.16,-43.32"/>
<polygon fill="black" stroke="black" points="498.26,-46.13 503.65,-37.01 493.75,-40.78 498.26,-46.13"/>
</g>
<!-- block::block_prologue -->
<g id="node3" class="node">
<title>block::block_prologue</title>
<ellipse fill="none" stroke="black" cx="608" cy="-90" rx="65.79" ry="18"/>
<text text-anchor="middle" x="608" y="-86.3" font-family="Times,serif" font-size="14.00">block_prologue</text>
</g>
<!-- block::block_prologue&#45;&gt;is_current_epoch_validator -->
<g id="edge2" class="edge">
<title>block::block_prologue&#45;&gt;is_current_epoch_validator</title>
<path fill="none" stroke="black" d="M588.33,-72.41C578.04,-63.73 565.25,-52.95 553.86,-43.34"/>
<polygon fill="black" stroke="black" points="556.16,-40.7 546.26,-36.93 551.65,-46.05 556.16,-40.7"/>
</g>
<!-- add_stake -->
<g id="node4" class="node">
<title>add_stake</title>
<ellipse fill="none" stroke="black" cx="442" cy="-165" rx="46.29" ry="18"/>
<text text-anchor="middle" x="442" y="-161.3" font-family="Times,serif" font-size="14.00">add_stake</text>
</g>
<!-- add_stake&#45;&gt;add_stake_with_cap -->
<g id="edge3" class="edge">
<title>add_stake&#45;&gt;add_stake_with_cap</title>
<path fill="none" stroke="black" d="M442,-146.7C442,-138.67 442,-128.9 442,-119.8"/>
<polygon fill="black" stroke="black" points="445.5,-119.94 442,-109.94 438.5,-119.94 445.5,-119.94"/>
</g>
<!-- staking_contract::add_stake -->
<g id="node5" class="node">
<title>staking_contract::add_stake</title>
<ellipse fill="none" stroke="black" cx="510" cy="-453" rx="46.29" ry="18"/>
<text text-anchor="middle" x="510" y="-449.3" font-family="Times,serif" font-size="14.00">add_stake</text>
</g>
<!-- staking_contract::add_stake&#45;&gt;add_stake_with_cap -->
<g id="edge4" class="edge">
<title>staking_contract::add_stake&#45;&gt;add_stake_with_cap</title>
<path fill="none" stroke="black" d="M521.5,-435.51C528.08,-425.39 535.99,-411.92 541,-399 555.62,-361.29 560,-350.45 560,-310 560,-310 560,-310 560,-236 560,-183.49 512.87,-139.44 478.18,-114.12"/>
<polygon fill="black" stroke="black" points="480.2,-111.27 470.01,-108.36 476.17,-116.99 480.2,-111.27"/>
</g>
<!-- staking_contract::create_staking_contract_with_coins -->
<g id="node6" class="node">
<title>staking_contract::create_staking_contract_with_coins</title>
<ellipse fill="none" stroke="black" cx="395" cy="-381" rx="137.28" ry="18"/>
<text text-anchor="middle" x="395" y="-377.3" font-family="Times,serif" font-size="14.00">create_staking_contract_with_coins</text>
</g>
<!-- staking_contract::create_staking_contract_with_coins&#45;&gt;add_stake_with_cap -->
<g id="edge5" class="edge">
<title>staking_contract::create_staking_contract_with_coins&#45;&gt;add_stake_with_cap</title>
<path fill="none" stroke="black" d="M376.14,-362.68C366.97,-353.09 356.71,-340.43 351,-327 332.18,-282.7 329.96,-265.33 343,-219 354.78,-177.15 388.49,-139.12 413.32,-115.59"/>
<polygon fill="black" stroke="black" points="415.58,-118.26 420.57,-108.91 410.84,-113.11 415.58,-118.26"/>
</g>
<!-- staking_contract::create_stake_pool -->
<g id="node10" class="node">
<title>staking_contract::create_stake_pool</title>
<ellipse fill="none" stroke="black" cx="434" cy="-309" rx="74.19" ry="18"/>
<text text-anchor="middle" x="434" y="-305.3" font-family="Times,serif" font-size="14.00">create_stake_pool</text>
</g>
<!-- staking_contract::create_staking_contract_with_coins&#45;&gt;staking_contract::create_stake_pool -->
<g id="edge13" class="edge">
<title>staking_contract::create_staking_contract_with_coins&#45;&gt;staking_contract::create_stake_pool</title>
<path fill="none" stroke="black" d="M404.64,-362.7C408.94,-354.98 414.1,-345.71 418.89,-337.11"/>
<polygon fill="black" stroke="black" points="421.92,-338.87 423.73,-328.43 415.81,-335.46 421.92,-338.87"/>
</g>
<!-- initialize_stake_owner -->
<g id="node7" class="node">
<title>initialize_stake_owner</title>
<ellipse fill="none" stroke="black" cx="442" cy="-237" rx="90.18" ry="18"/>
<text text-anchor="middle" x="442" y="-233.3" font-family="Times,serif" font-size="14.00">initialize_stake_owner</text>
</g>
<!-- initialize_stake_owner&#45;&gt;add_stake -->
<g id="edge6" class="edge">
<title>initialize_stake_owner&#45;&gt;add_stake</title>
<path fill="none" stroke="black" d="M442,-218.7C442,-211.41 442,-202.73 442,-194.54"/>
<polygon fill="black" stroke="black" points="445.5,-194.62 442,-184.62 438.5,-194.62 445.5,-194.62"/>
</g>
<!-- staking_contract::create_staking_contract -->
<g id="node8" class="node">
<title>staking_contract::create_staking_contract</title>
<ellipse fill="none" stroke="black" cx="352" cy="-453" rx="94.48" ry="18"/>
<text text-anchor="middle" x="352" y="-449.3" font-family="Times,serif" font-size="14.00">create_staking_contract</text>
</g>
<!-- staking_contract::create_staking_contract&#45;&gt;staking_contract::create_staking_contract_with_coins -->
<g id="edge7" class="edge">
<title>staking_contract::create_staking_contract&#45;&gt;staking_contract::create_staking_contract_with_coins</title>
<path fill="none" stroke="black" d="M362.63,-434.7C367.42,-426.9 373.19,-417.51 378.52,-408.83"/>
<polygon fill="black" stroke="black" points="381.45,-410.75 383.7,-400.39 375.48,-407.08 381.45,-410.75"/>
</g>
<!-- vesting::create_vesting_contract -->
<g id="node9" class="node">
<title>vesting::create_vesting_contract</title>
<ellipse fill="none" stroke="black" cx="110" cy="-536" rx="94.48" ry="18"/>
<text text-anchor="middle" x="110" y="-532.3" font-family="Times,serif" font-size="14.00">create_vesting_contract</text>
</g>
<!-- vesting::create_vesting_contract&#45;&gt;staking_contract::create_staking_contract_with_coins -->
<g id="edge8" class="edge">
<title>vesting::create_vesting_contract&#45;&gt;staking_contract::create_staking_contract_with_coins</title>
<path fill="none" stroke="black" d="M129.57,-518.23C155.48,-496.67 203.26,-459.16 249,-435 274.24,-421.67 303.58,-410.3 329.31,-401.55"/>
<polygon fill="black" stroke="black" points="330.27,-404.91 338.65,-398.44 328.06,-398.27 330.27,-404.91"/>
</g>
<!-- staking_contract::create_stake_pool&#45;&gt;initialize_stake_owner -->
<g id="edge9" class="edge">
<title>staking_contract::create_stake_pool&#45;&gt;initialize_stake_owner</title>
<path fill="none" stroke="black" d="M435.98,-290.7C436.81,-283.41 437.8,-274.73 438.74,-266.54"/>
<polygon fill="black" stroke="black" points="442.22,-266.94 439.87,-256.61 435.26,-266.15 442.22,-266.94"/>
</g>
<!-- genesis::create_initialize_validator -->
<g id="node11" class="node">
<title>genesis::create_initialize_validator</title>
<ellipse fill="none" stroke="black" cx="598" cy="-536" rx="102.88" ry="18"/>
<text text-anchor="middle" x="598" y="-532.3" font-family="Times,serif" font-size="14.00">create_initialize_validator</text>
</g>
<!-- genesis::create_initialize_validator&#45;&gt;initialize_stake_owner -->
<g id="edge10" class="edge">
<title>genesis::create_initialize_validator&#45;&gt;initialize_stake_owner</title>
<path fill="none" stroke="black" d="M601.55,-517.71C609.6,-473.31 624.45,-353.79 568,-283 556.61,-268.71 540.32,-258.96 523.22,-252.3"/>
<polygon fill="black" stroke="black" points="524.52,-249.05 513.93,-249.04 522.21,-255.65 524.52,-249.05"/>
</g>
<!-- genesis::create_initialize_validator&#45;&gt;staking_contract::create_staking_contract -->
<g id="edge11" class="edge">
<title>genesis::create_initialize_validator&#45;&gt;staking_contract::create_staking_contract</title>
<path fill="none" stroke="black" d="M529.53,-522.25C505.64,-517 478.85,-510.21 455,-502 434.01,-494.78 411.57,-484.63 393.01,-475.52"/>
<polygon fill="black" stroke="black" points="394.72,-472.46 384.2,-471.13 391.59,-478.72 394.72,-472.46"/>
</g>
<!-- genesis::create_employee_validators -->
<g id="node12" class="node">
<title>genesis::create_employee_validators</title>
<ellipse fill="none" stroke="black" cx="338" cy="-611" rx="109.68" ry="18"/>
<text text-anchor="middle" x="338" y="-607.3" font-family="Times,serif" font-size="14.00">create_employee_validators</text>
</g>
<!-- genesis::create_employee_validators&#45;&gt;vesting::create_vesting_contract -->
<g id="edge12" class="edge">
<title>genesis::create_employee_validators&#45;&gt;vesting::create_vesting_contract</title>
<path fill="none" stroke="black" d="M263.44,-597.47C247.61,-594.05 231.12,-589.9 216,-585 194.11,-577.9 170.72,-567.62 151.49,-558.39"/>
<polygon fill="black" stroke="black" points="153.15,-555.3 142.63,-554.06 150.08,-561.59 153.15,-555.3"/>
</g>
<!-- genesis::create_initialize_validators_with_commission -->
<g id="node13" class="node">
<title>genesis::create_initialize_validators_with_commission</title>
<ellipse fill="none" stroke="black" cx="639" cy="-611" rx="173.57" ry="18"/>
<text text-anchor="middle" x="639" y="-607.3" font-family="Times,serif" font-size="14.00">create_initialize_validators_with_commission</text>
</g>
<!-- genesis::create_initialize_validators_with_commission&#45;&gt;genesis::create_initialize_validator -->
<g id="edge14" class="edge">
<title>genesis::create_initialize_validators_with_commission&#45;&gt;genesis::create_initialize_validator</title>
<path fill="none" stroke="black" d="M629.28,-592.7C624.48,-584.15 618.58,-573.65 613.2,-564.07"/>
<polygon fill="black" stroke="black" points="616.34,-562.5 608.39,-555.5 610.23,-565.93 616.34,-562.5"/>
</g>
<!-- genesis::initialize_for_verification -->
<g id="node14" class="node">
<title>genesis::initialize_for_verification</title>
<ellipse fill="none" stroke="black" cx="376" cy="-683" rx="100.98" ry="18"/>
<text text-anchor="middle" x="376" y="-679.3" font-family="Times,serif" font-size="14.00">initialize_for_verification</text>
</g>
<!-- genesis::initialize_for_verification&#45;&gt;genesis::create_employee_validators -->
<g id="edge15" class="edge">
<title>genesis::initialize_for_verification&#45;&gt;genesis::create_employee_validators</title>
<path fill="none" stroke="black" d="M366.61,-664.7C362.42,-656.98 357.39,-647.71 352.72,-639.11"/>
<polygon fill="black" stroke="black" points="355.85,-637.55 348.01,-630.43 349.7,-640.89 355.85,-637.55"/>
</g>
<!-- genesis::initialize_for_verification&#45;&gt;genesis::create_initialize_validators_with_commission -->
<g id="edge16" class="edge">
<title>genesis::initialize_for_verification&#45;&gt;genesis::create_initialize_validators_with_commission</title>
<path fill="none" stroke="black" d="M430.49,-667.5C470.08,-656.96 524.04,-642.6 567.15,-631.12"/>
<polygon fill="black" stroke="black" points="567.92,-634.54 576.68,-628.59 566.11,-627.78 567.92,-634.54"/>
</g>
<!-- genesis::create_initialize_validators -->
<g id="node15" class="node">
<title>genesis::create_initialize_validators</title>
<ellipse fill="none" stroke="black" cx="639" cy="-683" rx="105.88" ry="18"/>
<text text-anchor="middle" x="639" y="-679.3" font-family="Times,serif" font-size="14.00">create_initialize_validators</text>
</g>
<!-- genesis::create_initialize_validators&#45;&gt;genesis::create_initialize_validators_with_commission -->
<g id="edge17" class="edge">
<title>genesis::create_initialize_validators&#45;&gt;genesis::create_initialize_validators_with_commission</title>
<path fill="none" stroke="black" d="M639,-664.7C639,-657.41 639,-648.73 639,-640.54"/>
<polygon fill="black" stroke="black" points="642.5,-640.62 639,-630.62 635.5,-640.62 642.5,-640.62"/>
</g>
</g>
</svg>
