<?xml version="1.0" encoding="UTF-8" standalone="no"?>
<!DOCTYPE svg PUBLIC "-//W3C//DTD SVG 1.1//EN"
 "http://www.w3.org/Graphics/SVG/1.1/DTD/svg11.dtd">
<!-- Generated by graphviz version 7.0.4 (20221203.1631)
 -->
<!-- Title: G Pages: 1 -->
<svg width="1968pt" height="667pt"
 viewBox="0.00 0.00 1968.07 667.00" xmlns="http://www.w3.org/2000/svg" xmlns:xlink="http://www.w3.org/1999/xlink">
<g id="graph0" class="graph" transform="scale(1 1) rotate(0) translate(4 663)">
<title>G</title>
<polygon fill="white" stroke="none" points="-4,4 -4,-663 1964.07,-663 1964.07,4 -4,4"/>
<g id="clust1" class="cluster">
<title>cluster_pool_u64</title>
<polygon fill="none" stroke="black" points="1247,-163 1247,-615 1931,-615 1931,-163 1247,-163"/>
<text text-anchor="middle" x="1589" y="-599.8" font-family="Times,serif" font-size="14.00">pool_u64</text>
</g>
<g id="clust2" class="cluster">
<title>cluster_simple_map</title>
<polygon fill="none" stroke="black" points="425,-246 425,-396 939,-396 939,-246 425,-246"/>
<text text-anchor="middle" x="682" y="-380.8" font-family="Times,serif" font-size="14.00">simple_map</text>
</g>
<g id="clust3" class="cluster">
<title>cluster_error</title>
<polygon fill="none" stroke="black" points="947,-163 947,-321 1239,-321 1239,-163 947,-163"/>
<text text-anchor="middle" x="1093" y="-305.8" font-family="Times,serif" font-size="14.00">error</text>
</g>
<g id="clust4" class="cluster">
<title>cluster_option</title>
<polygon fill="none" stroke="black" points="451,-80 451,-238 782,-238 782,-80 451,-80"/>
<text text-anchor="middle" x="616.5" y="-222.8" font-family="Times,serif" font-size="14.00">option</text>
</g>
<g id="clust5" class="cluster">
<title>cluster_vector</title>
<polygon fill="none" stroke="black" points="8,-8 8,-155 443,-155 443,-8 8,-8"/>
<text text-anchor="middle" x="225.5" y="-139.8" font-family="Times,serif" font-size="14.00">vector</text>
</g>
<!-- update_distribution_pool -->
<g id="node1" class="node">
<title>update_distribution_pool</title>
<ellipse fill="none" stroke="black" cx="1789" cy="-641" rx="98.58" ry="18"/>
<text text-anchor="middle" x="1789" y="-637.3" font-family="Times,serif" font-size="14.00">update_distribution_pool</text>
</g>
<!-- pool_u64::balance -->
<g id="node2" class="node">
<title>pool_u64::balance</title>
<ellipse fill="none" stroke="black" cx="1570" cy="-494" rx="37.89" ry="18"/>
<text text-anchor="middle" x="1570" y="-490.3" font-family="Times,serif" font-size="14.00">balance</text>
</g>
<!-- update_distribution_pool&#45;&gt;pool_u64::balance -->
<g id="edge1" class="edge">
<title>update_distribution_pool&#45;&gt;pool_u64::balance</title>
<path fill="none" stroke="black" d="M1805.04,-622.87C1806.65,-620.38 1808.04,-617.73 1809,-615 1818.86,-586.9 1827.64,-571.22 1809,-548 1785.59,-518.82 1681.35,-504.71 1618.53,-498.74"/>
<polygon fill="black" stroke="black" points="1619.09,-495.28 1608.82,-497.86 1618.46,-502.25 1619.09,-495.28"/>
</g>
<!-- pool_u64::amount_to_shares_with_total_coins -->
<g id="node3" class="node">
<title>pool_u64::amount_to_shares_with_total_coins</title>
<ellipse fill="none" stroke="black" cx="1785" cy="-347" rx="137.58" ry="18"/>
<text text-anchor="middle" x="1785" y="-343.3" font-family="Times,serif" font-size="14.00">amount_to_shares_with_total_coins</text>
</g>
<!-- update_distribution_pool&#45;&gt;pool_u64::amount_to_shares_with_total_coins -->
<g id="edge2" class="edge">
<title>update_distribution_pool&#45;&gt;pool_u64::amount_to_shares_with_total_coins</title>
<path fill="none" stroke="black" d="M1874.84,-631.77C1894.57,-628.06 1911.65,-622.7 1918,-615 1977.67,-542.66 1969.87,-482.12 1918,-404 1906.66,-386.92 1888.97,-375.03 1870.16,-366.77"/>
<polygon fill="black" stroke="black" points="1871.62,-363.58 1861.03,-363.11 1869.01,-370.08 1871.62,-363.58"/>
</g>
<!-- pool_u64::total_coins -->
<g id="node4" class="node">
<title>pool_u64::total_coins</title>
<ellipse fill="none" stroke="black" cx="1751" cy="-566" rx="49.29" ry="18"/>
<text text-anchor="middle" x="1751" y="-562.3" font-family="Times,serif" font-size="14.00">total_coins</text>
</g>
<!-- update_distribution_pool&#45;&gt;pool_u64::total_coins -->
<g id="edge3" class="edge">
<title>update_distribution_pool&#45;&gt;pool_u64::total_coins</title>
<path fill="none" stroke="black" d="M1779.99,-622.7C1775.59,-614.25 1770.19,-603.87 1765.25,-594.37"/>
<polygon fill="black" stroke="black" points="1768.36,-592.77 1760.64,-585.52 1762.15,-596 1768.36,-592.77"/>
</g>
<!-- pool_u64::shareholders -->
<g id="node5" class="node">
<title>pool_u64::shareholders</title>
<ellipse fill="none" stroke="black" cx="1628" cy="-566" rx="55.49" ry="18"/>
<text text-anchor="middle" x="1628" y="-562.3" font-family="Times,serif" font-size="14.00">shareholders</text>
</g>
<!-- update_distribution_pool&#45;&gt;pool_u64::shareholders -->
<g id="edge4" class="edge">
<title>update_distribution_pool&#45;&gt;pool_u64::shareholders</title>
<path fill="none" stroke="black" d="M1724.79,-626.92C1713.92,-623.69 1702.95,-619.75 1693,-615 1679.55,-608.58 1666.07,-599.22 1654.9,-590.47"/>
<polygon fill="black" stroke="black" points="1657.25,-587.87 1647.28,-584.29 1652.84,-593.31 1657.25,-587.87"/>
</g>
<!-- pool_u64::shares -->
<g id="node6" class="node">
<title>pool_u64::shares</title>
<ellipse fill="none" stroke="black" cx="1425" cy="-422" rx="32.49" ry="18"/>
<text text-anchor="middle" x="1425" y="-418.3" font-family="Times,serif" font-size="14.00">shares</text>
</g>
<!-- update_distribution_pool&#45;&gt;pool_u64::shares -->
<g id="edge5" class="edge">
<title>update_distribution_pool&#45;&gt;pool_u64::shares</title>
<path fill="none" stroke="black" d="M1821.09,-623.68C1823.83,-621.13 1826.23,-618.25 1828,-615 1842.29,-588.87 1845.33,-572.22 1828,-548 1735.26,-418.36 1639.62,-482.52 1486,-440 1479.05,-438.08 1471.65,-436.02 1464.49,-434.03"/>
<polygon fill="black" stroke="black" points="1465.58,-430.7 1455,-431.38 1463.7,-437.44 1465.58,-430.7"/>
</g>
<!-- pool_u64::shares_to_amount_with_total_coins -->
<g id="node7" class="node">
<title>pool_u64::shares_to_amount_with_total_coins</title>
<ellipse fill="none" stroke="black" cx="1491" cy="-347" rx="137.58" ry="18"/>
<text text-anchor="middle" x="1491" y="-343.3" font-family="Times,serif" font-size="14.00">shares_to_amount_with_total_coins</text>
</g>
<!-- update_distribution_pool&#45;&gt;pool_u64::shares_to_amount_with_total_coins -->
<g id="edge6" class="edge">
<title>update_distribution_pool&#45;&gt;pool_u64::shares_to_amount_with_total_coins</title>
<path fill="none" stroke="black" d="M1837.26,-625.06C1841.05,-622.26 1844.41,-618.94 1847,-615 1884.18,-558.49 1837.55,-518.6 1785,-476 1733.39,-434.16 1714.75,-430.89 1654,-404 1622.44,-390.03 1586.24,-377.28 1555.97,-367.49"/>
<polygon fill="black" stroke="black" points="1557.14,-364.19 1546.55,-364.48 1555.01,-370.86 1557.14,-364.19"/>
</g>
<!-- pool_u64::transfer_shares -->
<g id="node8" class="node">
<title>pool_u64::transfer_shares</title>
<ellipse fill="none" stroke="black" cx="1491" cy="-566" rx="63.89" ry="18"/>
<text text-anchor="middle" x="1491" y="-562.3" font-family="Times,serif" font-size="14.00">transfer_shares</text>
</g>
<!-- update_distribution_pool&#45;&gt;pool_u64::transfer_shares -->
<g id="edge7" class="edge">
<title>update_distribution_pool&#45;&gt;pool_u64::transfer_shares</title>
<path fill="none" stroke="black" d="M1697.19,-634.14C1646.12,-630.03 1588.12,-623.7 1564,-615 1548.2,-609.3 1532.4,-599.55 1519.57,-590.31"/>
<polygon fill="black" stroke="black" points="1521.69,-587.53 1511.59,-584.34 1517.5,-593.14 1521.69,-587.53"/>
</g>
<!-- pool_u64::update_total_coins -->
<g id="node9" class="node">
<title>pool_u64::update_total_coins</title>
<ellipse fill="none" stroke="black" cx="1332" cy="-566" rx="77.19" ry="18"/>
<text text-anchor="middle" x="1332" y="-562.3" font-family="Times,serif" font-size="14.00">update_total_coins</text>
</g>
<!-- update_distribution_pool&#45;&gt;pool_u64::update_total_coins -->
<g id="edge8" class="edge">
<title>update_distribution_pool&#45;&gt;pool_u64::update_total_coins</title>
<path fill="none" stroke="black" d="M1691.2,-638.25C1598.82,-635.72 1467.28,-629.61 1418,-615 1399.17,-609.42 1379.93,-599.19 1364.43,-589.6"/>
<polygon fill="black" stroke="black" points="1366.42,-586.71 1356.11,-584.26 1362.64,-592.6 1366.42,-586.71"/>
</g>
<!-- pool_u64::balance&#45;&gt;pool_u64::shares -->
<g id="edge9" class="edge">
<title>pool_u64::balance&#45;&gt;pool_u64::shares</title>
<path fill="none" stroke="black" d="M1544.08,-480.49C1520.31,-469.01 1484.95,-451.94 1458.94,-439.39"/>
<polygon fill="black" stroke="black" points="1460.67,-436.33 1450.14,-435.14 1457.62,-442.64 1460.67,-436.33"/>
</g>
<!-- pool_u64::shares_to_amount -->
<g id="node10" class="node">
<title>pool_u64::shares_to_amount</title>
<ellipse fill="none" stroke="black" cx="1570" cy="-422" rx="75.29" ry="18"/>
<text text-anchor="middle" x="1570" y="-418.3" font-family="Times,serif" font-size="14.00">shares_to_amount</text>
</g>
<!-- pool_u64::balance&#45;&gt;pool_u64::shares_to_amount -->
<g id="edge10" class="edge">
<title>pool_u64::balance&#45;&gt;pool_u64::shares_to_amount</title>
<path fill="none" stroke="black" d="M1570,-475.7C1570,-468.41 1570,-459.73 1570,-451.54"/>
<polygon fill="black" stroke="black" points="1573.5,-451.62 1570,-441.62 1566.5,-451.62 1573.5,-451.62"/>
</g>
<!-- pool_u64::multiply_then_divide -->
<g id="node11" class="node">
<title>pool_u64::multiply_then_divide</title>
<ellipse fill="none" stroke="black" cx="1638" cy="-272" rx="87.18" ry="18"/>
<text text-anchor="middle" x="1638" y="-268.3" font-family="Times,serif" font-size="14.00">multiply_then_divide</text>
</g>
<!-- pool_u64::amount_to_shares_with_total_coins&#45;&gt;pool_u64::multiply_then_divide -->
<g id="edge11" class="edge">
<title>pool_u64::amount_to_shares_with_total_coins&#45;&gt;pool_u64::multiply_then_divide</title>
<path fill="none" stroke="black" d="M1751.28,-329.25C1730.35,-318.86 1703.26,-305.41 1680.82,-294.27"/>
<polygon fill="black" stroke="black" points="1682.43,-291.15 1671.91,-289.84 1679.31,-297.42 1682.43,-291.15"/>
</g>
<!-- simple_map::borrow -->
<g id="node12" class="node">
<title>simple_map::borrow</title>
<ellipse fill="none" stroke="black" cx="895" cy="-347" rx="36.29" ry="18"/>
<text text-anchor="middle" x="895" y="-343.3" font-family="Times,serif" font-size="14.00">borrow</text>
</g>
<!-- pool_u64::shares&#45;&gt;simple_map::borrow -->
<g id="edge12" class="edge">
<title>pool_u64::shares&#45;&gt;simple_map::borrow</title>
<path fill="none" stroke="black" d="M1397.34,-411.99C1386.98,-408.97 1375.05,-405.89 1364,-404 1310.87,-394.94 1296.62,-401.46 1243,-396 1133.96,-384.89 1006.52,-365.72 940.25,-355.29"/>
<polygon fill="black" stroke="black" points="940.91,-351.85 930.48,-353.74 939.81,-358.76 940.91,-351.85"/>
</g>
<!-- pool_u64::contains -->
<g id="node13" class="node">
<title>pool_u64::contains</title>
<ellipse fill="none" stroke="black" cx="1295" cy="-347" rx="40.09" ry="18"/>
<text text-anchor="middle" x="1295" y="-343.3" font-family="Times,serif" font-size="14.00">contains</text>
</g>
<!-- pool_u64::shares&#45;&gt;pool_u64::contains -->
<g id="edge13" class="edge">
<title>pool_u64::shares&#45;&gt;pool_u64::contains</title>
<path fill="none" stroke="black" d="M1398.93,-410.7C1392.47,-408.33 1385.53,-405.94 1379,-404 1363.71,-399.45 1358,-403.65 1344,-396 1333.18,-390.09 1323.1,-381.12 1314.93,-372.52"/>
<polygon fill="black" stroke="black" points="1317.74,-370.4 1308.45,-365.3 1312.53,-375.08 1317.74,-370.4"/>
</g>
<!-- pool_u64::shares_to_amount_with_total_coins&#45;&gt;pool_u64::multiply_then_divide -->
<g id="edge14" class="edge">
<title>pool_u64::shares_to_amount_with_total_coins&#45;&gt;pool_u64::multiply_then_divide</title>
<path fill="none" stroke="black" d="M1524.72,-329.25C1545.65,-318.86 1572.74,-305.41 1595.18,-294.27"/>
<polygon fill="black" stroke="black" points="1596.69,-297.42 1604.09,-289.84 1593.57,-291.15 1596.69,-297.42"/>
</g>
<!-- pool_u64::transfer_shares&#45;&gt;pool_u64::shares -->
<g id="edge19" class="edge">
<title>pool_u64::transfer_shares&#45;&gt;pool_u64::shares</title>
<path fill="none" stroke="black" d="M1483.04,-547.87C1471.73,-523.54 1450.9,-478.73 1437.52,-449.93"/>
<polygon fill="black" stroke="black" points="1440.81,-448.71 1433.42,-441.12 1434.46,-451.66 1440.81,-448.71"/>
</g>
<!-- pool_u64::transfer_shares&#45;&gt;pool_u64::contains -->
<g id="edge16" class="edge">
<title>pool_u64::transfer_shares&#45;&gt;pool_u64::contains</title>
<path fill="none" stroke="black" d="M1490.93,-547.72C1490.37,-510.18 1486.82,-423.05 1466,-404 1445.96,-385.66 1368.8,-407.09 1344,-396 1332.58,-390.9 1322.29,-381.91 1314.12,-373.07"/>
<polygon fill="black" stroke="black" points="1316.85,-370.89 1307.68,-365.59 1311.55,-375.45 1316.85,-370.89"/>
</g>
<!-- error::invalid_argument -->
<g id="node14" class="node">
<title>error::invalid_argument</title>
<ellipse fill="none" stroke="black" cx="1028" cy="-272" rx="73.39" ry="18"/>
<text text-anchor="middle" x="1028" y="-268.3" font-family="Times,serif" font-size="14.00">invalid_argument</text>
</g>
<!-- pool_u64::transfer_shares&#45;&gt;error::invalid_argument -->
<g id="edge15" class="edge">
<title>pool_u64::transfer_shares&#45;&gt;error::invalid_argument</title>
<path fill="none" stroke="black" d="M1443.13,-553.69C1434.76,-551.76 1426.13,-549.8 1418,-548 1341.74,-531.14 1318.21,-541.76 1246,-512 1160.41,-476.73 1129.18,-469.57 1073,-396 1051.46,-367.79 1039.46,-328.25 1033.37,-301.69"/>
<polygon fill="black" stroke="black" points="1036.8,-301.01 1031.29,-291.96 1029.96,-302.47 1036.8,-301.01"/>
</g>
<!-- pool_u64::add_shares -->
<g id="node15" class="node">
<title>pool_u64::add_shares</title>
<ellipse fill="none" stroke="black" cx="1305" cy="-422" rx="50.09" ry="18"/>
<text text-anchor="middle" x="1305" y="-418.3" font-family="Times,serif" font-size="14.00">add_shares</text>
</g>
<!-- pool_u64::transfer_shares&#45;&gt;pool_u64::add_shares -->
<g id="edge17" class="edge">
<title>pool_u64::transfer_shares&#45;&gt;pool_u64::add_shares</title>
<path fill="none" stroke="black" d="M1472.15,-548.31C1451.14,-529.95 1415.92,-499.88 1384,-476 1369.39,-465.07 1352.67,-453.7 1338.39,-444.31"/>
<polygon fill="black" stroke="black" points="1340.5,-441.51 1330.21,-438.98 1336.68,-447.37 1340.5,-441.51"/>
</g>
<!-- pool_u64::deduct_shares -->
<g id="node16" class="node">
<title>pool_u64::deduct_shares</title>
<ellipse fill="none" stroke="black" cx="1315" cy="-494" rx="60.39" ry="18"/>
<text text-anchor="middle" x="1315" y="-490.3" font-family="Times,serif" font-size="14.00">deduct_shares</text>
</g>
<!-- pool_u64::transfer_shares&#45;&gt;pool_u64::deduct_shares -->
<g id="edge18" class="edge">
<title>pool_u64::transfer_shares&#45;&gt;pool_u64::deduct_shares</title>
<path fill="none" stroke="black" d="M1455.38,-550.83C1428.1,-539.98 1390.25,-524.93 1360.73,-513.19"/>
<polygon fill="black" stroke="black" points="1362.25,-510.03 1351.67,-509.58 1359.67,-516.53 1362.25,-510.03"/>
</g>
<!-- pool_u64::shares_to_amount&#45;&gt;pool_u64::shares_to_amount_with_total_coins -->
<g id="edge20" class="edge">
<title>pool_u64::shares_to_amount&#45;&gt;pool_u64::shares_to_amount_with_total_coins</title>
<path fill="none" stroke="black" d="M1551.68,-404.07C1541.58,-394.74 1528.86,-382.99 1517.68,-372.65"/>
<polygon fill="black" stroke="black" points="1520.33,-370.34 1510.61,-366.12 1515.58,-375.48 1520.33,-370.34"/>
</g>
<!-- pool_u64::to_u128 -->
<g id="node17" class="node">
<title>pool_u64::to_u128</title>
<ellipse fill="none" stroke="black" cx="1638" cy="-189" rx="39.79" ry="18"/>
<text text-anchor="middle" x="1638" y="-185.3" font-family="Times,serif" font-size="14.00">to_u128</text>
</g>
<!-- pool_u64::multiply_then_divide&#45;&gt;pool_u64::to_u128 -->
<g id="edge21" class="edge">
<title>pool_u64::multiply_then_divide&#45;&gt;pool_u64::to_u128</title>
<path fill="none" stroke="black" d="M1638,-253.82C1638,-243.69 1638,-230.6 1638,-218.92"/>
<polygon fill="black" stroke="black" points="1641.5,-218.95 1638,-208.95 1634.5,-218.95 1641.5,-218.95"/>
</g>
<!-- simple_map::borrow&#45;&gt;error::invalid_argument -->
<g id="edge24" class="edge">
<title>simple_map::borrow&#45;&gt;error::invalid_argument</title>
<path fill="none" stroke="black" d="M919.5,-333.44C927.07,-329.51 935.4,-325.12 943,-321 958.61,-312.53 975.69,-302.95 990.41,-294.59"/>
<polygon fill="black" stroke="black" points="991.91,-297.76 998.87,-289.77 988.45,-291.68 991.91,-297.76"/>
</g>
<!-- option::extract -->
<g id="node18" class="node">
<title>option::extract</title>
<ellipse fill="none" stroke="black" cx="588" cy="-189" rx="34.39" ry="18"/>
<text text-anchor="middle" x="588" y="-185.3" font-family="Times,serif" font-size="14.00">extract</text>
</g>
<!-- simple_map::borrow&#45;&gt;option::extract -->
<g id="edge22" class="edge">
<title>simple_map::borrow&#45;&gt;option::extract</title>
<path fill="none" stroke="black" d="M874.36,-331.85C840.49,-309.42 770.24,-266.18 704,-246 672.78,-236.49 660.03,-252.92 631,-238 620.77,-232.74 611.82,-223.97 604.77,-215.34"/>
<polygon fill="black" stroke="black" points="607.63,-213.32 598.81,-207.43 602.04,-217.53 607.63,-213.32"/>
</g>
<!-- option::is_some -->
<g id="node19" class="node">
<title>option::is_some</title>
<ellipse fill="none" stroke="black" cx="734" cy="-106" rx="40.09" ry="18"/>
<text text-anchor="middle" x="734" y="-102.3" font-family="Times,serif" font-size="14.00">is_some</text>
</g>
<!-- simple_map::borrow&#45;&gt;option::is_some -->
<g id="edge23" class="edge">
<title>simple_map::borrow&#45;&gt;option::is_some</title>
<path fill="none" stroke="black" d="M899.34,-328.81C907.1,-293.74 919.28,-213.07 882,-163 859.23,-132.41 817.64,-118.53 784.33,-112.23"/>
<polygon fill="black" stroke="black" points="785.33,-108.85 774.89,-110.63 784.16,-115.75 785.33,-108.85"/>
</g>
<!-- simple_map::find -->
<g id="node20" class="node">
<title>simple_map::find</title>
<ellipse fill="none" stroke="black" cx="668" cy="-272" rx="27" ry="18"/>
<text text-anchor="middle" x="668" y="-268.3" font-family="Times,serif" font-size="14.00">find</text>
</g>
<!-- simple_map::borrow&#45;&gt;simple_map::find -->
<g id="edge25" class="edge">
<title>simple_map::borrow&#45;&gt;simple_map::find</title>
<path fill="none" stroke="black" d="M868.26,-334.43C862.35,-332.29 856.04,-330.31 850,-329 797.77,-317.65 779.97,-339.96 730,-321 715.14,-315.36 700.93,-304.88 689.88,-295.14"/>
<polygon fill="black" stroke="black" points="692.56,-292.86 682.85,-288.63 687.81,-297.99 692.56,-292.86"/>
</g>
<!-- simple_map::contains_key -->
<g id="node21" class="node">
<title>simple_map::contains_key</title>
<ellipse fill="none" stroke="black" cx="656" cy="-347" rx="57.39" ry="18"/>
<text text-anchor="middle" x="656" y="-343.3" font-family="Times,serif" font-size="14.00">contains_key</text>
</g>
<!-- pool_u64::contains&#45;&gt;simple_map::contains_key -->
<g id="edge26" class="edge">
<title>pool_u64::contains&#45;&gt;simple_map::contains_key</title>
<path fill="none" stroke="black" d="M1257.78,-354.3C1192.53,-366.68 1053.09,-391.3 934,-400 911.5,-401.64 753.06,-404.68 731,-400 712.06,-395.98 694.22,-383.85 680.69,-372.21"/>
<polygon fill="black" stroke="black" points="683.33,-369.88 673.58,-365.74 678.62,-375.06 683.33,-369.88"/>
</g>
<!-- error::canonical -->
<g id="node22" class="node">
<title>error::canonical</title>
<ellipse fill="none" stroke="black" cx="1101" cy="-189" rx="44.39" ry="18"/>
<text text-anchor="middle" x="1101" y="-185.3" font-family="Times,serif" font-size="14.00">canonical</text>
</g>
<!-- error::invalid_argument&#45;&gt;error::canonical -->
<g id="edge27" class="edge">
<title>error::invalid_argument&#45;&gt;error::canonical</title>
<path fill="none" stroke="black" d="M1043.13,-254.22C1053.44,-242.77 1067.27,-227.42 1078.83,-214.6"/>
<polygon fill="black" stroke="black" points="1081.28,-217.1 1085.38,-207.33 1076.08,-212.42 1081.28,-217.1"/>
</g>
<!-- pool_u64::add_shares&#45;&gt;pool_u64::contains -->
<g id="edge32" class="edge">
<title>pool_u64::add_shares&#45;&gt;pool_u64::contains</title>
<path fill="none" stroke="black" d="M1302.63,-403.7C1301.53,-395.67 1300.19,-385.9 1298.95,-376.8"/>
<polygon fill="black" stroke="black" points="1302.42,-376.36 1297.59,-366.93 1295.48,-377.31 1302.42,-376.36"/>
</g>
<!-- pool_u64::add_shares&#45;&gt;error::invalid_argument -->
<g id="edge28" class="edge">
<title>pool_u64::add_shares&#45;&gt;error::invalid_argument</title>
<path fill="none" stroke="black" d="M1256.99,-416.21C1236.62,-412.68 1213.21,-406.58 1194,-396 1157.11,-375.68 1161.45,-353.22 1127,-329 1120.17,-324.2 1117.39,-324.89 1110,-321 1094.73,-312.96 1078.25,-303.48 1064.09,-295.07"/>
<polygon fill="black" stroke="black" points="1065.93,-292.09 1055.55,-289.95 1062.33,-298.09 1065.93,-292.09"/>
</g>
<!-- error::invalid_state -->
<g id="node23" class="node">
<title>error::invalid_state</title>
<ellipse fill="none" stroke="black" cx="1175" cy="-272" rx="55.79" ry="18"/>
<text text-anchor="middle" x="1175" y="-268.3" font-family="Times,serif" font-size="14.00">invalid_state</text>
</g>
<!-- pool_u64::add_shares&#45;&gt;error::invalid_state -->
<g id="edge29" class="edge">
<title>pool_u64::add_shares&#45;&gt;error::invalid_state</title>
<path fill="none" stroke="black" d="M1267.91,-409.61C1260.11,-406.08 1252.33,-401.6 1246,-396 1216.29,-369.73 1195.89,-327.92 1184.82,-300.46"/>
<polygon fill="black" stroke="black" points="1188.2,-299.49 1181.33,-291.42 1181.67,-302.01 1188.2,-299.49"/>
</g>
<!-- simple_map::borrow_mut -->
<g id="node24" class="node">
<title>simple_map::borrow_mut</title>
<ellipse fill="none" stroke="black" cx="786" cy="-347" rx="54.69" ry="18"/>
<text text-anchor="middle" x="786" y="-343.3" font-family="Times,serif" font-size="14.00">borrow_mut</text>
</g>
<!-- pool_u64::add_shares&#45;&gt;simple_map::borrow_mut -->
<g id="edge30" class="edge">
<title>pool_u64::add_shares&#45;&gt;simple_map::borrow_mut</title>
<path fill="none" stroke="black" d="M1255.31,-419.04C1141.21,-414.45 868.77,-402.83 850,-396 835.73,-390.8 821.97,-381.28 810.89,-372.09"/>
<polygon fill="black" stroke="black" points="813.23,-369.48 803.4,-365.53 808.62,-374.75 813.23,-369.48"/>
</g>
<!-- simple_map::add -->
<g id="node25" class="node">
<title>simple_map::add</title>
<ellipse fill="none" stroke="black" cx="554" cy="-347" rx="27" ry="18"/>
<text text-anchor="middle" x="554" y="-343.3" font-family="Times,serif" font-size="14.00">add</text>
</g>
<!-- pool_u64::add_shares&#45;&gt;simple_map::add -->
<g id="edge31" class="edge">
<title>pool_u64::add_shares&#45;&gt;simple_map::add</title>
<path fill="none" stroke="black" d="M1254.85,-420.43C1097.06,-418.48 619.38,-411.34 590,-396 580.71,-391.15 573.16,-382.7 567.42,-374.22"/>
<polygon fill="black" stroke="black" points="570.47,-372.51 562.3,-365.77 564.49,-376.14 570.47,-372.51"/>
</g>
<!-- pool_u64::deduct_shares&#45;&gt;pool_u64::shares -->
<g id="edge39" class="edge">
<title>pool_u64::deduct_shares&#45;&gt;pool_u64::shares</title>
<path fill="none" stroke="black" d="M1339.69,-477.29C1355.89,-466.98 1377.2,-453.42 1394.46,-442.43"/>
<polygon fill="black" stroke="black" points="1396.26,-445.44 1402.82,-437.12 1392.5,-439.53 1396.26,-445.44"/>
</g>
<!-- pool_u64::deduct_shares&#45;&gt;pool_u64::contains -->
<g id="edge38" class="edge">
<title>pool_u64::deduct_shares&#45;&gt;pool_u64::contains</title>
<path fill="none" stroke="black" d="M1335,-476.72C1354.94,-458.47 1380.42,-428.25 1364,-404 1358.63,-396.07 1352.02,-401.23 1344,-396 1334.08,-389.53 1324.47,-380.84 1316.43,-372.64"/>
<polygon fill="black" stroke="black" points="1319.1,-370.37 1309.71,-365.48 1314,-375.16 1319.1,-370.37"/>
</g>
<!-- pool_u64::deduct_shares&#45;&gt;error::invalid_argument -->
<g id="edge35" class="edge">
<title>pool_u64::deduct_shares&#45;&gt;error::invalid_argument</title>
<path fill="none" stroke="black" d="M1278.05,-479.33C1238.08,-463.37 1173.8,-434.21 1127,-396 1126.7,-395.76 1077.5,-334.58 1048.59,-298.61"/>
<polygon fill="black" stroke="black" points="1051.65,-296.84 1042.66,-291.24 1046.2,-301.23 1051.65,-296.84"/>
</g>
<!-- pool_u64::deduct_shares&#45;&gt;simple_map::borrow_mut -->
<g id="edge36" class="edge">
<title>pool_u64::deduct_shares&#45;&gt;simple_map::borrow_mut</title>
<path fill="none" stroke="black" d="M1256.68,-489C1166.04,-481.02 987.52,-458.17 850,-396 836.45,-389.88 823.05,-380.48 812.03,-371.62"/>
<polygon fill="black" stroke="black" points="814.47,-369.1 804.55,-365.36 809.97,-374.47 814.47,-369.1"/>
</g>
<!-- vector::index_of -->
<g id="node26" class="node">
<title>vector::index_of</title>
<ellipse fill="none" stroke="black" cx="58" cy="-106" rx="42.49" ry="18"/>
<text text-anchor="middle" x="58" y="-102.3" font-family="Times,serif" font-size="14.00">index_of</text>
</g>
<!-- pool_u64::deduct_shares&#45;&gt;vector::index_of -->
<g id="edge33" class="edge">
<title>pool_u64::deduct_shares&#45;&gt;vector::index_of</title>
<path fill="none" stroke="black" d="M1254.25,-492.84C1063.65,-491.86 479.29,-485.16 296,-440 201,-416.6 96,-445.84 96,-348 96,-348 96,-348 96,-271 96,-222.06 79.74,-166.98 68.5,-134.73"/>
<polygon fill="black" stroke="black" points="71.81,-133.59 65.13,-125.36 65.22,-135.96 71.81,-133.59"/>
</g>
<!-- vector::remove -->
<g id="node27" class="node">
<title>vector::remove</title>
<ellipse fill="none" stroke="black" cx="156" cy="-106" rx="37.89" ry="18"/>
<text text-anchor="middle" x="156" y="-102.3" font-family="Times,serif" font-size="14.00">remove</text>
</g>
<!-- pool_u64::deduct_shares&#45;&gt;vector::remove -->
<g id="edge34" class="edge">
<title>pool_u64::deduct_shares&#45;&gt;vector::remove</title>
<path fill="none" stroke="black" d="M1255.03,-491.1C1097.08,-485.75 672.36,-469.03 535,-440 417.94,-415.26 282,-467.65 282,-348 282,-348 282,-348 282,-271 282,-254.07 213.57,-173.02 177.57,-131.56"/>
<polygon fill="black" stroke="black" points="180.41,-129.49 171.2,-124.25 175.13,-134.09 180.41,-129.49"/>
</g>
<!-- simple_map::remove -->
<g id="node28" class="node">
<title>simple_map::remove</title>
<ellipse fill="none" stroke="black" cx="471" cy="-347" rx="37.89" ry="18"/>
<text text-anchor="middle" x="471" y="-343.3" font-family="Times,serif" font-size="14.00">remove</text>
</g>
<!-- pool_u64::deduct_shares&#45;&gt;simple_map::remove -->
<g id="edge37" class="edge">
<title>pool_u64::deduct_shares&#45;&gt;simple_map::remove</title>
<path fill="none" stroke="black" d="M1255.15,-490.84C1092.85,-484.18 647.88,-460.4 518,-396 507.3,-390.69 497.64,-381.95 489.9,-373.37"/>
<polygon fill="black" stroke="black" points="492.65,-371.2 483.53,-365.79 487.29,-375.7 492.65,-371.2"/>
</g>
<!-- option::extract&#45;&gt;option::is_some -->
<g id="edge40" class="edge">
<title>option::extract&#45;&gt;option::is_some</title>
<path fill="none" stroke="black" d="M610.25,-174.9C616.9,-171.03 624.23,-166.81 631,-163 653.51,-150.34 679.01,-136.47 699,-125.71"/>
<polygon fill="black" stroke="black" points="700.43,-128.91 707.58,-121.1 697.12,-122.75 700.43,-128.91"/>
</g>
<!-- vector::is_empty -->
<g id="node29" class="node">
<title>vector::is_empty</title>
<ellipse fill="none" stroke="black" cx="391" cy="-34" rx="43.59" ry="18"/>
<text text-anchor="middle" x="391" y="-30.3" font-family="Times,serif" font-size="14.00">is_empty</text>
</g>
<!-- option::is_some&#45;&gt;vector::is_empty -->
<g id="edge41" class="edge">
<title>option::is_some&#45;&gt;vector::is_empty</title>
<path fill="none" stroke="black" d="M697.94,-97.64C636.27,-85.06 510.45,-59.38 440.57,-45.12"/>
<polygon fill="black" stroke="black" points="441.42,-41.72 430.93,-43.15 440.02,-48.58 441.42,-41.72"/>
</g>
<!-- option::none -->
<g id="node30" class="node">
<title>option::none</title>
<ellipse fill="none" stroke="black" cx="668" cy="-189" rx="27.9" ry="18"/>
<text text-anchor="middle" x="668" y="-185.3" font-family="Times,serif" font-size="14.00">none</text>
</g>
<!-- simple_map::find&#45;&gt;option::none -->
<g id="edge42" class="edge">
<title>simple_map::find&#45;&gt;option::none</title>
<path fill="none" stroke="black" d="M668,-253.82C668,-243.69 668,-230.6 668,-218.92"/>
<polygon fill="black" stroke="black" points="671.5,-218.95 668,-208.95 664.5,-218.95 671.5,-218.95"/>
</g>
<!-- option::some -->
<g id="node31" class="node">
<title>option::some</title>
<ellipse fill="none" stroke="black" cx="744" cy="-189" rx="29.8" ry="18"/>
<text text-anchor="middle" x="744" y="-185.3" font-family="Times,serif" font-size="14.00">some</text>
</g>
<!-- simple_map::find&#45;&gt;option::some -->
<g id="edge43" class="edge">
<title>simple_map::find&#45;&gt;option::some</title>
<path fill="none" stroke="black" d="M684.36,-257.4C690.99,-251.65 698.58,-244.72 705,-238 711.96,-230.71 719.06,-222.32 725.26,-214.61"/>
<polygon fill="black" stroke="black" points="727.93,-216.87 731.37,-206.85 722.43,-212.54 727.93,-216.87"/>
</g>
<!-- simple_map::contains_key&#45;&gt;option::is_some -->
<g id="edge44" class="edge">
<title>simple_map::contains_key&#45;&gt;option::is_some</title>
<path fill="none" stroke="black" d="M697.32,-334.23C705.45,-332.24 713.95,-330.37 722,-329 732.33,-327.24 808.91,-328.72 816,-321 863.5,-269.28 848.79,-225.1 816,-163 806.87,-145.7 789.72,-132.74 773.46,-123.67"/>
<polygon fill="black" stroke="black" points="775.37,-120.71 764.88,-119.21 772.14,-126.92 775.37,-120.71"/>
</g>
<!-- simple_map::contains_key&#45;&gt;simple_map::find -->
<g id="edge45" class="edge">
<title>simple_map::contains_key&#45;&gt;simple_map::find</title>
<path fill="none" stroke="black" d="M658.84,-328.7C660.19,-320.52 661.83,-310.54 663.35,-301.29"/>
<polygon fill="black" stroke="black" points="666.76,-302.1 664.93,-291.67 659.86,-300.97 666.76,-302.1"/>
</g>
<!-- error::invalid_state&#45;&gt;error::canonical -->
<g id="edge46" class="edge">
<title>error::invalid_state&#45;&gt;error::canonical</title>
<path fill="none" stroke="black" d="M1159.67,-254.22C1149.21,-242.77 1135.19,-227.42 1123.48,-214.6"/>
<polygon fill="black" stroke="black" points="1126.16,-212.35 1116.83,-207.33 1120.99,-217.07 1126.16,-212.35"/>
</g>
<!-- simple_map::borrow_mut&#45;&gt;error::invalid_argument -->
<g id="edge49" class="edge">
<title>simple_map::borrow_mut&#45;&gt;error::invalid_argument</title>
<path fill="none" stroke="black" d="M825.71,-334.31C833.69,-332.28 842.07,-330.38 850,-329 890.87,-321.87 903.37,-333.26 943,-321 961.46,-315.29 980.34,-305.14 995.6,-295.65"/>
<polygon fill="black" stroke="black" points="997.28,-298.73 1003.79,-290.37 993.49,-292.84 997.28,-298.73"/>
</g>
<!-- simple_map::borrow_mut&#45;&gt;option::extract -->
<g id="edge47" class="edge">
<title>simple_map::borrow_mut&#45;&gt;option::extract</title>
<path fill="none" stroke="black" d="M746.29,-334.33C738.3,-332.3 729.93,-330.39 722,-329 702.22,-325.52 647.77,-333.43 632,-321 600.9,-296.48 591.61,-249.1 588.94,-218.55"/>
<polygon fill="black" stroke="black" points="592.45,-218.62 588.29,-208.88 585.47,-219.09 592.45,-218.62"/>
</g>
<!-- simple_map::borrow_mut&#45;&gt;option::is_some -->
<g id="edge48" class="edge">
<title>simple_map::borrow_mut&#45;&gt;option::is_some</title>
<path fill="none" stroke="black" d="M832.86,-337.33C841.17,-333.65 848.82,-328.43 854,-321 894.18,-263.41 891.72,-222.23 854,-163 838.17,-138.14 808.1,-124.14 782.03,-116.35"/>
<polygon fill="black" stroke="black" points="783.18,-113.04 772.61,-113.78 781.34,-119.79 783.18,-113.04"/>
</g>
<!-- simple_map::borrow_mut&#45;&gt;simple_map::find -->
<g id="edge50" class="edge">
<title>simple_map::borrow_mut&#45;&gt;simple_map::find</title>
<path fill="none" stroke="black" d="M752.17,-332.47C744.7,-329.05 736.94,-325.16 730,-321 716.95,-313.19 703.48,-303.05 692.45,-294.11"/>
<polygon fill="black" stroke="black" points="694.91,-291.61 684.98,-287.92 690.45,-297 694.91,-291.61"/>
</g>
<!-- simple_map::add&#45;&gt;error::invalid_argument -->
<g id="edge52" class="edge">
<title>simple_map::add&#45;&gt;error::invalid_argument</title>
<path fill="none" stroke="black" d="M574.02,-334.74C579.08,-332.41 584.62,-330.27 590,-329 666.36,-310.97 867.34,-341.81 943,-321 961.9,-315.8 981.07,-305.5 996.41,-295.77"/>
<polygon fill="black" stroke="black" points="998.21,-298.78 1004.64,-290.35 994.36,-292.93 998.21,-298.78"/>
</g>
<!-- simple_map::add&#45;&gt;simple_map::find -->
<g id="edge53" class="edge">
<title>simple_map::add&#45;&gt;simple_map::find</title>
<path fill="none" stroke="black" d="M573.08,-333.78C591.17,-322.2 618.57,-304.65 639.29,-291.38"/>
<polygon fill="black" stroke="black" points="641.05,-294.41 647.58,-286.07 637.27,-288.52 641.05,-294.41"/>
</g>
<!-- option::is_none -->
<g id="node32" class="node">
<title>option::is_none</title>
<ellipse fill="none" stroke="black" cx="497" cy="-189" rx="38.19" ry="18"/>
<text text-anchor="middle" x="497" y="-185.3" font-family="Times,serif" font-size="14.00">is_none</text>
</g>
<!-- simple_map::add&#45;&gt;option::is_none -->
<g id="edge51" class="edge">
<title>simple_map::add&#45;&gt;option::is_none</title>
<path fill="none" stroke="black" d="M547.79,-329.01C537.98,-302.17 518.81,-249.69 507.03,-217.45"/>
<polygon fill="black" stroke="black" points="510.44,-216.58 503.72,-208.39 503.86,-218.99 510.44,-216.58"/>
</g>
<!-- simple_map::remove&#45;&gt;error::invalid_argument -->
<g id="edge57" class="edge">
<title>simple_map::remove&#45;&gt;error::invalid_argument</title>
<path fill="none" stroke="black" d="M498.66,-334.3C504.92,-332.13 511.6,-330.18 518,-329 564.44,-320.41 897.44,-333.44 943,-321 961.91,-315.84 981.08,-305.54 996.42,-295.81"/>
<polygon fill="black" stroke="black" points="998.23,-298.81 1004.64,-290.38 994.37,-292.97 998.23,-298.81"/>
</g>
<!-- simple_map::remove&#45;&gt;option::extract -->
<g id="edge55" class="edge">
<title>simple_map::remove&#45;&gt;option::extract</title>
<path fill="none" stroke="black" d="M483.3,-329.6C503.81,-302.26 545.1,-247.2 569.25,-215"/>
<polygon fill="black" stroke="black" points="571.76,-217.49 574.96,-207.39 566.16,-213.29 571.76,-217.49"/>
</g>
<!-- simple_map::remove&#45;&gt;option::is_some -->
<g id="edge56" class="edge">
<title>simple_map::remove&#45;&gt;option::is_some</title>
<path fill="none" stroke="black" d="M498.94,-334.33C505.12,-332.19 511.7,-330.24 518,-329 558.59,-320.98 666.34,-338.12 704,-321 750.36,-299.93 764.09,-285.29 783,-238 795.38,-207.05 794.72,-194.2 783,-163 778.37,-150.69 769.67,-139.31 760.88,-130.07"/>
<polygon fill="black" stroke="black" points="763.55,-127.79 753.96,-123.28 758.64,-132.78 763.55,-127.79"/>
</g>
<!-- simple_map::remove&#45;&gt;simple_map::find -->
<g id="edge58" class="edge">
<title>simple_map::remove&#45;&gt;simple_map::find</title>
<path fill="none" stroke="black" d="M499.56,-334.69C505.58,-332.58 511.95,-330.55 518,-329 540.22,-323.29 547.1,-327.86 569,-321 593.3,-313.39 619.14,-300.69 638.32,-290.26"/>
<polygon fill="black" stroke="black" points="639.88,-293.4 646.92,-285.49 636.48,-287.28 639.88,-293.4"/>
</g>
<!-- vector::swap_remove -->
<g id="node33" class="node">
<title>vector::swap_remove</title>
<ellipse fill="none" stroke="black" cx="271" cy="-106" rx="59.59" ry="18"/>
<text text-anchor="middle" x="271" y="-102.3" font-family="Times,serif" font-size="14.00">swap_remove</text>
</g>
<!-- simple_map::remove&#45;&gt;vector::swap_remove -->
<g id="edge54" class="edge">
<title>simple_map::remove&#45;&gt;vector::swap_remove</title>
<path fill="none" stroke="black" d="M457.57,-329.95C423.59,-289.34 333.97,-182.25 292.55,-132.75"/>
<polygon fill="black" stroke="black" points="295.24,-130.52 286.14,-125.1 289.88,-135.01 295.24,-130.52"/>
</g>
<!-- vector::singleton -->
<g id="node34" class="node">
<title>vector::singleton</title>
<ellipse fill="none" stroke="black" cx="392" cy="-106" rx="42.79" ry="18"/>
<text text-anchor="middle" x="392" y="-102.3" font-family="Times,serif" font-size="14.00">singleton</text>
</g>
<!-- option::some&#45;&gt;vector::singleton -->
<g id="edge59" class="edge">
<title>option::some&#45;&gt;vector::singleton</title>
<path fill="none" stroke="black" d="M726.76,-174.12C720.31,-169.72 712.68,-165.38 705,-163 650.21,-146.02 500.39,-175.97 447,-155 434.18,-149.96 422.32,-140.55 412.93,-131.38"/>
<polygon fill="black" stroke="black" points="415.54,-129.04 406.09,-124.26 410.49,-133.89 415.54,-129.04"/>
</g>
<!-- option::is_none&#45;&gt;vector::is_empty -->
<g id="edge60" class="edge">
<title>option::is_none&#45;&gt;vector::is_empty</title>
<path fill="none" stroke="black" d="M491.18,-171.07C482.98,-148.72 466.45,-108.84 444,-80 437.53,-71.7 429.33,-63.83 421.31,-57.06"/>
<polygon fill="black" stroke="black" points="423.61,-54.42 413.63,-50.88 419.22,-59.88 423.61,-54.42"/>
</g>
<!-- vector::swap_remove&#45;&gt;vector::is_empty -->
<g id="edge61" class="edge">
<title>vector::swap_remove&#45;&gt;vector::is_empty</title>
<path fill="none" stroke="black" d="M297.63,-89.46C314.99,-79.34 337.82,-66.02 356.56,-55.09"/>
<polygon fill="black" stroke="black" points="358.3,-58.12 365.18,-50.06 354.78,-52.08 358.3,-58.12"/>
</g>
</g>
</svg>
