<?xml version="1.0" encoding="UTF-8" standalone="no"?>
<!DOCTYPE svg PUBLIC "-//W3C//DTD SVG 1.1//EN"
 "http://www.w3.org/Graphics/SVG/1.1/DTD/svg11.dtd">
<!-- Generated by graphviz version 7.0.4 (20221203.1631)
 -->
<!-- Title: G Pages: 1 -->
<svg width="380pt" height="230pt"
 viewBox="0.00 0.00 380.00 230.00" xmlns="http://www.w3.org/2000/svg" xmlns:xlink="http://www.w3.org/1999/xlink">
<g id="graph0" class="graph" transform="scale(1 1) rotate(0) translate(4 226)">
<title>G</title>
<polygon fill="white" stroke="none" points="-4,4 -4,-226 376,-226 376,4 -4,4"/>
<g id="clust1" class="cluster">
<title>cluster_aptos_governance</title>
<polygon fill="none" stroke="black" points="8,-64 8,-214 228,-214 228,-64 8,-64"/>
<text text-anchor="middle" x="118" y="-198.8" font-family="Times,serif" font-size="14.00">aptos_governance</text>
</g>
<g id="clust2" class="cluster">
<title>cluster_vesting</title>
<polygon fill="none" stroke="black" points="236,-64 236,-139 364,-139 364,-64 236,-64"/>
<text text-anchor="middle" x="300" y="-123.8" font-family="Times,serif" font-size="14.00">vesting</text>
</g>
<!-- get_lockup_secs -->
<g id="node1" class="node">
<title>get_lockup_secs</title>
<ellipse fill="none" stroke="black" cx="202" cy="-18" rx="68.79" ry="18"/>
<text text-anchor="middle" x="202" y="-14.3" font-family="Times,serif" font-size="14.00">get_lockup_secs</text>
</g>
<!-- aptos_governance::create_proposal_v2 -->
<g id="node2" class="node">
<title>aptos_governance::create_proposal_v2</title>
<ellipse fill="none" stroke="black" cx="95" cy="-90" rx="79.09" ry="18"/>
<text text-anchor="middle" x="95" y="-86.3" font-family="Times,serif" font-size="14.00">create_proposal_v2</text>
</g>
<!-- aptos_governance::create_proposal_v2&#45;&gt;get_lockup_secs -->
<g id="edge1" class="edge">
<title>aptos_governance::create_proposal_v2&#45;&gt;get_lockup_secs</title>
<path fill="none" stroke="black" d="M120.09,-72.59C134.41,-63.22 152.56,-51.34 168.13,-41.16"/>
<polygon fill="black" stroke="black" points="169.72,-44.3 176.17,-35.9 165.89,-38.44 169.72,-44.3"/>
</g>
<!-- aptos_governance::vote -->
<g id="node3" class="node">
<title>aptos_governance::vote</title>
<ellipse fill="none" stroke="black" cx="193" cy="-165" rx="27" ry="18"/>
<text text-anchor="middle" x="193" y="-161.3" font-family="Times,serif" font-size="14.00">vote</text>
</g>
<!-- aptos_governance::vote&#45;&gt;get_lockup_secs -->
<g id="edge2" class="edge">
<title>aptos_governance::vote&#45;&gt;get_lockup_secs</title>
<path fill="none" stroke="black" d="M194.07,-146.8C195.59,-122.27 198.4,-76.95 200.24,-47.4"/>
<polygon fill="black" stroke="black" points="203.71,-47.89 200.84,-37.69 196.73,-47.45 203.71,-47.89"/>
</g>
<!-- vesting::reset_lockup -->
<g id="node4" class="node">
<title>vesting::reset_lockup</title>
<ellipse fill="none" stroke="black" cx="300" cy="-90" rx="55.79" ry="18"/>
<text text-anchor="middle" x="300" y="-86.3" font-family="Times,serif" font-size="14.00">reset_lockup</text>
</g>
<!-- vesting::reset_lockup&#45;&gt;get_lockup_secs -->
<g id="edge3" class="edge">
<title>vesting::reset_lockup&#45;&gt;get_lockup_secs</title>
<path fill="none" stroke="black" d="M277.76,-73.12C264.79,-63.85 248.21,-52.01 233.87,-41.76"/>
<polygon fill="black" stroke="black" points="236.23,-39.15 226.06,-36.19 232.16,-44.85 236.23,-39.15"/>
</g>
<!-- aptos_governance::create_proposal -->
<g id="node5" class="node">
<title>aptos_governance::create_proposal</title>
<ellipse fill="none" stroke="black" cx="82" cy="-165" rx="66.09" ry="18"/>
<text text-anchor="middle" x="82" y="-161.3" font-family="Times,serif" font-size="14.00">create_proposal</text>
</g>
<!-- aptos_governance::create_proposal&#45;&gt;aptos_governance::create_proposal_v2 -->
<g id="edge4" class="edge">
<title>aptos_governance::create_proposal&#45;&gt;aptos_governance::create_proposal_v2</title>
<path fill="none" stroke="black" d="M85.08,-146.7C86.53,-138.58 88.29,-128.68 89.93,-119.5"/>
<polygon fill="black" stroke="black" points="93.32,-120.38 91.63,-109.92 86.43,-119.15 93.32,-120.38"/>
</g>
</g>
</svg>
