<?xml version="1.0" encoding="UTF-8" standalone="no"?>
<!DOCTYPE svg PUBLIC "-//W3C//DTD SVG 1.1//EN"
 "http://www.w3.org/Graphics/SVG/1.1/DTD/svg11.dtd">
<!-- Generated by graphviz version 7.0.4 (20221203.1631)
 -->
<!-- Title: G Pages: 1 -->
<svg width="696pt" height="459pt"
 viewBox="0.00 0.00 695.97 459.00" xmlns="http://www.w3.org/2000/svg" xmlns:xlink="http://www.w3.org/1999/xlink">
<g id="graph0" class="graph" transform="scale(1 1) rotate(0) translate(4 455)">
<title>G</title>
<polygon fill="white" stroke="none" points="-4,4 -4,-455 691.97,-455 691.97,4 -4,4"/>
<g id="clust1" class="cluster">
<title>cluster_coin</title>
<polygon fill="none" stroke="black" points="69,-257 69,-407 301,-407 301,-257 69,-257"/>
<text text-anchor="middle" x="185" y="-391.8" font-family="Times,serif" font-size="14.00">coin</text>
</g>
<g id="clust2" class="cluster">
<title>cluster_option</title>
<polygon fill="none" stroke="black" points="549,-91 549,-249 675,-249 675,-91 549,-91"/>
<text text-anchor="middle" x="612" y="-233.8" font-family="Times,serif" font-size="14.00">option</text>
</g>
<g id="clust4" class="cluster">
<title>cluster_vector</title>
<polygon fill="none" stroke="black" points="560,-8 560,-83 664,-83 664,-8 560,-8"/>
<text text-anchor="middle" x="612" y="-67.8" font-family="Times,serif" font-size="14.00">vector</text>
</g>
<g id="clust5" class="cluster">
<title>cluster_aggregator</title>
<polygon fill="none" stroke="black" points="467,-174 467,-249 541,-249 541,-174 467,-174"/>
<text text-anchor="middle" x="504" y="-233.8" font-family="Times,serif" font-size="14.00">aggregator</text>
</g>
<g id="clust6" class="cluster">
<title>cluster_type_info</title>
<polygon fill="none" stroke="black" points="8,-174 8,-249 256,-249 256,-174 8,-174"/>
<text text-anchor="middle" x="132" y="-233.8" font-family="Times,serif" font-size="14.00">type_info</text>
</g>
<g id="clust7" class="cluster">
<title>cluster_error</title>
<polygon fill="none" stroke="black" points="303,-8 303,-166 435,-166 435,-8 303,-8"/>
<text text-anchor="middle" x="369" y="-150.8" font-family="Times,serif" font-size="14.00">error</text>
</g>
<g id="clust3" class="cluster">
<title>cluster_optional_aggregator</title>
<polygon fill="none" stroke="black" points="309,-174 309,-332 434,-332 434,-174 309,-174"/>
<text text-anchor="middle" x="371.5" y="-316.8" font-family="Times,serif" font-size="14.00">optional_aggregator</text>
</g>
<!-- distribute_rewards -->
<g id="node1" class="node">
<title>distribute_rewards</title>
<ellipse fill="none" stroke="black" cx="222" cy="-433" rx="76.09" ry="18"/>
<text text-anchor="middle" x="222" y="-429.3" font-family="Times,serif" font-size="14.00">distribute_rewards</text>
</g>
<!-- coin::value -->
<g id="node2" class="node">
<title>coin::value</title>
<ellipse fill="none" stroke="black" cx="263" cy="-358" rx="29.8" ry="18"/>
<text text-anchor="middle" x="263" y="-354.3" font-family="Times,serif" font-size="14.00">value</text>
</g>
<!-- distribute_rewards&#45;&gt;coin::value -->
<g id="edge1" class="edge">
<title>distribute_rewards&#45;&gt;coin::value</title>
<path fill="none" stroke="black" d="M231.72,-414.7C236.71,-405.81 242.89,-394.8 248.44,-384.92"/>
<polygon fill="black" stroke="black" points="251.33,-386.93 253.17,-376.5 245.23,-383.5 251.33,-386.93"/>
</g>
<!-- coin::merge -->
<g id="node3" class="node">
<title>coin::merge</title>
<ellipse fill="none" stroke="black" cx="182" cy="-358" rx="33.29" ry="18"/>
<text text-anchor="middle" x="182" y="-354.3" font-family="Times,serif" font-size="14.00">merge</text>
</g>
<!-- distribute_rewards&#45;&gt;coin::merge -->
<g id="edge2" class="edge">
<title>distribute_rewards&#45;&gt;coin::merge</title>
<path fill="none" stroke="black" d="M212.52,-414.7C207.77,-406.03 201.91,-395.34 196.6,-385.65"/>
<polygon fill="black" stroke="black" points="199.74,-384.09 191.86,-377 193.6,-387.45 199.74,-384.09"/>
</g>
<!-- coin::mint -->
<g id="node4" class="node">
<title>coin::mint</title>
<ellipse fill="none" stroke="black" cx="104" cy="-358" rx="27.1" ry="18"/>
<text text-anchor="middle" x="104" y="-354.3" font-family="Times,serif" font-size="14.00">mint</text>
</g>
<!-- distribute_rewards&#45;&gt;coin::mint -->
<g id="edge3" class="edge">
<title>distribute_rewards&#45;&gt;coin::mint</title>
<path fill="none" stroke="black" d="M166.4,-420.29C157.11,-416.9 147.92,-412.55 140,-407 131.75,-401.22 124.6,-392.96 118.89,-384.91"/>
<polygon fill="black" stroke="black" points="121.9,-383.11 113.5,-376.66 116.04,-386.94 121.9,-383.11"/>
</g>
<!-- calculate_rewards_amount -->
<g id="node5" class="node">
<title>calculate_rewards_amount</title>
<ellipse fill="none" stroke="black" cx="416" cy="-358" rx="105.08" ry="18"/>
<text text-anchor="middle" x="416" y="-354.3" font-family="Times,serif" font-size="14.00">calculate_rewards_amount</text>
</g>
<!-- distribute_rewards&#45;&gt;calculate_rewards_amount -->
<g id="edge4" class="edge">
<title>distribute_rewards&#45;&gt;calculate_rewards_amount</title>
<path fill="none" stroke="black" d="M269.72,-418.66C281.35,-415.12 293.69,-411.13 305,-407 326.9,-399 350.68,-388.91 370.6,-380.04"/>
<polygon fill="black" stroke="black" points="371.86,-383.31 379.55,-376.02 368.99,-376.93 371.86,-383.31"/>
</g>
<!-- option::borrow_mut -->
<g id="node6" class="node">
<title>option::borrow_mut</title>
<ellipse fill="none" stroke="black" cx="612" cy="-200" rx="54.69" ry="18"/>
<text text-anchor="middle" x="612" y="-196.3" font-family="Times,serif" font-size="14.00">borrow_mut</text>
</g>
<!-- coin::mint&#45;&gt;option::borrow_mut -->
<g id="edge5" class="edge">
<title>coin::mint&#45;&gt;option::borrow_mut</title>
<path fill="none" stroke="black" d="M124.4,-345.59C129.37,-343.32 134.76,-341.25 140,-340 172.22,-332.32 406.73,-342.92 438,-332 500.32,-310.23 558.57,-257.23 589.31,-225.71"/>
<polygon fill="black" stroke="black" points="591.8,-228.18 596.18,-218.53 586.74,-223.34 591.8,-228.18"/>
</g>
<!-- option::is_some -->
<g id="node7" class="node">
<title>option::is_some</title>
<ellipse fill="none" stroke="black" cx="612" cy="-117" rx="40.09" ry="18"/>
<text text-anchor="middle" x="612" y="-113.3" font-family="Times,serif" font-size="14.00">is_some</text>
</g>
<!-- coin::mint&#45;&gt;option::is_some -->
<g id="edge6" class="edge">
<title>coin::mint&#45;&gt;option::is_some</title>
<path fill="none" stroke="black" d="M124.4,-345.57C129.36,-343.3 134.75,-341.24 140,-340 220.05,-321.14 430.17,-351.76 510,-332 590.07,-312.18 632.63,-319.17 676,-249 693.52,-220.64 689.77,-204.35 676,-174 669.49,-159.64 657.27,-147.52 645.24,-138.27"/>
<polygon fill="black" stroke="black" points="647.58,-135.63 637.41,-132.64 643.49,-141.32 647.58,-135.63"/>
</g>
<!-- optional_aggregator::add -->
<g id="node8" class="node">
<title>optional_aggregator::add</title>
<ellipse fill="none" stroke="black" cx="399" cy="-283" rx="27" ry="18"/>
<text text-anchor="middle" x="399" y="-279.3" font-family="Times,serif" font-size="14.00">add</text>
</g>
<!-- coin::mint&#45;&gt;optional_aggregator::add -->
<g id="edge7" class="edge">
<title>coin::mint&#45;&gt;optional_aggregator::add</title>
<path fill="none" stroke="black" d="M124.42,-345.67C129.38,-343.4 134.77,-341.31 140,-340 211.23,-322.2 234.05,-350.89 305,-332 328.5,-325.74 352.89,-313.08 370.94,-302.32"/>
<polygon fill="black" stroke="black" points="372.54,-305.45 379.23,-297.23 368.88,-299.48 372.54,-305.45"/>
</g>
<!-- coin::coin_address -->
<g id="node9" class="node">
<title>coin::coin_address</title>
<ellipse fill="none" stroke="black" cx="134" cy="-283" rx="56.59" ry="18"/>
<text text-anchor="middle" x="134" y="-279.3" font-family="Times,serif" font-size="14.00">coin_address</text>
</g>
<!-- coin::mint&#45;&gt;coin::coin_address -->
<g id="edge8" class="edge">
<title>coin::mint&#45;&gt;coin::coin_address</title>
<path fill="none" stroke="black" d="M110.81,-340.44C114.3,-331.94 118.65,-321.36 122.63,-311.67"/>
<polygon fill="black" stroke="black" points="125.77,-313.24 126.33,-302.66 119.29,-310.58 125.77,-313.24"/>
</g>
<!-- coin::zero -->
<g id="node10" class="node">
<title>coin::zero</title>
<ellipse fill="none" stroke="black" cx="236" cy="-283" rx="27" ry="18"/>
<text text-anchor="middle" x="236" y="-279.3" font-family="Times,serif" font-size="14.00">zero</text>
</g>
<!-- coin::mint&#45;&gt;coin::zero -->
<g id="edge9" class="edge">
<title>coin::mint&#45;&gt;coin::zero</title>
<path fill="none" stroke="black" d="M124.51,-345.99C129.47,-343.7 134.83,-341.53 140,-340 165.8,-332.39 176.79,-345.6 200,-332 208.91,-326.78 216.33,-318.4 222.06,-310.09"/>
<polygon fill="black" stroke="black" points="224.88,-312.18 227.21,-301.85 218.94,-308.47 224.88,-312.18"/>
</g>
<!-- option::borrow_mut&#45;&gt;option::is_some -->
<g id="edge10" class="edge">
<title>option::borrow_mut&#45;&gt;option::is_some</title>
<path fill="none" stroke="black" d="M612,-181.82C612,-171.69 612,-158.6 612,-146.92"/>
<polygon fill="black" stroke="black" points="615.5,-146.95 612,-136.95 608.5,-146.95 615.5,-146.95"/>
</g>
<!-- vector::is_empty -->
<g id="node11" class="node">
<title>vector::is_empty</title>
<ellipse fill="none" stroke="black" cx="612" cy="-34" rx="43.59" ry="18"/>
<text text-anchor="middle" x="612" y="-30.3" font-family="Times,serif" font-size="14.00">is_empty</text>
</g>
<!-- option::is_some&#45;&gt;vector::is_empty -->
<g id="edge11" class="edge">
<title>option::is_some&#45;&gt;vector::is_empty</title>
<path fill="none" stroke="black" d="M612,-98.82C612,-88.69 612,-75.6 612,-63.92"/>
<polygon fill="black" stroke="black" points="615.5,-63.95 612,-53.95 608.5,-63.95 615.5,-63.95"/>
</g>
<!-- optional_aggregator::add&#45;&gt;option::borrow_mut -->
<g id="edge12" class="edge">
<title>optional_aggregator::add&#45;&gt;option::borrow_mut</title>
<path fill="none" stroke="black" d="M424.56,-276.8C463.44,-268.8 534.09,-253.9 545,-249 559.11,-242.66 573.25,-233.12 584.88,-224.21"/>
<polygon fill="black" stroke="black" points="586.78,-227.17 592.44,-218.21 582.43,-221.69 586.78,-227.17"/>
</g>
<!-- optional_aggregator::add&#45;&gt;option::is_some -->
<g id="edge13" class="edge">
<title>optional_aggregator::add&#45;&gt;option::is_some</title>
<path fill="none" stroke="black" d="M414.36,-267.8C419.76,-262.28 425.58,-255.69 430,-249 450.09,-218.63 436.55,-199.03 463,-174 490.56,-147.92 531.42,-133.7 563.39,-126.13"/>
<polygon fill="black" stroke="black" points="563.8,-129.62 572.81,-124.05 562.29,-122.79 563.8,-129.62"/>
</g>
<!-- aggregator::add -->
<g id="node12" class="node">
<title>aggregator::add</title>
<ellipse fill="none" stroke="black" cx="504" cy="-200" rx="27" ry="18"/>
<text text-anchor="middle" x="504" y="-196.3" font-family="Times,serif" font-size="14.00">add</text>
</g>
<!-- optional_aggregator::add&#45;&gt;aggregator::add -->
<g id="edge14" class="edge">
<title>optional_aggregator::add&#45;&gt;aggregator::add</title>
<path fill="none" stroke="black" d="M421.9,-272.82C434.71,-267.06 450.56,-258.86 463,-249 471.49,-242.28 479.53,-233.59 486.21,-225.46"/>
<polygon fill="black" stroke="black" points="488.77,-227.87 492.19,-217.84 483.26,-223.55 488.77,-227.87"/>
</g>
<!-- optional_aggregator::add_integer -->
<g id="node13" class="node">
<title>optional_aggregator::add_integer</title>
<ellipse fill="none" stroke="black" cx="369" cy="-200" rx="51.99" ry="18"/>
<text text-anchor="middle" x="369" y="-196.3" font-family="Times,serif" font-size="14.00">add_integer</text>
</g>
<!-- optional_aggregator::add&#45;&gt;optional_aggregator::add_integer -->
<g id="edge15" class="edge">
<title>optional_aggregator::add&#45;&gt;optional_aggregator::add_integer</title>
<path fill="none" stroke="black" d="M392.78,-265.22C388.89,-254.72 383.79,-240.93 379.3,-228.82"/>
<polygon fill="black" stroke="black" points="382.7,-227.9 375.94,-219.74 376.13,-230.33 382.7,-227.9"/>
</g>
<!-- type_info::account_address -->
<g id="node14" class="node">
<title>type_info::account_address</title>
<ellipse fill="none" stroke="black" cx="179" cy="-200" rx="68.79" ry="18"/>
<text text-anchor="middle" x="179" y="-196.3" font-family="Times,serif" font-size="14.00">account_address</text>
</g>
<!-- coin::coin_address&#45;&gt;type_info::account_address -->
<g id="edge16" class="edge">
<title>coin::coin_address&#45;&gt;type_info::account_address</title>
<path fill="none" stroke="black" d="M143.54,-264.82C149.45,-254.19 157.16,-240.31 163.89,-228.2"/>
<polygon fill="black" stroke="black" points="166.94,-229.92 168.74,-219.48 160.82,-226.52 166.94,-229.92"/>
</g>
<!-- type_info::type_of -->
<g id="node15" class="node">
<title>type_info::type_of</title>
<ellipse fill="none" stroke="black" cx="54" cy="-200" rx="37.89" ry="18"/>
<text text-anchor="middle" x="54" y="-196.3" font-family="Times,serif" font-size="14.00">type_of</text>
</g>
<!-- coin::coin_address&#45;&gt;type_info::type_of -->
<g id="edge17" class="edge">
<title>coin::coin_address&#45;&gt;type_info::type_of</title>
<path fill="none" stroke="black" d="M117.52,-265.58C112.23,-260.3 106.36,-254.41 101,-249 93.17,-241.09 84.64,-232.4 77.03,-224.62"/>
<polygon fill="black" stroke="black" points="79.75,-222.39 70.26,-217.69 74.74,-227.29 79.75,-222.39"/>
</g>
<!-- error::out_of_range -->
<g id="node16" class="node">
<title>error::out_of_range</title>
<ellipse fill="none" stroke="black" cx="369" cy="-117" rx="57.69" ry="18"/>
<text text-anchor="middle" x="369" y="-113.3" font-family="Times,serif" font-size="14.00">out_of_range</text>
</g>
<!-- optional_aggregator::add_integer&#45;&gt;error::out_of_range -->
<g id="edge18" class="edge">
<title>optional_aggregator::add_integer&#45;&gt;error::out_of_range</title>
<path fill="none" stroke="black" d="M369,-181.82C369,-171.69 369,-158.6 369,-146.92"/>
<polygon fill="black" stroke="black" points="372.5,-146.95 369,-136.95 365.5,-146.95 372.5,-146.95"/>
</g>
<!-- error::canonical -->
<g id="node17" class="node">
<title>error::canonical</title>
<ellipse fill="none" stroke="black" cx="369" cy="-34" rx="44.39" ry="18"/>
<text text-anchor="middle" x="369" y="-30.3" font-family="Times,serif" font-size="14.00">canonical</text>
</g>
<!-- error::out_of_range&#45;&gt;error::canonical -->
<g id="edge19" class="edge">
<title>error::out_of_range&#45;&gt;error::canonical</title>
<path fill="none" stroke="black" d="M369,-98.82C369,-88.69 369,-75.6 369,-63.92"/>
<polygon fill="black" stroke="black" points="372.5,-63.95 369,-53.95 365.5,-63.95 372.5,-63.95"/>
</g>
</g>
</svg>
