<?xml version="1.0" encoding="UTF-8" standalone="no"?>
<!DOCTYPE svg PUBLIC "-//W3C//DTD SVG 1.1//EN"
 "http://www.w3.org/Graphics/SVG/1.1/DTD/svg11.dtd">
<!-- Generated by graphviz version 7.0.4 (20221203.1631)
 -->
<!-- Title: G Pages: 1 -->
<svg width="2345pt" height="448pt"
 viewBox="0.00 0.00 2345.00 448.00" xmlns="http://www.w3.org/2000/svg" xmlns:xlink="http://www.w3.org/1999/xlink">
<g id="graph0" class="graph" transform="scale(1 1) rotate(0) translate(4 444)">
<title>G</title>
<polygon fill="white" stroke="none" points="-4,4 -4,-444 2341,-444 2341,4 -4,4"/>
<g id="clust1" class="cluster">
<title>cluster_error</title>
<polygon fill="none" stroke="black" points="800,-91 800,-249 1242,-249 1242,-91 800,-91"/>
<text text-anchor="middle" x="1021" y="-233.8" font-family="Times,serif" font-size="14.00">error</text>
</g>
<g id="clust2" class="cluster">
<title>cluster_staking_config</title>
<polygon fill="none" stroke="black" points="8,-174 8,-249 792,-249 792,-174 8,-174"/>
<text text-anchor="middle" x="400" y="-233.8" font-family="Times,serif" font-size="14.00">staking_config</text>
</g>
<g id="clust3" class="cluster">
<title>cluster_vector</title>
<polygon fill="none" stroke="black" points="1644,-8 1644,-83 1851,-83 1851,-8 1644,-8"/>
<text text-anchor="middle" x="1747.5" y="-67.8" font-family="Times,serif" font-size="14.00">vector</text>
</g>
<g id="clust4" class="cluster">
<title>cluster_signer</title>
<polygon fill="none" stroke="black" points="1881,-174 1881,-324 2031,-324 2031,-174 1881,-174"/>
<text text-anchor="middle" x="1956" y="-308.8" font-family="Times,serif" font-size="14.00">signer</text>
</g>
<g id="clust5" class="cluster">
<title>cluster_event</title>
<polygon fill="none" stroke="black" points="2039,-174 2039,-324 2225,-324 2225,-174 2039,-174"/>
<text text-anchor="middle" x="2132" y="-308.8" font-family="Times,serif" font-size="14.00">event</text>
</g>
<g id="clust6" class="cluster">
<title>cluster_bcs</title>
<polygon fill="none" stroke="black" points="2233,-174 2233,-249 2329,-249 2329,-174 2233,-174"/>
<text text-anchor="middle" x="2281" y="-233.8" font-family="Times,serif" font-size="14.00">bcs</text>
</g>
<g id="clust7" class="cluster">
<title>cluster_coin</title>
<polygon fill="none" stroke="black" points="1537,-91 1537,-166 1613,-166 1613,-91 1537,-91"/>
<text text-anchor="middle" x="1575" y="-150.8" font-family="Times,serif" font-size="14.00">coin</text>
</g>
<g id="clust8" class="cluster">
<title>cluster_option</title>
<polygon fill="none" stroke="black" points="1648,-91 1648,-166 1896,-166 1896,-91 1648,-91"/>
<text text-anchor="middle" x="1772" y="-150.8" font-family="Times,serif" font-size="14.00">option</text>
</g>
<!-- join_validator_set -->
<g id="node1" class="node">
<title>join_validator_set</title>
<ellipse fill="none" stroke="black" cx="667" cy="-422" rx="74.19" ry="18"/>
<text text-anchor="middle" x="667" y="-418.3" font-family="Times,serif" font-size="14.00">join_validator_set</text>
</g>
<!-- error::invalid_argument -->
<g id="node2" class="node">
<title>error::invalid_argument</title>
<ellipse fill="none" stroke="black" cx="881" cy="-200" rx="73.39" ry="18"/>
<text text-anchor="middle" x="881" y="-196.3" font-family="Times,serif" font-size="14.00">invalid_argument</text>
</g>
<!-- join_validator_set&#45;&gt;error::invalid_argument -->
<g id="edge1" class="edge">
<title>join_validator_set&#45;&gt;error::invalid_argument</title>
<path fill="none" stroke="black" d="M707.67,-406.55C745.16,-391.32 800,-363.97 834,-324 857.35,-296.54 869.77,-256.25 875.86,-229.35"/>
<polygon fill="black" stroke="black" points="879.22,-230.36 877.85,-219.85 872.37,-228.92 879.22,-230.36"/>
</g>
<!-- staking_config::get -->
<g id="node3" class="node">
<title>staking_config::get</title>
<ellipse fill="none" stroke="black" cx="481" cy="-200" rx="27" ry="18"/>
<text text-anchor="middle" x="481" y="-196.3" font-family="Times,serif" font-size="14.00">get</text>
</g>
<!-- join_validator_set&#45;&gt;staking_config::get -->
<g id="edge2" class="edge">
<title>join_validator_set&#45;&gt;staking_config::get</title>
<path fill="none" stroke="black" d="M634.66,-405.4C603.72,-389 557.65,-360.52 529,-324 506.8,-295.69 493.78,-255.86 487.02,-229.27"/>
<polygon fill="black" stroke="black" points="490.43,-228.47 484.7,-219.55 483.62,-230.09 490.43,-228.47"/>
</g>
<!-- staking_config::get_allow_validator_set_change -->
<g id="node4" class="node">
<title>staking_config::get_allow_validator_set_change</title>
<ellipse fill="none" stroke="black" cx="140" cy="-200" rx="124.28" ry="18"/>
<text text-anchor="middle" x="140" y="-196.3" font-family="Times,serif" font-size="14.00">get_allow_validator_set_change</text>
</g>
<!-- join_validator_set&#45;&gt;staking_config::get_allow_validator_set_change -->
<g id="edge3" class="edge">
<title>join_validator_set&#45;&gt;staking_config::get_allow_validator_set_change</title>
<path fill="none" stroke="black" d="M629.08,-406.14C602.42,-395.63 565.95,-381.14 534,-368 409.07,-316.64 262.87,-254 188.62,-222.01"/>
<polygon fill="black" stroke="black" points="190.15,-218.86 179.59,-218.11 187.38,-225.29 190.15,-218.86"/>
</g>
<!-- join_validator_set_internal -->
<g id="node5" class="node">
<title>join_validator_set_internal</title>
<ellipse fill="none" stroke="black" cx="1160" cy="-350" rx="105.08" ry="18"/>
<text text-anchor="middle" x="1160" y="-346.3" font-family="Times,serif" font-size="14.00">join_validator_set_internal</text>
</g>
<!-- join_validator_set&#45;&gt;join_validator_set_internal -->
<g id="edge4" class="edge">
<title>join_validator_set&#45;&gt;join_validator_set_internal</title>
<path fill="none" stroke="black" d="M729.94,-412.06C816.17,-399.82 971.55,-377.76 1070.04,-363.77"/>
<polygon fill="black" stroke="black" points="1070.26,-367.28 1079.67,-362.41 1069.28,-360.35 1070.26,-367.28"/>
</g>
<!-- error::canonical -->
<g id="node6" class="node">
<title>error::canonical</title>
<ellipse fill="none" stroke="black" cx="1028" cy="-117" rx="44.39" ry="18"/>
<text text-anchor="middle" x="1028" y="-113.3" font-family="Times,serif" font-size="14.00">canonical</text>
</g>
<!-- error::invalid_argument&#45;&gt;error::canonical -->
<g id="edge5" class="edge">
<title>error::invalid_argument&#45;&gt;error::canonical</title>
<path fill="none" stroke="black" d="M910.04,-183C933.72,-169.95 967.26,-151.47 992.53,-137.54"/>
<polygon fill="black" stroke="black" points="994.06,-140.7 1001.13,-132.81 990.68,-134.57 994.06,-140.7"/>
</g>
<!-- join_validator_set_internal&#45;&gt;error::invalid_argument -->
<g id="edge8" class="edge">
<title>join_validator_set_internal&#45;&gt;error::invalid_argument</title>
<path fill="none" stroke="black" d="M1059.6,-344.45C995.17,-340.59 921.48,-334.06 910,-324 883.43,-300.72 878.81,-258.07 879.04,-229.63"/>
<polygon fill="black" stroke="black" points="882.53,-230.02 879.34,-219.92 875.53,-229.8 882.53,-230.02"/>
</g>
<!-- join_validator_set_internal&#45;&gt;staking_config::get -->
<g id="edge12" class="edge">
<title>join_validator_set_internal&#45;&gt;staking_config::get</title>
<path fill="none" stroke="black" d="M1054.44,-349.7C897.38,-349.97 616.26,-347.13 576,-324 545.32,-306.37 559.32,-280.65 533,-257 527.09,-251.69 523.1,-254.09 517,-249 509.38,-242.64 502.45,-234.37 496.74,-226.49"/>
<polygon fill="black" stroke="black" points="499.81,-224.77 491.29,-218.47 494.02,-228.71 499.81,-224.77"/>
</g>
<!-- vector::is_empty -->
<g id="node7" class="node">
<title>vector::is_empty</title>
<ellipse fill="none" stroke="black" cx="1696" cy="-34" rx="43.59" ry="18"/>
<text text-anchor="middle" x="1696" y="-30.3" font-family="Times,serif" font-size="14.00">is_empty</text>
</g>
<!-- join_validator_set_internal&#45;&gt;vector::is_empty -->
<g id="edge6" class="edge">
<title>join_validator_set_internal&#45;&gt;vector::is_empty</title>
<path fill="none" stroke="black" d="M1226.78,-335.78C1281.13,-322.06 1356.95,-295.85 1408,-249 1435.53,-223.73 1423.72,-204 1446,-174 1477.87,-131.1 1487.34,-118.77 1533,-91 1568.37,-69.49 1613.12,-54.87 1646.78,-45.98"/>
<polygon fill="black" stroke="black" points="1647.45,-49.42 1656.27,-43.56 1645.72,-42.64 1647.45,-49.42"/>
</g>
<!-- signer::address_of -->
<g id="node8" class="node">
<title>signer::address_of</title>
<ellipse fill="none" stroke="black" cx="1947" cy="-275" rx="48.99" ry="18"/>
<text text-anchor="middle" x="1947" y="-271.3" font-family="Times,serif" font-size="14.00">address_of</text>
</g>
<!-- join_validator_set_internal&#45;&gt;signer::address_of -->
<g id="edge7" class="edge">
<title>join_validator_set_internal&#45;&gt;signer::address_of</title>
<path fill="none" stroke="black" d="M1265.33,-349.84C1427.5,-350.33 1730.62,-347.85 1836,-324 1862.1,-318.09 1889.73,-306.17 1910.89,-295.68"/>
<polygon fill="black" stroke="black" points="1912.35,-298.87 1919.68,-291.21 1909.18,-292.63 1912.35,-298.87"/>
</g>
<!-- error::invalid_state -->
<g id="node9" class="node">
<title>error::invalid_state</title>
<ellipse fill="none" stroke="black" cx="1028" cy="-200" rx="55.79" ry="18"/>
<text text-anchor="middle" x="1028" y="-196.3" font-family="Times,serif" font-size="14.00">invalid_state</text>
</g>
<!-- join_validator_set_internal&#45;&gt;error::invalid_state -->
<g id="edge9" class="edge">
<title>join_validator_set_internal&#45;&gt;error::invalid_state</title>
<path fill="none" stroke="black" d="M1157.54,-331.78C1153.65,-311.05 1144.14,-276.58 1122,-257 1111.98,-248.14 1105.02,-254.85 1093,-249 1079.6,-242.48 1066.12,-233.11 1054.94,-224.37"/>
<polygon fill="black" stroke="black" points="1057.3,-221.77 1047.32,-218.2 1052.9,-227.21 1057.3,-221.77"/>
</g>
<!-- error::unauthenticated -->
<g id="node10" class="node">
<title>error::unauthenticated</title>
<ellipse fill="none" stroke="black" cx="1168" cy="-200" rx="66.09" ry="18"/>
<text text-anchor="middle" x="1168" y="-196.3" font-family="Times,serif" font-size="14.00">unauthenticated</text>
</g>
<!-- join_validator_set_internal&#45;&gt;error::unauthenticated -->
<g id="edge10" class="edge">
<title>join_validator_set_internal&#45;&gt;error::unauthenticated</title>
<path fill="none" stroke="black" d="M1160.93,-331.73C1162.29,-306.67 1164.82,-259.9 1166.45,-229.63"/>
<polygon fill="black" stroke="black" points="1169.95,-229.84 1166.99,-219.67 1162.96,-229.46 1169.95,-229.84"/>
</g>
<!-- event::emit_event -->
<g id="node11" class="node">
<title>event::emit_event</title>
<ellipse fill="none" stroke="black" cx="2132" cy="-275" rx="50.09" ry="18"/>
<text text-anchor="middle" x="2132" y="-271.3" font-family="Times,serif" font-size="14.00">emit_event</text>
</g>
<!-- join_validator_set_internal&#45;&gt;event::emit_event -->
<g id="edge11" class="edge">
<title>join_validator_set_internal&#45;&gt;event::emit_event</title>
<path fill="none" stroke="black" d="M1265.2,-348.52C1481.54,-347.16 1962.23,-342.12 2035,-324 2057.36,-318.43 2080.55,-307.19 2098.65,-296.98"/>
<polygon fill="black" stroke="black" points="2100.22,-300.12 2107.1,-292.06 2096.7,-294.07 2100.22,-300.12"/>
</g>
<!-- staking_config::get_required_stake -->
<g id="node12" class="node">
<title>staking_config::get_required_stake</title>
<ellipse fill="none" stroke="black" cx="359" cy="-200" rx="77.19" ry="18"/>
<text text-anchor="middle" x="359" y="-196.3" font-family="Times,serif" font-size="14.00">get_required_stake</text>
</g>
<!-- join_validator_set_internal&#45;&gt;staking_config::get_required_stake -->
<g id="edge13" class="edge">
<title>join_validator_set_internal&#45;&gt;staking_config::get_required_stake</title>
<path fill="none" stroke="black" d="M1055.09,-348.06C889.39,-346.1 580.9,-340.28 533,-324 472.81,-303.54 415.02,-255.13 383.53,-225.51"/>
<polygon fill="black" stroke="black" points="386.11,-223.12 376.46,-218.73 381.27,-228.18 386.11,-223.12"/>
</g>
<!-- assert_stake_pool_exists -->
<g id="node13" class="node">
<title>assert_stake_pool_exists</title>
<ellipse fill="none" stroke="black" cx="1016" cy="-275" rx="97.48" ry="18"/>
<text text-anchor="middle" x="1016" y="-271.3" font-family="Times,serif" font-size="14.00">assert_stake_pool_exists</text>
</g>
<!-- join_validator_set_internal&#45;&gt;assert_stake_pool_exists -->
<g id="edge14" class="edge">
<title>join_validator_set_internal&#45;&gt;assert_stake_pool_exists</title>
<path fill="none" stroke="black" d="M1127.32,-332.44C1106.84,-322.05 1080.22,-308.56 1058.15,-297.37"/>
<polygon fill="black" stroke="black" points="1059.9,-294.33 1049.4,-292.93 1056.74,-300.58 1059.9,-294.33"/>
</g>
<!-- generate_validator_info -->
<g id="node14" class="node">
<title>generate_validator_info</title>
<ellipse fill="none" stroke="black" cx="1522" cy="-275" rx="94.78" ry="18"/>
<text text-anchor="middle" x="1522" y="-271.3" font-family="Times,serif" font-size="14.00">generate_validator_info</text>
</g>
<!-- join_validator_set_internal&#45;&gt;generate_validator_info -->
<g id="edge15" class="edge">
<title>join_validator_set_internal&#45;&gt;generate_validator_info</title>
<path fill="none" stroke="black" d="M1263.17,-346.19C1309.57,-343.04 1364.65,-336.69 1413,-324 1436.67,-317.79 1461.76,-307.06 1481.89,-297.32"/>
<polygon fill="black" stroke="black" points="1483.17,-300.59 1490.57,-293.01 1480.06,-294.32 1483.17,-300.59"/>
</g>
<!-- get_next_epoch_voting_power -->
<g id="node15" class="node">
<title>get_next_epoch_voting_power</title>
<ellipse fill="none" stroke="black" cx="1575" cy="-200" rx="119.68" ry="18"/>
<text text-anchor="middle" x="1575" y="-196.3" font-family="Times,serif" font-size="14.00">get_next_epoch_voting_power</text>
</g>
<!-- join_validator_set_internal&#45;&gt;get_next_epoch_voting_power -->
<g id="edge16" class="edge">
<title>join_validator_set_internal&#45;&gt;get_next_epoch_voting_power</title>
<path fill="none" stroke="black" d="M1263.92,-347C1397.47,-343.92 1613.72,-336.96 1626,-324 1646.48,-302.39 1636.75,-284.77 1626,-257 1621.54,-245.48 1613.48,-234.87 1605.07,-226.05"/>
<polygon fill="black" stroke="black" points="1607.69,-223.72 1598.08,-219.24 1602.8,-228.73 1607.69,-223.72"/>
</g>
<!-- get_validator_state -->
<g id="node16" class="node">
<title>get_validator_state</title>
<ellipse fill="none" stroke="black" cx="1750" cy="-275" rx="77.19" ry="18"/>
<text text-anchor="middle" x="1750" y="-271.3" font-family="Times,serif" font-size="14.00">get_validator_state</text>
</g>
<!-- join_validator_set_internal&#45;&gt;get_validator_state -->
<g id="edge17" class="edge">
<title>join_validator_set_internal&#45;&gt;get_validator_state</title>
<path fill="none" stroke="black" d="M1265.39,-349.05C1389.44,-348.17 1587.58,-343.59 1659,-324 1678.97,-318.52 1699.52,-308.16 1716.02,-298.46"/>
<polygon fill="black" stroke="black" points="1717.71,-301.53 1724.44,-293.35 1714.08,-295.55 1717.71,-301.53"/>
</g>
<!-- update_voting_power_increase -->
<g id="node17" class="node">
<title>update_voting_power_increase</title>
<ellipse fill="none" stroke="black" cx="705" cy="-275" rx="120.48" ry="18"/>
<text text-anchor="middle" x="705" y="-271.3" font-family="Times,serif" font-size="14.00">update_voting_power_increase</text>
</g>
<!-- join_validator_set_internal&#45;&gt;update_voting_power_increase -->
<g id="edge18" class="edge">
<title>join_validator_set_internal&#45;&gt;update_voting_power_increase</title>
<path fill="none" stroke="black" d="M1059.2,-344.61C1004.9,-341.12 936.93,-334.91 877,-324 838.77,-317.04 796.75,-305.39 763.81,-295.31"/>
<polygon fill="black" stroke="black" points="765.04,-292.03 754.45,-292.41 762.97,-298.71 765.04,-292.03"/>
</g>
<!-- signer::borrow_address -->
<g id="node18" class="node">
<title>signer::borrow_address</title>
<ellipse fill="none" stroke="black" cx="1956" cy="-200" rx="66.89" ry="18"/>
<text text-anchor="middle" x="1956" y="-196.3" font-family="Times,serif" font-size="14.00">borrow_address</text>
</g>
<!-- signer::address_of&#45;&gt;signer::borrow_address -->
<g id="edge19" class="edge">
<title>signer::address_of&#45;&gt;signer::borrow_address</title>
<path fill="none" stroke="black" d="M1949.13,-256.7C1950.12,-248.67 1951.33,-238.9 1952.45,-229.8"/>
<polygon fill="black" stroke="black" points="1955.92,-230.28 1953.67,-219.93 1948.97,-229.43 1955.92,-230.28"/>
</g>
<!-- error::invalid_state&#45;&gt;error::canonical -->
<g id="edge20" class="edge">
<title>error::invalid_state&#45;&gt;error::canonical</title>
<path fill="none" stroke="black" d="M1028,-181.82C1028,-171.69 1028,-158.6 1028,-146.92"/>
<polygon fill="black" stroke="black" points="1031.5,-146.95 1028,-136.95 1024.5,-146.95 1031.5,-146.95"/>
</g>
<!-- error::unauthenticated&#45;&gt;error::canonical -->
<g id="edge21" class="edge">
<title>error::unauthenticated&#45;&gt;error::canonical</title>
<path fill="none" stroke="black" d="M1140.67,-183.19C1118.25,-170.22 1086.39,-151.78 1062.26,-137.82"/>
<polygon fill="black" stroke="black" points="1064.17,-134.88 1053.76,-132.9 1060.66,-140.94 1064.17,-134.88"/>
</g>
<!-- bcs::to_bytes -->
<g id="node19" class="node">
<title>bcs::to_bytes</title>
<ellipse fill="none" stroke="black" cx="2281" cy="-200" rx="40.09" ry="18"/>
<text text-anchor="middle" x="2281" y="-196.3" font-family="Times,serif" font-size="14.00">to_bytes</text>
</g>
<!-- event::emit_event&#45;&gt;bcs::to_bytes -->
<g id="edge22" class="edge">
<title>event::emit_event&#45;&gt;bcs::to_bytes</title>
<path fill="none" stroke="black" d="M2177.67,-267.07C2194.5,-263.29 2213.27,-257.57 2229,-249 2240.28,-242.85 2251.03,-233.72 2259.79,-225.06"/>
<polygon fill="black" stroke="black" points="2262.06,-227.74 2266.48,-218.11 2257.02,-222.89 2262.06,-227.74"/>
</g>
<!-- event::write_to_event_store -->
<g id="node20" class="node">
<title>event::write_to_event_store</title>
<ellipse fill="none" stroke="black" cx="2132" cy="-200" rx="85.29" ry="18"/>
<text text-anchor="middle" x="2132" y="-196.3" font-family="Times,serif" font-size="14.00">write_to_event_store</text>
</g>
<!-- event::emit_event&#45;&gt;event::write_to_event_store -->
<g id="edge23" class="edge">
<title>event::emit_event&#45;&gt;event::write_to_event_store</title>
<path fill="none" stroke="black" d="M2132,-256.7C2132,-248.67 2132,-238.9 2132,-229.8"/>
<polygon fill="black" stroke="black" points="2135.5,-229.94 2132,-219.94 2128.5,-229.94 2135.5,-229.94"/>
</g>
<!-- assert_stake_pool_exists&#45;&gt;error::invalid_argument -->
<g id="edge24" class="edge">
<title>assert_stake_pool_exists&#45;&gt;error::invalid_argument</title>
<path fill="none" stroke="black" d="M980.72,-257.89C974.76,-255.02 968.67,-251.99 963,-249 947.74,-240.95 931.25,-231.47 917.1,-223.06"/>
<polygon fill="black" stroke="black" points="918.93,-220.08 908.55,-217.95 915.33,-226.09 918.93,-220.08"/>
</g>
<!-- stake_pool_exists -->
<g id="node21" class="node">
<title>stake_pool_exists</title>
<ellipse fill="none" stroke="black" cx="1326" cy="-200" rx="73.39" ry="18"/>
<text text-anchor="middle" x="1326" y="-196.3" font-family="Times,serif" font-size="14.00">stake_pool_exists</text>
</g>
<!-- assert_stake_pool_exists&#45;&gt;stake_pool_exists -->
<g id="edge25" class="edge">
<title>assert_stake_pool_exists&#45;&gt;stake_pool_exists</title>
<path fill="none" stroke="black" d="M1113.1,-272.7C1154.89,-269.8 1203.74,-263.21 1246,-249 1263.21,-243.21 1280.7,-233.29 1294.91,-223.96"/>
<polygon fill="black" stroke="black" points="1296.63,-227.02 1302.93,-218.5 1292.69,-221.23 1296.63,-227.02"/>
</g>
<!-- generate_validator_info&#45;&gt;get_next_epoch_voting_power -->
<g id="edge26" class="edge">
<title>generate_validator_info&#45;&gt;get_next_epoch_voting_power</title>
<path fill="none" stroke="black" d="M1534.56,-256.7C1540.9,-247.97 1548.72,-237.2 1555.79,-227.46"/>
<polygon fill="black" stroke="black" points="1558.6,-229.55 1561.64,-219.4 1552.93,-225.44 1558.6,-229.55"/>
</g>
<!-- coin::value -->
<g id="node22" class="node">
<title>coin::value</title>
<ellipse fill="none" stroke="black" cx="1575" cy="-117" rx="29.8" ry="18"/>
<text text-anchor="middle" x="1575" y="-113.3" font-family="Times,serif" font-size="14.00">value</text>
</g>
<!-- get_next_epoch_voting_power&#45;&gt;coin::value -->
<g id="edge27" class="edge">
<title>get_next_epoch_voting_power&#45;&gt;coin::value</title>
<path fill="none" stroke="black" d="M1575,-181.82C1575,-171.69 1575,-158.6 1575,-146.92"/>
<polygon fill="black" stroke="black" points="1578.5,-146.95 1575,-136.95 1571.5,-146.95 1578.5,-146.95"/>
</g>
<!-- option::is_some -->
<g id="node23" class="node">
<title>option::is_some</title>
<ellipse fill="none" stroke="black" cx="1696" cy="-117" rx="40.09" ry="18"/>
<text text-anchor="middle" x="1696" y="-113.3" font-family="Times,serif" font-size="14.00">is_some</text>
</g>
<!-- get_validator_state&#45;&gt;option::is_some -->
<g id="edge28" class="edge">
<title>get_validator_state&#45;&gt;option::is_some</title>
<path fill="none" stroke="black" d="M1744.01,-256.71C1734.72,-229.86 1716.73,-177.9 1705.61,-145.76"/>
<polygon fill="black" stroke="black" points="1708.92,-144.63 1702.34,-136.32 1702.31,-146.92 1708.92,-144.63"/>
</g>
<!-- find_validator -->
<g id="node24" class="node">
<title>find_validator</title>
<ellipse fill="none" stroke="black" cx="1811" cy="-200" rx="60.39" ry="18"/>
<text text-anchor="middle" x="1811" y="-196.3" font-family="Times,serif" font-size="14.00">find_validator</text>
</g>
<!-- get_validator_state&#45;&gt;find_validator -->
<g id="edge29" class="edge">
<title>get_validator_state&#45;&gt;find_validator</title>
<path fill="none" stroke="black" d="M1764.15,-257.07C1771.69,-248.04 1781.13,-236.74 1789.56,-226.66"/>
<polygon fill="black" stroke="black" points="1792.23,-228.92 1795.96,-219 1786.86,-224.43 1792.23,-228.92"/>
</g>
<!-- update_voting_power_increase&#45;&gt;error::invalid_argument -->
<g id="edge30" class="edge">
<title>update_voting_power_increase&#45;&gt;error::invalid_argument</title>
<path fill="none" stroke="black" d="M766.88,-259.21C776.76,-256.22 786.76,-252.81 796,-249 813.35,-241.85 831.6,-231.9 846.72,-222.91"/>
<polygon fill="black" stroke="black" points="848.13,-226.15 854.86,-217.97 844.5,-220.17 848.13,-226.15"/>
</g>
<!-- update_voting_power_increase&#45;&gt;staking_config::get -->
<g id="edge31" class="edge">
<title>update_voting_power_increase&#45;&gt;staking_config::get</title>
<path fill="none" stroke="black" d="M615.96,-262.53C567.93,-256.29 518.17,-249.69 517,-249 508.08,-243.78 500.67,-235.4 494.94,-227.09"/>
<polygon fill="black" stroke="black" points="498.06,-225.47 489.79,-218.85 492.12,-229.18 498.06,-225.47"/>
</g>
<!-- staking_config::get_voting_power_increase_limit -->
<g id="node25" class="node">
<title>staking_config::get_voting_power_increase_limit</title>
<ellipse fill="none" stroke="black" cx="655" cy="-200" rx="129.18" ry="18"/>
<text text-anchor="middle" x="655" y="-196.3" font-family="Times,serif" font-size="14.00">get_voting_power_increase_limit</text>
</g>
<!-- update_voting_power_increase&#45;&gt;staking_config::get_voting_power_increase_limit -->
<g id="edge32" class="edge">
<title>update_voting_power_increase&#45;&gt;staking_config::get_voting_power_increase_limit</title>
<path fill="none" stroke="black" d="M693.15,-256.7C687.17,-247.97 679.79,-237.2 673.12,-227.46"/>
<polygon fill="black" stroke="black" points="676.16,-225.7 667.62,-219.42 670.38,-229.65 676.16,-225.7"/>
</g>
<!-- option::is_some&#45;&gt;vector::is_empty -->
<g id="edge33" class="edge">
<title>option::is_some&#45;&gt;vector::is_empty</title>
<path fill="none" stroke="black" d="M1696,-98.82C1696,-88.69 1696,-75.6 1696,-63.92"/>
<polygon fill="black" stroke="black" points="1699.5,-63.95 1696,-53.95 1692.5,-63.95 1699.5,-63.95"/>
</g>
<!-- option::none -->
<g id="node26" class="node">
<title>option::none</title>
<ellipse fill="none" stroke="black" cx="1782" cy="-117" rx="27.9" ry="18"/>
<text text-anchor="middle" x="1782" y="-113.3" font-family="Times,serif" font-size="14.00">none</text>
</g>
<!-- find_validator&#45;&gt;option::none -->
<g id="edge34" class="edge">
<title>find_validator&#45;&gt;option::none</title>
<path fill="none" stroke="black" d="M1804.85,-181.82C1801.1,-171.33 1796.21,-157.68 1791.92,-145.7"/>
<polygon fill="black" stroke="black" points="1795.22,-144.54 1788.55,-136.3 1788.63,-146.9 1795.22,-144.54"/>
</g>
<!-- option::some -->
<g id="node27" class="node">
<title>option::some</title>
<ellipse fill="none" stroke="black" cx="1858" cy="-117" rx="29.8" ry="18"/>
<text text-anchor="middle" x="1858" y="-113.3" font-family="Times,serif" font-size="14.00">some</text>
</g>
<!-- find_validator&#45;&gt;option::some -->
<g id="edge35" class="edge">
<title>find_validator&#45;&gt;option::some</title>
<path fill="none" stroke="black" d="M1820.97,-181.82C1827.33,-170.87 1835.69,-156.45 1842.86,-144.1"/>
<polygon fill="black" stroke="black" points="1845.78,-146.04 1847.77,-135.63 1839.72,-142.53 1845.78,-146.04"/>
</g>
<!-- vector::singleton -->
<g id="node28" class="node">
<title>vector::singleton</title>
<ellipse fill="none" stroke="black" cx="1800" cy="-34" rx="42.79" ry="18"/>
<text text-anchor="middle" x="1800" y="-30.3" font-family="Times,serif" font-size="14.00">singleton</text>
</g>
<!-- option::some&#45;&gt;vector::singleton -->
<g id="edge36" class="edge">
<title>option::some&#45;&gt;vector::singleton</title>
<path fill="none" stroke="black" d="M1846.54,-100C1838.54,-88.83 1827.7,-73.68 1818.48,-60.81"/>
<polygon fill="black" stroke="black" points="1821.38,-58.85 1812.71,-52.76 1815.69,-62.92 1821.38,-58.85"/>
</g>
</g>
</svg>
