<?xml version="1.0" encoding="UTF-8" standalone="no"?>
<!DOCTYPE svg PUBLIC "-//W3C//DTD SVG 1.1//EN"
 "http://www.w3.org/Graphics/SVG/1.1/DTD/svg11.dtd">
<!-- Generated by graphviz version 7.0.4 (20221203.1631)
 -->
<!-- Title: G Pages: 1 -->
<svg width="1132pt" height="365pt"
 viewBox="0.00 0.00 1132.00 365.00" xmlns="http://www.w3.org/2000/svg" xmlns:xlink="http://www.w3.org/1999/xlink">
<g id="graph0" class="graph" transform="scale(1 1) rotate(0) translate(4 361)">
<title>G</title>
<polygon fill="white" stroke="none" points="-4,4 -4,-361 1128,-361 1128,4 -4,4"/>
<g id="clust1" class="cluster">
<title>cluster_vector</title>
<polygon fill="none" stroke="black" points="8,-8 8,-155 248,-155 248,-8 8,-8"/>
<text text-anchor="middle" x="128" y="-139.8" font-family="Times,serif" font-size="14.00">vector</text>
</g>
<g id="clust2" class="cluster">
<title>cluster_option</title>
<polygon fill="none" stroke="black" points="256,-80 256,-238 496,-238 496,-80 256,-80"/>
<text text-anchor="middle" x="376" y="-222.8" font-family="Times,serif" font-size="14.00">option</text>
</g>
<g id="clust3" class="cluster">
<title>cluster_system_addresses</title>
<polygon fill="none" stroke="black" points="536,-163 536,-313 780,-313 780,-163 536,-163"/>
<text text-anchor="middle" x="658" y="-297.8" font-family="Times,serif" font-size="14.00">system_addresses</text>
</g>
<g id="clust4" class="cluster">
<title>cluster_signer</title>
<polygon fill="none" stroke="black" points="788,-80 788,-238 938,-238 938,-80 788,-80"/>
<text text-anchor="middle" x="863" y="-222.8" font-family="Times,serif" font-size="14.00">signer</text>
</g>
<g id="clust5" class="cluster">
<title>cluster_error</title>
<polygon fill="none" stroke="black" points="946,-80 946,-238 1116,-238 1116,-80 946,-80"/>
<text text-anchor="middle" x="1031" y="-222.8" font-family="Times,serif" font-size="14.00">error</text>
</g>
<!-- remove_validators -->
<g id="node1" class="node">
<title>remove_validators</title>
<ellipse fill="none" stroke="black" cx="418" cy="-339" rx="76.89" ry="18"/>
<text text-anchor="middle" x="418" y="-335.3" font-family="Times,serif" font-size="14.00">remove_validators</text>
</g>
<!-- vector::swap_remove -->
<g id="node2" class="node">
<title>vector::swap_remove</title>
<ellipse fill="none" stroke="black" cx="76" cy="-106" rx="59.59" ry="18"/>
<text text-anchor="middle" x="76" y="-102.3" font-family="Times,serif" font-size="14.00">swap_remove</text>
</g>
<!-- remove_validators&#45;&gt;vector::swap_remove -->
<g id="edge1" class="edge">
<title>remove_validators&#45;&gt;vector::swap_remove</title>
<path fill="none" stroke="black" d="M353.27,-328.95C337.9,-325.29 321.93,-320.16 308,-313 217.66,-266.56 134.52,-176.75 97,-132.67"/>
<polygon fill="black" stroke="black" points="99.79,-130.55 90.67,-125.15 94.43,-135.06 99.79,-130.55"/>
</g>
<!-- option::borrow -->
<g id="node3" class="node">
<title>option::borrow</title>
<ellipse fill="none" stroke="black" cx="300" cy="-189" rx="36.29" ry="18"/>
<text text-anchor="middle" x="300" y="-185.3" font-family="Times,serif" font-size="14.00">borrow</text>
</g>
<!-- remove_validators&#45;&gt;option::borrow -->
<g id="edge2" class="edge">
<title>remove_validators&#45;&gt;option::borrow</title>
<path fill="none" stroke="black" d="M366.84,-325.16C360.31,-321.95 354.12,-317.97 349,-313 322.69,-287.5 310.14,-246.07 304.42,-218.43"/>
<polygon fill="black" stroke="black" points="307.87,-217.83 302.59,-208.65 300.99,-219.12 307.87,-217.83"/>
</g>
<!-- option::is_some -->
<g id="node4" class="node">
<title>option::is_some</title>
<ellipse fill="none" stroke="black" cx="304" cy="-106" rx="40.09" ry="18"/>
<text text-anchor="middle" x="304" y="-102.3" font-family="Times,serif" font-size="14.00">is_some</text>
</g>
<!-- remove_validators&#45;&gt;option::is_some -->
<g id="edge3" class="edge">
<title>remove_validators&#45;&gt;option::is_some</title>
<path fill="none" stroke="black" d="M471.36,-325.69C477.33,-322.41 482.77,-318.26 487,-313 528.9,-260.96 537.13,-216.42 497,-163 479.66,-139.92 404.09,-123.28 352.82,-114.4"/>
<polygon fill="black" stroke="black" points="353.57,-110.97 343.13,-112.76 352.41,-117.88 353.57,-110.97"/>
</g>
<!-- system_addresses::assert_aptos_framework -->
<g id="node5" class="node">
<title>system_addresses::assert_aptos_framework</title>
<ellipse fill="none" stroke="black" cx="666" cy="-264" rx="96.68" ry="18"/>
<text text-anchor="middle" x="666" y="-260.3" font-family="Times,serif" font-size="14.00">assert_aptos_framework</text>
</g>
<!-- remove_validators&#45;&gt;system_addresses::assert_aptos_framework -->
<g id="edge4" class="edge">
<title>remove_validators&#45;&gt;system_addresses::assert_aptos_framework</title>
<path fill="none" stroke="black" d="M475.31,-326.59C492.96,-322.71 512.38,-318.06 530,-313 558.43,-304.84 589.58,-293.99 614.89,-284.67"/>
<polygon fill="black" stroke="black" points="615.78,-288.08 623.93,-281.31 613.34,-281.51 615.78,-288.08"/>
</g>
<!-- find_validator -->
<g id="node6" class="node">
<title>find_validator</title>
<ellipse fill="none" stroke="black" cx="418" cy="-264" rx="60.39" ry="18"/>
<text text-anchor="middle" x="418" y="-260.3" font-family="Times,serif" font-size="14.00">find_validator</text>
</g>
<!-- remove_validators&#45;&gt;find_validator -->
<g id="edge5" class="edge">
<title>remove_validators&#45;&gt;find_validator</title>
<path fill="none" stroke="black" d="M418,-320.7C418,-312.67 418,-302.9 418,-293.8"/>
<polygon fill="black" stroke="black" points="421.5,-293.94 418,-283.94 414.5,-293.94 421.5,-293.94"/>
</g>
<!-- vector::is_empty -->
<g id="node7" class="node">
<title>vector::is_empty</title>
<ellipse fill="none" stroke="black" cx="136" cy="-34" rx="43.59" ry="18"/>
<text text-anchor="middle" x="136" y="-30.3" font-family="Times,serif" font-size="14.00">is_empty</text>
</g>
<!-- vector::swap_remove&#45;&gt;vector::is_empty -->
<g id="edge6" class="edge">
<title>vector::swap_remove&#45;&gt;vector::is_empty</title>
<path fill="none" stroke="black" d="M90.52,-88.05C97.78,-79.59 106.69,-69.19 114.7,-59.84"/>
<polygon fill="black" stroke="black" points="117.19,-62.33 121.04,-52.46 111.87,-57.77 117.19,-62.33"/>
</g>
<!-- option::borrow&#45;&gt;option::is_some -->
<g id="edge7" class="edge">
<title>option::borrow&#45;&gt;option::is_some</title>
<path fill="none" stroke="black" d="M300.85,-170.82C301.35,-160.69 302,-147.6 302.57,-135.92"/>
<polygon fill="black" stroke="black" points="306.07,-136.1 303.06,-125.94 299.08,-135.76 306.07,-136.1"/>
</g>
<!-- option::is_some&#45;&gt;vector::is_empty -->
<g id="edge8" class="edge">
<title>option::is_some&#45;&gt;vector::is_empty</title>
<path fill="none" stroke="black" d="M278,-92.01C269.75,-88.02 260.55,-83.71 252,-80 227.93,-69.56 200.58,-58.9 178.49,-50.57"/>
<polygon fill="black" stroke="black" points="179.79,-47.32 169.2,-47.1 177.34,-53.88 179.79,-47.32"/>
</g>
<!-- signer::address_of -->
<g id="node8" class="node">
<title>signer::address_of</title>
<ellipse fill="none" stroke="black" cx="854" cy="-189" rx="48.99" ry="18"/>
<text text-anchor="middle" x="854" y="-185.3" font-family="Times,serif" font-size="14.00">address_of</text>
</g>
<!-- system_addresses::assert_aptos_framework&#45;&gt;signer::address_of -->
<g id="edge9" class="edge">
<title>system_addresses::assert_aptos_framework&#45;&gt;signer::address_of</title>
<path fill="none" stroke="black" d="M739.77,-252.03C754.74,-248.52 770.14,-243.94 784,-238 799,-231.57 814.13,-221.72 826.46,-212.61"/>
<polygon fill="black" stroke="black" points="828.27,-215.63 834.09,-206.78 824.02,-210.07 828.27,-215.63"/>
</g>
<!-- error::permission_denied -->
<g id="node9" class="node">
<title>error::permission_denied</title>
<ellipse fill="none" stroke="black" cx="1031" cy="-189" rx="77.19" ry="18"/>
<text text-anchor="middle" x="1031" y="-185.3" font-family="Times,serif" font-size="14.00">permission_denied</text>
</g>
<!-- system_addresses::assert_aptos_framework&#45;&gt;error::permission_denied -->
<g id="edge10" class="edge">
<title>system_addresses::assert_aptos_framework&#45;&gt;error::permission_denied</title>
<path fill="none" stroke="black" d="M758.87,-258.59C825.36,-254.67 908.77,-248.01 942,-238 961.35,-232.17 981.29,-221.88 997.38,-212.32"/>
<polygon fill="black" stroke="black" points="998.88,-215.51 1005.57,-207.3 995.22,-209.54 998.88,-215.51"/>
</g>
<!-- system_addresses::is_aptos_framework_address -->
<g id="node10" class="node">
<title>system_addresses::is_aptos_framework_address</title>
<ellipse fill="none" stroke="black" cx="658" cy="-189" rx="113.98" ry="18"/>
<text text-anchor="middle" x="658" y="-185.3" font-family="Times,serif" font-size="14.00">is_aptos_framework_address</text>
</g>
<!-- system_addresses::assert_aptos_framework&#45;&gt;system_addresses::is_aptos_framework_address -->
<g id="edge11" class="edge">
<title>system_addresses::assert_aptos_framework&#45;&gt;system_addresses::is_aptos_framework_address</title>
<path fill="none" stroke="black" d="M664.1,-245.7C663.22,-237.67 662.15,-227.9 661.16,-218.8"/>
<polygon fill="black" stroke="black" points="664.64,-218.49 660.07,-208.93 657.69,-219.26 664.64,-218.49"/>
</g>
<!-- option::none -->
<g id="node11" class="node">
<title>option::none</title>
<ellipse fill="none" stroke="black" cx="382" cy="-189" rx="27.9" ry="18"/>
<text text-anchor="middle" x="382" y="-185.3" font-family="Times,serif" font-size="14.00">none</text>
</g>
<!-- find_validator&#45;&gt;option::none -->
<g id="edge12" class="edge">
<title>find_validator&#45;&gt;option::none</title>
<path fill="none" stroke="black" d="M409.47,-245.7C405.24,-237.12 400.03,-226.57 395.3,-216.96"/>
<polygon fill="black" stroke="black" points="398.45,-215.45 390.89,-208.03 392.18,-218.55 398.45,-215.45"/>
</g>
<!-- option::some -->
<g id="node12" class="node">
<title>option::some</title>
<ellipse fill="none" stroke="black" cx="458" cy="-189" rx="29.8" ry="18"/>
<text text-anchor="middle" x="458" y="-185.3" font-family="Times,serif" font-size="14.00">some</text>
</g>
<!-- find_validator&#45;&gt;option::some -->
<g id="edge13" class="edge">
<title>find_validator&#45;&gt;option::some</title>
<path fill="none" stroke="black" d="M427.28,-246.07C432.11,-237.25 438.12,-226.28 443.55,-216.38"/>
<polygon fill="black" stroke="black" points="446.45,-218.37 448.18,-207.91 440.31,-215 446.45,-218.37"/>
</g>
<!-- signer::borrow_address -->
<g id="node13" class="node">
<title>signer::borrow_address</title>
<ellipse fill="none" stroke="black" cx="863" cy="-106" rx="66.89" ry="18"/>
<text text-anchor="middle" x="863" y="-102.3" font-family="Times,serif" font-size="14.00">borrow_address</text>
</g>
<!-- signer::address_of&#45;&gt;signer::borrow_address -->
<g id="edge14" class="edge">
<title>signer::address_of&#45;&gt;signer::borrow_address</title>
<path fill="none" stroke="black" d="M855.91,-170.82C857.05,-160.58 858.52,-147.33 859.83,-135.55"/>
<polygon fill="black" stroke="black" points="863.27,-136.26 860.9,-125.94 856.31,-135.49 863.27,-136.26"/>
</g>
<!-- error::canonical -->
<g id="node14" class="node">
<title>error::canonical</title>
<ellipse fill="none" stroke="black" cx="1031" cy="-106" rx="44.39" ry="18"/>
<text text-anchor="middle" x="1031" y="-102.3" font-family="Times,serif" font-size="14.00">canonical</text>
</g>
<!-- error::permission_denied&#45;&gt;error::canonical -->
<g id="edge15" class="edge">
<title>error::permission_denied&#45;&gt;error::canonical</title>
<path fill="none" stroke="black" d="M1031,-170.82C1031,-160.69 1031,-147.6 1031,-135.92"/>
<polygon fill="black" stroke="black" points="1034.5,-135.95 1031,-125.95 1027.5,-135.95 1034.5,-135.95"/>
</g>
<!-- vector::singleton -->
<g id="node15" class="node">
<title>vector::singleton</title>
<ellipse fill="none" stroke="black" cx="197" cy="-106" rx="42.79" ry="18"/>
<text text-anchor="middle" x="197" y="-102.3" font-family="Times,serif" font-size="14.00">singleton</text>
</g>
<!-- option::some&#45;&gt;vector::singleton -->
<g id="edge16" class="edge">
<title>option::some&#45;&gt;vector::singleton</title>
<path fill="none" stroke="black" d="M440.74,-174.19C434.29,-169.8 426.66,-165.45 419,-163 383.61,-151.7 286.47,-168.87 252,-155 239.4,-149.93 227.71,-140.69 218.37,-131.66"/>
<polygon fill="black" stroke="black" points="221.04,-129.38 211.56,-124.64 216.01,-134.25 221.04,-129.38"/>
</g>
</g>
</svg>
