<?xml version="1.0" encoding="UTF-8" standalone="no"?>
<!DOCTYPE svg PUBLIC "-//W3C//DTD SVG 1.1//EN"
 "http://www.w3.org/Graphics/SVG/1.1/DTD/svg11.dtd">
<!-- Generated by graphviz version 7.0.4 (20221203.1631)
 -->
<!-- Title: G Pages: 1 -->
<svg width="1371pt" height="393pt"
 viewBox="0.00 0.00 1371.00 393.00" xmlns="http://www.w3.org/2000/svg" xmlns:xlink="http://www.w3.org/1999/xlink">
<g id="graph0" class="graph" transform="scale(1 1) rotate(0) translate(4 389)">
<title>G</title>
<polygon fill="white" stroke="none" points="-4,4 -4,-389 1367,-389 1367,4 -4,4"/>
<g id="clust1" class="cluster">
<title>cluster_stake</title>
<polygon fill="none" stroke="black" points="715,-64 715,-211 885,-211 885,-64 715,-64"/>
<text text-anchor="middle" x="800" y="-195.8" font-family="Times,serif" font-size="14.00">stake</text>
</g>
<g id="clust2" class="cluster">
<title>cluster_reconfiguration</title>
<polygon fill="none" stroke="black" points="453,-219 453,-294 571,-294 571,-219 453,-219"/>
<text text-anchor="middle" x="512" y="-278.8" font-family="Times,serif" font-size="14.00">reconfiguration</text>
</g>
<g id="clust3" class="cluster">
<title>cluster_genesis</title>
<polygon fill="none" stroke="black" points="907,-219 907,-377 1355,-377 1355,-219 907,-219"/>
<text text-anchor="middle" x="1131" y="-361.8" font-family="Times,serif" font-size="14.00">genesis</text>
</g>
<g id="clust4" class="cluster">
<title>cluster_aptos_governance</title>
<polygon fill="none" stroke="black" points="8,-302 8,-377 126,-377 126,-302 8,-302"/>
<text text-anchor="middle" x="67" y="-361.8" font-family="Times,serif" font-size="14.00">aptos_governance</text>
</g>
<g id="clust5" class="cluster">
<title>cluster_block</title>
<polygon fill="none" stroke="black" points="134,-302 134,-377 282,-377 282,-302 134,-302"/>
<text text-anchor="middle" x="208" y="-361.8" font-family="Times,serif" font-size="14.00">block</text>
</g>
<g id="clust6" class="cluster">
<title>cluster_consensus_config</title>
<polygon fill="none" stroke="black" points="290,-302 290,-377 403,-377 403,-302 290,-302"/>
<text text-anchor="middle" x="346.5" y="-361.8" font-family="Times,serif" font-size="14.00">consensus_config</text>
</g>
<g id="clust7" class="cluster">
<title>cluster_gas_schedule</title>
<polygon fill="none" stroke="black" points="411,-302 411,-377 773,-377 773,-302 411,-302"/>
<text text-anchor="middle" x="592" y="-361.8" font-family="Times,serif" font-size="14.00">gas_schedule</text>
</g>
<g id="clust8" class="cluster">
<title>cluster_version</title>
<polygon fill="none" stroke="black" points="781,-302 781,-377 899,-377 899,-302 781,-302"/>
<text text-anchor="middle" x="840" y="-361.8" font-family="Times,serif" font-size="14.00">version</text>
</g>
<!-- get_reward_rate -->
<g id="node1" class="node">
<title>get_reward_rate</title>
<ellipse fill="none" stroke="black" cx="800" cy="-18" rx="67.69" ry="18"/>
<text text-anchor="middle" x="800" y="-14.3" font-family="Times,serif" font-size="14.00">get_reward_rate</text>
</g>
<!-- stake::update_stake_pool -->
<g id="node2" class="node">
<title>stake::update_stake_pool</title>
<ellipse fill="none" stroke="black" cx="800" cy="-90" rx="76.89" ry="18"/>
<text text-anchor="middle" x="800" y="-86.3" font-family="Times,serif" font-size="14.00">update_stake_pool</text>
</g>
<!-- stake::update_stake_pool&#45;&gt;get_reward_rate -->
<g id="edge1" class="edge">
<title>stake::update_stake_pool&#45;&gt;get_reward_rate</title>
<path fill="none" stroke="black" d="M800,-71.7C800,-64.41 800,-55.73 800,-47.54"/>
<polygon fill="black" stroke="black" points="803.5,-47.62 800,-37.62 796.5,-47.62 803.5,-47.62"/>
</g>
<!-- stake::on_new_epoch -->
<g id="node3" class="node">
<title>stake::on_new_epoch</title>
<ellipse fill="none" stroke="black" cx="800" cy="-162" rx="63.89" ry="18"/>
<text text-anchor="middle" x="800" y="-158.3" font-family="Times,serif" font-size="14.00">on_new_epoch</text>
</g>
<!-- stake::on_new_epoch&#45;&gt;stake::update_stake_pool -->
<g id="edge2" class="edge">
<title>stake::on_new_epoch&#45;&gt;stake::update_stake_pool</title>
<path fill="none" stroke="black" d="M800,-143.7C800,-136.41 800,-127.73 800,-119.54"/>
<polygon fill="black" stroke="black" points="803.5,-119.62 800,-109.62 796.5,-119.62 803.5,-119.62"/>
</g>
<!-- reconfiguration::reconfigure -->
<g id="node4" class="node">
<title>reconfiguration::reconfigure</title>
<ellipse fill="none" stroke="black" cx="512" cy="-245" rx="51.19" ry="18"/>
<text text-anchor="middle" x="512" y="-241.3" font-family="Times,serif" font-size="14.00">reconfigure</text>
</g>
<!-- reconfiguration::reconfigure&#45;&gt;stake::on_new_epoch -->
<g id="edge3" class="edge">
<title>reconfiguration::reconfigure&#45;&gt;stake::on_new_epoch</title>
<path fill="none" stroke="black" d="M551.14,-232.99C601.32,-218.88 688.59,-194.33 745.32,-178.38"/>
<polygon fill="black" stroke="black" points="746.1,-181.8 754.78,-175.72 744.2,-175.06 746.1,-181.8"/>
</g>
<!-- genesis::create_initialize_validators_with_commission -->
<g id="node5" class="node">
<title>genesis::create_initialize_validators_with_commission</title>
<ellipse fill="none" stroke="black" cx="1089" cy="-245" rx="173.57" ry="18"/>
<text text-anchor="middle" x="1089" y="-241.3" font-family="Times,serif" font-size="14.00">create_initialize_validators_with_commission</text>
</g>
<!-- genesis::create_initialize_validators_with_commission&#45;&gt;stake::on_new_epoch -->
<g id="edge4" class="edge">
<title>genesis::create_initialize_validators_with_commission&#45;&gt;stake::on_new_epoch</title>
<path fill="none" stroke="black" d="M1030.52,-227.61C979.3,-213.25 905.42,-192.55 855.2,-178.47"/>
<polygon fill="black" stroke="black" points="856.27,-175.14 845.69,-175.81 854.38,-181.88 856.27,-175.14"/>
</g>
<!-- aptos_governance::reconfigure -->
<g id="node6" class="node">
<title>aptos_governance::reconfigure</title>
<ellipse fill="none" stroke="black" cx="67" cy="-328" rx="51.19" ry="18"/>
<text text-anchor="middle" x="67" y="-324.3" font-family="Times,serif" font-size="14.00">reconfigure</text>
</g>
<!-- aptos_governance::reconfigure&#45;&gt;reconfiguration::reconfigure -->
<g id="edge5" class="edge">
<title>aptos_governance::reconfigure&#45;&gt;reconfiguration::reconfigure</title>
<path fill="none" stroke="black" d="M97.6,-313.2C107.74,-309.08 119.2,-304.89 130,-302 241.01,-272.27 374.66,-257.25 450.84,-250.56"/>
<polygon fill="black" stroke="black" points="450.94,-254.07 460.6,-249.73 450.34,-247.09 450.94,-254.07"/>
</g>
<!-- block::block_prologue -->
<g id="node7" class="node">
<title>block::block_prologue</title>
<ellipse fill="none" stroke="black" cx="208" cy="-328" rx="65.79" ry="18"/>
<text text-anchor="middle" x="208" y="-324.3" font-family="Times,serif" font-size="14.00">block_prologue</text>
</g>
<!-- block::block_prologue&#45;&gt;reconfiguration::reconfigure -->
<g id="edge6" class="edge">
<title>block::block_prologue&#45;&gt;reconfiguration::reconfigure</title>
<path fill="none" stroke="black" d="M248.33,-313.5C260.39,-309.62 273.69,-305.49 286,-302 344.61,-285.37 412.55,-268.91 458.51,-258.18"/>
<polygon fill="black" stroke="black" points="459.28,-261.6 468.23,-255.93 457.7,-254.78 459.28,-261.6"/>
</g>
<!-- consensus_config::set -->
<g id="node8" class="node">
<title>consensus_config::set</title>
<ellipse fill="none" stroke="black" cx="368" cy="-328" rx="27" ry="18"/>
<text text-anchor="middle" x="368" y="-324.3" font-family="Times,serif" font-size="14.00">set</text>
</g>
<!-- consensus_config::set&#45;&gt;reconfiguration::reconfigure -->
<g id="edge7" class="edge">
<title>consensus_config::set&#45;&gt;reconfiguration::reconfigure</title>
<path fill="none" stroke="black" d="M386.46,-314.74C392.89,-310.58 400.2,-305.98 407,-302 428.71,-289.28 453.52,-275.99 473.57,-265.55"/>
<polygon fill="black" stroke="black" points="474.97,-268.77 482.24,-261.07 471.75,-262.55 474.97,-268.77"/>
</g>
<!-- gas_schedule::set_gas_schedule -->
<g id="node9" class="node">
<title>gas_schedule::set_gas_schedule</title>
<ellipse fill="none" stroke="black" cx="694" cy="-328" rx="71.49" ry="18"/>
<text text-anchor="middle" x="694" y="-324.3" font-family="Times,serif" font-size="14.00">set_gas_schedule</text>
</g>
<!-- gas_schedule::set_gas_schedule&#45;&gt;reconfiguration::reconfigure -->
<g id="edge8" class="edge">
<title>gas_schedule::set_gas_schedule&#45;&gt;reconfiguration::reconfigure</title>
<path fill="none" stroke="black" d="M659.77,-311.76C629.52,-298.3 585.33,-278.64 553.16,-264.32"/>
<polygon fill="black" stroke="black" points="554.69,-261.17 544.13,-260.3 551.84,-267.56 554.69,-261.17"/>
</g>
<!-- gas_schedule::set_storage_gas_config -->
<g id="node10" class="node">
<title>gas_schedule::set_storage_gas_config</title>
<ellipse fill="none" stroke="black" cx="512" cy="-328" rx="92.88" ry="18"/>
<text text-anchor="middle" x="512" y="-324.3" font-family="Times,serif" font-size="14.00">set_storage_gas_config</text>
</g>
<!-- gas_schedule::set_storage_gas_config&#45;&gt;reconfiguration::reconfigure -->
<g id="edge9" class="edge">
<title>gas_schedule::set_storage_gas_config&#45;&gt;reconfiguration::reconfigure</title>
<path fill="none" stroke="black" d="M512,-309.82C512,-299.69 512,-286.6 512,-274.92"/>
<polygon fill="black" stroke="black" points="515.5,-274.95 512,-264.95 508.5,-274.95 515.5,-274.95"/>
</g>
<!-- version::set_version -->
<g id="node11" class="node">
<title>version::set_version</title>
<ellipse fill="none" stroke="black" cx="840" cy="-328" rx="50.89" ry="18"/>
<text text-anchor="middle" x="840" y="-324.3" font-family="Times,serif" font-size="14.00">set_version</text>
</g>
<!-- version::set_version&#45;&gt;reconfiguration::reconfigure -->
<g id="edge10" class="edge">
<title>version::set_version&#45;&gt;reconfiguration::reconfigure</title>
<path fill="none" stroke="black" d="M808.64,-313.35C798.66,-309.32 787.48,-305.16 777,-302 706.6,-280.76 623.33,-264.57 569.18,-255.19"/>
<polygon fill="black" stroke="black" points="570.02,-251.79 559.57,-253.55 568.84,-258.68 570.02,-251.79"/>
</g>
<!-- genesis::initialize_for_verification -->
<g id="node12" class="node">
<title>genesis::initialize_for_verification</title>
<ellipse fill="none" stroke="black" cx="1246" cy="-328" rx="100.98" ry="18"/>
<text text-anchor="middle" x="1246" y="-324.3" font-family="Times,serif" font-size="14.00">initialize_for_verification</text>
</g>
<!-- genesis::initialize_for_verification&#45;&gt;genesis::create_initialize_validators_with_commission -->
<g id="edge11" class="edge">
<title>genesis::initialize_for_verification&#45;&gt;genesis::create_initialize_validators_with_commission</title>
<path fill="none" stroke="black" d="M1214.23,-310.61C1190.58,-298.41 1158.03,-281.61 1132.04,-268.21"/>
<polygon fill="black" stroke="black" points="1133.91,-265.23 1123.42,-263.76 1130.7,-271.45 1133.91,-265.23"/>
</g>
<!-- genesis::create_initialize_validators -->
<g id="node13" class="node">
<title>genesis::create_initialize_validators</title>
<ellipse fill="none" stroke="black" cx="1021" cy="-328" rx="105.88" ry="18"/>
<text text-anchor="middle" x="1021" y="-324.3" font-family="Times,serif" font-size="14.00">create_initialize_validators</text>
</g>
<!-- genesis::create_initialize_validators&#45;&gt;genesis::create_initialize_validators_with_commission -->
<g id="edge12" class="edge">
<title>genesis::create_initialize_validators&#45;&gt;genesis::create_initialize_validators_with_commission</title>
<path fill="none" stroke="black" d="M1035.42,-309.82C1044.64,-298.84 1056.78,-284.38 1067.17,-272"/>
<polygon fill="black" stroke="black" points="1069.64,-274.5 1073.39,-264.59 1064.28,-270 1069.64,-274.5"/>
</g>
</g>
</svg>
