<?xml version="1.0" encoding="UTF-8" standalone="no"?>
<!DOCTYPE svg PUBLIC "-//W3C//DTD SVG 1.1//EN"
 "http://www.w3.org/Graphics/SVG/1.1/DTD/svg11.dtd">
<!-- Generated by graphviz version 7.0.4 (20221203.1631)
 -->
<!-- Title: G Pages: 1 -->
<svg width="1165pt" height="676pt"
 viewBox="0.00 0.00 1165.45 676.00" xmlns="http://www.w3.org/2000/svg" xmlns:xlink="http://www.w3.org/1999/xlink">
<g id="graph0" class="graph" transform="scale(1 1) rotate(0) translate(4 672)">
<title>G</title>
<polygon fill="white" stroke="none" points="-4,4 -4,-672 1161.45,-672 1161.45,4 -4,4"/>
<g id="clust1" class="cluster">
<title>cluster_staking_contract</title>
<polygon fill="none" stroke="black" points="192,-208 192,-430 482,-430 482,-208 192,-208"/>
<text text-anchor="middle" x="337" y="-414.8" font-family="Times,serif" font-size="14.00">staking_contract</text>
</g>
<g id="clust2" class="cluster">
<title>cluster_staking_proxy</title>
<polygon fill="none" stroke="black" points="707,-136 707,-283 1105,-283 1105,-136 707,-136"/>
<text text-anchor="middle" x="906" y="-267.8" font-family="Times,serif" font-size="14.00">staking_proxy</text>
</g>
<g id="clust3" class="cluster">
<title>cluster_genesis</title>
<polygon fill="none" stroke="black" points="220,-438 220,-660 821,-660 821,-438 220,-438"/>
<text text-anchor="middle" x="520.5" y="-644.8" font-family="Times,serif" font-size="14.00">genesis</text>
</g>
<g id="clust4" class="cluster">
<title>cluster_vesting</title>
<polygon fill="none" stroke="black" points="8,-438 8,-513 212,-513 212,-438 8,-438"/>
<text text-anchor="middle" x="110" y="-497.8" font-family="Times,serif" font-size="14.00">vesting</text>
</g>
<!-- assert_owner_cap_exists -->
<g id="node1" class="node">
<title>assert_owner_cap_exists</title>
<ellipse fill="none" stroke="black" cx="619" cy="-18" rx="98.28" ry="18"/>
<text text-anchor="middle" x="619" y="-14.3" font-family="Times,serif" font-size="14.00">assert_owner_cap_exists</text>
</g>
<!-- withdraw -->
<g id="node2" class="node">
<title>withdraw</title>
<ellipse fill="none" stroke="black" cx="130" cy="-90" rx="44.39" ry="18"/>
<text text-anchor="middle" x="130" y="-86.3" font-family="Times,serif" font-size="14.00">withdraw</text>
</g>
<!-- withdraw&#45;&gt;assert_owner_cap_exists -->
<g id="edge1" class="edge">
<title>withdraw&#45;&gt;assert_owner_cap_exists</title>
<path fill="none" stroke="black" d="M162.87,-77.6C169.79,-75.5 177.08,-73.5 184,-72 296.55,-47.64 428.08,-33.56 516.8,-26.12"/>
<polygon fill="black" stroke="black" points="517.03,-29.61 526.71,-25.3 516.45,-22.63 517.03,-29.61"/>
</g>
<!-- add_stake -->
<g id="node3" class="node">
<title>add_stake</title>
<ellipse fill="none" stroke="black" cx="411" cy="-90" rx="46.29" ry="18"/>
<text text-anchor="middle" x="411" y="-86.3" font-family="Times,serif" font-size="14.00">add_stake</text>
</g>
<!-- add_stake&#45;&gt;assert_owner_cap_exists -->
<g id="edge2" class="edge">
<title>add_stake&#45;&gt;assert_owner_cap_exists</title>
<path fill="none" stroke="black" d="M445.35,-77.44C477.17,-66.73 525.09,-50.6 562.54,-38"/>
<polygon fill="black" stroke="black" points="563.5,-41.37 571.86,-34.86 561.26,-34.74 563.5,-41.37"/>
</g>
<!-- extract_owner_cap -->
<g id="node4" class="node">
<title>extract_owner_cap</title>
<ellipse fill="none" stroke="black" cx="270" cy="-90" rx="77.19" ry="18"/>
<text text-anchor="middle" x="270" y="-86.3" font-family="Times,serif" font-size="14.00">extract_owner_cap</text>
</g>
<!-- extract_owner_cap&#45;&gt;assert_owner_cap_exists -->
<g id="edge3" class="edge">
<title>extract_owner_cap&#45;&gt;assert_owner_cap_exists</title>
<path fill="none" stroke="black" d="M327.24,-77.52C386.19,-65.69 478.38,-47.2 543.33,-34.18"/>
<polygon fill="black" stroke="black" points="543.71,-37.67 552.83,-32.27 542.34,-30.81 543.71,-37.67"/>
</g>
<!-- increase_lockup -->
<g id="node5" class="node">
<title>increase_lockup</title>
<ellipse fill="none" stroke="black" cx="543" cy="-90" rx="67.69" ry="18"/>
<text text-anchor="middle" x="543" y="-86.3" font-family="Times,serif" font-size="14.00">increase_lockup</text>
</g>
<!-- increase_lockup&#45;&gt;assert_owner_cap_exists -->
<g id="edge4" class="edge">
<title>increase_lockup&#45;&gt;assert_owner_cap_exists</title>
<path fill="none" stroke="black" d="M561.01,-72.41C570.34,-63.82 581.91,-53.16 592.26,-43.63"/>
<polygon fill="black" stroke="black" points="594.49,-46.33 599.48,-36.98 589.75,-41.18 594.49,-46.33"/>
</g>
<!-- reactivate_stake -->
<g id="node6" class="node">
<title>reactivate_stake</title>
<ellipse fill="none" stroke="black" cx="696" cy="-90" rx="67.69" ry="18"/>
<text text-anchor="middle" x="696" y="-86.3" font-family="Times,serif" font-size="14.00">reactivate_stake</text>
</g>
<!-- reactivate_stake&#45;&gt;assert_owner_cap_exists -->
<g id="edge5" class="edge">
<title>reactivate_stake&#45;&gt;assert_owner_cap_exists</title>
<path fill="none" stroke="black" d="M677.75,-72.41C668.3,-63.82 656.58,-53.16 646.09,-43.63"/>
<polygon fill="black" stroke="black" points="648.53,-41.11 638.77,-36.97 643.82,-46.29 648.53,-41.11"/>
</g>
<!-- set_delegated_voter -->
<g id="node7" class="node">
<title>set_delegated_voter</title>
<ellipse fill="none" stroke="black" cx="989" cy="-90" rx="81.49" ry="18"/>
<text text-anchor="middle" x="989" y="-86.3" font-family="Times,serif" font-size="14.00">set_delegated_voter</text>
</g>
<!-- set_delegated_voter&#45;&gt;assert_owner_cap_exists -->
<g id="edge6" class="edge">
<title>set_delegated_voter&#45;&gt;assert_owner_cap_exists</title>
<path fill="none" stroke="black" d="M928.73,-77.6C865.49,-65.63 765.86,-46.79 696.75,-33.71"/>
<polygon fill="black" stroke="black" points="697.46,-30.28 686.99,-31.86 696.16,-37.16 697.46,-30.28"/>
</g>
<!-- set_operator -->
<g id="node8" class="node">
<title>set_operator</title>
<ellipse fill="none" stroke="black" cx="836" cy="-90" rx="53.89" ry="18"/>
<text text-anchor="middle" x="836" y="-86.3" font-family="Times,serif" font-size="14.00">set_operator</text>
</g>
<!-- set_operator&#45;&gt;assert_owner_cap_exists -->
<g id="edge7" class="edge">
<title>set_operator&#45;&gt;assert_owner_cap_exists</title>
<path fill="none" stroke="black" d="M798.2,-76.81C764.68,-65.99 715.21,-50.04 676.74,-37.63"/>
<polygon fill="black" stroke="black" points="678.23,-34.43 667.64,-34.69 676.09,-41.09 678.23,-34.43"/>
</g>
<!-- unlock -->
<g id="node9" class="node">
<title>unlock</title>
<ellipse fill="none" stroke="black" cx="1123" cy="-90" rx="34.39" ry="18"/>
<text text-anchor="middle" x="1123" y="-86.3" font-family="Times,serif" font-size="14.00">unlock</text>
</g>
<!-- unlock&#45;&gt;assert_owner_cap_exists -->
<g id="edge8" class="edge">
<title>unlock&#45;&gt;assert_owner_cap_exists</title>
<path fill="none" stroke="black" d="M1097.29,-77.81C1091.38,-75.59 1085.04,-73.49 1079,-72 959.93,-42.65 819.43,-29.46 725.31,-23.59"/>
<polygon fill="black" stroke="black" points="725.77,-20.11 715.58,-23 725.35,-27.1 725.77,-20.11"/>
</g>
<!-- initialize_stake_owner -->
<g id="node10" class="node">
<title>initialize_stake_owner</title>
<ellipse fill="none" stroke="black" cx="576" cy="-162" rx="90.18" ry="18"/>
<text text-anchor="middle" x="576" y="-158.3" font-family="Times,serif" font-size="14.00">initialize_stake_owner</text>
</g>
<!-- initialize_stake_owner&#45;&gt;add_stake -->
<g id="edge9" class="edge">
<title>initialize_stake_owner&#45;&gt;add_stake</title>
<path fill="none" stroke="black" d="M538.97,-145.29C513.17,-134.34 478.73,-119.73 452.08,-108.43"/>
<polygon fill="black" stroke="black" points="453.52,-105.24 442.95,-104.55 450.79,-111.68 453.52,-105.24"/>
</g>
<!-- initialize_stake_owner&#45;&gt;set_delegated_voter -->
<g id="edge11" class="edge">
<title>initialize_stake_owner&#45;&gt;set_delegated_voter</title>
<path fill="none" stroke="black" d="M636.93,-148.33C657.83,-144.17 681.4,-139.67 703,-136 789.75,-121.27 812.19,-122.39 899,-108 905.33,-106.95 911.9,-105.81 918.48,-104.63"/>
<polygon fill="black" stroke="black" points="918.82,-108.13 928.03,-102.9 917.57,-101.24 918.82,-108.13"/>
</g>
<!-- initialize_stake_owner&#45;&gt;set_operator -->
<g id="edge13" class="edge">
<title>initialize_stake_owner&#45;&gt;set_operator</title>
<path fill="none" stroke="black" d="M628.26,-146.95C667.97,-136.27 723.93,-121.22 773,-108 776.56,-107.04 780.22,-106.05 783.92,-105.06"/>
<polygon fill="black" stroke="black" points="784.79,-108.45 793.53,-102.46 782.97,-101.69 784.79,-108.45"/>
</g>
<!-- staking_contract::create_stake_pool -->
<g id="node11" class="node">
<title>staking_contract::create_stake_pool</title>
<ellipse fill="none" stroke="black" cx="337" cy="-234" rx="74.19" ry="18"/>
<text text-anchor="middle" x="337" y="-230.3" font-family="Times,serif" font-size="14.00">create_stake_pool</text>
</g>
<!-- staking_contract::create_stake_pool&#45;&gt;extract_owner_cap -->
<g id="edge10" class="edge">
<title>staking_contract::create_stake_pool&#45;&gt;extract_owner_cap</title>
<path fill="none" stroke="black" d="M328.92,-215.87C317.5,-191.67 296.52,-147.21 282.92,-118.39"/>
<polygon fill="black" stroke="black" points="286.19,-117.11 278.76,-109.56 279.86,-120.1 286.19,-117.11"/>
</g>
<!-- staking_contract::create_stake_pool&#45;&gt;initialize_stake_owner -->
<g id="edge15" class="edge">
<title>staking_contract::create_stake_pool&#45;&gt;initialize_stake_owner</title>
<path fill="none" stroke="black" d="M383.08,-219.5C420.85,-208.44 474.61,-192.7 515.78,-180.64"/>
<polygon fill="black" stroke="black" points="516.7,-184.01 525.32,-177.84 514.74,-177.3 516.7,-184.01"/>
</g>
<!-- staking_proxy::set_stake_pool_voter -->
<g id="node12" class="node">
<title>staking_proxy::set_stake_pool_voter</title>
<ellipse fill="none" stroke="black" cx="1012" cy="-162" rx="85.29" ry="18"/>
<text text-anchor="middle" x="1012" y="-158.3" font-family="Times,serif" font-size="14.00">set_stake_pool_voter</text>
</g>
<!-- staking_proxy::set_stake_pool_voter&#45;&gt;set_delegated_voter -->
<g id="edge12" class="edge">
<title>staking_proxy::set_stake_pool_voter&#45;&gt;set_delegated_voter</title>
<path fill="none" stroke="black" d="M1006.31,-143.7C1003.86,-136.24 1000.93,-127.32 998.19,-118.97"/>
<polygon fill="black" stroke="black" points="1001.54,-117.95 995.09,-109.54 994.89,-120.14 1001.54,-117.95"/>
</g>
<!-- staking_proxy::set_stake_pool_operator -->
<g id="node13" class="node">
<title>staking_proxy::set_stake_pool_operator</title>
<ellipse fill="none" stroke="black" cx="812" cy="-162" rx="96.68" ry="18"/>
<text text-anchor="middle" x="812" y="-158.3" font-family="Times,serif" font-size="14.00">set_stake_pool_operator</text>
</g>
<!-- staking_proxy::set_stake_pool_operator&#45;&gt;set_operator -->
<g id="edge14" class="edge">
<title>staking_proxy::set_stake_pool_operator&#45;&gt;set_operator</title>
<path fill="none" stroke="black" d="M817.93,-143.7C820.49,-136.24 823.55,-127.32 826.41,-118.97"/>
<polygon fill="black" stroke="black" points="829.71,-120.13 829.64,-109.54 823.09,-117.86 829.71,-120.13"/>
</g>
<!-- genesis::create_initialize_validator -->
<g id="node14" class="node">
<title>genesis::create_initialize_validator</title>
<ellipse fill="none" stroke="black" cx="576" cy="-464" rx="102.88" ry="18"/>
<text text-anchor="middle" x="576" y="-460.3" font-family="Times,serif" font-size="14.00">create_initialize_validator</text>
</g>
<!-- genesis::create_initialize_validator&#45;&gt;initialize_stake_owner -->
<g id="edge16" class="edge">
<title>genesis::create_initialize_validator&#45;&gt;initialize_stake_owner</title>
<path fill="none" stroke="black" d="M576,-445.57C576,-395.87 576,-253.02 576,-191.62"/>
<polygon fill="black" stroke="black" points="579.5,-191.99 576,-181.99 572.5,-191.99 579.5,-191.99"/>
</g>
<!-- staking_contract::create_staking_contract -->
<g id="node19" class="node">
<title>staking_contract::create_staking_contract</title>
<ellipse fill="none" stroke="black" cx="358" cy="-381" rx="94.48" ry="18"/>
<text text-anchor="middle" x="358" y="-377.3" font-family="Times,serif" font-size="14.00">create_staking_contract</text>
</g>
<!-- genesis::create_initialize_validator&#45;&gt;staking_contract::create_staking_contract -->
<g id="edge25" class="edge">
<title>genesis::create_initialize_validator&#45;&gt;staking_contract::create_staking_contract</title>
<path fill="none" stroke="black" d="M533.45,-447.19C498.26,-434.12 448.14,-415.49 410.47,-401.49"/>
<polygon fill="black" stroke="black" points="411.71,-398.22 401.12,-398.02 409.28,-404.79 411.71,-398.22"/>
</g>
<!-- staking_contract::create_staking_contract_with_coins -->
<g id="node15" class="node">
<title>staking_contract::create_staking_contract_with_coins</title>
<ellipse fill="none" stroke="black" cx="337" cy="-309" rx="137.28" ry="18"/>
<text text-anchor="middle" x="337" y="-305.3" font-family="Times,serif" font-size="14.00">create_staking_contract_with_coins</text>
</g>
<!-- staking_contract::create_staking_contract_with_coins&#45;&gt;staking_contract::create_stake_pool -->
<g id="edge17" class="edge">
<title>staking_contract::create_staking_contract_with_coins&#45;&gt;staking_contract::create_stake_pool</title>
<path fill="none" stroke="black" d="M337,-290.7C337,-282.67 337,-272.9 337,-263.8"/>
<polygon fill="black" stroke="black" points="340.5,-263.94 337,-253.94 333.5,-263.94 340.5,-263.94"/>
</g>
<!-- staking_proxy::set_voter -->
<g id="node16" class="node">
<title>staking_proxy::set_voter</title>
<ellipse fill="none" stroke="black" cx="1012" cy="-234" rx="42.79" ry="18"/>
<text text-anchor="middle" x="1012" y="-230.3" font-family="Times,serif" font-size="14.00">set_voter</text>
</g>
<!-- staking_proxy::set_voter&#45;&gt;staking_proxy::set_stake_pool_voter -->
<g id="edge18" class="edge">
<title>staking_proxy::set_voter&#45;&gt;staking_proxy::set_stake_pool_voter</title>
<path fill="none" stroke="black" d="M1012,-215.7C1012,-208.41 1012,-199.73 1012,-191.54"/>
<polygon fill="black" stroke="black" points="1015.5,-191.62 1012,-181.62 1008.5,-191.62 1015.5,-191.62"/>
</g>
<!-- staking_proxy::set_operator -->
<g id="node17" class="node">
<title>staking_proxy::set_operator</title>
<ellipse fill="none" stroke="black" cx="812" cy="-234" rx="53.89" ry="18"/>
<text text-anchor="middle" x="812" y="-230.3" font-family="Times,serif" font-size="14.00">set_operator</text>
</g>
<!-- staking_proxy::set_operator&#45;&gt;staking_proxy::set_stake_pool_operator -->
<g id="edge19" class="edge">
<title>staking_proxy::set_operator&#45;&gt;staking_proxy::set_stake_pool_operator</title>
<path fill="none" stroke="black" d="M812,-215.7C812,-208.41 812,-199.73 812,-191.54"/>
<polygon fill="black" stroke="black" points="815.5,-191.62 812,-181.62 808.5,-191.62 815.5,-191.62"/>
</g>
<!-- genesis::create_initialize_validators_with_commission -->
<g id="node18" class="node">
<title>genesis::create_initialize_validators_with_commission</title>
<ellipse fill="none" stroke="black" cx="639" cy="-539" rx="173.57" ry="18"/>
<text text-anchor="middle" x="639" y="-535.3" font-family="Times,serif" font-size="14.00">create_initialize_validators_with_commission</text>
</g>
<!-- genesis::create_initialize_validators_with_commission&#45;&gt;genesis::create_initialize_validator -->
<g id="edge20" class="edge">
<title>genesis::create_initialize_validators_with_commission&#45;&gt;genesis::create_initialize_validator</title>
<path fill="none" stroke="black" d="M624.07,-520.7C616.38,-511.79 606.85,-500.75 598.31,-490.85"/>
<polygon fill="black" stroke="black" points="601,-488.61 591.81,-483.32 595.7,-493.18 601,-488.61"/>
</g>
<!-- staking_contract::create_staking_contract&#45;&gt;staking_contract::create_staking_contract_with_coins -->
<g id="edge21" class="edge">
<title>staking_contract::create_staking_contract&#45;&gt;staking_contract::create_staking_contract_with_coins</title>
<path fill="none" stroke="black" d="M352.81,-362.7C350.57,-355.24 347.9,-346.32 345.39,-337.97"/>
<polygon fill="black" stroke="black" points="348.79,-337.13 342.57,-328.55 342.09,-339.14 348.79,-337.13"/>
</g>
<!-- vesting::create_vesting_contract -->
<g id="node20" class="node">
<title>vesting::create_vesting_contract</title>
<ellipse fill="none" stroke="black" cx="110" cy="-464" rx="94.48" ry="18"/>
<text text-anchor="middle" x="110" y="-460.3" font-family="Times,serif" font-size="14.00">create_vesting_contract</text>
</g>
<!-- vesting::create_vesting_contract&#45;&gt;staking_contract::create_staking_contract_with_coins -->
<g id="edge22" class="edge">
<title>vesting::create_vesting_contract&#45;&gt;staking_contract::create_staking_contract_with_coins</title>
<path fill="none" stroke="black" d="M133.97,-446.15C162.6,-426.09 212.02,-391.7 255,-363 269.89,-353.06 286.45,-342.3 300.77,-333.09"/>
<polygon fill="black" stroke="black" points="302.48,-336.15 309.01,-327.8 298.7,-330.26 302.48,-336.15"/>
</g>
<!-- genesis::initialize_for_verification -->
<g id="node21" class="node">
<title>genesis::initialize_for_verification</title>
<ellipse fill="none" stroke="black" cx="376" cy="-611" rx="100.98" ry="18"/>
<text text-anchor="middle" x="376" y="-607.3" font-family="Times,serif" font-size="14.00">initialize_for_verification</text>
</g>
<!-- genesis::initialize_for_verification&#45;&gt;genesis::create_initialize_validators_with_commission -->
<g id="edge23" class="edge">
<title>genesis::initialize_for_verification&#45;&gt;genesis::create_initialize_validators_with_commission</title>
<path fill="none" stroke="black" d="M430.49,-595.5C470.08,-584.96 524.04,-570.6 567.15,-559.12"/>
<polygon fill="black" stroke="black" points="567.92,-562.54 576.68,-556.59 566.11,-555.78 567.92,-562.54"/>
</g>
<!-- genesis::create_employee_validators -->
<g id="node23" class="node">
<title>genesis::create_employee_validators</title>
<ellipse fill="none" stroke="black" cx="338" cy="-539" rx="109.68" ry="18"/>
<text text-anchor="middle" x="338" y="-535.3" font-family="Times,serif" font-size="14.00">create_employee_validators</text>
</g>
<!-- genesis::initialize_for_verification&#45;&gt;genesis::create_employee_validators -->
<g id="edge27" class="edge">
<title>genesis::initialize_for_verification&#45;&gt;genesis::create_employee_validators</title>
<path fill="none" stroke="black" d="M366.61,-592.7C362.42,-584.98 357.39,-575.71 352.72,-567.11"/>
<polygon fill="black" stroke="black" points="355.85,-565.55 348.01,-558.43 349.7,-568.89 355.85,-565.55"/>
</g>
<!-- genesis::create_initialize_validators -->
<g id="node22" class="node">
<title>genesis::create_initialize_validators</title>
<ellipse fill="none" stroke="black" cx="639" cy="-611" rx="105.88" ry="18"/>
<text text-anchor="middle" x="639" y="-607.3" font-family="Times,serif" font-size="14.00">create_initialize_validators</text>
</g>
<!-- genesis::create_initialize_validators&#45;&gt;genesis::create_initialize_validators_with_commission -->
<g id="edge24" class="edge">
<title>genesis::create_initialize_validators&#45;&gt;genesis::create_initialize_validators_with_commission</title>
<path fill="none" stroke="black" d="M639,-592.7C639,-585.41 639,-576.73 639,-568.54"/>
<polygon fill="black" stroke="black" points="642.5,-568.62 639,-558.62 635.5,-568.62 642.5,-568.62"/>
</g>
<!-- genesis::create_employee_validators&#45;&gt;vesting::create_vesting_contract -->
<g id="edge26" class="edge">
<title>genesis::create_employee_validators&#45;&gt;vesting::create_vesting_contract</title>
<path fill="none" stroke="black" d="M263.44,-525.47C247.61,-522.05 231.12,-517.9 216,-513 194.11,-505.9 170.72,-495.62 151.49,-486.39"/>
<polygon fill="black" stroke="black" points="153.15,-483.3 142.63,-482.06 150.08,-489.59 153.15,-483.3"/>
</g>
</g>
</svg>
