<?xml version="1.0" encoding="UTF-8" standalone="no"?>
<!DOCTYPE svg PUBLIC "-//W3C//DTD SVG 1.1//EN"
 "http://www.w3.org/Graphics/SVG/1.1/DTD/svg11.dtd">
<!-- Generated by graphviz version 7.0.4 (20221203.1631)
 -->
<!-- Title: G Pages: 1 -->
<svg width="540pt" height="207pt"
 viewBox="0.00 0.00 540.00 207.00" xmlns="http://www.w3.org/2000/svg" xmlns:xlink="http://www.w3.org/1999/xlink">
<g id="graph0" class="graph" transform="scale(1 1) rotate(0) translate(4 203)">
<title>G</title>
<polygon fill="white" stroke="none" points="-4,4 -4,-203 536,-203 536,4 -4,4"/>
<g id="clust1" class="cluster">
<title>cluster_error</title>
<polygon fill="none" stroke="black" points="8,-8 8,-155 170,-155 170,-8 8,-8"/>
<text text-anchor="middle" x="89" y="-139.8" font-family="Times,serif" font-size="14.00">error</text>
</g>
<g id="clust2" class="cluster">
<title>cluster_staking_config</title>
<polygon fill="none" stroke="black" points="178,-80 178,-155 524,-155 524,-80 178,-80"/>
<text text-anchor="middle" x="351" y="-139.8" font-family="Times,serif" font-size="14.00">staking_config</text>
</g>
<!-- update_voting_power_increase -->
<g id="node1" class="node">
<title>update_voting_power_increase</title>
<ellipse fill="none" stroke="black" cx="315" cy="-181" rx="120.48" ry="18"/>
<text text-anchor="middle" x="315" y="-177.3" font-family="Times,serif" font-size="14.00">update_voting_power_increase</text>
</g>
<!-- error::invalid_argument -->
<g id="node2" class="node">
<title>error::invalid_argument</title>
<ellipse fill="none" stroke="black" cx="89" cy="-106" rx="73.39" ry="18"/>
<text text-anchor="middle" x="89" y="-102.3" font-family="Times,serif" font-size="14.00">invalid_argument</text>
</g>
<!-- update_voting_power_increase&#45;&gt;error::invalid_argument -->
<g id="edge1" class="edge">
<title>update_voting_power_increase&#45;&gt;error::invalid_argument</title>
<path fill="none" stroke="black" d="M225.05,-168.75C207.83,-165.29 190.14,-160.8 174,-155 156.07,-148.56 137.51,-138.53 122.32,-129.29"/>
<polygon fill="black" stroke="black" points="124.48,-126.52 114.14,-124.19 120.77,-132.45 124.48,-126.52"/>
</g>
<!-- staking_config::get -->
<g id="node3" class="node">
<title>staking_config::get</title>
<ellipse fill="none" stroke="black" cx="489" cy="-106" rx="27" ry="18"/>
<text text-anchor="middle" x="489" y="-102.3" font-family="Times,serif" font-size="14.00">get</text>
</g>
<!-- update_voting_power_increase&#45;&gt;staking_config::get -->
<g id="edge2" class="edge">
<title>update_voting_power_increase&#45;&gt;staking_config::get</title>
<path fill="none" stroke="black" d="M415.92,-170.88C428.97,-167.11 441.71,-161.97 453,-155 461.79,-149.57 469.17,-141.14 474.92,-132.86"/>
<polygon fill="black" stroke="black" points="477.72,-134.98 480.09,-124.66 471.8,-131.25 477.72,-134.98"/>
</g>
<!-- staking_config::get_voting_power_increase_limit -->
<g id="node4" class="node">
<title>staking_config::get_voting_power_increase_limit</title>
<ellipse fill="none" stroke="black" cx="315" cy="-106" rx="129.18" ry="18"/>
<text text-anchor="middle" x="315" y="-102.3" font-family="Times,serif" font-size="14.00">get_voting_power_increase_limit</text>
</g>
<!-- update_voting_power_increase&#45;&gt;staking_config::get_voting_power_increase_limit -->
<g id="edge3" class="edge">
<title>update_voting_power_increase&#45;&gt;staking_config::get_voting_power_increase_limit</title>
<path fill="none" stroke="black" d="M315,-162.7C315,-154.67 315,-144.9 315,-135.8"/>
<polygon fill="black" stroke="black" points="318.5,-135.94 315,-125.94 311.5,-135.94 318.5,-135.94"/>
</g>
<!-- error::canonical -->
<g id="node5" class="node">
<title>error::canonical</title>
<ellipse fill="none" stroke="black" cx="89" cy="-34" rx="44.39" ry="18"/>
<text text-anchor="middle" x="89" y="-30.3" font-family="Times,serif" font-size="14.00">canonical</text>
</g>
<!-- error::invalid_argument&#45;&gt;error::canonical -->
<g id="edge4" class="edge">
<title>error::invalid_argument&#45;&gt;error::canonical</title>
<path fill="none" stroke="black" d="M89,-87.7C89,-80.41 89,-71.73 89,-63.54"/>
<polygon fill="black" stroke="black" points="92.5,-63.62 89,-53.62 85.5,-63.62 92.5,-63.62"/>
</g>
</g>
</svg>
