<?xml version="1.0" encoding="UTF-8" standalone="no"?>
<!DOCTYPE svg PUBLIC "-//W3C//DTD SVG 1.1//EN"
 "http://www.w3.org/Graphics/SVG/1.1/DTD/svg11.dtd">
<!-- Generated by graphviz version 7.0.4 (20221203.1631)
 -->
<!-- Title: G Pages: 1 -->
<svg width="1243pt" height="518pt"
 viewBox="0.00 0.00 1243.34 518.00" xmlns="http://www.w3.org/2000/svg" xmlns:xlink="http://www.w3.org/1999/xlink">
<g id="graph0" class="graph" transform="scale(1 1) rotate(0) translate(4 514)">
<title>G</title>
<polygon fill="white" stroke="none" points="-4,4 -4,-514 1239.34,-514 1239.34,4 -4,4"/>
<g id="clust1" class="cluster">
<title>cluster_vesting</title>
<polygon fill="none" stroke="black" points="515,-280 515,-427 1152,-427 1152,-280 515,-280"/>
<text text-anchor="middle" x="833.5" y="-411.8" font-family="Times,serif" font-size="14.00">vesting</text>
</g>
<g id="clust2" class="cluster">
<title>cluster_staking_proxy</title>
<polygon fill="none" stroke="black" points="8,-352 8,-502 507,-502 507,-352 8,-352"/>
<text text-anchor="middle" x="257.5" y="-486.8" font-family="Times,serif" font-size="14.00">staking_proxy</text>
</g>
<!-- get_staking_contract_amounts_internal -->
<g id="node1" class="node">
<title>get_staking_contract_amounts_internal</title>
<ellipse fill="none" stroke="black" cx="918" cy="-18" rx="149.47" ry="18"/>
<text text-anchor="middle" x="918" y="-14.3" font-family="Times,serif" font-size="14.00">get_staking_contract_amounts_internal</text>
</g>
<!-- request_commission_internal -->
<g id="node2" class="node">
<title>request_commission_internal</title>
<ellipse fill="none" stroke="black" cx="847" cy="-90" rx="115.08" ry="18"/>
<text text-anchor="middle" x="847" y="-86.3" font-family="Times,serif" font-size="14.00">request_commission_internal</text>
</g>
<!-- request_commission_internal&#45;&gt;get_staking_contract_amounts_internal -->
<g id="edge1" class="edge">
<title>request_commission_internal&#45;&gt;get_staking_contract_amounts_internal</title>
<path fill="none" stroke="black" d="M864.19,-72.05C872.69,-63.67 883.13,-53.38 892.55,-44.1"/>
<polygon fill="black" stroke="black" points="894.74,-46.85 899.4,-37.34 889.82,-41.87 894.74,-46.85"/>
</g>
<!-- staking_contract_amounts -->
<g id="node3" class="node">
<title>staking_contract_amounts</title>
<ellipse fill="none" stroke="black" cx="1132" cy="-162" rx="103.18" ry="18"/>
<text text-anchor="middle" x="1132" y="-158.3" font-family="Times,serif" font-size="14.00">staking_contract_amounts</text>
</g>
<!-- staking_contract_amounts&#45;&gt;get_staking_contract_amounts_internal -->
<g id="edge2" class="edge">
<title>staking_contract_amounts&#45;&gt;get_staking_contract_amounts_internal</title>
<path fill="none" stroke="black" d="M1106.61,-144.15C1068.5,-118.87 996.4,-71.02 953.22,-42.37"/>
<polygon fill="black" stroke="black" points="955.22,-39.5 944.95,-36.88 951.35,-45.33 955.22,-39.5"/>
</g>
<!-- request_commission -->
<g id="node4" class="node">
<title>request_commission</title>
<ellipse fill="none" stroke="black" cx="927" cy="-162" rx="83.69" ry="18"/>
<text text-anchor="middle" x="927" y="-158.3" font-family="Times,serif" font-size="14.00">request_commission</text>
</g>
<!-- request_commission&#45;&gt;request_commission_internal -->
<g id="edge3" class="edge">
<title>request_commission&#45;&gt;request_commission_internal</title>
<path fill="none" stroke="black" d="M907.63,-144.05C897.88,-135.52 885.87,-125.01 875.12,-115.61"/>
<polygon fill="black" stroke="black" points="877.43,-112.98 867.6,-109.03 872.82,-118.25 877.43,-112.98"/>
</g>
<!-- switch_operator -->
<g id="node5" class="node">
<title>switch_operator</title>
<ellipse fill="none" stroke="black" cx="544" cy="-234" rx="67.69" ry="18"/>
<text text-anchor="middle" x="544" y="-230.3" font-family="Times,serif" font-size="14.00">switch_operator</text>
</g>
<!-- switch_operator&#45;&gt;request_commission_internal -->
<g id="edge4" class="edge">
<title>switch_operator&#45;&gt;request_commission_internal</title>
<path fill="none" stroke="black" d="M569.6,-216.86C600.3,-197.92 653.68,-166.26 702,-144 729.39,-131.38 760.7,-119.62 787.21,-110.4"/>
<polygon fill="black" stroke="black" points="788.12,-113.79 796.44,-107.23 785.84,-107.17 788.12,-113.79"/>
</g>
<!-- unlock_stake -->
<g id="node6" class="node">
<title>unlock_stake</title>
<ellipse fill="none" stroke="black" cx="768" cy="-162" rx="57.39" ry="18"/>
<text text-anchor="middle" x="768" y="-158.3" font-family="Times,serif" font-size="14.00">unlock_stake</text>
</g>
<!-- unlock_stake&#45;&gt;request_commission_internal -->
<g id="edge5" class="edge">
<title>unlock_stake&#45;&gt;request_commission_internal</title>
<path fill="none" stroke="black" d="M786.32,-144.76C796.11,-136.1 808.35,-125.25 819.27,-115.57"/>
<polygon fill="black" stroke="black" points="821.38,-118.38 826.54,-109.13 816.74,-113.14 821.38,-118.38"/>
</g>
<!-- unlock_rewards -->
<g id="node7" class="node">
<title>unlock_rewards</title>
<ellipse fill="none" stroke="black" cx="1077" cy="-234" rx="66.89" ry="18"/>
<text text-anchor="middle" x="1077" y="-230.3" font-family="Times,serif" font-size="14.00">unlock_rewards</text>
</g>
<!-- unlock_rewards&#45;&gt;staking_contract_amounts -->
<g id="edge6" class="edge">
<title>unlock_rewards&#45;&gt;staking_contract_amounts</title>
<path fill="none" stroke="black" d="M1090.31,-216.05C1096.64,-208.01 1104.34,-198.2 1111.39,-189.23"/>
<polygon fill="black" stroke="black" points="1114.07,-191.49 1117.49,-181.47 1108.56,-187.17 1114.07,-191.49"/>
</g>
<!-- unlock_rewards&#45;&gt;unlock_stake -->
<g id="edge10" class="edge">
<title>unlock_rewards&#45;&gt;unlock_stake</title>
<path fill="none" stroke="black" d="M1025.2,-222.29C975.92,-211.96 899.74,-195.63 834,-180 830.02,-179.05 825.92,-178.06 821.8,-177.03"/>
<polygon fill="black" stroke="black" points="822.92,-173.71 812.37,-174.67 821.22,-180.5 822.92,-173.71"/>
</g>
<!-- switch_operator_with_same_commission -->
<g id="node8" class="node">
<title>switch_operator_with_same_commission</title>
<ellipse fill="none" stroke="black" cx="310" cy="-306" rx="157.87" ry="18"/>
<text text-anchor="middle" x="310" y="-302.3" font-family="Times,serif" font-size="14.00">switch_operator_with_same_commission</text>
</g>
<!-- switch_operator_with_same_commission&#45;&gt;switch_operator -->
<g id="edge7" class="edge">
<title>switch_operator_with_same_commission&#45;&gt;switch_operator</title>
<path fill="none" stroke="black" d="M364.57,-288.68C402.18,-277.42 451.97,-262.53 489.55,-251.29"/>
<polygon fill="black" stroke="black" points="490.28,-254.72 498.85,-248.51 488.27,-248.02 490.28,-254.72"/>
</g>
<!-- vesting::update_operator -->
<g id="node9" class="node">
<title>vesting::update_operator</title>
<ellipse fill="none" stroke="black" cx="592" cy="-306" rx="67.69" ry="18"/>
<text text-anchor="middle" x="592" y="-302.3" font-family="Times,serif" font-size="14.00">update_operator</text>
</g>
<!-- vesting::update_operator&#45;&gt;switch_operator -->
<g id="edge8" class="edge">
<title>vesting::update_operator&#45;&gt;switch_operator</title>
<path fill="none" stroke="black" d="M580.38,-288.05C574.84,-279.97 568.08,-270.12 561.91,-261.11"/>
<polygon fill="black" stroke="black" points="564.91,-259.31 556.37,-253.04 559.14,-263.26 564.91,-259.31"/>
</g>
<!-- staking_proxy::set_staking_contract_operator -->
<g id="node10" class="node">
<title>staking_proxy::set_staking_contract_operator</title>
<ellipse fill="none" stroke="black" cx="132" cy="-378" rx="116.18" ry="18"/>
<text text-anchor="middle" x="132" y="-374.3" font-family="Times,serif" font-size="14.00">set_staking_contract_operator</text>
</g>
<!-- staking_proxy::set_staking_contract_operator&#45;&gt;switch_operator -->
<g id="edge9" class="edge">
<title>staking_proxy::set_staking_contract_operator&#45;&gt;switch_operator</title>
<path fill="none" stroke="black" d="M198.87,-362.84C217.93,-359.05 238.74,-355.14 258,-352 354.85,-336.22 392.16,-373.29 477,-324 478.71,-323 505.69,-286.81 524.88,-260.9"/>
<polygon fill="black" stroke="black" points="527.5,-263.23 530.64,-253.11 521.88,-259.07 527.5,-263.23"/>
</g>
<!-- vesting::unlock_stake -->
<g id="node11" class="node">
<title>vesting::unlock_stake</title>
<ellipse fill="none" stroke="black" cx="935" cy="-306" rx="57.39" ry="18"/>
<text text-anchor="middle" x="935" y="-302.3" font-family="Times,serif" font-size="14.00">unlock_stake</text>
</g>
<!-- vesting::unlock_stake&#45;&gt;unlock_stake -->
<g id="edge11" class="edge">
<title>vesting::unlock_stake&#45;&gt;unlock_stake</title>
<path fill="none" stroke="black" d="M915.84,-288.71C886.35,-263.63 829.68,-215.45 795.72,-186.57"/>
<polygon fill="black" stroke="black" points="798.23,-184.11 788.34,-180.3 793.69,-189.44 798.23,-184.11"/>
</g>
<!-- vesting::unlock_rewards -->
<g id="node12" class="node">
<title>vesting::unlock_rewards</title>
<ellipse fill="none" stroke="black" cx="1077" cy="-306" rx="66.89" ry="18"/>
<text text-anchor="middle" x="1077" y="-302.3" font-family="Times,serif" font-size="14.00">unlock_rewards</text>
</g>
<!-- vesting::unlock_rewards&#45;&gt;unlock_rewards -->
<g id="edge12" class="edge">
<title>vesting::unlock_rewards&#45;&gt;unlock_rewards</title>
<path fill="none" stroke="black" d="M1077,-287.7C1077,-280.41 1077,-271.73 1077,-263.54"/>
<polygon fill="black" stroke="black" points="1080.5,-263.62 1077,-253.62 1073.5,-263.62 1080.5,-263.62"/>
</g>
<!-- vesting::update_operator_with_same_commission -->
<g id="node13" class="node">
<title>vesting::update_operator_with_same_commission</title>
<ellipse fill="none" stroke="black" cx="682" cy="-378" rx="158.67" ry="18"/>
<text text-anchor="middle" x="682" y="-374.3" font-family="Times,serif" font-size="14.00">update_operator_with_same_commission</text>
</g>
<!-- vesting::update_operator_with_same_commission&#45;&gt;vesting::update_operator -->
<g id="edge13" class="edge">
<title>vesting::update_operator_with_same_commission&#45;&gt;vesting::update_operator</title>
<path fill="none" stroke="black" d="M659.75,-359.7C648.39,-350.86 634.39,-339.97 622.08,-330.4"/>
<polygon fill="black" stroke="black" points="624.3,-327.69 614.26,-324.31 620,-333.21 624.3,-327.69"/>
</g>
<!-- staking_proxy::set_vesting_contract_operator -->
<g id="node14" class="node">
<title>staking_proxy::set_vesting_contract_operator</title>
<ellipse fill="none" stroke="black" cx="383" cy="-378" rx="116.18" ry="18"/>
<text text-anchor="middle" x="383" y="-374.3" font-family="Times,serif" font-size="14.00">set_vesting_contract_operator</text>
</g>
<!-- staking_proxy::set_vesting_contract_operator&#45;&gt;vesting::update_operator -->
<g id="edge14" class="edge">
<title>staking_proxy::set_vesting_contract_operator&#45;&gt;vesting::update_operator</title>
<path fill="none" stroke="black" d="M430.43,-361.12C463.25,-350.12 506.9,-335.5 540.56,-324.23"/>
<polygon fill="black" stroke="black" points="541.3,-327.67 549.67,-321.18 539.08,-321.03 541.3,-327.67"/>
</g>
<!-- staking_proxy::set_operator -->
<g id="node15" class="node">
<title>staking_proxy::set_operator</title>
<ellipse fill="none" stroke="black" cx="257" cy="-453" rx="53.89" ry="18"/>
<text text-anchor="middle" x="257" y="-449.3" font-family="Times,serif" font-size="14.00">set_operator</text>
</g>
<!-- staking_proxy::set_operator&#45;&gt;staking_proxy::set_staking_contract_operator -->
<g id="edge15" class="edge">
<title>staking_proxy::set_operator&#45;&gt;staking_proxy::set_staking_contract_operator</title>
<path fill="none" stroke="black" d="M231.1,-436.87C213.68,-426.7 190.41,-413.11 170.8,-401.66"/>
<polygon fill="black" stroke="black" points="172.63,-398.68 162.23,-396.66 169.1,-404.72 172.63,-398.68"/>
</g>
<!-- staking_proxy::set_operator&#45;&gt;staking_proxy::set_vesting_contract_operator -->
<g id="edge19" class="edge">
<title>staking_proxy::set_operator&#45;&gt;staking_proxy::set_vesting_contract_operator</title>
<path fill="none" stroke="black" d="M283.11,-436.87C300.66,-426.7 324.12,-413.11 343.89,-401.66"/>
<polygon fill="black" stroke="black" points="345.64,-404.69 352.53,-396.65 342.13,-398.64 345.64,-404.69"/>
</g>
<!-- vesting::terminate_vesting_contract -->
<g id="node16" class="node">
<title>vesting::terminate_vesting_contract</title>
<ellipse fill="none" stroke="black" cx="965" cy="-378" rx="106.68" ry="18"/>
<text text-anchor="middle" x="965" y="-374.3" font-family="Times,serif" font-size="14.00">terminate_vesting_contract</text>
</g>
<!-- vesting::terminate_vesting_contract&#45;&gt;vesting::unlock_stake -->
<g id="edge16" class="edge">
<title>vesting::terminate_vesting_contract&#45;&gt;vesting::unlock_stake</title>
<path fill="none" stroke="black" d="M957.58,-359.7C954.35,-352.15 950.48,-343.12 946.86,-334.68"/>
<polygon fill="black" stroke="black" points="950.08,-333.31 942.93,-325.5 943.65,-336.07 950.08,-333.31"/>
</g>
<!-- vesting::vest -->
<g id="node17" class="node">
<title>vesting::vest</title>
<ellipse fill="none" stroke="black" cx="1117" cy="-378" rx="27" ry="18"/>
<text text-anchor="middle" x="1117" y="-374.3" font-family="Times,serif" font-size="14.00">vest</text>
</g>
<!-- vesting::vest&#45;&gt;vesting::unlock_stake -->
<g id="edge17" class="edge">
<title>vesting::vest&#45;&gt;vesting::unlock_stake</title>
<path fill="none" stroke="black" d="M1100.09,-363.66C1094.27,-359.51 1087.57,-355.2 1081,-352 1064.43,-343.93 1022.83,-331.37 988.26,-321.56"/>
<polygon fill="black" stroke="black" points="989.35,-318.23 978.77,-318.89 987.45,-324.97 989.35,-318.23"/>
</g>
<!-- vesting::vest&#45;&gt;vesting::unlock_rewards -->
<g id="edge18" class="edge">
<title>vesting::vest&#45;&gt;vesting::unlock_rewards</title>
<path fill="none" stroke="black" d="M1107.72,-360.76C1103.16,-352.78 1097.54,-342.95 1092.37,-333.89"/>
<polygon fill="black" stroke="black" points="1095.54,-332.38 1087.54,-325.44 1089.46,-335.86 1095.54,-332.38"/>
</g>
</g>
</svg>
