<?xml version="1.0" encoding="UTF-8" standalone="no"?>
<!DOCTYPE svg PUBLIC "-//W3C//DTD SVG 1.1//EN"
 "http://www.w3.org/Graphics/SVG/1.1/DTD/svg11.dtd">
<!-- Generated by graphviz version 7.0.4 (20221203.1631)
 -->
<!-- Title: G Pages: 1 -->
<svg width="1169pt" height="446pt"
 viewBox="0.00 0.00 1169.00 446.00" xmlns="http://www.w3.org/2000/svg" xmlns:xlink="http://www.w3.org/1999/xlink">
<g id="graph0" class="graph" transform="scale(1 1) rotate(0) translate(4 442)">
<title>G</title>
<polygon fill="white" stroke="none" points="-4,4 -4,-442 1165,-442 1165,4 -4,4"/>
<g id="clust1" class="cluster">
<title>cluster_vesting</title>
<polygon fill="none" stroke="black" points="515,-208 515,-355 1153,-355 1153,-208 515,-208"/>
<text text-anchor="middle" x="834" y="-339.8" font-family="Times,serif" font-size="14.00">vesting</text>
</g>
<g id="clust2" class="cluster">
<title>cluster_staking_proxy</title>
<polygon fill="none" stroke="black" points="8,-280 8,-430 507,-430 507,-280 8,-280"/>
<text text-anchor="middle" x="257.5" y="-414.8" font-family="Times,serif" font-size="14.00">staking_proxy</text>
</g>
<!-- request_commission_internal -->
<g id="node1" class="node">
<title>request_commission_internal</title>
<ellipse fill="none" stroke="black" cx="602" cy="-18" rx="115.08" ry="18"/>
<text text-anchor="middle" x="602" y="-14.3" font-family="Times,serif" font-size="14.00">request_commission_internal</text>
</g>
<!-- request_commission -->
<g id="node2" class="node">
<title>request_commission</title>
<ellipse fill="none" stroke="black" cx="490" cy="-90" rx="83.69" ry="18"/>
<text text-anchor="middle" x="490" y="-86.3" font-family="Times,serif" font-size="14.00">request_commission</text>
</g>
<!-- request_commission&#45;&gt;request_commission_internal -->
<g id="edge1" class="edge">
<title>request_commission&#45;&gt;request_commission_internal</title>
<path fill="none" stroke="black" d="M516.26,-72.59C530.93,-63.42 549.44,-51.85 565.5,-41.81"/>
<polygon fill="black" stroke="black" points="567.22,-44.87 573.84,-36.6 563.51,-38.93 567.22,-44.87"/>
</g>
<!-- switch_operator -->
<g id="node3" class="node">
<title>switch_operator</title>
<ellipse fill="none" stroke="black" cx="544" cy="-162" rx="67.69" ry="18"/>
<text text-anchor="middle" x="544" y="-158.3" font-family="Times,serif" font-size="14.00">switch_operator</text>
</g>
<!-- switch_operator&#45;&gt;request_commission_internal -->
<g id="edge2" class="edge">
<title>switch_operator&#45;&gt;request_commission_internal</title>
<path fill="none" stroke="black" d="M559.39,-144.04C567.56,-134.17 577.1,-121.13 583,-108 591.62,-88.82 596.41,-65.53 599.03,-47.59"/>
<polygon fill="black" stroke="black" points="602.47,-48.27 600.28,-37.9 595.53,-47.37 602.47,-48.27"/>
</g>
<!-- unlock_stake -->
<g id="node4" class="node">
<title>unlock_stake</title>
<ellipse fill="none" stroke="black" cx="745" cy="-90" rx="57.39" ry="18"/>
<text text-anchor="middle" x="745" y="-86.3" font-family="Times,serif" font-size="14.00">unlock_stake</text>
</g>
<!-- unlock_stake&#45;&gt;request_commission_internal -->
<g id="edge3" class="edge">
<title>unlock_stake&#45;&gt;request_commission_internal</title>
<path fill="none" stroke="black" d="M715.02,-74.33C695.08,-64.57 668.55,-51.58 646.21,-40.64"/>
<polygon fill="black" stroke="black" points="647.83,-37.54 637.31,-36.28 644.75,-43.82 647.83,-37.54"/>
</g>
<!-- switch_operator_with_same_commission -->
<g id="node5" class="node">
<title>switch_operator_with_same_commission</title>
<ellipse fill="none" stroke="black" cx="310" cy="-234" rx="157.87" ry="18"/>
<text text-anchor="middle" x="310" y="-230.3" font-family="Times,serif" font-size="14.00">switch_operator_with_same_commission</text>
</g>
<!-- switch_operator_with_same_commission&#45;&gt;switch_operator -->
<g id="edge4" class="edge">
<title>switch_operator_with_same_commission&#45;&gt;switch_operator</title>
<path fill="none" stroke="black" d="M364.57,-216.68C402.18,-205.42 451.97,-190.53 489.55,-179.29"/>
<polygon fill="black" stroke="black" points="490.28,-182.72 498.85,-176.51 488.27,-176.02 490.28,-182.72"/>
</g>
<!-- vesting::update_operator -->
<g id="node6" class="node">
<title>vesting::update_operator</title>
<ellipse fill="none" stroke="black" cx="592" cy="-234" rx="67.69" ry="18"/>
<text text-anchor="middle" x="592" y="-230.3" font-family="Times,serif" font-size="14.00">update_operator</text>
</g>
<!-- vesting::update_operator&#45;&gt;switch_operator -->
<g id="edge5" class="edge">
<title>vesting::update_operator&#45;&gt;switch_operator</title>
<path fill="none" stroke="black" d="M580.38,-216.05C574.84,-207.97 568.08,-198.12 561.91,-189.11"/>
<polygon fill="black" stroke="black" points="564.91,-187.31 556.37,-181.04 559.14,-191.26 564.91,-187.31"/>
</g>
<!-- staking_proxy::set_staking_contract_operator -->
<g id="node7" class="node">
<title>staking_proxy::set_staking_contract_operator</title>
<ellipse fill="none" stroke="black" cx="132" cy="-306" rx="116.18" ry="18"/>
<text text-anchor="middle" x="132" y="-302.3" font-family="Times,serif" font-size="14.00">set_staking_contract_operator</text>
</g>
<!-- staking_proxy::set_staking_contract_operator&#45;&gt;switch_operator -->
<g id="edge6" class="edge">
<title>staking_proxy::set_staking_contract_operator&#45;&gt;switch_operator</title>
<path fill="none" stroke="black" d="M198.87,-290.84C217.93,-287.05 238.74,-283.14 258,-280 354.85,-264.22 392.16,-301.29 477,-252 478.71,-251 505.69,-214.81 524.88,-188.9"/>
<polygon fill="black" stroke="black" points="527.5,-191.23 530.64,-181.11 521.88,-187.07 527.5,-191.23"/>
</g>
<!-- unlock_rewards -->
<g id="node8" class="node">
<title>unlock_rewards</title>
<ellipse fill="none" stroke="black" cx="745" cy="-162" rx="66.89" ry="18"/>
<text text-anchor="middle" x="745" y="-158.3" font-family="Times,serif" font-size="14.00">unlock_rewards</text>
</g>
<!-- unlock_rewards&#45;&gt;unlock_stake -->
<g id="edge7" class="edge">
<title>unlock_rewards&#45;&gt;unlock_stake</title>
<path fill="none" stroke="black" d="M745,-143.7C745,-136.41 745,-127.73 745,-119.54"/>
<polygon fill="black" stroke="black" points="748.5,-119.62 745,-109.62 741.5,-119.62 748.5,-119.62"/>
</g>
<!-- vesting::unlock_stake -->
<g id="node9" class="node">
<title>vesting::unlock_stake</title>
<ellipse fill="none" stroke="black" cx="887" cy="-234" rx="57.39" ry="18"/>
<text text-anchor="middle" x="887" y="-230.3" font-family="Times,serif" font-size="14.00">unlock_stake</text>
</g>
<!-- vesting::unlock_stake&#45;&gt;unlock_stake -->
<g id="edge8" class="edge">
<title>vesting::unlock_stake&#45;&gt;unlock_stake</title>
<path fill="none" stroke="black" d="M876.76,-215.98C864.86,-197.07 843.91,-166.25 821,-144 808.93,-132.28 794.03,-121.28 780.64,-112.38"/>
<polygon fill="black" stroke="black" points="782.78,-109.6 772.48,-107.11 778.98,-115.48 782.78,-109.6"/>
</g>
<!-- vesting::update_operator_with_same_commission -->
<g id="node10" class="node">
<title>vesting::update_operator_with_same_commission</title>
<ellipse fill="none" stroke="black" cx="682" cy="-306" rx="158.67" ry="18"/>
<text text-anchor="middle" x="682" y="-302.3" font-family="Times,serif" font-size="14.00">update_operator_with_same_commission</text>
</g>
<!-- vesting::update_operator_with_same_commission&#45;&gt;vesting::update_operator -->
<g id="edge9" class="edge">
<title>vesting::update_operator_with_same_commission&#45;&gt;vesting::update_operator</title>
<path fill="none" stroke="black" d="M659.75,-287.7C648.39,-278.86 634.39,-267.97 622.08,-258.4"/>
<polygon fill="black" stroke="black" points="624.3,-255.69 614.26,-252.31 620,-261.21 624.3,-255.69"/>
</g>
<!-- staking_proxy::set_vesting_contract_operator -->
<g id="node11" class="node">
<title>staking_proxy::set_vesting_contract_operator</title>
<ellipse fill="none" stroke="black" cx="383" cy="-306" rx="116.18" ry="18"/>
<text text-anchor="middle" x="383" y="-302.3" font-family="Times,serif" font-size="14.00">set_vesting_contract_operator</text>
</g>
<!-- staking_proxy::set_vesting_contract_operator&#45;&gt;vesting::update_operator -->
<g id="edge10" class="edge">
<title>staking_proxy::set_vesting_contract_operator&#45;&gt;vesting::update_operator</title>
<path fill="none" stroke="black" d="M430.43,-289.12C463.25,-278.12 506.9,-263.5 540.56,-252.23"/>
<polygon fill="black" stroke="black" points="541.3,-255.67 549.67,-249.18 539.08,-249.03 541.3,-255.67"/>
</g>
<!-- staking_proxy::set_operator -->
<g id="node12" class="node">
<title>staking_proxy::set_operator</title>
<ellipse fill="none" stroke="black" cx="257" cy="-381" rx="53.89" ry="18"/>
<text text-anchor="middle" x="257" y="-377.3" font-family="Times,serif" font-size="14.00">set_operator</text>
</g>
<!-- staking_proxy::set_operator&#45;&gt;staking_proxy::set_staking_contract_operator -->
<g id="edge11" class="edge">
<title>staking_proxy::set_operator&#45;&gt;staking_proxy::set_staking_contract_operator</title>
<path fill="none" stroke="black" d="M231.1,-364.87C213.68,-354.7 190.41,-341.11 170.8,-329.66"/>
<polygon fill="black" stroke="black" points="172.63,-326.68 162.23,-324.66 169.1,-332.72 172.63,-326.68"/>
</g>
<!-- staking_proxy::set_operator&#45;&gt;staking_proxy::set_vesting_contract_operator -->
<g id="edge15" class="edge">
<title>staking_proxy::set_operator&#45;&gt;staking_proxy::set_vesting_contract_operator</title>
<path fill="none" stroke="black" d="M283.11,-364.87C300.66,-354.7 324.12,-341.11 343.89,-329.66"/>
<polygon fill="black" stroke="black" points="345.64,-332.69 352.53,-324.65 342.13,-326.64 345.64,-332.69"/>
</g>
<!-- vesting::unlock_rewards -->
<g id="node13" class="node">
<title>vesting::unlock_rewards</title>
<ellipse fill="none" stroke="black" cx="745" cy="-234" rx="66.89" ry="18"/>
<text text-anchor="middle" x="745" y="-230.3" font-family="Times,serif" font-size="14.00">unlock_rewards</text>
</g>
<!-- vesting::unlock_rewards&#45;&gt;unlock_rewards -->
<g id="edge12" class="edge">
<title>vesting::unlock_rewards&#45;&gt;unlock_rewards</title>
<path fill="none" stroke="black" d="M745,-215.7C745,-208.41 745,-199.73 745,-191.54"/>
<polygon fill="black" stroke="black" points="748.5,-191.62 745,-181.62 741.5,-191.62 748.5,-191.62"/>
</g>
<!-- vesting::terminate_vesting_contract -->
<g id="node14" class="node">
<title>vesting::terminate_vesting_contract</title>
<ellipse fill="none" stroke="black" cx="1038" cy="-306" rx="106.68" ry="18"/>
<text text-anchor="middle" x="1038" y="-302.3" font-family="Times,serif" font-size="14.00">terminate_vesting_contract</text>
</g>
<!-- vesting::terminate_vesting_contract&#45;&gt;vesting::unlock_stake -->
<g id="edge13" class="edge">
<title>vesting::terminate_vesting_contract&#45;&gt;vesting::unlock_stake</title>
<path fill="none" stroke="black" d="M1002.6,-288.59C980.45,-278.32 951.81,-265.05 928.59,-254.28"/>
<polygon fill="black" stroke="black" points="930.25,-251.19 919.71,-250.16 927.31,-257.54 930.25,-251.19"/>
</g>
<!-- vesting::vest -->
<g id="node15" class="node">
<title>vesting::vest</title>
<ellipse fill="none" stroke="black" cx="886" cy="-306" rx="27" ry="18"/>
<text text-anchor="middle" x="886" y="-302.3" font-family="Times,serif" font-size="14.00">vest</text>
</g>
<!-- vesting::vest&#45;&gt;vesting::unlock_stake -->
<g id="edge14" class="edge">
<title>vesting::vest&#45;&gt;vesting::unlock_stake</title>
<path fill="none" stroke="black" d="M886.25,-287.7C886.35,-280.41 886.48,-271.73 886.59,-263.54"/>
<polygon fill="black" stroke="black" points="890.09,-263.67 886.73,-253.62 883.09,-263.57 890.09,-263.67"/>
</g>
<!-- vesting::vest&#45;&gt;vesting::unlock_rewards -->
<g id="edge16" class="edge">
<title>vesting::vest&#45;&gt;vesting::unlock_rewards</title>
<path fill="none" stroke="black" d="M868.51,-291.8C862.77,-287.76 856.26,-283.47 850,-280 832.1,-270.08 811.58,-260.85 793.45,-253.36"/>
<polygon fill="black" stroke="black" points="794.79,-250.13 784.21,-249.62 792.16,-256.62 794.79,-250.13"/>
</g>
</g>
</svg>
