<?xml version="1.0" encoding="UTF-8" standalone="no"?>
<!DOCTYPE svg PUBLIC "-//W3C//DTD SVG 1.1//EN"
 "http://www.w3.org/Graphics/SVG/1.1/DTD/svg11.dtd">
<!-- Generated by graphviz version 7.0.4 (20221203.1631)
 -->
<!-- Title: G Pages: 1 -->
<svg width="326pt" height="299pt"
 viewBox="0.00 0.00 326.00 299.00" xmlns="http://www.w3.org/2000/svg" xmlns:xlink="http://www.w3.org/1999/xlink">
<g id="graph0" class="graph" transform="scale(1 1) rotate(0) translate(4 295)">
<title>G</title>
<polygon fill="white" stroke="none" points="-4,4 -4,-295 322,-295 322,4 -4,4"/>
<g id="clust1" class="cluster">
<title>cluster_vesting</title>
<polygon fill="none" stroke="black" points="8,-136 8,-283 310,-283 310,-136 8,-136"/>
<text text-anchor="middle" x="159" y="-267.8" font-family="Times,serif" font-size="14.00">vesting</text>
</g>
<!-- unlock_stake -->
<g id="node1" class="node">
<title>unlock_stake</title>
<ellipse fill="none" stroke="black" cx="169" cy="-18" rx="57.39" ry="18"/>
<text text-anchor="middle" x="169" y="-14.3" font-family="Times,serif" font-size="14.00">unlock_stake</text>
</g>
<!-- unlock_rewards -->
<g id="node2" class="node">
<title>unlock_rewards</title>
<ellipse fill="none" stroke="black" cx="223" cy="-90" rx="66.89" ry="18"/>
<text text-anchor="middle" x="223" y="-86.3" font-family="Times,serif" font-size="14.00">unlock_rewards</text>
</g>
<!-- unlock_rewards&#45;&gt;unlock_stake -->
<g id="edge1" class="edge">
<title>unlock_rewards&#45;&gt;unlock_stake</title>
<path fill="none" stroke="black" d="M209.93,-72.05C203.63,-63.89 195.93,-53.91 188.92,-44.82"/>
<polygon fill="black" stroke="black" points="191.76,-42.77 182.88,-36.99 186.21,-47.04 191.76,-42.77"/>
</g>
<!-- vesting::unlock_stake -->
<g id="node3" class="node">
<title>vesting::unlock_stake</title>
<ellipse fill="none" stroke="black" cx="93" cy="-162" rx="57.39" ry="18"/>
<text text-anchor="middle" x="93" y="-158.3" font-family="Times,serif" font-size="14.00">unlock_stake</text>
</g>
<!-- vesting::unlock_stake&#45;&gt;unlock_stake -->
<g id="edge2" class="edge">
<title>vesting::unlock_stake&#45;&gt;unlock_stake</title>
<path fill="none" stroke="black" d="M102.17,-143.87C115.18,-119.56 139.13,-74.82 154.54,-46.01"/>
<polygon fill="black" stroke="black" points="157.45,-47.99 159.09,-37.52 151.28,-44.69 157.45,-47.99"/>
</g>
<!-- vesting::unlock_rewards -->
<g id="node4" class="node">
<title>vesting::unlock_rewards</title>
<ellipse fill="none" stroke="black" cx="235" cy="-162" rx="66.89" ry="18"/>
<text text-anchor="middle" x="235" y="-158.3" font-family="Times,serif" font-size="14.00">unlock_rewards</text>
</g>
<!-- vesting::unlock_rewards&#45;&gt;unlock_rewards -->
<g id="edge3" class="edge">
<title>vesting::unlock_rewards&#45;&gt;unlock_rewards</title>
<path fill="none" stroke="black" d="M232.03,-143.7C230.77,-136.32 229.26,-127.52 227.84,-119.25"/>
<polygon fill="black" stroke="black" points="231.33,-118.86 226.19,-109.6 224.43,-120.04 231.33,-118.86"/>
</g>
<!-- vesting::terminate_vesting_contract -->
<g id="node5" class="node">
<title>vesting::terminate_vesting_contract</title>
<ellipse fill="none" stroke="black" cx="123" cy="-234" rx="106.68" ry="18"/>
<text text-anchor="middle" x="123" y="-230.3" font-family="Times,serif" font-size="14.00">terminate_vesting_contract</text>
</g>
<!-- vesting::terminate_vesting_contract&#45;&gt;vesting::unlock_stake -->
<g id="edge4" class="edge">
<title>vesting::terminate_vesting_contract&#45;&gt;vesting::unlock_stake</title>
<path fill="none" stroke="black" d="M115.58,-215.7C112.35,-208.15 108.48,-199.12 104.86,-190.68"/>
<polygon fill="black" stroke="black" points="108.08,-189.31 100.93,-181.5 101.65,-192.07 108.08,-189.31"/>
</g>
<!-- vesting::vest -->
<g id="node6" class="node">
<title>vesting::vest</title>
<ellipse fill="none" stroke="black" cx="275" cy="-234" rx="27" ry="18"/>
<text text-anchor="middle" x="275" y="-230.3" font-family="Times,serif" font-size="14.00">vest</text>
</g>
<!-- vesting::vest&#45;&gt;vesting::unlock_stake -->
<g id="edge5" class="edge">
<title>vesting::vest&#45;&gt;vesting::unlock_stake</title>
<path fill="none" stroke="black" d="M253.83,-222.6C248.99,-220.34 243.85,-218.02 239,-216 206.99,-202.67 170.31,-189.36 141.72,-179.41"/>
<polygon fill="black" stroke="black" points="143.21,-176.22 132.62,-176.27 140.92,-182.84 143.21,-176.22"/>
</g>
<!-- vesting::vest&#45;&gt;vesting::unlock_rewards -->
<g id="edge6" class="edge">
<title>vesting::vest&#45;&gt;vesting::unlock_rewards</title>
<path fill="none" stroke="black" d="M265.72,-216.76C261.16,-208.78 255.54,-198.95 250.37,-189.89"/>
<polygon fill="black" stroke="black" points="253.54,-188.38 245.54,-181.44 247.46,-191.86 253.54,-188.38"/>
</g>
</g>
</svg>
