<?xml version="1.0" encoding="UTF-8" standalone="no"?>
<!DOCTYPE svg PUBLIC "-//W3C//DTD SVG 1.1//EN"
 "http://www.w3.org/Graphics/SVG/1.1/DTD/svg11.dtd">
<!-- Generated by graphviz version 7.0.4 (20221203.1631)
 -->
<!-- Title: G Pages: 1 -->
<svg width="289pt" height="238pt"
 viewBox="0.00 0.00 288.59 238.00" xmlns="http://www.w3.org/2000/svg" xmlns:xlink="http://www.w3.org/1999/xlink">
<g id="graph0" class="graph" transform="scale(1 1) rotate(0) translate(4 234)">
<title>G</title>
<polygon fill="white" stroke="none" points="-4,4 -4,-234 284.59,-234 284.59,4 -4,4"/>
<g id="clust1" class="cluster">
<title>cluster_staking_contract</title>
<polygon fill="none" stroke="black" points="144.59,-64 144.59,-139 272.59,-139 272.59,-64 144.59,-64"/>
<text text-anchor="middle" x="208.59" y="-123.8" font-family="Times,serif" font-size="14.00">staking_contract</text>
</g>
<g id="clust2" class="cluster">
<title>cluster_vesting</title>
<polygon fill="none" stroke="black" points="144.59,-147 144.59,-222 272.59,-222 272.59,-147 144.59,-147"/>
<text text-anchor="middle" x="208.59" y="-206.8" font-family="Times,serif" font-size="14.00">vesting</text>
</g>
<!-- increase_lockup_with_cap -->
<g id="node1" class="node">
<title>increase_lockup_with_cap</title>
<ellipse fill="none" stroke="black" cx="137.59" cy="-18" rx="104.78" ry="18"/>
<text text-anchor="middle" x="137.59" y="-14.3" font-family="Times,serif" font-size="14.00">increase_lockup_with_cap</text>
</g>
<!-- increase_lockup -->
<g id="node2" class="node">
<title>increase_lockup</title>
<ellipse fill="none" stroke="black" cx="67.59" cy="-90" rx="67.69" ry="18"/>
<text text-anchor="middle" x="67.59" y="-86.3" font-family="Times,serif" font-size="14.00">increase_lockup</text>
</g>
<!-- increase_lockup&#45;&gt;increase_lockup_with_cap -->
<g id="edge1" class="edge">
<title>increase_lockup&#45;&gt;increase_lockup_with_cap</title>
<path fill="none" stroke="black" d="M84.18,-72.41C92.69,-63.91 103.22,-53.37 112.68,-43.91"/>
<polygon fill="black" stroke="black" points="114.97,-46.57 119.57,-37.03 110.02,-41.62 114.97,-46.57"/>
</g>
<!-- staking_contract::reset_lockup -->
<g id="node3" class="node">
<title>staking_contract::reset_lockup</title>
<ellipse fill="none" stroke="black" cx="208.59" cy="-90" rx="55.79" ry="18"/>
<text text-anchor="middle" x="208.59" y="-86.3" font-family="Times,serif" font-size="14.00">reset_lockup</text>
</g>
<!-- staking_contract::reset_lockup&#45;&gt;increase_lockup_with_cap -->
<g id="edge2" class="edge">
<title>staking_contract::reset_lockup&#45;&gt;increase_lockup_with_cap</title>
<path fill="none" stroke="black" d="M191.77,-72.41C183.2,-63.97 172.61,-53.53 163.08,-44.12"/>
<polygon fill="black" stroke="black" points="165.7,-41.79 156.12,-37.26 160.78,-46.78 165.7,-41.79"/>
</g>
<!-- vesting::reset_lockup -->
<g id="node4" class="node">
<title>vesting::reset_lockup</title>
<ellipse fill="none" stroke="black" cx="208.59" cy="-173" rx="55.79" ry="18"/>
<text text-anchor="middle" x="208.59" y="-169.3" font-family="Times,serif" font-size="14.00">reset_lockup</text>
</g>
<!-- vesting::reset_lockup&#45;&gt;staking_contract::reset_lockup -->
<g id="edge3" class="edge">
<title>vesting::reset_lockup&#45;&gt;staking_contract::reset_lockup</title>
<path fill="none" stroke="black" d="M208.59,-154.82C208.59,-144.69 208.59,-131.6 208.59,-119.92"/>
<polygon fill="black" stroke="black" points="212.09,-119.95 208.59,-109.95 205.09,-119.95 212.09,-119.95"/>
</g>
</g>
</svg>
