<?xml version="1.0" encoding="UTF-8" standalone="no"?>
<!DOCTYPE svg PUBLIC "-//W3C//DTD SVG 1.1//EN"
 "http://www.w3.org/Graphics/SVG/1.1/DTD/svg11.dtd">
<!-- Generated by graphviz version 7.0.4 (20221203.1631)
 -->
<!-- Title: G Pages: 1 -->
<svg width="2093pt" height="769pt"
 viewBox="0.00 0.00 2093.14 769.00" xmlns="http://www.w3.org/2000/svg" xmlns:xlink="http://www.w3.org/1999/xlink">
<g id="graph0" class="graph" transform="scale(1 1) rotate(0) translate(4 765)">
<title>G</title>
<polygon fill="white" stroke="none" points="-4,4 -4,-765 2089.14,-765 2089.14,4 -4,4"/>
<g id="clust1" class="cluster">
<title>cluster_signer</title>
<polygon fill="none" stroke="black" points="96.14,-329 96.14,-487 246.14,-487 246.14,-329 96.14,-329"/>
<text text-anchor="middle" x="171.14" y="-471.8" font-family="Times,serif" font-size="14.00">signer</text>
</g>
<g id="clust2" class="cluster">
<title>cluster_stake</title>
<polygon fill="none" stroke="black" points="254.14,-246 254.14,-570 902.14,-570 902.14,-246 254.14,-246"/>
<text text-anchor="middle" x="578.14" y="-554.8" font-family="Times,serif" font-size="14.00">stake</text>
</g>
<g id="clust3" class="cluster">
<title>cluster_staking_contract</title>
<polygon fill="none" stroke="black" points="1634.14,-412 1634.14,-570 1967.14,-570 1967.14,-412 1634.14,-412"/>
<text text-anchor="middle" x="1800.64" y="-554.8" font-family="Times,serif" font-size="14.00">staking_contract</text>
</g>
<g id="clust4" class="cluster">
<title>cluster_vesting</title>
<polygon fill="none" stroke="black" points="910.14,-495 910.14,-645 1594.14,-645 1594.14,-495 910.14,-495"/>
<text text-anchor="middle" x="1252.14" y="-629.8" font-family="Times,serif" font-size="14.00">vesting</text>
</g>
<g id="clust5" class="cluster">
<title>cluster_simple_map</title>
<polygon fill="none" stroke="black" points="1770.14,-246 1770.14,-404 2028.14,-404 2028.14,-246 1770.14,-246"/>
<text text-anchor="middle" x="1899.14" y="-388.8" font-family="Times,serif" font-size="14.00">simple_map</text>
</g>
<g id="clust6" class="cluster">
<title>cluster_event</title>
<polygon fill="none" stroke="black" points="1440.14,-329 1440.14,-487 1626.14,-487 1626.14,-329 1440.14,-329"/>
<text text-anchor="middle" x="1533.14" y="-471.8" font-family="Times,serif" font-size="14.00">event</text>
</g>
<g id="clust7" class="cluster">
<title>cluster_error</title>
<polygon fill="none" stroke="black" points="979.14,-163 979.14,-321 1404.14,-321 1404.14,-163 979.14,-163"/>
<text text-anchor="middle" x="1191.64" y="-305.8" font-family="Times,serif" font-size="14.00">error</text>
</g>
<g id="clust8" class="cluster">
<title>cluster_option</title>
<polygon fill="none" stroke="black" points="1841.14,-91 1841.14,-238 2077.14,-238 2077.14,-91 1841.14,-91"/>
<text text-anchor="middle" x="1959.14" y="-222.8" font-family="Times,serif" font-size="14.00">option</text>
</g>
<g id="clust9" class="cluster">
<title>cluster_bcs</title>
<polygon fill="none" stroke="black" points="1634.14,-329 1634.14,-404 1730.14,-404 1730.14,-329 1634.14,-329"/>
<text text-anchor="middle" x="1682.14" y="-388.8" font-family="Times,serif" font-size="14.00">bcs</text>
</g>
<g id="clust10" class="cluster">
<title>cluster_account</title>
<polygon fill="none" stroke="black" points="1184.14,-329 1184.14,-487 1432.14,-487 1432.14,-329 1184.14,-329"/>
<text text-anchor="middle" x="1308.14" y="-471.8" font-family="Times,serif" font-size="14.00">account</text>
</g>
<g id="clust11" class="cluster">
<title>cluster_vector</title>
<polygon fill="none" stroke="black" points="1848.14,-8 1848.14,-83 2055.14,-83 2055.14,-8 1848.14,-8"/>
<text text-anchor="middle" x="1951.64" y="-67.8" font-family="Times,serif" font-size="14.00">vector</text>
</g>
<!-- set_voter -->
<g id="node1" class="node">
<title>set_voter</title>
<ellipse fill="none" stroke="black" cx="1055.14" cy="-743" rx="42.79" ry="18"/>
<text text-anchor="middle" x="1055.14" y="-739.3" font-family="Times,serif" font-size="14.00">set_voter</text>
</g>
<!-- set_stake_pool_voter -->
<g id="node2" class="node">
<title>set_stake_pool_voter</title>
<ellipse fill="none" stroke="black" cx="85.14" cy="-596" rx="85.29" ry="18"/>
<text text-anchor="middle" x="85.14" y="-592.3" font-family="Times,serif" font-size="14.00">set_stake_pool_voter</text>
</g>
<!-- set_voter&#45;&gt;set_stake_pool_voter -->
<g id="edge1" class="edge">
<title>set_voter&#45;&gt;set_stake_pool_voter</title>
<path fill="none" stroke="black" d="M1012,-742.32C883.35,-742.2 492.21,-733.98 184.14,-645 162.82,-638.84 140.46,-628.38 122.39,-618.8"/>
<polygon fill="black" stroke="black" points="124.08,-615.73 113.62,-614.02 120.73,-621.88 124.08,-615.73"/>
</g>
<!-- set_staking_contract_voter -->
<g id="node3" class="node">
<title>set_staking_contract_voter</title>
<ellipse fill="none" stroke="black" cx="1707.14" cy="-596" rx="105.08" ry="18"/>
<text text-anchor="middle" x="1707.14" y="-592.3" font-family="Times,serif" font-size="14.00">set_staking_contract_voter</text>
</g>
<!-- set_voter&#45;&gt;set_staking_contract_voter -->
<g id="edge2" class="edge">
<title>set_voter&#45;&gt;set_staking_contract_voter</title>
<path fill="none" stroke="black" d="M1096.8,-737.98C1188.85,-728.35 1415.85,-700.55 1598.14,-645 1620.78,-638.1 1644.96,-627.78 1664.78,-618.47"/>
<polygon fill="black" stroke="black" points="1666.13,-621.71 1673.64,-614.23 1663.11,-615.39 1666.13,-621.71"/>
</g>
<!-- set_vesting_contract_voter -->
<g id="node4" class="node">
<title>set_vesting_contract_voter</title>
<ellipse fill="none" stroke="black" cx="1055.14" cy="-671" rx="105.08" ry="18"/>
<text text-anchor="middle" x="1055.14" y="-667.3" font-family="Times,serif" font-size="14.00">set_vesting_contract_voter</text>
</g>
<!-- set_voter&#45;&gt;set_vesting_contract_voter -->
<g id="edge3" class="edge">
<title>set_voter&#45;&gt;set_vesting_contract_voter</title>
<path fill="none" stroke="black" d="M1055.14,-724.7C1055.14,-717.41 1055.14,-708.73 1055.14,-700.54"/>
<polygon fill="black" stroke="black" points="1058.64,-700.62 1055.14,-690.62 1051.64,-700.62 1058.64,-700.62"/>
</g>
<!-- signer::address_of -->
<g id="node5" class="node">
<title>signer::address_of</title>
<ellipse fill="none" stroke="black" cx="189.14" cy="-438" rx="48.99" ry="18"/>
<text text-anchor="middle" x="189.14" y="-434.3" font-family="Times,serif" font-size="14.00">address_of</text>
</g>
<!-- set_stake_pool_voter&#45;&gt;signer::address_of -->
<g id="edge4" class="edge">
<title>set_stake_pool_voter&#45;&gt;signer::address_of</title>
<path fill="none" stroke="black" d="M96.67,-577.71C114.88,-550.39 150.43,-497.07 171.75,-465.08"/>
<polygon fill="black" stroke="black" points="174.41,-467.42 177.04,-457.15 168.58,-463.53 174.41,-467.42"/>
</g>
<!-- stake::set_delegated_voter -->
<g id="node6" class="node">
<title>stake::set_delegated_voter</title>
<ellipse fill="none" stroke="black" cx="352.14" cy="-521" rx="81.49" ry="18"/>
<text text-anchor="middle" x="352.14" y="-517.3" font-family="Times,serif" font-size="14.00">set_delegated_voter</text>
</g>
<!-- set_stake_pool_voter&#45;&gt;stake::set_delegated_voter -->
<g id="edge5" class="edge">
<title>set_stake_pool_voter&#45;&gt;stake::set_delegated_voter</title>
<path fill="none" stroke="black" d="M135.68,-581.18C179.91,-569.09 244.26,-551.5 291.31,-538.63"/>
<polygon fill="black" stroke="black" points="292.08,-542.05 300.81,-536.04 290.24,-535.3 292.08,-542.05"/>
</g>
<!-- stake::stake_pool_exists -->
<g id="node7" class="node">
<title>stake::stake_pool_exists</title>
<ellipse fill="none" stroke="black" cx="464.14" cy="-272" rx="73.39" ry="18"/>
<text text-anchor="middle" x="464.14" y="-268.3" font-family="Times,serif" font-size="14.00">stake_pool_exists</text>
</g>
<!-- set_stake_pool_voter&#45;&gt;stake::stake_pool_exists -->
<g id="edge6" class="edge">
<title>set_stake_pool_voter&#45;&gt;stake::stake_pool_exists</title>
<path fill="none" stroke="black" d="M78.97,-577.71C63.49,-530.97 28.66,-400.82 92.14,-329 128.96,-287.34 281.35,-276.33 379.3,-273.62"/>
<polygon fill="black" stroke="black" points="379.24,-277.12 389.15,-273.37 379.07,-270.12 379.24,-277.12"/>
</g>
<!-- set_staking_contract_voter&#45;&gt;signer::address_of -->
<g id="edge7" class="edge">
<title>set_staking_contract_voter&#45;&gt;signer::address_of</title>
<path fill="none" stroke="black" d="M1636.08,-582.36C1623.48,-580.56 1610.46,-578.99 1598.14,-578 1579.48,-576.5 265.9,-580.11 250.14,-570 245.41,-566.96 217.38,-503.92 201.01,-466.41"/>
<polygon fill="black" stroke="black" points="204.34,-465.3 197.14,-457.52 197.93,-468.09 204.34,-465.3"/>
</g>
<!-- staking_contract::staking_contract_exists -->
<g id="node8" class="node">
<title>staking_contract::staking_contract_exists</title>
<ellipse fill="none" stroke="black" cx="1866.14" cy="-521" rx="92.88" ry="18"/>
<text text-anchor="middle" x="1866.14" y="-517.3" font-family="Times,serif" font-size="14.00">staking_contract_exists</text>
</g>
<!-- set_staking_contract_voter&#45;&gt;staking_contract::staking_contract_exists -->
<g id="edge8" class="edge">
<title>set_staking_contract_voter&#45;&gt;staking_contract::staking_contract_exists</title>
<path fill="none" stroke="black" d="M1745.29,-578.79C1751.93,-575.91 1758.75,-572.9 1765.14,-570 1784.12,-561.4 1804.94,-551.58 1822.72,-543.06"/>
<polygon fill="black" stroke="black" points="1824.21,-546.23 1831.71,-538.74 1821.18,-539.92 1824.21,-546.23"/>
</g>
<!-- staking_contract::update_voter -->
<g id="node9" class="node">
<title>staking_contract::update_voter</title>
<ellipse fill="none" stroke="black" cx="1699.14" cy="-521" rx="56.59" ry="18"/>
<text text-anchor="middle" x="1699.14" y="-517.3" font-family="Times,serif" font-size="14.00">update_voter</text>
</g>
<!-- set_staking_contract_voter&#45;&gt;staking_contract::update_voter -->
<g id="edge9" class="edge">
<title>set_staking_contract_voter&#45;&gt;staking_contract::update_voter</title>
<path fill="none" stroke="black" d="M1705.25,-577.7C1704.37,-569.67 1703.3,-559.9 1702.3,-550.8"/>
<polygon fill="black" stroke="black" points="1705.79,-550.49 1701.22,-540.93 1698.83,-551.26 1705.79,-550.49"/>
</g>
<!-- set_vesting_contract_voter&#45;&gt;signer::address_of -->
<g id="edge10" class="edge">
<title>set_vesting_contract_voter&#45;&gt;signer::address_of</title>
<path fill="none" stroke="black" d="M955.9,-664.81C744.66,-652.82 265.38,-620.35 212.14,-570 184.72,-544.06 182.94,-497.83 185.24,-467.8"/>
<polygon fill="black" stroke="black" points="188.71,-468.21 186.21,-457.91 181.75,-467.52 188.71,-468.21"/>
</g>
<!-- vesting::operator -->
<g id="node10" class="node">
<title>vesting::operator</title>
<ellipse fill="none" stroke="black" cx="1120.14" cy="-596" rx="40.09" ry="18"/>
<text text-anchor="middle" x="1120.14" y="-592.3" font-family="Times,serif" font-size="14.00">operator</text>
</g>
<!-- set_vesting_contract_voter&#45;&gt;vesting::operator -->
<g id="edge11" class="edge">
<title>set_vesting_contract_voter&#45;&gt;vesting::operator</title>
<path fill="none" stroke="black" d="M1070.55,-652.7C1078.79,-643.44 1089.09,-631.87 1098.16,-621.68"/>
<polygon fill="black" stroke="black" points="1100.7,-624.1 1104.73,-614.31 1095.47,-619.45 1100.7,-624.1"/>
</g>
<!-- vesting::update_voter -->
<g id="node11" class="node">
<title>vesting::update_voter</title>
<ellipse fill="none" stroke="black" cx="1446.14" cy="-596" rx="56.59" ry="18"/>
<text text-anchor="middle" x="1446.14" y="-592.3" font-family="Times,serif" font-size="14.00">update_voter</text>
</g>
<!-- set_vesting_contract_voter&#45;&gt;vesting::update_voter -->
<g id="edge12" class="edge">
<title>set_vesting_contract_voter&#45;&gt;vesting::update_voter</title>
<path fill="none" stroke="black" d="M1124.15,-657.12C1198.85,-643.17 1316.75,-621.16 1387.26,-607.99"/>
<polygon fill="black" stroke="black" points="1387.48,-611.51 1396.66,-606.24 1386.19,-604.63 1387.48,-611.51"/>
</g>
<!-- vesting::vesting_contracts -->
<g id="node12" class="node">
<title>vesting::vesting_contracts</title>
<ellipse fill="none" stroke="black" cx="990.14" cy="-596" rx="72.29" ry="18"/>
<text text-anchor="middle" x="990.14" y="-592.3" font-family="Times,serif" font-size="14.00">vesting_contracts</text>
</g>
<!-- set_vesting_contract_voter&#45;&gt;vesting::vesting_contracts -->
<g id="edge13" class="edge">
<title>set_vesting_contract_voter&#45;&gt;vesting::vesting_contracts</title>
<path fill="none" stroke="black" d="M1039.74,-652.7C1031.67,-643.63 1021.63,-632.36 1012.7,-622.33"/>
<polygon fill="black" stroke="black" points="1015.48,-620.2 1006.22,-615.05 1010.25,-624.85 1015.48,-620.2"/>
</g>
<!-- signer::borrow_address -->
<g id="node13" class="node">
<title>signer::borrow_address</title>
<ellipse fill="none" stroke="black" cx="171.14" cy="-355" rx="66.89" ry="18"/>
<text text-anchor="middle" x="171.14" y="-351.3" font-family="Times,serif" font-size="14.00">borrow_address</text>
</g>
<!-- signer::address_of&#45;&gt;signer::borrow_address -->
<g id="edge14" class="edge">
<title>signer::address_of&#45;&gt;signer::borrow_address</title>
<path fill="none" stroke="black" d="M185.33,-419.82C183.05,-409.58 180.1,-396.33 177.49,-384.55"/>
<polygon fill="black" stroke="black" points="180.93,-383.91 175.34,-374.91 174.1,-385.43 180.93,-383.91"/>
</g>
<!-- stake::set_delegated_voter&#45;&gt;signer::address_of -->
<g id="edge15" class="edge">
<title>stake::set_delegated_voter&#45;&gt;signer::address_of</title>
<path fill="none" stroke="black" d="M299.58,-506.89C283.24,-501.8 265.5,-495.19 250.14,-487 237.73,-480.38 225.29,-471.18 214.92,-462.6"/>
<polygon fill="black" stroke="black" points="217.41,-460.12 207.53,-456.28 212.86,-465.44 217.41,-460.12"/>
</g>
<!-- stake::assert_owner_cap_exists -->
<g id="node14" class="node">
<title>stake::assert_owner_cap_exists</title>
<ellipse fill="none" stroke="black" cx="360.14" cy="-438" rx="98.28" ry="18"/>
<text text-anchor="middle" x="360.14" y="-434.3" font-family="Times,serif" font-size="14.00">assert_owner_cap_exists</text>
</g>
<!-- stake::set_delegated_voter&#45;&gt;stake::assert_owner_cap_exists -->
<g id="edge16" class="edge">
<title>stake::set_delegated_voter&#45;&gt;stake::assert_owner_cap_exists</title>
<path fill="none" stroke="black" d="M353.84,-502.82C354.85,-492.58 356.16,-479.33 357.32,-467.55"/>
<polygon fill="black" stroke="black" points="360.77,-468.23 358.27,-457.94 353.81,-467.55 360.77,-468.23"/>
</g>
<!-- stake::set_delegated_voter_with_cap -->
<g id="node15" class="node">
<title>stake::set_delegated_voter_with_cap</title>
<ellipse fill="none" stroke="black" cx="594.14" cy="-438" rx="117.78" ry="18"/>
<text text-anchor="middle" x="594.14" y="-434.3" font-family="Times,serif" font-size="14.00">set_delegated_voter_with_cap</text>
</g>
<!-- stake::set_delegated_voter&#45;&gt;stake::set_delegated_voter_with_cap -->
<g id="edge17" class="edge">
<title>stake::set_delegated_voter&#45;&gt;stake::set_delegated_voter_with_cap</title>
<path fill="none" stroke="black" d="M402.51,-506.51C422.72,-500.85 446.15,-493.97 467.14,-487 492.35,-478.64 519.96,-468.34 542.99,-459.43"/>
<polygon fill="black" stroke="black" points="544.09,-462.75 552.14,-455.86 541.55,-456.23 544.09,-462.75"/>
</g>
<!-- simple_map::contains_key -->
<g id="node16" class="node">
<title>simple_map::contains_key</title>
<ellipse fill="none" stroke="black" cx="1963.14" cy="-355" rx="57.39" ry="18"/>
<text text-anchor="middle" x="1963.14" y="-351.3" font-family="Times,serif" font-size="14.00">contains_key</text>
</g>
<!-- staking_contract::staking_contract_exists&#45;&gt;simple_map::contains_key -->
<g id="edge18" class="edge">
<title>staking_contract::staking_contract_exists&#45;&gt;simple_map::contains_key</title>
<path fill="none" stroke="black" d="M1900.72,-503.89C1907.91,-499.26 1914.89,-493.63 1920.14,-487 1944.07,-456.79 1954.91,-412.76 1959.66,-384.25"/>
<polygon fill="black" stroke="black" points="1963.09,-384.97 1961.11,-374.56 1956.16,-383.93 1963.09,-384.97"/>
</g>
<!-- staking_contract::update_voter&#45;&gt;signer::address_of -->
<g id="edge19" class="edge">
<title>staking_contract::update_voter&#45;&gt;signer::address_of</title>
<path fill="none" stroke="black" d="M1659.25,-507.81C1640.84,-502.79 1618.58,-497.55 1598.14,-495 1560.99,-490.36 285.49,-499.36 250.14,-487 236.03,-482.07 222.69,-472.39 212.11,-463.02"/>
<polygon fill="black" stroke="black" points="214.7,-460.65 205.02,-456.36 209.91,-465.75 214.7,-460.65"/>
</g>
<!-- staking_contract::update_voter&#45;&gt;stake::set_delegated_voter_with_cap -->
<g id="edge23" class="edge">
<title>staking_contract::update_voter&#45;&gt;stake::set_delegated_voter_with_cap</title>
<path fill="none" stroke="black" d="M1659.25,-507.84C1640.84,-502.83 1618.57,-497.59 1598.14,-495 1501.47,-482.77 816.92,-504.95 721.14,-487 692.81,-481.69 662.57,-470.5 638.71,-460.26"/>
<polygon fill="black" stroke="black" points="640.17,-457.08 629.61,-456.26 637.35,-463.49 640.17,-457.08"/>
</g>
<!-- event::emit_event -->
<g id="node17" class="node">
<title>event::emit_event</title>
<ellipse fill="none" stroke="black" cx="1568.14" cy="-438" rx="50.09" ry="18"/>
<text text-anchor="middle" x="1568.14" y="-434.3" font-family="Times,serif" font-size="14.00">emit_event</text>
</g>
<!-- staking_contract::update_voter&#45;&gt;event::emit_event -->
<g id="edge20" class="edge">
<title>staking_contract::update_voter&#45;&gt;event::emit_event</title>
<path fill="none" stroke="black" d="M1666.09,-505.94C1654.45,-500.53 1641.45,-493.97 1630.14,-487 1618.22,-479.65 1605.87,-470.46 1595.36,-462.09"/>
<polygon fill="black" stroke="black" points="1597.8,-459.56 1587.83,-455.97 1593.38,-464.99 1597.8,-459.56"/>
</g>
<!-- simple_map::borrow_mut -->
<g id="node18" class="node">
<title>simple_map::borrow_mut</title>
<ellipse fill="none" stroke="black" cx="1833.14" cy="-355" rx="54.69" ry="18"/>
<text text-anchor="middle" x="1833.14" y="-351.3" font-family="Times,serif" font-size="14.00">borrow_mut</text>
</g>
<!-- staking_contract::update_voter&#45;&gt;simple_map::borrow_mut -->
<g id="edge21" class="edge">
<title>staking_contract::update_voter&#45;&gt;simple_map::borrow_mut</title>
<path fill="none" stroke="black" d="M1730.62,-505.69C1741.08,-501.54 1752.92,-497.46 1764.14,-495 1777.52,-492.06 1877.78,-496.99 1887.14,-487 1909.93,-462.68 1899.62,-442.91 1887.14,-412 1882.15,-399.63 1872.97,-388.47 1863.58,-379.43"/>
<polygon fill="black" stroke="black" points="1865.92,-376.82 1856.14,-372.75 1861.25,-382.04 1865.92,-376.82"/>
</g>
<!-- stake::get_delegated_voter -->
<g id="node19" class="node">
<title>stake::get_delegated_voter</title>
<ellipse fill="none" stroke="black" cx="812.14" cy="-438" rx="81.79" ry="18"/>
<text text-anchor="middle" x="812.14" y="-434.3" font-family="Times,serif" font-size="14.00">get_delegated_voter</text>
</g>
<!-- staking_contract::update_voter&#45;&gt;stake::get_delegated_voter -->
<g id="edge22" class="edge">
<title>staking_contract::update_voter&#45;&gt;stake::get_delegated_voter</title>
<path fill="none" stroke="black" d="M1659.24,-507.94C1640.82,-502.94 1618.56,-497.69 1598.14,-495 1506.03,-482.87 1272.79,-493.91 1180.14,-487 1078.23,-479.4 961.34,-462.79 887.15,-451.26"/>
<polygon fill="black" stroke="black" points="887.99,-447.84 877.57,-449.76 886.91,-454.76 887.99,-447.84"/>
</g>
<!-- staking_contract::assert_staking_contract_exists -->
<g id="node20" class="node">
<title>staking_contract::assert_staking_contract_exists</title>
<ellipse fill="none" stroke="black" cx="1760.14" cy="-438" rx="117.78" ry="18"/>
<text text-anchor="middle" x="1760.14" y="-434.3" font-family="Times,serif" font-size="14.00">assert_staking_contract_exists</text>
</g>
<!-- staking_contract::update_voter&#45;&gt;staking_contract::assert_staking_contract_exists -->
<g id="edge24" class="edge">
<title>staking_contract::update_voter&#45;&gt;staking_contract::assert_staking_contract_exists</title>
<path fill="none" stroke="black" d="M1711.78,-503.22C1720.01,-492.29 1730.92,-477.8 1740.3,-465.35"/>
<polygon fill="black" stroke="black" points="1742.97,-467.62 1746.19,-457.53 1737.38,-463.41 1742.97,-467.62"/>
</g>
<!-- vesting::assert_vesting_contract_exists -->
<g id="node21" class="node">
<title>vesting::assert_vesting_contract_exists</title>
<ellipse fill="none" stroke="black" cx="1036.14" cy="-521" rx="117.78" ry="18"/>
<text text-anchor="middle" x="1036.14" y="-517.3" font-family="Times,serif" font-size="14.00">assert_vesting_contract_exists</text>
</g>
<!-- vesting::operator&#45;&gt;vesting::assert_vesting_contract_exists -->
<g id="edge25" class="edge">
<title>vesting::operator&#45;&gt;vesting::assert_vesting_contract_exists</title>
<path fill="none" stroke="black" d="M1102.33,-579.52C1091.22,-569.86 1076.68,-557.23 1064.06,-546.26"/>
<polygon fill="black" stroke="black" points="1066.68,-543.9 1056.83,-539.98 1062.09,-549.18 1066.68,-543.9"/>
</g>
<!-- vesting::update_voter&#45;&gt;staking_contract::update_voter -->
<g id="edge27" class="edge">
<title>vesting::update_voter&#45;&gt;staking_contract::update_voter</title>
<path fill="none" stroke="black" d="M1498.7,-589.01C1548.11,-583.19 1616.23,-574.56 1628.14,-570 1643.53,-564.11 1658.9,-554.33 1671.38,-545.13"/>
<polygon fill="black" stroke="black" points="1673.3,-548.06 1679.11,-539.2 1669.04,-542.51 1673.3,-548.06"/>
</g>
<!-- vesting::update_voter&#45;&gt;event::emit_event -->
<g id="edge26" class="edge">
<title>vesting::update_voter&#45;&gt;event::emit_event</title>
<path fill="none" stroke="black" d="M1502.1,-592.94C1539.21,-590.27 1583.2,-584.12 1595.14,-570 1619.99,-540.64 1601.37,-494.42 1585.14,-465.46"/>
<polygon fill="black" stroke="black" points="1588.21,-463.78 1580.12,-456.94 1582.18,-467.33 1588.21,-463.78"/>
</g>
<!-- vesting::get_vesting_account_signer_internal -->
<g id="node22" class="node">
<title>vesting::get_vesting_account_signer_internal</title>
<ellipse fill="none" stroke="black" cx="1446.14" cy="-521" rx="139.98" ry="18"/>
<text text-anchor="middle" x="1446.14" y="-517.3" font-family="Times,serif" font-size="14.00">get_vesting_account_signer_internal</text>
</g>
<!-- vesting::update_voter&#45;&gt;vesting::get_vesting_account_signer_internal -->
<g id="edge28" class="edge">
<title>vesting::update_voter&#45;&gt;vesting::get_vesting_account_signer_internal</title>
<path fill="none" stroke="black" d="M1446.14,-577.7C1446.14,-569.67 1446.14,-559.9 1446.14,-550.8"/>
<polygon fill="black" stroke="black" points="1449.64,-550.94 1446.14,-540.94 1442.64,-550.94 1449.64,-550.94"/>
</g>
<!-- vesting::verify_admin -->
<g id="node23" class="node">
<title>vesting::verify_admin</title>
<ellipse fill="none" stroke="black" cx="1230.14" cy="-521" rx="58.49" ry="18"/>
<text text-anchor="middle" x="1230.14" y="-517.3" font-family="Times,serif" font-size="14.00">verify_admin</text>
</g>
<!-- vesting::update_voter&#45;&gt;vesting::verify_admin -->
<g id="edge29" class="edge">
<title>vesting::update_voter&#45;&gt;vesting::verify_admin</title>
<path fill="none" stroke="black" d="M1390.7,-591.72C1361.92,-588.54 1326.69,-582.28 1297.14,-570 1282.75,-564.02 1268.48,-554.44 1256.84,-545.41"/>
<polygon fill="black" stroke="black" points="1259.26,-542.87 1249.28,-539.31 1254.86,-548.32 1259.26,-542.87"/>
</g>
<!-- error::not_found -->
<g id="node24" class="node">
<title>error::not_found</title>
<ellipse fill="none" stroke="black" cx="1034.14" cy="-272" rx="46.59" ry="18"/>
<text text-anchor="middle" x="1034.14" y="-268.3" font-family="Times,serif" font-size="14.00">not_found</text>
</g>
<!-- stake::assert_owner_cap_exists&#45;&gt;error::not_found -->
<g id="edge30" class="edge">
<title>stake::assert_owner_cap_exists&#45;&gt;error::not_found</title>
<path fill="none" stroke="black" d="M413.09,-422.39C430.21,-418.27 449.36,-414.29 467.14,-412 533.73,-403.43 703.98,-420.14 769.14,-404 859.37,-381.65 954.57,-325.36 1002.54,-294.33"/>
<polygon fill="black" stroke="black" points="1004.33,-297.35 1010.78,-288.95 1000.5,-291.49 1004.33,-297.35"/>
</g>
<!-- stake::assert_stake_pool_exists -->
<g id="node25" class="node">
<title>stake::assert_stake_pool_exists</title>
<ellipse fill="none" stroke="black" cx="663.14" cy="-355" rx="97.48" ry="18"/>
<text text-anchor="middle" x="663.14" y="-351.3" font-family="Times,serif" font-size="14.00">assert_stake_pool_exists</text>
</g>
<!-- stake::set_delegated_voter_with_cap&#45;&gt;stake::assert_stake_pool_exists -->
<g id="edge31" class="edge">
<title>stake::set_delegated_voter_with_cap&#45;&gt;stake::assert_stake_pool_exists</title>
<path fill="none" stroke="black" d="M608.78,-419.82C618.2,-408.76 630.62,-394.18 641.21,-381.75"/>
<polygon fill="black" stroke="black" points="643.73,-384.19 647.55,-374.31 638.4,-379.65 643.73,-384.19"/>
</g>
<!-- option::is_some -->
<g id="node26" class="node">
<title>option::is_some</title>
<ellipse fill="none" stroke="black" cx="1889.14" cy="-117" rx="40.09" ry="18"/>
<text text-anchor="middle" x="1889.14" y="-113.3" font-family="Times,serif" font-size="14.00">is_some</text>
</g>
<!-- simple_map::contains_key&#45;&gt;option::is_some -->
<g id="edge32" class="edge">
<title>simple_map::contains_key&#45;&gt;option::is_some</title>
<path fill="none" stroke="black" d="M1936.94,-338.71C1907.01,-319.55 1859.66,-283.6 1840.14,-238 1827.02,-207.36 1826.73,-193.52 1840.14,-163 1844.08,-154.03 1850.79,-146.07 1858,-139.42"/>
<polygon fill="black" stroke="black" points="1859.98,-142.33 1865.4,-133.23 1855.48,-136.97 1859.98,-142.33"/>
</g>
<!-- simple_map::find -->
<g id="node27" class="node">
<title>simple_map::find</title>
<ellipse fill="none" stroke="black" cx="1963.14" cy="-272" rx="27" ry="18"/>
<text text-anchor="middle" x="1963.14" y="-268.3" font-family="Times,serif" font-size="14.00">find</text>
</g>
<!-- simple_map::contains_key&#45;&gt;simple_map::find -->
<g id="edge33" class="edge">
<title>simple_map::contains_key&#45;&gt;simple_map::find</title>
<path fill="none" stroke="black" d="M1963.14,-336.82C1963.14,-326.69 1963.14,-313.6 1963.14,-301.92"/>
<polygon fill="black" stroke="black" points="1966.64,-301.95 1963.14,-291.95 1959.64,-301.95 1966.64,-301.95"/>
</g>
<!-- bcs::to_bytes -->
<g id="node28" class="node">
<title>bcs::to_bytes</title>
<ellipse fill="none" stroke="black" cx="1682.14" cy="-355" rx="40.09" ry="18"/>
<text text-anchor="middle" x="1682.14" y="-351.3" font-family="Times,serif" font-size="14.00">to_bytes</text>
</g>
<!-- event::emit_event&#45;&gt;bcs::to_bytes -->
<g id="edge34" class="edge">
<title>event::emit_event&#45;&gt;bcs::to_bytes</title>
<path fill="none" stroke="black" d="M1597.76,-423.2C1608.33,-417.77 1620.1,-411.13 1630.14,-404 1640.21,-396.85 1650.39,-387.92 1659.04,-379.7"/>
<polygon fill="black" stroke="black" points="1661.32,-382.37 1666.03,-372.88 1656.43,-377.36 1661.32,-382.37"/>
</g>
<!-- event::write_to_event_store -->
<g id="node29" class="node">
<title>event::write_to_event_store</title>
<ellipse fill="none" stroke="black" cx="1533.14" cy="-355" rx="85.29" ry="18"/>
<text text-anchor="middle" x="1533.14" y="-351.3" font-family="Times,serif" font-size="14.00">write_to_event_store</text>
</g>
<!-- event::emit_event&#45;&gt;event::write_to_event_store -->
<g id="edge35" class="edge">
<title>event::emit_event&#45;&gt;event::write_to_event_store</title>
<path fill="none" stroke="black" d="M1560.72,-419.82C1556.17,-409.3 1550.25,-395.59 1545.06,-383.57"/>
<polygon fill="black" stroke="black" points="1548.33,-382.33 1541.15,-374.54 1541.91,-385.11 1548.33,-382.33"/>
</g>
<!-- simple_map::borrow_mut&#45;&gt;option::is_some -->
<g id="edge37" class="edge">
<title>simple_map::borrow_mut&#45;&gt;option::is_some</title>
<path fill="none" stroke="black" d="M1816.69,-337.51C1812.8,-332.6 1809.2,-326.93 1807.14,-321 1784.14,-254.65 1771.37,-223.43 1807.14,-163 1815.68,-148.58 1830.65,-138.47 1845.49,-131.55"/>
<polygon fill="black" stroke="black" points="1846.42,-134.95 1854.27,-127.83 1843.7,-128.51 1846.42,-134.95"/>
</g>
<!-- simple_map::borrow_mut&#45;&gt;simple_map::find -->
<g id="edge39" class="edge">
<title>simple_map::borrow_mut&#45;&gt;simple_map::find</title>
<path fill="none" stroke="black" d="M1857.9,-338.57C1879.72,-324.98 1911.51,-305.17 1934.44,-290.89"/>
<polygon fill="black" stroke="black" points="1936.05,-294 1942.69,-285.75 1932.35,-288.06 1936.05,-294"/>
</g>
<!-- option::extract -->
<g id="node30" class="node">
<title>option::extract</title>
<ellipse fill="none" stroke="black" cx="1883.14" cy="-189" rx="34.39" ry="18"/>
<text text-anchor="middle" x="1883.14" y="-185.3" font-family="Times,serif" font-size="14.00">extract</text>
</g>
<!-- simple_map::borrow_mut&#45;&gt;option::extract -->
<g id="edge36" class="edge">
<title>simple_map::borrow_mut&#45;&gt;option::extract</title>
<path fill="none" stroke="black" d="M1838.4,-336.76C1847.05,-308.39 1864.36,-251.62 1874.73,-217.6"/>
<polygon fill="black" stroke="black" points="1877.95,-219.04 1877.52,-208.46 1871.25,-217 1877.95,-219.04"/>
</g>
<!-- error::invalid_argument -->
<g id="node31" class="node">
<title>error::invalid_argument</title>
<ellipse fill="none" stroke="black" cx="1323.14" cy="-272" rx="73.39" ry="18"/>
<text text-anchor="middle" x="1323.14" y="-268.3" font-family="Times,serif" font-size="14.00">invalid_argument</text>
</g>
<!-- simple_map::borrow_mut&#45;&gt;error::invalid_argument -->
<g id="edge38" class="edge">
<title>simple_map::borrow_mut&#45;&gt;error::invalid_argument</title>
<path fill="none" stroke="black" d="M1799.91,-340.27C1788.71,-336.1 1776.03,-331.87 1764.14,-329 1641.06,-299.28 1494.62,-284.65 1405.31,-277.98"/>
<polygon fill="black" stroke="black" points="1405.64,-274.49 1395.41,-277.26 1405.13,-281.48 1405.64,-274.49"/>
</g>
<!-- stake::get_delegated_voter&#45;&gt;stake::assert_stake_pool_exists -->
<g id="edge40" class="edge">
<title>stake::get_delegated_voter&#45;&gt;stake::assert_stake_pool_exists</title>
<path fill="none" stroke="black" d="M782.35,-420.8C759.66,-408.47 728.19,-391.36 703.28,-377.82"/>
<polygon fill="black" stroke="black" points="705.18,-374.87 694.73,-373.17 701.84,-381.02 705.18,-374.87"/>
</g>
<!-- staking_contract::assert_staking_contract_exists&#45;&gt;simple_map::contains_key -->
<g id="edge42" class="edge">
<title>staking_contract::assert_staking_contract_exists&#45;&gt;simple_map::contains_key</title>
<path fill="none" stroke="black" d="M1837.3,-423.99C1857.32,-419.13 1878.48,-412.62 1897.14,-404 1910.81,-397.69 1924.5,-388.35 1935.84,-379.58"/>
<polygon fill="black" stroke="black" points="1937.97,-382.36 1943.58,-373.37 1933.59,-376.9 1937.97,-382.36"/>
</g>
<!-- staking_contract::assert_staking_contract_exists&#45;&gt;error::not_found -->
<g id="edge41" class="edge">
<title>staking_contract::assert_staking_contract_exists&#45;&gt;error::not_found</title>
<path fill="none" stroke="black" d="M1761.8,-419.82C1763.11,-395.25 1761.28,-350.65 1734.14,-329 1720.16,-317.84 1106.88,-327.31 1090.14,-321 1076.98,-316.04 1064.81,-306.5 1055.19,-297.22"/>
<polygon fill="black" stroke="black" points="1057.98,-295.07 1048.5,-290.35 1052.97,-299.95 1057.98,-295.07"/>
</g>
<!-- vesting::assert_vesting_contract_exists&#45;&gt;error::not_found -->
<g id="edge43" class="edge">
<title>vesting::assert_vesting_contract_exists&#45;&gt;error::not_found</title>
<path fill="none" stroke="black" d="M1036,-502.63C1035.66,-460.65 1034.79,-353.31 1034.37,-301.64"/>
<polygon fill="black" stroke="black" points="1037.88,-301.83 1034.3,-291.86 1030.88,-301.89 1037.88,-301.83"/>
</g>
<!-- account::create_signer_with_capability -->
<g id="node32" class="node">
<title>account::create_signer_with_capability</title>
<ellipse fill="none" stroke="black" cx="1308.14" cy="-438" rx="116.18" ry="18"/>
<text text-anchor="middle" x="1308.14" y="-434.3" font-family="Times,serif" font-size="14.00">create_signer_with_capability</text>
</g>
<!-- vesting::get_vesting_account_signer_internal&#45;&gt;account::create_signer_with_capability -->
<g id="edge44" class="edge">
<title>vesting::get_vesting_account_signer_internal&#45;&gt;account::create_signer_with_capability</title>
<path fill="none" stroke="black" d="M1417.21,-503.02C1396.65,-490.95 1368.83,-474.62 1346.43,-461.47"/>
<polygon fill="black" stroke="black" points="1348.26,-458.49 1337.87,-456.45 1344.72,-464.53 1348.26,-458.49"/>
</g>
<!-- vesting::verify_admin&#45;&gt;signer::address_of -->
<g id="edge45" class="edge">
<title>vesting::verify_admin&#45;&gt;signer::address_of</title>
<path fill="none" stroke="black" d="M1198.41,-505.58C1187.47,-501.31 1174.98,-497.19 1163.14,-495 1113.26,-485.77 298,-503.81 250.14,-487 236.04,-482.05 222.7,-472.37 212.12,-463"/>
<polygon fill="black" stroke="black" points="214.71,-460.63 205.02,-456.34 209.92,-465.74 214.71,-460.63"/>
</g>
<!-- error::unauthenticated -->
<g id="node33" class="node">
<title>error::unauthenticated</title>
<ellipse fill="none" stroke="black" cx="1165.14" cy="-272" rx="66.09" ry="18"/>
<text text-anchor="middle" x="1165.14" y="-268.3" font-family="Times,serif" font-size="14.00">unauthenticated</text>
</g>
<!-- vesting::verify_admin&#45;&gt;error::unauthenticated -->
<g id="edge46" class="edge">
<title>vesting::verify_admin&#45;&gt;error::unauthenticated</title>
<path fill="none" stroke="black" d="M1198.73,-505.54C1191.45,-500.69 1184.55,-494.54 1180.14,-487 1145.88,-428.36 1152.82,-344.67 1159.65,-301.38"/>
<polygon fill="black" stroke="black" points="1163.05,-302.23 1161.28,-291.79 1156.15,-301.06 1163.05,-302.23"/>
</g>
<!-- error::canonical -->
<g id="node34" class="node">
<title>error::canonical</title>
<ellipse fill="none" stroke="black" cx="1165.14" cy="-189" rx="44.39" ry="18"/>
<text text-anchor="middle" x="1165.14" y="-185.3" font-family="Times,serif" font-size="14.00">canonical</text>
</g>
<!-- error::not_found&#45;&gt;error::canonical -->
<g id="edge47" class="edge">
<title>error::not_found&#45;&gt;error::canonical</title>
<path fill="none" stroke="black" d="M1058.17,-256.14C1078.89,-243.33 1109.01,-224.71 1132.02,-210.48"/>
<polygon fill="black" stroke="black" points="1133.76,-213.52 1140.42,-205.29 1130.07,-207.57 1133.76,-213.52"/>
</g>
<!-- stake::assert_stake_pool_exists&#45;&gt;stake::stake_pool_exists -->
<g id="edge49" class="edge">
<title>stake::assert_stake_pool_exists&#45;&gt;stake::stake_pool_exists</title>
<path fill="none" stroke="black" d="M624.3,-338.19C591.91,-325.01 545.65,-306.18 511.17,-292.14"/>
<polygon fill="black" stroke="black" points="512.85,-289.05 502.27,-288.52 510.21,-295.53 512.85,-289.05"/>
</g>
<!-- stake::assert_stake_pool_exists&#45;&gt;error::invalid_argument -->
<g id="edge48" class="edge">
<title>stake::assert_stake_pool_exists&#45;&gt;error::invalid_argument</title>
<path fill="none" stroke="black" d="M756.98,-349.77C914.56,-342.5 1217.46,-327.79 1240.14,-321 1258.46,-315.52 1277.04,-305.3 1291.97,-295.69"/>
<polygon fill="black" stroke="black" points="1293.58,-298.82 1299.95,-290.36 1289.69,-293 1293.58,-298.82"/>
</g>
<!-- vector::is_empty -->
<g id="node35" class="node">
<title>vector::is_empty</title>
<ellipse fill="none" stroke="black" cx="1900.14" cy="-34" rx="43.59" ry="18"/>
<text text-anchor="middle" x="1900.14" y="-30.3" font-family="Times,serif" font-size="14.00">is_empty</text>
</g>
<!-- option::is_some&#45;&gt;vector::is_empty -->
<g id="edge50" class="edge">
<title>option::is_some&#45;&gt;vector::is_empty</title>
<path fill="none" stroke="black" d="M1891.48,-98.82C1892.87,-88.58 1894.67,-75.33 1896.27,-63.55"/>
<polygon fill="black" stroke="black" points="1899.69,-64.31 1897.57,-53.93 1892.76,-63.37 1899.69,-64.31"/>
</g>
<!-- option::none -->
<g id="node36" class="node">
<title>option::none</title>
<ellipse fill="none" stroke="black" cx="1963.14" cy="-189" rx="27.9" ry="18"/>
<text text-anchor="middle" x="1963.14" y="-185.3" font-family="Times,serif" font-size="14.00">none</text>
</g>
<!-- simple_map::find&#45;&gt;option::none -->
<g id="edge51" class="edge">
<title>simple_map::find&#45;&gt;option::none</title>
<path fill="none" stroke="black" d="M1963.14,-253.82C1963.14,-243.69 1963.14,-230.6 1963.14,-218.92"/>
<polygon fill="black" stroke="black" points="1966.64,-218.95 1963.14,-208.95 1959.64,-218.95 1966.64,-218.95"/>
</g>
<!-- option::some -->
<g id="node37" class="node">
<title>option::some</title>
<ellipse fill="none" stroke="black" cx="2039.14" cy="-189" rx="29.8" ry="18"/>
<text text-anchor="middle" x="2039.14" y="-185.3" font-family="Times,serif" font-size="14.00">some</text>
</g>
<!-- simple_map::find&#45;&gt;option::some -->
<g id="edge52" class="edge">
<title>simple_map::find&#45;&gt;option::some</title>
<path fill="none" stroke="black" d="M1979.51,-257.4C1986.13,-251.65 1993.72,-244.72 2000.14,-238 2007.1,-230.71 2014.2,-222.32 2020.4,-214.61"/>
<polygon fill="black" stroke="black" points="2023.07,-216.87 2026.51,-206.85 2017.57,-212.54 2023.07,-216.87"/>
</g>
<!-- option::extract&#45;&gt;option::is_some -->
<g id="edge53" class="edge">
<title>option::extract&#45;&gt;option::is_some</title>
<path fill="none" stroke="black" d="M1884.63,-170.7C1885.25,-163.41 1885.99,-154.73 1886.7,-146.54"/>
<polygon fill="black" stroke="black" points="1890.18,-146.87 1887.55,-136.61 1883.21,-146.28 1890.18,-146.87"/>
</g>
<!-- error::invalid_argument&#45;&gt;error::canonical -->
<g id="edge54" class="edge">
<title>error::invalid_argument&#45;&gt;error::canonical</title>
<path fill="none" stroke="black" d="M1292.3,-255.19C1266.42,-241.92 1229.39,-222.94 1201.96,-208.87"/>
<polygon fill="black" stroke="black" points="1203.8,-205.89 1193.31,-204.44 1200.61,-212.12 1203.8,-205.89"/>
</g>
<!-- account::create_signer -->
<g id="node38" class="node">
<title>account::create_signer</title>
<ellipse fill="none" stroke="black" cx="1308.14" cy="-355" rx="57.69" ry="18"/>
<text text-anchor="middle" x="1308.14" y="-351.3" font-family="Times,serif" font-size="14.00">create_signer</text>
</g>
<!-- account::create_signer_with_capability&#45;&gt;account::create_signer -->
<g id="edge55" class="edge">
<title>account::create_signer_with_capability&#45;&gt;account::create_signer</title>
<path fill="none" stroke="black" d="M1308.14,-419.82C1308.14,-409.69 1308.14,-396.6 1308.14,-384.92"/>
<polygon fill="black" stroke="black" points="1311.64,-384.95 1308.14,-374.95 1304.64,-384.95 1311.64,-384.95"/>
</g>
<!-- error::unauthenticated&#45;&gt;error::canonical -->
<g id="edge56" class="edge">
<title>error::unauthenticated&#45;&gt;error::canonical</title>
<path fill="none" stroke="black" d="M1165.14,-253.82C1165.14,-243.69 1165.14,-230.6 1165.14,-218.92"/>
<polygon fill="black" stroke="black" points="1168.64,-218.95 1165.14,-208.95 1161.64,-218.95 1168.64,-218.95"/>
</g>
<!-- vector::singleton -->
<g id="node39" class="node">
<title>vector::singleton</title>
<ellipse fill="none" stroke="black" cx="2004.14" cy="-34" rx="42.79" ry="18"/>
<text text-anchor="middle" x="2004.14" y="-30.3" font-family="Times,serif" font-size="14.00">singleton</text>
</g>
<!-- option::some&#45;&gt;vector::singleton -->
<g id="edge57" class="edge">
<title>option::some&#45;&gt;vector::singleton</title>
<path fill="none" stroke="black" d="M2035.2,-170.75C2029.2,-144.55 2017.75,-94.48 2010.55,-63.02"/>
<polygon fill="black" stroke="black" points="2014,-62.4 2008.36,-53.43 2007.18,-63.96 2014,-62.4"/>
</g>
</g>
</svg>
