<?xml version="1.0" encoding="UTF-8" standalone="no"?>
<!DOCTYPE svg PUBLIC "-//W3C//DTD SVG 1.1//EN"
 "http://www.w3.org/Graphics/SVG/1.1/DTD/svg11.dtd">
<!-- Generated by graphviz version 7.0.4 (20221203.1631)
 -->
<!-- Title: G Pages: 1 -->
<svg width="292pt" height="207pt"
 viewBox="0.00 0.00 292.00 207.00" xmlns="http://www.w3.org/2000/svg" xmlns:xlink="http://www.w3.org/1999/xlink">
<g id="graph0" class="graph" transform="scale(1 1) rotate(0) translate(4 203)">
<title>G</title>
<polygon fill="white" stroke="none" points="-4,4 -4,-203 288,-203 288,4 -4,4"/>
<g id="clust1" class="cluster">
<title>cluster_signer</title>
<polygon fill="none" stroke="black" points="8,-8 8,-155 158,-155 158,-8 8,-8"/>
<text text-anchor="middle" x="83" y="-139.8" font-family="Times,serif" font-size="14.00">signer</text>
</g>
<g id="clust2" class="cluster">
<title>cluster_error</title>
<polygon fill="none" stroke="black" points="166,-8 166,-155 276,-155 276,-8 166,-8"/>
<text text-anchor="middle" x="221" y="-139.8" font-family="Times,serif" font-size="14.00">error</text>
</g>
<!-- deposit_owner_cap -->
<g id="node1" class="node">
<title>deposit_owner_cap</title>
<ellipse fill="none" stroke="black" cx="161" cy="-181" rx="79.09" ry="18"/>
<text text-anchor="middle" x="161" y="-177.3" font-family="Times,serif" font-size="14.00">deposit_owner_cap</text>
</g>
<!-- signer::address_of -->
<g id="node2" class="node">
<title>signer::address_of</title>
<ellipse fill="none" stroke="black" cx="92" cy="-106" rx="48.99" ry="18"/>
<text text-anchor="middle" x="92" y="-102.3" font-family="Times,serif" font-size="14.00">address_of</text>
</g>
<!-- deposit_owner_cap&#45;&gt;signer::address_of -->
<g id="edge1" class="edge">
<title>deposit_owner_cap&#45;&gt;signer::address_of</title>
<path fill="none" stroke="black" d="M145,-163.07C136.16,-153.72 125.03,-141.95 115.26,-131.6"/>
<polygon fill="black" stroke="black" points="117.89,-129.3 108.48,-124.44 112.81,-134.11 117.89,-129.3"/>
</g>
<!-- error::not_found -->
<g id="node3" class="node">
<title>error::not_found</title>
<ellipse fill="none" stroke="black" cx="221" cy="-106" rx="46.59" ry="18"/>
<text text-anchor="middle" x="221" y="-102.3" font-family="Times,serif" font-size="14.00">not_found</text>
</g>
<!-- deposit_owner_cap&#45;&gt;error::not_found -->
<g id="edge2" class="edge">
<title>deposit_owner_cap&#45;&gt;error::not_found</title>
<path fill="none" stroke="black" d="M174.92,-163.07C182.39,-153.98 191.76,-142.58 200.09,-132.44"/>
<polygon fill="black" stroke="black" points="202.76,-134.7 206.41,-124.76 197.35,-130.26 202.76,-134.7"/>
</g>
<!-- signer::borrow_address -->
<g id="node4" class="node">
<title>signer::borrow_address</title>
<ellipse fill="none" stroke="black" cx="83" cy="-34" rx="66.89" ry="18"/>
<text text-anchor="middle" x="83" y="-30.3" font-family="Times,serif" font-size="14.00">borrow_address</text>
</g>
<!-- signer::address_of&#45;&gt;signer::borrow_address -->
<g id="edge3" class="edge">
<title>signer::address_of&#45;&gt;signer::borrow_address</title>
<path fill="none" stroke="black" d="M89.78,-87.7C88.83,-80.32 87.7,-71.52 86.63,-63.25"/>
<polygon fill="black" stroke="black" points="90.14,-63.08 85.39,-53.61 83.2,-63.97 90.14,-63.08"/>
</g>
<!-- error::canonical -->
<g id="node5" class="node">
<title>error::canonical</title>
<ellipse fill="none" stroke="black" cx="221" cy="-34" rx="44.39" ry="18"/>
<text text-anchor="middle" x="221" y="-30.3" font-family="Times,serif" font-size="14.00">canonical</text>
</g>
<!-- error::not_found&#45;&gt;error::canonical -->
<g id="edge4" class="edge">
<title>error::not_found&#45;&gt;error::canonical</title>
<path fill="none" stroke="black" d="M221,-87.7C221,-80.41 221,-71.73 221,-63.54"/>
<polygon fill="black" stroke="black" points="224.5,-63.62 221,-53.62 217.5,-63.62 224.5,-63.62"/>
</g>
</g>
</svg>
