<?xml version="1.0" encoding="UTF-8" standalone="no"?>
<!DOCTYPE svg PUBLIC "-//W3C//DTD SVG 1.1//EN"
 "http://www.w3.org/Graphics/SVG/1.1/DTD/svg11.dtd">
<!-- Generated by graphviz version 7.0.4 (20221203.1631)
 -->
<!-- Title: G Pages: 1 -->
<svg width="918pt" height="282pt"
 viewBox="0.00 0.00 918.00 282.00" xmlns="http://www.w3.org/2000/svg" xmlns:xlink="http://www.w3.org/1999/xlink">
<g id="graph0" class="graph" transform="scale(1 1) rotate(0) translate(4 278)">
<title>G</title>
<polygon fill="white" stroke="none" points="-4,4 -4,-278 914,-278 914,4 -4,4"/>
<g id="clust1" class="cluster">
<title>cluster_error</title>
<polygon fill="none" stroke="black" points="592,-8 592,-155 902,-155 902,-8 592,-8"/>
<text text-anchor="middle" x="747" y="-139.8" font-family="Times,serif" font-size="14.00">error</text>
</g>
<g id="clust2" class="cluster">
<title>cluster_table</title>
<polygon fill="none" stroke="black" points="8,-80 8,-230 174,-230 174,-80 8,-80"/>
<text text-anchor="middle" x="91" y="-214.8" font-family="Times,serif" font-size="14.00">table</text>
</g>
<g id="clust3" class="cluster">
<title>cluster_system_addresses</title>
<polygon fill="none" stroke="black" points="340,-80 340,-230 584,-230 584,-80 340,-80"/>
<text text-anchor="middle" x="462" y="-214.8" font-family="Times,serif" font-size="14.00">system_addresses</text>
</g>
<g id="clust4" class="cluster">
<title>cluster_signer</title>
<polygon fill="none" stroke="black" points="182,-8 182,-155 332,-155 332,-8 182,-8"/>
<text text-anchor="middle" x="257" y="-139.8" font-family="Times,serif" font-size="14.00">signer</text>
</g>
<!-- initialize_validator_fees -->
<g id="node1" class="node">
<title>initialize_validator_fees</title>
<ellipse fill="none" stroke="black" cx="462" cy="-256" rx="95.58" ry="18"/>
<text text-anchor="middle" x="462" y="-252.3" font-family="Times,serif" font-size="14.00">initialize_validator_fees</text>
</g>
<!-- error::already_exists -->
<g id="node2" class="node">
<title>error::already_exists</title>
<ellipse fill="none" stroke="black" cx="833" cy="-106" rx="61.19" ry="18"/>
<text text-anchor="middle" x="833" y="-102.3" font-family="Times,serif" font-size="14.00">already_exists</text>
</g>
<!-- initialize_validator_fees&#45;&gt;error::already_exists -->
<g id="edge1" class="edge">
<title>initialize_validator_fees&#45;&gt;error::already_exists</title>
<path fill="none" stroke="black" d="M532.96,-243.62C551.09,-239.98 570.43,-235.44 588,-230 668.83,-204.96 688.86,-195.79 763,-155 776.45,-147.6 790.54,-138.28 802.53,-129.82"/>
<polygon fill="black" stroke="black" points="804.33,-132.84 810.41,-124.16 800.24,-127.15 804.33,-132.84"/>
</g>
<!-- table::new -->
<g id="node3" class="node">
<title>table::new</title>
<ellipse fill="none" stroke="black" cx="115" cy="-181" rx="27" ry="18"/>
<text text-anchor="middle" x="115" y="-177.3" font-family="Times,serif" font-size="14.00">new</text>
</g>
<!-- initialize_validator_fees&#45;&gt;table::new -->
<g id="edge2" class="edge">
<title>initialize_validator_fees&#45;&gt;table::new</title>
<path fill="none" stroke="black" d="M397.21,-242.38C377.53,-238.48 355.87,-234.13 336,-230 271.03,-216.5 195.53,-199.91 151.71,-190.19"/>
<polygon fill="black" stroke="black" points="152.49,-186.77 141.97,-188.02 150.97,-193.61 152.49,-186.77"/>
</g>
<!-- system_addresses::assert_aptos_framework -->
<g id="node4" class="node">
<title>system_addresses::assert_aptos_framework</title>
<ellipse fill="none" stroke="black" cx="462" cy="-181" rx="96.68" ry="18"/>
<text text-anchor="middle" x="462" y="-177.3" font-family="Times,serif" font-size="14.00">assert_aptos_framework</text>
</g>
<!-- initialize_validator_fees&#45;&gt;system_addresses::assert_aptos_framework -->
<g id="edge3" class="edge">
<title>initialize_validator_fees&#45;&gt;system_addresses::assert_aptos_framework</title>
<path fill="none" stroke="black" d="M462,-237.7C462,-229.67 462,-219.9 462,-210.8"/>
<polygon fill="black" stroke="black" points="465.5,-210.94 462,-200.94 458.5,-210.94 465.5,-210.94"/>
</g>
<!-- error::canonical -->
<g id="node5" class="node">
<title>error::canonical</title>
<ellipse fill="none" stroke="black" cx="755" cy="-34" rx="44.39" ry="18"/>
<text text-anchor="middle" x="755" y="-30.3" font-family="Times,serif" font-size="14.00">canonical</text>
</g>
<!-- error::already_exists&#45;&gt;error::canonical -->
<g id="edge4" class="edge">
<title>error::already_exists&#45;&gt;error::canonical</title>
<path fill="none" stroke="black" d="M814.52,-88.41C804.49,-79.41 791.94,-68.15 780.95,-58.29"/>
<polygon fill="black" stroke="black" points="783.46,-55.83 773.68,-51.76 778.78,-61.04 783.46,-55.83"/>
</g>
<!-- table::new_table_handle -->
<g id="node6" class="node">
<title>table::new_table_handle</title>
<ellipse fill="none" stroke="black" cx="91" cy="-106" rx="74.99" ry="18"/>
<text text-anchor="middle" x="91" y="-102.3" font-family="Times,serif" font-size="14.00">new_table_handle</text>
</g>
<!-- table::new&#45;&gt;table::new_table_handle -->
<g id="edge5" class="edge">
<title>table::new&#45;&gt;table::new_table_handle</title>
<path fill="none" stroke="black" d="M109.43,-163.07C106.72,-154.8 103.37,-144.64 100.29,-135.24"/>
<polygon fill="black" stroke="black" points="103.62,-134.19 97.18,-125.78 96.97,-136.38 103.62,-134.19"/>
</g>
<!-- signer::address_of -->
<g id="node7" class="node">
<title>signer::address_of</title>
<ellipse fill="none" stroke="black" cx="266" cy="-106" rx="48.99" ry="18"/>
<text text-anchor="middle" x="266" y="-102.3" font-family="Times,serif" font-size="14.00">address_of</text>
</g>
<!-- system_addresses::assert_aptos_framework&#45;&gt;signer::address_of -->
<g id="edge6" class="edge">
<title>system_addresses::assert_aptos_framework&#45;&gt;signer::address_of</title>
<path fill="none" stroke="black" d="M384.89,-169.84C368.38,-166.26 351.31,-161.45 336,-155 320.96,-148.67 305.83,-138.83 293.5,-129.7"/>
<polygon fill="black" stroke="black" points="295.94,-127.16 285.87,-123.85 291.68,-132.72 295.94,-127.16"/>
</g>
<!-- error::permission_denied -->
<g id="node8" class="node">
<title>error::permission_denied</title>
<ellipse fill="none" stroke="black" cx="677" cy="-106" rx="77.19" ry="18"/>
<text text-anchor="middle" x="677" y="-102.3" font-family="Times,serif" font-size="14.00">permission_denied</text>
</g>
<!-- system_addresses::assert_aptos_framework&#45;&gt;error::permission_denied -->
<g id="edge7" class="edge">
<title>system_addresses::assert_aptos_framework&#45;&gt;error::permission_denied</title>
<path fill="none" stroke="black" d="M536.3,-169.09C553.54,-165.51 571.63,-160.89 588,-155 606.43,-148.37 625.7,-138.4 641.58,-129.27"/>
<polygon fill="black" stroke="black" points="643.34,-132.29 650.17,-124.2 639.78,-126.26 643.34,-132.29"/>
</g>
<!-- system_addresses::is_aptos_framework_address -->
<g id="node9" class="node">
<title>system_addresses::is_aptos_framework_address</title>
<ellipse fill="none" stroke="black" cx="462" cy="-106" rx="113.98" ry="18"/>
<text text-anchor="middle" x="462" y="-102.3" font-family="Times,serif" font-size="14.00">is_aptos_framework_address</text>
</g>
<!-- system_addresses::assert_aptos_framework&#45;&gt;system_addresses::is_aptos_framework_address -->
<g id="edge8" class="edge">
<title>system_addresses::assert_aptos_framework&#45;&gt;system_addresses::is_aptos_framework_address</title>
<path fill="none" stroke="black" d="M462,-162.7C462,-154.67 462,-144.9 462,-135.8"/>
<polygon fill="black" stroke="black" points="465.5,-135.94 462,-125.94 458.5,-135.94 465.5,-135.94"/>
</g>
<!-- signer::borrow_address -->
<g id="node10" class="node">
<title>signer::borrow_address</title>
<ellipse fill="none" stroke="black" cx="257" cy="-34" rx="66.89" ry="18"/>
<text text-anchor="middle" x="257" y="-30.3" font-family="Times,serif" font-size="14.00">borrow_address</text>
</g>
<!-- signer::address_of&#45;&gt;signer::borrow_address -->
<g id="edge9" class="edge">
<title>signer::address_of&#45;&gt;signer::borrow_address</title>
<path fill="none" stroke="black" d="M263.78,-87.7C262.83,-80.32 261.7,-71.52 260.63,-63.25"/>
<polygon fill="black" stroke="black" points="264.14,-63.08 259.39,-53.61 257.2,-63.97 264.14,-63.08"/>
</g>
<!-- error::permission_denied&#45;&gt;error::canonical -->
<g id="edge10" class="edge">
<title>error::permission_denied&#45;&gt;error::canonical</title>
<path fill="none" stroke="black" d="M695.88,-88.05C705.84,-79.12 718.22,-68.01 729.06,-58.28"/>
<polygon fill="black" stroke="black" points="731.13,-61.12 736.24,-51.84 726.45,-55.91 731.13,-61.12"/>
</g>
</g>
</svg>
