<?xml version="1.0" encoding="UTF-8" standalone="no"?>
<!DOCTYPE svg PUBLIC "-//W3C//DTD SVG 1.1//EN"
 "http://www.w3.org/Graphics/SVG/1.1/DTD/svg11.dtd">
<!-- Generated by graphviz version 7.0.4 (20221203.1631)
 -->
<!-- Title: G Pages: 1 -->
<svg width="215pt" height="299pt"
 viewBox="0.00 0.00 214.68 299.00" xmlns="http://www.w3.org/2000/svg" xmlns:xlink="http://www.w3.org/1999/xlink">
<g id="graph0" class="graph" transform="scale(1 1) rotate(0) translate(4 295)">
<title>G</title>
<polygon fill="white" stroke="none" points="-4,4 -4,-295 210.68,-295 210.68,4 -4,4"/>
<g id="clust1" class="cluster">
<title>cluster_vesting</title>
<polygon fill="none" stroke="black" points="28.34,-136 28.34,-283 178.34,-283 178.34,-136 28.34,-136"/>
<text text-anchor="middle" x="103.34" y="-267.8" font-family="Times,serif" font-size="14.00">vesting</text>
</g>
<!-- staking_contract_amounts -->
<g id="node1" class="node">
<title>staking_contract_amounts</title>
<ellipse fill="none" stroke="black" cx="103.34" cy="-18" rx="103.18" ry="18"/>
<text text-anchor="middle" x="103.34" y="-14.3" font-family="Times,serif" font-size="14.00">staking_contract_amounts</text>
</g>
<!-- unlock_rewards -->
<g id="node2" class="node">
<title>unlock_rewards</title>
<ellipse fill="none" stroke="black" cx="103.34" cy="-90" rx="66.89" ry="18"/>
<text text-anchor="middle" x="103.34" y="-86.3" font-family="Times,serif" font-size="14.00">unlock_rewards</text>
</g>
<!-- unlock_rewards&#45;&gt;staking_contract_amounts -->
<g id="edge1" class="edge">
<title>unlock_rewards&#45;&gt;staking_contract_amounts</title>
<path fill="none" stroke="black" d="M103.34,-71.7C103.34,-64.41 103.34,-55.73 103.34,-47.54"/>
<polygon fill="black" stroke="black" points="106.84,-47.62 103.34,-37.62 99.84,-47.62 106.84,-47.62"/>
</g>
<!-- vesting::unlock_rewards -->
<g id="node3" class="node">
<title>vesting::unlock_rewards</title>
<ellipse fill="none" stroke="black" cx="103.34" cy="-162" rx="66.89" ry="18"/>
<text text-anchor="middle" x="103.34" y="-158.3" font-family="Times,serif" font-size="14.00">unlock_rewards</text>
</g>
<!-- vesting::unlock_rewards&#45;&gt;unlock_rewards -->
<g id="edge2" class="edge">
<title>vesting::unlock_rewards&#45;&gt;unlock_rewards</title>
<path fill="none" stroke="black" d="M103.34,-143.7C103.34,-136.41 103.34,-127.73 103.34,-119.54"/>
<polygon fill="black" stroke="black" points="106.84,-119.62 103.34,-109.62 99.84,-119.62 106.84,-119.62"/>
</g>
<!-- vesting::vest -->
<g id="node4" class="node">
<title>vesting::vest</title>
<ellipse fill="none" stroke="black" cx="103.34" cy="-234" rx="27" ry="18"/>
<text text-anchor="middle" x="103.34" y="-230.3" font-family="Times,serif" font-size="14.00">vest</text>
</g>
<!-- vesting::vest&#45;&gt;vesting::unlock_rewards -->
<g id="edge3" class="edge">
<title>vesting::vest&#45;&gt;vesting::unlock_rewards</title>
<path fill="none" stroke="black" d="M103.34,-215.7C103.34,-208.41 103.34,-199.73 103.34,-191.54"/>
<polygon fill="black" stroke="black" points="106.84,-191.62 103.34,-181.62 99.84,-191.62 106.84,-191.62"/>
</g>
</g>
</svg>
