<?xml version="1.0" encoding="UTF-8" standalone="no"?>
<!DOCTYPE svg PUBLIC "-//W3C//DTD SVG 1.1//EN"
 "http://www.w3.org/Graphics/SVG/1.1/DTD/svg11.dtd">
<!-- Generated by graphviz version 7.0.4 (20221203.1631)
 -->
<!-- Title: G Pages: 1 -->
<svg width="1900pt" height="676pt"
 viewBox="0.00 0.00 1900.00 676.00" xmlns="http://www.w3.org/2000/svg" xmlns:xlink="http://www.w3.org/1999/xlink">
<g id="graph0" class="graph" transform="scale(1 1) rotate(0) translate(4 672)">
<title>G</title>
<polygon fill="white" stroke="none" points="-4,4 -4,-672 1896,-672 1896,4 -4,4"/>
<g id="clust1" class="cluster">
<title>cluster_staking_contract</title>
<polygon fill="none" stroke="black" points="79,-208 79,-427 617,-427 617,-208 79,-208"/>
<text text-anchor="middle" x="348" y="-411.8" font-family="Times,serif" font-size="14.00">staking_contract</text>
</g>
<g id="clust2" class="cluster">
<title>cluster_staking_proxy</title>
<polygon fill="none" stroke="black" points="1173,-435 1173,-585 1884,-585 1884,-435 1173,-435"/>
<text text-anchor="middle" x="1528.5" y="-569.8" font-family="Times,serif" font-size="14.00">staking_proxy</text>
</g>
<g id="clust3" class="cluster">
<title>cluster_vesting</title>
<polygon fill="none" stroke="black" points="625,-352 625,-510 1165,-510 1165,-352 625,-352"/>
<text text-anchor="middle" x="895" y="-494.8" font-family="Times,serif" font-size="14.00">vesting</text>
</g>
<g id="clust4" class="cluster">
<title>cluster_genesis</title>
<polygon fill="none" stroke="black" points="8,-435 8,-660 609,-660 609,-435 8,-435"/>
<text text-anchor="middle" x="308.5" y="-644.8" font-family="Times,serif" font-size="14.00">genesis</text>
</g>
<!-- set_operator_with_cap -->
<g id="node1" class="node">
<title>set_operator_with_cap</title>
<ellipse fill="none" stroke="black" cx="582" cy="-18" rx="90.98" ry="18"/>
<text text-anchor="middle" x="582" y="-14.3" font-family="Times,serif" font-size="14.00">set_operator_with_cap</text>
</g>
<!-- set_operator -->
<g id="node2" class="node">
<title>set_operator</title>
<ellipse fill="none" stroke="black" cx="623" cy="-90" rx="53.89" ry="18"/>
<text text-anchor="middle" x="623" y="-86.3" font-family="Times,serif" font-size="14.00">set_operator</text>
</g>
<!-- set_operator&#45;&gt;set_operator_with_cap -->
<g id="edge1" class="edge">
<title>set_operator&#45;&gt;set_operator_with_cap</title>
<path fill="none" stroke="black" d="M613.08,-72.05C608.51,-64.26 602.98,-54.82 597.86,-46.08"/>
<polygon fill="black" stroke="black" points="600.96,-44.44 592.88,-37.58 594.92,-47.98 600.96,-44.44"/>
</g>
<!-- staking_contract::switch_operator -->
<g id="node3" class="node">
<title>staking_contract::switch_operator</title>
<ellipse fill="none" stroke="black" cx="541" cy="-306" rx="67.69" ry="18"/>
<text text-anchor="middle" x="541" y="-302.3" font-family="Times,serif" font-size="14.00">switch_operator</text>
</g>
<!-- staking_contract::switch_operator&#45;&gt;set_operator_with_cap -->
<g id="edge2" class="edge">
<title>staking_contract::switch_operator&#45;&gt;set_operator_with_cap</title>
<path fill="none" stroke="black" d="M540.59,-287.76C540.05,-248.73 540.91,-150.89 560,-72 562.06,-63.48 565.31,-54.55 568.68,-46.51"/>
<polygon fill="black" stroke="black" points="571.78,-48.15 572.64,-37.59 565.38,-45.31 571.78,-48.15"/>
</g>
<!-- initialize_stake_owner -->
<g id="node4" class="node">
<title>initialize_stake_owner</title>
<ellipse fill="none" stroke="black" cx="271" cy="-162" rx="90.18" ry="18"/>
<text text-anchor="middle" x="271" y="-158.3" font-family="Times,serif" font-size="14.00">initialize_stake_owner</text>
</g>
<!-- initialize_stake_owner&#45;&gt;set_operator -->
<g id="edge3" class="edge">
<title>initialize_stake_owner&#45;&gt;set_operator</title>
<path fill="none" stroke="black" d="M333.12,-148.65C399.12,-135.52 502.58,-114.95 566.4,-102.26"/>
<polygon fill="black" stroke="black" points="566.84,-105.74 575.96,-100.35 565.47,-98.87 566.84,-105.74"/>
</g>
<!-- staking_proxy::set_stake_pool_operator -->
<g id="node5" class="node">
<title>staking_proxy::set_stake_pool_operator</title>
<ellipse fill="none" stroke="black" cx="1779" cy="-461" rx="96.68" ry="18"/>
<text text-anchor="middle" x="1779" y="-457.3" font-family="Times,serif" font-size="14.00">set_stake_pool_operator</text>
</g>
<!-- staking_proxy::set_stake_pool_operator&#45;&gt;set_operator -->
<g id="edge4" class="edge">
<title>staking_proxy::set_stake_pool_operator&#45;&gt;set_operator</title>
<path fill="none" stroke="black" d="M1732.04,-444.95C1676.36,-423.82 1591,-379.59 1591,-307 1591,-307 1591,-307 1591,-233 1591,-141.48 904.83,-103.41 687.91,-93.66"/>
<polygon fill="black" stroke="black" points="688.08,-90.17 677.93,-93.22 687.77,-97.16 688.08,-90.17"/>
</g>
<!-- staking_contract::switch_operator_with_same_commission -->
<g id="node6" class="node">
<title>staking_contract::switch_operator_with_same_commission</title>
<ellipse fill="none" stroke="black" cx="451" cy="-378" rx="157.87" ry="18"/>
<text text-anchor="middle" x="451" y="-374.3" font-family="Times,serif" font-size="14.00">switch_operator_with_same_commission</text>
</g>
<!-- staking_contract::switch_operator_with_same_commission&#45;&gt;staking_contract::switch_operator -->
<g id="edge5" class="edge">
<title>staking_contract::switch_operator_with_same_commission&#45;&gt;staking_contract::switch_operator</title>
<path fill="none" stroke="black" d="M473.25,-359.7C484.61,-350.86 498.61,-339.97 510.92,-330.4"/>
<polygon fill="black" stroke="black" points="513,-333.21 518.74,-324.31 508.7,-327.69 513,-333.21"/>
</g>
<!-- vesting::update_operator -->
<g id="node7" class="node">
<title>vesting::update_operator</title>
<ellipse fill="none" stroke="black" cx="998" cy="-378" rx="67.69" ry="18"/>
<text text-anchor="middle" x="998" y="-374.3" font-family="Times,serif" font-size="14.00">update_operator</text>
</g>
<!-- vesting::update_operator&#45;&gt;staking_contract::switch_operator -->
<g id="edge6" class="edge">
<title>vesting::update_operator&#45;&gt;staking_contract::switch_operator</title>
<path fill="none" stroke="black" d="M940.58,-368.21C856.44,-355.32 699.88,-331.34 609.73,-317.53"/>
<polygon fill="black" stroke="black" points="610.45,-314.1 600.04,-316.04 609.39,-321.02 610.45,-314.1"/>
</g>
<!-- staking_proxy::set_staking_contract_operator -->
<g id="node8" class="node">
<title>staking_proxy::set_staking_contract_operator</title>
<ellipse fill="none" stroke="black" cx="1548" cy="-461" rx="116.18" ry="18"/>
<text text-anchor="middle" x="1548" y="-457.3" font-family="Times,serif" font-size="14.00">set_staking_contract_operator</text>
</g>
<!-- staking_proxy::set_staking_contract_operator&#45;&gt;staking_contract::switch_operator -->
<g id="edge7" class="edge">
<title>staking_proxy::set_staking_contract_operator&#45;&gt;staking_contract::switch_operator</title>
<path fill="none" stroke="black" d="M1503.2,-443.97C1432.99,-419.59 1292.3,-373.75 1169,-352 973.73,-317.56 739.88,-309.33 620.16,-307.46"/>
<polygon fill="black" stroke="black" points="620.5,-303.97 610.45,-307.32 620.4,-310.97 620.5,-303.97"/>
</g>
<!-- staking_contract::create_stake_pool -->
<g id="node9" class="node">
<title>staking_contract::create_stake_pool</title>
<ellipse fill="none" stroke="black" cx="271" cy="-234" rx="74.19" ry="18"/>
<text text-anchor="middle" x="271" y="-230.3" font-family="Times,serif" font-size="14.00">create_stake_pool</text>
</g>
<!-- staking_contract::create_stake_pool&#45;&gt;initialize_stake_owner -->
<g id="edge8" class="edge">
<title>staking_contract::create_stake_pool&#45;&gt;initialize_stake_owner</title>
<path fill="none" stroke="black" d="M271,-215.7C271,-208.41 271,-199.73 271,-191.54"/>
<polygon fill="black" stroke="black" points="274.5,-191.62 271,-181.62 267.5,-191.62 274.5,-191.62"/>
</g>
<!-- genesis::create_initialize_validator -->
<g id="node10" class="node">
<title>genesis::create_initialize_validator</title>
<ellipse fill="none" stroke="black" cx="181" cy="-461" rx="102.88" ry="18"/>
<text text-anchor="middle" x="181" y="-457.3" font-family="Times,serif" font-size="14.00">create_initialize_validator</text>
</g>
<!-- genesis::create_initialize_validator&#45;&gt;initialize_stake_owner -->
<g id="edge9" class="edge">
<title>genesis::create_initialize_validator&#45;&gt;initialize_stake_owner</title>
<path fill="none" stroke="black" d="M103.64,-448.8C92.43,-443.85 82.25,-436.86 75,-427 17.3,-348.61 14.36,-284.14 75,-208 88.66,-190.85 136.1,-179.69 180.88,-172.78"/>
<polygon fill="black" stroke="black" points="181.31,-176.26 190.69,-171.34 180.29,-169.33 181.31,-176.26"/>
</g>
<!-- staking_contract::create_staking_contract -->
<g id="node16" class="node">
<title>staking_contract::create_staking_contract</title>
<ellipse fill="none" stroke="black" cx="181" cy="-378" rx="94.48" ry="18"/>
<text text-anchor="middle" x="181" y="-374.3" font-family="Times,serif" font-size="14.00">create_staking_contract</text>
</g>
<!-- genesis::create_initialize_validator&#45;&gt;staking_contract::create_staking_contract -->
<g id="edge21" class="edge">
<title>genesis::create_initialize_validator&#45;&gt;staking_contract::create_staking_contract</title>
<path fill="none" stroke="black" d="M181,-442.82C181,-432.69 181,-419.6 181,-407.92"/>
<polygon fill="black" stroke="black" points="184.5,-407.95 181,-397.95 177.5,-407.95 184.5,-407.95"/>
</g>
<!-- staking_proxy::set_operator -->
<g id="node11" class="node">
<title>staking_proxy::set_operator</title>
<ellipse fill="none" stroke="black" cx="1548" cy="-536" rx="53.89" ry="18"/>
<text text-anchor="middle" x="1548" y="-532.3" font-family="Times,serif" font-size="14.00">set_operator</text>
</g>
<!-- staking_proxy::set_operator&#45;&gt;staking_proxy::set_stake_pool_operator -->
<g id="edge10" class="edge">
<title>staking_proxy::set_operator&#45;&gt;staking_proxy::set_stake_pool_operator</title>
<path fill="none" stroke="black" d="M1596.74,-527.91C1620.12,-523.83 1648.35,-517.93 1673,-510 1694.9,-502.95 1718.3,-492.67 1737.53,-483.43"/>
<polygon fill="black" stroke="black" points="1738.94,-486.64 1746.38,-479.1 1735.86,-480.35 1738.94,-486.64"/>
</g>
<!-- staking_proxy::set_operator&#45;&gt;staking_proxy::set_staking_contract_operator -->
<g id="edge13" class="edge">
<title>staking_proxy::set_operator&#45;&gt;staking_proxy::set_staking_contract_operator</title>
<path fill="none" stroke="black" d="M1548,-517.7C1548,-509.67 1548,-499.9 1548,-490.8"/>
<polygon fill="black" stroke="black" points="1551.5,-490.94 1548,-480.94 1544.5,-490.94 1551.5,-490.94"/>
</g>
<!-- staking_proxy::set_vesting_contract_operator -->
<g id="node13" class="node">
<title>staking_proxy::set_vesting_contract_operator</title>
<ellipse fill="none" stroke="black" cx="1297" cy="-461" rx="116.18" ry="18"/>
<text text-anchor="middle" x="1297" y="-457.3" font-family="Times,serif" font-size="14.00">set_vesting_contract_operator</text>
</g>
<!-- staking_proxy::set_operator&#45;&gt;staking_proxy::set_vesting_contract_operator -->
<g id="edge16" class="edge">
<title>staking_proxy::set_operator&#45;&gt;staking_proxy::set_vesting_contract_operator</title>
<path fill="none" stroke="black" d="M1500.07,-527.34C1476.61,-523.11 1448.09,-517.23 1423,-510 1396.98,-502.5 1368.75,-491.98 1345.62,-482.69"/>
<polygon fill="black" stroke="black" points="1347.02,-479.49 1336.44,-478.96 1344.39,-485.97 1347.02,-479.49"/>
</g>
<!-- vesting::update_operator_with_same_commission -->
<g id="node12" class="node">
<title>vesting::update_operator_with_same_commission</title>
<ellipse fill="none" stroke="black" cx="998" cy="-461" rx="158.67" ry="18"/>
<text text-anchor="middle" x="998" y="-457.3" font-family="Times,serif" font-size="14.00">update_operator_with_same_commission</text>
</g>
<!-- vesting::update_operator_with_same_commission&#45;&gt;vesting::update_operator -->
<g id="edge11" class="edge">
<title>vesting::update_operator_with_same_commission&#45;&gt;vesting::update_operator</title>
<path fill="none" stroke="black" d="M998,-442.82C998,-432.69 998,-419.6 998,-407.92"/>
<polygon fill="black" stroke="black" points="1001.5,-407.95 998,-397.95 994.5,-407.95 1001.5,-407.95"/>
</g>
<!-- staking_proxy::set_vesting_contract_operator&#45;&gt;vesting::update_operator -->
<g id="edge12" class="edge">
<title>staking_proxy::set_vesting_contract_operator&#45;&gt;vesting::update_operator</title>
<path fill="none" stroke="black" d="M1241.11,-444.86C1188.09,-430.5 1108.78,-409.01 1055.3,-394.52"/>
<polygon fill="black" stroke="black" points="1056.33,-391.17 1045.76,-391.94 1054.5,-397.93 1056.33,-391.17"/>
</g>
<!-- staking_contract::create_staking_contract_with_coins -->
<g id="node14" class="node">
<title>staking_contract::create_staking_contract_with_coins</title>
<ellipse fill="none" stroke="black" cx="271" cy="-306" rx="137.28" ry="18"/>
<text text-anchor="middle" x="271" y="-302.3" font-family="Times,serif" font-size="14.00">create_staking_contract_with_coins</text>
</g>
<!-- staking_contract::create_staking_contract_with_coins&#45;&gt;staking_contract::create_stake_pool -->
<g id="edge14" class="edge">
<title>staking_contract::create_staking_contract_with_coins&#45;&gt;staking_contract::create_stake_pool</title>
<path fill="none" stroke="black" d="M271,-287.7C271,-280.41 271,-271.73 271,-263.54"/>
<polygon fill="black" stroke="black" points="274.5,-263.62 271,-253.62 267.5,-263.62 274.5,-263.62"/>
</g>
<!-- genesis::create_initialize_validators_with_commission -->
<g id="node15" class="node">
<title>genesis::create_initialize_validators_with_commission</title>
<ellipse fill="none" stroke="black" cx="190" cy="-536" rx="173.57" ry="18"/>
<text text-anchor="middle" x="190" y="-532.3" font-family="Times,serif" font-size="14.00">create_initialize_validators_with_commission</text>
</g>
<!-- genesis::create_initialize_validators_with_commission&#45;&gt;genesis::create_initialize_validator -->
<g id="edge15" class="edge">
<title>genesis::create_initialize_validators_with_commission&#45;&gt;genesis::create_initialize_validator</title>
<path fill="none" stroke="black" d="M187.87,-517.7C186.88,-509.67 185.67,-499.9 184.55,-490.8"/>
<polygon fill="black" stroke="black" points="188.03,-490.43 183.33,-480.93 181.08,-491.28 188.03,-490.43"/>
</g>
<!-- staking_contract::create_staking_contract&#45;&gt;staking_contract::create_staking_contract_with_coins -->
<g id="edge17" class="edge">
<title>staking_contract::create_staking_contract&#45;&gt;staking_contract::create_staking_contract_with_coins</title>
<path fill="none" stroke="black" d="M202.79,-360.05C213.98,-351.35 227.81,-340.59 240.09,-331.04"/>
<polygon fill="black" stroke="black" points="242.16,-333.86 247.91,-324.96 237.87,-328.34 242.16,-333.86"/>
</g>
<!-- vesting::create_vesting_contract -->
<g id="node17" class="node">
<title>vesting::create_vesting_contract</title>
<ellipse fill="none" stroke="black" cx="727" cy="-461" rx="94.48" ry="18"/>
<text text-anchor="middle" x="727" y="-457.3" font-family="Times,serif" font-size="14.00">create_vesting_contract</text>
</g>
<!-- vesting::create_vesting_contract&#45;&gt;staking_contract::create_staking_contract_with_coins -->
<g id="edge18" class="edge">
<title>vesting::create_vesting_contract&#45;&gt;staking_contract::create_staking_contract_with_coins</title>
<path fill="none" stroke="black" d="M715.27,-442.67C697.46,-417.9 661.08,-373.07 618,-352 597.57,-342.01 482.3,-328.31 390.14,-318.66"/>
<polygon fill="black" stroke="black" points="390.55,-315.18 380.24,-317.63 389.83,-322.14 390.55,-315.18"/>
</g>
<!-- genesis::initialize_for_verification -->
<g id="node18" class="node">
<title>genesis::initialize_for_verification</title>
<ellipse fill="none" stroke="black" cx="453" cy="-611" rx="100.98" ry="18"/>
<text text-anchor="middle" x="453" y="-607.3" font-family="Times,serif" font-size="14.00">initialize_for_verification</text>
</g>
<!-- genesis::initialize_for_verification&#45;&gt;genesis::create_initialize_validators_with_commission -->
<g id="edge19" class="edge">
<title>genesis::initialize_for_verification&#45;&gt;genesis::create_initialize_validators_with_commission</title>
<path fill="none" stroke="black" d="M400.09,-595.32C359.72,-584.11 303.72,-568.57 259.69,-556.34"/>
<polygon fill="black" stroke="black" points="260.8,-553.02 250.23,-553.72 258.93,-559.77 260.8,-553.02"/>
</g>
<!-- genesis::create_employee_validators -->
<g id="node20" class="node">
<title>genesis::create_employee_validators</title>
<ellipse fill="none" stroke="black" cx="491" cy="-536" rx="109.68" ry="18"/>
<text text-anchor="middle" x="491" y="-532.3" font-family="Times,serif" font-size="14.00">create_employee_validators</text>
</g>
<!-- genesis::initialize_for_verification&#45;&gt;genesis::create_employee_validators -->
<g id="edge23" class="edge">
<title>genesis::initialize_for_verification&#45;&gt;genesis::create_employee_validators</title>
<path fill="none" stroke="black" d="M462.01,-592.7C466.37,-584.31 471.73,-574.02 476.64,-564.58"/>
<polygon fill="black" stroke="black" points="479.72,-566.26 481.23,-555.77 473.51,-563.03 479.72,-566.26"/>
</g>
<!-- genesis::create_initialize_validators -->
<g id="node19" class="node">
<title>genesis::create_initialize_validators</title>
<ellipse fill="none" stroke="black" cx="190" cy="-611" rx="105.88" ry="18"/>
<text text-anchor="middle" x="190" y="-607.3" font-family="Times,serif" font-size="14.00">create_initialize_validators</text>
</g>
<!-- genesis::create_initialize_validators&#45;&gt;genesis::create_initialize_validators_with_commission -->
<g id="edge20" class="edge">
<title>genesis::create_initialize_validators&#45;&gt;genesis::create_initialize_validators_with_commission</title>
<path fill="none" stroke="black" d="M190,-592.7C190,-584.67 190,-574.9 190,-565.8"/>
<polygon fill="black" stroke="black" points="193.5,-565.94 190,-555.94 186.5,-565.94 193.5,-565.94"/>
</g>
<!-- genesis::create_employee_validators&#45;&gt;vesting::create_vesting_contract -->
<g id="edge22" class="edge">
<title>genesis::create_employee_validators&#45;&gt;vesting::create_vesting_contract</title>
<path fill="none" stroke="black" d="M564.81,-522.3C580.85,-518.87 597.61,-514.77 613,-510 636.58,-502.7 661.97,-492.27 682.79,-483"/>
<polygon fill="black" stroke="black" points="684.18,-486.22 691.85,-478.91 681.3,-479.84 684.18,-486.22"/>
</g>
</g>
</svg>
