<?xml version="1.0" encoding="UTF-8" standalone="no"?>
<!DOCTYPE svg PUBLIC "-//W3C//DTD SVG 1.1//EN"
 "http://www.w3.org/Graphics/SVG/1.1/DTD/svg11.dtd">
<!-- Generated by graphviz version 7.0.4 (20221203.1631)
 -->
<!-- Title: G Pages: 1 -->
<svg width="837pt" height="529pt"
 viewBox="0.00 0.00 837.00 529.00" xmlns="http://www.w3.org/2000/svg" xmlns:xlink="http://www.w3.org/1999/xlink">
<g id="graph0" class="graph" transform="scale(1 1) rotate(0) translate(4 525)">
<title>G</title>
<polygon fill="white" stroke="none" points="-4,4 -4,-525 833,-525 833,4 -4,4"/>
<g id="clust1" class="cluster">
<title>cluster_staking_contract</title>
<polygon fill="none" stroke="black" points="271,-64 271,-283 561,-283 561,-64 271,-64"/>
<text text-anchor="middle" x="416" y="-267.8" font-family="Times,serif" font-size="14.00">staking_contract</text>
</g>
<g id="clust2" class="cluster">
<title>cluster_genesis</title>
<polygon fill="none" stroke="black" points="8,-291 8,-513 609,-513 609,-291 8,-291"/>
<text text-anchor="middle" x="308.5" y="-497.8" font-family="Times,serif" font-size="14.00">genesis</text>
</g>
<g id="clust3" class="cluster">
<title>cluster_vesting</title>
<polygon fill="none" stroke="black" points="617,-291 617,-366 821,-366 821,-291 617,-291"/>
<text text-anchor="middle" x="719" y="-350.8" font-family="Times,serif" font-size="14.00">vesting</text>
</g>
<!-- initialize_stake_owner -->
<g id="node1" class="node">
<title>initialize_stake_owner</title>
<ellipse fill="none" stroke="black" cx="317" cy="-18" rx="90.18" ry="18"/>
<text text-anchor="middle" x="317" y="-14.3" font-family="Times,serif" font-size="14.00">initialize_stake_owner</text>
</g>
<!-- staking_contract::create_stake_pool -->
<g id="node2" class="node">
<title>staking_contract::create_stake_pool</title>
<ellipse fill="none" stroke="black" cx="384" cy="-90" rx="74.19" ry="18"/>
<text text-anchor="middle" x="384" y="-86.3" font-family="Times,serif" font-size="14.00">create_stake_pool</text>
</g>
<!-- staking_contract::create_stake_pool&#45;&gt;initialize_stake_owner -->
<g id="edge1" class="edge">
<title>staking_contract::create_stake_pool&#45;&gt;initialize_stake_owner</title>
<path fill="none" stroke="black" d="M367.78,-72.05C359.72,-63.63 349.81,-53.28 340.9,-43.97"/>
<polygon fill="black" stroke="black" points="343.56,-41.69 334.12,-36.88 338.5,-46.53 343.56,-41.69"/>
</g>
<!-- genesis::create_initialize_validator -->
<g id="node3" class="node">
<title>genesis::create_initialize_validator</title>
<ellipse fill="none" stroke="black" cx="251" cy="-317" rx="102.88" ry="18"/>
<text text-anchor="middle" x="251" y="-313.3" font-family="Times,serif" font-size="14.00">create_initialize_validator</text>
</g>
<!-- genesis::create_initialize_validator&#45;&gt;initialize_stake_owner -->
<g id="edge2" class="edge">
<title>genesis::create_initialize_validator&#45;&gt;initialize_stake_owner</title>
<path fill="none" stroke="black" d="M247.84,-298.68C240.95,-256.18 228.14,-144.3 267,-64 270.83,-56.09 276.72,-48.94 283.14,-42.79"/>
<polygon fill="black" stroke="black" points="285.06,-45.76 290.29,-36.55 280.46,-40.49 285.06,-45.76"/>
</g>
<!-- staking_contract::create_staking_contract -->
<g id="node6" class="node">
<title>staking_contract::create_staking_contract</title>
<ellipse fill="none" stroke="black" cx="394" cy="-234" rx="94.48" ry="18"/>
<text text-anchor="middle" x="394" y="-230.3" font-family="Times,serif" font-size="14.00">create_staking_contract</text>
</g>
<!-- genesis::create_initialize_validator&#45;&gt;staking_contract::create_staking_contract -->
<g id="edge9" class="edge">
<title>genesis::create_initialize_validator&#45;&gt;staking_contract::create_staking_contract</title>
<path fill="none" stroke="black" d="M280.28,-299.41C301.78,-287.24 331.21,-270.57 354.74,-257.24"/>
<polygon fill="black" stroke="black" points="356.46,-260.28 363.44,-252.31 353.01,-254.19 356.46,-260.28"/>
</g>
<!-- staking_contract::create_staking_contract_with_coins -->
<g id="node4" class="node">
<title>staking_contract::create_staking_contract_with_coins</title>
<ellipse fill="none" stroke="black" cx="416" cy="-162" rx="137.28" ry="18"/>
<text text-anchor="middle" x="416" y="-158.3" font-family="Times,serif" font-size="14.00">create_staking_contract_with_coins</text>
</g>
<!-- staking_contract::create_staking_contract_with_coins&#45;&gt;staking_contract::create_stake_pool -->
<g id="edge3" class="edge">
<title>staking_contract::create_staking_contract_with_coins&#45;&gt;staking_contract::create_stake_pool</title>
<path fill="none" stroke="black" d="M408.09,-143.7C404.6,-136.07 400.42,-126.92 396.52,-118.4"/>
<polygon fill="black" stroke="black" points="399.79,-117.12 392.45,-109.48 393.42,-120.03 399.79,-117.12"/>
</g>
<!-- genesis::create_initialize_validators_with_commission -->
<g id="node5" class="node">
<title>genesis::create_initialize_validators_with_commission</title>
<ellipse fill="none" stroke="black" cx="190" cy="-392" rx="173.57" ry="18"/>
<text text-anchor="middle" x="190" y="-388.3" font-family="Times,serif" font-size="14.00">create_initialize_validators_with_commission</text>
</g>
<!-- genesis::create_initialize_validators_with_commission&#45;&gt;genesis::create_initialize_validator -->
<g id="edge4" class="edge">
<title>genesis::create_initialize_validators_with_commission&#45;&gt;genesis::create_initialize_validator</title>
<path fill="none" stroke="black" d="M204.46,-373.7C211.9,-364.79 221.13,-353.75 229.4,-343.85"/>
<polygon fill="black" stroke="black" points="231.95,-346.26 235.68,-336.34 226.58,-341.77 231.95,-346.26"/>
</g>
<!-- staking_contract::create_staking_contract&#45;&gt;staking_contract::create_staking_contract_with_coins -->
<g id="edge5" class="edge">
<title>staking_contract::create_staking_contract&#45;&gt;staking_contract::create_staking_contract_with_coins</title>
<path fill="none" stroke="black" d="M399.44,-215.7C401.78,-208.24 404.58,-199.32 407.21,-190.97"/>
<polygon fill="black" stroke="black" points="410.51,-192.14 410.17,-181.55 403.83,-190.04 410.51,-192.14"/>
</g>
<!-- vesting::create_vesting_contract -->
<g id="node7" class="node">
<title>vesting::create_vesting_contract</title>
<ellipse fill="none" stroke="black" cx="719" cy="-317" rx="94.48" ry="18"/>
<text text-anchor="middle" x="719" y="-313.3" font-family="Times,serif" font-size="14.00">create_vesting_contract</text>
</g>
<!-- vesting::create_vesting_contract&#45;&gt;staking_contract::create_staking_contract_with_coins -->
<g id="edge6" class="edge">
<title>vesting::create_vesting_contract&#45;&gt;staking_contract::create_staking_contract_with_coins</title>
<path fill="none" stroke="black" d="M686.57,-299.63C631.73,-271.93 520.66,-215.85 459.25,-184.84"/>
<polygon fill="black" stroke="black" points="460.97,-181.79 450.46,-180.4 457.81,-188.03 460.97,-181.79"/>
</g>
<!-- genesis::initialize_for_verification -->
<g id="node8" class="node">
<title>genesis::initialize_for_verification</title>
<ellipse fill="none" stroke="black" cx="453" cy="-464" rx="100.98" ry="18"/>
<text text-anchor="middle" x="453" y="-460.3" font-family="Times,serif" font-size="14.00">initialize_for_verification</text>
</g>
<!-- genesis::initialize_for_verification&#45;&gt;genesis::create_initialize_validators_with_commission -->
<g id="edge7" class="edge">
<title>genesis::initialize_for_verification&#45;&gt;genesis::create_initialize_validators_with_commission</title>
<path fill="none" stroke="black" d="M398.51,-448.5C358.92,-437.96 304.96,-423.6 261.85,-412.12"/>
<polygon fill="black" stroke="black" points="262.89,-408.78 252.32,-409.59 261.08,-415.54 262.89,-408.78"/>
</g>
<!-- genesis::create_employee_validators -->
<g id="node10" class="node">
<title>genesis::create_employee_validators</title>
<ellipse fill="none" stroke="black" cx="491" cy="-392" rx="109.68" ry="18"/>
<text text-anchor="middle" x="491" y="-388.3" font-family="Times,serif" font-size="14.00">create_employee_validators</text>
</g>
<!-- genesis::initialize_for_verification&#45;&gt;genesis::create_employee_validators -->
<g id="edge11" class="edge">
<title>genesis::initialize_for_verification&#45;&gt;genesis::create_employee_validators</title>
<path fill="none" stroke="black" d="M462.39,-445.7C466.58,-437.98 471.61,-428.71 476.28,-420.11"/>
<polygon fill="black" stroke="black" points="479.3,-421.89 480.99,-411.43 473.15,-418.55 479.3,-421.89"/>
</g>
<!-- genesis::create_initialize_validators -->
<g id="node9" class="node">
<title>genesis::create_initialize_validators</title>
<ellipse fill="none" stroke="black" cx="190" cy="-464" rx="105.88" ry="18"/>
<text text-anchor="middle" x="190" y="-460.3" font-family="Times,serif" font-size="14.00">create_initialize_validators</text>
</g>
<!-- genesis::create_initialize_validators&#45;&gt;genesis::create_initialize_validators_with_commission -->
<g id="edge8" class="edge">
<title>genesis::create_initialize_validators&#45;&gt;genesis::create_initialize_validators_with_commission</title>
<path fill="none" stroke="black" d="M190,-445.7C190,-438.41 190,-429.73 190,-421.54"/>
<polygon fill="black" stroke="black" points="193.5,-421.62 190,-411.62 186.5,-421.62 193.5,-421.62"/>
</g>
<!-- genesis::create_employee_validators&#45;&gt;vesting::create_vesting_contract -->
<g id="edge10" class="edge">
<title>genesis::create_employee_validators&#45;&gt;vesting::create_vesting_contract</title>
<path fill="none" stroke="black" d="M565.56,-378.47C581.39,-375.05 597.88,-370.9 613,-366 634.89,-358.9 658.28,-348.62 677.51,-339.39"/>
<polygon fill="black" stroke="black" points="678.92,-342.59 686.37,-335.06 675.85,-336.3 678.92,-342.59"/>
</g>
</g>
</svg>
