<?xml version="1.0" encoding="UTF-8" standalone="no"?>
<!DOCTYPE svg PUBLIC "-//W3C//DTD SVG 1.1//EN"
 "http://www.w3.org/Graphics/SVG/1.1/DTD/svg11.dtd">
<!-- Generated by graphviz version 7.0.4 (20221203.1631)
 -->
<!-- Title: G Pages: 1 -->
<svg width="1507pt" height="393pt"
 viewBox="0.00 0.00 1507.00 393.00" xmlns="http://www.w3.org/2000/svg" xmlns:xlink="http://www.w3.org/1999/xlink">
<g id="graph0" class="graph" transform="scale(1 1) rotate(0) translate(4 389)">
<title>G</title>
<polygon fill="white" stroke="none" points="-4,4 -4,-389 1503,-389 1503,4 -4,4"/>
<g id="clust1" class="cluster">
<title>cluster_stake</title>
<polygon fill="none" stroke="black" points="1027,-64 1027,-211 1324,-211 1324,-64 1027,-64"/>
<text text-anchor="middle" x="1175.5" y="-195.8" font-family="Times,serif" font-size="14.00">stake</text>
</g>
<g id="clust2" class="cluster">
<title>cluster_staking_contract</title>
<polygon fill="none" stroke="black" points="1352,-136 1352,-211 1480,-211 1480,-136 1352,-136"/>
<text text-anchor="middle" x="1416" y="-195.8" font-family="Times,serif" font-size="14.00">staking_contract</text>
</g>
<g id="clust3" class="cluster">
<title>cluster_reconfiguration</title>
<polygon fill="none" stroke="black" points="453,-219 453,-294 571,-294 571,-219 453,-219"/>
<text text-anchor="middle" x="512" y="-278.8" font-family="Times,serif" font-size="14.00">reconfiguration</text>
</g>
<g id="clust4" class="cluster">
<title>cluster_genesis</title>
<polygon fill="none" stroke="black" points="907,-219 907,-377 1355,-377 1355,-219 907,-219"/>
<text text-anchor="middle" x="1131" y="-361.8" font-family="Times,serif" font-size="14.00">genesis</text>
</g>
<g id="clust5" class="cluster">
<title>cluster_vesting</title>
<polygon fill="none" stroke="black" points="1363,-219 1363,-294 1491,-294 1491,-219 1363,-219"/>
<text text-anchor="middle" x="1427" y="-278.8" font-family="Times,serif" font-size="14.00">vesting</text>
</g>
<g id="clust6" class="cluster">
<title>cluster_aptos_governance</title>
<polygon fill="none" stroke="black" points="8,-302 8,-377 126,-377 126,-302 8,-302"/>
<text text-anchor="middle" x="67" y="-361.8" font-family="Times,serif" font-size="14.00">aptos_governance</text>
</g>
<g id="clust7" class="cluster">
<title>cluster_block</title>
<polygon fill="none" stroke="black" points="134,-302 134,-377 282,-377 282,-302 134,-302"/>
<text text-anchor="middle" x="208" y="-361.8" font-family="Times,serif" font-size="14.00">block</text>
</g>
<g id="clust8" class="cluster">
<title>cluster_consensus_config</title>
<polygon fill="none" stroke="black" points="290,-302 290,-377 403,-377 403,-302 290,-302"/>
<text text-anchor="middle" x="346.5" y="-361.8" font-family="Times,serif" font-size="14.00">consensus_config</text>
</g>
<g id="clust9" class="cluster">
<title>cluster_gas_schedule</title>
<polygon fill="none" stroke="black" points="411,-302 411,-377 773,-377 773,-302 411,-302"/>
<text text-anchor="middle" x="592" y="-361.8" font-family="Times,serif" font-size="14.00">gas_schedule</text>
</g>
<g id="clust10" class="cluster">
<title>cluster_version</title>
<polygon fill="none" stroke="black" points="781,-302 781,-377 899,-377 899,-302 781,-302"/>
<text text-anchor="middle" x="840" y="-361.8" font-family="Times,serif" font-size="14.00">version</text>
</g>
<!-- get_recurring_lockup_duration -->
<g id="node1" class="node">
<title>get_recurring_lockup_duration</title>
<ellipse fill="none" stroke="black" cx="1144" cy="-18" rx="120.48" ry="18"/>
<text text-anchor="middle" x="1144" y="-14.3" font-family="Times,serif" font-size="14.00">get_recurring_lockup_duration</text>
</g>
<!-- stake::increase_lockup_with_cap -->
<g id="node2" class="node">
<title>stake::increase_lockup_with_cap</title>
<ellipse fill="none" stroke="black" cx="1211" cy="-90" rx="104.78" ry="18"/>
<text text-anchor="middle" x="1211" y="-86.3" font-family="Times,serif" font-size="14.00">increase_lockup_with_cap</text>
</g>
<!-- stake::increase_lockup_with_cap&#45;&gt;get_recurring_lockup_duration -->
<g id="edge1" class="edge">
<title>stake::increase_lockup_with_cap&#45;&gt;get_recurring_lockup_duration</title>
<path fill="none" stroke="black" d="M1194.78,-72.05C1186.83,-63.75 1177.1,-53.58 1168.29,-44.38"/>
<polygon fill="black" stroke="black" points="1171.02,-42.17 1161.58,-37.37 1165.97,-47.01 1171.02,-42.17"/>
</g>
<!-- stake::on_new_epoch -->
<g id="node3" class="node">
<title>stake::on_new_epoch</title>
<ellipse fill="none" stroke="black" cx="1099" cy="-162" rx="63.89" ry="18"/>
<text text-anchor="middle" x="1099" y="-158.3" font-family="Times,serif" font-size="14.00">on_new_epoch</text>
</g>
<!-- stake::on_new_epoch&#45;&gt;get_recurring_lockup_duration -->
<g id="edge2" class="edge">
<title>stake::on_new_epoch&#45;&gt;get_recurring_lockup_duration</title>
<path fill="none" stroke="black" d="M1094.51,-143.72C1090.22,-123.67 1085.89,-90.02 1097,-64 1100.23,-56.43 1105.43,-49.52 1111.22,-43.51"/>
<polygon fill="black" stroke="black" points="1113.34,-46.33 1118.24,-36.94 1108.55,-41.22 1113.34,-46.33"/>
</g>
<!-- stake::increase_lockup -->
<g id="node4" class="node">
<title>stake::increase_lockup</title>
<ellipse fill="none" stroke="black" cx="1248" cy="-162" rx="67.69" ry="18"/>
<text text-anchor="middle" x="1248" y="-158.3" font-family="Times,serif" font-size="14.00">increase_lockup</text>
</g>
<!-- stake::increase_lockup&#45;&gt;stake::increase_lockup_with_cap -->
<g id="edge3" class="edge">
<title>stake::increase_lockup&#45;&gt;stake::increase_lockup_with_cap</title>
<path fill="none" stroke="black" d="M1238.85,-143.7C1234.78,-135.98 1229.88,-126.71 1225.33,-118.11"/>
<polygon fill="black" stroke="black" points="1228.52,-116.65 1220.75,-109.44 1222.33,-119.92 1228.52,-116.65"/>
</g>
<!-- staking_contract::reset_lockup -->
<g id="node5" class="node">
<title>staking_contract::reset_lockup</title>
<ellipse fill="none" stroke="black" cx="1416" cy="-162" rx="55.79" ry="18"/>
<text text-anchor="middle" x="1416" y="-158.3" font-family="Times,serif" font-size="14.00">reset_lockup</text>
</g>
<!-- staking_contract::reset_lockup&#45;&gt;stake::increase_lockup_with_cap -->
<g id="edge4" class="edge">
<title>staking_contract::reset_lockup&#45;&gt;stake::increase_lockup_with_cap</title>
<path fill="none" stroke="black" d="M1378.88,-148.32C1347.82,-137.72 1303.02,-122.42 1267.51,-110.3"/>
<polygon fill="black" stroke="black" points="1268.84,-107.05 1258.25,-107.13 1266.58,-113.68 1268.84,-107.05"/>
</g>
<!-- reconfiguration::reconfigure -->
<g id="node6" class="node">
<title>reconfiguration::reconfigure</title>
<ellipse fill="none" stroke="black" cx="512" cy="-245" rx="51.19" ry="18"/>
<text text-anchor="middle" x="512" y="-241.3" font-family="Times,serif" font-size="14.00">reconfigure</text>
</g>
<!-- reconfiguration::reconfigure&#45;&gt;stake::on_new_epoch -->
<g id="edge5" class="edge">
<title>reconfiguration::reconfigure&#45;&gt;stake::on_new_epoch</title>
<path fill="none" stroke="black" d="M559.04,-237.51C662.75,-223.2 911.35,-188.89 1031.59,-172.3"/>
<polygon fill="black" stroke="black" points="1031.89,-175.79 1041.32,-170.96 1030.94,-168.86 1031.89,-175.79"/>
</g>
<!-- genesis::create_initialize_validators_with_commission -->
<g id="node7" class="node">
<title>genesis::create_initialize_validators_with_commission</title>
<ellipse fill="none" stroke="black" cx="1099" cy="-245" rx="173.57" ry="18"/>
<text text-anchor="middle" x="1099" y="-241.3" font-family="Times,serif" font-size="14.00">create_initialize_validators_with_commission</text>
</g>
<!-- genesis::create_initialize_validators_with_commission&#45;&gt;stake::on_new_epoch -->
<g id="edge6" class="edge">
<title>genesis::create_initialize_validators_with_commission&#45;&gt;stake::on_new_epoch</title>
<path fill="none" stroke="black" d="M1099,-226.82C1099,-216.69 1099,-203.6 1099,-191.92"/>
<polygon fill="black" stroke="black" points="1102.5,-191.95 1099,-181.95 1095.5,-191.95 1102.5,-191.95"/>
</g>
<!-- vesting::reset_lockup -->
<g id="node8" class="node">
<title>vesting::reset_lockup</title>
<ellipse fill="none" stroke="black" cx="1427" cy="-245" rx="55.79" ry="18"/>
<text text-anchor="middle" x="1427" y="-241.3" font-family="Times,serif" font-size="14.00">reset_lockup</text>
</g>
<!-- vesting::reset_lockup&#45;&gt;staking_contract::reset_lockup -->
<g id="edge7" class="edge">
<title>vesting::reset_lockup&#45;&gt;staking_contract::reset_lockup</title>
<path fill="none" stroke="black" d="M1424.67,-226.82C1423.28,-216.58 1421.48,-203.33 1419.88,-191.55"/>
<polygon fill="black" stroke="black" points="1423.38,-191.37 1418.57,-181.93 1416.45,-192.31 1423.38,-191.37"/>
</g>
<!-- aptos_governance::reconfigure -->
<g id="node9" class="node">
<title>aptos_governance::reconfigure</title>
<ellipse fill="none" stroke="black" cx="67" cy="-328" rx="51.19" ry="18"/>
<text text-anchor="middle" x="67" y="-324.3" font-family="Times,serif" font-size="14.00">reconfigure</text>
</g>
<!-- aptos_governance::reconfigure&#45;&gt;reconfiguration::reconfigure -->
<g id="edge8" class="edge">
<title>aptos_governance::reconfigure&#45;&gt;reconfiguration::reconfigure</title>
<path fill="none" stroke="black" d="M97.6,-313.2C107.74,-309.08 119.2,-304.89 130,-302 241.01,-272.27 374.66,-257.25 450.84,-250.56"/>
<polygon fill="black" stroke="black" points="450.94,-254.07 460.6,-249.73 450.34,-247.09 450.94,-254.07"/>
</g>
<!-- block::block_prologue -->
<g id="node10" class="node">
<title>block::block_prologue</title>
<ellipse fill="none" stroke="black" cx="208" cy="-328" rx="65.79" ry="18"/>
<text text-anchor="middle" x="208" y="-324.3" font-family="Times,serif" font-size="14.00">block_prologue</text>
</g>
<!-- block::block_prologue&#45;&gt;reconfiguration::reconfigure -->
<g id="edge9" class="edge">
<title>block::block_prologue&#45;&gt;reconfiguration::reconfigure</title>
<path fill="none" stroke="black" d="M248.33,-313.5C260.39,-309.62 273.69,-305.49 286,-302 344.61,-285.37 412.55,-268.91 458.51,-258.18"/>
<polygon fill="black" stroke="black" points="459.28,-261.6 468.23,-255.93 457.7,-254.78 459.28,-261.6"/>
</g>
<!-- consensus_config::set -->
<g id="node11" class="node">
<title>consensus_config::set</title>
<ellipse fill="none" stroke="black" cx="368" cy="-328" rx="27" ry="18"/>
<text text-anchor="middle" x="368" y="-324.3" font-family="Times,serif" font-size="14.00">set</text>
</g>
<!-- consensus_config::set&#45;&gt;reconfiguration::reconfigure -->
<g id="edge10" class="edge">
<title>consensus_config::set&#45;&gt;reconfiguration::reconfigure</title>
<path fill="none" stroke="black" d="M386.46,-314.74C392.89,-310.58 400.2,-305.98 407,-302 428.71,-289.28 453.52,-275.99 473.57,-265.55"/>
<polygon fill="black" stroke="black" points="474.97,-268.77 482.24,-261.07 471.75,-262.55 474.97,-268.77"/>
</g>
<!-- gas_schedule::set_gas_schedule -->
<g id="node12" class="node">
<title>gas_schedule::set_gas_schedule</title>
<ellipse fill="none" stroke="black" cx="694" cy="-328" rx="71.49" ry="18"/>
<text text-anchor="middle" x="694" y="-324.3" font-family="Times,serif" font-size="14.00">set_gas_schedule</text>
</g>
<!-- gas_schedule::set_gas_schedule&#45;&gt;reconfiguration::reconfigure -->
<g id="edge11" class="edge">
<title>gas_schedule::set_gas_schedule&#45;&gt;reconfiguration::reconfigure</title>
<path fill="none" stroke="black" d="M659.77,-311.76C629.52,-298.3 585.33,-278.64 553.16,-264.32"/>
<polygon fill="black" stroke="black" points="554.69,-261.17 544.13,-260.3 551.84,-267.56 554.69,-261.17"/>
</g>
<!-- gas_schedule::set_storage_gas_config -->
<g id="node13" class="node">
<title>gas_schedule::set_storage_gas_config</title>
<ellipse fill="none" stroke="black" cx="512" cy="-328" rx="92.88" ry="18"/>
<text text-anchor="middle" x="512" y="-324.3" font-family="Times,serif" font-size="14.00">set_storage_gas_config</text>
</g>
<!-- gas_schedule::set_storage_gas_config&#45;&gt;reconfiguration::reconfigure -->
<g id="edge12" class="edge">
<title>gas_schedule::set_storage_gas_config&#45;&gt;reconfiguration::reconfigure</title>
<path fill="none" stroke="black" d="M512,-309.82C512,-299.69 512,-286.6 512,-274.92"/>
<polygon fill="black" stroke="black" points="515.5,-274.95 512,-264.95 508.5,-274.95 515.5,-274.95"/>
</g>
<!-- version::set_version -->
<g id="node14" class="node">
<title>version::set_version</title>
<ellipse fill="none" stroke="black" cx="840" cy="-328" rx="50.89" ry="18"/>
<text text-anchor="middle" x="840" y="-324.3" font-family="Times,serif" font-size="14.00">set_version</text>
</g>
<!-- version::set_version&#45;&gt;reconfiguration::reconfigure -->
<g id="edge13" class="edge">
<title>version::set_version&#45;&gt;reconfiguration::reconfigure</title>
<path fill="none" stroke="black" d="M808.64,-313.35C798.66,-309.32 787.48,-305.16 777,-302 706.6,-280.76 623.33,-264.57 569.18,-255.19"/>
<polygon fill="black" stroke="black" points="570.02,-251.79 559.57,-253.55 568.84,-258.68 570.02,-251.79"/>
</g>
<!-- genesis::initialize_for_verification -->
<g id="node15" class="node">
<title>genesis::initialize_for_verification</title>
<ellipse fill="none" stroke="black" cx="1246" cy="-328" rx="100.98" ry="18"/>
<text text-anchor="middle" x="1246" y="-324.3" font-family="Times,serif" font-size="14.00">initialize_for_verification</text>
</g>
<!-- genesis::initialize_for_verification&#45;&gt;genesis::create_initialize_validators_with_commission -->
<g id="edge14" class="edge">
<title>genesis::initialize_for_verification&#45;&gt;genesis::create_initialize_validators_with_commission</title>
<path fill="none" stroke="black" d="M1215.9,-310.41C1194,-298.34 1164.08,-281.86 1140,-268.59"/>
<polygon fill="black" stroke="black" points="1141.85,-265.61 1131.4,-263.85 1138.47,-271.75 1141.85,-265.61"/>
</g>
<!-- genesis::create_initialize_validators -->
<g id="node16" class="node">
<title>genesis::create_initialize_validators</title>
<ellipse fill="none" stroke="black" cx="1021" cy="-328" rx="105.88" ry="18"/>
<text text-anchor="middle" x="1021" y="-324.3" font-family="Times,serif" font-size="14.00">create_initialize_validators</text>
</g>
<!-- genesis::create_initialize_validators&#45;&gt;genesis::create_initialize_validators_with_commission -->
<g id="edge15" class="edge">
<title>genesis::create_initialize_validators&#45;&gt;genesis::create_initialize_validators_with_commission</title>
<path fill="none" stroke="black" d="M1037.54,-309.82C1048.3,-298.65 1062.51,-283.9 1074.56,-271.38"/>
<polygon fill="black" stroke="black" points="1077.02,-273.87 1081.43,-264.24 1071.97,-269.02 1077.02,-273.87"/>
</g>
</g>
</svg>
