<?xml version="1.0" encoding="UTF-8" standalone="no"?>
<!DOCTYPE svg PUBLIC "-//W3C//DTD SVG 1.1//EN"
 "http://www.w3.org/Graphics/SVG/1.1/DTD/svg11.dtd">
<!-- Generated by graphviz version 7.0.4 (20221203.1631)
 -->
<!-- Title: G Pages: 1 -->
<svg width="1996pt" height="753pt"
 viewBox="0.00 0.00 1996.30 753.00" xmlns="http://www.w3.org/2000/svg" xmlns:xlink="http://www.w3.org/1999/xlink">
<g id="graph0" class="graph" transform="scale(1 1) rotate(0) translate(4 749)">
<title>G</title>
<polygon fill="white" stroke="none" points="-4,4 -4,-749 1992.3,-749 1992.3,4 -4,4"/>
<g id="clust1" class="cluster">
<title>cluster_event</title>
<polygon fill="none" stroke="black" points="112,-551 112,-701 298,-701 298,-551 112,-551"/>
<text text-anchor="middle" x="205" y="-685.8" font-family="Times,serif" font-size="14.00">event</text>
</g>
<g id="clust2" class="cluster">
<title>cluster_stake</title>
<polygon fill="none" stroke="black" points="126,-246 126,-479 336,-479 336,-246 126,-246"/>
<text text-anchor="middle" x="231" y="-463.8" font-family="Times,serif" font-size="14.00">stake</text>
</g>
<g id="clust3" class="cluster">
<title>cluster_pool_u64</title>
<polygon fill="none" stroke="black" points="1274,-163 1274,-626 1958,-626 1958,-163 1274,-163"/>
<text text-anchor="middle" x="1616" y="-610.8" font-family="Times,serif" font-size="14.00">pool_u64</text>
</g>
<g id="clust4" class="cluster">
<title>cluster_bcs</title>
<polygon fill="none" stroke="black" points="8,-551 8,-626 104,-626 104,-551 8,-551"/>
<text text-anchor="middle" x="56" y="-610.8" font-family="Times,serif" font-size="14.00">bcs</text>
</g>
<g id="clust5" class="cluster">
<title>cluster_coin</title>
<polygon fill="none" stroke="black" points="42,-329 42,-404 118,-404 118,-329 42,-329"/>
<text text-anchor="middle" x="80" y="-388.8" font-family="Times,serif" font-size="14.00">coin</text>
</g>
<g id="clust6" class="cluster">
<title>cluster_error</title>
<polygon fill="none" stroke="black" points="452,-163 452,-321 744,-321 744,-163 452,-163"/>
<text text-anchor="middle" x="598" y="-305.8" font-family="Times,serif" font-size="14.00">error</text>
</g>
<g id="clust7" class="cluster">
<title>cluster_simple_map</title>
<polygon fill="none" stroke="black" points="752,-246 752,-404 1266,-404 1266,-246 752,-246"/>
<text text-anchor="middle" x="1009" y="-388.8" font-family="Times,serif" font-size="14.00">simple_map</text>
</g>
<g id="clust8" class="cluster">
<title>cluster_option</title>
<polygon fill="none" stroke="black" points="782,-80 782,-238 1113,-238 1113,-80 782,-80"/>
<text text-anchor="middle" x="947.5" y="-222.8" font-family="Times,serif" font-size="14.00">option</text>
</g>
<g id="clust9" class="cluster">
<title>cluster_vector</title>
<polygon fill="none" stroke="black" points="339,-8 339,-155 774,-155 774,-8 339,-8"/>
<text text-anchor="middle" x="556.5" y="-139.8" font-family="Times,serif" font-size="14.00">vector</text>
</g>
<!-- add_distribution -->
<g id="node1" class="node">
<title>add_distribution</title>
<ellipse fill="none" stroke="black" cx="786" cy="-727" rx="68.49" ry="18"/>
<text text-anchor="middle" x="786" y="-723.3" font-family="Times,serif" font-size="14.00">add_distribution</text>
</g>
<!-- event::emit_event -->
<g id="node2" class="node">
<title>event::emit_event</title>
<ellipse fill="none" stroke="black" cx="205" cy="-652" rx="50.09" ry="18"/>
<text text-anchor="middle" x="205" y="-648.3" font-family="Times,serif" font-size="14.00">emit_event</text>
</g>
<!-- add_distribution&#45;&gt;event::emit_event -->
<g id="edge1" class="edge">
<title>add_distribution&#45;&gt;event::emit_event</title>
<path fill="none" stroke="black" d="M717.28,-725.79C603.28,-724.88 380.08,-720.56 304,-701 281.32,-695.17 257.65,-683.91 239.15,-673.76"/>
<polygon fill="black" stroke="black" points="240.91,-670.74 230.48,-668.87 237.47,-676.84 240.91,-670.74"/>
</g>
<!-- stake::get_stake -->
<g id="node3" class="node">
<title>stake::get_stake</title>
<ellipse fill="none" stroke="black" cx="231" cy="-430" rx="44.39" ry="18"/>
<text text-anchor="middle" x="231" y="-426.3" font-family="Times,serif" font-size="14.00">get_stake</text>
</g>
<!-- add_distribution&#45;&gt;stake::get_stake -->
<g id="edge2" class="edge">
<title>add_distribution&#45;&gt;stake::get_stake</title>
<path fill="none" stroke="black" d="M746.54,-711.99C666.8,-682.84 482.17,-610.97 342,-523 310.14,-503 277.43,-474.78 255.85,-454.88"/>
<polygon fill="black" stroke="black" points="258.4,-452.47 248.7,-448.2 253.62,-457.58 258.4,-452.47"/>
</g>
<!-- pool_u64::buy_in -->
<g id="node4" class="node">
<title>pool_u64::buy_in</title>
<ellipse fill="none" stroke="black" cx="1456" cy="-505" rx="35.19" ry="18"/>
<text text-anchor="middle" x="1456" y="-501.3" font-family="Times,serif" font-size="14.00">buy_in</text>
</g>
<!-- add_distribution&#45;&gt;pool_u64::buy_in -->
<g id="edge3" class="edge">
<title>add_distribution&#45;&gt;pool_u64::buy_in</title>
<path fill="none" stroke="black" d="M821.47,-711.24C901.05,-678.58 1100.38,-599.25 1273,-551 1333.27,-534.15 1350.87,-540.34 1411,-523 1413.41,-522.3 1415.88,-521.54 1418.35,-520.73"/>
<polygon fill="black" stroke="black" points="1419.4,-524.07 1427.68,-517.46 1417.09,-517.46 1419.4,-524.07"/>
</g>
<!-- update_distribution_pool -->
<g id="node5" class="node">
<title>update_distribution_pool</title>
<ellipse fill="none" stroke="black" cx="1778" cy="-652" rx="98.58" ry="18"/>
<text text-anchor="middle" x="1778" y="-648.3" font-family="Times,serif" font-size="14.00">update_distribution_pool</text>
</g>
<!-- add_distribution&#45;&gt;update_distribution_pool -->
<g id="edge4" class="edge">
<title>add_distribution&#45;&gt;update_distribution_pool</title>
<path fill="none" stroke="black" d="M851.47,-721.18C1020.7,-708.73 1473.58,-675.4 1676.82,-660.45"/>
<polygon fill="black" stroke="black" points="1676.85,-663.95 1686.57,-659.73 1676.34,-656.97 1676.85,-663.95"/>
</g>
<!-- bcs::to_bytes -->
<g id="node6" class="node">
<title>bcs::to_bytes</title>
<ellipse fill="none" stroke="black" cx="56" cy="-577" rx="40.09" ry="18"/>
<text text-anchor="middle" x="56" y="-573.3" font-family="Times,serif" font-size="14.00">to_bytes</text>
</g>
<!-- event::emit_event&#45;&gt;bcs::to_bytes -->
<g id="edge5" class="edge">
<title>event::emit_event&#45;&gt;bcs::to_bytes</title>
<path fill="none" stroke="black" d="M159.33,-644.07C142.5,-640.29 123.73,-634.57 108,-626 96.72,-619.85 85.97,-610.72 77.21,-602.06"/>
<polygon fill="black" stroke="black" points="79.98,-599.89 70.52,-595.11 74.94,-604.74 79.98,-599.89"/>
</g>
<!-- event::write_to_event_store -->
<g id="node7" class="node">
<title>event::write_to_event_store</title>
<ellipse fill="none" stroke="black" cx="205" cy="-577" rx="85.29" ry="18"/>
<text text-anchor="middle" x="205" y="-573.3" font-family="Times,serif" font-size="14.00">write_to_event_store</text>
</g>
<!-- event::emit_event&#45;&gt;event::write_to_event_store -->
<g id="edge6" class="edge">
<title>event::emit_event&#45;&gt;event::write_to_event_store</title>
<path fill="none" stroke="black" d="M205,-633.7C205,-625.67 205,-615.9 205,-606.8"/>
<polygon fill="black" stroke="black" points="208.5,-606.94 205,-596.94 201.5,-606.94 208.5,-606.94"/>
</g>
<!-- coin::value -->
<g id="node8" class="node">
<title>coin::value</title>
<ellipse fill="none" stroke="black" cx="80" cy="-355" rx="29.8" ry="18"/>
<text text-anchor="middle" x="80" y="-351.3" font-family="Times,serif" font-size="14.00">value</text>
</g>
<!-- stake::get_stake&#45;&gt;coin::value -->
<g id="edge7" class="edge">
<title>stake::get_stake&#45;&gt;coin::value</title>
<path fill="none" stroke="black" d="M187.8,-425.37C166.78,-422.09 141.83,-415.85 122,-404 112.47,-398.3 103.96,-389.71 97.14,-381.35"/>
<polygon fill="black" stroke="black" points="99.93,-379.25 91.1,-373.4 94.36,-383.48 99.93,-379.25"/>
</g>
<!-- stake::assert_stake_pool_exists -->
<g id="node9" class="node">
<title>stake::assert_stake_pool_exists</title>
<ellipse fill="none" stroke="black" cx="231" cy="-355" rx="97.48" ry="18"/>
<text text-anchor="middle" x="231" y="-351.3" font-family="Times,serif" font-size="14.00">assert_stake_pool_exists</text>
</g>
<!-- stake::get_stake&#45;&gt;stake::assert_stake_pool_exists -->
<g id="edge8" class="edge">
<title>stake::get_stake&#45;&gt;stake::assert_stake_pool_exists</title>
<path fill="none" stroke="black" d="M231,-411.7C231,-403.67 231,-393.9 231,-384.8"/>
<polygon fill="black" stroke="black" points="234.5,-384.94 231,-374.94 227.5,-384.94 234.5,-384.94"/>
</g>
<!-- error::invalid_argument -->
<g id="node10" class="node">
<title>error::invalid_argument</title>
<ellipse fill="none" stroke="black" cx="533" cy="-272" rx="73.39" ry="18"/>
<text text-anchor="middle" x="533" y="-268.3" font-family="Times,serif" font-size="14.00">invalid_argument</text>
</g>
<!-- pool_u64::buy_in&#45;&gt;error::invalid_argument -->
<g id="edge9" class="edge">
<title>pool_u64::buy_in&#45;&gt;error::invalid_argument</title>
<path fill="none" stroke="black" d="M1429.75,-492.56C1423.7,-490.36 1417.21,-488.32 1411,-487 1350.91,-474.22 1334.18,-484.57 1273,-479 1004.05,-454.51 900.42,-544.86 670,-404 635.61,-382.98 647.79,-357.22 619,-329 605.54,-315.8 588.51,-303.95 573.16,-294.58"/>
<polygon fill="black" stroke="black" points="575.07,-291.64 564.68,-289.56 571.51,-297.67 575.07,-291.64"/>
</g>
<!-- pool_u64::add_shares -->
<g id="node11" class="node">
<title>pool_u64::add_shares</title>
<ellipse fill="none" stroke="black" cx="1332" cy="-430" rx="50.09" ry="18"/>
<text text-anchor="middle" x="1332" y="-426.3" font-family="Times,serif" font-size="14.00">add_shares</text>
</g>
<!-- pool_u64::buy_in&#45;&gt;pool_u64::add_shares -->
<g id="edge10" class="edge">
<title>pool_u64::buy_in&#45;&gt;pool_u64::add_shares</title>
<path fill="none" stroke="black" d="M1432.55,-491.2C1425.58,-487.33 1417.95,-483.04 1411,-479 1396.15,-470.37 1379.91,-460.56 1366.04,-452.08"/>
<polygon fill="black" stroke="black" points="1368.05,-449.21 1357.7,-446.96 1364.39,-455.17 1368.05,-449.21"/>
</g>
<!-- pool_u64::amount_to_shares -->
<g id="node12" class="node">
<title>pool_u64::amount_to_shares</title>
<ellipse fill="none" stroke="black" cx="1495" cy="-430" rx="75.29" ry="18"/>
<text text-anchor="middle" x="1495" y="-426.3" font-family="Times,serif" font-size="14.00">amount_to_shares</text>
</g>
<!-- pool_u64::buy_in&#45;&gt;pool_u64::amount_to_shares -->
<g id="edge11" class="edge">
<title>pool_u64::buy_in&#45;&gt;pool_u64::amount_to_shares</title>
<path fill="none" stroke="black" d="M1464.85,-487.44C1469.44,-478.85 1475.16,-468.13 1480.38,-458.36"/>
<polygon fill="black" stroke="black" points="1483.44,-460.07 1485.07,-449.6 1477.27,-456.77 1483.44,-460.07"/>
</g>
<!-- pool_u64::balance -->
<g id="node13" class="node">
<title>pool_u64::balance</title>
<ellipse fill="none" stroke="black" cx="1812" cy="-505" rx="37.89" ry="18"/>
<text text-anchor="middle" x="1812" y="-501.3" font-family="Times,serif" font-size="14.00">balance</text>
</g>
<!-- update_distribution_pool&#45;&gt;pool_u64::balance -->
<g id="edge12" class="edge">
<title>update_distribution_pool&#45;&gt;pool_u64::balance</title>
<path fill="none" stroke="black" d="M1826.26,-636.06C1830.05,-633.26 1833.41,-629.94 1836,-626 1854.58,-597.76 1840.8,-558.28 1827.7,-532.43"/>
<polygon fill="black" stroke="black" points="1830.95,-531.08 1823.13,-523.93 1824.78,-534.39 1830.95,-531.08"/>
</g>
<!-- pool_u64::amount_to_shares_with_total_coins -->
<g id="node14" class="node">
<title>pool_u64::amount_to_shares_with_total_coins</title>
<ellipse fill="none" stroke="black" cx="1518" cy="-355" rx="137.58" ry="18"/>
<text text-anchor="middle" x="1518" y="-351.3" font-family="Times,serif" font-size="14.00">amount_to_shares_with_total_coins</text>
</g>
<!-- update_distribution_pool&#45;&gt;pool_u64::amount_to_shares_with_total_coins -->
<g id="edge13" class="edge">
<title>update_distribution_pool&#45;&gt;pool_u64::amount_to_shares_with_total_coins</title>
<path fill="none" stroke="black" d="M1852.69,-639.86C1867.02,-636.27 1879.1,-631.7 1884,-626 1946.12,-553.78 1962.18,-480.52 1896,-412 1887.08,-402.76 1677.64,-406.24 1665,-404 1632.33,-398.22 1596.94,-386.83 1569.07,-376.6"/>
<polygon fill="black" stroke="black" points="1570.41,-373.36 1559.81,-373.13 1567.95,-379.92 1570.41,-373.36"/>
</g>
<!-- pool_u64::total_coins -->
<g id="node15" class="node">
<title>pool_u64::total_coins</title>
<ellipse fill="none" stroke="black" cx="1778" cy="-577" rx="49.29" ry="18"/>
<text text-anchor="middle" x="1778" y="-573.3" font-family="Times,serif" font-size="14.00">total_coins</text>
</g>
<!-- update_distribution_pool&#45;&gt;pool_u64::total_coins -->
<g id="edge14" class="edge">
<title>update_distribution_pool&#45;&gt;pool_u64::total_coins</title>
<path fill="none" stroke="black" d="M1778,-633.7C1778,-625.67 1778,-615.9 1778,-606.8"/>
<polygon fill="black" stroke="black" points="1781.5,-606.94 1778,-596.94 1774.5,-606.94 1781.5,-606.94"/>
</g>
<!-- pool_u64::shareholders -->
<g id="node16" class="node">
<title>pool_u64::shareholders</title>
<ellipse fill="none" stroke="black" cx="1655" cy="-577" rx="55.49" ry="18"/>
<text text-anchor="middle" x="1655" y="-573.3" font-family="Times,serif" font-size="14.00">shareholders</text>
</g>
<!-- update_distribution_pool&#45;&gt;pool_u64::shareholders -->
<g id="edge15" class="edge">
<title>update_distribution_pool&#45;&gt;pool_u64::shareholders</title>
<path fill="none" stroke="black" d="M1737.79,-635.1C1731.71,-632.29 1725.61,-629.22 1720,-626 1707.36,-618.74 1694.27,-609.46 1683.18,-601.01"/>
<polygon fill="black" stroke="black" points="1685.63,-598.47 1675.59,-595.09 1681.32,-603.99 1685.63,-598.47"/>
</g>
<!-- pool_u64::shares -->
<g id="node17" class="node">
<title>pool_u64::shares</title>
<ellipse fill="none" stroke="black" cx="1621" cy="-430" rx="32.49" ry="18"/>
<text text-anchor="middle" x="1621" y="-426.3" font-family="Times,serif" font-size="14.00">shares</text>
</g>
<!-- update_distribution_pool&#45;&gt;pool_u64::shares -->
<g id="edge16" class="edge">
<title>update_distribution_pool&#45;&gt;pool_u64::shares</title>
<path fill="none" stroke="black" d="M1840.77,-637.75C1845.83,-634.61 1850.38,-630.75 1854,-626 1891.45,-576.82 1901.36,-532.02 1859,-487 1849.01,-476.38 1742.16,-482.49 1728,-479 1701.57,-472.49 1673.56,-459.69 1652.83,-448.94"/>
<polygon fill="black" stroke="black" points="1654.51,-445.87 1644.04,-444.27 1651.22,-452.05 1654.51,-445.87"/>
</g>
<!-- pool_u64::shares_to_amount_with_total_coins -->
<g id="node18" class="node">
<title>pool_u64::shares_to_amount_with_total_coins</title>
<ellipse fill="none" stroke="black" cx="1812" cy="-355" rx="137.58" ry="18"/>
<text text-anchor="middle" x="1812" y="-351.3" font-family="Times,serif" font-size="14.00">shares_to_amount_with_total_coins</text>
</g>
<!-- update_distribution_pool&#45;&gt;pool_u64::shares_to_amount_with_total_coins -->
<g id="edge17" class="edge">
<title>update_distribution_pool&#45;&gt;pool_u64::shares_to_amount_with_total_coins</title>
<path fill="none" stroke="black" d="M1873.73,-647.29C1905.34,-643.9 1935,-637.61 1945,-626 2007.08,-553.94 1997.61,-491.24 1945,-412 1933.66,-394.92 1915.97,-383.03 1897.16,-374.77"/>
<polygon fill="black" stroke="black" points="1898.62,-371.58 1888.03,-371.11 1896.01,-378.08 1898.62,-371.58"/>
</g>
<!-- pool_u64::transfer_shares -->
<g id="node19" class="node">
<title>pool_u64::transfer_shares</title>
<ellipse fill="none" stroke="black" cx="1518" cy="-577" rx="63.89" ry="18"/>
<text text-anchor="middle" x="1518" y="-573.3" font-family="Times,serif" font-size="14.00">transfer_shares</text>
</g>
<!-- update_distribution_pool&#45;&gt;pool_u64::transfer_shares -->
<g id="edge18" class="edge">
<title>update_distribution_pool&#45;&gt;pool_u64::transfer_shares</title>
<path fill="none" stroke="black" d="M1683.25,-646.63C1653.07,-643.06 1620,-636.82 1591,-626 1575.37,-620.17 1559.7,-610.49 1546.91,-601.34"/>
<polygon fill="black" stroke="black" points="1549.06,-598.58 1538.95,-595.43 1544.89,-604.2 1549.06,-598.58"/>
</g>
<!-- pool_u64::update_total_coins -->
<g id="node20" class="node">
<title>pool_u64::update_total_coins</title>
<ellipse fill="none" stroke="black" cx="1359" cy="-577" rx="77.19" ry="18"/>
<text text-anchor="middle" x="1359" y="-573.3" font-family="Times,serif" font-size="14.00">update_total_coins</text>
</g>
<!-- update_distribution_pool&#45;&gt;pool_u64::update_total_coins -->
<g id="edge19" class="edge">
<title>update_distribution_pool&#45;&gt;pool_u64::update_total_coins</title>
<path fill="none" stroke="black" d="M1681.09,-648.35C1598.85,-645.25 1487.61,-638.81 1445,-626 1426.33,-620.39 1407.23,-610.25 1391.79,-600.74"/>
<polygon fill="black" stroke="black" points="1393.8,-597.87 1383.48,-595.44 1390.03,-603.77 1393.8,-597.87"/>
</g>
<!-- stake::assert_stake_pool_exists&#45;&gt;error::invalid_argument -->
<g id="edge20" class="edge">
<title>stake::assert_stake_pool_exists&#45;&gt;error::invalid_argument</title>
<path fill="none" stroke="black" d="M284.64,-339.61C337.77,-325.36 418.91,-303.6 473.87,-288.86"/>
<polygon fill="black" stroke="black" points="474.62,-292.28 483.37,-286.31 472.81,-285.52 474.62,-292.28"/>
</g>
<!-- stake::stake_pool_exists -->
<g id="node21" class="node">
<title>stake::stake_pool_exists</title>
<ellipse fill="none" stroke="black" cx="231" cy="-272" rx="73.39" ry="18"/>
<text text-anchor="middle" x="231" y="-268.3" font-family="Times,serif" font-size="14.00">stake_pool_exists</text>
</g>
<!-- stake::assert_stake_pool_exists&#45;&gt;stake::stake_pool_exists -->
<g id="edge21" class="edge">
<title>stake::assert_stake_pool_exists&#45;&gt;stake::stake_pool_exists</title>
<path fill="none" stroke="black" d="M231,-336.82C231,-326.69 231,-313.6 231,-301.92"/>
<polygon fill="black" stroke="black" points="234.5,-301.95 231,-291.95 227.5,-301.95 234.5,-301.95"/>
</g>
<!-- error::canonical -->
<g id="node22" class="node">
<title>error::canonical</title>
<ellipse fill="none" stroke="black" cx="606" cy="-189" rx="44.39" ry="18"/>
<text text-anchor="middle" x="606" y="-185.3" font-family="Times,serif" font-size="14.00">canonical</text>
</g>
<!-- error::invalid_argument&#45;&gt;error::canonical -->
<g id="edge22" class="edge">
<title>error::invalid_argument&#45;&gt;error::canonical</title>
<path fill="none" stroke="black" d="M548.13,-254.22C558.44,-242.77 572.27,-227.42 583.83,-214.6"/>
<polygon fill="black" stroke="black" points="586.28,-217.1 590.38,-207.33 581.08,-212.42 586.28,-217.1"/>
</g>
<!-- pool_u64::add_shares&#45;&gt;error::invalid_argument -->
<g id="edge23" class="edge">
<title>pool_u64::add_shares&#45;&gt;error::invalid_argument</title>
<path fill="none" stroke="black" d="M1281.63,-428.37C1137.47,-426.37 731.97,-419.4 708,-404 676.56,-383.81 700.34,-350.81 670,-329 649.94,-314.58 638.31,-329.17 615,-321 597.54,-314.88 579.65,-304.92 565.05,-295.65"/>
<polygon fill="black" stroke="black" points="567.06,-292.78 556.78,-290.23 563.22,-298.63 567.06,-292.78"/>
</g>
<!-- error::invalid_state -->
<g id="node23" class="node">
<title>error::invalid_state</title>
<ellipse fill="none" stroke="black" cx="680" cy="-272" rx="55.79" ry="18"/>
<text text-anchor="middle" x="680" y="-268.3" font-family="Times,serif" font-size="14.00">invalid_state</text>
</g>
<!-- pool_u64::add_shares&#45;&gt;error::invalid_state -->
<g id="edge24" class="edge">
<title>pool_u64::add_shares&#45;&gt;error::invalid_state</title>
<path fill="none" stroke="black" d="M1281.94,-428.21C1144.56,-425.88 770.33,-418.23 748,-404 745.56,-402.45 712.75,-337.94 693.61,-300.04"/>
<polygon fill="black" stroke="black" points="696.92,-298.83 689.29,-291.48 690.67,-301.99 696.92,-298.83"/>
</g>
<!-- simple_map::borrow_mut -->
<g id="node24" class="node">
<title>simple_map::borrow_mut</title>
<ellipse fill="none" stroke="black" cx="980" cy="-355" rx="54.69" ry="18"/>
<text text-anchor="middle" x="980" y="-351.3" font-family="Times,serif" font-size="14.00">borrow_mut</text>
</g>
<!-- pool_u64::add_shares&#45;&gt;simple_map::borrow_mut -->
<g id="edge25" class="edge">
<title>pool_u64::add_shares&#45;&gt;simple_map::borrow_mut</title>
<path fill="none" stroke="black" d="M1283.43,-424.87C1201.7,-417.9 1045.38,-404.53 1044,-404 1029.91,-398.62 1016.26,-389.16 1005.21,-380.06"/>
<polygon fill="black" stroke="black" points="1007.58,-377.48 997.73,-373.59 1003,-382.78 1007.58,-377.48"/>
</g>
<!-- simple_map::add -->
<g id="node25" class="node">
<title>simple_map::add</title>
<ellipse fill="none" stroke="black" cx="787" cy="-355" rx="27" ry="18"/>
<text text-anchor="middle" x="787" y="-351.3" font-family="Times,serif" font-size="14.00">add</text>
</g>
<!-- pool_u64::add_shares&#45;&gt;simple_map::add -->
<g id="edge26" class="edge">
<title>pool_u64::add_shares&#45;&gt;simple_map::add</title>
<path fill="none" stroke="black" d="M1281.57,-428.94C1160.94,-428.46 862.75,-425.11 823,-404 813.74,-399.08 806.2,-390.62 800.46,-382.15"/>
<polygon fill="black" stroke="black" points="803.51,-380.44 795.33,-373.72 797.53,-384.08 803.51,-380.44"/>
</g>
<!-- pool_u64::contains -->
<g id="node26" class="node">
<title>pool_u64::contains</title>
<ellipse fill="none" stroke="black" cx="1322" cy="-355" rx="40.09" ry="18"/>
<text text-anchor="middle" x="1322" y="-351.3" font-family="Times,serif" font-size="14.00">contains</text>
</g>
<!-- pool_u64::add_shares&#45;&gt;pool_u64::contains -->
<g id="edge27" class="edge">
<title>pool_u64::add_shares&#45;&gt;pool_u64::contains</title>
<path fill="none" stroke="black" d="M1329.63,-411.7C1328.53,-403.67 1327.19,-393.9 1325.95,-384.8"/>
<polygon fill="black" stroke="black" points="1329.42,-384.36 1324.59,-374.93 1322.48,-385.31 1329.42,-384.36"/>
</g>
<!-- pool_u64::amount_to_shares&#45;&gt;pool_u64::amount_to_shares_with_total_coins -->
<g id="edge28" class="edge">
<title>pool_u64::amount_to_shares&#45;&gt;pool_u64::amount_to_shares_with_total_coins</title>
<path fill="none" stroke="black" d="M1500.45,-411.7C1503.04,-403.49 1506.2,-393.46 1509.12,-384.19"/>
<polygon fill="black" stroke="black" points="1512.39,-385.46 1512.05,-374.87 1505.71,-383.36 1512.39,-385.46"/>
</g>
<!-- pool_u64::balance&#45;&gt;pool_u64::shares -->
<g id="edge29" class="edge">
<title>pool_u64::balance&#45;&gt;pool_u64::shares</title>
<path fill="none" stroke="black" d="M1779.36,-495.37C1763.67,-490.95 1744.69,-485.2 1728,-479 1702.97,-469.71 1675.5,-457.34 1654.67,-447.49"/>
<polygon fill="black" stroke="black" points="1656.32,-444.4 1645.79,-443.24 1653.3,-450.71 1656.32,-444.4"/>
</g>
<!-- pool_u64::shares_to_amount -->
<g id="node27" class="node">
<title>pool_u64::shares_to_amount</title>
<ellipse fill="none" stroke="black" cx="1812" cy="-430" rx="75.29" ry="18"/>
<text text-anchor="middle" x="1812" y="-426.3" font-family="Times,serif" font-size="14.00">shares_to_amount</text>
</g>
<!-- pool_u64::balance&#45;&gt;pool_u64::shares_to_amount -->
<g id="edge30" class="edge">
<title>pool_u64::balance&#45;&gt;pool_u64::shares_to_amount</title>
<path fill="none" stroke="black" d="M1812,-486.7C1812,-478.67 1812,-468.9 1812,-459.8"/>
<polygon fill="black" stroke="black" points="1815.5,-459.94 1812,-449.94 1808.5,-459.94 1815.5,-459.94"/>
</g>
<!-- pool_u64::multiply_then_divide -->
<g id="node28" class="node">
<title>pool_u64::multiply_then_divide</title>
<ellipse fill="none" stroke="black" cx="1665" cy="-272" rx="87.18" ry="18"/>
<text text-anchor="middle" x="1665" y="-268.3" font-family="Times,serif" font-size="14.00">multiply_then_divide</text>
</g>
<!-- pool_u64::amount_to_shares_with_total_coins&#45;&gt;pool_u64::multiply_then_divide -->
<g id="edge31" class="edge">
<title>pool_u64::amount_to_shares_with_total_coins&#45;&gt;pool_u64::multiply_then_divide</title>
<path fill="none" stroke="black" d="M1548.82,-337.02C1571.14,-324.72 1601.49,-307.99 1625.58,-294.72"/>
<polygon fill="black" stroke="black" points="1627.08,-297.89 1634.15,-290 1623.71,-291.76 1627.08,-297.89"/>
</g>
<!-- pool_u64::shares&#45;&gt;pool_u64::contains -->
<g id="edge33" class="edge">
<title>pool_u64::shares&#45;&gt;pool_u64::contains</title>
<path fill="none" stroke="black" d="M1597.02,-417.64C1591.24,-415.37 1585,-413.29 1579,-412 1556.39,-407.14 1392.24,-413.15 1371,-404 1359.52,-399.05 1349.21,-390.09 1341.05,-381.24"/>
<polygon fill="black" stroke="black" points="1343.78,-379.04 1334.62,-373.72 1338.46,-383.6 1343.78,-379.04"/>
</g>
<!-- simple_map::borrow -->
<g id="node29" class="node">
<title>simple_map::borrow</title>
<ellipse fill="none" stroke="black" cx="1089" cy="-355" rx="36.29" ry="18"/>
<text text-anchor="middle" x="1089" y="-351.3" font-family="Times,serif" font-size="14.00">borrow</text>
</g>
<!-- pool_u64::shares&#45;&gt;simple_map::borrow -->
<g id="edge32" class="edge">
<title>pool_u64::shares&#45;&gt;simple_map::borrow</title>
<path fill="none" stroke="black" d="M1597.04,-417.55C1591.26,-415.28 1585.01,-413.23 1579,-412 1554.83,-407.07 1157.6,-413.89 1135,-404 1124.01,-399.19 1114.37,-390.38 1106.78,-381.61"/>
<polygon fill="black" stroke="black" points="1109.56,-379.48 1100.6,-373.83 1104.08,-383.84 1109.56,-379.48"/>
</g>
<!-- pool_u64::shares_to_amount_with_total_coins&#45;&gt;pool_u64::multiply_then_divide -->
<g id="edge34" class="edge">
<title>pool_u64::shares_to_amount_with_total_coins&#45;&gt;pool_u64::multiply_then_divide</title>
<path fill="none" stroke="black" d="M1781.18,-337.02C1758.86,-324.72 1728.51,-307.99 1704.42,-294.72"/>
<polygon fill="black" stroke="black" points="1706.29,-291.76 1695.85,-290 1702.92,-297.89 1706.29,-291.76"/>
</g>
<!-- pool_u64::transfer_shares&#45;&gt;error::invalid_argument -->
<g id="edge35" class="edge">
<title>pool_u64::transfer_shares&#45;&gt;error::invalid_argument</title>
<path fill="none" stroke="black" d="M1482.09,-561.79C1470.43,-557.7 1457.32,-553.63 1445,-551 1098.46,-477.07 977.24,-617.29 651,-479 604,-459.08 590.5,-447.63 564,-404 544.76,-372.33 537.46,-329.65 534.69,-301.73"/>
<polygon fill="black" stroke="black" points="538.19,-301.58 533.87,-291.9 531.22,-302.16 538.19,-301.58"/>
</g>
<!-- pool_u64::transfer_shares&#45;&gt;pool_u64::add_shares -->
<g id="edge37" class="edge">
<title>pool_u64::transfer_shares&#45;&gt;pool_u64::add_shares</title>
<path fill="none" stroke="black" d="M1520.03,-558.67C1521.35,-538.26 1519.96,-504.88 1500,-487 1485.21,-473.75 1429.86,-485.21 1411,-479 1393.41,-473.21 1375.63,-462.89 1361.4,-453.3"/>
<polygon fill="black" stroke="black" points="1363.61,-450.57 1353.41,-447.71 1359.6,-456.31 1363.61,-450.57"/>
</g>
<!-- pool_u64::transfer_shares&#45;&gt;pool_u64::shares -->
<g id="edge39" class="edge">
<title>pool_u64::transfer_shares&#45;&gt;pool_u64::shares</title>
<path fill="none" stroke="black" d="M1530.02,-559.08C1548.04,-533.71 1582.18,-485.65 1603.13,-456.15"/>
<polygon fill="black" stroke="black" points="1605.87,-458.34 1608.81,-448.16 1600.17,-454.28 1605.87,-458.34"/>
</g>
<!-- pool_u64::transfer_shares&#45;&gt;pool_u64::contains -->
<g id="edge36" class="edge">
<title>pool_u64::transfer_shares&#45;&gt;pool_u64::contains</title>
<path fill="none" stroke="black" d="M1556.31,-562.3C1590.96,-547.62 1639.84,-520.65 1662,-479 1675.99,-452.71 1682.76,-433.34 1662,-412 1650.72,-400.41 1385.89,-410.32 1371,-404 1359.49,-399.12 1349.18,-390.16 1341.02,-381.3"/>
<polygon fill="black" stroke="black" points="1343.75,-379.11 1334.59,-373.77 1338.42,-383.65 1343.75,-379.11"/>
</g>
<!-- pool_u64::deduct_shares -->
<g id="node30" class="node">
<title>pool_u64::deduct_shares</title>
<ellipse fill="none" stroke="black" cx="1342" cy="-505" rx="60.39" ry="18"/>
<text text-anchor="middle" x="1342" y="-501.3" font-family="Times,serif" font-size="14.00">deduct_shares</text>
</g>
<!-- pool_u64::transfer_shares&#45;&gt;pool_u64::deduct_shares -->
<g id="edge38" class="edge">
<title>pool_u64::transfer_shares&#45;&gt;pool_u64::deduct_shares</title>
<path fill="none" stroke="black" d="M1482.38,-561.83C1455.1,-550.98 1417.25,-535.93 1387.73,-524.19"/>
<polygon fill="black" stroke="black" points="1389.25,-521.03 1378.67,-520.58 1386.67,-527.53 1389.25,-521.03"/>
</g>
<!-- error::invalid_state&#45;&gt;error::canonical -->
<g id="edge40" class="edge">
<title>error::invalid_state&#45;&gt;error::canonical</title>
<path fill="none" stroke="black" d="M664.67,-254.22C654.21,-242.77 640.19,-227.42 628.48,-214.6"/>
<polygon fill="black" stroke="black" points="631.16,-212.35 621.83,-207.33 625.99,-217.07 631.16,-212.35"/>
</g>
<!-- simple_map::borrow_mut&#45;&gt;error::invalid_argument -->
<g id="edge43" class="edge">
<title>simple_map::borrow_mut&#45;&gt;error::invalid_argument</title>
<path fill="none" stroke="black" d="M949.9,-339.57C939.69,-335.35 928.07,-331.27 917,-329 851.23,-315.52 679.56,-339.43 615,-321 596.65,-315.76 578.15,-305.46 563.37,-295.74"/>
<polygon fill="black" stroke="black" points="565.71,-293.1 555.48,-290.35 561.76,-298.88 565.71,-293.1"/>
</g>
<!-- option::extract -->
<g id="node31" class="node">
<title>option::extract</title>
<ellipse fill="none" stroke="black" cx="1071" cy="-189" rx="34.39" ry="18"/>
<text text-anchor="middle" x="1071" y="-185.3" font-family="Times,serif" font-size="14.00">extract</text>
</g>
<!-- simple_map::borrow_mut&#45;&gt;option::extract -->
<g id="edge41" class="edge">
<title>simple_map::borrow_mut&#45;&gt;option::extract</title>
<path fill="none" stroke="black" d="M994.8,-337.44C999,-332.35 1003.4,-326.61 1007,-321 1028.85,-286.91 1048.38,-244.28 1059.96,-217.09"/>
<polygon fill="black" stroke="black" points="1063.06,-218.76 1063.7,-208.18 1056.6,-216.05 1063.06,-218.76"/>
</g>
<!-- option::is_some -->
<g id="node32" class="node">
<title>option::is_some</title>
<ellipse fill="none" stroke="black" cx="1065" cy="-106" rx="40.09" ry="18"/>
<text text-anchor="middle" x="1065" y="-102.3" font-family="Times,serif" font-size="14.00">is_some</text>
</g>
<!-- simple_map::borrow_mut&#45;&gt;option::is_some -->
<g id="edge42" class="edge">
<title>simple_map::borrow_mut&#45;&gt;option::is_some</title>
<path fill="none" stroke="black" d="M1016.38,-341.18C1057.14,-324.57 1120.91,-291.26 1147,-238 1161.66,-208.07 1162.56,-192.48 1147,-163 1137.87,-145.7 1120.72,-132.74 1104.46,-123.67"/>
<polygon fill="black" stroke="black" points="1106.37,-120.71 1095.88,-119.21 1103.14,-126.92 1106.37,-120.71"/>
</g>
<!-- simple_map::find -->
<g id="node33" class="node">
<title>simple_map::find</title>
<ellipse fill="none" stroke="black" cx="894" cy="-272" rx="27" ry="18"/>
<text text-anchor="middle" x="894" y="-268.3" font-family="Times,serif" font-size="14.00">find</text>
</g>
<!-- simple_map::borrow_mut&#45;&gt;simple_map::find -->
<g id="edge44" class="edge">
<title>simple_map::borrow_mut&#45;&gt;simple_map::find</title>
<path fill="none" stroke="black" d="M962.6,-337.61C949.59,-325.36 931.67,-308.48 917.41,-295.05"/>
<polygon fill="black" stroke="black" points="919.86,-292.55 910.18,-288.24 915.06,-297.64 919.86,-292.55"/>
</g>
<!-- simple_map::add&#45;&gt;error::invalid_argument -->
<g id="edge46" class="edge">
<title>simple_map::add&#45;&gt;error::invalid_argument</title>
<path fill="none" stroke="black" d="M763.85,-345.18C748.29,-339.63 727.19,-332.81 708,-329 667.31,-320.91 654.54,-333.56 615,-321 597.25,-315.36 579.2,-305.35 564.57,-295.93"/>
<polygon fill="black" stroke="black" points="566.55,-293.05 556.29,-290.4 562.66,-298.87 566.55,-293.05"/>
</g>
<!-- simple_map::add&#45;&gt;simple_map::find -->
<g id="edge47" class="edge">
<title>simple_map::add&#45;&gt;simple_map::find</title>
<path fill="none" stroke="black" d="M804.19,-340.99C821.25,-328.07 847.63,-308.1 867.4,-293.14"/>
<polygon fill="black" stroke="black" points="869.43,-295.99 875.29,-287.16 865.2,-290.41 869.43,-295.99"/>
</g>
<!-- option::is_none -->
<g id="node34" class="node">
<title>option::is_none</title>
<ellipse fill="none" stroke="black" cx="980" cy="-189" rx="38.19" ry="18"/>
<text text-anchor="middle" x="980" y="-185.3" font-family="Times,serif" font-size="14.00">is_none</text>
</g>
<!-- simple_map::add&#45;&gt;option::is_none -->
<g id="edge45" class="edge">
<title>simple_map::add&#45;&gt;option::is_none</title>
<path fill="none" stroke="black" d="M802.82,-340.3C808.77,-335.91 815.83,-331.54 823,-329 845.47,-321.03 910.88,-335.25 930,-321 962.22,-296.99 973.68,-249.47 977.75,-218.74"/>
<polygon fill="black" stroke="black" points="981.21,-219.32 978.85,-209 974.25,-218.54 981.21,-219.32"/>
</g>
<!-- simple_map::contains_key -->
<g id="node35" class="node">
<title>simple_map::contains_key</title>
<ellipse fill="none" stroke="black" cx="1201" cy="-355" rx="57.39" ry="18"/>
<text text-anchor="middle" x="1201" y="-351.3" font-family="Times,serif" font-size="14.00">contains_key</text>
</g>
<!-- pool_u64::contains&#45;&gt;simple_map::contains_key -->
<g id="edge48" class="edge">
<title>pool_u64::contains&#45;&gt;simple_map::contains_key</title>
<path fill="none" stroke="black" d="M1281.43,-355C1277.63,-355 1273.84,-355 1270.04,-355"/>
<polygon fill="black" stroke="black" points="1270.18,-351.5 1260.18,-355 1270.18,-358.5 1270.18,-351.5"/>
</g>
<!-- pool_u64::shares_to_amount&#45;&gt;pool_u64::shares_to_amount_with_total_coins -->
<g id="edge49" class="edge">
<title>pool_u64::shares_to_amount&#45;&gt;pool_u64::shares_to_amount_with_total_coins</title>
<path fill="none" stroke="black" d="M1812,-411.7C1812,-403.67 1812,-393.9 1812,-384.8"/>
<polygon fill="black" stroke="black" points="1815.5,-384.94 1812,-374.94 1808.5,-384.94 1815.5,-384.94"/>
</g>
<!-- pool_u64::to_u128 -->
<g id="node36" class="node">
<title>pool_u64::to_u128</title>
<ellipse fill="none" stroke="black" cx="1665" cy="-189" rx="39.79" ry="18"/>
<text text-anchor="middle" x="1665" y="-185.3" font-family="Times,serif" font-size="14.00">to_u128</text>
</g>
<!-- pool_u64::multiply_then_divide&#45;&gt;pool_u64::to_u128 -->
<g id="edge50" class="edge">
<title>pool_u64::multiply_then_divide&#45;&gt;pool_u64::to_u128</title>
<path fill="none" stroke="black" d="M1665,-253.82C1665,-243.69 1665,-230.6 1665,-218.92"/>
<polygon fill="black" stroke="black" points="1668.5,-218.95 1665,-208.95 1661.5,-218.95 1668.5,-218.95"/>
</g>
<!-- simple_map::borrow&#45;&gt;error::invalid_argument -->
<g id="edge53" class="edge">
<title>simple_map::borrow&#45;&gt;error::invalid_argument</title>
<path fill="none" stroke="black" d="M1068.4,-339.79C1061.03,-335.47 1052.46,-331.28 1044,-329 997.96,-316.61 660.89,-333.91 615,-321 596.63,-315.84 578.12,-305.54 563.35,-295.8"/>
<polygon fill="black" stroke="black" points="565.7,-293.17 555.47,-290.4 561.74,-298.94 565.7,-293.17"/>
</g>
<!-- simple_map::borrow&#45;&gt;option::extract -->
<g id="edge51" class="edge">
<title>simple_map::borrow&#45;&gt;option::extract</title>
<path fill="none" stroke="black" d="M1089.46,-336.69C1089.78,-315.28 1089.51,-277.77 1085,-246 1083.69,-236.76 1081.48,-226.82 1079.19,-217.93"/>
<polygon fill="black" stroke="black" points="1082.62,-217.17 1076.62,-208.43 1075.86,-219 1082.62,-217.17"/>
</g>
<!-- simple_map::borrow&#45;&gt;option::is_some -->
<g id="edge52" class="edge">
<title>simple_map::borrow&#45;&gt;option::is_some</title>
<path fill="none" stroke="black" d="M1110.77,-340.21C1118.21,-336.03 1126.74,-331.81 1135,-329 1145.65,-325.37 1177.7,-329.56 1185,-321 1230.56,-267.57 1222.72,-222.23 1185,-163 1169.17,-138.14 1139.1,-124.14 1113.03,-116.35"/>
<polygon fill="black" stroke="black" points="1114.18,-113.04 1103.61,-113.78 1112.34,-119.79 1114.18,-113.04"/>
</g>
<!-- simple_map::borrow&#45;&gt;simple_map::find -->
<g id="edge54" class="edge">
<title>simple_map::borrow&#45;&gt;simple_map::find</title>
<path fill="none" stroke="black" d="M1066.45,-340.61C1059.38,-336.64 1051.47,-332.44 1044,-329 1005.45,-311.22 959.5,-294.72 928.71,-284.3"/>
<polygon fill="black" stroke="black" points="930.12,-281.08 919.53,-281.23 927.9,-287.72 930.12,-281.08"/>
</g>
<!-- pool_u64::deduct_shares&#45;&gt;error::invalid_argument -->
<g id="edge57" class="edge">
<title>pool_u64::deduct_shares&#45;&gt;error::invalid_argument</title>
<path fill="none" stroke="black" d="M1281.51,-504.13C1200.01,-503.46 1050.67,-499.21 925,-479 796.53,-458.34 751.69,-473.99 642,-404 600.28,-377.38 566.54,-329.62 548.17,-299.71"/>
<polygon fill="black" stroke="black" points="551.24,-298.02 543.1,-291.23 545.23,-301.61 551.24,-298.02"/>
</g>
<!-- pool_u64::deduct_shares&#45;&gt;pool_u64::shares -->
<g id="edge61" class="edge">
<title>pool_u64::deduct_shares&#45;&gt;pool_u64::shares</title>
<path fill="none" stroke="black" d="M1385.44,-492.09C1394.18,-490.08 1403.34,-488.25 1412,-487 1430.39,-484.35 1562.27,-487.08 1579,-479 1589.25,-474.05 1598.04,-465.33 1604.89,-456.67"/>
<polygon fill="black" stroke="black" points="1607.63,-458.86 1610.66,-448.71 1601.96,-454.76 1607.63,-458.86"/>
</g>
<!-- pool_u64::deduct_shares&#45;&gt;simple_map::borrow_mut -->
<g id="edge58" class="edge">
<title>pool_u64::deduct_shares&#45;&gt;simple_map::borrow_mut</title>
<path fill="none" stroke="black" d="M1295.22,-493.25C1234.9,-478.31 1127.82,-448.03 1044,-404 1031.13,-397.24 1018.08,-387.98 1007.15,-379.4"/>
<polygon fill="black" stroke="black" points="1009.68,-376.94 999.7,-373.37 1005.28,-382.38 1009.68,-376.94"/>
</g>
<!-- pool_u64::deduct_shares&#45;&gt;pool_u64::contains -->
<g id="edge60" class="edge">
<title>pool_u64::deduct_shares&#45;&gt;pool_u64::contains</title>
<path fill="none" stroke="black" d="M1379.4,-490.75C1384.01,-487.59 1388.11,-483.72 1391,-479 1406.55,-453.61 1407.69,-436.66 1391,-412 1385.63,-404.07 1379.02,-409.23 1371,-404 1361.08,-397.53 1351.47,-388.84 1343.43,-380.64"/>
<polygon fill="black" stroke="black" points="1346.1,-378.37 1336.71,-373.48 1341,-383.16 1346.1,-378.37"/>
</g>
<!-- vector::index_of -->
<g id="node37" class="node">
<title>vector::index_of</title>
<ellipse fill="none" stroke="black" cx="389" cy="-106" rx="42.49" ry="18"/>
<text text-anchor="middle" x="389" y="-102.3" font-family="Times,serif" font-size="14.00">index_of</text>
</g>
<!-- pool_u64::deduct_shares&#45;&gt;vector::index_of -->
<g id="edge55" class="edge">
<title>pool_u64::deduct_shares&#45;&gt;vector::index_of</title>
<path fill="none" stroke="black" d="M1282.19,-502.28C1174,-499.18 938.58,-492.47 740,-487 723.44,-486.54 455.55,-488.53 442,-479 394,-445.25 394,-414.68 394,-356 394,-356 394,-356 394,-271 394,-223.51 391.88,-168.33 390.4,-135.61"/>
<polygon fill="black" stroke="black" points="393.9,-135.57 389.94,-125.74 386.91,-135.9 393.9,-135.57"/>
</g>
<!-- vector::remove -->
<g id="node38" class="node">
<title>vector::remove</title>
<ellipse fill="none" stroke="black" cx="487" cy="-106" rx="37.89" ry="18"/>
<text text-anchor="middle" x="487" y="-102.3" font-family="Times,serif" font-size="14.00">remove</text>
</g>
<!-- pool_u64::deduct_shares&#45;&gt;vector::remove -->
<g id="edge56" class="edge">
<title>pool_u64::deduct_shares&#45;&gt;vector::remove</title>
<path fill="none" stroke="black" d="M1281.69,-502.59C1118.96,-498.68 681.07,-487.45 651,-479 543.53,-448.8 432,-467.63 432,-356 432,-356 432,-356 432,-271 432,-222.48 430.11,-208.1 448,-163 452.35,-152.05 459.2,-141.15 465.96,-131.92"/>
<polygon fill="black" stroke="black" points="468.6,-134.23 471.93,-124.18 463.06,-129.96 468.6,-134.23"/>
</g>
<!-- simple_map::remove -->
<g id="node39" class="node">
<title>simple_map::remove</title>
<ellipse fill="none" stroke="black" cx="870" cy="-355" rx="37.89" ry="18"/>
<text text-anchor="middle" x="870" y="-351.3" font-family="Times,serif" font-size="14.00">remove</text>
</g>
<!-- pool_u64::deduct_shares&#45;&gt;simple_map::remove -->
<g id="edge59" class="edge">
<title>pool_u64::deduct_shares&#45;&gt;simple_map::remove</title>
<path fill="none" stroke="black" d="M1282.54,-501.37C1212.9,-497.82 1101.96,-490.57 1062,-479 991.93,-458.71 974.49,-447.6 916,-404 906.89,-397.21 897.99,-388.55 890.48,-380.46"/>
<polygon fill="black" stroke="black" points="893.22,-378.27 883.94,-373.14 888,-382.93 893.22,-378.27"/>
</g>
<!-- option::extract&#45;&gt;option::is_some -->
<g id="edge62" class="edge">
<title>option::extract&#45;&gt;option::is_some</title>
<path fill="none" stroke="black" d="M1069.73,-170.82C1068.97,-160.58 1067.99,-147.33 1067.11,-135.55"/>
<polygon fill="black" stroke="black" points="1070.63,-135.66 1066.4,-125.94 1063.65,-136.17 1070.63,-135.66"/>
</g>
<!-- vector::is_empty -->
<g id="node40" class="node">
<title>vector::is_empty</title>
<ellipse fill="none" stroke="black" cx="722" cy="-34" rx="43.59" ry="18"/>
<text text-anchor="middle" x="722" y="-30.3" font-family="Times,serif" font-size="14.00">is_empty</text>
</g>
<!-- option::is_some&#45;&gt;vector::is_empty -->
<g id="edge63" class="edge">
<title>option::is_some&#45;&gt;vector::is_empty</title>
<path fill="none" stroke="black" d="M1028.94,-97.64C967.27,-85.06 841.45,-59.38 771.57,-45.12"/>
<polygon fill="black" stroke="black" points="772.42,-41.72 761.93,-43.15 771.02,-48.58 772.42,-41.72"/>
</g>
<!-- option::none -->
<g id="node41" class="node">
<title>option::none</title>
<ellipse fill="none" stroke="black" cx="818" cy="-189" rx="27.9" ry="18"/>
<text text-anchor="middle" x="818" y="-185.3" font-family="Times,serif" font-size="14.00">none</text>
</g>
<!-- simple_map::find&#45;&gt;option::none -->
<g id="edge64" class="edge">
<title>simple_map::find&#45;&gt;option::none</title>
<path fill="none" stroke="black" d="M876.99,-257.93C869.89,-252.14 861.74,-245.05 855,-238 848.25,-230.94 841.54,-222.69 835.71,-215.04"/>
<polygon fill="black" stroke="black" points="838.54,-212.98 829.78,-207.02 832.92,-217.14 838.54,-212.98"/>
</g>
<!-- option::some -->
<g id="node42" class="node">
<title>option::some</title>
<ellipse fill="none" stroke="black" cx="894" cy="-189" rx="29.8" ry="18"/>
<text text-anchor="middle" x="894" y="-185.3" font-family="Times,serif" font-size="14.00">some</text>
</g>
<!-- simple_map::find&#45;&gt;option::some -->
<g id="edge65" class="edge">
<title>simple_map::find&#45;&gt;option::some</title>
<path fill="none" stroke="black" d="M894,-253.82C894,-243.69 894,-230.6 894,-218.92"/>
<polygon fill="black" stroke="black" points="897.5,-218.95 894,-208.95 890.5,-218.95 897.5,-218.95"/>
</g>
<!-- option::is_none&#45;&gt;vector::is_empty -->
<g id="edge66" class="edge">
<title>option::is_none&#45;&gt;vector::is_empty</title>
<path fill="none" stroke="black" d="M957.1,-174.42C911.46,-147.35 808.93,-86.55 755.63,-54.94"/>
<polygon fill="black" stroke="black" points="757.65,-52.07 747.27,-49.98 754.08,-58.09 757.65,-52.07"/>
</g>
<!-- simple_map::contains_key&#45;&gt;option::is_some -->
<g id="edge67" class="edge">
<title>simple_map::contains_key&#45;&gt;option::is_some</title>
<path fill="none" stroke="black" d="M1208.69,-336.82C1223.48,-300.92 1251.27,-216.83 1214,-163 1192.02,-131.26 1149.66,-117.48 1115.7,-111.52"/>
<polygon fill="black" stroke="black" points="1116.47,-108.1 1106.05,-110.01 1115.39,-115.01 1116.47,-108.1"/>
</g>
<!-- simple_map::contains_key&#45;&gt;simple_map::find -->
<g id="edge68" class="edge">
<title>simple_map::contains_key&#45;&gt;simple_map::find</title>
<path fill="none" stroke="black" d="M1166.51,-340.17C1156.15,-336.28 1144.7,-332.23 1134,-329 1063.2,-307.63 978.59,-289.59 931.1,-280.12"/>
<polygon fill="black" stroke="black" points="931.83,-276.7 921.34,-278.2 930.48,-283.57 931.83,-276.7"/>
</g>
<!-- simple_map::remove&#45;&gt;error::invalid_argument -->
<g id="edge72" class="edge">
<title>simple_map::remove&#45;&gt;error::invalid_argument</title>
<path fill="none" stroke="black" d="M848.38,-339.88C840.68,-335.58 831.74,-331.36 823,-329 778.34,-316.95 659.4,-333.96 615,-321 596.81,-315.69 578.44,-305.49 563.71,-295.85"/>
<polygon fill="black" stroke="black" points="566.09,-293.23 555.85,-290.5 562.15,-299.02 566.09,-293.23"/>
</g>
<!-- simple_map::remove&#45;&gt;option::extract -->
<g id="edge70" class="edge">
<title>simple_map::remove&#45;&gt;option::extract</title>
<path fill="none" stroke="black" d="M892.24,-339.96C899.57,-335.87 907.92,-331.77 916,-329 936.88,-321.85 946.24,-332.61 965,-321 999.92,-299.38 992.39,-277.29 1019,-246 1022.26,-242.17 1023.52,-241.63 1027,-238 1034.46,-230.2 1042.48,-221.55 1049.6,-213.76"/>
<polygon fill="black" stroke="black" points="1051.75,-216.6 1055.88,-206.84 1046.57,-211.89 1051.75,-216.6"/>
</g>
<!-- simple_map::remove&#45;&gt;option::is_some -->
<g id="edge71" class="edge">
<title>simple_map::remove&#45;&gt;option::is_some</title>
<path fill="none" stroke="black" d="M891.66,-339.87C899.09,-335.67 907.65,-331.52 916,-329 935.22,-323.2 988.69,-331.17 1006,-321 1040.76,-300.58 1022.77,-267.29 1057,-246 1078.72,-232.49 1097.22,-257.31 1114,-238 1135.87,-212.85 1125.72,-194.2 1114,-163 1109.37,-150.69 1100.67,-139.31 1091.88,-130.07"/>
<polygon fill="black" stroke="black" points="1094.55,-127.79 1084.96,-123.28 1089.64,-132.78 1094.55,-127.79"/>
</g>
<!-- simple_map::remove&#45;&gt;simple_map::find -->
<g id="edge73" class="edge">
<title>simple_map::remove&#45;&gt;simple_map::find</title>
<path fill="none" stroke="black" d="M875.09,-336.82C878.18,-326.41 882.19,-312.87 885.72,-300.94"/>
<polygon fill="black" stroke="black" points="889,-302.19 888.49,-291.6 882.29,-300.2 889,-302.19"/>
</g>
<!-- vector::swap_remove -->
<g id="node43" class="node">
<title>vector::swap_remove</title>
<ellipse fill="none" stroke="black" cx="602" cy="-106" rx="59.59" ry="18"/>
<text text-anchor="middle" x="602" y="-102.3" font-family="Times,serif" font-size="14.00">swap_remove</text>
</g>
<!-- simple_map::remove&#45;&gt;vector::swap_remove -->
<g id="edge69" class="edge">
<title>simple_map::remove&#45;&gt;vector::swap_remove</title>
<path fill="none" stroke="black" d="M854.97,-338.2C835.27,-316.83 800.57,-276.91 778,-238 759.99,-206.94 776.65,-184.64 748,-163 734.27,-152.63 687.13,-160.99 671,-155 656,-149.43 641.18,-139.82 629.15,-130.66"/>
<polygon fill="black" stroke="black" points="631.34,-127.92 621.33,-124.43 626.98,-133.4 631.34,-127.92"/>
</g>
<!-- vector::singleton -->
<g id="node44" class="node">
<title>vector::singleton</title>
<ellipse fill="none" stroke="black" cx="723" cy="-106" rx="42.79" ry="18"/>
<text text-anchor="middle" x="723" y="-102.3" font-family="Times,serif" font-size="14.00">singleton</text>
</g>
<!-- option::some&#45;&gt;vector::singleton -->
<g id="edge74" class="edge">
<title>option::some&#45;&gt;vector::singleton</title>
<path fill="none" stroke="black" d="M876.27,-174.16C869.9,-169.88 862.44,-165.6 855,-163 822.53,-151.63 809.55,-168.73 778,-155 765.54,-149.58 753.88,-140.28 744.52,-131.31"/>
<polygon fill="black" stroke="black" points="747.19,-129.03 737.68,-124.35 742.2,-133.94 747.19,-129.03"/>
</g>
<!-- vector::swap_remove&#45;&gt;vector::is_empty -->
<g id="edge75" class="edge">
<title>vector::swap_remove&#45;&gt;vector::is_empty</title>
<path fill="none" stroke="black" d="M628.63,-89.46C645.99,-79.34 668.82,-66.02 687.56,-55.09"/>
<polygon fill="black" stroke="black" points="689.3,-58.12 696.18,-50.06 685.78,-52.08 689.3,-58.12"/>
</g>
</g>
</svg>
