<?xml version="1.0" encoding="UTF-8" standalone="no"?>
<!DOCTYPE svg PUBLIC "-//W3C//DTD SVG 1.1//EN"
 "http://www.w3.org/Graphics/SVG/1.1/DTD/svg11.dtd">
<!-- Generated by graphviz version 7.0.4 (20221203.1631)
 -->
<!-- Title: G Pages: 1 -->
<svg width="1058pt" height="290pt"
 viewBox="0.00 0.00 1058.49 290.00" xmlns="http://www.w3.org/2000/svg" xmlns:xlink="http://www.w3.org/1999/xlink">
<g id="graph0" class="graph" transform="scale(1 1) rotate(0) translate(4 286)">
<title>G</title>
<polygon fill="white" stroke="none" points="-4,4 -4,-286 1054.49,-286 1054.49,4 -4,4"/>
<g id="clust1" class="cluster">
<title>cluster_error</title>
<polygon fill="none" stroke="black" points="696,-8 696,-155 858,-155 858,-8 696,-8"/>
<text text-anchor="middle" x="777" y="-139.8" font-family="Times,serif" font-size="14.00">error</text>
</g>
<g id="clust2" class="cluster">
<title>cluster_event</title>
<polygon fill="none" stroke="black" points="8,-80 8,-238 194,-238 194,-80 8,-80"/>
<text text-anchor="middle" x="101" y="-222.8" font-family="Times,serif" font-size="14.00">event</text>
</g>
<g id="clust3" class="cluster">
<title>cluster_timestamp</title>
<polygon fill="none" stroke="black" points="306,-80 306,-238 480,-238 480,-80 306,-80"/>
<text text-anchor="middle" x="393" y="-222.8" font-family="Times,serif" font-size="14.00">timestamp</text>
</g>
<g id="clust4" class="cluster">
<title>cluster_staking_config</title>
<polygon fill="none" stroke="black" points="518,-163 518,-238 846,-238 846,-163 518,-163"/>
<text text-anchor="middle" x="682" y="-222.8" font-family="Times,serif" font-size="14.00">staking_config</text>
</g>
<g id="clust5" class="cluster">
<title>cluster_bcs</title>
<polygon fill="none" stroke="black" points="202,-80 202,-155 298,-155 298,-80 202,-80"/>
<text text-anchor="middle" x="250" y="-139.8" font-family="Times,serif" font-size="14.00">bcs</text>
</g>
<!-- increase_lockup_with_cap -->
<g id="node1" class="node">
<title>increase_lockup_with_cap</title>
<ellipse fill="none" stroke="black" cx="572" cy="-264" rx="104.78" ry="18"/>
<text text-anchor="middle" x="572" y="-260.3" font-family="Times,serif" font-size="14.00">increase_lockup_with_cap</text>
</g>
<!-- error::invalid_argument -->
<g id="node2" class="node">
<title>error::invalid_argument</title>
<ellipse fill="none" stroke="black" cx="777" cy="-106" rx="73.39" ry="18"/>
<text text-anchor="middle" x="777" y="-102.3" font-family="Times,serif" font-size="14.00">invalid_argument</text>
</g>
<!-- increase_lockup_with_cap&#45;&gt;error::invalid_argument -->
<g id="edge1" class="edge">
<title>increase_lockup_with_cap&#45;&gt;error::invalid_argument</title>
<path fill="none" stroke="black" d="M523.22,-247.67C519.64,-244.95 516.47,-241.76 514,-238 495.68,-210.15 493.03,-188.91 514,-163 536.68,-134.99 627.67,-120.39 696.33,-113.22"/>
<polygon fill="black" stroke="black" points="696.46,-116.73 706.06,-112.24 695.76,-109.76 696.46,-116.73"/>
</g>
<!-- event::emit_event -->
<g id="node3" class="node">
<title>event::emit_event</title>
<ellipse fill="none" stroke="black" cx="136" cy="-189" rx="50.09" ry="18"/>
<text text-anchor="middle" x="136" y="-185.3" font-family="Times,serif" font-size="14.00">emit_event</text>
</g>
<!-- increase_lockup_with_cap&#45;&gt;event::emit_event -->
<g id="edge2" class="edge">
<title>increase_lockup_with_cap&#45;&gt;event::emit_event</title>
<path fill="none" stroke="black" d="M471.99,-258.26C420.83,-254.7 357.74,-248.54 302,-238 260.69,-230.19 214.85,-216.54 181.83,-205.79"/>
<polygon fill="black" stroke="black" points="183.18,-202.55 172.59,-202.74 180.99,-209.2 183.18,-202.55"/>
</g>
<!-- timestamp::now_seconds -->
<g id="node4" class="node">
<title>timestamp::now_seconds</title>
<ellipse fill="none" stroke="black" cx="402" cy="-189" rx="57.69" ry="18"/>
<text text-anchor="middle" x="402" y="-185.3" font-family="Times,serif" font-size="14.00">now_seconds</text>
</g>
<!-- increase_lockup_with_cap&#45;&gt;timestamp::now_seconds -->
<g id="edge3" class="edge">
<title>increase_lockup_with_cap&#45;&gt;timestamp::now_seconds</title>
<path fill="none" stroke="black" d="M513.53,-248.64C503.52,-245.54 493.35,-241.99 484,-238 467.11,-230.8 449.41,-220.78 434.79,-211.76"/>
<polygon fill="black" stroke="black" points="436.81,-208.9 426.49,-206.53 433.08,-214.83 436.81,-208.9"/>
</g>
<!-- staking_config::get -->
<g id="node5" class="node">
<title>staking_config::get</title>
<ellipse fill="none" stroke="black" cx="811" cy="-189" rx="27" ry="18"/>
<text text-anchor="middle" x="811" y="-185.3" font-family="Times,serif" font-size="14.00">get</text>
</g>
<!-- increase_lockup_with_cap&#45;&gt;staking_config::get -->
<g id="edge4" class="edge">
<title>increase_lockup_with_cap&#45;&gt;staking_config::get</title>
<path fill="none" stroke="black" d="M671.47,-258.03C713.64,-254.45 757.14,-248.34 775,-238 783.94,-232.82 791.36,-224.45 797.09,-216.14"/>
<polygon fill="black" stroke="black" points="799.91,-218.22 802.23,-207.89 793.97,-214.52 799.91,-218.22"/>
</g>
<!-- staking_config::get_recurring_lockup_duration -->
<g id="node6" class="node">
<title>staking_config::get_recurring_lockup_duration</title>
<ellipse fill="none" stroke="black" cx="646" cy="-189" rx="120.48" ry="18"/>
<text text-anchor="middle" x="646" y="-185.3" font-family="Times,serif" font-size="14.00">get_recurring_lockup_duration</text>
</g>
<!-- increase_lockup_with_cap&#45;&gt;staking_config::get_recurring_lockup_duration -->
<g id="edge5" class="edge">
<title>increase_lockup_with_cap&#45;&gt;staking_config::get_recurring_lockup_duration</title>
<path fill="none" stroke="black" d="M589.16,-246.07C598.53,-236.83 610.3,-225.22 620.7,-214.96"/>
<polygon fill="black" stroke="black" points="622.94,-217.67 627.6,-208.16 618.02,-212.69 622.94,-217.67"/>
</g>
<!-- assert_stake_pool_exists -->
<g id="node7" class="node">
<title>assert_stake_pool_exists</title>
<ellipse fill="none" stroke="black" cx="953" cy="-189" rx="97.48" ry="18"/>
<text text-anchor="middle" x="953" y="-185.3" font-family="Times,serif" font-size="14.00">assert_stake_pool_exists</text>
</g>
<!-- increase_lockup_with_cap&#45;&gt;assert_stake_pool_exists -->
<g id="edge6" class="edge">
<title>increase_lockup_with_cap&#45;&gt;assert_stake_pool_exists</title>
<path fill="none" stroke="black" d="M676.47,-262.12C729.25,-259.55 793.85,-253.11 850,-238 872.18,-232.03 895.49,-221.56 914.32,-211.92"/>
<polygon fill="black" stroke="black" points="915.72,-215.14 922.94,-207.39 912.46,-208.94 915.72,-215.14"/>
</g>
<!-- error::canonical -->
<g id="node8" class="node">
<title>error::canonical</title>
<ellipse fill="none" stroke="black" cx="777" cy="-34" rx="44.39" ry="18"/>
<text text-anchor="middle" x="777" y="-30.3" font-family="Times,serif" font-size="14.00">canonical</text>
</g>
<!-- error::invalid_argument&#45;&gt;error::canonical -->
<g id="edge7" class="edge">
<title>error::invalid_argument&#45;&gt;error::canonical</title>
<path fill="none" stroke="black" d="M777,-87.7C777,-80.41 777,-71.73 777,-63.54"/>
<polygon fill="black" stroke="black" points="780.5,-63.62 777,-53.62 773.5,-63.62 780.5,-63.62"/>
</g>
<!-- bcs::to_bytes -->
<g id="node9" class="node">
<title>bcs::to_bytes</title>
<ellipse fill="none" stroke="black" cx="250" cy="-106" rx="40.09" ry="18"/>
<text text-anchor="middle" x="250" y="-102.3" font-family="Times,serif" font-size="14.00">to_bytes</text>
</g>
<!-- event::emit_event&#45;&gt;bcs::to_bytes -->
<g id="edge8" class="edge">
<title>event::emit_event&#45;&gt;bcs::to_bytes</title>
<path fill="none" stroke="black" d="M165.62,-174.2C176.19,-168.77 187.96,-162.13 198,-155 208.07,-147.85 218.25,-138.92 226.9,-130.7"/>
<polygon fill="black" stroke="black" points="229.18,-133.37 233.89,-123.88 224.29,-128.36 229.18,-133.37"/>
</g>
<!-- event::write_to_event_store -->
<g id="node10" class="node">
<title>event::write_to_event_store</title>
<ellipse fill="none" stroke="black" cx="101" cy="-106" rx="85.29" ry="18"/>
<text text-anchor="middle" x="101" y="-102.3" font-family="Times,serif" font-size="14.00">write_to_event_store</text>
</g>
<!-- event::emit_event&#45;&gt;event::write_to_event_store -->
<g id="edge9" class="edge">
<title>event::emit_event&#45;&gt;event::write_to_event_store</title>
<path fill="none" stroke="black" d="M128.58,-170.82C124.03,-160.3 118.11,-146.59 112.91,-134.57"/>
<polygon fill="black" stroke="black" points="116.19,-133.33 109.01,-125.54 109.77,-136.11 116.19,-133.33"/>
</g>
<!-- timestamp::now_microseconds -->
<g id="node11" class="node">
<title>timestamp::now_microseconds</title>
<ellipse fill="none" stroke="black" cx="393" cy="-106" rx="79.09" ry="18"/>
<text text-anchor="middle" x="393" y="-102.3" font-family="Times,serif" font-size="14.00">now_microseconds</text>
</g>
<!-- timestamp::now_seconds&#45;&gt;timestamp::now_microseconds -->
<g id="edge10" class="edge">
<title>timestamp::now_seconds&#45;&gt;timestamp::now_microseconds</title>
<path fill="none" stroke="black" d="M400.09,-170.82C398.95,-160.58 397.48,-147.33 396.17,-135.55"/>
<polygon fill="black" stroke="black" points="399.69,-135.49 395.1,-125.94 392.73,-136.26 399.69,-135.49"/>
</g>
<!-- assert_stake_pool_exists&#45;&gt;error::invalid_argument -->
<g id="edge11" class="edge">
<title>assert_stake_pool_exists&#45;&gt;error::invalid_argument</title>
<path fill="none" stroke="black" d="M911.82,-172.26C898.67,-167.02 884.13,-160.98 871,-155 852.77,-146.7 832.97,-136.73 816.26,-128.04"/>
<polygon fill="black" stroke="black" points="818.13,-125.07 807.64,-123.52 814.88,-131.27 818.13,-125.07"/>
</g>
<!-- stake_pool_exists -->
<g id="node12" class="node">
<title>stake_pool_exists</title>
<ellipse fill="none" stroke="black" cx="953" cy="-106" rx="73.39" ry="18"/>
<text text-anchor="middle" x="953" y="-102.3" font-family="Times,serif" font-size="14.00">stake_pool_exists</text>
</g>
<!-- assert_stake_pool_exists&#45;&gt;stake_pool_exists -->
<g id="edge12" class="edge">
<title>assert_stake_pool_exists&#45;&gt;stake_pool_exists</title>
<path fill="none" stroke="black" d="M953,-170.82C953,-160.69 953,-147.6 953,-135.92"/>
<polygon fill="black" stroke="black" points="956.5,-135.95 953,-125.95 949.5,-135.95 956.5,-135.95"/>
</g>
</g>
</svg>
