<?xml version="1.0" encoding="UTF-8" standalone="no"?>
<!DOCTYPE svg PUBLIC "-//W3C//DTD SVG 1.1//EN"
 "http://www.w3.org/Graphics/SVG/1.1/DTD/svg11.dtd">
<!-- Generated by graphviz version 7.0.4 (20221203.1631)
 -->
<!-- Title: G Pages: 1 -->
<svg width="414pt" height="365pt"
 viewBox="0.00 0.00 414.49 365.00" xmlns="http://www.w3.org/2000/svg" xmlns:xlink="http://www.w3.org/1999/xlink">
<g id="graph0" class="graph" transform="scale(1 1) rotate(0) translate(4 361)">
<title>G</title>
<polygon fill="white" stroke="none" points="-4,4 -4,-361 410.49,-361 410.49,4 -4,4"/>
<g id="clust1" class="cluster">
<title>cluster_stake</title>
<polygon fill="none" stroke="black" points="18.49,-80 18.49,-313 228.49,-313 228.49,-80 18.49,-80"/>
<text text-anchor="middle" x="123.49" y="-297.8" font-family="Times,serif" font-size="14.00">stake</text>
</g>
<g id="clust2" class="cluster">
<title>cluster_coin</title>
<polygon fill="none" stroke="black" points="236.49,-163 236.49,-238 312.49,-238 312.49,-163 236.49,-163"/>
<text text-anchor="middle" x="274.49" y="-222.8" font-family="Times,serif" font-size="14.00">coin</text>
</g>
<g id="clust3" class="cluster">
<title>cluster_error</title>
<polygon fill="none" stroke="black" points="236.49,-8 236.49,-155 398.49,-155 398.49,-8 236.49,-8"/>
<text text-anchor="middle" x="317.49" y="-139.8" font-family="Times,serif" font-size="14.00">error</text>
</g>
<!-- get_staking_contract_amounts_internal -->
<g id="node1" class="node">
<title>get_staking_contract_amounts_internal</title>
<ellipse fill="none" stroke="black" cx="149.49" cy="-339" rx="149.47" ry="18"/>
<text text-anchor="middle" x="149.49" y="-335.3" font-family="Times,serif" font-size="14.00">get_staking_contract_amounts_internal</text>
</g>
<!-- stake::get_stake -->
<g id="node2" class="node">
<title>stake::get_stake</title>
<ellipse fill="none" stroke="black" cx="149.49" cy="-264" rx="44.39" ry="18"/>
<text text-anchor="middle" x="149.49" y="-260.3" font-family="Times,serif" font-size="14.00">get_stake</text>
</g>
<!-- get_staking_contract_amounts_internal&#45;&gt;stake::get_stake -->
<g id="edge1" class="edge">
<title>get_staking_contract_amounts_internal&#45;&gt;stake::get_stake</title>
<path fill="none" stroke="black" d="M149.49,-320.7C149.49,-312.67 149.49,-302.9 149.49,-293.8"/>
<polygon fill="black" stroke="black" points="152.99,-293.94 149.49,-283.94 145.99,-293.94 152.99,-293.94"/>
</g>
<!-- coin::value -->
<g id="node3" class="node">
<title>coin::value</title>
<ellipse fill="none" stroke="black" cx="274.49" cy="-189" rx="29.8" ry="18"/>
<text text-anchor="middle" x="274.49" y="-185.3" font-family="Times,serif" font-size="14.00">value</text>
</g>
<!-- stake::get_stake&#45;&gt;coin::value -->
<g id="edge2" class="edge">
<title>stake::get_stake&#45;&gt;coin::value</title>
<path fill="none" stroke="black" d="M189.45,-255.77C203.78,-251.97 219.58,-246.31 232.49,-238 241.82,-231.99 250.29,-223.32 257.13,-215"/>
<polygon fill="black" stroke="black" points="259.88,-217.18 263.21,-207.12 254.33,-212.9 259.88,-217.18"/>
</g>
<!-- stake::assert_stake_pool_exists -->
<g id="node4" class="node">
<title>stake::assert_stake_pool_exists</title>
<ellipse fill="none" stroke="black" cx="123.49" cy="-189" rx="97.48" ry="18"/>
<text text-anchor="middle" x="123.49" y="-185.3" font-family="Times,serif" font-size="14.00">assert_stake_pool_exists</text>
</g>
<!-- stake::get_stake&#45;&gt;stake::assert_stake_pool_exists -->
<g id="edge3" class="edge">
<title>stake::get_stake&#45;&gt;stake::assert_stake_pool_exists</title>
<path fill="none" stroke="black" d="M143.33,-245.7C140.4,-237.49 136.83,-227.46 133.53,-218.19"/>
<polygon fill="black" stroke="black" points="136.85,-217.1 130.2,-208.85 130.26,-219.45 136.85,-217.1"/>
</g>
<!-- error::invalid_argument -->
<g id="node5" class="node">
<title>error::invalid_argument</title>
<ellipse fill="none" stroke="black" cx="317.49" cy="-106" rx="73.39" ry="18"/>
<text text-anchor="middle" x="317.49" y="-102.3" font-family="Times,serif" font-size="14.00">invalid_argument</text>
</g>
<!-- stake::assert_stake_pool_exists&#45;&gt;error::invalid_argument -->
<g id="edge4" class="edge">
<title>stake::assert_stake_pool_exists&#45;&gt;error::invalid_argument</title>
<path fill="none" stroke="black" d="M178.94,-173.78C196.37,-168.63 215.49,-162.27 232.49,-155 249.45,-147.75 267.36,-137.98 282.34,-129.15"/>
<polygon fill="black" stroke="black" points="284.13,-132.16 290.9,-124.01 280.53,-126.16 284.13,-132.16"/>
</g>
<!-- stake::stake_pool_exists -->
<g id="node6" class="node">
<title>stake::stake_pool_exists</title>
<ellipse fill="none" stroke="black" cx="123.49" cy="-106" rx="73.39" ry="18"/>
<text text-anchor="middle" x="123.49" y="-102.3" font-family="Times,serif" font-size="14.00">stake_pool_exists</text>
</g>
<!-- stake::assert_stake_pool_exists&#45;&gt;stake::stake_pool_exists -->
<g id="edge5" class="edge">
<title>stake::assert_stake_pool_exists&#45;&gt;stake::stake_pool_exists</title>
<path fill="none" stroke="black" d="M123.49,-170.82C123.49,-160.69 123.49,-147.6 123.49,-135.92"/>
<polygon fill="black" stroke="black" points="126.99,-135.95 123.49,-125.95 119.99,-135.95 126.99,-135.95"/>
</g>
<!-- error::canonical -->
<g id="node7" class="node">
<title>error::canonical</title>
<ellipse fill="none" stroke="black" cx="317.49" cy="-34" rx="44.39" ry="18"/>
<text text-anchor="middle" x="317.49" y="-30.3" font-family="Times,serif" font-size="14.00">canonical</text>
</g>
<!-- error::invalid_argument&#45;&gt;error::canonical -->
<g id="edge6" class="edge">
<title>error::invalid_argument&#45;&gt;error::canonical</title>
<path fill="none" stroke="black" d="M317.49,-87.7C317.49,-80.41 317.49,-71.73 317.49,-63.54"/>
<polygon fill="black" stroke="black" points="320.99,-63.62 317.49,-53.62 313.99,-63.62 320.99,-63.62"/>
</g>
</g>
</svg>
