<?xml version="1.0" encoding="UTF-8" standalone="no"?>
<!DOCTYPE svg PUBLIC "-//W3C//DTD SVG 1.1//EN"
 "http://www.w3.org/Graphics/SVG/1.1/DTD/svg11.dtd">
<!-- Generated by graphviz version 7.0.4 (20221203.1631)
 -->
<!-- Title: G Pages: 1 -->
<svg width="1984pt" height="914pt"
 viewBox="0.00 0.00 1984.00 914.00" xmlns="http://www.w3.org/2000/svg" xmlns:xlink="http://www.w3.org/1999/xlink">
<g id="graph0" class="graph" transform="scale(1 1) rotate(0) translate(4 910)">
<title>G</title>
<polygon fill="white" stroke="none" points="-4,4 -4,-910 1980,-910 1980,4 -4,4"/>
<g id="clust1" class="cluster">
<title>cluster_stake</title>
<polygon fill="none" stroke="black" points="851,-64 851,-355 1522,-355 1522,-64 851,-64"/>
<text text-anchor="middle" x="1186.5" y="-339.8" font-family="Times,serif" font-size="14.00">stake</text>
</g>
<g id="clust2" class="cluster">
<title>cluster_aptos_governance</title>
<polygon fill="none" stroke="black" points="8,-280 8,-521 277,-521 277,-280 8,-280"/>
<text text-anchor="middle" x="142.5" y="-505.8" font-family="Times,serif" font-size="14.00">aptos_governance</text>
</g>
<g id="clust3" class="cluster">
<title>cluster_staking_contract</title>
<polygon fill="none" stroke="black" points="1232,-363 1232,-596 1676,-596 1676,-363 1232,-363"/>
<text text-anchor="middle" x="1454" y="-580.8" font-family="Times,serif" font-size="14.00">staking_contract</text>
</g>
<g id="clust4" class="cluster">
<title>cluster_genesis</title>
<polygon fill="none" stroke="black" points="1508,-604 1508,-898 1968,-898 1968,-604 1508,-604"/>
<text text-anchor="middle" x="1738" y="-882.8" font-family="Times,serif" font-size="14.00">genesis</text>
</g>
<g id="clust5" class="cluster">
<title>cluster_reconfiguration</title>
<polygon fill="none" stroke="black" points="608,-363 608,-438 726,-438 726,-363 608,-363"/>
<text text-anchor="middle" x="667" y="-422.8" font-family="Times,serif" font-size="14.00">reconfiguration</text>
</g>
<g id="clust6" class="cluster">
<title>cluster_vesting</title>
<polygon fill="none" stroke="black" points="1166,-604 1166,-679 1500,-679 1500,-604 1166,-604"/>
<text text-anchor="middle" x="1333" y="-663.8" font-family="Times,serif" font-size="14.00">vesting</text>
</g>
<g id="clust7" class="cluster">
<title>cluster_block</title>
<polygon fill="none" stroke="black" points="902,-446 902,-521 1050,-521 1050,-446 902,-446"/>
<text text-anchor="middle" x="976" y="-505.8" font-family="Times,serif" font-size="14.00">block</text>
</g>
<g id="clust8" class="cluster">
<title>cluster_consensus_config</title>
<polygon fill="none" stroke="black" points="285,-446 285,-521 398,-521 398,-446 285,-446"/>
<text text-anchor="middle" x="341.5" y="-505.8" font-family="Times,serif" font-size="14.00">consensus_config</text>
</g>
<g id="clust9" class="cluster">
<title>cluster_gas_schedule</title>
<polygon fill="none" stroke="black" points="406,-446 406,-521 768,-521 768,-446 406,-446"/>
<text text-anchor="middle" x="587" y="-505.8" font-family="Times,serif" font-size="14.00">gas_schedule</text>
</g>
<g id="clust10" class="cluster">
<title>cluster_version</title>
<polygon fill="none" stroke="black" points="776,-446 776,-521 894,-521 894,-446 776,-446"/>
<text text-anchor="middle" x="835" y="-505.8" font-family="Times,serif" font-size="14.00">version</text>
</g>
<!-- get -->
<g id="node1" class="node">
<title>get</title>
<ellipse fill="none" stroke="black" cx="1025" cy="-18" rx="27" ry="18"/>
<text text-anchor="middle" x="1025" y="-14.3" font-family="Times,serif" font-size="14.00">get</text>
</g>
<!-- stake::add_stake_with_cap -->
<g id="node2" class="node">
<title>stake::add_stake_with_cap</title>
<ellipse fill="none" stroke="black" cx="1431" cy="-162" rx="82.59" ry="18"/>
<text text-anchor="middle" x="1431" y="-158.3" font-family="Times,serif" font-size="14.00">add_stake_with_cap</text>
</g>
<!-- stake::add_stake_with_cap&#45;&gt;get -->
<g id="edge1" class="edge">
<title>stake::add_stake_with_cap&#45;&gt;get</title>
<path fill="none" stroke="black" d="M1426.77,-143.7C1420.32,-121.31 1405.74,-82.93 1378,-64 1327.47,-29.53 1143.92,-21.46 1063.35,-19.57"/>
<polygon fill="black" stroke="black" points="1063.83,-16.08 1053.76,-19.37 1063.68,-23.08 1063.83,-16.08"/>
</g>
<!-- stake::update_voting_power_increase -->
<g id="node8" class="node">
<title>stake::update_voting_power_increase</title>
<ellipse fill="none" stroke="black" cx="1249" cy="-90" rx="120.48" ry="18"/>
<text text-anchor="middle" x="1249" y="-86.3" font-family="Times,serif" font-size="14.00">update_voting_power_increase</text>
</g>
<!-- stake::add_stake_with_cap&#45;&gt;stake::update_voting_power_increase -->
<g id="edge19" class="edge">
<title>stake::add_stake_with_cap&#45;&gt;stake::update_voting_power_increase</title>
<path fill="none" stroke="black" d="M1391.51,-145.81C1365.27,-135.72 1330.52,-122.35 1301.9,-111.35"/>
<polygon fill="black" stroke="black" points="1303.27,-108.12 1292.68,-107.8 1300.76,-114.66 1303.27,-108.12"/>
</g>
<!-- stake::increase_lockup_with_cap -->
<g id="node3" class="node">
<title>stake::increase_lockup_with_cap</title>
<ellipse fill="none" stroke="black" cx="1109" cy="-234" rx="104.78" ry="18"/>
<text text-anchor="middle" x="1109" y="-230.3" font-family="Times,serif" font-size="14.00">increase_lockup_with_cap</text>
</g>
<!-- stake::increase_lockup_with_cap&#45;&gt;get -->
<g id="edge2" class="edge">
<title>stake::increase_lockup_with_cap&#45;&gt;get</title>
<path fill="none" stroke="black" d="M1082.62,-216.2C1070.41,-207.01 1056.89,-194.53 1049,-180 1026.17,-137.98 1023.04,-81.16 1023.53,-47.47"/>
<polygon fill="black" stroke="black" points="1027.03,-47.79 1023.81,-37.69 1020.03,-47.59 1027.03,-47.79"/>
</g>
<!-- stake::join_validator_set -->
<g id="node4" class="node">
<title>stake::join_validator_set</title>
<ellipse fill="none" stroke="black" cx="1306" cy="-234" rx="74.19" ry="18"/>
<text text-anchor="middle" x="1306" y="-230.3" font-family="Times,serif" font-size="14.00">join_validator_set</text>
</g>
<!-- stake::join_validator_set&#45;&gt;get -->
<g id="edge3" class="edge">
<title>stake::join_validator_set&#45;&gt;get</title>
<path fill="none" stroke="black" d="M1253.4,-220.97C1199.58,-208.31 1122.28,-188.99 1111,-180 1088.29,-161.9 1054.02,-87.2 1036.38,-46.22"/>
<polygon fill="black" stroke="black" points="1039.6,-44.85 1032.46,-37.02 1033.16,-47.59 1039.6,-44.85"/>
</g>
<!-- stake::join_validator_set_internal -->
<g id="node5" class="node">
<title>stake::join_validator_set_internal</title>
<ellipse fill="none" stroke="black" cx="1225" cy="-162" rx="105.08" ry="18"/>
<text text-anchor="middle" x="1225" y="-158.3" font-family="Times,serif" font-size="14.00">join_validator_set_internal</text>
</g>
<!-- stake::join_validator_set&#45;&gt;stake::join_validator_set_internal -->
<g id="edge15" class="edge">
<title>stake::join_validator_set&#45;&gt;stake::join_validator_set_internal</title>
<path fill="none" stroke="black" d="M1286.8,-216.41C1276.76,-207.73 1264.28,-196.95 1253.17,-187.34"/>
<polygon fill="black" stroke="black" points="1255.62,-184.84 1245.77,-180.95 1251.04,-190.13 1255.62,-184.84"/>
</g>
<!-- stake::join_validator_set_internal&#45;&gt;get -->
<g id="edge4" class="edge">
<title>stake::join_validator_set_internal&#45;&gt;get</title>
<path fill="none" stroke="black" d="M1185.58,-144.85C1165.09,-135.55 1140.18,-122.78 1120,-108 1097.94,-91.84 1096.91,-82.74 1077,-64 1068.35,-55.86 1058.58,-47.26 1049.85,-39.77"/>
<polygon fill="black" stroke="black" points="1052.28,-37.24 1042.39,-33.43 1047.74,-42.57 1052.28,-37.24"/>
</g>
<!-- stake::join_validator_set_internal&#45;&gt;stake::update_voting_power_increase -->
<g id="edge20" class="edge">
<title>stake::join_validator_set_internal&#45;&gt;stake::update_voting_power_increase</title>
<path fill="none" stroke="black" d="M1230.93,-143.7C1233.49,-136.24 1236.55,-127.32 1239.41,-118.97"/>
<polygon fill="black" stroke="black" points="1242.71,-120.13 1242.64,-109.54 1236.09,-117.86 1242.71,-120.13"/>
</g>
<!-- stake::leave_validator_set -->
<g id="node6" class="node">
<title>stake::leave_validator_set</title>
<ellipse fill="none" stroke="black" cx="938" cy="-306" rx="79.09" ry="18"/>
<text text-anchor="middle" x="938" y="-302.3" font-family="Times,serif" font-size="14.00">leave_validator_set</text>
</g>
<!-- stake::leave_validator_set&#45;&gt;get -->
<g id="edge5" class="edge">
<title>stake::leave_validator_set&#45;&gt;get</title>
<path fill="none" stroke="black" d="M938.14,-287.63C939.12,-246.52 945.51,-140.95 984,-64 988.19,-55.63 994.39,-47.66 1000.71,-40.82"/>
<polygon fill="black" stroke="black" points="1003.02,-43.46 1007.56,-33.89 998.04,-38.54 1003.02,-43.46"/>
</g>
<!-- stake::on_new_epoch -->
<g id="node7" class="node">
<title>stake::on_new_epoch</title>
<ellipse fill="none" stroke="black" cx="1099" cy="-306" rx="63.89" ry="18"/>
<text text-anchor="middle" x="1099" y="-302.3" font-family="Times,serif" font-size="14.00">on_new_epoch</text>
</g>
<!-- stake::on_new_epoch&#45;&gt;get -->
<g id="edge6" class="edge">
<title>stake::on_new_epoch&#45;&gt;get</title>
<path fill="none" stroke="black" d="M1061.9,-290.93C1035.24,-279.97 1002.7,-264.57 995,-252 954.94,-186.62 989.9,-91.61 1011.29,-45.75"/>
<polygon fill="black" stroke="black" points="1014.41,-47.34 1015.6,-36.81 1008.11,-44.3 1014.41,-47.34"/>
</g>
<!-- stake::update_voting_power_increase&#45;&gt;get -->
<g id="edge7" class="edge">
<title>stake::update_voting_power_increase&#45;&gt;get</title>
<path fill="none" stroke="black" d="M1198.45,-73.2C1156.24,-60.01 1097.15,-41.55 1059.99,-29.93"/>
<polygon fill="black" stroke="black" points="1061.24,-26.66 1050.65,-27.02 1059.15,-33.34 1061.24,-26.66"/>
</g>
<!-- aptos_governance::get_voting_power -->
<g id="node9" class="node">
<title>aptos_governance::get_voting_power</title>
<ellipse fill="none" stroke="black" cx="178" cy="-306" rx="74.99" ry="18"/>
<text text-anchor="middle" x="178" y="-302.3" font-family="Times,serif" font-size="14.00">get_voting_power</text>
</g>
<!-- aptos_governance::get_voting_power&#45;&gt;get -->
<g id="edge8" class="edge">
<title>aptos_governance::get_voting_power&#45;&gt;get</title>
<path fill="none" stroke="black" d="M213.05,-289.67C308.43,-248.43 581.31,-133.53 817,-64 875.66,-46.69 945.44,-32.95 987.42,-25.4"/>
<polygon fill="black" stroke="black" points="988.02,-28.85 997.26,-23.66 986.8,-21.96 988.02,-28.85"/>
</g>
<!-- staking_contract::create_staking_contract_with_coins -->
<g id="node10" class="node">
<title>staking_contract::create_staking_contract_with_coins</title>
<ellipse fill="none" stroke="black" cx="1377" cy="-472" rx="137.28" ry="18"/>
<text text-anchor="middle" x="1377" y="-468.3" font-family="Times,serif" font-size="14.00">create_staking_contract_with_coins</text>
</g>
<!-- staking_contract::create_staking_contract_with_coins&#45;&gt;get -->
<g id="edge9" class="edge">
<title>staking_contract::create_staking_contract_with_coins&#45;&gt;get</title>
<path fill="none" stroke="black" d="M1264.59,-461.36C1126.11,-447.03 902.33,-415.12 847,-355 810.56,-315.41 831,-288.81 831,-235 831,-235 831,-235 831,-161 831,-117.31 817.43,-96.17 847,-64 865.69,-43.66 940.66,-30.24 987.14,-23.69"/>
<polygon fill="black" stroke="black" points="987.35,-27.19 996.79,-22.37 986.41,-20.25 987.35,-27.19"/>
</g>
<!-- staking_contract::create_staking_contract_with_coins&#45;&gt;stake::add_stake_with_cap -->
<g id="edge12" class="edge">
<title>staking_contract::create_staking_contract_with_coins&#45;&gt;stake::add_stake_with_cap</title>
<path fill="none" stroke="black" d="M1451.22,-456.54C1462.72,-451.96 1473.81,-445.93 1483,-438 1514.01,-411.25 1513.88,-394.92 1523,-355 1536.96,-293.88 1536.12,-266.52 1499,-216 1490.55,-204.5 1478.97,-194.22 1467.76,-185.84"/>
<polygon fill="black" stroke="black" points="1469.91,-183.08 1459.73,-180.14 1465.86,-188.79 1469.91,-183.08"/>
</g>
<!-- staking_contract::create_stake_pool -->
<g id="node35" class="node">
<title>staking_contract::create_stake_pool</title>
<ellipse fill="none" stroke="black" cx="1400" cy="-389" rx="74.19" ry="18"/>
<text text-anchor="middle" x="1400" y="-385.3" font-family="Times,serif" font-size="14.00">create_stake_pool</text>
</g>
<!-- staking_contract::create_staking_contract_with_coins&#45;&gt;staking_contract::create_stake_pool -->
<g id="edge44" class="edge">
<title>staking_contract::create_staking_contract_with_coins&#45;&gt;staking_contract::create_stake_pool</title>
<path fill="none" stroke="black" d="M1381.88,-453.82C1384.82,-443.48 1388.63,-430.05 1392,-418.18"/>
<polygon fill="black" stroke="black" points="1395.27,-419.46 1394.64,-408.89 1388.54,-417.55 1395.27,-419.46"/>
</g>
<!-- stake::add_stake -->
<g id="node11" class="node">
<title>stake::add_stake</title>
<ellipse fill="none" stroke="black" cx="1444" cy="-234" rx="46.29" ry="18"/>
<text text-anchor="middle" x="1444" y="-230.3" font-family="Times,serif" font-size="14.00">add_stake</text>
</g>
<!-- stake::add_stake&#45;&gt;stake::add_stake_with_cap -->
<g id="edge10" class="edge">
<title>stake::add_stake&#45;&gt;stake::add_stake_with_cap</title>
<path fill="none" stroke="black" d="M1440.79,-215.7C1439.42,-208.32 1437.78,-199.52 1436.25,-191.25"/>
<polygon fill="black" stroke="black" points="1439.72,-190.79 1434.45,-181.59 1432.84,-192.06 1439.72,-190.79"/>
</g>
<!-- staking_contract::add_stake -->
<g id="node12" class="node">
<title>staking_contract::add_stake</title>
<ellipse fill="none" stroke="black" cx="1622" cy="-547" rx="46.29" ry="18"/>
<text text-anchor="middle" x="1622" y="-543.3" font-family="Times,serif" font-size="14.00">add_stake</text>
</g>
<!-- staking_contract::add_stake&#45;&gt;stake::add_stake_with_cap -->
<g id="edge11" class="edge">
<title>staking_contract::add_stake&#45;&gt;stake::add_stake_with_cap</title>
<path fill="none" stroke="black" d="M1635.27,-529.42C1675.46,-477.1 1788.36,-313.19 1708,-216 1684.57,-187.66 1593.26,-174.33 1521.8,-168.15"/>
<polygon fill="black" stroke="black" points="1522.28,-164.68 1512.03,-167.35 1521.71,-171.66 1522.28,-164.68"/>
</g>
<!-- stake::increase_lockup -->
<g id="node13" class="node">
<title>stake::increase_lockup</title>
<ellipse fill="none" stroke="black" cx="1248" cy="-306" rx="67.69" ry="18"/>
<text text-anchor="middle" x="1248" y="-302.3" font-family="Times,serif" font-size="14.00">increase_lockup</text>
</g>
<!-- stake::increase_lockup&#45;&gt;stake::increase_lockup_with_cap -->
<g id="edge13" class="edge">
<title>stake::increase_lockup&#45;&gt;stake::increase_lockup_with_cap</title>
<path fill="none" stroke="black" d="M1217.5,-289.64C1198.27,-279.95 1173.15,-267.3 1151.92,-256.62"/>
<polygon fill="black" stroke="black" points="1153.72,-253.6 1143.21,-252.23 1150.57,-259.85 1153.72,-253.6"/>
</g>
<!-- staking_contract::reset_lockup -->
<g id="node14" class="node">
<title>staking_contract::reset_lockup</title>
<ellipse fill="none" stroke="black" cx="1502" cy="-547" rx="55.79" ry="18"/>
<text text-anchor="middle" x="1502" y="-543.3" font-family="Times,serif" font-size="14.00">reset_lockup</text>
</g>
<!-- staking_contract::reset_lockup&#45;&gt;stake::increase_lockup_with_cap -->
<g id="edge14" class="edge">
<title>staking_contract::reset_lockup&#45;&gt;stake::increase_lockup_with_cap</title>
<path fill="none" stroke="black" d="M1518.44,-529.53C1520.3,-526.86 1521.91,-523.98 1523,-521 1559.66,-420.36 1595.13,-359.18 1523,-280 1500.45,-255.25 1256.24,-256.03 1223,-252 1214.1,-250.92 1204.83,-249.7 1195.58,-248.42"/>
<polygon fill="black" stroke="black" points="1196.24,-244.98 1185.84,-247.04 1195.26,-251.91 1196.24,-244.98"/>
</g>
<!-- genesis::initialize_validator -->
<g id="node15" class="node">
<title>genesis::initialize_validator</title>
<ellipse fill="none" stroke="black" cx="1696" cy="-630" rx="77.19" ry="18"/>
<text text-anchor="middle" x="1696" y="-626.3" font-family="Times,serif" font-size="14.00">initialize_validator</text>
</g>
<!-- genesis::initialize_validator&#45;&gt;stake::join_validator_set_internal -->
<g id="edge16" class="edge">
<title>genesis::initialize_validator&#45;&gt;stake::join_validator_set_internal</title>
<path fill="none" stroke="black" d="M1699.51,-611.58C1707.52,-567.19 1723.32,-447.37 1680,-363 1632.66,-270.81 1592.91,-259.82 1499,-216 1481.83,-207.99 1383.29,-189.97 1309.26,-177.17"/>
<polygon fill="black" stroke="black" points="1310.01,-173.75 1299.56,-175.5 1308.82,-180.65 1310.01,-173.75"/>
</g>
<!-- reconfiguration::reconfigure -->
<g id="node16" class="node">
<title>reconfiguration::reconfigure</title>
<ellipse fill="none" stroke="black" cx="667" cy="-389" rx="51.19" ry="18"/>
<text text-anchor="middle" x="667" y="-385.3" font-family="Times,serif" font-size="14.00">reconfigure</text>
</g>
<!-- reconfiguration::reconfigure&#45;&gt;stake::on_new_epoch -->
<g id="edge17" class="edge">
<title>reconfiguration::reconfigure&#45;&gt;stake::on_new_epoch</title>
<path fill="none" stroke="black" d="M718.12,-386.35C803.33,-383.1 970.54,-374.41 1026,-355 1041.86,-349.45 1057.66,-339.72 1070.48,-330.46"/>
<polygon fill="black" stroke="black" points="1072.57,-333.27 1078.45,-324.46 1068.36,-327.68 1072.57,-333.27"/>
</g>
<!-- genesis::create_initialize_validators_with_commission -->
<g id="node17" class="node">
<title>genesis::create_initialize_validators_with_commission</title>
<ellipse fill="none" stroke="black" cx="1690" cy="-777" rx="173.57" ry="18"/>
<text text-anchor="middle" x="1690" y="-773.3" font-family="Times,serif" font-size="14.00">create_initialize_validators_with_commission</text>
</g>
<!-- genesis::create_initialize_validators_with_commission&#45;&gt;stake::on_new_epoch -->
<g id="edge18" class="edge">
<title>genesis::create_initialize_validators_with_commission&#45;&gt;stake::on_new_epoch</title>
<path fill="none" stroke="black" d="M1529.53,-769.87C1345.82,-758.36 1070,-725.38 1070,-631 1070,-631 1070,-631 1070,-471 1070,-422.59 1082.41,-367.35 1090.99,-334.92"/>
<polygon fill="black" stroke="black" points="1094.3,-336.09 1093.55,-325.52 1087.54,-334.25 1094.3,-336.09"/>
</g>
<!-- genesis::create_initialize_validator -->
<g id="node25" class="node">
<title>genesis::create_initialize_validator</title>
<ellipse fill="none" stroke="black" cx="1619" cy="-705" rx="102.88" ry="18"/>
<text text-anchor="middle" x="1619" y="-701.3" font-family="Times,serif" font-size="14.00">create_initialize_validator</text>
</g>
<!-- genesis::create_initialize_validators_with_commission&#45;&gt;genesis::create_initialize_validator -->
<g id="edge43" class="edge">
<title>genesis::create_initialize_validators_with_commission&#45;&gt;genesis::create_initialize_validator</title>
<path fill="none" stroke="black" d="M1672.45,-758.7C1664.02,-750.39 1653.77,-740.28 1644.5,-731.14"/>
<polygon fill="black" stroke="black" points="1647,-728.7 1637.43,-724.17 1642.09,-733.68 1647,-728.7"/>
</g>
<!-- aptos_governance::create_proposal_v2 -->
<g id="node18" class="node">
<title>aptos_governance::create_proposal_v2</title>
<ellipse fill="none" stroke="black" cx="178" cy="-389" rx="79.09" ry="18"/>
<text text-anchor="middle" x="178" y="-385.3" font-family="Times,serif" font-size="14.00">create_proposal_v2</text>
</g>
<!-- aptos_governance::create_proposal_v2&#45;&gt;aptos_governance::get_voting_power -->
<g id="edge21" class="edge">
<title>aptos_governance::create_proposal_v2&#45;&gt;aptos_governance::get_voting_power</title>
<path fill="none" stroke="black" d="M178,-370.82C178,-360.69 178,-347.6 178,-335.92"/>
<polygon fill="black" stroke="black" points="181.5,-335.95 178,-325.95 174.5,-335.95 181.5,-335.95"/>
</g>
<!-- aptos_governance::vote -->
<g id="node19" class="node">
<title>aptos_governance::vote</title>
<ellipse fill="none" stroke="black" cx="54" cy="-389" rx="27" ry="18"/>
<text text-anchor="middle" x="54" y="-385.3" font-family="Times,serif" font-size="14.00">vote</text>
</g>
<!-- aptos_governance::vote&#45;&gt;aptos_governance::get_voting_power -->
<g id="edge22" class="edge">
<title>aptos_governance::vote&#45;&gt;aptos_governance::get_voting_power</title>
<path fill="none" stroke="black" d="M71.85,-375.39C77.61,-371.38 84.04,-366.96 90,-363 107.11,-351.62 126.34,-339.33 142.44,-329.17"/>
<polygon fill="black" stroke="black" points="144.14,-332.24 150.74,-323.95 140.41,-326.31 144.14,-332.24"/>
</g>
<!-- staking_contract::create_staking_contract -->
<g id="node20" class="node">
<title>staking_contract::create_staking_contract</title>
<ellipse fill="none" stroke="black" cx="1334" cy="-547" rx="94.48" ry="18"/>
<text text-anchor="middle" x="1334" y="-543.3" font-family="Times,serif" font-size="14.00">create_staking_contract</text>
</g>
<!-- staking_contract::create_staking_contract&#45;&gt;staking_contract::create_staking_contract_with_coins -->
<g id="edge23" class="edge">
<title>staking_contract::create_staking_contract&#45;&gt;staking_contract::create_staking_contract_with_coins</title>
<path fill="none" stroke="black" d="M1344.19,-528.7C1349.19,-520.22 1355.32,-509.8 1360.93,-500.28"/>
<polygon fill="black" stroke="black" points="1363.91,-502.13 1365.97,-491.73 1357.87,-498.57 1363.91,-502.13"/>
</g>
<!-- vesting::create_vesting_contract -->
<g id="node21" class="node">
<title>vesting::create_vesting_contract</title>
<ellipse fill="none" stroke="black" cx="1268" cy="-630" rx="94.48" ry="18"/>
<text text-anchor="middle" x="1268" y="-626.3" font-family="Times,serif" font-size="14.00">create_vesting_contract</text>
</g>
<!-- vesting::create_vesting_contract&#45;&gt;staking_contract::create_staking_contract_with_coins -->
<g id="edge24" class="edge">
<title>vesting::create_vesting_contract&#45;&gt;staking_contract::create_staking_contract_with_coins</title>
<path fill="none" stroke="black" d="M1243.19,-612.21C1238.25,-607.58 1233.75,-602.13 1231,-596 1218.82,-568.83 1214.13,-553.54 1231,-529 1243.31,-511.09 1262.2,-498.91 1282.34,-490.62"/>
<polygon fill="black" stroke="black" points="1283.42,-493.96 1291.55,-487.16 1280.96,-487.4 1283.42,-493.96"/>
</g>
<!-- stake::initialize_stake_owner -->
<g id="node22" class="node">
<title>stake::initialize_stake_owner</title>
<ellipse fill="none" stroke="black" cx="1424" cy="-306" rx="90.18" ry="18"/>
<text text-anchor="middle" x="1424" y="-302.3" font-family="Times,serif" font-size="14.00">initialize_stake_owner</text>
</g>
<!-- stake::initialize_stake_owner&#45;&gt;stake::add_stake -->
<g id="edge25" class="edge">
<title>stake::initialize_stake_owner&#45;&gt;stake::add_stake</title>
<path fill="none" stroke="black" d="M1428.94,-287.7C1431.08,-280.24 1433.62,-271.32 1436.01,-262.97"/>
<polygon fill="black" stroke="black" points="1439.32,-264.14 1438.7,-253.56 1432.58,-262.21 1439.32,-264.14"/>
</g>
<!-- vesting::reset_lockup -->
<g id="node23" class="node">
<title>vesting::reset_lockup</title>
<ellipse fill="none" stroke="black" cx="1436" cy="-630" rx="55.79" ry="18"/>
<text text-anchor="middle" x="1436" y="-626.3" font-family="Times,serif" font-size="14.00">reset_lockup</text>
</g>
<!-- vesting::reset_lockup&#45;&gt;staking_contract::reset_lockup -->
<g id="edge26" class="edge">
<title>vesting::reset_lockup&#45;&gt;staking_contract::reset_lockup</title>
<path fill="none" stroke="black" d="M1449.68,-612.22C1458.79,-601.03 1470.94,-586.12 1481.24,-573.48"/>
<polygon fill="black" stroke="black" points="1483.78,-575.9 1487.39,-565.94 1478.36,-571.48 1483.78,-575.9"/>
</g>
<!-- genesis::create_employee_validators -->
<g id="node24" class="node">
<title>genesis::create_employee_validators</title>
<ellipse fill="none" stroke="black" cx="1850" cy="-705" rx="109.68" ry="18"/>
<text text-anchor="middle" x="1850" y="-701.3" font-family="Times,serif" font-size="14.00">create_employee_validators</text>
</g>
<!-- genesis::create_employee_validators&#45;&gt;genesis::initialize_validator -->
<g id="edge27" class="edge">
<title>genesis::create_employee_validators&#45;&gt;genesis::initialize_validator</title>
<path fill="none" stroke="black" d="M1815.44,-687.62C1792.96,-676.96 1763.46,-662.98 1739.41,-651.58"/>
<polygon fill="black" stroke="black" points="1741.03,-648.47 1730.49,-647.35 1738.03,-654.8 1741.03,-648.47"/>
</g>
<!-- genesis::create_employee_validators&#45;&gt;vesting::create_vesting_contract -->
<g id="edge39" class="edge">
<title>genesis::create_employee_validators&#45;&gt;vesting::create_vesting_contract</title>
<path fill="none" stroke="black" d="M1773.65,-691.72C1759.51,-689.83 1744.83,-688.14 1731,-687 1691.12,-683.72 1409.96,-688.09 1371,-679 1348.14,-673.67 1324.29,-662.93 1305.29,-652.95"/>
<polygon fill="black" stroke="black" points="1307.07,-649.94 1296.61,-648.25 1303.74,-656.09 1307.07,-649.94"/>
</g>
<!-- genesis::create_initialize_validator&#45;&gt;genesis::initialize_validator -->
<g id="edge28" class="edge">
<title>genesis::create_initialize_validator&#45;&gt;genesis::initialize_validator</title>
<path fill="none" stroke="black" d="M1636.86,-687.07C1646.67,-677.76 1659.03,-666.05 1669.91,-655.74"/>
<polygon fill="black" stroke="black" points="1672.29,-658.3 1677.14,-648.88 1667.47,-653.22 1672.29,-658.3"/>
</g>
<!-- genesis::create_initialize_validator&#45;&gt;staking_contract::create_staking_contract -->
<g id="edge38" class="edge">
<title>genesis::create_initialize_validator&#45;&gt;staking_contract::create_staking_contract</title>
<path fill="none" stroke="black" d="M1605.14,-686.73C1585.4,-663.52 1546.81,-622.98 1504,-604 1476.58,-591.85 1465.84,-604.21 1437,-596 1414.91,-589.71 1391.6,-579.21 1372.76,-569.63"/>
<polygon fill="black" stroke="black" points="1374.62,-566.65 1364.13,-565.14 1371.38,-572.86 1374.62,-566.65"/>
</g>
<!-- genesis::create_initialize_validator&#45;&gt;stake::initialize_stake_owner -->
<g id="edge41" class="edge">
<title>genesis::create_initialize_validator&#45;&gt;stake::initialize_stake_owner</title>
<path fill="none" stroke="black" d="M1517.3,-701.71C1386.58,-698.3 1174.79,-690.96 1162,-679 1119.16,-638.93 1146,-606.65 1146,-548 1146,-548 1146,-548 1146,-471 1146,-410.73 1175.16,-391.99 1228,-363 1246.96,-352.6 1304.14,-360.7 1325,-355 1346.41,-349.15 1368.78,-338.72 1386.83,-329.07"/>
<polygon fill="black" stroke="black" points="1388.51,-332.14 1395.59,-324.26 1385.14,-326.01 1388.51,-332.14"/>
</g>
<!-- aptos_governance::reconfigure -->
<g id="node26" class="node">
<title>aptos_governance::reconfigure</title>
<ellipse fill="none" stroke="black" cx="218" cy="-472" rx="51.19" ry="18"/>
<text text-anchor="middle" x="218" y="-468.3" font-family="Times,serif" font-size="14.00">reconfigure</text>
</g>
<!-- aptos_governance::reconfigure&#45;&gt;reconfiguration::reconfigure -->
<g id="edge29" class="edge">
<title>aptos_governance::reconfigure&#45;&gt;reconfiguration::reconfigure</title>
<path fill="none" stroke="black" d="M248.6,-457.19C258.74,-453.07 270.2,-448.88 281,-446 393.32,-416.01 528.6,-401.06 605.52,-394.46"/>
<polygon fill="black" stroke="black" points="605.71,-397.96 615.39,-393.64 605.13,-390.98 605.71,-397.96"/>
</g>
<!-- block::block_prologue -->
<g id="node27" class="node">
<title>block::block_prologue</title>
<ellipse fill="none" stroke="black" cx="976" cy="-472" rx="65.79" ry="18"/>
<text text-anchor="middle" x="976" y="-468.3" font-family="Times,serif" font-size="14.00">block_prologue</text>
</g>
<!-- block::block_prologue&#45;&gt;reconfiguration::reconfigure -->
<g id="edge30" class="edge">
<title>block::block_prologue&#45;&gt;reconfiguration::reconfigure</title>
<path fill="none" stroke="black" d="M935.68,-457.47C923.62,-453.58 910.32,-449.46 898,-446 837.63,-429.03 767.53,-412.47 720.53,-401.82"/>
<polygon fill="black" stroke="black" points="721.39,-398.43 710.87,-399.64 719.85,-405.26 721.39,-398.43"/>
</g>
<!-- consensus_config::set -->
<g id="node28" class="node">
<title>consensus_config::set</title>
<ellipse fill="none" stroke="black" cx="363" cy="-472" rx="27" ry="18"/>
<text text-anchor="middle" x="363" y="-468.3" font-family="Times,serif" font-size="14.00">set</text>
</g>
<!-- consensus_config::set&#45;&gt;reconfiguration::reconfigure -->
<g id="edge31" class="edge">
<title>consensus_config::set&#45;&gt;reconfiguration::reconfigure</title>
<path fill="none" stroke="black" d="M380.51,-457.86C386.98,-453.53 394.56,-449.05 402,-446 469.43,-418.35 552.33,-403.66 607.27,-396.36"/>
<polygon fill="black" stroke="black" points="607.57,-399.85 617.05,-395.11 606.68,-392.91 607.57,-399.85"/>
</g>
<!-- gas_schedule::set_gas_schedule -->
<g id="node29" class="node">
<title>gas_schedule::set_gas_schedule</title>
<ellipse fill="none" stroke="black" cx="485" cy="-472" rx="71.49" ry="18"/>
<text text-anchor="middle" x="485" y="-468.3" font-family="Times,serif" font-size="14.00">set_gas_schedule</text>
</g>
<!-- gas_schedule::set_gas_schedule&#45;&gt;reconfiguration::reconfigure -->
<g id="edge32" class="edge">
<title>gas_schedule::set_gas_schedule&#45;&gt;reconfiguration::reconfigure</title>
<path fill="none" stroke="black" d="M519.23,-455.76C549.48,-442.3 593.67,-422.64 625.84,-408.32"/>
<polygon fill="black" stroke="black" points="627.16,-411.56 634.87,-404.3 624.31,-405.17 627.16,-411.56"/>
</g>
<!-- gas_schedule::set_storage_gas_config -->
<g id="node30" class="node">
<title>gas_schedule::set_storage_gas_config</title>
<ellipse fill="none" stroke="black" cx="667" cy="-472" rx="92.88" ry="18"/>
<text text-anchor="middle" x="667" y="-468.3" font-family="Times,serif" font-size="14.00">set_storage_gas_config</text>
</g>
<!-- gas_schedule::set_storage_gas_config&#45;&gt;reconfiguration::reconfigure -->
<g id="edge33" class="edge">
<title>gas_schedule::set_storage_gas_config&#45;&gt;reconfiguration::reconfigure</title>
<path fill="none" stroke="black" d="M667,-453.82C667,-443.69 667,-430.6 667,-418.92"/>
<polygon fill="black" stroke="black" points="670.5,-418.95 667,-408.95 663.5,-418.95 670.5,-418.95"/>
</g>
<!-- version::set_version -->
<g id="node31" class="node">
<title>version::set_version</title>
<ellipse fill="none" stroke="black" cx="835" cy="-472" rx="50.89" ry="18"/>
<text text-anchor="middle" x="835" y="-468.3" font-family="Times,serif" font-size="14.00">set_version</text>
</g>
<!-- version::set_version&#45;&gt;reconfiguration::reconfigure -->
<g id="edge34" class="edge">
<title>version::set_version&#45;&gt;reconfiguration::reconfigure</title>
<path fill="none" stroke="black" d="M805.74,-456.89C778.24,-443.63 736.88,-423.69 706.47,-409.03"/>
<polygon fill="black" stroke="black" points="708.1,-405.93 697.57,-404.74 705.06,-412.24 708.1,-405.93"/>
</g>
<!-- genesis::initialize_for_verification -->
<g id="node32" class="node">
<title>genesis::initialize_for_verification</title>
<ellipse fill="none" stroke="black" cx="1859" cy="-849" rx="100.98" ry="18"/>
<text text-anchor="middle" x="1859" y="-845.3" font-family="Times,serif" font-size="14.00">initialize_for_verification</text>
</g>
<!-- genesis::initialize_for_verification&#45;&gt;genesis::create_initialize_validators_with_commission -->
<g id="edge35" class="edge">
<title>genesis::initialize_for_verification&#45;&gt;genesis::create_initialize_validators_with_commission</title>
<path fill="none" stroke="black" d="M1820.23,-831.94C1796.86,-822.26 1766.83,-809.82 1741.49,-799.33"/>
<polygon fill="black" stroke="black" points="1742.93,-796.13 1732.35,-795.54 1740.25,-802.6 1742.93,-796.13"/>
</g>
<!-- genesis::initialize_for_verification&#45;&gt;genesis::create_employee_validators -->
<g id="edge42" class="edge">
<title>genesis::initialize_for_verification&#45;&gt;genesis::create_employee_validators</title>
<path fill="none" stroke="black" d="M1865.36,-830.85C1871.18,-812.86 1878.15,-783.81 1873,-759 1871.21,-750.36 1867.93,-741.39 1864.4,-733.35"/>
<polygon fill="black" stroke="black" points="1867.62,-731.99 1860.19,-724.44 1861.29,-734.98 1867.62,-731.99"/>
</g>
<!-- genesis::create_initialize_validators -->
<g id="node33" class="node">
<title>genesis::create_initialize_validators</title>
<ellipse fill="none" stroke="black" cx="1634" cy="-849" rx="105.88" ry="18"/>
<text text-anchor="middle" x="1634" y="-845.3" font-family="Times,serif" font-size="14.00">create_initialize_validators</text>
</g>
<!-- genesis::create_initialize_validators&#45;&gt;genesis::create_initialize_validators_with_commission -->
<g id="edge36" class="edge">
<title>genesis::create_initialize_validators&#45;&gt;genesis::create_initialize_validators_with_commission</title>
<path fill="none" stroke="black" d="M1647.84,-830.7C1654.29,-822.64 1662.08,-812.89 1669.21,-803.98"/>
<polygon fill="black" stroke="black" points="1671.86,-806.28 1675.37,-796.29 1666.39,-801.91 1671.86,-806.28"/>
</g>
<!-- aptos_governance::create_proposal -->
<g id="node34" class="node">
<title>aptos_governance::create_proposal</title>
<ellipse fill="none" stroke="black" cx="82" cy="-472" rx="66.09" ry="18"/>
<text text-anchor="middle" x="82" y="-468.3" font-family="Times,serif" font-size="14.00">create_proposal</text>
</g>
<!-- aptos_governance::create_proposal&#45;&gt;aptos_governance::create_proposal_v2 -->
<g id="edge37" class="edge">
<title>aptos_governance::create_proposal&#45;&gt;aptos_governance::create_proposal_v2</title>
<path fill="none" stroke="black" d="M101.43,-454.61C115.26,-442.94 134.07,-427.07 149.58,-413.98"/>
<polygon fill="black" stroke="black" points="151.73,-416.75 157.12,-407.62 147.22,-411.39 151.73,-416.75"/>
</g>
<!-- staking_contract::create_stake_pool&#45;&gt;stake::initialize_stake_owner -->
<g id="edge40" class="edge">
<title>staking_contract::create_stake_pool&#45;&gt;stake::initialize_stake_owner</title>
<path fill="none" stroke="black" d="M1405.09,-370.82C1408.16,-360.48 1412.13,-347.05 1415.65,-335.18"/>
<polygon fill="black" stroke="black" points="1418.92,-336.47 1418.4,-325.88 1412.21,-334.48 1418.92,-336.47"/>
</g>
</g>
</svg>
