<?xml version="1.0" encoding="UTF-8" standalone="no"?>
<!DOCTYPE svg PUBLIC "-//W3C//DTD SVG 1.1//EN"
 "http://www.w3.org/Graphics/SVG/1.1/DTD/svg11.dtd">
<!-- Generated by graphviz version 7.0.4 (20221203.1631)
 -->
<!-- Title: G Pages: 1 -->
<svg width="1213pt" height="734pt"
 viewBox="0.00 0.00 1213.09 734.00" xmlns="http://www.w3.org/2000/svg" xmlns:xlink="http://www.w3.org/1999/xlink">
<g id="graph0" class="graph" transform="scale(1 1) rotate(0) translate(4 730)">
<title>G</title>
<polygon fill="white" stroke="none" points="-4,4 -4,-730 1209.09,-730 1209.09,4 -4,4"/>
<g id="clust1" class="cluster">
<title>cluster_staking_contract</title>
<polygon fill="none" stroke="black" points="257.09,-280 257.09,-499 571.09,-499 571.09,-280 257.09,-280"/>
<text text-anchor="middle" x="414.09" y="-483.8" font-family="Times,serif" font-size="14.00">staking_contract</text>
</g>
<g id="clust2" class="cluster">
<title>cluster_genesis</title>
<polygon fill="none" stroke="black" points="737.09,-424 737.09,-718 1197.09,-718 1197.09,-424 737.09,-424"/>
<text text-anchor="middle" x="967.09" y="-702.8" font-family="Times,serif" font-size="14.00">genesis</text>
</g>
<g id="clust3" class="cluster">
<title>cluster_vesting</title>
<polygon fill="none" stroke="black" points="45.09,-424 45.09,-499 249.09,-499 249.09,-424 45.09,-424"/>
<text text-anchor="middle" x="147.09" y="-483.8" font-family="Times,serif" font-size="14.00">vesting</text>
</g>
<!-- update_voting_power_increase -->
<g id="node1" class="node">
<title>update_voting_power_increase</title>
<ellipse fill="none" stroke="black" cx="602.09" cy="-18" rx="120.48" ry="18"/>
<text text-anchor="middle" x="602.09" y="-14.3" font-family="Times,serif" font-size="14.00">update_voting_power_increase</text>
</g>
<!-- add_stake_with_cap -->
<g id="node2" class="node">
<title>add_stake_with_cap</title>
<ellipse fill="none" stroke="black" cx="547.09" cy="-90" rx="82.59" ry="18"/>
<text text-anchor="middle" x="547.09" y="-86.3" font-family="Times,serif" font-size="14.00">add_stake_with_cap</text>
</g>
<!-- add_stake_with_cap&#45;&gt;update_voting_power_increase -->
<g id="edge1" class="edge">
<title>add_stake_with_cap&#45;&gt;update_voting_power_increase</title>
<path fill="none" stroke="black" d="M560.4,-72.05C566.72,-64.01 574.42,-54.2 581.48,-45.23"/>
<polygon fill="black" stroke="black" points="584.15,-47.49 587.58,-37.47 578.65,-43.17 584.15,-47.49"/>
</g>
<!-- join_validator_set_internal -->
<g id="node3" class="node">
<title>join_validator_set_internal</title>
<ellipse fill="none" stroke="black" cx="700.09" cy="-378" rx="105.08" ry="18"/>
<text text-anchor="middle" x="700.09" y="-374.3" font-family="Times,serif" font-size="14.00">join_validator_set_internal</text>
</g>
<!-- join_validator_set_internal&#45;&gt;update_voting_power_increase -->
<g id="edge2" class="edge">
<title>join_validator_set_internal&#45;&gt;update_voting_power_increase</title>
<path fill="none" stroke="black" d="M696.24,-359.61C690.69,-332.94 681.09,-280.27 681.09,-235 681.09,-235 681.09,-235 681.09,-161 681.09,-115.63 649.91,-71.22 626.73,-44.48"/>
<polygon fill="black" stroke="black" points="629.52,-42.35 620.24,-37.23 624.3,-47.02 629.52,-42.35"/>
</g>
<!-- add_stake -->
<g id="node4" class="node">
<title>add_stake</title>
<ellipse fill="none" stroke="black" cx="428.09" cy="-162" rx="46.29" ry="18"/>
<text text-anchor="middle" x="428.09" y="-158.3" font-family="Times,serif" font-size="14.00">add_stake</text>
</g>
<!-- add_stake&#45;&gt;add_stake_with_cap -->
<g id="edge3" class="edge">
<title>add_stake&#45;&gt;add_stake_with_cap</title>
<path fill="none" stroke="black" d="M452.74,-146.5C469.17,-136.83 491.07,-123.95 509.63,-113.03"/>
<polygon fill="black" stroke="black" points="511.4,-116.05 518.24,-107.97 507.85,-110.02 511.4,-116.05"/>
</g>
<!-- staking_contract::add_stake -->
<g id="node5" class="node">
<title>staking_contract::add_stake</title>
<ellipse fill="none" stroke="black" cx="517.09" cy="-450" rx="46.29" ry="18"/>
<text text-anchor="middle" x="517.09" y="-446.3" font-family="Times,serif" font-size="14.00">add_stake</text>
</g>
<!-- staking_contract::add_stake&#45;&gt;add_stake_with_cap -->
<g id="edge4" class="edge">
<title>staking_contract::add_stake&#45;&gt;add_stake_with_cap</title>
<path fill="none" stroke="black" d="M528.58,-432.51C535.16,-422.39 543.08,-408.92 548.09,-396 562.7,-358.29 567.09,-347.45 567.09,-307 567.09,-307 567.09,-307 567.09,-233 567.09,-193.35 559.35,-148.08 553.5,-119.53"/>
<polygon fill="black" stroke="black" points="556.94,-118.92 551.45,-109.86 550.1,-120.37 556.94,-118.92"/>
</g>
<!-- staking_contract::create_staking_contract_with_coins -->
<g id="node6" class="node">
<title>staking_contract::create_staking_contract_with_coins</title>
<ellipse fill="none" stroke="black" cx="402.09" cy="-378" rx="137.28" ry="18"/>
<text text-anchor="middle" x="402.09" y="-374.3" font-family="Times,serif" font-size="14.00">create_staking_contract_with_coins</text>
</g>
<!-- staking_contract::create_staking_contract_with_coins&#45;&gt;add_stake_with_cap -->
<g id="edge5" class="edge">
<title>staking_contract::create_staking_contract_with_coins&#45;&gt;add_stake_with_cap</title>
<path fill="none" stroke="black" d="M440.17,-360.46C456.18,-351.75 473.68,-339.6 485.09,-324 531.01,-261.19 542.93,-166.74 546.02,-119.72"/>
<polygon fill="black" stroke="black" points="549.5,-120 546.56,-109.82 542.52,-119.61 549.5,-120"/>
</g>
<!-- staking_contract::create_stake_pool -->
<g id="node14" class="node">
<title>staking_contract::create_stake_pool</title>
<ellipse fill="none" stroke="black" cx="402.09" cy="-306" rx="74.19" ry="18"/>
<text text-anchor="middle" x="402.09" y="-302.3" font-family="Times,serif" font-size="14.00">create_stake_pool</text>
</g>
<!-- staking_contract::create_staking_contract_with_coins&#45;&gt;staking_contract::create_stake_pool -->
<g id="edge19" class="edge">
<title>staking_contract::create_staking_contract_with_coins&#45;&gt;staking_contract::create_stake_pool</title>
<path fill="none" stroke="black" d="M402.09,-359.7C402.09,-352.41 402.09,-343.73 402.09,-335.54"/>
<polygon fill="black" stroke="black" points="405.59,-335.62 402.09,-325.62 398.59,-335.62 405.59,-335.62"/>
</g>
<!-- join_validator_set -->
<g id="node7" class="node">
<title>join_validator_set</title>
<ellipse fill="none" stroke="black" cx="655.09" cy="-450" rx="74.19" ry="18"/>
<text text-anchor="middle" x="655.09" y="-446.3" font-family="Times,serif" font-size="14.00">join_validator_set</text>
</g>
<!-- join_validator_set&#45;&gt;join_validator_set_internal -->
<g id="edge6" class="edge">
<title>join_validator_set&#45;&gt;join_validator_set_internal</title>
<path fill="none" stroke="black" d="M665.98,-432.05C671.04,-424.18 677.19,-414.62 682.86,-405.79"/>
<polygon fill="black" stroke="black" points="685.7,-407.85 688.16,-397.55 679.81,-404.07 685.7,-407.85"/>
</g>
<!-- genesis::initialize_validator -->
<g id="node8" class="node">
<title>genesis::initialize_validator</title>
<ellipse fill="none" stroke="black" cx="848.09" cy="-450" rx="77.19" ry="18"/>
<text text-anchor="middle" x="848.09" y="-446.3" font-family="Times,serif" font-size="14.00">initialize_validator</text>
</g>
<!-- genesis::initialize_validator&#45;&gt;join_validator_set_internal -->
<g id="edge7" class="edge">
<title>genesis::initialize_validator&#45;&gt;join_validator_set_internal</title>
<path fill="none" stroke="black" d="M814.87,-433.29C794.27,-423.55 767.54,-410.9 745.05,-400.27"/>
<polygon fill="black" stroke="black" points="746.64,-397.15 736.1,-396.03 743.64,-403.47 746.64,-397.15"/>
</g>
<!-- initialize_stake_owner -->
<g id="node9" class="node">
<title>initialize_stake_owner</title>
<ellipse fill="none" stroke="black" cx="402.09" cy="-234" rx="90.18" ry="18"/>
<text text-anchor="middle" x="402.09" y="-230.3" font-family="Times,serif" font-size="14.00">initialize_stake_owner</text>
</g>
<!-- initialize_stake_owner&#45;&gt;add_stake -->
<g id="edge8" class="edge">
<title>initialize_stake_owner&#45;&gt;add_stake</title>
<path fill="none" stroke="black" d="M408.51,-215.7C411.31,-208.15 414.67,-199.12 417.8,-190.68"/>
<polygon fill="black" stroke="black" points="421,-192.12 421.21,-181.52 414.44,-189.68 421,-192.12"/>
</g>
<!-- staking_contract::create_staking_contract -->
<g id="node10" class="node">
<title>staking_contract::create_staking_contract</title>
<ellipse fill="none" stroke="black" cx="359.09" cy="-450" rx="94.48" ry="18"/>
<text text-anchor="middle" x="359.09" y="-446.3" font-family="Times,serif" font-size="14.00">create_staking_contract</text>
</g>
<!-- staking_contract::create_staking_contract&#45;&gt;staking_contract::create_staking_contract_with_coins -->
<g id="edge9" class="edge">
<title>staking_contract::create_staking_contract&#45;&gt;staking_contract::create_staking_contract_with_coins</title>
<path fill="none" stroke="black" d="M369.71,-431.7C374.51,-423.9 380.27,-414.51 385.6,-405.83"/>
<polygon fill="black" stroke="black" points="388.53,-407.75 390.79,-397.39 382.57,-404.08 388.53,-407.75"/>
</g>
<!-- vesting::create_vesting_contract -->
<g id="node11" class="node">
<title>vesting::create_vesting_contract</title>
<ellipse fill="none" stroke="black" cx="147.09" cy="-450" rx="94.48" ry="18"/>
<text text-anchor="middle" x="147.09" y="-446.3" font-family="Times,serif" font-size="14.00">create_vesting_contract</text>
</g>
<!-- vesting::create_vesting_contract&#45;&gt;staking_contract::create_staking_contract_with_coins -->
<g id="edge10" class="edge">
<title>vesting::create_vesting_contract&#45;&gt;staking_contract::create_staking_contract_with_coins</title>
<path fill="none" stroke="black" d="M199.3,-434.67C238.09,-424.02 291.37,-409.39 333.58,-397.81"/>
<polygon fill="black" stroke="black" points="334.43,-401.2 343.15,-395.18 332.58,-394.45 334.43,-401.2"/>
</g>
<!-- genesis::create_employee_validators -->
<g id="node12" class="node">
<title>genesis::create_employee_validators</title>
<ellipse fill="none" stroke="black" cx="1079.09" cy="-525" rx="109.68" ry="18"/>
<text text-anchor="middle" x="1079.09" y="-521.3" font-family="Times,serif" font-size="14.00">create_employee_validators</text>
</g>
<!-- genesis::create_employee_validators&#45;&gt;genesis::initialize_validator -->
<g id="edge11" class="edge">
<title>genesis::create_employee_validators&#45;&gt;genesis::initialize_validator</title>
<path fill="none" stroke="black" d="M1030.1,-508.52C992.93,-496.77 941.83,-480.63 903.23,-468.43"/>
<polygon fill="black" stroke="black" points="904.73,-465.23 894.14,-465.56 902.63,-471.91 904.73,-465.23"/>
</g>
<!-- genesis::create_employee_validators&#45;&gt;vesting::create_vesting_contract -->
<g id="edge16" class="edge">
<title>genesis::create_employee_validators&#45;&gt;vesting::create_vesting_contract</title>
<path fill="none" stroke="black" d="M1003.07,-511.63C988.82,-509.74 974.03,-508.07 960.09,-507 920.92,-503.99 291.43,-507.51 253.09,-499 229.51,-493.77 204.85,-482.96 185.25,-472.92"/>
<polygon fill="black" stroke="black" points="187.02,-469.9 176.54,-468.33 183.75,-476.09 187.02,-469.9"/>
</g>
<!-- genesis::create_initialize_validator -->
<g id="node13" class="node">
<title>genesis::create_initialize_validator</title>
<ellipse fill="none" stroke="black" cx="848.09" cy="-525" rx="102.88" ry="18"/>
<text text-anchor="middle" x="848.09" y="-521.3" font-family="Times,serif" font-size="14.00">create_initialize_validator</text>
</g>
<!-- genesis::create_initialize_validator&#45;&gt;genesis::initialize_validator -->
<g id="edge12" class="edge">
<title>genesis::create_initialize_validator&#45;&gt;genesis::initialize_validator</title>
<path fill="none" stroke="black" d="M848.09,-506.7C848.09,-498.67 848.09,-488.9 848.09,-479.8"/>
<polygon fill="black" stroke="black" points="851.59,-479.94 848.09,-469.94 844.59,-479.94 851.59,-479.94"/>
</g>
<!-- genesis::create_initialize_validator&#45;&gt;initialize_stake_owner -->
<g id="edge14" class="edge">
<title>genesis::create_initialize_validator&#45;&gt;initialize_stake_owner</title>
<path fill="none" stroke="black" d="M745.1,-524.57C533,-525.24 65.19,-523.86 41.09,-499 -88.55,-365.29 120.36,-343.29 253.09,-280 278.27,-267.99 307.38,-258.35 333.14,-251.12"/>
<polygon fill="black" stroke="black" points="333.78,-254.57 342.5,-248.56 331.93,-247.82 333.78,-254.57"/>
</g>
<!-- genesis::create_initialize_validator&#45;&gt;staking_contract::create_staking_contract -->
<g id="edge15" class="edge">
<title>genesis::create_initialize_validator&#45;&gt;staking_contract::create_staking_contract</title>
<path fill="none" stroke="black" d="M746.56,-521.66C650.61,-518.69 513.89,-512.25 462.09,-499 439.67,-493.27 416.17,-482.71 397.29,-472.96"/>
<polygon fill="black" stroke="black" points="399.12,-469.97 388.65,-468.37 395.84,-476.15 399.12,-469.97"/>
</g>
<!-- staking_contract::create_stake_pool&#45;&gt;initialize_stake_owner -->
<g id="edge13" class="edge">
<title>staking_contract::create_stake_pool&#45;&gt;initialize_stake_owner</title>
<path fill="none" stroke="black" d="M402.09,-287.7C402.09,-280.41 402.09,-271.73 402.09,-263.54"/>
<polygon fill="black" stroke="black" points="405.59,-263.62 402.09,-253.62 398.59,-263.62 405.59,-263.62"/>
</g>
<!-- genesis::initialize_for_verification -->
<g id="node15" class="node">
<title>genesis::initialize_for_verification</title>
<ellipse fill="none" stroke="black" cx="1088.09" cy="-669" rx="100.98" ry="18"/>
<text text-anchor="middle" x="1088.09" y="-665.3" font-family="Times,serif" font-size="14.00">initialize_for_verification</text>
</g>
<!-- genesis::initialize_for_verification&#45;&gt;genesis::create_employee_validators -->
<g id="edge17" class="edge">
<title>genesis::initialize_for_verification&#45;&gt;genesis::create_employee_validators</title>
<path fill="none" stroke="black" d="M1094.45,-650.85C1100.26,-632.86 1107.24,-603.81 1102.09,-579 1100.29,-570.36 1097.01,-561.39 1093.48,-553.35"/>
<polygon fill="black" stroke="black" points="1096.71,-551.99 1089.27,-544.44 1090.38,-554.98 1096.71,-551.99"/>
</g>
<!-- genesis::create_initialize_validators_with_commission -->
<g id="node16" class="node">
<title>genesis::create_initialize_validators_with_commission</title>
<ellipse fill="none" stroke="black" cx="919.09" cy="-597" rx="173.57" ry="18"/>
<text text-anchor="middle" x="919.09" y="-593.3" font-family="Times,serif" font-size="14.00">create_initialize_validators_with_commission</text>
</g>
<!-- genesis::initialize_for_verification&#45;&gt;genesis::create_initialize_validators_with_commission -->
<g id="edge20" class="edge">
<title>genesis::initialize_for_verification&#45;&gt;genesis::create_initialize_validators_with_commission</title>
<path fill="none" stroke="black" d="M1049.31,-651.94C1025.95,-642.26 995.91,-629.82 970.57,-619.33"/>
<polygon fill="black" stroke="black" points="972.01,-616.13 961.43,-615.54 969.33,-622.6 972.01,-616.13"/>
</g>
<!-- genesis::create_initialize_validators_with_commission&#45;&gt;genesis::create_initialize_validator -->
<g id="edge18" class="edge">
<title>genesis::create_initialize_validators_with_commission&#45;&gt;genesis::create_initialize_validator</title>
<path fill="none" stroke="black" d="M901.53,-578.7C893.11,-570.39 882.85,-560.28 873.59,-551.14"/>
<polygon fill="black" stroke="black" points="876.09,-548.7 866.51,-544.17 871.18,-553.68 876.09,-548.7"/>
</g>
<!-- genesis::create_initialize_validators -->
<g id="node17" class="node">
<title>genesis::create_initialize_validators</title>
<ellipse fill="none" stroke="black" cx="863.09" cy="-669" rx="105.88" ry="18"/>
<text text-anchor="middle" x="863.09" y="-665.3" font-family="Times,serif" font-size="14.00">create_initialize_validators</text>
</g>
<!-- genesis::create_initialize_validators&#45;&gt;genesis::create_initialize_validators_with_commission -->
<g id="edge21" class="edge">
<title>genesis::create_initialize_validators&#45;&gt;genesis::create_initialize_validators_with_commission</title>
<path fill="none" stroke="black" d="M876.93,-650.7C883.37,-642.64 891.17,-632.89 898.3,-623.98"/>
<polygon fill="black" stroke="black" points="900.94,-626.28 904.46,-616.29 895.48,-621.91 900.94,-626.28"/>
</g>
</g>
</svg>
