<?xml version="1.0" encoding="UTF-8" standalone="no"?>
<!DOCTYPE svg PUBLIC "-//W3C//DTD SVG 1.1//EN"
 "http://www.w3.org/Graphics/SVG/1.1/DTD/svg11.dtd">
<!-- Generated by graphviz version 7.0.4 (20221203.1631)
 -->
<!-- Title: G Pages: 1 -->
<svg width="1954pt" height="745pt"
 viewBox="0.00 0.00 1953.54 745.00" xmlns="http://www.w3.org/2000/svg" xmlns:xlink="http://www.w3.org/1999/xlink">
<g id="graph0" class="graph" transform="scale(1 1) rotate(0) translate(4 741)">
<title>G</title>
<polygon fill="white" stroke="none" points="-4,4 -4,-741 1949.54,-741 1949.54,4 -4,4"/>
<g id="clust1" class="cluster">
<title>cluster_staking_contract</title>
<polygon fill="none" stroke="black" points="256.54,-280 256.54,-499 570.54,-499 570.54,-280 256.54,-280"/>
<text text-anchor="middle" x="413.54" y="-483.8" font-family="Times,serif" font-size="14.00">staking_contract</text>
</g>
<g id="clust2" class="cluster">
<title>cluster_genesis</title>
<polygon fill="none" stroke="black" points="578.54,-424 578.54,-729 1038.54,-729 1038.54,-424 578.54,-424"/>
<text text-anchor="middle" x="808.54" y="-713.8" font-family="Times,serif" font-size="14.00">genesis</text>
</g>
<g id="clust3" class="cluster">
<title>cluster_vesting</title>
<polygon fill="none" stroke="black" points="44.54,-424 44.54,-499 248.54,-499 248.54,-424 44.54,-424"/>
<text text-anchor="middle" x="146.54" y="-483.8" font-family="Times,serif" font-size="14.00">vesting</text>
</g>
<g id="clust4" class="cluster">
<title>cluster_reconfiguration</title>
<polygon fill="none" stroke="black" points="1365.54,-571 1365.54,-646 1483.54,-646 1483.54,-571 1365.54,-571"/>
<text text-anchor="middle" x="1424.54" y="-630.8" font-family="Times,serif" font-size="14.00">reconfiguration</text>
</g>
<g id="clust5" class="cluster">
<title>cluster_aptos_governance</title>
<polygon fill="none" stroke="black" points="1819.54,-654 1819.54,-729 1937.54,-729 1937.54,-654 1819.54,-654"/>
<text text-anchor="middle" x="1878.54" y="-713.8" font-family="Times,serif" font-size="14.00">aptos_governance</text>
</g>
<g id="clust6" class="cluster">
<title>cluster_block</title>
<polygon fill="none" stroke="black" points="1046.54,-654 1046.54,-729 1194.54,-729 1194.54,-654 1046.54,-654"/>
<text text-anchor="middle" x="1120.54" y="-713.8" font-family="Times,serif" font-size="14.00">block</text>
</g>
<g id="clust7" class="cluster">
<title>cluster_consensus_config</title>
<polygon fill="none" stroke="black" points="1202.54,-654 1202.54,-729 1315.54,-729 1315.54,-654 1202.54,-654"/>
<text text-anchor="middle" x="1259.04" y="-713.8" font-family="Times,serif" font-size="14.00">consensus_config</text>
</g>
<g id="clust8" class="cluster">
<title>cluster_gas_schedule</title>
<polygon fill="none" stroke="black" points="1323.54,-654 1323.54,-729 1685.54,-729 1685.54,-654 1323.54,-654"/>
<text text-anchor="middle" x="1504.54" y="-713.8" font-family="Times,serif" font-size="14.00">gas_schedule</text>
</g>
<g id="clust9" class="cluster">
<title>cluster_version</title>
<polygon fill="none" stroke="black" points="1693.54,-654 1693.54,-729 1811.54,-729 1811.54,-654 1693.54,-654"/>
<text text-anchor="middle" x="1752.54" y="-713.8" font-family="Times,serif" font-size="14.00">version</text>
</g>
<!-- get_next_epoch_voting_power -->
<g id="node1" class="node">
<title>get_next_epoch_voting_power</title>
<ellipse fill="none" stroke="black" cx="961.54" cy="-18" rx="119.68" ry="18"/>
<text text-anchor="middle" x="961.54" y="-14.3" font-family="Times,serif" font-size="14.00">get_next_epoch_voting_power</text>
</g>
<!-- add_stake_with_cap -->
<g id="node2" class="node">
<title>add_stake_with_cap</title>
<ellipse fill="none" stroke="black" cx="543.54" cy="-90" rx="82.59" ry="18"/>
<text text-anchor="middle" x="543.54" y="-86.3" font-family="Times,serif" font-size="14.00">add_stake_with_cap</text>
</g>
<!-- add_stake_with_cap&#45;&gt;get_next_epoch_voting_power -->
<g id="edge1" class="edge">
<title>add_stake_with_cap&#45;&gt;get_next_epoch_voting_power</title>
<path fill="none" stroke="black" d="M607.48,-78.29C678.36,-66.42 793.16,-47.2 872.74,-33.87"/>
<polygon fill="black" stroke="black" points="872.94,-37.38 882.23,-32.28 871.79,-30.48 872.94,-37.38"/>
</g>
<!-- generate_validator_info -->
<g id="node3" class="node">
<title>generate_validator_info</title>
<ellipse fill="none" stroke="black" cx="1065.54" cy="-306" rx="94.78" ry="18"/>
<text text-anchor="middle" x="1065.54" y="-302.3" font-family="Times,serif" font-size="14.00">generate_validator_info</text>
</g>
<!-- generate_validator_info&#45;&gt;get_next_epoch_voting_power -->
<g id="edge2" class="edge">
<title>generate_validator_info&#45;&gt;get_next_epoch_voting_power</title>
<path fill="none" stroke="black" d="M1059.34,-287.97C1042.04,-240.39 993.08,-105.75 971.72,-47"/>
<polygon fill="black" stroke="black" points="975.05,-45.93 968.35,-37.73 968.47,-48.32 975.05,-45.93"/>
</g>
<!-- join_validator_set_internal -->
<g id="node4" class="node">
<title>join_validator_set_internal</title>
<ellipse fill="none" stroke="black" cx="1004.54" cy="-378" rx="105.08" ry="18"/>
<text text-anchor="middle" x="1004.54" y="-374.3" font-family="Times,serif" font-size="14.00">join_validator_set_internal</text>
</g>
<!-- join_validator_set_internal&#45;&gt;get_next_epoch_voting_power -->
<g id="edge3" class="edge">
<title>join_validator_set_internal&#45;&gt;get_next_epoch_voting_power</title>
<path fill="none" stroke="black" d="M987.08,-359.83C978.16,-350.1 967.87,-337.26 961.54,-324 944.09,-287.51 942.54,-275.45 942.54,-235 942.54,-235 942.54,-235 942.54,-161 942.54,-121.39 949.89,-76.11 955.45,-47.54"/>
<polygon fill="black" stroke="black" points="958.85,-48.37 957.39,-37.87 951.99,-46.98 958.85,-48.37"/>
</g>
<!-- join_validator_set_internal&#45;&gt;generate_validator_info -->
<g id="edge8" class="edge">
<title>join_validator_set_internal&#45;&gt;generate_validator_info</title>
<path fill="none" stroke="black" d="M1019.61,-359.7C1026.71,-351.56 1035.31,-341.69 1043.14,-332.7"/>
<polygon fill="black" stroke="black" points="1045.7,-335.08 1049.64,-325.25 1040.43,-330.49 1045.7,-335.08"/>
</g>
<!-- leave_validator_set -->
<g id="node5" class="node">
<title>leave_validator_set</title>
<ellipse fill="none" stroke="black" cx="1087.54" cy="-90" rx="79.09" ry="18"/>
<text text-anchor="middle" x="1087.54" y="-86.3" font-family="Times,serif" font-size="14.00">leave_validator_set</text>
</g>
<!-- leave_validator_set&#45;&gt;get_next_epoch_voting_power -->
<g id="edge4" class="edge">
<title>leave_validator_set&#45;&gt;get_next_epoch_voting_power</title>
<path fill="none" stroke="black" d="M1058.63,-72.94C1041.71,-63.54 1020.09,-51.53 1001.56,-41.23"/>
<polygon fill="black" stroke="black" points="1003.39,-38.25 992.95,-36.45 999.99,-44.37 1003.39,-38.25"/>
</g>
<!-- add_stake -->
<g id="node6" class="node">
<title>add_stake</title>
<ellipse fill="none" stroke="black" cx="427.54" cy="-162" rx="46.29" ry="18"/>
<text text-anchor="middle" x="427.54" y="-158.3" font-family="Times,serif" font-size="14.00">add_stake</text>
</g>
<!-- add_stake&#45;&gt;add_stake_with_cap -->
<g id="edge5" class="edge">
<title>add_stake&#45;&gt;add_stake_with_cap</title>
<path fill="none" stroke="black" d="M451.85,-146.33C467.7,-136.76 488.68,-124.1 506.57,-113.31"/>
<polygon fill="black" stroke="black" points="508.36,-116.31 515.11,-108.15 504.74,-110.32 508.36,-116.31"/>
</g>
<!-- staking_contract::add_stake -->
<g id="node7" class="node">
<title>staking_contract::add_stake</title>
<ellipse fill="none" stroke="black" cx="516.54" cy="-450" rx="46.29" ry="18"/>
<text text-anchor="middle" x="516.54" y="-446.3" font-family="Times,serif" font-size="14.00">add_stake</text>
</g>
<!-- staking_contract::add_stake&#45;&gt;add_stake_with_cap -->
<g id="edge6" class="edge">
<title>staking_contract::add_stake&#45;&gt;add_stake_with_cap</title>
<path fill="none" stroke="black" d="M528.03,-432.51C534.61,-422.39 542.53,-408.92 547.54,-396 562.15,-358.29 566.54,-347.45 566.54,-307 566.54,-307 566.54,-307 566.54,-233 566.54,-193.23 557.64,-147.99 550.91,-119.47"/>
<polygon fill="black" stroke="black" points="554.32,-118.7 548.55,-109.81 547.52,-120.36 554.32,-118.7"/>
</g>
<!-- staking_contract::create_staking_contract_with_coins -->
<g id="node8" class="node">
<title>staking_contract::create_staking_contract_with_coins</title>
<ellipse fill="none" stroke="black" cx="401.54" cy="-378" rx="137.28" ry="18"/>
<text text-anchor="middle" x="401.54" y="-374.3" font-family="Times,serif" font-size="14.00">create_staking_contract_with_coins</text>
</g>
<!-- staking_contract::create_staking_contract_with_coins&#45;&gt;add_stake_with_cap -->
<g id="edge7" class="edge">
<title>staking_contract::create_staking_contract_with_coins&#45;&gt;add_stake_with_cap</title>
<path fill="none" stroke="black" d="M440.14,-360.29C456.04,-351.61 473.33,-339.53 484.54,-324 529.94,-261.11 540.51,-166.7 542.9,-119.7"/>
<polygon fill="black" stroke="black" points="546.39,-119.94 543.3,-109.81 539.4,-119.66 546.39,-119.94"/>
</g>
<!-- staking_contract::create_stake_pool -->
<g id="node19" class="node">
<title>staking_contract::create_stake_pool</title>
<ellipse fill="none" stroke="black" cx="401.54" cy="-306" rx="74.19" ry="18"/>
<text text-anchor="middle" x="401.54" y="-302.3" font-family="Times,serif" font-size="14.00">create_stake_pool</text>
</g>
<!-- staking_contract::create_staking_contract_with_coins&#45;&gt;staking_contract::create_stake_pool -->
<g id="edge33" class="edge">
<title>staking_contract::create_staking_contract_with_coins&#45;&gt;staking_contract::create_stake_pool</title>
<path fill="none" stroke="black" d="M401.54,-359.7C401.54,-352.41 401.54,-343.73 401.54,-335.54"/>
<polygon fill="black" stroke="black" points="405.04,-335.62 401.54,-325.62 398.04,-335.62 405.04,-335.62"/>
</g>
<!-- on_new_epoch -->
<g id="node9" class="node">
<title>on_new_epoch</title>
<ellipse fill="none" stroke="black" cx="1222.54" cy="-525" rx="63.89" ry="18"/>
<text text-anchor="middle" x="1222.54" y="-521.3" font-family="Times,serif" font-size="14.00">on_new_epoch</text>
</g>
<!-- on_new_epoch&#45;&gt;generate_validator_info -->
<g id="edge9" class="edge">
<title>on_new_epoch&#45;&gt;generate_validator_info</title>
<path fill="none" stroke="black" d="M1222.66,-506.51C1222.08,-485.54 1218.66,-449.96 1203.54,-424 1179.74,-383.17 1136.26,-349.93 1104.44,-329.45"/>
<polygon fill="black" stroke="black" points="1106.59,-326.67 1096.26,-324.32 1102.87,-332.6 1106.59,-326.67"/>
</g>
<!-- join_validator_set -->
<g id="node10" class="node">
<title>join_validator_set</title>
<ellipse fill="none" stroke="black" cx="1120.54" cy="-450" rx="74.19" ry="18"/>
<text text-anchor="middle" x="1120.54" y="-446.3" font-family="Times,serif" font-size="14.00">join_validator_set</text>
</g>
<!-- join_validator_set&#45;&gt;join_validator_set_internal -->
<g id="edge10" class="edge">
<title>join_validator_set&#45;&gt;join_validator_set_internal</title>
<path fill="none" stroke="black" d="M1093.63,-432.76C1078.19,-423.45 1058.57,-411.61 1041.68,-401.41"/>
<polygon fill="black" stroke="black" points="1043.77,-398.59 1033.4,-396.42 1040.15,-404.58 1043.77,-398.59"/>
</g>
<!-- genesis::initialize_validator -->
<g id="node11" class="node">
<title>genesis::initialize_validator</title>
<ellipse fill="none" stroke="black" cx="920.54" cy="-450" rx="77.19" ry="18"/>
<text text-anchor="middle" x="920.54" y="-446.3" font-family="Times,serif" font-size="14.00">initialize_validator</text>
</g>
<!-- genesis::initialize_validator&#45;&gt;join_validator_set_internal -->
<g id="edge11" class="edge">
<title>genesis::initialize_validator&#45;&gt;join_validator_set_internal</title>
<path fill="none" stroke="black" d="M940.44,-432.41C950.96,-423.65 964.06,-412.73 975.67,-403.06"/>
<polygon fill="black" stroke="black" points="977.58,-406.02 983.03,-396.93 973.1,-400.64 977.58,-406.02"/>
</g>
<!-- initialize_stake_owner -->
<g id="node12" class="node">
<title>initialize_stake_owner</title>
<ellipse fill="none" stroke="black" cx="401.54" cy="-234" rx="90.18" ry="18"/>
<text text-anchor="middle" x="401.54" y="-230.3" font-family="Times,serif" font-size="14.00">initialize_stake_owner</text>
</g>
<!-- initialize_stake_owner&#45;&gt;add_stake -->
<g id="edge12" class="edge">
<title>initialize_stake_owner&#45;&gt;add_stake</title>
<path fill="none" stroke="black" d="M407.96,-215.7C410.76,-208.15 414.12,-199.12 417.25,-190.68"/>
<polygon fill="black" stroke="black" points="420.45,-192.12 420.66,-181.52 413.89,-189.68 420.45,-192.12"/>
</g>
<!-- staking_contract::create_staking_contract -->
<g id="node13" class="node">
<title>staking_contract::create_staking_contract</title>
<ellipse fill="none" stroke="black" cx="358.54" cy="-450" rx="94.48" ry="18"/>
<text text-anchor="middle" x="358.54" y="-446.3" font-family="Times,serif" font-size="14.00">create_staking_contract</text>
</g>
<!-- staking_contract::create_staking_contract&#45;&gt;staking_contract::create_staking_contract_with_coins -->
<g id="edge13" class="edge">
<title>staking_contract::create_staking_contract&#45;&gt;staking_contract::create_staking_contract_with_coins</title>
<path fill="none" stroke="black" d="M369.16,-431.7C373.96,-423.9 379.72,-414.51 385.05,-405.83"/>
<polygon fill="black" stroke="black" points="387.98,-407.75 390.24,-397.39 382.02,-404.08 387.98,-407.75"/>
</g>
<!-- vesting::create_vesting_contract -->
<g id="node14" class="node">
<title>vesting::create_vesting_contract</title>
<ellipse fill="none" stroke="black" cx="146.54" cy="-450" rx="94.48" ry="18"/>
<text text-anchor="middle" x="146.54" y="-446.3" font-family="Times,serif" font-size="14.00">create_vesting_contract</text>
</g>
<!-- vesting::create_vesting_contract&#45;&gt;staking_contract::create_staking_contract_with_coins -->
<g id="edge14" class="edge">
<title>vesting::create_vesting_contract&#45;&gt;staking_contract::create_staking_contract_with_coins</title>
<path fill="none" stroke="black" d="M198.75,-434.67C237.54,-424.02 290.82,-409.39 333.03,-397.81"/>
<polygon fill="black" stroke="black" points="333.88,-401.2 342.6,-395.18 332.03,-394.45 333.88,-401.2"/>
</g>
<!-- reconfiguration::reconfigure -->
<g id="node15" class="node">
<title>reconfiguration::reconfigure</title>
<ellipse fill="none" stroke="black" cx="1424.54" cy="-597" rx="51.19" ry="18"/>
<text text-anchor="middle" x="1424.54" y="-593.3" font-family="Times,serif" font-size="14.00">reconfigure</text>
</g>
<!-- reconfiguration::reconfigure&#45;&gt;on_new_epoch -->
<g id="edge15" class="edge">
<title>reconfiguration::reconfigure&#45;&gt;on_new_epoch</title>
<path fill="none" stroke="black" d="M1388.89,-583.65C1356.55,-572.44 1308.56,-555.81 1272.42,-543.29"/>
<polygon fill="black" stroke="black" points="1273.65,-540.01 1263.05,-540.04 1271.35,-546.62 1273.65,-540.01"/>
</g>
<!-- genesis::create_initialize_validators_with_commission -->
<g id="node16" class="node">
<title>genesis::create_initialize_validators_with_commission</title>
<ellipse fill="none" stroke="black" cx="760.54" cy="-597" rx="173.57" ry="18"/>
<text text-anchor="middle" x="760.54" y="-593.3" font-family="Times,serif" font-size="14.00">create_initialize_validators_with_commission</text>
</g>
<!-- genesis::create_initialize_validators_with_commission&#45;&gt;on_new_epoch -->
<g id="edge16" class="edge">
<title>genesis::create_initialize_validators_with_commission&#45;&gt;on_new_epoch</title>
<path fill="none" stroke="black" d="M855.98,-581.54C945.64,-567.95 1077.45,-547.98 1156.17,-536.06"/>
<polygon fill="black" stroke="black" points="1156.52,-539.54 1165.89,-534.58 1155.47,-532.62 1156.52,-539.54"/>
</g>
<!-- genesis::create_initialize_validator -->
<g id="node18" class="node">
<title>genesis::create_initialize_validator</title>
<ellipse fill="none" stroke="black" cx="689.54" cy="-525" rx="102.88" ry="18"/>
<text text-anchor="middle" x="689.54" y="-521.3" font-family="Times,serif" font-size="14.00">create_initialize_validator</text>
</g>
<!-- genesis::create_initialize_validators_with_commission&#45;&gt;genesis::create_initialize_validator -->
<g id="edge32" class="edge">
<title>genesis::create_initialize_validators_with_commission&#45;&gt;genesis::create_initialize_validator</title>
<path fill="none" stroke="black" d="M742.99,-578.7C734.56,-570.39 724.3,-560.28 715.04,-551.14"/>
<polygon fill="black" stroke="black" points="717.54,-548.7 707.96,-544.17 712.63,-553.68 717.54,-548.7"/>
</g>
<!-- genesis::create_employee_validators -->
<g id="node17" class="node">
<title>genesis::create_employee_validators</title>
<ellipse fill="none" stroke="black" cx="920.54" cy="-525" rx="109.68" ry="18"/>
<text text-anchor="middle" x="920.54" y="-521.3" font-family="Times,serif" font-size="14.00">create_employee_validators</text>
</g>
<!-- genesis::create_employee_validators&#45;&gt;genesis::initialize_validator -->
<g id="edge17" class="edge">
<title>genesis::create_employee_validators&#45;&gt;genesis::initialize_validator</title>
<path fill="none" stroke="black" d="M920.54,-506.7C920.54,-498.67 920.54,-488.9 920.54,-479.8"/>
<polygon fill="black" stroke="black" points="924.04,-479.94 920.54,-469.94 917.04,-479.94 924.04,-479.94"/>
</g>
<!-- genesis::create_employee_validators&#45;&gt;vesting::create_vesting_contract -->
<g id="edge22" class="edge">
<title>genesis::create_employee_validators&#45;&gt;vesting::create_vesting_contract</title>
<path fill="none" stroke="black" d="M844.52,-511.67C830.27,-509.78 815.48,-508.09 801.54,-507 740.72,-502.23 312.07,-512.31 252.54,-499 228.97,-493.73 204.31,-482.92 184.7,-472.89"/>
<polygon fill="black" stroke="black" points="186.48,-469.87 176,-468.3 183.21,-476.06 186.48,-469.87"/>
</g>
<!-- genesis::create_initialize_validator&#45;&gt;genesis::initialize_validator -->
<g id="edge18" class="edge">
<title>genesis::create_initialize_validator&#45;&gt;genesis::initialize_validator</title>
<path fill="none" stroke="black" d="M737.96,-508.7C775.21,-496.93 826.69,-480.66 865.5,-468.39"/>
<polygon fill="black" stroke="black" points="866.16,-471.85 874.64,-465.5 864.05,-465.18 866.16,-471.85"/>
</g>
<!-- genesis::create_initialize_validator&#45;&gt;initialize_stake_owner -->
<g id="edge20" class="edge">
<title>genesis::create_initialize_validator&#45;&gt;initialize_stake_owner</title>
<path fill="none" stroke="black" d="M586.42,-523.72C408.07,-522.73 59.12,-518.31 40.54,-499 -88.43,-364.97 122.09,-342.21 252.54,-280 277.72,-267.99 306.83,-258.35 332.59,-251.12"/>
<polygon fill="black" stroke="black" points="333.23,-254.57 341.95,-248.56 331.38,-247.82 333.23,-254.57"/>
</g>
<!-- genesis::create_initialize_validator&#45;&gt;staking_contract::create_staking_contract -->
<g id="edge21" class="edge">
<title>genesis::create_initialize_validator&#45;&gt;staking_contract::create_staking_contract</title>
<path fill="none" stroke="black" d="M590,-520.16C549.57,-516.78 502.76,-510.53 461.54,-499 439.41,-492.81 416.11,-482.33 397.27,-472.73"/>
<polygon fill="black" stroke="black" points="399.13,-469.75 388.64,-468.22 395.89,-475.95 399.13,-469.75"/>
</g>
<!-- staking_contract::create_stake_pool&#45;&gt;initialize_stake_owner -->
<g id="edge19" class="edge">
<title>staking_contract::create_stake_pool&#45;&gt;initialize_stake_owner</title>
<path fill="none" stroke="black" d="M401.54,-287.7C401.54,-280.41 401.54,-271.73 401.54,-263.54"/>
<polygon fill="black" stroke="black" points="405.04,-263.62 401.54,-253.62 398.04,-263.62 405.04,-263.62"/>
</g>
<!-- aptos_governance::reconfigure -->
<g id="node20" class="node">
<title>aptos_governance::reconfigure</title>
<ellipse fill="none" stroke="black" cx="1878.54" cy="-680" rx="51.19" ry="18"/>
<text text-anchor="middle" x="1878.54" y="-676.3" font-family="Times,serif" font-size="14.00">reconfigure</text>
</g>
<!-- aptos_governance::reconfigure&#45;&gt;reconfiguration::reconfigure -->
<g id="edge23" class="edge">
<title>aptos_governance::reconfigure&#45;&gt;reconfiguration::reconfigure</title>
<path fill="none" stroke="black" d="M1847.94,-665.18C1837.8,-661.06 1826.34,-656.87 1815.54,-654 1701.21,-623.59 1563.41,-608.73 1485.69,-602.28"/>
<polygon fill="black" stroke="black" points="1486.42,-598.83 1476.17,-601.51 1485.86,-605.8 1486.42,-598.83"/>
</g>
<!-- block::block_prologue -->
<g id="node21" class="node">
<title>block::block_prologue</title>
<ellipse fill="none" stroke="black" cx="1120.54" cy="-680" rx="65.79" ry="18"/>
<text text-anchor="middle" x="1120.54" y="-676.3" font-family="Times,serif" font-size="14.00">block_prologue</text>
</g>
<!-- block::block_prologue&#45;&gt;reconfiguration::reconfigure -->
<g id="edge24" class="edge">
<title>block::block_prologue&#45;&gt;reconfiguration::reconfigure</title>
<path fill="none" stroke="black" d="M1160.86,-665.5C1172.93,-661.62 1186.22,-657.49 1198.54,-654 1257.15,-637.37 1325.09,-620.91 1371.05,-610.18"/>
<polygon fill="black" stroke="black" points="1371.82,-613.6 1380.77,-607.93 1370.24,-606.78 1371.82,-613.6"/>
</g>
<!-- consensus_config::set -->
<g id="node22" class="node">
<title>consensus_config::set</title>
<ellipse fill="none" stroke="black" cx="1280.54" cy="-680" rx="27" ry="18"/>
<text text-anchor="middle" x="1280.54" y="-676.3" font-family="Times,serif" font-size="14.00">set</text>
</g>
<!-- consensus_config::set&#45;&gt;reconfiguration::reconfigure -->
<g id="edge25" class="edge">
<title>consensus_config::set&#45;&gt;reconfiguration::reconfigure</title>
<path fill="none" stroke="black" d="M1298.99,-666.74C1305.43,-662.58 1312.74,-657.98 1319.54,-654 1341.24,-641.28 1366.06,-627.99 1386.11,-617.55"/>
<polygon fill="black" stroke="black" points="1387.51,-620.77 1394.78,-613.07 1384.29,-614.55 1387.51,-620.77"/>
</g>
<!-- gas_schedule::set_gas_schedule -->
<g id="node23" class="node">
<title>gas_schedule::set_gas_schedule</title>
<ellipse fill="none" stroke="black" cx="1606.54" cy="-680" rx="71.49" ry="18"/>
<text text-anchor="middle" x="1606.54" y="-676.3" font-family="Times,serif" font-size="14.00">set_gas_schedule</text>
</g>
<!-- gas_schedule::set_gas_schedule&#45;&gt;reconfiguration::reconfigure -->
<g id="edge26" class="edge">
<title>gas_schedule::set_gas_schedule&#45;&gt;reconfiguration::reconfigure</title>
<path fill="none" stroke="black" d="M1572.3,-663.76C1542.05,-650.3 1497.86,-630.64 1465.69,-616.32"/>
<polygon fill="black" stroke="black" points="1467.22,-613.17 1456.67,-612.3 1464.38,-619.56 1467.22,-613.17"/>
</g>
<!-- gas_schedule::set_storage_gas_config -->
<g id="node24" class="node">
<title>gas_schedule::set_storage_gas_config</title>
<ellipse fill="none" stroke="black" cx="1424.54" cy="-680" rx="92.88" ry="18"/>
<text text-anchor="middle" x="1424.54" y="-676.3" font-family="Times,serif" font-size="14.00">set_storage_gas_config</text>
</g>
<!-- gas_schedule::set_storage_gas_config&#45;&gt;reconfiguration::reconfigure -->
<g id="edge27" class="edge">
<title>gas_schedule::set_storage_gas_config&#45;&gt;reconfiguration::reconfigure</title>
<path fill="none" stroke="black" d="M1424.54,-661.82C1424.54,-651.69 1424.54,-638.6 1424.54,-626.92"/>
<polygon fill="black" stroke="black" points="1428.04,-626.95 1424.54,-616.95 1421.04,-626.95 1428.04,-626.95"/>
</g>
<!-- version::set_version -->
<g id="node25" class="node">
<title>version::set_version</title>
<ellipse fill="none" stroke="black" cx="1752.54" cy="-680" rx="50.89" ry="18"/>
<text text-anchor="middle" x="1752.54" y="-676.3" font-family="Times,serif" font-size="14.00">set_version</text>
</g>
<!-- version::set_version&#45;&gt;reconfiguration::reconfigure -->
<g id="edge28" class="edge">
<title>version::set_version&#45;&gt;reconfiguration::reconfigure</title>
<path fill="none" stroke="black" d="M1721.18,-665.35C1711.19,-661.32 1700.01,-657.16 1689.54,-654 1619.14,-632.76 1535.86,-616.57 1481.71,-607.19"/>
<polygon fill="black" stroke="black" points="1482.55,-603.79 1472.11,-605.55 1481.37,-610.68 1482.55,-603.79"/>
</g>
<!-- genesis::initialize_for_verification -->
<g id="node26" class="node">
<title>genesis::initialize_for_verification</title>
<ellipse fill="none" stroke="black" cx="929.54" cy="-680" rx="100.98" ry="18"/>
<text text-anchor="middle" x="929.54" y="-676.3" font-family="Times,serif" font-size="14.00">initialize_for_verification</text>
</g>
<!-- genesis::initialize_for_verification&#45;&gt;genesis::create_initialize_validators_with_commission -->
<g id="edge29" class="edge">
<title>genesis::initialize_for_verification&#45;&gt;genesis::create_initialize_validators_with_commission</title>
<path fill="none" stroke="black" d="M895.34,-662.61C869.76,-650.35 834.53,-633.46 806.5,-620.03"/>
<polygon fill="black" stroke="black" points="808.04,-616.89 797.51,-615.72 805.01,-623.2 808.04,-616.89"/>
</g>
<!-- genesis::initialize_for_verification&#45;&gt;genesis::create_employee_validators -->
<g id="edge31" class="edge">
<title>genesis::initialize_for_verification&#45;&gt;genesis::create_employee_validators</title>
<path fill="none" stroke="black" d="M938.45,-661.61C940.54,-656.69 942.47,-651.24 943.54,-646 950.18,-613.34 951.34,-603.41 943.54,-571 942.07,-564.92 939.64,-558.74 936.9,-552.99"/>
<polygon fill="black" stroke="black" points="940.21,-551.76 932.46,-544.54 934.01,-555.02 940.21,-551.76"/>
</g>
<!-- genesis::create_initialize_validators -->
<g id="node27" class="node">
<title>genesis::create_initialize_validators</title>
<ellipse fill="none" stroke="black" cx="704.54" cy="-680" rx="105.88" ry="18"/>
<text text-anchor="middle" x="704.54" y="-676.3" font-family="Times,serif" font-size="14.00">create_initialize_validators</text>
</g>
<!-- genesis::create_initialize_validators&#45;&gt;genesis::create_initialize_validators_with_commission -->
<g id="edge30" class="edge">
<title>genesis::create_initialize_validators&#45;&gt;genesis::create_initialize_validators_with_commission</title>
<path fill="none" stroke="black" d="M716.41,-661.82C723.86,-651.05 733.62,-636.94 742.06,-624.72"/>
<polygon fill="black" stroke="black" points="744.81,-626.89 747.62,-616.68 739.06,-622.91 744.81,-626.89"/>
</g>
</g>
</svg>
