<?xml version="1.0" encoding="UTF-8" standalone="no"?>
<!DOCTYPE svg PUBLIC "-//W3C//DTD SVG 1.1//EN"
 "http://www.w3.org/Graphics/SVG/1.1/DTD/svg11.dtd">
<!-- Generated by graphviz version 7.0.4 (20221203.1631)
 -->
<!-- Title: G Pages: 1 -->
<svg width="270pt" height="299pt"
 viewBox="0.00 0.00 270.34 299.00" xmlns="http://www.w3.org/2000/svg" xmlns:xlink="http://www.w3.org/1999/xlink">
<g id="graph0" class="graph" transform="scale(1 1) rotate(0) translate(4 295)">
<title>G</title>
<polygon fill="white" stroke="none" points="-4,4 -4,-295 266.34,-295 266.34,4 -4,4"/>
<g id="clust1" class="cluster">
<title>cluster_aptos_governance</title>
<polygon fill="none" stroke="black" points="8,-64 8,-283 254,-283 254,-64 8,-64"/>
<text text-anchor="middle" x="131" y="-267.8" font-family="Times,serif" font-size="14.00">aptos_governance</text>
</g>
<!-- get_current_epoch_voting_power -->
<g id="node1" class="node">
<title>get_current_epoch_voting_power</title>
<ellipse fill="none" stroke="black" cx="133" cy="-18" rx="129.18" ry="18"/>
<text text-anchor="middle" x="133" y="-14.3" font-family="Times,serif" font-size="14.00">get_current_epoch_voting_power</text>
</g>
<!-- aptos_governance::get_voting_power -->
<g id="node2" class="node">
<title>aptos_governance::get_voting_power</title>
<ellipse fill="none" stroke="black" cx="133" cy="-90" rx="74.99" ry="18"/>
<text text-anchor="middle" x="133" y="-86.3" font-family="Times,serif" font-size="14.00">get_voting_power</text>
</g>
<!-- aptos_governance::get_voting_power&#45;&gt;get_current_epoch_voting_power -->
<g id="edge1" class="edge">
<title>aptos_governance::get_voting_power&#45;&gt;get_current_epoch_voting_power</title>
<path fill="none" stroke="black" d="M133,-71.7C133,-64.41 133,-55.73 133,-47.54"/>
<polygon fill="black" stroke="black" points="136.5,-47.62 133,-37.62 129.5,-47.62 136.5,-47.62"/>
</g>
<!-- aptos_governance::create_proposal_v2 -->
<g id="node3" class="node">
<title>aptos_governance::create_proposal_v2</title>
<ellipse fill="none" stroke="black" cx="95" cy="-162" rx="79.09" ry="18"/>
<text text-anchor="middle" x="95" y="-158.3" font-family="Times,serif" font-size="14.00">create_proposal_v2</text>
</g>
<!-- aptos_governance::create_proposal_v2&#45;&gt;aptos_governance::get_voting_power -->
<g id="edge2" class="edge">
<title>aptos_governance::create_proposal_v2&#45;&gt;aptos_governance::get_voting_power</title>
<path fill="none" stroke="black" d="M104.39,-143.7C108.58,-135.98 113.61,-126.71 118.28,-118.11"/>
<polygon fill="black" stroke="black" points="121.3,-119.89 122.99,-109.43 115.15,-116.55 121.3,-119.89"/>
</g>
<!-- aptos_governance::vote -->
<g id="node4" class="node">
<title>aptos_governance::vote</title>
<ellipse fill="none" stroke="black" cx="219" cy="-162" rx="27" ry="18"/>
<text text-anchor="middle" x="219" y="-158.3" font-family="Times,serif" font-size="14.00">vote</text>
</g>
<!-- aptos_governance::vote&#45;&gt;aptos_governance::get_voting_power -->
<g id="edge3" class="edge">
<title>aptos_governance::vote&#45;&gt;aptos_governance::get_voting_power</title>
<path fill="none" stroke="black" d="M202.42,-147.5C191.08,-138.27 175.73,-125.78 162.35,-114.89"/>
<polygon fill="black" stroke="black" points="164.62,-112.22 154.65,-108.62 160.2,-117.65 164.62,-112.22"/>
</g>
<!-- aptos_governance::create_proposal -->
<g id="node5" class="node">
<title>aptos_governance::create_proposal</title>
<ellipse fill="none" stroke="black" cx="95" cy="-234" rx="66.09" ry="18"/>
<text text-anchor="middle" x="95" y="-230.3" font-family="Times,serif" font-size="14.00">create_proposal</text>
</g>
<!-- aptos_governance::create_proposal&#45;&gt;aptos_governance::create_proposal_v2 -->
<g id="edge4" class="edge">
<title>aptos_governance::create_proposal&#45;&gt;aptos_governance::create_proposal_v2</title>
<path fill="none" stroke="black" d="M95,-215.7C95,-208.41 95,-199.73 95,-191.54"/>
<polygon fill="black" stroke="black" points="98.5,-191.62 95,-181.62 91.5,-191.62 98.5,-191.62"/>
</g>
</g>
</svg>
