<?xml version="1.0" encoding="UTF-8" standalone="no"?>
<!DOCTYPE svg PUBLIC "-//W3C//DTD SVG 1.1//EN"
 "http://www.w3.org/Graphics/SVG/1.1/DTD/svg11.dtd">
<!-- Generated by graphviz version 7.0.4 (20221203.1631)
 -->
<!-- Title: G Pages: 1 -->
<svg width="650pt" height="362pt"
 viewBox="0.00 0.00 650.44 362.00" xmlns="http://www.w3.org/2000/svg" xmlns:xlink="http://www.w3.org/1999/xlink">
<g id="graph0" class="graph" transform="scale(1 1) rotate(0) translate(4 358)">
<title>G</title>
<polygon fill="white" stroke="none" points="-4,4 -4,-358 646.44,-358 646.44,4 -4,4"/>
<g id="clust1" class="cluster">
<title>cluster_signer</title>
<polygon fill="none" stroke="black" points="8,-163 8,-310 158,-310 158,-163 8,-163"/>
<text text-anchor="middle" x="83" y="-294.8" font-family="Times,serif" font-size="14.00">signer</text>
</g>
<g id="clust2" class="cluster">
<title>cluster_error</title>
<polygon fill="none" stroke="black" points="211,-8 211,-155 485,-155 485,-8 211,-8"/>
<text text-anchor="middle" x="348" y="-139.8" font-family="Times,serif" font-size="14.00">error</text>
</g>
<!-- set_delegated_voter -->
<g id="node1" class="node">
<title>set_delegated_voter</title>
<ellipse fill="none" stroke="black" cx="266" cy="-336" rx="81.49" ry="18"/>
<text text-anchor="middle" x="266" y="-332.3" font-family="Times,serif" font-size="14.00">set_delegated_voter</text>
</g>
<!-- signer::address_of -->
<g id="node2" class="node">
<title>signer::address_of</title>
<ellipse fill="none" stroke="black" cx="92" cy="-261" rx="48.99" ry="18"/>
<text text-anchor="middle" x="92" y="-257.3" font-family="Times,serif" font-size="14.00">address_of</text>
</g>
<!-- set_delegated_voter&#45;&gt;signer::address_of -->
<g id="edge1" class="edge">
<title>set_delegated_voter&#45;&gt;signer::address_of</title>
<path fill="none" stroke="black" d="M229.1,-319.52C201.11,-307.78 162.63,-291.63 133.56,-279.44"/>
<polygon fill="black" stroke="black" points="135.29,-276.36 124.71,-275.72 132.58,-282.82 135.29,-276.36"/>
</g>
<!-- assert_owner_cap_exists -->
<g id="node3" class="node">
<title>assert_owner_cap_exists</title>
<ellipse fill="none" stroke="black" cx="266" cy="-189" rx="98.28" ry="18"/>
<text text-anchor="middle" x="266" y="-185.3" font-family="Times,serif" font-size="14.00">assert_owner_cap_exists</text>
</g>
<!-- set_delegated_voter&#45;&gt;assert_owner_cap_exists -->
<g id="edge2" class="edge">
<title>set_delegated_voter&#45;&gt;assert_owner_cap_exists</title>
<path fill="none" stroke="black" d="M266,-317.51C266,-292.88 266,-247.71 266,-218.28"/>
<polygon fill="black" stroke="black" points="269.5,-218.62 266,-208.62 262.5,-218.62 269.5,-218.62"/>
</g>
<!-- set_delegated_voter_with_cap -->
<g id="node4" class="node">
<title>set_delegated_voter_with_cap</title>
<ellipse fill="none" stroke="black" cx="446" cy="-261" rx="117.78" ry="18"/>
<text text-anchor="middle" x="446" y="-257.3" font-family="Times,serif" font-size="14.00">set_delegated_voter_with_cap</text>
</g>
<!-- set_delegated_voter&#45;&gt;set_delegated_voter_with_cap -->
<g id="edge3" class="edge">
<title>set_delegated_voter&#45;&gt;set_delegated_voter_with_cap</title>
<path fill="none" stroke="black" d="M303.73,-319.7C330.36,-308.9 366.33,-294.31 395.43,-282.51"/>
<polygon fill="black" stroke="black" points="396.46,-285.87 404.41,-278.87 393.83,-279.38 396.46,-285.87"/>
</g>
<!-- signer::borrow_address -->
<g id="node5" class="node">
<title>signer::borrow_address</title>
<ellipse fill="none" stroke="black" cx="83" cy="-189" rx="66.89" ry="18"/>
<text text-anchor="middle" x="83" y="-185.3" font-family="Times,serif" font-size="14.00">borrow_address</text>
</g>
<!-- signer::address_of&#45;&gt;signer::borrow_address -->
<g id="edge4" class="edge">
<title>signer::address_of&#45;&gt;signer::borrow_address</title>
<path fill="none" stroke="black" d="M89.78,-242.7C88.83,-235.32 87.7,-226.52 86.63,-218.25"/>
<polygon fill="black" stroke="black" points="90.14,-218.08 85.39,-208.61 83.2,-218.97 90.14,-218.08"/>
</g>
<!-- error::not_found -->
<g id="node6" class="node">
<title>error::not_found</title>
<ellipse fill="none" stroke="black" cx="266" cy="-106" rx="46.59" ry="18"/>
<text text-anchor="middle" x="266" y="-102.3" font-family="Times,serif" font-size="14.00">not_found</text>
</g>
<!-- assert_owner_cap_exists&#45;&gt;error::not_found -->
<g id="edge5" class="edge">
<title>assert_owner_cap_exists&#45;&gt;error::not_found</title>
<path fill="none" stroke="black" d="M266,-170.82C266,-160.69 266,-147.6 266,-135.92"/>
<polygon fill="black" stroke="black" points="269.5,-135.95 266,-125.95 262.5,-135.95 269.5,-135.95"/>
</g>
<!-- assert_stake_pool_exists -->
<g id="node7" class="node">
<title>assert_stake_pool_exists</title>
<ellipse fill="none" stroke="black" cx="480" cy="-189" rx="97.48" ry="18"/>
<text text-anchor="middle" x="480" y="-185.3" font-family="Times,serif" font-size="14.00">assert_stake_pool_exists</text>
</g>
<!-- set_delegated_voter_with_cap&#45;&gt;assert_stake_pool_exists -->
<g id="edge6" class="edge">
<title>set_delegated_voter_with_cap&#45;&gt;assert_stake_pool_exists</title>
<path fill="none" stroke="black" d="M454.4,-242.7C458.11,-235.07 462.56,-225.92 466.69,-217.4"/>
<polygon fill="black" stroke="black" points="469.81,-218.99 471.03,-208.47 463.51,-215.93 469.81,-218.99"/>
</g>
<!-- error::canonical -->
<g id="node8" class="node">
<title>error::canonical</title>
<ellipse fill="none" stroke="black" cx="335" cy="-34" rx="44.39" ry="18"/>
<text text-anchor="middle" x="335" y="-30.3" font-family="Times,serif" font-size="14.00">canonical</text>
</g>
<!-- error::not_found&#45;&gt;error::canonical -->
<g id="edge7" class="edge">
<title>error::not_found&#45;&gt;error::canonical</title>
<path fill="none" stroke="black" d="M282,-88.76C290.63,-80.02 301.43,-69.05 311.04,-59.31"/>
<polygon fill="black" stroke="black" points="313.49,-61.8 318.02,-52.23 308.51,-56.89 313.49,-61.8"/>
</g>
<!-- error::invalid_argument -->
<g id="node9" class="node">
<title>error::invalid_argument</title>
<ellipse fill="none" stroke="black" cx="404" cy="-106" rx="73.39" ry="18"/>
<text text-anchor="middle" x="404" y="-102.3" font-family="Times,serif" font-size="14.00">invalid_argument</text>
</g>
<!-- assert_stake_pool_exists&#45;&gt;error::invalid_argument -->
<g id="edge8" class="edge">
<title>assert_stake_pool_exists&#45;&gt;error::invalid_argument</title>
<path fill="none" stroke="black" d="M463.88,-170.82C453.33,-159.58 439.37,-144.7 427.58,-132.13"/>
<polygon fill="black" stroke="black" points="430.26,-129.88 420.87,-124.98 425.16,-134.67 430.26,-129.88"/>
</g>
<!-- stake_pool_exists -->
<g id="node10" class="node">
<title>stake_pool_exists</title>
<ellipse fill="none" stroke="black" cx="569" cy="-106" rx="73.39" ry="18"/>
<text text-anchor="middle" x="569" y="-102.3" font-family="Times,serif" font-size="14.00">stake_pool_exists</text>
</g>
<!-- assert_stake_pool_exists&#45;&gt;stake_pool_exists -->
<g id="edge9" class="edge">
<title>assert_stake_pool_exists&#45;&gt;stake_pool_exists</title>
<path fill="none" stroke="black" d="M498.44,-171.22C511.09,-159.7 528.08,-144.24 542.21,-131.38"/>
<polygon fill="black" stroke="black" points="544.42,-134.1 549.46,-124.78 539.71,-128.92 544.42,-134.1"/>
</g>
<!-- error::invalid_argument&#45;&gt;error::canonical -->
<g id="edge10" class="edge">
<title>error::invalid_argument&#45;&gt;error::canonical</title>
<path fill="none" stroke="black" d="M387.3,-88.05C378.66,-79.29 367.97,-68.45 358.52,-58.86"/>
<polygon fill="black" stroke="black" points="361.18,-56.57 351.67,-51.91 356.19,-61.49 361.18,-56.57"/>
</g>
</g>
</svg>
