<?xml version="1.0" encoding="UTF-8" standalone="no"?>
<!DOCTYPE svg PUBLIC "-//W3C//DTD SVG 1.1//EN"
 "http://www.w3.org/Graphics/SVG/1.1/DTD/svg11.dtd">
<!-- Generated by graphviz version 7.0.4 (20221203.1631)
 -->
<!-- Title: G Pages: 1 -->
<svg width="984pt" height="332pt"
 viewBox="0.00 0.00 983.59 332.00" xmlns="http://www.w3.org/2000/svg" xmlns:xlink="http://www.w3.org/1999/xlink">
<g id="graph0" class="graph" transform="scale(1 1) rotate(0) translate(4 328)">
<title>G</title>
<polygon fill="white" stroke="none" points="-4,4 -4,-328 979.59,-328 979.59,4 -4,4"/>
<!-- stake -->
<g id="node1" class="node">
<title>stake</title>
<ellipse fill="none" stroke="black" cx="690.09" cy="-18" rx="28.7" ry="18"/>
<text text-anchor="middle" x="690.09" y="-14.3" font-family="Times,serif" font-size="14.00">stake</text>
</g>
<!-- transaction_fee -->
<g id="node2" class="node">
<title>transaction_fee</title>
<ellipse fill="none" stroke="black" cx="615.09" cy="-90" rx="64.19" ry="18"/>
<text text-anchor="middle" x="615.09" y="-86.3" font-family="Times,serif" font-size="14.00">transaction_fee</text>
</g>
<!-- transaction_fee&#45;&gt;stake -->
<g id="edge1" class="edge">
<title>transaction_fee&#45;&gt;stake</title>
<path fill="none" stroke="black" d="M632.87,-72.41C642.85,-63.1 655.43,-51.35 666.26,-41.24"/>
<polygon fill="black" stroke="black" points="668.45,-43.99 673.38,-34.6 663.68,-38.87 668.45,-43.99"/>
</g>
<!-- reconfiguration -->
<g id="node3" class="node">
<title>reconfiguration</title>
<ellipse fill="none" stroke="black" cx="372.09" cy="-162" rx="64.99" ry="18"/>
<text text-anchor="middle" x="372.09" y="-158.3" font-family="Times,serif" font-size="14.00">reconfiguration</text>
</g>
<!-- reconfiguration&#45;&gt;stake -->
<g id="edge2" class="edge">
<title>reconfiguration&#45;&gt;stake</title>
<path fill="none" stroke="black" d="M382.37,-144C395.62,-123.6 420.64,-89.91 451.09,-72 514.01,-35.01 600.07,-23.79 649.9,-20.42"/>
<polygon fill="black" stroke="black" points="649.88,-23.93 659.65,-19.84 649.46,-16.94 649.88,-23.93"/>
</g>
<!-- reconfiguration&#45;&gt;transaction_fee -->
<g id="edge9" class="edge">
<title>reconfiguration&#45;&gt;transaction_fee</title>
<path fill="none" stroke="black" d="M416.1,-148.32C456.61,-136.65 516.85,-119.3 560.44,-106.74"/>
<polygon fill="black" stroke="black" points="561.32,-110.13 569.96,-104 559.38,-103.41 561.32,-110.13"/>
</g>
<!-- aptos_governance -->
<g id="node4" class="node">
<title>aptos_governance</title>
<ellipse fill="none" stroke="black" cx="74.09" cy="-234" rx="74.19" ry="18"/>
<text text-anchor="middle" x="74.09" y="-230.3" font-family="Times,serif" font-size="14.00">aptos_governance</text>
</g>
<!-- aptos_governance&#45;&gt;stake -->
<g id="edge3" class="edge">
<title>aptos_governance&#45;&gt;stake</title>
<path fill="none" stroke="black" d="M100.93,-216.82C155.97,-184.37 286.44,-111.1 405.09,-72 490.1,-43.99 594.55,-29.32 650.4,-22.97"/>
<polygon fill="black" stroke="black" points="650.49,-26.48 660.05,-21.91 649.72,-19.52 650.49,-26.48"/>
</g>
<!-- aptos_governance&#45;&gt;reconfiguration -->
<g id="edge13" class="edge">
<title>aptos_governance&#45;&gt;reconfiguration</title>
<path fill="none" stroke="black" d="M126,-220.81C178.11,-208.57 258.27,-189.74 312.84,-176.92"/>
<polygon fill="black" stroke="black" points="313.33,-180.4 322.26,-174.7 311.73,-173.58 313.33,-180.4"/>
</g>
<!-- block -->
<g id="node5" class="node">
<title>block</title>
<ellipse fill="none" stroke="black" cx="624.09" cy="-234" rx="30.59" ry="18"/>
<text text-anchor="middle" x="624.09" y="-230.3" font-family="Times,serif" font-size="14.00">block</text>
</g>
<!-- block&#45;&gt;stake -->
<g id="edge4" class="edge">
<title>block&#45;&gt;stake</title>
<path fill="none" stroke="black" d="M599.38,-223.06C567.7,-210.08 516.21,-188.05 511.09,-180 502.51,-166.5 507.86,-159.67 511.09,-144 518.13,-109.88 516.7,-95.85 542.09,-72 572.08,-43.84 618.06,-30.46 650.81,-24.23"/>
<polygon fill="black" stroke="black" points="651.05,-27.74 660.3,-22.57 649.85,-20.84 651.05,-27.74"/>
</g>
<!-- block&#45;&gt;transaction_fee -->
<g id="edge10" class="edge">
<title>block&#45;&gt;transaction_fee</title>
<path fill="none" stroke="black" d="M598.82,-223.4C571.51,-212.46 530.74,-194.24 522.09,-180 513.79,-166.32 514.05,-157.83 522.09,-144 531.29,-128.17 547.19,-116.67 563.27,-108.52"/>
<polygon fill="black" stroke="black" points="564.29,-111.9 571.87,-104.5 561.33,-105.56 564.29,-111.9"/>
</g>
<!-- block&#45;&gt;reconfiguration -->
<g id="edge14" class="edge">
<title>block&#45;&gt;reconfiguration</title>
<path fill="none" stroke="black" d="M599.51,-223.15C592.93,-220.67 585.78,-218.11 579.09,-216 530.33,-200.6 474.05,-186.41 432.5,-176.6"/>
<polygon fill="black" stroke="black" points="433.47,-173.24 422.93,-174.36 431.87,-180.05 433.47,-173.24"/>
</g>
<!-- staking_contract -->
<g id="node6" class="node">
<title>staking_contract</title>
<ellipse fill="none" stroke="black" cx="766.09" cy="-90" rx="68.79" ry="18"/>
<text text-anchor="middle" x="766.09" y="-86.3" font-family="Times,serif" font-size="14.00">staking_contract</text>
</g>
<!-- staking_contract&#45;&gt;stake -->
<g id="edge5" class="edge">
<title>staking_contract&#45;&gt;stake</title>
<path fill="none" stroke="black" d="M748.08,-72.41C737.9,-63.03 725.04,-51.19 714.02,-41.04"/>
<polygon fill="black" stroke="black" points="716.5,-38.56 706.77,-34.36 711.76,-43.71 716.5,-38.56"/>
</g>
<!-- vesting -->
<g id="node7" class="node">
<title>vesting</title>
<ellipse fill="none" stroke="black" cx="927.09" cy="-162" rx="36.29" ry="18"/>
<text text-anchor="middle" x="927.09" y="-158.3" font-family="Times,serif" font-size="14.00">vesting</text>
</g>
<!-- vesting&#45;&gt;stake -->
<g id="edge6" class="edge">
<title>vesting&#45;&gt;stake</title>
<path fill="none" stroke="black" d="M921.97,-143.93C915.04,-123.78 900.75,-90.65 877.09,-72 834.28,-38.25 771.03,-25.99 730.19,-21.54"/>
<polygon fill="black" stroke="black" points="730.59,-18.06 720.3,-20.58 729.91,-25.03 730.59,-18.06"/>
</g>
<!-- vesting&#45;&gt;staking_contract -->
<g id="edge21" class="edge">
<title>vesting&#45;&gt;staking_contract</title>
<path fill="none" stroke="black" d="M900.51,-149.44C876.17,-138.86 839.66,-122.98 810.83,-110.45"/>
<polygon fill="black" stroke="black" points="812.54,-107.38 801.98,-106.6 809.75,-113.8 812.54,-107.38"/>
</g>
<!-- genesis -->
<g id="node8" class="node">
<title>genesis</title>
<ellipse fill="none" stroke="black" cx="624.09" cy="-306" rx="36.29" ry="18"/>
<text text-anchor="middle" x="624.09" y="-302.3" font-family="Times,serif" font-size="14.00">genesis</text>
</g>
<!-- genesis&#45;&gt;stake -->
<g id="edge7" class="edge">
<title>genesis&#45;&gt;stake</title>
<path fill="none" stroke="black" d="M660.42,-303.94C736.6,-300.96 909.54,-290.08 952.09,-252 976.84,-229.85 967.61,-212.91 972.09,-180 974.25,-164.15 978,-158.87 972.09,-144 955.83,-103.1 942.11,-94.19 904.09,-72 849.02,-39.85 774.99,-27.1 730,-22.11"/>
<polygon fill="black" stroke="black" points="730.48,-18.65 720.18,-21.11 729.77,-25.61 730.48,-18.65"/>
</g>
<!-- genesis&#45;&gt;transaction_fee -->
<g id="edge12" class="edge">
<title>genesis&#45;&gt;transaction_fee</title>
<path fill="none" stroke="black" d="M644,-290.46C680.32,-262.09 750.71,-197.47 718.09,-144 707.72,-126.99 689.95,-115.21 672.06,-107.16"/>
<polygon fill="black" stroke="black" points="673.55,-103.99 662.97,-103.41 670.89,-110.46 673.55,-103.99"/>
</g>
<!-- genesis&#45;&gt;reconfiguration -->
<g id="edge18" class="edge">
<title>genesis&#45;&gt;reconfiguration</title>
<path fill="none" stroke="black" d="M611.66,-288.78C593.88,-265.96 561.63,-226.03 546.09,-216 526.92,-203.62 473.9,-188.31 431.39,-177.34"/>
<polygon fill="black" stroke="black" points="432.29,-173.96 421.74,-174.88 430.56,-180.74 432.29,-173.96"/>
</g>
<!-- genesis&#45;&gt;aptos_governance -->
<g id="edge19" class="edge">
<title>genesis&#45;&gt;aptos_governance</title>
<path fill="none" stroke="black" d="M588.29,-301.99C509.99,-295.18 317.75,-277.19 158.09,-252 152.03,-251.04 145.74,-249.95 139.45,-248.8"/>
<polygon fill="black" stroke="black" points="140.16,-245.37 129.68,-246.95 138.85,-252.25 140.16,-245.37"/>
</g>
<!-- genesis&#45;&gt;block -->
<g id="edge20" class="edge">
<title>genesis&#45;&gt;block</title>
<path fill="none" stroke="black" d="M624.09,-287.7C624.09,-280.41 624.09,-271.73 624.09,-263.54"/>
<polygon fill="black" stroke="black" points="627.59,-263.62 624.09,-253.62 620.59,-263.62 627.59,-263.62"/>
</g>
<!-- genesis&#45;&gt;staking_contract -->
<g id="edge22" class="edge">
<title>genesis&#45;&gt;staking_contract</title>
<path fill="none" stroke="black" d="M652.58,-294.6C672.43,-286 698.11,-271.95 714.09,-252 745.47,-212.84 758.13,-154.23 763.08,-119.59"/>
<polygon fill="black" stroke="black" points="766.52,-120.27 764.33,-109.9 759.58,-119.37 766.52,-120.27"/>
</g>
<!-- genesis&#45;&gt;vesting -->
<g id="edge24" class="edge">
<title>genesis&#45;&gt;vesting</title>
<path fill="none" stroke="black" d="M660.66,-304.39C734.95,-302.31 899.46,-293.06 934.09,-252 948.21,-235.26 944.62,-209.89 938.56,-190.52"/>
<polygon fill="black" stroke="black" points="941.95,-189.61 935.32,-181.34 935.35,-191.94 941.95,-189.61"/>
</g>
<!-- transaction_validation -->
<g id="node10" class="node">
<title>transaction_validation</title>
<ellipse fill="none" stroke="black" cx="620.09" cy="-162" rx="89.08" ry="18"/>
<text text-anchor="middle" x="620.09" y="-158.3" font-family="Times,serif" font-size="14.00">transaction_validation</text>
</g>
<!-- genesis&#45;&gt;transaction_validation -->
<g id="edge26" class="edge">
<title>genesis&#45;&gt;transaction_validation</title>
<path fill="none" stroke="black" d="M640.17,-289.45C649.09,-279.66 659.33,-266.21 664.09,-252 669.18,-236.83 669.53,-231.05 664.09,-216 660.4,-205.76 653.76,-196.09 646.75,-187.9"/>
<polygon fill="black" stroke="black" points="649.49,-185.71 640.13,-180.73 644.34,-190.45 649.49,-185.71"/>
</g>
<!-- consensus_config -->
<g id="node11" class="node">
<title>consensus_config</title>
<ellipse fill="none" stroke="black" cx="240.09" cy="-234" rx="73.39" ry="18"/>
<text text-anchor="middle" x="240.09" y="-230.3" font-family="Times,serif" font-size="14.00">consensus_config</text>
</g>
<!-- genesis&#45;&gt;consensus_config -->
<g id="edge27" class="edge">
<title>genesis&#45;&gt;consensus_config</title>
<path fill="none" stroke="black" d="M590.06,-299.38C534.08,-290.05 419.08,-270.56 322.09,-252 316.61,-250.95 310.93,-249.83 305.23,-248.69"/>
<polygon fill="black" stroke="black" points="306.28,-245.33 295.78,-246.78 304.89,-252.2 306.28,-245.33"/>
</g>
<!-- gas_schedule -->
<g id="node12" class="node">
<title>gas_schedule</title>
<ellipse fill="none" stroke="black" cx="389.09" cy="-234" rx="57.69" ry="18"/>
<text text-anchor="middle" x="389.09" y="-230.3" font-family="Times,serif" font-size="14.00">gas_schedule</text>
</g>
<!-- genesis&#45;&gt;gas_schedule -->
<g id="edge28" class="edge">
<title>genesis&#45;&gt;gas_schedule</title>
<path fill="none" stroke="black" d="M593.37,-295.85C554.56,-284.29 487.19,-264.22 440.49,-250.31"/>
<polygon fill="black" stroke="black" points="441.71,-247.02 431.13,-247.52 439.71,-253.73 441.71,-247.02"/>
</g>
<!-- version -->
<g id="node13" class="node">
<title>version</title>
<ellipse fill="none" stroke="black" cx="501.09" cy="-234" rx="36.29" ry="18"/>
<text text-anchor="middle" x="501.09" y="-230.3" font-family="Times,serif" font-size="14.00">version</text>
</g>
<!-- genesis&#45;&gt;version -->
<g id="edge29" class="edge">
<title>genesis&#45;&gt;version</title>
<path fill="none" stroke="black" d="M600.96,-291.83C582.06,-281.08 555.11,-265.74 533.98,-253.71"/>
<polygon fill="black" stroke="black" points="535.86,-250.76 525.44,-248.86 532.4,-256.84 535.86,-250.76"/>
</g>
<!-- staking_proxy -->
<g id="node9" class="node">
<title>staking_proxy</title>
<ellipse fill="none" stroke="black" cx="864.09" cy="-234" rx="61.19" ry="18"/>
<text text-anchor="middle" x="864.09" y="-230.3" font-family="Times,serif" font-size="14.00">staking_proxy</text>
</g>
<!-- staking_proxy&#45;&gt;stake -->
<g id="edge8" class="edge">
<title>staking_proxy&#45;&gt;stake</title>
<path fill="none" stroke="black" d="M867.36,-215.72C872.38,-183.56 878.16,-114 844.09,-72 816.45,-37.92 765.72,-25.68 730.06,-21.33"/>
<polygon fill="black" stroke="black" points="730.87,-17.89 720.56,-20.33 730.14,-24.86 730.87,-17.89"/>
</g>
<!-- staking_proxy&#45;&gt;staking_contract -->
<g id="edge23" class="edge">
<title>staking_proxy&#45;&gt;staking_contract</title>
<path fill="none" stroke="black" d="M852.27,-215.87C835.42,-191.46 804.35,-146.43 784.48,-117.64"/>
<polygon fill="black" stroke="black" points="787.38,-115.68 778.82,-109.43 781.62,-119.65 787.38,-115.68"/>
</g>
<!-- staking_proxy&#45;&gt;vesting -->
<g id="edge25" class="edge">
<title>staking_proxy&#45;&gt;vesting</title>
<path fill="none" stroke="black" d="M879.02,-216.41C886.82,-207.74 896.52,-196.97 905.16,-187.38"/>
<polygon fill="black" stroke="black" points="907.6,-189.89 911.69,-180.11 902.4,-185.2 907.6,-189.89"/>
</g>
<!-- transaction_validation&#45;&gt;transaction_fee -->
<g id="edge11" class="edge">
<title>transaction_validation&#45;&gt;transaction_fee</title>
<path fill="none" stroke="black" d="M618.86,-143.7C618.34,-136.41 617.72,-127.73 617.13,-119.54"/>
<polygon fill="black" stroke="black" points="620.63,-119.34 616.42,-109.61 613.64,-119.84 620.63,-119.34"/>
</g>
<!-- consensus_config&#45;&gt;reconfiguration -->
<g id="edge15" class="edge">
<title>consensus_config&#45;&gt;reconfiguration</title>
<path fill="none" stroke="black" d="M270.05,-217.12C288.7,-207.22 312.9,-194.39 333.05,-183.71"/>
<polygon fill="black" stroke="black" points="334.63,-186.83 341.83,-179.05 331.35,-180.64 334.63,-186.83"/>
</g>
<!-- gas_schedule&#45;&gt;reconfiguration -->
<g id="edge16" class="edge">
<title>gas_schedule&#45;&gt;reconfiguration</title>
<path fill="none" stroke="black" d="M384.89,-215.7C383.1,-208.32 380.96,-199.52 378.95,-191.25"/>
<polygon fill="black" stroke="black" points="382.37,-190.47 376.6,-181.58 375.56,-192.12 382.37,-190.47"/>
</g>
<!-- version&#45;&gt;reconfiguration -->
<g id="edge17" class="edge">
<title>version&#45;&gt;reconfiguration</title>
<path fill="none" stroke="black" d="M477.13,-220C458.39,-209.83 431.96,-195.49 410.3,-183.73"/>
<polygon fill="black" stroke="black" points="412.21,-180.79 401.75,-179.1 408.87,-186.94 412.21,-180.79"/>
</g>
</g>
</svg>
