<?xml version="1.0" encoding="UTF-8" standalone="no"?>
<!DOCTYPE svg PUBLIC "-//W3C//DTD SVG 1.1//EN"
 "http://www.w3.org/Graphics/SVG/1.1/DTD/svg11.dtd">
<!-- Generated by graphviz version 7.0.4 (20221203.1631)
 -->
<!-- Title: G Pages: 1 -->
<svg width="1366pt" height="446pt"
 viewBox="0.00 0.00 1365.94 446.00" xmlns="http://www.w3.org/2000/svg" xmlns:xlink="http://www.w3.org/1999/xlink">
<g id="graph0" class="graph" transform="scale(1 1) rotate(0) translate(4 442)">
<title>G</title>
<polygon fill="white" stroke="none" points="-4,4 -4,-442 1361.94,-442 1361.94,4 -4,4"/>
<g id="clust1" class="cluster">
<title>cluster_vesting</title>
<polygon fill="none" stroke="black" points="515,-136 515,-355 1216,-355 1216,-136 515,-136"/>
<text text-anchor="middle" x="865.5" y="-339.8" font-family="Times,serif" font-size="14.00">vesting</text>
</g>
<g id="clust2" class="cluster">
<title>cluster_staking_proxy</title>
<polygon fill="none" stroke="black" points="8,-280 8,-430 507,-430 507,-280 8,-280"/>
<text text-anchor="middle" x="257.5" y="-414.8" font-family="Times,serif" font-size="14.00">staking_proxy</text>
</g>
<!-- distribute_internal -->
<g id="node1" class="node">
<title>distribute_internal</title>
<ellipse fill="none" stroke="black" cx="939" cy="-18" rx="75.29" ry="18"/>
<text text-anchor="middle" x="939" y="-14.3" font-family="Times,serif" font-size="14.00">distribute_internal</text>
</g>
<!-- distribute -->
<g id="node2" class="node">
<title>distribute</title>
<ellipse fill="none" stroke="black" cx="880" cy="-90" rx="44.39" ry="18"/>
<text text-anchor="middle" x="880" y="-86.3" font-family="Times,serif" font-size="14.00">distribute</text>
</g>
<!-- distribute&#45;&gt;distribute_internal -->
<g id="edge1" class="edge">
<title>distribute&#45;&gt;distribute_internal</title>
<path fill="none" stroke="black" d="M893.68,-72.76C900.7,-64.44 909.41,-54.1 917.32,-44.73"/>
<polygon fill="black" stroke="black" points="919.82,-47.18 923.59,-37.28 914.47,-42.67 919.82,-47.18"/>
</g>
<!-- request_commission -->
<g id="node3" class="node">
<title>request_commission</title>
<ellipse fill="none" stroke="black" cx="1158" cy="-90" rx="83.69" ry="18"/>
<text text-anchor="middle" x="1158" y="-86.3" font-family="Times,serif" font-size="14.00">request_commission</text>
</g>
<!-- request_commission&#45;&gt;distribute_internal -->
<g id="edge2" class="edge">
<title>request_commission&#45;&gt;distribute_internal</title>
<path fill="none" stroke="black" d="M1112.62,-74.5C1077.96,-63.42 1030.05,-48.1 993.34,-36.37"/>
<polygon fill="black" stroke="black" points="994.86,-33.18 984.27,-33.47 992.73,-39.85 994.86,-33.18"/>
</g>
<!-- switch_operator -->
<g id="node4" class="node">
<title>switch_operator</title>
<ellipse fill="none" stroke="black" cx="439" cy="-162" rx="67.69" ry="18"/>
<text text-anchor="middle" x="439" y="-158.3" font-family="Times,serif" font-size="14.00">switch_operator</text>
</g>
<!-- switch_operator&#45;&gt;distribute_internal -->
<g id="edge3" class="edge">
<title>switch_operator&#45;&gt;distribute_internal</title>
<path fill="none" stroke="black" d="M478.08,-146.89C488.71,-143.2 500.26,-139.33 511,-136 640.26,-95.94 793.67,-55.76 877.21,-34.5"/>
<polygon fill="black" stroke="black" points="877.98,-37.91 886.81,-32.06 876.26,-31.13 877.98,-37.91"/>
</g>
<!-- unlock_stake -->
<g id="node5" class="node">
<title>unlock_stake</title>
<ellipse fill="none" stroke="black" cx="999" cy="-90" rx="57.39" ry="18"/>
<text text-anchor="middle" x="999" y="-86.3" font-family="Times,serif" font-size="14.00">unlock_stake</text>
</g>
<!-- unlock_stake&#45;&gt;distribute_internal -->
<g id="edge4" class="edge">
<title>unlock_stake&#45;&gt;distribute_internal</title>
<path fill="none" stroke="black" d="M984.78,-72.41C977.64,-64.08 968.83,-53.8 960.85,-44.49"/>
<polygon fill="black" stroke="black" points="963.68,-42.42 954.52,-37.11 958.37,-46.98 963.68,-42.42"/>
</g>
<!-- vesting::withdraw_stake -->
<g id="node6" class="node">
<title>vesting::withdraw_stake</title>
<ellipse fill="none" stroke="black" cx="880" cy="-162" rx="66.09" ry="18"/>
<text text-anchor="middle" x="880" y="-158.3" font-family="Times,serif" font-size="14.00">withdraw_stake</text>
</g>
<!-- vesting::withdraw_stake&#45;&gt;distribute -->
<g id="edge5" class="edge">
<title>vesting::withdraw_stake&#45;&gt;distribute</title>
<path fill="none" stroke="black" d="M880,-143.7C880,-136.41 880,-127.73 880,-119.54"/>
<polygon fill="black" stroke="black" points="883.5,-119.62 880,-109.62 876.5,-119.62 883.5,-119.62"/>
</g>
<!-- switch_operator_with_same_commission -->
<g id="node7" class="node">
<title>switch_operator_with_same_commission</title>
<ellipse fill="none" stroke="black" cx="253" cy="-234" rx="157.87" ry="18"/>
<text text-anchor="middle" x="253" y="-230.3" font-family="Times,serif" font-size="14.00">switch_operator_with_same_commission</text>
</g>
<!-- switch_operator_with_same_commission&#45;&gt;switch_operator -->
<g id="edge6" class="edge">
<title>switch_operator_with_same_commission&#45;&gt;switch_operator</title>
<path fill="none" stroke="black" d="M297.08,-216.41C325.09,-205.87 361.37,-192.22 390.23,-181.35"/>
<polygon fill="black" stroke="black" points="391.36,-184.67 399.48,-177.87 388.89,-178.12 391.36,-184.67"/>
</g>
<!-- vesting::update_operator -->
<g id="node8" class="node">
<title>vesting::update_operator</title>
<ellipse fill="none" stroke="black" cx="591" cy="-234" rx="67.69" ry="18"/>
<text text-anchor="middle" x="591" y="-230.3" font-family="Times,serif" font-size="14.00">update_operator</text>
</g>
<!-- vesting::update_operator&#45;&gt;switch_operator -->
<g id="edge7" class="edge">
<title>vesting::update_operator&#45;&gt;switch_operator</title>
<path fill="none" stroke="black" d="M558.02,-217.81C535.81,-207.58 506.29,-193.99 482.21,-182.9"/>
<polygon fill="black" stroke="black" points="483.84,-179.8 473.29,-178.79 480.91,-186.15 483.84,-179.8"/>
</g>
<!-- staking_proxy::set_staking_contract_operator -->
<g id="node9" class="node">
<title>staking_proxy::set_staking_contract_operator</title>
<ellipse fill="none" stroke="black" cx="132" cy="-306" rx="116.18" ry="18"/>
<text text-anchor="middle" x="132" y="-302.3" font-family="Times,serif" font-size="14.00">set_staking_contract_operator</text>
</g>
<!-- staking_proxy::set_staking_contract_operator&#45;&gt;switch_operator -->
<g id="edge8" class="edge">
<title>staking_proxy::set_staking_contract_operator&#45;&gt;switch_operator</title>
<path fill="none" stroke="black" d="M200.6,-291.07C219.21,-287.38 239.36,-283.46 258,-280 293.92,-273.33 393.67,-277.32 420,-252 435.94,-236.67 440.13,-211.51 440.65,-191.84"/>
<polygon fill="black" stroke="black" points="444.15,-191.93 440.59,-181.95 437.15,-191.97 444.15,-191.93"/>
</g>
<!-- unlock_rewards -->
<g id="node10" class="node">
<title>unlock_rewards</title>
<ellipse fill="none" stroke="black" cx="1291" cy="-162" rx="66.89" ry="18"/>
<text text-anchor="middle" x="1291" y="-158.3" font-family="Times,serif" font-size="14.00">unlock_rewards</text>
</g>
<!-- unlock_rewards&#45;&gt;unlock_stake -->
<g id="edge9" class="edge">
<title>unlock_rewards&#45;&gt;unlock_stake</title>
<path fill="none" stroke="black" d="M1253.76,-146.63C1242.98,-142.81 1231.12,-138.94 1220,-136 1152.32,-118.1 1133.39,-122.96 1065,-108 1060.95,-107.11 1056.77,-106.15 1052.57,-105.15"/>
<polygon fill="black" stroke="black" points="1053.51,-101.78 1042.96,-102.79 1051.84,-108.58 1053.51,-101.78"/>
</g>
<!-- vesting::unlock_stake -->
<g id="node11" class="node">
<title>vesting::unlock_stake</title>
<ellipse fill="none" stroke="black" cx="999" cy="-234" rx="57.39" ry="18"/>
<text text-anchor="middle" x="999" y="-230.3" font-family="Times,serif" font-size="14.00">unlock_stake</text>
</g>
<!-- vesting::unlock_stake&#45;&gt;unlock_stake -->
<g id="edge10" class="edge">
<title>vesting::unlock_stake&#45;&gt;unlock_stake</title>
<path fill="none" stroke="black" d="M999,-215.59C999,-191.61 999,-148.14 999,-119.42"/>
<polygon fill="black" stroke="black" points="1002.5,-119.62 999,-109.62 995.5,-119.62 1002.5,-119.62"/>
</g>
<!-- vesting::distribute -->
<g id="node12" class="node">
<title>vesting::distribute</title>
<ellipse fill="none" stroke="black" cx="880" cy="-234" rx="44.39" ry="18"/>
<text text-anchor="middle" x="880" y="-230.3" font-family="Times,serif" font-size="14.00">distribute</text>
</g>
<!-- vesting::distribute&#45;&gt;vesting::withdraw_stake -->
<g id="edge11" class="edge">
<title>vesting::distribute&#45;&gt;vesting::withdraw_stake</title>
<path fill="none" stroke="black" d="M880,-215.7C880,-208.41 880,-199.73 880,-191.54"/>
<polygon fill="black" stroke="black" points="883.5,-191.62 880,-181.62 876.5,-191.62 883.5,-191.62"/>
</g>
<!-- vesting::admin_withdraw -->
<g id="node13" class="node">
<title>vesting::admin_withdraw</title>
<ellipse fill="none" stroke="black" cx="747" cy="-234" rx="70.69" ry="18"/>
<text text-anchor="middle" x="747" y="-230.3" font-family="Times,serif" font-size="14.00">admin_withdraw</text>
</g>
<!-- vesting::admin_withdraw&#45;&gt;vesting::withdraw_stake -->
<g id="edge12" class="edge">
<title>vesting::admin_withdraw&#45;&gt;vesting::withdraw_stake</title>
<path fill="none" stroke="black" d="M776.85,-217.29C795.72,-207.36 820.31,-194.41 840.75,-183.66"/>
<polygon fill="black" stroke="black" points="842.15,-186.88 849.37,-179.12 838.89,-180.68 842.15,-186.88"/>
</g>
<!-- vesting::update_operator_with_same_commission -->
<g id="node14" class="node">
<title>vesting::update_operator_with_same_commission</title>
<ellipse fill="none" stroke="black" cx="682" cy="-306" rx="158.67" ry="18"/>
<text text-anchor="middle" x="682" y="-302.3" font-family="Times,serif" font-size="14.00">update_operator_with_same_commission</text>
</g>
<!-- vesting::update_operator_with_same_commission&#45;&gt;vesting::update_operator -->
<g id="edge13" class="edge">
<title>vesting::update_operator_with_same_commission&#45;&gt;vesting::update_operator</title>
<path fill="none" stroke="black" d="M659.51,-287.7C648.01,-278.86 633.86,-267.97 621.41,-258.4"/>
<polygon fill="black" stroke="black" points="623.56,-255.63 613.5,-252.31 619.29,-261.18 623.56,-255.63"/>
</g>
<!-- staking_proxy::set_vesting_contract_operator -->
<g id="node15" class="node">
<title>staking_proxy::set_vesting_contract_operator</title>
<ellipse fill="none" stroke="black" cx="383" cy="-306" rx="116.18" ry="18"/>
<text text-anchor="middle" x="383" y="-302.3" font-family="Times,serif" font-size="14.00">set_vesting_contract_operator</text>
</g>
<!-- staking_proxy::set_vesting_contract_operator&#45;&gt;vesting::update_operator -->
<g id="edge14" class="edge">
<title>staking_proxy::set_vesting_contract_operator&#45;&gt;vesting::update_operator</title>
<path fill="none" stroke="black" d="M430.2,-289.12C462.86,-278.12 506.31,-263.5 539.81,-252.23"/>
<polygon fill="black" stroke="black" points="540.51,-255.69 548.87,-249.18 538.28,-249.05 540.51,-255.69"/>
</g>
<!-- staking_proxy::set_operator -->
<g id="node16" class="node">
<title>staking_proxy::set_operator</title>
<ellipse fill="none" stroke="black" cx="257" cy="-381" rx="53.89" ry="18"/>
<text text-anchor="middle" x="257" y="-377.3" font-family="Times,serif" font-size="14.00">set_operator</text>
</g>
<!-- staking_proxy::set_operator&#45;&gt;staking_proxy::set_staking_contract_operator -->
<g id="edge15" class="edge">
<title>staking_proxy::set_operator&#45;&gt;staking_proxy::set_staking_contract_operator</title>
<path fill="none" stroke="black" d="M231.1,-364.87C213.68,-354.7 190.41,-341.11 170.8,-329.66"/>
<polygon fill="black" stroke="black" points="172.63,-326.68 162.23,-324.66 169.1,-332.72 172.63,-326.68"/>
</g>
<!-- staking_proxy::set_operator&#45;&gt;staking_proxy::set_vesting_contract_operator -->
<g id="edge20" class="edge">
<title>staking_proxy::set_operator&#45;&gt;staking_proxy::set_vesting_contract_operator</title>
<path fill="none" stroke="black" d="M283.11,-364.87C300.66,-354.7 324.12,-341.11 343.89,-329.66"/>
<polygon fill="black" stroke="black" points="345.64,-332.69 352.53,-324.65 342.13,-326.64 345.64,-332.69"/>
</g>
<!-- vesting::unlock_rewards -->
<g id="node17" class="node">
<title>vesting::unlock_rewards</title>
<ellipse fill="none" stroke="black" cx="1141" cy="-234" rx="66.89" ry="18"/>
<text text-anchor="middle" x="1141" y="-230.3" font-family="Times,serif" font-size="14.00">unlock_rewards</text>
</g>
<!-- vesting::unlock_rewards&#45;&gt;unlock_rewards -->
<g id="edge16" class="edge">
<title>vesting::unlock_rewards&#45;&gt;unlock_rewards</title>
<path fill="none" stroke="black" d="M1173.55,-217.81C1195.46,-207.58 1224.59,-193.99 1248.36,-182.9"/>
<polygon fill="black" stroke="black" points="1249.56,-186.2 1257.14,-178.8 1246.6,-179.86 1249.56,-186.2"/>
</g>
<!-- vesting::terminate_vesting_contract -->
<g id="node18" class="node">
<title>vesting::terminate_vesting_contract</title>
<ellipse fill="none" stroke="black" cx="977" cy="-306" rx="106.68" ry="18"/>
<text text-anchor="middle" x="977" y="-302.3" font-family="Times,serif" font-size="14.00">terminate_vesting_contract</text>
</g>
<!-- vesting::terminate_vesting_contract&#45;&gt;vesting::unlock_stake -->
<g id="edge17" class="edge">
<title>vesting::terminate_vesting_contract&#45;&gt;vesting::unlock_stake</title>
<path fill="none" stroke="black" d="M982.44,-287.7C984.78,-280.24 987.58,-271.32 990.21,-262.97"/>
<polygon fill="black" stroke="black" points="993.51,-264.14 993.17,-253.55 986.83,-262.04 993.51,-264.14"/>
</g>
<!-- vesting::terminate_vesting_contract&#45;&gt;vesting::distribute -->
<g id="edge19" class="edge">
<title>vesting::terminate_vesting_contract&#45;&gt;vesting::distribute</title>
<path fill="none" stroke="black" d="M953.52,-288.05C940.49,-278.65 924.14,-266.86 910.17,-256.78"/>
<polygon fill="black" stroke="black" points="912.34,-254.02 902.18,-251.01 908.24,-259.7 912.34,-254.02"/>
</g>
<!-- vesting::vest -->
<g id="node19" class="node">
<title>vesting::vest</title>
<ellipse fill="none" stroke="black" cx="1135" cy="-306" rx="27" ry="18"/>
<text text-anchor="middle" x="1135" y="-302.3" font-family="Times,serif" font-size="14.00">vest</text>
</g>
<!-- vesting::vest&#45;&gt;vesting::unlock_stake -->
<g id="edge18" class="edge">
<title>vesting::vest&#45;&gt;vesting::unlock_stake</title>
<path fill="none" stroke="black" d="M1115.55,-292.93C1108.53,-288.7 1100.48,-284.01 1093,-280 1076.25,-271.03 1057.43,-261.85 1041.05,-254.14"/>
<polygon fill="black" stroke="black" points="1042.6,-251 1032.06,-249.94 1039.64,-257.34 1042.6,-251"/>
</g>
<!-- vesting::vest&#45;&gt;vesting::unlock_rewards -->
<g id="edge21" class="edge">
<title>vesting::vest&#45;&gt;vesting::unlock_rewards</title>
<path fill="none" stroke="black" d="M1136.48,-287.7C1137.11,-280.41 1137.85,-271.73 1138.55,-263.54"/>
<polygon fill="black" stroke="black" points="1142.04,-263.87 1139.4,-253.61 1135.06,-263.28 1142.04,-263.87"/>
</g>
</g>
</svg>
