<?xml version="1.0" encoding="UTF-8" standalone="no"?>
<!DOCTYPE svg PUBLIC "-//W3C//DTD SVG 1.1//EN"
 "http://www.w3.org/Graphics/SVG/1.1/DTD/svg11.dtd">
<!-- Generated by graphviz version 7.0.4 (20221203.1631)
 -->
<!-- Title: G Pages: 1 -->
<svg width="632pt" height="371pt"
 viewBox="0.00 0.00 632.09 371.00" xmlns="http://www.w3.org/2000/svg" xmlns:xlink="http://www.w3.org/1999/xlink">
<g id="graph0" class="graph" transform="scale(1 1) rotate(0) translate(4 367)">
<title>G</title>
<polygon fill="white" stroke="none" points="-4,4 -4,-367 628.09,-367 628.09,4 -4,4"/>
<g id="clust1" class="cluster">
<title>cluster_genesis</title>
<polygon fill="none" stroke="black" points="156.09,-64 156.09,-355 616.09,-355 616.09,-64 156.09,-64"/>
<text text-anchor="middle" x="386.09" y="-339.8" font-family="Times,serif" font-size="14.00">genesis</text>
</g>
<!-- join_validator_set_internal -->
<g id="node1" class="node">
<title>join_validator_set_internal</title>
<ellipse fill="none" stroke="black" cx="170.09" cy="-18" rx="105.08" ry="18"/>
<text text-anchor="middle" x="170.09" y="-14.3" font-family="Times,serif" font-size="14.00">join_validator_set_internal</text>
</g>
<!-- join_validator_set -->
<g id="node2" class="node">
<title>join_validator_set</title>
<ellipse fill="none" stroke="black" cx="74.09" cy="-90" rx="74.19" ry="18"/>
<text text-anchor="middle" x="74.09" y="-86.3" font-family="Times,serif" font-size="14.00">join_validator_set</text>
</g>
<!-- join_validator_set&#45;&gt;join_validator_set_internal -->
<g id="edge1" class="edge">
<title>join_validator_set&#45;&gt;join_validator_set_internal</title>
<path fill="none" stroke="black" d="M96.84,-72.41C109.1,-63.48 124.42,-52.3 137.88,-42.49"/>
<polygon fill="black" stroke="black" points="139.6,-45.57 145.62,-36.85 135.47,-39.91 139.6,-45.57"/>
</g>
<!-- genesis::initialize_validator -->
<g id="node3" class="node">
<title>genesis::initialize_validator</title>
<ellipse fill="none" stroke="black" cx="267.09" cy="-90" rx="77.19" ry="18"/>
<text text-anchor="middle" x="267.09" y="-86.3" font-family="Times,serif" font-size="14.00">initialize_validator</text>
</g>
<!-- genesis::initialize_validator&#45;&gt;join_validator_set_internal -->
<g id="edge2" class="edge">
<title>genesis::initialize_validator&#45;&gt;join_validator_set_internal</title>
<path fill="none" stroke="black" d="M244.11,-72.41C231.72,-63.48 216.24,-52.3 202.64,-42.49"/>
<polygon fill="black" stroke="black" points="204.97,-39.86 194.82,-36.84 200.88,-45.53 204.97,-39.86"/>
</g>
<!-- genesis::create_employee_validators -->
<g id="node4" class="node">
<title>genesis::create_employee_validators</title>
<ellipse fill="none" stroke="black" cx="498.09" cy="-162" rx="109.68" ry="18"/>
<text text-anchor="middle" x="498.09" y="-158.3" font-family="Times,serif" font-size="14.00">create_employee_validators</text>
</g>
<!-- genesis::create_employee_validators&#45;&gt;genesis::initialize_validator -->
<g id="edge3" class="edge">
<title>genesis::create_employee_validators&#45;&gt;genesis::initialize_validator</title>
<path fill="none" stroke="black" d="M447.4,-145.64C410.89,-134.58 361.62,-119.64 323.81,-108.19"/>
<polygon fill="black" stroke="black" points="325,-104.89 314.42,-105.34 322.97,-111.59 325,-104.89"/>
</g>
<!-- genesis::create_initialize_validator -->
<g id="node5" class="node">
<title>genesis::create_initialize_validator</title>
<ellipse fill="none" stroke="black" cx="267.09" cy="-162" rx="102.88" ry="18"/>
<text text-anchor="middle" x="267.09" y="-158.3" font-family="Times,serif" font-size="14.00">create_initialize_validator</text>
</g>
<!-- genesis::create_initialize_validator&#45;&gt;genesis::initialize_validator -->
<g id="edge4" class="edge">
<title>genesis::create_initialize_validator&#45;&gt;genesis::initialize_validator</title>
<path fill="none" stroke="black" d="M267.09,-143.7C267.09,-136.41 267.09,-127.73 267.09,-119.54"/>
<polygon fill="black" stroke="black" points="270.59,-119.62 267.09,-109.62 263.59,-119.62 270.59,-119.62"/>
</g>
<!-- genesis::initialize_for_verification -->
<g id="node6" class="node">
<title>genesis::initialize_for_verification</title>
<ellipse fill="none" stroke="black" cx="507.09" cy="-306" rx="100.98" ry="18"/>
<text text-anchor="middle" x="507.09" y="-302.3" font-family="Times,serif" font-size="14.00">initialize_for_verification</text>
</g>
<!-- genesis::initialize_for_verification&#45;&gt;genesis::create_employee_validators -->
<g id="edge5" class="edge">
<title>genesis::initialize_for_verification&#45;&gt;genesis::create_employee_validators</title>
<path fill="none" stroke="black" d="M513.45,-287.85C519.27,-269.86 526.24,-240.81 521.09,-216 519.3,-207.36 516.02,-198.39 512.49,-190.35"/>
<polygon fill="black" stroke="black" points="515.72,-188.99 508.28,-181.44 509.39,-191.98 515.72,-188.99"/>
</g>
<!-- genesis::create_initialize_validators_with_commission -->
<g id="node7" class="node">
<title>genesis::create_initialize_validators_with_commission</title>
<ellipse fill="none" stroke="black" cx="338.09" cy="-234" rx="173.57" ry="18"/>
<text text-anchor="middle" x="338.09" y="-230.3" font-family="Times,serif" font-size="14.00">create_initialize_validators_with_commission</text>
</g>
<!-- genesis::initialize_for_verification&#45;&gt;genesis::create_initialize_validators_with_commission -->
<g id="edge7" class="edge">
<title>genesis::initialize_for_verification&#45;&gt;genesis::create_initialize_validators_with_commission</title>
<path fill="none" stroke="black" d="M468.32,-288.94C444.96,-279.26 414.92,-266.82 389.58,-256.33"/>
<polygon fill="black" stroke="black" points="391.02,-253.13 380.44,-252.54 388.34,-259.6 391.02,-253.13"/>
</g>
<!-- genesis::create_initialize_validators_with_commission&#45;&gt;genesis::create_initialize_validator -->
<g id="edge6" class="edge">
<title>genesis::create_initialize_validators_with_commission&#45;&gt;genesis::create_initialize_validator</title>
<path fill="none" stroke="black" d="M320.54,-215.7C312.12,-207.39 301.86,-197.28 292.59,-188.14"/>
<polygon fill="black" stroke="black" points="295.1,-185.7 285.52,-181.17 290.18,-190.68 295.1,-185.7"/>
</g>
<!-- genesis::create_initialize_validators -->
<g id="node8" class="node">
<title>genesis::create_initialize_validators</title>
<ellipse fill="none" stroke="black" cx="282.09" cy="-306" rx="105.88" ry="18"/>
<text text-anchor="middle" x="282.09" y="-302.3" font-family="Times,serif" font-size="14.00">create_initialize_validators</text>
</g>
<!-- genesis::create_initialize_validators&#45;&gt;genesis::create_initialize_validators_with_commission -->
<g id="edge8" class="edge">
<title>genesis::create_initialize_validators&#45;&gt;genesis::create_initialize_validators_with_commission</title>
<path fill="none" stroke="black" d="M295.94,-287.7C302.38,-279.64 310.18,-269.89 317.31,-260.98"/>
<polygon fill="black" stroke="black" points="319.95,-263.28 323.46,-253.29 314.48,-258.91 319.95,-263.28"/>
</g>
</g>
</svg>
