<?xml version="1.0" encoding="UTF-8" standalone="no"?>
<!DOCTYPE svg PUBLIC "-//W3C//DTD SVG 1.1//EN"
 "http://www.w3.org/Graphics/SVG/1.1/DTD/svg11.dtd">
<!-- Generated by graphviz version 7.0.4 (20221203.1631)
 -->
<!-- Title: G Pages: 1 -->
<svg width="502pt" height="393pt"
 viewBox="0.00 0.00 502.00 393.00" xmlns="http://www.w3.org/2000/svg" xmlns:xlink="http://www.w3.org/1999/xlink">
<g id="graph0" class="graph" transform="scale(1 1) rotate(0) translate(4 389)">
<title>G</title>
<polygon fill="white" stroke="none" points="-4,4 -4,-389 498,-389 498,4 -4,4"/>
<g id="clust1" class="cluster">
<title>cluster_aptos_governance</title>
<polygon fill="none" stroke="black" points="8,-64 8,-222 228,-222 228,-64 8,-64"/>
<text text-anchor="middle" x="118" y="-206.8" font-family="Times,serif" font-size="14.00">aptos_governance</text>
</g>
<g id="clust2" class="cluster">
<title>cluster_staking_contract</title>
<polygon fill="none" stroke="black" points="236,-64 236,-139 366,-139 366,-64 236,-64"/>
<text text-anchor="middle" x="301" y="-123.8" font-family="Times,serif" font-size="14.00">staking_contract</text>
</g>
<g id="clust3" class="cluster">
<title>cluster_vesting</title>
<polygon fill="none" stroke="black" points="298,-147 298,-222 428,-222 428,-147 298,-147"/>
<text text-anchor="middle" x="363" y="-206.8" font-family="Times,serif" font-size="14.00">vesting</text>
</g>
<g id="clust4" class="cluster">
<title>cluster_staking_proxy</title>
<polygon fill="none" stroke="black" points="31,-230 31,-377 486,-377 486,-230 31,-230"/>
<text text-anchor="middle" x="258.5" y="-361.8" font-family="Times,serif" font-size="14.00">staking_proxy</text>
</g>
<!-- get_delegated_voter -->
<g id="node1" class="node">
<title>get_delegated_voter</title>
<ellipse fill="none" stroke="black" cx="202" cy="-18" rx="81.79" ry="18"/>
<text text-anchor="middle" x="202" y="-14.3" font-family="Times,serif" font-size="14.00">get_delegated_voter</text>
</g>
<!-- aptos_governance::create_proposal_v2 -->
<g id="node2" class="node">
<title>aptos_governance::create_proposal_v2</title>
<ellipse fill="none" stroke="black" cx="95" cy="-90" rx="79.09" ry="18"/>
<text text-anchor="middle" x="95" y="-86.3" font-family="Times,serif" font-size="14.00">create_proposal_v2</text>
</g>
<!-- aptos_governance::create_proposal_v2&#45;&gt;get_delegated_voter -->
<g id="edge1" class="edge">
<title>aptos_governance::create_proposal_v2&#45;&gt;get_delegated_voter</title>
<path fill="none" stroke="black" d="M120.09,-72.59C134.2,-63.35 152.04,-51.68 167.46,-41.59"/>
<polygon fill="black" stroke="black" points="168.98,-44.78 175.43,-36.38 165.15,-38.93 168.98,-44.78"/>
</g>
<!-- aptos_governance::vote -->
<g id="node3" class="node">
<title>aptos_governance::vote</title>
<ellipse fill="none" stroke="black" cx="193" cy="-173" rx="27" ry="18"/>
<text text-anchor="middle" x="193" y="-169.3" font-family="Times,serif" font-size="14.00">vote</text>
</g>
<!-- aptos_governance::vote&#45;&gt;get_delegated_voter -->
<g id="edge2" class="edge">
<title>aptos_governance::vote&#45;&gt;get_delegated_voter</title>
<path fill="none" stroke="black" d="M194.01,-154.75C195.55,-128.69 198.47,-79.01 200.32,-47.52"/>
<polygon fill="black" stroke="black" points="203.79,-48.12 200.89,-37.94 196.8,-47.71 203.79,-48.12"/>
</g>
<!-- staking_contract::update_voter -->
<g id="node4" class="node">
<title>staking_contract::update_voter</title>
<ellipse fill="none" stroke="black" cx="301" cy="-90" rx="56.59" ry="18"/>
<text text-anchor="middle" x="301" y="-86.3" font-family="Times,serif" font-size="14.00">update_voter</text>
</g>
<!-- staking_contract::update_voter&#45;&gt;get_delegated_voter -->
<g id="edge3" class="edge">
<title>staking_contract::update_voter&#45;&gt;get_delegated_voter</title>
<path fill="none" stroke="black" d="M278.54,-73.12C265.53,-63.92 248.92,-52.18 234.51,-41.98"/>
<polygon fill="black" stroke="black" points="236.83,-39.34 226.64,-36.43 232.79,-45.06 236.83,-39.34"/>
</g>
<!-- aptos_governance::create_proposal -->
<g id="node5" class="node">
<title>aptos_governance::create_proposal</title>
<ellipse fill="none" stroke="black" cx="82" cy="-173" rx="66.09" ry="18"/>
<text text-anchor="middle" x="82" y="-169.3" font-family="Times,serif" font-size="14.00">create_proposal</text>
</g>
<!-- aptos_governance::create_proposal&#45;&gt;aptos_governance::create_proposal_v2 -->
<g id="edge4" class="edge">
<title>aptos_governance::create_proposal&#45;&gt;aptos_governance::create_proposal_v2</title>
<path fill="none" stroke="black" d="M84.76,-154.82C86.4,-144.58 88.53,-131.33 90.42,-119.55"/>
<polygon fill="black" stroke="black" points="93.83,-120.36 91.96,-109.93 86.92,-119.25 93.83,-120.36"/>
</g>
<!-- vesting::update_voter -->
<g id="node6" class="node">
<title>vesting::update_voter</title>
<ellipse fill="none" stroke="black" cx="363" cy="-173" rx="56.59" ry="18"/>
<text text-anchor="middle" x="363" y="-169.3" font-family="Times,serif" font-size="14.00">update_voter</text>
</g>
<!-- vesting::update_voter&#45;&gt;staking_contract::update_voter -->
<g id="edge5" class="edge">
<title>vesting::update_voter&#45;&gt;staking_contract::update_voter</title>
<path fill="none" stroke="black" d="M350.15,-155.22C341.67,-144.14 330.4,-129.41 320.78,-116.85"/>
<polygon fill="black" stroke="black" points="323.61,-114.78 314.75,-108.96 318.05,-119.03 323.61,-114.78"/>
</g>
<!-- staking_proxy::set_staking_contract_voter -->
<g id="node7" class="node">
<title>staking_proxy::set_staking_contract_voter</title>
<ellipse fill="none" stroke="black" cx="144" cy="-256" rx="105.08" ry="18"/>
<text text-anchor="middle" x="144" y="-252.3" font-family="Times,serif" font-size="14.00">set_staking_contract_voter</text>
</g>
<!-- staking_proxy::set_staking_contract_voter&#45;&gt;staking_contract::update_voter -->
<g id="edge6" class="edge">
<title>staking_proxy::set_staking_contract_voter&#45;&gt;staking_contract::update_voter</title>
<path fill="none" stroke="black" d="M200.91,-240.59C212.07,-235.94 223.06,-229.88 232,-222 263.5,-194.24 282.89,-148.58 292.8,-119.16"/>
<polygon fill="black" stroke="black" points="296.07,-120.42 295.79,-109.83 289.41,-118.28 296.07,-120.42"/>
</g>
<!-- staking_proxy::set_vesting_contract_voter -->
<g id="node8" class="node">
<title>staking_proxy::set_vesting_contract_voter</title>
<ellipse fill="none" stroke="black" cx="373" cy="-256" rx="105.08" ry="18"/>
<text text-anchor="middle" x="373" y="-252.3" font-family="Times,serif" font-size="14.00">set_vesting_contract_voter</text>
</g>
<!-- staking_proxy::set_vesting_contract_voter&#45;&gt;vesting::update_voter -->
<g id="edge7" class="edge">
<title>staking_proxy::set_vesting_contract_voter&#45;&gt;vesting::update_voter</title>
<path fill="none" stroke="black" d="M370.88,-237.82C369.62,-227.58 367.98,-214.33 366.52,-202.55"/>
<polygon fill="black" stroke="black" points="370.04,-202.43 365.34,-192.93 363.09,-203.29 370.04,-202.43"/>
</g>
<!-- staking_proxy::set_voter -->
<g id="node9" class="node">
<title>staking_proxy::set_voter</title>
<ellipse fill="none" stroke="black" cx="258" cy="-328" rx="42.79" ry="18"/>
<text text-anchor="middle" x="258" y="-324.3" font-family="Times,serif" font-size="14.00">set_voter</text>
</g>
<!-- staking_proxy::set_voter&#45;&gt;staking_proxy::set_staking_contract_voter -->
<g id="edge8" class="edge">
<title>staking_proxy::set_voter&#45;&gt;staking_proxy::set_staking_contract_voter</title>
<path fill="none" stroke="black" d="M234.66,-312.67C219.16,-303.15 198.48,-290.45 180.79,-279.59"/>
<polygon fill="black" stroke="black" points="182.97,-276.82 172.61,-274.57 179.31,-282.79 182.97,-276.82"/>
</g>
<!-- staking_proxy::set_voter&#45;&gt;staking_proxy::set_vesting_contract_voter -->
<g id="edge9" class="edge">
<title>staking_proxy::set_voter&#45;&gt;staking_proxy::set_vesting_contract_voter</title>
<path fill="none" stroke="black" d="M281.55,-312.67C297.18,-303.15 318.04,-290.45 335.88,-279.59"/>
<polygon fill="black" stroke="black" points="337.42,-282.75 344.14,-274.57 333.78,-276.78 337.42,-282.75"/>
</g>
</g>
</svg>
