<?xml version="1.0" encoding="UTF-8" standalone="no"?>
<!DOCTYPE svg PUBLIC "-//W3C//DTD SVG 1.1//EN"
 "http://www.w3.org/Graphics/SVG/1.1/DTD/svg11.dtd">
<!-- Generated by graphviz version 7.0.4 (20221203.1631)
 -->
<!-- Title: G Pages: 1 -->
<svg width="2580pt" height="606pt"
 viewBox="0.00 0.00 2580.00 606.00" xmlns="http://www.w3.org/2000/svg" xmlns:xlink="http://www.w3.org/1999/xlink">
<g id="graph0" class="graph" transform="scale(1 1) rotate(0) translate(4 602)">
<title>G</title>
<polygon fill="white" stroke="none" points="-4,4 -4,-602 2576,-602 2576,4 -4,4"/>
<g id="clust1" class="cluster">
<title>cluster_signer</title>
<polygon fill="none" stroke="black" points="8,-246 8,-404 158,-404 158,-246 8,-246"/>
<text text-anchor="middle" x="83" y="-388.8" font-family="Times,serif" font-size="14.00">signer</text>
</g>
<g id="clust2" class="cluster">
<title>cluster_event</title>
<polygon fill="none" stroke="black" points="270,-246 270,-404 456,-404 456,-246 270,-246"/>
<text text-anchor="middle" x="363" y="-388.8" font-family="Times,serif" font-size="14.00">event</text>
</g>
<g id="clust3" class="cluster">
<title>cluster_coin</title>
<polygon fill="none" stroke="black" points="464,-329 464,-479 860,-479 860,-329 464,-329"/>
<text text-anchor="middle" x="662" y="-463.8" font-family="Times,serif" font-size="14.00">coin</text>
</g>
<g id="clust4" class="cluster">
<title>cluster_simple_map</title>
<polygon fill="none" stroke="black" points="974,-246 974,-404 1232,-404 1232,-246 974,-246"/>
<text text-anchor="middle" x="1103" y="-388.8" font-family="Times,serif" font-size="14.00">simple_map</text>
</g>
<g id="clust5" class="cluster">
<title>cluster_stake</title>
<polygon fill="none" stroke="black" points="1240,-246 1240,-554 2026,-554 2026,-246 1240,-246"/>
<text text-anchor="middle" x="1633" y="-538.8" font-family="Times,serif" font-size="14.00">stake</text>
</g>
<g id="clust6" class="cluster">
<title>cluster_bcs</title>
<polygon fill="none" stroke="black" points="166,-246 166,-321 262,-321 262,-246 166,-246"/>
<text text-anchor="middle" x="214" y="-305.8" font-family="Times,serif" font-size="14.00">bcs</text>
</g>
<g id="clust7" class="cluster">
<title>cluster_error</title>
<polygon fill="none" stroke="black" points="508,-163 508,-321 954,-321 954,-163 508,-163"/>
<text text-anchor="middle" x="731" y="-305.8" font-family="Times,serif" font-size="14.00">error</text>
</g>
<g id="clust8" class="cluster">
<title>cluster_option</title>
<polygon fill="none" stroke="black" points="962,-91 962,-238 1198,-238 1198,-91 962,-91"/>
<text text-anchor="middle" x="1080" y="-222.8" font-family="Times,serif" font-size="14.00">option</text>
</g>
<g id="clust9" class="cluster">
<title>cluster_staking_config</title>
<polygon fill="none" stroke="black" points="2034,-329 2034,-404 2552,-404 2552,-329 2034,-329"/>
<text text-anchor="middle" x="2293" y="-388.8" font-family="Times,serif" font-size="14.00">staking_config</text>
</g>
<g id="clust10" class="cluster">
<title>cluster_vector</title>
<polygon fill="none" stroke="black" points="1002,-8 1002,-83 1209,-83 1209,-8 1002,-8"/>
<text text-anchor="middle" x="1105.5" y="-67.8" font-family="Times,serif" font-size="14.00">vector</text>
</g>
<!-- add_stake -->
<g id="node1" class="node">
<title>add_stake</title>
<ellipse fill="none" stroke="black" cx="860" cy="-580" rx="46.29" ry="18"/>
<text text-anchor="middle" x="860" y="-576.3" font-family="Times,serif" font-size="14.00">add_stake</text>
</g>
<!-- signer::address_of -->
<g id="node2" class="node">
<title>signer::address_of</title>
<ellipse fill="none" stroke="black" cx="101" cy="-355" rx="48.99" ry="18"/>
<text text-anchor="middle" x="101" y="-351.3" font-family="Times,serif" font-size="14.00">address_of</text>
</g>
<!-- add_stake&#45;&gt;signer::address_of -->
<g id="edge1" class="edge">
<title>add_stake&#45;&gt;signer::address_of</title>
<path fill="none" stroke="black" d="M813.45,-579.22C716.04,-579.2 493.84,-576.6 422,-554 301.51,-516.08 180.32,-422.87 127.92,-379.24"/>
<polygon fill="black" stroke="black" points="130.3,-376.67 120.4,-372.91 125.8,-382.03 130.3,-376.67"/>
</g>
<!-- event::emit_event -->
<g id="node3" class="node">
<title>event::emit_event</title>
<ellipse fill="none" stroke="black" cx="397" cy="-355" rx="50.09" ry="18"/>
<text text-anchor="middle" x="397" y="-351.3" font-family="Times,serif" font-size="14.00">emit_event</text>
</g>
<!-- add_stake&#45;&gt;event::emit_event -->
<g id="edge2" class="edge">
<title>add_stake&#45;&gt;event::emit_event</title>
<path fill="none" stroke="black" d="M815.09,-575.32C713.22,-566.01 469.37,-537.93 416,-479 392.88,-453.47 391.19,-412.04 393.2,-384.41"/>
<polygon fill="black" stroke="black" points="396.66,-384.95 394.13,-374.66 389.7,-384.28 396.66,-384.95"/>
</g>
<!-- coin::withdraw -->
<g id="node4" class="node">
<title>coin::withdraw</title>
<ellipse fill="none" stroke="black" cx="646" cy="-430" rx="44.39" ry="18"/>
<text text-anchor="middle" x="646" y="-426.3" font-family="Times,serif" font-size="14.00">withdraw</text>
</g>
<!-- add_stake&#45;&gt;coin::withdraw -->
<g id="edge3" class="edge">
<title>add_stake&#45;&gt;coin::withdraw</title>
<path fill="none" stroke="black" d="M833.97,-564.77C801.34,-546.5 744.2,-513.06 699,-479 689.19,-471.6 679.04,-462.75 670.28,-454.67"/>
<polygon fill="black" stroke="black" points="672.83,-452.27 663.15,-447.97 668.04,-457.37 672.83,-452.27"/>
</g>
<!-- simple_map::borrow_mut -->
<g id="node5" class="node">
<title>simple_map::borrow_mut</title>
<ellipse fill="none" stroke="black" cx="1037" cy="-355" rx="54.69" ry="18"/>
<text text-anchor="middle" x="1037" y="-351.3" font-family="Times,serif" font-size="14.00">borrow_mut</text>
</g>
<!-- add_stake&#45;&gt;simple_map::borrow_mut -->
<g id="edge4" class="edge">
<title>add_stake&#45;&gt;simple_map::borrow_mut</title>
<path fill="none" stroke="black" d="M905.61,-576.05C965.34,-569.45 1067.99,-548.1 1115,-479 1131.75,-454.38 1129.95,-437.76 1115,-412 1111.4,-405.8 1106.99,-407.94 1101,-404 1089.24,-396.27 1076.76,-387.14 1065.98,-378.93"/>
<polygon fill="black" stroke="black" points="1068.26,-376.27 1058.2,-372.93 1063.98,-381.81 1068.26,-376.27"/>
</g>
<!-- stake::add_stake_with_cap -->
<g id="node6" class="node">
<title>stake::add_stake_with_cap</title>
<ellipse fill="none" stroke="black" cx="1353" cy="-505" rx="82.59" ry="18"/>
<text text-anchor="middle" x="1353" y="-501.3" font-family="Times,serif" font-size="14.00">add_stake_with_cap</text>
</g>
<!-- add_stake&#45;&gt;stake::add_stake_with_cap -->
<g id="edge5" class="edge">
<title>add_stake&#45;&gt;stake::add_stake_with_cap</title>
<path fill="none" stroke="black" d="M906.14,-577.04C963.22,-574.14 1063.25,-567.53 1148,-554 1197,-546.18 1251.67,-533.16 1292.22,-522.65"/>
<polygon fill="black" stroke="black" points="1293.02,-526.06 1301.81,-520.14 1291.24,-519.29 1293.02,-526.06"/>
</g>
<!-- assert_staking_contract_exists -->
<g id="node7" class="node">
<title>assert_staking_contract_exists</title>
<ellipse fill="none" stroke="black" cx="988" cy="-430" rx="117.78" ry="18"/>
<text text-anchor="middle" x="988" y="-426.3" font-family="Times,serif" font-size="14.00">assert_staking_contract_exists</text>
</g>
<!-- add_stake&#45;&gt;assert_staking_contract_exists -->
<g id="edge6" class="edge">
<title>add_stake&#45;&gt;assert_staking_contract_exists</title>
<path fill="none" stroke="black" d="M874.19,-562.6C896.46,-536.84 939.81,-486.72 966.1,-456.32"/>
<polygon fill="black" stroke="black" points="968.47,-458.93 972.37,-449.08 963.18,-454.35 968.47,-458.93"/>
</g>
<!-- signer::borrow_address -->
<g id="node8" class="node">
<title>signer::borrow_address</title>
<ellipse fill="none" stroke="black" cx="83" cy="-272" rx="66.89" ry="18"/>
<text text-anchor="middle" x="83" y="-268.3" font-family="Times,serif" font-size="14.00">borrow_address</text>
</g>
<!-- signer::address_of&#45;&gt;signer::borrow_address -->
<g id="edge7" class="edge">
<title>signer::address_of&#45;&gt;signer::borrow_address</title>
<path fill="none" stroke="black" d="M97.18,-336.82C94.91,-326.58 91.96,-313.33 89.34,-301.55"/>
<polygon fill="black" stroke="black" points="92.79,-300.91 87.2,-291.91 85.95,-302.43 92.79,-300.91"/>
</g>
<!-- bcs::to_bytes -->
<g id="node9" class="node">
<title>bcs::to_bytes</title>
<ellipse fill="none" stroke="black" cx="214" cy="-272" rx="40.09" ry="18"/>
<text text-anchor="middle" x="214" y="-268.3" font-family="Times,serif" font-size="14.00">to_bytes</text>
</g>
<!-- event::emit_event&#45;&gt;bcs::to_bytes -->
<g id="edge8" class="edge">
<title>event::emit_event&#45;&gt;bcs::to_bytes</title>
<path fill="none" stroke="black" d="M350.38,-348.05C324.38,-343.35 292.09,-335.12 266,-321 254.7,-314.88 243.96,-305.75 235.2,-297.09"/>
<polygon fill="black" stroke="black" points="237.96,-294.92 228.5,-290.14 232.92,-299.77 237.96,-294.92"/>
</g>
<!-- event::write_to_event_store -->
<g id="node10" class="node">
<title>event::write_to_event_store</title>
<ellipse fill="none" stroke="black" cx="363" cy="-272" rx="85.29" ry="18"/>
<text text-anchor="middle" x="363" y="-268.3" font-family="Times,serif" font-size="14.00">write_to_event_store</text>
</g>
<!-- event::emit_event&#45;&gt;event::write_to_event_store -->
<g id="edge9" class="edge">
<title>event::emit_event&#45;&gt;event::write_to_event_store</title>
<path fill="none" stroke="black" d="M389.79,-336.82C385.4,-326.37 379.69,-312.77 374.68,-300.81"/>
<polygon fill="black" stroke="black" points="378,-299.69 370.9,-291.83 371.55,-302.4 378,-299.69"/>
</g>
<!-- coin::withdraw&#45;&gt;signer::address_of -->
<g id="edge10" class="edge">
<title>coin::withdraw&#45;&gt;signer::address_of</title>
<path fill="none" stroke="black" d="M614.13,-417.16C607.25,-415.06 599.96,-413.18 593,-412 521.33,-399.89 337.83,-415.13 266,-404 224.15,-397.51 177.98,-383.46 145.15,-372.23"/>
<polygon fill="black" stroke="black" points="146.57,-369.02 135.98,-369.04 144.27,-375.63 146.57,-369.02"/>
</g>
<!-- coin::withdraw&#45;&gt;event::emit_event -->
<g id="edge13" class="edge">
<title>coin::withdraw&#45;&gt;event::emit_event</title>
<path fill="none" stroke="black" d="M613.82,-417.26C607.02,-415.19 599.84,-413.28 593,-412 563.9,-406.55 487.76,-414.31 460,-404 445.9,-398.76 432.35,-389.24 421.45,-380.05"/>
<polygon fill="black" stroke="black" points="423.9,-377.54 414.1,-373.51 419.25,-382.77 423.9,-377.54"/>
</g>
<!-- error::not_found -->
<g id="node11" class="node">
<title>error::not_found</title>
<ellipse fill="none" stroke="black" cx="735" cy="-272" rx="46.59" ry="18"/>
<text text-anchor="middle" x="735" y="-268.3" font-family="Times,serif" font-size="14.00">not_found</text>
</g>
<!-- coin::withdraw&#45;&gt;error::not_found -->
<g id="edge11" class="edge">
<title>coin::withdraw&#45;&gt;error::not_found</title>
<path fill="none" stroke="black" d="M678.49,-417.3C685.2,-415.25 692.27,-413.34 699,-412 709.5,-409.91 787.75,-411.88 795,-404 817.57,-379.47 808.28,-359.57 795,-329 789.19,-315.63 778.43,-303.99 767.62,-294.85"/>
<polygon fill="black" stroke="black" points="769.84,-292.14 759.81,-288.71 765.51,-297.64 769.84,-292.14"/>
</g>
<!-- error::permission_denied -->
<g id="node12" class="node">
<title>error::permission_denied</title>
<ellipse fill="none" stroke="black" cx="593" cy="-272" rx="77.19" ry="18"/>
<text text-anchor="middle" x="593" y="-268.3" font-family="Times,serif" font-size="14.00">permission_denied</text>
</g>
<!-- coin::withdraw&#45;&gt;error::permission_denied -->
<g id="edge12" class="edge">
<title>coin::withdraw&#45;&gt;error::permission_denied</title>
<path fill="none" stroke="black" d="M678.52,-417.43C685.22,-415.37 692.29,-413.42 699,-412 715.18,-408.57 761.95,-416.31 773,-404 795.27,-379.2 795.55,-353.55 773,-329 758.82,-313.56 699.05,-327.14 679,-321 660.36,-315.29 641.26,-305.15 625.81,-295.65"/>
<polygon fill="black" stroke="black" points="627.82,-292.78 617.51,-290.37 624.07,-298.69 627.82,-292.78"/>
</g>
<!-- coin::extract -->
<g id="node13" class="node">
<title>coin::extract</title>
<ellipse fill="none" stroke="black" cx="730" cy="-355" rx="34.39" ry="18"/>
<text text-anchor="middle" x="730" y="-351.3" font-family="Times,serif" font-size="14.00">extract</text>
</g>
<!-- coin::withdraw&#45;&gt;coin::extract -->
<g id="edge14" class="edge">
<title>coin::withdraw&#45;&gt;coin::extract</title>
<path fill="none" stroke="black" d="M670.84,-414.93C676.03,-411.6 681.34,-407.87 686,-404 694.34,-397.07 702.6,-388.59 709.68,-380.7"/>
<polygon fill="black" stroke="black" points="712.19,-383.15 716.11,-373.3 706.91,-378.55 712.19,-383.15"/>
</g>
<!-- coin::is_account_registered -->
<g id="node14" class="node">
<title>coin::is_account_registered</title>
<ellipse fill="none" stroke="black" cx="590" cy="-355" rx="87.18" ry="18"/>
<text text-anchor="middle" x="590" y="-351.3" font-family="Times,serif" font-size="14.00">is_account_registered</text>
</g>
<!-- coin::withdraw&#45;&gt;coin::is_account_registered -->
<g id="edge15" class="edge">
<title>coin::withdraw&#45;&gt;coin::is_account_registered</title>
<path fill="none" stroke="black" d="M633.29,-412.44C626.42,-403.48 617.78,-392.22 610.03,-382.12"/>
<polygon fill="black" stroke="black" points="613.03,-380.27 604.16,-374.46 607.47,-384.53 613.03,-380.27"/>
</g>
<!-- option::extract -->
<g id="node15" class="node">
<title>option::extract</title>
<ellipse fill="none" stroke="black" cx="1156" cy="-189" rx="34.39" ry="18"/>
<text text-anchor="middle" x="1156" y="-185.3" font-family="Times,serif" font-size="14.00">extract</text>
</g>
<!-- simple_map::borrow_mut&#45;&gt;option::extract -->
<g id="edge16" class="edge">
<title>simple_map::borrow_mut&#45;&gt;option::extract</title>
<path fill="none" stroke="black" d="M1064.29,-339.01C1071.92,-333.96 1079.81,-327.85 1086,-321 1113.95,-290.05 1134.52,-245.92 1145.88,-217.62"/>
<polygon fill="black" stroke="black" points="1149.14,-218.9 1149.5,-208.31 1142.62,-216.36 1149.14,-218.9"/>
</g>
<!-- option::is_some -->
<g id="node16" class="node">
<title>option::is_some</title>
<ellipse fill="none" stroke="black" cx="1150" cy="-117" rx="40.09" ry="18"/>
<text text-anchor="middle" x="1150" y="-113.3" font-family="Times,serif" font-size="14.00">is_some</text>
</g>
<!-- simple_map::borrow_mut&#45;&gt;option::is_some -->
<g id="edge17" class="edge">
<title>simple_map::borrow_mut&#45;&gt;option::is_some</title>
<path fill="none" stroke="black" d="M1071.15,-340.49C1080.79,-336.72 1091.29,-332.66 1101,-329 1110.74,-325.33 1114.35,-326.78 1123,-321 1164.59,-293.21 1180.88,-284.62 1199,-238 1211.08,-206.93 1212.41,-193.52 1199,-163 1195.06,-154.03 1188.35,-146.07 1181.14,-139.42"/>
<polygon fill="black" stroke="black" points="1183.66,-136.97 1173.75,-133.23 1179.16,-142.33 1183.66,-136.97"/>
</g>
<!-- error::invalid_argument -->
<g id="node17" class="node">
<title>error::invalid_argument</title>
<ellipse fill="none" stroke="black" cx="873" cy="-272" rx="73.39" ry="18"/>
<text text-anchor="middle" x="873" y="-268.3" font-family="Times,serif" font-size="14.00">invalid_argument</text>
</g>
<!-- simple_map::borrow_mut&#45;&gt;error::invalid_argument -->
<g id="edge18" class="edge">
<title>simple_map::borrow_mut&#45;&gt;error::invalid_argument</title>
<path fill="none" stroke="black" d="M1007.64,-339.55C995.93,-333.79 982.32,-327.08 970,-321 951.86,-312.05 931.83,-302.13 914.69,-293.65"/>
<polygon fill="black" stroke="black" points="916.32,-290.55 905.8,-289.25 913.21,-296.82 916.32,-290.55"/>
</g>
<!-- simple_map::find -->
<g id="node18" class="node">
<title>simple_map::find</title>
<ellipse fill="none" stroke="black" cx="1050" cy="-272" rx="27" ry="18"/>
<text text-anchor="middle" x="1050" y="-268.3" font-family="Times,serif" font-size="14.00">find</text>
</g>
<!-- simple_map::borrow_mut&#45;&gt;simple_map::find -->
<g id="edge19" class="edge">
<title>simple_map::borrow_mut&#45;&gt;simple_map::find</title>
<path fill="none" stroke="black" d="M1039.76,-336.82C1041.41,-326.51 1043.56,-313.14 1045.46,-301.31"/>
<polygon fill="black" stroke="black" points="1048.88,-302.08 1047.01,-291.65 1041.97,-300.97 1048.88,-302.08"/>
</g>
<!-- stake::add_stake_with_cap&#45;&gt;event::emit_event -->
<g id="edge22" class="edge">
<title>stake::add_stake_with_cap&#45;&gt;event::emit_event</title>
<path fill="none" stroke="black" d="M1270.33,-503.95C1055.5,-503.53 493.9,-500.38 460,-479 442.57,-468.01 420.17,-416.4 407.32,-383.63"/>
<polygon fill="black" stroke="black" points="410.6,-382.4 403.74,-374.33 404.06,-384.92 410.6,-382.4"/>
</g>
<!-- stake::add_stake_with_cap&#45;&gt;option::is_some -->
<g id="edge20" class="edge">
<title>stake::add_stake_with_cap&#45;&gt;option::is_some</title>
<path fill="none" stroke="black" d="M1435.77,-504.3C1631.67,-504.61 2119.37,-502.87 2281,-479 2419.91,-458.49 2572,-496.41 2572,-356 2572,-356 2572,-356 2572,-271 2572,-130.31 1457.35,-118.81 1201.78,-118.02"/>
<polygon fill="black" stroke="black" points="1201.79,-114.52 1191.78,-118 1201.77,-121.52 1201.79,-114.52"/>
</g>
<!-- stake::add_stake_with_cap&#45;&gt;error::invalid_argument -->
<g id="edge21" class="edge">
<title>stake::add_stake_with_cap&#45;&gt;error::invalid_argument</title>
<path fill="none" stroke="black" d="M1290.22,-492.89C1274.25,-489.24 1257.29,-484.64 1242,-479 1182.13,-456.91 1176.6,-428.67 1115,-412 1095.14,-406.62 946.96,-415.65 930,-404 929.43,-403.61 901.55,-339.18 885,-300.83"/>
<polygon fill="black" stroke="black" points="888.25,-299.51 881.07,-291.72 881.82,-302.29 888.25,-299.51"/>
</g>
<!-- coin::value -->
<g id="node19" class="node">
<title>coin::value</title>
<ellipse fill="none" stroke="black" cx="738" cy="-430" rx="29.8" ry="18"/>
<text text-anchor="middle" x="738" y="-426.3" font-family="Times,serif" font-size="14.00">value</text>
</g>
<!-- stake::add_stake_with_cap&#45;&gt;coin::value -->
<g id="edge23" class="edge">
<title>stake::add_stake_with_cap&#45;&gt;coin::value</title>
<path fill="none" stroke="black" d="M1270.18,-504.14C1121.28,-503.84 819.84,-500.54 777,-479 767.24,-474.09 759.08,-465.51 752.79,-456.94"/>
<polygon fill="black" stroke="black" points="755.78,-455.12 747.33,-448.74 749.96,-459 755.78,-455.12"/>
</g>
<!-- coin::destroy_zero -->
<g id="node20" class="node">
<title>coin::destroy_zero</title>
<ellipse fill="none" stroke="black" cx="528" cy="-430" rx="55.79" ry="18"/>
<text text-anchor="middle" x="528" y="-426.3" font-family="Times,serif" font-size="14.00">destroy_zero</text>
</g>
<!-- stake::add_stake_with_cap&#45;&gt;coin::destroy_zero -->
<g id="edge24" class="edge">
<title>stake::add_stake_with_cap&#45;&gt;coin::destroy_zero</title>
<path fill="none" stroke="black" d="M1270.14,-504.05C1086.29,-503.75 655.51,-500.72 593,-479 578.36,-473.91 564.25,-464.28 552.94,-454.97"/>
<polygon fill="black" stroke="black" points="555.51,-452.56 545.66,-448.65 550.92,-457.85 555.51,-452.56"/>
</g>
<!-- coin::merge -->
<g id="node21" class="node">
<title>coin::merge</title>
<ellipse fill="none" stroke="black" cx="819" cy="-430" rx="33.29" ry="18"/>
<text text-anchor="middle" x="819" y="-426.3" font-family="Times,serif" font-size="14.00">merge</text>
</g>
<!-- stake::add_stake_with_cap&#45;&gt;coin::merge -->
<g id="edge25" class="edge">
<title>stake::add_stake_with_cap&#45;&gt;coin::merge</title>
<path fill="none" stroke="black" d="M1270.52,-503.3C1139.97,-501.68 896.76,-496.34 861,-479 850.76,-474.03 841.97,-465.31 835.11,-456.66"/>
<polygon fill="black" stroke="black" points="838.05,-454.74 829.35,-448.7 832.38,-458.85 838.05,-454.74"/>
</g>
<!-- staking_config::get -->
<g id="node22" class="node">
<title>staking_config::get</title>
<ellipse fill="none" stroke="black" cx="2345" cy="-355" rx="27" ry="18"/>
<text text-anchor="middle" x="2345" y="-351.3" font-family="Times,serif" font-size="14.00">get</text>
</g>
<!-- stake::add_stake_with_cap&#45;&gt;staking_config::get -->
<g id="edge26" class="edge">
<title>stake::add_stake_with_cap&#45;&gt;staking_config::get</title>
<path fill="none" stroke="black" d="M1435.66,-503.23C1589.76,-501.42 1915.39,-495.7 2027,-479 2155.26,-459.81 2201.5,-476.54 2309,-404 2317.35,-398.37 2324.53,-390.14 2330.23,-382.09"/>
<polygon fill="black" stroke="black" points="2333.1,-384.09 2335.6,-373.8 2327.22,-380.28 2333.1,-384.09"/>
</g>
<!-- staking_config::get_required_stake -->
<g id="node23" class="node">
<title>staking_config::get_required_stake</title>
<ellipse fill="none" stroke="black" cx="2467" cy="-355" rx="77.19" ry="18"/>
<text text-anchor="middle" x="2467" y="-351.3" font-family="Times,serif" font-size="14.00">get_required_stake</text>
</g>
<!-- stake::add_stake_with_cap&#45;&gt;staking_config::get_required_stake -->
<g id="edge27" class="edge">
<title>stake::add_stake_with_cap&#45;&gt;staking_config::get_required_stake</title>
<path fill="none" stroke="black" d="M1435.32,-502.98C1629.25,-500.37 2103.89,-492.66 2175,-479 2270.69,-460.62 2292.4,-444.54 2381,-404 2397.68,-396.37 2415.47,-386.71 2430.53,-378.06"/>
<polygon fill="black" stroke="black" points="2432.28,-381.09 2439.15,-373.03 2428.75,-375.04 2432.28,-381.09"/>
</g>
<!-- stake::assert_stake_pool_exists -->
<g id="node24" class="node">
<title>stake::assert_stake_pool_exists</title>
<ellipse fill="none" stroke="black" cx="1345" cy="-355" rx="97.48" ry="18"/>
<text text-anchor="middle" x="1345" y="-351.3" font-family="Times,serif" font-size="14.00">assert_stake_pool_exists</text>
</g>
<!-- stake::add_stake_with_cap&#45;&gt;stake::assert_stake_pool_exists -->
<g id="edge28" class="edge">
<title>stake::add_stake_with_cap&#45;&gt;stake::assert_stake_pool_exists</title>
<path fill="none" stroke="black" d="M1289.55,-493.18C1275.49,-489.47 1263.43,-484.76 1259,-479 1240.85,-455.39 1244.81,-438.18 1259,-412 1267,-397.24 1280.77,-385.75 1294.97,-377.14"/>
<polygon fill="black" stroke="black" points="1296.48,-380.31 1303.49,-372.36 1293.05,-374.2 1296.48,-380.31"/>
</g>
<!-- stake::find_validator -->
<g id="node25" class="node">
<title>stake::find_validator</title>
<ellipse fill="none" stroke="black" cx="1475" cy="-272" rx="60.39" ry="18"/>
<text text-anchor="middle" x="1475" y="-268.3" font-family="Times,serif" font-size="14.00">find_validator</text>
</g>
<!-- stake::add_stake_with_cap&#45;&gt;stake::find_validator -->
<g id="edge29" class="edge">
<title>stake::add_stake_with_cap&#45;&gt;stake::find_validator</title>
<path fill="none" stroke="black" d="M1428.59,-497.33C1455.35,-493.53 1481.25,-487.73 1491,-479 1514.16,-458.28 1486.75,-431.44 1511,-412 1530.64,-396.26 1606.84,-422.42 1624,-404 1646.72,-379.61 1642.98,-356.4 1624,-329 1605.57,-302.39 1572.82,-288.41 1542.71,-281.07"/>
<polygon fill="black" stroke="black" points="1543.76,-277.72 1533.24,-278.98 1542.25,-284.55 1543.76,-277.72"/>
</g>
<!-- stake::get_next_epoch_voting_power -->
<g id="node26" class="node">
<title>stake::get_next_epoch_voting_power</title>
<ellipse fill="none" stroke="black" cx="1898" cy="-430" rx="119.68" ry="18"/>
<text text-anchor="middle" x="1898" y="-426.3" font-family="Times,serif" font-size="14.00">get_next_epoch_voting_power</text>
</g>
<!-- stake::add_stake_with_cap&#45;&gt;stake::get_next_epoch_voting_power -->
<g id="edge30" class="edge">
<title>stake::add_stake_with_cap&#45;&gt;stake::get_next_epoch_voting_power</title>
<path fill="none" stroke="black" d="M1434.75,-501.95C1537.36,-498.88 1707.41,-492.01 1769,-479 1797.31,-473.02 1827.7,-461.96 1851.87,-451.96"/>
<polygon fill="black" stroke="black" points="1852.92,-455.32 1860.76,-448.2 1850.19,-448.87 1852.92,-455.32"/>
</g>
<!-- stake::is_current_epoch_validator -->
<g id="node27" class="node">
<title>stake::is_current_epoch_validator</title>
<ellipse fill="none" stroke="black" cx="1375" cy="-430" rx="106.68" ry="18"/>
<text text-anchor="middle" x="1375" y="-426.3" font-family="Times,serif" font-size="14.00">is_current_epoch_validator</text>
</g>
<!-- stake::add_stake_with_cap&#45;&gt;stake::is_current_epoch_validator -->
<g id="edge31" class="edge">
<title>stake::add_stake_with_cap&#45;&gt;stake::is_current_epoch_validator</title>
<path fill="none" stroke="black" d="M1358.21,-486.7C1360.69,-478.49 1363.71,-468.46 1366.5,-459.19"/>
<polygon fill="black" stroke="black" points="1369.78,-460.46 1369.31,-449.88 1363.07,-458.44 1369.78,-460.46"/>
</g>
<!-- stake::update_voting_power_increase -->
<g id="node28" class="node">
<title>stake::update_voting_power_increase</title>
<ellipse fill="none" stroke="black" cx="1640" cy="-430" rx="120.48" ry="18"/>
<text text-anchor="middle" x="1640" y="-426.3" font-family="Times,serif" font-size="14.00">update_voting_power_increase</text>
</g>
<!-- stake::add_stake_with_cap&#45;&gt;stake::update_voting_power_increase -->
<g id="edge32" class="edge">
<title>stake::add_stake_with_cap&#45;&gt;stake::update_voting_power_increase</title>
<path fill="none" stroke="black" d="M1423.25,-495.26C1449.44,-491.29 1479.29,-485.9 1506,-479 1534.14,-471.73 1564.7,-461.01 1589.52,-451.54"/>
<polygon fill="black" stroke="black" points="1590.66,-454.85 1598.73,-447.98 1588.14,-448.32 1590.66,-454.85"/>
</g>
<!-- assert_staking_contract_exists&#45;&gt;error::not_found -->
<g id="edge33" class="edge">
<title>assert_staking_contract_exists&#45;&gt;error::not_found</title>
<path fill="none" stroke="black" d="M919.58,-414.95C913.26,-411.97 907.27,-408.37 902,-404 873.24,-380.15 894.72,-350.27 864,-329 837.16,-310.42 820.95,-333.98 791,-321 778.41,-315.54 766.54,-306.24 757,-297.27"/>
<polygon fill="black" stroke="black" points="759.57,-294.89 750.01,-290.31 754.63,-299.85 759.57,-294.89"/>
</g>
<!-- simple_map::contains_key -->
<g id="node29" class="node">
<title>simple_map::contains_key</title>
<ellipse fill="none" stroke="black" cx="1167" cy="-355" rx="57.39" ry="18"/>
<text text-anchor="middle" x="1167" y="-351.3" font-family="Times,serif" font-size="14.00">contains_key</text>
</g>
<!-- assert_staking_contract_exists&#45;&gt;simple_map::contains_key -->
<g id="edge34" class="edge">
<title>assert_staking_contract_exists&#45;&gt;simple_map::contains_key</title>
<path fill="none" stroke="black" d="M1065.96,-416.18C1077.96,-412.96 1090.01,-408.95 1101,-404 1114.73,-397.82 1128.43,-388.5 1139.76,-379.71"/>
<polygon fill="black" stroke="black" points="1141.9,-382.48 1147.49,-373.49 1137.51,-377.03 1141.9,-382.48"/>
</g>
<!-- error::canonical -->
<g id="node30" class="node">
<title>error::canonical</title>
<ellipse fill="none" stroke="black" cx="735" cy="-189" rx="44.39" ry="18"/>
<text text-anchor="middle" x="735" y="-185.3" font-family="Times,serif" font-size="14.00">canonical</text>
</g>
<!-- error::not_found&#45;&gt;error::canonical -->
<g id="edge35" class="edge">
<title>error::not_found&#45;&gt;error::canonical</title>
<path fill="none" stroke="black" d="M735,-253.82C735,-243.69 735,-230.6 735,-218.92"/>
<polygon fill="black" stroke="black" points="738.5,-218.95 735,-208.95 731.5,-218.95 738.5,-218.95"/>
</g>
<!-- error::permission_denied&#45;&gt;error::canonical -->
<g id="edge36" class="edge">
<title>error::permission_denied&#45;&gt;error::canonical</title>
<path fill="none" stroke="black" d="M621.39,-254.8C644.06,-241.88 675.91,-223.71 700.12,-209.9"/>
<polygon fill="black" stroke="black" points="701.71,-213.02 708.67,-205.02 698.25,-206.94 701.71,-213.02"/>
</g>
<!-- coin::extract&#45;&gt;error::invalid_argument -->
<g id="edge37" class="edge">
<title>coin::extract&#45;&gt;error::invalid_argument</title>
<path fill="none" stroke="black" d="M753.56,-341.49C764.93,-335.4 778.72,-327.91 791,-321 805.92,-312.6 822.22,-303.12 836.34,-294.82"/>
<polygon fill="black" stroke="black" points="838.04,-297.88 844.87,-289.78 834.48,-291.85 838.04,-297.88"/>
</g>
<!-- option::extract&#45;&gt;option::is_some -->
<g id="edge38" class="edge">
<title>option::extract&#45;&gt;option::is_some</title>
<path fill="none" stroke="black" d="M1154.52,-170.7C1153.89,-163.41 1153.15,-154.73 1152.45,-146.54"/>
<polygon fill="black" stroke="black" points="1155.94,-146.28 1151.6,-136.61 1148.96,-146.87 1155.94,-146.28"/>
</g>
<!-- vector::is_empty -->
<g id="node31" class="node">
<title>vector::is_empty</title>
<ellipse fill="none" stroke="black" cx="1157" cy="-34" rx="43.59" ry="18"/>
<text text-anchor="middle" x="1157" y="-30.3" font-family="Times,serif" font-size="14.00">is_empty</text>
</g>
<!-- option::is_some&#45;&gt;vector::is_empty -->
<g id="edge39" class="edge">
<title>option::is_some&#45;&gt;vector::is_empty</title>
<path fill="none" stroke="black" d="M1151.48,-98.82C1152.37,-88.58 1153.52,-75.33 1154.53,-63.55"/>
<polygon fill="black" stroke="black" points="1157.99,-64.2 1155.36,-53.94 1151.02,-63.6 1157.99,-64.2"/>
</g>
<!-- error::invalid_argument&#45;&gt;error::canonical -->
<g id="edge40" class="edge">
<title>error::invalid_argument&#45;&gt;error::canonical</title>
<path fill="none" stroke="black" d="M845.74,-255C823.74,-242.09 792.69,-223.86 769.06,-209.99"/>
<polygon fill="black" stroke="black" points="771.13,-207.15 760.74,-205.11 767.59,-213.19 771.13,-207.15"/>
</g>
<!-- option::none -->
<g id="node32" class="node">
<title>option::none</title>
<ellipse fill="none" stroke="black" cx="998" cy="-189" rx="27.9" ry="18"/>
<text text-anchor="middle" x="998" y="-185.3" font-family="Times,serif" font-size="14.00">none</text>
</g>
<!-- simple_map::find&#45;&gt;option::none -->
<g id="edge41" class="edge">
<title>simple_map::find&#45;&gt;option::none</title>
<path fill="none" stroke="black" d="M1039.73,-255C1032.46,-243.68 1022.57,-228.28 1014.25,-215.31"/>
<polygon fill="black" stroke="black" points="1017.42,-213.77 1009.07,-207.24 1011.53,-217.55 1017.42,-213.77"/>
</g>
<!-- option::some -->
<g id="node33" class="node">
<title>option::some</title>
<ellipse fill="none" stroke="black" cx="1074" cy="-189" rx="29.8" ry="18"/>
<text text-anchor="middle" x="1074" y="-185.3" font-family="Times,serif" font-size="14.00">some</text>
</g>
<!-- simple_map::find&#45;&gt;option::some -->
<g id="edge42" class="edge">
<title>simple_map::find&#45;&gt;option::some</title>
<path fill="none" stroke="black" d="M1055.09,-253.82C1058.18,-243.41 1062.19,-229.87 1065.72,-217.94"/>
<polygon fill="black" stroke="black" points="1069,-219.19 1068.49,-208.6 1062.29,-217.2 1069,-219.19"/>
</g>
<!-- coin::destroy_zero&#45;&gt;error::invalid_argument -->
<g id="edge43" class="edge">
<title>coin::destroy_zero&#45;&gt;error::invalid_argument</title>
<path fill="none" stroke="black" d="M501.56,-413.77C498.52,-410.92 495.85,-407.66 494,-404 478.95,-374.26 470.75,-352.89 494,-329 505.51,-317.17 775.13,-325.53 791,-321 809.35,-315.76 827.85,-305.46 842.63,-295.73"/>
<polygon fill="black" stroke="black" points="844.24,-298.88 850.51,-290.34 840.28,-293.1 844.24,-298.88"/>
</g>
<!-- stake::assert_stake_pool_exists&#45;&gt;error::invalid_argument -->
<g id="edge44" class="edge">
<title>stake::assert_stake_pool_exists&#45;&gt;error::invalid_argument</title>
<path fill="none" stroke="black" d="M1291.6,-339.56C1274.02,-335.4 1254.29,-331.35 1236,-329 1177.34,-321.46 1027.37,-335.33 970,-321 948.36,-315.59 925.93,-304.88 908.1,-294.95"/>
<polygon fill="black" stroke="black" points="909.9,-291.94 899.49,-289.99 906.41,-298.01 909.9,-291.94"/>
</g>
<!-- stake::stake_pool_exists -->
<g id="node34" class="node">
<title>stake::stake_pool_exists</title>
<ellipse fill="none" stroke="black" cx="1323" cy="-272" rx="73.39" ry="18"/>
<text text-anchor="middle" x="1323" y="-268.3" font-family="Times,serif" font-size="14.00">stake_pool_exists</text>
</g>
<!-- stake::assert_stake_pool_exists&#45;&gt;stake::stake_pool_exists -->
<g id="edge45" class="edge">
<title>stake::assert_stake_pool_exists&#45;&gt;stake::stake_pool_exists</title>
<path fill="none" stroke="black" d="M1340.33,-336.82C1337.52,-326.48 1333.88,-313.05 1330.65,-301.18"/>
<polygon fill="black" stroke="black" points="1334.13,-300.63 1328.13,-291.89 1327.37,-302.46 1334.13,-300.63"/>
</g>
<!-- stake::find_validator&#45;&gt;option::none -->
<g id="edge46" class="edge">
<title>stake::find_validator&#45;&gt;option::none</title>
<path fill="none" stroke="black" d="M1441.78,-256.67C1430.34,-252.41 1417.31,-248.27 1405,-246 1384.78,-242.27 1053.35,-247.27 1035,-238 1025.55,-233.23 1017.81,-224.79 1011.9,-216.31"/>
<polygon fill="black" stroke="black" points="1014.87,-214.46 1006.61,-207.83 1008.94,-218.16 1014.87,-214.46"/>
</g>
<!-- stake::find_validator&#45;&gt;option::some -->
<g id="edge47" class="edge">
<title>stake::find_validator&#45;&gt;option::some</title>
<path fill="none" stroke="black" d="M1441.42,-256.58C1430.06,-252.37 1417.18,-248.28 1405,-246 1373.1,-240.02 1142.11,-252.35 1113,-238 1103.2,-233.17 1095.03,-224.6 1088.75,-216.03"/>
<polygon fill="black" stroke="black" points="1091.74,-214.2 1083.3,-207.8 1085.9,-218.07 1091.74,-214.2"/>
</g>
<!-- stake::get_next_epoch_voting_power&#45;&gt;coin::value -->
<g id="edge48" class="edge">
<title>stake::get_next_epoch_voting_power&#45;&gt;coin::value</title>
<path fill="none" stroke="black" d="M1863.02,-447.56C1835.73,-460.22 1796.46,-476.24 1760,-483 1733.4,-487.93 812.47,-488.62 786,-483 771.77,-479.98 760.51,-468.62 752.48,-457.19"/>
<polygon fill="black" stroke="black" points="755.62,-455.6 747.31,-449.03 749.71,-459.35 755.62,-455.6"/>
</g>
<!-- stake::is_current_epoch_validator&#45;&gt;stake::assert_stake_pool_exists -->
<g id="edge49" class="edge">
<title>stake::is_current_epoch_validator&#45;&gt;stake::assert_stake_pool_exists</title>
<path fill="none" stroke="black" d="M1367.89,-411.7C1364.48,-403.4 1360.3,-393.24 1356.46,-383.88"/>
<polygon fill="black" stroke="black" points="1359.78,-382.75 1352.74,-374.83 1353.3,-385.41 1359.78,-382.75"/>
</g>
<!-- stake::get_validator_state -->
<g id="node35" class="node">
<title>stake::get_validator_state</title>
<ellipse fill="none" stroke="black" cx="1538" cy="-355" rx="77.19" ry="18"/>
<text text-anchor="middle" x="1538" y="-351.3" font-family="Times,serif" font-size="14.00">get_validator_state</text>
</g>
<!-- stake::is_current_epoch_validator&#45;&gt;stake::get_validator_state -->
<g id="edge50" class="edge">
<title>stake::is_current_epoch_validator&#45;&gt;stake::get_validator_state</title>
<path fill="none" stroke="black" d="M1425.78,-413.76C1434.3,-410.79 1442.98,-407.5 1451,-404 1468.25,-396.48 1486.6,-386.65 1501.98,-377.85"/>
<polygon fill="black" stroke="black" points="1503.42,-381.06 1510.31,-373.01 1499.9,-375.01 1503.42,-381.06"/>
</g>
<!-- stake::update_voting_power_increase&#45;&gt;error::invalid_argument -->
<g id="edge51" class="edge">
<title>stake::update_voting_power_increase&#45;&gt;error::invalid_argument</title>
<path fill="none" stroke="black" d="M1551.49,-417.45C1531.62,-415.26 1510.62,-413.27 1491,-412 1476.56,-411.07 982.35,-411.54 970,-404 937.76,-384.32 952.62,-359.25 930,-329 921.58,-317.74 910.9,-306.63 901.06,-297.3"/>
<polygon fill="black" stroke="black" points="903.55,-294.83 893.83,-290.63 898.81,-299.98 903.55,-294.83"/>
</g>
<!-- stake::update_voting_power_increase&#45;&gt;staking_config::get -->
<g id="edge52" class="edge">
<title>stake::update_voting_power_increase&#45;&gt;staking_config::get</title>
<path fill="none" stroke="black" d="M1723.13,-416.6C1738.35,-414.74 1754.13,-413.09 1769,-412 1783.96,-410.91 2295.63,-410.81 2309,-404 2318.34,-399.24 2325.9,-390.81 2331.64,-382.32"/>
<polygon fill="black" stroke="black" points="2334.58,-384.22 2336.75,-373.85 2328.58,-380.61 2334.58,-384.22"/>
</g>
<!-- staking_config::get_voting_power_increase_limit -->
<g id="node36" class="node">
<title>staking_config::get_voting_power_increase_limit</title>
<ellipse fill="none" stroke="black" cx="2171" cy="-355" rx="129.18" ry="18"/>
<text text-anchor="middle" x="2171" y="-351.3" font-family="Times,serif" font-size="14.00">get_voting_power_increase_limit</text>
</g>
<!-- stake::update_voting_power_increase&#45;&gt;staking_config::get_voting_power_increase_limit -->
<g id="edge53" class="edge">
<title>stake::update_voting_power_increase&#45;&gt;staking_config::get_voting_power_increase_limit</title>
<path fill="none" stroke="black" d="M1723.83,-416.71C1738.85,-414.87 1754.36,-413.19 1769,-412 1826.84,-407.31 1972.9,-414.35 2030,-404 2061.31,-398.32 2095.09,-387.01 2121.74,-376.8"/>
<polygon fill="black" stroke="black" points="2122.88,-380.11 2130.92,-373.21 2120.33,-373.59 2122.88,-380.11"/>
</g>
<!-- simple_map::contains_key&#45;&gt;option::is_some -->
<g id="edge54" class="edge">
<title>simple_map::contains_key&#45;&gt;option::is_some</title>
<path fill="none" stroke="black" d="M1184.7,-337.53C1189.43,-332.54 1194.26,-326.82 1198,-321 1219.56,-287.47 1224.3,-277.11 1232,-238 1238.44,-205.29 1248.98,-191.69 1232,-163 1223.46,-148.58 1208.49,-138.47 1193.65,-131.55"/>
<polygon fill="black" stroke="black" points="1195.45,-128.51 1184.87,-127.83 1192.72,-134.95 1195.45,-128.51"/>
</g>
<!-- simple_map::contains_key&#45;&gt;simple_map::find -->
<g id="edge55" class="edge">
<title>simple_map::contains_key&#45;&gt;simple_map::find</title>
<path fill="none" stroke="black" d="M1144.16,-338.19C1125.08,-324.98 1097.8,-306.09 1077.51,-292.04"/>
<polygon fill="black" stroke="black" points="1079.63,-289.26 1069.42,-286.44 1075.65,-295.01 1079.63,-289.26"/>
</g>
<!-- vector::singleton -->
<g id="node37" class="node">
<title>vector::singleton</title>
<ellipse fill="none" stroke="black" cx="1053" cy="-34" rx="42.79" ry="18"/>
<text text-anchor="middle" x="1053" y="-30.3" font-family="Times,serif" font-size="14.00">singleton</text>
</g>
<!-- option::some&#45;&gt;vector::singleton -->
<g id="edge56" class="edge">
<title>option::some&#45;&gt;vector::singleton</title>
<path fill="none" stroke="black" d="M1071.63,-170.75C1068.06,-144.69 1061.24,-95.01 1056.91,-63.52"/>
<polygon fill="black" stroke="black" points="1060.42,-63.36 1055.6,-53.92 1053.49,-64.31 1060.42,-63.36"/>
</g>
<!-- stake::get_validator_state&#45;&gt;option::is_some -->
<g id="edge57" class="edge">
<title>stake::get_validator_state&#45;&gt;option::is_some</title>
<path fill="none" stroke="black" d="M1545.08,-336.78C1553.31,-313.76 1563.43,-272.74 1544,-246 1502.61,-189.04 1294.07,-144.34 1198.26,-126.46"/>
<polygon fill="black" stroke="black" points="1199.11,-123.06 1188.65,-124.69 1197.85,-129.94 1199.11,-123.06"/>
</g>
<!-- stake::get_validator_state&#45;&gt;stake::find_validator -->
<g id="edge58" class="edge">
<title>stake::get_validator_state&#45;&gt;stake::find_validator</title>
<path fill="none" stroke="black" d="M1524.64,-336.82C1516.06,-325.79 1504.76,-311.27 1495.11,-298.86"/>
<polygon fill="black" stroke="black" points="1497.96,-296.81 1489.05,-291.07 1492.43,-301.11 1497.96,-296.81"/>
</g>
</g>
</svg>
