<?xml version="1.0" encoding="UTF-8" standalone="no"?>
<!DOCTYPE svg PUBLIC "-//W3C//DTD SVG 1.1//EN"
 "http://www.w3.org/Graphics/SVG/1.1/DTD/svg11.dtd">
<!-- Generated by graphviz version 7.0.4 (20221203.1631)
 -->
<!-- Title: G Pages: 1 -->
<svg width="1169pt" height="529pt"
 viewBox="0.00 0.00 1169.00 529.00" xmlns="http://www.w3.org/2000/svg" xmlns:xlink="http://www.w3.org/1999/xlink">
<g id="graph0" class="graph" transform="scale(1 1) rotate(0) translate(4 525)">
<title>G</title>
<polygon fill="white" stroke="none" points="-4,4 -4,-525 1165,-525 1165,4 -4,4"/>
<g id="clust1" class="cluster">
<title>cluster_staking_contract</title>
<polygon fill="none" stroke="black" points="353,-64 353,-283 837,-283 837,-64 353,-64"/>
<text text-anchor="middle" x="595" y="-267.8" font-family="Times,serif" font-size="14.00">staking_contract</text>
</g>
<g id="clust2" class="cluster">
<title>cluster_vesting</title>
<polygon fill="none" stroke="black" points="8,-291 8,-438 646,-438 646,-291 8,-291"/>
<text text-anchor="middle" x="327" y="-422.8" font-family="Times,serif" font-size="14.00">vesting</text>
</g>
<g id="clust3" class="cluster">
<title>cluster_staking_proxy</title>
<polygon fill="none" stroke="black" points="654,-363 654,-513 1153,-513 1153,-363 654,-363"/>
<text text-anchor="middle" x="903.5" y="-497.8" font-family="Times,serif" font-size="14.00">staking_proxy</text>
</g>
<!-- unlock_with_cap -->
<g id="node1" class="node">
<title>unlock_with_cap</title>
<ellipse fill="none" stroke="black" cx="477" cy="-18" rx="71.49" ry="18"/>
<text text-anchor="middle" x="477" y="-14.3" font-family="Times,serif" font-size="14.00">unlock_with_cap</text>
</g>
<!-- unlock -->
<g id="node2" class="node">
<title>unlock</title>
<ellipse fill="none" stroke="black" cx="310" cy="-90" rx="34.39" ry="18"/>
<text text-anchor="middle" x="310" y="-86.3" font-family="Times,serif" font-size="14.00">unlock</text>
</g>
<!-- unlock&#45;&gt;unlock_with_cap -->
<g id="edge1" class="edge">
<title>unlock&#45;&gt;unlock_with_cap</title>
<path fill="none" stroke="black" d="M329.72,-75.1C335.74,-71.21 342.5,-67.17 349,-64 371.65,-52.95 397.72,-43.27 420.41,-35.75"/>
<polygon fill="black" stroke="black" points="421.37,-39.12 429.8,-32.71 419.21,-32.46 421.37,-39.12"/>
</g>
<!-- staking_contract::request_commission_internal -->
<g id="node3" class="node">
<title>staking_contract::request_commission_internal</title>
<ellipse fill="none" stroke="black" cx="477" cy="-90" rx="115.08" ry="18"/>
<text text-anchor="middle" x="477" y="-86.3" font-family="Times,serif" font-size="14.00">request_commission_internal</text>
</g>
<!-- staking_contract::request_commission_internal&#45;&gt;unlock_with_cap -->
<g id="edge2" class="edge">
<title>staking_contract::request_commission_internal&#45;&gt;unlock_with_cap</title>
<path fill="none" stroke="black" d="M477,-71.7C477,-64.41 477,-55.73 477,-47.54"/>
<polygon fill="black" stroke="black" points="480.5,-47.62 477,-37.62 473.5,-47.62 480.5,-47.62"/>
</g>
<!-- staking_contract::unlock_stake -->
<g id="node4" class="node">
<title>staking_contract::unlock_stake</title>
<ellipse fill="none" stroke="black" cx="604" cy="-162" rx="57.39" ry="18"/>
<text text-anchor="middle" x="604" y="-158.3" font-family="Times,serif" font-size="14.00">unlock_stake</text>
</g>
<!-- staking_contract::unlock_stake&#45;&gt;unlock_with_cap -->
<g id="edge3" class="edge">
<title>staking_contract::unlock_stake&#45;&gt;unlock_with_cap</title>
<path fill="none" stroke="black" d="M608.82,-143.74C613.56,-122.77 617.9,-87.33 601,-64 588.93,-47.33 570.05,-36.82 550.64,-30.2"/>
<polygon fill="black" stroke="black" points="551.87,-26.92 541.29,-27.35 549.83,-33.61 551.87,-26.92"/>
</g>
<!-- staking_contract::unlock_stake&#45;&gt;staking_contract::request_commission_internal -->
<g id="edge6" class="edge">
<title>staking_contract::unlock_stake&#45;&gt;staking_contract::request_commission_internal</title>
<path fill="none" stroke="black" d="M576.44,-145.81C559.13,-136.27 536.5,-123.79 517.2,-113.16"/>
<polygon fill="black" stroke="black" points="518.94,-110.12 508.49,-108.36 515.56,-116.25 518.94,-110.12"/>
</g>
<!-- staking_contract::request_commission -->
<g id="node5" class="node">
<title>staking_contract::request_commission</title>
<ellipse fill="none" stroke="black" cx="445" cy="-162" rx="83.69" ry="18"/>
<text text-anchor="middle" x="445" y="-158.3" font-family="Times,serif" font-size="14.00">request_commission</text>
</g>
<!-- staking_contract::request_commission&#45;&gt;staking_contract::request_commission_internal -->
<g id="edge4" class="edge">
<title>staking_contract::request_commission&#45;&gt;staking_contract::request_commission_internal</title>
<path fill="none" stroke="black" d="M452.91,-143.7C456.4,-136.07 460.58,-126.92 464.48,-118.4"/>
<polygon fill="black" stroke="black" points="467.58,-120.03 468.55,-109.48 461.21,-117.12 467.58,-120.03"/>
</g>
<!-- staking_contract::switch_operator -->
<g id="node6" class="node">
<title>staking_contract::switch_operator</title>
<ellipse fill="none" stroke="black" cx="747" cy="-162" rx="67.69" ry="18"/>
<text text-anchor="middle" x="747" y="-158.3" font-family="Times,serif" font-size="14.00">switch_operator</text>
</g>
<!-- staking_contract::switch_operator&#45;&gt;staking_contract::request_commission_internal -->
<g id="edge5" class="edge">
<title>staking_contract::switch_operator&#45;&gt;staking_contract::request_commission_internal</title>
<path fill="none" stroke="black" d="M699.66,-148.73C657.01,-137.67 593.78,-121.28 545.59,-108.78"/>
<polygon fill="black" stroke="black" points="546.65,-105.44 536.09,-106.32 544.89,-112.22 546.65,-105.44"/>
</g>
<!-- staking_contract::unlock_rewards -->
<g id="node7" class="node">
<title>staking_contract::unlock_rewards</title>
<ellipse fill="none" stroke="black" cx="428" cy="-234" rx="66.89" ry="18"/>
<text text-anchor="middle" x="428" y="-230.3" font-family="Times,serif" font-size="14.00">unlock_rewards</text>
</g>
<!-- staking_contract::unlock_rewards&#45;&gt;staking_contract::unlock_stake -->
<g id="edge7" class="edge">
<title>staking_contract::unlock_rewards&#45;&gt;staking_contract::unlock_stake</title>
<path fill="none" stroke="black" d="M464.47,-218.5C491.91,-207.58 529.67,-192.56 558.99,-180.9"/>
<polygon fill="black" stroke="black" points="559.97,-184.28 567.97,-177.33 557.38,-177.77 559.97,-184.28"/>
</g>
<!-- vesting::unlock_stake -->
<g id="node8" class="node">
<title>vesting::unlock_stake</title>
<ellipse fill="none" stroke="black" cx="218" cy="-317" rx="57.39" ry="18"/>
<text text-anchor="middle" x="218" y="-313.3" font-family="Times,serif" font-size="14.00">unlock_stake</text>
</g>
<!-- vesting::unlock_stake&#45;&gt;staking_contract::unlock_stake -->
<g id="edge8" class="edge">
<title>vesting::unlock_stake&#45;&gt;staking_contract::unlock_stake</title>
<path fill="none" stroke="black" d="M232.02,-299.07C251.93,-276.24 290.73,-236.15 333,-216 416.5,-176.2 447.58,-199.55 538,-180 542.05,-179.12 546.24,-178.17 550.44,-177.17"/>
<polygon fill="black" stroke="black" points="551.16,-180.6 560.04,-174.82 549.5,-173.8 551.16,-180.6"/>
</g>
<!-- staking_contract::switch_operator_with_same_commission -->
<g id="node9" class="node">
<title>staking_contract::switch_operator_with_same_commission</title>
<ellipse fill="none" stroke="black" cx="671" cy="-234" rx="157.87" ry="18"/>
<text text-anchor="middle" x="671" y="-230.3" font-family="Times,serif" font-size="14.00">switch_operator_with_same_commission</text>
</g>
<!-- staking_contract::switch_operator_with_same_commission&#45;&gt;staking_contract::switch_operator -->
<g id="edge9" class="edge">
<title>staking_contract::switch_operator_with_same_commission&#45;&gt;staking_contract::switch_operator</title>
<path fill="none" stroke="black" d="M689.79,-215.7C699.13,-207.09 710.57,-196.55 720.76,-187.17"/>
<polygon fill="black" stroke="black" points="722.86,-190 727.84,-180.65 718.11,-184.85 722.86,-190"/>
</g>
<!-- vesting::update_operator -->
<g id="node10" class="node">
<title>vesting::update_operator</title>
<ellipse fill="none" stroke="black" cx="513" cy="-317" rx="67.69" ry="18"/>
<text text-anchor="middle" x="513" y="-313.3" font-family="Times,serif" font-size="14.00">update_operator</text>
</g>
<!-- vesting::update_operator&#45;&gt;staking_contract::switch_operator -->
<g id="edge10" class="edge">
<title>vesting::update_operator&#45;&gt;staking_contract::switch_operator</title>
<path fill="none" stroke="black" d="M474.67,-301.73C462.46,-297.68 448.8,-293.65 436,-291 417.64,-287.19 364.61,-296.87 352,-283 331.97,-260.97 332.16,-238.21 352,-216 399.38,-162.96 599.85,-191.68 670,-180 675.51,-179.08 681.23,-178.02 686.94,-176.89"/>
<polygon fill="black" stroke="black" points="687.28,-180.4 696.37,-174.96 685.87,-173.54 687.28,-180.4"/>
</g>
<!-- staking_proxy::set_staking_contract_operator -->
<g id="node11" class="node">
<title>staking_proxy::set_staking_contract_operator</title>
<ellipse fill="none" stroke="black" cx="1029" cy="-389" rx="116.18" ry="18"/>
<text text-anchor="middle" x="1029" y="-385.3" font-family="Times,serif" font-size="14.00">set_staking_contract_operator</text>
</g>
<!-- staking_proxy::set_staking_contract_operator&#45;&gt;staking_contract::switch_operator -->
<g id="edge11" class="edge">
<title>staking_proxy::set_staking_contract_operator&#45;&gt;staking_contract::switch_operator</title>
<path fill="none" stroke="black" d="M1012.63,-371.1C980.8,-338.74 907.58,-266.76 838,-216 821.98,-204.31 803.19,-193.01 786.86,-183.87"/>
<polygon fill="black" stroke="black" points="788.84,-180.96 778.39,-179.2 785.46,-187.09 788.84,-180.96"/>
</g>
<!-- vesting::unlock_rewards -->
<g id="node12" class="node">
<title>vesting::unlock_rewards</title>
<ellipse fill="none" stroke="black" cx="360" cy="-317" rx="66.89" ry="18"/>
<text text-anchor="middle" x="360" y="-313.3" font-family="Times,serif" font-size="14.00">unlock_rewards</text>
</g>
<!-- vesting::unlock_rewards&#45;&gt;staking_contract::unlock_rewards -->
<g id="edge12" class="edge">
<title>vesting::unlock_rewards&#45;&gt;staking_contract::unlock_rewards</title>
<path fill="none" stroke="black" d="M374.09,-299.22C383.42,-288.1 395.83,-273.32 406.4,-260.73"/>
<polygon fill="black" stroke="black" points="408.97,-263.11 412.72,-253.2 403.61,-258.61 408.97,-263.11"/>
</g>
<!-- vesting::terminate_vesting_contract -->
<g id="node13" class="node">
<title>vesting::terminate_vesting_contract</title>
<ellipse fill="none" stroke="black" cx="123" cy="-389" rx="106.68" ry="18"/>
<text text-anchor="middle" x="123" y="-385.3" font-family="Times,serif" font-size="14.00">terminate_vesting_contract</text>
</g>
<!-- vesting::terminate_vesting_contract&#45;&gt;vesting::unlock_stake -->
<g id="edge13" class="edge">
<title>vesting::terminate_vesting_contract&#45;&gt;vesting::unlock_stake</title>
<path fill="none" stroke="black" d="M146,-371.05C158.4,-361.92 173.87,-350.51 187.29,-340.63"/>
<polygon fill="black" stroke="black" points="189,-343.72 194.98,-334.97 184.85,-338.08 189,-343.72"/>
</g>
<!-- vesting::vest -->
<g id="node14" class="node">
<title>vesting::vest</title>
<ellipse fill="none" stroke="black" cx="275" cy="-389" rx="27" ry="18"/>
<text text-anchor="middle" x="275" y="-385.3" font-family="Times,serif" font-size="14.00">vest</text>
</g>
<!-- vesting::vest&#45;&gt;vesting::unlock_stake -->
<g id="edge14" class="edge">
<title>vesting::vest&#45;&gt;vesting::unlock_stake</title>
<path fill="none" stroke="black" d="M262.63,-372.81C255.61,-364.19 246.65,-353.18 238.6,-343.29"/>
<polygon fill="black" stroke="black" points="241.52,-341.35 232.5,-335.8 236.1,-345.77 241.52,-341.35"/>
</g>
<!-- vesting::vest&#45;&gt;vesting::unlock_rewards -->
<g id="edge18" class="edge">
<title>vesting::vest&#45;&gt;vesting::unlock_rewards</title>
<path fill="none" stroke="black" d="M291.39,-374.5C302.68,-365.21 317.98,-352.61 331.27,-341.66"/>
<polygon fill="black" stroke="black" points="333.41,-344.43 338.9,-335.37 328.96,-339.03 333.41,-344.43"/>
</g>
<!-- vesting::update_operator_with_same_commission -->
<g id="node15" class="node">
<title>vesting::update_operator_with_same_commission</title>
<ellipse fill="none" stroke="black" cx="479" cy="-389" rx="158.67" ry="18"/>
<text text-anchor="middle" x="479" y="-385.3" font-family="Times,serif" font-size="14.00">update_operator_with_same_commission</text>
</g>
<!-- vesting::update_operator_with_same_commission&#45;&gt;vesting::update_operator -->
<g id="edge15" class="edge">
<title>vesting::update_operator_with_same_commission&#45;&gt;vesting::update_operator</title>
<path fill="none" stroke="black" d="M487.4,-370.7C491.11,-363.07 495.56,-353.92 499.69,-345.4"/>
<polygon fill="black" stroke="black" points="502.81,-346.99 504.03,-336.47 496.51,-343.93 502.81,-346.99"/>
</g>
<!-- staking_proxy::set_vesting_contract_operator -->
<g id="node16" class="node">
<title>staking_proxy::set_vesting_contract_operator</title>
<ellipse fill="none" stroke="black" cx="778" cy="-389" rx="116.18" ry="18"/>
<text text-anchor="middle" x="778" y="-385.3" font-family="Times,serif" font-size="14.00">set_vesting_contract_operator</text>
</g>
<!-- staking_proxy::set_vesting_contract_operator&#45;&gt;vesting::update_operator -->
<g id="edge16" class="edge">
<title>staking_proxy::set_vesting_contract_operator&#45;&gt;vesting::update_operator</title>
<path fill="none" stroke="black" d="M720.83,-372.9C676.5,-361.19 615.34,-345.03 570.84,-333.28"/>
<polygon fill="black" stroke="black" points="571.94,-329.95 561.38,-330.78 570.15,-336.72 571.94,-329.95"/>
</g>
<!-- staking_proxy::set_operator -->
<g id="node17" class="node">
<title>staking_proxy::set_operator</title>
<ellipse fill="none" stroke="black" cx="903" cy="-464" rx="53.89" ry="18"/>
<text text-anchor="middle" x="903" y="-460.3" font-family="Times,serif" font-size="14.00">set_operator</text>
</g>
<!-- staking_proxy::set_operator&#45;&gt;staking_proxy::set_staking_contract_operator -->
<g id="edge17" class="edge">
<title>staking_proxy::set_operator&#45;&gt;staking_proxy::set_staking_contract_operator</title>
<path fill="none" stroke="black" d="M929.11,-447.87C946.66,-437.7 970.12,-424.11 989.89,-412.66"/>
<polygon fill="black" stroke="black" points="991.64,-415.69 998.53,-407.65 988.13,-409.64 991.64,-415.69"/>
</g>
<!-- staking_proxy::set_operator&#45;&gt;staking_proxy::set_vesting_contract_operator -->
<g id="edge19" class="edge">
<title>staking_proxy::set_operator&#45;&gt;staking_proxy::set_vesting_contract_operator</title>
<path fill="none" stroke="black" d="M877.1,-447.87C859.68,-437.7 836.41,-424.11 816.8,-412.66"/>
<polygon fill="black" stroke="black" points="818.63,-409.68 808.23,-407.66 815.1,-415.72 818.63,-409.68"/>
</g>
</g>
</svg>
