<?xml version="1.0" encoding="UTF-8" standalone="no"?>
<!DOCTYPE svg PUBLIC "-//W3C//DTD SVG 1.1//EN"
 "http://www.w3.org/Graphics/SVG/1.1/DTD/svg11.dtd">
<!-- Generated by graphviz version 7.0.4 (20221203.1631)
 -->
<!-- Title: G Pages: 1 -->
<svg width="665pt" height="520pt"
 viewBox="0.00 0.00 665.00 520.00" xmlns="http://www.w3.org/2000/svg" xmlns:xlink="http://www.w3.org/1999/xlink">
<g id="graph0" class="graph" transform="scale(1 1) rotate(0) translate(4 516)">
<title>G</title>
<polygon fill="white" stroke="none" points="-4,4 -4,-516 661,-516 661,4 -4,4"/>
<g id="clust1" class="cluster">
<title>cluster_simple_map</title>
<polygon fill="none" stroke="black" points="146,-246 146,-396 367,-396 367,-246 146,-246"/>
<text text-anchor="middle" x="256.5" y="-380.8" font-family="Times,serif" font-size="14.00">simple_map</text>
</g>
<g id="clust2" class="cluster">
<title>cluster_option</title>
<polygon fill="none" stroke="black" points="8,-91 8,-238 244,-238 244,-91 8,-91"/>
<text text-anchor="middle" x="126" y="-222.8" font-family="Times,serif" font-size="14.00">option</text>
</g>
<g id="clust3" class="cluster">
<title>cluster_error</title>
<polygon fill="none" stroke="black" points="375,-163 375,-321 649,-321 649,-163 375,-163"/>
<text text-anchor="middle" x="512" y="-305.8" font-family="Times,serif" font-size="14.00">error</text>
</g>
<g id="clust4" class="cluster">
<title>cluster_vector</title>
<polygon fill="none" stroke="black" points="50,-8 50,-83 257,-83 257,-8 50,-8"/>
<text text-anchor="middle" x="153.5" y="-67.8" font-family="Times,serif" font-size="14.00">vector</text>
</g>
<!-- commission_percentage -->
<g id="node1" class="node">
<title>commission_percentage</title>
<ellipse fill="none" stroke="black" cx="263" cy="-494" rx="96.68" ry="18"/>
<text text-anchor="middle" x="263" y="-490.3" font-family="Times,serif" font-size="14.00">commission_percentage</text>
</g>
<!-- simple_map::borrow -->
<g id="node2" class="node">
<title>simple_map::borrow</title>
<ellipse fill="none" stroke="black" cx="190" cy="-347" rx="36.29" ry="18"/>
<text text-anchor="middle" x="190" y="-343.3" font-family="Times,serif" font-size="14.00">borrow</text>
</g>
<!-- commission_percentage&#45;&gt;simple_map::borrow -->
<g id="edge1" class="edge">
<title>commission_percentage&#45;&gt;simple_map::borrow</title>
<path fill="none" stroke="black" d="M240.41,-476.2C229.3,-466.77 216.67,-454.07 209,-440 198.32,-420.41 193.63,-395.48 191.57,-376.51"/>
<polygon fill="black" stroke="black" points="195.08,-376.47 190.72,-366.81 188.11,-377.08 195.08,-376.47"/>
</g>
<!-- assert_staking_contract_exists -->
<g id="node3" class="node">
<title>assert_staking_contract_exists</title>
<ellipse fill="none" stroke="black" cx="336" cy="-422" rx="117.78" ry="18"/>
<text text-anchor="middle" x="336" y="-418.3" font-family="Times,serif" font-size="14.00">assert_staking_contract_exists</text>
</g>
<!-- commission_percentage&#45;&gt;assert_staking_contract_exists -->
<g id="edge2" class="edge">
<title>commission_percentage&#45;&gt;assert_staking_contract_exists</title>
<path fill="none" stroke="black" d="M280.67,-476.05C289.42,-467.67 300.15,-457.38 309.83,-448.1"/>
<polygon fill="black" stroke="black" points="312.1,-450.77 316.89,-441.32 307.25,-445.72 312.1,-450.77"/>
</g>
<!-- option::extract -->
<g id="node4" class="node">
<title>option::extract</title>
<ellipse fill="none" stroke="black" cx="50" cy="-189" rx="34.39" ry="18"/>
<text text-anchor="middle" x="50" y="-185.3" font-family="Times,serif" font-size="14.00">extract</text>
</g>
<!-- simple_map::borrow&#45;&gt;option::extract -->
<g id="edge3" class="edge">
<title>simple_map::borrow&#45;&gt;option::extract</title>
<path fill="none" stroke="black" d="M172.49,-331.02C168.93,-327.8 165.28,-324.35 162,-321 127.55,-285.8 91.1,-241.71 69.46,-214.71"/>
<polygon fill="black" stroke="black" points="72.37,-212.74 63.4,-207.1 66.89,-217.11 72.37,-212.74"/>
</g>
<!-- option::is_some -->
<g id="node5" class="node">
<title>option::is_some</title>
<ellipse fill="none" stroke="black" cx="196" cy="-117" rx="40.09" ry="18"/>
<text text-anchor="middle" x="196" y="-113.3" font-family="Times,serif" font-size="14.00">is_some</text>
</g>
<!-- simple_map::borrow&#45;&gt;option::is_some -->
<g id="edge4" class="edge">
<title>simple_map::borrow&#45;&gt;option::is_some</title>
<path fill="none" stroke="black" d="M217.77,-335.33C224.01,-331.69 229.97,-326.97 234,-321 254.79,-290.14 242.55,-275.13 245,-238 247.19,-204.74 258.41,-193.52 245,-163 241.06,-154.03 234.35,-146.07 227.14,-139.42"/>
<polygon fill="black" stroke="black" points="229.66,-136.97 219.75,-133.23 225.16,-142.33 229.66,-136.97"/>
</g>
<!-- error::invalid_argument -->
<g id="node6" class="node">
<title>error::invalid_argument</title>
<ellipse fill="none" stroke="black" cx="456" cy="-272" rx="73.39" ry="18"/>
<text text-anchor="middle" x="456" y="-268.3" font-family="Times,serif" font-size="14.00">invalid_argument</text>
</g>
<!-- simple_map::borrow&#45;&gt;error::invalid_argument -->
<g id="edge5" class="edge">
<title>simple_map::borrow&#45;&gt;error::invalid_argument</title>
<path fill="none" stroke="black" d="M216.85,-334.57C223.04,-332.36 229.67,-330.33 236,-329 294.83,-316.67 313.35,-337.99 371,-321 389.67,-315.5 408.69,-305.27 424,-295.67"/>
<polygon fill="black" stroke="black" points="425.73,-298.71 432.21,-290.33 421.92,-292.85 425.73,-298.71"/>
</g>
<!-- simple_map::find -->
<g id="node7" class="node">
<title>simple_map::find</title>
<ellipse fill="none" stroke="black" cx="198" cy="-272" rx="27" ry="18"/>
<text text-anchor="middle" x="198" y="-268.3" font-family="Times,serif" font-size="14.00">find</text>
</g>
<!-- simple_map::borrow&#45;&gt;simple_map::find -->
<g id="edge6" class="edge">
<title>simple_map::borrow&#45;&gt;simple_map::find</title>
<path fill="none" stroke="black" d="M191.9,-328.7C192.78,-320.67 193.85,-310.9 194.84,-301.8"/>
<polygon fill="black" stroke="black" points="198.31,-302.26 195.93,-291.93 191.36,-301.49 198.31,-302.26"/>
</g>
<!-- error::not_found -->
<g id="node8" class="node">
<title>error::not_found</title>
<ellipse fill="none" stroke="black" cx="594" cy="-272" rx="46.59" ry="18"/>
<text text-anchor="middle" x="594" y="-268.3" font-family="Times,serif" font-size="14.00">not_found</text>
</g>
<!-- assert_staking_contract_exists&#45;&gt;error::not_found -->
<g id="edge7" class="edge">
<title>assert_staking_contract_exists&#45;&gt;error::not_found</title>
<path fill="none" stroke="black" d="M375.93,-404.76C417.86,-386.91 484.96,-356.07 538,-321 548.85,-313.83 559.9,-304.79 569.29,-296.5"/>
<polygon fill="black" stroke="black" points="571.54,-299.19 576.6,-289.88 566.84,-294 571.54,-299.19"/>
</g>
<!-- simple_map::contains_key -->
<g id="node9" class="node">
<title>simple_map::contains_key</title>
<ellipse fill="none" stroke="black" cx="302" cy="-347" rx="57.39" ry="18"/>
<text text-anchor="middle" x="302" y="-343.3" font-family="Times,serif" font-size="14.00">contains_key</text>
</g>
<!-- assert_staking_contract_exists&#45;&gt;simple_map::contains_key -->
<g id="edge8" class="edge">
<title>assert_staking_contract_exists&#45;&gt;simple_map::contains_key</title>
<path fill="none" stroke="black" d="M327.94,-403.7C324,-395.25 319.17,-384.87 314.75,-375.37"/>
<polygon fill="black" stroke="black" points="318.03,-374.14 310.64,-366.55 311.69,-377.09 318.03,-374.14"/>
</g>
<!-- option::extract&#45;&gt;option::is_some -->
<g id="edge9" class="edge">
<title>option::extract&#45;&gt;option::is_some</title>
<path fill="none" stroke="black" d="M71.61,-174.79C78.37,-170.83 85.91,-166.59 93,-163 113.46,-152.62 136.86,-142.29 156.17,-134.14"/>
<polygon fill="black" stroke="black" points="157.45,-137.4 165.33,-130.32 154.76,-130.94 157.45,-137.4"/>
</g>
<!-- vector::is_empty -->
<g id="node10" class="node">
<title>vector::is_empty</title>
<ellipse fill="none" stroke="black" cx="205" cy="-34" rx="43.59" ry="18"/>
<text text-anchor="middle" x="205" y="-30.3" font-family="Times,serif" font-size="14.00">is_empty</text>
</g>
<!-- option::is_some&#45;&gt;vector::is_empty -->
<g id="edge10" class="edge">
<title>option::is_some&#45;&gt;vector::is_empty</title>
<path fill="none" stroke="black" d="M197.91,-98.82C199.05,-88.58 200.52,-75.33 201.83,-63.55"/>
<polygon fill="black" stroke="black" points="205.27,-64.26 202.9,-53.94 198.31,-63.49 205.27,-64.26"/>
</g>
<!-- error::canonical -->
<g id="node11" class="node">
<title>error::canonical</title>
<ellipse fill="none" stroke="black" cx="525" cy="-189" rx="44.39" ry="18"/>
<text text-anchor="middle" x="525" y="-185.3" font-family="Times,serif" font-size="14.00">canonical</text>
</g>
<!-- error::invalid_argument&#45;&gt;error::canonical -->
<g id="edge11" class="edge">
<title>error::invalid_argument&#45;&gt;error::canonical</title>
<path fill="none" stroke="black" d="M470.3,-254.22C479.89,-242.96 492.7,-227.92 503.51,-215.22"/>
<polygon fill="black" stroke="black" points="506.16,-217.52 509.98,-207.64 500.83,-212.98 506.16,-217.52"/>
</g>
<!-- option::none -->
<g id="node12" class="node">
<title>option::none</title>
<ellipse fill="none" stroke="black" cx="130" cy="-189" rx="27.9" ry="18"/>
<text text-anchor="middle" x="130" y="-185.3" font-family="Times,serif" font-size="14.00">none</text>
</g>
<!-- simple_map::find&#45;&gt;option::none -->
<g id="edge12" class="edge">
<title>simple_map::find&#45;&gt;option::none</title>
<path fill="none" stroke="black" d="M183.8,-256.5C178.41,-250.84 172.3,-244.22 167,-238 160.76,-230.68 154.26,-222.47 148.48,-214.93"/>
<polygon fill="black" stroke="black" points="151.36,-212.93 142.54,-207.08 145.78,-217.16 151.36,-212.93"/>
</g>
<!-- option::some -->
<g id="node13" class="node">
<title>option::some</title>
<ellipse fill="none" stroke="black" cx="206" cy="-189" rx="29.8" ry="18"/>
<text text-anchor="middle" x="206" y="-185.3" font-family="Times,serif" font-size="14.00">some</text>
</g>
<!-- simple_map::find&#45;&gt;option::some -->
<g id="edge13" class="edge">
<title>simple_map::find&#45;&gt;option::some</title>
<path fill="none" stroke="black" d="M199.7,-253.82C200.71,-243.58 202.02,-230.33 203.18,-218.55"/>
<polygon fill="black" stroke="black" points="206.63,-219.23 204.13,-208.94 199.66,-218.55 206.63,-219.23"/>
</g>
<!-- error::not_found&#45;&gt;error::canonical -->
<g id="edge14" class="edge">
<title>error::not_found&#45;&gt;error::canonical</title>
<path fill="none" stroke="black" d="M580.04,-254.61C570.31,-243.19 557.16,-227.75 546.15,-214.83"/>
<polygon fill="black" stroke="black" points="549.07,-212.86 539.92,-207.52 543.74,-217.4 549.07,-212.86"/>
</g>
<!-- simple_map::contains_key&#45;&gt;option::is_some -->
<g id="edge15" class="edge">
<title>simple_map::contains_key&#45;&gt;option::is_some</title>
<path fill="none" stroke="black" d="M302.31,-328.73C302.12,-294.23 297.48,-215.56 262,-163 254.75,-152.26 244.01,-143.37 233.28,-136.41"/>
<polygon fill="black" stroke="black" points="235.21,-133.48 224.84,-131.33 231.61,-139.48 235.21,-133.48"/>
</g>
<!-- simple_map::contains_key&#45;&gt;simple_map::find -->
<g id="edge16" class="edge">
<title>simple_map::contains_key&#45;&gt;simple_map::find</title>
<path fill="none" stroke="black" d="M279.43,-330.16C263.55,-319.01 242.21,-304.03 225.36,-292.2"/>
<polygon fill="black" stroke="black" points="227.47,-289.41 217.27,-286.53 223.44,-295.14 227.47,-289.41"/>
</g>
<!-- vector::singleton -->
<g id="node14" class="node">
<title>vector::singleton</title>
<ellipse fill="none" stroke="black" cx="101" cy="-34" rx="42.79" ry="18"/>
<text text-anchor="middle" x="101" y="-30.3" font-family="Times,serif" font-size="14.00">singleton</text>
</g>
<!-- option::some&#45;&gt;vector::singleton -->
<g id="edge17" class="edge">
<title>option::some&#45;&gt;vector::singleton</title>
<path fill="none" stroke="black" d="M187.41,-174.56C174.77,-164.71 158.35,-150.41 147,-135 130.64,-112.8 118.11,-83.86 110.29,-62.83"/>
<polygon fill="black" stroke="black" points="113.61,-61.71 106.94,-53.48 107.02,-64.07 113.61,-61.71"/>
</g>
</g>
</svg>
