<?xml version="1.0" encoding="UTF-8" standalone="no"?>
<!DOCTYPE svg PUBLIC "-//W3C//DTD SVG 1.1//EN"
 "http://www.w3.org/Graphics/SVG/1.1/DTD/svg11.dtd">
<!-- Generated by graphviz version 7.0.4 (20221203.1631)
 -->
<!-- Title: G Pages: 1 -->
<svg width="1336pt" height="521pt"
 viewBox="0.00 0.00 1336.00 521.00" xmlns="http://www.w3.org/2000/svg" xmlns:xlink="http://www.w3.org/1999/xlink">
<g id="graph0" class="graph" transform="scale(1 1) rotate(0) translate(4 517)">
<title>G</title>
<polygon fill="white" stroke="none" points="-4,4 -4,-517 1332,-517 1332,4 -4,4"/>
<g id="clust1" class="cluster">
<title>cluster_staking_contract</title>
<polygon fill="none" stroke="black" points="718,-64 718,-283 1293,-283 1293,-64 718,-64"/>
<text text-anchor="middle" x="1005.5" y="-267.8" font-family="Times,serif" font-size="14.00">staking_contract</text>
</g>
<g id="clust2" class="cluster">
<title>cluster_vesting</title>
<polygon fill="none" stroke="black" points="8,-208 8,-430 710,-430 710,-208 8,-208"/>
<text text-anchor="middle" x="359" y="-414.8" font-family="Times,serif" font-size="14.00">vesting</text>
</g>
<g id="clust3" class="cluster">
<title>cluster_staking_proxy</title>
<polygon fill="none" stroke="black" points="821,-355 821,-505 1320,-505 1320,-355 821,-355"/>
<text text-anchor="middle" x="1070.5" y="-489.8" font-family="Times,serif" font-size="14.00">staking_proxy</text>
</g>
<!-- withdraw_with_cap -->
<g id="node1" class="node">
<title>withdraw_with_cap</title>
<ellipse fill="none" stroke="black" cx="777" cy="-18" rx="80.69" ry="18"/>
<text text-anchor="middle" x="777" y="-14.3" font-family="Times,serif" font-size="14.00">withdraw_with_cap</text>
</g>
<!-- withdraw -->
<g id="node2" class="node">
<title>withdraw</title>
<ellipse fill="none" stroke="black" cx="666" cy="-90" rx="44.39" ry="18"/>
<text text-anchor="middle" x="666" y="-86.3" font-family="Times,serif" font-size="14.00">withdraw</text>
</g>
<!-- withdraw&#45;&gt;withdraw_with_cap -->
<g id="edge1" class="edge">
<title>withdraw&#45;&gt;withdraw_with_cap</title>
<path fill="none" stroke="black" d="M689.27,-74.33C704.36,-64.81 724.32,-52.22 741.39,-41.46"/>
<polygon fill="black" stroke="black" points="743.17,-44.47 749.76,-36.18 739.44,-38.55 743.17,-44.47"/>
</g>
<!-- staking_contract::distribute_internal -->
<g id="node3" class="node">
<title>staking_contract::distribute_internal</title>
<ellipse fill="none" stroke="black" cx="889" cy="-90" rx="75.29" ry="18"/>
<text text-anchor="middle" x="889" y="-86.3" font-family="Times,serif" font-size="14.00">distribute_internal</text>
</g>
<!-- staking_contract::distribute_internal&#45;&gt;withdraw_with_cap -->
<g id="edge2" class="edge">
<title>staking_contract::distribute_internal&#45;&gt;withdraw_with_cap</title>
<path fill="none" stroke="black" d="M863.02,-72.76C848.15,-63.47 829.26,-51.66 812.97,-41.48"/>
<polygon fill="black" stroke="black" points="814.84,-38.52 804.51,-36.19 811.13,-44.46 814.84,-38.52"/>
</g>
<!-- staking_contract::distribute -->
<g id="node4" class="node">
<title>staking_contract::distribute</title>
<ellipse fill="none" stroke="black" cx="770" cy="-162" rx="44.39" ry="18"/>
<text text-anchor="middle" x="770" y="-158.3" font-family="Times,serif" font-size="14.00">distribute</text>
</g>
<!-- staking_contract::distribute&#45;&gt;staking_contract::distribute_internal -->
<g id="edge3" class="edge">
<title>staking_contract::distribute&#45;&gt;staking_contract::distribute_internal</title>
<path fill="none" stroke="black" d="M794.37,-146.67C810.97,-136.9 833.25,-123.79 852.03,-112.75"/>
<polygon fill="black" stroke="black" points="853.61,-115.88 860.45,-107.79 850.06,-109.85 853.61,-115.88"/>
</g>
<!-- staking_contract::request_commission -->
<g id="node5" class="node">
<title>staking_contract::request_commission</title>
<ellipse fill="none" stroke="black" cx="1048" cy="-162" rx="83.69" ry="18"/>
<text text-anchor="middle" x="1048" y="-158.3" font-family="Times,serif" font-size="14.00">request_commission</text>
</g>
<!-- staking_contract::request_commission&#45;&gt;staking_contract::distribute_internal -->
<g id="edge4" class="edge">
<title>staking_contract::request_commission&#45;&gt;staking_contract::distribute_internal</title>
<path fill="none" stroke="black" d="M1012.32,-145.29C989.16,-135.1 958.8,-121.73 934,-110.81"/>
<polygon fill="black" stroke="black" points="935.69,-107.73 925.13,-106.91 932.87,-114.14 935.69,-107.73"/>
</g>
<!-- staking_contract::switch_operator -->
<g id="node6" class="node">
<title>staking_contract::switch_operator</title>
<ellipse fill="none" stroke="black" cx="1217" cy="-162" rx="67.69" ry="18"/>
<text text-anchor="middle" x="1217" y="-158.3" font-family="Times,serif" font-size="14.00">switch_operator</text>
</g>
<!-- staking_contract::switch_operator&#45;&gt;staking_contract::distribute_internal -->
<g id="edge5" class="edge">
<title>staking_contract::switch_operator&#45;&gt;staking_contract::distribute_internal</title>
<path fill="none" stroke="black" d="M1166.74,-149.66C1158.15,-147.75 1149.32,-145.81 1141,-144 1078.24,-130.38 1006.58,-115.36 955.76,-104.8"/>
<polygon fill="black" stroke="black" points="956.58,-101.39 946.08,-102.79 955.16,-108.25 956.58,-101.39"/>
</g>
<!-- staking_contract::unlock_stake -->
<g id="node7" class="node">
<title>staking_contract::unlock_stake</title>
<ellipse fill="none" stroke="black" cx="889" cy="-162" rx="57.39" ry="18"/>
<text text-anchor="middle" x="889" y="-158.3" font-family="Times,serif" font-size="14.00">unlock_stake</text>
</g>
<!-- staking_contract::unlock_stake&#45;&gt;staking_contract::distribute_internal -->
<g id="edge6" class="edge">
<title>staking_contract::unlock_stake&#45;&gt;staking_contract::distribute_internal</title>
<path fill="none" stroke="black" d="M889,-143.7C889,-136.41 889,-127.73 889,-119.54"/>
<polygon fill="black" stroke="black" points="892.5,-119.62 889,-109.62 885.5,-119.62 892.5,-119.62"/>
</g>
<!-- vesting::withdraw_stake -->
<g id="node8" class="node">
<title>vesting::withdraw_stake</title>
<ellipse fill="none" stroke="black" cx="220" cy="-234" rx="66.09" ry="18"/>
<text text-anchor="middle" x="220" y="-230.3" font-family="Times,serif" font-size="14.00">withdraw_stake</text>
</g>
<!-- vesting::withdraw_stake&#45;&gt;staking_contract::distribute -->
<g id="edge7" class="edge">
<title>vesting::withdraw_stake&#45;&gt;staking_contract::distribute</title>
<path fill="none" stroke="black" d="M278.86,-225.51C386.39,-211.82 613.05,-182.98 716.49,-169.81"/>
<polygon fill="black" stroke="black" points="716.9,-173.29 726.38,-168.55 716.02,-166.34 716.9,-173.29"/>
</g>
<!-- staking_contract::switch_operator_with_same_commission -->
<g id="node9" class="node">
<title>staking_contract::switch_operator_with_same_commission</title>
<ellipse fill="none" stroke="black" cx="1036" cy="-234" rx="157.87" ry="18"/>
<text text-anchor="middle" x="1036" y="-230.3" font-family="Times,serif" font-size="14.00">switch_operator_with_same_commission</text>
</g>
<!-- staking_contract::switch_operator_with_same_commission&#45;&gt;staking_contract::switch_operator -->
<g id="edge8" class="edge">
<title>staking_contract::switch_operator_with_same_commission&#45;&gt;staking_contract::switch_operator</title>
<path fill="none" stroke="black" d="M1079.35,-216.23C1106.41,-205.77 1141.26,-192.29 1169.12,-181.52"/>
<polygon fill="black" stroke="black" points="1170.34,-184.8 1178.4,-177.93 1167.81,-178.27 1170.34,-184.8"/>
</g>
<!-- vesting::update_operator -->
<g id="node10" class="node">
<title>vesting::update_operator</title>
<ellipse fill="none" stroke="black" cx="634" cy="-309" rx="67.69" ry="18"/>
<text text-anchor="middle" x="634" y="-305.3" font-family="Times,serif" font-size="14.00">update_operator</text>
</g>
<!-- vesting::update_operator&#45;&gt;staking_contract::switch_operator -->
<g id="edge9" class="edge">
<title>vesting::update_operator&#45;&gt;staking_contract::switch_operator</title>
<path fill="none" stroke="black" d="M642.46,-290.89C655.08,-267.47 681.23,-226.26 717,-208 801.1,-165.07 1047.54,-193.46 1141,-180 1146.32,-179.23 1151.83,-178.29 1157.33,-177.26"/>
<polygon fill="black" stroke="black" points="1157.95,-180.7 1167.07,-175.3 1156.58,-173.84 1157.95,-180.7"/>
</g>
<!-- staking_proxy::set_staking_contract_operator -->
<g id="node11" class="node">
<title>staking_proxy::set_staking_contract_operator</title>
<ellipse fill="none" stroke="black" cx="1196" cy="-381" rx="116.18" ry="18"/>
<text text-anchor="middle" x="1196" y="-377.3" font-family="Times,serif" font-size="14.00">set_staking_contract_operator</text>
</g>
<!-- staking_proxy::set_staking_contract_operator&#45;&gt;staking_contract::switch_operator -->
<g id="edge10" class="edge">
<title>staking_proxy::set_staking_contract_operator&#45;&gt;staking_contract::switch_operator</title>
<path fill="none" stroke="black" d="M1197.68,-362.61C1201.28,-325.39 1209.77,-237.69 1214.2,-191.93"/>
<polygon fill="black" stroke="black" points="1217.68,-192.27 1215.16,-181.98 1210.72,-191.6 1217.68,-192.27"/>
</g>
<!-- staking_contract::unlock_rewards -->
<g id="node12" class="node">
<title>staking_contract::unlock_rewards</title>
<ellipse fill="none" stroke="black" cx="793" cy="-234" rx="66.89" ry="18"/>
<text text-anchor="middle" x="793" y="-230.3" font-family="Times,serif" font-size="14.00">unlock_rewards</text>
</g>
<!-- staking_contract::unlock_rewards&#45;&gt;staking_contract::unlock_stake -->
<g id="edge11" class="edge">
<title>staking_contract::unlock_rewards&#45;&gt;staking_contract::unlock_stake</title>
<path fill="none" stroke="black" d="M815.27,-216.76C827.96,-207.51 844.06,-195.77 857.97,-185.63"/>
<polygon fill="black" stroke="black" points="859.95,-188.52 865.96,-179.8 855.82,-182.86 859.95,-188.52"/>
</g>
<!-- vesting::unlock_stake -->
<g id="node13" class="node">
<title>vesting::unlock_stake</title>
<ellipse fill="none" stroke="black" cx="339" cy="-309" rx="57.39" ry="18"/>
<text text-anchor="middle" x="339" y="-305.3" font-family="Times,serif" font-size="14.00">unlock_stake</text>
</g>
<!-- vesting::unlock_stake&#45;&gt;staking_contract::unlock_stake -->
<g id="edge12" class="edge">
<title>vesting::unlock_stake&#45;&gt;staking_contract::unlock_stake</title>
<path fill="none" stroke="black" d="M374.66,-294.71C432.26,-273.67 549.66,-232.59 652,-208 726.88,-190.01 747.64,-195.84 823,-180 827.06,-179.15 831.25,-178.21 835.45,-177.22"/>
<polygon fill="black" stroke="black" points="836.16,-180.65 845.06,-174.89 834.51,-173.85 836.16,-180.65"/>
</g>
<!-- vesting::distribute -->
<g id="node14" class="node">
<title>vesting::distribute</title>
<ellipse fill="none" stroke="black" cx="220" cy="-309" rx="44.39" ry="18"/>
<text text-anchor="middle" x="220" y="-305.3" font-family="Times,serif" font-size="14.00">distribute</text>
</g>
<!-- vesting::distribute&#45;&gt;vesting::withdraw_stake -->
<g id="edge13" class="edge">
<title>vesting::distribute&#45;&gt;vesting::withdraw_stake</title>
<path fill="none" stroke="black" d="M220,-290.7C220,-282.67 220,-272.9 220,-263.8"/>
<polygon fill="black" stroke="black" points="223.5,-263.94 220,-253.94 216.5,-263.94 223.5,-263.94"/>
</g>
<!-- vesting::admin_withdraw -->
<g id="node15" class="node">
<title>vesting::admin_withdraw</title>
<ellipse fill="none" stroke="black" cx="87" cy="-309" rx="70.69" ry="18"/>
<text text-anchor="middle" x="87" y="-305.3" font-family="Times,serif" font-size="14.00">admin_withdraw</text>
</g>
<!-- vesting::admin_withdraw&#45;&gt;vesting::withdraw_stake -->
<g id="edge14" class="edge">
<title>vesting::admin_withdraw&#45;&gt;vesting::withdraw_stake</title>
<path fill="none" stroke="black" d="M115.86,-292.16C135.16,-281.57 160.77,-267.51 181.77,-255.98"/>
<polygon fill="black" stroke="black" points="183.25,-259.17 190.33,-251.29 179.88,-253.03 183.25,-259.17"/>
</g>
<!-- vesting::update_operator_with_same_commission -->
<g id="node16" class="node">
<title>vesting::update_operator_with_same_commission</title>
<ellipse fill="none" stroke="black" cx="543" cy="-381" rx="158.67" ry="18"/>
<text text-anchor="middle" x="543" y="-377.3" font-family="Times,serif" font-size="14.00">update_operator_with_same_commission</text>
</g>
<!-- vesting::update_operator_with_same_commission&#45;&gt;vesting::update_operator -->
<g id="edge15" class="edge">
<title>vesting::update_operator_with_same_commission&#45;&gt;vesting::update_operator</title>
<path fill="none" stroke="black" d="M565.49,-362.7C576.99,-353.86 591.14,-342.97 603.59,-333.4"/>
<polygon fill="black" stroke="black" points="605.71,-336.18 611.5,-327.31 601.44,-330.63 605.71,-336.18"/>
</g>
<!-- staking_proxy::set_vesting_contract_operator -->
<g id="node17" class="node">
<title>staking_proxy::set_vesting_contract_operator</title>
<ellipse fill="none" stroke="black" cx="945" cy="-381" rx="116.18" ry="18"/>
<text text-anchor="middle" x="945" y="-377.3" font-family="Times,serif" font-size="14.00">set_vesting_contract_operator</text>
</g>
<!-- staking_proxy::set_vesting_contract_operator&#45;&gt;vesting::update_operator -->
<g id="edge16" class="edge">
<title>staking_proxy::set_vesting_contract_operator&#45;&gt;vesting::update_operator</title>
<path fill="none" stroke="black" d="M880.94,-365.58C826.49,-353.33 748.84,-335.85 695.22,-323.78"/>
<polygon fill="black" stroke="black" points="696.16,-320.4 685.63,-321.62 694.62,-327.23 696.16,-320.4"/>
</g>
<!-- staking_proxy::set_operator -->
<g id="node18" class="node">
<title>staking_proxy::set_operator</title>
<ellipse fill="none" stroke="black" cx="1070" cy="-456" rx="53.89" ry="18"/>
<text text-anchor="middle" x="1070" y="-452.3" font-family="Times,serif" font-size="14.00">set_operator</text>
</g>
<!-- staking_proxy::set_operator&#45;&gt;staking_proxy::set_staking_contract_operator -->
<g id="edge17" class="edge">
<title>staking_proxy::set_operator&#45;&gt;staking_proxy::set_staking_contract_operator</title>
<path fill="none" stroke="black" d="M1096.11,-439.87C1113.66,-429.7 1137.12,-416.11 1156.89,-404.66"/>
<polygon fill="black" stroke="black" points="1158.64,-407.69 1165.53,-399.65 1155.13,-401.64 1158.64,-407.69"/>
</g>
<!-- staking_proxy::set_operator&#45;&gt;staking_proxy::set_vesting_contract_operator -->
<g id="edge22" class="edge">
<title>staking_proxy::set_operator&#45;&gt;staking_proxy::set_vesting_contract_operator</title>
<path fill="none" stroke="black" d="M1044.1,-439.87C1026.68,-429.7 1003.41,-416.11 983.8,-404.66"/>
<polygon fill="black" stroke="black" points="985.63,-401.68 975.23,-399.66 982.1,-407.72 985.63,-401.68"/>
</g>
<!-- vesting::unlock_rewards -->
<g id="node19" class="node">
<title>vesting::unlock_rewards</title>
<ellipse fill="none" stroke="black" cx="481" cy="-309" rx="66.89" ry="18"/>
<text text-anchor="middle" x="481" y="-305.3" font-family="Times,serif" font-size="14.00">unlock_rewards</text>
</g>
<!-- vesting::unlock_rewards&#45;&gt;staking_contract::unlock_rewards -->
<g id="edge18" class="edge">
<title>vesting::unlock_rewards&#45;&gt;staking_contract::unlock_rewards</title>
<path fill="none" stroke="black" d="M528.62,-296.06C537.97,-294.08 547.76,-292.26 557,-291 591.61,-286.28 680.61,-293.27 714,-283 731.45,-277.63 748.99,-267.56 763.09,-258.02"/>
<polygon fill="black" stroke="black" points="764.86,-261.05 771.03,-252.44 760.84,-255.33 764.86,-261.05"/>
</g>
<!-- vesting::terminate_vesting_contract -->
<g id="node20" class="node">
<title>vesting::terminate_vesting_contract</title>
<ellipse fill="none" stroke="black" cx="187" cy="-381" rx="106.68" ry="18"/>
<text text-anchor="middle" x="187" y="-377.3" font-family="Times,serif" font-size="14.00">terminate_vesting_contract</text>
</g>
<!-- vesting::terminate_vesting_contract&#45;&gt;vesting::unlock_stake -->
<g id="edge19" class="edge">
<title>vesting::terminate_vesting_contract&#45;&gt;vesting::unlock_stake</title>
<path fill="none" stroke="black" d="M222.64,-363.59C245.01,-353.29 273.95,-339.96 297.38,-329.17"/>
<polygon fill="black" stroke="black" points="298.71,-332.41 306.33,-325.04 295.79,-326.05 298.71,-332.41"/>
</g>
<!-- vesting::terminate_vesting_contract&#45;&gt;vesting::distribute -->
<g id="edge21" class="edge">
<title>vesting::terminate_vesting_contract&#45;&gt;vesting::distribute</title>
<path fill="none" stroke="black" d="M195.16,-362.7C198.75,-355.07 203.07,-345.92 207.08,-337.4"/>
<polygon fill="black" stroke="black" points="210.19,-339.01 211.29,-328.47 203.86,-336.03 210.19,-339.01"/>
</g>
<!-- vesting::vest -->
<g id="node21" class="node">
<title>vesting::vest</title>
<ellipse fill="none" stroke="black" cx="339" cy="-381" rx="27" ry="18"/>
<text text-anchor="middle" x="339" y="-377.3" font-family="Times,serif" font-size="14.00">vest</text>
</g>
<!-- vesting::vest&#45;&gt;vesting::unlock_stake -->
<g id="edge20" class="edge">
<title>vesting::vest&#45;&gt;vesting::unlock_stake</title>
<path fill="none" stroke="black" d="M339,-362.7C339,-355.41 339,-346.73 339,-338.54"/>
<polygon fill="black" stroke="black" points="342.5,-338.62 339,-328.62 335.5,-338.62 342.5,-338.62"/>
</g>
<!-- vesting::vest&#45;&gt;vesting::unlock_rewards -->
<g id="edge23" class="edge">
<title>vesting::vest&#45;&gt;vesting::unlock_rewards</title>
<path fill="none" stroke="black" d="M356.48,-366.79C362.22,-362.74 368.74,-358.46 375,-355 393.07,-345.03 413.81,-335.78 432.12,-328.3"/>
<polygon fill="black" stroke="black" points="433.2,-331.63 441.17,-324.66 430.59,-325.14 433.2,-331.63"/>
</g>
</g>
</svg>
