<?xml version="1.0" encoding="UTF-8" standalone="no"?>
<!DOCTYPE svg PUBLIC "-//W3C//DTD SVG 1.1//EN"
 "http://www.w3.org/Graphics/SVG/1.1/DTD/svg11.dtd">
<!-- Generated by graphviz version 7.0.4 (20221203.1631)
 -->
<!-- Title: G Pages: 1 -->
<svg width="837pt" height="604pt"
 viewBox="0.00 0.00 837.00 604.00" xmlns="http://www.w3.org/2000/svg" xmlns:xlink="http://www.w3.org/1999/xlink">
<g id="graph0" class="graph" transform="scale(1 1) rotate(0) translate(4 600)">
<title>G</title>
<polygon fill="white" stroke="none" points="-4,4 -4,-600 833,-600 833,4 -4,4"/>
<g id="clust1" class="cluster">
<title>cluster_staking_proxy</title>
<polygon fill="none" stroke="black" points="569,-64 569,-211 755,-211 755,-64 569,-64"/>
<text text-anchor="middle" x="662" y="-195.8" font-family="Times,serif" font-size="14.00">staking_proxy</text>
</g>
<g id="clust2" class="cluster">
<title>cluster_staking_contract</title>
<polygon fill="none" stroke="black" points="271,-136 271,-358 561,-358 561,-136 271,-136"/>
<text text-anchor="middle" x="416" y="-342.8" font-family="Times,serif" font-size="14.00">staking_contract</text>
</g>
<g id="clust3" class="cluster">
<title>cluster_genesis</title>
<polygon fill="none" stroke="black" points="8,-366 8,-588 609,-588 609,-366 8,-366"/>
<text text-anchor="middle" x="308.5" y="-572.8" font-family="Times,serif" font-size="14.00">genesis</text>
</g>
<g id="clust4" class="cluster">
<title>cluster_vesting</title>
<polygon fill="none" stroke="black" points="617,-366 617,-441 821,-441 821,-366 617,-366"/>
<text text-anchor="middle" x="719" y="-425.8" font-family="Times,serif" font-size="14.00">vesting</text>
</g>
<!-- set_delegated_voter -->
<g id="node1" class="node">
<title>set_delegated_voter</title>
<ellipse fill="none" stroke="black" cx="539" cy="-18" rx="81.49" ry="18"/>
<text text-anchor="middle" x="539" y="-14.3" font-family="Times,serif" font-size="14.00">set_delegated_voter</text>
</g>
<!-- initialize_stake_owner -->
<g id="node2" class="node">
<title>initialize_stake_owner</title>
<ellipse fill="none" stroke="black" cx="416" cy="-90" rx="90.18" ry="18"/>
<text text-anchor="middle" x="416" y="-86.3" font-family="Times,serif" font-size="14.00">initialize_stake_owner</text>
</g>
<!-- initialize_stake_owner&#45;&gt;set_delegated_voter -->
<g id="edge1" class="edge">
<title>initialize_stake_owner&#45;&gt;set_delegated_voter</title>
<path fill="none" stroke="black" d="M444.84,-72.59C461.42,-63.15 482.46,-51.18 500.44,-40.95"/>
<polygon fill="black" stroke="black" points="502.07,-44.05 509.03,-36.06 498.6,-37.96 502.07,-44.05"/>
</g>
<!-- staking_proxy::set_stake_pool_voter -->
<g id="node3" class="node">
<title>staking_proxy::set_stake_pool_voter</title>
<ellipse fill="none" stroke="black" cx="662" cy="-90" rx="85.29" ry="18"/>
<text text-anchor="middle" x="662" y="-86.3" font-family="Times,serif" font-size="14.00">set_stake_pool_voter</text>
</g>
<!-- staking_proxy::set_stake_pool_voter&#45;&gt;set_delegated_voter -->
<g id="edge2" class="edge">
<title>staking_proxy::set_stake_pool_voter&#45;&gt;set_delegated_voter</title>
<path fill="none" stroke="black" d="M633.16,-72.59C616.58,-63.15 595.54,-51.18 577.56,-40.95"/>
<polygon fill="black" stroke="black" points="579.4,-37.96 568.97,-36.06 575.93,-44.05 579.4,-37.96"/>
</g>
<!-- staking_contract::create_stake_pool -->
<g id="node4" class="node">
<title>staking_contract::create_stake_pool</title>
<ellipse fill="none" stroke="black" cx="416" cy="-162" rx="74.19" ry="18"/>
<text text-anchor="middle" x="416" y="-158.3" font-family="Times,serif" font-size="14.00">create_stake_pool</text>
</g>
<!-- staking_contract::create_stake_pool&#45;&gt;initialize_stake_owner -->
<g id="edge3" class="edge">
<title>staking_contract::create_stake_pool&#45;&gt;initialize_stake_owner</title>
<path fill="none" stroke="black" d="M416,-143.7C416,-136.41 416,-127.73 416,-119.54"/>
<polygon fill="black" stroke="black" points="419.5,-119.62 416,-109.62 412.5,-119.62 419.5,-119.62"/>
</g>
<!-- genesis::create_initialize_validator -->
<g id="node5" class="node">
<title>genesis::create_initialize_validator</title>
<ellipse fill="none" stroke="black" cx="251" cy="-392" rx="102.88" ry="18"/>
<text text-anchor="middle" x="251" y="-388.3" font-family="Times,serif" font-size="14.00">create_initialize_validator</text>
</g>
<!-- genesis::create_initialize_validator&#45;&gt;initialize_stake_owner -->
<g id="edge4" class="edge">
<title>genesis::create_initialize_validator&#45;&gt;initialize_stake_owner</title>
<path fill="none" stroke="black" d="M246.1,-373.81C234.47,-329.09 210.25,-207.62 267,-136 280.93,-118.43 301.48,-107.52 322.9,-100.8"/>
<polygon fill="black" stroke="black" points="323.66,-104.22 332.35,-98.15 321.77,-97.48 323.66,-104.22"/>
</g>
<!-- staking_contract::create_staking_contract -->
<g id="node9" class="node">
<title>staking_contract::create_staking_contract</title>
<ellipse fill="none" stroke="black" cx="394" cy="-309" rx="94.48" ry="18"/>
<text text-anchor="middle" x="394" y="-305.3" font-family="Times,serif" font-size="14.00">create_staking_contract</text>
</g>
<!-- genesis::create_initialize_validator&#45;&gt;staking_contract::create_staking_contract -->
<g id="edge12" class="edge">
<title>genesis::create_initialize_validator&#45;&gt;staking_contract::create_staking_contract</title>
<path fill="none" stroke="black" d="M280.28,-374.41C301.78,-362.24 331.21,-345.57 354.74,-332.24"/>
<polygon fill="black" stroke="black" points="356.46,-335.28 363.44,-327.31 353.01,-329.19 356.46,-335.28"/>
</g>
<!-- staking_proxy::set_voter -->
<g id="node6" class="node">
<title>staking_proxy::set_voter</title>
<ellipse fill="none" stroke="black" cx="662" cy="-162" rx="42.79" ry="18"/>
<text text-anchor="middle" x="662" y="-158.3" font-family="Times,serif" font-size="14.00">set_voter</text>
</g>
<!-- staking_proxy::set_voter&#45;&gt;staking_proxy::set_stake_pool_voter -->
<g id="edge5" class="edge">
<title>staking_proxy::set_voter&#45;&gt;staking_proxy::set_stake_pool_voter</title>
<path fill="none" stroke="black" d="M662,-143.7C662,-136.41 662,-127.73 662,-119.54"/>
<polygon fill="black" stroke="black" points="665.5,-119.62 662,-109.62 658.5,-119.62 665.5,-119.62"/>
</g>
<!-- staking_contract::create_staking_contract_with_coins -->
<g id="node7" class="node">
<title>staking_contract::create_staking_contract_with_coins</title>
<ellipse fill="none" stroke="black" cx="416" cy="-237" rx="137.28" ry="18"/>
<text text-anchor="middle" x="416" y="-233.3" font-family="Times,serif" font-size="14.00">create_staking_contract_with_coins</text>
</g>
<!-- staking_contract::create_staking_contract_with_coins&#45;&gt;staking_contract::create_stake_pool -->
<g id="edge6" class="edge">
<title>staking_contract::create_staking_contract_with_coins&#45;&gt;staking_contract::create_stake_pool</title>
<path fill="none" stroke="black" d="M416,-218.7C416,-210.67 416,-200.9 416,-191.8"/>
<polygon fill="black" stroke="black" points="419.5,-191.94 416,-181.94 412.5,-191.94 419.5,-191.94"/>
</g>
<!-- genesis::create_initialize_validators_with_commission -->
<g id="node8" class="node">
<title>genesis::create_initialize_validators_with_commission</title>
<ellipse fill="none" stroke="black" cx="190" cy="-467" rx="173.57" ry="18"/>
<text text-anchor="middle" x="190" y="-463.3" font-family="Times,serif" font-size="14.00">create_initialize_validators_with_commission</text>
</g>
<!-- genesis::create_initialize_validators_with_commission&#45;&gt;genesis::create_initialize_validator -->
<g id="edge7" class="edge">
<title>genesis::create_initialize_validators_with_commission&#45;&gt;genesis::create_initialize_validator</title>
<path fill="none" stroke="black" d="M204.46,-448.7C211.9,-439.79 221.13,-428.75 229.4,-418.85"/>
<polygon fill="black" stroke="black" points="231.95,-421.26 235.68,-411.34 226.58,-416.77 231.95,-421.26"/>
</g>
<!-- staking_contract::create_staking_contract&#45;&gt;staking_contract::create_staking_contract_with_coins -->
<g id="edge8" class="edge">
<title>staking_contract::create_staking_contract&#45;&gt;staking_contract::create_staking_contract_with_coins</title>
<path fill="none" stroke="black" d="M399.44,-290.7C401.78,-283.24 404.58,-274.32 407.21,-265.97"/>
<polygon fill="black" stroke="black" points="410.51,-267.14 410.17,-256.55 403.83,-265.04 410.51,-267.14"/>
</g>
<!-- vesting::create_vesting_contract -->
<g id="node10" class="node">
<title>vesting::create_vesting_contract</title>
<ellipse fill="none" stroke="black" cx="719" cy="-392" rx="94.48" ry="18"/>
<text text-anchor="middle" x="719" y="-388.3" font-family="Times,serif" font-size="14.00">create_vesting_contract</text>
</g>
<!-- vesting::create_vesting_contract&#45;&gt;staking_contract::create_staking_contract_with_coins -->
<g id="edge9" class="edge">
<title>vesting::create_vesting_contract&#45;&gt;staking_contract::create_staking_contract_with_coins</title>
<path fill="none" stroke="black" d="M686.57,-374.63C631.73,-346.93 520.66,-290.85 459.25,-259.84"/>
<polygon fill="black" stroke="black" points="460.97,-256.79 450.46,-255.4 457.81,-263.03 460.97,-256.79"/>
</g>
<!-- genesis::initialize_for_verification -->
<g id="node11" class="node">
<title>genesis::initialize_for_verification</title>
<ellipse fill="none" stroke="black" cx="453" cy="-539" rx="100.98" ry="18"/>
<text text-anchor="middle" x="453" y="-535.3" font-family="Times,serif" font-size="14.00">initialize_for_verification</text>
</g>
<!-- genesis::initialize_for_verification&#45;&gt;genesis::create_initialize_validators_with_commission -->
<g id="edge10" class="edge">
<title>genesis::initialize_for_verification&#45;&gt;genesis::create_initialize_validators_with_commission</title>
<path fill="none" stroke="black" d="M398.51,-523.5C358.92,-512.96 304.96,-498.6 261.85,-487.12"/>
<polygon fill="black" stroke="black" points="262.89,-483.78 252.32,-484.59 261.08,-490.54 262.89,-483.78"/>
</g>
<!-- genesis::create_employee_validators -->
<g id="node13" class="node">
<title>genesis::create_employee_validators</title>
<ellipse fill="none" stroke="black" cx="491" cy="-467" rx="109.68" ry="18"/>
<text text-anchor="middle" x="491" y="-463.3" font-family="Times,serif" font-size="14.00">create_employee_validators</text>
</g>
<!-- genesis::initialize_for_verification&#45;&gt;genesis::create_employee_validators -->
<g id="edge14" class="edge">
<title>genesis::initialize_for_verification&#45;&gt;genesis::create_employee_validators</title>
<path fill="none" stroke="black" d="M462.39,-520.7C466.58,-512.98 471.61,-503.71 476.28,-495.11"/>
<polygon fill="black" stroke="black" points="479.3,-496.89 480.99,-486.43 473.15,-493.55 479.3,-496.89"/>
</g>
<!-- genesis::create_initialize_validators -->
<g id="node12" class="node">
<title>genesis::create_initialize_validators</title>
<ellipse fill="none" stroke="black" cx="190" cy="-539" rx="105.88" ry="18"/>
<text text-anchor="middle" x="190" y="-535.3" font-family="Times,serif" font-size="14.00">create_initialize_validators</text>
</g>
<!-- genesis::create_initialize_validators&#45;&gt;genesis::create_initialize_validators_with_commission -->
<g id="edge11" class="edge">
<title>genesis::create_initialize_validators&#45;&gt;genesis::create_initialize_validators_with_commission</title>
<path fill="none" stroke="black" d="M190,-520.7C190,-513.41 190,-504.73 190,-496.54"/>
<polygon fill="black" stroke="black" points="193.5,-496.62 190,-486.62 186.5,-496.62 193.5,-496.62"/>
</g>
<!-- genesis::create_employee_validators&#45;&gt;vesting::create_vesting_contract -->
<g id="edge13" class="edge">
<title>genesis::create_employee_validators&#45;&gt;vesting::create_vesting_contract</title>
<path fill="none" stroke="black" d="M565.56,-453.47C581.39,-450.05 597.88,-445.9 613,-441 634.89,-433.9 658.28,-423.62 677.51,-414.39"/>
<polygon fill="black" stroke="black" points="678.92,-417.59 686.37,-410.06 675.85,-411.3 678.92,-417.59"/>
</g>
</g>
</svg>
