<?xml version="1.0" encoding="UTF-8" standalone="no"?>
<!DOCTYPE svg PUBLIC "-//W3C//DTD SVG 1.1//EN"
 "http://www.w3.org/Graphics/SVG/1.1/DTD/svg11.dtd">
<!-- Generated by graphviz version 7.0.4 (20221203.1631)
 -->
<!-- Title: G Pages: 1 -->
<svg width="1371pt" height="310pt"
 viewBox="0.00 0.00 1371.00 310.00" xmlns="http://www.w3.org/2000/svg" xmlns:xlink="http://www.w3.org/1999/xlink">
<g id="graph0" class="graph" transform="scale(1 1) rotate(0) translate(4 306)">
<title>G</title>
<polygon fill="white" stroke="none" points="-4,4 -4,-306 1367,-306 1367,4 -4,4"/>
<g id="clust1" class="cluster">
<title>cluster_reconfiguration</title>
<polygon fill="none" stroke="black" points="453,-136 453,-211 571,-211 571,-136 453,-136"/>
<text text-anchor="middle" x="512" y="-195.8" font-family="Times,serif" font-size="14.00">reconfiguration</text>
</g>
<g id="clust2" class="cluster">
<title>cluster_genesis</title>
<polygon fill="none" stroke="black" points="907,-136 907,-294 1355,-294 1355,-136 907,-136"/>
<text text-anchor="middle" x="1131" y="-278.8" font-family="Times,serif" font-size="14.00">genesis</text>
</g>
<g id="clust3" class="cluster">
<title>cluster_aptos_governance</title>
<polygon fill="none" stroke="black" points="8,-219 8,-294 126,-294 126,-219 8,-219"/>
<text text-anchor="middle" x="67" y="-278.8" font-family="Times,serif" font-size="14.00">aptos_governance</text>
</g>
<g id="clust4" class="cluster">
<title>cluster_block</title>
<polygon fill="none" stroke="black" points="134,-219 134,-294 282,-294 282,-219 134,-219"/>
<text text-anchor="middle" x="208" y="-278.8" font-family="Times,serif" font-size="14.00">block</text>
</g>
<g id="clust5" class="cluster">
<title>cluster_consensus_config</title>
<polygon fill="none" stroke="black" points="290,-219 290,-294 403,-294 403,-219 290,-219"/>
<text text-anchor="middle" x="346.5" y="-278.8" font-family="Times,serif" font-size="14.00">consensus_config</text>
</g>
<g id="clust6" class="cluster">
<title>cluster_gas_schedule</title>
<polygon fill="none" stroke="black" points="411,-219 411,-294 773,-294 773,-219 411,-219"/>
<text text-anchor="middle" x="592" y="-278.8" font-family="Times,serif" font-size="14.00">gas_schedule</text>
</g>
<g id="clust7" class="cluster">
<title>cluster_version</title>
<polygon fill="none" stroke="black" points="781,-219 781,-294 899,-294 899,-219 781,-219"/>
<text text-anchor="middle" x="840" y="-278.8" font-family="Times,serif" font-size="14.00">version</text>
</g>
<!-- update_stake_pool -->
<g id="node1" class="node">
<title>update_stake_pool</title>
<ellipse fill="none" stroke="black" cx="800" cy="-18" rx="76.89" ry="18"/>
<text text-anchor="middle" x="800" y="-14.3" font-family="Times,serif" font-size="14.00">update_stake_pool</text>
</g>
<!-- on_new_epoch -->
<g id="node2" class="node">
<title>on_new_epoch</title>
<ellipse fill="none" stroke="black" cx="800" cy="-90" rx="63.89" ry="18"/>
<text text-anchor="middle" x="800" y="-86.3" font-family="Times,serif" font-size="14.00">on_new_epoch</text>
</g>
<!-- on_new_epoch&#45;&gt;update_stake_pool -->
<g id="edge1" class="edge">
<title>on_new_epoch&#45;&gt;update_stake_pool</title>
<path fill="none" stroke="black" d="M800,-71.7C800,-64.41 800,-55.73 800,-47.54"/>
<polygon fill="black" stroke="black" points="803.5,-47.62 800,-37.62 796.5,-47.62 803.5,-47.62"/>
</g>
<!-- reconfiguration::reconfigure -->
<g id="node3" class="node">
<title>reconfiguration::reconfigure</title>
<ellipse fill="none" stroke="black" cx="512" cy="-162" rx="51.19" ry="18"/>
<text text-anchor="middle" x="512" y="-158.3" font-family="Times,serif" font-size="14.00">reconfigure</text>
</g>
<!-- reconfiguration::reconfigure&#45;&gt;on_new_epoch -->
<g id="edge2" class="edge">
<title>reconfiguration::reconfigure&#45;&gt;on_new_epoch</title>
<path fill="none" stroke="black" d="M553.26,-150.97C602.74,-138.95 685.97,-118.72 741.92,-105.12"/>
<polygon fill="black" stroke="black" points="742.72,-108.53 751.61,-102.76 741.06,-101.72 742.72,-108.53"/>
</g>
<!-- genesis::create_initialize_validators_with_commission -->
<g id="node4" class="node">
<title>genesis::create_initialize_validators_with_commission</title>
<ellipse fill="none" stroke="black" cx="1089" cy="-162" rx="173.57" ry="18"/>
<text text-anchor="middle" x="1089" y="-158.3" font-family="Times,serif" font-size="14.00">create_initialize_validators_with_commission</text>
</g>
<!-- genesis::create_initialize_validators_with_commission&#45;&gt;on_new_epoch -->
<g id="edge3" class="edge">
<title>genesis::create_initialize_validators_with_commission&#45;&gt;on_new_epoch</title>
<path fill="none" stroke="black" d="M1022.7,-144.94C973.02,-132.91 905.7,-116.6 858.12,-105.08"/>
<polygon fill="black" stroke="black" points="859.09,-101.71 848.54,-102.76 857.44,-108.51 859.09,-101.71"/>
</g>
<!-- aptos_governance::reconfigure -->
<g id="node5" class="node">
<title>aptos_governance::reconfigure</title>
<ellipse fill="none" stroke="black" cx="67" cy="-245" rx="51.19" ry="18"/>
<text text-anchor="middle" x="67" y="-241.3" font-family="Times,serif" font-size="14.00">reconfigure</text>
</g>
<!-- aptos_governance::reconfigure&#45;&gt;reconfiguration::reconfigure -->
<g id="edge4" class="edge">
<title>aptos_governance::reconfigure&#45;&gt;reconfiguration::reconfigure</title>
<path fill="none" stroke="black" d="M97.6,-230.2C107.74,-226.08 119.2,-221.89 130,-219 241.01,-189.27 374.66,-174.25 450.84,-167.56"/>
<polygon fill="black" stroke="black" points="450.94,-171.07 460.6,-166.73 450.34,-164.09 450.94,-171.07"/>
</g>
<!-- block::block_prologue -->
<g id="node6" class="node">
<title>block::block_prologue</title>
<ellipse fill="none" stroke="black" cx="208" cy="-245" rx="65.79" ry="18"/>
<text text-anchor="middle" x="208" y="-241.3" font-family="Times,serif" font-size="14.00">block_prologue</text>
</g>
<!-- block::block_prologue&#45;&gt;reconfiguration::reconfigure -->
<g id="edge5" class="edge">
<title>block::block_prologue&#45;&gt;reconfiguration::reconfigure</title>
<path fill="none" stroke="black" d="M248.33,-230.5C260.39,-226.62 273.69,-222.49 286,-219 344.61,-202.37 412.55,-185.91 458.51,-175.18"/>
<polygon fill="black" stroke="black" points="459.28,-178.6 468.23,-172.93 457.7,-171.78 459.28,-178.6"/>
</g>
<!-- consensus_config::set -->
<g id="node7" class="node">
<title>consensus_config::set</title>
<ellipse fill="none" stroke="black" cx="368" cy="-245" rx="27" ry="18"/>
<text text-anchor="middle" x="368" y="-241.3" font-family="Times,serif" font-size="14.00">set</text>
</g>
<!-- consensus_config::set&#45;&gt;reconfiguration::reconfigure -->
<g id="edge6" class="edge">
<title>consensus_config::set&#45;&gt;reconfiguration::reconfigure</title>
<path fill="none" stroke="black" d="M386.46,-231.74C392.89,-227.58 400.2,-222.98 407,-219 428.71,-206.28 453.52,-192.99 473.57,-182.55"/>
<polygon fill="black" stroke="black" points="474.97,-185.77 482.24,-178.07 471.75,-179.55 474.97,-185.77"/>
</g>
<!-- gas_schedule::set_gas_schedule -->
<g id="node8" class="node">
<title>gas_schedule::set_gas_schedule</title>
<ellipse fill="none" stroke="black" cx="694" cy="-245" rx="71.49" ry="18"/>
<text text-anchor="middle" x="694" y="-241.3" font-family="Times,serif" font-size="14.00">set_gas_schedule</text>
</g>
<!-- gas_schedule::set_gas_schedule&#45;&gt;reconfiguration::reconfigure -->
<g id="edge7" class="edge">
<title>gas_schedule::set_gas_schedule&#45;&gt;reconfiguration::reconfigure</title>
<path fill="none" stroke="black" d="M659.77,-228.76C629.52,-215.3 585.33,-195.64 553.16,-181.32"/>
<polygon fill="black" stroke="black" points="554.69,-178.17 544.13,-177.3 551.84,-184.56 554.69,-178.17"/>
</g>
<!-- gas_schedule::set_storage_gas_config -->
<g id="node9" class="node">
<title>gas_schedule::set_storage_gas_config</title>
<ellipse fill="none" stroke="black" cx="512" cy="-245" rx="92.88" ry="18"/>
<text text-anchor="middle" x="512" y="-241.3" font-family="Times,serif" font-size="14.00">set_storage_gas_config</text>
</g>
<!-- gas_schedule::set_storage_gas_config&#45;&gt;reconfiguration::reconfigure -->
<g id="edge8" class="edge">
<title>gas_schedule::set_storage_gas_config&#45;&gt;reconfiguration::reconfigure</title>
<path fill="none" stroke="black" d="M512,-226.82C512,-216.69 512,-203.6 512,-191.92"/>
<polygon fill="black" stroke="black" points="515.5,-191.95 512,-181.95 508.5,-191.95 515.5,-191.95"/>
</g>
<!-- version::set_version -->
<g id="node10" class="node">
<title>version::set_version</title>
<ellipse fill="none" stroke="black" cx="840" cy="-245" rx="50.89" ry="18"/>
<text text-anchor="middle" x="840" y="-241.3" font-family="Times,serif" font-size="14.00">set_version</text>
</g>
<!-- version::set_version&#45;&gt;reconfiguration::reconfigure -->
<g id="edge9" class="edge">
<title>version::set_version&#45;&gt;reconfiguration::reconfigure</title>
<path fill="none" stroke="black" d="M808.64,-230.35C798.66,-226.32 787.48,-222.16 777,-219 706.6,-197.76 623.33,-181.57 569.18,-172.19"/>
<polygon fill="black" stroke="black" points="570.02,-168.79 559.57,-170.55 568.84,-175.68 570.02,-168.79"/>
</g>
<!-- genesis::initialize_for_verification -->
<g id="node11" class="node">
<title>genesis::initialize_for_verification</title>
<ellipse fill="none" stroke="black" cx="1246" cy="-245" rx="100.98" ry="18"/>
<text text-anchor="middle" x="1246" y="-241.3" font-family="Times,serif" font-size="14.00">initialize_for_verification</text>
</g>
<!-- genesis::initialize_for_verification&#45;&gt;genesis::create_initialize_validators_with_commission -->
<g id="edge10" class="edge">
<title>genesis::initialize_for_verification&#45;&gt;genesis::create_initialize_validators_with_commission</title>
<path fill="none" stroke="black" d="M1214.23,-227.61C1190.58,-215.41 1158.03,-198.61 1132.04,-185.21"/>
<polygon fill="black" stroke="black" points="1133.91,-182.23 1123.42,-180.76 1130.7,-188.45 1133.91,-182.23"/>
</g>
<!-- genesis::create_initialize_validators -->
<g id="node12" class="node">
<title>genesis::create_initialize_validators</title>
<ellipse fill="none" stroke="black" cx="1021" cy="-245" rx="105.88" ry="18"/>
<text text-anchor="middle" x="1021" y="-241.3" font-family="Times,serif" font-size="14.00">create_initialize_validators</text>
</g>
<!-- genesis::create_initialize_validators&#45;&gt;genesis::create_initialize_validators_with_commission -->
<g id="edge11" class="edge">
<title>genesis::create_initialize_validators&#45;&gt;genesis::create_initialize_validators_with_commission</title>
<path fill="none" stroke="black" d="M1035.42,-226.82C1044.64,-215.84 1056.78,-201.38 1067.17,-189"/>
<polygon fill="black" stroke="black" points="1069.64,-191.5 1073.39,-181.59 1064.28,-187 1069.64,-191.5"/>
</g>
</g>
</svg>
