<?xml version="1.0" encoding="UTF-8" standalone="no"?>
<!DOCTYPE svg PUBLIC "-//W3C//DTD SVG 1.1//EN"
 "http://www.w3.org/Graphics/SVG/1.1/DTD/svg11.dtd">
<!-- Generated by graphviz version 7.0.4 (20221203.1631)
 -->
<!-- Title: G Pages: 1 -->
<svg width="174pt" height="227pt"
 viewBox="0.00 0.00 174.00 227.00" xmlns="http://www.w3.org/2000/svg" xmlns:xlink="http://www.w3.org/1999/xlink">
<g id="graph0" class="graph" transform="scale(1 1) rotate(0) translate(4 223)">
<title>G</title>
<polygon fill="white" stroke="none" points="-4,4 -4,-223 170,-223 170,4 -4,4"/>
<g id="clust1" class="cluster">
<title>cluster_vesting</title>
<polygon fill="none" stroke="black" points="8,-64 8,-211 158,-211 158,-64 8,-64"/>
<text text-anchor="middle" x="83" y="-195.8" font-family="Times,serif" font-size="14.00">vesting</text>
</g>
<!-- unlock_rewards -->
<g id="node1" class="node">
<title>unlock_rewards</title>
<ellipse fill="none" stroke="black" cx="83" cy="-18" rx="66.89" ry="18"/>
<text text-anchor="middle" x="83" y="-14.3" font-family="Times,serif" font-size="14.00">unlock_rewards</text>
</g>
<!-- vesting::unlock_rewards -->
<g id="node2" class="node">
<title>vesting::unlock_rewards</title>
<ellipse fill="none" stroke="black" cx="83" cy="-90" rx="66.89" ry="18"/>
<text text-anchor="middle" x="83" y="-86.3" font-family="Times,serif" font-size="14.00">unlock_rewards</text>
</g>
<!-- vesting::unlock_rewards&#45;&gt;unlock_rewards -->
<g id="edge1" class="edge">
<title>vesting::unlock_rewards&#45;&gt;unlock_rewards</title>
<path fill="none" stroke="black" d="M83,-71.7C83,-64.41 83,-55.73 83,-47.54"/>
<polygon fill="black" stroke="black" points="86.5,-47.62 83,-37.62 79.5,-47.62 86.5,-47.62"/>
</g>
<!-- vesting::vest -->
<g id="node3" class="node">
<title>vesting::vest</title>
<ellipse fill="none" stroke="black" cx="83" cy="-162" rx="27" ry="18"/>
<text text-anchor="middle" x="83" y="-158.3" font-family="Times,serif" font-size="14.00">vest</text>
</g>
<!-- vesting::vest&#45;&gt;vesting::unlock_rewards -->
<g id="edge2" class="edge">
<title>vesting::vest&#45;&gt;vesting::unlock_rewards</title>
<path fill="none" stroke="black" d="M83,-143.7C83,-136.41 83,-127.73 83,-119.54"/>
<polygon fill="black" stroke="black" points="86.5,-119.62 83,-109.62 79.5,-119.62 86.5,-119.62"/>
</g>
</g>
</svg>
