<?xml version="1.0" encoding="UTF-8" standalone="no"?>
<!DOCTYPE svg PUBLIC "-//W3C//DTD SVG 1.1//EN"
 "http://www.w3.org/Graphics/SVG/1.1/DTD/svg11.dtd">
<!-- Generated by graphviz version 7.0.4 (20221203.1631)
 -->
<!-- Title: G Pages: 1 -->
<svg width="2063pt" height="526pt"
 viewBox="0.00 0.00 2062.60 526.00" xmlns="http://www.w3.org/2000/svg" xmlns:xlink="http://www.w3.org/1999/xlink">
<g id="graph0" class="graph" transform="scale(1 1) rotate(0) translate(4 522)">
<title>G</title>
<polygon fill="white" stroke="none" points="-4,4 -4,-522 2058.6,-522 2058.6,4 -4,4"/>
<g id="clust1" class="cluster">
<title>cluster_staking_proxy</title>
<polygon fill="none" stroke="black" points="806,-363 806,-510 1763,-510 1763,-363 806,-363"/>
<text text-anchor="middle" x="1284.5" y="-494.8" font-family="Times,serif" font-size="14.00">staking_proxy</text>
</g>
<g id="clust2" class="cluster">
<title>cluster_vesting</title>
<polygon fill="none" stroke="black" points="988,-136 988,-355 1886,-355 1886,-136 988,-136"/>
<text text-anchor="middle" x="1437" y="-339.8" font-family="Times,serif" font-size="14.00">vesting</text>
</g>
<g id="clust3" class="cluster">
<title>cluster_genesis</title>
<polygon fill="none" stroke="black" points="8,-136 8,-355 456,-355 456,-136 8,-136"/>
<text text-anchor="middle" x="232" y="-339.8" font-family="Times,serif" font-size="14.00">genesis</text>
</g>
<!-- assert_staking_contract_exists -->
<g id="node1" class="node">
<title>assert_staking_contract_exists</title>
<ellipse fill="none" stroke="black" cx="1230" cy="-18" rx="117.78" ry="18"/>
<text text-anchor="middle" x="1230" y="-14.3" font-family="Times,serif" font-size="14.00">assert_staking_contract_exists</text>
</g>
<!-- add_stake -->
<g id="node2" class="node">
<title>add_stake</title>
<ellipse fill="none" stroke="black" cx="89" cy="-90" rx="46.29" ry="18"/>
<text text-anchor="middle" x="89" y="-86.3" font-family="Times,serif" font-size="14.00">add_stake</text>
</g>
<!-- add_stake&#45;&gt;assert_staking_contract_exists -->
<g id="edge1" class="edge">
<title>add_stake&#45;&gt;assert_staking_contract_exists</title>
<path fill="none" stroke="black" d="M122.41,-77.21C129.46,-75.14 136.91,-73.25 144,-72 324.49,-40.22 855.93,-26.16 1102.13,-21.22"/>
<polygon fill="black" stroke="black" points="1102.19,-24.72 1112.12,-21.02 1102.05,-17.72 1102.19,-24.72"/>
</g>
<!-- commission_percentage -->
<g id="node3" class="node">
<title>commission_percentage</title>
<ellipse fill="none" stroke="black" cx="426" cy="-90" rx="96.68" ry="18"/>
<text text-anchor="middle" x="426" y="-86.3" font-family="Times,serif" font-size="14.00">commission_percentage</text>
</g>
<!-- commission_percentage&#45;&gt;assert_staking_contract_exists -->
<g id="edge2" class="edge">
<title>commission_percentage&#45;&gt;assert_staking_contract_exists</title>
<path fill="none" stroke="black" d="M494.79,-77.01C506.83,-75.15 519.26,-73.39 531,-72 732.65,-48.07 968.39,-32.82 1108.11,-25.1"/>
<polygon fill="black" stroke="black" points="1107.94,-28.62 1117.74,-24.57 1107.56,-21.63 1107.94,-28.62"/>
</g>
<!-- distribute -->
<g id="node4" class="node">
<title>distribute</title>
<ellipse fill="none" stroke="black" cx="1537" cy="-90" rx="44.39" ry="18"/>
<text text-anchor="middle" x="1537" y="-86.3" font-family="Times,serif" font-size="14.00">distribute</text>
</g>
<!-- distribute&#45;&gt;assert_staking_contract_exists -->
<g id="edge3" class="edge">
<title>distribute&#45;&gt;assert_staking_contract_exists</title>
<path fill="none" stroke="black" d="M1503.8,-77.76C1497.27,-75.72 1490.45,-73.7 1484,-72 1428.22,-57.28 1364.69,-44.02 1315.11,-34.45"/>
<polygon fill="black" stroke="black" points="1316.08,-31.07 1305.6,-32.63 1314.76,-37.95 1316.08,-31.07"/>
</g>
<!-- last_recorded_principal -->
<g id="node5" class="node">
<title>last_recorded_principal</title>
<ellipse fill="none" stroke="black" cx="634" cy="-90" rx="93.68" ry="18"/>
<text text-anchor="middle" x="634" y="-86.3" font-family="Times,serif" font-size="14.00">last_recorded_principal</text>
</g>
<!-- last_recorded_principal&#45;&gt;assert_staking_contract_exists -->
<g id="edge4" class="edge">
<title>last_recorded_principal&#45;&gt;assert_staking_contract_exists</title>
<path fill="none" stroke="black" d="M701.79,-77.25C713.51,-75.38 725.6,-73.55 737,-72 868,-54.16 1019.25,-38.65 1119.31,-29.1"/>
<polygon fill="black" stroke="black" points="1119.52,-32.59 1129.14,-28.16 1118.86,-25.62 1119.52,-32.59"/>
</g>
<!-- pending_distribution_counts -->
<g id="node6" class="node">
<title>pending_distribution_counts</title>
<ellipse fill="none" stroke="black" cx="857" cy="-90" rx="111.28" ry="18"/>
<text text-anchor="middle" x="857" y="-86.3" font-family="Times,serif" font-size="14.00">pending_distribution_counts</text>
</g>
<!-- pending_distribution_counts&#45;&gt;assert_staking_contract_exists -->
<g id="edge5" class="edge">
<title>pending_distribution_counts&#45;&gt;assert_staking_contract_exists</title>
<path fill="none" stroke="black" d="M927.6,-75.75C989.79,-64.08 1080.47,-47.06 1146.3,-34.71"/>
<polygon fill="black" stroke="black" points="1146.79,-38.18 1155.98,-32.89 1145.5,-31.3 1146.79,-38.18"/>
</g>
<!-- request_commission -->
<g id="node7" class="node">
<title>request_commission</title>
<ellipse fill="none" stroke="black" cx="1070" cy="-90" rx="83.69" ry="18"/>
<text text-anchor="middle" x="1070" y="-86.3" font-family="Times,serif" font-size="14.00">request_commission</text>
</g>
<!-- request_commission&#45;&gt;assert_staking_contract_exists -->
<g id="edge6" class="edge">
<title>request_commission&#45;&gt;assert_staking_contract_exists</title>
<path fill="none" stroke="black" d="M1105.91,-73.29C1128.3,-63.49 1157.39,-50.77 1181.78,-40.1"/>
<polygon fill="black" stroke="black" points="1183.12,-43.33 1190.88,-36.12 1180.31,-36.92 1183.12,-43.33"/>
</g>
<!-- reset_lockup -->
<g id="node8" class="node">
<title>reset_lockup</title>
<ellipse fill="none" stroke="black" cx="1419" cy="-90" rx="55.79" ry="18"/>
<text text-anchor="middle" x="1419" y="-86.3" font-family="Times,serif" font-size="14.00">reset_lockup</text>
</g>
<!-- reset_lockup&#45;&gt;assert_staking_contract_exists -->
<g id="edge7" class="edge">
<title>reset_lockup&#45;&gt;assert_staking_contract_exists</title>
<path fill="none" stroke="black" d="M1383.45,-75.83C1355.49,-65.48 1316.08,-50.88 1284.19,-39.07"/>
<polygon fill="black" stroke="black" points="1285.71,-35.9 1275.12,-35.71 1283.28,-42.46 1285.71,-35.9"/>
</g>
<!-- stake_pool_address -->
<g id="node9" class="node">
<title>stake_pool_address</title>
<ellipse fill="none" stroke="black" cx="232" cy="-90" rx="79.09" ry="18"/>
<text text-anchor="middle" x="232" y="-86.3" font-family="Times,serif" font-size="14.00">stake_pool_address</text>
</g>
<!-- stake_pool_address&#45;&gt;assert_staking_contract_exists -->
<g id="edge8" class="edge">
<title>stake_pool_address&#45;&gt;assert_staking_contract_exists</title>
<path fill="none" stroke="black" d="M288.16,-77C298.7,-75.08 309.66,-73.29 320,-72 597.35,-37.29 925.16,-25.25 1101.78,-21.12"/>
<polygon fill="black" stroke="black" points="1101.76,-24.62 1111.68,-20.89 1101.6,-17.62 1101.76,-24.62"/>
</g>
<!-- staking_contract_amounts -->
<g id="node10" class="node">
<title>staking_contract_amounts</title>
<ellipse fill="none" stroke="black" cx="1915" cy="-90" rx="103.18" ry="18"/>
<text text-anchor="middle" x="1915" y="-86.3" font-family="Times,serif" font-size="14.00">staking_contract_amounts</text>
</g>
<!-- staking_contract_amounts&#45;&gt;assert_staking_contract_exists -->
<g id="edge9" class="edge">
<title>staking_contract_amounts&#45;&gt;assert_staking_contract_exists</title>
<path fill="none" stroke="black" d="M1833.91,-78.57C1815.53,-76.31 1796.11,-74 1778,-72 1626.79,-55.31 1451.78,-38.89 1341.01,-28.85"/>
<polygon fill="black" stroke="black" points="1341.61,-25.39 1331.34,-27.97 1340.98,-32.36 1341.61,-25.39"/>
</g>
<!-- switch_operator -->
<g id="node11" class="node">
<title>switch_operator</title>
<ellipse fill="none" stroke="black" cx="1278" cy="-90" rx="67.69" ry="18"/>
<text text-anchor="middle" x="1278" y="-86.3" font-family="Times,serif" font-size="14.00">switch_operator</text>
</g>
<!-- switch_operator&#45;&gt;assert_staking_contract_exists -->
<g id="edge10" class="edge">
<title>switch_operator&#45;&gt;assert_staking_contract_exists</title>
<path fill="none" stroke="black" d="M1266.38,-72.05C1260.92,-64.09 1254.28,-54.41 1248.18,-45.51"/>
<polygon fill="black" stroke="black" points="1251.24,-43.79 1242.7,-37.52 1245.47,-47.75 1251.24,-43.79"/>
</g>
<!-- switch_operator_with_same_commission -->
<g id="node12" class="node">
<title>switch_operator_with_same_commission</title>
<ellipse fill="none" stroke="black" cx="744" cy="-162" rx="157.87" ry="18"/>
<text text-anchor="middle" x="744" y="-158.3" font-family="Times,serif" font-size="14.00">switch_operator_with_same_commission</text>
</g>
<!-- switch_operator_with_same_commission&#45;&gt;assert_staking_contract_exists -->
<g id="edge11" class="edge">
<title>switch_operator_with_same_commission&#45;&gt;assert_staking_contract_exists</title>
<path fill="none" stroke="black" d="M836.31,-147.04C862.08,-143.29 890.11,-139.35 916,-136 970.78,-128.92 1115.04,-135.41 1163,-108 1187.59,-93.94 1205.98,-66.84 1217.21,-46.22"/>
<polygon fill="black" stroke="black" points="1220.24,-47.96 1221.73,-37.47 1214.03,-44.75 1220.24,-47.96"/>
</g>
<!-- switch_operator_with_same_commission&#45;&gt;commission_percentage -->
<g id="edge15" class="edge">
<title>switch_operator_with_same_commission&#45;&gt;commission_percentage</title>
<path fill="none" stroke="black" d="M673.43,-145.46C621.15,-133.96 550.18,-118.34 497.65,-106.77"/>
<polygon fill="black" stroke="black" points="498.73,-103.43 488.22,-104.7 497.23,-110.26 498.73,-103.43"/>
</g>
<!-- switch_operator_with_same_commission&#45;&gt;switch_operator -->
<g id="edge21" class="edge">
<title>switch_operator_with_same_commission&#45;&gt;switch_operator</title>
<path fill="none" stroke="black" d="M835.39,-146.94C861.41,-143.15 889.79,-139.21 916,-136 1040.14,-120.78 1072.38,-126.94 1196,-108 1202.7,-106.97 1209.67,-105.76 1216.6,-104.46"/>
<polygon fill="black" stroke="black" points="1216.78,-107.99 1225.92,-102.64 1215.44,-101.12 1216.78,-107.99"/>
</g>
<!-- unlock_rewards -->
<g id="node13" class="node">
<title>unlock_rewards</title>
<ellipse fill="none" stroke="black" cx="1961" cy="-162" rx="66.89" ry="18"/>
<text text-anchor="middle" x="1961" y="-158.3" font-family="Times,serif" font-size="14.00">unlock_rewards</text>
</g>
<!-- unlock_rewards&#45;&gt;assert_staking_contract_exists -->
<g id="edge12" class="edge">
<title>unlock_rewards&#45;&gt;assert_staking_contract_exists</title>
<path fill="none" stroke="black" d="M1922,-147.05C1911.62,-143.4 1900.4,-139.5 1890,-136 1851.51,-123.03 1840.43,-123.79 1803,-108 1771.49,-94.71 1767.71,-81.97 1735,-72 1611.15,-34.27 1463.19,-22.38 1359.55,-19.11"/>
<polygon fill="black" stroke="black" points="1359.69,-15.61 1349.6,-18.82 1359.49,-22.61 1359.69,-15.61"/>
</g>
<!-- unlock_rewards&#45;&gt;staking_contract_amounts -->
<g id="edge20" class="edge">
<title>unlock_rewards&#45;&gt;staking_contract_amounts</title>
<path fill="none" stroke="black" d="M1949.86,-144.05C1944.69,-136.18 1938.41,-126.62 1932.61,-117.79"/>
<polygon fill="black" stroke="black" points="1935.6,-115.98 1927.18,-109.54 1929.75,-119.82 1935.6,-115.98"/>
</g>
<!-- unlock_stake -->
<g id="node14" class="node">
<title>unlock_stake</title>
<ellipse fill="none" stroke="black" cx="1669" cy="-90" rx="57.39" ry="18"/>
<text text-anchor="middle" x="1669" y="-86.3" font-family="Times,serif" font-size="14.00">unlock_stake</text>
</g>
<!-- unlock_rewards&#45;&gt;unlock_stake -->
<g id="edge25" class="edge">
<title>unlock_rewards&#45;&gt;unlock_stake</title>
<path fill="none" stroke="black" d="M1923.73,-146.77C1912.94,-142.95 1901.09,-139.04 1890,-136 1828.81,-119.2 1812.16,-120.74 1750,-108 1742.53,-106.47 1734.67,-104.84 1726.91,-103.22"/>
<polygon fill="black" stroke="black" points="1727.66,-99.8 1717.15,-101.18 1726.23,-106.66 1727.66,-99.8"/>
</g>
<!-- unlock_stake&#45;&gt;assert_staking_contract_exists -->
<g id="edge13" class="edge">
<title>unlock_stake&#45;&gt;assert_staking_contract_exists</title>
<path fill="none" stroke="black" d="M1623.57,-78.69C1612.6,-76.35 1600.91,-73.97 1590,-72 1502.23,-56.11 1401.76,-41.63 1329.31,-31.83"/>
<polygon fill="black" stroke="black" points="1329.8,-28.37 1319.43,-30.5 1328.87,-35.3 1329.8,-28.37"/>
</g>
<!-- update_voter -->
<g id="node15" class="node">
<title>update_voter</title>
<ellipse fill="none" stroke="black" cx="1952" cy="-234" rx="56.59" ry="18"/>
<text text-anchor="middle" x="1952" y="-230.3" font-family="Times,serif" font-size="14.00">update_voter</text>
</g>
<!-- update_voter&#45;&gt;assert_staking_contract_exists -->
<g id="edge14" class="edge">
<title>update_voter&#45;&gt;assert_staking_contract_exists</title>
<path fill="none" stroke="black" d="M1988.58,-220.09C2006.59,-211.67 2026.62,-198.7 2037,-180 2060.39,-137.85 2062.56,-104.54 2027,-72 1978.95,-28.03 1572.11,-20.05 1359.03,-18.92"/>
<polygon fill="black" stroke="black" points="1359.31,-15.42 1349.29,-18.87 1359.28,-22.42 1359.31,-15.42"/>
</g>
<!-- staking_proxy::set_staking_contract_operator -->
<g id="node16" class="node">
<title>staking_proxy::set_staking_contract_operator</title>
<ellipse fill="none" stroke="black" cx="930" cy="-389" rx="116.18" ry="18"/>
<text text-anchor="middle" x="930" y="-385.3" font-family="Times,serif" font-size="14.00">set_staking_contract_operator</text>
</g>
<!-- staking_proxy::set_staking_contract_operator&#45;&gt;commission_percentage -->
<g id="edge16" class="edge">
<title>staking_proxy::set_staking_contract_operator&#45;&gt;commission_percentage</title>
<path fill="none" stroke="black" d="M901.46,-371.18C815.78,-320.69 560.77,-170.42 463.9,-113.34"/>
<polygon fill="black" stroke="black" points="465.92,-110.46 455.53,-108.4 462.37,-116.5 465.92,-110.46"/>
</g>
<!-- staking_proxy::set_staking_contract_operator&#45;&gt;switch_operator -->
<g id="edge23" class="edge">
<title>staking_proxy::set_staking_contract_operator&#45;&gt;switch_operator</title>
<path fill="none" stroke="black" d="M927.7,-370.74C922.65,-324.82 915.97,-198.85 984,-136 1018.74,-103.9 1148.36,-115.86 1195,-108 1201.68,-106.87 1208.64,-105.6 1215.56,-104.28"/>
<polygon fill="black" stroke="black" points="1216.12,-107.73 1225.26,-102.37 1214.77,-100.87 1216.12,-107.73"/>
</g>
<!-- vesting::withdraw_stake -->
<g id="node17" class="node">
<title>vesting::withdraw_stake</title>
<ellipse fill="none" stroke="black" cx="1523" cy="-162" rx="66.09" ry="18"/>
<text text-anchor="middle" x="1523" y="-158.3" font-family="Times,serif" font-size="14.00">withdraw_stake</text>
</g>
<!-- vesting::withdraw_stake&#45;&gt;distribute -->
<g id="edge17" class="edge">
<title>vesting::withdraw_stake&#45;&gt;distribute</title>
<path fill="none" stroke="black" d="M1526.46,-143.7C1527.94,-136.32 1529.7,-127.52 1531.35,-119.25"/>
<polygon fill="black" stroke="black" points="1534.75,-120.08 1533.28,-109.59 1527.89,-118.71 1534.75,-120.08"/>
</g>
<!-- vesting::reset_lockup -->
<g id="node18" class="node">
<title>vesting::reset_lockup</title>
<ellipse fill="none" stroke="black" cx="1052" cy="-306" rx="55.79" ry="18"/>
<text text-anchor="middle" x="1052" y="-302.3" font-family="Times,serif" font-size="14.00">reset_lockup</text>
</g>
<!-- vesting::reset_lockup&#45;&gt;reset_lockup -->
<g id="edge18" class="edge">
<title>vesting::reset_lockup&#45;&gt;reset_lockup</title>
<path fill="none" stroke="black" d="M1073.77,-289.13C1099.38,-270.71 1143.43,-239.83 1183,-216 1250.03,-175.65 1331.23,-134.18 1378.79,-110.6"/>
<polygon fill="black" stroke="black" points="1380.22,-113.81 1387.63,-106.24 1377.12,-107.53 1380.22,-113.81"/>
</g>
<!-- genesis::create_initialize_validator -->
<g id="node19" class="node">
<title>genesis::create_initialize_validator</title>
<ellipse fill="none" stroke="black" cx="232" cy="-162" rx="102.88" ry="18"/>
<text text-anchor="middle" x="232" y="-158.3" font-family="Times,serif" font-size="14.00">create_initialize_validator</text>
</g>
<!-- genesis::create_initialize_validator&#45;&gt;stake_pool_address -->
<g id="edge19" class="edge">
<title>genesis::create_initialize_validator&#45;&gt;stake_pool_address</title>
<path fill="none" stroke="black" d="M232,-143.7C232,-136.41 232,-127.73 232,-119.54"/>
<polygon fill="black" stroke="black" points="235.5,-119.62 232,-109.62 228.5,-119.62 235.5,-119.62"/>
</g>
<!-- vesting::update_operator -->
<g id="node20" class="node">
<title>vesting::update_operator</title>
<ellipse fill="none" stroke="black" cx="1260" cy="-234" rx="67.69" ry="18"/>
<text text-anchor="middle" x="1260" y="-230.3" font-family="Times,serif" font-size="14.00">update_operator</text>
</g>
<!-- vesting::update_operator&#45;&gt;switch_operator -->
<g id="edge22" class="edge">
<title>vesting::update_operator&#45;&gt;switch_operator</title>
<path fill="none" stroke="black" d="M1262.21,-215.59C1265.25,-191.61 1270.76,-148.14 1274.4,-119.42"/>
<polygon fill="black" stroke="black" points="1277.86,-119.97 1275.64,-109.61 1270.91,-119.09 1277.86,-119.97"/>
</g>
<!-- vesting::unlock_rewards -->
<g id="node21" class="node">
<title>vesting::unlock_rewards</title>
<ellipse fill="none" stroke="black" cx="1811" cy="-234" rx="66.89" ry="18"/>
<text text-anchor="middle" x="1811" y="-230.3" font-family="Times,serif" font-size="14.00">unlock_rewards</text>
</g>
<!-- vesting::unlock_rewards&#45;&gt;unlock_rewards -->
<g id="edge24" class="edge">
<title>vesting::unlock_rewards&#45;&gt;unlock_rewards</title>
<path fill="none" stroke="black" d="M1843.55,-217.81C1865.46,-207.58 1894.59,-193.99 1918.36,-182.9"/>
<polygon fill="black" stroke="black" points="1919.56,-186.2 1927.14,-178.8 1916.6,-179.86 1919.56,-186.2"/>
</g>
<!-- vesting::unlock_stake -->
<g id="node22" class="node">
<title>vesting::unlock_stake</title>
<ellipse fill="none" stroke="black" cx="1669" cy="-234" rx="57.39" ry="18"/>
<text text-anchor="middle" x="1669" y="-230.3" font-family="Times,serif" font-size="14.00">unlock_stake</text>
</g>
<!-- vesting::unlock_stake&#45;&gt;unlock_stake -->
<g id="edge26" class="edge">
<title>vesting::unlock_stake&#45;&gt;unlock_stake</title>
<path fill="none" stroke="black" d="M1669,-215.59C1669,-191.61 1669,-148.14 1669,-119.42"/>
<polygon fill="black" stroke="black" points="1672.5,-119.62 1669,-109.62 1665.5,-119.62 1672.5,-119.62"/>
</g>
<!-- vesting::update_voter -->
<g id="node23" class="node">
<title>vesting::update_voter</title>
<ellipse fill="none" stroke="black" cx="1821" cy="-306" rx="56.59" ry="18"/>
<text text-anchor="middle" x="1821" y="-302.3" font-family="Times,serif" font-size="14.00">update_voter</text>
</g>
<!-- vesting::update_voter&#45;&gt;update_voter -->
<g id="edge27" class="edge">
<title>vesting::update_voter&#45;&gt;update_voter</title>
<path fill="none" stroke="black" d="M1849.1,-289.98C1868.01,-279.88 1893.17,-266.43 1913.88,-255.37"/>
<polygon fill="black" stroke="black" points="1915.44,-258.51 1922.61,-250.71 1912.14,-252.33 1915.44,-258.51"/>
</g>
<!-- staking_proxy::set_staking_contract_voter -->
<g id="node24" class="node">
<title>staking_proxy::set_staking_contract_voter</title>
<ellipse fill="none" stroke="black" cx="1650" cy="-389" rx="105.08" ry="18"/>
<text text-anchor="middle" x="1650" y="-385.3" font-family="Times,serif" font-size="14.00">set_staking_contract_voter</text>
</g>
<!-- staking_proxy::set_staking_contract_voter&#45;&gt;update_voter -->
<g id="edge28" class="edge">
<title>staking_proxy::set_staking_contract_voter&#45;&gt;update_voter</title>
<path fill="none" stroke="black" d="M1750.33,-383.4C1805.66,-379.11 1867.59,-370.84 1890,-355 1920.83,-333.21 1937.4,-291.36 1945.46,-263.31"/>
<polygon fill="black" stroke="black" points="1948.83,-264.25 1948.02,-253.69 1942.07,-262.45 1948.83,-264.25"/>
</g>
<!-- staking_proxy::set_operator -->
<g id="node25" class="node">
<title>staking_proxy::set_operator</title>
<ellipse fill="none" stroke="black" cx="1055" cy="-461" rx="53.89" ry="18"/>
<text text-anchor="middle" x="1055" y="-457.3" font-family="Times,serif" font-size="14.00">set_operator</text>
</g>
<!-- staking_proxy::set_operator&#45;&gt;staking_proxy::set_staking_contract_operator -->
<g id="edge29" class="edge">
<title>staking_proxy::set_operator&#45;&gt;staking_proxy::set_staking_contract_operator</title>
<path fill="none" stroke="black" d="M1028.18,-444.98C1011.16,-435.45 988.82,-422.94 969.75,-412.26"/>
<polygon fill="black" stroke="black" points="971.59,-409.28 961.16,-407.45 968.17,-415.39 971.59,-409.28"/>
</g>
<!-- staking_proxy::set_vesting_contract_operator -->
<g id="node30" class="node">
<title>staking_proxy::set_vesting_contract_operator</title>
<ellipse fill="none" stroke="black" cx="1181" cy="-389" rx="116.18" ry="18"/>
<text text-anchor="middle" x="1181" y="-385.3" font-family="Times,serif" font-size="14.00">set_vesting_contract_operator</text>
</g>
<!-- staking_proxy::set_operator&#45;&gt;staking_proxy::set_vesting_contract_operator -->
<g id="edge43" class="edge">
<title>staking_proxy::set_operator&#45;&gt;staking_proxy::set_vesting_contract_operator</title>
<path fill="none" stroke="black" d="M1082.03,-444.98C1099.19,-435.45 1121.71,-422.94 1140.93,-412.26"/>
<polygon fill="black" stroke="black" points="1142.56,-415.36 1149.6,-407.44 1139.16,-409.24 1142.56,-415.36"/>
</g>
<!-- vesting::distribute -->
<g id="node26" class="node">
<title>vesting::distribute</title>
<ellipse fill="none" stroke="black" cx="1390" cy="-234" rx="44.39" ry="18"/>
<text text-anchor="middle" x="1390" y="-230.3" font-family="Times,serif" font-size="14.00">distribute</text>
</g>
<!-- vesting::distribute&#45;&gt;vesting::withdraw_stake -->
<g id="edge30" class="edge">
<title>vesting::distribute&#45;&gt;vesting::withdraw_stake</title>
<path fill="none" stroke="black" d="M1416.28,-219.17C1435.49,-209.06 1461.88,-195.17 1483.61,-183.73"/>
<polygon fill="black" stroke="black" points="1484.98,-186.97 1492.2,-179.21 1481.72,-180.77 1484.98,-186.97"/>
</g>
<!-- vesting::admin_withdraw -->
<g id="node27" class="node">
<title>vesting::admin_withdraw</title>
<ellipse fill="none" stroke="black" cx="1523" cy="-234" rx="70.69" ry="18"/>
<text text-anchor="middle" x="1523" y="-230.3" font-family="Times,serif" font-size="14.00">admin_withdraw</text>
</g>
<!-- vesting::admin_withdraw&#45;&gt;vesting::withdraw_stake -->
<g id="edge31" class="edge">
<title>vesting::admin_withdraw&#45;&gt;vesting::withdraw_stake</title>
<path fill="none" stroke="black" d="M1523,-215.7C1523,-208.41 1523,-199.73 1523,-191.54"/>
<polygon fill="black" stroke="black" points="1526.5,-191.62 1523,-181.62 1519.5,-191.62 1526.5,-191.62"/>
</g>
<!-- genesis::create_initialize_validators_with_commission -->
<g id="node28" class="node">
<title>genesis::create_initialize_validators_with_commission</title>
<ellipse fill="none" stroke="black" cx="232" cy="-234" rx="173.57" ry="18"/>
<text text-anchor="middle" x="232" y="-230.3" font-family="Times,serif" font-size="14.00">create_initialize_validators_with_commission</text>
</g>
<!-- genesis::create_initialize_validators_with_commission&#45;&gt;genesis::create_initialize_validator -->
<g id="edge32" class="edge">
<title>genesis::create_initialize_validators_with_commission&#45;&gt;genesis::create_initialize_validator</title>
<path fill="none" stroke="black" d="M232,-215.7C232,-208.41 232,-199.73 232,-191.54"/>
<polygon fill="black" stroke="black" points="235.5,-191.62 232,-181.62 228.5,-191.62 235.5,-191.62"/>
</g>
<!-- vesting::update_operator_with_same_commission -->
<g id="node29" class="node">
<title>vesting::update_operator_with_same_commission</title>
<ellipse fill="none" stroke="black" cx="1284" cy="-306" rx="158.67" ry="18"/>
<text text-anchor="middle" x="1284" y="-302.3" font-family="Times,serif" font-size="14.00">update_operator_with_same_commission</text>
</g>
<!-- vesting::update_operator_with_same_commission&#45;&gt;vesting::update_operator -->
<g id="edge33" class="edge">
<title>vesting::update_operator_with_same_commission&#45;&gt;vesting::update_operator</title>
<path fill="none" stroke="black" d="M1278.07,-287.7C1275.51,-280.24 1272.45,-271.32 1269.59,-262.97"/>
<polygon fill="black" stroke="black" points="1272.91,-261.86 1266.36,-253.54 1266.29,-264.13 1272.91,-261.86"/>
</g>
<!-- staking_proxy::set_vesting_contract_operator&#45;&gt;vesting::update_operator -->
<g id="edge34" class="edge">
<title>staking_proxy::set_vesting_contract_operator&#45;&gt;vesting::update_operator</title>
<path fill="none" stroke="black" d="M1114.8,-373.85C1095.57,-370.01 1074.5,-366.08 1055,-363 1039.97,-360.63 997.11,-366.37 987,-355 967.21,-332.75 968.06,-310.98 987,-288 1011.42,-258.39 1110.81,-245.11 1182.63,-239.31"/>
<polygon fill="black" stroke="black" points="1182.69,-242.81 1192.39,-238.55 1182.15,-235.83 1182.69,-242.81"/>
</g>
<!-- vesting::vest -->
<g id="node31" class="node">
<title>vesting::vest</title>
<ellipse fill="none" stroke="black" cx="1719" cy="-306" rx="27" ry="18"/>
<text text-anchor="middle" x="1719" y="-302.3" font-family="Times,serif" font-size="14.00">vest</text>
</g>
<!-- vesting::vest&#45;&gt;vesting::unlock_rewards -->
<g id="edge35" class="edge">
<title>vesting::vest&#45;&gt;vesting::unlock_rewards</title>
<path fill="none" stroke="black" d="M1736.3,-291.83C1748.8,-282.32 1766.01,-269.23 1780.76,-258.01"/>
<polygon fill="black" stroke="black" points="1782.52,-261.07 1788.36,-252.23 1778.28,-255.5 1782.52,-261.07"/>
</g>
<!-- vesting::vest&#45;&gt;vesting::unlock_stake -->
<g id="edge37" class="edge">
<title>vesting::vest&#45;&gt;vesting::unlock_stake</title>
<path fill="none" stroke="black" d="M1707.9,-289.46C1701.95,-281.13 1694.45,-270.63 1687.63,-261.08"/>
<polygon fill="black" stroke="black" points="1690.66,-259.3 1682,-253.19 1684.96,-263.37 1690.66,-259.3"/>
</g>
<!-- vesting::terminate_vesting_contract -->
<g id="node32" class="node">
<title>vesting::terminate_vesting_contract</title>
<ellipse fill="none" stroke="black" cx="1567" cy="-306" rx="106.68" ry="18"/>
<text text-anchor="middle" x="1567" y="-302.3" font-family="Times,serif" font-size="14.00">terminate_vesting_contract</text>
</g>
<!-- vesting::terminate_vesting_contract&#45;&gt;vesting::unlock_stake -->
<g id="edge36" class="edge">
<title>vesting::terminate_vesting_contract&#45;&gt;vesting::unlock_stake</title>
<path fill="none" stroke="black" d="M1591.69,-288.05C1605.23,-278.76 1622.18,-267.13 1636.76,-257.13"/>
<polygon fill="black" stroke="black" points="1638.42,-260.23 1644.69,-251.69 1634.46,-254.46 1638.42,-260.23"/>
</g>
<!-- vesting::terminate_vesting_contract&#45;&gt;vesting::distribute -->
<g id="edge40" class="edge">
<title>vesting::terminate_vesting_contract&#45;&gt;vesting::distribute</title>
<path fill="none" stroke="black" d="M1526.39,-288.94C1497.98,-277.7 1460.13,-262.74 1431.51,-251.42"/>
<polygon fill="black" stroke="black" points="1433.03,-248.25 1422.45,-247.83 1430.46,-254.76 1433.03,-248.25"/>
</g>
<!-- staking_proxy::set_vesting_contract_voter -->
<g id="node33" class="node">
<title>staking_proxy::set_vesting_contract_voter</title>
<ellipse fill="none" stroke="black" cx="1421" cy="-389" rx="105.08" ry="18"/>
<text text-anchor="middle" x="1421" y="-385.3" font-family="Times,serif" font-size="14.00">set_vesting_contract_voter</text>
</g>
<!-- staking_proxy::set_vesting_contract_voter&#45;&gt;vesting::update_voter -->
<g id="edge38" class="edge">
<title>staking_proxy::set_vesting_contract_voter&#45;&gt;vesting::update_voter</title>
<path fill="none" stroke="black" d="M1477.98,-373.52C1496.38,-369.41 1516.94,-365.4 1536,-363 1584.32,-356.91 1708.97,-370.9 1755,-355 1769.79,-349.89 1784.11,-340.25 1795.61,-330.94"/>
<polygon fill="black" stroke="black" points="1797.68,-333.78 1803.02,-324.63 1793.14,-328.45 1797.68,-333.78"/>
</g>
<!-- staking_proxy::set_voter -->
<g id="node34" class="node">
<title>staking_proxy::set_voter</title>
<ellipse fill="none" stroke="black" cx="1535" cy="-461" rx="42.79" ry="18"/>
<text text-anchor="middle" x="1535" y="-457.3" font-family="Times,serif" font-size="14.00">set_voter</text>
</g>
<!-- staking_proxy::set_voter&#45;&gt;staking_proxy::set_staking_contract_voter -->
<g id="edge39" class="edge">
<title>staking_proxy::set_voter&#45;&gt;staking_proxy::set_staking_contract_voter</title>
<path fill="none" stroke="black" d="M1558.55,-445.67C1574.18,-436.15 1595.04,-423.45 1612.88,-412.59"/>
<polygon fill="black" stroke="black" points="1614.42,-415.75 1621.14,-407.57 1610.78,-409.78 1614.42,-415.75"/>
</g>
<!-- staking_proxy::set_voter&#45;&gt;staking_proxy::set_vesting_contract_voter -->
<g id="edge44" class="edge">
<title>staking_proxy::set_voter&#45;&gt;staking_proxy::set_vesting_contract_voter</title>
<path fill="none" stroke="black" d="M1511.66,-445.67C1496.16,-436.15 1475.48,-423.45 1457.79,-412.59"/>
<polygon fill="black" stroke="black" points="1459.97,-409.82 1449.61,-407.57 1456.31,-415.79 1459.97,-409.82"/>
</g>
<!-- genesis::initialize_for_verification -->
<g id="node35" class="node">
<title>genesis::initialize_for_verification</title>
<ellipse fill="none" stroke="black" cx="347" cy="-306" rx="100.98" ry="18"/>
<text text-anchor="middle" x="347" y="-302.3" font-family="Times,serif" font-size="14.00">initialize_for_verification</text>
</g>
<!-- genesis::initialize_for_verification&#45;&gt;genesis::create_initialize_validators_with_commission -->
<g id="edge41" class="edge">
<title>genesis::initialize_for_verification&#45;&gt;genesis::create_initialize_validators_with_commission</title>
<path fill="none" stroke="black" d="M319.45,-288.23C304.6,-279.19 286.04,-267.89 269.84,-258.03"/>
<polygon fill="black" stroke="black" points="271.77,-255.11 261.41,-252.9 268.13,-261.09 271.77,-255.11"/>
</g>
<!-- genesis::create_initialize_validators -->
<g id="node36" class="node">
<title>genesis::create_initialize_validators</title>
<ellipse fill="none" stroke="black" cx="122" cy="-306" rx="105.88" ry="18"/>
<text text-anchor="middle" x="122" y="-302.3" font-family="Times,serif" font-size="14.00">create_initialize_validators</text>
</g>
<!-- genesis::create_initialize_validators&#45;&gt;genesis::create_initialize_validators_with_commission -->
<g id="edge42" class="edge">
<title>genesis::create_initialize_validators&#45;&gt;genesis::create_initialize_validators_with_commission</title>
<path fill="none" stroke="black" d="M148.35,-288.23C162.56,-279.19 180.31,-267.89 195.8,-258.03"/>
<polygon fill="black" stroke="black" points="197.27,-261.25 203.83,-252.93 193.51,-255.34 197.27,-261.25"/>
</g>
</g>
</svg>
