<?xml version="1.0" encoding="UTF-8" standalone="no"?>
<!DOCTYPE svg PUBLIC "-//W3C//DTD SVG 1.1//EN"
 "http://www.w3.org/Graphics/SVG/1.1/DTD/svg11.dtd">
<!-- Generated by graphviz version 7.0.4 (20221203.1631)
 -->
<!-- Title: G Pages: 1 -->
<svg width="717pt" height="332pt"
 viewBox="0.00 0.00 717.43 332.00" xmlns="http://www.w3.org/2000/svg" xmlns:xlink="http://www.w3.org/1999/xlink">
<g id="graph0" class="graph" transform="scale(1 1) rotate(0) translate(4 328)">
<title>G</title>
<polygon fill="white" stroke="none" points="-4,4 -4,-328 713.43,-328 713.43,4 -4,4"/>
<!-- state_storage -->
<g id="node1" class="node">
<title>state_storage</title>
<ellipse fill="none" stroke="black" cx="646.58" cy="-18" rx="56.59" ry="18"/>
<text text-anchor="middle" x="646.58" y="-14.3" font-family="Times,serif" font-size="14.00">state_storage</text>
</g>
<!-- storage_gas -->
<g id="node2" class="node">
<title>storage_gas</title>
<ellipse fill="none" stroke="black" cx="173.58" cy="-90" rx="51.99" ry="18"/>
<text text-anchor="middle" x="173.58" y="-86.3" font-family="Times,serif" font-size="14.00">storage_gas</text>
</g>
<!-- storage_gas&#45;&gt;state_storage -->
<g id="edge1" class="edge">
<title>storage_gas&#45;&gt;state_storage</title>
<path fill="none" stroke="black" d="M220.66,-82.03C306.66,-69.3 489.1,-42.31 584.89,-28.13"/>
<polygon fill="black" stroke="black" points="585.26,-31.61 594.64,-26.69 584.23,-24.69 585.26,-31.61"/>
</g>
<!-- block -->
<g id="node3" class="node">
<title>block</title>
<ellipse fill="none" stroke="black" cx="646.58" cy="-234" rx="30.59" ry="18"/>
<text text-anchor="middle" x="646.58" y="-230.3" font-family="Times,serif" font-size="14.00">block</text>
</g>
<!-- block&#45;&gt;state_storage -->
<g id="edge2" class="edge">
<title>block&#45;&gt;state_storage</title>
<path fill="none" stroke="black" d="M646.58,-215.85C646.58,-179.14 646.58,-92.66 646.58,-47.53"/>
<polygon fill="black" stroke="black" points="650.08,-47.75 646.58,-37.75 643.08,-47.75 650.08,-47.75"/>
</g>
<!-- reconfiguration -->
<g id="node5" class="node">
<title>reconfiguration</title>
<ellipse fill="none" stroke="black" cx="267.58" cy="-162" rx="64.99" ry="18"/>
<text text-anchor="middle" x="267.58" y="-158.3" font-family="Times,serif" font-size="14.00">reconfiguration</text>
</g>
<!-- block&#45;&gt;reconfiguration -->
<g id="edge9" class="edge">
<title>block&#45;&gt;reconfiguration</title>
<path fill="none" stroke="black" d="M623.24,-221.94C617.86,-219.72 612.09,-217.58 606.58,-216 516.79,-190.33 409.84,-176.22 340.42,-169.14"/>
<polygon fill="black" stroke="black" points="340.99,-165.68 330.69,-168.18 340.29,-172.65 340.99,-165.68"/>
</g>
<!-- genesis -->
<g id="node4" class="node">
<title>genesis</title>
<ellipse fill="none" stroke="black" cx="350.58" cy="-306" rx="36.29" ry="18"/>
<text text-anchor="middle" x="350.58" y="-302.3" font-family="Times,serif" font-size="14.00">genesis</text>
</g>
<!-- genesis&#45;&gt;state_storage -->
<g id="edge3" class="edge">
<title>genesis&#45;&gt;state_storage</title>
<path fill="none" stroke="black" d="M387.16,-304.93C466.09,-303.94 648.35,-296.73 686.58,-252 737.15,-192.83 690.84,-93.45 663.43,-45.91"/>
<polygon fill="black" stroke="black" points="666.47,-44.18 658.36,-37.36 660.45,-47.75 666.47,-44.18"/>
</g>
<!-- genesis&#45;&gt;storage_gas -->
<g id="edge6" class="edge">
<title>genesis&#45;&gt;storage_gas</title>
<path fill="none" stroke="black" d="M314.08,-304.97C234.85,-304.06 51.09,-297.02 12.58,-252 -34.55,-196.91 68.47,-138.13 130.7,-109.21"/>
<polygon fill="black" stroke="black" points="132.02,-112.46 139.67,-105.13 129.12,-106.09 132.02,-112.46"/>
</g>
<!-- genesis&#45;&gt;block -->
<g id="edge7" class="edge">
<title>genesis&#45;&gt;block</title>
<path fill="none" stroke="black" d="M385.08,-300.08C434.77,-292.5 529.04,-276.24 606.58,-252 608.54,-251.39 610.55,-250.71 612.56,-249.99"/>
<polygon fill="black" stroke="black" points="613.72,-253.29 621.77,-246.41 611.18,-246.77 613.72,-253.29"/>
</g>
<!-- genesis&#45;&gt;reconfiguration -->
<g id="edge13" class="edge">
<title>genesis&#45;&gt;reconfiguration</title>
<path fill="none" stroke="black" d="M314.08,-304.97C274.84,-302.74 214.11,-292.43 184.58,-252 175.14,-239.08 176.89,-230.03 184.58,-216 192.44,-201.64 206.04,-190.61 219.98,-182.42"/>
<polygon fill="black" stroke="black" points="221.64,-185.51 228.78,-177.68 218.31,-179.35 221.64,-185.51"/>
</g>
<!-- gas_schedule -->
<g id="node6" class="node">
<title>gas_schedule</title>
<ellipse fill="none" stroke="black" cx="79.58" cy="-234" rx="57.69" ry="18"/>
<text text-anchor="middle" x="79.58" y="-230.3" font-family="Times,serif" font-size="14.00">gas_schedule</text>
</g>
<!-- genesis&#45;&gt;gas_schedule -->
<g id="edge14" class="edge">
<title>genesis&#45;&gt;gas_schedule</title>
<path fill="none" stroke="black" d="M318.96,-296.83C273.63,-285.13 189.55,-263.41 134.08,-249.08"/>
<polygon fill="black" stroke="black" points="135.07,-245.72 124.51,-246.61 133.31,-252.5 135.07,-245.72"/>
</g>
<!-- aptos_governance -->
<g id="node7" class="node">
<title>aptos_governance</title>
<ellipse fill="none" stroke="black" cx="267.58" cy="-234" rx="74.19" ry="18"/>
<text text-anchor="middle" x="267.58" y="-230.3" font-family="Times,serif" font-size="14.00">aptos_governance</text>
</g>
<!-- genesis&#45;&gt;aptos_governance -->
<g id="edge15" class="edge">
<title>genesis&#45;&gt;aptos_governance</title>
<path fill="none" stroke="black" d="M332.98,-290.15C322.25,-281.11 308.3,-269.35 296.04,-259.01"/>
<polygon fill="black" stroke="black" points="298.54,-256.54 288.64,-252.76 294.03,-261.89 298.54,-256.54"/>
</g>
<!-- consensus_config -->
<g id="node8" class="node">
<title>consensus_config</title>
<ellipse fill="none" stroke="black" cx="433.58" cy="-234" rx="73.39" ry="18"/>
<text text-anchor="middle" x="433.58" y="-230.3" font-family="Times,serif" font-size="14.00">consensus_config</text>
</g>
<!-- genesis&#45;&gt;consensus_config -->
<g id="edge16" class="edge">
<title>genesis&#45;&gt;consensus_config</title>
<path fill="none" stroke="black" d="M368.18,-290.15C378.9,-281.11 392.85,-269.35 405.11,-259.01"/>
<polygon fill="black" stroke="black" points="407.13,-261.89 412.51,-252.76 402.61,-256.54 407.13,-261.89"/>
</g>
<!-- version -->
<g id="node9" class="node">
<title>version</title>
<ellipse fill="none" stroke="black" cx="561.58" cy="-234" rx="36.29" ry="18"/>
<text text-anchor="middle" x="561.58" y="-230.3" font-family="Times,serif" font-size="14.00">version</text>
</g>
<!-- genesis&#45;&gt;version -->
<g id="edge17" class="edge">
<title>genesis&#45;&gt;version</title>
<path fill="none" stroke="black" d="M380.82,-295.72C414,-285.43 468.79,-268.15 515.58,-252 517.93,-251.19 520.35,-250.34 522.78,-249.47"/>
<polygon fill="black" stroke="black" points="523.79,-252.83 532,-246.14 521.41,-246.25 523.79,-252.83"/>
</g>
<!-- reconfiguration&#45;&gt;storage_gas -->
<g id="edge4" class="edge">
<title>reconfiguration&#45;&gt;storage_gas</title>
<path fill="none" stroke="black" d="M245.78,-144.76C233.26,-135.45 217.36,-123.61 203.67,-113.41"/>
<polygon fill="black" stroke="black" points="205.94,-110.74 195.83,-107.57 201.76,-116.35 205.94,-110.74"/>
</g>
<!-- gas_schedule&#45;&gt;storage_gas -->
<g id="edge5" class="edge">
<title>gas_schedule&#45;&gt;storage_gas</title>
<path fill="none" stroke="black" d="M90.92,-215.87C107.17,-191.33 137.21,-145.94 156.25,-117.17"/>
<polygon fill="black" stroke="black" points="159.05,-119.28 161.66,-109.01 153.22,-115.42 159.05,-119.28"/>
</g>
<!-- gas_schedule&#45;&gt;reconfiguration -->
<g id="edge11" class="edge">
<title>gas_schedule&#45;&gt;reconfiguration</title>
<path fill="none" stroke="black" d="M115.38,-219.67C144.86,-208.69 186.93,-193.03 219.37,-180.95"/>
<polygon fill="black" stroke="black" points="220.41,-184.3 228.56,-177.53 217.96,-177.74 220.41,-184.3"/>
</g>
<!-- aptos_governance&#45;&gt;reconfiguration -->
<g id="edge8" class="edge">
<title>aptos_governance&#45;&gt;reconfiguration</title>
<path fill="none" stroke="black" d="M267.58,-215.7C267.58,-208.41 267.58,-199.73 267.58,-191.54"/>
<polygon fill="black" stroke="black" points="271.08,-191.62 267.58,-181.62 264.08,-191.62 271.08,-191.62"/>
</g>
<!-- consensus_config&#45;&gt;reconfiguration -->
<g id="edge10" class="edge">
<title>consensus_config&#45;&gt;reconfiguration</title>
<path fill="none" stroke="black" d="M397.97,-217.98C372.99,-207.45 339.4,-193.29 312.57,-181.97"/>
<polygon fill="black" stroke="black" points="314.25,-178.88 303.67,-178.22 311.53,-185.33 314.25,-178.88"/>
</g>
<!-- version&#45;&gt;reconfiguration -->
<g id="edge12" class="edge">
<title>version&#45;&gt;reconfiguration</title>
<path fill="none" stroke="black" d="M534.06,-222.1C528.03,-219.92 521.63,-217.75 515.58,-216 454.45,-198.27 383.27,-183.66 332.89,-174.31"/>
<polygon fill="black" stroke="black" points="333.79,-170.91 323.32,-172.55 332.52,-177.8 333.79,-170.91"/>
</g>
</g>
</svg>
