<?xml version="1.0" encoding="UTF-8" standalone="no"?>
<!DOCTYPE svg PUBLIC "-//W3C//DTD SVG 1.1//EN"
 "http://www.w3.org/Graphics/SVG/1.1/DTD/svg11.dtd">
<!-- Generated by graphviz version 7.0.4 (20221203.1631)
 -->
<!-- Title: G Pages: 1 -->
<svg width="520pt" height="207pt"
 viewBox="0.00 0.00 519.73 207.00" xmlns="http://www.w3.org/2000/svg" xmlns:xlink="http://www.w3.org/1999/xlink">
<g id="graph0" class="graph" transform="scale(1 1) rotate(0) translate(4 203)">
<title>G</title>
<polygon fill="white" stroke="none" points="-4,4 -4,-203 515.73,-203 515.73,4 -4,4"/>
<g id="clust1" class="cluster">
<title>cluster_error</title>
<polygon fill="none" stroke="black" points="8,-8 8,-155 118,-155 118,-8 8,-8"/>
<text text-anchor="middle" x="63" y="-139.8" font-family="Times,serif" font-size="14.00">error</text>
</g>
<!-- on_new_block -->
<g id="node1" class="node">
<title>on_new_block</title>
<ellipse fill="none" stroke="black" cx="191" cy="-181" rx="62.29" ry="18"/>
<text text-anchor="middle" x="191" y="-177.3" font-family="Times,serif" font-size="14.00">on_new_block</text>
</g>
<!-- error::not_found -->
<g id="node2" class="node">
<title>error::not_found</title>
<ellipse fill="none" stroke="black" cx="63" cy="-106" rx="46.59" ry="18"/>
<text text-anchor="middle" x="63" y="-102.3" font-family="Times,serif" font-size="14.00">not_found</text>
</g>
<!-- on_new_block&#45;&gt;error::not_found -->
<g id="edge1" class="edge">
<title>on_new_block&#45;&gt;error::not_found</title>
<path fill="none" stroke="black" d="M147.58,-167.87C137.87,-164.36 127.83,-160.08 119,-155 107.56,-148.43 96.25,-139.37 86.83,-130.89"/>
<polygon fill="black" stroke="black" points="89.23,-128.34 79.53,-124.07 84.45,-133.45 89.23,-128.34"/>
</g>
<!-- get_state_storage_usage_only_at_epoch_beginning -->
<g id="node3" class="node">
<title>get_state_storage_usage_only_at_epoch_beginning</title>
<ellipse fill="none" stroke="black" cx="320" cy="-106" rx="191.97" ry="18"/>
<text text-anchor="middle" x="320" y="-102.3" font-family="Times,serif" font-size="14.00">get_state_storage_usage_only_at_epoch_beginning</text>
</g>
<!-- on_new_block&#45;&gt;get_state_storage_usage_only_at_epoch_beginning -->
<g id="edge2" class="edge">
<title>on_new_block&#45;&gt;get_state_storage_usage_only_at_epoch_beginning</title>
<path fill="none" stroke="black" d="M218.36,-164.52C236.2,-154.42 259.79,-141.07 279.76,-129.77"/>
<polygon fill="black" stroke="black" points="281.22,-132.96 288.2,-124.99 277.78,-126.87 281.22,-132.96"/>
</g>
<!-- error::canonical -->
<g id="node4" class="node">
<title>error::canonical</title>
<ellipse fill="none" stroke="black" cx="63" cy="-34" rx="44.39" ry="18"/>
<text text-anchor="middle" x="63" y="-30.3" font-family="Times,serif" font-size="14.00">canonical</text>
</g>
<!-- error::not_found&#45;&gt;error::canonical -->
<g id="edge3" class="edge">
<title>error::not_found&#45;&gt;error::canonical</title>
<path fill="none" stroke="black" d="M63,-87.7C63,-80.41 63,-71.73 63,-63.54"/>
<polygon fill="black" stroke="black" points="66.5,-63.62 63,-53.62 59.5,-63.62 66.5,-63.62"/>
</g>
</g>
</svg>
