<?xml version="1.0" encoding="UTF-8" standalone="no"?>
<!DOCTYPE svg PUBLIC "-//W3C//DTD SVG 1.1//EN"
 "http://www.w3.org/Graphics/SVG/1.1/DTD/svg11.dtd">
<!-- Generated by graphviz version 7.0.4 (20221203.1631)
 -->
<!-- Title: G Pages: 1 -->
<svg width="207pt" height="207pt"
 viewBox="0.00 0.00 206.88 207.00" xmlns="http://www.w3.org/2000/svg" xmlns:xlink="http://www.w3.org/1999/xlink">
<g id="graph0" class="graph" transform="scale(1 1) rotate(0) translate(4 203)">
<title>G</title>
<polygon fill="white" stroke="none" points="-4,4 -4,-203 202.88,-203 202.88,4 -4,4"/>
<g id="clust1" class="cluster">
<title>cluster_error</title>
<polygon fill="none" stroke="black" points="44.44,-8 44.44,-155 154.44,-155 154.44,-8 44.44,-8"/>
<text text-anchor="middle" x="99.44" y="-139.8" font-family="Times,serif" font-size="14.00">error</text>
</g>
<!-- current_items_and_bytes -->
<g id="node1" class="node">
<title>current_items_and_bytes</title>
<ellipse fill="none" stroke="black" cx="99.44" cy="-181" rx="99.38" ry="18"/>
<text text-anchor="middle" x="99.44" y="-177.3" font-family="Times,serif" font-size="14.00">current_items_and_bytes</text>
</g>
<!-- error::not_found -->
<g id="node2" class="node">
<title>error::not_found</title>
<ellipse fill="none" stroke="black" cx="99.44" cy="-106" rx="46.59" ry="18"/>
<text text-anchor="middle" x="99.44" y="-102.3" font-family="Times,serif" font-size="14.00">not_found</text>
</g>
<!-- current_items_and_bytes&#45;&gt;error::not_found -->
<g id="edge1" class="edge">
<title>current_items_and_bytes&#45;&gt;error::not_found</title>
<path fill="none" stroke="black" d="M99.44,-162.7C99.44,-154.67 99.44,-144.9 99.44,-135.8"/>
<polygon fill="black" stroke="black" points="102.94,-135.94 99.44,-125.94 95.94,-135.94 102.94,-135.94"/>
</g>
<!-- error::canonical -->
<g id="node3" class="node">
<title>error::canonical</title>
<ellipse fill="none" stroke="black" cx="99.44" cy="-34" rx="44.39" ry="18"/>
<text text-anchor="middle" x="99.44" y="-30.3" font-family="Times,serif" font-size="14.00">canonical</text>
</g>
<!-- error::not_found&#45;&gt;error::canonical -->
<g id="edge2" class="edge">
<title>error::not_found&#45;&gt;error::canonical</title>
<path fill="none" stroke="black" d="M99.44,-87.7C99.44,-80.41 99.44,-71.73 99.44,-63.54"/>
<polygon fill="black" stroke="black" points="102.94,-63.62 99.44,-53.62 95.94,-63.62 102.94,-63.62"/>
</g>
</g>
</svg>
