<?xml version="1.0" encoding="UTF-8" standalone="no"?>
<!DOCTYPE svg PUBLIC "-//W3C//DTD SVG 1.1//EN"
 "http://www.w3.org/Graphics/SVG/1.1/DTD/svg11.dtd">
<!-- Generated by graphviz version 7.0.4 (20221203.1631)
 -->
<!-- Title: G Pages: 1 -->
<svg width="391pt" height="227pt"
 viewBox="0.00 0.00 391.47 227.00" xmlns="http://www.w3.org/2000/svg" xmlns:xlink="http://www.w3.org/1999/xlink">
<g id="graph0" class="graph" transform="scale(1 1) rotate(0) translate(4 223)">
<title>G</title>
<polygon fill="white" stroke="none" points="-4,4 -4,-223 387.47,-223 387.47,4 -4,4"/>
<g id="clust1" class="cluster">
<title>cluster_block</title>
<polygon fill="none" stroke="black" points="117.73,-136 117.73,-211 265.73,-211 265.73,-136 117.73,-136"/>
<text text-anchor="middle" x="191.73" y="-195.8" font-family="Times,serif" font-size="14.00">block</text>
</g>
<!-- get_state_storage_usage_only_at_epoch_beginning -->
<g id="node1" class="node">
<title>get_state_storage_usage_only_at_epoch_beginning</title>
<ellipse fill="none" stroke="black" cx="191.73" cy="-18" rx="191.97" ry="18"/>
<text text-anchor="middle" x="191.73" y="-14.3" font-family="Times,serif" font-size="14.00">get_state_storage_usage_only_at_epoch_beginning</text>
</g>
<!-- on_new_block -->
<g id="node2" class="node">
<title>on_new_block</title>
<ellipse fill="none" stroke="black" cx="191.73" cy="-90" rx="62.29" ry="18"/>
<text text-anchor="middle" x="191.73" y="-86.3" font-family="Times,serif" font-size="14.00">on_new_block</text>
</g>
<!-- on_new_block&#45;&gt;get_state_storage_usage_only_at_epoch_beginning -->
<g id="edge1" class="edge">
<title>on_new_block&#45;&gt;get_state_storage_usage_only_at_epoch_beginning</title>
<path fill="none" stroke="black" d="M191.73,-71.7C191.73,-64.41 191.73,-55.73 191.73,-47.54"/>
<polygon fill="black" stroke="black" points="195.23,-47.62 191.73,-37.62 188.23,-47.62 195.23,-47.62"/>
</g>
<!-- block::block_prologue -->
<g id="node3" class="node">
<title>block::block_prologue</title>
<ellipse fill="none" stroke="black" cx="191.73" cy="-162" rx="65.79" ry="18"/>
<text text-anchor="middle" x="191.73" y="-158.3" font-family="Times,serif" font-size="14.00">block_prologue</text>
</g>
<!-- block::block_prologue&#45;&gt;on_new_block -->
<g id="edge2" class="edge">
<title>block::block_prologue&#45;&gt;on_new_block</title>
<path fill="none" stroke="black" d="M191.73,-143.7C191.73,-136.41 191.73,-127.73 191.73,-119.54"/>
<polygon fill="black" stroke="black" points="195.23,-119.62 191.73,-109.62 188.23,-119.62 195.23,-119.62"/>
</g>
</g>
</svg>
