<?xml version="1.0" encoding="UTF-8" standalone="no"?>
<!DOCTYPE svg PUBLIC "-//W3C//DTD SVG 1.1//EN"
 "http://www.w3.org/Graphics/SVG/1.1/DTD/svg11.dtd">
<!-- Generated by graphviz version 7.0.4 (20221203.1631)
 -->
<!-- Title: G Pages: 1 -->
<svg width="275pt" height="351pt"
 viewBox="0.00 0.00 275.10 351.00" xmlns="http://www.w3.org/2000/svg" xmlns:xlink="http://www.w3.org/1999/xlink">
<g id="graph0" class="graph" transform="scale(1 1) rotate(0) translate(4 347)">
<title>G</title>
<polygon fill="white" stroke="none" points="-4,4 -4,-347 271.1,-347 271.1,4 -4,4"/>
<g id="clust1" class="cluster">
<title>cluster_error</title>
<polygon fill="none" stroke="black" points="8,-8 8,-155 170,-155 170,-8 8,-8"/>
<text text-anchor="middle" x="89" y="-139.8" font-family="Times,serif" font-size="14.00">error</text>
</g>
<!-- base_8192_exponential_curve -->
<g id="node1" class="node">
<title>base_8192_exponential_curve</title>
<ellipse fill="none" stroke="black" cx="136" cy="-325" rx="117.78" ry="18"/>
<text text-anchor="middle" x="136" y="-321.3" font-family="Times,serif" font-size="14.00">base_8192_exponential_curve</text>
</g>
<!-- new_gas_curve -->
<g id="node2" class="node">
<title>new_gas_curve</title>
<ellipse fill="none" stroke="black" cx="89" cy="-253" rx="65.79" ry="18"/>
<text text-anchor="middle" x="89" y="-249.3" font-family="Times,serif" font-size="14.00">new_gas_curve</text>
</g>
<!-- base_8192_exponential_curve&#45;&gt;new_gas_curve -->
<g id="edge1" class="edge">
<title>base_8192_exponential_curve&#45;&gt;new_gas_curve</title>
<path fill="none" stroke="black" d="M124.38,-306.7C119.09,-298.81 112.7,-289.3 106.82,-280.55"/>
<polygon fill="black" stroke="black" points="109.81,-278.71 101.33,-272.36 104,-282.61 109.81,-278.71"/>
</g>
<!-- new_point -->
<g id="node3" class="node">
<title>new_point</title>
<ellipse fill="none" stroke="black" cx="219" cy="-181" rx="48.19" ry="18"/>
<text text-anchor="middle" x="219" y="-177.3" font-family="Times,serif" font-size="14.00">new_point</text>
</g>
<!-- base_8192_exponential_curve&#45;&gt;new_point -->
<g id="edge2" class="edge">
<title>base_8192_exponential_curve&#45;&gt;new_point</title>
<path fill="none" stroke="black" d="M146.18,-306.59C160.52,-282.05 186.79,-237.1 203.55,-208.43"/>
<polygon fill="black" stroke="black" points="206.47,-210.38 208.49,-199.98 200.42,-206.85 206.47,-210.38"/>
</g>
<!-- error::invalid_argument -->
<g id="node4" class="node">
<title>error::invalid_argument</title>
<ellipse fill="none" stroke="black" cx="89" cy="-106" rx="73.39" ry="18"/>
<text text-anchor="middle" x="89" y="-102.3" font-family="Times,serif" font-size="14.00">invalid_argument</text>
</g>
<!-- new_gas_curve&#45;&gt;error::invalid_argument -->
<g id="edge3" class="edge">
<title>new_gas_curve&#45;&gt;error::invalid_argument</title>
<path fill="none" stroke="black" d="M55.93,-236.98C40.83,-228.22 24.46,-215.6 16,-199 8.73,-184.75 8.92,-177.35 16,-163 22.87,-149.07 35.05,-137.65 47.52,-128.83"/>
<polygon fill="black" stroke="black" points="49.31,-131.84 55.76,-123.43 45.47,-125.99 49.31,-131.84"/>
</g>
<!-- validate_points -->
<g id="node5" class="node">
<title>validate_points</title>
<ellipse fill="none" stroke="black" cx="89" cy="-181" rx="64.19" ry="18"/>
<text text-anchor="middle" x="89" y="-177.3" font-family="Times,serif" font-size="14.00">validate_points</text>
</g>
<!-- new_gas_curve&#45;&gt;validate_points -->
<g id="edge4" class="edge">
<title>new_gas_curve&#45;&gt;validate_points</title>
<path fill="none" stroke="black" d="M89,-234.7C89,-227.41 89,-218.73 89,-210.54"/>
<polygon fill="black" stroke="black" points="92.5,-210.62 89,-200.62 85.5,-210.62 92.5,-210.62"/>
</g>
<!-- new_point&#45;&gt;error::invalid_argument -->
<g id="edge5" class="edge">
<title>new_point&#45;&gt;error::invalid_argument</title>
<path fill="none" stroke="black" d="M193.01,-165.4C174.16,-154.82 148.36,-140.34 127.18,-128.44"/>
<polygon fill="black" stroke="black" points="128.96,-125.42 118.52,-123.58 125.53,-131.53 128.96,-125.42"/>
</g>
<!-- error::canonical -->
<g id="node6" class="node">
<title>error::canonical</title>
<ellipse fill="none" stroke="black" cx="89" cy="-34" rx="44.39" ry="18"/>
<text text-anchor="middle" x="89" y="-30.3" font-family="Times,serif" font-size="14.00">canonical</text>
</g>
<!-- error::invalid_argument&#45;&gt;error::canonical -->
<g id="edge6" class="edge">
<title>error::invalid_argument&#45;&gt;error::canonical</title>
<path fill="none" stroke="black" d="M89,-87.7C89,-80.41 89,-71.73 89,-63.54"/>
<polygon fill="black" stroke="black" points="92.5,-63.62 89,-53.62 85.5,-63.62 92.5,-63.62"/>
</g>
<!-- validate_points&#45;&gt;error::invalid_argument -->
<g id="edge7" class="edge">
<title>validate_points&#45;&gt;error::invalid_argument</title>
<path fill="none" stroke="black" d="M89,-162.7C89,-154.67 89,-144.9 89,-135.8"/>
<polygon fill="black" stroke="black" points="92.5,-135.94 89,-125.94 85.5,-135.94 92.5,-135.94"/>
</g>
</g>
</svg>
