<?xml version="1.0" encoding="UTF-8" standalone="no"?>
<!DOCTYPE svg PUBLIC "-//W3C//DTD SVG 1.1//EN"
 "http://www.w3.org/Graphics/SVG/1.1/DTD/svg11.dtd">
<!-- Generated by graphviz version 7.0.4 (20221203.1631)
 -->
<!-- Title: G Pages: 1 -->
<svg width="915pt" height="382pt"
 viewBox="0.00 0.00 915.00 382.00" xmlns="http://www.w3.org/2000/svg" xmlns:xlink="http://www.w3.org/1999/xlink">
<g id="graph0" class="graph" transform="scale(1 1) rotate(0) translate(4 378)">
<title>G</title>
<polygon fill="white" stroke="none" points="-4,4 -4,-378 911,-378 911,4 -4,4"/>
<g id="clust1" class="cluster">
<title>cluster_reconfiguration</title>
<polygon fill="none" stroke="black" points="381,-208 381,-283 499,-283 499,-208 381,-208"/>
<text text-anchor="middle" x="440" y="-267.8" font-family="Times,serif" font-size="14.00">reconfiguration</text>
</g>
<g id="clust2" class="cluster">
<title>cluster_aptos_governance</title>
<polygon fill="none" stroke="black" points="8,-291 8,-366 126,-366 126,-291 8,-291"/>
<text text-anchor="middle" x="67" y="-350.8" font-family="Times,serif" font-size="14.00">aptos_governance</text>
</g>
<g id="clust3" class="cluster">
<title>cluster_block</title>
<polygon fill="none" stroke="black" points="134,-291 134,-366 282,-366 282,-291 134,-291"/>
<text text-anchor="middle" x="208" y="-350.8" font-family="Times,serif" font-size="14.00">block</text>
</g>
<g id="clust4" class="cluster">
<title>cluster_consensus_config</title>
<polygon fill="none" stroke="black" points="290,-291 290,-366 403,-366 403,-291 290,-291"/>
<text text-anchor="middle" x="346.5" y="-350.8" font-family="Times,serif" font-size="14.00">consensus_config</text>
</g>
<g id="clust5" class="cluster">
<title>cluster_gas_schedule</title>
<polygon fill="none" stroke="black" points="411,-291 411,-366 773,-366 773,-291 411,-291"/>
<text text-anchor="middle" x="592" y="-350.8" font-family="Times,serif" font-size="14.00">gas_schedule</text>
</g>
<g id="clust6" class="cluster">
<title>cluster_version</title>
<polygon fill="none" stroke="black" points="781,-291 781,-366 899,-366 899,-291 781,-291"/>
<text text-anchor="middle" x="840" y="-350.8" font-family="Times,serif" font-size="14.00">version</text>
</g>
<!-- calculate_gas -->
<g id="node1" class="node">
<title>calculate_gas</title>
<ellipse fill="none" stroke="black" cx="440" cy="-18" rx="57.69" ry="18"/>
<text text-anchor="middle" x="440" y="-14.3" font-family="Times,serif" font-size="14.00">calculate_gas</text>
</g>
<!-- calculate_create_gas -->
<g id="node2" class="node">
<title>calculate_create_gas</title>
<ellipse fill="none" stroke="black" cx="261" cy="-90" rx="83.39" ry="18"/>
<text text-anchor="middle" x="261" y="-86.3" font-family="Times,serif" font-size="14.00">calculate_create_gas</text>
</g>
<!-- calculate_create_gas&#45;&gt;calculate_gas -->
<g id="edge1" class="edge">
<title>calculate_create_gas&#45;&gt;calculate_gas</title>
<path fill="none" stroke="black" d="M299.84,-73.81C327.68,-62.92 365.27,-48.22 394.51,-36.79"/>
<polygon fill="black" stroke="black" points="395.43,-40.19 403.47,-33.29 392.88,-33.67 395.43,-40.19"/>
</g>
<!-- calculate_read_gas -->
<g id="node3" class="node">
<title>calculate_read_gas</title>
<ellipse fill="none" stroke="black" cx="440" cy="-90" rx="77.19" ry="18"/>
<text text-anchor="middle" x="440" y="-86.3" font-family="Times,serif" font-size="14.00">calculate_read_gas</text>
</g>
<!-- calculate_read_gas&#45;&gt;calculate_gas -->
<g id="edge2" class="edge">
<title>calculate_read_gas&#45;&gt;calculate_gas</title>
<path fill="none" stroke="black" d="M440,-71.7C440,-64.41 440,-55.73 440,-47.54"/>
<polygon fill="black" stroke="black" points="443.5,-47.62 440,-37.62 436.5,-47.62 443.5,-47.62"/>
</g>
<!-- calculate_write_gas -->
<g id="node4" class="node">
<title>calculate_write_gas</title>
<ellipse fill="none" stroke="black" cx="616" cy="-90" rx="80.69" ry="18"/>
<text text-anchor="middle" x="616" y="-86.3" font-family="Times,serif" font-size="14.00">calculate_write_gas</text>
</g>
<!-- calculate_write_gas&#45;&gt;calculate_gas -->
<g id="edge3" class="edge">
<title>calculate_write_gas&#45;&gt;calculate_gas</title>
<path fill="none" stroke="black" d="M577.81,-73.81C550.56,-62.97 513.8,-48.35 485.1,-36.94"/>
<polygon fill="black" stroke="black" points="486.53,-33.74 475.94,-33.3 483.94,-40.24 486.53,-33.74"/>
</g>
<!-- on_reconfig -->
<g id="node5" class="node">
<title>on_reconfig</title>
<ellipse fill="none" stroke="black" cx="440" cy="-162" rx="53.09" ry="18"/>
<text text-anchor="middle" x="440" y="-158.3" font-family="Times,serif" font-size="14.00">on_reconfig</text>
</g>
<!-- on_reconfig&#45;&gt;calculate_create_gas -->
<g id="edge4" class="edge">
<title>on_reconfig&#45;&gt;calculate_create_gas</title>
<path fill="none" stroke="black" d="M406.33,-147.83C379.34,-137.28 341.05,-122.31 310.56,-110.38"/>
<polygon fill="black" stroke="black" points="312.12,-107.23 301.54,-106.85 309.57,-113.75 312.12,-107.23"/>
</g>
<!-- on_reconfig&#45;&gt;calculate_read_gas -->
<g id="edge5" class="edge">
<title>on_reconfig&#45;&gt;calculate_read_gas</title>
<path fill="none" stroke="black" d="M440,-143.7C440,-136.41 440,-127.73 440,-119.54"/>
<polygon fill="black" stroke="black" points="443.5,-119.62 440,-109.62 436.5,-119.62 443.5,-119.62"/>
</g>
<!-- on_reconfig&#45;&gt;calculate_write_gas -->
<g id="edge6" class="edge">
<title>on_reconfig&#45;&gt;calculate_write_gas</title>
<path fill="none" stroke="black" d="M473.52,-147.67C499.99,-137.14 537.3,-122.3 567.1,-110.45"/>
<polygon fill="black" stroke="black" points="568.31,-113.74 576.3,-106.79 565.72,-107.23 568.31,-113.74"/>
</g>
<!-- reconfiguration::reconfigure -->
<g id="node6" class="node">
<title>reconfiguration::reconfigure</title>
<ellipse fill="none" stroke="black" cx="440" cy="-234" rx="51.19" ry="18"/>
<text text-anchor="middle" x="440" y="-230.3" font-family="Times,serif" font-size="14.00">reconfigure</text>
</g>
<!-- reconfiguration::reconfigure&#45;&gt;on_reconfig -->
<g id="edge7" class="edge">
<title>reconfiguration::reconfigure&#45;&gt;on_reconfig</title>
<path fill="none" stroke="black" d="M440,-215.7C440,-208.41 440,-199.73 440,-191.54"/>
<polygon fill="black" stroke="black" points="443.5,-191.62 440,-181.62 436.5,-191.62 443.5,-191.62"/>
</g>
<!-- aptos_governance::reconfigure -->
<g id="node7" class="node">
<title>aptos_governance::reconfigure</title>
<ellipse fill="none" stroke="black" cx="67" cy="-317" rx="51.19" ry="18"/>
<text text-anchor="middle" x="67" y="-313.3" font-family="Times,serif" font-size="14.00">reconfigure</text>
</g>
<!-- aptos_governance::reconfigure&#45;&gt;reconfiguration::reconfigure -->
<g id="edge8" class="edge">
<title>aptos_governance::reconfigure&#45;&gt;reconfiguration::reconfigure</title>
<path fill="none" stroke="black" d="M97.98,-302.29C108.05,-298.22 119.36,-294.04 130,-291 215.65,-266.54 317.78,-250.53 380.77,-242.13"/>
<polygon fill="black" stroke="black" points="381.1,-245.62 390.56,-240.84 380.19,-238.67 381.1,-245.62"/>
</g>
<!-- block::block_prologue -->
<g id="node8" class="node">
<title>block::block_prologue</title>
<ellipse fill="none" stroke="black" cx="208" cy="-317" rx="65.79" ry="18"/>
<text text-anchor="middle" x="208" y="-313.3" font-family="Times,serif" font-size="14.00">block_prologue</text>
</g>
<!-- block::block_prologue&#45;&gt;reconfiguration::reconfigure -->
<g id="edge9" class="edge">
<title>block::block_prologue&#45;&gt;reconfiguration::reconfigure</title>
<path fill="none" stroke="black" d="M247.62,-302.17C288.22,-287.99 351.28,-265.97 394.05,-251.04"/>
<polygon fill="black" stroke="black" points="395.01,-254.42 403.3,-247.82 392.7,-247.81 395.01,-254.42"/>
</g>
<!-- consensus_config::set -->
<g id="node9" class="node">
<title>consensus_config::set</title>
<ellipse fill="none" stroke="black" cx="368" cy="-317" rx="27" ry="18"/>
<text text-anchor="middle" x="368" y="-313.3" font-family="Times,serif" font-size="14.00">set</text>
</g>
<!-- consensus_config::set&#45;&gt;reconfiguration::reconfigure -->
<g id="edge10" class="edge">
<title>consensus_config::set&#45;&gt;reconfiguration::reconfigure</title>
<path fill="none" stroke="black" d="M381.21,-301.14C391.4,-289.68 405.73,-273.56 417.69,-260.1"/>
<polygon fill="black" stroke="black" points="420.11,-262.65 424.13,-252.85 414.87,-258 420.11,-262.65"/>
</g>
<!-- gas_schedule::set_gas_schedule -->
<g id="node10" class="node">
<title>gas_schedule::set_gas_schedule</title>
<ellipse fill="none" stroke="black" cx="694" cy="-317" rx="71.49" ry="18"/>
<text text-anchor="middle" x="694" y="-313.3" font-family="Times,serif" font-size="14.00">set_gas_schedule</text>
</g>
<!-- gas_schedule::set_gas_schedule&#45;&gt;reconfiguration::reconfigure -->
<g id="edge11" class="edge">
<title>gas_schedule::set_gas_schedule&#45;&gt;reconfiguration::reconfigure</title>
<path fill="none" stroke="black" d="M650.91,-302.26C605.71,-287.84 534.82,-265.24 487.89,-250.27"/>
<polygon fill="black" stroke="black" points="489.13,-246.99 478.54,-247.29 487,-253.66 489.13,-246.99"/>
</g>
<!-- gas_schedule::set_storage_gas_config -->
<g id="node11" class="node">
<title>gas_schedule::set_storage_gas_config</title>
<ellipse fill="none" stroke="black" cx="512" cy="-317" rx="92.88" ry="18"/>
<text text-anchor="middle" x="512" y="-313.3" font-family="Times,serif" font-size="14.00">set_storage_gas_config</text>
</g>
<!-- gas_schedule::set_storage_gas_config&#45;&gt;reconfiguration::reconfigure -->
<g id="edge12" class="edge">
<title>gas_schedule::set_storage_gas_config&#45;&gt;reconfiguration::reconfigure</title>
<path fill="none" stroke="black" d="M496.73,-298.82C486.67,-287.5 473.33,-272.5 462.11,-259.88"/>
<polygon fill="black" stroke="black" points="465.02,-257.88 455.76,-252.73 459.79,-262.53 465.02,-257.88"/>
</g>
<!-- version::set_version -->
<g id="node12" class="node">
<title>version::set_version</title>
<ellipse fill="none" stroke="black" cx="840" cy="-317" rx="50.89" ry="18"/>
<text text-anchor="middle" x="840" y="-313.3" font-family="Times,serif" font-size="14.00">set_version</text>
</g>
<!-- version::set_version&#45;&gt;reconfiguration::reconfigure -->
<g id="edge13" class="edge">
<title>version::set_version&#45;&gt;reconfiguration::reconfigure</title>
<path fill="none" stroke="black" d="M809.37,-302.33C799.22,-298.21 787.77,-293.99 777,-291 682.07,-264.6 568.42,-248.88 500.33,-241.1"/>
<polygon fill="black" stroke="black" points="500.81,-237.63 490.48,-239.99 500.03,-244.59 500.81,-237.63"/>
</g>
</g>
</svg>
