<?xml version="1.0" encoding="UTF-8" standalone="no"?>
<!DOCTYPE svg PUBLIC "-//W3C//DTD SVG 1.1//EN"
 "http://www.w3.org/Graphics/SVG/1.1/DTD/svg11.dtd">
<!-- Generated by graphviz version 7.0.4 (20221203.1631)
 -->
<!-- Title: G Pages: 1 -->
<svg width="207pt" height="279pt"
 viewBox="0.00 0.00 207.34 279.00" xmlns="http://www.w3.org/2000/svg" xmlns:xlink="http://www.w3.org/1999/xlink">
<g id="graph0" class="graph" transform="scale(1 1) rotate(0) translate(4 275)">
<title>G</title>
<polygon fill="white" stroke="none" points="-4,4 -4,-275 203.34,-275 203.34,4 -4,4"/>
<g id="clust1" class="cluster">
<title>cluster_error</title>
<polygon fill="none" stroke="black" points="8,-8 8,-155 170,-155 170,-8 8,-8"/>
<text text-anchor="middle" x="89" y="-139.8" font-family="Times,serif" font-size="14.00">error</text>
</g>
<!-- new_gas_curve -->
<g id="node1" class="node">
<title>new_gas_curve</title>
<ellipse fill="none" stroke="black" cx="89" cy="-253" rx="65.79" ry="18"/>
<text text-anchor="middle" x="89" y="-249.3" font-family="Times,serif" font-size="14.00">new_gas_curve</text>
</g>
<!-- error::invalid_argument -->
<g id="node2" class="node">
<title>error::invalid_argument</title>
<ellipse fill="none" stroke="black" cx="89" cy="-106" rx="73.39" ry="18"/>
<text text-anchor="middle" x="89" y="-102.3" font-family="Times,serif" font-size="14.00">invalid_argument</text>
</g>
<!-- new_gas_curve&#45;&gt;error::invalid_argument -->
<g id="edge1" class="edge">
<title>new_gas_curve&#45;&gt;error::invalid_argument</title>
<path fill="none" stroke="black" d="M77.81,-235.14C71.84,-225.1 65.09,-211.85 62,-199 58.27,-183.44 58.44,-178.6 62,-163 64.26,-153.13 68.49,-142.97 72.94,-134.06"/>
<polygon fill="black" stroke="black" points="76.02,-135.72 77.65,-125.25 69.85,-132.41 76.02,-135.72"/>
</g>
<!-- validate_points -->
<g id="node3" class="node">
<title>validate_points</title>
<ellipse fill="none" stroke="black" cx="135" cy="-181" rx="64.19" ry="18"/>
<text text-anchor="middle" x="135" y="-177.3" font-family="Times,serif" font-size="14.00">validate_points</text>
</g>
<!-- new_gas_curve&#45;&gt;validate_points -->
<g id="edge2" class="edge">
<title>new_gas_curve&#45;&gt;validate_points</title>
<path fill="none" stroke="black" d="M100.14,-235.05C105.39,-227.06 111.78,-217.33 117.65,-208.4"/>
<polygon fill="black" stroke="black" points="120.57,-210.33 123.14,-200.05 114.72,-206.49 120.57,-210.33"/>
</g>
<!-- error::canonical -->
<g id="node4" class="node">
<title>error::canonical</title>
<ellipse fill="none" stroke="black" cx="89" cy="-34" rx="44.39" ry="18"/>
<text text-anchor="middle" x="89" y="-30.3" font-family="Times,serif" font-size="14.00">canonical</text>
</g>
<!-- error::invalid_argument&#45;&gt;error::canonical -->
<g id="edge3" class="edge">
<title>error::invalid_argument&#45;&gt;error::canonical</title>
<path fill="none" stroke="black" d="M89,-87.7C89,-80.41 89,-71.73 89,-63.54"/>
<polygon fill="black" stroke="black" points="92.5,-63.62 89,-53.62 85.5,-63.62 92.5,-63.62"/>
</g>
<!-- validate_points&#45;&gt;error::invalid_argument -->
<g id="edge4" class="edge">
<title>validate_points&#45;&gt;error::invalid_argument</title>
<path fill="none" stroke="black" d="M124.33,-163.07C118.85,-154.38 112.05,-143.59 105.89,-133.8"/>
<polygon fill="black" stroke="black" points="108.87,-131.97 100.58,-125.37 102.95,-135.7 108.87,-131.97"/>
</g>
</g>
</svg>
