<?xml version="1.0" encoding="UTF-8" standalone="no"?>
<!DOCTYPE svg PUBLIC "-//W3C//DTD SVG 1.1//EN"
 "http://www.w3.org/Graphics/SVG/1.1/DTD/svg11.dtd">
<!-- Generated by graphviz version 7.0.4 (20221203.1631)
 -->
<!-- Title: G Pages: 1 -->
<svg width="169pt" height="188pt"
 viewBox="0.00 0.00 169.19 188.00" xmlns="http://www.w3.org/2000/svg" xmlns:xlink="http://www.w3.org/1999/xlink">
<g id="graph0" class="graph" transform="scale(1 1) rotate(0) translate(4 184)">
<title>G</title>
<polygon fill="white" stroke="none" points="-4,4 -4,-184 165.19,-184 165.19,4 -4,4"/>
<!-- calculate_write_gas -->
<g id="node1" class="node">
<title>calculate_write_gas</title>
<ellipse fill="none" stroke="black" cx="80.59" cy="-162" rx="80.69" ry="18"/>
<text text-anchor="middle" x="80.59" y="-158.3" font-family="Times,serif" font-size="14.00">calculate_write_gas</text>
</g>
<!-- calculate_gas -->
<g id="node2" class="node">
<title>calculate_gas</title>
<ellipse fill="none" stroke="black" cx="80.59" cy="-90" rx="57.69" ry="18"/>
<text text-anchor="middle" x="80.59" y="-86.3" font-family="Times,serif" font-size="14.00">calculate_gas</text>
</g>
<!-- calculate_write_gas&#45;&gt;calculate_gas -->
<g id="edge1" class="edge">
<title>calculate_write_gas&#45;&gt;calculate_gas</title>
<path fill="none" stroke="black" d="M80.59,-143.7C80.59,-136.41 80.59,-127.73 80.59,-119.54"/>
<polygon fill="black" stroke="black" points="84.09,-119.62 80.59,-109.62 77.09,-119.62 84.09,-119.62"/>
</g>
<!-- interpolate -->
<g id="node3" class="node">
<title>interpolate</title>
<ellipse fill="none" stroke="black" cx="80.59" cy="-18" rx="48.19" ry="18"/>
<text text-anchor="middle" x="80.59" y="-14.3" font-family="Times,serif" font-size="14.00">interpolate</text>
</g>
<!-- calculate_gas&#45;&gt;interpolate -->
<g id="edge2" class="edge">
<title>calculate_gas&#45;&gt;interpolate</title>
<path fill="none" stroke="black" d="M80.59,-71.7C80.59,-64.41 80.59,-55.73 80.59,-47.54"/>
<polygon fill="black" stroke="black" points="84.09,-47.62 80.59,-37.62 77.09,-47.62 84.09,-47.62"/>
</g>
</g>
</svg>
