<?xml version="1.0" encoding="UTF-8" standalone="no"?>
<!DOCTYPE svg PUBLIC "-//W3C//DTD SVG 1.1//EN"
 "http://www.w3.org/Graphics/SVG/1.1/DTD/svg11.dtd">
<!-- Generated by graphviz version 7.0.4 (20221203.1631)
 -->
<!-- Title: G Pages: 1 -->
<svg width="226pt" height="260pt"
 viewBox="0.00 0.00 225.50 260.00" xmlns="http://www.w3.org/2000/svg" xmlns:xlink="http://www.w3.org/1999/xlink">
<g id="graph0" class="graph" transform="scale(1 1) rotate(0) translate(4 256)">
<title>G</title>
<polygon fill="white" stroke="none" points="-4,4 -4,-256 221.5,-256 221.5,4 -4,4"/>
<!-- storage_gas -->
<g id="node1" class="node">
<title>storage_gas</title>
<ellipse fill="none" stroke="black" cx="75.06" cy="-234" rx="51.99" ry="18"/>
<text text-anchor="middle" x="75.06" y="-230.3" font-family="Times,serif" font-size="14.00">storage_gas</text>
</g>
<!-- error -->
<g id="node2" class="node">
<title>error</title>
<ellipse fill="none" stroke="black" cx="43.06" cy="-18" rx="27.9" ry="18"/>
<text text-anchor="middle" x="43.06" y="-14.3" font-family="Times,serif" font-size="14.00">error</text>
</g>
<!-- storage_gas&#45;&gt;error -->
<g id="edge1" class="edge">
<title>storage_gas&#45;&gt;error</title>
<path fill="none" stroke="black" d="M47.14,-218.58C32.92,-209.59 17,-196.56 9.06,-180 -12.34,-135.37 10.8,-77.41 27.99,-44.6"/>
<polygon fill="black" stroke="black" points="30.85,-46.66 32.57,-36.21 24.71,-43.31 30.85,-46.66"/>
</g>
<!-- system_addresses -->
<g id="node3" class="node">
<title>system_addresses</title>
<ellipse fill="none" stroke="black" cx="144.06" cy="-90" rx="73.39" ry="18"/>
<text text-anchor="middle" x="144.06" y="-86.3" font-family="Times,serif" font-size="14.00">system_addresses</text>
</g>
<!-- storage_gas&#45;&gt;system_addresses -->
<g id="edge2" class="edge">
<title>storage_gas&#45;&gt;system_addresses</title>
<path fill="none" stroke="black" d="M102.76,-218.47C116.91,-209.45 132.84,-196.43 141.06,-180 150.32,-161.49 150.72,-138 148.98,-119.8"/>
<polygon fill="black" stroke="black" points="152.47,-119.43 147.76,-109.94 145.52,-120.29 152.47,-119.43"/>
</g>
<!-- state_storage -->
<g id="node4" class="node">
<title>state_storage</title>
<ellipse fill="none" stroke="black" cx="75.06" cy="-162" rx="56.59" ry="18"/>
<text text-anchor="middle" x="75.06" y="-158.3" font-family="Times,serif" font-size="14.00">state_storage</text>
</g>
<!-- storage_gas&#45;&gt;state_storage -->
<g id="edge3" class="edge">
<title>storage_gas&#45;&gt;state_storage</title>
<path fill="none" stroke="black" d="M75.06,-215.7C75.06,-208.41 75.06,-199.73 75.06,-191.54"/>
<polygon fill="black" stroke="black" points="78.56,-191.62 75.06,-181.62 71.56,-191.62 78.56,-191.62"/>
</g>
<!-- system_addresses&#45;&gt;error -->
<g id="edge5" class="edge">
<title>system_addresses&#45;&gt;error</title>
<path fill="none" stroke="black" d="M120.38,-72.59C105.51,-62.28 86.26,-48.94 70.7,-38.15"/>
<polygon fill="black" stroke="black" points="73.01,-35.5 62.79,-32.68 69.02,-41.25 73.01,-35.5"/>
</g>
<!-- signer -->
<g id="node5" class="node">
<title>signer</title>
<ellipse fill="none" stroke="black" cx="144.06" cy="-18" rx="32.49" ry="18"/>
<text text-anchor="middle" x="144.06" y="-14.3" font-family="Times,serif" font-size="14.00">signer</text>
</g>
<!-- system_addresses&#45;&gt;signer -->
<g id="edge4" class="edge">
<title>system_addresses&#45;&gt;signer</title>
<path fill="none" stroke="black" d="M144.06,-71.7C144.06,-64.41 144.06,-55.73 144.06,-47.54"/>
<polygon fill="black" stroke="black" points="147.56,-47.62 144.06,-37.62 140.56,-47.62 147.56,-47.62"/>
</g>
<!-- state_storage&#45;&gt;error -->
<g id="edge6" class="edge">
<title>state_storage&#45;&gt;error</title>
<path fill="none" stroke="black" d="M70.71,-143.85C68.12,-133.48 64.81,-120 62.06,-108 57.41,-87.73 52.52,-64.78 48.86,-47.26"/>
<polygon fill="black" stroke="black" points="52.31,-46.66 46.86,-37.58 45.46,-48.08 52.31,-46.66"/>
</g>
<!-- state_storage&#45;&gt;system_addresses -->
<g id="edge7" class="edge">
<title>state_storage&#45;&gt;system_addresses</title>
<path fill="none" stroke="black" d="M91.41,-144.41C99.79,-135.91 110.18,-125.37 119.5,-115.91"/>
<polygon fill="black" stroke="black" points="121.76,-118.61 126.28,-109.03 116.77,-113.7 121.76,-118.61"/>
</g>
</g>
</svg>
