<?xml version="1.0" encoding="UTF-8" standalone="no"?>
<!DOCTYPE svg PUBLIC "-//W3C//DTD SVG 1.1//EN"
 "http://www.w3.org/Graphics/SVG/1.1/DTD/svg11.dtd">
<!-- Generated by graphviz version 7.0.4 (20221203.1631)
 -->
<!-- Title: G Pages: 1 -->
<svg width="770pt" height="290pt"
 viewBox="0.00 0.00 770.42 290.00" xmlns="http://www.w3.org/2000/svg" xmlns:xlink="http://www.w3.org/1999/xlink">
<g id="graph0" class="graph" transform="scale(1 1) rotate(0) translate(4 286)">
<title>G</title>
<polygon fill="white" stroke="none" points="-4,4 -4,-286 766.42,-286 766.42,4 -4,4"/>
<g id="clust1" class="cluster">
<title>cluster_error</title>
<polygon fill="none" stroke="black" points="44.83,-8 44.83,-155 154.83,-155 154.83,-8 44.83,-8"/>
<text text-anchor="middle" x="99.83" y="-139.8" font-family="Times,serif" font-size="14.00">error</text>
</g>
<g id="clust2" class="cluster">
<title>cluster_state_storage</title>
<polygon fill="none" stroke="black" points="18.83,-163 18.83,-238 232.83,-238 232.83,-163 18.83,-163"/>
<text text-anchor="middle" x="125.83" y="-222.8" font-family="Times,serif" font-size="14.00">state_storage</text>
</g>
<!-- on_reconfig -->
<g id="node1" class="node">
<title>on_reconfig</title>
<ellipse fill="none" stroke="black" cx="326.83" cy="-264" rx="53.09" ry="18"/>
<text text-anchor="middle" x="326.83" y="-260.3" font-family="Times,serif" font-size="14.00">on_reconfig</text>
</g>
<!-- error::not_found -->
<g id="node2" class="node">
<title>error::not_found</title>
<ellipse fill="none" stroke="black" cx="99.83" cy="-106" rx="46.59" ry="18"/>
<text text-anchor="middle" x="99.83" y="-102.3" font-family="Times,serif" font-size="14.00">not_found</text>
</g>
<!-- on_reconfig&#45;&gt;error::not_found -->
<g id="edge1" class="edge">
<title>on_reconfig&#45;&gt;error::not_found</title>
<path fill="none" stroke="black" d="M273.45,-262.58C188.91,-261.35 31.97,-256.57 14.83,-238 -7.78,-213.51 -0.98,-192.35 14.83,-163 23.99,-145.99 40.83,-133.3 57.11,-124.34"/>
<polygon fill="black" stroke="black" points="58.45,-127.59 65.76,-119.92 55.26,-121.35 58.45,-127.59"/>
</g>
<!-- state_storage::current_items_and_bytes -->
<g id="node3" class="node">
<title>state_storage::current_items_and_bytes</title>
<ellipse fill="none" stroke="black" cx="125.83" cy="-189" rx="99.38" ry="18"/>
<text text-anchor="middle" x="125.83" y="-185.3" font-family="Times,serif" font-size="14.00">current_items_and_bytes</text>
</g>
<!-- on_reconfig&#45;&gt;state_storage::current_items_and_bytes -->
<g id="edge2" class="edge">
<title>on_reconfig&#45;&gt;state_storage::current_items_and_bytes</title>
<path fill="none" stroke="black" d="M284.29,-252.86C268.59,-248.74 250.75,-243.63 234.83,-238 212.86,-230.22 189.1,-219.99 169.39,-210.97"/>
<polygon fill="black" stroke="black" points="171.1,-207.91 160.56,-206.88 168.16,-214.26 171.1,-207.91"/>
</g>
<!-- calculate_create_gas -->
<g id="node4" class="node">
<title>calculate_create_gas</title>
<ellipse fill="none" stroke="black" cx="326.83" cy="-189" rx="83.39" ry="18"/>
<text text-anchor="middle" x="326.83" y="-185.3" font-family="Times,serif" font-size="14.00">calculate_create_gas</text>
</g>
<!-- on_reconfig&#45;&gt;calculate_create_gas -->
<g id="edge3" class="edge">
<title>on_reconfig&#45;&gt;calculate_create_gas</title>
<path fill="none" stroke="black" d="M326.83,-245.7C326.83,-237.67 326.83,-227.9 326.83,-218.8"/>
<polygon fill="black" stroke="black" points="330.33,-218.94 326.83,-208.94 323.33,-218.94 330.33,-218.94"/>
</g>
<!-- calculate_read_gas -->
<g id="node5" class="node">
<title>calculate_read_gas</title>
<ellipse fill="none" stroke="black" cx="505.83" cy="-189" rx="77.19" ry="18"/>
<text text-anchor="middle" x="505.83" y="-185.3" font-family="Times,serif" font-size="14.00">calculate_read_gas</text>
</g>
<!-- on_reconfig&#45;&gt;calculate_read_gas -->
<g id="edge4" class="edge">
<title>on_reconfig&#45;&gt;calculate_read_gas</title>
<path fill="none" stroke="black" d="M370.59,-253.38C386.1,-249.39 403.49,-244.21 418.83,-238 436.41,-230.88 454.93,-221.03 470.35,-212.1"/>
<polygon fill="black" stroke="black" points="471.85,-215.27 478.68,-207.17 468.29,-209.25 471.85,-215.27"/>
</g>
<!-- calculate_write_gas -->
<g id="node6" class="node">
<title>calculate_write_gas</title>
<ellipse fill="none" stroke="black" cx="681.83" cy="-189" rx="80.69" ry="18"/>
<text text-anchor="middle" x="681.83" y="-185.3" font-family="Times,serif" font-size="14.00">calculate_write_gas</text>
</g>
<!-- on_reconfig&#45;&gt;calculate_write_gas -->
<g id="edge5" class="edge">
<title>on_reconfig&#45;&gt;calculate_write_gas</title>
<path fill="none" stroke="black" d="M379.41,-260.5C445.06,-256.94 553.39,-249.56 591.83,-238 611.35,-232.13 631.52,-221.84 647.8,-212.28"/>
<polygon fill="black" stroke="black" points="649.35,-215.43 656.09,-207.26 645.73,-209.44 649.35,-215.43"/>
</g>
<!-- error::canonical -->
<g id="node7" class="node">
<title>error::canonical</title>
<ellipse fill="none" stroke="black" cx="99.83" cy="-34" rx="44.39" ry="18"/>
<text text-anchor="middle" x="99.83" y="-30.3" font-family="Times,serif" font-size="14.00">canonical</text>
</g>
<!-- error::not_found&#45;&gt;error::canonical -->
<g id="edge6" class="edge">
<title>error::not_found&#45;&gt;error::canonical</title>
<path fill="none" stroke="black" d="M99.83,-87.7C99.83,-80.41 99.83,-71.73 99.83,-63.54"/>
<polygon fill="black" stroke="black" points="103.33,-63.62 99.83,-53.62 96.33,-63.62 103.33,-63.62"/>
</g>
<!-- state_storage::current_items_and_bytes&#45;&gt;error::not_found -->
<g id="edge7" class="edge">
<title>state_storage::current_items_and_bytes&#45;&gt;error::not_found</title>
<path fill="none" stroke="black" d="M120.32,-170.82C116.97,-160.41 112.63,-146.87 108.8,-134.94"/>
<polygon fill="black" stroke="black" points="112.19,-134.05 105.8,-125.59 105.52,-136.19 112.19,-134.05"/>
</g>
<!-- calculate_gas -->
<g id="node8" class="node">
<title>calculate_gas</title>
<ellipse fill="none" stroke="black" cx="505.83" cy="-106" rx="57.69" ry="18"/>
<text text-anchor="middle" x="505.83" y="-102.3" font-family="Times,serif" font-size="14.00">calculate_gas</text>
</g>
<!-- calculate_create_gas&#45;&gt;calculate_gas -->
<g id="edge8" class="edge">
<title>calculate_create_gas&#45;&gt;calculate_gas</title>
<path fill="none" stroke="black" d="M361.77,-172.19C391.02,-158.95 432.85,-140.03 463.9,-125.97"/>
<polygon fill="black" stroke="black" points="464.94,-129.35 472.61,-122.04 462.05,-122.97 464.94,-129.35"/>
</g>
<!-- calculate_read_gas&#45;&gt;calculate_gas -->
<g id="edge9" class="edge">
<title>calculate_read_gas&#45;&gt;calculate_gas</title>
<path fill="none" stroke="black" d="M505.83,-170.82C505.83,-160.69 505.83,-147.6 505.83,-135.92"/>
<polygon fill="black" stroke="black" points="509.33,-135.95 505.83,-125.95 502.33,-135.95 509.33,-135.95"/>
</g>
<!-- calculate_write_gas&#45;&gt;calculate_gas -->
<g id="edge10" class="edge">
<title>calculate_write_gas&#45;&gt;calculate_gas</title>
<path fill="none" stroke="black" d="M647.9,-172.38C619.3,-159.22 578.28,-140.34 547.66,-126.25"/>
<polygon fill="black" stroke="black" points="549.22,-123.12 538.67,-122.11 546.29,-129.47 549.22,-123.12"/>
</g>
<!-- interpolate -->
<g id="node9" class="node">
<title>interpolate</title>
<ellipse fill="none" stroke="black" cx="505.83" cy="-34" rx="48.19" ry="18"/>
<text text-anchor="middle" x="505.83" y="-30.3" font-family="Times,serif" font-size="14.00">interpolate</text>
</g>
<!-- calculate_gas&#45;&gt;interpolate -->
<g id="edge11" class="edge">
<title>calculate_gas&#45;&gt;interpolate</title>
<path fill="none" stroke="black" d="M505.83,-87.7C505.83,-80.41 505.83,-71.73 505.83,-63.54"/>
<polygon fill="black" stroke="black" points="509.33,-63.62 505.83,-53.62 502.33,-63.62 509.33,-63.62"/>
</g>
</g>
</svg>
