<?xml version="1.0" encoding="UTF-8" standalone="no"?>
<!DOCTYPE svg PUBLIC "-//W3C//DTD SVG 1.1//EN"
 "http://www.w3.org/Graphics/SVG/1.1/DTD/svg11.dtd">
<!-- Generated by graphviz version 7.0.4 (20221203.1631)
 -->
<!-- Title: G Pages: 1 -->
<svg width="874pt" height="468pt"
 viewBox="0.00 0.00 874.00 468.00" xmlns="http://www.w3.org/2000/svg" xmlns:xlink="http://www.w3.org/1999/xlink">
<g id="graph0" class="graph" transform="scale(1 1) rotate(0) translate(4 464)">
<title>G</title>
<polygon fill="white" stroke="none" points="-4,4 -4,-464 870,-464 870,4 -4,4"/>
<g id="clust1" class="cluster">
<title>cluster_vesting</title>
<polygon fill="none" stroke="black" points="46,-136 46,-211 250,-211 250,-136 46,-136"/>
<text text-anchor="middle" x="148" y="-195.8" font-family="Times,serif" font-size="14.00">vesting</text>
</g>
<g id="clust2" class="cluster">
<title>cluster_genesis</title>
<polygon fill="none" stroke="black" points="8,-219 8,-377 244,-377 244,-219 8,-219"/>
<text text-anchor="middle" x="126" y="-361.8" font-family="Times,serif" font-size="14.00">genesis</text>
</g>
<g id="clust3" class="cluster">
<title>cluster_timestamp</title>
<polygon fill="none" stroke="black" points="349,-219 349,-294 527,-294 527,-219 349,-219"/>
<text text-anchor="middle" x="438" y="-278.8" font-family="Times,serif" font-size="14.00">timestamp</text>
</g>
<g id="clust4" class="cluster">
<title>cluster_block</title>
<polygon fill="none" stroke="black" points="252,-302 252,-452 858,-452 858,-302 252,-302"/>
<text text-anchor="middle" x="555" y="-436.8" font-family="Times,serif" font-size="14.00">block</text>
</g>
<!-- is_vm_address -->
<g id="node1" class="node">
<title>is_vm_address</title>
<ellipse fill="none" stroke="black" cx="301" cy="-18" rx="63.89" ry="18"/>
<text text-anchor="middle" x="301" y="-14.3" font-family="Times,serif" font-size="14.00">is_vm_address</text>
</g>
<!-- is_reserved_address -->
<g id="node2" class="node">
<title>is_reserved_address</title>
<ellipse fill="none" stroke="black" cx="235" cy="-90" rx="81.49" ry="18"/>
<text text-anchor="middle" x="235" y="-86.3" font-family="Times,serif" font-size="14.00">is_reserved_address</text>
</g>
<!-- is_reserved_address&#45;&gt;is_vm_address -->
<g id="edge1" class="edge">
<title>is_reserved_address&#45;&gt;is_vm_address</title>
<path fill="none" stroke="black" d="M250.98,-72.05C258.92,-63.63 268.68,-53.28 277.46,-43.97"/>
<polygon fill="black" stroke="black" points="279.82,-46.57 284.13,-36.89 274.73,-41.77 279.82,-46.57"/>
</g>
<!-- is_vm -->
<g id="node3" class="node">
<title>is_vm</title>
<ellipse fill="none" stroke="black" cx="410" cy="-90" rx="32.49" ry="18"/>
<text text-anchor="middle" x="410" y="-86.3" font-family="Times,serif" font-size="14.00">is_vm</text>
</g>
<!-- is_vm&#45;&gt;is_vm_address -->
<g id="edge2" class="edge">
<title>is_vm&#45;&gt;is_vm_address</title>
<path fill="none" stroke="black" d="M389.24,-75.67C374.02,-65.9 353.02,-52.41 335.32,-41.04"/>
<polygon fill="black" stroke="black" points="337.46,-38.26 327.16,-35.8 333.68,-44.15 337.46,-38.26"/>
</g>
<!-- vesting::create_vesting_contract -->
<g id="node4" class="node">
<title>vesting::create_vesting_contract</title>
<ellipse fill="none" stroke="black" cx="148" cy="-162" rx="94.48" ry="18"/>
<text text-anchor="middle" x="148" y="-158.3" font-family="Times,serif" font-size="14.00">create_vesting_contract</text>
</g>
<!-- vesting::create_vesting_contract&#45;&gt;is_reserved_address -->
<g id="edge3" class="edge">
<title>vesting::create_vesting_contract&#45;&gt;is_reserved_address</title>
<path fill="none" stroke="black" d="M169.06,-144.05C179.96,-135.28 193.45,-124.43 205.38,-114.83"/>
<polygon fill="black" stroke="black" points="207.36,-117.73 212.95,-108.74 202.97,-112.28 207.36,-117.73"/>
</g>
<!-- assert_vm -->
<g id="node5" class="node">
<title>assert_vm</title>
<ellipse fill="none" stroke="black" cx="495" cy="-162" rx="46.59" ry="18"/>
<text text-anchor="middle" x="495" y="-158.3" font-family="Times,serif" font-size="14.00">assert_vm</text>
</g>
<!-- assert_vm&#45;&gt;is_vm -->
<g id="edge4" class="edge">
<title>assert_vm&#45;&gt;is_vm</title>
<path fill="none" stroke="black" d="M476.14,-145.46C464.49,-135.87 449.36,-123.42 436.52,-112.84"/>
<polygon fill="black" stroke="black" points="438.76,-110.15 428.82,-106.5 434.31,-115.56 438.76,-110.15"/>
</g>
<!-- genesis::create_employee_validators -->
<g id="node6" class="node">
<title>genesis::create_employee_validators</title>
<ellipse fill="none" stroke="black" cx="126" cy="-245" rx="109.68" ry="18"/>
<text text-anchor="middle" x="126" y="-241.3" font-family="Times,serif" font-size="14.00">create_employee_validators</text>
</g>
<!-- genesis::create_employee_validators&#45;&gt;vesting::create_vesting_contract -->
<g id="edge5" class="edge">
<title>genesis::create_employee_validators&#45;&gt;vesting::create_vesting_contract</title>
<path fill="none" stroke="black" d="M130.67,-226.82C133.48,-216.48 137.12,-203.05 140.35,-191.18"/>
<polygon fill="black" stroke="black" points="143.63,-192.46 142.87,-181.89 136.87,-190.63 143.63,-192.46"/>
</g>
<!-- timestamp::update_global_time -->
<g id="node7" class="node">
<title>timestamp::update_global_time</title>
<ellipse fill="none" stroke="black" cx="438" cy="-245" rx="81.49" ry="18"/>
<text text-anchor="middle" x="438" y="-241.3" font-family="Times,serif" font-size="14.00">update_global_time</text>
</g>
<!-- timestamp::update_global_time&#45;&gt;assert_vm -->
<g id="edge6" class="edge">
<title>timestamp::update_global_time&#45;&gt;assert_vm</title>
<path fill="none" stroke="black" d="M450.09,-226.82C457.77,-215.9 467.87,-201.55 476.55,-189.22"/>
<polygon fill="black" stroke="black" points="479.36,-191.31 482.25,-181.11 473.64,-187.28 479.36,-191.31"/>
</g>
<!-- block::block_prologue -->
<g id="node8" class="node">
<title>block::block_prologue</title>
<ellipse fill="none" stroke="black" cx="553" cy="-403" rx="65.79" ry="18"/>
<text text-anchor="middle" x="553" y="-399.3" font-family="Times,serif" font-size="14.00">block_prologue</text>
</g>
<!-- block::block_prologue&#45;&gt;assert_vm -->
<g id="edge7" class="edge">
<title>block::block_prologue&#45;&gt;assert_vm</title>
<path fill="none" stroke="black" d="M553.46,-384.51C553.79,-351.23 551.86,-276.96 531,-219 527.21,-208.46 521.12,-197.87 515.03,-188.78"/>
<polygon fill="black" stroke="black" points="518.03,-186.96 509.39,-180.82 512.31,-191 518.03,-186.96"/>
</g>
<!-- block::emit_new_block_event -->
<g id="node11" class="node">
<title>block::emit_new_block_event</title>
<ellipse fill="none" stroke="black" cx="432" cy="-328" rx="92.88" ry="18"/>
<text text-anchor="middle" x="432" y="-324.3" font-family="Times,serif" font-size="14.00">emit_new_block_event</text>
</g>
<!-- block::block_prologue&#45;&gt;block::emit_new_block_event -->
<g id="edge11" class="edge">
<title>block::block_prologue&#45;&gt;block::emit_new_block_event</title>
<path fill="none" stroke="black" d="M526.74,-386.16C509.89,-375.99 487.76,-362.64 469.12,-351.4"/>
<polygon fill="black" stroke="black" points="471.13,-348.52 460.76,-346.35 467.51,-354.51 471.13,-348.52"/>
</g>
<!-- block::emit_writeset_block_event -->
<g id="node9" class="node">
<title>block::emit_writeset_block_event</title>
<ellipse fill="none" stroke="black" cx="743" cy="-403" rx="106.68" ry="18"/>
<text text-anchor="middle" x="743" y="-399.3" font-family="Times,serif" font-size="14.00">emit_writeset_block_event</text>
</g>
<!-- block::emit_writeset_block_event&#45;&gt;assert_vm -->
<g id="edge8" class="edge">
<title>block::emit_writeset_block_event&#45;&gt;assert_vm</title>
<path fill="none" stroke="black" d="M725.16,-384.81C681.59,-342.82 569.66,-234.96 519.71,-186.82"/>
<polygon fill="black" stroke="black" points="522.41,-184.55 512.78,-180.13 517.55,-189.59 522.41,-184.55"/>
</g>
<!-- genesis::initialize_for_verification -->
<g id="node10" class="node">
<title>genesis::initialize_for_verification</title>
<ellipse fill="none" stroke="black" cx="126" cy="-328" rx="100.98" ry="18"/>
<text text-anchor="middle" x="126" y="-324.3" font-family="Times,serif" font-size="14.00">initialize_for_verification</text>
</g>
<!-- genesis::initialize_for_verification&#45;&gt;genesis::create_employee_validators -->
<g id="edge9" class="edge">
<title>genesis::initialize_for_verification&#45;&gt;genesis::create_employee_validators</title>
<path fill="none" stroke="black" d="M126,-309.82C126,-299.69 126,-286.6 126,-274.92"/>
<polygon fill="black" stroke="black" points="129.5,-274.95 126,-264.95 122.5,-274.95 129.5,-274.95"/>
</g>
<!-- block::emit_new_block_event&#45;&gt;timestamp::update_global_time -->
<g id="edge10" class="edge">
<title>block::emit_new_block_event&#45;&gt;timestamp::update_global_time</title>
<path fill="none" stroke="black" d="M433.27,-309.82C434.03,-299.58 435.01,-286.33 435.89,-274.55"/>
<polygon fill="black" stroke="black" points="439.35,-275.17 436.6,-264.94 432.37,-274.66 439.35,-275.17"/>
</g>
<!-- block::emit_genesis_block_event -->
<g id="node12" class="node">
<title>block::emit_genesis_block_event</title>
<ellipse fill="none" stroke="black" cx="365" cy="-403" rx="104.78" ry="18"/>
<text text-anchor="middle" x="365" y="-399.3" font-family="Times,serif" font-size="14.00">emit_genesis_block_event</text>
</g>
<!-- block::emit_genesis_block_event&#45;&gt;block::emit_new_block_event -->
<g id="edge12" class="edge">
<title>block::emit_genesis_block_event&#45;&gt;block::emit_new_block_event</title>
<path fill="none" stroke="black" d="M380.54,-385.07C388.85,-376.01 399.26,-364.67 408.53,-354.57"/>
<polygon fill="black" stroke="black" points="411.11,-356.94 415.29,-347.21 405.95,-352.21 411.11,-356.94"/>
</g>
</g>
</svg>
