<?xml version="1.0" encoding="UTF-8" standalone="no"?>
<!DOCTYPE svg PUBLIC "-//W3C//DTD SVG 1.1//EN"
 "http://www.w3.org/Graphics/SVG/1.1/DTD/svg11.dtd">
<!-- Generated by graphviz version 7.0.4 (20221203.1631)
 -->
<!-- Title: G Pages: 1 -->
<svg width="571pt" height="282pt"
 viewBox="0.00 0.00 570.74 282.00" xmlns="http://www.w3.org/2000/svg" xmlns:xlink="http://www.w3.org/1999/xlink">
<g id="graph0" class="graph" transform="scale(1 1) rotate(0) translate(4 278)">
<title>G</title>
<polygon fill="white" stroke="none" points="-4,4 -4,-278 566.74,-278 566.74,4 -4,4"/>
<g id="clust1" class="cluster">
<title>cluster_signer</title>
<polygon fill="none" stroke="black" points="8,-80 8,-230 158,-230 158,-80 8,-80"/>
<text text-anchor="middle" x="83" y="-214.8" font-family="Times,serif" font-size="14.00">signer</text>
</g>
<g id="clust2" class="cluster">
<title>cluster_error</title>
<polygon fill="none" stroke="black" points="181,-8 181,-155 351,-155 351,-8 181,-8"/>
<text text-anchor="middle" x="266" y="-139.8" font-family="Times,serif" font-size="14.00">error</text>
</g>
<!-- assert_core_resource -->
<g id="node1" class="node">
<title>assert_core_resource</title>
<ellipse fill="none" stroke="black" cx="190" cy="-256" rx="84.49" ry="18"/>
<text text-anchor="middle" x="190" y="-252.3" font-family="Times,serif" font-size="14.00">assert_core_resource</text>
</g>
<!-- signer::address_of -->
<g id="node2" class="node">
<title>signer::address_of</title>
<ellipse fill="none" stroke="black" cx="91" cy="-181" rx="48.99" ry="18"/>
<text text-anchor="middle" x="91" y="-177.3" font-family="Times,serif" font-size="14.00">address_of</text>
</g>
<!-- assert_core_resource&#45;&gt;signer::address_of -->
<g id="edge1" class="edge">
<title>assert_core_resource&#45;&gt;signer::address_of</title>
<path fill="none" stroke="black" d="M167.54,-238.44C153.74,-228.26 135.9,-215.11 120.92,-204.06"/>
<polygon fill="black" stroke="black" points="123.37,-201.52 113.24,-198.4 119.21,-207.15 123.37,-201.52"/>
</g>
<!-- assert_core_resource_address -->
<g id="node3" class="node">
<title>assert_core_resource_address</title>
<ellipse fill="none" stroke="black" cx="281" cy="-181" rx="115.08" ry="18"/>
<text text-anchor="middle" x="281" y="-177.3" font-family="Times,serif" font-size="14.00">assert_core_resource_address</text>
</g>
<!-- assert_core_resource&#45;&gt;assert_core_resource_address -->
<g id="edge2" class="edge">
<title>assert_core_resource&#45;&gt;assert_core_resource_address</title>
<path fill="none" stroke="black" d="M210.65,-238.44C222.58,-228.87 237.8,-216.66 251.03,-206.05"/>
<polygon fill="black" stroke="black" points="253.01,-208.94 258.62,-199.95 248.63,-203.48 253.01,-208.94"/>
</g>
<!-- signer::borrow_address -->
<g id="node4" class="node">
<title>signer::borrow_address</title>
<ellipse fill="none" stroke="black" cx="83" cy="-106" rx="66.89" ry="18"/>
<text text-anchor="middle" x="83" y="-102.3" font-family="Times,serif" font-size="14.00">borrow_address</text>
</g>
<!-- signer::address_of&#45;&gt;signer::borrow_address -->
<g id="edge3" class="edge">
<title>signer::address_of&#45;&gt;signer::borrow_address</title>
<path fill="none" stroke="black" d="M89.1,-162.7C88.22,-154.67 87.15,-144.9 86.16,-135.8"/>
<polygon fill="black" stroke="black" points="89.64,-135.49 85.07,-125.93 82.69,-136.26 89.64,-135.49"/>
</g>
<!-- error::permission_denied -->
<g id="node5" class="node">
<title>error::permission_denied</title>
<ellipse fill="none" stroke="black" cx="266" cy="-106" rx="77.19" ry="18"/>
<text text-anchor="middle" x="266" y="-102.3" font-family="Times,serif" font-size="14.00">permission_denied</text>
</g>
<!-- assert_core_resource_address&#45;&gt;error::permission_denied -->
<g id="edge4" class="edge">
<title>assert_core_resource_address&#45;&gt;error::permission_denied</title>
<path fill="none" stroke="black" d="M277.45,-162.7C275.78,-154.58 273.74,-144.68 271.86,-135.5"/>
<polygon fill="black" stroke="black" points="275.33,-135 269.89,-125.91 268.47,-136.41 275.33,-135"/>
</g>
<!-- is_core_resource_address -->
<g id="node6" class="node">
<title>is_core_resource_address</title>
<ellipse fill="none" stroke="black" cx="462" cy="-106" rx="100.98" ry="18"/>
<text text-anchor="middle" x="462" y="-102.3" font-family="Times,serif" font-size="14.00">is_core_resource_address</text>
</g>
<!-- assert_core_resource_address&#45;&gt;is_core_resource_address -->
<g id="edge5" class="edge">
<title>assert_core_resource_address&#45;&gt;is_core_resource_address</title>
<path fill="none" stroke="black" d="M329.8,-164.25C338.26,-161.32 346.92,-158.17 355,-155 375.95,-146.78 398.76,-136.71 417.91,-127.92"/>
<polygon fill="black" stroke="black" points="419.16,-131.2 426.77,-123.83 416.22,-124.85 419.16,-131.2"/>
</g>
<!-- error::canonical -->
<g id="node7" class="node">
<title>error::canonical</title>
<ellipse fill="none" stroke="black" cx="266" cy="-34" rx="44.39" ry="18"/>
<text text-anchor="middle" x="266" y="-30.3" font-family="Times,serif" font-size="14.00">canonical</text>
</g>
<!-- error::permission_denied&#45;&gt;error::canonical -->
<g id="edge6" class="edge">
<title>error::permission_denied&#45;&gt;error::canonical</title>
<path fill="none" stroke="black" d="M266,-87.7C266,-80.41 266,-71.73 266,-63.54"/>
<polygon fill="black" stroke="black" points="269.5,-63.62 266,-53.62 262.5,-63.62 269.5,-63.62"/>
</g>
</g>
</svg>
