<?xml version="1.0" encoding="UTF-8" standalone="no"?>
<!DOCTYPE svg PUBLIC "-//W3C//DTD SVG 1.1//EN"
 "http://www.w3.org/Graphics/SVG/1.1/DTD/svg11.dtd">
<!-- Generated by graphviz version 7.0.4 (20221203.1631)
 -->
<!-- Title: G Pages: 1 -->
<svg width="480pt" height="282pt"
 viewBox="0.00 0.00 479.69 282.00" xmlns="http://www.w3.org/2000/svg" xmlns:xlink="http://www.w3.org/1999/xlink">
<g id="graph0" class="graph" transform="scale(1 1) rotate(0) translate(4 278)">
<title>G</title>
<polygon fill="white" stroke="none" points="-4,4 -4,-278 475.69,-278 475.69,4 -4,4"/>
<g id="clust1" class="cluster">
<title>cluster_error</title>
<polygon fill="none" stroke="black" points="8,-80 8,-230 178,-230 178,-80 8,-80"/>
<text text-anchor="middle" x="93" y="-214.8" font-family="Times,serif" font-size="14.00">error</text>
</g>
<g id="clust2" class="cluster">
<title>cluster_signer</title>
<polygon fill="none" stroke="black" points="186,-8 186,-155 336,-155 336,-8 186,-8"/>
<text text-anchor="middle" x="261" y="-139.8" font-family="Times,serif" font-size="14.00">signer</text>
</g>
<!-- assert_vm -->
<g id="node1" class="node">
<title>assert_vm</title>
<ellipse fill="none" stroke="black" cx="177" cy="-256" rx="46.59" ry="18"/>
<text text-anchor="middle" x="177" y="-252.3" font-family="Times,serif" font-size="14.00">assert_vm</text>
</g>
<!-- error::permission_denied -->
<g id="node2" class="node">
<title>error::permission_denied</title>
<ellipse fill="none" stroke="black" cx="93" cy="-181" rx="77.19" ry="18"/>
<text text-anchor="middle" x="93" y="-177.3" font-family="Times,serif" font-size="14.00">permission_denied</text>
</g>
<!-- assert_vm&#45;&gt;error::permission_denied -->
<g id="edge1" class="edge">
<title>assert_vm&#45;&gt;error::permission_denied</title>
<path fill="none" stroke="black" d="M158.77,-239.16C147.75,-229.58 133.46,-217.16 121.02,-206.35"/>
<polygon fill="black" stroke="black" points="123.35,-203.74 113.5,-199.82 118.75,-209.02 123.35,-203.74"/>
</g>
<!-- is_vm -->
<g id="node3" class="node">
<title>is_vm</title>
<ellipse fill="none" stroke="black" cx="261" cy="-181" rx="32.49" ry="18"/>
<text text-anchor="middle" x="261" y="-177.3" font-family="Times,serif" font-size="14.00">is_vm</text>
</g>
<!-- assert_vm&#45;&gt;is_vm -->
<g id="edge2" class="edge">
<title>assert_vm&#45;&gt;is_vm</title>
<path fill="none" stroke="black" d="M195.23,-239.16C206.99,-228.94 222.46,-215.49 235.44,-204.21"/>
<polygon fill="black" stroke="black" points="237.56,-207.01 242.81,-197.81 232.97,-201.72 237.56,-207.01"/>
</g>
<!-- error::canonical -->
<g id="node4" class="node">
<title>error::canonical</title>
<ellipse fill="none" stroke="black" cx="93" cy="-106" rx="44.39" ry="18"/>
<text text-anchor="middle" x="93" y="-102.3" font-family="Times,serif" font-size="14.00">canonical</text>
</g>
<!-- error::permission_denied&#45;&gt;error::canonical -->
<g id="edge3" class="edge">
<title>error::permission_denied&#45;&gt;error::canonical</title>
<path fill="none" stroke="black" d="M93,-162.7C93,-154.67 93,-144.9 93,-135.8"/>
<polygon fill="black" stroke="black" points="96.5,-135.94 93,-125.94 89.5,-135.94 96.5,-135.94"/>
</g>
<!-- signer::address_of -->
<g id="node5" class="node">
<title>signer::address_of</title>
<ellipse fill="none" stroke="black" cx="261" cy="-106" rx="48.99" ry="18"/>
<text text-anchor="middle" x="261" y="-102.3" font-family="Times,serif" font-size="14.00">address_of</text>
</g>
<!-- is_vm&#45;&gt;signer::address_of -->
<g id="edge4" class="edge">
<title>is_vm&#45;&gt;signer::address_of</title>
<path fill="none" stroke="black" d="M261,-162.7C261,-154.67 261,-144.9 261,-135.8"/>
<polygon fill="black" stroke="black" points="264.5,-135.94 261,-125.94 257.5,-135.94 264.5,-135.94"/>
</g>
<!-- is_vm_address -->
<g id="node6" class="node">
<title>is_vm_address</title>
<ellipse fill="none" stroke="black" cx="408" cy="-106" rx="63.89" ry="18"/>
<text text-anchor="middle" x="408" y="-102.3" font-family="Times,serif" font-size="14.00">is_vm_address</text>
</g>
<!-- is_vm&#45;&gt;is_vm_address -->
<g id="edge5" class="edge">
<title>is_vm&#45;&gt;is_vm_address</title>
<path fill="none" stroke="black" d="M290.35,-173.03C305.6,-168.84 324.28,-162.8 340,-155 353.69,-148.21 367.67,-138.84 379.37,-130.18"/>
<polygon fill="black" stroke="black" points="381.17,-133.21 387,-124.37 376.93,-127.64 381.17,-133.21"/>
</g>
<!-- signer::borrow_address -->
<g id="node7" class="node">
<title>signer::borrow_address</title>
<ellipse fill="none" stroke="black" cx="261" cy="-34" rx="66.89" ry="18"/>
<text text-anchor="middle" x="261" y="-30.3" font-family="Times,serif" font-size="14.00">borrow_address</text>
</g>
<!-- signer::address_of&#45;&gt;signer::borrow_address -->
<g id="edge6" class="edge">
<title>signer::address_of&#45;&gt;signer::borrow_address</title>
<path fill="none" stroke="black" d="M261,-87.7C261,-80.41 261,-71.73 261,-63.54"/>
<polygon fill="black" stroke="black" points="264.5,-63.62 261,-53.62 257.5,-63.62 264.5,-63.62"/>
</g>
</g>
</svg>
