<?xml version="1.0" encoding="UTF-8" standalone="no"?>
<!DOCTYPE svg PUBLIC "-//W3C//DTD SVG 1.1//EN"
 "http://www.w3.org/Graphics/SVG/1.1/DTD/svg11.dtd">
<!-- Generated by graphviz version 7.0.4 (20221203.1631)
 -->
<!-- Title: G Pages: 1 -->
<svg width="624pt" height="299pt"
 viewBox="0.00 0.00 624.00 299.00" xmlns="http://www.w3.org/2000/svg" xmlns:xlink="http://www.w3.org/1999/xlink">
<g id="graph0" class="graph" transform="scale(1 1) rotate(0) translate(4 295)">
<title>G</title>
<polygon fill="white" stroke="none" points="-4,4 -4,-295 620,-295 620,4 -4,4"/>
<g id="clust1" class="cluster">
<title>cluster_aptos_coin</title>
<polygon fill="none" stroke="black" points="8,-208 8,-283 224,-283 224,-208 8,-208"/>
<text text-anchor="middle" x="116" y="-267.8" font-family="Times,serif" font-size="14.00">aptos_coin</text>
</g>
<g id="clust2" class="cluster">
<title>cluster_aptos_governance</title>
<polygon fill="none" stroke="black" points="232,-208 232,-283 438,-283 438,-208 232,-208"/>
<text text-anchor="middle" x="335" y="-267.8" font-family="Times,serif" font-size="14.00">aptos_governance</text>
</g>
<g id="clust3" class="cluster">
<title>cluster_version</title>
<polygon fill="none" stroke="black" points="446,-208 446,-283 608,-283 608,-208 446,-208"/>
<text text-anchor="middle" x="527" y="-267.8" font-family="Times,serif" font-size="14.00">version</text>
</g>
<!-- is_core_resource_address -->
<g id="node1" class="node">
<title>is_core_resource_address</title>
<ellipse fill="none" stroke="black" cx="335" cy="-18" rx="100.98" ry="18"/>
<text text-anchor="middle" x="335" y="-14.3" font-family="Times,serif" font-size="14.00">is_core_resource_address</text>
</g>
<!-- assert_core_resource_address -->
<g id="node2" class="node">
<title>assert_core_resource_address</title>
<ellipse fill="none" stroke="black" cx="335" cy="-90" rx="115.08" ry="18"/>
<text text-anchor="middle" x="335" y="-86.3" font-family="Times,serif" font-size="14.00">assert_core_resource_address</text>
</g>
<!-- assert_core_resource_address&#45;&gt;is_core_resource_address -->
<g id="edge1" class="edge">
<title>assert_core_resource_address&#45;&gt;is_core_resource_address</title>
<path fill="none" stroke="black" d="M335,-71.7C335,-64.41 335,-55.73 335,-47.54"/>
<polygon fill="black" stroke="black" points="338.5,-47.62 335,-37.62 331.5,-47.62 338.5,-47.62"/>
</g>
<!-- assert_core_resource -->
<g id="node3" class="node">
<title>assert_core_resource</title>
<ellipse fill="none" stroke="black" cx="335" cy="-162" rx="84.49" ry="18"/>
<text text-anchor="middle" x="335" y="-158.3" font-family="Times,serif" font-size="14.00">assert_core_resource</text>
</g>
<!-- assert_core_resource&#45;&gt;assert_core_resource_address -->
<g id="edge2" class="edge">
<title>assert_core_resource&#45;&gt;assert_core_resource_address</title>
<path fill="none" stroke="black" d="M335,-143.7C335,-136.41 335,-127.73 335,-119.54"/>
<polygon fill="black" stroke="black" points="338.5,-119.62 335,-109.62 331.5,-119.62 338.5,-119.62"/>
</g>
<!-- aptos_coin::delegate_mint_capability -->
<g id="node4" class="node">
<title>aptos_coin::delegate_mint_capability</title>
<ellipse fill="none" stroke="black" cx="116" cy="-234" rx="100.18" ry="18"/>
<text text-anchor="middle" x="116" y="-230.3" font-family="Times,serif" font-size="14.00">delegate_mint_capability</text>
</g>
<!-- aptos_coin::delegate_mint_capability&#45;&gt;assert_core_resource -->
<g id="edge3" class="edge">
<title>aptos_coin::delegate_mint_capability&#45;&gt;assert_core_resource</title>
<path fill="none" stroke="black" d="M163.79,-217.72C197.66,-206.9 243.24,-192.33 278.85,-180.95"/>
<polygon fill="black" stroke="black" points="279.66,-184.36 288.12,-177.99 277.53,-177.7 279.66,-184.36"/>
</g>
<!-- aptos_governance::get_signer_testnet_only -->
<g id="node5" class="node">
<title>aptos_governance::get_signer_testnet_only</title>
<ellipse fill="none" stroke="black" cx="335" cy="-234" rx="94.78" ry="18"/>
<text text-anchor="middle" x="335" y="-230.3" font-family="Times,serif" font-size="14.00">get_signer_testnet_only</text>
</g>
<!-- aptos_governance::get_signer_testnet_only&#45;&gt;assert_core_resource -->
<g id="edge4" class="edge">
<title>aptos_governance::get_signer_testnet_only&#45;&gt;assert_core_resource</title>
<path fill="none" stroke="black" d="M335,-215.7C335,-208.41 335,-199.73 335,-191.54"/>
<polygon fill="black" stroke="black" points="338.5,-191.62 335,-181.62 331.5,-191.62 338.5,-191.62"/>
</g>
<!-- version::initialize_for_test -->
<g id="node6" class="node">
<title>version::initialize_for_test</title>
<ellipse fill="none" stroke="black" cx="527" cy="-234" rx="72.59" ry="18"/>
<text text-anchor="middle" x="527" y="-230.3" font-family="Times,serif" font-size="14.00">initialize_for_test</text>
</g>
<!-- version::initialize_for_test&#45;&gt;assert_core_resource -->
<g id="edge5" class="edge">
<title>version::initialize_for_test&#45;&gt;assert_core_resource</title>
<path fill="none" stroke="black" d="M487.22,-218.5C458.23,-207.93 418.69,-193.51 387.17,-182.02"/>
<polygon fill="black" stroke="black" points="388.41,-178.75 377.81,-178.61 386.01,-185.32 388.41,-178.75"/>
</g>
</g>
</svg>
