<?xml version="1.0" encoding="UTF-8" standalone="no"?>
<!DOCTYPE svg PUBLIC "-//W3C//DTD SVG 1.1//EN"
 "http://www.w3.org/Graphics/SVG/1.1/DTD/svg11.dtd">
<!-- Generated by graphviz version 7.0.4 (20221203.1631)
 -->
<!-- Title: G Pages: 1 -->
<svg width="399pt" height="227pt"
 viewBox="0.00 0.00 399.00 227.00" xmlns="http://www.w3.org/2000/svg" xmlns:xlink="http://www.w3.org/1999/xlink">
<g id="graph0" class="graph" transform="scale(1 1) rotate(0) translate(4 223)">
<title>G</title>
<polygon fill="white" stroke="none" points="-4,4 -4,-223 395,-223 395,4 -4,4"/>
<g id="clust1" class="cluster">
<title>cluster_block</title>
<polygon fill="none" stroke="black" points="8,-64 8,-211 383,-211 383,-64 8,-64"/>
<text text-anchor="middle" x="195.5" y="-195.8" font-family="Times,serif" font-size="14.00">block</text>
</g>
<!-- update_global_time -->
<g id="node1" class="node">
<title>update_global_time</title>
<ellipse fill="none" stroke="black" cx="201" cy="-18" rx="81.49" ry="18"/>
<text text-anchor="middle" x="201" y="-14.3" font-family="Times,serif" font-size="14.00">update_global_time</text>
</g>
<!-- block::emit_new_block_event -->
<g id="node2" class="node">
<title>block::emit_new_block_event</title>
<ellipse fill="none" stroke="black" cx="201" cy="-90" rx="92.88" ry="18"/>
<text text-anchor="middle" x="201" y="-86.3" font-family="Times,serif" font-size="14.00">emit_new_block_event</text>
</g>
<!-- block::emit_new_block_event&#45;&gt;update_global_time -->
<g id="edge1" class="edge">
<title>block::emit_new_block_event&#45;&gt;update_global_time</title>
<path fill="none" stroke="black" d="M201,-71.7C201,-64.41 201,-55.73 201,-47.54"/>
<polygon fill="black" stroke="black" points="204.5,-47.62 201,-37.62 197.5,-47.62 204.5,-47.62"/>
</g>
<!-- block::block_prologue -->
<g id="node3" class="node">
<title>block::block_prologue</title>
<ellipse fill="none" stroke="black" cx="309" cy="-162" rx="65.79" ry="18"/>
<text text-anchor="middle" x="309" y="-158.3" font-family="Times,serif" font-size="14.00">block_prologue</text>
</g>
<!-- block::block_prologue&#45;&gt;block::emit_new_block_event -->
<g id="edge2" class="edge">
<title>block::block_prologue&#45;&gt;block::emit_new_block_event</title>
<path fill="none" stroke="black" d="M284.22,-144.94C269.99,-135.71 251.88,-123.98 236.19,-113.81"/>
<polygon fill="black" stroke="black" points="238.35,-111.04 228.06,-108.54 234.55,-116.91 238.35,-111.04"/>
</g>
<!-- block::emit_genesis_block_event -->
<g id="node4" class="node">
<title>block::emit_genesis_block_event</title>
<ellipse fill="none" stroke="black" cx="121" cy="-162" rx="104.78" ry="18"/>
<text text-anchor="middle" x="121" y="-158.3" font-family="Times,serif" font-size="14.00">emit_genesis_block_event</text>
</g>
<!-- block::emit_genesis_block_event&#45;&gt;block::emit_new_block_event -->
<g id="edge3" class="edge">
<title>block::emit_genesis_block_event&#45;&gt;block::emit_new_block_event</title>
<path fill="none" stroke="black" d="M140.37,-144.05C150.12,-135.52 162.13,-125.01 172.88,-115.61"/>
<polygon fill="black" stroke="black" points="175.18,-118.25 180.4,-109.03 170.57,-112.98 175.18,-118.25"/>
</g>
</g>
</svg>
