<?xml version="1.0" encoding="UTF-8" standalone="no"?>
<!DOCTYPE svg PUBLIC "-//W3C//DTD SVG 1.1//EN"
 "http://www.w3.org/Graphics/SVG/1.1/DTD/svg11.dtd">
<!-- Generated by graphviz version 7.0.4 (20221203.1631)
 -->
<!-- Title: G Pages: 1 -->
<svg width="701pt" height="260pt"
 viewBox="0.00 0.00 700.54 260.00" xmlns="http://www.w3.org/2000/svg" xmlns:xlink="http://www.w3.org/1999/xlink">
<g id="graph0" class="graph" transform="scale(1 1) rotate(0) translate(4 256)">
<title>G</title>
<polygon fill="white" stroke="none" points="-4,4 -4,-256 696.54,-256 696.54,4 -4,4"/>
<!-- transaction_fee -->
<g id="node1" class="node">
<title>transaction_fee</title>
<ellipse fill="none" stroke="black" cx="166.09" cy="-18" rx="64.19" ry="18"/>
<text text-anchor="middle" x="166.09" y="-14.3" font-family="Times,serif" font-size="14.00">transaction_fee</text>
</g>
<!-- reconfiguration -->
<g id="node2" class="node">
<title>reconfiguration</title>
<ellipse fill="none" stroke="black" cx="213.09" cy="-90" rx="64.99" ry="18"/>
<text text-anchor="middle" x="213.09" y="-86.3" font-family="Times,serif" font-size="14.00">reconfiguration</text>
</g>
<!-- reconfiguration&#45;&gt;transaction_fee -->
<g id="edge1" class="edge">
<title>reconfiguration&#45;&gt;transaction_fee</title>
<path fill="none" stroke="black" d="M201.72,-72.05C196.29,-63.97 189.67,-54.12 183.63,-45.11"/>
<polygon fill="black" stroke="black" points="186.69,-43.4 178.21,-37.05 180.88,-47.3 186.69,-43.4"/>
</g>
<!-- block -->
<g id="node3" class="node">
<title>block</title>
<ellipse fill="none" stroke="black" cx="52.09" cy="-162" rx="30.59" ry="18"/>
<text text-anchor="middle" x="52.09" y="-158.3" font-family="Times,serif" font-size="14.00">block</text>
</g>
<!-- block&#45;&gt;transaction_fee -->
<g id="edge2" class="edge">
<title>block&#45;&gt;transaction_fee</title>
<path fill="none" stroke="black" d="M64.73,-145.26C84.29,-120.89 122.1,-73.79 145.61,-44.52"/>
<polygon fill="black" stroke="black" points="148.22,-46.86 151.75,-36.87 142.76,-42.47 148.22,-46.86"/>
</g>
<!-- block&#45;&gt;reconfiguration -->
<g id="edge6" class="edge">
<title>block&#45;&gt;reconfiguration</title>
<path fill="none" stroke="black" d="M76.2,-150.52C100.68,-139.88 139.15,-123.15 169.08,-110.14"/>
<polygon fill="black" stroke="black" points="170.11,-113.5 177.89,-106.31 167.32,-107.08 170.11,-113.5"/>
</g>
<!-- transaction_validation -->
<g id="node4" class="node">
<title>transaction_validation</title>
<ellipse fill="none" stroke="black" cx="544.09" cy="-90" rx="89.08" ry="18"/>
<text text-anchor="middle" x="544.09" y="-86.3" font-family="Times,serif" font-size="14.00">transaction_validation</text>
</g>
<!-- transaction_validation&#45;&gt;transaction_fee -->
<g id="edge3" class="edge">
<title>transaction_validation&#45;&gt;transaction_fee</title>
<path fill="none" stroke="black" d="M479.97,-77.13C410.24,-64.21 299.45,-43.7 229.85,-30.81"/>
<polygon fill="black" stroke="black" points="230.59,-27.38 220.12,-29 229.31,-34.27 230.59,-27.38"/>
</g>
<!-- genesis -->
<g id="node5" class="node">
<title>genesis</title>
<ellipse fill="none" stroke="black" cx="296.09" cy="-234" rx="36.29" ry="18"/>
<text text-anchor="middle" x="296.09" y="-230.3" font-family="Times,serif" font-size="14.00">genesis</text>
</g>
<!-- genesis&#45;&gt;transaction_fee -->
<g id="edge4" class="edge">
<title>genesis&#45;&gt;transaction_fee</title>
<path fill="none" stroke="black" d="M259.66,-231.77C190.25,-228.56 43.18,-217.43 12.09,-180 -32.55,-126.25 62.5,-68.18 122.32,-38.66"/>
<polygon fill="black" stroke="black" points="123.83,-41.82 131.32,-34.32 120.79,-35.52 123.83,-41.82"/>
</g>
<!-- genesis&#45;&gt;reconfiguration -->
<g id="edge10" class="edge">
<title>genesis&#45;&gt;reconfiguration</title>
<path fill="none" stroke="black" d="M259.6,-232.97C220.35,-230.74 159.63,-220.43 130.09,-180 120.66,-167.08 122.4,-158.03 130.09,-144 137.96,-129.64 151.55,-118.61 165.49,-110.42"/>
<polygon fill="black" stroke="black" points="167.15,-113.51 174.29,-105.68 163.83,-107.35 167.15,-113.51"/>
</g>
<!-- genesis&#45;&gt;block -->
<g id="edge11" class="edge">
<title>genesis&#45;&gt;block</title>
<path fill="none" stroke="black" d="M263.75,-225.45C224.13,-215.96 155.13,-198.64 97.09,-180 93.96,-178.99 90.73,-177.9 87.5,-176.76"/>
<polygon fill="black" stroke="black" points="88.71,-173.47 78.11,-173.33 86.3,-180.05 88.71,-173.47"/>
</g>
<!-- genesis&#45;&gt;transaction_validation -->
<g id="edge12" class="edge">
<title>genesis&#45;&gt;transaction_validation</title>
<path fill="none" stroke="black" d="M332.71,-233.82C420.58,-234.92 639.48,-232.24 685.09,-180 695.62,-167.95 694.2,-157.15 685.09,-144 671.47,-124.33 649.57,-111.94 627.05,-104.16"/>
<polygon fill="black" stroke="black" points="628.37,-100.9 617.78,-101.24 626.27,-107.58 628.37,-100.9"/>
</g>
<!-- aptos_governance -->
<g id="node6" class="node">
<title>aptos_governance</title>
<ellipse fill="none" stroke="black" cx="213.09" cy="-162" rx="74.19" ry="18"/>
<text text-anchor="middle" x="213.09" y="-158.3" font-family="Times,serif" font-size="14.00">aptos_governance</text>
</g>
<!-- genesis&#45;&gt;aptos_governance -->
<g id="edge13" class="edge">
<title>genesis&#45;&gt;aptos_governance</title>
<path fill="none" stroke="black" d="M278.49,-218.15C267.77,-209.11 253.82,-197.35 241.56,-187.01"/>
<polygon fill="black" stroke="black" points="244.06,-184.54 234.16,-180.76 239.54,-189.89 244.06,-184.54"/>
</g>
<!-- consensus_config -->
<g id="node7" class="node">
<title>consensus_config</title>
<ellipse fill="none" stroke="black" cx="379.09" cy="-162" rx="73.39" ry="18"/>
<text text-anchor="middle" x="379.09" y="-158.3" font-family="Times,serif" font-size="14.00">consensus_config</text>
</g>
<!-- genesis&#45;&gt;consensus_config -->
<g id="edge14" class="edge">
<title>genesis&#45;&gt;consensus_config</title>
<path fill="none" stroke="black" d="M313.7,-218.15C324.42,-209.11 338.37,-197.35 350.63,-187.01"/>
<polygon fill="black" stroke="black" points="352.64,-189.89 358.03,-180.76 348.13,-184.54 352.64,-189.89"/>
</g>
<!-- gas_schedule -->
<g id="node8" class="node">
<title>gas_schedule</title>
<ellipse fill="none" stroke="black" cx="528.09" cy="-162" rx="57.69" ry="18"/>
<text text-anchor="middle" x="528.09" y="-158.3" font-family="Times,serif" font-size="14.00">gas_schedule</text>
</g>
<!-- genesis&#45;&gt;gas_schedule -->
<g id="edge15" class="edge">
<title>genesis&#45;&gt;gas_schedule</title>
<path fill="none" stroke="black" d="M326.42,-223.85C364.55,-212.35 430.57,-192.42 476.65,-178.52"/>
<polygon fill="black" stroke="black" points="477.6,-181.89 486.17,-175.65 475.58,-175.19 477.6,-181.89"/>
</g>
<!-- version -->
<g id="node9" class="node">
<title>version</title>
<ellipse fill="none" stroke="black" cx="640.09" cy="-162" rx="36.29" ry="18"/>
<text text-anchor="middle" x="640.09" y="-158.3" font-family="Times,serif" font-size="14.00">version</text>
</g>
<!-- genesis&#45;&gt;version -->
<g id="edge16" class="edge">
<title>genesis&#45;&gt;version</title>
<path fill="none" stroke="black" d="M331.09,-228.94C387.4,-221.93 501.31,-205.79 595.09,-180 597.36,-179.38 599.67,-178.69 601.99,-177.95"/>
<polygon fill="black" stroke="black" points="603,-181.3 611.32,-174.74 600.73,-174.68 603,-181.3"/>
</g>
<!-- aptos_governance&#45;&gt;reconfiguration -->
<g id="edge5" class="edge">
<title>aptos_governance&#45;&gt;reconfiguration</title>
<path fill="none" stroke="black" d="M213.09,-143.7C213.09,-136.41 213.09,-127.73 213.09,-119.54"/>
<polygon fill="black" stroke="black" points="216.59,-119.62 213.09,-109.62 209.59,-119.62 216.59,-119.62"/>
</g>
<!-- consensus_config&#45;&gt;reconfiguration -->
<g id="edge7" class="edge">
<title>consensus_config&#45;&gt;reconfiguration</title>
<path fill="none" stroke="black" d="M343.48,-145.98C318.5,-135.45 284.91,-121.29 258.08,-109.97"/>
<polygon fill="black" stroke="black" points="259.76,-106.88 249.19,-106.22 257.04,-113.33 259.76,-106.88"/>
</g>
<!-- gas_schedule&#45;&gt;reconfiguration -->
<g id="edge8" class="edge">
<title>gas_schedule&#45;&gt;reconfiguration</title>
<path fill="none" stroke="black" d="M484.9,-149.78C476.99,-147.8 468.81,-145.8 461.09,-144 398.12,-129.29 325.76,-114.01 275.52,-103.66"/>
<polygon fill="black" stroke="black" points="276.5,-100.29 266,-101.7 275.09,-107.14 276.5,-100.29"/>
</g>
<!-- version&#45;&gt;reconfiguration -->
<g id="edge9" class="edge">
<title>version&#45;&gt;reconfiguration</title>
<path fill="none" stroke="black" d="M613.28,-149.75C607.37,-147.59 601.08,-145.53 595.09,-144 489.66,-117.13 364.15,-103.02 286.54,-96.29"/>
<polygon fill="black" stroke="black" points="287.21,-92.84 276.95,-95.48 286.62,-99.81 287.21,-92.84"/>
</g>
</g>
</svg>
