<?xml version="1.0" encoding="UTF-8" standalone="no"?>
<!DOCTYPE svg PUBLIC "-//W3C//DTD SVG 1.1//EN"
 "http://www.w3.org/Graphics/SVG/1.1/DTD/svg11.dtd">
<!-- Generated by graphviz version 7.0.4 (20221203.1631)
 -->
<!-- Title: G Pages: 1 -->
<svg width="369pt" height="362pt"
 viewBox="0.00 0.00 369.00 362.00" xmlns="http://www.w3.org/2000/svg" xmlns:xlink="http://www.w3.org/1999/xlink">
<g id="graph0" class="graph" transform="scale(1 1) rotate(0) translate(4 358)">
<title>G</title>
<polygon fill="white" stroke="none" points="-4,4 -4,-358 365,-358 365,4 -4,4"/>
<g id="clust1" class="cluster">
<title>cluster_coin</title>
<polygon fill="none" stroke="black" points="47,-163 47,-310 353,-310 353,-163 47,-163"/>
<text text-anchor="middle" x="200" y="-294.8" font-family="Times,serif" font-size="14.00">coin</text>
</g>
<g id="clust2" class="cluster">
<title>cluster_error</title>
<polygon fill="none" stroke="black" points="8,-8 8,-155 170,-155 170,-8 8,-8"/>
<text text-anchor="middle" x="89" y="-139.8" font-family="Times,serif" font-size="14.00">error</text>
</g>
<g id="clust3" class="cluster">
<title>cluster_aggregator</title>
<polygon fill="none" stroke="black" points="206,-80 206,-155 280,-155 280,-80 206,-80"/>
<text text-anchor="middle" x="243" y="-139.8" font-family="Times,serif" font-size="14.00">aggregator</text>
</g>
<!-- collect_fee -->
<g id="node1" class="node">
<title>collect_fee</title>
<ellipse fill="none" stroke="black" cx="200" cy="-336" rx="49.29" ry="18"/>
<text text-anchor="middle" x="200" y="-332.3" font-family="Times,serif" font-size="14.00">collect_fee</text>
</g>
<!-- coin::collect_into_aggregatable_coin -->
<g id="node2" class="node">
<title>coin::collect_into_aggregatable_coin</title>
<ellipse fill="none" stroke="black" cx="200" cy="-261" rx="120.78" ry="18"/>
<text text-anchor="middle" x="200" y="-257.3" font-family="Times,serif" font-size="14.00">collect_into_aggregatable_coin</text>
</g>
<!-- collect_fee&#45;&gt;coin::collect_into_aggregatable_coin -->
<g id="edge1" class="edge">
<title>collect_fee&#45;&gt;coin::collect_into_aggregatable_coin</title>
<path fill="none" stroke="black" d="M200,-317.7C200,-309.67 200,-299.9 200,-290.8"/>
<polygon fill="black" stroke="black" points="203.5,-290.94 200,-280.94 196.5,-290.94 203.5,-290.94"/>
</g>
<!-- coin::extract -->
<g id="node3" class="node">
<title>coin::extract</title>
<ellipse fill="none" stroke="black" cx="89" cy="-189" rx="34.39" ry="18"/>
<text text-anchor="middle" x="89" y="-185.3" font-family="Times,serif" font-size="14.00">extract</text>
</g>
<!-- coin::collect_into_aggregatable_coin&#45;&gt;coin::extract -->
<g id="edge2" class="edge">
<title>coin::collect_into_aggregatable_coin&#45;&gt;coin::extract</title>
<path fill="none" stroke="black" d="M173.13,-243.05C157.04,-232.91 136.53,-219.97 119.79,-209.41"/>
<polygon fill="black" stroke="black" points="122.03,-206.69 111.71,-204.32 118.3,-212.61 122.03,-206.69"/>
</g>
<!-- coin::merge_aggregatable_coin -->
<g id="node4" class="node">
<title>coin::merge_aggregatable_coin</title>
<ellipse fill="none" stroke="black" cx="243" cy="-189" rx="102.08" ry="18"/>
<text text-anchor="middle" x="243" y="-185.3" font-family="Times,serif" font-size="14.00">merge_aggregatable_coin</text>
</g>
<!-- coin::collect_into_aggregatable_coin&#45;&gt;coin::merge_aggregatable_coin -->
<g id="edge3" class="edge">
<title>coin::collect_into_aggregatable_coin&#45;&gt;coin::merge_aggregatable_coin</title>
<path fill="none" stroke="black" d="M210.63,-242.7C215.42,-234.9 221.19,-225.51 226.52,-216.83"/>
<polygon fill="black" stroke="black" points="229.45,-218.75 231.7,-208.39 223.48,-215.08 229.45,-218.75"/>
</g>
<!-- error::invalid_argument -->
<g id="node5" class="node">
<title>error::invalid_argument</title>
<ellipse fill="none" stroke="black" cx="89" cy="-106" rx="73.39" ry="18"/>
<text text-anchor="middle" x="89" y="-102.3" font-family="Times,serif" font-size="14.00">invalid_argument</text>
</g>
<!-- coin::extract&#45;&gt;error::invalid_argument -->
<g id="edge4" class="edge">
<title>coin::extract&#45;&gt;error::invalid_argument</title>
<path fill="none" stroke="black" d="M89,-170.82C89,-160.69 89,-147.6 89,-135.92"/>
<polygon fill="black" stroke="black" points="92.5,-135.95 89,-125.95 85.5,-135.95 92.5,-135.95"/>
</g>
<!-- aggregator::add -->
<g id="node6" class="node">
<title>aggregator::add</title>
<ellipse fill="none" stroke="black" cx="243" cy="-106" rx="27" ry="18"/>
<text text-anchor="middle" x="243" y="-102.3" font-family="Times,serif" font-size="14.00">add</text>
</g>
<!-- coin::merge_aggregatable_coin&#45;&gt;aggregator::add -->
<g id="edge5" class="edge">
<title>coin::merge_aggregatable_coin&#45;&gt;aggregator::add</title>
<path fill="none" stroke="black" d="M243,-170.82C243,-160.69 243,-147.6 243,-135.92"/>
<polygon fill="black" stroke="black" points="246.5,-135.95 243,-125.95 239.5,-135.95 246.5,-135.95"/>
</g>
<!-- error::canonical -->
<g id="node7" class="node">
<title>error::canonical</title>
<ellipse fill="none" stroke="black" cx="89" cy="-34" rx="44.39" ry="18"/>
<text text-anchor="middle" x="89" y="-30.3" font-family="Times,serif" font-size="14.00">canonical</text>
</g>
<!-- error::invalid_argument&#45;&gt;error::canonical -->
<g id="edge6" class="edge">
<title>error::invalid_argument&#45;&gt;error::canonical</title>
<path fill="none" stroke="black" d="M89,-87.7C89,-80.41 89,-71.73 89,-63.54"/>
<polygon fill="black" stroke="black" points="92.5,-63.62 89,-53.62 85.5,-63.62 92.5,-63.62"/>
</g>
</g>
</svg>
