<?xml version="1.0" encoding="UTF-8" standalone="no"?>
<!DOCTYPE svg PUBLIC "-//W3C//DTD SVG 1.1//EN"
 "http://www.w3.org/Graphics/SVG/1.1/DTD/svg11.dtd">
<!-- Generated by graphviz version 7.0.4 (20221203.1631)
 -->
<!-- Title: G Pages: 1 -->
<svg width="796pt" height="459pt"
 viewBox="0.00 0.00 795.96 459.00" xmlns="http://www.w3.org/2000/svg" xmlns:xlink="http://www.w3.org/1999/xlink">
<g id="graph0" class="graph" transform="scale(1 1) rotate(0) translate(4 455)">
<title>G</title>
<polygon fill="white" stroke="none" points="-4,4 -4,-455 791.96,-455 791.96,4 -4,4"/>
<g id="clust1" class="cluster">
<title>cluster_error</title>
<polygon fill="none" stroke="black" points="8,-8 8,-166 304,-166 304,-8 8,-8"/>
<text text-anchor="middle" x="156" y="-150.8" font-family="Times,serif" font-size="14.00">error</text>
</g>
<g id="clust2" class="cluster">
<title>cluster_coin</title>
<polygon fill="none" stroke="black" points="363,-257 363,-407 597,-407 597,-257 363,-257"/>
<text text-anchor="middle" x="480" y="-391.8" font-family="Times,serif" font-size="14.00">coin</text>
</g>
<g id="clust3" class="cluster">
<title>cluster_option</title>
<polygon fill="none" stroke="black" points="387,-91 387,-249 513,-249 513,-91 387,-91"/>
<text text-anchor="middle" x="450" y="-233.8" font-family="Times,serif" font-size="14.00">option</text>
</g>
<g id="clust5" class="cluster">
<title>cluster_vector</title>
<polygon fill="none" stroke="black" points="398,-8 398,-83 502,-83 502,-8 398,-8"/>
<text text-anchor="middle" x="450" y="-67.8" font-family="Times,serif" font-size="14.00">vector</text>
</g>
<g id="clust6" class="cluster">
<title>cluster_aggregator</title>
<polygon fill="none" stroke="black" points="145,-174 145,-249 219,-249 219,-174 145,-174"/>
<text text-anchor="middle" x="182" y="-233.8" font-family="Times,serif" font-size="14.00">aggregator</text>
</g>
<g id="clust7" class="cluster">
<title>cluster_type_info</title>
<polygon fill="none" stroke="black" points="521,-174 521,-249 769,-249 769,-174 521,-174"/>
<text text-anchor="middle" x="645" y="-233.8" font-family="Times,serif" font-size="14.00">type_info</text>
</g>
<g id="clust4" class="cluster">
<title>cluster_optional_aggregator</title>
<polygon fill="none" stroke="black" points="227,-174 227,-332 352,-332 352,-174 227,-174"/>
<text text-anchor="middle" x="289.5" y="-316.8" font-family="Times,serif" font-size="14.00">optional_aggregator</text>
</g>
<!-- burn_coin_fraction -->
<g id="node1" class="node">
<title>burn_coin_fraction</title>
<ellipse fill="none" stroke="black" cx="444" cy="-433" rx="77.99" ry="18"/>
<text text-anchor="middle" x="444" y="-429.3" font-family="Times,serif" font-size="14.00">burn_coin_fraction</text>
</g>
<!-- error::out_of_range -->
<g id="node2" class="node">
<title>error::out_of_range</title>
<ellipse fill="none" stroke="black" cx="238" cy="-117" rx="57.69" ry="18"/>
<text text-anchor="middle" x="238" y="-113.3" font-family="Times,serif" font-size="14.00">out_of_range</text>
</g>
<!-- burn_coin_fraction&#45;&gt;error::out_of_range -->
<g id="edge1" class="edge">
<title>burn_coin_fraction&#45;&gt;error::out_of_range</title>
<path fill="none" stroke="black" d="M389.28,-419.82C313.91,-399.55 182.73,-350.61 141,-249 128.34,-218.17 120.69,-200.43 141,-174 149.41,-163.06 158.52,-171.89 171,-166 184.89,-159.44 198.9,-149.95 210.5,-141.13"/>
<polygon fill="black" stroke="black" points="212.34,-144.14 218.05,-135.21 208.02,-138.63 212.34,-144.14"/>
</g>
<!-- coin::extract -->
<g id="node3" class="node">
<title>coin::extract</title>
<ellipse fill="none" stroke="black" cx="405" cy="-358" rx="34.39" ry="18"/>
<text text-anchor="middle" x="405" y="-354.3" font-family="Times,serif" font-size="14.00">extract</text>
</g>
<!-- burn_coin_fraction&#45;&gt;coin::extract -->
<g id="edge2" class="edge">
<title>burn_coin_fraction&#45;&gt;coin::extract</title>
<path fill="none" stroke="black" d="M434.76,-414.7C430.13,-406.03 424.41,-395.34 419.24,-385.65"/>
<polygon fill="black" stroke="black" points="422.42,-384.18 414.62,-377.01 416.25,-387.48 422.42,-384.18"/>
</g>
<!-- coin::value -->
<g id="node4" class="node">
<title>coin::value</title>
<ellipse fill="none" stroke="black" cx="559" cy="-358" rx="29.8" ry="18"/>
<text text-anchor="middle" x="559" y="-354.3" font-family="Times,serif" font-size="14.00">value</text>
</g>
<!-- burn_coin_fraction&#45;&gt;coin::value -->
<g id="edge3" class="edge">
<title>burn_coin_fraction&#45;&gt;coin::value</title>
<path fill="none" stroke="black" d="M496.17,-419.26C504.53,-416 512.79,-411.96 520,-407 528.64,-401.05 536.37,-392.64 542.63,-384.52"/>
<polygon fill="black" stroke="black" points="545.38,-386.69 548.37,-376.52 539.7,-382.6 545.38,-386.69"/>
</g>
<!-- coin::burn -->
<g id="node5" class="node">
<title>coin::burn</title>
<ellipse fill="none" stroke="black" cx="484" cy="-358" rx="27" ry="18"/>
<text text-anchor="middle" x="484" y="-354.3" font-family="Times,serif" font-size="14.00">burn</text>
</g>
<!-- burn_coin_fraction&#45;&gt;coin::burn -->
<g id="edge4" class="edge">
<title>burn_coin_fraction&#45;&gt;coin::burn</title>
<path fill="none" stroke="black" d="M453.48,-414.7C458.3,-405.91 464.25,-395.03 469.62,-385.24"/>
<polygon fill="black" stroke="black" points="472.67,-386.95 474.41,-376.5 466.53,-383.59 472.67,-386.95"/>
</g>
<!-- error::canonical -->
<g id="node6" class="node">
<title>error::canonical</title>
<ellipse fill="none" stroke="black" cx="163" cy="-34" rx="44.39" ry="18"/>
<text text-anchor="middle" x="163" y="-30.3" font-family="Times,serif" font-size="14.00">canonical</text>
</g>
<!-- error::out_of_range&#45;&gt;error::canonical -->
<g id="edge5" class="edge">
<title>error::out_of_range&#45;&gt;error::canonical</title>
<path fill="none" stroke="black" d="M222.46,-99.22C211.86,-87.77 197.65,-72.42 185.78,-59.6"/>
<polygon fill="black" stroke="black" points="188.4,-57.28 179.04,-52.32 183.26,-62.04 188.4,-57.28"/>
</g>
<!-- error::invalid_argument -->
<g id="node7" class="node">
<title>error::invalid_argument</title>
<ellipse fill="none" stroke="black" cx="89" cy="-117" rx="73.39" ry="18"/>
<text text-anchor="middle" x="89" y="-113.3" font-family="Times,serif" font-size="14.00">invalid_argument</text>
</g>
<!-- coin::extract&#45;&gt;error::invalid_argument -->
<g id="edge6" class="edge">
<title>coin::extract&#45;&gt;error::invalid_argument</title>
<path fill="none" stroke="black" d="M370.44,-356.45C297.1,-354.96 131.11,-349.64 113,-332 63.22,-283.51 73.08,-192.61 82.21,-146.45"/>
<polygon fill="black" stroke="black" points="85.63,-147.2 84.29,-136.69 78.78,-145.75 85.63,-147.2"/>
</g>
<!-- coin::burn&#45;&gt;error::invalid_argument -->
<g id="edge9" class="edge">
<title>coin::burn&#45;&gt;error::invalid_argument</title>
<path fill="none" stroke="black" d="M463.59,-345.62C458.63,-343.35 453.24,-341.27 448,-340 423.69,-334.09 245.91,-342.05 223,-332 146.63,-298.49 109.77,-196.6 95.86,-146.47"/>
<polygon fill="black" stroke="black" points="99.28,-145.71 93.34,-136.93 92.52,-147.5 99.28,-145.71"/>
</g>
<!-- option::borrow_mut -->
<g id="node8" class="node">
<title>option::borrow_mut</title>
<ellipse fill="none" stroke="black" cx="450" cy="-200" rx="54.69" ry="18"/>
<text text-anchor="middle" x="450" y="-196.3" font-family="Times,serif" font-size="14.00">borrow_mut</text>
</g>
<!-- coin::burn&#45;&gt;option::borrow_mut -->
<g id="edge7" class="edge">
<title>coin::burn&#45;&gt;option::borrow_mut</title>
<path fill="none" stroke="black" d="M471.28,-341.83C469.22,-338.74 467.32,-335.39 466,-332 452.9,-298.51 449.85,-256.84 449.45,-229.61"/>
<polygon fill="black" stroke="black" points="452.95,-229.7 449.43,-219.71 445.95,-229.72 452.95,-229.7"/>
</g>
<!-- option::is_some -->
<g id="node9" class="node">
<title>option::is_some</title>
<ellipse fill="none" stroke="black" cx="450" cy="-117" rx="40.09" ry="18"/>
<text text-anchor="middle" x="450" y="-113.3" font-family="Times,serif" font-size="14.00">is_some</text>
</g>
<!-- coin::burn&#45;&gt;option::is_some -->
<g id="edge8" class="edge">
<title>coin::burn&#45;&gt;option::is_some</title>
<path fill="none" stroke="black" d="M504.48,-345.87C509.44,-343.59 514.81,-341.45 520,-340 553.57,-330.65 564.44,-341.38 598,-332 680.91,-308.83 726.99,-321.75 773,-249 790.82,-220.83 794.46,-199.5 773,-174 738.91,-133.49 583.77,-122.29 501.53,-119.19"/>
<polygon fill="black" stroke="black" points="501.82,-115.69 491.7,-118.84 501.58,-122.69 501.82,-115.69"/>
</g>
<!-- optional_aggregator::sub -->
<g id="node10" class="node">
<title>optional_aggregator::sub</title>
<ellipse fill="none" stroke="black" cx="317" cy="-283" rx="27" ry="18"/>
<text text-anchor="middle" x="317" y="-279.3" font-family="Times,serif" font-size="14.00">sub</text>
</g>
<!-- coin::burn&#45;&gt;optional_aggregator::sub -->
<g id="edge10" class="edge">
<title>coin::burn&#45;&gt;optional_aggregator::sub</title>
<path fill="none" stroke="black" d="M463.54,-345.82C458.58,-343.54 453.2,-341.41 448,-340 409.68,-329.58 394.39,-350.01 359,-332 348.85,-326.84 340.08,-318.08 333.22,-309.45"/>
<polygon fill="black" stroke="black" points="336.16,-307.54 327.44,-301.53 330.51,-311.67 336.16,-307.54"/>
</g>
<!-- coin::coin_address -->
<g id="node11" class="node">
<title>coin::coin_address</title>
<ellipse fill="none" stroke="black" cx="532" cy="-283" rx="56.59" ry="18"/>
<text text-anchor="middle" x="532" y="-279.3" font-family="Times,serif" font-size="14.00">coin_address</text>
</g>
<!-- coin::burn&#45;&gt;coin::coin_address -->
<g id="edge11" class="edge">
<title>coin::burn&#45;&gt;coin::coin_address</title>
<path fill="none" stroke="black" d="M494.42,-341.16C500.31,-332.2 507.83,-320.76 514.59,-310.47"/>
<polygon fill="black" stroke="black" points="517.37,-312.63 519.94,-302.35 511.52,-308.78 517.37,-312.63"/>
</g>
<!-- error::invalid_argument&#45;&gt;error::canonical -->
<g id="edge12" class="edge">
<title>error::invalid_argument&#45;&gt;error::canonical</title>
<path fill="none" stroke="black" d="M104.33,-99.22C114.79,-87.77 128.81,-72.42 140.52,-59.6"/>
<polygon fill="black" stroke="black" points="143.01,-62.07 147.17,-52.33 137.84,-57.35 143.01,-62.07"/>
</g>
<!-- option::borrow_mut&#45;&gt;option::is_some -->
<g id="edge13" class="edge">
<title>option::borrow_mut&#45;&gt;option::is_some</title>
<path fill="none" stroke="black" d="M450,-181.82C450,-171.69 450,-158.6 450,-146.92"/>
<polygon fill="black" stroke="black" points="453.5,-146.95 450,-136.95 446.5,-146.95 453.5,-146.95"/>
</g>
<!-- vector::is_empty -->
<g id="node12" class="node">
<title>vector::is_empty</title>
<ellipse fill="none" stroke="black" cx="450" cy="-34" rx="43.59" ry="18"/>
<text text-anchor="middle" x="450" y="-30.3" font-family="Times,serif" font-size="14.00">is_empty</text>
</g>
<!-- option::is_some&#45;&gt;vector::is_empty -->
<g id="edge14" class="edge">
<title>option::is_some&#45;&gt;vector::is_empty</title>
<path fill="none" stroke="black" d="M450,-98.82C450,-88.69 450,-75.6 450,-63.92"/>
<polygon fill="black" stroke="black" points="453.5,-63.95 450,-53.95 446.5,-63.95 453.5,-63.95"/>
</g>
<!-- optional_aggregator::sub&#45;&gt;option::borrow_mut -->
<g id="edge15" class="edge">
<title>optional_aggregator::sub&#45;&gt;option::borrow_mut</title>
<path fill="none" stroke="black" d="M335.82,-269.77C342.92,-265.43 351.18,-260.71 359,-257 368.4,-252.54 371.76,-253.79 381,-249 394.7,-241.9 408.85,-232.47 420.75,-223.86"/>
<polygon fill="black" stroke="black" points="422.59,-226.85 428.54,-218.08 418.42,-221.23 422.59,-226.85"/>
</g>
<!-- optional_aggregator::sub&#45;&gt;option::is_some -->
<g id="edge16" class="edge">
<title>optional_aggregator::sub&#45;&gt;option::is_some</title>
<path fill="none" stroke="black" d="M332.16,-267.67C337.54,-262.14 343.4,-255.56 348,-249 369.45,-218.41 363.08,-203.51 386,-174 395.79,-161.4 408.73,-149.45 420.4,-139.86"/>
<polygon fill="black" stroke="black" points="422.58,-142.6 428.23,-133.64 418.22,-137.12 422.58,-142.6"/>
</g>
<!-- aggregator::sub -->
<g id="node13" class="node">
<title>aggregator::sub</title>
<ellipse fill="none" stroke="black" cx="184" cy="-200" rx="27" ry="18"/>
<text text-anchor="middle" x="184" y="-196.3" font-family="Times,serif" font-size="14.00">sub</text>
</g>
<!-- optional_aggregator::sub&#45;&gt;aggregator::sub -->
<g id="edge17" class="edge">
<title>optional_aggregator::sub&#45;&gt;aggregator::sub</title>
<path fill="none" stroke="black" d="M291.29,-277.01C271.32,-272.22 243.65,-263.53 223,-249 214.42,-242.96 206.7,-234.54 200.44,-226.43"/>
<polygon fill="black" stroke="black" points="203.37,-224.51 194.69,-218.44 197.7,-228.6 203.37,-224.51"/>
</g>
<!-- optional_aggregator::sub_integer -->
<g id="node14" class="node">
<title>optional_aggregator::sub_integer</title>
<ellipse fill="none" stroke="black" cx="287" cy="-200" rx="51.99" ry="18"/>
<text text-anchor="middle" x="287" y="-196.3" font-family="Times,serif" font-size="14.00">sub_integer</text>
</g>
<!-- optional_aggregator::sub&#45;&gt;optional_aggregator::sub_integer -->
<g id="edge18" class="edge">
<title>optional_aggregator::sub&#45;&gt;optional_aggregator::sub_integer</title>
<path fill="none" stroke="black" d="M310.78,-265.22C306.89,-254.72 301.79,-240.93 297.3,-228.82"/>
<polygon fill="black" stroke="black" points="300.7,-227.9 293.94,-219.74 294.13,-230.33 300.7,-227.9"/>
</g>
<!-- type_info::account_address -->
<g id="node15" class="node">
<title>type_info::account_address</title>
<ellipse fill="none" stroke="black" cx="692" cy="-200" rx="68.79" ry="18"/>
<text text-anchor="middle" x="692" y="-196.3" font-family="Times,serif" font-size="14.00">account_address</text>
</g>
<!-- coin::coin_address&#45;&gt;type_info::account_address -->
<g id="edge19" class="edge">
<title>coin::coin_address&#45;&gt;type_info::account_address</title>
<path fill="none" stroke="black" d="M568.51,-268.83C582.92,-263.24 599.48,-256.33 614,-249 629.08,-241.39 645.07,-231.84 658.63,-223.26"/>
<polygon fill="black" stroke="black" points="660.22,-226.39 666.74,-218.04 656.44,-220.5 660.22,-226.39"/>
</g>
<!-- type_info::type_of -->
<g id="node16" class="node">
<title>type_info::type_of</title>
<ellipse fill="none" stroke="black" cx="567" cy="-200" rx="37.89" ry="18"/>
<text text-anchor="middle" x="567" y="-196.3" font-family="Times,serif" font-size="14.00">type_of</text>
</g>
<!-- coin::coin_address&#45;&gt;type_info::type_of -->
<g id="edge20" class="edge">
<title>coin::coin_address&#45;&gt;type_info::type_of</title>
<path fill="none" stroke="black" d="M539.42,-264.82C544,-254.23 549.97,-240.4 555.19,-228.33"/>
<polygon fill="black" stroke="black" points="558.35,-229.83 559.11,-219.26 551.93,-227.06 558.35,-229.83"/>
</g>
<!-- optional_aggregator::sub_integer&#45;&gt;error::out_of_range -->
<g id="edge21" class="edge">
<title>optional_aggregator::sub_integer&#45;&gt;error::out_of_range</title>
<path fill="none" stroke="black" d="M276.85,-182.22C270.32,-171.43 261.7,-157.17 254.23,-144.84"/>
<polygon fill="black" stroke="black" points="257.26,-143.08 249.09,-136.34 251.27,-146.7 257.26,-143.08"/>
</g>
</g>
</svg>
