<?xml version="1.0" encoding="UTF-8" standalone="no"?>
<!DOCTYPE svg PUBLIC "-//W3C//DTD SVG 1.1//EN"
 "http://www.w3.org/Graphics/SVG/1.1/DTD/svg11.dtd">
<!-- Generated by graphviz version 7.0.4 (20221203.1631)
 -->
<!-- Title: G Pages: 1 -->
<svg width="2172pt" height="764pt"
 viewBox="0.00 0.00 2172.16 764.00" xmlns="http://www.w3.org/2000/svg" xmlns:xlink="http://www.w3.org/1999/xlink">
<g id="graph0" class="graph" transform="scale(1 1) rotate(0) translate(4 760)">
<title>G</title>
<polygon fill="white" stroke="none" points="-4,4 -4,-760 2168.16,-760 2168.16,4 -4,4"/>
<!-- transaction_fee -->
<g id="node1" class="node">
<title>transaction_fee</title>
<ellipse fill="none" stroke="black" cx="1158.19" cy="-738" rx="64.19" ry="18"/>
<text text-anchor="middle" x="1158.19" y="-734.3" font-family="Times,serif" font-size="14.00">transaction_fee</text>
</g>
<!-- option -->
<g id="node2" class="node">
<title>option</title>
<ellipse fill="none" stroke="black" cx="258.19" cy="-90" rx="33.29" ry="18"/>
<text text-anchor="middle" x="258.19" y="-86.3" font-family="Times,serif" font-size="14.00">option</text>
</g>
<!-- transaction_fee&#45;&gt;option -->
<g id="edge1" class="edge">
<title>transaction_fee&#45;&gt;option</title>
<path fill="none" stroke="black" d="M1094.28,-735.94C851.52,-731.09 0.19,-706.15 0.19,-595 0.19,-595 0.19,-595 0.19,-377 0.19,-268.21 -2.86,-219.78 75.19,-144 95.14,-124.63 167.83,-107.84 215.37,-98.6"/>
<polygon fill="black" stroke="black" points="215.91,-102.06 225.08,-96.75 214.61,-95.18 215.91,-102.06"/>
</g>
<!-- error -->
<g id="node3" class="node">
<title>error</title>
<ellipse fill="none" stroke="black" cx="1122.19" cy="-90" rx="27.9" ry="18"/>
<text text-anchor="middle" x="1122.19" y="-86.3" font-family="Times,serif" font-size="14.00">error</text>
</g>
<!-- transaction_fee&#45;&gt;error -->
<g id="edge2" class="edge">
<title>transaction_fee&#45;&gt;error</title>
<path fill="none" stroke="black" d="M1221.33,-734.14C1432.09,-723.76 2098.19,-683.92 2098.19,-595 2098.19,-595 2098.19,-595 2098.19,-233 2098.19,-188.04 2342.12,-244.76 1886.19,-144 1745.83,-112.98 1297.54,-96.55 1161.63,-92.19"/>
<polygon fill="black" stroke="black" points="1161.81,-88.7 1151.7,-91.88 1161.59,-95.69 1161.81,-88.7"/>
</g>
<!-- system_addresses -->
<g id="node4" class="node">
<title>system_addresses</title>
<ellipse fill="none" stroke="black" cx="1699.19" cy="-306" rx="73.39" ry="18"/>
<text text-anchor="middle" x="1699.19" y="-302.3" font-family="Times,serif" font-size="14.00">system_addresses</text>
</g>
<!-- transaction_fee&#45;&gt;system_addresses -->
<g id="edge3" class="edge">
<title>transaction_fee&#45;&gt;system_addresses</title>
<path fill="none" stroke="black" d="M1220.49,-733.31C1362.7,-723.56 1704.92,-692.12 1782.19,-612 1860.87,-530.42 1883.35,-454.77 1821.19,-360 1808.9,-341.25 1788.38,-329.1 1767.65,-321.24"/>
<polygon fill="black" stroke="black" points="1768.86,-317.96 1758.26,-318 1766.57,-324.57 1768.86,-317.96"/>
</g>
<!-- coin -->
<g id="node5" class="node">
<title>coin</title>
<ellipse fill="none" stroke="black" cx="741.19" cy="-522" rx="27" ry="18"/>
<text text-anchor="middle" x="741.19" y="-518.3" font-family="Times,serif" font-size="14.00">coin</text>
</g>
<!-- transaction_fee&#45;&gt;coin -->
<g id="edge4" class="edge">
<title>transaction_fee&#45;&gt;coin</title>
<path fill="none" stroke="black" d="M1109.56,-725.88C1042.78,-709.01 920.89,-672.36 832.19,-612 814.25,-599.79 814.55,-591.34 799.19,-576 788.41,-565.23 775.99,-553.77 765.42,-544.27"/>
<polygon fill="black" stroke="black" points="767.97,-541.86 758.18,-537.81 763.31,-547.08 767.97,-541.86"/>
</g>
<!-- aptos_coin -->
<g id="node6" class="node">
<title>aptos_coin</title>
<ellipse fill="none" stroke="black" cx="741.19" cy="-594" rx="48.99" ry="18"/>
<text text-anchor="middle" x="741.19" y="-590.3" font-family="Times,serif" font-size="14.00">aptos_coin</text>
</g>
<!-- transaction_fee&#45;&gt;aptos_coin -->
<g id="edge5" class="edge">
<title>transaction_fee&#45;&gt;aptos_coin</title>
<path fill="none" stroke="black" d="M1095.71,-733.51C1007.48,-727.61 851.82,-713.31 804.19,-684 780.82,-669.62 763.72,-642.99 753.28,-622.59"/>
<polygon fill="black" stroke="black" points="756.47,-621.14 748.96,-613.67 750.17,-624.2 756.47,-621.14"/>
</g>
<!-- stake -->
<g id="node7" class="node">
<title>stake</title>
<ellipse fill="none" stroke="black" cx="1517.19" cy="-666" rx="28.7" ry="18"/>
<text text-anchor="middle" x="1517.19" y="-662.3" font-family="Times,serif" font-size="14.00">stake</text>
</g>
<!-- transaction_fee&#45;&gt;stake -->
<g id="edge6" class="edge">
<title>transaction_fee&#45;&gt;stake</title>
<path fill="none" stroke="black" d="M1209.63,-726.97C1282.6,-712.74 1414.51,-687.02 1479.25,-674.4"/>
<polygon fill="black" stroke="black" points="1479.53,-677.91 1488.68,-672.56 1478.19,-671.04 1479.53,-677.91"/>
</g>
<!-- vector -->
<g id="node8" class="node">
<title>vector</title>
<ellipse fill="none" stroke="black" cx="410.19" cy="-18" rx="32.49" ry="18"/>
<text text-anchor="middle" x="410.19" y="-14.3" font-family="Times,serif" font-size="14.00">vector</text>
</g>
<!-- option&#45;&gt;vector -->
<g id="edge7" class="edge">
<title>option&#45;&gt;vector</title>
<path fill="none" stroke="black" d="M282.95,-77.6C308.16,-65.99 347.46,-47.89 375.71,-34.88"/>
<polygon fill="black" stroke="black" points="376.95,-38.16 384.57,-30.8 374.02,-31.8 376.95,-38.16"/>
</g>
<!-- system_addresses&#45;&gt;error -->
<g id="edge9" class="edge">
<title>system_addresses&#45;&gt;error</title>
<path fill="none" stroke="black" d="M1698.75,-287.76C1696.88,-254.06 1687.54,-179.63 1642.19,-144 1604.59,-114.45 1276.36,-97.63 1161.6,-92.61"/>
<polygon fill="black" stroke="black" points="1161.89,-89.12 1151.75,-92.19 1161.59,-96.11 1161.89,-89.12"/>
</g>
<!-- signer -->
<g id="node9" class="node">
<title>signer</title>
<ellipse fill="none" stroke="black" cx="965.19" cy="-90" rx="32.49" ry="18"/>
<text text-anchor="middle" x="965.19" y="-86.3" font-family="Times,serif" font-size="14.00">signer</text>
</g>
<!-- system_addresses&#45;&gt;signer -->
<g id="edge8" class="edge">
<title>system_addresses&#45;&gt;signer</title>
<path fill="none" stroke="black" d="M1683.01,-288.12C1663.37,-268.46 1628.47,-236.11 1593.19,-216 1392.66,-101.69 1314.08,-137.81 1085.19,-108 1059.31,-104.63 1030.33,-100.53 1007.34,-97.21"/>
<polygon fill="black" stroke="black" points="1008.14,-93.79 997.74,-95.81 1007.13,-100.71 1008.14,-93.79"/>
</g>
<!-- coin&#45;&gt;option -->
<g id="edge10" class="edge">
<title>coin&#45;&gt;option</title>
<path fill="none" stroke="black" d="M713.97,-520.85C631.51,-519.88 386.2,-513.19 323.19,-468 263.88,-425.46 245.52,-251.52 237.19,-180 235.34,-164.11 234.19,-159.72 237.19,-144 238.85,-135.31 241.91,-126.23 245.19,-118.09"/>
<polygon fill="black" stroke="black" points="248.33,-119.65 249.09,-109.08 241.9,-116.87 248.33,-119.65"/>
</g>
<!-- coin&#45;&gt;error -->
<g id="edge13" class="edge">
<title>coin&#45;&gt;error</title>
<path fill="none" stroke="black" d="M743.45,-503.88C752.28,-444.04 790.16,-242.52 910.19,-144 936.55,-122.36 1030.47,-104.97 1084.04,-96.54"/>
<polygon fill="black" stroke="black" points="1084.29,-100.04 1093.64,-95.06 1083.22,-93.12 1084.29,-100.04"/>
</g>
<!-- coin&#45;&gt;system_addresses -->
<g id="edge15" class="edge">
<title>coin&#45;&gt;system_addresses</title>
<path fill="none" stroke="black" d="M768.27,-520.03C845.3,-516.87 1071.99,-504.87 1256.19,-468 1364.97,-446.22 1391.06,-434.25 1495.19,-396 1551.96,-375.15 1615.57,-346.53 1656.43,-327.43"/>
<polygon fill="black" stroke="black" points="1657.89,-330.61 1665.45,-323.19 1654.91,-324.28 1657.89,-330.61"/>
</g>
<!-- coin&#45;&gt;signer -->
<g id="edge12" class="edge">
<title>coin&#45;&gt;signer</title>
<path fill="none" stroke="black" d="M713.74,-521.21C634.73,-521.21 409.1,-516.86 358.19,-468 254.22,-368.22 265.49,-243 370.19,-144 410.06,-106.31 790.57,-94.71 921.33,-91.83"/>
<polygon fill="black" stroke="black" points="921.03,-95.34 930.95,-91.62 920.88,-88.34 921.03,-95.34"/>
</g>
<!-- string -->
<g id="node10" class="node">
<title>string</title>
<ellipse fill="none" stroke="black" cx="410.19" cy="-162" rx="30.59" ry="18"/>
<text text-anchor="middle" x="410.19" y="-158.3" font-family="Times,serif" font-size="14.00">string</text>
</g>
<!-- coin&#45;&gt;string -->
<g id="edge11" class="edge">
<title>coin&#45;&gt;string</title>
<path fill="none" stroke="black" d="M713.96,-521.34C637.78,-521.63 425.26,-517.9 382.19,-468 312.99,-387.83 368.41,-247.8 396.43,-189.57"/>
<polygon fill="black" stroke="black" points="399.51,-191.24 400.8,-180.73 393.23,-188.15 399.51,-191.24"/>
</g>
<!-- type_info -->
<g id="node11" class="node">
<title>type_info</title>
<ellipse fill="none" stroke="black" cx="974.19" cy="-234" rx="44.39" ry="18"/>
<text text-anchor="middle" x="974.19" y="-230.3" font-family="Times,serif" font-size="14.00">type_info</text>
</g>
<!-- coin&#45;&gt;type_info -->
<g id="edge14" class="edge">
<title>coin&#45;&gt;type_info</title>
<path fill="none" stroke="black" d="M751.59,-504.9C777.16,-465.84 846.07,-363.67 915.19,-288 924.74,-277.54 936.14,-266.93 946.37,-257.98"/>
<polygon fill="black" stroke="black" points="948.52,-260.74 953.82,-251.57 943.96,-255.43 948.52,-260.74"/>
</g>
<!-- event -->
<g id="node12" class="node">
<title>event</title>
<ellipse fill="none" stroke="black" cx="1402.19" cy="-378" rx="29.8" ry="18"/>
<text text-anchor="middle" x="1402.19" y="-374.3" font-family="Times,serif" font-size="14.00">event</text>
</g>
<!-- coin&#45;&gt;event -->
<g id="edge16" class="edge">
<title>coin&#45;&gt;event</title>
<path fill="none" stroke="black" d="M768.44,-520.5C839.54,-518.62 1036.08,-509.74 1193.19,-468 1258.62,-450.62 1330.28,-416.53 1370.39,-395.96"/>
<polygon fill="black" stroke="black" points="1371.75,-399.19 1379.02,-391.48 1368.53,-392.98 1371.75,-399.19"/>
</g>
<!-- account -->
<g id="node13" class="node">
<title>account</title>
<ellipse fill="none" stroke="black" cx="1146.19" cy="-450" rx="38.19" ry="18"/>
<text text-anchor="middle" x="1146.19" y="-446.3" font-family="Times,serif" font-size="14.00">account</text>
</g>
<!-- coin&#45;&gt;account -->
<g id="edge17" class="edge">
<title>coin&#45;&gt;account</title>
<path fill="none" stroke="black" d="M767.14,-516.51C834.16,-504.93 1013.74,-473.89 1099.44,-459.08"/>
<polygon fill="black" stroke="black" points="1099.89,-462.55 1109.15,-457.4 1098.7,-455.66 1099.89,-462.55"/>
</g>
<!-- aggregator -->
<g id="node14" class="node">
<title>aggregator</title>
<ellipse fill="none" stroke="black" cx="448.19" cy="-306" rx="48.19" ry="18"/>
<text text-anchor="middle" x="448.19" y="-302.3" font-family="Times,serif" font-size="14.00">aggregator</text>
</g>
<!-- coin&#45;&gt;aggregator -->
<g id="edge18" class="edge">
<title>coin&#45;&gt;aggregator</title>
<path fill="none" stroke="black" d="M713.92,-521.11C640.21,-520.78 439.85,-515.45 399.19,-468 365.65,-428.86 401.61,-367.21 427.2,-332.66"/>
<polygon fill="black" stroke="black" points="429.86,-334.94 433.16,-324.87 424.3,-330.69 429.86,-334.94"/>
</g>
<!-- aggregator_factory -->
<g id="node15" class="node">
<title>aggregator_factory</title>
<ellipse fill="none" stroke="black" cx="561.19" cy="-378" rx="77.19" ry="18"/>
<text text-anchor="middle" x="561.19" y="-374.3" font-family="Times,serif" font-size="14.00">aggregator_factory</text>
</g>
<!-- coin&#45;&gt;aggregator_factory -->
<g id="edge19" class="edge">
<title>coin&#45;&gt;aggregator_factory</title>
<path fill="none" stroke="black" d="M724.26,-507.64C693.71,-483.54 629.04,-432.52 590.96,-402.48"/>
<polygon fill="black" stroke="black" points="593.55,-400.07 583.53,-396.62 589.21,-405.56 593.55,-400.07"/>
</g>
<!-- optional_aggregator -->
<g id="node16" class="node">
<title>optional_aggregator</title>
<ellipse fill="none" stroke="black" cx="489.19" cy="-450" rx="81.49" ry="18"/>
<text text-anchor="middle" x="489.19" y="-446.3" font-family="Times,serif" font-size="14.00">optional_aggregator</text>
</g>
<!-- coin&#45;&gt;optional_aggregator -->
<g id="edge20" class="edge">
<title>coin&#45;&gt;optional_aggregator</title>
<path fill="none" stroke="black" d="M716.57,-514.16C678.18,-503.5 602.94,-482.6 549.54,-467.76"/>
<polygon fill="black" stroke="black" points="550.52,-464.4 539.95,-465.1 548.65,-471.15 550.52,-464.4"/>
</g>
<!-- aptos_coin&#45;&gt;option -->
<g id="edge22" class="edge">
<title>aptos_coin&#45;&gt;option</title>
<path fill="none" stroke="black" d="M692.92,-590.23C599.93,-584.32 399.65,-568.62 337.19,-540 195.82,-475.23 76.19,-462.5 76.19,-307 76.19,-307 76.19,-307 76.19,-233 76.19,-192.03 72.11,-173.83 100.19,-144 129.72,-112.64 178.34,-99.83 213.86,-94.6"/>
<polygon fill="black" stroke="black" points="213.93,-98.12 223.39,-93.35 213.02,-91.18 213.93,-98.12"/>
</g>
<!-- aptos_coin&#45;&gt;error -->
<g id="edge25" class="edge">
<title>aptos_coin&#45;&gt;error</title>
<path fill="none" stroke="black" d="M753.66,-576.31C760.99,-566.11 770.16,-552.64 777.19,-540 873.7,-366.43 821.34,-257.66 984.19,-144 1015.03,-122.47 1055.79,-108.23 1085,-99.98"/>
<polygon fill="black" stroke="black" points="1085.77,-103.39 1094.51,-97.4 1083.94,-96.64 1085.77,-103.39"/>
</g>
<!-- aptos_coin&#45;&gt;system_addresses -->
<g id="edge26" class="edge">
<title>aptos_coin&#45;&gt;system_addresses</title>
<path fill="none" stroke="black" d="M787.74,-588.21C915.46,-573.71 1280.02,-523.27 1553.19,-396 1594.05,-376.96 1637.8,-349.2 1666.64,-329.76"/>
<polygon fill="black" stroke="black" points="1668.27,-332.88 1674.57,-324.36 1664.33,-327.09 1668.27,-332.88"/>
</g>
<!-- aptos_coin&#45;&gt;coin -->
<g id="edge27" class="edge">
<title>aptos_coin&#45;&gt;coin</title>
<path fill="none" stroke="black" d="M741.19,-575.7C741.19,-568.41 741.19,-559.73 741.19,-551.54"/>
<polygon fill="black" stroke="black" points="744.69,-551.62 741.19,-541.62 737.69,-551.62 744.69,-551.62"/>
</g>
<!-- aptos_coin&#45;&gt;vector -->
<g id="edge21" class="edge">
<title>aptos_coin&#45;&gt;vector</title>
<path fill="none" stroke="black" d="M692.09,-592.8C623.02,-590.91 494.41,-581.5 394.19,-540 213.72,-465.27 109.16,-441.61 62.19,-252 50.57,-205.07 46.37,-182.82 75.19,-144 144.74,-50.33 292.73,-26.82 366.5,-20.94"/>
<polygon fill="black" stroke="black" points="366.44,-24.46 376.17,-20.25 365.94,-17.48 366.44,-24.46"/>
</g>
<!-- aptos_coin&#45;&gt;signer -->
<g id="edge24" class="edge">
<title>aptos_coin&#45;&gt;signer</title>
<path fill="none" stroke="black" d="M693.38,-589.71C610.69,-583.37 444.92,-567.57 394.19,-540 261.67,-467.97 243.65,-358.47 293.19,-216 305.28,-181.22 303.16,-163.82 334.19,-144 383.43,-112.55 786.01,-96.78 921.15,-92.34"/>
<polygon fill="black" stroke="black" points="921.24,-95.84 931.12,-92.02 921.02,-88.84 921.24,-95.84"/>
</g>
<!-- aptos_coin&#45;&gt;string -->
<g id="edge23" class="edge">
<title>aptos_coin&#45;&gt;string</title>
<path fill="none" stroke="black" d="M692.11,-592.17C609.77,-587.96 444.37,-566.86 358.19,-468 284.54,-383.51 318.02,-316.23 368.19,-216 373.42,-205.56 380.92,-195.23 388.14,-186.5"/>
<polygon fill="black" stroke="black" points="390.57,-189.05 394.47,-179.2 385.28,-184.47 390.57,-189.05"/>
</g>
<!-- stake&#45;&gt;option -->
<g id="edge29" class="edge">
<title>stake&#45;&gt;option</title>
<path fill="none" stroke="black" d="M1488.05,-665.12C1290.23,-665.59 152.19,-662.23 152.19,-523 152.19,-523 152.19,-523 152.19,-449 152.19,-320.51 215.74,-176.36 244.43,-117.84"/>
<polygon fill="black" stroke="black" points="247.52,-119.49 248.84,-108.97 241.25,-116.37 247.52,-119.49"/>
</g>
<!-- stake&#45;&gt;error -->
<g id="edge31" class="edge">
<title>stake&#45;&gt;error</title>
<path fill="none" stroke="black" d="M1546,-663.74C1658.26,-658.08 2060.19,-630.31 2060.19,-523 2060.19,-523 2060.19,-523 2060.19,-233 2060.19,-140.62 1339.82,-101.1 1161.67,-92.74"/>
<polygon fill="black" stroke="black" points="1161.93,-89.25 1151.78,-92.28 1161.6,-96.24 1161.93,-89.25"/>
</g>
<!-- stake&#45;&gt;system_addresses -->
<g id="edge34" class="edge">
<title>stake&#45;&gt;system_addresses</title>
<path fill="none" stroke="black" d="M1545.57,-662.02C1597.21,-655.94 1703.24,-640.25 1725.19,-612 1736.28,-597.73 1737.34,-713.55 1707.19,-396 1705.28,-375.89 1703.25,-353.22 1701.71,-335.79"/>
<polygon fill="black" stroke="black" points="1705.2,-335.56 1700.84,-325.91 1698.23,-336.18 1705.2,-335.56"/>
</g>
<!-- stake&#45;&gt;coin -->
<g id="edge37" class="edge">
<title>stake&#45;&gt;coin</title>
<path fill="none" stroke="black" d="M1488.24,-664.7C1379.2,-663.27 993.78,-655.18 880.19,-612 855.26,-602.52 854.42,-590.74 832.19,-576 812.57,-562.99 789.67,-549.67 771.75,-539.63"/>
<polygon fill="black" stroke="black" points="773.61,-536.65 763.17,-534.86 770.21,-542.78 773.61,-536.65"/>
</g>
<!-- stake&#45;&gt;aptos_coin -->
<g id="edge38" class="edge">
<title>stake&#45;&gt;aptos_coin</title>
<path fill="none" stroke="black" d="M1488.48,-663.66C1395.09,-659.09 1091.57,-642.72 842.19,-612 826.86,-610.11 810.31,-607.55 795.12,-604.98"/>
<polygon fill="black" stroke="black" points="795.77,-601.54 785.32,-603.29 794.58,-608.44 795.77,-601.54"/>
</g>
<!-- stake&#45;&gt;vector -->
<g id="edge28" class="edge">
<title>stake&#45;&gt;vector</title>
<path fill="none" stroke="black" d="M1533,-650.88C1554.31,-632.28 1593.89,-599.22 1631.19,-576 1810.27,-464.54 2022.19,-517.93 2022.19,-307 2022.19,-307 2022.19,-307 2022.19,-161 2022.19,-79.94 711.62,-29.61 453.88,-20.5"/>
<polygon fill="black" stroke="black" points="454.38,-17.01 444.27,-20.16 454.14,-24.01 454.38,-17.01"/>
</g>
<!-- stake&#45;&gt;signer -->
<g id="edge30" class="edge">
<title>stake&#45;&gt;signer</title>
<path fill="none" stroke="black" d="M1529.04,-649.13C1536,-639.01 1544.36,-625.34 1549.19,-612 1560.21,-581.56 1557.07,-572.22 1560.19,-540 1574.66,-390.76 1591.71,-298.02 1466.19,-216 1389.16,-165.66 1113.46,-115.67 1007.29,-97.84"/>
<polygon fill="black" stroke="black" points="1008.01,-94.42 997.58,-96.22 1006.86,-101.32 1008.01,-94.42"/>
</g>
<!-- stake&#45;&gt;event -->
<g id="edge35" class="edge">
<title>stake&#45;&gt;event</title>
<path fill="none" stroke="black" d="M1506.13,-649.28C1499.22,-639 1490.48,-625.09 1484.19,-612 1450.03,-540.85 1422.6,-451.57 1409.89,-407.01"/>
<polygon fill="black" stroke="black" points="1413.33,-406.31 1407.24,-397.63 1406.59,-408.21 1413.33,-406.31"/>
</g>
<!-- stake&#45;&gt;account -->
<g id="edge36" class="edge">
<title>stake&#45;&gt;account</title>
<path fill="none" stroke="black" d="M1496.45,-653.04C1435.09,-617.64 1254.09,-513.24 1179.2,-470.04"/>
<polygon fill="black" stroke="black" points="1181.08,-467.09 1170.67,-465.12 1177.59,-473.15 1181.08,-467.09"/>
</g>
<!-- features -->
<g id="node17" class="node">
<title>features</title>
<ellipse fill="none" stroke="black" cx="1056.19" cy="-162" rx="38.19" ry="18"/>
<text text-anchor="middle" x="1056.19" y="-158.3" font-family="Times,serif" font-size="14.00">features</text>
</g>
<!-- stake&#45;&gt;features -->
<g id="edge32" class="edge">
<title>stake&#45;&gt;features</title>
<path fill="none" stroke="black" d="M1522.48,-647.94C1539.1,-590.75 1584.46,-403 1503.19,-288 1407.27,-152.28 1308.44,-211.14 1145.19,-180 1131.31,-177.35 1116.21,-174.47 1102.45,-171.84"/>
<polygon fill="black" stroke="black" points="1103.24,-168.43 1092.76,-169.99 1101.93,-175.3 1103.24,-168.43"/>
</g>
<!-- table -->
<g id="node18" class="node">
<title>table</title>
<ellipse fill="none" stroke="black" cx="952.19" cy="-306" rx="27.9" ry="18"/>
<text text-anchor="middle" x="952.19" y="-302.3" font-family="Times,serif" font-size="14.00">table</text>
</g>
<!-- stake&#45;&gt;table -->
<g id="edge33" class="edge">
<title>stake&#45;&gt;table</title>
<path fill="none" stroke="black" d="M1513.44,-648.05C1507.9,-621.52 1498.19,-568.52 1498.19,-523 1498.19,-523 1498.19,-523 1498.19,-449 1498.19,-402.03 1481.12,-384.73 1441.19,-360 1422.08,-348.17 1103.63,-319.95 991.15,-310.3"/>
<polygon fill="black" stroke="black" points="991.78,-306.84 981.52,-309.48 991.18,-313.81 991.78,-306.84"/>
</g>
<!-- timestamp -->
<g id="node19" class="node">
<title>timestamp</title>
<ellipse fill="none" stroke="black" cx="1764.19" cy="-378" rx="48.19" ry="18"/>
<text text-anchor="middle" x="1764.19" y="-374.3" font-family="Times,serif" font-size="14.00">timestamp</text>
</g>
<!-- stake&#45;&gt;timestamp -->
<g id="edge39" class="edge">
<title>stake&#45;&gt;timestamp</title>
<path fill="none" stroke="black" d="M1545.85,-663C1603.74,-658.32 1731.4,-644.46 1758.19,-612 1806.74,-553.19 1787.06,-454.69 1773.29,-406.81"/>
<polygon fill="black" stroke="black" points="1776.73,-406.07 1770.49,-397.5 1770.02,-408.09 1776.73,-406.07"/>
</g>
<!-- staking_config -->
<g id="node20" class="node">
<title>staking_config</title>
<ellipse fill="none" stroke="black" cx="1931.19" cy="-378" rx="63.09" ry="18"/>
<text text-anchor="middle" x="1931.19" y="-374.3" font-family="Times,serif" font-size="14.00">staking_config</text>
</g>
<!-- stake&#45;&gt;staking_config -->
<g id="edge40" class="edge">
<title>stake&#45;&gt;staking_config</title>
<path fill="none" stroke="black" d="M1545.47,-662.16C1605.6,-655.67 1743.75,-638.28 1782.19,-612 1857.76,-560.34 1903.41,-456.4 1921.79,-406.7"/>
<polygon fill="black" stroke="black" points="1924.99,-408.14 1925.08,-397.55 1918.41,-405.77 1924.99,-408.14"/>
</g>
<!-- math64 -->
<g id="node21" class="node">
<title>math64</title>
<ellipse fill="none" stroke="black" cx="1678.19" cy="-594" rx="37.89" ry="18"/>
<text text-anchor="middle" x="1678.19" y="-590.3" font-family="Times,serif" font-size="14.00">math64</text>
</g>
<!-- stake&#45;&gt;math64 -->
<g id="edge41" class="edge">
<title>stake&#45;&gt;math64</title>
<path fill="none" stroke="black" d="M1540.26,-654.97C1566.39,-643.61 1609.38,-624.92 1640.42,-611.42"/>
<polygon fill="black" stroke="black" points="1641.69,-614.69 1649.47,-607.49 1638.9,-608.27 1641.69,-614.69"/>
</g>
<!-- bls12381 -->
<g id="node22" class="node">
<title>bls12381</title>
<ellipse fill="none" stroke="black" cx="625.19" cy="-162" rx="42.79" ry="18"/>
<text text-anchor="middle" x="625.19" y="-158.3" font-family="Times,serif" font-size="14.00">bls12381</text>
</g>
<!-- stake&#45;&gt;bls12381 -->
<g id="edge42" class="edge">
<title>stake&#45;&gt;bls12381</title>
<path fill="none" stroke="black" d="M1491.12,-658.09C1400.06,-633.17 1089.86,-541.62 871.19,-396 777.32,-333.49 686.08,-233.93 646.18,-187.87"/>
<polygon fill="black" stroke="black" points="649.05,-185.85 639.88,-180.55 643.75,-190.41 649.05,-185.85"/>
</g>
<!-- string&#45;&gt;option -->
<g id="edge44" class="edge">
<title>string&#45;&gt;option</title>
<path fill="none" stroke="black" d="M386.44,-150.06C361.49,-138.57 321.98,-120.38 293.4,-107.21"/>
<polygon fill="black" stroke="black" points="294.96,-104.08 284.41,-103.07 292.03,-110.44 294.96,-104.08"/>
</g>
<!-- string&#45;&gt;vector -->
<g id="edge43" class="edge">
<title>string&#45;&gt;vector</title>
<path fill="none" stroke="black" d="M410.19,-143.59C410.19,-119.61 410.19,-76.14 410.19,-47.42"/>
<polygon fill="black" stroke="black" points="413.69,-47.62 410.19,-37.62 406.69,-47.62 413.69,-47.62"/>
</g>
<!-- type_info&#45;&gt;error -->
<g id="edge46" class="edge">
<title>type_info&#45;&gt;error</title>
<path fill="none" stroke="black" d="M977.06,-215.54C981.11,-195.94 990.22,-164.22 1009.19,-144 1029.76,-122.07 1061.23,-108.35 1085.74,-100.37"/>
<polygon fill="black" stroke="black" points="1086.45,-103.81 1095,-97.54 1084.41,-97.12 1086.45,-103.81"/>
</g>
<!-- type_info&#45;&gt;string -->
<g id="edge45" class="edge">
<title>type_info&#45;&gt;string</title>
<path fill="none" stroke="black" d="M932.26,-227.8C827.54,-214.8 555.52,-181.04 451.49,-168.13"/>
<polygon fill="black" stroke="black" points="452.08,-164.67 441.73,-166.91 451.22,-171.62 452.08,-164.67"/>
</g>
<!-- type_info&#45;&gt;features -->
<g id="edge47" class="edge">
<title>type_info&#45;&gt;features</title>
<path fill="none" stroke="black" d="M992.39,-217.46C1003.4,-208.07 1017.63,-195.92 1029.85,-185.48"/>
<polygon fill="black" stroke="black" points="1031.84,-188.39 1037.17,-179.23 1027.3,-183.06 1031.84,-188.39"/>
</g>
<!-- bcs -->
<g id="node23" class="node">
<title>bcs</title>
<ellipse fill="none" stroke="black" cx="1181.19" cy="-162" rx="27" ry="18"/>
<text text-anchor="middle" x="1181.19" y="-158.3" font-family="Times,serif" font-size="14.00">bcs</text>
</g>
<!-- type_info&#45;&gt;bcs -->
<g id="edge48" class="edge">
<title>type_info&#45;&gt;bcs</title>
<path fill="none" stroke="black" d="M1007.45,-221.75C1045.62,-208.84 1107.94,-187.77 1146.64,-174.68"/>
<polygon fill="black" stroke="black" points="1147.59,-178.06 1155.94,-171.54 1145.34,-171.43 1147.59,-178.06"/>
</g>
<!-- event&#45;&gt;bcs -->
<g id="edge49" class="edge">
<title>event&#45;&gt;bcs</title>
<path fill="none" stroke="black" d="M1424.96,-365.8C1454.04,-351.38 1500.94,-327.73 1503.19,-324 1511.47,-310.31 1510.94,-302 1503.19,-288 1447.05,-186.62 1292.19,-167.07 1219.64,-163.58"/>
<polygon fill="black" stroke="black" points="1219.96,-160.09 1209.83,-163.19 1219.68,-167.08 1219.96,-160.09"/>
</g>
<!-- guid -->
<g id="node24" class="node">
<title>guid</title>
<ellipse fill="none" stroke="black" cx="1467.19" cy="-306" rx="27" ry="18"/>
<text text-anchor="middle" x="1467.19" y="-302.3" font-family="Times,serif" font-size="14.00">guid</text>
</g>
<!-- event&#45;&gt;guid -->
<g id="edge50" class="edge">
<title>event&#45;&gt;guid</title>
<path fill="none" stroke="black" d="M1416.29,-361.81C1424.93,-352.51 1436.15,-340.43 1445.85,-329.98"/>
<polygon fill="black" stroke="black" points="1448.29,-332.5 1452.53,-322.79 1443.16,-327.74 1448.29,-332.5"/>
</g>
<!-- account&#45;&gt;option -->
<g id="edge52" class="edge">
<title>account&#45;&gt;option</title>
<path fill="none" stroke="black" d="M1108.08,-447.45C1037.02,-443.77 880.04,-431.95 753.19,-396 734.24,-390.63 445.59,-262.91 429.19,-252 368.41,-211.59 309.02,-148.97 278.8,-114.96"/>
<polygon fill="black" stroke="black" points="281.64,-112.9 272.41,-107.71 276.39,-117.53 281.64,-112.9"/>
</g>
<!-- account&#45;&gt;error -->
<g id="edge54" class="edge">
<title>account&#45;&gt;error</title>
<path fill="none" stroke="black" d="M1174.9,-437.66C1214.23,-422.12 1280.05,-396.1 1280.19,-396 1313.28,-371.64 1321.37,-361.49 1338.19,-324 1357.96,-279.93 1373.33,-258.39 1350.19,-216 1311.2,-144.57 1214.06,-111.76 1160,-98.59"/>
<polygon fill="black" stroke="black" points="1160.85,-95.2 1150.31,-96.35 1159.27,-102.01 1160.85,-95.2"/>
</g>
<!-- account&#45;&gt;system_addresses -->
<g id="edge58" class="edge">
<title>account&#45;&gt;system_addresses</title>
<path fill="none" stroke="black" d="M1183.2,-445.24C1239.75,-438.86 1350.66,-423.81 1441.19,-396 1478.85,-384.43 1485.25,-373.68 1522.19,-360 1560.74,-345.73 1605.04,-332.47 1639.68,-322.78"/>
<polygon fill="black" stroke="black" points="1640.4,-326.21 1649.11,-320.17 1638.53,-319.46 1640.4,-326.21"/>
</g>
<!-- account&#45;&gt;vector -->
<g id="edge51" class="edge">
<title>account&#45;&gt;vector</title>
<path fill="none" stroke="black" d="M1108.48,-446.23C1062.74,-441.5 984.52,-428.93 926.19,-396 789.08,-318.6 805.83,-234.79 677.19,-144 602.63,-91.37 502.39,-51.41 448.43,-32.01"/>
<polygon fill="black" stroke="black" points="449.66,-28.73 439.07,-28.69 447.32,-35.33 449.66,-28.73"/>
</g>
<!-- account&#45;&gt;signer -->
<g id="edge53" class="edge">
<title>account&#45;&gt;signer</title>
<path fill="none" stroke="black" d="M1108.93,-445.27C1070.18,-439.84 1009.26,-426.78 966.19,-396 934.28,-373.2 927.73,-361.16 915.19,-324 889.6,-248.17 878.88,-217.65 910.19,-144 915.61,-131.26 925.76,-120.09 935.87,-111.34"/>
<polygon fill="black" stroke="black" points="937.86,-114.23 943.46,-105.24 933.47,-108.78 937.86,-114.23"/>
</g>
<!-- account&#45;&gt;type_info -->
<g id="edge56" class="edge">
<title>account&#45;&gt;type_info</title>
<path fill="none" stroke="black" d="M1111.69,-441.7C1085.17,-434.39 1049.41,-420.58 1027.19,-396 1018.09,-385.93 994.56,-306.68 982.14,-263.25"/>
<polygon fill="black" stroke="black" points="985.54,-262.41 979.44,-253.74 978.8,-264.32 985.54,-262.41"/>
</g>
<!-- account&#45;&gt;event -->
<g id="edge64" class="edge">
<title>account&#45;&gt;event</title>
<path fill="none" stroke="black" d="M1180.7,-441.75C1222.96,-432.56 1296.53,-415.54 1358.19,-396 1361.26,-395.03 1364.43,-393.95 1367.6,-392.83"/>
<polygon fill="black" stroke="black" points="1368.6,-396.19 1376.76,-389.42 1366.16,-389.62 1368.6,-396.19"/>
</g>
<!-- account&#45;&gt;table -->
<g id="edge57" class="edge">
<title>account&#45;&gt;table</title>
<path fill="none" stroke="black" d="M1109.57,-444.41C1075.95,-438.46 1026.6,-425.16 994.19,-396 976.33,-379.93 965.42,-354.66 959.21,-335.15"/>
<polygon fill="black" stroke="black" points="962.59,-334.23 956.43,-325.61 955.87,-336.19 962.59,-334.23"/>
</g>
<!-- account&#45;&gt;bcs -->
<g id="edge55" class="edge">
<title>account&#45;&gt;bcs</title>
<path fill="none" stroke="black" d="M1173.8,-437.1C1194.64,-427.48 1223.44,-412.81 1246.19,-396 1264.39,-382.55 1307.3,-343.84 1318.19,-324 1333.97,-295.26 1330.61,-284.58 1334.19,-252 1335.94,-236.1 1343.47,-229.03 1334.19,-216 1308.37,-179.73 1255.95,-168.05 1219.72,-164.42"/>
<polygon fill="black" stroke="black" points="1220.34,-160.96 1210.08,-163.63 1219.76,-167.94 1220.34,-160.96"/>
</g>
<!-- account&#45;&gt;guid -->
<g id="edge62" class="edge">
<title>account&#45;&gt;guid</title>
<path fill="none" stroke="black" d="M1181.48,-442.59C1217.83,-435.02 1275.35,-420.29 1320.19,-396 1342.11,-384.13 1342.4,-373.75 1363.19,-360 1385.94,-344.96 1413.5,-331.09 1434.53,-321.31"/>
<polygon fill="black" stroke="black" points="1435.86,-324.56 1443.5,-317.22 1432.95,-318.19 1435.86,-324.56"/>
</g>
<!-- hash -->
<g id="node25" class="node">
<title>hash</title>
<ellipse fill="none" stroke="black" cx="1298.19" cy="-234" rx="27" ry="18"/>
<text text-anchor="middle" x="1298.19" y="-230.3" font-family="Times,serif" font-size="14.00">hash</text>
</g>
<!-- account&#45;&gt;hash -->
<g id="edge59" class="edge">
<title>account&#45;&gt;hash</title>
<path fill="none" stroke="black" d="M1164.37,-433.68C1185.71,-415.79 1222.23,-385.39 1254.19,-360 1274.79,-343.63 1289.54,-347.59 1301.19,-324 1310.45,-305.24 1309.08,-281.43 1305.73,-263.17"/>
<polygon fill="black" stroke="black" points="1309.19,-262.59 1303.66,-253.55 1302.35,-264.06 1309.19,-262.59"/>
</g>
<!-- ed25519 -->
<g id="node26" class="node">
<title>ed25519</title>
<ellipse fill="none" stroke="black" cx="1229.19" cy="-306" rx="40.89" ry="18"/>
<text text-anchor="middle" x="1229.19" y="-302.3" font-family="Times,serif" font-size="14.00">ed25519</text>
</g>
<!-- account&#45;&gt;ed25519 -->
<g id="edge60" class="edge">
<title>account&#45;&gt;ed25519</title>
<path fill="none" stroke="black" d="M1156.04,-432.15C1170.26,-407.81 1196.71,-362.57 1213.6,-333.67"/>
<polygon fill="black" stroke="black" points="1216.57,-335.53 1218.59,-325.13 1210.52,-332 1216.57,-335.53"/>
</g>
<!-- multi_ed25519 -->
<g id="node27" class="node">
<title>multi_ed25519</title>
<ellipse fill="none" stroke="black" cx="1100.19" cy="-378" rx="64.19" ry="18"/>
<text text-anchor="middle" x="1100.19" y="-374.3" font-family="Times,serif" font-size="14.00">multi_ed25519</text>
</g>
<!-- account&#45;&gt;multi_ed25519 -->
<g id="edge61" class="edge">
<title>account&#45;&gt;multi_ed25519</title>
<path fill="none" stroke="black" d="M1135.29,-432.41C1129.98,-424.34 1123.47,-414.43 1117.51,-405.35"/>
<polygon fill="black" stroke="black" points="1120.58,-403.66 1112.16,-397.22 1114.73,-407.5 1120.58,-403.66"/>
</g>
<!-- from_bcs -->
<g id="node28" class="node">
<title>from_bcs</title>
<ellipse fill="none" stroke="black" cx="482.19" cy="-234" rx="44.39" ry="18"/>
<text text-anchor="middle" x="482.19" y="-230.3" font-family="Times,serif" font-size="14.00">from_bcs</text>
</g>
<!-- account&#45;&gt;from_bcs -->
<g id="edge63" class="edge">
<title>account&#45;&gt;from_bcs</title>
<path fill="none" stroke="black" d="M1107.74,-449.94C1042.22,-450.07 906.16,-443.9 804.19,-396 738.65,-365.21 746.02,-322.2 682.19,-288 635.88,-263.19 577.21,-249.43 535.42,-242.19"/>
<polygon fill="black" stroke="black" points="536.03,-238.75 525.59,-240.57 534.89,-245.65 536.03,-238.75"/>
</g>
<!-- aggregator_factory&#45;&gt;error -->
<g id="edge65" class="edge">
<title>aggregator_factory&#45;&gt;error</title>
<path fill="none" stroke="black" d="M575.1,-360.12C612.14,-316.42 718.29,-199.17 834.19,-144 856.52,-133.37 1011.3,-108.28 1084.28,-96.85"/>
<polygon fill="black" stroke="black" points="1084.42,-100.37 1093.76,-95.37 1083.34,-93.46 1084.42,-100.37"/>
</g>
<!-- aggregator_factory&#45;&gt;system_addresses -->
<g id="edge67" class="edge">
<title>aggregator_factory&#45;&gt;system_addresses</title>
<path fill="none" stroke="black" d="M636.34,-373.55C796.02,-366.04 1180.92,-347.04 1503.19,-324 1541.77,-321.24 1584.57,-317.6 1620.31,-314.39"/>
<polygon fill="black" stroke="black" points="1620.5,-317.89 1630.14,-313.5 1619.87,-310.92 1620.5,-317.89"/>
</g>
<!-- aggregator_factory&#45;&gt;aggregator -->
<g id="edge68" class="edge">
<title>aggregator_factory&#45;&gt;aggregator</title>
<path fill="none" stroke="black" d="M534.98,-360.76C519.18,-350.97 498.88,-338.4 481.89,-327.88"/>
<polygon fill="black" stroke="black" points="483.96,-325.04 473.61,-322.75 480.27,-330.99 483.96,-325.04"/>
</g>
<!-- aggregator_factory&#45;&gt;table -->
<g id="edge66" class="edge">
<title>aggregator_factory&#45;&gt;table</title>
<path fill="none" stroke="black" d="M621,-366.29C702.5,-351.7 846.07,-326 914.23,-313.8"/>
<polygon fill="black" stroke="black" points="914.56,-317.29 923.78,-312.09 913.32,-310.4 914.56,-317.29"/>
</g>
<!-- optional_aggregator&#45;&gt;option -->
<g id="edge69" class="edge">
<title>optional_aggregator&#45;&gt;option</title>
<path fill="none" stroke="black" d="M464.74,-432.43C411.92,-394.95 288.4,-297.67 244.19,-180 236.75,-160.21 241.07,-136.5 246.81,-118.54"/>
<polygon fill="black" stroke="black" points="250.02,-119.94 250.06,-109.34 243.43,-117.6 250.02,-119.94"/>
</g>
<!-- optional_aggregator&#45;&gt;error -->
<g id="edge70" class="edge">
<title>optional_aggregator&#45;&gt;error</title>
<path fill="none" stroke="black" d="M481.55,-431.79C474.56,-413.5 466.51,-383.97 475.19,-360 482.28,-340.42 494.4,-341.81 505.19,-324 523.16,-294.35 522.77,-284.36 535.19,-252 553.43,-204.5 532.92,-175.11 573.19,-144 611.4,-114.49 958.23,-113.5 1006.19,-108 1032.19,-105.02 1061.34,-100.74 1083.91,-97.22"/>
<polygon fill="black" stroke="black" points="1084.24,-100.72 1093.57,-95.7 1083.15,-93.8 1084.24,-100.72"/>
</g>
<!-- optional_aggregator&#45;&gt;aggregator -->
<g id="edge71" class="edge">
<title>optional_aggregator&#45;&gt;aggregator</title>
<path fill="none" stroke="black" d="M468.42,-432.17C458.44,-422.72 447.51,-410.03 442.19,-396 434.88,-376.73 436.79,-353.45 440.31,-335.53"/>
<polygon fill="black" stroke="black" points="443.71,-336.36 442.51,-325.84 436.88,-334.81 443.71,-336.36"/>
</g>
<!-- optional_aggregator&#45;&gt;aggregator_factory -->
<g id="edge72" class="edge">
<title>optional_aggregator&#45;&gt;aggregator_factory</title>
<path fill="none" stroke="black" d="M506.62,-432.05C515.38,-423.54 526.15,-413.07 535.8,-403.68"/>
<polygon fill="black" stroke="black" points="538.11,-406.32 542.84,-396.84 533.23,-401.31 538.11,-406.32"/>
</g>
<!-- features&#45;&gt;error -->
<g id="edge74" class="edge">
<title>features&#45;&gt;error</title>
<path fill="none" stroke="black" d="M1071.17,-145.12C1079.84,-135.91 1090.92,-124.17 1100.53,-113.97"/>
<polygon fill="black" stroke="black" points="1102.82,-116.64 1107.14,-106.97 1097.73,-111.84 1102.82,-116.64"/>
</g>
<!-- features&#45;&gt;signer -->
<g id="edge73" class="edge">
<title>features&#45;&gt;signer</title>
<path fill="none" stroke="black" d="M1036.89,-146.15C1023.97,-136.21 1006.76,-122.98 992.45,-111.97"/>
<polygon fill="black" stroke="black" points="994.79,-109.35 984.73,-106.03 990.52,-114.9 994.79,-109.35"/>
</g>
<!-- timestamp&#45;&gt;error -->
<g id="edge75" class="edge">
<title>timestamp&#45;&gt;error</title>
<path fill="none" stroke="black" d="M1772.57,-359.91C1780.31,-341.72 1789.46,-312.27 1781.19,-288 1755.13,-211.51 1740.9,-183.11 1670.19,-144 1582.73,-95.62 1272.46,-90.92 1161.78,-90.81"/>
<polygon fill="black" stroke="black" points="1162.01,-87.31 1152.01,-90.82 1162.01,-94.31 1162.01,-87.31"/>
</g>
<!-- timestamp&#45;&gt;system_addresses -->
<g id="edge76" class="edge">
<title>timestamp&#45;&gt;system_addresses</title>
<path fill="none" stroke="black" d="M1749.12,-360.76C1741.19,-352.23 1731.3,-341.58 1722.42,-332.02"/>
<polygon fill="black" stroke="black" points="1725.04,-329.69 1715.67,-324.74 1719.91,-334.45 1725.04,-329.69"/>
</g>
<!-- staking_config&#45;&gt;error -->
<g id="edge77" class="edge">
<title>staking_config&#45;&gt;error</title>
<path fill="none" stroke="black" d="M1921.15,-359.86C1893.82,-315.01 1813.09,-194.17 1709.19,-144 1612.18,-97.16 1277.68,-91.52 1161.96,-90.99"/>
<polygon fill="black" stroke="black" points="1162.04,-87.49 1152.03,-90.96 1162.01,-94.49 1162.04,-87.49"/>
</g>
<!-- staking_config&#45;&gt;system_addresses -->
<g id="edge78" class="edge">
<title>staking_config&#45;&gt;system_addresses</title>
<path fill="none" stroke="black" d="M1888.91,-364.24C1851.44,-352.94 1796.44,-336.34 1755.3,-323.93"/>
<polygon fill="black" stroke="black" points="1756.39,-320.6 1745.8,-321.06 1754.36,-327.3 1756.39,-320.6"/>
</g>
<!-- bls12381&#45;&gt;option -->
<g id="edge79" class="edge">
<title>bls12381&#45;&gt;option</title>
<path fill="none" stroke="black" d="M586.61,-153.64C517.26,-140.41 372.08,-112.72 300.27,-99.03"/>
<polygon fill="black" stroke="black" points="301.36,-95.67 290.88,-97.24 300.05,-102.55 301.36,-95.67"/>
</g>
<!-- bls12381&#45;&gt;error -->
<g id="edge80" class="edge">
<title>bls12381&#45;&gt;error</title>
<path fill="none" stroke="black" d="M665.52,-155.49C735.08,-145.96 882.07,-125.73 1006.19,-108 1032.1,-104.3 1061.25,-100.03 1083.84,-96.69"/>
<polygon fill="black" stroke="black" points="1084.13,-100.19 1093.51,-95.26 1083.11,-93.26 1084.13,-100.19"/>
</g>
<!-- ed25519&#45;&gt;option -->
<g id="edge81" class="edge">
<title>ed25519&#45;&gt;option</title>
<path fill="none" stroke="black" d="M1202.95,-291.79C1164.94,-273.03 1092,-238.47 1027.19,-216 906.2,-174.04 874.18,-166.95 748.19,-144 585.58,-114.39 389.39,-99.29 302.87,-93.66"/>
<polygon fill="black" stroke="black" points="303.12,-90.17 292.92,-93.02 302.67,-97.15 303.12,-90.17"/>
</g>
<!-- ed25519&#45;&gt;error -->
<g id="edge82" class="edge">
<title>ed25519&#45;&gt;error</title>
<path fill="none" stroke="black" d="M1232.83,-287.86C1238.5,-256.54 1246,-189.12 1217.19,-144 1203.84,-123.08 1179.17,-109.68 1158.32,-101.58"/>
<polygon fill="black" stroke="black" points="1159.55,-98.31 1148.95,-98.23 1157.19,-104.9 1159.55,-98.31"/>
</g>
<!-- ed25519&#45;&gt;type_info -->
<g id="edge84" class="edge">
<title>ed25519&#45;&gt;type_info</title>
<path fill="none" stroke="black" d="M1194.61,-295.95C1155.22,-285.58 1088.96,-267.95 1032.19,-252 1028.22,-250.88 1024.1,-249.71 1019.97,-248.52"/>
<polygon fill="black" stroke="black" points="1021.15,-245.22 1010.57,-245.8 1019.2,-251.94 1021.15,-245.22"/>
</g>
<!-- ed25519&#45;&gt;bcs -->
<g id="edge83" class="edge">
<title>ed25519&#45;&gt;bcs</title>
<path fill="none" stroke="black" d="M1223.4,-287.87C1215.21,-263.65 1200.16,-219.12 1190.42,-190.31"/>
<polygon fill="black" stroke="black" points="1193.85,-189.53 1187.34,-181.18 1187.22,-191.78 1193.85,-189.53"/>
</g>
<!-- ed25519&#45;&gt;hash -->
<g id="edge85" class="edge">
<title>ed25519&#45;&gt;hash</title>
<path fill="none" stroke="black" d="M1244.85,-289.12C1254.04,-279.79 1265.81,-267.85 1275.96,-257.56"/>
<polygon fill="black" stroke="black" points="1278.41,-260.05 1282.94,-250.47 1273.43,-255.14 1278.41,-260.05"/>
</g>
<!-- multi_ed25519&#45;&gt;option -->
<g id="edge86" class="edge">
<title>multi_ed25519&#45;&gt;option</title>
<path fill="none" stroke="black" d="M1082.41,-360.35C1061.34,-341.21 1024.6,-309.64 989.19,-288 939.11,-257.4 801.16,-205.28 748.19,-180 716.26,-164.76 711.02,-154.37 677.19,-144 545.34,-103.57 381.04,-93.94 303.16,-91.67"/>
<polygon fill="black" stroke="black" points="303.47,-88.18 293.38,-91.42 303.29,-95.18 303.47,-88.18"/>
</g>
<!-- multi_ed25519&#45;&gt;error -->
<g id="edge87" class="edge">
<title>multi_ed25519&#45;&gt;error</title>
<path fill="none" stroke="black" d="M1101.53,-359.54C1105.21,-311.76 1115.46,-178.51 1119.99,-119.61"/>
<polygon fill="black" stroke="black" points="1123.47,-119.98 1120.75,-109.74 1116.49,-119.44 1123.47,-119.98"/>
</g>
<!-- multi_ed25519&#45;&gt;features -->
<g id="edge88" class="edge">
<title>multi_ed25519&#45;&gt;features</title>
<path fill="none" stroke="black" d="M1096.66,-359.85C1089.1,-323.07 1071.26,-236.29 1062,-191.24"/>
<polygon fill="black" stroke="black" points="1065.48,-190.81 1060.04,-181.71 1058.62,-192.21 1065.48,-190.81"/>
</g>
<!-- multi_ed25519&#45;&gt;bcs -->
<g id="edge89" class="edge">
<title>multi_ed25519&#45;&gt;bcs</title>
<path fill="none" stroke="black" d="M1113.69,-360.19C1121.2,-350.16 1130.2,-336.91 1136.19,-324 1156.76,-279.69 1169.74,-224.04 1176.21,-191.12"/>
<polygon fill="black" stroke="black" points="1179.6,-192.05 1178.02,-181.57 1172.72,-190.75 1179.6,-192.05"/>
</g>
<!-- multi_ed25519&#45;&gt;hash -->
<g id="edge90" class="edge">
<title>multi_ed25519&#45;&gt;hash</title>
<path fill="none" stroke="black" d="M1152.93,-367.55C1199.31,-358.18 1262.02,-342.55 1279.19,-324 1294.05,-307.94 1298.39,-283.22 1299.25,-263.9"/>
<polygon fill="black" stroke="black" points="1302.75,-263.97 1299.37,-253.93 1295.75,-263.88 1302.75,-263.97"/>
</g>
<!-- multi_ed25519&#45;&gt;ed25519 -->
<g id="edge91" class="edge">
<title>multi_ed25519&#45;&gt;ed25519</title>
<path fill="none" stroke="black" d="M1128.82,-361.46C1148.12,-350.99 1173.71,-337.1 1194.22,-325.98"/>
<polygon fill="black" stroke="black" points="1195.68,-329.17 1202.8,-321.32 1192.34,-323.02 1195.68,-329.17"/>
</g>
<!-- from_bcs&#45;&gt;string -->
<g id="edge92" class="edge">
<title>from_bcs&#45;&gt;string</title>
<path fill="none" stroke="black" d="M465.85,-217.12C456.29,-207.82 444.07,-195.93 433.51,-185.67"/>
<polygon fill="black" stroke="black" points="436.17,-183.38 426.56,-178.92 431.29,-188.4 436.17,-183.38"/>
</g>
</g>
</svg>
