<?xml version="1.0" encoding="UTF-8" standalone="no"?>
<!DOCTYPE svg PUBLIC "-//W3C//DTD SVG 1.1//EN"
 "http://www.w3.org/Graphics/SVG/1.1/DTD/svg11.dtd">
<!-- Generated by graphviz version 7.0.4 (20221203.1631)
 -->
<!-- Title: G Pages: 1 -->
<svg width="355pt" height="310pt"
 viewBox="0.00 0.00 355.00 310.00" xmlns="http://www.w3.org/2000/svg" xmlns:xlink="http://www.w3.org/1999/xlink">
<g id="graph0" class="graph" transform="scale(1 1) rotate(0) translate(4 306)">
<title>G</title>
<polygon fill="white" stroke="none" points="-4,4 -4,-306 351,-306 351,4 -4,4"/>
<g id="clust1" class="cluster">
<title>cluster_voting</title>
<polygon fill="none" stroke="black" points="50,-64 50,-211 324,-211 324,-64 50,-64"/>
<text text-anchor="middle" x="187" y="-195.8" font-family="Times,serif" font-size="14.00">voting</text>
</g>
<g id="clust2" class="cluster">
<title>cluster_aptos_governance</title>
<polygon fill="none" stroke="black" points="8,-219 8,-294 339,-294 339,-219 8,-219"/>
<text text-anchor="middle" x="173.5" y="-278.8" font-family="Times,serif" font-size="14.00">aptos_governance</text>
</g>
<!-- get_script_hash -->
<g id="node1" class="node">
<title>get_script_hash</title>
<ellipse fill="none" stroke="black" cx="187" cy="-18" rx="65.79" ry="18"/>
<text text-anchor="middle" x="187" y="-14.3" font-family="Times,serif" font-size="14.00">get_script_hash</text>
</g>
<!-- voting::is_proposal_resolvable -->
<g id="node2" class="node">
<title>voting::is_proposal_resolvable</title>
<ellipse fill="none" stroke="black" cx="187" cy="-90" rx="91.78" ry="18"/>
<text text-anchor="middle" x="187" y="-86.3" font-family="Times,serif" font-size="14.00">is_proposal_resolvable</text>
</g>
<!-- voting::is_proposal_resolvable&#45;&gt;get_script_hash -->
<g id="edge1" class="edge">
<title>voting::is_proposal_resolvable&#45;&gt;get_script_hash</title>
<path fill="none" stroke="black" d="M187,-71.7C187,-64.41 187,-55.73 187,-47.54"/>
<polygon fill="black" stroke="black" points="190.5,-47.62 187,-37.62 183.5,-47.62 190.5,-47.62"/>
</g>
<!-- voting::resolve -->
<g id="node3" class="node">
<title>voting::resolve</title>
<ellipse fill="none" stroke="black" cx="280" cy="-162" rx="36.29" ry="18"/>
<text text-anchor="middle" x="280" y="-158.3" font-family="Times,serif" font-size="14.00">resolve</text>
</g>
<!-- voting::resolve&#45;&gt;voting::is_proposal_resolvable -->
<g id="edge2" class="edge">
<title>voting::resolve&#45;&gt;voting::is_proposal_resolvable</title>
<path fill="none" stroke="black" d="M260.73,-146.5C248.42,-137.23 232.19,-125.01 218.08,-114.4"/>
<polygon fill="black" stroke="black" points="220.49,-111.83 210.39,-108.61 216.28,-117.42 220.49,-111.83"/>
</g>
<!-- voting::resolve_proposal_v2 -->
<g id="node4" class="node">
<title>voting::resolve_proposal_v2</title>
<ellipse fill="none" stroke="black" cx="142" cy="-162" rx="83.69" ry="18"/>
<text text-anchor="middle" x="142" y="-158.3" font-family="Times,serif" font-size="14.00">resolve_proposal_v2</text>
</g>
<!-- voting::resolve_proposal_v2&#45;&gt;voting::is_proposal_resolvable -->
<g id="edge3" class="edge">
<title>voting::resolve_proposal_v2&#45;&gt;voting::is_proposal_resolvable</title>
<path fill="none" stroke="black" d="M153.12,-143.7C158.19,-135.81 164.3,-126.3 169.93,-117.55"/>
<polygon fill="black" stroke="black" points="172.72,-119.68 175.19,-109.38 166.83,-115.9 172.72,-119.68"/>
</g>
<!-- aptos_governance::resolve -->
<g id="node5" class="node">
<title>aptos_governance::resolve</title>
<ellipse fill="none" stroke="black" cx="295" cy="-245" rx="36.29" ry="18"/>
<text text-anchor="middle" x="295" y="-241.3" font-family="Times,serif" font-size="14.00">resolve</text>
</g>
<!-- aptos_governance::resolve&#45;&gt;voting::resolve -->
<g id="edge4" class="edge">
<title>aptos_governance::resolve&#45;&gt;voting::resolve</title>
<path fill="none" stroke="black" d="M291.82,-226.82C289.91,-216.51 287.43,-203.14 285.24,-191.31"/>
<polygon fill="black" stroke="black" points="288.71,-190.84 283.45,-181.64 281.83,-192.11 288.71,-190.84"/>
</g>
<!-- aptos_governance::resolve_multi_step_proposal -->
<g id="node6" class="node">
<title>aptos_governance::resolve_multi_step_proposal</title>
<ellipse fill="none" stroke="black" cx="128" cy="-245" rx="112.38" ry="18"/>
<text text-anchor="middle" x="128" y="-241.3" font-family="Times,serif" font-size="14.00">resolve_multi_step_proposal</text>
</g>
<!-- aptos_governance::resolve_multi_step_proposal&#45;&gt;voting::resolve_proposal_v2 -->
<g id="edge5" class="edge">
<title>aptos_governance::resolve_multi_step_proposal&#45;&gt;voting::resolve_proposal_v2</title>
<path fill="none" stroke="black" d="M130.97,-226.82C132.74,-216.58 135.03,-203.33 137.07,-191.55"/>
<polygon fill="black" stroke="black" points="140.47,-192.37 138.73,-181.92 133.58,-191.18 140.47,-192.37"/>
</g>
</g>
</svg>
