<?xml version="1.0" encoding="UTF-8" standalone="no"?>
<!DOCTYPE svg PUBLIC "-//W3C//DTD SVG 1.1//EN"
 "http://www.w3.org/Graphics/SVG/1.1/DTD/svg11.dtd">
<!-- Generated by graphviz version 7.0.4 (20221203.1631)
 -->
<!-- Title: G Pages: 1 -->
<svg width="703pt" height="313pt"
 viewBox="0.00 0.00 702.89 313.00" xmlns="http://www.w3.org/2000/svg" xmlns:xlink="http://www.w3.org/1999/xlink">
<g id="graph0" class="graph" transform="scale(1 1) rotate(0) translate(4 309)">
<title>G</title>
<polygon fill="white" stroke="none" points="-4,4 -4,-309 698.89,-309 698.89,4 -4,4"/>
<g id="clust1" class="cluster">
<title>cluster_code</title>
<polygon fill="none" stroke="black" points="173.89,-64 173.89,-139 359.89,-139 359.89,-64 173.89,-64"/>
<text text-anchor="middle" x="266.89" y="-123.8" font-family="Times,serif" font-size="14.00">code</text>
</g>
<g id="clust2" class="cluster">
<title>cluster_gas_schedule</title>
<polygon fill="none" stroke="black" points="367.89,-64 367.89,-139 627.89,-139 627.89,-64 367.89,-64"/>
<text text-anchor="middle" x="497.89" y="-123.8" font-family="Times,serif" font-size="14.00">gas_schedule</text>
</g>
<g id="clust3" class="cluster">
<title>cluster_resource_account</title>
<polygon fill="none" stroke="black" points="80.89,-147 80.89,-222 452.89,-222 452.89,-147 80.89,-147"/>
<text text-anchor="middle" x="266.89" y="-206.8" font-family="Times,serif" font-size="14.00">resource_account</text>
</g>
<g id="clust4" class="cluster">
<title>cluster_genesis</title>
<polygon fill="none" stroke="black" points="468.89,-147 468.89,-297 686.89,-297 686.89,-147 468.89,-147"/>
<text text-anchor="middle" x="577.89" y="-281.8" font-family="Times,serif" font-size="14.00">genesis</text>
</g>
<!-- from_bytes -->
<g id="node1" class="node">
<title>from_bytes</title>
<ellipse fill="none" stroke="black" cx="356.89" cy="-18" rx="51.19" ry="18"/>
<text text-anchor="middle" x="356.89" y="-14.3" font-family="Times,serif" font-size="14.00">from_bytes</text>
</g>
<!-- address_from_bytes -->
<g id="node2" class="node">
<title>address_from_bytes</title>
<ellipse fill="none" stroke="black" cx="81.89" cy="-90" rx="81.79" ry="18"/>
<text text-anchor="middle" x="81.89" y="-86.3" font-family="Times,serif" font-size="14.00">address_from_bytes</text>
</g>
<!-- address_from_bytes&#45;&gt;from_bytes -->
<g id="edge1" class="edge">
<title>address_from_bytes&#45;&gt;from_bytes</title>
<path fill="none" stroke="black" d="M129.75,-75.02C142.75,-71.33 156.83,-67.42 169.89,-64 214.82,-52.22 266.14,-39.95 303.64,-31.21"/>
<polygon fill="black" stroke="black" points="304.39,-34.63 313.33,-28.95 302.8,-27.81 304.39,-34.63"/>
</g>
<!-- code::publish_package_txn -->
<g id="node3" class="node">
<title>code::publish_package_txn</title>
<ellipse fill="none" stroke="black" cx="266.89" cy="-90" rx="85.29" ry="18"/>
<text text-anchor="middle" x="266.89" y="-86.3" font-family="Times,serif" font-size="14.00">publish_package_txn</text>
</g>
<!-- code::publish_package_txn&#45;&gt;from_bytes -->
<g id="edge2" class="edge">
<title>code::publish_package_txn&#45;&gt;from_bytes</title>
<path fill="none" stroke="black" d="M288.22,-72.41C300.02,-63.24 314.85,-51.7 327.7,-41.7"/>
<polygon fill="black" stroke="black" points="329.7,-44.58 335.45,-35.68 325.41,-39.05 329.7,-44.58"/>
</g>
<!-- gas_schedule::initialize -->
<g id="node4" class="node">
<title>gas_schedule::initialize</title>
<ellipse fill="none" stroke="black" cx="577.89" cy="-90" rx="41.69" ry="18"/>
<text text-anchor="middle" x="577.89" y="-86.3" font-family="Times,serif" font-size="14.00">initialize</text>
</g>
<!-- gas_schedule::initialize&#45;&gt;from_bytes -->
<g id="edge3" class="edge">
<title>gas_schedule::initialize&#45;&gt;from_bytes</title>
<path fill="none" stroke="black" d="M552.38,-75.27C544.37,-71.29 535.39,-67.17 526.89,-64 489.12,-49.9 445.07,-38.37 411.28,-30.51"/>
<polygon fill="black" stroke="black" points="412.24,-27.14 401.71,-28.33 410.68,-33.97 412.24,-27.14"/>
</g>
<!-- gas_schedule::set_gas_schedule -->
<g id="node5" class="node">
<title>gas_schedule::set_gas_schedule</title>
<ellipse fill="none" stroke="black" cx="446.89" cy="-90" rx="71.49" ry="18"/>
<text text-anchor="middle" x="446.89" y="-86.3" font-family="Times,serif" font-size="14.00">set_gas_schedule</text>
</g>
<!-- gas_schedule::set_gas_schedule&#45;&gt;from_bytes -->
<g id="edge4" class="edge">
<title>gas_schedule::set_gas_schedule&#45;&gt;from_bytes</title>
<path fill="none" stroke="black" d="M425.56,-72.41C413.77,-63.24 398.94,-51.7 386.08,-41.7"/>
<polygon fill="black" stroke="black" points="388.38,-39.05 378.34,-35.68 384.08,-44.58 388.38,-39.05"/>
</g>
<!-- resource_account::create_resource_account_and_publish_package -->
<g id="node6" class="node">
<title>resource_account::create_resource_account_and_publish_package</title>
<ellipse fill="none" stroke="black" cx="266.89" cy="-173" rx="178.17" ry="18"/>
<text text-anchor="middle" x="266.89" y="-169.3" font-family="Times,serif" font-size="14.00">create_resource_account_and_publish_package</text>
</g>
<!-- resource_account::create_resource_account_and_publish_package&#45;&gt;code::publish_package_txn -->
<g id="edge5" class="edge">
<title>resource_account::create_resource_account_and_publish_package&#45;&gt;code::publish_package_txn</title>
<path fill="none" stroke="black" d="M266.89,-154.82C266.89,-144.69 266.89,-131.6 266.89,-119.92"/>
<polygon fill="black" stroke="black" points="270.39,-119.95 266.89,-109.95 263.39,-119.95 270.39,-119.95"/>
</g>
<!-- genesis::initialize -->
<g id="node7" class="node">
<title>genesis::initialize</title>
<ellipse fill="none" stroke="black" cx="577.89" cy="-173" rx="41.69" ry="18"/>
<text text-anchor="middle" x="577.89" y="-169.3" font-family="Times,serif" font-size="14.00">initialize</text>
</g>
<!-- genesis::initialize&#45;&gt;gas_schedule::initialize -->
<g id="edge6" class="edge">
<title>genesis::initialize&#45;&gt;gas_schedule::initialize</title>
<path fill="none" stroke="black" d="M577.89,-154.82C577.89,-144.69 577.89,-131.6 577.89,-119.92"/>
<polygon fill="black" stroke="black" points="581.39,-119.95 577.89,-109.95 574.39,-119.95 581.39,-119.95"/>
</g>
<!-- genesis::initialize_for_verification -->
<g id="node8" class="node">
<title>genesis::initialize_for_verification</title>
<ellipse fill="none" stroke="black" cx="577.89" cy="-248" rx="100.98" ry="18"/>
<text text-anchor="middle" x="577.89" y="-244.3" font-family="Times,serif" font-size="14.00">initialize_for_verification</text>
</g>
<!-- genesis::initialize_for_verification&#45;&gt;genesis::initialize -->
<g id="edge7" class="edge">
<title>genesis::initialize_for_verification&#45;&gt;genesis::initialize</title>
<path fill="none" stroke="black" d="M577.89,-229.7C577.89,-221.67 577.89,-211.9 577.89,-202.8"/>
<polygon fill="black" stroke="black" points="581.39,-202.94 577.89,-192.94 574.39,-202.94 581.39,-202.94"/>
</g>
</g>
</svg>
