<?xml version="1.0" encoding="UTF-8" standalone="no"?>
<!DOCTYPE svg PUBLIC "-//W3C//DTD SVG 1.1//EN"
 "http://www.w3.org/Graphics/SVG/1.1/DTD/svg11.dtd">
<!-- Generated by graphviz version 7.0.4 (20221203.1631)
 -->
<!-- Title: G Pages: 1 -->
<svg width="1869pt" height="614pt"
 viewBox="0.00 0.00 1869.00 614.00" xmlns="http://www.w3.org/2000/svg" xmlns:xlink="http://www.w3.org/1999/xlink">
<g id="graph0" class="graph" transform="scale(1 1) rotate(0) translate(4 610)">
<title>G</title>
<polygon fill="white" stroke="none" points="-4,4 -4,-610 1865,-610 1865,4 -4,4"/>
<g id="clust1" class="cluster">
<title>cluster_event</title>
<polygon fill="none" stroke="black" points="8,-329 8,-487 194,-487 194,-329 8,-329"/>
<text text-anchor="middle" x="101" y="-471.8" font-family="Times,serif" font-size="14.00">event</text>
</g>
<g id="clust2" class="cluster">
<title>cluster_staking_contract</title>
<polygon fill="none" stroke="black" points="1004,-412 1004,-562 1256,-562 1256,-412 1004,-412"/>
<text text-anchor="middle" x="1130" y="-546.8" font-family="Times,serif" font-size="14.00">staking_contract</text>
</g>
<g id="clust3" class="cluster">
<title>cluster_bcs</title>
<polygon fill="none" stroke="black" points="202,-329 202,-404 298,-404 298,-329 202,-329"/>
<text text-anchor="middle" x="250" y="-388.8" font-family="Times,serif" font-size="14.00">bcs</text>
</g>
<g id="clust4" class="cluster">
<title>cluster_signer</title>
<polygon fill="none" stroke="black" points="1703,-329 1703,-487 1853,-487 1853,-329 1703,-329"/>
<text text-anchor="middle" x="1778" y="-471.8" font-family="Times,serif" font-size="14.00">signer</text>
</g>
<g id="clust5" class="cluster">
<title>cluster_simple_map</title>
<polygon fill="none" stroke="black" points="1437,-246 1437,-404 1695,-404 1695,-246 1437,-246"/>
<text text-anchor="middle" x="1566" y="-388.8" font-family="Times,serif" font-size="14.00">simple_map</text>
</g>
<g id="clust6" class="cluster">
<title>cluster_stake</title>
<polygon fill="none" stroke="black" points="562,-246 562,-487 996,-487 996,-246 562,-246"/>
<text text-anchor="middle" x="779" y="-471.8" font-family="Times,serif" font-size="14.00">stake</text>
</g>
<g id="clust7" class="cluster">
<title>cluster_account</title>
<polygon fill="none" stroke="black" points="306,-329 306,-487 554,-487 554,-329 306,-329"/>
<text text-anchor="middle" x="430" y="-471.8" font-family="Times,serif" font-size="14.00">account</text>
</g>
<g id="clust8" class="cluster">
<title>cluster_error</title>
<polygon fill="none" stroke="black" points="1004,-163 1004,-321 1429,-321 1429,-163 1004,-163"/>
<text text-anchor="middle" x="1216.5" y="-305.8" font-family="Times,serif" font-size="14.00">error</text>
</g>
<g id="clust9" class="cluster">
<title>cluster_option</title>
<polygon fill="none" stroke="black" points="1560,-91 1560,-238 1796,-238 1796,-91 1560,-91"/>
<text text-anchor="middle" x="1678" y="-222.8" font-family="Times,serif" font-size="14.00">option</text>
</g>
<g id="clust10" class="cluster">
<title>cluster_vector</title>
<polygon fill="none" stroke="black" points="1547,-8 1547,-83 1754,-83 1754,-8 1547,-8"/>
<text text-anchor="middle" x="1650.5" y="-67.8" font-family="Times,serif" font-size="14.00">vector</text>
</g>
<!-- update_voter -->
<g id="node1" class="node">
<title>update_voter</title>
<ellipse fill="none" stroke="black" cx="909" cy="-588" rx="56.59" ry="18"/>
<text text-anchor="middle" x="909" y="-584.3" font-family="Times,serif" font-size="14.00">update_voter</text>
</g>
<!-- event::emit_event -->
<g id="node2" class="node">
<title>event::emit_event</title>
<ellipse fill="none" stroke="black" cx="136" cy="-438" rx="50.09" ry="18"/>
<text text-anchor="middle" x="136" y="-434.3" font-family="Times,serif" font-size="14.00">emit_event</text>
</g>
<!-- update_voter&#45;&gt;event::emit_event -->
<g id="edge1" class="edge">
<title>update_voter&#45;&gt;event::emit_event</title>
<path fill="none" stroke="black" d="M852.26,-586.3C745.32,-584.6 517.75,-579.03 441,-562 340.2,-539.63 229.61,-487.49 173.36,-458.8"/>
<polygon fill="black" stroke="black" points="175.02,-455.71 164.53,-454.25 171.82,-461.94 175.02,-455.71"/>
</g>
<!-- staking_contract::update_voter -->
<g id="node3" class="node">
<title>staking_contract::update_voter</title>
<ellipse fill="none" stroke="black" cx="1069" cy="-513" rx="56.59" ry="18"/>
<text text-anchor="middle" x="1069" y="-509.3" font-family="Times,serif" font-size="14.00">update_voter</text>
</g>
<!-- update_voter&#45;&gt;staking_contract::update_voter -->
<g id="edge2" class="edge">
<title>update_voter&#45;&gt;staking_contract::update_voter</title>
<path fill="none" stroke="black" d="M940.23,-572.75C965.04,-561.43 999.96,-545.5 1027.19,-533.08"/>
<polygon fill="black" stroke="black" points="1028.55,-536.3 1036.2,-528.97 1025.65,-529.93 1028.55,-536.3"/>
</g>
<!-- get_vesting_account_signer_internal -->
<g id="node4" class="node">
<title>get_vesting_account_signer_internal</title>
<ellipse fill="none" stroke="black" cx="590" cy="-513" rx="139.98" ry="18"/>
<text text-anchor="middle" x="590" y="-509.3" font-family="Times,serif" font-size="14.00">get_vesting_account_signer_internal</text>
</g>
<!-- update_voter&#45;&gt;get_vesting_account_signer_internal -->
<g id="edge3" class="edge">
<title>update_voter&#45;&gt;get_vesting_account_signer_internal</title>
<path fill="none" stroke="black" d="M863.97,-576.7C813.12,-565.06 729.47,-545.92 667.95,-531.84"/>
<polygon fill="black" stroke="black" points="668.74,-528.43 658.21,-529.61 667.18,-535.25 668.74,-528.43"/>
</g>
<!-- verify_admin -->
<g id="node5" class="node">
<title>verify_admin</title>
<ellipse fill="none" stroke="black" cx="1322" cy="-513" rx="58.49" ry="18"/>
<text text-anchor="middle" x="1322" y="-509.3" font-family="Times,serif" font-size="14.00">verify_admin</text>
</g>
<!-- update_voter&#45;&gt;verify_admin -->
<g id="edge4" class="edge">
<title>update_voter&#45;&gt;verify_admin</title>
<path fill="none" stroke="black" d="M965.96,-586.92C1051.29,-586.14 1207.85,-581.92 1260,-562 1273.81,-556.72 1287.06,-547.29 1297.74,-538.17"/>
<polygon fill="black" stroke="black" points="1299.84,-540.98 1304.94,-531.69 1295.16,-535.78 1299.84,-540.98"/>
</g>
<!-- bcs::to_bytes -->
<g id="node6" class="node">
<title>bcs::to_bytes</title>
<ellipse fill="none" stroke="black" cx="250" cy="-355" rx="40.09" ry="18"/>
<text text-anchor="middle" x="250" y="-351.3" font-family="Times,serif" font-size="14.00">to_bytes</text>
</g>
<!-- event::emit_event&#45;&gt;bcs::to_bytes -->
<g id="edge5" class="edge">
<title>event::emit_event&#45;&gt;bcs::to_bytes</title>
<path fill="none" stroke="black" d="M165.62,-423.2C176.19,-417.77 187.96,-411.13 198,-404 208.07,-396.85 218.25,-387.92 226.9,-379.7"/>
<polygon fill="black" stroke="black" points="229.18,-382.37 233.89,-372.88 224.29,-377.36 229.18,-382.37"/>
</g>
<!-- event::write_to_event_store -->
<g id="node7" class="node">
<title>event::write_to_event_store</title>
<ellipse fill="none" stroke="black" cx="101" cy="-355" rx="85.29" ry="18"/>
<text text-anchor="middle" x="101" y="-351.3" font-family="Times,serif" font-size="14.00">write_to_event_store</text>
</g>
<!-- event::emit_event&#45;&gt;event::write_to_event_store -->
<g id="edge6" class="edge">
<title>event::emit_event&#45;&gt;event::write_to_event_store</title>
<path fill="none" stroke="black" d="M128.58,-419.82C124.03,-409.3 118.11,-395.59 112.91,-383.57"/>
<polygon fill="black" stroke="black" points="116.19,-382.33 109.01,-374.54 109.77,-385.11 116.19,-382.33"/>
</g>
<!-- staking_contract::update_voter&#45;&gt;event::emit_event -->
<g id="edge8" class="edge">
<title>staking_contract::update_voter&#45;&gt;event::emit_event</title>
<path fill="none" stroke="black" d="M1013.85,-508.6C948.34,-504.69 835.75,-498.38 739,-495 690.47,-493.31 350.02,-494.25 302,-487 259.89,-480.64 213.44,-466.57 180.41,-455.3"/>
<polygon fill="black" stroke="black" points="181.77,-452.07 171.18,-452.1 179.48,-458.69 181.77,-452.07"/>
</g>
<!-- signer::address_of -->
<g id="node8" class="node">
<title>signer::address_of</title>
<ellipse fill="none" stroke="black" cx="1760" cy="-438" rx="48.99" ry="18"/>
<text text-anchor="middle" x="1760" y="-434.3" font-family="Times,serif" font-size="14.00">address_of</text>
</g>
<!-- staking_contract::update_voter&#45;&gt;signer::address_of -->
<g id="edge7" class="edge">
<title>staking_contract::update_voter&#45;&gt;signer::address_of</title>
<path fill="none" stroke="black" d="M1122.07,-506.39C1249.08,-492.98 1569.72,-459.1 1701.78,-445.15"/>
<polygon fill="black" stroke="black" points="1702.13,-448.63 1711.71,-444.1 1701.4,-441.67 1702.13,-448.63"/>
</g>
<!-- simple_map::borrow_mut -->
<g id="node9" class="node">
<title>simple_map::borrow_mut</title>
<ellipse fill="none" stroke="black" cx="1632" cy="-355" rx="54.69" ry="18"/>
<text text-anchor="middle" x="1632" y="-351.3" font-family="Times,serif" font-size="14.00">borrow_mut</text>
</g>
<!-- staking_contract::update_voter&#45;&gt;simple_map::borrow_mut -->
<g id="edge9" class="edge">
<title>staking_contract::update_voter&#45;&gt;simple_map::borrow_mut</title>
<path fill="none" stroke="black" d="M1124.19,-508.6C1219.26,-500.92 1418.11,-476.8 1568,-404 1581.27,-397.55 1594.55,-388.19 1605.55,-379.44"/>
<polygon fill="black" stroke="black" points="1607.54,-382.34 1613.03,-373.28 1603.09,-376.93 1607.54,-382.34"/>
</g>
<!-- stake::get_delegated_voter -->
<g id="node10" class="node">
<title>stake::get_delegated_voter</title>
<ellipse fill="none" stroke="black" cx="906" cy="-438" rx="81.79" ry="18"/>
<text text-anchor="middle" x="906" y="-434.3" font-family="Times,serif" font-size="14.00">get_delegated_voter</text>
</g>
<!-- staking_contract::update_voter&#45;&gt;stake::get_delegated_voter -->
<g id="edge10" class="edge">
<title>staking_contract::update_voter&#45;&gt;stake::get_delegated_voter</title>
<path fill="none" stroke="black" d="M1031.07,-499.21C1020.88,-495.52 1009.93,-491.32 1000,-487 981.63,-479.02 961.81,-469.1 945.12,-460.36"/>
<polygon fill="black" stroke="black" points="947,-457.39 936.52,-455.8 943.72,-463.57 947,-457.39"/>
</g>
<!-- stake::set_delegated_voter_with_cap -->
<g id="node11" class="node">
<title>stake::set_delegated_voter_with_cap</title>
<ellipse fill="none" stroke="black" cx="688" cy="-438" rx="117.78" ry="18"/>
<text text-anchor="middle" x="688" y="-434.3" font-family="Times,serif" font-size="14.00">set_delegated_voter_with_cap</text>
</g>
<!-- staking_contract::update_voter&#45;&gt;stake::set_delegated_voter_with_cap -->
<g id="edge11" class="edge">
<title>staking_contract::update_voter&#45;&gt;stake::set_delegated_voter_with_cap</title>
<path fill="none" stroke="black" d="M1012.57,-510.69C960.63,-508.49 881.77,-502.61 815,-487 787.63,-480.6 758.21,-469.75 734.58,-459.98"/>
<polygon fill="black" stroke="black" points="736.13,-456.84 725.55,-456.18 733.41,-463.29 736.13,-456.84"/>
</g>
<!-- staking_contract::assert_staking_contract_exists -->
<g id="node12" class="node">
<title>staking_contract::assert_staking_contract_exists</title>
<ellipse fill="none" stroke="black" cx="1130" cy="-438" rx="117.78" ry="18"/>
<text text-anchor="middle" x="1130" y="-434.3" font-family="Times,serif" font-size="14.00">assert_staking_contract_exists</text>
</g>
<!-- staking_contract::update_voter&#45;&gt;staking_contract::assert_staking_contract_exists -->
<g id="edge12" class="edge">
<title>staking_contract::update_voter&#45;&gt;staking_contract::assert_staking_contract_exists</title>
<path fill="none" stroke="black" d="M1082.84,-495.44C1090.4,-486.39 1099.93,-474.99 1108.44,-464.81"/>
<polygon fill="black" stroke="black" points="1110.88,-467.34 1114.61,-457.42 1105.51,-462.85 1110.88,-467.34"/>
</g>
<!-- account::create_signer_with_capability -->
<g id="node13" class="node">
<title>account::create_signer_with_capability</title>
<ellipse fill="none" stroke="black" cx="430" cy="-438" rx="116.18" ry="18"/>
<text text-anchor="middle" x="430" y="-434.3" font-family="Times,serif" font-size="14.00">create_signer_with_capability</text>
</g>
<!-- get_vesting_account_signer_internal&#45;&gt;account::create_signer_with_capability -->
<g id="edge13" class="edge">
<title>get_vesting_account_signer_internal&#45;&gt;account::create_signer_with_capability</title>
<path fill="none" stroke="black" d="M553.29,-495.25C530.55,-484.88 501.12,-471.45 476.72,-460.32"/>
<polygon fill="black" stroke="black" points="478.19,-457.14 467.64,-456.17 475.28,-463.51 478.19,-457.14"/>
</g>
<!-- verify_admin&#45;&gt;signer::address_of -->
<g id="edge14" class="edge">
<title>verify_admin&#45;&gt;signer::address_of</title>
<path fill="none" stroke="black" d="M1372.67,-503.55C1455.45,-489.76 1619.03,-462.5 1704.71,-448.22"/>
<polygon fill="black" stroke="black" points="1705.23,-451.68 1714.52,-446.58 1704.08,-444.77 1705.23,-451.68"/>
</g>
<!-- error::unauthenticated -->
<g id="node14" class="node">
<title>error::unauthenticated</title>
<ellipse fill="none" stroke="black" cx="1190" cy="-272" rx="66.09" ry="18"/>
<text text-anchor="middle" x="1190" y="-268.3" font-family="Times,serif" font-size="14.00">unauthenticated</text>
</g>
<!-- verify_admin&#45;&gt;error::unauthenticated -->
<g id="edge15" class="edge">
<title>verify_admin&#45;&gt;error::unauthenticated</title>
<path fill="none" stroke="black" d="M1312.51,-494.81C1289.82,-453.73 1232.3,-349.58 1204.92,-300.02"/>
<polygon fill="black" stroke="black" points="1208.04,-298.42 1200.14,-291.36 1201.91,-301.8 1208.04,-298.42"/>
</g>
<!-- signer::borrow_address -->
<g id="node15" class="node">
<title>signer::borrow_address</title>
<ellipse fill="none" stroke="black" cx="1778" cy="-355" rx="66.89" ry="18"/>
<text text-anchor="middle" x="1778" y="-351.3" font-family="Times,serif" font-size="14.00">borrow_address</text>
</g>
<!-- signer::address_of&#45;&gt;signer::borrow_address -->
<g id="edge16" class="edge">
<title>signer::address_of&#45;&gt;signer::borrow_address</title>
<path fill="none" stroke="black" d="M1763.82,-419.82C1766.09,-409.58 1769.04,-396.33 1771.66,-384.55"/>
<polygon fill="black" stroke="black" points="1775.05,-385.43 1773.8,-374.91 1768.21,-383.91 1775.05,-385.43"/>
</g>
<!-- option::extract -->
<g id="node16" class="node">
<title>option::extract</title>
<ellipse fill="none" stroke="black" cx="1754" cy="-189" rx="34.39" ry="18"/>
<text text-anchor="middle" x="1754" y="-185.3" font-family="Times,serif" font-size="14.00">extract</text>
</g>
<!-- simple_map::borrow_mut&#45;&gt;option::extract -->
<g id="edge17" class="edge">
<title>simple_map::borrow_mut&#45;&gt;option::extract</title>
<path fill="none" stroke="black" d="M1644.6,-337.07C1666.1,-308.17 1709.98,-249.17 1735.15,-215.34"/>
<polygon fill="black" stroke="black" points="1737.95,-217.44 1741.11,-207.33 1732.33,-213.26 1737.95,-217.44"/>
</g>
<!-- option::is_some -->
<g id="node17" class="node">
<title>option::is_some</title>
<ellipse fill="none" stroke="black" cx="1608" cy="-117" rx="40.09" ry="18"/>
<text text-anchor="middle" x="1608" y="-113.3" font-family="Times,serif" font-size="14.00">is_some</text>
</g>
<!-- simple_map::borrow_mut&#45;&gt;option::is_some -->
<g id="edge18" class="edge">
<title>simple_map::borrow_mut&#45;&gt;option::is_some</title>
<path fill="none" stroke="black" d="M1600.42,-339.84C1592.41,-334.91 1584.52,-328.65 1579,-321 1556.79,-290.23 1563.48,-275.68 1559,-238 1555.07,-204.9 1545.59,-193.52 1559,-163 1562.94,-154.03 1569.65,-146.07 1576.86,-139.42"/>
<polygon fill="black" stroke="black" points="1578.84,-142.33 1584.25,-133.23 1574.34,-136.97 1578.84,-142.33"/>
</g>
<!-- error::invalid_argument -->
<g id="node18" class="node">
<title>error::invalid_argument</title>
<ellipse fill="none" stroke="black" cx="1348" cy="-272" rx="73.39" ry="18"/>
<text text-anchor="middle" x="1348" y="-268.3" font-family="Times,serif" font-size="14.00">invalid_argument</text>
</g>
<!-- simple_map::borrow_mut&#45;&gt;error::invalid_argument -->
<g id="edge19" class="edge">
<title>simple_map::borrow_mut&#45;&gt;error::invalid_argument</title>
<path fill="none" stroke="black" d="M1601.36,-339.78C1590.98,-335.58 1579.19,-331.45 1568,-329 1509.29,-316.13 1490.65,-337.99 1433,-321 1414.33,-315.5 1395.31,-305.27 1380,-295.67"/>
<polygon fill="black" stroke="black" points="1382.08,-292.85 1371.79,-290.33 1378.27,-298.71 1382.08,-292.85"/>
</g>
<!-- simple_map::find -->
<g id="node19" class="node">
<title>simple_map::find</title>
<ellipse fill="none" stroke="black" cx="1615" cy="-272" rx="27" ry="18"/>
<text text-anchor="middle" x="1615" y="-268.3" font-family="Times,serif" font-size="14.00">find</text>
</g>
<!-- simple_map::borrow_mut&#45;&gt;simple_map::find -->
<g id="edge20" class="edge">
<title>simple_map::borrow_mut&#45;&gt;simple_map::find</title>
<path fill="none" stroke="black" d="M1628.39,-336.82C1626.23,-326.51 1623.43,-313.14 1620.94,-301.31"/>
<polygon fill="black" stroke="black" points="1624.39,-300.7 1618.91,-291.63 1617.54,-302.14 1624.39,-300.7"/>
</g>
<!-- stake::assert_stake_pool_exists -->
<g id="node20" class="node">
<title>stake::assert_stake_pool_exists</title>
<ellipse fill="none" stroke="black" cx="891" cy="-355" rx="97.48" ry="18"/>
<text text-anchor="middle" x="891" y="-351.3" font-family="Times,serif" font-size="14.00">assert_stake_pool_exists</text>
</g>
<!-- stake::get_delegated_voter&#45;&gt;stake::assert_stake_pool_exists -->
<g id="edge21" class="edge">
<title>stake::get_delegated_voter&#45;&gt;stake::assert_stake_pool_exists</title>
<path fill="none" stroke="black" d="M902.82,-419.82C900.92,-409.58 898.47,-396.33 896.29,-384.55"/>
<polygon fill="black" stroke="black" points="899.77,-384.12 894.5,-374.92 892.88,-385.39 899.77,-384.12"/>
</g>
<!-- stake::set_delegated_voter_with_cap&#45;&gt;stake::assert_stake_pool_exists -->
<g id="edge22" class="edge">
<title>stake::set_delegated_voter_with_cap&#45;&gt;stake::assert_stake_pool_exists</title>
<path fill="none" stroke="black" d="M728.59,-420.8C760.89,-407.92 806.24,-389.82 840.81,-376.03"/>
<polygon fill="black" stroke="black" points="841.77,-379.41 849.76,-372.45 839.18,-372.91 841.77,-379.41"/>
</g>
<!-- error::not_found -->
<g id="node21" class="node">
<title>error::not_found</title>
<ellipse fill="none" stroke="black" cx="1059" cy="-272" rx="46.59" ry="18"/>
<text text-anchor="middle" x="1059" y="-268.3" font-family="Times,serif" font-size="14.00">not_found</text>
</g>
<!-- staking_contract::assert_staking_contract_exists&#45;&gt;error::not_found -->
<g id="edge23" class="edge">
<title>staking_contract::assert_staking_contract_exists&#45;&gt;error::not_found</title>
<path fill="none" stroke="black" d="M1122.54,-419.76C1110.2,-391.26 1085.46,-334.12 1070.76,-300.16"/>
<polygon fill="black" stroke="black" points="1074.15,-299.19 1066.97,-291.4 1067.73,-301.97 1074.15,-299.19"/>
</g>
<!-- simple_map::contains_key -->
<g id="node22" class="node">
<title>simple_map::contains_key</title>
<ellipse fill="none" stroke="black" cx="1502" cy="-355" rx="57.39" ry="18"/>
<text text-anchor="middle" x="1502" y="-351.3" font-family="Times,serif" font-size="14.00">contains_key</text>
</g>
<!-- staking_contract::assert_staking_contract_exists&#45;&gt;simple_map::contains_key -->
<g id="edge24" class="edge">
<title>staking_contract::assert_staking_contract_exists&#45;&gt;simple_map::contains_key</title>
<path fill="none" stroke="black" d="M1195.65,-422.71C1266.24,-407.34 1377.35,-383.14 1444.58,-368.5"/>
<polygon fill="black" stroke="black" points="1445.29,-371.93 1454.31,-366.38 1443.8,-365.09 1445.29,-371.93"/>
</g>
<!-- account::create_signer -->
<g id="node23" class="node">
<title>account::create_signer</title>
<ellipse fill="none" stroke="black" cx="430" cy="-355" rx="57.69" ry="18"/>
<text text-anchor="middle" x="430" y="-351.3" font-family="Times,serif" font-size="14.00">create_signer</text>
</g>
<!-- account::create_signer_with_capability&#45;&gt;account::create_signer -->
<g id="edge25" class="edge">
<title>account::create_signer_with_capability&#45;&gt;account::create_signer</title>
<path fill="none" stroke="black" d="M430,-419.82C430,-409.69 430,-396.6 430,-384.92"/>
<polygon fill="black" stroke="black" points="433.5,-384.95 430,-374.95 426.5,-384.95 433.5,-384.95"/>
</g>
<!-- error::canonical -->
<g id="node24" class="node">
<title>error::canonical</title>
<ellipse fill="none" stroke="black" cx="1190" cy="-189" rx="44.39" ry="18"/>
<text text-anchor="middle" x="1190" y="-185.3" font-family="Times,serif" font-size="14.00">canonical</text>
</g>
<!-- error::unauthenticated&#45;&gt;error::canonical -->
<g id="edge26" class="edge">
<title>error::unauthenticated&#45;&gt;error::canonical</title>
<path fill="none" stroke="black" d="M1190,-253.82C1190,-243.69 1190,-230.6 1190,-218.92"/>
<polygon fill="black" stroke="black" points="1193.5,-218.95 1190,-208.95 1186.5,-218.95 1193.5,-218.95"/>
</g>
<!-- option::extract&#45;&gt;option::is_some -->
<g id="edge27" class="edge">
<title>option::extract&#45;&gt;option::is_some</title>
<path fill="none" stroke="black" d="M1732.39,-174.79C1725.63,-170.83 1718.09,-166.59 1711,-163 1690.54,-152.62 1667.14,-142.29 1647.83,-134.14"/>
<polygon fill="black" stroke="black" points="1649.24,-130.94 1638.67,-130.32 1646.55,-137.4 1649.24,-130.94"/>
</g>
<!-- vector::is_empty -->
<g id="node25" class="node">
<title>vector::is_empty</title>
<ellipse fill="none" stroke="black" cx="1599" cy="-34" rx="43.59" ry="18"/>
<text text-anchor="middle" x="1599" y="-30.3" font-family="Times,serif" font-size="14.00">is_empty</text>
</g>
<!-- option::is_some&#45;&gt;vector::is_empty -->
<g id="edge28" class="edge">
<title>option::is_some&#45;&gt;vector::is_empty</title>
<path fill="none" stroke="black" d="M1606.09,-98.82C1604.95,-88.58 1603.48,-75.33 1602.17,-63.55"/>
<polygon fill="black" stroke="black" points="1605.69,-63.49 1601.1,-53.94 1598.73,-64.26 1605.69,-63.49"/>
</g>
<!-- error::invalid_argument&#45;&gt;error::canonical -->
<g id="edge29" class="edge">
<title>error::invalid_argument&#45;&gt;error::canonical</title>
<path fill="none" stroke="black" d="M1317.16,-255.19C1291.28,-241.92 1254.25,-222.94 1226.82,-208.87"/>
<polygon fill="black" stroke="black" points="1228.66,-205.89 1218.16,-204.44 1225.47,-212.12 1228.66,-205.89"/>
</g>
<!-- option::none -->
<g id="node26" class="node">
<title>option::none</title>
<ellipse fill="none" stroke="black" cx="1674" cy="-189" rx="27.9" ry="18"/>
<text text-anchor="middle" x="1674" y="-185.3" font-family="Times,serif" font-size="14.00">none</text>
</g>
<!-- simple_map::find&#45;&gt;option::none -->
<g id="edge30" class="edge">
<title>simple_map::find&#45;&gt;option::none</title>
<path fill="none" stroke="black" d="M1626.38,-255.38C1634.73,-243.91 1646.25,-228.1 1655.86,-214.9"/>
<polygon fill="black" stroke="black" points="1658.51,-217.21 1661.57,-207.07 1652.85,-213.09 1658.51,-217.21"/>
</g>
<!-- option::some -->
<g id="node27" class="node">
<title>option::some</title>
<ellipse fill="none" stroke="black" cx="1598" cy="-189" rx="29.8" ry="18"/>
<text text-anchor="middle" x="1598" y="-185.3" font-family="Times,serif" font-size="14.00">some</text>
</g>
<!-- simple_map::find&#45;&gt;option::some -->
<g id="edge31" class="edge">
<title>simple_map::find&#45;&gt;option::some</title>
<path fill="none" stroke="black" d="M1611.39,-253.82C1609.23,-243.51 1606.43,-230.14 1603.94,-218.31"/>
<polygon fill="black" stroke="black" points="1607.39,-217.7 1601.91,-208.63 1600.54,-219.14 1607.39,-217.7"/>
</g>
<!-- stake::assert_stake_pool_exists&#45;&gt;error::invalid_argument -->
<g id="edge32" class="edge">
<title>stake::assert_stake_pool_exists&#45;&gt;error::invalid_argument</title>
<path fill="none" stroke="black" d="M985.75,-350.31C1079.1,-345.85 1214.81,-336.86 1265,-321 1283.1,-315.28 1301.54,-305.13 1316.43,-295.64"/>
<polygon fill="black" stroke="black" points="1317.98,-298.81 1324.4,-290.38 1314.12,-292.96 1317.98,-298.81"/>
</g>
<!-- stake::stake_pool_exists -->
<g id="node28" class="node">
<title>stake::stake_pool_exists</title>
<ellipse fill="none" stroke="black" cx="891" cy="-272" rx="73.39" ry="18"/>
<text text-anchor="middle" x="891" y="-268.3" font-family="Times,serif" font-size="14.00">stake_pool_exists</text>
</g>
<!-- stake::assert_stake_pool_exists&#45;&gt;stake::stake_pool_exists -->
<g id="edge33" class="edge">
<title>stake::assert_stake_pool_exists&#45;&gt;stake::stake_pool_exists</title>
<path fill="none" stroke="black" d="M891,-336.82C891,-326.69 891,-313.6 891,-301.92"/>
<polygon fill="black" stroke="black" points="894.5,-301.95 891,-291.95 887.5,-301.95 894.5,-301.95"/>
</g>
<!-- error::not_found&#45;&gt;error::canonical -->
<g id="edge34" class="edge">
<title>error::not_found&#45;&gt;error::canonical</title>
<path fill="none" stroke="black" d="M1083.03,-256.14C1103.75,-243.33 1133.87,-224.71 1156.87,-210.48"/>
<polygon fill="black" stroke="black" points="1158.61,-213.52 1165.28,-205.29 1154.93,-207.57 1158.61,-213.52"/>
</g>
<!-- simple_map::contains_key&#45;&gt;option::is_some -->
<g id="edge35" class="edge">
<title>simple_map::contains_key&#45;&gt;option::is_some</title>
<path fill="none" stroke="black" d="M1502.34,-336.65C1503.81,-301.14 1511.26,-218.85 1548,-163 1554.49,-153.13 1563.92,-144.6 1573.39,-137.7"/>
<polygon fill="black" stroke="black" points="1575.19,-140.71 1581.51,-132.21 1571.27,-134.92 1575.19,-140.71"/>
</g>
<!-- simple_map::contains_key&#45;&gt;simple_map::find -->
<g id="edge36" class="edge">
<title>simple_map::contains_key&#45;&gt;simple_map::find</title>
<path fill="none" stroke="black" d="M1524.33,-338C1542.59,-324.9 1568.5,-306.34 1587.94,-292.4"/>
<polygon fill="black" stroke="black" points="1589.86,-295.33 1595.95,-286.66 1585.78,-289.64 1589.86,-295.33"/>
</g>
<!-- vector::singleton -->
<g id="node29" class="node">
<title>vector::singleton</title>
<ellipse fill="none" stroke="black" cx="1703" cy="-34" rx="42.79" ry="18"/>
<text text-anchor="middle" x="1703" y="-30.3" font-family="Times,serif" font-size="14.00">singleton</text>
</g>
<!-- option::some&#45;&gt;vector::singleton -->
<g id="edge37" class="edge">
<title>option::some&#45;&gt;vector::singleton</title>
<path fill="none" stroke="black" d="M1616.59,-174.56C1629.23,-164.71 1645.65,-150.41 1657,-135 1673.36,-112.8 1685.89,-83.86 1693.71,-62.83"/>
<polygon fill="black" stroke="black" points="1696.98,-64.07 1697.06,-53.48 1690.39,-61.71 1696.98,-64.07"/>
</g>
</g>
</svg>
