<?xml version="1.0" encoding="UTF-8" standalone="no"?>
<!DOCTYPE svg PUBLIC "-//W3C//DTD SVG 1.1//EN"
 "http://www.w3.org/Graphics/SVG/1.1/DTD/svg11.dtd">
<!-- Generated by graphviz version 7.0.4 (20221203.1631)
 -->
<!-- Title: G Pages: 1 -->
<svg width="318pt" height="188pt"
 viewBox="0.00 0.00 318.43 188.00" xmlns="http://www.w3.org/2000/svg" xmlns:xlink="http://www.w3.org/1999/xlink">
<g id="graph0" class="graph" transform="scale(1 1) rotate(0) translate(4 184)">
<title>G</title>
<polygon fill="white" stroke="none" points="-4,4 -4,-184 314.43,-184 314.43,4 -4,4"/>
<!-- withdraw_stake -->
<g id="node1" class="node">
<title>withdraw_stake</title>
<ellipse fill="none" stroke="black" cx="172.59" cy="-18" rx="66.09" ry="18"/>
<text text-anchor="middle" x="172.59" y="-14.3" font-family="Times,serif" font-size="14.00">withdraw_stake</text>
</g>
<!-- distribute -->
<g id="node2" class="node">
<title>distribute</title>
<ellipse fill="none" stroke="black" cx="106.59" cy="-90" rx="44.39" ry="18"/>
<text text-anchor="middle" x="106.59" y="-86.3" font-family="Times,serif" font-size="14.00">distribute</text>
</g>
<!-- distribute&#45;&gt;withdraw_stake -->
<g id="edge1" class="edge">
<title>distribute&#45;&gt;withdraw_stake</title>
<path fill="none" stroke="black" d="M121.9,-72.76C130.03,-64.14 140.19,-53.36 149.28,-43.73"/>
<polygon fill="black" stroke="black" points="151.56,-46.41 155.87,-36.73 146.46,-41.61 151.56,-46.41"/>
</g>
<!-- admin_withdraw -->
<g id="node3" class="node">
<title>admin_withdraw</title>
<ellipse fill="none" stroke="black" cx="239.59" cy="-90" rx="70.69" ry="18"/>
<text text-anchor="middle" x="239.59" y="-86.3" font-family="Times,serif" font-size="14.00">admin_withdraw</text>
</g>
<!-- admin_withdraw&#45;&gt;withdraw_stake -->
<g id="edge2" class="edge">
<title>admin_withdraw&#45;&gt;withdraw_stake</title>
<path fill="none" stroke="black" d="M223.37,-72.05C215.31,-63.63 205.4,-53.28 196.49,-43.97"/>
<polygon fill="black" stroke="black" points="199.15,-41.69 189.71,-36.88 194.09,-46.53 199.15,-41.69"/>
</g>
<!-- terminate_vesting_contract -->
<g id="node4" class="node">
<title>terminate_vesting_contract</title>
<ellipse fill="none" stroke="black" cx="106.59" cy="-162" rx="106.68" ry="18"/>
<text text-anchor="middle" x="106.59" y="-158.3" font-family="Times,serif" font-size="14.00">terminate_vesting_contract</text>
</g>
<!-- terminate_vesting_contract&#45;&gt;distribute -->
<g id="edge3" class="edge">
<title>terminate_vesting_contract&#45;&gt;distribute</title>
<path fill="none" stroke="black" d="M106.59,-143.7C106.59,-136.41 106.59,-127.73 106.59,-119.54"/>
<polygon fill="black" stroke="black" points="110.09,-119.62 106.59,-109.62 103.09,-119.62 110.09,-119.62"/>
</g>
</g>
</svg>
