<?xml version="1.0" encoding="UTF-8" standalone="no"?>
<!DOCTYPE svg PUBLIC "-//W3C//DTD SVG 1.1//EN"
 "http://www.w3.org/Graphics/SVG/1.1/DTD/svg11.dtd">
<!-- Generated by graphviz version 7.0.4 (20221203.1631)
 -->
<!-- Title: G Pages: 1 -->
<svg width="250pt" height="227pt"
 viewBox="0.00 0.00 250.00 227.00" xmlns="http://www.w3.org/2000/svg" xmlns:xlink="http://www.w3.org/1999/xlink">
<g id="graph0" class="graph" transform="scale(1 1) rotate(0) translate(4 223)">
<title>G</title>
<polygon fill="white" stroke="none" points="-4,4 -4,-223 246,-223 246,4 -4,4"/>
<g id="clust1" class="cluster">
<title>cluster_staking_proxy</title>
<polygon fill="none" stroke="black" points="8,-64 8,-211 234,-211 234,-64 8,-64"/>
<text text-anchor="middle" x="121" y="-195.8" font-family="Times,serif" font-size="14.00">staking_proxy</text>
</g>
<!-- update_voter -->
<g id="node1" class="node">
<title>update_voter</title>
<ellipse fill="none" stroke="black" cx="121" cy="-18" rx="56.59" ry="18"/>
<text text-anchor="middle" x="121" y="-14.3" font-family="Times,serif" font-size="14.00">update_voter</text>
</g>
<!-- staking_proxy::set_vesting_contract_voter -->
<g id="node2" class="node">
<title>staking_proxy::set_vesting_contract_voter</title>
<ellipse fill="none" stroke="black" cx="121" cy="-90" rx="105.08" ry="18"/>
<text text-anchor="middle" x="121" y="-86.3" font-family="Times,serif" font-size="14.00">set_vesting_contract_voter</text>
</g>
<!-- staking_proxy::set_vesting_contract_voter&#45;&gt;update_voter -->
<g id="edge1" class="edge">
<title>staking_proxy::set_vesting_contract_voter&#45;&gt;update_voter</title>
<path fill="none" stroke="black" d="M121,-71.7C121,-64.41 121,-55.73 121,-47.54"/>
<polygon fill="black" stroke="black" points="124.5,-47.62 121,-37.62 117.5,-47.62 124.5,-47.62"/>
</g>
<!-- staking_proxy::set_voter -->
<g id="node3" class="node">
<title>staking_proxy::set_voter</title>
<ellipse fill="none" stroke="black" cx="121" cy="-162" rx="42.79" ry="18"/>
<text text-anchor="middle" x="121" y="-158.3" font-family="Times,serif" font-size="14.00">set_voter</text>
</g>
<!-- staking_proxy::set_voter&#45;&gt;staking_proxy::set_vesting_contract_voter -->
<g id="edge2" class="edge">
<title>staking_proxy::set_voter&#45;&gt;staking_proxy::set_vesting_contract_voter</title>
<path fill="none" stroke="black" d="M121,-143.7C121,-136.41 121,-127.73 121,-119.54"/>
<polygon fill="black" stroke="black" points="124.5,-119.62 121,-109.62 117.5,-119.62 124.5,-119.62"/>
</g>
</g>
</svg>
