<?xml version="1.0" encoding="UTF-8" standalone="no"?>
<!DOCTYPE svg PUBLIC "-//W3C//DTD SVG 1.1//EN"
 "http://www.w3.org/Graphics/SVG/1.1/DTD/svg11.dtd">
<!-- Generated by graphviz version 7.0.4 (20221203.1631)
 -->
<!-- Title: G Pages: 1 -->
<svg width="1269pt" height="448pt"
 viewBox="0.00 0.00 1269.00 448.00" xmlns="http://www.w3.org/2000/svg" xmlns:xlink="http://www.w3.org/1999/xlink">
<g id="graph0" class="graph" transform="scale(1 1) rotate(0) translate(4 444)">
<title>G</title>
<polygon fill="white" stroke="none" points="-4,4 -4,-444 1265,-444 1265,4 -4,4"/>
<g id="clust1" class="cluster">
<title>cluster_simple_map</title>
<polygon fill="none" stroke="black" points="107,-246 107,-396 518,-396 518,-246 107,-246"/>
<text text-anchor="middle" x="312.5" y="-380.8" font-family="Times,serif" font-size="14.00">simple_map</text>
</g>
<g id="clust2" class="cluster">
<title>cluster_option</title>
<polygon fill="none" stroke="black" points="8,-91 8,-238 338,-238 338,-91 8,-91"/>
<text text-anchor="middle" x="173" y="-222.8" font-family="Times,serif" font-size="14.00">option</text>
</g>
<g id="clust3" class="cluster">
<title>cluster_error</title>
<polygon fill="none" stroke="black" points="526,-163 526,-321 839,-321 839,-163 526,-163"/>
<text text-anchor="middle" x="682.5" y="-305.8" font-family="Times,serif" font-size="14.00">error</text>
</g>
<g id="clust4" class="cluster">
<title>cluster_account</title>
<polygon fill="none" stroke="black" points="1005,-163 1005,-321 1253,-321 1253,-163 1005,-163"/>
<text text-anchor="middle" x="1129" y="-305.8" font-family="Times,serif" font-size="14.00">account</text>
</g>
<g id="clust5" class="cluster">
<title>cluster_signer</title>
<polygon fill="none" stroke="black" points="847,-163 847,-321 997,-321 997,-163 847,-163"/>
<text text-anchor="middle" x="922" y="-305.8" font-family="Times,serif" font-size="14.00">signer</text>
</g>
<g id="clust6" class="cluster">
<title>cluster_vector</title>
<polygon fill="none" stroke="black" points="58,-8 58,-83 265,-83 265,-8 58,-8"/>
<text text-anchor="middle" x="161.5" y="-67.8" font-family="Times,serif" font-size="14.00">vector</text>
</g>
<!-- set_management_role -->
<g id="node1" class="node">
<title>set_management_role</title>
<ellipse fill="none" stroke="black" cx="426" cy="-422" rx="89.08" ry="18"/>
<text text-anchor="middle" x="426" y="-418.3" font-family="Times,serif" font-size="14.00">set_management_role</text>
</g>
<!-- simple_map::borrow_mut -->
<g id="node2" class="node">
<title>simple_map::borrow_mut</title>
<ellipse fill="none" stroke="black" cx="374" cy="-347" rx="54.69" ry="18"/>
<text text-anchor="middle" x="374" y="-343.3" font-family="Times,serif" font-size="14.00">borrow_mut</text>
</g>
<!-- set_management_role&#45;&gt;simple_map::borrow_mut -->
<g id="edge1" class="edge">
<title>set_management_role&#45;&gt;simple_map::borrow_mut</title>
<path fill="none" stroke="black" d="M413.68,-403.7C407.41,-394.91 399.67,-384.04 392.7,-374.25"/>
<polygon fill="black" stroke="black" points="395.59,-372.27 386.93,-366.16 389.88,-376.33 395.59,-372.27"/>
</g>
<!-- simple_map::add -->
<g id="node3" class="node">
<title>simple_map::add</title>
<ellipse fill="none" stroke="black" cx="142" cy="-347" rx="27" ry="18"/>
<text text-anchor="middle" x="142" y="-343.3" font-family="Times,serif" font-size="14.00">add</text>
</g>
<!-- set_management_role&#45;&gt;simple_map::add -->
<g id="edge2" class="edge">
<title>set_management_role&#45;&gt;simple_map::add</title>
<path fill="none" stroke="black" d="M337.55,-419.5C277.62,-417.1 204.66,-411.05 178,-396 169,-390.92 161.57,-382.57 155.85,-374.25"/>
<polygon fill="black" stroke="black" points="158.96,-372.63 150.71,-365.98 153.01,-376.32 158.96,-372.63"/>
</g>
<!-- simple_map::create -->
<g id="node4" class="node">
<title>simple_map::create</title>
<ellipse fill="none" stroke="black" cx="478" cy="-347" rx="31.7" ry="18"/>
<text text-anchor="middle" x="478" y="-343.3" font-family="Times,serif" font-size="14.00">create</text>
</g>
<!-- set_management_role&#45;&gt;simple_map::create -->
<g id="edge3" class="edge">
<title>set_management_role&#45;&gt;simple_map::create</title>
<path fill="none" stroke="black" d="M438.32,-403.7C444.79,-394.63 452.83,-383.34 459.98,-373.3"/>
<polygon fill="black" stroke="black" points="462.65,-375.58 465.6,-365.41 456.95,-371.52 462.65,-375.58"/>
</g>
<!-- simple_map::contains_key -->
<g id="node5" class="node">
<title>simple_map::contains_key</title>
<ellipse fill="none" stroke="black" cx="244" cy="-347" rx="57.39" ry="18"/>
<text text-anchor="middle" x="244" y="-343.3" font-family="Times,serif" font-size="14.00">contains_key</text>
</g>
<!-- set_management_role&#45;&gt;simple_map::contains_key -->
<g id="edge4" class="edge">
<title>set_management_role&#45;&gt;simple_map::contains_key</title>
<path fill="none" stroke="black" d="M355.49,-410.71C340.11,-407.13 324.2,-402.35 310,-396 296.16,-389.81 282.35,-380.4 270.97,-371.56"/>
<polygon fill="black" stroke="black" points="273.19,-368.85 263.22,-365.29 268.79,-374.29 273.19,-368.85"/>
</g>
<!-- get_vesting_account_signer_internal -->
<g id="node6" class="node">
<title>get_vesting_account_signer_internal</title>
<ellipse fill="none" stroke="black" cx="1055" cy="-347" rx="139.98" ry="18"/>
<text text-anchor="middle" x="1055" y="-343.3" font-family="Times,serif" font-size="14.00">get_vesting_account_signer_internal</text>
</g>
<!-- set_management_role&#45;&gt;get_vesting_account_signer_internal -->
<g id="edge5" class="edge">
<title>set_management_role&#45;&gt;get_vesting_account_signer_internal</title>
<path fill="none" stroke="black" d="M514.29,-419.39C596.79,-416.98 723.21,-410.97 832,-396 883.07,-388.97 939.86,-376.68 983.35,-366.3"/>
<polygon fill="black" stroke="black" points="984.02,-369.74 992.92,-363.99 982.38,-362.93 984.02,-369.74"/>
</g>
<!-- verify_admin -->
<g id="node7" class="node">
<title>verify_admin</title>
<ellipse fill="none" stroke="black" cx="765" cy="-347" rx="58.49" ry="18"/>
<text text-anchor="middle" x="765" y="-343.3" font-family="Times,serif" font-size="14.00">verify_admin</text>
</g>
<!-- set_management_role&#45;&gt;verify_admin -->
<g id="edge6" class="edge">
<title>set_management_role&#45;&gt;verify_admin</title>
<path fill="none" stroke="black" d="M485.44,-408.2C547.74,-394.79 644.98,-373.84 706.81,-360.53"/>
<polygon fill="black" stroke="black" points="707.41,-363.98 716.45,-358.46 705.93,-357.14 707.41,-363.98"/>
</g>
<!-- option::extract -->
<g id="node8" class="node">
<title>option::extract</title>
<ellipse fill="none" stroke="black" cx="296" cy="-189" rx="34.39" ry="18"/>
<text text-anchor="middle" x="296" y="-185.3" font-family="Times,serif" font-size="14.00">extract</text>
</g>
<!-- simple_map::borrow_mut&#45;&gt;option::extract -->
<g id="edge7" class="edge">
<title>simple_map::borrow_mut&#45;&gt;option::extract</title>
<path fill="none" stroke="black" d="M365.5,-329.01C351.95,-301.91 325.34,-248.68 309.26,-216.53"/>
<polygon fill="black" stroke="black" points="312.53,-215.23 304.93,-207.85 306.27,-218.36 312.53,-215.23"/>
</g>
<!-- option::is_some -->
<g id="node9" class="node">
<title>option::is_some</title>
<ellipse fill="none" stroke="black" cx="290" cy="-117" rx="40.09" ry="18"/>
<text text-anchor="middle" x="290" y="-113.3" font-family="Times,serif" font-size="14.00">is_some</text>
</g>
<!-- simple_map::borrow_mut&#45;&gt;option::is_some -->
<g id="edge8" class="edge">
<title>simple_map::borrow_mut&#45;&gt;option::is_some</title>
<path fill="none" stroke="black" d="M377.16,-328.62C382.47,-294.25 389.72,-216.31 358,-163 351.17,-151.52 340.14,-142.39 328.93,-135.44"/>
<polygon fill="black" stroke="black" points="330.87,-132.52 320.45,-130.63 327.42,-138.6 330.87,-132.52"/>
</g>
<!-- error::invalid_argument -->
<g id="node10" class="node">
<title>error::invalid_argument</title>
<ellipse fill="none" stroke="black" cx="607" cy="-272" rx="73.39" ry="18"/>
<text text-anchor="middle" x="607" y="-268.3" font-family="Times,serif" font-size="14.00">invalid_argument</text>
</g>
<!-- simple_map::borrow_mut&#45;&gt;error::invalid_argument -->
<g id="edge9" class="edge">
<title>simple_map::borrow_mut&#45;&gt;error::invalid_argument</title>
<path fill="none" stroke="black" d="M413.76,-334.18C421.42,-332.21 429.42,-330.37 437,-329 474.34,-322.26 485.79,-332.36 522,-321 540.44,-315.22 559.31,-305.06 574.58,-295.58"/>
<polygon fill="black" stroke="black" points="576.25,-298.66 582.78,-290.31 572.47,-292.77 576.25,-298.66"/>
</g>
<!-- simple_map::find -->
<g id="node11" class="node">
<title>simple_map::find</title>
<ellipse fill="none" stroke="black" cx="214" cy="-272" rx="27" ry="18"/>
<text text-anchor="middle" x="214" y="-268.3" font-family="Times,serif" font-size="14.00">find</text>
</g>
<!-- simple_map::borrow_mut&#45;&gt;simple_map::find -->
<g id="edge10" class="edge">
<title>simple_map::borrow_mut&#45;&gt;simple_map::find</title>
<path fill="none" stroke="black" d="M342.77,-331.75C314.87,-319.02 274.17,-300.45 246.03,-287.61"/>
<polygon fill="black" stroke="black" points="247.84,-284.59 237.28,-283.62 244.93,-290.96 247.84,-284.59"/>
</g>
<!-- simple_map::add&#45;&gt;error::invalid_argument -->
<g id="edge12" class="edge">
<title>simple_map::add&#45;&gt;error::invalid_argument</title>
<path fill="none" stroke="black" d="M162.02,-334.75C167.09,-332.41 172.62,-330.27 178,-329 252.41,-311.4 448.28,-341.3 522,-321 540.9,-315.8 560.07,-305.5 575.41,-295.77"/>
<polygon fill="black" stroke="black" points="577.21,-298.77 583.64,-290.35 573.36,-292.93 577.21,-298.77"/>
</g>
<!-- simple_map::add&#45;&gt;simple_map::find -->
<g id="edge13" class="edge">
<title>simple_map::add&#45;&gt;simple_map::find</title>
<path fill="none" stroke="black" d="M156.22,-331.58C166.38,-321.28 180.24,-307.23 191.84,-295.46"/>
<polygon fill="black" stroke="black" points="194.21,-298.05 198.74,-288.47 189.23,-293.13 194.21,-298.05"/>
</g>
<!-- option::is_none -->
<g id="node12" class="node">
<title>option::is_none</title>
<ellipse fill="none" stroke="black" cx="54" cy="-189" rx="38.19" ry="18"/>
<text text-anchor="middle" x="54" y="-185.3" font-family="Times,serif" font-size="14.00">is_none</text>
</g>
<!-- simple_map::add&#45;&gt;option::is_none -->
<g id="edge11" class="edge">
<title>simple_map::add&#45;&gt;option::is_none</title>
<path fill="none" stroke="black" d="M132.75,-329.6C117.54,-302.64 87.12,-248.71 68.86,-216.34"/>
<polygon fill="black" stroke="black" points="72.1,-214.96 64.14,-207.97 66,-218.4 72.1,-214.96"/>
</g>
<!-- simple_map::contains_key&#45;&gt;option::is_some -->
<g id="edge14" class="edge">
<title>simple_map::contains_key&#45;&gt;option::is_some</title>
<path fill="none" stroke="black" d="M265.13,-330.06C288.34,-311.09 324.28,-277.02 339,-238 350.77,-206.81 352.41,-193.52 339,-163 335.06,-154.03 328.35,-146.07 321.14,-139.42"/>
<polygon fill="black" stroke="black" points="323.66,-136.97 313.75,-133.23 319.16,-142.33 323.66,-136.97"/>
</g>
<!-- simple_map::contains_key&#45;&gt;simple_map::find -->
<g id="edge15" class="edge">
<title>simple_map::contains_key&#45;&gt;simple_map::find</title>
<path fill="none" stroke="black" d="M236.89,-328.7C233.4,-320.21 229.12,-309.79 225.21,-300.27"/>
<polygon fill="black" stroke="black" points="228.47,-298.99 221.43,-291.07 221.99,-301.65 228.47,-298.99"/>
</g>
<!-- account::create_signer_with_capability -->
<g id="node13" class="node">
<title>account::create_signer_with_capability</title>
<ellipse fill="none" stroke="black" cx="1129" cy="-272" rx="116.18" ry="18"/>
<text text-anchor="middle" x="1129" y="-268.3" font-family="Times,serif" font-size="14.00">create_signer_with_capability</text>
</g>
<!-- get_vesting_account_signer_internal&#45;&gt;account::create_signer_with_capability -->
<g id="edge16" class="edge">
<title>get_vesting_account_signer_internal&#45;&gt;account::create_signer_with_capability</title>
<path fill="none" stroke="black" d="M1072.54,-328.7C1081.75,-319.61 1093.22,-308.3 1103.41,-298.25"/>
<polygon fill="black" stroke="black" points="1105.85,-300.75 1110.51,-291.24 1100.93,-295.77 1105.85,-300.75"/>
</g>
<!-- signer::address_of -->
<g id="node14" class="node">
<title>signer::address_of</title>
<ellipse fill="none" stroke="black" cx="913" cy="-272" rx="48.99" ry="18"/>
<text text-anchor="middle" x="913" y="-268.3" font-family="Times,serif" font-size="14.00">address_of</text>
</g>
<!-- verify_admin&#45;&gt;signer::address_of -->
<g id="edge17" class="edge">
<title>verify_admin&#45;&gt;signer::address_of</title>
<path fill="none" stroke="black" d="M808.38,-334.56C819.9,-330.86 832.15,-326.32 843,-321 857.2,-314.04 871.8,-304.48 883.96,-295.73"/>
<polygon fill="black" stroke="black" points="885.96,-298.6 891.92,-289.84 881.8,-292.97 885.96,-298.6"/>
</g>
<!-- error::unauthenticated -->
<g id="node15" class="node">
<title>error::unauthenticated</title>
<ellipse fill="none" stroke="black" cx="765" cy="-272" rx="66.09" ry="18"/>
<text text-anchor="middle" x="765" y="-268.3" font-family="Times,serif" font-size="14.00">unauthenticated</text>
</g>
<!-- verify_admin&#45;&gt;error::unauthenticated -->
<g id="edge18" class="edge">
<title>verify_admin&#45;&gt;error::unauthenticated</title>
<path fill="none" stroke="black" d="M765,-328.7C765,-320.67 765,-310.9 765,-301.8"/>
<polygon fill="black" stroke="black" points="768.5,-301.94 765,-291.94 761.5,-301.94 768.5,-301.94"/>
</g>
<!-- option::extract&#45;&gt;option::is_some -->
<g id="edge19" class="edge">
<title>option::extract&#45;&gt;option::is_some</title>
<path fill="none" stroke="black" d="M294.52,-170.7C293.89,-163.41 293.15,-154.73 292.45,-146.54"/>
<polygon fill="black" stroke="black" points="295.94,-146.28 291.6,-136.61 288.96,-146.87 295.94,-146.28"/>
</g>
<!-- vector::is_empty -->
<g id="node16" class="node">
<title>vector::is_empty</title>
<ellipse fill="none" stroke="black" cx="110" cy="-34" rx="43.59" ry="18"/>
<text text-anchor="middle" x="110" y="-30.3" font-family="Times,serif" font-size="14.00">is_empty</text>
</g>
<!-- option::is_some&#45;&gt;vector::is_empty -->
<g id="edge20" class="edge">
<title>option::is_some&#45;&gt;vector::is_empty</title>
<path fill="none" stroke="black" d="M251.78,-111.19C225.34,-106.68 190.01,-98.26 162,-83 151,-77 140.51,-68.17 131.87,-59.7"/>
<polygon fill="black" stroke="black" points="134.42,-57.31 124.95,-52.57 129.4,-62.18 134.42,-57.31"/>
</g>
<!-- error::canonical -->
<g id="node17" class="node">
<title>error::canonical</title>
<ellipse fill="none" stroke="black" cx="686" cy="-189" rx="44.39" ry="18"/>
<text text-anchor="middle" x="686" y="-185.3" font-family="Times,serif" font-size="14.00">canonical</text>
</g>
<!-- error::invalid_argument&#45;&gt;error::canonical -->
<g id="edge21" class="edge">
<title>error::invalid_argument&#45;&gt;error::canonical</title>
<path fill="none" stroke="black" d="M623.37,-254.22C634.64,-242.66 649.79,-227.13 662.37,-214.23"/>
<polygon fill="black" stroke="black" points="664.66,-216.9 669.13,-207.29 659.65,-212.01 664.66,-216.9"/>
</g>
<!-- option::none -->
<g id="node18" class="node">
<title>option::none</title>
<ellipse fill="none" stroke="black" cx="138" cy="-189" rx="27.9" ry="18"/>
<text text-anchor="middle" x="138" y="-185.3" font-family="Times,serif" font-size="14.00">none</text>
</g>
<!-- simple_map::find&#45;&gt;option::none -->
<g id="edge22" class="edge">
<title>simple_map::find&#45;&gt;option::none</title>
<path fill="none" stroke="black" d="M196.99,-257.93C189.89,-252.14 181.74,-245.05 175,-238 168.25,-230.94 161.54,-222.69 155.71,-215.04"/>
<polygon fill="black" stroke="black" points="158.54,-212.98 149.78,-207.02 152.92,-217.14 158.54,-212.98"/>
</g>
<!-- option::some -->
<g id="node19" class="node">
<title>option::some</title>
<ellipse fill="none" stroke="black" cx="214" cy="-189" rx="29.8" ry="18"/>
<text text-anchor="middle" x="214" y="-185.3" font-family="Times,serif" font-size="14.00">some</text>
</g>
<!-- simple_map::find&#45;&gt;option::some -->
<g id="edge23" class="edge">
<title>simple_map::find&#45;&gt;option::some</title>
<path fill="none" stroke="black" d="M214,-253.82C214,-243.69 214,-230.6 214,-218.92"/>
<polygon fill="black" stroke="black" points="217.5,-218.95 214,-208.95 210.5,-218.95 217.5,-218.95"/>
</g>
<!-- option::is_none&#45;&gt;vector::is_empty -->
<g id="edge24" class="edge">
<title>option::is_none&#45;&gt;vector::is_empty</title>
<path fill="none" stroke="black" d="M60.21,-171.04C69.79,-144.85 88.3,-94.28 99.85,-62.72"/>
<polygon fill="black" stroke="black" points="103.09,-64.05 103.25,-53.46 96.52,-61.64 103.09,-64.05"/>
</g>
<!-- account::create_signer -->
<g id="node20" class="node">
<title>account::create_signer</title>
<ellipse fill="none" stroke="black" cx="1129" cy="-189" rx="57.69" ry="18"/>
<text text-anchor="middle" x="1129" y="-185.3" font-family="Times,serif" font-size="14.00">create_signer</text>
</g>
<!-- account::create_signer_with_capability&#45;&gt;account::create_signer -->
<g id="edge25" class="edge">
<title>account::create_signer_with_capability&#45;&gt;account::create_signer</title>
<path fill="none" stroke="black" d="M1129,-253.82C1129,-243.69 1129,-230.6 1129,-218.92"/>
<polygon fill="black" stroke="black" points="1132.5,-218.95 1129,-208.95 1125.5,-218.95 1132.5,-218.95"/>
</g>
<!-- signer::borrow_address -->
<g id="node21" class="node">
<title>signer::borrow_address</title>
<ellipse fill="none" stroke="black" cx="922" cy="-189" rx="66.89" ry="18"/>
<text text-anchor="middle" x="922" y="-185.3" font-family="Times,serif" font-size="14.00">borrow_address</text>
</g>
<!-- signer::address_of&#45;&gt;signer::borrow_address -->
<g id="edge26" class="edge">
<title>signer::address_of&#45;&gt;signer::borrow_address</title>
<path fill="none" stroke="black" d="M914.91,-253.82C916.05,-243.58 917.52,-230.33 918.83,-218.55"/>
<polygon fill="black" stroke="black" points="922.27,-219.26 919.9,-208.94 915.31,-218.49 922.27,-219.26"/>
</g>
<!-- error::unauthenticated&#45;&gt;error::canonical -->
<g id="edge27" class="edge">
<title>error::unauthenticated&#45;&gt;error::canonical</title>
<path fill="none" stroke="black" d="M748.63,-254.22C737.36,-242.66 722.21,-227.13 709.63,-214.23"/>
<polygon fill="black" stroke="black" points="712.35,-212.01 702.87,-207.29 707.34,-216.9 712.35,-212.01"/>
</g>
<!-- vector::singleton -->
<g id="node22" class="node">
<title>vector::singleton</title>
<ellipse fill="none" stroke="black" cx="214" cy="-34" rx="42.79" ry="18"/>
<text text-anchor="middle" x="214" y="-30.3" font-family="Times,serif" font-size="14.00">singleton</text>
</g>
<!-- option::some&#45;&gt;vector::singleton -->
<g id="edge28" class="edge">
<title>option::some&#45;&gt;vector::singleton</title>
<path fill="none" stroke="black" d="M214,-170.75C214,-144.81 214,-95.44 214,-63.93"/>
<polygon fill="black" stroke="black" points="217.5,-63.94 214,-53.94 210.5,-63.94 217.5,-63.94"/>
</g>
</g>
</svg>
