<?xml version="1.0" encoding="UTF-8" standalone="no"?>
<!DOCTYPE svg PUBLIC "-//W3C//DTD SVG 1.1//EN"
 "http://www.w3.org/Graphics/SVG/1.1/DTD/svg11.dtd">
<!-- Generated by graphviz version 7.0.4 (20221203.1631)
 -->
<!-- Title: G Pages: 1 -->
<svg width="368pt" height="207pt"
 viewBox="0.00 0.00 368.00 207.00" xmlns="http://www.w3.org/2000/svg" xmlns:xlink="http://www.w3.org/1999/xlink">
<g id="graph0" class="graph" transform="scale(1 1) rotate(0) translate(4 203)">
<title>G</title>
<polygon fill="white" stroke="none" points="-4,4 -4,-203 364,-203 364,4 -4,4"/>
<g id="clust1" class="cluster">
<title>cluster_error</title>
<polygon fill="none" stroke="black" points="8,-8 8,-155 170,-155 170,-8 8,-8"/>
<text text-anchor="middle" x="89" y="-139.8" font-family="Times,serif" font-size="14.00">error</text>
</g>
<g id="clust2" class="cluster">
<title>cluster_timestamp</title>
<polygon fill="none" stroke="black" points="178,-8 178,-155 352,-155 352,-8 178,-8"/>
<text text-anchor="middle" x="265" y="-139.8" font-family="Times,serif" font-size="14.00">timestamp</text>
</g>
<!-- create_vesting_schedule -->
<g id="node1" class="node">
<title>create_vesting_schedule</title>
<ellipse fill="none" stroke="black" cx="171" cy="-181" rx="96.68" ry="18"/>
<text text-anchor="middle" x="171" y="-177.3" font-family="Times,serif" font-size="14.00">create_vesting_schedule</text>
</g>
<!-- error::invalid_argument -->
<g id="node2" class="node">
<title>error::invalid_argument</title>
<ellipse fill="none" stroke="black" cx="89" cy="-106" rx="73.39" ry="18"/>
<text text-anchor="middle" x="89" y="-102.3" font-family="Times,serif" font-size="14.00">invalid_argument</text>
</g>
<!-- create_vesting_schedule&#45;&gt;error::invalid_argument -->
<g id="edge1" class="edge">
<title>create_vesting_schedule&#45;&gt;error::invalid_argument</title>
<path fill="none" stroke="black" d="M151.98,-163.07C141.43,-153.67 128.11,-141.82 116.44,-131.43"/>
<polygon fill="black" stroke="black" points="118.84,-128.88 109.05,-124.85 114.19,-134.11 118.84,-128.88"/>
</g>
<!-- timestamp::now_seconds -->
<g id="node3" class="node">
<title>timestamp::now_seconds</title>
<ellipse fill="none" stroke="black" cx="254" cy="-106" rx="57.69" ry="18"/>
<text text-anchor="middle" x="254" y="-102.3" font-family="Times,serif" font-size="14.00">now_seconds</text>
</g>
<!-- create_vesting_schedule&#45;&gt;timestamp::now_seconds -->
<g id="edge2" class="edge">
<title>create_vesting_schedule&#45;&gt;timestamp::now_seconds</title>
<path fill="none" stroke="black" d="M190.25,-163.07C201.19,-153.44 215.07,-141.24 227.08,-130.68"/>
<polygon fill="black" stroke="black" points="229.09,-133.57 234.29,-124.34 224.47,-128.31 229.09,-133.57"/>
</g>
<!-- error::canonical -->
<g id="node4" class="node">
<title>error::canonical</title>
<ellipse fill="none" stroke="black" cx="89" cy="-34" rx="44.39" ry="18"/>
<text text-anchor="middle" x="89" y="-30.3" font-family="Times,serif" font-size="14.00">canonical</text>
</g>
<!-- error::invalid_argument&#45;&gt;error::canonical -->
<g id="edge3" class="edge">
<title>error::invalid_argument&#45;&gt;error::canonical</title>
<path fill="none" stroke="black" d="M89,-87.7C89,-80.41 89,-71.73 89,-63.54"/>
<polygon fill="black" stroke="black" points="92.5,-63.62 89,-53.62 85.5,-63.62 92.5,-63.62"/>
</g>
<!-- timestamp::now_microseconds -->
<g id="node5" class="node">
<title>timestamp::now_microseconds</title>
<ellipse fill="none" stroke="black" cx="265" cy="-34" rx="79.09" ry="18"/>
<text text-anchor="middle" x="265" y="-30.3" font-family="Times,serif" font-size="14.00">now_microseconds</text>
</g>
<!-- timestamp::now_seconds&#45;&gt;timestamp::now_microseconds -->
<g id="edge4" class="edge">
<title>timestamp::now_seconds&#45;&gt;timestamp::now_microseconds</title>
<path fill="none" stroke="black" d="M256.72,-87.7C257.88,-80.32 259.26,-71.52 260.56,-63.25"/>
<polygon fill="black" stroke="black" points="263.98,-64.02 262.08,-53.6 257.07,-62.93 263.98,-64.02"/>
</g>
</g>
</svg>
