<?xml version="1.0" encoding="UTF-8" standalone="no"?>
<!DOCTYPE svg PUBLIC "-//W3C//DTD SVG 1.1//EN"
 "http://www.w3.org/Graphics/SVG/1.1/DTD/svg11.dtd">
<!-- Generated by graphviz version 7.0.4 (20221203.1631)
 -->
<!-- Title: G Pages: 1 -->
<svg width="268pt" height="279pt"
 viewBox="0.00 0.00 267.98 279.00" xmlns="http://www.w3.org/2000/svg" xmlns:xlink="http://www.w3.org/1999/xlink">
<g id="graph0" class="graph" transform="scale(1 1) rotate(0) translate(4 275)">
<title>G</title>
<polygon fill="white" stroke="none" points="-4,4 -4,-275 263.98,-275 263.98,4 -4,4"/>
<g id="clust1" class="cluster">
<title>cluster_error</title>
<polygon fill="none" stroke="black" points="74.99,-8 74.99,-155 184.99,-155 184.99,-8 74.99,-8"/>
<text text-anchor="middle" x="129.99" y="-139.8" font-family="Times,serif" font-size="14.00">error</text>
</g>
<!-- operator_commission_percentage -->
<g id="node1" class="node">
<title>operator_commission_percentage</title>
<ellipse fill="none" stroke="black" cx="129.99" cy="-253" rx="129.98" ry="18"/>
<text text-anchor="middle" x="129.99" y="-249.3" font-family="Times,serif" font-size="14.00">operator_commission_percentage</text>
</g>
<!-- assert_vesting_contract_exists -->
<g id="node2" class="node">
<title>assert_vesting_contract_exists</title>
<ellipse fill="none" stroke="black" cx="129.99" cy="-181" rx="117.78" ry="18"/>
<text text-anchor="middle" x="129.99" y="-177.3" font-family="Times,serif" font-size="14.00">assert_vesting_contract_exists</text>
</g>
<!-- operator_commission_percentage&#45;&gt;assert_vesting_contract_exists -->
<g id="edge1" class="edge">
<title>operator_commission_percentage&#45;&gt;assert_vesting_contract_exists</title>
<path fill="none" stroke="black" d="M129.99,-234.7C129.99,-227.41 129.99,-218.73 129.99,-210.54"/>
<polygon fill="black" stroke="black" points="133.49,-210.62 129.99,-200.62 126.49,-210.62 133.49,-210.62"/>
</g>
<!-- error::not_found -->
<g id="node3" class="node">
<title>error::not_found</title>
<ellipse fill="none" stroke="black" cx="129.99" cy="-106" rx="46.59" ry="18"/>
<text text-anchor="middle" x="129.99" y="-102.3" font-family="Times,serif" font-size="14.00">not_found</text>
</g>
<!-- assert_vesting_contract_exists&#45;&gt;error::not_found -->
<g id="edge2" class="edge">
<title>assert_vesting_contract_exists&#45;&gt;error::not_found</title>
<path fill="none" stroke="black" d="M129.99,-162.7C129.99,-154.67 129.99,-144.9 129.99,-135.8"/>
<polygon fill="black" stroke="black" points="133.49,-135.94 129.99,-125.94 126.49,-135.94 133.49,-135.94"/>
</g>
<!-- error::canonical -->
<g id="node4" class="node">
<title>error::canonical</title>
<ellipse fill="none" stroke="black" cx="129.99" cy="-34" rx="44.39" ry="18"/>
<text text-anchor="middle" x="129.99" y="-30.3" font-family="Times,serif" font-size="14.00">canonical</text>
</g>
<!-- error::not_found&#45;&gt;error::canonical -->
<g id="edge3" class="edge">
<title>error::not_found&#45;&gt;error::canonical</title>
<path fill="none" stroke="black" d="M129.99,-87.7C129.99,-80.41 129.99,-71.73 129.99,-63.54"/>
<polygon fill="black" stroke="black" points="133.49,-63.62 129.99,-53.62 126.49,-63.62 133.49,-63.62"/>
</g>
</g>
</svg>
