<?xml version="1.0" encoding="UTF-8" standalone="no"?>
<!DOCTYPE svg PUBLIC "-//W3C//DTD SVG 1.1//EN"
 "http://www.w3.org/Graphics/SVG/1.1/DTD/svg11.dtd">
<!-- Generated by graphviz version 7.0.4 (20221203.1631)
 -->
<!-- Title: G Pages: 1 -->
<svg width="220pt" height="116pt"
 viewBox="0.00 0.00 220.49 116.00" xmlns="http://www.w3.org/2000/svg" xmlns:xlink="http://www.w3.org/1999/xlink">
<g id="graph0" class="graph" transform="scale(1 1) rotate(0) translate(4 112)">
<title>G</title>
<polygon fill="white" stroke="none" points="-4,4 -4,-112 216.49,-112 216.49,4 -4,4"/>
<!-- vesting -->
<g id="node1" class="node">
<title>vesting</title>
<ellipse fill="none" stroke="black" cx="93.4" cy="-18" rx="36.29" ry="18"/>
<text text-anchor="middle" x="93.4" y="-14.3" font-family="Times,serif" font-size="14.00">vesting</text>
</g>
<!-- genesis -->
<g id="node2" class="node">
<title>genesis</title>
<ellipse fill="none" stroke="black" cx="36.4" cy="-90" rx="36.29" ry="18"/>
<text text-anchor="middle" x="36.4" y="-86.3" font-family="Times,serif" font-size="14.00">genesis</text>
</g>
<!-- genesis&#45;&gt;vesting -->
<g id="edge1" class="edge">
<title>genesis&#45;&gt;vesting</title>
<path fill="none" stroke="black" d="M49.62,-72.76C56.6,-64.19 65.31,-53.49 73.12,-43.9"/>
<polygon fill="black" stroke="black" points="75.69,-46.29 79.29,-36.32 70.26,-41.87 75.69,-46.29"/>
</g>
<!-- staking_proxy -->
<g id="node3" class="node">
<title>staking_proxy</title>
<ellipse fill="none" stroke="black" cx="151.4" cy="-90" rx="61.19" ry="18"/>
<text text-anchor="middle" x="151.4" y="-86.3" font-family="Times,serif" font-size="14.00">staking_proxy</text>
</g>
<!-- staking_proxy&#45;&gt;vesting -->
<g id="edge2" class="edge">
<title>staking_proxy&#45;&gt;vesting</title>
<path fill="none" stroke="black" d="M137.36,-72.05C130.24,-63.47 121.48,-52.89 113.65,-43.44"/>
<polygon fill="black" stroke="black" points="116.55,-41.46 107.48,-35.99 111.16,-45.93 116.55,-41.46"/>
</g>
</g>
</svg>
