<?xml version="1.0" encoding="UTF-8" standalone="no"?>
<!DOCTYPE svg PUBLIC "-//W3C//DTD SVG 1.1//EN"
 "http://www.w3.org/Graphics/SVG/1.1/DTD/svg11.dtd">
<!-- Generated by graphviz version 7.0.4 (20221203.1631)
 -->
<!-- Title: G Pages: 1 -->
<svg width="332pt" height="279pt"
 viewBox="0.00 0.00 331.64 279.00" xmlns="http://www.w3.org/2000/svg" xmlns:xlink="http://www.w3.org/1999/xlink">
<g id="graph0" class="graph" transform="scale(1 1) rotate(0) translate(4 275)">
<title>G</title>
<polygon fill="white" stroke="none" points="-4,4 -4,-275 327.64,-275 327.64,4 -4,4"/>
<g id="clust1" class="cluster">
<title>cluster_error</title>
<polygon fill="none" stroke="black" points="8,-8 8,-155 248,-155 248,-8 8,-8"/>
<text text-anchor="middle" x="128" y="-139.8" font-family="Times,serif" font-size="14.00">error</text>
</g>
<!-- assert_active_vesting_contract -->
<g id="node1" class="node">
<title>assert_active_vesting_contract</title>
<ellipse fill="none" stroke="black" cx="133" cy="-253" rx="118.08" ry="18"/>
<text text-anchor="middle" x="133" y="-249.3" font-family="Times,serif" font-size="14.00">assert_active_vesting_contract</text>
</g>
<!-- error::invalid_state -->
<g id="node2" class="node">
<title>error::invalid_state</title>
<ellipse fill="none" stroke="black" cx="72" cy="-106" rx="55.79" ry="18"/>
<text text-anchor="middle" x="72" y="-102.3" font-family="Times,serif" font-size="14.00">invalid_state</text>
</g>
<!-- assert_active_vesting_contract&#45;&gt;error::invalid_state -->
<g id="edge1" class="edge">
<title>assert_active_vesting_contract&#45;&gt;error::invalid_state</title>
<path fill="none" stroke="black" d="M109.1,-235.12C97.93,-225.83 85.65,-213.29 79,-199 69.8,-179.22 68.41,-154.45 69.12,-135.6"/>
<polygon fill="black" stroke="black" points="72.61,-135.89 69.74,-125.69 65.62,-135.45 72.61,-135.89"/>
</g>
<!-- assert_vesting_contract_exists -->
<g id="node3" class="node">
<title>assert_vesting_contract_exists</title>
<ellipse fill="none" stroke="black" cx="206" cy="-181" rx="117.78" ry="18"/>
<text text-anchor="middle" x="206" y="-177.3" font-family="Times,serif" font-size="14.00">assert_vesting_contract_exists</text>
</g>
<!-- assert_active_vesting_contract&#45;&gt;assert_vesting_contract_exists -->
<g id="edge2" class="edge">
<title>assert_active_vesting_contract&#45;&gt;assert_vesting_contract_exists</title>
<path fill="none" stroke="black" d="M150.67,-235.05C159.42,-226.67 170.15,-216.38 179.83,-207.1"/>
<polygon fill="black" stroke="black" points="182.1,-209.77 186.89,-200.32 177.25,-204.72 182.1,-209.77"/>
</g>
<!-- error::canonical -->
<g id="node4" class="node">
<title>error::canonical</title>
<ellipse fill="none" stroke="black" cx="132" cy="-34" rx="44.39" ry="18"/>
<text text-anchor="middle" x="132" y="-30.3" font-family="Times,serif" font-size="14.00">canonical</text>
</g>
<!-- error::invalid_state&#45;&gt;error::canonical -->
<g id="edge3" class="edge">
<title>error::invalid_state&#45;&gt;error::canonical</title>
<path fill="none" stroke="black" d="M86.22,-88.41C93.47,-79.95 102.43,-69.49 110.5,-60.08"/>
<polygon fill="black" stroke="black" points="113.05,-62.49 116.9,-52.62 107.73,-57.93 113.05,-62.49"/>
</g>
<!-- error::not_found -->
<g id="node5" class="node">
<title>error::not_found</title>
<ellipse fill="none" stroke="black" cx="193" cy="-106" rx="46.59" ry="18"/>
<text text-anchor="middle" x="193" y="-102.3" font-family="Times,serif" font-size="14.00">not_found</text>
</g>
<!-- assert_vesting_contract_exists&#45;&gt;error::not_found -->
<g id="edge4" class="edge">
<title>assert_vesting_contract_exists&#45;&gt;error::not_found</title>
<path fill="none" stroke="black" d="M202.92,-162.7C201.47,-154.58 199.71,-144.68 198.07,-135.5"/>
<polygon fill="black" stroke="black" points="201.57,-135.15 196.37,-125.92 194.68,-136.38 201.57,-135.15"/>
</g>
<!-- error::not_found&#45;&gt;error::canonical -->
<g id="edge5" class="edge">
<title>error::not_found&#45;&gt;error::canonical</title>
<path fill="none" stroke="black" d="M178.54,-88.41C171.17,-79.95 162.06,-69.49 153.85,-60.08"/>
<polygon fill="black" stroke="black" points="156.56,-57.85 147.35,-52.61 151.28,-62.45 156.56,-57.85"/>
</g>
</g>
</svg>
