<?xml version="1.0" encoding="UTF-8" standalone="no"?>
<!DOCTYPE svg PUBLIC "-//W3C//DTD SVG 1.1//EN"
 "http://www.w3.org/Graphics/SVG/1.1/DTD/svg11.dtd">
<!-- Generated by graphviz version 7.0.4 (20221203.1631)
 -->
<!-- Title: G Pages: 1 -->
<svg width="260pt" height="299pt"
 viewBox="0.00 0.00 260.18 299.00" xmlns="http://www.w3.org/2000/svg" xmlns:xlink="http://www.w3.org/1999/xlink">
<g id="graph0" class="graph" transform="scale(1 1) rotate(0) translate(4 295)">
<title>G</title>
<polygon fill="white" stroke="none" points="-4,4 -4,-295 256.18,-295 256.18,4 -4,4"/>
<g id="clust1" class="cluster">
<title>cluster_genesis</title>
<polygon fill="none" stroke="black" points="8.09,-136 8.09,-283 244.09,-283 244.09,-136 8.09,-136"/>
<text text-anchor="middle" x="126.09" y="-267.8" font-family="Times,serif" font-size="14.00">genesis</text>
</g>
<!-- create_vesting_contract_account -->
<g id="node1" class="node">
<title>create_vesting_contract_account</title>
<ellipse fill="none" stroke="black" cx="126.09" cy="-18" rx="126.18" ry="18"/>
<text text-anchor="middle" x="126.09" y="-14.3" font-family="Times,serif" font-size="14.00">create_vesting_contract_account</text>
</g>
<!-- create_vesting_contract -->
<g id="node2" class="node">
<title>create_vesting_contract</title>
<ellipse fill="none" stroke="black" cx="126.09" cy="-90" rx="94.48" ry="18"/>
<text text-anchor="middle" x="126.09" y="-86.3" font-family="Times,serif" font-size="14.00">create_vesting_contract</text>
</g>
<!-- create_vesting_contract&#45;&gt;create_vesting_contract_account -->
<g id="edge1" class="edge">
<title>create_vesting_contract&#45;&gt;create_vesting_contract_account</title>
<path fill="none" stroke="black" d="M126.09,-71.7C126.09,-64.41 126.09,-55.73 126.09,-47.54"/>
<polygon fill="black" stroke="black" points="129.59,-47.62 126.09,-37.62 122.59,-47.62 129.59,-47.62"/>
</g>
<!-- genesis::create_employee_validators -->
<g id="node3" class="node">
<title>genesis::create_employee_validators</title>
<ellipse fill="none" stroke="black" cx="126.09" cy="-162" rx="109.68" ry="18"/>
<text text-anchor="middle" x="126.09" y="-158.3" font-family="Times,serif" font-size="14.00">create_employee_validators</text>
</g>
<!-- genesis::create_employee_validators&#45;&gt;create_vesting_contract -->
<g id="edge2" class="edge">
<title>genesis::create_employee_validators&#45;&gt;create_vesting_contract</title>
<path fill="none" stroke="black" d="M126.09,-143.7C126.09,-136.41 126.09,-127.73 126.09,-119.54"/>
<polygon fill="black" stroke="black" points="129.59,-119.62 126.09,-109.62 122.59,-119.62 129.59,-119.62"/>
</g>
<!-- genesis::initialize_for_verification -->
<g id="node4" class="node">
<title>genesis::initialize_for_verification</title>
<ellipse fill="none" stroke="black" cx="126.09" cy="-234" rx="100.98" ry="18"/>
<text text-anchor="middle" x="126.09" y="-230.3" font-family="Times,serif" font-size="14.00">initialize_for_verification</text>
</g>
<!-- genesis::initialize_for_verification&#45;&gt;genesis::create_employee_validators -->
<g id="edge3" class="edge">
<title>genesis::initialize_for_verification&#45;&gt;genesis::create_employee_validators</title>
<path fill="none" stroke="black" d="M126.09,-215.7C126.09,-208.41 126.09,-199.73 126.09,-191.54"/>
<polygon fill="black" stroke="black" points="129.59,-191.62 126.09,-181.62 122.59,-191.62 129.59,-191.62"/>
</g>
</g>
</svg>
