<?xml version="1.0" encoding="UTF-8" standalone="no"?>
<!DOCTYPE svg PUBLIC "-//W3C//DTD SVG 1.1//EN"
 "http://www.w3.org/Graphics/SVG/1.1/DTD/svg11.dtd">
<!-- Generated by graphviz version 7.0.4 (20221203.1631)
 -->
<!-- Title: G Pages: 1 -->
<svg width="330pt" height="207pt"
 viewBox="0.00 0.00 330.00 207.00" xmlns="http://www.w3.org/2000/svg" xmlns:xlink="http://www.w3.org/1999/xlink">
<g id="graph0" class="graph" transform="scale(1 1) rotate(0) translate(4 203)">
<title>G</title>
<polygon fill="white" stroke="none" points="-4,4 -4,-203 326,-203 326,4 -4,4"/>
<g id="clust1" class="cluster">
<title>cluster_signer</title>
<polygon fill="none" stroke="black" points="8,-8 8,-155 158,-155 158,-8 8,-8"/>
<text text-anchor="middle" x="83" y="-139.8" font-family="Times,serif" font-size="14.00">signer</text>
</g>
<g id="clust2" class="cluster">
<title>cluster_error</title>
<polygon fill="none" stroke="black" points="166,-8 166,-155 314,-155 314,-8 166,-8"/>
<text text-anchor="middle" x="240" y="-139.8" font-family="Times,serif" font-size="14.00">error</text>
</g>
<!-- verify_admin -->
<g id="node1" class="node">
<title>verify_admin</title>
<ellipse fill="none" stroke="black" cx="170" cy="-181" rx="58.49" ry="18"/>
<text text-anchor="middle" x="170" y="-177.3" font-family="Times,serif" font-size="14.00">verify_admin</text>
</g>
<!-- signer::address_of -->
<g id="node2" class="node">
<title>signer::address_of</title>
<ellipse fill="none" stroke="black" cx="92" cy="-106" rx="48.99" ry="18"/>
<text text-anchor="middle" x="92" y="-102.3" font-family="Times,serif" font-size="14.00">address_of</text>
</g>
<!-- verify_admin&#45;&gt;signer::address_of -->
<g id="edge1" class="edge">
<title>verify_admin&#45;&gt;signer::address_of</title>
<path fill="none" stroke="black" d="M152.3,-163.44C142.06,-153.85 128.98,-141.61 117.63,-130.99"/>
<polygon fill="black" stroke="black" points="120.16,-128.56 110.47,-124.28 115.38,-133.67 120.16,-128.56"/>
</g>
<!-- error::unauthenticated -->
<g id="node3" class="node">
<title>error::unauthenticated</title>
<ellipse fill="none" stroke="black" cx="240" cy="-106" rx="66.09" ry="18"/>
<text text-anchor="middle" x="240" y="-102.3" font-family="Times,serif" font-size="14.00">unauthenticated</text>
</g>
<!-- verify_admin&#45;&gt;error::unauthenticated -->
<g id="edge2" class="edge">
<title>verify_admin&#45;&gt;error::unauthenticated</title>
<path fill="none" stroke="black" d="M185.88,-163.44C194.77,-154.17 206.03,-142.43 215.97,-132.06"/>
<polygon fill="black" stroke="black" points="218.49,-134.48 222.89,-124.84 213.44,-129.64 218.49,-134.48"/>
</g>
<!-- signer::borrow_address -->
<g id="node4" class="node">
<title>signer::borrow_address</title>
<ellipse fill="none" stroke="black" cx="83" cy="-34" rx="66.89" ry="18"/>
<text text-anchor="middle" x="83" y="-30.3" font-family="Times,serif" font-size="14.00">borrow_address</text>
</g>
<!-- signer::address_of&#45;&gt;signer::borrow_address -->
<g id="edge3" class="edge">
<title>signer::address_of&#45;&gt;signer::borrow_address</title>
<path fill="none" stroke="black" d="M89.78,-87.7C88.83,-80.32 87.7,-71.52 86.63,-63.25"/>
<polygon fill="black" stroke="black" points="90.14,-63.08 85.39,-53.61 83.2,-63.97 90.14,-63.08"/>
</g>
<!-- error::canonical -->
<g id="node5" class="node">
<title>error::canonical</title>
<ellipse fill="none" stroke="black" cx="240" cy="-34" rx="44.39" ry="18"/>
<text text-anchor="middle" x="240" y="-30.3" font-family="Times,serif" font-size="14.00">canonical</text>
</g>
<!-- error::unauthenticated&#45;&gt;error::canonical -->
<g id="edge4" class="edge">
<title>error::unauthenticated&#45;&gt;error::canonical</title>
<path fill="none" stroke="black" d="M240,-87.7C240,-80.41 240,-71.73 240,-63.54"/>
<polygon fill="black" stroke="black" points="243.5,-63.62 240,-53.62 236.5,-63.62 243.5,-63.62"/>
</g>
</g>
</svg>
