<?xml version="1.0" encoding="UTF-8" standalone="no"?>
<!DOCTYPE svg PUBLIC "-//W3C//DTD SVG 1.1//EN"
 "http://www.w3.org/Graphics/SVG/1.1/DTD/svg11.dtd">
<!-- Generated by graphviz version 7.0.4 (20221203.1631)
 -->
<!-- Title: G Pages: 1 -->
<svg width="423pt" height="188pt"
 viewBox="0.00 0.00 422.93 188.00" xmlns="http://www.w3.org/2000/svg" xmlns:xlink="http://www.w3.org/1999/xlink">
<g id="graph0" class="graph" transform="scale(1 1) rotate(0) translate(4 184)">
<title>G</title>
<polygon fill="white" stroke="none" points="-4,4 -4,-184 418.93,-184 418.93,4 -4,4"/>
<!-- get_beneficiary -->
<g id="node1" class="node">
<title>get_beneficiary</title>
<ellipse fill="none" stroke="black" cx="218.59" cy="-18" rx="65.79" ry="18"/>
<text text-anchor="middle" x="218.59" y="-14.3" font-family="Times,serif" font-size="14.00">get_beneficiary</text>
</g>
<!-- distribute -->
<g id="node2" class="node">
<title>distribute</title>
<ellipse fill="none" stroke="black" cx="106.59" cy="-90" rx="44.39" ry="18"/>
<text text-anchor="middle" x="106.59" y="-86.3" font-family="Times,serif" font-size="14.00">distribute</text>
</g>
<!-- distribute&#45;&gt;get_beneficiary -->
<g id="edge1" class="edge">
<title>distribute&#45;&gt;get_beneficiary</title>
<path fill="none" stroke="black" d="M130.07,-74.33C145.66,-64.58 166.39,-51.63 183.87,-40.7"/>
<polygon fill="black" stroke="black" points="185.29,-43.94 191.91,-35.68 181.58,-38.01 185.29,-43.94"/>
</g>
<!-- beneficiary -->
<g id="node3" class="node">
<title>beneficiary</title>
<ellipse fill="none" stroke="black" cx="218.59" cy="-90" rx="50.09" ry="18"/>
<text text-anchor="middle" x="218.59" y="-86.3" font-family="Times,serif" font-size="14.00">beneficiary</text>
</g>
<!-- beneficiary&#45;&gt;get_beneficiary -->
<g id="edge2" class="edge">
<title>beneficiary&#45;&gt;get_beneficiary</title>
<path fill="none" stroke="black" d="M218.59,-71.7C218.59,-64.41 218.59,-55.73 218.59,-47.54"/>
<polygon fill="black" stroke="black" points="222.09,-47.62 218.59,-37.62 215.09,-47.62 222.09,-47.62"/>
</g>
<!-- set_beneficiary -->
<g id="node4" class="node">
<title>set_beneficiary</title>
<ellipse fill="none" stroke="black" cx="350.59" cy="-90" rx="64.19" ry="18"/>
<text text-anchor="middle" x="350.59" y="-86.3" font-family="Times,serif" font-size="14.00">set_beneficiary</text>
</g>
<!-- set_beneficiary&#45;&gt;get_beneficiary -->
<g id="edge3" class="edge">
<title>set_beneficiary&#45;&gt;get_beneficiary</title>
<path fill="none" stroke="black" d="M321.62,-73.64C302.92,-63.72 278.36,-50.7 257.91,-39.85"/>
<polygon fill="black" stroke="black" points="259.76,-36.87 249.28,-35.28 256.48,-43.05 259.76,-36.87"/>
</g>
<!-- terminate_vesting_contract -->
<g id="node5" class="node">
<title>terminate_vesting_contract</title>
<ellipse fill="none" stroke="black" cx="106.59" cy="-162" rx="106.68" ry="18"/>
<text text-anchor="middle" x="106.59" y="-158.3" font-family="Times,serif" font-size="14.00">terminate_vesting_contract</text>
</g>
<!-- terminate_vesting_contract&#45;&gt;distribute -->
<g id="edge4" class="edge">
<title>terminate_vesting_contract&#45;&gt;distribute</title>
<path fill="none" stroke="black" d="M106.59,-143.7C106.59,-136.41 106.59,-127.73 106.59,-119.54"/>
<polygon fill="black" stroke="black" points="110.09,-119.62 106.59,-109.62 103.09,-119.62 110.09,-119.62"/>
</g>
</g>
</svg>
