<?xml version="1.0" encoding="UTF-8" standalone="no"?>
<!DOCTYPE svg PUBLIC "-//W3C//DTD SVG 1.1//EN"
 "http://www.w3.org/Graphics/SVG/1.1/DTD/svg11.dtd">
<!-- Generated by graphviz version 7.0.4 (20221203.1631)
 -->
<!-- Title: G Pages: 1 -->
<svg width="1610pt" height="374pt"
 viewBox="0.00 0.00 1609.90 374.00" xmlns="http://www.w3.org/2000/svg" xmlns:xlink="http://www.w3.org/1999/xlink">
<g id="graph0" class="graph" transform="scale(1 1) rotate(0) translate(4 370)">
<title>G</title>
<polygon fill="white" stroke="none" points="-4,4 -4,-370 1605.9,-370 1605.9,4 -4,4"/>
<g id="clust1" class="cluster">
<title>cluster_staking_proxy</title>
<polygon fill="none" stroke="black" points="872.9,-136 872.9,-283 1349.9,-283 1349.9,-136 872.9,-136"/>
<text text-anchor="middle" x="1111.4" y="-267.8" font-family="Times,serif" font-size="14.00">staking_proxy</text>
</g>
<g id="clust2" class="cluster">
<title>cluster_genesis</title>
<polygon fill="none" stroke="black" points="1357.9,-208 1357.9,-358 1593.9,-358 1593.9,-208 1357.9,-208"/>
<text text-anchor="middle" x="1475.9" y="-342.8" font-family="Times,serif" font-size="14.00">genesis</text>
</g>
<!-- get_vesting_account_signer_internal -->
<g id="node1" class="node">
<title>get_vesting_account_signer_internal</title>
<ellipse fill="none" stroke="black" cx="591.9" cy="-18" rx="139.98" ry="18"/>
<text text-anchor="middle" x="591.9" y="-14.3" font-family="Times,serif" font-size="14.00">get_vesting_account_signer_internal</text>
</g>
<!-- reset_lockup -->
<g id="node2" class="node">
<title>reset_lockup</title>
<ellipse fill="none" stroke="black" cx="55.9" cy="-90" rx="55.79" ry="18"/>
<text text-anchor="middle" x="55.9" y="-86.3" font-family="Times,serif" font-size="14.00">reset_lockup</text>
</g>
<!-- reset_lockup&#45;&gt;get_vesting_account_signer_internal -->
<g id="edge1" class="edge">
<title>reset_lockup&#45;&gt;get_vesting_account_signer_internal</title>
<path fill="none" stroke="black" d="M96.61,-77.4C104.61,-75.39 112.98,-73.47 120.9,-72 234.98,-50.78 366.29,-36.85 461.24,-28.63"/>
<polygon fill="black" stroke="black" points="461.46,-32.12 471.13,-27.78 460.86,-25.15 461.46,-32.12"/>
</g>
<!-- unlock_rewards -->
<g id="node3" class="node">
<title>unlock_rewards</title>
<ellipse fill="none" stroke="black" cx="196.9" cy="-90" rx="66.89" ry="18"/>
<text text-anchor="middle" x="196.9" y="-86.3" font-family="Times,serif" font-size="14.00">unlock_rewards</text>
</g>
<!-- unlock_rewards&#45;&gt;get_vesting_account_signer_internal -->
<g id="edge2" class="edge">
<title>unlock_rewards&#45;&gt;get_vesting_account_signer_internal</title>
<path fill="none" stroke="black" d="M246.28,-77.54C255.12,-75.6 264.27,-73.68 272.9,-72 346.19,-57.72 429.44,-43.98 492.51,-34.06"/>
<polygon fill="black" stroke="black" points="492.82,-37.55 502.15,-32.55 491.73,-30.64 492.82,-37.55"/>
</g>
<!-- unlock_stake -->
<g id="node4" class="node">
<title>unlock_stake</title>
<ellipse fill="none" stroke="black" cx="338.9" cy="-90" rx="57.39" ry="18"/>
<text text-anchor="middle" x="338.9" y="-86.3" font-family="Times,serif" font-size="14.00">unlock_stake</text>
</g>
<!-- unlock_stake&#45;&gt;get_vesting_account_signer_internal -->
<g id="edge3" class="edge">
<title>unlock_stake&#45;&gt;get_vesting_account_signer_internal</title>
<path fill="none" stroke="black" d="M380.96,-77.36C419.77,-66.62 478.1,-50.49 523.59,-37.9"/>
<polygon fill="black" stroke="black" points="524.4,-41.31 533.1,-35.27 522.53,-34.56 524.4,-41.31"/>
</g>
<!-- update_voter -->
<g id="node5" class="node">
<title>update_voter</title>
<ellipse fill="none" stroke="black" cx="809.9" cy="-90" rx="56.59" ry="18"/>
<text text-anchor="middle" x="809.9" y="-86.3" font-family="Times,serif" font-size="14.00">update_voter</text>
</g>
<!-- update_voter&#45;&gt;get_vesting_account_signer_internal -->
<g id="edge4" class="edge">
<title>update_voter&#45;&gt;get_vesting_account_signer_internal</title>
<path fill="none" stroke="black" d="M770.92,-76.49C738.26,-66 691.06,-50.84 653.32,-38.72"/>
<polygon fill="black" stroke="black" points="654.47,-35.42 643.88,-35.69 652.33,-42.08 654.47,-35.42"/>
</g>
<!-- get_vesting_account_signer -->
<g id="node6" class="node">
<title>get_vesting_account_signer</title>
<ellipse fill="none" stroke="black" cx="992.9" cy="-90" rx="108.58" ry="18"/>
<text text-anchor="middle" x="992.9" y="-86.3" font-family="Times,serif" font-size="14.00">get_vesting_account_signer</text>
</g>
<!-- get_vesting_account_signer&#45;&gt;get_vesting_account_signer_internal -->
<g id="edge5" class="edge">
<title>get_vesting_account_signer&#45;&gt;get_vesting_account_signer_internal</title>
<path fill="none" stroke="black" d="M920.28,-76.32C853.97,-64.75 755.64,-47.58 683.87,-35.05"/>
<polygon fill="black" stroke="black" points="684.53,-31.62 674.08,-33.35 683.32,-38.51 684.53,-31.62"/>
</g>
<!-- set_management_role -->
<g id="node7" class="node">
<title>set_management_role</title>
<ellipse fill="none" stroke="black" cx="1336.9" cy="-90" rx="89.08" ry="18"/>
<text text-anchor="middle" x="1336.9" y="-86.3" font-family="Times,serif" font-size="14.00">set_management_role</text>
</g>
<!-- set_management_role&#45;&gt;get_vesting_account_signer_internal -->
<g id="edge6" class="edge">
<title>set_management_role&#45;&gt;get_vesting_account_signer_internal</title>
<path fill="none" stroke="black" d="M1257.52,-81.54C1127.3,-69.31 867.47,-44.89 713.78,-30.45"/>
<polygon fill="black" stroke="black" points="714.24,-26.98 703.95,-29.53 713.58,-33.95 714.24,-26.98"/>
</g>
<!-- update_operator -->
<g id="node8" class="node">
<title>update_operator</title>
<ellipse fill="none" stroke="black" cx="667.9" cy="-90" rx="67.69" ry="18"/>
<text text-anchor="middle" x="667.9" y="-86.3" font-family="Times,serif" font-size="14.00">update_operator</text>
</g>
<!-- update_operator&#45;&gt;get_vesting_account_signer_internal -->
<g id="edge7" class="edge">
<title>update_operator&#45;&gt;get_vesting_account_signer_internal</title>
<path fill="none" stroke="black" d="M649.88,-72.41C640.63,-63.88 629.15,-53.32 618.86,-43.84"/>
<polygon fill="black" stroke="black" points="621.41,-41.43 611.68,-37.23 616.67,-46.58 621.41,-41.43"/>
</g>
<!-- withdraw_stake -->
<g id="node9" class="node">
<title>withdraw_stake</title>
<ellipse fill="none" stroke="black" cx="479.9" cy="-90" rx="66.09" ry="18"/>
<text text-anchor="middle" x="479.9" y="-86.3" font-family="Times,serif" font-size="14.00">withdraw_stake</text>
</g>
<!-- withdraw_stake&#45;&gt;get_vesting_account_signer_internal -->
<g id="edge8" class="edge">
<title>withdraw_stake&#45;&gt;get_vesting_account_signer_internal</title>
<path fill="none" stroke="black" d="M505.59,-72.94C520.24,-63.78 538.86,-52.15 555.05,-42.03"/>
<polygon fill="black" stroke="black" points="556.85,-45.03 563.47,-36.76 553.14,-39.1 556.85,-45.03"/>
</g>
<!-- vest -->
<g id="node10" class="node">
<title>vest</title>
<ellipse fill="none" stroke="black" cx="196.9" cy="-162" rx="27" ry="18"/>
<text text-anchor="middle" x="196.9" y="-158.3" font-family="Times,serif" font-size="14.00">vest</text>
</g>
<!-- vest&#45;&gt;unlock_rewards -->
<g id="edge9" class="edge">
<title>vest&#45;&gt;unlock_rewards</title>
<path fill="none" stroke="black" d="M196.9,-143.7C196.9,-136.41 196.9,-127.73 196.9,-119.54"/>
<polygon fill="black" stroke="black" points="200.4,-119.62 196.9,-109.62 193.4,-119.62 200.4,-119.62"/>
</g>
<!-- vest&#45;&gt;unlock_stake -->
<g id="edge11" class="edge">
<title>vest&#45;&gt;unlock_stake</title>
<path fill="none" stroke="black" d="M215.79,-148.78C222.64,-144.54 230.51,-139.87 237.9,-136 256.14,-126.42 276.84,-116.97 294.73,-109.21"/>
<polygon fill="black" stroke="black" points="295.97,-112.49 303.78,-105.34 293.21,-106.05 295.97,-112.49"/>
</g>
<!-- terminate_vesting_contract -->
<g id="node11" class="node">
<title>terminate_vesting_contract</title>
<ellipse fill="none" stroke="black" cx="287.9" cy="-234" rx="106.68" ry="18"/>
<text text-anchor="middle" x="287.9" y="-230.3" font-family="Times,serif" font-size="14.00">terminate_vesting_contract</text>
</g>
<!-- terminate_vesting_contract&#45;&gt;unlock_stake -->
<g id="edge10" class="edge">
<title>terminate_vesting_contract&#45;&gt;unlock_stake</title>
<path fill="none" stroke="black" d="M278.6,-215.82C269.01,-195.57 257.22,-161.45 270.9,-136 276.42,-125.71 285.45,-117.38 295.15,-110.82"/>
<polygon fill="black" stroke="black" points="296.96,-113.81 303.67,-105.62 293.31,-107.84 296.96,-113.81"/>
</g>
<!-- distribute -->
<g id="node16" class="node">
<title>distribute</title>
<ellipse fill="none" stroke="black" cx="323.9" cy="-162" rx="44.39" ry="18"/>
<text text-anchor="middle" x="323.9" y="-158.3" font-family="Times,serif" font-size="14.00">distribute</text>
</g>
<!-- terminate_vesting_contract&#45;&gt;distribute -->
<g id="edge21" class="edge">
<title>terminate_vesting_contract&#45;&gt;distribute</title>
<path fill="none" stroke="black" d="M296.79,-215.7C300.76,-207.98 305.53,-198.71 309.95,-190.11"/>
<polygon fill="black" stroke="black" points="312.95,-191.94 314.41,-181.45 306.72,-188.74 312.95,-191.94"/>
</g>
<!-- staking_proxy::set_vesting_contract_voter -->
<g id="node12" class="node">
<title>staking_proxy::set_vesting_contract_voter</title>
<ellipse fill="none" stroke="black" cx="1236.9" cy="-162" rx="105.08" ry="18"/>
<text text-anchor="middle" x="1236.9" y="-158.3" font-family="Times,serif" font-size="14.00">set_vesting_contract_voter</text>
</g>
<!-- staking_proxy::set_vesting_contract_voter&#45;&gt;update_voter -->
<g id="edge12" class="edge">
<title>staking_proxy::set_vesting_contract_voter&#45;&gt;update_voter</title>
<path fill="none" stroke="black" d="M1177.13,-146.81C1159.42,-142.93 1139.94,-138.98 1121.9,-136 1012.89,-118.02 983.5,-128.25 874.9,-108 870.63,-107.2 866.23,-106.28 861.83,-105.29"/>
<polygon fill="black" stroke="black" points="862.97,-101.96 852.43,-103.04 861.34,-108.77 862.97,-101.96"/>
</g>
<!-- set_beneficiary_resetter -->
<g id="node13" class="node">
<title>set_beneficiary_resetter</title>
<ellipse fill="none" stroke="black" cx="1464.9" cy="-162" rx="94.78" ry="18"/>
<text text-anchor="middle" x="1464.9" y="-158.3" font-family="Times,serif" font-size="14.00">set_beneficiary_resetter</text>
</g>
<!-- set_beneficiary_resetter&#45;&gt;set_management_role -->
<g id="edge13" class="edge">
<title>set_beneficiary_resetter&#45;&gt;set_management_role</title>
<path fill="none" stroke="black" d="M1434.88,-144.59C1417.55,-135.11 1395.53,-123.07 1376.76,-112.8"/>
<polygon fill="black" stroke="black" points="1378.5,-109.76 1368.05,-108.04 1375.14,-115.9 1378.5,-109.76"/>
</g>
<!-- update_operator_with_same_commission -->
<g id="node14" class="node">
<title>update_operator_with_same_commission</title>
<ellipse fill="none" stroke="black" cx="703.9" cy="-162" rx="158.67" ry="18"/>
<text text-anchor="middle" x="703.9" y="-158.3" font-family="Times,serif" font-size="14.00">update_operator_with_same_commission</text>
</g>
<!-- update_operator_with_same_commission&#45;&gt;update_operator -->
<g id="edge14" class="edge">
<title>update_operator_with_same_commission&#45;&gt;update_operator</title>
<path fill="none" stroke="black" d="M695,-143.7C691.03,-135.98 686.26,-126.71 681.84,-118.11"/>
<polygon fill="black" stroke="black" points="685.07,-116.74 677.38,-109.45 678.84,-119.94 685.07,-116.74"/>
</g>
<!-- staking_proxy::set_vesting_contract_operator -->
<g id="node15" class="node">
<title>staking_proxy::set_vesting_contract_operator</title>
<ellipse fill="none" stroke="black" cx="996.9" cy="-162" rx="116.18" ry="18"/>
<text text-anchor="middle" x="996.9" y="-158.3" font-family="Times,serif" font-size="14.00">set_vesting_contract_operator</text>
</g>
<!-- staking_proxy::set_vesting_contract_operator&#45;&gt;update_operator -->
<g id="edge15" class="edge">
<title>staking_proxy::set_vesting_contract_operator&#45;&gt;update_operator</title>
<path fill="none" stroke="black" d="M928.92,-147.02C877.96,-136.48 806.51,-121.56 743.9,-108 739.08,-106.96 734.1,-105.87 729.1,-104.77"/>
<polygon fill="black" stroke="black" points="730.16,-101.42 719.64,-102.67 728.64,-108.25 730.16,-101.42"/>
</g>
<!-- distribute&#45;&gt;withdraw_stake -->
<g id="edge16" class="edge">
<title>distribute&#45;&gt;withdraw_stake</title>
<path fill="none" stroke="black" d="M351.88,-147.61C359.93,-143.81 368.74,-139.7 376.9,-136 395.82,-127.41 416.82,-118.17 434.9,-110.32"/>
<polygon fill="black" stroke="black" points="436.28,-113.54 444.06,-106.35 433.5,-107.12 436.28,-113.54"/>
</g>
<!-- admin_withdraw -->
<g id="node17" class="node">
<title>admin_withdraw</title>
<ellipse fill="none" stroke="black" cx="456.9" cy="-162" rx="70.69" ry="18"/>
<text text-anchor="middle" x="456.9" y="-158.3" font-family="Times,serif" font-size="14.00">admin_withdraw</text>
</g>
<!-- admin_withdraw&#45;&gt;withdraw_stake -->
<g id="edge17" class="edge">
<title>admin_withdraw&#45;&gt;withdraw_stake</title>
<path fill="none" stroke="black" d="M462.58,-143.7C465.03,-136.24 467.96,-127.32 470.71,-118.97"/>
<polygon fill="black" stroke="black" points="474.01,-120.14 473.8,-109.54 467.36,-117.95 474.01,-120.14"/>
</g>
<!-- staking_proxy::set_voter -->
<g id="node18" class="node">
<title>staking_proxy::set_voter</title>
<ellipse fill="none" stroke="black" cx="1236.9" cy="-234" rx="42.79" ry="18"/>
<text text-anchor="middle" x="1236.9" y="-230.3" font-family="Times,serif" font-size="14.00">set_voter</text>
</g>
<!-- staking_proxy::set_voter&#45;&gt;staking_proxy::set_vesting_contract_voter -->
<g id="edge18" class="edge">
<title>staking_proxy::set_voter&#45;&gt;staking_proxy::set_vesting_contract_voter</title>
<path fill="none" stroke="black" d="M1236.9,-215.7C1236.9,-208.41 1236.9,-199.73 1236.9,-191.54"/>
<polygon fill="black" stroke="black" points="1240.4,-191.62 1236.9,-181.62 1233.4,-191.62 1240.4,-191.62"/>
</g>
<!-- genesis::create_employee_validators -->
<g id="node19" class="node">
<title>genesis::create_employee_validators</title>
<ellipse fill="none" stroke="black" cx="1475.9" cy="-234" rx="109.68" ry="18"/>
<text text-anchor="middle" x="1475.9" y="-230.3" font-family="Times,serif" font-size="14.00">create_employee_validators</text>
</g>
<!-- genesis::create_employee_validators&#45;&gt;set_beneficiary_resetter -->
<g id="edge19" class="edge">
<title>genesis::create_employee_validators&#45;&gt;set_beneficiary_resetter</title>
<path fill="none" stroke="black" d="M1473.18,-215.7C1472.02,-208.32 1470.63,-199.52 1469.33,-191.25"/>
<polygon fill="black" stroke="black" points="1472.83,-190.93 1467.82,-181.6 1465.91,-192.02 1472.83,-190.93"/>
</g>
<!-- staking_proxy::set_operator -->
<g id="node20" class="node">
<title>staking_proxy::set_operator</title>
<ellipse fill="none" stroke="black" cx="996.9" cy="-234" rx="53.89" ry="18"/>
<text text-anchor="middle" x="996.9" y="-230.3" font-family="Times,serif" font-size="14.00">set_operator</text>
</g>
<!-- staking_proxy::set_operator&#45;&gt;staking_proxy::set_vesting_contract_operator -->
<g id="edge20" class="edge">
<title>staking_proxy::set_operator&#45;&gt;staking_proxy::set_vesting_contract_operator</title>
<path fill="none" stroke="black" d="M996.9,-215.7C996.9,-208.41 996.9,-199.73 996.9,-191.54"/>
<polygon fill="black" stroke="black" points="1000.4,-191.62 996.9,-181.62 993.4,-191.62 1000.4,-191.62"/>
</g>
<!-- genesis::initialize_for_verification -->
<g id="node21" class="node">
<title>genesis::initialize_for_verification</title>
<ellipse fill="none" stroke="black" cx="1475.9" cy="-309" rx="100.98" ry="18"/>
<text text-anchor="middle" x="1475.9" y="-305.3" font-family="Times,serif" font-size="14.00">initialize_for_verification</text>
</g>
<!-- genesis::initialize_for_verification&#45;&gt;genesis::create_employee_validators -->
<g id="edge22" class="edge">
<title>genesis::initialize_for_verification&#45;&gt;genesis::create_employee_validators</title>
<path fill="none" stroke="black" d="M1475.9,-290.7C1475.9,-282.67 1475.9,-272.9 1475.9,-263.8"/>
<polygon fill="black" stroke="black" points="1479.4,-263.94 1475.9,-253.94 1472.4,-263.94 1479.4,-263.94"/>
</g>
</g>
</svg>
