<?xml version="1.0" encoding="UTF-8" standalone="no"?>
<!DOCTYPE svg PUBLIC "-//W3C//DTD SVG 1.1//EN"
 "http://www.w3.org/Graphics/SVG/1.1/DTD/svg11.dtd">
<!-- Generated by graphviz version 7.0.4 (20221203.1631)
 -->
<!-- Title: G Pages: 1 -->
<svg width="1446pt" height="531pt"
 viewBox="0.00 0.00 1446.00 531.00" xmlns="http://www.w3.org/2000/svg" xmlns:xlink="http://www.w3.org/1999/xlink">
<g id="graph0" class="graph" transform="scale(1 1) rotate(0) translate(4 527)">
<title>G</title>
<polygon fill="white" stroke="none" points="-4,4 -4,-527 1442,-527 1442,4 -4,4"/>
<g id="clust1" class="cluster">
<title>cluster_event</title>
<polygon fill="none" stroke="black" points="8,-329 8,-479 194,-479 194,-329 8,-329"/>
<text text-anchor="middle" x="101" y="-463.8" font-family="Times,serif" font-size="14.00">event</text>
</g>
<g id="clust2" class="cluster">
<title>cluster_aptos_account</title>
<polygon fill="none" stroke="black" points="744,-329 744,-479 1044,-479 1044,-329 744,-329"/>
<text text-anchor="middle" x="894" y="-463.8" font-family="Times,serif" font-size="14.00">aptos_account</text>
</g>
<g id="clust3" class="cluster">
<title>cluster_simple_map</title>
<polygon fill="none" stroke="black" points="306,-246 306,-404 727,-404 727,-246 306,-246"/>
<text text-anchor="middle" x="516.5" y="-388.8" font-family="Times,serif" font-size="14.00">simple_map</text>
</g>
<g id="clust4" class="cluster">
<title>cluster_bcs</title>
<polygon fill="none" stroke="black" points="202,-329 202,-404 298,-404 298,-329 202,-329"/>
<text text-anchor="middle" x="250" y="-388.8" font-family="Times,serif" font-size="14.00">bcs</text>
</g>
<g id="clust5" class="cluster">
<title>cluster_error</title>
<polygon fill="none" stroke="black" points="735,-163 735,-321 1159,-321 1159,-163 735,-163"/>
<text text-anchor="middle" x="947" y="-305.8" font-family="Times,serif" font-size="14.00">error</text>
</g>
<g id="clust6" class="cluster">
<title>cluster_coin</title>
<polygon fill="none" stroke="black" points="1052,-329 1052,-404 1242,-404 1242,-329 1052,-329"/>
<text text-anchor="middle" x="1147" y="-388.8" font-family="Times,serif" font-size="14.00">coin</text>
</g>
<g id="clust7" class="cluster">
<title>cluster_option</title>
<polygon fill="none" stroke="black" points="244,-91 244,-238 575,-238 575,-91 244,-91"/>
<text text-anchor="middle" x="409.5" y="-222.8" font-family="Times,serif" font-size="14.00">option</text>
</g>
<g id="clust8" class="cluster">
<title>cluster_signer</title>
<polygon fill="none" stroke="black" points="1280,-246 1280,-404 1430,-404 1430,-246 1280,-246"/>
<text text-anchor="middle" x="1355" y="-388.8" font-family="Times,serif" font-size="14.00">signer</text>
</g>
<g id="clust9" class="cluster">
<title>cluster_account</title>
<polygon fill="none" stroke="black" points="1167,-246 1167,-321 1267,-321 1267,-246 1167,-246"/>
<text text-anchor="middle" x="1217" y="-305.8" font-family="Times,serif" font-size="14.00">account</text>
</g>
<g id="clust10" class="cluster">
<title>cluster_vector</title>
<polygon fill="none" stroke="black" points="287,-8 287,-83 494,-83 494,-8 287,-8"/>
<text text-anchor="middle" x="390.5" y="-67.8" font-family="Times,serif" font-size="14.00">vector</text>
</g>
<!-- set_beneficiary -->
<g id="node1" class="node">
<title>set_beneficiary</title>
<ellipse fill="none" stroke="black" cx="550" cy="-505" rx="64.19" ry="18"/>
<text text-anchor="middle" x="550" y="-501.3" font-family="Times,serif" font-size="14.00">set_beneficiary</text>
</g>
<!-- event::emit_event -->
<g id="node2" class="node">
<title>event::emit_event</title>
<ellipse fill="none" stroke="black" cx="136" cy="-430" rx="50.09" ry="18"/>
<text text-anchor="middle" x="136" y="-426.3" font-family="Times,serif" font-size="14.00">emit_event</text>
</g>
<!-- set_beneficiary&#45;&gt;event::emit_event -->
<g id="edge1" class="edge">
<title>set_beneficiary&#45;&gt;event::emit_event</title>
<path fill="none" stroke="black" d="M490.87,-497.53C453.05,-493.07 402.99,-486.6 359,-479 300,-468.81 232.91,-453.91 187.86,-443.42"/>
<polygon fill="black" stroke="black" points="188.91,-440.07 178.38,-441.2 187.32,-446.89 188.91,-440.07"/>
</g>
<!-- aptos_account::assert_account_is_registered_for_apt -->
<g id="node3" class="node">
<title>aptos_account::assert_account_is_registered_for_apt</title>
<ellipse fill="none" stroke="black" cx="894" cy="-430" rx="141.88" ry="18"/>
<text text-anchor="middle" x="894" y="-426.3" font-family="Times,serif" font-size="14.00">assert_account_is_registered_for_apt</text>
</g>
<!-- set_beneficiary&#45;&gt;aptos_account::assert_account_is_registered_for_apt -->
<g id="edge2" class="edge">
<title>set_beneficiary&#45;&gt;aptos_account::assert_account_is_registered_for_apt</title>
<path fill="none" stroke="black" d="M600.52,-493.54C621.95,-489.09 647.2,-483.82 670,-479 717.51,-468.96 770.65,-457.58 813.25,-448.42"/>
<polygon fill="black" stroke="black" points="813.88,-451.86 822.92,-446.34 812.41,-445.02 813.88,-451.86"/>
</g>
<!-- simple_map::borrow_mut -->
<g id="node4" class="node">
<title>simple_map::borrow_mut</title>
<ellipse fill="none" stroke="black" cx="664" cy="-355" rx="54.69" ry="18"/>
<text text-anchor="middle" x="664" y="-351.3" font-family="Times,serif" font-size="14.00">borrow_mut</text>
</g>
<!-- set_beneficiary&#45;&gt;simple_map::borrow_mut -->
<g id="edge3" class="edge">
<title>set_beneficiary&#45;&gt;simple_map::borrow_mut</title>
<path fill="none" stroke="black" d="M601.72,-493.95C610.33,-490.38 618.55,-485.55 625,-479 650.07,-453.56 659.04,-412.11 662.24,-384.45"/>
<polygon fill="black" stroke="black" points="665.7,-384.97 663.17,-374.68 658.74,-384.31 665.7,-384.97"/>
</g>
<!-- simple_map::add -->
<g id="node5" class="node">
<title>simple_map::add</title>
<ellipse fill="none" stroke="black" cx="341" cy="-355" rx="27" ry="18"/>
<text text-anchor="middle" x="341" y="-351.3" font-family="Times,serif" font-size="14.00">add</text>
</g>
<!-- set_beneficiary&#45;&gt;simple_map::add -->
<g id="edge4" class="edge">
<title>set_beneficiary&#45;&gt;simple_map::add</title>
<path fill="none" stroke="black" d="M491.68,-497.16C475.13,-493.46 457.65,-487.77 443,-479 403.36,-455.27 372.12,-410.36 355.14,-381.87"/>
<polygon fill="black" stroke="black" points="358.33,-380.4 350.29,-373.49 352.27,-383.9 358.33,-380.4"/>
</g>
<!-- simple_map::contains_key -->
<g id="node6" class="node">
<title>simple_map::contains_key</title>
<ellipse fill="none" stroke="black" cx="443" cy="-355" rx="57.39" ry="18"/>
<text text-anchor="middle" x="443" y="-351.3" font-family="Times,serif" font-size="14.00">contains_key</text>
</g>
<!-- set_beneficiary&#45;&gt;simple_map::contains_key -->
<g id="edge5" class="edge">
<title>set_beneficiary&#45;&gt;simple_map::contains_key</title>
<path fill="none" stroke="black" d="M497.99,-494.22C489.41,-490.63 481.28,-485.72 475,-479 450.98,-453.31 444.47,-411.92 442.97,-384.34"/>
<polygon fill="black" stroke="black" points="446.48,-384.5 442.65,-374.62 439.48,-384.73 446.48,-384.5"/>
</g>
<!-- get_beneficiary -->
<g id="node7" class="node">
<title>get_beneficiary</title>
<ellipse fill="none" stroke="black" cx="550" cy="-430" rx="65.79" ry="18"/>
<text text-anchor="middle" x="550" y="-426.3" font-family="Times,serif" font-size="14.00">get_beneficiary</text>
</g>
<!-- set_beneficiary&#45;&gt;get_beneficiary -->
<g id="edge6" class="edge">
<title>set_beneficiary&#45;&gt;get_beneficiary</title>
<path fill="none" stroke="black" d="M550,-486.7C550,-478.67 550,-468.9 550,-459.8"/>
<polygon fill="black" stroke="black" points="553.5,-459.94 550,-449.94 546.5,-459.94 553.5,-459.94"/>
</g>
<!-- verify_admin -->
<g id="node8" class="node">
<title>verify_admin</title>
<ellipse fill="none" stroke="black" cx="1262" cy="-430" rx="58.49" ry="18"/>
<text text-anchor="middle" x="1262" y="-426.3" font-family="Times,serif" font-size="14.00">verify_admin</text>
</g>
<!-- set_beneficiary&#45;&gt;verify_admin -->
<g id="edge7" class="edge">
<title>set_beneficiary&#45;&gt;verify_admin</title>
<path fill="none" stroke="black" d="M614.39,-504.26C709.61,-503.86 893.39,-500.06 1048,-479 1103.41,-471.45 1165.68,-456.76 1208.7,-445.61"/>
<polygon fill="black" stroke="black" points="1209.5,-449.02 1218.29,-443.1 1207.73,-442.25 1209.5,-449.02"/>
</g>
<!-- bcs::to_bytes -->
<g id="node9" class="node">
<title>bcs::to_bytes</title>
<ellipse fill="none" stroke="black" cx="250" cy="-355" rx="40.09" ry="18"/>
<text text-anchor="middle" x="250" y="-351.3" font-family="Times,serif" font-size="14.00">to_bytes</text>
</g>
<!-- event::emit_event&#45;&gt;bcs::to_bytes -->
<g id="edge8" class="edge">
<title>event::emit_event&#45;&gt;bcs::to_bytes</title>
<path fill="none" stroke="black" d="M171.85,-417.11C180.71,-413.48 189.96,-409.09 198,-404 208.59,-397.3 218.99,-388.32 227.68,-379.94"/>
<polygon fill="black" stroke="black" points="230.08,-382.48 234.67,-372.93 225.13,-377.54 230.08,-382.48"/>
</g>
<!-- event::write_to_event_store -->
<g id="node10" class="node">
<title>event::write_to_event_store</title>
<ellipse fill="none" stroke="black" cx="101" cy="-355" rx="85.29" ry="18"/>
<text text-anchor="middle" x="101" y="-351.3" font-family="Times,serif" font-size="14.00">write_to_event_store</text>
</g>
<!-- event::emit_event&#45;&gt;event::write_to_event_store -->
<g id="edge9" class="edge">
<title>event::emit_event&#45;&gt;event::write_to_event_store</title>
<path fill="none" stroke="black" d="M127.88,-412.07C123.83,-403.62 118.83,-393.19 114.25,-383.63"/>
<polygon fill="black" stroke="black" points="117.45,-382.22 109.97,-374.71 111.14,-385.24 117.45,-382.22"/>
</g>
<!-- error::not_found -->
<g id="node11" class="node">
<title>error::not_found</title>
<ellipse fill="none" stroke="black" cx="954" cy="-272" rx="46.59" ry="18"/>
<text text-anchor="middle" x="954" y="-268.3" font-family="Times,serif" font-size="14.00">not_found</text>
</g>
<!-- aptos_account::assert_account_is_registered_for_apt&#45;&gt;error::not_found -->
<g id="edge10" class="edge">
<title>aptos_account::assert_account_is_registered_for_apt&#45;&gt;error::not_found</title>
<path fill="none" stroke="black" d="M859.54,-412.2C856.97,-409.78 854.71,-407.05 853,-404 836.68,-374.93 831.59,-354.55 853,-329 866.05,-313.43 879.64,-329.69 898,-321 910.23,-315.21 921.9,-306.02 931.39,-297.23"/>
<polygon fill="black" stroke="black" points="933.65,-299.92 938.37,-290.43 928.77,-294.9 933.65,-299.92"/>
</g>
<!-- coin::is_account_registered -->
<g id="node12" class="node">
<title>coin::is_account_registered</title>
<ellipse fill="none" stroke="black" cx="1147" cy="-355" rx="87.18" ry="18"/>
<text text-anchor="middle" x="1147" y="-351.3" font-family="Times,serif" font-size="14.00">is_account_registered</text>
</g>
<!-- aptos_account::assert_account_is_registered_for_apt&#45;&gt;coin::is_account_registered -->
<g id="edge11" class="edge">
<title>aptos_account::assert_account_is_registered_for_apt&#45;&gt;coin::is_account_registered</title>
<path fill="none" stroke="black" d="M994.81,-416.96C1012.74,-413.6 1031.08,-409.35 1048,-404 1068.86,-397.41 1090.87,-387.11 1108.82,-377.73"/>
<polygon fill="black" stroke="black" points="1110.38,-380.87 1117.55,-373.07 1107.08,-374.7 1110.38,-380.87"/>
</g>
<!-- aptos_account::assert_account_exists -->
<g id="node13" class="node">
<title>aptos_account::assert_account_exists</title>
<ellipse fill="none" stroke="black" cx="949" cy="-355" rx="87.18" ry="18"/>
<text text-anchor="middle" x="949" y="-351.3" font-family="Times,serif" font-size="14.00">assert_account_exists</text>
</g>
<!-- aptos_account::assert_account_is_registered_for_apt&#45;&gt;aptos_account::assert_account_exists -->
<g id="edge12" class="edge">
<title>aptos_account::assert_account_is_registered_for_apt&#45;&gt;aptos_account::assert_account_exists</title>
<path fill="none" stroke="black" d="M907.03,-411.7C913.68,-402.88 921.9,-391.97 929.3,-382.15"/>
<polygon fill="black" stroke="black" points="931.93,-384.48 935.15,-374.38 926.34,-380.27 931.93,-384.48"/>
</g>
<!-- option::extract -->
<g id="node14" class="node">
<title>option::extract</title>
<ellipse fill="none" stroke="black" cx="533" cy="-189" rx="34.39" ry="18"/>
<text text-anchor="middle" x="533" y="-185.3" font-family="Times,serif" font-size="14.00">extract</text>
</g>
<!-- simple_map::borrow_mut&#45;&gt;option::extract -->
<g id="edge13" class="edge">
<title>simple_map::borrow_mut&#45;&gt;option::extract</title>
<path fill="none" stroke="black" d="M650.47,-337.07C627.29,-308.04 579.86,-248.66 552.9,-214.91"/>
<polygon fill="black" stroke="black" points="555.79,-212.92 546.82,-207.3 550.32,-217.29 555.79,-212.92"/>
</g>
<!-- option::is_some -->
<g id="node15" class="node">
<title>option::is_some</title>
<ellipse fill="none" stroke="black" cx="527" cy="-117" rx="40.09" ry="18"/>
<text text-anchor="middle" x="527" y="-113.3" font-family="Times,serif" font-size="14.00">is_some</text>
</g>
<!-- simple_map::borrow_mut&#45;&gt;option::is_some -->
<g id="edge14" class="edge">
<title>simple_map::borrow_mut&#45;&gt;option::is_some</title>
<path fill="none" stroke="black" d="M666.2,-336.54C669.81,-300.11 672.92,-215.08 632,-163 617.93,-145.09 595.35,-134.19 574.72,-127.62"/>
<polygon fill="black" stroke="black" points="575.89,-124.31 565.31,-124.9 573.95,-131.04 575.89,-124.31"/>
</g>
<!-- error::invalid_argument -->
<g id="node16" class="node">
<title>error::invalid_argument</title>
<ellipse fill="none" stroke="black" cx="816" cy="-272" rx="73.39" ry="18"/>
<text text-anchor="middle" x="816" y="-268.3" font-family="Times,serif" font-size="14.00">invalid_argument</text>
</g>
<!-- simple_map::borrow_mut&#45;&gt;error::invalid_argument -->
<g id="edge15" class="edge">
<title>simple_map::borrow_mut&#45;&gt;error::invalid_argument</title>
<path fill="none" stroke="black" d="M694.2,-339.57C705.78,-333.92 719.08,-327.3 731,-321 746.83,-312.64 764.07,-303.01 778.85,-294.58"/>
<polygon fill="black" stroke="black" points="780.4,-297.72 787.34,-289.71 776.92,-291.65 780.4,-297.72"/>
</g>
<!-- simple_map::find -->
<g id="node17" class="node">
<title>simple_map::find</title>
<ellipse fill="none" stroke="black" cx="367" cy="-272" rx="27" ry="18"/>
<text text-anchor="middle" x="367" y="-268.3" font-family="Times,serif" font-size="14.00">find</text>
</g>
<!-- simple_map::borrow_mut&#45;&gt;simple_map::find -->
<g id="edge16" class="edge">
<title>simple_map::borrow_mut&#45;&gt;simple_map::find</title>
<path fill="none" stroke="black" d="M631.09,-340.15C621.19,-336.26 610.24,-332.22 600,-329 531.9,-307.62 450.43,-289.75 404.09,-280.28"/>
<polygon fill="black" stroke="black" points="404.8,-276.85 394.31,-278.3 403.42,-283.72 404.8,-276.85"/>
</g>
<!-- simple_map::add&#45;&gt;error::invalid_argument -->
<g id="edge18" class="edge">
<title>simple_map::add&#45;&gt;error::invalid_argument</title>
<path fill="none" stroke="black" d="M356.75,-340.09C362.69,-335.69 369.76,-331.36 377,-329 414.41,-316.82 693.06,-331.43 731,-321 749.9,-315.8 769.07,-305.5 784.41,-295.77"/>
<polygon fill="black" stroke="black" points="786.21,-298.78 792.64,-290.35 782.36,-292.93 786.21,-298.78"/>
</g>
<!-- simple_map::add&#45;&gt;simple_map::find -->
<g id="edge19" class="edge">
<title>simple_map::add&#45;&gt;simple_map::find</title>
<path fill="none" stroke="black" d="M346.39,-337.22C349.75,-326.75 354.15,-313.03 358.03,-300.95"/>
<polygon fill="black" stroke="black" points="361.34,-302.07 361.07,-291.48 354.68,-299.93 361.34,-302.07"/>
</g>
<!-- option::is_none -->
<g id="node18" class="node">
<title>option::is_none</title>
<ellipse fill="none" stroke="black" cx="442" cy="-189" rx="38.19" ry="18"/>
<text text-anchor="middle" x="442" y="-185.3" font-family="Times,serif" font-size="14.00">is_none</text>
</g>
<!-- simple_map::add&#45;&gt;option::is_none -->
<g id="edge17" class="edge">
<title>simple_map::add&#45;&gt;option::is_none</title>
<path fill="none" stroke="black" d="M357.91,-340.65C363.73,-336.51 370.43,-332.2 377,-329 387.87,-323.71 394.49,-329.59 403,-321 430.16,-293.59 438.55,-248.15 441.06,-218.65"/>
<polygon fill="black" stroke="black" points="444.53,-219.16 441.7,-208.95 437.55,-218.7 444.53,-219.16"/>
</g>
<!-- simple_map::contains_key&#45;&gt;option::is_some -->
<g id="edge20" class="edge">
<title>simple_map::contains_key&#45;&gt;option::is_some</title>
<path fill="none" stroke="black" d="M471.5,-339.08C503.77,-320.38 554.63,-285 576,-238 589.8,-207.66 589.41,-193.52 576,-163 572.06,-154.03 565.35,-146.07 558.14,-139.42"/>
<polygon fill="black" stroke="black" points="560.66,-136.97 550.75,-133.23 556.16,-142.33 560.66,-136.97"/>
</g>
<!-- simple_map::contains_key&#45;&gt;simple_map::find -->
<g id="edge21" class="edge">
<title>simple_map::contains_key&#45;&gt;simple_map::find</title>
<path fill="none" stroke="black" d="M427.25,-337.22C416.05,-325.28 400.87,-309.1 388.55,-295.97"/>
<polygon fill="black" stroke="black" points="391.37,-293.86 381.97,-288.96 386.26,-298.65 391.37,-293.86"/>
</g>
<!-- get_beneficiary&#45;&gt;simple_map::contains_key -->
<g id="edge23" class="edge">
<title>get_beneficiary&#45;&gt;simple_map::contains_key</title>
<path fill="none" stroke="black" d="M524.03,-413.1C519.32,-410.13 514.49,-407.01 510,-404 498.02,-395.98 485.09,-386.83 473.81,-378.69"/>
<polygon fill="black" stroke="black" points="476.16,-376.07 466.01,-373.02 472.04,-381.73 476.16,-376.07"/>
</g>
<!-- simple_map::borrow -->
<g id="node19" class="node">
<title>simple_map::borrow</title>
<ellipse fill="none" stroke="black" cx="555" cy="-355" rx="36.29" ry="18"/>
<text text-anchor="middle" x="555" y="-351.3" font-family="Times,serif" font-size="14.00">borrow</text>
</g>
<!-- get_beneficiary&#45;&gt;simple_map::borrow -->
<g id="edge22" class="edge">
<title>get_beneficiary&#45;&gt;simple_map::borrow</title>
<path fill="none" stroke="black" d="M551.18,-411.7C551.74,-403.67 552.4,-393.9 553.03,-384.8"/>
<polygon fill="black" stroke="black" points="556.51,-385.15 553.7,-374.94 549.53,-384.68 556.51,-385.15"/>
</g>
<!-- signer::address_of -->
<g id="node20" class="node">
<title>signer::address_of</title>
<ellipse fill="none" stroke="black" cx="1347" cy="-355" rx="48.99" ry="18"/>
<text text-anchor="middle" x="1347" y="-351.3" font-family="Times,serif" font-size="14.00">address_of</text>
</g>
<!-- verify_admin&#45;&gt;signer::address_of -->
<g id="edge24" class="edge">
<title>verify_admin&#45;&gt;signer::address_of</title>
<path fill="none" stroke="black" d="M1280.86,-412.8C1292.39,-402.9 1307.31,-390.08 1320.07,-379.13"/>
<polygon fill="black" stroke="black" points="1322.03,-382.06 1327.33,-372.89 1317.47,-376.75 1322.03,-382.06"/>
</g>
<!-- error::unauthenticated -->
<g id="node21" class="node">
<title>error::unauthenticated</title>
<ellipse fill="none" stroke="black" cx="1085" cy="-272" rx="66.09" ry="18"/>
<text text-anchor="middle" x="1085" y="-268.3" font-family="Times,serif" font-size="14.00">unauthenticated</text>
</g>
<!-- verify_admin&#45;&gt;error::unauthenticated -->
<g id="edge25" class="edge">
<title>verify_admin&#45;&gt;error::unauthenticated</title>
<path fill="none" stroke="black" d="M1264.94,-411.63C1267.67,-389.06 1268.43,-350.07 1246,-329 1232.49,-316.31 1180.57,-326.9 1163,-321 1145.98,-315.29 1128.79,-305.27 1114.9,-295.86"/>
<polygon fill="black" stroke="black" points="1117.29,-293.26 1107.09,-290.38 1113.26,-298.99 1117.29,-293.26"/>
</g>
<!-- error::canonical -->
<g id="node22" class="node">
<title>error::canonical</title>
<ellipse fill="none" stroke="black" cx="954" cy="-189" rx="44.39" ry="18"/>
<text text-anchor="middle" x="954" y="-185.3" font-family="Times,serif" font-size="14.00">canonical</text>
</g>
<!-- error::not_found&#45;&gt;error::canonical -->
<g id="edge26" class="edge">
<title>error::not_found&#45;&gt;error::canonical</title>
<path fill="none" stroke="black" d="M954,-253.82C954,-243.69 954,-230.6 954,-218.92"/>
<polygon fill="black" stroke="black" points="957.5,-218.95 954,-208.95 950.5,-218.95 957.5,-218.95"/>
</g>
<!-- aptos_account::assert_account_exists&#45;&gt;error::not_found -->
<g id="edge27" class="edge">
<title>aptos_account::assert_account_exists&#45;&gt;error::not_found</title>
<path fill="none" stroke="black" d="M950.06,-336.82C950.69,-326.69 951.49,-313.6 952.21,-301.92"/>
<polygon fill="black" stroke="black" points="955.71,-302.14 952.83,-291.94 948.72,-301.71 955.71,-302.14"/>
</g>
<!-- account::exists_at -->
<g id="node23" class="node">
<title>account::exists_at</title>
<ellipse fill="none" stroke="black" cx="1217" cy="-272" rx="41.69" ry="18"/>
<text text-anchor="middle" x="1217" y="-268.3" font-family="Times,serif" font-size="14.00">exists_at</text>
</g>
<!-- aptos_account::assert_account_exists&#45;&gt;account::exists_at -->
<g id="edge28" class="edge">
<title>aptos_account::assert_account_exists&#45;&gt;account::exists_at</title>
<path fill="none" stroke="black" d="M998.24,-339.73C1014.02,-335.65 1031.63,-331.61 1048,-329 1073.3,-324.96 1139.39,-330.93 1163,-321 1175.39,-315.79 1186.88,-306.53 1196.04,-297.52"/>
<polygon fill="black" stroke="black" points="1198.33,-300.18 1202.71,-290.54 1193.27,-295.35 1198.33,-300.18"/>
</g>
<!-- option::extract&#45;&gt;option::is_some -->
<g id="edge29" class="edge">
<title>option::extract&#45;&gt;option::is_some</title>
<path fill="none" stroke="black" d="M531.52,-170.7C530.89,-163.41 530.15,-154.73 529.45,-146.54"/>
<polygon fill="black" stroke="black" points="532.94,-146.28 528.6,-136.61 525.96,-146.87 532.94,-146.28"/>
</g>
<!-- vector::is_empty -->
<g id="node24" class="node">
<title>vector::is_empty</title>
<ellipse fill="none" stroke="black" cx="442" cy="-34" rx="43.59" ry="18"/>
<text text-anchor="middle" x="442" y="-30.3" font-family="Times,serif" font-size="14.00">is_empty</text>
</g>
<!-- option::is_some&#45;&gt;vector::is_empty -->
<g id="edge30" class="edge">
<title>option::is_some&#45;&gt;vector::is_empty</title>
<path fill="none" stroke="black" d="M510.61,-100.38C498.23,-88.58 481.01,-72.18 466.92,-58.75"/>
<polygon fill="black" stroke="black" points="469.38,-56.26 459.72,-51.89 464.55,-61.32 469.38,-56.26"/>
</g>
<!-- error::invalid_argument&#45;&gt;error::canonical -->
<g id="edge31" class="edge">
<title>error::invalid_argument&#45;&gt;error::canonical</title>
<path fill="none" stroke="black" d="M843.26,-255C865.26,-242.09 896.31,-223.86 919.94,-209.99"/>
<polygon fill="black" stroke="black" points="921.41,-213.19 928.26,-205.11 917.87,-207.15 921.41,-213.19"/>
</g>
<!-- option::none -->
<g id="node25" class="node">
<title>option::none</title>
<ellipse fill="none" stroke="black" cx="358" cy="-189" rx="27.9" ry="18"/>
<text text-anchor="middle" x="358" y="-185.3" font-family="Times,serif" font-size="14.00">none</text>
</g>
<!-- simple_map::find&#45;&gt;option::none -->
<g id="edge32" class="edge">
<title>simple_map::find&#45;&gt;option::none</title>
<path fill="none" stroke="black" d="M365.09,-253.82C363.95,-243.58 362.48,-230.33 361.17,-218.55"/>
<polygon fill="black" stroke="black" points="364.69,-218.49 360.1,-208.94 357.73,-219.26 364.69,-218.49"/>
</g>
<!-- option::some -->
<g id="node26" class="node">
<title>option::some</title>
<ellipse fill="none" stroke="black" cx="282" cy="-189" rx="29.8" ry="18"/>
<text text-anchor="middle" x="282" y="-185.3" font-family="Times,serif" font-size="14.00">some</text>
</g>
<!-- simple_map::find&#45;&gt;option::some -->
<g id="edge33" class="edge">
<title>simple_map::find&#45;&gt;option::some</title>
<path fill="none" stroke="black" d="M347.77,-258.89C339.17,-253.07 329.16,-245.68 321,-238 313.66,-231.09 306.47,-222.8 300.29,-215.06"/>
<polygon fill="black" stroke="black" points="303.13,-213.01 294.25,-207.23 297.59,-217.29 303.13,-213.01"/>
</g>
<!-- option::is_none&#45;&gt;vector::is_empty -->
<g id="edge34" class="edge">
<title>option::is_none&#45;&gt;vector::is_empty</title>
<path fill="none" stroke="black" d="M442,-170.75C442,-144.81 442,-95.44 442,-63.93"/>
<polygon fill="black" stroke="black" points="445.5,-63.94 442,-53.94 438.5,-63.94 445.5,-63.94"/>
</g>
<!-- simple_map::borrow&#45;&gt;option::extract -->
<g id="edge35" class="edge">
<title>simple_map::borrow&#45;&gt;option::extract</title>
<path fill="none" stroke="black" d="M552.69,-336.76C548.9,-308.51 541.33,-252.11 536.76,-218.04"/>
<polygon fill="black" stroke="black" points="540.28,-217.96 535.48,-208.51 533.34,-218.89 540.28,-217.96"/>
</g>
<!-- simple_map::borrow&#45;&gt;option::is_some -->
<g id="edge36" class="edge">
<title>simple_map::borrow&#45;&gt;option::is_some</title>
<path fill="none" stroke="black" d="M571.57,-338.71C576.46,-333.49 581.45,-327.35 585,-321 619.65,-259 645.18,-224.12 609,-163 600.46,-148.58 585.49,-138.47 570.65,-131.55"/>
<polygon fill="black" stroke="black" points="572.45,-128.51 561.87,-127.83 569.72,-134.95 572.45,-128.51"/>
</g>
<!-- simple_map::borrow&#45;&gt;error::invalid_argument -->
<g id="edge37" class="edge">
<title>simple_map::borrow&#45;&gt;error::invalid_argument</title>
<path fill="none" stroke="black" d="M575.66,-339.99C583.03,-335.69 591.59,-331.45 600,-329 655.99,-312.65 675.06,-337.54 731,-321 749.66,-315.48 768.69,-305.25 783.99,-295.65"/>
<polygon fill="black" stroke="black" points="785.73,-298.7 792.2,-290.32 781.91,-292.83 785.73,-298.7"/>
</g>
<!-- simple_map::borrow&#45;&gt;simple_map::find -->
<g id="edge38" class="edge">
<title>simple_map::borrow&#45;&gt;simple_map::find</title>
<path fill="none" stroke="black" d="M531.88,-340.72C524.65,-336.76 516.58,-332.54 509,-329 472.96,-312.18 430.37,-295.83 401.3,-285.19"/>
<polygon fill="black" stroke="black" points="402.5,-281.9 391.91,-281.78 400.12,-288.48 402.5,-281.9"/>
</g>
<!-- signer::borrow_address -->
<g id="node27" class="node">
<title>signer::borrow_address</title>
<ellipse fill="none" stroke="black" cx="1355" cy="-272" rx="66.89" ry="18"/>
<text text-anchor="middle" x="1355" y="-268.3" font-family="Times,serif" font-size="14.00">borrow_address</text>
</g>
<!-- signer::address_of&#45;&gt;signer::borrow_address -->
<g id="edge39" class="edge">
<title>signer::address_of&#45;&gt;signer::borrow_address</title>
<path fill="none" stroke="black" d="M1348.7,-336.82C1349.71,-326.58 1351.02,-313.33 1352.18,-301.55"/>
<polygon fill="black" stroke="black" points="1355.63,-302.23 1353.13,-291.94 1348.66,-301.55 1355.63,-302.23"/>
</g>
<!-- error::unauthenticated&#45;&gt;error::canonical -->
<g id="edge40" class="edge">
<title>error::unauthenticated&#45;&gt;error::canonical</title>
<path fill="none" stroke="black" d="M1059.12,-255C1038.56,-242.28 1009.65,-224.41 987.35,-210.62"/>
<polygon fill="black" stroke="black" points="989.26,-207.69 978.91,-205.4 985.58,-213.64 989.26,-207.69"/>
</g>
<!-- vector::singleton -->
<g id="node28" class="node">
<title>vector::singleton</title>
<ellipse fill="none" stroke="black" cx="338" cy="-34" rx="42.79" ry="18"/>
<text text-anchor="middle" x="338" y="-30.3" font-family="Times,serif" font-size="14.00">singleton</text>
</g>
<!-- option::some&#45;&gt;vector::singleton -->
<g id="edge41" class="edge">
<title>option::some&#45;&gt;vector::singleton</title>
<path fill="none" stroke="black" d="M288.21,-171.04C297.79,-144.85 316.3,-94.28 327.85,-62.72"/>
<polygon fill="black" stroke="black" points="331.09,-64.05 331.25,-53.46 324.52,-61.64 331.09,-64.05"/>
</g>
</g>
</svg>
