<?xml version="1.0" encoding="UTF-8" standalone="no"?>
<!DOCTYPE svg PUBLIC "-//W3C//DTD SVG 1.1//EN"
 "http://www.w3.org/Graphics/SVG/1.1/DTD/svg11.dtd">
<!-- Generated by graphviz version 7.0.4 (20221203.1631)
 -->
<!-- Title: G Pages: 1 -->
<svg width="1702pt" height="299pt"
 viewBox="0.00 0.00 1702.33 299.00" xmlns="http://www.w3.org/2000/svg" xmlns:xlink="http://www.w3.org/1999/xlink">
<g id="graph0" class="graph" transform="scale(1 1) rotate(0) translate(4 295)">
<title>G</title>
<polygon fill="white" stroke="none" points="-4,4 -4,-295 1698.33,-295 1698.33,4 -4,4"/>
<g id="clust1" class="cluster">
<title>cluster_staking_proxy</title>
<polygon fill="none" stroke="black" points="327.59,-136 327.59,-283 804.59,-283 804.59,-136 327.59,-136"/>
<text text-anchor="middle" x="566.09" y="-267.8" font-family="Times,serif" font-size="14.00">staking_proxy</text>
</g>
<g id="clust2" class="cluster">
<title>cluster_genesis</title>
<polygon fill="none" stroke="black" points="812.59,-136 812.59,-283 1048.59,-283 1048.59,-136 812.59,-136"/>
<text text-anchor="middle" x="930.59" y="-267.8" font-family="Times,serif" font-size="14.00">genesis</text>
</g>
<!-- assert_vesting_contract_exists -->
<g id="node1" class="node">
<title>assert_vesting_contract_exists</title>
<ellipse fill="none" stroke="black" cx="1025.59" cy="-18" rx="117.78" ry="18"/>
<text text-anchor="middle" x="1025.59" y="-14.3" font-family="Times,serif" font-size="14.00">assert_vesting_contract_exists</text>
</g>
<!-- operator -->
<g id="node2" class="node">
<title>operator</title>
<ellipse fill="none" stroke="black" cx="691.59" cy="-90" rx="40.09" ry="18"/>
<text text-anchor="middle" x="691.59" y="-86.3" font-family="Times,serif" font-size="14.00">operator</text>
</g>
<!-- operator&#45;&gt;assert_vesting_contract_exists -->
<g id="edge1" class="edge">
<title>operator&#45;&gt;assert_vesting_contract_exists</title>
<path fill="none" stroke="black" d="M724.61,-79.45C733.94,-76.89 744.13,-74.21 753.59,-72 815.14,-57.59 885.17,-44.01 938.75,-34.2"/>
<polygon fill="black" stroke="black" points="939.23,-37.67 948.44,-32.44 937.97,-30.78 939.23,-37.67"/>
</g>
<!-- voter -->
<g id="node3" class="node">
<title>voter</title>
<ellipse fill="none" stroke="black" cx="791.59" cy="-90" rx="28.7" ry="18"/>
<text text-anchor="middle" x="791.59" y="-86.3" font-family="Times,serif" font-size="14.00">voter</text>
</g>
<!-- voter&#45;&gt;assert_vesting_contract_exists -->
<g id="edge2" class="edge">
<title>voter&#45;&gt;assert_vesting_contract_exists</title>
<path fill="none" stroke="black" d="M813.85,-78.34C818.96,-76.09 824.41,-73.84 829.59,-72 869.18,-57.89 914.4,-45.43 951.43,-36.14"/>
<polygon fill="black" stroke="black" points="951.81,-39.65 960.67,-33.84 950.12,-32.85 951.81,-39.65"/>
</g>
<!-- stake_pool_address -->
<g id="node4" class="node">
<title>stake_pool_address</title>
<ellipse fill="none" stroke="black" cx="917.59" cy="-90" rx="79.09" ry="18"/>
<text text-anchor="middle" x="917.59" y="-86.3" font-family="Times,serif" font-size="14.00">stake_pool_address</text>
</g>
<!-- stake_pool_address&#45;&gt;assert_vesting_contract_exists -->
<g id="edge3" class="edge">
<title>stake_pool_address&#45;&gt;assert_vesting_contract_exists</title>
<path fill="none" stroke="black" d="M942.91,-72.59C957.05,-63.42 974.9,-51.85 990.39,-41.81"/>
<polygon fill="black" stroke="black" points="991.92,-44.99 998.4,-36.62 988.11,-39.12 991.92,-44.99"/>
</g>
<!-- assert_active_vesting_contract -->
<g id="node5" class="node">
<title>assert_active_vesting_contract</title>
<ellipse fill="none" stroke="black" cx="1133.59" cy="-90" rx="118.08" ry="18"/>
<text text-anchor="middle" x="1133.59" y="-86.3" font-family="Times,serif" font-size="14.00">assert_active_vesting_contract</text>
</g>
<!-- assert_active_vesting_contract&#45;&gt;assert_vesting_contract_exists -->
<g id="edge4" class="edge">
<title>assert_active_vesting_contract&#45;&gt;assert_vesting_contract_exists</title>
<path fill="none" stroke="black" d="M1107.44,-72.05C1093.62,-63.09 1076.43,-51.96 1061.39,-42.2"/>
<polygon fill="black" stroke="black" points="1063.43,-39.36 1053.13,-36.85 1059.62,-45.23 1063.43,-39.36"/>
</g>
<!-- beneficiary -->
<g id="node6" class="node">
<title>beneficiary</title>
<ellipse fill="none" stroke="black" cx="1319.59" cy="-90" rx="50.09" ry="18"/>
<text text-anchor="middle" x="1319.59" y="-86.3" font-family="Times,serif" font-size="14.00">beneficiary</text>
</g>
<!-- beneficiary&#45;&gt;assert_vesting_contract_exists -->
<g id="edge5" class="edge">
<title>beneficiary&#45;&gt;assert_vesting_contract_exists</title>
<path fill="none" stroke="black" d="M1281.91,-77.79C1274.84,-75.79 1267.5,-73.78 1260.59,-72 1208.75,-58.7 1150.03,-45.45 1104.25,-35.53"/>
<polygon fill="black" stroke="black" points="1105.19,-32.16 1094.68,-33.47 1103.72,-39 1105.19,-32.16"/>
</g>
<!-- operator_commission_percentage -->
<g id="node7" class="node">
<title>operator_commission_percentage</title>
<ellipse fill="none" stroke="black" cx="451.59" cy="-90" rx="129.98" ry="18"/>
<text text-anchor="middle" x="451.59" y="-86.3" font-family="Times,serif" font-size="14.00">operator_commission_percentage</text>
</g>
<!-- operator_commission_percentage&#45;&gt;assert_vesting_contract_exists -->
<g id="edge6" class="edge">
<title>operator_commission_percentage&#45;&gt;assert_vesting_contract_exists</title>
<path fill="none" stroke="black" d="M546.69,-77.4C650.9,-64.69 817.41,-44.39 924.09,-31.38"/>
<polygon fill="black" stroke="black" points="924.5,-34.85 934,-30.17 923.65,-27.91 924.5,-34.85"/>
</g>
<!-- remaining_grant -->
<g id="node8" class="node">
<title>remaining_grant</title>
<ellipse fill="none" stroke="black" cx="1457.59" cy="-90" rx="69.59" ry="18"/>
<text text-anchor="middle" x="1457.59" y="-86.3" font-family="Times,serif" font-size="14.00">remaining_grant</text>
</g>
<!-- remaining_grant&#45;&gt;assert_vesting_contract_exists -->
<g id="edge7" class="edge">
<title>remaining_grant&#45;&gt;assert_vesting_contract_exists</title>
<path fill="none" stroke="black" d="M1406.26,-77.47C1397.07,-75.54 1387.56,-73.64 1378.59,-72 1292.8,-56.34 1194.66,-41.89 1123.67,-32.04"/>
<polygon fill="black" stroke="black" points="1124.4,-28.61 1114.02,-30.71 1123.44,-35.54 1124.4,-28.61"/>
</g>
<!-- vesting_start_secs -->
<g id="node9" class="node">
<title>vesting_start_secs</title>
<ellipse fill="none" stroke="black" cx="1619.59" cy="-90" rx="74.99" ry="18"/>
<text text-anchor="middle" x="1619.59" y="-86.3" font-family="Times,serif" font-size="14.00">vesting_start_secs</text>
</g>
<!-- vesting_start_secs&#45;&gt;assert_vesting_contract_exists -->
<g id="edge8" class="edge">
<title>vesting_start_secs&#45;&gt;assert_vesting_contract_exists</title>
<path fill="none" stroke="black" d="M1565.7,-77.16C1556.04,-75.27 1546.04,-73.45 1536.59,-72 1401.49,-51.21 1245.01,-36.32 1141.16,-27.71"/>
<polygon fill="black" stroke="black" points="1141.47,-24.23 1131.22,-26.9 1140.9,-31.2 1141.47,-24.23"/>
</g>
<!-- staking_proxy::set_vesting_contract_operator -->
<g id="node10" class="node">
<title>staking_proxy::set_vesting_contract_operator</title>
<ellipse fill="none" stroke="black" cx="451.59" cy="-162" rx="116.18" ry="18"/>
<text text-anchor="middle" x="451.59" y="-158.3" font-family="Times,serif" font-size="14.00">set_vesting_contract_operator</text>
</g>
<!-- staking_proxy::set_vesting_contract_operator&#45;&gt;operator -->
<g id="edge9" class="edge">
<title>staking_proxy::set_vesting_contract_operator&#45;&gt;operator</title>
<path fill="none" stroke="black" d="M504.55,-145.55C547.58,-133 607.54,-115.51 647.86,-103.75"/>
<polygon fill="black" stroke="black" points="648.61,-107.18 657.23,-101.02 646.65,-100.46 648.61,-107.18"/>
</g>
<!-- staking_proxy::set_vesting_contract_operator&#45;&gt;operator_commission_percentage -->
<g id="edge16" class="edge">
<title>staking_proxy::set_vesting_contract_operator&#45;&gt;operator_commission_percentage</title>
<path fill="none" stroke="black" d="M451.59,-143.7C451.59,-136.41 451.59,-127.73 451.59,-119.54"/>
<polygon fill="black" stroke="black" points="455.09,-119.62 451.59,-109.62 448.09,-119.62 455.09,-119.62"/>
</g>
<!-- staking_proxy::set_vesting_contract_voter -->
<g id="node11" class="node">
<title>staking_proxy::set_vesting_contract_voter</title>
<ellipse fill="none" stroke="black" cx="691.59" cy="-162" rx="105.08" ry="18"/>
<text text-anchor="middle" x="691.59" y="-158.3" font-family="Times,serif" font-size="14.00">set_vesting_contract_voter</text>
</g>
<!-- staking_proxy::set_vesting_contract_voter&#45;&gt;operator -->
<g id="edge10" class="edge">
<title>staking_proxy::set_vesting_contract_voter&#45;&gt;operator</title>
<path fill="none" stroke="black" d="M691.59,-143.7C691.59,-136.41 691.59,-127.73 691.59,-119.54"/>
<polygon fill="black" stroke="black" points="695.09,-119.62 691.59,-109.62 688.09,-119.62 695.09,-119.62"/>
</g>
<!-- genesis::create_employee_validators -->
<g id="node12" class="node">
<title>genesis::create_employee_validators</title>
<ellipse fill="none" stroke="black" cx="930.59" cy="-162" rx="109.68" ry="18"/>
<text text-anchor="middle" x="930.59" y="-158.3" font-family="Times,serif" font-size="14.00">create_employee_validators</text>
</g>
<!-- genesis::create_employee_validators&#45;&gt;stake_pool_address -->
<g id="edge11" class="edge">
<title>genesis::create_employee_validators&#45;&gt;stake_pool_address</title>
<path fill="none" stroke="black" d="M927.37,-143.7C926,-136.32 924.37,-127.52 922.83,-119.25"/>
<polygon fill="black" stroke="black" points="926.31,-118.79 921.04,-109.59 919.42,-120.06 926.31,-118.79"/>
</g>
<!-- distribute -->
<g id="node13" class="node">
<title>distribute</title>
<ellipse fill="none" stroke="black" cx="1169.59" cy="-162" rx="44.39" ry="18"/>
<text text-anchor="middle" x="1169.59" y="-158.3" font-family="Times,serif" font-size="14.00">distribute</text>
</g>
<!-- distribute&#45;&gt;assert_active_vesting_contract -->
<g id="edge12" class="edge">
<title>distribute&#45;&gt;assert_active_vesting_contract</title>
<path fill="none" stroke="black" d="M1160.87,-144.05C1156.91,-136.35 1152.11,-127.03 1147.66,-118.36"/>
<polygon fill="black" stroke="black" points="1150.85,-116.91 1143.16,-109.62 1144.62,-120.11 1150.85,-116.91"/>
</g>
<!-- unlock_rewards -->
<g id="node14" class="node">
<title>unlock_rewards</title>
<ellipse fill="none" stroke="black" cx="1309.59" cy="-162" rx="66.89" ry="18"/>
<text text-anchor="middle" x="1309.59" y="-158.3" font-family="Times,serif" font-size="14.00">unlock_rewards</text>
</g>
<!-- unlock_rewards&#45;&gt;assert_active_vesting_contract -->
<g id="edge13" class="edge">
<title>unlock_rewards&#45;&gt;assert_active_vesting_contract</title>
<path fill="none" stroke="black" d="M1273.12,-146.5C1247.67,-136.38 1213.35,-122.73 1185.12,-111.5"/>
<polygon fill="black" stroke="black" points="1186.62,-108.33 1176.03,-107.88 1184.03,-114.83 1186.62,-108.33"/>
</g>
<!-- terminate_vesting_contract -->
<g id="node15" class="node">
<title>terminate_vesting_contract</title>
<ellipse fill="none" stroke="black" cx="1163.59" cy="-234" rx="106.68" ry="18"/>
<text text-anchor="middle" x="1163.59" y="-230.3" font-family="Times,serif" font-size="14.00">terminate_vesting_contract</text>
</g>
<!-- terminate_vesting_contract&#45;&gt;assert_active_vesting_contract -->
<g id="edge14" class="edge">
<title>terminate_vesting_contract&#45;&gt;assert_active_vesting_contract</title>
<path fill="none" stroke="black" d="M1142.81,-216.17C1132.83,-206.72 1121.91,-194.03 1116.59,-180 1109.09,-160.24 1114.14,-136.71 1120.64,-118.81"/>
<polygon fill="black" stroke="black" points="1123.85,-120.2 1124.32,-109.62 1117.35,-117.6 1123.85,-120.2"/>
</g>
<!-- terminate_vesting_contract&#45;&gt;distribute -->
<g id="edge20" class="edge">
<title>terminate_vesting_contract&#45;&gt;distribute</title>
<path fill="none" stroke="black" d="M1165.07,-215.7C1165.69,-208.41 1166.44,-199.73 1167.14,-191.54"/>
<polygon fill="black" stroke="black" points="1170.62,-191.87 1167.99,-181.61 1163.65,-191.28 1170.62,-191.87"/>
</g>
<!-- update_operator_with_same_commission -->
<g id="node16" class="node">
<title>update_operator_with_same_commission</title>
<ellipse fill="none" stroke="black" cx="158.59" cy="-162" rx="158.67" ry="18"/>
<text text-anchor="middle" x="158.59" y="-158.3" font-family="Times,serif" font-size="14.00">update_operator_with_same_commission</text>
</g>
<!-- update_operator_with_same_commission&#45;&gt;operator_commission_percentage -->
<g id="edge15" class="edge">
<title>update_operator_with_same_commission&#45;&gt;operator_commission_percentage</title>
<path fill="none" stroke="black" d="M224.71,-145.2C270.02,-134.38 330.2,-120 377.19,-108.77"/>
<polygon fill="black" stroke="black" points="377.83,-112.22 386.75,-106.49 376.21,-105.41 377.83,-112.22"/>
</g>
<!-- staking_proxy::set_operator -->
<g id="node17" class="node">
<title>staking_proxy::set_operator</title>
<ellipse fill="none" stroke="black" cx="451.59" cy="-234" rx="53.89" ry="18"/>
<text text-anchor="middle" x="451.59" y="-230.3" font-family="Times,serif" font-size="14.00">set_operator</text>
</g>
<!-- staking_proxy::set_operator&#45;&gt;staking_proxy::set_vesting_contract_operator -->
<g id="edge17" class="edge">
<title>staking_proxy::set_operator&#45;&gt;staking_proxy::set_vesting_contract_operator</title>
<path fill="none" stroke="black" d="M451.59,-215.7C451.59,-208.41 451.59,-199.73 451.59,-191.54"/>
<polygon fill="black" stroke="black" points="455.09,-191.62 451.59,-181.62 448.09,-191.62 455.09,-191.62"/>
</g>
<!-- staking_proxy::set_voter -->
<g id="node18" class="node">
<title>staking_proxy::set_voter</title>
<ellipse fill="none" stroke="black" cx="691.59" cy="-234" rx="42.79" ry="18"/>
<text text-anchor="middle" x="691.59" y="-230.3" font-family="Times,serif" font-size="14.00">set_voter</text>
</g>
<!-- staking_proxy::set_voter&#45;&gt;staking_proxy::set_vesting_contract_voter -->
<g id="edge18" class="edge">
<title>staking_proxy::set_voter&#45;&gt;staking_proxy::set_vesting_contract_voter</title>
<path fill="none" stroke="black" d="M691.59,-215.7C691.59,-208.41 691.59,-199.73 691.59,-191.54"/>
<polygon fill="black" stroke="black" points="695.09,-191.62 691.59,-181.62 688.09,-191.62 695.09,-191.62"/>
</g>
<!-- genesis::initialize_for_verification -->
<g id="node19" class="node">
<title>genesis::initialize_for_verification</title>
<ellipse fill="none" stroke="black" cx="930.59" cy="-234" rx="100.98" ry="18"/>
<text text-anchor="middle" x="930.59" y="-230.3" font-family="Times,serif" font-size="14.00">initialize_for_verification</text>
</g>
<!-- genesis::initialize_for_verification&#45;&gt;genesis::create_employee_validators -->
<g id="edge19" class="edge">
<title>genesis::initialize_for_verification&#45;&gt;genesis::create_employee_validators</title>
<path fill="none" stroke="black" d="M930.59,-215.7C930.59,-208.41 930.59,-199.73 930.59,-191.54"/>
<polygon fill="black" stroke="black" points="934.09,-191.62 930.59,-181.62 927.09,-191.62 934.09,-191.62"/>
</g>
<!-- vest -->
<g id="node20" class="node">
<title>vest</title>
<ellipse fill="none" stroke="black" cx="1315.59" cy="-234" rx="27" ry="18"/>
<text text-anchor="middle" x="1315.59" y="-230.3" font-family="Times,serif" font-size="14.00">vest</text>
</g>
<!-- vest&#45;&gt;unlock_rewards -->
<g id="edge21" class="edge">
<title>vest&#45;&gt;unlock_rewards</title>
<path fill="none" stroke="black" d="M1314.1,-215.7C1313.48,-208.41 1312.73,-199.73 1312.03,-191.54"/>
<polygon fill="black" stroke="black" points="1315.52,-191.28 1311.18,-181.61 1308.55,-191.87 1315.52,-191.28"/>
</g>
</g>
</svg>
