<?xml version="1.0" encoding="UTF-8" standalone="no"?>
<!DOCTYPE svg PUBLIC "-//W3C//DTD SVG 1.1//EN"
 "http://www.w3.org/Graphics/SVG/1.1/DTD/svg11.dtd">
<!-- Generated by graphviz version 7.0.4 (20221203.1631)
 -->
<!-- Title: G Pages: 1 -->
<svg width="501pt" height="227pt"
 viewBox="0.00 0.00 501.00 227.00" xmlns="http://www.w3.org/2000/svg" xmlns:xlink="http://www.w3.org/1999/xlink">
<g id="graph0" class="graph" transform="scale(1 1) rotate(0) translate(4 223)">
<title>G</title>
<polygon fill="white" stroke="none" points="-4,4 -4,-223 497,-223 497,4 -4,4"/>
<g id="clust1" class="cluster">
<title>cluster_staking_proxy</title>
<polygon fill="none" stroke="black" points="8,-64 8,-211 485,-211 485,-64 8,-64"/>
<text text-anchor="middle" x="246.5" y="-195.8" font-family="Times,serif" font-size="14.00">staking_proxy</text>
</g>
<!-- operator -->
<g id="node1" class="node">
<title>operator</title>
<ellipse fill="none" stroke="black" cx="241" cy="-18" rx="40.09" ry="18"/>
<text text-anchor="middle" x="241" y="-14.3" font-family="Times,serif" font-size="14.00">operator</text>
</g>
<!-- staking_proxy::set_vesting_contract_operator -->
<g id="node2" class="node">
<title>staking_proxy::set_vesting_contract_operator</title>
<ellipse fill="none" stroke="black" cx="361" cy="-90" rx="116.18" ry="18"/>
<text text-anchor="middle" x="361" y="-86.3" font-family="Times,serif" font-size="14.00">set_vesting_contract_operator</text>
</g>
<!-- staking_proxy::set_vesting_contract_operator&#45;&gt;operator -->
<g id="edge1" class="edge">
<title>staking_proxy::set_vesting_contract_operator&#45;&gt;operator</title>
<path fill="none" stroke="black" d="M332.26,-72.23C314.9,-62.11 292.71,-49.16 274.56,-38.57"/>
<polygon fill="black" stroke="black" points="276.38,-35.59 265.98,-33.57 272.85,-41.63 276.38,-35.59"/>
</g>
<!-- staking_proxy::set_vesting_contract_voter -->
<g id="node3" class="node">
<title>staking_proxy::set_vesting_contract_voter</title>
<ellipse fill="none" stroke="black" cx="121" cy="-90" rx="105.08" ry="18"/>
<text text-anchor="middle" x="121" y="-86.3" font-family="Times,serif" font-size="14.00">set_vesting_contract_voter</text>
</g>
<!-- staking_proxy::set_vesting_contract_voter&#45;&gt;operator -->
<g id="edge2" class="edge">
<title>staking_proxy::set_vesting_contract_voter&#45;&gt;operator</title>
<path fill="none" stroke="black" d="M149.74,-72.23C167.1,-62.11 189.29,-49.16 207.44,-38.57"/>
<polygon fill="black" stroke="black" points="209.15,-41.63 216.02,-33.57 205.62,-35.59 209.15,-41.63"/>
</g>
<!-- staking_proxy::set_operator -->
<g id="node4" class="node">
<title>staking_proxy::set_operator</title>
<ellipse fill="none" stroke="black" cx="361" cy="-162" rx="53.89" ry="18"/>
<text text-anchor="middle" x="361" y="-158.3" font-family="Times,serif" font-size="14.00">set_operator</text>
</g>
<!-- staking_proxy::set_operator&#45;&gt;staking_proxy::set_vesting_contract_operator -->
<g id="edge3" class="edge">
<title>staking_proxy::set_operator&#45;&gt;staking_proxy::set_vesting_contract_operator</title>
<path fill="none" stroke="black" d="M361,-143.7C361,-136.41 361,-127.73 361,-119.54"/>
<polygon fill="black" stroke="black" points="364.5,-119.62 361,-109.62 357.5,-119.62 364.5,-119.62"/>
</g>
<!-- staking_proxy::set_voter -->
<g id="node5" class="node">
<title>staking_proxy::set_voter</title>
<ellipse fill="none" stroke="black" cx="121" cy="-162" rx="42.79" ry="18"/>
<text text-anchor="middle" x="121" y="-158.3" font-family="Times,serif" font-size="14.00">set_voter</text>
</g>
<!-- staking_proxy::set_voter&#45;&gt;staking_proxy::set_vesting_contract_voter -->
<g id="edge4" class="edge">
<title>staking_proxy::set_voter&#45;&gt;staking_proxy::set_vesting_contract_voter</title>
<path fill="none" stroke="black" d="M121,-143.7C121,-136.41 121,-127.73 121,-119.54"/>
<polygon fill="black" stroke="black" points="124.5,-119.62 121,-109.62 117.5,-119.62 124.5,-119.62"/>
</g>
</g>
</svg>
