<?xml version="1.0" encoding="UTF-8" standalone="no"?>
<!DOCTYPE svg PUBLIC "-//W3C//DTD SVG 1.1//EN"
 "http://www.w3.org/Graphics/SVG/1.1/DTD/svg11.dtd">
<!-- Generated by graphviz version 7.0.4 (20221203.1631)
 -->
<!-- Title: G Pages: 1 -->
<svg width="491pt" height="448pt"
 viewBox="0.00 0.00 490.71 448.00" xmlns="http://www.w3.org/2000/svg" xmlns:xlink="http://www.w3.org/1999/xlink">
<g id="graph0" class="graph" transform="scale(1 1) rotate(0) translate(4 444)">
<title>G</title>
<polygon fill="white" stroke="none" points="-4,4 -4,-444 486.71,-444 486.71,4 -4,4"/>
<g id="clust1" class="cluster">
<title>cluster_simple_map</title>
<polygon fill="none" stroke="black" points="23,-246 23,-396 244,-396 244,-246 23,-246"/>
<text text-anchor="middle" x="133.5" y="-380.8" font-family="Times,serif" font-size="14.00">simple_map</text>
</g>
<g id="clust2" class="cluster">
<title>cluster_option</title>
<polygon fill="none" stroke="black" points="8,-91 8,-238 244,-238 244,-91 8,-91"/>
<text text-anchor="middle" x="126" y="-222.8" font-family="Times,serif" font-size="14.00">option</text>
</g>
<g id="clust3" class="cluster">
<title>cluster_error</title>
<polygon fill="none" stroke="black" points="252,-163 252,-321 414,-321 414,-163 252,-163"/>
<text text-anchor="middle" x="333" y="-305.8" font-family="Times,serif" font-size="14.00">error</text>
</g>
<g id="clust4" class="cluster">
<title>cluster_vector</title>
<polygon fill="none" stroke="black" points="30,-8 30,-83 237,-83 237,-8 30,-8"/>
<text text-anchor="middle" x="133.5" y="-67.8" font-family="Times,serif" font-size="14.00">vector</text>
</g>
<!-- get_beneficiary -->
<g id="node1" class="node">
<title>get_beneficiary</title>
<ellipse fill="none" stroke="black" cx="123" cy="-422" rx="65.79" ry="18"/>
<text text-anchor="middle" x="123" y="-418.3" font-family="Times,serif" font-size="14.00">get_beneficiary</text>
</g>
<!-- simple_map::borrow -->
<g id="node2" class="node">
<title>simple_map::borrow</title>
<ellipse fill="none" stroke="black" cx="67" cy="-347" rx="36.29" ry="18"/>
<text text-anchor="middle" x="67" y="-343.3" font-family="Times,serif" font-size="14.00">borrow</text>
</g>
<!-- get_beneficiary&#45;&gt;simple_map::borrow -->
<g id="edge1" class="edge">
<title>get_beneficiary&#45;&gt;simple_map::borrow</title>
<path fill="none" stroke="black" d="M110.01,-404.07C102.99,-394.91 94.17,-383.42 86.35,-373.23"/>
<polygon fill="black" stroke="black" points="89.32,-371.34 80.45,-365.54 83.76,-375.6 89.32,-371.34"/>
</g>
<!-- simple_map::contains_key -->
<g id="node3" class="node">
<title>simple_map::contains_key</title>
<ellipse fill="none" stroke="black" cx="179" cy="-347" rx="57.39" ry="18"/>
<text text-anchor="middle" x="179" y="-343.3" font-family="Times,serif" font-size="14.00">contains_key</text>
</g>
<!-- get_beneficiary&#45;&gt;simple_map::contains_key -->
<g id="edge2" class="edge">
<title>get_beneficiary&#45;&gt;simple_map::contains_key</title>
<path fill="none" stroke="black" d="M135.99,-404.07C142.84,-395.13 151.4,-383.97 159.08,-373.97"/>
<polygon fill="black" stroke="black" points="161.85,-376.1 165.16,-366.04 156.3,-371.84 161.85,-376.1"/>
</g>
<!-- option::extract -->
<g id="node4" class="node">
<title>option::extract</title>
<ellipse fill="none" stroke="black" cx="202" cy="-189" rx="34.39" ry="18"/>
<text text-anchor="middle" x="202" y="-185.3" font-family="Times,serif" font-size="14.00">extract</text>
</g>
<!-- simple_map::borrow&#45;&gt;option::extract -->
<g id="edge3" class="edge">
<title>simple_map::borrow&#45;&gt;option::extract</title>
<path fill="none" stroke="black" d="M97.18,-336.48C106.16,-332.65 115.58,-327.56 123,-321 155.64,-292.14 178.89,-246.48 191.38,-217.39"/>
<polygon fill="black" stroke="black" points="194.46,-219.11 195.05,-208.53 187.99,-216.42 194.46,-219.11"/>
</g>
<!-- option::is_some -->
<g id="node5" class="node">
<title>option::is_some</title>
<ellipse fill="none" stroke="black" cx="196" cy="-117" rx="40.09" ry="18"/>
<text text-anchor="middle" x="196" y="-113.3" font-family="Times,serif" font-size="14.00">is_some</text>
</g>
<!-- simple_map::borrow&#45;&gt;option::is_some -->
<g id="edge4" class="edge">
<title>simple_map::borrow&#45;&gt;option::is_some</title>
<path fill="none" stroke="black" d="M93.82,-334.42C100.01,-332.22 106.65,-330.22 113,-329 129.64,-325.8 406.17,-333.14 418,-321 442.5,-295.85 440.22,-190.18 418,-163 396.82,-137.1 305.72,-125.75 247,-121.05"/>
<polygon fill="black" stroke="black" points="247.47,-117.57 237.23,-120.31 246.94,-124.55 247.47,-117.57"/>
</g>
<!-- error::invalid_argument -->
<g id="node6" class="node">
<title>error::invalid_argument</title>
<ellipse fill="none" stroke="black" cx="333" cy="-272" rx="73.39" ry="18"/>
<text text-anchor="middle" x="333" y="-268.3" font-family="Times,serif" font-size="14.00">invalid_argument</text>
</g>
<!-- simple_map::borrow&#45;&gt;error::invalid_argument -->
<g id="edge5" class="edge">
<title>simple_map::borrow&#45;&gt;error::invalid_argument</title>
<path fill="none" stroke="black" d="M93.85,-334.57C100.04,-332.36 106.67,-330.33 113,-329 171.83,-316.67 190.35,-337.99 248,-321 266.67,-315.5 285.69,-305.27 301,-295.67"/>
<polygon fill="black" stroke="black" points="302.73,-298.71 309.21,-290.33 298.92,-292.85 302.73,-298.71"/>
</g>
<!-- simple_map::find -->
<g id="node7" class="node">
<title>simple_map::find</title>
<ellipse fill="none" stroke="black" cx="87" cy="-272" rx="27" ry="18"/>
<text text-anchor="middle" x="87" y="-268.3" font-family="Times,serif" font-size="14.00">find</text>
</g>
<!-- simple_map::borrow&#45;&gt;simple_map::find -->
<g id="edge6" class="edge">
<title>simple_map::borrow&#45;&gt;simple_map::find</title>
<path fill="none" stroke="black" d="M71.74,-328.7C74.01,-320.43 76.78,-310.31 79.33,-300.99"/>
<polygon fill="black" stroke="black" points="82.63,-302.2 81.89,-291.64 75.88,-300.36 82.63,-302.2"/>
</g>
<!-- simple_map::contains_key&#45;&gt;option::is_some -->
<g id="edge7" class="edge">
<title>simple_map::contains_key&#45;&gt;option::is_some</title>
<path fill="none" stroke="black" d="M236.36,-344.7C311.13,-342.4 434.04,-336.32 448,-321 495.3,-269.1 493.08,-216.84 448,-163 422.97,-133.1 313.87,-123.05 247.7,-119.68"/>
<polygon fill="black" stroke="black" points="247.93,-116.19 237.78,-119.22 247.61,-123.18 247.93,-116.19"/>
</g>
<!-- simple_map::contains_key&#45;&gt;simple_map::find -->
<g id="edge8" class="edge">
<title>simple_map::contains_key&#45;&gt;simple_map::find</title>
<path fill="none" stroke="black" d="M158.58,-329.8C145.12,-319.12 127.37,-305.03 112.92,-293.56"/>
<polygon fill="black" stroke="black" points="115.17,-290.88 105.16,-287.41 110.82,-296.36 115.17,-290.88"/>
</g>
<!-- option::extract&#45;&gt;option::is_some -->
<g id="edge9" class="edge">
<title>option::extract&#45;&gt;option::is_some</title>
<path fill="none" stroke="black" d="M200.52,-170.7C199.89,-163.41 199.15,-154.73 198.45,-146.54"/>
<polygon fill="black" stroke="black" points="201.94,-146.28 197.6,-136.61 194.96,-146.87 201.94,-146.28"/>
</g>
<!-- vector::is_empty -->
<g id="node8" class="node">
<title>vector::is_empty</title>
<ellipse fill="none" stroke="black" cx="185" cy="-34" rx="43.59" ry="18"/>
<text text-anchor="middle" x="185" y="-30.3" font-family="Times,serif" font-size="14.00">is_empty</text>
</g>
<!-- option::is_some&#45;&gt;vector::is_empty -->
<g id="edge10" class="edge">
<title>option::is_some&#45;&gt;vector::is_empty</title>
<path fill="none" stroke="black" d="M193.67,-98.82C192.28,-88.58 190.48,-75.33 188.88,-63.55"/>
<polygon fill="black" stroke="black" points="192.38,-63.37 187.57,-53.93 185.45,-64.31 192.38,-63.37"/>
</g>
<!-- error::canonical -->
<g id="node9" class="node">
<title>error::canonical</title>
<ellipse fill="none" stroke="black" cx="333" cy="-189" rx="44.39" ry="18"/>
<text text-anchor="middle" x="333" y="-185.3" font-family="Times,serif" font-size="14.00">canonical</text>
</g>
<!-- error::invalid_argument&#45;&gt;error::canonical -->
<g id="edge11" class="edge">
<title>error::invalid_argument&#45;&gt;error::canonical</title>
<path fill="none" stroke="black" d="M333,-253.82C333,-243.69 333,-230.6 333,-218.92"/>
<polygon fill="black" stroke="black" points="336.5,-218.95 333,-208.95 329.5,-218.95 336.5,-218.95"/>
</g>
<!-- option::none -->
<g id="node10" class="node">
<title>option::none</title>
<ellipse fill="none" stroke="black" cx="122" cy="-189" rx="27.9" ry="18"/>
<text text-anchor="middle" x="122" y="-185.3" font-family="Times,serif" font-size="14.00">none</text>
</g>
<!-- simple_map::find&#45;&gt;option::none -->
<g id="edge12" class="edge">
<title>simple_map::find&#45;&gt;option::none</title>
<path fill="none" stroke="black" d="M94.25,-254.22C98.9,-243.46 105.03,-229.27 110.35,-216.96"/>
<polygon fill="black" stroke="black" points="113.4,-218.72 114.16,-208.15 106.98,-215.94 113.4,-218.72"/>
</g>
<!-- option::some -->
<g id="node11" class="node">
<title>option::some</title>
<ellipse fill="none" stroke="black" cx="46" cy="-189" rx="29.8" ry="18"/>
<text text-anchor="middle" x="46" y="-185.3" font-family="Times,serif" font-size="14.00">some</text>
</g>
<!-- simple_map::find&#45;&gt;option::some -->
<g id="edge13" class="edge">
<title>simple_map::find&#45;&gt;option::some</title>
<path fill="none" stroke="black" d="M78.7,-254.61C73.18,-243.7 65.81,-229.13 59.45,-216.58"/>
<polygon fill="black" stroke="black" points="62.75,-215.34 55.11,-208 56.5,-218.5 62.75,-215.34"/>
</g>
<!-- vector::singleton -->
<g id="node12" class="node">
<title>vector::singleton</title>
<ellipse fill="none" stroke="black" cx="81" cy="-34" rx="42.79" ry="18"/>
<text text-anchor="middle" x="81" y="-30.3" font-family="Times,serif" font-size="14.00">singleton</text>
</g>
<!-- option::some&#45;&gt;vector::singleton -->
<g id="edge14" class="edge">
<title>option::some&#45;&gt;vector::singleton</title>
<path fill="none" stroke="black" d="M49.95,-170.75C55.94,-144.55 67.39,-94.48 74.59,-63.02"/>
<polygon fill="black" stroke="black" points="77.97,-63.96 76.78,-53.43 71.14,-62.4 77.97,-63.96"/>
</g>
</g>
</svg>
