<?xml version="1.0" encoding="UTF-8" standalone="no"?>
<!DOCTYPE svg PUBLIC "-//W3C//DTD SVG 1.1//EN"
 "http://www.w3.org/Graphics/SVG/1.1/DTD/svg11.dtd">
<!-- Generated by graphviz version 7.0.4 (20221203.1631)
 -->
<!-- Title: G Pages: 1 -->
<svg width="1312pt" height="539pt"
 viewBox="0.00 0.00 1312.00 539.00" xmlns="http://www.w3.org/2000/svg" xmlns:xlink="http://www.w3.org/1999/xlink">
<g id="graph0" class="graph" transform="scale(1 1) rotate(0) translate(4 535)">
<title>G</title>
<polygon fill="white" stroke="none" points="-4,4 -4,-535 1308,-535 1308,4 -4,4"/>
<g id="clust5" class="cluster">
<title>cluster_transaction_context</title>
<polygon fill="none" stroke="black" points="1148,-412 1148,-487 1296,-487 1296,-412 1148,-412"/>
<text text-anchor="middle" x="1222" y="-471.8" font-family="Times,serif" font-size="14.00">transaction_context</text>
</g>
<g id="clust1" class="cluster">
<title>cluster_string</title>
<polygon fill="none" stroke="black" points="175,-329 175,-487 353,-487 353,-329 175,-329"/>
<text text-anchor="middle" x="264" y="-471.8" font-family="Times,serif" font-size="14.00">string</text>
</g>
<g id="clust2" class="cluster">
<title>cluster_error</title>
<polygon fill="none" stroke="black" points="8,-163 8,-321 300,-321 300,-163 8,-163"/>
<text text-anchor="middle" x="154" y="-305.8" font-family="Times,serif" font-size="14.00">error</text>
</g>
<g id="clust3" class="cluster">
<title>cluster_table</title>
<polygon fill="none" stroke="black" points="981,-163 981,-321 1267,-321 1267,-163 981,-163"/>
<text text-anchor="middle" x="1124" y="-305.8" font-family="Times,serif" font-size="14.00">table</text>
</g>
<g id="clust4" class="cluster">
<title>cluster_from_bcs</title>
<polygon fill="none" stroke="black" points="1022,-329 1022,-487 1140,-487 1140,-329 1022,-329"/>
<text text-anchor="middle" x="1081" y="-471.8" font-family="Times,serif" font-size="14.00">from_bcs</text>
</g>
<g id="clust6" class="cluster">
<title>cluster_timestamp</title>
<polygon fill="none" stroke="black" points="734,-91 734,-238 908,-238 908,-91 734,-91"/>
<text text-anchor="middle" x="821" y="-222.8" font-family="Times,serif" font-size="14.00">timestamp</text>
</g>
<g id="clust7" class="cluster">
<title>cluster_simple_map</title>
<polygon fill="none" stroke="black" points="431,-246 431,-404 519,-404 519,-246 431,-246"/>
<text text-anchor="middle" x="475" y="-388.8" font-family="Times,serif" font-size="14.00">simple_map</text>
</g>
<g id="clust8" class="cluster">
<title>cluster_option</title>
<polygon fill="none" stroke="black" points="308,-91 308,-238 634,-238 634,-91 308,-91"/>
<text text-anchor="middle" x="471" y="-222.8" font-family="Times,serif" font-size="14.00">option</text>
</g>
<g id="clust9" class="cluster">
<title>cluster_vector</title>
<polygon fill="none" stroke="black" points="418,-8 418,-83 625,-83 625,-8 418,-8"/>
<text text-anchor="middle" x="521.5" y="-67.8" font-family="Times,serif" font-size="14.00">vector</text>
</g>
<!-- is_proposal_resolvable -->
<g id="node1" class="node">
<title>is_proposal_resolvable</title>
<ellipse fill="none" stroke="black" cx="765" cy="-513" rx="91.78" ry="18"/>
<text text-anchor="middle" x="765" y="-509.3" font-family="Times,serif" font-size="14.00">is_proposal_resolvable</text>
</g>
<!-- string::utf8 -->
<g id="node2" class="node">
<title>string::utf8</title>
<ellipse fill="none" stroke="black" cx="291" cy="-438" rx="27" ry="18"/>
<text text-anchor="middle" x="291" y="-434.3" font-family="Times,serif" font-size="14.00">utf8</text>
</g>
<!-- is_proposal_resolvable&#45;&gt;string::utf8 -->
<g id="edge1" class="edge">
<title>is_proposal_resolvable&#45;&gt;string::utf8</title>
<path fill="none" stroke="black" d="M672.99,-512.14C571.39,-511.27 414.8,-506.62 359,-487 342.81,-481.31 327.01,-470.57 314.72,-460.69"/>
<polygon fill="black" stroke="black" points="317.13,-458.14 307.22,-454.38 312.62,-463.5 317.13,-458.14"/>
</g>
<!-- error::invalid_argument -->
<g id="node3" class="node">
<title>error::invalid_argument</title>
<ellipse fill="none" stroke="black" cx="219" cy="-272" rx="73.39" ry="18"/>
<text text-anchor="middle" x="219" y="-268.3" font-family="Times,serif" font-size="14.00">invalid_argument</text>
</g>
<!-- is_proposal_resolvable&#45;&gt;error::invalid_argument -->
<g id="edge2" class="edge">
<title>is_proposal_resolvable&#45;&gt;error::invalid_argument</title>
<path fill="none" stroke="black" d="M678.37,-506.69C647.13,-503.1 611.96,-497.08 581,-487 507.07,-462.93 481.86,-459.1 427,-404 400.35,-377.23 415.86,-353.37 387,-329 360.21,-306.38 323.95,-292.8 291.97,-284.69"/>
<polygon fill="black" stroke="black" points="292.87,-281.31 282.33,-282.4 291.25,-288.12 292.87,-281.31"/>
</g>
<!-- error::invalid_state -->
<g id="node4" class="node">
<title>error::invalid_state</title>
<ellipse fill="none" stroke="black" cx="72" cy="-272" rx="55.79" ry="18"/>
<text text-anchor="middle" x="72" y="-268.3" font-family="Times,serif" font-size="14.00">invalid_state</text>
</g>
<!-- is_proposal_resolvable&#45;&gt;error::invalid_state -->
<g id="edge3" class="edge">
<title>is_proposal_resolvable&#45;&gt;error::invalid_state</title>
<path fill="none" stroke="black" d="M674.62,-509.64C583.01,-506.54 451.95,-499.92 432,-487 396.77,-464.2 404.82,-441.99 387,-404 371.75,-371.5 386.36,-349.66 357,-329 337,-314.92 160.09,-329.07 137,-321 122.37,-315.89 108.26,-306.25 96.95,-296.94"/>
<polygon fill="black" stroke="black" points="99.52,-294.54 89.67,-290.63 94.94,-299.83 99.52,-294.54"/>
</g>
<!-- table::borrow_mut -->
<g id="node5" class="node">
<title>table::borrow_mut</title>
<ellipse fill="none" stroke="black" cx="1137" cy="-272" rx="54.69" ry="18"/>
<text text-anchor="middle" x="1137" y="-268.3" font-family="Times,serif" font-size="14.00">borrow_mut</text>
</g>
<!-- is_proposal_resolvable&#45;&gt;table::borrow_mut -->
<g id="edge4" class="edge">
<title>is_proposal_resolvable&#45;&gt;table::borrow_mut</title>
<path fill="none" stroke="black" d="M854.77,-508.89C896.34,-505.75 940.03,-499.49 956,-487 1015.43,-440.54 958.9,-375.88 1018,-329 1037.35,-313.65 1050.19,-330.48 1073,-321 1086.83,-315.25 1100.36,-305.83 1111.39,-296.85"/>
<polygon fill="black" stroke="black" points="1113.53,-299.63 1118.87,-290.48 1108.99,-294.3 1113.53,-299.63"/>
</g>
<!-- from_bcs::to_u64 -->
<g id="node6" class="node">
<title>from_bcs::to_u64</title>
<ellipse fill="none" stroke="black" cx="1073" cy="-438" rx="35.19" ry="18"/>
<text text-anchor="middle" x="1073" y="-434.3" font-family="Times,serif" font-size="14.00">to_u64</text>
</g>
<!-- is_proposal_resolvable&#45;&gt;from_bcs::to_u64 -->
<g id="edge5" class="edge">
<title>is_proposal_resolvable&#45;&gt;from_bcs::to_u64</title>
<path fill="none" stroke="black" d="M854.55,-508.65C914.56,-505.35 987.61,-498.99 1016,-487 1029.09,-481.47 1041.44,-471.85 1051.27,-462.67"/>
<polygon fill="black" stroke="black" points="1053.49,-465.4 1058.15,-455.89 1048.57,-460.42 1053.49,-465.4"/>
</g>
<!-- transaction_context::get_script_hash -->
<g id="node7" class="node">
<title>transaction_context::get_script_hash</title>
<ellipse fill="none" stroke="black" cx="1222" cy="-438" rx="65.79" ry="18"/>
<text text-anchor="middle" x="1222" y="-434.3" font-family="Times,serif" font-size="14.00">get_script_hash</text>
</g>
<!-- is_proposal_resolvable&#45;&gt;transaction_context::get_script_hash -->
<g id="edge6" class="edge">
<title>is_proposal_resolvable&#45;&gt;transaction_context::get_script_hash</title>
<path fill="none" stroke="black" d="M856.7,-511C951.43,-509.07 1092.48,-503.43 1144,-487 1161.23,-481.5 1178.55,-471.42 1192.48,-461.9"/>
<polygon fill="black" stroke="black" points="1194.17,-464.99 1200.3,-456.34 1190.12,-459.28 1194.17,-464.99"/>
</g>
<!-- timestamp::now_seconds -->
<g id="node8" class="node">
<title>timestamp::now_seconds</title>
<ellipse fill="none" stroke="black" cx="821" cy="-189" rx="57.69" ry="18"/>
<text text-anchor="middle" x="821" y="-185.3" font-family="Times,serif" font-size="14.00">now_seconds</text>
</g>
<!-- is_proposal_resolvable&#45;&gt;timestamp::now_seconds -->
<g id="edge7" class="edge">
<title>is_proposal_resolvable&#45;&gt;timestamp::now_seconds</title>
<path fill="none" stroke="black" d="M763.27,-494.6C759.59,-451.24 753.61,-335.43 784,-246 787.63,-235.3 793.82,-224.68 800.11,-215.61"/>
<polygon fill="black" stroke="black" points="802.85,-217.79 805.95,-207.66 797.21,-213.64 802.85,-217.79"/>
</g>
<!-- simple_map::borrow -->
<g id="node9" class="node">
<title>simple_map::borrow</title>
<ellipse fill="none" stroke="black" cx="475" cy="-355" rx="36.29" ry="18"/>
<text text-anchor="middle" x="475" y="-351.3" font-family="Times,serif" font-size="14.00">borrow</text>
</g>
<!-- is_proposal_resolvable&#45;&gt;simple_map::borrow -->
<g id="edge8" class="edge">
<title>is_proposal_resolvable&#45;&gt;simple_map::borrow</title>
<path fill="none" stroke="black" d="M734.51,-495.6C679.89,-466.22 565.74,-404.81 508.8,-374.18"/>
<polygon fill="black" stroke="black" points="510.66,-371.21 500.2,-369.55 507.35,-377.37 510.66,-371.21"/>
</g>
<!-- get_proposal_state -->
<g id="node10" class="node">
<title>get_proposal_state</title>
<ellipse fill="none" stroke="black" cx="870" cy="-438" rx="76.89" ry="18"/>
<text text-anchor="middle" x="870" y="-434.3" font-family="Times,serif" font-size="14.00">get_proposal_state</text>
</g>
<!-- is_proposal_resolvable&#45;&gt;get_proposal_state -->
<g id="edge9" class="edge">
<title>is_proposal_resolvable&#45;&gt;get_proposal_state</title>
<path fill="none" stroke="black" d="M789.09,-495.25C803.33,-485.35 821.56,-472.68 837.11,-461.87"/>
<polygon fill="black" stroke="black" points="838.93,-464.86 845.14,-456.28 834.93,-459.12 838.93,-464.86"/>
</g>
<!-- string::internal_check_utf8 -->
<g id="node11" class="node">
<title>string::internal_check_utf8</title>
<ellipse fill="none" stroke="black" cx="264" cy="-355" rx="81.49" ry="18"/>
<text text-anchor="middle" x="264" y="-351.3" font-family="Times,serif" font-size="14.00">internal_check_utf8</text>
</g>
<!-- string::utf8&#45;&gt;string::internal_check_utf8 -->
<g id="edge10" class="edge">
<title>string::utf8&#45;&gt;string::internal_check_utf8</title>
<path fill="none" stroke="black" d="M285.41,-420.22C281.94,-409.82 277.4,-396.21 273.4,-384.19"/>
<polygon fill="black" stroke="black" points="276.73,-383.14 270.25,-374.76 270.09,-385.35 276.73,-383.14"/>
</g>
<!-- error::canonical -->
<g id="node12" class="node">
<title>error::canonical</title>
<ellipse fill="none" stroke="black" cx="145" cy="-189" rx="44.39" ry="18"/>
<text text-anchor="middle" x="145" y="-185.3" font-family="Times,serif" font-size="14.00">canonical</text>
</g>
<!-- error::invalid_argument&#45;&gt;error::canonical -->
<g id="edge11" class="edge">
<title>error::invalid_argument&#45;&gt;error::canonical</title>
<path fill="none" stroke="black" d="M203.67,-254.22C193.21,-242.77 179.19,-227.42 167.48,-214.6"/>
<polygon fill="black" stroke="black" points="170.16,-212.35 160.83,-207.33 164.99,-217.07 170.16,-212.35"/>
</g>
<!-- error::invalid_state&#45;&gt;error::canonical -->
<g id="edge12" class="edge">
<title>error::invalid_state&#45;&gt;error::canonical</title>
<path fill="none" stroke="black" d="M87.13,-254.22C97.44,-242.77 111.27,-227.42 122.83,-214.6"/>
<polygon fill="black" stroke="black" points="125.28,-217.1 129.38,-207.33 120.08,-212.42 125.28,-217.1"/>
</g>
<!-- table::borrow_box_mut -->
<g id="node13" class="node">
<title>table::borrow_box_mut</title>
<ellipse fill="none" stroke="black" cx="1187" cy="-189" rx="72.29" ry="18"/>
<text text-anchor="middle" x="1187" y="-185.3" font-family="Times,serif" font-size="14.00">borrow_box_mut</text>
</g>
<!-- table::borrow_mut&#45;&gt;table::borrow_box_mut -->
<g id="edge13" class="edge">
<title>table::borrow_mut&#45;&gt;table::borrow_box_mut</title>
<path fill="none" stroke="black" d="M1147.36,-254.22C1154.02,-243.43 1162.82,-229.17 1170.43,-216.84"/>
<polygon fill="black" stroke="black" points="1173.41,-218.68 1175.69,-208.33 1167.46,-215 1173.41,-218.68"/>
</g>
<!-- from_bcs::from_bytes -->
<g id="node14" class="node">
<title>from_bcs::from_bytes</title>
<ellipse fill="none" stroke="black" cx="1081" cy="-355" rx="51.19" ry="18"/>
<text text-anchor="middle" x="1081" y="-351.3" font-family="Times,serif" font-size="14.00">from_bytes</text>
</g>
<!-- from_bcs::to_u64&#45;&gt;from_bcs::from_bytes -->
<g id="edge14" class="edge">
<title>from_bcs::to_u64&#45;&gt;from_bcs::from_bytes</title>
<path fill="none" stroke="black" d="M1074.7,-419.82C1075.71,-409.58 1077.02,-396.33 1078.18,-384.55"/>
<polygon fill="black" stroke="black" points="1081.63,-385.23 1079.13,-374.94 1074.66,-384.55 1081.63,-385.23"/>
</g>
<!-- timestamp::now_microseconds -->
<g id="node15" class="node">
<title>timestamp::now_microseconds</title>
<ellipse fill="none" stroke="black" cx="821" cy="-117" rx="79.09" ry="18"/>
<text text-anchor="middle" x="821" y="-113.3" font-family="Times,serif" font-size="14.00">now_microseconds</text>
</g>
<!-- timestamp::now_seconds&#45;&gt;timestamp::now_microseconds -->
<g id="edge15" class="edge">
<title>timestamp::now_seconds&#45;&gt;timestamp::now_microseconds</title>
<path fill="none" stroke="black" d="M821,-170.7C821,-163.41 821,-154.73 821,-146.54"/>
<polygon fill="black" stroke="black" points="824.5,-146.62 821,-136.62 817.5,-146.62 824.5,-146.62"/>
</g>
<!-- simple_map::borrow&#45;&gt;error::invalid_argument -->
<g id="edge18" class="edge">
<title>simple_map::borrow&#45;&gt;error::invalid_argument</title>
<path fill="none" stroke="black" d="M452.25,-340.67C443.92,-336.33 434.27,-331.88 425,-329 400.57,-321.4 392.93,-326.72 368,-321 334.29,-313.27 297.28,-301.36 268.58,-291.34"/>
<polygon fill="black" stroke="black" points="270.03,-288.14 259.44,-288.11 267.7,-294.74 270.03,-288.14"/>
</g>
<!-- option::extract -->
<g id="node16" class="node">
<title>option::extract</title>
<ellipse fill="none" stroke="black" cx="350" cy="-189" rx="34.39" ry="18"/>
<text text-anchor="middle" x="350" y="-185.3" font-family="Times,serif" font-size="14.00">extract</text>
</g>
<!-- simple_map::borrow&#45;&gt;option::extract -->
<g id="edge16" class="edge">
<title>simple_map::borrow&#45;&gt;option::extract</title>
<path fill="none" stroke="black" d="M454.68,-339.75C447.7,-334.32 440.1,-327.8 434,-321 404.71,-288.38 378.8,-244.48 363.76,-216.7"/>
<polygon fill="black" stroke="black" points="367.04,-215.42 359.25,-208.24 360.86,-218.71 367.04,-215.42"/>
</g>
<!-- option::is_some -->
<g id="node17" class="node">
<title>option::is_some</title>
<ellipse fill="none" stroke="black" cx="586" cy="-117" rx="40.09" ry="18"/>
<text text-anchor="middle" x="586" y="-113.3" font-family="Times,serif" font-size="14.00">is_some</text>
</g>
<!-- simple_map::borrow&#45;&gt;option::is_some -->
<g id="edge17" class="edge">
<title>simple_map::borrow&#45;&gt;option::is_some</title>
<path fill="none" stroke="black" d="M491.11,-338.68C496.22,-333.36 501.67,-327.18 506,-321 527.45,-290.41 513.05,-266.94 544,-246 560.81,-234.63 621.29,-252.97 635,-238 657.51,-213.42 648.41,-193.52 635,-163 631.06,-154.03 624.35,-146.07 617.14,-139.42"/>
<polygon fill="black" stroke="black" points="619.66,-136.97 609.75,-133.23 615.16,-142.33 619.66,-136.97"/>
</g>
<!-- simple_map::find -->
<g id="node18" class="node">
<title>simple_map::find</title>
<ellipse fill="none" stroke="black" cx="470" cy="-272" rx="27" ry="18"/>
<text text-anchor="middle" x="470" y="-268.3" font-family="Times,serif" font-size="14.00">find</text>
</g>
<!-- simple_map::borrow&#45;&gt;simple_map::find -->
<g id="edge19" class="edge">
<title>simple_map::borrow&#45;&gt;simple_map::find</title>
<path fill="none" stroke="black" d="M473.94,-336.82C473.31,-326.69 472.51,-313.6 471.79,-301.92"/>
<polygon fill="black" stroke="black" points="475.28,-301.71 471.17,-291.94 468.29,-302.14 475.28,-301.71"/>
</g>
<!-- table::borrow -->
<g id="node19" class="node">
<title>table::borrow</title>
<ellipse fill="none" stroke="black" cx="1028" cy="-272" rx="36.29" ry="18"/>
<text text-anchor="middle" x="1028" y="-268.3" font-family="Times,serif" font-size="14.00">borrow</text>
</g>
<!-- get_proposal_state&#45;&gt;table::borrow -->
<g id="edge20" class="edge">
<title>get_proposal_state&#45;&gt;table::borrow</title>
<path fill="none" stroke="black" d="M914.43,-422.97C925.25,-418.14 936.22,-411.89 945,-404 973.57,-378.31 967.25,-361.34 988,-329 994.51,-318.85 1002.11,-308 1008.92,-298.58"/>
<polygon fill="black" stroke="black" points="1011.68,-300.72 1014.76,-290.59 1006.03,-296.59 1011.68,-300.72"/>
</g>
<!-- is_voting_closed -->
<g id="node20" class="node">
<title>is_voting_closed</title>
<ellipse fill="none" stroke="black" cx="866" cy="-355" rx="70.39" ry="18"/>
<text text-anchor="middle" x="866" y="-351.3" font-family="Times,serif" font-size="14.00">is_voting_closed</text>
</g>
<!-- get_proposal_state&#45;&gt;is_voting_closed -->
<g id="edge21" class="edge">
<title>get_proposal_state&#45;&gt;is_voting_closed</title>
<path fill="none" stroke="black" d="M869.15,-419.82C868.65,-409.69 868,-396.6 867.43,-384.92"/>
<polygon fill="black" stroke="black" points="870.92,-384.76 866.94,-374.94 863.93,-385.1 870.92,-384.76"/>
</g>
<!-- option::extract&#45;&gt;option::is_some -->
<g id="edge22" class="edge">
<title>option::extract&#45;&gt;option::is_some</title>
<path fill="none" stroke="black" d="M370.8,-174.23C377.65,-170.16 385.46,-165.99 393,-163 440.15,-144.28 497.01,-132.2 536.76,-125.32"/>
<polygon fill="black" stroke="black" points="537.22,-128.79 546.51,-123.68 536.07,-121.88 537.22,-128.79"/>
</g>
<!-- vector::is_empty -->
<g id="node21" class="node">
<title>vector::is_empty</title>
<ellipse fill="none" stroke="black" cx="573" cy="-34" rx="43.59" ry="18"/>
<text text-anchor="middle" x="573" y="-30.3" font-family="Times,serif" font-size="14.00">is_empty</text>
</g>
<!-- option::is_some&#45;&gt;vector::is_empty -->
<g id="edge23" class="edge">
<title>option::is_some&#45;&gt;vector::is_empty</title>
<path fill="none" stroke="black" d="M583.24,-98.82C581.6,-88.58 579.47,-75.33 577.58,-63.55"/>
<polygon fill="black" stroke="black" points="581.08,-63.25 576.04,-53.93 574.17,-64.36 581.08,-63.25"/>
</g>
<!-- option::none -->
<g id="node22" class="node">
<title>option::none</title>
<ellipse fill="none" stroke="black" cx="508" cy="-189" rx="27.9" ry="18"/>
<text text-anchor="middle" x="508" y="-185.3" font-family="Times,serif" font-size="14.00">none</text>
</g>
<!-- simple_map::find&#45;&gt;option::none -->
<g id="edge24" class="edge">
<title>simple_map::find&#45;&gt;option::none</title>
<path fill="none" stroke="black" d="M477.69,-254.61C482.76,-243.81 489.51,-229.42 495.35,-216.96"/>
<polygon fill="black" stroke="black" points="498.47,-218.56 499.55,-208.02 492.13,-215.58 498.47,-218.56"/>
</g>
<!-- option::some -->
<g id="node23" class="node">
<title>option::some</title>
<ellipse fill="none" stroke="black" cx="432" cy="-189" rx="29.8" ry="18"/>
<text text-anchor="middle" x="432" y="-185.3" font-family="Times,serif" font-size="14.00">some</text>
</g>
<!-- simple_map::find&#45;&gt;option::some -->
<g id="edge25" class="edge">
<title>simple_map::find&#45;&gt;option::some</title>
<path fill="none" stroke="black" d="M462.31,-254.61C457.24,-243.81 450.49,-229.42 444.65,-216.96"/>
<polygon fill="black" stroke="black" points="447.87,-215.58 440.45,-208.02 441.53,-218.56 447.87,-215.58"/>
</g>
<!-- table::borrow_box -->
<g id="node24" class="node">
<title>table::borrow_box</title>
<ellipse fill="none" stroke="black" cx="1043" cy="-189" rx="53.89" ry="18"/>
<text text-anchor="middle" x="1043" y="-185.3" font-family="Times,serif" font-size="14.00">borrow_box</text>
</g>
<!-- table::borrow&#45;&gt;table::borrow_box -->
<g id="edge26" class="edge">
<title>table::borrow&#45;&gt;table::borrow_box</title>
<path fill="none" stroke="black" d="M1031.18,-253.82C1033.08,-243.58 1035.53,-230.33 1037.71,-218.55"/>
<polygon fill="black" stroke="black" points="1041.12,-219.39 1039.5,-208.92 1034.23,-218.12 1041.12,-219.39"/>
</g>
<!-- is_voting_closed&#45;&gt;table::borrow_mut -->
<g id="edge27" class="edge">
<title>is_voting_closed&#45;&gt;table::borrow_mut</title>
<path fill="none" stroke="black" d="M917.13,-342.24C938.88,-337.57 964.58,-332.49 988,-329 1025.53,-323.41 1037.6,-334.67 1073,-321 1087.07,-315.56 1100.72,-306.1 1111.77,-297.01"/>
<polygon fill="black" stroke="black" points="1113.98,-299.73 1119.25,-290.54 1109.4,-294.43 1113.98,-299.73"/>
</g>
<!-- can_be_resolved_early -->
<g id="node25" class="node">
<title>can_be_resolved_early</title>
<ellipse fill="none" stroke="black" cx="645" cy="-272" rx="91.78" ry="18"/>
<text text-anchor="middle" x="645" y="-268.3" font-family="Times,serif" font-size="14.00">can_be_resolved_early</text>
</g>
<!-- is_voting_closed&#45;&gt;can_be_resolved_early -->
<g id="edge28" class="edge">
<title>is_voting_closed&#45;&gt;can_be_resolved_early</title>
<path fill="none" stroke="black" d="M826.74,-339.61C790.8,-326.44 737.33,-306.84 697.69,-292.31"/>
<polygon fill="black" stroke="black" points="698.91,-289.03 688.32,-288.88 696.5,-295.6 698.91,-289.03"/>
</g>
<!-- is_voting_period_over -->
<g id="node26" class="node">
<title>is_voting_period_over</title>
<ellipse fill="none" stroke="black" cx="883" cy="-272" rx="90.18" ry="18"/>
<text text-anchor="middle" x="883" y="-268.3" font-family="Times,serif" font-size="14.00">is_voting_period_over</text>
</g>
<!-- is_voting_closed&#45;&gt;is_voting_period_over -->
<g id="edge29" class="edge">
<title>is_voting_closed&#45;&gt;is_voting_period_over</title>
<path fill="none" stroke="black" d="M869.61,-336.82C871.75,-326.58 874.54,-313.33 877.01,-301.55"/>
<polygon fill="black" stroke="black" points="880.4,-302.42 879.03,-291.91 873.55,-300.98 880.4,-302.42"/>
</g>
<!-- vector::singleton -->
<g id="node27" class="node">
<title>vector::singleton</title>
<ellipse fill="none" stroke="black" cx="469" cy="-34" rx="42.79" ry="18"/>
<text text-anchor="middle" x="469" y="-30.3" font-family="Times,serif" font-size="14.00">singleton</text>
</g>
<!-- option::some&#45;&gt;vector::singleton -->
<g id="edge30" class="edge">
<title>option::some&#45;&gt;vector::singleton</title>
<path fill="none" stroke="black" d="M436.17,-170.75C442.51,-144.55 454.62,-94.48 462.23,-63.02"/>
<polygon fill="black" stroke="black" points="465.59,-63.97 464.54,-53.43 458.79,-62.33 465.59,-63.97"/>
</g>
<!-- can_be_resolved_early&#45;&gt;option::is_some -->
<g id="edge32" class="edge">
<title>can_be_resolved_early&#45;&gt;option::is_some</title>
<path fill="none" stroke="black" d="M659.82,-253.91C663.16,-249.07 666.24,-243.6 668,-238 677.99,-206.2 684.98,-191.69 668,-163 659.46,-148.58 644.49,-138.47 629.65,-131.55"/>
<polygon fill="black" stroke="black" points="631.45,-128.51 620.87,-127.83 628.72,-134.95 631.45,-128.51"/>
</g>
<!-- option::borrow -->
<g id="node28" class="node">
<title>option::borrow</title>
<ellipse fill="none" stroke="black" cx="590" cy="-189" rx="36.29" ry="18"/>
<text text-anchor="middle" x="590" y="-185.3" font-family="Times,serif" font-size="14.00">borrow</text>
</g>
<!-- can_be_resolved_early&#45;&gt;option::borrow -->
<g id="edge31" class="edge">
<title>can_be_resolved_early&#45;&gt;option::borrow</title>
<path fill="none" stroke="black" d="M633.34,-253.82C625.87,-242.83 616.05,-228.36 607.64,-215.98"/>
<polygon fill="black" stroke="black" points="610.63,-214.16 602.12,-207.85 604.84,-218.09 610.63,-214.16"/>
</g>
<!-- is_voting_period_over&#45;&gt;timestamp::now_seconds -->
<g id="edge33" class="edge">
<title>is_voting_period_over&#45;&gt;timestamp::now_seconds</title>
<path fill="none" stroke="black" d="M869.85,-253.82C861.41,-242.79 850.29,-228.27 840.79,-215.86"/>
<polygon fill="black" stroke="black" points="843.69,-213.89 834.84,-208.08 838.14,-218.15 843.69,-213.89"/>
</g>
<!-- option::borrow&#45;&gt;option::is_some -->
<g id="edge34" class="edge">
<title>option::borrow&#45;&gt;option::is_some</title>
<path fill="none" stroke="black" d="M589.01,-170.7C588.59,-163.41 588.1,-154.73 587.63,-146.54"/>
<polygon fill="black" stroke="black" points="591.13,-146.4 587.06,-136.62 584.14,-146.8 591.13,-146.4"/>
</g>
</g>
</svg>
