<?xml version="1.0" encoding="UTF-8" standalone="no"?>
<!DOCTYPE svg PUBLIC "-//W3C//DTD SVG 1.1//EN"
 "http://www.w3.org/Graphics/SVG/1.1/DTD/svg11.dtd">
<!-- Generated by graphviz version 7.0.4 (20221203.1631)
 -->
<!-- Title: G Pages: 1 -->
<svg width="242pt" height="310pt"
 viewBox="0.00 0.00 242.00 310.00" xmlns="http://www.w3.org/2000/svg" xmlns:xlink="http://www.w3.org/1999/xlink">
<g id="graph0" class="graph" transform="scale(1 1) rotate(0) translate(4 306)">
<title>G</title>
<polygon fill="white" stroke="none" points="-4,4 -4,-306 238,-306 238,4 -4,4"/>
<g id="clust1" class="cluster">
<title>cluster_aptos_governance</title>
<polygon fill="none" stroke="black" points="8,-64 8,-211 226,-211 226,-64 8,-64"/>
<text text-anchor="middle" x="117" y="-195.8" font-family="Times,serif" font-size="14.00">aptos_governance</text>
</g>
<g id="clust2" class="cluster">
<title>cluster_genesis</title>
<polygon fill="none" stroke="black" points="8,-219 8,-294 226,-294 226,-219 8,-219"/>
<text text-anchor="middle" x="117" y="-278.8" font-family="Times,serif" font-size="14.00">genesis</text>
</g>
<!-- register -->
<g id="node1" class="node">
<title>register</title>
<ellipse fill="none" stroke="black" cx="117" cy="-18" rx="37.09" ry="18"/>
<text text-anchor="middle" x="117" y="-14.3" font-family="Times,serif" font-size="14.00">register</text>
</g>
<!-- aptos_governance::initialize -->
<g id="node2" class="node">
<title>aptos_governance::initialize</title>
<ellipse fill="none" stroke="black" cx="117" cy="-90" rx="41.69" ry="18"/>
<text text-anchor="middle" x="117" y="-86.3" font-family="Times,serif" font-size="14.00">initialize</text>
</g>
<!-- aptos_governance::initialize&#45;&gt;register -->
<g id="edge1" class="edge">
<title>aptos_governance::initialize&#45;&gt;register</title>
<path fill="none" stroke="black" d="M117,-71.7C117,-64.41 117,-55.73 117,-47.54"/>
<polygon fill="black" stroke="black" points="120.5,-47.62 117,-37.62 113.5,-47.62 120.5,-47.62"/>
</g>
<!-- aptos_governance::initialize_for_verification -->
<g id="node3" class="node">
<title>aptos_governance::initialize_for_verification</title>
<ellipse fill="none" stroke="black" cx="117" cy="-162" rx="100.98" ry="18"/>
<text text-anchor="middle" x="117" y="-158.3" font-family="Times,serif" font-size="14.00">initialize_for_verification</text>
</g>
<!-- aptos_governance::initialize_for_verification&#45;&gt;aptos_governance::initialize -->
<g id="edge2" class="edge">
<title>aptos_governance::initialize_for_verification&#45;&gt;aptos_governance::initialize</title>
<path fill="none" stroke="black" d="M117,-143.7C117,-136.41 117,-127.73 117,-119.54"/>
<polygon fill="black" stroke="black" points="120.5,-119.62 117,-109.62 113.5,-119.62 120.5,-119.62"/>
</g>
<!-- genesis::initialize_for_verification -->
<g id="node4" class="node">
<title>genesis::initialize_for_verification</title>
<ellipse fill="none" stroke="black" cx="117" cy="-245" rx="100.98" ry="18"/>
<text text-anchor="middle" x="117" y="-241.3" font-family="Times,serif" font-size="14.00">initialize_for_verification</text>
</g>
<!-- genesis::initialize_for_verification&#45;&gt;aptos_governance::initialize_for_verification -->
<g id="edge3" class="edge">
<title>genesis::initialize_for_verification&#45;&gt;aptos_governance::initialize_for_verification</title>
<path fill="none" stroke="black" d="M117,-226.82C117,-216.69 117,-203.6 117,-191.92"/>
<polygon fill="black" stroke="black" points="120.5,-191.95 117,-181.95 113.5,-191.95 120.5,-191.95"/>
</g>
</g>
</svg>
