<?xml version="1.0" encoding="UTF-8" standalone="no"?>
<!DOCTYPE svg PUBLIC "-//W3C//DTD SVG 1.1//EN"
 "http://www.w3.org/Graphics/SVG/1.1/DTD/svg11.dtd">
<!-- Generated by graphviz version 7.0.4 (20221203.1631)
 -->
<!-- Title: G Pages: 1 -->
<svg width="965pt" height="448pt"
 viewBox="0.00 0.00 965.39 448.00" xmlns="http://www.w3.org/2000/svg" xmlns:xlink="http://www.w3.org/1999/xlink">
<g id="graph0" class="graph" transform="scale(1 1) rotate(0) translate(4 444)">
<title>G</title>
<polygon fill="white" stroke="none" points="-4,4 -4,-444 961.39,-444 961.39,4 -4,4"/>
<g id="clust1" class="cluster">
<title>cluster_string</title>
<polygon fill="none" stroke="black" points="8,-246 8,-396 186,-396 186,-246 8,-246"/>
<text text-anchor="middle" x="97" y="-380.8" font-family="Times,serif" font-size="14.00">string</text>
</g>
<g id="clust2" class="cluster">
<title>cluster_error</title>
<polygon fill="none" stroke="black" points="488,-163 488,-321 650,-321 650,-163 488,-163"/>
<text text-anchor="middle" x="569" y="-305.8" font-family="Times,serif" font-size="14.00">error</text>
</g>
<g id="clust3" class="cluster">
<title>cluster_table</title>
<polygon fill="none" stroke="black" points="194,-246 194,-396 354,-396 354,-246 194,-246"/>
<text text-anchor="middle" x="274" y="-380.8" font-family="Times,serif" font-size="14.00">table</text>
</g>
<g id="clust4" class="cluster">
<title>cluster_from_bcs</title>
<polygon fill="none" stroke="black" points="362,-246 362,-396 480,-396 480,-246 362,-246"/>
<text text-anchor="middle" x="421" y="-380.8" font-family="Times,serif" font-size="14.00">from_bcs</text>
</g>
<g id="clust5" class="cluster">
<title>cluster_simple_map</title>
<polygon fill="none" stroke="black" points="687,-246 687,-396 908,-396 908,-246 687,-246"/>
<text text-anchor="middle" x="797.5" y="-380.8" font-family="Times,serif" font-size="14.00">simple_map</text>
</g>
<g id="clust6" class="cluster">
<title>cluster_option</title>
<polygon fill="none" stroke="black" points="658,-91 658,-238 894,-238 894,-91 658,-91"/>
<text text-anchor="middle" x="776" y="-222.8" font-family="Times,serif" font-size="14.00">option</text>
</g>
<g id="clust7" class="cluster">
<title>cluster_vector</title>
<polygon fill="none" stroke="black" points="679,-8 679,-83 886,-83 886,-8 679,-8"/>
<text text-anchor="middle" x="782.5" y="-67.8" font-family="Times,serif" font-size="14.00">vector</text>
</g>
<!-- is_multi_step_proposal_in_execution -->
<g id="node1" class="node">
<title>is_multi_step_proposal_in_execution</title>
<ellipse fill="none" stroke="black" cx="483" cy="-422" rx="142.97" ry="18"/>
<text text-anchor="middle" x="483" y="-418.3" font-family="Times,serif" font-size="14.00">is_multi_step_proposal_in_execution</text>
</g>
<!-- string::utf8 -->
<g id="node2" class="node">
<title>string::utf8</title>
<ellipse fill="none" stroke="black" cx="124" cy="-347" rx="27" ry="18"/>
<text text-anchor="middle" x="124" y="-343.3" font-family="Times,serif" font-size="14.00">utf8</text>
</g>
<!-- is_multi_step_proposal_in_execution&#45;&gt;string::utf8 -->
<g id="edge1" class="edge">
<title>is_multi_step_proposal_in_execution&#45;&gt;string::utf8</title>
<path fill="none" stroke="black" d="M346.7,-416.37C284.6,-412.84 218.64,-406.68 190,-396 174.34,-390.16 159.11,-379.51 147.22,-369.73"/>
<polygon fill="black" stroke="black" points="149.85,-367.37 139.99,-363.5 145.28,-372.67 149.85,-367.37"/>
</g>
<!-- error::invalid_argument -->
<g id="node3" class="node">
<title>error::invalid_argument</title>
<ellipse fill="none" stroke="black" cx="569" cy="-272" rx="73.39" ry="18"/>
<text text-anchor="middle" x="569" y="-268.3" font-family="Times,serif" font-size="14.00">invalid_argument</text>
</g>
<!-- is_multi_step_proposal_in_execution&#45;&gt;error::invalid_argument -->
<g id="edge2" class="edge">
<title>is_multi_step_proposal_in_execution&#45;&gt;error::invalid_argument</title>
<path fill="none" stroke="black" d="M493.03,-403.73C507.86,-378.22 535.74,-330.23 553.29,-300.03"/>
<polygon fill="black" stroke="black" points="556.27,-301.87 558.27,-291.47 550.22,-298.35 556.27,-301.87"/>
</g>
<!-- table::borrow_mut -->
<g id="node4" class="node">
<title>table::borrow_mut</title>
<ellipse fill="none" stroke="black" cx="282" cy="-347" rx="54.69" ry="18"/>
<text text-anchor="middle" x="282" y="-343.3" font-family="Times,serif" font-size="14.00">borrow_mut</text>
</g>
<!-- is_multi_step_proposal_in_execution&#45;&gt;table::borrow_mut -->
<g id="edge3" class="edge">
<title>is_multi_step_proposal_in_execution&#45;&gt;table::borrow_mut</title>
<path fill="none" stroke="black" d="M394.4,-407.49C381.96,-404.39 369.51,-400.6 358,-396 341.91,-389.57 325.48,-379.68 312.03,-370.55"/>
<polygon fill="black" stroke="black" points="314.25,-367.83 304.05,-364.97 310.23,-373.57 314.25,-367.83"/>
</g>
<!-- from_bcs::to_bool -->
<g id="node5" class="node">
<title>from_bcs::to_bool</title>
<ellipse fill="none" stroke="black" cx="427" cy="-347" rx="37.89" ry="18"/>
<text text-anchor="middle" x="427" y="-343.3" font-family="Times,serif" font-size="14.00">to_bool</text>
</g>
<!-- is_multi_step_proposal_in_execution&#45;&gt;from_bcs::to_bool -->
<g id="edge4" class="edge">
<title>is_multi_step_proposal_in_execution&#45;&gt;from_bcs::to_bool</title>
<path fill="none" stroke="black" d="M469.73,-403.7C462.77,-394.63 454.11,-383.34 446.41,-373.3"/>
<polygon fill="black" stroke="black" points="449.19,-371.18 440.33,-365.38 443.64,-375.44 449.19,-371.18"/>
</g>
<!-- simple_map::borrow -->
<g id="node6" class="node">
<title>simple_map::borrow</title>
<ellipse fill="none" stroke="black" cx="731" cy="-347" rx="36.29" ry="18"/>
<text text-anchor="middle" x="731" y="-343.3" font-family="Times,serif" font-size="14.00">borrow</text>
</g>
<!-- is_multi_step_proposal_in_execution&#45;&gt;simple_map::borrow -->
<g id="edge5" class="edge">
<title>is_multi_step_proposal_in_execution&#45;&gt;simple_map::borrow</title>
<path fill="none" stroke="black" d="M537.42,-404.98C583.27,-391.49 647.87,-372.47 689.59,-360.19"/>
<polygon fill="black" stroke="black" points="690.4,-363.6 699.01,-357.42 688.43,-356.88 690.4,-363.6"/>
</g>
<!-- simple_map::contains_key -->
<g id="node7" class="node">
<title>simple_map::contains_key</title>
<ellipse fill="none" stroke="black" cx="843" cy="-347" rx="57.39" ry="18"/>
<text text-anchor="middle" x="843" y="-343.3" font-family="Times,serif" font-size="14.00">contains_key</text>
</g>
<!-- is_multi_step_proposal_in_execution&#45;&gt;simple_map::contains_key -->
<g id="edge6" class="edge">
<title>is_multi_step_proposal_in_execution&#45;&gt;simple_map::contains_key</title>
<path fill="none" stroke="black" d="M619.27,-416.28C681.36,-412.73 747.32,-406.58 776,-396 790.72,-390.57 805.13,-380.98 816.79,-371.79"/>
<polygon fill="black" stroke="black" points="818.85,-374.63 824.33,-365.56 814.39,-369.23 818.85,-374.63"/>
</g>
<!-- string::internal_check_utf8 -->
<g id="node8" class="node">
<title>string::internal_check_utf8</title>
<ellipse fill="none" stroke="black" cx="97" cy="-272" rx="81.49" ry="18"/>
<text text-anchor="middle" x="97" y="-268.3" font-family="Times,serif" font-size="14.00">internal_check_utf8</text>
</g>
<!-- string::utf8&#45;&gt;string::internal_check_utf8 -->
<g id="edge7" class="edge">
<title>string::utf8&#45;&gt;string::internal_check_utf8</title>
<path fill="none" stroke="black" d="M117.74,-329.07C114.65,-320.71 110.84,-310.42 107.33,-300.94"/>
<polygon fill="black" stroke="black" points="110.69,-299.93 103.94,-291.77 104.13,-302.36 110.69,-299.93"/>
</g>
<!-- error::canonical -->
<g id="node9" class="node">
<title>error::canonical</title>
<ellipse fill="none" stroke="black" cx="569" cy="-189" rx="44.39" ry="18"/>
<text text-anchor="middle" x="569" y="-185.3" font-family="Times,serif" font-size="14.00">canonical</text>
</g>
<!-- error::invalid_argument&#45;&gt;error::canonical -->
<g id="edge8" class="edge">
<title>error::invalid_argument&#45;&gt;error::canonical</title>
<path fill="none" stroke="black" d="M569,-253.82C569,-243.69 569,-230.6 569,-218.92"/>
<polygon fill="black" stroke="black" points="572.5,-218.95 569,-208.95 565.5,-218.95 572.5,-218.95"/>
</g>
<!-- table::borrow_box_mut -->
<g id="node10" class="node">
<title>table::borrow_box_mut</title>
<ellipse fill="none" stroke="black" cx="274" cy="-272" rx="72.29" ry="18"/>
<text text-anchor="middle" x="274" y="-268.3" font-family="Times,serif" font-size="14.00">borrow_box_mut</text>
</g>
<!-- table::borrow_mut&#45;&gt;table::borrow_box_mut -->
<g id="edge9" class="edge">
<title>table::borrow_mut&#45;&gt;table::borrow_box_mut</title>
<path fill="none" stroke="black" d="M280.1,-328.7C279.22,-320.67 278.15,-310.9 277.16,-301.8"/>
<polygon fill="black" stroke="black" points="280.64,-301.49 276.07,-291.93 273.69,-302.26 280.64,-301.49"/>
</g>
<!-- from_bcs::from_bytes -->
<g id="node11" class="node">
<title>from_bcs::from_bytes</title>
<ellipse fill="none" stroke="black" cx="421" cy="-272" rx="51.19" ry="18"/>
<text text-anchor="middle" x="421" y="-268.3" font-family="Times,serif" font-size="14.00">from_bytes</text>
</g>
<!-- from_bcs::to_bool&#45;&gt;from_bcs::from_bytes -->
<g id="edge10" class="edge">
<title>from_bcs::to_bool&#45;&gt;from_bcs::from_bytes</title>
<path fill="none" stroke="black" d="M425.58,-328.7C424.92,-320.67 424.12,-310.9 423.37,-301.8"/>
<polygon fill="black" stroke="black" points="426.86,-301.62 422.56,-291.94 419.89,-302.19 426.86,-301.62"/>
</g>
<!-- simple_map::borrow&#45;&gt;error::invalid_argument -->
<g id="edge13" class="edge">
<title>simple_map::borrow&#45;&gt;error::invalid_argument</title>
<path fill="none" stroke="black" d="M704.61,-334.11C679.94,-322.99 642.61,-306.17 613.36,-292.99"/>
<polygon fill="black" stroke="black" points="614.92,-289.85 604.36,-288.94 612.04,-296.24 614.92,-289.85"/>
</g>
<!-- option::extract -->
<g id="node12" class="node">
<title>option::extract</title>
<ellipse fill="none" stroke="black" cx="852" cy="-189" rx="34.39" ry="18"/>
<text text-anchor="middle" x="852" y="-185.3" font-family="Times,serif" font-size="14.00">extract</text>
</g>
<!-- simple_map::borrow&#45;&gt;option::extract -->
<g id="edge11" class="edge">
<title>simple_map::borrow&#45;&gt;option::extract</title>
<path fill="none" stroke="black" d="M759.41,-335.5C767.04,-331.75 774.86,-326.94 781,-321 811.36,-291.62 831.88,-246.41 842.76,-217.53"/>
<polygon fill="black" stroke="black" points="845.96,-218.98 846.07,-208.38 839.37,-216.6 845.96,-218.98"/>
</g>
<!-- option::is_some -->
<g id="node13" class="node">
<title>option::is_some</title>
<ellipse fill="none" stroke="black" cx="846" cy="-117" rx="40.09" ry="18"/>
<text text-anchor="middle" x="846" y="-113.3" font-family="Times,serif" font-size="14.00">is_some</text>
</g>
<!-- simple_map::borrow&#45;&gt;option::is_some -->
<g id="edge12" class="edge">
<title>simple_map::borrow&#45;&gt;option::is_some</title>
<path fill="none" stroke="black" d="M758.49,-335C764.53,-332.82 770.93,-330.69 777,-329 795.31,-323.91 802.4,-330.26 819,-321 862.68,-296.63 876.88,-284.62 895,-238 907.08,-206.93 908.41,-193.52 895,-163 891.06,-154.03 884.35,-146.07 877.14,-139.42"/>
<polygon fill="black" stroke="black" points="879.66,-136.97 869.75,-133.23 875.16,-142.33 879.66,-136.97"/>
</g>
<!-- simple_map::find -->
<g id="node14" class="node">
<title>simple_map::find</title>
<ellipse fill="none" stroke="black" cx="745" cy="-272" rx="27" ry="18"/>
<text text-anchor="middle" x="745" y="-268.3" font-family="Times,serif" font-size="14.00">find</text>
</g>
<!-- simple_map::borrow&#45;&gt;simple_map::find -->
<g id="edge14" class="edge">
<title>simple_map::borrow&#45;&gt;simple_map::find</title>
<path fill="none" stroke="black" d="M734.32,-328.7C735.89,-320.52 737.8,-310.54 739.57,-301.29"/>
<polygon fill="black" stroke="black" points="742.97,-302.14 741.42,-291.66 736.1,-300.82 742.97,-302.14"/>
</g>
<!-- simple_map::contains_key&#45;&gt;option::is_some -->
<g id="edge15" class="edge">
<title>simple_map::contains_key&#45;&gt;option::is_some</title>
<path fill="none" stroke="black" d="M897.39,-340.91C909.29,-337.14 920.54,-330.98 928,-321 970.07,-264.77 963.77,-223.43 928,-163 919.46,-148.58 904.49,-138.47 889.65,-131.55"/>
<polygon fill="black" stroke="black" points="891.45,-128.51 880.87,-127.83 888.72,-134.95 891.45,-128.51"/>
</g>
<!-- simple_map::contains_key&#45;&gt;simple_map::find -->
<g id="edge16" class="edge">
<title>simple_map::contains_key&#45;&gt;simple_map::find</title>
<path fill="none" stroke="black" d="M821.74,-330.16C807.1,-319.26 787.53,-304.68 771.83,-292.98"/>
<polygon fill="black" stroke="black" points="773.95,-290.2 763.84,-287.03 769.76,-295.81 773.95,-290.2"/>
</g>
<!-- option::extract&#45;&gt;option::is_some -->
<g id="edge17" class="edge">
<title>option::extract&#45;&gt;option::is_some</title>
<path fill="none" stroke="black" d="M850.52,-170.7C849.89,-163.41 849.15,-154.73 848.45,-146.54"/>
<polygon fill="black" stroke="black" points="851.94,-146.28 847.6,-136.61 844.96,-146.87 851.94,-146.28"/>
</g>
<!-- vector::is_empty -->
<g id="node15" class="node">
<title>vector::is_empty</title>
<ellipse fill="none" stroke="black" cx="834" cy="-34" rx="43.59" ry="18"/>
<text text-anchor="middle" x="834" y="-30.3" font-family="Times,serif" font-size="14.00">is_empty</text>
</g>
<!-- option::is_some&#45;&gt;vector::is_empty -->
<g id="edge18" class="edge">
<title>option::is_some&#45;&gt;vector::is_empty</title>
<path fill="none" stroke="black" d="M843.46,-98.82C841.94,-88.58 839.97,-75.33 838.23,-63.55"/>
<polygon fill="black" stroke="black" points="841.73,-63.31 836.8,-53.93 834.81,-64.33 841.73,-63.31"/>
</g>
<!-- option::none -->
<g id="node16" class="node">
<title>option::none</title>
<ellipse fill="none" stroke="black" cx="772" cy="-189" rx="27.9" ry="18"/>
<text text-anchor="middle" x="772" y="-185.3" font-family="Times,serif" font-size="14.00">none</text>
</g>
<!-- simple_map::find&#45;&gt;option::none -->
<g id="edge19" class="edge">
<title>simple_map::find&#45;&gt;option::none</title>
<path fill="none" stroke="black" d="M750.59,-254.22C754.08,-243.75 758.66,-230.03 762.68,-217.95"/>
<polygon fill="black" stroke="black" points="766,-219.07 765.84,-208.48 759.36,-216.86 766,-219.07"/>
</g>
<!-- option::some -->
<g id="node17" class="node">
<title>option::some</title>
<ellipse fill="none" stroke="black" cx="696" cy="-189" rx="29.8" ry="18"/>
<text text-anchor="middle" x="696" y="-185.3" font-family="Times,serif" font-size="14.00">some</text>
</g>
<!-- simple_map::find&#45;&gt;option::some -->
<g id="edge20" class="edge">
<title>simple_map::find&#45;&gt;option::some</title>
<path fill="none" stroke="black" d="M735.32,-255C728.58,-243.86 719.46,-228.78 711.69,-215.94"/>
<polygon fill="black" stroke="black" points="714.78,-214.29 706.61,-207.54 708.79,-217.91 714.78,-214.29"/>
</g>
<!-- vector::singleton -->
<g id="node18" class="node">
<title>vector::singleton</title>
<ellipse fill="none" stroke="black" cx="730" cy="-34" rx="42.79" ry="18"/>
<text text-anchor="middle" x="730" y="-30.3" font-family="Times,serif" font-size="14.00">singleton</text>
</g>
<!-- option::some&#45;&gt;vector::singleton -->
<g id="edge21" class="edge">
<title>option::some&#45;&gt;vector::singleton</title>
<path fill="none" stroke="black" d="M699.83,-170.75C705.62,-144.69 716.67,-95.01 723.66,-63.52"/>
<polygon fill="black" stroke="black" points="727.05,-64.42 725.8,-53.9 720.21,-62.91 727.05,-64.42"/>
</g>
</g>
</svg>
