<?xml version="1.0" encoding="UTF-8" standalone="no"?>
<!DOCTYPE svg PUBLIC "-//W3C//DTD SVG 1.1//EN"
 "http://www.w3.org/Graphics/SVG/1.1/DTD/svg11.dtd">
<!-- Generated by graphviz version 7.0.4 (20221203.1631)
 -->
<!-- Title: G Pages: 1 -->
<svg width="198pt" height="207pt"
 viewBox="0.00 0.00 198.00 207.00" xmlns="http://www.w3.org/2000/svg" xmlns:xlink="http://www.w3.org/1999/xlink">
<g id="graph0" class="graph" transform="scale(1 1) rotate(0) translate(4 203)">
<title>G</title>
<polygon fill="white" stroke="none" points="-4,4 -4,-203 194,-203 194,4 -4,4"/>
<g id="clust1" class="cluster">
<title>cluster_timestamp</title>
<polygon fill="none" stroke="black" points="8,-8 8,-155 182,-155 182,-8 8,-8"/>
<text text-anchor="middle" x="95" y="-139.8" font-family="Times,serif" font-size="14.00">timestamp</text>
</g>
<!-- is_voting_period_over -->
<g id="node1" class="node">
<title>is_voting_period_over</title>
<ellipse fill="none" stroke="black" cx="95" cy="-181" rx="90.18" ry="18"/>
<text text-anchor="middle" x="95" y="-177.3" font-family="Times,serif" font-size="14.00">is_voting_period_over</text>
</g>
<!-- timestamp::now_seconds -->
<g id="node2" class="node">
<title>timestamp::now_seconds</title>
<ellipse fill="none" stroke="black" cx="95" cy="-106" rx="57.69" ry="18"/>
<text text-anchor="middle" x="95" y="-102.3" font-family="Times,serif" font-size="14.00">now_seconds</text>
</g>
<!-- is_voting_period_over&#45;&gt;timestamp::now_seconds -->
<g id="edge1" class="edge">
<title>is_voting_period_over&#45;&gt;timestamp::now_seconds</title>
<path fill="none" stroke="black" d="M95,-162.7C95,-154.67 95,-144.9 95,-135.8"/>
<polygon fill="black" stroke="black" points="98.5,-135.94 95,-125.94 91.5,-135.94 98.5,-135.94"/>
</g>
<!-- timestamp::now_microseconds -->
<g id="node3" class="node">
<title>timestamp::now_microseconds</title>
<ellipse fill="none" stroke="black" cx="95" cy="-34" rx="79.09" ry="18"/>
<text text-anchor="middle" x="95" y="-30.3" font-family="Times,serif" font-size="14.00">now_microseconds</text>
</g>
<!-- timestamp::now_seconds&#45;&gt;timestamp::now_microseconds -->
<g id="edge2" class="edge">
<title>timestamp::now_seconds&#45;&gt;timestamp::now_microseconds</title>
<path fill="none" stroke="black" d="M95,-87.7C95,-80.41 95,-71.73 95,-63.54"/>
<polygon fill="black" stroke="black" points="98.5,-63.62 95,-53.62 91.5,-63.62 98.5,-63.62"/>
</g>
</g>
</svg>
