<?xml version="1.0" encoding="UTF-8" standalone="no"?>
<!DOCTYPE svg PUBLIC "-//W3C//DTD SVG 1.1//EN"
 "http://www.w3.org/Graphics/SVG/1.1/DTD/svg11.dtd">
<!-- Generated by graphviz version 7.0.4 (20221203.1631)
 -->
<!-- Title: G Pages: 1 -->
<svg width="697pt" height="437pt"
 viewBox="0.00 0.00 697.00 437.00" xmlns="http://www.w3.org/2000/svg" xmlns:xlink="http://www.w3.org/1999/xlink">
<g id="graph0" class="graph" transform="scale(1 1) rotate(0) translate(4 433)">
<title>G</title>
<polygon fill="white" stroke="none" points="-4,4 -4,-433 693,-433 693,4 -4,4"/>
<g id="clust1" class="cluster">
<title>cluster_table</title>
<polygon fill="none" stroke="black" points="8,-163 8,-313 294,-313 294,-163 8,-163"/>
<text text-anchor="middle" x="151" y="-297.8" font-family="Times,serif" font-size="14.00">table</text>
</g>
<g id="clust2" class="cluster">
<title>cluster_option</title>
<polygon fill="none" stroke="black" points="325,-91 325,-238 421,-238 421,-91 325,-91"/>
<text text-anchor="middle" x="373" y="-222.8" font-family="Times,serif" font-size="14.00">option</text>
</g>
<g id="clust3" class="cluster">
<title>cluster_timestamp</title>
<polygon fill="none" stroke="black" points="507,-91 507,-238 681,-238 681,-91 507,-91"/>
<text text-anchor="middle" x="594" y="-222.8" font-family="Times,serif" font-size="14.00">timestamp</text>
</g>
<g id="clust4" class="cluster">
<title>cluster_vector</title>
<polygon fill="none" stroke="black" points="321,-8 321,-83 425,-83 425,-8 321,-8"/>
<text text-anchor="middle" x="373" y="-67.8" font-family="Times,serif" font-size="14.00">vector</text>
</g>
<!-- get_proposal_state -->
<g id="node1" class="node">
<title>get_proposal_state</title>
<ellipse fill="none" stroke="black" cx="236" cy="-411" rx="76.89" ry="18"/>
<text text-anchor="middle" x="236" y="-407.3" font-family="Times,serif" font-size="14.00">get_proposal_state</text>
</g>
<!-- table::borrow -->
<g id="node2" class="node">
<title>table::borrow</title>
<ellipse fill="none" stroke="black" cx="81" cy="-264" rx="36.29" ry="18"/>
<text text-anchor="middle" x="81" y="-260.3" font-family="Times,serif" font-size="14.00">borrow</text>
</g>
<!-- get_proposal_state&#45;&gt;table::borrow -->
<g id="edge1" class="edge">
<title>get_proposal_state&#45;&gt;table::borrow</title>
<path fill="none" stroke="black" d="M217.92,-393.08C190.18,-367.13 137.06,-317.44 105.77,-288.17"/>
<polygon fill="black" stroke="black" points="108.36,-285.8 98.66,-281.52 103.57,-290.91 108.36,-285.8"/>
</g>
<!-- is_voting_closed -->
<g id="node3" class="node">
<title>is_voting_closed</title>
<ellipse fill="none" stroke="black" cx="308" cy="-339" rx="70.39" ry="18"/>
<text text-anchor="middle" x="308" y="-335.3" font-family="Times,serif" font-size="14.00">is_voting_closed</text>
</g>
<!-- get_proposal_state&#45;&gt;is_voting_closed -->
<g id="edge2" class="edge">
<title>get_proposal_state&#45;&gt;is_voting_closed</title>
<path fill="none" stroke="black" d="M253.43,-393.05C262.18,-384.54 272.96,-374.07 282.61,-364.68"/>
<polygon fill="black" stroke="black" points="284.92,-367.32 289.65,-357.84 280.04,-362.31 284.92,-367.32"/>
</g>
<!-- table::borrow_box -->
<g id="node4" class="node">
<title>table::borrow_box</title>
<ellipse fill="none" stroke="black" cx="70" cy="-189" rx="53.89" ry="18"/>
<text text-anchor="middle" x="70" y="-185.3" font-family="Times,serif" font-size="14.00">borrow_box</text>
</g>
<!-- table::borrow&#45;&gt;table::borrow_box -->
<g id="edge3" class="edge">
<title>table::borrow&#45;&gt;table::borrow_box</title>
<path fill="none" stroke="black" d="M78.39,-245.7C77.18,-237.67 75.71,-227.9 74.34,-218.8"/>
<polygon fill="black" stroke="black" points="77.8,-218.29 72.85,-208.93 70.88,-219.34 77.8,-218.29"/>
</g>
<!-- table::borrow_mut -->
<g id="node5" class="node">
<title>table::borrow_mut</title>
<ellipse fill="none" stroke="black" cx="222" cy="-264" rx="54.69" ry="18"/>
<text text-anchor="middle" x="222" y="-260.3" font-family="Times,serif" font-size="14.00">borrow_mut</text>
</g>
<!-- is_voting_closed&#45;&gt;table::borrow_mut -->
<g id="edge4" class="edge">
<title>is_voting_closed&#45;&gt;table::borrow_mut</title>
<path fill="none" stroke="black" d="M288.49,-321.44C277.08,-311.75 262.49,-299.37 249.89,-288.68"/>
<polygon fill="black" stroke="black" points="252.18,-286.03 242.3,-282.23 247.65,-291.37 252.18,-286.03"/>
</g>
<!-- can_be_resolved_early -->
<g id="node6" class="node">
<title>can_be_resolved_early</title>
<ellipse fill="none" stroke="black" cx="394" cy="-264" rx="91.78" ry="18"/>
<text text-anchor="middle" x="394" y="-260.3" font-family="Times,serif" font-size="14.00">can_be_resolved_early</text>
</g>
<!-- is_voting_closed&#45;&gt;can_be_resolved_early -->
<g id="edge5" class="edge">
<title>is_voting_closed&#45;&gt;can_be_resolved_early</title>
<path fill="none" stroke="black" d="M327.51,-321.44C338.68,-311.96 352.89,-299.89 365.31,-289.35"/>
<polygon fill="black" stroke="black" points="367.45,-292.13 372.81,-282.99 362.92,-286.79 367.45,-292.13"/>
</g>
<!-- is_voting_period_over -->
<g id="node7" class="node">
<title>is_voting_period_over</title>
<ellipse fill="none" stroke="black" cx="594" cy="-264" rx="90.18" ry="18"/>
<text text-anchor="middle" x="594" y="-260.3" font-family="Times,serif" font-size="14.00">is_voting_period_over</text>
</g>
<!-- is_voting_closed&#45;&gt;is_voting_period_over -->
<g id="edge6" class="edge">
<title>is_voting_closed&#45;&gt;is_voting_period_over</title>
<path fill="none" stroke="black" d="M376.18,-334.12C412.11,-330.78 456.58,-324.56 495,-313 515.95,-306.7 537.97,-296.43 555.91,-287"/>
<polygon fill="black" stroke="black" points="557.48,-290.13 564.62,-282.3 554.16,-283.97 557.48,-290.13"/>
</g>
<!-- table::borrow_box_mut -->
<g id="node8" class="node">
<title>table::borrow_box_mut</title>
<ellipse fill="none" stroke="black" cx="214" cy="-189" rx="72.29" ry="18"/>
<text text-anchor="middle" x="214" y="-185.3" font-family="Times,serif" font-size="14.00">borrow_box_mut</text>
</g>
<!-- table::borrow_mut&#45;&gt;table::borrow_box_mut -->
<g id="edge7" class="edge">
<title>table::borrow_mut&#45;&gt;table::borrow_box_mut</title>
<path fill="none" stroke="black" d="M220.1,-245.7C219.22,-237.67 218.15,-227.9 217.16,-218.8"/>
<polygon fill="black" stroke="black" points="220.64,-218.49 216.07,-208.93 213.69,-219.26 220.64,-218.49"/>
</g>
<!-- option::borrow -->
<g id="node9" class="node">
<title>option::borrow</title>
<ellipse fill="none" stroke="black" cx="371" cy="-189" rx="36.29" ry="18"/>
<text text-anchor="middle" x="371" y="-185.3" font-family="Times,serif" font-size="14.00">borrow</text>
</g>
<!-- can_be_resolved_early&#45;&gt;option::borrow -->
<g id="edge8" class="edge">
<title>can_be_resolved_early&#45;&gt;option::borrow</title>
<path fill="none" stroke="black" d="M388.55,-245.7C385.94,-237.43 382.76,-227.31 379.82,-217.99"/>
<polygon fill="black" stroke="black" points="383.21,-217.11 376.87,-208.62 376.53,-219.21 383.21,-217.11"/>
</g>
<!-- option::is_some -->
<g id="node10" class="node">
<title>option::is_some</title>
<ellipse fill="none" stroke="black" cx="373" cy="-117" rx="40.09" ry="18"/>
<text text-anchor="middle" x="373" y="-113.3" font-family="Times,serif" font-size="14.00">is_some</text>
</g>
<!-- can_be_resolved_early&#45;&gt;option::is_some -->
<g id="edge9" class="edge">
<title>can_be_resolved_early&#45;&gt;option::is_some</title>
<path fill="none" stroke="black" d="M411.62,-246.03C413.4,-243.51 414.94,-240.81 416,-238 427.77,-206.81 428.41,-193.94 416,-163 412.66,-154.68 406.97,-147.02 400.8,-140.48"/>
<polygon fill="black" stroke="black" points="403.59,-138.3 393.97,-133.87 398.72,-143.33 403.59,-138.3"/>
</g>
<!-- timestamp::now_seconds -->
<g id="node11" class="node">
<title>timestamp::now_seconds</title>
<ellipse fill="none" stroke="black" cx="594" cy="-189" rx="57.69" ry="18"/>
<text text-anchor="middle" x="594" y="-185.3" font-family="Times,serif" font-size="14.00">now_seconds</text>
</g>
<!-- is_voting_period_over&#45;&gt;timestamp::now_seconds -->
<g id="edge10" class="edge">
<title>is_voting_period_over&#45;&gt;timestamp::now_seconds</title>
<path fill="none" stroke="black" d="M594,-245.7C594,-237.67 594,-227.9 594,-218.8"/>
<polygon fill="black" stroke="black" points="597.5,-218.94 594,-208.94 590.5,-218.94 597.5,-218.94"/>
</g>
<!-- option::borrow&#45;&gt;option::is_some -->
<g id="edge11" class="edge">
<title>option::borrow&#45;&gt;option::is_some</title>
<path fill="none" stroke="black" d="M371.49,-170.7C371.7,-163.41 371.95,-154.73 372.18,-146.54"/>
<polygon fill="black" stroke="black" points="375.68,-146.71 372.47,-136.62 368.68,-146.51 375.68,-146.71"/>
</g>
<!-- vector::is_empty -->
<g id="node12" class="node">
<title>vector::is_empty</title>
<ellipse fill="none" stroke="black" cx="373" cy="-34" rx="43.59" ry="18"/>
<text text-anchor="middle" x="373" y="-30.3" font-family="Times,serif" font-size="14.00">is_empty</text>
</g>
<!-- option::is_some&#45;&gt;vector::is_empty -->
<g id="edge12" class="edge">
<title>option::is_some&#45;&gt;vector::is_empty</title>
<path fill="none" stroke="black" d="M373,-98.82C373,-88.69 373,-75.6 373,-63.92"/>
<polygon fill="black" stroke="black" points="376.5,-63.95 373,-53.95 369.5,-63.95 376.5,-63.95"/>
</g>
<!-- timestamp::now_microseconds -->
<g id="node13" class="node">
<title>timestamp::now_microseconds</title>
<ellipse fill="none" stroke="black" cx="594" cy="-117" rx="79.09" ry="18"/>
<text text-anchor="middle" x="594" y="-113.3" font-family="Times,serif" font-size="14.00">now_microseconds</text>
</g>
<!-- timestamp::now_seconds&#45;&gt;timestamp::now_microseconds -->
<g id="edge13" class="edge">
<title>timestamp::now_seconds&#45;&gt;timestamp::now_microseconds</title>
<path fill="none" stroke="black" d="M594,-170.7C594,-163.41 594,-154.73 594,-146.54"/>
<polygon fill="black" stroke="black" points="597.5,-146.62 594,-136.62 590.5,-146.62 597.5,-146.62"/>
</g>
</g>
</svg>
