<?xml version="1.0" encoding="UTF-8" standalone="no"?>
<!DOCTYPE svg PUBLIC "-//W3C//DTD SVG 1.1//EN"
 "http://www.w3.org/Graphics/SVG/1.1/DTD/svg11.dtd">
<!-- Generated by graphviz version 7.0.4 (20221203.1631)
 -->
<!-- Title: G Pages: 1 -->
<svg width="355pt" height="227pt"
 viewBox="0.00 0.00 355.00 227.00" xmlns="http://www.w3.org/2000/svg" xmlns:xlink="http://www.w3.org/1999/xlink">
<g id="graph0" class="graph" transform="scale(1 1) rotate(0) translate(4 223)">
<title>G</title>
<polygon fill="white" stroke="none" points="-4,4 -4,-223 351,-223 351,4 -4,4"/>
<g id="clust1" class="cluster">
<title>cluster_aptos_governance</title>
<polygon fill="none" stroke="black" points="8,-64 8,-211 339,-211 339,-64 8,-64"/>
<text text-anchor="middle" x="173.5" y="-195.8" font-family="Times,serif" font-size="14.00">aptos_governance</text>
</g>
<!-- is_resolved -->
<g id="node1" class="node">
<title>is_resolved</title>
<ellipse fill="none" stroke="black" cx="182" cy="-18" rx="50.89" ry="18"/>
<text text-anchor="middle" x="182" y="-14.3" font-family="Times,serif" font-size="14.00">is_resolved</text>
</g>
<!-- aptos_governance::remove_approved_hash -->
<g id="node2" class="node">
<title>aptos_governance::remove_approved_hash</title>
<ellipse fill="none" stroke="black" cx="182" cy="-90" rx="94.78" ry="18"/>
<text text-anchor="middle" x="182" y="-86.3" font-family="Times,serif" font-size="14.00">remove_approved_hash</text>
</g>
<!-- aptos_governance::remove_approved_hash&#45;&gt;is_resolved -->
<g id="edge1" class="edge">
<title>aptos_governance::remove_approved_hash&#45;&gt;is_resolved</title>
<path fill="none" stroke="black" d="M182,-71.7C182,-64.41 182,-55.73 182,-47.54"/>
<polygon fill="black" stroke="black" points="185.5,-47.62 182,-37.62 178.5,-47.62 185.5,-47.62"/>
</g>
<!-- aptos_governance::resolve -->
<g id="node3" class="node">
<title>aptos_governance::resolve</title>
<ellipse fill="none" stroke="black" cx="295" cy="-162" rx="36.29" ry="18"/>
<text text-anchor="middle" x="295" y="-158.3" font-family="Times,serif" font-size="14.00">resolve</text>
</g>
<!-- aptos_governance::resolve&#45;&gt;aptos_governance::remove_approved_hash -->
<g id="edge2" class="edge">
<title>aptos_governance::resolve&#45;&gt;aptos_governance::remove_approved_hash</title>
<path fill="none" stroke="black" d="M272.94,-147.34C257.45,-137.74 236.35,-124.67 218.38,-113.54"/>
<polygon fill="black" stroke="black" points="220.41,-110.68 210.06,-108.39 216.72,-116.63 220.41,-110.68"/>
</g>
<!-- aptos_governance::resolve_multi_step_proposal -->
<g id="node4" class="node">
<title>aptos_governance::resolve_multi_step_proposal</title>
<ellipse fill="none" stroke="black" cx="128" cy="-162" rx="112.38" ry="18"/>
<text text-anchor="middle" x="128" y="-158.3" font-family="Times,serif" font-size="14.00">resolve_multi_step_proposal</text>
</g>
<!-- aptos_governance::resolve_multi_step_proposal&#45;&gt;aptos_governance::remove_approved_hash -->
<g id="edge3" class="edge">
<title>aptos_governance::resolve_multi_step_proposal&#45;&gt;aptos_governance::remove_approved_hash</title>
<path fill="none" stroke="black" d="M141.35,-143.7C147.56,-135.64 155.08,-125.89 161.96,-116.98"/>
<polygon fill="black" stroke="black" points="164.54,-119.36 167.88,-109.3 159,-115.08 164.54,-119.36"/>
</g>
</g>
</svg>
