<?xml version="1.0" encoding="UTF-8" standalone="no"?>
<!DOCTYPE svg PUBLIC "-//W3C//DTD SVG 1.1//EN"
 "http://www.w3.org/Graphics/SVG/1.1/DTD/svg11.dtd">
<!-- Generated by graphviz version 7.0.4 (20221203.1631)
 -->
<!-- Title: G Pages: 1 -->
<svg width="1071pt" height="443pt"
 viewBox="0.00 0.00 1071.40 443.00" xmlns="http://www.w3.org/2000/svg" xmlns:xlink="http://www.w3.org/1999/xlink">
<g id="graph0" class="graph" transform="scale(1 1) rotate(0) translate(4 439)">
<title>G</title>
<polygon fill="white" stroke="none" points="-4,4 -4,-439 1067.4,-439 1067.4,4 -4,4"/>
<g id="clust1" class="cluster">
<title>cluster_aptos_governance</title>
<polygon fill="none" stroke="black" points="376.4,-280 376.4,-427 1055.4,-427 1055.4,-280 376.4,-280"/>
<text text-anchor="middle" x="715.9" y="-411.8" font-family="Times,serif" font-size="14.00">aptos_governance</text>
</g>
<!-- is_voting_period_over -->
<g id="node1" class="node">
<title>is_voting_period_over</title>
<ellipse fill="none" stroke="black" cx="314.4" cy="-18" rx="90.18" ry="18"/>
<text text-anchor="middle" x="314.4" y="-14.3" font-family="Times,serif" font-size="14.00">is_voting_period_over</text>
</g>
<!-- is_voting_closed -->
<g id="node2" class="node">
<title>is_voting_closed</title>
<ellipse fill="none" stroke="black" cx="265.4" cy="-90" rx="70.39" ry="18"/>
<text text-anchor="middle" x="265.4" y="-86.3" font-family="Times,serif" font-size="14.00">is_voting_closed</text>
</g>
<!-- is_voting_closed&#45;&gt;is_voting_period_over -->
<g id="edge1" class="edge">
<title>is_voting_closed&#45;&gt;is_voting_period_over</title>
<path fill="none" stroke="black" d="M277.26,-72.05C282.83,-64.09 289.61,-54.41 295.84,-45.51"/>
<polygon fill="black" stroke="black" points="298.57,-47.71 301.44,-37.52 292.83,-43.7 298.57,-47.71"/>
</g>
<!-- vote -->
<g id="node3" class="node">
<title>vote</title>
<ellipse fill="none" stroke="black" cx="341.4" cy="-306" rx="27" ry="18"/>
<text text-anchor="middle" x="341.4" y="-302.3" font-family="Times,serif" font-size="14.00">vote</text>
</g>
<!-- vote&#45;&gt;is_voting_period_over -->
<g id="edge2" class="edge">
<title>vote&#45;&gt;is_voting_period_over</title>
<path fill="none" stroke="black" d="M344.9,-287.89C352.22,-248.74 366.68,-149.99 344.4,-72 341.82,-62.99 337.44,-53.87 332.8,-45.8"/>
<polygon fill="black" stroke="black" points="335.92,-44.19 327.71,-37.5 329.96,-47.85 335.92,-44.19"/>
</g>
<!-- get_proposal_state -->
<g id="node4" class="node">
<title>get_proposal_state</title>
<ellipse fill="none" stroke="black" cx="261.4" cy="-162" rx="76.89" ry="18"/>
<text text-anchor="middle" x="261.4" y="-158.3" font-family="Times,serif" font-size="14.00">get_proposal_state</text>
</g>
<!-- get_proposal_state&#45;&gt;is_voting_closed -->
<g id="edge3" class="edge">
<title>get_proposal_state&#45;&gt;is_voting_closed</title>
<path fill="none" stroke="black" d="M262.39,-143.7C262.8,-136.41 263.3,-127.73 263.77,-119.54"/>
<polygon fill="black" stroke="black" points="267.26,-119.8 264.33,-109.62 260.27,-119.4 267.26,-119.8"/>
</g>
<!-- aptos_governance::vote -->
<g id="node5" class="node">
<title>aptos_governance::vote</title>
<ellipse fill="none" stroke="black" cx="744.4" cy="-378" rx="27" ry="18"/>
<text text-anchor="middle" x="744.4" y="-374.3" font-family="Times,serif" font-size="14.00">vote</text>
</g>
<!-- aptos_governance::vote&#45;&gt;vote -->
<g id="edge4" class="edge">
<title>aptos_governance::vote&#45;&gt;vote</title>
<path fill="none" stroke="black" d="M723.91,-365.89C718.96,-363.61 713.59,-361.46 708.4,-360 563.81,-319.37 515.69,-368.98 372.4,-324 371.9,-323.84 371.4,-323.68 370.9,-323.51"/>
<polygon fill="black" stroke="black" points="372.51,-320.39 361.94,-319.62 369.72,-326.81 372.51,-320.39"/>
</g>
<!-- aptos_governance::vote&#45;&gt;get_proposal_state -->
<g id="edge6" class="edge">
<title>aptos_governance::vote&#45;&gt;get_proposal_state</title>
<path fill="none" stroke="black" d="M723.93,-365.82C718.97,-363.54 713.6,-361.41 708.4,-360 621.63,-336.44 374.36,-381.69 305.4,-324 285.22,-307.12 271.53,-233.19 265.27,-191.63"/>
<polygon fill="black" stroke="black" points="268.76,-191.25 263.86,-181.85 261.83,-192.25 268.76,-191.25"/>
</g>
<!-- aptos_governance::add_approved_script_hash -->
<g id="node7" class="node">
<title>aptos_governance::add_approved_script_hash</title>
<ellipse fill="none" stroke="black" cx="665.4" cy="-306" rx="104.78" ry="18"/>
<text text-anchor="middle" x="665.4" y="-302.3" font-family="Times,serif" font-size="14.00">add_approved_script_hash</text>
</g>
<!-- aptos_governance::vote&#45;&gt;aptos_governance::add_approved_script_hash -->
<g id="edge10" class="edge">
<title>aptos_governance::vote&#45;&gt;aptos_governance::add_approved_script_hash</title>
<path fill="none" stroke="black" d="M728.79,-363.17C718.58,-354.13 704.97,-342.07 692.98,-331.44"/>
<polygon fill="black" stroke="black" points="695.54,-329.04 685.74,-325.02 690.9,-334.27 695.54,-329.04"/>
</g>
<!-- is_proposal_resolvable -->
<g id="node6" class="node">
<title>is_proposal_resolvable</title>
<ellipse fill="none" stroke="black" cx="166.4" cy="-234" rx="91.78" ry="18"/>
<text text-anchor="middle" x="166.4" y="-230.3" font-family="Times,serif" font-size="14.00">is_proposal_resolvable</text>
</g>
<!-- is_proposal_resolvable&#45;&gt;get_proposal_state -->
<g id="edge5" class="edge">
<title>is_proposal_resolvable&#45;&gt;get_proposal_state</title>
<path fill="none" stroke="black" d="M188.91,-216.41C201.21,-207.34 216.65,-195.97 230.1,-186.06"/>
<polygon fill="black" stroke="black" points="231.85,-189.12 237.83,-180.37 227.7,-183.48 231.85,-189.12"/>
</g>
<!-- aptos_governance::add_approved_script_hash&#45;&gt;get_proposal_state -->
<g id="edge7" class="edge">
<title>aptos_governance::add_approved_script_hash&#45;&gt;get_proposal_state</title>
<path fill="none" stroke="black" d="M620.62,-289.26C545.27,-262.78 393.55,-209.45 313.53,-181.33"/>
<polygon fill="black" stroke="black" points="314.76,-178.05 304.16,-178.03 312.43,-184.65 314.76,-178.05"/>
</g>
<!-- resolve -->
<g id="node8" class="node">
<title>resolve</title>
<ellipse fill="none" stroke="black" cx="36.4" cy="-306" rx="36.29" ry="18"/>
<text text-anchor="middle" x="36.4" y="-302.3" font-family="Times,serif" font-size="14.00">resolve</text>
</g>
<!-- resolve&#45;&gt;is_proposal_resolvable -->
<g id="edge8" class="edge">
<title>resolve&#45;&gt;is_proposal_resolvable</title>
<path fill="none" stroke="black" d="M59.7,-291.93C66.67,-288.06 74.33,-283.84 81.4,-280 95.69,-272.25 111.4,-263.88 125.39,-256.49"/>
<polygon fill="black" stroke="black" points="126.68,-259.77 133.89,-252.01 123.41,-253.58 126.68,-259.77"/>
</g>
<!-- resolve_proposal_v2 -->
<g id="node9" class="node">
<title>resolve_proposal_v2</title>
<ellipse fill="none" stroke="black" cx="174.4" cy="-306" rx="83.69" ry="18"/>
<text text-anchor="middle" x="174.4" y="-302.3" font-family="Times,serif" font-size="14.00">resolve_proposal_v2</text>
</g>
<!-- resolve_proposal_v2&#45;&gt;is_proposal_resolvable -->
<g id="edge9" class="edge">
<title>resolve_proposal_v2&#45;&gt;is_proposal_resolvable</title>
<path fill="none" stroke="black" d="M172.42,-287.7C171.59,-280.41 170.59,-271.73 169.66,-263.54"/>
<polygon fill="black" stroke="black" points="173.14,-263.15 168.52,-253.61 166.18,-263.94 173.14,-263.15"/>
</g>
<!-- aptos_governance::add_approved_script_hash_script -->
<g id="node10" class="node">
<title>aptos_governance::add_approved_script_hash_script</title>
<ellipse fill="none" stroke="black" cx="918.4" cy="-378" rx="128.88" ry="18"/>
<text text-anchor="middle" x="918.4" y="-374.3" font-family="Times,serif" font-size="14.00">add_approved_script_hash_script</text>
</g>
<!-- aptos_governance::add_approved_script_hash_script&#45;&gt;aptos_governance::add_approved_script_hash -->
<g id="edge11" class="edge">
<title>aptos_governance::add_approved_script_hash_script&#45;&gt;aptos_governance::add_approved_script_hash</title>
<path fill="none" stroke="black" d="M861.93,-361.38C822.85,-350.56 770.73,-336.14 729.99,-324.87"/>
<polygon fill="black" stroke="black" points="731.12,-321.55 720.55,-322.26 729.25,-328.3 731.12,-321.55"/>
</g>
<!-- aptos_governance::resolve_multi_step_proposal -->
<g id="node11" class="node">
<title>aptos_governance::resolve_multi_step_proposal</title>
<ellipse fill="none" stroke="black" cx="587.4" cy="-378" rx="112.38" ry="18"/>
<text text-anchor="middle" x="587.4" y="-374.3" font-family="Times,serif" font-size="14.00">resolve_multi_step_proposal</text>
</g>
<!-- aptos_governance::resolve_multi_step_proposal&#45;&gt;aptos_governance::add_approved_script_hash -->
<g id="edge12" class="edge">
<title>aptos_governance::resolve_multi_step_proposal&#45;&gt;aptos_governance::add_approved_script_hash</title>
<path fill="none" stroke="black" d="M606.28,-360.05C615.79,-351.52 627.5,-341.01 637.98,-331.61"/>
<polygon fill="black" stroke="black" points="640.19,-334.33 645.29,-325.04 635.51,-329.12 640.19,-334.33"/>
</g>
<!-- aptos_governance::resolve_multi_step_proposal&#45;&gt;resolve_proposal_v2 -->
<g id="edge14" class="edge">
<title>aptos_governance::resolve_multi_step_proposal&#45;&gt;resolve_proposal_v2</title>
<path fill="none" stroke="black" d="M511.64,-364.36C447.82,-353.69 354.12,-337.96 272.4,-324 264.82,-322.71 256.91,-321.35 249.02,-319.99"/>
<polygon fill="black" stroke="black" points="249.85,-316.58 239.4,-318.32 248.66,-323.48 249.85,-316.58"/>
</g>
<!-- aptos_governance::resolve -->
<g id="node12" class="node">
<title>aptos_governance::resolve</title>
<ellipse fill="none" stroke="black" cx="420.4" cy="-378" rx="36.29" ry="18"/>
<text text-anchor="middle" x="420.4" y="-374.3" font-family="Times,serif" font-size="14.00">resolve</text>
</g>
<!-- aptos_governance::resolve&#45;&gt;resolve -->
<g id="edge13" class="edge">
<title>aptos_governance::resolve&#45;&gt;resolve</title>
<path fill="none" stroke="black" d="M384.76,-373.87C322.45,-367.85 189.96,-352.67 81.4,-324 79.13,-323.4 76.81,-322.73 74.49,-322"/>
<polygon fill="black" stroke="black" points="75.74,-318.73 65.14,-318.83 73.49,-325.36 75.74,-318.73"/>
</g>
</g>
</svg>
