<?xml version="1.0" encoding="UTF-8" standalone="no"?>
<!DOCTYPE svg PUBLIC "-//W3C//DTD SVG 1.1//EN"
 "http://www.w3.org/Graphics/SVG/1.1/DTD/svg11.dtd">
<!-- Generated by graphviz version 7.0.4 (20221203.1631)
 -->
<!-- Title: G Pages: 1 -->
<svg width="612pt" height="227pt"
 viewBox="0.00 0.00 612.00 227.00" xmlns="http://www.w3.org/2000/svg" xmlns:xlink="http://www.w3.org/1999/xlink">
<g id="graph0" class="graph" transform="scale(1 1) rotate(0) translate(4 223)">
<title>G</title>
<polygon fill="white" stroke="none" points="-4,4 -4,-223 608,-223 608,4 -4,4"/>
<g id="clust1" class="cluster">
<title>cluster_aptos_governance</title>
<polygon fill="none" stroke="black" points="8,-64 8,-211 596,-211 596,-64 8,-64"/>
<text text-anchor="middle" x="302" y="-195.8" font-family="Times,serif" font-size="14.00">aptos_governance</text>
</g>
<!-- get_execution_hash -->
<g id="node1" class="node">
<title>get_execution_hash</title>
<ellipse fill="none" stroke="black" cx="387" cy="-18" rx="80.69" ry="18"/>
<text text-anchor="middle" x="387" y="-14.3" font-family="Times,serif" font-size="14.00">get_execution_hash</text>
</g>
<!-- aptos_governance::add_approved_script_hash -->
<g id="node2" class="node">
<title>aptos_governance::add_approved_script_hash</title>
<ellipse fill="none" stroke="black" cx="387" cy="-90" rx="104.78" ry="18"/>
<text text-anchor="middle" x="387" y="-86.3" font-family="Times,serif" font-size="14.00">add_approved_script_hash</text>
</g>
<!-- aptos_governance::add_approved_script_hash&#45;&gt;get_execution_hash -->
<g id="edge1" class="edge">
<title>aptos_governance::add_approved_script_hash&#45;&gt;get_execution_hash</title>
<path fill="none" stroke="black" d="M387,-71.7C387,-64.41 387,-55.73 387,-47.54"/>
<polygon fill="black" stroke="black" points="390.5,-47.62 387,-37.62 383.5,-47.62 390.5,-47.62"/>
</g>
<!-- aptos_governance::vote -->
<g id="node3" class="node">
<title>aptos_governance::vote</title>
<ellipse fill="none" stroke="black" cx="561" cy="-162" rx="27" ry="18"/>
<text text-anchor="middle" x="561" y="-158.3" font-family="Times,serif" font-size="14.00">vote</text>
</g>
<!-- aptos_governance::vote&#45;&gt;aptos_governance::add_approved_script_hash -->
<g id="edge2" class="edge">
<title>aptos_governance::vote&#45;&gt;aptos_governance::add_approved_script_hash</title>
<path fill="none" stroke="black" d="M539.8,-150.67C534.97,-148.4 529.83,-146.06 525,-144 497.64,-132.31 466.76,-120.33 441.15,-110.73"/>
<polygon fill="black" stroke="black" points="442.54,-107.51 431.95,-107.3 440.1,-114.07 442.54,-107.51"/>
</g>
<!-- aptos_governance::add_approved_script_hash_script -->
<g id="node4" class="node">
<title>aptos_governance::add_approved_script_hash_script</title>
<ellipse fill="none" stroke="black" cx="387" cy="-162" rx="128.88" ry="18"/>
<text text-anchor="middle" x="387" y="-158.3" font-family="Times,serif" font-size="14.00">add_approved_script_hash_script</text>
</g>
<!-- aptos_governance::add_approved_script_hash_script&#45;&gt;aptos_governance::add_approved_script_hash -->
<g id="edge3" class="edge">
<title>aptos_governance::add_approved_script_hash_script&#45;&gt;aptos_governance::add_approved_script_hash</title>
<path fill="none" stroke="black" d="M387,-143.7C387,-136.41 387,-127.73 387,-119.54"/>
<polygon fill="black" stroke="black" points="390.5,-119.62 387,-109.62 383.5,-119.62 390.5,-119.62"/>
</g>
<!-- aptos_governance::resolve_multi_step_proposal -->
<g id="node5" class="node">
<title>aptos_governance::resolve_multi_step_proposal</title>
<ellipse fill="none" stroke="black" cx="128" cy="-162" rx="112.38" ry="18"/>
<text text-anchor="middle" x="128" y="-158.3" font-family="Times,serif" font-size="14.00">resolve_multi_step_proposal</text>
</g>
<!-- aptos_governance::resolve_multi_step_proposal&#45;&gt;aptos_governance::add_approved_script_hash -->
<g id="edge4" class="edge">
<title>aptos_governance::resolve_multi_step_proposal&#45;&gt;aptos_governance::add_approved_script_hash</title>
<path fill="none" stroke="black" d="M183.56,-145.98C223.95,-135.07 278.77,-120.25 321.32,-108.75"/>
<polygon fill="black" stroke="black" points="322.22,-112.13 330.96,-106.15 320.39,-105.38 322.22,-112.13"/>
</g>
</g>
</svg>
