<?xml version="1.0" encoding="UTF-8" standalone="no"?>
<!DOCTYPE svg PUBLIC "-//W3C//DTD SVG 1.1//EN"
 "http://www.w3.org/Graphics/SVG/1.1/DTD/svg11.dtd">
<!-- Generated by graphviz version 7.0.4 (20221203.1631)
 -->
<!-- Title: G Pages: 1 -->
<svg width="238pt" height="207pt"
 viewBox="0.00 0.00 238.08 207.00" xmlns="http://www.w3.org/2000/svg" xmlns:xlink="http://www.w3.org/1999/xlink">
<g id="graph0" class="graph" transform="scale(1 1) rotate(0) translate(4 203)">
<title>G</title>
<polygon fill="white" stroke="none" points="-4,4 -4,-203 234.08,-203 234.08,4 -4,4"/>
<g id="clust1" class="cluster">
<title>cluster_table</title>
<polygon fill="none" stroke="black" points="35.04,-8 35.04,-155 195.04,-155 195.04,-8 35.04,-8"/>
<text text-anchor="middle" x="115.04" y="-139.8" font-family="Times,serif" font-size="14.00">table</text>
</g>
<!-- get_proposal_expiration_secs -->
<g id="node1" class="node">
<title>get_proposal_expiration_secs</title>
<ellipse fill="none" stroke="black" cx="115.04" cy="-181" rx="115.08" ry="18"/>
<text text-anchor="middle" x="115.04" y="-177.3" font-family="Times,serif" font-size="14.00">get_proposal_expiration_secs</text>
</g>
<!-- table::borrow_mut -->
<g id="node2" class="node">
<title>table::borrow_mut</title>
<ellipse fill="none" stroke="black" cx="115.04" cy="-106" rx="54.69" ry="18"/>
<text text-anchor="middle" x="115.04" y="-102.3" font-family="Times,serif" font-size="14.00">borrow_mut</text>
</g>
<!-- get_proposal_expiration_secs&#45;&gt;table::borrow_mut -->
<g id="edge1" class="edge">
<title>get_proposal_expiration_secs&#45;&gt;table::borrow_mut</title>
<path fill="none" stroke="black" d="M115.04,-162.7C115.04,-154.67 115.04,-144.9 115.04,-135.8"/>
<polygon fill="black" stroke="black" points="118.54,-135.94 115.04,-125.94 111.54,-135.94 118.54,-135.94"/>
</g>
<!-- table::borrow_box_mut -->
<g id="node3" class="node">
<title>table::borrow_box_mut</title>
<ellipse fill="none" stroke="black" cx="115.04" cy="-34" rx="72.29" ry="18"/>
<text text-anchor="middle" x="115.04" y="-30.3" font-family="Times,serif" font-size="14.00">borrow_box_mut</text>
</g>
<!-- table::borrow_mut&#45;&gt;table::borrow_box_mut -->
<g id="edge2" class="edge">
<title>table::borrow_mut&#45;&gt;table::borrow_box_mut</title>
<path fill="none" stroke="black" d="M115.04,-87.7C115.04,-80.41 115.04,-71.73 115.04,-63.54"/>
<polygon fill="black" stroke="black" points="118.54,-63.62 115.04,-53.62 111.54,-63.62 118.54,-63.62"/>
</g>
</g>
</svg>
