<?xml version="1.0" encoding="UTF-8" standalone="no"?>
<!DOCTYPE svg PUBLIC "-//W3C//DTD SVG 1.1//EN"
 "http://www.w3.org/Graphics/SVG/1.1/DTD/svg11.dtd">
<!-- Generated by graphviz version 7.0.4 (20221203.1631)
 -->
<!-- Title: G Pages: 1 -->
<svg width="2126pt" height="614pt"
 viewBox="0.00 0.00 2125.50 614.00" xmlns="http://www.w3.org/2000/svg" xmlns:xlink="http://www.w3.org/1999/xlink">
<g id="graph0" class="graph" transform="scale(1 1) rotate(0) translate(4 610)">
<title>G</title>
<polygon fill="white" stroke="none" points="-4,4 -4,-610 2121.5,-610 2121.5,4 -4,4"/>
<g id="clust1" class="cluster">
<title>cluster_option</title>
<polygon fill="none" stroke="black" points="451.5,-91 451.5,-238 778.5,-238 778.5,-91 451.5,-91"/>
<text text-anchor="middle" x="615" y="-222.8" font-family="Times,serif" font-size="14.00">option</text>
</g>
<g id="clust2" class="cluster">
<title>cluster_string</title>
<polygon fill="none" stroke="black" points="334.5,-329 334.5,-487 512.5,-487 512.5,-329 334.5,-329"/>
<text text-anchor="middle" x="423.5" y="-471.8" font-family="Times,serif" font-size="14.00">string</text>
</g>
<g id="clust3" class="cluster">
<title>cluster_error</title>
<polygon fill="none" stroke="black" points="1538.5,-246 1538.5,-404 2002.5,-404 2002.5,-246 1538.5,-246"/>
<text text-anchor="middle" x="1770.5" y="-388.8" font-family="Times,serif" font-size="14.00">error</text>
</g>
<g id="clust4" class="cluster">
<title>cluster_table</title>
<polygon fill="none" stroke="black" points="1056.5,-163 1056.5,-321 1342.5,-321 1342.5,-163 1056.5,-163"/>
<text text-anchor="middle" x="1199.5" y="-305.8" font-family="Times,serif" font-size="14.00">table</text>
</g>
<g id="clust5" class="cluster">
<title>cluster_from_bcs</title>
<polygon fill="none" stroke="black" points="520.5,-329 520.5,-487 700.5,-487 700.5,-329 520.5,-329"/>
<text text-anchor="middle" x="610.5" y="-471.8" font-family="Times,serif" font-size="14.00">from_bcs</text>
</g>
<g id="clust6" class="cluster">
<title>cluster_event</title>
<polygon fill="none" stroke="black" points="36.5,-412 36.5,-562 222.5,-562 222.5,-412 36.5,-412"/>
<text text-anchor="middle" x="129.5" y="-546.8" font-family="Times,serif" font-size="14.00">event</text>
</g>
<g id="clust7" class="cluster">
<title>cluster_timestamp</title>
<polygon fill="none" stroke="black" points="1935.5,-91 1935.5,-238 2109.5,-238 2109.5,-91 1935.5,-91"/>
<text text-anchor="middle" x="2022.5" y="-222.8" font-family="Times,serif" font-size="14.00">timestamp</text>
</g>
<g id="clust8" class="cluster">
<title>cluster_simple_map</title>
<polygon fill="none" stroke="black" points="708.5,-329 708.5,-487 929.5,-487 929.5,-329 708.5,-329"/>
<text text-anchor="middle" x="819" y="-471.8" font-family="Times,serif" font-size="14.00">simple_map</text>
</g>
<g id="clust9" class="cluster">
<title>cluster_bcs</title>
<polygon fill="none" stroke="black" points="230.5,-412 230.5,-487 326.5,-487 326.5,-412 230.5,-412"/>
<text text-anchor="middle" x="278.5" y="-471.8" font-family="Times,serif" font-size="14.00">bcs</text>
</g>
<g id="clust11" class="cluster">
<title>cluster_vector</title>
<polygon fill="none" stroke="black" points="507.5,-8 507.5,-83 714.5,-83 714.5,-8 507.5,-8"/>
<text text-anchor="middle" x="611" y="-67.8" font-family="Times,serif" font-size="14.00">vector</text>
</g>
<g id="clust10" class="cluster">
<title>cluster_transaction_context</title>
<polygon fill="none" stroke="black" points="1220.5,-412 1220.5,-487 1368.5,-487 1368.5,-412 1220.5,-412"/>
<text text-anchor="middle" x="1294.5" y="-471.8" font-family="Times,serif" font-size="14.00">transaction_context</text>
</g>
<!-- resolve -->
<g id="node1" class="node">
<title>resolve</title>
<ellipse fill="none" stroke="black" cx="885.5" cy="-588" rx="36.29" ry="18"/>
<text text-anchor="middle" x="885.5" y="-584.3" font-family="Times,serif" font-size="14.00">resolve</text>
</g>
<!-- option::extract -->
<g id="node2" class="node">
<title>option::extract</title>
<ellipse fill="none" stroke="black" cx="645.5" cy="-189" rx="34.39" ry="18"/>
<text text-anchor="middle" x="645.5" y="-185.3" font-family="Times,serif" font-size="14.00">extract</text>
</g>
<!-- resolve&#45;&gt;option::extract -->
<g id="edge1" class="edge">
<title>resolve&#45;&gt;option::extract</title>
<path fill="none" stroke="black" d="M848.99,-586.62C687.76,-584.84 46.94,-576.86 32.5,-562 -13.94,-514.17 -7.16,-465.58 32.5,-412 190.1,-199.11 379.26,-380.55 602.5,-238 611.82,-232.05 620.35,-223.54 627.32,-215.34"/>
<polygon fill="black" stroke="black" points="630.03,-217.54 633.53,-207.54 624.56,-213.18 630.03,-217.54"/>
</g>
<!-- string::utf8 -->
<g id="node3" class="node">
<title>string::utf8</title>
<ellipse fill="none" stroke="black" cx="477.5" cy="-438" rx="27" ry="18"/>
<text text-anchor="middle" x="477.5" y="-434.3" font-family="Times,serif" font-size="14.00">utf8</text>
</g>
<!-- resolve&#45;&gt;string::utf8 -->
<g id="edge2" class="edge">
<title>resolve&#45;&gt;string::utf8</title>
<path fill="none" stroke="black" d="M849.24,-585.86C787.12,-583.52 663.14,-577.08 622.5,-562 568.4,-541.93 558.65,-526.43 516.5,-487 509.03,-480.01 501.72,-471.58 495.49,-463.74"/>
<polygon fill="black" stroke="black" points="498.27,-461.61 489.4,-455.82 492.72,-465.88 498.27,-461.61"/>
</g>
<!-- error::permission_denied -->
<g id="node4" class="node">
<title>error::permission_denied</title>
<ellipse fill="none" stroke="black" cx="1917.5" cy="-355" rx="77.19" ry="18"/>
<text text-anchor="middle" x="1917.5" y="-351.3" font-family="Times,serif" font-size="14.00">permission_denied</text>
</g>
<!-- resolve&#45;&gt;error::permission_denied -->
<g id="edge3" class="edge">
<title>resolve&#45;&gt;error::permission_denied</title>
<path fill="none" stroke="black" d="M922.22,-587.26C1034.49,-587.76 1372.07,-587.09 1478.5,-562 1639.33,-524.09 1811.59,-423.22 1883.22,-378.22"/>
<polygon fill="black" stroke="black" points="1884.8,-381.37 1891.37,-373.06 1881.05,-375.45 1884.8,-381.37"/>
</g>
<!-- table::borrow_mut -->
<g id="node5" class="node">
<title>table::borrow_mut</title>
<ellipse fill="none" stroke="black" cx="1244.5" cy="-272" rx="54.69" ry="18"/>
<text text-anchor="middle" x="1244.5" y="-268.3" font-family="Times,serif" font-size="14.00">borrow_mut</text>
</g>
<!-- resolve&#45;&gt;table::borrow_mut -->
<g id="edge4" class="edge">
<title>resolve&#45;&gt;table::borrow_mut</title>
<path fill="none" stroke="black" d="M922.07,-586.68C1001.87,-585.64 1189.29,-581.16 1249.5,-562 1310.52,-542.59 1341.16,-542.83 1372.5,-487 1412.23,-416.25 1325.18,-334.39 1275.69,-295.61"/>
<polygon fill="black" stroke="black" points="1277.9,-292.9 1267.84,-289.59 1273.64,-298.45 1277.9,-292.9"/>
</g>
<!-- from_bcs::to_bool -->
<g id="node6" class="node">
<title>from_bcs::to_bool</title>
<ellipse fill="none" stroke="black" cx="566.5" cy="-438" rx="37.89" ry="18"/>
<text text-anchor="middle" x="566.5" y="-434.3" font-family="Times,serif" font-size="14.00">to_bool</text>
</g>
<!-- resolve&#45;&gt;from_bcs::to_bool -->
<g id="edge5" class="edge">
<title>resolve&#45;&gt;from_bcs::to_bool</title>
<path fill="none" stroke="black" d="M852.75,-580.04C799.35,-567.63 691.62,-538.07 613.5,-487 603.65,-480.56 594.26,-471.73 586.5,-463.41"/>
<polygon fill="black" stroke="black" points="589.32,-461.31 580.06,-456.16 584.09,-465.96 589.32,-461.31"/>
</g>
<!-- event::emit_event -->
<g id="node7" class="node">
<title>event::emit_event</title>
<ellipse fill="none" stroke="black" cx="164.5" cy="-513" rx="50.09" ry="18"/>
<text text-anchor="middle" x="164.5" y="-509.3" font-family="Times,serif" font-size="14.00">emit_event</text>
</g>
<!-- resolve&#45;&gt;event::emit_event -->
<g id="edge6" class="edge">
<title>resolve&#45;&gt;event::emit_event</title>
<path fill="none" stroke="black" d="M849.21,-585.19C784.61,-581.82 645.49,-573.8 528.5,-562 419.39,-551 292.54,-533.1 221.07,-522.55"/>
<polygon fill="black" stroke="black" points="221.98,-519.15 211.58,-521.14 220.96,-526.07 221.98,-519.15"/>
</g>
<!-- timestamp::now_seconds -->
<g id="node8" class="node">
<title>timestamp::now_seconds</title>
<ellipse fill="none" stroke="black" cx="2022.5" cy="-189" rx="57.69" ry="18"/>
<text text-anchor="middle" x="2022.5" y="-185.3" font-family="Times,serif" font-size="14.00">now_seconds</text>
</g>
<!-- resolve&#45;&gt;timestamp::now_seconds -->
<g id="edge7" class="edge">
<title>resolve&#45;&gt;timestamp::now_seconds</title>
<path fill="none" stroke="black" d="M921.91,-586.75C1046.55,-585.71 1455.54,-580.92 1585.5,-562 1801.3,-530.59 2060.5,-657.07 2060.5,-439 2060.5,-439 2060.5,-439 2060.5,-354 2060.5,-305.6 2059.27,-292.69 2046.5,-246 2043.89,-236.43 2039.96,-226.34 2036.04,-217.42"/>
<polygon fill="black" stroke="black" points="2039.34,-216.21 2031.98,-208.58 2032.98,-219.13 2039.34,-216.21"/>
</g>
<!-- simple_map::borrow -->
<g id="node9" class="node">
<title>simple_map::borrow</title>
<ellipse fill="none" stroke="black" cx="885.5" cy="-438" rx="36.29" ry="18"/>
<text text-anchor="middle" x="885.5" y="-434.3" font-family="Times,serif" font-size="14.00">borrow</text>
</g>
<!-- resolve&#45;&gt;simple_map::borrow -->
<g id="edge8" class="edge">
<title>resolve&#45;&gt;simple_map::borrow</title>
<path fill="none" stroke="black" d="M885.5,-569.73C885.5,-544.67 885.5,-497.9 885.5,-467.63"/>
<polygon fill="black" stroke="black" points="889,-467.67 885.5,-457.67 882,-467.67 889,-467.67"/>
</g>
<!-- simple_map::contains_key -->
<g id="node10" class="node">
<title>simple_map::contains_key</title>
<ellipse fill="none" stroke="black" cx="773.5" cy="-438" rx="57.39" ry="18"/>
<text text-anchor="middle" x="773.5" y="-434.3" font-family="Times,serif" font-size="14.00">contains_key</text>
</g>
<!-- resolve&#45;&gt;simple_map::contains_key -->
<g id="edge9" class="edge">
<title>resolve&#45;&gt;simple_map::contains_key</title>
<path fill="none" stroke="black" d="M873.09,-570.6C853.77,-545.06 816.32,-495.58 793.26,-465.11"/>
<polygon fill="black" stroke="black" points="796.06,-463 787.23,-457.14 790.47,-467.23 796.06,-463"/>
</g>
<!-- can_be_resolved_early -->
<g id="node11" class="node">
<title>can_be_resolved_early</title>
<ellipse fill="none" stroke="black" cx="956.5" cy="-272" rx="91.78" ry="18"/>
<text text-anchor="middle" x="956.5" y="-268.3" font-family="Times,serif" font-size="14.00">can_be_resolved_early</text>
</g>
<!-- resolve&#45;&gt;can_be_resolved_early -->
<g id="edge10" class="edge">
<title>resolve&#45;&gt;can_be_resolved_early</title>
<path fill="none" stroke="black" d="M895.8,-570.39C907.19,-551.13 925.04,-518.03 933.5,-487 951.14,-422.34 955.36,-343.23 956.3,-301.66"/>
<polygon fill="black" stroke="black" points="959.79,-301.84 956.47,-291.78 952.8,-301.72 959.79,-301.84"/>
</g>
<!-- is_proposal_resolvable -->
<g id="node12" class="node">
<title>is_proposal_resolvable</title>
<ellipse fill="none" stroke="black" cx="1148.5" cy="-513" rx="91.78" ry="18"/>
<text text-anchor="middle" x="1148.5" y="-509.3" font-family="Times,serif" font-size="14.00">is_proposal_resolvable</text>
</g>
<!-- resolve&#45;&gt;is_proposal_resolvable -->
<g id="edge11" class="edge">
<title>resolve&#45;&gt;is_proposal_resolvable</title>
<path fill="none" stroke="black" d="M916.71,-578.34C958.24,-566.81 1032.66,-546.15 1085.97,-531.36"/>
<polygon fill="black" stroke="black" points="1086.85,-534.74 1095.55,-528.7 1084.98,-528 1086.85,-534.74"/>
</g>
<!-- option::is_some -->
<g id="node13" class="node">
<title>option::is_some</title>
<ellipse fill="none" stroke="black" cx="730.5" cy="-117" rx="40.09" ry="18"/>
<text text-anchor="middle" x="730.5" y="-113.3" font-family="Times,serif" font-size="14.00">is_some</text>
</g>
<!-- option::extract&#45;&gt;option::is_some -->
<g id="edge12" class="edge">
<title>option::extract&#45;&gt;option::is_some</title>
<path fill="none" stroke="black" d="M663.12,-173.5C674.73,-163.93 690.18,-151.21 703.35,-140.36"/>
<polygon fill="black" stroke="black" points="705.37,-143.23 710.86,-134.17 700.92,-137.83 705.37,-143.23"/>
</g>
<!-- string::internal_check_utf8 -->
<g id="node14" class="node">
<title>string::internal_check_utf8</title>
<ellipse fill="none" stroke="black" cx="423.5" cy="-355" rx="81.49" ry="18"/>
<text text-anchor="middle" x="423.5" y="-351.3" font-family="Times,serif" font-size="14.00">internal_check_utf8</text>
</g>
<!-- string::utf8&#45;&gt;string::internal_check_utf8 -->
<g id="edge13" class="edge">
<title>string::utf8&#45;&gt;string::internal_check_utf8</title>
<path fill="none" stroke="black" d="M466.83,-421C459.49,-409.97 449.55,-395.08 441.05,-382.32"/>
<polygon fill="black" stroke="black" points="444.19,-380.73 435.74,-374.35 438.37,-384.61 444.19,-380.73"/>
</g>
<!-- error::canonical -->
<g id="node15" class="node">
<title>error::canonical</title>
<ellipse fill="none" stroke="black" cx="1766.5" cy="-272" rx="44.39" ry="18"/>
<text text-anchor="middle" x="1766.5" y="-268.3" font-family="Times,serif" font-size="14.00">canonical</text>
</g>
<!-- error::permission_denied&#45;&gt;error::canonical -->
<g id="edge14" class="edge">
<title>error::permission_denied&#45;&gt;error::canonical</title>
<path fill="none" stroke="black" d="M1887.67,-338C1863.09,-324.81 1828.15,-306.07 1802.11,-292.1"/>
<polygon fill="black" stroke="black" points="1804.05,-289.17 1793.59,-287.53 1800.74,-295.34 1804.05,-289.17"/>
</g>
<!-- table::borrow_box_mut -->
<g id="node16" class="node">
<title>table::borrow_box_mut</title>
<ellipse fill="none" stroke="black" cx="1262.5" cy="-189" rx="72.29" ry="18"/>
<text text-anchor="middle" x="1262.5" y="-185.3" font-family="Times,serif" font-size="14.00">borrow_box_mut</text>
</g>
<!-- table::borrow_mut&#45;&gt;table::borrow_box_mut -->
<g id="edge15" class="edge">
<title>table::borrow_mut&#45;&gt;table::borrow_box_mut</title>
<path fill="none" stroke="black" d="M1248.32,-253.82C1250.6,-243.58 1253.54,-230.33 1256.16,-218.55"/>
<polygon fill="black" stroke="black" points="1259.55,-219.43 1258.3,-208.91 1252.72,-217.91 1259.55,-219.43"/>
</g>
<!-- from_bcs::from_bytes -->
<g id="node17" class="node">
<title>from_bcs::from_bytes</title>
<ellipse fill="none" stroke="black" cx="610.5" cy="-355" rx="51.19" ry="18"/>
<text text-anchor="middle" x="610.5" y="-351.3" font-family="Times,serif" font-size="14.00">from_bytes</text>
</g>
<!-- from_bcs::to_bool&#45;&gt;from_bcs::from_bytes -->
<g id="edge16" class="edge">
<title>from_bcs::to_bool&#45;&gt;from_bcs::from_bytes</title>
<path fill="none" stroke="black" d="M575.62,-420.22C581.48,-409.43 589.22,-395.17 595.93,-382.84"/>
<polygon fill="black" stroke="black" points="598.83,-384.83 600.52,-374.37 592.68,-381.49 598.83,-384.83"/>
</g>
<!-- bcs::to_bytes -->
<g id="node18" class="node">
<title>bcs::to_bytes</title>
<ellipse fill="none" stroke="black" cx="278.5" cy="-438" rx="40.09" ry="18"/>
<text text-anchor="middle" x="278.5" y="-434.3" font-family="Times,serif" font-size="14.00">to_bytes</text>
</g>
<!-- event::emit_event&#45;&gt;bcs::to_bytes -->
<g id="edge17" class="edge">
<title>event::emit_event&#45;&gt;bcs::to_bytes</title>
<path fill="none" stroke="black" d="M200.35,-500.11C209.21,-496.48 218.46,-492.09 226.5,-487 237.09,-480.3 247.5,-471.32 256.19,-462.94"/>
<polygon fill="black" stroke="black" points="258.59,-465.48 263.17,-455.93 253.63,-460.54 258.59,-465.48"/>
</g>
<!-- event::write_to_event_store -->
<g id="node19" class="node">
<title>event::write_to_event_store</title>
<ellipse fill="none" stroke="black" cx="129.5" cy="-438" rx="85.29" ry="18"/>
<text text-anchor="middle" x="129.5" y="-434.3" font-family="Times,serif" font-size="14.00">write_to_event_store</text>
</g>
<!-- event::emit_event&#45;&gt;event::write_to_event_store -->
<g id="edge18" class="edge">
<title>event::emit_event&#45;&gt;event::write_to_event_store</title>
<path fill="none" stroke="black" d="M156.39,-495.07C152.34,-486.62 147.34,-476.19 142.75,-466.63"/>
<polygon fill="black" stroke="black" points="145.95,-465.22 138.47,-457.71 139.64,-468.24 145.95,-465.22"/>
</g>
<!-- timestamp::now_microseconds -->
<g id="node20" class="node">
<title>timestamp::now_microseconds</title>
<ellipse fill="none" stroke="black" cx="2022.5" cy="-117" rx="79.09" ry="18"/>
<text text-anchor="middle" x="2022.5" y="-113.3" font-family="Times,serif" font-size="14.00">now_microseconds</text>
</g>
<!-- timestamp::now_seconds&#45;&gt;timestamp::now_microseconds -->
<g id="edge19" class="edge">
<title>timestamp::now_seconds&#45;&gt;timestamp::now_microseconds</title>
<path fill="none" stroke="black" d="M2022.5,-170.7C2022.5,-163.41 2022.5,-154.73 2022.5,-146.54"/>
<polygon fill="black" stroke="black" points="2026,-146.62 2022.5,-136.62 2019,-146.62 2026,-146.62"/>
</g>
<!-- simple_map::borrow&#45;&gt;option::extract -->
<g id="edge20" class="edge">
<title>simple_map::borrow&#45;&gt;option::extract</title>
<path fill="none" stroke="black" d="M870.07,-421.24C849.46,-400.19 811.77,-361.75 779.5,-329 739.58,-288.48 728.73,-279.2 689.5,-238 682.06,-230.18 674.05,-221.52 666.93,-213.73"/>
<polygon fill="black" stroke="black" points="669.96,-211.86 660.64,-206.82 664.78,-216.57 669.96,-211.86"/>
</g>
<!-- simple_map::borrow&#45;&gt;option::is_some -->
<g id="edge21" class="edge">
<title>simple_map::borrow&#45;&gt;option::is_some</title>
<path fill="none" stroke="black" d="M881.05,-419.8C866.25,-363.06 818.74,-184.22 802.5,-163 793.83,-151.66 781.4,-142.46 769.32,-135.4"/>
<polygon fill="black" stroke="black" points="771.12,-132.4 760.66,-130.7 767.78,-138.55 771.12,-132.4"/>
</g>
<!-- error::invalid_argument -->
<g id="node21" class="node">
<title>error::invalid_argument</title>
<ellipse fill="none" stroke="black" cx="1619.5" cy="-355" rx="73.39" ry="18"/>
<text text-anchor="middle" x="1619.5" y="-351.3" font-family="Times,serif" font-size="14.00">invalid_argument</text>
</g>
<!-- simple_map::borrow&#45;&gt;error::invalid_argument -->
<g id="edge22" class="edge">
<title>simple_map::borrow&#45;&gt;error::invalid_argument</title>
<path fill="none" stroke="black" d="M917.66,-429.11C942.56,-423.35 978.01,-415.88 1009.5,-412 1085.46,-402.63 1105.21,-409.95 1181.5,-404 1309.23,-394.04 1457.3,-376.57 1544.43,-365.68"/>
<polygon fill="black" stroke="black" points="1544.8,-369.16 1554.29,-364.44 1543.93,-362.21 1544.8,-369.16"/>
</g>
<!-- simple_map::find -->
<g id="node22" class="node">
<title>simple_map::find</title>
<ellipse fill="none" stroke="black" cx="743.5" cy="-355" rx="27" ry="18"/>
<text text-anchor="middle" x="743.5" y="-351.3" font-family="Times,serif" font-size="14.00">find</text>
</g>
<!-- simple_map::borrow&#45;&gt;simple_map::find -->
<g id="edge23" class="edge">
<title>simple_map::borrow&#45;&gt;simple_map::find</title>
<path fill="none" stroke="black" d="M862.24,-424.02C855,-420.07 846.96,-415.78 839.5,-412 832.05,-408.23 829.86,-407.95 822.5,-404 805.39,-394.81 786.79,-383.57 771.95,-374.29"/>
<polygon fill="black" stroke="black" points="773.93,-371.4 763.61,-369.02 770.2,-377.32 773.93,-371.4"/>
</g>
<!-- simple_map::contains_key&#45;&gt;option::is_some -->
<g id="edge24" class="edge">
<title>simple_map::contains_key&#45;&gt;option::is_some</title>
<path fill="none" stroke="black" d="M778.7,-419.67C791.15,-374.88 818.83,-252.52 779.5,-163 775.56,-154.03 768.86,-146.07 761.65,-139.42"/>
<polygon fill="black" stroke="black" points="764.16,-136.97 754.25,-133.23 759.67,-142.33 764.16,-136.97"/>
</g>
<!-- simple_map::contains_key&#45;&gt;simple_map::find -->
<g id="edge25" class="edge">
<title>simple_map::contains_key&#45;&gt;simple_map::find</title>
<path fill="none" stroke="black" d="M767.14,-419.82C763.22,-409.23 758.1,-395.4 753.62,-383.33"/>
<polygon fill="black" stroke="black" points="757.03,-382.46 750.28,-374.29 750.47,-384.89 757.03,-382.46"/>
</g>
<!-- can_be_resolved_early&#45;&gt;option::is_some -->
<g id="edge27" class="edge">
<title>can_be_resolved_early&#45;&gt;option::is_some</title>
<path fill="none" stroke="black" d="M943.59,-253.74C925.23,-230.28 889.48,-188.36 850.5,-163 827.64,-148.13 799.16,-137.18 775.68,-129.81"/>
<polygon fill="black" stroke="black" points="776.98,-126.54 766.39,-127.01 774.96,-133.25 776.98,-126.54"/>
</g>
<!-- option::borrow -->
<g id="node23" class="node">
<title>option::borrow</title>
<ellipse fill="none" stroke="black" cx="734.5" cy="-189" rx="36.29" ry="18"/>
<text text-anchor="middle" x="734.5" y="-185.3" font-family="Times,serif" font-size="14.00">borrow</text>
</g>
<!-- can_be_resolved_early&#45;&gt;option::borrow -->
<g id="edge26" class="edge">
<title>can_be_resolved_early&#45;&gt;option::borrow</title>
<path fill="none" stroke="black" d="M914.22,-255.57C873.83,-240.84 813.43,-218.8 773.99,-204.41"/>
<polygon fill="black" stroke="black" points="775.23,-201.13 764.64,-200.99 772.83,-207.71 775.23,-201.13"/>
</g>
<!-- is_proposal_resolvable&#45;&gt;string::utf8 -->
<g id="edge28" class="edge">
<title>is_proposal_resolvable&#45;&gt;string::utf8</title>
<path fill="none" stroke="black" d="M1057.48,-510.37C888.28,-507.07 540.22,-498.87 516.5,-487 506.74,-482.11 498.57,-473.53 492.28,-464.96"/>
<polygon fill="black" stroke="black" points="495.28,-463.14 486.83,-456.75 489.45,-467.02 495.28,-463.14"/>
</g>
<!-- is_proposal_resolvable&#45;&gt;table::borrow_mut -->
<g id="edge31" class="edge">
<title>is_proposal_resolvable&#45;&gt;table::borrow_mut</title>
<path fill="none" stroke="black" d="M1173.93,-495.53C1176.76,-492.93 1179.38,-490.08 1181.5,-487 1202.54,-456.54 1227.29,-352.23 1238.48,-301.36"/>
<polygon fill="black" stroke="black" points="1241.87,-302.21 1240.58,-291.7 1235.03,-300.73 1241.87,-302.21"/>
</g>
<!-- is_proposal_resolvable&#45;&gt;timestamp::now_seconds -->
<g id="edge34" class="edge">
<title>is_proposal_resolvable&#45;&gt;timestamp::now_seconds</title>
<path fill="none" stroke="black" d="M1239.15,-509.98C1324.61,-507.28 1456.15,-501.07 1569.5,-487 1765.69,-462.65 1874.83,-551.47 2006.5,-404 2052.4,-352.6 2040.33,-263.75 2030.09,-218.41"/>
<polygon fill="black" stroke="black" points="2033.53,-217.73 2027.79,-208.83 2026.72,-219.37 2033.53,-217.73"/>
</g>
<!-- is_proposal_resolvable&#45;&gt;simple_map::borrow -->
<g id="edge35" class="edge">
<title>is_proposal_resolvable&#45;&gt;simple_map::borrow</title>
<path fill="none" stroke="black" d="M1075.76,-501.62C1054.24,-497.82 1030.75,-492.96 1009.5,-487 979.44,-478.56 946.52,-465.64 922.16,-455.32"/>
<polygon fill="black" stroke="black" points="923.57,-452.12 913,-451.39 920.81,-458.55 923.57,-452.12"/>
</g>
<!-- is_proposal_resolvable&#45;&gt;error::invalid_argument -->
<g id="edge29" class="edge">
<title>is_proposal_resolvable&#45;&gt;error::invalid_argument</title>
<path fill="none" stroke="black" d="M1239.62,-510.32C1291.8,-507.74 1351.05,-501.55 1372.5,-487 1403.77,-465.79 1382.95,-435.53 1412.5,-412 1448.25,-383.53 1497.31,-369.49 1538.69,-362.58"/>
<polygon fill="black" stroke="black" points="1539.02,-366.07 1548.37,-361.09 1537.95,-359.16 1539.02,-366.07"/>
</g>
<!-- error::invalid_state -->
<g id="node24" class="node">
<title>error::invalid_state</title>
<ellipse fill="none" stroke="black" cx="1766.5" cy="-355" rx="55.79" ry="18"/>
<text text-anchor="middle" x="1766.5" y="-351.3" font-family="Times,serif" font-size="14.00">invalid_state</text>
</g>
<!-- is_proposal_resolvable&#45;&gt;error::invalid_state -->
<g id="edge30" class="edge">
<title>is_proposal_resolvable&#45;&gt;error::invalid_state</title>
<path fill="none" stroke="black" d="M1238.25,-508.7C1351.55,-501.43 1549.94,-478.18 1701.5,-404 1714.79,-397.5 1728.16,-388.2 1739.3,-379.52"/>
<polygon fill="black" stroke="black" points="1741.3,-382.4 1746.89,-373.4 1736.91,-376.95 1741.3,-382.4"/>
</g>
<!-- from_bcs::to_u64 -->
<g id="node25" class="node">
<title>from_bcs::to_u64</title>
<ellipse fill="none" stroke="black" cx="657.5" cy="-438" rx="35.19" ry="18"/>
<text text-anchor="middle" x="657.5" y="-434.3" font-family="Times,serif" font-size="14.00">to_u64</text>
</g>
<!-- is_proposal_resolvable&#45;&gt;from_bcs::to_u64 -->
<g id="edge32" class="edge">
<title>is_proposal_resolvable&#45;&gt;from_bcs::to_u64</title>
<path fill="none" stroke="black" d="M1057.41,-510.38C936.8,-507.69 735.68,-501.15 704.5,-487 693.35,-481.94 683.44,-472.95 675.63,-464.12"/>
<polygon fill="black" stroke="black" points="678.56,-462.16 669.51,-456.65 673.14,-466.6 678.56,-462.16"/>
</g>
<!-- transaction_context::get_script_hash -->
<g id="node26" class="node">
<title>transaction_context::get_script_hash</title>
<ellipse fill="none" stroke="black" cx="1294.5" cy="-438" rx="65.79" ry="18"/>
<text text-anchor="middle" x="1294.5" y="-434.3" font-family="Times,serif" font-size="14.00">get_script_hash</text>
</g>
<!-- is_proposal_resolvable&#45;&gt;transaction_context::get_script_hash -->
<g id="edge33" class="edge">
<title>is_proposal_resolvable&#45;&gt;transaction_context::get_script_hash</title>
<path fill="none" stroke="black" d="M1191.93,-496.82C1199.55,-493.79 1207.34,-490.47 1214.5,-487 1230.1,-479.44 1246.64,-469.81 1260.61,-461.17"/>
<polygon fill="black" stroke="black" points="1262.39,-464.18 1268.99,-455.89 1258.66,-458.26 1262.39,-464.18"/>
</g>
<!-- get_proposal_state -->
<g id="node27" class="node">
<title>get_proposal_state</title>
<ellipse fill="none" stroke="black" cx="1095.5" cy="-438" rx="76.89" ry="18"/>
<text text-anchor="middle" x="1095.5" y="-434.3" font-family="Times,serif" font-size="14.00">get_proposal_state</text>
</g>
<!-- is_proposal_resolvable&#45;&gt;get_proposal_state -->
<g id="edge36" class="edge">
<title>is_proposal_resolvable&#45;&gt;get_proposal_state</title>
<path fill="none" stroke="black" d="M1135.94,-494.7C1129.61,-485.97 1121.78,-475.2 1114.71,-465.46"/>
<polygon fill="black" stroke="black" points="1117.57,-463.44 1108.86,-457.4 1111.91,-467.55 1117.57,-463.44"/>
</g>
<!-- vector::is_empty -->
<g id="node28" class="node">
<title>vector::is_empty</title>
<ellipse fill="none" stroke="black" cx="662.5" cy="-34" rx="43.59" ry="18"/>
<text text-anchor="middle" x="662.5" y="-30.3" font-family="Times,serif" font-size="14.00">is_empty</text>
</g>
<!-- option::is_some&#45;&gt;vector::is_empty -->
<g id="edge37" class="edge">
<title>option::is_some&#45;&gt;vector::is_empty</title>
<path fill="none" stroke="black" d="M716.74,-99.61C707.16,-88.19 694.2,-72.75 683.35,-59.83"/>
<polygon fill="black" stroke="black" points="686.33,-57.93 677.22,-52.53 680.97,-62.44 686.33,-57.93"/>
</g>
<!-- error::invalid_argument&#45;&gt;error::canonical -->
<g id="edge38" class="edge">
<title>error::invalid_argument&#45;&gt;error::canonical</title>
<path fill="none" stroke="black" d="M1648.55,-338C1672.23,-324.95 1705.77,-306.47 1731.03,-292.54"/>
<polygon fill="black" stroke="black" points="1732.56,-295.7 1739.63,-287.81 1729.19,-289.57 1732.56,-295.7"/>
</g>
<!-- option::none -->
<g id="node29" class="node">
<title>option::none</title>
<ellipse fill="none" stroke="black" cx="565.5" cy="-189" rx="27.9" ry="18"/>
<text text-anchor="middle" x="565.5" y="-185.3" font-family="Times,serif" font-size="14.00">none</text>
</g>
<!-- simple_map::find&#45;&gt;option::none -->
<g id="edge39" class="edge">
<title>simple_map::find&#45;&gt;option::none</title>
<path fill="none" stroke="black" d="M725.49,-341.25C697.57,-321.04 642.87,-279.66 602.5,-238 595.71,-230.99 588.98,-222.75 583.16,-215.1"/>
<polygon fill="black" stroke="black" points="585.99,-213.04 577.23,-207.07 580.36,-217.2 585.99,-213.04"/>
</g>
<!-- option::some -->
<g id="node30" class="node">
<title>option::some</title>
<ellipse fill="none" stroke="black" cx="489.5" cy="-189" rx="29.8" ry="18"/>
<text text-anchor="middle" x="489.5" y="-185.3" font-family="Times,serif" font-size="14.00">some</text>
</g>
<!-- simple_map::find&#45;&gt;option::some -->
<g id="edge40" class="edge">
<title>simple_map::find&#45;&gt;option::some</title>
<path fill="none" stroke="black" d="M726.58,-340.6C720.04,-336.14 712.27,-331.63 704.5,-329 663.95,-315.26 647.18,-339.37 608.5,-321 561.13,-298.49 524.02,-247.76 504.55,-216.44"/>
<polygon fill="black" stroke="black" points="507.58,-214.69 499.42,-207.93 501.59,-218.3 507.58,-214.69"/>
</g>
<!-- option::borrow&#45;&gt;option::is_some -->
<g id="edge41" class="edge">
<title>option::borrow&#45;&gt;option::is_some</title>
<path fill="none" stroke="black" d="M733.51,-170.7C733.1,-163.41 732.6,-154.73 732.13,-146.54"/>
<polygon fill="black" stroke="black" points="735.63,-146.4 731.57,-136.62 728.64,-146.8 735.63,-146.4"/>
</g>
<!-- error::invalid_state&#45;&gt;error::canonical -->
<g id="edge42" class="edge">
<title>error::invalid_state&#45;&gt;error::canonical</title>
<path fill="none" stroke="black" d="M1766.5,-336.82C1766.5,-326.69 1766.5,-313.6 1766.5,-301.92"/>
<polygon fill="black" stroke="black" points="1770,-301.95 1766.5,-291.95 1763,-301.95 1770,-301.95"/>
</g>
<!-- from_bcs::to_u64&#45;&gt;from_bcs::from_bytes -->
<g id="edge43" class="edge">
<title>from_bcs::to_u64&#45;&gt;from_bcs::from_bytes</title>
<path fill="none" stroke="black" d="M647.77,-420.22C641.51,-409.43 633.23,-395.17 626.07,-382.84"/>
<polygon fill="black" stroke="black" points="629.2,-381.24 621.15,-374.35 623.14,-384.76 629.2,-381.24"/>
</g>
<!-- table::borrow -->
<g id="node31" class="node">
<title>table::borrow</title>
<ellipse fill="none" stroke="black" cx="1110.5" cy="-272" rx="36.29" ry="18"/>
<text text-anchor="middle" x="1110.5" y="-268.3" font-family="Times,serif" font-size="14.00">borrow</text>
</g>
<!-- get_proposal_state&#45;&gt;table::borrow -->
<g id="edge44" class="edge">
<title>get_proposal_state&#45;&gt;table::borrow</title>
<path fill="none" stroke="black" d="M1046.77,-423.85C1037.56,-419.11 1029.07,-412.68 1023.5,-404 1005.5,-375.95 1002.81,-355.13 1023.5,-329 1033.14,-316.83 1043.76,-328.22 1057.5,-321 1069,-314.96 1079.95,-305.85 1088.88,-297.18"/>
<polygon fill="black" stroke="black" points="1091.22,-299.79 1095.71,-290.2 1086.21,-294.89 1091.22,-299.79"/>
</g>
<!-- is_voting_closed -->
<g id="node32" class="node">
<title>is_voting_closed</title>
<ellipse fill="none" stroke="black" cx="1102.5" cy="-355" rx="70.39" ry="18"/>
<text text-anchor="middle" x="1102.5" y="-351.3" font-family="Times,serif" font-size="14.00">is_voting_closed</text>
</g>
<!-- get_proposal_state&#45;&gt;is_voting_closed -->
<g id="edge45" class="edge">
<title>get_proposal_state&#45;&gt;is_voting_closed</title>
<path fill="none" stroke="black" d="M1096.99,-419.82C1097.87,-409.58 1099.02,-396.33 1100.04,-384.55"/>
<polygon fill="black" stroke="black" points="1103.49,-385.2 1100.87,-374.94 1096.52,-384.6 1103.49,-385.2"/>
</g>
<!-- vector::singleton -->
<g id="node33" class="node">
<title>vector::singleton</title>
<ellipse fill="none" stroke="black" cx="558.5" cy="-34" rx="42.79" ry="18"/>
<text text-anchor="middle" x="558.5" y="-30.3" font-family="Times,serif" font-size="14.00">singleton</text>
</g>
<!-- option::some&#45;&gt;vector::singleton -->
<g id="edge46" class="edge">
<title>option::some&#45;&gt;vector::singleton</title>
<path fill="none" stroke="black" d="M497.02,-171.34C508.83,-145.15 531.86,-94.09 546.13,-62.43"/>
<polygon fill="black" stroke="black" points="549.24,-64.05 550.16,-53.49 542.86,-61.17 549.24,-64.05"/>
</g>
<!-- table::borrow_box -->
<g id="node34" class="node">
<title>table::borrow_box</title>
<ellipse fill="none" stroke="black" cx="1118.5" cy="-189" rx="53.89" ry="18"/>
<text text-anchor="middle" x="1118.5" y="-185.3" font-family="Times,serif" font-size="14.00">borrow_box</text>
</g>
<!-- table::borrow&#45;&gt;table::borrow_box -->
<g id="edge47" class="edge">
<title>table::borrow&#45;&gt;table::borrow_box</title>
<path fill="none" stroke="black" d="M1112.2,-253.82C1113.21,-243.58 1114.52,-230.33 1115.68,-218.55"/>
<polygon fill="black" stroke="black" points="1119.13,-219.23 1116.63,-208.94 1112.17,-218.55 1119.13,-219.23"/>
</g>
<!-- is_voting_closed&#45;&gt;table::borrow_mut -->
<g id="edge48" class="edge">
<title>is_voting_closed&#45;&gt;table::borrow_mut</title>
<path fill="none" stroke="black" d="M1130.22,-338.19C1152.54,-325.46 1184.08,-307.47 1208.37,-293.61"/>
<polygon fill="black" stroke="black" points="1210.03,-296.69 1216.98,-288.7 1206.56,-290.61 1210.03,-296.69"/>
</g>
<!-- is_voting_closed&#45;&gt;can_be_resolved_early -->
<g id="edge49" class="edge">
<title>is_voting_closed&#45;&gt;can_be_resolved_early</title>
<path fill="none" stroke="black" d="M1074.01,-338.19C1051.76,-325.85 1020.6,-308.56 995.96,-294.89"/>
<polygon fill="black" stroke="black" points="997.95,-291.99 987.5,-290.2 994.55,-298.11 997.95,-291.99"/>
</g>
<!-- is_voting_period_over -->
<g id="node35" class="node">
<title>is_voting_period_over</title>
<ellipse fill="none" stroke="black" cx="1440.5" cy="-272" rx="90.18" ry="18"/>
<text text-anchor="middle" x="1440.5" y="-268.3" font-family="Times,serif" font-size="14.00">is_voting_period_over</text>
</g>
<!-- is_voting_closed&#45;&gt;is_voting_period_over -->
<g id="edge50" class="edge">
<title>is_voting_closed&#45;&gt;is_voting_period_over</title>
<path fill="none" stroke="black" d="M1171.42,-350.88C1221.05,-347.15 1289.08,-338.97 1346.5,-321 1366.34,-314.79 1387.06,-304.66 1403.98,-295.3"/>
<polygon fill="black" stroke="black" points="1405.7,-298.35 1412.67,-290.36 1402.24,-292.26 1405.7,-298.35"/>
</g>
<!-- is_voting_period_over&#45;&gt;timestamp::now_seconds -->
<g id="edge51" class="edge">
<title>is_voting_period_over&#45;&gt;timestamp::now_seconds</title>
<path fill="none" stroke="black" d="M1489.47,-256.53C1503.88,-252.67 1519.74,-248.8 1534.5,-246 1683.31,-217.83 1860.5,-201.79 1955.09,-194.61"/>
<polygon fill="black" stroke="black" points="1955.26,-198.11 1964.98,-193.87 1954.74,-191.13 1955.26,-198.11"/>
</g>
</g>
</svg>
