<?xml version="1.0" encoding="utf-8"?>
<!-- Generator: Adobe Illustrator 26.1.0, SVG Export Plug-In . SVG Version: 6.00 Build 0)  -->
<svg version="1.2" baseProfile="tiny" id="icon-light" xmlns="http://www.w3.org/2000/svg" xmlns:xlink="http://www.w3.org/1999/xlink"
	 x="0px" y="0px" width="100%" height="100%" viewBox="0 0 30 30" overflow="visible" xml:space="preserve">
<g>
	<path fill="currentColor" d="M5.6,15v-0.4c0-0.3-0.3-0.6-0.6-0.6l-4.5,0c-0.3,0-0.6,0.3-0.6,0.6V15c0,0.3,0.3,0.6,0.6,0.6l4.5,0
		C5.3,15.6,5.6,15.4,5.6,15z"/>
	<path fill="currentColor" d="M7.5,8.4c0.2,0.2,0.6,0.2,0.8,0l0.3-0.3c0.2-0.2,0.2-0.6,0-0.8L5.4,4.1c-0.2-0.2-0.6-0.2-0.8,0L4.4,4.4
		C4.1,4.6,4.1,5,4.4,5.2L7.5,8.4z"/>
	<path fill="currentColor" d="M15,5.6h0.4c0.3,0,0.6-0.3,0.6-0.6l0-4.5c0-0.3-0.3-0.6-0.6-0.6H15c-0.3,0-0.6,0.3-0.6,0.6l0,4.5
		C14.4,5.3,14.6,5.6,15,5.6z"/>
	<path fill="currentColor" d="M21.9,8.6c0.2,0.2,0.6,0.2,0.8,0l3.2-3.2c0.2-0.2,0.2-0.6,0-0.8l-0.3-0.3c-0.2-0.2-0.6-0.2-0.8,0l-3.2,3.2
		c-0.2,0.2-0.2,0.6,0,0.8L21.9,8.6z"/>
	<path fill="currentColor" d="M22.5,21.6c-0.2-0.2-0.6-0.2-0.8,0l-0.3,0.3c-0.2,0.2-0.2,0.6,0,0.8l3.2,3.2c0.2,0.2,0.6,0.2,0.8,0l0.3-0.3
		c0.2-0.2,0.2-0.6,0-0.8L22.5,21.6z"/>
	<path fill="currentColor" d="M15.2,7.1c-4.3,0-7.9,3.5-7.9,7.9c0,4.3,3.5,7.9,7.9,7.9c4.3,0,7.9-3.5,7.9-7.9C23,10.7,19.5,7.1,15.2,7.1z
		 M15.2,21.2c-3.4,0-6.2-2.8-6.2-6.2s2.8-6.2,6.2-6.2c3.4,0,6.2,2.8,6.2,6.2C21.4,18.4,18.6,21.2,15.2,21.2z"/>
	<path fill="currentColor" d="M29.4,14.4H25c-0.3,0-0.6,0.3-0.6,0.6v0.4c0,0.3,0.3,0.6,0.6,0.6h4.5c0.3,0,0.6-0.3,0.6-0.6V15
		C30,14.6,29.7,14.4,29.4,14.4z"/>
	<path fill="currentColor" d="M15,24.4h-0.4c-0.3,0-0.6,0.2-0.6,0.6v4.5c0,0.3,0.3,0.6,0.6,0.6l0.4,0c0.3,0,0.6-0.3,0.6-0.6V25
		C15.6,24.7,15.4,24.4,15,24.4z"/>
	<path fill="currentColor" d="M8.1,21.4c-0.2-0.2-0.6-0.2-0.8,0l-3.2,3.2c-0.2,0.2-0.2,0.6,0,0.8l0.3,0.3c0.2,0.2,0.6,0.2,0.8,0l3.2-3.2
		c0.2-0.2,0.2-0.6,0-0.8L8.1,21.4z"/>
</g>
</svg>
