<svg fill="currentColor" width="100%" height="100%" viewBox="0 0 337 338"><path d="M142.8 1.00001C97.093 1.01954 54.159 22.918 27.31 59.902C0.458017 96.89 -7.06898 144.492 7.06402 187.952C21.201 231.417 55.283 265.491 98.755 279.612C142.224 293.729 189.825 286.186 226.805 259.323L297.926 330.444C303.586 336.104 311.84 338.315 319.574 336.245C327.308 334.171 333.347 328.131 335.422 320.397C337.492 312.662 335.281 304.409 329.621 298.749L258.5 227.628C279.273 199.077 288.719 163.839 285.02 128.726C281.317 93.6128 264.731 61.1208 238.461 37.5268C212.195 13.9328 178.109 0.917801 142.805 0.995801L142.8 1.00001ZM142.8 241.8C116.808 241.8 91.882 231.476 73.503 213.097C55.124 194.718 44.8 169.792 44.8 143.8C44.8 117.808 55.124 92.882 73.503 74.503C91.882 56.124 116.808 45.8 142.8 45.8C168.792 45.8 193.718 56.124 212.097 74.503C230.476 92.882 240.8 117.808 240.8 143.8C240.769 169.78 230.437 194.691 212.062 213.062C193.691 231.437 168.781 241.769 142.8 241.8V241.8Z" fill="black"/></svg>
