<?xml version="1.0" encoding="UTF-8" standalone="no"?>
<!DOCTYPE svg PUBLIC "-//W3C//DTD SVG 1.1//EN"
 "http://www.w3.org/Graphics/SVG/1.1/DTD/svg11.dtd">
<!-- Generated by graphviz version 7.0.4 (20221203.1631)
 -->
<!-- Title: G Pages: 1 -->
<svg width="290pt" height="210pt"
 viewBox="0.00 0.00 290.00 210.00" xmlns="http://www.w3.org/2000/svg" xmlns:xlink="http://www.w3.org/1999/xlink">
<g id="graph0" class="graph" transform="scale(1 1) rotate(0) translate(4 206)">
<title>G</title>
<polygon fill="white" stroke="none" points="-4,4 -4,-206 286,-206 286,4 -4,4"/>
<g id="clust1" class="cluster">
<title>cluster_error</title>
<polygon fill="none" stroke="black" points="8,-8 8,-158 170,-158 170,-8 8,-8"/>
<text text-anchor="middle" x="89" y="-142.8" font-family="Times,serif" font-size="14.00">error</text>
</g>
<g id="clust2" class="cluster">
<title>cluster_vector</title>
<polygon fill="none" stroke="black" points="178,-8 178,-83 274,-83 274,-8 178,-8"/>
<text text-anchor="middle" x="226" y="-67.8" font-family="Times,serif" font-size="14.00">vector</text>
</g>
<!-- assert_contains -->
<g id="node1" class="node">
<title>assert_contains</title>
<ellipse fill="none" stroke="black" cx="156" cy="-184" rx="64.19" ry="18"/>
<text text-anchor="middle" x="156" y="-180.3" font-family="Times,serif" font-size="14.00">assert_contains</text>
</g>
<!-- error::invalid_argument -->
<g id="node2" class="node">
<title>error::invalid_argument</title>
<ellipse fill="none" stroke="black" cx="89" cy="-109" rx="73.39" ry="18"/>
<text text-anchor="middle" x="89" y="-105.3" font-family="Times,serif" font-size="14.00">invalid_argument</text>
</g>
<!-- assert_contains&#45;&gt;error::invalid_argument -->
<g id="edge1" class="edge">
<title>assert_contains&#45;&gt;error::invalid_argument</title>
<path fill="none" stroke="black" d="M140.46,-166.07C132,-156.86 121.38,-145.28 111.98,-135.04"/>
<polygon fill="black" stroke="black" points="114.82,-132.96 105.48,-127.95 109.66,-137.69 114.82,-132.96"/>
</g>
<!-- contains -->
<g id="node3" class="node">
<title>contains</title>
<ellipse fill="none" stroke="black" cx="223" cy="-109" rx="40.09" ry="18"/>
<text text-anchor="middle" x="223" y="-105.3" font-family="Times,serif" font-size="14.00">contains</text>
</g>
<!-- assert_contains&#45;&gt;contains -->
<g id="edge2" class="edge">
<title>assert_contains&#45;&gt;contains</title>
<path fill="none" stroke="black" d="M171.54,-166.07C180.18,-156.66 191.08,-144.78 200.62,-134.39"/>
<polygon fill="black" stroke="black" points="203.03,-136.94 207.21,-127.2 197.87,-132.2 203.03,-136.94"/>
</g>
<!-- error::canonical -->
<g id="node4" class="node">
<title>error::canonical</title>
<ellipse fill="none" stroke="black" cx="89" cy="-34" rx="44.39" ry="18"/>
<text text-anchor="middle" x="89" y="-30.3" font-family="Times,serif" font-size="14.00">canonical</text>
</g>
<!-- error::invalid_argument&#45;&gt;error::canonical -->
<g id="edge3" class="edge">
<title>error::invalid_argument&#45;&gt;error::canonical</title>
<path fill="none" stroke="black" d="M89,-90.7C89,-82.67 89,-72.9 89,-63.8"/>
<polygon fill="black" stroke="black" points="92.5,-63.94 89,-53.94 85.5,-63.94 92.5,-63.94"/>
</g>
<!-- vector::contains -->
<g id="node5" class="node">
<title>vector::contains</title>
<ellipse fill="none" stroke="black" cx="226" cy="-34" rx="40.09" ry="18"/>
<text text-anchor="middle" x="226" y="-30.3" font-family="Times,serif" font-size="14.00">contains</text>
</g>
<!-- contains&#45;&gt;vector::contains -->
<g id="edge4" class="edge">
<title>contains&#45;&gt;vector::contains</title>
<path fill="none" stroke="black" d="M223.71,-90.7C224.04,-82.67 224.44,-72.9 224.82,-63.8"/>
<polygon fill="black" stroke="black" points="228.31,-64.08 225.22,-53.94 221.31,-63.79 228.31,-64.08"/>
</g>
</g>
</svg>
