<?xml version="1.0" encoding="UTF-8" standalone="no"?>
<!DOCTYPE svg PUBLIC "-//W3C//DTD SVG 1.1//EN"
 "http://www.w3.org/Graphics/SVG/1.1/DTD/svg11.dtd">
<!-- Generated by graphviz version 7.0.4 (20221203.1631)
 -->
<!-- Title: G Pages: 1 -->
<svg width="388pt" height="207pt"
 viewBox="0.00 0.00 388.00 207.00" xmlns="http://www.w3.org/2000/svg" xmlns:xlink="http://www.w3.org/1999/xlink">
<g id="graph0" class="graph" transform="scale(1 1) rotate(0) translate(4 203)">
<title>G</title>
<polygon fill="white" stroke="none" points="-4,4 -4,-203 384,-203 384,4 -4,4"/>
<g id="clust1" class="cluster">
<title>cluster_vector</title>
<polygon fill="none" stroke="black" points="8,-80 8,-155 202,-155 202,-80 8,-80"/>
<text text-anchor="middle" x="105" y="-139.8" font-family="Times,serif" font-size="14.00">vector</text>
</g>
<g id="clust2" class="cluster">
<title>cluster_error</title>
<polygon fill="none" stroke="black" points="210,-8 210,-155 372,-155 372,-8 210,-8"/>
<text text-anchor="middle" x="291" y="-139.8" font-family="Times,serif" font-size="14.00">error</text>
</g>
<!-- remove -->
<g id="node1" class="node">
<title>remove</title>
<ellipse fill="none" stroke="black" cx="152" cy="-181" rx="37.89" ry="18"/>
<text text-anchor="middle" x="152" y="-177.3" font-family="Times,serif" font-size="14.00">remove</text>
</g>
<!-- vector::index_of -->
<g id="node2" class="node">
<title>vector::index_of</title>
<ellipse fill="none" stroke="black" cx="152" cy="-106" rx="42.49" ry="18"/>
<text text-anchor="middle" x="152" y="-102.3" font-family="Times,serif" font-size="14.00">index_of</text>
</g>
<!-- remove&#45;&gt;vector::index_of -->
<g id="edge1" class="edge">
<title>remove&#45;&gt;vector::index_of</title>
<path fill="none" stroke="black" d="M152,-162.7C152,-154.67 152,-144.9 152,-135.8"/>
<polygon fill="black" stroke="black" points="155.5,-135.94 152,-125.94 148.5,-135.94 155.5,-135.94"/>
</g>
<!-- vector::remove -->
<g id="node3" class="node">
<title>vector::remove</title>
<ellipse fill="none" stroke="black" cx="54" cy="-106" rx="37.89" ry="18"/>
<text text-anchor="middle" x="54" y="-102.3" font-family="Times,serif" font-size="14.00">remove</text>
</g>
<!-- remove&#45;&gt;vector::remove -->
<g id="edge2" class="edge">
<title>remove&#45;&gt;vector::remove</title>
<path fill="none" stroke="black" d="M124.02,-168.4C116.26,-164.63 108.03,-160.08 101,-155 91.7,-148.28 82.6,-139.63 74.93,-131.53"/>
<polygon fill="black" stroke="black" points="77.56,-129.23 68.24,-124.19 72.39,-133.94 77.56,-129.23"/>
</g>
<!-- error::invalid_argument -->
<g id="node4" class="node">
<title>error::invalid_argument</title>
<ellipse fill="none" stroke="black" cx="291" cy="-106" rx="73.39" ry="18"/>
<text text-anchor="middle" x="291" y="-102.3" font-family="Times,serif" font-size="14.00">invalid_argument</text>
</g>
<!-- remove&#45;&gt;error::invalid_argument -->
<g id="edge3" class="edge">
<title>remove&#45;&gt;error::invalid_argument</title>
<path fill="none" stroke="black" d="M179.12,-167.96C187.78,-163.98 197.36,-159.43 206,-155 221.93,-146.83 239.18,-137.23 253.96,-128.77"/>
<polygon fill="black" stroke="black" points="255.52,-131.91 262.43,-123.89 252.02,-125.85 255.52,-131.91"/>
</g>
<!-- error::canonical -->
<g id="node5" class="node">
<title>error::canonical</title>
<ellipse fill="none" stroke="black" cx="291" cy="-34" rx="44.39" ry="18"/>
<text text-anchor="middle" x="291" y="-30.3" font-family="Times,serif" font-size="14.00">canonical</text>
</g>
<!-- error::invalid_argument&#45;&gt;error::canonical -->
<g id="edge4" class="edge">
<title>error::invalid_argument&#45;&gt;error::canonical</title>
<path fill="none" stroke="black" d="M291,-87.7C291,-80.41 291,-71.73 291,-63.54"/>
<polygon fill="black" stroke="black" points="294.5,-63.62 291,-53.62 287.5,-63.62 294.5,-63.62"/>
</g>
</g>
</svg>
