<?xml version="1.0" encoding="UTF-8" standalone="no"?>
<!DOCTYPE svg PUBLIC "-//W3C//DTD SVG 1.1//EN"
 "http://www.w3.org/Graphics/SVG/1.1/DTD/svg11.dtd">
<!-- Generated by graphviz version 7.0.4 (20221203.1631)
 -->
<!-- Title: G Pages: 1 -->
<svg width="146pt" height="116pt"
 viewBox="0.00 0.00 146.44 116.00" xmlns="http://www.w3.org/2000/svg" xmlns:xlink="http://www.w3.org/1999/xlink">
<g id="graph0" class="graph" transform="scale(1 1) rotate(0) translate(4 112)">
<title>G</title>
<polygon fill="white" stroke="none" points="-4,4 -4,-112 142.44,-112 142.44,4 -4,4"/>
<!-- acl -->
<g id="node1" class="node">
<title>acl</title>
<ellipse fill="none" stroke="black" cx="71.5" cy="-90" rx="27" ry="18"/>
<text text-anchor="middle" x="71.5" y="-86.3" font-family="Times,serif" font-size="14.00">acl</text>
</g>
<!-- vector -->
<g id="node2" class="node">
<title>vector</title>
<ellipse fill="none" stroke="black" cx="32.5" cy="-18" rx="32.49" ry="18"/>
<text text-anchor="middle" x="32.5" y="-14.3" font-family="Times,serif" font-size="14.00">vector</text>
</g>
<!-- acl&#45;&gt;vector -->
<g id="edge1" class="edge">
<title>acl&#45;&gt;vector</title>
<path fill="none" stroke="black" d="M62.45,-72.76C57.94,-64.67 52.37,-54.66 47.26,-45.49"/>
<polygon fill="black" stroke="black" points="50.43,-43.99 42.5,-36.96 44.31,-47.39 50.43,-43.99"/>
</g>
<!-- error -->
<g id="node3" class="node">
<title>error</title>
<ellipse fill="none" stroke="black" cx="110.5" cy="-18" rx="27.9" ry="18"/>
<text text-anchor="middle" x="110.5" y="-14.3" font-family="Times,serif" font-size="14.00">error</text>
</g>
<!-- acl&#45;&gt;error -->
<g id="edge2" class="edge">
<title>acl&#45;&gt;error</title>
<path fill="none" stroke="black" d="M80.54,-72.76C85.12,-64.55 90.79,-54.37 95.96,-45.09"/>
<polygon fill="black" stroke="black" points="98.95,-46.91 100.76,-36.47 92.84,-43.5 98.95,-46.91"/>
</g>
</g>
</svg>
