<?xml version="1.0" encoding="UTF-8" standalone="no"?>
<!DOCTYPE svg PUBLIC "-//W3C//DTD SVG 1.1//EN"
 "http://www.w3.org/Graphics/SVG/1.1/DTD/svg11.dtd">
<!-- Generated by graphviz version 7.0.4 (20221203.1631)
 -->
<!-- Title: G Pages: 1 -->
<svg width="366pt" height="116pt"
 viewBox="0.00 0.00 366.28 116.00" xmlns="http://www.w3.org/2000/svg" xmlns:xlink="http://www.w3.org/1999/xlink">
<g id="graph0" class="graph" transform="scale(1 1) rotate(0) translate(4 112)">
<title>G</title>
<polygon fill="white" stroke="none" points="-4,4 -4,-112 362.28,-112 362.28,4 -4,4"/>
<!-- is_index_set -->
<g id="node1" class="node">
<title>is_index_set</title>
<ellipse fill="none" stroke="black" cx="222.04" cy="-18" rx="54.69" ry="18"/>
<text text-anchor="middle" x="222.04" y="-14.3" font-family="Times,serif" font-size="14.00">is_index_set</text>
</g>
<!-- longest_set_sequence_starting_at -->
<g id="node2" class="node">
<title>longest_set_sequence_starting_at</title>
<ellipse fill="none" stroke="black" cx="128.04" cy="-90" rx="128.08" ry="18"/>
<text text-anchor="middle" x="128.04" y="-86.3" font-family="Times,serif" font-size="14.00">longest_set_sequence_starting_at</text>
</g>
<!-- longest_set_sequence_starting_at&#45;&gt;is_index_set -->
<g id="edge1" class="edge">
<title>longest_set_sequence_starting_at&#45;&gt;is_index_set</title>
<path fill="none" stroke="black" d="M150.79,-72.05C163.04,-62.94 178.3,-51.57 191.56,-41.7"/>
<polygon fill="black" stroke="black" points="193.64,-44.51 199.57,-35.73 189.46,-38.9 193.64,-44.51"/>
</g>
<!-- shift_left -->
<g id="node3" class="node">
<title>shift_left</title>
<ellipse fill="none" stroke="black" cx="316.04" cy="-90" rx="42.49" ry="18"/>
<text text-anchor="middle" x="316.04" y="-86.3" font-family="Times,serif" font-size="14.00">shift_left</text>
</g>
<!-- shift_left&#45;&gt;is_index_set -->
<g id="edge2" class="edge">
<title>shift_left&#45;&gt;is_index_set</title>
<path fill="none" stroke="black" d="M295.64,-73.81C282.97,-64.38 266.46,-52.08 252.29,-41.53"/>
<polygon fill="black" stroke="black" points="254.7,-38.96 244.59,-35.79 250.52,-44.57 254.7,-38.96"/>
</g>
</g>
</svg>
