<?xml version="1.0" encoding="UTF-8" standalone="no"?>
<!DOCTYPE svg PUBLIC "-//W3C//DTD SVG 1.1//EN"
 "http://www.w3.org/Graphics/SVG/1.1/DTD/svg11.dtd">
<!-- Generated by graphviz version 7.0.4 (20221203.1631)
 -->
<!-- Title: G Pages: 1 -->
<svg width="266pt" height="116pt"
 viewBox="0.00 0.00 265.84 116.00" xmlns="http://www.w3.org/2000/svg" xmlns:xlink="http://www.w3.org/1999/xlink">
<g id="graph0" class="graph" transform="scale(1 1) rotate(0) translate(4 112)">
<title>G</title>
<polygon fill="white" stroke="none" points="-4,4 -4,-112 261.84,-112 261.84,4 -4,4"/>
<!-- shift_left -->
<g id="node1" class="node">
<title>shift_left</title>
<ellipse fill="none" stroke="black" cx="154.6" cy="-90" rx="42.49" ry="18"/>
<text text-anchor="middle" x="154.6" y="-86.3" font-family="Times,serif" font-size="14.00">shift_left</text>
</g>
<!-- is_index_set -->
<g id="node2" class="node">
<title>is_index_set</title>
<ellipse fill="none" stroke="black" cx="54.6" cy="-18" rx="54.69" ry="18"/>
<text text-anchor="middle" x="54.6" y="-14.3" font-family="Times,serif" font-size="14.00">is_index_set</text>
</g>
<!-- shift_left&#45;&gt;is_index_set -->
<g id="edge1" class="edge">
<title>shift_left&#45;&gt;is_index_set</title>
<path fill="none" stroke="black" d="M133.39,-74.15C119.71,-64.58 101.68,-51.96 86.32,-41.21"/>
<polygon fill="black" stroke="black" points="88.6,-38.53 78.4,-35.66 84.59,-44.27 88.6,-38.53"/>
</g>
<!-- set -->
<g id="node3" class="node">
<title>set</title>
<ellipse fill="none" stroke="black" cx="154.6" cy="-18" rx="27" ry="18"/>
<text text-anchor="middle" x="154.6" y="-14.3" font-family="Times,serif" font-size="14.00">set</text>
</g>
<!-- shift_left&#45;&gt;set -->
<g id="edge2" class="edge">
<title>shift_left&#45;&gt;set</title>
<path fill="none" stroke="black" d="M154.6,-71.7C154.6,-64.41 154.6,-55.73 154.6,-47.54"/>
<polygon fill="black" stroke="black" points="158.1,-47.62 154.6,-37.62 151.1,-47.62 158.1,-47.62"/>
</g>
<!-- unset -->
<g id="node4" class="node">
<title>unset</title>
<ellipse fill="none" stroke="black" cx="228.6" cy="-18" rx="29.5" ry="18"/>
<text text-anchor="middle" x="228.6" y="-14.3" font-family="Times,serif" font-size="14.00">unset</text>
</g>
<!-- shift_left&#45;&gt;unset -->
<g id="edge3" class="edge">
<title>shift_left&#45;&gt;unset</title>
<path fill="none" stroke="black" d="M171.39,-73.12C181.35,-63.69 194.12,-51.61 205.08,-41.25"/>
<polygon fill="black" stroke="black" points="207.42,-43.85 212.28,-34.43 202.61,-38.76 207.42,-43.85"/>
</g>
</g>
</svg>
