<?xml version="1.0" encoding="UTF-8" standalone="no"?>
<!DOCTYPE svg PUBLIC "-//W3C//DTD SVG 1.1//EN"
 "http://www.w3.org/Graphics/SVG/1.1/DTD/svg11.dtd">
<!-- Generated by graphviz version 7.0.4 (20221203.1631)
 -->
<!-- Title: G Pages: 1 -->
<svg width="1641pt" height="227pt"
 viewBox="0.00 0.00 1641.39 227.00" xmlns="http://www.w3.org/2000/svg" xmlns:xlink="http://www.w3.org/1999/xlink">
<g id="graph0" class="graph" transform="scale(1 1) rotate(0) translate(4 223)">
<title>G</title>
<polygon fill="white" stroke="none" points="-4,4 -4,-223 1637.39,-223 1637.39,4 -4,4"/>
<g id="clust1" class="cluster">
<title>cluster_acl</title>
<polygon fill="none" stroke="black" points="218.05,-136 218.05,-211 528.05,-211 528.05,-136 218.05,-136"/>
<text text-anchor="middle" x="373.05" y="-195.8" font-family="Times,serif" font-size="14.00">acl</text>
</g>
<g id="clust2" class="cluster">
<title>cluster_features</title>
<polygon fill="none" stroke="black" points="1013.05,-136 1013.05,-211 1201.05,-211 1201.05,-136 1013.05,-136"/>
<text text-anchor="middle" x="1107.05" y="-195.8" font-family="Times,serif" font-size="14.00">features</text>
</g>
<!-- canonical -->
<g id="node1" class="node">
<title>canonical</title>
<ellipse fill="none" stroke="black" cx="736.05" cy="-18" rx="44.39" ry="18"/>
<text text-anchor="middle" x="736.05" y="-14.3" font-family="Times,serif" font-size="14.00">canonical</text>
</g>
<!-- aborted -->
<g id="node2" class="node">
<title>aborted</title>
<ellipse fill="none" stroke="black" cx="37.05" cy="-90" rx="37.09" ry="18"/>
<text text-anchor="middle" x="37.05" y="-86.3" font-family="Times,serif" font-size="14.00">aborted</text>
</g>
<!-- aborted&#45;&gt;canonical -->
<g id="edge1" class="edge">
<title>aborted&#45;&gt;canonical</title>
<path fill="none" stroke="black" d="M64.41,-77.5C70.46,-75.35 76.89,-73.36 83.05,-72 299.99,-24.06 566.05,-18.42 679.97,-18.44"/>
<polygon fill="black" stroke="black" points="679.96,-21.94 689.97,-18.46 679.97,-14.94 679.96,-21.94"/>
</g>
<!-- already_exists -->
<g id="node3" class="node">
<title>already_exists</title>
<ellipse fill="none" stroke="black" cx="153.05" cy="-90" rx="61.19" ry="18"/>
<text text-anchor="middle" x="153.05" y="-86.3" font-family="Times,serif" font-size="14.00">already_exists</text>
</g>
<!-- already_exists&#45;&gt;canonical -->
<g id="edge2" class="edge">
<title>already_exists&#45;&gt;canonical</title>
<path fill="none" stroke="black" d="M197.29,-77.3C205.8,-75.32 214.67,-73.44 223.05,-72 388.43,-43.51 586.64,-28.33 680.95,-22.24"/>
<polygon fill="black" stroke="black" points="680.93,-25.75 690.69,-21.62 680.48,-18.76 680.93,-25.75"/>
</g>
<!-- internal -->
<g id="node4" class="node">
<title>internal</title>
<ellipse fill="none" stroke="black" cx="270.05" cy="-90" rx="37.89" ry="18"/>
<text text-anchor="middle" x="270.05" y="-86.3" font-family="Times,serif" font-size="14.00">internal</text>
</g>
<!-- internal&#45;&gt;canonical -->
<g id="edge3" class="edge">
<title>internal&#45;&gt;canonical</title>
<path fill="none" stroke="black" d="M298.07,-77.72C304.24,-75.56 310.8,-73.5 317.05,-72 445.12,-41.14 599.8,-27.49 680.66,-22.1"/>
<polygon fill="black" stroke="black" points="680.78,-25.6 690.53,-21.46 680.33,-18.61 680.78,-25.6"/>
</g>
<!-- invalid_argument -->
<g id="node5" class="node">
<title>invalid_argument</title>
<ellipse fill="none" stroke="black" cx="399.05" cy="-90" rx="73.39" ry="18"/>
<text text-anchor="middle" x="399.05" y="-86.3" font-family="Times,serif" font-size="14.00">invalid_argument</text>
</g>
<!-- invalid_argument&#45;&gt;canonical -->
<g id="edge4" class="edge">
<title>invalid_argument&#45;&gt;canonical</title>
<path fill="none" stroke="black" d="M453.57,-77.68C517.93,-64.31 624.05,-42.26 686.27,-29.34"/>
<polygon fill="black" stroke="black" points="686.8,-32.8 695.88,-27.34 685.38,-25.95 686.8,-32.8"/>
</g>
<!-- invalid_state -->
<g id="node6" class="node">
<title>invalid_state</title>
<ellipse fill="none" stroke="black" cx="546.05" cy="-90" rx="55.79" ry="18"/>
<text text-anchor="middle" x="546.05" y="-86.3" font-family="Times,serif" font-size="14.00">invalid_state</text>
</g>
<!-- invalid_state&#45;&gt;canonical -->
<g id="edge5" class="edge">
<title>invalid_state&#45;&gt;canonical</title>
<path fill="none" stroke="black" d="M581.78,-75.83C613.5,-64.15 659.9,-47.06 693.52,-34.67"/>
<polygon fill="black" stroke="black" points="694.35,-38.09 702.53,-31.35 691.93,-31.52 694.35,-38.09"/>
</g>
<!-- not_found -->
<g id="node7" class="node">
<title>not_found</title>
<ellipse fill="none" stroke="black" cx="667.05" cy="-90" rx="46.59" ry="18"/>
<text text-anchor="middle" x="667.05" y="-86.3" font-family="Times,serif" font-size="14.00">not_found</text>
</g>
<!-- not_found&#45;&gt;canonical -->
<g id="edge6" class="edge">
<title>not_found&#45;&gt;canonical</title>
<path fill="none" stroke="black" d="M683.05,-72.76C691.67,-64.02 702.48,-53.05 712.09,-43.31"/>
<polygon fill="black" stroke="black" points="714.54,-45.8 719.07,-36.23 709.55,-40.89 714.54,-45.8"/>
</g>
<!-- not_implemented -->
<g id="node8" class="node">
<title>not_implemented</title>
<ellipse fill="none" stroke="black" cx="805.05" cy="-90" rx="73.39" ry="18"/>
<text text-anchor="middle" x="805.05" y="-86.3" font-family="Times,serif" font-size="14.00">not_implemented</text>
</g>
<!-- not_implemented&#45;&gt;canonical -->
<g id="edge7" class="edge">
<title>not_implemented&#45;&gt;canonical</title>
<path fill="none" stroke="black" d="M788.34,-72.05C779.71,-63.29 769.02,-52.45 759.56,-42.86"/>
<polygon fill="black" stroke="black" points="762.23,-40.57 752.71,-35.91 757.24,-45.49 762.23,-40.57"/>
</g>
<!-- out_of_range -->
<g id="node9" class="node">
<title>out_of_range</title>
<ellipse fill="none" stroke="black" cx="954.05" cy="-90" rx="57.69" ry="18"/>
<text text-anchor="middle" x="954.05" y="-86.3" font-family="Times,serif" font-size="14.00">out_of_range</text>
</g>
<!-- out_of_range&#45;&gt;canonical -->
<g id="edge8" class="edge">
<title>out_of_range&#45;&gt;canonical</title>
<path fill="none" stroke="black" d="M914.82,-76.4C877.14,-64.31 820.27,-46.04 780.83,-33.38"/>
<polygon fill="black" stroke="black" points="781.98,-30.07 771.39,-30.35 779.84,-36.74 781.98,-30.07"/>
</g>
<!-- permission_denied -->
<g id="node10" class="node">
<title>permission_denied</title>
<ellipse fill="none" stroke="black" cx="1107.05" cy="-90" rx="77.19" ry="18"/>
<text text-anchor="middle" x="1107.05" y="-86.3" font-family="Times,serif" font-size="14.00">permission_denied</text>
</g>
<!-- permission_denied&#45;&gt;canonical -->
<g id="edge9" class="edge">
<title>permission_denied&#45;&gt;canonical</title>
<path fill="none" stroke="black" d="M1049.7,-77.57C1040.14,-75.69 1030.31,-73.78 1021.05,-72 939.2,-56.3 843.99,-38.74 786.95,-28.29"/>
<polygon fill="black" stroke="black" points="787.68,-24.86 777.21,-26.5 786.42,-31.75 787.68,-24.86"/>
</g>
<!-- resource_exhausted -->
<g id="node11" class="node">
<title>resource_exhausted</title>
<ellipse fill="none" stroke="black" cx="1282.05" cy="-90" rx="79.89" ry="18"/>
<text text-anchor="middle" x="1282.05" y="-86.3" font-family="Times,serif" font-size="14.00">resource_exhausted</text>
</g>
<!-- resource_exhausted&#45;&gt;canonical -->
<g id="edge10" class="edge">
<title>resource_exhausted&#45;&gt;canonical</title>
<path fill="none" stroke="black" d="M1224.22,-77.32C1213.87,-75.41 1203.15,-73.55 1193.05,-72 1048.12,-49.79 876.07,-32.18 790.3,-23.99"/>
<polygon fill="black" stroke="black" points="790.82,-20.53 780.54,-23.07 790.16,-27.5 790.82,-20.53"/>
</g>
<!-- unauthenticated -->
<g id="node12" class="node">
<title>unauthenticated</title>
<ellipse fill="none" stroke="black" cx="1446.05" cy="-90" rx="66.09" ry="18"/>
<text text-anchor="middle" x="1446.05" y="-86.3" font-family="Times,serif" font-size="14.00">unauthenticated</text>
</g>
<!-- unauthenticated&#45;&gt;canonical -->
<g id="edge11" class="edge">
<title>unauthenticated&#45;&gt;canonical</title>
<path fill="none" stroke="black" d="M1398.63,-77.2C1389.52,-75.23 1380.02,-73.38 1371.05,-72 1158.27,-39.17 902.03,-25.63 791.37,-21.02"/>
<polygon fill="black" stroke="black" points="791.82,-17.53 781.69,-20.62 791.54,-24.53 791.82,-17.53"/>
</g>
<!-- unavailable -->
<g id="node13" class="node">
<title>unavailable</title>
<ellipse fill="none" stroke="black" cx="1582.05" cy="-90" rx="51.19" ry="18"/>
<text text-anchor="middle" x="1582.05" y="-86.3" font-family="Times,serif" font-size="14.00">unavailable</text>
</g>
<!-- unavailable&#45;&gt;canonical -->
<g id="edge12" class="edge">
<title>unavailable&#45;&gt;canonical</title>
<path fill="none" stroke="black" d="M1544.57,-77.26C1536.86,-75.21 1528.74,-73.32 1521.05,-72 1250.52,-25.67 921.05,-19.42 791.83,-18.87"/>
<polygon fill="black" stroke="black" points="792.21,-15.37 782.2,-18.84 792.19,-22.37 792.21,-15.37"/>
</g>
<!-- acl::remove -->
<g id="node14" class="node">
<title>acl::remove</title>
<ellipse fill="none" stroke="black" cx="482.05" cy="-162" rx="37.89" ry="18"/>
<text text-anchor="middle" x="482.05" y="-158.3" font-family="Times,serif" font-size="14.00">remove</text>
</g>
<!-- acl::remove&#45;&gt;invalid_argument -->
<g id="edge13" class="edge">
<title>acl::remove&#45;&gt;invalid_argument</title>
<path fill="none" stroke="black" d="M464.04,-145.81C453.29,-136.75 439.42,-125.05 427.25,-114.79"/>
<polygon fill="black" stroke="black" points="429.82,-112.38 419.92,-108.6 425.31,-117.73 429.82,-112.38"/>
</g>
<!-- acl::add -->
<g id="node15" class="node">
<title>acl::add</title>
<ellipse fill="none" stroke="black" cx="399.05" cy="-162" rx="27" ry="18"/>
<text text-anchor="middle" x="399.05" y="-158.3" font-family="Times,serif" font-size="14.00">add</text>
</g>
<!-- acl::add&#45;&gt;invalid_argument -->
<g id="edge14" class="edge">
<title>acl::add&#45;&gt;invalid_argument</title>
<path fill="none" stroke="black" d="M399.05,-143.7C399.05,-136.41 399.05,-127.73 399.05,-119.54"/>
<polygon fill="black" stroke="black" points="402.55,-119.62 399.05,-109.62 395.55,-119.62 402.55,-119.62"/>
</g>
<!-- acl::assert_contains -->
<g id="node16" class="node">
<title>acl::assert_contains</title>
<ellipse fill="none" stroke="black" cx="290.05" cy="-162" rx="64.19" ry="18"/>
<text text-anchor="middle" x="290.05" y="-158.3" font-family="Times,serif" font-size="14.00">assert_contains</text>
</g>
<!-- acl::assert_contains&#45;&gt;invalid_argument -->
<g id="edge15" class="edge">
<title>acl::assert_contains&#45;&gt;invalid_argument</title>
<path fill="none" stroke="black" d="M315.05,-144.94C329.63,-135.58 348.23,-123.64 364.22,-113.37"/>
<polygon fill="black" stroke="black" points="365.98,-116.39 372.51,-108.04 362.2,-110.5 365.98,-116.39"/>
</g>
<!-- features::change_feature_flags -->
<g id="node17" class="node">
<title>features::change_feature_flags</title>
<ellipse fill="none" stroke="black" cx="1107.05" cy="-162" rx="85.59" ry="18"/>
<text text-anchor="middle" x="1107.05" y="-158.3" font-family="Times,serif" font-size="14.00">change_feature_flags</text>
</g>
<!-- features::change_feature_flags&#45;&gt;permission_denied -->
<g id="edge16" class="edge">
<title>features::change_feature_flags&#45;&gt;permission_denied</title>
<path fill="none" stroke="black" d="M1107.05,-143.7C1107.05,-136.41 1107.05,-127.73 1107.05,-119.54"/>
<polygon fill="black" stroke="black" points="1110.55,-119.62 1107.05,-109.62 1103.55,-119.62 1110.55,-119.62"/>
</g>
</g>
</svg>
