<?xml version="1.0" encoding="UTF-8" standalone="no"?>
<!DOCTYPE svg PUBLIC "-//W3C//DTD SVG 1.1//EN"
 "http://www.w3.org/Graphics/SVG/1.1/DTD/svg11.dtd">
<!-- Generated by graphviz version 7.0.4 (20221203.1631)
 -->
<!-- Title: G Pages: 1 -->
<svg width="268pt" height="188pt"
 viewBox="0.00 0.00 267.98 188.00" xmlns="http://www.w3.org/2000/svg" xmlns:xlink="http://www.w3.org/1999/xlink">
<g id="graph0" class="graph" transform="scale(1 1) rotate(0) translate(4 184)">
<title>G</title>
<polygon fill="white" stroke="none" points="-4,4 -4,-184 263.98,-184 263.98,4 -4,4"/>
<!-- code_dependency_check_enabled -->
<g id="node1" class="node">
<title>code_dependency_check_enabled</title>
<ellipse fill="none" stroke="black" cx="129.99" cy="-162" rx="129.98" ry="18"/>
<text text-anchor="middle" x="129.99" y="-158.3" font-family="Times,serif" font-size="14.00">code_dependency_check_enabled</text>
</g>
<!-- is_enabled -->
<g id="node2" class="node">
<title>is_enabled</title>
<ellipse fill="none" stroke="black" cx="129.99" cy="-90" rx="48.19" ry="18"/>
<text text-anchor="middle" x="129.99" y="-86.3" font-family="Times,serif" font-size="14.00">is_enabled</text>
</g>
<!-- code_dependency_check_enabled&#45;&gt;is_enabled -->
<g id="edge1" class="edge">
<title>code_dependency_check_enabled&#45;&gt;is_enabled</title>
<path fill="none" stroke="black" d="M129.99,-143.7C129.99,-136.41 129.99,-127.73 129.99,-119.54"/>
<polygon fill="black" stroke="black" points="133.49,-119.62 129.99,-109.62 126.49,-119.62 133.49,-119.62"/>
</g>
<!-- contains -->
<g id="node3" class="node">
<title>contains</title>
<ellipse fill="none" stroke="black" cx="129.99" cy="-18" rx="40.09" ry="18"/>
<text text-anchor="middle" x="129.99" y="-14.3" font-family="Times,serif" font-size="14.00">contains</text>
</g>
<!-- is_enabled&#45;&gt;contains -->
<g id="edge2" class="edge">
<title>is_enabled&#45;&gt;contains</title>
<path fill="none" stroke="black" d="M129.99,-71.7C129.99,-64.41 129.99,-55.73 129.99,-47.54"/>
<polygon fill="black" stroke="black" points="133.49,-47.62 129.99,-37.62 126.49,-47.62 133.49,-47.62"/>
</g>
</g>
</svg>
