<?xml version="1.0" encoding="UTF-8" standalone="no"?>
<!DOCTYPE svg PUBLIC "-//W3C//DTD SVG 1.1//EN"
 "http://www.w3.org/Graphics/SVG/1.1/DTD/svg11.dtd">
<!-- Generated by graphviz version 7.0.4 (20221203.1631)
 -->
<!-- Title: G Pages: 1 -->
<svg width="237pt" height="188pt"
 viewBox="0.00 0.00 236.78 188.00" xmlns="http://www.w3.org/2000/svg" xmlns:xlink="http://www.w3.org/1999/xlink">
<g id="graph0" class="graph" transform="scale(1 1) rotate(0) translate(4 184)">
<title>G</title>
<polygon fill="white" stroke="none" points="-4,4 -4,-184 232.78,-184 232.78,4 -4,4"/>
<!-- allow_vm_binary_format_v6 -->
<g id="node1" class="node">
<title>allow_vm_binary_format_v6</title>
<ellipse fill="none" stroke="black" cx="114.39" cy="-162" rx="114.28" ry="18"/>
<text text-anchor="middle" x="114.39" y="-158.3" font-family="Times,serif" font-size="14.00">allow_vm_binary_format_v6</text>
</g>
<!-- is_enabled -->
<g id="node2" class="node">
<title>is_enabled</title>
<ellipse fill="none" stroke="black" cx="114.39" cy="-90" rx="48.19" ry="18"/>
<text text-anchor="middle" x="114.39" y="-86.3" font-family="Times,serif" font-size="14.00">is_enabled</text>
</g>
<!-- allow_vm_binary_format_v6&#45;&gt;is_enabled -->
<g id="edge1" class="edge">
<title>allow_vm_binary_format_v6&#45;&gt;is_enabled</title>
<path fill="none" stroke="black" d="M114.39,-143.7C114.39,-136.41 114.39,-127.73 114.39,-119.54"/>
<polygon fill="black" stroke="black" points="117.89,-119.62 114.39,-109.62 110.89,-119.62 117.89,-119.62"/>
</g>
<!-- contains -->
<g id="node3" class="node">
<title>contains</title>
<ellipse fill="none" stroke="black" cx="114.39" cy="-18" rx="40.09" ry="18"/>
<text text-anchor="middle" x="114.39" y="-14.3" font-family="Times,serif" font-size="14.00">contains</text>
</g>
<!-- is_enabled&#45;&gt;contains -->
<g id="edge2" class="edge">
<title>is_enabled&#45;&gt;contains</title>
<path fill="none" stroke="black" d="M114.39,-71.7C114.39,-64.41 114.39,-55.73 114.39,-47.54"/>
<polygon fill="black" stroke="black" points="117.89,-47.62 114.39,-37.62 110.89,-47.62 117.89,-47.62"/>
</g>
</g>
</svg>
