<?xml version="1.0" encoding="UTF-8" standalone="no"?>
<!DOCTYPE svg PUBLIC "-//W3C//DTD SVG 1.1//EN"
 "http://www.w3.org/Graphics/SVG/1.1/DTD/svg11.dtd">
<!-- Generated by graphviz version 7.0.4 (20221203.1631)
 -->
<!-- Title: G Pages: 1 -->
<svg width="231pt" height="207pt"
 viewBox="0.00 0.00 231.00 207.00" xmlns="http://www.w3.org/2000/svg" xmlns:xlink="http://www.w3.org/1999/xlink">
<g id="graph0" class="graph" transform="scale(1 1) rotate(0) translate(4 203)">
<title>G</title>
<polygon fill="white" stroke="none" points="-4,4 -4,-203 227,-203 227,4 -4,4"/>
<g id="clust1" class="cluster">
<title>cluster_vector</title>
<polygon fill="none" stroke="black" points="8,-8 8,-83 215,-83 215,-8 8,-8"/>
<text text-anchor="middle" x="111.5" y="-67.8" font-family="Times,serif" font-size="14.00">vector</text>
</g>
<!-- swap_or_fill -->
<g id="node1" class="node">
<title>swap_or_fill</title>
<ellipse fill="none" stroke="black" cx="102" cy="-181" rx="55.49" ry="18"/>
<text text-anchor="middle" x="102" y="-177.3" font-family="Times,serif" font-size="14.00">swap_or_fill</text>
</g>
<!-- vector::is_empty -->
<g id="node2" class="node">
<title>vector::is_empty</title>
<ellipse fill="none" stroke="black" cx="60" cy="-34" rx="43.59" ry="18"/>
<text text-anchor="middle" x="60" y="-30.3" font-family="Times,serif" font-size="14.00">is_empty</text>
</g>
<!-- swap_or_fill&#45;&gt;vector::is_empty -->
<g id="edge1" class="edge">
<title>swap_or_fill&#45;&gt;vector::is_empty</title>
<path fill="none" stroke="black" d="M86.63,-163.22C78.64,-153.42 69.61,-140.37 65,-127 57.95,-106.53 56.95,-81.99 57.58,-63.4"/>
<polygon fill="black" stroke="black" points="61.07,-63.84 58.11,-53.66 54.08,-63.46 61.07,-63.84"/>
</g>
<!-- none -->
<g id="node3" class="node">
<title>none</title>
<ellipse fill="none" stroke="black" cx="102" cy="-109" rx="27.9" ry="18"/>
<text text-anchor="middle" x="102" y="-105.3" font-family="Times,serif" font-size="14.00">none</text>
</g>
<!-- swap_or_fill&#45;&gt;none -->
<g id="edge2" class="edge">
<title>swap_or_fill&#45;&gt;none</title>
<path fill="none" stroke="black" d="M102,-162.7C102,-155.41 102,-146.73 102,-138.54"/>
<polygon fill="black" stroke="black" points="105.5,-138.62 102,-128.62 98.5,-138.62 105.5,-138.62"/>
</g>
<!-- some -->
<g id="node4" class="node">
<title>some</title>
<ellipse fill="none" stroke="black" cx="178" cy="-109" rx="29.8" ry="18"/>
<text text-anchor="middle" x="178" y="-105.3" font-family="Times,serif" font-size="14.00">some</text>
</g>
<!-- swap_or_fill&#45;&gt;some -->
<g id="edge3" class="edge">
<title>swap_or_fill&#45;&gt;some</title>
<path fill="none" stroke="black" d="M119.63,-163.76C129.73,-154.46 142.56,-142.64 153.62,-132.46"/>
<polygon fill="black" stroke="black" points="155.92,-135.09 160.91,-125.74 151.18,-129.94 155.92,-135.09"/>
</g>
<!-- vector::singleton -->
<g id="node5" class="node">
<title>vector::singleton</title>
<ellipse fill="none" stroke="black" cx="164" cy="-34" rx="42.79" ry="18"/>
<text text-anchor="middle" x="164" y="-30.3" font-family="Times,serif" font-size="14.00">singleton</text>
</g>
<!-- some&#45;&gt;vector::singleton -->
<g id="edge4" class="edge">
<title>some&#45;&gt;vector::singleton</title>
<path fill="none" stroke="black" d="M174.68,-90.7C173.12,-82.58 171.23,-72.68 169.46,-63.5"/>
<polygon fill="black" stroke="black" points="172.95,-63.08 167.63,-53.92 166.07,-64.4 172.95,-63.08"/>
</g>
</g>
</svg>
