<?xml version="1.0" encoding="UTF-8" standalone="no"?>
<!DOCTYPE svg PUBLIC "-//W3C//DTD SVG 1.1//EN"
 "http://www.w3.org/Graphics/SVG/1.1/DTD/svg11.dtd">
<!-- Generated by graphviz version 7.0.4 (20221203.1631)
 -->
<!-- Title: G Pages: 1 -->
<svg width="128pt" height="207pt"
 viewBox="0.00 0.00 128.00 207.00" xmlns="http://www.w3.org/2000/svg" xmlns:xlink="http://www.w3.org/1999/xlink">
<g id="graph0" class="graph" transform="scale(1 1) rotate(0) translate(4 203)">
<title>G</title>
<polygon fill="white" stroke="none" points="-4,4 -4,-203 124,-203 124,4 -4,4"/>
<g id="clust1" class="cluster">
<title>cluster_vector</title>
<polygon fill="none" stroke="black" points="8,-8 8,-83 112,-83 112,-8 8,-8"/>
<text text-anchor="middle" x="60" y="-67.8" font-family="Times,serif" font-size="14.00">vector</text>
</g>
<!-- destroy_some -->
<g id="node1" class="node">
<title>destroy_some</title>
<ellipse fill="none" stroke="black" cx="60" cy="-181" rx="59.59" ry="18"/>
<text text-anchor="middle" x="60" y="-177.3" font-family="Times,serif" font-size="14.00">destroy_some</text>
</g>
<!-- is_some -->
<g id="node2" class="node">
<title>is_some</title>
<ellipse fill="none" stroke="black" cx="60" cy="-109" rx="40.09" ry="18"/>
<text text-anchor="middle" x="60" y="-105.3" font-family="Times,serif" font-size="14.00">is_some</text>
</g>
<!-- destroy_some&#45;&gt;is_some -->
<g id="edge1" class="edge">
<title>destroy_some&#45;&gt;is_some</title>
<path fill="none" stroke="black" d="M60,-162.7C60,-155.41 60,-146.73 60,-138.54"/>
<polygon fill="black" stroke="black" points="63.5,-138.62 60,-128.62 56.5,-138.62 63.5,-138.62"/>
</g>
<!-- vector::is_empty -->
<g id="node3" class="node">
<title>vector::is_empty</title>
<ellipse fill="none" stroke="black" cx="60" cy="-34" rx="43.59" ry="18"/>
<text text-anchor="middle" x="60" y="-30.3" font-family="Times,serif" font-size="14.00">is_empty</text>
</g>
<!-- is_some&#45;&gt;vector::is_empty -->
<g id="edge2" class="edge">
<title>is_some&#45;&gt;vector::is_empty</title>
<path fill="none" stroke="black" d="M60,-90.7C60,-82.67 60,-72.9 60,-63.8"/>
<polygon fill="black" stroke="black" points="63.5,-63.94 60,-53.94 56.5,-63.94 63.5,-63.94"/>
</g>
</g>
</svg>
