<?xml version="1.0" encoding="UTF-8" standalone="no"?>
<!DOCTYPE svg PUBLIC "-//W3C//DTD SVG 1.1//EN"
 "http://www.w3.org/Graphics/SVG/1.1/DTD/svg11.dtd">
<!-- Generated by graphviz version 7.0.4 (20221203.1631)
 -->
<!-- Title: G Pages: 1 -->
<svg width="230pt" height="155pt"
 viewBox="0.00 0.00 230.25 155.00" xmlns="http://www.w3.org/2000/svg" xmlns:xlink="http://www.w3.org/1999/xlink">
<g id="graph0" class="graph" transform="scale(1 1) rotate(0) translate(4 151)">
<title>G</title>
<polygon fill="white" stroke="none" points="-4,4 -4,-151 226.25,-151 226.25,4 -4,4"/>
<g id="clust1" class="cluster">
<title>cluster_string</title>
<polygon fill="none" stroke="black" points="120.25,-64 120.25,-139 214.25,-139 214.25,-64 120.25,-64"/>
<text text-anchor="middle" x="167.25" y="-123.8" font-family="Times,serif" font-size="14.00">string</text>
</g>
<!-- none -->
<g id="node1" class="node">
<title>none</title>
<ellipse fill="none" stroke="black" cx="111.25" cy="-18" rx="27.9" ry="18"/>
<text text-anchor="middle" x="111.25" y="-14.3" font-family="Times,serif" font-size="14.00">none</text>
</g>
<!-- swap_or_fill -->
<g id="node2" class="node">
<title>swap_or_fill</title>
<ellipse fill="none" stroke="black" cx="55.25" cy="-90" rx="55.49" ry="18"/>
<text text-anchor="middle" x="55.25" y="-86.3" font-family="Times,serif" font-size="14.00">swap_or_fill</text>
</g>
<!-- swap_or_fill&#45;&gt;none -->
<g id="edge1" class="edge">
<title>swap_or_fill&#45;&gt;none</title>
<path fill="none" stroke="black" d="M68.8,-72.05C75.7,-63.44 84.2,-52.81 91.78,-43.33"/>
<polygon fill="black" stroke="black" points="94.5,-45.53 98.01,-35.54 89.03,-41.16 94.5,-45.53"/>
</g>
<!-- string::try_utf8 -->
<g id="node3" class="node">
<title>string::try_utf8</title>
<ellipse fill="none" stroke="black" cx="167.25" cy="-90" rx="38.99" ry="18"/>
<text text-anchor="middle" x="167.25" y="-86.3" font-family="Times,serif" font-size="14.00">try_utf8</text>
</g>
<!-- string::try_utf8&#45;&gt;none -->
<g id="edge2" class="edge">
<title>string::try_utf8&#45;&gt;none</title>
<path fill="none" stroke="black" d="M154.26,-72.76C147.21,-63.95 138.35,-52.88 130.51,-43.08"/>
<polygon fill="black" stroke="black" points="133.32,-40.99 124.34,-35.37 127.86,-45.37 133.32,-40.99"/>
</g>
</g>
</svg>
