<?xml version="1.0" encoding="UTF-8" standalone="no"?>
<!DOCTYPE svg PUBLIC "-//W3C//DTD SVG 1.1//EN"
 "http://www.w3.org/Graphics/SVG/1.1/DTD/svg11.dtd">
<!-- Generated by graphviz version 7.0.4 (20221203.1631)
 -->
<!-- Title: G Pages: 1 -->
<svg width="212pt" height="227pt"
 viewBox="0.00 0.00 212.00 227.00" xmlns="http://www.w3.org/2000/svg" xmlns:xlink="http://www.w3.org/1999/xlink">
<g id="graph0" class="graph" transform="scale(1 1) rotate(0) translate(4 223)">
<title>G</title>
<polygon fill="white" stroke="none" points="-4,4 -4,-223 208,-223 208,4 -4,4"/>
<g id="clust1" class="cluster">
<title>cluster_features</title>
<polygon fill="none" stroke="black" points="8,-136 8,-211 196,-211 196,-136 8,-136"/>
<text text-anchor="middle" x="102" y="-195.8" font-family="Times,serif" font-size="14.00">features</text>
</g>
<!-- borrow_address -->
<g id="node1" class="node">
<title>borrow_address</title>
<ellipse fill="none" stroke="black" cx="102" cy="-18" rx="66.89" ry="18"/>
<text text-anchor="middle" x="102" y="-14.3" font-family="Times,serif" font-size="14.00">borrow_address</text>
</g>
<!-- address_of -->
<g id="node2" class="node">
<title>address_of</title>
<ellipse fill="none" stroke="black" cx="102" cy="-90" rx="48.99" ry="18"/>
<text text-anchor="middle" x="102" y="-86.3" font-family="Times,serif" font-size="14.00">address_of</text>
</g>
<!-- address_of&#45;&gt;borrow_address -->
<g id="edge1" class="edge">
<title>address_of&#45;&gt;borrow_address</title>
<path fill="none" stroke="black" d="M102,-71.7C102,-64.41 102,-55.73 102,-47.54"/>
<polygon fill="black" stroke="black" points="105.5,-47.62 102,-37.62 98.5,-47.62 105.5,-47.62"/>
</g>
<!-- features::change_feature_flags -->
<g id="node3" class="node">
<title>features::change_feature_flags</title>
<ellipse fill="none" stroke="black" cx="102" cy="-162" rx="85.59" ry="18"/>
<text text-anchor="middle" x="102" y="-158.3" font-family="Times,serif" font-size="14.00">change_feature_flags</text>
</g>
<!-- features::change_feature_flags&#45;&gt;address_of -->
<g id="edge2" class="edge">
<title>features::change_feature_flags&#45;&gt;address_of</title>
<path fill="none" stroke="black" d="M102,-143.7C102,-136.41 102,-127.73 102,-119.54"/>
<polygon fill="black" stroke="black" points="105.5,-119.62 102,-109.62 98.5,-119.62 105.5,-119.62"/>
</g>
</g>
</svg>
