<?xml version="1.0" encoding="UTF-8" standalone="no"?>
<!DOCTYPE svg PUBLIC "-//W3C//DTD SVG 1.1//EN"
 "http://www.w3.org/Graphics/SVG/1.1/DTD/svg11.dtd">
<!-- Generated by graphviz version 7.0.4 (20221203.1631)
 -->
<!-- Title: G Pages: 1 -->
<svg width="604pt" height="279pt"
 viewBox="0.00 0.00 603.64 279.00" xmlns="http://www.w3.org/2000/svg" xmlns:xlink="http://www.w3.org/1999/xlink">
<g id="graph0" class="graph" transform="scale(1 1) rotate(0) translate(4 275)">
<title>G</title>
<polygon fill="white" stroke="none" points="-4,4 -4,-275 599.64,-275 599.64,4 -4,4"/>
<g id="clust1" class="cluster">
<title>cluster_vector</title>
<polygon fill="none" stroke="black" points="8,-8 8,-155 202,-155 202,-8 8,-8"/>
<text text-anchor="middle" x="105" y="-139.8" font-family="Times,serif" font-size="14.00">vector</text>
</g>
<!-- insert -->
<g id="node1" class="node">
<title>insert</title>
<ellipse fill="none" stroke="black" cx="283" cy="-253" rx="30.59" ry="18"/>
<text text-anchor="middle" x="283" y="-249.3" font-family="Times,serif" font-size="14.00">insert</text>
</g>
<!-- append -->
<g id="node2" class="node">
<title>append</title>
<ellipse fill="none" stroke="black" cx="163" cy="-181" rx="36.29" ry="18"/>
<text text-anchor="middle" x="163" y="-177.3" font-family="Times,serif" font-size="14.00">append</text>
</g>
<!-- insert&#45;&gt;append -->
<g id="edge1" class="edge">
<title>insert&#45;&gt;append</title>
<path fill="none" stroke="black" d="M261.82,-239.65C243.55,-228.99 216.86,-213.42 195.82,-201.15"/>
<polygon fill="black" stroke="black" points="197.72,-198.2 187.32,-196.19 194.19,-204.25 197.72,-198.2"/>
</g>
<!-- length -->
<g id="node3" class="node">
<title>length</title>
<ellipse fill="none" stroke="black" cx="253" cy="-181" rx="32.49" ry="18"/>
<text text-anchor="middle" x="253" y="-177.3" font-family="Times,serif" font-size="14.00">length</text>
</g>
<!-- insert&#45;&gt;length -->
<g id="edge2" class="edge">
<title>insert&#45;&gt;length</title>
<path fill="none" stroke="black" d="M275.74,-235.05C272.42,-227.32 268.41,-217.96 264.69,-209.27"/>
<polygon fill="black" stroke="black" points="267.95,-207.99 260.79,-200.18 261.51,-210.75 267.95,-207.99"/>
</g>
<!-- internal_is_char_boundary -->
<g id="node4" class="node">
<title>internal_is_char_boundary</title>
<ellipse fill="none" stroke="black" cx="316" cy="-106" rx="104.78" ry="18"/>
<text text-anchor="middle" x="316" y="-102.3" font-family="Times,serif" font-size="14.00">internal_is_char_boundary</text>
</g>
<!-- insert&#45;&gt;internal_is_char_boundary -->
<g id="edge3" class="edge">
<title>insert&#45;&gt;internal_is_char_boundary</title>
<path fill="none" stroke="black" d="M286.92,-234.8C292.5,-210.27 302.81,-164.95 309.54,-135.4"/>
<polygon fill="black" stroke="black" points="312.95,-136.18 311.75,-125.66 306.12,-134.63 312.95,-136.18"/>
</g>
<!-- sub_string -->
<g id="node5" class="node">
<title>sub_string</title>
<ellipse fill="none" stroke="black" cx="388" cy="-181" rx="47.39" ry="18"/>
<text text-anchor="middle" x="388" y="-177.3" font-family="Times,serif" font-size="14.00">sub_string</text>
</g>
<!-- insert&#45;&gt;sub_string -->
<g id="edge4" class="edge">
<title>insert&#45;&gt;sub_string</title>
<path fill="none" stroke="black" d="M302.75,-238.83C317.79,-228.81 338.79,-214.81 356.19,-203.21"/>
<polygon fill="black" stroke="black" points="357.78,-206.35 364.16,-197.89 353.9,-200.53 357.78,-206.35"/>
</g>
<!-- vector::append -->
<g id="node6" class="node">
<title>vector::append</title>
<ellipse fill="none" stroke="black" cx="157" cy="-106" rx="36.29" ry="18"/>
<text text-anchor="middle" x="157" y="-102.3" font-family="Times,serif" font-size="14.00">append</text>
</g>
<!-- append&#45;&gt;vector::append -->
<g id="edge5" class="edge">
<title>append&#45;&gt;vector::append</title>
<path fill="none" stroke="black" d="M161.58,-162.7C160.92,-154.67 160.12,-144.9 159.37,-135.8"/>
<polygon fill="black" stroke="black" points="162.86,-135.62 158.56,-125.94 155.89,-136.19 162.86,-135.62"/>
</g>
<!-- sub_string&#45;&gt;internal_is_char_boundary -->
<g id="edge6" class="edge">
<title>sub_string&#45;&gt;internal_is_char_boundary</title>
<path fill="none" stroke="black" d="M372.02,-163.8C362.87,-154.52 351.18,-142.67 340.85,-132.2"/>
<polygon fill="black" stroke="black" points="343.51,-129.91 334,-125.25 338.53,-134.83 343.51,-129.91"/>
</g>
<!-- internal_sub_string -->
<g id="node7" class="node">
<title>internal_sub_string</title>
<ellipse fill="none" stroke="black" cx="517" cy="-106" rx="78.79" ry="18"/>
<text text-anchor="middle" x="517" y="-102.3" font-family="Times,serif" font-size="14.00">internal_sub_string</text>
</g>
<!-- sub_string&#45;&gt;internal_sub_string -->
<g id="edge7" class="edge">
<title>sub_string&#45;&gt;internal_sub_string</title>
<path fill="none" stroke="black" d="M413.49,-165.58C432.04,-155.08 457.49,-140.68 478.51,-128.78"/>
<polygon fill="black" stroke="black" points="480.13,-131.89 487.11,-123.92 476.68,-125.8 480.13,-131.89"/>
</g>
<!-- vector::is_empty -->
<g id="node8" class="node">
<title>vector::is_empty</title>
<ellipse fill="none" stroke="black" cx="60" cy="-34" rx="43.59" ry="18"/>
<text text-anchor="middle" x="60" y="-30.3" font-family="Times,serif" font-size="14.00">is_empty</text>
</g>
<!-- vector::append&#45;&gt;vector::is_empty -->
<g id="edge8" class="edge">
<title>vector::append&#45;&gt;vector::is_empty</title>
<path fill="none" stroke="black" d="M137.37,-90.83C123.8,-81.04 105.49,-67.83 90.09,-56.71"/>
<polygon fill="black" stroke="black" points="92.33,-54.01 82.17,-51 88.23,-59.69 92.33,-54.01"/>
</g>
<!-- vector::reverse -->
<g id="node9" class="node">
<title>vector::reverse</title>
<ellipse fill="none" stroke="black" cx="158" cy="-34" rx="36.29" ry="18"/>
<text text-anchor="middle" x="158" y="-30.3" font-family="Times,serif" font-size="14.00">reverse</text>
</g>
<!-- vector::append&#45;&gt;vector::reverse -->
<g id="edge9" class="edge">
<title>vector::append&#45;&gt;vector::reverse</title>
<path fill="none" stroke="black" d="M157.25,-87.7C157.35,-80.41 157.48,-71.73 157.59,-63.54"/>
<polygon fill="black" stroke="black" points="161.09,-63.67 157.73,-53.62 154.09,-63.57 161.09,-63.67"/>
</g>
</g>
</svg>
