<?xml version="1.0" encoding="UTF-8" standalone="no"?>
<!DOCTYPE svg PUBLIC "-//W3C//DTD SVG 1.1//EN"
 "http://www.w3.org/Graphics/SVG/1.1/DTD/svg11.dtd">
<!-- Generated by graphviz version 7.0.4 (20221203.1631)
 -->
<!-- Title: G Pages: 1 -->
<svg width="381pt" height="279pt"
 viewBox="0.00 0.00 381.24 279.00" xmlns="http://www.w3.org/2000/svg" xmlns:xlink="http://www.w3.org/1999/xlink">
<g id="graph0" class="graph" transform="scale(1 1) rotate(0) translate(4 275)">
<title>G</title>
<polygon fill="white" stroke="none" points="-4,4 -4,-275 377.24,-275 377.24,4 -4,4"/>
<g id="clust1" class="cluster">
<title>cluster_vector</title>
<polygon fill="none" stroke="black" points="8,-8 8,-155 202,-155 202,-8 8,-8"/>
<text text-anchor="middle" x="105" y="-139.8" font-family="Times,serif" font-size="14.00">vector</text>
</g>
<!-- append_utf8 -->
<g id="node1" class="node">
<title>append_utf8</title>
<ellipse fill="none" stroke="black" cx="223" cy="-253" rx="54.69" ry="18"/>
<text text-anchor="middle" x="223" y="-249.3" font-family="Times,serif" font-size="14.00">append_utf8</text>
</g>
<!-- append -->
<g id="node2" class="node">
<title>append</title>
<ellipse fill="none" stroke="black" cx="183" cy="-181" rx="36.29" ry="18"/>
<text text-anchor="middle" x="183" y="-177.3" font-family="Times,serif" font-size="14.00">append</text>
</g>
<!-- append_utf8&#45;&gt;append -->
<g id="edge1" class="edge">
<title>append_utf8&#45;&gt;append</title>
<path fill="none" stroke="black" d="M213.32,-235.05C208.8,-227.14 203.31,-217.54 198.25,-208.69"/>
<polygon fill="black" stroke="black" points="201.34,-207.05 193.34,-200.1 195.27,-210.52 201.34,-207.05"/>
</g>
<!-- utf8 -->
<g id="node3" class="node">
<title>utf8</title>
<ellipse fill="none" stroke="black" cx="278" cy="-181" rx="27" ry="18"/>
<text text-anchor="middle" x="278" y="-177.3" font-family="Times,serif" font-size="14.00">utf8</text>
</g>
<!-- append_utf8&#45;&gt;utf8 -->
<g id="edge2" class="edge">
<title>append_utf8&#45;&gt;utf8</title>
<path fill="none" stroke="black" d="M236.31,-235.05C243.09,-226.44 251.44,-215.81 258.88,-206.33"/>
<polygon fill="black" stroke="black" points="261.57,-208.57 265,-198.55 256.07,-204.25 261.57,-208.57"/>
</g>
<!-- vector::append -->
<g id="node4" class="node">
<title>vector::append</title>
<ellipse fill="none" stroke="black" cx="156" cy="-106" rx="36.29" ry="18"/>
<text text-anchor="middle" x="156" y="-102.3" font-family="Times,serif" font-size="14.00">append</text>
</g>
<!-- append&#45;&gt;vector::append -->
<g id="edge3" class="edge">
<title>append&#45;&gt;vector::append</title>
<path fill="none" stroke="black" d="M176.74,-163.07C173.63,-154.65 169.78,-144.27 166.26,-134.73"/>
<polygon fill="black" stroke="black" points="169.6,-133.68 162.85,-125.51 163.03,-136.1 169.6,-133.68"/>
</g>
<!-- internal_check_utf8 -->
<g id="node5" class="node">
<title>internal_check_utf8</title>
<ellipse fill="none" stroke="black" cx="292" cy="-106" rx="81.49" ry="18"/>
<text text-anchor="middle" x="292" y="-102.3" font-family="Times,serif" font-size="14.00">internal_check_utf8</text>
</g>
<!-- utf8&#45;&gt;internal_check_utf8 -->
<g id="edge4" class="edge">
<title>utf8&#45;&gt;internal_check_utf8</title>
<path fill="none" stroke="black" d="M281.32,-162.7C282.88,-154.58 284.77,-144.68 286.54,-135.5"/>
<polygon fill="black" stroke="black" points="289.93,-136.4 288.37,-125.92 283.05,-135.08 289.93,-136.4"/>
</g>
<!-- vector::is_empty -->
<g id="node6" class="node">
<title>vector::is_empty</title>
<ellipse fill="none" stroke="black" cx="60" cy="-34" rx="43.59" ry="18"/>
<text text-anchor="middle" x="60" y="-30.3" font-family="Times,serif" font-size="14.00">is_empty</text>
</g>
<!-- vector::append&#45;&gt;vector::is_empty -->
<g id="edge5" class="edge">
<title>vector::append&#45;&gt;vector::is_empty</title>
<path fill="none" stroke="black" d="M136.11,-90.5C122.74,-80.75 104.87,-67.72 89.81,-56.74"/>
<polygon fill="black" stroke="black" points="92.23,-54.17 82.08,-51.1 88.1,-59.82 92.23,-54.17"/>
</g>
<!-- vector::reverse -->
<g id="node7" class="node">
<title>vector::reverse</title>
<ellipse fill="none" stroke="black" cx="158" cy="-34" rx="36.29" ry="18"/>
<text text-anchor="middle" x="158" y="-30.3" font-family="Times,serif" font-size="14.00">reverse</text>
</g>
<!-- vector::append&#45;&gt;vector::reverse -->
<g id="edge6" class="edge">
<title>vector::append&#45;&gt;vector::reverse</title>
<path fill="none" stroke="black" d="M156.49,-87.7C156.7,-80.41 156.95,-71.73 157.18,-63.54"/>
<polygon fill="black" stroke="black" points="160.68,-63.71 157.47,-53.62 153.68,-63.51 160.68,-63.71"/>
</g>
</g>
</svg>
