<?xml version="1.0" encoding="UTF-8" standalone="no"?>
<!DOCTYPE svg PUBLIC "-//W3C//DTD SVG 1.1//EN"
 "http://www.w3.org/Graphics/SVG/1.1/DTD/svg11.dtd">
<!-- Generated by graphviz version 7.0.4 (20221203.1631)
 -->
<!-- Title: G Pages: 1 -->
<svg width="105pt" height="188pt"
 viewBox="0.00 0.00 104.64 188.00" xmlns="http://www.w3.org/2000/svg" xmlns:xlink="http://www.w3.org/1999/xlink">
<g id="graph0" class="graph" transform="scale(1 1) rotate(0) translate(4 184)">
<title>G</title>
<polygon fill="white" stroke="none" points="-4,4 -4,-184 100.64,-184 100.64,4 -4,4"/>
<!-- string -->
<g id="node1" class="node">
<title>string</title>
<ellipse fill="none" stroke="black" cx="32.5" cy="-162" rx="30.59" ry="18"/>
<text text-anchor="middle" x="32.5" y="-158.3" font-family="Times,serif" font-size="14.00">string</text>
</g>
<!-- vector -->
<g id="node2" class="node">
<title>vector</title>
<ellipse fill="none" stroke="black" cx="32.5" cy="-18" rx="32.49" ry="18"/>
<text text-anchor="middle" x="32.5" y="-14.3" font-family="Times,serif" font-size="14.00">vector</text>
</g>
<!-- string&#45;&gt;vector -->
<g id="edge1" class="edge">
<title>string&#45;&gt;vector</title>
<path fill="none" stroke="black" d="M28.03,-143.95C25.56,-133.63 22.74,-120.15 21.5,-108 19.86,-92.08 19.86,-87.92 21.5,-72 22.34,-63.83 23.88,-55.07 25.56,-47.07"/>
<polygon fill="black" stroke="black" points="28.92,-48.05 27.7,-37.52 22.09,-46.51 28.92,-48.05"/>
</g>
<!-- option -->
<g id="node3" class="node">
<title>option</title>
<ellipse fill="none" stroke="black" cx="63.5" cy="-90" rx="33.29" ry="18"/>
<text text-anchor="middle" x="63.5" y="-86.3" font-family="Times,serif" font-size="14.00">option</text>
</g>
<!-- string&#45;&gt;option -->
<g id="edge2" class="edge">
<title>string&#45;&gt;option</title>
<path fill="none" stroke="black" d="M40,-144.05C43.43,-136.32 47.57,-126.96 51.42,-118.27"/>
<polygon fill="black" stroke="black" points="54.6,-119.73 55.45,-109.17 48.2,-116.9 54.6,-119.73"/>
</g>
<!-- option&#45;&gt;vector -->
<g id="edge3" class="edge">
<title>option&#45;&gt;vector</title>
<path fill="none" stroke="black" d="M55.99,-72.05C52.57,-64.32 48.42,-54.96 44.57,-46.27"/>
<polygon fill="black" stroke="black" points="47.79,-44.9 40.55,-37.17 41.39,-47.73 47.79,-44.9"/>
</g>
</g>
</svg>
