<?xml version="1.0" encoding="UTF-8" standalone="no"?>
<!DOCTYPE svg PUBLIC "-//W3C//DTD SVG 1.1//EN"
 "http://www.w3.org/Graphics/SVG/1.1/DTD/svg11.dtd">
<!-- Generated by graphviz version 7.0.4 (20221203.1631)
 -->
<!-- Title: G Pages: 1 -->
<svg width="217pt" height="188pt"
 viewBox="0.00 0.00 217.28 188.00" xmlns="http://www.w3.org/2000/svg" xmlns:xlink="http://www.w3.org/1999/xlink">
<g id="graph0" class="graph" transform="scale(1 1) rotate(0) translate(4 184)">
<title>G</title>
<polygon fill="white" stroke="none" points="-4,4 -4,-184 213.28,-184 213.28,4 -4,4"/>
<!-- internal_is_char_boundary -->
<g id="node1" class="node">
<title>internal_is_char_boundary</title>
<ellipse fill="none" stroke="black" cx="104.64" cy="-18" rx="104.78" ry="18"/>
<text text-anchor="middle" x="104.64" y="-14.3" font-family="Times,serif" font-size="14.00">internal_is_char_boundary</text>
</g>
<!-- insert -->
<g id="node2" class="node">
<title>insert</title>
<ellipse fill="none" stroke="black" cx="104.64" cy="-162" rx="30.59" ry="18"/>
<text text-anchor="middle" x="104.64" y="-158.3" font-family="Times,serif" font-size="14.00">insert</text>
</g>
<!-- insert&#45;&gt;internal_is_char_boundary -->
<g id="edge1" class="edge">
<title>insert&#45;&gt;internal_is_char_boundary</title>
<path fill="none" stroke="black" d="M97.35,-144.18C93.31,-133.94 88.7,-120.46 86.64,-108 84.03,-92.21 84.03,-87.79 86.64,-72 88.02,-63.66 90.54,-54.87 93.27,-46.89"/>
<polygon fill="black" stroke="black" points="96.47,-48.31 96.64,-37.72 89.9,-45.89 96.47,-48.31"/>
</g>
<!-- sub_string -->
<g id="node3" class="node">
<title>sub_string</title>
<ellipse fill="none" stroke="black" cx="142.64" cy="-90" rx="47.39" ry="18"/>
<text text-anchor="middle" x="142.64" y="-86.3" font-family="Times,serif" font-size="14.00">sub_string</text>
</g>
<!-- insert&#45;&gt;sub_string -->
<g id="edge3" class="edge">
<title>insert&#45;&gt;sub_string</title>
<path fill="none" stroke="black" d="M113.65,-144.41C117.94,-136.51 123.18,-126.85 128.02,-117.94"/>
<polygon fill="black" stroke="black" points="131.02,-119.74 132.71,-109.29 124.87,-116.41 131.02,-119.74"/>
</g>
<!-- sub_string&#45;&gt;internal_is_char_boundary -->
<g id="edge2" class="edge">
<title>sub_string&#45;&gt;internal_is_char_boundary</title>
<path fill="none" stroke="black" d="M133.44,-72.05C129.26,-64.35 124.2,-55.03 119.5,-46.36"/>
<polygon fill="black" stroke="black" points="122.59,-44.72 114.74,-37.61 116.44,-48.06 122.59,-44.72"/>
</g>
</g>
</svg>
