<?xml version="1.0" encoding="UTF-8" standalone="no"?>
<!DOCTYPE svg PUBLIC "-//W3C//DTD SVG 1.1//EN"
 "http://www.w3.org/Graphics/SVG/1.1/DTD/svg11.dtd">
<!-- Generated by graphviz version 7.0.4 (20221203.1631)
 -->
<!-- Title: G Pages: 1 -->
<svg width="218pt" height="207pt"
 viewBox="0.00 0.00 218.00 207.00" xmlns="http://www.w3.org/2000/svg" xmlns:xlink="http://www.w3.org/1999/xlink">
<g id="graph0" class="graph" transform="scale(1 1) rotate(0) translate(4 203)">
<title>G</title>
<polygon fill="white" stroke="none" points="-4,4 -4,-203 214,-203 214,4 -4,4"/>
<g id="clust1" class="cluster">
<title>cluster_vector</title>
<polygon fill="none" stroke="black" points="8,-8 8,-155 202,-155 202,-8 8,-8"/>
<text text-anchor="middle" x="105" y="-139.8" font-family="Times,serif" font-size="14.00">vector</text>
</g>
<!-- append -->
<g id="node1" class="node">
<title>append</title>
<ellipse fill="none" stroke="black" cx="109" cy="-181" rx="36.29" ry="18"/>
<text text-anchor="middle" x="109" y="-177.3" font-family="Times,serif" font-size="14.00">append</text>
</g>
<!-- vector::append -->
<g id="node2" class="node">
<title>vector::append</title>
<ellipse fill="none" stroke="black" cx="109" cy="-106" rx="36.29" ry="18"/>
<text text-anchor="middle" x="109" y="-102.3" font-family="Times,serif" font-size="14.00">append</text>
</g>
<!-- append&#45;&gt;vector::append -->
<g id="edge1" class="edge">
<title>append&#45;&gt;vector::append</title>
<path fill="none" stroke="black" d="M109,-162.7C109,-154.67 109,-144.9 109,-135.8"/>
<polygon fill="black" stroke="black" points="112.5,-135.94 109,-125.94 105.5,-135.94 112.5,-135.94"/>
</g>
<!-- vector::is_empty -->
<g id="node3" class="node">
<title>vector::is_empty</title>
<ellipse fill="none" stroke="black" cx="60" cy="-34" rx="43.59" ry="18"/>
<text text-anchor="middle" x="60" y="-30.3" font-family="Times,serif" font-size="14.00">is_empty</text>
</g>
<!-- vector::append&#45;&gt;vector::is_empty -->
<g id="edge2" class="edge">
<title>vector::append&#45;&gt;vector::is_empty</title>
<path fill="none" stroke="black" d="M97.64,-88.76C91.84,-80.49 84.66,-70.23 78.13,-60.9"/>
<polygon fill="black" stroke="black" points="81.11,-59.06 72.51,-52.87 75.38,-63.07 81.11,-59.06"/>
</g>
<!-- vector::reverse -->
<g id="node4" class="node">
<title>vector::reverse</title>
<ellipse fill="none" stroke="black" cx="158" cy="-34" rx="36.29" ry="18"/>
<text text-anchor="middle" x="158" y="-30.3" font-family="Times,serif" font-size="14.00">reverse</text>
</g>
<!-- vector::append&#45;&gt;vector::reverse -->
<g id="edge3" class="edge">
<title>vector::append&#45;&gt;vector::reverse</title>
<path fill="none" stroke="black" d="M120.36,-88.76C126.24,-80.37 133.55,-69.93 140.15,-60.5"/>
<polygon fill="black" stroke="black" points="142.96,-62.59 145.83,-52.39 137.23,-58.57 142.96,-62.59"/>
</g>
</g>
</svg>
