<?xml version="1.0" encoding="UTF-8" standalone="no"?>
<!DOCTYPE svg PUBLIC "-//W3C//DTD SVG 1.1//EN"
 "http://www.w3.org/Graphics/SVG/1.1/DTD/svg11.dtd">
<!-- Generated by graphviz version 7.0.4 (20221203.1631)
 -->
<!-- Title: G Pages: 1 -->
<svg width="196pt" height="116pt"
 viewBox="0.00 0.00 196.14 116.00" xmlns="http://www.w3.org/2000/svg" xmlns:xlink="http://www.w3.org/1999/xlink">
<g id="graph0" class="graph" transform="scale(1 1) rotate(0) translate(4 112)">
<title>G</title>
<polygon fill="white" stroke="none" points="-4,4 -4,-112 192.14,-112 192.14,4 -4,4"/>
<!-- append -->
<g id="node1" class="node">
<title>append</title>
<ellipse fill="none" stroke="black" cx="105.6" cy="-18" rx="36.29" ry="18"/>
<text text-anchor="middle" x="105.6" y="-14.3" font-family="Times,serif" font-size="14.00">append</text>
</g>
<!-- append_utf8 -->
<g id="node2" class="node">
<title>append_utf8</title>
<ellipse fill="none" stroke="black" cx="54.6" cy="-90" rx="54.69" ry="18"/>
<text text-anchor="middle" x="54.6" y="-86.3" font-family="Times,serif" font-size="14.00">append_utf8</text>
</g>
<!-- append_utf8&#45;&gt;append -->
<g id="edge1" class="edge">
<title>append_utf8&#45;&gt;append</title>
<path fill="none" stroke="black" d="M66.94,-72.05C72.98,-63.77 80.37,-53.62 87.07,-44.42"/>
<polygon fill="black" stroke="black" points="89.76,-46.67 92.82,-36.53 84.11,-42.55 89.76,-46.67"/>
</g>
<!-- insert -->
<g id="node3" class="node">
<title>insert</title>
<ellipse fill="none" stroke="black" cx="157.6" cy="-90" rx="30.59" ry="18"/>
<text text-anchor="middle" x="157.6" y="-86.3" font-family="Times,serif" font-size="14.00">insert</text>
</g>
<!-- insert&#45;&gt;append -->
<g id="edge2" class="edge">
<title>insert&#45;&gt;append</title>
<path fill="none" stroke="black" d="M145.8,-73.12C139.5,-64.64 131.61,-54.02 124.49,-44.43"/>
<polygon fill="black" stroke="black" points="127.38,-42.46 118.61,-36.52 121.77,-46.64 127.38,-42.46"/>
</g>
</g>
</svg>
