<?xml version="1.0" encoding="UTF-8" standalone="no"?>
<!DOCTYPE svg PUBLIC "-//W3C//DTD SVG 1.1//EN"
 "http://www.w3.org/Graphics/SVG/1.1/DTD/svg11.dtd">
<!-- Generated by graphviz version 7.0.4 (20221203.1631)
 -->
<!-- Title: G Pages: 1 -->
<svg width="184pt" height="188pt"
 viewBox="0.00 0.00 184.15 188.00" xmlns="http://www.w3.org/2000/svg" xmlns:xlink="http://www.w3.org/1999/xlink">
<g id="graph0" class="graph" transform="scale(1 1) rotate(0) translate(4 184)">
<title>G</title>
<polygon fill="white" stroke="none" points="-4,4 -4,-184 180.15,-184 180.15,4 -4,4"/>
<!-- vector -->
<g id="node1" class="node">
<title>vector</title>
<ellipse fill="none" stroke="black" cx="82" cy="-18" rx="32.49" ry="18"/>
<text text-anchor="middle" x="82" y="-14.3" font-family="Times,serif" font-size="14.00">vector</text>
</g>
<!-- acl -->
<g id="node2" class="node">
<title>acl</title>
<ellipse fill="none" stroke="black" cx="27" cy="-90" rx="27" ry="18"/>
<text text-anchor="middle" x="27" y="-86.3" font-family="Times,serif" font-size="14.00">acl</text>
</g>
<!-- acl&#45;&gt;vector -->
<g id="edge1" class="edge">
<title>acl&#45;&gt;vector</title>
<path fill="none" stroke="black" d="M39.21,-73.46C46.02,-64.8 54.66,-53.79 62.4,-43.95"/>
<polygon fill="black" stroke="black" points="65.09,-46.19 68.51,-36.17 59.58,-41.87 65.09,-46.19"/>
</g>
<!-- option -->
<g id="node3" class="node">
<title>option</title>
<ellipse fill="none" stroke="black" cx="143" cy="-90" rx="33.29" ry="18"/>
<text text-anchor="middle" x="143" y="-86.3" font-family="Times,serif" font-size="14.00">option</text>
</g>
<!-- option&#45;&gt;vector -->
<g id="edge2" class="edge">
<title>option&#45;&gt;vector</title>
<path fill="none" stroke="black" d="M129.46,-73.46C121.64,-64.49 111.64,-53.02 102.84,-42.92"/>
<polygon fill="black" stroke="black" points="105.7,-40.87 96.49,-35.63 100.43,-45.47 105.7,-40.87"/>
</g>
<!-- string -->
<g id="node4" class="node">
<title>string</title>
<ellipse fill="none" stroke="black" cx="112" cy="-162" rx="30.59" ry="18"/>
<text text-anchor="middle" x="112" y="-158.3" font-family="Times,serif" font-size="14.00">string</text>
</g>
<!-- string&#45;&gt;vector -->
<g id="edge3" class="edge">
<title>string&#45;&gt;vector</title>
<path fill="none" stroke="black" d="M108.38,-143.87C103.31,-119.88 94.04,-75.99 87.95,-47.16"/>
<polygon fill="black" stroke="black" points="91.44,-46.73 85.94,-37.67 84.59,-48.18 91.44,-46.73"/>
</g>
<!-- string&#45;&gt;option -->
<g id="edge4" class="edge">
<title>string&#45;&gt;option</title>
<path fill="none" stroke="black" d="M119.5,-144.05C122.93,-136.32 127.08,-126.96 130.92,-118.27"/>
<polygon fill="black" stroke="black" points="134.1,-119.73 134.95,-109.17 127.7,-116.9 134.1,-119.73"/>
</g>
</g>
</svg>
