<?xml version="1.0" encoding="UTF-8" standalone="no"?>
<!DOCTYPE svg PUBLIC "-//W3C//DTD SVG 1.1//EN"
 "http://www.w3.org/Graphics/SVG/1.1/DTD/svg11.dtd">
<!-- Generated by graphviz version 7.0.4 (20221203.1631)
 -->
<!-- Title: G Pages: 1 -->
<svg width="344pt" height="230pt"
 viewBox="0.00 0.00 344.00 230.00" xmlns="http://www.w3.org/2000/svg" xmlns:xlink="http://www.w3.org/1999/xlink">
<g id="graph0" class="graph" transform="scale(1 1) rotate(0) translate(4 226)">
<title>G</title>
<polygon fill="white" stroke="none" points="-4,4 -4,-226 340,-226 340,4 -4,4"/>
<g id="clust1" class="cluster">
<title>cluster_acl</title>
<polygon fill="none" stroke="black" points="8,-64 8,-214 224,-214 224,-64 8,-64"/>
<text text-anchor="middle" x="116" y="-198.8" font-family="Times,serif" font-size="14.00">acl</text>
</g>
<g id="clust2" class="cluster">
<title>cluster_option</title>
<polygon fill="none" stroke="black" points="232,-64 232,-139 328,-139 328,-64 232,-64"/>
<text text-anchor="middle" x="280" y="-123.8" font-family="Times,serif" font-size="14.00">option</text>
</g>
<!-- contains -->
<g id="node1" class="node">
<title>contains</title>
<ellipse fill="none" stroke="black" cx="189" cy="-18" rx="40.09" ry="18"/>
<text text-anchor="middle" x="189" y="-14.3" font-family="Times,serif" font-size="14.00">contains</text>
</g>
<!-- acl::contains -->
<g id="node2" class="node">
<title>acl::contains</title>
<ellipse fill="none" stroke="black" cx="100" cy="-90" rx="40.09" ry="18"/>
<text text-anchor="middle" x="100" y="-86.3" font-family="Times,serif" font-size="14.00">contains</text>
</g>
<!-- acl::contains&#45;&gt;contains -->
<g id="edge1" class="edge">
<title>acl::contains&#45;&gt;contains</title>
<path fill="none" stroke="black" d="M119.31,-73.81C131.44,-64.27 147.29,-51.8 160.81,-41.17"/>
<polygon fill="black" stroke="black" points="162.84,-44.03 168.54,-35.1 158.51,-38.53 162.84,-44.03"/>
</g>
<!-- acl::add -->
<g id="node3" class="node">
<title>acl::add</title>
<ellipse fill="none" stroke="black" cx="189" cy="-165" rx="27" ry="18"/>
<text text-anchor="middle" x="189" y="-161.3" font-family="Times,serif" font-size="14.00">add</text>
</g>
<!-- acl::add&#45;&gt;contains -->
<g id="edge2" class="edge">
<title>acl::add&#45;&gt;contains</title>
<path fill="none" stroke="black" d="M189,-146.51C189,-121.88 189,-76.71 189,-47.28"/>
<polygon fill="black" stroke="black" points="192.5,-47.62 189,-37.62 185.5,-47.62 192.5,-47.62"/>
</g>
<!-- option::contains -->
<g id="node4" class="node">
<title>option::contains</title>
<ellipse fill="none" stroke="black" cx="280" cy="-90" rx="40.09" ry="18"/>
<text text-anchor="middle" x="280" y="-86.3" font-family="Times,serif" font-size="14.00">contains</text>
</g>
<!-- option::contains&#45;&gt;contains -->
<g id="edge3" class="edge">
<title>option::contains&#45;&gt;contains</title>
<path fill="none" stroke="black" d="M260.7,-74.15C248.12,-64.48 231.48,-51.68 217.4,-40.85"/>
<polygon fill="black" stroke="black" points="219.84,-38.31 209.78,-34.99 215.58,-43.86 219.84,-38.31"/>
</g>
<!-- acl::assert_contains -->
<g id="node5" class="node">
<title>acl::assert_contains</title>
<ellipse fill="none" stroke="black" cx="80" cy="-165" rx="64.19" ry="18"/>
<text text-anchor="middle" x="80" y="-161.3" font-family="Times,serif" font-size="14.00">assert_contains</text>
</g>
<!-- acl::assert_contains&#45;&gt;acl::contains -->
<g id="edge4" class="edge">
<title>acl::assert_contains&#45;&gt;acl::contains</title>
<path fill="none" stroke="black" d="M84.74,-146.7C87.01,-138.43 89.78,-128.31 92.33,-118.99"/>
<polygon fill="black" stroke="black" points="95.63,-120.2 94.89,-109.64 88.88,-118.36 95.63,-120.2"/>
</g>
</g>
</svg>
