<svg xmlns="http://www.w3.org/2000/svg" xmlns:xlink="http://www.w3.org/1999/xlink" xmlns:lucid="lucid" width="940" height="540"><g transform="translate(-380 -620.0000000000001)" lucid:page-tab-id="0_0"><path d="M620 786a6 6 0 0 1 6-6h188a6 6 0 0 1 6 6v131.33a6 6 0 0 1-6 6H626a6 6 0 0 1-6-6z" fill-opacity="0"/><path d="M634.75 780.07h9.7m4.83 0h9.7m4.84 0l9.7-.02m4.83 0h9.7m4.84 0h9.67m4.85 0h9.7m4.83 0l9.7-.02m4.84 0h9.68m4.84 0h9.7m4.83 0h9.7m4.84-.02h9.68m4.84 0h9.7m4.84 0H814l.94.07.9.22.88.35.8.5.72.6.6.72.5.8.37.88.23.9v4.9m0 4.9v9.8m0 4.9l.02 9.8m0 4.9v9.8m0 4.9v9.8m0 4.9l.02 9.8m0 4.9v9.8m0 4.9l.02 9.8m0 4.9v9.8m0 4.88v4.9l-.07.94-.22.92-.35.86-.5.8-.6.72-.72.6-.8.5-.88.36-.9.22h-4.86m-4.85 0h-9.7m-4.83 0h-9.7m-4.84 0l-9.7.02m-4.83 0h-9.7m-4.84 0h-9.67m-4.85 0l-9.7.02m-4.83 0h-9.7m-4.84 0h-9.68m-4.84 0h-9.7m-4.83 0l-9.7.02m-4.84 0h-9.68m-4.84 0h-9.7m-4.84 0H626l-.94-.06-.9-.22-.88-.36-.8-.5-.72-.6-.6-.72-.5-.8-.37-.87-.23-.93v-4.9m0-4.9v-9.8m0-4.9l-.02-9.8m0-4.9v-9.8m0-4.9v-9.78m0-4.9l-.02-9.8m0-4.9v-9.8m0-4.9l-.02-9.8m0-4.9v-9.8m0-4.9V786l.07-.94.22-.9.35-.88.5-.8.6-.72.72-.6.8-.5.88-.37.9-.23h4.86" stroke="#3a414a" fill="none"/><use xlink:href="#a" transform="matrix(1,0,0,1,625,785) translate(0 26.45497457777779)"/><use xlink:href="#b" transform="matrix(1,0,0,1,625,785) translate(0 53.121641244444454)"/><use xlink:href="#b" transform="matrix(1,0,0,1,625,785) translate(0 79.78830791111113)"/><use xlink:href="#b" transform="matrix(1,0,0,1,625,785) translate(0 106.45497457777779)"/><use xlink:href="#c" transform="matrix(1,0,0,1,625,785) translate(0 133.12164124444448)"/><use xlink:href="#d" transform="matrix(1,0,0,1,625,785) translate(6.172839506172839 133.12164124444448)"/><path d="M860 766a6 6 0 0 1 6-6h428a6 6 0 0 1 6 6v368a6 6 0 0 1-6 6H866a6 6 0 0 1-6-6z" fill-opacity="0"/><path d="M874.92 760.07h9.86m4.93 0h9.87m4.93 0h9.86m4.94 0h9.86m4.93 0h9.85m4.93 0h9.86m4.93 0h9.86m4.93-.02h9.86m4.93 0h9.86m4.94 0h9.86m4.93 0h9.86m4.92 0h9.86m4.93 0h9.87m4.93 0h9.87m4.93 0l9.86-.02m4.93 0h9.85m4.93 0h9.86m4.93 0h9.86m4.93 0h9.86m4.93 0h9.86m4.94 0h9.86m4.93 0h9.86m4.92 0l9.86-.02m4.93 0h9.88m4.93 0h9.87m4.93 0h9.86m4.93 0h9.85m4.93 0h9.86m4.93 0h4.93l.94.07.9.22.88.35.8.5.72.6.6.72.5.8.37.88.23.9V770m0 4.92v9.84m0 4.92v9.84m0 4.9v9.85m0 4.92V829m0 4.93v9.84m0 4.92v9.83m.02 4.92v9.83m0 4.92v9.84m0 4.92v9.84m0 4.92v9.84m0 4.92v9.83m0 4.93v9.84m0 4.92l.02 9.83m0 4.92v9.84m0 4.9v9.84m0 4.92v9.84m0 4.92v9.84m0 4.92v9.84m0 4.92v9.83m0 4.92l.02 9.83m0 4.92v9.84m0 4.9v9.85m0 4.92v9.83m0 4.92v9.84m0 4.92v4.92l-.07.94-.22.9-.35.88-.5.8-.6.72-.72.6-.8.5-.88.37-.9.23H1290m-4.92 0h-9.86m-4.93 0h-9.87m-4.93 0h-9.86m-4.94 0h-9.86m-4.93 0h-9.85m-4.93 0h-9.86m-4.93 0h-9.86m-4.93.02h-9.86m-4.93 0h-9.86m-4.94 0h-9.86m-4.93 0h-9.86m-4.92 0h-9.86m-4.93 0h-9.87m-4.93 0h-9.87m-4.93 0l-9.86.02m-4.93 0h-9.85m-4.93 0h-9.86m-4.93 0h-9.86m-4.93 0h-9.86m-4.93 0h-9.86m-4.94 0h-9.86m-4.93 0h-9.86m-4.92 0l-9.86.02m-4.93 0H935m-4.93 0h-9.87m-4.93 0h-9.86m-4.93 0h-9.85m-4.93 0h-9.86m-4.93 0H866l-.94-.07-.9-.22-.88-.35-.8-.5-.72-.6-.6-.72-.5-.8-.37-.88-.23-.9V1130m0-4.92v-9.84m0-4.92v-9.84m0-4.9v-9.85m0-4.92V1071m0-4.93v-9.84m0-4.92v-9.83m-.02-4.92v-9.83m0-4.92v-9.84m0-4.92v-9.84m0-4.92v-9.84m0-4.92v-9.83m0-4.93v-9.84m0-4.92l-.02-9.83m0-4.92v-9.84m0-4.9v-9.84m0-4.92v-9.84m0-4.92v-9.84m0-4.92v-9.84m0-4.92v-9.83m0-4.92l-.02-9.83m0-4.92v-9.84m0-4.9v-9.85m0-4.92v-9.83m0-4.92v-9.84m0-4.92V766l.07-.94.22-.9.35-.88.5-.8.6-.72.72-.6.8-.5.88-.37.9-.23H870" stroke="#3a414a" fill="none"/><use xlink:href="#a" transform="matrix(1,0,0,1,865,765) translate(0 49.071894897777774)"/><use xlink:href="#b" transform="matrix(1,0,0,1,865,765) translate(0 75.73856156444444)"/><use xlink:href="#b" transform="matrix(1,0,0,1,865,765) translate(0 102.40522823111112)"/><use xlink:href="#b" transform="matrix(1,0,0,1,865,765) translate(0 129.07189489777778)"/><use xlink:href="#b" transform="matrix(1,0,0,1,865,765) translate(0 155.73856156444444)"/><use xlink:href="#b" transform="matrix(1,0,0,1,865,765) translate(0 182.4052282311111)"/><use xlink:href="#b" transform="matrix(1,0,0,1,865,765) translate(0 209.07189489777775)"/><use xlink:href="#b" transform="matrix(1,0,0,1,865,765) translate(0 235.7385615644444)"/><use xlink:href="#b" transform="matrix(1,0,0,1,865,765) translate(0 262.4052282311111)"/><use xlink:href="#b" transform="matrix(1,0,0,1,865,765) translate(0 289.0718948977777)"/><use xlink:href="#b" transform="matrix(1,0,0,1,865,765) translate(0 315.7385615644444)"/><use xlink:href="#b" transform="matrix(1,0,0,1,865,765) translate(0 342.4052282311111)"/><use xlink:href="#c" transform="matrix(1,0,0,1,865,765) translate(0 369.0718948977778)"/><use xlink:href="#e" transform="matrix(1,0,0,1,865,765) translate(6.172839506172839 369.0718948977778)"/><path d="M400 806a6 6 0 0 1 6-6h148a6 6 0 0 1 6 6v65.08a6 6 0 0 1-6 6H406a6 6 0 0 1-6-6z" stroke="#3a414a" fill-opacity="0"/><use xlink:href="#f" transform="matrix(1,0,0,1,405,805) translate(46.69753086419753 39.02777777777778)"/><path d="M640 806a6 6 0 0 1 6-6h148a6 6 0 0 1 6 6v65.08a6 6 0 0 1-6 6H646a6 6 0 0 1-6-6z" stroke="#3a414a" fill-opacity="0"/><use xlink:href="#g" transform="matrix(1,0,0,1,645,805) translate(45.4320987654321 24.15277777777778)"/><use xlink:href="#h" transform="matrix(1,0,0,1,645,805) translate(38.02469135802469 50.81944444444445)"/><path d="M880 806a6 6 0 0 1 6-6h148a6 6 0 0 1 6 6v65.08a6 6 0 0 1-6 6H886a6 6 0 0 1-6-6z" stroke="#3a414a" fill-opacity="0"/><use xlink:href="#i" transform="matrix(1,0,0,1,885,805) translate(70.06172839506173 24.84722222222222)"/><use xlink:href="#j" transform="matrix(1,0,0,1,885,805) translate(29.413580246913583 49.736111111111114)"/><path d="M880 926a6 6 0 0 1 6-6h148a6 6 0 0 1 6 6v65.08a6 6 0 0 1-6 6H886a6 6 0 0 1-6-6z" stroke="#3a414a" fill-opacity="0"/><use xlink:href="#k" transform="matrix(1,0,0,1,885,925) translate(43.827160493827165 24.15277777777778)"/><use xlink:href="#l" transform="matrix(1,0,0,1,885,925) translate(33.08641975308642 50.81944444444445)"/><path d="M1120 806a6 6 0 0 1 6-6h148a6 6 0 0 1 6 6v65.08a6 6 0 0 1-6 6h-148a6 6 0 0 1-6-6z" stroke="#3a414a" fill-opacity="0"/><use xlink:href="#m" transform="matrix(1,0,0,1,1125,804.9999999999999) translate(19.475308641975296 39.02777777777778)"/><path d="M1120 926a6 6 0 0 1 6-6h148a6 6 0 0 1 6 6v65.08a6 6 0 0 1-6 6h-148a6 6 0 0 1-6-6z" stroke="#3a414a" fill-opacity="0"/><use xlink:href="#n" transform="matrix(1,0,0,1,1125,924.9999999999999) translate(26.26543209876543 39.02777777777778)"/><path d="M1120 1046a6 6 0 0 1 6-6h148a6 6 0 0 1 6 6v65.08a6 6 0 0 1-6 6h-148a6 6 0 0 1-6-6z" stroke="#3a414a" fill-opacity="0"/><use xlink:href="#o" transform="matrix(1,0,0,1,1125,1045) translate(36.141975308641975 39.02777777777778)"/><path d="M880 646a6 6 0 0 1 6-6h388a6 6 0 0 1 6 6v65.08a6 6 0 0 1-6 6H886a6 6 0 0 1-6-6z" stroke="#3a414a" fill-opacity="0"/><use xlink:href="#p" transform="matrix(1,0,0,1,885,645.0000000000001) translate(115.70987654320987 39.02777777777778)"/><use xlink:href="#e" transform="matrix(1,0,0,1,885,645.0000000000001) translate(177.37654320987653 39.02777777777778)"/><path d="M560.96 838.54h62.2" stroke="#3a414a" fill="none"/><path d="M560.98 839.04h-.52v-1h.52z" stroke="#3a414a" stroke-width=".05" fill="#3a414a"/><path d="M637.92 838.54l-14.27 4.64v-9.27z" stroke="#3a414a" fill="#3a414a"/><use xlink:href="#q" transform="matrix(1,0,0,1,589.0617283950618,813.208333253155) translate(0 14.222222222222223)"/><path d="M800.5 840h62.2M800.5 840h-.5" stroke="#3a414a" fill="none"/><path d="M877.45 840l-14.26 4.64v-9.28z" stroke="#3a414a" fill="#3a414a"/><use xlink:href="#r" transform="matrix(1,0,0,1,834.5981798898183,814.6666666666666) translate(0 14.222222222222223)"/><path d="M765.33 878.02V1080l337.82-1.4" stroke="#3a414a" fill="none"/><path d="M765.83 878.04h-1v-.52h1z" stroke="#3a414a" stroke-width=".05" fill="#3a414a"/><path d="M1117.92 1078.55l-14.25 4.7-.04-9.28z" stroke="#3a414a" fill="#3a414a"/><path d="M1117.05 840h-60.67M1117.04 840h.5" stroke="#3a414a" fill="none"/><path d="M1041.62 840l14.26-4.64v9.28z" stroke="#3a414a" fill="#3a414a"/><use xlink:href="#s" transform="matrix(1,0,0,1,1073.8386450937294,814.6666666666666) translate(0 14.222222222222223)"/><path d="M1117.05 960h-60.67M1117.04 960h.5" stroke="#3a414a" fill="none"/><path d="M1041.62 960l14.26-4.64v9.28z" stroke="#3a414a" fill="#3a414a"/><use xlink:href="#t" transform="matrix(1,0,0,1,1073.8386450937294,934.6666666666667) translate(0 14.222222222222223)"/><path d="M1200 1000.5v22.65M1200 1000.5v-.5" stroke="#3a414a" fill="none"/><path d="M1200 1037.92l-4.64-14.27h9.28z" stroke="#3a414a" fill="#3a414a"/><use xlink:href="#u" transform="matrix(1,0,0,1,1208,1000.6666666666667) translate(0 14.222222222222223)"/><path d="M1200 880.5v22.65M1200 880.5v-.5" stroke="#3a414a" fill="none"/><path d="M1200 917.92l-4.64-14.27h9.28z" stroke="#3a414a" fill="#3a414a"/><path d="M960 880.5v22.65M960 880.5v-.5" stroke="#3a414a" fill="none"/><path d="M960 917.92l-4.64-14.27h9.28z" stroke="#3a414a" fill="#3a414a"/><path d="M960 733.95v49.2" stroke="#3a414a" fill="none"/><path d="M960 719.2l4.64 14.25h-9.28zM960 797.92l-4.64-14.27h9.28z" stroke="#3a414a" fill="#3a414a"/><g><use xlink:href="#v" transform="matrix(1,0,0,1,968.0000000000001,735.3333333333334) translate(0 14.222222222222223)"/></g><path d="M1200 733.9v49.25" stroke="#3a414a" fill="none"/><path d="M1200 719.14l4.64 14.27h-9.28zM1200 797.92l-4.64-14.27h9.28z" stroke="#3a414a" fill="#3a414a"/><g><path d="M960.5 997.33a.25.25 0 0 1 .25.25v81.92a.25.25 0 0 1-.25.25.25.25 0 0 1-.25-.25v-81.92a.25.25 0 0 1 .25-.25z" stroke="#3a414a" stroke-width=".5" fill="none"/></g><path d="M1160 726a6 6 0 0 1 6-6h28a6 6 0 0 1 6 6v29.46a6 6 0 0 1-6 6h-28a6 6 0 0 1-6-6z" stroke="#000" stroke-opacity="0" fill-opacity="0"/><g><use xlink:href="#w" transform="matrix(1,0,0,1,1165,725) translate(10.06172839506173 20.22222222222222)"/></g><path d="M1200 726a6 6 0 0 1 6-6h28a6 6 0 0 1 6 6v29.46a6 6 0 0 1-6 6h-28a6 6 0 0 1-6-6z" stroke="#000" stroke-opacity="0" fill-opacity="0"/><g><use xlink:href="#x" transform="matrix(1,0,0,1,1205,725) translate(5.123456790123459 20.22222222222222)"/></g><path d="M1160 886a6 6 0 0 1 6-6h28a6 6 0 0 1 6 6v29.46a6 6 0 0 1-6 6h-28a6 6 0 0 1-6-6z" stroke="#000" stroke-opacity="0" fill-opacity="0"/><g><use xlink:href="#y" transform="matrix(1,0,0,1,1165,885) translate(10.06172839506173 20.22222222222222)"/></g><path d="M1200 886a6 6 0 0 1 6-6h28a6 6 0 0 1 6 6v29.46a6 6 0 0 1-6 6h-28a6 6 0 0 1-6-6z" stroke="#000" stroke-opacity="0" fill-opacity="0"/><g><use xlink:href="#z" transform="matrix(1,0,0,1,1205,885) translate(10.06172839506173 20.22222222222222)"/></g><defs><path fill="#3a414a" d="M63-220v92h138v28H63V0H30v-248h175v28H63" id="A"/><path fill="#3a414a" d="M84 4C-5 8 30-112 23-190h32v120c0 31 7 50 39 49 72-2 45-101 50-169h31l1 190h-30c-1-10 1-25-2-33-11 22-28 36-60 37" id="B"/><path fill="#3a414a" d="M24 0v-261h32V0H24" id="C"/><path fill="#3a414a" d="M117-194c89-4 53 116 60 194h-32v-121c0-31-8-49-39-48C34-167 62-67 57 0H25l-1-190h30c1 10-1 24 2 32 11-22 29-35 61-36" id="D"/><path fill="#3a414a" d="M100-194c62-1 85 37 85 99 1 63-27 99-86 99S16-35 15-95c0-66 28-99 85-99zM99-20c44 1 53-31 53-75 0-43-8-75-51-75s-53 32-53 75 10 74 51 75" id="E"/><path fill="#3a414a" d="M85-194c31 0 48 13 60 33l-1-100h32l1 261h-30c-2-10 0-23-3-31C134-8 116 4 85 4 32 4 16-35 15-94c0-66 23-100 70-100zm9 24c-40 0-46 34-46 75 0 40 6 74 45 74 42 0 51-32 51-76 0-42-9-74-50-73" id="F"/><path fill="#3a414a" d="M100-194c63 0 86 42 84 106H49c0 40 14 67 53 68 26 1 43-12 49-29l28 8c-11 28-37 45-77 45C44 4 14-33 15-96c1-61 26-98 85-98zm52 81c6-60-76-77-97-28-3 7-6 17-6 28h103" id="G"/><path fill="#3a414a" d="M135-143c-3-34-86-38-87 0 15 53 115 12 119 90S17 21 10-45l28-5c4 36 97 45 98 0-10-56-113-15-118-90-4-57 82-63 122-42 12 7 21 19 24 35" id="H"/><g id="d"><use transform="matrix(0.06172839506172839,0,0,0.06172839506172839,0,0)" xlink:href="#A"/><use transform="matrix(0.06172839506172839,0,0,0.06172839506172839,13.518518518518517,0)" xlink:href="#B"/><use transform="matrix(0.06172839506172839,0,0,0.06172839506172839,25.864197530864196,0)" xlink:href="#C"/><use transform="matrix(0.06172839506172839,0,0,0.06172839506172839,30.74074074074074,0)" xlink:href="#C"/><use transform="matrix(0.06172839506172839,0,0,0.06172839506172839,35.617283950617285,0)" xlink:href="#D"/><use transform="matrix(0.06172839506172839,0,0,0.06172839506172839,47.96296296296296,0)" xlink:href="#E"/><use transform="matrix(0.06172839506172839,0,0,0.06172839506172839,60.30864197530864,0)" xlink:href="#F"/><use transform="matrix(0.06172839506172839,0,0,0.06172839506172839,72.65432098765432,0)" xlink:href="#G"/><use transform="matrix(0.06172839506172839,0,0,0.06172839506172839,85,0)" xlink:href="#H"/></g><path fill="#3a414a" d="M137 0h-34L2-248h35l83 218 83-218h36" id="I"/><path fill="#3a414a" d="M141-36C126-15 110 5 73 4 37 3 15-17 15-53c-1-64 63-63 125-63 3-35-9-54-41-54-24 1-41 7-42 31l-33-3c5-37 33-52 76-52 45 0 72 20 72 64v82c-1 20 7 32 28 27v20c-31 9-61-2-59-35zM48-53c0 20 12 33 32 33 41-3 63-29 60-74-43 2-92-5-92 41" id="J"/><path fill="#3a414a" d="M24-231v-30h32v30H24zM24 0v-190h32V0H24" id="K"/><path fill="#3a414a" d="M59-47c-2 24 18 29 38 22v24C64 9 27 4 27-40v-127H5v-23h24l9-43h21v43h35v23H59v120" id="L"/><path fill="#3a414a" d="M114-163C36-179 61-72 57 0H25l-1-190h30c1 12-1 29 2 39 6-27 23-49 58-41v29" id="M"/><g id="e"><use transform="matrix(0.06172839506172839,0,0,0.06172839506172839,0,0)" xlink:href="#I"/><use transform="matrix(0.06172839506172839,0,0,0.06172839506172839,13.148148148148147,0)" xlink:href="#J"/><use transform="matrix(0.06172839506172839,0,0,0.06172839506172839,25.493827160493826,0)" xlink:href="#C"/><use transform="matrix(0.06172839506172839,0,0,0.06172839506172839,30.370370370370367,0)" xlink:href="#K"/><use transform="matrix(0.06172839506172839,0,0,0.06172839506172839,35.24691358024691,0)" xlink:href="#F"/><use transform="matrix(0.06172839506172839,0,0,0.06172839506172839,47.59259259259259,0)" xlink:href="#J"/><use transform="matrix(0.06172839506172839,0,0,0.06172839506172839,59.938271604938265,0)" xlink:href="#L"/><use transform="matrix(0.06172839506172839,0,0,0.06172839506172839,66.1111111111111,0)" xlink:href="#E"/><use transform="matrix(0.06172839506172839,0,0,0.06172839506172839,78.45679012345678,0)" xlink:href="#M"/><use transform="matrix(0.06172839506172839,0,0,0.06172839506172839,85.80246913580247,0)" xlink:href="#H"/></g><path fill="#3a414a" d="M212-179c-10-28-35-45-73-45-59 0-87 40-87 99 0 60 29 101 89 101 43 0 62-24 78-52l27 14C228-24 195 4 139 4 59 4 22-46 18-125c-6-104 99-153 187-111 19 9 31 26 39 46" id="N"/><g id="f"><use transform="matrix(0.06172839506172839,0,0,0.06172839506172839,0,0)" xlink:href="#N"/><use transform="matrix(0.06172839506172839,0,0,0.06172839506172839,15.987654320987653,0)" xlink:href="#C"/><use transform="matrix(0.06172839506172839,0,0,0.06172839506172839,20.864197530864196,0)" xlink:href="#K"/><use transform="matrix(0.06172839506172839,0,0,0.06172839506172839,25.74074074074074,0)" xlink:href="#G"/><use transform="matrix(0.06172839506172839,0,0,0.06172839506172839,38.08641975308642,0)" xlink:href="#D"/><use transform="matrix(0.06172839506172839,0,0,0.06172839506172839,50.432098765432094,0)" xlink:href="#L"/></g><path fill="#3a414a" d="M233-177c-1 41-23 64-60 70L243 0h-38l-65-103H63V0H30v-248c88 3 205-21 203 71zM63-129c60-2 137 13 137-47 0-61-80-42-137-45v92" id="O"/><path fill="#3a414a" d="M30 0v-248h187v28H63v79h144v27H63v87h162V0H30" id="P"/><path fill="#3a414a" d="M185-189c-5-48-123-54-124 2 14 75 158 14 163 119 3 78-121 87-175 55-17-10-28-26-33-46l33-7c5 56 141 63 141-1 0-78-155-14-162-118-5-82 145-84 179-34 5 7 8 16 11 25" id="Q"/><path fill="#3a414a" d="M127-220V0H93v-220H8v-28h204v28h-85" id="R"/><g id="g"><use transform="matrix(0.06172839506172839,0,0,0.06172839506172839,0,0)" xlink:href="#O"/><use transform="matrix(0.06172839506172839,0,0,0.06172839506172839,15.987654320987653,0)" xlink:href="#P"/><use transform="matrix(0.06172839506172839,0,0,0.06172839506172839,30.80246913580247,0)" xlink:href="#Q"/><use transform="matrix(0.06172839506172839,0,0,0.06172839506172839,45.61728395061728,0)" xlink:href="#R"/></g><path fill="#3a414a" d="M108 0H70L1-190h34L89-25l56-165h34" id="S"/><path fill="#3a414a" d="M96-169c-40 0-48 33-48 73s9 75 48 75c24 0 41-14 43-38l32 2c-6 37-31 61-74 61-59 0-76-41-82-99-10-93 101-131 147-64 4 7 5 14 7 22l-32 3c-4-21-16-35-41-35" id="T"/><g id="h"><use transform="matrix(0.06172839506172839,0,0,0.06172839506172839,0,0)" xlink:href="#Q"/><use transform="matrix(0.06172839506172839,0,0,0.06172839506172839,14.814814814814813,0)" xlink:href="#G"/><use transform="matrix(0.06172839506172839,0,0,0.06172839506172839,27.160493827160494,0)" xlink:href="#M"/><use transform="matrix(0.06172839506172839,0,0,0.06172839506172839,34.50617283950617,0)" xlink:href="#S"/><use transform="matrix(0.06172839506172839,0,0,0.06172839506172839,45.61728395061728,0)" xlink:href="#K"/><use transform="matrix(0.06172839506172839,0,0,0.06172839506172839,50.49382716049382,0)" xlink:href="#T"/><use transform="matrix(0.06172839506172839,0,0,0.06172839506172839,61.60493827160494,0)" xlink:href="#G"/></g><path fill="#3a414a" d="M128-127c34 4 56 21 59 58 7 91-148 94-172 28-4-9-6-17-7-26l51-5c1 24 16 35 40 36 23 0 39-12 38-36-1-31-31-36-65-34v-40c32 2 59-3 59-33 0-20-13-33-34-33s-33 13-35 32l-50-3c6-44 37-68 86-68 50 0 83 20 83 66 0 35-22 52-53 58" id="U"/><use transform="matrix(0.049382716049382706,0,0,0.049382716049382706,0,0)" xlink:href="#U" id="i"/><path fill="#3a414a" d="M240 0l2-218c-23 76-54 145-80 218h-23L58-218 59 0H30v-248h44l77 211c21-75 51-140 76-211h43V0h-30" id="V"/><path fill="#3a414a" d="M210-169c-67 3-38 105-44 169h-31v-121c0-29-5-50-35-48C34-165 62-65 56 0H25l-1-190h30c1 10-1 24 2 32 10-44 99-50 107 0 11-21 27-35 58-36 85-2 47 119 55 194h-31v-121c0-29-5-49-35-48" id="W"/><path fill="#3a414a" d="M115-194c55 1 70 41 70 98S169 2 115 4C84 4 66-9 55-30l1 105H24l-1-265h31l2 30c10-21 28-34 59-34zm-8 174c40 0 45-34 45-75s-6-73-45-74c-42 0-51 32-51 76 0 43 10 73 51 73" id="X"/><g id="j"><use transform="matrix(0.06172839506172839,0,0,0.06172839506172839,0,0)" xlink:href="#V"/><use transform="matrix(0.06172839506172839,0,0,0.06172839506172839,18.456790123456788,0)" xlink:href="#G"/><use transform="matrix(0.06172839506172839,0,0,0.06172839506172839,30.80246913580247,0)" xlink:href="#W"/><use transform="matrix(0.06172839506172839,0,0,0.06172839506172839,49.25925925925925,0)" xlink:href="#X"/><use transform="matrix(0.06172839506172839,0,0,0.06172839506172839,61.60493827160493,0)" xlink:href="#E"/><use transform="matrix(0.06172839506172839,0,0,0.06172839506172839,73.9506172839506,0)" xlink:href="#E"/><use transform="matrix(0.06172839506172839,0,0,0.06172839506172839,86.29629629629629,0)" xlink:href="#C"/></g><g id="k"><use transform="matrix(0.06172839506172839,0,0,0.06172839506172839,0,0)" xlink:href="#I"/><use transform="matrix(0.06172839506172839,0,0,0.06172839506172839,14.382716049382715,0)" xlink:href="#K"/><use transform="matrix(0.06172839506172839,0,0,0.06172839506172839,19.25925925925926,0)" xlink:href="#M"/><use transform="matrix(0.06172839506172839,0,0,0.06172839506172839,26.604938271604937,0)" xlink:href="#L"/><use transform="matrix(0.06172839506172839,0,0,0.06172839506172839,32.77777777777778,0)" xlink:href="#B"/><use transform="matrix(0.06172839506172839,0,0,0.06172839506172839,45.123456790123456,0)" xlink:href="#J"/><use transform="matrix(0.06172839506172839,0,0,0.06172839506172839,57.46913580246913,0)" xlink:href="#C"/></g><path fill="#3a414a" d="M106-169C34-169 62-67 57 0H25v-261h32l-1 103c12-21 28-36 61-36 89 0 53 116 60 194h-32v-121c2-32-8-49-39-48" id="Y"/><g id="l"><use transform="matrix(0.06172839506172839,0,0,0.06172839506172839,0,0)" xlink:href="#V"/><use transform="matrix(0.06172839506172839,0,0,0.06172839506172839,18.456790123456788,0)" xlink:href="#J"/><use transform="matrix(0.06172839506172839,0,0,0.06172839506172839,30.80246913580247,0)" xlink:href="#T"/><use transform="matrix(0.06172839506172839,0,0,0.06172839506172839,41.91358024691358,0)" xlink:href="#Y"/><use transform="matrix(0.06172839506172839,0,0,0.06172839506172839,54.25925925925926,0)" xlink:href="#K"/><use transform="matrix(0.06172839506172839,0,0,0.06172839506172839,59.135802469135804,0)" xlink:href="#D"/><use transform="matrix(0.06172839506172839,0,0,0.06172839506172839,71.48148148148148,0)" xlink:href="#G"/></g><g id="m"><use transform="matrix(0.06172839506172839,0,0,0.06172839506172839,0,0)" xlink:href="#N"/><use transform="matrix(0.06172839506172839,0,0,0.06172839506172839,15.987654320987653,0)" xlink:href="#E"/><use transform="matrix(0.06172839506172839,0,0,0.06172839506172839,28.333333333333332,0)" xlink:href="#D"/><use transform="matrix(0.06172839506172839,0,0,0.06172839506172839,40.67901234567901,0)" xlink:href="#H"/><use transform="matrix(0.06172839506172839,0,0,0.06172839506172839,51.79012345679013,0)" xlink:href="#G"/><use transform="matrix(0.06172839506172839,0,0,0.06172839506172839,64.13580246913581,0)" xlink:href="#D"/><use transform="matrix(0.06172839506172839,0,0,0.06172839506172839,76.4814814814815,0)" xlink:href="#H"/><use transform="matrix(0.06172839506172839,0,0,0.06172839506172839,87.59259259259261,0)" xlink:href="#B"/><use transform="matrix(0.06172839506172839,0,0,0.06172839506172839,99.9382716049383,0)" xlink:href="#H"/></g><path fill="#3a414a" d="M141 0L90-78 38 0H4l68-98-65-92h35l48 74 47-74h35l-64 92 68 98h-35" id="Z"/><g id="n"><use transform="matrix(0.06172839506172839,0,0,0.06172839506172839,0,0)" xlink:href="#P"/><use transform="matrix(0.06172839506172839,0,0,0.06172839506172839,14.814814814814813,0)" xlink:href="#Z"/><use transform="matrix(0.06172839506172839,0,0,0.06172839506172839,25.925925925925924,0)" xlink:href="#G"/><use transform="matrix(0.06172839506172839,0,0,0.06172839506172839,38.2716049382716,0)" xlink:href="#T"/><use transform="matrix(0.06172839506172839,0,0,0.06172839506172839,49.38271604938271,0)" xlink:href="#B"/><use transform="matrix(0.06172839506172839,0,0,0.06172839506172839,61.728395061728385,0)" xlink:href="#L"/><use transform="matrix(0.06172839506172839,0,0,0.06172839506172839,67.90123456790123,0)" xlink:href="#K"/><use transform="matrix(0.06172839506172839,0,0,0.06172839506172839,72.77777777777777,0)" xlink:href="#E"/><use transform="matrix(0.06172839506172839,0,0,0.06172839506172839,85.12345679012346,0)" xlink:href="#D"/></g><path fill="#3a414a" d="M177-190C167-65 218 103 67 71c-23-6-38-20-44-43l32-5c15 47 100 32 89-28v-30C133-14 115 1 83 1 29 1 15-40 15-95c0-56 16-97 71-98 29-1 48 16 59 35 1-10 0-23 2-32h30zM94-22c36 0 50-32 50-73 0-42-14-75-50-75-39 0-46 34-46 75s6 73 46 73" id="aa"/><g id="o"><use transform="matrix(0.06172839506172839,0,0,0.06172839506172839,0,0)" xlink:href="#Q"/><use transform="matrix(0.06172839506172839,0,0,0.06172839506172839,14.814814814814813,0)" xlink:href="#L"/><use transform="matrix(0.06172839506172839,0,0,0.06172839506172839,20.98765432098765,0)" xlink:href="#E"/><use transform="matrix(0.06172839506172839,0,0,0.06172839506172839,33.33333333333333,0)" xlink:href="#M"/><use transform="matrix(0.06172839506172839,0,0,0.06172839506172839,40.679012345679006,0)" xlink:href="#J"/><use transform="matrix(0.06172839506172839,0,0,0.06172839506172839,53.02469135802468,0)" xlink:href="#aa"/><use transform="matrix(0.06172839506172839,0,0,0.06172839506172839,65.37037037037037,0)" xlink:href="#G"/></g><path fill="#3a414a" d="M140-251c81 0 123 46 123 126C263-46 219 4 140 4 59 4 17-45 17-125s42-126 123-126zm0 227c63 0 89-41 89-101s-29-99-89-99c-61 0-89 39-89 99S79-25 140-24" id="ab"/><g id="p"><use transform="matrix(0.06172839506172839,0,0,0.06172839506172839,0,0)" xlink:href="#ab"/><use transform="matrix(0.06172839506172839,0,0,0.06172839506172839,17.28395061728395,0)" xlink:href="#L"/><use transform="matrix(0.06172839506172839,0,0,0.06172839506172839,23.456790123456788,0)" xlink:href="#Y"/><use transform="matrix(0.06172839506172839,0,0,0.06172839506172839,35.80246913580247,0)" xlink:href="#G"/><use transform="matrix(0.06172839506172839,0,0,0.06172839506172839,48.148148148148145,0)" xlink:href="#M"/></g><path fill="#333" d="M23 0v-37h61v-169l-59 37v-38l62-41h46v211h57V0H23" id="ac"/><use transform="matrix(0.04938271604938272,0,0,0.04938271604938272,0,0)" xlink:href="#ac" id="q"/><path fill="#333" d="M182-182c0 78-84 86-111 141h115V0H12c-6-101 99-100 120-180 1-22-12-31-33-32-23 0-32 14-35 34l-49-3c5-45 32-70 84-70 51 0 83 22 83 69" id="ad"/><use transform="matrix(0.04938271604938272,0,0,0.04938271604938272,0,0)" xlink:href="#ad" id="r"/><path fill="#333" d="M139-81c0-46-55-55-73-27H18l9-140h149v37H72l-4 63c44-38 133-4 122 66C201 21 21 35 11-62l49-4c5 18 15 30 39 30 26 0 40-18 40-45" id="ae"/><use transform="matrix(0.04938271604938272,0,0,0.04938271604938272,0,0)" xlink:href="#ae" id="s"/><path fill="#333" d="M138-131c27 9 52 24 51 61 0 53-36 74-89 74S11-19 11-69c0-35 22-54 51-61-78-25-46-121 38-121 51 0 83 19 83 66 0 30-18 49-45 54zm-38-16c24 0 32-13 32-36 1-23-11-34-32-34-22 0-33 12-32 34 0 22 9 36 32 36zm1 116c27 0 37-17 37-43 0-25-13-39-39-39-24 0-37 15-37 40 0 27 11 42 39 42" id="af"/><use transform="matrix(0.04938271604938272,0,0,0.04938271604938272,0,0)" xlink:href="#af" id="t"/><g id="u"><use transform="matrix(0.04938271604938272,0,0,0.04938271604938272,0,0)" xlink:href="#ac"/><use transform="matrix(0.04938271604938272,0,0,0.04938271604938272,8.88888888888889,0)" xlink:href="#ac"/></g><path fill="#333" d="M165-50V0h-47v-50H5v-38l105-160h55v161h33v37h-33zm-47-37l2-116L46-87h72" id="ag"/><use transform="matrix(0.04938271604938272,0,0,0.04938271604938272,0,0)" xlink:href="#ag" id="v"/><path fill="#3a414a" d="M115-159c48 0 72 30 72 78 0 54-30 85-83 85-64 0-91-50-91-122 0-98 58-163 141-120 15 8 21 24 27 44l-47 6c-5-31-48-31-61-4-7 14-11 33-11 60 9-17 28-27 53-27zM102-35c24 0 36-20 36-45s-11-43-37-43c-23 0-36 14-36 38 0 27 11 50 37 50" id="ah"/><use transform="matrix(0.049382716049382706,0,0,0.049382716049382706,0,0)" xlink:href="#ah" id="w"/><path fill="#3a414a" d="M23 0v-37h61v-169l-59 37v-38l62-41h46v211h57V0H23" id="ai"/><path fill="#3a414a" d="M101-251c68 0 84 54 84 127C185-50 166 4 99 4S15-52 14-124c-1-75 17-127 87-127zm-1 216c37-5 36-46 36-89s4-89-36-89c-39 0-36 45-36 89 0 43-3 85 36 89" id="aj"/><g id="x"><use transform="matrix(0.049382716049382706,0,0,0.049382716049382706,0,0)" xlink:href="#ai"/><use transform="matrix(0.049382716049382706,0,0,0.049382716049382706,9.87654320987654,0)" xlink:href="#aj"/></g><path fill="#3a414a" d="M52 0c1-96 47-148 87-207H15v-41h169v40c-36 62-79 113-81 208H52" id="ak"/><use transform="matrix(0.049382716049382706,0,0,0.049382716049382706,0,0)" xlink:href="#ak" id="y"/><path fill="#3a414a" d="M99-251c69 0 84 53 88 123 5 99-61 162-144 118-15-8-21-25-26-45l46-6c4 31 50 33 63 7 7-15 12-36 12-60-9 18-29 28-54 28-48 0-72-32-72-82 0-55 31-83 87-83zm-1 128c24 0 37-16 37-39 0-27-10-51-37-51-25 0-35 19-35 45 0 25 10 45 35 45" id="al"/><use transform="matrix(0.049382716049382706,0,0,0.049382716049382706,0,0)" xlink:href="#al" id="z"/></defs></g></svg>