<svg xmlns="http://www.w3.org/2000/svg" xmlns:xlink="http://www.w3.org/1999/xlink" xmlns:lucid="lucid" width="660" height="337.08"><g transform="translate(-620 -800)" lucid:page-tab-id="0_0"><path d="M640 927.46a6 6 0 0 1 6-6h148a6 6 0 0 1 6 6v65.08a6 6 0 0 1-6 6H646a6 6 0 0 1-6-6z" stroke="#fff" fill-opacity="0"/><use xlink:href="#a" transform="matrix(1,0,0,1,645,926.4583333333333) translate(46.69753086419753 39.02777777777778)"/><path d="M880 926a6 6 0 0 1 6-6h148a6 6 0 0 1 6 6v65.08a6 6 0 0 1-6 6H886a6 6 0 0 1-6-6z" stroke="#fff" fill-opacity="0"/><use xlink:href="#b" transform="matrix(1,0,0,1,885,925) translate(18.333333333333336 24.15277777777778)"/><use xlink:href="#c" transform="matrix(1,0,0,1,885,925) translate(38.02469135802469 50.81944444444445)"/><path d="M1100 826a6 6 0 0 1 6-6h148a6 6 0 0 1 6 6v65.08a6 6 0 0 1-6 6h-148a6 6 0 0 1-6-6z" stroke="#fff" fill-opacity="0"/><use xlink:href="#d" transform="matrix(1,0,0,1,1105,825) translate(29.413580246913583 39.02777777777778)"/><path d="M1100 1046a6 6 0 0 1 6-6h148a6 6 0 0 1 6 6v65.08a6 6 0 0 1-6 6h-148a6 6 0 0 1-6-6z" stroke="#fff" fill-opacity="0"/><use xlink:href="#e" transform="matrix(1,0,0,1,1105,1045) translate(36.141975308641975 39.02777777777778)"/><path d="M1014.4 859.08l-49.28.04-.82.2-.8.32-.73.45-.66.55-.55.66-.45.75-.33.8-.2.83-.07.88v54.48h-1v-54.52l.08-1 .24-1 .4-.93.52-.88.66-.78.78-.66.87-.53.94-.4 1-.23 49.4-.04zm68.75-.04l-58.88.04v-1l58.88-.04z" stroke="#fff" stroke-width=".05" fill="#fff"/><path d="M960.5 919.54h-1v-.52h1z" fill="#fff"/><path d="M960.52 919.56h-1.04V919h1.04zm-1-.5v.45h.96v-.45z" stroke="#fff" stroke-width=".05" fill="#fff"/><path d="M1097.92 858.54l-14.27 4.64v-9.27z" fill="#fff"/><path d="M1099.54 858.54l-16.4 5.33v-10.65zm-15.4 3.95l12.16-3.96-12.15-3.95z" stroke="#fff" stroke-width=".05" fill="#fff"/><use xlink:href="#f" transform="matrix(1,0,0,1,1014.3950617283953,847.8750000000001) translate(0 14.222222222222223)"/><path d="M827.73 959.04h-26.77v-1h26.77zm35.42 0H837.6v-1h25.55z" stroke="#fff" stroke-width=".05" fill="#fff"/><path d="M877.92 958.54l-14.27 4.64v-9.27z" fill="#fff"/><path d="M879.54 958.54l-16.4 5.33v-10.65zm-15.4 3.95l12.16-3.96-12.15-3.95z" stroke="#fff" stroke-width=".05" fill="#fff"/><path d="M800.97 959.04h-.5v-1h.5z" fill="#fff"/><path d="M801 959.07h-.56v-1.05h.56zm-.5-1v.95h.45v-.95z" stroke="#fff" stroke-width=".05" fill="#fff"/><use xlink:href="#g" transform="matrix(1,0,0,1,827.7283950617285,947.8750000000001) translate(0 14.222222222222223)"/><path d="M1083.15 1078.04v1l-60.2-.04v-1zm-122.65-5.52l.07.88.2.84.33.8.45.73.56.66.67.56.73.44.8.33.82.2 47.94.03v1l-48.06-.03-1-.24-.95-.4-.87-.53-.78-.66-.66-.78-.53-.87-.38-.95-.24-1-.08-1v-74.5h1z" stroke="#fff" stroke-width=".05" fill="#fff"/><path d="M960.5 998.06h-1v-.5h1z" fill="#fff"/><path d="M960.52 998.08h-1.04v-.56h1.04zm-1-.5v.45h.96v-.46z" stroke="#fff" stroke-width=".05" fill="#fff"/><path d="M1097.92 1078.54l-14.27 4.64v-9.27z" fill="#fff"/><path d="M1099.54 1078.54l-16.4 5.33v-10.65zm-15.4 3.95l12.16-3.96-12.15-3.95z" stroke="#fff" stroke-width=".05" fill="#fff"/><use xlink:href="#h" transform="matrix(1,0,0,1,1013.0617283950619,1067.875) translate(0 14.222222222222223)"/><defs><path fill="#fff" d="M212-179c-10-28-35-45-73-45-59 0-87 40-87 99 0 60 29 101 89 101 43 0 62-24 78-52l27 14C228-24 195 4 139 4 59 4 22-46 18-125c-6-104 99-153 187-111 19 9 31 26 39 46" id="i"/><path fill="#fff" d="M24 0v-261h32V0H24" id="j"/><path fill="#fff" d="M24-231v-30h32v30H24zM24 0v-190h32V0H24" id="k"/><path fill="#fff" d="M100-194c63 0 86 42 84 106H49c0 40 14 67 53 68 26 1 43-12 49-29l28 8c-11 28-37 45-77 45C44 4 14-33 15-96c1-61 26-98 85-98zm52 81c6-60-76-77-97-28-3 7-6 17-6 28h103" id="l"/><path fill="#fff" d="M117-194c89-4 53 116 60 194h-32v-121c0-31-8-49-39-48C34-167 62-67 57 0H25l-1-190h30c1 10-1 24 2 32 11-22 29-35 61-36" id="m"/><path fill="#fff" d="M59-47c-2 24 18 29 38 22v24C64 9 27 4 27-40v-127H5v-23h24l9-43h21v43h35v23H59v120" id="n"/><g id="a"><use transform="matrix(0.06172839506172839,0,0,0.06172839506172839,0,0)" xlink:href="#i"/><use transform="matrix(0.06172839506172839,0,0,0.06172839506172839,15.987654320987653,0)" xlink:href="#j"/><use transform="matrix(0.06172839506172839,0,0,0.06172839506172839,20.864197530864196,0)" xlink:href="#k"/><use transform="matrix(0.06172839506172839,0,0,0.06172839506172839,25.74074074074074,0)" xlink:href="#l"/><use transform="matrix(0.06172839506172839,0,0,0.06172839506172839,38.08641975308642,0)" xlink:href="#m"/><use transform="matrix(0.06172839506172839,0,0,0.06172839506172839,50.432098765432094,0)" xlink:href="#n"/></g><path fill="#fff" d="M153-248C145-148 188 4 80 4 36 3 13-21 6-62l32-5c4 25 16 42 43 43 27 0 39-20 39-49v-147H72v-28h81" id="o"/><path fill="#fff" d="M185-189c-5-48-123-54-124 2 14 75 158 14 163 119 3 78-121 87-175 55-17-10-28-26-33-46l33-7c5 56 141 63 141-1 0-78-155-14-162-118-5-82 145-84 179-34 5 7 8 16 11 25" id="p"/><path fill="#fff" d="M140-251c81 0 123 46 123 126C263-46 219 4 140 4 59 4 17-45 17-125s42-126 123-126zm0 227c63 0 89-41 89-101s-29-99-89-99c-61 0-89 39-89 99S79-25 140-24" id="q"/><path fill="#fff" d="M190 0L58-211 59 0H30v-248h39L202-35l-2-213h31V0h-41" id="r"/><path fill="#fff" d="M16-82v-28h88v28H16" id="s"/><path fill="#fff" d="M233-177c-1 41-23 64-60 70L243 0h-38l-65-103H63V0H30v-248c88 3 205-21 203 71zM63-129c60-2 137 13 137-47 0-61-80-42-137-45v92" id="t"/><path fill="#fff" d="M30-248c87 1 191-15 191 75 0 78-77 80-158 76V0H30v-248zm33 125c57 0 124 11 124-50 0-59-68-47-124-48v98" id="u"/><g id="b"><use transform="matrix(0.06172839506172839,0,0,0.06172839506172839,0,0)" xlink:href="#o"/><use transform="matrix(0.06172839506172839,0,0,0.06172839506172839,11.11111111111111,0)" xlink:href="#p"/><use transform="matrix(0.06172839506172839,0,0,0.06172839506172839,25.925925925925924,0)" xlink:href="#q"/><use transform="matrix(0.06172839506172839,0,0,0.06172839506172839,43.20987654320987,0)" xlink:href="#r"/><use transform="matrix(0.06172839506172839,0,0,0.06172839506172839,59.197530864197525,0)" xlink:href="#s"/><use transform="matrix(0.06172839506172839,0,0,0.06172839506172839,66.5432098765432,0)" xlink:href="#t"/><use transform="matrix(0.06172839506172839,0,0,0.06172839506172839,82.53086419753086,0)" xlink:href="#u"/><use transform="matrix(0.06172839506172839,0,0,0.06172839506172839,97.34567901234567,0)" xlink:href="#i"/></g><path fill="#fff" d="M114-163C36-179 61-72 57 0H25l-1-190h30c1 12-1 29 2 39 6-27 23-49 58-41v29" id="v"/><path fill="#fff" d="M108 0H70L1-190h34L89-25l56-165h34" id="w"/><path fill="#fff" d="M96-169c-40 0-48 33-48 73s9 75 48 75c24 0 41-14 43-38l32 2c-6 37-31 61-74 61-59 0-76-41-82-99-10-93 101-131 147-64 4 7 5 14 7 22l-32 3c-4-21-16-35-41-35" id="x"/><g id="c"><use transform="matrix(0.06172839506172839,0,0,0.06172839506172839,0,0)" xlink:href="#p"/><use transform="matrix(0.06172839506172839,0,0,0.06172839506172839,14.814814814814813,0)" xlink:href="#l"/><use transform="matrix(0.06172839506172839,0,0,0.06172839506172839,27.160493827160494,0)" xlink:href="#v"/><use transform="matrix(0.06172839506172839,0,0,0.06172839506172839,34.50617283950617,0)" xlink:href="#w"/><use transform="matrix(0.06172839506172839,0,0,0.06172839506172839,45.61728395061728,0)" xlink:href="#k"/><use transform="matrix(0.06172839506172839,0,0,0.06172839506172839,50.49382716049382,0)" xlink:href="#x"/><use transform="matrix(0.06172839506172839,0,0,0.06172839506172839,61.60493827160494,0)" xlink:href="#l"/></g><path fill="#fff" d="M240 0l2-218c-23 76-54 145-80 218h-23L58-218 59 0H30v-248h44l77 211c21-75 51-140 76-211h43V0h-30" id="y"/><path fill="#fff" d="M210-169c-67 3-38 105-44 169h-31v-121c0-29-5-50-35-48C34-165 62-65 56 0H25l-1-190h30c1 10-1 24 2 32 10-44 99-50 107 0 11-21 27-35 58-36 85-2 47 119 55 194h-31v-121c0-29-5-49-35-48" id="z"/><path fill="#fff" d="M115-194c55 1 70 41 70 98S169 2 115 4C84 4 66-9 55-30l1 105H24l-1-265h31l2 30c10-21 28-34 59-34zm-8 174c40 0 45-34 45-75s-6-73-45-74c-42 0-51 32-51 76 0 43 10 73 51 73" id="A"/><path fill="#fff" d="M100-194c62-1 85 37 85 99 1 63-27 99-86 99S16-35 15-95c0-66 28-99 85-99zM99-20c44 1 53-31 53-75 0-43-8-75-51-75s-53 32-53 75 10 74 51 75" id="B"/><g id="d"><use transform="matrix(0.06172839506172839,0,0,0.06172839506172839,0,0)" xlink:href="#y"/><use transform="matrix(0.06172839506172839,0,0,0.06172839506172839,18.456790123456788,0)" xlink:href="#l"/><use transform="matrix(0.06172839506172839,0,0,0.06172839506172839,30.80246913580247,0)" xlink:href="#z"/><use transform="matrix(0.06172839506172839,0,0,0.06172839506172839,49.25925925925925,0)" xlink:href="#A"/><use transform="matrix(0.06172839506172839,0,0,0.06172839506172839,61.60493827160493,0)" xlink:href="#B"/><use transform="matrix(0.06172839506172839,0,0,0.06172839506172839,73.9506172839506,0)" xlink:href="#B"/><use transform="matrix(0.06172839506172839,0,0,0.06172839506172839,86.29629629629629,0)" xlink:href="#j"/></g><path fill="#fff" d="M141-36C126-15 110 5 73 4 37 3 15-17 15-53c-1-64 63-63 125-63 3-35-9-54-41-54-24 1-41 7-42 31l-33-3c5-37 33-52 76-52 45 0 72 20 72 64v82c-1 20 7 32 28 27v20c-31 9-61-2-59-35zM48-53c0 20 12 33 32 33 41-3 63-29 60-74-43 2-92-5-92 41" id="C"/><path fill="#fff" d="M177-190C167-65 218 103 67 71c-23-6-38-20-44-43l32-5c15 47 100 32 89-28v-30C133-14 115 1 83 1 29 1 15-40 15-95c0-56 16-97 71-98 29-1 48 16 59 35 1-10 0-23 2-32h30zM94-22c36 0 50-32 50-73 0-42-14-75-50-75-39 0-46 34-46 75s6 73 46 73" id="D"/><g id="e"><use transform="matrix(0.06172839506172839,0,0,0.06172839506172839,0,0)" xlink:href="#p"/><use transform="matrix(0.06172839506172839,0,0,0.06172839506172839,14.814814814814813,0)" xlink:href="#n"/><use transform="matrix(0.06172839506172839,0,0,0.06172839506172839,20.98765432098765,0)" xlink:href="#B"/><use transform="matrix(0.06172839506172839,0,0,0.06172839506172839,33.33333333333333,0)" xlink:href="#v"/><use transform="matrix(0.06172839506172839,0,0,0.06172839506172839,40.679012345679006,0)" xlink:href="#C"/><use transform="matrix(0.06172839506172839,0,0,0.06172839506172839,53.02469135802468,0)" xlink:href="#D"/><use transform="matrix(0.06172839506172839,0,0,0.06172839506172839,65.37037037037037,0)" xlink:href="#l"/></g><path fill="#fff" d="M182-182c0 78-84 86-111 141h115V0H12c-6-101 99-100 120-180 1-22-12-31-33-32-23 0-32 14-35 34l-49-3c5-45 32-70 84-70 51 0 83 22 83 69" id="E"/><use transform="matrix(0.04938271604938272,0,0,0.04938271604938272,0,0)" xlink:href="#E" id="f"/><path fill="#fff" d="M23 0v-37h61v-169l-59 37v-38l62-41h46v211h57V0H23" id="F"/><use transform="matrix(0.04938271604938272,0,0,0.04938271604938272,0,0)" xlink:href="#F" id="g"/><path fill="#fff" d="M128-127c34 4 56 21 59 58 7 91-148 94-172 28-4-9-6-17-7-26l51-5c1 24 16 35 40 36 23 0 39-12 38-36-1-31-31-36-65-34v-40c32 2 59-3 59-33 0-20-13-33-34-33s-33 13-35 32l-50-3c6-44 37-68 86-68 50 0 83 20 83 66 0 35-22 52-53 58" id="G"/><use transform="matrix(0.04938271604938272,0,0,0.04938271604938272,0,0)" xlink:href="#G" id="h"/></defs></g></svg>