<svg xmlns="http://www.w3.org/2000/svg" xmlns:xlink="http://www.w3.org/1999/xlink" xmlns:lucid="lucid" width="860" height="626.33"><g transform="translate(-500 -220)" lucid:page-tab-id="0_0"><path d="M597.64 366.44a6 6 0 0 1 6-6h148a6 6 0 0 1 6 6V454a6 6 0 0 1-6 6h-148a6 6 0 0 1-6-6z" stroke="#3a414a" fill="#fff"/><use xlink:href="#a" transform="matrix(1,0,0,1,602.6362951105957,365.4427322016992) translate(49.074074074074076 48.71527777777778)"/><path d="M587.4 518.67a6 6 0 0 1 6-6h178.7a6 6 0 0 1 6 6v48a6 6 0 0 1-6 6H593.4a6 6 0 0 1-6-6z" stroke="#3a414a" fill="#fff"/><use xlink:href="#b" transform="matrix(1,0,0,1,592.4046245061234,517.6666666666667) translate(20.22222222222223 30.27777777777778)"/><use xlink:href="#c" transform="matrix(1,0,0,1,592.4046245061234,517.6666666666667) translate(81.82716049382717 30.27777777777778)"/><path d="M560 686a6 6 0 0 1 6-6h218.7a6 6 0 0 1 6 6v68a6 6 0 0 1-6 6H566a6 6 0 0 1-6-6z" stroke="#3a414a" fill="#fff"/><use xlink:href="#d" transform="matrix(1,0,0,1,565,685) translate(27.19753086419753 26.52777777777778)"/><use xlink:href="#e" transform="matrix(1,0,0,1,565,685) translate(102.44444444444444 26.52777777777778)"/><use xlink:href="#f" transform="matrix(1,0,0,1,565,685) translate(5.129629629629619 53.19444444444445)"/><use xlink:href="#g" transform="matrix(1,0,0,1,565,685) translate(54.32716049382715 53.19444444444445)"/><use xlink:href="#h" transform="matrix(1,0,0,1,565,685) translate(165.31481481481484 53.19444444444445)"/><path d="M677.64 460.96v34.86" stroke="#3a414a" fill="none"/><path d="M678.14 460.98h-1v-.52h1z" stroke="#3a414a" stroke-width=".05" fill="#3a414a"/><path d="M677.64 510.6L673 496.3h9.27z" stroke="#3a414a" fill="#3a414a"/><path d="M682.75 573.63v89.52" stroke="#3a414a" fill="none"/><path d="M683.25 573.64h-1v-.5h1z" stroke="#3a414a" stroke-width=".05" fill="#3a414a"/><path d="M682.75 677.92l-4.63-14.27h9.27z" stroke="#3a414a" fill="#3a414a"/><path d="M858.08 686a6 6 0 0 1 6-6h148a6 6 0 0 1 6 6v68a6 6 0 0 1-6 6h-148a6 6 0 0 1-6-6z" stroke="#3a414a" fill="#fff"/><use xlink:href="#i" transform="matrix(1,0,0,1,863.0754708035006,685) translate(4.1049382716049365 39.65277777777778)"/><use xlink:href="#j" transform="matrix(1,0,0,1,863.0754708035006,685) translate(100.3395061728395 39.65277777777778)"/><path d="M791.66 720h49.57" stroke="#3a414a" fill="none"/><path d="M791.67 720.5h-.5v-1h.5z" stroke="#3a414a" stroke-width=".05" fill="#3a414a"/><path d="M856 720l-14.27 4.64v-9.28z" stroke="#3a414a" fill="#3a414a"/><path d="M1077.6 686a6 6 0 0 1 6-6h148a6 6 0 0 1 6 6v68a6 6 0 0 1-6 6h-148a6 6 0 0 1-6-6z" stroke="#3a414a" fill="#fff"/><use xlink:href="#k" transform="matrix(1,0,0,1,1082.6121295945559,685) translate(35.49382716049382 26.52777777777778)"/><use xlink:href="#l" transform="matrix(1,0,0,1,1082.6121295945559,685) translate(29.320987654320987 53.19444444444445)"/><path d="M1019.04 720h41.72" stroke="#3a414a" fill="none"/><path d="M1019.05 720.5h-.5v-1h.5z" stroke="#3a414a" stroke-width=".05" fill="#3a414a"/><path d="M1075.53 720l-14.27 4.64v-9.28z" stroke="#3a414a" fill="#3a414a"/><path d="M597.64 246a6 6 0 0 1 6-6h148a6 6 0 0 1 6 6v48a6 6 0 0 1-6 6h-148a6 6 0 0 1-6-6z" stroke="#3a414a" fill="#fff"/><use xlink:href="#m" transform="matrix(1,0,0,1,602.6362951105957,245) translate(51.60493827160494 30.27777777777778)"/><path d="M677.64 300.96v42.64" stroke="#3a414a" fill="none"/><path d="M678.14 300.98h-1v-.52h1z" stroke="#3a414a" stroke-width=".05" fill="#3a414a"/><path d="M677.64 358.36L673 344.1h9.27z" stroke="#3a414a" fill="#3a414a"/><path d="M843.33 366.44a6 6 0 0 1 6-6h177.54a6 6 0 0 1 6 6v88a6 6 0 0 1-6 6H849.33a6 6 0 0 1-6-6z" stroke="#3a414a" fill="#fff"/><use xlink:href="#n" transform="matrix(1,0,0,1,848.3313069240128,365.4427322016992) translate(23.765432098765444 48.71527777777778)"/><use xlink:href="#o" transform="matrix(1,0,0,1,848.3313069240128,365.4427322016992) translate(120.4320987654321 48.71527777777778)"/><path d="M1033.8 387.1h153.82a6 6 0 0 1 6 6v270.03" stroke="#3a414a" fill="none"/><path d="M1033.82 387.6h-.5v-1h.5z" stroke="#3a414a" stroke-width=".05" fill="#3a414a"/><path d="M1193.62 677.9l-4.64-14.27h9.27z" stroke="#3a414a" fill="#3a414a"/><path d="M1220 600a6 6 0 0 1 6-6h108a6 6 0 0 1 6 6v48a6 6 0 0 1-6 6h-108a6 6 0 0 1-6-6z" stroke="#000" stroke-opacity="0" fill="#fff" fill-opacity="0"/><use xlink:href="#p" transform="matrix(1,0,0,1,1225,599) translate(0 29.416142222222227)"/><use xlink:href="#q" transform="matrix(1,0,0,1,1225,599) translate(39.50617283950617 29.416142222222227)"/><use xlink:href="#r" transform="matrix(1,0,0,1,1225,599) translate(0 50.749475555555556)"/><use xlink:href="#s" transform="matrix(1,0,0,1,1225,599) translate(23.703703703703702 50.749475555555556)"/><use xlink:href="#t" transform="matrix(1,0,0,1,1225,599) translate(53.33333333333333 50.749475555555556)"/><path d="M1116.28 679.06V441.12a6 6 0 0 0-6-6h-60.54" stroke="#3a414a" fill="none"/><path d="M1116.78 679.56h-1v-.52h1z" stroke="#3a414a" stroke-width=".05" fill="#3a414a"/><path d="M1034.97 435.12l14.27-4.64v9.27z" stroke="#3a414a" fill="#3a414a"/><path d="M980 586a6 6 0 0 1 6-6h108a6 6 0 0 1 6 6v62a6 6 0 0 1-6 6H986a6 6 0 0 1-6-6z" stroke="#000" stroke-opacity="0" fill="#fff" fill-opacity="0"/><use xlink:href="#u" transform="matrix(1,0,0,1,985,585) translate(12.222222222222229 41.30702222222222)"/><use xlink:href="#v" transform="matrix(1,0,0,1,985,585) translate(75.4320987654321 41.30702222222222)"/><use xlink:href="#w" transform="matrix(1,0,0,1,985,585) translate(19.135802469135825 62.64035555555555)"/><use xlink:href="#s" transform="matrix(1,0,0,1,985,585) translate(38.88888888888891 62.64035555555555)"/><use xlink:href="#t" transform="matrix(1,0,0,1,985,585) translate(68.51851851851853 62.64035555555555)"/><path d="M597.6 786a6 6 0 0 1 6-6h128a6 6 0 0 1 6 6v28a6 6 0 0 1-6 6h-128a6 6 0 0 1-6-6z" stroke="#000" stroke-opacity="0" fill="#fff" fill-opacity="0"/><g><use xlink:href="#x" transform="matrix(1,0,0,1,602.6121295945559,785) translate(8.753086419753089 17.97222222222222)"/><use xlink:href="#y" transform="matrix(1,0,0,1,602.6121295945559,785) translate(59.12345679012345 17.97222222222222)"/></g><path d="M858.08 779.67a6 6 0 0 1 6-6h148a6 6 0 0 1 6 6v40.66a6 6 0 0 1-6 6h-148a6 6 0 0 1-6-6z" stroke="#000" stroke-opacity="0" fill="#fff" fill-opacity="0"/><g><use xlink:href="#z" transform="matrix(1,0,0,1,863.0754708035006,778.6666666666666) translate(-0.9012345679012412 14.388888888888886)"/><use xlink:href="#A" transform="matrix(1,0,0,1,863.0754708035006,778.6666666666666) translate(31.098765432098773 35.722222222222214)"/><use xlink:href="#B" transform="matrix(1,0,0,1,863.0754708035006,778.6666666666666) translate(70.60493827160494 35.722222222222214)"/></g><path d="M520 607.33a6 6 0 0 1 6-6h128a6 6 0 0 1 6 6V648a6 6 0 0 1-6 6H526a6 6 0 0 1-6-6z" stroke="#000" stroke-opacity="0" fill="#fff" fill-opacity="0"/><g><use xlink:href="#C" transform="matrix(1,0,0,1,525,606.3333333333334) translate(3.679012345679027 20.840782222222224)"/><use xlink:href="#v" transform="matrix(1,0,0,1,525,606.3333333333334) translate(95.4320987654321 20.840782222222224)"/><use xlink:href="#D" transform="matrix(1,0,0,1,525,606.3333333333334) translate(43.08641975308643 42.17411555555555)"/><use xlink:href="#E" transform="matrix(1,0,0,1,525,606.3333333333334) translate(77.65432098765433 42.17411555555555)"/></g><path d="M758.57 380.22h67.9" stroke="#3a414a" fill="none"/><path d="M758.6 380.72h-.52v-1h.5z" stroke="#3a414a" stroke-width=".05" fill="#3a414a"/><path d="M841.22 380.22l-14.26 4.64v-9.27z" stroke="#3a414a" fill="#3a414a"/><path d="M774.5 440h67.9" stroke="#3a414a" fill="none"/><path d="M759.74 440l14.27-4.64v9.28z" stroke="#3a414a" fill="#3a414a"/><path d="M842.9 440.5h-.52v-1h.5z" stroke="#3a414a" stroke-width=".05" fill="#3a414a"/><defs><path fill="#3a414a" d="M85-194c31 0 48 13 60 33l-1-100h32l1 261h-30c-2-10 0-23-3-31C134-8 116 4 85 4 32 4 16-35 15-94c0-66 23-100 70-100zm9 24c-40 0-46 34-46 75 0 40 6 74 45 74 42 0 51-32 51-76 0-42-9-74-50-73" id="F"/><path fill="#3a414a" d="M205 0l-28-72H64L36 0H1l101-248h38L239 0h-34zm-38-99l-47-123c-12 45-31 82-46 123h93" id="G"/><path fill="#3a414a" d="M115-194c55 1 70 41 70 98S169 2 115 4C84 4 66-9 55-30l1 105H24l-1-265h31l2 30c10-21 28-34 59-34zm-8 174c40 0 45-34 45-75s-6-73-45-74c-42 0-51 32-51 76 0 43 10 73 51 73" id="H"/><g id="a"><use transform="matrix(0.06172839506172839,0,0,0.06172839506172839,0,0)" xlink:href="#F"/><use transform="matrix(0.06172839506172839,0,0,0.06172839506172839,12.345679012345679,0)" xlink:href="#G"/><use transform="matrix(0.06172839506172839,0,0,0.06172839506172839,27.160493827160494,0)" xlink:href="#H"/><use transform="matrix(0.06172839506172839,0,0,0.06172839506172839,39.50617283950617,0)" xlink:href="#H"/></g><path fill="#3a414a" d="M135-143c-3-34-86-38-87 0 15 53 115 12 119 90S17 21 10-45l28-5c4 36 97 45 98 0-10-56-113-15-118-90-4-57 82-63 122-42 12 7 21 19 24 35" id="I"/><path fill="#3a414a" d="M210-169c-67 3-38 105-44 169h-31v-121c0-29-5-50-35-48C34-165 62-65 56 0H25l-1-190h30c1 10-1 24 2 32 10-44 99-50 107 0 11-21 27-35 58-36 85-2 47 119 55 194h-31v-121c0-29-5-49-35-48" id="J"/><path fill="#3a414a" d="M141-36C126-15 110 5 73 4 37 3 15-17 15-53c-1-64 63-63 125-63 3-35-9-54-41-54-24 1-41 7-42 31l-33-3c5-37 33-52 76-52 45 0 72 20 72 64v82c-1 20 7 32 28 27v20c-31 9-61-2-59-35zM48-53c0 20 12 33 32 33 41-3 63-29 60-74-43 2-92-5-92 41" id="K"/><path fill="#3a414a" d="M114-163C36-179 61-72 57 0H25l-1-190h30c1 12-1 29 2 39 6-27 23-49 58-41v29" id="L"/><path fill="#3a414a" d="M59-47c-2 24 18 29 38 22v24C64 9 27 4 27-40v-127H5v-23h24l9-43h21v43h35v23H59v120" id="M"/><g id="b"><use transform="matrix(0.06172839506172839,0,0,0.06172839506172839,0,0)" xlink:href="#I"/><use transform="matrix(0.06172839506172839,0,0,0.06172839506172839,11.11111111111111,0)" xlink:href="#J"/><use transform="matrix(0.06172839506172839,0,0,0.06172839506172839,29.5679012345679,0)" xlink:href="#K"/><use transform="matrix(0.06172839506172839,0,0,0.06172839506172839,41.913580246913575,0)" xlink:href="#L"/><use transform="matrix(0.06172839506172839,0,0,0.06172839506172839,49.25925925925925,0)" xlink:href="#M"/></g><path fill="#3a414a" d="M96-169c-40 0-48 33-48 73s9 75 48 75c24 0 41-14 43-38l32 2c-6 37-31 61-74 61-59 0-76-41-82-99-10-93 101-131 147-64 4 7 5 14 7 22l-32 3c-4-21-16-35-41-35" id="N"/><path fill="#3a414a" d="M100-194c62-1 85 37 85 99 1 63-27 99-86 99S16-35 15-95c0-66 28-99 85-99zM99-20c44 1 53-31 53-75 0-43-8-75-51-75s-53 32-53 75 10 74 51 75" id="O"/><path fill="#3a414a" d="M117-194c89-4 53 116 60 194h-32v-121c0-31-8-49-39-48C34-167 62-67 57 0H25l-1-190h30c1 10-1 24 2 32 11-22 29-35 61-36" id="P"/><g id="c"><use transform="matrix(0.06172839506172839,0,0,0.06172839506172839,0,0)" xlink:href="#N"/><use transform="matrix(0.06172839506172839,0,0,0.06172839506172839,11.11111111111111,0)" xlink:href="#O"/><use transform="matrix(0.06172839506172839,0,0,0.06172839506172839,23.45679012345679,0)" xlink:href="#P"/><use transform="matrix(0.06172839506172839,0,0,0.06172839506172839,35.80246913580247,0)" xlink:href="#M"/><use transform="matrix(0.06172839506172839,0,0,0.06172839506172839,41.97530864197531,0)" xlink:href="#L"/><use transform="matrix(0.06172839506172839,0,0,0.06172839506172839,49.32098765432099,0)" xlink:href="#K"/><use transform="matrix(0.06172839506172839,0,0,0.06172839506172839,61.666666666666664,0)" xlink:href="#N"/><use transform="matrix(0.06172839506172839,0,0,0.06172839506172839,72.77777777777777,0)" xlink:href="#M"/></g><path fill="#3a414a" d="M30 0v-248h33v221h125V0H30" id="Q"/><path fill="#3a414a" d="M100-194c63 0 86 42 84 106H49c0 40 14 67 53 68 26 1 43-12 49-29l28 8c-11 28-37 45-77 45C44 4 14-33 15-96c1-61 26-98 85-98zm52 81c6-60-76-77-97-28-3 7-6 17-6 28h103" id="R"/><path fill="#3a414a" d="M177-190C167-65 218 103 67 71c-23-6-38-20-44-43l32-5c15 47 100 32 89-28v-30C133-14 115 1 83 1 29 1 15-40 15-95c0-56 16-97 71-98 29-1 48 16 59 35 1-10 0-23 2-32h30zM94-22c36 0 50-32 50-73 0-42-14-75-50-75-39 0-46 34-46 75s6 73 46 73" id="S"/><g id="d"><use transform="matrix(0.06172839506172839,0,0,0.06172839506172839,0,0)" xlink:href="#Q"/><use transform="matrix(0.06172839506172839,0,0,0.06172839506172839,12.345679012345679,0)" xlink:href="#R"/><use transform="matrix(0.06172839506172839,0,0,0.06172839506172839,24.691358024691358,0)" xlink:href="#F"/><use transform="matrix(0.06172839506172839,0,0,0.06172839506172839,37.03703703703704,0)" xlink:href="#S"/><use transform="matrix(0.06172839506172839,0,0,0.06172839506172839,49.382716049382715,0)" xlink:href="#R"/><use transform="matrix(0.06172839506172839,0,0,0.06172839506172839,61.72839506172839,0)" xlink:href="#L"/></g><path fill="#3a414a" d="M115-194c53 0 69 39 70 98 0 66-23 100-70 100C84 3 66-7 56-30L54 0H23l1-261h32v101c10-23 28-34 59-34zm-8 174c40 0 45-34 45-75 0-40-5-75-45-74-42 0-51 32-51 76 0 43 10 73 51 73" id="T"/><g id="e"><use transform="matrix(0.06172839506172839,0,0,0.06172839506172839,0,0)" xlink:href="#F"/><use transform="matrix(0.06172839506172839,0,0,0.06172839506172839,12.345679012345679,0)" xlink:href="#K"/><use transform="matrix(0.06172839506172839,0,0,0.06172839506172839,24.691358024691358,0)" xlink:href="#M"/><use transform="matrix(0.06172839506172839,0,0,0.06172839506172839,30.864197530864196,0)" xlink:href="#K"/><use transform="matrix(0.06172839506172839,0,0,0.06172839506172839,43.20987654320987,0)" xlink:href="#T"/><use transform="matrix(0.06172839506172839,0,0,0.06172839506172839,55.55555555555555,0)" xlink:href="#K"/><use transform="matrix(0.06172839506172839,0,0,0.06172839506172839,67.90123456790123,0)" xlink:href="#I"/><use transform="matrix(0.06172839506172839,0,0,0.06172839506172839,79.01234567901234,0)" xlink:href="#R"/></g><path fill="#3a414a" d="M87 75C49 33 22-17 22-94c0-76 28-126 65-167h31c-38 41-64 92-64 168S80 34 118 75H87" id="U"/><path fill="#3a414a" d="M206 0h-36l-40-164L89 0H53L-1-190h32L70-26l43-164h34l41 164 42-164h31" id="V"/><g id="f"><use transform="matrix(0.06172839506172839,0,0,0.06172839506172839,0,0)" xlink:href="#U"/><use transform="matrix(0.06172839506172839,0,0,0.06172839506172839,7.345679012345679,0)" xlink:href="#L"/><use transform="matrix(0.06172839506172839,0,0,0.06172839506172839,14.691358024691358,0)" xlink:href="#K"/><use transform="matrix(0.06172839506172839,0,0,0.06172839506172839,27.037037037037038,0)" xlink:href="#V"/></g><path fill="#3a414a" d="M24 0v-261h32V0H24" id="W"/><path fill="#3a414a" d="M143 0L79-87 56-68V0H24v-261h32v163l83-92h37l-77 82L181 0h-38" id="X"/><path fill="#3a414a" d="M106-169C34-169 62-67 57 0H25v-261h32l-1 103c12-21 28-36 61-36 89 0 53 116 60 194h-32v-121c2-32-8-49-39-48" id="Y"/><path fill="#3a414a" d="M24-231v-30h32v30H24zM24 0v-190h32V0H24" id="Z"/><g id="g"><use transform="matrix(0.06172839506172839,0,0,0.06172839506172839,0,0)" xlink:href="#T"/><use transform="matrix(0.06172839506172839,0,0,0.06172839506172839,12.345679012345679,0)" xlink:href="#W"/><use transform="matrix(0.06172839506172839,0,0,0.06172839506172839,17.22222222222222,0)" xlink:href="#O"/><use transform="matrix(0.06172839506172839,0,0,0.06172839506172839,29.5679012345679,0)" xlink:href="#N"/><use transform="matrix(0.06172839506172839,0,0,0.06172839506172839,40.67901234567901,0)" xlink:href="#X"/><use transform="matrix(0.06172839506172839,0,0,0.06172839506172839,51.79012345679013,0)" xlink:href="#N"/><use transform="matrix(0.06172839506172839,0,0,0.06172839506172839,62.90123456790124,0)" xlink:href="#Y"/><use transform="matrix(0.06172839506172839,0,0,0.06172839506172839,75.24691358024693,0)" xlink:href="#K"/><use transform="matrix(0.06172839506172839,0,0,0.06172839506172839,87.59259259259261,0)" xlink:href="#Z"/><use transform="matrix(0.06172839506172839,0,0,0.06172839506172839,92.46913580246915,0)" xlink:href="#P"/></g><path fill="#3a414a" d="M33-261c38 41 65 92 65 168S71 34 33 75H2C39 34 66-17 66-93S39-220 2-261h31" id="aa"/><g id="h"><use transform="matrix(0.06172839506172839,0,0,0.06172839506172839,0,0)" xlink:href="#F"/><use transform="matrix(0.06172839506172839,0,0,0.06172839506172839,12.345679012345679,0)" xlink:href="#K"/><use transform="matrix(0.06172839506172839,0,0,0.06172839506172839,24.691358024691358,0)" xlink:href="#M"/><use transform="matrix(0.06172839506172839,0,0,0.06172839506172839,30.864197530864196,0)" xlink:href="#K"/><use transform="matrix(0.06172839506172839,0,0,0.06172839506172839,43.20987654320987,0)" xlink:href="#aa"/></g><path fill="#3a414a" d="M160-131c35 5 61 23 61 61C221 17 115-2 30 0v-248c76 3 177-17 177 60 0 33-19 50-47 57zm-97-11c50-1 110 9 110-42 0-47-63-36-110-37v79zm0 115c55-2 124 14 124-45 0-56-70-42-124-44v89" id="ab"/><path fill="#3a414a" d="M84 4C-5 8 30-112 23-190h32v120c0 31 7 50 39 49 72-2 45-101 50-169h31l1 190h-30c-1-10 1-25-2-33-11 22-28 36-60 37" id="ac"/><g id="i"><use transform="matrix(0.06172839506172839,0,0,0.06172839506172839,0,0)" xlink:href="#ab"/><use transform="matrix(0.06172839506172839,0,0,0.06172839506172839,14.814814814814813,0)" xlink:href="#ac"/><use transform="matrix(0.06172839506172839,0,0,0.06172839506172839,27.160493827160494,0)" xlink:href="#I"/><use transform="matrix(0.06172839506172839,0,0,0.06172839506172839,38.27160493827161,0)" xlink:href="#Z"/><use transform="matrix(0.06172839506172839,0,0,0.06172839506172839,43.14814814814815,0)" xlink:href="#P"/><use transform="matrix(0.06172839506172839,0,0,0.06172839506172839,55.49382716049383,0)" xlink:href="#R"/><use transform="matrix(0.06172839506172839,0,0,0.06172839506172839,67.8395061728395,0)" xlink:href="#I"/><use transform="matrix(0.06172839506172839,0,0,0.06172839506172839,78.95061728395062,0)" xlink:href="#I"/></g><g id="j"><use transform="matrix(0.06172839506172839,0,0,0.06172839506172839,0,0)" xlink:href="#W"/><use transform="matrix(0.06172839506172839,0,0,0.06172839506172839,4.876543209876543,0)" xlink:href="#O"/><use transform="matrix(0.06172839506172839,0,0,0.06172839506172839,17.22222222222222,0)" xlink:href="#S"/><use transform="matrix(0.06172839506172839,0,0,0.06172839506172839,29.5679012345679,0)" xlink:href="#Z"/><use transform="matrix(0.06172839506172839,0,0,0.06172839506172839,34.44444444444444,0)" xlink:href="#N"/></g><path fill="#3a414a" d="M33 0v-248h34V0H33" id="ad"/><path fill="#3a414a" d="M141 0L90-78 38 0H4l68-98-65-92h35l48 74 47-74h35l-64 92 68 98h-35" id="ae"/><g id="k"><use transform="matrix(0.06172839506172839,0,0,0.06172839506172839,0,0)" xlink:href="#ad"/><use transform="matrix(0.06172839506172839,0,0,0.06172839506172839,6.172839506172839,0)" xlink:href="#P"/><use transform="matrix(0.06172839506172839,0,0,0.06172839506172839,18.51851851851852,0)" xlink:href="#F"/><use transform="matrix(0.06172839506172839,0,0,0.06172839506172839,30.864197530864196,0)" xlink:href="#R"/><use transform="matrix(0.06172839506172839,0,0,0.06172839506172839,43.20987654320987,0)" xlink:href="#ae"/><use transform="matrix(0.06172839506172839,0,0,0.06172839506172839,54.32098765432099,0)" xlink:href="#R"/><use transform="matrix(0.06172839506172839,0,0,0.06172839506172839,66.66666666666667,0)" xlink:href="#F"/></g><g id="l"><use transform="matrix(0.06172839506172839,0,0,0.06172839506172839,0,0)" xlink:href="#F"/><use transform="matrix(0.06172839506172839,0,0,0.06172839506172839,12.345679012345679,0)" xlink:href="#K"/><use transform="matrix(0.06172839506172839,0,0,0.06172839506172839,24.691358024691358,0)" xlink:href="#M"/><use transform="matrix(0.06172839506172839,0,0,0.06172839506172839,30.864197530864196,0)" xlink:href="#K"/><use transform="matrix(0.06172839506172839,0,0,0.06172839506172839,43.20987654320987,0)" xlink:href="#T"/><use transform="matrix(0.06172839506172839,0,0,0.06172839506172839,55.55555555555555,0)" xlink:href="#K"/><use transform="matrix(0.06172839506172839,0,0,0.06172839506172839,67.90123456790123,0)" xlink:href="#I"/><use transform="matrix(0.06172839506172839,0,0,0.06172839506172839,79.01234567901234,0)" xlink:href="#R"/></g><path fill="#3a414a" d="M232-93c-1 65-40 97-104 97C67 4 28-28 28-90v-158h33c8 89-33 224 67 224 102 0 64-133 71-224h33v155" id="af"/><g id="m"><use transform="matrix(0.06172839506172839,0,0,0.06172839506172839,0,0)" xlink:href="#af"/><use transform="matrix(0.06172839506172839,0,0,0.06172839506172839,15.987654320987653,0)" xlink:href="#I"/><use transform="matrix(0.06172839506172839,0,0,0.06172839506172839,27.098765432098766,0)" xlink:href="#R"/><use transform="matrix(0.06172839506172839,0,0,0.06172839506172839,39.44444444444444,0)" xlink:href="#L"/></g><path fill="#3a414a" d="M143 4C61 4 22-44 18-125c-5-107 100-154 193-111 17 8 29 25 37 43l-32 9c-13-25-37-40-76-40-61 0-88 39-88 99 0 61 29 100 91 101 35 0 62-11 79-27v-45h-74v-28h105v86C228-13 192 4 143 4" id="ag"/><path fill="#3a414a" d="M140-251c81 0 123 46 123 126C263-53 228-8 163 1c7 30 30 48 69 40v23c-55 16-95-15-103-61C56-3 17-48 17-125c0-80 42-126 123-126zm0 227c63 0 89-41 89-101s-29-99-89-99c-61 0-89 39-89 99S79-25 140-24" id="ah"/><g id="n"><use transform="matrix(0.06172839506172839,0,0,0.06172839506172839,0,0)" xlink:href="#ag"/><use transform="matrix(0.06172839506172839,0,0,0.06172839506172839,17.28395061728395,0)" xlink:href="#L"/><use transform="matrix(0.06172839506172839,0,0,0.06172839506172839,24.629629629629626,0)" xlink:href="#K"/><use transform="matrix(0.06172839506172839,0,0,0.06172839506172839,36.9753086419753,0)" xlink:href="#H"/><use transform="matrix(0.06172839506172839,0,0,0.06172839506172839,49.32098765432098,0)" xlink:href="#Y"/><use transform="matrix(0.06172839506172839,0,0,0.06172839506172839,61.66666666666666,0)" xlink:href="#ah"/><use transform="matrix(0.06172839506172839,0,0,0.06172839506172839,78.9506172839506,0)" xlink:href="#Q"/></g><path fill="#3a414a" d="M30-248c87 1 191-15 191 75 0 78-77 80-158 76V0H30v-248zm33 125c57 0 124 11 124-50 0-59-68-47-124-48v98" id="ai"/><g id="o"><use transform="matrix(0.06172839506172839,0,0,0.06172839506172839,0,0)" xlink:href="#G"/><use transform="matrix(0.06172839506172839,0,0,0.06172839506172839,14.814814814814813,0)" xlink:href="#ai"/><use transform="matrix(0.06172839506172839,0,0,0.06172839506172839,29.629629629629626,0)" xlink:href="#ad"/></g><path fill="#3a414a" d="M133-28C103 26-5 8 13-77c13-62 24-115 90-117 29-1 46 15 56 35l19-102h32L160 0h-30zM45-64c-2 27 10 43 35 43 54-1 69-50 69-103 0-29-15-46-42-46-53-1-58 58-62 106" id="aj"/><path fill="#3a414a" d="M165-48c-4 18 1 34 23 27l-3 20c-29 8-62 0-52-35h-2C116-14 99 4 63 4 30 4 8-16 8-49c0-68 71-67 138-67 10-26 0-56-31-54-26 1-42 9-47 31l-32-5c8-67 160-71 144 15-5 28-9 54-15 81zM42-50c3 52 80 24 89-6 7-12 7-24 11-38-47 1-103-4-100 44" id="ak"/><path fill="#3a414a" d="M51-54c-9 22 5 41 31 30L79-1C43 14 10-4 19-52l22-115H19l5-23h22l19-43h21l-9 43h35l-4 23H73" id="al"/><g id="p"><use transform="matrix(0.049382716049382706,0,0,0.049382716049382706,0,0)" xlink:href="#aj"/><use transform="matrix(0.049382716049382706,0,0,0.049382716049382706,9.87654320987654,0)" xlink:href="#ak"/><use transform="matrix(0.049382716049382706,0,0,0.049382716049382706,19.75308641975308,0)" xlink:href="#al"/><use transform="matrix(0.049382716049382706,0,0,0.049382716049382706,24.691358024691354,0)" xlink:href="#ak"/></g><path fill="#3a414a" d="M133-28C103 26-5 8 13-77c13-62 24-115 90-117 29-1 46 15 56 35 2-12 6-24 8-34h31L144 75h-31zM45-64c-2 27 10 43 35 43 54-1 69-50 69-103 0-29-15-46-42-46-53-1-58 58-62 106" id="am"/><path fill="#3a414a" d="M67 3c-93-2-31-127-26-193h32L48-50c-3 39 53 32 70 12 30-34 30-101 43-152h32L157 0h-30c1-10 6-24 4-33-14 20-29 37-64 36" id="an"/><path fill="#3a414a" d="M111-194c62-3 86 47 72 106H45c-7 38 6 69 45 68 27-1 43-14 53-32l24 11C152-15 129 4 87 4 38 3 12-23 12-71c0-70 32-119 99-123zm44 81c14-66-71-72-95-28-4 8-8 17-11 28h106" id="ao"/><path fill="#3a414a" d="M66-151c12-25 30-51 66-40l-6 26C45-176 58-65 38 0H6l36-190h30" id="ap"/><path fill="#3a414a" d="M50-231l6-30h32l-6 30H50zM6 0l37-190h31L37 0H6" id="aq"/><path fill="#3a414a" d="M55-144c13 50 104 24 104 88C159 21 15 23 1-39l26-10c6 40 102 42 102-4-13-50-104-23-104-87 0-71 143-71 148-8l-29 4c-5-35-85-37-89 0" id="ar"/><g id="q"><use transform="matrix(0.049382716049382706,0,0,0.049382716049382706,0,0)" xlink:href="#am"/><use transform="matrix(0.049382716049382706,0,0,0.049382716049382706,9.87654320987654,0)" xlink:href="#an"/><use transform="matrix(0.049382716049382706,0,0,0.049382716049382706,19.75308641975308,0)" xlink:href="#ao"/><use transform="matrix(0.049382716049382706,0,0,0.049382716049382706,29.629629629629623,0)" xlink:href="#ap"/><use transform="matrix(0.049382716049382706,0,0,0.049382716049382706,35.50617283950616,0)" xlink:href="#aq"/><use transform="matrix(0.049382716049382706,0,0,0.049382716049382706,39.4074074074074,0)" xlink:href="#ao"/><use transform="matrix(0.049382716049382706,0,0,0.049382716049382706,49.283950617283935,0)" xlink:href="#ar"/></g><path fill="#3a414a" d="M68-162c25-46 127-43 121 31C183-60 169 1 98 4 69 5 53-11 43-31L36 0H5l52-261h31zm88 36c2-27-9-43-34-43-55 0-70 51-70 103 0 29 15 45 43 46 52 0 58-58 61-106" id="as"/><path fill="#3a414a" d="M198-190L69 30C53 58 25 83-20 72c4-11-1-27 19-22 33-1 43-29 59-52L20-190h32L79-34l84-156h35" id="at"/><g id="r"><use transform="matrix(0.049382716049382706,0,0,0.049382716049382706,0,0)" xlink:href="#as"/><use transform="matrix(0.049382716049382706,0,0,0.049382716049382706,9.87654320987654,0)" xlink:href="#at"/></g><path fill="#3a414a" d="M67-158c15-20 31-36 64-36 94 0 33 127 27 194h-32l25-140c3-38-53-32-70-12C52-117 51-51 37 0H6l51-261h31" id="au"/><g id="s"><use transform="matrix(0.049382716049382706,0,0,0.049382716049382706,0,0)" xlink:href="#al"/><use transform="matrix(0.049382716049382706,0,0,0.049382716049382706,4.93827160493827,0)" xlink:href="#au"/><use transform="matrix(0.049382716049382706,0,0,0.049382716049382706,14.814814814814811,0)" xlink:href="#ao"/></g><path fill="#3a414a" d="M187 0l-14-72H61L19 0h-37l149-248h38L221 0h-34zm-19-99l-22-123L76-99h92" id="av"/><path fill="#3a414a" d="M67-162c32-53 139-36 121 50C175-51 163 2 97 4 68 4 52-11 42-31 38 6 28 39 22 75H-9l50-265h29c-1 10 0 20-3 28zm89 36c0-26-10-43-35-43-54 0-67 50-69 103-1 29 14 45 42 46 53 0 62-58 62-106" id="aw"/><g id="t"><use transform="matrix(0.049382716049382706,0,0,0.049382716049382706,0,0)" xlink:href="#aj"/><use transform="matrix(0.049382716049382706,0,0,0.049382716049382706,9.87654320987654,0)" xlink:href="#av"/><use transform="matrix(0.049382716049382706,0,0,0.049382716049382706,21.728395061728392,0)" xlink:href="#aw"/><use transform="matrix(0.049382716049382706,0,0,0.049382716049382706,31.604938271604933,0)" xlink:href="#aw"/></g><g id="u"><use transform="matrix(0.049382716049382706,0,0,0.049382716049382706,0,0)" xlink:href="#ar"/><use transform="matrix(0.049382716049382706,0,0,0.049382716049382706,8.888888888888888,0)" xlink:href="#au"/><use transform="matrix(0.049382716049382706,0,0,0.049382716049382706,18.76543209876543,0)" xlink:href="#ak"/><use transform="matrix(0.049382716049382706,0,0,0.049382716049382706,28.64197530864197,0)" xlink:href="#aw"/><use transform="matrix(0.049382716049382706,0,0,0.049382716049382706,38.51851851851851,0)" xlink:href="#ao"/><use transform="matrix(0.049382716049382706,0,0,0.049382716049382706,48.39506172839505,0)" xlink:href="#aj"/></g><g id="v"><use transform="matrix(0.049382716049382706,0,0,0.049382716049382706,0,0)" xlink:href="#aj"/><use transform="matrix(0.049382716049382706,0,0,0.049382716049382706,9.87654320987654,0)" xlink:href="#ak"/><use transform="matrix(0.049382716049382706,0,0,0.049382716049382706,19.75308641975308,0)" xlink:href="#al"/><use transform="matrix(0.049382716049382706,0,0,0.049382716049382706,24.691358024691354,0)" xlink:href="#ak"/></g><path fill="#3a414a" d="M30-147c31-64 166-65 159 27C183-49 158 1 86 4 9 8 1-88 30-147zM88-20c53 0 68-48 68-100 0-31-11-51-44-50-52 1-68 46-68 97 0 32 13 53 44 53" id="ax"/><g id="w"><use transform="matrix(0.049382716049382706,0,0,0.049382716049382706,0,0)" xlink:href="#al"/><use transform="matrix(0.049382716049382706,0,0,0.049382716049382706,4.93827160493827,0)" xlink:href="#ax"/></g><g id="x"><use transform="matrix(0.049382716049382706,0,0,0.049382716049382706,0,0)" xlink:href="#av"/><use transform="matrix(0.049382716049382706,0,0,0.049382716049382706,11.85185185185185,0)" xlink:href="#aw"/><use transform="matrix(0.049382716049382706,0,0,0.049382716049382706,21.728395061728392,0)" xlink:href="#al"/><use transform="matrix(0.049382716049382706,0,0,0.049382716049382706,26.666666666666668,0)" xlink:href="#ax"/><use transform="matrix(0.049382716049382706,0,0,0.049382716049382706,36.5432098765432,0)" xlink:href="#ar"/></g><path fill="#3a414a" d="M76-167L44 0H12l33-167H18l4-23h27c3-47 25-81 82-69l-4 24c-35-8-44 15-46 45h37l-5 23H76" id="ay"/><path fill="#3a414a" d="M6 0l50-261h32L37 0H6" id="az"/><path fill="#3a414a" d="M67-158c22-48 132-52 116 29L158 0h-32l25-140c3-38-53-32-70-12C52-117 51-52 38 0H6l36-190h30" id="aA"/><g id="y"><use transform="matrix(0.049382716049382706,0,0,0.049382716049382706,0,0)" xlink:href="#ay"/><use transform="matrix(0.049382716049382706,0,0,0.049382716049382706,4.93827160493827,0)" xlink:href="#an"/><use transform="matrix(0.049382716049382706,0,0,0.049382716049382706,14.814814814814811,0)" xlink:href="#az"/><use transform="matrix(0.049382716049382706,0,0,0.049382716049382706,18.716049382716044,0)" xlink:href="#az"/><use transform="matrix(0.049382716049382706,0,0,0.049382716049382706,22.617283950617278,0)" xlink:href="#aA"/><use transform="matrix(0.049382716049382706,0,0,0.049382716049382706,32.49382716049382,0)" xlink:href="#ax"/><use transform="matrix(0.049382716049382706,0,0,0.049382716049382706,42.37037037037037,0)" xlink:href="#aj"/><use transform="matrix(0.049382716049382706,0,0,0.049382716049382706,52.24691358024691,0)" xlink:href="#ao"/></g><path fill="#3a414a" d="M44-68c0 29 11 47 38 47 30 0 42-19 51-41l28 9C148-21 126 4 82 4 31 4 10-29 12-85c3-77 74-140 146-93 12 8 15 23 18 40l-31 5c-1-22-13-36-36-36-52 0-65 49-65 101" id="aB"/><path fill="#3a414a" d="M18-82l6-28h88l-6 28H18" id="aC"/><g id="z"><use transform="matrix(0.049382716049382706,0,0,0.049382716049382706,0,0)" xlink:href="#av"/><use transform="matrix(0.049382716049382706,0,0,0.049382716049382706,11.85185185185185,0)" xlink:href="#aw"/><use transform="matrix(0.049382716049382706,0,0,0.049382716049382706,21.728395061728392,0)" xlink:href="#aw"/><use transform="matrix(0.049382716049382706,0,0,0.049382716049382706,31.604938271604933,0)" xlink:href="#az"/><use transform="matrix(0.049382716049382706,0,0,0.049382716049382706,35.50617283950616,0)" xlink:href="#aq"/><use transform="matrix(0.049382716049382706,0,0,0.049382716049382706,39.4074074074074,0)" xlink:href="#aB"/><use transform="matrix(0.049382716049382706,0,0,0.049382716049382706,48.29629629629628,0)" xlink:href="#ak"/><use transform="matrix(0.049382716049382706,0,0,0.049382716049382706,58.172839506172814,0)" xlink:href="#al"/><use transform="matrix(0.049382716049382706,0,0,0.049382716049382706,63.111111111111086,0)" xlink:href="#aq"/><use transform="matrix(0.049382716049382706,0,0,0.049382716049382706,67.01234567901233,0)" xlink:href="#ax"/><use transform="matrix(0.049382716049382706,0,0,0.049382716049382706,76.88888888888887,0)" xlink:href="#aA"/><use transform="matrix(0.049382716049382706,0,0,0.049382716049382706,86.76543209876542,0)" xlink:href="#aC"/><use transform="matrix(0.049382716049382706,0,0,0.049382716049382706,92.64197530864196,0)" xlink:href="#ar"/><use transform="matrix(0.049382716049382706,0,0,0.049382716049382706,101.53086419753085,0)" xlink:href="#aw"/><use transform="matrix(0.049382716049382706,0,0,0.049382716049382706,111.40740740740739,0)" xlink:href="#ao"/><use transform="matrix(0.049382716049382706,0,0,0.049382716049382706,121.28395061728392,0)" xlink:href="#aB"/><use transform="matrix(0.049382716049382706,0,0,0.049382716049382706,130.17283950617283,0)" xlink:href="#aq"/><use transform="matrix(0.049382716049382706,0,0,0.049382716049382706,134.07407407407408,0)" xlink:href="#ay"/><use transform="matrix(0.049382716049382706,0,0,0.049382716049382706,139.01234567901236,0)" xlink:href="#aq"/><use transform="matrix(0.049382716049382706,0,0,0.049382716049382706,142.9135802469136,0)" xlink:href="#aB"/></g><g id="A"><use transform="matrix(0.049382716049382706,0,0,0.049382716049382706,0,0)" xlink:href="#aj"/><use transform="matrix(0.049382716049382706,0,0,0.049382716049382706,9.87654320987654,0)" xlink:href="#ak"/><use transform="matrix(0.049382716049382706,0,0,0.049382716049382706,19.75308641975308,0)" xlink:href="#al"/><use transform="matrix(0.049382716049382706,0,0,0.049382716049382706,24.691358024691354,0)" xlink:href="#ak"/></g><path fill="#3a414a" d="M248-111c6-24 9-61-24-58-72 9-57 108-77 169h-31l26-142c3-37-50-30-64-10C52-115 50-51 37 0H6l36-190h30c-1 10-6 24-4 32 13-43 101-52 105 5 13-22 29-41 61-41 90 0 28 129 23 194h-31" id="aD"/><g id="B"><use transform="matrix(0.049382716049382706,0,0,0.049382716049382706,0,0)" xlink:href="#aD"/><use transform="matrix(0.049382716049382706,0,0,0.049382716049382706,14.765432098765428,0)" xlink:href="#ax"/><use transform="matrix(0.049382716049382706,0,0,0.049382716049382706,24.641975308641968,0)" xlink:href="#aj"/><use transform="matrix(0.049382716049382706,0,0,0.049382716049382706,34.518518518518505,0)" xlink:href="#ao"/><use transform="matrix(0.049382716049382706,0,0,0.049382716049382706,44.39506172839505,0)" xlink:href="#az"/></g><g id="C"><use transform="matrix(0.049382716049382706,0,0,0.049382716049382706,0,0)" xlink:href="#al"/><use transform="matrix(0.049382716049382706,0,0,0.049382716049382706,4.93827160493827,0)" xlink:href="#ap"/><use transform="matrix(0.049382716049382706,0,0,0.049382716049382706,10.814814814814813,0)" xlink:href="#ak"/><use transform="matrix(0.049382716049382706,0,0,0.049382716049382706,20.691358024691354,0)" xlink:href="#aA"/><use transform="matrix(0.049382716049382706,0,0,0.049382716049382706,30.567901234567895,0)" xlink:href="#ar"/><use transform="matrix(0.049382716049382706,0,0,0.049382716049382706,39.456790123456784,0)" xlink:href="#ak"/><use transform="matrix(0.049382716049382706,0,0,0.049382716049382706,49.33333333333333,0)" xlink:href="#aB"/><use transform="matrix(0.049382716049382706,0,0,0.049382716049382706,58.222222222222214,0)" xlink:href="#al"/><use transform="matrix(0.049382716049382706,0,0,0.049382716049382706,63.16049382716048,0)" xlink:href="#aq"/><use transform="matrix(0.049382716049382706,0,0,0.049382716049382706,67.06172839506172,0)" xlink:href="#ax"/><use transform="matrix(0.049382716049382706,0,0,0.049382716049382706,76.93827160493827,0)" xlink:href="#aA"/></g><g id="D"><use transform="matrix(0.049382716049382706,0,0,0.049382716049382706,0,0)" xlink:href="#ak"/><use transform="matrix(0.049382716049382706,0,0,0.049382716049382706,9.87654320987654,0)" xlink:href="#aA"/><use transform="matrix(0.049382716049382706,0,0,0.049382716049382706,19.75308641975308,0)" xlink:href="#aj"/></g><path fill="#3a414a" d="M89 0H52L20-190h33L74-25l89-165h34" id="aE"/><g id="E"><use transform="matrix(0.049382716049382706,0,0,0.049382716049382706,0,0)" xlink:href="#ao"/><use transform="matrix(0.049382716049382706,0,0,0.049382716049382706,9.87654320987654,0)" xlink:href="#aE"/><use transform="matrix(0.049382716049382706,0,0,0.049382716049382706,18.76543209876543,0)" xlink:href="#ao"/><use transform="matrix(0.049382716049382706,0,0,0.049382716049382706,28.64197530864197,0)" xlink:href="#aA"/><use transform="matrix(0.049382716049382706,0,0,0.049382716049382706,38.51851851851851,0)" xlink:href="#al"/><use transform="matrix(0.049382716049382706,0,0,0.049382716049382706,43.456790123456784,0)" xlink:href="#ar"/></g></defs></g></svg>