<?xml version="1.0" encoding="utf-8"?>
<!-- Generator: Adobe Illustrator 26.0.3, SVG Export Plug-In . SVG Version: 6.00 Build 0)  -->
<svg version="1.1" id="Layer_1" xmlns="http://www.w3.org/2000/svg" xmlns:xlink="http://www.w3.org/1999/xlink" x="0px" y="0px"
	 width="960px" height="540px" viewBox="0 0 960 540" style="enable-background:new 0 0 960 540;" xml:space="preserve">
<style type="text/css">
	.st0{clip-path:url(#SVGID_00000072963379858439140630000005652759871410957976_);}
	.st1{fill-rule:evenodd;clip-rule:evenodd;fill:#FFFFFF;}
	.st2{fill-rule:evenodd;clip-rule:evenodd;fill-opacity:0;}
	.st3{fill-rule:evenodd;clip-rule:evenodd;fill:#92B4D8;}
	.st4{fill:none;stroke:#4A729C;stroke-linejoin:round;stroke-miterlimit:10;stroke-dasharray:1,3;}
	.st5{fill-rule:evenodd;clip-rule:evenodd;fill:#D2C8FF;}
	.st6{fill:none;stroke:#595959;stroke-linejoin:round;stroke-miterlimit:10;}
	.st7{fill:none;stroke:#666666;stroke-linejoin:round;stroke-miterlimit:10;}
	.st8{fill:none;stroke:#666666;stroke-width:2;stroke-linejoin:round;stroke-miterlimit:10;}
	.st9{fill-rule:evenodd;clip-rule:evenodd;fill:#BCEEFF;}
	.st10{fill-rule:evenodd;clip-rule:evenodd;fill:#D6F4FF;}
	.st11{fill:#4A729C;}
	.st12{fill-rule:evenodd;clip-rule:evenodd;fill:#39298C;fill-opacity:0.7709;}
	.st13{fill:#FFFFFF;}
	.st14{fill:none;stroke:#999999;stroke-linejoin:round;stroke-miterlimit:10;stroke-dasharray:1,3;}
	.st15{fill:#42318C;}
	.st16{fill-rule:evenodd;clip-rule:evenodd;fill:#666666;stroke:#666666;stroke-miterlimit:10;}
	.st17{fill-rule:evenodd;clip-rule:evenodd;fill:#666666;}
	.st18{fill-rule:evenodd;clip-rule:evenodd;fill:#24466A;}
</style>
<g>
	<defs>
		<rect id="SVGID_1_" width="960" height="540"/>
	</defs>
	<clipPath id="SVGID_00000114787570396811173660000006161779050569424540_">
		<use xlink:href="#SVGID_1_"  style="overflow:visible;"/>
	</clipPath>
	<g style="clip-path:url(#SVGID_00000114787570396811173660000006161779050569424540_);">
		<path class="st1" d="M0,0h960v540H0V0z"/>
		<path class="st2" d="M42.2,496.6h77.2v20.2H42.2L42.2,496.6z"/>
		<g transform="matrix(0.0711588329275762 0.0 0.0 0.07115828068175029 6.157295983149815 431.3746918714628)">
			<g>
				<defs>
					<rect id="SVGID_00000070108903137902769660000012915007723313715596_" x="1010" y="1048.4" width="77.2" height="20.2"/>
				</defs>
				<clipPath id="SVGID_00000152226407146026408760000008192694659564438203_">
					<use xlink:href="#SVGID_00000070108903137902769660000012915007723313715596_"  style="overflow:visible;"/>
				</clipPath>
			</g>
		</g>
		<path class="st3" d="M365.6,325.7L365.6,325.7c0-5.3,4.3-9.5,9.5-9.5h278.5c2.5,0,4.9,1,6.7,2.8c1.8,1.8,2.8,4.2,2.8,6.7v159.8
			c0,5.3-4.3,9.5-9.5,9.5H375.1l0,0c-5.3,0-9.5-4.3-9.5-9.5V325.7z"/>
		<path class="st2" d="M412.6,362.4L412.6,362.4c0-5.3,4.3-9.5,9.5-9.5h184.5c2.5,0,4.9,1,6.7,2.8c1.8,1.8,2.8,4.2,2.8,6.7v108
			c0,5.3-4.3,9.5-9.5,9.5H422.1c-5.3,0-9.5-4.3-9.5-9.5V362.4z"/>
		<path class="st4" d="M412.6,362.4L412.6,362.4c0-5.3,4.3-9.5,9.5-9.5h184.5c2.5,0,4.9,1,6.7,2.8c1.8,1.8,2.8,4.2,2.8,6.7v108
			c0,5.3-4.3,9.5-9.5,9.5H422.1c-5.3,0-9.5-4.3-9.5-9.5V362.4z"/>
		<path class="st3" d="M455.3,208.7L455.3,208.7c0-1.4,1.2-2.6,2.6-2.6h410.8c0.7,0,1.3,0.3,1.8,0.8c0.5,0.5,0.8,1.1,0.8,1.8V252
			c0,1.4-1.2,2.6-2.6,2.6H457.8c-1.4,0-2.6-1.2-2.6-2.6V208.7z"/>
		<path class="st5" d="M204.1,129.2L204.1,129.2c0-4.9,4-8.9,8.9-8.9h101.2c2.4,0,4.6,0.9,6.3,2.6c1.7,1.7,2.6,3.9,2.6,6.3v212.5
			c0,4.9-4,8.9-8.9,8.9H213c-4.9,0-8.9-4-8.9-8.9V129.2z"/>
		<path class="st2" d="M169.2,81.9L169.2,81.9"/>
		<path class="st6" d="M169.2,81.9L169.2,81.9"/>
		<path class="st2" d="M168.8,82.9v162.6h35.7v0.2"/>
		<path class="st7" d="M168.8,82.9v162.6h35.7v0.2"/>
		<path class="st2" d="M573.8,206.4V253"/>
		<path class="st8" d="M573.8,206.4V253"/>
		<path class="st2" d="M654.4,207v46.6"/>
		<path class="st8" d="M654.4,207v46.6"/>
		<path class="st2" d="M810.1,207v46.6"/>
		<path class="st8" d="M810.1,207v46.6"/>
		<path class="st2" d="M427.8,82.9v147.4h27.4"/>
		<path class="st7" d="M427.8,82.9v147.4h27.4"/>
		<path class="st2" d="M514.3,317v-62.4"/>
		<path class="st7" d="M514.3,317v-62.4"/>
		<path class="st9" d="M344.4,47L344.4,47c0,2.8,37.4,5.1,83.5,5.1s83.5-2.3,83.5-5.1v30.8c0,2.8-37.4,5.1-83.5,5.1
			s-83.5-2.3-83.5-5.1V47z"/>
		<path class="st10" d="M344.4,47L344.4,47c0-2.8,37.4-5.1,83.5-5.1s83.5,2.3,83.5,5.1l0,0c0,2.8-37.4,5.1-83.5,5.1
			S344.4,49.8,344.4,47z"/>
		<path class="st2" d="M511.3,47L511.3,47c0,2.8-37.4,5.1-83.5,5.1s-83.5-2.3-83.5-5.1l0,0c0-2.8,37.4-5.1,83.5-5.1
			S511.3,44.2,511.3,47v30.8c0,2.8-37.4,5.1-83.5,5.1s-83.5-2.3-83.5-5.1V47"/>
		<path class="st11" d="M404.2,67.5v1.2h-5.6v-7.5h5.5v1.2H400v1.9h3.6v1.1H400v2.1H404.2z M410.9,63l-2.4,5.7h-1.4l-2.4-5.7h1.4
			l1.8,4.2l1.8-4.2H410.9z M416.9,65.9c0,0.1,0,0.2,0,0.4h-4.5c0.1,0.4,0.3,0.8,0.6,1c0.3,0.2,0.7,0.4,1.2,0.4
			c0.6,0,1.1-0.2,1.5-0.6l0.7,0.8c-0.3,0.3-0.6,0.5-1,0.7c-0.4,0.2-0.8,0.2-1.3,0.2c-0.6,0-1.2-0.1-1.7-0.4c-0.5-0.2-0.8-0.6-1.1-1
			c-0.3-0.4-0.4-1-0.4-1.5c0-0.6,0.1-1.1,0.4-1.5c0.3-0.4,0.6-0.8,1-1c0.4-0.2,1-0.4,1.5-0.4c0.6,0,1,0.1,1.5,0.4
			c0.4,0.2,0.8,0.6,1,1C416.8,64.8,416.9,65.3,416.9,65.9z M414,64c-0.4,0-0.8,0.1-1.1,0.4c-0.3,0.2-0.5,0.6-0.5,1h3.2
			c-0.1-0.4-0.2-0.8-0.5-1C414.8,64.1,414.5,64,414,64z M421.4,62.9c0.7,0,1.3,0.2,1.7,0.6s0.7,1,0.7,1.9v3.3h-1.3v-3.1
			c0-0.5-0.1-0.9-0.4-1.1c-0.2-0.2-0.6-0.4-1-0.4c-0.5,0-0.9,0.2-1.2,0.5c-0.3,0.3-0.4,0.7-0.4,1.3v2.9h-1.3V63h1.3v0.7
			c0.2-0.3,0.5-0.5,0.8-0.6C420.6,63,421,62.9,421.4,62.9z M428.9,68.4c-0.2,0.1-0.3,0.2-0.6,0.3c-0.2,0.1-0.5,0.1-0.7,0.1
			c-0.6,0-1.1-0.2-1.5-0.5c-0.3-0.3-0.5-0.8-0.5-1.4v-2.7h-0.9v-1.1h0.9v-1.3h1.3v1.3h1.5v1.1H427v2.7c0,0.3,0.1,0.5,0.2,0.6
			c0.1,0.1,0.3,0.2,0.6,0.2c0.3,0,0.6-0.1,0.8-0.2L428.9,68.4z M432.4,68.8c-0.6,0-1.1-0.1-1.7-0.2c-0.5-0.2-1-0.4-1.3-0.6l0.5-1.1
			c0.3,0.2,0.7,0.4,1.1,0.6c0.4,0.1,0.9,0.2,1.3,0.2c0.6,0,1-0.1,1.2-0.3c0.3-0.2,0.4-0.4,0.4-0.7c0-0.2-0.1-0.4-0.2-0.5
			c-0.2-0.1-0.4-0.3-0.6-0.3c-0.2-0.1-0.5-0.2-0.9-0.3c-0.6-0.1-1-0.3-1.4-0.4c-0.3-0.1-0.6-0.3-0.9-0.6c-0.3-0.3-0.4-0.7-0.4-1.2
			c0-0.4,0.1-0.8,0.3-1.1c0.2-0.3,0.6-0.6,1-0.8c0.5-0.2,1-0.3,1.7-0.3c0.5,0,0.9,0.1,1.3,0.2c0.4,0.1,0.8,0.3,1.1,0.5l-0.4,1.1
			c-0.3-0.2-0.7-0.3-1-0.4c-0.4-0.1-0.7-0.2-1-0.2c-0.6,0-1,0.1-1.2,0.3c-0.3,0.2-0.4,0.4-0.4,0.7c0,0.2,0.1,0.4,0.2,0.5
			c0.2,0.1,0.3,0.2,0.6,0.3c0.2,0.1,0.6,0.2,1,0.2c0.6,0.1,1,0.3,1.4,0.4c0.4,0.1,0.7,0.3,0.9,0.6c0.2,0.3,0.4,0.7,0.4,1.1
			c0,0.4-0.1,0.8-0.3,1.1c-0.2,0.3-0.6,0.6-1,0.8C433.7,68.7,433.1,68.8,432.4,68.8z M440.1,68.4c-0.2,0.1-0.3,0.2-0.6,0.3
			c-0.2,0.1-0.5,0.1-0.7,0.1c-0.6,0-1.1-0.2-1.5-0.5c-0.3-0.3-0.5-0.8-0.5-1.4v-2.7H436v-1.1h0.9v-1.3h1.3v1.3h1.5v1.1h-1.5v2.7
			c0,0.3,0.1,0.5,0.2,0.6c0.1,0.1,0.3,0.2,0.6,0.2c0.3,0,0.6-0.1,0.8-0.2L440.1,68.4z M443.6,68.8c-0.6,0-1.1-0.1-1.6-0.4
			c-0.5-0.2-0.8-0.6-1.1-1c-0.3-0.4-0.4-1-0.4-1.5s0.1-1.1,0.4-1.5c0.3-0.4,0.6-0.8,1.1-1c0.5-0.2,1-0.4,1.6-0.4
			c0.6,0,1.1,0.1,1.6,0.4c0.5,0.2,0.8,0.6,1.1,1c0.3,0.4,0.4,0.9,0.4,1.5s-0.1,1.1-0.4,1.5c-0.3,0.4-0.6,0.8-1.1,1
			C444.7,68.7,444.2,68.8,443.6,68.8z M443.6,67.6c0.5,0,0.9-0.2,1.2-0.5c0.3-0.3,0.5-0.8,0.5-1.3s-0.2-1-0.5-1.3
			c-0.3-0.3-0.7-0.5-1.2-0.5c-0.5,0-0.9,0.2-1.2,0.5c-0.3,0.3-0.5,0.8-0.5,1.3s0.2,1,0.5,1.3C442.7,67.5,443.1,67.6,443.6,67.6z
			 M449.2,63.8c0.4-0.6,1.1-0.9,2-0.9v1.3c-0.1,0-0.2,0-0.3,0c-0.5,0-0.9,0.2-1.2,0.5c-0.3,0.3-0.4,0.7-0.4,1.3v2.8h-1.3V63h1.3
			V63.8z M457.6,65.9c0,0.1,0,0.2,0,0.4h-4.5c0.1,0.4,0.3,0.8,0.6,1c0.3,0.2,0.7,0.4,1.2,0.4c0.6,0,1.1-0.2,1.5-0.6l0.7,0.8
			c-0.3,0.3-0.6,0.5-1,0.7c-0.4,0.2-0.8,0.2-1.3,0.2c-0.6,0-1.2-0.1-1.7-0.4c-0.5-0.2-0.8-0.6-1.1-1c-0.3-0.4-0.4-1-0.4-1.5
			c0-0.6,0.1-1.1,0.4-1.5c0.2-0.4,0.6-0.8,1-1c0.4-0.2,1-0.4,1.5-0.4c0.6,0,1,0.1,1.5,0.4c0.4,0.2,0.8,0.6,1,1
			C457.5,64.8,457.6,65.3,457.6,65.9z M454.8,64c-0.4,0-0.8,0.1-1.1,0.4c-0.3,0.2-0.5,0.6-0.5,1h3.2c-0.1-0.4-0.2-0.8-0.5-1
			C455.6,64.1,455.2,64,454.8,64z"/>
		<path class="st12" d="M226.5,214.3L226.5,214.3c0-3,2.4-5.4,5.4-5.4h62.2c1.4,0,2.8,0.6,3.8,1.6c1,1,1.6,2.4,1.6,3.8V275
			c0,3-2.4,5.4-5.4,5.4h-62.2c-3,0-5.4-2.4-5.4-5.4V214.3z"/>
		<path class="st2" d="M226.5,235.5h72.9v18.5h-72.9V235.5z"/>
		<path class="st13" d="M244,240.2c0,0.1,0,0.2,0,0.3H240c0.1,0.4,0.2,0.7,0.5,0.9c0.3,0.2,0.7,0.3,1.1,0.3c0.5,0,1-0.2,1.3-0.5
			l0.6,0.7c-0.2,0.3-0.5,0.5-0.8,0.6c-0.3,0.1-0.7,0.2-1.2,0.2c-0.6,0-1-0.1-1.5-0.3c-0.4-0.2-0.7-0.5-1-0.9
			c-0.2-0.4-0.3-0.8-0.3-1.3c0-0.5,0.1-0.9,0.3-1.3c0.2-0.4,0.5-0.7,0.9-0.9c0.4-0.2,0.8-0.3,1.3-0.3c0.5,0,0.9,0.1,1.3,0.3
			c0.4,0.2,0.7,0.5,0.9,0.9C243.9,239.2,244,239.7,244,240.2z M241.4,238.5c-0.4,0-0.7,0.1-0.9,0.3c-0.3,0.2-0.4,0.5-0.5,0.9h2.8
			c-0.1-0.4-0.2-0.7-0.5-0.9C242.1,238.7,241.8,238.5,241.4,238.5z M249.7,237.7l-2.1,5h-1.2l-2.1-5h1.2l1.5,3.7l1.6-3.7H249.7z
			 M254.9,240.2c0,0.1,0,0.2,0,0.3H251c0.1,0.4,0.2,0.7,0.5,0.9c0.3,0.2,0.7,0.3,1.1,0.3c0.5,0,1-0.2,1.3-0.5l0.6,0.7
			c-0.2,0.3-0.5,0.5-0.8,0.6c-0.3,0.1-0.7,0.2-1.2,0.2c-0.6,0-1-0.1-1.5-0.3s-0.7-0.5-1-0.9c-0.2-0.4-0.3-0.8-0.3-1.3
			c0-0.5,0.1-0.9,0.3-1.3c0.2-0.4,0.5-0.7,0.9-0.9c0.4-0.2,0.8-0.3,1.3-0.3s0.9,0.1,1.3,0.3c0.4,0.2,0.7,0.5,0.9,0.9
			C254.8,239.2,254.9,239.7,254.9,240.2z M252.4,238.5c-0.4,0-0.7,0.1-0.9,0.3c-0.3,0.2-0.4,0.5-0.5,0.9h2.8
			c-0.1-0.4-0.2-0.7-0.5-0.9C253.1,238.7,252.8,238.5,252.4,238.5z M258.9,237.6c0.6,0,1.1,0.2,1.5,0.5c0.4,0.4,0.6,0.9,0.6,1.6v2.9
			h-1.2v-2.7c0-0.4-0.1-0.8-0.3-1c-0.2-0.2-0.5-0.3-0.9-0.3c-0.4,0-0.8,0.1-1,0.4c-0.2,0.2-0.4,0.6-0.4,1.1v2.5h-1.2v-5h1.1v0.6
			c0.2-0.2,0.4-0.4,0.7-0.5C258.2,237.7,258.5,237.6,258.9,237.6z M265.4,242.4c-0.1,0.1-0.3,0.2-0.5,0.2c-0.2,0.1-0.4,0.1-0.6,0.1
			c-0.6,0-1-0.1-1.3-0.4c-0.3-0.3-0.4-0.7-0.4-1.2v-2.4h-0.8v-0.9h0.8v-1.1h1.2v1.1h1.3v0.9h-1.3v2.4c0,0.2,0.1,0.4,0.2,0.6
			c0.1,0.1,0.3,0.2,0.5,0.2c0.3,0,0.5-0.1,0.7-0.2L265.4,242.4z M265.9,242.7h4.7v0.7h-4.7V242.7z M273.4,240.5l-0.9,0.8v1.3h-1.2
			v-6.9h1.2v4.2l2.4-2.2h1.4l-2.1,2.1l2.3,2.9h-1.4L273.4,240.5z M281.8,240.2c0,0.1,0,0.2,0,0.3h-3.9c0.1,0.4,0.2,0.7,0.5,0.9
			c0.3,0.2,0.7,0.3,1.1,0.3c0.5,0,1-0.2,1.3-0.5l0.6,0.7c-0.2,0.3-0.5,0.5-0.8,0.6c-0.3,0.1-0.7,0.2-1.2,0.2c-0.6,0-1-0.1-1.5-0.3
			c-0.4-0.2-0.7-0.5-1-0.9c-0.2-0.4-0.3-0.8-0.3-1.3c0-0.5,0.1-0.9,0.3-1.3c0.2-0.4,0.5-0.7,0.9-0.9c0.4-0.2,0.8-0.3,1.3-0.3
			c0.5,0,0.9,0.1,1.3,0.3c0.4,0.2,0.7,0.5,0.9,0.9C281.6,239.2,281.8,239.7,281.8,240.2z M279.2,238.5c-0.4,0-0.7,0.1-0.9,0.3
			c-0.3,0.2-0.4,0.5-0.5,0.9h2.8c-0.1-0.4-0.2-0.7-0.5-0.9C279.9,238.7,279.6,238.5,279.2,238.5z M287.4,237.7l-2.3,5.4
			c-0.2,0.5-0.5,0.9-0.8,1.1c-0.3,0.2-0.7,0.3-1.1,0.3c-0.2,0-0.5,0-0.7-0.1c-0.2-0.1-0.4-0.2-0.6-0.3l0.5-0.9
			c0.1,0.1,0.2,0.2,0.4,0.2s0.3,0.1,0.5,0.1c0.2,0,0.4-0.1,0.5-0.2c0.1-0.1,0.3-0.3,0.4-0.5l0.1-0.2l-2.2-5h1.2l1.6,3.7l1.6-3.7
			H287.4z"/>
		<path class="st13" d="M252,253.7c-0.5,0-1-0.1-1.4-0.3c-0.4-0.2-0.7-0.5-1-0.9c-0.2-0.4-0.3-0.8-0.3-1.3c0-0.5,0.1-0.9,0.3-1.3
			c0.2-0.4,0.5-0.7,1-0.9c0.4-0.2,0.9-0.3,1.4-0.3c0.5,0,0.9,0.1,1.3,0.3c0.4,0.2,0.7,0.5,0.8,0.9l-0.9,0.5
			c-0.1-0.2-0.3-0.4-0.5-0.5c-0.2-0.1-0.4-0.2-0.7-0.2c-0.4,0-0.8,0.1-1.1,0.4c-0.3,0.3-0.4,0.7-0.4,1.1c0,0.5,0.1,0.8,0.4,1.1
			s0.6,0.4,1.1,0.4c0.2,0,0.5-0.1,0.7-0.2c0.2-0.1,0.4-0.3,0.5-0.5l0.9,0.5c-0.2,0.4-0.5,0.7-0.8,0.9
			C252.9,253.6,252.5,253.7,252,253.7z M257.3,253.7c-0.5,0-1-0.1-1.4-0.3c-0.4-0.2-0.7-0.5-1-0.9c-0.2-0.4-0.3-0.8-0.3-1.3
			c0-0.5,0.1-0.9,0.3-1.3c0.2-0.4,0.5-0.7,1-0.9c0.4-0.2,0.9-0.3,1.4-0.3c0.5,0,1,0.1,1.4,0.3c0.4,0.2,0.7,0.5,0.9,0.9
			c0.2,0.4,0.3,0.8,0.3,1.3c0,0.5-0.1,0.9-0.3,1.3c-0.2,0.4-0.5,0.7-0.9,0.9S257.8,253.7,257.3,253.7z M257.3,252.7
			c0.4,0,0.8-0.1,1.1-0.4c0.3-0.3,0.4-0.7,0.4-1.1c0-0.5-0.1-0.8-0.4-1.1c-0.3-0.3-0.6-0.4-1.1-0.4c-0.4,0-0.8,0.1-1.1,0.4
			c-0.3,0.3-0.4,0.7-0.4,1.1c0,0.5,0.1,0.8,0.4,1.1C256.5,252.6,256.9,252.7,257.3,252.7z M265.9,248.7v5h-1.1V253
			c-0.2,0.2-0.4,0.4-0.7,0.5c-0.3,0.1-0.6,0.2-0.9,0.2c-0.7,0-1.2-0.2-1.6-0.5c-0.4-0.4-0.6-0.9-0.6-1.7v-2.8h1.2v2.7
			c0,0.4,0.1,0.8,0.3,1c0.2,0.2,0.5,0.3,0.9,0.3c0.4,0,0.7-0.1,1-0.4c0.2-0.3,0.4-0.6,0.4-1.1v-2.5H265.9z M270.2,248.6
			c0.6,0,1.1,0.2,1.5,0.5c0.4,0.4,0.6,0.9,0.6,1.6v2.9h-1.2v-2.7c0-0.4-0.1-0.8-0.3-1c-0.2-0.2-0.5-0.3-0.9-0.3
			c-0.4,0-0.8,0.1-1,0.4c-0.2,0.2-0.4,0.6-0.4,1.1v2.5h-1.2v-5h1.1v0.6c0.2-0.2,0.4-0.4,0.7-0.5
			C269.5,248.7,269.9,248.6,270.2,248.6z M276.8,253.4c-0.1,0.1-0.3,0.2-0.5,0.2c-0.2,0.1-0.4,0.1-0.6,0.1c-0.6,0-1-0.1-1.3-0.4
			c-0.3-0.3-0.4-0.7-0.4-1.2v-2.4h-0.8v-0.9h0.8v-1.1h1.2v1.1h1.3v0.9h-1.3v2.4c0,0.2,0.1,0.4,0.2,0.6c0.1,0.1,0.3,0.2,0.5,0.2
			c0.3,0,0.5-0.1,0.7-0.2L276.8,253.4z"/>
		<path class="st2" d="M213.8,187.5L213.8,187.5c0-4.1,3.3-7.5,7.5-7.5h84.6c2,0,3.9,0.8,5.3,2.2s2.2,3.3,2.2,5.3v98.6
			c0,4.1-3.3,7.5-7.5,7.5h-84.6c-4.1,0-7.5-3.3-7.5-7.5V187.5z"/>
		<path class="st14" d="M213.8,187.5L213.8,187.5c0-4.1,3.3-7.5,7.5-7.5h84.6c2,0,3.9,0.8,5.3,2.2s2.2,3.3,2.2,5.3v98.6
			c0,4.1-3.3,7.5-7.5,7.5h-84.6c-4.1,0-7.5-3.3-7.5-7.5V187.5z"/>
		<path class="st2" d="M213.8,184h99.5v18.5h-99.5V184z"/>
		<path class="st13" d="M231,196.4v1.3h-6.3v-8.4h6.1v1.3h-4.6v2.2h4.1v1.3h-4.1v2.3H231z M238.5,191.3l-2.8,6.4h-1.5l-2.8-6.4h1.6
			l2,4.8l2.1-4.8H238.5z M245.3,194.6c0,0.1,0,0.3,0,0.5h-5c0.1,0.5,0.3,0.8,0.7,1.1c0.4,0.3,0.8,0.4,1.4,0.4c0.7,0,1.3-0.2,1.7-0.7
			l0.8,0.9c-0.3,0.3-0.7,0.6-1.1,0.8c-0.4,0.2-0.9,0.2-1.5,0.2c-0.7,0-1.3-0.1-1.9-0.4c-0.5-0.3-0.9-0.7-1.2-1.2s-0.4-1.1-0.4-1.7
			c0-0.6,0.1-1.2,0.4-1.7c0.3-0.5,0.7-0.9,1.2-1.2s1.1-0.4,1.7-0.4c0.6,0,1.2,0.1,1.7,0.4c0.5,0.3,0.9,0.7,1.2,1.2
			C245.2,193.3,245.3,193.9,245.3,194.6z M242.1,192.5c-0.5,0-0.9,0.1-1.2,0.4c-0.3,0.3-0.5,0.7-0.6,1.1h3.6
			c-0.1-0.5-0.3-0.8-0.6-1.1C243,192.6,242.6,192.5,242.1,192.5z M250.4,191.3c0.8,0,1.4,0.2,1.9,0.7c0.5,0.5,0.7,1.2,0.7,2.1v3.7
			h-1.5v-3.5c0-0.6-0.1-1-0.4-1.2c-0.3-0.3-0.6-0.4-1.1-0.4c-0.6,0-1,0.2-1.3,0.5c-0.3,0.3-0.5,0.8-0.5,1.4v3.2h-1.5v-6.4h1.4v0.8
			c0.2-0.3,0.6-0.5,0.9-0.7C249.5,191.3,249.9,191.3,250.4,191.3z M258.8,197.4c-0.2,0.1-0.4,0.3-0.7,0.3c-0.2,0.1-0.5,0.1-0.8,0.1
			c-0.7,0-1.2-0.2-1.6-0.5c-0.4-0.4-0.6-0.9-0.6-1.6v-3.1h-1.1v-1.2h1.1v-1.5h1.5v1.5h1.7v1.2h-1.7v3c0,0.3,0.1,0.6,0.2,0.7
			c0.2,0.2,0.4,0.2,0.7,0.2c0.3,0,0.6-0.1,0.8-0.3L258.8,197.4z M267.7,189.3v8.4h-1.6v-3.6h-4.3v3.6h-1.6v-8.4h1.6v3.5h4.3v-3.5
			H267.7z M272.3,191.3c0.9,0,1.7,0.2,2.2,0.7c0.5,0.4,0.8,1.1,0.8,2v3.8h-1.4V197c-0.2,0.3-0.5,0.5-0.8,0.6
			c-0.3,0.1-0.7,0.2-1.2,0.2c-0.5,0-0.9-0.1-1.3-0.2c-0.4-0.2-0.6-0.4-0.8-0.7c-0.2-0.3-0.3-0.6-0.3-1c0-0.6,0.2-1,0.6-1.4
			c0.4-0.4,1.1-0.5,2-0.5h1.7v-0.1c0-0.4-0.1-0.8-0.4-1c-0.3-0.2-0.7-0.4-1.2-0.4c-0.4,0-0.7,0.1-1.1,0.2c-0.3,0.1-0.6,0.3-0.9,0.5
			l-0.6-1.1c0.3-0.3,0.7-0.5,1.2-0.6C271.2,191.3,271.7,191.3,272.3,191.3z M272,196.7c0.4,0,0.7-0.1,1-0.2c0.3-0.2,0.5-0.4,0.6-0.7
			V195h-1.5c-0.9,0-1.3,0.3-1.3,0.9c0,0.3,0.1,0.5,0.3,0.6S271.7,196.7,272,196.7z M280.7,191.3c0.8,0,1.4,0.2,1.9,0.7
			c0.5,0.5,0.7,1.2,0.7,2.1v3.7h-1.5v-3.5c0-0.6-0.1-1-0.4-1.2c-0.3-0.3-0.6-0.4-1.1-0.4c-0.6,0-1,0.2-1.3,0.5
			c-0.3,0.3-0.5,0.8-0.5,1.4v3.2h-1.5v-6.4h1.4v0.8c0.2-0.3,0.6-0.5,0.9-0.7C279.8,191.3,280.2,191.3,280.7,191.3z M291.6,188.8v8.9
			h-1.5v-0.8c-0.2,0.3-0.5,0.5-0.9,0.7c-0.4,0.1-0.8,0.2-1.2,0.2c-0.6,0-1.2-0.1-1.7-0.4c-0.5-0.3-0.9-0.7-1.2-1.2s-0.4-1.1-0.4-1.7
			c0-0.6,0.1-1.2,0.4-1.7c0.3-0.5,0.7-0.9,1.2-1.2c0.5-0.3,1-0.4,1.7-0.4c0.4,0,0.8,0.1,1.2,0.2c0.4,0.1,0.7,0.4,0.9,0.7v-3.3H291.6
			z M288.3,196.6c0.4,0,0.7-0.1,1-0.2c0.3-0.2,0.5-0.4,0.7-0.7c0.2-0.3,0.2-0.7,0.2-1.1c0-0.4-0.1-0.7-0.2-1
			c-0.2-0.3-0.4-0.5-0.7-0.7c-0.3-0.2-0.6-0.2-1-0.2c-0.4,0-0.7,0.1-1,0.2c-0.3,0.2-0.5,0.4-0.7,0.7c-0.2,0.3-0.2,0.7-0.2,1
			c0,0.4,0.1,0.8,0.2,1.1c0.2,0.3,0.4,0.5,0.7,0.7C287.6,196.5,287.9,196.6,288.3,196.6z M293.6,188.8h1.5v8.9h-1.5V188.8z
			 M303.1,194.6c0,0.1,0,0.3,0,0.5h-5c0.1,0.5,0.3,0.8,0.7,1.1c0.4,0.3,0.8,0.4,1.4,0.4c0.7,0,1.3-0.2,1.7-0.7l0.8,0.9
			c-0.3,0.3-0.7,0.6-1.1,0.8c-0.4,0.2-0.9,0.2-1.5,0.2c-0.7,0-1.3-0.1-1.9-0.4c-0.5-0.3-0.9-0.7-1.2-1.2s-0.4-1.1-0.4-1.7
			c0-0.6,0.1-1.2,0.4-1.7c0.3-0.5,0.7-0.9,1.2-1.2s1.1-0.4,1.7-0.4c0.6,0,1.2,0.1,1.7,0.4c0.5,0.3,0.9,0.7,1.2,1.2
			C303,193.3,303.1,193.9,303.1,194.6z M299.9,192.5c-0.5,0-0.9,0.1-1.2,0.4c-0.3,0.3-0.5,0.7-0.6,1.1h3.6c-0.1-0.5-0.3-0.8-0.6-1.1
			C300.8,192.6,300.3,192.5,299.9,192.5z"/>
		<path class="st9" d="M85.3,47L85.3,47c0,2.8,37.4,5.1,83.5,5.1s83.5-2.3,83.5-5.1v30.8c0,2.8-37.4,5.1-83.5,5.1
			s-83.5-2.3-83.5-5.1V47z"/>
		<path class="st10" d="M85.3,47L85.3,47c0-2.8,37.4-5.1,83.5-5.1s83.5,2.3,83.5,5.1l0,0c0,2.8-37.4,5.1-83.5,5.1S85.3,49.8,85.3,47
			z"/>
		<path class="st2" d="M252.3,47L252.3,47c0,2.8-37.4,5.1-83.5,5.1S85.3,49.8,85.3,47l0,0c0-2.8,37.4-5.1,83.5-5.1
			S252.3,44.2,252.3,47v30.8c0,2.8-37.4,5.1-83.5,5.1s-83.5-2.3-83.5-5.1V47"/>
		<path class="st11" d="M143.3,68.8c-0.6,0-1.1-0.1-1.7-0.2c-0.5-0.2-1-0.4-1.3-0.6l0.5-1.1c0.3,0.2,0.7,0.4,1.1,0.6
			c0.4,0.1,0.9,0.2,1.3,0.2c0.6,0,1-0.1,1.2-0.3c0.3-0.2,0.4-0.4,0.4-0.7c0-0.2-0.1-0.4-0.2-0.5c-0.2-0.1-0.4-0.3-0.6-0.3
			c-0.2-0.1-0.5-0.2-0.9-0.3c-0.6-0.1-1-0.3-1.4-0.4c-0.3-0.1-0.6-0.3-0.9-0.6c-0.2-0.3-0.4-0.7-0.4-1.2c0-0.4,0.1-0.8,0.3-1.1
			c0.2-0.3,0.6-0.6,1-0.8c0.5-0.2,1-0.3,1.7-0.3c0.5,0,0.9,0.1,1.3,0.2c0.4,0.1,0.8,0.3,1.1,0.5l-0.4,1.1c-0.3-0.2-0.7-0.3-1-0.4
			c-0.4-0.1-0.7-0.2-1-0.2c-0.6,0-1,0.1-1.2,0.3c-0.3,0.2-0.4,0.4-0.4,0.7c0,0.2,0.1,0.4,0.2,0.5c0.2,0.1,0.3,0.2,0.6,0.3
			c0.2,0.1,0.6,0.2,1,0.2c0.6,0.1,1,0.3,1.4,0.4c0.4,0.1,0.7,0.3,0.9,0.6c0.2,0.3,0.4,0.7,0.4,1.1c0,0.4-0.1,0.8-0.3,1.1
			c-0.2,0.3-0.6,0.6-1,0.8C144.5,68.7,144,68.8,143.3,68.8z M151,68.4c-0.2,0.1-0.3,0.2-0.6,0.3c-0.2,0.1-0.5,0.1-0.7,0.1
			c-0.6,0-1.1-0.2-1.5-0.5c-0.3-0.3-0.5-0.8-0.5-1.4v-2.7h-0.9v-1.1h0.9v-1.3h1.3v1.3h1.5v1.1h-1.5v2.7c0,0.3,0.1,0.5,0.2,0.6
			c0.1,0.1,0.3,0.2,0.6,0.2c0.3,0,0.6-0.1,0.8-0.2L151,68.4z M154.3,62.9c0.8,0,1.5,0.2,1.9,0.6c0.4,0.4,0.7,1,0.7,1.8v3.3h-1.3V68
			c-0.2,0.2-0.4,0.4-0.7,0.6c-0.3,0.1-0.7,0.2-1.1,0.2s-0.8-0.1-1.1-0.2s-0.6-0.3-0.8-0.6c-0.2-0.3-0.2-0.6-0.2-0.9
			c0-0.5,0.2-0.9,0.6-1.2c0.4-0.3,1-0.5,1.8-0.5h1.5v-0.1c0-0.4-0.1-0.7-0.4-0.9c-0.2-0.2-0.6-0.3-1.1-0.3c-0.3,0-0.6,0.1-1,0.2
			c-0.3,0.1-0.6,0.2-0.8,0.4l-0.5-1c0.3-0.2,0.7-0.4,1.1-0.5C153.4,63,153.8,62.9,154.3,62.9z M154.1,67.8c0.3,0,0.6-0.1,0.9-0.2
			c0.3-0.2,0.4-0.4,0.6-0.7v-0.7h-1.4c-0.8,0-1.2,0.2-1.2,0.8c0,0.2,0.1,0.4,0.3,0.6C153.5,67.7,153.8,67.8,154.1,67.8z M162,68.4
			c-0.2,0.1-0.3,0.2-0.6,0.3c-0.2,0.1-0.5,0.1-0.7,0.1c-0.6,0-1.1-0.2-1.5-0.5c-0.3-0.3-0.5-0.8-0.5-1.4v-2.7h-0.9v-1.1h0.9v-1.3
			h1.3v1.3h1.5v1.1h-1.5v2.7c0,0.3,0.1,0.5,0.2,0.6s0.3,0.2,0.6,0.2c0.3,0,0.6-0.1,0.8-0.2L162,68.4z M168.3,65.9c0,0.1,0,0.2,0,0.4
			h-4.5c0.1,0.4,0.3,0.8,0.6,1c0.3,0.2,0.7,0.4,1.2,0.4c0.6,0,1.1-0.2,1.5-0.6l0.7,0.8c-0.3,0.3-0.6,0.5-1,0.7
			c-0.4,0.2-0.8,0.2-1.3,0.2c-0.6,0-1.2-0.1-1.7-0.4c-0.5-0.2-0.8-0.6-1.1-1c-0.3-0.4-0.4-1-0.4-1.5c0-0.6,0.1-1.1,0.4-1.5
			c0.2-0.4,0.6-0.8,1-1c0.4-0.2,1-0.4,1.5-0.4c0.6,0,1,0.1,1.5,0.4c0.4,0.2,0.8,0.6,1,1C168.1,64.8,168.3,65.3,168.3,65.9z
			 M165.4,64c-0.4,0-0.8,0.1-1.1,0.4s-0.5,0.6-0.5,1h3.2c-0.1-0.4-0.2-0.8-0.5-1C166.2,64.1,165.8,64,165.4,64z M172,68.8
			c-0.6,0-1.1-0.1-1.7-0.2c-0.5-0.2-1-0.4-1.3-0.6l0.5-1.1c0.3,0.2,0.7,0.4,1.1,0.6c0.4,0.1,0.9,0.2,1.3,0.2c0.6,0,1-0.1,1.2-0.3
			c0.3-0.2,0.4-0.4,0.4-0.7c0-0.2-0.1-0.4-0.2-0.5c-0.2-0.1-0.4-0.3-0.6-0.3c-0.2-0.1-0.5-0.2-0.9-0.3c-0.6-0.1-1-0.3-1.4-0.4
			c-0.3-0.1-0.6-0.3-0.9-0.6c-0.2-0.3-0.4-0.7-0.4-1.2c0-0.4,0.1-0.8,0.3-1.1c0.2-0.3,0.6-0.6,1-0.8c0.5-0.2,1-0.3,1.7-0.3
			c0.5,0,0.9,0.1,1.3,0.2c0.4,0.1,0.8,0.3,1.1,0.5l-0.4,1.1c-0.3-0.2-0.7-0.3-1-0.4c-0.4-0.1-0.7-0.2-1-0.2c-0.6,0-1,0.1-1.2,0.3
			c-0.3,0.2-0.4,0.4-0.4,0.7c0,0.2,0.1,0.4,0.2,0.5c0.2,0.1,0.3,0.2,0.6,0.3c0.2,0.1,0.6,0.2,1,0.2c0.6,0.1,1,0.3,1.4,0.4
			c0.4,0.1,0.7,0.3,0.9,0.6c0.2,0.3,0.4,0.7,0.4,1.1c0,0.4-0.1,0.8-0.3,1.1c-0.2,0.3-0.6,0.6-1,0.8C173.2,68.7,172.6,68.8,172,68.8z
			 M179.7,68.4c-0.2,0.1-0.3,0.2-0.6,0.3c-0.2,0.1-0.5,0.1-0.7,0.1c-0.6,0-1.1-0.2-1.5-0.5c-0.3-0.3-0.5-0.8-0.5-1.4v-2.7h-0.9v-1.1
			h0.9v-1.3h1.3v1.3h1.5v1.1h-1.5v2.7c0,0.3,0.1,0.5,0.2,0.6c0.1,0.1,0.3,0.2,0.6,0.2c0.3,0,0.6-0.1,0.8-0.2L179.7,68.4z
			 M183.1,68.8c-0.6,0-1.1-0.1-1.6-0.4c-0.5-0.2-0.8-0.6-1.1-1c-0.3-0.4-0.4-1-0.4-1.5s0.1-1.1,0.4-1.5c0.3-0.4,0.6-0.8,1.1-1
			c0.5-0.2,1-0.4,1.6-0.4c0.6,0,1.1,0.1,1.6,0.4c0.5,0.2,0.8,0.6,1.1,1c0.3,0.4,0.4,0.9,0.4,1.5s-0.1,1.1-0.4,1.5
			c-0.3,0.4-0.6,0.8-1.1,1C184.2,68.7,183.7,68.8,183.1,68.8z M183.1,67.6c0.5,0,0.9-0.2,1.2-0.5c0.3-0.3,0.5-0.8,0.5-1.3
			s-0.2-1-0.5-1.3c-0.3-0.3-0.7-0.5-1.2-0.5c-0.5,0-0.9,0.2-1.2,0.5c-0.3,0.3-0.5,0.8-0.5,1.3s0.2,1,0.5,1.3
			C182.2,67.5,182.6,67.6,183.1,67.6z M188.7,63.8c0.4-0.6,1.1-0.9,2-0.9v1.3c-0.1,0-0.2,0-0.3,0c-0.5,0-0.9,0.2-1.2,0.5
			c-0.3,0.3-0.4,0.7-0.4,1.3v2.8h-1.3V63h1.3V63.8z M197.2,65.9c0,0.1,0,0.2,0,0.4h-4.5c0.1,0.4,0.3,0.8,0.6,1
			c0.3,0.2,0.7,0.4,1.2,0.4c0.6,0,1.1-0.2,1.5-0.6l0.7,0.8c-0.3,0.3-0.6,0.5-1,0.7c-0.4,0.2-0.8,0.2-1.3,0.2c-0.6,0-1.2-0.1-1.7-0.4
			c-0.5-0.2-0.8-0.6-1.1-1c-0.3-0.4-0.4-1-0.4-1.5c0-0.6,0.1-1.1,0.4-1.5c0.3-0.4,0.6-0.8,1-1c0.4-0.2,1-0.4,1.5-0.4
			c0.6,0,1,0.1,1.5,0.4c0.4,0.2,0.8,0.6,1,1C197,64.8,197.2,65.3,197.2,65.9z M194.3,64c-0.4,0-0.8,0.1-1.1,0.4
			c-0.3,0.2-0.5,0.6-0.5,1h3.2c-0.1-0.4-0.2-0.8-0.5-1C195.1,64.1,194.7,64,194.3,64z"/>
		<path class="st2" d="M209.6,127.5h106.7V146H209.6V127.5z"/>
		<path class="st15" d="M221.4,132.9h3.7c0.9,0,1.7,0.2,2.4,0.5c0.7,0.3,1.2,0.8,1.6,1.5c0.4,0.6,0.6,1.4,0.6,2.2
			c0,0.8-0.2,1.6-0.6,2.2c-0.4,0.6-0.9,1.1-1.6,1.5c-0.7,0.3-1.5,0.5-2.4,0.5h-3.7V132.9z M225,140c0.6,0,1.2-0.1,1.6-0.4
			c0.5-0.2,0.8-0.6,1.1-1s0.4-0.9,0.4-1.5c0-0.6-0.1-1.1-0.4-1.5s-0.6-0.8-1.1-1c-0.5-0.2-1-0.4-1.6-0.4h-2v5.8H225z M231.2,134.9
			h1.5v6.4h-1.5V134.9z M231.9,133.8c-0.3,0-0.5-0.1-0.7-0.2c-0.2-0.2-0.3-0.4-0.3-0.6c0-0.3,0.1-0.5,0.3-0.6
			c0.2-0.2,0.4-0.3,0.7-0.3c0.3,0,0.5,0.1,0.7,0.2c0.2,0.2,0.3,0.4,0.3,0.6c0,0.3-0.1,0.5-0.3,0.7
			C232.4,133.7,232.2,133.8,231.9,133.8z M240.7,138.1c0,0.1,0,0.3,0,0.5h-5c0.1,0.5,0.3,0.8,0.7,1.1c0.4,0.3,0.8,0.4,1.4,0.4
			c0.7,0,1.3-0.2,1.7-0.7l0.8,0.9c-0.3,0.3-0.7,0.6-1.1,0.8c-0.4,0.2-0.9,0.2-1.5,0.2c-0.7,0-1.3-0.1-1.9-0.4
			c-0.5-0.3-0.9-0.7-1.2-1.2c-0.3-0.5-0.4-1.1-0.4-1.7c0-0.6,0.1-1.2,0.4-1.7c0.3-0.5,0.7-0.9,1.2-1.2c0.5-0.3,1.1-0.4,1.7-0.4
			c0.6,0,1.2,0.1,1.7,0.4c0.5,0.3,0.9,0.7,1.2,1.2C240.5,136.9,240.7,137.5,240.7,138.1z M237.4,136c-0.5,0-0.9,0.1-1.2,0.4
			c-0.3,0.3-0.5,0.7-0.6,1.1h3.6c-0.1-0.5-0.3-0.8-0.6-1.1C238.3,136.2,237.9,136,237.4,136z M250.2,134.8c0.8,0,1.4,0.2,1.9,0.7
			c0.5,0.5,0.7,1.2,0.7,2.1v3.7h-1.5v-3.5c0-0.6-0.1-1-0.4-1.2c-0.3-0.3-0.6-0.4-1.1-0.4c-0.5,0-0.9,0.2-1.2,0.5
			c-0.3,0.3-0.5,0.8-0.5,1.4v3.2h-1.5v-3.5c0-0.6-0.1-1-0.4-1.2c-0.3-0.3-0.6-0.4-1.1-0.4c-0.5,0-0.9,0.2-1.2,0.5
			c-0.3,0.3-0.5,0.8-0.5,1.4v3.2h-1.5v-6.4h1.4v0.8c0.2-0.3,0.5-0.5,0.9-0.7c0.4-0.2,0.8-0.2,1.2-0.2c0.5,0,0.9,0.1,1.3,0.3
			c0.4,0.2,0.7,0.4,0.9,0.8c0.3-0.3,0.6-0.6,1-0.8C249.2,134.9,249.7,134.8,250.2,134.8z M260.3,139.4h-4.2l-0.8,1.9h-1.6l3.8-8.4
			h1.5l3.8,8.4h-1.6L260.3,139.4z M259.8,138.1l-1.6-3.7l-1.6,3.7H259.8z M266.6,141.4c-0.7,0-1.3-0.1-1.8-0.4
			c-0.5-0.3-0.9-0.7-1.2-1.2c-0.3-0.5-0.4-1.1-0.4-1.7c0-0.6,0.1-1.2,0.4-1.7c0.3-0.5,0.7-0.9,1.2-1.2c0.5-0.3,1.1-0.4,1.8-0.4
			c0.6,0,1.2,0.1,1.7,0.4c0.5,0.2,0.8,0.6,1.1,1.1l-1.1,0.7c-0.2-0.3-0.4-0.5-0.7-0.7c-0.3-0.1-0.6-0.2-0.9-0.2
			c-0.6,0-1,0.2-1.4,0.5c-0.4,0.4-0.5,0.8-0.5,1.5c0,0.6,0.2,1.1,0.5,1.5c0.4,0.4,0.8,0.5,1.4,0.5c0.3,0,0.6-0.1,0.9-0.2
			c0.3-0.1,0.5-0.4,0.7-0.7l1.1,0.7c-0.2,0.5-0.6,0.8-1.1,1.1C267.8,141.2,267.2,141.4,266.6,141.4z M273.5,141.4
			c-0.7,0-1.3-0.1-1.8-0.4c-0.5-0.3-0.9-0.7-1.2-1.2c-0.3-0.5-0.4-1.1-0.4-1.7c0-0.6,0.1-1.2,0.4-1.7c0.3-0.5,0.7-0.9,1.2-1.2
			c0.5-0.3,1.1-0.4,1.8-0.4c0.6,0,1.2,0.1,1.7,0.4c0.5,0.2,0.8,0.6,1.1,1.1l-1.1,0.7c-0.2-0.3-0.4-0.5-0.7-0.7
			c-0.3-0.1-0.6-0.2-0.9-0.2c-0.6,0-1,0.2-1.4,0.5c-0.4,0.4-0.5,0.8-0.5,1.5c0,0.6,0.2,1.1,0.5,1.5c0.4,0.4,0.8,0.5,1.4,0.5
			c0.3,0,0.6-0.1,0.9-0.2c0.3-0.1,0.5-0.4,0.7-0.7l1.1,0.7c-0.2,0.5-0.6,0.8-1.1,1.1C274.7,141.2,274.1,141.4,273.5,141.4z
			 M280.3,141.4c-0.6,0-1.2-0.1-1.8-0.4c-0.5-0.3-0.9-0.7-1.2-1.2s-0.4-1.1-0.4-1.7c0-0.6,0.1-1.2,0.4-1.7c0.3-0.5,0.7-0.9,1.2-1.2
			s1.1-0.4,1.8-0.4c0.7,0,1.2,0.1,1.8,0.4s0.9,0.7,1.2,1.2c0.3,0.5,0.4,1.1,0.4,1.7c0,0.6-0.1,1.2-0.4,1.7s-0.7,0.9-1.2,1.2
			C281.5,141.2,280.9,141.4,280.3,141.4z M280.3,140.1c0.6,0,1-0.2,1.4-0.5c0.4-0.4,0.5-0.8,0.5-1.5c0-0.6-0.2-1.1-0.5-1.5
			c-0.4-0.4-0.8-0.5-1.4-0.5s-1,0.2-1.4,0.5c-0.4,0.4-0.5,0.8-0.5,1.5c0,0.6,0.2,1.1,0.5,1.5C279.3,139.9,279.7,140.1,280.3,140.1z
			 M291.4,134.9v6.4h-1.4v-0.8c-0.2,0.3-0.5,0.5-0.9,0.7s-0.8,0.2-1.2,0.2c-0.9,0-1.5-0.2-2-0.7c-0.5-0.5-0.7-1.2-0.7-2.1v-3.7h1.5
			v3.5c0,0.6,0.1,1,0.4,1.3c0.3,0.3,0.6,0.4,1.1,0.4c0.5,0,1-0.2,1.3-0.5c0.3-0.3,0.5-0.8,0.5-1.4v-3.2H291.4z M297,134.8
			c0.8,0,1.4,0.2,1.9,0.7c0.5,0.5,0.7,1.2,0.7,2.1v3.7h-1.5v-3.5c0-0.6-0.1-1-0.4-1.2c-0.3-0.3-0.6-0.4-1.1-0.4
			c-0.6,0-1,0.2-1.3,0.5c-0.3,0.3-0.5,0.8-0.5,1.4v3.2h-1.5v-6.4h1.4v0.8c0.2-0.3,0.6-0.5,0.9-0.7
			C296.1,134.9,296.5,134.8,297,134.8z M305.4,141c-0.2,0.1-0.4,0.3-0.7,0.3c-0.2,0.1-0.5,0.1-0.8,0.1c-0.7,0-1.2-0.2-1.6-0.5
			c-0.4-0.4-0.6-0.9-0.6-1.6v-3.1h-1.1v-1.2h1.1v-1.5h1.5v1.5h1.7v1.2h-1.7v3c0,0.3,0.1,0.6,0.2,0.7c0.2,0.2,0.4,0.2,0.7,0.2
			c0.3,0,0.6-0.1,0.8-0.3L305.4,141z"/>
		<path class="st2" d="M455.4,244.4H314.6"/>
		<path class="st7" d="M449.4,244.4H314.6"/>
		<path class="st16" d="M449.4,246.1l4.5-1.7l-4.5-1.7V246.1z"/>
		<path class="st2" d="M450.5,322.7h127.7v18.5H450.5V322.7z"/>
		<path class="st11" d="M474.6,336.6c-0.8,0-1.6-0.2-2.3-0.6s-1.2-0.9-1.6-1.5c-0.4-0.7-0.6-1.4-0.6-2.2c0-0.8,0.2-1.6,0.6-2.2
			c0.4-0.7,0.9-1.2,1.6-1.5c0.7-0.4,1.5-0.6,2.3-0.6c0.7,0,1.3,0.1,1.9,0.4c0.6,0.2,1.1,0.6,1.5,1l-1,0.9c-0.6-0.7-1.4-1-2.2-1
			c-0.6,0-1.1,0.1-1.5,0.4c-0.4,0.2-0.8,0.6-1.1,1c-0.3,0.4-0.4,1-0.4,1.5c0,0.6,0.1,1.1,0.4,1.5c0.3,0.4,0.6,0.8,1.1,1
			c0.5,0.2,1,0.4,1.5,0.4c0.9,0,1.6-0.3,2.2-1l1,1c-0.4,0.5-0.9,0.8-1.5,1C475.9,336.4,475.3,336.6,474.6,336.6z M482,336.5
			c-0.6,0-1.2-0.1-1.8-0.4c-0.5-0.3-0.9-0.7-1.2-1.2s-0.4-1.1-0.4-1.7c0-0.6,0.1-1.2,0.4-1.7c0.3-0.5,0.7-0.9,1.2-1.2
			s1.1-0.4,1.8-0.4c0.7,0,1.2,0.1,1.8,0.4s0.9,0.7,1.2,1.2c0.3,0.5,0.4,1.1,0.4,1.7c0,0.6-0.1,1.2-0.4,1.7s-0.7,0.9-1.2,1.2
			C483.2,336.4,482.6,336.5,482,336.5z M482,335.2c0.6,0,1-0.2,1.4-0.5c0.4-0.4,0.5-0.8,0.5-1.5c0-0.6-0.2-1.1-0.5-1.5
			c-0.4-0.4-0.8-0.5-1.4-0.5s-1,0.2-1.4,0.5c-0.4,0.4-0.5,0.8-0.5,1.5c0,0.6,0.2,1.1,0.5,1.5C481,335,481.4,335.2,482,335.2z
			 M490.5,329.9c0.8,0,1.4,0.2,1.9,0.7c0.5,0.5,0.7,1.2,0.7,2.1v3.7h-1.5v-3.5c0-0.6-0.1-1-0.4-1.2c-0.3-0.3-0.6-0.4-1.1-0.4
			c-0.6,0-1,0.2-1.3,0.5c-0.3,0.3-0.5,0.8-0.5,1.4v3.2h-1.5V330h1.4v0.8c0.2-0.3,0.6-0.5,0.9-0.7C489.6,330,490,329.9,490.5,329.9z
			 M498.9,336.1c-0.2,0.1-0.4,0.3-0.7,0.3c-0.2,0.1-0.5,0.1-0.8,0.1c-0.7,0-1.2-0.2-1.6-0.5c-0.4-0.4-0.6-0.9-0.6-1.6v-3.1h-1.1
			v-1.2h1.1v-1.5h1.5v1.5h1.7v1.2h-1.7v3c0,0.3,0.1,0.6,0.2,0.7c0.2,0.2,0.4,0.2,0.7,0.2c0.3,0,0.6-0.1,0.8-0.3L498.9,336.1z
			 M501.6,331c0.4-0.7,1.2-1,2.3-1v1.4c-0.1,0-0.2,0-0.3,0c-0.6,0-1,0.2-1.4,0.5c-0.3,0.3-0.5,0.8-0.5,1.5v3.1h-1.5V330h1.4V331z
			 M507.5,329.9c0.9,0,1.7,0.2,2.2,0.7c0.5,0.4,0.8,1.1,0.8,2v3.8H509v-0.8c-0.2,0.3-0.5,0.5-0.8,0.6c-0.3,0.1-0.7,0.2-1.2,0.2
			c-0.5,0-0.9-0.1-1.3-0.2c-0.4-0.2-0.6-0.4-0.8-0.7c-0.2-0.3-0.3-0.6-0.3-1c0-0.6,0.2-1,0.6-1.4c0.4-0.4,1.1-0.5,2-0.5h1.7v-0.1
			c0-0.4-0.1-0.8-0.4-1c-0.3-0.2-0.7-0.4-1.2-0.4c-0.4,0-0.7,0.1-1.1,0.2c-0.3,0.1-0.6,0.3-0.9,0.5l-0.6-1.1
			c0.3-0.3,0.7-0.5,1.2-0.6C506.5,330,507,329.9,507.5,329.9z M507.3,335.4c0.4,0,0.7-0.1,1-0.2c0.3-0.2,0.5-0.4,0.6-0.7v-0.8h-1.5
			c-0.9,0-1.3,0.3-1.3,0.9c0,0.3,0.1,0.5,0.3,0.6S506.9,335.4,507.3,335.4z M515.4,336.5c-0.7,0-1.3-0.1-1.8-0.4
			c-0.5-0.3-0.9-0.7-1.2-1.2c-0.3-0.5-0.4-1.1-0.4-1.7c0-0.6,0.1-1.2,0.4-1.7c0.3-0.5,0.7-0.9,1.2-1.2c0.5-0.3,1.1-0.4,1.8-0.4
			c0.6,0,1.2,0.1,1.7,0.4c0.5,0.2,0.8,0.6,1.1,1.1l-1.1,0.7c-0.2-0.3-0.4-0.5-0.7-0.7c-0.3-0.1-0.6-0.2-0.9-0.2
			c-0.6,0-1,0.2-1.4,0.5c-0.4,0.4-0.5,0.8-0.5,1.5c0,0.6,0.2,1.1,0.5,1.5c0.4,0.4,0.8,0.5,1.4,0.5c0.3,0,0.6-0.1,0.9-0.2
			c0.3-0.1,0.5-0.4,0.7-0.7l1.1,0.7c-0.2,0.5-0.6,0.8-1.1,1.1C516.5,336.4,516,336.5,515.4,336.5z M523.3,336.1
			c-0.2,0.1-0.4,0.3-0.7,0.3c-0.2,0.1-0.5,0.1-0.8,0.1c-0.7,0-1.2-0.2-1.6-0.5c-0.4-0.4-0.6-0.9-0.6-1.6v-3.1h-1.1v-1.2h1.1v-1.5
			h1.5v1.5h1.7v1.2h-1.7v3c0,0.3,0.1,0.6,0.2,0.7c0.2,0.2,0.4,0.2,0.7,0.2c0.3,0,0.6-0.1,0.8-0.3L523.3,336.1z M531,335.1v1.3h-6.3
			V328h6.1v1.3h-4.6v2.2h4.1v1.3h-4.1v2.3H531z M538.5,330l-2.8,6.4h-1.5l-2.8-6.4h1.6l2,4.8l2.1-4.8H538.5z M545.3,333.3
			c0,0.1,0,0.3,0,0.5h-5c0.1,0.5,0.3,0.8,0.7,1.1c0.4,0.3,0.8,0.4,1.4,0.4c0.7,0,1.3-0.2,1.7-0.7l0.8,0.9c-0.3,0.3-0.7,0.6-1.1,0.8
			c-0.4,0.2-0.9,0.2-1.5,0.2c-0.7,0-1.3-0.1-1.9-0.4c-0.5-0.3-0.9-0.7-1.2-1.2c-0.3-0.5-0.4-1.1-0.4-1.7c0-0.6,0.1-1.2,0.4-1.7
			c0.3-0.5,0.7-0.9,1.2-1.2s1.1-0.4,1.7-0.4c0.6,0,1.2,0.1,1.7,0.4c0.5,0.3,0.9,0.7,1.2,1.2C545.2,332,545.3,332.6,545.3,333.3z
			 M542.1,331.1c-0.5,0-0.9,0.1-1.2,0.4c-0.3,0.3-0.5,0.7-0.6,1.1h3.6c-0.1-0.5-0.3-0.8-0.6-1.1C543,331.3,542.5,331.1,542.1,331.1z
			 M550.4,329.9c0.8,0,1.4,0.2,1.9,0.7c0.5,0.5,0.7,1.2,0.7,2.1v3.7h-1.5v-3.5c0-0.6-0.1-1-0.4-1.2c-0.3-0.3-0.6-0.4-1.1-0.4
			c-0.6,0-1,0.2-1.3,0.5c-0.3,0.3-0.5,0.8-0.5,1.4v3.2h-1.5V330h1.4v0.8c0.2-0.3,0.6-0.5,0.9-0.7C549.5,330,549.9,329.9,550.4,329.9
			z M558.8,336.1c-0.2,0.1-0.4,0.3-0.7,0.3c-0.2,0.1-0.5,0.1-0.8,0.1c-0.7,0-1.2-0.2-1.6-0.5c-0.4-0.4-0.6-0.9-0.6-1.6v-3.1h-1.1
			v-1.2h1.1v-1.5h1.5v1.5h1.7v1.2h-1.7v3c0,0.3,0.1,0.6,0.2,0.7c0.2,0.2,0.4,0.2,0.7,0.2c0.3,0,0.6-0.1,0.8-0.3L558.8,336.1z"/>
		<path class="st17" d="M509.8,253.9L509.8,253.9c0-2.5,2.1-4.6,4.6-4.6l0,0c1.2,0,2.4,0.5,3.2,1.3c0.9,0.9,1.3,2,1.3,3.2l0,0
			c0,2.5-2.1,4.6-4.6,4.6l0,0C511.8,258.4,509.8,256.4,509.8,253.9z"/>
		<path class="st2" d="M433.7,353.1h161.2v51.9H433.7V353.1z"/>
		<path class="st13" d="M436.5,369.3l-0.9,0.8v1.3h-1.2v-6.9h1.2v4.2l2.4-2.2h1.4l-2.1,2.1l2.3,2.9h-1.4L436.5,369.3z M444.9,369
			c0,0.1,0,0.2,0,0.3H441c0.1,0.4,0.2,0.7,0.5,0.9c0.3,0.2,0.7,0.3,1.1,0.3c0.5,0,1-0.2,1.3-0.5l0.6,0.7c-0.2,0.3-0.5,0.5-0.8,0.6
			s-0.7,0.2-1.2,0.2c-0.6,0-1-0.1-1.5-0.3c-0.4-0.2-0.7-0.5-1-0.9c-0.2-0.4-0.3-0.8-0.3-1.3s0.1-0.9,0.3-1.3
			c0.2-0.4,0.5-0.7,0.9-0.9c0.4-0.2,0.8-0.3,1.3-0.3c0.5,0,0.9,0.1,1.3,0.3c0.4,0.2,0.7,0.5,0.9,0.9S444.9,368.5,444.9,369z
			 M442.4,367.3c-0.4,0-0.7,0.1-0.9,0.3c-0.3,0.2-0.4,0.5-0.5,0.9h2.8c-0.1-0.4-0.2-0.7-0.5-0.9
			C443.1,367.5,442.8,367.3,442.4,367.3z M450.6,366.5l-2.3,5.4c-0.2,0.5-0.5,0.9-0.8,1.1c-0.3,0.2-0.7,0.3-1.1,0.3
			c-0.2,0-0.5,0-0.7-0.1c-0.2-0.1-0.4-0.2-0.6-0.3l0.5-0.9c0.1,0.1,0.2,0.2,0.4,0.2s0.3,0.1,0.5,0.1c0.2,0,0.4-0.1,0.5-0.2
			c0.1-0.1,0.3-0.3,0.4-0.5l0.1-0.2l-2.2-5h1.2l1.6,3.7l1.6-3.7H450.6z"/>
		<path class="st13" d="M436,382.5c-0.4,0-0.8-0.1-1.2-0.2c-0.4-0.1-0.7-0.2-0.9-0.4l0.4-0.9c0.2,0.1,0.5,0.3,0.8,0.4
			c0.3,0.1,0.6,0.1,0.9,0.1c0.7,0,1-0.2,1-0.5c0-0.2-0.1-0.3-0.3-0.4c-0.2-0.1-0.5-0.1-0.9-0.2c-0.4-0.1-0.7-0.1-1-0.2
			c-0.2-0.1-0.5-0.2-0.7-0.4c-0.2-0.2-0.3-0.5-0.3-0.9c0-0.5,0.2-0.8,0.6-1.1c0.4-0.3,0.9-0.4,1.6-0.4c0.3,0,0.7,0,1,0.1
			c0.3,0.1,0.6,0.2,0.8,0.3l-0.5,0.9c-0.4-0.2-0.9-0.4-1.4-0.4c-0.3,0-0.6,0.1-0.8,0.2c-0.2,0.1-0.3,0.2-0.3,0.4
			c0,0.2,0.1,0.3,0.3,0.4c0.2,0.1,0.5,0.1,0.9,0.2c0.4,0.1,0.7,0.1,1,0.2c0.3,0.1,0.5,0.2,0.7,0.4c0.2,0.2,0.3,0.5,0.3,0.8
			c0,0.5-0.2,0.8-0.6,1.1S436.7,382.5,436,382.5z M444,380c0,0.1,0,0.2,0,0.3h-3.9c0.1,0.4,0.2,0.7,0.5,0.9c0.3,0.2,0.7,0.3,1.1,0.3
			c0.5,0,1-0.2,1.3-0.5l0.6,0.7c-0.2,0.3-0.5,0.5-0.8,0.6s-0.7,0.2-1.2,0.2c-0.6,0-1-0.1-1.5-0.3s-0.7-0.5-1-0.9
			c-0.2-0.4-0.3-0.8-0.3-1.3s0.1-0.9,0.3-1.3c0.2-0.4,0.5-0.7,0.9-0.9c0.4-0.2,0.8-0.3,1.3-0.3s0.9,0.1,1.3,0.3
			c0.4,0.2,0.7,0.5,0.9,0.9S444,379.5,444,380z M441.5,378.3c-0.4,0-0.7,0.1-0.9,0.3c-0.3,0.2-0.4,0.5-0.5,0.9h2.8
			c-0.1-0.4-0.2-0.7-0.5-0.9C442.2,378.5,441.9,378.3,441.5,378.3z M450,377.5v6.8h-1.2v-2.4c-0.4,0.4-0.9,0.7-1.6,0.7
			c-0.5,0-0.9-0.1-1.3-0.3c-0.4-0.2-0.7-0.5-0.9-0.9c-0.2-0.4-0.3-0.8-0.3-1.3s0.1-1,0.3-1.3c0.2-0.4,0.5-0.7,0.9-0.9
			c0.4-0.2,0.8-0.3,1.3-0.3c0.3,0,0.7,0.1,0.9,0.2s0.5,0.3,0.7,0.5v-0.7H450z M447.3,381.5c0.4,0,0.8-0.1,1.1-0.4
			c0.3-0.3,0.4-0.7,0.4-1.1c0-0.5-0.1-0.8-0.4-1.1c-0.3-0.3-0.6-0.4-1.1-0.4c-0.4,0-0.8,0.1-1.1,0.4c-0.3,0.3-0.4,0.7-0.4,1.1
			c0,0.5,0.1,0.8,0.4,1.1C446.6,381.4,446.9,381.5,447.3,381.5z M456.3,377.5v5h-1.1v-0.6c-0.2,0.2-0.4,0.4-0.7,0.5
			c-0.3,0.1-0.6,0.2-0.9,0.2c-0.7,0-1.2-0.2-1.6-0.5c-0.4-0.4-0.6-0.9-0.6-1.7v-2.8h1.2v2.7c0,0.4,0.1,0.8,0.3,1
			c0.2,0.2,0.5,0.3,0.9,0.3c0.4,0,0.7-0.1,1-0.4c0.2-0.3,0.4-0.6,0.4-1.1v-2.5H456.3z M462.6,380c0,0.1,0,0.2,0,0.3h-3.9
			c0.1,0.4,0.2,0.7,0.5,0.9c0.3,0.2,0.7,0.3,1.1,0.3c0.5,0,1-0.2,1.3-0.5l0.6,0.7c-0.2,0.3-0.5,0.5-0.8,0.6s-0.7,0.2-1.2,0.2
			c-0.6,0-1-0.1-1.5-0.3c-0.4-0.2-0.7-0.5-1-0.9c-0.2-0.4-0.3-0.8-0.3-1.3s0.1-0.9,0.3-1.3c0.2-0.4,0.5-0.7,0.9-0.9
			c0.4-0.2,0.8-0.3,1.3-0.3c0.5,0,0.9,0.1,1.3,0.3c0.4,0.2,0.7,0.5,0.9,0.9S462.6,379.5,462.6,380z M460,378.3
			c-0.4,0-0.7,0.1-0.9,0.3c-0.3,0.2-0.4,0.5-0.5,0.9h2.8c-0.1-0.4-0.2-0.7-0.5-0.9C460.7,378.5,460.4,378.3,460,378.3z M466.5,377.4
			c0.6,0,1.1,0.2,1.5,0.5c0.4,0.4,0.6,0.9,0.6,1.6v2.9h-1.2v-2.7c0-0.4-0.1-0.8-0.3-1c-0.2-0.2-0.5-0.3-0.9-0.3
			c-0.4,0-0.8,0.1-1,0.4c-0.2,0.2-0.4,0.6-0.4,1.1v2.5h-1.2v-5h1.1v0.6c0.2-0.2,0.4-0.4,0.7-0.5S466.1,377.4,466.5,377.4z
			 M472.4,382.5c-0.5,0-1-0.1-1.4-0.3c-0.4-0.2-0.7-0.5-1-0.9c-0.2-0.4-0.3-0.8-0.3-1.3c0-0.5,0.1-0.9,0.3-1.3
			c0.2-0.4,0.5-0.7,1-0.9c0.4-0.2,0.9-0.3,1.4-0.3c0.5,0,0.9,0.1,1.3,0.3c0.4,0.2,0.7,0.5,0.8,0.9l-0.9,0.5
			c-0.1-0.2-0.3-0.4-0.5-0.5c-0.2-0.1-0.4-0.2-0.7-0.2c-0.4,0-0.8,0.1-1.1,0.4c-0.3,0.3-0.4,0.7-0.4,1.1c0,0.5,0.1,0.8,0.4,1.1
			s0.6,0.4,1.1,0.4c0.2,0,0.5-0.1,0.7-0.2c0.2-0.1,0.4-0.3,0.5-0.5l0.9,0.5c-0.2,0.4-0.5,0.7-0.8,0.9
			C473.3,382.4,472.9,382.5,472.4,382.5z M480.1,380c0,0.1,0,0.2,0,0.3h-3.9c0.1,0.4,0.2,0.7,0.5,0.9c0.3,0.2,0.7,0.3,1.1,0.3
			c0.5,0,1-0.2,1.3-0.5l0.6,0.7c-0.2,0.3-0.5,0.5-0.8,0.6c-0.3,0.1-0.7,0.2-1.2,0.2c-0.6,0-1-0.1-1.5-0.3c-0.4-0.2-0.7-0.5-1-0.9
			c-0.2-0.4-0.3-0.8-0.3-1.3c0-0.5,0.1-0.9,0.3-1.3c0.2-0.4,0.5-0.7,0.9-0.9c0.4-0.2,0.8-0.3,1.3-0.3c0.5,0,0.9,0.1,1.3,0.3
			c0.4,0.2,0.7,0.5,0.9,0.9C480,379,480.1,379.5,480.1,380z M477.6,378.3c-0.4,0-0.7,0.1-0.9,0.3c-0.3,0.2-0.4,0.5-0.5,0.9h2.8
			c-0.1-0.4-0.2-0.7-0.5-0.9C478.3,378.5,478,378.3,477.6,378.3z M489.7,375.9v6.5h-1l-3.6-4.4v4.4h-1.2v-6.5h1l3.6,4.4v-4.4H489.7z
			 M496.2,377.5v5h-1.1v-0.6c-0.2,0.2-0.4,0.4-0.7,0.5c-0.3,0.1-0.6,0.2-0.9,0.2c-0.7,0-1.2-0.2-1.6-0.5c-0.4-0.4-0.6-0.9-0.6-1.7
			v-2.8h1.2v2.7c0,0.4,0.1,0.8,0.3,1c0.2,0.2,0.5,0.3,0.9,0.3c0.4,0,0.7-0.1,1-0.4c0.2-0.3,0.4-0.6,0.4-1.1v-2.5H496.2z M504,377.4
			c0.6,0,1.1,0.2,1.5,0.5c0.4,0.4,0.5,0.9,0.5,1.6v2.9h-1.2v-2.7c0-0.4-0.1-0.8-0.3-1c-0.2-0.2-0.5-0.3-0.8-0.3
			c-0.4,0-0.7,0.1-1,0.4c-0.2,0.2-0.3,0.6-0.3,1.1v2.5h-1.2v-2.7c0-0.4-0.1-0.8-0.3-1c-0.2-0.2-0.5-0.3-0.8-0.3
			c-0.4,0-0.7,0.1-1,0.4c-0.2,0.2-0.3,0.6-0.3,1.1v2.5h-1.2v-5h1.1v0.6c0.2-0.2,0.4-0.4,0.7-0.5s0.6-0.2,0.9-0.2
			c0.4,0,0.7,0.1,1,0.2c0.3,0.1,0.5,0.3,0.7,0.6c0.2-0.3,0.5-0.5,0.8-0.6C503.3,377.5,503.6,377.4,504,377.4z M510.3,377.4
			c0.5,0,0.9,0.1,1.3,0.3c0.4,0.2,0.7,0.5,0.9,0.9c0.2,0.4,0.3,0.8,0.3,1.3c0,0.5-0.1,0.9-0.3,1.3c-0.2,0.4-0.5,0.7-0.9,0.9
			c-0.4,0.2-0.8,0.3-1.3,0.3c-0.3,0-0.7-0.1-0.9-0.2c-0.3-0.1-0.5-0.3-0.7-0.5v0.6h-1.1v-6.9h1.2v2.5c0.2-0.2,0.4-0.4,0.7-0.5
			C509.7,377.5,510,377.4,510.3,377.4z M510.2,381.5c0.4,0,0.8-0.1,1.1-0.4c0.3-0.3,0.4-0.7,0.4-1.1c0-0.5-0.1-0.8-0.4-1.1
			c-0.3-0.3-0.6-0.4-1.1-0.4c-0.3,0-0.5,0.1-0.8,0.2c-0.2,0.1-0.4,0.3-0.5,0.5c-0.1,0.2-0.2,0.5-0.2,0.8c0,0.3,0.1,0.6,0.2,0.8
			c0.1,0.2,0.3,0.4,0.5,0.5C509.6,381.5,509.9,381.5,510.2,381.5z M518.6,380c0,0.1,0,0.2,0,0.3h-3.9c0.1,0.4,0.2,0.7,0.5,0.9
			c0.3,0.2,0.7,0.3,1.1,0.3c0.5,0,1-0.2,1.3-0.5l0.6,0.7c-0.2,0.3-0.5,0.5-0.8,0.6s-0.7,0.2-1.2,0.2c-0.6,0-1-0.1-1.5-0.3
			s-0.7-0.5-1-0.9c-0.2-0.4-0.3-0.8-0.3-1.3s0.1-0.9,0.3-1.3c0.2-0.4,0.5-0.7,0.9-0.9c0.4-0.2,0.8-0.3,1.3-0.3s0.9,0.1,1.3,0.3
			c0.4,0.2,0.7,0.5,0.9,0.9S518.6,379.5,518.6,380z M516.1,378.3c-0.4,0-0.7,0.1-0.9,0.3c-0.3,0.2-0.4,0.5-0.5,0.9h2.8
			c-0.1-0.4-0.2-0.7-0.5-0.9C516.8,378.5,516.5,378.3,516.1,378.3z M520.9,378.2c0.3-0.5,0.9-0.8,1.8-0.8v1.1c-0.1,0-0.2,0-0.3,0
			c-0.4,0-0.8,0.1-1.1,0.4c-0.2,0.3-0.4,0.6-0.4,1.1v2.4h-1.2v-5h1.1V378.2z"/>
		<path class="st13" d="M435.9,388h-2.2v-1h5.5v1h-2.2v5.5h-1.2V388z M444.5,388.5l-2.3,5.4c-0.2,0.5-0.5,0.9-0.8,1.1
			c-0.3,0.2-0.7,0.3-1.1,0.3c-0.2,0-0.5,0-0.7-0.1s-0.4-0.2-0.6-0.3l0.5-0.9c0.1,0.1,0.2,0.2,0.4,0.2s0.3,0.1,0.5,0.1
			c0.2,0,0.4-0.1,0.5-0.2s0.3-0.3,0.4-0.5l0.1-0.2l-2.2-5h1.2l1.6,3.7l1.6-3.7H444.5z M448,388.4c0.5,0,0.9,0.1,1.3,0.3
			c0.4,0.2,0.7,0.5,0.9,0.9c0.2,0.4,0.3,0.8,0.3,1.3c0,0.5-0.1,0.9-0.3,1.3c-0.2,0.4-0.5,0.7-0.9,0.9c-0.4,0.2-0.8,0.3-1.3,0.3
			c-0.7,0-1.2-0.2-1.6-0.7v2.4h-1.2v-6.8h1.1v0.7c0.2-0.2,0.4-0.4,0.7-0.5C447.3,388.5,447.6,388.4,448,388.4z M447.8,392.5
			c0.4,0,0.8-0.1,1.1-0.4c0.3-0.3,0.4-0.7,0.4-1.1c0-0.5-0.1-0.8-0.4-1.1c-0.3-0.3-0.6-0.4-1.1-0.4c-0.3,0-0.5,0.1-0.8,0.2
			c-0.2,0.1-0.4,0.3-0.5,0.5c-0.1,0.2-0.2,0.5-0.2,0.8c0,0.3,0.1,0.6,0.2,0.8c0.1,0.2,0.3,0.4,0.5,0.5
			C447.3,392.5,447.5,392.5,447.8,392.5z M456.3,391c0,0.1,0,0.2,0,0.3h-3.9c0.1,0.4,0.2,0.7,0.5,0.9c0.3,0.2,0.7,0.3,1.1,0.3
			c0.5,0,1-0.2,1.3-0.5l0.6,0.7c-0.2,0.3-0.5,0.5-0.8,0.6s-0.7,0.2-1.2,0.2c-0.6,0-1-0.1-1.5-0.3s-0.7-0.5-1-0.9
			c-0.2-0.4-0.3-0.8-0.3-1.3s0.1-0.9,0.3-1.3c0.2-0.4,0.5-0.7,0.9-0.9c0.4-0.2,0.8-0.3,1.3-0.3s0.9,0.1,1.3,0.3
			c0.4,0.2,0.7,0.5,0.9,0.9S456.3,390.5,456.3,391z M453.8,389.3c-0.4,0-0.7,0.1-0.9,0.3c-0.3,0.2-0.4,0.5-0.5,0.9h2.8
			c-0.1-0.4-0.2-0.7-0.5-0.9C454.5,389.5,454.1,389.3,453.8,389.3z M456.6,393.5h4.7v0.7h-4.7V393.5z M464.8,393.2
			c-0.1,0.1-0.3,0.2-0.5,0.2c-0.2,0.1-0.4,0.1-0.6,0.1c-0.6,0-1-0.1-1.3-0.4c-0.3-0.3-0.4-0.7-0.4-1.2v-2.4h-0.8v-0.9h0.8v-1.1h1.2
			v1.1h1.3v0.9h-1.3v2.4c0,0.2,0.1,0.4,0.2,0.6c0.1,0.1,0.3,0.2,0.5,0.2c0.3,0,0.5-0.1,0.7-0.2L464.8,393.2z M467.7,388.4
			c0.7,0,1.3,0.2,1.7,0.5c0.4,0.3,0.6,0.9,0.6,1.6v2.9h-1.1v-0.6c-0.1,0.2-0.3,0.4-0.6,0.5c-0.3,0.1-0.6,0.2-1,0.2s-0.7-0.1-1-0.2
			c-0.3-0.1-0.5-0.3-0.6-0.5s-0.2-0.5-0.2-0.8c0-0.4,0.2-0.8,0.5-1.1c0.3-0.3,0.9-0.4,1.6-0.4h1.3v-0.1c0-0.3-0.1-0.6-0.3-0.8
			c-0.2-0.2-0.5-0.3-0.9-0.3c-0.3,0-0.6,0-0.8,0.1c-0.3,0.1-0.5,0.2-0.7,0.4l-0.5-0.8c0.3-0.2,0.6-0.3,0.9-0.5
			C466.9,388.5,467.3,388.4,467.7,388.4z M467.5,392.7c0.3,0,0.5-0.1,0.8-0.2c0.2-0.1,0.4-0.3,0.5-0.6v-0.6h-1.2c-0.7,0-1,0.2-1,0.7
			c0,0.2,0.1,0.4,0.2,0.5C467,392.6,467.2,392.7,467.5,392.7z M476.4,388.5v4.2c0,1.8-0.9,2.6-2.7,2.6c-0.5,0-0.9-0.1-1.4-0.2
			c-0.4-0.1-0.8-0.3-1.1-0.5l0.5-0.9c0.2,0.2,0.5,0.3,0.8,0.4c0.3,0.1,0.7,0.2,1,0.2c0.6,0,1-0.1,1.2-0.4c0.3-0.2,0.4-0.6,0.4-1.1
			v-0.3c-0.2,0.2-0.4,0.4-0.7,0.5c-0.3,0.1-0.6,0.2-0.9,0.2c-0.5,0-0.9-0.1-1.3-0.3c-0.4-0.2-0.7-0.5-0.9-0.9
			c-0.2-0.4-0.3-0.8-0.3-1.3c0-0.5,0.1-0.9,0.3-1.2c0.2-0.4,0.5-0.6,0.9-0.8c0.4-0.2,0.8-0.3,1.3-0.3c0.4,0,0.7,0.1,1,0.2
			c0.3,0.1,0.5,0.3,0.7,0.5v-0.7H476.4z M473.8,392.2c0.4,0,0.8-0.1,1.1-0.4c0.3-0.3,0.4-0.6,0.4-1c0-0.4-0.1-0.8-0.4-1
			c-0.3-0.3-0.6-0.4-1.1-0.4c-0.4,0-0.8,0.1-1.1,0.4c-0.3,0.3-0.4,0.6-0.4,1c0,0.4,0.1,0.8,0.4,1C473,392.1,473.3,392.2,473.8,392.2
			z"/>
		<path class="st18" d="M435.4,423.1L435.4,423.1c0-0.8,0.7-1.5,1.5-1.5h138.9c0.4,0,0.8,0.2,1.1,0.4s0.4,0.7,0.4,1.1v17.2
			c0,0.8-0.7,1.5-1.5,1.5H436.9c-0.8,0-1.5-0.7-1.5-1.5V423.1z"/>
		<path class="st2" d="M446.8,418.9h119.1v25.6H446.8V418.9z"/>
		<path class="st13" d="M453.7,430.7l-3.2,1.2l3.2,1.2v1l-4.3-1.7v-1l4.3-1.7V430.7z M457.2,435.3c-0.5,0-1-0.1-1.5-0.2
			c-0.5-0.1-0.8-0.3-1.1-0.6l0.4-0.9c0.3,0.2,0.6,0.4,1,0.5c0.4,0.1,0.8,0.2,1.2,0.2c0.5,0,0.8-0.1,1.1-0.2c0.2-0.2,0.4-0.4,0.4-0.6
			c0-0.2-0.1-0.3-0.2-0.5c-0.1-0.1-0.3-0.2-0.5-0.3c-0.2-0.1-0.5-0.2-0.8-0.2c-0.5-0.1-0.9-0.2-1.2-0.3c-0.3-0.1-0.6-0.3-0.8-0.6
			c-0.2-0.2-0.3-0.6-0.3-1c0-0.4,0.1-0.7,0.3-1c0.2-0.3,0.5-0.5,0.9-0.7c0.4-0.2,0.9-0.3,1.5-0.3c0.4,0,0.8,0.1,1.2,0.2
			c0.4,0.1,0.7,0.2,1,0.4l-0.4,0.9c-0.3-0.2-0.6-0.3-0.9-0.4c-0.3-0.1-0.6-0.1-0.9-0.1c-0.5,0-0.8,0.1-1.1,0.2
			c-0.2,0.2-0.3,0.4-0.3,0.6c0,0.2,0.1,0.3,0.2,0.5c0.1,0.1,0.3,0.2,0.5,0.3c0.2,0.1,0.5,0.1,0.8,0.2c0.5,0.1,0.9,0.2,1.2,0.4
			c0.3,0.1,0.6,0.3,0.8,0.5c0.2,0.2,0.3,0.6,0.3,1c0,0.4-0.1,0.7-0.3,1c-0.2,0.3-0.5,0.5-0.9,0.7
			C458.2,435.2,457.7,435.3,457.2,435.3z M465.6,432.7c0,0.1,0,0.2,0,0.3h-3.9c0.1,0.4,0.2,0.7,0.5,0.9c0.3,0.2,0.7,0.3,1.1,0.3
			c0.5,0,1-0.2,1.3-0.5l0.6,0.7c-0.2,0.3-0.5,0.5-0.8,0.6s-0.7,0.2-1.2,0.2c-0.6,0-1-0.1-1.5-0.3s-0.7-0.5-1-0.9
			c-0.2-0.4-0.3-0.8-0.3-1.3s0.1-0.9,0.3-1.3c0.2-0.4,0.5-0.7,0.9-0.9c0.4-0.2,0.8-0.3,1.3-0.3s0.9,0.1,1.3,0.3
			c0.4,0.2,0.7,0.5,0.9,0.9S465.6,432.2,465.6,432.7z M463,431.1c-0.4,0-0.7,0.1-0.9,0.3c-0.3,0.2-0.4,0.5-0.5,0.9h2.8
			c-0.1-0.4-0.2-0.7-0.5-0.9C463.7,431.2,463.4,431.1,463,431.1z M467.8,430.9c0.3-0.5,0.9-0.8,1.8-0.8v1.1c-0.1,0-0.2,0-0.3,0
			c-0.4,0-0.8,0.1-1.1,0.4c-0.2,0.3-0.4,0.6-0.4,1.1v2.4h-1.2v-5h1.1V430.9z M470.6,430.2h1.2v5h-1.2V430.2z M471.2,429.4
			c-0.2,0-0.4-0.1-0.5-0.2c-0.1-0.1-0.2-0.3-0.2-0.5s0.1-0.4,0.2-0.5c0.1-0.1,0.3-0.2,0.5-0.2c0.2,0,0.4,0.1,0.5,0.2
			c0.1,0.1,0.2,0.3,0.2,0.5c0,0.2-0.1,0.4-0.2,0.5C471.5,429.3,471.4,429.4,471.2,429.4z M475.2,430.2c0.7,0,1.3,0.2,1.7,0.5
			c0.4,0.3,0.6,0.9,0.6,1.6v2.9h-1.1v-0.6c-0.1,0.2-0.3,0.4-0.6,0.5c-0.3,0.1-0.6,0.2-1,0.2c-0.4,0-0.7-0.1-1-0.2
			c-0.3-0.1-0.5-0.3-0.6-0.5c-0.2-0.2-0.2-0.5-0.2-0.8c0-0.4,0.2-0.8,0.5-1.1c0.3-0.3,0.9-0.4,1.6-0.4h1.3v-0.1
			c0-0.3-0.1-0.6-0.3-0.8c-0.2-0.2-0.5-0.3-0.9-0.3c-0.3,0-0.6,0-0.8,0.1c-0.3,0.1-0.5,0.2-0.7,0.4l-0.5-0.8
			c0.3-0.2,0.6-0.3,0.9-0.5C474.4,430.2,474.7,430.2,475.2,430.2z M475,434.4c0.3,0,0.5-0.1,0.8-0.2c0.2-0.1,0.4-0.3,0.5-0.6V433
			H475c-0.7,0-1,0.2-1,0.7c0,0.2,0.1,0.4,0.2,0.5C474.5,434.3,474.7,434.4,475,434.4z M478.9,428.3h1.2v6.9h-1.2V428.3z
			 M481.6,430.2h1.2v5h-1.2V430.2z M482.2,429.4c-0.2,0-0.4-0.1-0.5-0.2c-0.1-0.1-0.2-0.3-0.2-0.5s0.1-0.4,0.2-0.5
			c0.1-0.1,0.3-0.2,0.5-0.2c0.2,0,0.4,0.1,0.5,0.2c0.1,0.1,0.2,0.3,0.2,0.5c0,0.2-0.1,0.4-0.2,0.5
			C482.6,429.3,482.4,429.4,482.2,429.4z M488.2,434.3v0.9h-4.3v-0.7l2.7-3.3h-2.7v-0.9h4.2v0.7l-2.7,3.3H488.2z M493.9,432.7
			c0,0.1,0,0.2,0,0.3h-3.9c0.1,0.4,0.2,0.7,0.5,0.9c0.3,0.2,0.7,0.3,1.1,0.3c0.5,0,1-0.2,1.3-0.5l0.6,0.7c-0.2,0.3-0.5,0.5-0.8,0.6
			s-0.7,0.2-1.2,0.2c-0.6,0-1-0.1-1.5-0.3c-0.4-0.2-0.7-0.5-1-0.9c-0.2-0.4-0.3-0.8-0.3-1.3s0.1-0.9,0.3-1.3
			c0.2-0.4,0.5-0.7,0.9-0.9c0.4-0.2,0.8-0.3,1.3-0.3c0.5,0,0.9,0.1,1.3,0.3c0.4,0.2,0.7,0.5,0.9,0.9S493.9,432.2,493.9,432.7z
			 M491.4,431.1c-0.4,0-0.7,0.1-0.9,0.3c-0.3,0.2-0.4,0.5-0.5,0.9h2.8c-0.1-0.4-0.2-0.7-0.5-0.9
			C492.1,431.2,491.7,431.1,491.4,431.1z M499.9,428.3v6.9h-1.1v-0.6c-0.2,0.2-0.4,0.4-0.7,0.5c-0.3,0.1-0.6,0.2-0.9,0.2
			c-0.5,0-0.9-0.1-1.3-0.3s-0.7-0.5-0.9-0.9c-0.2-0.4-0.3-0.8-0.3-1.3c0-0.5,0.1-1,0.3-1.3c0.2-0.4,0.5-0.7,0.9-0.9s0.8-0.3,1.3-0.3
			c0.3,0,0.6,0.1,0.9,0.2c0.3,0.1,0.5,0.3,0.7,0.5v-2.6H499.9z M497.2,434.3c0.3,0,0.5-0.1,0.8-0.2c0.2-0.1,0.4-0.3,0.5-0.5
			c0.1-0.2,0.2-0.5,0.2-0.8c0-0.3-0.1-0.6-0.2-0.8c-0.1-0.2-0.3-0.4-0.5-0.5c-0.2-0.1-0.5-0.2-0.8-0.2s-0.5,0.1-0.8,0.2
			c-0.2,0.1-0.4,0.3-0.5,0.5c-0.1,0.2-0.2,0.5-0.2,0.8c0,0.3,0.1,0.6,0.2,0.8c0.1,0.2,0.3,0.4,0.5,0.5
			C496.7,434.2,497,434.3,497.2,434.3z M510.1,435.2l0-4.3l-2.1,3.6h-0.5l-2.1-3.5v4.3h-1.2v-6.5h1l2.6,4.3l2.5-4.3h1v6.5H510.1z
			 M515.1,435.3c-0.5,0-1-0.1-1.4-0.3s-0.7-0.5-1-0.9c-0.2-0.4-0.3-0.8-0.3-1.3c0-0.5,0.1-0.9,0.3-1.3c0.2-0.4,0.5-0.7,1-0.9
			c0.4-0.2,0.9-0.3,1.4-0.3c0.5,0,1,0.1,1.4,0.3c0.4,0.2,0.7,0.5,0.9,0.9c0.2,0.4,0.3,0.8,0.3,1.3c0,0.5-0.1,0.9-0.3,1.3
			c-0.2,0.4-0.5,0.7-0.9,0.9S515.6,435.3,515.1,435.3z M515.1,434.3c0.4,0,0.8-0.1,1.1-0.4c0.3-0.3,0.4-0.7,0.4-1.1
			c0-0.5-0.1-0.8-0.4-1.1c-0.3-0.3-0.6-0.4-1.1-0.4s-0.8,0.1-1.1,0.4c-0.3,0.3-0.4,0.7-0.4,1.1c0,0.5,0.1,0.8,0.4,1.1
			C514.3,434.1,514.7,434.3,515.1,434.3z M523.4,430.2l-2.1,5h-1.2l-2.1-5h1.2l1.5,3.7l1.6-3.7H523.4z M528.7,432.7
			c0,0.1,0,0.2,0,0.3h-3.9c0.1,0.4,0.2,0.7,0.5,0.9c0.3,0.2,0.7,0.3,1.1,0.3c0.5,0,1-0.2,1.3-0.5l0.6,0.7c-0.2,0.3-0.5,0.5-0.8,0.6
			s-0.7,0.2-1.2,0.2c-0.6,0-1-0.1-1.5-0.3s-0.7-0.5-1-0.9c-0.2-0.4-0.3-0.8-0.3-1.3s0.1-0.9,0.3-1.3c0.2-0.4,0.5-0.7,0.9-0.9
			c0.4-0.2,0.8-0.3,1.3-0.3s0.9,0.1,1.3,0.3c0.4,0.2,0.7,0.5,0.9,0.9S528.7,432.2,528.7,432.7z M526.2,431.1c-0.4,0-0.7,0.1-0.9,0.3
			c-0.3,0.2-0.4,0.5-0.5,0.9h2.8c-0.1-0.4-0.2-0.7-0.5-0.9C526.9,431.2,526.6,431.1,526.2,431.1z M538.5,428.7l-2.8,6.5h-1.2
			l-2.9-6.5h1.3l2.2,5l2.2-5H538.5z M540.6,430.2c0.7,0,1.3,0.2,1.7,0.5c0.4,0.3,0.6,0.9,0.6,1.6v2.9h-1.1v-0.6
			c-0.1,0.2-0.3,0.4-0.6,0.5c-0.3,0.1-0.6,0.2-1,0.2s-0.7-0.1-1-0.2c-0.3-0.1-0.5-0.3-0.6-0.5s-0.2-0.5-0.2-0.8
			c0-0.4,0.2-0.8,0.5-1.1c0.3-0.3,0.9-0.4,1.6-0.4h1.3v-0.1c0-0.3-0.1-0.6-0.3-0.8c-0.2-0.2-0.5-0.3-0.9-0.3c-0.3,0-0.6,0-0.8,0.1
			c-0.3,0.1-0.5,0.2-0.7,0.4l-0.5-0.8c0.3-0.2,0.6-0.3,0.9-0.5C539.8,430.2,540.2,430.2,540.6,430.2z M540.4,434.4
			c0.3,0,0.5-0.1,0.8-0.2c0.2-0.1,0.4-0.3,0.5-0.6V433h-1.2c-0.7,0-1,0.2-1,0.7c0,0.2,0.1,0.4,0.2,0.5
			C539.9,434.3,540.1,434.4,540.4,434.4z M544.3,428.3h1.2v6.9h-1.2V428.3z M551.9,430.2v5h-1.1v-0.6c-0.2,0.2-0.4,0.4-0.7,0.5
			c-0.3,0.1-0.6,0.2-0.9,0.2c-0.7,0-1.2-0.2-1.6-0.5c-0.4-0.4-0.6-0.9-0.6-1.7v-2.8h1.2v2.7c0,0.4,0.1,0.8,0.3,1
			c0.2,0.2,0.5,0.3,0.9,0.3c0.4,0,0.7-0.1,1-0.4c0.2-0.3,0.4-0.6,0.4-1.1v-2.5H551.9z M558.1,432.7c0,0.1,0,0.2,0,0.3h-3.9
			c0.1,0.4,0.2,0.7,0.5,0.9c0.3,0.2,0.7,0.3,1.1,0.3c0.5,0,1-0.2,1.3-0.5l0.6,0.7c-0.2,0.3-0.5,0.5-0.8,0.6s-0.7,0.2-1.2,0.2
			c-0.6,0-1-0.1-1.5-0.3c-0.4-0.2-0.7-0.5-1-0.9c-0.2-0.4-0.3-0.8-0.3-1.3s0.1-0.9,0.3-1.3c0.2-0.4,0.5-0.7,0.9-0.9
			c0.4-0.2,0.8-0.3,1.3-0.3c0.5,0,0.9,0.1,1.3,0.3c0.4,0.2,0.7,0.5,0.9,0.9S558.1,432.2,558.1,432.7z M555.5,431.1
			c-0.4,0-0.7,0.1-0.9,0.3c-0.3,0.2-0.4,0.5-0.5,0.9h2.8c-0.1-0.4-0.2-0.7-0.5-0.9C556.2,431.2,555.9,431.1,555.5,431.1z
			 M563.3,431.4v1l-4.3,1.7v-1l3.2-1.2l-3.2-1.2v-1L563.3,431.4z"/>
		<path class="st2" d="M433.7,405.4h119.1v18.5H433.7V405.4z"/>
		<path class="st13" d="M439.2,415.6c0,0.1,0,0.2,0,0.3h-3.9c0.1,0.4,0.2,0.7,0.5,0.9c0.3,0.2,0.7,0.3,1.1,0.3c0.5,0,1-0.2,1.3-0.5
			l0.6,0.7c-0.2,0.3-0.5,0.5-0.8,0.6c-0.3,0.1-0.7,0.2-1.2,0.2c-0.6,0-1-0.1-1.5-0.3c-0.4-0.2-0.7-0.5-1-0.9
			c-0.2-0.4-0.3-0.8-0.3-1.3c0-0.5,0.1-0.9,0.3-1.3c0.2-0.4,0.5-0.7,0.9-0.9c0.4-0.2,0.8-0.3,1.3-0.3c0.5,0,0.9,0.1,1.3,0.3
			c0.4,0.2,0.7,0.5,0.9,0.9C439.1,414.6,439.2,415.1,439.2,415.6z M436.7,413.9c-0.4,0-0.7,0.1-0.9,0.3c-0.3,0.2-0.4,0.5-0.5,0.9
			h2.8c-0.1-0.4-0.2-0.7-0.5-0.9C437.4,414.1,437,413.9,436.7,413.9z M444.9,413.1l-2.1,5h-1.2l-2.1-5h1.2l1.5,3.7l1.6-3.7H444.9z
			 M450.2,415.6c0,0.1,0,0.2,0,0.3h-3.9c0.1,0.4,0.2,0.7,0.5,0.9c0.3,0.2,0.7,0.3,1.1,0.3c0.5,0,1-0.2,1.3-0.5l0.6,0.7
			c-0.2,0.3-0.5,0.5-0.8,0.6c-0.3,0.1-0.7,0.2-1.2,0.2c-0.6,0-1-0.1-1.5-0.3c-0.4-0.2-0.7-0.5-1-0.9c-0.2-0.4-0.3-0.8-0.3-1.3
			c0-0.5,0.1-0.9,0.3-1.3c0.2-0.4,0.5-0.7,0.9-0.9c0.4-0.2,0.8-0.3,1.3-0.3c0.5,0,0.9,0.1,1.3,0.3c0.4,0.2,0.7,0.5,0.9,0.9
			C450,414.6,450.2,415.1,450.2,415.6z M447.6,413.9c-0.4,0-0.7,0.1-0.9,0.3c-0.3,0.2-0.4,0.5-0.5,0.9h2.8c-0.1-0.4-0.2-0.7-0.5-0.9
			C448.3,414.1,448,413.9,447.6,413.9z M454.1,413c0.6,0,1.1,0.2,1.5,0.5c0.4,0.4,0.6,0.9,0.6,1.6v2.9H455v-2.7c0-0.4-0.1-0.8-0.3-1
			c-0.2-0.2-0.5-0.3-0.9-0.3c-0.4,0-0.8,0.1-1,0.4c-0.2,0.2-0.4,0.6-0.4,1.1v2.5h-1.2v-5h1.1v0.6c0.2-0.2,0.4-0.4,0.7-0.5
			C453.4,413.1,453.7,413,454.1,413z M460.7,417.8c-0.1,0.1-0.3,0.2-0.5,0.2c-0.2,0.1-0.4,0.1-0.6,0.1c-0.6,0-1-0.1-1.3-0.4
			c-0.3-0.3-0.4-0.7-0.4-1.2V414H457v-0.9h0.8V412h1.2v1.1h1.3v0.9H459v2.4c0,0.2,0.1,0.4,0.2,0.6c0.1,0.1,0.3,0.2,0.5,0.2
			c0.3,0,0.5-0.1,0.7-0.2L460.7,417.8z M461.1,418.1h4.7v0.7h-4.7V418.1z M471.2,411.1v6.9h-1.1v-0.6c-0.2,0.2-0.4,0.4-0.7,0.5
			c-0.3,0.1-0.6,0.2-0.9,0.2c-0.5,0-0.9-0.1-1.3-0.3c-0.4-0.2-0.7-0.5-0.9-0.9c-0.2-0.4-0.3-0.8-0.3-1.3c0-0.5,0.1-1,0.3-1.3
			c0.2-0.4,0.5-0.7,0.9-0.9c0.4-0.2,0.8-0.3,1.3-0.3c0.3,0,0.6,0.1,0.9,0.2c0.3,0.1,0.5,0.3,0.7,0.5v-2.6H471.2z M468.6,417.1
			c0.3,0,0.5-0.1,0.8-0.2c0.2-0.1,0.4-0.3,0.5-0.5c0.1-0.2,0.2-0.5,0.2-0.8c0-0.3-0.1-0.6-0.2-0.8c-0.1-0.2-0.3-0.4-0.5-0.5
			c-0.2-0.1-0.5-0.2-0.8-0.2c-0.3,0-0.5,0.1-0.8,0.2c-0.2,0.1-0.4,0.3-0.5,0.5c-0.1,0.2-0.2,0.5-0.2,0.8c0,0.3,0.1,0.6,0.2,0.8
			c0.1,0.2,0.3,0.4,0.5,0.5C468,417.1,468.3,417.1,468.6,417.1z M474.6,413c0.7,0,1.3,0.2,1.7,0.5c0.4,0.3,0.6,0.9,0.6,1.6v2.9h-1.1
			v-0.6c-0.1,0.2-0.3,0.4-0.6,0.5c-0.3,0.1-0.6,0.2-1,0.2c-0.4,0-0.7-0.1-1-0.2c-0.3-0.1-0.5-0.3-0.6-0.5c-0.2-0.2-0.2-0.5-0.2-0.8
			c0-0.4,0.2-0.8,0.5-1.1c0.3-0.3,0.9-0.4,1.6-0.4h1.3v-0.1c0-0.3-0.1-0.6-0.3-0.8c-0.2-0.2-0.5-0.3-0.9-0.3c-0.3,0-0.6,0-0.8,0.1
			c-0.3,0.1-0.5,0.2-0.7,0.4l-0.5-0.8c0.3-0.2,0.6-0.3,0.9-0.5C473.8,413.1,474.2,413,474.6,413z M474.5,417.3
			c0.3,0,0.5-0.1,0.8-0.2c0.2-0.1,0.4-0.3,0.5-0.6v-0.6h-1.2c-0.7,0-1,0.2-1,0.7c0,0.2,0.1,0.4,0.2,0.5
			C473.9,417.2,474.2,417.3,474.5,417.3z M481.4,417.8c-0.1,0.1-0.3,0.2-0.5,0.2c-0.2,0.1-0.4,0.1-0.6,0.1c-0.6,0-1-0.1-1.3-0.4
			c-0.3-0.3-0.4-0.7-0.4-1.2V414h-0.8v-0.9h0.8V412h1.2v1.1h1.3v0.9h-1.3v2.4c0,0.2,0.1,0.4,0.2,0.6c0.1,0.1,0.3,0.2,0.5,0.2
			c0.3,0,0.5-0.1,0.7-0.2L481.4,417.8z M484.3,413c0.7,0,1.3,0.2,1.7,0.5c0.4,0.3,0.6,0.9,0.6,1.6v2.9h-1.1v-0.6
			c-0.1,0.2-0.3,0.4-0.6,0.5c-0.3,0.1-0.6,0.2-1,0.2c-0.4,0-0.7-0.1-1-0.2c-0.3-0.1-0.5-0.3-0.6-0.5c-0.2-0.2-0.2-0.5-0.2-0.8
			c0-0.4,0.2-0.8,0.5-1.1c0.3-0.3,0.9-0.4,1.6-0.4h1.3v-0.1c0-0.3-0.1-0.6-0.3-0.8c-0.2-0.2-0.5-0.3-0.9-0.3c-0.3,0-0.6,0-0.8,0.1
			c-0.3,0.1-0.5,0.2-0.7,0.4l-0.5-0.8c0.3-0.2,0.6-0.3,0.9-0.5C483.4,413.1,483.8,413,484.3,413z M484.1,417.3
			c0.3,0,0.5-0.1,0.8-0.2c0.2-0.1,0.4-0.3,0.5-0.6v-0.6h-1.2c-0.7,0-1,0.2-1,0.7c0,0.2,0.1,0.4,0.2,0.5
			C483.6,417.2,483.8,417.3,484.1,417.3z"/>
	</g>
</g>
</svg>
