<?xml version="1.0" encoding="utf-8"?>
<!-- Generator: Adobe Illustrator 26.0.3, SVG Export Plug-In . SVG Version: 6.00 Build 0)  -->
<svg version="1.1" id="Layer_1" xmlns="http://www.w3.org/2000/svg" xmlns:xlink="http://www.w3.org/1999/xlink" x="0px" y="0px"
	 width="960px" height="540px" viewBox="0 0 960 540" style="enable-background:new 0 0 960 540;" xml:space="preserve">
<style type="text/css">
	.st0{clip-path:url(#SVGID_00000027592117320858271190000017685944279913348748_);}
	.st1{fill-rule:evenodd;clip-rule:evenodd;fill:#FFFFFF;}
	.st2{fill-rule:evenodd;clip-rule:evenodd;fill-opacity:0;}
	.st3{fill-rule:evenodd;clip-rule:evenodd;fill:#497F6D;}
	.st4{fill:#8ECFBA;}
	.st5{fill-rule:evenodd;clip-rule:evenodd;fill:#8ECFBA;}
	.st6{fill:#497F6D;}
	.st7{fill:none;stroke:#CCCCCC;stroke-width:2;stroke-linejoin:round;stroke-miterlimit:10;}
	.st8{fill-rule:evenodd;clip-rule:evenodd;fill:#CCCCCC;stroke:#CCCCCC;stroke-width:2;stroke-miterlimit:10;}
	.st9{fill-rule:evenodd;clip-rule:evenodd;fill:#F3F4FB;}
	.st10{fill:#CCCCCC;}
	.st11{fill:#42318C;}
</style>
<g>
	<defs>
		<rect id="SVGID_1_" width="960" height="540"/>
	</defs>
	<clipPath id="SVGID_00000145054186758883528420000011142027601993607303_">
		<use xlink:href="#SVGID_1_"  style="overflow:visible;"/>
	</clipPath>
	<g style="clip-path:url(#SVGID_00000145054186758883528420000011142027601993607303_);">
		<path class="st1" d="M0,0h960v540H0V0z"/>
		<path class="st2" d="M640,12.5h310.5v224H640V12.5z"/>
		<g transform="matrix(0.19649160104986876 0.0 0.0 0.19649133858267717 639.9580052493438 12.506561679790027)">
			<g>
				<defs>
					<rect id="SVGID_00000031198803799882519330000010445321624353365682_" x="634.8" y="458" width="310.5" height="224"/>
				</defs>
				<clipPath id="SVGID_00000027576706083894563670000005711732598151237787_">
					<use xlink:href="#SVGID_00000031198803799882519330000010445321624353365682_"  style="overflow:visible;"/>
				</clipPath>
			</g>
		</g>
		<path class="st3" d="M408.9,256.3L408.9,256.3c0-2.9,2.4-5.3,5.3-5.3h131.8c1.4,0,2.7,0.6,3.7,1.5c1,1,1.5,2.3,1.5,3.7V301
			c0,2.9-2.4,5.3-5.3,5.3H414.1c-2.9,0-5.3-2.4-5.3-5.3V256.3z"/>
		<path class="st4" d="M451,281.9v1.3h-6.3v-8.4h6.1v1.3h-4.6v2.2h4.1v1.3h-4.1v2.3H451z M457.9,283.2l-2.3-3.2l-2.2,3.2h-1.8
			l3.1-4.3l-3-4.1h1.8l2.1,3l2.1-3h1.7l-2.9,4.1l3.2,4.3H457.9z M467,281.9v1.3h-6.3v-8.4h6.1v1.3h-4.6v2.2h4.1v1.3h-4.1v2.3H467z
			 M472.6,283.3c-0.8,0-1.6-0.2-2.3-0.6s-1.2-0.9-1.6-1.5s-0.6-1.4-0.6-2.2c0-0.8,0.2-1.6,0.6-2.2c0.4-0.7,0.9-1.2,1.6-1.5
			c0.7-0.4,1.5-0.6,2.3-0.6c0.7,0,1.3,0.1,1.9,0.4c0.6,0.2,1.1,0.6,1.5,1l-1,0.9c-0.6-0.7-1.4-1-2.2-1c-0.6,0-1.1,0.1-1.5,0.4
			c-0.4,0.2-0.8,0.6-1.1,1c-0.3,0.4-0.4,1-0.4,1.5c0,0.6,0.1,1.1,0.4,1.5c0.3,0.4,0.6,0.8,1.1,1c0.5,0.2,1,0.4,1.5,0.4
			c0.9,0,1.6-0.3,2.2-1l1,1c-0.4,0.5-0.9,0.8-1.5,1C473.9,283.2,473.3,283.3,472.6,283.3z M481,283.3c-1.2,0-2.1-0.3-2.7-1
			s-1-1.6-1-2.8v-4.8h1.5v4.7c0,1.6,0.7,2.5,2.1,2.5c1.4,0,2.1-0.8,2.1-2.5v-4.7h1.5v4.8c0,1.2-0.3,2.1-1,2.8
			C483,283,482.1,283.3,481,283.3z M488.4,276.1h-2.8v-1.3h7.1v1.3h-2.8v7.1h-1.6V276.1z M493.9,274.8h1.6v8.4h-1.6V274.8z
			 M501.6,283.3c-0.9,0-1.6-0.2-2.3-0.6s-1.2-0.9-1.6-1.5c-0.4-0.7-0.6-1.4-0.6-2.2c0-0.8,0.2-1.5,0.6-2.2c0.4-0.7,0.9-1.2,1.6-1.5
			c0.7-0.4,1.5-0.6,2.3-0.6c0.9,0,1.6,0.2,2.3,0.6c0.7,0.4,1.2,0.9,1.6,1.5c0.4,0.7,0.6,1.4,0.6,2.2c0,0.8-0.2,1.6-0.6,2.2
			c-0.4,0.7-0.9,1.2-1.6,1.5S502.5,283.3,501.6,283.3z M501.6,281.9c0.6,0,1.1-0.1,1.5-0.4s0.8-0.6,1-1c0.3-0.5,0.4-1,0.4-1.5
			s-0.1-1.1-0.4-1.5c-0.2-0.4-0.6-0.8-1-1c-0.4-0.3-1-0.4-1.5-0.4c-0.6,0-1.1,0.1-1.5,0.4c-0.4,0.2-0.8,0.6-1.1,1
			c-0.3,0.4-0.4,1-0.4,1.5s0.1,1.1,0.4,1.5c0.3,0.4,0.6,0.8,1.1,1S501.1,281.9,501.6,281.9z M515.3,274.8v8.4H514l-4.6-5.7v5.7h-1.5
			v-8.4h1.3l4.6,5.7v-5.7H515.3z"/>
		<path class="st5" d="M177.7,139.5L177.7,139.5c0-2.9,2.4-5.3,5.3-5.3h131.8c1.4,0,2.7,0.6,3.7,1.5s1.5,2.3,1.5,3.7v44.7
			c0,2.9-2.4,5.3-5.3,5.3H183c-2.9,0-5.3-2.4-5.3-5.3V139.5z"/>
		<path class="st6" d="M214.8,166.5c-0.8,0-1.6-0.2-2.3-0.6s-1.2-0.9-1.6-1.5c-0.4-0.7-0.6-1.4-0.6-2.2s0.2-1.6,0.6-2.2
			c0.4-0.7,0.9-1.2,1.6-1.5c0.7-0.4,1.5-0.6,2.3-0.6c0.7,0,1.3,0.1,1.9,0.4c0.6,0.2,1.1,0.6,1.5,1l-1,0.9c-0.6-0.7-1.4-1-2.2-1
			c-0.6,0-1.1,0.1-1.5,0.4c-0.4,0.2-0.8,0.6-1.1,1c-0.3,0.4-0.4,1-0.4,1.5c0,0.6,0.1,1.1,0.4,1.5c0.3,0.4,0.6,0.8,1.1,1
			c0.5,0.2,1,0.4,1.5,0.4c0.9,0,1.6-0.3,2.2-1l1,1c-0.4,0.5-0.9,0.8-1.5,1C216.1,166.4,215.5,166.5,214.8,166.5z M223.4,166.5
			c-0.9,0-1.6-0.2-2.3-0.6s-1.2-0.9-1.6-1.5c-0.4-0.7-0.6-1.4-0.6-2.2c0-0.8,0.2-1.5,0.6-2.2c0.4-0.7,0.9-1.2,1.6-1.5
			c0.7-0.4,1.5-0.6,2.3-0.6c0.9,0,1.6,0.2,2.3,0.6c0.7,0.4,1.2,0.9,1.6,1.5c0.4,0.7,0.6,1.4,0.6,2.2s-0.2,1.6-0.6,2.2
			c-0.4,0.7-0.9,1.2-1.6,1.5S224.2,166.5,223.4,166.5z M223.4,165.2c0.6,0,1.1-0.1,1.5-0.4c0.4-0.2,0.8-0.6,1-1
			c0.3-0.5,0.4-1,0.4-1.5s-0.1-1.1-0.4-1.5c-0.2-0.4-0.6-0.8-1-1c-0.4-0.3-1-0.4-1.5-0.4c-0.6,0-1.1,0.1-1.5,0.4
			c-0.4,0.2-0.8,0.6-1.1,1c-0.3,0.4-0.4,1-0.4,1.5s0.1,1.1,0.4,1.5c0.3,0.4,0.6,0.8,1.1,1C222.3,165,222.8,165.2,223.4,165.2z
			 M237,158v8.4h-1.3l-4.6-5.7v5.7h-1.5V158h1.3l4.6,5.7V158H237z M241.9,166.5c-0.6,0-1.3-0.1-1.9-0.3c-0.6-0.2-1.1-0.4-1.4-0.7
			l0.5-1.2c0.3,0.3,0.8,0.5,1.3,0.7c0.5,0.2,1,0.2,1.5,0.2c0.6,0,1.1-0.1,1.4-0.3c0.3-0.2,0.5-0.5,0.5-0.8c0-0.2-0.1-0.4-0.3-0.6
			c-0.2-0.2-0.4-0.3-0.7-0.4c-0.3-0.1-0.6-0.2-1.1-0.3c-0.6-0.1-1.2-0.3-1.5-0.5c-0.4-0.2-0.7-0.4-1-0.7c-0.3-0.3-0.4-0.8-0.4-1.3
			c0-0.5,0.1-0.9,0.4-1.2c0.3-0.4,0.6-0.7,1.1-0.9c0.5-0.2,1.1-0.3,1.9-0.3c0.5,0,1,0.1,1.5,0.2c0.5,0.1,0.9,0.3,1.3,0.5l-0.5,1.2
			c-0.4-0.2-0.8-0.4-1.2-0.5c-0.4-0.1-0.8-0.2-1.2-0.2c-0.6,0-1.1,0.1-1.4,0.3c-0.3,0.2-0.5,0.5-0.5,0.8c0,0.2,0.1,0.4,0.2,0.6
			c0.2,0.1,0.4,0.3,0.7,0.4c0.3,0.1,0.6,0.2,1.1,0.3c0.6,0.1,1.1,0.3,1.5,0.5c0.4,0.2,0.8,0.4,1,0.7s0.4,0.8,0.4,1.3
			c0,0.5-0.1,0.9-0.4,1.3c-0.2,0.4-0.6,0.7-1.1,0.9C243.2,166.4,242.6,166.5,241.9,166.5z M253.1,165.1v1.3h-6.3V158h6.1v1.3h-4.6
			v2.2h4.1v1.3h-4.1v2.3H253.1z M262.3,158v8.4H261l-4.6-5.7v5.7h-1.5V158h1.3l4.6,5.7V158H262.3z M267.2,166.5
			c-0.6,0-1.3-0.1-1.9-0.3c-0.6-0.2-1.1-0.4-1.4-0.7l0.5-1.2c0.3,0.3,0.8,0.5,1.3,0.7c0.5,0.2,1,0.2,1.5,0.2c0.6,0,1.1-0.1,1.4-0.3
			c0.3-0.2,0.5-0.5,0.5-0.8c0-0.2-0.1-0.4-0.3-0.6c-0.2-0.2-0.4-0.3-0.7-0.4c-0.3-0.1-0.6-0.2-1.1-0.3c-0.6-0.1-1.2-0.3-1.5-0.5
			c-0.4-0.2-0.7-0.4-1-0.7c-0.3-0.3-0.4-0.8-0.4-1.3c0-0.5,0.1-0.9,0.4-1.2c0.3-0.4,0.6-0.7,1.1-0.9c0.5-0.2,1.1-0.3,1.9-0.3
			c0.5,0,1,0.1,1.5,0.2c0.5,0.1,0.9,0.3,1.3,0.5l-0.5,1.2c-0.4-0.2-0.8-0.4-1.2-0.5c-0.4-0.1-0.8-0.2-1.2-0.2
			c-0.6,0-1.1,0.1-1.4,0.3c-0.3,0.2-0.5,0.5-0.5,0.8c0,0.2,0.1,0.4,0.2,0.6c0.2,0.1,0.4,0.3,0.7,0.4c0.3,0.1,0.6,0.2,1.1,0.3
			c0.6,0.1,1.1,0.3,1.5,0.5c0.4,0.2,0.8,0.4,1,0.7s0.4,0.8,0.4,1.3c0,0.5-0.1,0.9-0.4,1.3c-0.2,0.4-0.6,0.7-1.1,0.9
			C268.5,166.4,267.9,166.5,267.2,166.5z M275.7,166.5c-1.2,0-2.1-0.3-2.7-1c-0.6-0.7-1-1.6-1-2.8V158h1.5v4.7
			c0,1.6,0.7,2.5,2.1,2.5c1.4,0,2.1-0.8,2.1-2.5V158h1.5v4.8c0,1.2-0.3,2.1-1,2.8C277.8,166.2,276.9,166.5,275.7,166.5z
			 M284.2,166.5c-0.6,0-1.3-0.1-1.9-0.3c-0.6-0.2-1.1-0.4-1.4-0.7l0.5-1.2c0.3,0.3,0.8,0.5,1.3,0.7c0.5,0.2,1,0.2,1.5,0.2
			c0.6,0,1.1-0.1,1.4-0.3c0.3-0.2,0.5-0.5,0.5-0.8c0-0.2-0.1-0.4-0.3-0.6c-0.2-0.2-0.4-0.3-0.7-0.4c-0.3-0.1-0.6-0.2-1.1-0.3
			c-0.6-0.1-1.2-0.3-1.5-0.5c-0.4-0.2-0.7-0.4-1-0.7c-0.3-0.3-0.4-0.8-0.4-1.3c0-0.5,0.1-0.9,0.4-1.2c0.3-0.4,0.6-0.7,1.1-0.9
			c0.5-0.2,1.1-0.3,1.9-0.3c0.5,0,1,0.1,1.5,0.2c0.5,0.1,0.9,0.3,1.3,0.5l-0.5,1.2c-0.4-0.2-0.8-0.4-1.2-0.5
			c-0.4-0.1-0.8-0.2-1.2-0.2c-0.6,0-1.1,0.1-1.4,0.3c-0.3,0.2-0.5,0.5-0.5,0.8c0,0.2,0.1,0.4,0.2,0.6c0.2,0.1,0.4,0.3,0.7,0.4
			c0.3,0.1,0.6,0.2,1.1,0.3c0.6,0.1,1.1,0.3,1.5,0.5c0.4,0.2,0.8,0.4,1,0.7s0.4,0.8,0.4,1.3c0,0.5-0.1,0.9-0.4,1.3
			c-0.2,0.4-0.6,0.7-1.1,0.9C285.6,166.4,284.9,166.5,284.2,166.5z"/>
		<path class="st2" d="M248.9,361.3v-82.6h160"/>
		<path class="st7" d="M248.9,349.3v-70.6h160"/>
		<path class="st8" d="M245.6,349.3l3.3,9.1l3.3-9.1H245.6z"/>
		<path class="st2" d="M480,251v-30.8H248.9v-30.8"/>
		<path class="st7" d="M480,239v-18.8H248.9v-30.8"/>
		<path class="st8" d="M476.7,239l3.3,9.1l3.3-9.1H476.7z"/>
		<path class="st2" d="M551.1,278.7h44.4v0.1H640"/>
		<path class="st7" d="M551.1,278.7h44.4v0.1H628"/>
		<path class="st8" d="M628,282l9.1-3.3l-9.1-3.3V282z"/>
		<path class="st9" d="M309.9,269.1h37.9v19.1h-37.9V269.1z"/>
		<path class="st10" d="M333.3,280h-1.5v2h-2.1v-2h-5v-1.5l4.4-5.9h2.3l-4.1,5.6h2.5v-1.8h2v1.8h1.5V280z"/>
		<path class="st9" d="M323.4,210.7h80.2v19.1h-80.2V210.7z"/>
		<path class="st10" d="M352.5,214.2v9.3h-2.2v-7.6h-1.9v-1.7H352.5z M365.6,223.7l-1.1-1c-0.9,0.7-1.9,1-3.1,1
			c-0.7,0-1.3-0.1-1.8-0.3s-1-0.5-1.3-0.9c-0.3-0.4-0.5-0.8-0.5-1.3c0-0.6,0.2-1.1,0.5-1.5s0.8-0.9,1.6-1.3c-0.3-0.3-0.6-0.7-0.7-1
			c-0.1-0.3-0.2-0.7-0.2-1c0-0.5,0.1-0.9,0.4-1.2s0.6-0.6,1-0.8c0.4-0.2,0.9-0.3,1.5-0.3c0.8,0,1.4,0.2,1.9,0.6s0.7,0.9,0.7,1.6
			c0,0.5-0.1,0.9-0.4,1.3c-0.3,0.4-0.7,0.7-1.4,1.1l1.7,1.6c0.2-0.4,0.4-0.9,0.5-1.5l1.7,0.5c-0.2,0.8-0.5,1.5-0.9,2.1l1.1,1
			L365.6,223.7z M361.8,215.5c-0.3,0-0.6,0.1-0.8,0.2c-0.2,0.2-0.3,0.4-0.3,0.6c0,0.2,0,0.4,0.1,0.5c0.1,0.2,0.3,0.4,0.6,0.7
			c0.4-0.2,0.8-0.5,0.9-0.6c0.2-0.2,0.3-0.4,0.3-0.6c0-0.2-0.1-0.4-0.2-0.5C362.3,215.6,362.1,215.5,361.8,215.5z M361.5,222.1
			c0.6,0,1.2-0.2,1.8-0.5l-2.3-2.1c-0.4,0.2-0.7,0.5-0.9,0.7c-0.2,0.2-0.3,0.5-0.3,0.8c0,0.3,0.2,0.6,0.5,0.8
			C360.6,222,361,222.1,361.5,222.1z M375.7,218c0.8,0.1,1.4,0.4,1.9,0.9c0.4,0.5,0.7,1.1,0.7,1.8c0,0.5-0.1,1-0.4,1.5
			c-0.3,0.5-0.7,0.8-1.3,1.1c-0.6,0.3-1.3,0.4-2.1,0.4c-0.7,0-1.3-0.1-1.9-0.2c-0.6-0.2-1.2-0.4-1.6-0.8l0.8-1.7
			c0.4,0.3,0.8,0.5,1.2,0.6c0.5,0.1,0.9,0.2,1.4,0.2c0.6,0,1-0.1,1.3-0.3c0.3-0.2,0.5-0.5,0.5-0.9c0-0.8-0.6-1.1-1.8-1.1h-1v-1.4
			l1.9-2.2h-4v-1.7h6.5v1.4L375.7,218z"/>
		<path class="st9" d="M575.4,271.1h37.9v15.2h-37.9V271.1z"/>
		<path class="st10" d="M597.9,282.1v1.8h-7v-1.4l3.6-3.4c0.4-0.4,0.6-0.7,0.8-0.9c0.1-0.3,0.2-0.5,0.2-0.8c0-0.4-0.1-0.7-0.4-0.9
			c-0.2-0.2-0.6-0.3-1.1-0.3c-0.4,0-0.8,0.1-1.1,0.2c-0.3,0.2-0.6,0.4-0.8,0.7l-1.6-1c0.4-0.5,0.9-1,1.5-1.3
			c0.6-0.3,1.4-0.5,2.2-0.5c0.7,0,1.3,0.1,1.8,0.3c0.5,0.2,0.9,0.5,1.2,1c0.3,0.4,0.4,0.9,0.4,1.5c0,0.5-0.1,1-0.3,1.4
			c-0.2,0.4-0.6,0.9-1.2,1.5l-2.1,2H597.9z"/>
		<path class="st5" d="M177.7,366.6L177.7,366.6c0-2.9,2.4-5.3,5.3-5.3h131.8c1.4,0,2.7,0.6,3.7,1.5s1.5,2.3,1.5,3.7v44.7
			c0,2.9-2.4,5.3-5.3,5.3H183c-2.9,0-5.3-2.4-5.3-5.3V366.6z"/>
		<path class="st6" d="M222.8,393.6c-0.6,0-1.3-0.1-1.9-0.3c-0.6-0.2-1.1-0.4-1.4-0.7l0.5-1.2c0.3,0.3,0.8,0.5,1.3,0.7
			c0.5,0.2,1,0.2,1.5,0.2c0.6,0,1.1-0.1,1.4-0.3c0.3-0.2,0.5-0.5,0.5-0.8c0-0.2-0.1-0.4-0.3-0.6c-0.2-0.2-0.4-0.3-0.7-0.4
			c-0.3-0.1-0.6-0.2-1.1-0.3c-0.6-0.1-1.2-0.3-1.5-0.5c-0.4-0.2-0.7-0.4-1-0.7c-0.3-0.3-0.4-0.8-0.4-1.3c0-0.5,0.1-0.9,0.4-1.2
			c0.3-0.4,0.6-0.7,1.1-0.9c0.5-0.2,1.1-0.3,1.9-0.3c0.5,0,1,0.1,1.5,0.2c0.5,0.1,0.9,0.3,1.3,0.5l-0.5,1.2
			c-0.4-0.2-0.8-0.4-1.2-0.5c-0.4-0.1-0.8-0.2-1.2-0.2c-0.6,0-1.1,0.1-1.4,0.3c-0.3,0.2-0.5,0.5-0.5,0.8c0,0.2,0.1,0.4,0.2,0.6
			c0.2,0.1,0.4,0.3,0.7,0.4c0.3,0.1,0.6,0.2,1.1,0.3c0.6,0.1,1.1,0.3,1.5,0.5c0.4,0.2,0.8,0.4,1,0.7s0.4,0.8,0.4,1.3
			c0,0.5-0.1,0.9-0.4,1.3c-0.2,0.4-0.6,0.7-1.1,0.9C224.2,393.5,223.6,393.6,222.8,393.6z M229.4,386.4h-2.8V385h7.1v1.3h-2.8v7.1
			h-1.6V386.4z M238.7,393.6c-0.9,0-1.6-0.2-2.3-0.6s-1.2-0.9-1.6-1.5c-0.4-0.7-0.6-1.4-0.6-2.2c0-0.8,0.2-1.5,0.6-2.2
			c0.4-0.7,0.9-1.2,1.6-1.5c0.7-0.4,1.5-0.6,2.3-0.6c0.9,0,1.6,0.2,2.3,0.6c0.7,0.4,1.2,0.9,1.6,1.5c0.4,0.7,0.6,1.4,0.6,2.2
			s-0.2,1.6-0.6,2.2c-0.4,0.7-0.9,1.2-1.6,1.5S239.5,393.6,238.7,393.6z M238.7,392.2c0.6,0,1.1-0.1,1.5-0.4c0.4-0.2,0.8-0.6,1-1
			c0.3-0.5,0.4-1,0.4-1.5s-0.1-1.1-0.4-1.5c-0.2-0.4-0.6-0.8-1-1c-0.4-0.3-1-0.4-1.5-0.4c-0.6,0-1.1,0.1-1.5,0.4
			c-0.4,0.2-0.8,0.6-1.1,1c-0.3,0.4-0.4,1-0.4,1.5s0.1,1.1,0.4,1.5c0.3,0.4,0.6,0.8,1.1,1C237.6,392.1,238.1,392.2,238.7,392.2z
			 M250.4,393.4l-1.7-2.5c-0.1,0-0.2,0-0.3,0h-1.9v2.5h-1.6V385h3.5c0.7,0,1.4,0.1,1.9,0.4c0.5,0.2,1,0.6,1.2,1
			c0.3,0.4,0.4,1,0.4,1.6s-0.2,1.2-0.5,1.6c-0.3,0.5-0.7,0.8-1.3,1l1.9,2.8H250.4z M250.3,388c0-0.5-0.2-1-0.5-1.2
			c-0.4-0.3-0.9-0.4-1.5-0.4h-1.8v3.3h1.8c0.7,0,1.2-0.1,1.5-0.4C250.2,389,250.3,388.6,250.3,388z M259.1,391.5h-4.2l-0.8,1.9h-1.6
			l3.8-8.4h1.5l3.8,8.4h-1.6L259.1,391.5z M258.6,390.3l-1.6-3.7l-1.6,3.7H258.6z M268.2,389.1h1.5v3.3c-0.4,0.3-0.9,0.6-1.5,0.8
			c-0.6,0.2-1.2,0.3-1.8,0.3c-0.9,0-1.6-0.2-2.3-0.6s-1.2-0.9-1.6-1.5c-0.4-0.7-0.6-1.4-0.6-2.2s0.2-1.6,0.6-2.2
			c0.4-0.7,0.9-1.2,1.6-1.5c0.7-0.4,1.5-0.6,2.3-0.6c0.7,0,1.3,0.1,1.9,0.3c0.6,0.2,1.1,0.6,1.5,1l-1,1c-0.6-0.6-1.4-1-2.3-1
			c-0.6,0-1.1,0.1-1.6,0.4c-0.5,0.2-0.8,0.6-1.1,1c-0.3,0.4-0.4,1-0.4,1.5c0,0.6,0.1,1.1,0.4,1.5c0.3,0.4,0.6,0.8,1.1,1.1
			c0.5,0.2,1,0.4,1.6,0.4c0.7,0,1.2-0.1,1.7-0.4V389.1z M278.1,392.1v1.3h-6.3V385h6.1v1.3h-4.6v2.2h4.1v1.3h-4.1v2.3H278.1z"/>
		<path class="st5" d="M640,256.3L640,256.3c0-2.9,2.4-5.3,5.3-5.3H777c1.4,0,2.7,0.6,3.7,1.5c1,1,1.5,2.3,1.5,3.7V301
			c0,2.9-2.4,5.3-5.3,5.3H645.2c-2.9,0-5.3-2.4-5.3-5.3V256.3z"/>
		<path class="st6" d="M661.3,274.8l-3.7,8.4h-1.5l-3.7-8.4h1.7l2.8,6.5l2.8-6.5H661.3z M662.2,274.8h1.6v8.4h-1.6V274.8z
			 M671.5,283.2l-1.7-2.5c-0.1,0-0.2,0-0.3,0h-1.9v2.5H666v-8.4h3.5c0.7,0,1.4,0.1,1.9,0.4c0.5,0.2,1,0.6,1.2,1
			c0.3,0.4,0.4,1,0.4,1.6s-0.2,1.2-0.5,1.6c-0.3,0.5-0.7,0.8-1.3,1l1.9,2.8H671.5z M671.5,277.8c0-0.5-0.2-1-0.5-1.2
			c-0.4-0.3-0.9-0.4-1.5-0.4h-1.8v3.3h1.8c0.7,0,1.2-0.1,1.5-0.4C671.3,278.7,671.5,278.3,671.5,277.8z M676.4,276.1h-2.8v-1.3h7.1
			v1.3h-2.8v7.1h-1.6V276.1z M685.3,283.3c-1.2,0-2.1-0.3-2.7-1c-0.6-0.7-1-1.6-1-2.8v-4.8h1.5v4.7c0,1.6,0.7,2.5,2.1,2.5
			c1.4,0,2.1-0.8,2.1-2.5v-4.7h1.5v4.8c0,1.2-0.3,2.1-1,2.8C687.4,283,686.5,283.3,685.3,283.3z M696.5,281.2h-4.2l-0.8,1.9h-1.6
			l3.8-8.4h1.5l3.8,8.4h-1.6L696.5,281.2z M695.9,280l-1.6-3.7l-1.6,3.7H695.9z M700,274.8h1.6v7.1h4.4v1.3h-6V274.8z M718.2,283.2
			l0-5.6l-2.8,4.6h-0.7l-2.8-4.5v5.5h-1.5v-8.4h1.3l3.3,5.6l3.3-5.6h1.3v8.4H718.2z M727.4,281.2h-4.2l-0.8,1.9h-1.6l3.8-8.4h1.5
			l3.8,8.4h-1.6L727.4,281.2z M726.9,280l-1.6-3.7l-1.6,3.7H726.9z M734.7,283.3c-0.8,0-1.6-0.2-2.3-0.6s-1.2-0.9-1.6-1.5
			c-0.4-0.7-0.6-1.4-0.6-2.2s0.2-1.6,0.6-2.2c0.4-0.7,0.9-1.2,1.6-1.5c0.7-0.4,1.5-0.6,2.3-0.6c0.7,0,1.3,0.1,1.9,0.4
			c0.6,0.2,1.1,0.6,1.5,1l-1,0.9c-0.6-0.7-1.4-1-2.2-1c-0.6,0-1.1,0.1-1.5,0.4c-0.4,0.2-0.8,0.6-1.1,1c-0.3,0.4-0.4,1-0.4,1.5
			c0,0.6,0.1,1.1,0.4,1.5c0.3,0.4,0.6,0.8,1.1,1c0.5,0.2,1,0.4,1.5,0.4c0.9,0,1.6-0.3,2.2-1l1,1c-0.4,0.5-0.9,0.8-1.5,1
			C736,283.2,735.4,283.3,734.7,283.3z M747,274.8v8.4h-1.6v-3.6h-4.3v3.6h-1.6v-8.4h1.6v3.5h4.3v-3.5H747z M749.3,274.8h1.6v8.4
			h-1.6V274.8z M760.6,274.8v8.4h-1.3l-4.6-5.7v5.7h-1.5v-8.4h1.3l4.6,5.7v-5.7H760.6z M769.1,281.9v1.3h-6.3v-8.4h6.1v1.3h-4.6v2.2
			h4.1v1.3h-4.1v2.3H769.1z"/>
		<path class="st2" d="M256.3,45h447.3v61.9H256.3V45z"/>
		<path class="st11" d="M435.4,83.4v1.1h-11.6V67.7h11.2v1.1h-10v6.6h9v1.1h-9v6.9H435.4z M447.1,84.5l-4.3-5.6l-4.3,5.6h-1.4l5-6.5
			l-4.7-6.1h1.4l4,5.2l4-5.2h1.3l-4.7,6.1l5,6.5H447.1z M461.7,78.5h-10.8c0,1,0.3,1.8,0.7,2.6c0.5,0.8,1.1,1.3,1.9,1.8
			s1.7,0.6,2.7,0.6c0.8,0,1.6-0.1,2.3-0.4c0.7-0.3,1.3-0.7,1.7-1.3l0.7,0.8c-0.5,0.7-1.2,1.2-2,1.5c-0.8,0.3-1.7,0.5-2.7,0.5
			c-1.2,0-2.3-0.3-3.3-0.8s-1.7-1.3-2.3-2.2c-0.6-1-0.8-2.1-0.8-3.3c0-1.2,0.3-2.3,0.8-3.3c0.5-1,1.2-1.7,2.1-2.3
			c0.9-0.6,1.9-0.8,3.1-0.8s2.2,0.3,3.1,0.8c0.9,0.5,1.6,1.3,2.1,2.2s0.8,2,0.8,3.3L461.7,78.5z M455.7,72.9c-0.9,0-1.7,0.2-2.4,0.6
			c-0.7,0.4-1.3,0.9-1.7,1.7c-0.4,0.7-0.7,1.5-0.7,2.4h9.6c0-0.9-0.3-1.7-0.7-2.4c-0.4-0.7-1-1.3-1.7-1.7
			C457.4,73.1,456.6,72.9,455.7,72.9z M470.4,84.6c-1.2,0-2.3-0.3-3.3-0.8c-1-0.5-1.7-1.3-2.3-2.3c-0.5-1-0.8-2.1-0.8-3.3
			c0-1.2,0.3-2.3,0.8-3.3c0.6-1,1.3-1.7,2.3-2.2c1-0.5,2-0.8,3.3-0.8c1,0,1.9,0.2,2.8,0.6c0.8,0.4,1.5,1,2,1.7l-0.9,0.6
			c-0.4-0.6-1-1.1-1.7-1.4c-0.7-0.3-1.4-0.5-2.2-0.5c-1,0-1.9,0.2-2.6,0.7c-0.8,0.4-1.4,1.1-1.8,1.9c-0.4,0.8-0.7,1.7-0.7,2.8
			s0.2,2,0.7,2.8s1,1.4,1.8,1.9c0.8,0.4,1.7,0.7,2.6,0.7c0.8,0,1.5-0.2,2.2-0.5c0.7-0.3,1.2-0.8,1.7-1.4l0.9,0.7
			c-0.5,0.8-1.2,1.3-2,1.7C472.3,84.4,471.4,84.6,470.4,84.6z M489.7,71.9v12.5h-1.2v-2.7c-0.4,0.9-1,1.6-1.9,2
			c-0.8,0.5-1.8,0.7-2.9,0.7c-1.6,0-2.9-0.5-3.8-1.4c-0.9-0.9-1.4-2.2-1.4-3.9v-7.3h1.2v7.2c0,1.4,0.4,2.5,1.1,3.2
			c0.7,0.7,1.8,1.1,3.1,1.1c1.4,0,2.5-0.4,3.3-1.3c0.8-0.9,1.2-2.1,1.2-3.6v-6.7H489.7z M501,83.7c-0.3,0.3-0.7,0.5-1.2,0.7
			c-0.4,0.1-0.9,0.2-1.4,0.2c-1.1,0-1.9-0.3-2.5-0.9c-0.6-0.6-0.9-1.4-0.9-2.5V73h-2.3v-1h2.3v-2.7h1.2v2.7h4v1h-4V81
			c0,0.8,0.2,1.4,0.6,1.9c0.4,0.4,1,0.6,1.8,0.6c0.8,0,1.4-0.2,1.9-0.7L501,83.7z M504.3,71.9h1.2v12.5h-1.2V71.9z M504.9,68.9
			c-0.3,0-0.5-0.1-0.7-0.3c-0.2-0.2-0.3-0.4-0.3-0.7s0.1-0.5,0.3-0.7c0.2-0.2,0.4-0.3,0.7-0.3s0.5,0.1,0.7,0.3
			c0.2,0.2,0.3,0.4,0.3,0.7s-0.1,0.5-0.3,0.7C505.4,68.8,505.2,68.9,504.9,68.9z M515.5,84.6c-1.2,0-2.3-0.3-3.2-0.8
			c-0.9-0.5-1.7-1.3-2.2-2.3c-0.5-1-0.8-2.1-0.8-3.3c0-1.2,0.3-2.3,0.8-3.3c0.6-1,1.3-1.7,2.2-2.3c0.9-0.6,2-0.8,3.2-0.8
			s2.3,0.3,3.2,0.8c1,0.5,1.7,1.3,2.2,2.3c0.5,1,0.8,2,0.8,3.3s-0.3,2.3-0.8,3.3c-0.5,1-1.3,1.7-2.2,2.3
			C517.8,84.3,516.7,84.6,515.5,84.6z M515.5,83.5c1,0,1.8-0.2,2.6-0.7c0.8-0.4,1.4-1.1,1.8-1.9c0.4-0.8,0.7-1.7,0.7-2.7
			s-0.2-1.9-0.7-2.7c-0.4-0.8-1-1.4-1.8-1.9c-0.8-0.4-1.6-0.7-2.6-0.7c-1,0-1.8,0.2-2.6,0.7c-0.8,0.4-1.4,1.1-1.8,1.9
			c-0.4,0.8-0.7,1.7-0.7,2.7c0,1,0.2,1.9,0.7,2.7c0.4,0.8,1,1.4,1.8,1.9C513.7,83.3,514.5,83.5,515.5,83.5z M531.6,71.8
			c1.6,0,2.8,0.5,3.7,1.4c0.9,0.9,1.4,2.2,1.4,3.9v7.3h-1.2v-7.2c0-1.4-0.4-2.5-1.1-3.2c-0.7-0.7-1.7-1.1-3-1.1
			c-1.5,0-2.6,0.4-3.5,1.3c-0.8,0.9-1.3,2.1-1.3,3.5v6.7h-1.2V71.9h1.2v2.7c0.4-0.9,1.1-1.6,1.9-2.1
			C529.4,72.1,530.4,71.8,531.6,71.8z"/>
		<path class="st2" d="M42.2,496.6h77.2v20.2H42.2L42.2,496.6z"/>
		<g transform="matrix(0.0711588329275762 0.0 0.0 0.07115828068175029 6.157295983149815 431.3746918714628)">
			<g>
				<defs>
					<rect id="SVGID_00000124864557249209081010000001287485449282271415_" x="1010" y="1048.4" width="77.2" height="20.2"/>
				</defs>
				<clipPath id="SVGID_00000140705678181023529830000004674832605860199089_">
					<use xlink:href="#SVGID_00000124864557249209081010000001287485449282271415_"  style="overflow:visible;"/>
				</clipPath>
			</g>
		</g>
	</g>
</g>
</svg>
