<svg version="1.1" xmlns="http://www.w3.org/2000/svg" viewBox="0 0 1230.1296375831073 888.2325735260576" width="2460.2592751662146" height="1776.4651470521153">
  <!-- svg-source:excalidraw -->
  
  <defs>
    <style class="style-fonts">
      @font-face {
        font-family: "Virgil";
        src: url("https://excalidraw.com/Virgil.woff2");
      }
      @font-face {
        font-family: "Cascadia";
        src: url("https://excalidraw.com/Cascadia.woff2");
      }
    </style>
  </defs>
  <g stroke-linecap="round" transform="translate(414.3818576364845 360.50178240143873) rotate(0 100 94)"><path d="M32 0 M32 0 C61.8 2.29, 93.51 0.88, 168 0 M32 0 C59.45 -1.16, 88.13 0.12, 168 0 M168 0 C189.07 -0.49, 198.69 12.28, 200 32 M168 0 C189.4 -0.11, 197.83 8.7, 200 32 M200 32 C199.67 64.32, 197.69 95.03, 200 156 M200 32 C201.1 68.91, 201.34 105.28, 200 156 M200 156 C201.41 178.34, 188.19 189.7, 168 188 M200 156 C199.18 175.32, 190 187.79, 168 188 M168 188 C120.71 185.59, 75.98 186.51, 32 188 M168 188 C128 188.55, 87.86 189.78, 32 188 M32 188 C11.32 189.59, -1.05 178.44, 0 156 M32 188 C8.73 188.27, -1.13 175.76, 0 156 M0 156 C-0.41 109.98, 0.76 61.39, 0 32 M0 156 C1.35 105.91, 1.94 56.61, 0 32 M0 32 C1.65 9.44, 9.97 -0.95, 32 0 M0 32 C-0.09 11.26, 11.68 -1.62, 32 0" stroke="#ffffff" stroke-width="1" fill="none"></path></g><g transform="translate(419.7819354563087 429.50178240143873) rotate(0 94.59992218017578 25)"><text x="94.59992218017578" y="0" font-family="Virgil, Segoe UI Emoji" font-size="20px" fill="#ffffff" text-anchor="middle" style="white-space: pre;" direction="ltr" dominant-baseline="text-before-edge">Secondary Fungible </text><text x="94.59992218017578" y="25" font-family="Virgil, Segoe UI Emoji" font-size="20px" fill="#ffffff" text-anchor="middle" style="white-space: pre;" direction="ltr" dominant-baseline="text-before-edge">Store</text></g><g stroke-linecap="round" transform="translate(10 362.9783978328853) rotate(0 100 94)"><path d="M32 0 M32 0 C70.08 1.68, 110.8 1.9, 168 0 M32 0 C83.59 0.45, 133.97 -0.35, 168 0 M168 0 C190.7 -0.53, 200.93 9.05, 200 32 M168 0 C190.98 -2.3, 201.34 12.05, 200 32 M200 32 C198.62 74.8, 198.01 116.4, 200 156 M200 32 C198.39 74.01, 198.21 114.37, 200 156 M200 156 C199.02 176.18, 188.61 187.15, 168 188 M200 156 C200.68 175.32, 189.07 189.89, 168 188 M168 188 C129.57 190.93, 89.58 187.64, 32 188 M168 188 C114.64 189.36, 59.67 188.31, 32 188 M32 188 C9.07 186.82, 1.4 178.02, 0 156 M32 188 C10 190.3, 1.17 179.16, 0 156 M0 156 C-1.27 112.67, -0.47 73.34, 0 32 M0 156 C-0.5 125.91, -1.8 95.8, 0 32 M0 32 C1.32 9.48, 8.72 1.63, 32 0 M0 32 C-0.74 12.16, 9.28 0.9, 32 0" stroke="#ffffff" stroke-width="1" fill="none"></path></g><g transform="translate(59.870033264160156 444.4783978328853) rotate(0 50.129966735839844 12.5)"><text x="50.129966735839844" y="0" font-family="Virgil, Segoe UI Emoji" font-size="20px" fill="#ffffff" text-anchor="middle" style="white-space: pre;" direction="ltr" dominant-baseline="text-before-edge">Metadata</text></g><g stroke-linecap="round" transform="translate(414.56268814147643 136.28554694261607) rotate(0 100 94)"><path d="M32 0 M32 0 C78.4 -0.49, 127.99 -1.52, 168 0 M32 0 C62.89 0.03, 94.84 1.35, 168 0 M168 0 C188.09 -1.87, 201.39 11.54, 200 32 M168 0 C189.12 -2.12, 198.27 11.31, 200 32 M200 32 C201.45 60.77, 200.3 90.27, 200 156 M200 32 C200.41 64.59, 200.33 96.65, 200 156 M200 156 C201.24 177.24, 188.42 188.24, 168 188 M200 156 C200.66 175.16, 190.98 190.25, 168 188 M168 188 C114.56 190.09, 61.44 188.82, 32 188 M168 188 C120.39 187.45, 71.3 187.25, 32 188 M32 188 C12.6 186.2, -0.72 178.28, 0 156 M32 188 C8.61 186.29, -1.2 177.26, 0 156 M0 156 C-2.04 133.03, 0.01 104.6, 0 32 M0 156 C-0.28 110.47, -0.17 62.62, 0 32 M0 32 C1.04 12.33, 12.55 0.08, 32 0 M0 32 C-2.2 9.66, 10.24 -0.9, 32 0" stroke="#ffffff" stroke-width="1" fill="none"></path></g><g transform="translate(433.00275924743346 205.28554694261607) rotate(0 81.55992889404297 25)"><text x="81.55992889404297" y="0" font-family="Virgil, Segoe UI Emoji" font-size="20px" fill="#ffffff" text-anchor="middle" style="white-space: pre;" direction="ltr" dominant-baseline="text-before-edge">Primary Fungible </text><text x="81.55992889404297" y="25" font-family="Virgil, Segoe UI Emoji" font-size="20px" fill="#ffffff" text-anchor="middle" style="white-space: pre;" direction="ltr" dominant-baseline="text-before-edge">Store</text></g><g stroke-linecap="round" transform="translate(835.5872278556849 362.83964289147184) rotate(0 100 94)"><path d="M32 0 M32 0 C75.14 -0.67, 117.02 -2.05, 168 0 M32 0 C70.96 0.66, 108.73 -0.32, 168 0 M168 0 C190.08 0.72, 198.78 9.32, 200 32 M168 0 C189.38 1.41, 199.7 10.1, 200 32 M200 32 C200.9 59.17, 199.28 89.1, 200 156 M200 32 C201.57 64.68, 201.47 99.3, 200 156 M200 156 C201.84 177.43, 189.24 187.67, 168 188 M200 156 C200.46 175.36, 190.95 189.16, 168 188 M168 188 C133.24 188.09, 101.78 188.24, 32 188 M168 188 C139.63 186.69, 112.44 186.88, 32 188 M32 188 C9.89 189.87, -0.46 175.9, 0 156 M32 188 C9.27 189.18, 0.75 179.16, 0 156 M0 156 C-0.45 124.35, -2.06 96.33, 0 32 M0 156 C0.75 129.61, 0.18 104.55, 0 32 M0 32 C-1.98 11.65, 10.91 -1.27, 32 0 M0 32 C1.65 9.56, 12.56 -1.41, 32 0" stroke="#ffffff" stroke-width="1" fill="none"></path></g><g transform="translate(913.7172479972864 444.33964289147184) rotate(0 21.869979858398438 12.5)"><text x="21.869979858398438" y="0" font-family="Virgil, Segoe UI Emoji" font-size="20px" fill="#ffffff" text-anchor="middle" style="white-space: pre;" direction="ltr" dominant-baseline="text-before-edge">Alice</text></g><g stroke-linecap="round" transform="translate(414.10401357391925 578.7296397250477) rotate(0 100 94)"><path d="M32 0 M32 0 C76.71 -2.2, 125.34 0.01, 168 0 M32 0 C80.04 0.26, 127.14 0.75, 168 0 M168 0 C188.68 -1.26, 198.29 12.05, 200 32 M168 0 C187.55 1.02, 199.73 10.96, 200 32 M200 32 C198.26 74.28, 198.02 114.37, 200 156 M200 32 C199.86 78.86, 199.77 124.81, 200 156 M200 156 C199.4 176, 189.34 188.23, 168 188 M200 156 C198.02 175.83, 190.79 186.6, 168 188 M168 188 C134.63 188.27, 104.97 188.02, 32 188 M168 188 C132.41 188.31, 96.2 188.08, 32 188 M32 188 C9.94 187.59, -0.82 177.1, 0 156 M32 188 C12.09 186.22, -1.87 176.62, 0 156 M0 156 C2.27 129.72, 2.38 101.66, 0 32 M0 156 C-0.41 113.47, -1.09 71.56, 0 32 M0 32 C0.9 10.21, 12.1 0.2, 32 0 M0 32 C-1.28 11.03, 9.3 -0.13, 32 0" stroke="#ffffff" stroke-width="1" fill="none"></path></g><g transform="translate(419.50409139374347 647.7296397250477) rotate(0 94.59992218017578 25)"><text x="94.59992218017578" y="0" font-family="Virgil, Segoe UI Emoji" font-size="20px" fill="#ffffff" text-anchor="middle" style="white-space: pre;" direction="ltr" dominant-baseline="text-before-edge">Secondary Fungible </text><text x="94.59992218017578" y="25" font-family="Virgil, Segoe UI Emoji" font-size="20px" fill="#ffffff" text-anchor="middle" style="white-space: pre;" direction="ltr" dominant-baseline="text-before-edge">Store</text></g><g transform="translate(498.7926778389656 812.4256543478534) rotate(0 16.439987182617188 12.5)"><text x="0" y="0" font-family="Virgil, Segoe UI Emoji" font-size="20px" fill="#ffffff" text-anchor="start" style="white-space: pre;" direction="ltr" dominant-baseline="text-before-edge">......</text></g><g mask="url(#mask-KfLCtpnzw6UD_vm-bgiFr)" stroke-linecap="round"><g transform="translate(618.568124066727 236.13177731988094) rotate(0 106.87544893551478 86.99299925246714)"><path d="M-0.3 -0.87 C35.54 28.04, 178.21 144.4, 214.05 173.66 M1.75 1.28 C37.47 30.33, 177.48 146.32, 212.87 174.86" stroke="#ffffff" stroke-width="1" fill="none"></path></g><g transform="translate(618.568124066727 236.13177731988094) rotate(0 106.87544893551478 86.99299925246714)"><path d="M183.1 164.21 C189.72 167.57, 197.64 167.94, 214.03 176.7 M184.8 164.1 C194.05 167.81, 205.63 171.75, 212.36 174.82" stroke="#ffffff" stroke-width="1" fill="none"></path></g><g transform="translate(618.568124066727 236.13177731988094) rotate(0 106.87544893551478 86.99299925246714)"><path d="M196.1 148.33 C199.89 155.15, 204.94 159.01, 214.03 176.7 M197.8 148.22 C202.51 157.72, 209.41 167.36, 212.36 174.82" stroke="#ffffff" stroke-width="1" fill="none"></path></g></g><mask id="mask-KfLCtpnzw6UD_vm-bgiFr"><rect x="0" y="0" fill="#fff" width="933.0553463642884" height="510.4335695342445"></rect><rect x="699.7417584088671" y="310.78267342706295" fill="#000" width="52.13995361328125" height="25" opacity="1"></rect></mask><g transform="translate(699.7417584088671 310.78267342706295) rotate(0 25.701814593374706 12.342103145285364)"><text x="26.069976806640625" y="0" font-family="Virgil, Segoe UI Emoji" font-size="20px" fill="#ffffff" text-anchor="middle" style="white-space: pre;" direction="ltr" dominant-baseline="text-before-edge">owner</text></g><g mask="url(#mask-CbIJtSE9GbE_ZbfFNAdlb)" stroke-linecap="round"><g transform="translate(619.0759161827609 462.7680972928431) rotate(0 106.45762574655987 0.16832097667065682)"><path d="M-0.13 -1.03 C35.57 -1.14, 179.05 -0.15, 214.58 -0.14 M-1.66 1.04 C33.9 1.08, 177.75 1.53, 213.93 1.32" stroke="#ffffff" stroke-width="1" fill="none"></path></g><g transform="translate(619.0759161827609 462.7680972928431) rotate(0 106.45762574655987 0.16832097667065682)"><path d="M184.03 12.56 C194.76 6.67, 202.63 2.89, 211.98 -0.64 M184.94 12.57 C195.66 8.34, 206.38 4.27, 214.47 0.4" stroke="#ffffff" stroke-width="1" fill="none"></path></g><g transform="translate(619.0759161827609 462.7680972928431) rotate(0 106.45762574655987 0.16832097667065682)"><path d="M184.02 -7.96 C194.84 -7.09, 202.72 -4.1, 211.98 -0.64 M184.93 -7.95 C195.83 -4.79, 206.56 -1.47, 214.47 0.4" stroke="#ffffff" stroke-width="1" fill="none"></path></g></g><mask id="mask-CbIJtSE9GbE_ZbfFNAdlb"><rect x="0" y="0" fill="#fff" width="933.0746144452503" height="562.7680972928431"></rect><rect x="700.0052885073651" y="450.26809729284287" fill="#000" width="52.13995361328125" height="25" opacity="1"></rect></mask><g transform="translate(700.0052885073651 450.26809729284287) rotate(0 25.528253421955696 12.668320976670657)"><text x="26.069976806640625" y="0" font-family="Virgil, Segoe UI Emoji" font-size="20px" fill="#ffffff" text-anchor="middle" style="white-space: pre;" direction="ltr" dominant-baseline="text-before-edge">owner</text></g><g mask="url(#mask-iKwZiG1QDz2u2u6xOuIZ0)" stroke-linecap="round"><g transform="translate(620.4743727274965 666.6503963738144) rotate(0 106.98841483927731 -64.21544867186617)"><path d="M-0.95 1 C34.99 -20.6, 179.2 -107.9, 214.92 -129.43 M0.76 0.48 C36.66 -20.99, 178.54 -106.47, 214.4 -128.25" stroke="#ffffff" stroke-width="1" fill="none"></path></g><g transform="translate(620.4743727274965 666.6503963738144) rotate(0 106.98841483927731 -64.21544867186617)"><path d="M197.25 -103.53 C198.99 -111.6, 205.68 -115.84, 212.64 -127.63 M196.13 -105.32 C200.03 -110.81, 205.4 -115.75, 213.48 -128.78" stroke="#ffffff" stroke-width="1" fill="none"></path></g><g transform="translate(620.4743727274965 666.6503963738144) rotate(0 106.98841483927731 -64.21544867186617)"><path d="M186.63 -121.1 C190.98 -124.81, 200.25 -124.78, 212.64 -127.63 M185.52 -122.88 C191.88 -124.31, 199.72 -125.13, 213.48 -128.78" stroke="#ffffff" stroke-width="1" fill="none"></path></g></g><mask id="mask-iKwZiG1QDz2u2u6xOuIZ0"><rect x="0" y="0" fill="#fff" width="934.5872278556849" height="895.396814454122"></rect><rect x="701.4608234849502" y="589.7771873336605" fill="#000" width="52.13995361328125" height="25" opacity="1"></rect></mask><g transform="translate(701.4608234849502 589.7771873336605) rotate(0 26.001964081823644 12.657760368287427)"><text x="26.069976806640625" y="0" font-family="Virgil, Segoe UI Emoji" font-size="20px" fill="#ffffff" text-anchor="middle" style="white-space: pre;" direction="ltr" dominant-baseline="text-before-edge">owner</text></g><g mask="url(#mask-K9q5Rp-VI47THADSHfpqN)" stroke-linecap="round"><g transform="translate(409.0641361444159 225.592468924365) rotate(0 -95.62245228708156 104.72350951298154)"><path d="M-0.42 0.75 C-32.4 35.78, -160.75 174.53, -192.8 209.35 M1.56 0.1 C-29.97 34.81, -158.59 172.77, -190.56 207.36" stroke="#ffffff" stroke-width="1" fill="none"></path></g><g transform="translate(409.0641361444159 225.592468924365) rotate(0 -95.62245228708156 104.72350951298154)"><path d="M-177.65 178.23 C-181.25 184.44, -183.32 193.73, -191.93 205.73 M-178.73 180.7 C-182.52 187.41, -185.35 195.76, -191.53 207.69" stroke="#ffffff" stroke-width="1" fill="none"></path></g><g transform="translate(409.0641361444159 225.592468924365) rotate(0 -95.62245228708156 104.72350951298154)"><path d="M-162.61 192.19 C-169.47 195.25, -174.88 201.42, -191.93 205.73 M-163.69 194.66 C-171.62 197.47, -178.59 201.98, -191.53 207.69" stroke="#ffffff" stroke-width="1" fill="none"></path></g></g><mask id="mask-K9q5Rp-VI47THADSHfpqN"><rect x="0" y="0" fill="#fff" width="700.9707111748562" height="534.6848929932914"></rect><rect x="264.3108837244106" y="317.63868095882845" fill="#000" width="97.59992980957031" height="25" opacity="1"></rect></mask><g transform="translate(264.3108837244106 317.63868095882845) rotate(0 49.13080013292375 12.677297478518312)"><text x="48.799964904785156" y="0" font-family="Virgil, Segoe UI Emoji" font-size="20px" fill="#ffffff" text-anchor="middle" style="white-space: pre;" direction="ltr" dominant-baseline="text-before-edge">metadata</text></g><g mask="url(#mask-nQoU4THLy8eunoPEdFbdl)" stroke-linecap="round"><g transform="translate(410.34613899856595 462.5583508418101) rotate(0 -99.10331417101486 -0.9265981570199529)"><path d="M-0.95 0.17 C-34.16 -0.19, -166.09 -1.57, -198.96 -2.02 M0.75 -0.79 C-32.11 -1, -163.45 -0.55, -196.74 -0.69" stroke="#ffffff" stroke-width="1" fill="none"></path></g><g transform="translate(410.34613899856595 462.5583508418101) rotate(0 -99.10331417101486 -0.9265981570199529)"><path d="M-168.27 -12.52 C-178.3 -8.1, -188.2 -3.48, -198.53 0.42 M-167.93 -9.98 C-179.94 -7.53, -189.08 -2.48, -197.08 0.23" stroke="#ffffff" stroke-width="1" fill="none"></path></g><g transform="translate(410.34613899856595 462.5583508418101) rotate(0 -99.10331417101486 -0.9265981570199529)"><path d="M-168.27 8 C-178.32 5.81, -188.23 3.82, -198.53 0.42 M-167.93 10.54 C-179.88 5.42, -189.02 2.89, -197.08 0.23" stroke="#ffffff" stroke-width="1" fill="none"></path></g></g><mask id="mask-nQoU4THLy8eunoPEdFbdl"><rect x="0" y="0" fill="#fff" width="708.3581598172605" height="564.1705851064851"></rect><rect x="262.54016368443354" y="449.2522337094729" fill="#000" width="97.59992980957031" height="25" opacity="1"></rect></mask><g transform="translate(262.54016368443354 449.2522337094724) rotate(0 48.70266114311755 12.379518975317524)"><text x="48.799964904785156" y="0" font-family="Virgil, Segoe UI Emoji" font-size="20px" fill="#ffffff" text-anchor="middle" style="white-space: pre;" direction="ltr" dominant-baseline="text-before-edge">metadata</text></g><g mask="url(#mask-MvX0Gj45Mm1TqvhV55OhG)" stroke-linecap="round"><g transform="translate(408.6295629165613 682.2035668438241) rotate(0 -96.215445472076 -79.71972105013288)"><path d="M1.1 -0.53 C-30.83 -27.44, -160.41 -134.51, -192.52 -161.25 M0.21 1.81 C-31.79 -24.95, -161.5 -132.95, -193.53 -159.86" stroke="#ffffff" stroke-width="1" fill="none"></path></g><g transform="translate(408.6295629165613 682.2035668438241) rotate(0 -96.215445472076 -79.71972105013288)"><path d="M-166.2 -149.83 C-171.94 -150.25, -177.62 -152.29, -193.33 -159.16 M-165.73 -149.49 C-177.12 -152.54, -187.49 -157.47, -193.66 -160.54" stroke="#ffffff" stroke-width="1" fill="none"></path></g><g transform="translate(408.6295629165613 682.2035668438241) rotate(0 -96.215445472076 -79.71972105013288)"><path d="M-179.36 -134.09 C-182.27 -138.05, -185.09 -143.51, -193.33 -159.16 M-178.89 -133.74 C-185.03 -143.18, -190.16 -154.37, -193.66 -160.54" stroke="#ffffff" stroke-width="1" fill="none"></path></g></g><mask id="mask-MvX0Gj45Mm1TqvhV55OhG"><rect x="0" y="0" fill="#fff" width="701.0392779926212" height="943.1703807333349"></rect><rect x="263.6247404737462" y="589.2201598990687" fill="#000" width="97.59992980957031" height="25" opacity="1"></rect></mask><g transform="translate(263.6247404737462 589.2201598990687) rotate(0 48.78937697073911 13.263685894622313)"><text x="48.799964904785156" y="0" font-family="Virgil, Segoe UI Emoji" font-size="20px" fill="#ffffff" text-anchor="middle" style="white-space: pre;" direction="ltr" dominant-baseline="text-before-edge">metadata</text></g><g stroke-linecap="round" transform="translate(402.3045510759207 106.65511679804717) rotate(0 111.63926109267459 385.78872836400524)"><path d="M32 0 M32 0 C93.95 -0.28, 154.1 0.36, 191.28 0 M191.28 0 C212.4 -1.93, 222.51 9.68, 223.28 32 M223.28 32 C224.58 253.38, 224.29 475.64, 223.28 739.58 M223.28 739.58 C225.08 761.23, 212.22 769.95, 191.28 771.58 M191.28 771.58 C151.01 771.64, 110.55 769.58, 32 771.58 M32 771.58 C9.86 772.65, 1.27 759.9, 0 739.58 M0 739.58 C-0.98 493.68, -1.19 247.32, 0 32 M0 32 C1.3 10.29, 8.97 1.55, 32 0" stroke="#ffffff" stroke-width="1.5" fill="none" stroke-dasharray="8 9"></path></g><g stroke-linecap="round"><g transform="translate(523.0319236889115 133.67538900014574) rotate(0 40.83868645964924 -49.200764889379)"><path d="M0.36 -0.96 C14.07 -17.33, 68.09 -81.39, 81.32 -97.44" stroke="#ffffff" stroke-width="1.5" fill="none" stroke-dasharray="1.5 7"></path></g></g><mask></mask><g transform="translate(613.9901112159198 10) rotate(0 303.06976318359375 12.5)"><text x="0" y="0" font-family="Virgil, Segoe UI Emoji" font-size="20px" fill="#ffffff" text-anchor="start" style="white-space: pre;" direction="ltr" dominant-baseline="text-before-edge">address: sha256(alice_address | metadata_address | 0xFC)</text></g></svg>