<svg xmlns="http://www.w3.org/2000/svg" xmlns:xlink="http://www.w3.org/1999/xlink" xmlns:lucid="lucid" width="660" height="930.07"><g transform="translate(-320 -231.6)" lucid:page-tab-id="m-5o7ONTd-nK"><path d="M340 259.6a8 8 0 0 1 8-8h324a8 8 0 0 1 8 8V312a8 8 0 0 1-8 8H348a8 8 0 0 1-8-8z" stroke="#54c45e" fill-opacity="0"/><use xlink:href="#a" transform="matrix(1,0,0,1,352,263.6) translate(9.804320987654336 26.393055555555552)"/><use xlink:href="#b" transform="matrix(1,0,0,1,352,263.6) translate(69.59382716049383 26.393055555555552)"/><use xlink:href="#c" transform="matrix(1,0,0,1,352,263.6) translate(107.00123456790124 26.393055555555552)"/><use xlink:href="#d" transform="matrix(1,0,0,1,352,263.6) translate(166.79074074074074 26.393055555555552)"/><path d="M340 359.07a8 8 0 0 1 8-8h324a8 8 0 0 1 8 8V402a8 8 0 0 1-8 8H348a8 8 0 0 1-8-8z" stroke="#54c45e" fill-opacity="0"/><use xlink:href="#e" transform="matrix(1,0,0,1,352,363.0666666666667) translate(70.77839506172842 22.330555555555552)"/><use xlink:href="#b" transform="matrix(1,0,0,1,352,363.0666666666667) translate(146.71543209876543 22.330555555555552)"/><use xlink:href="#f" transform="matrix(1,0,0,1,352,363.0666666666667) translate(184.12283950617282 22.330555555555552)"/><path d="M510 320.95v13.28" stroke="#54c45e" fill="none"/><path d="M510.5 320.96h-1v-.5h1z" stroke="#54c45e" stroke-width=".05" fill="#54c45e"/><path d="M510 349l-4.64-14.27h9.28z" stroke="#54c45e" fill="#54c45e"/><path d="M510 602.02v22.2" stroke="#54c45e" fill="none"/><path d="M510.5 602.03h-1v-.5h1z" stroke="#54c45e" stroke-width=".05" fill="#54c45e"/><path d="M510 639l-4.64-14.27h9.28z" stroke="#54c45e" fill="#54c45e"/><path d="M510 505.95v18.28" stroke="#54c45e" fill="none"/><path d="M510.5 505.96h-1v-.5h1z" stroke="#54c45e" stroke-width=".05" fill="#54c45e"/><path d="M510 539l-4.64-14.27h9.28z" stroke="#54c45e" fill="#54c45e"/><path d="M510 410.95v18.28" stroke="#54c45e" fill="none"/><path d="M510.5 410.96h-1v-.5h1z" stroke="#54c45e" stroke-width=".05" fill="#54c45e"/><path d="M510 444l-4.64-14.27h9.28z" stroke="#54c45e" fill="#54c45e"/><path d="M340 454.07a8 8 0 0 1 8-8h324a8 8 0 0 1 8 8V497a8 8 0 0 1-8 8H348a8 8 0 0 1-8-8z" stroke="#54c45e" fill-opacity="0"/><use xlink:href="#g" transform="matrix(1,0,0,1,352,458.06666666666666) translate(15.976543209876581 22.330555555555552)"/><use xlink:href="#h" transform="matrix(1,0,0,1,352,458.06666666666666) translate(55.87777777777781 22.330555555555552)"/><use xlink:href="#i" transform="matrix(1,0,0,1,352,458.06666666666666) translate(105.691975308642 22.330555555555552)"/><use xlink:href="#j" transform="matrix(1,0,0,1,352,458.06666666666666) translate(173.0253086419753 22.330555555555552)"/><use xlink:href="#k" transform="matrix(1,0,0,1,352,458.06666666666666) translate(196.6543209876543 22.330555555555552)"/><use xlink:href="#l" transform="matrix(1,0,0,1,352,458.06666666666666) translate(243.97469135802467 22.330555555555552)"/><path d="M340 549.07a8 8 0 0 1 8-8h324a8 8 0 0 1 8 8v44a8 8 0 0 1-8 8H348a8 8 0 0 1-8-8z" stroke="#54c45e" fill-opacity="0"/><use xlink:href="#m" transform="matrix(1,0,0,1,352,553.0666666666666) translate(39.356172839506186 22.455555555555552)"/><use xlink:href="#n" transform="matrix(1,0,0,1,352,553.0666666666666) translate(110.30555555555556 22.455555555555552)"/><path d="M340 649.07a8 8 0 0 1 8-8h324a8 8 0 0 1 8 8v44a8 8 0 0 1-8 8H348a8 8 0 0 1-8-8z" stroke="#54c45e" fill-opacity="0"/><use xlink:href="#o" transform="matrix(1,0,0,1,352,653.0666666666666) translate(6.001234567901264 22.455555555555552)"/><use xlink:href="#b" transform="matrix(1,0,0,1,352,653.0666666666666) translate(65.79074074074076 22.455555555555552)"/><use xlink:href="#p" transform="matrix(1,0,0,1,352,653.0666666666666) translate(103.19814814814816 22.455555555555552)"/><use xlink:href="#q" transform="matrix(1,0,0,1,352,653.0666666666666) translate(174.14753086419753 22.455555555555552)"/><use xlink:href="#h" transform="matrix(1,0,0,1,352,653.0666666666666) translate(199.0858024691358 22.455555555555552)"/><use xlink:href="#f" transform="matrix(1,0,0,1,352,653.0666666666666) translate(248.9 22.455555555555552)"/><path d="M510 819.88v103.3" stroke="#54c45e" fill="none"/><path d="M510.5 819.9h-1v-.52h1z" stroke="#54c45e" stroke-width=".05" fill="#54c45e"/><path d="M510 937.93l-4.64-14.26h9.28z" stroke="#54c45e" fill="#54c45e"/><path d="M510 702.02v40.08" stroke="#54c45e" fill="none"/><path d="M510.5 702.03h-1v-.5h1z" stroke="#54c45e" stroke-width=".05" fill="#54c45e"/><path d="M510 756.86l-4.64-14.26h9.28z" stroke="#54c45e" fill="#54c45e"/><path d="M700 551.03a8 8 0 0 1 8-8h244a8 8 0 0 1 8 8v44a8 8 0 0 1-8 8H708a8 8 0 0 1-8-8z" stroke="#000" stroke-opacity="0" fill-opacity="0"/><use xlink:href="#r" transform="matrix(1,0,0,1,705,548.0333333333333) translate(0 29.847222222222214)"/><use xlink:href="#s" transform="matrix(1,0,0,1,705,548.0333333333333) translate(43.30864197530862 29.847222222222214)"/><use xlink:href="#t" transform="matrix(1,0,0,1,705,548.0333333333333) translate(67.99999999999996 29.847222222222214)"/><path d="M340 766.93a8 8 0 0 1 8-8h324a8 8 0 0 1 8 8v44a8 8 0 0 1-8 8H348a8 8 0 0 1-8-8z" stroke="#54c45e" fill-opacity="0"/><g><use xlink:href="#u" transform="matrix(1,0,0,1,352,770.9333333333333) translate(27.10524691358026 22.455555555555552)"/><use xlink:href="#v" transform="matrix(1,0,0,1,352,770.9333333333333) translate(81.7824074074074 22.455555555555552)"/><use xlink:href="#w" transform="matrix(1,0,0,1,352,770.9333333333333) translate(112.95524691358024 22.455555555555552)"/><use xlink:href="#x" transform="matrix(1,0,0,1,352,770.9333333333333) translate(224.17993827160493 22.455555555555552)"/></g><path d="M700 749.27a8 8 0 0 1 8-8h164a8 8 0 0 1 8 8v79.33a8 8 0 0 1-8 8H708a8 8 0 0 1-8-8z" stroke="#000" stroke-opacity="0" fill-opacity="0"/><g><use xlink:href="#y" transform="matrix(1,0,0,1,705,746.2666666666667) translate(0 16.909722222222214)"/><use xlink:href="#z" transform="matrix(1,0,0,1,705,746.2666666666667) translate(50.37037037037034 16.909722222222214)"/><use xlink:href="#A" transform="matrix(1,0,0,1,705,746.2666666666667) translate(97.72839506172834 16.909722222222214)"/><use xlink:href="#B" transform="matrix(1,0,0,1,705,746.2666666666667) translate(0 38.243055555555536)"/><use xlink:href="#C" transform="matrix(1,0,0,1,705,746.2666666666667) translate(71.0123456790123 38.243055555555536)"/><use xlink:href="#D" transform="matrix(1,0,0,1,705,746.2666666666667) translate(100.44444444444439 38.243055555555536)"/><use xlink:href="#E" transform="matrix(1,0,0,1,705,746.2666666666667) translate(0 59.57638888888886)"/><use xlink:href="#F" transform="matrix(1,0,0,1,705,746.2666666666667) translate(29.629629629629612 59.57638888888886)"/><use xlink:href="#G" transform="matrix(1,0,0,1,705,746.2666666666667) translate(82.91358024691354 59.57638888888886)"/><use xlink:href="#H" transform="matrix(1,0,0,1,705,746.2666666666667) translate(102.66666666666661 59.57638888888886)"/><use xlink:href="#I" transform="matrix(1,0,0,1,705,746.2666666666667) translate(0 80.90972222222219)"/><use xlink:href="#J" transform="matrix(1,0,0,1,705,746.2666666666667) translate(53.3333333333333 80.90972222222219)"/><use xlink:href="#K" transform="matrix(1,0,0,1,705,746.2666666666667) translate(72.04938271604934 80.90972222222219)"/><use xlink:href="#L" transform="matrix(1,0,0,1,705,746.2666666666667) translate(106.51851851851845 80.90972222222219)"/></g><path d="M340 948a8 8 0 0 1 8-8h324a8 8 0 0 1 8 8v32.93a8 8 0 0 1-8 8H348a8 8 0 0 1-8-8z" stroke="#54c45e" fill-opacity="0"/><g><use xlink:href="#M" transform="matrix(1,0,0,1,352,952) translate(26.544135802469157 19.518055555555552)"/><use xlink:href="#N" transform="matrix(1,0,0,1,352,952) translate(134.33981481481482 19.518055555555552)"/></g><path d="M540 848a8 8 0 0 1 8-8h124a8 8 0 0 1 8 8v44a8 8 0 0 1-8 8H548a8 8 0 0 1-8-8z" stroke="#000" stroke-opacity="0" fill-opacity="0"/><g><use xlink:href="#O" transform="matrix(1,0,0,1,545,845) translate(0 14.222222222222214)"/><use xlink:href="#P" transform="matrix(1,0,0,1,545,845) translate(14.814814814814806 14.222222222222214)"/><use xlink:href="#Q" transform="matrix(1,0,0,1,545,845) translate(54.27160493827158 14.222222222222214)"/><use xlink:href="#R" transform="matrix(1,0,0,1,545,845) translate(0 35.555555555555536)"/><use xlink:href="#S" transform="matrix(1,0,0,1,545,845) translate(42.46913580246911 35.555555555555536)"/><use xlink:href="#T" transform="matrix(1,0,0,1,545,845) translate(0 56.88888888888886)"/></g><path d="M700 928a8 8 0 0 1 8-8h244a8 8 0 0 1 8 8v44a8 8 0 0 1-8 8H708a8 8 0 0 1-8-8z" stroke="#000" stroke-opacity="0" fill-opacity="0"/><g><use xlink:href="#r" transform="matrix(1,0,0,1,705,925) translate(0 29.847222222222214)"/><use xlink:href="#s" transform="matrix(1,0,0,1,705,925) translate(43.30864197530862 29.847222222222214)"/><use xlink:href="#U" transform="matrix(1,0,0,1,705,925) translate(67.99999999999996 29.847222222222214)"/></g><path d="M510 989.88v71.62" stroke="#54c45e" fill="none"/><path d="M510.5 989.9h-1v-.52h1z" stroke="#54c45e" stroke-width=".05" fill="#54c45e"/><path d="M510 1076.26l-4.64-14.26h9.28z" stroke="#54c45e" fill="#54c45e"/><path d="M400 1086.33a8 8 0 0 1 8-8h204a8 8 0 0 1 8 8v47.34a8 8 0 0 1-8 8H408a8 8 0 0 1-8-8z" stroke="#fff" fill-opacity="0"/><g><use xlink:href="#V" transform="matrix(1,0,0,1,405,1083.3333333333333) translate(14.950617283950677 20.972222222222214)"/><use xlink:href="#W" transform="matrix(1,0,0,1,405,1083.3333333333333) translate(55.00000000000003 20.972222222222214)"/><use xlink:href="#E" transform="matrix(1,0,0,1,405,1083.3333333333333) translate(80.62962962962965 20.972222222222214)"/><use xlink:href="#X" transform="matrix(1,0,0,1,405,1083.3333333333333) translate(110.25925925925925 20.972222222222214)"/><use xlink:href="#Y" transform="matrix(1,0,0,1,405,1083.3333333333333) translate(62.086419753086446 42.305555555555536)"/><use xlink:href="#Z" transform="matrix(1,0,0,1,405,1083.3333333333333) translate(102.48148148148148 42.305555555555536)"/></g><path d="M700 330.73a8 8 0 0 1 8-8h164a8 8 0 0 1 8 8V431.4a8 8 0 0 1-8 8H708a8 8 0 0 1-8-8z" stroke="#000" stroke-opacity="0" fill-opacity="0"/><g><use xlink:href="#aa" transform="matrix(1,0,0,1,705,327.7333333333333) translate(0 24.253472222222214)"/><use xlink:href="#ab" transform="matrix(1,0,0,1,705,327.7333333333333) translate(16.148148148148138 24.253472222222214)"/><use xlink:href="#ac" transform="matrix(1,0,0,1,705,327.7333333333333) translate(88.09876543209872 24.253472222222214)"/><use xlink:href="#ad" transform="matrix(1,0,0,1,705,327.7333333333333) translate(132.54320987654313 24.253472222222214)"/><use xlink:href="#ae" transform="matrix(1,0,0,1,705,327.7333333333333) translate(0 45.586805555555536)"/><use xlink:href="#af" transform="matrix(1,0,0,1,705,327.7333333333333) translate(14.814814814814806 45.586805555555536)"/><use xlink:href="#ag" transform="matrix(1,0,0,1,705,327.7333333333333) translate(86.76543209876539 45.586805555555536)"/><use xlink:href="#ah" transform="matrix(1,0,0,1,705,327.7333333333333) translate(0 66.92013888888886)"/><use xlink:href="#ai" transform="matrix(1,0,0,1,705,327.7333333333333) translate(30.567901234567884 66.92013888888886)"/><use xlink:href="#aj" transform="matrix(1,0,0,1,705,327.7333333333333) translate(100.54320987654314 66.92013888888886)"/><use xlink:href="#ak" transform="matrix(1,0,0,1,705,327.7333333333333) translate(0 88.25347222222219)"/></g><defs><path fill="#fff" d="M233-177c-1 41-23 64-60 70L243 0h-38l-65-103H63V0H30v-248c88 3 205-21 203 71zM63-129c60-2 137 13 137-47 0-61-80-42-137-45v92" id="al"/><path fill="#fff" d="M100-194c63 0 86 42 84 106H49c0 40 14 67 53 68 26 1 43-12 49-29l28 8c-11 28-37 45-77 45C44 4 14-33 15-96c1-61 26-98 85-98zm52 81c6-60-76-77-97-28-3 7-6 17-6 28h103" id="am"/><path fill="#fff" d="M141-36C126-15 110 5 73 4 37 3 15-17 15-53c-1-64 63-63 125-63 3-35-9-54-41-54-24 1-41 7-42 31l-33-3c5-37 33-52 76-52 45 0 72 20 72 64v82c-1 20 7 32 28 27v20c-31 9-61-2-59-35zM48-53c0 20 12 33 32 33 41-3 63-29 60-74-43 2-92-5-92 41" id="an"/><path fill="#fff" d="M85-194c31 0 48 13 60 33l-1-100h32l1 261h-30c-2-10 0-23-3-31C134-8 116 4 85 4 32 4 16-35 15-94c0-66 23-100 70-100zm9 24c-40 0-46 34-46 75 0 40 6 74 45 74 42 0 51-32 51-76 0-42-9-74-50-73" id="ao"/><g id="a"><use transform="matrix(0.06234567901234567,0,0,0.06234567901234567,0,0)" xlink:href="#al"/><use transform="matrix(0.06234567901234567,0,0,0.06234567901234567,16.147530864197527,0)" xlink:href="#am"/><use transform="matrix(0.06234567901234567,0,0,0.06234567901234567,28.61666666666666,0)" xlink:href="#an"/><use transform="matrix(0.06234567901234567,0,0,0.06234567901234567,41.08580246913579,0)" xlink:href="#ao"/></g><path fill="#fff" d="M59-47c-2 24 18 29 38 22v24C64 9 27 4 27-40v-127H5v-23h24l9-43h21v43h35v23H59v120" id="ap"/><path fill="#fff" d="M106-169C34-169 62-67 57 0H25v-261h32l-1 103c12-21 28-36 61-36 89 0 53 116 60 194h-32v-121c2-32-8-49-39-48" id="aq"/><g id="b"><use transform="matrix(0.06234567901234567,0,0,0.06234567901234567,0,0)" xlink:href="#ap"/><use transform="matrix(0.06234567901234567,0,0,0.06234567901234567,6.234567901234566,0)" xlink:href="#aq"/><use transform="matrix(0.06234567901234567,0,0,0.06234567901234567,18.7037037037037,0)" xlink:href="#am"/></g><path fill="#fff" d="M190 0L58-211 59 0H30v-248h39L202-35l-2-213h31V0h-41" id="ar"/><path fill="#fff" d="M100-194c62-1 85 37 85 99 1 63-27 99-86 99S16-35 15-95c0-66 28-99 85-99zM99-20c44 1 53-31 53-75 0-43-8-75-51-75s-53 32-53 75 10 74 51 75" id="as"/><g id="c"><use transform="matrix(0.06234567901234567,0,0,0.06234567901234567,0,0)" xlink:href="#ar"/><use transform="matrix(0.06234567901234567,0,0,0.06234567901234567,16.147530864197527,0)" xlink:href="#as"/><use transform="matrix(0.06234567901234567,0,0,0.06234567901234567,28.61666666666666,0)" xlink:href="#ao"/><use transform="matrix(0.06234567901234567,0,0,0.06234567901234567,41.08580246913579,0)" xlink:href="#am"/></g><path fill="#fff" d="M145-31C134-9 116 4 85 4 32 4 16-35 15-94c0-59 17-99 70-100 32-1 48 14 60 33 0-11-1-24 2-32h30l-1 268h-32zM93-21c41 0 51-33 51-76s-8-73-50-73c-40 0-46 35-46 75s5 74 45 74" id="at"/><path fill="#fff" d="M84 4C-5 8 30-112 23-190h32v120c0 31 7 50 39 49 72-2 45-101 50-169h31l1 190h-30c-1-10 1-25-2-33-11 22-28 36-60 37" id="au"/><path fill="#fff" d="M24-231v-30h32v30H24zM24 0v-190h32V0H24" id="av"/><path fill="#fff" d="M114-163C36-179 61-72 57 0H25l-1-190h30c1 12-1 29 2 39 6-27 23-49 58-41v29" id="aw"/><path fill="#fff" d="M210-169c-67 3-38 105-44 169h-31v-121c0-29-5-50-35-48C34-165 62-65 56 0H25l-1-190h30c1 10-1 24 2 32 10-44 99-50 107 0 11-21 27-35 58-36 85-2 47 119 55 194h-31v-121c0-29-5-49-35-48" id="ax"/><path fill="#fff" d="M117-194c89-4 53 116 60 194h-32v-121c0-31-8-49-39-48C34-167 62-67 57 0H25l-1-190h30c1 10-1 24 2 32 11-22 29-35 61-36" id="ay"/><path fill="#fff" d="M135-143c-3-34-86-38-87 0 15 53 115 12 119 90S17 21 10-45l28-5c4 36 97 45 98 0-10-56-113-15-118-90-4-57 82-63 122-42 12 7 21 19 24 35" id="az"/><g id="d"><use transform="matrix(0.06234567901234567,0,0,0.06234567901234567,0,0)" xlink:href="#al"/><use transform="matrix(0.06234567901234567,0,0,0.06234567901234567,16.147530864197527,0)" xlink:href="#am"/><use transform="matrix(0.06234567901234567,0,0,0.06234567901234567,28.61666666666666,0)" xlink:href="#at"/><use transform="matrix(0.06234567901234567,0,0,0.06234567901234567,41.08580246913579,0)" xlink:href="#au"/><use transform="matrix(0.06234567901234567,0,0,0.06234567901234567,53.554938271604925,0)" xlink:href="#av"/><use transform="matrix(0.06234567901234567,0,0,0.06234567901234567,58.48024691358023,0)" xlink:href="#aw"/><use transform="matrix(0.06234567901234567,0,0,0.06234567901234567,65.89938271604936,0)" xlink:href="#am"/><use transform="matrix(0.06234567901234567,0,0,0.06234567901234567,78.3685185185185,0)" xlink:href="#ax"/><use transform="matrix(0.06234567901234567,0,0,0.06234567901234567,97.00987654320986,0)" xlink:href="#am"/><use transform="matrix(0.06234567901234567,0,0,0.06234567901234567,109.479012345679,0)" xlink:href="#ay"/><use transform="matrix(0.06234567901234567,0,0,0.06234567901234567,121.94814814814814,0)" xlink:href="#ap"/><use transform="matrix(0.06234567901234567,0,0,0.06234567901234567,128.1827160493827,0)" xlink:href="#az"/></g><path fill="#fff" d="M30-248c118-7 216 8 213 122C240-48 200 0 122 0H30v-248zM63-27c89 8 146-16 146-99s-60-101-146-95v194" id="aA"/><path fill="#fff" d="M115-194c55 1 70 41 70 98S169 2 115 4C84 4 66-9 55-30l1 105H24l-1-265h31l2 30c10-21 28-34 59-34zm-8 174c40 0 45-34 45-75s-6-73-45-74c-42 0-51 32-51 76 0 43 10 73 51 73" id="aB"/><path fill="#fff" d="M24 0v-261h32V0H24" id="aC"/><path fill="#fff" d="M179-190L93 31C79 59 56 82 12 73V49c39 6 53-20 64-50L1-190h34L92-34l54-156h33" id="aD"/><g id="e"><use transform="matrix(0.06234567901234567,0,0,0.06234567901234567,0,0)" xlink:href="#aA"/><use transform="matrix(0.06234567901234567,0,0,0.06234567901234567,16.147530864197527,0)" xlink:href="#am"/><use transform="matrix(0.06234567901234567,0,0,0.06234567901234567,28.61666666666666,0)" xlink:href="#aB"/><use transform="matrix(0.06234567901234567,0,0,0.06234567901234567,41.08580246913579,0)" xlink:href="#aC"/><use transform="matrix(0.06234567901234567,0,0,0.06234567901234567,46.0111111111111,0)" xlink:href="#as"/><use transform="matrix(0.06234567901234567,0,0,0.06234567901234567,58.48024691358023,0)" xlink:href="#aD"/></g><g id="f"><use transform="matrix(0.06234567901234567,0,0,0.06234567901234567,0,0)" xlink:href="#ay"/><use transform="matrix(0.06234567901234567,0,0,0.06234567901234567,12.469135802469133,0)" xlink:href="#as"/><use transform="matrix(0.06234567901234567,0,0,0.06234567901234567,24.938271604938265,0)" xlink:href="#ao"/><use transform="matrix(0.06234567901234567,0,0,0.06234567901234567,37.4074074074074,0)" xlink:href="#am"/><use transform="matrix(0.06234567901234567,0,0,0.06234567901234567,49.87654320987653,0)" xlink:href="#az"/></g><path fill="#fff" d="M185-189c-5-48-123-54-124 2 14 75 158 14 163 119 3 78-121 87-175 55-17-10-28-26-33-46l33-7c5 56 141 63 141-1 0-78-155-14-162-118-5-82 145-84 179-34 5 7 8 16 11 25" id="aE"/><g id="g"><use transform="matrix(0.06234567901234567,0,0,0.06234567901234567,0,0)" xlink:href="#aE"/><use transform="matrix(0.06234567901234567,0,0,0.06234567901234567,14.96296296296296,0)" xlink:href="#am"/><use transform="matrix(0.06234567901234567,0,0,0.06234567901234567,27.432098765432094,0)" xlink:href="#ap"/></g><g id="h"><use transform="matrix(0.06234567901234567,0,0,0.06234567901234567,0,0)" xlink:href="#aD"/><use transform="matrix(0.06234567901234567,0,0,0.06234567901234567,11.22222222222222,0)" xlink:href="#as"/><use transform="matrix(0.06234567901234567,0,0,0.06234567901234567,23.691358024691354,0)" xlink:href="#au"/><use transform="matrix(0.06234567901234567,0,0,0.06234567901234567,36.16049382716049,0)" xlink:href="#aw"/></g><g id="i"><use transform="matrix(0.06234567901234567,0,0,0.06234567901234567,0,0)" xlink:href="#ay"/><use transform="matrix(0.06234567901234567,0,0,0.06234567901234567,12.469135802469133,0)" xlink:href="#as"/><use transform="matrix(0.06234567901234567,0,0,0.06234567901234567,24.938271604938265,0)" xlink:href="#ao"/><use transform="matrix(0.06234567901234567,0,0,0.06234567901234567,37.4074074074074,0)" xlink:href="#am"/><use transform="matrix(0.06234567901234567,0,0,0.06234567901234567,49.87654320987653,0)" xlink:href="#az"/></g><g id="j"><use transform="matrix(0.06234567901234567,0,0,0.06234567901234567,0,0)" xlink:href="#av"/><use transform="matrix(0.06234567901234567,0,0,0.06234567901234567,4.925308641975308,0)" xlink:href="#ay"/></g><path fill="#fff" d="M127-220V0H93v-220H8v-28h204v28h-85" id="aF"/><g id="k"><use transform="matrix(0.06234567901234567,0,0,0.06234567901234567,0,0)" xlink:href="#aF"/><use transform="matrix(0.06234567901234567,0,0,0.06234567901234567,11.159876543209876,0)" xlink:href="#am"/><use transform="matrix(0.06234567901234567,0,0,0.06234567901234567,23.62901234567901,0)" xlink:href="#az"/><use transform="matrix(0.06234567901234567,0,0,0.06234567901234567,34.85123456790123,0)" xlink:href="#ap"/></g><g id="l"><use transform="matrix(0.06234567901234567,0,0,0.06234567901234567,0,0)" xlink:href="#ax"/><use transform="matrix(0.06234567901234567,0,0,0.06234567901234567,18.641358024691353,0)" xlink:href="#as"/><use transform="matrix(0.06234567901234567,0,0,0.06234567901234567,31.110493827160486,0)" xlink:href="#ao"/><use transform="matrix(0.06234567901234567,0,0,0.06234567901234567,43.57962962962962,0)" xlink:href="#am"/></g><path fill="#fff" d="M140-251c81 0 123 46 123 126C263-46 219 4 140 4 59 4 17-45 17-125s42-126 123-126zm0 227c63 0 89-41 89-101s-29-99-89-99c-61 0-89 39-89 99S79-25 140-24" id="aG"/><path fill="#fff" d="M30 0v-248h187v28H63v79h144v27H63v87h162V0H30" id="aH"/><g id="m"><use transform="matrix(0.06234567901234567,0,0,0.06234567901234567,0,0)" xlink:href="#ar"/><use transform="matrix(0.06234567901234567,0,0,0.06234567901234567,16.147530864197527,0)" xlink:href="#aG"/><use transform="matrix(0.06234567901234567,0,0,0.06234567901234567,33.60432098765432,0)" xlink:href="#aA"/><use transform="matrix(0.06234567901234567,0,0,0.06234567901234567,49.751851851851846,0)" xlink:href="#aH"/></g><path fill="#fff" d="M143 4C61 4 22-44 18-125c-5-107 100-154 193-111 17 8 29 25 37 43l-32 9c-13-25-37-40-76-40-61 0-88 39-88 99 0 61 29 100 91 101 35 0 62-11 79-27v-45h-74v-28h105v86C228-13 192 4 143 4" id="aI"/><path fill="#fff" d="M33 0v-248h34V0H33" id="aJ"/><path fill="#fff" d="M205 0l-28-72H64L36 0H1l101-248h38L239 0h-34zm-38-99l-47-123c-12 45-31 82-46 123h93" id="aK"/><g id="n"><use transform="matrix(0.06234567901234567,0,0,0.06234567901234567,0,0)" xlink:href="#al"/><use transform="matrix(0.06234567901234567,0,0,0.06234567901234567,16.147530864197527,0)" xlink:href="#aH"/><use transform="matrix(0.06234567901234567,0,0,0.06234567901234567,31.11049382716049,0)" xlink:href="#aI"/><use transform="matrix(0.06234567901234567,0,0,0.06234567901234567,48.56728395061728,0)" xlink:href="#aJ"/><use transform="matrix(0.06234567901234567,0,0,0.06234567901234567,54.80185185185185,0)" xlink:href="#aE"/><use transform="matrix(0.06234567901234567,0,0,0.06234567901234567,69.76481481481481,0)" xlink:href="#aF"/><use transform="matrix(0.06234567901234567,0,0,0.06234567901234567,83.41851851851851,0)" xlink:href="#al"/><use transform="matrix(0.06234567901234567,0,0,0.06234567901234567,99.56604938271605,0)" xlink:href="#aK"/><use transform="matrix(0.06234567901234567,0,0,0.06234567901234567,112.84567901234567,0)" xlink:href="#aF"/><use transform="matrix(0.06234567901234567,0,0,0.06234567901234567,126.49938271604937,0)" xlink:href="#aJ"/><use transform="matrix(0.06234567901234567,0,0,0.06234567901234567,132.73395061728394,0)" xlink:href="#aG"/><use transform="matrix(0.06234567901234567,0,0,0.06234567901234567,150.19074074074072,0)" xlink:href="#ar"/></g><g id="o"><use transform="matrix(0.06234567901234567,0,0,0.06234567901234567,0,0)" xlink:href="#aH"/><use transform="matrix(0.06234567901234567,0,0,0.06234567901234567,14.96296296296296,0)" xlink:href="#ay"/><use transform="matrix(0.06234567901234567,0,0,0.06234567901234567,27.432098765432094,0)" xlink:href="#ap"/><use transform="matrix(0.06234567901234567,0,0,0.06234567901234567,33.66666666666666,0)" xlink:href="#am"/><use transform="matrix(0.06234567901234567,0,0,0.06234567901234567,46.13580246913579,0)" xlink:href="#aw"/></g><g id="p"><use transform="matrix(0.06234567901234567,0,0,0.06234567901234567,0,0)" xlink:href="#ao"/><use transform="matrix(0.06234567901234567,0,0,0.06234567901234567,12.469135802469133,0)" xlink:href="#am"/><use transform="matrix(0.06234567901234567,0,0,0.06234567901234567,24.938271604938265,0)" xlink:href="#ap"/><use transform="matrix(0.06234567901234567,0,0,0.06234567901234567,31.17283950617283,0)" xlink:href="#an"/><use transform="matrix(0.06234567901234567,0,0,0.06234567901234567,43.64197530864196,0)" xlink:href="#av"/><use transform="matrix(0.06234567901234567,0,0,0.06234567901234567,48.567283950617266,0)" xlink:href="#aC"/><use transform="matrix(0.06234567901234567,0,0,0.06234567901234567,53.49259259259257,0)" xlink:href="#az"/></g><path fill="#fff" d="M101-234c-31-9-42 10-38 44h38v23H63V0H32v-167H5v-23h27c-7-52 17-82 69-68v24" id="aL"/><g id="q"><use transform="matrix(0.06234567901234567,0,0,0.06234567901234567,0,0)" xlink:href="#as"/><use transform="matrix(0.06234567901234567,0,0,0.06234567901234567,12.469135802469133,0)" xlink:href="#aL"/></g><path fill="#fff" d="M125-24c46 0 70-25 89-51l25 16C214-24 183 4 123 4 8 4-5-146 60-208c32-50 158-61 191-5 5 7 9 14 11 22l-32 10c-9-28-33-43-69-43-74 0-108 51-108 125 0 46 24 75 72 75" id="aM"/><path fill="#fff" d="M6 0l50-261h32L37 0H6" id="aN"/><path fill="#fff" d="M50-231l6-30h32l-6 30H50zM6 0l37-190h31L37 0H6" id="aO"/><path fill="#fff" d="M44-68c0 29 11 47 38 47 30 0 42-19 51-41l28 9C148-21 126 4 82 4 31 4 10-29 12-85c3-77 74-140 146-93 12 8 15 23 18 40l-31 5c-1-22-13-36-36-36-52 0-65 49-65 101" id="aP"/><path fill="#fff" d="M127 0L80-88 50-66 37 0H6l51-261h31L57-100l99-90h39l-93 82L161 0h-34" id="aQ"/><g id="r"><use transform="matrix(0.049382716049382686,0,0,0.049382716049382686,0,0)" xlink:href="#aM"/><use transform="matrix(0.049382716049382686,0,0,0.049382716049382686,12.790123456790116,0)" xlink:href="#aN"/><use transform="matrix(0.049382716049382686,0,0,0.049382716049382686,16.691358024691347,0)" xlink:href="#aO"/><use transform="matrix(0.049382716049382686,0,0,0.049382716049382686,20.59259259259258,0)" xlink:href="#aP"/><use transform="matrix(0.049382716049382686,0,0,0.049382716049382686,29.48148148148147,0)" xlink:href="#aQ"/></g><path fill="#fff" d="M30-147c31-64 166-65 159 27C183-49 158 1 86 4 9 8 1-88 30-147zM88-20c53 0 68-48 68-100 0-31-11-51-44-50-52 1-68 46-68 97 0 32 13 53 44 53" id="aR"/><path fill="#fff" d="M67-158c22-48 132-52 116 29L158 0h-32l25-140c3-38-53-32-70-12C52-117 51-52 38 0H6l36-190h30" id="aS"/><g id="s"><use transform="matrix(0.049382716049382686,0,0,0.049382716049382686,0,0)" xlink:href="#aR"/><use transform="matrix(0.049382716049382686,0,0,0.049382716049382686,9.876543209876537,0)" xlink:href="#aS"/></g><path fill="#fff" d="M258-177c0 46-32 67-71 75L235 0h-57l-41-94H76L58 0H6l48-248c89 2 204-19 204 71zm-53 3c0-46-63-30-107-33l-14 73c51-2 120 13 121-40" id="aT"/><path fill="#fff" d="M6 0l48-248h195l-8 40H98l-12 63h132l-7 40H79L66-40h150l-8 40H6" id="aU"/><path fill="#fff" d="M70-104c-4 71 81 81 132 50l8-40h-60l7-37h108L246-31C216-10 181 3 130 3 60 2 18-32 18-102c-1-106 79-169 188-144 33 8 53 31 63 63l-50 14c-6-26-25-42-56-42-62 0-89 43-93 107" id="aV"/><path fill="#fff" d="M6 0l48-248h52L58 0H6" id="aW"/><path fill="#fff" d="M178-136c88 48 22 151-73 140C49-3 12-15 4-64l51-9c1 50 111 53 115 3-16-63-132-20-133-112 0-93 190-91 199-10l-50 12c-4-41-93-50-97-4 7 38 59 32 89 48" id="aX"/><path fill="#fff" d="M157-208L117 0H65l40-208H25l8-40h212l-8 40h-80" id="aY"/><g id="t"><use transform="matrix(0.049382716049382686,0,0,0.049382716049382686,0,0)" xlink:href="#aT"/><use transform="matrix(0.049382716049382686,0,0,0.049382716049382686,12.790123456790116,0)" xlink:href="#aU"/><use transform="matrix(0.049382716049382686,0,0,0.049382716049382686,24.64197530864196,0)" xlink:href="#aV"/><use transform="matrix(0.049382716049382686,0,0,0.049382716049382686,38.46913580246911,0)" xlink:href="#aW"/><use transform="matrix(0.049382716049382686,0,0,0.049382716049382686,43.407407407407376,0)" xlink:href="#aX"/><use transform="matrix(0.049382716049382686,0,0,0.049382716049382686,55.259259259259224,0)" xlink:href="#aY"/><use transform="matrix(0.049382716049382686,0,0,0.049382716049382686,66.07407407407403,0)" xlink:href="#aU"/><use transform="matrix(0.049382716049382686,0,0,0.049382716049382686,77.92592592592588,0)" xlink:href="#aT"/></g><path fill="#fff" d="M212-179c-10-28-35-45-73-45-59 0-87 40-87 99 0 60 29 101 89 101 43 0 62-24 78-52l27 14C228-24 195 4 139 4 59 4 22-46 18-125c-6-104 99-153 187-111 19 9 31 26 39 46" id="aZ"/><path fill="#fff" d="M96-169c-40 0-48 33-48 73s9 75 48 75c24 0 41-14 43-38l32 2c-6 37-31 61-74 61-59 0-76-41-82-99-10-93 101-131 147-64 4 7 5 14 7 22l-32 3c-4-21-16-35-41-35" id="ba"/><path fill="#fff" d="M143 0L79-87 56-68V0H24v-261h32v163l83-92h37l-77 82L181 0h-38" id="bb"/><g id="u"><use transform="matrix(0.06234567901234567,0,0,0.06234567901234567,0,0)" xlink:href="#aZ"/><use transform="matrix(0.06234567901234567,0,0,0.06234567901234567,16.147530864197527,0)" xlink:href="#aC"/><use transform="matrix(0.06234567901234567,0,0,0.06234567901234567,21.072839506172834,0)" xlink:href="#av"/><use transform="matrix(0.06234567901234567,0,0,0.06234567901234567,25.99814814814814,0)" xlink:href="#ba"/><use transform="matrix(0.06234567901234567,0,0,0.06234567901234567,37.22037037037036,0)" xlink:href="#bb"/></g><g id="v"><use transform="matrix(0.06234567901234567,0,0,0.06234567901234567,0,0)" xlink:href="#as"/><use transform="matrix(0.06234567901234567,0,0,0.06234567901234567,12.469135802469133,0)" xlink:href="#ay"/></g><path fill="#fff" d="M137 0h-34L2-248h35l83 218 83-218h36" id="bc"/><path fill="#fff" d="M30 0v-248h33v221h125V0H30" id="bd"/><g id="w"><use transform="matrix(0.06234567901234567,0,0,0.06234567901234567,0,0)" xlink:href="#bc"/><use transform="matrix(0.06234567901234567,0,0,0.06234567901234567,13.279629629629627,0)" xlink:href="#aK"/><use transform="matrix(0.06234567901234567,0,0,0.06234567901234567,28.242592592592587,0)" xlink:href="#bd"/><use transform="matrix(0.06234567901234567,0,0,0.06234567901234567,40.71172839506172,0)" xlink:href="#aJ"/><use transform="matrix(0.06234567901234567,0,0,0.06234567901234567,46.94629629629628,0)" xlink:href="#aA"/><use transform="matrix(0.06234567901234567,0,0,0.06234567901234567,63.09382716049381,0)" xlink:href="#aK"/><use transform="matrix(0.06234567901234567,0,0,0.06234567901234567,76.37345679012344,0)" xlink:href="#aF"/><use transform="matrix(0.06234567901234567,0,0,0.06234567901234567,90.02716049382714,0)" xlink:href="#aH"/></g><g id="x"><use transform="matrix(0.06234567901234567,0,0,0.06234567901234567,0,0)" xlink:href="#ar"/><use transform="matrix(0.06234567901234567,0,0,0.06234567901234567,16.147530864197527,0)" xlink:href="#aG"/><use transform="matrix(0.06234567901234567,0,0,0.06234567901234567,33.60432098765432,0)" xlink:href="#aA"/><use transform="matrix(0.06234567901234567,0,0,0.06234567901234567,49.751851851851846,0)" xlink:href="#aH"/></g><path fill="#fff" d="M187 0l-14-72H61L19 0h-37l149-248h38L221 0h-34zm-19-99l-22-123L76-99h92" id="be"/><path fill="#fff" d="M67-162c32-53 139-36 121 50C175-51 163 2 97 4 68 4 52-11 42-31 38 6 28 39 22 75H-9l50-265h29c-1 10 0 20-3 28zm89 36c0-26-10-43-35-43-54 0-67 50-69 103-1 29 14 45 42 46 53 0 62-58 62-106" id="bf"/><path fill="#fff" d="M51-54c-9 22 5 41 31 30L79-1C43 14 10-4 19-52l22-115H19l5-23h22l19-43h21l-9 43h35l-4 23H73" id="bg"/><path fill="#fff" d="M55-144c13 50 104 24 104 88C159 21 15 23 1-39l26-10c6 40 102 42 102-4-13-50-104-23-104-87 0-71 143-71 148-8l-29 4c-5-35-85-37-89 0" id="bh"/><g id="y"><use transform="matrix(0.049382716049382686,0,0,0.049382716049382686,0,0)" xlink:href="#be"/><use transform="matrix(0.049382716049382686,0,0,0.049382716049382686,11.851851851851844,0)" xlink:href="#bf"/><use transform="matrix(0.049382716049382686,0,0,0.049382716049382686,21.72839506172838,0)" xlink:href="#bg"/><use transform="matrix(0.049382716049382686,0,0,0.049382716049382686,26.66666666666665,0)" xlink:href="#aR"/><use transform="matrix(0.049382716049382686,0,0,0.049382716049382686,36.54320987654319,0)" xlink:href="#bh"/></g><path fill="#fff" d="M173 0L80-213 41 0H11l48-248h37l94 214 40-214h30L212 0h-39" id="bi"/><path fill="#fff" d="M133-28C103 26-5 8 13-77c13-62 24-115 90-117 29-1 46 15 56 35l19-102h32L160 0h-30zM45-64c-2 27 10 43 35 43 54-1 69-50 69-103 0-29-15-46-42-46-53-1-58 58-62 106" id="bj"/><path fill="#fff" d="M111-194c62-3 86 47 72 106H45c-7 38 6 69 45 68 27-1 43-14 53-32l24 11C152-15 129 4 87 4 38 3 12-23 12-71c0-70 32-119 99-123zm44 81c14-66-71-72-95-28-4 8-8 17-11 28h106" id="bk"/><g id="z"><use transform="matrix(0.049382716049382686,0,0,0.049382716049382686,0,0)" xlink:href="#bi"/><use transform="matrix(0.049382716049382686,0,0,0.049382716049382686,12.790123456790116,0)" xlink:href="#aR"/><use transform="matrix(0.049382716049382686,0,0,0.049382716049382686,22.666666666666654,0)" xlink:href="#bj"/><use transform="matrix(0.049382716049382686,0,0,0.049382716049382686,32.54320987654319,0)" xlink:href="#bk"/></g><path fill="#fff" d="M179 0l23-115H67L45 0H11l48-248h34L72-143h135l21-105h32L212 0h-33" id="bl"/><path fill="#fff" d="M165-48c-4 18 1 34 23 27l-3 20c-29 8-62 0-52-35h-2C116-14 99 4 63 4 30 4 8-16 8-49c0-68 71-67 138-67 10-26 0-56-31-54-26 1-42 9-47 31l-32-5c8-67 160-71 144 15-5 28-9 54-15 81zM42-50c3 52 80 24 89-6 7-12 7-24 11-38-47 1-103-4-100 44" id="bm"/><path fill="#fff" d="M67-158c15-20 31-36 64-36 94 0 33 127 27 194h-32l25-140c3-38-53-32-70-12C52-117 51-51 37 0H6l51-261h31" id="bn"/><g id="A"><use transform="matrix(0.049382716049382686,0,0,0.049382716049382686,0,0)" xlink:href="#bl"/><use transform="matrix(0.049382716049382686,0,0,0.049382716049382686,12.790123456790116,0)" xlink:href="#bk"/><use transform="matrix(0.049382716049382686,0,0,0.049382716049382686,22.666666666666654,0)" xlink:href="#bm"/><use transform="matrix(0.049382716049382686,0,0,0.049382716049382686,32.54320987654319,0)" xlink:href="#aN"/><use transform="matrix(0.049382716049382686,0,0,0.049382716049382686,36.44444444444442,0)" xlink:href="#bg"/><use transform="matrix(0.049382716049382686,0,0,0.049382716049382686,41.382716049382694,0)" xlink:href="#bn"/></g><path fill="#fff" d="M66-151c12-25 30-51 66-40l-6 26C45-176 58-65 38 0H6l36-190h30" id="bo"/><g id="B"><use transform="matrix(0.049382716049382686,0,0,0.049382716049382686,0,0)" xlink:href="#aM"/><use transform="matrix(0.049382716049382686,0,0,0.049382716049382686,12.790123456790116,0)" xlink:href="#bn"/><use transform="matrix(0.049382716049382686,0,0,0.049382716049382686,22.666666666666654,0)" xlink:href="#bk"/><use transform="matrix(0.049382716049382686,0,0,0.049382716049382686,32.54320987654319,0)" xlink:href="#aP"/><use transform="matrix(0.049382716049382686,0,0,0.049382716049382686,41.43209876543207,0)" xlink:href="#aQ"/><use transform="matrix(0.049382716049382686,0,0,0.049382716049382686,50.32098765432096,0)" xlink:href="#bk"/><use transform="matrix(0.049382716049382686,0,0,0.049382716049382686,60.197530864197496,0)" xlink:href="#bo"/></g><path fill="#fff" d="M188 0h-37l-8-164L71 0H34L18-190h31l8 164 75-164h34l8 164 74-164h31" id="bp"/><g id="C"><use transform="matrix(0.049382716049382686,0,0,0.049382716049382686,0,0)" xlink:href="#bp"/><use transform="matrix(0.049382716049382686,0,0,0.049382716049382686,12.790123456790116,0)" xlink:href="#aO"/><use transform="matrix(0.049382716049382686,0,0,0.049382716049382686,16.691358024691347,0)" xlink:href="#aN"/><use transform="matrix(0.049382716049382686,0,0,0.049382716049382686,20.59259259259258,0)" xlink:href="#aN"/></g><g id="D"><use transform="matrix(0.049382716049382686,0,0,0.049382716049382686,0,0)" xlink:href="#aP"/><use transform="matrix(0.049382716049382686,0,0,0.049382716049382686,8.888888888888884,0)" xlink:href="#bn"/><use transform="matrix(0.049382716049382686,0,0,0.049382716049382686,18.765432098765423,0)" xlink:href="#bk"/><use transform="matrix(0.049382716049382686,0,0,0.049382716049382686,28.641975308641957,0)" xlink:href="#aP"/><use transform="matrix(0.049382716049382686,0,0,0.049382716049382686,37.530864197530846,0)" xlink:href="#aQ"/></g><g id="E"><use transform="matrix(0.049382716049382686,0,0,0.049382716049382686,0,0)" xlink:href="#bg"/><use transform="matrix(0.049382716049382686,0,0,0.049382716049382686,4.938271604938269,0)" xlink:href="#bn"/><use transform="matrix(0.049382716049382686,0,0,0.049382716049382686,14.814814814814806,0)" xlink:href="#bk"/></g><g id="F"><use transform="matrix(0.049382716049382686,0,0,0.049382716049382686,0,0)" xlink:href="#bn"/><use transform="matrix(0.049382716049382686,0,0,0.049382716049382686,9.876543209876537,0)" xlink:href="#bk"/><use transform="matrix(0.049382716049382686,0,0,0.049382716049382686,19.753086419753075,0)" xlink:href="#bm"/><use transform="matrix(0.049382716049382686,0,0,0.049382716049382686,29.629629629629612,0)" xlink:href="#aN"/><use transform="matrix(0.049382716049382686,0,0,0.049382716049382686,33.530864197530846,0)" xlink:href="#bg"/><use transform="matrix(0.049382716049382686,0,0,0.049382716049382686,38.46913580246911,0)" xlink:href="#bn"/></g><path fill="#fff" d="M76-167L44 0H12l33-167H18l4-23h27c3-47 25-81 82-69l-4 24c-35-8-44 15-46 45h37l-5 23H76" id="bq"/><g id="G"><use transform="matrix(0.049382716049382686,0,0,0.049382716049382686,0,0)" xlink:href="#aR"/><use transform="matrix(0.049382716049382686,0,0,0.049382716049382686,9.876543209876537,0)" xlink:href="#bq"/></g><path fill="#fff" d="M198-190L69 30C53 58 25 83-20 72c4-11-1-27 19-22 33-1 43-29 59-52L20-190h32L79-34l84-156h35" id="br"/><path fill="#fff" d="M67 3c-93-2-31-127-26-193h32L48-50c-3 39 53 32 70 12 30-34 30-101 43-152h32L157 0h-30c1-10 6-24 4-33-14 20-29 37-64 36" id="bs"/><g id="H"><use transform="matrix(0.049382716049382686,0,0,0.049382716049382686,0,0)" xlink:href="#br"/><use transform="matrix(0.049382716049382686,0,0,0.049382716049382686,8.888888888888884,0)" xlink:href="#aR"/><use transform="matrix(0.049382716049382686,0,0,0.049382716049382686,18.765432098765423,0)" xlink:href="#bs"/><use transform="matrix(0.049382716049382686,0,0,0.049382716049382686,28.641975308641957,0)" xlink:href="#bo"/></g><g id="I"><use transform="matrix(0.049382716049382686,0,0,0.049382716049382686,0,0)" xlink:href="#aS"/><use transform="matrix(0.049382716049382686,0,0,0.049382716049382686,9.876543209876537,0)" xlink:href="#aR"/><use transform="matrix(0.049382716049382686,0,0,0.049382716049382686,19.753086419753075,0)" xlink:href="#bj"/><use transform="matrix(0.049382716049382686,0,0,0.049382716049382686,29.629629629629612,0)" xlink:href="#bk"/><use transform="matrix(0.049382716049382686,0,0,0.049382716049382686,39.50617283950615,0)" xlink:href="#bh"/></g><g id="J"><use transform="matrix(0.049382716049382686,0,0,0.049382716049382686,0,0)" xlink:href="#aO"/><use transform="matrix(0.049382716049382686,0,0,0.049382716049382686,3.9012345679012324,0)" xlink:href="#aS"/></g><g id="K"><use transform="matrix(0.049382716049382686,0,0,0.049382716049382686,0,0)" xlink:href="#bo"/><use transform="matrix(0.049382716049382686,0,0,0.049382716049382686,5.87654320987654,0)" xlink:href="#bk"/><use transform="matrix(0.049382716049382686,0,0,0.049382716049382686,15.75308641975308,0)" xlink:href="#bm"/><use transform="matrix(0.049382716049382686,0,0,0.049382716049382686,25.629629629629616,0)" xlink:href="#aN"/></g><path fill="#fff" d="M248-111c6-24 9-61-24-58-72 9-57 108-77 169h-31l26-142c3-37-50-30-64-10C52-115 50-51 37 0H6l36-190h30c-1 10-6 24-4 32 13-43 101-52 105 5 13-22 29-41 61-41 90 0 28 129 23 194h-31" id="bt"/><g id="L"><use transform="matrix(0.049382716049382686,0,0,0.049382716049382686,0,0)" xlink:href="#bg"/><use transform="matrix(0.049382716049382686,0,0,0.049382716049382686,4.938271604938269,0)" xlink:href="#aO"/><use transform="matrix(0.049382716049382686,0,0,0.049382716049382686,8.839506172839501,0)" xlink:href="#bt"/><use transform="matrix(0.049382716049382686,0,0,0.049382716049382686,23.604938271604922,0)" xlink:href="#bk"/></g><path fill="#fff" d="M137-103V0h-34v-103L8-248h37l75 118 75-118h37" id="bu"/><g id="M"><use transform="matrix(0.06234567901234567,0,0,0.06234567901234567,0,0)" xlink:href="#aJ"/><use transform="matrix(0.06234567901234567,0,0,0.06234567901234567,6.234567901234566,0)" xlink:href="#aA"/><use transform="matrix(0.06234567901234567,0,0,0.06234567901234567,22.382098765432094,0)" xlink:href="#aH"/><use transform="matrix(0.06234567901234567,0,0,0.06234567901234567,37.34506172839505,0)" xlink:href="#ar"/><use transform="matrix(0.06234567901234567,0,0,0.06234567901234567,53.49259259259258,0)" xlink:href="#aF"/><use transform="matrix(0.06234567901234567,0,0,0.06234567901234567,67.14629629629628,0)" xlink:href="#aJ"/><use transform="matrix(0.06234567901234567,0,0,0.06234567901234567,73.38086419753085,0)" xlink:href="#aF"/><use transform="matrix(0.06234567901234567,0,0,0.06234567901234567,87.03456790123455,0)" xlink:href="#bu"/></g><path fill="#fff" d="M63-220v92h138v28H63V0H30v-248h175v28H63" id="bv"/><g id="N"><use transform="matrix(0.06234567901234567,0,0,0.06234567901234567,0,0)" xlink:href="#bc"/><use transform="matrix(0.06234567901234567,0,0,0.06234567901234567,14.96296296296296,0)" xlink:href="#aH"/><use transform="matrix(0.06234567901234567,0,0,0.06234567901234567,29.92592592592592,0)" xlink:href="#al"/><use transform="matrix(0.06234567901234567,0,0,0.06234567901234567,46.073456790123444,0)" xlink:href="#aJ"/><use transform="matrix(0.06234567901234567,0,0,0.06234567901234567,52.308024691358014,0)" xlink:href="#bv"/><use transform="matrix(0.06234567901234567,0,0,0.06234567901234567,65.96172839506171,0)" xlink:href="#aJ"/><use transform="matrix(0.06234567901234567,0,0,0.06234567901234567,72.19629629629628,0)" xlink:href="#aZ"/><use transform="matrix(0.06234567901234567,0,0,0.06234567901234567,88.34382716049382,0)" xlink:href="#aK"/><use transform="matrix(0.06234567901234567,0,0,0.06234567901234567,101.62345679012344,0)" xlink:href="#aF"/><use transform="matrix(0.06234567901234567,0,0,0.06234567901234567,115.27716049382714,0)" xlink:href="#aJ"/><use transform="matrix(0.06234567901234567,0,0,0.06234567901234567,121.51172839506171,0)" xlink:href="#aG"/><use transform="matrix(0.06234567901234567,0,0,0.06234567901234567,138.9685185185185,0)" xlink:href="#ar"/></g><path fill="#fff" d="M14 0l48-248h34L48 0H14" id="bw"/><g id="O"><use transform="matrix(0.049382716049382686,0,0,0.049382716049382686,0,0)" xlink:href="#bw"/><use transform="matrix(0.049382716049382686,0,0,0.049382716049382686,4.938271604938269,0)" xlink:href="#bq"/></g><g id="P"><use transform="matrix(0.049382716049382686,0,0,0.049382716049382686,0,0)" xlink:href="#br"/><use transform="matrix(0.049382716049382686,0,0,0.049382716049382686,8.888888888888884,0)" xlink:href="#aR"/><use transform="matrix(0.049382716049382686,0,0,0.049382716049382686,18.765432098765423,0)" xlink:href="#bs"/><use transform="matrix(0.049382716049382686,0,0,0.049382716049382686,28.641975308641957,0)" xlink:href="#bo"/></g><g id="Q"><use transform="matrix(0.049382716049382686,0,0,0.049382716049382686,0,0)" xlink:href="#aS"/><use transform="matrix(0.049382716049382686,0,0,0.049382716049382686,9.876543209876537,0)" xlink:href="#aR"/><use transform="matrix(0.049382716049382686,0,0,0.049382716049382686,19.753086419753075,0)" xlink:href="#bj"/><use transform="matrix(0.049382716049382686,0,0,0.049382716049382686,29.629629629629612,0)" xlink:href="#bk"/><use transform="matrix(0.049382716049382686,0,0,0.049382716049382686,39.50617283950615,0)" xlink:href="#bh"/></g><g id="R"><use transform="matrix(0.049382716049382686,0,0,0.049382716049382686,0,0)" xlink:href="#bf"/><use transform="matrix(0.049382716049382686,0,0,0.049382716049382686,9.876543209876537,0)" xlink:href="#bm"/><use transform="matrix(0.049382716049382686,0,0,0.049382716049382686,19.753086419753075,0)" xlink:href="#bh"/><use transform="matrix(0.049382716049382686,0,0,0.049382716049382686,28.641975308641957,0)" xlink:href="#bh"/></g><g id="S"><use transform="matrix(0.049382716049382686,0,0,0.049382716049382686,0,0)" xlink:href="#bn"/><use transform="matrix(0.049382716049382686,0,0,0.049382716049382686,9.876543209876537,0)" xlink:href="#bk"/><use transform="matrix(0.049382716049382686,0,0,0.049382716049382686,19.753086419753075,0)" xlink:href="#bm"/><use transform="matrix(0.049382716049382686,0,0,0.049382716049382686,29.629629629629612,0)" xlink:href="#aN"/><use transform="matrix(0.049382716049382686,0,0,0.049382716049382686,33.530864197530846,0)" xlink:href="#bg"/><use transform="matrix(0.049382716049382686,0,0,0.049382716049382686,38.46913580246911,0)" xlink:href="#bn"/></g><g id="T"><use transform="matrix(0.049382716049382686,0,0,0.049382716049382686,0,0)" xlink:href="#aP"/><use transform="matrix(0.049382716049382686,0,0,0.049382716049382686,8.888888888888884,0)" xlink:href="#bn"/><use transform="matrix(0.049382716049382686,0,0,0.049382716049382686,18.765432098765423,0)" xlink:href="#bk"/><use transform="matrix(0.049382716049382686,0,0,0.049382716049382686,28.641975308641957,0)" xlink:href="#aP"/><use transform="matrix(0.049382716049382686,0,0,0.049382716049382686,37.530864197530846,0)" xlink:href="#aQ"/></g><path fill="#fff" d="M130 0H70L30-248h54l24 206c31-72 69-137 103-206h54" id="bx"/><path fill="#fff" d="M98-208l-15 77h118l-8 40H76L58 0H6l48-248h174l-8 40H98" id="by"/><path fill="#fff" d="M147-102L127 0H76l19-102-65-146h52l45 107 83-107h57" id="bz"/><g id="U"><use transform="matrix(0.049382716049382686,0,0,0.049382716049382686,0,0)" xlink:href="#bx"/><use transform="matrix(0.049382716049382686,0,0,0.049382716049382686,11.851851851851844,0)" xlink:href="#aU"/><use transform="matrix(0.049382716049382686,0,0,0.049382716049382686,23.703703703703688,0)" xlink:href="#aT"/><use transform="matrix(0.049382716049382686,0,0,0.049382716049382686,36.49382716049381,0)" xlink:href="#aW"/><use transform="matrix(0.049382716049382686,0,0,0.049382716049382686,41.43209876543207,0)" xlink:href="#by"/><use transform="matrix(0.049382716049382686,0,0,0.049382716049382686,52.24691358024688,0)" xlink:href="#bz"/></g><path fill="#fff" d="M247 0h-39l-15-214-24 57L95 0H56L31-248h35L82-30l101-218h33l16 218 101-218h35" id="bA"/><g id="V"><use transform="matrix(0.049382716049382686,0,0,0.049382716049382686,0,0)" xlink:href="#bA"/><use transform="matrix(0.049382716049382686,0,0,0.049382716049382686,16.39506172839505,0)" xlink:href="#bm"/><use transform="matrix(0.049382716049382686,0,0,0.049382716049382686,26.27160493827159,0)" xlink:href="#aO"/><use transform="matrix(0.049382716049382686,0,0,0.049382716049382686,30.17283950617282,0)" xlink:href="#bg"/></g><g id="W"><use transform="matrix(0.049382716049382686,0,0,0.049382716049382686,0,0)" xlink:href="#bq"/><use transform="matrix(0.049382716049382686,0,0,0.049382716049382686,4.938271604938269,0)" xlink:href="#aR"/><use transform="matrix(0.049382716049382686,0,0,0.049382716049382686,14.814814814814806,0)" xlink:href="#bo"/></g><g id="X"><use transform="matrix(0.049382716049382686,0,0,0.049382716049382686,0,0)" xlink:href="#aS"/><use transform="matrix(0.049382716049382686,0,0,0.049382716049382686,9.876543209876537,0)" xlink:href="#aR"/><use transform="matrix(0.049382716049382686,0,0,0.049382716049382686,19.753086419753075,0)" xlink:href="#bg"/><use transform="matrix(0.049382716049382686,0,0,0.049382716049382686,24.691358024691343,0)" xlink:href="#aO"/><use transform="matrix(0.049382716049382686,0,0,0.049382716049382686,28.592592592592574,0)" xlink:href="#bq"/><use transform="matrix(0.049382716049382686,0,0,0.049382716049382686,33.530864197530846,0)" xlink:href="#aO"/><use transform="matrix(0.049382716049382686,0,0,0.049382716049382686,37.43209876543208,0)" xlink:href="#aP"/><use transform="matrix(0.049382716049382686,0,0,0.049382716049382686,46.320987654320966,0)" xlink:href="#bm"/><use transform="matrix(0.049382716049382686,0,0,0.049382716049382686,56.19753086419751,0)" xlink:href="#bg"/><use transform="matrix(0.049382716049382686,0,0,0.049382716049382686,61.13580246913576,0)" xlink:href="#aO"/><use transform="matrix(0.049382716049382686,0,0,0.049382716049382686,65.037037037037,0)" xlink:href="#aR"/><use transform="matrix(0.049382716049382686,0,0,0.049382716049382686,74.91358024691354,0)" xlink:href="#aS"/></g><g id="Y"><use transform="matrix(0.049382716049382686,0,0,0.049382716049382686,0,0)" xlink:href="#bq"/><use transform="matrix(0.049382716049382686,0,0,0.049382716049382686,4.938271604938269,0)" xlink:href="#bo"/><use transform="matrix(0.049382716049382686,0,0,0.049382716049382686,10.81481481481481,0)" xlink:href="#aR"/><use transform="matrix(0.049382716049382686,0,0,0.049382716049382686,20.691358024691347,0)" xlink:href="#bt"/></g><g id="Z"><use transform="matrix(0.049382716049382686,0,0,0.049382716049382686,0,0)" xlink:href="#be"/><use transform="matrix(0.049382716049382686,0,0,0.049382716049382686,11.851851851851844,0)" xlink:href="#bf"/><use transform="matrix(0.049382716049382686,0,0,0.049382716049382686,21.72839506172838,0)" xlink:href="#bg"/><use transform="matrix(0.049382716049382686,0,0,0.049382716049382686,26.66666666666665,0)" xlink:href="#aR"/><use transform="matrix(0.049382716049382686,0,0,0.049382716049382686,36.54320987654319,0)" xlink:href="#bh"/></g><use transform="matrix(0.049382716049382686,0,0,0.049382716049382686,0,0)" xlink:href="#be" id="aa"/><path fill="#fff" d="M89 0H52L20-190h33L74-25l89-165h34" id="bB"/><g id="ab"><use transform="matrix(0.049382716049382686,0,0,0.049382716049382686,0,0)" xlink:href="#bB"/><use transform="matrix(0.049382716049382686,0,0,0.049382716049382686,8.888888888888884,0)" xlink:href="#bm"/><use transform="matrix(0.049382716049382686,0,0,0.049382716049382686,18.765432098765423,0)" xlink:href="#aN"/><use transform="matrix(0.049382716049382686,0,0,0.049382716049382686,22.666666666666657,0)" xlink:href="#aO"/><use transform="matrix(0.049382716049382686,0,0,0.049382716049382686,26.56790123456789,0)" xlink:href="#bj"/><use transform="matrix(0.049382716049382686,0,0,0.049382716049382686,36.44444444444443,0)" xlink:href="#bm"/><use transform="matrix(0.049382716049382686,0,0,0.049382716049382686,46.320987654320966,0)" xlink:href="#bg"/><use transform="matrix(0.049382716049382686,0,0,0.049382716049382686,51.25925925925924,0)" xlink:href="#aR"/><use transform="matrix(0.049382716049382686,0,0,0.049382716049382686,61.135802469135776,0)" xlink:href="#bo"/></g><g id="ac"><use transform="matrix(0.049382716049382686,0,0,0.049382716049382686,0,0)" xlink:href="#aS"/><use transform="matrix(0.049382716049382686,0,0,0.049382716049382686,9.876543209876537,0)" xlink:href="#aR"/><use transform="matrix(0.049382716049382686,0,0,0.049382716049382686,19.753086419753075,0)" xlink:href="#bj"/><use transform="matrix(0.049382716049382686,0,0,0.049382716049382686,29.629629629629612,0)" xlink:href="#bk"/></g><g id="ad"><use transform="matrix(0.049382716049382686,0,0,0.049382716049382686,0,0)" xlink:href="#bm"/><use transform="matrix(0.049382716049382686,0,0,0.049382716049382686,9.876543209876537,0)" xlink:href="#aS"/><use transform="matrix(0.049382716049382686,0,0,0.049382716049382686,19.753086419753075,0)" xlink:href="#bj"/></g><use transform="matrix(0.049382716049382686,0,0,0.049382716049382686,0,0)" xlink:href="#bm" id="ae"/><g id="af"><use transform="matrix(0.049382716049382686,0,0,0.049382716049382686,0,0)" xlink:href="#bB"/><use transform="matrix(0.049382716049382686,0,0,0.049382716049382686,8.888888888888884,0)" xlink:href="#bm"/><use transform="matrix(0.049382716049382686,0,0,0.049382716049382686,18.765432098765423,0)" xlink:href="#aN"/><use transform="matrix(0.049382716049382686,0,0,0.049382716049382686,22.666666666666657,0)" xlink:href="#aO"/><use transform="matrix(0.049382716049382686,0,0,0.049382716049382686,26.56790123456789,0)" xlink:href="#bj"/><use transform="matrix(0.049382716049382686,0,0,0.049382716049382686,36.44444444444443,0)" xlink:href="#bm"/><use transform="matrix(0.049382716049382686,0,0,0.049382716049382686,46.320987654320966,0)" xlink:href="#bg"/><use transform="matrix(0.049382716049382686,0,0,0.049382716049382686,51.25925925925924,0)" xlink:href="#aR"/><use transform="matrix(0.049382716049382686,0,0,0.049382716049382686,61.135802469135776,0)" xlink:href="#bo"/></g><g id="ag"><use transform="matrix(0.049382716049382686,0,0,0.049382716049382686,0,0)" xlink:href="#bq"/><use transform="matrix(0.049382716049382686,0,0,0.049382716049382686,4.938271604938269,0)" xlink:href="#bs"/><use transform="matrix(0.049382716049382686,0,0,0.049382716049382686,14.814814814814806,0)" xlink:href="#aN"/><use transform="matrix(0.049382716049382686,0,0,0.049382716049382686,18.716049382716037,0)" xlink:href="#aN"/><use transform="matrix(0.049382716049382686,0,0,0.049382716049382686,22.61728395061727,0)" xlink:href="#aS"/><use transform="matrix(0.049382716049382686,0,0,0.049382716049382686,32.49382716049381,0)" xlink:href="#aR"/><use transform="matrix(0.049382716049382686,0,0,0.049382716049382686,42.370370370370345,0)" xlink:href="#bj"/><use transform="matrix(0.049382716049382686,0,0,0.049382716049382686,52.24691358024688,0)" xlink:href="#bk"/></g><g id="ah"><use transform="matrix(0.049382716049382686,0,0,0.049382716049382686,0,0)" xlink:href="#bm"/><use transform="matrix(0.049382716049382686,0,0,0.049382716049382686,9.876543209876537,0)" xlink:href="#bo"/><use transform="matrix(0.049382716049382686,0,0,0.049382716049382686,15.75308641975308,0)" xlink:href="#bk"/></g><path fill="#fff" d="M133-28C103 26-5 8 13-77c13-62 24-115 90-117 29-1 46 15 56 35 2-12 6-24 8-34h31L144 75h-31zM45-64c-2 27 10 43 35 43 54-1 69-50 69-103 0-29-15-46-42-46-53-1-58 58-62 106" id="bC"/><g id="ai"><use transform="matrix(0.049382716049382686,0,0,0.049382716049382686,0,0)" xlink:href="#bo"/><use transform="matrix(0.049382716049382686,0,0,0.049382716049382686,5.87654320987654,0)" xlink:href="#bk"/><use transform="matrix(0.049382716049382686,0,0,0.049382716049382686,15.75308641975308,0)" xlink:href="#bC"/><use transform="matrix(0.049382716049382686,0,0,0.049382716049382686,25.629629629629616,0)" xlink:href="#bs"/><use transform="matrix(0.049382716049382686,0,0,0.049382716049382686,35.50617283950615,0)" xlink:href="#aO"/><use transform="matrix(0.049382716049382686,0,0,0.049382716049382686,39.40740740740738,0)" xlink:href="#bo"/><use transform="matrix(0.049382716049382686,0,0,0.049382716049382686,45.28395061728392,0)" xlink:href="#bk"/><use transform="matrix(0.049382716049382686,0,0,0.049382716049382686,55.16049382716046,0)" xlink:href="#bj"/></g><g id="aj"><use transform="matrix(0.049382716049382686,0,0,0.049382716049382686,0,0)" xlink:href="#bq"/><use transform="matrix(0.049382716049382686,0,0,0.049382716049382686,4.938271604938269,0)" xlink:href="#aR"/><use transform="matrix(0.049382716049382686,0,0,0.049382716049382686,14.814814814814806,0)" xlink:href="#bo"/></g><g id="ak"><use transform="matrix(0.049382716049382686,0,0,0.049382716049382686,0,0)" xlink:href="#bt"/><use transform="matrix(0.049382716049382686,0,0,0.049382716049382686,14.765432098765423,0)" xlink:href="#bm"/><use transform="matrix(0.049382716049382686,0,0,0.049382716049382686,24.64197530864196,0)" xlink:href="#aO"/><use transform="matrix(0.049382716049382686,0,0,0.049382716049382686,28.54320987654319,0)" xlink:href="#aS"/><use transform="matrix(0.049382716049382686,0,0,0.049382716049382686,38.41975308641973,0)" xlink:href="#aS"/><use transform="matrix(0.049382716049382686,0,0,0.049382716049382686,48.29629629629627,0)" xlink:href="#bk"/><use transform="matrix(0.049382716049382686,0,0,0.049382716049382686,58.17283950617281,0)" xlink:href="#bg"/></g></defs></g></svg>