<svg xmlns="http://www.w3.org/2000/svg" xmlns:xlink="http://www.w3.org/1999/xlink" xmlns:lucid="lucid" width="1340" height="657.02"><g transform="translate(-100 -302.9820249568818)" lucid:page-tab-id="m-5o7ONTd-nK"><path d="M320 416.9a8 8 0 0 1 8-8h444a8 8 0 0 1 8 8v52.57a8 8 0 0 1-8 8H328a8 8 0 0 1-8-8z" stroke="#54c45e" fill-opacity="0"/><use xlink:href="#a" transform="matrix(1,0,0,1,332,420.8997759845538) translate(65.2842592592593 26.393055555555552)"/><use xlink:href="#b" transform="matrix(1,0,0,1,332,420.8997759845538) translate(101.44475308641978 26.393055555555552)"/><use xlink:href="#c" transform="matrix(1,0,0,1,332,420.8997759845538) translate(126.38302469135806 26.393055555555552)"/><use xlink:href="#d" transform="matrix(1,0,0,1,332,420.8997759845538) translate(189.97561728395064 26.393055555555552)"/><use xlink:href="#e" transform="matrix(1,0,0,1,332,420.8997759845538) translate(318.34537037037035 26.393055555555552)"/><path d="M320 515.55a8 8 0 0 1 8-8h444a8 8 0 0 1 8 8v88.8a8 8 0 0 1-8 8H328a8 8 0 0 1-8-8z" stroke="#54c45e" fill-opacity="0"/><use xlink:href="#f" transform="matrix(1,0,0,1,332,519.5541928996637) translate(17.96388888888893 30.611805555555552)"/><use xlink:href="#g" transform="matrix(1,0,0,1,332,519.5541928996637) translate(81.43179012345682 30.611805555555552)"/><use xlink:href="#h" transform="matrix(1,0,0,1,332,519.5541928996637) translate(131.24598765432103 30.611805555555552)"/><use xlink:href="#i" transform="matrix(1,0,0,1,332,519.5541928996637) translate(198.45462962962964 30.611805555555552)"/><use xlink:href="#j" transform="matrix(1,0,0,1,332,519.5541928996637) translate(266.03734567901233 30.611805555555552)"/><use xlink:href="#k" transform="matrix(1,0,0,1,332,519.5541928996637) translate(350.8274691358024 30.611805555555552)"/><use xlink:href="#l" transform="matrix(1,0,0,1,332,519.5541928996637) translate(0.8188271604938677 57.545138888888886)"/><use xlink:href="#m" transform="matrix(1,0,0,1,332,519.5541928996637) translate(46.51820987654324 57.545138888888886)"/><use xlink:href="#g" transform="matrix(1,0,0,1,332,519.5541928996637) translate(82.67870370370372 57.545138888888886)"/><use xlink:href="#n" transform="matrix(1,0,0,1,332,519.5541928996637) translate(132.4929012345679 57.545138888888886)"/><use xlink:href="#o" transform="matrix(1,0,0,1,332,519.5541928996637) translate(209.7391975308642 57.545138888888886)"/><use xlink:href="#p" transform="matrix(1,0,0,1,332,519.5541928996637) translate(258.30648148148146 57.545138888888886)"/><use xlink:href="#q" transform="matrix(1,0,0,1,332,519.5541928996637) translate(301.94845679012343 57.545138888888886)"/><use xlink:href="#r" transform="matrix(1,0,0,1,332,519.5541928996637) translate(372.96018518518514 57.545138888888886)"/><path d="M550 478.42v12.3" stroke="#54c45e" fill="none"/><path d="M550.5 478.43h-1v-.5h1z" stroke="#54c45e" stroke-width=".05" fill="#54c45e"/><path d="M550 505.5l-4.64-14.28h9.28z" stroke="#54c45e" fill="#54c45e"/><path d="M550 775.13v28.04" stroke="#54c45e" fill="none"/><path d="M550.5 775.14h-1v-.5h1z" stroke="#54c45e" stroke-width=".05" fill="#54c45e"/><path d="M550 817.93l-4.64-14.26h9.28z" stroke="#54c45e" fill="#54c45e"/><path d="M550 613.3v12.3" stroke="#54c45e" fill="none"/><path d="M550.5 613.32h-1v-.5l1-.02z" stroke="#54c45e" stroke-width=".05" fill="#54c45e"/><path d="M550 640.37l-4.64-14.26h9.28z" stroke="#54c45e" fill="#54c45e"/><path d="M400 330.98a8 8 0 0 1 8-8h284a8 8 0 0 1 8 8v69.92a8 8 0 0 1-8 8H408a8 8 0 0 1-8-8z" stroke="#000" stroke-opacity="0" fill-opacity="0"/><use xlink:href="#s" transform="matrix(1,0,0,1,405,327.9820249568818) translate(35.54320987654323 43.30555555555556)"/><use xlink:href="#t" transform="matrix(1,0,0,1,405,327.9820249568818) translate(130.40123456790124 43.30555555555556)"/><use xlink:href="#u" transform="matrix(1,0,0,1,405,327.9820249568818) translate(180.51234567901236 43.30555555555556)"/><path d="M120 388a8 8 0 0 1 8-8h174a8 8 0 0 1 8 8v136.32a8 8 0 0 1-8 8H128a8 8 0 0 1-8-8z" stroke="#000" stroke-opacity="0" fill-opacity="0"/><g><use xlink:href="#v" transform="matrix(1,0,0,1,133,393) translate(0 27.30625)"/><use xlink:href="#w" transform="matrix(1,0,0,1,133,393) translate(102.95 27.30625)"/><use xlink:href="#x" transform="matrix(1,0,0,1,133,393) translate(0 53.22625)"/><use xlink:href="#y" transform="matrix(1,0,0,1,133,393) translate(42.9 53.22625)"/><use xlink:href="#z" transform="matrix(1,0,0,1,133,393) translate(60.849999999999994 53.22625)"/><use xlink:href="#A" transform="matrix(1,0,0,1,133,393) translate(75.85 53.22625)"/><use xlink:href="#B" transform="matrix(1,0,0,1,133,393) translate(126.85 53.22625)"/><use xlink:href="#C" transform="matrix(1,0,0,1,133,393) translate(0 79.14625000000001)"/><use xlink:href="#D" transform="matrix(1,0,0,1,133,393) translate(35 79.14625000000001)"/><use xlink:href="#E" transform="matrix(1,0,0,1,133,393) translate(55 79.14625000000001)"/><use xlink:href="#F" transform="matrix(1,0,0,1,133,393) translate(124.95 79.14625000000001)"/><use xlink:href="#G" transform="matrix(1,0,0,1,133,393) translate(0 105.06625000000001)"/><use xlink:href="#H" transform="matrix(1,0,0,1,133,393) translate(61.95 105.06625000000001)"/><use xlink:href="#I" transform="matrix(1,0,0,1,133,393) translate(96.95 105.06625000000001)"/></g><path d="M320 650.44a8 8 0 0 1 8-8h444a8 8 0 0 1 8 8v115.74a8 8 0 0 1-8 8H328a8 8 0 0 1-8-8z" stroke="#54c45e" fill-opacity="0"/><g><use xlink:href="#f" transform="matrix(1,0,0,1,332,654.4417191326606) translate(17.96388888888893 17.955555555555552)"/><use xlink:href="#g" transform="matrix(1,0,0,1,332,654.4417191326606) translate(81.43179012345682 17.955555555555552)"/><use xlink:href="#h" transform="matrix(1,0,0,1,332,654.4417191326606) translate(131.24598765432103 17.955555555555552)"/><use xlink:href="#i" transform="matrix(1,0,0,1,332,654.4417191326606) translate(198.45462962962964 17.955555555555552)"/><use xlink:href="#j" transform="matrix(1,0,0,1,332,654.4417191326606) translate(266.03734567901233 17.955555555555552)"/><use xlink:href="#k" transform="matrix(1,0,0,1,332,654.4417191326606) translate(350.8274691358024 17.955555555555552)"/><use xlink:href="#l" transform="matrix(1,0,0,1,332,654.4417191326606) translate(5.120679012345732 44.888888888888886)"/><use xlink:href="#J" transform="matrix(1,0,0,1,332,654.4417191326606) translate(50.8200617283951 44.888888888888886)"/><use xlink:href="#K" transform="matrix(1,0,0,1,332,654.4417191326606) translate(143.02932098765436 44.888888888888886)"/><use xlink:href="#L" transform="matrix(1,0,0,1,332,654.4417191326606) translate(167.96759259259264 44.888888888888886)"/><use xlink:href="#M" transform="matrix(1,0,0,1,332,654.4417191326606) translate(205.37500000000003 44.888888888888886)"/><use xlink:href="#p" transform="matrix(1,0,0,1,332,654.4417191326606) translate(295.0280864197531 44.888888888888886)"/><use xlink:href="#L" transform="matrix(1,0,0,1,332,654.4417191326606) translate(338.670061728395 44.888888888888886)"/><use xlink:href="#N" transform="matrix(1,0,0,1,332,654.4417191326606) translate(376.0774691358024 44.888888888888886)"/><use xlink:href="#O" transform="matrix(1,0,0,1,332,654.4417191326606) translate(44.05555555555557 71.82222222222221)"/><use xlink:href="#L" transform="matrix(1,0,0,1,332,654.4417191326606) translate(103.84506172839507 71.82222222222221)"/><use xlink:href="#M" transform="matrix(1,0,0,1,332,654.4417191326606) translate(141.25246913580247 71.82222222222221)"/><use xlink:href="#p" transform="matrix(1,0,0,1,332,654.4417191326606) translate(230.90555555555554 71.82222222222221)"/><use xlink:href="#P" transform="matrix(1,0,0,1,332,654.4417191326606) translate(274.5475308641975 71.82222222222221)"/><use xlink:href="#Q" transform="matrix(1,0,0,1,332,654.4417191326606) translate(330.59629629629626 71.82222222222221)"/><use xlink:href="#R" transform="matrix(1,0,0,1,332,654.4417191326606) translate(166.28425925925927 98.75555555555553)"/></g><path d="M320 828a8 8 0 0 1 8-8h444a8 8 0 0 1 8 8v104a8 8 0 0 1-8 8H328a8 8 0 0 1-8-8z" stroke="#54c45e" fill-opacity="0"/><g><use xlink:href="#S" transform="matrix(1,0,0,1,332,832) translate(5.65061728395068 38.95555555555555)"/><use xlink:href="#T" transform="matrix(1,0,0,1,332,832) translate(105.27901234567906 38.95555555555555)"/><use xlink:href="#L" transform="matrix(1,0,0,1,332,832) translate(186.20370370370375 38.95555555555555)"/><use xlink:href="#U" transform="matrix(1,0,0,1,332,832) translate(223.61111111111114 38.95555555555555)"/><use xlink:href="#V" transform="matrix(1,0,0,1,332,832) translate(314.44876543209875 38.95555555555555)"/><use xlink:href="#W" transform="matrix(1,0,0,1,332,832) translate(370.55987654320984 38.95555555555555)"/><use xlink:href="#X" transform="matrix(1,0,0,1,332,832) translate(414.2018518518518 38.95555555555555)"/><use xlink:href="#Y" transform="matrix(1,0,0,1,332,832) translate(33.799691358024745 65.88888888888889)"/><use xlink:href="#Z" transform="matrix(1,0,0,1,332,832) translate(113.47746913580251 65.88888888888889)"/><use xlink:href="#aa" transform="matrix(1,0,0,1,332,832) translate(209.42746913580248 65.88888888888889)"/><use xlink:href="#ab" transform="matrix(1,0,0,1,332,832) translate(246.5854938271605 65.88888888888889)"/><use xlink:href="#ac" transform="matrix(1,0,0,1,332,832) translate(307.6219135802469 65.88888888888889)"/></g><path d="M960 416.9a8 8 0 0 1 8-8h444a8 8 0 0 1 8 8v104a8 8 0 0 1-8 8H968a8 8 0 0 1-8-8z" stroke="#54c45e" fill-opacity="0"/><g><use xlink:href="#ad" transform="matrix(1,0,0,1,972,420.8997759845538) translate(25.601234567901287 38.95555555555555)"/><use xlink:href="#aa" transform="matrix(1,0,0,1,972,420.8997759845538) translate(84.14382716049387 38.95555555555555)"/><use xlink:href="#ae" transform="matrix(1,0,0,1,972,420.8997759845538) translate(121.30185185185188 38.95555555555555)"/><use xlink:href="#af" transform="matrix(1,0,0,1,972,420.8997759845538) translate(152.4746913580247 38.95555555555555)"/><use xlink:href="#ag" transform="matrix(1,0,0,1,972,420.8997759845538) translate(230.90555555555557 38.95555555555555)"/><use xlink:href="#L" transform="matrix(1,0,0,1,972,420.8997759845538) translate(255.84382716049382 38.95555555555555)"/><use xlink:href="#ah" transform="matrix(1,0,0,1,972,420.8997759845538) translate(293.2512345679012 38.95555555555555)"/><use xlink:href="#ai" transform="matrix(1,0,0,1,972,420.8997759845538) translate(79.06265432098766 65.88888888888889)"/><use xlink:href="#aj" transform="matrix(1,0,0,1,972,420.8997759845538) translate(188.66635802469136 65.88888888888889)"/><use xlink:href="#ak" transform="matrix(1,0,0,1,972,420.8997759845538) translate(269.65339506172836 65.88888888888889)"/><use xlink:href="#al" transform="matrix(1,0,0,1,972,420.8997759845538) translate(299.57932098765434 65.88888888888889)"/></g><path d="M780.95 708.3h27.5a12 12 0 0 0 12-12V380.46a12 12 0 0 1 12-12H1178a12 12 0 0 1 12 12v11.62" stroke="#54c45e" fill="none"/><path d="M780.96 708.8h-.5v-1h.5z" stroke="#54c45e" stroke-width=".05" fill="#54c45e"/><path d="M1190 406.83l-4.64-14.26h9.28z" stroke="#54c45e" fill="#54c45e"/><path d="M960 588a8 8 0 0 1 8-8h444a8 8 0 0 1 8 8v104a8 8 0 0 1-8 8H968a8 8 0 0 1-8-8z" stroke="#54c45e" fill-opacity="0"/><g><use xlink:href="#am" transform="matrix(1,0,0,1,972,592) translate(14.254320987654353 38.95555555555555)"/><use xlink:href="#O" transform="matrix(1,0,0,1,972,592) translate(77.7845679012346 38.95555555555555)"/><use xlink:href="#L" transform="matrix(1,0,0,1,972,592) translate(137.57407407407408 38.95555555555555)"/><use xlink:href="#P" transform="matrix(1,0,0,1,972,592) translate(174.9814814814815 38.95555555555555)"/><use xlink:href="#i" transform="matrix(1,0,0,1,972,592) translate(231.03024691358024 38.95555555555555)"/><use xlink:href="#an" transform="matrix(1,0,0,1,972,592) translate(298.61296296296297 38.95555555555555)"/><use xlink:href="#ao" transform="matrix(1,0,0,1,972,592) translate(390.8222222222222 38.95555555555555)"/><use xlink:href="#ap" transform="matrix(1,0,0,1,972,592) translate(116.43888888888891 65.88888888888889)"/><use xlink:href="#aq" transform="matrix(1,0,0,1,972,592) translate(165.06851851851854 65.88888888888889)"/><use xlink:href="#L" transform="matrix(1,0,0,1,972,592) translate(196.24135802469135 65.88888888888889)"/><use xlink:href="#ar" transform="matrix(1,0,0,1,972,592) translate(233.64876543209874 65.88888888888889)"/></g><path d="M1190 529.85v33.32" stroke="#54c45e" fill="none"/><path d="M1190.5 529.86h-1v-.5h1z" stroke="#54c45e" stroke-width=".05" fill="#54c45e"/><path d="M1190 577.93l-4.64-14.26h9.28z" stroke="#54c45e" fill="#54c45e"/><defs><path fill="#3a414a" d="M143 4C61 4 22-44 18-125c-5-107 100-154 193-111 17 8 29 25 37 43l-32 9c-13-25-37-40-76-40-61 0-88 39-88 99 0 61 29 100 91 101 35 0 62-11 79-27v-45h-74v-28h105v86C228-13 192 4 143 4" id="as"/><path fill="#3a414a" d="M100-194c62-1 85 37 85 99 1 63-27 99-86 99S16-35 15-95c0-66 28-99 85-99zM99-20c44 1 53-31 53-75 0-43-8-75-51-75s-53 32-53 75 10 74 51 75" id="at"/><g id="a"><use transform="matrix(0.06234567901234567,0,0,0.06234567901234567,0,0)" xlink:href="#as"/><use transform="matrix(0.06234567901234567,0,0,0.06234567901234567,17.456790123456788,0)" xlink:href="#at"/></g><path fill="#3a414a" d="M59-47c-2 24 18 29 38 22v24C64 9 27 4 27-40v-127H5v-23h24l9-43h21v43h35v23H59v120" id="au"/><g id="b"><use transform="matrix(0.06234567901234567,0,0,0.06234567901234567,0,0)" xlink:href="#au"/><use transform="matrix(0.06234567901234567,0,0,0.06234567901234567,6.234567901234566,0)" xlink:href="#at"/></g><path fill="#3a414a" d="M205 0l-28-72H64L36 0H1l101-248h38L239 0h-34zm-38-99l-47-123c-12 45-31 82-46 123h93" id="av"/><path fill="#3a414a" d="M115-194c55 1 70 41 70 98S169 2 115 4C84 4 66-9 55-30l1 105H24l-1-265h31l2 30c10-21 28-34 59-34zm-8 174c40 0 45-34 45-75s-6-73-45-74c-42 0-51 32-51 76 0 43 10 73 51 73" id="aw"/><path fill="#3a414a" d="M135-143c-3-34-86-38-87 0 15 53 115 12 119 90S17 21 10-45l28-5c4 36 97 45 98 0-10-56-113-15-118-90-4-57 82-63 122-42 12 7 21 19 24 35" id="ax"/><g id="c"><use transform="matrix(0.06234567901234567,0,0,0.06234567901234567,0,0)" xlink:href="#av"/><use transform="matrix(0.06234567901234567,0,0,0.06234567901234567,14.96296296296296,0)" xlink:href="#aw"/><use transform="matrix(0.06234567901234567,0,0,0.06234567901234567,27.432098765432094,0)" xlink:href="#au"/><use transform="matrix(0.06234567901234567,0,0,0.06234567901234567,33.66666666666666,0)" xlink:href="#at"/><use transform="matrix(0.06234567901234567,0,0,0.06234567901234567,46.13580246913579,0)" xlink:href="#ax"/></g><path fill="#3a414a" d="M108 0H70L1-190h34L89-25l56-165h34" id="ay"/><path fill="#3a414a" d="M100-194c63 0 86 42 84 106H49c0 40 14 67 53 68 26 1 43-12 49-29l28 8c-11 28-37 45-77 45C44 4 14-33 15-96c1-61 26-98 85-98zm52 81c6-60-76-77-97-28-3 7-6 17-6 28h103" id="az"/><path fill="#3a414a" d="M114-163C36-179 61-72 57 0H25l-1-190h30c1 12-1 29 2 39 6-27 23-49 58-41v29" id="aA"/><path fill="#3a414a" d="M117-194c89-4 53 116 60 194h-32v-121c0-31-8-49-39-48C34-167 62-67 57 0H25l-1-190h30c1 10-1 24 2 32 11-22 29-35 61-36" id="aB"/><path fill="#3a414a" d="M141-36C126-15 110 5 73 4 37 3 15-17 15-53c-1-64 63-63 125-63 3-35-9-54-41-54-24 1-41 7-42 31l-33-3c5-37 33-52 76-52 45 0 72 20 72 64v82c-1 20 7 32 28 27v20c-31 9-61-2-59-35zM48-53c0 20 12 33 32 33 41-3 63-29 60-74-43 2-92-5-92 41" id="aC"/><path fill="#3a414a" d="M96-169c-40 0-48 33-48 73s9 75 48 75c24 0 41-14 43-38l32 2c-6 37-31 61-74 61-59 0-76-41-82-99-10-93 101-131 147-64 4 7 5 14 7 22l-32 3c-4-21-16-35-41-35" id="aD"/><g id="d"><use transform="matrix(0.06234567901234567,0,0,0.06234567901234567,0,0)" xlink:href="#as"/><use transform="matrix(0.06234567901234567,0,0,0.06234567901234567,17.456790123456788,0)" xlink:href="#at"/><use transform="matrix(0.06234567901234567,0,0,0.06234567901234567,29.92592592592592,0)" xlink:href="#ay"/><use transform="matrix(0.06234567901234567,0,0,0.06234567901234567,41.14814814814814,0)" xlink:href="#az"/><use transform="matrix(0.06234567901234567,0,0,0.06234567901234567,53.61728395061727,0)" xlink:href="#aA"/><use transform="matrix(0.06234567901234567,0,0,0.06234567901234567,61.036419753086406,0)" xlink:href="#aB"/><use transform="matrix(0.06234567901234567,0,0,0.06234567901234567,73.50555555555553,0)" xlink:href="#aC"/><use transform="matrix(0.06234567901234567,0,0,0.06234567901234567,85.97469135802467,0)" xlink:href="#aB"/><use transform="matrix(0.06234567901234567,0,0,0.06234567901234567,98.44382716049381,0)" xlink:href="#aD"/><use transform="matrix(0.06234567901234567,0,0,0.06234567901234567,109.66604938271603,0)" xlink:href="#az"/></g><path fill="#3a414a" d="M30-248c87 1 191-15 191 75 0 78-77 80-158 76V0H30v-248zm33 125c57 0 124 11 124-50 0-59-68-47-124-48v98" id="aE"/><path fill="#3a414a" d="M177-190C167-65 218 103 67 71c-23-6-38-20-44-43l32-5c15 47 100 32 89-28v-30C133-14 115 1 83 1 29 1 15-40 15-95c0-56 16-97 71-98 29-1 48 16 59 35 1-10 0-23 2-32h30zM94-22c36 0 50-32 50-73 0-42-14-75-50-75-39 0-46 34-46 75s6 73 46 73" id="aF"/><g id="e"><use transform="matrix(0.06234567901234567,0,0,0.06234567901234567,0,0)" xlink:href="#aE"/><use transform="matrix(0.06234567901234567,0,0,0.06234567901234567,14.96296296296296,0)" xlink:href="#aC"/><use transform="matrix(0.06234567901234567,0,0,0.06234567901234567,27.432098765432094,0)" xlink:href="#aF"/><use transform="matrix(0.06234567901234567,0,0,0.06234567901234567,39.90123456790123,0)" xlink:href="#az"/></g><path fill="#3a414a" d="M232-93c-1 65-40 97-104 97C67 4 28-28 28-90v-158h33c8 89-33 224 67 224 102 0 64-133 71-224h33v155" id="aG"/><path fill="#3a414a" d="M24-231v-30h32v30H24zM24 0v-190h32V0H24" id="aH"/><g id="f"><use transform="matrix(0.06234567901234567,0,0,0.06234567901234567,0,0)" xlink:href="#aG"/><use transform="matrix(0.06234567901234567,0,0,0.06234567901234567,16.147530864197527,0)" xlink:href="#ax"/><use transform="matrix(0.06234567901234567,0,0,0.06234567901234567,27.36975308641975,0)" xlink:href="#aH"/><use transform="matrix(0.06234567901234567,0,0,0.06234567901234567,32.295061728395055,0)" xlink:href="#aB"/><use transform="matrix(0.06234567901234567,0,0,0.06234567901234567,44.76419753086419,0)" xlink:href="#aF"/></g><path fill="#3a414a" d="M179-190L93 31C79 59 56 82 12 73V49c39 6 53-20 64-50L1-190h34L92-34l54-156h33" id="aI"/><path fill="#3a414a" d="M84 4C-5 8 30-112 23-190h32v120c0 31 7 50 39 49 72-2 45-101 50-169h31l1 190h-30c-1-10 1-25-2-33-11 22-28 36-60 37" id="aJ"/><g id="g"><use transform="matrix(0.06234567901234567,0,0,0.06234567901234567,0,0)" xlink:href="#aI"/><use transform="matrix(0.06234567901234567,0,0,0.06234567901234567,11.22222222222222,0)" xlink:href="#at"/><use transform="matrix(0.06234567901234567,0,0,0.06234567901234567,23.691358024691354,0)" xlink:href="#aJ"/><use transform="matrix(0.06234567901234567,0,0,0.06234567901234567,36.16049382716049,0)" xlink:href="#aA"/></g><path fill="#3a414a" d="M206 0h-36l-40-164L89 0H53L-1-190h32L70-26l43-164h34l41 164 42-164h31" id="aK"/><g id="h"><use transform="matrix(0.06234567901234567,0,0,0.06234567901234567,0,0)" xlink:href="#at"/><use transform="matrix(0.06234567901234567,0,0,0.06234567901234567,12.469135802469133,0)" xlink:href="#aK"/><use transform="matrix(0.06234567901234567,0,0,0.06234567901234567,28.61666666666666,0)" xlink:href="#aB"/><use transform="matrix(0.06234567901234567,0,0,0.06234567901234567,41.08580246913579,0)" xlink:href="#az"/><use transform="matrix(0.06234567901234567,0,0,0.06234567901234567,53.554938271604925,0)" xlink:href="#aA"/></g><path fill="#3a414a" d="M266 0h-40l-56-210L115 0H75L2-248h35L96-30l15-64 43-154h32l59 218 59-218h35" id="aL"/><path fill="#3a414a" d="M24 0v-261h32V0H24" id="aM"/><g id="i"><use transform="matrix(0.06234567901234567,0,0,0.06234567901234567,0,0)" xlink:href="#aL"/><use transform="matrix(0.06234567901234567,0,0,0.06234567901234567,20.32469135802469,0)" xlink:href="#aC"/><use transform="matrix(0.06234567901234567,0,0,0.06234567901234567,32.79382716049382,0)" xlink:href="#aM"/><use transform="matrix(0.06234567901234567,0,0,0.06234567901234567,37.719135802469125,0)" xlink:href="#aM"/><use transform="matrix(0.06234567901234567,0,0,0.06234567901234567,42.64444444444443,0)" xlink:href="#az"/><use transform="matrix(0.06234567901234567,0,0,0.06234567901234567,55.113580246913564,0)" xlink:href="#au"/></g><g id="j"><use transform="matrix(0.06234567901234567,0,0,0.06234567901234567,0,0)" xlink:href="#aC"/><use transform="matrix(0.06234567901234567,0,0,0.06234567901234567,12.469135802469133,0)" xlink:href="#aD"/><use transform="matrix(0.06234567901234567,0,0,0.06234567901234567,23.691358024691354,0)" xlink:href="#aD"/><use transform="matrix(0.06234567901234567,0,0,0.06234567901234567,34.913580246913575,0)" xlink:href="#at"/><use transform="matrix(0.06234567901234567,0,0,0.06234567901234567,47.38271604938271,0)" xlink:href="#aJ"/><use transform="matrix(0.06234567901234567,0,0,0.06234567901234567,59.85185185185184,0)" xlink:href="#aB"/><use transform="matrix(0.06234567901234567,0,0,0.06234567901234567,72.32098765432097,0)" xlink:href="#au"/></g><g id="k"><use transform="matrix(0.06234567901234567,0,0,0.06234567901234567,0,0)" xlink:href="#aw"/><use transform="matrix(0.06234567901234567,0,0,0.06234567901234567,12.469135802469133,0)" xlink:href="#aA"/><use transform="matrix(0.06234567901234567,0,0,0.06234567901234567,19.888271604938268,0)" xlink:href="#aH"/><use transform="matrix(0.06234567901234567,0,0,0.06234567901234567,24.813580246913574,0)" xlink:href="#ay"/><use transform="matrix(0.06234567901234567,0,0,0.06234567901234567,36.035802469135795,0)" xlink:href="#aC"/><use transform="matrix(0.06234567901234567,0,0,0.06234567901234567,48.50493827160493,0)" xlink:href="#au"/><use transform="matrix(0.06234567901234567,0,0,0.06234567901234567,54.7395061728395,0)" xlink:href="#az"/></g><path fill="#3a414a" d="M143 0L79-87 56-68V0H24v-261h32v163l83-92h37l-77 82L181 0h-38" id="aN"/><path fill="#3a414a" d="M68-38c1 34 0 65-14 84H32c9-13 17-26 17-46H33v-38h35" id="aO"/><g id="l"><use transform="matrix(0.06234567901234567,0,0,0.06234567901234567,0,0)" xlink:href="#aN"/><use transform="matrix(0.06234567901234567,0,0,0.06234567901234567,11.22222222222222,0)" xlink:href="#az"/><use transform="matrix(0.06234567901234567,0,0,0.06234567901234567,23.691358024691354,0)" xlink:href="#aI"/><use transform="matrix(0.06234567901234567,0,0,0.06234567901234567,33.23024691358024,0)" xlink:href="#aO"/></g><g id="m"><use transform="matrix(0.06234567901234567,0,0,0.06234567901234567,0,0)" xlink:href="#ax"/><use transform="matrix(0.06234567901234567,0,0,0.06234567901234567,11.22222222222222,0)" xlink:href="#az"/><use transform="matrix(0.06234567901234567,0,0,0.06234567901234567,23.691358024691354,0)" xlink:href="#au"/></g><g id="n"><use transform="matrix(0.06234567901234567,0,0,0.06234567901234567,0,0)" xlink:href="#ax"/><use transform="matrix(0.06234567901234567,0,0,0.06234567901234567,11.22222222222222,0)" xlink:href="#au"/><use transform="matrix(0.06234567901234567,0,0,0.06234567901234567,17.456790123456784,0)" xlink:href="#aC"/><use transform="matrix(0.06234567901234567,0,0,0.06234567901234567,29.925925925925917,0)" xlink:href="#aN"/><use transform="matrix(0.06234567901234567,0,0,0.06234567901234567,41.14814814814814,0)" xlink:href="#aH"/><use transform="matrix(0.06234567901234567,0,0,0.06234567901234567,46.073456790123444,0)" xlink:href="#aB"/><use transform="matrix(0.06234567901234567,0,0,0.06234567901234567,58.54259259259258,0)" xlink:href="#aF"/></g><g id="o"><use transform="matrix(0.06234567901234567,0,0,0.06234567901234567,0,0)" xlink:href="#aw"/><use transform="matrix(0.06234567901234567,0,0,0.06234567901234567,12.469135802469133,0)" xlink:href="#at"/><use transform="matrix(0.06234567901234567,0,0,0.06234567901234567,24.938271604938265,0)" xlink:href="#at"/><use transform="matrix(0.06234567901234567,0,0,0.06234567901234567,37.4074074074074,0)" xlink:href="#aM"/></g><path fill="#3a414a" d="M85-194c31 0 48 13 60 33l-1-100h32l1 261h-30c-2-10 0-23-3-31C134-8 116 4 85 4 32 4 16-35 15-94c0-66 23-100 70-100zm9 24c-40 0-46 34-46 75 0 40 6 74 45 74 42 0 51-32 51-76 0-42-9-74-50-73" id="aP"/><g id="p"><use transform="matrix(0.06234567901234567,0,0,0.06234567901234567,0,0)" xlink:href="#aC"/><use transform="matrix(0.06234567901234567,0,0,0.06234567901234567,12.469135802469133,0)" xlink:href="#aB"/><use transform="matrix(0.06234567901234567,0,0,0.06234567901234567,24.938271604938265,0)" xlink:href="#aP"/></g><g id="q"><use transform="matrix(0.06234567901234567,0,0,0.06234567901234567,0,0)" xlink:href="#aM"/><use transform="matrix(0.06234567901234567,0,0,0.06234567901234567,4.925308641975308,0)" xlink:href="#at"/><use transform="matrix(0.06234567901234567,0,0,0.06234567901234567,17.39444444444444,0)" xlink:href="#aD"/><use transform="matrix(0.06234567901234567,0,0,0.06234567901234567,28.61666666666666,0)" xlink:href="#aN"/><use transform="matrix(0.06234567901234567,0,0,0.06234567901234567,39.83888888888888,0)" xlink:href="#aJ"/><use transform="matrix(0.06234567901234567,0,0,0.06234567901234567,52.308024691358014,0)" xlink:href="#aw"/></g><g id="r"><use transform="matrix(0.06234567901234567,0,0,0.06234567901234567,0,0)" xlink:href="#aw"/><use transform="matrix(0.06234567901234567,0,0,0.06234567901234567,12.469135802469133,0)" xlink:href="#az"/><use transform="matrix(0.06234567901234567,0,0,0.06234567901234567,24.938271604938265,0)" xlink:href="#aA"/><use transform="matrix(0.06234567901234567,0,0,0.06234567901234567,32.3574074074074,0)" xlink:href="#aH"/><use transform="matrix(0.06234567901234567,0,0,0.06234567901234567,37.28271604938271,0)" xlink:href="#at"/><use transform="matrix(0.06234567901234567,0,0,0.06234567901234567,49.75185185185184,0)" xlink:href="#aP"/></g><path fill="#5d646f" d="M169-182c-1-43-94-46-97-3 18 66 151 10 154 114 3 95-165 93-204 36-6-8-10-19-12-30l50-8c3 46 112 56 116 5-17-69-150-10-154-114-4-87 153-88 188-35 5 8 8 18 10 28" id="aQ"/><path fill="#5d646f" d="M115-3C79 11 28 4 28-45v-112H4v-33h27l15-45h31v45h36v33H77v99c-1 23 16 31 38 25v30" id="aR"/><path fill="#5d646f" d="M133-34C117-15 103 5 69 4 32 3 11-16 11-54c-1-60 55-63 116-61 1-26-3-47-28-47-18 1-26 9-28 27l-52-2c7-38 36-58 82-57s74 22 75 68l1 82c-1 14 12 18 25 15v27c-30 8-71 5-69-32zm-48 3c29 0 43-24 42-57-32 0-66-3-65 30 0 17 8 27 23 27" id="aS"/><path fill="#5d646f" d="M147 0L96-86 75-71V0H25v-261h50v150l67-79h53l-66 74L201 0h-54" id="aT"/><path fill="#5d646f" d="M25-224v-37h50v37H25zM25 0v-190h50V0H25" id="aU"/><path fill="#5d646f" d="M135-194c87-1 58 113 63 194h-50c-7-57 23-157-34-157-59 0-34 97-39 157H25l-1-190h47c2 12-1 28 3 38 12-26 28-41 61-42" id="aV"/><path fill="#5d646f" d="M195-6C206 82 75 100 31 46c-4-6-6-13-8-21l49-6c3 16 16 24 34 25 40 0 42-37 40-79-11 22-30 35-61 35-53 0-70-43-70-97 0-56 18-96 73-97 30 0 46 14 59 34l2-30h47zm-90-29c32 0 41-27 41-63 0-35-9-62-40-62-32 0-39 29-40 63 0 36 9 62 39 62" id="aW"/><g id="s"><use transform="matrix(0.06790123456790123,0,0,0.06790123456790123,0,0)" xlink:href="#aQ"/><use transform="matrix(0.06790123456790123,0,0,0.06790123456790123,16.296296296296294,0)" xlink:href="#aR"/><use transform="matrix(0.06790123456790123,0,0,0.06790123456790123,24.37654320987654,0)" xlink:href="#aS"/><use transform="matrix(0.06790123456790123,0,0,0.06790123456790123,37.95679012345679,0)" xlink:href="#aT"/><use transform="matrix(0.06790123456790123,0,0,0.06790123456790123,51.53703703703703,0)" xlink:href="#aU"/><use transform="matrix(0.06790123456790123,0,0,0.06790123456790123,58.32716049382715,0)" xlink:href="#aV"/><use transform="matrix(0.06790123456790123,0,0,0.06790123456790123,73.19753086419752,0)" xlink:href="#aW"/></g><path fill="#5d646f" d="M88-194c31-1 46 15 58 34l-1-101h50l1 261h-48c-2-10 0-23-3-31C134-8 116 4 84 4 32 4 16-41 15-95c0-56 19-97 73-99zm17 164c33 0 40-30 41-66 1-37-9-64-41-64s-38 30-39 65c0 43 13 65 39 65" id="aX"/><g id="t"><use transform="matrix(0.06790123456790123,0,0,0.06790123456790123,0,0)" xlink:href="#aS"/><use transform="matrix(0.06790123456790123,0,0,0.06790123456790123,13.580246913580247,0)" xlink:href="#aV"/><use transform="matrix(0.06790123456790123,0,0,0.06790123456790123,28.450617283950617,0)" xlink:href="#aX"/></g><path fill="#5d646f" d="M147 0H94L2-248h55l64 206c17-72 42-137 63-206h54" id="aY"/><path fill="#5d646f" d="M110-194c64 0 96 36 96 99 0 64-35 99-97 99-61 0-95-36-95-99 0-62 34-99 96-99zm-1 164c35 0 45-28 45-65 0-40-10-65-43-65-34 0-45 26-45 65 0 36 10 65 43 65" id="aZ"/><g id="u"><use transform="matrix(0.06790123456790123,0,0,0.06790123456790123,0,0)" xlink:href="#aY"/><use transform="matrix(0.06790123456790123,0,0,0.06790123456790123,14.46296296296296,0)" xlink:href="#aZ"/><use transform="matrix(0.06790123456790123,0,0,0.06790123456790123,29.33333333333333,0)" xlink:href="#aR"/><use transform="matrix(0.06790123456790123,0,0,0.06790123456790123,37.413580246913575,0)" xlink:href="#aU"/><use transform="matrix(0.06790123456790123,0,0,0.06790123456790123,44.203703703703695,0)" xlink:href="#aV"/><use transform="matrix(0.06790123456790123,0,0,0.06790123456790123,59.07407407407406,0)" xlink:href="#aW"/></g><path fill="#3a414a" d="M52-101C46-14 166-7 216-51l9-45h-74l6-28h105l-18 87C217-12 181 4 130 4 60 4 18-31 18-101c0-106 78-167 188-146 30 6 48 27 59 54l-34 9c-10-26-31-41-67-40-75 1-107 50-112 123" id="ba"/><path fill="#3a414a" d="M30-147c31-64 166-65 159 27C183-49 158 1 86 4 9 8 1-88 30-147zM88-20c53 0 68-48 68-100 0-31-11-51-44-50-52 1-68 46-68 97 0 32 13 53 44 53" id="bb"/><path fill="#3a414a" d="M89 0H52L20-190h33L74-25l89-165h34" id="bc"/><path fill="#3a414a" d="M111-194c62-3 86 47 72 106H45c-7 38 6 69 45 68 27-1 43-14 53-32l24 11C152-15 129 4 87 4 38 3 12-23 12-71c0-70 32-119 99-123zm44 81c14-66-71-72-95-28-4 8-8 17-11 28h106" id="bd"/><path fill="#3a414a" d="M66-151c12-25 30-51 66-40l-6 26C45-176 58-65 38 0H6l36-190h30" id="be"/><path fill="#3a414a" d="M67-158c22-48 132-52 116 29L158 0h-32l25-140c3-38-53-32-70-12C52-117 51-52 38 0H6l36-190h30" id="bf"/><path fill="#3a414a" d="M165-48c-4 18 1 34 23 27l-3 20c-29 8-62 0-52-35h-2C116-14 99 4 63 4 30 4 8-16 8-49c0-68 71-67 138-67 10-26 0-56-31-54-26 1-42 9-47 31l-32-5c8-67 160-71 144 15-5 28-9 54-15 81zM42-50c3 52 80 24 89-6 7-12 7-24 11-38-47 1-103-4-100 44" id="bg"/><path fill="#3a414a" d="M44-68c0 29 11 47 38 47 30 0 42-19 51-41l28 9C148-21 126 4 82 4 31 4 10-29 12-85c3-77 74-140 146-93 12 8 15 23 18 40l-31 5c-1-22-13-36-36-36-52 0-65 49-65 101" id="bh"/><g id="v"><use transform="matrix(0.05,0,0,0.05,0,0)" xlink:href="#ba"/><use transform="matrix(0.05,0,0,0.05,14,0)" xlink:href="#bb"/><use transform="matrix(0.05,0,0,0.05,24,0)" xlink:href="#bc"/><use transform="matrix(0.05,0,0,0.05,33,0)" xlink:href="#bd"/><use transform="matrix(0.05,0,0,0.05,43,0)" xlink:href="#be"/><use transform="matrix(0.05,0,0,0.05,48.95,0)" xlink:href="#bf"/><use transform="matrix(0.05,0,0,0.05,58.95,0)" xlink:href="#bg"/><use transform="matrix(0.05,0,0,0.05,68.95,0)" xlink:href="#bf"/><use transform="matrix(0.05,0,0,0.05,78.95,0)" xlink:href="#bh"/><use transform="matrix(0.05,0,0,0.05,87.95,0)" xlink:href="#bd"/></g><path fill="#3a414a" d="M238-179c0 84-86 86-175 82L45 0H11l48-248c82 0 179-12 179 69zm-34 1c0-53-64-42-116-43l-19 98c63 0 135 9 135-55" id="bi"/><path fill="#3a414a" d="M103-194c29 0 47 14 56 36 2-11 5-23 8-32h30L160-5C157 61 82 97 21 62 9 55 4 45 1 30l28-7c7 42 83 31 92-3 4-16 9-38 13-55-13 20-29 36-62 36-40 0-60-25-60-64 0-71 23-131 91-131zm4 24c-53 0-58 54-61 104-2 27 10 44 36 44 49 0 65-50 67-102 1-29-15-46-42-46" id="bj"/><g id="w"><use transform="matrix(0.05,0,0,0.05,0,0)" xlink:href="#bi"/><use transform="matrix(0.05,0,0,0.05,12,0)" xlink:href="#bg"/><use transform="matrix(0.05,0,0,0.05,22,0)" xlink:href="#bj"/><use transform="matrix(0.05,0,0,0.05,32,0)" xlink:href="#bd"/></g><path fill="#3a414a" d="M17-49c1-102 45-165 103-212h30C92-210 49-145 49-46 49 4 63 43 85 75H54C30 43 18 2 17-49" id="bk"/><path fill="#3a414a" d="M98-137C97-35 54 29-4 75h-31C23 23 67-41 67-140c0-50-15-89-37-121h31c24 32 36 73 37 124" id="bl"/><g id="x"><use transform="matrix(0.05,0,0,0.05,0,0)" xlink:href="#bk"/><use transform="matrix(0.05,0,0,0.05,5.95,0)" xlink:href="#ba"/><use transform="matrix(0.05,0,0,0.05,19.95,0)" xlink:href="#bi"/><use transform="matrix(0.05,0,0,0.05,31.950000000000003,0)" xlink:href="#bl"/></g><path fill="#3a414a" d="M50-231l6-30h32l-6 30H50zM6 0l37-190h31L37 0H6" id="bm"/><path fill="#3a414a" d="M55-144c13 50 104 24 104 88C159 21 15 23 1-39l26-10c6 40 102 42 102-4-13-50-104-23-104-87 0-71 143-71 148-8l-29 4c-5-35-85-37-89 0" id="bn"/><g id="y"><use transform="matrix(0.05,0,0,0.05,0,0)" xlink:href="#bm"/><use transform="matrix(0.05,0,0,0.05,3.95,0)" xlink:href="#bn"/></g><use transform="matrix(0.05,0,0,0.05,0,0)" xlink:href="#bg" id="z"/><path fill="#3a414a" d="M187 0l-14-72H61L19 0h-37l149-248h38L221 0h-34zm-19-99l-22-123L76-99h92" id="bo"/><path fill="#3a414a" d="M67-162c32-53 139-36 121 50C175-51 163 2 97 4 68 4 52-11 42-31 38 6 28 39 22 75H-9l50-265h29c-1 10 0 20-3 28zm89 36c0-26-10-43-35-43-54 0-67 50-69 103-1 29 14 45 42 46 53 0 62-58 62-106" id="bp"/><path fill="#3a414a" d="M51-54c-9 22 5 41 31 30L79-1C43 14 10-4 19-52l22-115H19l5-23h22l19-43h21l-9 43h35l-4 23H73" id="bq"/><g id="A"><use transform="matrix(0.05,0,0,0.05,0,0)" xlink:href="#bo"/><use transform="matrix(0.05,0,0,0.05,12,0)" xlink:href="#bp"/><use transform="matrix(0.05,0,0,0.05,22,0)" xlink:href="#bq"/><use transform="matrix(0.05,0,0,0.05,27,0)" xlink:href="#bb"/><use transform="matrix(0.05,0,0,0.05,37,0)" xlink:href="#bn"/></g><path fill="#3a414a" d="M188 0h-37l-8-164L71 0H34L18-190h31l8 164 75-164h34l8 164 74-164h31" id="br"/><path fill="#3a414a" d="M68-162c25-46 127-43 121 31C183-60 169 1 98 4 69 5 53-11 43-31L36 0H5l52-261h31zm88 36c2-27-9-43-34-43-55 0-70 51-70 103 0 29 15 45 43 46 52 0 58-58 61-106" id="bs"/><g id="B"><use transform="matrix(0.05,0,0,0.05,0,0)" xlink:href="#br"/><use transform="matrix(0.05,0,0,0.05,12.950000000000001,0)" xlink:href="#bd"/><use transform="matrix(0.05,0,0,0.05,22.950000000000003,0)" xlink:href="#bs"/></g><g id="C"><use transform="matrix(0.05,0,0,0.05,0,0)" xlink:href="#bg"/><use transform="matrix(0.05,0,0,0.05,10,0)" xlink:href="#bp"/><use transform="matrix(0.05,0,0,0.05,20,0)" xlink:href="#bp"/></g><g id="D"><use transform="matrix(0.05,0,0,0.05,0,0)" xlink:href="#bq"/><use transform="matrix(0.05,0,0,0.05,5,0)" xlink:href="#bb"/></g><path fill="#3a414a" d="M248-111c6-24 9-61-24-58-72 9-57 108-77 169h-31l26-142c3-37-50-30-64-10C52-115 50-51 37 0H6l36-190h30c-1 10-6 24-4 32 13-43 101-52 105 5 13-22 29-41 61-41 90 0 28 129 23 194h-31" id="bt"/><g id="E"><use transform="matrix(0.05,0,0,0.05,0,0)" xlink:href="#bt"/><use transform="matrix(0.05,0,0,0.05,14.950000000000001,0)" xlink:href="#bg"/><use transform="matrix(0.05,0,0,0.05,24.950000000000003,0)" xlink:href="#bf"/><use transform="matrix(0.05,0,0,0.05,34.95,0)" xlink:href="#bg"/><use transform="matrix(0.05,0,0,0.05,44.95,0)" xlink:href="#bj"/><use transform="matrix(0.05,0,0,0.05,54.95,0)" xlink:href="#bd"/></g><path fill="#3a414a" d="M198-190L69 30C53 58 25 83-20 72c4-11-1-27 19-22 33-1 43-29 59-52L20-190h32L79-34l84-156h35" id="bu"/><path fill="#3a414a" d="M67 3c-93-2-31-127-26-193h32L48-50c-3 39 53 32 70 12 30-34 30-101 43-152h32L157 0h-30c1-10 6-24 4-33-14 20-29 37-64 36" id="bv"/><g id="F"><use transform="matrix(0.05,0,0,0.05,0,0)" xlink:href="#bu"/><use transform="matrix(0.05,0,0,0.05,9,0)" xlink:href="#bb"/><use transform="matrix(0.05,0,0,0.05,19,0)" xlink:href="#bv"/><use transform="matrix(0.05,0,0,0.05,29,0)" xlink:href="#be"/></g><path fill="#3a414a" d="M127 0L80-88 50-66 37 0H6l51-261h31L57-100l99-90h39l-93 82L161 0h-34" id="bw"/><g id="G"><use transform="matrix(0.05,0,0,0.05,0,0)" xlink:href="#bn"/><use transform="matrix(0.05,0,0,0.05,9,0)" xlink:href="#bq"/><use transform="matrix(0.05,0,0,0.05,14,0)" xlink:href="#bg"/><use transform="matrix(0.05,0,0,0.05,24,0)" xlink:href="#bw"/><use transform="matrix(0.05,0,0,0.05,33,0)" xlink:href="#bm"/><use transform="matrix(0.05,0,0,0.05,36.95,0)" xlink:href="#bf"/><use transform="matrix(0.05,0,0,0.05,46.95,0)" xlink:href="#bj"/></g><path fill="#3a414a" d="M133-28C103 26-5 8 13-77c13-62 24-115 90-117 29-1 46 15 56 35l19-102h32L160 0h-30zM45-64c-2 27 10 43 35 43 54-1 69-50 69-103 0-29-15-46-42-46-53-1-58 58-62 106" id="bx"/><g id="H"><use transform="matrix(0.05,0,0,0.05,0,0)" xlink:href="#bg"/><use transform="matrix(0.05,0,0,0.05,10,0)" xlink:href="#bf"/><use transform="matrix(0.05,0,0,0.05,20,0)" xlink:href="#bx"/></g><path fill="#3a414a" d="M14 0l8-38h34L48 0H14" id="by"/><g id="I"><use transform="matrix(0.05,0,0,0.05,0,0)" xlink:href="#bc"/><use transform="matrix(0.05,0,0,0.05,9,0)" xlink:href="#bb"/><use transform="matrix(0.05,0,0,0.05,19,0)" xlink:href="#bq"/><use transform="matrix(0.05,0,0,0.05,24,0)" xlink:href="#bm"/><use transform="matrix(0.05,0,0,0.05,27.950000000000003,0)" xlink:href="#bf"/><use transform="matrix(0.05,0,0,0.05,37.95,0)" xlink:href="#bj"/><use transform="matrix(0.05,0,0,0.05,47.95,0)" xlink:href="#by"/></g><g id="J"><use transform="matrix(0.06234567901234567,0,0,0.06234567901234567,0,0)" xlink:href="#aP"/><use transform="matrix(0.06234567901234567,0,0,0.06234567901234567,12.469135802469133,0)" xlink:href="#az"/><use transform="matrix(0.06234567901234567,0,0,0.06234567901234567,24.938271604938265,0)" xlink:href="#aM"/><use transform="matrix(0.06234567901234567,0,0,0.06234567901234567,29.86358024691357,0)" xlink:href="#az"/><use transform="matrix(0.06234567901234567,0,0,0.06234567901234567,42.332716049382704,0)" xlink:href="#aF"/><use transform="matrix(0.06234567901234567,0,0,0.06234567901234567,54.801851851851836,0)" xlink:href="#aC"/><use transform="matrix(0.06234567901234567,0,0,0.06234567901234567,67.27098765432098,0)" xlink:href="#au"/><use transform="matrix(0.06234567901234567,0,0,0.06234567901234567,73.50555555555555,0)" xlink:href="#az"/></g><g id="K"><use transform="matrix(0.06234567901234567,0,0,0.06234567901234567,0,0)" xlink:href="#au"/><use transform="matrix(0.06234567901234567,0,0,0.06234567901234567,6.234567901234566,0)" xlink:href="#at"/></g><path fill="#3a414a" d="M106-169C34-169 62-67 57 0H25v-261h32l-1 103c12-21 28-36 61-36 89 0 53 116 60 194h-32v-121c2-32-8-49-39-48" id="bz"/><g id="L"><use transform="matrix(0.06234567901234567,0,0,0.06234567901234567,0,0)" xlink:href="#au"/><use transform="matrix(0.06234567901234567,0,0,0.06234567901234567,6.234567901234566,0)" xlink:href="#bz"/><use transform="matrix(0.06234567901234567,0,0,0.06234567901234567,18.7037037037037,0)" xlink:href="#az"/></g><g id="M"><use transform="matrix(0.06234567901234567,0,0,0.06234567901234567,0,0)" xlink:href="#at"/><use transform="matrix(0.06234567901234567,0,0,0.06234567901234567,12.469135802469133,0)" xlink:href="#aw"/><use transform="matrix(0.06234567901234567,0,0,0.06234567901234567,24.938271604938265,0)" xlink:href="#az"/><use transform="matrix(0.06234567901234567,0,0,0.06234567901234567,37.4074074074074,0)" xlink:href="#aA"/><use transform="matrix(0.06234567901234567,0,0,0.06234567901234567,44.82654320987653,0)" xlink:href="#aC"/><use transform="matrix(0.06234567901234567,0,0,0.06234567901234567,57.295679012345666,0)" xlink:href="#au"/><use transform="matrix(0.06234567901234567,0,0,0.06234567901234567,63.53024691358023,0)" xlink:href="#at"/><use transform="matrix(0.06234567901234567,0,0,0.06234567901234567,75.99938271604935,0)" xlink:href="#aA"/></g><g id="N"><use transform="matrix(0.06234567901234567,0,0,0.06234567901234567,0,0)" xlink:href="#ay"/><use transform="matrix(0.06234567901234567,0,0,0.06234567901234567,11.22222222222222,0)" xlink:href="#at"/><use transform="matrix(0.06234567901234567,0,0,0.06234567901234567,23.691358024691354,0)" xlink:href="#au"/><use transform="matrix(0.06234567901234567,0,0,0.06234567901234567,29.92592592592592,0)" xlink:href="#az"/><use transform="matrix(0.06234567901234567,0,0,0.06234567901234567,42.39506172839505,0)" xlink:href="#aA"/><use transform="matrix(0.06234567901234567,0,0,0.06234567901234567,48.56728395061727,0)" xlink:href="#aO"/></g><g id="O"><use transform="matrix(0.06234567901234567,0,0,0.06234567901234567,0,0)" xlink:href="#aJ"/><use transform="matrix(0.06234567901234567,0,0,0.06234567901234567,12.469135802469133,0)" xlink:href="#ax"/><use transform="matrix(0.06234567901234567,0,0,0.06234567901234567,23.691358024691354,0)" xlink:href="#aH"/><use transform="matrix(0.06234567901234567,0,0,0.06234567901234567,28.61666666666666,0)" xlink:href="#aB"/><use transform="matrix(0.06234567901234567,0,0,0.06234567901234567,41.08580246913579,0)" xlink:href="#aF"/></g><g id="P"><use transform="matrix(0.06234567901234567,0,0,0.06234567901234567,0,0)" xlink:href="#ay"/><use transform="matrix(0.06234567901234567,0,0,0.06234567901234567,11.22222222222222,0)" xlink:href="#at"/><use transform="matrix(0.06234567901234567,0,0,0.06234567901234567,23.691358024691354,0)" xlink:href="#au"/><use transform="matrix(0.06234567901234567,0,0,0.06234567901234567,29.92592592592592,0)" xlink:href="#az"/><use transform="matrix(0.06234567901234567,0,0,0.06234567901234567,42.39506172839505,0)" xlink:href="#aA"/></g><g id="Q"><use transform="matrix(0.06234567901234567,0,0,0.06234567901234567,0,0)" xlink:href="#aL"/><use transform="matrix(0.06234567901234567,0,0,0.06234567901234567,20.32469135802469,0)" xlink:href="#aC"/><use transform="matrix(0.06234567901234567,0,0,0.06234567901234567,32.79382716049382,0)" xlink:href="#aM"/><use transform="matrix(0.06234567901234567,0,0,0.06234567901234567,37.719135802469125,0)" xlink:href="#aM"/><use transform="matrix(0.06234567901234567,0,0,0.06234567901234567,42.64444444444443,0)" xlink:href="#az"/><use transform="matrix(0.06234567901234567,0,0,0.06234567901234567,55.113580246913564,0)" xlink:href="#au"/></g><g id="R"><use transform="matrix(0.06234567901234567,0,0,0.06234567901234567,0,0)" xlink:href="#aC"/><use transform="matrix(0.06234567901234567,0,0,0.06234567901234567,12.469135802469133,0)" xlink:href="#aP"/><use transform="matrix(0.06234567901234567,0,0,0.06234567901234567,24.938271604938265,0)" xlink:href="#aP"/><use transform="matrix(0.06234567901234567,0,0,0.06234567901234567,37.4074074074074,0)" xlink:href="#aA"/><use transform="matrix(0.06234567901234567,0,0,0.06234567901234567,44.82654320987653,0)" xlink:href="#az"/><use transform="matrix(0.06234567901234567,0,0,0.06234567901234567,57.295679012345666,0)" xlink:href="#ax"/><use transform="matrix(0.06234567901234567,0,0,0.06234567901234567,68.51790123456789,0)" xlink:href="#ax"/><use transform="matrix(0.06234567901234567,0,0,0.06234567901234567,79.7401234567901,0)" xlink:href="#az"/><use transform="matrix(0.06234567901234567,0,0,0.06234567901234567,92.20925925925923,0)" xlink:href="#ax"/></g><path fill="#3a414a" d="M140-251c81 0 123 46 123 126C263-46 219 4 140 4 59 4 17-45 17-125s42-126 123-126zm0 227c63 0 89-41 89-101s-29-99-89-99c-61 0-89 39-89 99S79-25 140-24" id="bA"/><g id="S"><use transform="matrix(0.06234567901234567,0,0,0.06234567901234567,0,0)" xlink:href="#bA"/><use transform="matrix(0.06234567901234567,0,0,0.06234567901234567,17.456790123456788,0)" xlink:href="#aw"/><use transform="matrix(0.06234567901234567,0,0,0.06234567901234567,29.92592592592592,0)" xlink:href="#az"/><use transform="matrix(0.06234567901234567,0,0,0.06234567901234567,42.39506172839505,0)" xlink:href="#aA"/><use transform="matrix(0.06234567901234567,0,0,0.06234567901234567,49.814197530864185,0)" xlink:href="#aC"/><use transform="matrix(0.06234567901234567,0,0,0.06234567901234567,62.28333333333332,0)" xlink:href="#au"/><use transform="matrix(0.06234567901234567,0,0,0.06234567901234567,68.51790123456789,0)" xlink:href="#at"/><use transform="matrix(0.06234567901234567,0,0,0.06234567901234567,80.98703703703703,0)" xlink:href="#aA"/><use transform="matrix(0.06234567901234567,0,0,0.06234567901234567,87.15925925925924,0)" xlink:href="#aO"/></g><g id="T"><use transform="matrix(0.06234567901234567,0,0,0.06234567901234567,0,0)" xlink:href="#aA"/><use transform="matrix(0.06234567901234567,0,0,0.06234567901234567,7.4191358024691345,0)" xlink:href="#aJ"/><use transform="matrix(0.06234567901234567,0,0,0.06234567901234567,19.888271604938268,0)" xlink:href="#aB"/><use transform="matrix(0.06234567901234567,0,0,0.06234567901234567,32.3574074074074,0)" xlink:href="#aB"/><use transform="matrix(0.06234567901234567,0,0,0.06234567901234567,44.82654320987653,0)" xlink:href="#aH"/><use transform="matrix(0.06234567901234567,0,0,0.06234567901234567,49.75185185185184,0)" xlink:href="#aB"/><use transform="matrix(0.06234567901234567,0,0,0.06234567901234567,62.22098765432097,0)" xlink:href="#aF"/></g><g id="U"><use transform="matrix(0.06234567901234567,0,0,0.06234567901234567,0,0)" xlink:href="#ay"/><use transform="matrix(0.06234567901234567,0,0,0.06234567901234567,11.22222222222222,0)" xlink:href="#aC"/><use transform="matrix(0.06234567901234567,0,0,0.06234567901234567,23.691358024691354,0)" xlink:href="#aM"/><use transform="matrix(0.06234567901234567,0,0,0.06234567901234567,28.61666666666666,0)" xlink:href="#aH"/><use transform="matrix(0.06234567901234567,0,0,0.06234567901234567,33.541975308641966,0)" xlink:href="#aP"/><use transform="matrix(0.06234567901234567,0,0,0.06234567901234567,46.0111111111111,0)" xlink:href="#aC"/><use transform="matrix(0.06234567901234567,0,0,0.06234567901234567,58.48024691358023,0)" xlink:href="#au"/><use transform="matrix(0.06234567901234567,0,0,0.06234567901234567,64.7148148148148,0)" xlink:href="#at"/><use transform="matrix(0.06234567901234567,0,0,0.06234567901234567,77.18395061728393,0)" xlink:href="#aA"/></g><g id="V"><use transform="matrix(0.06234567901234567,0,0,0.06234567901234567,0,0)" xlink:href="#aB"/><use transform="matrix(0.06234567901234567,0,0,0.06234567901234567,12.469135802469133,0)" xlink:href="#at"/><use transform="matrix(0.06234567901234567,0,0,0.06234567901234567,24.938271604938265,0)" xlink:href="#aP"/><use transform="matrix(0.06234567901234567,0,0,0.06234567901234567,37.4074074074074,0)" xlink:href="#az"/></g><g id="W"><use transform="matrix(0.06234567901234567,0,0,0.06234567901234567,0,0)" xlink:href="#au"/><use transform="matrix(0.06234567901234567,0,0,0.06234567901234567,6.234567901234566,0)" xlink:href="#bz"/><use transform="matrix(0.06234567901234567,0,0,0.06234567901234567,18.7037037037037,0)" xlink:href="#aC"/><use transform="matrix(0.06234567901234567,0,0,0.06234567901234567,31.17283950617283,0)" xlink:href="#au"/></g><g id="X"><use transform="matrix(0.06234567901234567,0,0,0.06234567901234567,0,0)" xlink:href="#aH"/><use transform="matrix(0.06234567901234567,0,0,0.06234567901234567,4.925308641975308,0)" xlink:href="#ax"/></g><g id="Y"><use transform="matrix(0.06234567901234567,0,0,0.06234567901234567,0,0)" xlink:href="#aC"/><use transform="matrix(0.06234567901234567,0,0,0.06234567901234567,12.469135802469133,0)" xlink:href="#aM"/><use transform="matrix(0.06234567901234567,0,0,0.06234567901234567,17.39444444444444,0)" xlink:href="#aA"/><use transform="matrix(0.06234567901234567,0,0,0.06234567901234567,24.813580246913574,0)" xlink:href="#az"/><use transform="matrix(0.06234567901234567,0,0,0.06234567901234567,37.28271604938271,0)" xlink:href="#aC"/><use transform="matrix(0.06234567901234567,0,0,0.06234567901234567,49.75185185185184,0)" xlink:href="#aP"/><use transform="matrix(0.06234567901234567,0,0,0.06234567901234567,62.22098765432097,0)" xlink:href="#aI"/></g><g id="Z"><use transform="matrix(0.06234567901234567,0,0,0.06234567901234567,0,0)" xlink:href="#ax"/><use transform="matrix(0.06234567901234567,0,0,0.06234567901234567,11.22222222222222,0)" xlink:href="#az"/><use transform="matrix(0.06234567901234567,0,0,0.06234567901234567,23.691358024691354,0)" xlink:href="#aM"/><use transform="matrix(0.06234567901234567,0,0,0.06234567901234567,28.61666666666666,0)" xlink:href="#az"/><use transform="matrix(0.06234567901234567,0,0,0.06234567901234567,41.08580246913579,0)" xlink:href="#aD"/><use transform="matrix(0.06234567901234567,0,0,0.06234567901234567,52.308024691358014,0)" xlink:href="#au"/><use transform="matrix(0.06234567901234567,0,0,0.06234567901234567,58.542592592592584,0)" xlink:href="#az"/><use transform="matrix(0.06234567901234567,0,0,0.06234567901234567,71.01172839506171,0)" xlink:href="#aP"/><use transform="matrix(0.06234567901234567,0,0,0.06234567901234567,83.48086419753085,0)" xlink:href="#aO"/></g><g id="aa"><use transform="matrix(0.06234567901234567,0,0,0.06234567901234567,0,0)" xlink:href="#aK"/><use transform="matrix(0.06234567901234567,0,0,0.06234567901234567,16.147530864197527,0)" xlink:href="#aH"/><use transform="matrix(0.06234567901234567,0,0,0.06234567901234567,21.072839506172834,0)" xlink:href="#aM"/><use transform="matrix(0.06234567901234567,0,0,0.06234567901234567,25.99814814814814,0)" xlink:href="#aM"/></g><path fill="#3a414a" d="M115-194c53 0 69 39 70 98 0 66-23 100-70 100C84 3 66-7 56-30L54 0H23l1-261h32v101c10-23 28-34 59-34zm-8 174c40 0 45-34 45-75 0-40-5-75-45-74-42 0-51 32-51 76 0 43 10 73 51 73" id="bB"/><g id="ab"><use transform="matrix(0.06234567901234567,0,0,0.06234567901234567,0,0)" xlink:href="#bB"/><use transform="matrix(0.06234567901234567,0,0,0.06234567901234567,12.469135802469133,0)" xlink:href="#az"/><use transform="matrix(0.06234567901234567,0,0,0.06234567901234567,24.938271604938265,0)" xlink:href="#aF"/><use transform="matrix(0.06234567901234567,0,0,0.06234567901234567,37.4074074074074,0)" xlink:href="#aH"/><use transform="matrix(0.06234567901234567,0,0,0.06234567901234567,42.332716049382704,0)" xlink:href="#aB"/></g><g id="ac"><use transform="matrix(0.06234567901234567,0,0,0.06234567901234567,0,0)" xlink:href="#ay"/><use transform="matrix(0.06234567901234567,0,0,0.06234567901234567,11.22222222222222,0)" xlink:href="#aC"/><use transform="matrix(0.06234567901234567,0,0,0.06234567901234567,23.691358024691354,0)" xlink:href="#aM"/><use transform="matrix(0.06234567901234567,0,0,0.06234567901234567,28.61666666666666,0)" xlink:href="#aH"/><use transform="matrix(0.06234567901234567,0,0,0.06234567901234567,33.541975308641966,0)" xlink:href="#aP"/><use transform="matrix(0.06234567901234567,0,0,0.06234567901234567,46.0111111111111,0)" xlink:href="#aC"/><use transform="matrix(0.06234567901234567,0,0,0.06234567901234567,58.48024691358023,0)" xlink:href="#au"/><use transform="matrix(0.06234567901234567,0,0,0.06234567901234567,64.7148148148148,0)" xlink:href="#aH"/><use transform="matrix(0.06234567901234567,0,0,0.06234567901234567,69.6401234567901,0)" xlink:href="#aB"/><use transform="matrix(0.06234567901234567,0,0,0.06234567901234567,82.10925925925923,0)" xlink:href="#aF"/></g><path fill="#3a414a" d="M137 0h-34L2-248h35l83 218 83-218h36" id="bC"/><g id="ad"><use transform="matrix(0.06234567901234567,0,0,0.06234567901234567,0,0)" xlink:href="#bC"/><use transform="matrix(0.06234567901234567,0,0,0.06234567901234567,13.716049382716047,0)" xlink:href="#at"/><use transform="matrix(0.06234567901234567,0,0,0.06234567901234567,26.18518518518518,0)" xlink:href="#au"/><use transform="matrix(0.06234567901234567,0,0,0.06234567901234567,32.419753086419746,0)" xlink:href="#az"/><use transform="matrix(0.06234567901234567,0,0,0.06234567901234567,44.88888888888888,0)" xlink:href="#aA"/></g><g id="ae"><use transform="matrix(0.06234567901234567,0,0,0.06234567901234567,0,0)" xlink:href="#bB"/><use transform="matrix(0.06234567901234567,0,0,0.06234567901234567,12.469135802469133,0)" xlink:href="#az"/></g><path fill="#3a414a" d="M101-234c-31-9-42 10-38 44h38v23H63V0H32v-167H5v-23h27c-7-52 17-82 69-68v24" id="bD"/><g id="af"><use transform="matrix(0.06234567901234567,0,0,0.06234567901234567,0,0)" xlink:href="#aB"/><use transform="matrix(0.06234567901234567,0,0,0.06234567901234567,12.469135802469133,0)" xlink:href="#at"/><use transform="matrix(0.06234567901234567,0,0,0.06234567901234567,24.938271604938265,0)" xlink:href="#au"/><use transform="matrix(0.06234567901234567,0,0,0.06234567901234567,31.17283950617283,0)" xlink:href="#aH"/><use transform="matrix(0.06234567901234567,0,0,0.06234567901234567,36.09814814814814,0)" xlink:href="#bD"/><use transform="matrix(0.06234567901234567,0,0,0.06234567901234567,42.33271604938271,0)" xlink:href="#aH"/><use transform="matrix(0.06234567901234567,0,0,0.06234567901234567,47.25802469135802,0)" xlink:href="#az"/><use transform="matrix(0.06234567901234567,0,0,0.06234567901234567,59.72716049382715,0)" xlink:href="#aP"/></g><g id="ag"><use transform="matrix(0.06234567901234567,0,0,0.06234567901234567,0,0)" xlink:href="#at"/><use transform="matrix(0.06234567901234567,0,0,0.06234567901234567,12.469135802469133,0)" xlink:href="#bD"/></g><g id="ah"><use transform="matrix(0.06234567901234567,0,0,0.06234567901234567,0,0)" xlink:href="#aF"/><use transform="matrix(0.06234567901234567,0,0,0.06234567901234567,12.469135802469133,0)" xlink:href="#at"/><use transform="matrix(0.06234567901234567,0,0,0.06234567901234567,24.938271604938265,0)" xlink:href="#ay"/><use transform="matrix(0.06234567901234567,0,0,0.06234567901234567,36.16049382716049,0)" xlink:href="#az"/><use transform="matrix(0.06234567901234567,0,0,0.06234567901234567,48.62962962962962,0)" xlink:href="#aA"/><use transform="matrix(0.06234567901234567,0,0,0.06234567901234567,56.048765432098755,0)" xlink:href="#aB"/><use transform="matrix(0.06234567901234567,0,0,0.06234567901234567,68.51790123456789,0)" xlink:href="#aC"/><use transform="matrix(0.06234567901234567,0,0,0.06234567901234567,80.98703703703703,0)" xlink:href="#aB"/><use transform="matrix(0.06234567901234567,0,0,0.06234567901234567,93.45617283950617,0)" xlink:href="#aD"/><use transform="matrix(0.06234567901234567,0,0,0.06234567901234567,104.67839506172838,0)" xlink:href="#az"/></g><g id="ai"><use transform="matrix(0.06234567901234567,0,0,0.06234567901234567,0,0)" xlink:href="#aw"/><use transform="matrix(0.06234567901234567,0,0,0.06234567901234567,12.469135802469133,0)" xlink:href="#aA"/><use transform="matrix(0.06234567901234567,0,0,0.06234567901234567,19.888271604938268,0)" xlink:href="#at"/><use transform="matrix(0.06234567901234567,0,0,0.06234567901234567,32.3574074074074,0)" xlink:href="#aw"/><use transform="matrix(0.06234567901234567,0,0,0.06234567901234567,44.82654320987653,0)" xlink:href="#at"/><use transform="matrix(0.06234567901234567,0,0,0.06234567901234567,57.295679012345666,0)" xlink:href="#ax"/><use transform="matrix(0.06234567901234567,0,0,0.06234567901234567,68.51790123456789,0)" xlink:href="#aC"/><use transform="matrix(0.06234567901234567,0,0,0.06234567901234567,80.98703703703703,0)" xlink:href="#aM"/><use transform="matrix(0.06234567901234567,0,0,0.06234567901234567,85.91234567901233,0)" xlink:href="#ax"/><use transform="matrix(0.06234567901234567,0,0,0.06234567901234567,97.13456790123455,0)" xlink:href="#aO"/></g><g id="aj"><use transform="matrix(0.06234567901234567,0,0,0.06234567901234567,0,0)" xlink:href="#aD"/><use transform="matrix(0.06234567901234567,0,0,0.06234567901234567,11.22222222222222,0)" xlink:href="#aA"/><use transform="matrix(0.06234567901234567,0,0,0.06234567901234567,18.641358024691353,0)" xlink:href="#az"/><use transform="matrix(0.06234567901234567,0,0,0.06234567901234567,31.110493827160486,0)" xlink:href="#aC"/><use transform="matrix(0.06234567901234567,0,0,0.06234567901234567,43.57962962962962,0)" xlink:href="#au"/><use transform="matrix(0.06234567901234567,0,0,0.06234567901234567,49.81419753086419,0)" xlink:href="#az"/><use transform="matrix(0.06234567901234567,0,0,0.06234567901234567,62.283333333333324,0)" xlink:href="#aP"/></g><g id="ak"><use transform="matrix(0.06234567901234567,0,0,0.06234567901234567,0,0)" xlink:href="#bB"/><use transform="matrix(0.06234567901234567,0,0,0.06234567901234567,12.469135802469133,0)" xlink:href="#aI"/></g><g id="al"><use transform="matrix(0.06234567901234567,0,0,0.06234567901234567,0,0)" xlink:href="#av"/><use transform="matrix(0.06234567901234567,0,0,0.06234567901234567,14.96296296296296,0)" xlink:href="#aw"/><use transform="matrix(0.06234567901234567,0,0,0.06234567901234567,27.432098765432094,0)" xlink:href="#au"/><use transform="matrix(0.06234567901234567,0,0,0.06234567901234567,33.66666666666666,0)" xlink:href="#at"/><use transform="matrix(0.06234567901234567,0,0,0.06234567901234567,46.13580246913579,0)" xlink:href="#ax"/></g><g id="am"><use transform="matrix(0.06234567901234567,0,0,0.06234567901234567,0,0)" xlink:href="#bC"/><use transform="matrix(0.06234567901234567,0,0,0.06234567901234567,13.716049382716047,0)" xlink:href="#at"/><use transform="matrix(0.06234567901234567,0,0,0.06234567901234567,26.18518518518518,0)" xlink:href="#au"/><use transform="matrix(0.06234567901234567,0,0,0.06234567901234567,32.419753086419746,0)" xlink:href="#az"/><use transform="matrix(0.06234567901234567,0,0,0.06234567901234567,44.88888888888888,0)" xlink:href="#aA"/><use transform="matrix(0.06234567901234567,0,0,0.06234567901234567,51.0611111111111,0)" xlink:href="#aO"/></g><g id="an"><use transform="matrix(0.06234567901234567,0,0,0.06234567901234567,0,0)" xlink:href="#aC"/><use transform="matrix(0.06234567901234567,0,0,0.06234567901234567,12.469135802469133,0)" xlink:href="#aP"/><use transform="matrix(0.06234567901234567,0,0,0.06234567901234567,24.938271604938265,0)" xlink:href="#aP"/><use transform="matrix(0.06234567901234567,0,0,0.06234567901234567,37.4074074074074,0)" xlink:href="#aA"/><use transform="matrix(0.06234567901234567,0,0,0.06234567901234567,44.82654320987653,0)" xlink:href="#az"/><use transform="matrix(0.06234567901234567,0,0,0.06234567901234567,57.295679012345666,0)" xlink:href="#ax"/><use transform="matrix(0.06234567901234567,0,0,0.06234567901234567,68.51790123456789,0)" xlink:href="#ax"/><use transform="matrix(0.06234567901234567,0,0,0.06234567901234567,79.7401234567901,0)" xlink:href="#aO"/></g><g id="ao"><use transform="matrix(0.06234567901234567,0,0,0.06234567901234567,0,0)" xlink:href="#aK"/><use transform="matrix(0.06234567901234567,0,0,0.06234567901234567,16.147530864197527,0)" xlink:href="#aH"/><use transform="matrix(0.06234567901234567,0,0,0.06234567901234567,21.072839506172834,0)" xlink:href="#aM"/><use transform="matrix(0.06234567901234567,0,0,0.06234567901234567,25.99814814814814,0)" xlink:href="#aM"/></g><g id="ap"><use transform="matrix(0.06234567901234567,0,0,0.06234567901234567,0,0)" xlink:href="#ay"/><use transform="matrix(0.06234567901234567,0,0,0.06234567901234567,11.22222222222222,0)" xlink:href="#at"/><use transform="matrix(0.06234567901234567,0,0,0.06234567901234567,23.691358024691354,0)" xlink:href="#au"/><use transform="matrix(0.06234567901234567,0,0,0.06234567901234567,29.92592592592592,0)" xlink:href="#az"/></g><g id="aq"><use transform="matrix(0.06234567901234567,0,0,0.06234567901234567,0,0)" xlink:href="#at"/><use transform="matrix(0.06234567901234567,0,0,0.06234567901234567,12.469135802469133,0)" xlink:href="#aB"/></g><g id="ar"><use transform="matrix(0.06234567901234567,0,0,0.06234567901234567,0,0)" xlink:href="#aw"/><use transform="matrix(0.06234567901234567,0,0,0.06234567901234567,12.469135802469133,0)" xlink:href="#aA"/><use transform="matrix(0.06234567901234567,0,0,0.06234567901234567,19.888271604938268,0)" xlink:href="#at"/><use transform="matrix(0.06234567901234567,0,0,0.06234567901234567,32.3574074074074,0)" xlink:href="#aw"/><use transform="matrix(0.06234567901234567,0,0,0.06234567901234567,44.82654320987653,0)" xlink:href="#at"/><use transform="matrix(0.06234567901234567,0,0,0.06234567901234567,57.295679012345666,0)" xlink:href="#ax"/><use transform="matrix(0.06234567901234567,0,0,0.06234567901234567,68.51790123456789,0)" xlink:href="#aC"/><use transform="matrix(0.06234567901234567,0,0,0.06234567901234567,80.98703703703703,0)" xlink:href="#aM"/></g></defs></g></svg>