<svg xmlns="http://www.w3.org/2000/svg" xmlns:xlink="http://www.w3.org/1999/xlink" xmlns:lucid="lucid" width="980" height="975.5"><g transform="translate(-114.16666666666663 108.58333333331683)" lucid:page-tab-id="0_0"><path d="M342.17-68.58c17.67 0 32 17.9 32 40s-14.33 40-32 40h-96c-17.68 0-32-17.9-32-40s14.32-40 32-40z" stroke="#282c33" fill="#fff"/><use xlink:href="#a" transform="matrix(1,0,0,1,219.16666666666708,-63.58333333331683) translate(48.99722222222223 39.420833333333334)"/><path d="M627.77 536.22a10.67 10.67 0 0 1 12.8 0l67.2 50.4a6 6 0 0 1 0 9.6l-67.2 50.4a10.67 10.67 0 0 1-12.8 0l-67.2-50.4a6 6 0 0 1 0-9.6z" stroke="#54c45e" stroke-width="4" fill="#fff"/><use xlink:href="#b" transform="matrix(1,0,0,1,559.1666666666666,536.4166666666831) translate(35.259259259259274 45.13333333333333)"/><use xlink:href="#c" transform="matrix(1,0,0,1,559.1666666666666,536.4166666666831) translate(27.79074074074076 74.73333333333333)"/><path d="M134.17 68.48a8 8 0 0 1 8-8h304a8 8 0 0 1 8 8v64a8 8 0 0 1-8 8h-304a8 8 0 0 1-8-8z" stroke="#282c33" stroke-width="2" fill="#fff"/><use xlink:href="#d" transform="matrix(1,0,0,1,139.16666666666663,65.47540092757981) translate(35.98333333333338 39.420833333333334)"/><use xlink:href="#e" transform="matrix(1,0,0,1,139.16666666666663,65.47540092757981) translate(134.44444444444446 39.420833333333334)"/><use xlink:href="#f" transform="matrix(1,0,0,1,139.16666666666663,65.47540092757981) translate(167.33333333333334 39.420833333333334)"/><use xlink:href="#g" transform="matrix(1,0,0,1,139.16666666666663,65.47540092757981) translate(267.1648148148148 39.420833333333334)"/><path d="M294.17 12.42v30.72" stroke="#333" fill="none"/><path d="M294.67 12.43h-1v-.5h1z" stroke="#333" stroke-width=".05" fill="#333"/><path d="M294.17 57.9l-4.64-14.26h9.27z" stroke="#333" fill="#333"/><path d="M727.43 591.92h-14.75v-1h14.75zm92.34 0h-43.45v-1h43.45z" stroke="#333" stroke-width=".05" fill="#333"/><path d="M712.7 591.92h-.57l.05-.5-.05-.5h.56z" fill="#333"/><path d="M712.7 591.94h-.6l.05-.52-.05-.53h.6zm-.54-1l.04.48-.04.47h.5v-.96z" stroke="#333" stroke-width=".05" fill="#333"/><path d="M834.54 591.42l-14.27 4.63v-9.27z" fill="#333"/><path d="M836.16 591.42l-16.4 5.32V586.1zm-15.4 3.94l12.16-3.94-12.15-3.95z" stroke="#333" stroke-width=".05" fill="#333"/><use xlink:href="#h" transform="matrix(1,0,0,1,727.4346396562285,576.7500000000165) translate(0 19.555555555555557)"/><path d="M634.67 750.53h-1v-52.3h1zm0-81.62h-1v-17.65h1z" stroke="#333" stroke-width=".05" fill="#333"/><path d="M634.17 650.75l.5-.03v.55h-1v-.55z" fill="#333"/><path d="M634.17 650.73l.52-.03v.6h-1.06v-.6zm-.48.5h.94v-.48l-.47.03-.48-.03z" stroke="#333" stroke-width=".05" fill="#333"/><path d="M634.17 765.3l-4.64-14.27h9.27z" fill="#333"/><path d="M634.17 766.92l-5.33-16.4h10.65zm-3.95-15.4l3.95 12.16 3.94-12.15z" stroke="#333" stroke-width=".05" fill="#333"/><use xlink:href="#i" transform="matrix(1,0,0,1,615.8672839506172,668.9087068699079) translate(0 19.555555555555557)"/><path d="M682.17 766.92c17.67 0 32 17.9 32 40s-14.33 40-32 40h-96c-17.68 0-32-17.9-32-40s14.32-40 32-40z" stroke="#000" stroke-opacity="0" fill="#c3f7c8"/><use xlink:href="#j" transform="matrix(1,0,0,1,559.1666666666666,771.9166666666501) translate(46.227222222222224 24.10833333333333)"/><use xlink:href="#k" transform="matrix(1,0,0,1,559.1666666666666,771.9166666666501) translate(23.033703703703715 53.70833333333333)"/><path d="M294.17 264.93v24.2" stroke="#333" fill="none"/><path d="M294.67 264.94h-1v-.5h1z" stroke="#333" stroke-width=".05" fill="#333"/><path d="M294.17 303.9l-4.64-14.26h9.27z" stroke="#333" fill="#333"/><path d="M294.17 141.93v24.21" stroke="#333" fill="none"/><path d="M294.67 141.94h-1v-.5h1z" stroke="#333" stroke-width=".05" fill="#333"/><path d="M294.17 180.9l-4.64-14.26h9.27z" stroke="#333" fill="#333"/><path d="M294.17 387.93v24.2" stroke="#333" fill="none"/><path d="M294.67 387.94h-1v-.5h1z" stroke="#333" stroke-width=".05" fill="#333"/><path d="M294.17 426.9l-4.64-14.26h9.27z" stroke="#333" fill="#333"/><path d="M134.17 191.48a8 8 0 0 1 8-8h304a8 8 0 0 1 8 8v64a8 8 0 0 1-8 8h-304a8 8 0 0 1-8-8z" stroke="#282c33" stroke-width="2" fill="#fff"/><use xlink:href="#l" transform="matrix(1,0,0,1,139.16666666666708,188.4754009275798) translate(100.18518518518522 40.85833333333333)"/><use xlink:href="#m" transform="matrix(1,0,0,1,139.16666666666708,188.4754009275798) translate(150.88888888888889 40.85833333333333)"/><path d="M134.17 314.48a8 8 0 0 1 8-8h304a8 8 0 0 1 8 8v64a8 8 0 0 1-8 8h-304a8 8 0 0 1-8-8z" stroke="#282c33" stroke-width="2" fill="#fff"/><use xlink:href="#n" transform="matrix(1,0,0,1,139.16666666666708,311.4754009275798) translate(68.7351851851852 39.420833333333334)"/><use xlink:href="#o" transform="matrix(1,0,0,1,139.16666666666708,311.4754009275798) translate(170.07407407407408 39.420833333333334)"/><path d="M134.17 437.48a8 8 0 0 1 8-8h304a8 8 0 0 1 8 8v64a8 8 0 0 1-8 8h-304a8 8 0 0 1-8-8z" stroke="#282c33" stroke-width="2" fill="#fff"/><use xlink:href="#p" transform="matrix(1,0,0,1,139.16666666666663,434.4754009275798) translate(62.63703703703706 39.420833333333334)"/><use xlink:href="#q" transform="matrix(1,0,0,1,139.16666666666663,434.4754009275798) translate(114.64259259259259 39.420833333333334)"/><use xlink:href="#r" transform="matrix(1,0,0,1,139.16666666666663,434.4754009275798) translate(214.47407407407405 39.420833333333334)"/><path d="M134.17 560.48a8 8 0 0 1 8-8h304a8 8 0 0 1 8 8v64a8 8 0 0 1-8 8h-304a8 8 0 0 1-8-8z" stroke="#282c33" stroke-width="2" fill="#fff"/><use xlink:href="#s" transform="matrix(1,0,0,1,139.16666666666663,557.4754009275798) translate(101.41851851851854 39.420833333333334)"/><path d="M455.62 592.48h49.5a.53.53 0 0 0 .52-.53.53.53 0 0 1 .53-.53h33.6" stroke="#3a414a" fill="none"/><path d="M455.63 592.98h-.5v-1h.5z" stroke="#3a414a" stroke-width=".05" fill="#3a414a"/><path d="M554.54 591.42l-14.27 4.63v-9.27z" stroke="#3a414a" fill="#3a414a"/><path d="M553.67 806.92h-247.5a12 12 0 0 1-12-12v-145.1" stroke="#3a414a" fill="none"/><path d="M554.17 806.92v.5h-.52v-1h.55z" stroke="#3a414a" stroke-width=".05" fill="#3a414a"/><path d="M294.17 635.04l4.63 14.27h-9.27z" stroke="#3a414a" fill="#3a414a"/><path d="M907.77 536.22a10.67 10.67 0 0 1 12.8 0l67.2 50.4a6 6 0 0 1 0 9.6l-67.2 50.4a10.67 10.67 0 0 1-12.8 0l-67.2-50.4a6 6 0 0 1 0-9.6z" stroke="#54c45e" stroke-width="4" fill="#fff"/><use xlink:href="#t" transform="matrix(1,0,0,1,839.1666666666666,536.4166666666831) translate(47.63185185185186 60.983333333333334)"/><path d="M914.67 794.94l-.16 1.93-.44 1.9-.75 1.82-1.02 1.66-1.27 1.5-1.5 1.27-1.66 1.03-1.8.75-1.94.47-173.55.15v-1l173.43-.15 1.74-.42 1.67-.7 1.53-.93 1.37-1.17 1.17-1.37.94-1.54.7-1.67.42-1.75.15-1.82v-28.85h1zm0-58.22h-1v-85.47h1z" stroke="#333" stroke-width=".05" fill="#333"/><path d="M914.17 650.75l.5-.03v.55h-1v-.55z" fill="#333"/><path d="M914.17 650.73l.52-.03v.6h-1.06v-.6zm-.48.5h.94v-.48l-.47.03-.48-.03z" stroke="#333" stroke-width=".05" fill="#333"/><path d="M730.05 811.55l-14.27-4.63 14.27-4.64z" fill="#333"/><path d="M730.55 812.24l-16.38-5.32 16.38-5.33zm-13.15-5.32l12.15 3.94v-7.9z" stroke="#333" stroke-width=".05" fill="#333"/><use xlink:href="#i" transform="matrix(1,0,0,1,895.8672839506172,736.719716293139) translate(0 19.555555555555557)"/><path d="M911.32 532.04h-1v-28.76h1zm0-58.1h-1v-62.2h1z" stroke="#333" stroke-width=".05" fill="#333"/><path d="M911.32 532.42l-.38.08-.62.2v-.68h1z" fill="#333"/><path d="M911.35 532.44l-.4.08-.65.22V532h1.05zm-1-.4v.63l.58-.2.37-.07v-.35z" stroke="#333" stroke-width=".05" fill="#333"/><path d="M915.46 411.25h-9.27L910.8 397z" fill="#333"/><path d="M916.15 411.75H905.5l5.32-16.38zm-9.27-1h7.9l-3.96-12.15z" stroke="#333" stroke-width=".05" fill="#333"/><use xlink:href="#h" transform="matrix(1,0,0,1,886.3803004917406,473.9429413921526) translate(0 19.555555555555557)"/><path d="M754.17 322.42a8 8 0 0 1 8-8h304a8 8 0 0 1 8 8v64a8 8 0 0 1-8 8h-304a8 8 0 0 1-8-8z" stroke="#282c33" stroke-width="2" fill="#fff"/><use xlink:href="#u" transform="matrix(1,0,0,1,759.1666666666666,319.41666666668317) translate(84.49444444444447 39.420833333333334)"/><use xlink:href="#v" transform="matrix(1,0,0,1,759.1666666666666,319.41666666668317) translate(166.57962962962964 39.420833333333334)"/><path d="M754.17 201.42a8 8 0 0 1 8-8h304a8 8 0 0 1 8 8v64a8 8 0 0 1-8 8h-304a8 8 0 0 1-8-8z" stroke="#282c33" stroke-width="2" fill="#fff"/><use xlink:href="#w" transform="matrix(1,0,0,1,759.1666666666665,198.41666666668317) translate(70.96203703703705 39.420833333333334)"/><use xlink:href="#v" transform="matrix(1,0,0,1,759.1666666666665,198.41666666668317) translate(180.11203703703703 39.420833333333334)"/><path d="M914.17 312.97v-22.22" stroke="#3a414a" fill="none"/><path d="M914.67 313.47h-1v-.52h1z" stroke="#3a414a" stroke-width=".05" fill="#3a414a"/><path d="M914.17 276l4.63 14.25h-9.27z" stroke="#3a414a" fill="#3a414a"/><path d="M907.77-83.78a10.67 10.67 0 0 1 12.8 0l67.2 50.4a6 6 0 0 1 0 9.6l-67.2 50.4a10.67 10.67 0 0 1-12.8 0l-67.2-50.4a6 6 0 0 1 0-9.6z" stroke="#54c45e" stroke-width="4" fill="#fff"/><use xlink:href="#x" transform="matrix(1,0,0,1,839.1666666666666,-83.58333333331683) translate(31.8725925925926 47.74333333333333)"/><use xlink:href="#y" transform="matrix(1,0,0,1,839.1666666666666,-83.58333333331683) translate(41.49944444444446 77.34333333333333)"/><path d="M646.14 211.5l-.15 1.93-.47 1.9-.75 1.82-1.03 1.67-1.27 1.5-1.5 1.27-1.67 1-1.8.77-1.93.46-164.07.15v-1l163.96-.15 1.73-.42 1.66-.68 1.54-.94 1.37-1.17 1.17-1.37.94-1.53.7-1.67.42-1.76.14-1.8.14-213.17h1zM835.66-28.08H670.08v-1h165.58z" stroke="#333" stroke-width=".05" fill="#333"/><path d="M836.16-28.58l.04.5h-.55v-1h.55z" fill="#333"/><path d="M836.18-28.58l.05.52h-.6v-1.05h.6zm-.5-.48v.95h.5l-.05-.48.05-.48z" stroke="#333" stroke-width=".05" fill="#333"/><path d="M471 228.1l-14.26-4.62 14.26-4.64z" fill="#333"/><path d="M471.5 228.8l-16.38-5.32 16.38-5.33zm-13.15-5.32l12.15 3.94v-7.9z" stroke="#333" stroke-width=".05" fill="#333"/><use xlink:href="#h" transform="matrix(1,0,0,1,621.1937567560213,-31.028614231500722) translate(0 19.555555555555557)"/><path d="M914.17 191.97v-22.22" stroke="#3a414a" fill="none"/><path d="M914.67 192.47h-1v-.52h1z" stroke="#3a414a" stroke-width=".05" fill="#3a414a"/><path d="M914.17 155l4.63 14.25h-9.27z" stroke="#3a414a" fill="#3a414a"/><path d="M914.17 70.97V47.15" stroke="#3a414a" fill="none"/><path d="M914.67 71.47h-1v-.52h1z" stroke="#3a414a" stroke-width=".05" fill="#3a414a"/><path d="M914.17 32.37l4.63 14.27h-9.27z" stroke="#3a414a" fill="#3a414a"/><path d="M754.17 80.42a8 8 0 0 1 8-8h304a8 8 0 0 1 8 8v64a8 8 0 0 1-8 8h-304a8 8 0 0 1-8-8z" stroke="#282c33" stroke-width="2" fill="#fff"/><g><use xlink:href="#z" transform="matrix(1,0,0,1,759.1666666666665,77.41666666668317) translate(51.63981481481484 39.420833333333334)"/><use xlink:href="#q" transform="matrix(1,0,0,1,759.1666666666665,77.41666666668317) translate(125.63981481481481 39.420833333333334)"/><use xlink:href="#r" transform="matrix(1,0,0,1,759.1666666666665,77.41666666668317) translate(225.47129629629626 39.420833333333334)"/></g><path d="M294.17 510.93v24.2" stroke="#282c33" fill="none"/><path d="M294.67 510.94h-1v-.5h1z" stroke="#282c33" stroke-width=".05" fill="#282c33"/><path d="M294.17 549.9l-4.64-14.26h9.27z" stroke="#282c33" fill="#282c33"/><defs><path fill="#282c33" d="M194-120c59 52 2 134-86 124-53-6-90-18-98-63l31-7c8 30 29 43 70 43 46 0 84-17 71-62-32-43-135-20-137-98-3-89 178-90 191-16l-30 9c-8-48-127-53-127 5 0 53 81 35 115 65" id="A"/><path fill="#282c33" d="M51-54c-9 22 5 41 31 30L79-1C43 14 10-4 19-52l22-115H19l5-23h22l19-43h21l-9 43h35l-4 23H73" id="B"/><path fill="#282c33" d="M165-48c-4 18 1 34 23 27l-3 20c-29 8-62 0-52-35h-2C116-14 99 4 63 4 30 4 8-16 8-49c0-68 71-67 138-67 10-26 0-56-31-54-26 1-42 9-47 31l-32-5c8-67 160-71 144 15-5 28-9 54-15 81zM42-50c3 52 80 24 89-6 7-12 7-24 11-38-47 1-103-4-100 44" id="C"/><path fill="#282c33" d="M66-151c12-25 30-51 66-40l-6 26C45-176 58-65 38 0H6l36-190h30" id="D"/><g id="a"><use transform="matrix(0.0685185185185185,0,0,0.0685185185185185,0,0)" xlink:href="#A"/><use transform="matrix(0.0685185185185185,0,0,0.0685185185185185,16.444444444444443,0)" xlink:href="#B"/><use transform="matrix(0.0685185185185185,0,0,0.0685185185185185,23.29629629629629,0)" xlink:href="#C"/><use transform="matrix(0.0685185185185185,0,0,0.0685185185185185,36.99999999999999,0)" xlink:href="#D"/><use transform="matrix(0.0685185185185185,0,0,0.0685185185185185,45.1537037037037,0)" xlink:href="#B"/></g><path fill="#333" d="M30 0v-248h33v221h125V0H30" id="E"/><path fill="#333" d="M100-194c62-1 85 37 85 99 1 63-27 99-86 99S16-35 15-95c0-66 28-99 85-99zM99-20c44 1 53-31 53-75 0-43-8-75-51-75s-53 32-53 75 10 74 51 75" id="F"/><path fill="#333" d="M96-169c-40 0-48 33-48 73s9 75 48 75c24 0 41-14 43-38l32 2c-6 37-31 61-74 61-59 0-76-41-82-99-10-93 101-131 147-64 4 7 5 14 7 22l-32 3c-4-21-16-35-41-35" id="G"/><path fill="#333" d="M143 0L79-87 56-68V0H24v-261h32v163l83-92h37l-77 82L181 0h-38" id="H"/><path fill="#333" d="M84 4C-5 8 30-112 23-190h32v120c0 31 7 50 39 49 72-2 45-101 50-169h31l1 190h-30c-1-10 1-25-2-33-11 22-28 36-60 37" id="I"/><path fill="#333" d="M115-194c55 1 70 41 70 98S169 2 115 4C84 4 66-9 55-30l1 105H24l-1-265h31l2 30c10-21 28-34 59-34zm-8 174c40 0 45-34 45-75s-6-73-45-74c-42 0-51 32-51 76 0 43 10 73 51 73" id="J"/><g id="b"><use transform="matrix(0.0685185185185185,0,0,0.0685185185185185,0,0)" xlink:href="#E"/><use transform="matrix(0.0685185185185185,0,0,0.0685185185185185,13.7037037037037,0)" xlink:href="#F"/><use transform="matrix(0.0685185185185185,0,0,0.0685185185185185,27.4074074074074,0)" xlink:href="#G"/><use transform="matrix(0.0685185185185185,0,0,0.0685185185185185,39.74074074074073,0)" xlink:href="#H"/><use transform="matrix(0.0685185185185185,0,0,0.0685185185185185,52.07407407407406,0)" xlink:href="#I"/><use transform="matrix(0.0685185185185185,0,0,0.0685185185185185,65.77777777777776,0)" xlink:href="#J"/></g><path fill="#333" d="M100-194c63 0 86 42 84 106H49c0 40 14 67 53 68 26 1 43-12 49-29l28 8c-11 28-37 45-77 45C44 4 14-33 15-96c1-61 26-98 85-98zm52 81c6-60-76-77-97-28-3 7-6 17-6 28h103" id="K"/><path fill="#333" d="M141 0L90-78 38 0H4l68-98-65-92h35l48 74 47-74h35l-64 92 68 98h-35" id="L"/><path fill="#333" d="M24-231v-30h32v30H24zM24 0v-190h32V0H24" id="M"/><path fill="#333" d="M114-163C36-179 61-72 57 0H25l-1-190h30c1 12-1 29 2 39 6-27 23-49 58-41v29" id="N"/><path fill="#333" d="M85-194c31 0 48 13 60 33l-1-100h32l1 261h-30c-2-10 0-23-3-31C134-8 116 4 85 4 32 4 16-35 15-94c0-66 23-100 70-100zm9 24c-40 0-46 34-46 75 0 40 6 74 45 74 42 0 51-32 51-76 0-42-9-74-50-73" id="O"/><path fill="#333" d="M103-251c84 0 111 97 45 133-19 10-37 24-39 52H78c0-63 77-55 77-114 0-30-21-42-52-43-32 0-53 17-56 46l-32-2c7-45 34-72 88-72zM77 0v-35h34V0H77" id="P"/><g id="c"><use transform="matrix(0.0685185185185185,0,0,0.0685185185185185,0,0)" xlink:href="#K"/><use transform="matrix(0.0685185185185185,0,0,0.0685185185185185,13.7037037037037,0)" xlink:href="#L"/><use transform="matrix(0.0685185185185185,0,0,0.0685185185185185,26.03703703703703,0)" xlink:href="#J"/><use transform="matrix(0.0685185185185185,0,0,0.0685185185185185,39.74074074074073,0)" xlink:href="#M"/><use transform="matrix(0.0685185185185185,0,0,0.0685185185185185,45.1537037037037,0)" xlink:href="#N"/><use transform="matrix(0.0685185185185185,0,0,0.0685185185185185,53.307407407407396,0)" xlink:href="#K"/><use transform="matrix(0.0685185185185185,0,0,0.0685185185185185,67.01111111111109,0)" xlink:href="#O"/><use transform="matrix(0.0685185185185185,0,0,0.0685185185185185,80.71481481481479,0)" xlink:href="#P"/></g><path fill="#282c33" d="M249-183c0 48-29 72-75 77L221 0h-36l-43-103H65L45 0H11l48-248c83 2 190-17 190 65zm-34 3c0-55-74-39-127-41l-18 92c63-1 145 13 145-51" id="Q"/><path fill="#282c33" d="M111-194c62-3 86 47 72 106H45c-7 38 6 69 45 68 27-1 43-14 53-32l24 11C152-15 129 4 87 4 38 3 12-23 12-71c0-70 32-119 99-123zm44 81c14-66-71-72-95-28-4 8-8 17-11 28h106" id="R"/><path fill="#282c33" d="M103-194c29 0 47 14 56 36 2-11 5-23 8-32h30L160-5C157 61 82 97 21 62 9 55 4 45 1 30l28-7c7 42 83 31 92-3 4-16 9-38 13-55-13 20-29 36-62 36-40 0-60-25-60-64 0-71 23-131 91-131zm4 24c-53 0-58 54-61 104-2 27 10 44 36 44 49 0 65-50 67-102 1-29-15-46-42-46" id="S"/><path fill="#282c33" d="M50-231l6-30h32l-6 30H50zM6 0l37-190h31L37 0H6" id="T"/><path fill="#282c33" d="M55-144c13 50 104 24 104 88C159 21 15 23 1-39l26-10c6 40 102 42 102-4-13-50-104-23-104-87 0-71 143-71 148-8l-29 4c-5-35-85-37-89 0" id="U"/><g id="d"><use transform="matrix(0.0685185185185185,0,0,0.0685185185185185,0,0)" xlink:href="#Q"/><use transform="matrix(0.0685185185185185,0,0,0.0685185185185185,17.746296296296293,0)" xlink:href="#R"/><use transform="matrix(0.0685185185185185,0,0,0.0685185185185185,31.449999999999996,0)" xlink:href="#S"/><use transform="matrix(0.0685185185185185,0,0,0.0685185185185185,45.1537037037037,0)" xlink:href="#T"/><use transform="matrix(0.0685185185185185,0,0,0.0685185185185185,50.56666666666666,0)" xlink:href="#U"/><use transform="matrix(0.0685185185185185,0,0,0.0685185185185185,62.89999999999999,0)" xlink:href="#B"/><use transform="matrix(0.0685185185185185,0,0,0.0685185185185185,69.75185185185184,0)" xlink:href="#R"/><use transform="matrix(0.0685185185185185,0,0,0.0685185185185185,83.45555555555553,0)" xlink:href="#D"/></g><g id="e"><use transform="matrix(0.0685185185185185,0,0,0.0685185185185185,0,0)" xlink:href="#C"/><use transform="matrix(0.0685185185185185,0,0,0.0685185185185185,13.7037037037037,0)" xlink:href="#U"/></g><path fill="#282c33" d="M89 0H52L20-190h33L74-25l89-165h34" id="V"/><path fill="#282c33" d="M6 0l50-261h32L37 0H6" id="W"/><path fill="#282c33" d="M133-28C103 26-5 8 13-77c13-62 24-115 90-117 29-1 46 15 56 35l19-102h32L160 0h-30zM45-64c-2 27 10 43 35 43 54-1 69-50 69-103 0-29-15-46-42-46-53-1-58 58-62 106" id="X"/><path fill="#282c33" d="M30-147c31-64 166-65 159 27C183-49 158 1 86 4 9 8 1-88 30-147zM88-20c53 0 68-48 68-100 0-31-11-51-44-50-52 1-68 46-68 97 0 32 13 53 44 53" id="Y"/><g id="f"><use transform="matrix(0.0685185185185185,0,0,0.0685185185185185,0,0)" xlink:href="#V"/><use transform="matrix(0.0685185185185185,0,0,0.0685185185185185,12.33333333333333,0)" xlink:href="#C"/><use transform="matrix(0.0685185185185185,0,0,0.0685185185185185,26.03703703703703,0)" xlink:href="#W"/><use transform="matrix(0.0685185185185185,0,0,0.0685185185185185,31.449999999999992,0)" xlink:href="#T"/><use transform="matrix(0.0685185185185185,0,0,0.0685185185185185,36.86296296296295,0)" xlink:href="#X"/><use transform="matrix(0.0685185185185185,0,0,0.0685185185185185,50.566666666666656,0)" xlink:href="#C"/><use transform="matrix(0.0685185185185185,0,0,0.0685185185185185,64.27037037037036,0)" xlink:href="#B"/><use transform="matrix(0.0685185185185185,0,0,0.0685185185185185,71.1222222222222,0)" xlink:href="#Y"/><use transform="matrix(0.0685185185185185,0,0,0.0685185185185185,84.8259259259259,0)" xlink:href="#D"/></g><path fill="#fff" d="M51-54c-9 22 5 41 31 30L79-1C43 14 10-4 19-52l22-115H19l5-23h22l19-43h21l-9 43h35l-4 23H73" id="Z"/><use transform="matrix(0.0685185185185185,0,0,0.0685185185185185,0,0)" xlink:href="#Z" id="g"/><path fill="#333" d="M146-102V0H94v-102L6-248h54l60 105 60-105h54" id="aa"/><path fill="#333" d="M24 0v-248h195v40H76v63h132v40H76v65h150V0H24" id="ab"/><path fill="#333" d="M169-182c-1-43-94-46-97-3 18 66 151 10 154 114 3 95-165 93-204 36-6-8-10-19-12-30l50-8c3 46 112 56 116 5-17-69-150-10-154-114-4-87 153-88 188-35 5 8 8 18 10 28" id="ac"/><g id="h"><use transform="matrix(0.06790123456790123,0,0,0.06790123456790123,0,0)" xlink:href="#aa"/><use transform="matrix(0.06790123456790123,0,0,0.06790123456790123,16.296296296296294,0)" xlink:href="#ab"/><use transform="matrix(0.06790123456790123,0,0,0.06790123456790123,32.59259259259259,0)" xlink:href="#ac"/></g><path fill="#333" d="M175 0L67-191c6 58 2 128 3 191H24v-248h59L193-55c-6-58-2-129-3-193h46V0h-61" id="ad"/><path fill="#333" d="M140-251c80 0 125 45 125 126S219 4 139 4C58 4 15-44 15-125s44-126 125-126zm-1 214c52 0 73-35 73-88 0-50-21-86-72-86-52 0-73 35-73 86s22 88 72 88" id="ae"/><g id="i"><use transform="matrix(0.06790123456790123,0,0,0.06790123456790123,0,0)" xlink:href="#ad"/><use transform="matrix(0.06790123456790123,0,0,0.06790123456790123,17.586419753086417,0)" xlink:href="#ae"/></g><path fill="#333" d="M194 0L95-120 63-95V0H30v-248h33v124l119-124h40L117-140 236 0h-42" id="af"/><g id="j"><use transform="matrix(0.0685185185185185,0,0,0.0685185185185185,0,0)" xlink:href="#af"/><use transform="matrix(0.0685185185185185,0,0,0.0685185185185185,16.444444444444443,0)" xlink:href="#K"/><use transform="matrix(0.0685185185185185,0,0,0.0685185185185185,30.148148148148145,0)" xlink:href="#K"/><use transform="matrix(0.0685185185185185,0,0,0.0685185185185185,43.85185185185185,0)" xlink:href="#J"/></g><path fill="#333" d="M108 0H70L1-190h34L89-25l56-165h34" id="ag"/><path fill="#333" d="M141-36C126-15 110 5 73 4 37 3 15-17 15-53c-1-64 63-63 125-63 3-35-9-54-41-54-24 1-41 7-42 31l-33-3c5-37 33-52 76-52 45 0 72 20 72 64v82c-1 20 7 32 28 27v20c-31 9-61-2-59-35zM48-53c0 20 12 33 32 33 41-3 63-29 60-74-43 2-92-5-92 41" id="ah"/><path fill="#333" d="M24 0v-261h32V0H24" id="ai"/><path fill="#333" d="M59-47c-2 24 18 29 38 22v24C64 9 27 4 27-40v-127H5v-23h24l9-43h21v43h35v23H59v120" id="aj"/><path fill="#333" d="M117-194c89-4 53 116 60 194h-32v-121c0-31-8-49-39-48C34-167 62-67 57 0H25l-1-190h30c1 10-1 24 2 32 11-22 29-35 61-36" id="ak"/><path fill="#333" d="M177-190C167-65 218 103 67 71c-23-6-38-20-44-43l32-5c15 47 100 32 89-28v-30C133-14 115 1 83 1 29 1 15-40 15-95c0-56 16-97 71-98 29-1 48 16 59 35 1-10 0-23 2-32h30zM94-22c36 0 50-32 50-73 0-42-14-75-50-75-39 0-46 34-46 75s6 73 46 73" id="al"/><g id="k"><use transform="matrix(0.0685185185185185,0,0,0.0685185185185185,0,0)" xlink:href="#ag"/><use transform="matrix(0.0685185185185185,0,0,0.0685185185185185,12.33333333333333,0)" xlink:href="#ah"/><use transform="matrix(0.0685185185185185,0,0,0.0685185185185185,26.03703703703703,0)" xlink:href="#ai"/><use transform="matrix(0.0685185185185185,0,0,0.0685185185185185,31.449999999999992,0)" xlink:href="#M"/><use transform="matrix(0.0685185185185185,0,0,0.0685185185185185,36.86296296296295,0)" xlink:href="#O"/><use transform="matrix(0.0685185185185185,0,0,0.0685185185185185,50.566666666666656,0)" xlink:href="#ah"/><use transform="matrix(0.0685185185185185,0,0,0.0685185185185185,64.27037037037036,0)" xlink:href="#aj"/><use transform="matrix(0.0685185185185185,0,0,0.0685185185185185,71.1222222222222,0)" xlink:href="#M"/><use transform="matrix(0.0685185185185185,0,0,0.0685185185185185,76.53518518518517,0)" xlink:href="#ak"/><use transform="matrix(0.0685185185185185,0,0,0.0685185185185185,90.23888888888887,0)" xlink:href="#al"/></g><path fill="#282c33" d="M187 0l-14-72H61L19 0h-37l149-248h38L221 0h-34zm-19-99l-22-123L76-99h92" id="am"/><g id="l"><use transform="matrix(0.06851851851851848,0,0,0.06851851851851848,0,0)" xlink:href="#am"/><use transform="matrix(0.06851851851851848,0,0,0.06851851851851848,16.444444444444436,0)" xlink:href="#X"/><use transform="matrix(0.06851851851851848,0,0,0.06851851851851848,30.14814814814813,0)" xlink:href="#X"/></g><path fill="#282c33" d="M127 0L80-88 50-66 37 0H6l51-261h31L57-100l99-90h39l-93 82L161 0h-34" id="an"/><g id="m"><use transform="matrix(0.06851851851851848,0,0,0.06851851851851848,0,0)" xlink:href="#U"/><use transform="matrix(0.06851851851851848,0,0,0.06851851851851848,12.333333333333327,0)" xlink:href="#B"/><use transform="matrix(0.06851851851851848,0,0,0.06851851851851848,19.185185185185176,0)" xlink:href="#C"/><use transform="matrix(0.06851851851851848,0,0,0.06851851851851848,32.88888888888887,0)" xlink:href="#an"/><use transform="matrix(0.06851851851851848,0,0,0.06851851851851848,45.22222222222221,0)" xlink:href="#R"/></g><path fill="#282c33" d="M14 0l48-248h34L48 0H14" id="ao"/><path fill="#282c33" d="M67-158c22-48 132-52 116 29L158 0h-32l25-140c3-38-53-32-70-12C52-117 51-52 38 0H6l36-190h30" id="ap"/><path fill="#282c33" d="M44-68c0 29 11 47 38 47 30 0 42-19 51-41l28 9C148-21 126 4 82 4 31 4 10-29 12-85c3-77 74-140 146-93 12 8 15 23 18 40l-31 5c-1-22-13-36-36-36-52 0-65 49-65 101" id="aq"/><g id="n"><use transform="matrix(0.0685185185185185,0,0,0.0685185185185185,0,0)" xlink:href="#ao"/><use transform="matrix(0.0685185185185185,0,0,0.0685185185185185,6.85185185185185,0)" xlink:href="#ap"/><use transform="matrix(0.0685185185185185,0,0,0.0685185185185185,20.555555555555554,0)" xlink:href="#aq"/><use transform="matrix(0.0685185185185185,0,0,0.0685185185185185,32.88888888888888,0)" xlink:href="#D"/><use transform="matrix(0.0685185185185185,0,0,0.0685185185185185,41.042592592592584,0)" xlink:href="#R"/><use transform="matrix(0.0685185185185185,0,0,0.0685185185185185,54.746296296296286,0)" xlink:href="#C"/><use transform="matrix(0.0685185185185185,0,0,0.0685185185185185,68.44999999999999,0)" xlink:href="#U"/><use transform="matrix(0.0685185185185185,0,0,0.0685185185185185,80.78333333333332,0)" xlink:href="#R"/></g><path fill="#282c33" d="M67 3c-93-2-31-127-26-193h32L48-50c-3 39 53 32 70 12 30-34 30-101 43-152h32L157 0h-30c1-10 6-24 4-33-14 20-29 37-64 36" id="ar"/><path fill="#282c33" d="M67-162c32-53 139-36 121 50C175-51 163 2 97 4 68 4 52-11 42-31 38 6 28 39 22 75H-9l50-265h29c-1 10 0 20-3 28zm89 36c0-26-10-43-35-43-54 0-67 50-69 103-1 29 14 45 42 46 53 0 62-58 62-106" id="as"/><g id="o"><use transform="matrix(0.0685185185185185,0,0,0.0685185185185185,0,0)" xlink:href="#W"/><use transform="matrix(0.0685185185185185,0,0,0.0685185185185185,5.412962962962962,0)" xlink:href="#Y"/><use transform="matrix(0.0685185185185185,0,0,0.0685185185185185,19.116666666666664,0)" xlink:href="#aq"/><use transform="matrix(0.0685185185185185,0,0,0.0685185185185185,31.449999999999996,0)" xlink:href="#an"/><use transform="matrix(0.0685185185185185,0,0,0.0685185185185185,43.783333333333324,0)" xlink:href="#ar"/><use transform="matrix(0.0685185185185185,0,0,0.0685185185185185,57.48703703703703,0)" xlink:href="#as"/></g><path fill="#282c33" d="M29-66c0 49 71 55 82 11 13-52 22-111 33-165H93l5-28h85L149-74C151 11 7 37-1-60" id="at"/><g id="p"><use transform="matrix(0.0685185185185185,0,0,0.0685185185185185,0,0)" xlink:href="#at"/><use transform="matrix(0.0685185185185185,0,0,0.0685185185185185,12.33333333333333,0)" xlink:href="#Y"/><use transform="matrix(0.0685185185185185,0,0,0.0685185185185185,26.03703703703703,0)" xlink:href="#T"/><use transform="matrix(0.0685185185185185,0,0,0.0685185185185185,31.449999999999992,0)" xlink:href="#ap"/></g><g id="q"><use transform="matrix(0.0685185185185185,0,0,0.0685185185185185,0,0)" xlink:href="#V"/><use transform="matrix(0.0685185185185185,0,0,0.0685185185185185,12.33333333333333,0)" xlink:href="#C"/><use transform="matrix(0.0685185185185185,0,0,0.0685185185185185,26.03703703703703,0)" xlink:href="#W"/><use transform="matrix(0.0685185185185185,0,0,0.0685185185185185,31.449999999999992,0)" xlink:href="#T"/><use transform="matrix(0.0685185185185185,0,0,0.0685185185185185,36.86296296296295,0)" xlink:href="#X"/><use transform="matrix(0.0685185185185185,0,0,0.0685185185185185,50.566666666666656,0)" xlink:href="#C"/><use transform="matrix(0.0685185185185185,0,0,0.0685185185185185,64.27037037037036,0)" xlink:href="#B"/><use transform="matrix(0.0685185185185185,0,0,0.0685185185185185,71.1222222222222,0)" xlink:href="#Y"/><use transform="matrix(0.0685185185185185,0,0,0.0685185185185185,84.8259259259259,0)" xlink:href="#D"/></g><g id="r"><use transform="matrix(0.0685185185185185,0,0,0.0685185185185185,0,0)" xlink:href="#U"/><use transform="matrix(0.0685185185185185,0,0,0.0685185185185185,12.33333333333333,0)" xlink:href="#R"/><use transform="matrix(0.0685185185185185,0,0,0.0685185185185185,26.03703703703703,0)" xlink:href="#B"/></g><path fill="#282c33" d="M119 0H84L31-248h34l41 218 126-218h36" id="au"/><g id="s"><use transform="matrix(0.0685185185185185,0,0,0.0685185185185185,0,0)" xlink:href="#au"/><use transform="matrix(0.0685185185185185,0,0,0.0685185185185185,15.553703703703702,0)" xlink:href="#C"/><use transform="matrix(0.0685185185185185,0,0,0.0685185185185185,29.257407407407403,0)" xlink:href="#W"/><use transform="matrix(0.0685185185185185,0,0,0.0685185185185185,34.670370370370364,0)" xlink:href="#T"/><use transform="matrix(0.0685185185185185,0,0,0.0685185185185185,40.08333333333333,0)" xlink:href="#X"/><use transform="matrix(0.0685185185185185,0,0,0.0685185185185185,53.78703703703703,0)" xlink:href="#C"/><use transform="matrix(0.0685185185185185,0,0,0.0685185185185185,67.49074074074073,0)" xlink:href="#B"/><use transform="matrix(0.0685185185185185,0,0,0.0685185185185185,74.34259259259258,0)" xlink:href="#T"/><use transform="matrix(0.0685185185185185,0,0,0.0685185185185185,79.75555555555555,0)" xlink:href="#ap"/><use transform="matrix(0.0685185185185185,0,0,0.0685185185185185,93.45925925925924,0)" xlink:href="#S"/></g><path fill="#333" d="M30 0v-248h187v28H63v79h144v27H63v87h162V0H30" id="av"/><g id="t"><use transform="matrix(0.0685185185185185,0,0,0.0685185185185185,0,0)" xlink:href="#av"/><use transform="matrix(0.0685185185185185,0,0,0.0685185185185185,16.444444444444443,0)" xlink:href="#L"/><use transform="matrix(0.0685185185185185,0,0,0.0685185185185185,28.77777777777777,0)" xlink:href="#M"/><use transform="matrix(0.0685185185185185,0,0,0.0685185185185185,34.190740740740736,0)" xlink:href="#aj"/><use transform="matrix(0.0685185185185185,0,0,0.0685185185185185,41.042592592592584,0)" xlink:href="#P"/></g><path fill="#282c33" d="M62-99C39-31 123 0 170-40s38-139 58-208h34C234-144 253 4 115 4 49 4 18-43 31-112l26-136h34" id="aw"/><g id="u"><use transform="matrix(0.0685185185185185,0,0,0.0685185185185185,0,0)" xlink:href="#aw"/><use transform="matrix(0.0685185185185185,0,0,0.0685185185185185,17.746296296296293,0)" xlink:href="#ap"/><use transform="matrix(0.0685185185185185,0,0,0.0685185185185185,31.449999999999996,0)" xlink:href="#W"/><use transform="matrix(0.0685185185185185,0,0,0.0685185185185185,36.86296296296297,0)" xlink:href="#Y"/><use transform="matrix(0.0685185185185185,0,0,0.0685185185185185,50.56666666666666,0)" xlink:href="#aq"/><use transform="matrix(0.0685185185185185,0,0,0.0685185185185185,62.89999999999999,0)" xlink:href="#an"/></g><g id="v"><use transform="matrix(0.0685185185185185,0,0,0.0685185185185185,0,0)" xlink:href="#U"/><use transform="matrix(0.0685185185185185,0,0,0.0685185185185185,12.33333333333333,0)" xlink:href="#B"/><use transform="matrix(0.0685185185185185,0,0,0.0685185185185185,19.185185185185176,0)" xlink:href="#C"/><use transform="matrix(0.0685185185185185,0,0,0.0685185185185185,32.88888888888888,0)" xlink:href="#an"/><use transform="matrix(0.0685185185185185,0,0,0.0685185185185185,45.22222222222221,0)" xlink:href="#R"/></g><path fill="#282c33" d="M247 0h-39l-15-214-24 57L95 0H56L31-248h35L82-30l101-218h33l16 218 101-218h35" id="ax"/><path fill="#282c33" d="M67-158c15-20 31-36 64-36 94 0 33 127 27 194h-32l25-140c3-38-53-32-70-12C52-117 51-51 37 0H6l51-261h31" id="ay"/><path fill="#282c33" d="M188 0h-37l-8-164L71 0H34L18-190h31l8 164 75-164h34l8 164 74-164h31" id="az"/><g id="w"><use transform="matrix(0.0685185185185185,0,0,0.0685185185185185,0,0)" xlink:href="#ax"/><use transform="matrix(0.0685185185185185,0,0,0.0685185185185185,23.02222222222222,0)" xlink:href="#T"/><use transform="matrix(0.0685185185185185,0,0,0.0685185185185185,28.43518518518518,0)" xlink:href="#B"/><use transform="matrix(0.0685185185185185,0,0,0.0685185185185185,35.28703703703703,0)" xlink:href="#ay"/><use transform="matrix(0.0685185185185185,0,0,0.0685185185185185,48.99074074074073,0)" xlink:href="#X"/><use transform="matrix(0.0685185185185185,0,0,0.0685185185185185,62.694444444444436,0)" xlink:href="#D"/><use transform="matrix(0.0685185185185185,0,0,0.0685185185185185,70.84814814814814,0)" xlink:href="#C"/><use transform="matrix(0.0685185185185185,0,0,0.0685185185185185,84.55185185185184,0)" xlink:href="#az"/></g><path fill="#333" d="M212-179c-10-28-35-45-73-45-59 0-87 40-87 99 0 60 29 101 89 101 43 0 62-24 78-52l27 14C228-24 195 4 139 4 59 4 22-46 18-125c-6-104 99-153 187-111 19 9 31 26 39 46" id="aA"/><path fill="#333" d="M106-169C34-169 62-67 57 0H25v-261h32l-1 103c12-21 28-36 61-36 89 0 53 116 60 194h-32v-121c2-32-8-49-39-48" id="aB"/><g id="x"><use transform="matrix(0.0685185185185185,0,0,0.0685185185185185,0,0)" xlink:href="#aA"/><use transform="matrix(0.0685185185185185,0,0,0.0685185185185185,17.746296296296293,0)" xlink:href="#aB"/><use transform="matrix(0.0685185185185185,0,0,0.0685185185185185,31.449999999999996,0)" xlink:href="#ah"/><use transform="matrix(0.0685185185185185,0,0,0.0685185185185185,45.1537037037037,0)" xlink:href="#ak"/><use transform="matrix(0.0685185185185185,0,0,0.0685185185185185,58.8574074074074,0)" xlink:href="#al"/><use transform="matrix(0.0685185185185185,0,0,0.0685185185185185,72.5611111111111,0)" xlink:href="#K"/></g><path fill="#333" d="M210-169c-67 3-38 105-44 169h-31v-121c0-29-5-50-35-48C34-165 62-65 56 0H25l-1-190h30c1 10-1 24 2 32 10-44 99-50 107 0 11-21 27-35 58-36 85-2 47 119 55 194h-31v-121c0-29-5-49-35-48" id="aC"/><g id="y"><use transform="matrix(0.0685185185185185,0,0,0.0685185185185185,0,0)" xlink:href="#aC"/><use transform="matrix(0.0685185185185185,0,0,0.0685185185185185,20.487037037037034,0)" xlink:href="#M"/><use transform="matrix(0.0685185185185185,0,0,0.0685185185185185,25.899999999999995,0)" xlink:href="#ak"/><use transform="matrix(0.0685185185185185,0,0,0.0685185185185185,39.603703703703694,0)" xlink:href="#O"/><use transform="matrix(0.0685185185185185,0,0,0.0685185185185185,53.307407407407396,0)" xlink:href="#P"/></g><path fill="#282c33" d="M11 0l48-248h34L50-27h125l-5 27H11" id="aD"/><g id="z"><use transform="matrix(0.0685185185185185,0,0,0.0685185185185185,0,0)" xlink:href="#aD"/><use transform="matrix(0.0685185185185185,0,0,0.0685185185185185,13.7037037037037,0)" xlink:href="#R"/><use transform="matrix(0.0685185185185185,0,0,0.0685185185185185,27.4074074074074,0)" xlink:href="#C"/><use transform="matrix(0.0685185185185185,0,0,0.0685185185185185,41.11111111111111,0)" xlink:href="#V"/><use transform="matrix(0.0685185185185185,0,0,0.0685185185185185,53.44444444444443,0)" xlink:href="#R"/></g></defs></g></svg>