<?xml version="1.0" encoding="utf-8"?>
<!-- Generator: Adobe Illustrator 26.0.3, SVG Export Plug-In . SVG Version: 6.00 Build 0)  -->
<svg version="1.1" id="Layer_1" xmlns="http://www.w3.org/2000/svg" xmlns:xlink="http://www.w3.org/1999/xlink" x="0px" y="0px"
	 width="960px" height="540px" viewBox="0 0 960 540" style="enable-background:new 0 0 960 540;" xml:space="preserve">
<style type="text/css">
	.st0{clip-path:url(#SVGID_00000075873262119483691060000010639939913403661487_);}
	.st1{fill-rule:evenodd;clip-rule:evenodd;fill:#FFFFFF;}
	.st2{fill-rule:evenodd;clip-rule:evenodd;fill-opacity:0;}
	.st3{fill-rule:evenodd;clip-rule:evenodd;fill:#497F6D;}
	.st4{fill:#8ECFBA;}
	.st5{fill-rule:evenodd;clip-rule:evenodd;fill:#8ECFBA;}
	.st6{fill:#497F6D;}
	.st7{fill:none;stroke:#CCCCCC;stroke-width:2;stroke-linejoin:round;stroke-miterlimit:10;}
	.st8{fill-rule:evenodd;clip-rule:evenodd;fill:#CCCCCC;stroke:#CCCCCC;stroke-width:2;stroke-miterlimit:10;}
	.st9{fill-rule:evenodd;clip-rule:evenodd;fill:#F3F4FB;}
	.st10{fill:#CCCCCC;}
	.st11{fill:#42318C;}
</style>
<g>
	<defs>
		<rect id="SVGID_1_" width="960" height="540"/>
	</defs>
	<clipPath id="SVGID_00000060014536578367137370000017163199212561226911_">
		<use xlink:href="#SVGID_1_"  style="overflow:visible;"/>
	</clipPath>
	<g style="clip-path:url(#SVGID_00000060014536578367137370000017163199212561226911_);">
		<path class="st1" d="M0,0h960v540H0V0z"/>
		<path class="st2" d="M640,12.5h310.5v224H640V12.5z"/>
		<g transform="matrix(0.19649160104986876 0.0 0.0 0.19649133858267717 639.9580052493438 12.506561679790027)">
			<g>
				<defs>
					<rect id="SVGID_00000080202141985047452170000013831538070222926002_" x="634.8" y="458" width="310.5" height="224"/>
				</defs>
				<clipPath id="SVGID_00000098214744533095701750000009986932111143689114_">
					<use xlink:href="#SVGID_00000080202141985047452170000013831538070222926002_"  style="overflow:visible;"/>
				</clipPath>
			</g>
		</g>
		<path class="st3" d="M408.9,256.3L408.9,256.3c0-2.9,2.4-5.3,5.3-5.3h131.8c1.4,0,2.7,0.6,3.7,1.5c1,1,1.5,2.3,1.5,3.7V301
			c0,2.9-2.4,5.3-5.3,5.3H414.1c-2.9,0-5.3-2.4-5.3-5.3V256.3z"/>
		<path class="st4" d="M453.9,283.3c-0.6,0-1.3-0.1-1.9-0.3c-0.6-0.2-1.1-0.4-1.4-0.7l0.5-1.2c0.3,0.3,0.8,0.5,1.3,0.7
			c0.5,0.2,1,0.2,1.5,0.2c0.6,0,1.1-0.1,1.4-0.3c0.3-0.2,0.5-0.5,0.5-0.8c0-0.2-0.1-0.4-0.3-0.6c-0.2-0.2-0.4-0.3-0.7-0.4
			c-0.3-0.1-0.6-0.2-1.1-0.3c-0.6-0.1-1.2-0.3-1.5-0.5c-0.4-0.2-0.7-0.4-1-0.7c-0.3-0.3-0.4-0.8-0.4-1.3c0-0.5,0.1-0.9,0.4-1.2
			c0.3-0.4,0.6-0.7,1.1-0.9c0.5-0.2,1.1-0.3,1.9-0.3c0.5,0,1,0.1,1.5,0.2c0.5,0.1,0.9,0.3,1.3,0.5l-0.5,1.2
			c-0.4-0.2-0.8-0.4-1.2-0.5c-0.4-0.1-0.8-0.2-1.2-0.2c-0.6,0-1.1,0.1-1.4,0.3c-0.3,0.2-0.5,0.5-0.5,0.8c0,0.2,0.1,0.4,0.2,0.6
			c0.2,0.1,0.4,0.3,0.7,0.4c0.3,0.1,0.6,0.2,1.1,0.3c0.6,0.1,1.1,0.3,1.5,0.5c0.4,0.2,0.8,0.4,1,0.7c0.3,0.3,0.4,0.8,0.4,1.3
			c0,0.5-0.1,0.9-0.4,1.3c-0.2,0.4-0.6,0.7-1.1,0.9C455.3,283.2,454.7,283.3,453.9,283.3z M460.5,276.1h-2.8v-1.3h7.1v1.3H462v7.1
			h-1.6V276.1z M469.8,283.3c-0.9,0-1.6-0.2-2.3-0.6s-1.2-0.9-1.6-1.5c-0.4-0.7-0.6-1.4-0.6-2.2c0-0.8,0.2-1.5,0.6-2.2
			c0.4-0.7,0.9-1.2,1.6-1.5c0.7-0.4,1.5-0.6,2.3-0.6c0.9,0,1.6,0.2,2.3,0.6c0.7,0.4,1.2,0.9,1.6,1.5c0.4,0.7,0.6,1.4,0.6,2.2
			c0,0.8-0.2,1.6-0.6,2.2c-0.4,0.7-0.9,1.2-1.6,1.5S470.7,283.3,469.8,283.3z M469.8,281.9c0.6,0,1.1-0.1,1.5-0.4
			c0.4-0.2,0.8-0.6,1-1c0.3-0.5,0.4-1,0.4-1.5s-0.1-1.1-0.4-1.5c-0.2-0.4-0.6-0.8-1-1c-0.4-0.3-1-0.4-1.5-0.4
			c-0.6,0-1.1,0.1-1.5,0.4c-0.4,0.2-0.8,0.6-1.1,1c-0.3,0.4-0.4,1-0.4,1.5s0.1,1.1,0.4,1.5c0.3,0.4,0.6,0.8,1.1,1
			C468.7,281.8,469.2,281.9,469.8,281.9z M481.5,283.2l-1.7-2.5c-0.1,0-0.2,0-0.3,0h-1.9v2.5H476v-8.4h3.5c0.7,0,1.4,0.1,1.9,0.4
			c0.5,0.2,1,0.6,1.2,1c0.3,0.4,0.4,1,0.4,1.6s-0.2,1.2-0.5,1.6c-0.3,0.5-0.7,0.8-1.3,1l1.9,2.8H481.5z M481.4,277.8
			c0-0.5-0.2-1-0.5-1.2c-0.4-0.3-0.9-0.4-1.5-0.4h-1.8v3.3h1.8c0.7,0,1.2-0.1,1.5-0.4C481.3,278.7,481.4,278.3,481.4,277.8z
			 M490.2,281.2H486l-0.8,1.9h-1.6l3.8-8.4h1.5l3.8,8.4H491L490.2,281.2z M489.7,280l-1.6-3.7l-1.6,3.7H489.7z M499.3,278.9h1.5v3.3
			c-0.4,0.3-0.9,0.6-1.5,0.8c-0.6,0.2-1.2,0.3-1.8,0.3c-0.9,0-1.6-0.2-2.3-0.6s-1.2-0.9-1.6-1.5c-0.4-0.7-0.6-1.4-0.6-2.2
			c0-0.8,0.2-1.6,0.6-2.2c0.4-0.7,0.9-1.2,1.6-1.5c0.7-0.4,1.5-0.6,2.3-0.6c0.7,0,1.3,0.1,1.9,0.3c0.6,0.2,1.1,0.6,1.5,1l-1,1
			c-0.6-0.6-1.4-1-2.3-1c-0.6,0-1.1,0.1-1.6,0.4c-0.5,0.2-0.8,0.6-1.1,1c-0.3,0.4-0.4,1-0.4,1.5c0,0.6,0.1,1.1,0.4,1.5
			c0.3,0.4,0.6,0.8,1.1,1.1c0.5,0.2,1,0.4,1.6,0.4c0.7,0,1.2-0.1,1.7-0.4V278.9z M509.2,281.9v1.3h-6.3v-8.4h6.1v1.3h-4.6v2.2h4.1
			v1.3h-4.1v2.3H509.2z"/>
		<path class="st5" d="M177.7,139.5L177.7,139.5c0-2.9,2.4-5.3,5.3-5.3h131.8c1.4,0,2.7,0.6,3.7,1.5s1.5,2.3,1.5,3.7v44.7
			c0,2.9-2.4,5.3-5.3,5.3H183c-2.9,0-5.3-2.4-5.3-5.3V139.5z"/>
		<path class="st6" d="M199.1,158l-3.7,8.4h-1.5l-3.7-8.4h1.7l2.8,6.5l2.8-6.5H199.1z M200,158h1.6v8.4H200V158z M209.3,166.4
			l-1.7-2.5c-0.1,0-0.2,0-0.3,0h-1.9v2.5h-1.6V158h3.5c0.7,0,1.4,0.1,1.9,0.4c0.5,0.2,1,0.6,1.2,1c0.3,0.4,0.4,1,0.4,1.6
			c0,0.6-0.2,1.2-0.5,1.6c-0.3,0.5-0.7,0.8-1.3,1l1.9,2.8H209.3z M209.3,161c0-0.5-0.2-1-0.5-1.2c-0.4-0.3-0.9-0.4-1.5-0.4h-1.8v3.3
			h1.8c0.7,0,1.2-0.1,1.5-0.4C209.1,162,209.3,161.5,209.3,161z M214.1,159.3h-2.8V158h7.1v1.3h-2.8v7.1h-1.6V159.3z M223.1,166.5
			c-1.2,0-2.1-0.3-2.7-1c-0.6-0.7-1-1.6-1-2.8V158h1.5v4.7c0,1.6,0.7,2.5,2.1,2.5c1.4,0,2.1-0.8,2.1-2.5V158h1.5v4.8
			c0,1.2-0.3,2.1-1,2.8C225.2,166.2,224.3,166.5,223.1,166.5z M234.3,164.5H230l-0.8,1.9h-1.6l3.8-8.4h1.5l3.8,8.4h-1.6L234.3,164.5
			z M233.7,163.2l-1.6-3.7l-1.6,3.7H233.7z M237.8,158h1.6v7.1h4.4v1.3h-6V158z M256,166.4l0-5.6l-2.8,4.6h-0.7l-2.8-4.5v5.5h-1.5
			V158h1.3l3.3,5.6l3.3-5.6h1.3v8.4H256z M265.2,164.5H261l-0.8,1.9h-1.6l3.8-8.4h1.5l3.8,8.4H266L265.2,164.5z M264.7,163.2
			l-1.6-3.7l-1.6,3.7H264.7z M272.5,166.5c-0.8,0-1.6-0.2-2.3-0.6s-1.2-0.9-1.6-1.5s-0.6-1.4-0.6-2.2s0.2-1.6,0.6-2.2
			c0.4-0.7,0.9-1.2,1.6-1.5c0.7-0.4,1.5-0.6,2.3-0.6c0.7,0,1.3,0.1,1.9,0.4c0.6,0.2,1.1,0.6,1.5,1l-1,0.9c-0.6-0.7-1.4-1-2.2-1
			c-0.6,0-1.1,0.1-1.5,0.4c-0.4,0.2-0.8,0.6-1.1,1s-0.4,1-0.4,1.5c0,0.6,0.1,1.1,0.4,1.5s0.6,0.8,1.1,1c0.5,0.2,1,0.4,1.5,0.4
			c0.9,0,1.6-0.3,2.2-1l1,1c-0.4,0.5-0.9,0.8-1.5,1S273.2,166.5,272.5,166.5z M284.8,158v8.4h-1.6v-3.6h-4.3v3.6h-1.6V158h1.6v3.5
			h4.3V158H284.8z M287.1,158h1.6v8.4h-1.6V158z M298.4,158v8.4h-1.3l-4.6-5.7v5.7h-1.5V158h1.3l4.6,5.7V158H298.4z M306.9,165.1
			v1.3h-6.3V158h6.1v1.3h-4.6v2.2h4.1v1.3h-4.1v2.3H306.9z"/>
		<path class="st2" d="M248.9,361.3v-82.6h160"/>
		<path class="st7" d="M248.9,361.3v-82.6h148"/>
		<path class="st8" d="M396.9,282l9.1-3.3l-9.1-3.3V282z"/>
		<path class="st2" d="M480,251v-30.8H248.9v-30.8"/>
		<path class="st7" d="M480,239v-18.8H248.9v-30.8"/>
		<path class="st8" d="M476.7,239l3.3,9.1l3.3-9.1H476.7z"/>
		<path class="st2" d="M551.1,278.7h44.4v0.1H640"/>
		<path class="st7" d="M563.1,278.7h32.4v0.1H640"/>
		<path class="st8" d="M563.1,275.4l-9.1,3.3l9.1,3.3V275.4z"/>
		<path class="st9" d="M309.9,269.1h37.9v19.1h-37.9V269.1z"/>
		<path class="st10" d="M333.3,280h-1.5v2h-2.1v-2h-5v-1.5l4.4-5.9h2.3l-4.1,5.6h2.5v-1.8h2v1.8h1.5V280z"/>
		<path class="st9" d="M345.5,210.7h37.9v19.1h-37.9V210.7z"/>
		<path class="st10" d="M366,214.2v9.3h-2.2v-7.6h-1.9v-1.7H366z"/>
		<path class="st9" d="M568.4,253.1h37.9v19.1h-37.9V253.1z"/>
		<path class="st10" d="M591,264.2v1.8h-7v-1.4l3.6-3.4c0.4-0.4,0.6-0.7,0.8-0.9c0.1-0.3,0.2-0.5,0.2-0.8c0-0.4-0.1-0.7-0.4-0.9
			c-0.2-0.2-0.6-0.3-1.1-0.3c-0.4,0-0.8,0.1-1.1,0.2c-0.3,0.2-0.6,0.4-0.8,0.7l-1.6-1c0.4-0.5,0.9-1,1.5-1.3
			c0.6-0.3,1.4-0.5,2.2-0.5c0.7,0,1.3,0.1,1.8,0.3c0.5,0.2,0.9,0.5,1.2,1c0.3,0.4,0.4,0.9,0.4,1.5c0,0.5-0.1,1-0.3,1.4
			c-0.2,0.4-0.6,0.9-1.2,1.5l-2.1,2H591z"/>
		<path class="st5" d="M177.7,366.6L177.7,366.6c0-2.9,2.4-5.3,5.3-5.3h131.8c1.4,0,2.7,0.6,3.7,1.5s1.5,2.3,1.5,3.7v44.7
			c0,2.9-2.4,5.3-5.3,5.3H183c-2.9,0-5.3-2.4-5.3-5.3V366.6z"/>
		<path class="st6" d="M219.1,386.6c-0.5,0-1-0.1-1.5-0.3c-0.4-0.2-0.8-0.5-1.1-0.9l0.9-1.1c0.5,0.6,1,1,1.7,1
			c0.9,0,1.3-0.5,1.3-1.5v-4.3h-3V378h4.5v5.6c0,1-0.2,1.7-0.7,2.2C220.7,386.3,220,386.6,219.1,386.6z M226.7,386.6
			c-0.6,0-1.3-0.1-1.9-0.3c-0.6-0.2-1.1-0.4-1.4-0.7l0.5-1.2c0.3,0.3,0.8,0.5,1.3,0.7c0.5,0.2,1,0.2,1.5,0.2c0.6,0,1.1-0.1,1.4-0.3
			c0.3-0.2,0.5-0.5,0.5-0.8c0-0.2-0.1-0.4-0.3-0.6c-0.2-0.2-0.4-0.3-0.7-0.4c-0.3-0.1-0.6-0.2-1.1-0.3c-0.6-0.1-1.2-0.3-1.5-0.5
			c-0.4-0.2-0.7-0.4-1-0.7c-0.3-0.3-0.4-0.8-0.4-1.3c0-0.5,0.1-0.9,0.4-1.2c0.3-0.4,0.6-0.7,1.1-0.9c0.5-0.2,1.1-0.3,1.9-0.3
			c0.5,0,1,0.1,1.5,0.2c0.5,0.1,0.9,0.3,1.3,0.5l-0.5,1.2c-0.4-0.2-0.8-0.4-1.2-0.5c-0.4-0.1-0.8-0.2-1.2-0.2
			c-0.6,0-1.1,0.1-1.4,0.3c-0.3,0.2-0.5,0.5-0.5,0.8c0,0.2,0.1,0.4,0.2,0.6c0.2,0.1,0.4,0.3,0.7,0.4c0.3,0.1,0.6,0.2,1.1,0.3
			c0.6,0.1,1.1,0.3,1.5,0.5c0.4,0.2,0.8,0.4,1,0.7s0.4,0.8,0.4,1.3c0,0.5-0.1,0.9-0.4,1.3c-0.2,0.4-0.6,0.7-1.1,0.9
			C228.1,386.5,227.4,386.6,226.7,386.6z M235.6,386.6c-0.9,0-1.6-0.2-2.3-0.6c-0.7-0.4-1.2-0.9-1.6-1.5c-0.4-0.7-0.6-1.4-0.6-2.2
			c0-0.8,0.2-1.5,0.6-2.2c0.4-0.7,0.9-1.2,1.6-1.5c0.7-0.4,1.5-0.6,2.3-0.6c0.9,0,1.6,0.2,2.3,0.6c0.7,0.4,1.2,0.9,1.6,1.5
			c0.4,0.7,0.6,1.4,0.6,2.2c0,0.8-0.2,1.6-0.6,2.2c-0.4,0.7-0.9,1.2-1.6,1.5C237.2,386.4,236.4,386.6,235.6,386.6z M235.6,385.2
			c0.6,0,1.1-0.1,1.5-0.4c0.4-0.2,0.8-0.6,1-1c0.3-0.5,0.4-1,0.4-1.5c0-0.6-0.1-1.1-0.4-1.5c-0.3-0.4-0.6-0.8-1-1
			c-0.4-0.3-1-0.4-1.5-0.4c-0.6,0-1.1,0.1-1.5,0.4c-0.4,0.2-0.8,0.6-1.1,1c-0.3,0.4-0.4,1-0.4,1.5c0,0.6,0.1,1.1,0.4,1.5
			c0.3,0.4,0.6,0.8,1.1,1C234.5,385.1,235,385.2,235.6,385.2z M249.2,378v8.4h-1.3l-4.6-5.7v5.7h-1.5V378h1.3l4.6,5.7V378H249.2z
			 M251,382.5h3.3v1.2H251V382.5z M261.6,386.4l-1.7-2.5c-0.1,0-0.2,0-0.3,0h-1.9v2.5h-1.6V378h3.5c0.7,0,1.4,0.1,1.9,0.4
			c0.5,0.2,1,0.6,1.2,1c0.3,0.4,0.4,1,0.4,1.6s-0.2,1.2-0.5,1.6c-0.3,0.5-0.7,0.8-1.3,1l1.9,2.8H261.6z M261.5,381
			c0-0.5-0.2-1-0.5-1.2c-0.4-0.3-0.9-0.4-1.5-0.4h-1.8v3.3h1.8c0.7,0,1.2-0.1,1.5-0.4C261.4,382,261.5,381.6,261.5,381z M268.3,378
			c0.7,0,1.4,0.1,1.9,0.4s1,0.6,1.2,1c0.3,0.4,0.4,1,0.4,1.6c0,0.6-0.1,1.1-0.4,1.6c-0.3,0.4-0.7,0.8-1.2,1s-1.2,0.4-1.9,0.4h-1.9
			v2.4h-1.6V378H268.3z M268.2,382.7c0.7,0,1.2-0.1,1.5-0.4c0.4-0.3,0.5-0.7,0.5-1.2c0-0.5-0.2-1-0.5-1.2c-0.4-0.3-0.9-0.4-1.5-0.4
			h-1.8v3.3H268.2z M277.4,386.6c-0.8,0-1.6-0.2-2.3-0.6s-1.2-0.9-1.6-1.5c-0.4-0.7-0.6-1.4-0.6-2.2s0.2-1.6,0.6-2.2
			c0.4-0.7,0.9-1.2,1.6-1.5c0.7-0.4,1.5-0.6,2.3-0.6c0.7,0,1.3,0.1,1.9,0.4c0.6,0.2,1.1,0.6,1.5,1l-1,0.9c-0.6-0.7-1.4-1-2.2-1
			c-0.6,0-1.1,0.1-1.5,0.4c-0.4,0.2-0.8,0.6-1.1,1c-0.3,0.4-0.4,1-0.4,1.5c0,0.6,0.1,1.1,0.4,1.5c0.3,0.4,0.6,0.8,1.1,1
			c0.5,0.2,1,0.4,1.5,0.4c0.9,0,1.6-0.3,2.2-1l1,1c-0.4,0.5-0.9,0.8-1.5,1C278.8,386.5,278.1,386.6,277.4,386.6z"/>
		<path class="st6" d="M225.9,400.6c-0.6,0-1.3-0.1-1.9-0.3c-0.6-0.2-1.1-0.4-1.4-0.7l0.5-1.2c0.3,0.3,0.8,0.5,1.3,0.7
			c0.5,0.2,1,0.2,1.5,0.2c0.6,0,1.1-0.1,1.4-0.3c0.3-0.2,0.5-0.5,0.5-0.8c0-0.2-0.1-0.4-0.3-0.6c-0.2-0.2-0.4-0.3-0.7-0.4
			c-0.3-0.1-0.6-0.2-1.1-0.3c-0.6-0.1-1.2-0.3-1.5-0.5c-0.4-0.2-0.7-0.4-1-0.7c-0.3-0.3-0.4-0.8-0.4-1.3c0-0.5,0.1-0.9,0.4-1.2
			c0.3-0.4,0.6-0.7,1.1-0.9c0.5-0.2,1.1-0.3,1.9-0.3c0.5,0,1,0.1,1.5,0.2c0.5,0.1,0.9,0.3,1.3,0.5l-0.5,1.2
			c-0.4-0.2-0.8-0.4-1.2-0.5c-0.4-0.1-0.8-0.2-1.2-0.2c-0.6,0-1.1,0.1-1.4,0.3c-0.3,0.2-0.5,0.5-0.5,0.8c0,0.2,0.1,0.4,0.2,0.6
			c0.2,0.1,0.4,0.3,0.7,0.4c0.3,0.1,0.6,0.2,1.1,0.3c0.6,0.1,1.1,0.3,1.5,0.5c0.4,0.2,0.8,0.4,1,0.7s0.4,0.8,0.4,1.3
			c0,0.5-0.1,0.9-0.4,1.3c-0.2,0.4-0.6,0.7-1.1,0.9C227.2,400.5,226.6,400.6,225.9,400.6z M237.1,399.1v1.3h-6.3V392h6.1v1.3h-4.6
			v2.2h4.1v1.3h-4.1v2.3H237.1z M244.3,400.4l-1.7-2.5c-0.1,0-0.2,0-0.3,0h-1.9v2.5h-1.6V392h3.5c0.7,0,1.4,0.1,1.9,0.4
			c0.5,0.2,1,0.6,1.2,1c0.3,0.4,0.4,1,0.4,1.6s-0.2,1.2-0.5,1.6c-0.3,0.5-0.7,0.8-1.3,1l1.9,2.8H244.3z M244.3,395
			c0-0.5-0.2-1-0.5-1.2c-0.4-0.3-0.9-0.4-1.5-0.4h-1.8v3.3h1.8c0.7,0,1.2-0.1,1.5-0.4C244.1,396,244.3,395.6,244.3,395z M255.3,392
			l-3.7,8.4h-1.5l-3.7-8.4h1.7l2.8,6.5l2.8-6.5H255.3z M256.2,392h1.6v8.4h-1.6V392z M263.9,400.6c-0.8,0-1.6-0.2-2.3-0.6
			s-1.2-0.9-1.6-1.5s-0.6-1.4-0.6-2.2s0.2-1.6,0.6-2.2c0.4-0.7,0.9-1.2,1.6-1.5c0.7-0.4,1.5-0.6,2.3-0.6c0.7,0,1.3,0.1,1.9,0.4
			c0.6,0.2,1.1,0.6,1.5,1l-1,0.9c-0.6-0.7-1.4-1-2.2-1c-0.6,0-1.1,0.1-1.5,0.4c-0.4,0.2-0.8,0.6-1.1,1s-0.4,1-0.4,1.5
			c0,0.6,0.1,1.1,0.4,1.5s0.6,0.8,1.1,1c0.5,0.2,1,0.4,1.5,0.4c0.9,0,1.6-0.3,2.2-1l1,1c-0.4,0.5-0.9,0.8-1.5,1
			S264.6,400.6,263.9,400.6z M275,399.1v1.3h-6.3V392h6.1v1.3h-4.6v2.2h4.1v1.3h-4.1v2.3H275z"/>
		<path class="st5" d="M640,256.3L640,256.3c0-2.9,2.4-5.3,5.3-5.3H777c1.4,0,2.7,0.6,3.7,1.5c1,1,1.5,2.3,1.5,3.7V301
			c0,2.9-2.4,5.3-5.3,5.3H645.2c-2.9,0-5.3-2.4-5.3-5.3V256.3z"/>
		<path class="st6" d="M682.1,281.9v1.3h-6.3v-8.4h6.1v1.3h-4.6v2.2h4.1v1.3h-4.1v2.3H682.1z M689.1,283.2l-2.3-3.2l-2.2,3.2h-1.8
			l3.1-4.3l-3-4.1h1.8l2.1,3l2.1-3h1.7l-2.9,4.1l3.2,4.3H689.1z M698.1,281.9v1.3h-6.3v-8.4h6.1v1.3h-4.6v2.2h4.1v1.3h-4.1v2.3
			H698.1z M703.7,283.3c-0.8,0-1.6-0.2-2.3-0.6s-1.2-0.9-1.6-1.5c-0.4-0.7-0.6-1.4-0.6-2.2s0.2-1.6,0.6-2.2c0.4-0.7,0.9-1.2,1.6-1.5
			c0.7-0.4,1.5-0.6,2.3-0.6c0.7,0,1.3,0.1,1.9,0.4c0.6,0.2,1.1,0.6,1.5,1l-1,0.9c-0.6-0.7-1.4-1-2.2-1c-0.6,0-1.1,0.1-1.5,0.4
			c-0.4,0.2-0.8,0.6-1.1,1c-0.3,0.4-0.4,1-0.4,1.5c0,0.6,0.1,1.1,0.4,1.5c0.3,0.4,0.6,0.8,1.1,1c0.5,0.2,1,0.4,1.5,0.4
			c0.9,0,1.6-0.3,2.2-1l1,1c-0.4,0.5-0.9,0.8-1.5,1C705,283.2,704.4,283.3,703.7,283.3z M712.1,283.3c-1.2,0-2.1-0.3-2.7-1
			c-0.6-0.7-1-1.6-1-2.8v-4.8h1.5v4.7c0,1.6,0.7,2.5,2.1,2.5c1.4,0,2.1-0.8,2.1-2.5v-4.7h1.5v4.8c0,1.2-0.3,2.1-1,2.8
			C714.1,283,713.2,283.3,712.1,283.3z M719.5,276.1h-2.8v-1.3h7.1v1.3H721v7.1h-1.6V276.1z M725,274.8h1.6v8.4H725V274.8z
			 M732.8,283.3c-0.9,0-1.6-0.2-2.3-0.6s-1.2-0.9-1.6-1.5c-0.4-0.7-0.6-1.4-0.6-2.2c0-0.8,0.2-1.5,0.6-2.2c0.4-0.7,0.9-1.2,1.6-1.5
			c0.7-0.4,1.5-0.6,2.3-0.6c0.9,0,1.6,0.2,2.3,0.6c0.7,0.4,1.2,0.9,1.6,1.5c0.4,0.7,0.6,1.4,0.6,2.2s-0.2,1.6-0.6,2.2
			c-0.4,0.7-0.9,1.2-1.6,1.5S733.6,283.3,732.8,283.3z M732.8,281.9c0.6,0,1.1-0.1,1.5-0.4c0.4-0.2,0.8-0.6,1-1
			c0.3-0.5,0.4-1,0.4-1.5s-0.1-1.1-0.4-1.5c-0.2-0.4-0.6-0.8-1-1c-0.4-0.3-1-0.4-1.5-0.4c-0.6,0-1.1,0.1-1.5,0.4
			c-0.4,0.2-0.8,0.6-1.1,1c-0.3,0.4-0.4,1-0.4,1.5s0.1,1.1,0.4,1.5c0.3,0.4,0.6,0.8,1.1,1C731.7,281.8,732.2,281.9,732.8,281.9z
			 M746.4,274.8v8.4h-1.3l-4.6-5.7v5.7h-1.5v-8.4h1.3l4.6,5.7v-5.7H746.4z"/>
		<path class="st9" d="M568.4,285.1h37.9v19.1h-37.9V285.1z"/>
		<path class="st10" d="M588.3,292.4c0.8,0.1,1.4,0.4,1.9,0.9c0.4,0.5,0.7,1.1,0.7,1.8c0,0.5-0.1,1-0.4,1.5s-0.7,0.8-1.3,1.1
			c-0.6,0.3-1.3,0.4-2.1,0.4c-0.7,0-1.3-0.1-1.9-0.2c-0.6-0.2-1.2-0.4-1.6-0.8l0.8-1.7c0.4,0.3,0.8,0.5,1.2,0.6s0.9,0.2,1.4,0.2
			c0.6,0,1-0.1,1.3-0.3c0.3-0.2,0.5-0.5,0.5-0.9c0-0.8-0.6-1.1-1.8-1.1h-1v-1.4l1.9-2.2h-4v-1.7h6.5v1.4L588.3,292.4z"/>
		<path class="st2" d="M256.3,45h447.3v61.9H256.3V45z"/>
		<path class="st11" d="M441.1,84.6c-1.2,0-2.4-0.2-3.5-0.6s-2-1-2.6-1.6l0.6-0.9c0.6,0.6,1.4,1.1,2.4,1.5s2.1,0.6,3.2,0.6
			c1.6,0,2.8-0.3,3.6-0.9c0.8-0.6,1.2-1.4,1.2-2.4c0-0.8-0.2-1.3-0.7-1.8c-0.4-0.4-1-0.8-1.6-1c-0.6-0.2-1.5-0.5-2.6-0.8
			c-1.2-0.3-2.2-0.6-3-0.9c-0.7-0.3-1.4-0.7-1.9-1.3c-0.5-0.6-0.8-1.4-0.8-2.4c0-0.8,0.2-1.6,0.6-2.2s1.1-1.2,2-1.6
			c0.9-0.4,2-0.6,3.3-0.6c0.9,0,1.9,0.1,2.8,0.4s1.7,0.6,2.3,1.1l-0.5,1c-0.7-0.5-1.4-0.8-2.2-1.1c-0.8-0.2-1.6-0.4-2.4-0.4
			c-1.6,0-2.7,0.3-3.5,0.9c-0.8,0.6-1.2,1.4-1.2,2.4c0,0.8,0.2,1.3,0.6,1.8c0.4,0.4,1,0.8,1.6,1c0.6,0.2,1.5,0.5,2.6,0.8
			c1.2,0.3,2.2,0.6,2.9,0.9c0.7,0.3,1.4,0.7,1.9,1.3s0.8,1.4,0.8,2.4c0,0.8-0.2,1.6-0.7,2.2c-0.4,0.7-1.1,1.2-2,1.6
			C443.5,84.4,442.4,84.6,441.1,84.6z M457.1,83.7c-0.3,0.3-0.7,0.5-1.2,0.7c-0.4,0.1-0.9,0.2-1.4,0.2c-1.1,0-1.9-0.3-2.5-0.9
			c-0.6-0.6-0.9-1.4-0.9-2.5V73h-2.3v-1h2.3v-2.7h1.2v2.7h4v1h-4V81c0,0.8,0.2,1.4,0.6,1.9c0.4,0.4,1,0.6,1.8,0.6
			c0.8,0,1.4-0.2,1.9-0.7L457.1,83.7z M464.9,84.6c-1.2,0-2.3-0.3-3.2-0.8s-1.7-1.3-2.2-2.3c-0.5-1-0.8-2.1-0.8-3.3s0.3-2.3,0.8-3.3
			c0.6-1,1.3-1.7,2.2-2.3c0.9-0.6,2-0.8,3.2-0.8s2.3,0.3,3.2,0.8c1,0.5,1.7,1.3,2.2,2.3c0.5,1,0.8,2,0.8,3.3s-0.3,2.3-0.8,3.3
			s-1.3,1.7-2.2,2.3C467.1,84.3,466.1,84.6,464.9,84.6z M464.9,83.5c1,0,1.8-0.2,2.6-0.7s1.4-1.1,1.8-1.9c0.4-0.8,0.7-1.7,0.7-2.7
			s-0.2-1.9-0.7-2.7c-0.4-0.8-1-1.4-1.8-1.9s-1.6-0.7-2.6-0.7s-1.8,0.2-2.6,0.7s-1.4,1.1-1.8,1.9s-0.7,1.7-0.7,2.7s0.2,1.9,0.7,2.7
			s1,1.4,1.8,1.9S463.9,83.5,464.9,83.5z M476,74.7c0.4-0.9,1-1.6,1.8-2.1c0.8-0.5,1.8-0.7,3-0.7V73l-0.3,0c-1.4,0-2.5,0.4-3.3,1.3
			c-0.8,0.9-1.2,2.1-1.2,3.6v6.5h-1.2V71.9h1.2V74.7z M488.3,71.8c1.6,0,2.7,0.4,3.6,1.2c0.8,0.8,1.3,2,1.2,3.5v7.9H492v-2.2
			c-0.4,0.7-1,1.3-1.8,1.7c-0.8,0.4-1.7,0.6-2.8,0.6c-1.4,0-2.5-0.3-3.3-1c-0.8-0.7-1.2-1.5-1.2-2.6c0-1,0.4-1.9,1.1-2.5
			c0.7-0.6,1.9-1,3.6-1h4.3v-1c0-1.2-0.3-2.1-1-2.7c-0.6-0.6-1.5-0.9-2.8-0.9c-0.8,0-1.6,0.1-2.4,0.4c-0.8,0.3-1.4,0.7-1.9,1.1
			l-0.6-0.9c0.6-0.6,1.4-1,2.2-1.3C486.4,72,487.4,71.8,488.3,71.8z M487.6,83.6c1,0,1.9-0.2,2.7-0.7c0.7-0.5,1.3-1.2,1.6-2.1v-2.3
			h-4.3c-1.2,0-2.1,0.2-2.7,0.7c-0.6,0.4-0.8,1.1-0.8,1.8c0,0.8,0.3,1.5,0.9,1.9C485.7,83.3,486.5,83.6,487.6,83.6z M509.4,71.9
			v11.2c0,2.1-0.5,3.6-1.5,4.6c-1,1-2.5,1.5-4.6,1.5c-1.1,0-2.2-0.2-3.3-0.5c-1-0.3-1.8-0.8-2.5-1.5l0.6-0.9c0.6,0.6,1.4,1,2.2,1.3
			c0.9,0.3,1.8,0.5,2.8,0.5c1.7,0,2.9-0.4,3.7-1.2c0.8-0.8,1.2-2,1.2-3.7v-2.1c-0.5,0.9-1.2,1.6-2.1,2.1c-0.9,0.5-1.9,0.7-3.1,0.7
			c-1.2,0-2.2-0.3-3.2-0.8c-0.9-0.5-1.7-1.2-2.2-2.2c-0.5-0.9-0.8-2-0.8-3.1s0.3-2.2,0.8-3.1c0.6-0.9,1.3-1.7,2.2-2.2
			c0.9-0.5,2-0.8,3.2-0.8c1.1,0,2.2,0.3,3.1,0.8c0.9,0.5,1.6,1.2,2.1,2.2v-2.8H509.4z M503.1,82.9c1,0,1.8-0.2,2.6-0.6
			c0.8-0.4,1.4-1,1.8-1.8s0.7-1.6,0.7-2.6c0-1-0.2-1.8-0.7-2.6s-1.1-1.3-1.8-1.8c-0.8-0.4-1.7-0.6-2.6-0.6c-1,0-1.9,0.2-2.6,0.6
			c-0.8,0.4-1.4,1-1.8,1.8s-0.7,1.6-0.7,2.6c0,1,0.2,1.8,0.7,2.6s1,1.4,1.8,1.8C501.2,82.7,502.1,82.9,503.1,82.9z M525.1,78.5
			h-10.8c0,1,0.3,1.8,0.7,2.6c0.5,0.8,1.1,1.3,1.9,1.8c0.8,0.4,1.7,0.6,2.7,0.6c0.8,0,1.6-0.1,2.3-0.4c0.7-0.3,1.3-0.7,1.7-1.3
			l0.7,0.8c-0.5,0.7-1.2,1.2-2,1.5c-0.8,0.3-1.7,0.5-2.7,0.5c-1.2,0-2.3-0.3-3.3-0.8c-1-0.5-1.7-1.3-2.3-2.2c-0.6-1-0.8-2.1-0.8-3.3
			c0-1.2,0.3-2.3,0.8-3.3c0.5-1,1.2-1.7,2.1-2.3c0.9-0.6,1.9-0.8,3.1-0.8c1.1,0,2.2,0.3,3.1,0.8c0.9,0.5,1.6,1.3,2.1,2.2
			c0.5,1,0.8,2,0.8,3.3L525.1,78.5z M519.1,72.9c-0.9,0-1.7,0.2-2.4,0.6c-0.7,0.4-1.3,0.9-1.7,1.7c-0.4,0.7-0.7,1.5-0.7,2.4h9.6
			c0-0.9-0.3-1.7-0.7-2.4c-0.4-0.7-1-1.3-1.7-1.7C520.8,73.1,520,72.9,519.1,72.9z"/>
		<path class="st2" d="M42.2,496.6h77.2v20.2H42.2L42.2,496.6z"/>
		<g transform="matrix(0.0711588329275762 0.0 0.0 0.07115828068175029 6.157295983149815 431.3746918714628)">
			<g>
				<defs>
					<rect id="SVGID_00000065760878330757449440000015963090929537254283_" x="1010" y="1048.4" width="77.2" height="20.2"/>
				</defs>
				<clipPath id="SVGID_00000168806608247274538880000007373319282399411877_">
					<use xlink:href="#SVGID_00000065760878330757449440000015963090929537254283_"  style="overflow:visible;"/>
				</clipPath>
			</g>
		</g>
	</g>
</g>
</svg>
