<?xml version="1.0" encoding="utf-8"?>
<!-- Generator: Adobe Illustrator 26.0.3, SVG Export Plug-In . SVG Version: 6.00 Build 0)  -->
<svg version="1.1" id="Layer_1" xmlns="http://www.w3.org/2000/svg" xmlns:xlink="http://www.w3.org/1999/xlink" x="0px" y="0px"
	 width="960px" height="540px" viewBox="0 0 960 540" style="enable-background:new 0 0 960 540;" xml:space="preserve">
<style type="text/css">
	.st0{clip-path:url(#SVGID_00000031902767798284746250000007577654570995500714_);}
	.st1{fill-rule:evenodd;clip-rule:evenodd;fill:#F3F4FB;}
	.st2{fill-rule:evenodd;clip-rule:evenodd;fill:#CCCCCC;}
	.st3{fill-rule:evenodd;clip-rule:evenodd;fill:#B7B7B7;}
	.st4{fill:#B7B7B7;}
	.st5{fill-opacity:0;}
	.st6{fill:#999999;}
	.st7{fill:#010000;fill-opacity:0;}
	.st8{fill-rule:evenodd;clip-rule:evenodd;fill-opacity:0;}
	.st9{fill:none;stroke:#CCCCCC;stroke-linejoin:round;stroke-miterlimit:10;}
	.st10{fill-rule:evenodd;clip-rule:evenodd;fill:#CCCCCC;stroke:#CCCCCC;stroke-miterlimit:10;}
	.st11{fill-rule:evenodd;clip-rule:evenodd;fill:#8ECFBA;}
	.st12{fill:#497F6D;}
	.st13{fill-rule:evenodd;clip-rule:evenodd;fill:#BCEEFF;}
	.st14{fill:#4A729C;}
	.st15{fill:none;stroke:#92B4D8;stroke-linejoin:round;stroke-miterlimit:10;}
	.st16{fill-rule:evenodd;clip-rule:evenodd;fill:#92B4D8;stroke:#92B4D8;stroke-miterlimit:10;}
</style>
<g>
	<defs>
		<rect id="SVGID_1_" width="960" height="540"/>
	</defs>
	<clipPath id="SVGID_00000039827329202032333790000005025055037958921638_">
		<use xlink:href="#SVGID_1_"  style="overflow:visible;"/>
	</clipPath>
	<g style="clip-path:url(#SVGID_00000039827329202032333790000005025055037958921638_);">
		<path class="st1" d="M0,0h960v540H0V0z"/>
		<path class="st2" d="M48,87.1L48,87.1c0-7.4,6-13.4,13.4-13.4h152.3c3.6,0,7,1.4,9.5,3.9c2.5,2.5,3.9,5.9,3.9,9.5v278.2
			c0,7.4-6,13.4-13.4,13.4H61.4c-7.4,0-13.4-6-13.4-13.4L48,87.1z"/>
		<path class="st3" d="M80,128.5L80,128.5c0-1.7,1.3-3,3-3h109.2c0.8,0,1.6,0.3,2.1,0.9c0.6,0.6,0.9,1.3,0.9,2.1V154
			c0,1.7-1.3,3-3,3H83c-1.7,0-3-1.3-3-3V128.5z"/>
		<path class="st4" d="M107,128.2h61.2V141H107V128.2z"/>
		<path class="st5" d="M107,128.2h61.2v13H107V128.2z"/>
		<path class="st6" d="M111.1,131c0.6,0,1.2,0.1,1.7,0.3c0.5,0.2,0.8,0.5,1.1,0.9c0.3,0.4,0.4,0.9,0.4,1.4s-0.1,1-0.4,1.4
			c-0.2,0.4-0.6,0.7-1.1,0.9c-0.5,0.2-1,0.3-1.7,0.3h-1.7v2.2H108V131H111.1z M111,135.2c0.6,0,1.1-0.1,1.4-0.4
			c0.3-0.3,0.5-0.6,0.5-1.1c0-0.5-0.2-0.8-0.5-1.1c-0.3-0.3-0.8-0.4-1.4-0.4h-1.6v3H111z M121.2,137.3v1.2h-5.6V131h5.5v1.2H117v1.9
			h3.6v1.1H117v2.1H121.2z M127.6,138.5l-1.5-2.2c-0.1,0-0.2,0-0.3,0h-1.7v2.2h-1.4V131h3.1c0.6,0,1.2,0.1,1.7,0.3
			c0.5,0.2,0.8,0.5,1.1,0.9c0.3,0.4,0.4,0.9,0.4,1.4c0,0.6-0.1,1-0.4,1.5c-0.3,0.4-0.7,0.7-1.2,0.9l1.7,2.5H127.6z M127.6,133.7
			c0-0.5-0.2-0.8-0.5-1.1c-0.3-0.3-0.8-0.4-1.4-0.4h-1.6v3h1.6c0.6,0,1.1-0.1,1.4-0.4S127.6,134.2,127.6,133.7z M132.9,138.6
			c-0.6,0-1.1-0.1-1.7-0.2c-0.5-0.2-1-0.4-1.3-0.6l0.5-1.1c0.3,0.2,0.7,0.4,1.1,0.6c0.4,0.1,0.9,0.2,1.3,0.2c0.6,0,1-0.1,1.2-0.3
			c0.3-0.2,0.4-0.4,0.4-0.7c0-0.2-0.1-0.4-0.2-0.5c-0.2-0.1-0.4-0.3-0.6-0.3c-0.2-0.1-0.5-0.2-0.9-0.3c-0.6-0.1-1-0.3-1.4-0.4
			c-0.3-0.1-0.6-0.3-0.9-0.6c-0.2-0.3-0.4-0.7-0.4-1.2c0-0.4,0.1-0.8,0.3-1.1c0.2-0.3,0.6-0.6,1-0.8c0.5-0.2,1-0.3,1.7-0.3
			c0.5,0,0.9,0.1,1.3,0.2c0.4,0.1,0.8,0.3,1.1,0.5l-0.4,1.1c-0.3-0.2-0.7-0.3-1-0.4s-0.7-0.2-1-0.2c-0.6,0-1,0.1-1.2,0.3
			c-0.3,0.2-0.4,0.4-0.4,0.7c0,0.2,0.1,0.4,0.2,0.5c0.2,0.1,0.3,0.2,0.6,0.3c0.2,0.1,0.6,0.2,1,0.2c0.6,0.1,1,0.3,1.4,0.4
			c0.4,0.1,0.7,0.3,0.9,0.6c0.2,0.3,0.4,0.7,0.4,1.1c0,0.4-0.1,0.8-0.3,1.1c-0.2,0.3-0.6,0.6-1,0.8
			C134.1,138.5,133.5,138.6,132.9,138.6z M140.7,138.6c-0.8,0-1.4-0.2-2.1-0.5c-0.6-0.3-1.1-0.8-1.4-1.4c-0.3-0.6-0.5-1.2-0.5-2
			c0-0.7,0.2-1.4,0.5-2c0.4-0.6,0.8-1.1,1.4-1.4c0.6-0.3,1.3-0.5,2.1-0.5s1.4,0.2,2,0.5c0.6,0.3,1.1,0.8,1.4,1.4
			c0.4,0.6,0.5,1.2,0.5,2c0,0.7-0.2,1.4-0.5,2c-0.3,0.6-0.8,1-1.4,1.4C142.2,138.4,141.5,138.6,140.7,138.6z M140.7,137.4
			c0.5,0,0.9-0.1,1.3-0.3c0.4-0.2,0.7-0.5,0.9-0.9c0.2-0.4,0.3-0.9,0.3-1.4c0-0.5-0.1-0.9-0.3-1.3s-0.5-0.7-0.9-0.9
			s-0.8-0.3-1.3-0.3s-0.9,0.1-1.3,0.3s-0.7,0.5-0.9,0.9s-0.3,0.9-0.3,1.3c0,0.5,0.1,1,0.3,1.4c0.2,0.4,0.5,0.7,0.9,0.9
			C139.8,137.3,140.2,137.4,140.7,137.4z M152.8,131v7.5h-1.1l-4.1-5v5h-1.4V131h1.1l4.1,5v-5H152.8z M159.7,136.8H156l-0.7,1.7
			h-1.4l3.3-7.5h1.4l3.4,7.5h-1.5L159.7,136.8z M159.2,135.7l-1.4-3.3l-1.4,3.3H159.2z M162.8,131h1.4v6.3h3.9v1.2h-5.3V131z"/>
		<path class="st5" d="M168.2,128.2h2.9v13h-2.9V128.2z"/>
		<path class="st4" d="M114.4,141.2h46.4V154h-46.4V141.2z"/>
		<path class="st5" d="M114.4,141.2h46.4v13h-46.4V141.2z"/>
		<path class="st6" d="M115.4,144h3.3c0.8,0,1.5,0.2,2.1,0.5c0.6,0.3,1.1,0.7,1.4,1.3c0.3,0.6,0.5,1.2,0.5,2c0,0.7-0.2,1.4-0.5,2
			c-0.3,0.6-0.8,1-1.4,1.3c-0.6,0.3-1.3,0.5-2.1,0.5h-3.3V144z M118.6,150.3c0.5,0,1-0.1,1.4-0.3c0.4-0.2,0.7-0.5,1-0.9
			c0.2-0.4,0.3-0.8,0.3-1.4c0-0.5-0.1-1-0.3-1.3c-0.2-0.4-0.5-0.7-1-0.9c-0.4-0.2-0.9-0.3-1.4-0.3h-1.8v5.1H118.6z M129.8,150.3v1.2
			h-5.6V144h5.5v1.2h-4.1v1.9h3.6v1.1h-3.6v2.1H129.8z M132.9,145.2h-2.5V144h6.3v1.2h-2.5v6.3h-1.4V145.2z M142.2,149.8h-3.7
			l-0.7,1.7h-1.4l3.3-7.5h1.4l3.4,7.5H143L142.2,149.8z M141.8,148.7l-1.4-3.3l-1.4,3.3H141.8z M145.4,144h1.4v7.5h-1.4V144z
			 M148.8,144h1.4v6.3h3.9v1.2h-5.3V144z M157.4,151.6c-0.6,0-1.1-0.1-1.7-0.2c-0.5-0.2-1-0.4-1.3-0.6l0.5-1.1
			c0.3,0.2,0.7,0.4,1.1,0.6c0.4,0.1,0.9,0.2,1.3,0.2c0.6,0,1-0.1,1.2-0.3c0.3-0.2,0.4-0.4,0.4-0.7c0-0.2-0.1-0.4-0.2-0.5
			c-0.2-0.1-0.4-0.3-0.6-0.3c-0.2-0.1-0.5-0.2-0.9-0.3c-0.6-0.1-1-0.3-1.4-0.4c-0.3-0.1-0.6-0.3-0.9-0.6c-0.2-0.3-0.4-0.7-0.4-1.2
			c0-0.4,0.1-0.8,0.3-1.1c0.2-0.3,0.6-0.6,1-0.8c0.5-0.2,1-0.3,1.7-0.3c0.5,0,0.9,0.1,1.3,0.2c0.4,0.1,0.8,0.3,1.1,0.5l-0.4,1.1
			c-0.3-0.2-0.7-0.3-1-0.4s-0.7-0.2-1-0.2c-0.6,0-1,0.1-1.2,0.3c-0.3,0.2-0.4,0.4-0.4,0.7c0,0.2,0.1,0.4,0.2,0.5
			c0.2,0.1,0.3,0.2,0.6,0.3c0.2,0.1,0.6,0.2,1,0.2c0.6,0.1,1,0.3,1.4,0.4c0.4,0.1,0.7,0.3,0.9,0.6c0.2,0.3,0.4,0.7,0.4,1.1
			c0,0.4-0.1,0.8-0.3,1.1c-0.2,0.3-0.6,0.6-1,0.8C158.6,151.5,158.1,151.6,157.4,151.6z"/>
		<path class="st7" d="M160.8,141.8L160.8,141.8v12.3l0,0V141.8z"/>
		<path class="st3" d="M80,180L80,180c0-1.7,1.3-3,3-3h109.2c0.8,0,1.6,0.3,2.1,0.9c0.6,0.6,0.9,1.3,0.9,2.1v25.5c0,1.7-1.3,3-3,3
			H83c-1.7,0-3-1.3-3-3V180z"/>
		<path class="st4" d="M100.9,179.8h73.4v12.8h-73.4V179.8z"/>
		<path class="st5" d="M100.9,179.7h73.4v13h-73.4V179.7z"/>
		<path class="st6" d="M105.3,190.1c-0.8,0-1.4-0.2-2-0.5c-0.6-0.3-1.1-0.8-1.4-1.4c-0.3-0.6-0.5-1.2-0.5-2c0-0.7,0.2-1.4,0.5-2
			c0.4-0.6,0.8-1,1.4-1.4c0.6-0.3,1.3-0.5,2-0.5c0.6,0,1.2,0.1,1.7,0.3c0.5,0.2,0.9,0.5,1.3,0.9l-0.9,0.8c-0.5-0.6-1.2-0.9-2-0.9
			c-0.5,0-1,0.1-1.4,0.3s-0.7,0.5-1,0.9c-0.2,0.4-0.3,0.8-0.3,1.3c0,0.5,0.1,1,0.3,1.4s0.5,0.7,1,0.9c0.4,0.2,0.9,0.3,1.4,0.3
			c0.8,0,1.5-0.3,2-0.9l0.9,0.9c-0.4,0.4-0.8,0.7-1.3,0.9C106.5,190,106,190.1,105.3,190.1z M113,190.1c-0.8,0-1.4-0.2-2.1-0.5
			c-0.6-0.3-1.1-0.8-1.4-1.4c-0.3-0.6-0.5-1.2-0.5-2c0-0.7,0.2-1.4,0.5-2c0.4-0.6,0.8-1.1,1.4-1.4c0.6-0.3,1.3-0.5,2.1-0.5
			c0.8,0,1.4,0.2,2,0.5c0.6,0.3,1.1,0.8,1.4,1.4c0.4,0.6,0.5,1.2,0.5,2c0,0.7-0.2,1.4-0.5,2c-0.3,0.6-0.8,1-1.4,1.4
			C114.4,190,113.7,190.1,113,190.1z M113,188.9c0.5,0,0.9-0.1,1.3-0.3c0.4-0.2,0.7-0.5,0.9-0.9c0.2-0.4,0.3-0.9,0.3-1.4
			c0-0.5-0.1-0.9-0.3-1.3c-0.2-0.4-0.5-0.7-0.9-0.9c-0.4-0.2-0.8-0.3-1.3-0.3c-0.5,0-0.9,0.1-1.3,0.3c-0.4,0.2-0.7,0.5-0.9,0.9
			c-0.2,0.4-0.3,0.9-0.3,1.3c0,0.5,0.1,1,0.3,1.4c0.2,0.4,0.5,0.7,0.9,0.9C112,188.8,112.5,188.9,113,188.9z M121.6,190.1
			c-1,0-1.8-0.3-2.4-0.9c-0.6-0.6-0.9-1.4-0.9-2.5v-4.2h1.4v4.2c0,1.5,0.6,2.2,1.9,2.2c1.3,0,1.9-0.7,1.9-2.2v-4.2h1.4v4.2
			c0,1.1-0.3,1.9-0.9,2.5C123.5,189.9,122.7,190.1,121.6,190.1z M133.5,182.6v7.5h-1.1l-4.1-5v5h-1.4v-7.5h1.1l4.1,5v-5H133.5z
			 M137,183.8h-2.5v-1.2h6.3v1.2h-2.5v6.3H137V183.8z M146.8,190l-1.5-2.2c-0.1,0-0.2,0-0.3,0h-1.7v2.2h-1.4v-7.5h3.1
			c0.6,0,1.2,0.1,1.7,0.3c0.5,0.2,0.8,0.5,1.1,0.9c0.3,0.4,0.4,0.9,0.4,1.4c0,0.6-0.1,1-0.4,1.5c-0.3,0.4-0.7,0.7-1.2,0.9l1.7,2.5
			H146.8z M146.7,185.2c0-0.5-0.2-0.8-0.5-1.1c-0.3-0.3-0.8-0.4-1.4-0.4h-1.6v3h1.6c0.6,0,1.1-0.1,1.4-0.4S146.7,185.7,146.7,185.2z
			 M152.8,187.4v2.6h-1.4v-2.6l-2.9-4.8h1.5l2.2,3.6l2.2-3.6h1.4L152.8,187.4z M163.1,190.1c-0.8,0-1.4-0.2-2.1-0.5
			c-0.6-0.3-1.1-0.8-1.4-1.4c-0.3-0.6-0.5-1.2-0.5-2c0-0.7,0.2-1.4,0.5-2c0.4-0.6,0.8-1.1,1.4-1.4c0.6-0.3,1.3-0.5,2.1-0.5
			s1.4,0.2,2,0.5c0.6,0.3,1.1,0.8,1.4,1.4c0.4,0.6,0.5,1.2,0.5,2c0,0.7-0.2,1.4-0.5,2c-0.3,0.6-0.8,1-1.4,1.4
			C164.5,190,163.8,190.1,163.1,190.1z M163.1,188.9c0.5,0,0.9-0.1,1.3-0.3c0.4-0.2,0.7-0.5,0.9-0.9c0.2-0.4,0.3-0.9,0.3-1.4
			c0-0.5-0.1-0.9-0.3-1.3s-0.5-0.7-0.9-0.9s-0.8-0.3-1.3-0.3s-0.9,0.1-1.3,0.3s-0.7,0.5-0.9,0.9s-0.3,0.9-0.3,1.3
			c0,0.5,0.1,1,0.3,1.4c0.2,0.4,0.5,0.7,0.9,0.9C162.1,188.8,162.6,188.9,163.1,188.9z M169.9,183.7v2.3h3.6v1.2h-3.6v2.9h-1.4v-7.5
			h5.5v1.2H169.9z"/>
		<path class="st5" d="M174.3,179.7h2.9v13h-2.9V179.7z"/>
		<path class="st4" d="M105.4,192.8h64.5v12.8h-64.5V192.8z"/>
		<path class="st5" d="M105.4,192.7h64.5v13h-64.5V192.7z"/>
		<path class="st6" d="M111.2,203l-1.5-2.2c-0.1,0-0.2,0-0.3,0h-1.7v2.2h-1.4v-7.5h3.1c0.6,0,1.2,0.1,1.7,0.3
			c0.5,0.2,0.8,0.5,1.1,0.9c0.3,0.4,0.4,0.9,0.4,1.4c0,0.6-0.1,1-0.4,1.5c-0.3,0.4-0.7,0.7-1.2,0.9l1.7,2.5H111.2z M111.2,198.2
			c0-0.5-0.2-0.8-0.5-1.1c-0.3-0.3-0.8-0.4-1.4-0.4h-1.6v3h1.6c0.6,0,1.1-0.1,1.4-0.4S111.2,198.7,111.2,198.2z M119.7,201.9v1.2
			h-5.6v-7.5h5.5v1.2h-4.1v1.9h3.6v1.1h-3.6v2.1H119.7z M123.6,203.1c-0.6,0-1.1-0.1-1.7-0.2c-0.5-0.2-1-0.4-1.3-0.6l0.5-1.1
			c0.3,0.2,0.7,0.4,1.1,0.6c0.4,0.1,0.9,0.2,1.3,0.2c0.6,0,1-0.1,1.2-0.3c0.3-0.2,0.4-0.4,0.4-0.7c0-0.2-0.1-0.4-0.2-0.5
			c-0.2-0.1-0.4-0.3-0.6-0.3c-0.2-0.1-0.5-0.2-0.9-0.3c-0.6-0.1-1-0.3-1.4-0.4c-0.3-0.1-0.6-0.3-0.9-0.6c-0.2-0.3-0.4-0.7-0.4-1.2
			c0-0.4,0.1-0.8,0.3-1.1c0.2-0.3,0.6-0.6,1-0.8c0.5-0.2,1-0.3,1.7-0.3c0.5,0,0.9,0.1,1.3,0.2c0.4,0.1,0.8,0.3,1.1,0.5l-0.4,1.1
			c-0.3-0.2-0.7-0.3-1-0.4c-0.4-0.1-0.7-0.2-1-0.2c-0.6,0-1,0.1-1.2,0.3c-0.3,0.2-0.4,0.4-0.4,0.7c0,0.2,0.1,0.4,0.2,0.5
			c0.2,0.1,0.3,0.2,0.6,0.3c0.2,0.1,0.6,0.2,1,0.2c0.6,0.1,1,0.3,1.4,0.4c0.4,0.1,0.7,0.3,0.9,0.6c0.2,0.3,0.4,0.7,0.4,1.1
			c0,0.4-0.1,0.8-0.3,1.1c-0.2,0.3-0.6,0.6-1,0.8C124.8,203,124.3,203.1,123.6,203.1z M128,195.6h1.4v7.5H128V195.6z M131.4,195.6
			h3.3c0.8,0,1.5,0.2,2.1,0.5c0.6,0.3,1.1,0.7,1.4,1.3c0.3,0.6,0.5,1.2,0.5,2s-0.2,1.4-0.5,2c-0.3,0.6-0.8,1-1.4,1.3
			c-0.6,0.3-1.3,0.5-2.1,0.5h-3.3V195.6z M134.6,201.9c0.5,0,1-0.1,1.4-0.3s0.7-0.5,1-0.9c0.2-0.4,0.3-0.8,0.3-1.4s-0.1-1-0.3-1.3
			c-0.2-0.4-0.5-0.7-1-0.9s-0.9-0.3-1.4-0.3h-1.8v5.1H134.6z M145.8,201.9v1.2h-5.6v-7.5h5.5v1.2h-4.1v1.9h3.6v1.1h-3.6v2.1H145.8z
			 M154,195.6v7.5h-1.1l-4.1-5v5h-1.4v-7.5h1.1l4.1,5v-5H154z M159.4,203.1c-0.8,0-1.4-0.2-2-0.5c-0.6-0.3-1.1-0.8-1.4-1.4
			c-0.3-0.6-0.5-1.2-0.5-2c0-0.7,0.2-1.4,0.5-2c0.4-0.6,0.8-1,1.4-1.4c0.6-0.3,1.3-0.5,2-0.5c0.6,0,1.2,0.1,1.7,0.3
			c0.5,0.2,0.9,0.5,1.3,0.9l-0.9,0.8c-0.5-0.6-1.2-0.9-2-0.9c-0.5,0-1,0.1-1.4,0.3s-0.7,0.5-1,0.9c-0.2,0.4-0.3,0.8-0.3,1.3
			c0,0.5,0.1,1,0.3,1.4c0.2,0.4,0.5,0.7,1,0.9c0.4,0.2,0.9,0.3,1.4,0.3c0.8,0,1.5-0.3,2-0.9l0.9,0.9c-0.4,0.4-0.8,0.7-1.3,0.9
			C160.6,203,160,203.1,159.4,203.1z M169.3,201.9v1.2h-5.6v-7.5h5.5v1.2h-4.1v1.9h3.6v1.1h-3.6v2.1H169.3z"/>
		<path class="st7" d="M169.9,193.4L169.9,193.4v12.3l0,0V193.4z"/>
		<path class="st3" d="M80,231.6L80,231.6c0-1.7,1.3-3,3-3h109.2c0.8,0,1.6,0.3,2.1,0.9c0.6,0.6,0.9,1.3,0.9,2.1v25.5
			c0,1.7-1.3,3-3,3H83c-1.7,0-3-1.3-3-3V231.6z"/>
		<path class="st4" d="M110.7,237.8h53.9v12.8h-53.9V237.8z"/>
		<path class="st5" d="M110.7,237.8h53.9v13h-53.9V237.8z"/>
		<path class="st6" d="M116.5,246.4h-3.7l-0.7,1.7h-1.4l3.3-7.5h1.4l3.4,7.5h-1.5L116.5,246.4z M116.1,245.3l-1.4-3.3l-1.4,3.3
			H116.1z M119.7,240.6h3.3c0.8,0,1.5,0.2,2.1,0.5c0.6,0.3,1.1,0.7,1.4,1.3c0.3,0.6,0.5,1.2,0.5,2s-0.2,1.4-0.5,2
			c-0.3,0.6-0.8,1-1.4,1.3c-0.6,0.3-1.3,0.5-2.1,0.5h-3.3V240.6z M122.9,246.9c0.5,0,1-0.1,1.4-0.3c0.4-0.2,0.7-0.5,1-0.9
			c0.2-0.4,0.3-0.8,0.3-1.4s-0.1-1-0.3-1.3c-0.2-0.4-0.5-0.7-1-0.9c-0.4-0.2-0.9-0.3-1.4-0.3h-1.8v5.1H122.9z M128.5,240.6h3.3
			c0.8,0,1.5,0.2,2.1,0.5c0.6,0.3,1.1,0.7,1.4,1.3c0.3,0.6,0.5,1.2,0.5,2s-0.2,1.4-0.5,2c-0.3,0.6-0.8,1-1.4,1.3
			c-0.6,0.3-1.3,0.5-2.1,0.5h-3.3V240.6z M131.7,246.9c0.5,0,1-0.1,1.4-0.3s0.7-0.5,1-0.9c0.2-0.4,0.3-0.8,0.3-1.4s-0.1-1-0.3-1.3
			c-0.2-0.4-0.5-0.7-1-0.9s-0.9-0.3-1.4-0.3h-1.8v5.1H131.7z M142.1,248.1l-1.5-2.2c-0.1,0-0.2,0-0.3,0h-1.7v2.2h-1.4v-7.5h3.1
			c0.6,0,1.2,0.1,1.7,0.3c0.5,0.2,0.8,0.5,1.1,0.9c0.3,0.4,0.4,0.9,0.4,1.4c0,0.6-0.1,1-0.4,1.5c-0.3,0.4-0.7,0.7-1.2,0.9l1.7,2.5
			H142.1z M142.1,243.3c0-0.5-0.2-0.8-0.5-1.1c-0.3-0.3-0.8-0.4-1.4-0.4h-1.6v3h1.6c0.6,0,1.1-0.1,1.4-0.4S142.1,243.7,142.1,243.3z
			 M150.7,246.9v1.2h-5.6v-7.5h5.5v1.2h-4.1v1.9h3.6v1.1h-3.6v2.1H150.7z M154.5,248.2c-0.6,0-1.1-0.1-1.7-0.2
			c-0.5-0.2-1-0.4-1.3-0.6l0.5-1.1c0.3,0.2,0.7,0.4,1.1,0.6c0.4,0.1,0.9,0.2,1.3,0.2c0.6,0,1-0.1,1.2-0.3c0.3-0.2,0.4-0.4,0.4-0.7
			c0-0.2-0.1-0.4-0.2-0.5c-0.2-0.1-0.4-0.3-0.6-0.3c-0.2-0.1-0.5-0.2-0.9-0.3c-0.6-0.1-1-0.3-1.4-0.4c-0.3-0.1-0.6-0.3-0.9-0.6
			c-0.2-0.3-0.4-0.7-0.4-1.2c0-0.4,0.1-0.8,0.3-1.1c0.2-0.3,0.6-0.6,1-0.8c0.5-0.2,1-0.3,1.7-0.3c0.5,0,0.9,0.1,1.3,0.2
			c0.4,0.1,0.8,0.3,1.1,0.5l-0.4,1.1c-0.3-0.2-0.7-0.3-1-0.4c-0.4-0.1-0.7-0.2-1-0.2c-0.6,0-1,0.1-1.2,0.3c-0.3,0.2-0.4,0.4-0.4,0.7
			c0,0.2,0.1,0.4,0.2,0.5c0.2,0.1,0.3,0.2,0.6,0.3c0.2,0.1,0.6,0.2,1,0.2c0.6,0.1,1,0.3,1.4,0.4c0.4,0.1,0.7,0.3,0.9,0.6
			c0.2,0.3,0.4,0.7,0.4,1.1c0,0.4-0.1,0.8-0.3,1.1c-0.2,0.3-0.6,0.6-1,0.8C155.7,248.1,155.2,248.2,154.5,248.2z M161.2,248.2
			c-0.6,0-1.1-0.1-1.7-0.2c-0.5-0.2-1-0.4-1.3-0.6l0.5-1.1c0.3,0.2,0.7,0.4,1.1,0.6c0.4,0.1,0.9,0.2,1.3,0.2c0.6,0,1-0.1,1.2-0.3
			c0.3-0.2,0.4-0.4,0.4-0.7c0-0.2-0.1-0.4-0.2-0.5c-0.2-0.1-0.4-0.3-0.6-0.3c-0.2-0.1-0.5-0.2-0.9-0.3c-0.6-0.1-1-0.3-1.4-0.4
			c-0.3-0.1-0.6-0.3-0.9-0.6c-0.2-0.3-0.4-0.7-0.4-1.2c0-0.4,0.1-0.8,0.3-1.1c0.2-0.3,0.6-0.6,1-0.8c0.5-0.2,1-0.3,1.7-0.3
			c0.5,0,0.9,0.1,1.3,0.2c0.4,0.1,0.8,0.3,1.1,0.5l-0.4,1.1c-0.3-0.2-0.7-0.3-1-0.4c-0.4-0.1-0.7-0.2-1-0.2c-0.6,0-1,0.1-1.2,0.3
			c-0.3,0.2-0.4,0.4-0.4,0.7c0,0.2,0.1,0.4,0.2,0.5c0.2,0.1,0.3,0.2,0.6,0.3c0.2,0.1,0.6,0.2,1,0.2c0.6,0.1,1,0.3,1.4,0.4
			c0.4,0.1,0.7,0.3,0.9,0.6c0.2,0.3,0.4,0.7,0.4,1.1c0,0.4-0.1,0.8-0.3,1.1c-0.2,0.3-0.6,0.6-1,0.8
			C162.4,248.1,161.9,248.2,161.2,248.2z"/>
		<path class="st7" d="M164.6,238.4L164.6,238.4v12.3l0,0V238.4z"/>
		<path class="st3" d="M80,283.1L80,283.1c0-1.7,1.3-3,3-3h109.2c0.8,0,1.6,0.3,2.1,0.9c0.6,0.6,0.9,1.3,0.9,2.1v25.5
			c0,1.7-1.3,3-3,3H83c-1.7,0-3-1.3-3-3V283.1z"/>
		<path class="st4" d="M106.1,289.4h63.1v12.8h-63.1V289.4z"/>
		<path class="st5" d="M106.1,289.3h63.1v13h-63.1V289.3z"/>
		<path class="st6" d="M107.1,292.2h1.4v7.5h-1.4V292.2z M110.5,292.2h3.3c0.8,0,1.5,0.2,2.1,0.5c0.6,0.3,1.1,0.7,1.4,1.3
			c0.3,0.6,0.5,1.2,0.5,2s-0.2,1.4-0.5,2c-0.3,0.6-0.8,1-1.4,1.3c-0.6,0.3-1.3,0.5-2.1,0.5h-3.3V292.2z M113.7,298.5
			c0.5,0,1-0.1,1.4-0.3c0.4-0.2,0.7-0.5,1-0.9c0.2-0.4,0.3-0.8,0.3-1.4s-0.1-1-0.3-1.3c-0.2-0.4-0.5-0.7-1-0.9
			c-0.4-0.2-0.9-0.3-1.4-0.3h-1.8v5.1H113.7z M125.4,299.7c-1,0-1.8-0.3-2.4-0.9c-0.6-0.6-0.9-1.4-0.9-2.5v-4.2h1.4v4.2
			c0,1.5,0.6,2.2,1.9,2.2c1.3,0,1.9-0.7,1.9-2.2v-4.2h1.4v4.2c0,1.1-0.3,1.9-0.9,2.5C127.2,299.5,126.4,299.7,125.4,299.7z
			 M133.7,292.2c0.6,0,1.2,0.1,1.7,0.3c0.5,0.2,0.8,0.5,1.1,0.9c0.3,0.4,0.4,0.9,0.4,1.4s-0.1,1-0.4,1.4c-0.2,0.4-0.6,0.7-1.1,0.9
			c-0.5,0.2-1,0.3-1.7,0.3H132v2.2h-1.4v-7.5H133.7z M133.6,296.3c0.6,0,1.1-0.1,1.4-0.4c0.3-0.3,0.5-0.6,0.5-1.1
			c0-0.5-0.2-0.8-0.5-1.1c-0.3-0.3-0.8-0.4-1.4-0.4H132v3H133.6z M138.2,292.2h1.4v6.3h3.9v1.2h-5.3V292.2z M148,299.7
			c-0.8,0-1.4-0.2-2.1-0.5c-0.6-0.3-1.1-0.8-1.4-1.4c-0.3-0.6-0.5-1.2-0.5-2c0-0.7,0.2-1.4,0.5-2c0.4-0.6,0.8-1.1,1.4-1.4
			c0.6-0.3,1.3-0.5,2.1-0.5s1.4,0.2,2,0.5c0.6,0.3,1.1,0.8,1.4,1.4c0.4,0.6,0.5,1.2,0.5,2c0,0.7-0.2,1.4-0.5,2
			c-0.3,0.6-0.8,1-1.4,1.4C149.4,299.6,148.7,299.7,148,299.7z M148,298.5c0.5,0,0.9-0.1,1.3-0.3c0.4-0.2,0.7-0.5,0.9-0.9
			c0.2-0.4,0.3-0.9,0.3-1.4c0-0.5-0.1-0.9-0.3-1.3s-0.5-0.7-0.9-0.9s-0.8-0.3-1.3-0.3s-0.9,0.1-1.3,0.3s-0.7,0.5-0.9,0.9
			s-0.3,0.9-0.3,1.3c0,0.5,0.1,1,0.3,1.4c0.2,0.4,0.5,0.7,0.9,0.9C147,298.4,147.5,298.5,148,298.5z M158.2,297.9h-3.7l-0.7,1.7
			h-1.4l3.3-7.5h1.4l3.4,7.5h-1.5L158.2,297.9z M157.7,296.8l-1.4-3.3l-1.4,3.3H157.7z M161.3,292.2h3.3c0.8,0,1.5,0.2,2.1,0.5
			c0.6,0.3,1.1,0.7,1.4,1.3c0.3,0.6,0.5,1.2,0.5,2s-0.2,1.4-0.5,2c-0.3,0.6-0.8,1-1.4,1.3c-0.6,0.3-1.3,0.5-2.1,0.5h-3.3V292.2z
			 M164.5,298.5c0.5,0,1-0.1,1.4-0.3s0.7-0.5,1-0.9c0.2-0.4,0.3-0.8,0.3-1.4s-0.1-1-0.3-1.3c-0.2-0.4-0.5-0.7-1-0.9
			s-0.9-0.3-1.4-0.3h-1.8v5.1H164.5z"/>
		<path class="st7" d="M169.1,290L169.1,290v12.3l0,0V290z"/>
		<path class="st3" d="M80,334.7L80,334.7c0-1.7,1.3-3,3-3h109.2c0.8,0,1.6,0.3,2.1,0.9c0.6,0.6,0.9,1.3,0.9,2.1v25.5
			c0,1.7-1.3,3-3,3H83c-1.7,0-3-1.3-3-3V334.7z"/>
		<path class="st4" d="M112.2,334.4H163v12.8h-50.7V334.4z"/>
		<path class="st5" d="M112.2,334.4H163v13h-50.7V334.4z"/>
		<path class="st6" d="M113.2,337.2h3.3c0.8,0,1.5,0.2,2.1,0.5c0.6,0.3,1.1,0.7,1.4,1.3c0.3,0.6,0.5,1.2,0.5,2s-0.2,1.4-0.5,2
			c-0.3,0.6-0.8,1-1.4,1.3c-0.6,0.3-1.3,0.5-2.1,0.5h-3.3V337.2z M116.4,343.5c0.5,0,1-0.1,1.4-0.3c0.4-0.2,0.7-0.5,1-0.9
			c0.2-0.4,0.3-0.8,0.3-1.4s-0.1-1-0.3-1.3c-0.2-0.4-0.5-0.7-1-0.9c-0.4-0.2-0.9-0.3-1.4-0.3h-1.8v5.1H116.4z M127.6,343.5v1.2H122
			v-7.5h5.5v1.2h-4.1v1.9h3.6v1.1h-3.6v2.1H127.6z M130.6,338.4v2.3h3.6v1.2h-3.6v2.9h-1.4v-7.5h5.5v1.2H130.6z M140.5,343h-3.7
			l-0.7,1.7h-1.4l3.3-7.5h1.4l3.4,7.5h-1.5L140.5,343z M140,341.9l-1.4-3.3l-1.4,3.3H140z M146.7,344.8c-1,0-1.8-0.3-2.4-0.9
			c-0.6-0.6-0.9-1.4-0.9-2.5v-4.2h1.4v4.2c0,1.5,0.6,2.2,1.9,2.2c1.3,0,1.9-0.7,1.9-2.2v-4.2h1.4v4.2c0,1.1-0.3,1.9-0.9,2.5
			C148.5,344.5,147.7,344.8,146.7,344.8z M151.9,337.2h1.4v6.3h3.9v1.2h-5.3V337.2z M159.1,338.4h-2.5v-1.2h6.3v1.2h-2.5v6.3h-1.4
			V338.4z"/>
		<path class="st5" d="M163,334.4h2.9v13H163V334.4z"/>
		<path class="st4" d="M106.5,347.4h62.1v12.8h-62.1V347.4z"/>
		<path class="st5" d="M106.5,347.4h62.1v13h-62.1V347.4z"/>
		<path class="st6" d="M111,357.8c-0.7,0-1.4-0.2-2-0.5c-0.6-0.3-1.1-0.8-1.4-1.4c-0.3-0.6-0.5-1.2-0.5-2c0-0.7,0.2-1.4,0.5-2
			c0.4-0.6,0.8-1,1.4-1.4c0.6-0.3,1.3-0.5,2-0.5c0.6,0,1.2,0.1,1.7,0.3c0.5,0.2,0.9,0.5,1.3,0.9l-0.9,0.8c-0.5-0.6-1.2-0.9-2-0.9
			c-0.5,0-1,0.1-1.4,0.3c-0.4,0.2-0.7,0.5-1,0.9c-0.2,0.4-0.3,0.8-0.3,1.3c0,0.5,0.1,1,0.3,1.4c0.2,0.4,0.5,0.7,1,0.9
			c0.4,0.2,0.9,0.3,1.4,0.3c0.8,0,1.5-0.3,2-0.9l0.9,0.9c-0.4,0.4-0.8,0.7-1.3,0.9C112.2,357.7,111.6,357.8,111,357.8z M118.4,357.8
			c-1,0-1.8-0.3-2.4-0.9c-0.6-0.6-0.9-1.4-0.9-2.5v-4.2h1.4v4.2c0,1.5,0.6,2.2,1.9,2.2c1.3,0,1.9-0.7,1.9-2.2v-4.2h1.4v4.2
			c0,1.1-0.3,1.9-0.9,2.5C120.3,357.5,119.5,357.8,118.4,357.8z M128.5,357.7l-1.5-2.2c-0.1,0-0.2,0-0.3,0H125v2.2h-1.4v-7.5h3.1
			c0.6,0,1.2,0.1,1.7,0.3c0.5,0.2,0.8,0.5,1.1,0.9c0.3,0.4,0.4,0.9,0.4,1.4c0,0.6-0.1,1-0.4,1.5c-0.3,0.4-0.7,0.7-1.2,0.9l1.7,2.5
			H128.5z M128.5,352.9c0-0.5-0.2-0.8-0.5-1.1c-0.3-0.3-0.8-0.4-1.4-0.4H125v3h1.6c0.6,0,1.1-0.1,1.4-0.4
			C128.3,353.7,128.5,353.3,128.5,352.9z M136.3,357.7l-1.5-2.2c-0.1,0-0.2,0-0.3,0h-1.7v2.2h-1.4v-7.5h3.1c0.6,0,1.2,0.1,1.7,0.3
			c0.5,0.2,0.8,0.5,1.1,0.9c0.3,0.4,0.4,0.9,0.4,1.4c0,0.6-0.1,1-0.4,1.5c-0.3,0.4-0.7,0.7-1.2,0.9l1.7,2.5H136.3z M136.3,352.9
			c0-0.5-0.2-0.8-0.5-1.1c-0.3-0.3-0.8-0.4-1.4-0.4h-1.6v3h1.6c0.6,0,1.1-0.1,1.4-0.4S136.3,353.3,136.3,352.9z M144.8,356.5v1.2
			h-5.6v-7.5h5.5v1.2h-4.1v1.9h3.6v1.1h-3.6v2.1H144.8z M153,350.2v7.5h-1.1l-4.1-5v5h-1.4v-7.5h1.1l4.1,5v-5H153z M158.4,357.8
			c-0.8,0-1.4-0.2-2-0.5c-0.6-0.3-1.1-0.8-1.4-1.4c-0.3-0.6-0.5-1.2-0.5-2c0-0.7,0.2-1.4,0.5-2c0.4-0.6,0.8-1,1.4-1.4
			c0.6-0.3,1.3-0.5,2-0.5c0.6,0,1.2,0.1,1.7,0.3c0.5,0.2,0.9,0.5,1.3,0.9l-0.9,0.8c-0.5-0.6-1.2-0.9-2-0.9c-0.5,0-1,0.1-1.4,0.3
			s-0.7,0.5-1,0.9c-0.2,0.4-0.3,0.8-0.3,1.3c0,0.5,0.1,1,0.3,1.4s0.5,0.7,1,0.9c0.4,0.2,0.9,0.3,1.4,0.3c0.8,0,1.5-0.3,2-0.9
			l0.9,0.9c-0.4,0.4-0.8,0.7-1.3,0.9C159.6,357.7,159.1,357.8,158.4,357.8z M165.8,355.1v2.6h-1.4v-2.6l-2.9-4.8h1.5l2.2,3.6
			l2.2-3.6h1.4L165.8,355.1z"/>
		<path class="st7" d="M168.7,348L168.7,348v12.3l0,0V348z"/>
		<path class="st8" d="M137.6,177v-10h0.1v-10"/>
		<path class="st9" d="M137.6,171v-4h0.1v-10"/>
		<path class="st10" d="M136,171l1.7,4.5l1.7-4.5H136z"/>
		<path class="st8" d="M137.6,228.6v-10h0.1v-10"/>
		<path class="st9" d="M137.6,222.6v-4h0.1v-10"/>
		<path class="st10" d="M136,222.6l1.7,4.5l1.7-4.5H136z"/>
		<path class="st8" d="M137.6,280.1v-10h0.1v-10"/>
		<path class="st9" d="M137.6,274.1v-4h0.1v-10"/>
		<path class="st10" d="M136,274.1l1.7,4.5l1.7-4.5H136z"/>
		<path class="st8" d="M49.8,75.7H229v31.5H49.8L49.8,75.7z"/>
		<path class="st6" d="M81.4,96.4c-0.8,0-1.6-0.2-2.3-0.6s-1.2-0.9-1.6-1.5C77.2,93.6,77,92.9,77,92s0.2-1.6,0.6-2.2
			c0.4-0.7,0.9-1.2,1.6-1.5c0.7-0.4,1.5-0.6,2.3-0.6c0.7,0,1.3,0.1,1.9,0.4c0.6,0.2,1.1,0.6,1.5,1l-1,0.9c-0.6-0.7-1.4-1-2.2-1
			c-0.6,0-1.1,0.1-1.5,0.4c-0.4,0.2-0.8,0.6-1.1,1c-0.3,0.4-0.4,1-0.4,1.5c0,0.6,0.1,1.1,0.4,1.5c0.3,0.4,0.6,0.8,1.1,1
			c0.5,0.2,1,0.4,1.5,0.4c0.9,0,1.6-0.3,2.2-1l1,1c-0.4,0.5-0.9,0.8-1.5,1C82.8,96.2,82.1,96.4,81.4,96.4z M91.8,96.2l-1.7-2.5
			c-0.1,0-0.2,0-0.3,0h-1.9v2.5h-1.6v-8.4h3.5c0.7,0,1.4,0.1,1.9,0.4c0.5,0.2,1,0.6,1.2,1c0.3,0.4,0.4,1,0.4,1.6s-0.2,1.2-0.5,1.6
			c-0.3,0.5-0.7,0.8-1.3,1l1.9,2.8H91.8z M91.7,90.8c0-0.5-0.2-1-0.5-1.2c-0.4-0.3-0.9-0.4-1.5-0.4h-1.8v3.3h1.8
			c0.7,0,1.2-0.1,1.5-0.4C91.6,91.8,91.7,91.4,91.7,90.8z M101.3,94.9v1.3h-6.3v-8.4h6.1v1.3h-4.6v2.2h4.1v1.3h-4.1v2.3H101.3z
			 M108.5,94.3h-4.2l-0.8,1.9h-1.6l3.8-8.4h1.5l3.8,8.4h-1.6L108.5,94.3z M108,93.1l-1.6-3.7l-1.6,3.7H108z M113.4,89.2h-2.8v-1.3
			h7.1v1.3h-2.8v7.1h-1.6V89.2z M125.2,94.9v1.3h-6.3v-8.4h6.1v1.3h-4.6v2.2h4.1v1.3h-4.1v2.3H125.2z M132.8,96.4
			c-0.6,0-1.3-0.1-1.9-0.3s-1.1-0.4-1.4-0.7l0.5-1.2c0.3,0.3,0.8,0.5,1.3,0.7c0.5,0.2,1,0.2,1.5,0.2c0.6,0,1.1-0.1,1.4-0.3
			c0.3-0.2,0.5-0.5,0.5-0.8c0-0.2-0.1-0.4-0.3-0.6c-0.2-0.2-0.4-0.3-0.7-0.4c-0.3-0.1-0.6-0.2-1.1-0.3c-0.6-0.1-1.2-0.3-1.5-0.5
			s-0.7-0.4-1-0.7c-0.3-0.3-0.4-0.8-0.4-1.3c0-0.5,0.1-0.9,0.4-1.2c0.3-0.4,0.6-0.7,1.1-0.9c0.5-0.2,1.1-0.3,1.9-0.3
			c0.5,0,1,0.1,1.5,0.2c0.5,0.1,0.9,0.3,1.3,0.5l-0.5,1.2c-0.4-0.2-0.8-0.4-1.2-0.5c-0.4-0.1-0.8-0.2-1.2-0.2
			c-0.6,0-1.1,0.1-1.4,0.3s-0.5,0.5-0.5,0.8c0,0.2,0.1,0.4,0.2,0.6c0.2,0.1,0.4,0.3,0.7,0.4c0.3,0.1,0.6,0.2,1.1,0.3
			c0.6,0.1,1.1,0.3,1.5,0.5c0.4,0.2,0.8,0.4,1,0.7s0.4,0.8,0.4,1.3c0,0.5-0.1,0.9-0.4,1.3c-0.2,0.4-0.6,0.7-1.1,0.9
			C134.2,96.3,133.6,96.4,132.8,96.4z M137.8,87.8h1.6v8.4h-1.6V87.8z M149.3,96.2l0-5.6l-2.8,4.6h-0.7l-2.8-4.5v5.5h-1.5v-8.4h1.3
			l3.3,5.6l3.3-5.6h1.3v8.4H149.3z M156.7,96.4c-1.2,0-2.1-0.3-2.7-1c-0.6-0.7-1-1.6-1-2.8v-4.8h1.5v4.7c0,1.6,0.7,2.5,2.1,2.5
			c1.4,0,2.1-0.8,2.1-2.5v-4.7h1.5v4.8c0,1.2-0.3,2.1-1,2.8C158.8,96,157.8,96.4,156.7,96.4z M162.5,87.8h1.6v7.1h4.4v1.3h-6V87.8z
			 M175.2,94.3H171l-0.8,1.9h-1.6l3.8-8.4h1.5l3.8,8.4h-1.6L175.2,94.3z M174.7,93.1l-1.6-3.7l-1.6,3.7H174.7z M180.1,89.2h-2.8
			v-1.3h7.1v1.3h-2.8v7.1h-1.6V89.2z M191.9,94.9v1.3h-6.3v-8.4h6.1v1.3h-4.6v2.2h4.1v1.3h-4.1v2.3H191.9z M193.6,87.8h3.7
			c0.9,0,1.7,0.2,2.4,0.5c0.7,0.3,1.2,0.8,1.6,1.5c0.4,0.6,0.6,1.4,0.6,2.2s-0.2,1.6-0.6,2.2c-0.4,0.6-0.9,1.1-1.6,1.5
			c-0.7,0.3-1.5,0.5-2.4,0.5h-3.7V87.8z M197.2,94.9c0.6,0,1.2-0.1,1.6-0.4s0.8-0.6,1.1-1s0.4-0.9,0.4-1.5s-0.1-1.1-0.4-1.5
			s-0.6-0.8-1.1-1c-0.5-0.2-1-0.4-1.6-0.4h-2v5.8H197.2z"/>
		<path class="st6" d="M127.2,110.4c-1.2,0-2.1-0.3-2.7-1c-0.6-0.7-1-1.6-1-2.8v-4.8h1.5v4.7c0,1.6,0.7,2.5,2.1,2.5
			c1.4,0,2.1-0.8,2.1-2.5v-4.7h1.5v4.8c0,1.2-0.3,2.1-1,2.8C129.3,110,128.4,110.4,127.2,110.4z M135.7,110.4
			c-0.6,0-1.3-0.1-1.9-0.3c-0.6-0.2-1.1-0.4-1.4-0.7l0.5-1.2c0.3,0.3,0.8,0.5,1.3,0.7c0.5,0.2,1,0.2,1.5,0.2c0.6,0,1.1-0.1,1.4-0.3
			c0.3-0.2,0.5-0.5,0.5-0.8c0-0.2-0.1-0.4-0.3-0.6c-0.2-0.2-0.4-0.3-0.7-0.4c-0.3-0.1-0.6-0.2-1.1-0.3c-0.6-0.1-1.2-0.3-1.5-0.5
			c-0.4-0.2-0.7-0.4-1-0.7c-0.3-0.3-0.4-0.8-0.4-1.3c0-0.5,0.1-0.9,0.4-1.2c0.3-0.4,0.6-0.7,1.1-0.9c0.5-0.2,1.1-0.3,1.9-0.3
			c0.5,0,1,0.1,1.5,0.2c0.5,0.1,0.9,0.3,1.3,0.5l-0.5,1.2c-0.4-0.2-0.8-0.4-1.2-0.5c-0.4-0.1-0.8-0.2-1.2-0.2
			c-0.6,0-1.1,0.1-1.4,0.3c-0.3,0.2-0.5,0.5-0.5,0.8c0,0.2,0.1,0.4,0.2,0.6c0.2,0.1,0.4,0.3,0.7,0.4c0.3,0.1,0.6,0.2,1.1,0.3
			c0.6,0.1,1.1,0.3,1.5,0.5c0.4,0.2,0.8,0.4,1,0.7s0.4,0.8,0.4,1.3c0,0.5-0.1,0.9-0.4,1.3c-0.2,0.4-0.6,0.7-1.1,0.9
			C137.1,110.3,136.4,110.4,135.7,110.4z M146.9,108.9v1.3h-6.3v-8.4h6.1v1.3h-4.6v2.2h4.1v1.3h-4.1v2.3H146.9z M154.2,110.2
			l-1.7-2.5c-0.1,0-0.2,0-0.3,0h-1.9v2.5h-1.6v-8.4h3.5c0.7,0,1.4,0.1,1.9,0.4c0.5,0.2,1,0.6,1.2,1c0.3,0.4,0.4,1,0.4,1.6
			s-0.2,1.2-0.5,1.6c-0.3,0.5-0.7,0.8-1.3,1l1.9,2.8H154.2z M154.2,104.8c0-0.5-0.2-1-0.5-1.2c-0.4-0.3-0.9-0.4-1.5-0.4h-1.8v3.3
			h1.8c0.7,0,1.2-0.1,1.5-0.4C154,105.8,154.2,105.4,154.2,104.8z"/>
		<path class="st11" d="M373,37L373,37c0-1.7,1.3-3,3-3h109.2c0.8,0,1.6,0.3,2.1,0.9c0.6,0.6,0.9,1.3,0.9,2.1v25.5c0,1.7-1.3,3-3,3
			H376c-1.7,0-3-1.3-3-3V37z"/>
		<path class="st12" d="M412.4,46h1.4v6.3h3.9v1.2h-5.3V46z M422.1,53.6c-0.8,0-1.4-0.2-2.1-0.5c-0.6-0.3-1.1-0.8-1.4-1.4
			c-0.3-0.6-0.5-1.2-0.5-2c0-0.7,0.2-1.4,0.5-2c0.4-0.6,0.8-1.1,1.4-1.4c0.6-0.3,1.3-0.5,2.1-0.5c0.8,0,1.4,0.2,2,0.5
			c0.6,0.3,1.1,0.8,1.4,1.4c0.4,0.6,0.5,1.2,0.5,2c0,0.7-0.2,1.4-0.5,2c-0.3,0.6-0.8,1-1.4,1.4C423.5,53.4,422.9,53.6,422.1,53.6z
			 M422.1,52.4c0.5,0,0.9-0.1,1.3-0.3c0.4-0.2,0.7-0.5,0.9-0.9c0.2-0.4,0.3-0.9,0.3-1.4c0-0.5-0.1-0.9-0.3-1.3
			c-0.2-0.4-0.5-0.7-0.9-0.9c-0.4-0.2-0.8-0.3-1.3-0.3s-0.9,0.1-1.3,0.3c-0.4,0.2-0.7,0.5-0.9,0.9c-0.2,0.4-0.3,0.9-0.3,1.3
			c0,0.5,0.1,1,0.3,1.4c0.2,0.4,0.5,0.7,0.9,0.9C421.2,52.3,421.6,52.4,422.1,52.4z M432.7,49.7h1.3v3c-0.4,0.3-0.8,0.5-1.3,0.7
			c-0.5,0.2-1,0.2-1.6,0.2c-0.8,0-1.4-0.2-2.1-0.5c-0.6-0.3-1.1-0.8-1.4-1.4c-0.3-0.6-0.5-1.2-0.5-2c0-0.7,0.2-1.4,0.5-2
			c0.4-0.6,0.8-1,1.5-1.4c0.6-0.3,1.3-0.5,2.1-0.5c0.6,0,1.2,0.1,1.7,0.3c0.5,0.2,0.9,0.5,1.3,0.9l-0.9,0.8c-0.6-0.6-1.2-0.8-2-0.8
			c-0.5,0-1,0.1-1.4,0.3s-0.7,0.5-1,0.9c-0.2,0.4-0.3,0.8-0.3,1.4c0,0.5,0.1,0.9,0.3,1.3c0.2,0.4,0.6,0.7,1,0.9s0.9,0.3,1.4,0.3
			c0.6,0,1.1-0.1,1.5-0.4V49.7z M438.8,46h1.4v7.5h-1.4V46z M448.8,46v7.5h-1.1l-4.1-5v5h-1.4V46h1.1l4.1,5v-5H448.8z"/>
		<path class="st11" d="M646.1,129.7L646.1,129.7c0-1.7,1.3-3,3-3h109.2c0.8,0,1.6,0.3,2.1,0.9c0.6,0.6,0.9,1.3,0.9,2.1v25.5
			c0,1.7-1.3,3-3,3H649.1c-1.7,0-3-1.3-3-3V129.7z"/>
		<path class="st12" d="M666,133.5h-2.5v-1.2h6.3v1.2h-2.5v6.3H666V133.5z M675.8,139.8l-1.5-2.2c-0.1,0-0.2,0-0.3,0h-1.7v2.2h-1.4
			v-7.5h3.1c0.6,0,1.2,0.1,1.7,0.3c0.5,0.2,0.8,0.5,1.1,0.9c0.3,0.4,0.4,0.9,0.4,1.4c0,0.6-0.1,1-0.4,1.5c-0.3,0.4-0.7,0.7-1.2,0.9
			l1.7,2.5H675.8z M675.8,134.9c0-0.5-0.2-0.8-0.5-1.1c-0.3-0.3-0.8-0.4-1.4-0.4h-1.6v3h1.6c0.6,0,1.1-0.1,1.4-0.4
			S675.8,135.4,675.8,134.9z M683.5,138h-3.7l-0.7,1.7h-1.4l3.3-7.5h1.4l3.4,7.5h-1.5L683.5,138z M683.1,136.9l-1.4-3.3l-1.4,3.3
			H683.1z M693.3,132.3v7.5h-1.1l-4.1-5v5h-1.4v-7.5h1.1l4.1,5v-5H693.3z M697.6,139.9c-0.6,0-1.1-0.1-1.7-0.2
			c-0.5-0.2-1-0.4-1.3-0.6l0.5-1.1c0.3,0.2,0.7,0.4,1.1,0.6c0.4,0.1,0.9,0.2,1.3,0.2c0.6,0,1-0.1,1.2-0.3c0.3-0.2,0.4-0.4,0.4-0.7
			c0-0.2-0.1-0.4-0.2-0.5c-0.2-0.1-0.4-0.3-0.6-0.3c-0.2-0.1-0.5-0.2-0.9-0.3c-0.6-0.1-1-0.3-1.4-0.4c-0.3-0.1-0.6-0.3-0.9-0.6
			c-0.2-0.3-0.4-0.7-0.4-1.2c0-0.4,0.1-0.8,0.3-1.1c0.2-0.3,0.6-0.6,1-0.8c0.5-0.2,1-0.3,1.7-0.3c0.5,0,0.9,0.1,1.3,0.2
			c0.4,0.1,0.8,0.3,1.1,0.5l-0.4,1.1c-0.3-0.2-0.7-0.3-1-0.4c-0.4-0.1-0.7-0.2-1-0.2c-0.6,0-1,0.1-1.2,0.3c-0.3,0.2-0.4,0.4-0.4,0.7
			c0,0.2,0.1,0.4,0.2,0.5c0.2,0.1,0.3,0.2,0.6,0.3c0.2,0.1,0.6,0.2,1,0.2c0.6,0.1,1,0.3,1.4,0.4c0.4,0.1,0.7,0.3,0.9,0.6
			c0.2,0.3,0.4,0.7,0.4,1.1c0,0.4-0.1,0.8-0.3,1.1c-0.2,0.3-0.6,0.6-1,0.8C698.8,139.8,698.3,139.9,697.6,139.9z M706.9,138h-3.7
			l-0.7,1.7H701l3.3-7.5h1.4l3.4,7.5h-1.5L706.9,138z M706.4,136.9l-1.4-3.3l-1.4,3.3H706.4z M713.3,139.9c-0.8,0-1.4-0.2-2-0.5
			c-0.6-0.3-1.1-0.8-1.4-1.4c-0.3-0.6-0.5-1.2-0.5-2c0-0.7,0.2-1.4,0.5-2c0.4-0.6,0.8-1,1.4-1.4c0.6-0.3,1.3-0.5,2-0.5
			c0.6,0,1.2,0.1,1.7,0.3c0.5,0.2,0.9,0.5,1.3,0.9l-0.9,0.8c-0.5-0.6-1.2-0.9-2-0.9c-0.5,0-1,0.1-1.4,0.3c-0.4,0.2-0.7,0.5-1,0.9
			c-0.2,0.4-0.3,0.8-0.3,1.3c0,0.5,0.1,1,0.3,1.4c0.2,0.4,0.5,0.7,1,0.9c0.4,0.2,0.9,0.3,1.4,0.3c0.8,0,1.5-0.3,2-0.9l0.9,0.9
			c-0.4,0.4-0.8,0.7-1.3,0.9C714.5,139.8,714,139.9,713.3,139.9z M719.1,133.5h-2.5v-1.2h6.3v1.2h-2.5v6.3h-1.4V133.5z M724,132.3
			h1.4v7.5H724V132.3z M730.9,139.9c-0.8,0-1.4-0.2-2.1-0.5c-0.6-0.3-1.1-0.8-1.4-1.4c-0.3-0.6-0.5-1.2-0.5-2c0-0.7,0.2-1.4,0.5-2
			c0.4-0.6,0.8-1.1,1.4-1.4c0.6-0.3,1.3-0.5,2.1-0.5c0.8,0,1.4,0.2,2,0.5c0.6,0.3,1.1,0.8,1.4,1.4c0.4,0.6,0.5,1.2,0.5,2
			c0,0.7-0.2,1.4-0.5,2c-0.3,0.6-0.8,1-1.4,1.4C732.3,139.7,731.6,139.9,730.9,139.9z M730.9,138.6c0.5,0,0.9-0.1,1.3-0.3
			c0.4-0.2,0.7-0.5,0.9-0.9c0.2-0.4,0.3-0.9,0.3-1.4c0-0.5-0.1-0.9-0.3-1.3c-0.2-0.4-0.5-0.7-0.9-0.9c-0.4-0.2-0.8-0.3-1.3-0.3
			s-0.9,0.1-1.3,0.3c-0.4,0.2-0.7,0.5-0.9,0.9c-0.2,0.4-0.3,0.9-0.3,1.3c0,0.5,0.1,1,0.3,1.4c0.2,0.4,0.5,0.7,0.9,0.9
			C729.9,138.5,730.4,138.6,730.9,138.6z M743,132.3v7.5h-1.1l-4.1-5v5h-1.4v-7.5h1.1l4.1,5v-5H743z"/>
		<path class="st12" d="M681.5,145.3h3.3c0.8,0,1.5,0.2,2.1,0.5c0.6,0.3,1.1,0.7,1.4,1.3c0.3,0.6,0.5,1.2,0.5,2s-0.2,1.4-0.5,2
			c-0.3,0.6-0.8,1-1.4,1.3c-0.6,0.3-1.3,0.5-2.1,0.5h-3.3V145.3z M684.7,151.6c0.5,0,1-0.1,1.4-0.3s0.7-0.5,1-0.9
			c0.2-0.4,0.3-0.8,0.3-1.4s-0.1-1-0.3-1.3c-0.2-0.4-0.5-0.7-1-0.9s-0.9-0.3-1.4-0.3h-1.8v5.1H684.7z M695.9,151.6v1.2h-5.6v-7.5
			h5.5v1.2h-4.1v1.9h3.6v1.1h-3.6v2.1H695.9z M699,146.5h-2.5v-1.2h6.3v1.2h-2.5v6.3H699V146.5z M708.4,151h-3.7l-0.7,1.7h-1.4
			l3.3-7.5h1.4l3.4,7.5h-1.5L708.4,151z M707.9,149.9l-1.4-3.3l-1.4,3.3H707.9z M711.5,145.3h1.4v7.5h-1.4V145.3z M714.9,145.3h1.4
			v6.3h3.9v1.2h-5.3V145.3z M723.5,152.9c-0.6,0-1.1-0.1-1.7-0.2c-0.5-0.2-1-0.4-1.3-0.6l0.5-1.1c0.3,0.2,0.7,0.4,1.1,0.6
			c0.4,0.1,0.9,0.2,1.3,0.2c0.6,0,1-0.1,1.2-0.3c0.3-0.2,0.4-0.4,0.4-0.7c0-0.2-0.1-0.4-0.2-0.5c-0.2-0.1-0.4-0.3-0.6-0.3
			c-0.2-0.1-0.5-0.2-0.9-0.3c-0.6-0.1-1-0.3-1.4-0.4c-0.3-0.1-0.6-0.3-0.9-0.6c-0.2-0.3-0.4-0.7-0.4-1.2c0-0.4,0.1-0.8,0.3-1.1
			c0.2-0.3,0.6-0.6,1-0.8c0.5-0.2,1-0.3,1.7-0.3c0.5,0,0.9,0.1,1.3,0.2c0.4,0.1,0.8,0.3,1.1,0.5l-0.4,1.1c-0.3-0.2-0.7-0.3-1-0.4
			c-0.4-0.1-0.7-0.2-1-0.2c-0.6,0-1,0.1-1.2,0.3c-0.3,0.2-0.4,0.4-0.4,0.7c0,0.2,0.1,0.4,0.2,0.5c0.2,0.1,0.3,0.2,0.6,0.3
			c0.2,0.1,0.6,0.2,1,0.2c0.6,0.1,1,0.3,1.4,0.4c0.4,0.1,0.7,0.3,0.9,0.6c0.2,0.3,0.4,0.7,0.4,1.1c0,0.4-0.1,0.8-0.3,1.1
			c-0.2,0.3-0.6,0.6-1,0.8C724.8,152.8,724.2,152.9,723.5,152.9z"/>
		<path class="st11" d="M517.4,129.7L517.4,129.7c0-1.7,1.3-3,3-3h109.2c0.8,0,1.6,0.3,2.1,0.9c0.6,0.6,0.9,1.3,0.9,2.1v25.5
			c0,1.7-1.3,3-3,3H520.4c-1.7,0-3-1.3-3-3V129.7z"/>
		<path class="st12" d="M533.9,140h-2.5v-1.2h6.3v1.2h-2.5v6.3h-1.4V140z M543.7,146.3l-1.5-2.2c-0.1,0-0.2,0-0.3,0h-1.7v2.2h-1.4
			v-7.5h3.1c0.6,0,1.2,0.1,1.7,0.3c0.5,0.2,0.8,0.5,1.1,0.9c0.3,0.4,0.4,0.9,0.4,1.4c0,0.6-0.1,1-0.4,1.5c-0.3,0.4-0.7,0.7-1.2,0.9
			l1.7,2.5H543.7z M543.7,141.4c0-0.5-0.2-0.8-0.5-1.1c-0.3-0.3-0.8-0.4-1.4-0.4h-1.6v3h1.6c0.6,0,1.1-0.1,1.4-0.4
			S543.7,141.9,543.7,141.4z M551.4,144.5h-3.7l-0.7,1.7h-1.4l3.3-7.5h1.4l3.4,7.5h-1.5L551.4,144.5z M551,143.4l-1.4-3.3l-1.4,3.3
			H551z M561.2,138.8v7.5h-1.1l-4.1-5v5h-1.4v-7.5h1.1l4.1,5v-5H561.2z M565.5,146.4c-0.6,0-1.1-0.1-1.7-0.2c-0.5-0.2-1-0.4-1.3-0.6
			l0.5-1.1c0.3,0.2,0.7,0.4,1.1,0.6c0.4,0.1,0.9,0.2,1.3,0.2c0.6,0,1-0.1,1.2-0.3c0.3-0.2,0.4-0.4,0.4-0.7c0-0.2-0.1-0.4-0.2-0.5
			c-0.2-0.1-0.4-0.3-0.6-0.3c-0.2-0.1-0.5-0.2-0.9-0.3c-0.6-0.1-1-0.3-1.4-0.4c-0.3-0.1-0.6-0.3-0.9-0.6c-0.2-0.3-0.4-0.7-0.4-1.2
			c0-0.4,0.1-0.8,0.3-1.1c0.2-0.3,0.6-0.6,1-0.8c0.5-0.2,1-0.3,1.7-0.3c0.5,0,0.9,0.1,1.3,0.2c0.4,0.1,0.8,0.3,1.1,0.5l-0.4,1.1
			c-0.3-0.2-0.7-0.3-1-0.4s-0.7-0.2-1-0.2c-0.6,0-1,0.1-1.2,0.3c-0.3,0.2-0.4,0.4-0.4,0.7c0,0.2,0.1,0.4,0.2,0.5
			c0.2,0.1,0.3,0.2,0.6,0.3c0.2,0.1,0.6,0.2,1,0.2c0.6,0.1,1,0.3,1.4,0.4c0.4,0.1,0.7,0.3,0.9,0.6c0.2,0.3,0.4,0.7,0.4,1.1
			c0,0.4-0.1,0.8-0.3,1.1c-0.2,0.3-0.6,0.6-1,0.8C566.7,146.3,566.2,146.4,565.5,146.4z M574.8,144.5H571l-0.7,1.7h-1.4l3.3-7.5h1.4
			l3.4,7.5h-1.5L574.8,144.5z M574.3,143.4l-1.4-3.3l-1.4,3.3H574.3z M581.2,146.4c-0.8,0-1.4-0.2-2-0.5c-0.6-0.3-1.1-0.8-1.4-1.4
			c-0.3-0.6-0.5-1.2-0.5-2c0-0.7,0.2-1.4,0.5-2c0.4-0.6,0.8-1,1.4-1.4c0.6-0.3,1.3-0.5,2-0.5c0.6,0,1.2,0.1,1.7,0.3
			c0.5,0.2,0.9,0.5,1.3,0.9l-0.9,0.8c-0.5-0.6-1.2-0.9-2-0.9c-0.5,0-1,0.1-1.4,0.3s-0.7,0.5-1,0.9c-0.2,0.4-0.3,0.8-0.3,1.3
			c0,0.5,0.1,1,0.3,1.4s0.5,0.7,1,0.9c0.4,0.2,0.9,0.3,1.4,0.3c0.8,0,1.5-0.3,2-0.9l0.9,0.9c-0.4,0.4-0.8,0.7-1.3,0.9
			C582.4,146.3,581.9,146.4,581.2,146.4z M587,140h-2.5v-1.2h6.3v1.2h-2.5v6.3H587V140z M591.9,138.8h1.4v7.5h-1.4V138.8z
			 M598.8,146.4c-0.8,0-1.4-0.2-2.1-0.5c-0.6-0.3-1.1-0.8-1.4-1.4c-0.3-0.6-0.5-1.2-0.5-2c0-0.7,0.2-1.4,0.5-2
			c0.4-0.6,0.8-1.1,1.4-1.4c0.6-0.3,1.3-0.5,2.1-0.5c0.8,0,1.4,0.2,2,0.5c0.6,0.3,1.1,0.8,1.4,1.4c0.4,0.6,0.5,1.2,0.5,2
			c0,0.7-0.2,1.4-0.5,2c-0.3,0.6-0.8,1-1.4,1.4C600.2,146.2,599.5,146.4,598.8,146.4z M598.8,145.1c0.5,0,0.9-0.1,1.3-0.3
			c0.4-0.2,0.7-0.5,0.9-0.9c0.2-0.4,0.3-0.9,0.3-1.4c0-0.5-0.1-0.9-0.3-1.3c-0.2-0.4-0.5-0.7-0.9-0.9c-0.4-0.2-0.8-0.3-1.3-0.3
			s-0.9,0.1-1.3,0.3c-0.4,0.2-0.7,0.5-0.9,0.9c-0.2,0.4-0.3,0.9-0.3,1.3c0,0.5,0.1,1,0.3,1.4c0.2,0.4,0.5,0.7,0.9,0.9
			C597.8,145,598.3,145.1,598.8,145.1z M610.9,138.8v7.5h-1.1l-4.1-5v5h-1.4v-7.5h1.1l4.1,5v-5H610.9z M615.2,146.4
			c-0.6,0-1.1-0.1-1.7-0.2c-0.5-0.2-1-0.4-1.3-0.6l0.5-1.1c0.3,0.2,0.7,0.4,1.1,0.6c0.4,0.1,0.9,0.2,1.3,0.2c0.6,0,1-0.1,1.2-0.3
			c0.3-0.2,0.4-0.4,0.4-0.7c0-0.2-0.1-0.4-0.2-0.5c-0.2-0.1-0.4-0.3-0.6-0.3c-0.2-0.1-0.5-0.2-0.9-0.3c-0.6-0.1-1-0.3-1.4-0.4
			c-0.3-0.1-0.6-0.3-0.9-0.6c-0.2-0.3-0.4-0.7-0.4-1.2c0-0.4,0.1-0.8,0.3-1.1c0.2-0.3,0.6-0.6,1-0.8c0.5-0.2,1-0.3,1.7-0.3
			c0.5,0,0.9,0.1,1.3,0.2c0.4,0.1,0.8,0.3,1.1,0.5l-0.4,1.1c-0.3-0.2-0.7-0.3-1-0.4s-0.7-0.2-1-0.2c-0.6,0-1,0.1-1.2,0.3
			c-0.3,0.2-0.4,0.4-0.4,0.7c0,0.2,0.1,0.4,0.2,0.5c0.2,0.1,0.3,0.2,0.6,0.3c0.2,0.1,0.6,0.2,1,0.2c0.6,0.1,1,0.3,1.4,0.4
			c0.4,0.1,0.7,0.3,0.9,0.6c0.2,0.3,0.4,0.7,0.4,1.1c0,0.4-0.1,0.8-0.3,1.1c-0.2,0.3-0.6,0.6-1,0.8
			C616.4,146.3,615.8,146.4,615.2,146.4z"/>
		<path class="st13" d="M380.2,129.7L380.2,129.7c0-1.7,1.3-3,3-3h109.2c0.8,0,1.6,0.3,2.1,0.9c0.6,0.6,0.9,1.3,0.9,2.1v25.5
			c0,1.7-1.3,3-3,3H383.2c-1.7,0-3-1.3-3-3V129.7z"/>
		<path class="st14" d="M426.8,138.6v8.4h-1.6v-3.6h-4.3v3.6h-1.6v-8.4h1.6v3.5h4.3v-3.5H426.8z M432.9,147.1
			c-0.9,0-1.6-0.2-2.3-0.6s-1.2-0.9-1.6-1.5c-0.4-0.7-0.6-1.4-0.6-2.2c0-0.8,0.2-1.5,0.6-2.2c0.4-0.7,0.9-1.2,1.6-1.5
			c0.7-0.4,1.5-0.6,2.3-0.6c0.9,0,1.6,0.2,2.3,0.6c0.7,0.4,1.2,0.9,1.6,1.5c0.4,0.7,0.6,1.4,0.6,2.2s-0.2,1.6-0.6,2.2
			c-0.4,0.7-0.9,1.2-1.6,1.5S433.8,147.1,432.9,147.1z M432.9,145.7c0.6,0,1.1-0.1,1.5-0.4c0.4-0.2,0.8-0.6,1-1
			c0.3-0.5,0.4-1,0.4-1.5s-0.1-1.1-0.4-1.5c-0.2-0.4-0.6-0.8-1-1c-0.4-0.3-1-0.4-1.5-0.4c-0.6,0-1.1,0.1-1.5,0.4
			c-0.4,0.2-0.8,0.6-1.1,1c-0.3,0.4-0.4,1-0.4,1.5s0.1,1.1,0.4,1.5c0.3,0.4,0.6,0.8,1.1,1C431.9,145.6,432.4,145.7,432.9,145.7z
			 M446.8,147l0-5.6l-2.8,4.6h-0.7l-2.8-4.5v5.5h-1.5v-8.4h1.3l3.3,5.6l3.3-5.6h1.3v8.4H446.8z M456.9,145.7v1.3h-6.3v-8.4h6.1v1.3
			h-4.6v2.2h4.1v1.3h-4.1v2.3H456.9z"/>
		<path class="st11" d="M289.3,254.2L289.3,254.2c0-1.7,1.3-3,3-3h109.2c0.8,0,1.6,0.3,2.1,0.9c0.6,0.6,0.9,1.3,0.9,2.1v25.5
			c0,1.7-1.3,3-3,3H292.3c-1.7,0-3-1.3-3-3V254.2z"/>
		<path class="st12" d="M323.4,270.8c-0.6,0-1.1-0.1-1.7-0.2c-0.5-0.2-1-0.4-1.3-0.6l0.5-1.1c0.3,0.2,0.7,0.4,1.1,0.6
			c0.4,0.1,0.9,0.2,1.3,0.2c0.6,0,1-0.1,1.2-0.3c0.3-0.2,0.4-0.4,0.4-0.7c0-0.2-0.1-0.4-0.2-0.5c-0.2-0.1-0.4-0.3-0.6-0.3
			c-0.2-0.1-0.5-0.2-0.9-0.3c-0.6-0.1-1-0.3-1.4-0.4c-0.3-0.1-0.6-0.3-0.9-0.6c-0.2-0.3-0.4-0.7-0.4-1.2c0-0.4,0.1-0.8,0.3-1.1
			c0.2-0.3,0.6-0.6,1-0.8c0.5-0.2,1-0.3,1.7-0.3c0.5,0,0.9,0.1,1.3,0.2c0.4,0.1,0.8,0.3,1.1,0.5l-0.4,1.1c-0.3-0.2-0.7-0.3-1-0.4
			c-0.4-0.1-0.7-0.2-1-0.2c-0.6,0-1,0.1-1.2,0.3c-0.3,0.2-0.4,0.4-0.4,0.7c0,0.2,0.1,0.4,0.2,0.5c0.2,0.1,0.3,0.2,0.6,0.3
			c0.2,0.1,0.6,0.2,1,0.2c0.6,0.1,1,0.3,1.4,0.4c0.4,0.1,0.7,0.3,0.9,0.6c0.2,0.3,0.4,0.7,0.4,1.1c0,0.4-0.1,0.8-0.3,1.1
			c-0.2,0.3-0.6,0.6-1,0.8C324.6,270.7,324,270.8,323.4,270.8z M333.3,269.5v1.2h-5.6v-7.5h5.5v1.2h-4.1v1.9h3.6v1.1h-3.6v2.1H333.3
			z M336.4,264.4h-2.5v-1.2h6.3v1.2h-2.5v6.3h-1.4V264.4z M342.9,264.4h-2.5v-1.2h6.3v1.2h-2.5v6.3h-1.4V264.4z M347.8,263.2h1.4
			v7.5h-1.4V263.2z M357.9,263.2v7.5h-1.1l-4.1-5v5h-1.4v-7.5h1.1l4.1,5v-5H357.9z M365,266.9h1.3v3c-0.4,0.3-0.8,0.5-1.3,0.7
			c-0.5,0.2-1,0.2-1.6,0.2c-0.8,0-1.4-0.2-2.1-0.5c-0.6-0.3-1.1-0.8-1.4-1.4c-0.3-0.6-0.5-1.2-0.5-2c0-0.7,0.2-1.4,0.5-2
			c0.4-0.6,0.8-1,1.5-1.4c0.6-0.3,1.3-0.5,2.1-0.5c0.6,0,1.2,0.1,1.7,0.3c0.5,0.2,0.9,0.5,1.3,0.9l-0.9,0.8c-0.6-0.6-1.2-0.8-2-0.8
			c-0.5,0-1,0.1-1.4,0.3c-0.4,0.2-0.7,0.5-1,0.9c-0.2,0.4-0.3,0.8-0.3,1.4c0,0.5,0.1,0.9,0.3,1.3c0.2,0.4,0.6,0.7,1,0.9
			c0.4,0.2,0.9,0.3,1.4,0.3c0.6,0,1.1-0.1,1.5-0.4V266.9z M370.4,270.8c-0.6,0-1.1-0.1-1.7-0.2c-0.5-0.2-1-0.4-1.3-0.6l0.5-1.1
			c0.3,0.2,0.7,0.4,1.1,0.6c0.4,0.1,0.9,0.2,1.3,0.2c0.6,0,1-0.1,1.2-0.3c0.3-0.2,0.4-0.4,0.4-0.7c0-0.2-0.1-0.4-0.2-0.5
			c-0.2-0.1-0.4-0.3-0.6-0.3c-0.2-0.1-0.5-0.2-0.9-0.3c-0.6-0.1-1-0.3-1.4-0.4c-0.3-0.1-0.6-0.3-0.9-0.6c-0.2-0.3-0.4-0.7-0.4-1.2
			c0-0.4,0.1-0.8,0.3-1.1c0.2-0.3,0.6-0.6,1-0.8c0.5-0.2,1-0.3,1.7-0.3c0.5,0,0.9,0.1,1.3,0.2c0.4,0.1,0.8,0.3,1.1,0.5l-0.4,1.1
			c-0.3-0.2-0.7-0.3-1-0.4c-0.4-0.1-0.7-0.2-1-0.2c-0.6,0-1,0.1-1.2,0.3c-0.3,0.2-0.4,0.4-0.4,0.7c0,0.2,0.1,0.4,0.2,0.5
			c0.2,0.1,0.3,0.2,0.6,0.3c0.2,0.1,0.6,0.2,1,0.2c0.6,0.1,1,0.3,1.4,0.4c0.4,0.1,0.7,0.3,0.9,0.6c0.2,0.3,0.4,0.7,0.4,1.1
			c0,0.4-0.1,0.8-0.3,1.1c-0.2,0.3-0.6,0.6-1,0.8C371.6,270.7,371.1,270.8,370.4,270.8z"/>
		<path class="st11" d="M451,254.2L451,254.2c0-1.7,1.3-3,3-3h109.2c0.8,0,1.6,0.3,2.1,0.9c0.6,0.6,0.9,1.3,0.9,2.1v25.5
			c0,1.7-1.3,3-3,3H454c-1.7,0-3-1.3-3-3V254.2z"/>
		<path class="st12" d="M496.3,270.8c-0.6,0-1.1-0.1-1.7-0.2c-0.5-0.2-1-0.4-1.3-0.6l0.5-1.1c0.3,0.2,0.7,0.4,1.1,0.6
			c0.4,0.1,0.9,0.2,1.3,0.2c0.6,0,1-0.1,1.2-0.3c0.3-0.2,0.4-0.4,0.4-0.7c0-0.2-0.1-0.4-0.2-0.5c-0.2-0.1-0.4-0.3-0.6-0.3
			c-0.2-0.1-0.5-0.2-0.9-0.3c-0.6-0.1-1-0.3-1.4-0.4c-0.3-0.1-0.6-0.3-0.9-0.6c-0.2-0.3-0.4-0.7-0.4-1.2c0-0.4,0.1-0.8,0.3-1.1
			c0.2-0.3,0.6-0.6,1-0.8c0.5-0.2,1-0.3,1.7-0.3c0.5,0,0.9,0.1,1.3,0.2c0.4,0.1,0.8,0.3,1.1,0.5l-0.4,1.1c-0.3-0.2-0.7-0.3-1-0.4
			c-0.4-0.1-0.7-0.2-1-0.2c-0.6,0-1,0.1-1.2,0.3c-0.3,0.2-0.4,0.4-0.4,0.7c0,0.2,0.1,0.4,0.2,0.5c0.2,0.1,0.3,0.2,0.6,0.3
			c0.2,0.1,0.6,0.2,1,0.2c0.6,0.1,1,0.3,1.4,0.4c0.4,0.1,0.7,0.3,0.9,0.6c0.3,0.3,0.4,0.7,0.4,1.1c0,0.4-0.1,0.8-0.3,1.1
			c-0.2,0.3-0.6,0.6-1,0.8C497.5,270.7,496.9,270.8,496.3,270.8z M506.2,269.5v1.2h-5.6v-7.5h5.5v1.2H502v1.9h3.6v1.1H502v2.1H506.2
			z M514.4,263.2v7.5h-1.1l-4.1-5v5h-1.4v-7.5h1.1l4.1,5v-5H514.4z M516.4,263.2h3.3c0.8,0,1.5,0.2,2.1,0.5c0.6,0.3,1.1,0.7,1.4,1.3
			c0.3,0.6,0.5,1.2,0.5,2c0,0.7-0.2,1.4-0.5,2c-0.3,0.6-0.8,1-1.4,1.3c-0.6,0.3-1.3,0.5-2.1,0.5h-3.3V263.2z M519.6,269.5
			c0.5,0,1-0.1,1.4-0.3c0.4-0.2,0.7-0.5,1-0.9c0.2-0.4,0.3-0.8,0.3-1.4c0-0.5-0.1-1-0.3-1.3c-0.2-0.4-0.5-0.7-1-0.9
			c-0.4-0.2-0.9-0.3-1.4-0.3h-1.8v5.1H519.6z"/>
		<path class="st11" d="M612.6,254.2L612.6,254.2c0-1.7,1.3-3,3-3h109.2c0.8,0,1.6,0.3,2.1,0.9c0.6,0.6,0.9,1.3,0.9,2.1v25.5
			c0,1.7-1.3,3-3,3H615.6c-1.7,0-3-1.3-3-3V254.2z"/>
		<path class="st12" d="M649.9,270.7l-1.5-2.2c-0.1,0-0.2,0-0.3,0h-1.7v2.2H645v-7.5h3.1c0.6,0,1.2,0.1,1.7,0.3
			c0.5,0.2,0.8,0.5,1.1,0.9c0.3,0.4,0.4,0.9,0.4,1.4c0,0.6-0.1,1-0.4,1.5c-0.3,0.4-0.7,0.7-1.2,0.9l1.7,2.5H649.9z M649.9,265.9
			c0-0.5-0.2-0.8-0.5-1.1c-0.3-0.3-0.8-0.4-1.4-0.4h-1.6v3h1.6c0.6,0,1.1-0.1,1.4-0.4C649.7,266.7,649.9,266.3,649.9,265.9z
			 M658.4,269.5v1.2h-5.6v-7.5h5.5v1.2h-4.1v1.9h3.6v1.1h-3.6v2.1H658.4z M667.8,271.4c-0.2,0.3-0.5,0.5-0.9,0.7
			c-0.3,0.1-0.7,0.2-1.1,0.2c-0.5,0-1-0.1-1.4-0.3c-0.4-0.2-0.9-0.6-1.5-1.2c-0.7-0.1-1.3-0.2-1.9-0.6c-0.5-0.3-1-0.8-1.3-1.3
			c-0.3-0.6-0.5-1.2-0.5-1.9c0-0.7,0.2-1.4,0.5-2c0.4-0.6,0.8-1.1,1.4-1.4c0.6-0.3,1.3-0.5,2.1-0.5c0.8,0,1.4,0.2,2,0.5
			c0.6,0.3,1.1,0.8,1.4,1.4c0.4,0.6,0.5,1.2,0.5,2c0,0.6-0.1,1.1-0.4,1.6c-0.2,0.5-0.6,0.9-1,1.3c-0.4,0.4-0.9,0.6-1.5,0.8
			c0.2,0.2,0.4,0.4,0.6,0.5c0.2,0.1,0.4,0.2,0.6,0.2c0.5,0,0.9-0.2,1.3-0.6L667.8,271.4z M660.8,266.9c0,0.5,0.1,1,0.3,1.4
			c0.2,0.4,0.5,0.7,0.9,0.9c0.4,0.2,0.8,0.3,1.3,0.3s0.9-0.1,1.3-0.3c0.4-0.2,0.7-0.5,0.9-0.9c0.2-0.4,0.3-0.9,0.3-1.4
			c0-0.5-0.1-0.9-0.3-1.3c-0.2-0.4-0.5-0.7-0.9-0.9c-0.4-0.2-0.8-0.3-1.3-0.3s-0.9,0.1-1.3,0.3c-0.4,0.2-0.7,0.5-0.9,0.9
			C660.9,266,660.8,266.4,660.8,266.9z M672.1,270.8c-1,0-1.8-0.3-2.4-0.9c-0.6-0.6-0.9-1.4-0.9-2.5v-4.2h1.4v4.2
			c0,1.5,0.6,2.2,1.9,2.2c1.3,0,1.9-0.7,1.9-2.2v-4.2h1.4v4.2c0,1.1-0.3,1.9-0.9,2.5C673.9,270.5,673.1,270.8,672.1,270.8z
			 M682.9,269.5v1.2h-5.6v-7.5h5.5v1.2h-4.1v1.9h3.6v1.1h-3.6v2.1H682.9z M686.8,270.8c-0.6,0-1.1-0.1-1.7-0.2
			c-0.5-0.2-1-0.4-1.3-0.6l0.5-1.1c0.3,0.2,0.7,0.4,1.1,0.6c0.4,0.1,0.9,0.2,1.3,0.2c0.6,0,1-0.1,1.2-0.3c0.3-0.2,0.4-0.4,0.4-0.7
			c0-0.2-0.1-0.4-0.2-0.5c-0.2-0.1-0.4-0.3-0.6-0.3c-0.2-0.1-0.5-0.2-0.9-0.3c-0.6-0.1-1-0.3-1.4-0.4c-0.3-0.1-0.6-0.3-0.9-0.6
			c-0.2-0.3-0.4-0.7-0.4-1.2c0-0.4,0.1-0.8,0.3-1.1c0.2-0.3,0.6-0.6,1-0.8c0.5-0.2,1-0.3,1.7-0.3c0.5,0,0.9,0.1,1.3,0.2
			c0.4,0.1,0.8,0.3,1.1,0.5l-0.4,1.1c-0.3-0.2-0.7-0.3-1-0.4c-0.4-0.1-0.7-0.2-1-0.2c-0.6,0-1,0.1-1.2,0.3c-0.3,0.2-0.4,0.4-0.4,0.7
			c0,0.2,0.1,0.4,0.2,0.5c0.2,0.1,0.3,0.2,0.6,0.3c0.2,0.1,0.6,0.2,1,0.2c0.6,0.1,1,0.3,1.4,0.4c0.4,0.1,0.7,0.3,0.9,0.6
			c0.2,0.3,0.4,0.7,0.4,1.1c0,0.4-0.1,0.8-0.3,1.1c-0.2,0.3-0.6,0.6-1,0.8C688,270.7,687.4,270.8,686.8,270.8z M692.6,264.4h-2.5
			v-1.2h6.3v1.2H694v6.3h-1.4V264.4z"/>
		<path class="st11" d="M765.5,254.2L765.5,254.2c0-1.7,1.3-3,3-3h109.2c0.8,0,1.6,0.3,2.1,0.9c0.6,0.6,0.9,1.3,0.9,2.1v25.5
			c0,1.7-1.3,3-3,3H768.5c-1.7,0-3-1.3-3-3V254.2z"/>
		<path class="st12" d="M796,264.4h-2.5v-1.2h6.3v1.2h-2.5v6.3H796V264.4z M805.8,270.7l-1.5-2.2c-0.1,0-0.2,0-0.3,0h-1.7v2.2h-1.4
			v-7.5h3.1c0.6,0,1.2,0.1,1.7,0.3c0.5,0.2,0.8,0.5,1.1,0.9c0.3,0.4,0.4,0.9,0.4,1.4c0,0.6-0.1,1-0.4,1.5c-0.3,0.4-0.7,0.7-1.2,0.9
			l1.7,2.5H805.8z M805.8,265.8c0-0.5-0.2-0.8-0.5-1.1c-0.3-0.3-0.8-0.4-1.4-0.4h-1.6v3h1.6c0.6,0,1.1-0.1,1.4-0.4
			C805.6,266.7,805.8,266.3,805.8,265.8z M813.6,268.9h-3.7l-0.7,1.7h-1.4l3.3-7.5h1.4l3.4,7.5h-1.5L813.6,268.9z M813.1,267.8
			l-1.4-3.3l-1.4,3.3H813.1z M823.3,263.2v7.5h-1.1l-4.1-5v5h-1.4v-7.5h1.1l4.1,5v-5H823.3z M827.7,270.8c-0.6,0-1.1-0.1-1.7-0.2
			c-0.5-0.2-1-0.4-1.3-0.6l0.5-1.1c0.3,0.2,0.7,0.4,1.1,0.6c0.4,0.1,0.9,0.2,1.3,0.2c0.6,0,1-0.1,1.2-0.3c0.3-0.2,0.4-0.4,0.4-0.7
			c0-0.2-0.1-0.4-0.2-0.5c-0.2-0.1-0.4-0.3-0.6-0.3c-0.2-0.1-0.5-0.2-0.9-0.3c-0.6-0.1-1-0.3-1.4-0.4c-0.3-0.1-0.6-0.3-0.9-0.6
			c-0.2-0.3-0.4-0.7-0.4-1.2c0-0.4,0.1-0.8,0.3-1.1c0.2-0.3,0.6-0.6,1-0.8c0.5-0.2,1-0.3,1.7-0.3c0.5,0,0.9,0.1,1.3,0.2
			c0.4,0.1,0.8,0.3,1.1,0.5l-0.4,1.1c-0.3-0.2-0.7-0.3-1-0.4c-0.4-0.1-0.7-0.2-1-0.2c-0.6,0-1,0.1-1.2,0.3c-0.3,0.2-0.4,0.4-0.4,0.7
			c0,0.2,0.1,0.4,0.2,0.5c0.2,0.1,0.3,0.2,0.6,0.3c0.2,0.1,0.6,0.2,1,0.2c0.6,0.1,1,0.3,1.4,0.4c0.4,0.1,0.7,0.3,0.9,0.6
			c0.2,0.3,0.4,0.7,0.4,1.1c0,0.4-0.1,0.8-0.3,1.1c-0.2,0.3-0.6,0.6-1,0.8C828.9,270.7,828.3,270.8,827.7,270.8z M833.4,264.4v2.3
			h3.6v1.2h-3.6v2.9H832v-7.5h5.5v1.2H833.4z M844.4,269.5v1.2h-5.6v-7.5h5.5v1.2h-4.1v1.9h3.6v1.1h-3.6v2.1H844.4z M850.9,270.7
			l-1.5-2.2c-0.1,0-0.2,0-0.3,0h-1.7v2.2H846v-7.5h3.1c0.6,0,1.2,0.1,1.7,0.3c0.5,0.2,0.8,0.5,1.1,0.9c0.3,0.4,0.4,0.9,0.4,1.4
			c0,0.6-0.1,1-0.4,1.5c-0.3,0.4-0.7,0.7-1.2,0.9l1.7,2.5H850.9z M850.8,265.8c0-0.5-0.2-0.8-0.5-1.1c-0.3-0.3-0.8-0.4-1.4-0.4h-1.6
			v3h1.6c0.6,0,1.1-0.1,1.4-0.4C850.7,266.7,850.8,266.3,850.8,265.8z"/>
		<path class="st11" d="M578.7,340.2L578.7,340.2c0-1.7,1.3-3,3-3H691c0.8,0,1.6,0.3,2.1,0.9c0.6,0.6,0.9,1.3,0.9,2.1v25.5
			c0,1.7-1.3,3-3,3H581.7c-1.7,0-3-1.3-3-3V340.2z"/>
		<path class="st12" d="M629.4,354.9h-3.7l-0.7,1.7h-1.4l3.3-7.5h1.4l3.4,7.5h-1.5L629.4,354.9z M628.9,353.8l-1.4-3.3l-1.4,3.3
			H628.9z M632.5,349.2h3.3c0.8,0,1.5,0.2,2.1,0.5c0.6,0.3,1.1,0.7,1.4,1.3c0.3,0.6,0.5,1.2,0.5,2c0,0.7-0.2,1.4-0.5,2
			c-0.3,0.6-0.8,1-1.4,1.3c-0.6,0.3-1.3,0.5-2.1,0.5h-3.3V349.2z M635.7,355.5c0.5,0,1-0.1,1.4-0.3c0.4-0.2,0.7-0.5,1-0.9
			c0.2-0.4,0.3-0.8,0.3-1.4c0-0.5-0.1-1-0.3-1.3c-0.2-0.4-0.5-0.7-1-0.9c-0.4-0.2-0.9-0.3-1.4-0.3h-1.8v5.1H635.7z M641.3,349.2h3.3
			c0.8,0,1.5,0.2,2.1,0.5c0.6,0.3,1.1,0.7,1.4,1.3c0.3,0.6,0.5,1.2,0.5,2c0,0.7-0.2,1.4-0.5,2c-0.3,0.6-0.8,1-1.4,1.3
			c-0.6,0.3-1.3,0.5-2.1,0.5h-3.3V349.2z M644.5,355.5c0.5,0,1-0.1,1.4-0.3c0.4-0.2,0.7-0.5,1-0.9c0.2-0.4,0.3-0.8,0.3-1.4
			c0-0.5-0.1-1-0.3-1.3c-0.2-0.4-0.5-0.7-1-0.9c-0.4-0.2-0.9-0.3-1.4-0.3h-1.8v5.1H644.5z"/>
		<path class="st11" d="M699.3,340.2L699.3,340.2c0-1.7,1.3-3,3-3h109.2c0.8,0,1.6,0.3,2.1,0.9c0.6,0.6,0.9,1.3,0.9,2.1v25.5
			c0,1.7-1.3,3-3,3H702.3c-1.7,0-3-1.3-3-3V340.2z"/>
		<path class="st12" d="M735.4,349.2l-2.5,7.5h-1.5l-1.8-5.5l-1.9,5.5h-1.5l-2.5-7.5h1.4l1.9,5.7l1.9-5.7h1.3l1.9,5.7l1.9-5.7H735.4
			z M736.5,349.2h1.4v7.5h-1.4V349.2z M741.4,350.4H739v-1.2h6.3v1.2h-2.5v6.3h-1.4V350.4z M753,349.2v7.5h-1.4v-3.2h-3.9v3.2h-1.4
			v-7.5h1.4v3.1h3.9v-3.1H753z M755,349.2h3.3c0.8,0,1.5,0.2,2.1,0.5c0.6,0.3,1.1,0.7,1.4,1.3c0.3,0.6,0.5,1.2,0.5,2
			c0,0.7-0.2,1.4-0.5,2c-0.3,0.6-0.8,1-1.4,1.3c-0.6,0.3-1.3,0.5-2.1,0.5H755V349.2z M758.2,355.5c0.5,0,1-0.1,1.4-0.3
			c0.4-0.2,0.7-0.5,1-0.9c0.2-0.4,0.3-0.8,0.3-1.4c0-0.5-0.1-1-0.3-1.3c-0.2-0.4-0.5-0.7-1-0.9c-0.4-0.2-0.9-0.3-1.4-0.3h-1.8v5.1
			H758.2z M768.7,356.7l-1.5-2.2c-0.1,0-0.2,0-0.3,0h-1.7v2.2h-1.4v-7.5h3.1c0.6,0,1.2,0.1,1.7,0.3c0.5,0.2,0.8,0.5,1.1,0.9
			c0.3,0.4,0.4,0.9,0.4,1.4c0,0.6-0.1,1-0.4,1.5c-0.3,0.4-0.7,0.7-1.2,0.9l1.7,2.5H768.7z M768.6,351.8c0-0.5-0.2-0.8-0.5-1.1
			c-0.3-0.3-0.8-0.4-1.4-0.4h-1.6v3h1.6c0.6,0,1.1-0.1,1.4-0.4C768.5,352.7,768.6,352.3,768.6,351.8z M776.4,354.9h-3.7l-0.7,1.7
			h-1.4l3.3-7.5h1.4l3.4,7.5h-1.5L776.4,354.9z M775.9,353.8l-1.4-3.3l-1.4,3.3H775.9z M790.1,349.2l-2.5,7.5h-1.5l-1.8-5.5
			l-1.9,5.5h-1.5l-2.5-7.5h1.4l1.9,5.7l1.9-5.7h1.3l1.9,5.7l1.9-5.7H790.1z"/>
		<path class="st11" d="M819.9,340.2L819.9,340.2c0-1.7,1.3-3,3-3h109.2c0.8,0,1.6,0.3,2.1,0.9c0.6,0.6,0.9,1.3,0.9,2.1v25.5
			c0,1.7-1.3,3-3,3H822.9c-1.7,0-3-1.3-3-3V340.2z"/>
		<path class="st12" d="M855,356.8c-0.8,0-1.4-0.2-2-0.5c-0.6-0.3-1.1-0.8-1.4-1.4c-0.3-0.6-0.5-1.2-0.5-2c0-0.7,0.2-1.4,0.5-2
			c0.4-0.6,0.8-1,1.4-1.4c0.6-0.3,1.3-0.5,2-0.5c0.6,0,1.2,0.1,1.7,0.3c0.5,0.2,0.9,0.5,1.3,0.9l-0.9,0.8c-0.5-0.6-1.2-0.9-2-0.9
			c-0.5,0-1,0.1-1.4,0.3c-0.4,0.2-0.7,0.5-1,0.9c-0.2,0.4-0.3,0.8-0.3,1.3c0,0.5,0.1,1,0.3,1.4c0.2,0.4,0.5,0.7,1,0.9
			c0.4,0.2,0.9,0.3,1.4,0.3c0.8,0,1.5-0.3,2-0.9l0.9,0.9c-0.4,0.4-0.8,0.7-1.3,0.9C856.1,356.7,855.6,356.8,855,356.8z M862.6,356.8
			c-0.8,0-1.4-0.2-2.1-0.5c-0.6-0.3-1.1-0.8-1.4-1.4c-0.3-0.6-0.5-1.2-0.5-2c0-0.7,0.2-1.4,0.5-2c0.4-0.6,0.8-1.1,1.4-1.4
			c0.6-0.3,1.3-0.5,2.1-0.5c0.8,0,1.4,0.2,2,0.5c0.6,0.3,1.1,0.8,1.4,1.4c0.4,0.6,0.5,1.2,0.5,2c0,0.7-0.2,1.4-0.5,2
			c-0.3,0.6-0.8,1-1.4,1.4C864,356.6,863.3,356.8,862.6,356.8z M862.6,355.5c0.5,0,0.9-0.1,1.3-0.3c0.4-0.2,0.7-0.5,0.9-0.9
			c0.2-0.4,0.3-0.9,0.3-1.4c0-0.5-0.1-0.9-0.3-1.3c-0.2-0.4-0.5-0.7-0.9-0.9c-0.4-0.2-0.8-0.3-1.3-0.3c-0.5,0-0.9,0.1-1.3,0.3
			c-0.4,0.2-0.7,0.5-0.9,0.9c-0.2,0.4-0.3,0.9-0.3,1.3c0,0.5,0.1,1,0.3,1.4c0.2,0.4,0.5,0.7,0.9,0.9
			C861.6,355.4,862.1,355.5,862.6,355.5z M874.7,349.2v7.5h-1.1l-4.1-5v5h-1.4v-7.5h1.1l4.1,5v-5H874.7z M883.5,349.2l-3.2,7.5h-1.4
			l-3.2-7.5h1.5l2.5,5.8l2.5-5.8H883.5z M889.8,355.5v1.2h-5.6v-7.5h5.5v1.2h-4.1v1.9h3.6v1.1h-3.6v2.1H889.8z M896.3,356.7
			l-1.5-2.2c-0.1,0-0.2,0-0.3,0h-1.7v2.2h-1.4v-7.5h3.1c0.6,0,1.2,0.1,1.7,0.3c0.5,0.2,0.8,0.5,1.1,0.9c0.3,0.4,0.4,0.9,0.4,1.4
			c0,0.6-0.1,1-0.4,1.5c-0.3,0.4-0.7,0.7-1.2,0.9l1.7,2.5H896.3z M896.2,351.8c0-0.5-0.2-0.8-0.5-1.1c-0.3-0.3-0.8-0.4-1.4-0.4h-1.6
			v3h1.6c0.6,0,1.1-0.1,1.4-0.4C896.1,352.7,896.2,352.3,896.2,351.8z M900.6,350.4h-2.5v-1.2h6.3v1.2H902v6.3h-1.4V350.4z"/>
		<path class="st8" d="M139.4,75.7v-26H373"/>
		<path class="st9" d="M139.4,69.7v-20H373"/>
		<path class="st10" d="M137.8,69.7l1.7,4.5l1.7-4.5H137.8z"/>
		<path class="st8" d="M137.6,331.7v-10h0.1v-10"/>
		<path class="st9" d="M137.6,325.7v-4h0.1v-10"/>
		<path class="st10" d="M136,325.7l1.7,4.5l1.7-4.5H136z"/>
		<path class="st8" d="M380.2,142.5H260.9v283.9H137.6v-47.5"/>
		<path class="st9" d="M374.2,142.5H260.9v283.9H137.6v-47.5"/>
		<path class="st10" d="M374.2,144.1l4.5-1.7l-4.5-1.7V144.1z"/>
		<path class="st8" d="M517.4,142.5h-11v0.1h-10.9"/>
		<path class="st9" d="M511.4,142.5h-5v0.1h-10.9"/>
		<path class="st10" d="M511.4,144.2l4.5-1.7l-4.5-1.7V144.2z"/>
		<path class="st8" d="M646.1,142.5h-6.8v0.1h-6.8"/>
		<path class="st9" d="M640.1,142.5h-0.8v0.1h-6.8"/>
		<path class="st10" d="M640.1,144.2l4.5-1.7l-4.5-1.7V144.2z"/>
		<path class="st8" d="M437.8,158.2v28.4h-90.9v64.5"/>
		<path class="st15" d="M437.8,158.2v28.4h-90.9v58.5"/>
		<path class="st16" d="M345.3,245.1l1.7,4.5l1.7-4.5H345.3z"/>
		<path class="st8" d="M437.8,158.2v28.4h70.7v64.5"/>
		<path class="st15" d="M437.8,158.2v28.4h70.7v58.5"/>
		<path class="st16" d="M506.9,245.1l1.7,4.5l1.7-4.5H506.9z"/>
		<path class="st8" d="M437.8,158.2v28h232.4v64.9"/>
		<path class="st15" d="M437.8,158.2v28h232.4v58.9"/>
		<path class="st16" d="M668.6,245.1l1.7,4.5l1.7-4.5H668.6z"/>
		<path class="st8" d="M437.8,158.2v28.4h467.9v80.3h-25"/>
		<path class="st15" d="M437.8,158.2v28.4h467.9v80.3h-19"/>
		<path class="st16" d="M886.8,265.3l-4.5,1.7l4.5,1.7V265.3z"/>
		<path class="st8" d="M575,158.3v58.1H426v50.5h25"/>
		<path class="st9" d="M575,158.3v58.1H426v50.5h19"/>
		<path class="st10" d="M445,268.6l4.5-1.7l-4.5-1.7V268.6z"/>
		<path class="st8" d="M575,158.3v108.7h37.6"/>
		<path class="st9" d="M575,158.3v108.7h31.6"/>
		<path class="st10" d="M606.6,268.6l4.5-1.7l-4.5-1.7V268.6z"/>
		<path class="st8" d="M575,158.3v58.1h248.2v34.8"/>
		<path class="st9" d="M575,158.3v58.1h248.2v28.8"/>
		<path class="st10" d="M821.5,245.2l1.7,4.5l1.7-4.5H821.5z"/>
		<path class="st8" d="M823.1,282.7v27.2H636.3v27.3"/>
		<path class="st9" d="M823.1,282.7v27.2H636.3v21.3"/>
		<path class="st10" d="M634.7,331.2l1.7,4.5l1.7-4.5H634.7z"/>
		<path class="st8" d="M823.1,282.7v27.2h-66.2v27.3"/>
		<path class="st9" d="M823.1,282.7v27.2h-66.2v21.3"/>
		<path class="st10" d="M755.3,331.2l1.7,4.5l1.7-4.5H755.3z"/>
		<path class="st8" d="M823.1,282.7v27.2h54.4v27.3"/>
		<path class="st9" d="M823.1,282.7v27.2h54.4v21.3"/>
		<path class="st10" d="M875.9,331.2l1.7,4.5l1.7-4.5H875.9z"/>
		<path class="st8" d="M42.2,496.6h77.2v20.2H42.2L42.2,496.6z"/>
		<g transform="matrix(0.0711588329275762 0.0 0.0 0.07115828068175029 6.157295983149815 431.3746918714628)">
			<g>
				<defs>
					<rect id="SVGID_00000183959847225300953470000014444607487685222797_" x="1010" y="1048.4" width="77.2" height="20.2"/>
				</defs>
				<clipPath id="SVGID_00000125569907090443514780000006655292907420683916_">
					<use xlink:href="#SVGID_00000183959847225300953470000014444607487685222797_"  style="overflow:visible;"/>
				</clipPath>
			</g>
		</g>
	</g>
</g>
</svg>
