<svg xmlns="http://www.w3.org/2000/svg" xmlns:xlink="http://www.w3.org/1999/xlink" xmlns:lucid="lucid" width="959.11" height="894"><g transform="translate(-369.9999930964302 -60)" lucid:page-tab-id="m-5o7ONTd-nK"><path d="M390 162a8 8 0 0 1 8-8h264a8 8 0 0 1 8 8v115.73a8 8 0 0 1-8 8H398a8 8 0 0 1-8-8z" stroke="#54c45e" fill-opacity="0"/><use xlink:href="#a" transform="matrix(1,0,0,1,402,166.00000000000003) translate(13.408641975308669 44.95555555555555)"/><use xlink:href="#b" transform="matrix(1,0,0,1,402,166.00000000000003) translate(103.12407407407409 44.95555555555555)"/><use xlink:href="#c" transform="matrix(1,0,0,1,402,166.00000000000003) translate(150.44444444444446 44.95555555555555)"/><use xlink:href="#d" transform="matrix(1,0,0,1,402,166.00000000000003) translate(167.8388888888889 44.95555555555555)"/><use xlink:href="#e" transform="matrix(1,0,0,1,402,166.00000000000003) translate(210.23395061728394 44.95555555555555)"/><use xlink:href="#f" transform="matrix(1,0,0,1,402,166.00000000000003) translate(86.25956790123458 71.88888888888889)"/><path d="M390 328.9a8 8 0 0 1 8-8h264a8 8 0 0 1 8 8v88.8a8 8 0 0 1-8 8H398a8 8 0 0 1-8-8z" stroke="#54c45e" fill-opacity="0"/><use xlink:href="#g" transform="matrix(1,0,0,1,402,332.89999939462405) translate(33.35925925925929 17.955555555555552)"/><use xlink:href="#h" transform="matrix(1,0,0,1,402,332.89999939462405) translate(98.07407407407408 17.955555555555552)"/><use xlink:href="#i" transform="matrix(1,0,0,1,402,332.89999939462405) translate(157.86358024691356 17.955555555555552)"/><use xlink:href="#j" transform="matrix(1,0,0,1,402,332.89999939462405) translate(26.34537037037039 44.888888888888886)"/><use xlink:href="#k" transform="matrix(1,0,0,1,402,332.89999939462405) translate(101.34722222222221 44.888888888888886)"/><use xlink:href="#l" transform="matrix(1,0,0,1,402,332.89999939462405) translate(203.5317901234568 44.888888888888886)"/><use xlink:href="#m" transform="matrix(1,0,0,1,402,332.89999939462405) translate(88.1922839506173 71.82222222222221)"/><path d="M390 648a8 8 0 0 1 8-8h264a8 8 0 0 1 8 8v104a8 8 0 0 1-8 8H398a8 8 0 0 1-8-8z" stroke="#54c45e" fill-opacity="0"/><use xlink:href="#n" transform="matrix(1,0,0,1,401.9999930964302,652) translate(35.88425925925928 26.955555555555552)"/><use xlink:href="#o" transform="matrix(1,0,0,1,401.9999930964302,652) translate(104.40216049382717 26.955555555555552)"/><use xlink:href="#p" transform="matrix(1,0,0,1,401.9999930964302,652) translate(165.31388888888887 26.955555555555552)"/><use xlink:href="#q" transform="matrix(1,0,0,1,401.9999930964302,652) translate(188.9429012345679 26.955555555555552)"/><use xlink:href="#r" transform="matrix(1,0,0,1,401.9999930964302,652) translate(33.67098765432101 53.888888888888886)"/><use xlink:href="#s" transform="matrix(1,0,0,1,401.9999930964302,652) translate(120.89259259259259 53.888888888888886)"/><use xlink:href="#t" transform="matrix(1,0,0,1,401.9999930964302,652) translate(140.21975308641976 53.888888888888886)"/><use xlink:href="#u" transform="matrix(1,0,0,1,401.9999930964302,652) translate(27.529938271604976 80.82222222222221)"/><use xlink:href="#v" transform="matrix(1,0,0,1,401.9999930964302,652) translate(104.77623456790126 80.82222222222221)"/><use xlink:href="#w" transform="matrix(1,0,0,1,401.9999930964302,652) translate(129.71450617283952 80.82222222222221)"/><use xlink:href="#x" transform="matrix(1,0,0,1,401.9999930964302,652) translate(167.1219135802469 80.82222222222221)"/><path d="M530 286.68v17.4" stroke="#54c45e" fill="none"/><path d="M530.5 286.7h-1v-.52h1z" stroke="#54c45e" stroke-width=".05" fill="#54c45e"/><path d="M530 318.83l-4.64-14.26h9.28z" stroke="#54c45e" fill="#54c45e"/><path d="M460 88a8 8 0 0 1 8-8h589a8 8 0 0 1 8 8v58a8 8 0 0 1-8 8H468a8 8 0 0 1-8-8z" stroke="#000" stroke-opacity="0" fill-opacity="0"/><use xlink:href="#y" transform="matrix(1,0,0,1,465,85) translate(82.99074074074073 37.83680555555556)"/><use xlink:href="#z" transform="matrix(1,0,0,1,465,85) translate(160.26234567901236 37.83680555555556)"/><use xlink:href="#A" transform="matrix(1,0,0,1,465,85) translate(228.09567901234567 37.83680555555556)"/><use xlink:href="#B" transform="matrix(1,0,0,1,465,85) translate(311.9537037037037 37.83680555555556)"/><use xlink:href="#C" transform="matrix(1,0,0,1,465,85) translate(397.78086419753083 37.83680555555556)"/><use xlink:href="#D" transform="matrix(1,0,0,1,465,85) translate(447.89197530864203 37.83680555555556)"/><path d="M390 480.73a8 8 0 0 1 8-8h264a8 8 0 0 1 8 8v104a8 8 0 0 1-8 8H398a8 8 0 0 1-8-8z" stroke="#54c45e" fill-opacity="0"/><use xlink:href="#E" transform="matrix(1,0,0,1,402,484.73333333333323) translate(19.736728395061746 26.955555555555552)"/><use xlink:href="#w" transform="matrix(1,0,0,1,402,484.73333333333323) translate(93.17993827160495 26.955555555555552)"/><use xlink:href="#F" transform="matrix(1,0,0,1,402,484.73333333333323) translate(130.58734567901234 26.955555555555552)"/><use xlink:href="#G" transform="matrix(1,0,0,1,402,484.73333333333323) translate(172.8577160493827 26.955555555555552)"/><use xlink:href="#H" transform="matrix(1,0,0,1,402,484.73333333333323) translate(17.89753086419755 53.888888888888886)"/><use xlink:href="#I" transform="matrix(1,0,0,1,402,484.73333333333323) translate(66.40246913580248 53.888888888888886)"/><use xlink:href="#J" transform="matrix(1,0,0,1,402,484.73333333333323) translate(103.56049382716049 53.888888888888886)"/><use xlink:href="#w" transform="matrix(1,0,0,1,402,484.73333333333323) translate(134.73333333333332 53.888888888888886)"/><use xlink:href="#K" transform="matrix(1,0,0,1,402,484.73333333333323) translate(172.14074074074074 53.888888888888886)"/><use xlink:href="#L" transform="matrix(1,0,0,1,402,484.73333333333323) translate(96.29722222222223 80.82222222222221)"/><path d="M530 426.65v29.25" stroke="#000" stroke-opacity="0" fill="none"/><path d="M530 470.66l-4.64-14.26h9.28z" stroke="#000" stroke-opacity="0" fill-opacity="0"/><path d="M530 426.65v29.25" stroke="#000" stroke-opacity="0" fill="none"/><path d="M530 470.66l-4.64-14.26h9.28z" stroke="#000" stroke-opacity="0" fill-opacity="0"/><path d="M530 426.65v29.25" stroke="#000" stroke-opacity="0" fill="none"/><path d="M530 470.66l-4.64-14.26h9.28z" stroke="#000" stroke-opacity="0" fill-opacity="0"/><path d="M380.5 494h83.12M380.5 494h-.5" stroke="#000" stroke-opacity="0" fill="none"/><path d="M478.38 494l-14.26 4.64v-9.28z" stroke="#000" stroke-opacity="0" fill-opacity="0"/><path d="M530 426.65v29.25" stroke="#54c45e" fill="none"/><path d="M530.5 426.66h-1v-.5h1z" stroke="#54c45e" stroke-width=".05" fill="#54c45e"/><path d="M530 470.66l-4.64-14.26h9.28z" stroke="#54c45e" fill="#54c45e"/><path d="M530 593.68v29.48" stroke="#000" stroke-opacity="0" fill="none"/><path d="M530 637.93l-4.64-14.27h9.28z" stroke="#000" stroke-opacity="0" fill-opacity="0"/><path d="M530 593.68v27.5a12 12 0 0 0 12 12h36a12 12 0 0 0 12-12v-36.9a12 12 0 0 1 12-12h11.62" stroke="#000" stroke-opacity="0" fill="none"/><path d="M628.38 572.28l-14.26 4.64v-9.27z" stroke="#000" stroke-opacity="0" fill-opacity="0"/><path d="M530 426.65v29.25" stroke="#000" stroke-opacity="0" fill="none"/><path d="M530 470.66l-4.64-14.26h9.28z" stroke="#000" stroke-opacity="0" fill-opacity="0"/><path d="M523.78 551.08v72.1M523.78 551.1v-.52" stroke="#000" stroke-opacity="0" fill="none"/><path d="M523.78 637.93l-4.64-14.26h9.27z" stroke="#000" stroke-opacity="0" fill-opacity="0"/><path d="M530 593.68v29.48" stroke="#000" stroke-opacity="0" fill="none"/><path d="M530 637.93l-4.64-14.27h9.28z" stroke="#000" stroke-opacity="0" fill-opacity="0"/><path d="M400.5 414h83.12M400.5 414h-.5" stroke="#000" stroke-opacity="0" fill="none"/><path d="M498.38 414l-14.26 4.64v-9.28z" stroke="#000" stroke-opacity="0" fill-opacity="0"/><path d="M530 593.68v29.48" stroke="#000" stroke-opacity="0" fill="none"/><path d="M530 637.93l-4.64-14.27h9.28z" stroke="#000" stroke-opacity="0" fill-opacity="0"/><path d="M530 593.68v29.48" stroke="#54c45e" fill="none"/><path d="M530.5 593.7h-1v-.52h1z" stroke="#54c45e" stroke-width=".05" fill="#54c45e"/><path d="M530 637.93l-4.64-14.27h9.28z" stroke="#54c45e" fill="#54c45e"/><path d="M819.55 483.73a8 8 0 0 1 8-8h264a8 8 0 0 1 8 8v101.74a8 8 0 0 1-8 8h-264a8 8 0 0 1-8-8z" stroke="#54c45e" fill-opacity="0"/><use xlink:href="#M" transform="matrix(1,0,0,1,824.548695816396,480.73333333333323) translate(26.674382716049422 31.455555555555552)"/><use xlink:href="#N" transform="matrix(1,0,0,1,824.548695816396,480.73333333333323) translate(88.89537037037039 31.455555555555552)"/><use xlink:href="#O" transform="matrix(1,0,0,1,824.548695816396,480.73333333333323) translate(132.53734567901233 31.455555555555552)"/><use xlink:href="#P" transform="matrix(1,0,0,1,824.548695816396,480.73333333333323) translate(182.35154320987652 31.455555555555552)"/><use xlink:href="#Q" transform="matrix(1,0,0,1,824.548695816396,480.73333333333323) translate(9.872222222222248 58.388888888888886)"/><use xlink:href="#R" transform="matrix(1,0,0,1,824.548695816396,480.73333333333323) translate(73.27777777777779 58.388888888888886)"/><use xlink:href="#w" transform="matrix(1,0,0,1,824.548695816396,480.73333333333323) translate(115.67283950617283 58.388888888888886)"/><use xlink:href="#S" transform="matrix(1,0,0,1,824.548695816396,480.73333333333323) translate(153.08024691358025 58.388888888888886)"/><use xlink:href="#T" transform="matrix(1,0,0,1,824.548695816396,480.73333333333323) translate(108.845987654321 85.32222222222221)"/><path d="M390 822a8 8 0 0 1 8-8h264a8 8 0 0 1 8 8v104a8 8 0 0 1-8 8H398a8 8 0 0 1-8-8z" stroke="#54c45e" fill-opacity="0"/><g><use xlink:href="#U" transform="matrix(1,0,0,1,402,826.0000000000001) translate(2.3111111111111313 39.17430555555555)"/><use xlink:href="#w" transform="matrix(1,0,0,1,402,826.0000000000001) translate(91.90185185185184 39.17430555555555)"/><use xlink:href="#V" transform="matrix(1,0,0,1,402,826.0000000000001) translate(129.30925925925925 39.17430555555555)"/><use xlink:href="#W" transform="matrix(1,0,0,1,402,826.0000000000001) translate(196.5179012345679 39.17430555555555)"/><use xlink:href="#X" transform="matrix(1,0,0,1,402,826.0000000000001) translate(6.488271604938291 66.10763888888889)"/><use xlink:href="#Y" transform="matrix(1,0,0,1,402,826.0000000000001) translate(92.46296296296296 66.10763888888889)"/><use xlink:href="#w" transform="matrix(1,0,0,1,402,826.0000000000001) translate(117.40123456790123 66.10763888888889)"/><use xlink:href="#Z" transform="matrix(1,0,0,1,402,826.0000000000001) translate(154.80864197530863 66.10763888888889)"/><use xlink:href="#aa" transform="matrix(1,0,0,1,402,826.0000000000001) translate(218.4012345679012 66.10763888888889)"/></g><path d="M530 760.95v36.21" stroke="#000" stroke-opacity="0" fill="none"/><path d="M530 811.93l-4.64-14.27h9.28z" stroke="#000" stroke-opacity="0" fill-opacity="0"/><path d="M530 760.95v22.94a3.1 3.1 0 0 1-3.1 3.1 3.1 3.1 0 0 0-3.12 3.1v7.07" stroke="#000" stroke-opacity="0" fill="none"/><path d="M523.78 811.93l-4.64-14.26h9.27z" stroke="#000" stroke-opacity="0" fill-opacity="0"/><path d="M530 760.95v36.21" stroke="#000" stroke-opacity="0" fill="none"/><path d="M530 811.93l-4.64-14.27h9.28z" stroke="#000" stroke-opacity="0" fill-opacity="0"/><path d="M530 814.04v-.5M530 813.55" stroke="#000" stroke-opacity="0" fill="none"/><path d="M530 812.92l-4.64-14.26h9.28z" stroke="#000" stroke-opacity="0" fill-opacity="0"/><path d="M530 760.95v36.2" stroke="#54c45e" fill="none"/><path d="M530.5 760.96h-1v-.5h1z" stroke="#54c45e" stroke-width=".05" fill="#54c45e"/><path d="M530 811.93l-4.64-14.27h9.28z" stroke="#54c45e" fill="#54c45e"/><path d="M819.55 343.73a8 8 0 0 1 8-8h264a8 8 0 0 1 8 8v84a8 8 0 0 1-8 8h-264a8 8 0 0 1-8-8z" stroke="#54c45e" fill-opacity="0"/><g><use xlink:href="#ab" transform="matrix(1,0,0,1,831.548695816396,347.7333333333332) translate(1.0641975308642202 29.986805555555552)"/><use xlink:href="#I" transform="matrix(1,0,0,1,831.548695816396,347.7333333333332) translate(64.6567901234568 29.986805555555552)"/><use xlink:href="#ac" transform="matrix(1,0,0,1,831.548695816396,347.7333333333332) translate(101.81481481481481 29.986805555555552)"/><use xlink:href="#ad" transform="matrix(1,0,0,1,831.548695816396,347.7333333333332) translate(177.6895061728395 29.986805555555552)"/><use xlink:href="#ae" transform="matrix(1,0,0,1,831.548695816396,347.7333333333332) translate(236.23209876543208 29.986805555555552)"/><use xlink:href="#w" transform="matrix(1,0,0,1,831.548695816396,347.7333333333332) translate(47.106481481481495 56.920138888888886)"/><use xlink:href="#V" transform="matrix(1,0,0,1,831.548695816396,347.7333333333332) translate(84.51388888888889 56.920138888888886)"/><use xlink:href="#af" transform="matrix(1,0,0,1,831.548695816396,347.7333333333332) translate(151.72253086419752 56.920138888888886)"/></g><path d="M670.95 874H698a12 12 0 0 0 12-12V167.73a12 12 0 0 1 12-12h225.55a12 12 0 0 1 12 12v2.77" stroke="#54c45e" fill="none"/><path d="M670.96 874.5h-.5v-1h.5z" stroke="#54c45e" stroke-width=".05" fill="#54c45e"/><path d="M959.55 185.26L954.9 171h9.28z" stroke="#54c45e" fill="#54c45e"/><g><path d="M1101.9 350.42a8 8 0 0 1 5.3-10l165.8-50.75a8 8 0 0 1 10 5.3l23.77 77.67a8 8 0 0 1-5.3 10l-165.8 50.75a8 8 0 0 1-10-5.32z" stroke="#000" stroke-opacity="0" fill-opacity="0"/></g><g><use xlink:href="#ag" transform="matrix(0.956189318622207,-0.2927490169971532,0.2927490169971532,0.956189318622207,1115.784894179448,351.3938454525833) translate(5.7749999999999915 15.4)"/><use xlink:href="#ah" transform="matrix(0.956189318622207,-0.2927490169971532,0.2927490169971532,0.956189318622207,1115.784894179448,351.3938454525833) translate(109.42500000000001 15.4)"/><use xlink:href="#ai" transform="matrix(0.956189318622207,-0.2927490169971532,0.2927490169971532,0.956189318622207,1115.784894179448,351.3938454525833) translate(131.32500000000002 15.4)"/><use xlink:href="#aj" transform="matrix(0.956189318622207,-0.2927490169971532,0.2927490169971532,0.956189318622207,1115.784894179448,351.3938454525833) translate(3.6499999999999915 41.32)"/><use xlink:href="#ak" transform="matrix(0.956189318622207,-0.2927490169971532,0.2927490169971532,0.956189318622207,1115.784894179448,351.3938454525833) translate(63.5 41.32)"/><use xlink:href="#al" transform="matrix(0.956189318622207,-0.2927490169971532,0.2927490169971532,0.956189318622207,1115.784894179448,351.3938454525833) translate(97.5 41.32)"/><use xlink:href="#am" transform="matrix(0.956189318622207,-0.2927490169971532,0.2927490169971532,0.956189318622207,1115.784894179448,351.3938454525833) translate(123.45 41.32)"/><use xlink:href="#an" transform="matrix(0.956189318622207,-0.2927490169971532,0.2927490169971532,0.956189318622207,1115.784894179448,351.3938454525833) translate(9.224999999999994 67.24000000000001)"/><use xlink:href="#ao" transform="matrix(0.956189318622207,-0.2927490169971532,0.2927490169971532,0.956189318622207,1115.784894179448,351.3938454525833) translate(31.124999999999996 67.24000000000001)"/><use xlink:href="#ap" transform="matrix(0.956189318622207,-0.2927490169971532,0.2927490169971532,0.956189318622207,1115.784894179448,351.3938454525833) translate(63.025 67.24000000000001)"/></g><path d="M819.55 808a8 8 0 0 1 8-8h264a8 8 0 0 1 8 8v101.73a8 8 0 0 1-8 8h-264a8 8 0 0 1-8-8z" stroke="#54c45e" fill-opacity="0"/><g><use xlink:href="#aq" transform="matrix(1,0,0,1,824.548695816396,805) translate(11.195061728395132 33.05277777777777)"/><use xlink:href="#ar" transform="matrix(1,0,0,1,824.548695816396,805) translate(96.46543209876546 33.05277777777777)"/><use xlink:href="#as" transform="matrix(1,0,0,1,824.548695816396,805) translate(121.06913580246915 33.05277777777777)"/><use xlink:href="#at" transform="matrix(1,0,0,1,824.548695816396,805) translate(203.9802469135802 33.05277777777777)"/><use xlink:href="#au" transform="matrix(1,0,0,1,824.548695816396,805) translate(228.5839506172839 33.05277777777777)"/><use xlink:href="#av" transform="matrix(1,0,0,1,824.548695816396,805) translate(6.139506172839589 57.31944444444442)"/><use xlink:href="#aw" transform="matrix(1,0,0,1,824.548695816396,805) translate(61.02037037037042 57.31944444444442)"/><use xlink:href="#ax" transform="matrix(1,0,0,1,824.548695816396,805) translate(102.47592592592595 57.31944444444442)"/><use xlink:href="#ay" transform="matrix(1,0,0,1,824.548695816396,805) translate(143.93148148148148 57.31944444444442)"/><use xlink:href="#az" transform="matrix(1,0,0,1,824.548695816396,805) translate(179.76975308641974 57.31944444444442)"/><use xlink:href="#aA" transform="matrix(1,0,0,1,824.548695816396,805) translate(120.42314814814816 81.58611111111108)"/></g><path d="M819.55 195.33a8 8 0 0 1 8-8h264a8 8 0 0 1 8 8v88.8a8 8 0 0 1-8 8h-264a8 8 0 0 1-8-8z" stroke="#54c45e" fill-opacity="0"/><g><use xlink:href="#E" transform="matrix(1,0,0,1,831.5486958163958,199.33333333333331) translate(9.106790123456804 30.611805555555552)"/><use xlink:href="#w" transform="matrix(1,0,0,1,831.5486958163958,199.33333333333331) translate(82.55000000000001 30.611805555555552)"/><use xlink:href="#Q" transform="matrix(1,0,0,1,831.5486958163958,199.33333333333331) translate(119.95740740740742 30.611805555555552)"/><use xlink:href="#aB" transform="matrix(1,0,0,1,831.5486958163958,199.33333333333331) translate(183.36296296296297 30.611805555555552)"/><use xlink:href="#q" transform="matrix(1,0,0,1,831.5486958163958,199.33333333333331) translate(215.72037037037035 30.611805555555552)"/><use xlink:href="#aC" transform="matrix(1,0,0,1,831.5486958163958,199.33333333333331) translate(100.63024691358025 57.545138888888886)"/></g><path d="M819.55 643.73a8 8 0 0 1 8-8h264a8 8 0 0 1 8 8v88.8a8 8 0 0 1-8 8h-264a8 8 0 0 1-8-8z" stroke="#54c45e" fill-opacity="0"/><g><use xlink:href="#aD" transform="matrix(1,0,0,1,831.548695816396,647.7333333333332) translate(33.234567901234584 30.611805555555552)"/><use xlink:href="#aE" transform="matrix(1,0,0,1,831.548695816396,647.7333333333332) translate(96.82716049382717 30.611805555555552)"/><use xlink:href="#w" transform="matrix(1,0,0,1,831.548695816396,647.7333333333332) translate(128 30.611805555555552)"/><use xlink:href="#aF" transform="matrix(1,0,0,1,831.548695816396,647.7333333333332) translate(165.4074074074074 30.611805555555552)"/><use xlink:href="#aG" transform="matrix(1,0,0,1,831.548695816396,647.7333333333332) translate(38.87685185185188 57.545138888888886)"/><use xlink:href="#aH" transform="matrix(1,0,0,1,831.548695816396,647.7333333333332) translate(167.2466049382716 57.545138888888886)"/></g><path d="M959.55 293.08v25.82" stroke="#54c45e" fill="none"/><path d="M960.05 293.1h-1v-.52h1z" stroke="#54c45e" stroke-width=".05" fill="#54c45e"/><path d="M959.55 333.66l-4.64-14.26h9.28z" stroke="#54c45e" fill="#54c45e"/><path d="M959.55 436.68v22.22" stroke="#54c45e" fill="none"/><path d="M960.05 436.7h-1v-.52h1z" stroke="#54c45e" stroke-width=".05" fill="#54c45e"/><path d="M959.55 473.66l-4.64-14.26h9.28z" stroke="#54c45e" fill="#54c45e"/><path d="M959.55 594.42v24.48" stroke="#54c45e" fill="none"/><path d="M960.05 594.43h-1v-.5h1z" stroke="#54c45e" stroke-width=".05" fill="#54c45e"/><path d="M959.55 633.66l-4.64-14.26h9.28z" stroke="#54c45e" fill="#54c45e"/><path d="M959.55 741.48v41.7" stroke="#54c45e" fill="none"/><path d="M960.05 741.5h-1v-.52h1z" stroke="#54c45e" stroke-width=".05" fill="#54c45e"/><path d="M959.55 797.93l-4.64-14.26h9.28z" stroke="#54c45e" fill="#54c45e"/><defs><path fill="#3a414a" d="M30-248c87 1 191-15 191 75 0 78-77 80-158 76V0H30v-248zm33 125c57 0 124 11 124-50 0-59-68-47-124-48v98" id="aI"/><path fill="#3a414a" d="M114-163C36-179 61-72 57 0H25l-1-190h30c1 12-1 29 2 39 6-27 23-49 58-41v29" id="aJ"/><path fill="#3a414a" d="M100-194c62-1 85 37 85 99 1 63-27 99-86 99S16-35 15-95c0-66 28-99 85-99zM99-20c44 1 53-31 53-75 0-43-8-75-51-75s-53 32-53 75 10 74 51 75" id="aK"/><path fill="#3a414a" d="M96-169c-40 0-48 33-48 73s9 75 48 75c24 0 41-14 43-38l32 2c-6 37-31 61-74 61-59 0-76-41-82-99-10-93 101-131 147-64 4 7 5 14 7 22l-32 3c-4-21-16-35-41-35" id="aL"/><path fill="#3a414a" d="M100-194c63 0 86 42 84 106H49c0 40 14 67 53 68 26 1 43-12 49-29l28 8c-11 28-37 45-77 45C44 4 14-33 15-96c1-61 26-98 85-98zm52 81c6-60-76-77-97-28-3 7-6 17-6 28h103" id="aM"/><path fill="#3a414a" d="M85-194c31 0 48 13 60 33l-1-100h32l1 261h-30c-2-10 0-23-3-31C134-8 116 4 85 4 32 4 16-35 15-94c0-66 23-100 70-100zm9 24c-40 0-46 34-46 75 0 40 6 74 45 74 42 0 51-32 51-76 0-42-9-74-50-73" id="aN"/><g id="a"><use transform="matrix(0.06234567901234567,0,0,0.06234567901234567,0,0)" xlink:href="#aI"/><use transform="matrix(0.06234567901234567,0,0,0.06234567901234567,14.96296296296296,0)" xlink:href="#aJ"/><use transform="matrix(0.06234567901234567,0,0,0.06234567901234567,22.382098765432094,0)" xlink:href="#aK"/><use transform="matrix(0.06234567901234567,0,0,0.06234567901234567,34.85123456790123,0)" xlink:href="#aL"/><use transform="matrix(0.06234567901234567,0,0,0.06234567901234567,46.07345679012345,0)" xlink:href="#aM"/><use transform="matrix(0.06234567901234567,0,0,0.06234567901234567,58.542592592592584,0)" xlink:href="#aM"/><use transform="matrix(0.06234567901234567,0,0,0.06234567901234567,71.01172839506171,0)" xlink:href="#aN"/></g><path fill="#3a414a" d="M117-194c89-4 53 116 60 194h-32v-121c0-31-8-49-39-48C34-167 62-67 57 0H25l-1-190h30c1 10-1 24 2 32 11-22 29-35 61-36" id="aO"/><path fill="#3a414a" d="M24 0v-261h32V0H24" id="aP"/><path fill="#3a414a" d="M179-190L93 31C79 59 56 82 12 73V49c39 6 53-20 64-50L1-190h34L92-34l54-156h33" id="aQ"/><g id="b"><use transform="matrix(0.06234567901234567,0,0,0.06234567901234567,0,0)" xlink:href="#aK"/><use transform="matrix(0.06234567901234567,0,0,0.06234567901234567,12.469135802469133,0)" xlink:href="#aO"/><use transform="matrix(0.06234567901234567,0,0,0.06234567901234567,24.938271604938265,0)" xlink:href="#aP"/><use transform="matrix(0.06234567901234567,0,0,0.06234567901234567,29.86358024691357,0)" xlink:href="#aQ"/></g><path fill="#3a414a" d="M24-231v-30h32v30H24zM24 0v-190h32V0H24" id="aR"/><path fill="#3a414a" d="M101-234c-31-9-42 10-38 44h38v23H63V0H32v-167H5v-23h27c-7-52 17-82 69-68v24" id="aS"/><g id="c"><use transform="matrix(0.06234567901234567,0,0,0.06234567901234567,0,0)" xlink:href="#aR"/><use transform="matrix(0.06234567901234567,0,0,0.06234567901234567,4.925308641975308,0)" xlink:href="#aS"/></g><path fill="#3a414a" d="M84 4C-5 8 30-112 23-190h32v120c0 31 7 50 39 49 72-2 45-101 50-169h31l1 190h-30c-1-10 1-25-2-33-11 22-28 36-60 37" id="aT"/><g id="d"><use transform="matrix(0.06234567901234567,0,0,0.06234567901234567,0,0)" xlink:href="#aQ"/><use transform="matrix(0.06234567901234567,0,0,0.06234567901234567,11.22222222222222,0)" xlink:href="#aK"/><use transform="matrix(0.06234567901234567,0,0,0.06234567901234567,23.691358024691354,0)" xlink:href="#aT"/></g><path fill="#3a414a" d="M141-36C126-15 110 5 73 4 37 3 15-17 15-53c-1-64 63-63 125-63 3-35-9-54-41-54-24 1-41 7-42 31l-33-3c5-37 33-52 76-52 45 0 72 20 72 64v82c-1 20 7 32 28 27v20c-31 9-61-2-59-35zM48-53c0 20 12 33 32 33 41-3 63-29 60-74-43 2-92-5-92 41" id="aU"/><g id="e"><use transform="matrix(0.06234567901234567,0,0,0.06234567901234567,0,0)" xlink:href="#aU"/><use transform="matrix(0.06234567901234567,0,0,0.06234567901234567,12.469135802469133,0)" xlink:href="#aJ"/><use transform="matrix(0.06234567901234567,0,0,0.06234567901234567,19.888271604938268,0)" xlink:href="#aM"/></g><path fill="#3a414a" d="M135-143c-3-34-86-38-87 0 15 53 115 12 119 90S17 21 10-45l28-5c4 36 97 45 98 0-10-56-113-15-118-90-4-57 82-63 122-42 12 7 21 19 24 35" id="aV"/><path fill="#3a414a" d="M59-47c-2 24 18 29 38 22v24C64 9 27 4 27-40v-127H5v-23h24l9-43h21v43h35v23H59v120" id="aW"/><g id="f"><use transform="matrix(0.06234567901234567,0,0,0.06234567901234567,0,0)" xlink:href="#aV"/><use transform="matrix(0.06234567901234567,0,0,0.06234567901234567,11.22222222222222,0)" xlink:href="#aM"/><use transform="matrix(0.06234567901234567,0,0,0.06234567901234567,23.691358024691354,0)" xlink:href="#aP"/><use transform="matrix(0.06234567901234567,0,0,0.06234567901234567,28.61666666666666,0)" xlink:href="#aM"/><use transform="matrix(0.06234567901234567,0,0,0.06234567901234567,41.08580246913579,0)" xlink:href="#aL"/><use transform="matrix(0.06234567901234567,0,0,0.06234567901234567,52.308024691358014,0)" xlink:href="#aW"/><use transform="matrix(0.06234567901234567,0,0,0.06234567901234567,58.542592592592584,0)" xlink:href="#aM"/><use transform="matrix(0.06234567901234567,0,0,0.06234567901234567,71.01172839506171,0)" xlink:href="#aN"/></g><path fill="#3a414a" d="M33 0v-248h34V0H33" id="aX"/><g id="g"><use transform="matrix(0.06234567901234567,0,0,0.06234567901234567,0,0)" xlink:href="#aX"/><use transform="matrix(0.06234567901234567,0,0,0.06234567901234567,6.234567901234566,0)" xlink:href="#aO"/><use transform="matrix(0.06234567901234567,0,0,0.06234567901234567,18.7037037037037,0)" xlink:href="#aV"/><use transform="matrix(0.06234567901234567,0,0,0.06234567901234567,29.925925925925917,0)" xlink:href="#aW"/><use transform="matrix(0.06234567901234567,0,0,0.06234567901234567,36.16049382716048,0)" xlink:href="#aU"/><use transform="matrix(0.06234567901234567,0,0,0.06234567901234567,48.62962962962961,0)" xlink:href="#aP"/><use transform="matrix(0.06234567901234567,0,0,0.06234567901234567,53.55493827160492,0)" xlink:href="#aP"/></g><g id="h"><use transform="matrix(0.06234567901234567,0,0,0.06234567901234567,0,0)" xlink:href="#aI"/><use transform="matrix(0.06234567901234567,0,0,0.06234567901234567,14.96296296296296,0)" xlink:href="#aM"/><use transform="matrix(0.06234567901234567,0,0,0.06234567901234567,27.432098765432094,0)" xlink:href="#aW"/><use transform="matrix(0.06234567901234567,0,0,0.06234567901234567,33.66666666666666,0)" xlink:href="#aJ"/><use transform="matrix(0.06234567901234567,0,0,0.06234567901234567,41.08580246913579,0)" xlink:href="#aU"/></g><path fill="#3a414a" d="M87 75C49 33 22-17 22-94c0-76 28-126 65-167h31c-38 41-64 92-64 168S80 34 118 75H87" id="aY"/><path fill="#3a414a" d="M205 0l-28-72H64L36 0H1l101-248h38L239 0h-34zm-38-99l-47-123c-12 45-31 82-46 123h93" id="aZ"/><path fill="#3a414a" d="M115-194c55 1 70 41 70 98S169 2 115 4C84 4 66-9 55-30l1 105H24l-1-265h31l2 30c10-21 28-34 59-34zm-8 174c40 0 45-34 45-75s-6-73-45-74c-42 0-51 32-51 76 0 43 10 73 51 73" id="ba"/><g id="i"><use transform="matrix(0.06234567901234567,0,0,0.06234567901234567,0,0)" xlink:href="#aY"/><use transform="matrix(0.06234567901234567,0,0,0.06234567901234567,7.4191358024691345,0)" xlink:href="#aZ"/><use transform="matrix(0.06234567901234567,0,0,0.06234567901234567,22.382098765432094,0)" xlink:href="#ba"/><use transform="matrix(0.06234567901234567,0,0,0.06234567901234567,34.85123456790123,0)" xlink:href="#aW"/><use transform="matrix(0.06234567901234567,0,0,0.06234567901234567,41.0858024691358,0)" xlink:href="#aK"/><use transform="matrix(0.06234567901234567,0,0,0.06234567901234567,53.55493827160493,0)" xlink:href="#aV"/></g><path fill="#3a414a" d="M266 0h-40l-56-210L115 0H75L2-248h35L96-30l15-64 43-154h32l59 218 59-218h35" id="bb"/><path fill="#3a414a" d="M33-261c38 41 65 92 65 168S71 34 33 75H2C39 34 66-17 66-93S39-220 2-261h31" id="bc"/><g id="j"><use transform="matrix(0.06234567901234567,0,0,0.06234567901234567,0,0)" xlink:href="#bb"/><use transform="matrix(0.06234567901234567,0,0,0.06234567901234567,20.32469135802469,0)" xlink:href="#aU"/><use transform="matrix(0.06234567901234567,0,0,0.06234567901234567,32.79382716049382,0)" xlink:href="#aP"/><use transform="matrix(0.06234567901234567,0,0,0.06234567901234567,37.719135802469125,0)" xlink:href="#aP"/><use transform="matrix(0.06234567901234567,0,0,0.06234567901234567,42.64444444444443,0)" xlink:href="#aM"/><use transform="matrix(0.06234567901234567,0,0,0.06234567901234567,55.113580246913564,0)" xlink:href="#aW"/><use transform="matrix(0.06234567901234567,0,0,0.06234567901234567,61.34814814814813,0)" xlink:href="#bc"/></g><path fill="#3a414a" d="M141 0L90-78 38 0H4l68-98-65-92h35l48 74 47-74h35l-64 92 68 98h-35" id="bd"/><g id="k"><use transform="matrix(0.06234567901234567,0,0,0.06234567901234567,0,0)" xlink:href="#aM"/><use transform="matrix(0.06234567901234567,0,0,0.06234567901234567,12.469135802469133,0)" xlink:href="#bd"/><use transform="matrix(0.06234567901234567,0,0,0.06234567901234567,23.691358024691354,0)" xlink:href="#aW"/><use transform="matrix(0.06234567901234567,0,0,0.06234567901234567,29.92592592592592,0)" xlink:href="#aM"/><use transform="matrix(0.06234567901234567,0,0,0.06234567901234567,42.39506172839505,0)" xlink:href="#aO"/><use transform="matrix(0.06234567901234567,0,0,0.06234567901234567,54.86419753086418,0)" xlink:href="#aV"/><use transform="matrix(0.06234567901234567,0,0,0.06234567901234567,66.0864197530864,0)" xlink:href="#aR"/><use transform="matrix(0.06234567901234567,0,0,0.06234567901234567,71.01172839506171,0)" xlink:href="#aK"/><use transform="matrix(0.06234567901234567,0,0,0.06234567901234567,83.48086419753085,0)" xlink:href="#aO"/></g><g id="l"><use transform="matrix(0.06234567901234567,0,0,0.06234567901234567,0,0)" xlink:href="#aS"/><use transform="matrix(0.06234567901234567,0,0,0.06234567901234567,6.234567901234566,0)" xlink:href="#aK"/><use transform="matrix(0.06234567901234567,0,0,0.06234567901234567,18.7037037037037,0)" xlink:href="#aJ"/></g><path fill="#3a414a" d="M212-179c-10-28-35-45-73-45-59 0-87 40-87 99 0 60 29 101 89 101 43 0 62-24 78-52l27 14C228-24 195 4 139 4 59 4 22-46 18-125c-6-104 99-153 187-111 19 9 31 26 39 46" id="be"/><path fill="#3a414a" d="M106-169C34-169 62-67 57 0H25v-261h32l-1 103c12-21 28-36 61-36 89 0 53 116 60 194h-32v-121c2-32-8-49-39-48" id="bf"/><path fill="#3a414a" d="M210-169c-67 3-38 105-44 169h-31v-121c0-29-5-50-35-48C34-165 62-65 56 0H25l-1-190h30c1 10-1 24 2 32 10-44 99-50 107 0 11-21 27-35 58-36 85-2 47 119 55 194h-31v-121c0-29-5-49-35-48" id="bg"/><g id="m"><use transform="matrix(0.06234567901234567,0,0,0.06234567901234567,0,0)" xlink:href="#be"/><use transform="matrix(0.06234567901234567,0,0,0.06234567901234567,16.147530864197527,0)" xlink:href="#bf"/><use transform="matrix(0.06234567901234567,0,0,0.06234567901234567,28.61666666666666,0)" xlink:href="#aJ"/><use transform="matrix(0.06234567901234567,0,0,0.06234567901234567,36.035802469135795,0)" xlink:href="#aK"/><use transform="matrix(0.06234567901234567,0,0,0.06234567901234567,48.50493827160493,0)" xlink:href="#bg"/><use transform="matrix(0.06234567901234567,0,0,0.06234567901234567,67.14629629629628,0)" xlink:href="#aM"/></g><path fill="#3a414a" d="M185-189c-5-48-123-54-124 2 14 75 158 14 163 119 3 78-121 87-175 55-17-10-28-26-33-46l33-7c5 56 141 63 141-1 0-78-155-14-162-118-5-82 145-84 179-34 5 7 8 16 11 25" id="bh"/><g id="n"><use transform="matrix(0.06234567901234567,0,0,0.06234567901234567,0,0)" xlink:href="#bh"/><use transform="matrix(0.06234567901234567,0,0,0.06234567901234567,14.96296296296296,0)" xlink:href="#aM"/><use transform="matrix(0.06234567901234567,0,0,0.06234567901234567,27.432098765432094,0)" xlink:href="#aP"/><use transform="matrix(0.06234567901234567,0,0,0.06234567901234567,32.3574074074074,0)" xlink:href="#aM"/><use transform="matrix(0.06234567901234567,0,0,0.06234567901234567,44.82654320987653,0)" xlink:href="#aL"/><use transform="matrix(0.06234567901234567,0,0,0.06234567901234567,56.048765432098755,0)" xlink:href="#aW"/></g><path fill="#3a414a" d="M199 0l-22-63H83L61 0H9l90-248h61L250 0h-51zm-33-102l-36-108c-10 38-24 72-36 108h72" id="bi"/><path fill="#3a414a" d="M24 0v-248h52V0H24" id="bj"/><path fill="#3a414a" d="M136-208V0H84v-208H4v-40h212v40h-80" id="bk"/><path fill="#3a414a" d="M14-72v-43h91v43H14" id="bl"/><path fill="#3a414a" d="M128-127c34 4 56 21 59 58 7 91-148 94-172 28-4-9-6-17-7-26l51-5c1 24 16 35 40 36 23 0 39-12 38-36-1-31-31-36-65-34v-40c32 2 59-3 59-33 0-20-13-33-34-33s-33 13-35 32l-50-3c6-44 37-68 86-68 50 0 83 20 83 66 0 35-22 52-53 58" id="bm"/><g id="o"><use transform="matrix(0.06234567901234567,0,0,0.06234567901234567,0,0)" xlink:href="#bi"/><use transform="matrix(0.06234567901234567,0,0,0.06234567901234567,16.147530864197527,0)" xlink:href="#bj"/><use transform="matrix(0.06234567901234567,0,0,0.06234567901234567,22.382098765432094,0)" xlink:href="#bk"/><use transform="matrix(0.06234567901234567,0,0,0.06234567901234567,34.78888888888888,0)" xlink:href="#bl"/><use transform="matrix(0.06234567901234567,0,0,0.06234567901234567,42.20802469135801,0)" xlink:href="#bm"/></g><g id="p"><use transform="matrix(0.06234567901234567,0,0,0.06234567901234567,0,0)" xlink:href="#aR"/><use transform="matrix(0.06234567901234567,0,0,0.06234567901234567,4.925308641975308,0)" xlink:href="#aO"/></g><g id="q"><use transform="matrix(0.06234567901234567,0,0,0.06234567901234567,0,0)" xlink:href="#aW"/><use transform="matrix(0.06234567901234567,0,0,0.06234567901234567,6.234567901234566,0)" xlink:href="#bf"/><use transform="matrix(0.06234567901234567,0,0,0.06234567901234567,18.7037037037037,0)" xlink:href="#aM"/></g><path fill="#3a414a" d="M177-190C167-65 218 103 67 71c-23-6-38-20-44-43l32-5c15 47 100 32 89-28v-30C133-14 115 1 83 1 29 1 15-40 15-95c0-56 16-97 71-98 29-1 48 16 59 35 1-10 0-23 2-32h30zM94-22c36 0 50-32 50-73 0-42-14-75-50-75-39 0-46 34-46 75s6 73 46 73" id="bn"/><g id="r"><use transform="matrix(0.06234567901234567,0,0,0.06234567901234567,0,0)" xlink:href="#bh"/><use transform="matrix(0.06234567901234567,0,0,0.06234567901234567,14.96296296296296,0)" xlink:href="#aM"/><use transform="matrix(0.06234567901234567,0,0,0.06234567901234567,27.432098765432094,0)" xlink:href="#aW"/><use transform="matrix(0.06234567901234567,0,0,0.06234567901234567,33.66666666666666,0)" xlink:href="#aW"/><use transform="matrix(0.06234567901234567,0,0,0.06234567901234567,39.90123456790123,0)" xlink:href="#aR"/><use transform="matrix(0.06234567901234567,0,0,0.06234567901234567,44.82654320987653,0)" xlink:href="#aO"/><use transform="matrix(0.06234567901234567,0,0,0.06234567901234567,57.295679012345666,0)" xlink:href="#bn"/><use transform="matrix(0.06234567901234567,0,0,0.06234567901234567,69.7648148148148,0)" xlink:href="#aV"/></g><path fill="#3a414a" d="M18-27v-27l151-64-151-65v-27l175 74v36" id="bo"/><use transform="matrix(0.06234567901234567,0,0,0.06234567901234567,0,0)" xlink:href="#bo" id="s"/><path fill="#3a414a" d="M190 0L58-211 59 0H30v-248h39L202-35l-2-213h31V0h-41" id="bp"/><path fill="#3a414a" d="M206 0h-36l-40-164L89 0H53L-1-190h32L70-26l43-164h34l41 164 42-164h31" id="bq"/><path fill="#3a414a" d="M143 0L79-87 56-68V0H24v-261h32v163l83-92h37l-77 82L181 0h-38" id="br"/><g id="t"><use transform="matrix(0.06234567901234567,0,0,0.06234567901234567,0,0)" xlink:href="#bp"/><use transform="matrix(0.06234567901234567,0,0,0.06234567901234567,16.147530864197527,0)" xlink:href="#aM"/><use transform="matrix(0.06234567901234567,0,0,0.06234567901234567,28.61666666666666,0)" xlink:href="#aW"/><use transform="matrix(0.06234567901234567,0,0,0.06234567901234567,34.85123456790123,0)" xlink:href="#bq"/><use transform="matrix(0.06234567901234567,0,0,0.06234567901234567,50.99876543209876,0)" xlink:href="#aK"/><use transform="matrix(0.06234567901234567,0,0,0.06234567901234567,63.46790123456789,0)" xlink:href="#aJ"/><use transform="matrix(0.06234567901234567,0,0,0.06234567901234567,70.88703703703702,0)" xlink:href="#br"/></g><g id="u"><use transform="matrix(0.06234567901234567,0,0,0.06234567901234567,0,0)" xlink:href="#aV"/><use transform="matrix(0.06234567901234567,0,0,0.06234567901234567,11.22222222222222,0)" xlink:href="#aM"/><use transform="matrix(0.06234567901234567,0,0,0.06234567901234567,23.691358024691354,0)" xlink:href="#aL"/><use transform="matrix(0.06234567901234567,0,0,0.06234567901234567,34.913580246913575,0)" xlink:href="#aW"/><use transform="matrix(0.06234567901234567,0,0,0.06234567901234567,41.14814814814814,0)" xlink:href="#aR"/><use transform="matrix(0.06234567901234567,0,0,0.06234567901234567,46.073456790123444,0)" xlink:href="#aK"/><use transform="matrix(0.06234567901234567,0,0,0.06234567901234567,58.54259259259258,0)" xlink:href="#aO"/></g><g id="v"><use transform="matrix(0.06234567901234567,0,0,0.06234567901234567,0,0)" xlink:href="#aK"/><use transform="matrix(0.06234567901234567,0,0,0.06234567901234567,12.469135802469133,0)" xlink:href="#aS"/></g><g id="w"><use transform="matrix(0.06234567901234567,0,0,0.06234567901234567,0,0)" xlink:href="#aW"/><use transform="matrix(0.06234567901234567,0,0,0.06234567901234567,6.234567901234566,0)" xlink:href="#bf"/><use transform="matrix(0.06234567901234567,0,0,0.06234567901234567,18.7037037037037,0)" xlink:href="#aM"/></g><g id="x"><use transform="matrix(0.06234567901234567,0,0,0.06234567901234567,0,0)" xlink:href="#bb"/><use transform="matrix(0.06234567901234567,0,0,0.06234567901234567,20.32469135802469,0)" xlink:href="#aU"/><use transform="matrix(0.06234567901234567,0,0,0.06234567901234567,32.79382716049382,0)" xlink:href="#aP"/><use transform="matrix(0.06234567901234567,0,0,0.06234567901234567,37.719135802469125,0)" xlink:href="#aP"/><use transform="matrix(0.06234567901234567,0,0,0.06234567901234567,42.64444444444443,0)" xlink:href="#aM"/><use transform="matrix(0.06234567901234567,0,0,0.06234567901234567,55.113580246913564,0)" xlink:href="#aW"/></g><path fill="#5d646f" d="M24 0v-248h52V0H24" id="bs"/><path fill="#5d646f" d="M135-194c87-1 58 113 63 194h-50c-7-57 23-157-34-157-59 0-34 97-39 157H25l-1-190h47c2 12-1 28 3 38 12-26 28-41 61-42" id="bt"/><path fill="#5d646f" d="M137-138c1-29-70-34-71-4 15 46 118 7 119 86 1 83-164 76-172 9l43-7c4 19 20 25 44 25 33 8 57-30 24-41C81-84 22-81 20-136c-2-80 154-74 161-7" id="bu"/><path fill="#5d646f" d="M115-3C79 11 28 4 28-45v-112H4v-33h27l15-45h31v45h36v33H77v99c-1 23 16 31 38 25v30" id="bv"/><path fill="#5d646f" d="M133-34C117-15 103 5 69 4 32 3 11-16 11-54c-1-60 55-63 116-61 1-26-3-47-28-47-18 1-26 9-28 27l-52-2c7-38 36-58 82-57s74 22 75 68l1 82c-1 14 12 18 25 15v27c-30 8-71 5-69-32zm-48 3c29 0 43-24 42-57-32 0-66-3-65 30 0 17 8 27 23 27" id="bw"/><path fill="#5d646f" d="M25 0v-261h50V0H25" id="bx"/><g id="y"><use transform="matrix(0.06790123456790123,0,0,0.06790123456790123,0,0)" xlink:href="#bs"/><use transform="matrix(0.06790123456790123,0,0,0.06790123456790123,6.790123456790123,0)" xlink:href="#bt"/><use transform="matrix(0.06790123456790123,0,0,0.06790123456790123,21.660493827160494,0)" xlink:href="#bu"/><use transform="matrix(0.06790123456790123,0,0,0.06790123456790123,35.24074074074074,0)" xlink:href="#bv"/><use transform="matrix(0.06790123456790123,0,0,0.06790123456790123,43.32098765432099,0)" xlink:href="#bw"/><use transform="matrix(0.06790123456790123,0,0,0.06790123456790123,56.901234567901234,0)" xlink:href="#bx"/><use transform="matrix(0.06790123456790123,0,0,0.06790123456790123,63.691358024691354,0)" xlink:href="#bx"/></g><path fill="#5d646f" d="M24-248c93 1 206-16 204 79-1 75-69 88-152 82V0H24v-248zm52 121c47 0 100 7 100-41 0-47-54-39-100-39v80" id="by"/><path fill="#5d646f" d="M185-48c-13 30-37 53-82 52C43 2 14-33 14-96s30-98 90-98c62 0 83 45 84 108H66c0 31 8 55 39 56 18 0 30-7 34-22zm-45-69c5-46-57-63-70-21-2 6-4 13-4 21h74" id="bz"/><path fill="#5d646f" d="M135-150c-39-12-60 13-60 57V0H25l-1-190h47c2 13-1 29 3 40 6-28 27-53 61-41v41" id="bA"/><g id="z"><use transform="matrix(0.06790123456790123,0,0,0.06790123456790123,0,0)" xlink:href="#by"/><use transform="matrix(0.06790123456790123,0,0,0.06790123456790123,16.296296296296294,0)" xlink:href="#bz"/><use transform="matrix(0.06790123456790123,0,0,0.06790123456790123,29.87654320987654,0)" xlink:href="#bv"/><use transform="matrix(0.06790123456790123,0,0,0.06790123456790123,37.95679012345679,0)" xlink:href="#bA"/><use transform="matrix(0.06790123456790123,0,0,0.06790123456790123,47.462962962962955,0)" xlink:href="#bw"/></g><path fill="#5d646f" d="M67-93c0 74 22 123 53 168H70C40 30 18-18 18-93s22-123 52-168h50c-32 44-53 94-53 168" id="bB"/><path fill="#5d646f" d="M199 0l-22-63H83L61 0H9l90-248h61L250 0h-51zm-33-102l-36-108c-10 38-24 72-36 108h72" id="bC"/><path fill="#5d646f" d="M135-194c53 0 70 44 70 98 0 56-19 98-73 100-31 1-45-17-59-34 3 33 2 69 2 105H25l-1-265h48c2 10 0 23 3 31 11-24 29-35 60-35zM114-30c33 0 39-31 40-66 0-38-9-64-40-64-56 0-55 130 0 130" id="bD"/><path fill="#5d646f" d="M110-194c64 0 96 36 96 99 0 64-35 99-97 99-61 0-95-36-95-99 0-62 34-99 96-99zm-1 164c35 0 45-28 45-65 0-40-10-65-43-65-34 0-45 26-45 65 0 36 10 65 43 65" id="bE"/><g id="A"><use transform="matrix(0.06790123456790123,0,0,0.06790123456790123,0,0)" xlink:href="#bB"/><use transform="matrix(0.06790123456790123,0,0,0.06790123456790123,8.080246913580247,0)" xlink:href="#bC"/><use transform="matrix(0.06790123456790123,0,0,0.06790123456790123,25.666666666666664,0)" xlink:href="#bD"/><use transform="matrix(0.06790123456790123,0,0,0.06790123456790123,40.53703703703704,0)" xlink:href="#bv"/><use transform="matrix(0.06790123456790123,0,0,0.06790123456790123,48.61728395061728,0)" xlink:href="#bE"/><use transform="matrix(0.06790123456790123,0,0,0.06790123456790123,63.48765432098766,0)" xlink:href="#bu"/></g><path fill="#5d646f" d="M275 0h-61l-44-196L126 0H64L0-248h53L97-49l45-199h58l43 199 44-199h52" id="bF"/><path fill="#5d646f" d="M102-93c0 74-22 123-52 168H0C30 29 54-18 53-93c0-74-22-123-53-168h50c30 45 52 94 52 168" id="bG"/><g id="B"><use transform="matrix(0.06790123456790123,0,0,0.06790123456790123,0,0)" xlink:href="#bF"/><use transform="matrix(0.06790123456790123,0,0,0.06790123456790123,22.1358024691358,0)" xlink:href="#bw"/><use transform="matrix(0.06790123456790123,0,0,0.06790123456790123,35.71604938271605,0)" xlink:href="#bx"/><use transform="matrix(0.06790123456790123,0,0,0.06790123456790123,42.50617283950618,0)" xlink:href="#bx"/><use transform="matrix(0.06790123456790123,0,0,0.06790123456790123,49.296296296296305,0)" xlink:href="#bz"/><use transform="matrix(0.06790123456790123,0,0,0.06790123456790123,62.87654320987656,0)" xlink:href="#bv"/><use transform="matrix(0.06790123456790123,0,0,0.06790123456790123,70.9567901234568,0)" xlink:href="#bG"/></g><path fill="#5d646f" d="M88-194c31-1 46 15 58 34l-1-101h50l1 261h-48c-2-10 0-23-3-31C134-8 116 4 84 4 32 4 16-41 15-95c0-56 19-97 73-99zm17 164c33 0 40-30 41-66 1-37-9-64-41-64s-38 30-39 65c0 43 13 65 39 65" id="bH"/><g id="C"><use transform="matrix(0.06790123456790123,0,0,0.06790123456790123,0,0)" xlink:href="#bw"/><use transform="matrix(0.06790123456790123,0,0,0.06790123456790123,13.580246913580247,0)" xlink:href="#bt"/><use transform="matrix(0.06790123456790123,0,0,0.06790123456790123,28.450617283950617,0)" xlink:href="#bH"/></g><path fill="#5d646f" d="M169-182c-1-43-94-46-97-3 18 66 151 10 154 114 3 95-165 93-204 36-6-8-10-19-12-30l50-8c3 46 112 56 116 5-17-69-150-10-154-114-4-87 153-88 188-35 5 8 8 18 10 28" id="bI"/><path fill="#5d646f" d="M147 0L96-86 75-71V0H25v-261h50v150l67-79h53l-66 74L201 0h-54" id="bJ"/><g id="D"><use transform="matrix(0.06790123456790123,0,0,0.06790123456790123,0,0)" xlink:href="#bI"/><use transform="matrix(0.06790123456790123,0,0,0.06790123456790123,16.296296296296294,0)" xlink:href="#bv"/><use transform="matrix(0.06790123456790123,0,0,0.06790123456790123,24.37654320987654,0)" xlink:href="#bw"/><use transform="matrix(0.06790123456790123,0,0,0.06790123456790123,37.95679012345679,0)" xlink:href="#bJ"/><use transform="matrix(0.06790123456790123,0,0,0.06790123456790123,51.53703703703703,0)" xlink:href="#bz"/></g><g id="E"><use transform="matrix(0.06234567901234567,0,0,0.06234567901234567,0,0)" xlink:href="#be"/><use transform="matrix(0.06234567901234567,0,0,0.06234567901234567,16.147530864197527,0)" xlink:href="#aJ"/><use transform="matrix(0.06234567901234567,0,0,0.06234567901234567,23.566666666666663,0)" xlink:href="#aM"/><use transform="matrix(0.06234567901234567,0,0,0.06234567901234567,36.035802469135795,0)" xlink:href="#aU"/><use transform="matrix(0.06234567901234567,0,0,0.06234567901234567,48.50493827160493,0)" xlink:href="#aW"/><use transform="matrix(0.06234567901234567,0,0,0.06234567901234567,54.7395061728395,0)" xlink:href="#aM"/></g><g id="F"><use transform="matrix(0.06234567901234567,0,0,0.06234567901234567,0,0)" xlink:href="#aS"/><use transform="matrix(0.06234567901234567,0,0,0.06234567901234567,6.234567901234566,0)" xlink:href="#aR"/><use transform="matrix(0.06234567901234567,0,0,0.06234567901234567,11.159876543209874,0)" xlink:href="#aJ"/><use transform="matrix(0.06234567901234567,0,0,0.06234567901234567,18.579012345679008,0)" xlink:href="#aV"/><use transform="matrix(0.06234567901234567,0,0,0.06234567901234567,29.801234567901226,0)" xlink:href="#aW"/></g><path fill="#3a414a" d="M33 0v-38h34V0H33" id="bK"/><g id="G"><use transform="matrix(0.06234567901234567,0,0,0.06234567901234567,0,0)" xlink:href="#bq"/><use transform="matrix(0.06234567901234567,0,0,0.06234567901234567,16.147530864197527,0)" xlink:href="#aU"/><use transform="matrix(0.06234567901234567,0,0,0.06234567901234567,28.61666666666666,0)" xlink:href="#aP"/><use transform="matrix(0.06234567901234567,0,0,0.06234567901234567,33.541975308641966,0)" xlink:href="#aP"/><use transform="matrix(0.06234567901234567,0,0,0.06234567901234567,38.46728395061727,0)" xlink:href="#aM"/><use transform="matrix(0.06234567901234567,0,0,0.06234567901234567,50.936419753086405,0)" xlink:href="#aW"/><use transform="matrix(0.06234567901234567,0,0,0.06234567901234567,57.17098765432097,0)" xlink:href="#bK"/></g><path fill="#3a414a" d="M127-220V0H93v-220H8v-28h204v28h-85" id="bL"/><g id="H"><use transform="matrix(0.06234567901234567,0,0,0.06234567901234567,0,0)" xlink:href="#bL"/><use transform="matrix(0.06234567901234567,0,0,0.06234567901234567,13.653703703703702,0)" xlink:href="#bf"/><use transform="matrix(0.06234567901234567,0,0,0.06234567901234567,26.122839506172834,0)" xlink:href="#aR"/><use transform="matrix(0.06234567901234567,0,0,0.06234567901234567,31.048148148148144,0)" xlink:href="#aV"/></g><g id="I"><use transform="matrix(0.06234567901234567,0,0,0.06234567901234567,0,0)" xlink:href="#bq"/><use transform="matrix(0.06234567901234567,0,0,0.06234567901234567,16.147530864197527,0)" xlink:href="#aR"/><use transform="matrix(0.06234567901234567,0,0,0.06234567901234567,21.072839506172834,0)" xlink:href="#aP"/><use transform="matrix(0.06234567901234567,0,0,0.06234567901234567,25.99814814814814,0)" xlink:href="#aP"/></g><path fill="#3a414a" d="M115-194c53 0 69 39 70 98 0 66-23 100-70 100C84 3 66-7 56-30L54 0H23l1-261h32v101c10-23 28-34 59-34zm-8 174c40 0 45-34 45-75 0-40-5-75-45-74-42 0-51 32-51 76 0 43 10 73 51 73" id="bM"/><g id="J"><use transform="matrix(0.06234567901234567,0,0,0.06234567901234567,0,0)" xlink:href="#bM"/><use transform="matrix(0.06234567901234567,0,0,0.06234567901234567,12.469135802469133,0)" xlink:href="#aM"/></g><path fill="#3a414a" d="M110-194c64 0 96 36 96 99 0 64-35 99-97 99-61 0-95-36-95-99 0-62 34-99 96-99zm-1 164c35 0 45-28 45-65 0-40-10-65-43-65-34 0-45 26-45 65 0 36 10 65 43 65" id="bN"/><path fill="#3a414a" d="M231 0h-52l-39-155L100 0H48L-1-190h46L77-45c9-52 24-97 36-145h53l37 145 32-145h46" id="bO"/><path fill="#3a414a" d="M135-194c87-1 58 113 63 194h-50c-7-57 23-157-34-157-59 0-34 97-39 157H25l-1-190h47c2 12-1 28 3 38 12-26 28-41 61-42" id="bP"/><path fill="#3a414a" d="M185-48c-13 30-37 53-82 52C43 2 14-33 14-96s30-98 90-98c62 0 83 45 84 108H66c0 31 8 55 39 56 18 0 30-7 34-22zm-45-69c5-46-57-63-70-21-2 6-4 13-4 21h74" id="bQ"/><path fill="#3a414a" d="M135-150c-39-12-60 13-60 57V0H25l-1-190h47c2 13-1 29 3 40 6-28 27-53 61-41v41" id="bR"/><g id="K"><use transform="matrix(0.06234567901234567,0,0,0.06234567901234567,0,0)" xlink:href="#bN"/><use transform="matrix(0.06234567901234567,0,0,0.06234567901234567,13.653703703703702,0)" xlink:href="#bO"/><use transform="matrix(0.06234567901234567,0,0,0.06234567901234567,31.11049382716049,0)" xlink:href="#bP"/><use transform="matrix(0.06234567901234567,0,0,0.06234567901234567,44.764197530864195,0)" xlink:href="#bQ"/><use transform="matrix(0.06234567901234567,0,0,0.06234567901234567,57.23333333333333,0)" xlink:href="#bR"/></g><g id="L"><use transform="matrix(0.06234567901234567,0,0,0.06234567901234567,0,0)" xlink:href="#bq"/><use transform="matrix(0.06234567901234567,0,0,0.06234567901234567,16.147530864197527,0)" xlink:href="#aU"/><use transform="matrix(0.06234567901234567,0,0,0.06234567901234567,28.61666666666666,0)" xlink:href="#aP"/><use transform="matrix(0.06234567901234567,0,0,0.06234567901234567,33.541975308641966,0)" xlink:href="#aP"/><use transform="matrix(0.06234567901234567,0,0,0.06234567901234567,38.46728395061727,0)" xlink:href="#aM"/><use transform="matrix(0.06234567901234567,0,0,0.06234567901234567,50.936419753086405,0)" xlink:href="#aW"/><use transform="matrix(0.06234567901234567,0,0,0.06234567901234567,57.17098765432097,0)" xlink:href="#bK"/></g><path fill="#3a414a" d="M137 0h-34L2-248h35l83 218 83-218h36" id="bS"/><g id="M"><use transform="matrix(0.06234567901234567,0,0,0.06234567901234567,0,0)" xlink:href="#bS"/><use transform="matrix(0.06234567901234567,0,0,0.06234567901234567,13.716049382716047,0)" xlink:href="#aM"/><use transform="matrix(0.06234567901234567,0,0,0.06234567901234567,26.18518518518518,0)" xlink:href="#aJ"/><use transform="matrix(0.06234567901234567,0,0,0.06234567901234567,33.60432098765431,0)" xlink:href="#aR"/><use transform="matrix(0.06234567901234567,0,0,0.06234567901234567,38.52962962962962,0)" xlink:href="#aS"/><use transform="matrix(0.06234567901234567,0,0,0.06234567901234567,44.76419753086418,0)" xlink:href="#aQ"/></g><g id="N"><use transform="matrix(0.06234567901234567,0,0,0.06234567901234567,0,0)" xlink:href="#aW"/><use transform="matrix(0.06234567901234567,0,0,0.06234567901234567,6.234567901234566,0)" xlink:href="#bf"/><use transform="matrix(0.06234567901234567,0,0,0.06234567901234567,18.7037037037037,0)" xlink:href="#aU"/><use transform="matrix(0.06234567901234567,0,0,0.06234567901234567,31.17283950617283,0)" xlink:href="#aW"/></g><g id="O"><use transform="matrix(0.06234567901234567,0,0,0.06234567901234567,0,0)" xlink:href="#aQ"/><use transform="matrix(0.06234567901234567,0,0,0.06234567901234567,11.22222222222222,0)" xlink:href="#aK"/><use transform="matrix(0.06234567901234567,0,0,0.06234567901234567,23.691358024691354,0)" xlink:href="#aT"/><use transform="matrix(0.06234567901234567,0,0,0.06234567901234567,36.16049382716049,0)" xlink:href="#aJ"/></g><g id="P"><use transform="matrix(0.06234567901234567,0,0,0.06234567901234567,0,0)" xlink:href="#aK"/><use transform="matrix(0.06234567901234567,0,0,0.06234567901234567,12.469135802469133,0)" xlink:href="#bq"/><use transform="matrix(0.06234567901234567,0,0,0.06234567901234567,28.61666666666666,0)" xlink:href="#aO"/><use transform="matrix(0.06234567901234567,0,0,0.06234567901234567,41.08580246913579,0)" xlink:href="#aM"/><use transform="matrix(0.06234567901234567,0,0,0.06234567901234567,53.554938271604925,0)" xlink:href="#aJ"/></g><g id="Q"><use transform="matrix(0.06234567901234567,0,0,0.06234567901234567,0,0)" xlink:href="#bq"/><use transform="matrix(0.06234567901234567,0,0,0.06234567901234567,16.147530864197527,0)" xlink:href="#aU"/><use transform="matrix(0.06234567901234567,0,0,0.06234567901234567,28.61666666666666,0)" xlink:href="#aP"/><use transform="matrix(0.06234567901234567,0,0,0.06234567901234567,33.541975308641966,0)" xlink:href="#aP"/><use transform="matrix(0.06234567901234567,0,0,0.06234567901234567,38.46728395061727,0)" xlink:href="#aM"/><use transform="matrix(0.06234567901234567,0,0,0.06234567901234567,50.936419753086405,0)" xlink:href="#aW"/></g><g id="R"><use transform="matrix(0.06234567901234567,0,0,0.06234567901234567,0,0)" xlink:href="#bf"/><use transform="matrix(0.06234567901234567,0,0,0.06234567901234567,12.469135802469133,0)" xlink:href="#aU"/><use transform="matrix(0.06234567901234567,0,0,0.06234567901234567,24.938271604938265,0)" xlink:href="#aV"/></g><g id="S"><use transform="matrix(0.06234567901234567,0,0,0.06234567901234567,0,0)" xlink:href="#aU"/><use transform="matrix(0.06234567901234567,0,0,0.06234567901234567,12.469135802469133,0)" xlink:href="#aR"/><use transform="matrix(0.06234567901234567,0,0,0.06234567901234567,17.39444444444444,0)" xlink:href="#aJ"/><use transform="matrix(0.06234567901234567,0,0,0.06234567901234567,24.813580246913574,0)" xlink:href="#aN"/><use transform="matrix(0.06234567901234567,0,0,0.06234567901234567,37.28271604938271,0)" xlink:href="#aJ"/><use transform="matrix(0.06234567901234567,0,0,0.06234567901234567,44.70185185185184,0)" xlink:href="#aK"/><use transform="matrix(0.06234567901234567,0,0,0.06234567901234567,57.170987654320975,0)" xlink:href="#ba"/><use transform="matrix(0.06234567901234567,0,0,0.06234567901234567,69.6401234567901,0)" xlink:href="#ba"/><use transform="matrix(0.06234567901234567,0,0,0.06234567901234567,82.10925925925923,0)" xlink:href="#aM"/><use transform="matrix(0.06234567901234567,0,0,0.06234567901234567,94.57839506172837,0)" xlink:href="#aN"/></g><g id="T"><use transform="matrix(0.06234567901234567,0,0,0.06234567901234567,0,0)" xlink:href="#aL"/><use transform="matrix(0.06234567901234567,0,0,0.06234567901234567,11.22222222222222,0)" xlink:href="#aK"/><use transform="matrix(0.06234567901234567,0,0,0.06234567901234567,23.691358024691354,0)" xlink:href="#aR"/><use transform="matrix(0.06234567901234567,0,0,0.06234567901234567,28.61666666666666,0)" xlink:href="#aO"/><use transform="matrix(0.06234567901234567,0,0,0.06234567901234567,41.08580246913579,0)" xlink:href="#aV"/></g><path fill="#3a414a" d="M233-177c-1 41-23 64-60 70L243 0h-38l-65-103H63V0H30v-248c88 3 205-21 203 71zM63-129c60-2 137 13 137-47 0-61-80-42-137-45v92" id="bT"/><g id="U"><use transform="matrix(0.06234567901234567,0,0,0.06234567901234567,0,0)" xlink:href="#bT"/><use transform="matrix(0.06234567901234567,0,0,0.06234567901234567,16.147530864197527,0)" xlink:href="#aM"/><use transform="matrix(0.06234567901234567,0,0,0.06234567901234567,28.61666666666666,0)" xlink:href="#bn"/><use transform="matrix(0.06234567901234567,0,0,0.06234567901234567,41.08580246913579,0)" xlink:href="#aR"/><use transform="matrix(0.06234567901234567,0,0,0.06234567901234567,46.0111111111111,0)" xlink:href="#aV"/><use transform="matrix(0.06234567901234567,0,0,0.06234567901234567,57.23333333333332,0)" xlink:href="#aW"/><use transform="matrix(0.06234567901234567,0,0,0.06234567901234567,63.46790123456789,0)" xlink:href="#aM"/><use transform="matrix(0.06234567901234567,0,0,0.06234567901234567,75.93703703703702,0)" xlink:href="#aJ"/></g><g id="V"><use transform="matrix(0.06234567901234567,0,0,0.06234567901234567,0,0)" xlink:href="#aK"/><use transform="matrix(0.06234567901234567,0,0,0.06234567901234567,12.469135802469133,0)" xlink:href="#bq"/><use transform="matrix(0.06234567901234567,0,0,0.06234567901234567,28.61666666666666,0)" xlink:href="#aO"/><use transform="matrix(0.06234567901234567,0,0,0.06234567901234567,41.08580246913579,0)" xlink:href="#aM"/><use transform="matrix(0.06234567901234567,0,0,0.06234567901234567,53.554938271604925,0)" xlink:href="#aJ"/></g><g id="W"><use transform="matrix(0.06234567901234567,0,0,0.06234567901234567,0,0)" xlink:href="#bq"/><use transform="matrix(0.06234567901234567,0,0,0.06234567901234567,16.147530864197527,0)" xlink:href="#aU"/><use transform="matrix(0.06234567901234567,0,0,0.06234567901234567,28.61666666666666,0)" xlink:href="#aP"/><use transform="matrix(0.06234567901234567,0,0,0.06234567901234567,33.541975308641966,0)" xlink:href="#aP"/><use transform="matrix(0.06234567901234567,0,0,0.06234567901234567,38.46728395061727,0)" xlink:href="#aM"/><use transform="matrix(0.06234567901234567,0,0,0.06234567901234567,50.936419753086405,0)" xlink:href="#aW"/></g><g id="X"><use transform="matrix(0.06234567901234567,0,0,0.06234567901234567,0,0)" xlink:href="#aU"/><use transform="matrix(0.06234567901234567,0,0,0.06234567901234567,12.469135802469133,0)" xlink:href="#aN"/><use transform="matrix(0.06234567901234567,0,0,0.06234567901234567,24.938271604938265,0)" xlink:href="#aN"/><use transform="matrix(0.06234567901234567,0,0,0.06234567901234567,37.4074074074074,0)" xlink:href="#aJ"/><use transform="matrix(0.06234567901234567,0,0,0.06234567901234567,44.82654320987653,0)" xlink:href="#aM"/><use transform="matrix(0.06234567901234567,0,0,0.06234567901234567,57.295679012345666,0)" xlink:href="#aV"/><use transform="matrix(0.06234567901234567,0,0,0.06234567901234567,68.51790123456789,0)" xlink:href="#aV"/></g><g id="Y"><use transform="matrix(0.06234567901234567,0,0,0.06234567901234567,0,0)" xlink:href="#aU"/><use transform="matrix(0.06234567901234567,0,0,0.06234567901234567,12.469135802469133,0)" xlink:href="#aW"/></g><g id="Z"><use transform="matrix(0.06234567901234567,0,0,0.06234567901234567,0,0)" xlink:href="#aZ"/><use transform="matrix(0.06234567901234567,0,0,0.06234567901234567,14.96296296296296,0)" xlink:href="#ba"/><use transform="matrix(0.06234567901234567,0,0,0.06234567901234567,27.432098765432094,0)" xlink:href="#aW"/><use transform="matrix(0.06234567901234567,0,0,0.06234567901234567,33.66666666666666,0)" xlink:href="#aK"/><use transform="matrix(0.06234567901234567,0,0,0.06234567901234567,46.13580246913579,0)" xlink:href="#aV"/></g><g id="aa"><use transform="matrix(0.06234567901234567,0,0,0.06234567901234567,0,0)" xlink:href="#be"/><use transform="matrix(0.06234567901234567,0,0,0.06234567901234567,16.147530864197527,0)" xlink:href="#aI"/></g><g id="ab"><use transform="matrix(0.06234567901234567,0,0,0.06234567901234567,0,0)" xlink:href="#aZ"/><use transform="matrix(0.06234567901234567,0,0,0.06234567901234567,14.96296296296296,0)" xlink:href="#ba"/><use transform="matrix(0.06234567901234567,0,0,0.06234567901234567,27.432098765432094,0)" xlink:href="#aW"/><use transform="matrix(0.06234567901234567,0,0,0.06234567901234567,33.66666666666666,0)" xlink:href="#aK"/><use transform="matrix(0.06234567901234567,0,0,0.06234567901234567,46.13580246913579,0)" xlink:href="#aV"/></g><g id="ac"><use transform="matrix(0.06234567901234567,0,0,0.06234567901234567,0,0)" xlink:href="#aU"/><use transform="matrix(0.06234567901234567,0,0,0.06234567901234567,12.469135802469133,0)" xlink:href="#aR"/><use transform="matrix(0.06234567901234567,0,0,0.06234567901234567,17.39444444444444,0)" xlink:href="#aJ"/><use transform="matrix(0.06234567901234567,0,0,0.06234567901234567,24.813580246913574,0)" xlink:href="#aN"/><use transform="matrix(0.06234567901234567,0,0,0.06234567901234567,37.28271604938271,0)" xlink:href="#aJ"/><use transform="matrix(0.06234567901234567,0,0,0.06234567901234567,44.70185185185184,0)" xlink:href="#aK"/><use transform="matrix(0.06234567901234567,0,0,0.06234567901234567,57.170987654320975,0)" xlink:href="#ba"/></g><g id="ad"><use transform="matrix(0.06234567901234567,0,0,0.06234567901234567,0,0)" xlink:href="#aL"/><use transform="matrix(0.06234567901234567,0,0,0.06234567901234567,11.22222222222222,0)" xlink:href="#aK"/><use transform="matrix(0.06234567901234567,0,0,0.06234567901234567,23.691358024691354,0)" xlink:href="#aR"/><use transform="matrix(0.06234567901234567,0,0,0.06234567901234567,28.61666666666666,0)" xlink:href="#aO"/><use transform="matrix(0.06234567901234567,0,0,0.06234567901234567,41.08580246913579,0)" xlink:href="#aV"/></g><g id="ae"><use transform="matrix(0.06234567901234567,0,0,0.06234567901234567,0,0)" xlink:href="#aW"/><use transform="matrix(0.06234567901234567,0,0,0.06234567901234567,6.234567901234566,0)" xlink:href="#aK"/></g><g id="af"><use transform="matrix(0.06234567901234567,0,0,0.06234567901234567,0,0)" xlink:href="#bq"/><use transform="matrix(0.06234567901234567,0,0,0.06234567901234567,16.147530864197527,0)" xlink:href="#aU"/><use transform="matrix(0.06234567901234567,0,0,0.06234567901234567,28.61666666666666,0)" xlink:href="#aP"/><use transform="matrix(0.06234567901234567,0,0,0.06234567901234567,33.541975308641966,0)" xlink:href="#aP"/><use transform="matrix(0.06234567901234567,0,0,0.06234567901234567,38.46728395061727,0)" xlink:href="#aM"/><use transform="matrix(0.06234567901234567,0,0,0.06234567901234567,50.936419753086405,0)" xlink:href="#aW"/></g><path fill="#008a0e" d="M155 0L90-199 52 0H6l48-248h62l66 201 38-201h46L218 0h-63" id="bU"/><path fill="#008a0e" d="M124-194c51 0 84 22 84 74C207-44 167 4 94 4 43 4 11-23 11-74c0-74 41-120 113-120zM99-30c46 0 58-42 58-86 0-27-11-44-37-44-44 0-55 40-57 84-1 27 10 45 36 46" id="bV"/><path fill="#008a0e" d="M72-63c-8 23 5 39 32 30L98-1C54 14 12-6 23-64l18-93H15l7-33h28l24-45h31l-8 45h35l-6 33H90" id="bW"/><path fill="#008a0e" d="M50-224l7-37h49l-7 37H50zM6 0l37-190h49L55 0H6" id="bX"/><path fill="#008a0e" d="M93-157L62 0H13l31-157H16l6-33h28c2-54 40-81 100-68l-6 32c-29-8-44 9-45 36h38l-7 33H93" id="bY"/><path fill="#008a0e" d="M67-101c-8 29-7 73 27 71 23-2 32-16 39-37l48 9C170-19 141 4 91 4 36 4 7-28 12-86c6-75 61-124 140-103 26 7 40 29 43 59l-50 4c-1-20-9-34-29-34-35 0-41 29-49 59" id="bZ"/><path fill="#008a0e" d="M166-52c-4 17 5 29 24 23l-3 27c-30 11-74 1-67-34C105-15 91 4 56 4 23 4 3-15 2-49c0-64 63-67 128-67 10-22 3-53-29-45-13 3-22 10-25 24l-46-5c5-64 156-77 153 0-1 33-11 60-17 90zM97-88c-44-9-64 57-19 57 31 0 42-28 47-57H97" id="ca"/><path fill="#008a0e" d="M151-194c95 0 34 128 28 194h-49l25-134c0-29-45-25-59-9C67-111 69-48 56 0H6l36-190h47l-4 32c15-20 33-36 66-36" id="cb"/><g id="ag"><use transform="matrix(0.05,0,0,0.05,0,0)" xlink:href="#bU"/><use transform="matrix(0.05,0,0,0.05,12.950000000000001,0)" xlink:href="#bV"/><use transform="matrix(0.05,0,0,0.05,23.900000000000002,0)" xlink:href="#bW"/><use transform="matrix(0.05,0,0,0.05,29.85,0)" xlink:href="#bX"/><use transform="matrix(0.05,0,0,0.05,34.85,0)" xlink:href="#bY"/><use transform="matrix(0.05,0,0,0.05,40.800000000000004,0)" xlink:href="#bX"/><use transform="matrix(0.05,0,0,0.05,45.800000000000004,0)" xlink:href="#bZ"/><use transform="matrix(0.05,0,0,0.05,55.800000000000004,0)" xlink:href="#ca"/><use transform="matrix(0.05,0,0,0.05,65.80000000000001,0)" xlink:href="#bW"/><use transform="matrix(0.05,0,0,0.05,71.75000000000001,0)" xlink:href="#bX"/><use transform="matrix(0.05,0,0,0.05,76.75000000000001,0)" xlink:href="#bV"/><use transform="matrix(0.05,0,0,0.05,87.70000000000002,0)" xlink:href="#cb"/></g><g id="ah"><use transform="matrix(0.05,0,0,0.05,0,0)" xlink:href="#bV"/><use transform="matrix(0.05,0,0,0.05,10.950000000000001,0)" xlink:href="#bY"/></g><path fill="#008a0e" d="M150-105c8-23 8-54-22-51-68 7-54 98-72 156H6l50-261h50L85-158c15-20 33-36 66-36 95 0 34 128 28 194h-49" id="cc"/><path fill="#008a0e" d="M114-194c63-2 87 48 72 110H63c-3 28 1 55 31 54 21-1 32-13 37-29l44 13C160-14 137 4 91 4 41 4 11-22 11-73c0-71 33-119 103-121zm30 77c14-47-50-61-67-22-3 6-6 13-8 22h75" id="cd"/><g id="ai"><use transform="matrix(0.05,0,0,0.05,0,0)" xlink:href="#bW"/><use transform="matrix(0.05,0,0,0.05,5.95,0)" xlink:href="#cc"/><use transform="matrix(0.05,0,0,0.05,16.900000000000002,0)" xlink:href="#cd"/></g><path fill="#008a0e" d="M132-28C118-9 101 4 69 4 30 4 10-23 10-62c0-70 24-129 92-132 31-1 47 14 56 35l19-102h49L179 0h-49zM62-69c0 22 7 39 29 39 45-2 54-45 57-90 2-27-10-40-33-40-44 0-53 48-53 91" id="ce"/><path fill="#008a0e" d="M84-151c13-25 34-51 72-40l-8 41C67-170 71-64 56 0H6l36-190h47" id="cf"/><path fill="#008a0e" d="M156-122c2-23-7-37-28-37-47 0-58 44-58 89 0 24 12 40 36 40 43 0 47-49 50-92zM-8 75l50-265h48c0 10-3 24-3 30 22-50 127-45 121 29-6 73-21 135-92 135-29 0-46-14-55-35L41 75H-8" id="cg"/><g id="aj"><use transform="matrix(0.05,0,0,0.05,0,0)" xlink:href="#ca"/><use transform="matrix(0.05,0,0,0.05,10,0)" xlink:href="#bX"/><use transform="matrix(0.05,0,0,0.05,15,0)" xlink:href="#ce"/><use transform="matrix(0.05,0,0,0.05,25.950000000000003,0)" xlink:href="#cf"/><use transform="matrix(0.05,0,0,0.05,32.95,0)" xlink:href="#bV"/><use transform="matrix(0.05,0,0,0.05,43.900000000000006,0)" xlink:href="#cg"/></g><path fill="#008a0e" d="M212 0h-52l-8-156L82 0H30L17-190h46l2 145 66-145h53l8 145 60-145h47" id="ch"/><path fill="#008a0e" d="M6 0l51-261h49L55 0H6" id="ci"/><g id="ak"><use transform="matrix(0.05,0,0,0.05,0,0)" xlink:href="#ch"/><use transform="matrix(0.05,0,0,0.05,14,0)" xlink:href="#bX"/><use transform="matrix(0.05,0,0,0.05,19,0)" xlink:href="#ci"/><use transform="matrix(0.05,0,0,0.05,24,0)" xlink:href="#ci"/></g><path fill="#008a0e" d="M87-160c15-17 32-34 63-34 99 1 59 172-1 192-36 12-78 0-87-29L54 0H6l52-261h49zm71 38c0-24-5-37-29-37-46 0-55 46-57 89-1 25 12 40 35 40 44 0 51-50 51-92" id="cj"/><g id="al"><use transform="matrix(0.05,0,0,0.05,0,0)" xlink:href="#cj"/><use transform="matrix(0.05,0,0,0.05,10.950000000000001,0)" xlink:href="#cd"/></g><path fill="#008a0e" d="M144-137c-1-29-70-35-71-2 16 41 103 10 103 80C176 9 79 16 32-9 18-17 9-31 4-48l44-6c3 32 80 36 82 1-15-42-103-11-103-82 0-77 157-79 161-8" id="ck"/><g id="am"><use transform="matrix(0.05,0,0,0.05,0,0)" xlink:href="#ck"/><use transform="matrix(0.05,0,0,0.05,10,0)" xlink:href="#cd"/><use transform="matrix(0.05,0,0,0.05,20,0)" xlink:href="#cb"/><use transform="matrix(0.05,0,0,0.05,30.950000000000003,0)" xlink:href="#bW"/></g><g id="an"><use transform="matrix(0.05,0,0,0.05,0,0)" xlink:href="#bW"/><use transform="matrix(0.05,0,0,0.05,5.95,0)" xlink:href="#bV"/></g><g id="ao"><use transform="matrix(0.05,0,0,0.05,0,0)" xlink:href="#bW"/><use transform="matrix(0.05,0,0,0.05,5.95,0)" xlink:href="#cc"/><use transform="matrix(0.05,0,0,0.05,16.900000000000002,0)" xlink:href="#cd"/></g><g id="ap"><use transform="matrix(0.05,0,0,0.05,0,0)" xlink:href="#cg"/><use transform="matrix(0.05,0,0,0.05,10.950000000000001,0)" xlink:href="#ca"/><use transform="matrix(0.05,0,0,0.05,20.950000000000003,0)" xlink:href="#cf"/><use transform="matrix(0.05,0,0,0.05,27.950000000000003,0)" xlink:href="#bW"/><use transform="matrix(0.05,0,0,0.05,33.900000000000006,0)" xlink:href="#bX"/><use transform="matrix(0.05,0,0,0.05,38.900000000000006,0)" xlink:href="#bZ"/><use transform="matrix(0.05,0,0,0.05,48.900000000000006,0)" xlink:href="#bX"/><use transform="matrix(0.05,0,0,0.05,53.900000000000006,0)" xlink:href="#cg"/><use transform="matrix(0.05,0,0,0.05,64.85000000000001,0)" xlink:href="#ca"/><use transform="matrix(0.05,0,0,0.05,74.85000000000001,0)" xlink:href="#cb"/><use transform="matrix(0.05,0,0,0.05,85.80000000000001,0)" xlink:href="#bW"/></g><path fill="#3a414a" d="M241-173c-1 82-78 91-166 86L58 0H6l48-248c87 0 188-12 187 75zm-53 2c0-43-48-36-90-36l-15 80c50 0 105 7 105-44" id="cl"/><path fill="#3a414a" d="M84-151c13-25 34-51 72-40l-8 41C67-170 71-64 56 0H6l36-190h47" id="cm"/><path fill="#3a414a" d="M124-194c51 0 84 22 84 74C207-44 167 4 94 4 43 4 11-23 11-74c0-74 41-120 113-120zM99-30c46 0 58-42 58-86 0-27-11-44-37-44-44 0-55 40-57 84-1 27 10 45 36 46" id="cn"/><path fill="#3a414a" d="M67-101c-8 29-7 73 27 71 23-2 32-16 39-37l48 9C170-19 141 4 91 4 36 4 7-28 12-86c6-75 61-124 140-103 26 7 40 29 43 59l-50 4c-1-20-9-34-29-34-35 0-41 29-49 59" id="co"/><path fill="#3a414a" d="M114-194c63-2 87 48 72 110H63c-3 28 1 55 31 54 21-1 32-13 37-29l44 13C160-14 137 4 91 4 41 4 11-22 11-73c0-71 33-119 103-121zm30 77c14-47-50-61-67-22-3 6-6 13-8 22h75" id="cp"/><path fill="#3a414a" d="M132-28C118-9 101 4 69 4 30 4 10-23 10-62c0-70 24-129 92-132 31-1 47 14 56 35l19-102h49L179 0h-49zM62-69c0 22 7 39 29 39 45-2 54-45 57-90 2-27-10-40-33-40-44 0-53 48-53 91" id="cq"/><g id="aq"><use transform="matrix(0.05617283950617281,0,0,0.05617283950617281,0,0)" xlink:href="#cl"/><use transform="matrix(0.05617283950617281,0,0,0.05617283950617281,13.481481481481474,0)" xlink:href="#cm"/><use transform="matrix(0.05617283950617281,0,0,0.05617283950617281,21.345679012345666,0)" xlink:href="#cn"/><use transform="matrix(0.05617283950617281,0,0,0.05617283950617281,33.64753086419751,0)" xlink:href="#co"/><use transform="matrix(0.05617283950617281,0,0,0.05617283950617281,44.882098765432076,0)" xlink:href="#cp"/><use transform="matrix(0.05617283950617281,0,0,0.05617283950617281,56.11666666666664,0)" xlink:href="#cp"/><use transform="matrix(0.05617283950617281,0,0,0.05617283950617281,67.3512345679012,0)" xlink:href="#cq"/></g><path fill="#3a414a" d="M72-63c-8 23 5 39 32 30L98-1C54 14 12-6 23-64l18-93H15l7-33h28l24-45h31l-8 45h35l-6 33H90" id="cr"/><g id="ar"><use transform="matrix(0.05617283950617281,0,0,0.05617283950617281,0,0)" xlink:href="#cr"/><use transform="matrix(0.05617283950617281,0,0,0.05617283950617281,6.684567901234564,0)" xlink:href="#cn"/></g><path fill="#3a414a" d="M151-194c95 0 34 128 28 194h-49l25-134c0-29-45-25-59-9C67-111 69-48 56 0H6l36-190h47l-4 32c15-20 33-36 66-36" id="cs"/><g id="as"><use transform="matrix(0.05617283950617281,0,0,0.05617283950617281,0,0)" xlink:href="#co"/><use transform="matrix(0.05617283950617281,0,0,0.05617283950617281,11.234567901234561,0)" xlink:href="#cn"/><use transform="matrix(0.05617283950617281,0,0,0.05617283950617281,23.536419753086406,0)" xlink:href="#cs"/><use transform="matrix(0.05617283950617281,0,0,0.05617283950617281,35.83827160493825,0)" xlink:href="#cs"/><use transform="matrix(0.05617283950617281,0,0,0.05617283950617281,48.14012345679009,0)" xlink:href="#cp"/><use transform="matrix(0.05617283950617281,0,0,0.05617283950617281,59.374691358024656,0)" xlink:href="#co"/><use transform="matrix(0.05617283950617281,0,0,0.05617283950617281,70.60925925925922,0)" xlink:href="#cr"/></g><g id="at"><use transform="matrix(0.05617283950617281,0,0,0.05617283950617281,0,0)" xlink:href="#cr"/><use transform="matrix(0.05617283950617281,0,0,0.05617283950617281,6.684567901234564,0)" xlink:href="#cn"/></g><path fill="#3a414a" d="M150-105c8-23 8-54-22-51-68 7-54 98-72 156H6l50-261h50L85-158c15-20 33-36 66-36 95 0 34 128 28 194h-49" id="ct"/><g id="au"><use transform="matrix(0.05617283950617281,0,0,0.05617283950617281,0,0)" xlink:href="#cr"/><use transform="matrix(0.05617283950617281,0,0,0.05617283950617281,6.684567901234564,0)" xlink:href="#ct"/><use transform="matrix(0.05617283950617281,0,0,0.05617283950617281,18.98641975308641,0)" xlink:href="#cp"/></g><path fill="#3a414a" d="M183 0l-10-63H79L44 0H-7l138-248h61L234 0h-51zm-14-102l-15-108c-16 38-36 73-55 108h70" id="cu"/><path fill="#3a414a" d="M6 0l48-248h52L58 0H6" id="cv"/><path fill="#3a414a" d="M157-208L117 0H65l40-208H25l8-40h212l-8 40h-80" id="cw"/><path fill="#3a414a" d="M10-72l8-43h92l-9 43H10" id="cx"/><path fill="#3a414a" d="M131-73c0-31-25-35-58-33l8-40c36 2 64-5 65-39 0-17-10-28-28-27-23 1-35 12-41 32l-47-9c11-39 39-63 90-62 44 1 76 17 76 60 0 42-26 59-63 64 28 5 48 20 48 54C181 22 9 32 3-60l49-7c3 21 16 31 40 31s39-13 39-37" id="cy"/><g id="av"><use transform="matrix(0.05617283950617281,0,0,0.05617283950617281,0,0)" xlink:href="#cu"/><use transform="matrix(0.05617283950617281,0,0,0.05617283950617281,14.548765432098756,0)" xlink:href="#cv"/><use transform="matrix(0.05617283950617281,0,0,0.05617283950617281,20.166049382716036,0)" xlink:href="#cw"/><use transform="matrix(0.05617283950617281,0,0,0.05617283950617281,31.344444444444427,0)" xlink:href="#cx"/><use transform="matrix(0.05617283950617281,0,0,0.05617283950617281,38.02901234567899,0)" xlink:href="#cy"/></g><path fill="#3a414a" d="M166-52c-4 17 5 29 24 23l-3 27c-30 11-74 1-67-34C105-15 91 4 56 4 23 4 3-15 2-49c0-64 63-67 128-67 10-22 3-53-29-45-13 3-22 10-25 24l-46-5c5-64 156-77 153 0-1 33-11 60-17 90zM97-88c-44-9-64 57-19 57 31 0 42-28 47-57H97" id="cz"/><g id="aw"><use transform="matrix(0.05617283950617281,0,0,0.05617283950617281,0,0)" xlink:href="#cz"/><use transform="matrix(0.05617283950617281,0,0,0.05617283950617281,11.234567901234561,0)" xlink:href="#cs"/><use transform="matrix(0.05617283950617281,0,0,0.05617283950617281,23.536419753086406,0)" xlink:href="#cq"/></g><path fill="#3a414a" d="M50-224l7-37h49l-7 37H50zm1 246C45 64 7 85-39 71l7-33c23 5 33-8 36-27l39-201h49" id="cA"/><path fill="#3a414a" d="M50-224l7-37h49l-7 37H50zM6 0l37-190h49L55 0H6" id="cB"/><g id="ax"><use transform="matrix(0.05617283950617281,0,0,0.05617283950617281,0,0)" xlink:href="#cA"/><use transform="matrix(0.05617283950617281,0,0,0.05617283950617281,5.6172839506172805,0)" xlink:href="#cn"/><use transform="matrix(0.05617283950617281,0,0,0.05617283950617281,17.919135802469125,0)" xlink:href="#cB"/><use transform="matrix(0.05617283950617281,0,0,0.05617283950617281,23.536419753086406,0)" xlink:href="#cs"/></g><g id="ay"><use transform="matrix(0.05617283950617281,0,0,0.05617283950617281,0,0)" xlink:href="#cr"/><use transform="matrix(0.05617283950617281,0,0,0.05617283950617281,6.684567901234564,0)" xlink:href="#ct"/><use transform="matrix(0.05617283950617281,0,0,0.05617283950617281,18.98641975308641,0)" xlink:href="#cp"/></g><path fill="#3a414a" d="M109 0H50L19-190h51L86-37l77-153h54" id="cC"/><path fill="#3a414a" d="M6 0l51-261h49L55 0H6" id="cD"/><g id="az"><use transform="matrix(0.05617283950617281,0,0,0.05617283950617281,0,0)" xlink:href="#cC"/><use transform="matrix(0.05617283950617281,0,0,0.05617283950617281,11.234567901234561,0)" xlink:href="#cz"/><use transform="matrix(0.05617283950617281,0,0,0.05617283950617281,22.469135802469122,0)" xlink:href="#cD"/><use transform="matrix(0.05617283950617281,0,0,0.05617283950617281,28.086419753086403,0)" xlink:href="#cB"/><use transform="matrix(0.05617283950617281,0,0,0.05617283950617281,33.70370370370368,0)" xlink:href="#cq"/><use transform="matrix(0.05617283950617281,0,0,0.05617283950617281,46.005555555555524,0)" xlink:href="#cz"/><use transform="matrix(0.05617283950617281,0,0,0.05617283950617281,57.24012345679009,0)" xlink:href="#cr"/><use transform="matrix(0.05617283950617281,0,0,0.05617283950617281,63.92469135802465,0)" xlink:href="#cn"/><use transform="matrix(0.05617283950617281,0,0,0.05617283950617281,76.2265432098765,0)" xlink:href="#cm"/></g><path fill="#3a414a" d="M144-137c-1-29-70-35-71-2 16 41 103 10 103 80C176 9 79 16 32-9 18-17 9-31 4-48l44-6c3 32 80 36 82 1-15-42-103-11-103-82 0-77 157-79 161-8" id="cE"/><g id="aA"><use transform="matrix(0.05617283950617281,0,0,0.05617283950617281,0,0)" xlink:href="#cE"/><use transform="matrix(0.05617283950617281,0,0,0.05617283950617281,11.234567901234561,0)" xlink:href="#cp"/><use transform="matrix(0.05617283950617281,0,0,0.05617283950617281,22.469135802469122,0)" xlink:href="#cr"/></g><g id="aB"><use transform="matrix(0.06234567901234567,0,0,0.06234567901234567,0,0)" xlink:href="#aS"/><use transform="matrix(0.06234567901234567,0,0,0.06234567901234567,6.234567901234566,0)" xlink:href="#aK"/><use transform="matrix(0.06234567901234567,0,0,0.06234567901234567,18.7037037037037,0)" xlink:href="#aJ"/></g><path fill="#3a414a" d="M128 0H69L1-190h53L99-40l48-150h52" id="cF"/><path fill="#3a414a" d="M115-3C79 11 28 4 28-45v-112H4v-33h27l15-45h31v45h36v33H77v99c-1 23 16 31 38 25v30" id="cG"/><g id="aC"><use transform="matrix(0.06234567901234567,0,0,0.06234567901234567,0,0)" xlink:href="#cF"/><use transform="matrix(0.06234567901234567,0,0,0.06234567901234567,12.469135802469133,0)" xlink:href="#bN"/><use transform="matrix(0.06234567901234567,0,0,0.06234567901234567,26.122839506172834,0)" xlink:href="#cG"/><use transform="matrix(0.06234567901234567,0,0,0.06234567901234567,33.541975308641966,0)" xlink:href="#bQ"/><use transform="matrix(0.06234567901234567,0,0,0.06234567901234567,46.0111111111111,0)" xlink:href="#bR"/></g><g id="aD"><use transform="matrix(0.06234567901234567,0,0,0.06234567901234567,0,0)" xlink:href="#bh"/><use transform="matrix(0.06234567901234567,0,0,0.06234567901234567,14.96296296296296,0)" xlink:href="#aW"/><use transform="matrix(0.06234567901234567,0,0,0.06234567901234567,21.197530864197525,0)" xlink:href="#aU"/><use transform="matrix(0.06234567901234567,0,0,0.06234567901234567,33.66666666666666,0)" xlink:href="#br"/><use transform="matrix(0.06234567901234567,0,0,0.06234567901234567,44.88888888888888,0)" xlink:href="#aM"/></g><g id="aE"><use transform="matrix(0.06234567901234567,0,0,0.06234567901234567,0,0)" xlink:href="#aK"/><use transform="matrix(0.06234567901234567,0,0,0.06234567901234567,12.469135802469133,0)" xlink:href="#aO"/></g><g id="aF"><use transform="matrix(0.06234567901234567,0,0,0.06234567901234567,0,0)" xlink:href="#aZ"/><use transform="matrix(0.06234567901234567,0,0,0.06234567901234567,14.96296296296296,0)" xlink:href="#ba"/><use transform="matrix(0.06234567901234567,0,0,0.06234567901234567,27.432098765432094,0)" xlink:href="#aW"/><use transform="matrix(0.06234567901234567,0,0,0.06234567901234567,33.66666666666666,0)" xlink:href="#aK"/><use transform="matrix(0.06234567901234567,0,0,0.06234567901234567,46.13580246913579,0)" xlink:href="#aV"/></g><path fill="#3a414a" d="M143 4C61 4 22-44 18-125c-5-107 100-154 193-111 17 8 29 25 37 43l-32 9c-13-25-37-40-76-40-61 0-88 39-88 99 0 61 29 100 91 101 35 0 62-11 79-27v-45h-74v-28h105v86C228-13 192 4 143 4" id="cH"/><path fill="#3a414a" d="M108 0H70L1-190h34L89-25l56-165h34" id="cI"/><g id="aG"><use transform="matrix(0.06234567901234567,0,0,0.06234567901234567,0,0)" xlink:href="#cH"/><use transform="matrix(0.06234567901234567,0,0,0.06234567901234567,17.456790123456788,0)" xlink:href="#aK"/><use transform="matrix(0.06234567901234567,0,0,0.06234567901234567,29.92592592592592,0)" xlink:href="#cI"/><use transform="matrix(0.06234567901234567,0,0,0.06234567901234567,41.14814814814814,0)" xlink:href="#aM"/><use transform="matrix(0.06234567901234567,0,0,0.06234567901234567,53.61728395061727,0)" xlink:href="#aJ"/><use transform="matrix(0.06234567901234567,0,0,0.06234567901234567,61.036419753086406,0)" xlink:href="#aO"/><use transform="matrix(0.06234567901234567,0,0,0.06234567901234567,73.50555555555553,0)" xlink:href="#aU"/><use transform="matrix(0.06234567901234567,0,0,0.06234567901234567,85.97469135802467,0)" xlink:href="#aO"/><use transform="matrix(0.06234567901234567,0,0,0.06234567901234567,98.44382716049381,0)" xlink:href="#aL"/><use transform="matrix(0.06234567901234567,0,0,0.06234567901234567,109.66604938271603,0)" xlink:href="#aM"/></g><g id="aH"><use transform="matrix(0.06234567901234567,0,0,0.06234567901234567,0,0)" xlink:href="#ba"/><use transform="matrix(0.06234567901234567,0,0,0.06234567901234567,12.469135802469133,0)" xlink:href="#aU"/><use transform="matrix(0.06234567901234567,0,0,0.06234567901234567,24.938271604938265,0)" xlink:href="#bn"/><use transform="matrix(0.06234567901234567,0,0,0.06234567901234567,37.4074074074074,0)" xlink:href="#aM"/></g></defs></g></svg>