<?xml version="1.0" encoding="UTF-8"?>
<svg width="20px" height="20px" viewBox="0 0 20 20" version="1.1" xmlns="http://www.w3.org/2000/svg" xmlns:xlink="http://www.w3.org/1999/xlink">
    <title>Group 3</title>
    <defs>
        <polygon id="path-1" points="0 0 19.9975 0 19.9975 19.968 0 19.968"></polygon>
    </defs>
    <g id="---Developers" stroke="none" stroke-width="1" fill="none" fill-rule="evenodd">
        <g id="Devlopers---Community" transform="translate(-1106.000000, -2710.000000)">
            <g id="Desktop-Footer" transform="translate(0.000000, 2459.000000)">
                <g id="News-and-Social">
                    <g transform="translate(1106.000000, 251.000000)">
                        <g id="Group-3">
                            <mask id="mask-2" fill="white">
                                <use xlink:href="#path-1"></use>
                            </mask>
                            <g id="Clip-2"></g>
                            <path d="M17.5,0 L2.5,0 C1.125625,0 0,1.123824 0,2.496 L0,17.472 C0,18.845424 1.125625,19.966752 2.49875,19.966752 L10.085,19.966752 L10.085,12.806976 L7.689375,12.806976 L7.689375,9.688848 L10.085,9.688848 L10.085,8.126352 C10.085,5.717712 11.86625,3.83136 14.140625,3.83136 L16.3475,3.83136 L16.3475,7.353216 L14.371875,7.353216 C13.855625,7.353216 13.704375,7.649616 13.704375,8.058336 L13.704375,9.6876 L16.3475,9.6876 L16.3475,12.806976 L13.704375,12.806976 L13.704375,19.968 L17.49875,19.968 C18.874375,19.968 19.9975042,18.845424 19.9975042,17.473248 L19.9975042,2.496 C20,1.123824 18.875625,0 17.5,0" id="Fill-1" fill="#402F8F" mask="url(#mask-2)"></path>
                        </g>
                    </g>
                </g>
            </g>
        </g>
    </g>
</svg>
