<?xml version="1.0" encoding="UTF-8"?>
<svg width="20px" height="20px" viewBox="0 0 20 20" version="1.1" xmlns="http://www.w3.org/2000/svg" xmlns:xlink="http://www.w3.org/1999/xlink">
    <title>icons8-linkedin</title>
    <g id="---Developers" stroke="none" stroke-width="1" fill="none" fill-rule="evenodd">
        <g id="Developers---Overview" transform="translate(-1174.000000, -4461.000000)" fill="#402F8F" fill-rule="nonzero">
            <g id="icons8-linkedin" transform="translate(1174.000000, 4461.000000)">
                <path d="M16.25,0 L3.75,0 C1.67968769,0 0,1.67968769 0,3.75 L0,16.25 C0,18.3203123 1.67968769,20 3.75,20 L16.25,20 C18.3203123,20 20,18.3203123 20,16.25 L20,3.75 C20,1.67968769 18.3203123,0 16.25,0 Z M6.18389462,16.9771638 L3.07692308,16.9771638 L3.05889462,7.67427923 L6.16586538,7.67427923 L6.18389462,16.9771638 Z M4.55228385,6.45733154 L4.53425462,6.45733154 C3.51863,6.45733154 2.86358154,5.75721154 2.86358154,4.88581769 C2.86358154,3.99338923 3.53966385,3.31730769 4.57331769,3.31730769 C5.60697154,3.31730769 6.24098538,3.99338923 6.26201923,4.88581769 C6.26201923,5.75721154 5.60396615,6.45733154 4.55228385,6.45733154 Z M16.95613,16.9771638 L13.8221154,16.9771638 L13.8221154,11.9230769 C13.8221154,10.70012 13.4975962,9.86778846 12.4038462,9.86778846 C11.56851,9.86778846 11.1177885,10.4296877 10.9014423,10.9735577 C10.8203123,11.16887 10.7992792,11.4362985 10.7992792,11.7097354 L10.7992792,16.9771638 L7.65024077,16.9771638 L7.63221154,7.67427923 L10.78125,7.67427923 L10.7992792,8.98738 C11.2019231,8.36538462 11.8719954,7.48497615 13.4765623,7.48497615 C15.4657454,7.48497615 16.9531254,8.78305308 16.9531254,11.5745192 L16.9531254,16.9771638 L16.95613,16.9771638 Z" id="Shape"></path>
            </g>
        </g>
    </g>
</svg>
