<?xml version="1.0" encoding="UTF-8"?>
<svg width="22px" height="17px" viewBox="0 0 22 17" version="1.1" xmlns="http://www.w3.org/2000/svg" xmlns:xlink="http://www.w3.org/1999/xlink">
    <title>Fill 1</title>
    <g id="---Developers" stroke="none" stroke-width="1" fill="none" fill-rule="evenodd">
        <g id="Devlopers---Community" transform="translate(-1207.000000, -2712.000000)" fill="#402F8F">
            <g id="Desktop-Footer" transform="translate(0.000000, 2459.000000)">
                <g id="News-and-Social">
                    <g transform="translate(1106.000000, 251.000000)">
                        <path d="M123,4.00630747 C122.190812,4.34699045 121.321125,4.57737568 120.407438,4.68114694 C121.339687,4.15054298 122.055375,3.31123587 122.39225,2.31072436 C121.5205,2.8015167 120.553875,3.15786326 119.526062,3.35039483 C118.703125,2.51761421 117.529562,1.9968 116.231562,1.9968 C113.738687,1.9968 111.718125,3.9155892 111.718125,6.28144324 C111.718125,6.61755767 111.757312,6.94453501 111.835,7.25845937 C108.083313,7.07898079 104.757875,5.37360794 102.53175,2.78128457 C102.143312,3.41435447 101.920563,4.15054298 101.920563,4.9356802 C101.920563,6.4224155 102.717375,7.73358813 103.928062,8.50175646 C103.188312,8.47956638 102.492563,8.28703481 101.884125,7.96593131 C101.883437,7.98355284 101.883437,8.00182702 101.883437,8.01944856 C101.883437,10.0955263 103.43925,11.8276577 105.5045,12.2212053 C105.125687,12.3191027 104.726938,12.3713147 104.315125,12.3713147 C104.024313,12.3713147 103.74175,12.3445561 103.466062,12.2949547 C104.040125,13.9970643 105.707313,15.2357928 107.6825,15.2703833 C106.137687,16.4196988 104.191375,17.104328 102.076625,17.104328 C101.71225,17.104328 101.353375,17.0847486 101,17.0442843 C102.997187,18.2601701 105.36975,18.9696 107.918312,18.9696 C116.22125,18.9696 120.760813,12.4404955 120.760813,6.77876207 C120.760813,6.59275699 120.756687,6.40805722 120.74775,6.22401009 C121.629812,5.62030941 122.395,4.86519406 123,4.00630747" id="Fill-1"></path>
                    </g>
                </g>
            </g>
        </g>
    </g>
</svg>
