<?xml version="1.0" encoding="UTF-8" standalone="no"?>
<!DOCTYPE svg PUBLIC "-//W3C//DTD SVG 1.1//EN"
 "http://www.w3.org/Graphics/SVG/1.1/DTD/svg11.dtd">
<!-- Generated by graphviz version 7.0.4 (20221203.1631)
 -->
<!-- Title: G Pages: 1 -->
<svg width="438pt" height="459pt"
 viewBox="0.00 0.00 438.00 459.00" xmlns="http://www.w3.org/2000/svg" xmlns:xlink="http://www.w3.org/1999/xlink">
<g id="graph0" class="graph" transform="scale(1 1) rotate(0) translate(4 455)">
<title>G</title>
<polygon fill="white" stroke="none" points="-4,4 -4,-455 434,-455 434,4 -4,4"/>
<g id="clust1" class="cluster">
<title>cluster_string</title>
<polygon fill="none" stroke="black" points="60,-332 60,-407 140,-407 140,-332 60,-332"/>
<text text-anchor="middle" x="100" y="-391.8" font-family="Times,serif" font-size="14.00">string</text>
</g>
<g id="clust2" class="cluster">
<title>cluster_error</title>
<polygon fill="none" stroke="black" points="8,-91 8,-249 170,-249 170,-91 8,-91"/>
<text text-anchor="middle" x="89" y="-233.8" font-family="Times,serif" font-size="14.00">error</text>
</g>
<g id="clust3" class="cluster">
<title>cluster_simple_map</title>
<polygon fill="none" stroke="black" points="180,-174 180,-324 332,-324 332,-174 180,-174"/>
<text text-anchor="middle" x="256" y="-308.8" font-family="Times,serif" font-size="14.00">simple_map</text>
</g>
<g id="clust4" class="cluster">
<title>cluster_option</title>
<polygon fill="none" stroke="black" points="178,-91 178,-166 422,-166 422,-91 178,-91"/>
<text text-anchor="middle" x="300" y="-150.8" font-family="Times,serif" font-size="14.00">option</text>
</g>
<g id="clust5" class="cluster">
<title>cluster_vector</title>
<polygon fill="none" stroke="black" points="190,-8 190,-83 397,-83 397,-8 190,-8"/>
<text text-anchor="middle" x="293.5" y="-67.8" font-family="Times,serif" font-size="14.00">vector</text>
</g>
<!-- new -->
<g id="node1" class="node">
<title>new</title>
<ellipse fill="none" stroke="black" cx="183" cy="-433" rx="27" ry="18"/>
<text text-anchor="middle" x="183" y="-429.3" font-family="Times,serif" font-size="14.00">new</text>
</g>
<!-- string::length -->
<g id="node2" class="node">
<title>string::length</title>
<ellipse fill="none" stroke="black" cx="100" cy="-358" rx="32.49" ry="18"/>
<text text-anchor="middle" x="100" y="-354.3" font-family="Times,serif" font-size="14.00">length</text>
</g>
<!-- new&#45;&gt;string::length -->
<g id="edge1" class="edge">
<title>new&#45;&gt;string::length</title>
<path fill="none" stroke="black" d="M163.61,-420.03C157.77,-416.12 151.45,-411.6 146,-407 137.32,-399.68 128.51,-390.89 120.96,-382.85"/>
<polygon fill="black" stroke="black" points="123.69,-380.64 114.35,-375.64 118.53,-385.37 123.69,-380.64"/>
</g>
<!-- error::invalid_argument -->
<g id="node3" class="node">
<title>error::invalid_argument</title>
<ellipse fill="none" stroke="black" cx="89" cy="-200" rx="73.39" ry="18"/>
<text text-anchor="middle" x="89" y="-196.3" font-family="Times,serif" font-size="14.00">invalid_argument</text>
</g>
<!-- new&#45;&gt;error::invalid_argument -->
<g id="edge2" class="edge">
<title>new&#45;&gt;error::invalid_argument</title>
<path fill="none" stroke="black" d="M176.64,-415.32C169.03,-395.42 155.82,-361.19 144,-332 129.5,-296.19 112.16,-255.16 100.88,-228.71"/>
<polygon fill="black" stroke="black" points="104.18,-227.53 97.03,-219.71 97.74,-230.28 104.18,-227.53"/>
</g>
<!-- simple_map::add -->
<g id="node4" class="node">
<title>simple_map::add</title>
<ellipse fill="none" stroke="black" cx="215" cy="-275" rx="27" ry="18"/>
<text text-anchor="middle" x="215" y="-271.3" font-family="Times,serif" font-size="14.00">add</text>
</g>
<!-- new&#45;&gt;simple_map::add -->
<g id="edge3" class="edge">
<title>new&#45;&gt;simple_map::add</title>
<path fill="none" stroke="black" d="M186.55,-414.71C192.05,-387.86 202.71,-335.9 209.31,-303.76"/>
<polygon fill="black" stroke="black" points="212.65,-304.88 211.23,-294.38 205.79,-303.47 212.65,-304.88"/>
</g>
<!-- empty -->
<g id="node5" class="node">
<title>empty</title>
<ellipse fill="none" stroke="black" cx="279" cy="-358" rx="33.29" ry="18"/>
<text text-anchor="middle" x="279" y="-354.3" font-family="Times,serif" font-size="14.00">empty</text>
</g>
<!-- new&#45;&gt;empty -->
<g id="edge4" class="edge">
<title>new&#45;&gt;empty</title>
<path fill="none" stroke="black" d="M201.67,-419.85C207.61,-415.87 214.15,-411.34 220,-407 231.04,-398.8 242.86,-389.33 253,-380.98"/>
<polygon fill="black" stroke="black" points="255.15,-383.75 260.6,-374.66 250.68,-378.36 255.15,-383.75"/>
</g>
<!-- error::canonical -->
<g id="node6" class="node">
<title>error::canonical</title>
<ellipse fill="none" stroke="black" cx="89" cy="-117" rx="44.39" ry="18"/>
<text text-anchor="middle" x="89" y="-113.3" font-family="Times,serif" font-size="14.00">canonical</text>
</g>
<!-- error::invalid_argument&#45;&gt;error::canonical -->
<g id="edge5" class="edge">
<title>error::invalid_argument&#45;&gt;error::canonical</title>
<path fill="none" stroke="black" d="M89,-181.82C89,-171.69 89,-158.6 89,-146.92"/>
<polygon fill="black" stroke="black" points="92.5,-146.95 89,-136.95 85.5,-146.95 92.5,-146.95"/>
</g>
<!-- simple_map::add&#45;&gt;error::invalid_argument -->
<g id="edge7" class="edge">
<title>simple_map::add&#45;&gt;error::invalid_argument</title>
<path fill="none" stroke="black" d="M195.03,-262.43C176.74,-251.83 149.18,-235.86 126.73,-222.86"/>
<polygon fill="black" stroke="black" points="128.55,-219.87 118.15,-217.89 125.04,-225.93 128.55,-219.87"/>
</g>
<!-- option::is_none -->
<g id="node7" class="node">
<title>option::is_none</title>
<ellipse fill="none" stroke="black" cx="376" cy="-117" rx="38.19" ry="18"/>
<text text-anchor="middle" x="376" y="-113.3" font-family="Times,serif" font-size="14.00">is_none</text>
</g>
<!-- simple_map::add&#45;&gt;option::is_none -->
<g id="edge6" class="edge">
<title>simple_map::add&#45;&gt;option::is_none</title>
<path fill="none" stroke="black" d="M234.4,-262.05C240.25,-258.14 246.56,-253.61 252,-249 291.69,-215.33 332.11,-170.16 355.59,-142.61"/>
<polygon fill="black" stroke="black" points="358.11,-145.05 361.89,-135.15 352.77,-140.53 358.11,-145.05"/>
</g>
<!-- simple_map::find -->
<g id="node8" class="node">
<title>simple_map::find</title>
<ellipse fill="none" stroke="black" cx="216" cy="-200" rx="27" ry="18"/>
<text text-anchor="middle" x="216" y="-196.3" font-family="Times,serif" font-size="14.00">find</text>
</g>
<!-- simple_map::add&#45;&gt;simple_map::find -->
<g id="edge8" class="edge">
<title>simple_map::add&#45;&gt;simple_map::find</title>
<path fill="none" stroke="black" d="M215.24,-256.7C215.35,-248.67 215.48,-238.9 215.61,-229.8"/>
<polygon fill="black" stroke="black" points="219.1,-229.99 215.74,-219.94 212.1,-229.89 219.1,-229.99"/>
</g>
<!-- simple_map::create -->
<g id="node9" class="node">
<title>simple_map::create</title>
<ellipse fill="none" stroke="black" cx="292" cy="-275" rx="31.7" ry="18"/>
<text text-anchor="middle" x="292" y="-271.3" font-family="Times,serif" font-size="14.00">create</text>
</g>
<!-- empty&#45;&gt;simple_map::create -->
<g id="edge9" class="edge">
<title>empty&#45;&gt;simple_map::create</title>
<path fill="none" stroke="black" d="M281.76,-339.82C283.41,-329.51 285.56,-316.14 287.46,-304.31"/>
<polygon fill="black" stroke="black" points="290.88,-305.08 289.01,-294.65 283.97,-303.97 290.88,-305.08"/>
</g>
<!-- vector::is_empty -->
<g id="node10" class="node">
<title>vector::is_empty</title>
<ellipse fill="none" stroke="black" cx="345" cy="-34" rx="43.59" ry="18"/>
<text text-anchor="middle" x="345" y="-30.3" font-family="Times,serif" font-size="14.00">is_empty</text>
</g>
<!-- option::is_none&#45;&gt;vector::is_empty -->
<g id="edge10" class="edge">
<title>option::is_none&#45;&gt;vector::is_empty</title>
<path fill="none" stroke="black" d="M369.43,-98.82C365.4,-88.3 360.15,-74.59 355.55,-62.57"/>
<polygon fill="black" stroke="black" points="358.95,-61.66 352.11,-53.57 352.41,-64.16 358.95,-61.66"/>
</g>
<!-- option::none -->
<g id="node11" class="node">
<title>option::none</title>
<ellipse fill="none" stroke="black" cx="292" cy="-117" rx="27.9" ry="18"/>
<text text-anchor="middle" x="292" y="-113.3" font-family="Times,serif" font-size="14.00">none</text>
</g>
<!-- simple_map::find&#45;&gt;option::none -->
<g id="edge11" class="edge">
<title>simple_map::find&#45;&gt;option::none</title>
<path fill="none" stroke="black" d="M233.01,-185.93C240.11,-180.14 248.26,-173.05 255,-166 261.75,-158.94 268.46,-150.69 274.29,-143.04"/>
<polygon fill="black" stroke="black" points="277.08,-145.14 280.22,-135.02 271.46,-140.98 277.08,-145.14"/>
</g>
<!-- option::some -->
<g id="node12" class="node">
<title>option::some</title>
<ellipse fill="none" stroke="black" cx="216" cy="-117" rx="29.8" ry="18"/>
<text text-anchor="middle" x="216" y="-113.3" font-family="Times,serif" font-size="14.00">some</text>
</g>
<!-- simple_map::find&#45;&gt;option::some -->
<g id="edge12" class="edge">
<title>simple_map::find&#45;&gt;option::some</title>
<path fill="none" stroke="black" d="M216,-181.82C216,-171.69 216,-158.6 216,-146.92"/>
<polygon fill="black" stroke="black" points="219.5,-146.95 216,-136.95 212.5,-146.95 219.5,-146.95"/>
</g>
<!-- vector::singleton -->
<g id="node13" class="node">
<title>vector::singleton</title>
<ellipse fill="none" stroke="black" cx="241" cy="-34" rx="42.79" ry="18"/>
<text text-anchor="middle" x="241" y="-30.3" font-family="Times,serif" font-size="14.00">singleton</text>
</g>
<!-- option::some&#45;&gt;vector::singleton -->
<g id="edge13" class="edge">
<title>option::some&#45;&gt;vector::singleton</title>
<path fill="none" stroke="black" d="M221.3,-98.82C224.52,-88.41 228.7,-74.87 232.38,-62.94"/>
<polygon fill="black" stroke="black" points="235.65,-64.19 235.26,-53.6 228.97,-62.12 235.65,-64.19"/>
</g>
</g>
</svg>
