<?xml version="1.0" encoding="UTF-8" standalone="no"?>
<!DOCTYPE svg PUBLIC "-//W3C//DTD SVG 1.1//EN"
 "http://www.w3.org/Graphics/SVG/1.1/DTD/svg11.dtd">
<!-- Generated by graphviz version 7.0.4 (20221203.1631)
 -->
<!-- Title: G Pages: 1 -->
<svg width="770pt" height="614pt"
 viewBox="0.00 0.00 770.00 614.00" xmlns="http://www.w3.org/2000/svg" xmlns:xlink="http://www.w3.org/1999/xlink">
<g id="graph0" class="graph" transform="scale(1 1) rotate(0) translate(4 610)">
<title>G</title>
<polygon fill="white" stroke="none" points="-4,4 -4,-610 766,-610 766,4 -4,4"/>
<g id="clust1" class="cluster">
<title>cluster_string</title>
<polygon fill="none" stroke="black" points="8,-329 8,-487 186,-487 186,-329 8,-329"/>
<text text-anchor="middle" x="97" y="-471.8" font-family="Times,serif" font-size="14.00">string</text>
</g>
<g id="clust2" class="cluster">
<title>cluster_error</title>
<polygon fill="none" stroke="black" points="163,-163 163,-321 455,-321 455,-163 163,-163"/>
<text text-anchor="middle" x="309" y="-305.8" font-family="Times,serif" font-size="14.00">error</text>
</g>
<g id="clust3" class="cluster">
<title>cluster_from_bcs</title>
<polygon fill="none" stroke="black" points="194,-412 194,-562 312,-562 312,-412 194,-412"/>
<text text-anchor="middle" x="253" y="-546.8" font-family="Times,serif" font-size="14.00">from_bcs</text>
</g>
<g id="clust4" class="cluster">
<title>cluster_simple_map</title>
<polygon fill="none" stroke="black" points="533,-246 533,-404 754,-404 754,-246 533,-246"/>
<text text-anchor="middle" x="643.5" y="-388.8" font-family="Times,serif" font-size="14.00">simple_map</text>
</g>
<g id="clust5" class="cluster">
<title>cluster_option</title>
<polygon fill="none" stroke="black" points="463,-91 463,-238 699,-238 699,-91 463,-91"/>
<text text-anchor="middle" x="581" y="-222.8" font-family="Times,serif" font-size="14.00">option</text>
</g>
<g id="clust6" class="cluster">
<title>cluster_vector</title>
<polygon fill="none" stroke="black" points="484,-8 484,-83 691,-83 691,-8 484,-8"/>
<text text-anchor="middle" x="587.5" y="-67.8" font-family="Times,serif" font-size="14.00">vector</text>
</g>
<!-- read_string -->
<g id="node1" class="node">
<title>read_string</title>
<ellipse fill="none" stroke="black" cx="315" cy="-588" rx="50.09" ry="18"/>
<text text-anchor="middle" x="315" y="-584.3" font-family="Times,serif" font-size="14.00">read_string</text>
</g>
<!-- string::utf8 -->
<g id="node2" class="node">
<title>string::utf8</title>
<ellipse fill="none" stroke="black" cx="75" cy="-438" rx="27" ry="18"/>
<text text-anchor="middle" x="75" y="-434.3" font-family="Times,serif" font-size="14.00">utf8</text>
</g>
<!-- read_string&#45;&gt;string::utf8 -->
<g id="edge1" class="edge">
<title>read_string&#45;&gt;string::utf8</title>
<path fill="none" stroke="black" d="M266.01,-583.6C242.03,-580.38 213.38,-574.12 190,-562 146.36,-539.37 110.43,-493.39 90.91,-464.51"/>
<polygon fill="black" stroke="black" points="93.95,-462.77 85.54,-456.33 88.1,-466.61 93.95,-462.77"/>
</g>
<!-- error::invalid_state -->
<g id="node3" class="node">
<title>error::invalid_state</title>
<ellipse fill="none" stroke="black" cx="227" cy="-272" rx="55.79" ry="18"/>
<text text-anchor="middle" x="227" y="-268.3" font-family="Times,serif" font-size="14.00">invalid_state</text>
</g>
<!-- read_string&#45;&gt;error::invalid_state -->
<g id="edge2" class="edge">
<title>read_string&#45;&gt;error::invalid_state</title>
<path fill="none" stroke="black" d="M321.79,-569.82C333.38,-537.84 353.99,-467.4 335,-412 318.99,-365.31 280.19,-322.2 253.73,-296.74"/>
<polygon fill="black" stroke="black" points="256.41,-294.45 246.72,-290.15 251.61,-299.55 256.41,-294.45"/>
</g>
<!-- from_bcs::to_string -->
<g id="node4" class="node">
<title>from_bcs::to_string</title>
<ellipse fill="none" stroke="black" cx="257" cy="-513" rx="42.49" ry="18"/>
<text text-anchor="middle" x="257" y="-509.3" font-family="Times,serif" font-size="14.00">to_string</text>
</g>
<!-- read_string&#45;&gt;from_bcs::to_string -->
<g id="edge3" class="edge">
<title>read_string&#45;&gt;from_bcs::to_string</title>
<path fill="none" stroke="black" d="M301.84,-570.44C294.57,-561.29 285.39,-549.73 277.23,-539.46"/>
<polygon fill="black" stroke="black" points="280.01,-537.34 271.05,-531.68 274.53,-541.69 280.01,-537.34"/>
</g>
<!-- borrow -->
<g id="node5" class="node">
<title>borrow</title>
<ellipse fill="none" stroke="black" cx="577" cy="-513" rx="36.29" ry="18"/>
<text text-anchor="middle" x="577" y="-509.3" font-family="Times,serif" font-size="14.00">borrow</text>
</g>
<!-- read_string&#45;&gt;borrow -->
<g id="edge4" class="edge">
<title>read_string&#45;&gt;borrow</title>
<path fill="none" stroke="black" d="M353.66,-576.23C402.12,-562.73 484.9,-539.66 534.92,-525.73"/>
<polygon fill="black" stroke="black" points="535.83,-529.11 544.52,-523.05 533.95,-522.36 535.83,-529.11"/>
</g>
<!-- string::internal_check_utf8 -->
<g id="node6" class="node">
<title>string::internal_check_utf8</title>
<ellipse fill="none" stroke="black" cx="97" cy="-355" rx="81.49" ry="18"/>
<text text-anchor="middle" x="97" y="-351.3" font-family="Times,serif" font-size="14.00">internal_check_utf8</text>
</g>
<!-- string::utf8&#45;&gt;string::internal_check_utf8 -->
<g id="edge5" class="edge">
<title>string::utf8&#45;&gt;string::internal_check_utf8</title>
<path fill="none" stroke="black" d="M79.67,-419.82C82.48,-409.48 86.12,-396.05 89.35,-384.18"/>
<polygon fill="black" stroke="black" points="92.63,-385.46 91.87,-374.89 85.87,-383.63 92.63,-385.46"/>
</g>
<!-- error::canonical -->
<g id="node7" class="node">
<title>error::canonical</title>
<ellipse fill="none" stroke="black" cx="300" cy="-189" rx="44.39" ry="18"/>
<text text-anchor="middle" x="300" y="-185.3" font-family="Times,serif" font-size="14.00">canonical</text>
</g>
<!-- error::invalid_state&#45;&gt;error::canonical -->
<g id="edge6" class="edge">
<title>error::invalid_state&#45;&gt;error::canonical</title>
<path fill="none" stroke="black" d="M242.13,-254.22C252.44,-242.77 266.27,-227.42 277.83,-214.6"/>
<polygon fill="black" stroke="black" points="280.28,-217.1 284.38,-207.33 275.08,-212.42 280.28,-217.1"/>
</g>
<!-- from_bcs::to_string&#45;&gt;string::internal_check_utf8 -->
<g id="edge8" class="edge">
<title>from_bcs::to_string&#45;&gt;string::internal_check_utf8</title>
<path fill="none" stroke="black" d="M293.15,-503.07C300.98,-499.39 308.31,-494.24 313,-487 331.14,-459.04 333.4,-438.36 313,-412 296.17,-390.25 231.58,-375.4 177.37,-366.49"/>
<polygon fill="black" stroke="black" points="178.26,-363.09 167.83,-364.97 177.16,-370 178.26,-363.09"/>
</g>
<!-- string::bytes -->
<g id="node8" class="node">
<title>string::bytes</title>
<ellipse fill="none" stroke="black" cx="149" cy="-438" rx="29.5" ry="18"/>
<text text-anchor="middle" x="149" y="-434.3" font-family="Times,serif" font-size="14.00">bytes</text>
</g>
<!-- from_bcs::to_string&#45;&gt;string::bytes -->
<g id="edge7" class="edge">
<title>from_bcs::to_string&#45;&gt;string::bytes</title>
<path fill="none" stroke="black" d="M221.61,-502.55C210.89,-498.73 199.46,-493.62 190,-487 181.13,-480.79 173,-472.22 166.35,-464.04"/>
<polygon fill="black" stroke="black" points="169.3,-462.14 160.45,-456.32 163.74,-466.39 169.3,-462.14"/>
</g>
<!-- from_bcs::from_bytes -->
<g id="node9" class="node">
<title>from_bcs::from_bytes</title>
<ellipse fill="none" stroke="black" cx="253" cy="-438" rx="51.19" ry="18"/>
<text text-anchor="middle" x="253" y="-434.3" font-family="Times,serif" font-size="14.00">from_bytes</text>
</g>
<!-- from_bcs::to_string&#45;&gt;from_bcs::from_bytes -->
<g id="edge9" class="edge">
<title>from_bcs::to_string&#45;&gt;from_bcs::from_bytes</title>
<path fill="none" stroke="black" d="M256.05,-494.7C255.61,-486.67 255.08,-476.9 254.58,-467.8"/>
<polygon fill="black" stroke="black" points="258.08,-467.73 254.04,-457.94 251.09,-468.12 258.08,-467.73"/>
</g>
<!-- simple_map::borrow -->
<g id="node10" class="node">
<title>simple_map::borrow</title>
<ellipse fill="none" stroke="black" cx="577" cy="-355" rx="36.29" ry="18"/>
<text text-anchor="middle" x="577" y="-351.3" font-family="Times,serif" font-size="14.00">borrow</text>
</g>
<!-- borrow&#45;&gt;simple_map::borrow -->
<g id="edge10" class="edge">
<title>borrow&#45;&gt;simple_map::borrow</title>
<path fill="none" stroke="black" d="M577,-494.71C577,-468.12 577,-416.9 577,-384.69"/>
<polygon fill="black" stroke="black" points="580.5,-384.88 577,-374.88 573.5,-384.88 580.5,-384.88"/>
</g>
<!-- contains_key -->
<g id="node11" class="node">
<title>contains_key</title>
<ellipse fill="none" stroke="black" cx="676" cy="-438" rx="57.39" ry="18"/>
<text text-anchor="middle" x="676" y="-434.3" font-family="Times,serif" font-size="14.00">contains_key</text>
</g>
<!-- borrow&#45;&gt;contains_key -->
<g id="edge11" class="edge">
<title>borrow&#45;&gt;contains_key</title>
<path fill="none" stroke="black" d="M596.56,-497.58C610.5,-487.3 629.52,-473.27 645.46,-461.52"/>
<polygon fill="black" stroke="black" points="647.23,-464.56 653.2,-455.81 643.08,-458.93 647.23,-464.56"/>
</g>
<!-- option::extract -->
<g id="node12" class="node">
<title>option::extract</title>
<ellipse fill="none" stroke="black" cx="657" cy="-189" rx="34.39" ry="18"/>
<text text-anchor="middle" x="657" y="-185.3" font-family="Times,serif" font-size="14.00">extract</text>
</g>
<!-- simple_map::borrow&#45;&gt;option::extract -->
<g id="edge12" class="edge">
<title>simple_map::borrow&#45;&gt;option::extract</title>
<path fill="none" stroke="black" d="M596.41,-339.44C602.39,-334.17 608.56,-327.82 613,-321 633.82,-288.97 645.77,-246.09 651.82,-218.26"/>
<polygon fill="black" stroke="black" points="655.18,-219.32 653.76,-208.82 648.32,-217.91 655.18,-219.32"/>
</g>
<!-- option::is_some -->
<g id="node13" class="node">
<title>option::is_some</title>
<ellipse fill="none" stroke="black" cx="651" cy="-117" rx="40.09" ry="18"/>
<text text-anchor="middle" x="651" y="-113.3" font-family="Times,serif" font-size="14.00">is_some</text>
</g>
<!-- simple_map::borrow&#45;&gt;option::is_some -->
<g id="edge13" class="edge">
<title>simple_map::borrow&#45;&gt;option::is_some</title>
<path fill="none" stroke="black" d="M600.13,-340.74C607.36,-336.78 615.43,-332.56 623,-329 631.67,-324.93 635.52,-326.98 643,-321 677.94,-293.04 686.74,-280.74 700,-238 709.88,-206.16 713.41,-193.52 700,-163 696.06,-154.03 689.35,-146.07 682.14,-139.42"/>
<polygon fill="black" stroke="black" points="684.66,-136.97 674.75,-133.23 680.16,-142.33 684.66,-136.97"/>
</g>
<!-- error::invalid_argument -->
<g id="node14" class="node">
<title>error::invalid_argument</title>
<ellipse fill="none" stroke="black" cx="374" cy="-272" rx="73.39" ry="18"/>
<text text-anchor="middle" x="374" y="-268.3" font-family="Times,serif" font-size="14.00">invalid_argument</text>
</g>
<!-- simple_map::borrow&#45;&gt;error::invalid_argument -->
<g id="edge14" class="edge">
<title>simple_map::borrow&#45;&gt;error::invalid_argument</title>
<path fill="none" stroke="black" d="M549.2,-342.91C516.47,-329.85 461.57,-307.94 421.94,-292.13"/>
<polygon fill="black" stroke="black" points="423.44,-288.96 412.86,-288.51 420.85,-295.46 423.44,-288.96"/>
</g>
<!-- simple_map::find -->
<g id="node15" class="node">
<title>simple_map::find</title>
<ellipse fill="none" stroke="black" cx="577" cy="-272" rx="27" ry="18"/>
<text text-anchor="middle" x="577" y="-268.3" font-family="Times,serif" font-size="14.00">find</text>
</g>
<!-- simple_map::borrow&#45;&gt;simple_map::find -->
<g id="edge15" class="edge">
<title>simple_map::borrow&#45;&gt;simple_map::find</title>
<path fill="none" stroke="black" d="M577,-336.82C577,-326.69 577,-313.6 577,-301.92"/>
<polygon fill="black" stroke="black" points="580.5,-301.95 577,-291.95 573.5,-301.95 580.5,-301.95"/>
</g>
<!-- simple_map::contains_key -->
<g id="node16" class="node">
<title>simple_map::contains_key</title>
<ellipse fill="none" stroke="black" cx="689" cy="-355" rx="57.39" ry="18"/>
<text text-anchor="middle" x="689" y="-351.3" font-family="Times,serif" font-size="14.00">contains_key</text>
</g>
<!-- contains_key&#45;&gt;simple_map::contains_key -->
<g id="edge16" class="edge">
<title>contains_key&#45;&gt;simple_map::contains_key</title>
<path fill="none" stroke="black" d="M678.76,-419.82C680.4,-409.58 682.53,-396.33 684.42,-384.55"/>
<polygon fill="black" stroke="black" points="687.83,-385.36 685.96,-374.93 680.92,-384.25 687.83,-385.36"/>
</g>
<!-- option::extract&#45;&gt;option::is_some -->
<g id="edge17" class="edge">
<title>option::extract&#45;&gt;option::is_some</title>
<path fill="none" stroke="black" d="M655.52,-170.7C654.89,-163.41 654.15,-154.73 653.45,-146.54"/>
<polygon fill="black" stroke="black" points="656.94,-146.28 652.6,-136.61 649.96,-146.87 656.94,-146.28"/>
</g>
<!-- vector::is_empty -->
<g id="node17" class="node">
<title>vector::is_empty</title>
<ellipse fill="none" stroke="black" cx="639" cy="-34" rx="43.59" ry="18"/>
<text text-anchor="middle" x="639" y="-30.3" font-family="Times,serif" font-size="14.00">is_empty</text>
</g>
<!-- option::is_some&#45;&gt;vector::is_empty -->
<g id="edge18" class="edge">
<title>option::is_some&#45;&gt;vector::is_empty</title>
<path fill="none" stroke="black" d="M648.46,-98.82C646.94,-88.58 644.97,-75.33 643.23,-63.55"/>
<polygon fill="black" stroke="black" points="646.73,-63.31 641.8,-53.93 639.81,-64.33 646.73,-63.31"/>
</g>
<!-- error::invalid_argument&#45;&gt;error::canonical -->
<g id="edge19" class="edge">
<title>error::invalid_argument&#45;&gt;error::canonical</title>
<path fill="none" stroke="black" d="M358.67,-254.22C348.21,-242.77 334.19,-227.42 322.48,-214.6"/>
<polygon fill="black" stroke="black" points="325.16,-212.35 315.83,-207.33 319.99,-217.07 325.16,-212.35"/>
</g>
<!-- option::none -->
<g id="node18" class="node">
<title>option::none</title>
<ellipse fill="none" stroke="black" cx="577" cy="-189" rx="27.9" ry="18"/>
<text text-anchor="middle" x="577" y="-185.3" font-family="Times,serif" font-size="14.00">none</text>
</g>
<!-- simple_map::find&#45;&gt;option::none -->
<g id="edge20" class="edge">
<title>simple_map::find&#45;&gt;option::none</title>
<path fill="none" stroke="black" d="M577,-253.82C577,-243.69 577,-230.6 577,-218.92"/>
<polygon fill="black" stroke="black" points="580.5,-218.95 577,-208.95 573.5,-218.95 580.5,-218.95"/>
</g>
<!-- option::some -->
<g id="node19" class="node">
<title>option::some</title>
<ellipse fill="none" stroke="black" cx="501" cy="-189" rx="29.8" ry="18"/>
<text text-anchor="middle" x="501" y="-185.3" font-family="Times,serif" font-size="14.00">some</text>
</g>
<!-- simple_map::find&#45;&gt;option::some -->
<g id="edge21" class="edge">
<title>simple_map::find&#45;&gt;option::some</title>
<path fill="none" stroke="black" d="M560.64,-257.4C554.01,-251.65 546.42,-244.72 540,-238 533.04,-230.71 525.94,-222.32 519.74,-214.61"/>
<polygon fill="black" stroke="black" points="522.57,-212.54 513.63,-206.85 517.07,-216.87 522.57,-212.54"/>
</g>
<!-- simple_map::contains_key&#45;&gt;option::is_some -->
<g id="edge22" class="edge">
<title>simple_map::contains_key&#45;&gt;option::is_some</title>
<path fill="none" stroke="black" d="M717.04,-339.04C723.44,-334.19 729.41,-328.17 733,-321 764.4,-258.19 768.77,-223.43 733,-163 724.46,-148.58 709.49,-138.47 694.65,-131.55"/>
<polygon fill="black" stroke="black" points="696.45,-128.51 685.87,-127.83 693.72,-134.95 696.45,-128.51"/>
</g>
<!-- simple_map::contains_key&#45;&gt;simple_map::find -->
<g id="edge23" class="edge">
<title>simple_map::contains_key&#45;&gt;simple_map::find</title>
<path fill="none" stroke="black" d="M666.87,-338C648.77,-324.9 623.09,-306.34 603.82,-292.4"/>
<polygon fill="black" stroke="black" points="606.05,-289.69 595.89,-286.66 601.94,-295.36 606.05,-289.69"/>
</g>
<!-- vector::singleton -->
<g id="node20" class="node">
<title>vector::singleton</title>
<ellipse fill="none" stroke="black" cx="535" cy="-34" rx="42.79" ry="18"/>
<text text-anchor="middle" x="535" y="-30.3" font-family="Times,serif" font-size="14.00">singleton</text>
</g>
<!-- option::some&#45;&gt;vector::singleton -->
<g id="edge24" class="edge">
<title>option::some&#45;&gt;vector::singleton</title>
<path fill="none" stroke="black" d="M504.83,-170.75C510.62,-144.69 521.67,-95.01 528.66,-63.52"/>
<polygon fill="black" stroke="black" points="532.05,-64.42 530.8,-53.9 525.21,-62.91 532.05,-64.42"/>
</g>
</g>
</svg>
