<?xml version="1.0" encoding="UTF-8" standalone="no"?>
<!DOCTYPE svg PUBLIC "-//W3C//DTD SVG 1.1//EN"
 "http://www.w3.org/Graphics/SVG/1.1/DTD/svg11.dtd">
<!-- Generated by graphviz version 7.0.4 (20221203.1631)
 -->
<!-- Title: G Pages: 1 -->
<svg width="1358pt" height="371pt"
 viewBox="0.00 0.00 1357.54 371.00" xmlns="http://www.w3.org/2000/svg" xmlns:xlink="http://www.w3.org/1999/xlink">
<g id="graph0" class="graph" transform="scale(1 1) rotate(0) translate(4 367)">
<title>G</title>
<polygon fill="white" stroke="none" points="-4,4 -4,-367 1353.54,-367 1353.54,4 -4,4"/>
<g id="clust1" class="cluster">
<title>cluster_token</title>
<polygon fill="none" stroke="black" points="665.54,-136 665.54,-355 1341.54,-355 1341.54,-136 665.54,-136"/>
<text text-anchor="middle" x="1003.54" y="-339.8" font-family="Times,serif" font-size="14.00">token</text>
</g>
<!-- contains_key -->
<g id="node1" class="node">
<title>contains_key</title>
<ellipse fill="none" stroke="black" cx="987.54" cy="-18" rx="57.39" ry="18"/>
<text text-anchor="middle" x="987.54" y="-14.3" font-family="Times,serif" font-size="14.00">contains_key</text>
</g>
<!-- borrow -->
<g id="node2" class="node">
<title>borrow</title>
<ellipse fill="none" stroke="black" cx="462.54" cy="-90" rx="36.29" ry="18"/>
<text text-anchor="middle" x="462.54" y="-86.3" font-family="Times,serif" font-size="14.00">borrow</text>
</g>
<!-- borrow&#45;&gt;contains_key -->
<g id="edge1" class="edge">
<title>borrow&#45;&gt;contains_key</title>
<path fill="none" stroke="black" d="M497.4,-84.35C584.44,-72.75 812.33,-42.36 924,-27.47"/>
<polygon fill="black" stroke="black" points="924.46,-30.94 933.91,-26.15 923.54,-24 924.46,-30.94"/>
</g>
<!-- remove -->
<g id="node3" class="node">
<title>remove</title>
<ellipse fill="none" stroke="black" cx="727.54" cy="-90" rx="37.89" ry="18"/>
<text text-anchor="middle" x="727.54" y="-86.3" font-family="Times,serif" font-size="14.00">remove</text>
</g>
<!-- remove&#45;&gt;contains_key -->
<g id="edge2" class="edge">
<title>remove&#45;&gt;contains_key</title>
<path fill="none" stroke="black" d="M756.47,-78.01C762.41,-75.9 768.65,-73.79 774.54,-72 826.75,-56.11 887.2,-41.41 930.34,-31.55"/>
<polygon fill="black" stroke="black" points="931.01,-34.98 939.99,-29.35 929.46,-28.16 931.01,-34.98"/>
</g>
<!-- update_property_map -->
<g id="node4" class="node">
<title>update_property_map</title>
<ellipse fill="none" stroke="black" cx="871.54" cy="-90" rx="88.28" ry="18"/>
<text text-anchor="middle" x="871.54" y="-86.3" font-family="Times,serif" font-size="14.00">update_property_map</text>
</g>
<!-- update_property_map&#45;&gt;contains_key -->
<g id="edge3" class="edge">
<title>update_property_map&#45;&gt;contains_key</title>
<path fill="none" stroke="black" d="M899.04,-72.41C914.94,-62.81 935.13,-50.63 952.2,-40.33"/>
<polygon fill="black" stroke="black" points="953.79,-43.46 960.55,-35.29 950.18,-37.46 953.79,-43.46"/>
</g>
<!-- token::burn -->
<g id="node5" class="node">
<title>token::burn</title>
<ellipse fill="none" stroke="black" cx="700.54" cy="-306" rx="27" ry="18"/>
<text text-anchor="middle" x="700.54" y="-302.3" font-family="Times,serif" font-size="14.00">burn</text>
</g>
<!-- token::burn&#45;&gt;contains_key -->
<g id="edge4" class="edge">
<title>token::burn&#45;&gt;contains_key</title>
<path fill="none" stroke="black" d="M721.08,-294.08C726.04,-291.79 731.39,-289.59 736.54,-288 834.16,-257.89 884.42,-316.6 963.54,-252 1027.18,-200.05 1018.93,-153.05 1005.54,-72 1004.17,-63.66 1001.65,-54.87 998.92,-46.89"/>
<polygon fill="black" stroke="black" points="1002.28,-45.89 995.55,-37.72 995.71,-48.31 1002.28,-45.89"/>
</g>
<!-- read_bool -->
<g id="node10" class="node">
<title>read_bool</title>
<ellipse fill="none" stroke="black" cx="177.54" cy="-162" rx="46.29" ry="18"/>
<text text-anchor="middle" x="177.54" y="-158.3" font-family="Times,serif" font-size="14.00">read_bool</text>
</g>
<!-- token::burn&#45;&gt;read_bool -->
<g id="edge17" class="edge">
<title>token::burn&#45;&gt;read_bool</title>
<path fill="none" stroke="black" d="M675.34,-298.63C605.02,-280.8 400.84,-228.46 232.54,-180 229.63,-179.16 226.63,-178.28 223.61,-177.38"/>
<polygon fill="black" stroke="black" points="224.73,-174.06 214.14,-174.52 222.7,-180.76 224.73,-174.06"/>
</g>
<!-- token::burn_by_creator -->
<g id="node6" class="node">
<title>token::burn_by_creator</title>
<ellipse fill="none" stroke="black" cx="814.54" cy="-306" rx="68.79" ry="18"/>
<text text-anchor="middle" x="814.54" y="-302.3" font-family="Times,serif" font-size="14.00">burn_by_creator</text>
</g>
<!-- token::burn_by_creator&#45;&gt;contains_key -->
<g id="edge5" class="edge">
<title>token::burn_by_creator&#45;&gt;contains_key</title>
<path fill="none" stroke="black" d="M865.93,-293.72C931.48,-279.21 1036.8,-255.46 1039.54,-252 1089.21,-189.28 1069.81,-146.06 1039.54,-72 1035.01,-60.9 1026.91,-50.87 1018.43,-42.6"/>
<polygon fill="black" stroke="black" points="1020.83,-40.06 1011.06,-35.95 1016.14,-45.25 1020.83,-40.06"/>
</g>
<!-- token::burn_by_creator&#45;&gt;read_bool -->
<g id="edge18" class="edge">
<title>token::burn_by_creator&#45;&gt;read_bool</title>
<path fill="none" stroke="black" d="M767.17,-292.51C697.02,-274.27 561.21,-239.91 444.54,-216 350.92,-196.81 325.51,-202.16 232.54,-180 229.4,-179.25 226.17,-178.42 222.93,-177.54"/>
<polygon fill="black" stroke="black" points="224.01,-174.21 213.43,-174.82 222.08,-180.93 224.01,-174.21"/>
</g>
<!-- token::mutate_one_token -->
<g id="node7" class="node">
<title>token::mutate_one_token</title>
<ellipse fill="none" stroke="black" cx="878.54" cy="-234" rx="76.09" ry="18"/>
<text text-anchor="middle" x="878.54" y="-230.3" font-family="Times,serif" font-size="14.00">mutate_one_token</text>
</g>
<!-- token::mutate_one_token&#45;&gt;contains_key -->
<g id="edge6" class="edge">
<title>token::mutate_one_token&#45;&gt;contains_key</title>
<path fill="none" stroke="black" d="M919.54,-218.59C937.5,-210.15 957.05,-197.62 968.54,-180 994.82,-139.72 994.49,-81.5 991.36,-47.22"/>
<polygon fill="black" stroke="black" points="994.88,-47.23 990.33,-37.66 987.92,-47.98 994.88,-47.23"/>
</g>
<!-- token::mutate_one_token&#45;&gt;read_bool -->
<g id="edge19" class="edge">
<title>token::mutate_one_token&#45;&gt;read_bool</title>
<path fill="none" stroke="black" d="M804.9,-228.98C659.52,-220.72 340.41,-200.84 232.54,-180 229.17,-179.35 225.71,-178.56 222.25,-177.7"/>
<polygon fill="black" stroke="black" points="223.31,-174.36 212.74,-175.09 221.46,-181.11 223.31,-174.36"/>
</g>
<!-- token::update_token_property_internal -->
<g id="node15" class="node">
<title>token::update_token_property_internal</title>
<ellipse fill="none" stroke="black" cx="836.54" cy="-162" rx="123.48" ry="18"/>
<text text-anchor="middle" x="836.54" y="-158.3" font-family="Times,serif" font-size="14.00">update_token_property_internal</text>
</g>
<!-- token::mutate_one_token&#45;&gt;token::update_token_property_internal -->
<g id="edge20" class="edge">
<title>token::mutate_one_token&#45;&gt;token::update_token_property_internal</title>
<path fill="none" stroke="black" d="M868.16,-215.7C863.48,-207.9 857.85,-198.51 852.64,-189.83"/>
<polygon fill="black" stroke="black" points="855.73,-188.18 847.59,-181.4 849.73,-191.78 855.73,-188.18"/>
</g>
<!-- token::mutate_tokendata_property -->
<g id="node8" class="node">
<title>token::mutate_tokendata_property</title>
<ellipse fill="none" stroke="black" cx="1009.54" cy="-306" rx="107.78" ry="18"/>
<text text-anchor="middle" x="1009.54" y="-302.3" font-family="Times,serif" font-size="14.00">mutate_tokendata_property</text>
</g>
<!-- token::mutate_tokendata_property&#45;&gt;contains_key -->
<g id="edge7" class="edge">
<title>token::mutate_tokendata_property&#45;&gt;contains_key</title>
<path fill="none" stroke="black" d="M1041.83,-288.55C1055.5,-279.73 1069.99,-267.47 1077.54,-252 1112.66,-180.12 1117.25,-141.45 1077.54,-72 1068.54,-56.25 1052.82,-44.71 1037.01,-36.5"/>
<polygon fill="black" stroke="black" points="1038.58,-33.37 1028.05,-32.23 1035.57,-39.69 1038.58,-33.37"/>
</g>
<!-- token::mutate_tokendata_property&#45;&gt;borrow -->
<g id="edge14" class="edge">
<title>token::mutate_tokendata_property&#45;&gt;borrow</title>
<path fill="none" stroke="black" d="M928.39,-293.79C886.57,-285.89 835.66,-272.89 793.54,-252 747.96,-229.39 741.1,-215.39 704.54,-180 685.98,-162.03 688.74,-149.24 666.54,-136 618.32,-107.24 553.82,-96.81 510.37,-93.05"/>
<polygon fill="black" stroke="black" points="510.72,-89.57 500.48,-92.3 510.19,-96.55 510.72,-89.57"/>
</g>
<!-- read_address -->
<g id="node9" class="node">
<title>read_address</title>
<ellipse fill="none" stroke="black" cx="56.54" cy="-162" rx="56.59" ry="18"/>
<text text-anchor="middle" x="56.54" y="-158.3" font-family="Times,serif" font-size="14.00">read_address</text>
</g>
<!-- read_address&#45;&gt;borrow -->
<g id="edge8" class="edge">
<title>read_address&#45;&gt;borrow</title>
<path fill="none" stroke="black" d="M89.3,-146.89C99.76,-142.84 111.5,-138.78 122.54,-136 224.94,-110.2 348.64,-98.55 414.99,-93.83"/>
<polygon fill="black" stroke="black" points="415.05,-97.33 424.79,-93.15 414.57,-90.35 415.05,-97.33"/>
</g>
<!-- read_bool&#45;&gt;borrow -->
<g id="edge9" class="edge">
<title>read_bool&#45;&gt;borrow</title>
<path fill="none" stroke="black" d="M204.74,-147.12C213.46,-143.09 223.26,-138.97 232.54,-136 294.7,-116.1 369.27,-103.47 416.29,-96.81"/>
<polygon fill="black" stroke="black" points="416.69,-100.29 426.12,-95.45 415.74,-93.35 416.69,-100.29"/>
</g>
<!-- read_string -->
<g id="node11" class="node">
<title>read_string</title>
<ellipse fill="none" stroke="black" cx="291.54" cy="-162" rx="50.09" ry="18"/>
<text text-anchor="middle" x="291.54" y="-158.3" font-family="Times,serif" font-size="14.00">read_string</text>
</g>
<!-- read_string&#45;&gt;borrow -->
<g id="edge10" class="edge">
<title>read_string&#45;&gt;borrow</title>
<path fill="none" stroke="black" d="M323.04,-147.53C331.92,-143.76 341.6,-139.69 350.54,-136 375.07,-125.88 402.73,-114.76 424.43,-106.11"/>
<polygon fill="black" stroke="black" points="425.47,-109.46 433.46,-102.51 422.88,-102.96 425.47,-109.46"/>
</g>
<!-- read_u128 -->
<g id="node12" class="node">
<title>read_u128</title>
<ellipse fill="none" stroke="black" cx="407.54" cy="-162" rx="48.19" ry="18"/>
<text text-anchor="middle" x="407.54" y="-158.3" font-family="Times,serif" font-size="14.00">read_u128</text>
</g>
<!-- read_u128&#45;&gt;borrow -->
<g id="edge11" class="edge">
<title>read_u128&#45;&gt;borrow</title>
<path fill="none" stroke="black" d="M420.58,-144.41C427.25,-135.92 435.51,-125.41 442.93,-115.96"/>
<polygon fill="black" stroke="black" points="445.62,-118.2 449.05,-108.18 440.12,-113.88 445.62,-118.2"/>
</g>
<!-- read_u64 -->
<g id="node13" class="node">
<title>read_u64</title>
<ellipse fill="none" stroke="black" cx="517.54" cy="-162" rx="43.59" ry="18"/>
<text text-anchor="middle" x="517.54" y="-158.3" font-family="Times,serif" font-size="14.00">read_u64</text>
</g>
<!-- read_u64&#45;&gt;borrow -->
<g id="edge12" class="edge">
<title>read_u64&#45;&gt;borrow</title>
<path fill="none" stroke="black" d="M504.51,-144.41C497.84,-135.92 489.58,-125.41 482.16,-115.96"/>
<polygon fill="black" stroke="black" points="484.97,-113.88 476.04,-108.18 479.47,-118.2 484.97,-113.88"/>
</g>
<!-- read_u8 -->
<g id="node14" class="node">
<title>read_u8</title>
<ellipse fill="none" stroke="black" cx="618.54" cy="-162" rx="38.99" ry="18"/>
<text text-anchor="middle" x="618.54" y="-158.3" font-family="Times,serif" font-size="14.00">read_u8</text>
</g>
<!-- read_u8&#45;&gt;borrow -->
<g id="edge13" class="edge">
<title>read_u8&#45;&gt;borrow</title>
<path fill="none" stroke="black" d="M593.83,-147.62C586.41,-143.74 578.2,-139.58 570.54,-136 547.77,-125.35 521.78,-114.48 501,-106.09"/>
<polygon fill="black" stroke="black" points="502.34,-102.86 491.76,-102.39 499.74,-109.36 502.34,-102.86"/>
</g>
<!-- token::update_token_property_internal&#45;&gt;update_property_map -->
<g id="edge15" class="edge">
<title>token::update_token_property_internal&#45;&gt;update_property_map</title>
<path fill="none" stroke="black" d="M845.2,-143.7C849.01,-136.07 853.59,-126.92 857.85,-118.4"/>
<polygon fill="black" stroke="black" points="860.97,-119.97 862.32,-109.46 854.71,-116.84 860.97,-119.97"/>
</g>
<!-- token::mutate_token_properties -->
<g id="node16" class="node">
<title>token::mutate_token_properties</title>
<ellipse fill="none" stroke="black" cx="1234.54" cy="-306" rx="98.58" ry="18"/>
<text text-anchor="middle" x="1234.54" y="-302.3" font-family="Times,serif" font-size="14.00">mutate_token_properties</text>
</g>
<!-- token::mutate_token_properties&#45;&gt;token::mutate_one_token -->
<g id="edge16" class="edge">
<title>token::mutate_token_properties&#45;&gt;token::mutate_one_token</title>
<path fill="none" stroke="black" d="M1169.25,-292.16C1106.19,-279.76 1011.08,-261.06 946.98,-248.46"/>
<polygon fill="black" stroke="black" points="947.76,-245.04 937.27,-246.55 946.41,-251.91 947.76,-245.04"/>
</g>
</g>
</svg>
