<?xml version="1.0" encoding="UTF-8" standalone="no"?>
<!DOCTYPE svg PUBLIC "-//W3C//DTD SVG 1.1//EN"
 "http://www.w3.org/Graphics/SVG/1.1/DTD/svg11.dtd">
<!-- Generated by graphviz version 7.0.4 (20221203.1631)
 -->
<!-- Title: G Pages: 1 -->
<svg width="436pt" height="155pt"
 viewBox="0.00 0.00 436.04 155.00" xmlns="http://www.w3.org/2000/svg" xmlns:xlink="http://www.w3.org/1999/xlink">
<g id="graph0" class="graph" transform="scale(1 1) rotate(0) translate(4 151)">
<title>G</title>
<polygon fill="white" stroke="none" points="-4,4 -4,-151 432.04,-151 432.04,4 -4,4"/>
<g id="clust1" class="cluster">
<title>cluster_token</title>
<polygon fill="none" stroke="black" points="188.04,-64 188.04,-139 420.04,-139 420.04,-64 188.04,-64"/>
<text text-anchor="middle" x="304.04" y="-123.8" font-family="Times,serif" font-size="14.00">token</text>
</g>
<!-- create_property_value_raw -->
<g id="node1" class="node">
<title>create_property_value_raw</title>
<ellipse fill="none" stroke="black" cx="196.04" cy="-18" rx="106.68" ry="18"/>
<text text-anchor="middle" x="196.04" y="-14.3" font-family="Times,serif" font-size="14.00">create_property_value_raw</text>
</g>
<!-- create_property_value -->
<g id="node2" class="node">
<title>create_property_value</title>
<ellipse fill="none" stroke="black" cx="89.04" cy="-90" rx="89.08" ry="18"/>
<text text-anchor="middle" x="89.04" y="-86.3" font-family="Times,serif" font-size="14.00">create_property_value</text>
</g>
<!-- create_property_value&#45;&gt;create_property_value_raw -->
<g id="edge1" class="edge">
<title>create_property_value&#45;&gt;create_property_value_raw</title>
<path fill="none" stroke="black" d="M114.4,-72.41C128.29,-63.32 145.72,-51.92 160.9,-41.99"/>
<polygon fill="black" stroke="black" points="162.78,-44.94 169.23,-36.54 158.94,-39.09 162.78,-44.94"/>
</g>
<!-- token::mutate_tokendata_property -->
<g id="node3" class="node">
<title>token::mutate_tokendata_property</title>
<ellipse fill="none" stroke="black" cx="304.04" cy="-90" rx="107.78" ry="18"/>
<text text-anchor="middle" x="304.04" y="-86.3" font-family="Times,serif" font-size="14.00">mutate_tokendata_property</text>
</g>
<!-- token::mutate_tokendata_property&#45;&gt;create_property_value_raw -->
<g id="edge2" class="edge">
<title>token::mutate_tokendata_property&#45;&gt;create_property_value_raw</title>
<path fill="none" stroke="black" d="M277.9,-72.05C263.97,-63.03 246.63,-51.79 231.51,-41.99"/>
<polygon fill="black" stroke="black" points="233.51,-39.11 223.22,-36.61 229.7,-44.99 233.51,-39.11"/>
</g>
</g>
</svg>
