<?xml version="1.0" encoding="UTF-8" standalone="no"?>
<!DOCTYPE svg PUBLIC "-//W3C//DTD SVG 1.1//EN"
 "http://www.w3.org/Graphics/SVG/1.1/DTD/svg11.dtd">
<!-- Generated by graphviz version 7.0.4 (20221203.1631)
 -->
<!-- Title: G Pages: 1 -->
<svg width="629pt" height="520pt"
 viewBox="0.00 0.00 629.29 520.00" xmlns="http://www.w3.org/2000/svg" xmlns:xlink="http://www.w3.org/1999/xlink">
<g id="graph0" class="graph" transform="scale(1 1) rotate(0) translate(4 516)">
<title>G</title>
<polygon fill="white" stroke="none" points="-4,4 -4,-516 625.29,-516 625.29,4 -4,4"/>
<g id="clust1" class="cluster">
<title>cluster_error</title>
<polygon fill="none" stroke="black" points="8,-163 8,-321 282,-321 282,-163 8,-163"/>
<text text-anchor="middle" x="145" y="-305.8" font-family="Times,serif" font-size="14.00">error</text>
</g>
<g id="clust2" class="cluster">
<title>cluster_simple_map</title>
<polygon fill="none" stroke="black" points="312,-246 312,-396 536,-396 536,-246 312,-246"/>
<text text-anchor="middle" x="424" y="-380.8" font-family="Times,serif" font-size="14.00">simple_map</text>
</g>
<g id="clust3" class="cluster">
<title>cluster_vector</title>
<polygon fill="none" stroke="black" points="74,-8 74,-155 314,-155 314,-8 74,-8"/>
<text text-anchor="middle" x="194" y="-139.8" font-family="Times,serif" font-size="14.00">vector</text>
</g>
<g id="clust4" class="cluster">
<title>cluster_option</title>
<polygon fill="none" stroke="black" points="322,-80 322,-238 558,-238 558,-80 322,-80"/>
<text text-anchor="middle" x="440" y="-222.8" font-family="Times,serif" font-size="14.00">option</text>
</g>
<!-- remove -->
<g id="node1" class="node">
<title>remove</title>
<ellipse fill="none" stroke="black" cx="358" cy="-494" rx="37.89" ry="18"/>
<text text-anchor="middle" x="358" y="-490.3" font-family="Times,serif" font-size="14.00">remove</text>
</g>
<!-- error::not_found -->
<g id="node2" class="node">
<title>error::not_found</title>
<ellipse fill="none" stroke="black" cx="63" cy="-272" rx="46.59" ry="18"/>
<text text-anchor="middle" x="63" y="-268.3" font-family="Times,serif" font-size="14.00">not_found</text>
</g>
<!-- remove&#45;&gt;error::not_found -->
<g id="edge1" class="edge">
<title>remove&#45;&gt;error::not_found</title>
<path fill="none" stroke="black" d="M336.78,-478.63C294.52,-449.81 197.17,-382.45 119,-321 109.08,-313.2 98.51,-304.3 89.24,-296.29"/>
<polygon fill="black" stroke="black" points="91.81,-293.89 81.97,-289.96 87.21,-299.17 91.81,-293.89"/>
</g>
<!-- simple_map::remove -->
<g id="node3" class="node">
<title>simple_map::remove</title>
<ellipse fill="none" stroke="black" cx="358" cy="-347" rx="37.89" ry="18"/>
<text text-anchor="middle" x="358" y="-343.3" font-family="Times,serif" font-size="14.00">remove</text>
</g>
<!-- remove&#45;&gt;simple_map::remove -->
<g id="edge2" class="edge">
<title>remove&#45;&gt;simple_map::remove</title>
<path fill="none" stroke="black" d="M358,-475.51C358,-450.88 358,-405.71 358,-376.28"/>
<polygon fill="black" stroke="black" points="361.5,-376.62 358,-366.62 354.5,-376.62 361.5,-376.62"/>
</g>
<!-- contains_key -->
<g id="node4" class="node">
<title>contains_key</title>
<ellipse fill="none" stroke="black" cx="457" cy="-422" rx="57.39" ry="18"/>
<text text-anchor="middle" x="457" y="-418.3" font-family="Times,serif" font-size="14.00">contains_key</text>
</g>
<!-- remove&#45;&gt;contains_key -->
<g id="edge3" class="edge">
<title>remove&#45;&gt;contains_key</title>
<path fill="none" stroke="black" d="M378.51,-478.5C392.02,-468.95 409.97,-456.25 425.3,-445.41"/>
<polygon fill="black" stroke="black" points="427.06,-448.45 433.21,-439.82 423.02,-442.74 427.06,-448.45"/>
</g>
<!-- error::canonical -->
<g id="node5" class="node">
<title>error::canonical</title>
<ellipse fill="none" stroke="black" cx="132" cy="-189" rx="44.39" ry="18"/>
<text text-anchor="middle" x="132" y="-185.3" font-family="Times,serif" font-size="14.00">canonical</text>
</g>
<!-- error::not_found&#45;&gt;error::canonical -->
<g id="edge4" class="edge">
<title>error::not_found&#45;&gt;error::canonical</title>
<path fill="none" stroke="black" d="M76.96,-254.61C86.69,-243.19 99.84,-227.75 110.85,-214.83"/>
<polygon fill="black" stroke="black" points="113.26,-217.4 117.08,-207.52 107.93,-212.86 113.26,-217.4"/>
</g>
<!-- vector::swap_remove -->
<g id="node6" class="node">
<title>vector::swap_remove</title>
<ellipse fill="none" stroke="black" cx="142" cy="-106" rx="59.59" ry="18"/>
<text text-anchor="middle" x="142" y="-102.3" font-family="Times,serif" font-size="14.00">swap_remove</text>
</g>
<!-- simple_map::remove&#45;&gt;vector::swap_remove -->
<g id="edge5" class="edge">
<title>simple_map::remove&#45;&gt;vector::swap_remove</title>
<path fill="none" stroke="black" d="M351.61,-329.07C334.64,-284.25 289.52,-165.68 286,-163 272.67,-152.84 226.7,-160.86 211,-155 196,-149.41 181.19,-139.79 169.16,-130.64"/>
<polygon fill="black" stroke="black" points="171.34,-127.9 161.34,-124.41 166.99,-133.38 171.34,-127.9"/>
</g>
<!-- option::extract -->
<g id="node7" class="node">
<title>option::extract</title>
<ellipse fill="none" stroke="black" cx="516" cy="-189" rx="34.39" ry="18"/>
<text text-anchor="middle" x="516" y="-185.3" font-family="Times,serif" font-size="14.00">extract</text>
</g>
<!-- simple_map::remove&#45;&gt;option::extract -->
<g id="edge6" class="edge">
<title>simple_map::remove&#45;&gt;option::extract</title>
<path fill="none" stroke="black" d="M387.24,-335.12C393.1,-333.03 399.23,-330.9 405,-329 416.89,-325.09 421.99,-328.52 432,-321 467.82,-294.09 492.48,-247.08 505.41,-217.3"/>
<polygon fill="black" stroke="black" points="508.58,-218.78 509.2,-208.2 502.12,-216.08 508.58,-218.78"/>
</g>
<!-- option::is_some -->
<g id="node8" class="node">
<title>option::is_some</title>
<ellipse fill="none" stroke="black" cx="510" cy="-106" rx="40.09" ry="18"/>
<text text-anchor="middle" x="510" y="-102.3" font-family="Times,serif" font-size="14.00">is_some</text>
</g>
<!-- simple_map::remove&#45;&gt;option::is_some -->
<g id="edge7" class="edge">
<title>simple_map::remove&#45;&gt;option::is_some</title>
<path fill="none" stroke="black" d="M386.01,-334.66C392.18,-332.51 398.75,-330.47 405,-329 435.49,-321.85 446.76,-334.52 475,-321 522.34,-298.33 538.77,-286.43 559,-238 571.85,-207.24 570.72,-194.2 559,-163 554.37,-150.69 545.67,-139.31 536.88,-130.07"/>
<polygon fill="black" stroke="black" points="539.55,-127.79 529.96,-123.28 534.64,-132.78 539.55,-127.79"/>
</g>
<!-- error::invalid_argument -->
<g id="node9" class="node">
<title>error::invalid_argument</title>
<ellipse fill="none" stroke="black" cx="201" cy="-272" rx="73.39" ry="18"/>
<text text-anchor="middle" x="201" y="-268.3" font-family="Times,serif" font-size="14.00">invalid_argument</text>
</g>
<!-- simple_map::remove&#45;&gt;error::invalid_argument -->
<g id="edge8" class="edge">
<title>simple_map::remove&#45;&gt;error::invalid_argument</title>
<path fill="none" stroke="black" d="M327.26,-336.22C314.88,-331.97 300.59,-326.68 288,-321 270.84,-313.26 252.51,-303.4 237.12,-294.63"/>
<polygon fill="black" stroke="black" points="239.19,-291.79 228.78,-289.82 235.69,-297.85 239.19,-291.79"/>
</g>
<!-- simple_map::find -->
<g id="node10" class="node">
<title>simple_map::find</title>
<ellipse fill="none" stroke="black" cx="396" cy="-272" rx="27" ry="18"/>
<text text-anchor="middle" x="396" y="-268.3" font-family="Times,serif" font-size="14.00">find</text>
</g>
<!-- simple_map::remove&#45;&gt;simple_map::find -->
<g id="edge9" class="edge">
<title>simple_map::remove&#45;&gt;simple_map::find</title>
<path fill="none" stroke="black" d="M366.81,-329.07C371.39,-320.28 377.08,-309.35 382.22,-299.48"/>
<polygon fill="black" stroke="black" points="385.28,-301.17 386.8,-290.68 379.07,-297.93 385.28,-301.17"/>
</g>
<!-- simple_map::contains_key -->
<g id="node11" class="node">
<title>simple_map::contains_key</title>
<ellipse fill="none" stroke="black" cx="471" cy="-347" rx="57.39" ry="18"/>
<text text-anchor="middle" x="471" y="-343.3" font-family="Times,serif" font-size="14.00">contains_key</text>
</g>
<!-- contains_key&#45;&gt;simple_map::contains_key -->
<g id="edge10" class="edge">
<title>contains_key&#45;&gt;simple_map::contains_key</title>
<path fill="none" stroke="black" d="M460.32,-403.7C461.88,-395.58 463.77,-385.68 465.54,-376.5"/>
<polygon fill="black" stroke="black" points="468.93,-377.4 467.37,-366.92 462.05,-376.08 468.93,-377.4"/>
</g>
<!-- vector::is_empty -->
<g id="node12" class="node">
<title>vector::is_empty</title>
<ellipse fill="none" stroke="black" cx="202" cy="-34" rx="43.59" ry="18"/>
<text text-anchor="middle" x="202" y="-30.3" font-family="Times,serif" font-size="14.00">is_empty</text>
</g>
<!-- vector::swap_remove&#45;&gt;vector::is_empty -->
<g id="edge11" class="edge">
<title>vector::swap_remove&#45;&gt;vector::is_empty</title>
<path fill="none" stroke="black" d="M156.52,-88.05C163.78,-79.59 172.69,-69.19 180.7,-59.84"/>
<polygon fill="black" stroke="black" points="183.19,-62.33 187.04,-52.46 177.87,-57.77 183.19,-62.33"/>
</g>
<!-- option::extract&#45;&gt;option::is_some -->
<g id="edge12" class="edge">
<title>option::extract&#45;&gt;option::is_some</title>
<path fill="none" stroke="black" d="M514.73,-170.82C513.97,-160.58 512.99,-147.33 512.11,-135.55"/>
<polygon fill="black" stroke="black" points="515.63,-135.66 511.4,-125.94 508.65,-136.17 515.63,-135.66"/>
</g>
<!-- option::is_some&#45;&gt;vector::is_empty -->
<g id="edge13" class="edge">
<title>option::is_some&#45;&gt;vector::is_empty</title>
<path fill="none" stroke="black" d="M474.67,-96.97C419.48,-84.43 312.71,-60.16 250.4,-46"/>
<polygon fill="black" stroke="black" points="251.31,-42.62 240.79,-43.82 249.76,-49.44 251.31,-42.62"/>
</g>
<!-- error::invalid_argument&#45;&gt;error::canonical -->
<g id="edge14" class="edge">
<title>error::invalid_argument&#45;&gt;error::canonical</title>
<path fill="none" stroke="black" d="M186.7,-254.22C177.11,-242.96 164.3,-227.92 153.49,-215.22"/>
<polygon fill="black" stroke="black" points="156.17,-212.98 147.02,-207.64 150.84,-217.52 156.17,-212.98"/>
</g>
<!-- option::none -->
<g id="node13" class="node">
<title>option::none</title>
<ellipse fill="none" stroke="black" cx="358" cy="-189" rx="27.9" ry="18"/>
<text text-anchor="middle" x="358" y="-185.3" font-family="Times,serif" font-size="14.00">none</text>
</g>
<!-- simple_map::find&#45;&gt;option::none -->
<g id="edge15" class="edge">
<title>simple_map::find&#45;&gt;option::none</title>
<path fill="none" stroke="black" d="M388.31,-254.61C383.24,-243.81 376.49,-229.42 370.65,-216.96"/>
<polygon fill="black" stroke="black" points="373.87,-215.58 366.45,-208.02 367.53,-218.56 373.87,-215.58"/>
</g>
<!-- option::some -->
<g id="node14" class="node">
<title>option::some</title>
<ellipse fill="none" stroke="black" cx="434" cy="-189" rx="29.8" ry="18"/>
<text text-anchor="middle" x="434" y="-185.3" font-family="Times,serif" font-size="14.00">some</text>
</g>
<!-- simple_map::find&#45;&gt;option::some -->
<g id="edge16" class="edge">
<title>simple_map::find&#45;&gt;option::some</title>
<path fill="none" stroke="black" d="M403.69,-254.61C408.76,-243.81 415.51,-229.42 421.35,-216.96"/>
<polygon fill="black" stroke="black" points="424.47,-218.56 425.55,-208.02 418.13,-215.58 424.47,-218.56"/>
</g>
<!-- simple_map::contains_key&#45;&gt;option::is_some -->
<g id="edge17" class="edge">
<title>simple_map::contains_key&#45;&gt;option::is_some</title>
<path fill="none" stroke="black" d="M525.99,-341.36C553.79,-337.75 583.43,-331.52 592,-321 636.35,-266.55 624.79,-225.1 592,-163 582.87,-145.7 565.72,-132.74 549.46,-123.67"/>
<polygon fill="black" stroke="black" points="551.37,-120.71 540.88,-119.21 548.14,-126.92 551.37,-120.71"/>
</g>
<!-- simple_map::contains_key&#45;&gt;simple_map::find -->
<g id="edge18" class="edge">
<title>simple_map::contains_key&#45;&gt;simple_map::find</title>
<path fill="none" stroke="black" d="M453.98,-329.44C443.65,-319.38 430.32,-306.41 419.06,-295.44"/>
<polygon fill="black" stroke="black" points="421.61,-293.05 412.01,-288.58 416.73,-298.06 421.61,-293.05"/>
</g>
<!-- vector::singleton -->
<g id="node15" class="node">
<title>vector::singleton</title>
<ellipse fill="none" stroke="black" cx="263" cy="-106" rx="42.79" ry="18"/>
<text text-anchor="middle" x="263" y="-102.3" font-family="Times,serif" font-size="14.00">singleton</text>
</g>
<!-- option::some&#45;&gt;vector::singleton -->
<g id="edge19" class="edge">
<title>option::some&#45;&gt;vector::singleton</title>
<path fill="none" stroke="black" d="M416.27,-174.16C409.9,-169.88 402.44,-165.6 395,-163 362.53,-151.63 349.55,-168.73 318,-155 305.54,-149.58 293.88,-140.28 284.52,-131.31"/>
<polygon fill="black" stroke="black" points="287.19,-129.03 277.68,-124.35 282.2,-133.94 287.19,-129.03"/>
</g>
</g>
</svg>
