<?xml version="1.0" encoding="UTF-8" standalone="no"?>
<!DOCTYPE svg PUBLIC "-//W3C//DTD SVG 1.1//EN"
 "http://www.w3.org/Graphics/SVG/1.1/DTD/svg11.dtd">
<!-- Generated by graphviz version 7.0.4 (20221203.1631)
 -->
<!-- Title: G Pages: 1 -->
<svg width="667pt" height="603pt"
 viewBox="0.00 0.00 667.00 603.00" xmlns="http://www.w3.org/2000/svg" xmlns:xlink="http://www.w3.org/1999/xlink">
<g id="graph0" class="graph" transform="scale(1 1) rotate(0) translate(4 599)">
<title>G</title>
<polygon fill="white" stroke="none" points="-4,4 -4,-599 663,-599 663,4 -4,4"/>
<g id="clust1" class="cluster">
<title>cluster_string</title>
<polygon fill="none" stroke="black" points="8,-404 8,-551 186,-551 186,-404 8,-404"/>
<text text-anchor="middle" x="97" y="-535.8" font-family="Times,serif" font-size="14.00">string</text>
</g>
<g id="clust2" class="cluster">
<title>cluster_error</title>
<polygon fill="none" stroke="black" points="60,-163 60,-321 352,-321 352,-163 60,-163"/>
<text text-anchor="middle" x="206" y="-305.8" font-family="Times,serif" font-size="14.00">error</text>
</g>
<g id="clust3" class="cluster">
<title>cluster_from_bcs</title>
<polygon fill="none" stroke="black" points="194,-404 194,-551 312,-551 312,-404 194,-404"/>
<text text-anchor="middle" x="253" y="-535.8" font-family="Times,serif" font-size="14.00">from_bcs</text>
</g>
<g id="clust4" class="cluster">
<title>cluster_simple_map</title>
<polygon fill="none" stroke="black" points="430,-246 430,-396 651,-396 651,-246 430,-246"/>
<text text-anchor="middle" x="540.5" y="-380.8" font-family="Times,serif" font-size="14.00">simple_map</text>
</g>
<g id="clust5" class="cluster">
<title>cluster_option</title>
<polygon fill="none" stroke="black" points="360,-91 360,-238 596,-238 596,-91 360,-91"/>
<text text-anchor="middle" x="478" y="-222.8" font-family="Times,serif" font-size="14.00">option</text>
</g>
<g id="clust6" class="cluster">
<title>cluster_vector</title>
<polygon fill="none" stroke="black" points="381,-8 381,-83 588,-83 588,-8 381,-8"/>
<text text-anchor="middle" x="484.5" y="-67.8" font-family="Times,serif" font-size="14.00">vector</text>
</g>
<!-- read_u128 -->
<g id="node1" class="node">
<title>read_u128</title>
<ellipse fill="none" stroke="black" cx="297" cy="-577" rx="48.19" ry="18"/>
<text text-anchor="middle" x="297" y="-573.3" font-family="Times,serif" font-size="14.00">read_u128</text>
</g>
<!-- string::utf8 -->
<g id="node2" class="node">
<title>string::utf8</title>
<ellipse fill="none" stroke="black" cx="124" cy="-502" rx="27" ry="18"/>
<text text-anchor="middle" x="124" y="-498.3" font-family="Times,serif" font-size="14.00">utf8</text>
</g>
<!-- read_u128&#45;&gt;string::utf8 -->
<g id="edge1" class="edge">
<title>read_u128&#45;&gt;string::utf8</title>
<path fill="none" stroke="black" d="M252.49,-569.71C232.75,-565.89 209.6,-559.97 190,-551 175.16,-544.21 160.31,-533.81 148.46,-524.42"/>
<polygon fill="black" stroke="black" points="150.79,-521.8 140.84,-518.16 146.35,-527.21 150.79,-521.8"/>
</g>
<!-- error::invalid_state -->
<g id="node3" class="node">
<title>error::invalid_state</title>
<ellipse fill="none" stroke="black" cx="124" cy="-272" rx="55.79" ry="18"/>
<text text-anchor="middle" x="124" y="-268.3" font-family="Times,serif" font-size="14.00">invalid_state</text>
</g>
<!-- read_u128&#45;&gt;error::invalid_state -->
<g id="edge2" class="edge">
<title>read_u128&#45;&gt;error::invalid_state</title>
<path fill="none" stroke="black" d="M311.7,-559.65C313.46,-556.92 314.99,-554 316,-551 336.86,-489.09 347.09,-461.46 316,-404 283.91,-344.69 244.37,-359.49 189,-321 177.51,-313.01 165.1,-303.96 154.24,-295.88"/>
<polygon fill="black" stroke="black" points="156.47,-293.18 146.36,-290 152.28,-298.79 156.47,-293.18"/>
</g>
<!-- from_bcs::to_u128 -->
<g id="node4" class="node">
<title>from_bcs::to_u128</title>
<ellipse fill="none" stroke="black" cx="258" cy="-502" rx="39.79" ry="18"/>
<text text-anchor="middle" x="258" y="-498.3" font-family="Times,serif" font-size="14.00">to_u128</text>
</g>
<!-- read_u128&#45;&gt;from_bcs::to_u128 -->
<g id="edge3" class="edge">
<title>read_u128&#45;&gt;from_bcs::to_u128</title>
<path fill="none" stroke="black" d="M287.95,-559.07C283.33,-550.41 277.59,-539.66 272.37,-529.9"/>
<polygon fill="black" stroke="black" points="275.51,-528.35 267.71,-521.17 269.33,-531.64 275.51,-528.35"/>
</g>
<!-- borrow -->
<g id="node5" class="node">
<title>borrow</title>
<ellipse fill="none" stroke="black" cx="474" cy="-502" rx="36.29" ry="18"/>
<text text-anchor="middle" x="474" y="-498.3" font-family="Times,serif" font-size="14.00">borrow</text>
</g>
<!-- read_u128&#45;&gt;borrow -->
<g id="edge4" class="edge">
<title>read_u128&#45;&gt;borrow</title>
<path fill="none" stroke="black" d="M328.64,-562.95C358.84,-550.5 404.35,-531.73 436.39,-518.51"/>
<polygon fill="black" stroke="black" points="437.38,-521.89 445.29,-514.84 434.71,-515.42 437.38,-521.89"/>
</g>
<!-- string::internal_check_utf8 -->
<g id="node6" class="node">
<title>string::internal_check_utf8</title>
<ellipse fill="none" stroke="black" cx="97" cy="-430" rx="81.49" ry="18"/>
<text text-anchor="middle" x="97" y="-426.3" font-family="Times,serif" font-size="14.00">internal_check_utf8</text>
</g>
<!-- string::utf8&#45;&gt;string::internal_check_utf8 -->
<g id="edge5" class="edge">
<title>string::utf8&#45;&gt;string::internal_check_utf8</title>
<path fill="none" stroke="black" d="M117.46,-484.05C114.56,-476.52 111.05,-467.44 107.78,-458.94"/>
<polygon fill="black" stroke="black" points="111.07,-457.76 104.21,-449.69 104.54,-460.28 111.07,-457.76"/>
</g>
<!-- error::canonical -->
<g id="node7" class="node">
<title>error::canonical</title>
<ellipse fill="none" stroke="black" cx="197" cy="-189" rx="44.39" ry="18"/>
<text text-anchor="middle" x="197" y="-185.3" font-family="Times,serif" font-size="14.00">canonical</text>
</g>
<!-- error::invalid_state&#45;&gt;error::canonical -->
<g id="edge6" class="edge">
<title>error::invalid_state&#45;&gt;error::canonical</title>
<path fill="none" stroke="black" d="M139.13,-254.22C149.44,-242.77 163.27,-227.42 174.83,-214.6"/>
<polygon fill="black" stroke="black" points="177.28,-217.1 181.38,-207.33 172.08,-212.42 177.28,-217.1"/>
</g>
<!-- from_bcs::from_bytes -->
<g id="node8" class="node">
<title>from_bcs::from_bytes</title>
<ellipse fill="none" stroke="black" cx="253" cy="-430" rx="51.19" ry="18"/>
<text text-anchor="middle" x="253" y="-426.3" font-family="Times,serif" font-size="14.00">from_bytes</text>
</g>
<!-- from_bcs::to_u128&#45;&gt;from_bcs::from_bytes -->
<g id="edge7" class="edge">
<title>from_bcs::to_u128&#45;&gt;from_bcs::from_bytes</title>
<path fill="none" stroke="black" d="M256.76,-483.7C256.24,-476.41 255.62,-467.73 255.04,-459.54"/>
<polygon fill="black" stroke="black" points="258.53,-459.34 254.33,-449.61 251.55,-459.84 258.53,-459.34"/>
</g>
<!-- simple_map::borrow -->
<g id="node9" class="node">
<title>simple_map::borrow</title>
<ellipse fill="none" stroke="black" cx="474" cy="-347" rx="36.29" ry="18"/>
<text text-anchor="middle" x="474" y="-343.3" font-family="Times,serif" font-size="14.00">borrow</text>
</g>
<!-- borrow&#45;&gt;simple_map::borrow -->
<g id="edge8" class="edge">
<title>borrow&#45;&gt;simple_map::borrow</title>
<path fill="none" stroke="black" d="M474,-483.75C474,-457.81 474,-408.44 474,-376.93"/>
<polygon fill="black" stroke="black" points="477.5,-376.94 474,-366.94 470.5,-376.94 477.5,-376.94"/>
</g>
<!-- contains_key -->
<g id="node10" class="node">
<title>contains_key</title>
<ellipse fill="none" stroke="black" cx="572" cy="-430" rx="57.39" ry="18"/>
<text text-anchor="middle" x="572" y="-426.3" font-family="Times,serif" font-size="14.00">contains_key</text>
</g>
<!-- borrow&#45;&gt;contains_key -->
<g id="edge9" class="edge">
<title>borrow&#45;&gt;contains_key</title>
<path fill="none" stroke="black" d="M493.83,-486.83C507.26,-477.24 525.29,-464.36 540.65,-453.39"/>
<polygon fill="black" stroke="black" points="542.47,-456.39 548.57,-447.73 538.4,-450.7 542.47,-456.39"/>
</g>
<!-- option::extract -->
<g id="node11" class="node">
<title>option::extract</title>
<ellipse fill="none" stroke="black" cx="554" cy="-189" rx="34.39" ry="18"/>
<text text-anchor="middle" x="554" y="-185.3" font-family="Times,serif" font-size="14.00">extract</text>
</g>
<!-- simple_map::borrow&#45;&gt;option::extract -->
<g id="edge10" class="edge">
<title>simple_map::borrow&#45;&gt;option::extract</title>
<path fill="none" stroke="black" d="M497.59,-332.89C502.19,-329.49 506.62,-325.5 510,-321 533.06,-290.28 544.49,-246.74 549.81,-218.43"/>
<polygon fill="black" stroke="black" points="553.22,-219.26 551.48,-208.81 546.32,-218.06 553.22,-219.26"/>
</g>
<!-- option::is_some -->
<g id="node12" class="node">
<title>option::is_some</title>
<ellipse fill="none" stroke="black" cx="548" cy="-117" rx="40.09" ry="18"/>
<text text-anchor="middle" x="548" y="-113.3" font-family="Times,serif" font-size="14.00">is_some</text>
</g>
<!-- simple_map::borrow&#45;&gt;option::is_some -->
<g id="edge11" class="edge">
<title>simple_map::borrow&#45;&gt;option::is_some</title>
<path fill="none" stroke="black" d="M502.54,-335.46C520.58,-328.78 540.57,-321.34 541,-321 575.96,-293.46 583.99,-280.55 597,-238 606.75,-206.12 610.41,-193.52 597,-163 593.06,-154.03 586.35,-146.07 579.14,-139.42"/>
<polygon fill="black" stroke="black" points="581.66,-136.97 571.75,-133.23 577.16,-142.33 581.66,-136.97"/>
</g>
<!-- error::invalid_argument -->
<g id="node13" class="node">
<title>error::invalid_argument</title>
<ellipse fill="none" stroke="black" cx="271" cy="-272" rx="73.39" ry="18"/>
<text text-anchor="middle" x="271" y="-268.3" font-family="Times,serif" font-size="14.00">invalid_argument</text>
</g>
<!-- simple_map::borrow&#45;&gt;error::invalid_argument -->
<g id="edge12" class="edge">
<title>simple_map::borrow&#45;&gt;error::invalid_argument</title>
<path fill="none" stroke="black" d="M445.35,-335.7C413.28,-324.16 360.71,-305.26 321.66,-291.22"/>
<polygon fill="black" stroke="black" points="323.06,-288 312.46,-287.91 320.69,-294.59 323.06,-288"/>
</g>
<!-- simple_map::find -->
<g id="node14" class="node">
<title>simple_map::find</title>
<ellipse fill="none" stroke="black" cx="474" cy="-272" rx="27" ry="18"/>
<text text-anchor="middle" x="474" y="-268.3" font-family="Times,serif" font-size="14.00">find</text>
</g>
<!-- simple_map::borrow&#45;&gt;simple_map::find -->
<g id="edge13" class="edge">
<title>simple_map::borrow&#45;&gt;simple_map::find</title>
<path fill="none" stroke="black" d="M474,-328.7C474,-320.67 474,-310.9 474,-301.8"/>
<polygon fill="black" stroke="black" points="477.5,-301.94 474,-291.94 470.5,-301.94 477.5,-301.94"/>
</g>
<!-- simple_map::contains_key -->
<g id="node15" class="node">
<title>simple_map::contains_key</title>
<ellipse fill="none" stroke="black" cx="586" cy="-347" rx="57.39" ry="18"/>
<text text-anchor="middle" x="586" y="-343.3" font-family="Times,serif" font-size="14.00">contains_key</text>
</g>
<!-- contains_key&#45;&gt;simple_map::contains_key -->
<g id="edge14" class="edge">
<title>contains_key&#45;&gt;simple_map::contains_key</title>
<path fill="none" stroke="black" d="M574.97,-411.82C576.74,-401.58 579.03,-388.33 581.07,-376.55"/>
<polygon fill="black" stroke="black" points="584.47,-377.37 582.73,-366.92 577.58,-376.18 584.47,-377.37"/>
</g>
<!-- option::extract&#45;&gt;option::is_some -->
<g id="edge15" class="edge">
<title>option::extract&#45;&gt;option::is_some</title>
<path fill="none" stroke="black" d="M552.52,-170.7C551.89,-163.41 551.15,-154.73 550.45,-146.54"/>
<polygon fill="black" stroke="black" points="553.94,-146.28 549.6,-136.61 546.96,-146.87 553.94,-146.28"/>
</g>
<!-- vector::is_empty -->
<g id="node16" class="node">
<title>vector::is_empty</title>
<ellipse fill="none" stroke="black" cx="536" cy="-34" rx="43.59" ry="18"/>
<text text-anchor="middle" x="536" y="-30.3" font-family="Times,serif" font-size="14.00">is_empty</text>
</g>
<!-- option::is_some&#45;&gt;vector::is_empty -->
<g id="edge16" class="edge">
<title>option::is_some&#45;&gt;vector::is_empty</title>
<path fill="none" stroke="black" d="M545.46,-98.82C543.94,-88.58 541.97,-75.33 540.23,-63.55"/>
<polygon fill="black" stroke="black" points="543.73,-63.31 538.8,-53.93 536.81,-64.33 543.73,-63.31"/>
</g>
<!-- error::invalid_argument&#45;&gt;error::canonical -->
<g id="edge17" class="edge">
<title>error::invalid_argument&#45;&gt;error::canonical</title>
<path fill="none" stroke="black" d="M255.67,-254.22C245.21,-242.77 231.19,-227.42 219.48,-214.6"/>
<polygon fill="black" stroke="black" points="222.16,-212.35 212.83,-207.33 216.99,-217.07 222.16,-212.35"/>
</g>
<!-- option::none -->
<g id="node17" class="node">
<title>option::none</title>
<ellipse fill="none" stroke="black" cx="474" cy="-189" rx="27.9" ry="18"/>
<text text-anchor="middle" x="474" y="-185.3" font-family="Times,serif" font-size="14.00">none</text>
</g>
<!-- simple_map::find&#45;&gt;option::none -->
<g id="edge18" class="edge">
<title>simple_map::find&#45;&gt;option::none</title>
<path fill="none" stroke="black" d="M474,-253.82C474,-243.69 474,-230.6 474,-218.92"/>
<polygon fill="black" stroke="black" points="477.5,-218.95 474,-208.95 470.5,-218.95 477.5,-218.95"/>
</g>
<!-- option::some -->
<g id="node18" class="node">
<title>option::some</title>
<ellipse fill="none" stroke="black" cx="398" cy="-189" rx="29.8" ry="18"/>
<text text-anchor="middle" x="398" y="-185.3" font-family="Times,serif" font-size="14.00">some</text>
</g>
<!-- simple_map::find&#45;&gt;option::some -->
<g id="edge19" class="edge">
<title>simple_map::find&#45;&gt;option::some</title>
<path fill="none" stroke="black" d="M457.64,-257.4C451.01,-251.65 443.42,-244.72 437,-238 430.04,-230.71 422.94,-222.32 416.74,-214.61"/>
<polygon fill="black" stroke="black" points="419.57,-212.54 410.63,-206.85 414.07,-216.87 419.57,-212.54"/>
</g>
<!-- simple_map::contains_key&#45;&gt;option::is_some -->
<g id="edge20" class="edge">
<title>simple_map::contains_key&#45;&gt;option::is_some</title>
<path fill="none" stroke="black" d="M619.65,-332.17C623.78,-329.1 627.44,-325.4 630,-321 665.32,-260.31 665.77,-223.43 630,-163 621.46,-148.58 606.49,-138.47 591.65,-131.55"/>
<polygon fill="black" stroke="black" points="593.45,-128.51 582.87,-127.83 590.72,-134.95 593.45,-128.51"/>
</g>
<!-- simple_map::contains_key&#45;&gt;simple_map::find -->
<g id="edge21" class="edge">
<title>simple_map::contains_key&#45;&gt;simple_map::find</title>
<path fill="none" stroke="black" d="M561.97,-330.34C544.51,-318.96 520.81,-303.51 502.41,-291.52"/>
<polygon fill="black" stroke="black" points="504.36,-288.61 494.07,-286.08 500.54,-294.47 504.36,-288.61"/>
</g>
<!-- vector::singleton -->
<g id="node19" class="node">
<title>vector::singleton</title>
<ellipse fill="none" stroke="black" cx="432" cy="-34" rx="42.79" ry="18"/>
<text text-anchor="middle" x="432" y="-30.3" font-family="Times,serif" font-size="14.00">singleton</text>
</g>
<!-- option::some&#45;&gt;vector::singleton -->
<g id="edge22" class="edge">
<title>option::some&#45;&gt;vector::singleton</title>
<path fill="none" stroke="black" d="M401.83,-170.75C407.62,-144.69 418.67,-95.01 425.66,-63.52"/>
<polygon fill="black" stroke="black" points="429.05,-64.42 427.8,-53.9 422.21,-62.91 429.05,-64.42"/>
</g>
</g>
</svg>
