<?xml version="1.0" encoding="UTF-8" standalone="no"?>
<!DOCTYPE svg PUBLIC "-//W3C//DTD SVG 1.1//EN"
 "http://www.w3.org/Graphics/SVG/1.1/DTD/svg11.dtd">
<!-- Generated by graphviz version 7.0.4 (20221203.1631)
 -->
<!-- Title: G Pages: 1 -->
<svg width="460pt" height="448pt"
 viewBox="0.00 0.00 460.39 448.00" xmlns="http://www.w3.org/2000/svg" xmlns:xlink="http://www.w3.org/1999/xlink">
<g id="graph0" class="graph" transform="scale(1 1) rotate(0) translate(4 444)">
<title>G</title>
<polygon fill="white" stroke="none" points="-4,4 -4,-444 456.39,-444 456.39,4 -4,4"/>
<g id="clust1" class="cluster">
<title>cluster_simple_map</title>
<polygon fill="none" stroke="black" points="112,-246 112,-396 238,-396 238,-246 112,-246"/>
<text text-anchor="middle" x="175" y="-380.8" font-family="Times,serif" font-size="14.00">simple_map</text>
</g>
<g id="clust2" class="cluster">
<title>cluster_option</title>
<polygon fill="none" stroke="black" points="8,-91 8,-238 244,-238 244,-91 8,-91"/>
<text text-anchor="middle" x="126" y="-222.8" font-family="Times,serif" font-size="14.00">option</text>
</g>
<g id="clust3" class="cluster">
<title>cluster_error</title>
<polygon fill="none" stroke="black" points="252,-163 252,-321 414,-321 414,-163 252,-163"/>
<text text-anchor="middle" x="333" y="-305.8" font-family="Times,serif" font-size="14.00">error</text>
</g>
<g id="clust4" class="cluster">
<title>cluster_vector</title>
<polygon fill="none" stroke="black" points="30,-8 30,-83 237,-83 237,-8 30,-8"/>
<text text-anchor="middle" x="133.5" y="-67.8" font-family="Times,serif" font-size="14.00">vector</text>
</g>
<!-- update_property_value -->
<g id="node1" class="node">
<title>update_property_value</title>
<ellipse fill="none" stroke="black" cx="175" cy="-422" rx="91.78" ry="18"/>
<text text-anchor="middle" x="175" y="-418.3" font-family="Times,serif" font-size="14.00">update_property_value</text>
</g>
<!-- simple_map::borrow_mut -->
<g id="node2" class="node">
<title>simple_map::borrow_mut</title>
<ellipse fill="none" stroke="black" cx="175" cy="-347" rx="54.69" ry="18"/>
<text text-anchor="middle" x="175" y="-343.3" font-family="Times,serif" font-size="14.00">borrow_mut</text>
</g>
<!-- update_property_value&#45;&gt;simple_map::borrow_mut -->
<g id="edge1" class="edge">
<title>update_property_value&#45;&gt;simple_map::borrow_mut</title>
<path fill="none" stroke="black" d="M175,-403.7C175,-395.67 175,-385.9 175,-376.8"/>
<polygon fill="black" stroke="black" points="178.5,-376.94 175,-366.94 171.5,-376.94 178.5,-376.94"/>
</g>
<!-- option::extract -->
<g id="node3" class="node">
<title>option::extract</title>
<ellipse fill="none" stroke="black" cx="202" cy="-189" rx="34.39" ry="18"/>
<text text-anchor="middle" x="202" y="-185.3" font-family="Times,serif" font-size="14.00">extract</text>
</g>
<!-- simple_map::borrow_mut&#45;&gt;option::extract -->
<g id="edge2" class="edge">
<title>simple_map::borrow_mut&#45;&gt;option::extract</title>
<path fill="none" stroke="black" d="M180.97,-328.62C181.72,-326.08 182.43,-323.49 183,-321 191.07,-286.05 196.36,-245.02 199.26,-218.31"/>
<polygon fill="black" stroke="black" points="202.72,-218.94 200.27,-208.63 195.76,-218.21 202.72,-218.94"/>
</g>
<!-- option::is_some -->
<g id="node4" class="node">
<title>option::is_some</title>
<ellipse fill="none" stroke="black" cx="196" cy="-117" rx="40.09" ry="18"/>
<text text-anchor="middle" x="196" y="-113.3" font-family="Times,serif" font-size="14.00">is_some</text>
</g>
<!-- simple_map::borrow_mut&#45;&gt;option::is_some -->
<g id="edge3" class="edge">
<title>simple_map::borrow_mut&#45;&gt;option::is_some</title>
<path fill="none" stroke="black" d="M229.44,-344.19C297.2,-341.36 405.61,-334.74 418,-321 465.05,-268.87 462.45,-217.36 418,-163 396.82,-137.1 305.72,-125.75 247,-121.05"/>
<polygon fill="black" stroke="black" points="247.47,-117.57 237.23,-120.31 246.94,-124.55 247.47,-117.57"/>
</g>
<!-- error::invalid_argument -->
<g id="node5" class="node">
<title>error::invalid_argument</title>
<ellipse fill="none" stroke="black" cx="333" cy="-272" rx="73.39" ry="18"/>
<text text-anchor="middle" x="333" y="-268.3" font-family="Times,serif" font-size="14.00">invalid_argument</text>
</g>
<!-- simple_map::borrow_mut&#45;&gt;error::invalid_argument -->
<g id="edge4" class="edge">
<title>simple_map::borrow_mut&#45;&gt;error::invalid_argument</title>
<path fill="none" stroke="black" d="M211.51,-333.34C221.5,-329.62 232.26,-325.37 242,-321 259.65,-313.09 278.65,-303.29 294.7,-294.6"/>
<polygon fill="black" stroke="black" points="296.36,-297.69 303.45,-289.82 293,-291.54 296.36,-297.69"/>
</g>
<!-- simple_map::find -->
<g id="node6" class="node">
<title>simple_map::find</title>
<ellipse fill="none" stroke="black" cx="147" cy="-272" rx="27" ry="18"/>
<text text-anchor="middle" x="147" y="-268.3" font-family="Times,serif" font-size="14.00">find</text>
</g>
<!-- simple_map::borrow_mut&#45;&gt;simple_map::find -->
<g id="edge5" class="edge">
<title>simple_map::borrow_mut&#45;&gt;simple_map::find</title>
<path fill="none" stroke="black" d="M168.36,-328.7C165.13,-320.28 161.17,-309.94 157.54,-300.48"/>
<polygon fill="black" stroke="black" points="160.88,-299.42 154.03,-291.34 154.35,-301.93 160.88,-299.42"/>
</g>
<!-- option::extract&#45;&gt;option::is_some -->
<g id="edge6" class="edge">
<title>option::extract&#45;&gt;option::is_some</title>
<path fill="none" stroke="black" d="M200.52,-170.7C199.89,-163.41 199.15,-154.73 198.45,-146.54"/>
<polygon fill="black" stroke="black" points="201.94,-146.28 197.6,-136.61 194.96,-146.87 201.94,-146.28"/>
</g>
<!-- vector::is_empty -->
<g id="node7" class="node">
<title>vector::is_empty</title>
<ellipse fill="none" stroke="black" cx="185" cy="-34" rx="43.59" ry="18"/>
<text text-anchor="middle" x="185" y="-30.3" font-family="Times,serif" font-size="14.00">is_empty</text>
</g>
<!-- option::is_some&#45;&gt;vector::is_empty -->
<g id="edge7" class="edge">
<title>option::is_some&#45;&gt;vector::is_empty</title>
<path fill="none" stroke="black" d="M193.67,-98.82C192.28,-88.58 190.48,-75.33 188.88,-63.55"/>
<polygon fill="black" stroke="black" points="192.38,-63.37 187.57,-53.93 185.45,-64.31 192.38,-63.37"/>
</g>
<!-- error::canonical -->
<g id="node8" class="node">
<title>error::canonical</title>
<ellipse fill="none" stroke="black" cx="333" cy="-189" rx="44.39" ry="18"/>
<text text-anchor="middle" x="333" y="-185.3" font-family="Times,serif" font-size="14.00">canonical</text>
</g>
<!-- error::invalid_argument&#45;&gt;error::canonical -->
<g id="edge8" class="edge">
<title>error::invalid_argument&#45;&gt;error::canonical</title>
<path fill="none" stroke="black" d="M333,-253.82C333,-243.69 333,-230.6 333,-218.92"/>
<polygon fill="black" stroke="black" points="336.5,-218.95 333,-208.95 329.5,-218.95 336.5,-218.95"/>
</g>
<!-- option::none -->
<g id="node9" class="node">
<title>option::none</title>
<ellipse fill="none" stroke="black" cx="122" cy="-189" rx="27.9" ry="18"/>
<text text-anchor="middle" x="122" y="-185.3" font-family="Times,serif" font-size="14.00">none</text>
</g>
<!-- simple_map::find&#45;&gt;option::none -->
<g id="edge9" class="edge">
<title>simple_map::find&#45;&gt;option::none</title>
<path fill="none" stroke="black" d="M141.82,-254.22C138.59,-243.75 134.35,-230.03 130.63,-217.95"/>
<polygon fill="black" stroke="black" points="134,-217.01 127.71,-208.49 127.31,-219.07 134,-217.01"/>
</g>
<!-- option::some -->
<g id="node10" class="node">
<title>option::some</title>
<ellipse fill="none" stroke="black" cx="46" cy="-189" rx="29.8" ry="18"/>
<text text-anchor="middle" x="46" y="-185.3" font-family="Times,serif" font-size="14.00">some</text>
</g>
<!-- simple_map::find&#45;&gt;option::some -->
<g id="edge10" class="edge">
<title>simple_map::find&#45;&gt;option::some</title>
<path fill="none" stroke="black" d="M124.45,-261.67C112.07,-255.91 96.86,-247.77 85,-238 77.02,-231.43 69.52,-223.01 63.27,-215.06"/>
<polygon fill="black" stroke="black" points="66.26,-213.21 57.47,-207.29 60.65,-217.4 66.26,-213.21"/>
</g>
<!-- vector::singleton -->
<g id="node11" class="node">
<title>vector::singleton</title>
<ellipse fill="none" stroke="black" cx="81" cy="-34" rx="42.79" ry="18"/>
<text text-anchor="middle" x="81" y="-30.3" font-family="Times,serif" font-size="14.00">singleton</text>
</g>
<!-- option::some&#45;&gt;vector::singleton -->
<g id="edge11" class="edge">
<title>option::some&#45;&gt;vector::singleton</title>
<path fill="none" stroke="black" d="M49.95,-170.75C55.94,-144.55 67.39,-94.48 74.59,-63.02"/>
<polygon fill="black" stroke="black" points="77.97,-63.96 76.78,-53.43 71.14,-62.4 77.97,-63.96"/>
</g>
</g>
</svg>
