<?xml version="1.0" encoding="UTF-8" standalone="no"?>
<!DOCTYPE svg PUBLIC "-//W3C//DTD SVG 1.1//EN"
 "http://www.w3.org/Graphics/SVG/1.1/DTD/svg11.dtd">
<!-- Generated by graphviz version 7.0.4 (20221203.1631)
 -->
<!-- Title: G Pages: 1 -->
<svg width="736pt" height="528pt"
 viewBox="0.00 0.00 736.00 528.00" xmlns="http://www.w3.org/2000/svg" xmlns:xlink="http://www.w3.org/1999/xlink">
<g id="graph0" class="graph" transform="scale(1 1) rotate(0) translate(4 524)">
<title>G</title>
<polygon fill="white" stroke="none" points="-4,4 -4,-524 732,-524 732,4 -4,4"/>
<g id="clust1" class="cluster">
<title>cluster_error</title>
<polygon fill="none" stroke="black" points="8,-163 8,-321 300,-321 300,-163 8,-163"/>
<text text-anchor="middle" x="154" y="-305.8" font-family="Times,serif" font-size="14.00">error</text>
</g>
<g id="clust2" class="cluster">
<title>cluster_string</title>
<polygon fill="none" stroke="black" points="188,-329 188,-404 268,-404 268,-329 188,-329"/>
<text text-anchor="middle" x="228" y="-388.8" font-family="Times,serif" font-size="14.00">string</text>
</g>
<g id="clust3" class="cluster">
<title>cluster_simple_map</title>
<polygon fill="none" stroke="black" points="308,-246 308,-404 720,-404 720,-246 308,-246"/>
<text text-anchor="middle" x="514" y="-388.8" font-family="Times,serif" font-size="14.00">simple_map</text>
</g>
<g id="clust4" class="cluster">
<title>cluster_option</title>
<polygon fill="none" stroke="black" points="308,-91 308,-238 639,-238 639,-91 308,-91"/>
<text text-anchor="middle" x="473.5" y="-222.8" font-family="Times,serif" font-size="14.00">option</text>
</g>
<g id="clust5" class="cluster">
<title>cluster_vector</title>
<polygon fill="none" stroke="black" points="351,-8 351,-83 558,-83 558,-8 351,-8"/>
<text text-anchor="middle" x="454.5" y="-67.8" font-family="Times,serif" font-size="14.00">vector</text>
</g>
<!-- update_property_map -->
<g id="node1" class="node">
<title>update_property_map</title>
<ellipse fill="none" stroke="black" cx="364" cy="-502" rx="88.28" ry="18"/>
<text text-anchor="middle" x="364" y="-498.3" font-family="Times,serif" font-size="14.00">update_property_map</text>
</g>
<!-- error::invalid_state -->
<g id="node2" class="node">
<title>error::invalid_state</title>
<ellipse fill="none" stroke="black" cx="72" cy="-272" rx="55.79" ry="18"/>
<text text-anchor="middle" x="72" y="-268.3" font-family="Times,serif" font-size="14.00">invalid_state</text>
</g>
<!-- update_property_map&#45;&gt;error::invalid_state -->
<g id="edge1" class="edge">
<title>update_property_map&#45;&gt;error::invalid_state</title>
<path fill="none" stroke="black" d="M289.22,-492.17C230.6,-481.3 151.29,-457.2 104,-404 78.82,-375.67 72.69,-330.79 71.59,-301.62"/>
<polygon fill="black" stroke="black" points="75.09,-301.62 71.41,-291.68 68.09,-301.74 75.09,-301.62"/>
</g>
<!-- add -->
<g id="node3" class="node">
<title>add</title>
<ellipse fill="none" stroke="black" cx="296" cy="-430" rx="27" ry="18"/>
<text text-anchor="middle" x="296" y="-426.3" font-family="Times,serif" font-size="14.00">add</text>
</g>
<!-- update_property_map&#45;&gt;add -->
<g id="edge2" class="edge">
<title>update_property_map&#45;&gt;add</title>
<path fill="none" stroke="black" d="M347.54,-484.05C338.66,-474.92 327.59,-463.52 317.98,-453.63"/>
<polygon fill="black" stroke="black" points="320.55,-451.24 311.07,-446.51 315.52,-456.12 320.55,-451.24"/>
</g>
<!-- contains_key -->
<g id="node4" class="node">
<title>contains_key</title>
<ellipse fill="none" stroke="black" cx="647" cy="-430" rx="57.39" ry="18"/>
<text text-anchor="middle" x="647" y="-426.3" font-family="Times,serif" font-size="14.00">contains_key</text>
</g>
<!-- update_property_map&#45;&gt;contains_key -->
<g id="edge3" class="edge">
<title>update_property_map&#45;&gt;contains_key</title>
<path fill="none" stroke="black" d="M418.57,-487.5C468.44,-475.17 541.84,-457.01 591.89,-444.63"/>
<polygon fill="black" stroke="black" points="592.48,-448.09 601.35,-442.29 590.8,-441.29 592.48,-448.09"/>
</g>
<!-- update_property_value -->
<g id="node5" class="node">
<title>update_property_value</title>
<ellipse fill="none" stroke="black" cx="464" cy="-430" rx="91.78" ry="18"/>
<text text-anchor="middle" x="464" y="-426.3" font-family="Times,serif" font-size="14.00">update_property_value</text>
</g>
<!-- update_property_map&#45;&gt;update_property_value -->
<g id="edge4" class="edge">
<title>update_property_map&#45;&gt;update_property_value</title>
<path fill="none" stroke="black" d="M387.95,-484.23C400.82,-475.23 416.87,-463.99 430.91,-454.16"/>
<polygon fill="black" stroke="black" points="432.82,-457.1 439,-448.5 428.8,-451.37 432.82,-457.1"/>
</g>
<!-- error::canonical -->
<g id="node6" class="node">
<title>error::canonical</title>
<ellipse fill="none" stroke="black" cx="145" cy="-189" rx="44.39" ry="18"/>
<text text-anchor="middle" x="145" y="-185.3" font-family="Times,serif" font-size="14.00">canonical</text>
</g>
<!-- error::invalid_state&#45;&gt;error::canonical -->
<g id="edge5" class="edge">
<title>error::invalid_state&#45;&gt;error::canonical</title>
<path fill="none" stroke="black" d="M87.13,-254.22C97.44,-242.77 111.27,-227.42 122.83,-214.6"/>
<polygon fill="black" stroke="black" points="125.28,-217.1 129.38,-207.33 120.08,-212.42 125.28,-217.1"/>
</g>
<!-- add&#45;&gt;error::invalid_state -->
<g id="edge8" class="edge">
<title>add&#45;&gt;error::invalid_state</title>
<path fill="none" stroke="black" d="M268.88,-427.75C245.02,-425.57 210.12,-419.71 184,-404 140.92,-378.09 106.15,-329.76 87.33,-299.61"/>
<polygon fill="black" stroke="black" points="90.54,-298.15 82.36,-291.43 84.56,-301.79 90.54,-298.15"/>
</g>
<!-- string::length -->
<g id="node7" class="node">
<title>string::length</title>
<ellipse fill="none" stroke="black" cx="228" cy="-355" rx="32.49" ry="18"/>
<text text-anchor="middle" x="228" y="-351.3" font-family="Times,serif" font-size="14.00">length</text>
</g>
<!-- add&#45;&gt;string::length -->
<g id="edge6" class="edge">
<title>add&#45;&gt;string::length</title>
<path fill="none" stroke="black" d="M282.24,-414.23C273.02,-404.33 260.69,-391.09 250.11,-379.74"/>
<polygon fill="black" stroke="black" points="252.85,-377.55 243.48,-372.61 247.73,-382.32 252.85,-377.55"/>
</g>
<!-- error::invalid_argument -->
<g id="node8" class="node">
<title>error::invalid_argument</title>
<ellipse fill="none" stroke="black" cx="219" cy="-272" rx="73.39" ry="18"/>
<text text-anchor="middle" x="219" y="-268.3" font-family="Times,serif" font-size="14.00">invalid_argument</text>
</g>
<!-- add&#45;&gt;error::invalid_argument -->
<g id="edge7" class="edge">
<title>add&#45;&gt;error::invalid_argument</title>
<path fill="none" stroke="black" d="M294.59,-411.76C292.3,-391.03 286.46,-355.68 272,-329 265.75,-317.47 256.52,-306.56 247.5,-297.48"/>
<polygon fill="black" stroke="black" points="250.11,-295.14 240.47,-290.75 245.27,-300.19 250.11,-295.14"/>
</g>
<!-- simple_map::length -->
<g id="node9" class="node">
<title>simple_map::length</title>
<ellipse fill="none" stroke="black" cx="420" cy="-355" rx="32.49" ry="18"/>
<text text-anchor="middle" x="420" y="-351.3" font-family="Times,serif" font-size="14.00">length</text>
</g>
<!-- add&#45;&gt;simple_map::length -->
<g id="edge9" class="edge">
<title>add&#45;&gt;simple_map::length</title>
<path fill="none" stroke="black" d="M321.22,-423.07C341.96,-417.89 369.42,-410.25 379,-404 388.07,-398.08 396.25,-389.58 402.87,-381.37"/>
<polygon fill="black" stroke="black" points="405.51,-383.68 408.74,-373.59 399.92,-379.47 405.51,-383.68"/>
</g>
<!-- simple_map::add -->
<g id="node10" class="node">
<title>simple_map::add</title>
<ellipse fill="none" stroke="black" cx="343" cy="-355" rx="27" ry="18"/>
<text text-anchor="middle" x="343" y="-351.3" font-family="Times,serif" font-size="14.00">add</text>
</g>
<!-- add&#45;&gt;simple_map::add -->
<g id="edge10" class="edge">
<title>add&#45;&gt;simple_map::add</title>
<path fill="none" stroke="black" d="M306.2,-413.16C312.13,-403.94 319.75,-392.11 326.52,-381.6"/>
<polygon fill="black" stroke="black" points="329.37,-383.64 331.84,-373.33 323.48,-379.85 329.37,-383.64"/>
</g>
<!-- simple_map::contains_key -->
<g id="node11" class="node">
<title>simple_map::contains_key</title>
<ellipse fill="none" stroke="black" cx="655" cy="-355" rx="57.39" ry="18"/>
<text text-anchor="middle" x="655" y="-351.3" font-family="Times,serif" font-size="14.00">contains_key</text>
</g>
<!-- contains_key&#45;&gt;simple_map::contains_key -->
<g id="edge11" class="edge">
<title>contains_key&#45;&gt;simple_map::contains_key</title>
<path fill="none" stroke="black" d="M648.9,-411.7C649.78,-403.67 650.85,-393.9 651.84,-384.8"/>
<polygon fill="black" stroke="black" points="655.31,-385.26 652.93,-374.93 648.36,-384.49 655.31,-385.26"/>
</g>
<!-- simple_map::borrow_mut -->
<g id="node12" class="node">
<title>simple_map::borrow_mut</title>
<ellipse fill="none" stroke="black" cx="525" cy="-355" rx="54.69" ry="18"/>
<text text-anchor="middle" x="525" y="-351.3" font-family="Times,serif" font-size="14.00">borrow_mut</text>
</g>
<!-- update_property_value&#45;&gt;simple_map::borrow_mut -->
<g id="edge12" class="edge">
<title>update_property_value&#45;&gt;simple_map::borrow_mut</title>
<path fill="none" stroke="black" d="M478.15,-412.07C485.69,-403.04 495.13,-391.74 503.56,-381.66"/>
<polygon fill="black" stroke="black" points="506.23,-383.92 509.96,-374 500.86,-379.43 506.23,-383.92"/>
</g>
<!-- error::invalid_argument&#45;&gt;error::canonical -->
<g id="edge13" class="edge">
<title>error::invalid_argument&#45;&gt;error::canonical</title>
<path fill="none" stroke="black" d="M203.67,-254.22C193.21,-242.77 179.19,-227.42 167.48,-214.6"/>
<polygon fill="black" stroke="black" points="170.16,-212.35 160.83,-207.33 164.99,-217.07 170.16,-212.35"/>
</g>
<!-- simple_map::add&#45;&gt;error::invalid_argument -->
<g id="edge15" class="edge">
<title>simple_map::add&#45;&gt;error::invalid_argument</title>
<path fill="none" stroke="black" d="M324.17,-341.7C305.43,-329.46 276.26,-310.41 253.39,-295.47"/>
<polygon fill="black" stroke="black" points="255.58,-292.71 245.29,-290.17 251.75,-298.57 255.58,-292.71"/>
</g>
<!-- option::is_none -->
<g id="node13" class="node">
<title>option::is_none</title>
<ellipse fill="none" stroke="black" cx="506" cy="-189" rx="38.19" ry="18"/>
<text text-anchor="middle" x="506" y="-185.3" font-family="Times,serif" font-size="14.00">is_none</text>
</g>
<!-- simple_map::add&#45;&gt;option::is_none -->
<g id="edge14" class="edge">
<title>simple_map::add&#45;&gt;option::is_none</title>
<path fill="none" stroke="black" d="M359.22,-340.14C365.09,-335.85 372.01,-331.58 379,-329 395.55,-322.88 444.06,-331.82 458,-321 489.58,-296.48 500.39,-249.1 504.09,-218.55"/>
<polygon fill="black" stroke="black" points="507.54,-219.17 505.06,-208.87 500.58,-218.47 507.54,-219.17"/>
</g>
<!-- simple_map::find -->
<g id="node14" class="node">
<title>simple_map::find</title>
<ellipse fill="none" stroke="black" cx="422" cy="-272" rx="27" ry="18"/>
<text text-anchor="middle" x="422" y="-268.3" font-family="Times,serif" font-size="14.00">find</text>
</g>
<!-- simple_map::add&#45;&gt;simple_map::find -->
<g id="edge16" class="edge">
<title>simple_map::add&#45;&gt;simple_map::find</title>
<path fill="none" stroke="black" d="M357.12,-339.52C368.96,-327.38 386.06,-309.85 399.74,-295.83"/>
<polygon fill="black" stroke="black" points="402.2,-298.32 406.68,-288.71 397.19,-293.43 402.2,-298.32"/>
</g>
<!-- simple_map::contains_key&#45;&gt;simple_map::find -->
<g id="edge18" class="edge">
<title>simple_map::contains_key&#45;&gt;simple_map::find</title>
<path fill="none" stroke="black" d="M619.81,-340.38C609.88,-336.62 599.04,-332.58 589,-329 543.59,-312.79 490.76,-295.31 456.89,-284.26"/>
<polygon fill="black" stroke="black" points="458.19,-281.01 447.6,-281.25 456.03,-287.67 458.19,-281.01"/>
</g>
<!-- option::is_some -->
<g id="node15" class="node">
<title>option::is_some</title>
<ellipse fill="none" stroke="black" cx="591" cy="-117" rx="40.09" ry="18"/>
<text text-anchor="middle" x="591" y="-113.3" font-family="Times,serif" font-size="14.00">is_some</text>
</g>
<!-- simple_map::contains_key&#45;&gt;option::is_some -->
<g id="edge17" class="edge">
<title>simple_map::contains_key&#45;&gt;option::is_some</title>
<path fill="none" stroke="black" d="M666.44,-336.86C669.13,-331.95 671.61,-326.44 673,-321 690.35,-252.96 708.77,-223.43 673,-163 664.46,-148.58 649.49,-138.47 634.65,-131.55"/>
<polygon fill="black" stroke="black" points="636.45,-128.51 625.87,-127.83 633.72,-134.95 636.45,-128.51"/>
</g>
<!-- simple_map::borrow_mut&#45;&gt;error::invalid_argument -->
<g id="edge21" class="edge">
<title>simple_map::borrow_mut&#45;&gt;error::invalid_argument</title>
<path fill="none" stroke="black" d="M494.37,-339.73C484,-335.52 472.2,-331.41 461,-329 392.69,-314.32 371.1,-340.48 304,-321 285.31,-315.57 266.28,-305.36 250.98,-295.74"/>
<polygon fill="black" stroke="black" points="253.06,-292.92 242.77,-290.39 249.24,-298.78 253.06,-292.92"/>
</g>
<!-- simple_map::borrow_mut&#45;&gt;simple_map::find -->
<g id="edge22" class="edge">
<title>simple_map::borrow_mut&#45;&gt;simple_map::find</title>
<path fill="none" stroke="black" d="M504.65,-338C488.28,-325.12 465.17,-306.95 447.55,-293.09"/>
<polygon fill="black" stroke="black" points="450.11,-290.66 440.09,-287.23 445.79,-296.16 450.11,-290.66"/>
</g>
<!-- simple_map::borrow_mut&#45;&gt;option::is_some -->
<g id="edge20" class="edge">
<title>simple_map::borrow_mut&#45;&gt;option::is_some</title>
<path fill="none" stroke="black" d="M549.87,-338.68C578.44,-319.36 623.5,-283.15 640,-238 651.44,-206.69 653.41,-193.52 640,-163 636.06,-154.03 629.35,-146.07 622.14,-139.42"/>
<polygon fill="black" stroke="black" points="624.66,-136.97 614.75,-133.23 620.16,-142.33 624.66,-136.97"/>
</g>
<!-- option::extract -->
<g id="node16" class="node">
<title>option::extract</title>
<ellipse fill="none" stroke="black" cx="597" cy="-189" rx="34.39" ry="18"/>
<text text-anchor="middle" x="597" y="-185.3" font-family="Times,serif" font-size="14.00">extract</text>
</g>
<!-- simple_map::borrow_mut&#45;&gt;option::extract -->
<g id="edge19" class="edge">
<title>simple_map::borrow_mut&#45;&gt;option::extract</title>
<path fill="none" stroke="black" d="M532.57,-336.76C545.08,-308.26 570.17,-251.12 585.08,-217.16"/>
<polygon fill="black" stroke="black" points="588.11,-218.96 588.92,-208.4 581.7,-216.15 588.11,-218.96"/>
</g>
<!-- vector::is_empty -->
<g id="node17" class="node">
<title>vector::is_empty</title>
<ellipse fill="none" stroke="black" cx="506" cy="-34" rx="43.59" ry="18"/>
<text text-anchor="middle" x="506" y="-30.3" font-family="Times,serif" font-size="14.00">is_empty</text>
</g>
<!-- option::is_none&#45;&gt;vector::is_empty -->
<g id="edge23" class="edge">
<title>option::is_none&#45;&gt;vector::is_empty</title>
<path fill="none" stroke="black" d="M506,-170.75C506,-144.81 506,-95.44 506,-63.93"/>
<polygon fill="black" stroke="black" points="509.5,-63.94 506,-53.94 502.5,-63.94 509.5,-63.94"/>
</g>
<!-- option::none -->
<g id="node18" class="node">
<title>option::none</title>
<ellipse fill="none" stroke="black" cx="422" cy="-189" rx="27.9" ry="18"/>
<text text-anchor="middle" x="422" y="-185.3" font-family="Times,serif" font-size="14.00">none</text>
</g>
<!-- simple_map::find&#45;&gt;option::none -->
<g id="edge24" class="edge">
<title>simple_map::find&#45;&gt;option::none</title>
<path fill="none" stroke="black" d="M422,-253.82C422,-243.69 422,-230.6 422,-218.92"/>
<polygon fill="black" stroke="black" points="425.5,-218.95 422,-208.95 418.5,-218.95 425.5,-218.95"/>
</g>
<!-- option::some -->
<g id="node19" class="node">
<title>option::some</title>
<ellipse fill="none" stroke="black" cx="346" cy="-189" rx="29.8" ry="18"/>
<text text-anchor="middle" x="346" y="-185.3" font-family="Times,serif" font-size="14.00">some</text>
</g>
<!-- simple_map::find&#45;&gt;option::some -->
<g id="edge25" class="edge">
<title>simple_map::find&#45;&gt;option::some</title>
<path fill="none" stroke="black" d="M405.64,-257.4C399.01,-251.65 391.42,-244.72 385,-238 378.04,-230.71 370.94,-222.32 364.74,-214.61"/>
<polygon fill="black" stroke="black" points="367.57,-212.54 358.63,-206.85 362.07,-216.87 367.57,-212.54"/>
</g>
<!-- option::is_some&#45;&gt;vector::is_empty -->
<g id="edge26" class="edge">
<title>option::is_some&#45;&gt;vector::is_empty</title>
<path fill="none" stroke="black" d="M574.61,-100.38C562.23,-88.58 545.01,-72.18 530.92,-58.75"/>
<polygon fill="black" stroke="black" points="533.38,-56.26 523.72,-51.89 528.55,-61.32 533.38,-56.26"/>
</g>
<!-- option::extract&#45;&gt;option::is_some -->
<g id="edge27" class="edge">
<title>option::extract&#45;&gt;option::is_some</title>
<path fill="none" stroke="black" d="M595.52,-170.7C594.89,-163.41 594.15,-154.73 593.45,-146.54"/>
<polygon fill="black" stroke="black" points="596.94,-146.28 592.6,-136.61 589.96,-146.87 596.94,-146.28"/>
</g>
<!-- vector::singleton -->
<g id="node20" class="node">
<title>vector::singleton</title>
<ellipse fill="none" stroke="black" cx="402" cy="-34" rx="42.79" ry="18"/>
<text text-anchor="middle" x="402" y="-30.3" font-family="Times,serif" font-size="14.00">singleton</text>
</g>
<!-- option::some&#45;&gt;vector::singleton -->
<g id="edge28" class="edge">
<title>option::some&#45;&gt;vector::singleton</title>
<path fill="none" stroke="black" d="M352.21,-171.04C361.79,-144.85 380.3,-94.28 391.85,-62.72"/>
<polygon fill="black" stroke="black" points="395.09,-64.05 395.25,-53.46 388.52,-61.64 395.09,-64.05"/>
</g>
</g>
</svg>
