<?xml version="1.0" encoding="UTF-8" standalone="no"?>
<!DOCTYPE svg PUBLIC "-//W3C//DTD SVG 1.1//EN"
 "http://www.w3.org/Graphics/SVG/1.1/DTD/svg11.dtd">
<!-- Generated by graphviz version 7.0.4 (20221203.1631)
 -->
<!-- Title: G Pages: 1 -->
<svg width="300pt" height="260pt"
 viewBox="0.00 0.00 300.14 260.00" xmlns="http://www.w3.org/2000/svg" xmlns:xlink="http://www.w3.org/1999/xlink">
<g id="graph0" class="graph" transform="scale(1 1) rotate(0) translate(4 256)">
<title>G</title>
<polygon fill="white" stroke="none" points="-4,4 -4,-256 296.14,-256 296.14,4 -4,4"/>
<!-- property_map -->
<g id="node1" class="node">
<title>property_map</title>
<ellipse fill="none" stroke="black" cx="149.14" cy="-18" rx="60.39" ry="18"/>
<text text-anchor="middle" x="149.14" y="-14.3" font-family="Times,serif" font-size="14.00">property_map</text>
</g>
<!-- token_event_store -->
<g id="node2" class="node">
<title>token_event_store</title>
<ellipse fill="none" stroke="black" cx="201.14" cy="-90" rx="75.29" ry="18"/>
<text text-anchor="middle" x="201.14" y="-86.3" font-family="Times,serif" font-size="14.00">token_event_store</text>
</g>
<!-- token_event_store&#45;&gt;property_map -->
<g id="edge1" class="edge">
<title>token_event_store&#45;&gt;property_map</title>
<path fill="none" stroke="black" d="M188.56,-72.05C182.49,-63.89 175.08,-53.91 168.33,-44.82"/>
<polygon fill="black" stroke="black" points="171.29,-42.94 162.52,-37 165.67,-47.12 171.29,-42.94"/>
</g>
<!-- token -->
<g id="node3" class="node">
<title>token</title>
<ellipse fill="none" stroke="black" cx="149.14" cy="-162" rx="30.59" ry="18"/>
<text text-anchor="middle" x="149.14" y="-158.3" font-family="Times,serif" font-size="14.00">token</text>
</g>
<!-- token&#45;&gt;property_map -->
<g id="edge2" class="edge">
<title>token&#45;&gt;property_map</title>
<path fill="none" stroke="black" d="M136.57,-145.36C129.34,-135.33 120.95,-121.67 117.14,-108 112.85,-92.59 112.85,-87.41 117.14,-72 119.7,-62.83 124.32,-53.65 129.27,-45.58"/>
<polygon fill="black" stroke="black" points="132.15,-47.56 134.74,-37.29 126.31,-43.7 132.15,-47.56"/>
</g>
<!-- token&#45;&gt;token_event_store -->
<g id="edge3" class="edge">
<title>token&#45;&gt;token_event_store</title>
<path fill="none" stroke="black" d="M160.94,-145.12C167.15,-136.77 174.9,-126.32 181.95,-116.84"/>
<polygon fill="black" stroke="black" points="184.61,-119.13 187.76,-109.01 178.99,-114.95 184.61,-119.13"/>
</g>
<!-- token_coin_swap -->
<g id="node4" class="node">
<title>token_coin_swap</title>
<ellipse fill="none" stroke="black" cx="72.14" cy="-234" rx="72.29" ry="18"/>
<text text-anchor="middle" x="72.14" y="-230.3" font-family="Times,serif" font-size="14.00">token_coin_swap</text>
</g>
<!-- token_coin_swap&#45;&gt;token -->
<g id="edge4" class="edge">
<title>token_coin_swap&#45;&gt;token</title>
<path fill="none" stroke="black" d="M90.39,-216.41C100.64,-207.1 113.56,-195.35 124.68,-185.24"/>
<polygon fill="black" stroke="black" points="126.95,-187.91 132,-178.59 122.24,-182.73 126.95,-187.91"/>
</g>
<!-- token_transfers -->
<g id="node5" class="node">
<title>token_transfers</title>
<ellipse fill="none" stroke="black" cx="227.14" cy="-234" rx="64.99" ry="18"/>
<text text-anchor="middle" x="227.14" y="-230.3" font-family="Times,serif" font-size="14.00">token_transfers</text>
</g>
<!-- token_transfers&#45;&gt;token -->
<g id="edge5" class="edge">
<title>token_transfers&#45;&gt;token</title>
<path fill="none" stroke="black" d="M208.66,-216.41C198.28,-207.1 185.19,-195.35 173.93,-185.24"/>
<polygon fill="black" stroke="black" points="176.29,-182.66 166.51,-178.58 171.61,-187.87 176.29,-182.66"/>
</g>
</g>
</svg>
