<?xml version="1.0" encoding="UTF-8" standalone="no"?>
<!DOCTYPE svg PUBLIC "-//W3C//DTD SVG 1.1//EN"
 "http://www.w3.org/Graphics/SVG/1.1/DTD/svg11.dtd">
<!-- Generated by graphviz version 7.0.4 (20221203.1631)
 -->
<!-- Title: G Pages: 1 -->
<svg width="417pt" height="218pt"
 viewBox="0.00 0.00 417.00 218.00" xmlns="http://www.w3.org/2000/svg" xmlns:xlink="http://www.w3.org/1999/xlink">
<g id="graph0" class="graph" transform="scale(1 1) rotate(0) translate(4 214)">
<title>G</title>
<polygon fill="white" stroke="none" points="-4,4 -4,-214 413,-214 413,4 -4,4"/>
<g id="clust1" class="cluster">
<title>cluster_error</title>
<polygon fill="none" stroke="black" points="8,-8 8,-166 300,-166 300,-8 8,-8"/>
<text text-anchor="middle" x="154" y="-150.8" font-family="Times,serif" font-size="14.00">error</text>
</g>
<g id="clust2" class="cluster">
<title>cluster_property_map</title>
<polygon fill="none" stroke="black" points="308,-91 308,-166 401,-166 401,-91 308,-91"/>
<text text-anchor="middle" x="354.5" y="-150.8" font-family="Times,serif" font-size="14.00">property_map</text>
</g>
<g id="clust3" class="cluster">
<title>cluster_simple_map</title>
<polygon fill="none" stroke="black" points="309,-8 309,-83 393,-83 393,-8 309,-8"/>
<text text-anchor="middle" x="351" y="-67.8" font-family="Times,serif" font-size="14.00">simple_map</text>
</g>
<!-- split -->
<g id="node1" class="node">
<title>split</title>
<ellipse fill="none" stroke="black" cx="219" cy="-192" rx="27" ry="18"/>
<text text-anchor="middle" x="219" y="-188.3" font-family="Times,serif" font-size="14.00">split</text>
</g>
<!-- error::invalid_argument -->
<g id="node2" class="node">
<title>error::invalid_argument</title>
<ellipse fill="none" stroke="black" cx="219" cy="-117" rx="73.39" ry="18"/>
<text text-anchor="middle" x="219" y="-113.3" font-family="Times,serif" font-size="14.00">invalid_argument</text>
</g>
<!-- split&#45;&gt;error::invalid_argument -->
<g id="edge1" class="edge">
<title>split&#45;&gt;error::invalid_argument</title>
<path fill="none" stroke="black" d="M219,-173.7C219,-165.67 219,-155.9 219,-146.8"/>
<polygon fill="black" stroke="black" points="222.5,-146.94 219,-136.94 215.5,-146.94 222.5,-146.94"/>
</g>
<!-- error::invalid_state -->
<g id="node3" class="node">
<title>error::invalid_state</title>
<ellipse fill="none" stroke="black" cx="72" cy="-117" rx="55.79" ry="18"/>
<text text-anchor="middle" x="72" y="-113.3" font-family="Times,serif" font-size="14.00">invalid_state</text>
</g>
<!-- split&#45;&gt;error::invalid_state -->
<g id="edge2" class="edge">
<title>split&#45;&gt;error::invalid_state</title>
<path fill="none" stroke="black" d="M193.39,-185.57C176.77,-181.49 154.95,-175.03 137,-166 123.78,-159.35 110.42,-150.03 99.28,-141.38"/>
<polygon fill="black" stroke="black" points="101.67,-138.8 91.68,-135.28 97.29,-144.26 101.67,-138.8"/>
</g>
<!-- property_map::empty -->
<g id="node4" class="node">
<title>property_map::empty</title>
<ellipse fill="none" stroke="black" cx="349" cy="-117" rx="33.29" ry="18"/>
<text text-anchor="middle" x="349" y="-113.3" font-family="Times,serif" font-size="14.00">empty</text>
</g>
<!-- split&#45;&gt;property_map::empty -->
<g id="edge3" class="edge">
<title>split&#45;&gt;property_map::empty</title>
<path fill="none" stroke="black" d="M245.39,-186.98C262.97,-183.43 286.05,-177.05 304,-166 313.86,-159.93 322.96,-151.14 330.37,-142.74"/>
<polygon fill="black" stroke="black" points="333.03,-145.02 336.72,-135.09 327.64,-140.55 333.03,-145.02"/>
</g>
<!-- error::canonical -->
<g id="node5" class="node">
<title>error::canonical</title>
<ellipse fill="none" stroke="black" cx="145" cy="-34" rx="44.39" ry="18"/>
<text text-anchor="middle" x="145" y="-30.3" font-family="Times,serif" font-size="14.00">canonical</text>
</g>
<!-- error::invalid_argument&#45;&gt;error::canonical -->
<g id="edge4" class="edge">
<title>error::invalid_argument&#45;&gt;error::canonical</title>
<path fill="none" stroke="black" d="M203.67,-99.22C193.21,-87.77 179.19,-72.42 167.48,-59.6"/>
<polygon fill="black" stroke="black" points="170.16,-57.35 160.83,-52.33 164.99,-62.07 170.16,-57.35"/>
</g>
<!-- error::invalid_state&#45;&gt;error::canonical -->
<g id="edge5" class="edge">
<title>error::invalid_state&#45;&gt;error::canonical</title>
<path fill="none" stroke="black" d="M87.13,-99.22C97.44,-87.77 111.27,-72.42 122.83,-59.6"/>
<polygon fill="black" stroke="black" points="125.28,-62.1 129.38,-52.33 120.08,-57.42 125.28,-62.1"/>
</g>
<!-- simple_map::create -->
<g id="node6" class="node">
<title>simple_map::create</title>
<ellipse fill="none" stroke="black" cx="349" cy="-34" rx="31.7" ry="18"/>
<text text-anchor="middle" x="349" y="-30.3" font-family="Times,serif" font-size="14.00">create</text>
</g>
<!-- property_map::empty&#45;&gt;simple_map::create -->
<g id="edge6" class="edge">
<title>property_map::empty&#45;&gt;simple_map::create</title>
<path fill="none" stroke="black" d="M349,-98.82C349,-88.69 349,-75.6 349,-63.92"/>
<polygon fill="black" stroke="black" points="352.5,-63.95 349,-53.95 345.5,-63.95 352.5,-63.95"/>
</g>
</g>
</svg>
