<?xml version="1.0" encoding="UTF-8" standalone="no"?>
<!DOCTYPE svg PUBLIC "-//W3C//DTD SVG 1.1//EN"
 "http://www.w3.org/Graphics/SVG/1.1/DTD/svg11.dtd">
<!-- Generated by graphviz version 7.0.4 (20221203.1631)
 -->
<!-- Title: G Pages: 1 -->
<svg width="1605pt" height="509pt"
 viewBox="0.00 0.00 1605.00 509.00" xmlns="http://www.w3.org/2000/svg" xmlns:xlink="http://www.w3.org/1999/xlink">
<g id="graph0" class="graph" transform="scale(1 1) rotate(0) translate(4 505)">
<title>G</title>
<polygon fill="white" stroke="none" points="-4,4 -4,-505 1601,-505 1601,4 -4,4"/>
<g id="clust1" class="cluster">
<title>cluster_error</title>
<polygon fill="none" stroke="black" points="96,-80 96,-238 543,-238 543,-80 96,-80"/>
<text text-anchor="middle" x="319.5" y="-222.8" font-family="Times,serif" font-size="14.00">error</text>
</g>
<g id="clust2" class="cluster">
<title>cluster_table</title>
<polygon fill="none" stroke="black" points="849,-8 849,-155 1497,-155 1497,-8 849,-8"/>
<text text-anchor="middle" x="1173" y="-139.8" font-family="Times,serif" font-size="14.00">table</text>
</g>
<g id="clust3" class="cluster">
<title>cluster_event</title>
<polygon fill="none" stroke="black" points="655,-80 655,-238 841,-238 841,-80 655,-80"/>
<text text-anchor="middle" x="748" y="-222.8" font-family="Times,serif" font-size="14.00">event</text>
</g>
<g id="clust4" class="cluster">
<title>cluster_signer</title>
<polygon fill="none" stroke="black" points="1317,-163 1317,-313 1467,-313 1467,-163 1317,-163"/>
<text text-anchor="middle" x="1392" y="-297.8" font-family="Times,serif" font-size="14.00">signer</text>
</g>
<g id="clust5" class="cluster">
<title>cluster_string</title>
<polygon fill="none" stroke="black" points="8,-163 8,-238 88,-238 88,-163 8,-163"/>
<text text-anchor="middle" x="48" y="-222.8" font-family="Times,serif" font-size="14.00">string</text>
</g>
<g id="clust6" class="cluster">
<title>cluster_bcs</title>
<polygon fill="none" stroke="black" points="551,-80 551,-155 647,-155 647,-80 551,-80"/>
<text text-anchor="middle" x="599" y="-139.8" font-family="Times,serif" font-size="14.00">bcs</text>
</g>
<g id="clust7" class="cluster">
<title>cluster_property_map</title>
<polygon fill="none" stroke="black" points="1216,-163 1216,-238 1309,-238 1309,-163 1216,-163"/>
<text text-anchor="middle" x="1262.5" y="-222.8" font-family="Times,serif" font-size="14.00">property_map</text>
</g>
<g id="clust8" class="cluster">
<title>cluster_simple_map</title>
<polygon fill="none" stroke="black" points="1505,-80 1505,-155 1589,-155 1589,-80 1505,-80"/>
<text text-anchor="middle" x="1547" y="-139.8" font-family="Times,serif" font-size="14.00">simple_map</text>
</g>
<!-- transfer_with_opt_in -->
<g id="node1" class="node">
<title>transfer_with_opt_in</title>
<ellipse fill="none" stroke="black" cx="521" cy="-483" rx="84.49" ry="18"/>
<text text-anchor="middle" x="521" y="-479.3" font-family="Times,serif" font-size="14.00">transfer_with_opt_in</text>
</g>
<!-- transfer -->
<g id="node2" class="node">
<title>transfer</title>
<ellipse fill="none" stroke="black" cx="577" cy="-411" rx="37.89" ry="18"/>
<text text-anchor="middle" x="577" y="-407.3" font-family="Times,serif" font-size="14.00">transfer</text>
</g>
<!-- transfer_with_opt_in&#45;&gt;transfer -->
<g id="edge1" class="edge">
<title>transfer_with_opt_in&#45;&gt;transfer</title>
<path fill="none" stroke="black" d="M534.56,-465.05C541.26,-456.68 549.48,-446.4 556.89,-437.13"/>
<polygon fill="black" stroke="black" points="559.49,-439.48 563.01,-429.49 554.03,-435.11 559.49,-439.48"/>
</g>
<!-- create_token_id_raw -->
<g id="node3" class="node">
<title>create_token_id_raw</title>
<ellipse fill="none" stroke="black" cx="352" cy="-339" rx="84.49" ry="18"/>
<text text-anchor="middle" x="352" y="-335.3" font-family="Times,serif" font-size="14.00">create_token_id_raw</text>
</g>
<!-- transfer_with_opt_in&#45;&gt;create_token_id_raw -->
<g id="edge2" class="edge">
<title>transfer_with_opt_in&#45;&gt;create_token_id_raw</title>
<path fill="none" stroke="black" d="M500.95,-465.15C471.09,-440.07 414.8,-392.77 380.62,-364.05"/>
<polygon fill="black" stroke="black" points="383.09,-361.55 373.18,-357.8 378.59,-366.91 383.09,-361.55"/>
</g>
<!-- error::permission_denied -->
<g id="node4" class="node">
<title>error::permission_denied</title>
<ellipse fill="none" stroke="black" cx="181" cy="-189" rx="77.19" ry="18"/>
<text text-anchor="middle" x="181" y="-185.3" font-family="Times,serif" font-size="14.00">permission_denied</text>
</g>
<!-- transfer&#45;&gt;error::permission_denied -->
<g id="edge3" class="edge">
<title>transfer&#45;&gt;error::permission_denied</title>
<path fill="none" stroke="black" d="M566.25,-393.41C541.08,-355.15 477.93,-262.69 445,-246 409.88,-228.2 305.9,-248.68 268,-238 248.93,-232.63 229.46,-222.41 213.79,-212.79"/>
<polygon fill="black" stroke="black" points="215.67,-209.84 205.36,-207.41 211.91,-215.74 215.67,-209.84"/>
</g>
<!-- direct_deposit -->
<g id="node5" class="node">
<title>direct_deposit</title>
<ellipse fill="none" stroke="black" cx="708" cy="-339" rx="60.39" ry="18"/>
<text text-anchor="middle" x="708" y="-335.3" font-family="Times,serif" font-size="14.00">direct_deposit</text>
</g>
<!-- transfer&#45;&gt;direct_deposit -->
<g id="edge4" class="edge">
<title>transfer&#45;&gt;direct_deposit</title>
<path fill="none" stroke="black" d="M601.64,-396.83C620.71,-386.65 647.47,-372.35 669.37,-360.64"/>
<polygon fill="black" stroke="black" points="670.86,-363.81 678.03,-356.01 667.56,-357.64 670.86,-363.81"/>
</g>
<!-- withdraw_token -->
<g id="node6" class="node">
<title>withdraw_token</title>
<ellipse fill="none" stroke="black" cx="1045" cy="-339" rx="67.69" ry="18"/>
<text text-anchor="middle" x="1045" y="-335.3" font-family="Times,serif" font-size="14.00">withdraw_token</text>
</g>
<!-- transfer&#45;&gt;withdraw_token -->
<g id="edge5" class="edge">
<title>transfer&#45;&gt;withdraw_token</title>
<path fill="none" stroke="black" d="M612.95,-404.62C690.54,-393.02 874.86,-365.45 975.87,-350.34"/>
<polygon fill="black" stroke="black" points="976.3,-353.81 985.67,-348.87 975.26,-346.89 976.3,-353.81"/>
</g>
<!-- create_token_data_id -->
<g id="node7" class="node">
<title>create_token_data_id</title>
<ellipse fill="none" stroke="black" cx="350" cy="-264" rx="85.59" ry="18"/>
<text text-anchor="middle" x="350" y="-260.3" font-family="Times,serif" font-size="14.00">create_token_data_id</text>
</g>
<!-- create_token_id_raw&#45;&gt;create_token_data_id -->
<g id="edge6" class="edge">
<title>create_token_id_raw&#45;&gt;create_token_data_id</title>
<path fill="none" stroke="black" d="M351.53,-320.7C351.31,-312.67 351.04,-302.9 350.79,-293.8"/>
<polygon fill="black" stroke="black" points="354.29,-293.84 350.52,-283.94 347.29,-294.03 354.29,-293.84"/>
</g>
<!-- error::canonical -->
<g id="node8" class="node">
<title>error::canonical</title>
<ellipse fill="none" stroke="black" cx="350" cy="-106" rx="44.39" ry="18"/>
<text text-anchor="middle" x="350" y="-102.3" font-family="Times,serif" font-size="14.00">canonical</text>
</g>
<!-- error::permission_denied&#45;&gt;error::canonical -->
<g id="edge7" class="edge">
<title>error::permission_denied&#45;&gt;error::canonical</title>
<path fill="none" stroke="black" d="M213.58,-172.38C241.6,-158.95 282.06,-139.56 311.64,-125.39"/>
<polygon fill="black" stroke="black" points="313.13,-128.55 320.63,-121.08 310.1,-122.24 313.13,-128.55"/>
</g>
<!-- error::invalid_argument -->
<g id="node9" class="node">
<title>error::invalid_argument</title>
<ellipse fill="none" stroke="black" cx="350" cy="-189" rx="73.39" ry="18"/>
<text text-anchor="middle" x="350" y="-185.3" font-family="Times,serif" font-size="14.00">invalid_argument</text>
</g>
<!-- direct_deposit&#45;&gt;error::invalid_argument -->
<g id="edge8" class="edge">
<title>direct_deposit&#45;&gt;error::invalid_argument</title>
<path fill="none" stroke="black" d="M671.67,-324.23C665.45,-321.04 659.29,-317.3 654,-313 625.15,-289.59 636.82,-263.42 604,-246 570.2,-228.06 468.69,-248.87 432,-238 413.84,-232.62 395.47,-222.41 380.73,-212.78"/>
<polygon fill="black" stroke="black" points="383.11,-210.16 372.86,-207.44 379.18,-215.95 383.11,-210.16"/>
</g>
<!-- error::not_found -->
<g id="node10" class="node">
<title>error::not_found</title>
<ellipse fill="none" stroke="black" cx="488" cy="-189" rx="46.59" ry="18"/>
<text text-anchor="middle" x="488" y="-185.3" font-family="Times,serif" font-size="14.00">not_found</text>
</g>
<!-- direct_deposit&#45;&gt;error::not_found -->
<g id="edge9" class="edge">
<title>direct_deposit&#45;&gt;error::not_found</title>
<path fill="none" stroke="black" d="M702.22,-320.92C694.41,-300.32 678.57,-265.98 654,-246 621.95,-219.94 577.19,-205.77 542.23,-198.21"/>
<polygon fill="black" stroke="black" points="543.23,-194.84 532.73,-196.28 541.83,-201.7 543.23,-194.84"/>
</g>
<!-- table::contains -->
<g id="node11" class="node">
<title>table::contains</title>
<ellipse fill="none" stroke="black" cx="969" cy="-106" rx="40.09" ry="18"/>
<text text-anchor="middle" x="969" y="-102.3" font-family="Times,serif" font-size="14.00">contains</text>
</g>
<!-- direct_deposit&#45;&gt;table::contains -->
<g id="edge10" class="edge">
<title>direct_deposit&#45;&gt;table::contains</title>
<path fill="none" stroke="black" d="M763.21,-331.29C779.45,-327.6 796.69,-321.87 811,-313 882.66,-268.56 933.96,-179.06 956.39,-134.09"/>
<polygon fill="black" stroke="black" points="959.45,-135.81 960.68,-125.29 953.15,-132.74 959.45,-135.81"/>
</g>
<!-- table::borrow_mut -->
<g id="node12" class="node">
<title>table::borrow_mut</title>
<ellipse fill="none" stroke="black" cx="1266" cy="-106" rx="54.69" ry="18"/>
<text text-anchor="middle" x="1266" y="-102.3" font-family="Times,serif" font-size="14.00">borrow_mut</text>
</g>
<!-- direct_deposit&#45;&gt;table::borrow_mut -->
<g id="edge11" class="edge">
<title>direct_deposit&#45;&gt;table::borrow_mut</title>
<path fill="none" stroke="black" d="M766.32,-333.75C818.99,-330.02 898.66,-324.63 968,-321 979.33,-320.41 1163.14,-320.08 1172,-313 1225.88,-269.9 1178.08,-223.08 1212,-163 1218.66,-151.2 1228.39,-140.05 1237.76,-130.86"/>
<polygon fill="black" stroke="black" points="1240.15,-133.42 1245.06,-124.03 1235.37,-128.3 1240.15,-133.42"/>
</g>
<!-- table::add -->
<g id="node13" class="node">
<title>table::add</title>
<ellipse fill="none" stroke="black" cx="884" cy="-106" rx="27" ry="18"/>
<text text-anchor="middle" x="884" y="-102.3" font-family="Times,serif" font-size="14.00">add</text>
</g>
<!-- direct_deposit&#45;&gt;table::add -->
<g id="edge12" class="edge">
<title>direct_deposit&#45;&gt;table::add</title>
<path fill="none" stroke="black" d="M738.72,-323.22C769.93,-306.66 817.48,-276.97 845,-238 866.92,-206.96 876.67,-163.5 880.91,-135.3"/>
<polygon fill="black" stroke="black" points="884.33,-136.11 882.2,-125.73 877.39,-135.17 884.33,-136.11"/>
</g>
<!-- event::emit_event -->
<g id="node14" class="node">
<title>event::emit_event</title>
<ellipse fill="none" stroke="black" cx="731" cy="-189" rx="50.09" ry="18"/>
<text text-anchor="middle" x="731" y="-185.3" font-family="Times,serif" font-size="14.00">emit_event</text>
</g>
<!-- direct_deposit&#45;&gt;event::emit_event -->
<g id="edge13" class="edge">
<title>direct_deposit&#45;&gt;event::emit_event</title>
<path fill="none" stroke="black" d="M710.68,-320.73C714.6,-295.56 721.91,-248.49 726.61,-218.23"/>
<polygon fill="black" stroke="black" points="730.02,-219.07 728.1,-208.65 723.11,-218 730.02,-219.07"/>
</g>
<!-- merge -->
<g id="node15" class="node">
<title>merge</title>
<ellipse fill="none" stroke="black" cx="562" cy="-264" rx="33.29" ry="18"/>
<text text-anchor="middle" x="562" y="-260.3" font-family="Times,serif" font-size="14.00">merge</text>
</g>
<!-- direct_deposit&#45;&gt;merge -->
<g id="edge14" class="edge">
<title>direct_deposit&#45;&gt;merge</title>
<path fill="none" stroke="black" d="M661.79,-326.97C649.81,-323.3 637.15,-318.66 626,-313 612.36,-306.07 598.61,-296.22 587.36,-287.24"/>
<polygon fill="black" stroke="black" points="589.68,-284.62 579.74,-280.95 585.23,-290.02 589.68,-284.62"/>
</g>
<!-- signer::address_of -->
<g id="node16" class="node">
<title>signer::address_of</title>
<ellipse fill="none" stroke="black" cx="1383" cy="-264" rx="48.99" ry="18"/>
<text text-anchor="middle" x="1383" y="-260.3" font-family="Times,serif" font-size="14.00">address_of</text>
</g>
<!-- withdraw_token&#45;&gt;signer::address_of -->
<g id="edge15" class="edge">
<title>withdraw_token&#45;&gt;signer::address_of</title>
<path fill="none" stroke="black" d="M1105.62,-330.78C1137.46,-326.52 1177.03,-320.5 1212,-313 1254.58,-303.87 1302.22,-290.21 1336.37,-279.79"/>
<polygon fill="black" stroke="black" points="1336.99,-283.26 1345.52,-276.98 1334.93,-276.57 1336.99,-283.26"/>
</g>
<!-- withdraw_with_event_internal -->
<g id="node17" class="node">
<title>withdraw_with_event_internal</title>
<ellipse fill="none" stroke="black" cx="1045" cy="-264" rx="118.08" ry="18"/>
<text text-anchor="middle" x="1045" y="-260.3" font-family="Times,serif" font-size="14.00">withdraw_with_event_internal</text>
</g>
<!-- withdraw_token&#45;&gt;withdraw_with_event_internal -->
<g id="edge16" class="edge">
<title>withdraw_token&#45;&gt;withdraw_with_event_internal</title>
<path fill="none" stroke="black" d="M1045,-320.7C1045,-312.67 1045,-302.9 1045,-293.8"/>
<polygon fill="black" stroke="black" points="1048.5,-293.94 1045,-283.94 1041.5,-293.94 1048.5,-293.94"/>
</g>
<!-- create_token_data_id&#45;&gt;error::invalid_argument -->
<g id="edge18" class="edge">
<title>create_token_data_id&#45;&gt;error::invalid_argument</title>
<path fill="none" stroke="black" d="M350,-245.7C350,-237.67 350,-227.9 350,-218.8"/>
<polygon fill="black" stroke="black" points="353.5,-218.94 350,-208.94 346.5,-218.94 353.5,-218.94"/>
</g>
<!-- string::length -->
<g id="node18" class="node">
<title>string::length</title>
<ellipse fill="none" stroke="black" cx="48" cy="-189" rx="32.49" ry="18"/>
<text text-anchor="middle" x="48" y="-185.3" font-family="Times,serif" font-size="14.00">length</text>
</g>
<!-- create_token_data_id&#45;&gt;string::length -->
<g id="edge17" class="edge">
<title>create_token_data_id&#45;&gt;string::length</title>
<path fill="none" stroke="black" d="M264.96,-261.27C201.73,-258.77 121.5,-252.71 92,-238 81.49,-232.76 72.26,-223.86 65.01,-215.14"/>
<polygon fill="black" stroke="black" points="67.99,-213.28 59.11,-207.48 62.44,-217.54 67.99,-213.28"/>
</g>
<!-- error::invalid_argument&#45;&gt;error::canonical -->
<g id="edge19" class="edge">
<title>error::invalid_argument&#45;&gt;error::canonical</title>
<path fill="none" stroke="black" d="M350,-170.82C350,-160.69 350,-147.6 350,-135.92"/>
<polygon fill="black" stroke="black" points="353.5,-135.95 350,-125.95 346.5,-135.95 353.5,-135.95"/>
</g>
<!-- error::not_found&#45;&gt;error::canonical -->
<g id="edge20" class="edge">
<title>error::not_found&#45;&gt;error::canonical</title>
<path fill="none" stroke="black" d="M463.01,-173.33C440.89,-160.35 408.42,-141.29 383.95,-126.93"/>
<polygon fill="black" stroke="black" points="386.04,-124.1 375.65,-122.05 382.5,-130.13 386.04,-124.1"/>
</g>
<!-- table::contains_box -->
<g id="node19" class="node">
<title>table::contains_box</title>
<ellipse fill="none" stroke="black" cx="1015" cy="-34" rx="57.69" ry="18"/>
<text text-anchor="middle" x="1015" y="-30.3" font-family="Times,serif" font-size="14.00">contains_box</text>
</g>
<!-- table::contains&#45;&gt;table::contains_box -->
<g id="edge21" class="edge">
<title>table::contains&#45;&gt;table::contains_box</title>
<path fill="none" stroke="black" d="M979.9,-88.41C985.21,-80.34 991.72,-70.43 997.68,-61.35"/>
<polygon fill="black" stroke="black" points="1000.46,-63.5 1003.03,-53.22 994.61,-59.66 1000.46,-63.5"/>
</g>
<!-- table::borrow_box_mut -->
<g id="node20" class="node">
<title>table::borrow_box_mut</title>
<ellipse fill="none" stroke="black" cx="1417" cy="-34" rx="72.29" ry="18"/>
<text text-anchor="middle" x="1417" y="-30.3" font-family="Times,serif" font-size="14.00">borrow_box_mut</text>
</g>
<!-- table::borrow_mut&#45;&gt;table::borrow_box_mut -->
<g id="edge22" class="edge">
<title>table::borrow_mut&#45;&gt;table::borrow_box_mut</title>
<path fill="none" stroke="black" d="M1296.56,-90.83C1318.73,-80.56 1349.02,-66.51 1373.68,-55.08"/>
<polygon fill="black" stroke="black" points="1374.89,-58.38 1382.5,-51 1371.95,-52.03 1374.89,-58.38"/>
</g>
<!-- table::add_box -->
<g id="node21" class="node">
<title>table::add_box</title>
<ellipse fill="none" stroke="black" cx="898" cy="-34" rx="40.89" ry="18"/>
<text text-anchor="middle" x="898" y="-30.3" font-family="Times,serif" font-size="14.00">add_box</text>
</g>
<!-- table::add&#45;&gt;table::add_box -->
<g id="edge23" class="edge">
<title>table::add&#45;&gt;table::add_box</title>
<path fill="none" stroke="black" d="M887.46,-87.7C888.94,-80.32 890.7,-71.52 892.35,-63.25"/>
<polygon fill="black" stroke="black" points="895.75,-64.08 894.28,-53.59 888.89,-62.71 895.75,-64.08"/>
</g>
<!-- bcs::to_bytes -->
<g id="node22" class="node">
<title>bcs::to_bytes</title>
<ellipse fill="none" stroke="black" cx="599" cy="-106" rx="40.09" ry="18"/>
<text text-anchor="middle" x="599" y="-102.3" font-family="Times,serif" font-size="14.00">to_bytes</text>
</g>
<!-- event::emit_event&#45;&gt;bcs::to_bytes -->
<g id="edge24" class="edge">
<title>event::emit_event&#45;&gt;bcs::to_bytes</title>
<path fill="none" stroke="black" d="M695.01,-176.27C680.75,-170.84 664.55,-163.65 651,-155 640.44,-148.26 630.04,-139.26 621.35,-130.89"/>
<polygon fill="black" stroke="black" points="623.9,-128.49 614.35,-123.9 618.95,-133.44 623.9,-128.49"/>
</g>
<!-- event::write_to_event_store -->
<g id="node23" class="node">
<title>event::write_to_event_store</title>
<ellipse fill="none" stroke="black" cx="748" cy="-106" rx="85.29" ry="18"/>
<text text-anchor="middle" x="748" y="-102.3" font-family="Times,serif" font-size="14.00">write_to_event_store</text>
</g>
<!-- event::emit_event&#45;&gt;event::write_to_event_store -->
<g id="edge25" class="edge">
<title>event::emit_event&#45;&gt;event::write_to_event_store</title>
<path fill="none" stroke="black" d="M734.61,-170.82C736.75,-160.58 739.54,-147.33 742.01,-135.55"/>
<polygon fill="black" stroke="black" points="745.4,-136.42 744.03,-125.91 738.55,-134.98 745.4,-136.42"/>
</g>
<!-- merge&#45;&gt;error::invalid_argument -->
<g id="edge26" class="edge">
<title>merge&#45;&gt;error::invalid_argument</title>
<path fill="none" stroke="black" d="M531.68,-256.3C516.49,-253.03 497.81,-249.13 481,-246 459.31,-241.95 452.76,-245.48 432,-238 414.72,-231.78 396.97,-221.89 382.42,-212.7"/>
<polygon fill="black" stroke="black" points="384.46,-209.86 374.17,-207.33 380.64,-215.72 384.46,-209.86"/>
</g>
<!-- signer::borrow_address -->
<g id="node24" class="node">
<title>signer::borrow_address</title>
<ellipse fill="none" stroke="black" cx="1392" cy="-189" rx="66.89" ry="18"/>
<text text-anchor="middle" x="1392" y="-185.3" font-family="Times,serif" font-size="14.00">borrow_address</text>
</g>
<!-- signer::address_of&#45;&gt;signer::borrow_address -->
<g id="edge27" class="edge">
<title>signer::address_of&#45;&gt;signer::borrow_address</title>
<path fill="none" stroke="black" d="M1385.13,-245.7C1386.12,-237.67 1387.33,-227.9 1388.45,-218.8"/>
<polygon fill="black" stroke="black" points="1391.92,-219.28 1389.67,-208.93 1384.97,-218.43 1391.92,-219.28"/>
</g>
<!-- withdraw_with_event_internal&#45;&gt;error::invalid_argument -->
<g id="edge28" class="edge">
<title>withdraw_with_event_internal&#45;&gt;error::invalid_argument</title>
<path fill="none" stroke="black" d="M933.35,-257.93C855.15,-254.42 748.2,-249.75 654,-246 629.34,-245.02 455.7,-244.89 432,-238 413.81,-232.71 395.44,-222.51 380.71,-212.87"/>
<polygon fill="black" stroke="black" points="383.08,-210.25 372.84,-207.52 379.14,-216.03 383.08,-210.25"/>
</g>
<!-- withdraw_with_event_internal&#45;&gt;error::not_found -->
<g id="edge29" class="edge">
<title>withdraw_with_event_internal&#45;&gt;error::not_found</title>
<path fill="none" stroke="black" d="M926.95,-262.36C848.25,-260.26 742.79,-254.22 651,-238 609.63,-230.69 563.85,-216.66 531.37,-205.65"/>
<polygon fill="black" stroke="black" points="532.91,-202.48 522.32,-202.54 530.63,-209.1 532.91,-202.48"/>
</g>
<!-- withdraw_with_event_internal&#45;&gt;table::contains -->
<g id="edge30" class="edge">
<title>withdraw_with_event_internal&#45;&gt;table::contains</title>
<path fill="none" stroke="black" d="M996.75,-247.29C993.06,-244.65 989.72,-241.58 987,-238 964.63,-208.58 963.28,-164.35 965.35,-135.58"/>
<polygon fill="black" stroke="black" points="968.82,-136.07 966.26,-125.79 961.85,-135.42 968.82,-136.07"/>
</g>
<!-- withdraw_with_event_internal&#45;&gt;table::borrow_mut -->
<g id="edge31" class="edge">
<title>withdraw_with_event_internal&#45;&gt;table::borrow_mut</title>
<path fill="none" stroke="black" d="M1115.53,-249.35C1122.81,-246.3 1129.8,-242.57 1136,-238 1167.87,-214.53 1153.73,-188.5 1184,-163 1191.01,-157.1 1195.07,-159.59 1203,-155 1215.24,-147.91 1227.82,-138.77 1238.48,-130.37"/>
<polygon fill="black" stroke="black" points="1240.54,-133.2 1246.13,-124.2 1236.15,-127.76 1240.54,-133.2"/>
</g>
<!-- withdraw_with_event_internal&#45;&gt;event::emit_event -->
<g id="edge33" class="edge">
<title>withdraw_with_event_internal&#45;&gt;event::emit_event</title>
<path fill="none" stroke="black" d="M982.21,-248.4C923.9,-234.85 838.07,-214.89 783.36,-202.17"/>
<polygon fill="black" stroke="black" points="784.19,-198.77 773.65,-199.92 782.6,-205.59 784.19,-198.77"/>
</g>
<!-- table::remove -->
<g id="node25" class="node">
<title>table::remove</title>
<ellipse fill="none" stroke="black" cx="1156" cy="-106" rx="37.89" ry="18"/>
<text text-anchor="middle" x="1156" y="-102.3" font-family="Times,serif" font-size="14.00">remove</text>
</g>
<!-- withdraw_with_event_internal&#45;&gt;table::remove -->
<g id="edge32" class="edge">
<title>withdraw_with_event_internal&#45;&gt;table::remove</title>
<path fill="none" stroke="black" d="M1091.51,-247.06C1095.7,-244.45 1099.63,-241.45 1103,-238 1130.89,-209.48 1144.73,-164.34 1151.12,-135.2"/>
<polygon fill="black" stroke="black" points="1154.5,-136.13 1153.05,-125.63 1147.64,-134.74 1154.5,-136.13"/>
</g>
<!-- property_map::empty -->
<g id="node26" class="node">
<title>property_map::empty</title>
<ellipse fill="none" stroke="black" cx="1263" cy="-189" rx="33.29" ry="18"/>
<text text-anchor="middle" x="1263" y="-185.3" font-family="Times,serif" font-size="14.00">empty</text>
</g>
<!-- withdraw_with_event_internal&#45;&gt;property_map::empty -->
<g id="edge34" class="edge">
<title>withdraw_with_event_internal&#45;&gt;property_map::empty</title>
<path fill="none" stroke="black" d="M1127.89,-250.8C1143.44,-247.43 1159.39,-243.22 1174,-238 1194.4,-230.71 1215.81,-219.3 1232.52,-209.43"/>
<polygon fill="black" stroke="black" points="1234.22,-212.49 1240.97,-204.32 1230.6,-206.5 1234.22,-212.49"/>
</g>
<!-- balance_of -->
<g id="node27" class="node">
<title>balance_of</title>
<ellipse fill="none" stroke="black" cx="1045" cy="-189" rx="49.29" ry="18"/>
<text text-anchor="middle" x="1045" y="-185.3" font-family="Times,serif" font-size="14.00">balance_of</text>
</g>
<!-- withdraw_with_event_internal&#45;&gt;balance_of -->
<g id="edge35" class="edge">
<title>withdraw_with_event_internal&#45;&gt;balance_of</title>
<path fill="none" stroke="black" d="M1045,-245.7C1045,-237.67 1045,-227.9 1045,-218.8"/>
<polygon fill="black" stroke="black" points="1048.5,-218.94 1045,-208.94 1041.5,-218.94 1048.5,-218.94"/>
</g>
<!-- table::remove_box -->
<g id="node28" class="node">
<title>table::remove_box</title>
<ellipse fill="none" stroke="black" cx="1272" cy="-34" rx="55.49" ry="18"/>
<text text-anchor="middle" x="1272" y="-30.3" font-family="Times,serif" font-size="14.00">remove_box</text>
</g>
<!-- table::remove&#45;&gt;table::remove_box -->
<g id="edge36" class="edge">
<title>table::remove&#45;&gt;table::remove_box</title>
<path fill="none" stroke="black" d="M1178.92,-91.17C1195.48,-81.17 1218.17,-67.48 1236.99,-56.12"/>
<polygon fill="black" stroke="black" points="1238.66,-59.2 1245.42,-51.04 1235.05,-53.21 1238.66,-59.2"/>
</g>
<!-- simple_map::create -->
<g id="node29" class="node">
<title>simple_map::create</title>
<ellipse fill="none" stroke="black" cx="1545" cy="-106" rx="31.7" ry="18"/>
<text text-anchor="middle" x="1545" y="-102.3" font-family="Times,serif" font-size="14.00">create</text>
</g>
<!-- property_map::empty&#45;&gt;simple_map::create -->
<g id="edge37" class="edge">
<title>property_map::empty&#45;&gt;simple_map::create</title>
<path fill="none" stroke="black" d="M1284.12,-174.96C1292.76,-170.3 1303.04,-165.58 1313,-163 1353.48,-152.53 1463.09,-172.65 1501,-155 1511.65,-150.04 1520.9,-141.2 1528.14,-132.45"/>
<polygon fill="black" stroke="black" points="1530.74,-134.8 1534.01,-124.73 1525.17,-130.57 1530.74,-134.8"/>
</g>
<!-- balance_of&#45;&gt;table::contains -->
<g id="edge38" class="edge">
<title>balance_of&#45;&gt;table::contains</title>
<path fill="none" stroke="black" d="M1029.62,-171.61C1018.73,-160 1003.95,-144.25 991.71,-131.2"/>
<polygon fill="black" stroke="black" points="994.53,-129.09 985.13,-124.19 989.42,-133.88 994.53,-129.09"/>
</g>
<!-- table::borrow -->
<g id="node30" class="node">
<title>table::borrow</title>
<ellipse fill="none" stroke="black" cx="1064" cy="-106" rx="36.29" ry="18"/>
<text text-anchor="middle" x="1064" y="-102.3" font-family="Times,serif" font-size="14.00">borrow</text>
</g>
<!-- balance_of&#45;&gt;table::borrow -->
<g id="edge39" class="edge">
<title>balance_of&#45;&gt;table::borrow</title>
<path fill="none" stroke="black" d="M1049.03,-170.82C1051.45,-160.51 1054.58,-147.14 1057.36,-135.31"/>
<polygon fill="black" stroke="black" points="1060.75,-136.16 1059.63,-125.63 1053.94,-134.56 1060.75,-136.16"/>
</g>
<!-- table::borrow_box -->
<g id="node31" class="node">
<title>table::borrow_box</title>
<ellipse fill="none" stroke="black" cx="1145" cy="-34" rx="53.89" ry="18"/>
<text text-anchor="middle" x="1145" y="-30.3" font-family="Times,serif" font-size="14.00">borrow_box</text>
</g>
<!-- table::borrow&#45;&gt;table::borrow_box -->
<g id="edge40" class="edge">
<title>table::borrow&#45;&gt;table::borrow_box</title>
<path fill="none" stroke="black" d="M1081.58,-89.81C1092.11,-80.71 1105.72,-68.95 1117.63,-58.65"/>
<polygon fill="black" stroke="black" points="1119.91,-61.31 1125.19,-52.12 1115.33,-56.01 1119.91,-61.31"/>
</g>
</g>
</svg>
