<?xml version="1.0" encoding="UTF-8" standalone="no"?>
<!DOCTYPE svg PUBLIC "-//W3C//DTD SVG 1.1//EN"
 "http://www.w3.org/Graphics/SVG/1.1/DTD/svg11.dtd">
<!-- Generated by graphviz version 7.0.4 (20221203.1631)
 -->
<!-- Title: G Pages: 1 -->
<svg width="546pt" height="290pt"
 viewBox="0.00 0.00 546.00 290.00" xmlns="http://www.w3.org/2000/svg" xmlns:xlink="http://www.w3.org/1999/xlink">
<g id="graph0" class="graph" transform="scale(1 1) rotate(0) translate(4 286)">
<title>G</title>
<polygon fill="white" stroke="none" points="-4,4 -4,-286 542,-286 542,4 -4,4"/>
<g id="clust1" class="cluster">
<title>cluster_option</title>
<polygon fill="none" stroke="black" points="28,-163 28,-238 178,-238 178,-163 28,-163"/>
<text text-anchor="middle" x="103" y="-222.8" font-family="Times,serif" font-size="14.00">option</text>
</g>
<g id="clust2" class="cluster">
<title>cluster_table</title>
<polygon fill="none" stroke="black" points="118,-8 118,-155 412,-155 412,-8 118,-8"/>
<text text-anchor="middle" x="265" y="-139.8" font-family="Times,serif" font-size="14.00">table</text>
</g>
<g id="clust3" class="cluster">
<title>cluster_vector</title>
<polygon fill="none" stroke="black" points="8,-80 8,-155 110,-155 110,-80 8,-80"/>
<text text-anchor="middle" x="59" y="-139.8" font-family="Times,serif" font-size="14.00">vector</text>
</g>
<g id="clust4" class="cluster">
<title>cluster_error</title>
<polygon fill="none" stroke="black" points="420,-8 420,-155 530,-155 530,-8 420,-8"/>
<text text-anchor="middle" x="475" y="-139.8" font-family="Times,serif" font-size="14.00">error</text>
</g>
<!-- get_collection_supply -->
<g id="node1" class="node">
<title>get_collection_supply</title>
<ellipse fill="none" stroke="black" cx="170" cy="-264" rx="88.28" ry="18"/>
<text text-anchor="middle" x="170" y="-260.3" font-family="Times,serif" font-size="14.00">get_collection_supply</text>
</g>
<!-- option::none -->
<g id="node2" class="node">
<title>option::none</title>
<ellipse fill="none" stroke="black" cx="142" cy="-189" rx="27.9" ry="18"/>
<text text-anchor="middle" x="142" y="-185.3" font-family="Times,serif" font-size="14.00">none</text>
</g>
<!-- get_collection_supply&#45;&gt;option::none -->
<g id="edge1" class="edge">
<title>get_collection_supply&#45;&gt;option::none</title>
<path fill="none" stroke="black" d="M163.36,-245.7C160.13,-237.28 156.17,-226.94 152.54,-217.48"/>
<polygon fill="black" stroke="black" points="155.88,-216.42 149.03,-208.34 149.35,-218.93 155.88,-216.42"/>
</g>
<!-- option::some -->
<g id="node3" class="node">
<title>option::some</title>
<ellipse fill="none" stroke="black" cx="66" cy="-189" rx="29.8" ry="18"/>
<text text-anchor="middle" x="66" y="-185.3" font-family="Times,serif" font-size="14.00">some</text>
</g>
<!-- get_collection_supply&#45;&gt;option::some -->
<g id="edge2" class="edge">
<title>get_collection_supply&#45;&gt;option::some</title>
<path fill="none" stroke="black" d="M123,-248.35C116.67,-245.41 110.48,-241.98 105,-238 96.51,-231.83 88.81,-223.38 82.55,-215.28"/>
<polygon fill="black" stroke="black" points="85.48,-213.36 76.77,-207.32 79.81,-217.47 85.48,-213.36"/>
</g>
<!-- table::borrow_mut -->
<g id="node4" class="node">
<title>table::borrow_mut</title>
<ellipse fill="none" stroke="black" cx="198" cy="-106" rx="54.69" ry="18"/>
<text text-anchor="middle" x="198" y="-102.3" font-family="Times,serif" font-size="14.00">borrow_mut</text>
</g>
<!-- get_collection_supply&#45;&gt;table::borrow_mut -->
<g id="edge3" class="edge">
<title>get_collection_supply&#45;&gt;table::borrow_mut</title>
<path fill="none" stroke="black" d="M179.14,-245.8C180.24,-243.24 181.24,-240.59 182,-238 192.04,-203.67 195.78,-162.5 197.18,-135.6"/>
<polygon fill="black" stroke="black" points="200.67,-135.97 197.6,-125.83 193.67,-135.67 200.67,-135.97"/>
</g>
<!-- assert_collection_exists -->
<g id="node5" class="node">
<title>assert_collection_exists</title>
<ellipse fill="none" stroke="black" cx="346" cy="-189" rx="94.48" ry="18"/>
<text text-anchor="middle" x="346" y="-185.3" font-family="Times,serif" font-size="14.00">assert_collection_exists</text>
</g>
<!-- get_collection_supply&#45;&gt;assert_collection_exists -->
<g id="edge4" class="edge">
<title>get_collection_supply&#45;&gt;assert_collection_exists</title>
<path fill="none" stroke="black" d="M207.76,-247.34C233.91,-236.49 268.96,-221.95 297.23,-210.23"/>
<polygon fill="black" stroke="black" points="298.4,-213.53 306.3,-206.47 295.72,-207.06 298.4,-213.53"/>
</g>
<!-- vector::singleton -->
<g id="node6" class="node">
<title>vector::singleton</title>
<ellipse fill="none" stroke="black" cx="59" cy="-106" rx="42.79" ry="18"/>
<text text-anchor="middle" x="59" y="-102.3" font-family="Times,serif" font-size="14.00">singleton</text>
</g>
<!-- option::some&#45;&gt;vector::singleton -->
<g id="edge5" class="edge">
<title>option::some&#45;&gt;vector::singleton</title>
<path fill="none" stroke="black" d="M64.52,-170.82C63.63,-160.58 62.48,-147.33 61.47,-135.55"/>
<polygon fill="black" stroke="black" points="64.98,-135.6 60.64,-125.94 58.01,-136.2 64.98,-135.6"/>
</g>
<!-- table::borrow_box_mut -->
<g id="node7" class="node">
<title>table::borrow_box_mut</title>
<ellipse fill="none" stroke="black" cx="198" cy="-34" rx="72.29" ry="18"/>
<text text-anchor="middle" x="198" y="-30.3" font-family="Times,serif" font-size="14.00">borrow_box_mut</text>
</g>
<!-- table::borrow_mut&#45;&gt;table::borrow_box_mut -->
<g id="edge6" class="edge">
<title>table::borrow_mut&#45;&gt;table::borrow_box_mut</title>
<path fill="none" stroke="black" d="M198,-87.7C198,-80.41 198,-71.73 198,-63.54"/>
<polygon fill="black" stroke="black" points="201.5,-63.62 198,-53.62 194.5,-63.62 201.5,-63.62"/>
</g>
<!-- error::not_found -->
<g id="node8" class="node">
<title>error::not_found</title>
<ellipse fill="none" stroke="black" cx="475" cy="-106" rx="46.59" ry="18"/>
<text text-anchor="middle" x="475" y="-102.3" font-family="Times,serif" font-size="14.00">not_found</text>
</g>
<!-- assert_collection_exists&#45;&gt;error::not_found -->
<g id="edge7" class="edge">
<title>assert_collection_exists&#45;&gt;error::not_found</title>
<path fill="none" stroke="black" d="M383.94,-172.15C394.6,-167.17 405.99,-161.3 416,-155 427.38,-147.84 439.04,-138.78 448.96,-130.47"/>
<polygon fill="black" stroke="black" points="451.07,-133.27 456.37,-124.1 446.51,-127.96 451.07,-133.27"/>
</g>
<!-- table::contains -->
<g id="node9" class="node">
<title>table::contains</title>
<ellipse fill="none" stroke="black" cx="346" cy="-106" rx="40.09" ry="18"/>
<text text-anchor="middle" x="346" y="-102.3" font-family="Times,serif" font-size="14.00">contains</text>
</g>
<!-- assert_collection_exists&#45;&gt;table::contains -->
<g id="edge8" class="edge">
<title>assert_collection_exists&#45;&gt;table::contains</title>
<path fill="none" stroke="black" d="M346,-170.82C346,-160.69 346,-147.6 346,-135.92"/>
<polygon fill="black" stroke="black" points="349.5,-135.95 346,-125.95 342.5,-135.95 349.5,-135.95"/>
</g>
<!-- error::canonical -->
<g id="node10" class="node">
<title>error::canonical</title>
<ellipse fill="none" stroke="black" cx="475" cy="-34" rx="44.39" ry="18"/>
<text text-anchor="middle" x="475" y="-30.3" font-family="Times,serif" font-size="14.00">canonical</text>
</g>
<!-- error::not_found&#45;&gt;error::canonical -->
<g id="edge9" class="edge">
<title>error::not_found&#45;&gt;error::canonical</title>
<path fill="none" stroke="black" d="M475,-87.7C475,-80.41 475,-71.73 475,-63.54"/>
<polygon fill="black" stroke="black" points="478.5,-63.62 475,-53.62 471.5,-63.62 478.5,-63.62"/>
</g>
<!-- table::contains_box -->
<g id="node11" class="node">
<title>table::contains_box</title>
<ellipse fill="none" stroke="black" cx="346" cy="-34" rx="57.69" ry="18"/>
<text text-anchor="middle" x="346" y="-30.3" font-family="Times,serif" font-size="14.00">contains_box</text>
</g>
<!-- table::contains&#45;&gt;table::contains_box -->
<g id="edge10" class="edge">
<title>table::contains&#45;&gt;table::contains_box</title>
<path fill="none" stroke="black" d="M346,-87.7C346,-80.41 346,-71.73 346,-63.54"/>
<polygon fill="black" stroke="black" points="349.5,-63.62 346,-53.62 342.5,-63.62 349.5,-63.62"/>
</g>
</g>
</svg>
