<?xml version="1.0" encoding="UTF-8" standalone="no"?>
<!DOCTYPE svg PUBLIC "-//W3C//DTD SVG 1.1//EN"
 "http://www.w3.org/Graphics/SVG/1.1/DTD/svg11.dtd">
<!-- Generated by graphviz version 7.0.4 (20221203.1631)
 -->
<!-- Title: G Pages: 1 -->
<svg width="274pt" height="207pt"
 viewBox="0.00 0.00 274.00 207.00" xmlns="http://www.w3.org/2000/svg" xmlns:xlink="http://www.w3.org/1999/xlink">
<g id="graph0" class="graph" transform="scale(1 1) rotate(0) translate(4 203)">
<title>G</title>
<polygon fill="white" stroke="none" points="-4,4 -4,-203 270,-203 270,4 -4,4"/>
<g id="clust1" class="cluster">
<title>cluster_error</title>
<polygon fill="none" stroke="black" points="8,-8 8,-155 118,-155 118,-8 8,-8"/>
<text text-anchor="middle" x="63" y="-139.8" font-family="Times,serif" font-size="14.00">error</text>
</g>
<g id="clust2" class="cluster">
<title>cluster_table</title>
<polygon fill="none" stroke="black" points="126,-8 126,-155 258,-155 258,-8 126,-8"/>
<text text-anchor="middle" x="192" y="-139.8" font-family="Times,serif" font-size="14.00">table</text>
</g>
<!-- assert_collection_exists -->
<g id="node1" class="node">
<title>assert_collection_exists</title>
<ellipse fill="none" stroke="black" cx="123" cy="-181" rx="94.48" ry="18"/>
<text text-anchor="middle" x="123" y="-177.3" font-family="Times,serif" font-size="14.00">assert_collection_exists</text>
</g>
<!-- error::not_found -->
<g id="node2" class="node">
<title>error::not_found</title>
<ellipse fill="none" stroke="black" cx="63" cy="-106" rx="46.59" ry="18"/>
<text text-anchor="middle" x="63" y="-102.3" font-family="Times,serif" font-size="14.00">not_found</text>
</g>
<!-- assert_collection_exists&#45;&gt;error::not_found -->
<g id="edge1" class="edge">
<title>assert_collection_exists&#45;&gt;error::not_found</title>
<path fill="none" stroke="black" d="M109.08,-163.07C101.61,-153.98 92.24,-142.58 83.91,-132.44"/>
<polygon fill="black" stroke="black" points="86.65,-130.26 77.59,-124.76 81.24,-134.7 86.65,-130.26"/>
</g>
<!-- table::contains -->
<g id="node3" class="node">
<title>table::contains</title>
<ellipse fill="none" stroke="black" cx="183" cy="-106" rx="40.09" ry="18"/>
<text text-anchor="middle" x="183" y="-102.3" font-family="Times,serif" font-size="14.00">contains</text>
</g>
<!-- assert_collection_exists&#45;&gt;table::contains -->
<g id="edge2" class="edge">
<title>assert_collection_exists&#45;&gt;table::contains</title>
<path fill="none" stroke="black" d="M136.92,-163.07C144.44,-153.91 153.89,-142.42 162.27,-132.23"/>
<polygon fill="black" stroke="black" points="164.97,-134.45 168.61,-124.51 159.56,-130.01 164.97,-134.45"/>
</g>
<!-- error::canonical -->
<g id="node4" class="node">
<title>error::canonical</title>
<ellipse fill="none" stroke="black" cx="63" cy="-34" rx="44.39" ry="18"/>
<text text-anchor="middle" x="63" y="-30.3" font-family="Times,serif" font-size="14.00">canonical</text>
</g>
<!-- error::not_found&#45;&gt;error::canonical -->
<g id="edge3" class="edge">
<title>error::not_found&#45;&gt;error::canonical</title>
<path fill="none" stroke="black" d="M63,-87.7C63,-80.41 63,-71.73 63,-63.54"/>
<polygon fill="black" stroke="black" points="66.5,-63.62 63,-53.62 59.5,-63.62 66.5,-63.62"/>
</g>
<!-- table::contains_box -->
<g id="node5" class="node">
<title>table::contains_box</title>
<ellipse fill="none" stroke="black" cx="192" cy="-34" rx="57.69" ry="18"/>
<text text-anchor="middle" x="192" y="-30.3" font-family="Times,serif" font-size="14.00">contains_box</text>
</g>
<!-- table::contains&#45;&gt;table::contains_box -->
<g id="edge4" class="edge">
<title>table::contains&#45;&gt;table::contains_box</title>
<path fill="none" stroke="black" d="M185.22,-87.7C186.17,-80.32 187.3,-71.52 188.37,-63.25"/>
<polygon fill="black" stroke="black" points="191.8,-63.97 189.61,-53.61 184.86,-63.08 191.8,-63.97"/>
</g>
</g>
</svg>
