<?xml version="1.0" encoding="UTF-8" standalone="no"?>
<!DOCTYPE svg PUBLIC "-//W3C//DTD SVG 1.1//EN"
 "http://www.w3.org/Graphics/SVG/1.1/DTD/svg11.dtd">
<!-- Generated by graphviz version 7.0.4 (20221203.1631)
 -->
<!-- Title: G Pages: 1 -->
<svg width="325pt" height="227pt"
 viewBox="0.00 0.00 325.00 227.00" xmlns="http://www.w3.org/2000/svg" xmlns:xlink="http://www.w3.org/1999/xlink">
<g id="graph0" class="graph" transform="scale(1 1) rotate(0) translate(4 223)">
<title>G</title>
<polygon fill="white" stroke="none" points="-4,4 -4,-223 321,-223 321,4 -4,4"/>
<g id="clust1" class="cluster">
<title>cluster_token_transfers</title>
<polygon fill="none" stroke="black" points="8,-64 8,-211 309,-211 309,-64 8,-64"/>
<text text-anchor="middle" x="158.5" y="-195.8" font-family="Times,serif" font-size="14.00">token_transfers</text>
</g>
<!-- get_token_amount -->
<g id="node1" class="node">
<title>get_token_amount</title>
<ellipse fill="none" stroke="black" cx="146" cy="-18" rx="76.89" ry="18"/>
<text text-anchor="middle" x="146" y="-14.3" font-family="Times,serif" font-size="14.00">get_token_amount</text>
</g>
<!-- token_transfers::cancel_offer -->
<g id="node2" class="node">
<title>token_transfers::cancel_offer</title>
<ellipse fill="none" stroke="black" cx="210" cy="-90" rx="54.69" ry="18"/>
<text text-anchor="middle" x="210" y="-86.3" font-family="Times,serif" font-size="14.00">cancel_offer</text>
</g>
<!-- token_transfers::cancel_offer&#45;&gt;get_token_amount -->
<g id="edge1" class="edge">
<title>token_transfers::cancel_offer&#45;&gt;get_token_amount</title>
<path fill="none" stroke="black" d="M194.83,-72.41C187.14,-63.99 177.62,-53.58 169.04,-44.2"/>
<polygon fill="black" stroke="black" points="171.85,-42.09 162.52,-37.07 166.69,-46.82 171.85,-42.09"/>
</g>
<!-- token_transfers::claim -->
<g id="node3" class="node">
<title>token_transfers::claim</title>
<ellipse fill="none" stroke="black" cx="83" cy="-90" rx="30.59" ry="18"/>
<text text-anchor="middle" x="83" y="-86.3" font-family="Times,serif" font-size="14.00">claim</text>
</g>
<!-- token_transfers::claim&#45;&gt;get_token_amount -->
<g id="edge2" class="edge">
<title>token_transfers::claim&#45;&gt;get_token_amount</title>
<path fill="none" stroke="black" d="M96.67,-73.81C104.4,-65.23 114.25,-54.27 123.12,-44.42"/>
<polygon fill="black" stroke="black" points="125.49,-47.03 129.57,-37.25 120.28,-42.34 125.49,-47.03"/>
</g>
<!-- token_transfers::cancel_offer_script -->
<g id="node4" class="node">
<title>token_transfers::cancel_offer_script</title>
<ellipse fill="none" stroke="black" cx="222" cy="-162" rx="78.79" ry="18"/>
<text text-anchor="middle" x="222" y="-158.3" font-family="Times,serif" font-size="14.00">cancel_offer_script</text>
</g>
<!-- token_transfers::cancel_offer_script&#45;&gt;token_transfers::cancel_offer -->
<g id="edge3" class="edge">
<title>token_transfers::cancel_offer_script&#45;&gt;token_transfers::cancel_offer</title>
<path fill="none" stroke="black" d="M219.03,-143.7C217.77,-136.32 216.26,-127.52 214.84,-119.25"/>
<polygon fill="black" stroke="black" points="218.33,-118.86 213.19,-109.6 211.43,-120.04 218.33,-118.86"/>
</g>
<!-- token_transfers::claim_script -->
<g id="node5" class="node">
<title>token_transfers::claim_script</title>
<ellipse fill="none" stroke="black" cx="71" cy="-162" rx="54.69" ry="18"/>
<text text-anchor="middle" x="71" y="-158.3" font-family="Times,serif" font-size="14.00">claim_script</text>
</g>
<!-- token_transfers::claim_script&#45;&gt;token_transfers::claim -->
<g id="edge4" class="edge">
<title>token_transfers::claim_script&#45;&gt;token_transfers::claim</title>
<path fill="none" stroke="black" d="M73.97,-143.7C75.23,-136.32 76.74,-127.52 78.16,-119.25"/>
<polygon fill="black" stroke="black" points="81.57,-120.04 79.81,-109.6 74.67,-118.86 81.57,-120.04"/>
</g>
</g>
</svg>
