<?xml version="1.0" encoding="UTF-8" standalone="no"?>
<!DOCTYPE svg PUBLIC "-//W3C//DTD SVG 1.1//EN"
 "http://www.w3.org/Graphics/SVG/1.1/DTD/svg11.dtd">
<!-- Generated by graphviz version 7.0.4 (20221203.1631)
 -->
<!-- Title: G Pages: 1 -->
<svg width="2454pt" height="542pt"
 viewBox="0.00 0.00 2454.00 542.00" xmlns="http://www.w3.org/2000/svg" xmlns:xlink="http://www.w3.org/1999/xlink">
<g id="graph0" class="graph" transform="scale(1 1) rotate(0) translate(4 538)">
<title>G</title>
<polygon fill="white" stroke="none" points="-4,4 -4,-538 2450,-538 2450,4 -4,4"/>
<g id="clust5" class="cluster">
<title>cluster_token_event_store</title>
<polygon fill="none" stroke="black" points="352,-340 352,-490 652,-490 652,-340 352,-340"/>
<text text-anchor="middle" x="502" y="-474.8" font-family="Times,serif" font-size="14.00">token_event_store</text>
</g>
<g id="clust1" class="cluster">
<title>cluster_option</title>
<polygon fill="none" stroke="black" points="1905,-91 1905,-249 2236,-249 2236,-91 1905,-91"/>
<text text-anchor="middle" x="2070.5" y="-233.8" font-family="Times,serif" font-size="14.00">option</text>
</g>
<g id="clust2" class="cluster">
<title>cluster_error</title>
<polygon fill="none" stroke="black" points="703,-174 703,-332 1279,-332 1279,-174 703,-174"/>
<text text-anchor="middle" x="991" y="-316.8" font-family="Times,serif" font-size="14.00">error</text>
</g>
<g id="clust3" class="cluster">
<title>cluster_table</title>
<polygon fill="none" stroke="black" points="1326,-174 1326,-332 1620,-332 1620,-174 1326,-174"/>
<text text-anchor="middle" x="1473" y="-316.8" font-family="Times,serif" font-size="14.00">table</text>
</g>
<g id="clust4" class="cluster">
<title>cluster_property_map</title>
<polygon fill="none" stroke="black" points="976,-340 976,-490 1569,-490 1569,-340 976,-340"/>
<text text-anchor="middle" x="1272.5" y="-474.8" font-family="Times,serif" font-size="14.00">property_map</text>
</g>
<g id="clust6" class="cluster">
<title>cluster_vector</title>
<polygon fill="none" stroke="black" points="2031,-8 2031,-83 2238,-83 2238,-8 2031,-8"/>
<text text-anchor="middle" x="2134.5" y="-67.8" font-family="Times,serif" font-size="14.00">vector</text>
</g>
<g id="clust7" class="cluster">
<title>cluster_simple_map</title>
<polygon fill="none" stroke="black" points="1697,-257 1697,-415 2200,-415 2200,-257 1697,-257"/>
<text text-anchor="middle" x="1948.5" y="-399.8" font-family="Times,serif" font-size="14.00">simple_map</text>
</g>
<g id="clust8" class="cluster">
<title>cluster_string</title>
<polygon fill="none" stroke="black" points="1577,-340 1577,-415 1657,-415 1657,-340 1577,-340"/>
<text text-anchor="middle" x="1617" y="-399.8" font-family="Times,serif" font-size="14.00">string</text>
</g>
<g id="clust9" class="cluster">
<title>cluster_signer</title>
<polygon fill="none" stroke="black" points="551,-8 551,-166 701,-166 701,-8 551,-8"/>
<text text-anchor="middle" x="626" y="-150.8" font-family="Times,serif" font-size="14.00">signer</text>
</g>
<g id="clust10" class="cluster">
<title>cluster_event</title>
<polygon fill="none" stroke="black" points="112,-91 112,-249 400,-249 400,-91 112,-91"/>
<text text-anchor="middle" x="256" y="-233.8" font-family="Times,serif" font-size="14.00">event</text>
</g>
<g id="clust11" class="cluster">
<title>cluster_bcs</title>
<polygon fill="none" stroke="black" points="8,-91 8,-166 104,-166 104,-91 8,-91"/>
<text text-anchor="middle" x="56" y="-150.8" font-family="Times,serif" font-size="14.00">bcs</text>
</g>
<g id="clust12" class="cluster">
<title>cluster_account</title>
<polygon fill="none" stroke="black" points="408,-174 408,-332 578,-332 578,-174 408,-174"/>
<text text-anchor="middle" x="493" y="-316.8" font-family="Times,serif" font-size="14.00">account</text>
</g>
<g id="clust13" class="cluster">
<title>cluster_guid</title>
<polygon fill="none" stroke="black" points="458,-91 458,-166 538,-166 538,-91 458,-91"/>
<text text-anchor="middle" x="498" y="-150.8" font-family="Times,serif" font-size="14.00">guid</text>
</g>
<!-- mutate_tokendata_property -->
<g id="node1" class="node">
<title>mutate_tokendata_property</title>
<ellipse fill="none" stroke="black" cx="1148" cy="-516" rx="107.78" ry="18"/>
<text text-anchor="middle" x="1148" y="-512.3" font-family="Times,serif" font-size="14.00">mutate_tokendata_property</text>
</g>
<!-- option::is_some -->
<g id="node2" class="node">
<title>option::is_some</title>
<ellipse fill="none" stroke="black" cx="2188" cy="-117" rx="40.09" ry="18"/>
<text text-anchor="middle" x="2188" y="-113.3" font-family="Times,serif" font-size="14.00">is_some</text>
</g>
<!-- mutate_tokendata_property&#45;&gt;option::is_some -->
<g id="edge1" class="edge">
<title>mutate_tokendata_property&#45;&gt;option::is_some</title>
<path fill="none" stroke="black" d="M1255.74,-514.33C1492.66,-512.56 2044.5,-506.69 2128,-490 2276.6,-460.3 2446,-518.54 2446,-367 2446,-367 2446,-367 2446,-282 2446,-224.56 2421.07,-208.31 2375,-174 2334.71,-144 2278.39,-129.97 2238.11,-123.47"/>
<polygon fill="black" stroke="black" points="2238.84,-120.04 2228.43,-122.02 2237.8,-126.96 2238.84,-120.04"/>
</g>
<!-- option::none -->
<g id="node3" class="node">
<title>option::none</title>
<ellipse fill="none" stroke="black" cx="1941" cy="-200" rx="27.9" ry="18"/>
<text text-anchor="middle" x="1941" y="-196.3" font-family="Times,serif" font-size="14.00">none</text>
</g>
<!-- mutate_tokendata_property&#45;&gt;option::none -->
<g id="edge2" class="edge">
<title>mutate_tokendata_property&#45;&gt;option::none</title>
<path fill="none" stroke="black" d="M1254.75,-513C1510.59,-507.1 2142.17,-485.47 2204,-415 2250.31,-362.22 2252.77,-307.53 2204,-257 2186.55,-238.92 2000.35,-260.49 1978,-249 1968.58,-244.16 1960.85,-235.71 1954.94,-227.23"/>
<polygon fill="black" stroke="black" points="1957.91,-225.39 1949.64,-218.77 1951.98,-229.1 1957.91,-225.39"/>
</g>
<!-- option::some -->
<g id="node4" class="node">
<title>option::some</title>
<ellipse fill="none" stroke="black" cx="2198" cy="-200" rx="29.8" ry="18"/>
<text text-anchor="middle" x="2198" y="-196.3" font-family="Times,serif" font-size="14.00">some</text>
</g>
<!-- mutate_tokendata_property&#45;&gt;option::some -->
<g id="edge3" class="edge">
<title>mutate_tokendata_property&#45;&gt;option::some</title>
<path fill="none" stroke="black" d="M1256.15,-515.6C1452.7,-516.07 1861.09,-513.98 2001,-490 2108.64,-471.55 2170.63,-503.23 2235,-415 2276.47,-358.16 2237.82,-270.47 2213.82,-227.11"/>
<polygon fill="black" stroke="black" points="2216.99,-225.6 2208.99,-218.65 2210.91,-229.07 2216.99,-225.6"/>
</g>
<!-- error::invalid_state -->
<g id="node5" class="node">
<title>error::invalid_state</title>
<ellipse fill="none" stroke="black" cx="1051" cy="-283" rx="55.79" ry="18"/>
<text text-anchor="middle" x="1051" y="-279.3" font-family="Times,serif" font-size="14.00">invalid_state</text>
</g>
<!-- mutate_tokendata_property&#45;&gt;error::invalid_state -->
<g id="edge4" class="edge">
<title>mutate_tokendata_property&#45;&gt;error::invalid_state</title>
<path fill="none" stroke="black" d="M1041.29,-512.9C1004.95,-509.75 970.56,-503.19 959,-490 914.89,-439.68 934.02,-395.1 972,-340 976.07,-334.1 980,-335.91 986,-332 997.82,-324.3 1010.38,-315.24 1021.28,-307.08"/>
<polygon fill="black" stroke="black" points="1023.3,-309.94 1029.16,-301.11 1019.07,-304.36 1023.3,-309.94"/>
</g>
<!-- error::permission_denied -->
<g id="node6" class="node">
<title>error::permission_denied</title>
<ellipse fill="none" stroke="black" cx="900" cy="-283" rx="77.19" ry="18"/>
<text text-anchor="middle" x="900" y="-279.3" font-family="Times,serif" font-size="14.00">permission_denied</text>
</g>
<!-- mutate_tokendata_property&#45;&gt;error::permission_denied -->
<g id="edge5" class="edge">
<title>mutate_tokendata_property&#45;&gt;error::permission_denied</title>
<path fill="none" stroke="black" d="M1047.71,-509.03C994.75,-504.91 938.87,-498.6 930,-490 882.24,-443.67 887.66,-357.42 894.47,-312.64"/>
<polygon fill="black" stroke="black" points="897.9,-313.37 896.09,-302.93 890.99,-312.22 897.9,-313.37"/>
</g>
<!-- table::borrow_mut -->
<g id="node7" class="node">
<title>table::borrow_mut</title>
<ellipse fill="none" stroke="black" cx="1548" cy="-283" rx="54.69" ry="18"/>
<text text-anchor="middle" x="1548" y="-279.3" font-family="Times,serif" font-size="14.00">borrow_mut</text>
</g>
<!-- mutate_tokendata_property&#45;&gt;table::borrow_mut -->
<g id="edge6" class="edge">
<title>mutate_tokendata_property&#45;&gt;table::borrow_mut</title>
<path fill="none" stroke="black" d="M1253.92,-512.27C1370.17,-508.73 1544.2,-501.58 1573,-490 1644.71,-461.17 1701.75,-405.68 1661,-340 1648.15,-319.3 1625.12,-306.01 1603.19,-297.6"/>
<polygon fill="black" stroke="black" points="1604.58,-294.38 1593.98,-294.36 1602.25,-300.99 1604.58,-294.38"/>
</g>
<!-- property_map::borrow -->
<g id="node8" class="node">
<title>property_map::borrow</title>
<ellipse fill="none" stroke="black" cx="1525" cy="-441" rx="36.29" ry="18"/>
<text text-anchor="middle" x="1525" y="-437.3" font-family="Times,serif" font-size="14.00">borrow</text>
</g>
<!-- mutate_tokendata_property&#45;&gt;property_map::borrow -->
<g id="edge7" class="edge">
<title>mutate_tokendata_property&#45;&gt;property_map::borrow</title>
<path fill="none" stroke="black" d="M1256.05,-515.25C1337.54,-513.88 1441.61,-508.37 1480,-490 1490.71,-484.88 1500.13,-476 1507.56,-467.27"/>
<polygon fill="black" stroke="black" points="1510.18,-469.6 1513.61,-459.57 1504.68,-465.27 1510.18,-469.6"/>
</g>
<!-- property_map::add -->
<g id="node9" class="node">
<title>property_map::add</title>
<ellipse fill="none" stroke="black" cx="1011" cy="-441" rx="27" ry="18"/>
<text text-anchor="middle" x="1011" y="-437.3" font-family="Times,serif" font-size="14.00">add</text>
</g>
<!-- mutate_tokendata_property&#45;&gt;property_map::add -->
<g id="edge8" class="edge">
<title>mutate_tokendata_property&#45;&gt;property_map::add</title>
<path fill="none" stroke="black" d="M1073.25,-502.74C1063.99,-499.46 1054.98,-495.29 1047,-490 1038.48,-484.36 1031.2,-475.99 1025.47,-467.81"/>
<polygon fill="black" stroke="black" points="1028.42,-465.93 1020.07,-459.41 1022.53,-469.71 1028.42,-465.93"/>
</g>
<!-- property_map::contains_key -->
<g id="node10" class="node">
<title>property_map::contains_key</title>
<ellipse fill="none" stroke="black" cx="1041" cy="-366" rx="57.39" ry="18"/>
<text text-anchor="middle" x="1041" y="-362.3" font-family="Times,serif" font-size="14.00">contains_key</text>
</g>
<!-- mutate_tokendata_property&#45;&gt;property_map::contains_key -->
<g id="edge9" class="edge">
<title>mutate_tokendata_property&#45;&gt;property_map::contains_key</title>
<path fill="none" stroke="black" d="M1043.7,-511.14C1012.93,-507.67 984.83,-501.36 975,-490 955.51,-467.49 962.49,-450.02 975,-423 981.33,-409.33 992.81,-397.79 1004.45,-388.79"/>
<polygon fill="black" stroke="black" points="1006.41,-391.69 1012.49,-383.02 1002.33,-386.01 1006.41,-391.69"/>
</g>
<!-- property_map::create_property_value_raw -->
<g id="node11" class="node">
<title>property_map::create_property_value_raw</title>
<ellipse fill="none" stroke="black" cx="1364" cy="-441" rx="106.68" ry="18"/>
<text text-anchor="middle" x="1364" y="-437.3" font-family="Times,serif" font-size="14.00">create_property_value_raw</text>
</g>
<!-- mutate_tokendata_property&#45;&gt;property_map::create_property_value_raw -->
<g id="edge10" class="edge">
<title>mutate_tokendata_property&#45;&gt;property_map::create_property_value_raw</title>
<path fill="none" stroke="black" d="M1210.92,-501C1223.63,-497.74 1236.82,-494.02 1249,-490 1272.18,-482.34 1297.27,-472.11 1318.08,-463.06"/>
<polygon fill="black" stroke="black" points="1319.41,-466.3 1327.15,-459.07 1316.59,-459.89 1319.41,-466.3"/>
</g>
<!-- property_map::update_property_value -->
<g id="node12" class="node">
<title>property_map::update_property_value</title>
<ellipse fill="none" stroke="black" cx="1148" cy="-441" rx="91.78" ry="18"/>
<text text-anchor="middle" x="1148" y="-437.3" font-family="Times,serif" font-size="14.00">update_property_value</text>
</g>
<!-- mutate_tokendata_property&#45;&gt;property_map::update_property_value -->
<g id="edge11" class="edge">
<title>mutate_tokendata_property&#45;&gt;property_map::update_property_value</title>
<path fill="none" stroke="black" d="M1148,-497.7C1148,-489.67 1148,-479.9 1148,-470.8"/>
<polygon fill="black" stroke="black" points="1151.5,-470.94 1148,-460.94 1144.5,-470.94 1151.5,-470.94"/>
</g>
<!-- token_event_store::emit_default_property_mutate_event -->
<g id="node13" class="node">
<title>token_event_store::emit_default_property_mutate_event</title>
<ellipse fill="none" stroke="black" cx="502" cy="-441" rx="141.88" ry="18"/>
<text text-anchor="middle" x="502" y="-437.3" font-family="Times,serif" font-size="14.00">emit_default_property_mutate_event</text>
</g>
<!-- mutate_tokendata_property&#45;&gt;token_event_store::emit_default_property_mutate_event -->
<g id="edge12" class="edge">
<title>mutate_tokendata_property&#45;&gt;token_event_store::emit_default_property_mutate_event</title>
<path fill="none" stroke="black" d="M1044.76,-510.58C972.21,-506.81 872.95,-500.33 786,-490 719.08,-482.05 643.91,-469.17 587.73,-458.75"/>
<polygon fill="black" stroke="black" points="588.71,-455.38 578.24,-456.98 587.43,-462.26 588.71,-455.38"/>
</g>
<!-- assert_tokendata_exists -->
<g id="node14" class="node">
<title>assert_tokendata_exists</title>
<ellipse fill="none" stroke="black" cx="758" cy="-366" rx="93.68" ry="18"/>
<text text-anchor="middle" x="758" y="-362.3" font-family="Times,serif" font-size="14.00">assert_tokendata_exists</text>
</g>
<!-- mutate_tokendata_property&#45;&gt;assert_tokendata_exists -->
<g id="edge13" class="edge">
<title>mutate_tokendata_property&#45;&gt;assert_tokendata_exists</title>
<path fill="none" stroke="black" d="M1040.95,-513.67C974.39,-511.29 895.97,-505.2 866,-490 823.83,-468.61 790.86,-423.07 772.94,-393.8"/>
<polygon fill="black" stroke="black" points="776.12,-392.31 768.01,-385.5 770.1,-395.89 776.12,-392.31"/>
</g>
<!-- vector::is_empty -->
<g id="node15" class="node">
<title>vector::is_empty</title>
<ellipse fill="none" stroke="black" cx="2186" cy="-34" rx="43.59" ry="18"/>
<text text-anchor="middle" x="2186" y="-30.3" font-family="Times,serif" font-size="14.00">is_empty</text>
</g>
<!-- option::is_some&#45;&gt;vector::is_empty -->
<g id="edge14" class="edge">
<title>option::is_some&#45;&gt;vector::is_empty</title>
<path fill="none" stroke="black" d="M2187.58,-98.82C2187.33,-88.69 2187,-75.6 2186.71,-63.92"/>
<polygon fill="black" stroke="black" points="2190.21,-63.86 2186.47,-53.95 2183.22,-64.03 2190.21,-63.86"/>
</g>
<!-- vector::singleton -->
<g id="node16" class="node">
<title>vector::singleton</title>
<ellipse fill="none" stroke="black" cx="2082" cy="-34" rx="42.79" ry="18"/>
<text text-anchor="middle" x="2082" y="-30.3" font-family="Times,serif" font-size="14.00">singleton</text>
</g>
<!-- option::some&#45;&gt;vector::singleton -->
<g id="edge15" class="edge">
<title>option::some&#45;&gt;vector::singleton</title>
<path fill="none" stroke="black" d="M2178.99,-185.79C2172.77,-181.75 2165.72,-177.46 2159,-174 2150.49,-169.62 2145.87,-172.67 2139,-166 2110.06,-137.91 2094.89,-92.66 2087.67,-63.37"/>
<polygon fill="black" stroke="black" points="2091.11,-62.71 2085.46,-53.74 2084.28,-64.27 2091.11,-62.71"/>
</g>
<!-- error::canonical -->
<g id="node17" class="node">
<title>error::canonical</title>
<ellipse fill="none" stroke="black" cx="975" cy="-200" rx="44.39" ry="18"/>
<text text-anchor="middle" x="975" y="-196.3" font-family="Times,serif" font-size="14.00">canonical</text>
</g>
<!-- error::invalid_state&#45;&gt;error::canonical -->
<g id="edge16" class="edge">
<title>error::invalid_state&#45;&gt;error::canonical</title>
<path fill="none" stroke="black" d="M1035.62,-265.61C1024.8,-254.08 1010.14,-238.46 997.95,-225.46"/>
<polygon fill="black" stroke="black" points="1000.79,-223.37 991.39,-218.47 995.68,-228.16 1000.79,-223.37"/>
</g>
<!-- error::permission_denied&#45;&gt;error::canonical -->
<g id="edge17" class="edge">
<title>error::permission_denied&#45;&gt;error::canonical</title>
<path fill="none" stroke="black" d="M915.54,-265.22C926.14,-253.77 940.35,-238.42 952.22,-225.6"/>
<polygon fill="black" stroke="black" points="954.74,-228.04 958.96,-218.32 949.6,-223.28 954.74,-228.04"/>
</g>
<!-- table::borrow_box_mut -->
<g id="node18" class="node">
<title>table::borrow_box_mut</title>
<ellipse fill="none" stroke="black" cx="1540" cy="-200" rx="72.29" ry="18"/>
<text text-anchor="middle" x="1540" y="-196.3" font-family="Times,serif" font-size="14.00">borrow_box_mut</text>
</g>
<!-- table::borrow_mut&#45;&gt;table::borrow_box_mut -->
<g id="edge18" class="edge">
<title>table::borrow_mut&#45;&gt;table::borrow_box_mut</title>
<path fill="none" stroke="black" d="M1546.3,-264.82C1545.29,-254.58 1543.98,-241.33 1542.82,-229.55"/>
<polygon fill="black" stroke="black" points="1546.34,-229.55 1541.87,-219.94 1539.37,-230.23 1546.34,-229.55"/>
</g>
<!-- property_map::borrow&#45;&gt;property_map::contains_key -->
<g id="edge20" class="edge">
<title>property_map::borrow&#45;&gt;property_map::contains_key</title>
<path fill="none" stroke="black" d="M1498.2,-428.7C1492.29,-426.54 1486,-424.49 1480,-423 1350.85,-390.84 1195.48,-376.56 1108.51,-370.69"/>
<polygon fill="black" stroke="black" points="1108.93,-367.21 1098.72,-370.05 1108.47,-374.2 1108.93,-367.21"/>
</g>
<!-- simple_map::borrow -->
<g id="node19" class="node">
<title>simple_map::borrow</title>
<ellipse fill="none" stroke="black" cx="2023" cy="-366" rx="36.29" ry="18"/>
<text text-anchor="middle" x="2023" y="-362.3" font-family="Times,serif" font-size="14.00">borrow</text>
</g>
<!-- property_map::borrow&#45;&gt;simple_map::borrow -->
<g id="edge19" class="edge">
<title>property_map::borrow&#45;&gt;simple_map::borrow</title>
<path fill="none" stroke="black" d="M1561.43,-439.54C1662.37,-438.05 1940.7,-432.39 1978,-415 1988.76,-409.98 1998.19,-401.13 2005.61,-392.38"/>
<polygon fill="black" stroke="black" points="2008.25,-394.7 2011.65,-384.66 2002.73,-390.39 2008.25,-394.7"/>
</g>
<!-- property_map::add&#45;&gt;error::invalid_state -->
<g id="edge23" class="edge">
<title>property_map::add&#45;&gt;error::invalid_state</title>
<path fill="none" stroke="black" d="M1031.51,-428.99C1036.47,-426.7 1041.83,-424.53 1047,-423 1059.9,-419.19 1098.14,-425.12 1107,-415 1128.96,-389.92 1119.76,-370.8 1107,-340 1101.79,-327.42 1092.24,-316.2 1082.48,-307.16"/>
<polygon fill="black" stroke="black" points="1084.95,-304.68 1075.09,-300.79 1080.38,-309.98 1084.95,-304.68"/>
</g>
<!-- string::length -->
<g id="node20" class="node">
<title>string::length</title>
<ellipse fill="none" stroke="black" cx="1617" cy="-366" rx="32.49" ry="18"/>
<text text-anchor="middle" x="1617" y="-362.3" font-family="Times,serif" font-size="14.00">length</text>
</g>
<!-- property_map::add&#45;&gt;string::length -->
<g id="edge21" class="edge">
<title>property_map::add&#45;&gt;string::length</title>
<path fill="none" stroke="black" d="M1031.01,-428.72C1036.08,-426.38 1041.61,-424.25 1047,-423 1075.47,-416.39 1546.34,-426.97 1573,-415 1583.87,-410.12 1593.25,-401.12 1600.52,-392.23"/>
<polygon fill="black" stroke="black" points="1603.2,-394.48 1606.4,-384.38 1597.6,-390.28 1603.2,-394.48"/>
</g>
<!-- error::invalid_argument -->
<g id="node21" class="node">
<title>error::invalid_argument</title>
<ellipse fill="none" stroke="black" cx="1198" cy="-283" rx="73.39" ry="18"/>
<text text-anchor="middle" x="1198" y="-279.3" font-family="Times,serif" font-size="14.00">invalid_argument</text>
</g>
<!-- property_map::add&#45;&gt;error::invalid_argument -->
<g id="edge22" class="edge">
<title>property_map::add&#45;&gt;error::invalid_argument</title>
<path fill="none" stroke="black" d="M1031.47,-428.86C1036.43,-426.58 1041.8,-424.44 1047,-423 1064.43,-418.18 1112.96,-425.05 1128,-415 1163.74,-391.11 1182.61,-342.78 1191.44,-311.98"/>
<polygon fill="black" stroke="black" points="1194.75,-313.14 1193.95,-302.58 1187.98,-311.34 1194.75,-313.14"/>
</g>
<!-- simple_map::length -->
<g id="node22" class="node">
<title>simple_map::length</title>
<ellipse fill="none" stroke="black" cx="1737" cy="-366" rx="32.49" ry="18"/>
<text text-anchor="middle" x="1737" y="-362.3" font-family="Times,serif" font-size="14.00">length</text>
</g>
<!-- property_map::add&#45;&gt;simple_map::length -->
<g id="edge24" class="edge">
<title>property_map::add&#45;&gt;simple_map::length</title>
<path fill="none" stroke="black" d="M1031.01,-428.71C1036.08,-426.37 1041.61,-424.24 1047,-423 1113.48,-407.64 1595.59,-434.39 1661,-415 1679.11,-409.63 1697.09,-398.61 1711.01,-388.47"/>
<polygon fill="black" stroke="black" points="1712.9,-391.43 1718.75,-382.6 1708.67,-385.86 1712.9,-391.43"/>
</g>
<!-- simple_map::add -->
<g id="node23" class="node">
<title>simple_map::add</title>
<ellipse fill="none" stroke="black" cx="1814" cy="-366" rx="27" ry="18"/>
<text text-anchor="middle" x="1814" y="-362.3" font-family="Times,serif" font-size="14.00">add</text>
</g>
<!-- property_map::add&#45;&gt;simple_map::add -->
<g id="edge25" class="edge">
<title>property_map::add&#45;&gt;simple_map::add</title>
<path fill="none" stroke="black" d="M1031.01,-428.7C1036.07,-426.36 1041.61,-424.24 1047,-423 1066.79,-418.45 1759.89,-424.18 1778,-415 1787.35,-410.26 1794.91,-401.83 1800.65,-393.34"/>
<polygon fill="black" stroke="black" points="1803.59,-395.24 1805.75,-384.87 1797.59,-391.63 1803.59,-395.24"/>
</g>
<!-- simple_map::contains_key -->
<g id="node24" class="node">
<title>simple_map::contains_key</title>
<ellipse fill="none" stroke="black" cx="2135" cy="-366" rx="57.39" ry="18"/>
<text text-anchor="middle" x="2135" y="-362.3" font-family="Times,serif" font-size="14.00">contains_key</text>
</g>
<!-- property_map::contains_key&#45;&gt;simple_map::contains_key -->
<g id="edge26" class="edge">
<title>property_map::contains_key&#45;&gt;simple_map::contains_key</title>
<path fill="none" stroke="black" d="M1094.24,-372.96C1191.09,-385.23 1402.67,-410.24 1582,-419 1608.47,-420.29 2033.08,-424.5 2059,-419 2078.1,-414.95 2096.18,-402.82 2109.91,-391.18"/>
<polygon fill="black" stroke="black" points="2112.02,-393.99 2117.14,-384.71 2107.36,-388.77 2112.02,-393.99"/>
</g>
<!-- simple_map::borrow_mut -->
<g id="node25" class="node">
<title>simple_map::borrow_mut</title>
<ellipse fill="none" stroke="black" cx="1914" cy="-366" rx="54.69" ry="18"/>
<text text-anchor="middle" x="1914" y="-362.3" font-family="Times,serif" font-size="14.00">borrow_mut</text>
</g>
<!-- property_map::update_property_value&#45;&gt;simple_map::borrow_mut -->
<g id="edge27" class="edge">
<title>property_map::update_property_value&#45;&gt;simple_map::borrow_mut</title>
<path fill="none" stroke="black" d="M1211.55,-427.68C1223.61,-425.77 1236.16,-424.08 1248,-423 1281.31,-419.97 1818.34,-425.79 1850,-415 1864.63,-410.02 1878.63,-400.3 1889.78,-390.9"/>
<polygon fill="black" stroke="black" points="1891.8,-393.8 1896.95,-384.54 1887.15,-388.56 1891.8,-393.8"/>
</g>
<!-- signer::address_of -->
<g id="node26" class="node">
<title>signer::address_of</title>
<ellipse fill="none" stroke="black" cx="626" cy="-117" rx="48.99" ry="18"/>
<text text-anchor="middle" x="626" y="-113.3" font-family="Times,serif" font-size="14.00">address_of</text>
</g>
<!-- token_event_store::emit_default_property_mutate_event&#45;&gt;signer::address_of -->
<g id="edge28" class="edge">
<title>token_event_store::emit_default_property_mutate_event&#45;&gt;signer::address_of</title>
<path fill="none" stroke="black" d="M593.59,-426.92C604.4,-423.72 613.02,-419.79 617,-415 650.37,-374.85 636.6,-212.53 629.37,-146.33"/>
<polygon fill="black" stroke="black" points="632.88,-146.18 628.28,-136.64 625.92,-146.97 632.88,-146.18"/>
</g>
<!-- event::emit_event -->
<g id="node27" class="node">
<title>event::emit_event</title>
<ellipse fill="none" stroke="black" cx="170" cy="-200" rx="50.09" ry="18"/>
<text text-anchor="middle" x="170" y="-196.3" font-family="Times,serif" font-size="14.00">emit_event</text>
</g>
<!-- token_event_store::emit_default_property_mutate_event&#45;&gt;event::emit_event -->
<g id="edge29" class="edge">
<title>token_event_store::emit_default_property_mutate_event&#45;&gt;event::emit_event</title>
<path fill="none" stroke="black" d="M408.22,-427.12C398.04,-423.93 388.09,-419.95 379,-415 292.54,-367.89 219.51,-273.19 187.44,-227.22"/>
<polygon fill="black" stroke="black" points="190.46,-225.44 181.91,-219.18 184.69,-229.4 190.46,-225.44"/>
</g>
<!-- token_event_store::initialize_token_event_store -->
<g id="node28" class="node">
<title>token_event_store::initialize_token_event_store</title>
<ellipse fill="none" stroke="black" cx="498" cy="-366" rx="110.48" ry="18"/>
<text text-anchor="middle" x="498" y="-362.3" font-family="Times,serif" font-size="14.00">initialize_token_event_store</text>
</g>
<!-- token_event_store::emit_default_property_mutate_event&#45;&gt;token_event_store::initialize_token_event_store -->
<g id="edge30" class="edge">
<title>token_event_store::emit_default_property_mutate_event&#45;&gt;token_event_store::initialize_token_event_store</title>
<path fill="none" stroke="black" d="M501.05,-422.7C500.61,-414.67 500.08,-404.9 499.58,-395.8"/>
<polygon fill="black" stroke="black" points="503.08,-395.73 499.04,-385.94 496.09,-396.12 503.08,-395.73"/>
</g>
<!-- assert_tokendata_exists&#45;&gt;error::permission_denied -->
<g id="edge33" class="edge">
<title>assert_tokendata_exists&#45;&gt;error::permission_denied</title>
<path fill="none" stroke="black" d="M787.08,-348.41C808.71,-336.08 838.42,-319.13 861.94,-305.71"/>
<polygon fill="black" stroke="black" points="863.66,-308.76 870.61,-300.76 860.19,-302.68 863.66,-308.76"/>
</g>
<!-- assert_tokendata_exists&#45;&gt;signer::address_of -->
<g id="edge31" class="edge">
<title>assert_tokendata_exists&#45;&gt;signer::address_of</title>
<path fill="none" stroke="black" d="M719.84,-349.28C712.09,-344.66 704.61,-338.93 699,-332 652.73,-274.87 675.4,-242.99 650,-174 646.52,-164.54 642.3,-154.37 638.39,-145.32"/>
<polygon fill="black" stroke="black" points="641.67,-144.09 634.43,-136.36 635.26,-146.92 641.67,-144.09"/>
</g>
<!-- error::not_found -->
<g id="node29" class="node">
<title>error::not_found</title>
<ellipse fill="none" stroke="black" cx="758" cy="-283" rx="46.59" ry="18"/>
<text text-anchor="middle" x="758" y="-279.3" font-family="Times,serif" font-size="14.00">not_found</text>
</g>
<!-- assert_tokendata_exists&#45;&gt;error::not_found -->
<g id="edge32" class="edge">
<title>assert_tokendata_exists&#45;&gt;error::not_found</title>
<path fill="none" stroke="black" d="M758,-347.82C758,-337.69 758,-324.6 758,-312.92"/>
<polygon fill="black" stroke="black" points="761.5,-312.95 758,-302.95 754.5,-312.95 761.5,-312.95"/>
</g>
<!-- table::contains -->
<g id="node30" class="node">
<title>table::contains</title>
<ellipse fill="none" stroke="black" cx="1383" cy="-283" rx="40.09" ry="18"/>
<text text-anchor="middle" x="1383" y="-279.3" font-family="Times,serif" font-size="14.00">contains</text>
</g>
<!-- assert_tokendata_exists&#45;&gt;table::contains -->
<g id="edge34" class="edge">
<title>assert_tokendata_exists&#45;&gt;table::contains</title>
<path fill="none" stroke="black" d="M832.12,-354.67C873.25,-349.36 925.36,-343.32 972,-340 1006.48,-337.55 1249.4,-340.1 1283,-332 1306.85,-326.25 1331.73,-314.33 1350.71,-303.81"/>
<polygon fill="black" stroke="black" points="1352.34,-306.91 1359.28,-298.91 1348.87,-300.83 1352.34,-306.91"/>
</g>
<!-- simple_map::borrow&#45;&gt;option::is_some -->
<g id="edge36" class="edge">
<title>simple_map::borrow&#45;&gt;option::is_some</title>
<path fill="none" stroke="black" d="M2046.23,-351.95C2053.47,-348 2061.51,-343.72 2069,-340 2156.8,-296.34 2216.85,-331.41 2270,-249 2288.07,-220.99 2285.56,-203.48 2270,-174 2260.87,-156.7 2243.72,-143.74 2227.46,-134.67"/>
<polygon fill="black" stroke="black" points="2229.37,-131.71 2218.88,-130.21 2226.14,-137.92 2229.37,-131.71"/>
</g>
<!-- simple_map::borrow&#45;&gt;error::invalid_argument -->
<g id="edge37" class="edge">
<title>simple_map::borrow&#45;&gt;error::invalid_argument</title>
<path fill="none" stroke="black" d="M2002.41,-350.76C1995.04,-346.44 1986.46,-342.25 1978,-340 1907.55,-321.29 1393.57,-345.82 1322,-332 1293.5,-326.5 1263.08,-314.82 1239.5,-304.36"/>
<polygon fill="black" stroke="black" points="1241.11,-301.25 1230.56,-300.29 1238.22,-307.62 1241.11,-301.25"/>
</g>
<!-- option::extract -->
<g id="node31" class="node">
<title>option::extract</title>
<ellipse fill="none" stroke="black" cx="2116" cy="-200" rx="34.39" ry="18"/>
<text text-anchor="middle" x="2116" y="-196.3" font-family="Times,serif" font-size="14.00">extract</text>
</g>
<!-- simple_map::borrow&#45;&gt;option::extract -->
<g id="edge35" class="edge">
<title>simple_map::borrow&#45;&gt;option::extract</title>
<path fill="none" stroke="black" d="M2032.43,-348.37C2048.58,-319.89 2081.67,-261.53 2101.02,-227.42"/>
<polygon fill="black" stroke="black" points="2103.91,-229.41 2105.8,-218.99 2097.82,-225.96 2103.91,-229.41"/>
</g>
<!-- simple_map::find -->
<g id="node32" class="node">
<title>simple_map::find</title>
<ellipse fill="none" stroke="black" cx="1970" cy="-283" rx="27" ry="18"/>
<text text-anchor="middle" x="1970" y="-279.3" font-family="Times,serif" font-size="14.00">find</text>
</g>
<!-- simple_map::borrow&#45;&gt;simple_map::find -->
<g id="edge38" class="edge">
<title>simple_map::borrow&#45;&gt;simple_map::find</title>
<path fill="none" stroke="black" d="M2012.27,-348.61C2004.85,-337.26 1994.83,-321.95 1986.41,-309.08"/>
<polygon fill="black" stroke="black" points="1989.58,-307.53 1981.18,-301.08 1983.72,-311.37 1989.58,-307.53"/>
</g>
<!-- error::invalid_argument&#45;&gt;error::canonical -->
<g id="edge39" class="edge">
<title>error::invalid_argument&#45;&gt;error::canonical</title>
<path fill="none" stroke="black" d="M1158.13,-267.52C1118.66,-253.18 1058.4,-231.29 1017.9,-216.58"/>
<polygon fill="black" stroke="black" points="1019.31,-213.37 1008.71,-213.25 1016.92,-219.95 1019.31,-213.37"/>
</g>
<!-- simple_map::add&#45;&gt;error::invalid_argument -->
<g id="edge41" class="edge">
<title>simple_map::add&#45;&gt;error::invalid_argument</title>
<path fill="none" stroke="black" d="M1798.25,-351.07C1792.32,-346.66 1785.24,-342.34 1778,-340 1729.78,-324.43 1371.73,-341.74 1322,-332 1293.61,-326.44 1263.31,-314.82 1239.76,-304.41"/>
<polygon fill="black" stroke="black" points="1241.38,-301.3 1230.83,-300.36 1238.49,-307.68 1241.38,-301.3"/>
</g>
<!-- simple_map::add&#45;&gt;simple_map::find -->
<g id="edge42" class="edge">
<title>simple_map::add&#45;&gt;simple_map::find</title>
<path fill="none" stroke="black" d="M1831.55,-351.92C1837.3,-347.88 1843.8,-343.57 1850,-340 1878.35,-323.7 1912.23,-308.23 1936.75,-297.7"/>
<polygon fill="black" stroke="black" points="1938.08,-300.94 1945.92,-293.81 1935.34,-294.49 1938.08,-300.94"/>
</g>
<!-- option::is_none -->
<g id="node33" class="node">
<title>option::is_none</title>
<ellipse fill="none" stroke="black" cx="2025" cy="-200" rx="38.19" ry="18"/>
<text text-anchor="middle" x="2025" y="-196.3" font-family="Times,serif" font-size="14.00">is_none</text>
</g>
<!-- simple_map::add&#45;&gt;option::is_none -->
<g id="edge40" class="edge">
<title>simple_map::add&#45;&gt;option::is_none</title>
<path fill="none" stroke="black" d="M1829.79,-351.2C1835.73,-346.81 1842.8,-342.46 1850,-340 1866.42,-334.39 1993.17,-343.69 2006,-332 2034.04,-306.45 2033.82,-259.37 2030.12,-229.16"/>
<polygon fill="black" stroke="black" points="2033.64,-229.01 2028.74,-219.61 2026.71,-230.01 2033.64,-229.01"/>
</g>
<!-- simple_map::contains_key&#45;&gt;option::is_some -->
<g id="edge43" class="edge">
<title>simple_map::contains_key&#45;&gt;option::is_some</title>
<path fill="none" stroke="black" d="M2192.59,-364.11C2248.14,-361.88 2326.59,-354.68 2346,-332 2391.66,-278.65 2386.52,-231.35 2346,-174 2322.06,-140.11 2275.78,-126.6 2239.47,-121.28"/>
<polygon fill="black" stroke="black" points="2239.93,-117.81 2229.57,-120.02 2239.05,-124.76 2239.93,-117.81"/>
</g>
<!-- simple_map::contains_key&#45;&gt;simple_map::find -->
<g id="edge44" class="edge">
<title>simple_map::contains_key&#45;&gt;simple_map::find</title>
<path fill="none" stroke="black" d="M2105.12,-350.33C2075.84,-335.96 2031.38,-314.13 2001.55,-299.49"/>
<polygon fill="black" stroke="black" points="2003.15,-296.37 1992.63,-295.11 2000.06,-302.66 2003.15,-296.37"/>
</g>
<!-- simple_map::borrow_mut&#45;&gt;option::is_some -->
<g id="edge46" class="edge">
<title>simple_map::borrow_mut&#45;&gt;option::is_some</title>
<path fill="none" stroke="black" d="M1945.76,-350.97C1955.9,-346.93 1967.28,-342.85 1978,-340 2001.45,-333.77 2008.59,-338.38 2032,-332 2126.84,-306.17 2182.06,-330.51 2237,-249 2255.63,-221.36 2248.72,-205.2 2237,-174 2232.37,-161.69 2223.67,-150.31 2214.88,-141.07"/>
<polygon fill="black" stroke="black" points="2217.55,-138.79 2207.96,-134.28 2212.64,-143.78 2217.55,-138.79"/>
</g>
<!-- simple_map::borrow_mut&#45;&gt;error::invalid_argument -->
<g id="edge47" class="edge">
<title>simple_map::borrow_mut&#45;&gt;error::invalid_argument</title>
<path fill="none" stroke="black" d="M1883.74,-350.63C1873.29,-346.36 1861.35,-342.23 1850,-340 1734.85,-317.4 1437.19,-354.42 1322,-332 1293.51,-326.45 1263.09,-314.78 1239.51,-304.33"/>
<polygon fill="black" stroke="black" points="1241.12,-301.21 1230.57,-300.27 1238.23,-307.59 1241.12,-301.21"/>
</g>
<!-- simple_map::borrow_mut&#45;&gt;option::extract -->
<g id="edge45" class="edge">
<title>simple_map::borrow_mut&#45;&gt;option::extract</title>
<path fill="none" stroke="black" d="M1911.39,-347.69C1908.82,-323.38 1908.4,-279.58 1934,-257 1945.52,-246.84 2058.13,-255.59 2072,-249 2082.61,-243.96 2091.86,-235.1 2099.1,-226.36"/>
<polygon fill="black" stroke="black" points="2101.69,-228.73 2104.97,-218.66 2096.13,-224.49 2101.69,-228.73"/>
</g>
<!-- simple_map::borrow_mut&#45;&gt;simple_map::find -->
<g id="edge48" class="edge">
<title>simple_map::borrow_mut&#45;&gt;simple_map::find</title>
<path fill="none" stroke="black" d="M1925.6,-348.22C1933.42,-336.92 1943.86,-321.82 1952.65,-309.1"/>
<polygon fill="black" stroke="black" points="1955.31,-311.4 1958.12,-301.18 1949.56,-307.42 1955.31,-311.4"/>
</g>
<!-- signer::borrow_address -->
<g id="node34" class="node">
<title>signer::borrow_address</title>
<ellipse fill="none" stroke="black" cx="626" cy="-34" rx="66.89" ry="18"/>
<text text-anchor="middle" x="626" y="-30.3" font-family="Times,serif" font-size="14.00">borrow_address</text>
</g>
<!-- signer::address_of&#45;&gt;signer::borrow_address -->
<g id="edge49" class="edge">
<title>signer::address_of&#45;&gt;signer::borrow_address</title>
<path fill="none" stroke="black" d="M626,-98.82C626,-88.69 626,-75.6 626,-63.92"/>
<polygon fill="black" stroke="black" points="629.5,-63.95 626,-53.95 622.5,-63.95 629.5,-63.95"/>
</g>
<!-- bcs::to_bytes -->
<g id="node35" class="node">
<title>bcs::to_bytes</title>
<ellipse fill="none" stroke="black" cx="56" cy="-117" rx="40.09" ry="18"/>
<text text-anchor="middle" x="56" y="-113.3" font-family="Times,serif" font-size="14.00">to_bytes</text>
</g>
<!-- event::emit_event&#45;&gt;bcs::to_bytes -->
<g id="edge50" class="edge">
<title>event::emit_event&#45;&gt;bcs::to_bytes</title>
<path fill="none" stroke="black" d="M140.38,-185.2C129.81,-179.77 118.04,-173.13 108,-166 97.93,-158.85 87.75,-149.92 79.1,-141.7"/>
<polygon fill="black" stroke="black" points="81.71,-139.36 72.11,-134.88 76.82,-144.37 81.71,-139.36"/>
</g>
<!-- event::write_to_event_store -->
<g id="node36" class="node">
<title>event::write_to_event_store</title>
<ellipse fill="none" stroke="black" cx="205" cy="-117" rx="85.29" ry="18"/>
<text text-anchor="middle" x="205" y="-113.3" font-family="Times,serif" font-size="14.00">write_to_event_store</text>
</g>
<!-- event::emit_event&#45;&gt;event::write_to_event_store -->
<g id="edge51" class="edge">
<title>event::emit_event&#45;&gt;event::write_to_event_store</title>
<path fill="none" stroke="black" d="M177.42,-181.82C181.97,-171.3 187.89,-157.59 193.09,-145.57"/>
<polygon fill="black" stroke="black" points="196.23,-147.11 196.99,-136.54 189.81,-144.33 196.23,-147.11"/>
</g>
<!-- token_event_store::initialize_token_event_store&#45;&gt;option::none -->
<g id="edge52" class="edge">
<title>token_event_store::initialize_token_event_store&#45;&gt;option::none</title>
<path fill="none" stroke="black" d="M567.68,-351.61C594.82,-347 626.26,-342.39 655,-340 681.82,-337.77 1599.4,-342.92 1624,-332 1665.4,-313.63 1653.8,-279.68 1693,-257 1759.63,-218.44 1850.59,-206.43 1901.79,-202.69"/>
<polygon fill="black" stroke="black" points="1901.74,-206.2 1911.49,-202.06 1901.29,-199.22 1901.74,-206.2"/>
</g>
<!-- token_event_store::initialize_token_event_store&#45;&gt;signer::address_of -->
<g id="edge53" class="edge">
<title>token_event_store::initialize_token_event_store&#45;&gt;signer::address_of</title>
<path fill="none" stroke="black" d="M557.13,-350.52C566.53,-345.94 575.34,-339.91 582,-332 605.4,-304.19 618.42,-198.1 623.49,-146.51"/>
<polygon fill="black" stroke="black" points="626.96,-147.01 624.42,-136.72 619.99,-146.35 626.96,-147.01"/>
</g>
<!-- account::new_event_handle -->
<g id="node37" class="node">
<title>account::new_event_handle</title>
<ellipse fill="none" stroke="black" cx="493" cy="-283" rx="76.89" ry="18"/>
<text text-anchor="middle" x="493" y="-279.3" font-family="Times,serif" font-size="14.00">new_event_handle</text>
</g>
<!-- token_event_store::initialize_token_event_store&#45;&gt;account::new_event_handle -->
<g id="edge54" class="edge">
<title>token_event_store::initialize_token_event_store&#45;&gt;account::new_event_handle</title>
<path fill="none" stroke="black" d="M496.94,-347.82C496.31,-337.69 495.51,-324.6 494.79,-312.92"/>
<polygon fill="black" stroke="black" points="498.28,-312.71 494.17,-302.94 491.29,-313.14 498.28,-312.71"/>
</g>
<!-- error::not_found&#45;&gt;error::canonical -->
<g id="edge55" class="edge">
<title>error::not_found&#45;&gt;error::canonical</title>
<path fill="none" stroke="black" d="M786.87,-268.55C795.53,-264.67 805.09,-260.53 814,-257 852.81,-241.62 897.73,-226.19 930.24,-215.43"/>
<polygon fill="black" stroke="black" points="930.93,-218.89 939.33,-212.44 928.74,-212.24 930.93,-218.89"/>
</g>
<!-- table::contains_box -->
<g id="node38" class="node">
<title>table::contains_box</title>
<ellipse fill="none" stroke="black" cx="1392" cy="-200" rx="57.69" ry="18"/>
<text text-anchor="middle" x="1392" y="-196.3" font-family="Times,serif" font-size="14.00">contains_box</text>
</g>
<!-- table::contains&#45;&gt;table::contains_box -->
<g id="edge56" class="edge">
<title>table::contains&#45;&gt;table::contains_box</title>
<path fill="none" stroke="black" d="M1384.91,-264.82C1386.05,-254.58 1387.52,-241.33 1388.83,-229.55"/>
<polygon fill="black" stroke="black" points="1392.27,-230.26 1389.9,-219.94 1385.31,-229.49 1392.27,-230.26"/>
</g>
<!-- option::extract&#45;&gt;option::is_some -->
<g id="edge57" class="edge">
<title>option::extract&#45;&gt;option::is_some</title>
<path fill="none" stroke="black" d="M2129.88,-183.38C2140.21,-171.77 2154.49,-155.69 2166.32,-142.39"/>
<polygon fill="black" stroke="black" points="2168.63,-145.05 2172.66,-135.26 2163.4,-140.4 2168.63,-145.05"/>
</g>
<!-- simple_map::find&#45;&gt;option::none -->
<g id="edge58" class="edge">
<title>simple_map::find&#45;&gt;option::none</title>
<path fill="none" stroke="black" d="M1963.99,-265.22C1960.21,-254.64 1955.23,-240.74 1950.87,-228.58"/>
<polygon fill="black" stroke="black" points="1954.28,-227.7 1947.61,-219.47 1947.69,-230.06 1954.28,-227.7"/>
</g>
<!-- simple_map::find&#45;&gt;option::some -->
<g id="edge59" class="edge">
<title>simple_map::find&#45;&gt;option::some</title>
<path fill="none" stroke="black" d="M1996.84,-279.64C2042.25,-275.27 2131.92,-264.89 2159,-249 2168.29,-243.55 2176.28,-235.01 2182.57,-226.63"/>
<polygon fill="black" stroke="black" points="2185.27,-228.88 2188.07,-218.66 2179.51,-224.9 2185.27,-228.88"/>
</g>
<!-- option::is_none&#45;&gt;vector::is_empty -->
<g id="edge60" class="edge">
<title>option::is_none&#45;&gt;vector::is_empty</title>
<path fill="none" stroke="black" d="M2040.44,-183.27C2068.73,-154.45 2129.07,-92.99 2162.49,-58.95"/>
<polygon fill="black" stroke="black" points="2164.8,-61.59 2169.31,-52 2159.81,-56.68 2164.8,-61.59"/>
</g>
<!-- event::new_event_handle -->
<g id="node39" class="node">
<title>event::new_event_handle</title>
<ellipse fill="none" stroke="black" cx="315" cy="-200" rx="76.89" ry="18"/>
<text text-anchor="middle" x="315" y="-196.3" font-family="Times,serif" font-size="14.00">new_event_handle</text>
</g>
<!-- account::new_event_handle&#45;&gt;event::new_event_handle -->
<g id="edge61" class="edge">
<title>account::new_event_handle&#45;&gt;event::new_event_handle</title>
<path fill="none" stroke="black" d="M450.41,-267.58C435.54,-262.18 418.86,-255.72 404,-249 386.68,-241.16 368.09,-231.37 352.4,-222.68"/>
<polygon fill="black" stroke="black" points="354.31,-219.73 343.87,-217.89 350.88,-225.84 354.31,-219.73"/>
</g>
<!-- account::create_guid -->
<g id="node40" class="node">
<title>account::create_guid</title>
<ellipse fill="none" stroke="black" cx="498" cy="-200" rx="51.99" ry="18"/>
<text text-anchor="middle" x="498" y="-196.3" font-family="Times,serif" font-size="14.00">create_guid</text>
</g>
<!-- account::new_event_handle&#45;&gt;account::create_guid -->
<g id="edge62" class="edge">
<title>account::new_event_handle&#45;&gt;account::create_guid</title>
<path fill="none" stroke="black" d="M494.06,-264.82C494.69,-254.69 495.49,-241.6 496.21,-229.92"/>
<polygon fill="black" stroke="black" points="499.71,-230.14 496.83,-219.94 492.72,-229.71 499.71,-230.14"/>
</g>
<!-- account::create_guid&#45;&gt;signer::address_of -->
<g id="edge63" class="edge">
<title>account::create_guid&#45;&gt;signer::address_of</title>
<path fill="none" stroke="black" d="M522.08,-183.76C541.92,-171.21 570.29,-153.25 592.38,-139.28"/>
<polygon fill="black" stroke="black" points="594.17,-142.28 600.75,-133.98 590.43,-136.37 594.17,-142.28"/>
</g>
<!-- guid::create -->
<g id="node41" class="node">
<title>guid::create</title>
<ellipse fill="none" stroke="black" cx="498" cy="-117" rx="31.7" ry="18"/>
<text text-anchor="middle" x="498" y="-113.3" font-family="Times,serif" font-size="14.00">create</text>
</g>
<!-- account::create_guid&#45;&gt;guid::create -->
<g id="edge64" class="edge">
<title>account::create_guid&#45;&gt;guid::create</title>
<path fill="none" stroke="black" d="M498,-181.82C498,-171.69 498,-158.6 498,-146.92"/>
<polygon fill="black" stroke="black" points="501.5,-146.95 498,-136.95 494.5,-146.95 501.5,-146.95"/>
</g>
</g>
</svg>
