<?xml version="1.0" encoding="UTF-8" standalone="no"?>
<!DOCTYPE svg PUBLIC "-//W3C//DTD SVG 1.1//EN"
 "http://www.w3.org/Graphics/SVG/1.1/DTD/svg11.dtd">
<!-- Generated by graphviz version 7.0.4 (20221203.1631)
 -->
<!-- Title: G Pages: 1 -->
<svg width="971pt" height="371pt"
 viewBox="0.00 0.00 970.58 371.00" xmlns="http://www.w3.org/2000/svg" xmlns:xlink="http://www.w3.org/1999/xlink">
<g id="graph0" class="graph" transform="scale(1 1) rotate(0) translate(4 367)">
<title>G</title>
<polygon fill="white" stroke="none" points="-4,4 -4,-367 966.58,-367 966.58,4 -4,4"/>
<g id="clust1" class="cluster">
<title>cluster_token_transfers</title>
<polygon fill="none" stroke="black" points="825.89,-208 825.89,-355 945.89,-355 945.89,-208 825.89,-208"/>
<text text-anchor="middle" x="885.89" y="-339.8" font-family="Times,serif" font-size="14.00">token_transfers</text>
</g>
<!-- balance_of -->
<g id="node1" class="node">
<title>balance_of</title>
<ellipse fill="none" stroke="black" cx="349.89" cy="-18" rx="49.29" ry="18"/>
<text text-anchor="middle" x="349.89" y="-14.3" font-family="Times,serif" font-size="14.00">balance_of</text>
</g>
<!-- get_property_map -->
<g id="node2" class="node">
<title>get_property_map</title>
<ellipse fill="none" stroke="black" cx="243.89" cy="-90" rx="75.29" ry="18"/>
<text text-anchor="middle" x="243.89" y="-86.3" font-family="Times,serif" font-size="14.00">get_property_map</text>
</g>
<!-- get_property_map&#45;&gt;balance_of -->
<g id="edge1" class="edge">
<title>get_property_map&#45;&gt;balance_of</title>
<path fill="none" stroke="black" d="M268.75,-72.59C283.24,-63.02 301.69,-50.83 317.33,-40.5"/>
<polygon fill="black" stroke="black" points="318.97,-43.62 325.39,-35.18 315.11,-37.77 318.97,-43.62"/>
</g>
<!-- withdraw_with_event_internal -->
<g id="node3" class="node">
<title>withdraw_with_event_internal</title>
<ellipse fill="none" stroke="black" cx="455.89" cy="-90" rx="118.08" ry="18"/>
<text text-anchor="middle" x="455.89" y="-86.3" font-family="Times,serif" font-size="14.00">withdraw_with_event_internal</text>
</g>
<!-- withdraw_with_event_internal&#45;&gt;balance_of -->
<g id="edge2" class="edge">
<title>withdraw_with_event_internal&#45;&gt;balance_of</title>
<path fill="none" stroke="black" d="M430.23,-72.05C415.96,-62.63 398.04,-50.8 382.75,-40.7"/>
<polygon fill="black" stroke="black" points="384.68,-37.78 374.41,-35.19 380.83,-43.62 384.68,-37.78"/>
</g>
<!-- burn_by_creator -->
<g id="node4" class="node">
<title>burn_by_creator</title>
<ellipse fill="none" stroke="black" cx="68.89" cy="-162" rx="68.79" ry="18"/>
<text text-anchor="middle" x="68.89" y="-158.3" font-family="Times,serif" font-size="14.00">burn_by_creator</text>
</g>
<!-- burn_by_creator&#45;&gt;withdraw_with_event_internal -->
<g id="edge3" class="edge">
<title>burn_by_creator&#45;&gt;withdraw_with_event_internal</title>
<path fill="none" stroke="black" d="M120.01,-149.52C128.96,-147.6 138.19,-145.69 146.89,-144 220.07,-129.76 303.41,-115.58 365.08,-105.48"/>
<polygon fill="black" stroke="black" points="365.53,-108.95 374.84,-103.89 364.4,-102.04 365.53,-108.95"/>
</g>
<!-- mutate_one_token -->
<g id="node5" class="node">
<title>mutate_one_token</title>
<ellipse fill="none" stroke="black" cx="231.89" cy="-162" rx="76.09" ry="18"/>
<text text-anchor="middle" x="231.89" y="-158.3" font-family="Times,serif" font-size="14.00">mutate_one_token</text>
</g>
<!-- mutate_one_token&#45;&gt;withdraw_with_event_internal -->
<g id="edge4" class="edge">
<title>mutate_one_token&#45;&gt;withdraw_with_event_internal</title>
<path fill="none" stroke="black" d="M276.69,-147C310.62,-136.4 357.61,-121.71 394.96,-110.04"/>
<polygon fill="black" stroke="black" points="395.77,-113.46 404.27,-107.13 393.68,-106.77 395.77,-113.46"/>
</g>
<!-- partial_withdraw_with_capability -->
<g id="node6" class="node">
<title>partial_withdraw_with_capability</title>
<ellipse fill="none" stroke="black" cx="455.89" cy="-162" rx="129.98" ry="18"/>
<text text-anchor="middle" x="455.89" y="-158.3" font-family="Times,serif" font-size="14.00">partial_withdraw_with_capability</text>
</g>
<!-- partial_withdraw_with_capability&#45;&gt;withdraw_with_event_internal -->
<g id="edge5" class="edge">
<title>partial_withdraw_with_capability&#45;&gt;withdraw_with_event_internal</title>
<path fill="none" stroke="black" d="M455.89,-143.7C455.89,-136.41 455.89,-127.73 455.89,-119.54"/>
<polygon fill="black" stroke="black" points="459.39,-119.62 455.89,-109.62 452.39,-119.62 459.39,-119.62"/>
</g>
<!-- withdraw_token -->
<g id="node7" class="node">
<title>withdraw_token</title>
<ellipse fill="none" stroke="black" cx="671.89" cy="-162" rx="67.69" ry="18"/>
<text text-anchor="middle" x="671.89" y="-158.3" font-family="Times,serif" font-size="14.00">withdraw_token</text>
</g>
<!-- withdraw_token&#45;&gt;withdraw_with_event_internal -->
<g id="edge6" class="edge">
<title>withdraw_token&#45;&gt;withdraw_with_event_internal</title>
<path fill="none" stroke="black" d="M629.99,-147.42C597.27,-136.82 551.41,-121.95 514.97,-110.14"/>
<polygon fill="black" stroke="black" points="516.5,-106.96 505.91,-107.21 514.35,-113.62 516.5,-106.96"/>
</g>
<!-- withdraw_with_capability -->
<g id="node8" class="node">
<title>withdraw_with_capability</title>
<ellipse fill="none" stroke="black" cx="859.89" cy="-162" rx="102.88" ry="18"/>
<text text-anchor="middle" x="859.89" y="-158.3" font-family="Times,serif" font-size="14.00">withdraw_with_capability</text>
</g>
<!-- withdraw_with_capability&#45;&gt;withdraw_with_event_internal -->
<g id="edge7" class="edge">
<title>withdraw_with_capability&#45;&gt;withdraw_with_event_internal</title>
<path fill="none" stroke="black" d="M788.6,-148.65C720.08,-136.77 616.4,-118.81 543.02,-106.1"/>
<polygon fill="black" stroke="black" points="543.91,-102.7 533.46,-104.44 542.72,-109.6 543.91,-102.7"/>
</g>
<!-- mutate_token_properties -->
<g id="node9" class="node">
<title>mutate_token_properties</title>
<ellipse fill="none" stroke="black" cx="231.89" cy="-234" rx="98.58" ry="18"/>
<text text-anchor="middle" x="231.89" y="-230.3" font-family="Times,serif" font-size="14.00">mutate_token_properties</text>
</g>
<!-- mutate_token_properties&#45;&gt;mutate_one_token -->
<g id="edge8" class="edge">
<title>mutate_token_properties&#45;&gt;mutate_one_token</title>
<path fill="none" stroke="black" d="M231.89,-215.7C231.89,-208.41 231.89,-199.73 231.89,-191.54"/>
<polygon fill="black" stroke="black" points="235.39,-191.62 231.89,-181.62 228.39,-191.62 235.39,-191.62"/>
</g>
<!-- burn -->
<g id="node10" class="node">
<title>burn</title>
<ellipse fill="none" stroke="black" cx="529.89" cy="-234" rx="27" ry="18"/>
<text text-anchor="middle" x="529.89" y="-230.3" font-family="Times,serif" font-size="14.00">burn</text>
</g>
<!-- burn&#45;&gt;withdraw_token -->
<g id="edge9" class="edge">
<title>burn&#45;&gt;withdraw_token</title>
<path fill="none" stroke="black" d="M547.37,-219.79C553.11,-215.74 559.63,-211.46 565.89,-208 583.89,-198.07 604.53,-188.86 622.79,-181.39"/>
<polygon fill="black" stroke="black" points="623.84,-184.73 631.82,-177.76 621.24,-178.24 623.84,-184.73"/>
</g>
<!-- transfer -->
<g id="node11" class="node">
<title>transfer</title>
<ellipse fill="none" stroke="black" cx="612.89" cy="-234" rx="37.89" ry="18"/>
<text text-anchor="middle" x="612.89" y="-230.3" font-family="Times,serif" font-size="14.00">transfer</text>
</g>
<!-- transfer&#45;&gt;withdraw_token -->
<g id="edge10" class="edge">
<title>transfer&#45;&gt;withdraw_token</title>
<path fill="none" stroke="black" d="M626.58,-216.76C633.7,-208.32 642.56,-197.8 650.56,-188.31"/>
<polygon fill="black" stroke="black" points="653.13,-190.69 656.9,-180.79 647.78,-186.18 653.13,-190.69"/>
</g>
<!-- direct_transfer -->
<g id="node12" class="node">
<title>direct_transfer</title>
<ellipse fill="none" stroke="black" cx="729.89" cy="-234" rx="61.99" ry="18"/>
<text text-anchor="middle" x="729.89" y="-230.3" font-family="Times,serif" font-size="14.00">direct_transfer</text>
</g>
<!-- direct_transfer&#45;&gt;withdraw_token -->
<g id="edge11" class="edge">
<title>direct_transfer&#45;&gt;withdraw_token</title>
<path fill="none" stroke="black" d="M715.85,-216.05C709.01,-207.8 700.65,-197.7 693.05,-188.54"/>
<polygon fill="black" stroke="black" points="695.85,-186.42 686.77,-180.95 690.46,-190.89 695.85,-186.42"/>
</g>
<!-- token_transfers::offer -->
<g id="node13" class="node">
<title>token_transfers::offer</title>
<ellipse fill="none" stroke="black" cx="873.89" cy="-234" rx="27.9" ry="18"/>
<text text-anchor="middle" x="873.89" y="-230.3" font-family="Times,serif" font-size="14.00">offer</text>
</g>
<!-- token_transfers::offer&#45;&gt;withdraw_token -->
<g id="edge12" class="edge">
<title>token_transfers::offer&#45;&gt;withdraw_token</title>
<path fill="none" stroke="black" d="M849.53,-224.56C818.29,-213.73 763.32,-194.68 722.78,-180.63"/>
<polygon fill="black" stroke="black" points="724.05,-177.37 713.45,-177.4 721.76,-183.98 724.05,-177.37"/>
</g>
<!-- transfer_with_opt_in -->
<g id="node14" class="node">
<title>transfer_with_opt_in</title>
<ellipse fill="none" stroke="black" cx="541.89" cy="-306" rx="84.49" ry="18"/>
<text text-anchor="middle" x="541.89" y="-302.3" font-family="Times,serif" font-size="14.00">transfer_with_opt_in</text>
</g>
<!-- transfer_with_opt_in&#45;&gt;transfer -->
<g id="edge13" class="edge">
<title>transfer_with_opt_in&#45;&gt;transfer</title>
<path fill="none" stroke="black" d="M559.08,-288.05C568.19,-279.08 579.51,-267.92 589.41,-258.15"/>
<polygon fill="black" stroke="black" points="591.58,-260.93 596.24,-251.42 586.66,-255.95 591.58,-260.93"/>
</g>
<!-- direct_transfer_script -->
<g id="node15" class="node">
<title>direct_transfer_script</title>
<ellipse fill="none" stroke="black" cx="729.89" cy="-306" rx="85.59" ry="18"/>
<text text-anchor="middle" x="729.89" y="-302.3" font-family="Times,serif" font-size="14.00">direct_transfer_script</text>
</g>
<!-- direct_transfer_script&#45;&gt;direct_transfer -->
<g id="edge14" class="edge">
<title>direct_transfer_script&#45;&gt;direct_transfer</title>
<path fill="none" stroke="black" d="M729.89,-287.7C729.89,-280.41 729.89,-271.73 729.89,-263.54"/>
<polygon fill="black" stroke="black" points="733.39,-263.62 729.89,-253.62 726.39,-263.62 733.39,-263.62"/>
</g>
<!-- token_transfers::offer_script -->
<g id="node16" class="node">
<title>token_transfers::offer_script</title>
<ellipse fill="none" stroke="black" cx="885.89" cy="-306" rx="51.99" ry="18"/>
<text text-anchor="middle" x="885.89" y="-302.3" font-family="Times,serif" font-size="14.00">offer_script</text>
</g>
<!-- token_transfers::offer_script&#45;&gt;token_transfers::offer -->
<g id="edge15" class="edge">
<title>token_transfers::offer_script&#45;&gt;token_transfers::offer</title>
<path fill="none" stroke="black" d="M882.93,-287.7C881.66,-280.32 880.16,-271.52 878.74,-263.25"/>
<polygon fill="black" stroke="black" points="882.22,-262.86 877.08,-253.6 875.32,-264.04 882.22,-262.86"/>
</g>
</g>
</svg>
