<?xml version="1.0" encoding="UTF-8" standalone="no"?>
<!DOCTYPE svg PUBLIC "-//W3C//DTD SVG 1.1//EN"
 "http://www.w3.org/Graphics/SVG/1.1/DTD/svg11.dtd">
<!-- Generated by graphviz version 7.0.4 (20221203.1631)
 -->
<!-- Title: G Pages: 1 -->
<svg width="461pt" height="373pt"
 viewBox="0.00 0.00 461.10 373.00" xmlns="http://www.w3.org/2000/svg" xmlns:xlink="http://www.w3.org/1999/xlink">
<g id="graph0" class="graph" transform="scale(1 1) rotate(0) translate(4 369)">
<title>G</title>
<polygon fill="white" stroke="none" points="-4,4 -4,-369 457.1,-369 457.1,4 -4,4"/>
<g id="clust1" class="cluster">
<title>cluster_option</title>
<polygon fill="none" stroke="black" points="8,-246 8,-321 80,-321 80,-246 8,-246"/>
<text text-anchor="middle" x="44" y="-305.8" font-family="Times,serif" font-size="14.00">option</text>
</g>
<g id="clust2" class="cluster">
<title>cluster_signer</title>
<polygon fill="none" stroke="black" points="265,-8 265,-155 415,-155 415,-8 265,-8"/>
<text text-anchor="middle" x="340" y="-139.8" font-family="Times,serif" font-size="14.00">signer</text>
</g>
<g id="clust3" class="cluster">
<title>cluster_account</title>
<polygon fill="none" stroke="black" points="88,-163 88,-321 258,-321 258,-163 88,-163"/>
<text text-anchor="middle" x="173" y="-305.8" font-family="Times,serif" font-size="14.00">account</text>
</g>
<g id="clust4" class="cluster">
<title>cluster_event</title>
<polygon fill="none" stroke="black" points="266,-163 266,-238 436,-238 436,-163 266,-163"/>
<text text-anchor="middle" x="351" y="-222.8" font-family="Times,serif" font-size="14.00">event</text>
</g>
<g id="clust5" class="cluster">
<title>cluster_guid</title>
<polygon fill="none" stroke="black" points="145,-80 145,-155 225,-155 225,-80 145,-80"/>
<text text-anchor="middle" x="185" y="-139.8" font-family="Times,serif" font-size="14.00">guid</text>
</g>
<!-- initialize_token_event_store -->
<g id="node1" class="node">
<title>initialize_token_event_store</title>
<ellipse fill="none" stroke="black" cx="173" cy="-347" rx="110.48" ry="18"/>
<text text-anchor="middle" x="173" y="-343.3" font-family="Times,serif" font-size="14.00">initialize_token_event_store</text>
</g>
<!-- option::none -->
<g id="node2" class="node">
<title>option::none</title>
<ellipse fill="none" stroke="black" cx="44" cy="-272" rx="27.9" ry="18"/>
<text text-anchor="middle" x="44" y="-268.3" font-family="Times,serif" font-size="14.00">none</text>
</g>
<!-- initialize_token_event_store&#45;&gt;option::none -->
<g id="edge1" class="edge">
<title>initialize_token_event_store&#45;&gt;option::none</title>
<path fill="none" stroke="black" d="M106.87,-332.32C98.83,-329.26 91,-325.54 84,-321 74.87,-315.09 66.76,-306.44 60.26,-298.11"/>
<polygon fill="black" stroke="black" points="63.25,-296.27 54.54,-290.23 57.58,-300.38 63.25,-296.27"/>
</g>
<!-- signer::address_of -->
<g id="node3" class="node">
<title>signer::address_of</title>
<ellipse fill="none" stroke="black" cx="340" cy="-106" rx="48.99" ry="18"/>
<text text-anchor="middle" x="340" y="-102.3" font-family="Times,serif" font-size="14.00">address_of</text>
</g>
<!-- initialize_token_event_store&#45;&gt;signer::address_of -->
<g id="edge2" class="edge">
<title>initialize_token_event_store&#45;&gt;signer::address_of</title>
<path fill="none" stroke="black" d="M262.97,-336.26C324.69,-324.28 402.05,-297.57 440,-238 457.91,-209.89 456.86,-191.76 440,-163 428.7,-143.72 408.07,-130.58 388.46,-121.9"/>
<polygon fill="black" stroke="black" points="390.04,-118.76 379.46,-118.22 387.39,-125.24 390.04,-118.76"/>
</g>
<!-- account::new_event_handle -->
<g id="node4" class="node">
<title>account::new_event_handle</title>
<ellipse fill="none" stroke="black" cx="173" cy="-272" rx="76.89" ry="18"/>
<text text-anchor="middle" x="173" y="-268.3" font-family="Times,serif" font-size="14.00">new_event_handle</text>
</g>
<!-- initialize_token_event_store&#45;&gt;account::new_event_handle -->
<g id="edge3" class="edge">
<title>initialize_token_event_store&#45;&gt;account::new_event_handle</title>
<path fill="none" stroke="black" d="M173,-328.7C173,-320.67 173,-310.9 173,-301.8"/>
<polygon fill="black" stroke="black" points="176.5,-301.94 173,-291.94 169.5,-301.94 176.5,-301.94"/>
</g>
<!-- signer::borrow_address -->
<g id="node5" class="node">
<title>signer::borrow_address</title>
<ellipse fill="none" stroke="black" cx="340" cy="-34" rx="66.89" ry="18"/>
<text text-anchor="middle" x="340" y="-30.3" font-family="Times,serif" font-size="14.00">borrow_address</text>
</g>
<!-- signer::address_of&#45;&gt;signer::borrow_address -->
<g id="edge4" class="edge">
<title>signer::address_of&#45;&gt;signer::borrow_address</title>
<path fill="none" stroke="black" d="M340,-87.7C340,-80.41 340,-71.73 340,-63.54"/>
<polygon fill="black" stroke="black" points="343.5,-63.62 340,-53.62 336.5,-63.62 343.5,-63.62"/>
</g>
<!-- event::new_event_handle -->
<g id="node6" class="node">
<title>event::new_event_handle</title>
<ellipse fill="none" stroke="black" cx="351" cy="-189" rx="76.89" ry="18"/>
<text text-anchor="middle" x="351" y="-185.3" font-family="Times,serif" font-size="14.00">new_event_handle</text>
</g>
<!-- account::new_event_handle&#45;&gt;event::new_event_handle -->
<g id="edge5" class="edge">
<title>account::new_event_handle&#45;&gt;event::new_event_handle</title>
<path fill="none" stroke="black" d="M215.59,-256.58C230.46,-251.18 247.14,-244.72 262,-238 279.32,-230.16 297.91,-220.37 313.6,-211.68"/>
<polygon fill="black" stroke="black" points="315.12,-214.84 322.13,-206.89 311.69,-208.73 315.12,-214.84"/>
</g>
<!-- account::create_guid -->
<g id="node7" class="node">
<title>account::create_guid</title>
<ellipse fill="none" stroke="black" cx="185" cy="-189" rx="51.99" ry="18"/>
<text text-anchor="middle" x="185" y="-185.3" font-family="Times,serif" font-size="14.00">create_guid</text>
</g>
<!-- account::new_event_handle&#45;&gt;account::create_guid -->
<g id="edge6" class="edge">
<title>account::new_event_handle&#45;&gt;account::create_guid</title>
<path fill="none" stroke="black" d="M175.54,-253.82C177.06,-243.58 179.03,-230.33 180.77,-218.55"/>
<polygon fill="black" stroke="black" points="184.19,-219.33 182.2,-208.93 177.27,-218.31 184.19,-219.33"/>
</g>
<!-- account::create_guid&#45;&gt;signer::address_of -->
<g id="edge7" class="edge">
<title>account::create_guid&#45;&gt;signer::address_of</title>
<path fill="none" stroke="black" d="M212.71,-173.52C237.73,-160.45 274.75,-141.1 302.42,-126.64"/>
<polygon fill="black" stroke="black" points="303.95,-129.79 311.19,-122.06 300.7,-123.59 303.95,-129.79"/>
</g>
<!-- guid::create -->
<g id="node8" class="node">
<title>guid::create</title>
<ellipse fill="none" stroke="black" cx="185" cy="-106" rx="31.7" ry="18"/>
<text text-anchor="middle" x="185" y="-102.3" font-family="Times,serif" font-size="14.00">create</text>
</g>
<!-- account::create_guid&#45;&gt;guid::create -->
<g id="edge8" class="edge">
<title>account::create_guid&#45;&gt;guid::create</title>
<path fill="none" stroke="black" d="M185,-170.82C185,-160.69 185,-147.6 185,-135.92"/>
<polygon fill="black" stroke="black" points="188.5,-135.95 185,-125.95 181.5,-135.95 188.5,-135.95"/>
</g>
</g>
</svg>
