<?xml version="1.0" encoding="UTF-8" standalone="no"?>
<!DOCTYPE svg PUBLIC "-//W3C//DTD SVG 1.1//EN"
 "http://www.w3.org/Graphics/SVG/1.1/DTD/svg11.dtd">
<!-- Generated by graphviz version 7.0.4 (20221203.1631)
 -->
<!-- Title: G Pages: 1 -->
<svg width="1244pt" height="290pt"
 viewBox="0.00 0.00 1244.00 290.00" xmlns="http://www.w3.org/2000/svg" xmlns:xlink="http://www.w3.org/1999/xlink">
<g id="graph0" class="graph" transform="scale(1 1) rotate(0) translate(4 286)">
<title>G</title>
<polygon fill="white" stroke="none" points="-4,4 -4,-286 1240,-286 1240,4 -4,4"/>
<g id="clust1" class="cluster">
<title>cluster_error</title>
<polygon fill="none" stroke="black" points="8,-80 8,-238 282,-238 282,-80 8,-80"/>
<text text-anchor="middle" x="145" y="-222.8" font-family="Times,serif" font-size="14.00">error</text>
</g>
<g id="clust2" class="cluster">
<title>cluster_table</title>
<polygon fill="none" stroke="black" points="588,-8 588,-155 1136,-155 1136,-8 588,-8"/>
<text text-anchor="middle" x="862" y="-139.8" font-family="Times,serif" font-size="14.00">table</text>
</g>
<g id="clust3" class="cluster">
<title>cluster_event</title>
<polygon fill="none" stroke="black" points="290,-80 290,-238 476,-238 476,-80 290,-80"/>
<text text-anchor="middle" x="383" y="-222.8" font-family="Times,serif" font-size="14.00">event</text>
</g>
<g id="clust4" class="cluster">
<title>cluster_property_map</title>
<polygon fill="none" stroke="black" points="966,-163 966,-238 1059,-238 1059,-163 966,-163"/>
<text text-anchor="middle" x="1012.5" y="-222.8" font-family="Times,serif" font-size="14.00">property_map</text>
</g>
<g id="clust5" class="cluster">
<title>cluster_bcs</title>
<polygon fill="none" stroke="black" points="484,-80 484,-155 580,-155 580,-80 484,-80"/>
<text text-anchor="middle" x="532" y="-139.8" font-family="Times,serif" font-size="14.00">bcs</text>
</g>
<g id="clust6" class="cluster">
<title>cluster_simple_map</title>
<polygon fill="none" stroke="black" points="1144,-80 1144,-155 1228,-155 1228,-80 1144,-80"/>
<text text-anchor="middle" x="1186" y="-139.8" font-family="Times,serif" font-size="14.00">simple_map</text>
</g>
<!-- withdraw_with_event_internal -->
<g id="node1" class="node">
<title>withdraw_with_event_internal</title>
<ellipse fill="none" stroke="black" cx="701" cy="-264" rx="118.08" ry="18"/>
<text text-anchor="middle" x="701" y="-260.3" font-family="Times,serif" font-size="14.00">withdraw_with_event_internal</text>
</g>
<!-- error::invalid_argument -->
<g id="node2" class="node">
<title>error::invalid_argument</title>
<ellipse fill="none" stroke="black" cx="201" cy="-189" rx="73.39" ry="18"/>
<text text-anchor="middle" x="201" y="-185.3" font-family="Times,serif" font-size="14.00">invalid_argument</text>
</g>
<!-- withdraw_with_event_internal&#45;&gt;error::invalid_argument -->
<g id="edge1" class="edge">
<title>withdraw_with_event_internal&#45;&gt;error::invalid_argument</title>
<path fill="none" stroke="black" d="M583.73,-261.8C480.92,-259.68 339.74,-253.87 286,-238 267.33,-232.49 248.31,-222.26 233,-212.66"/>
<polygon fill="black" stroke="black" points="235.09,-209.84 224.79,-207.32 231.27,-215.71 235.09,-209.84"/>
</g>
<!-- error::not_found -->
<g id="node3" class="node">
<title>error::not_found</title>
<ellipse fill="none" stroke="black" cx="63" cy="-189" rx="46.59" ry="18"/>
<text text-anchor="middle" x="63" y="-185.3" font-family="Times,serif" font-size="14.00">not_found</text>
</g>
<!-- withdraw_with_event_internal&#45;&gt;error::not_found -->
<g id="edge2" class="edge">
<title>withdraw_with_event_internal&#45;&gt;error::not_found</title>
<path fill="none" stroke="black" d="M583.16,-262.05C425.51,-260.14 160.84,-254.51 119,-238 106.23,-232.96 94.34,-223.73 84.83,-214.7"/>
<polygon fill="black" stroke="black" points="87.39,-212.31 77.87,-207.66 82.41,-217.23 87.39,-212.31"/>
</g>
<!-- table::contains -->
<g id="node4" class="node">
<title>table::contains</title>
<ellipse fill="none" stroke="black" cx="813" cy="-106" rx="40.09" ry="18"/>
<text text-anchor="middle" x="813" y="-102.3" font-family="Times,serif" font-size="14.00">contains</text>
</g>
<!-- withdraw_with_event_internal&#45;&gt;table::contains -->
<g id="edge3" class="edge">
<title>withdraw_with_event_internal&#45;&gt;table::contains</title>
<path fill="none" stroke="black" d="M708.32,-245.77C717.57,-225.05 734.73,-189.72 755,-163 763.99,-151.15 775.51,-139.49 785.91,-129.91"/>
<polygon fill="black" stroke="black" points="788.06,-132.67 793.17,-123.39 783.39,-127.46 788.06,-132.67"/>
</g>
<!-- table::borrow_mut -->
<g id="node5" class="node">
<title>table::borrow_mut</title>
<ellipse fill="none" stroke="black" cx="672" cy="-106" rx="54.69" ry="18"/>
<text text-anchor="middle" x="672" y="-102.3" font-family="Times,serif" font-size="14.00">borrow_mut</text>
</g>
<!-- withdraw_with_event_internal&#45;&gt;table::borrow_mut -->
<g id="edge4" class="edge">
<title>withdraw_with_event_internal&#45;&gt;table::borrow_mut</title>
<path fill="none" stroke="black" d="M697.79,-245.71C692.82,-219 683.24,-167.45 677.25,-135.27"/>
<polygon fill="black" stroke="black" points="680.77,-135.05 675.51,-125.86 673.89,-136.33 680.77,-135.05"/>
</g>
<!-- table::remove -->
<g id="node6" class="node">
<title>table::remove</title>
<ellipse fill="none" stroke="black" cx="1050" cy="-106" rx="37.89" ry="18"/>
<text text-anchor="middle" x="1050" y="-102.3" font-family="Times,serif" font-size="14.00">remove</text>
</g>
<!-- withdraw_with_event_internal&#45;&gt;table::remove -->
<g id="edge5" class="edge">
<title>withdraw_with_event_internal&#45;&gt;table::remove</title>
<path fill="none" stroke="black" d="M808.24,-256.24C829.64,-252.42 851.5,-246.65 871,-238 918.91,-216.74 919.36,-193.47 962,-163 967.52,-159.06 969.25,-158.61 975,-155 989.44,-145.94 1005.35,-135.78 1018.78,-127.15"/>
<polygon fill="black" stroke="black" points="1020.29,-130.35 1026.8,-121.99 1016.5,-124.46 1020.29,-130.35"/>
</g>
<!-- event::emit_event -->
<g id="node7" class="node">
<title>event::emit_event</title>
<ellipse fill="none" stroke="black" cx="418" cy="-189" rx="50.09" ry="18"/>
<text text-anchor="middle" x="418" y="-185.3" font-family="Times,serif" font-size="14.00">emit_event</text>
</g>
<!-- withdraw_with_event_internal&#45;&gt;event::emit_event -->
<g id="edge6" class="edge">
<title>withdraw_with_event_internal&#45;&gt;event::emit_event</title>
<path fill="none" stroke="black" d="M642.71,-247.96C591.52,-234.76 517.8,-215.74 468.93,-203.14"/>
<polygon fill="black" stroke="black" points="470.01,-199.8 459.45,-200.69 468.26,-206.58 470.01,-199.8"/>
</g>
<!-- property_map::empty -->
<g id="node8" class="node">
<title>property_map::empty</title>
<ellipse fill="none" stroke="black" cx="1010" cy="-189" rx="33.29" ry="18"/>
<text text-anchor="middle" x="1010" y="-185.3" font-family="Times,serif" font-size="14.00">empty</text>
</g>
<!-- withdraw_with_event_internal&#45;&gt;property_map::empty -->
<g id="edge7" class="edge">
<title>withdraw_with_event_internal&#45;&gt;property_map::empty</title>
<path fill="none" stroke="black" d="M815.1,-259.15C871.77,-255.8 933.49,-249.57 959,-238 970.92,-232.59 981.83,-223.25 990.47,-214.24"/>
<polygon fill="black" stroke="black" points="992.93,-216.74 997.01,-206.96 987.72,-212.06 992.93,-216.74"/>
</g>
<!-- balance_of -->
<g id="node9" class="node">
<title>balance_of</title>
<ellipse fill="none" stroke="black" cx="813" cy="-189" rx="49.29" ry="18"/>
<text text-anchor="middle" x="813" y="-185.3" font-family="Times,serif" font-size="14.00">balance_of</text>
</g>
<!-- withdraw_with_event_internal&#45;&gt;balance_of -->
<g id="edge8" class="edge">
<title>withdraw_with_event_internal&#45;&gt;balance_of</title>
<path fill="none" stroke="black" d="M728.9,-246.23C733.3,-243.51 737.79,-240.7 742,-238 755.04,-229.62 769.22,-220.12 781.46,-211.79"/>
<polygon fill="black" stroke="black" points="783.27,-214.79 789.54,-206.26 779.31,-209.01 783.27,-214.79"/>
</g>
<!-- error::canonical -->
<g id="node10" class="node">
<title>error::canonical</title>
<ellipse fill="none" stroke="black" cx="132" cy="-106" rx="44.39" ry="18"/>
<text text-anchor="middle" x="132" y="-102.3" font-family="Times,serif" font-size="14.00">canonical</text>
</g>
<!-- error::invalid_argument&#45;&gt;error::canonical -->
<g id="edge9" class="edge">
<title>error::invalid_argument&#45;&gt;error::canonical</title>
<path fill="none" stroke="black" d="M186.7,-171.22C177.11,-159.96 164.3,-144.92 153.49,-132.22"/>
<polygon fill="black" stroke="black" points="156.17,-129.98 147.02,-124.64 150.84,-134.52 156.17,-129.98"/>
</g>
<!-- error::not_found&#45;&gt;error::canonical -->
<g id="edge10" class="edge">
<title>error::not_found&#45;&gt;error::canonical</title>
<path fill="none" stroke="black" d="M76.96,-171.61C86.69,-160.19 99.84,-144.75 110.85,-131.83"/>
<polygon fill="black" stroke="black" points="113.26,-134.4 117.08,-124.52 107.93,-129.86 113.26,-134.4"/>
</g>
<!-- table::contains_box -->
<g id="node11" class="node">
<title>table::contains_box</title>
<ellipse fill="none" stroke="black" cx="816" cy="-34" rx="57.69" ry="18"/>
<text text-anchor="middle" x="816" y="-30.3" font-family="Times,serif" font-size="14.00">contains_box</text>
</g>
<!-- table::contains&#45;&gt;table::contains_box -->
<g id="edge11" class="edge">
<title>table::contains&#45;&gt;table::contains_box</title>
<path fill="none" stroke="black" d="M813.74,-87.7C814.05,-80.41 814.43,-71.73 814.78,-63.54"/>
<polygon fill="black" stroke="black" points="818.27,-63.76 815.2,-53.62 811.28,-63.46 818.27,-63.76"/>
</g>
<!-- table::borrow_box_mut -->
<g id="node12" class="node">
<title>table::borrow_box_mut</title>
<ellipse fill="none" stroke="black" cx="668" cy="-34" rx="72.29" ry="18"/>
<text text-anchor="middle" x="668" y="-30.3" font-family="Times,serif" font-size="14.00">borrow_box_mut</text>
</g>
<!-- table::borrow_mut&#45;&gt;table::borrow_box_mut -->
<g id="edge12" class="edge">
<title>table::borrow_mut&#45;&gt;table::borrow_box_mut</title>
<path fill="none" stroke="black" d="M671.01,-87.7C670.59,-80.41 670.1,-71.73 669.63,-63.54"/>
<polygon fill="black" stroke="black" points="673.13,-63.4 669.06,-53.62 666.14,-63.8 673.13,-63.4"/>
</g>
<!-- table::remove_box -->
<g id="node13" class="node">
<title>table::remove_box</title>
<ellipse fill="none" stroke="black" cx="1073" cy="-34" rx="55.49" ry="18"/>
<text text-anchor="middle" x="1073" y="-30.3" font-family="Times,serif" font-size="14.00">remove_box</text>
</g>
<!-- table::remove&#45;&gt;table::remove_box -->
<g id="edge13" class="edge">
<title>table::remove&#45;&gt;table::remove_box</title>
<path fill="none" stroke="black" d="M1055.57,-88.05C1058.05,-80.52 1061.03,-71.44 1063.82,-62.94"/>
<polygon fill="black" stroke="black" points="1067.05,-64.31 1066.85,-53.71 1060.4,-62.12 1067.05,-64.31"/>
</g>
<!-- bcs::to_bytes -->
<g id="node14" class="node">
<title>bcs::to_bytes</title>
<ellipse fill="none" stroke="black" cx="532" cy="-106" rx="40.09" ry="18"/>
<text text-anchor="middle" x="532" y="-102.3" font-family="Times,serif" font-size="14.00">to_bytes</text>
</g>
<!-- event::emit_event&#45;&gt;bcs::to_bytes -->
<g id="edge14" class="edge">
<title>event::emit_event&#45;&gt;bcs::to_bytes</title>
<path fill="none" stroke="black" d="M447.62,-174.2C458.19,-168.77 469.96,-162.13 480,-155 490.07,-147.85 500.25,-138.92 508.9,-130.7"/>
<polygon fill="black" stroke="black" points="511.18,-133.37 515.89,-123.88 506.29,-128.36 511.18,-133.37"/>
</g>
<!-- event::write_to_event_store -->
<g id="node15" class="node">
<title>event::write_to_event_store</title>
<ellipse fill="none" stroke="black" cx="383" cy="-106" rx="85.29" ry="18"/>
<text text-anchor="middle" x="383" y="-102.3" font-family="Times,serif" font-size="14.00">write_to_event_store</text>
</g>
<!-- event::emit_event&#45;&gt;event::write_to_event_store -->
<g id="edge15" class="edge">
<title>event::emit_event&#45;&gt;event::write_to_event_store</title>
<path fill="none" stroke="black" d="M410.58,-170.82C406.03,-160.3 400.11,-146.59 394.91,-134.57"/>
<polygon fill="black" stroke="black" points="398.19,-133.33 391.01,-125.54 391.77,-136.11 398.19,-133.33"/>
</g>
<!-- simple_map::create -->
<g id="node16" class="node">
<title>simple_map::create</title>
<ellipse fill="none" stroke="black" cx="1184" cy="-106" rx="31.7" ry="18"/>
<text text-anchor="middle" x="1184" y="-102.3" font-family="Times,serif" font-size="14.00">create</text>
</g>
<!-- property_map::empty&#45;&gt;simple_map::create -->
<g id="edge16" class="edge">
<title>property_map::empty&#45;&gt;simple_map::create</title>
<path fill="none" stroke="black" d="M1042.71,-184.97C1070.28,-181.22 1109.92,-172.98 1140,-155 1149.83,-149.12 1158.78,-140.38 1165.99,-131.95"/>
<polygon fill="black" stroke="black" points="1168.63,-134.26 1172.16,-124.27 1163.17,-129.88 1168.63,-134.26"/>
</g>
<!-- balance_of&#45;&gt;table::contains -->
<g id="edge17" class="edge">
<title>balance_of&#45;&gt;table::contains</title>
<path fill="none" stroke="black" d="M813,-170.82C813,-160.69 813,-147.6 813,-135.92"/>
<polygon fill="black" stroke="black" points="816.5,-135.95 813,-125.95 809.5,-135.95 816.5,-135.95"/>
</g>
<!-- table::borrow -->
<g id="node17" class="node">
<title>table::borrow</title>
<ellipse fill="none" stroke="black" cx="930" cy="-106" rx="36.29" ry="18"/>
<text text-anchor="middle" x="930" y="-102.3" font-family="Times,serif" font-size="14.00">borrow</text>
</g>
<!-- balance_of&#45;&gt;table::borrow -->
<g id="edge18" class="edge">
<title>balance_of&#45;&gt;table::borrow</title>
<path fill="none" stroke="black" d="M836,-172.66C844.23,-167.13 853.56,-160.82 862,-155 874.77,-146.2 888.78,-136.34 900.75,-127.86"/>
<polygon fill="black" stroke="black" points="902.49,-130.92 908.61,-122.28 898.43,-125.21 902.49,-130.92"/>
</g>
<!-- table::borrow_box -->
<g id="node18" class="node">
<title>table::borrow_box</title>
<ellipse fill="none" stroke="black" cx="946" cy="-34" rx="53.89" ry="18"/>
<text text-anchor="middle" x="946" y="-30.3" font-family="Times,serif" font-size="14.00">borrow_box</text>
</g>
<!-- table::borrow&#45;&gt;table::borrow_box -->
<g id="edge19" class="edge">
<title>table::borrow&#45;&gt;table::borrow_box</title>
<path fill="none" stroke="black" d="M933.96,-87.7C935.64,-80.32 937.65,-71.52 939.54,-63.25"/>
<polygon fill="black" stroke="black" points="942.94,-64.11 941.75,-53.58 936.11,-62.55 942.94,-64.11"/>
</g>
</g>
</svg>
