<?xml version="1.0" encoding="UTF-8" standalone="no"?>
<!DOCTYPE svg PUBLIC "-//W3C//DTD SVG 1.1//EN"
 "http://www.w3.org/Graphics/SVG/1.1/DTD/svg11.dtd">
<!-- Generated by graphviz version 7.0.4 (20221203.1631)
 -->
<!-- Title: G Pages: 1 -->
<svg width="796pt" height="227pt"
 viewBox="0.00 0.00 795.79 227.00" xmlns="http://www.w3.org/2000/svg" xmlns:xlink="http://www.w3.org/1999/xlink">
<g id="graph0" class="graph" transform="scale(1 1) rotate(0) translate(4 223)">
<title>G</title>
<polygon fill="white" stroke="none" points="-4,4 -4,-223 791.79,-223 791.79,4 -4,4"/>
<g id="clust1" class="cluster">
<title>cluster_token_transfers</title>
<polygon fill="none" stroke="black" points="478.79,-64 478.79,-211 779.79,-211 779.79,-64 478.79,-64"/>
<text text-anchor="middle" x="629.29" y="-195.8" font-family="Times,serif" font-size="14.00">token_transfers</text>
</g>
<!-- deposit_token -->
<g id="node1" class="node">
<title>deposit_token</title>
<ellipse fill="none" stroke="black" cx="467.79" cy="-18" rx="59.59" ry="18"/>
<text text-anchor="middle" x="467.79" y="-14.3" font-family="Times,serif" font-size="14.00">deposit_token</text>
</g>
<!-- direct_transfer -->
<g id="node2" class="node">
<title>direct_transfer</title>
<ellipse fill="none" stroke="black" cx="186.79" cy="-90" rx="61.99" ry="18"/>
<text text-anchor="middle" x="186.79" y="-86.3" font-family="Times,serif" font-size="14.00">direct_transfer</text>
</g>
<!-- direct_transfer&#45;&gt;deposit_token -->
<g id="edge1" class="edge">
<title>direct_transfer&#45;&gt;deposit_token</title>
<path fill="none" stroke="black" d="M232.88,-77.52C281.91,-65.31 359.49,-45.98 411.95,-32.91"/>
<polygon fill="black" stroke="black" points="412.75,-36.32 421.61,-30.51 411.06,-29.53 412.75,-36.32"/>
</g>
<!-- mint_token -->
<g id="node3" class="node">
<title>mint_token</title>
<ellipse fill="none" stroke="black" cx="417.79" cy="-90" rx="51.19" ry="18"/>
<text text-anchor="middle" x="417.79" y="-86.3" font-family="Times,serif" font-size="14.00">mint_token</text>
</g>
<!-- mint_token&#45;&gt;deposit_token -->
<g id="edge2" class="edge">
<title>mint_token&#45;&gt;deposit_token</title>
<path fill="none" stroke="black" d="M429.9,-72.05C435.67,-63.97 442.71,-54.12 449.14,-45.11"/>
<polygon fill="black" stroke="black" points="451.96,-47.19 454.92,-37.02 446.26,-43.12 451.96,-47.19"/>
</g>
<!-- token_transfers::cancel_offer -->
<g id="node4" class="node">
<title>token_transfers::cancel_offer</title>
<ellipse fill="none" stroke="black" cx="668.79" cy="-90" rx="54.69" ry="18"/>
<text text-anchor="middle" x="668.79" y="-86.3" font-family="Times,serif" font-size="14.00">cancel_offer</text>
</g>
<!-- token_transfers::cancel_offer&#45;&gt;deposit_token -->
<g id="edge3" class="edge">
<title>token_transfers::cancel_offer&#45;&gt;deposit_token</title>
<path fill="none" stroke="black" d="M632.39,-76.32C599.89,-65.01 552.04,-48.34 516.3,-35.89"/>
<polygon fill="black" stroke="black" points="517.65,-32.66 507.06,-32.67 515.35,-39.27 517.65,-32.66"/>
</g>
<!-- token_transfers::claim -->
<g id="node5" class="node">
<title>token_transfers::claim</title>
<ellipse fill="none" stroke="black" cx="529.79" cy="-90" rx="30.59" ry="18"/>
<text text-anchor="middle" x="529.79" y="-86.3" font-family="Times,serif" font-size="14.00">claim</text>
</g>
<!-- token_transfers::claim&#45;&gt;deposit_token -->
<g id="edge4" class="edge">
<title>token_transfers::claim&#45;&gt;deposit_token</title>
<path fill="none" stroke="black" d="M516.03,-73.46C508.38,-64.83 498.68,-53.88 489.99,-44.06"/>
<polygon fill="black" stroke="black" points="492.63,-41.77 483.38,-36.6 487.39,-46.41 492.63,-41.77"/>
</g>
<!-- direct_transfer_script -->
<g id="node6" class="node">
<title>direct_transfer_script</title>
<ellipse fill="none" stroke="black" cx="85.79" cy="-162" rx="85.59" ry="18"/>
<text text-anchor="middle" x="85.79" y="-158.3" font-family="Times,serif" font-size="14.00">direct_transfer_script</text>
</g>
<!-- direct_transfer_script&#45;&gt;direct_transfer -->
<g id="edge5" class="edge">
<title>direct_transfer_script&#45;&gt;direct_transfer</title>
<path fill="none" stroke="black" d="M109.73,-144.41C123.13,-135.12 140.01,-123.42 154.56,-113.34"/>
<polygon fill="black" stroke="black" points="156.25,-116.42 162.48,-107.85 152.27,-110.67 156.25,-116.42"/>
</g>
<!-- create_token_script -->
<g id="node7" class="node">
<title>create_token_script</title>
<ellipse fill="none" stroke="black" cx="268.79" cy="-162" rx="79.09" ry="18"/>
<text text-anchor="middle" x="268.79" y="-158.3" font-family="Times,serif" font-size="14.00">create_token_script</text>
</g>
<!-- create_token_script&#45;&gt;mint_token -->
<g id="edge6" class="edge">
<title>create_token_script&#45;&gt;mint_token</title>
<path fill="none" stroke="black" d="M302.23,-145.29C324.55,-134.8 354.03,-120.96 377.62,-109.87"/>
<polygon fill="black" stroke="black" points="379.07,-113.06 386.63,-105.64 376.09,-106.72 379.07,-113.06"/>
</g>
<!-- mint_script -->
<g id="node8" class="node">
<title>mint_script</title>
<ellipse fill="none" stroke="black" cx="417.79" cy="-162" rx="51.19" ry="18"/>
<text text-anchor="middle" x="417.79" y="-158.3" font-family="Times,serif" font-size="14.00">mint_script</text>
</g>
<!-- mint_script&#45;&gt;mint_token -->
<g id="edge7" class="edge">
<title>mint_script&#45;&gt;mint_token</title>
<path fill="none" stroke="black" d="M417.79,-143.7C417.79,-136.41 417.79,-127.73 417.79,-119.54"/>
<polygon fill="black" stroke="black" points="421.29,-119.62 417.79,-109.62 414.29,-119.62 421.29,-119.62"/>
</g>
<!-- token_transfers::cancel_offer_script -->
<g id="node9" class="node">
<title>token_transfers::cancel_offer_script</title>
<ellipse fill="none" stroke="black" cx="692.79" cy="-162" rx="78.79" ry="18"/>
<text text-anchor="middle" x="692.79" y="-158.3" font-family="Times,serif" font-size="14.00">cancel_offer_script</text>
</g>
<!-- token_transfers::cancel_offer_script&#45;&gt;token_transfers::cancel_offer -->
<g id="edge8" class="edge">
<title>token_transfers::cancel_offer_script&#45;&gt;token_transfers::cancel_offer</title>
<path fill="none" stroke="black" d="M686.86,-143.7C684.3,-136.24 681.25,-127.32 678.38,-118.97"/>
<polygon fill="black" stroke="black" points="681.7,-117.86 675.15,-109.54 675.08,-120.13 681.7,-117.86"/>
</g>
<!-- token_transfers::claim_script -->
<g id="node10" class="node">
<title>token_transfers::claim_script</title>
<ellipse fill="none" stroke="black" cx="541.79" cy="-162" rx="54.69" ry="18"/>
<text text-anchor="middle" x="541.79" y="-158.3" font-family="Times,serif" font-size="14.00">claim_script</text>
</g>
<!-- token_transfers::claim_script&#45;&gt;token_transfers::claim -->
<g id="edge9" class="edge">
<title>token_transfers::claim_script&#45;&gt;token_transfers::claim</title>
<path fill="none" stroke="black" d="M538.83,-143.7C537.56,-136.32 536.05,-127.52 534.64,-119.25"/>
<polygon fill="black" stroke="black" points="538.12,-118.86 532.98,-109.6 531.22,-120.04 538.12,-118.86"/>
</g>
</g>
</svg>
