<?xml version="1.0" encoding="UTF-8" standalone="no"?>
<!DOCTYPE svg PUBLIC "-//W3C//DTD SVG 1.1//EN"
 "http://www.w3.org/Graphics/SVG/1.1/DTD/svg11.dtd">
<!-- Generated by graphviz version 7.0.4 (20221203.1631)
 -->
<!-- Title: G Pages: 1 -->
<svg width="1380pt" height="531pt"
 viewBox="0.00 0.00 1380.00 531.00" xmlns="http://www.w3.org/2000/svg" xmlns:xlink="http://www.w3.org/1999/xlink">
<g id="graph0" class="graph" transform="scale(1 1) rotate(0) translate(4 527)">
<title>G</title>
<polygon fill="white" stroke="none" points="-4,4 -4,-527 1376,-527 1376,4 -4,4"/>
<g id="clust4" class="cluster">
<title>cluster_token_event_store</title>
<polygon fill="none" stroke="black" points="632,-329 632,-479 970,-479 970,-329 632,-329"/>
<text text-anchor="middle" x="801" y="-463.8" font-family="Times,serif" font-size="14.00">token_event_store</text>
</g>
<g id="clust1" class="cluster">
<title>cluster_signer</title>
<polygon fill="none" stroke="black" points="600,-8 600,-155 750,-155 750,-8 600,-8"/>
<text text-anchor="middle" x="675" y="-139.8" font-family="Times,serif" font-size="14.00">signer</text>
</g>
<g id="clust2" class="cluster">
<title>cluster_error</title>
<polygon fill="none" stroke="black" points="8,-246 8,-404 290,-404 290,-246 8,-246"/>
<text text-anchor="middle" x="149" y="-388.8" font-family="Times,serif" font-size="14.00">error</text>
</g>
<g id="clust3" class="cluster">
<title>cluster_table</title>
<polygon fill="none" stroke="black" points="298,-246 298,-404 592,-404 592,-246 298,-246"/>
<text text-anchor="middle" x="445" y="-388.8" font-family="Times,serif" font-size="14.00">table</text>
</g>
<g id="clust5" class="cluster">
<title>cluster_event</title>
<polygon fill="none" stroke="black" points="972,-80 972,-238 1260,-238 1260,-80 972,-80"/>
<text text-anchor="middle" x="1116" y="-222.8" font-family="Times,serif" font-size="14.00">event</text>
</g>
<g id="clust6" class="cluster">
<title>cluster_bcs</title>
<polygon fill="none" stroke="black" points="1268,-80 1268,-155 1364,-155 1364,-80 1268,-80"/>
<text text-anchor="middle" x="1316" y="-139.8" font-family="Times,serif" font-size="14.00">bcs</text>
</g>
<g id="clust7" class="cluster">
<title>cluster_option</title>
<polygon fill="none" stroke="black" points="714,-246 714,-321 786,-321 786,-246 714,-246"/>
<text text-anchor="middle" x="750" y="-305.8" font-family="Times,serif" font-size="14.00">option</text>
</g>
<g id="clust8" class="cluster">
<title>cluster_account</title>
<polygon fill="none" stroke="black" points="794,-163 794,-321 964,-321 964,-163 794,-163"/>
<text text-anchor="middle" x="879" y="-305.8" font-family="Times,serif" font-size="14.00">account</text>
</g>
<g id="clust9" class="cluster">
<title>cluster_guid</title>
<polygon fill="none" stroke="black" points="826,-80 826,-155 906,-155 906,-80 826,-80"/>
<text text-anchor="middle" x="866" y="-139.8" font-family="Times,serif" font-size="14.00">guid</text>
</g>
<!-- mutate_collection_description -->
<g id="node1" class="node">
<title>mutate_collection_description</title>
<ellipse fill="none" stroke="black" cx="512" cy="-505" rx="117.78" ry="18"/>
<text text-anchor="middle" x="512" y="-501.3" font-family="Times,serif" font-size="14.00">mutate_collection_description</text>
</g>
<!-- signer::address_of -->
<g id="node2" class="node">
<title>signer::address_of</title>
<ellipse fill="none" stroke="black" cx="675" cy="-106" rx="48.99" ry="18"/>
<text text-anchor="middle" x="675" y="-102.3" font-family="Times,serif" font-size="14.00">address_of</text>
</g>
<!-- mutate_collection_description&#45;&gt;signer::address_of -->
<g id="edge1" class="edge">
<title>mutate_collection_description&#45;&gt;signer::address_of</title>
<path fill="none" stroke="black" d="M533.7,-486.95C563.11,-461.75 612,-411.51 612,-356 612,-356 612,-356 612,-271 612,-221.63 618.32,-208.28 638,-163 642.5,-152.64 648.9,-142.1 655.11,-132.99"/>
<polygon fill="black" stroke="black" points="657.86,-135.17 660.81,-124.99 652.16,-131.11 657.86,-135.17"/>
</g>
<!-- error::permission_denied -->
<g id="node3" class="node">
<title>error::permission_denied</title>
<ellipse fill="none" stroke="black" cx="93" cy="-355" rx="77.19" ry="18"/>
<text text-anchor="middle" x="93" y="-351.3" font-family="Times,serif" font-size="14.00">permission_denied</text>
</g>
<!-- mutate_collection_description&#45;&gt;error::permission_denied -->
<g id="edge2" class="edge">
<title>mutate_collection_description&#45;&gt;error::permission_denied</title>
<path fill="none" stroke="black" d="M401.17,-498.68C346.28,-494.9 286.41,-488.73 261,-479 203.3,-456.91 147.75,-409.48 117.21,-380.4"/>
<polygon fill="black" stroke="black" points="119.98,-378.22 110.36,-373.78 115.11,-383.25 119.98,-378.22"/>
</g>
<!-- table::borrow_mut -->
<g id="node4" class="node">
<title>table::borrow_mut</title>
<ellipse fill="none" stroke="black" cx="512" cy="-355" rx="54.69" ry="18"/>
<text text-anchor="middle" x="512" y="-351.3" font-family="Times,serif" font-size="14.00">borrow_mut</text>
</g>
<!-- mutate_collection_description&#45;&gt;table::borrow_mut -->
<g id="edge3" class="edge">
<title>mutate_collection_description&#45;&gt;table::borrow_mut</title>
<path fill="none" stroke="black" d="M512,-486.73C512,-461.67 512,-414.9 512,-384.63"/>
<polygon fill="black" stroke="black" points="515.5,-384.67 512,-374.67 508.5,-384.67 515.5,-384.67"/>
</g>
<!-- token_event_store::emit_collection_description_mutate_event -->
<g id="node5" class="node">
<title>token_event_store::emit_collection_description_mutate_event</title>
<ellipse fill="none" stroke="black" cx="801" cy="-430" rx="161.37" ry="18"/>
<text text-anchor="middle" x="801" y="-426.3" font-family="Times,serif" font-size="14.00">emit_collection_description_mutate_event</text>
</g>
<!-- mutate_collection_description&#45;&gt;token_event_store::emit_collection_description_mutate_event -->
<g id="edge4" class="edge">
<title>mutate_collection_description&#45;&gt;token_event_store::emit_collection_description_mutate_event</title>
<path fill="none" stroke="black" d="M579.35,-489.84C594.72,-486.44 610.95,-482.71 626,-479 661.73,-470.19 701.28,-459.43 733.73,-450.33"/>
<polygon fill="black" stroke="black" points="734.31,-453.8 742.99,-447.72 732.42,-447.06 734.31,-453.8"/>
</g>
<!-- assert_collection_exists -->
<g id="node6" class="node">
<title>assert_collection_exists</title>
<ellipse fill="none" stroke="black" cx="364" cy="-430" rx="94.48" ry="18"/>
<text text-anchor="middle" x="364" y="-426.3" font-family="Times,serif" font-size="14.00">assert_collection_exists</text>
</g>
<!-- mutate_collection_description&#45;&gt;assert_collection_exists -->
<g id="edge5" class="edge">
<title>mutate_collection_description&#45;&gt;assert_collection_exists</title>
<path fill="none" stroke="black" d="M478.42,-487.44C457.26,-477 429.76,-463.43 407.01,-452.22"/>
<polygon fill="black" stroke="black" points="408.81,-449.2 398.3,-447.92 405.72,-455.48 408.81,-449.2"/>
</g>
<!-- signer::borrow_address -->
<g id="node7" class="node">
<title>signer::borrow_address</title>
<ellipse fill="none" stroke="black" cx="675" cy="-34" rx="66.89" ry="18"/>
<text text-anchor="middle" x="675" y="-30.3" font-family="Times,serif" font-size="14.00">borrow_address</text>
</g>
<!-- signer::address_of&#45;&gt;signer::borrow_address -->
<g id="edge6" class="edge">
<title>signer::address_of&#45;&gt;signer::borrow_address</title>
<path fill="none" stroke="black" d="M675,-87.7C675,-80.41 675,-71.73 675,-63.54"/>
<polygon fill="black" stroke="black" points="678.5,-63.62 675,-53.62 671.5,-63.62 678.5,-63.62"/>
</g>
<!-- error::canonical -->
<g id="node8" class="node">
<title>error::canonical</title>
<ellipse fill="none" stroke="black" cx="164" cy="-272" rx="44.39" ry="18"/>
<text text-anchor="middle" x="164" y="-268.3" font-family="Times,serif" font-size="14.00">canonical</text>
</g>
<!-- error::permission_denied&#45;&gt;error::canonical -->
<g id="edge7" class="edge">
<title>error::permission_denied&#45;&gt;error::canonical</title>
<path fill="none" stroke="black" d="M107.71,-337.22C117.68,-325.85 131.02,-310.63 142.21,-297.86"/>
<polygon fill="black" stroke="black" points="144.59,-300.45 148.55,-290.62 139.33,-295.84 144.59,-300.45"/>
</g>
<!-- table::borrow_box_mut -->
<g id="node9" class="node">
<title>table::borrow_box_mut</title>
<ellipse fill="none" stroke="black" cx="512" cy="-272" rx="72.29" ry="18"/>
<text text-anchor="middle" x="512" y="-268.3" font-family="Times,serif" font-size="14.00">borrow_box_mut</text>
</g>
<!-- table::borrow_mut&#45;&gt;table::borrow_box_mut -->
<g id="edge8" class="edge">
<title>table::borrow_mut&#45;&gt;table::borrow_box_mut</title>
<path fill="none" stroke="black" d="M512,-336.82C512,-326.69 512,-313.6 512,-301.92"/>
<polygon fill="black" stroke="black" points="515.5,-301.95 512,-291.95 508.5,-301.95 515.5,-301.95"/>
</g>
<!-- token_event_store::emit_collection_description_mutate_event&#45;&gt;signer::address_of -->
<g id="edge9" class="edge">
<title>token_event_store::emit_collection_description_mutate_event&#45;&gt;signer::address_of</title>
<path fill="none" stroke="black" d="M701.12,-415.53C690.95,-412.42 682.91,-408.62 679,-404 613.55,-326.67 646.2,-193.11 664.93,-135.17"/>
<polygon fill="black" stroke="black" points="668.23,-136.34 668.08,-125.75 661.59,-134.12 668.23,-136.34"/>
</g>
<!-- event::emit_event -->
<g id="node10" class="node">
<title>event::emit_event</title>
<ellipse fill="none" stroke="black" cx="1202" cy="-189" rx="50.09" ry="18"/>
<text text-anchor="middle" x="1202" y="-185.3" font-family="Times,serif" font-size="14.00">emit_event</text>
</g>
<!-- token_event_store::emit_collection_description_mutate_event&#45;&gt;event::emit_event -->
<g id="edge10" class="edge">
<title>token_event_store::emit_collection_description_mutate_event&#45;&gt;event::emit_event</title>
<path fill="none" stroke="black" d="M888.13,-414.43C898.07,-411.54 907.89,-408.1 917,-404 1025.14,-355.33 1131.09,-259.6 1177.53,-214.54"/>
<polygon fill="black" stroke="black" points="1179.97,-217.05 1184.67,-207.55 1175.07,-212.05 1179.97,-217.05"/>
</g>
<!-- token_event_store::initialize_token_event_store -->
<g id="node11" class="node">
<title>token_event_store::initialize_token_event_store</title>
<ellipse fill="none" stroke="black" cx="798" cy="-355" rx="110.48" ry="18"/>
<text text-anchor="middle" x="798" y="-351.3" font-family="Times,serif" font-size="14.00">initialize_token_event_store</text>
</g>
<!-- token_event_store::emit_collection_description_mutate_event&#45;&gt;token_event_store::initialize_token_event_store -->
<g id="edge11" class="edge">
<title>token_event_store::emit_collection_description_mutate_event&#45;&gt;token_event_store::initialize_token_event_store</title>
<path fill="none" stroke="black" d="M800.29,-411.7C799.96,-403.67 799.56,-393.9 799.18,-384.8"/>
<polygon fill="black" stroke="black" points="802.69,-384.79 798.78,-374.94 795.69,-385.08 802.69,-384.79"/>
</g>
<!-- error::not_found -->
<g id="node12" class="node">
<title>error::not_found</title>
<ellipse fill="none" stroke="black" cx="235" cy="-355" rx="46.59" ry="18"/>
<text text-anchor="middle" x="235" y="-351.3" font-family="Times,serif" font-size="14.00">not_found</text>
</g>
<!-- assert_collection_exists&#45;&gt;error::not_found -->
<g id="edge12" class="edge">
<title>assert_collection_exists&#45;&gt;error::not_found</title>
<path fill="none" stroke="black" d="M315.6,-414.16C308.18,-411.19 300.75,-407.8 294,-404 282.11,-397.3 270.2,-388.19 260.23,-379.7"/>
<polygon fill="black" stroke="black" points="262.63,-377.15 252.81,-373.17 258,-382.4 262.63,-377.15"/>
</g>
<!-- table::contains -->
<g id="node13" class="node">
<title>table::contains</title>
<ellipse fill="none" stroke="black" cx="364" cy="-355" rx="40.09" ry="18"/>
<text text-anchor="middle" x="364" y="-351.3" font-family="Times,serif" font-size="14.00">contains</text>
</g>
<!-- assert_collection_exists&#45;&gt;table::contains -->
<g id="edge13" class="edge">
<title>assert_collection_exists&#45;&gt;table::contains</title>
<path fill="none" stroke="black" d="M364,-411.7C364,-403.67 364,-393.9 364,-384.8"/>
<polygon fill="black" stroke="black" points="367.5,-384.94 364,-374.94 360.5,-384.94 367.5,-384.94"/>
</g>
<!-- bcs::to_bytes -->
<g id="node14" class="node">
<title>bcs::to_bytes</title>
<ellipse fill="none" stroke="black" cx="1316" cy="-106" rx="40.09" ry="18"/>
<text text-anchor="middle" x="1316" y="-102.3" font-family="Times,serif" font-size="14.00">to_bytes</text>
</g>
<!-- event::emit_event&#45;&gt;bcs::to_bytes -->
<g id="edge14" class="edge">
<title>event::emit_event&#45;&gt;bcs::to_bytes</title>
<path fill="none" stroke="black" d="M1231.62,-174.2C1242.19,-168.77 1253.96,-162.13 1264,-155 1274.07,-147.85 1284.25,-138.92 1292.9,-130.7"/>
<polygon fill="black" stroke="black" points="1295.18,-133.37 1299.89,-123.88 1290.29,-128.36 1295.18,-133.37"/>
</g>
<!-- event::write_to_event_store -->
<g id="node15" class="node">
<title>event::write_to_event_store</title>
<ellipse fill="none" stroke="black" cx="1167" cy="-106" rx="85.29" ry="18"/>
<text text-anchor="middle" x="1167" y="-102.3" font-family="Times,serif" font-size="14.00">write_to_event_store</text>
</g>
<!-- event::emit_event&#45;&gt;event::write_to_event_store -->
<g id="edge15" class="edge">
<title>event::emit_event&#45;&gt;event::write_to_event_store</title>
<path fill="none" stroke="black" d="M1194.58,-170.82C1190.03,-160.3 1184.11,-146.59 1178.91,-134.57"/>
<polygon fill="black" stroke="black" points="1182.19,-133.33 1175.01,-125.54 1175.77,-136.11 1182.19,-133.33"/>
</g>
<!-- token_event_store::initialize_token_event_store&#45;&gt;signer::address_of -->
<g id="edge17" class="edge">
<title>token_event_store::initialize_token_event_store&#45;&gt;signer::address_of</title>
<path fill="none" stroke="black" d="M734.93,-339.78C725.44,-335.17 716.62,-329.07 710,-321 687.12,-293.11 678.88,-187.06 676.19,-135.49"/>
<polygon fill="black" stroke="black" points="679.69,-135.54 675.71,-125.72 672.7,-135.88 679.69,-135.54"/>
</g>
<!-- option::none -->
<g id="node16" class="node">
<title>option::none</title>
<ellipse fill="none" stroke="black" cx="750" cy="-272" rx="27.9" ry="18"/>
<text text-anchor="middle" x="750" y="-268.3" font-family="Times,serif" font-size="14.00">none</text>
</g>
<!-- token_event_store::initialize_token_event_store&#45;&gt;option::none -->
<g id="edge16" class="edge">
<title>token_event_store::initialize_token_event_store&#45;&gt;option::none</title>
<path fill="none" stroke="black" d="M787.82,-336.82C781.33,-325.87 772.79,-311.45 765.47,-299.1"/>
<polygon fill="black" stroke="black" points="768.55,-297.45 760.45,-290.63 762.53,-301.01 768.55,-297.45"/>
</g>
<!-- account::new_event_handle -->
<g id="node17" class="node">
<title>account::new_event_handle</title>
<ellipse fill="none" stroke="black" cx="879" cy="-272" rx="76.89" ry="18"/>
<text text-anchor="middle" x="879" y="-268.3" font-family="Times,serif" font-size="14.00">new_event_handle</text>
</g>
<!-- token_event_store::initialize_token_event_store&#45;&gt;account::new_event_handle -->
<g id="edge18" class="edge">
<title>token_event_store::initialize_token_event_store&#45;&gt;account::new_event_handle</title>
<path fill="none" stroke="black" d="M815.18,-336.82C826.53,-325.47 841.59,-310.41 854.23,-297.77"/>
<polygon fill="black" stroke="black" points="856.46,-300.49 861.05,-290.95 851.51,-295.54 856.46,-300.49"/>
</g>
<!-- error::not_found&#45;&gt;error::canonical -->
<g id="edge19" class="edge">
<title>error::not_found&#45;&gt;error::canonical</title>
<path fill="none" stroke="black" d="M220.63,-337.61C210.62,-326.19 197.09,-310.75 185.77,-297.83"/>
<polygon fill="black" stroke="black" points="188.57,-295.72 179.34,-290.51 183.3,-300.33 188.57,-295.72"/>
</g>
<!-- table::contains_box -->
<g id="node18" class="node">
<title>table::contains_box</title>
<ellipse fill="none" stroke="black" cx="364" cy="-272" rx="57.69" ry="18"/>
<text text-anchor="middle" x="364" y="-268.3" font-family="Times,serif" font-size="14.00">contains_box</text>
</g>
<!-- table::contains&#45;&gt;table::contains_box -->
<g id="edge20" class="edge">
<title>table::contains&#45;&gt;table::contains_box</title>
<path fill="none" stroke="black" d="M364,-336.82C364,-326.69 364,-313.6 364,-301.92"/>
<polygon fill="black" stroke="black" points="367.5,-301.95 364,-291.95 360.5,-301.95 367.5,-301.95"/>
</g>
<!-- event::new_event_handle -->
<g id="node19" class="node">
<title>event::new_event_handle</title>
<ellipse fill="none" stroke="black" cx="1057" cy="-189" rx="76.89" ry="18"/>
<text text-anchor="middle" x="1057" y="-185.3" font-family="Times,serif" font-size="14.00">new_event_handle</text>
</g>
<!-- account::new_event_handle&#45;&gt;event::new_event_handle -->
<g id="edge21" class="edge">
<title>account::new_event_handle&#45;&gt;event::new_event_handle</title>
<path fill="none" stroke="black" d="M921.59,-256.58C936.46,-251.18 953.14,-244.72 968,-238 985.32,-230.16 1003.91,-220.37 1019.6,-211.68"/>
<polygon fill="black" stroke="black" points="1021.12,-214.84 1028.13,-206.89 1017.69,-208.73 1021.12,-214.84"/>
</g>
<!-- account::create_guid -->
<g id="node20" class="node">
<title>account::create_guid</title>
<ellipse fill="none" stroke="black" cx="866" cy="-189" rx="51.99" ry="18"/>
<text text-anchor="middle" x="866" y="-185.3" font-family="Times,serif" font-size="14.00">create_guid</text>
</g>
<!-- account::new_event_handle&#45;&gt;account::create_guid -->
<g id="edge22" class="edge">
<title>account::new_event_handle&#45;&gt;account::create_guid</title>
<path fill="none" stroke="black" d="M876.24,-253.82C874.6,-243.58 872.47,-230.33 870.58,-218.55"/>
<polygon fill="black" stroke="black" points="874.08,-218.25 869.04,-208.93 867.17,-219.36 874.08,-218.25"/>
</g>
<!-- account::create_guid&#45;&gt;signer::address_of -->
<g id="edge23" class="edge">
<title>account::create_guid&#45;&gt;signer::address_of</title>
<path fill="none" stroke="black" d="M834.03,-174.44C801.79,-160.77 751.87,-139.6 716.57,-124.63"/>
<polygon fill="black" stroke="black" points="718.09,-121.47 707.52,-120.79 715.35,-127.92 718.09,-121.47"/>
</g>
<!-- guid::create -->
<g id="node21" class="node">
<title>guid::create</title>
<ellipse fill="none" stroke="black" cx="866" cy="-106" rx="31.7" ry="18"/>
<text text-anchor="middle" x="866" y="-102.3" font-family="Times,serif" font-size="14.00">create</text>
</g>
<!-- account::create_guid&#45;&gt;guid::create -->
<g id="edge24" class="edge">
<title>account::create_guid&#45;&gt;guid::create</title>
<path fill="none" stroke="black" d="M866,-170.82C866,-160.69 866,-147.6 866,-135.92"/>
<polygon fill="black" stroke="black" points="869.5,-135.95 866,-125.95 862.5,-135.95 869.5,-135.95"/>
</g>
</g>
</svg>
