<?xml version="1.0" encoding="UTF-8" standalone="no"?>
<!DOCTYPE svg PUBLIC "-//W3C//DTD SVG 1.1//EN"
 "http://www.w3.org/Graphics/SVG/1.1/DTD/svg11.dtd">
<!-- Generated by graphviz version 7.0.4 (20221203.1631)
 -->
<!-- Title: G Pages: 1 -->
<svg width="1141pt" height="116pt"
 viewBox="0.00 0.00 1140.73 116.00" xmlns="http://www.w3.org/2000/svg" xmlns:xlink="http://www.w3.org/1999/xlink">
<g id="graph0" class="graph" transform="scale(1 1) rotate(0) translate(4 112)">
<title>G</title>
<polygon fill="white" stroke="none" points="-4,4 -4,-112 1136.73,-112 1136.73,4 -4,4"/>
<!-- assert_tokendata_exists -->
<g id="node1" class="node">
<title>assert_tokendata_exists</title>
<ellipse fill="none" stroke="black" cx="607.99" cy="-18" rx="93.68" ry="18"/>
<text text-anchor="middle" x="607.99" y="-14.3" font-family="Times,serif" font-size="14.00">assert_tokendata_exists</text>
</g>
<!-- mutate_tokendata_description -->
<g id="node2" class="node">
<title>mutate_tokendata_description</title>
<ellipse fill="none" stroke="black" cx="116.99" cy="-90" rx="116.98" ry="18"/>
<text text-anchor="middle" x="116.99" y="-86.3" font-family="Times,serif" font-size="14.00">mutate_tokendata_description</text>
</g>
<!-- mutate_tokendata_description&#45;&gt;assert_tokendata_exists -->
<g id="edge1" class="edge">
<title>mutate_tokendata_description&#45;&gt;assert_tokendata_exists</title>
<path fill="none" stroke="black" d="M200.84,-77.05C290.8,-64.22 432.9,-43.96 523.21,-31.09"/>
<polygon fill="black" stroke="black" points="523.61,-34.57 533.01,-29.69 522.62,-27.64 523.61,-34.57"/>
</g>
<!-- mutate_tokendata_maximum -->
<g id="node3" class="node">
<title>mutate_tokendata_maximum</title>
<ellipse fill="none" stroke="black" cx="366.99" cy="-90" rx="115.08" ry="18"/>
<text text-anchor="middle" x="366.99" y="-86.3" font-family="Times,serif" font-size="14.00">mutate_tokendata_maximum</text>
</g>
<!-- mutate_tokendata_maximum&#45;&gt;assert_tokendata_exists -->
<g id="edge2" class="edge">
<title>mutate_tokendata_maximum&#45;&gt;assert_tokendata_exists</title>
<path fill="none" stroke="black" d="M419.88,-73.64C457.29,-62.77 507.55,-48.17 546.71,-36.8"/>
<polygon fill="black" stroke="black" points="547.62,-40.18 556.24,-34.03 545.66,-33.46 547.62,-40.18"/>
</g>
<!-- mutate_tokendata_property -->
<g id="node4" class="node">
<title>mutate_tokendata_property</title>
<ellipse fill="none" stroke="black" cx="607.99" cy="-90" rx="107.78" ry="18"/>
<text text-anchor="middle" x="607.99" y="-86.3" font-family="Times,serif" font-size="14.00">mutate_tokendata_property</text>
</g>
<!-- mutate_tokendata_property&#45;&gt;assert_tokendata_exists -->
<g id="edge3" class="edge">
<title>mutate_tokendata_property&#45;&gt;assert_tokendata_exists</title>
<path fill="none" stroke="black" d="M607.99,-71.7C607.99,-64.41 607.99,-55.73 607.99,-47.54"/>
<polygon fill="black" stroke="black" points="611.49,-47.62 607.99,-37.62 604.49,-47.62 611.49,-47.62"/>
</g>
<!-- mutate_tokendata_royalty -->
<g id="node5" class="node">
<title>mutate_tokendata_royalty</title>
<ellipse fill="none" stroke="black" cx="836.99" cy="-90" rx="102.88" ry="18"/>
<text text-anchor="middle" x="836.99" y="-86.3" font-family="Times,serif" font-size="14.00">mutate_tokendata_royalty</text>
</g>
<!-- mutate_tokendata_royalty&#45;&gt;assert_tokendata_exists -->
<g id="edge4" class="edge">
<title>mutate_tokendata_royalty&#45;&gt;assert_tokendata_exists</title>
<path fill="none" stroke="black" d="M787.3,-73.81C751.98,-63.01 704.39,-48.47 667.12,-37.07"/>
<polygon fill="black" stroke="black" points="668.44,-33.82 657.85,-34.24 666.39,-40.51 668.44,-33.82"/>
</g>
<!-- mutate_tokendata_uri -->
<g id="node6" class="node">
<title>mutate_tokendata_uri</title>
<ellipse fill="none" stroke="black" cx="1044.99" cy="-90" rx="87.99" ry="18"/>
<text text-anchor="middle" x="1044.99" y="-86.3" font-family="Times,serif" font-size="14.00">mutate_tokendata_uri</text>
</g>
<!-- mutate_tokendata_uri&#45;&gt;assert_tokendata_exists -->
<g id="edge5" class="edge">
<title>mutate_tokendata_uri&#45;&gt;assert_tokendata_exists</title>
<path fill="none" stroke="black" d="M980.47,-77.38C969.96,-75.54 959.17,-73.69 948.99,-72 861.23,-57.41 760.56,-41.92 691.47,-31.47"/>
<polygon fill="black" stroke="black" points="692.14,-28.04 681.73,-30 691.1,-34.96 692.14,-28.04"/>
</g>
</g>
</svg>
