<?xml version="1.0" encoding="UTF-8" standalone="no"?>
<!DOCTYPE svg PUBLIC "-//W3C//DTD SVG 1.1//EN"
 "http://www.w3.org/Graphics/SVG/1.1/DTD/svg11.dtd">
<!-- Generated by graphviz version 7.0.4 (20221203.1631)
 -->
<!-- Title: G Pages: 1 -->
<svg width="2356pt" height="606pt"
 viewBox="0.00 0.00 2355.94 606.00" xmlns="http://www.w3.org/2000/svg" xmlns:xlink="http://www.w3.org/1999/xlink">
<g id="graph0" class="graph" transform="scale(1 1) rotate(0) translate(4 602)">
<title>G</title>
<polygon fill="white" stroke="none" points="-4,4 -4,-602 2351.94,-602 2351.94,4 -4,4"/>
<g id="clust1" class="cluster">
<title>cluster_string</title>
<polygon fill="none" stroke="black" points="562,-332 562,-407 642,-407 642,-332 562,-332"/>
<text text-anchor="middle" x="602" y="-391.8" font-family="Times,serif" font-size="14.00">string</text>
</g>
<g id="clust2" class="cluster">
<title>cluster_signer</title>
<polygon fill="none" stroke="black" points="1509,-8 1509,-166 1659,-166 1659,-8 1509,-8"/>
<text text-anchor="middle" x="1584" y="-150.8" font-family="Times,serif" font-size="14.00">signer</text>
</g>
<g id="clust3" class="cluster">
<title>cluster_error</title>
<polygon fill="none" stroke="black" points="260,-91 260,-249 848,-249 848,-91 260,-91"/>
<text text-anchor="middle" x="554" y="-233.8" font-family="Times,serif" font-size="14.00">error</text>
</g>
<g id="clust4" class="cluster">
<title>cluster_table</title>
<polygon fill="none" stroke="black" points="1604,-174 1604,-324 2166,-324 2166,-174 1604,-174"/>
<text text-anchor="middle" x="1885" y="-308.8" font-family="Times,serif" font-size="14.00">table</text>
</g>
<g id="clust5" class="cluster">
<title>cluster_event</title>
<polygon fill="none" stroke="black" points="960,-91 960,-249 1248,-249 1248,-91 960,-91"/>
<text text-anchor="middle" x="1104" y="-233.8" font-family="Times,serif" font-size="14.00">event</text>
</g>
<g id="clust6" class="cluster">
<title>cluster_property_map</title>
<polygon fill="none" stroke="black" points="650,-332 650,-482 743,-482 743,-332 650,-332"/>
<text text-anchor="middle" x="696.5" y="-466.8" font-family="Times,serif" font-size="14.00">property_map</text>
</g>
<g id="clust7" class="cluster">
<title>cluster_bcs</title>
<polygon fill="none" stroke="black" points="856,-91 856,-166 952,-166 952,-91 856,-91"/>
<text text-anchor="middle" x="904" y="-150.8" font-family="Times,serif" font-size="14.00">bcs</text>
</g>
<g id="clust8" class="cluster">
<title>cluster_simple_map</title>
<polygon fill="none" stroke="black" points="100,-174 100,-324 252,-324 252,-174 100,-174"/>
<text text-anchor="middle" x="176" y="-308.8" font-family="Times,serif" font-size="14.00">simple_map</text>
</g>
<g id="clust9" class="cluster">
<title>cluster_account</title>
<polygon fill="none" stroke="black" points="1256,-174 1256,-324 1527,-324 1527,-174 1256,-174"/>
<text text-anchor="middle" x="1391.5" y="-308.8" font-family="Times,serif" font-size="14.00">account</text>
</g>
<g id="clust10" class="cluster">
<title>cluster_option</title>
<polygon fill="none" stroke="black" points="8,-91 8,-166 252,-166 252,-91 8,-91"/>
<text text-anchor="middle" x="130" y="-150.8" font-family="Times,serif" font-size="14.00">option</text>
</g>
<g id="clust11" class="cluster">
<title>cluster_vector</title>
<polygon fill="none" stroke="black" points="60,-8 60,-83 267,-83 267,-8 60,-8"/>
<text text-anchor="middle" x="163.5" y="-67.8" font-family="Times,serif" font-size="14.00">vector</text>
</g>
<g id="clust12" class="cluster">
<title>cluster_guid</title>
<polygon fill="none" stroke="black" points="1411,-91 1411,-166 1491,-166 1491,-91 1411,-91"/>
<text text-anchor="middle" x="1451" y="-150.8" font-family="Times,serif" font-size="14.00">guid</text>
</g>
<!-- create_token_script -->
<g id="node1" class="node">
<title>create_token_script</title>
<ellipse fill="none" stroke="black" cx="943" cy="-580" rx="79.09" ry="18"/>
<text text-anchor="middle" x="943" y="-576.3" font-family="Times,serif" font-size="14.00">create_token_script</text>
</g>
<!-- create_token_mutability_config -->
<g id="node2" class="node">
<title>create_token_mutability_config</title>
<ellipse fill="none" stroke="black" cx="731" cy="-508" rx="123.48" ry="18"/>
<text text-anchor="middle" x="731" y="-504.3" font-family="Times,serif" font-size="14.00">create_token_mutability_config</text>
</g>
<!-- create_token_script&#45;&gt;create_token_mutability_config -->
<g id="edge1" class="edge">
<title>create_token_script&#45;&gt;create_token_mutability_config</title>
<path fill="none" stroke="black" d="M899.33,-564.58C867.83,-554.18 824.94,-540.02 790.34,-528.59"/>
<polygon fill="black" stroke="black" points="791.45,-525.27 780.86,-525.46 789.26,-531.92 791.45,-525.27"/>
</g>
<!-- create_tokendata -->
<g id="node3" class="node">
<title>create_tokendata</title>
<ellipse fill="none" stroke="black" cx="943" cy="-508" rx="70.39" ry="18"/>
<text text-anchor="middle" x="943" y="-504.3" font-family="Times,serif" font-size="14.00">create_tokendata</text>
</g>
<!-- create_token_script&#45;&gt;create_tokendata -->
<g id="edge2" class="edge">
<title>create_token_script&#45;&gt;create_tokendata</title>
<path fill="none" stroke="black" d="M943,-561.7C943,-554.41 943,-545.73 943,-537.54"/>
<polygon fill="black" stroke="black" points="946.5,-537.62 943,-527.62 939.5,-537.62 946.5,-537.62"/>
</g>
<!-- mint_token -->
<g id="node4" class="node">
<title>mint_token</title>
<ellipse fill="none" stroke="black" cx="1254" cy="-508" rx="51.19" ry="18"/>
<text text-anchor="middle" x="1254" y="-504.3" font-family="Times,serif" font-size="14.00">mint_token</text>
</g>
<!-- create_token_script&#45;&gt;mint_token -->
<g id="edge3" class="edge">
<title>create_token_script&#45;&gt;mint_token</title>
<path fill="none" stroke="black" d="M997.88,-566.65C1054.98,-553.79 1143.8,-533.8 1200.41,-521.06"/>
<polygon fill="black" stroke="black" points="1201.17,-524.48 1210.16,-518.87 1199.63,-517.65 1201.17,-524.48"/>
</g>
<!-- string::length -->
<g id="node5" class="node">
<title>string::length</title>
<ellipse fill="none" stroke="black" cx="602" cy="-358" rx="32.49" ry="18"/>
<text text-anchor="middle" x="602" y="-354.3" font-family="Times,serif" font-size="14.00">length</text>
</g>
<!-- create_tokendata&#45;&gt;string::length -->
<g id="edge4" class="edge">
<title>create_tokendata&#45;&gt;string::length</title>
<path fill="none" stroke="black" d="M892.87,-494.97C883.02,-492.99 872.72,-491.2 863,-490 851.03,-488.52 655.73,-489.13 646,-482 616.38,-460.31 606.63,-416.87 603.46,-387.86"/>
<polygon fill="black" stroke="black" points="606.95,-387.58 602.6,-377.92 599.97,-388.19 606.95,-387.58"/>
</g>
<!-- signer::address_of -->
<g id="node6" class="node">
<title>signer::address_of</title>
<ellipse fill="none" stroke="black" cx="1584" cy="-117" rx="48.99" ry="18"/>
<text text-anchor="middle" x="1584" y="-113.3" font-family="Times,serif" font-size="14.00">address_of</text>
</g>
<!-- create_tokendata&#45;&gt;signer::address_of -->
<g id="edge5" class="edge">
<title>create_tokendata&#45;&gt;signer::address_of</title>
<path fill="none" stroke="black" d="M1009.27,-501.56C1059.85,-497.64 1131.27,-492.6 1194,-490 1251.96,-487.59 1658.53,-489.84 1716,-482 1822.97,-467.4 2186,-466.96 2186,-359 2186,-359 2186,-359 2186,-274 2186,-228.99 2202.82,-204.8 2170,-174 2132.22,-138.54 1786.55,-124.12 1644.51,-119.66"/>
<polygon fill="black" stroke="black" points="1644.64,-116.16 1634.54,-119.35 1644.43,-123.16 1644.64,-116.16"/>
</g>
<!-- error::already_exists -->
<g id="node7" class="node">
<title>error::already_exists</title>
<ellipse fill="none" stroke="black" cx="329" cy="-200" rx="61.19" ry="18"/>
<text text-anchor="middle" x="329" y="-196.3" font-family="Times,serif" font-size="14.00">already_exists</text>
</g>
<!-- create_tokendata&#45;&gt;error::already_exists -->
<g id="edge6" class="edge">
<title>create_tokendata&#45;&gt;error::already_exists</title>
<path fill="none" stroke="black" d="M893.31,-494.89C883.33,-492.9 872.88,-491.12 863,-490 849.75,-488.5 393.21,-490.58 383,-482 308.43,-419.35 316.41,-287.85 324.23,-229.7"/>
<polygon fill="black" stroke="black" points="327.67,-230.36 325.65,-219.96 320.74,-229.35 327.67,-230.36"/>
</g>
<!-- error::invalid_argument -->
<g id="node8" class="node">
<title>error::invalid_argument</title>
<ellipse fill="none" stroke="black" cx="482" cy="-200" rx="73.39" ry="18"/>
<text text-anchor="middle" x="482" y="-196.3" font-family="Times,serif" font-size="14.00">invalid_argument</text>
</g>
<!-- create_tokendata&#45;&gt;error::invalid_argument -->
<g id="edge7" class="edge">
<title>create_tokendata&#45;&gt;error::invalid_argument</title>
<path fill="none" stroke="black" d="M892.87,-494.92C883.02,-492.95 872.73,-491.18 863,-490 848.82,-488.29 618.01,-489.73 606,-482 578.09,-464.03 596.09,-438.85 573,-415 567.74,-409.57 562.97,-412.69 558,-407 512.41,-354.72 493.23,-272.68 485.95,-229.6"/>
<polygon fill="black" stroke="black" points="489.42,-229.12 484.4,-219.79 482.51,-230.22 489.42,-229.12"/>
</g>
<!-- error::not_found -->
<g id="node9" class="node">
<title>error::not_found</title>
<ellipse fill="none" stroke="black" cx="793" cy="-200" rx="46.59" ry="18"/>
<text text-anchor="middle" x="793" y="-196.3" font-family="Times,serif" font-size="14.00">not_found</text>
</g>
<!-- create_tokendata&#45;&gt;error::not_found -->
<g id="edge8" class="edge">
<title>create_tokendata&#45;&gt;error::not_found</title>
<path fill="none" stroke="black" d="M891.47,-495.43C882.03,-493.48 872.24,-491.58 863,-490 849.53,-487.69 811.18,-492.13 802,-482 738.05,-411.43 766.36,-285.19 783.44,-229.14"/>
<polygon fill="black" stroke="black" points="786.73,-230.33 786.41,-219.74 780.06,-228.21 786.73,-230.33"/>
</g>
<!-- table::contains -->
<g id="node10" class="node">
<title>table::contains</title>
<ellipse fill="none" stroke="black" cx="1725" cy="-275" rx="40.09" ry="18"/>
<text text-anchor="middle" x="1725" y="-271.3" font-family="Times,serif" font-size="14.00">contains</text>
</g>
<!-- create_tokendata&#45;&gt;table::contains -->
<g id="edge9" class="edge">
<title>create_tokendata&#45;&gt;table::contains</title>
<path fill="none" stroke="black" d="M1009.55,-501.79C1060.11,-498 1131.4,-493.03 1194,-490 1224.53,-488.52 1440.19,-492.21 1469,-482 1572.59,-445.29 1665.25,-347.17 1704.76,-300.85"/>
<polygon fill="black" stroke="black" points="1707.21,-303.38 1710.97,-293.47 1701.86,-298.87 1707.21,-303.38"/>
</g>
<!-- table::borrow_mut -->
<g id="node11" class="node">
<title>table::borrow_mut</title>
<ellipse fill="none" stroke="black" cx="1838" cy="-275" rx="54.69" ry="18"/>
<text text-anchor="middle" x="1838" y="-271.3" font-family="Times,serif" font-size="14.00">borrow_mut</text>
</g>
<!-- create_tokendata&#45;&gt;table::borrow_mut -->
<g id="edge10" class="edge">
<title>create_tokendata&#45;&gt;table::borrow_mut</title>
<path fill="none" stroke="black" d="M1009.54,-501.68C1060.1,-497.84 1131.39,-492.84 1194,-490 1232.53,-488.25 1504.27,-493.75 1541,-482 1656.35,-445.12 1766.57,-346.77 1813.84,-300.59"/>
<polygon fill="black" stroke="black" points="1816.2,-303.19 1820.85,-293.67 1811.27,-298.21 1816.2,-303.19"/>
</g>
<!-- table::add -->
<g id="node12" class="node">
<title>table::add</title>
<ellipse fill="none" stroke="black" cx="1938" cy="-275" rx="27" ry="18"/>
<text text-anchor="middle" x="1938" y="-271.3" font-family="Times,serif" font-size="14.00">add</text>
</g>
<!-- create_tokendata&#45;&gt;table::add -->
<g id="edge11" class="edge">
<title>create_tokendata&#45;&gt;table::add</title>
<path fill="none" stroke="black" d="M1009.27,-501.62C1059.85,-497.74 1131.27,-492.71 1194,-490 1241.3,-487.96 1574.31,-494.39 1620,-482 1758.66,-444.41 1793.9,-418.62 1902,-324 1909.47,-317.46 1916.36,-309.15 1922.08,-301.28"/>
<polygon fill="black" stroke="black" points="1924.78,-303.52 1927.56,-293.3 1919.01,-299.55 1924.78,-303.52"/>
</g>
<!-- event::emit_event -->
<g id="node13" class="node">
<title>event::emit_event</title>
<ellipse fill="none" stroke="black" cx="1018" cy="-200" rx="50.09" ry="18"/>
<text text-anchor="middle" x="1018" y="-196.3" font-family="Times,serif" font-size="14.00">emit_event</text>
</g>
<!-- create_tokendata&#45;&gt;event::emit_event -->
<g id="edge12" class="edge">
<title>create_tokendata&#45;&gt;event::emit_event</title>
<path fill="none" stroke="black" d="M957.8,-490.16C973.7,-471.2 998.63,-438.88 1013,-407 1040.64,-345.69 1041.78,-323.68 1033,-257 1031.78,-247.7 1029.46,-237.75 1027,-228.86"/>
<polygon fill="black" stroke="black" points="1030.39,-227.98 1024.2,-219.37 1023.67,-229.96 1030.39,-227.98"/>
</g>
<!-- property_map::new -->
<g id="node14" class="node">
<title>property_map::new</title>
<ellipse fill="none" stroke="black" cx="685" cy="-433" rx="27" ry="18"/>
<text text-anchor="middle" x="685" y="-429.3" font-family="Times,serif" font-size="14.00">new</text>
</g>
<!-- create_tokendata&#45;&gt;property_map::new -->
<g id="edge13" class="edge">
<title>create_tokendata&#45;&gt;property_map::new</title>
<path fill="none" stroke="black" d="M892.42,-495.05C882.7,-493.09 872.57,-491.29 863,-490 832.78,-485.93 753.31,-495.57 726,-482 715.91,-476.99 707.31,-468.26 700.63,-459.61"/>
<polygon fill="black" stroke="black" points="703.66,-457.82 695.03,-451.67 697.94,-461.86 703.66,-457.82"/>
</g>
<!-- create_royalty -->
<g id="node15" class="node">
<title>create_royalty</title>
<ellipse fill="none" stroke="black" cx="943" cy="-358" rx="61.19" ry="18"/>
<text text-anchor="middle" x="943" y="-354.3" font-family="Times,serif" font-size="14.00">create_royalty</text>
</g>
<!-- create_tokendata&#45;&gt;create_royalty -->
<g id="edge14" class="edge">
<title>create_tokendata&#45;&gt;create_royalty</title>
<path fill="none" stroke="black" d="M943,-489.73C943,-464.67 943,-417.9 943,-387.63"/>
<polygon fill="black" stroke="black" points="946.5,-387.67 943,-377.67 939.5,-387.67 946.5,-387.67"/>
</g>
<!-- create_token_data_id -->
<g id="node16" class="node">
<title>create_token_data_id</title>
<ellipse fill="none" stroke="black" cx="478" cy="-433" rx="85.59" ry="18"/>
<text text-anchor="middle" x="478" y="-429.3" font-family="Times,serif" font-size="14.00">create_token_data_id</text>
</g>
<!-- create_tokendata&#45;&gt;create_token_data_id -->
<g id="edge15" class="edge">
<title>create_tokendata&#45;&gt;create_token_data_id</title>
<path fill="none" stroke="black" d="M893.3,-494.98C883.32,-492.98 872.87,-491.18 863,-490 800.09,-482.5 639.58,-496.92 578,-482 555.84,-476.63 532.78,-465.96 514.4,-456.04"/>
<polygon fill="black" stroke="black" points="516.19,-453.03 505.76,-451.22 512.79,-459.14 516.19,-453.03"/>
</g>
<!-- mint_token&#45;&gt;signer::address_of -->
<g id="edge16" class="edge">
<title>mint_token&#45;&gt;signer::address_of</title>
<path fill="none" stroke="black" d="M1304.5,-504.67C1358.62,-501.56 1440.59,-494.87 1469,-482 1514.29,-461.49 1529.27,-451.22 1552,-407 1596.42,-320.57 1592.13,-200.71 1587.27,-146.57"/>
<polygon fill="black" stroke="black" points="1590.76,-146.27 1586.29,-136.66 1583.79,-146.96 1590.76,-146.27"/>
</g>
<!-- mint_token&#45;&gt;error::invalid_argument -->
<g id="edge17" class="edge">
<title>mint_token&#45;&gt;error::invalid_argument</title>
<path fill="none" stroke="black" d="M1204.24,-503.1C1157.27,-499.48 1084.87,-494.05 1022,-490 1006.01,-488.97 892.4,-489.03 878,-482 798.46,-443.17 817.97,-384.89 747,-332 675.71,-278.88 644.02,-289.75 565,-249 549.37,-240.94 532.51,-231.36 518.09,-222.89"/>
<polygon fill="black" stroke="black" points="520.24,-220.09 509.85,-218 516.67,-226.11 520.24,-220.09"/>
</g>
<!-- mint_token&#45;&gt;error::not_found -->
<g id="edge18" class="edge">
<title>mint_token&#45;&gt;error::not_found</title>
<path fill="none" stroke="black" d="M1227.86,-492.12C1195.99,-473.57 1140.93,-440.26 1097,-407 1057.1,-376.79 1058.56,-352.71 1013,-332 986.9,-320.14 974.7,-336.69 949,-324 911.52,-305.49 915.64,-283.11 883,-257 866.18,-243.55 845.93,-230.69 828.9,-220.7"/>
<polygon fill="black" stroke="black" points="831.02,-217.88 820.61,-215.92 827.53,-223.94 831.02,-217.88"/>
</g>
<!-- mint_token&#45;&gt;table::contains -->
<g id="edge20" class="edge">
<title>mint_token&#45;&gt;table::contains</title>
<path fill="none" stroke="black" d="M1305.38,-506.85C1406.31,-506.11 1623.04,-502.17 1650,-482 1664.83,-470.9 1700.49,-357.51 1716.71,-303.86"/>
<polygon fill="black" stroke="black" points="1719.99,-305.11 1719.52,-294.53 1713.29,-303.09 1719.99,-305.11"/>
</g>
<!-- mint_token&#45;&gt;table::borrow_mut -->
<g id="edge21" class="edge">
<title>mint_token&#45;&gt;table::borrow_mut</title>
<path fill="none" stroke="black" d="M1305.38,-506.35C1411.3,-504.67 1646.73,-499.05 1679,-482 1754.07,-442.33 1804.61,-349.89 1826.18,-303.53"/>
<polygon fill="black" stroke="black" points="1829.24,-305.25 1830.18,-294.7 1822.86,-302.37 1829.24,-305.25"/>
</g>
<!-- mint_token&#45;&gt;event::emit_event -->
<g id="edge22" class="edge">
<title>mint_token&#45;&gt;event::emit_event</title>
<path fill="none" stroke="black" d="M1255.5,-489.71C1257.61,-457.24 1258.85,-385.61 1235,-332 1216.83,-291.16 1207.96,-277.03 1168,-257 1131.7,-238.81 1114.62,-264.26 1077,-249 1063.75,-243.63 1051.15,-234.21 1041.03,-225.13"/>
<polygon fill="black" stroke="black" points="1043.58,-222.73 1033.91,-218.4 1038.77,-227.81 1043.58,-222.73"/>
</g>
<!-- error::permission_denied -->
<g id="node17" class="node">
<title>error::permission_denied</title>
<ellipse fill="none" stroke="black" cx="651" cy="-200" rx="77.19" ry="18"/>
<text text-anchor="middle" x="651" y="-196.3" font-family="Times,serif" font-size="14.00">permission_denied</text>
</g>
<!-- mint_token&#45;&gt;error::permission_denied -->
<g id="edge19" class="edge">
<title>mint_token&#45;&gt;error::permission_denied</title>
<path fill="none" stroke="black" d="M1206.34,-500.91C1176.68,-496.66 1137.85,-490.27 1104,-482 999.14,-456.39 947.99,-484.64 873,-407 824.82,-357.12 883.54,-301.08 830,-257 813.99,-243.82 756.83,-255.08 737,-249 718.36,-243.29 699.26,-233.14 683.81,-223.64"/>
<polygon fill="black" stroke="black" points="685.83,-220.77 675.51,-218.36 682.07,-226.68 685.83,-220.77"/>
</g>
<!-- property_map::empty -->
<g id="node18" class="node">
<title>property_map::empty</title>
<ellipse fill="none" stroke="black" cx="691" cy="-358" rx="33.29" ry="18"/>
<text text-anchor="middle" x="691" y="-354.3" font-family="Times,serif" font-size="14.00">empty</text>
</g>
<!-- mint_token&#45;&gt;property_map::empty -->
<g id="edge23" class="edge">
<title>mint_token&#45;&gt;property_map::empty</title>
<path fill="none" stroke="black" d="M1204.7,-502.86C1157.76,-499.04 1085.11,-493.46 1022,-490 997.58,-488.66 824.17,-492.34 802,-482 758.16,-461.55 724.02,-414.89 705.75,-385.28"/>
<polygon fill="black" stroke="black" points="708.87,-383.68 700.74,-376.89 702.86,-387.27 708.87,-383.68"/>
</g>
<!-- create_token_id -->
<g id="node19" class="node">
<title>create_token_id</title>
<ellipse fill="none" stroke="black" cx="2281" cy="-433" rx="66.89" ry="18"/>
<text text-anchor="middle" x="2281" y="-429.3" font-family="Times,serif" font-size="14.00">create_token_id</text>
</g>
<!-- mint_token&#45;&gt;create_token_id -->
<g id="edge24" class="edge">
<title>mint_token&#45;&gt;create_token_id</title>
<path fill="none" stroke="black" d="M1305.61,-507.15C1490.61,-507.49 2114.11,-506.76 2200,-482 2217.99,-476.81 2236.1,-466.66 2250.62,-457.01"/>
<polygon fill="black" stroke="black" points="2252.58,-459.92 2258.81,-451.35 2248.6,-454.16 2252.58,-459.92"/>
</g>
<!-- deposit_token -->
<g id="node20" class="node">
<title>deposit_token</title>
<ellipse fill="none" stroke="black" cx="1400" cy="-433" rx="59.59" ry="18"/>
<text text-anchor="middle" x="1400" y="-429.3" font-family="Times,serif" font-size="14.00">deposit_token</text>
</g>
<!-- mint_token&#45;&gt;deposit_token -->
<g id="edge25" class="edge">
<title>mint_token&#45;&gt;deposit_token</title>
<path fill="none" stroke="black" d="M1282.5,-492.75C1304.57,-481.71 1335.42,-466.29 1359.98,-454.01"/>
<polygon fill="black" stroke="black" points="1361.34,-457.24 1368.72,-449.64 1358.21,-450.98 1361.34,-457.24"/>
</g>
<!-- signer::borrow_address -->
<g id="node21" class="node">
<title>signer::borrow_address</title>
<ellipse fill="none" stroke="black" cx="1584" cy="-34" rx="66.89" ry="18"/>
<text text-anchor="middle" x="1584" y="-30.3" font-family="Times,serif" font-size="14.00">borrow_address</text>
</g>
<!-- signer::address_of&#45;&gt;signer::borrow_address -->
<g id="edge26" class="edge">
<title>signer::address_of&#45;&gt;signer::borrow_address</title>
<path fill="none" stroke="black" d="M1584,-98.82C1584,-88.69 1584,-75.6 1584,-63.92"/>
<polygon fill="black" stroke="black" points="1587.5,-63.95 1584,-53.95 1580.5,-63.95 1587.5,-63.95"/>
</g>
<!-- error::canonical -->
<g id="node22" class="node">
<title>error::canonical</title>
<ellipse fill="none" stroke="black" cx="566" cy="-117" rx="44.39" ry="18"/>
<text text-anchor="middle" x="566" y="-113.3" font-family="Times,serif" font-size="14.00">canonical</text>
</g>
<!-- error::already_exists&#45;&gt;error::canonical -->
<g id="edge27" class="edge">
<title>error::already_exists&#45;&gt;error::canonical</title>
<path fill="none" stroke="black" d="M366.92,-185.54C377.61,-181.78 389.25,-177.71 400,-174 441.21,-159.8 488.29,-143.95 521.77,-132.74"/>
<polygon fill="black" stroke="black" points="522.76,-136.1 531.14,-129.61 520.54,-129.46 522.76,-136.1"/>
</g>
<!-- error::invalid_argument&#45;&gt;error::canonical -->
<g id="edge28" class="edge">
<title>error::invalid_argument&#45;&gt;error::canonical</title>
<path fill="none" stroke="black" d="M499.4,-182.22C511.58,-170.47 528.02,-154.62 541.52,-141.61"/>
<polygon fill="black" stroke="black" points="543.62,-144.45 548.39,-134.99 538.76,-139.41 543.62,-144.45"/>
</g>
<!-- error::not_found&#45;&gt;error::canonical -->
<g id="edge29" class="edge">
<title>error::not_found&#45;&gt;error::canonical</title>
<path fill="none" stroke="black" d="M764.17,-185.45C755.52,-181.56 745.94,-177.45 737,-174 695.18,-157.87 646.53,-142.23 611.83,-131.6"/>
<polygon fill="black" stroke="black" points="613.12,-128.33 602.54,-128.77 611.08,-135.03 613.12,-128.33"/>
</g>
<!-- table::contains_box -->
<g id="node23" class="node">
<title>table::contains_box</title>
<ellipse fill="none" stroke="black" cx="1838" cy="-200" rx="57.69" ry="18"/>
<text text-anchor="middle" x="1838" y="-196.3" font-family="Times,serif" font-size="14.00">contains_box</text>
</g>
<!-- table::contains&#45;&gt;table::contains_box -->
<g id="edge30" class="edge">
<title>table::contains&#45;&gt;table::contains_box</title>
<path fill="none" stroke="black" d="M1750.63,-260.8C1757.35,-257.14 1764.53,-253.05 1771,-249 1783.41,-241.22 1796.61,-231.99 1807.97,-223.72"/>
<polygon fill="black" stroke="black" points="1809.85,-226.68 1815.82,-217.94 1805.69,-221.05 1809.85,-226.68"/>
</g>
<!-- table::borrow_box_mut -->
<g id="node24" class="node">
<title>table::borrow_box_mut</title>
<ellipse fill="none" stroke="black" cx="1986" cy="-200" rx="72.29" ry="18"/>
<text text-anchor="middle" x="1986" y="-196.3" font-family="Times,serif" font-size="14.00">borrow_box_mut</text>
</g>
<!-- table::borrow_mut&#45;&gt;table::borrow_box_mut -->
<g id="edge31" class="edge">
<title>table::borrow_mut&#45;&gt;table::borrow_box_mut</title>
<path fill="none" stroke="black" d="M1875.35,-261.4C1885.14,-257.74 1895.59,-253.5 1905,-249 1920.66,-241.51 1937.27,-231.97 1951.35,-223.37"/>
<polygon fill="black" stroke="black" points="1953.16,-226.37 1959.81,-218.12 1949.47,-220.42 1953.16,-226.37"/>
</g>
<!-- table::add_box -->
<g id="node25" class="node">
<title>table::add_box</title>
<ellipse fill="none" stroke="black" cx="2117" cy="-200" rx="40.89" ry="18"/>
<text text-anchor="middle" x="2117" y="-196.3" font-family="Times,serif" font-size="14.00">add_box</text>
</g>
<!-- table::add&#45;&gt;table::add_box -->
<g id="edge32" class="edge">
<title>table::add&#45;&gt;table::add_box</title>
<path fill="none" stroke="black" d="M1965.15,-273.18C1992.31,-271.36 2034.59,-265.8 2067,-249 2078.06,-243.27 2088.35,-234.33 2096.68,-225.7"/>
<polygon fill="black" stroke="black" points="2099.15,-228.19 2103.3,-218.44 2093.98,-223.47 2099.15,-228.19"/>
</g>
<!-- bcs::to_bytes -->
<g id="node26" class="node">
<title>bcs::to_bytes</title>
<ellipse fill="none" stroke="black" cx="904" cy="-117" rx="40.09" ry="18"/>
<text text-anchor="middle" x="904" y="-113.3" font-family="Times,serif" font-size="14.00">to_bytes</text>
</g>
<!-- event::emit_event&#45;&gt;bcs::to_bytes -->
<g id="edge33" class="edge">
<title>event::emit_event&#45;&gt;bcs::to_bytes</title>
<path fill="none" stroke="black" d="M988.38,-185.2C977.81,-179.77 966.04,-173.13 956,-166 945.93,-158.85 935.75,-149.92 927.1,-141.7"/>
<polygon fill="black" stroke="black" points="929.71,-139.36 920.11,-134.88 924.82,-144.37 929.71,-139.36"/>
</g>
<!-- event::write_to_event_store -->
<g id="node27" class="node">
<title>event::write_to_event_store</title>
<ellipse fill="none" stroke="black" cx="1053" cy="-117" rx="85.29" ry="18"/>
<text text-anchor="middle" x="1053" y="-113.3" font-family="Times,serif" font-size="14.00">write_to_event_store</text>
</g>
<!-- event::emit_event&#45;&gt;event::write_to_event_store -->
<g id="edge34" class="edge">
<title>event::emit_event&#45;&gt;event::write_to_event_store</title>
<path fill="none" stroke="black" d="M1025.42,-181.82C1029.97,-171.3 1035.89,-157.59 1041.09,-145.57"/>
<polygon fill="black" stroke="black" points="1044.23,-147.11 1044.99,-136.54 1037.81,-144.33 1044.23,-147.11"/>
</g>
<!-- property_map::new&#45;&gt;string::length -->
<g id="edge35" class="edge">
<title>property_map::new&#45;&gt;string::length</title>
<path fill="none" stroke="black" d="M664.86,-420.48C658.58,-416.53 651.78,-411.87 646,-407 637.58,-399.91 629.2,-391.28 622.05,-383.29"/>
<polygon fill="black" stroke="black" points="624.75,-381.07 615.55,-375.81 619.47,-385.66 624.75,-381.07"/>
</g>
<!-- property_map::new&#45;&gt;error::invalid_argument -->
<g id="edge36" class="edge">
<title>property_map::new&#45;&gt;error::invalid_argument</title>
<path fill="none" stroke="black" d="M657.99,-429.77C625.29,-426.55 572.75,-419.57 558,-407 504.45,-361.36 488.61,-274.44 483.94,-229.5"/>
<polygon fill="black" stroke="black" points="487.45,-229.41 483.06,-219.77 480.48,-230.04 487.45,-229.41"/>
</g>
<!-- property_map::new&#45;&gt;property_map::empty -->
<g id="edge38" class="edge">
<title>property_map::new&#45;&gt;property_map::empty</title>
<path fill="none" stroke="black" d="M686.42,-414.7C687.08,-406.67 687.88,-396.9 688.63,-387.8"/>
<polygon fill="black" stroke="black" points="692.11,-388.19 689.44,-377.94 685.14,-387.62 692.11,-388.19"/>
</g>
<!-- simple_map::add -->
<g id="node28" class="node">
<title>simple_map::add</title>
<ellipse fill="none" stroke="black" cx="135" cy="-275" rx="27" ry="18"/>
<text text-anchor="middle" x="135" y="-271.3" font-family="Times,serif" font-size="14.00">add</text>
</g>
<!-- property_map::new&#45;&gt;simple_map::add -->
<g id="edge37" class="edge">
<title>property_map::new&#45;&gt;simple_map::add</title>
<path fill="none" stroke="black" d="M659.31,-427.2C636.67,-423.19 602.77,-417.71 573,-415 544.11,-412.37 339.87,-415.06 312,-407 242.14,-386.81 225.2,-372.48 171,-324 163.68,-317.46 156.88,-309.23 151.2,-301.44"/>
<polygon fill="black" stroke="black" points="154.07,-299.45 145.51,-293.22 148.32,-303.43 154.07,-299.45"/>
</g>
<!-- create_royalty&#45;&gt;error::invalid_argument -->
<g id="edge39" class="edge">
<title>create_royalty&#45;&gt;error::invalid_argument</title>
<path fill="none" stroke="black" d="M926.94,-340.25C901.51,-314.18 852.53,-265.93 830,-257 802.61,-246.15 593.33,-257.06 565,-249 546.48,-243.73 527.75,-233.42 512.79,-223.71"/>
<polygon fill="black" stroke="black" points="515.04,-221 504.79,-218.31 511.12,-226.81 515.04,-221"/>
</g>
<!-- account::exists_at -->
<g id="node29" class="node">
<title>account::exists_at</title>
<ellipse fill="none" stroke="black" cx="1306" cy="-275" rx="41.69" ry="18"/>
<text text-anchor="middle" x="1306" y="-271.3" font-family="Times,serif" font-size="14.00">exists_at</text>
</g>
<!-- create_royalty&#45;&gt;account::exists_at -->
<g id="edge40" class="edge">
<title>create_royalty&#45;&gt;account::exists_at</title>
<path fill="none" stroke="black" d="M990.83,-346.33C1060.49,-330.78 1189.11,-302.08 1258.56,-286.59"/>
<polygon fill="black" stroke="black" points="1259.11,-290.05 1268.11,-284.46 1257.59,-283.22 1259.11,-290.05"/>
</g>
<!-- create_token_data_id&#45;&gt;string::length -->
<g id="edge41" class="edge">
<title>create_token_data_id&#45;&gt;string::length</title>
<path fill="none" stroke="black" d="M505.83,-415.62C525.04,-404.31 550.63,-389.24 570.57,-377.5"/>
<polygon fill="black" stroke="black" points="572.28,-380.56 579.13,-372.47 568.73,-374.52 572.28,-380.56"/>
</g>
<!-- create_token_data_id&#45;&gt;error::invalid_argument -->
<g id="edge42" class="edge">
<title>create_token_data_id&#45;&gt;error::invalid_argument</title>
<path fill="none" stroke="black" d="M393.71,-429.28C358.45,-426.2 323.07,-419.87 312,-407 268.51,-356.47 267.07,-306.25 312,-257 325.08,-242.66 380.5,-254.89 399,-249 417.09,-243.25 435.53,-233.1 450.42,-223.61"/>
<polygon fill="black" stroke="black" points="451.97,-226.78 458.39,-218.35 448.11,-220.93 451.97,-226.78"/>
</g>
<!-- error::permission_denied&#45;&gt;error::canonical -->
<g id="edge43" class="edge">
<title>error::permission_denied&#45;&gt;error::canonical</title>
<path fill="none" stroke="black" d="M633.39,-182.22C621.07,-170.47 604.43,-154.62 590.78,-141.61"/>
<polygon fill="black" stroke="black" points="593.47,-139.34 583.82,-134.98 588.64,-144.41 593.47,-139.34"/>
</g>
<!-- simple_map::create -->
<g id="node30" class="node">
<title>simple_map::create</title>
<ellipse fill="none" stroke="black" cx="212" cy="-275" rx="31.7" ry="18"/>
<text text-anchor="middle" x="212" y="-271.3" font-family="Times,serif" font-size="14.00">create</text>
</g>
<!-- property_map::empty&#45;&gt;simple_map::create -->
<g id="edge44" class="edge">
<title>property_map::empty&#45;&gt;simple_map::create</title>
<path fill="none" stroke="black" d="M670.69,-343.57C663.21,-339.22 654.49,-334.79 646,-332 508.37,-286.74 334.94,-277.84 255.43,-276.24"/>
<polygon fill="black" stroke="black" points="255.52,-272.74 245.46,-276.07 255.4,-279.74 255.52,-272.74"/>
</g>
<!-- deposit_token&#45;&gt;signer::address_of -->
<g id="edge45" class="edge">
<title>deposit_token&#45;&gt;signer::address_of</title>
<path fill="none" stroke="black" d="M1459.7,-431.16C1620.77,-427.75 2059.58,-410.56 2170,-324 2198.26,-301.85 2193.21,-284.25 2200,-249 2206.3,-216.27 2222.48,-198.61 2200,-174 2162.98,-133.47 1792.15,-121.96 1644.34,-118.97"/>
<polygon fill="black" stroke="black" points="1644.42,-115.47 1634.35,-118.77 1644.28,-122.47 1644.42,-115.47"/>
</g>
<!-- direct_deposit -->
<g id="node31" class="node">
<title>direct_deposit</title>
<ellipse fill="none" stroke="black" cx="1166" cy="-358" rx="60.39" ry="18"/>
<text text-anchor="middle" x="1166" y="-354.3" font-family="Times,serif" font-size="14.00">direct_deposit</text>
</g>
<!-- deposit_token&#45;&gt;direct_deposit -->
<g id="edge46" class="edge">
<title>deposit_token&#45;&gt;direct_deposit</title>
<path fill="none" stroke="black" d="M1359.51,-419.37C1320.16,-407.09 1260.25,-388.4 1217.52,-375.07"/>
<polygon fill="black" stroke="black" points="1218.81,-371.81 1208.23,-372.17 1216.73,-378.49 1218.81,-371.81"/>
</g>
<!-- initialize_token_store -->
<g id="node32" class="node">
<title>initialize_token_store</title>
<ellipse fill="none" stroke="black" cx="1456" cy="-358" rx="87.18" ry="18"/>
<text text-anchor="middle" x="1456" y="-354.3" font-family="Times,serif" font-size="14.00">initialize_token_store</text>
</g>
<!-- deposit_token&#45;&gt;initialize_token_store -->
<g id="edge47" class="edge">
<title>deposit_token&#45;&gt;initialize_token_store</title>
<path fill="none" stroke="black" d="M1412.99,-415.07C1419.8,-406.2 1428.28,-395.13 1435.92,-385.18"/>
<polygon fill="black" stroke="black" points="1438.66,-387.36 1441.97,-377.29 1433.1,-383.1 1438.66,-387.36"/>
</g>
<!-- simple_map::add&#45;&gt;error::invalid_argument -->
<g id="edge49" class="edge">
<title>simple_map::add&#45;&gt;error::invalid_argument</title>
<path fill="none" stroke="black" d="M155.41,-262.62C160.37,-260.35 165.76,-258.27 171,-257 220.27,-245.04 350.27,-263 399,-249 417.51,-243.68 436.23,-233.37 451.2,-223.67"/>
<polygon fill="black" stroke="black" points="452.86,-226.77 459.2,-218.28 448.95,-220.96 452.86,-226.77"/>
</g>
<!-- option::is_none -->
<g id="node33" class="node">
<title>option::is_none</title>
<ellipse fill="none" stroke="black" cx="206" cy="-117" rx="38.19" ry="18"/>
<text text-anchor="middle" x="206" y="-113.3" font-family="Times,serif" font-size="14.00">is_none</text>
</g>
<!-- simple_map::add&#45;&gt;option::is_none -->
<g id="edge48" class="edge">
<title>simple_map::add&#45;&gt;option::is_none</title>
<path fill="none" stroke="black" d="M155.81,-263.17C161.44,-259.36 167.06,-254.6 171,-249 192.67,-218.16 200.92,-174.65 204.07,-146.38"/>
<polygon fill="black" stroke="black" points="207.52,-147.08 204.98,-136.79 200.55,-146.41 207.52,-147.08"/>
</g>
<!-- simple_map::find -->
<g id="node34" class="node">
<title>simple_map::find</title>
<ellipse fill="none" stroke="black" cx="135" cy="-200" rx="27" ry="18"/>
<text text-anchor="middle" x="135" y="-196.3" font-family="Times,serif" font-size="14.00">find</text>
</g>
<!-- simple_map::add&#45;&gt;simple_map::find -->
<g id="edge50" class="edge">
<title>simple_map::add&#45;&gt;simple_map::find</title>
<path fill="none" stroke="black" d="M135,-256.7C135,-248.67 135,-238.9 135,-229.8"/>
<polygon fill="black" stroke="black" points="138.5,-229.94 135,-219.94 131.5,-229.94 138.5,-229.94"/>
</g>
<!-- direct_deposit&#45;&gt;error::invalid_argument -->
<g id="edge51" class="edge">
<title>direct_deposit&#45;&gt;error::invalid_argument</title>
<path fill="none" stroke="black" d="M1114.45,-348.32C1097.52,-343.43 1079.59,-335.82 1066,-324 1040.96,-302.21 1061.03,-274.78 1033,-257 1011.04,-243.07 590.06,-255.95 565,-249 546.45,-243.85 527.72,-233.56 512.76,-223.82"/>
<polygon fill="black" stroke="black" points="515,-221.11 504.76,-218.41 511.08,-226.91 515,-221.11"/>
</g>
<!-- direct_deposit&#45;&gt;error::not_found -->
<g id="edge52" class="edge">
<title>direct_deposit&#45;&gt;error::not_found</title>
<path fill="none" stroke="black" d="M1151.96,-340.37C1129.68,-314.46 1086.65,-266.45 1066,-257 1043.71,-246.81 980.12,-253.38 956,-249 914.8,-241.52 869.17,-227.58 836.69,-216.64"/>
<polygon fill="black" stroke="black" points="838.24,-213.47 827.64,-213.55 835.97,-220.09 838.24,-213.47"/>
</g>
<!-- direct_deposit&#45;&gt;table::contains -->
<g id="edge53" class="edge">
<title>direct_deposit&#45;&gt;table::contains</title>
<path fill="none" stroke="black" d="M1218.55,-348.74C1257.49,-342.98 1311.92,-335.7 1360,-332 1377.51,-330.65 1659.83,-330.84 1676,-324 1687.52,-319.13 1697.83,-310.18 1705.99,-301.31"/>
<polygon fill="black" stroke="black" points="1708.58,-303.66 1712.41,-293.79 1703.26,-299.12 1708.58,-303.66"/>
</g>
<!-- direct_deposit&#45;&gt;table::borrow_mut -->
<g id="edge54" class="edge">
<title>direct_deposit&#45;&gt;table::borrow_mut</title>
<path fill="none" stroke="black" d="M1218.54,-348.66C1257.48,-342.86 1311.91,-335.55 1360,-332 1382.94,-330.31 1752.25,-331.49 1774,-324 1788.61,-318.97 1802.61,-309.25 1813.77,-299.86"/>
<polygon fill="black" stroke="black" points="1815.78,-302.76 1820.94,-293.5 1811.13,-297.52 1815.78,-302.76"/>
</g>
<!-- direct_deposit&#45;&gt;table::add -->
<g id="edge55" class="edge">
<title>direct_deposit&#45;&gt;table::add</title>
<path fill="none" stroke="black" d="M1218.12,-348.65C1257.09,-342.81 1311.73,-335.46 1360,-332 1375.02,-330.92 1888.58,-330.83 1902,-324 1911.34,-319.24 1918.9,-310.81 1924.64,-302.33"/>
<polygon fill="black" stroke="black" points="1927.58,-304.22 1929.75,-293.85 1921.58,-300.61 1927.58,-304.22"/>
</g>
<!-- direct_deposit&#45;&gt;event::emit_event -->
<g id="edge56" class="edge">
<title>direct_deposit&#45;&gt;event::emit_event</title>
<path fill="none" stroke="black" d="M1167.31,-339.55C1167.96,-316.9 1165.31,-277.81 1142,-257 1131.14,-247.31 1090.39,-254.7 1077,-249 1063.85,-243.4 1051.26,-233.95 1041.12,-224.9"/>
<polygon fill="black" stroke="black" points="1043.68,-222.5 1033.99,-218.21 1038.89,-227.6 1043.68,-222.5"/>
</g>
<!-- merge -->
<g id="node35" class="node">
<title>merge</title>
<ellipse fill="none" stroke="black" cx="991" cy="-275" rx="33.29" ry="18"/>
<text text-anchor="middle" x="991" y="-271.3" font-family="Times,serif" font-size="14.00">merge</text>
</g>
<!-- direct_deposit&#45;&gt;merge -->
<g id="edge57" class="edge">
<title>direct_deposit&#45;&gt;merge</title>
<path fill="none" stroke="black" d="M1111.82,-349.76C1088.02,-344.93 1060.45,-336.98 1038,-324 1027.66,-318.02 1018.07,-309.14 1010.28,-300.64"/>
<polygon fill="black" stroke="black" points="1013.04,-298.49 1003.86,-293.2 1007.75,-303.06 1013.04,-298.49"/>
</g>
<!-- initialize_token_store&#45;&gt;signer::address_of -->
<g id="edge58" class="edge">
<title>initialize_token_store&#45;&gt;signer::address_of</title>
<path fill="none" stroke="black" d="M1505.49,-342.84C1515.04,-338.17 1524.19,-332.02 1531,-324 1532.46,-322.28 1562.77,-202.37 1576.88,-146.31"/>
<polygon fill="black" stroke="black" points="1580.22,-147.4 1579.26,-136.85 1573.43,-145.7 1580.22,-147.4"/>
</g>
<!-- table::new -->
<g id="node36" class="node">
<title>table::new</title>
<ellipse fill="none" stroke="black" cx="1640" cy="-275" rx="27" ry="18"/>
<text text-anchor="middle" x="1640" y="-271.3" font-family="Times,serif" font-size="14.00">new</text>
</g>
<!-- initialize_token_store&#45;&gt;table::new -->
<g id="edge59" class="edge">
<title>initialize_token_store&#45;&gt;table::new</title>
<path fill="none" stroke="black" d="M1508.46,-343.23C1525.54,-338.03 1544.38,-331.53 1561,-324 1578.82,-315.93 1597.57,-304.67 1612.34,-295.08"/>
<polygon fill="black" stroke="black" points="1614.2,-298.04 1620.6,-289.6 1610.33,-292.21 1614.2,-298.04"/>
</g>
<!-- account::new_event_handle -->
<g id="node37" class="node">
<title>account::new_event_handle</title>
<ellipse fill="none" stroke="black" cx="1442" cy="-275" rx="76.89" ry="18"/>
<text text-anchor="middle" x="1442" y="-271.3" font-family="Times,serif" font-size="14.00">new_event_handle</text>
</g>
<!-- initialize_token_store&#45;&gt;account::new_event_handle -->
<g id="edge60" class="edge">
<title>initialize_token_store&#45;&gt;account::new_event_handle</title>
<path fill="none" stroke="black" d="M1453.03,-339.82C1451.26,-329.58 1448.97,-316.33 1446.93,-304.55"/>
<polygon fill="black" stroke="black" points="1450.42,-304.18 1445.27,-294.92 1443.53,-305.37 1450.42,-304.18"/>
</g>
<!-- vector::is_empty -->
<g id="node38" class="node">
<title>vector::is_empty</title>
<ellipse fill="none" stroke="black" cx="215" cy="-34" rx="43.59" ry="18"/>
<text text-anchor="middle" x="215" y="-30.3" font-family="Times,serif" font-size="14.00">is_empty</text>
</g>
<!-- option::is_none&#45;&gt;vector::is_empty -->
<g id="edge61" class="edge">
<title>option::is_none&#45;&gt;vector::is_empty</title>
<path fill="none" stroke="black" d="M207.91,-98.82C209.05,-88.58 210.52,-75.33 211.83,-63.55"/>
<polygon fill="black" stroke="black" points="215.27,-64.26 212.9,-53.94 208.31,-63.49 215.27,-64.26"/>
</g>
<!-- option::none -->
<g id="node39" class="node">
<title>option::none</title>
<ellipse fill="none" stroke="black" cx="44" cy="-117" rx="27.9" ry="18"/>
<text text-anchor="middle" x="44" y="-113.3" font-family="Times,serif" font-size="14.00">none</text>
</g>
<!-- simple_map::find&#45;&gt;option::none -->
<g id="edge62" class="edge">
<title>simple_map::find&#45;&gt;option::none</title>
<path fill="none" stroke="black" d="M113.78,-188.41C103.29,-182.61 90.81,-174.81 81,-166 73.54,-159.31 66.51,-150.95 60.62,-143.09"/>
<polygon fill="black" stroke="black" points="63.59,-141.23 54.93,-135.13 57.9,-145.3 63.59,-141.23"/>
</g>
<!-- option::some -->
<g id="node40" class="node">
<title>option::some</title>
<ellipse fill="none" stroke="black" cx="120" cy="-117" rx="29.8" ry="18"/>
<text text-anchor="middle" x="120" y="-113.3" font-family="Times,serif" font-size="14.00">some</text>
</g>
<!-- simple_map::find&#45;&gt;option::some -->
<g id="edge63" class="edge">
<title>simple_map::find&#45;&gt;option::some</title>
<path fill="none" stroke="black" d="M131.82,-181.82C129.91,-171.51 127.43,-158.14 125.24,-146.31"/>
<polygon fill="black" stroke="black" points="128.71,-145.84 123.45,-136.64 121.83,-147.11 128.71,-145.84"/>
</g>
<!-- merge&#45;&gt;error::invalid_argument -->
<g id="edge64" class="edge">
<title>merge&#45;&gt;error::invalid_argument</title>
<path fill="none" stroke="black" d="M960.91,-266.65C944.74,-263.04 924.4,-259.04 906,-257 868.33,-252.82 601.49,-259.25 565,-249 546.46,-243.79 527.73,-233.49 512.77,-223.76"/>
<polygon fill="black" stroke="black" points="515.02,-221.06 504.77,-218.36 511.1,-226.86 515.02,-221.06"/>
</g>
<!-- table::new_table_handle -->
<g id="node41" class="node">
<title>table::new_table_handle</title>
<ellipse fill="none" stroke="black" cx="1687" cy="-200" rx="74.99" ry="18"/>
<text text-anchor="middle" x="1687" y="-196.3" font-family="Times,serif" font-size="14.00">new_table_handle</text>
</g>
<!-- table::new&#45;&gt;table::new_table_handle -->
<g id="edge65" class="edge">
<title>table::new&#45;&gt;table::new_table_handle</title>
<path fill="none" stroke="black" d="M1650.2,-258.16C1655.97,-249.2 1663.33,-237.76 1669.96,-227.47"/>
<polygon fill="black" stroke="black" points="1672.71,-229.66 1675.18,-219.35 1666.83,-225.87 1672.71,-229.66"/>
</g>
<!-- event::new_event_handle -->
<g id="node42" class="node">
<title>event::new_event_handle</title>
<ellipse fill="none" stroke="black" cx="1163" cy="-200" rx="76.89" ry="18"/>
<text text-anchor="middle" x="1163" y="-196.3" font-family="Times,serif" font-size="14.00">new_event_handle</text>
</g>
<!-- account::new_event_handle&#45;&gt;event::new_event_handle -->
<g id="edge66" class="edge">
<title>account::new_event_handle&#45;&gt;event::new_event_handle</title>
<path fill="none" stroke="black" d="M1387.3,-262.04C1377.26,-260.14 1366.84,-258.35 1357,-257 1310.63,-250.62 1296.91,-262.17 1252,-249 1232.47,-243.27 1212.38,-232.89 1196.23,-223.24"/>
<polygon fill="black" stroke="black" points="1198.37,-220.44 1188.02,-218.17 1194.69,-226.4 1198.37,-220.44"/>
</g>
<!-- account::create_guid -->
<g id="node43" class="node">
<title>account::create_guid</title>
<ellipse fill="none" stroke="black" cx="1451" cy="-200" rx="51.99" ry="18"/>
<text text-anchor="middle" x="1451" y="-196.3" font-family="Times,serif" font-size="14.00">create_guid</text>
</g>
<!-- account::new_event_handle&#45;&gt;account::create_guid -->
<g id="edge67" class="edge">
<title>account::new_event_handle&#45;&gt;account::create_guid</title>
<path fill="none" stroke="black" d="M1444.13,-256.7C1445.12,-248.67 1446.33,-238.9 1447.45,-229.8"/>
<polygon fill="black" stroke="black" points="1450.92,-230.28 1448.67,-219.93 1443.97,-229.43 1450.92,-230.28"/>
</g>
<!-- vector::singleton -->
<g id="node44" class="node">
<title>vector::singleton</title>
<ellipse fill="none" stroke="black" cx="111" cy="-34" rx="42.79" ry="18"/>
<text text-anchor="middle" x="111" y="-30.3" font-family="Times,serif" font-size="14.00">singleton</text>
</g>
<!-- option::some&#45;&gt;vector::singleton -->
<g id="edge68" class="edge">
<title>option::some&#45;&gt;vector::singleton</title>
<path fill="none" stroke="black" d="M118.09,-98.82C116.95,-88.58 115.48,-75.33 114.17,-63.55"/>
<polygon fill="black" stroke="black" points="117.69,-63.49 113.1,-53.94 110.73,-64.26 117.69,-63.49"/>
</g>
<!-- account::create_guid&#45;&gt;signer::address_of -->
<g id="edge69" class="edge">
<title>account::create_guid&#45;&gt;signer::address_of</title>
<path fill="none" stroke="black" d="M1476.02,-183.76C1496.86,-171.07 1526.76,-152.86 1549.81,-138.82"/>
<polygon fill="black" stroke="black" points="1551.53,-141.87 1558.25,-133.68 1547.89,-135.89 1551.53,-141.87"/>
</g>
<!-- guid::create -->
<g id="node45" class="node">
<title>guid::create</title>
<ellipse fill="none" stroke="black" cx="1451" cy="-117" rx="31.7" ry="18"/>
<text text-anchor="middle" x="1451" y="-113.3" font-family="Times,serif" font-size="14.00">create</text>
</g>
<!-- account::create_guid&#45;&gt;guid::create -->
<g id="edge70" class="edge">
<title>account::create_guid&#45;&gt;guid::create</title>
<path fill="none" stroke="black" d="M1451,-181.82C1451,-171.69 1451,-158.6 1451,-146.92"/>
<polygon fill="black" stroke="black" points="1454.5,-146.95 1451,-136.95 1447.5,-146.95 1454.5,-146.95"/>
</g>
</g>
</svg>
