<?xml version="1.0" encoding="UTF-8" standalone="no"?>
<!DOCTYPE svg PUBLIC "-//W3C//DTD SVG 1.1//EN"
 "http://www.w3.org/Graphics/SVG/1.1/DTD/svg11.dtd">
<!-- Generated by graphviz version 7.0.4 (20221203.1631)
 -->
<!-- Title: G Pages: 1 -->
<svg width="229pt" height="116pt"
 viewBox="0.00 0.00 228.79 116.00" xmlns="http://www.w3.org/2000/svg" xmlns:xlink="http://www.w3.org/1999/xlink">
<g id="graph0" class="graph" transform="scale(1 1) rotate(0) translate(4 112)">
<title>G</title>
<polygon fill="white" stroke="none" points="-4,4 -4,-112 224.79,-112 224.79,4 -4,4"/>
<!-- destroy_collection_data -->
<g id="node1" class="node">
<title>destroy_collection_data</title>
<ellipse fill="none" stroke="black" cx="94.89" cy="-18" rx="94.78" ry="18"/>
<text text-anchor="middle" x="94.89" y="-14.3" font-family="Times,serif" font-size="14.00">destroy_collection_data</text>
</g>
<!-- burn -->
<g id="node2" class="node">
<title>burn</title>
<ellipse fill="none" stroke="black" cx="37.89" cy="-90" rx="27" ry="18"/>
<text text-anchor="middle" x="37.89" y="-86.3" font-family="Times,serif" font-size="14.00">burn</text>
</g>
<!-- burn&#45;&gt;destroy_collection_data -->
<g id="edge1" class="edge">
<title>burn&#45;&gt;destroy_collection_data</title>
<path fill="none" stroke="black" d="M50.26,-73.81C57.11,-65.4 65.81,-54.72 73.71,-45.02"/>
<polygon fill="black" stroke="black" points="76.39,-47.26 79.99,-37.3 70.96,-42.84 76.39,-47.26"/>
</g>
<!-- burn_by_creator -->
<g id="node3" class="node">
<title>burn_by_creator</title>
<ellipse fill="none" stroke="black" cx="151.89" cy="-90" rx="68.79" ry="18"/>
<text text-anchor="middle" x="151.89" y="-86.3" font-family="Times,serif" font-size="14.00">burn_by_creator</text>
</g>
<!-- burn_by_creator&#45;&gt;destroy_collection_data -->
<g id="edge2" class="edge">
<title>burn_by_creator&#45;&gt;destroy_collection_data</title>
<path fill="none" stroke="black" d="M138.09,-72.05C131.47,-63.92 123.39,-54 116.02,-44.94"/>
<polygon fill="black" stroke="black" points="118.94,-42.99 109.91,-37.45 113.51,-47.41 118.94,-42.99"/>
</g>
</g>
</svg>
