<?xml version="1.0" encoding="UTF-8" standalone="no"?>
<!DOCTYPE svg PUBLIC "-//W3C//DTD SVG 1.1//EN"
 "http://www.w3.org/Graphics/SVG/1.1/DTD/svg11.dtd">
<!-- Generated by graphviz version 7.0.4 (20221203.1631)
 -->
<!-- Title: G Pages: 1 -->
<svg width="1466pt" height="534pt"
 viewBox="0.00 0.00 1466.02 534.00" xmlns="http://www.w3.org/2000/svg" xmlns:xlink="http://www.w3.org/1999/xlink">
<g id="graph0" class="graph" transform="scale(1 1) rotate(0) translate(4 530)">
<title>G</title>
<polygon fill="white" stroke="none" points="-4,4 -4,-530 1462.02,-530 1462.02,4 -4,4"/>
<g id="clust1" class="cluster">
<title>cluster_string</title>
<polygon fill="none" stroke="black" points="1096,-332 1096,-407 1176,-407 1176,-332 1096,-332"/>
<text text-anchor="middle" x="1136" y="-391.8" font-family="Times,serif" font-size="14.00">string</text>
</g>
<g id="clust2" class="cluster">
<title>cluster_signer</title>
<polygon fill="none" stroke="black" points="8,-332 8,-482 158,-482 158,-332 8,-332"/>
<text text-anchor="middle" x="83" y="-466.8" font-family="Times,serif" font-size="14.00">signer</text>
</g>
<g id="clust3" class="cluster">
<title>cluster_error</title>
<polygon fill="none" stroke="black" points="993,-91 993,-249 1407,-249 1407,-91 993,-91"/>
<text text-anchor="middle" x="1200" y="-233.8" font-family="Times,serif" font-size="14.00">error</text>
</g>
<g id="clust4" class="cluster">
<title>cluster_table</title>
<polygon fill="none" stroke="black" points="166,-332 166,-482 560,-482 560,-332 166,-332"/>
<text text-anchor="middle" x="363" y="-466.8" font-family="Times,serif" font-size="14.00">table</text>
</g>
<g id="clust5" class="cluster">
<title>cluster_event</title>
<polygon fill="none" stroke="black" points="568,-332 568,-482 754,-482 754,-332 568,-332"/>
<text text-anchor="middle" x="661" y="-466.8" font-family="Times,serif" font-size="14.00">event</text>
</g>
<g id="clust6" class="cluster">
<title>cluster_property_map</title>
<polygon fill="none" stroke="black" points="896,-332 896,-482 989,-482 989,-332 896,-332"/>
<text text-anchor="middle" x="942.5" y="-466.8" font-family="Times,serif" font-size="14.00">property_map</text>
</g>
<g id="clust7" class="cluster">
<title>cluster_bcs</title>
<polygon fill="none" stroke="black" points="762,-332 762,-407 858,-407 858,-332 762,-332"/>
<text text-anchor="middle" x="810" y="-391.8" font-family="Times,serif" font-size="14.00">bcs</text>
</g>
<g id="clust8" class="cluster">
<title>cluster_simple_map</title>
<polygon fill="none" stroke="black" points="827,-174 827,-324 979,-324 979,-174 827,-174"/>
<text text-anchor="middle" x="903" y="-308.8" font-family="Times,serif" font-size="14.00">simple_map</text>
</g>
<g id="clust9" class="cluster">
<title>cluster_account</title>
<polygon fill="none" stroke="black" points="1313,-332 1313,-407 1413,-407 1413,-332 1313,-332"/>
<text text-anchor="middle" x="1363" y="-391.8" font-family="Times,serif" font-size="14.00">account</text>
</g>
<g id="clust10" class="cluster">
<title>cluster_option</title>
<polygon fill="none" stroke="black" points="741,-91 741,-166 985,-166 985,-91 741,-91"/>
<text text-anchor="middle" x="863" y="-150.8" font-family="Times,serif" font-size="14.00">option</text>
</g>
<g id="clust11" class="cluster">
<title>cluster_vector</title>
<polygon fill="none" stroke="black" points="793,-8 793,-83 1000,-83 1000,-8 793,-8"/>
<text text-anchor="middle" x="896.5" y="-67.8" font-family="Times,serif" font-size="14.00">vector</text>
</g>
<!-- create_tokendata -->
<g id="node1" class="node">
<title>create_tokendata</title>
<ellipse fill="none" stroke="black" cx="980" cy="-508" rx="70.39" ry="18"/>
<text text-anchor="middle" x="980" y="-504.3" font-family="Times,serif" font-size="14.00">create_tokendata</text>
</g>
<!-- string::length -->
<g id="node2" class="node">
<title>string::length</title>
<ellipse fill="none" stroke="black" cx="1136" cy="-358" rx="32.49" ry="18"/>
<text text-anchor="middle" x="1136" y="-354.3" font-family="Times,serif" font-size="14.00">length</text>
</g>
<!-- create_tokendata&#45;&gt;string::length -->
<g id="edge1" class="edge">
<title>create_tokendata&#45;&gt;string::length</title>
<path fill="none" stroke="black" d="M1033.84,-496.02C1043.15,-492.54 1052.3,-487.98 1060,-482 1064.42,-478.57 1099.59,-420.19 1120.5,-385.11"/>
<polygon fill="black" stroke="black" points="1123.35,-387.16 1125.46,-376.78 1117.34,-383.58 1123.35,-387.16"/>
</g>
<!-- signer::address_of -->
<g id="node3" class="node">
<title>signer::address_of</title>
<ellipse fill="none" stroke="black" cx="92" cy="-433" rx="48.99" ry="18"/>
<text text-anchor="middle" x="92" y="-429.3" font-family="Times,serif" font-size="14.00">address_of</text>
</g>
<!-- create_tokendata&#45;&gt;signer::address_of -->
<g id="edge2" class="edge">
<title>create_tokendata&#45;&gt;signer::address_of</title>
<path fill="none" stroke="black" d="M909.25,-507.11C723.58,-507.09 231.89,-504.84 162,-482 146.15,-476.82 130.64,-466.84 118.26,-457.32"/>
<polygon fill="black" stroke="black" points="120.61,-454.72 110.63,-451.16 116.21,-460.17 120.61,-454.72"/>
</g>
<!-- error::already_exists -->
<g id="node4" class="node">
<title>error::already_exists</title>
<ellipse fill="none" stroke="black" cx="1338" cy="-200" rx="61.19" ry="18"/>
<text text-anchor="middle" x="1338" y="-196.3" font-family="Times,serif" font-size="14.00">already_exists</text>
</g>
<!-- create_tokendata&#45;&gt;error::already_exists -->
<g id="edge3" class="edge">
<title>create_tokendata&#45;&gt;error::already_exists</title>
<path fill="none" stroke="black" d="M1050.28,-505.62C1174.27,-502.85 1420.07,-495.66 1433,-482 1503.1,-407.92 1407.89,-280.29 1361.18,-226.3"/>
<polygon fill="black" stroke="black" points="1363.84,-224.02 1354.6,-218.83 1358.59,-228.64 1363.84,-224.02"/>
</g>
<!-- error::invalid_argument -->
<g id="node5" class="node">
<title>error::invalid_argument</title>
<ellipse fill="none" stroke="black" cx="1074" cy="-200" rx="73.39" ry="18"/>
<text text-anchor="middle" x="1074" y="-196.3" font-family="Times,serif" font-size="14.00">invalid_argument</text>
</g>
<!-- create_tokendata&#45;&gt;error::invalid_argument -->
<g id="edge4" class="edge">
<title>create_tokendata&#45;&gt;error::invalid_argument</title>
<path fill="none" stroke="black" d="M989.54,-489.72C990.79,-487.17 991.98,-484.54 993,-482 1028.84,-392.3 1056.14,-280.73 1067.81,-229.34"/>
<polygon fill="black" stroke="black" points="1071.2,-230.18 1069.98,-219.66 1064.37,-228.65 1071.2,-230.18"/>
</g>
<!-- error::not_found -->
<g id="node6" class="node">
<title>error::not_found</title>
<ellipse fill="none" stroke="black" cx="1212" cy="-200" rx="46.59" ry="18"/>
<text text-anchor="middle" x="1212" y="-196.3" font-family="Times,serif" font-size="14.00">not_found</text>
</g>
<!-- create_tokendata&#45;&gt;error::not_found -->
<g id="edge5" class="edge">
<title>create_tokendata&#45;&gt;error::not_found</title>
<path fill="none" stroke="black" d="M1007.98,-491.13C1011.61,-488.37 1015.07,-485.31 1018,-482 1067.22,-426.29 1050.03,-393.36 1092,-332 1120.01,-291.06 1160.18,-249.86 1186.18,-224.88"/>
<polygon fill="black" stroke="black" points="1188.48,-227.53 1193.32,-218.1 1183.66,-222.45 1188.48,-227.53"/>
</g>
<!-- table::contains -->
<g id="node7" class="node">
<title>table::contains</title>
<ellipse fill="none" stroke="black" cx="503" cy="-433" rx="40.09" ry="18"/>
<text text-anchor="middle" x="503" y="-429.3" font-family="Times,serif" font-size="14.00">contains</text>
</g>
<!-- create_tokendata&#45;&gt;table::contains -->
<g id="edge6" class="edge">
<title>create_tokendata&#45;&gt;table::contains</title>
<path fill="none" stroke="black" d="M909.14,-507.81C807.31,-508.13 625.12,-505.24 564,-482 550.03,-476.69 536.71,-466.96 526.1,-457.65"/>
<polygon fill="black" stroke="black" points="528.7,-455.29 518.99,-451.06 523.94,-460.42 528.7,-455.29"/>
</g>
<!-- table::borrow_mut -->
<g id="node8" class="node">
<title>table::borrow_mut</title>
<ellipse fill="none" stroke="black" cx="368" cy="-433" rx="54.69" ry="18"/>
<text text-anchor="middle" x="368" y="-429.3" font-family="Times,serif" font-size="14.00">borrow_mut</text>
</g>
<!-- create_tokendata&#45;&gt;table::borrow_mut -->
<g id="edge7" class="edge">
<title>create_tokendata&#45;&gt;table::borrow_mut</title>
<path fill="none" stroke="black" d="M909.31,-507.63C786.15,-508.07 537.4,-505.83 454,-482 434.53,-476.44 414.67,-465.75 398.95,-455.87"/>
<polygon fill="black" stroke="black" points="401.29,-453.22 391,-450.7 397.48,-459.09 401.29,-453.22"/>
</g>
<!-- table::add -->
<g id="node9" class="node">
<title>table::add</title>
<ellipse fill="none" stroke="black" cx="241" cy="-433" rx="27" ry="18"/>
<text text-anchor="middle" x="241" y="-429.3" font-family="Times,serif" font-size="14.00">add</text>
</g>
<!-- create_tokendata&#45;&gt;table::add -->
<g id="edge8" class="edge">
<title>create_tokendata&#45;&gt;table::add</title>
<path fill="none" stroke="black" d="M909.31,-506.8C747.48,-505.99 359.76,-501.98 304,-482 288.88,-476.58 274.45,-466.12 263.22,-456.34"/>
<polygon fill="black" stroke="black" points="265.8,-453.96 256.06,-449.78 261.07,-459.12 265.8,-453.96"/>
</g>
<!-- event::emit_event -->
<g id="node10" class="node">
<title>event::emit_event</title>
<ellipse fill="none" stroke="black" cx="696" cy="-433" rx="50.09" ry="18"/>
<text text-anchor="middle" x="696" y="-429.3" font-family="Times,serif" font-size="14.00">emit_event</text>
</g>
<!-- create_tokendata&#45;&gt;event::emit_event -->
<g id="edge9" class="edge">
<title>create_tokendata&#45;&gt;event::emit_event</title>
<path fill="none" stroke="black" d="M931.5,-494.53C880.14,-481.33 799.39,-460.58 747.07,-447.13"/>
<polygon fill="black" stroke="black" points="748.06,-443.77 737.5,-444.67 746.32,-450.55 748.06,-443.77"/>
</g>
<!-- property_map::new -->
<g id="node11" class="node">
<title>property_map::new</title>
<ellipse fill="none" stroke="black" cx="953" cy="-433" rx="27" ry="18"/>
<text text-anchor="middle" x="953" y="-429.3" font-family="Times,serif" font-size="14.00">new</text>
</g>
<!-- create_tokendata&#45;&gt;property_map::new -->
<g id="edge10" class="edge">
<title>create_tokendata&#45;&gt;property_map::new</title>
<path fill="none" stroke="black" d="M973.6,-489.7C970.49,-481.28 966.66,-470.94 963.16,-461.48"/>
<polygon fill="black" stroke="black" points="966.54,-460.51 959.78,-452.34 959.97,-462.94 966.54,-460.51"/>
</g>
<!-- create_royalty -->
<g id="node12" class="node">
<title>create_royalty</title>
<ellipse fill="none" stroke="black" cx="1363" cy="-433" rx="61.19" ry="18"/>
<text text-anchor="middle" x="1363" y="-429.3" font-family="Times,serif" font-size="14.00">create_royalty</text>
</g>
<!-- create_tokendata&#45;&gt;create_royalty -->
<g id="edge11" class="edge">
<title>create_tokendata&#45;&gt;create_royalty</title>
<path fill="none" stroke="black" d="M1050.23,-505.59C1128.53,-503.28 1249.84,-497.29 1293,-482 1308.39,-476.55 1323.56,-466.83 1335.83,-457.56"/>
<polygon fill="black" stroke="black" points="1337.73,-460.51 1343.41,-451.57 1333.39,-455.02 1337.73,-460.51"/>
</g>
<!-- create_token_data_id -->
<g id="node13" class="node">
<title>create_token_data_id</title>
<ellipse fill="none" stroke="black" cx="1198" cy="-433" rx="85.59" ry="18"/>
<text text-anchor="middle" x="1198" y="-429.3" font-family="Times,serif" font-size="14.00">create_token_data_id</text>
</g>
<!-- create_tokendata&#45;&gt;create_token_data_id -->
<g id="edge12" class="edge">
<title>create_tokendata&#45;&gt;create_token_data_id</title>
<path fill="none" stroke="black" d="M1038.36,-497.5C1057.62,-493.61 1078.97,-488.48 1098,-482 1118.73,-474.94 1140.76,-464.69 1158.86,-455.47"/>
<polygon fill="black" stroke="black" points="1160.42,-458.6 1167.68,-450.89 1157.19,-452.39 1160.42,-458.6"/>
</g>
<!-- signer::borrow_address -->
<g id="node14" class="node">
<title>signer::borrow_address</title>
<ellipse fill="none" stroke="black" cx="83" cy="-358" rx="66.89" ry="18"/>
<text text-anchor="middle" x="83" y="-354.3" font-family="Times,serif" font-size="14.00">borrow_address</text>
</g>
<!-- signer::address_of&#45;&gt;signer::borrow_address -->
<g id="edge13" class="edge">
<title>signer::address_of&#45;&gt;signer::borrow_address</title>
<path fill="none" stroke="black" d="M89.87,-414.7C88.88,-406.67 87.67,-396.9 86.55,-387.8"/>
<polygon fill="black" stroke="black" points="90.03,-387.43 85.33,-377.93 83.08,-388.28 90.03,-387.43"/>
</g>
<!-- error::canonical -->
<g id="node15" class="node">
<title>error::canonical</title>
<ellipse fill="none" stroke="black" cx="1212" cy="-117" rx="44.39" ry="18"/>
<text text-anchor="middle" x="1212" y="-113.3" font-family="Times,serif" font-size="14.00">canonical</text>
</g>
<!-- error::already_exists&#45;&gt;error::canonical -->
<g id="edge14" class="edge">
<title>error::already_exists&#45;&gt;error::canonical</title>
<path fill="none" stroke="black" d="M1313.41,-183.19C1293.66,-170.49 1265.76,-152.56 1244.23,-138.72"/>
<polygon fill="black" stroke="black" points="1246.41,-135.96 1236.11,-133.5 1242.63,-141.85 1246.41,-135.96"/>
</g>
<!-- error::invalid_argument&#45;&gt;error::canonical -->
<g id="edge15" class="edge">
<title>error::invalid_argument&#45;&gt;error::canonical</title>
<path fill="none" stroke="black" d="M1101.26,-183C1123.26,-170.09 1154.31,-151.86 1177.94,-137.99"/>
<polygon fill="black" stroke="black" points="1179.41,-141.19 1186.26,-133.11 1175.87,-135.15 1179.41,-141.19"/>
</g>
<!-- error::not_found&#45;&gt;error::canonical -->
<g id="edge16" class="edge">
<title>error::not_found&#45;&gt;error::canonical</title>
<path fill="none" stroke="black" d="M1212,-181.82C1212,-171.69 1212,-158.6 1212,-146.92"/>
<polygon fill="black" stroke="black" points="1215.5,-146.95 1212,-136.95 1208.5,-146.95 1215.5,-146.95"/>
</g>
<!-- table::contains_box -->
<g id="node16" class="node">
<title>table::contains_box</title>
<ellipse fill="none" stroke="black" cx="494" cy="-358" rx="57.69" ry="18"/>
<text text-anchor="middle" x="494" y="-354.3" font-family="Times,serif" font-size="14.00">contains_box</text>
</g>
<!-- table::contains&#45;&gt;table::contains_box -->
<g id="edge17" class="edge">
<title>table::contains&#45;&gt;table::contains_box</title>
<path fill="none" stroke="black" d="M500.87,-414.7C499.88,-406.67 498.67,-396.9 497.55,-387.8"/>
<polygon fill="black" stroke="black" points="501.03,-387.43 496.33,-377.93 494.08,-388.28 501.03,-387.43"/>
</g>
<!-- table::borrow_box_mut -->
<g id="node17" class="node">
<title>table::borrow_box_mut</title>
<ellipse fill="none" stroke="black" cx="346" cy="-358" rx="72.29" ry="18"/>
<text text-anchor="middle" x="346" y="-354.3" font-family="Times,serif" font-size="14.00">borrow_box_mut</text>
</g>
<!-- table::borrow_mut&#45;&gt;table::borrow_box_mut -->
<g id="edge18" class="edge">
<title>table::borrow_mut&#45;&gt;table::borrow_box_mut</title>
<path fill="none" stroke="black" d="M362.79,-414.7C360.31,-406.49 357.29,-396.46 354.5,-387.19"/>
<polygon fill="black" stroke="black" points="357.93,-386.44 351.69,-377.88 351.22,-388.46 357.93,-386.44"/>
</g>
<!-- table::add_box -->
<g id="node18" class="node">
<title>table::add_box</title>
<ellipse fill="none" stroke="black" cx="215" cy="-358" rx="40.89" ry="18"/>
<text text-anchor="middle" x="215" y="-354.3" font-family="Times,serif" font-size="14.00">add_box</text>
</g>
<!-- table::add&#45;&gt;table::add_box -->
<g id="edge19" class="edge">
<title>table::add&#45;&gt;table::add_box</title>
<path fill="none" stroke="black" d="M234.97,-415.07C231.97,-406.65 228.27,-396.27 224.88,-386.73"/>
<polygon fill="black" stroke="black" points="228.25,-385.76 221.6,-377.52 221.65,-388.11 228.25,-385.76"/>
</g>
<!-- bcs::to_bytes -->
<g id="node19" class="node">
<title>bcs::to_bytes</title>
<ellipse fill="none" stroke="black" cx="810" cy="-358" rx="40.09" ry="18"/>
<text text-anchor="middle" x="810" y="-354.3" font-family="Times,serif" font-size="14.00">to_bytes</text>
</g>
<!-- event::emit_event&#45;&gt;bcs::to_bytes -->
<g id="edge20" class="edge">
<title>event::emit_event&#45;&gt;bcs::to_bytes</title>
<path fill="none" stroke="black" d="M731.85,-420.11C740.71,-416.48 749.96,-412.09 758,-407 768.59,-400.3 778.99,-391.32 787.68,-382.94"/>
<polygon fill="black" stroke="black" points="790.08,-385.48 794.67,-375.93 785.13,-380.54 790.08,-385.48"/>
</g>
<!-- event::write_to_event_store -->
<g id="node20" class="node">
<title>event::write_to_event_store</title>
<ellipse fill="none" stroke="black" cx="661" cy="-358" rx="85.29" ry="18"/>
<text text-anchor="middle" x="661" y="-354.3" font-family="Times,serif" font-size="14.00">write_to_event_store</text>
</g>
<!-- event::emit_event&#45;&gt;event::write_to_event_store -->
<g id="edge21" class="edge">
<title>event::emit_event&#45;&gt;event::write_to_event_store</title>
<path fill="none" stroke="black" d="M687.88,-415.07C683.83,-406.62 678.83,-396.19 674.25,-386.63"/>
<polygon fill="black" stroke="black" points="677.45,-385.22 669.97,-377.71 671.14,-388.24 677.45,-385.22"/>
</g>
<!-- property_map::new&#45;&gt;string::length -->
<g id="edge22" class="edge">
<title>property_map::new&#45;&gt;string::length</title>
<path fill="none" stroke="black" d="M975.81,-422.9C1006.94,-410.48 1063.07,-388.09 1099.94,-373.39"/>
<polygon fill="black" stroke="black" points="1100.85,-376.79 1108.84,-369.83 1098.26,-370.29 1100.85,-376.79"/>
</g>
<!-- property_map::new&#45;&gt;error::invalid_argument -->
<g id="edge23" class="edge">
<title>property_map::new&#45;&gt;error::invalid_argument</title>
<path fill="none" stroke="black" d="M970.58,-419.06C974.45,-415.51 978.23,-411.42 981,-407 1017.87,-348.26 990.51,-317.73 1024,-257 1030.2,-245.76 1039.03,-234.87 1047.55,-225.74"/>
<polygon fill="black" stroke="black" points="1050,-228.25 1054.48,-218.64 1044.99,-223.36 1050,-228.25"/>
</g>
<!-- simple_map::add -->
<g id="node21" class="node">
<title>simple_map::add</title>
<ellipse fill="none" stroke="black" cx="862" cy="-275" rx="27" ry="18"/>
<text text-anchor="middle" x="862" y="-271.3" font-family="Times,serif" font-size="14.00">add</text>
</g>
<!-- property_map::new&#45;&gt;simple_map::add -->
<g id="edge24" class="edge">
<title>property_map::new&#45;&gt;simple_map::add</title>
<path fill="none" stroke="black" d="M927.69,-425.98C916.84,-422.2 904.87,-416.24 897,-407 872.41,-378.16 864.91,-333.78 862.72,-304.82"/>
<polygon fill="black" stroke="black" points="866.22,-304.73 862.17,-294.95 859.24,-305.13 866.22,-304.73"/>
</g>
<!-- property_map::empty -->
<g id="node22" class="node">
<title>property_map::empty</title>
<ellipse fill="none" stroke="black" cx="939" cy="-358" rx="33.29" ry="18"/>
<text text-anchor="middle" x="939" y="-354.3" font-family="Times,serif" font-size="14.00">empty</text>
</g>
<!-- property_map::new&#45;&gt;property_map::empty -->
<g id="edge25" class="edge">
<title>property_map::new&#45;&gt;property_map::empty</title>
<path fill="none" stroke="black" d="M949.68,-414.7C948.11,-406.52 946.2,-396.54 944.43,-387.29"/>
<polygon fill="black" stroke="black" points="947.9,-386.82 942.58,-377.66 941.03,-388.14 947.9,-386.82"/>
</g>
<!-- create_royalty&#45;&gt;error::invalid_argument -->
<g id="edge26" class="edge">
<title>create_royalty&#45;&gt;error::invalid_argument</title>
<path fill="none" stroke="black" d="M1327.64,-417.99C1321.19,-414.79 1314.7,-411.1 1309,-407 1234.46,-353.42 1238.53,-314.54 1167,-257 1157.43,-249.3 1133.49,-234.92 1112.3,-222.66"/>
<polygon fill="black" stroke="black" points="1114.23,-219.74 1103.82,-217.79 1110.74,-225.81 1114.23,-219.74"/>
</g>
<!-- account::exists_at -->
<g id="node23" class="node">
<title>account::exists_at</title>
<ellipse fill="none" stroke="black" cx="1363" cy="-358" rx="41.69" ry="18"/>
<text text-anchor="middle" x="1363" y="-354.3" font-family="Times,serif" font-size="14.00">exists_at</text>
</g>
<!-- create_royalty&#45;&gt;account::exists_at -->
<g id="edge27" class="edge">
<title>create_royalty&#45;&gt;account::exists_at</title>
<path fill="none" stroke="black" d="M1363,-414.7C1363,-406.67 1363,-396.9 1363,-387.8"/>
<polygon fill="black" stroke="black" points="1366.5,-387.94 1363,-377.94 1359.5,-387.94 1366.5,-387.94"/>
</g>
<!-- create_token_data_id&#45;&gt;string::length -->
<g id="edge28" class="edge">
<title>create_token_data_id&#45;&gt;string::length</title>
<path fill="none" stroke="black" d="M1183.62,-415.07C1175.65,-405.69 1165.6,-393.86 1156.79,-383.48"/>
<polygon fill="black" stroke="black" points="1159.57,-381.35 1150.43,-375.99 1154.24,-385.88 1159.57,-381.35"/>
</g>
<!-- create_token_data_id&#45;&gt;error::invalid_argument -->
<g id="edge29" class="edge">
<title>create_token_data_id&#45;&gt;error::invalid_argument</title>
<path fill="none" stroke="black" d="M1197.47,-414.59C1196.28,-394.01 1192.41,-359.11 1180,-332 1160.83,-290.12 1125.15,-250.2 1100.52,-225.68"/>
<polygon fill="black" stroke="black" points="1102.99,-223.2 1093.39,-218.72 1098.1,-228.21 1102.99,-223.2"/>
</g>
<!-- simple_map::add&#45;&gt;error::invalid_argument -->
<g id="edge31" class="edge">
<title>simple_map::add&#45;&gt;error::invalid_argument</title>
<path fill="none" stroke="black" d="M882.47,-262.84C887.43,-260.56 892.8,-258.43 898,-257 934.6,-246.97 946.64,-259.84 983,-249 1002.85,-243.09 1023.38,-232.68 1039.91,-223.07"/>
<polygon fill="black" stroke="black" points="1041.57,-226.16 1048.34,-218.01 1037.97,-220.16 1041.57,-226.16"/>
</g>
<!-- option::is_none -->
<g id="node24" class="node">
<title>option::is_none</title>
<ellipse fill="none" stroke="black" cx="939" cy="-117" rx="38.19" ry="18"/>
<text text-anchor="middle" x="939" y="-113.3" font-family="Times,serif" font-size="14.00">is_none</text>
</g>
<!-- simple_map::add&#45;&gt;option::is_none -->
<g id="edge30" class="edge">
<title>simple_map::add&#45;&gt;option::is_none</title>
<path fill="none" stroke="black" d="M882.67,-263.06C888.29,-259.25 893.95,-254.52 898,-249 920.59,-218.25 930.96,-174.71 935.56,-146.42"/>
<polygon fill="black" stroke="black" points="938.98,-147.21 936.98,-136.8 932.06,-146.19 938.98,-147.21"/>
</g>
<!-- simple_map::find -->
<g id="node25" class="node">
<title>simple_map::find</title>
<ellipse fill="none" stroke="black" cx="862" cy="-200" rx="27" ry="18"/>
<text text-anchor="middle" x="862" y="-196.3" font-family="Times,serif" font-size="14.00">find</text>
</g>
<!-- simple_map::add&#45;&gt;simple_map::find -->
<g id="edge32" class="edge">
<title>simple_map::add&#45;&gt;simple_map::find</title>
<path fill="none" stroke="black" d="M862,-256.7C862,-248.67 862,-238.9 862,-229.8"/>
<polygon fill="black" stroke="black" points="865.5,-229.94 862,-219.94 858.5,-229.94 865.5,-229.94"/>
</g>
<!-- simple_map::create -->
<g id="node26" class="node">
<title>simple_map::create</title>
<ellipse fill="none" stroke="black" cx="939" cy="-275" rx="31.7" ry="18"/>
<text text-anchor="middle" x="939" y="-271.3" font-family="Times,serif" font-size="14.00">create</text>
</g>
<!-- property_map::empty&#45;&gt;simple_map::create -->
<g id="edge33" class="edge">
<title>property_map::empty&#45;&gt;simple_map::create</title>
<path fill="none" stroke="black" d="M939,-339.82C939,-329.69 939,-316.6 939,-304.92"/>
<polygon fill="black" stroke="black" points="942.5,-304.95 939,-294.95 935.5,-304.95 942.5,-304.95"/>
</g>
<!-- vector::is_empty -->
<g id="node27" class="node">
<title>vector::is_empty</title>
<ellipse fill="none" stroke="black" cx="948" cy="-34" rx="43.59" ry="18"/>
<text text-anchor="middle" x="948" y="-30.3" font-family="Times,serif" font-size="14.00">is_empty</text>
</g>
<!-- option::is_none&#45;&gt;vector::is_empty -->
<g id="edge34" class="edge">
<title>option::is_none&#45;&gt;vector::is_empty</title>
<path fill="none" stroke="black" d="M940.91,-98.82C942.05,-88.58 943.52,-75.33 944.83,-63.55"/>
<polygon fill="black" stroke="black" points="948.27,-64.26 945.9,-53.94 941.31,-63.49 948.27,-64.26"/>
</g>
<!-- option::none -->
<g id="node28" class="node">
<title>option::none</title>
<ellipse fill="none" stroke="black" cx="777" cy="-117" rx="27.9" ry="18"/>
<text text-anchor="middle" x="777" y="-113.3" font-family="Times,serif" font-size="14.00">none</text>
</g>
<!-- simple_map::find&#45;&gt;option::none -->
<g id="edge35" class="edge">
<title>simple_map::find&#45;&gt;option::none</title>
<path fill="none" stroke="black" d="M842.28,-187.42C833.17,-181.6 822.52,-174.07 814,-166 806.91,-159.29 800.1,-151.13 794.29,-143.46"/>
<polygon fill="black" stroke="black" points="797.13,-141.41 788.42,-135.38 791.47,-145.53 797.13,-141.41"/>
</g>
<!-- option::some -->
<g id="node29" class="node">
<title>option::some</title>
<ellipse fill="none" stroke="black" cx="853" cy="-117" rx="29.8" ry="18"/>
<text text-anchor="middle" x="853" y="-113.3" font-family="Times,serif" font-size="14.00">some</text>
</g>
<!-- simple_map::find&#45;&gt;option::some -->
<g id="edge36" class="edge">
<title>simple_map::find&#45;&gt;option::some</title>
<path fill="none" stroke="black" d="M860.09,-181.82C858.95,-171.58 857.48,-158.33 856.17,-146.55"/>
<polygon fill="black" stroke="black" points="859.69,-146.49 855.1,-136.94 852.73,-147.26 859.69,-146.49"/>
</g>
<!-- vector::singleton -->
<g id="node30" class="node">
<title>vector::singleton</title>
<ellipse fill="none" stroke="black" cx="844" cy="-34" rx="42.79" ry="18"/>
<text text-anchor="middle" x="844" y="-30.3" font-family="Times,serif" font-size="14.00">singleton</text>
</g>
<!-- option::some&#45;&gt;vector::singleton -->
<g id="edge37" class="edge">
<title>option::some&#45;&gt;vector::singleton</title>
<path fill="none" stroke="black" d="M851.09,-98.82C849.95,-88.58 848.48,-75.33 847.17,-63.55"/>
<polygon fill="black" stroke="black" points="850.69,-63.49 846.1,-53.94 843.73,-64.26 850.69,-63.49"/>
</g>
</g>
</svg>
