<?xml version="1.0" encoding="UTF-8" standalone="no"?>
<!DOCTYPE svg PUBLIC "-//W3C//DTD SVG 1.1//EN"
 "http://www.w3.org/Graphics/SVG/1.1/DTD/svg11.dtd">
<!-- Generated by graphviz version 7.0.4 (20221203.1631)
 -->
<!-- Title: G Pages: 1 -->
<svg width="255pt" height="188pt"
 viewBox="0.00 0.00 254.98 188.00" xmlns="http://www.w3.org/2000/svg" xmlns:xlink="http://www.w3.org/1999/xlink">
<g id="graph0" class="graph" transform="scale(1 1) rotate(0) translate(4 184)">
<title>G</title>
<polygon fill="white" stroke="none" points="-4,4 -4,-184 250.98,-184 250.98,4 -4,4"/>
<!-- update_token_property_internal -->
<g id="node1" class="node">
<title>update_token_property_internal</title>
<ellipse fill="none" stroke="black" cx="123.49" cy="-18" rx="123.48" ry="18"/>
<text text-anchor="middle" x="123.49" y="-14.3" font-family="Times,serif" font-size="14.00">update_token_property_internal</text>
</g>
<!-- mutate_one_token -->
<g id="node2" class="node">
<title>mutate_one_token</title>
<ellipse fill="none" stroke="black" cx="123.49" cy="-90" rx="76.09" ry="18"/>
<text text-anchor="middle" x="123.49" y="-86.3" font-family="Times,serif" font-size="14.00">mutate_one_token</text>
</g>
<!-- mutate_one_token&#45;&gt;update_token_property_internal -->
<g id="edge1" class="edge">
<title>mutate_one_token&#45;&gt;update_token_property_internal</title>
<path fill="none" stroke="black" d="M123.49,-71.7C123.49,-64.41 123.49,-55.73 123.49,-47.54"/>
<polygon fill="black" stroke="black" points="126.99,-47.62 123.49,-37.62 119.99,-47.62 126.99,-47.62"/>
</g>
<!-- mutate_token_properties -->
<g id="node3" class="node">
<title>mutate_token_properties</title>
<ellipse fill="none" stroke="black" cx="123.49" cy="-162" rx="98.58" ry="18"/>
<text text-anchor="middle" x="123.49" y="-158.3" font-family="Times,serif" font-size="14.00">mutate_token_properties</text>
</g>
<!-- mutate_token_properties&#45;&gt;mutate_one_token -->
<g id="edge2" class="edge">
<title>mutate_token_properties&#45;&gt;mutate_one_token</title>
<path fill="none" stroke="black" d="M123.49,-143.7C123.49,-136.41 123.49,-127.73 123.49,-119.54"/>
<polygon fill="black" stroke="black" points="126.99,-119.62 123.49,-109.62 119.99,-119.62 126.99,-119.62"/>
</g>
</g>
</svg>
