<?xml version="1.0" encoding="UTF-8" standalone="no"?>
<!DOCTYPE svg PUBLIC "-//W3C//DTD SVG 1.1//EN"
 "http://www.w3.org/Graphics/SVG/1.1/DTD/svg11.dtd">
<!-- Generated by graphviz version 7.0.4 (20221203.1631)
 -->
<!-- Title: G Pages: 1 -->
<svg width="2286pt" height="761pt"
 viewBox="0.00 0.00 2285.89 761.00" xmlns="http://www.w3.org/2000/svg" xmlns:xlink="http://www.w3.org/1999/xlink">
<g id="graph0" class="graph" transform="scale(1 1) rotate(0) translate(4 757)">
<title>G</title>
<polygon fill="white" stroke="none" points="-4,4 -4,-757 2281.89,-757 2281.89,4 -4,4"/>
<g id="clust1" class="cluster">
<title>cluster_string</title>
<polygon fill="none" stroke="black" points="240,-404 240,-551 418,-551 418,-404 240,-404"/>
<text text-anchor="middle" x="329" y="-535.8" font-family="Times,serif" font-size="14.00">string</text>
</g>
<g id="clust2" class="cluster">
<title>cluster_signer</title>
<polygon fill="none" stroke="black" points="1754,-559 1754,-709 1904,-709 1904,-559 1754,-559"/>
<text text-anchor="middle" x="1829" y="-693.8" font-family="Times,serif" font-size="14.00">signer</text>
</g>
<g id="clust3" class="cluster">
<title>cluster_error</title>
<polygon fill="none" stroke="black" points="8,-163 8,-321 584,-321 584,-163 8,-163"/>
<text text-anchor="middle" x="296" y="-305.8" font-family="Times,serif" font-size="14.00">error</text>
</g>
<g id="clust4" class="cluster">
<title>cluster_table</title>
<polygon fill="none" stroke="black" points="900,-404 900,-551 1448,-551 1448,-404 900,-404"/>
<text text-anchor="middle" x="1174" y="-535.8" font-family="Times,serif" font-size="14.00">table</text>
</g>
<g id="clust5" class="cluster">
<title>cluster_event</title>
<polygon fill="none" stroke="black" points="1560,-476 1560,-634 1746,-634 1746,-476 1560,-476"/>
<text text-anchor="middle" x="1653" y="-618.8" font-family="Times,serif" font-size="14.00">event</text>
</g>
<g id="clust6" class="cluster">
<title>cluster_property_map</title>
<polygon fill="none" stroke="black" points="630,-404 630,-634 822,-634 822,-404 630,-404"/>
<text text-anchor="middle" x="726" y="-618.8" font-family="Times,serif" font-size="14.00">property_map</text>
</g>
<g id="clust7" class="cluster">
<title>cluster_bcs</title>
<polygon fill="none" stroke="black" points="1456,-476 1456,-551 1552,-551 1552,-476 1456,-476"/>
<text text-anchor="middle" x="1504" y="-535.8" font-family="Times,serif" font-size="14.00">bcs</text>
</g>
<g id="clust8" class="cluster">
<title>cluster_simple_map</title>
<polygon fill="none" stroke="black" points="592,-246 592,-396 895,-396 895,-246 592,-246"/>
<text text-anchor="middle" x="743.5" y="-380.8" font-family="Times,serif" font-size="14.00">simple_map</text>
</g>
<g id="clust9" class="cluster">
<title>cluster_from_bcs</title>
<polygon fill="none" stroke="black" points="496,-404 496,-551 614,-551 614,-404 496,-404"/>
<text text-anchor="middle" x="555" y="-535.8" font-family="Times,serif" font-size="14.00">from_bcs</text>
</g>
<g id="clust10" class="cluster">
<title>cluster_option</title>
<polygon fill="none" stroke="black" points="592,-91 592,-238 828,-238 828,-91 592,-91"/>
<text text-anchor="middle" x="710" y="-222.8" font-family="Times,serif" font-size="14.00">option</text>
</g>
<g id="clust11" class="cluster">
<title>cluster_vector</title>
<polygon fill="none" stroke="black" points="596,-8 596,-83 803,-83 803,-8 596,-8"/>
<text text-anchor="middle" x="699.5" y="-67.8" font-family="Times,serif" font-size="14.00">vector</text>
</g>
<!-- burn_by_creator -->
<g id="node1" class="node">
<title>burn_by_creator</title>
<ellipse fill="none" stroke="black" cx="988" cy="-735" rx="68.79" ry="18"/>
<text text-anchor="middle" x="988" y="-731.3" font-family="Times,serif" font-size="14.00">burn_by_creator</text>
</g>
<!-- string::utf8 -->
<g id="node2" class="node">
<title>string::utf8</title>
<ellipse fill="none" stroke="black" cx="383" cy="-502" rx="27" ry="18"/>
<text text-anchor="middle" x="383" y="-498.3" font-family="Times,serif" font-size="14.00">utf8</text>
</g>
<!-- burn_by_creator&#45;&gt;string::utf8 -->
<g id="edge1" class="edge">
<title>burn_by_creator&#45;&gt;string::utf8</title>
<path fill="none" stroke="black" d="M920.2,-731.24C856.5,-727.95 766.16,-721.28 733,-709 678.54,-688.84 672.41,-668.91 626,-634 583.57,-602.08 582,-579.45 533,-559 503.7,-546.77 492.05,-561.26 462,-551 443.06,-544.53 423.83,-532.98 409.09,-522.83"/>
<polygon fill="black" stroke="black" points="411.5,-520.25 401.32,-517.3 407.44,-525.95 411.5,-520.25"/>
</g>
<!-- signer::address_of -->
<g id="node3" class="node">
<title>signer::address_of</title>
<ellipse fill="none" stroke="black" cx="1820" cy="-660" rx="48.99" ry="18"/>
<text text-anchor="middle" x="1820" y="-656.3" font-family="Times,serif" font-size="14.00">address_of</text>
</g>
<!-- burn_by_creator&#45;&gt;signer::address_of -->
<g id="edge2" class="edge">
<title>burn_by_creator&#45;&gt;signer::address_of</title>
<path fill="none" stroke="black" d="M1056.49,-732.6C1152.95,-730.18 1334.23,-723.93 1488,-709 1586.02,-699.48 1699.4,-681.6 1765.09,-670.55"/>
<polygon fill="black" stroke="black" points="1765.62,-674.01 1774.89,-668.89 1764.45,-667.11 1765.62,-674.01"/>
</g>
<!-- error::invalid_argument -->
<g id="node4" class="node">
<title>error::invalid_argument</title>
<ellipse fill="none" stroke="black" cx="373" cy="-272" rx="73.39" ry="18"/>
<text text-anchor="middle" x="373" y="-268.3" font-family="Times,serif" font-size="14.00">invalid_argument</text>
</g>
<!-- burn_by_creator&#45;&gt;error::invalid_argument -->
<g id="edge3" class="edge">
<title>burn_by_creator&#45;&gt;error::invalid_argument</title>
<path fill="none" stroke="black" d="M918.95,-733.83C766.72,-733.08 411.68,-729.16 361,-709 283.73,-678.26 220,-669.16 220,-586 220,-586 220,-586 220,-501 220,-457.31 215.61,-442.64 236,-404 260.26,-358.04 306.72,-318.94 338.76,-295.72"/>
<polygon fill="black" stroke="black" points="340.42,-298.83 346.55,-290.19 336.37,-293.12 340.42,-298.83"/>
</g>
<!-- error::not_found -->
<g id="node5" class="node">
<title>error::not_found</title>
<ellipse fill="none" stroke="black" cx="235" cy="-272" rx="46.59" ry="18"/>
<text text-anchor="middle" x="235" y="-268.3" font-family="Times,serif" font-size="14.00">not_found</text>
</g>
<!-- burn_by_creator&#45;&gt;error::not_found -->
<g id="edge4" class="edge">
<title>burn_by_creator&#45;&gt;error::not_found</title>
<path fill="none" stroke="black" d="M919.13,-733.76C737.76,-732.84 258.88,-728.58 231,-709 182.85,-675.18 182,-644.84 182,-586 182,-586 182,-586 182,-429 182,-381.41 204.39,-329.78 220.06,-299.47"/>
<polygon fill="black" stroke="black" points="222.95,-301.49 224.57,-291.01 216.78,-298.19 222.95,-301.49"/>
</g>
<!-- error::permission_denied -->
<g id="node6" class="node">
<title>error::permission_denied</title>
<ellipse fill="none" stroke="black" cx="93" cy="-272" rx="77.19" ry="18"/>
<text text-anchor="middle" x="93" y="-268.3" font-family="Times,serif" font-size="14.00">permission_denied</text>
</g>
<!-- burn_by_creator&#45;&gt;error::permission_denied -->
<g id="edge5" class="edge">
<title>burn_by_creator&#45;&gt;error::permission_denied</title>
<path fill="none" stroke="black" d="M919.16,-733.78C729.58,-732.92 211.8,-728.77 181,-709 129.65,-676.04 120,-647.02 120,-586 120,-586 120,-586 120,-429 120,-383.67 108.79,-332 100.82,-300.97"/>
<polygon fill="black" stroke="black" points="104.28,-300.38 98.34,-291.61 97.52,-302.17 104.28,-300.38"/>
</g>
<!-- table::contains -->
<g id="node7" class="node">
<title>table::contains</title>
<ellipse fill="none" stroke="black" cx="1082" cy="-502" rx="40.09" ry="18"/>
<text text-anchor="middle" x="1082" y="-498.3" font-family="Times,serif" font-size="14.00">contains</text>
</g>
<!-- burn_by_creator&#45;&gt;table::contains -->
<g id="edge6" class="edge">
<title>burn_by_creator&#45;&gt;table::contains</title>
<path fill="none" stroke="black" d="M1052.98,-728.78C1079.87,-725.14 1106.72,-719.07 1115,-709 1157.63,-657.16 1121.26,-572.44 1097.92,-529.6"/>
<polygon fill="black" stroke="black" points="1101.02,-527.97 1093.06,-520.97 1094.92,-531.4 1101.02,-527.97"/>
</g>
<!-- table::borrow_mut -->
<g id="node8" class="node">
<title>table::borrow_mut</title>
<ellipse fill="none" stroke="black" cx="1294" cy="-502" rx="54.69" ry="18"/>
<text text-anchor="middle" x="1294" y="-498.3" font-family="Times,serif" font-size="14.00">borrow_mut</text>
</g>
<!-- burn_by_creator&#45;&gt;table::borrow_mut -->
<g id="edge7" class="edge">
<title>burn_by_creator&#45;&gt;table::borrow_mut</title>
<path fill="none" stroke="black" d="M1055.23,-730.79C1099.05,-727.57 1151.43,-721.24 1170,-709 1234.93,-666.21 1271.02,-576.61 1285.87,-530.99"/>
<polygon fill="black" stroke="black" points="1289.16,-532.17 1288.81,-521.58 1282.48,-530.08 1289.16,-532.17"/>
</g>
<!-- table::remove -->
<g id="node9" class="node">
<title>table::remove</title>
<ellipse fill="none" stroke="black" cx="1184" cy="-502" rx="37.89" ry="18"/>
<text text-anchor="middle" x="1184" y="-498.3" font-family="Times,serif" font-size="14.00">remove</text>
</g>
<!-- burn_by_creator&#45;&gt;table::remove -->
<g id="edge8" class="edge">
<title>burn_by_creator&#45;&gt;table::remove</title>
<path fill="none" stroke="black" d="M1054.61,-730.13C1088.82,-726.77 1125.83,-720.53 1138,-709 1186.99,-662.61 1189.31,-576.39 1186.74,-531.63"/>
<polygon fill="black" stroke="black" points="1190.26,-531.66 1186.06,-521.94 1183.27,-532.16 1190.26,-531.66"/>
</g>
<!-- event::emit_event -->
<g id="node10" class="node">
<title>event::emit_event</title>
<ellipse fill="none" stroke="black" cx="1618" cy="-585" rx="50.09" ry="18"/>
<text text-anchor="middle" x="1618" y="-581.3" font-family="Times,serif" font-size="14.00">emit_event</text>
</g>
<!-- burn_by_creator&#45;&gt;event::emit_event -->
<g id="edge9" class="edge">
<title>burn_by_creator&#45;&gt;event::emit_event</title>
<path fill="none" stroke="black" d="M1057.08,-734.29C1121.5,-733.22 1219.86,-728.09 1303,-709 1406.69,-685.19 1521.43,-633.45 1579.61,-605.26"/>
<polygon fill="black" stroke="black" points="1580.99,-608.48 1588.44,-600.94 1577.92,-602.19 1580.99,-608.48"/>
</g>
<!-- property_map::contains_key -->
<g id="node11" class="node">
<title>property_map::contains_key</title>
<ellipse fill="none" stroke="black" cx="757" cy="-430" rx="57.39" ry="18"/>
<text text-anchor="middle" x="757" y="-426.3" font-family="Times,serif" font-size="14.00">contains_key</text>
</g>
<!-- burn_by_creator&#45;&gt;property_map::contains_key -->
<g id="edge10" class="edge">
<title>burn_by_creator&#45;&gt;property_map::contains_key</title>
<path fill="none" stroke="black" d="M924.43,-727.84C897.66,-723.99 870.5,-718 861,-709 811.08,-661.69 847.36,-623.31 823,-559 809.14,-522.42 787.57,-482.75 772.89,-457.42"/>
<polygon fill="black" stroke="black" points="776.1,-455.97 768.02,-449.12 770.07,-459.52 776.1,-455.97"/>
</g>
<!-- property_map::read_bool -->
<g id="node12" class="node">
<title>property_map::read_bool</title>
<ellipse fill="none" stroke="black" cx="684" cy="-585" rx="46.29" ry="18"/>
<text text-anchor="middle" x="684" y="-581.3" font-family="Times,serif" font-size="14.00">read_bool</text>
</g>
<!-- burn_by_creator&#45;&gt;property_map::read_bool -->
<g id="edge11" class="edge">
<title>burn_by_creator&#45;&gt;property_map::read_bool</title>
<path fill="none" stroke="black" d="M920.28,-731.56C890.86,-728.48 856.65,-722.06 828,-709 777.3,-685.89 730.62,-639.48 704.86,-610.74"/>
<polygon fill="black" stroke="black" points="707.78,-608.77 698.55,-603.57 702.53,-613.39 707.78,-608.77"/>
</g>
<!-- create_token_id_raw -->
<g id="node13" class="node">
<title>create_token_id_raw</title>
<ellipse fill="none" stroke="black" cx="454" cy="-660" rx="84.49" ry="18"/>
<text text-anchor="middle" x="454" y="-656.3" font-family="Times,serif" font-size="14.00">create_token_id_raw</text>
</g>
<!-- burn_by_creator&#45;&gt;create_token_id_raw -->
<g id="edge12" class="edge">
<title>burn_by_creator&#45;&gt;create_token_id_raw</title>
<path fill="none" stroke="black" d="M919.48,-732.77C817.8,-730.45 631.96,-724.24 567,-709 541.97,-703.13 515.44,-692.13 494.38,-682.15"/>
<polygon fill="black" stroke="black" points="496.09,-679.09 485.57,-677.86 493.03,-685.38 496.09,-679.09"/>
</g>
<!-- destroy_collection_data -->
<g id="node14" class="node">
<title>destroy_collection_data</title>
<ellipse fill="none" stroke="black" cx="2183" cy="-660" rx="94.78" ry="18"/>
<text text-anchor="middle" x="2183" y="-656.3" font-family="Times,serif" font-size="14.00">destroy_collection_data</text>
</g>
<!-- burn_by_creator&#45;&gt;destroy_collection_data -->
<g id="edge13" class="edge">
<title>burn_by_creator&#45;&gt;destroy_collection_data</title>
<path fill="none" stroke="black" d="M1056.91,-734.05C1280.96,-733.99 1980.02,-731.93 2079,-709 2102.05,-703.66 2126.13,-692.92 2145.32,-682.95"/>
<polygon fill="black" stroke="black" points="2146.94,-686.05 2154.1,-678.24 2143.63,-679.88 2146.94,-686.05"/>
</g>
<!-- destroy_token_data -->
<g id="node15" class="node">
<title>destroy_token_data</title>
<ellipse fill="none" stroke="black" cx="1991" cy="-660" rx="79.09" ry="18"/>
<text text-anchor="middle" x="1991" y="-656.3" font-family="Times,serif" font-size="14.00">destroy_token_data</text>
</g>
<!-- burn_by_creator&#45;&gt;destroy_token_data -->
<g id="edge14" class="edge">
<title>burn_by_creator&#45;&gt;destroy_token_data</title>
<path fill="none" stroke="black" d="M1057.19,-734.08C1257.21,-734.04 1827.09,-731.89 1908,-709 1926.39,-703.8 1944.99,-693.6 1959.9,-683.94"/>
<polygon fill="black" stroke="black" points="1961.53,-687.06 1967.88,-678.57 1957.63,-681.25 1961.53,-687.06"/>
</g>
<!-- withdraw_with_event_internal -->
<g id="node16" class="node">
<title>withdraw_with_event_internal</title>
<ellipse fill="none" stroke="black" cx="988" cy="-660" rx="118.08" ry="18"/>
<text text-anchor="middle" x="988" y="-656.3" font-family="Times,serif" font-size="14.00">withdraw_with_event_internal</text>
</g>
<!-- burn_by_creator&#45;&gt;withdraw_with_event_internal -->
<g id="edge15" class="edge">
<title>burn_by_creator&#45;&gt;withdraw_with_event_internal</title>
<path fill="none" stroke="black" d="M988,-716.7C988,-708.67 988,-698.9 988,-689.8"/>
<polygon fill="black" stroke="black" points="991.5,-689.94 988,-679.94 984.5,-689.94 991.5,-689.94"/>
</g>
<!-- string::internal_check_utf8 -->
<g id="node17" class="node">
<title>string::internal_check_utf8</title>
<ellipse fill="none" stroke="black" cx="329" cy="-430" rx="81.49" ry="18"/>
<text text-anchor="middle" x="329" y="-426.3" font-family="Times,serif" font-size="14.00">internal_check_utf8</text>
</g>
<!-- string::utf8&#45;&gt;string::internal_check_utf8 -->
<g id="edge16" class="edge">
<title>string::utf8&#45;&gt;string::internal_check_utf8</title>
<path fill="none" stroke="black" d="M371.02,-485.46C364.52,-477.04 356.32,-466.41 348.89,-456.78"/>
<polygon fill="black" stroke="black" points="351.89,-454.94 343.01,-449.16 346.35,-459.22 351.89,-454.94"/>
</g>
<!-- signer::borrow_address -->
<g id="node18" class="node">
<title>signer::borrow_address</title>
<ellipse fill="none" stroke="black" cx="1829" cy="-585" rx="66.89" ry="18"/>
<text text-anchor="middle" x="1829" y="-581.3" font-family="Times,serif" font-size="14.00">borrow_address</text>
</g>
<!-- signer::address_of&#45;&gt;signer::borrow_address -->
<g id="edge17" class="edge">
<title>signer::address_of&#45;&gt;signer::borrow_address</title>
<path fill="none" stroke="black" d="M1822.13,-641.7C1823.12,-633.67 1824.33,-623.9 1825.45,-614.8"/>
<polygon fill="black" stroke="black" points="1828.92,-615.28 1826.67,-604.93 1821.97,-614.43 1828.92,-615.28"/>
</g>
<!-- error::canonical -->
<g id="node19" class="node">
<title>error::canonical</title>
<ellipse fill="none" stroke="black" cx="304" cy="-189" rx="44.39" ry="18"/>
<text text-anchor="middle" x="304" y="-185.3" font-family="Times,serif" font-size="14.00">canonical</text>
</g>
<!-- error::invalid_argument&#45;&gt;error::canonical -->
<g id="edge18" class="edge">
<title>error::invalid_argument&#45;&gt;error::canonical</title>
<path fill="none" stroke="black" d="M358.7,-254.22C349.11,-242.96 336.3,-227.92 325.49,-215.22"/>
<polygon fill="black" stroke="black" points="328.17,-212.98 319.02,-207.64 322.84,-217.52 328.17,-212.98"/>
</g>
<!-- error::not_found&#45;&gt;error::canonical -->
<g id="edge19" class="edge">
<title>error::not_found&#45;&gt;error::canonical</title>
<path fill="none" stroke="black" d="M248.96,-254.61C258.69,-243.19 271.84,-227.75 282.85,-214.83"/>
<polygon fill="black" stroke="black" points="285.26,-217.4 289.08,-207.52 279.93,-212.86 285.26,-217.4"/>
</g>
<!-- error::permission_denied&#45;&gt;error::canonical -->
<g id="edge20" class="edge">
<title>error::permission_denied&#45;&gt;error::canonical</title>
<path fill="none" stroke="black" d="M131.7,-256.14C168.52,-242.01 223.77,-220.8 261.73,-206.23"/>
<polygon fill="black" stroke="black" points="262.93,-209.51 271.01,-202.66 260.42,-202.98 262.93,-209.51"/>
</g>
<!-- table::contains_box -->
<g id="node20" class="node">
<title>table::contains_box</title>
<ellipse fill="none" stroke="black" cx="1092" cy="-430" rx="57.69" ry="18"/>
<text text-anchor="middle" x="1092" y="-426.3" font-family="Times,serif" font-size="14.00">contains_box</text>
</g>
<!-- table::contains&#45;&gt;table::contains_box -->
<g id="edge21" class="edge">
<title>table::contains&#45;&gt;table::contains_box</title>
<path fill="none" stroke="black" d="M1084.47,-483.7C1085.53,-476.32 1086.78,-467.52 1087.96,-459.25"/>
<polygon fill="black" stroke="black" points="1091.39,-460 1089.34,-449.6 1084.46,-459.01 1091.39,-460"/>
</g>
<!-- table::borrow_box_mut -->
<g id="node21" class="node">
<title>table::borrow_box_mut</title>
<ellipse fill="none" stroke="black" cx="1368" cy="-430" rx="72.29" ry="18"/>
<text text-anchor="middle" x="1368" y="-426.3" font-family="Times,serif" font-size="14.00">borrow_box_mut</text>
</g>
<!-- table::borrow_mut&#45;&gt;table::borrow_box_mut -->
<g id="edge22" class="edge">
<title>table::borrow_mut&#45;&gt;table::borrow_box_mut</title>
<path fill="none" stroke="black" d="M1311.16,-484.76C1320.3,-476.12 1331.74,-465.3 1341.95,-455.65"/>
<polygon fill="black" stroke="black" points="1344.2,-458.33 1349.06,-448.92 1339.39,-453.25 1344.2,-458.33"/>
</g>
<!-- table::remove_box -->
<g id="node22" class="node">
<title>table::remove_box</title>
<ellipse fill="none" stroke="black" cx="1223" cy="-430" rx="55.49" ry="18"/>
<text text-anchor="middle" x="1223" y="-426.3" font-family="Times,serif" font-size="14.00">remove_box</text>
</g>
<!-- table::remove&#45;&gt;table::remove_box -->
<g id="edge23" class="edge">
<title>table::remove&#45;&gt;table::remove_box</title>
<path fill="none" stroke="black" d="M1193.24,-484.41C1197.65,-476.51 1203.03,-466.85 1207.99,-457.94"/>
<polygon fill="black" stroke="black" points="1211.01,-459.72 1212.82,-449.28 1204.89,-456.31 1211.01,-459.72"/>
</g>
<!-- bcs::to_bytes -->
<g id="node23" class="node">
<title>bcs::to_bytes</title>
<ellipse fill="none" stroke="black" cx="1504" cy="-502" rx="40.09" ry="18"/>
<text text-anchor="middle" x="1504" y="-498.3" font-family="Times,serif" font-size="14.00">to_bytes</text>
</g>
<!-- event::emit_event&#45;&gt;bcs::to_bytes -->
<g id="edge24" class="edge">
<title>event::emit_event&#45;&gt;bcs::to_bytes</title>
<path fill="none" stroke="black" d="M1588.38,-570.2C1577.81,-564.77 1566.04,-558.13 1556,-551 1545.93,-543.85 1535.75,-534.92 1527.1,-526.7"/>
<polygon fill="black" stroke="black" points="1529.71,-524.36 1520.11,-519.88 1524.82,-529.37 1529.71,-524.36"/>
</g>
<!-- event::write_to_event_store -->
<g id="node24" class="node">
<title>event::write_to_event_store</title>
<ellipse fill="none" stroke="black" cx="1653" cy="-502" rx="85.29" ry="18"/>
<text text-anchor="middle" x="1653" y="-498.3" font-family="Times,serif" font-size="14.00">write_to_event_store</text>
</g>
<!-- event::emit_event&#45;&gt;event::write_to_event_store -->
<g id="edge25" class="edge">
<title>event::emit_event&#45;&gt;event::write_to_event_store</title>
<path fill="none" stroke="black" d="M1625.42,-566.82C1629.97,-556.3 1635.89,-542.59 1641.09,-530.57"/>
<polygon fill="black" stroke="black" points="1644.23,-532.11 1644.99,-521.54 1637.81,-529.33 1644.23,-532.11"/>
</g>
<!-- simple_map::contains_key -->
<g id="node25" class="node">
<title>simple_map::contains_key</title>
<ellipse fill="none" stroke="black" cx="830" cy="-347" rx="57.39" ry="18"/>
<text text-anchor="middle" x="830" y="-343.3" font-family="Times,serif" font-size="14.00">contains_key</text>
</g>
<!-- property_map::contains_key&#45;&gt;simple_map::contains_key -->
<g id="edge26" class="edge">
<title>property_map::contains_key&#45;&gt;simple_map::contains_key</title>
<path fill="none" stroke="black" d="M772.13,-412.22C782.31,-400.92 795.91,-385.83 807.37,-373.11"/>
<polygon fill="black" stroke="black" points="809.79,-375.66 813.88,-365.89 804.59,-370.97 809.79,-375.66"/>
</g>
<!-- property_map::read_bool&#45;&gt;string::utf8 -->
<g id="edge27" class="edge">
<title>property_map::read_bool&#45;&gt;string::utf8</title>
<path fill="none" stroke="black" d="M649.73,-572.52C633.35,-567.52 613.36,-562.09 595,-559 536.61,-549.16 518.52,-568.67 462,-551 442.78,-544.99 423.41,-533.34 408.67,-523.02"/>
<polygon fill="black" stroke="black" points="411.07,-520.43 400.92,-517.39 406.95,-526.1 411.07,-520.43"/>
</g>
<!-- error::invalid_state -->
<g id="node26" class="node">
<title>error::invalid_state</title>
<ellipse fill="none" stroke="black" cx="520" cy="-272" rx="55.79" ry="18"/>
<text text-anchor="middle" x="520" y="-268.3" font-family="Times,serif" font-size="14.00">invalid_state</text>
</g>
<!-- property_map::read_bool&#45;&gt;error::invalid_state -->
<g id="edge28" class="edge">
<title>property_map::read_bool&#45;&gt;error::invalid_state</title>
<path fill="none" stroke="black" d="M649.35,-572.82C632.51,-567.82 611.88,-562.31 593,-559 581.91,-557.06 499.64,-559.27 492,-551 427.5,-481.19 478.14,-355.39 505.45,-300.2"/>
<polygon fill="black" stroke="black" points="508.46,-301.99 509.87,-291.49 502.22,-298.82 508.46,-301.99"/>
</g>
<!-- from_bcs::to_bool -->
<g id="node27" class="node">
<title>from_bcs::to_bool</title>
<ellipse fill="none" stroke="black" cx="561" cy="-502" rx="37.89" ry="18"/>
<text text-anchor="middle" x="561" y="-498.3" font-family="Times,serif" font-size="14.00">to_bool</text>
</g>
<!-- property_map::read_bool&#45;&gt;from_bcs::to_bool -->
<g id="edge29" class="edge">
<title>property_map::read_bool&#45;&gt;from_bcs::to_bool</title>
<path fill="none" stroke="black" d="M657.62,-569.86C647.57,-564.25 636.1,-557.57 626,-551 613.51,-542.87 600.19,-533.22 588.88,-524.72"/>
<polygon fill="black" stroke="black" points="591.2,-522.08 581.12,-518.81 586.96,-527.65 591.2,-522.08"/>
</g>
<!-- property_map::borrow -->
<g id="node28" class="node">
<title>property_map::borrow</title>
<ellipse fill="none" stroke="black" cx="698" cy="-502" rx="36.29" ry="18"/>
<text text-anchor="middle" x="698" y="-498.3" font-family="Times,serif" font-size="14.00">borrow</text>
</g>
<!-- property_map::read_bool&#45;&gt;property_map::borrow -->
<g id="edge30" class="edge">
<title>property_map::read_bool&#45;&gt;property_map::borrow</title>
<path fill="none" stroke="black" d="M686.97,-566.82C688.74,-556.58 691.03,-543.33 693.07,-531.55"/>
<polygon fill="black" stroke="black" points="696.47,-532.37 694.73,-521.92 689.58,-531.18 696.47,-532.37"/>
</g>
<!-- create_token_data_id -->
<g id="node29" class="node">
<title>create_token_data_id</title>
<ellipse fill="none" stroke="black" cx="438" cy="-585" rx="85.59" ry="18"/>
<text text-anchor="middle" x="438" y="-581.3" font-family="Times,serif" font-size="14.00">create_token_data_id</text>
</g>
<!-- create_token_id_raw&#45;&gt;create_token_data_id -->
<g id="edge31" class="edge">
<title>create_token_id_raw&#45;&gt;create_token_data_id</title>
<path fill="none" stroke="black" d="M450.21,-641.7C448.43,-633.58 446.26,-623.68 444.25,-614.5"/>
<polygon fill="black" stroke="black" points="447.7,-613.93 442.14,-604.91 440.87,-615.42 447.7,-613.93"/>
</g>
<!-- withdraw_with_event_internal&#45;&gt;error::invalid_argument -->
<g id="edge32" class="edge">
<title>withdraw_with_event_internal&#45;&gt;error::invalid_argument</title>
<path fill="none" stroke="black" d="M947.83,-642.6C943.92,-640.06 940.21,-637.2 937,-634 907.86,-604.95 910.58,-589.47 896,-551 872.01,-487.69 909.18,-445.91 856,-404 844.3,-394.78 602.35,-400 588,-396 515.71,-375.86 442.07,-326.02 402.51,-296.33"/>
<polygon fill="black" stroke="black" points="404.95,-293.8 394.88,-290.52 400.72,-299.37 404.95,-293.8"/>
</g>
<!-- withdraw_with_event_internal&#45;&gt;error::not_found -->
<g id="edge33" class="edge">
<title>withdraw_with_event_internal&#45;&gt;error::not_found</title>
<path fill="none" stroke="black" d="M911.42,-646.17C905.03,-642.94 899.08,-638.95 894,-634 855.8,-596.83 868.36,-436.35 826,-404 809.17,-391.15 465.58,-400.97 445,-396 371,-378.12 354.64,-362.78 291,-321 280.13,-313.86 269.07,-304.84 259.69,-296.54"/>
<polygon fill="black" stroke="black" points="262.14,-294.04 252.38,-289.91 257.44,-299.23 262.14,-294.04"/>
</g>
<!-- withdraw_with_event_internal&#45;&gt;table::contains -->
<g id="edge34" class="edge">
<title>withdraw_with_event_internal&#45;&gt;table::contains</title>
<path fill="none" stroke="black" d="M1041.69,-643.67C1045.9,-640.95 1049.77,-637.76 1053,-634 1077.6,-605.42 1082.68,-560.61 1083.1,-531.52"/>
<polygon fill="black" stroke="black" points="1086.6,-531.6 1083.04,-521.62 1079.6,-531.64 1086.6,-531.6"/>
</g>
<!-- withdraw_with_event_internal&#45;&gt;table::borrow_mut -->
<g id="edge35" class="edge">
<title>withdraw_with_event_internal&#45;&gt;table::borrow_mut</title>
<path fill="none" stroke="black" d="M1083.17,-649.03C1099.22,-645.45 1115.4,-640.59 1130,-634 1187.38,-608.09 1242,-557.49 1271.46,-527.33"/>
<polygon fill="black" stroke="black" points="1273.62,-530.12 1278.03,-520.49 1268.58,-525.27 1273.62,-530.12"/>
</g>
<!-- withdraw_with_event_internal&#45;&gt;table::remove -->
<g id="edge36" class="edge">
<title>withdraw_with_event_internal&#45;&gt;table::remove</title>
<path fill="none" stroke="black" d="M1058.67,-645.25C1066.54,-642.22 1074.16,-638.51 1081,-634 1121.39,-607.33 1152.97,-559.58 1170.01,-529.69"/>
<polygon fill="black" stroke="black" points="1172.91,-531.69 1174.69,-521.25 1166.78,-528.3 1172.91,-531.69"/>
</g>
<!-- withdraw_with_event_internal&#45;&gt;event::emit_event -->
<g id="edge37" class="edge">
<title>withdraw_with_event_internal&#45;&gt;event::emit_event</title>
<path fill="none" stroke="black" d="M1090.67,-650.79C1142.67,-646.36 1206.75,-640.47 1264,-634 1369.08,-622.12 1491.23,-604.77 1561.09,-594.51"/>
<polygon fill="black" stroke="black" points="1561.38,-598.01 1570.76,-593.08 1560.36,-591.08 1561.38,-598.01"/>
</g>
<!-- property_map::empty -->
<g id="node30" class="node">
<title>property_map::empty</title>
<ellipse fill="none" stroke="black" cx="781" cy="-585" rx="33.29" ry="18"/>
<text text-anchor="middle" x="781" y="-581.3" font-family="Times,serif" font-size="14.00">empty</text>
</g>
<!-- withdraw_with_event_internal&#45;&gt;property_map::empty -->
<g id="edge38" class="edge">
<title>withdraw_with_event_internal&#45;&gt;property_map::empty</title>
<path fill="none" stroke="black" d="M908.23,-646.39C893.95,-643.09 879.36,-639 866,-634 846.73,-626.79 826.62,-615.62 810.8,-605.87"/>
<polygon fill="black" stroke="black" points="812.68,-602.92 802.36,-600.54 808.94,-608.84 812.68,-602.92"/>
</g>
<!-- balance_of -->
<g id="node31" class="node">
<title>balance_of</title>
<ellipse fill="none" stroke="black" cx="995" cy="-585" rx="49.29" ry="18"/>
<text text-anchor="middle" x="995" y="-581.3" font-family="Times,serif" font-size="14.00">balance_of</text>
</g>
<!-- withdraw_with_event_internal&#45;&gt;balance_of -->
<g id="edge39" class="edge">
<title>withdraw_with_event_internal&#45;&gt;balance_of</title>
<path fill="none" stroke="black" d="M989.66,-641.7C990.43,-633.67 991.37,-623.9 992.24,-614.8"/>
<polygon fill="black" stroke="black" points="995.71,-615.22 993.18,-604.94 988.75,-614.56 995.71,-615.22"/>
</g>
<!-- option::is_some -->
<g id="node32" class="node">
<title>option::is_some</title>
<ellipse fill="none" stroke="black" cx="774" cy="-117" rx="40.09" ry="18"/>
<text text-anchor="middle" x="774" y="-113.3" font-family="Times,serif" font-size="14.00">is_some</text>
</g>
<!-- simple_map::contains_key&#45;&gt;option::is_some -->
<g id="edge40" class="edge">
<title>simple_map::contains_key&#45;&gt;option::is_some</title>
<path fill="none" stroke="black" d="M854.91,-330.56C857.76,-327.74 860.27,-324.55 862,-321 892.78,-257.89 898.65,-222.9 862,-163 852.52,-147.51 835.85,-137.14 819.54,-130.3"/>
<polygon fill="black" stroke="black" points="820.96,-127.09 810.37,-126.83 818.49,-133.64 820.96,-127.09"/>
</g>
<!-- simple_map::find -->
<g id="node33" class="node">
<title>simple_map::find</title>
<ellipse fill="none" stroke="black" cx="780" cy="-272" rx="27" ry="18"/>
<text text-anchor="middle" x="780" y="-268.3" font-family="Times,serif" font-size="14.00">find</text>
</g>
<!-- simple_map::contains_key&#45;&gt;simple_map::find -->
<g id="edge41" class="edge">
<title>simple_map::contains_key&#45;&gt;simple_map::find</title>
<path fill="none" stroke="black" d="M818.4,-329.07C812.11,-319.88 804.2,-308.33 797.2,-298.11"/>
<polygon fill="black" stroke="black" points="800.24,-296.36 791.7,-290.09 794.47,-300.32 800.24,-296.36"/>
</g>
<!-- error::invalid_state&#45;&gt;error::canonical -->
<g id="edge42" class="edge">
<title>error::invalid_state&#45;&gt;error::canonical</title>
<path fill="none" stroke="black" d="M485.28,-257.56C475.5,-253.79 464.84,-249.72 455,-246 418.54,-232.23 377.02,-216.85 346.76,-205.7"/>
<polygon fill="black" stroke="black" points="348.16,-202.49 337.57,-202.32 345.74,-209.06 348.16,-202.49"/>
</g>
<!-- from_bcs::from_bytes -->
<g id="node34" class="node">
<title>from_bcs::from_bytes</title>
<ellipse fill="none" stroke="black" cx="555" cy="-430" rx="51.19" ry="18"/>
<text text-anchor="middle" x="555" y="-426.3" font-family="Times,serif" font-size="14.00">from_bytes</text>
</g>
<!-- from_bcs::to_bool&#45;&gt;from_bcs::from_bytes -->
<g id="edge43" class="edge">
<title>from_bcs::to_bool&#45;&gt;from_bcs::from_bytes</title>
<path fill="none" stroke="black" d="M559.52,-483.7C558.89,-476.41 558.15,-467.73 557.45,-459.54"/>
<polygon fill="black" stroke="black" points="560.94,-459.28 556.6,-449.61 553.96,-459.87 560.94,-459.28"/>
</g>
<!-- property_map::borrow&#45;&gt;property_map::contains_key -->
<g id="edge45" class="edge">
<title>property_map::borrow&#45;&gt;property_map::contains_key</title>
<path fill="none" stroke="black" d="M711.39,-485.12C718.5,-476.68 727.41,-466.1 735.47,-456.55"/>
<polygon fill="black" stroke="black" points="738.1,-458.86 741.87,-448.95 732.75,-454.35 738.1,-458.86"/>
</g>
<!-- simple_map::borrow -->
<g id="node35" class="node">
<title>simple_map::borrow</title>
<ellipse fill="none" stroke="black" cx="718" cy="-347" rx="36.29" ry="18"/>
<text text-anchor="middle" x="718" y="-343.3" font-family="Times,serif" font-size="14.00">borrow</text>
</g>
<!-- property_map::borrow&#45;&gt;simple_map::borrow -->
<g id="edge44" class="edge">
<title>property_map::borrow&#45;&gt;simple_map::borrow</title>
<path fill="none" stroke="black" d="M693.77,-483.95C689.61,-464.39 684.72,-431.49 691,-404 693.32,-393.87 697.71,-383.43 702.29,-374.36"/>
<polygon fill="black" stroke="black" points="705.26,-376.22 706.93,-365.76 699.1,-372.9 705.26,-376.22"/>
</g>
<!-- create_token_data_id&#45;&gt;error::invalid_argument -->
<g id="edge47" class="edge">
<title>create_token_data_id&#45;&gt;error::invalid_argument</title>
<path fill="none" stroke="black" d="M438,-566.64C437.66,-534.25 435.3,-462.59 422,-404 413.63,-367.12 397.3,-326.63 385.8,-300.57"/>
<polygon fill="black" stroke="black" points="389.12,-299.4 381.83,-291.72 382.73,-302.27 389.12,-299.4"/>
</g>
<!-- string::length -->
<g id="node36" class="node">
<title>string::length</title>
<ellipse fill="none" stroke="black" cx="306" cy="-502" rx="32.49" ry="18"/>
<text text-anchor="middle" x="306" y="-498.3" font-family="Times,serif" font-size="14.00">length</text>
</g>
<!-- create_token_data_id&#45;&gt;string::length -->
<g id="edge46" class="edge">
<title>create_token_data_id&#45;&gt;string::length</title>
<path fill="none" stroke="black" d="M386.15,-570.39C372.72,-565.51 358.74,-559.13 347,-551 338.1,-544.83 329.96,-536.28 323.32,-528.09"/>
<polygon fill="black" stroke="black" points="326.27,-526.19 317.42,-520.36 320.71,-530.43 326.27,-526.19"/>
</g>
<!-- simple_map::create -->
<g id="node37" class="node">
<title>simple_map::create</title>
<ellipse fill="none" stroke="black" cx="632" cy="-347" rx="31.7" ry="18"/>
<text text-anchor="middle" x="632" y="-343.3" font-family="Times,serif" font-size="14.00">create</text>
</g>
<!-- property_map::empty&#45;&gt;simple_map::create -->
<g id="edge48" class="edge">
<title>property_map::empty&#45;&gt;simple_map::create</title>
<path fill="none" stroke="black" d="M761.79,-570.13C754.92,-565.84 746.91,-561.58 739,-559 720.75,-553.06 666.64,-564.5 653,-551 629.04,-527.28 629.1,-426.64 630.71,-376.56"/>
<polygon fill="black" stroke="black" points="634.19,-376.9 631.07,-366.78 627.2,-376.65 634.19,-376.9"/>
</g>
<!-- balance_of&#45;&gt;table::contains -->
<g id="edge49" class="edge">
<title>balance_of&#45;&gt;table::contains</title>
<path fill="none" stroke="black" d="M1012.19,-568C1024.9,-556.16 1042.42,-539.85 1056.72,-526.53"/>
<polygon fill="black" stroke="black" points="1059.1,-529.1 1064.04,-519.73 1054.33,-523.98 1059.1,-529.1"/>
</g>
<!-- table::borrow -->
<g id="node38" class="node">
<title>table::borrow</title>
<ellipse fill="none" stroke="black" cx="972" cy="-502" rx="36.29" ry="18"/>
<text text-anchor="middle" x="972" y="-498.3" font-family="Times,serif" font-size="14.00">borrow</text>
</g>
<!-- balance_of&#45;&gt;table::borrow -->
<g id="edge50" class="edge">
<title>balance_of&#45;&gt;table::borrow</title>
<path fill="none" stroke="black" d="M990.12,-566.82C987.16,-556.41 983.32,-542.87 979.93,-530.94"/>
<polygon fill="black" stroke="black" points="983.38,-530.27 977.28,-521.61 976.65,-532.19 983.38,-530.27"/>
</g>
<!-- vector::is_empty -->
<g id="node39" class="node">
<title>vector::is_empty</title>
<ellipse fill="none" stroke="black" cx="751" cy="-34" rx="43.59" ry="18"/>
<text text-anchor="middle" x="751" y="-30.3" font-family="Times,serif" font-size="14.00">is_empty</text>
</g>
<!-- option::is_some&#45;&gt;vector::is_empty -->
<g id="edge51" class="edge">
<title>option::is_some&#45;&gt;vector::is_empty</title>
<path fill="none" stroke="black" d="M769.12,-98.82C766.16,-88.41 762.32,-74.87 758.93,-62.94"/>
<polygon fill="black" stroke="black" points="762.38,-62.27 756.28,-53.61 755.65,-64.19 762.38,-62.27"/>
</g>
<!-- option::none -->
<g id="node40" class="node">
<title>option::none</title>
<ellipse fill="none" stroke="black" cx="792" cy="-189" rx="27.9" ry="18"/>
<text text-anchor="middle" x="792" y="-185.3" font-family="Times,serif" font-size="14.00">none</text>
</g>
<!-- simple_map::find&#45;&gt;option::none -->
<g id="edge52" class="edge">
<title>simple_map::find&#45;&gt;option::none</title>
<path fill="none" stroke="black" d="M782.54,-253.82C784.07,-243.51 786.05,-230.14 787.81,-218.31"/>
<polygon fill="black" stroke="black" points="791.23,-219.06 789.24,-208.65 784.31,-218.03 791.23,-219.06"/>
</g>
<!-- option::some -->
<g id="node41" class="node">
<title>option::some</title>
<ellipse fill="none" stroke="black" cx="630" cy="-189" rx="29.8" ry="18"/>
<text text-anchor="middle" x="630" y="-185.3" font-family="Times,serif" font-size="14.00">some</text>
</g>
<!-- simple_map::find&#45;&gt;option::some -->
<g id="edge53" class="edge">
<title>simple_map::find&#45;&gt;option::some</title>
<path fill="none" stroke="black" d="M753.44,-267.65C729.69,-263.64 694.75,-255.19 669,-238 660.27,-232.17 652.52,-223.8 646.28,-215.67"/>
<polygon fill="black" stroke="black" points="649.21,-213.75 640.55,-207.64 643.51,-217.81 649.21,-213.75"/>
</g>
<!-- simple_map::borrow&#45;&gt;error::invalid_argument -->
<g id="edge56" class="edge">
<title>simple_map::borrow&#45;&gt;error::invalid_argument</title>
<path fill="none" stroke="black" d="M691.29,-334.29C685.37,-332.16 679.06,-330.22 673,-329 625.48,-319.42 501.55,-334.54 455,-321 436.81,-315.71 418.44,-305.5 403.71,-295.86"/>
<polygon fill="black" stroke="black" points="406.08,-293.24 395.84,-290.51 402.14,-299.03 406.08,-293.24"/>
</g>
<!-- simple_map::borrow&#45;&gt;option::is_some -->
<g id="edge55" class="edge">
<title>simple_map::borrow&#45;&gt;option::is_some</title>
<path fill="none" stroke="black" d="M745.44,-334.83C751.48,-332.67 757.9,-330.58 764,-329 775.32,-326.07 807.72,-329.26 816,-321 865.89,-271.25 859.17,-226.67 829,-163 824.38,-153.26 816.51,-144.92 808.14,-138.17"/>
<polygon fill="black" stroke="black" points="810.35,-135.45 800.21,-132.36 806.21,-141.1 810.35,-135.45"/>
</g>
<!-- simple_map::borrow&#45;&gt;simple_map::find -->
<g id="edge57" class="edge">
<title>simple_map::borrow&#45;&gt;simple_map::find</title>
<path fill="none" stroke="black" d="M731.45,-330.16C739.8,-320.33 750.68,-307.52 760.02,-296.52"/>
<polygon fill="black" stroke="black" points="762.63,-298.86 766.44,-288.97 757.3,-294.32 762.63,-298.86"/>
</g>
<!-- option::extract -->
<g id="node42" class="node">
<title>option::extract</title>
<ellipse fill="none" stroke="black" cx="712" cy="-189" rx="34.39" ry="18"/>
<text text-anchor="middle" x="712" y="-185.3" font-family="Times,serif" font-size="14.00">extract</text>
</g>
<!-- simple_map::borrow&#45;&gt;option::extract -->
<g id="edge54" class="edge">
<title>simple_map::borrow&#45;&gt;option::extract</title>
<path fill="none" stroke="black" d="M717.33,-328.71C716.31,-302.12 714.34,-250.9 713.1,-218.69"/>
<polygon fill="black" stroke="black" points="716.61,-218.74 712.73,-208.88 709.61,-219.01 716.61,-218.74"/>
</g>
<!-- table::borrow_box -->
<g id="node43" class="node">
<title>table::borrow_box</title>
<ellipse fill="none" stroke="black" cx="962" cy="-430" rx="53.89" ry="18"/>
<text text-anchor="middle" x="962" y="-426.3" font-family="Times,serif" font-size="14.00">borrow_box</text>
</g>
<!-- table::borrow&#45;&gt;table::borrow_box -->
<g id="edge58" class="edge">
<title>table::borrow&#45;&gt;table::borrow_box</title>
<path fill="none" stroke="black" d="M969.53,-483.7C968.47,-476.32 967.22,-467.52 966.04,-459.25"/>
<polygon fill="black" stroke="black" points="969.54,-459.01 964.66,-449.6 962.61,-460 969.54,-459.01"/>
</g>
<!-- vector::singleton -->
<g id="node44" class="node">
<title>vector::singleton</title>
<ellipse fill="none" stroke="black" cx="647" cy="-34" rx="42.79" ry="18"/>
<text text-anchor="middle" x="647" y="-30.3" font-family="Times,serif" font-size="14.00">singleton</text>
</g>
<!-- option::some&#45;&gt;vector::singleton -->
<g id="edge59" class="edge">
<title>option::some&#45;&gt;vector::singleton</title>
<path fill="none" stroke="black" d="M631.92,-170.75C634.81,-144.69 640.33,-95.01 643.83,-63.52"/>
<polygon fill="black" stroke="black" points="647.27,-64.25 644.9,-53.93 640.31,-63.48 647.27,-64.25"/>
</g>
<!-- option::extract&#45;&gt;option::is_some -->
<g id="edge60" class="edge">
<title>option::extract&#45;&gt;option::is_some</title>
<path fill="none" stroke="black" d="M726.07,-172.12C733.84,-163.34 743.65,-152.26 752.37,-142.42"/>
<polygon fill="black" stroke="black" points="754.97,-144.76 758.98,-134.95 749.73,-140.12 754.97,-144.76"/>
</g>
</g>
</svg>
