<?xml version="1.0" encoding="UTF-8" standalone="no"?>
<!DOCTYPE svg PUBLIC "-//W3C//DTD SVG 1.1//EN"
 "http://www.w3.org/Graphics/SVG/1.1/DTD/svg11.dtd">
<!-- Generated by graphviz version 7.0.4 (20221203.1631)
 -->
<!-- Title: G Pages: 1 -->
<svg width="1170pt" height="354pt"
 viewBox="0.00 0.00 1170.00 354.00" xmlns="http://www.w3.org/2000/svg" xmlns:xlink="http://www.w3.org/1999/xlink">
<g id="graph0" class="graph" transform="scale(1 1) rotate(0) translate(4 350)">
<title>G</title>
<polygon fill="white" stroke="none" points="-4,4 -4,-350 1166,-350 1166,4 -4,4"/>
<g id="clust1" class="cluster">
<title>cluster_error</title>
<polygon fill="none" stroke="black" points="708,-8 708,-155 1154,-155 1154,-8 708,-8"/>
<text text-anchor="middle" x="931" y="-139.8" font-family="Times,serif" font-size="14.00">error</text>
</g>
<g id="clust2" class="cluster">
<title>cluster_table</title>
<polygon fill="none" stroke="black" points="8,-80 8,-230 402,-230 402,-80 8,-80"/>
<text text-anchor="middle" x="205" y="-214.8" font-family="Times,serif" font-size="14.00">table</text>
</g>
<g id="clust3" class="cluster">
<title>cluster_event</title>
<polygon fill="none" stroke="black" points="410,-80 410,-230 596,-230 596,-80 410,-80"/>
<text text-anchor="middle" x="503" y="-214.8" font-family="Times,serif" font-size="14.00">event</text>
</g>
<g id="clust4" class="cluster">
<title>cluster_bcs</title>
<polygon fill="none" stroke="black" points="604,-80 604,-155 700,-155 700,-80 604,-80"/>
<text text-anchor="middle" x="652" y="-139.8" font-family="Times,serif" font-size="14.00">bcs</text>
</g>
<!-- direct_deposit_with_opt_in -->
<g id="node1" class="node">
<title>direct_deposit_with_opt_in</title>
<ellipse fill="none" stroke="black" cx="781" cy="-328" rx="107.48" ry="18"/>
<text text-anchor="middle" x="781" y="-324.3" font-family="Times,serif" font-size="14.00">direct_deposit_with_opt_in</text>
</g>
<!-- error::permission_denied -->
<g id="node2" class="node">
<title>error::permission_denied</title>
<ellipse fill="none" stroke="black" cx="1069" cy="-106" rx="77.19" ry="18"/>
<text text-anchor="middle" x="1069" y="-102.3" font-family="Times,serif" font-size="14.00">permission_denied</text>
</g>
<!-- direct_deposit_with_opt_in&#45;&gt;error::permission_denied -->
<g id="edge1" class="edge">
<title>direct_deposit_with_opt_in&#45;&gt;error::permission_denied</title>
<path fill="none" stroke="black" d="M803.12,-310.1C854.03,-271.22 979.58,-175.31 1038.08,-130.62"/>
<polygon fill="black" stroke="black" points="1040.17,-133.42 1046,-124.57 1035.92,-127.86 1040.17,-133.42"/>
</g>
<!-- direct_deposit -->
<g id="node3" class="node">
<title>direct_deposit</title>
<ellipse fill="none" stroke="black" cx="611" cy="-256" rx="60.39" ry="18"/>
<text text-anchor="middle" x="611" y="-252.3" font-family="Times,serif" font-size="14.00">direct_deposit</text>
</g>
<!-- direct_deposit_with_opt_in&#45;&gt;direct_deposit -->
<g id="edge2" class="edge">
<title>direct_deposit_with_opt_in&#45;&gt;direct_deposit</title>
<path fill="none" stroke="black" d="M742,-310.94C716.41,-300.4 682.86,-286.59 656.12,-275.58"/>
<polygon fill="black" stroke="black" points="657.48,-272.35 646.9,-271.78 654.81,-278.82 657.48,-272.35"/>
</g>
<!-- error::canonical -->
<g id="node4" class="node">
<title>error::canonical</title>
<ellipse fill="none" stroke="black" cx="927" cy="-34" rx="44.39" ry="18"/>
<text text-anchor="middle" x="927" y="-30.3" font-family="Times,serif" font-size="14.00">canonical</text>
</g>
<!-- error::permission_denied&#45;&gt;error::canonical -->
<g id="edge3" class="edge">
<title>error::permission_denied&#45;&gt;error::canonical</title>
<path fill="none" stroke="black" d="M1037.13,-89.29C1015.67,-78.71 987.28,-64.71 964.69,-53.58"/>
<polygon fill="black" stroke="black" points="966.33,-50.48 955.81,-49.2 963.23,-56.76 966.33,-50.48"/>
</g>
<!-- error::invalid_argument -->
<g id="node5" class="node">
<title>error::invalid_argument</title>
<ellipse fill="none" stroke="black" cx="789" cy="-106" rx="73.39" ry="18"/>
<text text-anchor="middle" x="789" y="-102.3" font-family="Times,serif" font-size="14.00">invalid_argument</text>
</g>
<!-- direct_deposit&#45;&gt;error::invalid_argument -->
<g id="edge4" class="edge">
<title>direct_deposit&#45;&gt;error::invalid_argument</title>
<path fill="none" stroke="black" d="M664.38,-247.14C677.81,-243.44 691.63,-238 703,-230 737.62,-205.65 762.93,-162.68 776.81,-134.52"/>
<polygon fill="black" stroke="black" points="779.95,-136.07 781.07,-125.54 773.62,-133.07 779.95,-136.07"/>
</g>
<!-- error::not_found -->
<g id="node6" class="node">
<title>error::not_found</title>
<ellipse fill="none" stroke="black" cx="927" cy="-106" rx="46.59" ry="18"/>
<text text-anchor="middle" x="927" y="-102.3" font-family="Times,serif" font-size="14.00">not_found</text>
</g>
<!-- direct_deposit&#45;&gt;error::not_found -->
<g id="edge5" class="edge">
<title>direct_deposit&#45;&gt;error::not_found</title>
<path fill="none" stroke="black" d="M667.29,-249C691.71,-245.26 720.31,-239.31 745,-230 806.58,-206.77 867.84,-158.96 901.23,-130.27"/>
<polygon fill="black" stroke="black" points="903.12,-133.27 908.36,-124.06 898.52,-128 903.12,-133.27"/>
</g>
<!-- table::contains -->
<g id="node7" class="node">
<title>table::contains</title>
<ellipse fill="none" stroke="black" cx="90" cy="-181" rx="40.09" ry="18"/>
<text text-anchor="middle" x="90" y="-177.3" font-family="Times,serif" font-size="14.00">contains</text>
</g>
<!-- direct_deposit&#45;&gt;table::contains -->
<g id="edge6" class="edge">
<title>direct_deposit&#45;&gt;table::contains</title>
<path fill="none" stroke="black" d="M550.61,-254.95C447.69,-254.3 242.76,-250.38 174,-230 154.58,-224.24 134.82,-213.26 119.34,-203.25"/>
<polygon fill="black" stroke="black" points="121.35,-200.38 111.1,-197.72 117.46,-206.2 121.35,-200.38"/>
</g>
<!-- table::borrow_mut -->
<g id="node8" class="node">
<title>table::borrow_mut</title>
<ellipse fill="none" stroke="black" cx="330" cy="-181" rx="54.69" ry="18"/>
<text text-anchor="middle" x="330" y="-177.3" font-family="Times,serif" font-size="14.00">borrow_mut</text>
</g>
<!-- direct_deposit&#45;&gt;table::borrow_mut -->
<g id="edge7" class="edge">
<title>direct_deposit&#45;&gt;table::borrow_mut</title>
<path fill="none" stroke="black" d="M550.65,-254.57C508.94,-252.62 452.78,-246.67 406,-230 389.44,-224.1 372.74,-214.1 359.22,-204.74"/>
<polygon fill="black" stroke="black" points="361.39,-201.99 351.22,-199 357.31,-207.68 361.39,-201.99"/>
</g>
<!-- table::add -->
<g id="node9" class="node">
<title>table::add</title>
<ellipse fill="none" stroke="black" cx="210" cy="-181" rx="27" ry="18"/>
<text text-anchor="middle" x="210" y="-177.3" font-family="Times,serif" font-size="14.00">add</text>
</g>
<!-- direct_deposit&#45;&gt;table::add -->
<g id="edge8" class="edge">
<title>direct_deposit&#45;&gt;table::add</title>
<path fill="none" stroke="black" d="M550.34,-255.13C465.4,-254.55 315.84,-250.52 266,-230 252.63,-224.5 240.16,-214.51 230.39,-205.06"/>
<polygon fill="black" stroke="black" points="233.1,-202.83 223.61,-198.11 228.09,-207.71 233.1,-202.83"/>
</g>
<!-- event::emit_event -->
<g id="node10" class="node">
<title>event::emit_event</title>
<ellipse fill="none" stroke="black" cx="538" cy="-181" rx="50.09" ry="18"/>
<text text-anchor="middle" x="538" y="-177.3" font-family="Times,serif" font-size="14.00">emit_event</text>
</g>
<!-- direct_deposit&#45;&gt;event::emit_event -->
<g id="edge9" class="edge">
<title>direct_deposit&#45;&gt;event::emit_event</title>
<path fill="none" stroke="black" d="M594.44,-238.44C584.94,-228.94 572.85,-216.85 562.3,-206.3"/>
<polygon fill="black" stroke="black" points="564.86,-203.91 555.32,-199.32 559.91,-208.86 564.86,-203.91"/>
</g>
<!-- merge -->
<g id="node11" class="node">
<title>merge</title>
<ellipse fill="none" stroke="black" cx="661" cy="-181" rx="33.29" ry="18"/>
<text text-anchor="middle" x="661" y="-177.3" font-family="Times,serif" font-size="14.00">merge</text>
</g>
<!-- direct_deposit&#45;&gt;merge -->
<g id="edge10" class="edge">
<title>direct_deposit&#45;&gt;merge</title>
<path fill="none" stroke="black" d="M622.6,-238.07C628.81,-229 636.58,-217.65 643.51,-207.54"/>
<polygon fill="black" stroke="black" points="646.19,-209.81 648.95,-199.59 640.42,-205.86 646.19,-209.81"/>
</g>
<!-- error::invalid_argument&#45;&gt;error::canonical -->
<g id="edge11" class="edge">
<title>error::invalid_argument&#45;&gt;error::canonical</title>
<path fill="none" stroke="black" d="M819.97,-89.29C840.73,-78.76 868.17,-64.84 890.07,-53.73"/>
<polygon fill="black" stroke="black" points="891.64,-56.86 898.97,-49.22 888.47,-50.62 891.64,-56.86"/>
</g>
<!-- error::not_found&#45;&gt;error::canonical -->
<g id="edge12" class="edge">
<title>error::not_found&#45;&gt;error::canonical</title>
<path fill="none" stroke="black" d="M927,-87.7C927,-80.41 927,-71.73 927,-63.54"/>
<polygon fill="black" stroke="black" points="930.5,-63.62 927,-53.62 923.5,-63.62 930.5,-63.62"/>
</g>
<!-- table::contains_box -->
<g id="node12" class="node">
<title>table::contains_box</title>
<ellipse fill="none" stroke="black" cx="74" cy="-106" rx="57.69" ry="18"/>
<text text-anchor="middle" x="74" y="-102.3" font-family="Times,serif" font-size="14.00">contains_box</text>
</g>
<!-- table::contains&#45;&gt;table::contains_box -->
<g id="edge13" class="edge">
<title>table::contains&#45;&gt;table::contains_box</title>
<path fill="none" stroke="black" d="M86.21,-162.7C84.43,-154.58 82.26,-144.68 80.25,-135.5"/>
<polygon fill="black" stroke="black" points="83.7,-134.93 78.14,-125.91 76.87,-136.42 83.7,-134.93"/>
</g>
<!-- table::borrow_box_mut -->
<g id="node13" class="node">
<title>table::borrow_box_mut</title>
<ellipse fill="none" stroke="black" cx="322" cy="-106" rx="72.29" ry="18"/>
<text text-anchor="middle" x="322" y="-102.3" font-family="Times,serif" font-size="14.00">borrow_box_mut</text>
</g>
<!-- table::borrow_mut&#45;&gt;table::borrow_box_mut -->
<g id="edge14" class="edge">
<title>table::borrow_mut&#45;&gt;table::borrow_box_mut</title>
<path fill="none" stroke="black" d="M328.1,-162.7C327.22,-154.67 326.15,-144.9 325.16,-135.8"/>
<polygon fill="black" stroke="black" points="328.64,-135.49 324.07,-125.93 321.69,-136.26 328.64,-135.49"/>
</g>
<!-- table::add_box -->
<g id="node14" class="node">
<title>table::add_box</title>
<ellipse fill="none" stroke="black" cx="191" cy="-106" rx="40.89" ry="18"/>
<text text-anchor="middle" x="191" y="-102.3" font-family="Times,serif" font-size="14.00">add_box</text>
</g>
<!-- table::add&#45;&gt;table::add_box -->
<g id="edge15" class="edge">
<title>table::add&#45;&gt;table::add_box</title>
<path fill="none" stroke="black" d="M205.59,-163.07C203.44,-154.8 200.8,-144.64 198.35,-135.24"/>
<polygon fill="black" stroke="black" points="201.8,-134.61 195.9,-125.81 195.03,-136.37 201.8,-134.61"/>
</g>
<!-- bcs::to_bytes -->
<g id="node15" class="node">
<title>bcs::to_bytes</title>
<ellipse fill="none" stroke="black" cx="652" cy="-106" rx="40.09" ry="18"/>
<text text-anchor="middle" x="652" y="-102.3" font-family="Times,serif" font-size="14.00">to_bytes</text>
</g>
<!-- event::emit_event&#45;&gt;bcs::to_bytes -->
<g id="edge16" class="edge">
<title>event::emit_event&#45;&gt;bcs::to_bytes</title>
<path fill="none" stroke="black" d="M573.85,-168.11C582.71,-164.48 591.96,-160.09 600,-155 610.59,-148.3 620.99,-139.32 629.68,-130.94"/>
<polygon fill="black" stroke="black" points="632.08,-133.48 636.67,-123.93 627.13,-128.54 632.08,-133.48"/>
</g>
<!-- event::write_to_event_store -->
<g id="node16" class="node">
<title>event::write_to_event_store</title>
<ellipse fill="none" stroke="black" cx="503" cy="-106" rx="85.29" ry="18"/>
<text text-anchor="middle" x="503" y="-102.3" font-family="Times,serif" font-size="14.00">write_to_event_store</text>
</g>
<!-- event::emit_event&#45;&gt;event::write_to_event_store -->
<g id="edge17" class="edge">
<title>event::emit_event&#45;&gt;event::write_to_event_store</title>
<path fill="none" stroke="black" d="M529.88,-163.07C525.83,-154.62 520.83,-144.19 516.25,-134.63"/>
<polygon fill="black" stroke="black" points="519.45,-133.22 511.97,-125.71 513.14,-136.24 519.45,-133.22"/>
</g>
<!-- merge&#45;&gt;error::invalid_argument -->
<g id="edge18" class="edge">
<title>merge&#45;&gt;error::invalid_argument</title>
<path fill="none" stroke="black" d="M683.3,-167.28C702.05,-156.59 729.28,-141.06 751.4,-128.44"/>
<polygon fill="black" stroke="black" points="752.89,-131.62 759.84,-123.63 749.42,-125.54 752.89,-131.62"/>
</g>
</g>
</svg>
