<?xml version="1.0" encoding="UTF-8" standalone="no"?>
<!DOCTYPE svg PUBLIC "-//W3C//DTD SVG 1.1//EN"
 "http://www.w3.org/Graphics/SVG/1.1/DTD/svg11.dtd">
<!-- Generated by graphviz version 7.0.4 (20221203.1631)
 -->
<!-- Title: G Pages: 1 -->
<svg width="1833pt" height="592pt"
 viewBox="0.00 0.00 1833.00 592.00" xmlns="http://www.w3.org/2000/svg" xmlns:xlink="http://www.w3.org/1999/xlink">
<g id="graph0" class="graph" transform="scale(1 1) rotate(0) translate(4 588)">
<title>G</title>
<polygon fill="white" stroke="none" points="-4,4 -4,-588 1829,-588 1829,4 -4,4"/>
<g id="clust1" class="cluster">
<title>cluster_token</title>
<polygon fill="none" stroke="black" points="402,-246 402,-468 920,-468 920,-246 402,-246"/>
<text text-anchor="middle" x="661" y="-452.8" font-family="Times,serif" font-size="14.00">token</text>
</g>
<g id="clust2" class="cluster">
<title>cluster_signer</title>
<polygon fill="none" stroke="black" points="8,-8 8,-155 158,-155 158,-8 8,-8"/>
<text text-anchor="middle" x="83" y="-139.8" font-family="Times,serif" font-size="14.00">signer</text>
</g>
<g id="clust3" class="cluster">
<title>cluster_error</title>
<polygon fill="none" stroke="black" points="778,-80 778,-238 1052,-238 1052,-80 778,-80"/>
<text text-anchor="middle" x="915" y="-222.8" font-family="Times,serif" font-size="14.00">error</text>
</g>
<g id="clust4" class="cluster">
<title>cluster_table</title>
<polygon fill="none" stroke="black" points="1127,-163 1127,-321 1817,-321 1817,-163 1127,-163"/>
<text text-anchor="middle" x="1472" y="-305.8" font-family="Times,serif" font-size="14.00">table</text>
</g>
<g id="clust5" class="cluster">
<title>cluster_event</title>
<polygon fill="none" stroke="black" points="378,-80 378,-238 666,-238 666,-80 378,-80"/>
<text text-anchor="middle" x="522" y="-222.8" font-family="Times,serif" font-size="14.00">event</text>
</g>
<g id="clust6" class="cluster">
<title>cluster_string</title>
<polygon fill="none" stroke="black" points="314,-246 314,-321 394,-321 394,-246 314,-246"/>
<text text-anchor="middle" x="354" y="-305.8" font-family="Times,serif" font-size="14.00">string</text>
</g>
<g id="clust7" class="cluster">
<title>cluster_bcs</title>
<polygon fill="none" stroke="black" points="674,-80 674,-155 770,-155 770,-80 674,-80"/>
<text text-anchor="middle" x="722" y="-139.8" font-family="Times,serif" font-size="14.00">bcs</text>
</g>
<g id="clust8" class="cluster">
<title>cluster_account</title>
<polygon fill="none" stroke="black" points="136,-163 136,-321 306,-321 306,-163 136,-163"/>
<text text-anchor="middle" x="221" y="-305.8" font-family="Times,serif" font-size="14.00">account</text>
</g>
<g id="clust9" class="cluster">
<title>cluster_guid</title>
<polygon fill="none" stroke="black" points="171,-80 171,-155 251,-155 251,-80 171,-80"/>
<text text-anchor="middle" x="211" y="-139.8" font-family="Times,serif" font-size="14.00">guid</text>
</g>
<!-- claim_script -->
<g id="node1" class="node">
<title>claim_script</title>
<ellipse fill="none" stroke="black" cx="766" cy="-566" rx="54.69" ry="18"/>
<text text-anchor="middle" x="766" y="-562.3" font-family="Times,serif" font-size="14.00">claim_script</text>
</g>
<!-- token::create_token_id_raw -->
<g id="node2" class="node">
<title>token::create_token_id_raw</title>
<ellipse fill="none" stroke="black" cx="517" cy="-419" rx="84.49" ry="18"/>
<text text-anchor="middle" x="517" y="-415.3" font-family="Times,serif" font-size="14.00">create_token_id_raw</text>
</g>
<!-- claim_script&#45;&gt;token::create_token_id_raw -->
<g id="edge1" class="edge">
<title>claim_script&#45;&gt;token::create_token_id_raw</title>
<path fill="none" stroke="black" d="M739.82,-549.76C695.57,-523.99 605.83,-471.73 554.77,-442"/>
<polygon fill="black" stroke="black" points="556.81,-439.13 546.41,-437.13 553.29,-445.18 556.81,-439.13"/>
</g>
<!-- claim -->
<g id="node3" class="node">
<title>claim</title>
<ellipse fill="none" stroke="black" cx="1016" cy="-494" rx="30.59" ry="18"/>
<text text-anchor="middle" x="1016" y="-490.3" font-family="Times,serif" font-size="14.00">claim</text>
</g>
<!-- claim_script&#45;&gt;claim -->
<g id="edge2" class="edge">
<title>claim_script&#45;&gt;claim</title>
<path fill="none" stroke="black" d="M806.72,-553.6C854.04,-540.35 931.53,-518.65 977.76,-505.71"/>
<polygon fill="black" stroke="black" points="978.66,-509.09 987.35,-503.02 976.78,-502.35 978.66,-509.09"/>
</g>
<!-- token::create_token_data_id -->
<g id="node4" class="node">
<title>token::create_token_data_id</title>
<ellipse fill="none" stroke="black" cx="688" cy="-347" rx="85.59" ry="18"/>
<text text-anchor="middle" x="688" y="-343.3" font-family="Times,serif" font-size="14.00">create_token_data_id</text>
</g>
<!-- token::create_token_id_raw&#45;&gt;token::create_token_data_id -->
<g id="edge3" class="edge">
<title>token::create_token_id_raw&#45;&gt;token::create_token_data_id</title>
<path fill="none" stroke="black" d="M554.95,-402.46C579.97,-392.22 612.95,-378.72 639.81,-367.73"/>
<polygon fill="black" stroke="black" points="640.83,-371.09 648.75,-364.07 638.17,-364.61 640.83,-371.09"/>
</g>
<!-- signer::address_of -->
<g id="node5" class="node">
<title>signer::address_of</title>
<ellipse fill="none" stroke="black" cx="83" cy="-106" rx="48.99" ry="18"/>
<text text-anchor="middle" x="83" y="-102.3" font-family="Times,serif" font-size="14.00">address_of</text>
</g>
<!-- claim&#45;&gt;signer::address_of -->
<g id="edge4" class="edge">
<title>claim&#45;&gt;signer::address_of</title>
<path fill="none" stroke="black" d="M985.32,-492.9C876.96,-492.39 512.58,-489.08 398,-468 232.96,-437.64 40,-515.81 40,-348 40,-348 40,-348 40,-271 40,-221.5 58.56,-166.26 71.29,-134.19"/>
<polygon fill="black" stroke="black" points="74.4,-135.84 74.94,-125.25 67.92,-133.19 74.4,-135.84"/>
</g>
<!-- error::not_found -->
<g id="node6" class="node">
<title>error::not_found</title>
<ellipse fill="none" stroke="black" cx="997" cy="-189" rx="46.59" ry="18"/>
<text text-anchor="middle" x="997" y="-185.3" font-family="Times,serif" font-size="14.00">not_found</text>
</g>
<!-- claim&#45;&gt;error::not_found -->
<g id="edge5" class="edge">
<title>claim&#45;&gt;error::not_found</title>
<path fill="none" stroke="black" d="M1046.55,-491.49C1080.94,-489.07 1133.63,-482.97 1146,-468 1164.96,-445.04 1151.55,-430.26 1146,-401 1139.1,-364.63 1108.55,-274.56 1085,-246 1072.12,-230.38 1053.71,-217.72 1037.05,-208.42"/>
<polygon fill="black" stroke="black" points="1038.78,-205.38 1028.31,-203.77 1035.5,-211.56 1038.78,-205.38"/>
</g>
<!-- table::contains -->
<g id="node7" class="node">
<title>table::contains</title>
<ellipse fill="none" stroke="black" cx="1449" cy="-272" rx="40.09" ry="18"/>
<text text-anchor="middle" x="1449" y="-268.3" font-family="Times,serif" font-size="14.00">contains</text>
</g>
<!-- claim&#45;&gt;table::contains -->
<g id="edge6" class="edge">
<title>claim&#45;&gt;table::contains</title>
<path fill="none" stroke="black" d="M1046.87,-492.71C1081.46,-491.43 1138.63,-486.37 1184,-468 1282.32,-428.19 1284.17,-378.47 1378,-329 1387.2,-324.15 1391.2,-326.54 1400,-321 1410.17,-314.6 1419.94,-305.78 1428.04,-297.45"/>
<polygon fill="black" stroke="black" points="1430.56,-299.88 1434.8,-290.17 1425.43,-295.12 1430.56,-299.88"/>
</g>
<!-- table::remove -->
<g id="node8" class="node">
<title>table::remove</title>
<ellipse fill="none" stroke="black" cx="1649" cy="-272" rx="37.89" ry="18"/>
<text text-anchor="middle" x="1649" y="-268.3" font-family="Times,serif" font-size="14.00">remove</text>
</g>
<!-- claim&#45;&gt;table::remove -->
<g id="edge7" class="edge">
<title>claim&#45;&gt;table::remove</title>
<path fill="none" stroke="black" d="M1046.91,-492.99C1091.84,-492.24 1177.41,-487.99 1247,-468 1393.44,-425.94 1551.81,-333.63 1617.6,-292.94"/>
<polygon fill="black" stroke="black" points="1619.07,-296.15 1625.71,-287.89 1615.37,-290.21 1619.07,-296.15"/>
</g>
<!-- event::emit_event -->
<g id="node9" class="node">
<title>event::emit_event</title>
<ellipse fill="none" stroke="black" cx="608" cy="-189" rx="50.09" ry="18"/>
<text text-anchor="middle" x="608" y="-185.3" font-family="Times,serif" font-size="14.00">emit_event</text>
</g>
<!-- claim&#45;&gt;event::emit_event -->
<g id="edge8" class="edge">
<title>claim&#45;&gt;event::emit_event</title>
<path fill="none" stroke="black" d="M1046.02,-489.3C1071.36,-485.48 1104.8,-478.58 1113,-468 1131.24,-444.46 1125.74,-427.92 1113,-401 1066.54,-302.8 1025.28,-285.29 924,-246 892.88,-233.93 806.91,-243.56 774,-238 732.27,-230.95 686.13,-217.1 653.11,-206.08"/>
<polygon fill="black" stroke="black" points="654.47,-202.84 643.87,-202.95 652.22,-209.47 654.47,-202.84"/>
</g>
<!-- token::deposit_token -->
<g id="node10" class="node">
<title>token::deposit_token</title>
<ellipse fill="none" stroke="black" cx="850" cy="-419" rx="59.59" ry="18"/>
<text text-anchor="middle" x="850" y="-415.3" font-family="Times,serif" font-size="14.00">deposit_token</text>
</g>
<!-- claim&#45;&gt;token::deposit_token -->
<g id="edge9" class="edge">
<title>claim&#45;&gt;token::deposit_token</title>
<path fill="none" stroke="black" d="M986.65,-488.25C966.91,-484.39 940.66,-477.93 919,-468 904.77,-461.47 890.34,-451.98 878.39,-443.16"/>
<polygon fill="black" stroke="black" points="880.66,-440.49 870.58,-437.22 876.42,-446.06 880.66,-440.49"/>
</g>
<!-- token::get_token_amount -->
<g id="node11" class="node">
<title>token::get_token_amount</title>
<ellipse fill="none" stroke="black" cx="696" cy="-419" rx="76.89" ry="18"/>
<text text-anchor="middle" x="696" y="-415.3" font-family="Times,serif" font-size="14.00">get_token_amount</text>
</g>
<!-- claim&#45;&gt;token::get_token_amount -->
<g id="edge10" class="edge">
<title>claim&#45;&gt;token::get_token_amount</title>
<path fill="none" stroke="black" d="M985.14,-493.65C939.43,-493.75 851.53,-490.59 781,-468 762.6,-462.1 743.73,-451.94 728.45,-442.48"/>
<polygon fill="black" stroke="black" points="730.56,-439.67 720.25,-437.23 726.79,-445.57 730.56,-439.67"/>
</g>
<!-- create_token_offer_id -->
<g id="node12" class="node">
<title>create_token_offer_id</title>
<ellipse fill="none" stroke="black" cx="1016" cy="-419" rx="88.28" ry="18"/>
<text text-anchor="middle" x="1016" y="-415.3" font-family="Times,serif" font-size="14.00">create_token_offer_id</text>
</g>
<!-- claim&#45;&gt;create_token_offer_id -->
<g id="edge11" class="edge">
<title>claim&#45;&gt;create_token_offer_id</title>
<path fill="none" stroke="black" d="M1016,-475.7C1016,-467.67 1016,-457.9 1016,-448.8"/>
<polygon fill="black" stroke="black" points="1019.5,-448.94 1016,-438.94 1012.5,-448.94 1019.5,-448.94"/>
</g>
<!-- string::length -->
<g id="node13" class="node">
<title>string::length</title>
<ellipse fill="none" stroke="black" cx="354" cy="-272" rx="32.49" ry="18"/>
<text text-anchor="middle" x="354" y="-268.3" font-family="Times,serif" font-size="14.00">length</text>
</g>
<!-- token::create_token_data_id&#45;&gt;string::length -->
<g id="edge12" class="edge">
<title>token::create_token_data_id&#45;&gt;string::length</title>
<path fill="none" stroke="black" d="M627.36,-333.88C615.98,-331.97 604.16,-330.22 593,-329 571.44,-326.64 417.67,-330.14 398,-321 387.35,-316.05 378.09,-307.21 370.86,-298.46"/>
<polygon fill="black" stroke="black" points="373.83,-296.58 364.99,-290.73 368.25,-300.81 373.83,-296.58"/>
</g>
<!-- error::invalid_argument -->
<g id="node14" class="node">
<title>error::invalid_argument</title>
<ellipse fill="none" stroke="black" cx="859" cy="-189" rx="73.39" ry="18"/>
<text text-anchor="middle" x="859" y="-185.3" font-family="Times,serif" font-size="14.00">invalid_argument</text>
</g>
<!-- token::create_token_data_id&#45;&gt;error::invalid_argument -->
<g id="edge13" class="edge">
<title>token::create_token_data_id&#45;&gt;error::invalid_argument</title>
<path fill="none" stroke="black" d="M751.27,-334.47C785.21,-328.23 820.29,-321.65 821,-321 836.13,-307.26 848.14,-252.47 854.35,-218.25"/>
<polygon fill="black" stroke="black" points="857.76,-219.05 856.04,-208.6 850.87,-217.84 857.76,-219.05"/>
</g>
<!-- signer::borrow_address -->
<g id="node15" class="node">
<title>signer::borrow_address</title>
<ellipse fill="none" stroke="black" cx="83" cy="-34" rx="66.89" ry="18"/>
<text text-anchor="middle" x="83" y="-30.3" font-family="Times,serif" font-size="14.00">borrow_address</text>
</g>
<!-- signer::address_of&#45;&gt;signer::borrow_address -->
<g id="edge14" class="edge">
<title>signer::address_of&#45;&gt;signer::borrow_address</title>
<path fill="none" stroke="black" d="M83,-87.7C83,-80.41 83,-71.73 83,-63.54"/>
<polygon fill="black" stroke="black" points="86.5,-63.62 83,-53.62 79.5,-63.62 86.5,-63.62"/>
</g>
<!-- error::canonical -->
<g id="node16" class="node">
<title>error::canonical</title>
<ellipse fill="none" stroke="black" cx="928" cy="-106" rx="44.39" ry="18"/>
<text text-anchor="middle" x="928" y="-102.3" font-family="Times,serif" font-size="14.00">canonical</text>
</g>
<!-- error::not_found&#45;&gt;error::canonical -->
<g id="edge15" class="edge">
<title>error::not_found&#45;&gt;error::canonical</title>
<path fill="none" stroke="black" d="M983.04,-171.61C973.31,-160.19 960.16,-144.75 949.15,-131.83"/>
<polygon fill="black" stroke="black" points="952.07,-129.86 942.92,-124.52 946.74,-134.4 952.07,-129.86"/>
</g>
<!-- table::contains_box -->
<g id="node17" class="node">
<title>table::contains_box</title>
<ellipse fill="none" stroke="black" cx="1623" cy="-189" rx="57.69" ry="18"/>
<text text-anchor="middle" x="1623" y="-185.3" font-family="Times,serif" font-size="14.00">contains_box</text>
</g>
<!-- table::contains&#45;&gt;table::contains_box -->
<g id="edge16" class="edge">
<title>table::contains&#45;&gt;table::contains_box</title>
<path fill="none" stroke="black" d="M1484.3,-263.17C1505.7,-257.69 1533.19,-249.31 1556,-238 1569.52,-231.29 1583.27,-221.97 1594.77,-213.32"/>
<polygon fill="black" stroke="black" points="1596.89,-216.1 1602.65,-207.21 1592.6,-210.57 1596.89,-216.1"/>
</g>
<!-- table::remove_box -->
<g id="node18" class="node">
<title>table::remove_box</title>
<ellipse fill="none" stroke="black" cx="1754" cy="-189" rx="55.49" ry="18"/>
<text text-anchor="middle" x="1754" y="-185.3" font-family="Times,serif" font-size="14.00">remove_box</text>
</g>
<!-- table::remove&#45;&gt;table::remove_box -->
<g id="edge17" class="edge">
<title>table::remove&#45;&gt;table::remove_box</title>
<path fill="none" stroke="black" d="M1668.26,-256.14C1683.89,-244.09 1706.19,-226.88 1724.14,-213.04"/>
<polygon fill="black" stroke="black" points="1726.08,-215.96 1731.86,-207.08 1721.81,-210.41 1726.08,-215.96"/>
</g>
<!-- bcs::to_bytes -->
<g id="node19" class="node">
<title>bcs::to_bytes</title>
<ellipse fill="none" stroke="black" cx="722" cy="-106" rx="40.09" ry="18"/>
<text text-anchor="middle" x="722" y="-102.3" font-family="Times,serif" font-size="14.00">to_bytes</text>
</g>
<!-- event::emit_event&#45;&gt;bcs::to_bytes -->
<g id="edge18" class="edge">
<title>event::emit_event&#45;&gt;bcs::to_bytes</title>
<path fill="none" stroke="black" d="M637.62,-174.2C648.19,-168.77 659.96,-162.13 670,-155 680.07,-147.85 690.25,-138.92 698.9,-130.7"/>
<polygon fill="black" stroke="black" points="701.18,-133.37 705.89,-123.88 696.29,-128.36 701.18,-133.37"/>
</g>
<!-- event::write_to_event_store -->
<g id="node20" class="node">
<title>event::write_to_event_store</title>
<ellipse fill="none" stroke="black" cx="573" cy="-106" rx="85.29" ry="18"/>
<text text-anchor="middle" x="573" y="-102.3" font-family="Times,serif" font-size="14.00">write_to_event_store</text>
</g>
<!-- event::emit_event&#45;&gt;event::write_to_event_store -->
<g id="edge19" class="edge">
<title>event::emit_event&#45;&gt;event::write_to_event_store</title>
<path fill="none" stroke="black" d="M600.58,-170.82C596.03,-160.3 590.11,-146.59 584.91,-134.57"/>
<polygon fill="black" stroke="black" points="588.19,-133.33 581.01,-125.54 581.77,-136.11 588.19,-133.33"/>
</g>
<!-- token::deposit_token&#45;&gt;signer::address_of -->
<g id="edge20" class="edge">
<title>token::deposit_token&#45;&gt;signer::address_of</title>
<path fill="none" stroke="black" d="M807.04,-406.22C798.78,-404.25 790.16,-402.4 782,-401 632.68,-375.43 212.54,-427.7 105,-321 55.72,-272.1 66.41,-181.38 75.96,-135.36"/>
<polygon fill="black" stroke="black" points="79.37,-136.15 78.12,-125.63 72.53,-134.63 79.37,-136.15"/>
</g>
<!-- token::direct_deposit -->
<g id="node21" class="node">
<title>token::direct_deposit</title>
<ellipse fill="none" stroke="black" cx="852" cy="-347" rx="60.39" ry="18"/>
<text text-anchor="middle" x="852" y="-343.3" font-family="Times,serif" font-size="14.00">direct_deposit</text>
</g>
<!-- token::deposit_token&#45;&gt;token::direct_deposit -->
<g id="edge21" class="edge">
<title>token::deposit_token&#45;&gt;token::direct_deposit</title>
<path fill="none" stroke="black" d="M850.49,-400.7C850.7,-393.41 850.95,-384.73 851.18,-376.54"/>
<polygon fill="black" stroke="black" points="854.68,-376.71 851.47,-366.62 847.68,-376.51 854.68,-376.71"/>
</g>
<!-- token::initialize_token_store -->
<g id="node22" class="node">
<title>token::initialize_token_store</title>
<ellipse fill="none" stroke="black" cx="497" cy="-347" rx="87.18" ry="18"/>
<text text-anchor="middle" x="497" y="-343.3" font-family="Times,serif" font-size="14.00">initialize_token_store</text>
</g>
<!-- token::deposit_token&#45;&gt;token::initialize_token_store -->
<g id="edge22" class="edge">
<title>token::deposit_token&#45;&gt;token::initialize_token_store</title>
<path fill="none" stroke="black" d="M805.83,-406.54C797.92,-404.61 789.73,-402.68 782,-401 743.02,-392.51 643.04,-374.21 572.55,-361.51"/>
<polygon fill="black" stroke="black" points="573.45,-358.12 562.99,-359.79 572.21,-365.01 573.45,-358.12"/>
</g>
<!-- error::invalid_argument&#45;&gt;error::canonical -->
<g id="edge23" class="edge">
<title>error::invalid_argument&#45;&gt;error::canonical</title>
<path fill="none" stroke="black" d="M873.3,-171.22C882.89,-159.96 895.7,-144.92 906.51,-132.22"/>
<polygon fill="black" stroke="black" points="909.16,-134.52 912.98,-124.64 903.83,-129.98 909.16,-134.52"/>
</g>
<!-- token::direct_deposit&#45;&gt;error::not_found -->
<g id="edge25" class="edge">
<title>token::direct_deposit&#45;&gt;error::not_found</title>
<path fill="none" stroke="black" d="M867.52,-329.31C893.16,-301.72 944.5,-246.48 974.25,-214.48"/>
<polygon fill="black" stroke="black" points="976.75,-216.92 981,-207.22 971.63,-212.16 976.75,-216.92"/>
</g>
<!-- token::direct_deposit&#45;&gt;table::contains -->
<g id="edge26" class="edge">
<title>token::direct_deposit&#45;&gt;table::contains</title>
<path fill="none" stroke="black" d="M911.3,-342.86C979.5,-339.29 1094.82,-333.39 1194,-329 1216.88,-327.99 1378.96,-330.07 1400,-321 1411.48,-316.05 1421.79,-307.09 1429.95,-298.23"/>
<polygon fill="black" stroke="black" points="1432.54,-300.59 1436.38,-290.72 1427.22,-296.04 1432.54,-300.59"/>
</g>
<!-- token::direct_deposit&#45;&gt;event::emit_event -->
<g id="edge29" class="edge">
<title>token::direct_deposit&#45;&gt;event::emit_event</title>
<path fill="none" stroke="black" d="M807.19,-334.48C799.16,-332.55 790.85,-330.65 783,-329 762.69,-324.74 755.38,-330.63 737,-321 689.04,-295.87 647.99,-246.52 625.76,-216.09"/>
<polygon fill="black" stroke="black" points="628.76,-214.26 620.1,-208.16 623.06,-218.33 628.76,-214.26"/>
</g>
<!-- token::direct_deposit&#45;&gt;error::invalid_argument -->
<g id="edge24" class="edge">
<title>token::direct_deposit&#45;&gt;error::invalid_argument</title>
<path fill="none" stroke="black" d="M853.49,-328.52C853.68,-326 853.86,-323.43 854,-321 856.07,-285.89 857.47,-245.44 858.24,-218.88"/>
<polygon fill="black" stroke="black" points="861.74,-218.99 858.52,-208.9 854.74,-218.8 861.74,-218.99"/>
</g>
<!-- table::borrow_mut -->
<g id="node23" class="node">
<title>table::borrow_mut</title>
<ellipse fill="none" stroke="black" cx="1336" cy="-272" rx="54.69" ry="18"/>
<text text-anchor="middle" x="1336" y="-268.3" font-family="Times,serif" font-size="14.00">borrow_mut</text>
</g>
<!-- token::direct_deposit&#45;&gt;table::borrow_mut -->
<g id="edge27" class="edge">
<title>token::direct_deposit&#45;&gt;table::borrow_mut</title>
<path fill="none" stroke="black" d="M911.48,-343.36C1023.35,-338.28 1255.39,-327.09 1272,-321 1286.26,-315.77 1300.02,-306.25 1311.1,-297.05"/>
<polygon fill="black" stroke="black" points="1313.37,-299.72 1318.59,-290.51 1308.76,-294.45 1313.37,-299.72"/>
</g>
<!-- table::add -->
<g id="node24" class="node">
<title>table::add</title>
<ellipse fill="none" stroke="black" cx="1236" cy="-272" rx="27" ry="18"/>
<text text-anchor="middle" x="1236" y="-268.3" font-family="Times,serif" font-size="14.00">add</text>
</g>
<!-- token::direct_deposit&#45;&gt;table::add -->
<g id="edge28" class="edge">
<title>token::direct_deposit&#45;&gt;table::add</title>
<path fill="none" stroke="black" d="M912.16,-344.38C1005.08,-341.48 1175.44,-334.4 1200,-321 1209.2,-315.98 1216.73,-307.49 1222.48,-299.03"/>
<polygon fill="black" stroke="black" points="1225.39,-300.98 1227.62,-290.62 1219.42,-297.33 1225.39,-300.98"/>
</g>
<!-- token::merge -->
<g id="node25" class="node">
<title>token::merge</title>
<ellipse fill="none" stroke="black" cx="779" cy="-272" rx="33.29" ry="18"/>
<text text-anchor="middle" x="779" y="-268.3" font-family="Times,serif" font-size="14.00">merge</text>
</g>
<!-- token::direct_deposit&#45;&gt;token::merge -->
<g id="edge30" class="edge">
<title>token::direct_deposit&#45;&gt;token::merge</title>
<path fill="none" stroke="black" d="M835.44,-329.44C825.51,-319.51 812.75,-306.75 801.88,-295.88"/>
<polygon fill="black" stroke="black" points="804.63,-293.68 795.08,-289.08 799.68,-298.63 804.63,-293.68"/>
</g>
<!-- token::initialize_token_store&#45;&gt;signer::address_of -->
<g id="edge31" class="edge">
<title>token::initialize_token_store&#45;&gt;signer::address_of</title>
<path fill="none" stroke="black" d="M409.83,-345.4C308.57,-343.87 152.64,-338.64 132,-321 117.86,-308.92 96.8,-190.87 87.59,-135.45"/>
<polygon fill="black" stroke="black" points="91.08,-135.13 86.01,-125.83 84.18,-136.26 91.08,-135.13"/>
</g>
<!-- table::new -->
<g id="node26" class="node">
<title>table::new</title>
<ellipse fill="none" stroke="black" cx="1164" cy="-272" rx="27" ry="18"/>
<text text-anchor="middle" x="1164" y="-268.3" font-family="Times,serif" font-size="14.00">new</text>
</g>
<!-- token::initialize_token_store&#45;&gt;table::new -->
<g id="edge32" class="edge">
<title>token::initialize_token_store&#45;&gt;table::new</title>
<path fill="none" stroke="black" d="M558.01,-333.77C569.58,-331.86 581.63,-330.14 593,-329 739.42,-314.35 777.75,-337.27 924,-321 997.19,-312.86 1081.28,-293.74 1127.97,-282.24"/>
<polygon fill="black" stroke="black" points="1128.67,-285.67 1137.53,-279.86 1126.98,-278.88 1128.67,-285.67"/>
</g>
<!-- account::new_event_handle -->
<g id="node27" class="node">
<title>account::new_event_handle</title>
<ellipse fill="none" stroke="black" cx="221" cy="-272" rx="76.89" ry="18"/>
<text text-anchor="middle" x="221" y="-268.3" font-family="Times,serif" font-size="14.00">new_event_handle</text>
</g>
<!-- token::initialize_token_store&#45;&gt;account::new_event_handle -->
<g id="edge33" class="edge">
<title>token::initialize_token_store&#45;&gt;account::new_event_handle</title>
<path fill="none" stroke="black" d="M413.65,-341.35C380.76,-337.84 343.02,-331.72 310,-321 290.92,-314.81 271.14,-304.58 255.08,-295.15"/>
<polygon fill="black" stroke="black" points="257.27,-292.39 246.9,-290.21 253.65,-298.38 257.27,-292.39"/>
</g>
<!-- table::borrow_box_mut -->
<g id="node28" class="node">
<title>table::borrow_box_mut</title>
<ellipse fill="none" stroke="black" cx="1475" cy="-189" rx="72.29" ry="18"/>
<text text-anchor="middle" x="1475" y="-185.3" font-family="Times,serif" font-size="14.00">borrow_box_mut</text>
</g>
<!-- table::borrow_mut&#45;&gt;table::borrow_box_mut -->
<g id="edge34" class="edge">
<title>table::borrow_mut&#45;&gt;table::borrow_box_mut</title>
<path fill="none" stroke="black" d="M1362.62,-255.98C1372.5,-250.38 1383.78,-243.93 1394,-238 1408.56,-229.54 1424.52,-220.12 1438.39,-211.88"/>
<polygon fill="black" stroke="black" points="1439.97,-215.02 1446.77,-206.89 1436.39,-209 1439.97,-215.02"/>
</g>
<!-- table::add_box -->
<g id="node29" class="node">
<title>table::add_box</title>
<ellipse fill="none" stroke="black" cx="1344" cy="-189" rx="40.89" ry="18"/>
<text text-anchor="middle" x="1344" y="-185.3" font-family="Times,serif" font-size="14.00">add_box</text>
</g>
<!-- table::add&#45;&gt;table::add_box -->
<g id="edge35" class="edge">
<title>table::add&#45;&gt;table::add_box</title>
<path fill="none" stroke="black" d="M1253.01,-257.85C1258.83,-253.71 1265.51,-249.36 1272,-246 1281.24,-241.22 1285.17,-243.5 1294,-238 1304.42,-231.51 1314.47,-222.57 1322.8,-214.17"/>
<polygon fill="black" stroke="black" points="1325.11,-216.81 1329.46,-207.15 1320.04,-212 1325.11,-216.81"/>
</g>
<!-- token::merge&#45;&gt;error::invalid_argument -->
<g id="edge36" class="edge">
<title>token::merge&#45;&gt;error::invalid_argument</title>
<path fill="none" stroke="black" d="M794.05,-255.76C805.44,-244.23 821.33,-228.14 834.55,-214.76"/>
<polygon fill="black" stroke="black" points="836.76,-217.5 841.3,-207.92 831.78,-212.58 836.76,-217.5"/>
</g>
<!-- table::new_table_handle -->
<g id="node30" class="node">
<title>table::new_table_handle</title>
<ellipse fill="none" stroke="black" cx="1210" cy="-189" rx="74.99" ry="18"/>
<text text-anchor="middle" x="1210" y="-185.3" font-family="Times,serif" font-size="14.00">new_table_handle</text>
</g>
<!-- table::new&#45;&gt;table::new_table_handle -->
<g id="edge37" class="edge">
<title>table::new&#45;&gt;table::new_table_handle</title>
<path fill="none" stroke="black" d="M1173.31,-254.61C1179.42,-243.85 1187.56,-229.51 1194.62,-217.08"/>
<polygon fill="black" stroke="black" points="1197.59,-218.95 1199.48,-208.52 1191.5,-215.49 1197.59,-218.95"/>
</g>
<!-- event::new_event_handle -->
<g id="node31" class="node">
<title>event::new_event_handle</title>
<ellipse fill="none" stroke="black" cx="463" cy="-189" rx="76.89" ry="18"/>
<text text-anchor="middle" x="463" y="-185.3" font-family="Times,serif" font-size="14.00">new_event_handle</text>
</g>
<!-- account::new_event_handle&#45;&gt;event::new_event_handle -->
<g id="edge38" class="edge">
<title>account::new_event_handle&#45;&gt;event::new_event_handle</title>
<path fill="none" stroke="black" d="M263.71,-256.71C304.36,-243.1 365.68,-222.57 409.56,-207.89"/>
<polygon fill="black" stroke="black" points="410.51,-211.26 418.88,-204.77 408.28,-204.62 410.51,-211.26"/>
</g>
<!-- account::create_guid -->
<g id="node32" class="node">
<title>account::create_guid</title>
<ellipse fill="none" stroke="black" cx="211" cy="-189" rx="51.99" ry="18"/>
<text text-anchor="middle" x="211" y="-185.3" font-family="Times,serif" font-size="14.00">create_guid</text>
</g>
<!-- account::new_event_handle&#45;&gt;account::create_guid -->
<g id="edge39" class="edge">
<title>account::new_event_handle&#45;&gt;account::create_guid</title>
<path fill="none" stroke="black" d="M218.88,-253.82C217.62,-243.58 215.98,-230.33 214.52,-218.55"/>
<polygon fill="black" stroke="black" points="218.04,-218.43 213.34,-208.93 211.09,-219.29 218.04,-218.43"/>
</g>
<!-- account::create_guid&#45;&gt;signer::address_of -->
<g id="edge40" class="edge">
<title>account::create_guid&#45;&gt;signer::address_of</title>
<path fill="none" stroke="black" d="M186.92,-172.76C167.08,-160.21 138.71,-142.25 116.62,-128.28"/>
<polygon fill="black" stroke="black" points="118.57,-125.37 108.25,-122.98 114.83,-131.28 118.57,-125.37"/>
</g>
<!-- guid::create -->
<g id="node33" class="node">
<title>guid::create</title>
<ellipse fill="none" stroke="black" cx="211" cy="-106" rx="31.7" ry="18"/>
<text text-anchor="middle" x="211" y="-102.3" font-family="Times,serif" font-size="14.00">create</text>
</g>
<!-- account::create_guid&#45;&gt;guid::create -->
<g id="edge41" class="edge">
<title>account::create_guid&#45;&gt;guid::create</title>
<path fill="none" stroke="black" d="M211,-170.82C211,-160.69 211,-147.6 211,-135.92"/>
<polygon fill="black" stroke="black" points="214.5,-135.95 211,-125.95 207.5,-135.95 214.5,-135.95"/>
</g>
</g>
</svg>
