<?xml version="1.0" encoding="UTF-8" standalone="no"?>
<!DOCTYPE svg PUBLIC "-//W3C//DTD SVG 1.1//EN"
 "http://www.w3.org/Graphics/SVG/1.1/DTD/svg11.dtd">
<!-- Generated by graphviz version 7.0.4 (20221203.1631)
 -->
<!-- Title: G Pages: 1 -->
<svg width="1368pt" height="531pt"
 viewBox="0.00 0.00 1368.00 531.00" xmlns="http://www.w3.org/2000/svg" xmlns:xlink="http://www.w3.org/1999/xlink">
<g id="graph0" class="graph" transform="scale(1 1) rotate(0) translate(4 527)">
<title>G</title>
<polygon fill="white" stroke="none" points="-4,4 -4,-527 1364,-527 1364,4 -4,4"/>
<g id="clust3" class="cluster">
<title>cluster_token_event_store</title>
<polygon fill="none" stroke="black" points="632,-329 632,-479 932,-479 932,-329 632,-329"/>
<text text-anchor="middle" x="782" y="-463.8" font-family="Times,serif" font-size="14.00">token_event_store</text>
</g>
<g id="clust1" class="cluster">
<title>cluster_error</title>
<polygon fill="none" stroke="black" points="8,-246 8,-404 290,-404 290,-246 8,-246"/>
<text text-anchor="middle" x="149" y="-388.8" font-family="Times,serif" font-size="14.00">error</text>
</g>
<g id="clust2" class="cluster">
<title>cluster_table</title>
<polygon fill="none" stroke="black" points="330,-246 330,-404 624,-404 624,-246 330,-246"/>
<text text-anchor="middle" x="477" y="-388.8" font-family="Times,serif" font-size="14.00">table</text>
</g>
<g id="clust4" class="cluster">
<title>cluster_signer</title>
<polygon fill="none" stroke="black" points="588,-8 588,-155 738,-155 738,-8 588,-8"/>
<text text-anchor="middle" x="663" y="-139.8" font-family="Times,serif" font-size="14.00">signer</text>
</g>
<g id="clust5" class="cluster">
<title>cluster_event</title>
<polygon fill="none" stroke="black" points="960,-80 960,-238 1248,-238 1248,-80 960,-80"/>
<text text-anchor="middle" x="1104" y="-222.8" font-family="Times,serif" font-size="14.00">event</text>
</g>
<g id="clust6" class="cluster">
<title>cluster_bcs</title>
<polygon fill="none" stroke="black" points="1256,-80 1256,-155 1352,-155 1352,-80 1256,-80"/>
<text text-anchor="middle" x="1304" y="-139.8" font-family="Times,serif" font-size="14.00">bcs</text>
</g>
<g id="clust7" class="cluster">
<title>cluster_option</title>
<polygon fill="none" stroke="black" points="702,-246 702,-321 774,-321 774,-246 702,-246"/>
<text text-anchor="middle" x="738" y="-305.8" font-family="Times,serif" font-size="14.00">option</text>
</g>
<g id="clust8" class="cluster">
<title>cluster_account</title>
<polygon fill="none" stroke="black" points="782,-163 782,-321 952,-321 952,-163 782,-163"/>
<text text-anchor="middle" x="867" y="-305.8" font-family="Times,serif" font-size="14.00">account</text>
</g>
<g id="clust9" class="cluster">
<title>cluster_guid</title>
<polygon fill="none" stroke="black" points="814,-80 814,-155 894,-155 894,-80 814,-80"/>
<text text-anchor="middle" x="854" y="-139.8" font-family="Times,serif" font-size="14.00">guid</text>
</g>
<!-- mutate_tokendata_description -->
<g id="node1" class="node">
<title>mutate_tokendata_description</title>
<ellipse fill="none" stroke="black" cx="371" cy="-505" rx="116.98" ry="18"/>
<text text-anchor="middle" x="371" y="-501.3" font-family="Times,serif" font-size="14.00">mutate_tokendata_description</text>
</g>
<!-- error::permission_denied -->
<g id="node2" class="node">
<title>error::permission_denied</title>
<ellipse fill="none" stroke="black" cx="93" cy="-355" rx="77.19" ry="18"/>
<text text-anchor="middle" x="93" y="-351.3" font-family="Times,serif" font-size="14.00">permission_denied</text>
</g>
<!-- mutate_tokendata_description&#45;&gt;error::permission_denied -->
<g id="edge1" class="edge">
<title>mutate_tokendata_description&#45;&gt;error::permission_denied</title>
<path fill="none" stroke="black" d="M274.08,-494.62C245.88,-490.71 219.34,-485.54 207,-479 164.43,-456.44 129.26,-411.65 109.71,-382.79"/>
<polygon fill="black" stroke="black" points="112.72,-381 104.29,-374.58 106.88,-384.85 112.72,-381"/>
</g>
<!-- table::borrow_mut -->
<g id="node3" class="node">
<title>table::borrow_mut</title>
<ellipse fill="none" stroke="black" cx="522" cy="-355" rx="54.69" ry="18"/>
<text text-anchor="middle" x="522" y="-351.3" font-family="Times,serif" font-size="14.00">borrow_mut</text>
</g>
<!-- mutate_tokendata_description&#45;&gt;table::borrow_mut -->
<g id="edge2" class="edge">
<title>mutate_tokendata_description&#45;&gt;table::borrow_mut</title>
<path fill="none" stroke="black" d="M401.59,-487.32C405.56,-484.72 409.47,-481.92 413,-479 448.44,-449.68 482.46,-408.51 502.81,-382.04"/>
<polygon fill="black" stroke="black" points="505.49,-384.3 508.75,-374.21 499.91,-380.07 505.49,-384.3"/>
</g>
<!-- token_event_store::emit_token_descrition_mutate_event -->
<g id="node4" class="node">
<title>token_event_store::emit_token_descrition_mutate_event</title>
<ellipse fill="none" stroke="black" cx="782" cy="-430" rx="141.88" ry="18"/>
<text text-anchor="middle" x="782" y="-426.3" font-family="Times,serif" font-size="14.00">emit_token_descrition_mutate_event</text>
</g>
<!-- mutate_tokendata_description&#45;&gt;token_event_store::emit_token_descrition_mutate_event -->
<g id="edge3" class="edge">
<title>mutate_tokendata_description&#45;&gt;token_event_store::emit_token_descrition_mutate_event</title>
<path fill="none" stroke="black" d="M445.43,-490.78C514.3,-478.55 616.88,-460.33 690.67,-447.22"/>
<polygon fill="black" stroke="black" points="691.08,-450.7 700.31,-445.51 689.86,-443.81 691.08,-450.7"/>
</g>
<!-- assert_tokendata_exists -->
<g id="node5" class="node">
<title>assert_tokendata_exists</title>
<ellipse fill="none" stroke="black" cx="310" cy="-430" rx="93.68" ry="18"/>
<text text-anchor="middle" x="310" y="-426.3" font-family="Times,serif" font-size="14.00">assert_tokendata_exists</text>
</g>
<!-- mutate_tokendata_description&#45;&gt;assert_tokendata_exists -->
<g id="edge4" class="edge">
<title>mutate_tokendata_description&#45;&gt;assert_tokendata_exists</title>
<path fill="none" stroke="black" d="M356.54,-486.7C349.1,-477.79 339.87,-466.75 331.6,-456.85"/>
<polygon fill="black" stroke="black" points="334.42,-454.77 325.32,-449.34 329.05,-459.26 334.42,-454.77"/>
</g>
<!-- error::canonical -->
<g id="node6" class="node">
<title>error::canonical</title>
<ellipse fill="none" stroke="black" cx="164" cy="-272" rx="44.39" ry="18"/>
<text text-anchor="middle" x="164" y="-268.3" font-family="Times,serif" font-size="14.00">canonical</text>
</g>
<!-- error::permission_denied&#45;&gt;error::canonical -->
<g id="edge5" class="edge">
<title>error::permission_denied&#45;&gt;error::canonical</title>
<path fill="none" stroke="black" d="M107.71,-337.22C117.68,-325.85 131.02,-310.63 142.21,-297.86"/>
<polygon fill="black" stroke="black" points="144.59,-300.45 148.55,-290.62 139.33,-295.84 144.59,-300.45"/>
</g>
<!-- table::borrow_box_mut -->
<g id="node7" class="node">
<title>table::borrow_box_mut</title>
<ellipse fill="none" stroke="black" cx="544" cy="-272" rx="72.29" ry="18"/>
<text text-anchor="middle" x="544" y="-268.3" font-family="Times,serif" font-size="14.00">borrow_box_mut</text>
</g>
<!-- table::borrow_mut&#45;&gt;table::borrow_box_mut -->
<g id="edge6" class="edge">
<title>table::borrow_mut&#45;&gt;table::borrow_box_mut</title>
<path fill="none" stroke="black" d="M526.67,-336.82C529.48,-326.48 533.12,-313.05 536.35,-301.18"/>
<polygon fill="black" stroke="black" points="539.63,-302.46 538.87,-291.89 532.87,-300.63 539.63,-302.46"/>
</g>
<!-- signer::address_of -->
<g id="node8" class="node">
<title>signer::address_of</title>
<ellipse fill="none" stroke="black" cx="663" cy="-106" rx="48.99" ry="18"/>
<text text-anchor="middle" x="663" y="-102.3" font-family="Times,serif" font-size="14.00">address_of</text>
</g>
<!-- token_event_store::emit_token_descrition_mutate_event&#45;&gt;signer::address_of -->
<g id="edge7" class="edge">
<title>token_event_store::emit_token_descrition_mutate_event&#45;&gt;signer::address_of</title>
<path fill="none" stroke="black" d="M687.14,-416.26C675.96,-413.02 667.07,-408.99 663,-404 629.99,-363.59 649.18,-201.42 658.66,-135.29"/>
<polygon fill="black" stroke="black" points="662.09,-136.01 660.08,-125.61 655.17,-134.99 662.09,-136.01"/>
</g>
<!-- event::emit_event -->
<g id="node9" class="node">
<title>event::emit_event</title>
<ellipse fill="none" stroke="black" cx="1190" cy="-189" rx="50.09" ry="18"/>
<text text-anchor="middle" x="1190" y="-185.3" font-family="Times,serif" font-size="14.00">emit_event</text>
</g>
<!-- token_event_store::emit_token_descrition_mutate_event&#45;&gt;event::emit_event -->
<g id="edge8" class="edge">
<title>token_event_store::emit_token_descrition_mutate_event&#45;&gt;event::emit_event</title>
<path fill="none" stroke="black" d="M868.19,-415.39C879.46,-412.31 890.67,-408.57 901,-404 1010.94,-355.42 1118.96,-258.88 1165.78,-213.99"/>
<polygon fill="black" stroke="black" points="1167.96,-216.75 1172.71,-207.28 1163.09,-211.72 1167.96,-216.75"/>
</g>
<!-- token_event_store::initialize_token_event_store -->
<g id="node10" class="node">
<title>token_event_store::initialize_token_event_store</title>
<ellipse fill="none" stroke="black" cx="782" cy="-355" rx="110.48" ry="18"/>
<text text-anchor="middle" x="782" y="-351.3" font-family="Times,serif" font-size="14.00">initialize_token_event_store</text>
</g>
<!-- token_event_store::emit_token_descrition_mutate_event&#45;&gt;token_event_store::initialize_token_event_store -->
<g id="edge9" class="edge">
<title>token_event_store::emit_token_descrition_mutate_event&#45;&gt;token_event_store::initialize_token_event_store</title>
<path fill="none" stroke="black" d="M782,-411.7C782,-403.67 782,-393.9 782,-384.8"/>
<polygon fill="black" stroke="black" points="785.5,-384.94 782,-374.94 778.5,-384.94 785.5,-384.94"/>
</g>
<!-- assert_tokendata_exists&#45;&gt;error::permission_denied -->
<g id="edge12" class="edge">
<title>assert_tokendata_exists&#45;&gt;error::permission_denied</title>
<path fill="none" stroke="black" d="M234.75,-418.91C216.21,-415.27 196.62,-410.41 179,-404 161.07,-397.48 142.44,-387.53 127.12,-378.37"/>
<polygon fill="black" stroke="black" points="129.21,-375.55 118.86,-373.31 125.55,-381.52 129.21,-375.55"/>
</g>
<!-- assert_tokendata_exists&#45;&gt;signer::address_of -->
<g id="edge10" class="edge">
<title>assert_tokendata_exists&#45;&gt;signer::address_of</title>
<path fill="none" stroke="black" d="M306.08,-411.59C299.23,-376.48 289.1,-296.25 326,-246 392.14,-155.93 527.36,-123.98 604.9,-112.83"/>
<polygon fill="black" stroke="black" points="604.97,-116.35 614.41,-111.53 604.03,-109.41 604.97,-116.35"/>
</g>
<!-- error::not_found -->
<g id="node11" class="node">
<title>error::not_found</title>
<ellipse fill="none" stroke="black" cx="235" cy="-355" rx="46.59" ry="18"/>
<text text-anchor="middle" x="235" y="-351.3" font-family="Times,serif" font-size="14.00">not_found</text>
</g>
<!-- assert_tokendata_exists&#45;&gt;error::not_found -->
<g id="edge11" class="edge">
<title>assert_tokendata_exists&#45;&gt;error::not_found</title>
<path fill="none" stroke="black" d="M292.6,-412.07C282.84,-402.56 270.49,-390.54 259.73,-380.07"/>
<polygon fill="black" stroke="black" points="262.22,-377.61 252.61,-373.14 257.34,-382.63 262.22,-377.61"/>
</g>
<!-- table::contains -->
<g id="node12" class="node">
<title>table::contains</title>
<ellipse fill="none" stroke="black" cx="387" cy="-355" rx="40.09" ry="18"/>
<text text-anchor="middle" x="387" y="-351.3" font-family="Times,serif" font-size="14.00">contains</text>
</g>
<!-- assert_tokendata_exists&#45;&gt;table::contains -->
<g id="edge13" class="edge">
<title>assert_tokendata_exists&#45;&gt;table::contains</title>
<path fill="none" stroke="black" d="M327.86,-412.07C338.05,-402.4 350.99,-390.14 362.17,-379.54"/>
<polygon fill="black" stroke="black" points="364.34,-382.3 369.19,-372.88 359.53,-377.22 364.34,-382.3"/>
</g>
<!-- signer::borrow_address -->
<g id="node13" class="node">
<title>signer::borrow_address</title>
<ellipse fill="none" stroke="black" cx="663" cy="-34" rx="66.89" ry="18"/>
<text text-anchor="middle" x="663" y="-30.3" font-family="Times,serif" font-size="14.00">borrow_address</text>
</g>
<!-- signer::address_of&#45;&gt;signer::borrow_address -->
<g id="edge14" class="edge">
<title>signer::address_of&#45;&gt;signer::borrow_address</title>
<path fill="none" stroke="black" d="M663,-87.7C663,-80.41 663,-71.73 663,-63.54"/>
<polygon fill="black" stroke="black" points="666.5,-63.62 663,-53.62 659.5,-63.62 666.5,-63.62"/>
</g>
<!-- bcs::to_bytes -->
<g id="node14" class="node">
<title>bcs::to_bytes</title>
<ellipse fill="none" stroke="black" cx="1304" cy="-106" rx="40.09" ry="18"/>
<text text-anchor="middle" x="1304" y="-102.3" font-family="Times,serif" font-size="14.00">to_bytes</text>
</g>
<!-- event::emit_event&#45;&gt;bcs::to_bytes -->
<g id="edge15" class="edge">
<title>event::emit_event&#45;&gt;bcs::to_bytes</title>
<path fill="none" stroke="black" d="M1219.62,-174.2C1230.19,-168.77 1241.96,-162.13 1252,-155 1262.07,-147.85 1272.25,-138.92 1280.9,-130.7"/>
<polygon fill="black" stroke="black" points="1283.18,-133.37 1287.89,-123.88 1278.29,-128.36 1283.18,-133.37"/>
</g>
<!-- event::write_to_event_store -->
<g id="node15" class="node">
<title>event::write_to_event_store</title>
<ellipse fill="none" stroke="black" cx="1155" cy="-106" rx="85.29" ry="18"/>
<text text-anchor="middle" x="1155" y="-102.3" font-family="Times,serif" font-size="14.00">write_to_event_store</text>
</g>
<!-- event::emit_event&#45;&gt;event::write_to_event_store -->
<g id="edge16" class="edge">
<title>event::emit_event&#45;&gt;event::write_to_event_store</title>
<path fill="none" stroke="black" d="M1182.58,-170.82C1178.03,-160.3 1172.11,-146.59 1166.91,-134.57"/>
<polygon fill="black" stroke="black" points="1170.19,-133.33 1163.01,-125.54 1163.77,-136.11 1170.19,-133.33"/>
</g>
<!-- token_event_store::initialize_token_event_store&#45;&gt;signer::address_of -->
<g id="edge18" class="edge">
<title>token_event_store::initialize_token_event_store&#45;&gt;signer::address_of</title>
<path fill="none" stroke="black" d="M722.18,-339.53C712.96,-334.95 704.4,-328.92 698,-321 675.34,-292.94 666.99,-186.97 664.23,-135.46"/>
<polygon fill="black" stroke="black" points="667.73,-135.51 663.74,-125.7 660.74,-135.86 667.73,-135.51"/>
</g>
<!-- option::none -->
<g id="node16" class="node">
<title>option::none</title>
<ellipse fill="none" stroke="black" cx="738" cy="-272" rx="27.9" ry="18"/>
<text text-anchor="middle" x="738" y="-268.3" font-family="Times,serif" font-size="14.00">none</text>
</g>
<!-- token_event_store::initialize_token_event_store&#45;&gt;option::none -->
<g id="edge17" class="edge">
<title>token_event_store::initialize_token_event_store&#45;&gt;option::none</title>
<path fill="none" stroke="black" d="M772.67,-336.82C766.72,-325.87 758.89,-311.45 752.18,-299.1"/>
<polygon fill="black" stroke="black" points="755.44,-297.77 747.59,-290.65 749.29,-301.11 755.44,-297.77"/>
</g>
<!-- account::new_event_handle -->
<g id="node17" class="node">
<title>account::new_event_handle</title>
<ellipse fill="none" stroke="black" cx="867" cy="-272" rx="76.89" ry="18"/>
<text text-anchor="middle" x="867" y="-268.3" font-family="Times,serif" font-size="14.00">new_event_handle</text>
</g>
<!-- token_event_store::initialize_token_event_store&#45;&gt;account::new_event_handle -->
<g id="edge19" class="edge">
<title>token_event_store::initialize_token_event_store&#45;&gt;account::new_event_handle</title>
<path fill="none" stroke="black" d="M800.03,-336.82C811.94,-325.47 827.74,-310.41 841.01,-297.77"/>
<polygon fill="black" stroke="black" points="843.37,-300.35 848.2,-290.92 838.54,-295.28 843.37,-300.35"/>
</g>
<!-- error::not_found&#45;&gt;error::canonical -->
<g id="edge20" class="edge">
<title>error::not_found&#45;&gt;error::canonical</title>
<path fill="none" stroke="black" d="M220.63,-337.61C210.62,-326.19 197.09,-310.75 185.77,-297.83"/>
<polygon fill="black" stroke="black" points="188.57,-295.72 179.34,-290.51 183.3,-300.33 188.57,-295.72"/>
</g>
<!-- table::contains_box -->
<g id="node18" class="node">
<title>table::contains_box</title>
<ellipse fill="none" stroke="black" cx="396" cy="-272" rx="57.69" ry="18"/>
<text text-anchor="middle" x="396" y="-268.3" font-family="Times,serif" font-size="14.00">contains_box</text>
</g>
<!-- table::contains&#45;&gt;table::contains_box -->
<g id="edge21" class="edge">
<title>table::contains&#45;&gt;table::contains_box</title>
<path fill="none" stroke="black" d="M388.91,-336.82C390.05,-326.58 391.52,-313.33 392.83,-301.55"/>
<polygon fill="black" stroke="black" points="396.27,-302.26 393.9,-291.94 389.31,-301.49 396.27,-302.26"/>
</g>
<!-- event::new_event_handle -->
<g id="node19" class="node">
<title>event::new_event_handle</title>
<ellipse fill="none" stroke="black" cx="1045" cy="-189" rx="76.89" ry="18"/>
<text text-anchor="middle" x="1045" y="-185.3" font-family="Times,serif" font-size="14.00">new_event_handle</text>
</g>
<!-- account::new_event_handle&#45;&gt;event::new_event_handle -->
<g id="edge22" class="edge">
<title>account::new_event_handle&#45;&gt;event::new_event_handle</title>
<path fill="none" stroke="black" d="M909.59,-256.58C924.46,-251.18 941.14,-244.72 956,-238 973.32,-230.16 991.91,-220.37 1007.6,-211.68"/>
<polygon fill="black" stroke="black" points="1009.12,-214.84 1016.13,-206.89 1005.69,-208.73 1009.12,-214.84"/>
</g>
<!-- account::create_guid -->
<g id="node20" class="node">
<title>account::create_guid</title>
<ellipse fill="none" stroke="black" cx="854" cy="-189" rx="51.99" ry="18"/>
<text text-anchor="middle" x="854" y="-185.3" font-family="Times,serif" font-size="14.00">create_guid</text>
</g>
<!-- account::new_event_handle&#45;&gt;account::create_guid -->
<g id="edge23" class="edge">
<title>account::new_event_handle&#45;&gt;account::create_guid</title>
<path fill="none" stroke="black" d="M864.24,-253.82C862.6,-243.58 860.47,-230.33 858.58,-218.55"/>
<polygon fill="black" stroke="black" points="862.08,-218.25 857.04,-208.93 855.17,-219.36 862.08,-218.25"/>
</g>
<!-- account::create_guid&#45;&gt;signer::address_of -->
<g id="edge24" class="edge">
<title>account::create_guid&#45;&gt;signer::address_of</title>
<path fill="none" stroke="black" d="M822.03,-174.44C789.79,-160.77 739.87,-139.6 704.57,-124.63"/>
<polygon fill="black" stroke="black" points="706.09,-121.47 695.52,-120.79 703.35,-127.92 706.09,-121.47"/>
</g>
<!-- guid::create -->
<g id="node21" class="node">
<title>guid::create</title>
<ellipse fill="none" stroke="black" cx="854" cy="-106" rx="31.7" ry="18"/>
<text text-anchor="middle" x="854" y="-102.3" font-family="Times,serif" font-size="14.00">create</text>
</g>
<!-- account::create_guid&#45;&gt;guid::create -->
<g id="edge25" class="edge">
<title>account::create_guid&#45;&gt;guid::create</title>
<path fill="none" stroke="black" d="M854,-170.82C854,-160.69 854,-147.6 854,-135.92"/>
<polygon fill="black" stroke="black" points="857.5,-135.95 854,-125.95 850.5,-135.95 857.5,-135.95"/>
</g>
</g>
</svg>
