<?xml version="1.0" encoding="UTF-8" standalone="no"?>
<!DOCTYPE svg PUBLIC "-//W3C//DTD SVG 1.1//EN"
 "http://www.w3.org/Graphics/SVG/1.1/DTD/svg11.dtd">
<!-- Generated by graphviz version 7.0.4 (20221203.1631)
 -->
<!-- Title: G Pages: 1 -->
<svg width="1605pt" height="445pt"
 viewBox="0.00 0.00 1605.44 445.00" xmlns="http://www.w3.org/2000/svg" xmlns:xlink="http://www.w3.org/1999/xlink">
<g id="graph0" class="graph" transform="scale(1 1) rotate(0) translate(4 441)">
<title>G</title>
<polygon fill="white" stroke="none" points="-4,4 -4,-441 1601.44,-441 1601.44,4 -4,4"/>
<g id="clust1" class="cluster">
<title>cluster_string</title>
<polygon fill="none" stroke="black" points="8,-246 8,-321 88,-321 88,-246 8,-246"/>
<text text-anchor="middle" x="48" y="-305.8" font-family="Times,serif" font-size="14.00">string</text>
</g>
<g id="clust2" class="cluster">
<title>cluster_signer</title>
<polygon fill="none" stroke="black" points="24,-8 24,-155 174,-155 174,-8 24,-8"/>
<text text-anchor="middle" x="99" y="-139.8" font-family="Times,serif" font-size="14.00">signer</text>
</g>
<g id="clust3" class="cluster">
<title>cluster_error</title>
<polygon fill="none" stroke="black" points="602,-163 602,-321 905,-321 905,-163 602,-163"/>
<text text-anchor="middle" x="753.5" y="-305.8" font-family="Times,serif" font-size="14.00">error</text>
</g>
<g id="clust4" class="cluster">
<title>cluster_table</title>
<polygon fill="none" stroke="black" points="913,-163 913,-321 1313,-321 1313,-163 913,-163"/>
<text text-anchor="middle" x="1113" y="-305.8" font-family="Times,serif" font-size="14.00">table</text>
</g>
<g id="clust5" class="cluster">
<title>cluster_event</title>
<polygon fill="none" stroke="black" points="306,-80 306,-238 594,-238 594,-80 306,-80"/>
<text text-anchor="middle" x="450" y="-222.8" font-family="Times,serif" font-size="14.00">event</text>
</g>
<g id="clust6" class="cluster">
<title>cluster_account</title>
<polygon fill="none" stroke="black" points="128,-163 128,-321 298,-321 298,-163 128,-163"/>
<text text-anchor="middle" x="213" y="-305.8" font-family="Times,serif" font-size="14.00">account</text>
</g>
<g id="clust7" class="cluster">
<title>cluster_bcs</title>
<polygon fill="none" stroke="black" points="602,-80 602,-155 698,-155 698,-80 602,-80"/>
<text text-anchor="middle" x="650" y="-139.8" font-family="Times,serif" font-size="14.00">bcs</text>
</g>
<g id="clust8" class="cluster">
<title>cluster_guid</title>
<polygon fill="none" stroke="black" points="182,-80 182,-155 262,-155 262,-80 182,-80"/>
<text text-anchor="middle" x="222" y="-139.8" font-family="Times,serif" font-size="14.00">guid</text>
</g>
<!-- create_collection_script -->
<g id="node1" class="node">
<title>create_collection_script</title>
<ellipse fill="none" stroke="black" cx="759" cy="-419" rx="94.78" ry="18"/>
<text text-anchor="middle" x="759" y="-415.3" font-family="Times,serif" font-size="14.00">create_collection_script</text>
</g>
<!-- create_collection -->
<g id="node2" class="node">
<title>create_collection</title>
<ellipse fill="none" stroke="black" cx="759" cy="-347" rx="70.69" ry="18"/>
<text text-anchor="middle" x="759" y="-343.3" font-family="Times,serif" font-size="14.00">create_collection</text>
</g>
<!-- create_collection_script&#45;&gt;create_collection -->
<g id="edge1" class="edge">
<title>create_collection_script&#45;&gt;create_collection</title>
<path fill="none" stroke="black" d="M759,-400.7C759,-393.41 759,-384.73 759,-376.54"/>
<polygon fill="black" stroke="black" points="762.5,-376.62 759,-366.62 755.5,-376.62 762.5,-376.62"/>
</g>
<!-- string::length -->
<g id="node3" class="node">
<title>string::length</title>
<ellipse fill="none" stroke="black" cx="48" cy="-272" rx="32.49" ry="18"/>
<text text-anchor="middle" x="48" y="-268.3" font-family="Times,serif" font-size="14.00">length</text>
</g>
<!-- create_collection&#45;&gt;string::length -->
<g id="edge2" class="edge">
<title>create_collection&#45;&gt;string::length</title>
<path fill="none" stroke="black" d="M688.04,-346.33C527.65,-346.64 147.03,-344.81 94,-321 82.79,-315.96 72.94,-306.81 65.27,-297.84"/>
<polygon fill="black" stroke="black" points="68.23,-295.94 59.29,-290.27 62.74,-300.29 68.23,-295.94"/>
</g>
<!-- signer::address_of -->
<g id="node4" class="node">
<title>signer::address_of</title>
<ellipse fill="none" stroke="black" cx="108" cy="-106" rx="48.99" ry="18"/>
<text text-anchor="middle" x="108" y="-102.3" font-family="Times,serif" font-size="14.00">address_of</text>
</g>
<!-- create_collection&#45;&gt;signer::address_of -->
<g id="edge3" class="edge">
<title>create_collection&#45;&gt;signer::address_of</title>
<path fill="none" stroke="black" d="M688.23,-345.71C526.87,-344.72 144.02,-340.32 124,-321 98.25,-296.15 102.14,-188.09 105.68,-135.7"/>
<polygon fill="black" stroke="black" points="109.17,-135.98 106.4,-125.75 102.19,-135.47 109.17,-135.98"/>
</g>
<!-- error::already_exists -->
<g id="node5" class="node">
<title>error::already_exists</title>
<ellipse fill="none" stroke="black" cx="836" cy="-272" rx="61.19" ry="18"/>
<text text-anchor="middle" x="836" y="-268.3" font-family="Times,serif" font-size="14.00">already_exists</text>
</g>
<!-- create_collection&#45;&gt;error::already_exists -->
<g id="edge4" class="edge">
<title>create_collection&#45;&gt;error::already_exists</title>
<path fill="none" stroke="black" d="M776.47,-329.44C786.51,-319.91 799.31,-307.78 810.46,-297.21"/>
<polygon fill="black" stroke="black" points="812.65,-299.96 817.5,-290.54 807.83,-294.88 812.65,-299.96"/>
</g>
<!-- error::invalid_argument -->
<g id="node6" class="node">
<title>error::invalid_argument</title>
<ellipse fill="none" stroke="black" cx="683" cy="-272" rx="73.39" ry="18"/>
<text text-anchor="middle" x="683" y="-268.3" font-family="Times,serif" font-size="14.00">invalid_argument</text>
</g>
<!-- create_collection&#45;&gt;error::invalid_argument -->
<g id="edge5" class="edge">
<title>create_collection&#45;&gt;error::invalid_argument</title>
<path fill="none" stroke="black" d="M741.75,-329.44C731.91,-319.98 719.39,-307.96 708.44,-297.44"/>
<polygon fill="black" stroke="black" points="711.17,-295.2 701.53,-290.8 706.32,-300.25 711.17,-295.2"/>
</g>
<!-- table::contains -->
<g id="node7" class="node">
<title>table::contains</title>
<ellipse fill="none" stroke="black" cx="1209" cy="-272" rx="40.09" ry="18"/>
<text text-anchor="middle" x="1209" y="-268.3" font-family="Times,serif" font-size="14.00">contains</text>
</g>
<!-- create_collection&#45;&gt;table::contains -->
<g id="edge6" class="edge">
<title>create_collection&#45;&gt;table::contains</title>
<path fill="none" stroke="black" d="M829.31,-344.82C919.28,-342.67 1069.87,-336.79 1123,-321 1142.95,-315.07 1163.38,-303.93 1179.31,-293.87"/>
<polygon fill="black" stroke="black" points="1180.88,-297.02 1187.34,-288.63 1177.05,-291.16 1180.88,-297.02"/>
</g>
<!-- table::add -->
<g id="node8" class="node">
<title>table::add</title>
<ellipse fill="none" stroke="black" cx="1087" cy="-272" rx="27" ry="18"/>
<text text-anchor="middle" x="1087" y="-268.3" font-family="Times,serif" font-size="14.00">add</text>
</g>
<!-- create_collection&#45;&gt;table::add -->
<g id="edge7" class="edge">
<title>create_collection&#45;&gt;table::add</title>
<path fill="none" stroke="black" d="M828,-342.5C889.88,-338.73 975.76,-331.79 1008,-321 1026.98,-314.65 1046.21,-303.1 1060.94,-292.92"/>
<polygon fill="black" stroke="black" points="1062.6,-296.04 1068.7,-287.38 1058.53,-290.34 1062.6,-296.04"/>
</g>
<!-- table::new -->
<g id="node9" class="node">
<title>table::new</title>
<ellipse fill="none" stroke="black" cx="972" cy="-272" rx="27" ry="18"/>
<text text-anchor="middle" x="972" y="-268.3" font-family="Times,serif" font-size="14.00">new</text>
</g>
<!-- create_collection&#45;&gt;table::new -->
<g id="edge8" class="edge">
<title>create_collection&#45;&gt;table::new</title>
<path fill="none" stroke="black" d="M827.06,-341.7C853.47,-338.24 883.43,-332.05 909,-321 923.54,-314.71 937.75,-304.36 948.99,-294.88"/>
<polygon fill="black" stroke="black" points="950.98,-297.79 956.17,-288.56 946.35,-292.54 950.98,-297.79"/>
</g>
<!-- event::emit_event -->
<g id="node10" class="node">
<title>event::emit_event</title>
<ellipse fill="none" stroke="black" cx="536" cy="-189" rx="50.09" ry="18"/>
<text text-anchor="middle" x="536" y="-185.3" font-family="Times,serif" font-size="14.00">emit_event</text>
</g>
<!-- create_collection&#45;&gt;event::emit_event -->
<g id="edge9" class="edge">
<title>create_collection&#45;&gt;event::emit_event</title>
<path fill="none" stroke="black" d="M691.09,-341.79C654.02,-338.28 612.73,-332 598,-321 564.72,-296.15 548.58,-248.87 541.31,-218.43"/>
<polygon fill="black" stroke="black" points="544.75,-217.78 539.19,-208.76 537.92,-219.28 544.75,-217.78"/>
</g>
<!-- account::new_event_handle -->
<g id="node11" class="node">
<title>account::new_event_handle</title>
<ellipse fill="none" stroke="black" cx="213" cy="-272" rx="76.89" ry="18"/>
<text text-anchor="middle" x="213" y="-268.3" font-family="Times,serif" font-size="14.00">new_event_handle</text>
</g>
<!-- create_collection&#45;&gt;account::new_event_handle -->
<g id="edge10" class="edge">
<title>create_collection&#45;&gt;account::new_event_handle</title>
<path fill="none" stroke="black" d="M695.27,-339.02C652.69,-334.24 595.44,-327.59 545,-321 456.29,-309.41 354.5,-294.44 287.27,-284.33"/>
<polygon fill="black" stroke="black" points="287.87,-280.88 277.46,-282.85 286.82,-287.8 287.87,-280.88"/>
</g>
<!-- create_collection_mutability_config -->
<g id="node12" class="node">
<title>create_collection_mutability_config</title>
<ellipse fill="none" stroke="black" cx="1459" cy="-272" rx="138.38" ry="18"/>
<text text-anchor="middle" x="1459" y="-268.3" font-family="Times,serif" font-size="14.00">create_collection_mutability_config</text>
</g>
<!-- create_collection&#45;&gt;create_collection_mutability_config -->
<g id="edge11" class="edge">
<title>create_collection&#45;&gt;create_collection_mutability_config</title>
<path fill="none" stroke="black" d="M829.79,-345.3C958.42,-343.62 1225.68,-338.12 1317,-321 1348.36,-315.12 1382.25,-303.86 1409.06,-293.73"/>
<polygon fill="black" stroke="black" points="1410.23,-297.03 1418.3,-290.16 1407.71,-290.5 1410.23,-297.03"/>
</g>
<!-- signer::borrow_address -->
<g id="node13" class="node">
<title>signer::borrow_address</title>
<ellipse fill="none" stroke="black" cx="99" cy="-34" rx="66.89" ry="18"/>
<text text-anchor="middle" x="99" y="-30.3" font-family="Times,serif" font-size="14.00">borrow_address</text>
</g>
<!-- signer::address_of&#45;&gt;signer::borrow_address -->
<g id="edge12" class="edge">
<title>signer::address_of&#45;&gt;signer::borrow_address</title>
<path fill="none" stroke="black" d="M105.78,-87.7C104.83,-80.32 103.7,-71.52 102.63,-63.25"/>
<polygon fill="black" stroke="black" points="106.14,-63.08 101.39,-53.61 99.2,-63.97 106.14,-63.08"/>
</g>
<!-- error::canonical -->
<g id="node14" class="node">
<title>error::canonical</title>
<ellipse fill="none" stroke="black" cx="759" cy="-189" rx="44.39" ry="18"/>
<text text-anchor="middle" x="759" y="-185.3" font-family="Times,serif" font-size="14.00">canonical</text>
</g>
<!-- error::already_exists&#45;&gt;error::canonical -->
<g id="edge13" class="edge">
<title>error::already_exists&#45;&gt;error::canonical</title>
<path fill="none" stroke="black" d="M820.05,-254.22C809.06,-242.66 794.29,-227.13 782.04,-214.23"/>
<polygon fill="black" stroke="black" points="784.88,-212.14 775.45,-207.31 779.8,-216.97 784.88,-212.14"/>
</g>
<!-- error::invalid_argument&#45;&gt;error::canonical -->
<g id="edge14" class="edge">
<title>error::invalid_argument&#45;&gt;error::canonical</title>
<path fill="none" stroke="black" d="M698.75,-254.22C709.49,-242.77 723.89,-227.42 735.92,-214.6"/>
<polygon fill="black" stroke="black" points="738.47,-217 742.76,-207.31 733.36,-212.21 738.47,-217"/>
</g>
<!-- table::contains_box -->
<g id="node15" class="node">
<title>table::contains_box</title>
<ellipse fill="none" stroke="black" cx="1247" cy="-189" rx="57.69" ry="18"/>
<text text-anchor="middle" x="1247" y="-185.3" font-family="Times,serif" font-size="14.00">contains_box</text>
</g>
<!-- table::contains&#45;&gt;table::contains_box -->
<g id="edge15" class="edge">
<title>table::contains&#45;&gt;table::contains_box</title>
<path fill="none" stroke="black" d="M1216.87,-254.22C1221.88,-243.54 1228.49,-229.46 1234.24,-217.21"/>
<polygon fill="black" stroke="black" points="1237.28,-218.95 1238.36,-208.41 1230.95,-215.98 1237.28,-218.95"/>
</g>
<!-- table::add_box -->
<g id="node16" class="node">
<title>table::add_box</title>
<ellipse fill="none" stroke="black" cx="1130" cy="-189" rx="40.89" ry="18"/>
<text text-anchor="middle" x="1130" y="-185.3" font-family="Times,serif" font-size="14.00">add_box</text>
</g>
<!-- table::add&#45;&gt;table::add_box -->
<g id="edge16" class="edge">
<title>table::add&#45;&gt;table::add_box</title>
<path fill="none" stroke="black" d="M1095.7,-254.61C1101.45,-243.77 1109.13,-229.32 1115.76,-216.83"/>
<polygon fill="black" stroke="black" points="1118.71,-218.74 1120.31,-208.26 1112.53,-215.45 1118.71,-218.74"/>
</g>
<!-- table::new_table_handle -->
<g id="node17" class="node">
<title>table::new_table_handle</title>
<ellipse fill="none" stroke="black" cx="996" cy="-189" rx="74.99" ry="18"/>
<text text-anchor="middle" x="996" y="-185.3" font-family="Times,serif" font-size="14.00">new_table_handle</text>
</g>
<!-- table::new&#45;&gt;table::new_table_handle -->
<g id="edge17" class="edge">
<title>table::new&#45;&gt;table::new_table_handle</title>
<path fill="none" stroke="black" d="M977.09,-253.82C980.16,-243.48 984.13,-230.05 987.65,-218.18"/>
<polygon fill="black" stroke="black" points="990.92,-219.47 990.4,-208.88 984.21,-217.48 990.92,-219.47"/>
</g>
<!-- bcs::to_bytes -->
<g id="node18" class="node">
<title>bcs::to_bytes</title>
<ellipse fill="none" stroke="black" cx="650" cy="-106" rx="40.09" ry="18"/>
<text text-anchor="middle" x="650" y="-102.3" font-family="Times,serif" font-size="14.00">to_bytes</text>
</g>
<!-- event::emit_event&#45;&gt;bcs::to_bytes -->
<g id="edge18" class="edge">
<title>event::emit_event&#45;&gt;bcs::to_bytes</title>
<path fill="none" stroke="black" d="M565.62,-174.2C576.19,-168.77 587.96,-162.13 598,-155 608.07,-147.85 618.25,-138.92 626.9,-130.7"/>
<polygon fill="black" stroke="black" points="629.18,-133.37 633.89,-123.88 624.29,-128.36 629.18,-133.37"/>
</g>
<!-- event::write_to_event_store -->
<g id="node19" class="node">
<title>event::write_to_event_store</title>
<ellipse fill="none" stroke="black" cx="501" cy="-106" rx="85.29" ry="18"/>
<text text-anchor="middle" x="501" y="-102.3" font-family="Times,serif" font-size="14.00">write_to_event_store</text>
</g>
<!-- event::emit_event&#45;&gt;event::write_to_event_store -->
<g id="edge19" class="edge">
<title>event::emit_event&#45;&gt;event::write_to_event_store</title>
<path fill="none" stroke="black" d="M528.58,-170.82C524.03,-160.3 518.11,-146.59 512.91,-134.57"/>
<polygon fill="black" stroke="black" points="516.19,-133.33 509.01,-125.54 509.77,-136.11 516.19,-133.33"/>
</g>
<!-- event::new_event_handle -->
<g id="node20" class="node">
<title>event::new_event_handle</title>
<ellipse fill="none" stroke="black" cx="391" cy="-189" rx="76.89" ry="18"/>
<text text-anchor="middle" x="391" y="-185.3" font-family="Times,serif" font-size="14.00">new_event_handle</text>
</g>
<!-- account::new_event_handle&#45;&gt;event::new_event_handle -->
<g id="edge20" class="edge">
<title>account::new_event_handle&#45;&gt;event::new_event_handle</title>
<path fill="none" stroke="black" d="M255.59,-256.58C270.46,-251.18 287.14,-244.72 302,-238 319.32,-230.16 337.91,-220.37 353.6,-211.68"/>
<polygon fill="black" stroke="black" points="355.12,-214.84 362.13,-206.89 351.69,-208.73 355.12,-214.84"/>
</g>
<!-- account::create_guid -->
<g id="node21" class="node">
<title>account::create_guid</title>
<ellipse fill="none" stroke="black" cx="213" cy="-189" rx="51.99" ry="18"/>
<text text-anchor="middle" x="213" y="-185.3" font-family="Times,serif" font-size="14.00">create_guid</text>
</g>
<!-- account::new_event_handle&#45;&gt;account::create_guid -->
<g id="edge21" class="edge">
<title>account::new_event_handle&#45;&gt;account::create_guid</title>
<path fill="none" stroke="black" d="M213,-253.82C213,-243.69 213,-230.6 213,-218.92"/>
<polygon fill="black" stroke="black" points="216.5,-218.95 213,-208.95 209.5,-218.95 216.5,-218.95"/>
</g>
<!-- account::create_guid&#45;&gt;signer::address_of -->
<g id="edge22" class="edge">
<title>account::create_guid&#45;&gt;signer::address_of</title>
<path fill="none" stroke="black" d="M192.51,-172.19C176.75,-160.04 154.78,-143.09 137.19,-129.51"/>
<polygon fill="black" stroke="black" points="139.7,-127.03 129.64,-123.69 135.42,-132.57 139.7,-127.03"/>
</g>
<!-- guid::create -->
<g id="node22" class="node">
<title>guid::create</title>
<ellipse fill="none" stroke="black" cx="222" cy="-106" rx="31.7" ry="18"/>
<text text-anchor="middle" x="222" y="-102.3" font-family="Times,serif" font-size="14.00">create</text>
</g>
<!-- account::create_guid&#45;&gt;guid::create -->
<g id="edge23" class="edge">
<title>account::create_guid&#45;&gt;guid::create</title>
<path fill="none" stroke="black" d="M214.91,-170.82C216.05,-160.58 217.52,-147.33 218.83,-135.55"/>
<polygon fill="black" stroke="black" points="222.27,-136.26 219.9,-125.94 215.31,-135.49 222.27,-136.26"/>
</g>
</g>
</svg>
