<?xml version="1.0" encoding="UTF-8" standalone="no"?>
<!DOCTYPE svg PUBLIC "-//W3C//DTD SVG 1.1//EN"
 "http://www.w3.org/Graphics/SVG/1.1/DTD/svg11.dtd">
<!-- Generated by graphviz version 7.0.4 (20221203.1631)
 -->
<!-- Title: G Pages: 1 -->
<svg width="796pt" height="299pt"
 viewBox="0.00 0.00 795.79 299.00" xmlns="http://www.w3.org/2000/svg" xmlns:xlink="http://www.w3.org/1999/xlink">
<g id="graph0" class="graph" transform="scale(1 1) rotate(0) translate(4 295)">
<title>G</title>
<polygon fill="white" stroke="none" points="-4,4 -4,-295 791.79,-295 791.79,4 -4,4"/>
<g id="clust1" class="cluster">
<title>cluster_token_transfers</title>
<polygon fill="none" stroke="black" points="478.79,-136 478.79,-283 779.79,-283 779.79,-136 478.79,-136"/>
<text text-anchor="middle" x="629.29" y="-267.8" font-family="Times,serif" font-size="14.00">token_transfers</text>
</g>
<!-- initialize_token_store -->
<g id="node1" class="node">
<title>initialize_token_store</title>
<ellipse fill="none" stroke="black" cx="550.79" cy="-18" rx="87.18" ry="18"/>
<text text-anchor="middle" x="550.79" y="-14.3" font-family="Times,serif" font-size="14.00">initialize_token_store</text>
</g>
<!-- deposit_token -->
<g id="node2" class="node">
<title>deposit_token</title>
<ellipse fill="none" stroke="black" cx="467.79" cy="-90" rx="59.59" ry="18"/>
<text text-anchor="middle" x="467.79" y="-86.3" font-family="Times,serif" font-size="14.00">deposit_token</text>
</g>
<!-- deposit_token&#45;&gt;initialize_token_store -->
<g id="edge1" class="edge">
<title>deposit_token&#45;&gt;initialize_token_store</title>
<path fill="none" stroke="black" d="M487.04,-72.76C497.5,-63.95 510.63,-52.87 522.25,-43.07"/>
<polygon fill="black" stroke="black" points="524.23,-45.98 529.62,-36.85 519.72,-40.63 524.23,-45.98"/>
</g>
<!-- opt_in_direct_transfer -->
<g id="node3" class="node">
<title>opt_in_direct_transfer</title>
<ellipse fill="none" stroke="black" cx="634.79" cy="-90" rx="89.08" ry="18"/>
<text text-anchor="middle" x="634.79" y="-86.3" font-family="Times,serif" font-size="14.00">opt_in_direct_transfer</text>
</g>
<!-- opt_in_direct_transfer&#45;&gt;initialize_token_store -->
<g id="edge2" class="edge">
<title>opt_in_direct_transfer&#45;&gt;initialize_token_store</title>
<path fill="none" stroke="black" d="M614.46,-72.05C604.04,-63.37 591.17,-52.64 579.73,-43.11"/>
<polygon fill="black" stroke="black" points="582.02,-40.47 572.1,-36.76 577.54,-45.85 582.02,-40.47"/>
</g>
<!-- direct_transfer -->
<g id="node4" class="node">
<title>direct_transfer</title>
<ellipse fill="none" stroke="black" cx="186.79" cy="-162" rx="61.99" ry="18"/>
<text text-anchor="middle" x="186.79" y="-158.3" font-family="Times,serif" font-size="14.00">direct_transfer</text>
</g>
<!-- direct_transfer&#45;&gt;deposit_token -->
<g id="edge3" class="edge">
<title>direct_transfer&#45;&gt;deposit_token</title>
<path fill="none" stroke="black" d="M232.88,-149.52C281.91,-137.31 359.49,-117.98 411.95,-104.91"/>
<polygon fill="black" stroke="black" points="412.75,-108.32 421.61,-102.51 411.06,-101.53 412.75,-108.32"/>
</g>
<!-- mint_token -->
<g id="node5" class="node">
<title>mint_token</title>
<ellipse fill="none" stroke="black" cx="417.79" cy="-162" rx="51.19" ry="18"/>
<text text-anchor="middle" x="417.79" y="-158.3" font-family="Times,serif" font-size="14.00">mint_token</text>
</g>
<!-- mint_token&#45;&gt;deposit_token -->
<g id="edge4" class="edge">
<title>mint_token&#45;&gt;deposit_token</title>
<path fill="none" stroke="black" d="M429.9,-144.05C435.67,-135.97 442.71,-126.12 449.14,-117.11"/>
<polygon fill="black" stroke="black" points="451.96,-119.19 454.92,-109.02 446.26,-115.12 451.96,-119.19"/>
</g>
<!-- token_transfers::cancel_offer -->
<g id="node6" class="node">
<title>token_transfers::cancel_offer</title>
<ellipse fill="none" stroke="black" cx="668.79" cy="-162" rx="54.69" ry="18"/>
<text text-anchor="middle" x="668.79" y="-158.3" font-family="Times,serif" font-size="14.00">cancel_offer</text>
</g>
<!-- token_transfers::cancel_offer&#45;&gt;deposit_token -->
<g id="edge5" class="edge">
<title>token_transfers::cancel_offer&#45;&gt;deposit_token</title>
<path fill="none" stroke="black" d="M632.39,-148.32C599.89,-137.01 552.04,-120.34 516.3,-107.89"/>
<polygon fill="black" stroke="black" points="517.65,-104.66 507.06,-104.67 515.35,-111.27 517.65,-104.66"/>
</g>
<!-- token_transfers::claim -->
<g id="node7" class="node">
<title>token_transfers::claim</title>
<ellipse fill="none" stroke="black" cx="529.79" cy="-162" rx="30.59" ry="18"/>
<text text-anchor="middle" x="529.79" y="-158.3" font-family="Times,serif" font-size="14.00">claim</text>
</g>
<!-- token_transfers::claim&#45;&gt;deposit_token -->
<g id="edge6" class="edge">
<title>token_transfers::claim&#45;&gt;deposit_token</title>
<path fill="none" stroke="black" d="M516.03,-145.46C508.38,-136.83 498.68,-125.88 489.99,-116.06"/>
<polygon fill="black" stroke="black" points="492.63,-113.77 483.38,-108.6 487.39,-118.41 492.63,-113.77"/>
</g>
<!-- direct_transfer_script -->
<g id="node8" class="node">
<title>direct_transfer_script</title>
<ellipse fill="none" stroke="black" cx="85.79" cy="-234" rx="85.59" ry="18"/>
<text text-anchor="middle" x="85.79" y="-230.3" font-family="Times,serif" font-size="14.00">direct_transfer_script</text>
</g>
<!-- direct_transfer_script&#45;&gt;direct_transfer -->
<g id="edge7" class="edge">
<title>direct_transfer_script&#45;&gt;direct_transfer</title>
<path fill="none" stroke="black" d="M109.73,-216.41C123.13,-207.12 140.01,-195.42 154.56,-185.34"/>
<polygon fill="black" stroke="black" points="156.25,-188.42 162.48,-179.85 152.27,-182.67 156.25,-188.42"/>
</g>
<!-- create_token_script -->
<g id="node9" class="node">
<title>create_token_script</title>
<ellipse fill="none" stroke="black" cx="268.79" cy="-234" rx="79.09" ry="18"/>
<text text-anchor="middle" x="268.79" y="-230.3" font-family="Times,serif" font-size="14.00">create_token_script</text>
</g>
<!-- create_token_script&#45;&gt;mint_token -->
<g id="edge8" class="edge">
<title>create_token_script&#45;&gt;mint_token</title>
<path fill="none" stroke="black" d="M302.23,-217.29C324.55,-206.8 354.03,-192.96 377.62,-181.87"/>
<polygon fill="black" stroke="black" points="379.07,-185.06 386.63,-177.64 376.09,-178.72 379.07,-185.06"/>
</g>
<!-- mint_script -->
<g id="node10" class="node">
<title>mint_script</title>
<ellipse fill="none" stroke="black" cx="417.79" cy="-234" rx="51.19" ry="18"/>
<text text-anchor="middle" x="417.79" y="-230.3" font-family="Times,serif" font-size="14.00">mint_script</text>
</g>
<!-- mint_script&#45;&gt;mint_token -->
<g id="edge9" class="edge">
<title>mint_script&#45;&gt;mint_token</title>
<path fill="none" stroke="black" d="M417.79,-215.7C417.79,-208.41 417.79,-199.73 417.79,-191.54"/>
<polygon fill="black" stroke="black" points="421.29,-191.62 417.79,-181.62 414.29,-191.62 421.29,-191.62"/>
</g>
<!-- token_transfers::cancel_offer_script -->
<g id="node11" class="node">
<title>token_transfers::cancel_offer_script</title>
<ellipse fill="none" stroke="black" cx="692.79" cy="-234" rx="78.79" ry="18"/>
<text text-anchor="middle" x="692.79" y="-230.3" font-family="Times,serif" font-size="14.00">cancel_offer_script</text>
</g>
<!-- token_transfers::cancel_offer_script&#45;&gt;token_transfers::cancel_offer -->
<g id="edge10" class="edge">
<title>token_transfers::cancel_offer_script&#45;&gt;token_transfers::cancel_offer</title>
<path fill="none" stroke="black" d="M686.86,-215.7C684.3,-208.24 681.25,-199.32 678.38,-190.97"/>
<polygon fill="black" stroke="black" points="681.7,-189.86 675.15,-181.54 675.08,-192.13 681.7,-189.86"/>
</g>
<!-- token_transfers::claim_script -->
<g id="node12" class="node">
<title>token_transfers::claim_script</title>
<ellipse fill="none" stroke="black" cx="541.79" cy="-234" rx="54.69" ry="18"/>
<text text-anchor="middle" x="541.79" y="-230.3" font-family="Times,serif" font-size="14.00">claim_script</text>
</g>
<!-- token_transfers::claim_script&#45;&gt;token_transfers::claim -->
<g id="edge11" class="edge">
<title>token_transfers::claim_script&#45;&gt;token_transfers::claim</title>
<path fill="none" stroke="black" d="M538.83,-215.7C537.56,-208.32 536.05,-199.52 534.64,-191.25"/>
<polygon fill="black" stroke="black" points="538.12,-190.86 532.98,-181.6 531.22,-192.04 538.12,-190.86"/>
</g>
</g>
</svg>
