<?xml version="1.0" encoding="UTF-8" standalone="no"?>
<!DOCTYPE svg PUBLIC "-//W3C//DTD SVG 1.1//EN"
 "http://www.w3.org/Graphics/SVG/1.1/DTD/svg11.dtd">
<!-- Generated by graphviz version 7.0.4 (20221203.1631)
 -->
<!-- Title: G Pages: 1 -->
<svg width="1170pt" height="373pt"
 viewBox="0.00 0.00 1170.00 373.00" xmlns="http://www.w3.org/2000/svg" xmlns:xlink="http://www.w3.org/1999/xlink">
<g id="graph0" class="graph" transform="scale(1 1) rotate(0) translate(4 369)">
<title>G</title>
<polygon fill="white" stroke="none" points="-4,4 -4,-369 1166,-369 1166,4 -4,4"/>
<g id="clust1" class="cluster">
<title>cluster_signer</title>
<polygon fill="none" stroke="black" points="38,-163 38,-321 188,-321 188,-163 38,-163"/>
<text text-anchor="middle" x="113" y="-305.8" font-family="Times,serif" font-size="14.00">signer</text>
</g>
<g id="clust2" class="cluster">
<title>cluster_error</title>
<polygon fill="none" stroke="black" points="8,-8 8,-155 454,-155 454,-8 8,-8"/>
<text text-anchor="middle" x="231" y="-139.8" font-family="Times,serif" font-size="14.00">error</text>
</g>
<g id="clust3" class="cluster">
<title>cluster_table</title>
<polygon fill="none" stroke="black" points="462,-80 462,-238 856,-238 856,-80 462,-80"/>
<text text-anchor="middle" x="659" y="-222.8" font-family="Times,serif" font-size="14.00">table</text>
</g>
<g id="clust4" class="cluster">
<title>cluster_event</title>
<polygon fill="none" stroke="black" points="864,-80 864,-238 1050,-238 1050,-80 864,-80"/>
<text text-anchor="middle" x="957" y="-222.8" font-family="Times,serif" font-size="14.00">event</text>
</g>
<g id="clust5" class="cluster">
<title>cluster_property_map</title>
<polygon fill="none" stroke="black" points="678,-246 678,-321 771,-321 771,-246 678,-246"/>
<text text-anchor="middle" x="724.5" y="-305.8" font-family="Times,serif" font-size="14.00">property_map</text>
</g>
<g id="clust6" class="cluster">
<title>cluster_bcs</title>
<polygon fill="none" stroke="black" points="1058,-80 1058,-155 1154,-155 1154,-80 1058,-80"/>
<text text-anchor="middle" x="1106" y="-139.8" font-family="Times,serif" font-size="14.00">bcs</text>
</g>
<g id="clust7" class="cluster">
<title>cluster_simple_map</title>
<polygon fill="none" stroke="black" points="1058,-163 1058,-238 1142,-238 1142,-163 1058,-163"/>
<text text-anchor="middle" x="1100" y="-222.8" font-family="Times,serif" font-size="14.00">simple_map</text>
</g>
<!-- mint_token_to -->
<g id="node1" class="node">
<title>mint_token_to</title>
<ellipse fill="none" stroke="black" cx="540" cy="-347" rx="62.29" ry="18"/>
<text text-anchor="middle" x="540" y="-343.3" font-family="Times,serif" font-size="14.00">mint_token_to</text>
</g>
<!-- signer::address_of -->
<g id="node2" class="node">
<title>signer::address_of</title>
<ellipse fill="none" stroke="black" cx="122" cy="-272" rx="48.99" ry="18"/>
<text text-anchor="middle" x="122" y="-268.3" font-family="Times,serif" font-size="14.00">address_of</text>
</g>
<!-- mint_token_to&#45;&gt;signer::address_of -->
<g id="edge1" class="edge">
<title>mint_token_to&#45;&gt;signer::address_of</title>
<path fill="none" stroke="black" d="M477.69,-345.3C392.59,-343.69 244.78,-338.4 194,-321 177.92,-315.49 161.99,-305.47 149.21,-296.01"/>
<polygon fill="black" stroke="black" points="151.36,-293.24 141.31,-289.89 147.07,-298.78 151.36,-293.24"/>
</g>
<!-- error::invalid_argument -->
<g id="node3" class="node">
<title>error::invalid_argument</title>
<ellipse fill="none" stroke="black" cx="373" cy="-106" rx="73.39" ry="18"/>
<text text-anchor="middle" x="373" y="-102.3" font-family="Times,serif" font-size="14.00">invalid_argument</text>
</g>
<!-- mint_token_to&#45;&gt;error::invalid_argument -->
<g id="edge2" class="edge">
<title>mint_token_to&#45;&gt;error::invalid_argument</title>
<path fill="none" stroke="black" d="M482.67,-339.6C464.13,-335.92 443.99,-330.12 427,-321 380.2,-295.87 361.76,-286.89 341,-238 327.97,-207.32 332.44,-195.22 341,-163 343.69,-152.89 348.67,-142.7 353.93,-133.83"/>
<polygon fill="black" stroke="black" points="356.88,-135.72 359.28,-125.4 350.97,-131.96 356.88,-135.72"/>
</g>
<!-- error::not_found -->
<g id="node4" class="node">
<title>error::not_found</title>
<ellipse fill="none" stroke="black" cx="235" cy="-106" rx="46.59" ry="18"/>
<text text-anchor="middle" x="235" y="-102.3" font-family="Times,serif" font-size="14.00">not_found</text>
</g>
<!-- mint_token_to&#45;&gt;error::not_found -->
<g id="edge3" class="edge">
<title>mint_token_to&#45;&gt;error::not_found</title>
<path fill="none" stroke="black" d="M477.84,-344.52C427.81,-342.19 362.43,-336.23 341,-321 277.89,-276.14 250.45,-182.85 240.22,-135.66"/>
<polygon fill="black" stroke="black" points="243.66,-135.03 238.23,-125.93 236.8,-136.43 243.66,-135.03"/>
</g>
<!-- error::permission_denied -->
<g id="node5" class="node">
<title>error::permission_denied</title>
<ellipse fill="none" stroke="black" cx="93" cy="-106" rx="77.19" ry="18"/>
<text text-anchor="middle" x="93" y="-102.3" font-family="Times,serif" font-size="14.00">permission_denied</text>
</g>
<!-- mint_token_to&#45;&gt;error::permission_denied -->
<g id="edge4" class="edge">
<title>mint_token_to&#45;&gt;error::permission_denied</title>
<path fill="none" stroke="black" d="M477.45,-346.77C409.97,-346.45 307.88,-342.27 276,-321 209.84,-276.87 247.5,-219.97 192,-163 190.75,-161.71 158.89,-143.77 131.65,-128.54"/>
<polygon fill="black" stroke="black" points="133.64,-125.64 123.21,-123.82 130.23,-131.76 133.64,-125.64"/>
</g>
<!-- table::contains -->
<g id="node6" class="node">
<title>table::contains</title>
<ellipse fill="none" stroke="black" cx="584" cy="-189" rx="40.09" ry="18"/>
<text text-anchor="middle" x="584" y="-185.3" font-family="Times,serif" font-size="14.00">contains</text>
</g>
<!-- mint_token_to&#45;&gt;table::contains -->
<g id="edge5" class="edge">
<title>mint_token_to&#45;&gt;table::contains</title>
<path fill="none" stroke="black" d="M559.36,-329.4C561.54,-326.79 563.51,-323.96 565,-321 581.33,-288.43 584.72,-245.96 584.94,-218.34"/>
<polygon fill="black" stroke="black" points="588.44,-218.63 584.86,-208.65 581.44,-218.68 588.44,-218.63"/>
</g>
<!-- table::borrow_mut -->
<g id="node7" class="node">
<title>table::borrow_mut</title>
<ellipse fill="none" stroke="black" cx="697" cy="-189" rx="54.69" ry="18"/>
<text text-anchor="middle" x="697" y="-185.3" font-family="Times,serif" font-size="14.00">borrow_mut</text>
</g>
<!-- mint_token_to&#45;&gt;table::borrow_mut -->
<g id="edge6" class="edge">
<title>mint_token_to&#45;&gt;table::borrow_mut</title>
<path fill="none" stroke="black" d="M572.97,-331.27C578.25,-328.24 583.46,-324.8 588,-321 620.33,-293.97 618.9,-278.27 646,-246 654.8,-235.51 664.88,-224.29 673.75,-214.67"/>
<polygon fill="black" stroke="black" points="676.2,-217.17 680.44,-207.46 671.07,-212.41 676.2,-217.17"/>
</g>
<!-- event::emit_event -->
<g id="node8" class="node">
<title>event::emit_event</title>
<ellipse fill="none" stroke="black" cx="939" cy="-189" rx="50.09" ry="18"/>
<text text-anchor="middle" x="939" y="-185.3" font-family="Times,serif" font-size="14.00">emit_event</text>
</g>
<!-- mint_token_to&#45;&gt;event::emit_event -->
<g id="edge7" class="edge">
<title>mint_token_to&#45;&gt;event::emit_event</title>
<path fill="none" stroke="black" d="M594.73,-338.32C607.55,-334.62 620.51,-329.13 631,-321 661.37,-297.47 641.18,-265.97 674,-246 691.67,-235.25 840.2,-244 860,-238 877.84,-232.59 895.76,-222.2 910.01,-212.47"/>
<polygon fill="black" stroke="black" points="911.89,-215.43 918.01,-206.78 907.84,-209.72 911.89,-215.43"/>
</g>
<!-- property_map::empty -->
<g id="node9" class="node">
<title>property_map::empty</title>
<ellipse fill="none" stroke="black" cx="724" cy="-272" rx="33.29" ry="18"/>
<text text-anchor="middle" x="724" y="-268.3" font-family="Times,serif" font-size="14.00">empty</text>
</g>
<!-- mint_token_to&#45;&gt;property_map::empty -->
<g id="edge8" class="edge">
<title>mint_token_to&#45;&gt;property_map::empty</title>
<path fill="none" stroke="black" d="M600.45,-342.21C624.37,-338.84 651.48,-332.57 674,-321 685.24,-315.22 695.67,-306.11 704.06,-297.37"/>
<polygon fill="black" stroke="black" points="706.61,-299.78 710.72,-290.01 701.41,-295.08 706.61,-299.78"/>
</g>
<!-- create_token_id -->
<g id="node10" class="node">
<title>create_token_id</title>
<ellipse fill="none" stroke="black" cx="846" cy="-272" rx="66.89" ry="18"/>
<text text-anchor="middle" x="846" y="-268.3" font-family="Times,serif" font-size="14.00">create_token_id</text>
</g>
<!-- mint_token_to&#45;&gt;create_token_id -->
<g id="edge9" class="edge">
<title>mint_token_to&#45;&gt;create_token_id</title>
<path fill="none" stroke="black" d="M601.07,-342.86C659.82,-339.23 744.12,-332.28 775,-321 790.37,-315.39 805.64,-305.74 818.05,-296.56"/>
<polygon fill="black" stroke="black" points="819.96,-299.5 825.75,-290.63 815.69,-293.96 819.96,-299.5"/>
</g>
<!-- direct_deposit -->
<g id="node11" class="node">
<title>direct_deposit</title>
<ellipse fill="none" stroke="black" cx="496" cy="-272" rx="60.39" ry="18"/>
<text text-anchor="middle" x="496" y="-268.3" font-family="Times,serif" font-size="14.00">direct_deposit</text>
</g>
<!-- mint_token_to&#45;&gt;direct_deposit -->
<g id="edge10" class="edge">
<title>mint_token_to&#45;&gt;direct_deposit</title>
<path fill="none" stroke="black" d="M529.79,-329.07C524.56,-320.38 518.05,-309.59 512.15,-299.8"/>
<polygon fill="black" stroke="black" points="515.24,-298.15 507.08,-291.39 509.25,-301.76 515.24,-298.15"/>
</g>
<!-- signer::borrow_address -->
<g id="node12" class="node">
<title>signer::borrow_address</title>
<ellipse fill="none" stroke="black" cx="113" cy="-189" rx="66.89" ry="18"/>
<text text-anchor="middle" x="113" y="-185.3" font-family="Times,serif" font-size="14.00">borrow_address</text>
</g>
<!-- signer::address_of&#45;&gt;signer::borrow_address -->
<g id="edge11" class="edge">
<title>signer::address_of&#45;&gt;signer::borrow_address</title>
<path fill="none" stroke="black" d="M120.09,-253.82C118.95,-243.58 117.48,-230.33 116.17,-218.55"/>
<polygon fill="black" stroke="black" points="119.69,-218.49 115.1,-208.94 112.73,-219.26 119.69,-218.49"/>
</g>
<!-- error::canonical -->
<g id="node13" class="node">
<title>error::canonical</title>
<ellipse fill="none" stroke="black" cx="235" cy="-34" rx="44.39" ry="18"/>
<text text-anchor="middle" x="235" y="-30.3" font-family="Times,serif" font-size="14.00">canonical</text>
</g>
<!-- error::invalid_argument&#45;&gt;error::canonical -->
<g id="edge12" class="edge">
<title>error::invalid_argument&#45;&gt;error::canonical</title>
<path fill="none" stroke="black" d="M342.03,-89.29C321.27,-78.76 293.83,-64.84 271.93,-53.73"/>
<polygon fill="black" stroke="black" points="273.53,-50.62 263.03,-49.22 270.36,-56.86 273.53,-50.62"/>
</g>
<!-- error::not_found&#45;&gt;error::canonical -->
<g id="edge13" class="edge">
<title>error::not_found&#45;&gt;error::canonical</title>
<path fill="none" stroke="black" d="M235,-87.7C235,-80.41 235,-71.73 235,-63.54"/>
<polygon fill="black" stroke="black" points="238.5,-63.62 235,-53.62 231.5,-63.62 238.5,-63.62"/>
</g>
<!-- error::permission_denied&#45;&gt;error::canonical -->
<g id="edge14" class="edge">
<title>error::permission_denied&#45;&gt;error::canonical</title>
<path fill="none" stroke="black" d="M124.87,-89.29C146.33,-78.71 174.72,-64.71 197.31,-53.58"/>
<polygon fill="black" stroke="black" points="198.77,-56.76 206.19,-49.2 195.67,-50.48 198.77,-56.76"/>
</g>
<!-- table::contains_box -->
<g id="node14" class="node">
<title>table::contains_box</title>
<ellipse fill="none" stroke="black" cx="628" cy="-106" rx="57.69" ry="18"/>
<text text-anchor="middle" x="628" y="-102.3" font-family="Times,serif" font-size="14.00">contains_box</text>
</g>
<!-- table::contains&#45;&gt;table::contains_box -->
<g id="edge15" class="edge">
<title>table::contains&#45;&gt;table::contains_box</title>
<path fill="none" stroke="black" d="M593.12,-171.22C598.98,-160.43 606.72,-146.17 613.42,-133.84"/>
<polygon fill="black" stroke="black" points="616.32,-135.83 618.02,-125.37 610.17,-132.49 616.32,-135.83"/>
</g>
<!-- table::borrow_box_mut -->
<g id="node15" class="node">
<title>table::borrow_box_mut</title>
<ellipse fill="none" stroke="black" cx="776" cy="-106" rx="72.29" ry="18"/>
<text text-anchor="middle" x="776" y="-102.3" font-family="Times,serif" font-size="14.00">borrow_box_mut</text>
</g>
<!-- table::borrow_mut&#45;&gt;table::borrow_box_mut -->
<g id="edge16" class="edge">
<title>table::borrow_mut&#45;&gt;table::borrow_box_mut</title>
<path fill="none" stroke="black" d="M712.99,-171.61C724.08,-160.23 739.07,-144.87 751.64,-131.97"/>
<polygon fill="black" stroke="black" points="753.96,-134.61 758.44,-125.01 748.95,-129.72 753.96,-134.61"/>
</g>
<!-- bcs::to_bytes -->
<g id="node16" class="node">
<title>bcs::to_bytes</title>
<ellipse fill="none" stroke="black" cx="1106" cy="-106" rx="40.09" ry="18"/>
<text text-anchor="middle" x="1106" y="-102.3" font-family="Times,serif" font-size="14.00">to_bytes</text>
</g>
<!-- event::emit_event&#45;&gt;bcs::to_bytes -->
<g id="edge17" class="edge">
<title>event::emit_event&#45;&gt;bcs::to_bytes</title>
<path fill="none" stroke="black" d="M983.49,-180.3C1005.65,-175.24 1032.28,-167.22 1054,-155 1064.92,-148.86 1075.4,-139.99 1084.04,-131.54"/>
<polygon fill="black" stroke="black" points="1086.5,-134.04 1090.98,-124.44 1081.49,-129.15 1086.5,-134.04"/>
</g>
<!-- event::write_to_event_store -->
<g id="node17" class="node">
<title>event::write_to_event_store</title>
<ellipse fill="none" stroke="black" cx="957" cy="-106" rx="85.29" ry="18"/>
<text text-anchor="middle" x="957" y="-102.3" font-family="Times,serif" font-size="14.00">write_to_event_store</text>
</g>
<!-- event::emit_event&#45;&gt;event::write_to_event_store -->
<g id="edge18" class="edge">
<title>event::emit_event&#45;&gt;event::write_to_event_store</title>
<path fill="none" stroke="black" d="M942.82,-170.82C945.09,-160.58 948.04,-147.33 950.66,-135.55"/>
<polygon fill="black" stroke="black" points="954.05,-136.43 952.8,-125.91 947.21,-134.91 954.05,-136.43"/>
</g>
<!-- simple_map::create -->
<g id="node18" class="node">
<title>simple_map::create</title>
<ellipse fill="none" stroke="black" cx="1098" cy="-189" rx="31.7" ry="18"/>
<text text-anchor="middle" x="1098" y="-185.3" font-family="Times,serif" font-size="14.00">create</text>
</g>
<!-- property_map::empty&#45;&gt;simple_map::create -->
<g id="edge19" class="edge">
<title>property_map::empty&#45;&gt;simple_map::create</title>
<path fill="none" stroke="black" d="M744.19,-257.36C751.93,-252.87 761.05,-248.41 770,-246 800.48,-237.79 1025.29,-251.12 1054,-238 1064.84,-233.05 1074.21,-224.04 1081.48,-215.15"/>
<polygon fill="black" stroke="black" points="1084.16,-217.42 1087.37,-207.32 1078.57,-213.21 1084.16,-217.42"/>
</g>
<!-- direct_deposit&#45;&gt;error::invalid_argument -->
<g id="edge20" class="edge">
<title>direct_deposit&#45;&gt;error::invalid_argument</title>
<path fill="none" stroke="black" d="M474.28,-255.01C468.48,-250.02 462.56,-244.19 458,-238 436.39,-208.68 445,-193.43 425,-163 417.75,-151.96 408.27,-141.05 399.4,-131.82"/>
<polygon fill="black" stroke="black" points="402.1,-129.57 392.57,-124.94 397.14,-134.5 402.1,-129.57"/>
</g>
<!-- direct_deposit&#45;&gt;error::not_found -->
<g id="edge21" class="edge">
<title>direct_deposit&#45;&gt;error::not_found</title>
<path fill="none" stroke="black" d="M436.95,-267.81C406.46,-263.93 369.73,-255.62 341,-238 299.06,-212.28 266.48,-163.82 249.06,-133.59"/>
<polygon fill="black" stroke="black" points="252.22,-132.07 244.28,-125.05 246.11,-135.49 252.22,-132.07"/>
</g>
<!-- direct_deposit&#45;&gt;table::contains -->
<g id="edge22" class="edge">
<title>direct_deposit&#45;&gt;table::contains</title>
<path fill="none" stroke="black" d="M515.68,-254.82C521.94,-249.55 528.84,-243.61 535,-238 543.41,-230.35 552.36,-221.72 560.28,-213.92"/>
<polygon fill="black" stroke="black" points="562.69,-216.46 567.32,-206.93 557.76,-211.49 562.69,-216.46"/>
</g>
<!-- direct_deposit&#45;&gt;table::borrow_mut -->
<g id="edge23" class="edge">
<title>direct_deposit&#45;&gt;table::borrow_mut</title>
<path fill="none" stroke="black" d="M543.47,-260.56C579.7,-252.42 624.75,-241.88 633,-238 646.35,-231.72 659.64,-222.38 670.63,-213.61"/>
<polygon fill="black" stroke="black" points="672.63,-216.49 678.1,-207.42 668.16,-211.1 672.63,-216.49"/>
</g>
<!-- direct_deposit&#45;&gt;event::emit_event -->
<g id="edge25" class="edge">
<title>direct_deposit&#45;&gt;event::emit_event</title>
<path fill="none" stroke="black" d="M545.1,-261.19C574.29,-255.76 612.12,-249.44 646,-246 693.35,-241.19 814.42,-251.68 860,-238 877.86,-232.64 895.78,-222.26 910.03,-212.51"/>
<polygon fill="black" stroke="black" points="911.91,-215.47 918.03,-206.82 907.85,-209.77 911.91,-215.47"/>
</g>
<!-- table::add -->
<g id="node19" class="node">
<title>table::add</title>
<ellipse fill="none" stroke="black" cx="499" cy="-189" rx="27" ry="18"/>
<text text-anchor="middle" x="499" y="-185.3" font-family="Times,serif" font-size="14.00">add</text>
</g>
<!-- direct_deposit&#45;&gt;table::add -->
<g id="edge24" class="edge">
<title>direct_deposit&#45;&gt;table::add</title>
<path fill="none" stroke="black" d="M496.64,-253.82C497.01,-243.69 497.5,-230.6 497.93,-218.92"/>
<polygon fill="black" stroke="black" points="501.43,-219.07 498.3,-208.95 494.43,-218.81 501.43,-219.07"/>
</g>
<!-- merge -->
<g id="node20" class="node">
<title>merge</title>
<ellipse fill="none" stroke="black" cx="383" cy="-189" rx="33.29" ry="18"/>
<text text-anchor="middle" x="383" y="-185.3" font-family="Times,serif" font-size="14.00">merge</text>
</g>
<!-- direct_deposit&#45;&gt;merge -->
<g id="edge26" class="edge">
<title>direct_deposit&#45;&gt;merge</title>
<path fill="none" stroke="black" d="M462.19,-256.77C451.46,-251.56 439.84,-245.17 430,-238 420.49,-231.07 411.17,-222.14 403.37,-213.87"/>
<polygon fill="black" stroke="black" points="406.18,-211.76 396.87,-206.71 401.01,-216.47 406.18,-211.76"/>
</g>
<!-- table::add_box -->
<g id="node21" class="node">
<title>table::add_box</title>
<ellipse fill="none" stroke="black" cx="511" cy="-106" rx="40.89" ry="18"/>
<text text-anchor="middle" x="511" y="-102.3" font-family="Times,serif" font-size="14.00">add_box</text>
</g>
<!-- table::add&#45;&gt;table::add_box -->
<g id="edge27" class="edge">
<title>table::add&#45;&gt;table::add_box</title>
<path fill="none" stroke="black" d="M501.54,-170.82C503.06,-160.58 505.03,-147.33 506.77,-135.55"/>
<polygon fill="black" stroke="black" points="510.19,-136.33 508.2,-125.93 503.27,-135.31 510.19,-136.33"/>
</g>
<!-- merge&#45;&gt;error::invalid_argument -->
<g id="edge28" class="edge">
<title>merge&#45;&gt;error::invalid_argument</title>
<path fill="none" stroke="black" d="M380.88,-170.82C379.62,-160.58 377.98,-147.33 376.52,-135.55"/>
<polygon fill="black" stroke="black" points="380.04,-135.43 375.34,-125.93 373.09,-136.29 380.04,-135.43"/>
</g>
</g>
</svg>
