<?xml version="1.0" encoding="UTF-8" standalone="no"?>
<!DOCTYPE svg PUBLIC "-//W3C//DTD SVG 1.1//EN"
 "http://www.w3.org/Graphics/SVG/1.1/DTD/svg11.dtd">
<!-- Generated by graphviz version 7.0.4 (20221203.1631)
 -->
<!-- Title: G Pages: 1 -->
<svg width="246pt" height="207pt"
 viewBox="0.00 0.00 245.88 207.00" xmlns="http://www.w3.org/2000/svg" xmlns:xlink="http://www.w3.org/1999/xlink">
<g id="graph0" class="graph" transform="scale(1 1) rotate(0) translate(4 203)">
<title>G</title>
<polygon fill="white" stroke="none" points="-4,4 -4,-203 241.88,-203 241.88,4 -4,4"/>
<g id="clust1" class="cluster">
<title>cluster_error</title>
<polygon fill="none" stroke="black" points="37.94,-8 37.94,-155 199.94,-155 199.94,-8 37.94,-8"/>
<text text-anchor="middle" x="118.94" y="-139.8" font-family="Times,serif" font-size="14.00">error</text>
</g>
<!-- withdraw_token_from_escrow -->
<g id="node1" class="node">
<title>withdraw_token_from_escrow</title>
<ellipse fill="none" stroke="black" cx="118.94" cy="-181" rx="118.88" ry="18"/>
<text text-anchor="middle" x="118.94" y="-177.3" font-family="Times,serif" font-size="14.00">withdraw_token_from_escrow</text>
</g>
<!-- error::invalid_argument -->
<g id="node2" class="node">
<title>error::invalid_argument</title>
<ellipse fill="none" stroke="black" cx="118.94" cy="-106" rx="73.39" ry="18"/>
<text text-anchor="middle" x="118.94" y="-102.3" font-family="Times,serif" font-size="14.00">invalid_argument</text>
</g>
<!-- withdraw_token_from_escrow&#45;&gt;error::invalid_argument -->
<g id="edge1" class="edge">
<title>withdraw_token_from_escrow&#45;&gt;error::invalid_argument</title>
<path fill="none" stroke="black" d="M118.94,-162.7C118.94,-154.67 118.94,-144.9 118.94,-135.8"/>
<polygon fill="black" stroke="black" points="122.44,-135.94 118.94,-125.94 115.44,-135.94 122.44,-135.94"/>
</g>
<!-- error::canonical -->
<g id="node3" class="node">
<title>error::canonical</title>
<ellipse fill="none" stroke="black" cx="118.94" cy="-34" rx="44.39" ry="18"/>
<text text-anchor="middle" x="118.94" y="-30.3" font-family="Times,serif" font-size="14.00">canonical</text>
</g>
<!-- error::invalid_argument&#45;&gt;error::canonical -->
<g id="edge2" class="edge">
<title>error::invalid_argument&#45;&gt;error::canonical</title>
<path fill="none" stroke="black" d="M118.94,-87.7C118.94,-80.41 118.94,-71.73 118.94,-63.54"/>
<polygon fill="black" stroke="black" points="122.44,-63.62 118.94,-53.62 115.44,-63.62 122.44,-63.62"/>
</g>
</g>
</svg>
