<?xml version="1.0" encoding="UTF-8" standalone="no"?>
<!DOCTYPE svg PUBLIC "-//W3C//DTD SVG 1.1//EN"
 "http://www.w3.org/Graphics/SVG/1.1/DTD/svg11.dtd">
<!-- Generated by graphviz version 7.0.4 (20221203.1631)
 -->
<!-- Title: G Pages: 1 -->
<svg width="1598pt" height="520pt"
 viewBox="0.00 0.00 1598.00 520.00" xmlns="http://www.w3.org/2000/svg" xmlns:xlink="http://www.w3.org/1999/xlink">
<g id="graph0" class="graph" transform="scale(1 1) rotate(0) translate(4 516)">
<title>G</title>
<polygon fill="white" stroke="none" points="-4,4 -4,-516 1594,-516 1594,4 -4,4"/>
<g id="clust1" class="cluster">
<title>cluster_signer</title>
<polygon fill="none" stroke="black" points="8,-8 8,-155 158,-155 158,-8 8,-8"/>
<text text-anchor="middle" x="83" y="-139.8" font-family="Times,serif" font-size="14.00">signer</text>
</g>
<g id="clust2" class="cluster">
<title>cluster_table</title>
<polygon fill="none" stroke="black" points="892,-163 892,-321 1582,-321 1582,-163 892,-163"/>
<text text-anchor="middle" x="1237" y="-305.8" font-family="Times,serif" font-size="14.00">table</text>
</g>
<g id="clust3" class="cluster">
<title>cluster_event</title>
<polygon fill="none" stroke="black" points="596,-80 596,-238 884,-238 884,-80 596,-80"/>
<text text-anchor="middle" x="740" y="-222.8" font-family="Times,serif" font-size="14.00">event</text>
</g>
<g id="clust4" class="cluster">
<title>cluster_token</title>
<polygon fill="none" stroke="black" points="334,-246 334,-468 663,-468 663,-246 334,-246"/>
<text text-anchor="middle" x="498.5" y="-452.8" font-family="Times,serif" font-size="14.00">token</text>
</g>
<g id="clust5" class="cluster">
<title>cluster_bcs</title>
<polygon fill="none" stroke="black" points="892,-80 892,-155 988,-155 988,-80 892,-80"/>
<text text-anchor="middle" x="940" y="-139.8" font-family="Times,serif" font-size="14.00">bcs</text>
</g>
<g id="clust6" class="cluster">
<title>cluster_error</title>
<polygon fill="none" stroke="black" points="314,-80 314,-238 588,-238 588,-80 314,-80"/>
<text text-anchor="middle" x="451" y="-222.8" font-family="Times,serif" font-size="14.00">error</text>
</g>
<g id="clust7" class="cluster">
<title>cluster_account</title>
<polygon fill="none" stroke="black" points="136,-163 136,-321 306,-321 306,-163 136,-163"/>
<text text-anchor="middle" x="221" y="-305.8" font-family="Times,serif" font-size="14.00">account</text>
</g>
<g id="clust8" class="cluster">
<title>cluster_guid</title>
<polygon fill="none" stroke="black" points="171,-80 171,-155 251,-155 251,-80 171,-80"/>
<text text-anchor="middle" x="211" y="-139.8" font-family="Times,serif" font-size="14.00">guid</text>
</g>
<!-- cancel_offer -->
<g id="node1" class="node">
<title>cancel_offer</title>
<ellipse fill="none" stroke="black" cx="639" cy="-494" rx="54.69" ry="18"/>
<text text-anchor="middle" x="639" y="-490.3" font-family="Times,serif" font-size="14.00">cancel_offer</text>
</g>
<!-- signer::address_of -->
<g id="node2" class="node">
<title>signer::address_of</title>
<ellipse fill="none" stroke="black" cx="83" cy="-106" rx="48.99" ry="18"/>
<text text-anchor="middle" x="83" y="-102.3" font-family="Times,serif" font-size="14.00">address_of</text>
</g>
<!-- cancel_offer&#45;&gt;signer::address_of -->
<g id="edge1" class="edge">
<title>cancel_offer&#45;&gt;signer::address_of</title>
<path fill="none" stroke="black" d="M584.52,-491.39C436.86,-485.55 40,-459.48 40,-348 40,-348 40,-348 40,-271 40,-221.5 58.56,-166.26 71.29,-134.19"/>
<polygon fill="black" stroke="black" points="74.4,-135.84 74.94,-125.25 67.92,-133.19 74.4,-135.84"/>
</g>
<!-- table::remove -->
<g id="node3" class="node">
<title>table::remove</title>
<ellipse fill="none" stroke="black" cx="1485" cy="-272" rx="37.89" ry="18"/>
<text text-anchor="middle" x="1485" y="-268.3" font-family="Times,serif" font-size="14.00">remove</text>
</g>
<!-- cancel_offer&#45;&gt;table::remove -->
<g id="edge2" class="edge">
<title>cancel_offer&#45;&gt;table::remove</title>
<path fill="none" stroke="black" d="M676.79,-480.59C683.96,-477.2 691.06,-473.04 697,-468 723.98,-445.11 710.02,-419.79 740,-401 992.22,-242.88 1123.38,-417.48 1405,-321 1423.18,-314.77 1441.69,-304.01 1456.32,-294.25"/>
<polygon fill="black" stroke="black" points="1458.29,-297.15 1464.53,-288.59 1454.31,-291.38 1458.29,-297.15"/>
</g>
<!-- event::emit_event -->
<g id="node4" class="node">
<title>event::emit_event</title>
<ellipse fill="none" stroke="black" cx="826" cy="-189" rx="50.09" ry="18"/>
<text text-anchor="middle" x="826" y="-185.3" font-family="Times,serif" font-size="14.00">emit_event</text>
</g>
<!-- cancel_offer&#45;&gt;event::emit_event -->
<g id="edge3" class="edge">
<title>cancel_offer&#45;&gt;event::emit_event</title>
<path fill="none" stroke="black" d="M659.05,-477.03C661.93,-474.21 664.69,-471.16 667,-468 686.26,-441.67 681.79,-429.87 697,-401 733.17,-332.33 782.58,-255.44 808.5,-216.17"/>
<polygon fill="black" stroke="black" points="811.26,-218.33 813.87,-208.06 805.43,-214.46 811.26,-218.33"/>
</g>
<!-- token::deposit_token -->
<g id="node5" class="node">
<title>token::deposit_token</title>
<ellipse fill="none" stroke="black" cx="595" cy="-419" rx="59.59" ry="18"/>
<text text-anchor="middle" x="595" y="-415.3" font-family="Times,serif" font-size="14.00">deposit_token</text>
</g>
<!-- cancel_offer&#45;&gt;token::deposit_token -->
<g id="edge4" class="edge">
<title>cancel_offer&#45;&gt;token::deposit_token</title>
<path fill="none" stroke="black" d="M628.79,-476.07C623.56,-467.38 617.05,-456.59 611.15,-446.8"/>
<polygon fill="black" stroke="black" points="614.24,-445.15 606.08,-438.39 608.25,-448.76 614.24,-445.15"/>
</g>
<!-- token::get_token_amount -->
<g id="node6" class="node">
<title>token::get_token_amount</title>
<ellipse fill="none" stroke="black" cx="441" cy="-419" rx="76.89" ry="18"/>
<text text-anchor="middle" x="441" y="-415.3" font-family="Times,serif" font-size="14.00">get_token_amount</text>
</g>
<!-- cancel_offer&#45;&gt;token::get_token_amount -->
<g id="edge5" class="edge">
<title>cancel_offer&#45;&gt;token::get_token_amount</title>
<path fill="none" stroke="black" d="M590.24,-485.49C569.97,-481.53 546.45,-475.84 526,-468 508.34,-461.24 489.93,-451.25 474.78,-442.14"/>
<polygon fill="black" stroke="black" points="476.97,-439.38 466.62,-437.11 473.3,-445.34 476.97,-439.38"/>
</g>
<!-- create_token_offer_id -->
<g id="node7" class="node">
<title>create_token_offer_id</title>
<ellipse fill="none" stroke="black" cx="837" cy="-419" rx="88.28" ry="18"/>
<text text-anchor="middle" x="837" y="-415.3" font-family="Times,serif" font-size="14.00">create_token_offer_id</text>
</g>
<!-- cancel_offer&#45;&gt;create_token_offer_id -->
<g id="edge6" class="edge">
<title>cancel_offer&#45;&gt;create_token_offer_id</title>
<path fill="none" stroke="black" d="M683.49,-483.23C699.89,-479.16 718.48,-473.98 735,-468 755.71,-460.5 777.92,-450.32 796.32,-441.26"/>
<polygon fill="black" stroke="black" points="797.65,-444.51 805.03,-436.91 794.52,-438.25 797.65,-444.51"/>
</g>
<!-- signer::borrow_address -->
<g id="node8" class="node">
<title>signer::borrow_address</title>
<ellipse fill="none" stroke="black" cx="83" cy="-34" rx="66.89" ry="18"/>
<text text-anchor="middle" x="83" y="-30.3" font-family="Times,serif" font-size="14.00">borrow_address</text>
</g>
<!-- signer::address_of&#45;&gt;signer::borrow_address -->
<g id="edge7" class="edge">
<title>signer::address_of&#45;&gt;signer::borrow_address</title>
<path fill="none" stroke="black" d="M83,-87.7C83,-80.41 83,-71.73 83,-63.54"/>
<polygon fill="black" stroke="black" points="86.5,-63.62 83,-53.62 79.5,-63.62 86.5,-63.62"/>
</g>
<!-- table::remove_box -->
<g id="node9" class="node">
<title>table::remove_box</title>
<ellipse fill="none" stroke="black" cx="1519" cy="-189" rx="55.49" ry="18"/>
<text text-anchor="middle" x="1519" y="-185.3" font-family="Times,serif" font-size="14.00">remove_box</text>
</g>
<!-- table::remove&#45;&gt;table::remove_box -->
<g id="edge8" class="edge">
<title>table::remove&#45;&gt;table::remove_box</title>
<path fill="none" stroke="black" d="M1492.04,-254.22C1496.45,-243.72 1502.24,-229.93 1507.32,-217.82"/>
<polygon fill="black" stroke="black" points="1510.5,-219.29 1511.14,-208.72 1504.05,-216.58 1510.5,-219.29"/>
</g>
<!-- bcs::to_bytes -->
<g id="node10" class="node">
<title>bcs::to_bytes</title>
<ellipse fill="none" stroke="black" cx="940" cy="-106" rx="40.09" ry="18"/>
<text text-anchor="middle" x="940" y="-102.3" font-family="Times,serif" font-size="14.00">to_bytes</text>
</g>
<!-- event::emit_event&#45;&gt;bcs::to_bytes -->
<g id="edge9" class="edge">
<title>event::emit_event&#45;&gt;bcs::to_bytes</title>
<path fill="none" stroke="black" d="M855.62,-174.2C866.19,-168.77 877.96,-162.13 888,-155 898.07,-147.85 908.25,-138.92 916.9,-130.7"/>
<polygon fill="black" stroke="black" points="919.18,-133.37 923.89,-123.88 914.29,-128.36 919.18,-133.37"/>
</g>
<!-- event::write_to_event_store -->
<g id="node11" class="node">
<title>event::write_to_event_store</title>
<ellipse fill="none" stroke="black" cx="791" cy="-106" rx="85.29" ry="18"/>
<text text-anchor="middle" x="791" y="-102.3" font-family="Times,serif" font-size="14.00">write_to_event_store</text>
</g>
<!-- event::emit_event&#45;&gt;event::write_to_event_store -->
<g id="edge10" class="edge">
<title>event::emit_event&#45;&gt;event::write_to_event_store</title>
<path fill="none" stroke="black" d="M818.58,-170.82C814.03,-160.3 808.11,-146.59 802.91,-134.57"/>
<polygon fill="black" stroke="black" points="806.19,-133.33 799.01,-125.54 799.77,-136.11 806.19,-133.33"/>
</g>
<!-- token::deposit_token&#45;&gt;signer::address_of -->
<g id="edge11" class="edge">
<title>token::deposit_token&#45;&gt;signer::address_of</title>
<path fill="none" stroke="black" d="M550.83,-406.54C542.92,-404.61 534.73,-402.68 527,-401 340.04,-360.32 236.13,-459.38 104,-321 56.2,-270.93 66.63,-181.12 76.01,-135.41"/>
<polygon fill="black" stroke="black" points="79.4,-136.26 78.13,-125.75 72.57,-134.76 79.4,-136.26"/>
</g>
<!-- token::direct_deposit -->
<g id="node12" class="node">
<title>token::direct_deposit</title>
<ellipse fill="none" stroke="black" cx="595" cy="-347" rx="60.39" ry="18"/>
<text text-anchor="middle" x="595" y="-343.3" font-family="Times,serif" font-size="14.00">direct_deposit</text>
</g>
<!-- token::deposit_token&#45;&gt;token::direct_deposit -->
<g id="edge12" class="edge">
<title>token::deposit_token&#45;&gt;token::direct_deposit</title>
<path fill="none" stroke="black" d="M595,-400.7C595,-393.41 595,-384.73 595,-376.54"/>
<polygon fill="black" stroke="black" points="598.5,-376.62 595,-366.62 591.5,-376.62 598.5,-376.62"/>
</g>
<!-- token::initialize_token_store -->
<g id="node13" class="node">
<title>token::initialize_token_store</title>
<ellipse fill="none" stroke="black" cx="429" cy="-347" rx="87.18" ry="18"/>
<text text-anchor="middle" x="429" y="-343.3" font-family="Times,serif" font-size="14.00">initialize_token_store</text>
</g>
<!-- token::deposit_token&#45;&gt;token::initialize_token_store -->
<g id="edge13" class="edge">
<title>token::deposit_token&#45;&gt;token::initialize_token_store</title>
<path fill="none" stroke="black" d="M561.41,-403.83C537.07,-393.57 503.82,-379.55 476.73,-368.13"/>
<polygon fill="black" stroke="black" points="478.27,-364.98 467.7,-364.32 475.55,-371.43 478.27,-364.98"/>
</g>
<!-- token::direct_deposit&#45;&gt;event::emit_event -->
<g id="edge19" class="edge">
<title>token::direct_deposit&#45;&gt;event::emit_event</title>
<path fill="none" stroke="black" d="M602.07,-329.01C612.75,-305.73 635.4,-264.69 669,-246 688.1,-235.38 746.73,-246.15 767,-238 780.27,-232.67 792.87,-223.26 802.99,-214.18"/>
<polygon fill="black" stroke="black" points="805.26,-216.85 810.1,-207.43 800.44,-211.77 805.26,-216.85"/>
</g>
<!-- error::invalid_argument -->
<g id="node14" class="node">
<title>error::invalid_argument</title>
<ellipse fill="none" stroke="black" cx="395" cy="-189" rx="73.39" ry="18"/>
<text text-anchor="middle" x="395" y="-185.3" font-family="Times,serif" font-size="14.00">invalid_argument</text>
</g>
<!-- token::direct_deposit&#45;&gt;error::invalid_argument -->
<g id="edge14" class="edge">
<title>token::direct_deposit&#45;&gt;error::invalid_argument</title>
<path fill="none" stroke="black" d="M567.27,-330.8C562.1,-327.71 556.81,-324.37 552,-321 503.57,-287.08 451.7,-241.84 421.37,-214.38"/>
<polygon fill="black" stroke="black" points="423.91,-211.96 414.16,-207.81 419.19,-217.13 423.91,-211.96"/>
</g>
<!-- error::not_found -->
<g id="node15" class="node">
<title>error::not_found</title>
<ellipse fill="none" stroke="black" cx="533" cy="-189" rx="46.59" ry="18"/>
<text text-anchor="middle" x="533" y="-185.3" font-family="Times,serif" font-size="14.00">not_found</text>
</g>
<!-- token::direct_deposit&#45;&gt;error::not_found -->
<g id="edge15" class="edge">
<title>token::direct_deposit&#45;&gt;error::not_found</title>
<path fill="none" stroke="black" d="M588.13,-328.71C577.41,-301.74 556.63,-249.44 543.86,-217.33"/>
<polygon fill="black" stroke="black" points="547.22,-216.3 540.27,-208.3 540.71,-218.89 547.22,-216.3"/>
</g>
<!-- table::contains -->
<g id="node16" class="node">
<title>table::contains</title>
<ellipse fill="none" stroke="black" cx="1248" cy="-272" rx="40.09" ry="18"/>
<text text-anchor="middle" x="1248" y="-268.3" font-family="Times,serif" font-size="14.00">contains</text>
</g>
<!-- token::direct_deposit&#45;&gt;table::contains -->
<g id="edge16" class="edge">
<title>token::direct_deposit&#45;&gt;table::contains</title>
<path fill="none" stroke="black" d="M645.57,-336.87C664.74,-333.79 686.81,-330.7 707,-329 757.05,-324.78 1110.41,-333.73 1159,-321 1179.95,-315.51 1201.39,-304.16 1217.97,-293.88"/>
<polygon fill="black" stroke="black" points="1219.82,-296.84 1226.34,-288.49 1216.04,-290.96 1219.82,-296.84"/>
</g>
<!-- table::borrow_mut -->
<g id="node17" class="node">
<title>table::borrow_mut</title>
<ellipse fill="none" stroke="black" cx="1095" cy="-272" rx="54.69" ry="18"/>
<text text-anchor="middle" x="1095" y="-268.3" font-family="Times,serif" font-size="14.00">borrow_mut</text>
</g>
<!-- token::direct_deposit&#45;&gt;table::borrow_mut -->
<g id="edge17" class="edge">
<title>token::direct_deposit&#45;&gt;table::borrow_mut</title>
<path fill="none" stroke="black" d="M645.86,-336.94C664.97,-333.89 686.92,-330.8 707,-329 769,-323.43 926.3,-334.79 987,-321 1012.05,-315.31 1038.42,-303.71 1058.84,-293.34"/>
<polygon fill="black" stroke="black" points="1060.35,-296.5 1067.59,-288.76 1057.11,-290.29 1060.35,-296.5"/>
</g>
<!-- table::add -->
<g id="node18" class="node">
<title>table::add</title>
<ellipse fill="none" stroke="black" cx="1369" cy="-272" rx="27" ry="18"/>
<text text-anchor="middle" x="1369" y="-268.3" font-family="Times,serif" font-size="14.00">add</text>
</g>
<!-- token::direct_deposit&#45;&gt;table::add -->
<g id="edge18" class="edge">
<title>token::direct_deposit&#45;&gt;table::add</title>
<path fill="none" stroke="black" d="M645.56,-336.82C664.74,-333.74 686.81,-330.66 707,-329 739.67,-326.31 1265.69,-330.71 1297,-321 1314.43,-315.59 1331.54,-304.5 1344.7,-294.35"/>
<polygon fill="black" stroke="black" points="1346.78,-297.17 1352.36,-288.16 1342.38,-291.72 1346.78,-297.17"/>
</g>
<!-- token::merge -->
<g id="node19" class="node">
<title>token::merge</title>
<ellipse fill="none" stroke="black" cx="405" cy="-272" rx="33.29" ry="18"/>
<text text-anchor="middle" x="405" y="-268.3" font-family="Times,serif" font-size="14.00">merge</text>
</g>
<!-- token::direct_deposit&#45;&gt;token::merge -->
<g id="edge20" class="edge">
<title>token::direct_deposit&#45;&gt;token::merge</title>
<path fill="none" stroke="black" d="M549.87,-334.79C541.61,-332.81 533.05,-330.8 525,-329 507.73,-325.13 502.51,-327.38 486,-321 467.61,-313.9 448.58,-302.84 433.58,-293.12"/>
<polygon fill="black" stroke="black" points="435.88,-290.45 425.62,-287.82 432.01,-296.28 435.88,-290.45"/>
</g>
<!-- token::initialize_token_store&#45;&gt;signer::address_of -->
<g id="edge21" class="edge">
<title>token::initialize_token_store&#45;&gt;signer::address_of</title>
<path fill="none" stroke="black" d="M342.77,-343.85C260.79,-341 147.7,-334.63 132,-321 117.96,-308.81 96.84,-190.81 87.6,-135.43"/>
<polygon fill="black" stroke="black" points="91.1,-135.11 86.02,-125.81 84.19,-136.25 91.1,-135.11"/>
</g>
<!-- table::new -->
<g id="node20" class="node">
<title>table::new</title>
<ellipse fill="none" stroke="black" cx="951" cy="-272" rx="27" ry="18"/>
<text text-anchor="middle" x="951" y="-268.3" font-family="Times,serif" font-size="14.00">new</text>
</g>
<!-- token::initialize_token_store&#45;&gt;table::new -->
<g id="edge22" class="edge">
<title>token::initialize_token_store&#45;&gt;table::new</title>
<path fill="none" stroke="black" d="M491.2,-333.99C502.73,-332.08 514.71,-330.31 526,-329 588.35,-321.79 604.63,-328.02 667,-321 756.35,-310.95 860.29,-291.34 914.25,-280.55"/>
<polygon fill="black" stroke="black" points="914.69,-284.03 923.81,-278.63 913.31,-277.17 914.69,-284.03"/>
</g>
<!-- account::new_event_handle -->
<g id="node21" class="node">
<title>account::new_event_handle</title>
<ellipse fill="none" stroke="black" cx="221" cy="-272" rx="76.89" ry="18"/>
<text text-anchor="middle" x="221" y="-268.3" font-family="Times,serif" font-size="14.00">new_event_handle</text>
</g>
<!-- token::initialize_token_store&#45;&gt;account::new_event_handle -->
<g id="edge23" class="edge">
<title>token::initialize_token_store&#45;&gt;account::new_event_handle</title>
<path fill="none" stroke="black" d="M371.2,-333.13C357.56,-329.62 343.16,-325.52 330,-321 307.46,-313.25 283.11,-302.75 263.16,-293.54"/>
<polygon fill="black" stroke="black" points="264.78,-290.43 254.24,-289.37 261.81,-296.77 264.78,-290.43"/>
</g>
<!-- error::canonical -->
<g id="node22" class="node">
<title>error::canonical</title>
<ellipse fill="none" stroke="black" cx="464" cy="-106" rx="44.39" ry="18"/>
<text text-anchor="middle" x="464" y="-102.3" font-family="Times,serif" font-size="14.00">canonical</text>
</g>
<!-- error::invalid_argument&#45;&gt;error::canonical -->
<g id="edge24" class="edge">
<title>error::invalid_argument&#45;&gt;error::canonical</title>
<path fill="none" stroke="black" d="M409.3,-171.22C418.89,-159.96 431.7,-144.92 442.51,-132.22"/>
<polygon fill="black" stroke="black" points="445.16,-134.52 448.98,-124.64 439.83,-129.98 445.16,-134.52"/>
</g>
<!-- error::not_found&#45;&gt;error::canonical -->
<g id="edge25" class="edge">
<title>error::not_found&#45;&gt;error::canonical</title>
<path fill="none" stroke="black" d="M519.04,-171.61C509.31,-160.19 496.16,-144.75 485.15,-131.83"/>
<polygon fill="black" stroke="black" points="488.07,-129.86 478.92,-124.52 482.74,-134.4 488.07,-129.86"/>
</g>
<!-- table::contains_box -->
<g id="node23" class="node">
<title>table::contains_box</title>
<ellipse fill="none" stroke="black" cx="1288" cy="-189" rx="57.69" ry="18"/>
<text text-anchor="middle" x="1288" y="-185.3" font-family="Times,serif" font-size="14.00">contains_box</text>
</g>
<!-- table::contains&#45;&gt;table::contains_box -->
<g id="edge26" class="edge">
<title>table::contains&#45;&gt;table::contains_box</title>
<path fill="none" stroke="black" d="M1256.29,-254.22C1261.56,-243.54 1268.51,-229.46 1274.56,-217.21"/>
<polygon fill="black" stroke="black" points="1277.63,-218.91 1278.91,-208.4 1271.35,-215.81 1277.63,-218.91"/>
</g>
<!-- table::borrow_box_mut -->
<g id="node24" class="node">
<title>table::borrow_box_mut</title>
<ellipse fill="none" stroke="black" cx="1140" cy="-189" rx="72.29" ry="18"/>
<text text-anchor="middle" x="1140" y="-185.3" font-family="Times,serif" font-size="14.00">borrow_box_mut</text>
</g>
<!-- table::borrow_mut&#45;&gt;table::borrow_box_mut -->
<g id="edge27" class="edge">
<title>table::borrow_mut&#45;&gt;table::borrow_box_mut</title>
<path fill="none" stroke="black" d="M1104.54,-253.82C1110.45,-243.19 1118.16,-229.31 1124.89,-217.2"/>
<polygon fill="black" stroke="black" points="1127.94,-218.92 1129.74,-208.48 1121.82,-215.52 1127.94,-218.92"/>
</g>
<!-- table::add_box -->
<g id="node25" class="node">
<title>table::add_box</title>
<ellipse fill="none" stroke="black" cx="1405" cy="-189" rx="40.89" ry="18"/>
<text text-anchor="middle" x="1405" y="-185.3" font-family="Times,serif" font-size="14.00">add_box</text>
</g>
<!-- table::add&#45;&gt;table::add_box -->
<g id="edge28" class="edge">
<title>table::add&#45;&gt;table::add_box</title>
<path fill="none" stroke="black" d="M1376.46,-254.22C1381.21,-243.54 1387.46,-229.46 1392.91,-217.21"/>
<polygon fill="black" stroke="black" points="1395.95,-218.98 1396.81,-208.42 1389.55,-216.14 1395.95,-218.98"/>
</g>
<!-- token::merge&#45;&gt;error::invalid_argument -->
<g id="edge29" class="edge">
<title>token::merge&#45;&gt;error::invalid_argument</title>
<path fill="none" stroke="black" d="M402.88,-253.82C401.62,-243.58 399.98,-230.33 398.52,-218.55"/>
<polygon fill="black" stroke="black" points="402.04,-218.43 397.34,-208.93 395.09,-219.29 402.04,-218.43"/>
</g>
<!-- table::new_table_handle -->
<g id="node26" class="node">
<title>table::new_table_handle</title>
<ellipse fill="none" stroke="black" cx="975" cy="-189" rx="74.99" ry="18"/>
<text text-anchor="middle" x="975" y="-185.3" font-family="Times,serif" font-size="14.00">new_table_handle</text>
</g>
<!-- table::new&#45;&gt;table::new_table_handle -->
<g id="edge30" class="edge">
<title>table::new&#45;&gt;table::new_table_handle</title>
<path fill="none" stroke="black" d="M956.09,-253.82C959.16,-243.48 963.13,-230.05 966.65,-218.18"/>
<polygon fill="black" stroke="black" points="969.92,-219.47 969.4,-208.88 963.21,-217.48 969.92,-219.47"/>
</g>
<!-- event::new_event_handle -->
<g id="node27" class="node">
<title>event::new_event_handle</title>
<ellipse fill="none" stroke="black" cx="681" cy="-189" rx="76.89" ry="18"/>
<text text-anchor="middle" x="681" y="-185.3" font-family="Times,serif" font-size="14.00">new_event_handle</text>
</g>
<!-- account::new_event_handle&#45;&gt;event::new_event_handle -->
<g id="edge31" class="edge">
<title>account::new_event_handle&#45;&gt;event::new_event_handle</title>
<path fill="none" stroke="black" d="M269.74,-257.69C288.44,-253.14 310.07,-248.56 330,-246 387.77,-238.56 535.75,-253.12 592,-238 611.8,-232.68 632.05,-222.23 648.22,-212.43"/>
<polygon fill="black" stroke="black" points="649.84,-215.55 656.45,-207.27 646.11,-209.62 649.84,-215.55"/>
</g>
<!-- account::create_guid -->
<g id="node28" class="node">
<title>account::create_guid</title>
<ellipse fill="none" stroke="black" cx="211" cy="-189" rx="51.99" ry="18"/>
<text text-anchor="middle" x="211" y="-185.3" font-family="Times,serif" font-size="14.00">create_guid</text>
</g>
<!-- account::new_event_handle&#45;&gt;account::create_guid -->
<g id="edge32" class="edge">
<title>account::new_event_handle&#45;&gt;account::create_guid</title>
<path fill="none" stroke="black" d="M218.88,-253.82C217.62,-243.58 215.98,-230.33 214.52,-218.55"/>
<polygon fill="black" stroke="black" points="218.04,-218.43 213.34,-208.93 211.09,-219.29 218.04,-218.43"/>
</g>
<!-- account::create_guid&#45;&gt;signer::address_of -->
<g id="edge33" class="edge">
<title>account::create_guid&#45;&gt;signer::address_of</title>
<path fill="none" stroke="black" d="M186.92,-172.76C167.08,-160.21 138.71,-142.25 116.62,-128.28"/>
<polygon fill="black" stroke="black" points="118.57,-125.37 108.25,-122.98 114.83,-131.28 118.57,-125.37"/>
</g>
<!-- guid::create -->
<g id="node29" class="node">
<title>guid::create</title>
<ellipse fill="none" stroke="black" cx="211" cy="-106" rx="31.7" ry="18"/>
<text text-anchor="middle" x="211" y="-102.3" font-family="Times,serif" font-size="14.00">create</text>
</g>
<!-- account::create_guid&#45;&gt;guid::create -->
<g id="edge34" class="edge">
<title>account::create_guid&#45;&gt;guid::create</title>
<path fill="none" stroke="black" d="M211,-170.82C211,-160.69 211,-147.6 211,-135.92"/>
<polygon fill="black" stroke="black" points="214.5,-135.95 211,-125.95 207.5,-135.95 214.5,-135.95"/>
</g>
</g>
</svg>
