<?xml version="1.0" encoding="UTF-8" standalone="no"?>
<!DOCTYPE svg PUBLIC "-//W3C//DTD SVG 1.1//EN"
 "http://www.w3.org/Graphics/SVG/1.1/DTD/svg11.dtd">
<!-- Generated by graphviz version 7.0.4 (20221203.1631)
 -->
<!-- Title: G Pages: 1 -->
<svg width="1508pt" height="692pt"
 viewBox="0.00 0.00 1508.00 692.00" xmlns="http://www.w3.org/2000/svg" xmlns:xlink="http://www.w3.org/1999/xlink">
<g id="graph0" class="graph" transform="scale(1 1) rotate(0) translate(4 688)">
<title>G</title>
<polygon fill="white" stroke="none" points="-4,4 -4,-688 1504,-688 1504,4 -4,4"/>
<!-- token_transfers -->
<g id="node1" class="node">
<title>token_transfers</title>
<ellipse fill="none" stroke="black" cx="689" cy="-666" rx="64.99" ry="18"/>
<text text-anchor="middle" x="689" y="-662.3" font-family="Times,serif" font-size="14.00">token_transfers</text>
</g>
<!-- string -->
<g id="node2" class="node">
<title>string</title>
<ellipse fill="none" stroke="black" cx="1276" cy="-162" rx="30.59" ry="18"/>
<text text-anchor="middle" x="1276" y="-158.3" font-family="Times,serif" font-size="14.00">string</text>
</g>
<!-- token_transfers&#45;&gt;string -->
<g id="edge1" class="edge">
<title>token_transfers&#45;&gt;string</title>
<path fill="none" stroke="black" d="M751.63,-660.65C941.85,-646.59 1500,-598.89 1500,-523 1500,-523 1500,-523 1500,-377 1500,-291.57 1460.01,-271.42 1395,-216 1371.57,-196.02 1339.4,-182.3 1314.42,-173.84"/>
<polygon fill="black" stroke="black" points="1315.53,-170.52 1304.94,-170.78 1313.38,-177.18 1315.53,-170.52"/>
</g>
<!-- signer -->
<g id="node3" class="node">
<title>signer</title>
<ellipse fill="none" stroke="black" cx="114" cy="-90" rx="32.49" ry="18"/>
<text text-anchor="middle" x="114" y="-86.3" font-family="Times,serif" font-size="14.00">signer</text>
</g>
<!-- token_transfers&#45;&gt;signer -->
<g id="edge2" class="edge">
<title>token_transfers&#45;&gt;signer</title>
<path fill="none" stroke="black" d="M623.73,-665.81C484.89,-666.52 165.23,-662.44 71,-612 26.39,-588.12 0,-573.6 0,-523 0,-523 0,-523 0,-233 0,-179.4 50.01,-134.51 83.78,-110.3"/>
<polygon fill="black" stroke="black" points="85.36,-113.47 91.58,-104.9 81.37,-107.72 85.36,-113.47"/>
</g>
<!-- error -->
<g id="node4" class="node">
<title>error</title>
<ellipse fill="none" stroke="black" cx="529" cy="-90" rx="27.9" ry="18"/>
<text text-anchor="middle" x="529" y="-86.3" font-family="Times,serif" font-size="14.00">error</text>
</g>
<!-- token_transfers&#45;&gt;error -->
<g id="edge3" class="edge">
<title>token_transfers&#45;&gt;error</title>
<path fill="none" stroke="black" d="M623.8,-664.45C459.22,-661.31 40,-641.66 40,-523 40,-523 40,-523 40,-449 40,-296.54 73.53,-233.43 197,-144 243.2,-110.54 412.4,-97.28 489.84,-92.88"/>
<polygon fill="black" stroke="black" points="489.7,-96.39 499.5,-92.35 489.32,-89.4 489.7,-96.39"/>
</g>
<!-- table -->
<g id="node5" class="node">
<title>table</title>
<ellipse fill="none" stroke="black" cx="134" cy="-378" rx="27.9" ry="18"/>
<text text-anchor="middle" x="134" y="-374.3" font-family="Times,serif" font-size="14.00">table</text>
</g>
<!-- token_transfers&#45;&gt;table -->
<g id="edge4" class="edge">
<title>token_transfers&#45;&gt;table</title>
<path fill="none" stroke="black" d="M631.53,-657.29C513.05,-640.4 246.91,-597.06 177,-540 137.83,-508.03 132.1,-444.69 132.41,-407.7"/>
<polygon fill="black" stroke="black" points="135.91,-407.85 132.67,-397.76 128.91,-407.67 135.91,-407.85"/>
</g>
<!-- event -->
<g id="node6" class="node">
<title>event</title>
<ellipse fill="none" stroke="black" cx="1034" cy="-378" rx="29.8" ry="18"/>
<text text-anchor="middle" x="1034" y="-374.3" font-family="Times,serif" font-size="14.00">event</text>
</g>
<!-- token_transfers&#45;&gt;event -->
<g id="edge5" class="edge">
<title>token_transfers&#45;&gt;event</title>
<path fill="none" stroke="black" d="M747.61,-657.8C859.86,-642.66 1098.41,-603.62 1147,-540 1185.42,-489.68 1108.93,-427.81 1063.81,-397.5"/>
<polygon fill="black" stroke="black" points="1065.99,-394.75 1055.71,-392.19 1062.15,-400.6 1065.99,-394.75"/>
</g>
<!-- account -->
<g id="node7" class="node">
<title>account</title>
<ellipse fill="none" stroke="black" cx="714" cy="-450" rx="38.19" ry="18"/>
<text text-anchor="middle" x="714" y="-446.3" font-family="Times,serif" font-size="14.00">account</text>
</g>
<!-- token_transfers&#45;&gt;account -->
<g id="edge6" class="edge">
<title>token_transfers&#45;&gt;account</title>
<path fill="none" stroke="black" d="M691,-647.85C695.29,-611.14 705.39,-524.66 710.67,-479.53"/>
<polygon fill="black" stroke="black" points="714.13,-480.07 711.81,-469.74 707.17,-479.26 714.13,-480.07"/>
</g>
<!-- token -->
<g id="node8" class="node">
<title>token</title>
<ellipse fill="none" stroke="black" cx="748" cy="-594" rx="30.59" ry="18"/>
<text text-anchor="middle" x="748" y="-590.3" font-family="Times,serif" font-size="14.00">token</text>
</g>
<!-- token_transfers&#45;&gt;token -->
<g id="edge7" class="edge">
<title>token_transfers&#45;&gt;token</title>
<path fill="none" stroke="black" d="M703.28,-648.05C710.62,-639.35 719.69,-628.59 727.74,-619.03"/>
<polygon fill="black" stroke="black" points="730.31,-621.42 734.08,-611.51 724.96,-616.9 730.31,-621.42"/>
</g>
<!-- vector -->
<g id="node9" class="node">
<title>vector</title>
<ellipse fill="none" stroke="black" cx="1047" cy="-18" rx="32.49" ry="18"/>
<text text-anchor="middle" x="1047" y="-14.3" font-family="Times,serif" font-size="14.00">vector</text>
</g>
<!-- string&#45;&gt;vector -->
<g id="edge8" class="edge">
<title>string&#45;&gt;vector</title>
<path fill="none" stroke="black" d="M1255.68,-148.4C1215.4,-123.42 1125.22,-67.5 1077.68,-38.02"/>
<polygon fill="black" stroke="black" points="1079.57,-35.08 1069.22,-32.78 1075.88,-41.03 1079.57,-35.08"/>
</g>
<!-- option -->
<g id="node10" class="node">
<title>option</title>
<ellipse fill="none" stroke="black" cx="1088" cy="-90" rx="33.29" ry="18"/>
<text text-anchor="middle" x="1088" y="-86.3" font-family="Times,serif" font-size="14.00">option</text>
</g>
<!-- string&#45;&gt;option -->
<g id="edge9" class="edge">
<title>string&#45;&gt;option</title>
<path fill="none" stroke="black" d="M1250.65,-151.56C1218.35,-139.54 1162.29,-118.66 1125.17,-104.84"/>
<polygon fill="black" stroke="black" points="1126.78,-101.71 1116.19,-101.5 1124.34,-108.27 1126.78,-101.71"/>
</g>
<!-- bcs -->
<g id="node11" class="node">
<title>bcs</title>
<ellipse fill="none" stroke="black" cx="772" cy="-162" rx="27" ry="18"/>
<text text-anchor="middle" x="772" y="-158.3" font-family="Times,serif" font-size="14.00">bcs</text>
</g>
<!-- event&#45;&gt;bcs -->
<g id="edge10" class="edge">
<title>event&#45;&gt;bcs</title>
<path fill="none" stroke="black" d="M1029.52,-359.86C1023.62,-340.25 1011.51,-308.26 991,-288 964.12,-261.46 945.22,-273.26 914,-252 894.77,-238.91 895,-229.42 876,-216 853.73,-200.27 826.14,-186.44 804.97,-176.85"/>
<polygon fill="black" stroke="black" points="806.5,-173.7 795.94,-172.85 803.67,-180.1 806.5,-173.7"/>
</g>
<!-- guid -->
<g id="node12" class="node">
<title>guid</title>
<ellipse fill="none" stroke="black" cx="955" cy="-306" rx="27" ry="18"/>
<text text-anchor="middle" x="955" y="-302.3" font-family="Times,serif" font-size="14.00">guid</text>
</g>
<!-- event&#45;&gt;guid -->
<g id="edge11" class="edge">
<title>event&#45;&gt;guid</title>
<path fill="none" stroke="black" d="M1017.63,-362.5C1006.58,-352.7 991.79,-339.6 979.36,-328.58"/>
<polygon fill="black" stroke="black" points="981.75,-326.02 971.94,-322.01 977.11,-331.26 981.75,-326.02"/>
</g>
<!-- account&#45;&gt;signer -->
<g id="edge14" class="edge">
<title>account&#45;&gt;signer</title>
<path fill="none" stroke="black" d="M676.2,-446.56C592.23,-440.7 392.83,-424.18 332,-396 244.89,-355.65 224.46,-331.74 171,-252 142.93,-210.14 127.01,-152.9 119.48,-119.15"/>
<polygon fill="black" stroke="black" points="122.98,-118.79 117.47,-109.74 116.13,-120.25 122.98,-118.79"/>
</g>
<!-- account&#45;&gt;error -->
<g id="edge15" class="edge">
<title>account&#45;&gt;error</title>
<path fill="none" stroke="black" d="M675.78,-447.89C605.99,-443.43 461.47,-422.24 422,-324 391.84,-248.94 399.8,-208.22 449,-144 461.3,-127.94 479.93,-115.2 496.11,-106.23"/>
<polygon fill="black" stroke="black" points="497.73,-109.33 504.96,-101.59 494.48,-103.13 497.73,-109.33"/>
</g>
<!-- account&#45;&gt;table -->
<g id="edge18" class="edge">
<title>account&#45;&gt;table</title>
<path fill="none" stroke="black" d="M676.83,-445.1C598.29,-436.79 409.73,-416.41 252,-396 225.43,-392.56 195.56,-388.26 172.52,-384.84"/>
<polygon fill="black" stroke="black" points="173.06,-381.38 162.65,-383.36 172.02,-388.3 173.06,-381.38"/>
</g>
<!-- account&#45;&gt;event -->
<g id="edge25" class="edge">
<title>account&#45;&gt;event</title>
<path fill="none" stroke="black" d="M750.65,-444.1C803.99,-436.48 905.81,-420.14 990,-396 993.1,-395.11 996.29,-394.09 999.46,-393.01"/>
<polygon fill="black" stroke="black" points="1000.44,-396.38 1008.64,-389.66 998.04,-389.8 1000.44,-396.38"/>
</g>
<!-- account&#45;&gt;vector -->
<g id="edge12" class="edge">
<title>account&#45;&gt;vector</title>
<path fill="none" stroke="black" d="M709.51,-431.72C697.58,-381.6 670.29,-234.06 736,-144 799.47,-57.01 933.67,-30.47 1003.2,-22.44"/>
<polygon fill="black" stroke="black" points="1003.51,-25.92 1013.08,-21.38 1002.77,-18.96 1003.51,-25.92"/>
</g>
<!-- account&#45;&gt;option -->
<g id="edge13" class="edge">
<title>account&#45;&gt;option</title>
<path fill="none" stroke="black" d="M735.33,-434.58C750.52,-424.16 771.29,-409.58 789,-396 848.61,-350.29 855.99,-328.89 919,-288 949.34,-268.31 962.05,-272.29 992,-252 1031.6,-225.17 1048.73,-221.8 1072,-180 1082.29,-161.52 1086.18,-137.85 1087.56,-119.56"/>
<polygon fill="black" stroke="black" points="1091.05,-119.84 1088.07,-109.67 1084.05,-119.48 1091.05,-119.84"/>
</g>
<!-- account&#45;&gt;bcs -->
<g id="edge16" class="edge">
<title>account&#45;&gt;bcs</title>
<path fill="none" stroke="black" d="M729.22,-433.36C758.42,-402.09 821.33,-328.29 843,-252 847.37,-236.61 850.17,-230.3 843,-216 838.29,-206.6 818.37,-192.13 800.82,-180.68"/>
<polygon fill="black" stroke="black" points="803.02,-177.93 792.7,-175.5 799.25,-183.83 803.02,-177.93"/>
</g>
<!-- account&#45;&gt;guid -->
<g id="edge23" class="edge">
<title>account&#45;&gt;guid</title>
<path fill="none" stroke="black" d="M752.28,-448.28C796.11,-445.52 867.81,-434.83 914,-396 932.42,-380.52 943,-354.97 948.78,-335.21"/>
<polygon fill="black" stroke="black" points="952.17,-336.11 951.34,-325.55 945.4,-334.32 952.17,-336.11"/>
</g>
<!-- type_info -->
<g id="node13" class="node">
<title>type_info</title>
<ellipse fill="none" stroke="black" cx="790" cy="-234" rx="44.39" ry="18"/>
<text text-anchor="middle" x="790" y="-230.3" font-family="Times,serif" font-size="14.00">type_info</text>
</g>
<!-- account&#45;&gt;type_info -->
<g id="edge17" class="edge">
<title>account&#45;&gt;type_info</title>
<path fill="none" stroke="black" d="M720.09,-431.85C733.18,-394.99 764.1,-307.92 780.07,-262.96"/>
<polygon fill="black" stroke="black" points="783.33,-264.25 783.37,-253.66 776.73,-261.91 783.33,-264.25"/>
</g>
<!-- system_addresses -->
<g id="node14" class="node">
<title>system_addresses</title>
<ellipse fill="none" stroke="black" cx="291" cy="-162" rx="73.39" ry="18"/>
<text text-anchor="middle" x="291" y="-158.3" font-family="Times,serif" font-size="14.00">system_addresses</text>
</g>
<!-- account&#45;&gt;system_addresses -->
<g id="edge19" class="edge">
<title>account&#45;&gt;system_addresses</title>
<path fill="none" stroke="black" d="M675.6,-448.11C595.05,-445.48 412.07,-435.22 366,-396 304.85,-343.94 293.11,-241.77 291.16,-191.84"/>
<polygon fill="black" stroke="black" points="294.66,-191.75 290.89,-181.85 287.66,-191.94 294.66,-191.75"/>
</g>
<!-- hash -->
<g id="node15" class="node">
<title>hash</title>
<ellipse fill="none" stroke="black" cx="511" cy="-234" rx="27" ry="18"/>
<text text-anchor="middle" x="511" y="-230.3" font-family="Times,serif" font-size="14.00">hash</text>
</g>
<!-- account&#45;&gt;hash -->
<g id="edge20" class="edge">
<title>account&#45;&gt;hash</title>
<path fill="none" stroke="black" d="M677.13,-444.74C624.29,-437.78 531.15,-422.09 511,-396 481.37,-357.64 491.88,-297.38 501.75,-262.49"/>
<polygon fill="black" stroke="black" points="505.03,-263.73 504.57,-253.14 498.33,-261.7 505.03,-263.73"/>
</g>
<!-- ed25519 -->
<g id="node16" class="node">
<title>ed25519</title>
<ellipse fill="none" stroke="black" cx="642" cy="-306" rx="40.89" ry="18"/>
<text text-anchor="middle" x="642" y="-302.3" font-family="Times,serif" font-size="14.00">ed25519</text>
</g>
<!-- account&#45;&gt;ed25519 -->
<g id="edge21" class="edge">
<title>account&#45;&gt;ed25519</title>
<path fill="none" stroke="black" d="M705.46,-432.15C693.17,-407.92 670.38,-362.96 655.71,-334.05"/>
<polygon fill="black" stroke="black" points="658.86,-332.51 651.22,-325.17 652.62,-335.68 658.86,-332.51"/>
</g>
<!-- multi_ed25519 -->
<g id="node17" class="node">
<title>multi_ed25519</title>
<ellipse fill="none" stroke="black" cx="584" cy="-378" rx="64.19" ry="18"/>
<text text-anchor="middle" x="584" y="-374.3" font-family="Times,serif" font-size="14.00">multi_ed25519</text>
</g>
<!-- account&#45;&gt;multi_ed25519 -->
<g id="edge22" class="edge">
<title>account&#45;&gt;multi_ed25519</title>
<path fill="none" stroke="black" d="M689.55,-435.83C670.75,-425.71 644.43,-411.54 622.77,-399.88"/>
<polygon fill="black" stroke="black" points="624.68,-396.93 614.21,-395.27 621.36,-403.09 624.68,-396.93"/>
</g>
<!-- from_bcs -->
<g id="node18" class="node">
<title>from_bcs</title>
<ellipse fill="none" stroke="black" cx="1276" cy="-234" rx="44.39" ry="18"/>
<text text-anchor="middle" x="1276" y="-230.3" font-family="Times,serif" font-size="14.00">from_bcs</text>
</g>
<!-- account&#45;&gt;from_bcs -->
<g id="edge24" class="edge">
<title>account&#45;&gt;from_bcs</title>
<path fill="none" stroke="black" d="M750.85,-444.39C796.64,-437.76 876.47,-423.23 940,-396 966.85,-384.49 967.69,-370.37 995,-360 1097.47,-321.07 1152.51,-391.35 1239,-324 1257.76,-309.39 1267.1,-283.57 1271.69,-263.5"/>
<polygon fill="black" stroke="black" points="1275.07,-264.44 1273.58,-253.95 1268.2,-263.08 1275.07,-264.44"/>
</g>
<!-- token&#45;&gt;string -->
<g id="edge27" class="edge">
<title>token&#45;&gt;string</title>
<path fill="none" stroke="black" d="M778.88,-593.72C850.35,-594.43 1031.75,-590.63 1172,-540 1297.01,-494.87 1424,-511.91 1424,-379 1424,-379 1424,-379 1424,-305 1424,-256.54 1396.25,-249.25 1361,-216 1345.6,-201.47 1325.62,-188.78 1308.91,-179.46"/>
<polygon fill="black" stroke="black" points="1310.79,-176.49 1300.32,-174.82 1307.46,-182.65 1310.79,-176.49"/>
</g>
<!-- token&#45;&gt;signer -->
<g id="edge28" class="edge">
<title>token&#45;&gt;signer</title>
<path fill="none" stroke="black" d="M717.38,-591.82C605.43,-587.28 222.49,-569.68 177,-540 37.83,-449.19 85.35,-202.8 106.3,-119.19"/>
<polygon fill="black" stroke="black" points="109.68,-120.1 108.79,-109.54 102.9,-118.35 109.68,-120.1"/>
</g>
<!-- token&#45;&gt;error -->
<g id="edge29" class="edge">
<title>token&#45;&gt;error</title>
<path fill="none" stroke="black" d="M718.15,-589.15C624.39,-576.23 342,-530.71 342,-451 342,-451 342,-451 342,-305 342,-225.1 365.46,-200.46 422,-144 441.79,-124.23 470.44,-110.58 493.12,-102.09"/>
<polygon fill="black" stroke="black" points="494.02,-105.48 502.28,-98.84 491.68,-98.88 494.02,-105.48"/>
</g>
<!-- token&#45;&gt;table -->
<g id="edge30" class="edge">
<title>token&#45;&gt;table</title>
<path fill="none" stroke="black" d="M717.49,-591.68C610.36,-586.83 255.59,-568.72 214,-540 168.81,-508.8 147.94,-444.43 139.32,-407.22"/>
<polygon fill="black" stroke="black" points="142.78,-406.69 137.25,-397.66 135.94,-408.17 142.78,-406.69"/>
</g>
<!-- token&#45;&gt;event -->
<g id="edge31" class="edge">
<title>token&#45;&gt;event</title>
<path fill="none" stroke="black" d="M766.33,-579.29C815.26,-542.67 949.18,-442.47 1006.92,-399.26"/>
<polygon fill="black" stroke="black" points="1008.71,-402.3 1014.62,-393.5 1004.51,-396.69 1008.71,-402.3"/>
</g>
<!-- token&#45;&gt;account -->
<g id="edge32" class="edge">
<title>token&#45;&gt;account</title>
<path fill="none" stroke="black" d="M743.9,-575.87C738.16,-551.88 727.65,-507.99 720.74,-479.16"/>
<polygon fill="black" stroke="black" points="724.2,-478.57 718.47,-469.66 717.39,-480.2 724.2,-478.57"/>
</g>
<!-- token&#45;&gt;option -->
<g id="edge26" class="edge">
<title>token&#45;&gt;option</title>
<path fill="none" stroke="black" d="M779,-593.06C858.84,-592.5 1077.5,-586.49 1252,-540 1328.53,-519.61 1362.44,-527.24 1415,-468 1512.59,-358 1461.36,-237.66 1348,-144 1315.59,-117.22 1197.2,-101.68 1131.93,-94.97"/>
<polygon fill="black" stroke="black" points="1132.59,-91.52 1122.29,-94.01 1131.89,-98.49 1132.59,-91.52"/>
</g>
<!-- timestamp -->
<g id="node19" class="node">
<title>timestamp</title>
<ellipse fill="none" stroke="black" cx="228" cy="-234" rx="48.19" ry="18"/>
<text text-anchor="middle" x="228" y="-230.3" font-family="Times,serif" font-size="14.00">timestamp</text>
</g>
<!-- token&#45;&gt;timestamp -->
<g id="edge33" class="edge">
<title>token&#45;&gt;timestamp</title>
<path fill="none" stroke="black" d="M717.5,-591.49C633.05,-586.95 397.84,-571.73 328,-540 273.83,-515.39 228,-510.5 228,-451 228,-451 228,-451 228,-377 228,-337.74 228,-292.38 228,-263.69"/>
<polygon fill="black" stroke="black" points="231.5,-264 228,-254 224.5,-264 231.5,-264"/>
</g>
<!-- property_map -->
<g id="node20" class="node">
<title>property_map</title>
<ellipse fill="none" stroke="black" cx="1170" cy="-306" rx="60.39" ry="18"/>
<text text-anchor="middle" x="1170" y="-302.3" font-family="Times,serif" font-size="14.00">property_map</text>
</g>
<!-- token&#45;&gt;property_map -->
<g id="edge34" class="edge">
<title>token&#45;&gt;property_map</title>
<path fill="none" stroke="black" d="M778.88,-593.61C863.54,-594.59 1096.36,-592.37 1147,-540 1200.38,-484.79 1187.5,-384.17 1177.08,-335.24"/>
<polygon fill="black" stroke="black" points="1180.55,-334.7 1174.93,-325.72 1173.72,-336.24 1180.55,-334.7"/>
</g>
<!-- token_event_store -->
<g id="node21" class="node">
<title>token_event_store</title>
<ellipse fill="none" stroke="black" cx="1063" cy="-522" rx="75.29" ry="18"/>
<text text-anchor="middle" x="1063" y="-518.3" font-family="Times,serif" font-size="14.00">token_event_store</text>
</g>
<!-- token&#45;&gt;token_event_store -->
<g id="edge35" class="edge">
<title>token&#45;&gt;token_event_store</title>
<path fill="none" stroke="black" d="M776.51,-586.66C826.29,-575.6 930.23,-552.5 998.28,-537.38"/>
<polygon fill="black" stroke="black" points="998.81,-540.85 1007.81,-535.26 997.29,-534.02 998.81,-540.85"/>
</g>
<!-- option&#45;&gt;vector -->
<g id="edge36" class="edge">
<title>option&#45;&gt;vector</title>
<path fill="none" stroke="black" d="M1078.28,-72.41C1073.53,-64.3 1067.71,-54.35 1062.37,-45.25"/>
<polygon fill="black" stroke="black" points="1065.49,-43.64 1057.41,-36.78 1059.45,-47.17 1065.49,-43.64"/>
</g>
<!-- type_info&#45;&gt;string -->
<g id="edge37" class="edge">
<title>type_info&#45;&gt;string</title>
<path fill="none" stroke="black" d="M831.44,-227.03C923.36,-213.79 1143.44,-182.09 1234.98,-168.91"/>
<polygon fill="black" stroke="black" points="1235.35,-172.39 1244.75,-167.5 1234.36,-165.46 1235.35,-172.39"/>
</g>
<!-- type_info&#45;&gt;error -->
<g id="edge38" class="edge">
<title>type_info&#45;&gt;error</title>
<path fill="none" stroke="black" d="M764.5,-219.13C716.26,-192.88 611.82,-136.06 559.77,-107.74"/>
<polygon fill="black" stroke="black" points="561.59,-104.74 551.13,-103.04 558.24,-110.89 561.59,-104.74"/>
</g>
<!-- type_info&#45;&gt;bcs -->
<g id="edge40" class="edge">
<title>type_info&#45;&gt;bcs</title>
<path fill="none" stroke="black" d="M785.55,-215.7C783.65,-208.32 781.39,-199.52 779.26,-191.25"/>
<polygon fill="black" stroke="black" points="782.66,-190.38 776.78,-181.57 775.88,-192.13 782.66,-190.38"/>
</g>
<!-- features -->
<g id="node22" class="node">
<title>features</title>
<ellipse fill="none" stroke="black" cx="496" cy="-162" rx="38.19" ry="18"/>
<text text-anchor="middle" x="496" y="-158.3" font-family="Times,serif" font-size="14.00">features</text>
</g>
<!-- type_info&#45;&gt;features -->
<g id="edge39" class="edge">
<title>type_info&#45;&gt;features</title>
<path fill="none" stroke="black" d="M752.47,-224.06C698.33,-211.17 598.51,-187.41 540.66,-173.63"/>
<polygon fill="black" stroke="black" points="541.69,-170.28 531.15,-171.37 540.07,-177.09 541.69,-170.28"/>
</g>
<!-- system_addresses&#45;&gt;signer -->
<g id="edge41" class="edge">
<title>system_addresses&#45;&gt;signer</title>
<path fill="none" stroke="black" d="M253.46,-146.15C223.1,-134.15 180.58,-117.33 150.5,-105.43"/>
<polygon fill="black" stroke="black" points="152.02,-102.27 141.43,-101.85 149.44,-108.78 152.02,-102.27"/>
</g>
<!-- system_addresses&#45;&gt;error -->
<g id="edge42" class="edge">
<title>system_addresses&#45;&gt;error</title>
<path fill="none" stroke="black" d="M336.89,-147.5C382.33,-134.14 450.98,-113.95 492.73,-101.67"/>
<polygon fill="black" stroke="black" points="493.7,-105.03 502.3,-98.85 491.72,-98.32 493.7,-105.03"/>
</g>
<!-- ed25519&#45;&gt;error -->
<g id="edge44" class="edge">
<title>ed25519&#45;&gt;error</title>
<path fill="none" stroke="black" d="M637.01,-287.65C627.78,-257.12 606.2,-192.46 576,-144 569.27,-133.2 560.3,-122.47 552,-113.51"/>
<polygon fill="black" stroke="black" points="554.53,-111.1 545.08,-106.31 549.48,-115.95 554.53,-111.1"/>
</g>
<!-- ed25519&#45;&gt;option -->
<g id="edge43" class="edge">
<title>ed25519&#45;&gt;option</title>
<path fill="none" stroke="black" d="M660.97,-289.8C673.52,-279.5 690.15,-265.38 704,-252 719.61,-236.92 717.74,-226.01 737,-216 846.36,-159.13 903.65,-238.78 1012,-180 1038.43,-165.66 1059.7,-138.16 1072.95,-117.5"/>
<polygon fill="black" stroke="black" points="1075.91,-119.36 1078.16,-109 1069.95,-115.69 1075.91,-119.36"/>
</g>
<!-- ed25519&#45;&gt;bcs -->
<g id="edge45" class="edge">
<title>ed25519&#45;&gt;bcs</title>
<path fill="none" stroke="black" d="M651.63,-288.15C662.81,-269.37 682.5,-238.69 704,-216 715.9,-203.45 730.91,-191.43 743.8,-182.02"/>
<polygon fill="black" stroke="black" points="745.8,-184.89 751.92,-176.24 741.74,-179.19 745.8,-184.89"/>
</g>
<!-- ed25519&#45;&gt;type_info -->
<g id="edge46" class="edge">
<title>ed25519&#45;&gt;type_info</title>
<path fill="none" stroke="black" d="M669.15,-292.16C692.25,-281.23 725.7,-265.41 751.56,-253.18"/>
<polygon fill="black" stroke="black" points="752.86,-256.44 760.4,-249 749.86,-250.11 752.86,-256.44"/>
</g>
<!-- ed25519&#45;&gt;hash -->
<g id="edge47" class="edge">
<title>ed25519&#45;&gt;hash</title>
<path fill="none" stroke="black" d="M616.74,-291.5C595.21,-280 564.2,-263.43 541.32,-251.2"/>
<polygon fill="black" stroke="black" points="543.26,-248.27 532.79,-246.64 539.96,-254.44 543.26,-248.27"/>
</g>
<!-- multi_ed25519&#45;&gt;error -->
<g id="edge49" class="edge">
<title>multi_ed25519&#45;&gt;error</title>
<path fill="none" stroke="black" d="M562.4,-360.87C535.77,-339.46 491.96,-298.84 475,-252 469.55,-236.96 466.75,-229.71 475,-216 492.64,-186.7 525.36,-209.3 543,-180 554.28,-161.27 549.07,-136.46 542.01,-117.79"/>
<polygon fill="black" stroke="black" points="545.31,-116.61 538.22,-108.74 538.85,-119.31 545.31,-116.61"/>
</g>
<!-- multi_ed25519&#45;&gt;option -->
<g id="edge48" class="edge">
<title>multi_ed25519&#45;&gt;option</title>
<path fill="none" stroke="black" d="M636.49,-367.38C729.97,-347.77 926.66,-294.91 1046,-180 1063.2,-163.44 1074.14,-138.43 1080.53,-119.13"/>
<polygon fill="black" stroke="black" points="1083.83,-120.3 1083.41,-109.71 1077.14,-118.25 1083.83,-120.3"/>
</g>
<!-- multi_ed25519&#45;&gt;bcs -->
<g id="edge51" class="edge">
<title>multi_ed25519&#45;&gt;bcs</title>
<path fill="none" stroke="black" d="M581.95,-359.59C580.54,-340.88 580.62,-310.75 592,-288 621.59,-228.84 694.02,-192.38 737.44,-175.08"/>
<polygon fill="black" stroke="black" points="738.58,-178.39 746.66,-171.53 736.07,-171.85 738.58,-178.39"/>
</g>
<!-- multi_ed25519&#45;&gt;hash -->
<g id="edge52" class="edge">
<title>multi_ed25519&#45;&gt;hash</title>
<path fill="none" stroke="black" d="M574.84,-359.85C569.34,-349.5 562.21,-336.02 556,-324 545.2,-303.11 533.2,-279.34 524.3,-261.62"/>
<polygon fill="black" stroke="black" points="527.49,-260.17 519.88,-252.8 521.24,-263.31 527.49,-260.17"/>
</g>
<!-- multi_ed25519&#45;&gt;ed25519 -->
<g id="edge53" class="edge">
<title>multi_ed25519&#45;&gt;ed25519</title>
<path fill="none" stroke="black" d="M598.04,-360.05C604.98,-351.68 613.49,-341.4 621.17,-332.13"/>
<polygon fill="black" stroke="black" points="623.84,-334.41 627.52,-324.47 618.45,-329.94 623.84,-334.41"/>
</g>
<!-- multi_ed25519&#45;&gt;features -->
<g id="edge50" class="edge">
<title>multi_ed25519&#45;&gt;features</title>
<path fill="none" stroke="black" d="M524.88,-370.72C494.78,-364.18 460.68,-350.91 442,-324 414.63,-284.57 423.42,-260.26 442,-216 447.1,-203.85 456.49,-193.09 466.03,-184.49"/>
<polygon fill="black" stroke="black" points="468.13,-187.29 473.55,-178.19 463.64,-181.93 468.13,-187.29"/>
</g>
<!-- from_bcs&#45;&gt;string -->
<g id="edge54" class="edge">
<title>from_bcs&#45;&gt;string</title>
<path fill="none" stroke="black" d="M1276,-215.7C1276,-208.41 1276,-199.73 1276,-191.54"/>
<polygon fill="black" stroke="black" points="1279.5,-191.62 1276,-181.62 1272.5,-191.62 1279.5,-191.62"/>
</g>
<!-- timestamp&#45;&gt;error -->
<g id="edge55" class="edge">
<title>timestamp&#45;&gt;error</title>
<path fill="none" stroke="black" d="M216.92,-216.21C205.54,-196.63 191.73,-164.36 209,-144 244.59,-102.02 412.39,-93.25 489.76,-91.45"/>
<polygon fill="black" stroke="black" points="489.48,-94.95 499.41,-91.25 489.34,-87.96 489.48,-94.95"/>
</g>
<!-- timestamp&#45;&gt;system_addresses -->
<g id="edge56" class="edge">
<title>timestamp&#45;&gt;system_addresses</title>
<path fill="none" stroke="black" d="M242.93,-216.41C250.43,-208.08 259.68,-197.8 268.06,-188.49"/>
<polygon fill="black" stroke="black" points="270.64,-190.86 274.73,-181.08 265.44,-186.17 270.64,-190.86"/>
</g>
<!-- property_map&#45;&gt;string -->
<g id="edge57" class="edge">
<title>property_map&#45;&gt;string</title>
<path fill="none" stroke="black" d="M1229.17,-301.79C1264.34,-296.47 1306.37,-283.39 1329,-252 1345.01,-229.79 1323.23,-202.52 1302.95,-184.06"/>
<polygon fill="black" stroke="black" points="1305.46,-181.61 1295.61,-177.72 1300.89,-186.91 1305.46,-181.61"/>
</g>
<!-- property_map&#45;&gt;error -->
<g id="edge58" class="edge">
<title>property_map&#45;&gt;error</title>
<path fill="none" stroke="black" d="M1145.85,-289.11C1115.44,-269.67 1061.11,-236.79 1011,-216 956.81,-193.52 935.36,-208.36 884,-180 863.06,-168.44 865.54,-154.4 844,-144 752.28,-99.72 630.03,-91.7 568.27,-90.7"/>
<polygon fill="black" stroke="black" points="568.65,-87.2 558.62,-90.6 568.58,-94.2 568.65,-87.2"/>
</g>
<!-- property_map&#45;&gt;bcs -->
<g id="edge59" class="edge">
<title>property_map&#45;&gt;bcs</title>
<path fill="none" stroke="black" d="M1137.53,-290.53C1095.28,-271.99 1018.94,-239.45 952,-216 902.76,-198.75 844.67,-182.34 808.09,-172.47"/>
<polygon fill="black" stroke="black" points="809.03,-169.1 798.46,-169.89 807.22,-175.86 809.03,-169.1"/>
</g>
<!-- property_map&#45;&gt;type_info -->
<g id="edge60" class="edge">
<title>property_map&#45;&gt;type_info</title>
<path fill="none" stroke="black" d="M1125.57,-293.55C1117.42,-291.59 1108.97,-289.66 1101,-288 1010.64,-269.2 904.48,-252.18 842.48,-242.75"/>
<polygon fill="black" stroke="black" points="843.34,-239.34 832.93,-241.31 842.29,-246.26 843.34,-239.34"/>
</g>
<!-- property_map&#45;&gt;from_bcs -->
<g id="edge61" class="edge">
<title>property_map&#45;&gt;from_bcs</title>
<path fill="none" stroke="black" d="M1194.05,-289.12C1208.82,-279.36 1227.92,-266.75 1243.96,-256.16"/>
<polygon fill="black" stroke="black" points="1245.81,-259.13 1252.23,-250.7 1241.96,-253.29 1245.81,-259.13"/>
</g>
<!-- simple_map -->
<g id="node23" class="node">
<title>simple_map</title>
<ellipse fill="none" stroke="black" cx="948" cy="-162" rx="54.69" ry="18"/>
<text text-anchor="middle" x="948" y="-158.3" font-family="Times,serif" font-size="14.00">simple_map</text>
</g>
<!-- property_map&#45;&gt;simple_map -->
<g id="edge62" class="edge">
<title>property_map&#45;&gt;simple_map</title>
<path fill="none" stroke="black" d="M1169.33,-287.73C1167.61,-267.69 1161.72,-234.98 1142,-216 1107.9,-183.17 1055.51,-170.25 1013.76,-165.36"/>
<polygon fill="black" stroke="black" points="1014.38,-161.9 1004.08,-164.36 1013.67,-168.87 1014.38,-161.9"/>
</g>
<!-- token_event_store&#45;&gt;string -->
<g id="edge64" class="edge">
<title>token_event_store&#45;&gt;string</title>
<path fill="none" stroke="black" d="M1091.29,-505.07C1151.71,-469.2 1292.14,-375.47 1345,-252 1351.3,-237.29 1352.07,-230.35 1345,-216 1337.42,-200.63 1323.01,-188.47 1309.31,-179.7"/>
<polygon fill="black" stroke="black" points="1311.25,-176.78 1300.86,-174.68 1307.67,-182.8 1311.25,-176.78"/>
</g>
<!-- token_event_store&#45;&gt;signer -->
<g id="edge65" class="edge">
<title>token_event_store&#45;&gt;signer</title>
<path fill="none" stroke="black" d="M991.69,-515.91C819.94,-502.7 388.27,-463.56 262,-396 161.13,-342.03 146.75,-291.69 122,-180 117.6,-160.16 115.61,-137.32 114.71,-119.75"/>
<polygon fill="black" stroke="black" points="118.21,-119.62 114.31,-109.77 111.22,-119.91 118.21,-119.62"/>
</g>
<!-- token_event_store&#45;&gt;event -->
<g id="edge66" class="edge">
<title>token_event_store&#45;&gt;event</title>
<path fill="none" stroke="black" d="M1059.44,-503.59C1054.53,-479.5 1045.59,-435.75 1039.73,-407.03"/>
<polygon fill="black" stroke="black" points="1043.23,-406.69 1037.8,-397.59 1036.37,-408.09 1043.23,-406.69"/>
</g>
<!-- token_event_store&#45;&gt;account -->
<g id="edge67" class="edge">
<title>token_event_store&#45;&gt;account</title>
<path fill="none" stroke="black" d="M1006.54,-509.68C937.89,-495.91 823.35,-472.93 759.88,-460.2"/>
<polygon fill="black" stroke="black" points="760.62,-456.78 750.12,-458.25 759.24,-463.64 760.62,-456.78"/>
</g>
<!-- token_event_store&#45;&gt;option -->
<g id="edge63" class="edge">
<title>token_event_store&#45;&gt;option</title>
<path fill="none" stroke="black" d="M1104.74,-506.7C1129.32,-497.39 1160.5,-484.01 1186,-468 1290.64,-402.3 1334.65,-372.71 1361,-252 1372.09,-201.2 1358.31,-174.23 1316,-144 1261.2,-104.85 1181.81,-94.18 1132.63,-91.52"/>
<polygon fill="black" stroke="black" points="1133.06,-88.04 1122.92,-91.09 1132.76,-95.03 1133.06,-88.04"/>
</g>
<!-- token_event_store&#45;&gt;property_map -->
<g id="edge69" class="edge">
<title>token_event_store&#45;&gt;property_map</title>
<path fill="none" stroke="black" d="M1071.58,-503.85C1090.08,-466.83 1133.91,-379.18 1156.31,-334.39"/>
<polygon fill="black" stroke="black" points="1159.37,-336.1 1160.71,-325.59 1153.1,-332.97 1159.37,-336.1"/>
</g>
<!-- any -->
<g id="node24" class="node">
<title>any</title>
<ellipse fill="none" stroke="black" cx="1065" cy="-306" rx="27" ry="18"/>
<text text-anchor="middle" x="1065" y="-302.3" font-family="Times,serif" font-size="14.00">any</text>
</g>
<!-- token_event_store&#45;&gt;any -->
<g id="edge68" class="edge">
<title>token_event_store&#45;&gt;any</title>
<path fill="none" stroke="black" d="M1065.64,-503.6C1069.78,-474.06 1076.92,-412.22 1073,-360 1072.4,-351.99 1071.29,-343.35 1070.09,-335.43"/>
<polygon fill="black" stroke="black" points="1073.55,-334.91 1068.49,-325.61 1066.65,-336.04 1073.55,-334.91"/>
</g>
<!-- features&#45;&gt;signer -->
<g id="edge70" class="edge">
<title>features&#45;&gt;signer</title>
<path fill="none" stroke="black" d="M460.75,-154.54C390.03,-141.58 231.2,-112.48 155.56,-98.62"/>
<polygon fill="black" stroke="black" points="156.55,-95.24 146.08,-96.88 155.29,-102.12 156.55,-95.24"/>
</g>
<!-- features&#45;&gt;error -->
<g id="edge71" class="edge">
<title>features&#45;&gt;error</title>
<path fill="none" stroke="black" d="M503.99,-144.05C507.73,-136.12 512.28,-126.47 516.46,-117.59"/>
<polygon fill="black" stroke="black" points="519.57,-119.21 520.67,-108.68 513.24,-116.23 519.57,-119.21"/>
</g>
<!-- simple_map&#45;&gt;error -->
<g id="edge74" class="edge">
<title>simple_map&#45;&gt;error</title>
<path fill="none" stroke="black" d="M906.17,-150.05C897.24,-147.89 887.83,-145.75 879,-144 766.64,-121.7 632.35,-103.78 567.63,-95.68"/>
<polygon fill="black" stroke="black" points="568.23,-92.23 557.88,-94.47 567.37,-99.17 568.23,-92.23"/>
</g>
<!-- simple_map&#45;&gt;vector -->
<g id="edge72" class="edge">
<title>simple_map&#45;&gt;vector</title>
<path fill="none" stroke="black" d="M959.75,-144.15C976.97,-119.44 1009.22,-73.19 1029.32,-44.36"/>
<polygon fill="black" stroke="black" points="1032.16,-46.4 1035.01,-36.19 1026.42,-42.4 1032.16,-46.4"/>
</g>
<!-- simple_map&#45;&gt;option -->
<g id="edge73" class="edge">
<title>simple_map&#45;&gt;option</title>
<path fill="none" stroke="black" d="M977.01,-146.5C999.37,-135.31 1030.36,-119.82 1053.91,-108.05"/>
<polygon fill="black" stroke="black" points="1055.41,-111.21 1062.79,-103.6 1052.28,-104.95 1055.41,-111.21"/>
</g>
<!-- any&#45;&gt;string -->
<g id="edge75" class="edge">
<title>any&#45;&gt;string</title>
<path fill="none" stroke="black" d="M1083.36,-292.65C1120.08,-267.93 1202.86,-212.22 1247,-182.52"/>
<polygon fill="black" stroke="black" points="1248.72,-185.58 1255.06,-177.09 1244.81,-179.77 1248.72,-185.58"/>
</g>
<!-- any&#45;&gt;error -->
<g id="edge76" class="edge">
<title>any&#45;&gt;error</title>
<path fill="none" stroke="black" d="M1050.06,-290.58C1029.45,-271.35 990.47,-237.26 952,-216 910.29,-192.95 892.36,-203.67 851,-180 829.37,-167.62 830.53,-154.67 808,-144 728.51,-106.34 624.31,-95.43 568.45,-92.28"/>
<polygon fill="black" stroke="black" points="568.63,-88.78 558.47,-91.78 568.28,-95.77 568.63,-88.78"/>
</g>
<!-- any&#45;&gt;bcs -->
<g id="edge77" class="edge">
<title>any&#45;&gt;bcs</title>
<path fill="none" stroke="black" d="M1043.11,-295.06C1021.85,-285.1 988.93,-268.86 962,-252 939.4,-237.85 937.49,-228.62 914,-216 872.02,-193.45 857.47,-197.13 813,-180 810.36,-178.98 807.63,-177.91 804.89,-176.81"/>
<polygon fill="black" stroke="black" points="806.46,-173.67 795.88,-173.13 803.81,-180.15 806.46,-173.67"/>
</g>
<!-- any&#45;&gt;type_info -->
<g id="edge78" class="edge">
<title>any&#45;&gt;type_info</title>
<path fill="none" stroke="black" d="M1040.11,-298.66C994.4,-287.03 896.39,-262.08 837.54,-247.1"/>
<polygon fill="black" stroke="black" points="838.7,-243.78 828.14,-244.71 836.97,-250.57 838.7,-243.78"/>
</g>
<!-- any&#45;&gt;from_bcs -->
<g id="edge79" class="edge">
<title>any&#45;&gt;from_bcs</title>
<path fill="none" stroke="black" d="M1086.09,-294.41C1090.93,-292.15 1096.1,-289.89 1101,-288 1143.23,-271.73 1192.7,-257.15 1228.25,-247.41"/>
<polygon fill="black" stroke="black" points="1229.08,-250.82 1237.81,-244.82 1227.25,-244.06 1229.08,-250.82"/>
</g>
</g>
</svg>
