<?xml version="1.0" encoding="UTF-8" standalone="no"?>
<!DOCTYPE svg PUBLIC "-//W3C//DTD SVG 1.1//EN"
 "http://www.w3.org/Graphics/SVG/1.1/DTD/svg11.dtd">
<!-- Generated by graphviz version 7.0.4 (20221203.1631)
 -->
<!-- Title: G Pages: 1 -->
<svg width="702pt" height="445pt"
 viewBox="0.00 0.00 702.00 445.00" xmlns="http://www.w3.org/2000/svg" xmlns:xlink="http://www.w3.org/1999/xlink">
<g id="graph0" class="graph" transform="scale(1 1) rotate(0) translate(4 441)">
<title>G</title>
<polygon fill="white" stroke="none" points="-4,4 -4,-441 698,-441 698,4 -4,4"/>
<g id="clust1" class="cluster">
<title>cluster_signer</title>
<polygon fill="none" stroke="black" points="8,-8 8,-155 158,-155 158,-8 8,-8"/>
<text text-anchor="middle" x="83" y="-139.8" font-family="Times,serif" font-size="14.00">signer</text>
</g>
<g id="clust2" class="cluster">
<title>cluster_event</title>
<polygon fill="none" stroke="black" points="294,-80 294,-238 582,-238 582,-80 294,-80"/>
<text text-anchor="middle" x="438" y="-222.8" font-family="Times,serif" font-size="14.00">event</text>
</g>
<g id="clust3" class="cluster">
<title>cluster_bcs</title>
<polygon fill="none" stroke="black" points="590,-80 590,-155 686,-155 686,-80 590,-80"/>
<text text-anchor="middle" x="638" y="-139.8" font-family="Times,serif" font-size="14.00">bcs</text>
</g>
<g id="clust4" class="cluster">
<title>cluster_option</title>
<polygon fill="none" stroke="black" points="294,-246 294,-321 366,-321 366,-246 294,-246"/>
<text text-anchor="middle" x="330" y="-305.8" font-family="Times,serif" font-size="14.00">option</text>
</g>
<g id="clust5" class="cluster">
<title>cluster_account</title>
<polygon fill="none" stroke="black" points="116,-163 116,-321 286,-321 286,-163 116,-163"/>
<text text-anchor="middle" x="201" y="-305.8" font-family="Times,serif" font-size="14.00">account</text>
</g>
<g id="clust6" class="cluster">
<title>cluster_guid</title>
<polygon fill="none" stroke="black" points="166,-80 166,-155 246,-155 246,-80 166,-80"/>
<text text-anchor="middle" x="206" y="-139.8" font-family="Times,serif" font-size="14.00">guid</text>
</g>
<!-- emit_collection_description_mutate_event -->
<g id="node1" class="node">
<title>emit_collection_description_mutate_event</title>
<ellipse fill="none" stroke="black" cx="201" cy="-419" rx="161.37" ry="18"/>
<text text-anchor="middle" x="201" y="-415.3" font-family="Times,serif" font-size="14.00">emit_collection_description_mutate_event</text>
</g>
<!-- signer::address_of -->
<g id="node2" class="node">
<title>signer::address_of</title>
<ellipse fill="none" stroke="black" cx="92" cy="-106" rx="48.99" ry="18"/>
<text text-anchor="middle" x="92" y="-102.3" font-family="Times,serif" font-size="14.00">address_of</text>
</g>
<!-- emit_collection_description_mutate_event&#45;&gt;signer::address_of -->
<g id="edge1" class="edge">
<title>emit_collection_description_mutate_event&#45;&gt;signer::address_of</title>
<path fill="none" stroke="black" d="M134.38,-402.17C114.57,-394.22 94.77,-382.42 82,-365 31.25,-295.76 62.03,-185.72 80.76,-134.68"/>
<polygon fill="black" stroke="black" points="83.94,-136.16 84.22,-125.57 77.39,-133.68 83.94,-136.16"/>
</g>
<!-- event::emit_event -->
<g id="node3" class="node">
<title>event::emit_event</title>
<ellipse fill="none" stroke="black" cx="524" cy="-189" rx="50.09" ry="18"/>
<text text-anchor="middle" x="524" y="-185.3" font-family="Times,serif" font-size="14.00">emit_event</text>
</g>
<!-- emit_collection_description_mutate_event&#45;&gt;event::emit_event -->
<g id="edge2" class="edge">
<title>emit_collection_description_mutate_event&#45;&gt;event::emit_event</title>
<path fill="none" stroke="black" d="M246.65,-401.3C269.48,-392.06 297.06,-379.51 320,-365 391.37,-319.85 463.79,-251.07 500.1,-214.64"/>
<polygon fill="black" stroke="black" points="502.52,-217.18 507.06,-207.61 497.54,-212.26 502.52,-217.18"/>
</g>
<!-- initialize_token_event_store -->
<g id="node4" class="node">
<title>initialize_token_event_store</title>
<ellipse fill="none" stroke="black" cx="201" cy="-347" rx="110.48" ry="18"/>
<text text-anchor="middle" x="201" y="-343.3" font-family="Times,serif" font-size="14.00">initialize_token_event_store</text>
</g>
<!-- emit_collection_description_mutate_event&#45;&gt;initialize_token_event_store -->
<g id="edge3" class="edge">
<title>emit_collection_description_mutate_event&#45;&gt;initialize_token_event_store</title>
<path fill="none" stroke="black" d="M201,-400.7C201,-393.41 201,-384.73 201,-376.54"/>
<polygon fill="black" stroke="black" points="204.5,-376.62 201,-366.62 197.5,-376.62 204.5,-376.62"/>
</g>
<!-- signer::borrow_address -->
<g id="node5" class="node">
<title>signer::borrow_address</title>
<ellipse fill="none" stroke="black" cx="83" cy="-34" rx="66.89" ry="18"/>
<text text-anchor="middle" x="83" y="-30.3" font-family="Times,serif" font-size="14.00">borrow_address</text>
</g>
<!-- signer::address_of&#45;&gt;signer::borrow_address -->
<g id="edge4" class="edge">
<title>signer::address_of&#45;&gt;signer::borrow_address</title>
<path fill="none" stroke="black" d="M89.78,-87.7C88.83,-80.32 87.7,-71.52 86.63,-63.25"/>
<polygon fill="black" stroke="black" points="90.14,-63.08 85.39,-53.61 83.2,-63.97 90.14,-63.08"/>
</g>
<!-- bcs::to_bytes -->
<g id="node6" class="node">
<title>bcs::to_bytes</title>
<ellipse fill="none" stroke="black" cx="638" cy="-106" rx="40.09" ry="18"/>
<text text-anchor="middle" x="638" y="-102.3" font-family="Times,serif" font-size="14.00">to_bytes</text>
</g>
<!-- event::emit_event&#45;&gt;bcs::to_bytes -->
<g id="edge5" class="edge">
<title>event::emit_event&#45;&gt;bcs::to_bytes</title>
<path fill="none" stroke="black" d="M553.62,-174.2C564.19,-168.77 575.96,-162.13 586,-155 596.07,-147.85 606.25,-138.92 614.9,-130.7"/>
<polygon fill="black" stroke="black" points="617.18,-133.37 621.89,-123.88 612.29,-128.36 617.18,-133.37"/>
</g>
<!-- event::write_to_event_store -->
<g id="node7" class="node">
<title>event::write_to_event_store</title>
<ellipse fill="none" stroke="black" cx="489" cy="-106" rx="85.29" ry="18"/>
<text text-anchor="middle" x="489" y="-102.3" font-family="Times,serif" font-size="14.00">write_to_event_store</text>
</g>
<!-- event::emit_event&#45;&gt;event::write_to_event_store -->
<g id="edge6" class="edge">
<title>event::emit_event&#45;&gt;event::write_to_event_store</title>
<path fill="none" stroke="black" d="M516.58,-170.82C512.03,-160.3 506.11,-146.59 500.91,-134.57"/>
<polygon fill="black" stroke="black" points="504.19,-133.33 497.01,-125.54 497.77,-136.11 504.19,-133.33"/>
</g>
<!-- initialize_token_event_store&#45;&gt;signer::address_of -->
<g id="edge8" class="edge">
<title>initialize_token_event_store&#45;&gt;signer::address_of</title>
<path fill="none" stroke="black" d="M127.03,-333.41C121.36,-330.13 116.21,-326.05 112,-321 68,-268.24 76.95,-180.67 85.44,-135.66"/>
<polygon fill="black" stroke="black" points="88.86,-136.39 87.42,-125.9 82,-135 88.86,-136.39"/>
</g>
<!-- option::none -->
<g id="node8" class="node">
<title>option::none</title>
<ellipse fill="none" stroke="black" cx="330" cy="-272" rx="27.9" ry="18"/>
<text text-anchor="middle" x="330" y="-268.3" font-family="Times,serif" font-size="14.00">none</text>
</g>
<!-- initialize_token_event_store&#45;&gt;option::none -->
<g id="edge7" class="edge">
<title>initialize_token_event_store&#45;&gt;option::none</title>
<path fill="none" stroke="black" d="M267.13,-332.32C275.17,-329.26 283,-325.54 290,-321 299.13,-315.09 307.24,-306.44 313.74,-298.11"/>
<polygon fill="black" stroke="black" points="316.42,-300.38 319.46,-290.23 310.75,-296.27 316.42,-300.38"/>
</g>
<!-- account::new_event_handle -->
<g id="node9" class="node">
<title>account::new_event_handle</title>
<ellipse fill="none" stroke="black" cx="201" cy="-272" rx="76.89" ry="18"/>
<text text-anchor="middle" x="201" y="-268.3" font-family="Times,serif" font-size="14.00">new_event_handle</text>
</g>
<!-- initialize_token_event_store&#45;&gt;account::new_event_handle -->
<g id="edge9" class="edge">
<title>initialize_token_event_store&#45;&gt;account::new_event_handle</title>
<path fill="none" stroke="black" d="M201,-328.7C201,-320.67 201,-310.9 201,-301.8"/>
<polygon fill="black" stroke="black" points="204.5,-301.94 201,-291.94 197.5,-301.94 204.5,-301.94"/>
</g>
<!-- event::new_event_handle -->
<g id="node10" class="node">
<title>event::new_event_handle</title>
<ellipse fill="none" stroke="black" cx="379" cy="-189" rx="76.89" ry="18"/>
<text text-anchor="middle" x="379" y="-185.3" font-family="Times,serif" font-size="14.00">new_event_handle</text>
</g>
<!-- account::new_event_handle&#45;&gt;event::new_event_handle -->
<g id="edge10" class="edge">
<title>account::new_event_handle&#45;&gt;event::new_event_handle</title>
<path fill="none" stroke="black" d="M243.59,-256.58C258.46,-251.18 275.14,-244.72 290,-238 307.32,-230.16 325.91,-220.37 341.6,-211.68"/>
<polygon fill="black" stroke="black" points="343.12,-214.84 350.13,-206.89 339.69,-208.73 343.12,-214.84"/>
</g>
<!-- account::create_guid -->
<g id="node11" class="node">
<title>account::create_guid</title>
<ellipse fill="none" stroke="black" cx="201" cy="-189" rx="51.99" ry="18"/>
<text text-anchor="middle" x="201" y="-185.3" font-family="Times,serif" font-size="14.00">create_guid</text>
</g>
<!-- account::new_event_handle&#45;&gt;account::create_guid -->
<g id="edge11" class="edge">
<title>account::new_event_handle&#45;&gt;account::create_guid</title>
<path fill="none" stroke="black" d="M201,-253.82C201,-243.69 201,-230.6 201,-218.92"/>
<polygon fill="black" stroke="black" points="204.5,-218.95 201,-208.95 197.5,-218.95 204.5,-218.95"/>
</g>
<!-- account::create_guid&#45;&gt;signer::address_of -->
<g id="edge12" class="edge">
<title>account::create_guid&#45;&gt;signer::address_of</title>
<path fill="none" stroke="black" d="M179.72,-172.19C163.26,-159.96 140.26,-142.87 121.95,-129.25"/>
<polygon fill="black" stroke="black" points="124.18,-126.55 114.07,-123.4 120,-132.17 124.18,-126.55"/>
</g>
<!-- guid::create -->
<g id="node12" class="node">
<title>guid::create</title>
<ellipse fill="none" stroke="black" cx="206" cy="-106" rx="31.7" ry="18"/>
<text text-anchor="middle" x="206" y="-102.3" font-family="Times,serif" font-size="14.00">create</text>
</g>
<!-- account::create_guid&#45;&gt;guid::create -->
<g id="edge13" class="edge">
<title>account::create_guid&#45;&gt;guid::create</title>
<path fill="none" stroke="black" d="M202.06,-170.82C202.69,-160.69 203.49,-147.6 204.21,-135.92"/>
<polygon fill="black" stroke="black" points="207.71,-136.14 204.83,-125.94 200.72,-135.71 207.71,-136.14"/>
</g>
</g>
</svg>
