<?xml version="1.0" encoding="UTF-8" standalone="no"?>
<!DOCTYPE svg PUBLIC "-//W3C//DTD SVG 1.1//EN"
 "http://www.w3.org/Graphics/SVG/1.1/DTD/svg11.dtd">
<!-- Generated by graphviz version 7.0.4 (20221203.1631)
 -->
<!-- Title: G Pages: 1 -->
<svg width="436pt" height="279pt"
 viewBox="0.00 0.00 436.00 279.00" xmlns="http://www.w3.org/2000/svg" xmlns:xlink="http://www.w3.org/1999/xlink">
<g id="graph0" class="graph" transform="scale(1 1) rotate(0) translate(4 275)">
<title>G</title>
<polygon fill="white" stroke="none" points="-4,4 -4,-275 432,-275 432,4 -4,4"/>
<g id="clust1" class="cluster">
<title>cluster_table</title>
<polygon fill="none" stroke="black" points="8,-8 8,-155 302,-155 302,-8 8,-8"/>
<text text-anchor="middle" x="155" y="-139.8" font-family="Times,serif" font-size="14.00">table</text>
</g>
<g id="clust2" class="cluster">
<title>cluster_error</title>
<polygon fill="none" stroke="black" points="310,-8 310,-155 420,-155 420,-8 310,-8"/>
<text text-anchor="middle" x="365" y="-139.8" font-family="Times,serif" font-size="14.00">error</text>
</g>
<!-- get_collection_description -->
<g id="node1" class="node">
<title>get_collection_description</title>
<ellipse fill="none" stroke="black" cx="162" cy="-253" rx="103.98" ry="18"/>
<text text-anchor="middle" x="162" y="-249.3" font-family="Times,serif" font-size="14.00">get_collection_description</text>
</g>
<!-- table::borrow_mut -->
<g id="node2" class="node">
<title>table::borrow_mut</title>
<ellipse fill="none" stroke="black" cx="94" cy="-106" rx="54.69" ry="18"/>
<text text-anchor="middle" x="94" y="-102.3" font-family="Times,serif" font-size="14.00">borrow_mut</text>
</g>
<!-- get_collection_description&#45;&gt;table::borrow_mut -->
<g id="edge1" class="edge">
<title>get_collection_description&#45;&gt;table::borrow_mut</title>
<path fill="none" stroke="black" d="M152.16,-235.04C146.33,-224.75 138.94,-211.27 133,-199 122.73,-177.79 112.38,-153.19 104.93,-134.77"/>
<polygon fill="black" stroke="black" points="108.22,-133.57 101.25,-125.59 101.72,-136.17 108.22,-133.57"/>
</g>
<!-- assert_collection_exists -->
<g id="node3" class="node">
<title>assert_collection_exists</title>
<ellipse fill="none" stroke="black" cx="236" cy="-181" rx="94.48" ry="18"/>
<text text-anchor="middle" x="236" y="-177.3" font-family="Times,serif" font-size="14.00">assert_collection_exists</text>
</g>
<!-- get_collection_description&#45;&gt;assert_collection_exists -->
<g id="edge2" class="edge">
<title>get_collection_description&#45;&gt;assert_collection_exists</title>
<path fill="none" stroke="black" d="M179.91,-235.05C188.85,-226.61 199.82,-216.22 209.69,-206.89"/>
<polygon fill="black" stroke="black" points="212.04,-209.49 216.9,-200.07 207.23,-204.4 212.04,-209.49"/>
</g>
<!-- table::borrow_box_mut -->
<g id="node4" class="node">
<title>table::borrow_box_mut</title>
<ellipse fill="none" stroke="black" cx="88" cy="-34" rx="72.29" ry="18"/>
<text text-anchor="middle" x="88" y="-30.3" font-family="Times,serif" font-size="14.00">borrow_box_mut</text>
</g>
<!-- table::borrow_mut&#45;&gt;table::borrow_box_mut -->
<g id="edge3" class="edge">
<title>table::borrow_mut&#45;&gt;table::borrow_box_mut</title>
<path fill="none" stroke="black" d="M92.52,-87.7C91.89,-80.41 91.15,-71.73 90.45,-63.54"/>
<polygon fill="black" stroke="black" points="93.94,-63.28 89.6,-53.61 86.96,-63.87 93.94,-63.28"/>
</g>
<!-- error::not_found -->
<g id="node5" class="node">
<title>error::not_found</title>
<ellipse fill="none" stroke="black" cx="365" cy="-106" rx="46.59" ry="18"/>
<text text-anchor="middle" x="365" y="-102.3" font-family="Times,serif" font-size="14.00">not_found</text>
</g>
<!-- assert_collection_exists&#45;&gt;error::not_found -->
<g id="edge4" class="edge">
<title>assert_collection_exists&#45;&gt;error::not_found</title>
<path fill="none" stroke="black" d="M284.4,-165.16C291.82,-162.19 299.25,-158.8 306,-155 317.89,-148.3 329.8,-139.19 339.77,-130.7"/>
<polygon fill="black" stroke="black" points="342,-133.4 347.19,-124.17 337.37,-128.15 342,-133.4"/>
</g>
<!-- table::contains -->
<g id="node6" class="node">
<title>table::contains</title>
<ellipse fill="none" stroke="black" cx="236" cy="-106" rx="40.09" ry="18"/>
<text text-anchor="middle" x="236" y="-102.3" font-family="Times,serif" font-size="14.00">contains</text>
</g>
<!-- assert_collection_exists&#45;&gt;table::contains -->
<g id="edge5" class="edge">
<title>assert_collection_exists&#45;&gt;table::contains</title>
<path fill="none" stroke="black" d="M236,-162.7C236,-154.67 236,-144.9 236,-135.8"/>
<polygon fill="black" stroke="black" points="239.5,-135.94 236,-125.94 232.5,-135.94 239.5,-135.94"/>
</g>
<!-- error::canonical -->
<g id="node7" class="node">
<title>error::canonical</title>
<ellipse fill="none" stroke="black" cx="365" cy="-34" rx="44.39" ry="18"/>
<text text-anchor="middle" x="365" y="-30.3" font-family="Times,serif" font-size="14.00">canonical</text>
</g>
<!-- error::not_found&#45;&gt;error::canonical -->
<g id="edge6" class="edge">
<title>error::not_found&#45;&gt;error::canonical</title>
<path fill="none" stroke="black" d="M365,-87.7C365,-80.41 365,-71.73 365,-63.54"/>
<polygon fill="black" stroke="black" points="368.5,-63.62 365,-53.62 361.5,-63.62 368.5,-63.62"/>
</g>
<!-- table::contains_box -->
<g id="node8" class="node">
<title>table::contains_box</title>
<ellipse fill="none" stroke="black" cx="236" cy="-34" rx="57.69" ry="18"/>
<text text-anchor="middle" x="236" y="-30.3" font-family="Times,serif" font-size="14.00">contains_box</text>
</g>
<!-- table::contains&#45;&gt;table::contains_box -->
<g id="edge7" class="edge">
<title>table::contains&#45;&gt;table::contains_box</title>
<path fill="none" stroke="black" d="M236,-87.7C236,-80.41 236,-71.73 236,-63.54"/>
<polygon fill="black" stroke="black" points="239.5,-63.62 236,-53.62 232.5,-63.62 239.5,-63.62"/>
</g>
</g>
</svg>
