<?xml version="1.0" encoding="UTF-8" standalone="no"?>
<!DOCTYPE svg PUBLIC "-//W3C//DTD SVG 1.1//EN"
 "http://www.w3.org/Graphics/SVG/1.1/DTD/svg11.dtd">
<!-- Generated by graphviz version 7.0.4 (20221203.1631)
 -->
<!-- Title: G Pages: 1 -->
<svg width="1862pt" height="440pt"
 viewBox="0.00 0.00 1862.00 440.00" xmlns="http://www.w3.org/2000/svg" xmlns:xlink="http://www.w3.org/1999/xlink">
<g id="graph0" class="graph" transform="scale(1 1) rotate(0) translate(4 436)">
<title>G</title>
<polygon fill="white" stroke="none" points="-4,4 -4,-436 1858,-436 1858,4 -4,4"/>
<g id="clust1" class="cluster">
<title>cluster_signer</title>
<polygon fill="none" stroke="black" points="1606,-8 1606,-155 1756,-155 1756,-8 1606,-8"/>
<text text-anchor="middle" x="1681" y="-139.8" font-family="Times,serif" font-size="14.00">signer</text>
</g>
<g id="clust2" class="cluster">
<title>cluster_table</title>
<polygon fill="none" stroke="black" points="382,-8 382,-155 1198,-155 1198,-8 382,-8"/>
<text text-anchor="middle" x="790" y="-139.8" font-family="Times,serif" font-size="14.00">table</text>
</g>
<g id="clust3" class="cluster">
<title>cluster_event</title>
<polygon fill="none" stroke="black" points="1310,-80 1310,-238 1598,-238 1598,-80 1310,-80"/>
<text text-anchor="middle" x="1454" y="-222.8" font-family="Times,serif" font-size="14.00">event</text>
</g>
<g id="clust4" class="cluster">
<title>cluster_token</title>
<polygon fill="none" stroke="black" points="750,-163 750,-388 1002,-388 1002,-163 750,-163"/>
<text text-anchor="middle" x="876" y="-372.8" font-family="Times,serif" font-size="14.00">token</text>
</g>
<g id="clust5" class="cluster">
<title>cluster_bcs</title>
<polygon fill="none" stroke="black" points="1206,-80 1206,-155 1302,-155 1302,-80 1206,-80"/>
<text text-anchor="middle" x="1254" y="-139.8" font-family="Times,serif" font-size="14.00">bcs</text>
</g>
<g id="clust6" class="cluster">
<title>cluster_error</title>
<polygon fill="none" stroke="black" points="8,-80 8,-238 282,-238 282,-80 8,-80"/>
<text text-anchor="middle" x="145" y="-222.8" font-family="Times,serif" font-size="14.00">error</text>
</g>
<g id="clust7" class="cluster">
<title>cluster_account</title>
<polygon fill="none" stroke="black" points="1676,-163 1676,-313 1846,-313 1846,-163 1676,-163"/>
<text text-anchor="middle" x="1761" y="-297.8" font-family="Times,serif" font-size="14.00">account</text>
</g>
<g id="clust8" class="cluster">
<title>cluster_property_map</title>
<polygon fill="none" stroke="black" points="581,-163 581,-238 674,-238 674,-163 581,-163"/>
<text text-anchor="middle" x="627.5" y="-222.8" font-family="Times,serif" font-size="14.00">property_map</text>
</g>
<g id="clust9" class="cluster">
<title>cluster_simple_map</title>
<polygon fill="none" stroke="black" points="290,-80 290,-155 374,-155 374,-80 290,-80"/>
<text text-anchor="middle" x="332" y="-139.8" font-family="Times,serif" font-size="14.00">simple_map</text>
</g>
<g id="clust10" class="cluster">
<title>cluster_guid</title>
<polygon fill="none" stroke="black" points="1764,-80 1764,-155 1844,-155 1844,-80 1764,-80"/>
<text text-anchor="middle" x="1804" y="-139.8" font-family="Times,serif" font-size="14.00">guid</text>
</g>
<!-- offer -->
<g id="node1" class="node">
<title>offer</title>
<ellipse fill="none" stroke="black" cx="920" cy="-414" rx="27.9" ry="18"/>
<text text-anchor="middle" x="920" y="-410.3" font-family="Times,serif" font-size="14.00">offer</text>
</g>
<!-- signer::address_of -->
<g id="node2" class="node">
<title>signer::address_of</title>
<ellipse fill="none" stroke="black" cx="1672" cy="-106" rx="48.99" ry="18"/>
<text text-anchor="middle" x="1672" y="-102.3" font-family="Times,serif" font-size="14.00">address_of</text>
</g>
<!-- offer&#45;&gt;signer::address_of -->
<g id="edge1" class="edge">
<title>offer&#45;&gt;signer::address_of</title>
<path fill="none" stroke="black" d="M948.04,-412.6C1048.95,-411.03 1390.07,-404.56 1436,-388 1540.53,-350.32 1573.47,-329.85 1636,-238 1657.16,-206.92 1665.93,-163.75 1669.53,-135.6"/>
<polygon fill="black" stroke="black" points="1673.01,-136.01 1670.64,-125.68 1666.05,-135.23 1673.01,-136.01"/>
</g>
<!-- table::contains -->
<g id="node3" class="node">
<title>table::contains</title>
<ellipse fill="none" stroke="black" cx="821" cy="-106" rx="40.09" ry="18"/>
<text text-anchor="middle" x="821" y="-102.3" font-family="Times,serif" font-size="14.00">contains</text>
</g>
<!-- offer&#45;&gt;table::contains -->
<g id="edge2" class="edge">
<title>offer&#45;&gt;table::contains</title>
<path fill="none" stroke="black" d="M891.77,-413.03C835.87,-412.62 713.4,-409.25 678,-388 609.09,-346.64 600.47,-314.87 577,-238 567.27,-206.12 553.94,-187.07 577,-163 591.31,-148.06 743.69,-162.43 763,-155 776.4,-149.85 788.98,-140.28 798.97,-131.04"/>
<polygon fill="black" stroke="black" points="801.28,-133.68 805.96,-124.17 796.37,-128.68 801.28,-133.68"/>
</g>
<!-- table::borrow_mut -->
<g id="node4" class="node">
<title>table::borrow_mut</title>
<ellipse fill="none" stroke="black" cx="562" cy="-106" rx="54.69" ry="18"/>
<text text-anchor="middle" x="562" y="-102.3" font-family="Times,serif" font-size="14.00">borrow_mut</text>
</g>
<!-- offer&#45;&gt;table::borrow_mut -->
<g id="edge3" class="edge">
<title>offer&#45;&gt;table::borrow_mut</title>
<path fill="none" stroke="black" d="M891.84,-412.5C818.49,-410.97 625.68,-405.31 603,-388 525.64,-328.95 543.21,-193.89 555.3,-135.15"/>
<polygon fill="black" stroke="black" points="558.67,-136.14 557.37,-125.62 551.83,-134.65 558.67,-136.14"/>
</g>
<!-- table::add -->
<g id="node5" class="node">
<title>table::add</title>
<ellipse fill="none" stroke="black" cx="446" cy="-106" rx="27" ry="18"/>
<text text-anchor="middle" x="446" y="-102.3" font-family="Times,serif" font-size="14.00">add</text>
</g>
<!-- offer&#45;&gt;table::add -->
<g id="edge4" class="edge">
<title>offer&#45;&gt;table::add</title>
<path fill="none" stroke="black" d="M891.86,-412.53C848.3,-411.24 767.35,-406.35 746,-388 706.39,-353.95 719.24,-195.06 678,-163 662.2,-150.71 516.48,-162.7 498,-155 485.5,-149.79 474.12,-140.16 465.22,-130.89"/>
<polygon fill="black" stroke="black" points="468.07,-128.84 458.79,-123.74 462.87,-133.52 468.07,-128.84"/>
</g>
<!-- event::emit_event -->
<g id="node6" class="node">
<title>event::emit_event</title>
<ellipse fill="none" stroke="black" cx="1368" cy="-189" rx="50.09" ry="18"/>
<text text-anchor="middle" x="1368" y="-185.3" font-family="Times,serif" font-size="14.00">emit_event</text>
</g>
<!-- offer&#45;&gt;event::emit_event -->
<g id="edge5" class="edge">
<title>offer&#45;&gt;event::emit_event</title>
<path fill="none" stroke="black" d="M948.3,-412.63C1050.72,-411.15 1396.91,-404.93 1413,-388 1457.99,-340.67 1414.32,-258.18 1386.73,-216.18"/>
<polygon fill="black" stroke="black" points="1389.64,-214.24 1381.14,-207.91 1383.84,-218.16 1389.64,-214.24"/>
</g>
<!-- token::merge -->
<g id="node7" class="node">
<title>token::merge</title>
<ellipse fill="none" stroke="black" cx="798" cy="-339" rx="33.29" ry="18"/>
<text text-anchor="middle" x="798" y="-335.3" font-family="Times,serif" font-size="14.00">merge</text>
</g>
<!-- offer&#45;&gt;token::merge -->
<g id="edge6" class="edge">
<title>offer&#45;&gt;token::merge</title>
<path fill="none" stroke="black" d="M893.25,-407.82C877.74,-403.99 858.31,-397.72 843,-388 833.37,-381.88 824.4,-373.23 817.05,-364.96"/>
<polygon fill="black" stroke="black" points="819.83,-362.83 810.72,-357.42 814.47,-367.33 819.83,-362.83"/>
</g>
<!-- token::withdraw_token -->
<g id="node8" class="node">
<title>token::withdraw_token</title>
<ellipse fill="none" stroke="black" cx="920" cy="-339" rx="67.69" ry="18"/>
<text text-anchor="middle" x="920" y="-335.3" font-family="Times,serif" font-size="14.00">withdraw_token</text>
</g>
<!-- offer&#45;&gt;token::withdraw_token -->
<g id="edge7" class="edge">
<title>offer&#45;&gt;token::withdraw_token</title>
<path fill="none" stroke="black" d="M920,-395.7C920,-387.67 920,-377.9 920,-368.8"/>
<polygon fill="black" stroke="black" points="923.5,-368.94 920,-358.94 916.5,-368.94 923.5,-368.94"/>
</g>
<!-- create_token_offer_id -->
<g id="node9" class="node">
<title>create_token_offer_id</title>
<ellipse fill="none" stroke="black" cx="1098" cy="-339" rx="88.28" ry="18"/>
<text text-anchor="middle" x="1098" y="-335.3" font-family="Times,serif" font-size="14.00">create_token_offer_id</text>
</g>
<!-- offer&#45;&gt;create_token_offer_id -->
<g id="edge8" class="edge">
<title>offer&#45;&gt;create_token_offer_id</title>
<path fill="none" stroke="black" d="M946.04,-406.87C963.33,-402.44 986.38,-395.88 1006,-388 1024.41,-380.61 1044.01,-370.69 1060.37,-361.79"/>
<polygon fill="black" stroke="black" points="1061.71,-365.05 1068.77,-357.14 1058.32,-358.92 1061.71,-365.05"/>
</g>
<!-- initialize_token_transfers -->
<g id="node10" class="node">
<title>initialize_token_transfers</title>
<ellipse fill="none" stroke="black" cx="1304" cy="-339" rx="100.18" ry="18"/>
<text text-anchor="middle" x="1304" y="-335.3" font-family="Times,serif" font-size="14.00">initialize_token_transfers</text>
</g>
<!-- offer&#45;&gt;initialize_token_transfers -->
<g id="edge9" class="edge">
<title>offer&#45;&gt;initialize_token_transfers</title>
<path fill="none" stroke="black" d="M948.22,-413.41C998.62,-413.5 1107.04,-410.72 1195,-388 1218.7,-381.88 1243.78,-371.16 1263.91,-361.4"/>
<polygon fill="black" stroke="black" points="1265.19,-364.67 1272.59,-357.08 1262.08,-358.4 1265.19,-364.67"/>
</g>
<!-- signer::borrow_address -->
<g id="node11" class="node">
<title>signer::borrow_address</title>
<ellipse fill="none" stroke="black" cx="1681" cy="-34" rx="66.89" ry="18"/>
<text text-anchor="middle" x="1681" y="-30.3" font-family="Times,serif" font-size="14.00">borrow_address</text>
</g>
<!-- signer::address_of&#45;&gt;signer::borrow_address -->
<g id="edge10" class="edge">
<title>signer::address_of&#45;&gt;signer::borrow_address</title>
<path fill="none" stroke="black" d="M1674.22,-87.7C1675.17,-80.32 1676.3,-71.52 1677.37,-63.25"/>
<polygon fill="black" stroke="black" points="1680.8,-63.97 1678.61,-53.61 1673.86,-63.08 1680.8,-63.97"/>
</g>
<!-- table::contains_box -->
<g id="node12" class="node">
<title>table::contains_box</title>
<ellipse fill="none" stroke="black" cx="838" cy="-34" rx="57.69" ry="18"/>
<text text-anchor="middle" x="838" y="-30.3" font-family="Times,serif" font-size="14.00">contains_box</text>
</g>
<!-- table::contains&#45;&gt;table::contains_box -->
<g id="edge11" class="edge">
<title>table::contains&#45;&gt;table::contains_box</title>
<path fill="none" stroke="black" d="M825.2,-87.7C826.99,-80.32 829.13,-71.52 831.14,-63.25"/>
<polygon fill="black" stroke="black" points="834.53,-64.12 833.49,-53.58 827.73,-62.47 834.53,-64.12"/>
</g>
<!-- table::borrow_box_mut -->
<g id="node13" class="node">
<title>table::borrow_box_mut</title>
<ellipse fill="none" stroke="black" cx="562" cy="-34" rx="72.29" ry="18"/>
<text text-anchor="middle" x="562" y="-30.3" font-family="Times,serif" font-size="14.00">borrow_box_mut</text>
</g>
<!-- table::borrow_mut&#45;&gt;table::borrow_box_mut -->
<g id="edge12" class="edge">
<title>table::borrow_mut&#45;&gt;table::borrow_box_mut</title>
<path fill="none" stroke="black" d="M562,-87.7C562,-80.41 562,-71.73 562,-63.54"/>
<polygon fill="black" stroke="black" points="565.5,-63.62 562,-53.62 558.5,-63.62 565.5,-63.62"/>
</g>
<!-- table::add_box -->
<g id="node14" class="node">
<title>table::add_box</title>
<ellipse fill="none" stroke="black" cx="431" cy="-34" rx="40.89" ry="18"/>
<text text-anchor="middle" x="431" y="-30.3" font-family="Times,serif" font-size="14.00">add_box</text>
</g>
<!-- table::add&#45;&gt;table::add_box -->
<g id="edge13" class="edge">
<title>table::add&#45;&gt;table::add_box</title>
<path fill="none" stroke="black" d="M442.29,-87.7C440.71,-80.32 438.83,-71.52 437.05,-63.25"/>
<polygon fill="black" stroke="black" points="440.5,-62.63 434.98,-53.58 433.66,-64.1 440.5,-62.63"/>
</g>
<!-- bcs::to_bytes -->
<g id="node15" class="node">
<title>bcs::to_bytes</title>
<ellipse fill="none" stroke="black" cx="1254" cy="-106" rx="40.09" ry="18"/>
<text text-anchor="middle" x="1254" y="-102.3" font-family="Times,serif" font-size="14.00">to_bytes</text>
</g>
<!-- event::emit_event&#45;&gt;bcs::to_bytes -->
<g id="edge14" class="edge">
<title>event::emit_event&#45;&gt;bcs::to_bytes</title>
<path fill="none" stroke="black" d="M1338.38,-174.2C1327.81,-168.77 1316.04,-162.13 1306,-155 1295.93,-147.85 1285.75,-138.92 1277.1,-130.7"/>
<polygon fill="black" stroke="black" points="1279.71,-128.36 1270.11,-123.88 1274.82,-133.37 1279.71,-128.36"/>
</g>
<!-- event::write_to_event_store -->
<g id="node16" class="node">
<title>event::write_to_event_store</title>
<ellipse fill="none" stroke="black" cx="1403" cy="-106" rx="85.29" ry="18"/>
<text text-anchor="middle" x="1403" y="-102.3" font-family="Times,serif" font-size="14.00">write_to_event_store</text>
</g>
<!-- event::emit_event&#45;&gt;event::write_to_event_store -->
<g id="edge15" class="edge">
<title>event::emit_event&#45;&gt;event::write_to_event_store</title>
<path fill="none" stroke="black" d="M1375.42,-170.82C1379.97,-160.3 1385.89,-146.59 1391.09,-134.57"/>
<polygon fill="black" stroke="black" points="1394.23,-136.11 1394.99,-125.54 1387.81,-133.33 1394.23,-136.11"/>
</g>
<!-- error::invalid_argument -->
<g id="node17" class="node">
<title>error::invalid_argument</title>
<ellipse fill="none" stroke="black" cx="89" cy="-189" rx="73.39" ry="18"/>
<text text-anchor="middle" x="89" y="-185.3" font-family="Times,serif" font-size="14.00">invalid_argument</text>
</g>
<!-- token::merge&#45;&gt;error::invalid_argument -->
<g id="edge16" class="edge">
<title>token::merge&#45;&gt;error::invalid_argument</title>
<path fill="none" stroke="black" d="M764.63,-336.99C669.22,-333.21 388.15,-315.76 171,-238 153.71,-231.81 135.96,-221.93 121.41,-212.73"/>
<polygon fill="black" stroke="black" points="123.45,-209.89 113.16,-207.36 119.63,-215.75 123.45,-209.89"/>
</g>
<!-- token::withdraw_token&#45;&gt;signer::address_of -->
<g id="edge17" class="edge">
<title>token::withdraw_token&#45;&gt;signer::address_of</title>
<path fill="none" stroke="black" d="M970.88,-326.76C980.84,-324.71 991.23,-322.7 1001,-321 1266.67,-274.83 1380.84,-392.26 1602,-238 1632.99,-216.39 1624.19,-196.32 1642,-163 1647.01,-153.63 1652.49,-143.39 1657.39,-134.25"/>
<polygon fill="black" stroke="black" points="1660.45,-135.95 1662.09,-125.49 1654.28,-132.65 1660.45,-135.95"/>
</g>
<!-- token::withdraw_with_event_internal -->
<g id="node18" class="node">
<title>token::withdraw_with_event_internal</title>
<ellipse fill="none" stroke="black" cx="876" cy="-264" rx="118.08" ry="18"/>
<text text-anchor="middle" x="876" y="-260.3" font-family="Times,serif" font-size="14.00">withdraw_with_event_internal</text>
</g>
<!-- token::withdraw_token&#45;&gt;token::withdraw_with_event_internal -->
<g id="edge18" class="edge">
<title>token::withdraw_token&#45;&gt;token::withdraw_with_event_internal</title>
<path fill="none" stroke="black" d="M909.79,-321.07C904.59,-312.44 898.15,-301.74 892.28,-292.01"/>
<polygon fill="black" stroke="black" points="895.4,-290.4 887.24,-283.64 889.4,-294.01 895.4,-290.4"/>
</g>
<!-- table::new -->
<g id="node19" class="node">
<title>table::new</title>
<ellipse fill="none" stroke="black" cx="1139" cy="-106" rx="27" ry="18"/>
<text text-anchor="middle" x="1139" y="-102.3" font-family="Times,serif" font-size="14.00">new</text>
</g>
<!-- initialize_token_transfers&#45;&gt;table::new -->
<g id="edge19" class="edge">
<title>initialize_token_transfers&#45;&gt;table::new</title>
<path fill="none" stroke="black" d="M1291.87,-321.01C1263.1,-280.74 1190.65,-179.31 1156.86,-132.01"/>
<polygon fill="black" stroke="black" points="1159.81,-130.11 1151.15,-124.01 1154.12,-134.18 1159.81,-130.11"/>
</g>
<!-- account::new_event_handle -->
<g id="node20" class="node">
<title>account::new_event_handle</title>
<ellipse fill="none" stroke="black" cx="1761" cy="-264" rx="76.89" ry="18"/>
<text text-anchor="middle" x="1761" y="-260.3" font-family="Times,serif" font-size="14.00">new_event_handle</text>
</g>
<!-- initialize_token_transfers&#45;&gt;account::new_event_handle -->
<g id="edge20" class="edge">
<title>initialize_token_transfers&#45;&gt;account::new_event_handle</title>
<path fill="none" stroke="black" d="M1401.3,-334.33C1457.9,-331.02 1530.4,-324.77 1594,-313 1632.91,-305.8 1675.79,-293.38 1708.36,-282.97"/>
<polygon fill="black" stroke="black" points="1709.11,-286.41 1717.55,-280 1706.95,-279.75 1709.11,-286.41"/>
</g>
<!-- error::canonical -->
<g id="node21" class="node">
<title>error::canonical</title>
<ellipse fill="none" stroke="black" cx="158" cy="-106" rx="44.39" ry="18"/>
<text text-anchor="middle" x="158" y="-102.3" font-family="Times,serif" font-size="14.00">canonical</text>
</g>
<!-- error::invalid_argument&#45;&gt;error::canonical -->
<g id="edge21" class="edge">
<title>error::invalid_argument&#45;&gt;error::canonical</title>
<path fill="none" stroke="black" d="M103.3,-171.22C112.89,-159.96 125.7,-144.92 136.51,-132.22"/>
<polygon fill="black" stroke="black" points="139.16,-134.52 142.98,-124.64 133.83,-129.98 139.16,-134.52"/>
</g>
<!-- token::withdraw_with_event_internal&#45;&gt;table::contains -->
<g id="edge24" class="edge">
<title>token::withdraw_with_event_internal&#45;&gt;table::contains</title>
<path fill="none" stroke="black" d="M893.83,-245.74C895.52,-243.31 896.98,-240.7 898,-238 909.77,-206.81 913.13,-192.7 898,-163 889.63,-146.57 873.93,-133.82 858.88,-124.67"/>
<polygon fill="black" stroke="black" points="860.92,-121.8 850.49,-119.92 857.47,-127.89 860.92,-121.8"/>
</g>
<!-- token::withdraw_with_event_internal&#45;&gt;table::borrow_mut -->
<g id="edge25" class="edge">
<title>token::withdraw_with_event_internal&#45;&gt;table::borrow_mut</title>
<path fill="none" stroke="black" d="M880.1,-245.57C884.28,-222.93 887.34,-183.86 865,-163 849.07,-148.13 690.22,-160 669,-155 644.36,-149.2 618.42,-137.71 598.25,-127.43"/>
<polygon fill="black" stroke="black" points="600.09,-124.44 589.6,-122.9 596.84,-130.64 600.09,-124.44"/>
</g>
<!-- token::withdraw_with_event_internal&#45;&gt;event::emit_event -->
<g id="edge27" class="edge">
<title>token::withdraw_with_event_internal&#45;&gt;event::emit_event</title>
<path fill="none" stroke="black" d="M958.63,-250.74C1058.69,-235.89 1224.57,-211.28 1311.26,-198.42"/>
<polygon fill="black" stroke="black" points="1311.57,-201.91 1320.95,-196.98 1310.55,-194.99 1311.57,-201.91"/>
</g>
<!-- token::withdraw_with_event_internal&#45;&gt;error::invalid_argument -->
<g id="edge22" class="edge">
<title>token::withdraw_with_event_internal&#45;&gt;error::invalid_argument</title>
<path fill="none" stroke="black" d="M793.06,-250.85C776.82,-248.89 759.9,-247.13 744,-246 712.24,-243.74 201.67,-246.55 171,-238 152.62,-232.88 134.11,-222.59 119.34,-212.84"/>
<polygon fill="black" stroke="black" points="121.68,-210.21 111.46,-207.43 117.72,-215.98 121.68,-210.21"/>
</g>
<!-- error::not_found -->
<g id="node22" class="node">
<title>error::not_found</title>
<ellipse fill="none" stroke="black" cx="227" cy="-189" rx="46.59" ry="18"/>
<text text-anchor="middle" x="227" y="-185.3" font-family="Times,serif" font-size="14.00">not_found</text>
</g>
<!-- token::withdraw_with_event_internal&#45;&gt;error::not_found -->
<g id="edge23" class="edge">
<title>token::withdraw_with_event_internal&#45;&gt;error::not_found</title>
<path fill="none" stroke="black" d="M791.25,-251.06C775.57,-249.15 759.31,-247.35 744,-246 669.98,-239.47 650.99,-244.83 577,-238 471.49,-228.26 349,-209.81 280.49,-198.83"/>
<polygon fill="black" stroke="black" points="281.08,-195.38 270.65,-197.25 279.96,-202.3 281.08,-195.38"/>
</g>
<!-- table::remove -->
<g id="node23" class="node">
<title>table::remove</title>
<ellipse fill="none" stroke="black" cx="716" cy="-106" rx="37.89" ry="18"/>
<text text-anchor="middle" x="716" y="-102.3" font-family="Times,serif" font-size="14.00">remove</text>
</g>
<!-- token::withdraw_with_event_internal&#45;&gt;table::remove -->
<g id="edge26" class="edge">
<title>token::withdraw_with_event_internal&#45;&gt;table::remove</title>
<path fill="none" stroke="black" d="M785.44,-252.09C769.08,-248.53 755.24,-243.92 749,-238 721.19,-211.61 715.44,-165.5 714.92,-135.62"/>
<polygon fill="black" stroke="black" points="718.42,-135.82 714.95,-125.81 711.42,-135.79 718.42,-135.82"/>
</g>
<!-- property_map::empty -->
<g id="node24" class="node">
<title>property_map::empty</title>
<ellipse fill="none" stroke="black" cx="627" cy="-189" rx="33.29" ry="18"/>
<text text-anchor="middle" x="627" y="-185.3" font-family="Times,serif" font-size="14.00">empty</text>
</g>
<!-- token::withdraw_with_event_internal&#45;&gt;property_map::empty -->
<g id="edge28" class="edge">
<title>token::withdraw_with_event_internal&#45;&gt;property_map::empty</title>
<path fill="none" stroke="black" d="M787.14,-251.77C758.03,-247.52 729.66,-242.6 716,-238 695.33,-231.04 673.77,-219.53 657.04,-209.53"/>
<polygon fill="black" stroke="black" points="658.95,-206.59 648.59,-204.34 655.28,-212.56 658.95,-206.59"/>
</g>
<!-- token::balance_of -->
<g id="node25" class="node">
<title>token::balance_of</title>
<ellipse fill="none" stroke="black" cx="807" cy="-189" rx="49.29" ry="18"/>
<text text-anchor="middle" x="807" y="-185.3" font-family="Times,serif" font-size="14.00">balance_of</text>
</g>
<!-- token::withdraw_with_event_internal&#45;&gt;token::balance_of -->
<g id="edge29" class="edge">
<title>token::withdraw_with_event_internal&#45;&gt;token::balance_of</title>
<path fill="none" stroke="black" d="M859.65,-245.7C850.81,-236.35 839.74,-224.64 830.04,-214.37"/>
<polygon fill="black" stroke="black" points="832.74,-212.14 823.33,-207.28 827.65,-216.95 832.74,-212.14"/>
</g>
<!-- table::new_table_handle -->
<g id="node26" class="node">
<title>table::new_table_handle</title>
<ellipse fill="none" stroke="black" cx="1115" cy="-34" rx="74.99" ry="18"/>
<text text-anchor="middle" x="1115" y="-30.3" font-family="Times,serif" font-size="14.00">new_table_handle</text>
</g>
<!-- table::new&#45;&gt;table::new_table_handle -->
<g id="edge30" class="edge">
<title>table::new&#45;&gt;table::new_table_handle</title>
<path fill="none" stroke="black" d="M1133.19,-88.05C1130.61,-80.52 1127.49,-71.44 1124.58,-62.94"/>
<polygon fill="black" stroke="black" points="1127.97,-62.03 1121.41,-53.71 1121.35,-64.3 1127.97,-62.03"/>
</g>
<!-- event::new_event_handle -->
<g id="node27" class="node">
<title>event::new_event_handle</title>
<ellipse fill="none" stroke="black" cx="1513" cy="-189" rx="76.89" ry="18"/>
<text text-anchor="middle" x="1513" y="-185.3" font-family="Times,serif" font-size="14.00">new_event_handle</text>
</g>
<!-- account::new_event_handle&#45;&gt;event::new_event_handle -->
<g id="edge31" class="edge">
<title>account::new_event_handle&#45;&gt;event::new_event_handle</title>
<path fill="none" stroke="black" d="M1712.91,-249.68C1699.64,-245.95 1685.25,-241.86 1672,-238 1637.73,-228.01 1599.42,-216.46 1569,-207.19"/>
<polygon fill="black" stroke="black" points="1570.2,-203.9 1559.61,-204.33 1568.16,-210.6 1570.2,-203.9"/>
</g>
<!-- account::create_guid -->
<g id="node28" class="node">
<title>account::create_guid</title>
<ellipse fill="none" stroke="black" cx="1761" cy="-189" rx="51.99" ry="18"/>
<text text-anchor="middle" x="1761" y="-185.3" font-family="Times,serif" font-size="14.00">create_guid</text>
</g>
<!-- account::new_event_handle&#45;&gt;account::create_guid -->
<g id="edge32" class="edge">
<title>account::new_event_handle&#45;&gt;account::create_guid</title>
<path fill="none" stroke="black" d="M1761,-245.7C1761,-237.67 1761,-227.9 1761,-218.8"/>
<polygon fill="black" stroke="black" points="1764.5,-218.94 1761,-208.94 1757.5,-218.94 1764.5,-218.94"/>
</g>
<!-- error::not_found&#45;&gt;error::canonical -->
<g id="edge33" class="edge">
<title>error::not_found&#45;&gt;error::canonical</title>
<path fill="none" stroke="black" d="M213.04,-171.61C203.31,-160.19 190.16,-144.75 179.15,-131.83"/>
<polygon fill="black" stroke="black" points="182.07,-129.86 172.92,-124.52 176.74,-134.4 182.07,-129.86"/>
</g>
<!-- table::remove_box -->
<g id="node29" class="node">
<title>table::remove_box</title>
<ellipse fill="none" stroke="black" cx="707" cy="-34" rx="55.49" ry="18"/>
<text text-anchor="middle" x="707" y="-30.3" font-family="Times,serif" font-size="14.00">remove_box</text>
</g>
<!-- table::remove&#45;&gt;table::remove_box -->
<g id="edge34" class="edge">
<title>table::remove&#45;&gt;table::remove_box</title>
<path fill="none" stroke="black" d="M713.78,-87.7C712.83,-80.32 711.7,-71.52 710.63,-63.25"/>
<polygon fill="black" stroke="black" points="714.14,-63.08 709.39,-53.61 707.2,-63.97 714.14,-63.08"/>
</g>
<!-- simple_map::create -->
<g id="node30" class="node">
<title>simple_map::create</title>
<ellipse fill="none" stroke="black" cx="334" cy="-106" rx="31.7" ry="18"/>
<text text-anchor="middle" x="334" y="-102.3" font-family="Times,serif" font-size="14.00">create</text>
</g>
<!-- property_map::empty&#45;&gt;simple_map::create -->
<g id="edge35" class="edge">
<title>property_map::empty&#45;&gt;simple_map::create</title>
<path fill="none" stroke="black" d="M593.67,-186.39C534.73,-183.09 414.84,-174.19 378,-155 367.58,-149.57 358.37,-140.64 351.11,-131.95"/>
<polygon fill="black" stroke="black" points="354.09,-130.08 345.2,-124.33 348.56,-134.37 354.09,-130.08"/>
</g>
<!-- token::balance_of&#45;&gt;table::contains -->
<g id="edge36" class="edge">
<title>token::balance_of&#45;&gt;table::contains</title>
<path fill="none" stroke="black" d="M809.97,-170.82C811.74,-160.58 814.03,-147.33 816.07,-135.55"/>
<polygon fill="black" stroke="black" points="819.47,-136.37 817.73,-125.92 812.58,-135.18 819.47,-136.37"/>
</g>
<!-- table::borrow -->
<g id="node31" class="node">
<title>table::borrow</title>
<ellipse fill="none" stroke="black" cx="942" cy="-106" rx="36.29" ry="18"/>
<text text-anchor="middle" x="942" y="-102.3" font-family="Times,serif" font-size="14.00">borrow</text>
</g>
<!-- token::balance_of&#45;&gt;table::borrow -->
<g id="edge37" class="edge">
<title>token::balance_of&#45;&gt;table::borrow</title>
<path fill="none" stroke="black" d="M835.26,-174C846.25,-168.35 858.85,-161.61 870,-155 884.31,-146.51 899.72,-136.38 912.59,-127.62"/>
<polygon fill="black" stroke="black" points="914.38,-130.64 920.64,-122.1 910.41,-124.87 914.38,-130.64"/>
</g>
<!-- account::create_guid&#45;&gt;signer::address_of -->
<g id="edge38" class="edge">
<title>account::create_guid&#45;&gt;signer::address_of</title>
<path fill="none" stroke="black" d="M1743.42,-172C1730.46,-160.2 1712.62,-143.97 1698.02,-130.68"/>
<polygon fill="black" stroke="black" points="1700.72,-128.41 1690.97,-124.27 1696.01,-133.59 1700.72,-128.41"/>
</g>
<!-- guid::create -->
<g id="node32" class="node">
<title>guid::create</title>
<ellipse fill="none" stroke="black" cx="1804" cy="-106" rx="31.7" ry="18"/>
<text text-anchor="middle" x="1804" y="-102.3" font-family="Times,serif" font-size="14.00">create</text>
</g>
<!-- account::create_guid&#45;&gt;guid::create -->
<g id="edge39" class="edge">
<title>account::create_guid&#45;&gt;guid::create</title>
<path fill="none" stroke="black" d="M1770.12,-170.82C1775.84,-160.05 1783.33,-145.93 1789.82,-133.71"/>
<polygon fill="black" stroke="black" points="1792.88,-135.41 1794.48,-124.94 1786.7,-132.13 1792.88,-135.41"/>
</g>
<!-- table::borrow_box -->
<g id="node33" class="node">
<title>table::borrow_box</title>
<ellipse fill="none" stroke="black" cx="968" cy="-34" rx="53.89" ry="18"/>
<text text-anchor="middle" x="968" y="-30.3" font-family="Times,serif" font-size="14.00">borrow_box</text>
</g>
<!-- table::borrow&#45;&gt;table::borrow_box -->
<g id="edge40" class="edge">
<title>table::borrow&#45;&gt;table::borrow_box</title>
<path fill="none" stroke="black" d="M948.29,-88.05C951.09,-80.52 954.47,-71.44 957.62,-62.94"/>
<polygon fill="black" stroke="black" points="960.86,-64.29 961.06,-53.69 954.29,-61.85 960.86,-64.29"/>
</g>
</g>
</svg>
