<?xml version="1.0" encoding="UTF-8" standalone="no"?>
<!DOCTYPE svg PUBLIC "-//W3C//DTD SVG 1.1//EN"
 "http://www.w3.org/Graphics/SVG/1.1/DTD/svg11.dtd">
<!-- Generated by graphviz version 7.0.4 (20221203.1631)
 -->
<!-- Title: G Pages: 1 -->
<svg width="1411pt" height="227pt"
 viewBox="0.00 0.00 1411.29 227.00" xmlns="http://www.w3.org/2000/svg" xmlns:xlink="http://www.w3.org/1999/xlink">
<g id="graph0" class="graph" transform="scale(1 1) rotate(0) translate(4 223)">
<title>G</title>
<polygon fill="white" stroke="none" points="-4,4 -4,-223 1407.29,-223 1407.29,4 -4,4"/>
<g id="clust1" class="cluster">
<title>cluster_token_transfers</title>
<polygon fill="none" stroke="black" points="812,-136 812,-211 1235,-211 1235,-136 812,-136"/>
<text text-anchor="middle" x="1023.5" y="-195.8" font-family="Times,serif" font-size="14.00">token_transfers</text>
</g>
<!-- create_token_data_id -->
<g id="node1" class="node">
<title>create_token_data_id</title>
<ellipse fill="none" stroke="black" cx="804" cy="-18" rx="85.59" ry="18"/>
<text text-anchor="middle" x="804" y="-14.3" font-family="Times,serif" font-size="14.00">create_token_data_id</text>
</g>
<!-- check_tokendata_exists -->
<g id="node2" class="node">
<title>check_tokendata_exists</title>
<ellipse fill="none" stroke="black" cx="521" cy="-90" rx="94.48" ry="18"/>
<text text-anchor="middle" x="521" y="-86.3" font-family="Times,serif" font-size="14.00">check_tokendata_exists</text>
</g>
<!-- check_tokendata_exists&#45;&gt;create_token_data_id -->
<g id="edge1" class="edge">
<title>check_tokendata_exists&#45;&gt;create_token_data_id</title>
<path fill="none" stroke="black" d="M576.91,-75.17C623.54,-63.64 690.02,-47.19 739.01,-35.07"/>
<polygon fill="black" stroke="black" points="739.79,-38.49 748.66,-32.69 738.11,-31.69 739.79,-38.49"/>
</g>
<!-- create_token_id_raw -->
<g id="node3" class="node">
<title>create_token_id_raw</title>
<ellipse fill="none" stroke="black" cx="718" cy="-90" rx="84.49" ry="18"/>
<text text-anchor="middle" x="718" y="-86.3" font-family="Times,serif" font-size="14.00">create_token_id_raw</text>
</g>
<!-- create_token_id_raw&#45;&gt;create_token_data_id -->
<g id="edge2" class="edge">
<title>create_token_id_raw&#45;&gt;create_token_data_id</title>
<path fill="none" stroke="black" d="M738.38,-72.41C749.23,-63.58 762.75,-52.57 774.71,-42.84"/>
<polygon fill="black" stroke="black" points="776.75,-45.7 782.29,-36.67 772.33,-40.27 776.75,-45.7"/>
</g>
<!-- create_tokendata -->
<g id="node4" class="node">
<title>create_tokendata</title>
<ellipse fill="none" stroke="black" cx="891" cy="-90" rx="70.39" ry="18"/>
<text text-anchor="middle" x="891" y="-86.3" font-family="Times,serif" font-size="14.00">create_tokendata</text>
</g>
<!-- create_tokendata&#45;&gt;create_token_data_id -->
<g id="edge3" class="edge">
<title>create_tokendata&#45;&gt;create_token_data_id</title>
<path fill="none" stroke="black" d="M870.38,-72.41C859.41,-63.58 845.72,-52.57 833.63,-42.84"/>
<polygon fill="black" stroke="black" points="835.94,-40.2 825.95,-36.66 831.55,-45.66 835.94,-40.2"/>
</g>
<!-- mint_script -->
<g id="node5" class="node">
<title>mint_script</title>
<ellipse fill="none" stroke="black" cx="1031" cy="-90" rx="51.19" ry="18"/>
<text text-anchor="middle" x="1031" y="-86.3" font-family="Times,serif" font-size="14.00">mint_script</text>
</g>
<!-- mint_script&#45;&gt;create_token_data_id -->
<g id="edge4" class="edge">
<title>mint_script&#45;&gt;create_token_data_id</title>
<path fill="none" stroke="black" d="M993.26,-77.36C957.46,-66.32 903.15,-49.58 861.88,-36.85"/>
<polygon fill="black" stroke="black" points="862.92,-33.51 852.33,-33.9 860.85,-40.19 862.92,-33.51"/>
</g>
<!-- burn -->
<g id="node6" class="node">
<title>burn</title>
<ellipse fill="none" stroke="black" cx="27" cy="-162" rx="27" ry="18"/>
<text text-anchor="middle" x="27" y="-158.3" font-family="Times,serif" font-size="14.00">burn</text>
</g>
<!-- burn&#45;&gt;create_token_id_raw -->
<g id="edge5" class="edge">
<title>burn&#45;&gt;create_token_id_raw</title>
<path fill="none" stroke="black" d="M42.79,-147.2C48.73,-142.81 55.8,-138.45 63,-136 181.15,-95.74 499.99,-122.25 624,-108 631.42,-107.15 639.13,-106.07 646.81,-104.87"/>
<polygon fill="black" stroke="black" points="647.2,-108.35 656.5,-103.29 646.07,-101.45 647.2,-108.35"/>
</g>
<!-- burn_by_creator -->
<g id="node7" class="node">
<title>burn_by_creator</title>
<ellipse fill="none" stroke="black" cx="141" cy="-162" rx="68.79" ry="18"/>
<text text-anchor="middle" x="141" y="-158.3" font-family="Times,serif" font-size="14.00">burn_by_creator</text>
</g>
<!-- burn_by_creator&#45;&gt;create_token_id_raw -->
<g id="edge6" class="edge">
<title>burn_by_creator&#45;&gt;create_token_id_raw</title>
<path fill="none" stroke="black" d="M179.4,-146.66C191.87,-142.56 205.87,-138.52 219,-136 396.2,-102 444.96,-130.31 624,-108 631.21,-107.1 638.71,-106.01 646.19,-104.82"/>
<polygon fill="black" stroke="black" points="646.68,-108.29 655.98,-103.2 645.54,-101.38 646.68,-108.29"/>
</g>
<!-- direct_transfer_script -->
<g id="node8" class="node">
<title>direct_transfer_script</title>
<ellipse fill="none" stroke="black" cx="314" cy="-162" rx="85.59" ry="18"/>
<text text-anchor="middle" x="314" y="-158.3" font-family="Times,serif" font-size="14.00">direct_transfer_script</text>
</g>
<!-- direct_transfer_script&#45;&gt;create_token_id_raw -->
<g id="edge7" class="edge">
<title>direct_transfer_script&#45;&gt;create_token_id_raw</title>
<path fill="none" stroke="black" d="M363.03,-146.82C377.72,-142.92 393.94,-138.95 409,-136 503.57,-117.48 528.78,-122.8 624,-108 630.83,-106.94 637.93,-105.77 645.02,-104.56"/>
<polygon fill="black" stroke="black" points="645.39,-108.05 654.64,-102.9 644.19,-101.15 645.39,-108.05"/>
</g>
<!-- mutate_token_properties -->
<g id="node9" class="node">
<title>mutate_token_properties</title>
<ellipse fill="none" stroke="black" cx="517" cy="-162" rx="98.58" ry="18"/>
<text text-anchor="middle" x="517" y="-158.3" font-family="Times,serif" font-size="14.00">mutate_token_properties</text>
</g>
<!-- mutate_token_properties&#45;&gt;create_token_id_raw -->
<g id="edge8" class="edge">
<title>mutate_token_properties&#45;&gt;create_token_id_raw</title>
<path fill="none" stroke="black" d="M561.11,-145.64C591.63,-135.01 632.42,-120.8 664.76,-109.54"/>
<polygon fill="black" stroke="black" points="665.65,-112.94 673.94,-106.34 663.35,-106.33 665.65,-112.94"/>
</g>
<!-- transfer_with_opt_in -->
<g id="node10" class="node">
<title>transfer_with_opt_in</title>
<ellipse fill="none" stroke="black" cx="718" cy="-162" rx="84.49" ry="18"/>
<text text-anchor="middle" x="718" y="-158.3" font-family="Times,serif" font-size="14.00">transfer_with_opt_in</text>
</g>
<!-- transfer_with_opt_in&#45;&gt;create_token_id_raw -->
<g id="edge9" class="edge">
<title>transfer_with_opt_in&#45;&gt;create_token_id_raw</title>
<path fill="none" stroke="black" d="M718,-143.7C718,-136.41 718,-127.73 718,-119.54"/>
<polygon fill="black" stroke="black" points="721.5,-119.62 718,-109.62 714.5,-119.62 721.5,-119.62"/>
</g>
<!-- token_transfers::cancel_offer_script -->
<g id="node11" class="node">
<title>token_transfers::cancel_offer_script</title>
<ellipse fill="none" stroke="black" cx="1148" cy="-162" rx="78.79" ry="18"/>
<text text-anchor="middle" x="1148" y="-158.3" font-family="Times,serif" font-size="14.00">cancel_offer_script</text>
</g>
<!-- token_transfers::cancel_offer_script&#45;&gt;create_token_id_raw -->
<g id="edge10" class="edge">
<title>token_transfers::cancel_offer_script&#45;&gt;create_token_id_raw</title>
<path fill="none" stroke="black" d="M1103.65,-146.7C1090.08,-142.75 1075.03,-138.78 1061,-136 951.77,-114.32 922.19,-124.14 812,-108 805.05,-106.98 797.84,-105.84 790.62,-104.63"/>
<polygon fill="black" stroke="black" points="791.28,-101.19 780.83,-102.96 790.1,-108.09 791.28,-101.19"/>
</g>
<!-- token_transfers::claim_script -->
<g id="node12" class="node">
<title>token_transfers::claim_script</title>
<ellipse fill="none" stroke="black" cx="997" cy="-162" rx="54.69" ry="18"/>
<text text-anchor="middle" x="997" y="-158.3" font-family="Times,serif" font-size="14.00">claim_script</text>
</g>
<!-- token_transfers::claim_script&#45;&gt;create_token_id_raw -->
<g id="edge11" class="edge">
<title>token_transfers::claim_script&#45;&gt;create_token_id_raw</title>
<path fill="none" stroke="black" d="M964.48,-147.09C954.5,-143.15 943.4,-139.1 933,-136 906.74,-128.18 842.21,-114.96 790.65,-104.87"/>
<polygon fill="black" stroke="black" points="791.51,-101.47 781.02,-102.99 790.17,-108.34 791.51,-101.47"/>
</g>
<!-- token_transfers::offer_script -->
<g id="node13" class="node">
<title>token_transfers::offer_script</title>
<ellipse fill="none" stroke="black" cx="872" cy="-162" rx="51.99" ry="18"/>
<text text-anchor="middle" x="872" y="-158.3" font-family="Times,serif" font-size="14.00">offer_script</text>
</g>
<!-- token_transfers::offer_script&#45;&gt;create_token_id_raw -->
<g id="edge12" class="edge">
<title>token_transfers::offer_script&#45;&gt;create_token_id_raw</title>
<path fill="none" stroke="black" d="M841.57,-147.17C819.18,-136.99 788.36,-122.98 763.11,-111.5"/>
<polygon fill="black" stroke="black" points="764.59,-108.33 754.04,-107.38 761.7,-114.71 764.59,-108.33"/>
</g>
<!-- create_token_script -->
<g id="node14" class="node">
<title>create_token_script</title>
<ellipse fill="none" stroke="black" cx="1324" cy="-162" rx="79.09" ry="18"/>
<text text-anchor="middle" x="1324" y="-158.3" font-family="Times,serif" font-size="14.00">create_token_script</text>
</g>
<!-- create_token_script&#45;&gt;create_tokendata -->
<g id="edge13" class="edge">
<title>create_token_script&#45;&gt;create_tokendata</title>
<path fill="none" stroke="black" d="M1280.7,-146.61C1267.44,-142.66 1252.73,-138.71 1239,-136 1121.51,-112.79 1089.29,-126.69 971,-108 965.13,-107.07 959.03,-105.99 952.95,-104.84"/>
<polygon fill="black" stroke="black" points="954.04,-101.48 943.55,-102.98 952.68,-108.35 954.04,-101.48"/>
</g>
</g>
</svg>
