<?xml version="1.0" encoding="UTF-8" standalone="no"?>
<!DOCTYPE svg PUBLIC "-//W3C//DTD SVG 1.1//EN"
 "http://www.w3.org/Graphics/SVG/1.1/DTD/svg11.dtd">
<!-- Generated by graphviz version 7.0.4 (20221203.1631)
 -->
<!-- Title: G Pages: 1 -->
<svg width="971pt" height="299pt"
 viewBox="0.00 0.00 970.58 299.00" xmlns="http://www.w3.org/2000/svg" xmlns:xlink="http://www.w3.org/1999/xlink">
<g id="graph0" class="graph" transform="scale(1 1) rotate(0) translate(4 295)">
<title>G</title>
<polygon fill="white" stroke="none" points="-4,4 -4,-295 966.58,-295 966.58,4 -4,4"/>
<g id="clust1" class="cluster">
<title>cluster_token_transfers</title>
<polygon fill="none" stroke="black" points="825.89,-136 825.89,-283 945.89,-283 945.89,-136 825.89,-136"/>
<text text-anchor="middle" x="885.89" y="-267.8" font-family="Times,serif" font-size="14.00">token_transfers</text>
</g>
<!-- withdraw_with_event_internal -->
<g id="node1" class="node">
<title>withdraw_with_event_internal</title>
<ellipse fill="none" stroke="black" cx="455.89" cy="-18" rx="118.08" ry="18"/>
<text text-anchor="middle" x="455.89" y="-14.3" font-family="Times,serif" font-size="14.00">withdraw_with_event_internal</text>
</g>
<!-- burn_by_creator -->
<g id="node2" class="node">
<title>burn_by_creator</title>
<ellipse fill="none" stroke="black" cx="68.89" cy="-90" rx="68.79" ry="18"/>
<text text-anchor="middle" x="68.89" y="-86.3" font-family="Times,serif" font-size="14.00">burn_by_creator</text>
</g>
<!-- burn_by_creator&#45;&gt;withdraw_with_event_internal -->
<g id="edge1" class="edge">
<title>burn_by_creator&#45;&gt;withdraw_with_event_internal</title>
<path fill="none" stroke="black" d="M120.01,-77.52C128.96,-75.6 138.19,-73.69 146.89,-72 220.07,-57.76 303.41,-43.58 365.08,-33.48"/>
<polygon fill="black" stroke="black" points="365.53,-36.95 374.84,-31.89 364.4,-30.04 365.53,-36.95"/>
</g>
<!-- mutate_one_token -->
<g id="node3" class="node">
<title>mutate_one_token</title>
<ellipse fill="none" stroke="black" cx="231.89" cy="-90" rx="76.09" ry="18"/>
<text text-anchor="middle" x="231.89" y="-86.3" font-family="Times,serif" font-size="14.00">mutate_one_token</text>
</g>
<!-- mutate_one_token&#45;&gt;withdraw_with_event_internal -->
<g id="edge2" class="edge">
<title>mutate_one_token&#45;&gt;withdraw_with_event_internal</title>
<path fill="none" stroke="black" d="M276.69,-75C310.62,-64.4 357.61,-49.71 394.96,-38.04"/>
<polygon fill="black" stroke="black" points="395.77,-41.46 404.27,-35.13 393.68,-34.77 395.77,-41.46"/>
</g>
<!-- partial_withdraw_with_capability -->
<g id="node4" class="node">
<title>partial_withdraw_with_capability</title>
<ellipse fill="none" stroke="black" cx="455.89" cy="-90" rx="129.98" ry="18"/>
<text text-anchor="middle" x="455.89" y="-86.3" font-family="Times,serif" font-size="14.00">partial_withdraw_with_capability</text>
</g>
<!-- partial_withdraw_with_capability&#45;&gt;withdraw_with_event_internal -->
<g id="edge3" class="edge">
<title>partial_withdraw_with_capability&#45;&gt;withdraw_with_event_internal</title>
<path fill="none" stroke="black" d="M455.89,-71.7C455.89,-64.41 455.89,-55.73 455.89,-47.54"/>
<polygon fill="black" stroke="black" points="459.39,-47.62 455.89,-37.62 452.39,-47.62 459.39,-47.62"/>
</g>
<!-- withdraw_token -->
<g id="node5" class="node">
<title>withdraw_token</title>
<ellipse fill="none" stroke="black" cx="671.89" cy="-90" rx="67.69" ry="18"/>
<text text-anchor="middle" x="671.89" y="-86.3" font-family="Times,serif" font-size="14.00">withdraw_token</text>
</g>
<!-- withdraw_token&#45;&gt;withdraw_with_event_internal -->
<g id="edge4" class="edge">
<title>withdraw_token&#45;&gt;withdraw_with_event_internal</title>
<path fill="none" stroke="black" d="M629.99,-75.42C597.27,-64.82 551.41,-49.95 514.97,-38.14"/>
<polygon fill="black" stroke="black" points="516.5,-34.96 505.91,-35.21 514.35,-41.62 516.5,-34.96"/>
</g>
<!-- withdraw_with_capability -->
<g id="node6" class="node">
<title>withdraw_with_capability</title>
<ellipse fill="none" stroke="black" cx="859.89" cy="-90" rx="102.88" ry="18"/>
<text text-anchor="middle" x="859.89" y="-86.3" font-family="Times,serif" font-size="14.00">withdraw_with_capability</text>
</g>
<!-- withdraw_with_capability&#45;&gt;withdraw_with_event_internal -->
<g id="edge5" class="edge">
<title>withdraw_with_capability&#45;&gt;withdraw_with_event_internal</title>
<path fill="none" stroke="black" d="M788.6,-76.65C720.08,-64.77 616.4,-46.81 543.02,-34.1"/>
<polygon fill="black" stroke="black" points="543.91,-30.7 533.46,-32.44 542.72,-37.6 543.91,-30.7"/>
</g>
<!-- mutate_token_properties -->
<g id="node7" class="node">
<title>mutate_token_properties</title>
<ellipse fill="none" stroke="black" cx="231.89" cy="-162" rx="98.58" ry="18"/>
<text text-anchor="middle" x="231.89" y="-158.3" font-family="Times,serif" font-size="14.00">mutate_token_properties</text>
</g>
<!-- mutate_token_properties&#45;&gt;mutate_one_token -->
<g id="edge6" class="edge">
<title>mutate_token_properties&#45;&gt;mutate_one_token</title>
<path fill="none" stroke="black" d="M231.89,-143.7C231.89,-136.41 231.89,-127.73 231.89,-119.54"/>
<polygon fill="black" stroke="black" points="235.39,-119.62 231.89,-109.62 228.39,-119.62 235.39,-119.62"/>
</g>
<!-- burn -->
<g id="node8" class="node">
<title>burn</title>
<ellipse fill="none" stroke="black" cx="529.89" cy="-162" rx="27" ry="18"/>
<text text-anchor="middle" x="529.89" y="-158.3" font-family="Times,serif" font-size="14.00">burn</text>
</g>
<!-- burn&#45;&gt;withdraw_token -->
<g id="edge7" class="edge">
<title>burn&#45;&gt;withdraw_token</title>
<path fill="none" stroke="black" d="M547.37,-147.79C553.11,-143.74 559.63,-139.46 565.89,-136 583.89,-126.07 604.53,-116.86 622.79,-109.39"/>
<polygon fill="black" stroke="black" points="623.84,-112.73 631.82,-105.76 621.24,-106.24 623.84,-112.73"/>
</g>
<!-- transfer -->
<g id="node9" class="node">
<title>transfer</title>
<ellipse fill="none" stroke="black" cx="612.89" cy="-162" rx="37.89" ry="18"/>
<text text-anchor="middle" x="612.89" y="-158.3" font-family="Times,serif" font-size="14.00">transfer</text>
</g>
<!-- transfer&#45;&gt;withdraw_token -->
<g id="edge8" class="edge">
<title>transfer&#45;&gt;withdraw_token</title>
<path fill="none" stroke="black" d="M626.58,-144.76C633.7,-136.32 642.56,-125.8 650.56,-116.31"/>
<polygon fill="black" stroke="black" points="653.13,-118.69 656.9,-108.79 647.78,-114.18 653.13,-118.69"/>
</g>
<!-- direct_transfer -->
<g id="node10" class="node">
<title>direct_transfer</title>
<ellipse fill="none" stroke="black" cx="729.89" cy="-162" rx="61.99" ry="18"/>
<text text-anchor="middle" x="729.89" y="-158.3" font-family="Times,serif" font-size="14.00">direct_transfer</text>
</g>
<!-- direct_transfer&#45;&gt;withdraw_token -->
<g id="edge9" class="edge">
<title>direct_transfer&#45;&gt;withdraw_token</title>
<path fill="none" stroke="black" d="M715.85,-144.05C709.01,-135.8 700.65,-125.7 693.05,-116.54"/>
<polygon fill="black" stroke="black" points="695.85,-114.42 686.77,-108.95 690.46,-118.89 695.85,-114.42"/>
</g>
<!-- token_transfers::offer -->
<g id="node11" class="node">
<title>token_transfers::offer</title>
<ellipse fill="none" stroke="black" cx="873.89" cy="-162" rx="27.9" ry="18"/>
<text text-anchor="middle" x="873.89" y="-158.3" font-family="Times,serif" font-size="14.00">offer</text>
</g>
<!-- token_transfers::offer&#45;&gt;withdraw_token -->
<g id="edge10" class="edge">
<title>token_transfers::offer&#45;&gt;withdraw_token</title>
<path fill="none" stroke="black" d="M849.53,-152.56C818.29,-141.73 763.32,-122.68 722.78,-108.63"/>
<polygon fill="black" stroke="black" points="724.05,-105.37 713.45,-105.4 721.76,-111.98 724.05,-105.37"/>
</g>
<!-- transfer_with_opt_in -->
<g id="node12" class="node">
<title>transfer_with_opt_in</title>
<ellipse fill="none" stroke="black" cx="541.89" cy="-234" rx="84.49" ry="18"/>
<text text-anchor="middle" x="541.89" y="-230.3" font-family="Times,serif" font-size="14.00">transfer_with_opt_in</text>
</g>
<!-- transfer_with_opt_in&#45;&gt;transfer -->
<g id="edge11" class="edge">
<title>transfer_with_opt_in&#45;&gt;transfer</title>
<path fill="none" stroke="black" d="M559.08,-216.05C568.19,-207.08 579.51,-195.92 589.41,-186.15"/>
<polygon fill="black" stroke="black" points="591.58,-188.93 596.24,-179.42 586.66,-183.95 591.58,-188.93"/>
</g>
<!-- direct_transfer_script -->
<g id="node13" class="node">
<title>direct_transfer_script</title>
<ellipse fill="none" stroke="black" cx="729.89" cy="-234" rx="85.59" ry="18"/>
<text text-anchor="middle" x="729.89" y="-230.3" font-family="Times,serif" font-size="14.00">direct_transfer_script</text>
</g>
<!-- direct_transfer_script&#45;&gt;direct_transfer -->
<g id="edge12" class="edge">
<title>direct_transfer_script&#45;&gt;direct_transfer</title>
<path fill="none" stroke="black" d="M729.89,-215.7C729.89,-208.41 729.89,-199.73 729.89,-191.54"/>
<polygon fill="black" stroke="black" points="733.39,-191.62 729.89,-181.62 726.39,-191.62 733.39,-191.62"/>
</g>
<!-- token_transfers::offer_script -->
<g id="node14" class="node">
<title>token_transfers::offer_script</title>
<ellipse fill="none" stroke="black" cx="885.89" cy="-234" rx="51.99" ry="18"/>
<text text-anchor="middle" x="885.89" y="-230.3" font-family="Times,serif" font-size="14.00">offer_script</text>
</g>
<!-- token_transfers::offer_script&#45;&gt;token_transfers::offer -->
<g id="edge13" class="edge">
<title>token_transfers::offer_script&#45;&gt;token_transfers::offer</title>
<path fill="none" stroke="black" d="M882.93,-215.7C881.66,-208.32 880.16,-199.52 878.74,-191.25"/>
<polygon fill="black" stroke="black" points="882.22,-190.86 877.08,-181.6 875.32,-192.04 882.22,-190.86"/>
</g>
</g>
</svg>
