<?xml version="1.0" encoding="UTF-8" standalone="no"?>
<!DOCTYPE svg PUBLIC "-//W3C//DTD SVG 1.1//EN"
 "http://www.w3.org/Graphics/SVG/1.1/DTD/svg11.dtd">
<!-- Generated by graphviz version 7.0.4 (20221203.1631)
 -->
<!-- Title: G Pages: 1 -->
<svg width="504pt" height="227pt"
 viewBox="0.00 0.00 504.49 227.00" xmlns="http://www.w3.org/2000/svg" xmlns:xlink="http://www.w3.org/1999/xlink">
<g id="graph0" class="graph" transform="scale(1 1) rotate(0) translate(4 223)">
<title>G</title>
<polygon fill="white" stroke="none" points="-4,4 -4,-223 500.49,-223 500.49,4 -4,4"/>
<g id="clust1" class="cluster">
<title>cluster_token_transfers</title>
<polygon fill="none" stroke="black" points="368.49,-64 368.49,-211 488.49,-211 488.49,-64 368.49,-64"/>
<text text-anchor="middle" x="428.49" y="-195.8" font-family="Times,serif" font-size="14.00">token_transfers</text>
</g>
<!-- withdraw_token -->
<g id="node1" class="node">
<title>withdraw_token</title>
<ellipse fill="none" stroke="black" cx="213.49" cy="-18" rx="67.69" ry="18"/>
<text text-anchor="middle" x="213.49" y="-14.3" font-family="Times,serif" font-size="14.00">withdraw_token</text>
</g>
<!-- burn -->
<g id="node2" class="node">
<title>burn</title>
<ellipse fill="none" stroke="black" cx="72.49" cy="-90" rx="27" ry="18"/>
<text text-anchor="middle" x="72.49" y="-86.3" font-family="Times,serif" font-size="14.00">burn</text>
</g>
<!-- burn&#45;&gt;withdraw_token -->
<g id="edge1" class="edge">
<title>burn&#45;&gt;withdraw_token</title>
<path fill="none" stroke="black" d="M89.98,-75.8C95.72,-71.76 102.24,-67.47 108.49,-64 126.25,-54.16 146.59,-45 164.61,-37.54"/>
<polygon fill="black" stroke="black" points="165.84,-40.82 173.79,-33.81 163.21,-34.33 165.84,-40.82"/>
</g>
<!-- transfer -->
<g id="node3" class="node">
<title>transfer</title>
<ellipse fill="none" stroke="black" cx="155.49" cy="-90" rx="37.89" ry="18"/>
<text text-anchor="middle" x="155.49" y="-86.3" font-family="Times,serif" font-size="14.00">transfer</text>
</g>
<!-- transfer&#45;&gt;withdraw_token -->
<g id="edge2" class="edge">
<title>transfer&#45;&gt;withdraw_token</title>
<path fill="none" stroke="black" d="M168.94,-72.76C175.94,-64.32 184.66,-53.8 192.52,-44.31"/>
<polygon fill="black" stroke="black" points="195.06,-46.73 198.74,-36.8 189.67,-42.27 195.06,-46.73"/>
</g>
<!-- direct_transfer -->
<g id="node4" class="node">
<title>direct_transfer</title>
<ellipse fill="none" stroke="black" cx="272.49" cy="-90" rx="61.99" ry="18"/>
<text text-anchor="middle" x="272.49" y="-86.3" font-family="Times,serif" font-size="14.00">direct_transfer</text>
</g>
<!-- direct_transfer&#45;&gt;withdraw_token -->
<g id="edge3" class="edge">
<title>direct_transfer&#45;&gt;withdraw_token</title>
<path fill="none" stroke="black" d="M258.21,-72.05C251.25,-63.8 242.74,-53.7 235.02,-44.54"/>
<polygon fill="black" stroke="black" points="237.74,-42.34 228.62,-36.95 232.39,-46.85 237.74,-42.34"/>
</g>
<!-- token_transfers::offer -->
<g id="node5" class="node">
<title>token_transfers::offer</title>
<ellipse fill="none" stroke="black" cx="416.49" cy="-90" rx="27.9" ry="18"/>
<text text-anchor="middle" x="416.49" y="-86.3" font-family="Times,serif" font-size="14.00">offer</text>
</g>
<!-- token_transfers::offer&#45;&gt;withdraw_token -->
<g id="edge4" class="edge">
<title>token_transfers::offer&#45;&gt;withdraw_token</title>
<path fill="none" stroke="black" d="M392.41,-80.7C361.05,-69.88 305.4,-50.69 264.47,-36.58"/>
<polygon fill="black" stroke="black" points="265.64,-33.28 255.05,-33.33 263.36,-39.9 265.64,-33.28"/>
</g>
<!-- transfer_with_opt_in -->
<g id="node6" class="node">
<title>transfer_with_opt_in</title>
<ellipse fill="none" stroke="black" cx="84.49" cy="-162" rx="84.49" ry="18"/>
<text text-anchor="middle" x="84.49" y="-158.3" font-family="Times,serif" font-size="14.00">transfer_with_opt_in</text>
</g>
<!-- transfer_with_opt_in&#45;&gt;transfer -->
<g id="edge5" class="edge">
<title>transfer_with_opt_in&#45;&gt;transfer</title>
<path fill="none" stroke="black" d="M101.68,-144.05C110.79,-135.08 122.1,-123.92 132.01,-114.15"/>
<polygon fill="black" stroke="black" points="134.18,-116.93 138.84,-107.42 129.26,-111.95 134.18,-116.93"/>
</g>
<!-- direct_transfer_script -->
<g id="node7" class="node">
<title>direct_transfer_script</title>
<ellipse fill="none" stroke="black" cx="272.49" cy="-162" rx="85.59" ry="18"/>
<text text-anchor="middle" x="272.49" y="-158.3" font-family="Times,serif" font-size="14.00">direct_transfer_script</text>
</g>
<!-- direct_transfer_script&#45;&gt;direct_transfer -->
<g id="edge6" class="edge">
<title>direct_transfer_script&#45;&gt;direct_transfer</title>
<path fill="none" stroke="black" d="M272.49,-143.7C272.49,-136.41 272.49,-127.73 272.49,-119.54"/>
<polygon fill="black" stroke="black" points="275.99,-119.62 272.49,-109.62 268.99,-119.62 275.99,-119.62"/>
</g>
<!-- token_transfers::offer_script -->
<g id="node8" class="node">
<title>token_transfers::offer_script</title>
<ellipse fill="none" stroke="black" cx="428.49" cy="-162" rx="51.99" ry="18"/>
<text text-anchor="middle" x="428.49" y="-158.3" font-family="Times,serif" font-size="14.00">offer_script</text>
</g>
<!-- token_transfers::offer_script&#45;&gt;token_transfers::offer -->
<g id="edge7" class="edge">
<title>token_transfers::offer_script&#45;&gt;token_transfers::offer</title>
<path fill="none" stroke="black" d="M425.53,-143.7C424.26,-136.32 422.75,-127.52 421.34,-119.25"/>
<polygon fill="black" stroke="black" points="424.82,-118.86 419.68,-109.6 417.92,-120.04 424.82,-118.86"/>
</g>
</g>
</svg>
