<?xml version="1.0" encoding="UTF-8" standalone="no"?>
<!DOCTYPE svg PUBLIC "-//W3C//DTD SVG 1.1//EN"
 "http://www.w3.org/Graphics/SVG/1.1/DTD/svg11.dtd">
<!-- Generated by graphviz version 7.0.4 (20221203.1631)
 -->
<!-- Title: G Pages: 1 -->
<svg width="1702pt" height="520pt"
 viewBox="0.00 0.00 1702.00 520.00" xmlns="http://www.w3.org/2000/svg" xmlns:xlink="http://www.w3.org/1999/xlink">
<g id="graph0" class="graph" transform="scale(1 1) rotate(0) translate(4 516)">
<title>G</title>
<polygon fill="white" stroke="none" points="-4,4 -4,-516 1698,-516 1698,4 -4,4"/>
<g id="clust1" class="cluster">
<title>cluster_signer</title>
<polygon fill="none" stroke="black" points="8,-8 8,-155 158,-155 158,-8 8,-8"/>
<text text-anchor="middle" x="83" y="-139.8" font-family="Times,serif" font-size="14.00">signer</text>
</g>
<g id="clust2" class="cluster">
<title>cluster_error</title>
<polygon fill="none" stroke="black" points="714,-80 714,-238 988,-238 988,-80 714,-80"/>
<text text-anchor="middle" x="851" y="-222.8" font-family="Times,serif" font-size="14.00">error</text>
</g>
<g id="clust3" class="cluster">
<title>cluster_table</title>
<polygon fill="none" stroke="black" points="996,-163 996,-321 1686,-321 1686,-163 996,-163"/>
<text text-anchor="middle" x="1341" y="-305.8" font-family="Times,serif" font-size="14.00">table</text>
</g>
<g id="clust4" class="cluster">
<title>cluster_event</title>
<polygon fill="none" stroke="black" points="314,-80 314,-238 602,-238 602,-80 314,-80"/>
<text text-anchor="middle" x="458" y="-222.8" font-family="Times,serif" font-size="14.00">event</text>
</g>
<g id="clust5" class="cluster">
<title>cluster_token</title>
<polygon fill="none" stroke="black" points="637,-246 637,-468 966,-468 966,-246 637,-246"/>
<text text-anchor="middle" x="801.5" y="-452.8" font-family="Times,serif" font-size="14.00">token</text>
</g>
<g id="clust6" class="cluster">
<title>cluster_bcs</title>
<polygon fill="none" stroke="black" points="610,-80 610,-155 706,-155 706,-80 610,-80"/>
<text text-anchor="middle" x="658" y="-139.8" font-family="Times,serif" font-size="14.00">bcs</text>
</g>
<g id="clust7" class="cluster">
<title>cluster_account</title>
<polygon fill="none" stroke="black" points="136,-163 136,-321 306,-321 306,-163 136,-163"/>
<text text-anchor="middle" x="221" y="-305.8" font-family="Times,serif" font-size="14.00">account</text>
</g>
<g id="clust8" class="cluster">
<title>cluster_guid</title>
<polygon fill="none" stroke="black" points="171,-80 171,-155 251,-155 251,-80 171,-80"/>
<text text-anchor="middle" x="211" y="-139.8" font-family="Times,serif" font-size="14.00">guid</text>
</g>
<!-- claim -->
<g id="node1" class="node">
<title>claim</title>
<ellipse fill="none" stroke="black" cx="799" cy="-494" rx="30.59" ry="18"/>
<text text-anchor="middle" x="799" y="-490.3" font-family="Times,serif" font-size="14.00">claim</text>
</g>
<!-- signer::address_of -->
<g id="node2" class="node">
<title>signer::address_of</title>
<ellipse fill="none" stroke="black" cx="83" cy="-106" rx="48.99" ry="18"/>
<text text-anchor="middle" x="83" y="-102.3" font-family="Times,serif" font-size="14.00">address_of</text>
</g>
<!-- claim&#45;&gt;signer::address_of -->
<g id="edge1" class="edge">
<title>claim&#45;&gt;signer::address_of</title>
<path fill="none" stroke="black" d="M768.48,-491.37C720.31,-488.5 623.82,-481.52 543,-468 316.32,-430.08 40,-577.83 40,-348 40,-348 40,-348 40,-271 40,-221.5 58.56,-166.26 71.29,-134.19"/>
<polygon fill="black" stroke="black" points="74.4,-135.84 74.94,-125.25 67.92,-133.19 74.4,-135.84"/>
</g>
<!-- error::not_found -->
<g id="node3" class="node">
<title>error::not_found</title>
<ellipse fill="none" stroke="black" cx="933" cy="-189" rx="46.59" ry="18"/>
<text text-anchor="middle" x="933" y="-185.3" font-family="Times,serif" font-size="14.00">not_found</text>
</g>
<!-- claim&#45;&gt;error::not_found -->
<g id="edge2" class="edge">
<title>claim&#45;&gt;error::not_found</title>
<path fill="none" stroke="black" d="M767.96,-492.95C724.81,-492.14 650.06,-487.83 633,-468 568.64,-393.22 564.38,-316.9 633,-246 642.43,-236.25 864.36,-242.91 877,-238 889.79,-233.03 901.69,-223.8 911.2,-214.76"/>
<polygon fill="black" stroke="black" points="913.62,-217.29 918.16,-207.71 908.64,-212.37 913.62,-217.29"/>
</g>
<!-- table::contains -->
<g id="node4" class="node">
<title>table::contains</title>
<ellipse fill="none" stroke="black" cx="1316" cy="-272" rx="40.09" ry="18"/>
<text text-anchor="middle" x="1316" y="-268.3" font-family="Times,serif" font-size="14.00">contains</text>
</g>
<!-- claim&#45;&gt;table::contains -->
<g id="edge3" class="edge">
<title>claim&#45;&gt;table::contains</title>
<path fill="none" stroke="black" d="M829.89,-492.39C873.38,-490.91 949.66,-485.76 970,-468 1018.42,-425.71 959.25,-368.46 1010,-329 1032.55,-311.46 1240.72,-332.21 1267,-321 1278.5,-316.1 1288.81,-307.14 1296.97,-298.28"/>
<polygon fill="black" stroke="black" points="1299.56,-300.63 1303.4,-290.76 1294.24,-296.09 1299.56,-300.63"/>
</g>
<!-- table::remove -->
<g id="node5" class="node">
<title>table::remove</title>
<ellipse fill="none" stroke="black" cx="1517" cy="-272" rx="37.89" ry="18"/>
<text text-anchor="middle" x="1517" y="-268.3" font-family="Times,serif" font-size="14.00">remove</text>
</g>
<!-- claim&#45;&gt;table::remove -->
<g id="edge4" class="edge">
<title>claim&#45;&gt;table::remove</title>
<path fill="none" stroke="black" d="M829.79,-491.99C877.57,-489.93 966.89,-484.01 994,-468 1025.77,-449.24 1012.37,-421.57 1043,-401 1165.41,-318.78 1223.07,-361 1365,-321 1402.84,-310.34 1445.49,-296.73 1475.96,-286.73"/>
<polygon fill="black" stroke="black" points="1476.76,-290.15 1485.16,-283.69 1474.57,-283.5 1476.76,-290.15"/>
</g>
<!-- event::emit_event -->
<g id="node6" class="node">
<title>event::emit_event</title>
<ellipse fill="none" stroke="black" cx="544" cy="-189" rx="50.09" ry="18"/>
<text text-anchor="middle" x="544" y="-185.3" font-family="Times,serif" font-size="14.00">emit_event</text>
</g>
<!-- claim&#45;&gt;event::emit_event -->
<g id="edge5" class="edge">
<title>claim&#45;&gt;event::emit_event</title>
<path fill="none" stroke="black" d="M767.95,-493.73C715.61,-494.26 613.06,-492.1 588,-468 519.26,-401.89 529.76,-274.99 538.63,-218.42"/>
<polygon fill="black" stroke="black" points="542.07,-219.1 540.27,-208.65 535.16,-217.93 542.07,-219.1"/>
</g>
<!-- token::deposit_token -->
<g id="node7" class="node">
<title>token::deposit_token</title>
<ellipse fill="none" stroke="black" cx="876" cy="-419" rx="59.59" ry="18"/>
<text text-anchor="middle" x="876" y="-415.3" font-family="Times,serif" font-size="14.00">deposit_token</text>
</g>
<!-- claim&#45;&gt;token::deposit_token -->
<g id="edge6" class="edge">
<title>claim&#45;&gt;token::deposit_token</title>
<path fill="none" stroke="black" d="M814.58,-478.23C824.84,-468.51 838.5,-455.55 850.34,-444.33"/>
<polygon fill="black" stroke="black" points="852.61,-446.99 857.46,-437.57 847.8,-441.91 852.61,-446.99"/>
</g>
<!-- token::get_token_amount -->
<g id="node8" class="node">
<title>token::get_token_amount</title>
<ellipse fill="none" stroke="black" cx="722" cy="-419" rx="76.89" ry="18"/>
<text text-anchor="middle" x="722" y="-415.3" font-family="Times,serif" font-size="14.00">get_token_amount</text>
</g>
<!-- claim&#45;&gt;token::get_token_amount -->
<g id="edge7" class="edge">
<title>claim&#45;&gt;token::get_token_amount</title>
<path fill="none" stroke="black" d="M783.42,-478.23C773.23,-468.57 759.69,-455.73 747.91,-444.56"/>
<polygon fill="black" stroke="black" points="750.48,-442.17 740.81,-437.83 745.66,-447.25 750.48,-442.17"/>
</g>
<!-- create_token_offer_id -->
<g id="node9" class="node">
<title>create_token_offer_id</title>
<ellipse fill="none" stroke="black" cx="1140" cy="-419" rx="88.28" ry="18"/>
<text text-anchor="middle" x="1140" y="-415.3" font-family="Times,serif" font-size="14.00">create_token_offer_id</text>
</g>
<!-- claim&#45;&gt;create_token_offer_id -->
<g id="edge8" class="edge">
<title>claim&#45;&gt;create_token_offer_id</title>
<path fill="none" stroke="black" d="M829.79,-493.04C875.91,-492.39 965.26,-488.29 1038,-468 1060.01,-461.86 1083.15,-451.34 1101.82,-441.71"/>
<polygon fill="black" stroke="black" points="1103.44,-444.81 1110.64,-437.04 1100.16,-438.63 1103.44,-444.81"/>
</g>
<!-- signer::borrow_address -->
<g id="node10" class="node">
<title>signer::borrow_address</title>
<ellipse fill="none" stroke="black" cx="83" cy="-34" rx="66.89" ry="18"/>
<text text-anchor="middle" x="83" y="-30.3" font-family="Times,serif" font-size="14.00">borrow_address</text>
</g>
<!-- signer::address_of&#45;&gt;signer::borrow_address -->
<g id="edge9" class="edge">
<title>signer::address_of&#45;&gt;signer::borrow_address</title>
<path fill="none" stroke="black" d="M83,-87.7C83,-80.41 83,-71.73 83,-63.54"/>
<polygon fill="black" stroke="black" points="86.5,-63.62 83,-53.62 79.5,-63.62 86.5,-63.62"/>
</g>
<!-- error::canonical -->
<g id="node11" class="node">
<title>error::canonical</title>
<ellipse fill="none" stroke="black" cx="864" cy="-106" rx="44.39" ry="18"/>
<text text-anchor="middle" x="864" y="-102.3" font-family="Times,serif" font-size="14.00">canonical</text>
</g>
<!-- error::not_found&#45;&gt;error::canonical -->
<g id="edge10" class="edge">
<title>error::not_found&#45;&gt;error::canonical</title>
<path fill="none" stroke="black" d="M919.04,-171.61C909.31,-160.19 896.16,-144.75 885.15,-131.83"/>
<polygon fill="black" stroke="black" points="888.07,-129.86 878.92,-124.52 882.74,-134.4 888.07,-129.86"/>
</g>
<!-- table::contains_box -->
<g id="node12" class="node">
<title>table::contains_box</title>
<ellipse fill="none" stroke="black" cx="1492" cy="-189" rx="57.69" ry="18"/>
<text text-anchor="middle" x="1492" y="-185.3" font-family="Times,serif" font-size="14.00">contains_box</text>
</g>
<!-- table::contains&#45;&gt;table::contains_box -->
<g id="edge11" class="edge">
<title>table::contains&#45;&gt;table::contains_box</title>
<path fill="none" stroke="black" d="M1351.72,-263.33C1373.55,-257.88 1401.68,-249.49 1425,-238 1438.54,-231.33 1452.29,-222.01 1463.79,-213.35"/>
<polygon fill="black" stroke="black" points="1465.91,-216.14 1471.66,-207.24 1461.62,-210.61 1465.91,-216.14"/>
</g>
<!-- table::remove_box -->
<g id="node13" class="node">
<title>table::remove_box</title>
<ellipse fill="none" stroke="black" cx="1623" cy="-189" rx="55.49" ry="18"/>
<text text-anchor="middle" x="1623" y="-185.3" font-family="Times,serif" font-size="14.00">remove_box</text>
</g>
<!-- table::remove&#45;&gt;table::remove_box -->
<g id="edge12" class="edge">
<title>table::remove&#45;&gt;table::remove_box</title>
<path fill="none" stroke="black" d="M1536.44,-256.14C1552.32,-244.01 1575.03,-226.66 1593.2,-212.77"/>
<polygon fill="black" stroke="black" points="1595.21,-215.64 1601.03,-206.79 1590.96,-210.08 1595.21,-215.64"/>
</g>
<!-- bcs::to_bytes -->
<g id="node14" class="node">
<title>bcs::to_bytes</title>
<ellipse fill="none" stroke="black" cx="658" cy="-106" rx="40.09" ry="18"/>
<text text-anchor="middle" x="658" y="-102.3" font-family="Times,serif" font-size="14.00">to_bytes</text>
</g>
<!-- event::emit_event&#45;&gt;bcs::to_bytes -->
<g id="edge13" class="edge">
<title>event::emit_event&#45;&gt;bcs::to_bytes</title>
<path fill="none" stroke="black" d="M573.62,-174.2C584.19,-168.77 595.96,-162.13 606,-155 616.07,-147.85 626.25,-138.92 634.9,-130.7"/>
<polygon fill="black" stroke="black" points="637.18,-133.37 641.89,-123.88 632.29,-128.36 637.18,-133.37"/>
</g>
<!-- event::write_to_event_store -->
<g id="node15" class="node">
<title>event::write_to_event_store</title>
<ellipse fill="none" stroke="black" cx="509" cy="-106" rx="85.29" ry="18"/>
<text text-anchor="middle" x="509" y="-102.3" font-family="Times,serif" font-size="14.00">write_to_event_store</text>
</g>
<!-- event::emit_event&#45;&gt;event::write_to_event_store -->
<g id="edge14" class="edge">
<title>event::emit_event&#45;&gt;event::write_to_event_store</title>
<path fill="none" stroke="black" d="M536.58,-170.82C532.03,-160.3 526.11,-146.59 520.91,-134.57"/>
<polygon fill="black" stroke="black" points="524.19,-133.33 517.01,-125.54 517.77,-136.11 524.19,-133.33"/>
</g>
<!-- token::deposit_token&#45;&gt;signer::address_of -->
<g id="edge15" class="edge">
<title>token::deposit_token&#45;&gt;signer::address_of</title>
<path fill="none" stroke="black" d="M832.65,-406.26C824.5,-404.31 816.02,-402.45 808,-401 653.07,-372.96 217.02,-430.63 104,-321 54.08,-272.58 65.69,-181.31 75.72,-135.2"/>
<polygon fill="black" stroke="black" points="79.07,-136.24 77.92,-125.71 72.25,-134.66 79.07,-136.24"/>
</g>
<!-- token::direct_deposit -->
<g id="node16" class="node">
<title>token::direct_deposit</title>
<ellipse fill="none" stroke="black" cx="898" cy="-347" rx="60.39" ry="18"/>
<text text-anchor="middle" x="898" y="-343.3" font-family="Times,serif" font-size="14.00">direct_deposit</text>
</g>
<!-- token::deposit_token&#45;&gt;token::direct_deposit -->
<g id="edge16" class="edge">
<title>token::deposit_token&#45;&gt;token::direct_deposit</title>
<path fill="none" stroke="black" d="M881.44,-400.7C883.78,-393.24 886.58,-384.32 889.21,-375.97"/>
<polygon fill="black" stroke="black" points="892.51,-377.14 892.17,-366.55 885.83,-375.04 892.51,-377.14"/>
</g>
<!-- token::initialize_token_store -->
<g id="node17" class="node">
<title>token::initialize_token_store</title>
<ellipse fill="none" stroke="black" cx="732" cy="-347" rx="87.18" ry="18"/>
<text text-anchor="middle" x="732" y="-343.3" font-family="Times,serif" font-size="14.00">initialize_token_store</text>
</g>
<!-- token::deposit_token&#45;&gt;token::initialize_token_store -->
<g id="edge17" class="edge">
<title>token::deposit_token&#45;&gt;token::initialize_token_store</title>
<path fill="none" stroke="black" d="M845.46,-403.15C824.99,-393.2 797.72,-379.95 775.05,-368.93"/>
<polygon fill="black" stroke="black" points="776.89,-365.93 766.36,-364.7 773.83,-372.22 776.89,-365.93"/>
</g>
<!-- token::direct_deposit&#45;&gt;error::not_found -->
<g id="edge19" class="edge">
<title>token::direct_deposit&#45;&gt;error::not_found</title>
<path fill="none" stroke="black" d="M903.83,-328.59C904.61,-326.05 905.35,-323.47 906,-321 915.2,-285.94 923.22,-244.93 928.07,-218.26"/>
<polygon fill="black" stroke="black" points="931.49,-219.04 929.81,-208.58 924.6,-217.81 931.49,-219.04"/>
</g>
<!-- token::direct_deposit&#45;&gt;table::contains -->
<g id="edge20" class="edge">
<title>token::direct_deposit&#45;&gt;table::contains</title>
<path fill="none" stroke="black" d="M941.96,-334.39C951.78,-332.22 962.19,-330.25 972,-329 1004.53,-324.86 1236.81,-333.8 1267,-321 1278.51,-316.12 1288.82,-307.17 1296.98,-298.3"/>
<polygon fill="black" stroke="black" points="1299.58,-300.66 1303.41,-290.78 1294.25,-296.11 1299.58,-300.66"/>
</g>
<!-- token::direct_deposit&#45;&gt;event::emit_event -->
<g id="edge23" class="edge">
<title>token::direct_deposit&#45;&gt;event::emit_event</title>
<path fill="none" stroke="black" d="M852.49,-334.73C844.34,-332.78 835.93,-330.8 828,-329 811.17,-325.19 806.22,-326.89 790,-321 709.67,-291.82 623.07,-240.54 577.1,-211.55"/>
<polygon fill="black" stroke="black" points="578.99,-208.6 568.67,-206.19 575.23,-214.5 578.99,-208.6"/>
</g>
<!-- error::invalid_argument -->
<g id="node18" class="node">
<title>error::invalid_argument</title>
<ellipse fill="none" stroke="black" cx="795" cy="-189" rx="73.39" ry="18"/>
<text text-anchor="middle" x="795" y="-185.3" font-family="Times,serif" font-size="14.00">invalid_argument</text>
</g>
<!-- token::direct_deposit&#45;&gt;error::invalid_argument -->
<g id="edge18" class="edge">
<title>token::direct_deposit&#45;&gt;error::invalid_argument</title>
<path fill="none" stroke="black" d="M846.58,-337.23C837.33,-333.56 828.56,-328.36 822,-321 796.99,-292.94 792.81,-247.99 793.12,-218.73"/>
<polygon fill="black" stroke="black" points="796.62,-218.86 793.43,-208.75 789.62,-218.64 796.62,-218.86"/>
</g>
<!-- table::borrow_mut -->
<g id="node19" class="node">
<title>table::borrow_mut</title>
<ellipse fill="none" stroke="black" cx="1131" cy="-272" rx="54.69" ry="18"/>
<text text-anchor="middle" x="1131" y="-268.3" font-family="Times,serif" font-size="14.00">borrow_mut</text>
</g>
<!-- token::direct_deposit&#45;&gt;table::borrow_mut -->
<g id="edge21" class="edge">
<title>token::direct_deposit&#45;&gt;table::borrow_mut</title>
<path fill="none" stroke="black" d="M942.8,-334.63C952.39,-332.51 962.49,-330.48 972,-329 1013.86,-322.46 1027.4,-336.08 1067,-321 1081.1,-315.63 1094.75,-306.18 1105.8,-297.08"/>
<polygon fill="black" stroke="black" points="1108.01,-299.79 1113.28,-290.6 1103.43,-294.5 1108.01,-299.79"/>
</g>
<!-- table::add -->
<g id="node20" class="node">
<title>table::add</title>
<ellipse fill="none" stroke="black" cx="1231" cy="-272" rx="27" ry="18"/>
<text text-anchor="middle" x="1231" y="-268.3" font-family="Times,serif" font-size="14.00">add</text>
</g>
<!-- token::direct_deposit&#45;&gt;table::add -->
<g id="edge22" class="edge">
<title>token::direct_deposit&#45;&gt;table::add</title>
<path fill="none" stroke="black" d="M942.36,-334.37C952.07,-332.23 962.33,-330.27 972,-329 996.58,-325.77 1173.03,-332.48 1195,-321 1204.29,-316.15 1211.84,-307.69 1217.58,-299.22"/>
<polygon fill="black" stroke="black" points="1220.51,-301.13 1222.7,-290.77 1214.52,-297.51 1220.51,-301.13"/>
</g>
<!-- token::merge -->
<g id="node21" class="node">
<title>token::merge</title>
<ellipse fill="none" stroke="black" cx="864" cy="-272" rx="33.29" ry="18"/>
<text text-anchor="middle" x="864" y="-268.3" font-family="Times,serif" font-size="14.00">merge</text>
</g>
<!-- token::direct_deposit&#45;&gt;token::merge -->
<g id="edge24" class="edge">
<title>token::direct_deposit&#45;&gt;token::merge</title>
<path fill="none" stroke="black" d="M889.94,-328.7C885.98,-320.18 881.1,-309.72 876.65,-300.17"/>
<polygon fill="black" stroke="black" points="879.92,-298.88 872.52,-291.3 873.57,-301.84 879.92,-298.88"/>
</g>
<!-- token::initialize_token_store&#45;&gt;signer::address_of -->
<g id="edge25" class="edge">
<title>token::initialize_token_store&#45;&gt;signer::address_of</title>
<path fill="none" stroke="black" d="M648.33,-341.62C576.61,-337.95 470.53,-332.73 378,-329 364.34,-328.45 142.55,-329.69 132,-321 117.65,-309.17 96.7,-190.99 87.55,-135.5"/>
<polygon fill="black" stroke="black" points="91.04,-135.16 85.98,-125.85 84.14,-136.29 91.04,-135.16"/>
</g>
<!-- table::new -->
<g id="node22" class="node">
<title>table::new</title>
<ellipse fill="none" stroke="black" cx="1031" cy="-272" rx="27" ry="18"/>
<text text-anchor="middle" x="1031" y="-268.3" font-family="Times,serif" font-size="14.00">new</text>
</g>
<!-- token::initialize_token_store&#45;&gt;table::new -->
<g id="edge26" class="edge">
<title>token::initialize_token_store&#45;&gt;table::new</title>
<path fill="none" stroke="black" d="M794.2,-333.99C805.73,-332.08 817.71,-330.31 829,-329 860.18,-325.4 940.65,-332.11 970,-321 984.57,-315.49 998.43,-305.16 1009.24,-295.5"/>
<polygon fill="black" stroke="black" points="1011.58,-298.1 1016.45,-288.69 1006.77,-293.01 1011.58,-298.1"/>
</g>
<!-- account::new_event_handle -->
<g id="node23" class="node">
<title>account::new_event_handle</title>
<ellipse fill="none" stroke="black" cx="221" cy="-272" rx="76.89" ry="18"/>
<text text-anchor="middle" x="221" y="-268.3" font-family="Times,serif" font-size="14.00">new_event_handle</text>
</g>
<!-- token::initialize_token_store&#45;&gt;account::new_event_handle -->
<g id="edge27" class="edge">
<title>token::initialize_token_store&#45;&gt;account::new_event_handle</title>
<path fill="none" stroke="black" d="M659.93,-336.46C625.7,-331.88 584.23,-326.26 547,-321 460.65,-308.81 361.55,-294.12 295.5,-284.23"/>
<polygon fill="black" stroke="black" points="296.28,-280.8 285.88,-282.78 295.25,-287.73 296.28,-280.8"/>
</g>
<!-- error::invalid_argument&#45;&gt;error::canonical -->
<g id="edge28" class="edge">
<title>error::invalid_argument&#45;&gt;error::canonical</title>
<path fill="none" stroke="black" d="M809.3,-171.22C818.89,-159.96 831.7,-144.92 842.51,-132.22"/>
<polygon fill="black" stroke="black" points="845.16,-134.52 848.98,-124.64 839.83,-129.98 845.16,-134.52"/>
</g>
<!-- table::borrow_box_mut -->
<g id="node24" class="node">
<title>table::borrow_box_mut</title>
<ellipse fill="none" stroke="black" cx="1244" cy="-189" rx="72.29" ry="18"/>
<text text-anchor="middle" x="1244" y="-185.3" font-family="Times,serif" font-size="14.00">borrow_box_mut</text>
</g>
<!-- table::borrow_mut&#45;&gt;table::borrow_box_mut -->
<g id="edge29" class="edge">
<title>table::borrow_mut&#45;&gt;table::borrow_box_mut</title>
<path fill="none" stroke="black" d="M1153.06,-255.19C1169.87,-243.14 1193.26,-226.37 1212.11,-212.86"/>
<polygon fill="black" stroke="black" points="1213.91,-215.88 1220,-207.21 1209.83,-210.19 1213.91,-215.88"/>
</g>
<!-- table::add_box -->
<g id="node25" class="node">
<title>table::add_box</title>
<ellipse fill="none" stroke="black" cx="1375" cy="-189" rx="40.89" ry="18"/>
<text text-anchor="middle" x="1375" y="-185.3" font-family="Times,serif" font-size="14.00">add_box</text>
</g>
<!-- table::add&#45;&gt;table::add_box -->
<g id="edge30" class="edge">
<title>table::add&#45;&gt;table::add_box</title>
<path fill="none" stroke="black" d="M1247.27,-257.28C1253.15,-253.01 1260.05,-248.71 1267,-246 1291.24,-236.54 1301.58,-249.34 1325,-238 1336.21,-232.57 1346.53,-223.69 1354.84,-215.03"/>
<polygon fill="black" stroke="black" points="1357.35,-217.48 1361.44,-207.7 1352.14,-212.79 1357.35,-217.48"/>
</g>
<!-- token::merge&#45;&gt;error::invalid_argument -->
<g id="edge31" class="edge">
<title>token::merge&#45;&gt;error::invalid_argument</title>
<path fill="none" stroke="black" d="M850.7,-255.38C841.09,-244.1 827.9,-228.62 816.76,-215.55"/>
<polygon fill="black" stroke="black" points="819.58,-213.46 810.44,-208.12 814.26,-218 819.58,-213.46"/>
</g>
<!-- table::new_table_handle -->
<g id="node26" class="node">
<title>table::new_table_handle</title>
<ellipse fill="none" stroke="black" cx="1079" cy="-189" rx="74.99" ry="18"/>
<text text-anchor="middle" x="1079" y="-185.3" font-family="Times,serif" font-size="14.00">new_table_handle</text>
</g>
<!-- table::new&#45;&gt;table::new_table_handle -->
<g id="edge32" class="edge">
<title>table::new&#45;&gt;table::new_table_handle</title>
<path fill="none" stroke="black" d="M1040.48,-255C1046.95,-244.08 1055.67,-229.37 1063.18,-216.7"/>
<polygon fill="black" stroke="black" points="1066.01,-218.78 1068.1,-208.39 1059.99,-215.21 1066.01,-218.78"/>
</g>
<!-- event::new_event_handle -->
<g id="node27" class="node">
<title>event::new_event_handle</title>
<ellipse fill="none" stroke="black" cx="399" cy="-189" rx="76.89" ry="18"/>
<text text-anchor="middle" x="399" y="-185.3" font-family="Times,serif" font-size="14.00">new_event_handle</text>
</g>
<!-- account::new_event_handle&#45;&gt;event::new_event_handle -->
<g id="edge33" class="edge">
<title>account::new_event_handle&#45;&gt;event::new_event_handle</title>
<path fill="none" stroke="black" d="M263.59,-256.58C278.46,-251.18 295.14,-244.72 310,-238 327.32,-230.16 345.91,-220.37 361.6,-211.68"/>
<polygon fill="black" stroke="black" points="363.12,-214.84 370.13,-206.89 359.69,-208.73 363.12,-214.84"/>
</g>
<!-- account::create_guid -->
<g id="node28" class="node">
<title>account::create_guid</title>
<ellipse fill="none" stroke="black" cx="211" cy="-189" rx="51.99" ry="18"/>
<text text-anchor="middle" x="211" y="-185.3" font-family="Times,serif" font-size="14.00">create_guid</text>
</g>
<!-- account::new_event_handle&#45;&gt;account::create_guid -->
<g id="edge34" class="edge">
<title>account::new_event_handle&#45;&gt;account::create_guid</title>
<path fill="none" stroke="black" d="M218.88,-253.82C217.62,-243.58 215.98,-230.33 214.52,-218.55"/>
<polygon fill="black" stroke="black" points="218.04,-218.43 213.34,-208.93 211.09,-219.29 218.04,-218.43"/>
</g>
<!-- account::create_guid&#45;&gt;signer::address_of -->
<g id="edge35" class="edge">
<title>account::create_guid&#45;&gt;signer::address_of</title>
<path fill="none" stroke="black" d="M186.92,-172.76C167.08,-160.21 138.71,-142.25 116.62,-128.28"/>
<polygon fill="black" stroke="black" points="118.57,-125.37 108.25,-122.98 114.83,-131.28 118.57,-125.37"/>
</g>
<!-- guid::create -->
<g id="node29" class="node">
<title>guid::create</title>
<ellipse fill="none" stroke="black" cx="211" cy="-106" rx="31.7" ry="18"/>
<text text-anchor="middle" x="211" y="-102.3" font-family="Times,serif" font-size="14.00">create</text>
</g>
<!-- account::create_guid&#45;&gt;guid::create -->
<g id="edge36" class="edge">
<title>account::create_guid&#45;&gt;guid::create</title>
<path fill="none" stroke="black" d="M211,-170.82C211,-160.69 211,-147.6 211,-135.92"/>
<polygon fill="black" stroke="black" points="214.5,-135.95 211,-125.95 207.5,-135.95 214.5,-135.95"/>
</g>
</g>
</svg>
