<?xml version="1.0" encoding="UTF-8" standalone="no"?>
<!DOCTYPE svg PUBLIC "-//W3C//DTD SVG 1.1//EN"
 "http://www.w3.org/Graphics/SVG/1.1/DTD/svg11.dtd">
<!-- Generated by graphviz version 7.0.4 (20221203.1631)
 -->
<!-- Title: G Pages: 1 -->
<svg width="400pt" height="207pt"
 viewBox="0.00 0.00 400.00 207.00" xmlns="http://www.w3.org/2000/svg" xmlns:xlink="http://www.w3.org/1999/xlink">
<g id="graph0" class="graph" transform="scale(1 1) rotate(0) translate(4 203)">
<title>G</title>
<polygon fill="white" stroke="none" points="-4,4 -4,-203 396,-203 396,4 -4,4"/>
<g id="clust1" class="cluster">
<title>cluster_error</title>
<polygon fill="none" stroke="black" points="8,-8 8,-155 118,-155 118,-8 8,-8"/>
<text text-anchor="middle" x="63" y="-139.8" font-family="Times,serif" font-size="14.00">error</text>
</g>
<g id="clust2" class="cluster">
<title>cluster_table</title>
<polygon fill="none" stroke="black" points="126,-8 126,-155 384,-155 384,-8 126,-8"/>
<text text-anchor="middle" x="255" y="-139.8" font-family="Times,serif" font-size="14.00">table</text>
</g>
<!-- get_tokendata_royalty -->
<g id="node1" class="node">
<title>get_tokendata_royalty</title>
<ellipse fill="none" stroke="black" cx="188" cy="-181" rx="89.08" ry="18"/>
<text text-anchor="middle" x="188" y="-177.3" font-family="Times,serif" font-size="14.00">get_tokendata_royalty</text>
</g>
<!-- error::not_found -->
<g id="node2" class="node">
<title>error::not_found</title>
<ellipse fill="none" stroke="black" cx="63" cy="-106" rx="46.59" ry="18"/>
<text text-anchor="middle" x="63" y="-102.3" font-family="Times,serif" font-size="14.00">not_found</text>
</g>
<!-- get_tokendata_royalty&#45;&gt;error::not_found -->
<g id="edge1" class="edge">
<title>get_tokendata_royalty&#45;&gt;error::not_found</title>
<path fill="none" stroke="black" d="M142.73,-165.07C135.61,-162.1 128.48,-158.73 122,-155 110.17,-148.19 98.28,-139.05 88.3,-130.58"/>
<polygon fill="black" stroke="black" points="90.7,-128.03 80.87,-124.07 86.08,-133.29 90.7,-128.03"/>
</g>
<!-- table::contains -->
<g id="node3" class="node">
<title>table::contains</title>
<ellipse fill="none" stroke="black" cx="300" cy="-106" rx="40.09" ry="18"/>
<text text-anchor="middle" x="300" y="-102.3" font-family="Times,serif" font-size="14.00">contains</text>
</g>
<!-- get_tokendata_royalty&#45;&gt;table::contains -->
<g id="edge2" class="edge">
<title>get_tokendata_royalty&#45;&gt;table::contains</title>
<path fill="none" stroke="black" d="M218.29,-163.8C223.26,-160.96 228.32,-157.96 233,-155 245.75,-146.93 259.37,-137.36 270.97,-128.9"/>
<polygon fill="black" stroke="black" points="272.99,-131.76 278.97,-123.01 268.84,-126.12 272.99,-131.76"/>
</g>
<!-- table::borrow -->
<g id="node4" class="node">
<title>table::borrow</title>
<ellipse fill="none" stroke="black" cx="188" cy="-106" rx="36.29" ry="18"/>
<text text-anchor="middle" x="188" y="-102.3" font-family="Times,serif" font-size="14.00">borrow</text>
</g>
<!-- get_tokendata_royalty&#45;&gt;table::borrow -->
<g id="edge3" class="edge">
<title>get_tokendata_royalty&#45;&gt;table::borrow</title>
<path fill="none" stroke="black" d="M188,-162.7C188,-154.67 188,-144.9 188,-135.8"/>
<polygon fill="black" stroke="black" points="191.5,-135.94 188,-125.94 184.5,-135.94 191.5,-135.94"/>
</g>
<!-- error::canonical -->
<g id="node5" class="node">
<title>error::canonical</title>
<ellipse fill="none" stroke="black" cx="63" cy="-34" rx="44.39" ry="18"/>
<text text-anchor="middle" x="63" y="-30.3" font-family="Times,serif" font-size="14.00">canonical</text>
</g>
<!-- error::not_found&#45;&gt;error::canonical -->
<g id="edge4" class="edge">
<title>error::not_found&#45;&gt;error::canonical</title>
<path fill="none" stroke="black" d="M63,-87.7C63,-80.41 63,-71.73 63,-63.54"/>
<polygon fill="black" stroke="black" points="66.5,-63.62 63,-53.62 59.5,-63.62 66.5,-63.62"/>
</g>
<!-- table::contains_box -->
<g id="node6" class="node">
<title>table::contains_box</title>
<ellipse fill="none" stroke="black" cx="318" cy="-34" rx="57.69" ry="18"/>
<text text-anchor="middle" x="318" y="-30.3" font-family="Times,serif" font-size="14.00">contains_box</text>
</g>
<!-- table::contains&#45;&gt;table::contains_box -->
<g id="edge5" class="edge">
<title>table::contains&#45;&gt;table::contains_box</title>
<path fill="none" stroke="black" d="M304.45,-87.7C306.35,-80.32 308.61,-71.52 310.74,-63.25"/>
<polygon fill="black" stroke="black" points="314.12,-64.13 313.22,-53.57 307.34,-62.38 314.12,-64.13"/>
</g>
<!-- table::borrow_box -->
<g id="node7" class="node">
<title>table::borrow_box</title>
<ellipse fill="none" stroke="black" cx="188" cy="-34" rx="53.89" ry="18"/>
<text text-anchor="middle" x="188" y="-30.3" font-family="Times,serif" font-size="14.00">borrow_box</text>
</g>
<!-- table::borrow&#45;&gt;table::borrow_box -->
<g id="edge6" class="edge">
<title>table::borrow&#45;&gt;table::borrow_box</title>
<path fill="none" stroke="black" d="M188,-87.7C188,-80.41 188,-71.73 188,-63.54"/>
<polygon fill="black" stroke="black" points="191.5,-63.62 188,-53.62 184.5,-63.62 191.5,-63.62"/>
</g>
</g>
</svg>
