<?xml version="1.0" encoding="UTF-8" standalone="no"?>
<!DOCTYPE svg PUBLIC "-//W3C//DTD SVG 1.1//EN"
 "http://www.w3.org/Graphics/SVG/1.1/DTD/svg11.dtd">
<!-- Generated by graphviz version 7.0.4 (20221203.1631)
 -->
<!-- Title: G Pages: 1 -->
<svg width="400pt" height="282pt"
 viewBox="0.00 0.00 400.00 282.00" xmlns="http://www.w3.org/2000/svg" xmlns:xlink="http://www.w3.org/1999/xlink">
<g id="graph0" class="graph" transform="scale(1 1) rotate(0) translate(4 278)">
<title>G</title>
<polygon fill="white" stroke="none" points="-4,4 -4,-278 396,-278 396,4 -4,4"/>
<g id="clust1" class="cluster">
<title>cluster_error</title>
<polygon fill="none" stroke="black" points="8,-80 8,-230 118,-230 118,-80 8,-80"/>
<text text-anchor="middle" x="63" y="-214.8" font-family="Times,serif" font-size="14.00">error</text>
</g>
<g id="clust2" class="cluster">
<title>cluster_table</title>
<polygon fill="none" stroke="black" points="126,-8 126,-155 384,-155 384,-8 126,-8"/>
<text text-anchor="middle" x="255" y="-139.8" font-family="Times,serif" font-size="14.00">table</text>
</g>
<!-- get_property_map -->
<g id="node1" class="node">
<title>get_property_map</title>
<ellipse fill="none" stroke="black" cx="189" cy="-256" rx="75.29" ry="18"/>
<text text-anchor="middle" x="189" y="-252.3" font-family="Times,serif" font-size="14.00">get_property_map</text>
</g>
<!-- error::not_found -->
<g id="node2" class="node">
<title>error::not_found</title>
<ellipse fill="none" stroke="black" cx="63" cy="-181" rx="46.59" ry="18"/>
<text text-anchor="middle" x="63" y="-177.3" font-family="Times,serif" font-size="14.00">not_found</text>
</g>
<!-- get_property_map&#45;&gt;error::not_found -->
<g id="edge1" class="edge">
<title>get_property_map&#45;&gt;error::not_found</title>
<path fill="none" stroke="black" d="M155.11,-239.48C149.01,-236.47 142.76,-233.24 137,-230 122.64,-221.93 107.28,-212.17 94.3,-203.56"/>
<polygon fill="black" stroke="black" points="96.4,-200.76 86.14,-198.09 92.5,-206.57 96.4,-200.76"/>
</g>
<!-- table::contains -->
<g id="node3" class="node">
<title>table::contains</title>
<ellipse fill="none" stroke="black" cx="305" cy="-106" rx="40.09" ry="18"/>
<text text-anchor="middle" x="305" y="-102.3" font-family="Times,serif" font-size="14.00">contains</text>
</g>
<!-- get_property_map&#45;&gt;table::contains -->
<g id="edge2" class="edge">
<title>get_property_map&#45;&gt;table::contains</title>
<path fill="none" stroke="black" d="M257.25,-248.19C268.12,-244.29 278.3,-238.51 286,-230 309.12,-204.47 310.81,-163.04 308.8,-135.41"/>
<polygon fill="black" stroke="black" points="312.3,-135.28 307.87,-125.66 305.34,-135.95 312.3,-135.28"/>
</g>
<!-- table::borrow -->
<g id="node4" class="node">
<title>table::borrow</title>
<ellipse fill="none" stroke="black" cx="188" cy="-106" rx="36.29" ry="18"/>
<text text-anchor="middle" x="188" y="-102.3" font-family="Times,serif" font-size="14.00">borrow</text>
</g>
<!-- get_property_map&#45;&gt;table::borrow -->
<g id="edge3" class="edge">
<title>get_property_map&#45;&gt;table::borrow</title>
<path fill="none" stroke="black" d="M173.93,-238.08C172.33,-235.51 170.94,-232.79 170,-230 159.31,-198.25 168.2,-159.78 176.86,-134.42"/>
<polygon fill="black" stroke="black" points="180.09,-135.77 180.23,-125.17 173.51,-133.37 180.09,-135.77"/>
</g>
<!-- balance_of -->
<g id="node5" class="node">
<title>balance_of</title>
<ellipse fill="none" stroke="black" cx="228" cy="-181" rx="49.29" ry="18"/>
<text text-anchor="middle" x="228" y="-177.3" font-family="Times,serif" font-size="14.00">balance_of</text>
</g>
<!-- get_property_map&#45;&gt;balance_of -->
<g id="edge4" class="edge">
<title>get_property_map&#45;&gt;balance_of</title>
<path fill="none" stroke="black" d="M198.24,-237.7C202.81,-229.15 208.42,-218.65 213.54,-209.07"/>
<polygon fill="black" stroke="black" points="216.49,-210.98 218.11,-200.51 210.31,-207.68 216.49,-210.98"/>
</g>
<!-- error::canonical -->
<g id="node6" class="node">
<title>error::canonical</title>
<ellipse fill="none" stroke="black" cx="63" cy="-106" rx="44.39" ry="18"/>
<text text-anchor="middle" x="63" y="-102.3" font-family="Times,serif" font-size="14.00">canonical</text>
</g>
<!-- error::not_found&#45;&gt;error::canonical -->
<g id="edge5" class="edge">
<title>error::not_found&#45;&gt;error::canonical</title>
<path fill="none" stroke="black" d="M63,-162.7C63,-154.67 63,-144.9 63,-135.8"/>
<polygon fill="black" stroke="black" points="66.5,-135.94 63,-125.94 59.5,-135.94 66.5,-135.94"/>
</g>
<!-- table::contains_box -->
<g id="node7" class="node">
<title>table::contains_box</title>
<ellipse fill="none" stroke="black" cx="318" cy="-34" rx="57.69" ry="18"/>
<text text-anchor="middle" x="318" y="-30.3" font-family="Times,serif" font-size="14.00">contains_box</text>
</g>
<!-- table::contains&#45;&gt;table::contains_box -->
<g id="edge6" class="edge">
<title>table::contains&#45;&gt;table::contains_box</title>
<path fill="none" stroke="black" d="M308.21,-87.7C309.58,-80.32 311.22,-71.52 312.75,-63.25"/>
<polygon fill="black" stroke="black" points="316.16,-64.06 314.55,-53.59 309.28,-62.79 316.16,-64.06"/>
</g>
<!-- table::borrow_box -->
<g id="node8" class="node">
<title>table::borrow_box</title>
<ellipse fill="none" stroke="black" cx="188" cy="-34" rx="53.89" ry="18"/>
<text text-anchor="middle" x="188" y="-30.3" font-family="Times,serif" font-size="14.00">borrow_box</text>
</g>
<!-- table::borrow&#45;&gt;table::borrow_box -->
<g id="edge7" class="edge">
<title>table::borrow&#45;&gt;table::borrow_box</title>
<path fill="none" stroke="black" d="M188,-87.7C188,-80.41 188,-71.73 188,-63.54"/>
<polygon fill="black" stroke="black" points="191.5,-63.62 188,-53.62 184.5,-63.62 191.5,-63.62"/>
</g>
<!-- balance_of&#45;&gt;table::contains -->
<g id="edge8" class="edge">
<title>balance_of&#45;&gt;table::contains</title>
<path fill="none" stroke="black" d="M245.09,-163.8C255.4,-154.02 268.71,-141.4 280.17,-130.54"/>
<polygon fill="black" stroke="black" points="282.54,-133.12 287.39,-123.7 277.72,-128.04 282.54,-133.12"/>
</g>
<!-- balance_of&#45;&gt;table::borrow -->
<g id="edge9" class="edge">
<title>balance_of&#45;&gt;table::borrow</title>
<path fill="none" stroke="black" d="M218.72,-163.07C213.98,-154.41 208.09,-143.66 202.74,-133.9"/>
<polygon fill="black" stroke="black" points="205.83,-132.25 197.95,-125.17 199.69,-135.62 205.83,-132.25"/>
</g>
</g>
</svg>
