<?xml version="1.0" encoding="UTF-8" standalone="no"?>
<!DOCTYPE svg PUBLIC "-//W3C//DTD SVG 1.1//EN"
 "http://www.w3.org/Graphics/SVG/1.1/DTD/svg11.dtd">
<!-- Generated by graphviz version 7.0.4 (20221203.1631)
 -->
<!-- Title: G Pages: 1 -->
<svg width="415pt" height="188pt"
 viewBox="0.00 0.00 414.64 188.00" xmlns="http://www.w3.org/2000/svg" xmlns:xlink="http://www.w3.org/1999/xlink">
<g id="graph0" class="graph" transform="scale(1 1) rotate(0) translate(4 184)">
<title>G</title>
<polygon fill="white" stroke="none" points="-4,4 -4,-184 410.64,-184 410.64,4 -4,4"/>
<!-- create_token_offer_id -->
<g id="node1" class="node">
<title>create_token_offer_id</title>
<ellipse fill="none" stroke="black" cx="229.64" cy="-18" rx="88.28" ry="18"/>
<text text-anchor="middle" x="229.64" y="-14.3" font-family="Times,serif" font-size="14.00">create_token_offer_id</text>
</g>
<!-- cancel_offer -->
<g id="node2" class="node">
<title>cancel_offer</title>
<ellipse fill="none" stroke="black" cx="102.64" cy="-90" rx="54.69" ry="18"/>
<text text-anchor="middle" x="102.64" y="-86.3" font-family="Times,serif" font-size="14.00">cancel_offer</text>
</g>
<!-- cancel_offer&#45;&gt;create_token_offer_id -->
<g id="edge1" class="edge">
<title>cancel_offer&#45;&gt;create_token_offer_id</title>
<path fill="none" stroke="black" d="M129.89,-73.98C147.51,-64.27 170.75,-51.46 190.35,-40.65"/>
<polygon fill="black" stroke="black" points="191.84,-43.83 198.9,-35.94 188.46,-37.7 191.84,-43.83"/>
</g>
<!-- claim -->
<g id="node3" class="node">
<title>claim</title>
<ellipse fill="none" stroke="black" cx="229.64" cy="-90" rx="30.59" ry="18"/>
<text text-anchor="middle" x="229.64" y="-86.3" font-family="Times,serif" font-size="14.00">claim</text>
</g>
<!-- claim&#45;&gt;create_token_offer_id -->
<g id="edge2" class="edge">
<title>claim&#45;&gt;create_token_offer_id</title>
<path fill="none" stroke="black" d="M229.64,-71.7C229.64,-64.41 229.64,-55.73 229.64,-47.54"/>
<polygon fill="black" stroke="black" points="233.14,-47.62 229.64,-37.62 226.14,-47.62 233.14,-47.62"/>
</g>
<!-- offer -->
<g id="node4" class="node">
<title>offer</title>
<ellipse fill="none" stroke="black" cx="329.64" cy="-90" rx="27.9" ry="18"/>
<text text-anchor="middle" x="329.64" y="-86.3" font-family="Times,serif" font-size="14.00">offer</text>
</g>
<!-- offer&#45;&gt;create_token_offer_id -->
<g id="edge3" class="edge">
<title>offer&#45;&gt;create_token_offer_id</title>
<path fill="none" stroke="black" d="M311.3,-76.16C297.73,-66.66 278.86,-53.45 262.69,-42.13"/>
<polygon fill="black" stroke="black" points="264.97,-39.46 254.77,-36.59 260.96,-45.19 264.97,-39.46"/>
</g>
<!-- cancel_offer_script -->
<g id="node5" class="node">
<title>cancel_offer_script</title>
<ellipse fill="none" stroke="black" cx="78.64" cy="-162" rx="78.79" ry="18"/>
<text text-anchor="middle" x="78.64" y="-158.3" font-family="Times,serif" font-size="14.00">cancel_offer_script</text>
</g>
<!-- cancel_offer_script&#45;&gt;cancel_offer -->
<g id="edge4" class="edge">
<title>cancel_offer_script&#45;&gt;cancel_offer</title>
<path fill="none" stroke="black" d="M84.58,-143.7C87.13,-136.24 90.19,-127.32 93.05,-118.97"/>
<polygon fill="black" stroke="black" points="96.36,-120.13 96.29,-109.54 89.73,-117.86 96.36,-120.13"/>
</g>
<!-- claim_script -->
<g id="node6" class="node">
<title>claim_script</title>
<ellipse fill="none" stroke="black" cx="229.64" cy="-162" rx="54.69" ry="18"/>
<text text-anchor="middle" x="229.64" y="-158.3" font-family="Times,serif" font-size="14.00">claim_script</text>
</g>
<!-- claim_script&#45;&gt;claim -->
<g id="edge5" class="edge">
<title>claim_script&#45;&gt;claim</title>
<path fill="none" stroke="black" d="M229.64,-143.7C229.64,-136.41 229.64,-127.73 229.64,-119.54"/>
<polygon fill="black" stroke="black" points="233.14,-119.62 229.64,-109.62 226.14,-119.62 233.14,-119.62"/>
</g>
<!-- offer_script -->
<g id="node7" class="node">
<title>offer_script</title>
<ellipse fill="none" stroke="black" cx="354.64" cy="-162" rx="51.99" ry="18"/>
<text text-anchor="middle" x="354.64" y="-158.3" font-family="Times,serif" font-size="14.00">offer_script</text>
</g>
<!-- offer_script&#45;&gt;offer -->
<g id="edge6" class="edge">
<title>offer_script&#45;&gt;offer</title>
<path fill="none" stroke="black" d="M348.46,-143.7C345.73,-136.04 342.45,-126.85 339.39,-118.3"/>
<polygon fill="black" stroke="black" points="342.75,-117.29 336.09,-109.05 336.16,-119.64 342.75,-117.29"/>
</g>
</g>
</svg>
