<?xml version="1.0" encoding="UTF-8" standalone="no"?>
<!DOCTYPE svg PUBLIC "-//W3C//DTD SVG 1.1//EN"
 "http://www.w3.org/Graphics/SVG/1.1/DTD/svg11.dtd">
<!-- Generated by graphviz version 7.0.4 (20221203.1631)
 -->
<!-- Title: G Pages: 1 -->
<svg width="225pt" height="207pt"
 viewBox="0.00 0.00 225.08 207.00" xmlns="http://www.w3.org/2000/svg" xmlns:xlink="http://www.w3.org/1999/xlink">
<g id="graph0" class="graph" transform="scale(1 1) rotate(0) translate(4 203)">
<title>G</title>
<polygon fill="white" stroke="none" points="-4,4 -4,-203 221.08,-203 221.08,4 -4,4"/>
<g id="clust1" class="cluster">
<title>cluster_signer</title>
<polygon fill="none" stroke="black" points="33.54,-8 33.54,-155 183.54,-155 183.54,-8 33.54,-8"/>
<text text-anchor="middle" x="108.54" y="-139.8" font-family="Times,serif" font-size="14.00">signer</text>
</g>
<!-- create_withdraw_capability -->
<g id="node1" class="node">
<title>create_withdraw_capability</title>
<ellipse fill="none" stroke="black" cx="108.54" cy="-181" rx="108.58" ry="18"/>
<text text-anchor="middle" x="108.54" y="-177.3" font-family="Times,serif" font-size="14.00">create_withdraw_capability</text>
</g>
<!-- signer::address_of -->
<g id="node2" class="node">
<title>signer::address_of</title>
<ellipse fill="none" stroke="black" cx="108.54" cy="-106" rx="48.99" ry="18"/>
<text text-anchor="middle" x="108.54" y="-102.3" font-family="Times,serif" font-size="14.00">address_of</text>
</g>
<!-- create_withdraw_capability&#45;&gt;signer::address_of -->
<g id="edge1" class="edge">
<title>create_withdraw_capability&#45;&gt;signer::address_of</title>
<path fill="none" stroke="black" d="M108.54,-162.7C108.54,-154.67 108.54,-144.9 108.54,-135.8"/>
<polygon fill="black" stroke="black" points="112.04,-135.94 108.54,-125.94 105.04,-135.94 112.04,-135.94"/>
</g>
<!-- signer::borrow_address -->
<g id="node3" class="node">
<title>signer::borrow_address</title>
<ellipse fill="none" stroke="black" cx="108.54" cy="-34" rx="66.89" ry="18"/>
<text text-anchor="middle" x="108.54" y="-30.3" font-family="Times,serif" font-size="14.00">borrow_address</text>
</g>
<!-- signer::address_of&#45;&gt;signer::borrow_address -->
<g id="edge2" class="edge">
<title>signer::address_of&#45;&gt;signer::borrow_address</title>
<path fill="none" stroke="black" d="M108.54,-87.7C108.54,-80.41 108.54,-71.73 108.54,-63.54"/>
<polygon fill="black" stroke="black" points="112.04,-63.62 108.54,-53.62 105.04,-63.62 112.04,-63.62"/>
</g>
</g>
</svg>
