<?xml version="1.0" encoding="UTF-8" standalone="no"?>
<!DOCTYPE svg PUBLIC "-//W3C//DTD SVG 1.1//EN"
 "http://www.w3.org/Graphics/SVG/1.1/DTD/svg11.dtd">
<!-- Generated by graphviz version 7.0.4 (20221203.1631)
 -->
<!-- Title: G Pages: 1 -->
<svg width="546pt" height="365pt"
 viewBox="0.00 0.00 546.00 365.00" xmlns="http://www.w3.org/2000/svg" xmlns:xlink="http://www.w3.org/1999/xlink">
<g id="graph0" class="graph" transform="scale(1 1) rotate(0) translate(4 361)">
<title>G</title>
<polygon fill="white" stroke="none" points="-4,4 -4,-361 542,-361 542,4 -4,4"/>
<g id="clust1" class="cluster">
<title>cluster_table</title>
<polygon fill="none" stroke="black" points="8,-163 8,-313 174,-313 174,-163 8,-163"/>
<text text-anchor="middle" x="91" y="-297.8" font-family="Times,serif" font-size="14.00">table</text>
</g>
<g id="clust2" class="cluster">
<title>cluster_account</title>
<polygon fill="none" stroke="black" points="182,-163 182,-313 352,-313 352,-163 182,-163"/>
<text text-anchor="middle" x="267" y="-297.8" font-family="Times,serif" font-size="14.00">account</text>
</g>
<g id="clust3" class="cluster">
<title>cluster_event</title>
<polygon fill="none" stroke="black" points="360,-163 360,-238 530,-238 530,-163 360,-163"/>
<text text-anchor="middle" x="445" y="-222.8" font-family="Times,serif" font-size="14.00">event</text>
</g>
<g id="clust4" class="cluster">
<title>cluster_signer</title>
<polygon fill="none" stroke="black" points="126,-8 126,-155 276,-155 276,-8 126,-8"/>
<text text-anchor="middle" x="201" y="-139.8" font-family="Times,serif" font-size="14.00">signer</text>
</g>
<g id="clust5" class="cluster">
<title>cluster_guid</title>
<polygon fill="none" stroke="black" points="284,-80 284,-155 364,-155 364,-80 284,-80"/>
<text text-anchor="middle" x="324" y="-139.8" font-family="Times,serif" font-size="14.00">guid</text>
</g>
<!-- initialize_token_transfers -->
<g id="node1" class="node">
<title>initialize_token_transfers</title>
<ellipse fill="none" stroke="black" cx="203" cy="-339" rx="100.18" ry="18"/>
<text text-anchor="middle" x="203" y="-335.3" font-family="Times,serif" font-size="14.00">initialize_token_transfers</text>
</g>
<!-- table::new -->
<g id="node2" class="node">
<title>table::new</title>
<ellipse fill="none" stroke="black" cx="115" cy="-264" rx="27" ry="18"/>
<text text-anchor="middle" x="115" y="-260.3" font-family="Times,serif" font-size="14.00">new</text>
</g>
<!-- initialize_token_transfers&#45;&gt;table::new -->
<g id="edge1" class="edge">
<title>initialize_token_transfers&#45;&gt;table::new</title>
<path fill="none" stroke="black" d="M182.59,-321.07C169.97,-310.6 153.66,-297.07 140.23,-285.93"/>
<polygon fill="black" stroke="black" points="142.57,-283.32 132.64,-279.63 138.1,-288.71 142.57,-283.32"/>
</g>
<!-- account::new_event_handle -->
<g id="node3" class="node">
<title>account::new_event_handle</title>
<ellipse fill="none" stroke="black" cx="267" cy="-264" rx="76.89" ry="18"/>
<text text-anchor="middle" x="267" y="-260.3" font-family="Times,serif" font-size="14.00">new_event_handle</text>
</g>
<!-- initialize_token_transfers&#45;&gt;account::new_event_handle -->
<g id="edge2" class="edge">
<title>initialize_token_transfers&#45;&gt;account::new_event_handle</title>
<path fill="none" stroke="black" d="M217.84,-321.07C225.78,-312.01 235.72,-300.67 244.58,-290.57"/>
<polygon fill="black" stroke="black" points="247.06,-293.06 251.02,-283.23 241.79,-288.44 247.06,-293.06"/>
</g>
<!-- table::new_table_handle -->
<g id="node4" class="node">
<title>table::new_table_handle</title>
<ellipse fill="none" stroke="black" cx="91" cy="-189" rx="74.99" ry="18"/>
<text text-anchor="middle" x="91" y="-185.3" font-family="Times,serif" font-size="14.00">new_table_handle</text>
</g>
<!-- table::new&#45;&gt;table::new_table_handle -->
<g id="edge3" class="edge">
<title>table::new&#45;&gt;table::new_table_handle</title>
<path fill="none" stroke="black" d="M109.43,-246.07C106.72,-237.8 103.37,-227.64 100.29,-218.24"/>
<polygon fill="black" stroke="black" points="103.62,-217.19 97.18,-208.78 96.97,-219.38 103.62,-217.19"/>
</g>
<!-- event::new_event_handle -->
<g id="node5" class="node">
<title>event::new_event_handle</title>
<ellipse fill="none" stroke="black" cx="445" cy="-189" rx="76.89" ry="18"/>
<text text-anchor="middle" x="445" y="-185.3" font-family="Times,serif" font-size="14.00">new_event_handle</text>
</g>
<!-- account::new_event_handle&#45;&gt;event::new_event_handle -->
<g id="edge4" class="edge">
<title>account::new_event_handle&#45;&gt;event::new_event_handle</title>
<path fill="none" stroke="black" d="M318.95,-250.49C331.27,-246.95 344.25,-242.75 356,-238 373.89,-230.77 392.83,-220.9 408.61,-211.98"/>
<polygon fill="black" stroke="black" points="410.25,-215.08 417.17,-207.06 406.76,-209.01 410.25,-215.08"/>
</g>
<!-- account::create_guid -->
<g id="node6" class="node">
<title>account::create_guid</title>
<ellipse fill="none" stroke="black" cx="267" cy="-189" rx="51.99" ry="18"/>
<text text-anchor="middle" x="267" y="-185.3" font-family="Times,serif" font-size="14.00">create_guid</text>
</g>
<!-- account::new_event_handle&#45;&gt;account::create_guid -->
<g id="edge5" class="edge">
<title>account::new_event_handle&#45;&gt;account::create_guid</title>
<path fill="none" stroke="black" d="M267,-245.7C267,-237.67 267,-227.9 267,-218.8"/>
<polygon fill="black" stroke="black" points="270.5,-218.94 267,-208.94 263.5,-218.94 270.5,-218.94"/>
</g>
<!-- signer::address_of -->
<g id="node7" class="node">
<title>signer::address_of</title>
<ellipse fill="none" stroke="black" cx="210" cy="-106" rx="48.99" ry="18"/>
<text text-anchor="middle" x="210" y="-102.3" font-family="Times,serif" font-size="14.00">address_of</text>
</g>
<!-- account::create_guid&#45;&gt;signer::address_of -->
<g id="edge6" class="edge">
<title>account::create_guid&#45;&gt;signer::address_of</title>
<path fill="none" stroke="black" d="M255.19,-171.22C247.39,-160.14 237.03,-145.41 228.19,-132.85"/>
<polygon fill="black" stroke="black" points="231.28,-131.16 222.67,-125 225.56,-135.19 231.28,-131.16"/>
</g>
<!-- guid::create -->
<g id="node8" class="node">
<title>guid::create</title>
<ellipse fill="none" stroke="black" cx="324" cy="-106" rx="31.7" ry="18"/>
<text text-anchor="middle" x="324" y="-102.3" font-family="Times,serif" font-size="14.00">create</text>
</g>
<!-- account::create_guid&#45;&gt;guid::create -->
<g id="edge7" class="edge">
<title>account::create_guid&#45;&gt;guid::create</title>
<path fill="none" stroke="black" d="M278.81,-171.22C286.71,-159.99 297.25,-145.01 306.16,-132.34"/>
<polygon fill="black" stroke="black" points="308.83,-134.64 311.72,-124.45 303.11,-130.61 308.83,-134.64"/>
</g>
<!-- signer::borrow_address -->
<g id="node9" class="node">
<title>signer::borrow_address</title>
<ellipse fill="none" stroke="black" cx="201" cy="-34" rx="66.89" ry="18"/>
<text text-anchor="middle" x="201" y="-30.3" font-family="Times,serif" font-size="14.00">borrow_address</text>
</g>
<!-- signer::address_of&#45;&gt;signer::borrow_address -->
<g id="edge8" class="edge">
<title>signer::address_of&#45;&gt;signer::borrow_address</title>
<path fill="none" stroke="black" d="M207.78,-87.7C206.83,-80.32 205.7,-71.52 204.63,-63.25"/>
<polygon fill="black" stroke="black" points="208.14,-63.08 203.39,-53.61 201.2,-63.97 208.14,-63.08"/>
</g>
</g>
</svg>
