<?xml version="1.0" encoding="UTF-8" standalone="no"?>
<!DOCTYPE svg PUBLIC "-//W3C//DTD SVG 1.1//EN"
 "http://www.w3.org/Graphics/SVG/1.1/DTD/svg11.dtd">
<!-- Generated by graphviz version 7.0.4 (20221203.1631)
 -->
<!-- Title: G Pages: 1 -->
<svg width="1251pt" height="155pt"
 viewBox="0.00 0.00 1251.00 155.00" xmlns="http://www.w3.org/2000/svg" xmlns:xlink="http://www.w3.org/1999/xlink">
<g id="graph0" class="graph" transform="scale(1 1) rotate(0) translate(4 151)">
<title>G</title>
<polygon fill="white" stroke="none" points="-4,4 -4,-151 1247,-151 1247,4 -4,4"/>
<g id="clust1" class="cluster">
<title>cluster_token_transfers</title>
<polygon fill="none" stroke="black" points="812,-64 812,-139 1235,-139 1235,-64 812,-64"/>
<text text-anchor="middle" x="1023.5" y="-123.8" font-family="Times,serif" font-size="14.00">token_transfers</text>
</g>
<!-- create_token_id_raw -->
<g id="node1" class="node">
<title>create_token_id_raw</title>
<ellipse fill="none" stroke="black" cx="617" cy="-18" rx="84.49" ry="18"/>
<text text-anchor="middle" x="617" y="-14.3" font-family="Times,serif" font-size="14.00">create_token_id_raw</text>
</g>
<!-- burn -->
<g id="node2" class="node">
<title>burn</title>
<ellipse fill="none" stroke="black" cx="27" cy="-90" rx="27" ry="18"/>
<text text-anchor="middle" x="27" y="-86.3" font-family="Times,serif" font-size="14.00">burn</text>
</g>
<!-- burn&#45;&gt;create_token_id_raw -->
<g id="edge1" class="edge">
<title>burn&#45;&gt;create_token_id_raw</title>
<path fill="none" stroke="black" d="M43.19,-75.06C49.06,-70.77 55.98,-66.52 63,-64 144.9,-34.66 386.25,-24.33 521.82,-20.78"/>
<polygon fill="black" stroke="black" points="521.58,-24.29 531.48,-20.54 521.4,-17.29 521.58,-24.29"/>
</g>
<!-- burn_by_creator -->
<g id="node3" class="node">
<title>burn_by_creator</title>
<ellipse fill="none" stroke="black" cx="141" cy="-90" rx="68.79" ry="18"/>
<text text-anchor="middle" x="141" y="-86.3" font-family="Times,serif" font-size="14.00">burn_by_creator</text>
</g>
<!-- burn_by_creator&#45;&gt;create_token_id_raw -->
<g id="edge2" class="edge">
<title>burn_by_creator&#45;&gt;create_token_id_raw</title>
<path fill="none" stroke="black" d="M179.87,-74.88C192.24,-70.83 206.07,-66.77 219,-64 322.41,-41.81 443.43,-30.1 524.63,-24.26"/>
<polygon fill="black" stroke="black" points="524.58,-27.77 534.31,-23.57 524.09,-20.78 524.58,-27.77"/>
</g>
<!-- direct_transfer_script -->
<g id="node4" class="node">
<title>direct_transfer_script</title>
<ellipse fill="none" stroke="black" cx="314" cy="-90" rx="85.59" ry="18"/>
<text text-anchor="middle" x="314" y="-86.3" font-family="Times,serif" font-size="14.00">direct_transfer_script</text>
</g>
<!-- direct_transfer_script&#45;&gt;create_token_id_raw -->
<g id="edge3" class="edge">
<title>direct_transfer_script&#45;&gt;create_token_id_raw</title>
<path fill="none" stroke="black" d="M364.68,-75.22C378.98,-71.45 394.57,-67.46 409,-64 454.65,-53.06 506.22,-41.9 546.59,-33.42"/>
<polygon fill="black" stroke="black" points="547.11,-36.89 556.19,-31.42 545.68,-30.04 547.11,-36.89"/>
</g>
<!-- mutate_token_properties -->
<g id="node5" class="node">
<title>mutate_token_properties</title>
<ellipse fill="none" stroke="black" cx="517" cy="-90" rx="98.58" ry="18"/>
<text text-anchor="middle" x="517" y="-86.3" font-family="Times,serif" font-size="14.00">mutate_token_properties</text>
</g>
<!-- mutate_token_properties&#45;&gt;create_token_id_raw -->
<g id="edge4" class="edge">
<title>mutate_token_properties&#45;&gt;create_token_id_raw</title>
<path fill="none" stroke="black" d="M540.95,-72.23C553.82,-63.23 569.87,-51.99 583.91,-42.16"/>
<polygon fill="black" stroke="black" points="585.82,-45.1 592,-36.5 581.8,-39.37 585.82,-45.1"/>
</g>
<!-- transfer_with_opt_in -->
<g id="node6" class="node">
<title>transfer_with_opt_in</title>
<ellipse fill="none" stroke="black" cx="718" cy="-90" rx="84.49" ry="18"/>
<text text-anchor="middle" x="718" y="-86.3" font-family="Times,serif" font-size="14.00">transfer_with_opt_in</text>
</g>
<!-- transfer_with_opt_in&#45;&gt;create_token_id_raw -->
<g id="edge5" class="edge">
<title>transfer_with_opt_in&#45;&gt;create_token_id_raw</title>
<path fill="none" stroke="black" d="M694.06,-72.41C680.95,-63.32 664.5,-51.92 650.17,-41.99"/>
<polygon fill="black" stroke="black" points="652.57,-39.39 642.36,-36.57 648.58,-45.15 652.57,-39.39"/>
</g>
<!-- token_transfers::cancel_offer_script -->
<g id="node7" class="node">
<title>token_transfers::cancel_offer_script</title>
<ellipse fill="none" stroke="black" cx="1148" cy="-90" rx="78.79" ry="18"/>
<text text-anchor="middle" x="1148" y="-86.3" font-family="Times,serif" font-size="14.00">cancel_offer_script</text>
</g>
<!-- token_transfers::cancel_offer_script&#45;&gt;create_token_id_raw -->
<g id="edge6" class="edge">
<title>token_transfers::cancel_offer_script&#45;&gt;create_token_id_raw</title>
<path fill="none" stroke="black" d="M1104.11,-74.73C1090.43,-70.73 1075.2,-66.74 1061,-64 940.98,-40.87 800.28,-29.16 709.96,-23.58"/>
<polygon fill="black" stroke="black" points="710.36,-20.09 700.16,-22.98 709.94,-27.08 710.36,-20.09"/>
</g>
<!-- token_transfers::claim_script -->
<g id="node8" class="node">
<title>token_transfers::claim_script</title>
<ellipse fill="none" stroke="black" cx="997" cy="-90" rx="54.69" ry="18"/>
<text text-anchor="middle" x="997" y="-86.3" font-family="Times,serif" font-size="14.00">claim_script</text>
</g>
<!-- token_transfers::claim_script&#45;&gt;create_token_id_raw -->
<g id="edge7" class="edge">
<title>token_transfers::claim_script&#45;&gt;create_token_id_raw</title>
<path fill="none" stroke="black" d="M965.25,-74.93C955.11,-70.89 943.73,-66.82 933,-64 857.92,-44.27 770.38,-32.66 706.51,-26.19"/>
<polygon fill="black" stroke="black" points="707.07,-22.73 696.77,-25.23 706.38,-29.69 707.07,-22.73"/>
</g>
<!-- token_transfers::offer_script -->
<g id="node9" class="node">
<title>token_transfers::offer_script</title>
<ellipse fill="none" stroke="black" cx="872" cy="-90" rx="51.99" ry="18"/>
<text text-anchor="middle" x="872" y="-86.3" font-family="Times,serif" font-size="14.00">offer_script</text>
</g>
<!-- token_transfers::offer_script&#45;&gt;create_token_id_raw -->
<g id="edge8" class="edge">
<title>token_transfers::offer_script&#45;&gt;create_token_id_raw</title>
<path fill="none" stroke="black" d="M841.01,-75.17C831.5,-71.23 820.92,-67.16 811,-64 771.44,-51.4 726.31,-40.72 689.54,-32.93"/>
<polygon fill="black" stroke="black" points="690.4,-29.53 679.89,-30.91 688.97,-36.38 690.4,-29.53"/>
</g>
</g>
</svg>
