<?xml version="1.0" encoding="UTF-8" standalone="no"?>
<!DOCTYPE svg PUBLIC "-//W3C//DTD SVG 1.1//EN"
 "http://www.w3.org/Graphics/SVG/1.1/DTD/svg11.dtd">
<!-- Generated by graphviz version 7.0.4 (20221203.1631)
 -->
<!-- Title: G Pages: 1 -->
<svg width="998pt" height="282pt"
 viewBox="0.00 0.00 998.00 282.00" xmlns="http://www.w3.org/2000/svg" xmlns:xlink="http://www.w3.org/1999/xlink">
<g id="graph0" class="graph" transform="scale(1 1) rotate(0) translate(4 278)">
<title>G</title>
<polygon fill="white" stroke="none" points="-4,4 -4,-278 994,-278 994,4 -4,4"/>
<g id="clust1" class="cluster">
<title>cluster_error</title>
<polygon fill="none" stroke="black" points="708,-8 708,-155 982,-155 982,-8 708,-8"/>
<text text-anchor="middle" x="845" y="-139.8" font-family="Times,serif" font-size="14.00">error</text>
</g>
<g id="clust2" class="cluster">
<title>cluster_table</title>
<polygon fill="none" stroke="black" points="8,-80 8,-230 402,-230 402,-80 8,-80"/>
<text text-anchor="middle" x="205" y="-214.8" font-family="Times,serif" font-size="14.00">table</text>
</g>
<g id="clust3" class="cluster">
<title>cluster_event</title>
<polygon fill="none" stroke="black" points="410,-80 410,-230 596,-230 596,-80 410,-80"/>
<text text-anchor="middle" x="503" y="-214.8" font-family="Times,serif" font-size="14.00">event</text>
</g>
<g id="clust4" class="cluster">
<title>cluster_bcs</title>
<polygon fill="none" stroke="black" points="604,-80 604,-155 700,-155 700,-80 604,-80"/>
<text text-anchor="middle" x="652" y="-139.8" font-family="Times,serif" font-size="14.00">bcs</text>
</g>
<!-- direct_deposit -->
<g id="node1" class="node">
<title>direct_deposit</title>
<ellipse fill="none" stroke="black" cx="520" cy="-256" rx="60.39" ry="18"/>
<text text-anchor="middle" x="520" y="-252.3" font-family="Times,serif" font-size="14.00">direct_deposit</text>
</g>
<!-- error::invalid_argument -->
<g id="node2" class="node">
<title>error::invalid_argument</title>
<ellipse fill="none" stroke="black" cx="901" cy="-106" rx="73.39" ry="18"/>
<text text-anchor="middle" x="901" y="-102.3" font-family="Times,serif" font-size="14.00">invalid_argument</text>
</g>
<!-- direct_deposit&#45;&gt;error::invalid_argument -->
<g id="edge1" class="edge">
<title>direct_deposit&#45;&gt;error::invalid_argument</title>
<path fill="none" stroke="black" d="M580.12,-253.34C665.84,-250.52 815.19,-243.68 836,-230 868.81,-208.42 886.16,-164.63 894.46,-135.55"/>
<polygon fill="black" stroke="black" points="897.83,-136.49 897,-125.93 891.06,-134.71 897.83,-136.49"/>
</g>
<!-- error::not_found -->
<g id="node3" class="node">
<title>error::not_found</title>
<ellipse fill="none" stroke="black" cx="763" cy="-106" rx="46.59" ry="18"/>
<text text-anchor="middle" x="763" y="-102.3" font-family="Times,serif" font-size="14.00">not_found</text>
</g>
<!-- direct_deposit&#45;&gt;error::not_found -->
<g id="edge2" class="edge">
<title>direct_deposit&#45;&gt;error::not_found</title>
<path fill="none" stroke="black" d="M565.01,-243.71C576.7,-240.04 589.07,-235.47 600,-230 653.67,-203.15 707.64,-158.02 738.04,-130.53"/>
<polygon fill="black" stroke="black" points="740.2,-133.3 745.21,-123.97 735.48,-128.14 740.2,-133.3"/>
</g>
<!-- table::contains -->
<g id="node4" class="node">
<title>table::contains</title>
<ellipse fill="none" stroke="black" cx="252" cy="-181" rx="40.09" ry="18"/>
<text text-anchor="middle" x="252" y="-177.3" font-family="Times,serif" font-size="14.00">contains</text>
</g>
<!-- direct_deposit&#45;&gt;table::contains -->
<g id="edge3" class="edge">
<title>direct_deposit&#45;&gt;table::contains</title>
<path fill="none" stroke="black" d="M459.55,-254.41C419.9,-252.31 367.54,-246.26 324,-230 307.81,-223.95 291.62,-213.64 278.71,-204.13"/>
<polygon fill="black" stroke="black" points="281.21,-201.63 271.14,-198.33 276.95,-207.19 281.21,-201.63"/>
</g>
<!-- table::borrow_mut -->
<g id="node5" class="node">
<title>table::borrow_mut</title>
<ellipse fill="none" stroke="black" cx="105" cy="-181" rx="54.69" ry="18"/>
<text text-anchor="middle" x="105" y="-177.3" font-family="Times,serif" font-size="14.00">borrow_mut</text>
</g>
<!-- direct_deposit&#45;&gt;table::borrow_mut -->
<g id="edge4" class="edge">
<title>direct_deposit&#45;&gt;table::borrow_mut</title>
<path fill="none" stroke="black" d="M460.21,-252.96C382.12,-249.83 249.86,-242.82 203,-230 180.9,-223.95 157.81,-212.91 139.6,-202.94"/>
<polygon fill="black" stroke="black" points="141.5,-199.99 131.07,-198.13 138.06,-206.09 141.5,-199.99"/>
</g>
<!-- table::add -->
<g id="node6" class="node">
<title>table::add</title>
<ellipse fill="none" stroke="black" cx="360" cy="-181" rx="27" ry="18"/>
<text text-anchor="middle" x="360" y="-177.3" font-family="Times,serif" font-size="14.00">add</text>
</g>
<!-- direct_deposit&#45;&gt;table::add -->
<g id="edge5" class="edge">
<title>direct_deposit&#45;&gt;table::add</title>
<path fill="none" stroke="black" d="M463.41,-249.34C444.29,-245.72 423.41,-239.77 406,-230 395.54,-224.13 385.99,-215.12 378.34,-206.48"/>
<polygon fill="black" stroke="black" points="381.15,-204.38 372.06,-198.93 375.76,-208.86 381.15,-204.38"/>
</g>
<!-- event::emit_event -->
<g id="node7" class="node">
<title>event::emit_event</title>
<ellipse fill="none" stroke="black" cx="520" cy="-181" rx="50.09" ry="18"/>
<text text-anchor="middle" x="520" y="-177.3" font-family="Times,serif" font-size="14.00">emit_event</text>
</g>
<!-- direct_deposit&#45;&gt;event::emit_event -->
<g id="edge6" class="edge">
<title>direct_deposit&#45;&gt;event::emit_event</title>
<path fill="none" stroke="black" d="M520,-237.7C520,-229.67 520,-219.9 520,-210.8"/>
<polygon fill="black" stroke="black" points="523.5,-210.94 520,-200.94 516.5,-210.94 523.5,-210.94"/>
</g>
<!-- merge -->
<g id="node8" class="node">
<title>merge</title>
<ellipse fill="none" stroke="black" cx="794" cy="-181" rx="33.29" ry="18"/>
<text text-anchor="middle" x="794" y="-177.3" font-family="Times,serif" font-size="14.00">merge</text>
</g>
<!-- direct_deposit&#45;&gt;merge -->
<g id="edge7" class="edge">
<title>direct_deposit&#45;&gt;merge</title>
<path fill="none" stroke="black" d="M579.33,-252.02C615.47,-248.94 662.19,-242.69 702,-230 723.67,-223.09 746.33,-211.33 763.75,-201.17"/>
<polygon fill="black" stroke="black" points="765.26,-204.34 772.05,-196.21 761.67,-198.34 765.26,-204.34"/>
</g>
<!-- error::canonical -->
<g id="node9" class="node">
<title>error::canonical</title>
<ellipse fill="none" stroke="black" cx="832" cy="-34" rx="44.39" ry="18"/>
<text text-anchor="middle" x="832" y="-30.3" font-family="Times,serif" font-size="14.00">canonical</text>
</g>
<!-- error::invalid_argument&#45;&gt;error::canonical -->
<g id="edge8" class="edge">
<title>error::invalid_argument&#45;&gt;error::canonical</title>
<path fill="none" stroke="black" d="M884.3,-88.05C875.66,-79.29 864.97,-68.45 855.52,-58.86"/>
<polygon fill="black" stroke="black" points="858.18,-56.57 848.67,-51.91 853.19,-61.49 858.18,-56.57"/>
</g>
<!-- error::not_found&#45;&gt;error::canonical -->
<g id="edge9" class="edge">
<title>error::not_found&#45;&gt;error::canonical</title>
<path fill="none" stroke="black" d="M779,-88.76C787.63,-80.02 798.43,-69.05 808.04,-59.31"/>
<polygon fill="black" stroke="black" points="810.49,-61.8 815.02,-52.23 805.51,-56.89 810.49,-61.8"/>
</g>
<!-- table::contains_box -->
<g id="node10" class="node">
<title>table::contains_box</title>
<ellipse fill="none" stroke="black" cx="236" cy="-106" rx="57.69" ry="18"/>
<text text-anchor="middle" x="236" y="-102.3" font-family="Times,serif" font-size="14.00">contains_box</text>
</g>
<!-- table::contains&#45;&gt;table::contains_box -->
<g id="edge10" class="edge">
<title>table::contains&#45;&gt;table::contains_box</title>
<path fill="none" stroke="black" d="M248.21,-162.7C246.43,-154.58 244.26,-144.68 242.25,-135.5"/>
<polygon fill="black" stroke="black" points="245.7,-134.93 240.14,-125.91 238.87,-136.42 245.7,-134.93"/>
</g>
<!-- table::borrow_box_mut -->
<g id="node11" class="node">
<title>table::borrow_box_mut</title>
<ellipse fill="none" stroke="black" cx="88" cy="-106" rx="72.29" ry="18"/>
<text text-anchor="middle" x="88" y="-102.3" font-family="Times,serif" font-size="14.00">borrow_box_mut</text>
</g>
<!-- table::borrow_mut&#45;&gt;table::borrow_box_mut -->
<g id="edge11" class="edge">
<title>table::borrow_mut&#45;&gt;table::borrow_box_mut</title>
<path fill="none" stroke="black" d="M100.97,-162.7C99.08,-154.58 96.77,-144.68 94.64,-135.5"/>
<polygon fill="black" stroke="black" points="98.08,-134.85 92.4,-125.9 91.26,-136.44 98.08,-134.85"/>
</g>
<!-- table::add_box -->
<g id="node12" class="node">
<title>table::add_box</title>
<ellipse fill="none" stroke="black" cx="353" cy="-106" rx="40.89" ry="18"/>
<text text-anchor="middle" x="353" y="-102.3" font-family="Times,serif" font-size="14.00">add_box</text>
</g>
<!-- table::add&#45;&gt;table::add_box -->
<g id="edge12" class="edge">
<title>table::add&#45;&gt;table::add_box</title>
<path fill="none" stroke="black" d="M358.34,-162.7C357.57,-154.67 356.63,-144.9 355.76,-135.8"/>
<polygon fill="black" stroke="black" points="359.25,-135.56 354.82,-125.94 352.29,-136.22 359.25,-135.56"/>
</g>
<!-- bcs::to_bytes -->
<g id="node13" class="node">
<title>bcs::to_bytes</title>
<ellipse fill="none" stroke="black" cx="652" cy="-106" rx="40.09" ry="18"/>
<text text-anchor="middle" x="652" y="-102.3" font-family="Times,serif" font-size="14.00">to_bytes</text>
</g>
<!-- event::emit_event&#45;&gt;bcs::to_bytes -->
<g id="edge13" class="edge">
<title>event::emit_event&#45;&gt;bcs::to_bytes</title>
<path fill="none" stroke="black" d="M561.75,-170.74C574.52,-166.92 588.28,-161.77 600,-155 610.85,-148.73 621.31,-139.83 629.97,-131.4"/>
<polygon fill="black" stroke="black" points="632.41,-133.91 636.91,-124.32 627.41,-129.01 632.41,-133.91"/>
</g>
<!-- event::write_to_event_store -->
<g id="node14" class="node">
<title>event::write_to_event_store</title>
<ellipse fill="none" stroke="black" cx="503" cy="-106" rx="85.29" ry="18"/>
<text text-anchor="middle" x="503" y="-102.3" font-family="Times,serif" font-size="14.00">write_to_event_store</text>
</g>
<!-- event::emit_event&#45;&gt;event::write_to_event_store -->
<g id="edge14" class="edge">
<title>event::emit_event&#45;&gt;event::write_to_event_store</title>
<path fill="none" stroke="black" d="M515.97,-162.7C514.08,-154.58 511.77,-144.68 509.64,-135.5"/>
<polygon fill="black" stroke="black" points="513.08,-134.85 507.4,-125.9 506.26,-136.44 513.08,-134.85"/>
</g>
<!-- merge&#45;&gt;error::invalid_argument -->
<g id="edge15" class="edge">
<title>merge&#45;&gt;error::invalid_argument</title>
<path fill="none" stroke="black" d="M814.13,-166.27C829.14,-156.02 850,-141.79 867.52,-129.84"/>
<polygon fill="black" stroke="black" points="869.3,-132.86 875.59,-124.33 865.36,-127.08 869.3,-132.86"/>
</g>
</g>
</svg>
