<?xml version="1.0" encoding="UTF-8" standalone="no"?>
<!DOCTYPE svg PUBLIC "-//W3C//DTD SVG 1.1//EN"
 "http://www.w3.org/Graphics/SVG/1.1/DTD/svg11.dtd">
<!-- Generated by graphviz version 7.0.4 (20221203.1631)
 -->
<!-- Title: G Pages: 1 -->
<svg width="1726pt" height="531pt"
 viewBox="0.00 0.00 1726.00 531.00" xmlns="http://www.w3.org/2000/svg" xmlns:xlink="http://www.w3.org/1999/xlink">
<g id="graph0" class="graph" transform="scale(1 1) rotate(0) translate(4 527)">
<title>G</title>
<polygon fill="white" stroke="none" points="-4,4 -4,-527 1722,-527 1722,4 -4,4"/>
<g id="clust1" class="cluster">
<title>cluster_signer</title>
<polygon fill="none" stroke="black" points="558,-8 558,-155 708,-155 708,-8 558,-8"/>
<text text-anchor="middle" x="633" y="-139.8" font-family="Times,serif" font-size="14.00">signer</text>
</g>
<g id="clust2" class="cluster">
<title>cluster_error</title>
<polygon fill="none" stroke="black" points="1264,-80 1264,-238 1710,-238 1710,-80 1264,-80"/>
<text text-anchor="middle" x="1487" y="-222.8" font-family="Times,serif" font-size="14.00">error</text>
</g>
<g id="clust3" class="cluster">
<title>cluster_table</title>
<polygon fill="none" stroke="black" points="8,-163 8,-313 570,-313 570,-163 8,-163"/>
<text text-anchor="middle" x="289" y="-297.8" font-family="Times,serif" font-size="14.00">table</text>
</g>
<g id="clust4" class="cluster">
<title>cluster_event</title>
<polygon fill="none" stroke="black" points="864,-80 864,-238 1152,-238 1152,-80 864,-80"/>
<text text-anchor="middle" x="1008" y="-222.8" font-family="Times,serif" font-size="14.00">event</text>
</g>
<g id="clust5" class="cluster">
<title>cluster_property_map</title>
<polygon fill="none" stroke="black" points="1187,-404 1187,-479 1280,-479 1280,-404 1187,-404"/>
<text text-anchor="middle" x="1233.5" y="-463.8" font-family="Times,serif" font-size="14.00">property_map</text>
</g>
<g id="clust6" class="cluster">
<title>cluster_bcs</title>
<polygon fill="none" stroke="black" points="1160,-80 1160,-155 1256,-155 1256,-80 1160,-80"/>
<text text-anchor="middle" x="1208" y="-139.8" font-family="Times,serif" font-size="14.00">bcs</text>
</g>
<g id="clust7" class="cluster">
<title>cluster_simple_map</title>
<polygon fill="none" stroke="black" points="1188,-321 1188,-396 1272,-396 1272,-321 1188,-321"/>
<text text-anchor="middle" x="1230" y="-380.8" font-family="Times,serif" font-size="14.00">simple_map</text>
</g>
<g id="clust8" class="cluster">
<title>cluster_account</title>
<polygon fill="none" stroke="black" points="686,-163 686,-313 856,-313 856,-163 686,-163"/>
<text text-anchor="middle" x="771" y="-297.8" font-family="Times,serif" font-size="14.00">account</text>
</g>
<g id="clust9" class="cluster">
<title>cluster_guid</title>
<polygon fill="none" stroke="black" points="726,-80 726,-155 806,-155 806,-80 726,-80"/>
<text text-anchor="middle" x="766" y="-139.8" font-family="Times,serif" font-size="14.00">guid</text>
</g>
<!-- mint_token -->
<g id="node1" class="node">
<title>mint_token</title>
<ellipse fill="none" stroke="black" cx="1131" cy="-505" rx="51.19" ry="18"/>
<text text-anchor="middle" x="1131" y="-501.3" font-family="Times,serif" font-size="14.00">mint_token</text>
</g>
<!-- signer::address_of -->
<g id="node2" class="node">
<title>signer::address_of</title>
<ellipse fill="none" stroke="black" cx="633" cy="-106" rx="48.99" ry="18"/>
<text text-anchor="middle" x="633" y="-102.3" font-family="Times,serif" font-size="14.00">address_of</text>
</g>
<!-- mint_token&#45;&gt;signer::address_of -->
<g id="edge1" class="edge">
<title>mint_token&#45;&gt;signer::address_of</title>
<path fill="none" stroke="black" d="M1079.61,-503.28C992.03,-501.61 817.63,-496.17 759,-479 667.8,-452.29 590,-443.03 590,-348 590,-348 590,-348 590,-263 590,-218.12 590.38,-205.76 604,-163 607.15,-153.1 611.95,-142.85 616.74,-133.86"/>
<polygon fill="black" stroke="black" points="619.7,-135.75 621.53,-125.32 613.59,-132.33 619.7,-135.75"/>
</g>
<!-- error::invalid_argument -->
<g id="node3" class="node">
<title>error::invalid_argument</title>
<ellipse fill="none" stroke="black" cx="1345" cy="-189" rx="73.39" ry="18"/>
<text text-anchor="middle" x="1345" y="-185.3" font-family="Times,serif" font-size="14.00">invalid_argument</text>
</g>
<!-- mint_token&#45;&gt;error::invalid_argument -->
<g id="edge2" class="edge">
<title>mint_token&#45;&gt;error::invalid_argument</title>
<path fill="none" stroke="black" d="M1135.36,-486.79C1146.28,-443.98 1174.64,-335.13 1184,-321 1215.59,-273.28 1269.95,-234.36 1306.66,-211.68"/>
<polygon fill="black" stroke="black" points="1308.02,-214.95 1314.76,-206.77 1304.39,-208.96 1308.02,-214.95"/>
</g>
<!-- error::not_found -->
<g id="node4" class="node">
<title>error::not_found</title>
<ellipse fill="none" stroke="black" cx="1483" cy="-189" rx="46.59" ry="18"/>
<text text-anchor="middle" x="1483" y="-185.3" font-family="Times,serif" font-size="14.00">not_found</text>
</g>
<!-- mint_token&#45;&gt;error::not_found -->
<g id="edge3" class="edge">
<title>mint_token&#45;&gt;error::not_found</title>
<path fill="none" stroke="black" d="M1181.8,-501.95C1220.65,-499.28 1269.87,-493.13 1284,-479 1358.18,-404.8 1244.7,-316.95 1322,-246 1339.24,-230.18 1405.38,-246.95 1427,-238 1439.68,-232.75 1451.56,-223.48 1461.09,-214.48"/>
<polygon fill="black" stroke="black" points="1463.48,-217.04 1468.06,-207.48 1458.52,-212.1 1463.48,-217.04"/>
</g>
<!-- error::permission_denied -->
<g id="node5" class="node">
<title>error::permission_denied</title>
<ellipse fill="none" stroke="black" cx="1625" cy="-189" rx="77.19" ry="18"/>
<text text-anchor="middle" x="1625" y="-185.3" font-family="Times,serif" font-size="14.00">permission_denied</text>
</g>
<!-- mint_token&#45;&gt;error::permission_denied -->
<g id="edge4" class="edge">
<title>mint_token&#45;&gt;error::permission_denied</title>
<path fill="none" stroke="black" d="M1181.7,-501.85C1227.37,-499.05 1290.41,-492.76 1311,-479 1343.13,-457.53 1329.65,-433.17 1355,-404 1426.67,-321.56 1533.49,-247.83 1588.84,-212.34"/>
<polygon fill="black" stroke="black" points="1590.72,-215.3 1597.28,-206.98 1586.96,-209.39 1590.72,-215.3"/>
</g>
<!-- table::contains -->
<g id="node6" class="node">
<title>table::contains</title>
<ellipse fill="none" stroke="black" cx="378" cy="-264" rx="40.09" ry="18"/>
<text text-anchor="middle" x="378" y="-260.3" font-family="Times,serif" font-size="14.00">contains</text>
</g>
<!-- mint_token&#45;&gt;table::contains -->
<g id="edge5" class="edge">
<title>mint_token&#45;&gt;table::contains</title>
<path fill="none" stroke="black" d="M1079.51,-503.9C950.56,-503.33 620.89,-499.84 576,-479 488.5,-438.38 421.54,-339.63 393.04,-291.82"/>
<polygon fill="black" stroke="black" points="396.07,-290.07 388,-283.2 390.02,-293.6 396.07,-290.07"/>
</g>
<!-- table::borrow_mut -->
<g id="node7" class="node">
<title>table::borrow_mut</title>
<ellipse fill="none" stroke="black" cx="265" cy="-264" rx="54.69" ry="18"/>
<text text-anchor="middle" x="265" y="-260.3" font-family="Times,serif" font-size="14.00">borrow_mut</text>
</g>
<!-- mint_token&#45;&gt;table::borrow_mut -->
<g id="edge6" class="edge">
<title>mint_token&#45;&gt;table::borrow_mut</title>
<path fill="none" stroke="black" d="M1079.43,-504.23C934.03,-504.59 527.73,-503.36 473,-479 382.6,-438.76 311.32,-339.45 280.94,-291.61"/>
<polygon fill="black" stroke="black" points="283.98,-289.87 275.72,-283.24 278.04,-293.58 283.98,-289.87"/>
</g>
<!-- event::emit_event -->
<g id="node8" class="node">
<title>event::emit_event</title>
<ellipse fill="none" stroke="black" cx="1094" cy="-189" rx="50.09" ry="18"/>
<text text-anchor="middle" x="1094" y="-185.3" font-family="Times,serif" font-size="14.00">emit_event</text>
</g>
<!-- mint_token&#45;&gt;event::emit_event -->
<g id="edge7" class="edge">
<title>mint_token&#45;&gt;event::emit_event</title>
<path fill="none" stroke="black" d="M1128.96,-486.67C1122.88,-435.1 1104.87,-282.22 1097.35,-218.45"/>
<polygon fill="black" stroke="black" points="1100.86,-218.3 1096.21,-208.78 1093.91,-219.12 1100.86,-218.3"/>
</g>
<!-- property_map::empty -->
<g id="node9" class="node">
<title>property_map::empty</title>
<ellipse fill="none" stroke="black" cx="1230" cy="-430" rx="33.29" ry="18"/>
<text text-anchor="middle" x="1230" y="-426.3" font-family="Times,serif" font-size="14.00">empty</text>
</g>
<!-- mint_token&#45;&gt;property_map::empty -->
<g id="edge8" class="edge">
<title>mint_token&#45;&gt;property_map::empty</title>
<path fill="none" stroke="black" d="M1163.34,-490.61C1170.09,-487.23 1176.98,-483.32 1183,-479 1192.57,-472.14 1201.9,-463.23 1209.69,-454.95"/>
<polygon fill="black" stroke="black" points="1212.06,-457.54 1216.18,-447.78 1206.87,-452.84 1212.06,-457.54"/>
</g>
<!-- create_token_id -->
<g id="node10" class="node">
<title>create_token_id</title>
<ellipse fill="none" stroke="black" cx="1431" cy="-430" rx="66.89" ry="18"/>
<text text-anchor="middle" x="1431" y="-426.3" font-family="Times,serif" font-size="14.00">create_token_id</text>
</g>
<!-- mint_token&#45;&gt;create_token_id -->
<g id="edge9" class="edge">
<title>mint_token&#45;&gt;create_token_id</title>
<path fill="none" stroke="black" d="M1182.32,-504.16C1227.56,-502.91 1294.68,-497.6 1350,-479 1367.5,-473.12 1385.32,-463.08 1399.78,-453.71"/>
<polygon fill="black" stroke="black" points="1401.6,-456.7 1407.95,-448.22 1397.69,-450.89 1401.6,-456.7"/>
</g>
<!-- deposit_token -->
<g id="node11" class="node">
<title>deposit_token</title>
<ellipse fill="none" stroke="black" cx="828" cy="-430" rx="59.59" ry="18"/>
<text text-anchor="middle" x="828" y="-426.3" font-family="Times,serif" font-size="14.00">deposit_token</text>
</g>
<!-- mint_token&#45;&gt;deposit_token -->
<g id="edge10" class="edge">
<title>mint_token&#45;&gt;deposit_token</title>
<path fill="none" stroke="black" d="M1089.5,-494C1036.44,-481.22 944.31,-459.02 884.78,-444.68"/>
<polygon fill="black" stroke="black" points="885.7,-441.3 875.16,-442.36 884.06,-448.11 885.7,-441.3"/>
</g>
<!-- signer::borrow_address -->
<g id="node12" class="node">
<title>signer::borrow_address</title>
<ellipse fill="none" stroke="black" cx="633" cy="-34" rx="66.89" ry="18"/>
<text text-anchor="middle" x="633" y="-30.3" font-family="Times,serif" font-size="14.00">borrow_address</text>
</g>
<!-- signer::address_of&#45;&gt;signer::borrow_address -->
<g id="edge11" class="edge">
<title>signer::address_of&#45;&gt;signer::borrow_address</title>
<path fill="none" stroke="black" d="M633,-87.7C633,-80.41 633,-71.73 633,-63.54"/>
<polygon fill="black" stroke="black" points="636.5,-63.62 633,-53.62 629.5,-63.62 636.5,-63.62"/>
</g>
<!-- error::canonical -->
<g id="node13" class="node">
<title>error::canonical</title>
<ellipse fill="none" stroke="black" cx="1483" cy="-106" rx="44.39" ry="18"/>
<text text-anchor="middle" x="1483" y="-102.3" font-family="Times,serif" font-size="14.00">canonical</text>
</g>
<!-- error::invalid_argument&#45;&gt;error::canonical -->
<g id="edge12" class="edge">
<title>error::invalid_argument&#45;&gt;error::canonical</title>
<path fill="none" stroke="black" d="M1372.26,-172C1394.26,-159.09 1425.31,-140.86 1448.94,-126.99"/>
<polygon fill="black" stroke="black" points="1450.41,-130.19 1457.26,-122.11 1446.87,-124.15 1450.41,-130.19"/>
</g>
<!-- error::not_found&#45;&gt;error::canonical -->
<g id="edge13" class="edge">
<title>error::not_found&#45;&gt;error::canonical</title>
<path fill="none" stroke="black" d="M1483,-170.82C1483,-160.69 1483,-147.6 1483,-135.92"/>
<polygon fill="black" stroke="black" points="1486.5,-135.95 1483,-125.95 1479.5,-135.95 1486.5,-135.95"/>
</g>
<!-- error::permission_denied&#45;&gt;error::canonical -->
<g id="edge14" class="edge">
<title>error::permission_denied&#45;&gt;error::canonical</title>
<path fill="none" stroke="black" d="M1596.61,-171.8C1573.94,-158.88 1542.09,-140.71 1517.88,-126.9"/>
<polygon fill="black" stroke="black" points="1519.75,-123.94 1509.33,-122.02 1516.29,-130.02 1519.75,-123.94"/>
</g>
<!-- table::contains_box -->
<g id="node14" class="node">
<title>table::contains_box</title>
<ellipse fill="none" stroke="black" cx="236" cy="-189" rx="57.69" ry="18"/>
<text text-anchor="middle" x="236" y="-185.3" font-family="Times,serif" font-size="14.00">contains_box</text>
</g>
<!-- table::contains&#45;&gt;table::contains_box -->
<g id="edge15" class="edge">
<title>table::contains&#45;&gt;table::contains_box</title>
<path fill="none" stroke="black" d="M347.21,-252.13C341.19,-250.06 334.9,-247.93 329,-246 317.51,-242.24 313.83,-243.37 303,-238 289.48,-231.3 275.73,-221.97 264.23,-213.32"/>
<polygon fill="black" stroke="black" points="266.4,-210.57 256.35,-207.21 262.11,-216.11 266.4,-210.57"/>
</g>
<!-- table::borrow_box_mut -->
<g id="node15" class="node">
<title>table::borrow_box_mut</title>
<ellipse fill="none" stroke="black" cx="88" cy="-189" rx="72.29" ry="18"/>
<text text-anchor="middle" x="88" y="-185.3" font-family="Times,serif" font-size="14.00">borrow_box_mut</text>
</g>
<!-- table::borrow_mut&#45;&gt;table::borrow_box_mut -->
<g id="edge16" class="edge">
<title>table::borrow_mut&#45;&gt;table::borrow_box_mut</title>
<path fill="none" stroke="black" d="M219.21,-253.84C203.02,-249.89 184.9,-244.63 169,-238 152.45,-231.1 135.21,-221.3 120.91,-212.36"/>
<polygon fill="black" stroke="black" points="123.11,-209.61 112.8,-207.16 119.34,-215.5 123.11,-209.61"/>
</g>
<!-- bcs::to_bytes -->
<g id="node16" class="node">
<title>bcs::to_bytes</title>
<ellipse fill="none" stroke="black" cx="1208" cy="-106" rx="40.09" ry="18"/>
<text text-anchor="middle" x="1208" y="-102.3" font-family="Times,serif" font-size="14.00">to_bytes</text>
</g>
<!-- event::emit_event&#45;&gt;bcs::to_bytes -->
<g id="edge17" class="edge">
<title>event::emit_event&#45;&gt;bcs::to_bytes</title>
<path fill="none" stroke="black" d="M1123.62,-174.2C1134.19,-168.77 1145.96,-162.13 1156,-155 1166.07,-147.85 1176.25,-138.92 1184.9,-130.7"/>
<polygon fill="black" stroke="black" points="1187.18,-133.37 1191.89,-123.88 1182.29,-128.36 1187.18,-133.37"/>
</g>
<!-- event::write_to_event_store -->
<g id="node17" class="node">
<title>event::write_to_event_store</title>
<ellipse fill="none" stroke="black" cx="1059" cy="-106" rx="85.29" ry="18"/>
<text text-anchor="middle" x="1059" y="-102.3" font-family="Times,serif" font-size="14.00">write_to_event_store</text>
</g>
<!-- event::emit_event&#45;&gt;event::write_to_event_store -->
<g id="edge18" class="edge">
<title>event::emit_event&#45;&gt;event::write_to_event_store</title>
<path fill="none" stroke="black" d="M1086.58,-170.82C1082.03,-160.3 1076.11,-146.59 1070.91,-134.57"/>
<polygon fill="black" stroke="black" points="1074.19,-133.33 1067.01,-125.54 1067.77,-136.11 1074.19,-133.33"/>
</g>
<!-- simple_map::create -->
<g id="node18" class="node">
<title>simple_map::create</title>
<ellipse fill="none" stroke="black" cx="1230" cy="-347" rx="31.7" ry="18"/>
<text text-anchor="middle" x="1230" y="-343.3" font-family="Times,serif" font-size="14.00">create</text>
</g>
<!-- property_map::empty&#45;&gt;simple_map::create -->
<g id="edge19" class="edge">
<title>property_map::empty&#45;&gt;simple_map::create</title>
<path fill="none" stroke="black" d="M1230,-411.82C1230,-401.69 1230,-388.6 1230,-376.92"/>
<polygon fill="black" stroke="black" points="1233.5,-376.95 1230,-366.95 1226.5,-376.95 1233.5,-376.95"/>
</g>
<!-- deposit_token&#45;&gt;signer::address_of -->
<g id="edge20" class="edge">
<title>deposit_token&#45;&gt;signer::address_of</title>
<path fill="none" stroke="black" d="M769.52,-425.96C723.21,-422.21 663.78,-413.96 648,-396 583.16,-322.17 608.64,-192.46 624.28,-135.35"/>
<polygon fill="black" stroke="black" points="627.63,-136.35 627.01,-125.77 620.9,-134.42 627.63,-136.35"/>
</g>
<!-- direct_deposit -->
<g id="node19" class="node">
<title>direct_deposit</title>
<ellipse fill="none" stroke="black" cx="912" cy="-347" rx="60.39" ry="18"/>
<text text-anchor="middle" x="912" y="-343.3" font-family="Times,serif" font-size="14.00">direct_deposit</text>
</g>
<!-- deposit_token&#45;&gt;direct_deposit -->
<g id="edge21" class="edge">
<title>deposit_token&#45;&gt;direct_deposit</title>
<path fill="none" stroke="black" d="M845,-412.61C856.99,-401.05 873.25,-385.37 886.75,-372.35"/>
<polygon fill="black" stroke="black" points="888.88,-375.16 893.65,-365.7 884.02,-370.12 888.88,-375.16"/>
</g>
<!-- initialize_token_store -->
<g id="node20" class="node">
<title>initialize_token_store</title>
<ellipse fill="none" stroke="black" cx="744" cy="-347" rx="87.18" ry="18"/>
<text text-anchor="middle" x="744" y="-343.3" font-family="Times,serif" font-size="14.00">initialize_token_store</text>
</g>
<!-- deposit_token&#45;&gt;initialize_token_store -->
<g id="edge22" class="edge">
<title>deposit_token&#45;&gt;initialize_token_store</title>
<path fill="none" stroke="black" d="M811,-412.61C799.09,-401.12 782.96,-385.57 769.52,-372.61"/>
<polygon fill="black" stroke="black" points="772.27,-370.4 762.64,-365.98 767.41,-375.44 772.27,-370.4"/>
</g>
<!-- direct_deposit&#45;&gt;error::invalid_argument -->
<g id="edge23" class="edge">
<title>direct_deposit&#45;&gt;error::invalid_argument</title>
<path fill="none" stroke="black" d="M961,-336.08C981.97,-330.79 1006.34,-323.23 1027,-313 1071.69,-290.88 1071.49,-266.39 1117,-246 1133.15,-238.77 1138.75,-241.96 1156,-238 1199.51,-228.02 1248.34,-215.58 1285.47,-205.87"/>
<polygon fill="black" stroke="black" points="1286.35,-209.26 1295.13,-203.34 1284.57,-202.49 1286.35,-209.26"/>
</g>
<!-- direct_deposit&#45;&gt;error::not_found -->
<g id="edge24" class="edge">
<title>direct_deposit&#45;&gt;error::not_found</title>
<path fill="none" stroke="black" d="M964.96,-337.92C999.66,-332.15 1045.85,-323.54 1086,-313 1175.85,-289.4 1192.79,-263.64 1284,-246 1315.25,-239.96 1397.47,-249.87 1427,-238 1439.73,-232.88 1451.62,-223.63 1461.14,-214.61"/>
<polygon fill="black" stroke="black" points="1463.55,-217.15 1468.11,-207.59 1458.58,-212.23 1463.55,-217.15"/>
</g>
<!-- direct_deposit&#45;&gt;table::contains -->
<g id="edge25" class="edge">
<title>direct_deposit&#45;&gt;table::contains</title>
<path fill="none" stroke="black" d="M878.16,-331.79C866.31,-327.48 852.77,-323.28 840,-321 817.41,-316.96 448.16,-321.88 427,-313 415.47,-308.16 405.15,-299.22 397,-290.35"/>
<polygon fill="black" stroke="black" points="399.73,-288.16 390.58,-282.81 394.4,-292.7 399.73,-288.16"/>
</g>
<!-- direct_deposit&#45;&gt;table::borrow_mut -->
<g id="edge26" class="edge">
<title>direct_deposit&#45;&gt;table::borrow_mut</title>
<path fill="none" stroke="black" d="M878.17,-331.76C866.31,-327.45 852.77,-323.26 840,-321 812.04,-316.06 355.86,-322.19 329,-313 314.38,-308 300.38,-298.28 289.22,-288.89"/>
<polygon fill="black" stroke="black" points="291.86,-286.55 282.06,-282.52 287.21,-291.78 291.86,-286.55"/>
</g>
<!-- direct_deposit&#45;&gt;event::emit_event -->
<g id="edge28" class="edge">
<title>direct_deposit&#45;&gt;event::emit_event</title>
<path fill="none" stroke="black" d="M911.89,-328.69C912.78,-305.81 918.09,-266.08 943,-246 958.98,-233.12 1015.98,-245.7 1035,-238 1048.25,-232.63 1060.85,-223.22 1070.97,-214.14"/>
<polygon fill="black" stroke="black" points="1073.24,-216.82 1078.09,-207.4 1068.42,-211.74 1073.24,-216.82"/>
</g>
<!-- table::add -->
<g id="node21" class="node">
<title>table::add</title>
<ellipse fill="none" stroke="black" cx="535" cy="-264" rx="27" ry="18"/>
<text text-anchor="middle" x="535" y="-260.3" font-family="Times,serif" font-size="14.00">add</text>
</g>
<!-- direct_deposit&#45;&gt;table::add -->
<g id="edge27" class="edge">
<title>direct_deposit&#45;&gt;table::add</title>
<path fill="none" stroke="black" d="M877.76,-331.89C865.99,-327.64 852.6,-323.45 840,-321 770.99,-307.56 751.14,-325.8 682,-313 641.74,-305.54 597.27,-289.94 567.91,-278.53"/>
<polygon fill="black" stroke="black" points="569.42,-275.37 558.84,-274.95 566.85,-281.88 569.42,-275.37"/>
</g>
<!-- merge -->
<g id="node22" class="node">
<title>merge</title>
<ellipse fill="none" stroke="black" cx="985" cy="-264" rx="33.29" ry="18"/>
<text text-anchor="middle" x="985" y="-260.3" font-family="Times,serif" font-size="14.00">merge</text>
</g>
<!-- direct_deposit&#45;&gt;merge -->
<g id="edge29" class="edge">
<title>direct_deposit&#45;&gt;merge</title>
<path fill="none" stroke="black" d="M927.13,-329.22C937.58,-317.62 951.64,-302.02 963.28,-289.1"/>
<polygon fill="black" stroke="black" points="965.78,-291.56 969.87,-281.79 960.58,-286.87 965.78,-291.56"/>
</g>
<!-- initialize_token_store&#45;&gt;signer::address_of -->
<g id="edge30" class="edge">
<title>initialize_token_store&#45;&gt;signer::address_of</title>
<path fill="none" stroke="black" d="M703.23,-330.69C695.23,-326.07 687.59,-320.24 682,-313 671.14,-298.93 648.73,-188.58 638.41,-135.43"/>
<polygon fill="black" stroke="black" points="641.91,-135.06 636.58,-125.9 635.03,-136.38 641.91,-135.06"/>
</g>
<!-- table::new -->
<g id="node23" class="node">
<title>table::new</title>
<ellipse fill="none" stroke="black" cx="463" cy="-264" rx="27" ry="18"/>
<text text-anchor="middle" x="463" y="-260.3" font-family="Times,serif" font-size="14.00">new</text>
</g>
<!-- initialize_token_store&#45;&gt;table::new -->
<g id="edge31" class="edge">
<title>initialize_token_store&#45;&gt;table::new</title>
<path fill="none" stroke="black" d="M660.28,-341.6C600.36,-337.18 525.75,-328.69 499,-313 490.09,-307.77 482.68,-299.39 476.94,-291.08"/>
<polygon fill="black" stroke="black" points="480.06,-289.47 471.79,-282.84 474.13,-293.18 480.06,-289.47"/>
</g>
<!-- account::new_event_handle -->
<g id="node24" class="node">
<title>account::new_event_handle</title>
<ellipse fill="none" stroke="black" cx="771" cy="-264" rx="76.89" ry="18"/>
<text text-anchor="middle" x="771" y="-260.3" font-family="Times,serif" font-size="14.00">new_event_handle</text>
</g>
<!-- initialize_token_store&#45;&gt;account::new_event_handle -->
<g id="edge32" class="edge">
<title>initialize_token_store&#45;&gt;account::new_event_handle</title>
<path fill="none" stroke="black" d="M749.73,-328.82C753.17,-318.48 757.65,-305.05 761.61,-293.18"/>
<polygon fill="black" stroke="black" points="764.87,-294.46 764.71,-283.87 758.23,-292.25 764.87,-294.46"/>
</g>
<!-- table::add_box -->
<g id="node25" class="node">
<title>table::add_box</title>
<ellipse fill="none" stroke="black" cx="521" cy="-189" rx="40.89" ry="18"/>
<text text-anchor="middle" x="521" y="-185.3" font-family="Times,serif" font-size="14.00">add_box</text>
</g>
<!-- table::add&#45;&gt;table::add_box -->
<g id="edge33" class="edge">
<title>table::add&#45;&gt;table::add_box</title>
<path fill="none" stroke="black" d="M531.68,-245.7C530.12,-237.58 528.23,-227.68 526.46,-218.5"/>
<polygon fill="black" stroke="black" points="529.95,-218.08 524.63,-208.92 523.07,-219.4 529.95,-218.08"/>
</g>
<!-- merge&#45;&gt;error::invalid_argument -->
<g id="edge34" class="edge">
<title>merge&#45;&gt;error::invalid_argument</title>
<path fill="none" stroke="black" d="M1011.91,-252.98C1020.17,-250.28 1029.36,-247.65 1038,-246 1089.63,-236.12 1104.09,-246.28 1156,-238 1201.79,-230.69 1252.69,-217.46 1290.12,-206.74"/>
<polygon fill="black" stroke="black" points="1290.71,-210.21 1299.34,-204.07 1288.76,-203.49 1290.71,-210.21"/>
</g>
<!-- table::new_table_handle -->
<g id="node26" class="node">
<title>table::new_table_handle</title>
<ellipse fill="none" stroke="black" cx="387" cy="-189" rx="74.99" ry="18"/>
<text text-anchor="middle" x="387" y="-185.3" font-family="Times,serif" font-size="14.00">new_table_handle</text>
</g>
<!-- table::new&#45;&gt;table::new_table_handle -->
<g id="edge35" class="edge">
<title>table::new&#45;&gt;table::new_table_handle</title>
<path fill="none" stroke="black" d="M447.98,-248.58C437.96,-238.95 424.52,-226.03 412.8,-214.78"/>
<polygon fill="black" stroke="black" points="415.38,-212.41 405.74,-208 410.53,-217.45 415.38,-212.41"/>
</g>
<!-- event::new_event_handle -->
<g id="node27" class="node">
<title>event::new_event_handle</title>
<ellipse fill="none" stroke="black" cx="949" cy="-189" rx="76.89" ry="18"/>
<text text-anchor="middle" x="949" y="-185.3" font-family="Times,serif" font-size="14.00">new_event_handle</text>
</g>
<!-- account::new_event_handle&#45;&gt;event::new_event_handle -->
<g id="edge36" class="edge">
<title>account::new_event_handle&#45;&gt;event::new_event_handle</title>
<path fill="none" stroke="black" d="M822.95,-250.49C835.27,-246.95 848.25,-242.75 860,-238 877.89,-230.77 896.83,-220.9 912.61,-211.98"/>
<polygon fill="black" stroke="black" points="914.25,-215.08 921.17,-207.06 910.76,-209.01 914.25,-215.08"/>
</g>
<!-- account::create_guid -->
<g id="node28" class="node">
<title>account::create_guid</title>
<ellipse fill="none" stroke="black" cx="766" cy="-189" rx="51.99" ry="18"/>
<text text-anchor="middle" x="766" y="-185.3" font-family="Times,serif" font-size="14.00">create_guid</text>
</g>
<!-- account::new_event_handle&#45;&gt;account::create_guid -->
<g id="edge37" class="edge">
<title>account::new_event_handle&#45;&gt;account::create_guid</title>
<path fill="none" stroke="black" d="M769.82,-245.7C769.26,-237.67 768.6,-227.9 767.97,-218.8"/>
<polygon fill="black" stroke="black" points="771.47,-218.68 767.3,-208.94 764.49,-219.15 771.47,-218.68"/>
</g>
<!-- account::create_guid&#45;&gt;signer::address_of -->
<g id="edge38" class="edge">
<title>account::create_guid&#45;&gt;signer::address_of</title>
<path fill="none" stroke="black" d="M740.98,-172.76C720.14,-160.07 690.24,-141.86 667.19,-127.82"/>
<polygon fill="black" stroke="black" points="669.11,-124.89 658.75,-122.68 665.47,-130.87 669.11,-124.89"/>
</g>
<!-- guid::create -->
<g id="node29" class="node">
<title>guid::create</title>
<ellipse fill="none" stroke="black" cx="766" cy="-106" rx="31.7" ry="18"/>
<text text-anchor="middle" x="766" y="-102.3" font-family="Times,serif" font-size="14.00">create</text>
</g>
<!-- account::create_guid&#45;&gt;guid::create -->
<g id="edge39" class="edge">
<title>account::create_guid&#45;&gt;guid::create</title>
<path fill="none" stroke="black" d="M766,-170.82C766,-160.69 766,-147.6 766,-135.92"/>
<polygon fill="black" stroke="black" points="769.5,-135.95 766,-125.95 762.5,-135.95 769.5,-135.95"/>
</g>
</g>
</svg>
