<?xml version="1.0" encoding="UTF-8" standalone="no"?>
<!DOCTYPE svg PUBLIC "-//W3C//DTD SVG 1.1//EN"
 "http://www.w3.org/Graphics/SVG/1.1/DTD/svg11.dtd">
<!-- Generated by graphviz version 7.0.4 (20221203.1631)
 -->
<!-- Title: G Pages: 1 -->
<svg width="300pt" height="188pt"
 viewBox="0.00 0.00 300.14 188.00" xmlns="http://www.w3.org/2000/svg" xmlns:xlink="http://www.w3.org/1999/xlink">
<g id="graph0" class="graph" transform="scale(1 1) rotate(0) translate(4 184)">
<title>G</title>
<polygon fill="white" stroke="none" points="-4,4 -4,-184 296.14,-184 296.14,4 -4,4"/>
<!-- token_event_store -->
<g id="node1" class="node">
<title>token_event_store</title>
<ellipse fill="none" stroke="black" cx="149.14" cy="-18" rx="75.29" ry="18"/>
<text text-anchor="middle" x="149.14" y="-14.3" font-family="Times,serif" font-size="14.00">token_event_store</text>
</g>
<!-- token -->
<g id="node2" class="node">
<title>token</title>
<ellipse fill="none" stroke="black" cx="149.14" cy="-90" rx="30.59" ry="18"/>
<text text-anchor="middle" x="149.14" y="-86.3" font-family="Times,serif" font-size="14.00">token</text>
</g>
<!-- token&#45;&gt;token_event_store -->
<g id="edge1" class="edge">
<title>token&#45;&gt;token_event_store</title>
<path fill="none" stroke="black" d="M149.14,-71.7C149.14,-64.41 149.14,-55.73 149.14,-47.54"/>
<polygon fill="black" stroke="black" points="152.64,-47.62 149.14,-37.62 145.64,-47.62 152.64,-47.62"/>
</g>
<!-- token_coin_swap -->
<g id="node3" class="node">
<title>token_coin_swap</title>
<ellipse fill="none" stroke="black" cx="72.14" cy="-162" rx="72.29" ry="18"/>
<text text-anchor="middle" x="72.14" y="-158.3" font-family="Times,serif" font-size="14.00">token_coin_swap</text>
</g>
<!-- token_coin_swap&#45;&gt;token -->
<g id="edge2" class="edge">
<title>token_coin_swap&#45;&gt;token</title>
<path fill="none" stroke="black" d="M90.39,-144.41C100.64,-135.1 113.56,-123.35 124.68,-113.24"/>
<polygon fill="black" stroke="black" points="126.95,-115.91 132,-106.59 122.24,-110.73 126.95,-115.91"/>
</g>
<!-- token_transfers -->
<g id="node4" class="node">
<title>token_transfers</title>
<ellipse fill="none" stroke="black" cx="227.14" cy="-162" rx="64.99" ry="18"/>
<text text-anchor="middle" x="227.14" y="-158.3" font-family="Times,serif" font-size="14.00">token_transfers</text>
</g>
<!-- token_transfers&#45;&gt;token -->
<g id="edge3" class="edge">
<title>token_transfers&#45;&gt;token</title>
<path fill="none" stroke="black" d="M208.66,-144.41C198.28,-135.1 185.19,-123.35 173.93,-113.24"/>
<polygon fill="black" stroke="black" points="176.29,-110.66 166.51,-106.58 171.61,-115.87 176.29,-110.66"/>
</g>
</g>
</svg>
