<?xml version="1.0" encoding="UTF-8" standalone="no"?>
<!DOCTYPE svg PUBLIC "-//W3C//DTD SVG 1.1//EN"
 "http://www.w3.org/Graphics/SVG/1.1/DTD/svg11.dtd">
<!-- Generated by graphviz version 7.0.4 (20221203.1631)
 -->
<!-- Title: G Pages: 1 -->
<svg width="212pt" height="207pt"
 viewBox="0.00 0.00 212.08 207.00" xmlns="http://www.w3.org/2000/svg" xmlns:xlink="http://www.w3.org/1999/xlink">
<g id="graph0" class="graph" transform="scale(1 1) rotate(0) translate(4 203)">
<title>G</title>
<polygon fill="white" stroke="none" points="-4,4 -4,-203 208.08,-203 208.08,4 -4,4"/>
<g id="clust1" class="cluster">
<title>cluster_error</title>
<polygon fill="none" stroke="black" points="21.04,-8 21.04,-155 183.04,-155 183.04,-8 21.04,-8"/>
<text text-anchor="middle" x="102.04" y="-139.8" font-family="Times,serif" font-size="14.00">error</text>
</g>
<!-- exchange_coin_for_token -->
<g id="node1" class="node">
<title>exchange_coin_for_token</title>
<ellipse fill="none" stroke="black" cx="102.04" cy="-181" rx="102.08" ry="18"/>
<text text-anchor="middle" x="102.04" y="-177.3" font-family="Times,serif" font-size="14.00">exchange_coin_for_token</text>
</g>
<!-- error::invalid_argument -->
<g id="node2" class="node">
<title>error::invalid_argument</title>
<ellipse fill="none" stroke="black" cx="102.04" cy="-106" rx="73.39" ry="18"/>
<text text-anchor="middle" x="102.04" y="-102.3" font-family="Times,serif" font-size="14.00">invalid_argument</text>
</g>
<!-- exchange_coin_for_token&#45;&gt;error::invalid_argument -->
<g id="edge1" class="edge">
<title>exchange_coin_for_token&#45;&gt;error::invalid_argument</title>
<path fill="none" stroke="black" d="M102.04,-162.7C102.04,-154.67 102.04,-144.9 102.04,-135.8"/>
<polygon fill="black" stroke="black" points="105.54,-135.94 102.04,-125.94 98.54,-135.94 105.54,-135.94"/>
</g>
<!-- error::canonical -->
<g id="node3" class="node">
<title>error::canonical</title>
<ellipse fill="none" stroke="black" cx="102.04" cy="-34" rx="44.39" ry="18"/>
<text text-anchor="middle" x="102.04" y="-30.3" font-family="Times,serif" font-size="14.00">canonical</text>
</g>
<!-- error::invalid_argument&#45;&gt;error::canonical -->
<g id="edge2" class="edge">
<title>error::invalid_argument&#45;&gt;error::canonical</title>
<path fill="none" stroke="black" d="M102.04,-87.7C102.04,-80.41 102.04,-71.73 102.04,-63.54"/>
<polygon fill="black" stroke="black" points="105.54,-63.62 102.04,-53.62 98.54,-63.62 105.54,-63.62"/>
</g>
</g>
</svg>
