<?xml version="1.0" encoding="UTF-8" standalone="no"?>
<!DOCTYPE svg PUBLIC "-//W3C//DTD SVG 1.1//EN"
 "http://www.w3.org/Graphics/SVG/1.1/DTD/svg11.dtd">
<!-- Generated by graphviz version 7.0.4 (20221203.1631)
 -->
<!-- Title: G Pages: 1 -->
<svg width="2611pt" height="227pt"
 viewBox="0.00 0.00 2611.18 227.00" xmlns="http://www.w3.org/2000/svg" xmlns:xlink="http://www.w3.org/1999/xlink">
<g id="graph0" class="graph" transform="scale(1 1) rotate(0) translate(4 223)">
<title>G</title>
<polygon fill="white" stroke="none" points="-4,4 -4,-223 2607.18,-223 2607.18,4 -4,4"/>
<g id="clust1" class="cluster">
<title>cluster_token</title>
<polygon fill="none" stroke="black" points="345.19,-136 345.19,-211 2387.19,-211 2387.19,-136 345.19,-136"/>
<text text-anchor="middle" x="1366.19" y="-195.8" font-family="Times,serif" font-size="14.00">token</text>
</g>
<!-- initialize_token_event_store -->
<g id="node1" class="node">
<title>initialize_token_event_store</title>
<ellipse fill="none" stroke="black" cx="1401.19" cy="-18" rx="110.48" ry="18"/>
<text text-anchor="middle" x="1401.19" y="-14.3" font-family="Times,serif" font-size="14.00">initialize_token_event_store</text>
</g>
<!-- emit_collection_description_mutate_event -->
<g id="node2" class="node">
<title>emit_collection_description_mutate_event</title>
<ellipse fill="none" stroke="black" cx="161.19" cy="-90" rx="161.37" ry="18"/>
<text text-anchor="middle" x="161.19" y="-86.3" font-family="Times,serif" font-size="14.00">emit_collection_description_mutate_event</text>
</g>
<!-- emit_collection_description_mutate_event&#45;&gt;initialize_token_event_store -->
<g id="edge1" class="edge">
<title>emit_collection_description_mutate_event&#45;&gt;initialize_token_event_store</title>
<path fill="none" stroke="black" d="M274.51,-76.87C293.42,-75.07 312.85,-73.37 331.19,-72 676.19,-46.22 1084.76,-29.92 1282.36,-22.94"/>
<polygon fill="black" stroke="black" points="1282.24,-26.44 1292.11,-22.59 1281.99,-19.45 1282.24,-26.44"/>
</g>
<!-- emit_collection_maximum_mutate_event -->
<g id="node3" class="node">
<title>emit_collection_maximum_mutate_event</title>
<ellipse fill="none" stroke="black" cx="499.19" cy="-90" rx="159.47" ry="18"/>
<text text-anchor="middle" x="499.19" y="-86.3" font-family="Times,serif" font-size="14.00">emit_collection_maximum_mutate_event</text>
</g>
<!-- emit_collection_maximum_mutate_event&#45;&gt;initialize_token_event_store -->
<g id="edge2" class="edge">
<title>emit_collection_maximum_mutate_event&#45;&gt;initialize_token_event_store</title>
<path fill="none" stroke="black" d="M613.01,-77.03C631.12,-75.26 649.66,-73.52 667.19,-72 886.85,-52.96 1143.91,-35.5 1288.13,-26.15"/>
<polygon fill="black" stroke="black" points="1288.33,-29.64 1298.08,-25.51 1287.88,-22.66 1288.33,-29.64"/>
</g>
<!-- emit_collection_uri_mutate_event -->
<g id="node4" class="node">
<title>emit_collection_uri_mutate_event</title>
<ellipse fill="none" stroke="black" cx="808.19" cy="-90" rx="131.88" ry="18"/>
<text text-anchor="middle" x="808.19" y="-86.3" font-family="Times,serif" font-size="14.00">emit_collection_uri_mutate_event</text>
</g>
<!-- emit_collection_uri_mutate_event&#45;&gt;initialize_token_event_store -->
<g id="edge3" class="edge">
<title>emit_collection_uri_mutate_event&#45;&gt;initialize_token_event_store</title>
<path fill="none" stroke="black" d="M904.51,-77.34C919.46,-75.55 934.74,-73.72 949.19,-72 1070.63,-57.56 1210.47,-41.2 1302.05,-30.53"/>
<polygon fill="black" stroke="black" points="1302.23,-34.03 1311.75,-29.4 1301.42,-27.08 1302.23,-34.03"/>
</g>
<!-- emit_default_property_mutate_event -->
<g id="node5" class="node">
<title>emit_default_property_mutate_event</title>
<ellipse fill="none" stroke="black" cx="1100.19" cy="-90" rx="141.88" ry="18"/>
<text text-anchor="middle" x="1100.19" y="-86.3" font-family="Times,serif" font-size="14.00">emit_default_property_mutate_event</text>
</g>
<!-- emit_default_property_mutate_event&#45;&gt;initialize_token_event_store -->
<g id="edge4" class="edge">
<title>emit_default_property_mutate_event&#45;&gt;initialize_token_event_store</title>
<path fill="none" stroke="black" d="M1166.24,-73.64C1214.27,-62.47 1279.25,-47.36 1328.71,-35.86"/>
<polygon fill="black" stroke="black" points="1329.22,-39.33 1338.17,-33.65 1327.64,-32.51 1329.22,-39.33"/>
</g>
<!-- emit_token_descrition_mutate_event -->
<g id="node6" class="node">
<title>emit_token_descrition_mutate_event</title>
<ellipse fill="none" stroke="black" cx="1401.19" cy="-90" rx="141.88" ry="18"/>
<text text-anchor="middle" x="1401.19" y="-86.3" font-family="Times,serif" font-size="14.00">emit_token_descrition_mutate_event</text>
</g>
<!-- emit_token_descrition_mutate_event&#45;&gt;initialize_token_event_store -->
<g id="edge5" class="edge">
<title>emit_token_descrition_mutate_event&#45;&gt;initialize_token_event_store</title>
<path fill="none" stroke="black" d="M1401.19,-71.7C1401.19,-64.41 1401.19,-55.73 1401.19,-47.54"/>
<polygon fill="black" stroke="black" points="1404.69,-47.62 1401.19,-37.62 1397.69,-47.62 1404.69,-47.62"/>
</g>
<!-- emit_token_maximum_mutate_event -->
<g id="node7" class="node">
<title>emit_token_maximum_mutate_event</title>
<ellipse fill="none" stroke="black" cx="1705.19" cy="-90" rx="144.07" ry="18"/>
<text text-anchor="middle" x="1705.19" y="-86.3" font-family="Times,serif" font-size="14.00">emit_token_maximum_mutate_event</text>
</g>
<!-- emit_token_maximum_mutate_event&#45;&gt;initialize_token_event_store -->
<g id="edge6" class="edge">
<title>emit_token_maximum_mutate_event&#45;&gt;initialize_token_event_store</title>
<path fill="none" stroke="black" d="M1638.47,-73.64C1589.97,-62.47 1524.33,-47.36 1474.39,-35.86"/>
<polygon fill="black" stroke="black" points="1475.35,-32.48 1464.81,-33.65 1473.77,-39.31 1475.35,-32.48"/>
</g>
<!-- emit_token_opt_in_event -->
<g id="node8" class="node">
<title>emit_token_opt_in_event</title>
<ellipse fill="none" stroke="black" cx="1968.19" cy="-90" rx="100.98" ry="18"/>
<text text-anchor="middle" x="1968.19" y="-86.3" font-family="Times,serif" font-size="14.00">emit_token_opt_in_event</text>
</g>
<!-- emit_token_opt_in_event&#45;&gt;initialize_token_event_store -->
<g id="edge7" class="edge">
<title>emit_token_opt_in_event&#45;&gt;initialize_token_event_store</title>
<path fill="none" stroke="black" d="M1894.87,-77.27C1882.63,-75.43 1870.06,-73.61 1858.19,-72 1736.61,-55.56 1596.42,-39.77 1503.7,-29.77"/>
<polygon fill="black" stroke="black" points="1504.18,-26.3 1493.86,-28.71 1503.43,-33.26 1504.18,-26.3"/>
</g>
<!-- emit_token_royalty_mutate_event -->
<g id="node9" class="node">
<title>emit_token_royalty_mutate_event</title>
<ellipse fill="none" stroke="black" cx="2219.19" cy="-90" rx="131.88" ry="18"/>
<text text-anchor="middle" x="2219.19" y="-86.3" font-family="Times,serif" font-size="14.00">emit_token_royalty_mutate_event</text>
</g>
<!-- emit_token_royalty_mutate_event&#45;&gt;initialize_token_event_store -->
<g id="edge8" class="edge">
<title>emit_token_royalty_mutate_event&#45;&gt;initialize_token_event_store</title>
<path fill="none" stroke="black" d="M2124.82,-77.07C2109.25,-75.26 2093.28,-73.5 2078.19,-72 1879.64,-52.27 1647.72,-35.46 1513.34,-26.34"/>
<polygon fill="black" stroke="black" points="1513.96,-22.87 1503.75,-25.69 1513.49,-29.86 1513.96,-22.87"/>
</g>
<!-- emit_token_uri_mutate_event -->
<g id="node10" class="node">
<title>emit_token_uri_mutate_event</title>
<ellipse fill="none" stroke="black" cx="2486.19" cy="-90" rx="116.98" ry="18"/>
<text text-anchor="middle" x="2486.19" y="-86.3" font-family="Times,serif" font-size="14.00">emit_token_uri_mutate_event</text>
</g>
<!-- emit_token_uri_mutate_event&#45;&gt;initialize_token_event_store -->
<g id="edge9" class="edge">
<title>emit_token_uri_mutate_event&#45;&gt;initialize_token_event_store</title>
<path fill="none" stroke="black" d="M2403.61,-76.91C2389.16,-75.07 2374.25,-73.34 2360.19,-72 2058.72,-43.38 1702.36,-28.69 1520.7,-22.57"/>
<polygon fill="black" stroke="black" points="1520.88,-19.08 1510.77,-22.24 1520.65,-26.07 1520.88,-19.08"/>
</g>
<!-- token::mutate_collection_description -->
<g id="node11" class="node">
<title>token::mutate_collection_description</title>
<ellipse fill="none" stroke="black" cx="471.19" cy="-162" rx="117.78" ry="18"/>
<text text-anchor="middle" x="471.19" y="-158.3" font-family="Times,serif" font-size="14.00">mutate_collection_description</text>
</g>
<!-- token::mutate_collection_description&#45;&gt;emit_collection_description_mutate_event -->
<g id="edge10" class="edge">
<title>token::mutate_collection_description&#45;&gt;emit_collection_description_mutate_event</title>
<path fill="none" stroke="black" d="M406.95,-146.5C359.04,-135.68 293.26,-120.82 241.81,-109.2"/>
<polygon fill="black" stroke="black" points="242.73,-105.82 232.2,-107.04 241.19,-112.65 242.73,-105.82"/>
</g>
<!-- token::mutate_collection_maximum -->
<g id="node12" class="node">
<title>token::mutate_collection_maximum</title>
<ellipse fill="none" stroke="black" cx="722.19" cy="-162" rx="115.88" ry="18"/>
<text text-anchor="middle" x="722.19" y="-158.3" font-family="Times,serif" font-size="14.00">mutate_collection_maximum</text>
</g>
<!-- token::mutate_collection_maximum&#45;&gt;emit_collection_maximum_mutate_event -->
<g id="edge11" class="edge">
<title>token::mutate_collection_maximum&#45;&gt;emit_collection_maximum_mutate_event</title>
<path fill="none" stroke="black" d="M672.42,-145.38C639.84,-135.15 597.01,-121.71 562.08,-110.74"/>
<polygon fill="black" stroke="black" points="563.55,-107.54 552.96,-107.88 561.45,-114.21 563.55,-107.54"/>
</g>
<!-- token::mutate_collection_uri -->
<g id="node13" class="node">
<title>token::mutate_collection_uri</title>
<ellipse fill="none" stroke="black" cx="944.19" cy="-162" rx="88.28" ry="18"/>
<text text-anchor="middle" x="944.19" y="-158.3" font-family="Times,serif" font-size="14.00">mutate_collection_uri</text>
</g>
<!-- token::mutate_collection_uri&#45;&gt;emit_collection_uri_mutate_event -->
<g id="edge12" class="edge">
<title>token::mutate_collection_uri&#45;&gt;emit_collection_uri_mutate_event</title>
<path fill="none" stroke="black" d="M912.64,-144.76C894.33,-135.34 871.02,-123.34 851.06,-113.07"/>
<polygon fill="black" stroke="black" points="852.82,-110.04 842.32,-108.57 849.61,-116.26 852.82,-110.04"/>
</g>
<!-- token::mutate_tokendata_property -->
<g id="node14" class="node">
<title>token::mutate_tokendata_property</title>
<ellipse fill="none" stroke="black" cx="1158.19" cy="-162" rx="107.78" ry="18"/>
<text text-anchor="middle" x="1158.19" y="-158.3" font-family="Times,serif" font-size="14.00">mutate_tokendata_property</text>
</g>
<!-- token::mutate_tokendata_property&#45;&gt;emit_default_property_mutate_event -->
<g id="edge13" class="edge">
<title>token::mutate_tokendata_property&#45;&gt;emit_default_property_mutate_event</title>
<path fill="none" stroke="black" d="M1143.85,-143.7C1137.11,-135.56 1128.93,-125.69 1121.48,-116.7"/>
<polygon fill="black" stroke="black" points="1124.4,-114.74 1115.32,-109.27 1119.01,-119.2 1124.4,-114.74"/>
</g>
<!-- token::mutate_tokendata_description -->
<g id="node15" class="node">
<title>token::mutate_tokendata_description</title>
<ellipse fill="none" stroke="black" cx="1401.19" cy="-162" rx="116.98" ry="18"/>
<text text-anchor="middle" x="1401.19" y="-158.3" font-family="Times,serif" font-size="14.00">mutate_tokendata_description</text>
</g>
<!-- token::mutate_tokendata_description&#45;&gt;emit_token_descrition_mutate_event -->
<g id="edge14" class="edge">
<title>token::mutate_tokendata_description&#45;&gt;emit_token_descrition_mutate_event</title>
<path fill="none" stroke="black" d="M1401.19,-143.7C1401.19,-136.41 1401.19,-127.73 1401.19,-119.54"/>
<polygon fill="black" stroke="black" points="1404.69,-119.62 1401.19,-109.62 1397.69,-119.62 1404.69,-119.62"/>
</g>
<!-- token::mutate_tokendata_maximum -->
<g id="node16" class="node">
<title>token::mutate_tokendata_maximum</title>
<ellipse fill="none" stroke="black" cx="1651.19" cy="-162" rx="115.08" ry="18"/>
<text text-anchor="middle" x="1651.19" y="-158.3" font-family="Times,serif" font-size="14.00">mutate_tokendata_maximum</text>
</g>
<!-- token::mutate_tokendata_maximum&#45;&gt;emit_token_maximum_mutate_event -->
<g id="edge15" class="edge">
<title>token::mutate_tokendata_maximum&#45;&gt;emit_token_maximum_mutate_event</title>
<path fill="none" stroke="black" d="M1664.53,-143.7C1670.75,-135.64 1678.27,-125.89 1685.14,-116.98"/>
<polygon fill="black" stroke="black" points="1687.73,-119.36 1691.07,-109.3 1682.19,-115.08 1687.73,-119.36"/>
</g>
<!-- token::opt_in_direct_transfer -->
<g id="node17" class="node">
<title>token::opt_in_direct_transfer</title>
<ellipse fill="none" stroke="black" cx="1873.19" cy="-162" rx="89.08" ry="18"/>
<text text-anchor="middle" x="1873.19" y="-158.3" font-family="Times,serif" font-size="14.00">opt_in_direct_transfer</text>
</g>
<!-- token::opt_in_direct_transfer&#45;&gt;emit_token_opt_in_event -->
<g id="edge16" class="edge">
<title>token::opt_in_direct_transfer&#45;&gt;emit_token_opt_in_event</title>
<path fill="none" stroke="black" d="M1895.7,-144.41C1907.71,-135.56 1922.7,-124.52 1935.92,-114.77"/>
<polygon fill="black" stroke="black" points="1937.98,-117.6 1943.96,-108.85 1933.83,-111.97 1937.98,-117.6"/>
</g>
<!-- token::mutate_tokendata_royalty -->
<g id="node18" class="node">
<title>token::mutate_tokendata_royalty</title>
<ellipse fill="none" stroke="black" cx="2083.19" cy="-162" rx="102.88" ry="18"/>
<text text-anchor="middle" x="2083.19" y="-158.3" font-family="Times,serif" font-size="14.00">mutate_tokendata_royalty</text>
</g>
<!-- token::mutate_tokendata_royalty&#45;&gt;emit_token_royalty_mutate_event -->
<g id="edge17" class="edge">
<title>token::mutate_tokendata_royalty&#45;&gt;emit_token_royalty_mutate_event</title>
<path fill="none" stroke="black" d="M2115.07,-144.59C2133.39,-135.16 2156.64,-123.2 2176.51,-112.96"/>
<polygon fill="black" stroke="black" points="2177.92,-116.18 2185.21,-108.49 2174.72,-109.95 2177.92,-116.18"/>
</g>
<!-- token::mutate_tokendata_uri -->
<g id="node19" class="node">
<title>token::mutate_tokendata_uri</title>
<ellipse fill="none" stroke="black" cx="2291.19" cy="-162" rx="87.99" ry="18"/>
<text text-anchor="middle" x="2291.19" y="-158.3" font-family="Times,serif" font-size="14.00">mutate_tokendata_uri</text>
</g>
<!-- token::mutate_tokendata_uri&#45;&gt;emit_token_uri_mutate_event -->
<g id="edge18" class="edge">
<title>token::mutate_tokendata_uri&#45;&gt;emit_token_uri_mutate_event</title>
<path fill="none" stroke="black" d="M2333.5,-145.81C2362.05,-135.56 2400.03,-121.93 2430.96,-110.82"/>
<polygon fill="black" stroke="black" points="2431.93,-114.19 2440.16,-107.52 2429.57,-107.61 2431.93,-114.19"/>
</g>
</g>
</svg>
