<svg width="100%" height="100%" viewBox="0 0 20 20" fill="none" xmlns="http://www.w3.org/2000/svg"><path fill-rule="evenodd" clip-rule="evenodd" d="M3.75 0h12.5C18.32 0 20 1.68 20 3.75v12.5c0 2.07-1.68 3.75-3.75 3.75H3.75C1.68 20 0 18.32 0 16.25V3.75C0 1.68 1.68 0 3.75 0Zm-.673 16.977h3.107l-.018-9.303H3.059l.018 9.303Zm1.475-10.52h-.018c-1.016 0-1.67-.7-1.67-1.571 0-.893.675-1.569 1.709-1.569s1.668.676 1.689 1.569c0 .871-.658 1.571-1.71 1.571Zm9.27 10.52h3.131v-5.403c0-2.791-1.487-4.09-3.476-4.09-1.605 0-2.275.881-2.678 1.503l-.018-1.313H7.632l.018 9.303h3.15V11.71c0-.274.02-.541.102-.737.216-.543.667-1.105 1.502-1.105 1.094 0 1.418.832 1.418 2.055v5.054Z" fill="currentColor"/></svg>
